<?xml version="1.0" encoding="UTF-8" standalone="no"?>
<!DOCTYPE svg PUBLIC "-//W3C//DTD SVG 1.1//EN"
 "http://www.w3.org/Graphics/SVG/1.1/DTD/svg11.dtd">
<!-- Generated by graphviz version 2.40.1 (20161225.0304)
 -->
<!-- Title: qjs::Runtime::~Runtime Pages: 1 -->
<svg width="652pt" height="370pt"
 viewBox="0.00 0.00 652.00 370.00" xmlns="http://www.w3.org/2000/svg" xmlns:xlink="http://www.w3.org/1999/xlink">
<g id="graph0" class="graph" transform="scale(1 1) rotate(0) translate(4 366)">
<title>qjs::Runtime::~Runtime</title>
<!-- Node457 -->
<g id="node1" class="node">
<title>Node457</title>
<polygon fill="#bfbfbf" stroke="#000000" points="0,-209.5 0,-228.5 132,-228.5 132,-209.5 0,-209.5"/>
<text text-anchor="middle" x="66" y="-216.5" font-family="Helvetica,sans-Serif" font-size="10.00" fill="#000000">qjs::Runtime::~Runtime</text>
</g>
<!-- Node458 -->
<g id="node2" class="node">
<title>Node458</title>
<g id="a_node2"><a xlink:href="quickjs_8c.html#ad80a65b72c3a346d8a0047858a5f0b13" target="_top" xlink:title="JS_FreeRuntime">
<polygon fill="none" stroke="#000000" points="168,-209.5 168,-228.5 260,-228.5 260,-209.5 168,-209.5"/>
<text text-anchor="middle" x="214" y="-216.5" font-family="Helvetica,sans-Serif" font-size="10.00" fill="#000000">JS_FreeRuntime</text>
</a>
</g>
</g>
<!-- Node457&#45;&gt;Node458 -->
<g id="edge1" class="edge">
<title>Node457&#45;&gt;Node458</title>
<path fill="none" stroke="#191970" d="M132.2082,-219C140.744,-219 149.4197,-219 157.7741,-219"/>
<polygon fill="#191970" stroke="#191970" points="157.7744,-222.5001 167.7743,-219 157.7743,-215.5001 157.7744,-222.5001"/>
</g>
<!-- Node459 -->
<g id="node3" class="node">
<title>Node459</title>
<g id="a_node3"><a xlink:href="quickjs_8c.html#ac3bdf708c1dc092fd52508b5d29bd0ce" target="_top" xlink:title="atom_is_free">
<polygon fill="none" stroke="#000000" points="301,-342.5 301,-361.5 381,-361.5 381,-342.5 301,-342.5"/>
<text text-anchor="middle" x="341" y="-349.5" font-family="Helvetica,sans-Serif" font-size="10.00" fill="#000000">atom_is_free</text>
</a>
</g>
</g>
<!-- Node458&#45;&gt;Node459 -->
<g id="edge2" class="edge">
<title>Node458&#45;&gt;Node459</title>
<path fill="none" stroke="#191970" d="M219.2346,-228.555C230.8059,-248.9808 260.378,-297.5121 296,-328 300.0172,-331.4382 304.6089,-334.5783 309.2886,-337.3723"/>
<polygon fill="#191970" stroke="#191970" points="307.8184,-340.558 318.2681,-342.3061 311.1893,-334.4231 307.8184,-340.558"/>
</g>
<!-- Node460 -->
<g id="node4" class="node">
<title>Node460</title>
<g id="a_node4"><a xlink:href="list_8h.html#a663527a4d757540b2177bef0db1ce5c0" target="_top" xlink:title="init_list_head">
<polygon fill="none" stroke="#000000" points="562,-114.5 562,-133.5 644,-133.5 644,-114.5 562,-114.5"/>
<text text-anchor="middle" x="603" y="-121.5" font-family="Helvetica,sans-Serif" font-size="10.00" fill="#000000">init_list_head</text>
</a>
</g>
</g>
<!-- Node458&#45;&gt;Node460 -->
<g id="edge3" class="edge">
<title>Node458&#45;&gt;Node460</title>
<path fill="none" stroke="#191970" d="M220.1416,-209.4347C232.5092,-190.8122 262.1423,-149.302 296,-124 345.2346,-87.2069 361.9178,-79.9579 422,-67 467.1834,-57.2553 482.1042,-52.5206 526,-67 549.9889,-74.9129 572.6153,-93.4987 587.0527,-107.3086"/>
<polygon fill="#191970" stroke="#191970" points="584.6248,-109.8303 594.1876,-114.3914 589.5564,-104.8624 584.6248,-109.8303"/>
</g>
<!-- Node461 -->
<g id="node5" class="node">
<title>Node461</title>
<g id="a_node5"><a xlink:href="quickjs_8c.html#a69e19dda8a93d613203e0baa06f0ed8d" target="_top" xlink:title="js_free_rt">
<polygon fill="none" stroke="#000000" points="572,-266.5 572,-285.5 634,-285.5 634,-266.5 572,-266.5"/>
<text text-anchor="middle" x="603" y="-273.5" font-family="Helvetica,sans-Serif" font-size="10.00" fill="#000000">js_free_rt</text>
</a>
</g>
</g>
<!-- Node458&#45;&gt;Node461 -->
<g id="edge4" class="edge">
<title>Node458&#45;&gt;Node461</title>
<path fill="none" stroke="#191970" d="M222.3505,-228.9544C235.9559,-244.3621 264.5639,-273.5101 296,-286 385.4803,-321.5515 501.4542,-301.9803 562.0394,-287.3569"/>
<polygon fill="#191970" stroke="#191970" points="563.1247,-290.6936 571.9823,-284.8803 561.4328,-283.9012 563.1247,-290.6936"/>
</g>
<!-- Node462 -->
<g id="node6" class="node">
<title>Node462</title>
<g id="a_node6"><a xlink:href="quickjs_8c.html#a5a0aca30abbb4d4ae86746541bf4cbc7" target="_top" xlink:title="JS_FreeAtomRT">
<polygon fill="none" stroke="#000000" points="296.5,-209.5 296.5,-228.5 385.5,-228.5 385.5,-209.5 296.5,-209.5"/>
<text text-anchor="middle" x="341" y="-216.5" font-family="Helvetica,sans-Serif" font-size="10.00" fill="#000000">JS_FreeAtomRT</text>
</a>
</g>
</g>
<!-- Node458&#45;&gt;Node462 -->
<g id="edge5" class="edge">
<title>Node458&#45;&gt;Node462</title>
<path fill="none" stroke="#191970" d="M260.2092,-219C268.6711,-219 277.5766,-219 286.2592,-219"/>
<polygon fill="#191970" stroke="#191970" points="286.3097,-222.5001 296.3097,-219 286.3096,-215.5001 286.3097,-222.5001"/>
</g>
<!-- Node467 -->
<g id="node9" class="node">
<title>Node467</title>
<g id="a_node9"><a xlink:href="quickjs_8h.html#ab8db583fa5e7c2b1935854a42859daed" target="_top" xlink:title="JS_FreeValueRT">
<polygon fill="none" stroke="#000000" points="296,-257.5 296,-276.5 386,-276.5 386,-257.5 296,-257.5"/>
<text text-anchor="middle" x="341" y="-264.5" font-family="Helvetica,sans-Serif" font-size="10.00" fill="#000000">JS_FreeValueRT</text>
</a>
</g>
</g>
<!-- Node458&#45;&gt;Node467 -->
<g id="edge8" class="edge">
<title>Node458&#45;&gt;Node467</title>
<path fill="none" stroke="#191970" d="M239.3951,-228.5982C258.517,-235.8253 284.9544,-245.8174 306.0682,-253.7974"/>
<polygon fill="#191970" stroke="#191970" points="305.0573,-257.1569 315.6489,-257.4185 307.5321,-250.609 305.0573,-257.1569"/>
</g>
<!-- Node499 -->
<g id="node11" class="node">
<title>Node499</title>
<g id="a_node11"><a xlink:href="quickjs_8c.html#aeeea589ee4cec4bbc3145210f4cf6e42" target="_top" xlink:title="JS_RunGC">
<polygon fill="none" stroke="#000000" points="309.5,-133.5 309.5,-152.5 372.5,-152.5 372.5,-133.5 309.5,-133.5"/>
<text text-anchor="middle" x="341" y="-140.5" font-family="Helvetica,sans-Serif" font-size="10.00" fill="#000000">JS_RunGC</text>
</a>
</g>
</g>
<!-- Node458&#45;&gt;Node499 -->
<g id="edge11" class="edge">
<title>Node458&#45;&gt;Node499</title>
<path fill="none" stroke="#191970" d="M230.0846,-209.3745C251.8417,-196.3546 290.8528,-173.0093 316.3293,-157.7636"/>
<polygon fill="#191970" stroke="#191970" points="318.2623,-160.6857 325.046,-152.5473 314.6678,-154.679 318.2623,-160.6857"/>
</g>
<!-- Node512 -->
<g id="node15" class="node">
<title>Node512</title>
<g id="a_node15"><a xlink:href="list_8h.html#acc8877b883e77ef12325dd5bfa4be0d3" target="_top" xlink:title="list_empty">
<polygon fill="none" stroke="#000000" points="307,-.5 307,-19.5 375,-19.5 375,-.5 307,-.5"/>
<text text-anchor="middle" x="341" y="-7.5" font-family="Helvetica,sans-Serif" font-size="10.00" fill="#000000">list_empty</text>
</a>
</g>
</g>
<!-- Node458&#45;&gt;Node512 -->
<g id="edge18" class="edge">
<title>Node458&#45;&gt;Node512</title>
<path fill="none" stroke="#191970" d="M215.9399,-209.3173C222.3318,-179.6211 245.285,-88.5448 296,-34 299.2934,-30.4579 303.2301,-27.3347 307.3858,-24.6129"/>
<polygon fill="#191970" stroke="#191970" points="309.1804,-27.6183 316.0872,-19.5842 305.6778,-21.5576 309.1804,-27.6183"/>
</g>
<!-- Node463 -->
<g id="node7" class="node">
<title>Node463</title>
<g id="a_node7"><a xlink:href="quickjs_8c.html#a7f6796ee7a195631366f57c713a33f65" target="_top" xlink:title="__JS_AtomIsConst">
<polygon fill="none" stroke="#000000" points="422,-228.5 422,-247.5 526,-247.5 526,-228.5 422,-228.5"/>
<text text-anchor="middle" x="474" y="-235.5" font-family="Helvetica,sans-Serif" font-size="10.00" fill="#000000">__JS_AtomIsConst</text>
</a>
</g>
</g>
<!-- Node462&#45;&gt;Node463 -->
<g id="edge6" class="edge">
<title>Node462&#45;&gt;Node463</title>
<path fill="none" stroke="#191970" d="M385.6571,-225.3796C394.1009,-226.5858 403.0732,-227.8676 411.9398,-229.1343"/>
<polygon fill="#191970" stroke="#191970" points="411.4772,-232.6036 421.8717,-230.5531 412.4672,-225.674 411.4772,-232.6036"/>
</g>
<!-- Node464 -->
<g id="node8" class="node">
<title>Node464</title>
<g id="a_node8"><a xlink:href="quickjs_8c.html#a0bbd9e3ecd55e3ea6c9d44bfda382095" target="_top" xlink:title="__JS_FreeAtom">
<polygon fill="none" stroke="#ff0000" points="430,-190.5 430,-209.5 518,-209.5 518,-190.5 430,-190.5"/>
<text text-anchor="middle" x="474" y="-197.5" font-family="Helvetica,sans-Serif" font-size="10.00" fill="#000000">__JS_FreeAtom</text>
</a>
</g>
</g>
<!-- Node462&#45;&gt;Node464 -->
<g id="edge7" class="edge">
<title>Node462&#45;&gt;Node464</title>
<path fill="none" stroke="#191970" d="M385.6571,-212.6204C396.5193,-211.0687 408.2561,-209.392 419.5174,-207.7832"/>
<polygon fill="#191970" stroke="#191970" points="420.2824,-211.2096 429.6869,-206.3304 419.2924,-204.2799 420.2824,-211.2096"/>
</g>
<!-- Node468 -->
<g id="node10" class="node">
<title>Node468</title>
<g id="a_node10"><a xlink:href="quickjs_8c.html#ab1ea3fad7d138be12144a38be4d36423" target="_top" xlink:title="__JS_FreeValueRT">
<polygon fill="none" stroke="#ff0000" points="423.5,-266.5 423.5,-285.5 524.5,-285.5 524.5,-266.5 423.5,-266.5"/>
<text text-anchor="middle" x="474" y="-273.5" font-family="Helvetica,sans-Serif" font-size="10.00" fill="#000000">__JS_FreeValueRT</text>
</a>
</g>
</g>
<!-- Node467&#45;&gt;Node468 -->
<g id="edge9" class="edge">
<title>Node467&#45;&gt;Node468</title>
<path fill="none" stroke="#191970" d="M386.0277,-270.047C394.6788,-270.6324 403.873,-271.2546 412.9319,-271.8676"/>
<polygon fill="#191970" stroke="#191970" points="412.8525,-275.3701 423.066,-272.5533 413.3251,-268.3861 412.8525,-275.3701"/>
</g>
<!-- Node468&#45;&gt;Node461 -->
<g id="edge10" class="edge">
<title>Node468&#45;&gt;Node461</title>
<path fill="none" stroke="#191970" d="M524.614,-276C536.9522,-276 550.0021,-276 561.8397,-276"/>
<polygon fill="#191970" stroke="#191970" points="561.882,-279.5001 571.8819,-276 561.8819,-272.5001 561.882,-279.5001"/>
</g>
<!-- Node500 -->
<g id="node12" class="node">
<title>Node500</title>
<g id="a_node12"><a xlink:href="quickjs_8c.html#ae09ca4f159971d3c1f1dafc8682ba04b" target="_top" xlink:title="gc_decref">
<polygon fill="none" stroke="#ff0000" points="442,-114.5 442,-133.5 506,-133.5 506,-114.5 442,-114.5"/>
<text text-anchor="middle" x="474" y="-121.5" font-family="Helvetica,sans-Serif" font-size="10.00" fill="#000000">gc_decref</text>
</a>
</g>
</g>
<!-- Node499&#45;&gt;Node500 -->
<g id="edge12" class="edge">
<title>Node499&#45;&gt;Node500</title>
<path fill="none" stroke="#191970" d="M372.5191,-138.4973C390.2301,-135.9671 412.5688,-132.7759 431.7758,-130.032"/>
<polygon fill="#191970" stroke="#191970" points="432.3787,-133.4815 441.7832,-128.6024 431.3887,-126.5519 432.3787,-133.4815"/>
</g>
<!-- Node508 -->
<g id="node13" class="node">
<title>Node508</title>
<g id="a_node13"><a xlink:href="quickjs_8c.html#af7c53b26778d6b7e155fab5349a4585e" target="_top" xlink:title="gc_free_cycles">
<polygon fill="none" stroke="#ff0000" points="429.5,-152.5 429.5,-171.5 518.5,-171.5 518.5,-152.5 429.5,-152.5"/>
<text text-anchor="middle" x="474" y="-159.5" font-family="Helvetica,sans-Serif" font-size="10.00" fill="#000000">gc_free_cycles</text>
</a>
</g>
</g>
<!-- Node499&#45;&gt;Node508 -->
<g id="edge14" class="edge">
<title>Node499&#45;&gt;Node508</title>
<path fill="none" stroke="#191970" d="M372.5191,-147.5027C386.4451,-149.4922 403.2322,-151.8903 419.1083,-154.1583"/>
<polygon fill="#191970" stroke="#191970" points="418.9759,-157.6749 429.3704,-155.6243 419.9659,-150.7452 418.9759,-157.6749"/>
</g>
<!-- Node509 -->
<g id="node14" class="node">
<title>Node509</title>
<g id="a_node14"><a xlink:href="quickjs_8c.html#adee2db09b659dd2c1a1a3c408658a753" target="_top" xlink:title="gc_scan">
<polygon fill="none" stroke="#ff0000" points="446,-76.5 446,-95.5 502,-95.5 502,-76.5 446,-76.5"/>
<text text-anchor="middle" x="474" y="-83.5" font-family="Helvetica,sans-Serif" font-size="10.00" fill="#000000">gc_scan</text>
</a>
</g>
</g>
<!-- Node499&#45;&gt;Node509 -->
<g id="edge17" class="edge">
<title>Node499&#45;&gt;Node509</title>
<path fill="none" stroke="#191970" d="M360.0978,-133.456C376.3778,-125.4619 400.4899,-113.9548 422,-105 426.8124,-102.9966 431.9196,-100.9893 436.9807,-99.0696"/>
<polygon fill="#191970" stroke="#191970" points="438.4107,-102.2722 446.567,-95.5102 435.974,-95.71 438.4107,-102.2722"/>
</g>
<!-- Node500&#45;&gt;Node460 -->
<g id="edge13" class="edge">
<title>Node500&#45;&gt;Node460</title>
<path fill="none" stroke="#191970" d="M506.2194,-124C519.9227,-124 536.2452,-124 551.5456,-124"/>
<polygon fill="#191970" stroke="#191970" points="551.9302,-127.5001 561.9301,-124 551.9301,-120.5001 551.9302,-127.5001"/>
</g>
<!-- Node508&#45;&gt;Node460 -->
<g id="edge15" class="edge">
<title>Node508&#45;&gt;Node460</title>
<path fill="none" stroke="#191970" d="M506.5521,-152.411C522.8993,-147.5956 542.9092,-141.7012 560.4571,-136.532"/>
<polygon fill="#191970" stroke="#191970" points="561.8548,-139.7691 570.4583,-133.5859 559.8768,-133.0543 561.8548,-139.7691"/>
</g>
<!-- Node508&#45;&gt;Node461 -->
<g id="edge16" class="edge">
<title>Node508&#45;&gt;Node461</title>
<path fill="none" stroke="#191970" d="M508.3359,-171.5464C514.5182,-174.0818 520.6806,-177.2025 526,-181 555.219,-201.8594 579.4341,-236.6127 592.5067,-257.803"/>
<polygon fill="#191970" stroke="#191970" points="589.5663,-259.7052 597.707,-266.486 595.5716,-256.1086 589.5663,-259.7052"/>
</g>
</g>
</svg>
