<?xml version="1.0" encoding="UTF-8" standalone="no"?>
<!DOCTYPE svg PUBLIC "-//W3C//DTD SVG 1.1//EN"
 "http://www.w3.org/Graphics/SVG/1.1/DTD/svg11.dtd">
<!-- Generated by graphviz version 2.40.1 (20161225.0304)
 -->
<!-- Title: put_u16 Pages: 1 -->
<!--zoomable 143 -->
<svg id="main" version="1.1" xmlns="http://www.w3.org/2000/svg" xmlns:xlink="http://www.w3.org/1999/xlink" xml:space="preserve" onload="init(evt)">
<style type="text/css"><![CDATA[
.edge:hover path { stroke: red; }
.edge:hover polygon { stroke: red; fill: red; }
]]></style>
<script type="text/javascript"><![CDATA[
var edges = document.getElementsByTagName('g');
if (edges && edges.length) {
  for (var i=0;i<edges.length;i++) {
    if (edges[i].id.substr(0,4)=='edge') {
      edges[i].setAttribute('class','edge');
    }
  }
}
]]></script>
        <defs>
                <circle id="rim" cx="0" cy="0" r="7"/>
                <circle id="rim2" cx="0" cy="0" r="3.5"/>
                <g id="zoomPlus">
                        <use xlink:href="#rim" fill="#404040">
                                <set attributeName="fill" to="#808080" begin="zoomplus.mouseover" end="zoomplus.mouseout"/>
                        </use>
                        <path d="M-4,0h8M0,-4v8" fill="none" stroke="white" stroke-width="1.5" pointer-events="none"/>
                </g>
                <g id="zoomMin">
                        <use xlink:href="#rim" fill="#404040">
                                <set attributeName="fill" to="#808080" begin="zoomminus.mouseover" end="zoomminus.mouseout"/>
                        </use>
                        <path d="M-4,0h8" fill="none" stroke="white" stroke-width="1.5" pointer-events="none"/>
                </g>
                <g id="dirArrow">
                        <path fill="none" stroke="white" stroke-width="1.5" d="M0,-3.0v7 M-2.5,-0.5L0,-3.0L2.5,-0.5"/>
                </g>
               <g id="resetDef">
                       <use xlink:href="#rim2" fill="#404040">
                               <set attributeName="fill" to="#808080" begin="reset.mouseover" end="reset.mouseout"/>
                       </use>
               </g>
        </defs>

<script type="text/javascript">
var viewWidth = 705;
var viewHeight = 143;
var sectionId = 'dynsection-23';
</script>
<script xlink:href="svgpan.js"/>
<svg id="graph" class="graph">
<g id="viewport">
<title>put_u16</title>
<!-- Node4407 -->
<g id="node1" class="node">
<title>Node4407</title>
<polygon fill="#bfbfbf" stroke="#000000" points="0,-58.4798 0,-77.4798 56,-77.4798 56,-58.4798 0,-58.4798"/>
<text text-anchor="middle" x="28" y="-65.4798" font-family="Helvetica,sans-Serif" font-size="10.00" fill="#000000">put_u16</text>
</g>
<!-- Node4408 -->
<g id="node2" class="node">
<title>Node4408</title>
<g id="a_node2"><a xlink:href="quickjs_8c.html#a5176c9251c0ffb7c858cdc74296f16fe" target="_top" xlink:title="bc_byte_swap">
<polygon fill="none" stroke="#000000" points="121.5,-115.4798 121.5,-134.4798 207.5,-134.4798 207.5,-115.4798 121.5,-115.4798"/>
<text text-anchor="middle" x="164.5" y="-122.4798" font-family="Helvetica,sans-Serif" font-size="10.00" fill="#000000">bc_byte_swap</text>
</a>
</g>
</g>
<!-- Node4407&#45;&gt;Node4408 -->
<g id="edge1" class="edge">
<title>Node4407&#45;&gt;Node4408</title>
<path fill="none" stroke="#191970" d="M50.0825,-83.1803C62.0592,-90.8775 77.3698,-99.8621 92,-105.9798 101.2435,-109.845 111.4855,-113.104 121.2891,-115.7717"/>
<polygon fill="#191970" stroke="#191970" points="51.9155,-80.1966 41.6402,-77.6141 48.0623,-86.0407 51.9155,-80.1966"/>
</g>
<!-- Node4410 -->
<g id="node4" class="node">
<title>Node4410</title>
<g id="a_node4"><a xlink:href="quickjs_8c.html#a77e9c7ebb882b521133545bc59d15a4a" target="_top" xlink:title="js_dataview_setValue">
<polygon fill="none" stroke="#000000" points="103.5,-77.4798 103.5,-96.4798 225.5,-96.4798 225.5,-77.4798 103.5,-77.4798"/>
<text text-anchor="middle" x="164.5" y="-84.4798" font-family="Helvetica,sans-Serif" font-size="10.00" fill="#000000">js_dataview_setValue</text>
</a>
</g>
</g>
<!-- Node4407&#45;&gt;Node4410 -->
<g id="edge3" class="edge">
<title>Node4407&#45;&gt;Node4410</title>
<path fill="none" stroke="#191970" d="M66.3859,-73.3229C77.8712,-74.9216 90.762,-76.7159 103.3291,-78.4652"/>
<polygon fill="#191970" stroke="#191970" points="66.67,-69.8288 56.2829,-71.9166 65.7048,-76.7619 66.67,-69.8288"/>
</g>
<!-- Node4411 -->
<g id="node5" class="node">
<title>Node4411</title>
<g id="a_node5"><a xlink:href="quickjs_8c.html#a7c152c8f95a5338351e7f99447d6aea4" target="_top" xlink:title="optimize_scope_make_ref">
<polygon fill="none" stroke="#000000" points="92,-39.4798 92,-58.4798 237,-58.4798 237,-39.4798 92,-39.4798"/>
<text text-anchor="middle" x="164.5" y="-46.4798" font-family="Helvetica,sans-Serif" font-size="10.00" fill="#000000">optimize_scope_make_ref</text>
</a>
</g>
</g>
<!-- Node4407&#45;&gt;Node4411 -->
<g id="edge4" class="edge">
<title>Node4407&#45;&gt;Node4411</title>
<path fill="none" stroke="#191970" d="M66.3156,-62.6465C75.5909,-61.3554 85.7861,-59.9363 95.9891,-58.5161"/>
<polygon fill="#191970" stroke="#191970" points="65.7048,-59.1977 56.2829,-64.043 66.67,-66.1309 65.7048,-59.1977"/>
</g>
<!-- Node4421 -->
<g id="node9" class="node">
<title>Node4421</title>
<g id="a_node9"><a xlink:href="quickjs_8c.html#ad0d311d4ce409584384f835f1a3e185a" target="_top" xlink:title="resolve_labels">
<polygon fill="none" stroke="#000000" points="460,-1.4798 460,-20.4798 547,-20.4798 547,-1.4798 460,-1.4798"/>
<text text-anchor="middle" x="503.5" y="-8.4798" font-family="Helvetica,sans-Serif" font-size="10.00" fill="#000000">resolve_labels</text>
</a>
</g>
</g>
<!-- Node4407&#45;&gt;Node4421 -->
<g id="edge9" class="edge">
<title>Node4407&#45;&gt;Node4421</title>
<path fill="none" stroke="#191970" d="M48.2575,-52.4412C60.28,-44.1509 76.2169,-34.7065 92,-29.9798 221.3142,8.7466 383.6394,.6954 459.9997,-6.2071"/>
<polygon fill="#191970" stroke="#191970" points="45.9673,-49.7772 39.8942,-58.4587 50.0556,-55.4593 45.9673,-49.7772"/>
</g>
<!-- Node4409 -->
<g id="node3" class="node">
<title>Node4409</title>
<g id="a_node3"><a xlink:href="quickjs_8c.html#a394e92f87f41d27e7031eb3150bc35b1" target="_top" xlink:title="JS_WriteFunctionBytecode">
<polygon fill="none" stroke="#000000" points="273,-115.4798 273,-134.4798 416,-134.4798 416,-115.4798 273,-115.4798"/>
<text text-anchor="middle" x="344.5" y="-122.4798" font-family="Helvetica,sans-Serif" font-size="10.00" fill="#000000">JS_WriteFunctionBytecode</text>
</a>
</g>
</g>
<!-- Node4408&#45;&gt;Node4409 -->
<g id="edge2" class="edge">
<title>Node4408&#45;&gt;Node4409</title>
<path fill="none" stroke="#191970" d="M218.031,-124.9798C235.2516,-124.9798 254.6161,-124.9798 272.9188,-124.9798"/>
<polygon fill="#191970" stroke="#191970" points="217.6145,-121.4799 207.6145,-124.9798 217.6145,-128.4799 217.6145,-121.4799"/>
</g>
<!-- Node4412 -->
<g id="node6" class="node">
<title>Node4412</title>
<g id="a_node6"><a xlink:href="quickjs_8c.html#a30aac2d7e62ad60386ab6b522d7db744" target="_top" xlink:title="resolve_scope_var">
<polygon fill="none" stroke="#000000" points="291,-39.4798 291,-58.4798 398,-58.4798 398,-39.4798 291,-39.4798"/>
<text text-anchor="middle" x="344.5" y="-46.4798" font-family="Helvetica,sans-Serif" font-size="10.00" fill="#000000">resolve_scope_var</text>
</a>
</g>
</g>
<!-- Node4411&#45;&gt;Node4412 -->
<g id="edge5" class="edge">
<title>Node4411&#45;&gt;Node4412</title>
<path fill="none" stroke="#191970" d="M247.3736,-48.9798C262.1656,-48.9798 277.216,-48.9798 290.9129,-48.9798"/>
<polygon fill="#191970" stroke="#191970" points="247.1941,-45.4799 237.194,-48.9798 247.194,-52.4799 247.1941,-45.4799"/>
</g>
<!-- Node4413 -->
<g id="node7" class="node">
<title>Node4413</title>
<g id="a_node7"><a xlink:href="quickjs_8c.html#a7a4eedc4cc552a71e165f4d28ad43985" target="_top" xlink:title="resolve_variables">
<polygon fill="none" stroke="#000000" points="452,-39.4798 452,-58.4798 555,-58.4798 555,-39.4798 452,-39.4798"/>
<text text-anchor="middle" x="503.5" y="-46.4798" font-family="Helvetica,sans-Serif" font-size="10.00" fill="#000000">resolve_variables</text>
</a>
</g>
</g>
<!-- Node4412&#45;&gt;Node4413 -->
<g id="edge6" class="edge">
<title>Node4412&#45;&gt;Node4413</title>
<path fill="none" stroke="#191970" d="M408.6451,-48.9798C423.0187,-48.9798 438.0885,-48.9798 451.8773,-48.9798"/>
<polygon fill="#191970" stroke="#191970" points="408.3302,-45.4799 398.3301,-48.9798 408.3301,-52.4799 408.3302,-45.4799"/>
</g>
<!-- Node4414 -->
<g id="node8" class="node">
<title>Node4414</title>
<g id="a_node8"><a xlink:href="quickjs_8c.html#a97fcc747d8b1c3644174745d2e2739be" target="_top" xlink:title="js_create_function">
<polygon fill="none" stroke="#ff0000" points="591,-20.4798 591,-39.4798 697,-39.4798 697,-20.4798 591,-20.4798"/>
<text text-anchor="middle" x="644" y="-27.4798" font-family="Helvetica,sans-Serif" font-size="10.00" fill="#000000">js_create_function</text>
</a>
</g>
</g>
<!-- Node4413&#45;&gt;Node4414 -->
<g id="edge7" class="edge">
<title>Node4413&#45;&gt;Node4414</title>
<path fill="none" stroke="#191970" d="M564.9423,-40.6709C573.4909,-39.5149 582.2162,-38.3349 590.6012,-37.201"/>
<polygon fill="#191970" stroke="#191970" points="564.4599,-37.2042 555.0192,-42.0128 565.3981,-44.141 564.4599,-37.2042"/>
</g>
<!-- Node4414&#45;&gt;Node4414 -->
<g id="edge8" class="edge">
<title>Node4414&#45;&gt;Node4414</title>
<path fill="none" stroke="#191970" d="M617.9584,-49.009C619.3789,-54.1078 628.0594,-57.9798 644,-57.9798 668.8828,-57.9798 676.0755,-48.5451 665.5781,-39.7369"/>
<polygon fill="#191970" stroke="#191970" points="621.238,-50.2654 622.4219,-39.7369 614.9308,-47.2291 621.238,-50.2654"/>
</g>
<!-- Node4421&#45;&gt;Node4414 -->
<g id="edge10" class="edge">
<title>Node4421&#45;&gt;Node4414</title>
<path fill="none" stroke="#191970" d="M557.1593,-18.2362C568.2362,-19.7342 579.8968,-21.3111 590.9518,-22.806"/>
<polygon fill="#191970" stroke="#191970" points="557.5638,-14.7592 547.1849,-16.8874 556.6256,-21.696 557.5638,-14.7592"/>
</g>
</g>
</svg>
        <g id="navigator" transform="translate(0 0)" fill="#404254">
                <rect fill="#f2f5e9" fill-opacity="0.5" stroke="#606060" stroke-width=".5" x="0" y="0" width="60" height="60"/>
                <use id="zoomplus" xlink:href="#zoomPlus" x="17" y="9" onmousedown="handleZoom(evt,'in')"/>
                <use id="zoomminus" xlink:href="#zoomMin" x="42" y="9" onmousedown="handleZoom(evt,'out')"/>
                <use id="reset" xlink:href="#resetDef" x="30" y="36" onmousedown="handleReset()"/>
                <g id="arrowUp" xlink:href="#dirArrow" transform="translate(30 24)" onmousedown="handlePan(0,-1)">
                  <use xlink:href="#rim" fill="#404040">
                        <set attributeName="fill" to="#808080" begin="arrowUp.mouseover" end="arrowUp.mouseout"/>
                  </use>
                  <path fill="none" stroke="white" stroke-width="1.5" d="M0,-3.0v7 M-2.5,-0.5L0,-3.0L2.5,-0.5"/>
                </g>
                <g id="arrowRight" xlink:href="#dirArrow" transform="rotate(90) translate(36 -43)" onmousedown="handlePan(1,0)">
                  <use xlink:href="#rim" fill="#404040">
                        <set attributeName="fill" to="#808080" begin="arrowRight.mouseover" end="arrowRight.mouseout"/>
                  </use>
                  <path fill="none" stroke="white" stroke-width="1.5" d="M0,-3.0v7 M-2.5,-0.5L0,-3.0L2.5,-0.5"/>
                </g>
                <g id="arrowDown" xlink:href="#dirArrow" transform="rotate(180) translate(-30 -48)" onmousedown="handlePan(0,1)">
                  <use xlink:href="#rim" fill="#404040">
                        <set attributeName="fill" to="#808080" begin="arrowDown.mouseover" end="arrowDown.mouseout"/>
                  </use>
                  <path fill="none" stroke="white" stroke-width="1.5" d="M0,-3.0v7 M-2.5,-0.5L0,-3.0L2.5,-0.5"/>
                </g>
                <g id="arrowLeft" xlink:href="#dirArrow" transform="rotate(270) translate(-36 17)" onmousedown="handlePan(-1,0)">
                  <use xlink:href="#rim" fill="#404040">
                        <set attributeName="fill" to="#808080" begin="arrowLeft.mouseover" end="arrowLeft.mouseout"/>
                  </use>
                  <path fill="none" stroke="white" stroke-width="1.5" d="M0,-3.0v7 M-2.5,-0.5L0,-3.0L2.5,-0.5"/>
                </g>
        </g>
        <svg viewBox="0 0 15 15" width="100%" height="30px" preserveAspectRatio="xMaxYMin meet">
         <g id="arrow_out" transform="scale(0.3 0.3)">
          <a xlink:href="cutils_8h_ae92485345dfbbc7e4118dac3d514ad76_icgraph_org.svg" target="_base">
           <rect id="button" ry="5" rx="5" y="6" x="6" height="38" width="38"
                fill="#f2f5e9" fill-opacity="0.5" stroke="#606060" stroke-width="1.0"/>
           <path id="arrow"
             d="M 11.500037,31.436501 C 11.940474,20.09759 22.043105,11.32322 32.158766,21.979434 L 37.068811,17.246167 C 37.068811,17.246167 37.088388,32 37.088388,32 L 22.160133,31.978069 C 22.160133,31.978069 26.997745,27.140456 26.997745,27.140456 C 18.528582,18.264221 13.291696,25.230495 11.500037,31.436501 z"
             style="fill:#404040;"/>
          </a>
         </g>
        </svg>
</svg>
