<?xml version="1.0" encoding="UTF-8" standalone="no"?>
<!DOCTYPE svg PUBLIC "-//W3C//DTD SVG 1.1//EN"
 "http://www.w3.org/Graphics/SVG/1.1/DTD/svg11.dtd">
<!-- Generated by graphviz version 2.40.1 (20161225.0304)
 -->
<!-- Title: dbuf_set_error Pages: 1 -->
<svg width="445pt" height="66pt"
 viewBox="0.00 0.00 445.00 66.00" xmlns="http://www.w3.org/2000/svg" xmlns:xlink="http://www.w3.org/1999/xlink">
<g id="graph0" class="graph" transform="scale(1 1) rotate(0) translate(4 62)">
<title>dbuf_set_error</title>
<!-- Node9854 -->
<g id="node1" class="node">
<title>Node9854</title>
<polygon fill="#bfbfbf" stroke="#000000" points="0,-19.5 0,-38.5 87,-38.5 87,-19.5 0,-19.5"/>
<text text-anchor="middle" x="43.5" y="-26.5" font-family="Helvetica,sans-Serif" font-size="10.00" fill="#000000">dbuf_set_error</text>
</g>
<!-- Node9855 -->
<g id="node2" class="node">
<title>Node9855</title>
<g id="a_node2"><a xlink:href="libbf_8c.html#ae598665f1f567f67350a972a972ef86a" target="_top" xlink:title="output_digits">
<polygon fill="none" stroke="#000000" points="123,-19.5 123,-38.5 203,-38.5 203,-19.5 123,-19.5"/>
<text text-anchor="middle" x="163" y="-26.5" font-family="Helvetica,sans-Serif" font-size="10.00" fill="#000000">output_digits</text>
</a>
</g>
</g>
<!-- Node9854&#45;&gt;Node9855 -->
<g id="edge1" class="edge">
<title>Node9854&#45;&gt;Node9855</title>
<path fill="none" stroke="#191970" d="M97.5397,-29C106.0201,-29 114.6553,-29 122.7536,-29"/>
<polygon fill="#191970" stroke="#191970" points="97.3189,-25.5001 87.3188,-29 97.3188,-32.5001 97.3189,-25.5001"/>
</g>
<!-- Node9856 -->
<g id="node3" class="node">
<title>Node9856</title>
<g id="a_node3"><a xlink:href="libbf_8c.html#ad79aefc435021a0743c89cb4aec7fa56" target="_top" xlink:title="bf_ftoa_internal">
<polygon fill="none" stroke="#000000" points="239,-19.5 239,-38.5 333,-38.5 333,-19.5 239,-19.5"/>
<text text-anchor="middle" x="286" y="-26.5" font-family="Helvetica,sans-Serif" font-size="10.00" fill="#000000">bf_ftoa_internal</text>
</a>
</g>
</g>
<!-- Node9855&#45;&gt;Node9856 -->
<g id="edge2" class="edge">
<title>Node9855&#45;&gt;Node9856</title>
<path fill="none" stroke="#191970" d="M213.3488,-29C221.7611,-29 230.4613,-29 238.7913,-29"/>
<polygon fill="#191970" stroke="#191970" points="213.2748,-25.5001 203.2748,-29 213.2748,-32.5001 213.2748,-25.5001"/>
</g>
<!-- Node9857 -->
<g id="node4" class="node">
<title>Node9857</title>
<g id="a_node4"><a xlink:href="libbf_8h.html#a3ab9f99dbc84f8cce63cf3867b8986e5" target="_top" xlink:title="bf_ftoa">
<polygon fill="none" stroke="#000000" points="377.5,-38.5 377.5,-57.5 428.5,-57.5 428.5,-38.5 377.5,-38.5"/>
<text text-anchor="middle" x="403" y="-45.5" font-family="Helvetica,sans-Serif" font-size="10.00" fill="#000000">bf_ftoa</text>
</a>
</g>
</g>
<!-- Node9856&#45;&gt;Node9857 -->
<g id="edge3" class="edge">
<title>Node9856&#45;&gt;Node9857</title>
<path fill="none" stroke="#191970" d="M343.2616,-38.2989C355.2509,-40.2459 367.3096,-42.2041 377.4221,-43.8463"/>
<polygon fill="#191970" stroke="#191970" points="343.6829,-34.8215 333.2511,-36.6733 342.5608,-41.731 343.6829,-34.8215"/>
</g>
<!-- Node9858 -->
<g id="node5" class="node">
<title>Node9858</title>
<g id="a_node5"><a xlink:href="libbf_8h.html#a076d088aa44d1cfa2d6f85f718fb88bc" target="_top" xlink:title="bfdec_ftoa">
<polygon fill="none" stroke="#000000" points="369,-.5 369,-19.5 437,-19.5 437,-.5 369,-.5"/>
<text text-anchor="middle" x="403" y="-7.5" font-family="Helvetica,sans-Serif" font-size="10.00" fill="#000000">bfdec_ftoa</text>
</a>
</g>
</g>
<!-- Node9856&#45;&gt;Node9858 -->
<g id="edge4" class="edge">
<title>Node9856&#45;&gt;Node9858</title>
<path fill="none" stroke="#191970" d="M343.1346,-19.7217C351.9419,-18.2915 360.7904,-16.8546 368.8811,-15.5407"/>
<polygon fill="#191970" stroke="#191970" points="342.5608,-16.269 333.2511,-21.3267 343.6829,-23.1785 342.5608,-16.269"/>
</g>
</g>
</svg>
