<?xml version="1.0" encoding="UTF-8" standalone="no"?>
<!DOCTYPE svg PUBLIC "-//W3C//DTD SVG 1.1//EN"
 "http://www.w3.org/Graphics/SVG/1.1/DTD/svg11.dtd">
<!-- Generated by graphviz version 2.40.1 (20161225.0304)
 -->
<!-- Title: dbuf_realloc Pages: 1 -->
<!--zoomable 999 -->
<svg id="main" version="1.1" xmlns="http://www.w3.org/2000/svg" xmlns:xlink="http://www.w3.org/1999/xlink" xml:space="preserve" onload="init(evt)">
<style type="text/css"><![CDATA[
.edge:hover path { stroke: red; }
.edge:hover polygon { stroke: red; fill: red; }
]]></style>
<script type="text/javascript"><![CDATA[
var edges = document.getElementsByTagName('g');
if (edges && edges.length) {
  for (var i=0;i<edges.length;i++) {
    if (edges[i].id.substr(0,4)=='edge') {
      edges[i].setAttribute('class','edge');
    }
  }
}
]]></script>
        <defs>
                <circle id="rim" cx="0" cy="0" r="7"/>
                <circle id="rim2" cx="0" cy="0" r="3.5"/>
                <g id="zoomPlus">
                        <use xlink:href="#rim" fill="#404040">
                                <set attributeName="fill" to="#808080" begin="zoomplus.mouseover" end="zoomplus.mouseout"/>
                        </use>
                        <path d="M-4,0h8M0,-4v8" fill="none" stroke="white" stroke-width="1.5" pointer-events="none"/>
                </g>
                <g id="zoomMin">
                        <use xlink:href="#rim" fill="#404040">
                                <set attributeName="fill" to="#808080" begin="zoomminus.mouseover" end="zoomminus.mouseout"/>
                        </use>
                        <path d="M-4,0h8" fill="none" stroke="white" stroke-width="1.5" pointer-events="none"/>
                </g>
                <g id="dirArrow">
                        <path fill="none" stroke="white" stroke-width="1.5" d="M0,-3.0v7 M-2.5,-0.5L0,-3.0L2.5,-0.5"/>
                </g>
               <g id="resetDef">
                       <use xlink:href="#rim2" fill="#404040">
                               <set attributeName="fill" to="#808080" begin="reset.mouseover" end="reset.mouseout"/>
                       </use>
               </g>
        </defs>

<script type="text/javascript">
var viewWidth = 1110;
var viewHeight = 999;
var sectionId = 'dynsection-33';
</script>
<script xlink:href="svgpan.js"/>
<svg id="graph" class="graph">
<g id="viewport">
<title>dbuf_realloc</title>
<!-- Node5731 -->
<g id="node1" class="node">
<title>Node5731</title>
<polygon fill="#bfbfbf" stroke="#000000" points="0,-646.5 0,-665.5 77,-665.5 77,-646.5 0,-646.5"/>
<text text-anchor="middle" x="38.5" y="-653.5" font-family="Helvetica,sans-Serif" font-size="10.00" fill="#000000">dbuf_realloc</text>
</g>
<!-- Node5732 -->
<g id="node2" class="node">
<title>Node5732</title>
<g id="a_node2"><a xlink:href="cutils_8c.html#a0a619a0b3bf0d0ec3aa0a9a59d610e1c" target="_top" xlink:title="__attribute__">
<polygon fill="none" stroke="#000000" points="289.5,-798.5 289.5,-817.5 369.5,-817.5 369.5,-798.5 289.5,-798.5"/>
<text text-anchor="middle" x="329.5" y="-805.5" font-family="Helvetica,sans-Serif" font-size="10.00" fill="#000000">__attribute__</text>
</a>
</g>
</g>
<!-- Node5731&#45;&gt;Node5732 -->
<g id="edge1" class="edge">
<title>Node5731&#45;&gt;Node5732</title>
<path fill="none" stroke="#191970" d="M59.8963,-671.8483C97.9205,-699.3347 180.566,-756.0561 258,-789 267.9278,-793.2237 279.0386,-796.7213 289.4872,-799.5145"/>
<polygon fill="#191970" stroke="#191970" points="61.7801,-668.8903 51.6372,-665.8286 57.657,-674.5472 61.7801,-668.8903"/>
</g>
<!-- Node5733 -->
<g id="node3" class="node">
<title>Node5733</title>
<g id="a_node3"><a xlink:href="libregexp_8c.html#a44b4fc8b2dc5c233dff873025438c86d" target="_top" xlink:title="dbuf_insert">
<polygon fill="none" stroke="#000000" points="461,-950.5 461,-969.5 532,-969.5 532,-950.5 461,-950.5"/>
<text text-anchor="middle" x="496.5" y="-957.5" font-family="Helvetica,sans-Serif" font-size="10.00" fill="#000000">dbuf_insert</text>
</a>
</g>
</g>
<!-- Node5731&#45;&gt;Node5733 -->
<g id="edge2" class="edge">
<title>Node5731&#45;&gt;Node5733</title>
<path fill="none" stroke="#191970" d="M40.7984,-675.8468C47.9745,-734.0582 71.9691,-902.3679 113,-936 215.541,-1020.0505 390.0161,-988.0588 462.9247,-969.5465"/>
<polygon fill="#191970" stroke="#191970" points="44.2529,-675.2573 39.5874,-665.745 37.3027,-676.0905 44.2529,-675.2573"/>
</g>
<!-- Node5735 -->
<g id="node5" class="node">
<title>Node5735</title>
<g id="a_node5"><a xlink:href="libregexp_8c.html#a87dce3150c68b8a079854274dd39243c" target="_top" xlink:title="re_parse_alternative">
<polygon fill="none" stroke="#000000" points="722,-836.5 722,-855.5 839,-855.5 839,-836.5 722,-836.5"/>
<text text-anchor="middle" x="780.5" y="-843.5" font-family="Helvetica,sans-Serif" font-size="10.00" fill="#000000">re_parse_alternative</text>
</a>
</g>
</g>
<!-- Node5731&#45;&gt;Node5735 -->
<g id="edge57" class="edge">
<title>Node5731&#45;&gt;Node5735</title>
<path fill="none" stroke="#191970" d="M41.5942,-675.8827C50.3277,-729.2605 76.9009,-873.6468 113,-903 150.4717,-933.4693 281.204,-922 329.5,-922 329.5,-922 329.5,-922 496.5,-922 598.0706,-922 713.3414,-876.076 759.6375,-855.6255"/>
<polygon fill="#191970" stroke="#191970" points="44.9985,-675.006 39.9631,-665.6843 38.0863,-676.1115 44.9985,-675.006"/>
</g>
<!-- Node5747 -->
<g id="node8" class="node">
<title>Node5747</title>
<g id="a_node8"><a xlink:href="cutils_8h.html#ad1cfaae47347ae771136b5a9bbda49aa" target="_top" xlink:title="dbuf_put">
<polygon fill="none" stroke="#000000" points="138,-475.5 138,-494.5 197,-494.5 197,-475.5 138,-475.5"/>
<text text-anchor="middle" x="167.5" y="-482.5" font-family="Helvetica,sans-Serif" font-size="10.00" fill="#000000">dbuf_put</text>
</a>
</g>
</g>
<!-- Node5731&#45;&gt;Node5747 -->
<g id="edge9" class="edge">
<title>Node5731&#45;&gt;Node5747</title>
<path fill="none" stroke="#191970" d="M51.9332,-638.1932C79.034,-602.2689 139.4445,-522.1899 160.2749,-494.5774"/>
<polygon fill="#191970" stroke="#191970" points="49.0335,-636.2253 45.8052,-646.3163 54.6217,-640.441 49.0335,-636.2253"/>
</g>
<!-- Node6047 -->
<g id="node21" class="node">
<title>Node6047</title>
<g id="a_node21"><a xlink:href="quickjs_8c.html#ac188b916dd086803591a67de7e7a85f6" target="_top" xlink:title="js_parse_for_in_of">
<polygon fill="none" stroke="#000000" points="277,-114.5 277,-133.5 382,-133.5 382,-114.5 277,-114.5"/>
<text text-anchor="middle" x="329.5" y="-121.5" font-family="Helvetica,sans-Serif" font-size="10.00" fill="#000000">js_parse_for_in_of</text>
</a>
</g>
</g>
<!-- Node5731&#45;&gt;Node6047 -->
<g id="edge54" class="edge">
<title>Node5731&#45;&gt;Node6047</title>
<path fill="none" stroke="#191970" d="M40.6368,-636.2158C50.0216,-559.4893 94.7037,-279.0716 258,-142 263.4904,-137.3913 270.0001,-133.9376 276.8205,-131.3541"/>
<polygon fill="#191970" stroke="#191970" points="37.1341,-636.0382 39.4593,-646.3747 44.0875,-636.8442 37.1341,-636.0382"/>
</g>
<!-- Node6045 -->
<g id="node22" class="node">
<title>Node6045</title>
<g id="a_node22"><a xlink:href="quickjs_8c.html#a9d844c16dcc71701436848074337d32c" target="_top" xlink:title="js_parse_statement\l_or_decl">
<polygon fill="none" stroke="#ff0000" points="440,-109 440,-139 553,-139 553,-109 440,-109"/>
<text text-anchor="start" x="448" y="-127" font-family="Helvetica,sans-Serif" font-size="10.00" fill="#000000">js_parse_statement</text>
<text text-anchor="middle" x="496.5" y="-116" font-family="Helvetica,sans-Serif" font-size="10.00" fill="#000000">_or_decl</text>
</a>
</g>
</g>
<!-- Node5731&#45;&gt;Node6045 -->
<g id="edge55" class="edge">
<title>Node5731&#45;&gt;Node6045</title>
<path fill="none" stroke="#191970" d="M39.2612,-636.0826C42.6862,-555.5861 58.9389,-255.0329 113,-180 185.3736,-79.5509 351.8268,-94.5677 439.7319,-110.9603"/>
<polygon fill="#191970" stroke="#191970" points="35.7547,-636.1756 38.846,-646.3093 42.7489,-636.4596 35.7547,-636.1756"/>
</g>
<!-- Node5786 -->
<g id="node26" class="node">
<title>Node5786</title>
<g id="a_node26"><a xlink:href="quickjs_8c.html#a91942742587df191fbf0f17a2ede99ef" target="_top" xlink:title="JS_WriteObjectAtoms">
<polygon fill="none" stroke="#ff0000" points="437,-798.5 437,-817.5 556,-817.5 556,-798.5 437,-798.5"/>
<text text-anchor="middle" x="496.5" y="-805.5" font-family="Helvetica,sans-Serif" font-size="10.00" fill="#000000">JS_WriteObjectAtoms</text>
</a>
</g>
</g>
<!-- Node5731&#45;&gt;Node5786 -->
<g id="edge56" class="edge">
<title>Node5731&#45;&gt;Node5786</title>
<path fill="none" stroke="#191970" d="M48.7538,-674.4419C61.4996,-696.0219 85.0225,-731.7543 113,-755 168.342,-800.982 187.95,-810.5656 258,-827 328.5668,-843.5557 413.7464,-828.7133 460.8297,-817.5849"/>
<polygon fill="#191970" stroke="#191970" points="51.6985,-672.5417 43.6787,-665.6183 45.6306,-676.0318 51.6985,-672.5417"/>
</g>
<!-- Node6421 -->
<g id="node28" class="node">
<title>Node6421</title>
<g id="a_node28"><a xlink:href="cutils_8h.html#a6fe4b8f13b6e624047285f2ea509f555" target="_top" xlink:title="dbuf_put_self">
<polygon fill="none" stroke="#000000" points="126,-874.5 126,-893.5 209,-893.5 209,-874.5 126,-874.5"/>
<text text-anchor="middle" x="167.5" y="-881.5" font-family="Helvetica,sans-Serif" font-size="10.00" fill="#000000">dbuf_put_self</text>
</a>
</g>
</g>
<!-- Node5731&#45;&gt;Node6421 -->
<g id="edge51" class="edge">
<title>Node5731&#45;&gt;Node6421</title>
<path fill="none" stroke="#191970" d="M40.5941,-675.9735C45.7786,-715.8947 62.6693,-806.3047 113,-860 118.7977,-866.1853 126.4729,-870.8705 134.2281,-874.3821"/>
<polygon fill="#191970" stroke="#191970" points="44.055,-675.4359 39.4021,-665.9175 37.1037,-676.26 44.055,-675.4359"/>
</g>
<!-- Node6422 -->
<g id="node29" class="node">
<title>Node6422</title>
<g id="a_node29"><a xlink:href="cutils_8h.html#a881843768029856f5c48c57af5f8deb5" target="_top" xlink:title="dbuf_write">
<polygon fill="none" stroke="#000000" points="133.5,-38.5 133.5,-57.5 201.5,-57.5 201.5,-38.5 133.5,-38.5"/>
<text text-anchor="middle" x="167.5" y="-45.5" font-family="Helvetica,sans-Serif" font-size="10.00" fill="#000000">dbuf_write</text>
</a>
</g>
</g>
<!-- Node5731&#45;&gt;Node6422 -->
<g id="edge53" class="edge">
<title>Node5731&#45;&gt;Node6422</title>
<path fill="none" stroke="#191970" d="M39.8784,-636.1144C46.7552,-539.1076 78.4003,-118.3323 113,-72 118.0726,-65.2074 125.4872,-60.3039 133.2231,-56.7762"/>
<polygon fill="#191970" stroke="#191970" points="36.3728,-636.0721 39.164,-646.2926 43.3557,-636.5622 36.3728,-636.0721"/>
</g>
<!-- Node6414 -->
<g id="node30" class="node">
<title>Node6414</title>
<g id="a_node30"><a xlink:href="libunicode_8c.html#a6a79bc427bb64048b575fe5ac770160d" target="_top" xlink:title="unicode_normalize">
<polygon fill="none" stroke="#ff0000" points="113,-.5 113,-19.5 222,-19.5 222,-.5 113,-.5"/>
<text text-anchor="middle" x="167.5" y="-7.5" font-family="Helvetica,sans-Serif" font-size="10.00" fill="#000000">unicode_normalize</text>
</a>
</g>
</g>
<!-- Node5731&#45;&gt;Node6414 -->
<g id="edge58" class="edge">
<title>Node5731&#45;&gt;Node6414</title>
<path fill="none" stroke="#191970" d="M39.6326,-635.8789C45.5348,-533.9513 73.9963,-77.5487 113,-29 116.1379,-25.0942 120.1291,-21.9893 124.5205,-19.5215"/>
<polygon fill="#191970" stroke="#191970" points="36.1282,-635.8569 39.0514,-646.0405 43.1168,-636.2567 36.1282,-635.8569"/>
</g>
<!-- Node5734 -->
<g id="node4" class="node">
<title>Node5734</title>
<g id="a_node4"><a xlink:href="libregexp_8c.html#acca34590a18d70f866ad56d67ce309e8" target="_top" xlink:title="re_parse_term">
<polygon fill="none" stroke="#000000" points="595.5,-798.5 595.5,-817.5 682.5,-817.5 682.5,-798.5 595.5,-798.5"/>
<text text-anchor="middle" x="639" y="-805.5" font-family="Helvetica,sans-Serif" font-size="10.00" fill="#000000">re_parse_term</text>
</a>
</g>
</g>
<!-- Node5733&#45;&gt;Node5734 -->
<g id="edge3" class="edge">
<title>Node5733&#45;&gt;Node5734</title>
<path fill="none" stroke="#191970" d="M512.9835,-943.0064C524.9783,-930.5962 541.5768,-913.3312 556,-898 583.3807,-868.8955 615.3085,-834.0007 630.3382,-817.5163"/>
<polygon fill="#191970" stroke="#191970" points="510.2754,-940.7719 505.8352,-950.3914 515.3051,-945.6404 510.2754,-940.7719"/>
</g>
<!-- Node5736 -->
<g id="node6" class="node">
<title>Node5736</title>
<g id="a_node6"><a xlink:href="libregexp_8c.html#af445f369f2ccbbc81596e0fbed929b7e" target="_top" xlink:title="re_parse_disjunction">
<polygon fill="none" stroke="#000000" points="875,-817.5 875,-836.5 992,-836.5 992,-817.5 875,-817.5"/>
<text text-anchor="middle" x="933.5" y="-824.5" font-family="Helvetica,sans-Serif" font-size="10.00" fill="#000000">re_parse_disjunction</text>
</a>
</g>
</g>
<!-- Node5733&#45;&gt;Node5736 -->
<g id="edge8" class="edge">
<title>Node5733&#45;&gt;Node5736</title>
<path fill="none" stroke="#191970" d="M542.4803,-957.8928C581.3147,-955.2363 638.0944,-949.2795 686,-936 776.7163,-910.8533 877.1523,-858.2352 916.437,-836.6022"/>
<polygon fill="#191970" stroke="#191970" points="541.7828,-954.43 532.0252,-958.5579 542.2272,-961.4159 541.7828,-954.43"/>
</g>
<!-- Node5734&#45;&gt;Node5735 -->
<g id="edge4" class="edge">
<title>Node5734&#45;&gt;Node5735</title>
<path fill="none" stroke="#191970" d="M684.601,-820.2462C704.105,-825.484 726.5404,-831.5091 744.805,-836.4141"/>
<polygon fill="#191970" stroke="#191970" points="685.272,-816.8025 674.7064,-817.589 683.4564,-823.5629 685.272,-816.8025"/>
</g>
<!-- Node5735&#45;&gt;Node5736 -->
<g id="edge5" class="edge">
<title>Node5735&#45;&gt;Node5736</title>
<path fill="none" stroke="#191970" d="M849.2131,-837.467C857.8031,-836.4003 866.5255,-835.3171 874.9409,-834.272"/>
<polygon fill="#191970" stroke="#191970" points="848.7086,-834.0027 839.2162,-838.7084 849.5714,-840.9493 848.7086,-834.0027"/>
</g>
<!-- Node5736&#45;&gt;Node5734 -->
<g id="edge6" class="edge">
<title>Node5736&#45;&gt;Node5734</title>
<path fill="none" stroke="#191970" d="M864.5063,-822.5488C808.3318,-818.9246 730.7397,-813.9187 682.7716,-810.824"/>
<polygon fill="#191970" stroke="#191970" points="864.5295,-826.0575 874.7341,-823.2087 864.9802,-819.072 864.5295,-826.0575"/>
</g>
<!-- Node5737 -->
<g id="node7" class="node">
<title>Node5737</title>
<g id="a_node7"><a xlink:href="libregexp_8h.html#a9f2d004d841acbf42a7cf0490258b5ab" target="_top" xlink:title="lre_compile">
<polygon fill="none" stroke="#ff0000" points="1028,-418.5 1028,-437.5 1102,-437.5 1102,-418.5 1028,-418.5"/>
<text text-anchor="middle" x="1065" y="-425.5" font-family="Helvetica,sans-Serif" font-size="10.00" fill="#000000">lre_compile</text>
</a>
</g>
</g>
<!-- Node5736&#45;&gt;Node5737 -->
<g id="edge7" class="edge">
<title>Node5736&#45;&gt;Node5737</title>
<path fill="none" stroke="#191970" d="M939.9057,-807.5637C963.468,-736.0704 1044.8415,-489.1653 1061.863,-437.5182"/>
<polygon fill="#191970" stroke="#191970" points="936.5566,-806.544 936.7506,-817.137 943.2049,-808.7351 936.5566,-806.544"/>
</g>
<!-- Node5747&#45;&gt;Node5732 -->
<g id="edge26" class="edge">
<title>Node5747&#45;&gt;Node5732</title>
<path fill="none" stroke="#191970" d="M172.1688,-504.6527C187.5417,-568.692 236.8013,-768.4199 258,-789 266.3861,-797.1414 277.8449,-801.8956 289.1321,-804.6419"/>
<polygon fill="#191970" stroke="#191970" points="175.5078,-503.5661 169.7797,-494.6532 168.6994,-505.1928 175.5078,-503.5661"/>
</g>
<!-- Node5747&#45;&gt;Node5734 -->
<g id="edge36" class="edge">
<title>Node5747&#45;&gt;Node5734</title>
<path fill="none" stroke="#191970" d="M169.3506,-504.547C174.6109,-548.7216 193.715,-656.7711 258,-713 264.5343,-718.7154 502.0134,-775.5112 598.6809,-798.4573"/>
<polygon fill="#191970" stroke="#191970" points="172.8235,-504.1062 168.271,-494.5393 165.8639,-504.8571 172.8235,-504.1062"/>
</g>
<!-- Node5747&#45;&gt;Node5737 -->
<g id="edge37" class="edge">
<title>Node5747&#45;&gt;Node5737</title>
<path fill="none" stroke="#191970" d="M171.4624,-465.3843C180.0645,-428.3056 204.1707,-348.2318 258,-310 345.2945,-247.9999 389.4283,-276 496.5,-276 496.5,-276 496.5,-276 780.5,-276 877.1942,-276 911.695,-273.1401 992,-327 1027.5771,-350.8612 1051.7899,-398.2309 1060.9351,-418.4704"/>
<polygon fill="#191970" stroke="#191970" points="167.9855,-464.9012 169.2747,-475.4173 174.8249,-466.3925 167.9855,-464.9012"/>
</g>
<!-- Node5748 -->
<g id="node9" class="node">
<title>Node5748</title>
<g id="a_node9"><a xlink:href="cutils_8h.html#aeed81d4787ccdbd55baa9b5fd6717e88" target="_top" xlink:title="dbuf_putc">
<polygon fill="none" stroke="#ff0000" points="297,-456.5 297,-475.5 362,-475.5 362,-456.5 297,-456.5"/>
<text text-anchor="middle" x="329.5" y="-463.5" font-family="Helvetica,sans-Serif" font-size="10.00" fill="#000000">dbuf_putc</text>
</a>
</g>
</g>
<!-- Node5747&#45;&gt;Node5748 -->
<g id="edge10" class="edge">
<title>Node5747&#45;&gt;Node5748</title>
<path fill="none" stroke="#191970" d="M207.3091,-480.331C234.8616,-477.0996 271.0786,-472.8519 296.9148,-469.8217"/>
<polygon fill="#191970" stroke="#191970" points="206.7375,-476.874 197.2133,-481.5151 207.553,-483.8263 206.7375,-476.874"/>
</g>
<!-- Node5749 -->
<g id="node10" class="node">
<title>Node5749</title>
<g id="a_node10"><a xlink:href="libbf_8c.html#ae598665f1f567f67350a972a972ef86a" target="_top" xlink:title="output_digits">
<polygon fill="none" stroke="#000000" points="456.5,-608.5 456.5,-627.5 536.5,-627.5 536.5,-608.5 456.5,-608.5"/>
<text text-anchor="middle" x="496.5" y="-615.5" font-family="Helvetica,sans-Serif" font-size="10.00" fill="#000000">output_digits</text>
</a>
</g>
</g>
<!-- Node5747&#45;&gt;Node5749 -->
<g id="edge35" class="edge">
<title>Node5747&#45;&gt;Node5749</title>
<path fill="none" stroke="#191970" d="M196.4235,-498.8163C213.9725,-506.8572 236.9693,-516.7955 258,-524 320.1054,-545.2754 344.4513,-527.6538 401,-561 421.0397,-572.8172 417.2984,-586.6274 437,-599 443.0608,-602.8062 449.9513,-605.9127 456.8409,-608.4273"/>
<polygon fill="#191970" stroke="#191970" points="197.8258,-495.6086 187.2816,-494.5737 194.8791,-501.9581 197.8258,-495.6086"/>
</g>
<!-- Node5760 -->
<g id="node13" class="node">
<title>Node5760</title>
<g id="a_node13"><a xlink:href="quickjs-libc_8c.html#a2abec3aeee82a6dd3dd063725bbeecfe" target="_top" xlink:title="js_printf_internal">
<polygon fill="none" stroke="#ff0000" points="447,-570.5 447,-589.5 546,-589.5 546,-570.5 447,-570.5"/>
<text text-anchor="middle" x="496.5" y="-577.5" font-family="Helvetica,sans-Serif" font-size="10.00" fill="#000000">js_printf_internal</text>
</a>
</g>
</g>
<!-- Node5747&#45;&gt;Node5760 -->
<g id="edge38" class="edge">
<title>Node5747&#45;&gt;Node5760</title>
<path fill="none" stroke="#191970" d="M207.4832,-486.6085C255.393,-489.8098 337.1865,-499.3817 401,-528 419.495,-536.2944 419.4319,-545.8893 437,-556 446.7505,-561.6115 458.0687,-566.5309 468.1999,-570.4309"/>
<polygon fill="#191970" stroke="#191970" points="207.4103,-483.0977 197.2167,-485.9859 206.9865,-490.0849 207.4103,-483.0977"/>
</g>
<!-- Node5767 -->
<g id="node14" class="node">
<title>Node5767</title>
<g id="a_node14"><a xlink:href="quickjs-libc_8c.html#a7aebce2172c6aa4a6645aef600a69e6b" target="_top" xlink:title="js_std_urlGet">
<polygon fill="none" stroke="#000000" points="456.5,-646.5 456.5,-665.5 536.5,-665.5 536.5,-646.5 456.5,-646.5"/>
<text text-anchor="middle" x="496.5" y="-653.5" font-family="Helvetica,sans-Serif" font-size="10.00" fill="#000000">js_std_urlGet</text>
</a>
</g>
</g>
<!-- Node5747&#45;&gt;Node5767 -->
<g id="edge39" class="edge">
<title>Node5747&#45;&gt;Node5767</title>
<path fill="none" stroke="#191970" d="M172.7779,-504.6583C182.9653,-538.3353 208.8023,-606.3858 258,-637 318.8354,-674.856 405.9752,-670.322 456.3481,-663.3368"/>
<polygon fill="#191970" stroke="#191970" points="176.0317,-503.3074 169.9119,-494.6588 169.3027,-505.2361 176.0317,-503.3074"/>
</g>
<!-- Node6141 -->
<g id="node15" class="node">
<title>Node6141</title>
<g id="a_node15"><a xlink:href="quickjs_8c.html#a7a4eedc4cc552a71e165f4d28ad43985" target="_top" xlink:title="resolve_variables">
<polygon fill="none" stroke="#ff0000" points="445,-342.5 445,-361.5 548,-361.5 548,-342.5 445,-342.5"/>
<text text-anchor="middle" x="496.5" y="-349.5" font-family="Helvetica,sans-Serif" font-size="10.00" fill="#000000">resolve_variables</text>
</a>
</g>
</g>
<!-- Node5747&#45;&gt;Node6141 -->
<g id="edge44" class="edge">
<title>Node5747&#45;&gt;Node6141</title>
<path fill="none" stroke="#191970" d="M172.4064,-465.3766C182.1265,-431.2243 207.4056,-361.7595 258,-333 328.4166,-292.9729 429.9393,-324.9487 474.3231,-342.4598"/>
<polygon fill="#191970" stroke="#191970" points="169.0012,-464.562 169.7849,-475.1278 175.7612,-466.3794 169.0012,-464.562"/>
</g>
<!-- Node5771 -->
<g id="node16" class="node">
<title>Node5771</title>
<g id="a_node16"><a xlink:href="quickjs_8c.html#ad0d311d4ce409584384f835f1a3e185a" target="_top" xlink:title="resolve_labels">
<polygon fill="none" stroke="#ff0000" points="453,-380.5 453,-399.5 540,-399.5 540,-380.5 453,-380.5"/>
<text text-anchor="middle" x="496.5" y="-387.5" font-family="Helvetica,sans-Serif" font-size="10.00" fill="#000000">resolve_labels</text>
</a>
</g>
</g>
<!-- Node5747&#45;&gt;Node5771 -->
<g id="edge45" class="edge">
<title>Node5747&#45;&gt;Node5771</title>
<path fill="none" stroke="#191970" d="M196.7553,-471.2845C214.2566,-463.4423 237.0912,-453.8377 258,-447 324.7649,-425.1661 404.5435,-407.7985 452.8248,-398.2101"/>
<polygon fill="#191970" stroke="#191970" points="195.2841,-468.1086 187.6272,-475.4312 198.1794,-474.4818 195.2841,-468.1086"/>
</g>
<!-- Node6408 -->
<g id="node17" class="node">
<title>Node6408</title>
<g id="a_node17"><a xlink:href="cutils_8h.html#a98c263f386a9b5533df32892c18febfc" target="_top" xlink:title="dbuf_putstr">
<polygon fill="none" stroke="#000000" points="293.5,-570.5 293.5,-589.5 365.5,-589.5 365.5,-570.5 293.5,-570.5"/>
<text text-anchor="middle" x="329.5" y="-577.5" font-family="Helvetica,sans-Serif" font-size="10.00" fill="#000000">dbuf_putstr</text>
</a>
</g>
</g>
<!-- Node5747&#45;&gt;Node6408 -->
<g id="edge23" class="edge">
<title>Node5747&#45;&gt;Node6408</title>
<path fill="none" stroke="#191970" d="M184.8823,-501.6266C202.2194,-517.4516 230.2059,-541.0124 258,-556 268.9488,-561.904 281.6178,-566.7311 293.2226,-570.4677"/>
<polygon fill="#191970" stroke="#191970" points="186.9805,-498.7983 177.2743,-494.5509 182.2133,-503.9241 186.9805,-498.7983"/>
</g>
<!-- Node6409 -->
<g id="node18" class="node">
<title>Node6409</title>
<g id="a_node18"><a xlink:href="cutils_8h.html#a31a6b9f8517a73d45e976d8a026e964e" target="_top" xlink:title="dbuf_put_u16">
<polygon fill="none" stroke="#ff0000" points="288,-380.5 288,-399.5 371,-399.5 371,-380.5 288,-380.5"/>
<text text-anchor="middle" x="329.5" y="-387.5" font-family="Helvetica,sans-Serif" font-size="10.00" fill="#000000">dbuf_put_u16</text>
</a>
</g>
</g>
<!-- Node5747&#45;&gt;Node6409 -->
<g id="edge27" class="edge">
<title>Node5747&#45;&gt;Node6409</title>
<path fill="none" stroke="#191970" d="M184.8823,-468.3734C202.2194,-452.5484 230.2059,-428.9876 258,-414 268.9488,-408.096 281.6178,-403.2689 293.2226,-399.5323"/>
<polygon fill="#191970" stroke="#191970" points="182.2133,-466.0759 177.2743,-475.4491 186.9805,-471.2017 182.2133,-466.0759"/>
</g>
<!-- Node6412 -->
<g id="node19" class="node">
<title>Node6412</title>
<g id="a_node19"><a xlink:href="cutils_8h.html#a8ba08f82c43549fcb3c939229498354d" target="_top" xlink:title="dbuf_put_u32">
<polygon fill="none" stroke="#ff0000" points="288,-342.5 288,-361.5 371,-361.5 371,-342.5 288,-342.5"/>
<text text-anchor="middle" x="329.5" y="-349.5" font-family="Helvetica,sans-Serif" font-size="10.00" fill="#000000">dbuf_put_u32</text>
</a>
</g>
</g>
<!-- Node5747&#45;&gt;Node6412 -->
<g id="edge30" class="edge">
<title>Node5747&#45;&gt;Node6412</title>
<path fill="none" stroke="#191970" d="M177.238,-466.3242C191.4972,-440.8472 220.4871,-395.565 258,-371 266.9185,-365.1598 277.5698,-361.1094 287.8928,-358.3021"/>
<polygon fill="#191970" stroke="#191970" points="174.0454,-464.8694 172.3528,-475.3282 180.1982,-468.2077 174.0454,-464.8694"/>
</g>
<!-- Node6418 -->
<g id="node20" class="node">
<title>Node6418</title>
<g id="a_node20"><a xlink:href="cutils_8h.html#a14ed767f95607205186516b36c4b3c45" target="_top" xlink:title="dbuf_put_u64">
<polygon fill="none" stroke="#000000" points="288,-228.5 288,-247.5 371,-247.5 371,-228.5 288,-228.5"/>
<text text-anchor="middle" x="329.5" y="-235.5" font-family="Helvetica,sans-Serif" font-size="10.00" fill="#000000">dbuf_put_u64</text>
</a>
</g>
</g>
<!-- Node5747&#45;&gt;Node6418 -->
<g id="edge34" class="edge">
<title>Node5747&#45;&gt;Node6418</title>
<path fill="none" stroke="#191970" d="M173.0324,-465.7956C187.3581,-417.2512 226.7276,-291.4008 258,-262 266.2042,-254.2868 276.9653,-249.0474 287.6395,-245.4902"/>
<polygon fill="#191970" stroke="#191970" points="169.6688,-464.828 170.2261,-475.4082 176.3883,-466.7898 169.6688,-464.828"/>
</g>
<!-- Node5747&#45;&gt;Node6047 -->
<g id="edge40" class="edge">
<title>Node5747&#45;&gt;Node6047</title>
<path fill="none" stroke="#191970" d="M174.0676,-465.6028C184.8664,-433.3344 206.6987,-366.4868 222,-309 240.8597,-238.1444 208.9143,-202.4683 258,-148 263.6977,-141.6775 271.1115,-137.0185 279.0026,-133.5857"/>
<polygon fill="#191970" stroke="#191970" points="170.7248,-464.5629 170.8538,-475.1569 177.3595,-466.7947 170.7248,-464.5629"/>
</g>
<!-- Node5747&#45;&gt;Node6045 -->
<g id="edge43" class="edge">
<title>Node5747&#45;&gt;Node6045</title>
<path fill="none" stroke="#191970" d="M173.7051,-465.55C183.998,-433.158 205.1393,-366.0776 222,-309 238.7418,-252.325 215.3942,-221.9523 258,-181 264.6469,-174.611 371.5304,-150.7636 439.9344,-136.0141"/>
<polygon fill="#191970" stroke="#191970" points="170.24,-464.8969 170.5416,-475.4875 176.9102,-467.0204 170.24,-464.8969"/>
</g>
<!-- Node6419 -->
<g id="node23" class="node">
<title>Node6419</title>
<g id="a_node23"><a xlink:href="quickjs_8c.html#a62769be0f680a8dc54843456a730d84a" target="_top" xlink:title="bc_put_u64">
<polygon fill="none" stroke="#ff0000" points="293.5,-190.5 293.5,-209.5 365.5,-209.5 365.5,-190.5 293.5,-190.5"/>
<text text-anchor="middle" x="329.5" y="-197.5" font-family="Helvetica,sans-Serif" font-size="10.00" fill="#000000">bc_put_u64</text>
</a>
</g>
</g>
<!-- Node5747&#45;&gt;Node6419 -->
<g id="edge46" class="edge">
<title>Node5747&#45;&gt;Node6419</title>
<path fill="none" stroke="#191970" d="M173.5626,-465.5532C192.2885,-405.7184 248.5193,-227.8551 258,-219 267.5742,-210.0575 280.8698,-205.2248 293.4013,-202.6465"/>
<polygon fill="#191970" stroke="#191970" points="170.1637,-464.6961 170.5223,-475.2848 176.8452,-466.7836 170.1637,-464.6961"/>
</g>
<!-- Node6420 -->
<g id="node24" class="node">
<title>Node6420</title>
<g id="a_node24"><a xlink:href="quickjs_8c.html#a394e92f87f41d27e7031eb3150bc35b1" target="_top" xlink:title="JS_WriteFunctionBytecode">
<polygon fill="none" stroke="#000000" points="258,-684.5 258,-703.5 401,-703.5 401,-684.5 258,-684.5"/>
<text text-anchor="middle" x="329.5" y="-691.5" font-family="Helvetica,sans-Serif" font-size="10.00" fill="#000000">JS_WriteFunctionBytecode</text>
</a>
</g>
</g>
<!-- Node5747&#45;&gt;Node6420 -->
<g id="edge47" class="edge">
<title>Node5747&#45;&gt;Node6420</title>
<path fill="none" stroke="#191970" d="M171.8133,-504.8136C181.0156,-542.4325 206.1042,-624.4985 258,-670 265.1871,-676.3016 274.0893,-680.9608 283.144,-684.402"/>
<polygon fill="#191970" stroke="#191970" points="175.1259,-503.605 169.4553,-494.6554 168.3072,-505.1878 175.1259,-503.605"/>
</g>
<!-- Node5785 -->
<g id="node25" class="node">
<title>Node5785</title>
<g id="a_node25"><a xlink:href="quickjs_8c.html#a0c946fdd3a6def82765db148f99b8fba" target="_top" xlink:title="JS_WriteString">
<polygon fill="none" stroke="#ff0000" points="287,-760.5 287,-779.5 372,-779.5 372,-760.5 287,-760.5"/>
<text text-anchor="middle" x="329.5" y="-767.5" font-family="Helvetica,sans-Serif" font-size="10.00" fill="#000000">JS_WriteString</text>
</a>
</g>
</g>
<!-- Node5747&#45;&gt;Node5785 -->
<g id="edge48" class="edge">
<title>Node5747&#45;&gt;Node5785</title>
<path fill="none" stroke="#191970" d="M168.5975,-504.6427C172.3399,-552.699 188.5884,-677.2738 258,-746 265.9089,-753.8308 276.4483,-759.1073 286.9994,-762.6625"/>
<polygon fill="#191970" stroke="#191970" points="172.087,-504.3683 167.9176,-494.6284 165.1031,-504.8425 172.087,-504.3683"/>
</g>
<!-- Node5788 -->
<g id="node27" class="node">
<title>Node5788</title>
<g id="a_node27"><a xlink:href="quickjs_8c.html#aa1abbd3f9bc2fb523e3ff45f58fe42ab" target="_top" xlink:title="JS_WriteArrayBuffer">
<polygon fill="none" stroke="#ff0000" points="273.5,-608.5 273.5,-627.5 385.5,-627.5 385.5,-608.5 273.5,-608.5"/>
<text text-anchor="middle" x="329.5" y="-615.5" font-family="Helvetica,sans-Serif" font-size="10.00" fill="#000000">JS_WriteArrayBuffer</text>
</a>
</g>
</g>
<!-- Node5747&#45;&gt;Node5788 -->
<g id="edge50" class="edge">
<title>Node5747&#45;&gt;Node5788</title>
<path fill="none" stroke="#191970" d="M177.238,-503.6758C191.4972,-529.1528 220.4871,-574.435 258,-599 263.9098,-602.87 270.5806,-605.9541 277.4125,-608.4114"/>
<polygon fill="#191970" stroke="#191970" points="180.1982,-501.7923 172.3528,-494.6718 174.0454,-505.1306 180.1982,-501.7923"/>
</g>
<!-- Node5748&#45;&gt;Node5734 -->
<g id="edge17" class="edge">
<title>Node5748&#45;&gt;Node5734</title>
<path fill="none" stroke="#191970" d="M371.9292,-475.4471C381.856,-478.6207 392.1172,-482.7367 401,-488 420.1983,-499.3755 417.8623,-511.523 437,-523 484.6142,-551.5545 516.4465,-522.0387 556,-561 574.048,-578.7778 624.0589,-754.5538 636.2796,-798.2201"/>
<polygon fill="#191970" stroke="#191970" points="372.7585,-472.0428 362.1773,-472.5799 370.784,-478.7586 372.7585,-472.0428"/>
</g>
<!-- Node5748&#45;&gt;Node5737 -->
<g id="edge18" class="edge">
<title>Node5748&#45;&gt;Node5737</title>
<path fill="none" stroke="#191970" d="M372.4765,-457.3544C432.0573,-446.141 543.2441,-428 639,-428 639,-428 639,-428 780.5,-428 869.1593,-428 973.3599,-428 1027.719,-428"/>
<polygon fill="#191970" stroke="#191970" points="371.4835,-453.9807 362.3172,-459.2938 372.7962,-460.8565 371.4835,-453.9807"/>
</g>
<!-- Node5748&#45;&gt;Node5749 -->
<g id="edge11" class="edge">
<title>Node5748&#45;&gt;Node5749</title>
<path fill="none" stroke="#191970" d="M351.9235,-481.7917C367.1418,-493.3232 386.97,-510.0286 401,-528 422.7718,-555.888 410.0612,-576.0641 437,-599 442.6144,-603.7802 449.4443,-607.3615 456.4478,-610.0435"/>
<polygon fill="#191970" stroke="#191970" points="353.6989,-478.752 343.5746,-475.6295 349.542,-484.384 353.6989,-478.752"/>
</g>
<!-- Node5750 -->
<g id="node11" class="node">
<title>Node5750</title>
<g id="a_node11"><a xlink:href="libbf_8c.html#ad79aefc435021a0743c89cb4aec7fa56" target="_top" xlink:title="bf_ftoa_internal">
<polygon fill="none" stroke="#ff0000" points="592,-608.5 592,-627.5 686,-627.5 686,-608.5 592,-608.5"/>
<text text-anchor="middle" x="639" y="-615.5" font-family="Helvetica,sans-Serif" font-size="10.00" fill="#000000">bf_ftoa_internal</text>
</a>
</g>
</g>
<!-- Node5748&#45;&gt;Node5750 -->
<g id="edge13" class="edge">
<title>Node5748&#45;&gt;Node5750</title>
<path fill="none" stroke="#191970" d="M372.4057,-458.8134C420.732,-453.025 499.8392,-450.7002 556,-485 604.0823,-514.3659 628.6739,-583.2002 636.3263,-608.475"/>
<polygon fill="#191970" stroke="#191970" points="371.7508,-455.369 362.2862,-460.1304 372.6543,-462.3105 371.7508,-455.369"/>
</g>
<!-- Node5753 -->
<g id="node12" class="node">
<title>Node5753</title>
<g id="a_node12"><a xlink:href="libregexp_8c.html#a9cfa82248f8e07e4f79304fb3c51b6ab" target="_top" xlink:title="re_emit_op">
<polygon fill="none" stroke="#000000" points="461,-494.5 461,-513.5 532,-513.5 532,-494.5 461,-494.5"/>
<text text-anchor="middle" x="496.5" y="-501.5" font-family="Helvetica,sans-Serif" font-size="10.00" fill="#000000">re_emit_op</text>
</a>
</g>
</g>
<!-- Node5748&#45;&gt;Node5753 -->
<g id="edge14" class="edge">
<title>Node5748&#45;&gt;Node5753</title>
<path fill="none" stroke="#191970" d="M372.1939,-475.7148C399.6307,-481.9579 434.8616,-489.9745 460.8064,-495.8781"/>
<polygon fill="#191970" stroke="#191970" points="372.6231,-472.223 362.0957,-473.417 371.0699,-479.0486 372.6231,-472.223"/>
</g>
<!-- Node5748&#45;&gt;Node5760 -->
<g id="edge19" class="edge">
<title>Node5748&#45;&gt;Node5760</title>
<path fill="none" stroke="#191970" d="M372.0638,-474.5532C382.3276,-478.0888 392.7113,-483.0518 401,-490 426.6064,-511.4652 412.044,-533.7819 437,-556 443.9882,-562.2215 452.7965,-566.9441 461.4781,-570.4817"/>
<polygon fill="#191970" stroke="#191970" points="372.9184,-471.1547 362.3322,-471.5827 370.8747,-477.8498 372.9184,-471.1547"/>
</g>
<!-- Node5748&#45;&gt;Node5767 -->
<g id="edge20" class="edge">
<title>Node5748&#45;&gt;Node5767</title>
<path fill="none" stroke="#191970" d="M344.2587,-483.3427C359.5739,-501.8298 383.667,-532.3304 401,-561 420.3372,-592.9846 408.8702,-612.39 437,-637 442.5497,-641.8552 449.3492,-645.4717 456.343,-648.1649"/>
<polygon fill="#191970" stroke="#191970" points="346.8089,-480.9366 337.7044,-475.5182 341.4428,-485.4316 346.8089,-480.9366"/>
</g>
<!-- Node5748&#45;&gt;Node6141 -->
<g id="edge21" class="edge">
<title>Node5748&#45;&gt;Node6141</title>
<path fill="none" stroke="#191970" d="M350.9515,-450.1487C365.4962,-439.1034 384.9245,-423.7589 401,-409 418.1372,-393.2663 417.2984,-383.3726 437,-371 443.0608,-367.1938 449.9513,-364.0873 456.8409,-361.5727"/>
<polygon fill="#191970" stroke="#191970" points="348.4903,-447.6202 342.6,-456.4268 352.6965,-453.2156 348.4903,-447.6202"/>
</g>
<!-- Node5748&#45;&gt;Node5771 -->
<g id="edge22" class="edge">
<title>Node5748&#45;&gt;Node5771</title>
<path fill="none" stroke="#191970" d="M371.7973,-454.4272C381.6518,-451.0219 391.9138,-446.875 401,-442 418.8613,-432.4168 419.4319,-424.1107 437,-414 446.7505,-408.3885 458.0687,-403.4691 468.1999,-399.5691"/>
<polygon fill="#191970" stroke="#191970" points="370.5548,-451.151 362.1371,-457.5848 372.7297,-457.8046 370.5548,-451.151"/>
</g>
<!-- Node5749&#45;&gt;Node5750 -->
<g id="edge12" class="edge">
<title>Node5749&#45;&gt;Node5750</title>
<path fill="none" stroke="#191970" d="M546.9604,-618C561.5909,-618 577.5032,-618 591.9182,-618"/>
<polygon fill="#191970" stroke="#191970" points="546.5734,-614.5001 536.5734,-618 546.5734,-621.5001 546.5734,-614.5001"/>
</g>
<!-- Node5753&#45;&gt;Node5734 -->
<g id="edge15" class="edge">
<title>Node5753&#45;&gt;Node5734</title>
<path fill="none" stroke="#191970" d="M541.4827,-516.8588C546.8839,-519.8473 551.9202,-523.5119 556,-528 565.6772,-538.6455 623.4529,-750.5675 636.4185,-798.4445"/>
<polygon fill="#191970" stroke="#191970" points="542.6887,-513.5574 532.1527,-512.4419 539.6934,-519.8842 542.6887,-513.5574"/>
</g>
<!-- Node5753&#45;&gt;Node5737 -->
<g id="edge16" class="edge">
<title>Node5753&#45;&gt;Node5737</title>
<path fill="none" stroke="#191970" d="M542.1811,-499.2884C629.7096,-490.0385 827.0201,-468.1133 992,-442 1003.7262,-440.1439 1016.4522,-437.8138 1027.9449,-435.5901"/>
<polygon fill="#191970" stroke="#191970" points="541.6396,-495.826 532.0606,-500.3531 542.372,-502.7876 541.6396,-495.826"/>
</g>
<!-- Node6408&#45;&gt;Node5750 -->
<g id="edge24" class="edge">
<title>Node6408&#45;&gt;Node5750</title>
<path fill="none" stroke="#191970" d="M375.6628,-586.001C384.7756,-588.8309 393.7499,-592.9664 401,-599 429.7286,-622.9083 405.4172,-655.0134 437,-675 481.6917,-703.2823 505.4872,-690.6746 556,-675 586.0513,-665.6748 614.8769,-641.2832 629.3435,-627.6226"/>
<polygon fill="#191970" stroke="#191970" points="376.356,-582.5645 365.7953,-583.4147 374.5812,-589.3358 376.356,-582.5645"/>
</g>
<!-- Node6408&#45;&gt;Node5767 -->
<g id="edge25" class="edge">
<title>Node6408&#45;&gt;Node5767</title>
<path fill="none" stroke="#191970" d="M375.4654,-588.1883C384.3015,-590.8588 393.2178,-594.3765 401,-599 421.0009,-610.8827 417.2984,-624.6274 437,-637 443.0608,-640.8062 449.9513,-643.9127 456.8409,-646.4273"/>
<polygon fill="#191970" stroke="#191970" points="376.1547,-584.7491 365.5879,-585.5194 374.3287,-591.5067 376.1547,-584.7491"/>
</g>
<!-- Node6409&#45;&gt;Node6141 -->
<g id="edge28" class="edge">
<title>Node6409&#45;&gt;Node6141</title>
<path fill="none" stroke="#191970" d="M381.0759,-378.2642C404.7344,-372.8808 432.4182,-366.5815 454.7426,-361.5017"/>
<polygon fill="#191970" stroke="#191970" points="380.1845,-374.8774 371.2104,-380.509 381.7377,-381.703 380.1845,-374.8774"/>
</g>
<!-- Node6409&#45;&gt;Node5771 -->
<g id="edge29" class="edge">
<title>Node6409&#45;&gt;Node5771</title>
<path fill="none" stroke="#191970" d="M381.4651,-390C404.4219,-390 431.1066,-390 452.9923,-390"/>
<polygon fill="#191970" stroke="#191970" points="381.2104,-386.5001 371.2104,-390 381.2103,-393.5001 381.2104,-386.5001"/>
</g>
<!-- Node6412&#45;&gt;Node5737 -->
<g id="edge31" class="edge">
<title>Node6412&#45;&gt;Node5737</title>
<path fill="none" stroke="#191970" d="M381.541,-341.6697C442.8506,-330.417 547.9075,-314 639,-314 639,-314 639,-314 780.5,-314 892.5073,-314 1012.6714,-391.0778 1051.8478,-418.4765"/>
<polygon fill="#191970" stroke="#191970" points="380.5414,-338.2955 371.3509,-343.5666 381.8225,-345.1773 380.5414,-338.2955"/>
</g>
<!-- Node6412&#45;&gt;Node6141 -->
<g id="edge32" class="edge">
<title>Node6412&#45;&gt;Node6141</title>
<path fill="none" stroke="#191970" d="M381.4723,-352C401.657,-352 424.7227,-352 444.8742,-352"/>
<polygon fill="#191970" stroke="#191970" points="381.2104,-348.5001 371.2104,-352 381.2103,-355.5001 381.2104,-348.5001"/>
</g>
<!-- Node6412&#45;&gt;Node5771 -->
<g id="edge33" class="edge">
<title>Node6412&#45;&gt;Node5771</title>
<path fill="none" stroke="#191970" d="M381.0759,-363.7358C404.7344,-369.1192 432.4182,-375.4185 454.7426,-380.4983"/>
<polygon fill="#191970" stroke="#191970" points="381.7377,-360.297 371.2104,-361.491 380.1845,-367.1226 381.7377,-360.297"/>
</g>
<!-- Node6047&#45;&gt;Node6045 -->
<g id="edge41" class="edge">
<title>Node6047&#45;&gt;Node6045</title>
<path fill="none" stroke="#191970" d="M392.4273,-124C408.0399,-124 424.6758,-124 439.9614,-124"/>
<polygon fill="#191970" stroke="#191970" points="392.3399,-120.5001 382.3398,-124 392.3398,-127.5001 392.3399,-120.5001"/>
</g>
<!-- Node6045&#45;&gt;Node6045 -->
<g id="edge42" class="edge">
<title>Node6045&#45;&gt;Node6045</title>
<path fill="none" stroke="#191970" d="M471.2683,-149.4579C474.3999,-154.179 482.8105,-157.5 496.5,-157.5 518.9648,-157.5 527.2137,-148.5566 521.2464,-139.159"/>
<polygon fill="#191970" stroke="#191970" points="474.7789,-149.3127 471.7536,-139.159 467.7867,-148.9832 474.7789,-149.3127"/>
</g>
<!-- Node5785&#45;&gt;Node5786 -->
<g id="edge49" class="edge">
<title>Node5785&#45;&gt;Node5786</title>
<path fill="none" stroke="#191970" d="M381.4646,-781.8243C405.0086,-787.1816 432.4737,-793.4311 454.6619,-798.4799"/>
<polygon fill="#191970" stroke="#191970" points="382.1685,-778.3951 371.6412,-779.589 380.6153,-785.2206 382.1685,-778.3951"/>
</g>
<!-- Node6421&#45;&gt;Node5734 -->
<g id="edge52" class="edge">
<title>Node6421&#45;&gt;Node5734</title>
<path fill="none" stroke="#191970" d="M219.0398,-880.3007C266.4902,-876.5166 338.7427,-869.7979 401,-860 470.5765,-849.0502 487.2251,-842.1921 556,-827 569.5684,-824.0028 584.3631,-820.645 597.6542,-817.5954"/>
<polygon fill="#191970" stroke="#191970" points="218.7052,-876.816 209.009,-881.0863 219.2518,-883.7947 218.7052,-876.816"/>
</g>
</g>
</svg>
        <g id="navigator" transform="translate(0 0)" fill="#404254">
                <rect fill="#f2f5e9" fill-opacity="0.5" stroke="#606060" stroke-width=".5" x="0" y="0" width="60" height="60"/>
                <use id="zoomplus" xlink:href="#zoomPlus" x="17" y="9" onmousedown="handleZoom(evt,'in')"/>
                <use id="zoomminus" xlink:href="#zoomMin" x="42" y="9" onmousedown="handleZoom(evt,'out')"/>
                <use id="reset" xlink:href="#resetDef" x="30" y="36" onmousedown="handleReset()"/>
                <g id="arrowUp" xlink:href="#dirArrow" transform="translate(30 24)" onmousedown="handlePan(0,-1)">
                  <use xlink:href="#rim" fill="#404040">
                        <set attributeName="fill" to="#808080" begin="arrowUp.mouseover" end="arrowUp.mouseout"/>
                  </use>
                  <path fill="none" stroke="white" stroke-width="1.5" d="M0,-3.0v7 M-2.5,-0.5L0,-3.0L2.5,-0.5"/>
                </g>
                <g id="arrowRight" xlink:href="#dirArrow" transform="rotate(90) translate(36 -43)" onmousedown="handlePan(1,0)">
                  <use xlink:href="#rim" fill="#404040">
                        <set attributeName="fill" to="#808080" begin="arrowRight.mouseover" end="arrowRight.mouseout"/>
                  </use>
                  <path fill="none" stroke="white" stroke-width="1.5" d="M0,-3.0v7 M-2.5,-0.5L0,-3.0L2.5,-0.5"/>
                </g>
                <g id="arrowDown" xlink:href="#dirArrow" transform="rotate(180) translate(-30 -48)" onmousedown="handlePan(0,1)">
                  <use xlink:href="#rim" fill="#404040">
                        <set attributeName="fill" to="#808080" begin="arrowDown.mouseover" end="arrowDown.mouseout"/>
                  </use>
                  <path fill="none" stroke="white" stroke-width="1.5" d="M0,-3.0v7 M-2.5,-0.5L0,-3.0L2.5,-0.5"/>
                </g>
                <g id="arrowLeft" xlink:href="#dirArrow" transform="rotate(270) translate(-36 17)" onmousedown="handlePan(-1,0)">
                  <use xlink:href="#rim" fill="#404040">
                        <set attributeName="fill" to="#808080" begin="arrowLeft.mouseover" end="arrowLeft.mouseout"/>
                  </use>
                  <path fill="none" stroke="white" stroke-width="1.5" d="M0,-3.0v7 M-2.5,-0.5L0,-3.0L2.5,-0.5"/>
                </g>
        </g>
        <svg viewBox="0 0 15 15" width="100%" height="30px" preserveAspectRatio="xMaxYMin meet">
         <g id="arrow_out" transform="scale(0.3 0.3)">
          <a xlink:href="cutils_8h_ac0b9ce26415947e972d6781d9f2fb11b_icgraph_org.svg" target="_base">
           <rect id="button" ry="5" rx="5" y="6" x="6" height="38" width="38"
                fill="#f2f5e9" fill-opacity="0.5" stroke="#606060" stroke-width="1.0"/>
           <path id="arrow"
             d="M 11.500037,31.436501 C 11.940474,20.09759 22.043105,11.32322 32.158766,21.979434 L 37.068811,17.246167 C 37.068811,17.246167 37.088388,32 37.088388,32 L 22.160133,31.978069 C 22.160133,31.978069 26.997745,27.140456 26.997745,27.140456 C 18.528582,18.264221 13.291696,25.230495 11.500037,31.436501 z"
             style="fill:#404040;"/>
          </a>
         </g>
        </svg>
</svg>
