<?xml version="1.0" encoding="UTF-8" standalone="no"?>
<!DOCTYPE svg PUBLIC "-//W3C//DTD SVG 1.1//EN"
 "http://www.w3.org/Graphics/SVG/1.1/DTD/svg11.dtd">
<!-- Generated by graphviz version 2.40.1 (20161225.0304)
 -->
<!-- Title: dbuf_putstr Pages: 1 -->
<svg width="314pt" height="85pt"
 viewBox="0.00 0.00 314.00 85.00" xmlns="http://www.w3.org/2000/svg" xmlns:xlink="http://www.w3.org/1999/xlink">
<g id="graph0" class="graph" transform="scale(1 1) rotate(0) translate(4 81)">
<title>dbuf_putstr</title>
<!-- Node4011 -->
<g id="node1" class="node">
<title>Node4011</title>
<polygon fill="#bfbfbf" stroke="#000000" points="0,-19.5 0,-38.5 72,-38.5 72,-19.5 0,-19.5"/>
<text text-anchor="middle" x="36" y="-26.5" font-family="Helvetica,sans-Serif" font-size="10.00" fill="#000000">dbuf_putstr</text>
</g>
<!-- Node4012 -->
<g id="node2" class="node">
<title>Node4012</title>
<g id="a_node2"><a xlink:href="libbf_8c.html#ad79aefc435021a0743c89cb4aec7fa56" target="_top" xlink:title="bf_ftoa_internal">
<polygon fill="none" stroke="#000000" points="108,-38.5 108,-57.5 202,-57.5 202,-38.5 108,-38.5"/>
<text text-anchor="middle" x="155" y="-45.5" font-family="Helvetica,sans-Serif" font-size="10.00" fill="#000000">bf_ftoa_internal</text>
</a>
</g>
</g>
<!-- Node4011&#45;&gt;Node4012 -->
<g id="edge1" class="edge">
<title>Node4011&#45;&gt;Node4012</title>
<path fill="none" stroke="#191970" d="M82.0398,-36.3509C90.4419,-37.6924 99.2218,-39.0942 107.6609,-40.4417"/>
<polygon fill="#191970" stroke="#191970" points="82.4536,-32.8727 72.0269,-34.7522 81.3499,-39.7852 82.4536,-32.8727"/>
</g>
<!-- Node4015 -->
<g id="node5" class="node">
<title>Node4015</title>
<g id="a_node5"><a xlink:href="quickjs-libc_8c.html#a7aebce2172c6aa4a6645aef600a69e6b" target="_top" xlink:title="js_std_urlGet">
<polygon fill="none" stroke="#000000" points="115,-.5 115,-19.5 195,-19.5 195,-.5 115,-.5"/>
<text text-anchor="middle" x="155" y="-7.5" font-family="Helvetica,sans-Serif" font-size="10.00" fill="#000000">js_std_urlGet</text>
</a>
</g>
</g>
<!-- Node4011&#45;&gt;Node4015 -->
<g id="edge4" class="edge">
<title>Node4011&#45;&gt;Node4015</title>
<path fill="none" stroke="#191970" d="M82.158,-21.6302C92.9754,-19.9031 104.413,-18.0769 114.9388,-16.3963"/>
<polygon fill="#191970" stroke="#191970" points="81.3499,-18.2148 72.0269,-23.2478 82.4536,-25.1273 81.3499,-18.2148"/>
</g>
<!-- Node4013 -->
<g id="node3" class="node">
<title>Node4013</title>
<g id="a_node3"><a xlink:href="libbf_8h.html#a3ab9f99dbc84f8cce63cf3867b8986e5" target="_top" xlink:title="bf_ftoa">
<polygon fill="none" stroke="#000000" points="246.5,-57.5 246.5,-76.5 297.5,-76.5 297.5,-57.5 246.5,-57.5"/>
<text text-anchor="middle" x="272" y="-64.5" font-family="Helvetica,sans-Serif" font-size="10.00" fill="#000000">bf_ftoa</text>
</a>
</g>
</g>
<!-- Node4012&#45;&gt;Node4013 -->
<g id="edge2" class="edge">
<title>Node4012&#45;&gt;Node4013</title>
<path fill="none" stroke="#191970" d="M212.2616,-57.2989C224.2509,-59.2459 236.3096,-61.2041 246.4221,-62.8463"/>
<polygon fill="#191970" stroke="#191970" points="212.6829,-53.8215 202.2511,-55.6733 211.5608,-60.731 212.6829,-53.8215"/>
</g>
<!-- Node4014 -->
<g id="node4" class="node">
<title>Node4014</title>
<g id="a_node4"><a xlink:href="libbf_8h.html#a076d088aa44d1cfa2d6f85f718fb88bc" target="_top" xlink:title="bfdec_ftoa">
<polygon fill="none" stroke="#000000" points="238,-19.5 238,-38.5 306,-38.5 306,-19.5 238,-19.5"/>
<text text-anchor="middle" x="272" y="-26.5" font-family="Helvetica,sans-Serif" font-size="10.00" fill="#000000">bfdec_ftoa</text>
</a>
</g>
</g>
<!-- Node4012&#45;&gt;Node4014 -->
<g id="edge3" class="edge">
<title>Node4012&#45;&gt;Node4014</title>
<path fill="none" stroke="#191970" d="M212.1346,-38.7217C220.9419,-37.2915 229.7904,-35.8546 237.8811,-34.5407"/>
<polygon fill="#191970" stroke="#191970" points="211.5608,-35.269 202.2511,-40.3267 212.6829,-42.1785 211.5608,-35.269"/>
</g>
</g>
</svg>
