<?xml version="1.0" encoding="UTF-8" standalone="no"?>
<!DOCTYPE svg PUBLIC "-//W3C//DTD SVG 1.1//EN"
 "http://www.w3.org/Graphics/SVG/1.1/DTD/svg11.dtd">
<!-- Generated by graphviz version 2.40.1 (20161225.0304)
 -->
<!-- Title: get_u64 Pages: 1 -->
<!--zoomable 85 -->
<svg id="main" version="1.1" xmlns="http://www.w3.org/2000/svg" xmlns:xlink="http://www.w3.org/1999/xlink" xml:space="preserve" onload="init(evt)">
<style type="text/css"><![CDATA[
.edge:hover path { stroke: red; }
.edge:hover polygon { stroke: red; fill: red; }
]]></style>
<script type="text/javascript"><![CDATA[
var edges = document.getElementsByTagName('g');
if (edges && edges.length) {
  for (var i=0;i<edges.length;i++) {
    if (edges[i].id.substr(0,4)=='edge') {
      edges[i].setAttribute('class','edge');
    }
  }
}
]]></script>
        <defs>
                <circle id="rim" cx="0" cy="0" r="7"/>
                <circle id="rim2" cx="0" cy="0" r="3.5"/>
                <g id="zoomPlus">
                        <use xlink:href="#rim" fill="#404040">
                                <set attributeName="fill" to="#808080" begin="zoomplus.mouseover" end="zoomplus.mouseout"/>
                        </use>
                        <path d="M-4,0h8M0,-4v8" fill="none" stroke="white" stroke-width="1.5" pointer-events="none"/>
                </g>
                <g id="zoomMin">
                        <use xlink:href="#rim" fill="#404040">
                                <set attributeName="fill" to="#808080" begin="zoomminus.mouseover" end="zoomminus.mouseout"/>
                        </use>
                        <path d="M-4,0h8" fill="none" stroke="white" stroke-width="1.5" pointer-events="none"/>
                </g>
                <g id="dirArrow">
                        <path fill="none" stroke="white" stroke-width="1.5" d="M0,-3.0v7 M-2.5,-0.5L0,-3.0L2.5,-0.5"/>
                </g>
               <g id="resetDef">
                       <use xlink:href="#rim2" fill="#404040">
                               <set attributeName="fill" to="#808080" begin="reset.mouseover" end="reset.mouseout"/>
                       </use>
               </g>
        </defs>

<script type="text/javascript">
var viewWidth = 543;
var viewHeight = 85;
var sectionId = 'dynsection-16';
</script>
<script xlink:href="svgpan.js"/>
<svg id="graph" class="graph">
<g id="viewport">
<title>get_u64</title>
<!-- Node2293 -->
<g id="node1" class="node">
<title>Node2293</title>
<polygon fill="#bfbfbf" stroke="#000000" points="0,-19.5 0,-38.5 56,-38.5 56,-19.5 0,-19.5"/>
<text text-anchor="middle" x="28" y="-26.5" font-family="Helvetica,sans-Serif" font-size="10.00" fill="#000000">get_u64</text>
</g>
<!-- Node2294 -->
<g id="node2" class="node">
<title>Node2294</title>
<g id="a_node2"><a xlink:href="quickjs_8c.html#acde90ec09be2051ca056c973ac9c2a38" target="_top" xlink:title="bc_get_u64">
<polygon fill="none" stroke="#000000" points="117.5,-38.5 117.5,-57.5 189.5,-57.5 189.5,-38.5 117.5,-38.5"/>
<text text-anchor="middle" x="153.5" y="-45.5" font-family="Helvetica,sans-Serif" font-size="10.00" fill="#000000">bc_get_u64</text>
</a>
</g>
</g>
<!-- Node2293&#45;&gt;Node2294 -->
<g id="edge1" class="edge">
<title>Node2293&#45;&gt;Node2294</title>
<path fill="none" stroke="#191970" d="M66.3863,-34.8115C82.589,-37.2645 101.3573,-40.1059 117.3147,-42.5217"/>
<polygon fill="#191970" stroke="#191970" points="66.5759,-31.3004 56.1646,-33.264 65.528,-38.2215 66.5759,-31.3004"/>
</g>
<!-- Node2307 -->
<g id="node5" class="node">
<title>Node2307</title>
<g id="a_node5"><a xlink:href="quickjs_8c.html#a351e921aea7f22e239884fdc941a8e52" target="_top" xlink:title="js_dataview_getValue">
<polygon fill="none" stroke="#000000" points="92,-.5 92,-19.5 215,-19.5 215,-.5 92,-.5"/>
<text text-anchor="middle" x="153.5" y="-7.5" font-family="Helvetica,sans-Serif" font-size="10.00" fill="#000000">js_dataview_getValue</text>
</a>
</g>
</g>
<!-- Node2293&#45;&gt;Node2307 -->
<g id="edge5" class="edge">
<title>Node2293&#45;&gt;Node2307</title>
<path fill="none" stroke="#191970" d="M66.0829,-23.2345C74.2328,-22.0006 83.0429,-20.6668 91.825,-19.3373"/>
<polygon fill="#191970" stroke="#191970" points="65.528,-19.7785 56.1646,-24.736 66.5759,-26.6996 65.528,-19.7785"/>
</g>
<!-- Node2295 -->
<g id="node3" class="node">
<title>Node2295</title>
<g id="a_node3"><a xlink:href="quickjs_8c.html#a808ad95bb98b44a5a4fd6ac9af1b6d53" target="_top" xlink:title="JS_ReadSharedArrayBuffer">
<polygon fill="none" stroke="#000000" points="251,-57.5 251,-76.5 395,-76.5 395,-57.5 251,-57.5"/>
<text text-anchor="middle" x="323" y="-64.5" font-family="Helvetica,sans-Serif" font-size="10.00" fill="#000000">JS_ReadSharedArrayBuffer</text>
</a>
</g>
</g>
<!-- Node2294&#45;&gt;Node2295 -->
<g id="edge2" class="edge">
<title>Node2294&#45;&gt;Node2295</title>
<path fill="none" stroke="#191970" d="M199.8419,-53.1947C215.5659,-54.9572 233.527,-56.9706 250.7797,-58.9045"/>
<polygon fill="#191970" stroke="#191970" points="200.1897,-49.7118 189.862,-52.076 199.4098,-56.6682 200.1897,-49.7118"/>
</g>
<!-- Node2296 -->
<g id="node4" class="node">
<title>Node2296</title>
<g id="a_node4"><a xlink:href="quickjs_8c.html#a4b8ef2bb3b35e4a5f6ed8bd837a50e7c" target="_top" xlink:title="JS_ReadObjectRec">
<polygon fill="none" stroke="#ff0000" points="431,-38.5 431,-57.5 535,-57.5 535,-38.5 431,-38.5"/>
<text text-anchor="middle" x="483" y="-45.5" font-family="Helvetica,sans-Serif" font-size="10.00" fill="#000000">JS_ReadObjectRec</text>
</a>
</g>
</g>
<!-- Node2294&#45;&gt;Node2296 -->
<g id="edge4" class="edge">
<title>Node2294&#45;&gt;Node2296</title>
<path fill="none" stroke="#191970" d="M199.7841,-48C260.6037,-48 367.1405,-48 430.778,-48"/>
<polygon fill="#191970" stroke="#191970" points="199.7048,-44.5001 189.7048,-48 199.7048,-51.5001 199.7048,-44.5001"/>
</g>
<!-- Node2295&#45;&gt;Node2296 -->
<g id="edge3" class="edge">
<title>Node2295&#45;&gt;Node2296</title>
<path fill="none" stroke="#191970" d="M405.0091,-57.2614C413.8443,-56.2122 422.6468,-55.1669 430.9852,-54.1768"/>
<polygon fill="#191970" stroke="#191970" points="404.5604,-53.79 395.043,-58.4449 405.3859,-60.7412 404.5604,-53.79"/>
</g>
</g>
</svg>
        <g id="navigator" transform="translate(0 0)" fill="#404254">
                <rect fill="#f2f5e9" fill-opacity="0.5" stroke="#606060" stroke-width=".5" x="0" y="0" width="60" height="60"/>
                <use id="zoomplus" xlink:href="#zoomPlus" x="17" y="9" onmousedown="handleZoom(evt,'in')"/>
                <use id="zoomminus" xlink:href="#zoomMin" x="42" y="9" onmousedown="handleZoom(evt,'out')"/>
                <use id="reset" xlink:href="#resetDef" x="30" y="36" onmousedown="handleReset()"/>
                <g id="arrowUp" xlink:href="#dirArrow" transform="translate(30 24)" onmousedown="handlePan(0,-1)">
                  <use xlink:href="#rim" fill="#404040">
                        <set attributeName="fill" to="#808080" begin="arrowUp.mouseover" end="arrowUp.mouseout"/>
                  </use>
                  <path fill="none" stroke="white" stroke-width="1.5" d="M0,-3.0v7 M-2.5,-0.5L0,-3.0L2.5,-0.5"/>
                </g>
                <g id="arrowRight" xlink:href="#dirArrow" transform="rotate(90) translate(36 -43)" onmousedown="handlePan(1,0)">
                  <use xlink:href="#rim" fill="#404040">
                        <set attributeName="fill" to="#808080" begin="arrowRight.mouseover" end="arrowRight.mouseout"/>
                  </use>
                  <path fill="none" stroke="white" stroke-width="1.5" d="M0,-3.0v7 M-2.5,-0.5L0,-3.0L2.5,-0.5"/>
                </g>
                <g id="arrowDown" xlink:href="#dirArrow" transform="rotate(180) translate(-30 -48)" onmousedown="handlePan(0,1)">
                  <use xlink:href="#rim" fill="#404040">
                        <set attributeName="fill" to="#808080" begin="arrowDown.mouseover" end="arrowDown.mouseout"/>
                  </use>
                  <path fill="none" stroke="white" stroke-width="1.5" d="M0,-3.0v7 M-2.5,-0.5L0,-3.0L2.5,-0.5"/>
                </g>
                <g id="arrowLeft" xlink:href="#dirArrow" transform="rotate(270) translate(-36 17)" onmousedown="handlePan(-1,0)">
                  <use xlink:href="#rim" fill="#404040">
                        <set attributeName="fill" to="#808080" begin="arrowLeft.mouseover" end="arrowLeft.mouseout"/>
                  </use>
                  <path fill="none" stroke="white" stroke-width="1.5" d="M0,-3.0v7 M-2.5,-0.5L0,-3.0L2.5,-0.5"/>
                </g>
        </g>
        <svg viewBox="0 0 15 15" width="100%" height="30px" preserveAspectRatio="xMaxYMin meet">
         <g id="arrow_out" transform="scale(0.3 0.3)">
          <a xlink:href="cutils_8h_abd459f86984783206f7317582511f8db_icgraph_org.svg" target="_base">
           <rect id="button" ry="5" rx="5" y="6" x="6" height="38" width="38"
                fill="#f2f5e9" fill-opacity="0.5" stroke="#606060" stroke-width="1.0"/>
           <path id="arrow"
             d="M 11.500037,31.436501 C 11.940474,20.09759 22.043105,11.32322 32.158766,21.979434 L 37.068811,17.246167 C 37.068811,17.246167 37.088388,32 37.088388,32 L 22.160133,31.978069 C 22.160133,31.978069 26.997745,27.140456 26.997745,27.140456 C 18.528582,18.264221 13.291696,25.230495 11.500037,31.436501 z"
             style="fill:#404040;"/>
          </a>
         </g>
        </svg>
</svg>
