<?xml version="1.0" encoding="UTF-8" standalone="no"?>
<!DOCTYPE svg PUBLIC "-//W3C//DTD SVG 1.1//EN"
 "http://www.w3.org/Graphics/SVG/1.1/DTD/svg11.dtd">
<!-- Generated by graphviz version 2.40.1 (20161225.0304)
 -->
<!-- Title: bf_dbuf_realloc Pages: 1 -->
<svg width="334pt" height="66pt"
 viewBox="0.00 0.00 334.00 66.00" xmlns="http://www.w3.org/2000/svg" xmlns:xlink="http://www.w3.org/1999/xlink">
<g id="graph0" class="graph" transform="scale(1 1) rotate(0) translate(4 62)">
<title>bf_dbuf_realloc</title>
<!-- Node6604 -->
<g id="node1" class="node">
<title>Node6604</title>
<polygon fill="#bfbfbf" stroke="#000000" points="0,-19.5 0,-38.5 92,-38.5 92,-19.5 0,-19.5"/>
<text text-anchor="middle" x="46" y="-26.5" font-family="Helvetica,sans-Serif" font-size="10.00" fill="#000000">bf_dbuf_realloc</text>
</g>
<!-- Node6605 -->
<g id="node2" class="node">
<title>Node6605</title>
<g id="a_node2"><a xlink:href="libbf_8c.html#ad79aefc435021a0743c89cb4aec7fa56" target="_top" xlink:title="bf_ftoa_internal">
<polygon fill="none" stroke="#000000" points="128,-19.5 128,-38.5 222,-38.5 222,-19.5 128,-19.5"/>
<text text-anchor="middle" x="175" y="-26.5" font-family="Helvetica,sans-Serif" font-size="10.00" fill="#000000">bf_ftoa_internal</text>
</a>
</g>
</g>
<!-- Node6604&#45;&gt;Node6605 -->
<g id="edge1" class="edge">
<title>Node6604&#45;&gt;Node6605</title>
<path fill="none" stroke="#191970" d="M102.4129,-29C110.8893,-29 119.555,-29 127.8119,-29"/>
<polygon fill="#191970" stroke="#191970" points="102.2076,-25.5001 92.2076,-29 102.2076,-32.5001 102.2076,-25.5001"/>
</g>
<!-- Node6606 -->
<g id="node3" class="node">
<title>Node6606</title>
<g id="a_node3"><a xlink:href="libbf_8h.html#a3ab9f99dbc84f8cce63cf3867b8986e5" target="_top" xlink:title="bf_ftoa">
<polygon fill="none" stroke="#000000" points="266.5,-38.5 266.5,-57.5 317.5,-57.5 317.5,-38.5 266.5,-38.5"/>
<text text-anchor="middle" x="292" y="-45.5" font-family="Helvetica,sans-Serif" font-size="10.00" fill="#000000">bf_ftoa</text>
</a>
</g>
</g>
<!-- Node6605&#45;&gt;Node6606 -->
<g id="edge2" class="edge">
<title>Node6605&#45;&gt;Node6606</title>
<path fill="none" stroke="#191970" d="M232.2616,-38.2989C244.2509,-40.2459 256.3096,-42.2041 266.4221,-43.8463"/>
<polygon fill="#191970" stroke="#191970" points="232.6829,-34.8215 222.2511,-36.6733 231.5608,-41.731 232.6829,-34.8215"/>
</g>
<!-- Node6607 -->
<g id="node4" class="node">
<title>Node6607</title>
<g id="a_node4"><a xlink:href="libbf_8h.html#a076d088aa44d1cfa2d6f85f718fb88bc" target="_top" xlink:title="bfdec_ftoa">
<polygon fill="none" stroke="#000000" points="258,-.5 258,-19.5 326,-19.5 326,-.5 258,-.5"/>
<text text-anchor="middle" x="292" y="-7.5" font-family="Helvetica,sans-Serif" font-size="10.00" fill="#000000">bfdec_ftoa</text>
</a>
</g>
</g>
<!-- Node6605&#45;&gt;Node6607 -->
<g id="edge3" class="edge">
<title>Node6605&#45;&gt;Node6607</title>
<path fill="none" stroke="#191970" d="M232.1346,-19.7217C240.9419,-18.2915 249.7904,-16.8546 257.8811,-15.5407"/>
<polygon fill="#191970" stroke="#191970" points="231.5608,-16.269 222.2511,-21.3267 232.6829,-23.1785 231.5608,-16.269"/>
</g>
</g>
</svg>
