<?xml version="1.0" encoding="UTF-8" standalone="no"?>
<!DOCTYPE svg PUBLIC "-//W3C//DTD SVG 1.1//EN"
 "http://www.w3.org/Graphics/SVG/1.1/DTD/svg11.dtd">
<!-- Generated by graphviz version 2.40.1 (20161225.0304)
 -->
<!-- Title: mp_neg Pages: 1 -->
<svg width="420pt" height="47pt"
 viewBox="0.00 0.00 420.00 47.00" xmlns="http://www.w3.org/2000/svg" xmlns:xlink="http://www.w3.org/1999/xlink">
<g id="graph0" class="graph" transform="scale(1 1) rotate(0) translate(4 43)">
<title>mp_neg</title>
<!-- Node2621 -->
<g id="node1" class="node">
<title>Node2621</title>
<polygon fill="#bfbfbf" stroke="#000000" points="0,-.5 0,-19.5 56,-19.5 56,-.5 0,-.5"/>
<text text-anchor="middle" x="28" y="-7.5" font-family="Helvetica,sans-Serif" font-size="10.00" fill="#000000">mp_neg</text>
</g>
<!-- Node2622 -->
<g id="node2" class="node">
<title>Node2622</title>
<g id="a_node2"><a xlink:href="libbf_8h.html#a01be6db77710375febf385d07ad4f1fe" target="_top" xlink:title="mp_recip">
<polygon fill="none" stroke="#000000" points="92,-.5 92,-19.5 154,-19.5 154,-.5 92,-.5"/>
<text text-anchor="middle" x="123" y="-7.5" font-family="Helvetica,sans-Serif" font-size="10.00" fill="#000000">mp_recip</text>
</a>
</g>
</g>
<!-- Node2621&#45;&gt;Node2622 -->
<g id="edge1" class="edge">
<title>Node2621&#45;&gt;Node2622</title>
<path fill="none" stroke="#191970" d="M66.2737,-10C74.7213,-10 83.5739,-10 91.7063,-10"/>
<polygon fill="#191970" stroke="#191970" points="66.246,-6.5001 56.2459,-10 66.2459,-13.5001 66.246,-6.5001"/>
</g>
<!-- Node2622&#45;&gt;Node2622 -->
<g id="edge2" class="edge">
<title>Node2622&#45;&gt;Node2622</title>
<path fill="none" stroke="#191970" d="M105.5934,-29.4C106.7559,-34.3146 112.5581,-38 123,-38 139.707,-38 144.5364,-28.5653 137.4881,-19.7571"/>
<polygon fill="#191970" stroke="#191970" points="108.965,-30.3422 108.5119,-19.7571 102.2651,-28.3144 108.965,-30.3422"/>
</g>
<!-- Node2623 -->
<g id="node3" class="node">
<title>Node2623</title>
<g id="a_node3"><a xlink:href="libbf_8c.html#ae8bc748c521cf9e366c02ba403b2d8c0" target="_top" xlink:title="mp_divnorm_large">
<polygon fill="none" stroke="#000000" points="190,-19.5 190,-38.5 298,-38.5 298,-19.5 190,-19.5"/>
<text text-anchor="middle" x="244" y="-26.5" font-family="Helvetica,sans-Serif" font-size="10.00" fill="#000000">mp_divnorm_large</text>
</a>
</g>
</g>
<!-- Node2622&#45;&gt;Node2623 -->
<g id="edge3" class="edge">
<title>Node2622&#45;&gt;Node2623</title>
<path fill="none" stroke="#191970" d="M164.281,-16.4821C172.5381,-17.7787 181.3281,-19.159 189.942,-20.5116"/>
<polygon fill="#191970" stroke="#191970" points="164.5824,-12.9867 154.1605,-14.893 163.4965,-19.9019 164.5824,-12.9867"/>
</g>
<!-- Node2624 -->
<g id="node4" class="node">
<title>Node2624</title>
<g id="a_node4"><a xlink:href="libbf_8c.html#a0b14a84ecf8baf4930b1bcb8621b8e18" target="_top" xlink:title="mp_divnorm">
<polygon fill="none" stroke="#ff0000" points="334,-.5 334,-19.5 412,-19.5 412,-.5 334,-.5"/>
<text text-anchor="middle" x="373" y="-7.5" font-family="Helvetica,sans-Serif" font-size="10.00" fill="#000000">mp_divnorm</text>
</a>
</g>
</g>
<!-- Node2623&#45;&gt;Node2624 -->
<g id="edge4" class="edge">
<title>Node2623&#45;&gt;Node2624</title>
<path fill="none" stroke="#191970" d="M308.4012,-19.5146C317.0094,-18.2467 325.6199,-16.9785 333.6195,-15.8002"/>
<polygon fill="#191970" stroke="#191970" points="307.717,-16.0775 298.3337,-20.9974 308.737,-23.0028 307.717,-16.0775"/>
</g>
<!-- Node2624&#45;&gt;Node2622 -->
<g id="edge5" class="edge">
<title>Node2624&#45;&gt;Node2622</title>
<path fill="none" stroke="#191970" d="M323.6002,-10C273.2367,-10 196.6494,-10 154.1572,-10"/>
<polygon fill="#191970" stroke="#191970" points="323.6163,-13.5001 333.6162,-10 323.6162,-6.5001 323.6163,-13.5001"/>
</g>
</g>
</svg>
