<?xml version="1.0" encoding="UTF-8" standalone="no"?>
<!DOCTYPE svg PUBLIC "-//W3C//DTD SVG 1.1//EN"
 "http://www.w3.org/Graphics/SVG/1.1/DTD/svg11.dtd">
<!-- Generated by graphviz version 2.40.1 (20161225.0304)
 -->
<!-- Title: bf_ftoa Pages: 1 -->
<svg width="647pt" height="1016pt"
 viewBox="0.00 0.00 647.00 1016.00" xmlns="http://www.w3.org/2000/svg" xmlns:xlink="http://www.w3.org/1999/xlink">
<g id="graph0" class="graph" transform="scale(1 1) rotate(0) translate(4 1012)">
<title>bf_ftoa</title>
<!-- Node3042 -->
<g id="node1" class="node">
<title>Node3042</title>
<polygon fill="#bfbfbf" stroke="#000000" points="0,-399.5 0,-418.5 51,-418.5 51,-399.5 0,-399.5"/>
<text text-anchor="middle" x="25.5" y="-406.5" font-family="Helvetica,sans-Serif" font-size="10.00" fill="#000000">bf_ftoa</text>
</g>
<!-- Node3043 -->
<g id="node2" class="node">
<title>Node3043</title>
<g id="a_node2"><a xlink:href="libbf_8c.html#ad79aefc435021a0743c89cb4aec7fa56" target="_top" xlink:title="bf_ftoa_internal">
<polygon fill="none" stroke="#000000" points="87,-399.5 87,-418.5 181,-418.5 181,-399.5 87,-399.5"/>
<text text-anchor="middle" x="134" y="-406.5" font-family="Helvetica,sans-Serif" font-size="10.00" fill="#000000">bf_ftoa_internal</text>
</a>
</g>
</g>
<!-- Node3042&#45;&gt;Node3043 -->
<g id="edge1" class="edge">
<title>Node3042&#45;&gt;Node3043</title>
<path fill="none" stroke="#191970" d="M51.213,-409C58.9532,-409 67.7769,-409 76.7108,-409"/>
<polygon fill="#191970" stroke="#191970" points="76.7925,-412.5001 86.7925,-409 76.7925,-405.5001 76.7925,-412.5001"/>
</g>
<!-- Node3044 -->
<g id="node3" class="node">
<title>Node3044</title>
<g id="a_node3"><a xlink:href="cutils_8h.html#a7e3df12bda422b64b14ec2fc2f487c5f" target="_top" xlink:title="__attribute__">
<polygon fill="none" stroke="#000000" points="230.5,-988.5 230.5,-1007.5 310.5,-1007.5 310.5,-988.5 230.5,-988.5"/>
<text text-anchor="middle" x="270.5" y="-995.5" font-family="Helvetica,sans-Serif" font-size="10.00" fill="#000000">__attribute__</text>
</a>
</g>
</g>
<!-- Node3043&#45;&gt;Node3044 -->
<g id="edge2" class="edge">
<title>Node3043&#45;&gt;Node3044</title>
<path fill="none" stroke="#191970" d="M134.1834,-418.751C135.627,-486.0348 147.0325,-881.4801 217,-974 219.7334,-977.6145 223.1339,-980.6976 226.8869,-983.3249"/>
<polygon fill="#191970" stroke="#191970" points="225.1426,-986.3594 235.5435,-988.3777 228.6714,-980.3139 225.1426,-986.3594"/>
</g>
<!-- Node3045 -->
<g id="node4" class="node">
<title>Node3045</title>
<g id="a_node4"><a xlink:href="libbf_8h.html#a165ae2c6d3fee618014b7c9ea4f944dc" target="_top" xlink:title="bf_cmpu">
<polygon fill="none" stroke="#000000" points="241,-874.5 241,-893.5 300,-893.5 300,-874.5 241,-874.5"/>
<text text-anchor="middle" x="270.5" y="-881.5" font-family="Helvetica,sans-Serif" font-size="10.00" fill="#000000">bf_cmpu</text>
</a>
</g>
</g>
<!-- Node3043&#45;&gt;Node3045 -->
<g id="edge3" class="edge">
<title>Node3043&#45;&gt;Node3045</title>
<path fill="none" stroke="#191970" d="M134.5715,-418.6099C138.2348,-477.3194 160.0962,-787.515 217,-860 220.9602,-865.0446 226.2114,-869.0598 231.8782,-872.2468"/>
<polygon fill="#191970" stroke="#191970" points="230.4674,-875.4516 240.9996,-876.602 233.4835,-869.1347 230.4674,-875.4516"/>
</g>
<!-- Node3046 -->
<g id="node5" class="node">
<title>Node3046</title>
<g id="a_node5"><a xlink:href="libbf_8h.html#a4954f3435332238433d15977d55ae566" target="_top" xlink:title="bf_max">
<polygon fill="none" stroke="#000000" points="373.5,-912.5 373.5,-931.5 426.5,-931.5 426.5,-912.5 373.5,-912.5"/>
<text text-anchor="middle" x="400" y="-919.5" font-family="Helvetica,sans-Serif" font-size="10.00" fill="#000000">bf_max</text>
</a>
</g>
</g>
<!-- Node3043&#45;&gt;Node3046 -->
<g id="edge12" class="edge">
<title>Node3043&#45;&gt;Node3046</title>
<path fill="none" stroke="#191970" d="M134.1009,-418.5667C134.9721,-481.317 143.1382,-833.6513 217,-903 255.9628,-939.5821 322.1689,-936.461 363.3618,-929.9089"/>
<polygon fill="#191970" stroke="#191970" points="364.0092,-933.349 373.2638,-928.1913 362.8128,-926.452 364.0092,-933.349"/>
</g>
<!-- Node3048 -->
<g id="node7" class="node">
<title>Node3048</title>
<g id="a_node7"><a xlink:href="libbf_8c.html#af424da787a1bef3c17afb5d0b416c829" target="_top" xlink:title="bf_dbuf_realloc">
<polygon fill="none" stroke="#000000" points="224.5,-228.5 224.5,-247.5 316.5,-247.5 316.5,-228.5 224.5,-228.5"/>
<text text-anchor="middle" x="270.5" y="-235.5" font-family="Helvetica,sans-Serif" font-size="10.00" fill="#000000">bf_dbuf_realloc</text>
</a>
</g>
</g>
<!-- Node3043&#45;&gt;Node3048 -->
<g id="edge6" class="edge">
<title>Node3043&#45;&gt;Node3048</title>
<path fill="none" stroke="#191970" d="M137.0309,-399.3974C145.5704,-373.7589 172.168,-302.8732 217,-262 221.1846,-258.185 226.0765,-254.8947 231.1709,-252.0813"/>
<polygon fill="#191970" stroke="#191970" points="233.0187,-255.0731 240.4503,-247.5218 229.9317,-248.7905 233.0187,-255.0731"/>
</g>
<!-- Node3049 -->
<g id="node8" class="node">
<title>Node3049</title>
<g id="a_node8"><a xlink:href="libbf_8h.html#a2b9d906b21e903f2f7f1c9044674ab7d" target="_top" xlink:title="bf_delete">
<polygon fill="none" stroke="#000000" points="476,-608.5 476,-627.5 538,-627.5 538,-608.5 476,-608.5"/>
<text text-anchor="middle" x="507" y="-615.5" font-family="Helvetica,sans-Serif" font-size="10.00" fill="#000000">bf_delete</text>
</a>
</g>
</g>
<!-- Node3043&#45;&gt;Node3049 -->
<g id="edge7" class="edge">
<title>Node3043&#45;&gt;Node3049</title>
<path fill="none" stroke="#191970" d="M140.7678,-399.411C153.5535,-382.0605 183.0424,-345.5398 217,-327 304.8814,-279.0194 362.3421,-231.7976 440,-295 487.5657,-333.7116 502.4377,-533.7191 506.0279,-598.0475"/>
<polygon fill="#191970" stroke="#191970" points="502.5525,-598.608 506.5724,-608.4106 509.5428,-598.2407 502.5525,-598.608"/>
</g>
<!-- Node3051 -->
<g id="node10" class="node">
<title>Node3051</title>
<g id="a_node10"><a xlink:href="libbf_8h.html#ab8c991bf0d1ab72d676d3c9c3d63c2a7" target="_top" xlink:title="bf_free">
<polygon fill="none" stroke="#000000" points="481.5,-836.5 481.5,-855.5 532.5,-855.5 532.5,-836.5 481.5,-836.5"/>
<text text-anchor="middle" x="507" y="-843.5" font-family="Helvetica,sans-Serif" font-size="10.00" fill="#000000">bf_free</text>
</a>
</g>
</g>
<!-- Node3043&#45;&gt;Node3051 -->
<g id="edge9" class="edge">
<title>Node3043&#45;&gt;Node3051</title>
<path fill="none" stroke="#191970" d="M134.8143,-418.6797C140.6592,-487.0669 177.131,-895.7324 217,-932 290.3749,-998.7469 351.9384,-986.6527 440,-941 470.7651,-925.0508 490.4015,-887.7597 499.9976,-864.9303"/>
<polygon fill="#191970" stroke="#191970" points="503.2698,-866.1733 503.7041,-855.5874 496.7631,-863.592 503.2698,-866.1733"/>
</g>
<!-- Node3052 -->
<g id="node11" class="node">
<title>Node3052</title>
<g id="a_node11"><a xlink:href="libbf_8h.html#abacc1410890af049e02ebd788364ac48" target="_top" xlink:title="bf_init">
<polygon fill="none" stroke="#000000" points="483.5,-684.5 483.5,-703.5 530.5,-703.5 530.5,-684.5 483.5,-684.5"/>
<text text-anchor="middle" x="507" y="-691.5" font-family="Helvetica,sans-Serif" font-size="10.00" fill="#000000">bf_init</text>
</a>
</g>
</g>
<!-- Node3043&#45;&gt;Node3052 -->
<g id="edge11" class="edge">
<title>Node3043&#45;&gt;Node3052</title>
<path fill="none" stroke="#191970" d="M135.2006,-418.5733C142.6581,-473.277 188.1009,-746.6673 360,-827 392.2117,-842.0533 409.7266,-845.6472 440,-827 480.5843,-802.0017 497.4623,-744.032 503.7306,-713.5445"/>
<polygon fill="#191970" stroke="#191970" points="507.1795,-714.1417 505.5841,-703.6676 500.2996,-712.8505 507.1795,-714.1417"/>
</g>
<!-- Node3053 -->
<g id="node12" class="node">
<title>Node3053</title>
<g id="a_node12"><a xlink:href="libbf_8h.html#a5ca5a63aa9b1b1d723f0634adf318c71" target="_top" xlink:title="bf_mul_log2_radix">
<polygon fill="none" stroke="#000000" points="217,-494.5 217,-513.5 324,-513.5 324,-494.5 217,-494.5"/>
<text text-anchor="middle" x="270.5" y="-501.5" font-family="Helvetica,sans-Serif" font-size="10.00" fill="#000000">bf_mul_log2_radix</text>
</a>
</g>
</g>
<!-- Node3043&#45;&gt;Node3053 -->
<g id="edge13" class="edge">
<title>Node3043&#45;&gt;Node3053</title>
<path fill="none" stroke="#191970" d="M143.4881,-418.7384C158.1941,-433.4373 187.8454,-461.5317 217,-480 222.8935,-483.7333 229.4656,-487.1877 235.9307,-490.245"/>
<polygon fill="#191970" stroke="#191970" points="234.6786,-493.5195 245.2346,-494.4264 237.5481,-487.1347 234.6786,-493.5195"/>
</g>
<!-- Node3054 -->
<g id="node13" class="node">
<title>Node3054</title>
<g id="a_node13"><a xlink:href="libbf_8c.html#a6894718ef8656587ffa22bdfebf1a78f" target="_top" xlink:title="ceil_log2">
<polygon fill="none" stroke="#ff0000" points="370,-494.5 370,-513.5 430,-513.5 430,-494.5 370,-494.5"/>
<text text-anchor="middle" x="400" y="-501.5" font-family="Helvetica,sans-Serif" font-size="10.00" fill="#000000">ceil_log2</text>
</a>
</g>
</g>
<!-- Node3043&#45;&gt;Node3054 -->
<g id="edge32" class="edge">
<title>Node3043&#45;&gt;Node3054</title>
<path fill="none" stroke="#191970" d="M153.1558,-418.6157C169.7901,-426.7602 194.6513,-438.4434 217,-447 265.2899,-465.4886 322.3814,-482.5335 359.7973,-493.0753"/>
<polygon fill="#191970" stroke="#191970" points="359.2321,-496.5514 369.8051,-495.872 361.1161,-489.8096 359.2321,-496.5514"/>
</g>
<!-- Node3057 -->
<g id="node14" class="node">
<title>Node3057</title>
<g id="a_node14"><a xlink:href="libbf_8h.html#a0b4d56fc6808de8feed2a234525df692" target="_top" xlink:title="bf_mul_pow_radix">
<polygon fill="none" stroke="#000000" points="217.5,-627.5 217.5,-646.5 323.5,-646.5 323.5,-627.5 217.5,-627.5"/>
<text text-anchor="middle" x="270.5" y="-634.5" font-family="Helvetica,sans-Serif" font-size="10.00" fill="#000000">bf_mul_pow_radix</text>
</a>
</g>
</g>
<!-- Node3043&#45;&gt;Node3057 -->
<g id="edge15" class="edge">
<title>Node3043&#45;&gt;Node3057</title>
<path fill="none" stroke="#191970" d="M136.583,-418.6905C144.6511,-447.6577 171.5913,-535.2196 217,-594 225.1137,-604.5029 236.2938,-614.006 246.3364,-621.3912"/>
<polygon fill="#191970" stroke="#191970" points="244.5679,-624.426 254.7633,-627.3079 248.5904,-618.6971 244.5679,-624.426"/>
</g>
<!-- Node3123 -->
<g id="node19" class="node">
<title>Node3123</title>
<g id="a_node19"><a xlink:href="libbf_8h.html#abd4ca8358212228a53981a32a10286b5" target="_top" xlink:title="bf_round">
<polygon fill="none" stroke="#ff0000" points="370.5,-570.5 370.5,-589.5 429.5,-589.5 429.5,-570.5 370.5,-570.5"/>
<text text-anchor="middle" x="400" y="-577.5" font-family="Helvetica,sans-Serif" font-size="10.00" fill="#000000">bf_round</text>
</a>
</g>
</g>
<!-- Node3043&#45;&gt;Node3123 -->
<g id="edge28" class="edge">
<title>Node3043&#45;&gt;Node3123</title>
<path fill="none" stroke="#191970" d="M136.6589,-418.7848C144.2747,-444.7901 168.7833,-515.8909 217,-549 259.5513,-578.2188 320.502,-583.0092 360.1661,-582.5021"/>
<polygon fill="#191970" stroke="#191970" points="360.3506,-585.9987 370.2612,-582.2528 360.1778,-579.0008 360.3506,-585.9987"/>
</g>
<!-- Node3121 -->
<g id="node20" class="node">
<title>Node3121</title>
<g id="a_node20"><a xlink:href="libbf_8h.html#ae019ee8073f4359da157d3b1e5fdba7e" target="_top" xlink:title="bf_set">
<polygon fill="none" stroke="#ff0000" points="376.5,-532.5 376.5,-551.5 423.5,-551.5 423.5,-532.5 376.5,-532.5"/>
<text text-anchor="middle" x="400" y="-539.5" font-family="Helvetica,sans-Serif" font-size="10.00" fill="#000000">bf_set</text>
</a>
</g>
</g>
<!-- Node3043&#45;&gt;Node3121 -->
<g id="edge29" class="edge">
<title>Node3043&#45;&gt;Node3121</title>
<path fill="none" stroke="#191970" d="M137.8006,-418.7831C147.2429,-441.6104 174.1446,-498.3221 217,-523 263.3018,-549.6625 327.2266,-549.5938 365.9759,-546.3434"/>
<polygon fill="#191970" stroke="#191970" points="366.5822,-549.8014 376.202,-545.3618 365.9133,-542.8334 366.5822,-549.8014"/>
</g>
<!-- Node3124 -->
<g id="node21" class="node">
<title>Node3124</title>
<g id="a_node21"><a xlink:href="libbf_8h.html#a807d4e601bf73a30844a7c84f34961f1" target="_top" xlink:title="bfdec_round">
<polygon fill="none" stroke="#ff0000" points="232,-190.5 232,-209.5 309,-209.5 309,-190.5 232,-190.5"/>
<text text-anchor="middle" x="270.5" y="-197.5" font-family="Helvetica,sans-Serif" font-size="10.00" fill="#000000">bfdec_round</text>
</a>
</g>
</g>
<!-- Node3043&#45;&gt;Node3124 -->
<g id="edge30" class="edge">
<title>Node3043&#45;&gt;Node3124</title>
<path fill="none" stroke="#191970" d="M135.4906,-399.1431C140.6966,-368.0911 160.9049,-271.2677 217,-219 218.7285,-217.3895 220.6022,-215.914 222.579,-214.5623"/>
<polygon fill="#191970" stroke="#191970" points="224.771,-217.3453 231.7738,-209.3947 221.3414,-211.243 224.771,-217.3453"/>
</g>
<!-- Node3138 -->
<g id="node22" class="node">
<title>Node3138</title>
<g id="a_node22"><a xlink:href="libbf_8c.html#a2f32e9a47528025e35a4bacf57e23177" target="_top" xlink:title="ceil_div">
<polygon fill="none" stroke="#000000" points="243.5,-152.5 243.5,-171.5 297.5,-171.5 297.5,-152.5 243.5,-152.5"/>
<text text-anchor="middle" x="270.5" y="-159.5" font-family="Helvetica,sans-Serif" font-size="10.00" fill="#000000">ceil_div</text>
</a>
</g>
</g>
<!-- Node3043&#45;&gt;Node3138 -->
<g id="edge31" class="edge">
<title>Node3043&#45;&gt;Node3138</title>
<path fill="none" stroke="#191970" d="M134.6739,-399.2202C137.5913,-364.4392 152.1091,-245.3818 217,-181 221.6836,-176.3531 227.5757,-172.8373 233.724,-170.1788"/>
<polygon fill="#191970" stroke="#191970" points="235.2404,-173.3526 243.4598,-166.6674 232.8655,-166.7678 235.2404,-173.3526"/>
</g>
<!-- Node3139 -->
<g id="node23" class="node">
<title>Node3139</title>
<g id="a_node23"><a xlink:href="cutils_8h.html#a1fed0a329cb7bb0e04283285037921a4" target="_top" xlink:title="dbuf_error">
<polygon fill="none" stroke="#000000" points="237,-114.5 237,-133.5 304,-133.5 304,-114.5 237,-114.5"/>
<text text-anchor="middle" x="270.5" y="-121.5" font-family="Helvetica,sans-Serif" font-size="10.00" fill="#000000">dbuf_error</text>
</a>
</g>
</g>
<!-- Node3043&#45;&gt;Node3139 -->
<g id="edge33" class="edge">
<title>Node3043&#45;&gt;Node3139</title>
<path fill="none" stroke="#191970" d="M135.8057,-399.4007C144.0626,-356.4183 179.438,-182.048 217,-143 220.0365,-139.8434 223.6308,-137.2102 227.4979,-135.0137"/>
<polygon fill="#191970" stroke="#191970" points="229.296,-138.0372 236.8817,-130.6406 226.3392,-131.6923 229.296,-138.0372"/>
</g>
<!-- Node3140 -->
<g id="node24" class="node">
<title>Node3140</title>
<g id="a_node24"><a xlink:href="cutils_8h.html#a04e3983476063eb6fbab2fd74fc49fc6" target="_top" xlink:title="dbuf_init2">
<polygon fill="none" stroke="#ff0000" points="238,-76.5 238,-95.5 303,-95.5 303,-76.5 238,-76.5"/>
<text text-anchor="middle" x="270.5" y="-83.5" font-family="Helvetica,sans-Serif" font-size="10.00" fill="#000000">dbuf_init2</text>
</a>
</g>
</g>
<!-- Node3043&#45;&gt;Node3140 -->
<g id="edge34" class="edge">
<title>Node3043&#45;&gt;Node3140</title>
<path fill="none" stroke="#191970" d="M135.4199,-399.3211C142.4575,-352.5459 174.9486,-150.3168 217,-105 220.304,-101.4394 224.3186,-98.5455 228.6477,-96.1937"/>
<polygon fill="#191970" stroke="#191970" points="230.1431,-99.3591 237.8486,-92.0875 227.2903,-92.9668 230.1431,-99.3591"/>
</g>
<!-- Node3142 -->
<g id="node25" class="node">
<title>Node3142</title>
<g id="a_node25"><a xlink:href="cutils_8h.html#aeed81d4787ccdbd55baa9b5fd6717e88" target="_top" xlink:title="dbuf_putc">
<polygon fill="none" stroke="#ff0000" points="367.5,-380.5 367.5,-399.5 432.5,-399.5 432.5,-380.5 367.5,-380.5"/>
<text text-anchor="middle" x="400" y="-387.5" font-family="Helvetica,sans-Serif" font-size="10.00" fill="#000000">dbuf_putc</text>
</a>
</g>
</g>
<!-- Node3043&#45;&gt;Node3142 -->
<g id="edge35" class="edge">
<title>Node3043&#45;&gt;Node3142</title>
<path fill="none" stroke="#191970" d="M181.249,-405.6251C231.1812,-402.0585 309.224,-396.484 357.3442,-393.0468"/>
<polygon fill="#191970" stroke="#191970" points="357.7053,-396.5301 367.4305,-392.3264 357.2065,-389.5478 357.7053,-396.5301"/>
</g>
<!-- Node3145 -->
<g id="node26" class="node">
<title>Node3145</title>
<g id="a_node26"><a xlink:href="cutils_8h.html#a98c263f386a9b5533df32892c18febfc" target="_top" xlink:title="dbuf_putstr">
<polygon fill="none" stroke="#ff0000" points="234.5,-38.5 234.5,-57.5 306.5,-57.5 306.5,-38.5 234.5,-38.5"/>
<text text-anchor="middle" x="270.5" y="-45.5" font-family="Helvetica,sans-Serif" font-size="10.00" fill="#000000">dbuf_putstr</text>
</a>
</g>
</g>
<!-- Node3043&#45;&gt;Node3145 -->
<g id="edge36" class="edge">
<title>Node3043&#45;&gt;Node3145</title>
<path fill="none" stroke="#191970" d="M135.0875,-399.4774C140.9593,-349.5937 170.3531,-118.7254 217,-67 219.4166,-64.3203 222.2361,-62.0185 225.2939,-60.0412"/>
<polygon fill="#191970" stroke="#191970" points="227.1609,-63.0149 234.4056,-55.2842 223.9212,-56.8097 227.1609,-63.0149"/>
</g>
<!-- Node3085 -->
<g id="node27" class="node">
<title>Node3085</title>
<g id="a_node27"><a xlink:href="libbf_8c.html#a9efaad53187f85b1afc28c3f67cc72b6" target="_top" xlink:title="get_bits">
<polygon fill="none" stroke="#000000" points="372,-342.5 372,-361.5 428,-361.5 428,-342.5 372,-342.5"/>
<text text-anchor="middle" x="400" y="-349.5" font-family="Helvetica,sans-Serif" font-size="10.00" fill="#000000">get_bits</text>
</a>
</g>
</g>
<!-- Node3043&#45;&gt;Node3085 -->
<g id="edge37" class="edge">
<title>Node3043&#45;&gt;Node3085</title>
<path fill="none" stroke="#191970" d="M177.9304,-399.4422C190.5427,-396.7065 204.3145,-393.7273 217,-391 267.0757,-380.2342 324.8887,-367.9352 361.9112,-360.0757"/>
<polygon fill="#191970" stroke="#191970" points="362.7229,-363.4815 371.7784,-357.9816 361.2696,-356.634 362.7229,-363.4815"/>
</g>
<!-- Node3127 -->
<g id="node28" class="node">
<title>Node3127</title>
<g id="a_node28"><a xlink:href="libbf_8c.html#a4ae6bd03b3af1b742666f50df5a52cb9" target="_top" xlink:title="get_digit">
<polygon fill="none" stroke="#ff0000" points="241,-.5 241,-19.5 300,-19.5 300,-.5 241,-.5"/>
<text text-anchor="middle" x="270.5" y="-7.5" font-family="Helvetica,sans-Serif" font-size="10.00" fill="#000000">get_digit</text>
</a>
</g>
</g>
<!-- Node3043&#45;&gt;Node3127 -->
<g id="edge38" class="edge">
<title>Node3043&#45;&gt;Node3127</title>
<path fill="none" stroke="#191970" d="M134.8372,-399.4963C139.6884,-346.4365 165.772,-87.1383 217,-29 220.9658,-24.4993 226.0696,-21.0647 231.5462,-18.4437"/>
<polygon fill="#191970" stroke="#191970" points="232.9403,-21.6567 240.9799,-14.7562 230.3919,-15.1371 232.9403,-21.6567"/>
</g>
<!-- Node3146 -->
<g id="node29" class="node">
<title>Node3146</title>
<g id="a_node29"><a xlink:href="libbf_8c.html#ae598665f1f567f67350a972a972ef86a" target="_top" xlink:title="output_digits">
<polygon fill="none" stroke="#ff0000" points="230.5,-418.5 230.5,-437.5 310.5,-437.5 310.5,-418.5 230.5,-418.5"/>
<text text-anchor="middle" x="270.5" y="-425.5" font-family="Helvetica,sans-Serif" font-size="10.00" fill="#000000">output_digits</text>
</a>
</g>
</g>
<!-- Node3043&#45;&gt;Node3146 -->
<g id="edge39" class="edge">
<title>Node3043&#45;&gt;Node3146</title>
<path fill="none" stroke="#191970" d="M181.358,-415.592C193.9958,-417.3511 207.6912,-419.2574 220.4676,-421.0358"/>
<polygon fill="#191970" stroke="#191970" points="220.0922,-424.5172 230.4793,-422.4294 221.0573,-417.584 220.0922,-424.5172"/>
</g>
<!-- Node3137 -->
<g id="node30" class="node">
<title>Node3137</title>
<g id="a_node30"><a xlink:href="libbf_8c.html#aefe50efe66e41318b7df5cb3cd012da1" target="_top" xlink:title="smod">
<polygon fill="none" stroke="#000000" points="378,-304.5 378,-323.5 422,-323.5 422,-304.5 378,-304.5"/>
<text text-anchor="middle" x="400" y="-311.5" font-family="Helvetica,sans-Serif" font-size="10.00" fill="#000000">smod</text>
</a>
</g>
</g>
<!-- Node3043&#45;&gt;Node3137 -->
<g id="edge47" class="edge">
<title>Node3043&#45;&gt;Node3137</title>
<path fill="none" stroke="#191970" d="M149.0861,-399.4395C165.3362,-389.4756 192.2056,-373.9539 217,-364 268.0466,-343.5069 330.3767,-328.472 367.5411,-320.4958"/>
<polygon fill="#191970" stroke="#191970" points="368.7115,-323.8262 377.7762,-318.3416 367.2697,-316.9763 368.7115,-323.8262"/>
</g>
<!-- Node3045&#45;&gt;Node3046 -->
<g id="edge4" class="edge">
<title>Node3045&#45;&gt;Node3046</title>
<path fill="none" stroke="#191970" d="M300.2099,-892.718C318.9909,-898.229 343.4001,-905.3915 363.3762,-911.2532"/>
<polygon fill="#191970" stroke="#191970" points="362.492,-914.6413 373.0729,-914.0986 364.463,-907.9245 362.492,-914.6413"/>
</g>
<!-- Node3047 -->
<g id="node6" class="node">
<title>Node3047</title>
<g id="a_node6"><a xlink:href="libbf_8c.html#a42c793dff09c27760634ad51e7184413" target="_top" xlink:title="get_limbz">
<polygon fill="none" stroke="#000000" points="367.5,-874.5 367.5,-893.5 432.5,-893.5 432.5,-874.5 367.5,-874.5"/>
<text text-anchor="middle" x="400" y="-881.5" font-family="Helvetica,sans-Serif" font-size="10.00" fill="#000000">get_limbz</text>
</a>
</g>
</g>
<!-- Node3045&#45;&gt;Node3047 -->
<g id="edge5" class="edge">
<title>Node3045&#45;&gt;Node3047</title>
<path fill="none" stroke="#191970" d="M300.2099,-884C317.0955,-884 338.5306,-884 357.203,-884"/>
<polygon fill="#191970" stroke="#191970" points="357.2459,-887.5001 367.2459,-884 357.2458,-880.5001 357.2459,-887.5001"/>
</g>
<!-- Node3050 -->
<g id="node9" class="node">
<title>Node3050</title>
<g id="a_node9"><a xlink:href="libbf_8h.html#a524c9e60866c08c75061626a4b5e2f29" target="_top" xlink:title="bf_realloc">
<polygon fill="none" stroke="#000000" points="574,-665.5 574,-684.5 639,-684.5 639,-665.5 574,-665.5"/>
<text text-anchor="middle" x="606.5" y="-672.5" font-family="Helvetica,sans-Serif" font-size="10.00" fill="#000000">bf_realloc</text>
</a>
</g>
</g>
<!-- Node3049&#45;&gt;Node3050 -->
<g id="edge8" class="edge">
<title>Node3049&#45;&gt;Node3050</title>
<path fill="none" stroke="#191970" d="M523.8788,-627.6693C539.5541,-636.6491 563.11,-650.1434 581.0638,-660.4285"/>
<polygon fill="#191970" stroke="#191970" points="579.4536,-663.5397 589.8705,-665.4735 582.9332,-657.4657 579.4536,-663.5397"/>
</g>
<!-- Node3051&#45;&gt;Node3050 -->
<g id="edge10" class="edge">
<title>Node3051&#45;&gt;Node3050</title>
<path fill="none" stroke="#191970" d="M512.6346,-836.3163C528.6427,-808.805 574.5937,-729.834 595.6835,-693.5891"/>
<polygon fill="#191970" stroke="#191970" points="598.923,-694.981 600.9272,-684.5774 592.8727,-691.4605 598.923,-694.981"/>
</g>
<!-- Node3053&#45;&gt;Node3054 -->
<g id="edge14" class="edge">
<title>Node3053&#45;&gt;Node3054</title>
<path fill="none" stroke="#191970" d="M324.2946,-504C336.0909,-504 348.3868,-504 359.5544,-504"/>
<polygon fill="#191970" stroke="#191970" points="359.8627,-507.5001 369.8627,-504 359.8626,-500.5001 359.8627,-507.5001"/>
</g>
<!-- Node3057&#45;&gt;Node3049 -->
<g id="edge16" class="edge">
<title>Node3057&#45;&gt;Node3049</title>
<path fill="none" stroke="#191970" d="M323.5752,-632.736C366.5807,-629.281 426.3116,-624.4824 465.7777,-621.3117"/>
<polygon fill="#191970" stroke="#191970" points="466.1586,-624.7925 475.8462,-620.5028 465.598,-617.815 466.1586,-624.7925"/>
</g>
<!-- Node3057&#45;&gt;Node3052 -->
<g id="edge18" class="edge">
<title>Node3057&#45;&gt;Node3052</title>
<path fill="none" stroke="#191970" d="M288.8268,-646.5389C306.5553,-655.3385 334.4226,-668.058 360,-675 398.0994,-685.3406 443.326,-690.111 473.4555,-692.2736"/>
<polygon fill="#191970" stroke="#191970" points="473.2373,-695.7668 483.4466,-692.9347 473.6995,-688.782 473.2373,-695.7668"/>
</g>
<!-- Node3057&#45;&gt;Node3054 -->
<g id="edge27" class="edge">
<title>Node3057&#45;&gt;Node3054</title>
<path fill="none" stroke="#191970" d="M276.018,-627.2117C288.5008,-605.8085 320.8866,-554.2644 360,-523 361.9968,-521.4039 364.1496,-519.9019 366.3843,-518.4965"/>
<polygon fill="#191970" stroke="#191970" points="368.2173,-521.482 375.2522,-513.5598 364.8124,-515.3658 368.2173,-521.482"/>
</g>
<!-- Node3058 -->
<g id="node15" class="node">
<title>Node3058</title>
<g id="a_node15"><a xlink:href="libbf_8h.html#a030665e68e114717678fb0d0453bb3c6" target="_top" xlink:title="bf_div">
<polygon fill="none" stroke="#ff0000" points="376.5,-798.5 376.5,-817.5 423.5,-817.5 423.5,-798.5 376.5,-798.5"/>
<text text-anchor="middle" x="400" y="-805.5" font-family="Helvetica,sans-Serif" font-size="10.00" fill="#000000">bf_div</text>
</a>
</g>
</g>
<!-- Node3057&#45;&gt;Node3058 -->
<g id="edge17" class="edge">
<title>Node3057&#45;&gt;Node3058</title>
<path fill="none" stroke="#191970" d="M273.9415,-646.8711C283.5796,-673.2372 313.2324,-746.2073 360,-789 362.1802,-790.9949 364.6074,-792.819 367.1584,-794.4788"/>
<polygon fill="#191970" stroke="#191970" points="365.6929,-797.6694 376.1288,-799.4975 369.1107,-791.5604 365.6929,-797.6694"/>
</g>
<!-- Node3117 -->
<g id="node16" class="node">
<title>Node3117</title>
<g id="a_node16"><a xlink:href="libbf_8h.html#a40cbb5188b372acb906090d5ccf98a17" target="_top" xlink:title="bf_is_finite">
<polygon fill="none" stroke="#000000" points="365,-722.5 365,-741.5 435,-741.5 435,-722.5 365,-722.5"/>
<text text-anchor="middle" x="400" y="-729.5" font-family="Helvetica,sans-Serif" font-size="10.00" fill="#000000">bf_is_finite</text>
</a>
</g>
</g>
<!-- Node3057&#45;&gt;Node3117 -->
<g id="edge19" class="edge">
<title>Node3057&#45;&gt;Node3117</title>
<path fill="none" stroke="#191970" d="M281.7196,-646.6844C298.3242,-660.8333 330.6469,-687.6793 360,-708 364.4634,-711.0899 369.3318,-714.2072 374.0871,-717.1256"/>
<polygon fill="#191970" stroke="#191970" points="372.5779,-720.3013 382.9561,-722.4332 376.1726,-714.2947 372.5779,-720.3013"/>
</g>
<!-- Node3118 -->
<g id="node17" class="node">
<title>Node3118</title>
<g id="a_node17"><a xlink:href="libbf_8h.html#ac290278d0c37a0e7786873f98aadba47" target="_top" xlink:title="bf_mul">
<polygon fill="none" stroke="#ff0000" points="375,-760.5 375,-779.5 425,-779.5 425,-760.5 375,-760.5"/>
<text text-anchor="middle" x="400" y="-767.5" font-family="Helvetica,sans-Serif" font-size="10.00" fill="#000000">bf_mul</text>
</a>
</g>
</g>
<!-- Node3057&#45;&gt;Node3118 -->
<g id="edge20" class="edge">
<title>Node3057&#45;&gt;Node3118</title>
<path fill="none" stroke="#191970" d="M276.018,-646.7883C288.5008,-668.1915 320.8866,-719.7356 360,-751 361.9968,-752.5961 364.1496,-754.0981 366.3843,-755.5035"/>
<polygon fill="#191970" stroke="#191970" points="364.8124,-758.6342 375.2522,-760.4402 368.2173,-752.518 364.8124,-758.6342"/>
</g>
<!-- Node3119 -->
<g id="node18" class="node">
<title>Node3119</title>
<g id="a_node18"><a xlink:href="libbf_8c.html#a1ffacb0aed0dec6e3375c4de055bb8b8" target="_top" xlink:title="bf_pow_ui_ui">
<polygon fill="none" stroke="#ff0000" points="360,-646.5 360,-665.5 440,-665.5 440,-646.5 360,-646.5"/>
<text text-anchor="middle" x="400" y="-653.5" font-family="Helvetica,sans-Serif" font-size="10.00" fill="#000000">bf_pow_ui_ui</text>
</a>
</g>
</g>
<!-- Node3057&#45;&gt;Node3119 -->
<g id="edge22" class="edge">
<title>Node3057&#45;&gt;Node3119</title>
<path fill="none" stroke="#191970" d="M323.5463,-644.7828C332.2819,-646.0645 341.3115,-647.3893 349.9702,-648.6597"/>
<polygon fill="#191970" stroke="#191970" points="349.5225,-652.1314 359.9247,-650.1202 350.5387,-645.2056 349.5225,-652.1314"/>
</g>
<!-- Node3057&#45;&gt;Node3123 -->
<g id="edge25" class="edge">
<title>Node3057&#45;&gt;Node3123</title>
<path fill="none" stroke="#191970" d="M292.1754,-627.4595C313.1856,-618.2117 345.2696,-604.0898 368.9809,-593.6532"/>
<polygon fill="#191970" stroke="#191970" points="370.5113,-596.8037 378.2539,-589.5716 367.6912,-590.3969 370.5113,-596.8037"/>
</g>
<!-- Node3057&#45;&gt;Node3121 -->
<g id="edge26" class="edge">
<title>Node3057&#45;&gt;Node3121</title>
<path fill="none" stroke="#191970" d="M280.2809,-627.1774C296.0443,-611.713 328.498,-581.3578 360,-561 362.5647,-559.3426 365.2964,-557.7421 368.0816,-556.2208"/>
<polygon fill="#191970" stroke="#191970" points="369.7051,-559.3218 377.0211,-551.6584 366.523,-553.0869 369.7051,-559.3218"/>
</g>
<!-- Node3118&#45;&gt;Node3052 -->
<g id="edge21" class="edge">
<title>Node3118&#45;&gt;Node3052</title>
<path fill="none" stroke="#191970" d="M422.9811,-760.345C428.7005,-757.6041 434.7068,-754.4241 440,-751 458.2644,-739.1849 476.946,-722.8716 489.9263,-710.7235"/>
<polygon fill="#191970" stroke="#191970" points="492.3925,-713.2079 497.2168,-703.7752 487.5632,-708.1407 492.3925,-713.2079"/>
</g>
<!-- Node3119&#45;&gt;Node3049 -->
<g id="edge23" class="edge">
<title>Node3119&#45;&gt;Node3049</title>
<path fill="none" stroke="#191970" d="M427.0006,-646.411C440.1797,-641.7306 456.229,-636.0308 470.4835,-630.9685"/>
<polygon fill="#191970" stroke="#191970" points="471.756,-634.2308 480.008,-627.5859 469.4133,-627.6344 471.756,-634.2308"/>
</g>
<!-- Node3119&#45;&gt;Node3052 -->
<g id="edge24" class="edge">
<title>Node3119&#45;&gt;Node3052</title>
<path fill="none" stroke="#191970" d="M427.0006,-665.589C441.2205,-670.6391 458.782,-676.8758 473.8251,-682.2182"/>
<polygon fill="#191970" stroke="#191970" points="472.6917,-685.5299 483.2864,-685.5784 475.0344,-678.9335 472.6917,-685.5299"/>
</g>
<!-- Node3146&#45;&gt;Node3047 -->
<g id="edge45" class="edge">
<title>Node3146&#45;&gt;Node3047</title>
<path fill="none" stroke="#191970" d="M283.6145,-437.7054C296.3225,-447.9259 314.9613,-465.2554 324,-485 387.618,-623.9703 306.3889,-683.8712 360,-827 365.4875,-841.6504 375.6482,-856.0543 384.3553,-866.7173"/>
<polygon fill="#191970" stroke="#191970" points="381.7566,-869.064 390.9096,-874.4002 387.082,-864.5208 381.7566,-869.064"/>
</g>
<!-- Node3146&#45;&gt;Node3049 -->
<g id="edge40" class="edge">
<title>Node3146&#45;&gt;Node3049</title>
<path fill="none" stroke="#191970" d="M310.8107,-423.0691C348.1779,-420.7508 403.3673,-423.3385 440,-452 486.6025,-488.4619 500.9456,-562.5082 505.2365,-598.0655"/>
<polygon fill="#191970" stroke="#191970" points="501.7718,-598.585 506.3045,-608.1612 508.733,-597.8485 501.7718,-598.585"/>
</g>
<!-- Node3146&#45;&gt;Node3052 -->
<g id="edge41" class="edge">
<title>Node3146&#45;&gt;Node3052</title>
<path fill="none" stroke="#191970" d="M306.0072,-437.557C312.0345,-439.293 318.2132,-441.144 324,-443 350.1055,-451.373 421.7587,-464.5339 440,-485 486.1926,-536.8266 451.1972,-572.1573 476,-637 481.167,-650.5083 488.9486,-664.8042 495.4226,-675.6999"/>
<polygon fill="#191970" stroke="#191970" points="492.4746,-677.588 500.6767,-684.2945 498.447,-673.9369 492.4746,-677.588"/>
</g>
<!-- Node3146&#45;&gt;Node3054 -->
<g id="edge42" class="edge">
<title>Node3146&#45;&gt;Node3054</title>
<path fill="none" stroke="#191970" d="M295.0892,-437.5655C304.3959,-441.5605 314.9267,-446.5444 324,-452 341.3713,-462.4452 343.279,-468.5426 360,-480 364.4781,-483.0685 369.3536,-486.1755 374.1112,-489.0905"/>
<polygon fill="#191970" stroke="#191970" points="372.6018,-492.266 382.9797,-494.3989 376.1969,-486.2598 372.6018,-492.266"/>
</g>
<!-- Node3146&#45;&gt;Node3142 -->
<g id="edge43" class="edge">
<title>Node3146&#45;&gt;Node3142</title>
<path fill="none" stroke="#191970" d="M303.1783,-418.411C319.5888,-413.5956 339.6763,-407.7012 357.2922,-402.532"/>
<polygon fill="#191970" stroke="#191970" points="358.7222,-405.7601 367.3321,-399.5859 356.7512,-399.0433 358.7222,-405.7601"/>
</g>
<!-- Node3146&#45;&gt;Node3085 -->
<g id="edge44" class="edge">
<title>Node3146&#45;&gt;Node3085</title>
<path fill="none" stroke="#191970" d="M284.4318,-418.3641C301.7618,-406.558 332.435,-386.248 360,-371 363.0526,-369.3114 366.2796,-367.6245 369.5235,-365.9918"/>
<polygon fill="#191970" stroke="#191970" points="371.1239,-369.1054 378.5789,-361.5772 368.0564,-362.8133 371.1239,-369.1054"/>
</g>
<!-- Node3146&#45;&gt;Node3137 -->
<g id="edge46" class="edge">
<title>Node3146&#45;&gt;Node3137</title>
<path fill="none" stroke="#191970" d="M277.6696,-418.2484C291.7292,-399.6651 324.6451,-358.7412 360,-333 362.8202,-330.9467 365.8972,-329.0244 369.0516,-327.2511"/>
<polygon fill="#191970" stroke="#191970" points="370.696,-330.3413 377.9966,-322.6633 367.5014,-324.1127 370.696,-330.3413"/>
</g>
</g>
</svg>
