<?xml version="1.0" encoding="UTF-8" standalone="no"?>
<!DOCTYPE svg PUBLIC "-//W3C//DTD SVG 1.1//EN"
 "http://www.w3.org/Graphics/SVG/1.1/DTD/svg11.dtd">
<!-- Generated by graphviz version 2.40.1 (20161225.0304)
 -->
<!-- Title: bf_cmp_full Pages: 1 -->
<svg width="278pt" height="66pt"
 viewBox="0.00 0.00 278.00 66.00" xmlns="http://www.w3.org/2000/svg" xmlns:xlink="http://www.w3.org/1999/xlink">
<g id="graph0" class="graph" transform="scale(1 1) rotate(0) translate(4 62)">
<title>bf_cmp_full</title>
<!-- Node1435 -->
<g id="node1" class="node">
<title>Node1435</title>
<polygon fill="#bfbfbf" stroke="#000000" points="0,-19.5 0,-38.5 74,-38.5 74,-19.5 0,-19.5"/>
<text text-anchor="middle" x="37" y="-26.5" font-family="Helvetica,sans-Serif" font-size="10.00" fill="#000000">bf_cmp_full</text>
</g>
<!-- Node1436 -->
<g id="node2" class="node">
<title>Node1436</title>
<g id="a_node2"><a xlink:href="libbf_8h.html#a165ae2c6d3fee618014b7c9ea4f944dc" target="_top" xlink:title="bf_cmpu">
<polygon fill="none" stroke="#000000" points="110,-19.5 110,-38.5 169,-38.5 169,-19.5 110,-19.5"/>
<text text-anchor="middle" x="139.5" y="-26.5" font-family="Helvetica,sans-Serif" font-size="10.00" fill="#000000">bf_cmpu</text>
</a>
</g>
</g>
<!-- Node1435&#45;&gt;Node1436 -->
<g id="edge1" class="edge">
<title>Node1435&#45;&gt;Node1436</title>
<path fill="none" stroke="#191970" d="M74.0049,-29C82.403,-29 91.3555,-29 99.8581,-29"/>
<polygon fill="#191970" stroke="#191970" points="99.9388,-32.5001 109.9387,-29 99.9387,-25.5001 99.9388,-32.5001"/>
</g>
<!-- Node1437 -->
<g id="node3" class="node">
<title>Node1437</title>
<g id="a_node3"><a xlink:href="libbf_8h.html#a4954f3435332238433d15977d55ae566" target="_top" xlink:title="bf_max">
<polygon fill="none" stroke="#000000" points="211,-38.5 211,-57.5 264,-57.5 264,-38.5 211,-38.5"/>
<text text-anchor="middle" x="237.5" y="-45.5" font-family="Helvetica,sans-Serif" font-size="10.00" fill="#000000">bf_max</text>
</a>
</g>
</g>
<!-- Node1436&#45;&gt;Node1437 -->
<g id="edge2" class="edge">
<title>Node1436&#45;&gt;Node1437</title>
<path fill="none" stroke="#191970" d="M169.1692,-34.7522C179.1406,-36.6854 190.384,-38.8653 200.8282,-40.8902"/>
<polygon fill="#191970" stroke="#191970" points="200.4459,-44.3811 210.9293,-42.8485 201.7783,-37.5091 200.4459,-44.3811"/>
</g>
<!-- Node1438 -->
<g id="node4" class="node">
<title>Node1438</title>
<g id="a_node4"><a xlink:href="libbf_8c.html#a42c793dff09c27760634ad51e7184413" target="_top" xlink:title="get_limbz">
<polygon fill="none" stroke="#000000" points="205,-.5 205,-19.5 270,-19.5 270,-.5 205,-.5"/>
<text text-anchor="middle" x="237.5" y="-7.5" font-family="Helvetica,sans-Serif" font-size="10.00" fill="#000000">get_limbz</text>
</a>
</g>
</g>
<!-- Node1436&#45;&gt;Node1438 -->
<g id="edge3" class="edge">
<title>Node1436&#45;&gt;Node1438</title>
<path fill="none" stroke="#191970" d="M169.1692,-23.2478C177.2675,-21.6777 186.2047,-19.945 194.8714,-18.2647"/>
<polygon fill="#191970" stroke="#191970" points="195.7036,-21.6686 204.8547,-16.3292 194.3713,-14.7966 195.7036,-21.6686"/>
</g>
</g>
</svg>
