<?xml version="1.0" encoding="UTF-8" standalone="no"?>
<!DOCTYPE svg PUBLIC "-//W3C//DTD SVG 1.1//EN"
 "http://www.w3.org/Graphics/SVG/1.1/DTD/svg11.dtd">
<!-- Generated by graphviz version 2.40.1 (20161225.0304)
 -->
<!-- Title: bfdec_cmp_lt Pages: 1 -->
<svg width="380pt" height="28pt"
 viewBox="0.00 0.00 380.00 28.00" xmlns="http://www.w3.org/2000/svg" xmlns:xlink="http://www.w3.org/1999/xlink">
<g id="graph0" class="graph" transform="scale(1 1) rotate(0) translate(4 24)">
<title>bfdec_cmp_lt</title>
<!-- Node5386 -->
<g id="node1" class="node">
<title>Node5386</title>
<polygon fill="#bfbfbf" stroke="#000000" points="0,-.5 0,-19.5 82,-19.5 82,-.5 0,-.5"/>
<text text-anchor="middle" x="41" y="-7.5" font-family="Helvetica,sans-Serif" font-size="10.00" fill="#000000">bfdec_cmp_lt</text>
</g>
<!-- Node5387 -->
<g id="node2" class="node">
<title>Node5387</title>
<g id="a_node2"><a xlink:href="libbf_8h.html#af89ce1e4918c3773780556b2b2e1c24f" target="_top" xlink:title="bfdec_cmp">
<polygon fill="none" stroke="#000000" points="118,-.5 118,-19.5 188,-19.5 188,-.5 118,-.5"/>
<text text-anchor="middle" x="153" y="-7.5" font-family="Helvetica,sans-Serif" font-size="10.00" fill="#000000">bfdec_cmp</text>
</a>
</g>
</g>
<!-- Node5386&#45;&gt;Node5387 -->
<g id="edge1" class="edge">
<title>Node5386&#45;&gt;Node5387</title>
<path fill="none" stroke="#191970" d="M82.0687,-10C90.413,-10 99.2345,-10 107.7153,-10"/>
<polygon fill="#191970" stroke="#191970" points="107.8363,-13.5001 117.8362,-10 107.8362,-6.5001 107.8363,-13.5001"/>
</g>
<!-- Node5388 -->
<g id="node3" class="node">
<title>Node5388</title>
<g id="a_node3"><a xlink:href="libbf_8h.html#a9508b6f4e9f4be88f4b5b0352217e9c5" target="_top" xlink:title="bf_cmp">
<polygon fill="none" stroke="#000000" points="224,-.5 224,-19.5 277,-19.5 277,-.5 224,-.5"/>
<text text-anchor="middle" x="250.5" y="-7.5" font-family="Helvetica,sans-Serif" font-size="10.00" fill="#000000">bf_cmp</text>
</a>
</g>
</g>
<!-- Node5387&#45;&gt;Node5388 -->
<g id="edge2" class="edge">
<title>Node5387&#45;&gt;Node5388</title>
<path fill="none" stroke="#191970" d="M188.1997,-10C196.484,-10 205.3353,-10 213.6883,-10"/>
<polygon fill="#191970" stroke="#191970" points="213.9221,-13.5001 223.9221,-10 213.9221,-6.5001 213.9221,-13.5001"/>
</g>
<!-- Node5389 -->
<g id="node4" class="node">
<title>Node5389</title>
<g id="a_node4"><a xlink:href="libbf_8h.html#a165ae2c6d3fee618014b7c9ea4f944dc" target="_top" xlink:title="bf_cmpu">
<polygon fill="none" stroke="#ff0000" points="313,-.5 313,-19.5 372,-19.5 372,-.5 313,-.5"/>
<text text-anchor="middle" x="342.5" y="-7.5" font-family="Helvetica,sans-Serif" font-size="10.00" fill="#000000">bf_cmpu</text>
</a>
</g>
</g>
<!-- Node5388&#45;&gt;Node5389 -->
<g id="edge3" class="edge">
<title>Node5388&#45;&gt;Node5389</title>
<path fill="none" stroke="#191970" d="M277.1102,-10C285.0332,-10 293.8955,-10 302.4757,-10"/>
<polygon fill="#191970" stroke="#191970" points="302.7196,-13.5001 312.7196,-10 302.7195,-6.5001 302.7196,-13.5001"/>
</g>
</g>
</svg>
