<?xml version="1.0" encoding="UTF-8" standalone="no"?>
<!DOCTYPE svg PUBLIC "-//W3C//DTD SVG 1.1//EN"
 "http://www.w3.org/Graphics/SVG/1.1/DTD/svg11.dtd">
<!-- Generated by graphviz version 2.40.1 (20161225.0304)
 -->
<!-- Title: bfdec_set_ui Pages: 1 -->
<svg width="453pt" height="104pt"
 viewBox="0.00 0.00 453.00 104.00" xmlns="http://www.w3.org/2000/svg" xmlns:xlink="http://www.w3.org/1999/xlink">
<g id="graph0" class="graph" transform="scale(1 1) rotate(0) translate(4 100)">
<title>bfdec_set_ui</title>
<!-- Node5191 -->
<g id="node1" class="node">
<title>Node5191</title>
<polygon fill="#bfbfbf" stroke="#000000" points="0,-38.5 0,-57.5 78,-57.5 78,-38.5 0,-38.5"/>
<text text-anchor="middle" x="39" y="-45.5" font-family="Helvetica,sans-Serif" font-size="10.00" fill="#000000">bfdec_set_ui</text>
</g>
<!-- Node5192 -->
<g id="node2" class="node">
<title>Node5192</title>
<g id="a_node2"><a xlink:href="libbf_8h.html#a1baac52525d382cc854c2e484ce2c169" target="_top" xlink:title="bfdec_pow_ui">
<polygon fill="none" stroke="#000000" points="114,-76.5 114,-95.5 197,-95.5 197,-76.5 114,-76.5"/>
<text text-anchor="middle" x="155.5" y="-83.5" font-family="Helvetica,sans-Serif" font-size="10.00" fill="#000000">bfdec_pow_ui</text>
</a>
</g>
</g>
<!-- Node5191&#45;&gt;Node5192 -->
<g id="edge1" class="edge">
<title>Node5191&#45;&gt;Node5192</title>
<path fill="none" stroke="#191970" d="M78.3216,-60.8259C93.9534,-65.9247 111.6258,-71.6891 126.1115,-76.4141"/>
<polygon fill="#191970" stroke="#191970" points="78.9903,-57.3626 68.3979,-57.589 76.8195,-64.0175 78.9903,-57.3626"/>
</g>
<!-- Node5193 -->
<g id="node3" class="node">
<title>Node5193</title>
<g id="a_node3"><a xlink:href="libbf_8h.html#a4c3b1cee330551b12fd6ae2fe5421031" target="_top" xlink:title="bfdec_set_si">
<polygon fill="none" stroke="#000000" points="117,-38.5 117,-57.5 194,-57.5 194,-38.5 117,-38.5"/>
<text text-anchor="middle" x="155.5" y="-45.5" font-family="Helvetica,sans-Serif" font-size="10.00" fill="#000000">bfdec_set_si</text>
</a>
</g>
</g>
<!-- Node5191&#45;&gt;Node5193 -->
<g id="edge2" class="edge">
<title>Node5191&#45;&gt;Node5193</title>
<path fill="none" stroke="#191970" d="M88.2471,-48C97.7468,-48 107.5738,-48 116.6844,-48"/>
<polygon fill="#191970" stroke="#191970" points="88.1169,-44.5001 78.1169,-48 88.1169,-51.5001 88.1169,-44.5001"/>
</g>
<!-- Node5198 -->
<g id="node7" class="node">
<title>Node5198</title>
<g id="a_node7"><a xlink:href="libbf_8c.html#a4fe4f91a21701a55cffbc44f1eb141b6" target="_top" xlink:title="bfdec_tdivremu">
<polygon fill="none" stroke="#000000" points="233,-.5 233,-19.5 326,-19.5 326,-.5 233,-.5"/>
<text text-anchor="middle" x="279.5" y="-7.5" font-family="Helvetica,sans-Serif" font-size="10.00" fill="#000000">bfdec_tdivremu</text>
</a>
</g>
</g>
<!-- Node5191&#45;&gt;Node5198 -->
<g id="edge7" class="edge">
<title>Node5191&#45;&gt;Node5198</title>
<path fill="none" stroke="#191970" d="M82.7054,-35.8813C92.9175,-33.3415 103.7936,-30.87 114,-29 153.827,-21.703 199.5896,-16.7047 232.8847,-13.6733"/>
<polygon fill="#191970" stroke="#191970" points="81.5848,-32.5551 72.7639,-38.424 83.3194,-39.3368 81.5848,-32.5551"/>
</g>
<!-- Node5194 -->
<g id="node4" class="node">
<title>Node5194</title>
<g id="a_node4"><a xlink:href="libbf_8h.html#ae5aa2c2f63fe392a1ab15f1012c512e8" target="_top" xlink:title="bfdec_mul_si">
<polygon fill="none" stroke="#000000" points="239,-76.5 239,-95.5 320,-95.5 320,-76.5 239,-76.5"/>
<text text-anchor="middle" x="279.5" y="-83.5" font-family="Helvetica,sans-Serif" font-size="10.00" fill="#000000">bfdec_mul_si</text>
</a>
</g>
</g>
<!-- Node5193&#45;&gt;Node5194 -->
<g id="edge3" class="edge">
<title>Node5193&#45;&gt;Node5194</title>
<path fill="none" stroke="#191970" d="M196.4047,-60.5353C213.2734,-65.7048 232.5076,-71.5991 248.2196,-76.4141"/>
<polygon fill="#191970" stroke="#191970" points="197.3771,-57.1727 186.7904,-57.589 195.326,-63.8655 197.3771,-57.1727"/>
</g>
<!-- Node5197 -->
<g id="node6" class="node">
<title>Node5197</title>
<g id="a_node6"><a xlink:href="libbf_8h.html#a7cb137686dce1e04af24aa61a1a177a6" target="_top" xlink:title="bfdec_add_si">
<polygon fill="none" stroke="#000000" points="239.5,-38.5 239.5,-57.5 319.5,-57.5 319.5,-38.5 239.5,-38.5"/>
<text text-anchor="middle" x="279.5" y="-45.5" font-family="Helvetica,sans-Serif" font-size="10.00" fill="#000000">bfdec_add_si</text>
</a>
</g>
</g>
<!-- Node5193&#45;&gt;Node5197 -->
<g id="edge5" class="edge">
<title>Node5193&#45;&gt;Node5197</title>
<path fill="none" stroke="#191970" d="M204.0748,-48C215.7216,-48 228.0323,-48 239.2541,-48"/>
<polygon fill="#191970" stroke="#191970" points="204.0547,-44.5001 194.0547,-48 204.0546,-51.5001 204.0547,-44.5001"/>
</g>
<!-- Node5195 -->
<g id="node5" class="node">
<title>Node5195</title>
<g id="a_node5"><a xlink:href="libbf_8h.html#a318508be097917ddd5d1ce187edea68b" target="_top" xlink:title="bfdec_divrem">
<polygon fill="none" stroke="#ff0000" points="362,-38.5 362,-57.5 445,-57.5 445,-38.5 362,-38.5"/>
<text text-anchor="middle" x="403.5" y="-45.5" font-family="Helvetica,sans-Serif" font-size="10.00" fill="#000000">bfdec_divrem</text>
</a>
</g>
</g>
<!-- Node5194&#45;&gt;Node5195 -->
<g id="edge4" class="edge">
<title>Node5194&#45;&gt;Node5195</title>
<path fill="none" stroke="#191970" d="M320.4047,-73.4647C337.2734,-68.2952 356.5076,-62.4009 372.2196,-57.5859"/>
<polygon fill="#191970" stroke="#191970" points="319.326,-70.1345 310.7904,-76.411 321.3771,-76.8273 319.326,-70.1345"/>
</g>
<!-- Node5197&#45;&gt;Node5195 -->
<g id="edge6" class="edge">
<title>Node5197&#45;&gt;Node5195</title>
<path fill="none" stroke="#191970" d="M330.0819,-48C340.603,-48 351.5785,-48 361.7394,-48"/>
<polygon fill="#191970" stroke="#191970" points="329.7593,-44.5001 319.7592,-48 329.7592,-51.5001 329.7593,-44.5001"/>
</g>
<!-- Node5198&#45;&gt;Node5195 -->
<g id="edge8" class="edge">
<title>Node5198&#45;&gt;Node5195</title>
<path fill="none" stroke="#191970" d="M320.4047,-22.5353C337.2734,-27.7048 356.5076,-33.5991 372.2196,-38.4141"/>
<polygon fill="#191970" stroke="#191970" points="321.3771,-19.1727 310.7904,-19.589 319.326,-25.8655 321.3771,-19.1727"/>
</g>
</g>
</svg>
