<?xml version="1.0" encoding="UTF-8" standalone="no"?>
<!DOCTYPE svg PUBLIC "-//W3C//DTD SVG 1.1//EN"
 "http://www.w3.org/Graphics/SVG/1.1/DTD/svg11.dtd">
<!-- Generated by graphviz version 2.40.1 (20161225.0304)
 -->
<!-- Title: ntt_fft Pages: 1 -->
<svg width="331pt" height="142pt"
 viewBox="0.00 0.00 331.00 142.00" xmlns="http://www.w3.org/2000/svg" xmlns:xlink="http://www.w3.org/1999/xlink">
<g id="graph0" class="graph" transform="scale(1 1) rotate(0) translate(4 138)">
<title>ntt_fft</title>
<!-- Node12587 -->
<g id="node1" class="node">
<title>Node12587</title>
<polygon fill="#bfbfbf" stroke="#000000" points="0,-57.5 0,-76.5 46,-76.5 46,-57.5 0,-57.5"/>
<text text-anchor="middle" x="23" y="-64.5" font-family="Helvetica,sans-Serif" font-size="10.00" fill="#000000">ntt_fft</text>
</g>
<!-- Node12588 -->
<g id="node2" class="node">
<title>Node12588</title>
<g id="a_node2"><a xlink:href="libbf_8c.html#a2e6bcb5fb69893fe5938e244113d8b66" target="_top" xlink:title="add_mod">
<polygon fill="none" stroke="#000000" points="97,-114.5 97,-133.5 159,-133.5 159,-114.5 97,-114.5"/>
<text text-anchor="middle" x="128" y="-121.5" font-family="Helvetica,sans-Serif" font-size="10.00" fill="#000000">add_mod</text>
</a>
</g>
</g>
<!-- Node12587&#45;&gt;Node12588 -->
<g id="edge1" class="edge">
<title>Node12587&#45;&gt;Node12588</title>
<path fill="none" stroke="#191970" d="M36.6402,-76.7929C48.3334,-84.9388 65.8061,-96.5292 82,-105 85.5171,-106.8398 89.2532,-108.6311 93.0164,-110.332"/>
<polygon fill="#191970" stroke="#191970" points="91.7493,-113.5972 102.3173,-114.3504 94.5256,-107.1713 91.7493,-113.5972"/>
</g>
<!-- Node12589 -->
<g id="node3" class="node">
<title>Node12589</title>
<g id="a_node3"><a xlink:href="libbf_8c.html#afde36532eb783f62cd2b5e1e239465db" target="_top" xlink:title="get_trig">
<polygon fill="none" stroke="#000000" points="101,-76.5 101,-95.5 155,-95.5 155,-76.5 101,-76.5"/>
<text text-anchor="middle" x="128" y="-83.5" font-family="Helvetica,sans-Serif" font-size="10.00" fill="#000000">get_trig</text>
</a>
</g>
</g>
<!-- Node12587&#45;&gt;Node12589 -->
<g id="edge2" class="edge">
<title>Node12587&#45;&gt;Node12589</title>
<path fill="none" stroke="#191970" d="M46.0427,-71.1696C59.1879,-73.5483 75.9759,-76.5861 90.9306,-79.2922"/>
<polygon fill="#191970" stroke="#191970" points="90.4602,-82.7638 100.9236,-81.1005 91.7067,-75.8757 90.4602,-82.7638"/>
</g>
<!-- Node12593 -->
<g id="node7" class="node">
<title>Node12593</title>
<g id="a_node7"><a xlink:href="libbf_8c.html#a9967e157901e99d4ef4c92f7e0cbd9ae" target="_top" xlink:title="mul_mod_fast3">
<polygon fill="none" stroke="#000000" points="82,-38.5 82,-57.5 174,-57.5 174,-38.5 82,-38.5"/>
<text text-anchor="middle" x="128" y="-45.5" font-family="Helvetica,sans-Serif" font-size="10.00" fill="#000000">mul_mod_fast3</text>
</a>
</g>
</g>
<!-- Node12587&#45;&gt;Node12593 -->
<g id="edge6" class="edge">
<title>Node12587&#45;&gt;Node12593</title>
<path fill="none" stroke="#191970" d="M46.0427,-62.8304C53.7566,-61.4345 62.725,-59.8117 71.8412,-58.1621"/>
<polygon fill="#191970" stroke="#191970" points="72.522,-61.5958 81.7389,-56.371 71.2755,-54.7077 72.522,-61.5958"/>
</g>
<!-- Node12594 -->
<g id="node8" class="node">
<title>Node12594</title>
<g id="a_node8"><a xlink:href="libbf_8c.html#ac16b7fef4d18d4551fc8ca02d5d3b42d" target="_top" xlink:title="sub_mod">
<polygon fill="none" stroke="#000000" points="97.5,-.5 97.5,-19.5 158.5,-19.5 158.5,-.5 97.5,-.5"/>
<text text-anchor="middle" x="128" y="-7.5" font-family="Helvetica,sans-Serif" font-size="10.00" fill="#000000">sub_mod</text>
</a>
</g>
</g>
<!-- Node12587&#45;&gt;Node12594 -->
<g id="edge7" class="edge">
<title>Node12587&#45;&gt;Node12594</title>
<path fill="none" stroke="#191970" d="M36.6402,-57.2071C48.3334,-49.0612 65.8061,-37.4708 82,-29 85.5171,-27.1602 89.2532,-25.3689 93.0164,-23.668"/>
<polygon fill="#191970" stroke="#191970" points="94.5256,-26.8287 102.3173,-19.6496 91.7493,-20.4028 94.5256,-26.8287"/>
</g>
<!-- Node12590 -->
<g id="node4" class="node">
<title>Node12590</title>
<g id="a_node4"><a xlink:href="libbf_8c.html#a363aaee4b8a887e8b802c4ab5285c53f" target="_top" xlink:title="init_mul_mod_fast2">
<polygon fill="none" stroke="#000000" points="210,-114.5 210,-133.5 323,-133.5 323,-114.5 210,-114.5"/>
<text text-anchor="middle" x="266.5" y="-121.5" font-family="Helvetica,sans-Serif" font-size="10.00" fill="#000000">init_mul_mod_fast2</text>
</a>
</g>
</g>
<!-- Node12589&#45;&gt;Node12590 -->
<g id="edge3" class="edge">
<title>Node12589&#45;&gt;Node12590</title>
<path fill="none" stroke="#191970" d="M155.033,-93.417C174.0113,-98.624 199.8303,-105.708 221.8405,-111.7469"/>
<polygon fill="#191970" stroke="#191970" points="221.0773,-115.1667 231.647,-114.4374 222.9295,-108.4162 221.0773,-115.1667"/>
</g>
<!-- Node12591 -->
<g id="node5" class="node">
<title>Node12591</title>
<g id="a_node5"><a xlink:href="libbf_8c.html#a6c30084a16801134189895607bf3f0b2" target="_top" xlink:title="int_to_ntt_limb">
<polygon fill="none" stroke="#000000" points="221.5,-76.5 221.5,-95.5 311.5,-95.5 311.5,-76.5 221.5,-76.5"/>
<text text-anchor="middle" x="266.5" y="-83.5" font-family="Helvetica,sans-Serif" font-size="10.00" fill="#000000">int_to_ntt_limb</text>
</a>
</g>
</g>
<!-- Node12589&#45;&gt;Node12591 -->
<g id="edge4" class="edge">
<title>Node12589&#45;&gt;Node12591</title>
<path fill="none" stroke="#191970" d="M155.033,-86C170.9814,-86 191.7606,-86 211.0508,-86"/>
<polygon fill="#191970" stroke="#191970" points="211.2705,-89.5001 221.2705,-86 211.2704,-82.5001 211.2705,-89.5001"/>
</g>
<!-- Node12592 -->
<g id="node6" class="node">
<title>Node12592</title>
<g id="a_node6"><a xlink:href="libbf_8c.html#ae0144c1b3a669be1c22c067f93896b33" target="_top" xlink:title="mul_mod_fast2">
<polygon fill="none" stroke="#000000" points="220.5,-38.5 220.5,-57.5 312.5,-57.5 312.5,-38.5 220.5,-38.5"/>
<text text-anchor="middle" x="266.5" y="-45.5" font-family="Helvetica,sans-Serif" font-size="10.00" fill="#000000">mul_mod_fast2</text>
</a>
</g>
</g>
<!-- Node12589&#45;&gt;Node12592 -->
<g id="edge5" class="edge">
<title>Node12589&#45;&gt;Node12592</title>
<path fill="none" stroke="#191970" d="M155.033,-78.583C174.0113,-73.376 199.8303,-66.292 221.8405,-60.2531"/>
<polygon fill="#191970" stroke="#191970" points="222.9295,-63.5838 231.647,-57.5626 221.0773,-56.8333 222.9295,-63.5838"/>
</g>
</g>
</svg>
