<?xml version="1.0" encoding="UTF-8" standalone="no"?>
<!DOCTYPE svg PUBLIC "-//W3C//DTD SVG 1.1//EN"
 "http://www.w3.org/Graphics/SVG/1.1/DTD/svg11.dtd">
<!-- Generated by graphviz version 2.40.1 (20161225.0304)
 -->
<!-- Title: mp_divnorm Pages: 1 -->
<svg width="746pt" height="524pt"
 viewBox="0.00 0.00 746.00 523.50" xmlns="http://www.w3.org/2000/svg" xmlns:xlink="http://www.w3.org/1999/xlink">
<g id="graph0" class="graph" transform="scale(1 1) rotate(0) translate(4 519.5039)">
<title>mp_divnorm</title>
<!-- Node3453 -->
<g id="node1" class="node">
<title>Node3453</title>
<polygon fill="#bfbfbf" stroke="#000000" points="0,-77.0039 0,-96.0039 78,-96.0039 78,-77.0039 0,-77.0039"/>
<text text-anchor="middle" x="39" y="-84.0039" font-family="Helvetica,sans-Serif" font-size="10.00" fill="#000000">mp_divnorm</text>
</g>
<!-- Node3454 -->
<g id="node2" class="node">
<title>Node3454</title>
<g id="a_node2"><a xlink:href="libbf_8c.html#ad7a540de8355f07757e52b48d35dd708" target="_top" xlink:title="__bf_div">
<polygon fill="none" stroke="#000000" points="133.5,-209.0039 133.5,-228.0039 190.5,-228.0039 190.5,-209.0039 133.5,-209.0039"/>
<text text-anchor="middle" x="162" y="-216.0039" font-family="Helvetica,sans-Serif" font-size="10.00" fill="#000000">__bf_div</text>
</a>
</g>
</g>
<!-- Node3453&#45;&gt;Node3454 -->
<g id="edge1" class="edge">
<title>Node3453&#45;&gt;Node3454</title>
<path fill="none" stroke="#191970" d="M55.2443,-103.9368C81.4881,-132.1009 132.3535,-186.6882 152.982,-208.8261"/>
<polygon fill="#191970" stroke="#191970" points="57.6229,-101.3554 48.245,-96.4254 52.5016,-106.1275 57.6229,-101.3554"/>
</g>
<!-- Node3499 -->
<g id="node17" class="node">
<title>Node3499</title>
<g id="a_node17"><a xlink:href="libbf_8h.html#a01be6db77710375febf385d07ad4f1fe" target="_top" xlink:title="mp_recip">
<polygon fill="none" stroke="#000000" points="131,-49.0039 131,-68.0039 193,-68.0039 193,-49.0039 131,-49.0039"/>
<text text-anchor="middle" x="162" y="-56.0039" font-family="Helvetica,sans-Serif" font-size="10.00" fill="#000000">mp_recip</text>
</a>
</g>
</g>
<!-- Node3453&#45;&gt;Node3499 -->
<g id="edge19" class="edge">
<title>Node3453&#45;&gt;Node3499</title>
<path fill="none" stroke="#191970" d="M88.062,-75.3353C102.5064,-72.0472 117.906,-68.5416 130.8911,-65.5856"/>
<polygon fill="#191970" stroke="#191970" points="87.2298,-71.9351 78.2561,-77.5675 88.7836,-78.7605 87.2298,-71.9351"/>
</g>
<!-- Node3501 -->
<g id="node19" class="node">
<title>Node3501</title>
<g id="a_node19"><a xlink:href="libbf_8c.html#ad6e0bb87edc2953629f7fc6f16e3e7d7" target="_top" xlink:title="mp_sqrtrem_rec">
<polygon fill="none" stroke="#000000" points="114,-105.0039 114,-124.0039 210,-124.0039 210,-105.0039 114,-105.0039"/>
<text text-anchor="middle" x="162" y="-112.0039" font-family="Helvetica,sans-Serif" font-size="10.00" fill="#000000">mp_sqrtrem_rec</text>
</a>
</g>
</g>
<!-- Node3453&#45;&gt;Node3501 -->
<g id="edge23" class="edge">
<title>Node3453&#45;&gt;Node3501</title>
<path fill="none" stroke="#191970" d="M88.2032,-97.7046C98.7851,-100.1135 109.8733,-102.6377 120.1446,-104.9758"/>
<polygon fill="#191970" stroke="#191970" points="88.7836,-94.2473 78.2561,-95.4403 87.2298,-101.0727 88.7836,-94.2473"/>
</g>
<!-- Node3455 -->
<g id="node3" class="node">
<title>Node3455</title>
<g id="a_node3"><a xlink:href="libbf_8h.html#a030665e68e114717678fb0d0453bb3c6" target="_top" xlink:title="bf_div">
<polygon fill="none" stroke="#000000" points="391.5,-231.0039 391.5,-250.0039 438.5,-250.0039 438.5,-231.0039 391.5,-231.0039"/>
<text text-anchor="middle" x="415" y="-238.0039" font-family="Helvetica,sans-Serif" font-size="10.00" fill="#000000">bf_div</text>
</a>
</g>
</g>
<!-- Node3454&#45;&gt;Node3455 -->
<g id="edge2" class="edge">
<title>Node3454&#45;&gt;Node3455</title>
<path fill="none" stroke="#191970" d="M200.5799,-221.8587C253.6893,-226.4769 347.7045,-234.6521 391.4238,-238.4538"/>
<polygon fill="#191970" stroke="#191970" points="200.7962,-218.3644 190.5305,-220.9848 200.1897,-225.338 200.7962,-218.3644"/>
</g>
<!-- Node3456 -->
<g id="node4" class="node">
<title>Node3456</title>
<g id="a_node4"><a xlink:href="libbf_8c.html#a4f1865c8160fb851cce8015c3edb4d4f" target="_top" xlink:title="bf_tdivremu">
<polygon fill="none" stroke="#ff0000" points="503.5,-420.0039 503.5,-439.0039 579.5,-439.0039 579.5,-420.0039 503.5,-420.0039"/>
<text text-anchor="middle" x="541.5" y="-427.0039" font-family="Helvetica,sans-Serif" font-size="10.00" fill="#000000">bf_tdivremu</text>
</a>
</g>
</g>
<!-- Node3455&#45;&gt;Node3456 -->
<g id="edge3" class="edge">
<title>Node3455&#45;&gt;Node3456</title>
<path fill="none" stroke="#191970" d="M416.3933,-260.2209C419.9598,-295.5176 432.4931,-369.6218 476,-410.5039 483.5069,-417.5579 493.4763,-422.0117 503.3674,-424.8181"/>
<polygon fill="#191970" stroke="#191970" points="419.8764,-259.8748 415.5225,-250.2159 412.9028,-260.4818 419.8764,-259.8748"/>
</g>
<!-- Node3467 -->
<g id="node5" class="node">
<title>Node3467</title>
<g id="a_node5"><a xlink:href="libbf_8h.html#a0b4d56fc6808de8feed2a234525df692" target="_top" xlink:title="bf_mul_pow_radix">
<polygon fill="none" stroke="#ff0000" points="488.5,-382.0039 488.5,-401.0039 594.5,-401.0039 594.5,-382.0039 488.5,-382.0039"/>
<text text-anchor="middle" x="541.5" y="-389.0039" font-family="Helvetica,sans-Serif" font-size="10.00" fill="#000000">bf_mul_pow_radix</text>
</a>
</g>
</g>
<!-- Node3455&#45;&gt;Node3467 -->
<g id="edge4" class="edge">
<title>Node3455&#45;&gt;Node3467</title>
<path fill="none" stroke="#191970" d="M418.7199,-260.1952C425.2085,-289.0774 441.3554,-342.7187 476,-372.5039 480.4892,-376.3634 485.7234,-379.44 491.2403,-381.8925"/>
<polygon fill="#191970" stroke="#191970" points="422.0869,-259.1949 416.6258,-250.1159 415.2332,-260.6189 422.0869,-259.1949"/>
</g>
<!-- Node3475 -->
<g id="node6" class="node">
<title>Node3475</title>
<g id="a_node6"><a xlink:href="libbf_8c.html#aa94726eca10adb51bd141319fdfdb20c" target="_top" xlink:title="bf_integer_to_radix_rec">
<polygon fill="none" stroke="#ff0000" points="476,-326.0039 476,-345.0039 607,-345.0039 607,-326.0039 476,-326.0039"/>
<text text-anchor="middle" x="541.5" y="-333.0039" font-family="Helvetica,sans-Serif" font-size="10.00" fill="#000000">bf_integer_to_radix_rec</text>
</a>
</g>
</g>
<!-- Node3455&#45;&gt;Node3475 -->
<g id="edge5" class="edge">
<title>Node3455&#45;&gt;Node3475</title>
<path fill="none" stroke="#191970" d="M425.073,-258.6611C435.5966,-275.9929 453.6756,-301.6085 476,-316.5039 481.811,-320.3812 488.4226,-323.4805 495.1571,-325.9544"/>
<polygon fill="#191970" stroke="#191970" points="428.0862,-256.8803 420.0249,-250.0053 422.0394,-260.4069 428.0862,-256.8803"/>
</g>
<!-- Node3478 -->
<g id="node7" class="node">
<title>Node3478</title>
<g id="a_node7"><a xlink:href="libbf_8c.html#a13930fbd670b65bf9f8c07a0fbcfc63b" target="_top" xlink:title="bf_convert_to_radix">
<polygon fill="none" stroke="#000000" points="485,-288.0039 485,-307.0039 598,-307.0039 598,-288.0039 485,-288.0039"/>
<text text-anchor="middle" x="541.5" y="-295.0039" font-family="Helvetica,sans-Serif" font-size="10.00" fill="#000000">bf_convert_to_radix</text>
</a>
</g>
</g>
<!-- Node3455&#45;&gt;Node3478 -->
<g id="edge7" class="edge">
<title>Node3455&#45;&gt;Node3478</title>
<path fill="none" stroke="#191970" d="M436.3527,-255.8312C447.709,-263.4505 462.1544,-272.3254 476,-278.5039 484.2175,-282.1709 493.3288,-285.3352 502.0788,-287.9721"/>
<polygon fill="#191970" stroke="#191970" points="438.1994,-252.8533 427.978,-250.0653 434.2298,-258.619 438.1994,-252.8533"/>
</g>
<!-- Node3479 -->
<g id="node8" class="node">
<title>Node3479</title>
<g id="a_node8"><a xlink:href="libbf_8c.html#ae2d577a0090338aba89d1bfa786d6a7a" target="_top" xlink:title="bf_const_log2_internal">
<polygon fill="none" stroke="#ff0000" points="478,-250.0039 478,-269.0039 605,-269.0039 605,-250.0039 478,-250.0039"/>
<text text-anchor="middle" x="541.5" y="-257.0039" font-family="Helvetica,sans-Serif" font-size="10.00" fill="#000000">bf_const_log2_internal</text>
</a>
</g>
</g>
<!-- Node3455&#45;&gt;Node3479 -->
<g id="edge8" class="edge">
<title>Node3455&#45;&gt;Node3479</title>
<path fill="none" stroke="#191970" d="M448.8697,-245.591C457.9078,-246.9485 467.9749,-248.4606 478.0488,-249.9737"/>
<polygon fill="#191970" stroke="#191970" points="449.2026,-242.1019 438.7937,-244.0777 448.1629,-249.0242 449.2026,-242.1019"/>
</g>
<!-- Node3488 -->
<g id="node9" class="node">
<title>Node3488</title>
<g id="a_node9"><a xlink:href="libbf_8c.html#a11d2dea6becda91c288fd883eefc8e5c" target="_top" xlink:title="bf_const_pi_internal">
<polygon fill="none" stroke="#ff0000" points="484,-98.0039 484,-117.0039 599,-117.0039 599,-98.0039 484,-98.0039"/>
<text text-anchor="middle" x="541.5" y="-105.0039" font-family="Helvetica,sans-Serif" font-size="10.00" fill="#000000">bf_const_pi_internal</text>
</a>
</g>
</g>
<!-- Node3455&#45;&gt;Node3488 -->
<g id="edge9" class="edge">
<title>Node3455&#45;&gt;Node3488</title>
<path fill="none" stroke="#191970" d="M421.0237,-221.3804C429.5577,-197.229 447.3922,-155.8901 476,-131.5039 483.3733,-125.2186 492.5348,-120.5179 501.6468,-117.0252"/>
<polygon fill="#191970" stroke="#191970" points="417.7051,-220.2686 417.8413,-230.8626 424.3413,-222.4959 417.7051,-220.2686"/>
</g>
<!-- Node3481 -->
<g id="node10" class="node">
<title>Node3481</title>
<g id="a_node10"><a xlink:href="libbf_8c.html#a157194b3c7faaa17e39ae78cd98c4385" target="_top" xlink:title="bf_exp_internal">
<polygon fill="none" stroke="#ff0000" points="495.5,-212.0039 495.5,-231.0039 587.5,-231.0039 587.5,-212.0039 495.5,-212.0039"/>
<text text-anchor="middle" x="541.5" y="-219.0039" font-family="Helvetica,sans-Serif" font-size="10.00" fill="#000000">bf_exp_internal</text>
</a>
</g>
</g>
<!-- Node3455&#45;&gt;Node3481 -->
<g id="edge10" class="edge">
<title>Node3455&#45;&gt;Node3481</title>
<path fill="none" stroke="#191970" d="M449.0952,-235.3829C463.2909,-233.2507 479.9949,-230.7418 495.2684,-228.4478"/>
<polygon fill="#191970" stroke="#191970" points="448.1629,-231.9836 438.7937,-236.9301 449.2026,-238.9059 448.1629,-231.9836"/>
</g>
<!-- Node3486 -->
<g id="node11" class="node">
<title>Node3486</title>
<g id="a_node11"><a xlink:href="libbf_8c.html#aab7bc918fdd8dbef25c31c6881c73fdd" target="_top" xlink:title="bf_log_internal">
<polygon fill="none" stroke="#ff0000" points="497,-60.0039 497,-79.0039 586,-79.0039 586,-60.0039 497,-60.0039"/>
<text text-anchor="middle" x="541.5" y="-67.0039" font-family="Helvetica,sans-Serif" font-size="10.00" fill="#000000">bf_log_internal</text>
</a>
</g>
</g>
<!-- Node3455&#45;&gt;Node3486 -->
<g id="edge11" class="edge">
<title>Node3455&#45;&gt;Node3486</title>
<path fill="none" stroke="#191970" d="M417.3888,-220.6192C422.347,-188.1983 436.7789,-124.0112 476,-88.5039 481.881,-83.1798 489.1702,-79.3411 496.7276,-76.5749"/>
<polygon fill="#191970" stroke="#191970" points="413.9028,-220.2789 416.0051,-230.663 420.8372,-221.2343 413.9028,-220.2789"/>
</g>
<!-- Node3498 -->
<g id="node12" class="node">
<title>Node3498</title>
<g id="a_node12"><a xlink:href="libbf_8c.html#afb959ebe491ad24167b5eff3b811f211" target="_top" xlink:title="bf_pow_int">
<polygon fill="none" stroke="#ff0000" points="506.5,-174.0039 506.5,-193.0039 576.5,-193.0039 576.5,-174.0039 506.5,-174.0039"/>
<text text-anchor="middle" x="541.5" y="-181.0039" font-family="Helvetica,sans-Serif" font-size="10.00" fill="#000000">bf_pow_int</text>
</a>
</g>
</g>
<!-- Node3455&#45;&gt;Node3498 -->
<g id="edge12" class="edge">
<title>Node3455&#45;&gt;Node3498</title>
<path fill="none" stroke="#191970" d="M436.3527,-225.1766C447.709,-217.5573 462.1544,-208.6824 476,-202.5039 485.5151,-198.2579 496.2283,-194.6859 506.1915,-191.8262"/>
<polygon fill="#191970" stroke="#191970" points="434.2298,-222.3888 427.978,-230.9425 438.1994,-228.1545 434.2298,-222.3888"/>
</g>
<!-- Node3460 -->
<g id="node13" class="node">
<title>Node3460</title>
<g id="a_node13"><a xlink:href="libbf_8c.html#a2b19e3958f6cf3fa0cc534681a5ff259" target="_top" xlink:title="bf_sincos">
<polygon fill="none" stroke="#ff0000" points="510.5,-496.0039 510.5,-515.0039 572.5,-515.0039 572.5,-496.0039 510.5,-496.0039"/>
<text text-anchor="middle" x="541.5" y="-503.0039" font-family="Helvetica,sans-Serif" font-size="10.00" fill="#000000">bf_sincos</text>
</a>
</g>
</g>
<!-- Node3455&#45;&gt;Node3460 -->
<g id="edge13" class="edge">
<title>Node3455&#45;&gt;Node3460</title>
<path fill="none" stroke="#191970" d="M417.6243,-260.4207C424.7916,-312.0386 446.1745,-448.426 476,-481.5039 484.84,-491.3078 498.0266,-497.114 510.2559,-500.5495"/>
<polygon fill="#191970" stroke="#191970" points="421.0565,-259.6841 416.2445,-250.2451 414.12,-260.6247 421.0565,-259.6841"/>
</g>
<!-- Node3465 -->
<g id="node14" class="node">
<title>Node3465</title>
<g id="a_node14"><a xlink:href="libbf_8c.html#a524a1cfe269d6d10ba833368695f8699" target="_top" xlink:title="bf_tan_internal">
<polygon fill="none" stroke="#ff0000" points="645.5,-477.0039 645.5,-496.0039 735.5,-496.0039 735.5,-477.0039 645.5,-477.0039"/>
<text text-anchor="middle" x="690.5" y="-484.0039" font-family="Helvetica,sans-Serif" font-size="10.00" fill="#000000">bf_tan_internal</text>
</a>
</g>
</g>
<!-- Node3455&#45;&gt;Node3465 -->
<g id="edge15" class="edge">
<title>Node3455&#45;&gt;Node3465</title>
<path fill="none" stroke="#191970" d="M418.0749,-260.1138C425.8106,-306.8849 447.514,-422.9892 476,-448.5039 500.3681,-470.3303 589.7591,-480.0108 645.1621,-483.9937"/>
<polygon fill="#191970" stroke="#191970" points="421.4991,-259.3629 416.4503,-250.0484 414.5885,-260.4783 421.4991,-259.3629"/>
</g>
<!-- Node3491 -->
<g id="node15" class="node">
<title>Node3491</title>
<g id="a_node15"><a xlink:href="libbf_8c.html#aa4b535a5b33344704c576607ab4f0463" target="_top" xlink:title="bf_atan_internal">
<polygon fill="none" stroke="#ff0000" points="493.5,-22.0039 493.5,-41.0039 589.5,-41.0039 589.5,-22.0039 493.5,-22.0039"/>
<text text-anchor="middle" x="541.5" y="-29.0039" font-family="Helvetica,sans-Serif" font-size="10.00" fill="#000000">bf_atan_internal</text>
</a>
</g>
</g>
<!-- Node3455&#45;&gt;Node3491 -->
<g id="edge16" class="edge">
<title>Node3455&#45;&gt;Node3491</title>
<path fill="none" stroke="#191970" d="M418.8408,-221.0268C427.774,-177.5919 451.0907,-74.7173 476,-50.5039 480.9243,-45.7172 486.9794,-42.1242 493.4001,-39.4297"/>
<polygon fill="#191970" stroke="#191970" points="415.3902,-220.4327 416.8433,-230.9274 422.2519,-221.8171 415.3902,-220.4327"/>
</g>
<!-- Node3495 -->
<g id="node16" class="node">
<title>Node3495</title>
<g id="a_node16"><a xlink:href="libbf_8c.html#a4a0919b7e170befaf75d114d48d350cc" target="_top" xlink:title="bf_asin_internal">
<polygon fill="none" stroke="#ff0000" points="643,-22.0039 643,-41.0039 738,-41.0039 738,-22.0039 643,-22.0039"/>
<text text-anchor="middle" x="690.5" y="-29.0039" font-family="Helvetica,sans-Serif" font-size="10.00" fill="#000000">bf_asin_internal</text>
</a>
</g>
</g>
<!-- Node3455&#45;&gt;Node3495 -->
<g id="edge18" class="edge">
<title>Node3455&#45;&gt;Node3495</title>
<path fill="none" stroke="#191970" d="M425.073,-222.3467C435.5966,-205.0149 453.6756,-179.3993 476,-164.5039 526.4278,-130.8572 555.8326,-159.0148 607,-126.5039 643.1406,-103.5407 672.6713,-60.4401 684.6925,-41.2037"/>
<polygon fill="#191970" stroke="#191970" points="422.0394,-220.6009 420.0249,-231.0025 428.0862,-224.1275 422.0394,-220.6009"/>
</g>
<!-- Node3475&#45;&gt;Node3475 -->
<g id="edge6" class="edge">
<title>Node3475&#45;&gt;Node3475</title>
<path fill="none" stroke="#191970" d="M518.0626,-354.5331C519.341,-359.6319 527.1535,-363.5039 541.5,-363.5039 563.8945,-363.5039 570.368,-354.0692 560.9203,-345.261"/>
<polygon fill="#191970" stroke="#191970" points="521.3158,-355.8282 522.0797,-345.261 514.8927,-353.0454 521.3158,-355.8282"/>
</g>
<!-- Node3460&#45;&gt;Node3465 -->
<g id="edge14" class="edge">
<title>Node3460&#45;&gt;Node3465</title>
<path fill="none" stroke="#191970" d="M582.8193,-500.235C602.2815,-497.7532 625.5404,-494.7873 645.4532,-492.2481"/>
<polygon fill="#191970" stroke="#191970" points="582.2122,-496.784 572.7353,-501.5209 583.0977,-503.7278 582.2122,-496.784"/>
</g>
<!-- Node3491&#45;&gt;Node3495 -->
<g id="edge17" class="edge">
<title>Node3491&#45;&gt;Node3495</title>
<path fill="none" stroke="#191970" d="M600.0403,-31.5039C614.2392,-31.5039 629.2498,-31.5039 642.8753,-31.5039"/>
<polygon fill="#191970" stroke="#191970" points="599.8761,-28.004 589.876,-31.5039 599.876,-35.004 599.8761,-28.004"/>
</g>
<!-- Node3499&#45;&gt;Node3499 -->
<g id="edge20" class="edge">
<title>Node3499&#45;&gt;Node3499</title>
<path fill="none" stroke="#191970" d="M139.3066,-77.5331C140.5445,-82.6319 148.1089,-86.5039 162,-86.5039 183.6836,-86.5039 189.9515,-77.0692 180.8037,-68.261"/>
<polygon fill="#191970" stroke="#191970" points="142.5553,-78.8364 143.1963,-68.261 136.1003,-76.1285 142.5553,-78.8364"/>
</g>
<!-- Node3500 -->
<g id="node18" class="node">
<title>Node3500</title>
<g id="a_node18"><a xlink:href="libbf_8c.html#ae8bc748c521cf9e366c02ba403b2d8c0" target="_top" xlink:title="mp_divnorm_large">
<polygon fill="none" stroke="#000000" points="246,-30.0039 246,-49.0039 354,-49.0039 354,-30.0039 246,-30.0039"/>
<text text-anchor="middle" x="300" y="-37.0039" font-family="Helvetica,sans-Serif" font-size="10.00" fill="#000000">mp_divnorm_large</text>
</a>
</g>
</g>
<!-- Node3499&#45;&gt;Node3500 -->
<g id="edge21" class="edge">
<title>Node3499&#45;&gt;Node3500</title>
<path fill="none" stroke="#191970" d="M203.569,-52.7806C216.8475,-50.9524 231.7449,-48.9013 245.7852,-46.9683"/>
<polygon fill="#191970" stroke="#191970" points="202.7435,-49.3612 193.3143,-54.1925 203.6983,-56.2958 202.7435,-49.3612"/>
</g>
<!-- Node3500&#45;&gt;Node3453 -->
<g id="edge22" class="edge">
<title>Node3500&#45;&gt;Node3453</title>
<path fill="none" stroke="#191970" d="M235.9818,-30.8771C199.5383,-28.0859 153.4314,-28.1696 114,-39.5039 88.5985,-46.8054 63.4741,-65.5121 49.721,-77.0022"/>
<polygon fill="#191970" stroke="#191970" points="235.7288,-34.3682 245.9908,-31.7337 236.3257,-27.3937 235.7288,-34.3682"/>
</g>
<!-- Node3501&#45;&gt;Node3501 -->
<g id="edge24" class="edge">
<title>Node3501&#45;&gt;Node3501</title>
<path fill="none" stroke="#191970" d="M139.3066,-133.5331C140.5445,-138.6319 148.1089,-142.5039 162,-142.5039 183.6836,-142.5039 189.9515,-133.0692 180.8037,-124.261"/>
<polygon fill="#191970" stroke="#191970" points="142.5553,-134.8364 143.1963,-124.261 136.1003,-132.1285 142.5553,-134.8364"/>
</g>
<!-- Node3502 -->
<g id="node20" class="node">
<title>Node3502</title>
<g id="a_node20"><a xlink:href="libbf_8h.html#aa3d8931becde9bdbea0aab310312acd3" target="_top" xlink:title="mp_sqrtrem">
<polygon fill="none" stroke="#000000" points="262,-87.0039 262,-106.0039 338,-106.0039 338,-87.0039 262,-87.0039"/>
<text text-anchor="middle" x="300" y="-94.0039" font-family="Helvetica,sans-Serif" font-size="10.00" fill="#000000">mp_sqrtrem</text>
</a>
</g>
</g>
<!-- Node3501&#45;&gt;Node3502 -->
<g id="edge25" class="edge">
<title>Node3501&#45;&gt;Node3502</title>
<path fill="none" stroke="#191970" d="M220.3698,-106.8905C234.4401,-105.0552 249.1147,-103.1411 261.977,-101.4634"/>
<polygon fill="#191970" stroke="#191970" points="219.729,-103.4443 210.2657,-108.2084 220.6344,-110.3855 219.729,-103.4443"/>
</g>
<!-- Node3503 -->
<g id="node21" class="node">
<title>Node3503</title>
<g id="a_node21"><a xlink:href="libbf_8h.html#a1a8b9ac1fea38b97fc6be8663ce9e867" target="_top" xlink:title="bf_sqrt">
<polygon fill="none" stroke="#ff0000" points="390,-60.0039 390,-79.0039 440,-79.0039 440,-60.0039 390,-60.0039"/>
<text text-anchor="middle" x="415" y="-67.0039" font-family="Helvetica,sans-Serif" font-size="10.00" fill="#000000">bf_sqrt</text>
</a>
</g>
</g>
<!-- Node3502&#45;&gt;Node3503 -->
<g id="edge26" class="edge">
<title>Node3502&#45;&gt;Node3503</title>
<path fill="none" stroke="#191970" d="M348.0699,-85.2179C362.4443,-81.8431 377.6269,-78.2784 389.8916,-75.3989"/>
<polygon fill="#191970" stroke="#191970" points="347.2286,-81.8202 338.2933,-87.5133 348.8286,-88.6349 347.2286,-81.8202"/>
</g>
<!-- Node3503&#45;&gt;Node3488 -->
<g id="edge27" class="edge">
<title>Node3503&#45;&gt;Node3488</title>
<path fill="none" stroke="#191970" d="M449.8728,-80.4952C458.4086,-83.1498 467.5255,-85.9553 476,-88.5039 486.4315,-91.6411 497.8247,-94.9773 508.1412,-97.9643"/>
<polygon fill="#191970" stroke="#191970" points="450.7813,-77.1123 440.1926,-77.4726 448.6949,-83.7941 450.7813,-77.1123"/>
</g>
<!-- Node3503&#45;&gt;Node3486 -->
<g id="edge28" class="edge">
<title>Node3503&#45;&gt;Node3486</title>
<path fill="none" stroke="#191970" d="M450.3008,-69.5039C464.7084,-69.5039 481.5378,-69.5039 496.7896,-69.5039"/>
<polygon fill="#191970" stroke="#191970" points="450.2952,-66.004 440.2951,-69.5039 450.2951,-73.004 450.2952,-66.004"/>
</g>
<!-- Node3503&#45;&gt;Node3491 -->
<g id="edge29" class="edge">
<title>Node3503&#45;&gt;Node3491</title>
<path fill="none" stroke="#191970" d="M449.8728,-58.5126C458.4086,-55.858 467.5255,-53.0526 476,-50.5039 486.4315,-47.3667 497.8247,-44.0305 508.1412,-41.0435"/>
<polygon fill="#191970" stroke="#191970" points="448.6949,-55.2137 440.1926,-61.5352 450.7813,-61.8955 448.6949,-55.2137"/>
</g>
<!-- Node3503&#45;&gt;Node3495 -->
<g id="edge30" class="edge">
<title>Node3503&#45;&gt;Node3495</title>
<path fill="none" stroke="#191970" d="M427.8321,-51.7374C438.8555,-38.1143 456.0916,-20.3578 476,-12.5039 540.1636,12.8087 623.2555,-8.2333 664.6649,-21.9618"/>
<polygon fill="#191970" stroke="#191970" points="424.8405,-49.8862 421.5196,-59.9471 430.3897,-54.153 424.8405,-49.8862"/>
</g>
</g>
</svg>
