<?xml version="1.0" encoding="UTF-8" standalone="no"?>
<!DOCTYPE svg PUBLIC "-//W3C//DTD SVG 1.1//EN"
 "http://www.w3.org/Graphics/SVG/1.1/DTD/svg11.dtd">
<!-- Generated by graphviz version 2.40.1 (20161225.0304)
 -->
<!-- Title: bf_add_internal Pages: 1 -->
<svg width="630pt" height="675pt"
 viewBox="0.00 0.00 630.00 675.19" xmlns="http://www.w3.org/2000/svg" xmlns:xlink="http://www.w3.org/1999/xlink">
<g id="graph0" class="graph" transform="scale(1 1) rotate(0) translate(4 671.1925)">
<title>bf_add_internal</title>
<!-- Node2271 -->
<g id="node1" class="node">
<title>Node2271</title>
<polygon fill="#bfbfbf" stroke="#000000" points="0,-165.6925 0,-184.6925 92,-184.6925 92,-165.6925 0,-165.6925"/>
<text text-anchor="middle" x="46" y="-172.6925" font-family="Helvetica,sans-Serif" font-size="10.00" fill="#000000">bf_add_internal</text>
</g>
<!-- Node2272 -->
<g id="node2" class="node">
<title>Node2272</title>
<g id="a_node2"><a xlink:href="libbf_8c.html#a951a1d3ebb338129d86e00f51b47f2ee" target="_top" xlink:title="__bf_add">
<polygon fill="none" stroke="#000000" points="128,-316.6925 128,-335.6925 188,-335.6925 188,-316.6925 128,-316.6925"/>
<text text-anchor="middle" x="158" y="-323.6925" font-family="Helvetica,sans-Serif" font-size="10.00" fill="#000000">__bf_add</text>
</a>
</g>
</g>
<!-- Node2271&#45;&gt;Node2272 -->
<g id="edge1" class="edge">
<title>Node2271&#45;&gt;Node2272</title>
<path fill="none" stroke="#191970" d="M59.3562,-193.1995C83.1962,-225.341 132.3062,-291.5517 150.7699,-316.4448"/>
<polygon fill="#191970" stroke="#191970" points="62.1172,-191.0468 53.3486,-185.1001 56.4949,-195.217 62.1172,-191.0468"/>
</g>
<!-- Node2326 -->
<g id="node19" class="node">
<title>Node2326</title>
<g id="a_node19"><a xlink:href="libbf_8c.html#aa3b3bc85aee9c531439d5fbc92986dfe" target="_top" xlink:title="__bf_sub">
<polygon fill="none" stroke="#000000" points="128.5,-146.6925 128.5,-165.6925 187.5,-165.6925 187.5,-146.6925 128.5,-146.6925"/>
<text text-anchor="middle" x="158" y="-153.6925" font-family="Helvetica,sans-Serif" font-size="10.00" fill="#000000">__bf_sub</text>
</a>
</g>
</g>
<!-- Node2271&#45;&gt;Node2326 -->
<g id="edge28" class="edge">
<title>Node2271&#45;&gt;Node2326</title>
<path fill="none" stroke="#191970" d="M102.2801,-165.645C111.2468,-164.1239 120.2039,-162.6044 128.2319,-161.2425"/>
<polygon fill="#191970" stroke="#191970" points="101.475,-162.2315 92.2013,-167.3548 102.6459,-169.1329 101.475,-162.2315"/>
</g>
<!-- Node2273 -->
<g id="node3" class="node">
<title>Node2273</title>
<g id="a_node3"><a xlink:href="libbf_8h.html#a17dc09166f82ffa408f54a2edc4d7855" target="_top" xlink:title="bf_add">
<polygon fill="none" stroke="#000000" points="224,-382.6925 224,-401.6925 274,-401.6925 274,-382.6925 224,-382.6925"/>
<text text-anchor="middle" x="249" y="-389.6925" font-family="Helvetica,sans-Serif" font-size="10.00" fill="#000000">bf_add</text>
</a>
</g>
</g>
<!-- Node2272&#45;&gt;Node2273 -->
<g id="edge2" class="edge">
<title>Node2272&#45;&gt;Node2273</title>
<path fill="none" stroke="#191970" d="M179.8826,-342.0634C197.3266,-354.7151 221.1783,-372.0141 235.8134,-382.6286"/>
<polygon fill="#191970" stroke="#191970" points="181.5773,-338.9689 171.4274,-335.931 177.4675,-344.6355 181.5773,-338.9689"/>
</g>
<!-- Node2274 -->
<g id="node4" class="node">
<title>Node2274</title>
<g id="a_node4"><a xlink:href="libbf_8h.html#ae080fd42a2c7fc561d7084762204357e" target="_top" xlink:title="bf_sqrtrem">
<polygon fill="none" stroke="#ff0000" points="347.5,-477.6925 347.5,-496.6925 417.5,-496.6925 417.5,-477.6925 347.5,-477.6925"/>
<text text-anchor="middle" x="382.5" y="-484.6925" font-family="Helvetica,sans-Serif" font-size="10.00" fill="#000000">bf_sqrtrem</text>
</a>
</g>
</g>
<!-- Node2273&#45;&gt;Node2274 -->
<g id="edge3" class="edge">
<title>Node2273&#45;&gt;Node2274</title>
<path fill="none" stroke="#191970" d="M258.9897,-410.4764C269.4506,-427.9034 287.4837,-453.5888 310,-468.1925 321.1351,-475.4146 334.9065,-479.8978 347.4456,-482.6783"/>
<polygon fill="#191970" stroke="#191970" points="261.9988,-408.688 253.9768,-401.7671 255.9319,-412.18 261.9988,-408.688"/>
</g>
<!-- Node2277 -->
<g id="node5" class="node">
<title>Node2277</title>
<g id="a_node5"><a xlink:href="libbf_8h.html#a50a5aa2767f2389a32daf115aaef07af" target="_top" xlink:title="bf_add_si">
<polygon fill="none" stroke="#ff0000" points="351,-287.6925 351,-306.6925 414,-306.6925 414,-287.6925 351,-287.6925"/>
<text text-anchor="middle" x="382.5" y="-294.6925" font-family="Helvetica,sans-Serif" font-size="10.00" fill="#000000">bf_add_si</text>
</a>
</g>
</g>
<!-- Node2273&#45;&gt;Node2277 -->
<g id="edge4" class="edge">
<title>Node2273&#45;&gt;Node2277</title>
<path fill="none" stroke="#191970" d="M260.473,-373.9364C271.4014,-357.9314 289.2346,-335.1065 310,-321.1925 322.2261,-313.0003 337.4801,-307.4002 350.8378,-303.6845"/>
<polygon fill="#191970" stroke="#191970" points="257.4418,-372.1758 254.8666,-382.4529 263.2886,-376.0248 257.4418,-372.1758"/>
</g>
<!-- Node2292 -->
<g id="node7" class="node">
<title>Node2292</title>
<g id="a_node7"><a xlink:href="libbf_8c.html#aa94726eca10adb51bd141319fdfdb20c" target="_top" xlink:title="bf_integer_to_radix_rec">
<polygon fill="none" stroke="#ff0000" points="491,-137.6925 491,-156.6925 622,-156.6925 622,-137.6925 491,-137.6925"/>
<text text-anchor="middle" x="556.5" y="-144.6925" font-family="Helvetica,sans-Serif" font-size="10.00" fill="#000000">bf_integer_to_radix_rec</text>
</a>
</g>
</g>
<!-- Node2273&#45;&gt;Node2292 -->
<g id="edge14" class="edge">
<title>Node2273&#45;&gt;Node2292</title>
<path fill="none" stroke="#191970" d="M251.432,-372.3844C258.0094,-322.3271 277.85,-192.8379 310,-166.1925 368.494,-117.7136 463.9393,-127.1891 517.2765,-137.654"/>
<polygon fill="#191970" stroke="#191970" points="247.9288,-372.1878 250.1368,-382.55 254.8727,-373.0726 247.9288,-372.1878"/>
</g>
<!-- Node2301 -->
<g id="node9" class="node">
<title>Node2301</title>
<g id="a_node9"><a xlink:href="libbf_8c.html#aab7bc918fdd8dbef25c31c6881c73fdd" target="_top" xlink:title="bf_log_internal">
<polygon fill="none" stroke="#ff0000" points="512,-353.6925 512,-372.6925 601,-372.6925 601,-353.6925 512,-353.6925"/>
<text text-anchor="middle" x="556.5" y="-360.6925" font-family="Helvetica,sans-Serif" font-size="10.00" fill="#000000">bf_log_internal</text>
</a>
</g>
</g>
<!-- Node2273&#45;&gt;Node2301 -->
<g id="edge22" class="edge">
<title>Node2273&#45;&gt;Node2301</title>
<path fill="none" stroke="#191970" d="M284.3432,-388.8593C340.5817,-383.5555 450.3551,-373.2029 511.9127,-367.3975"/>
<polygon fill="#191970" stroke="#191970" points="283.7912,-385.3958 274.164,-389.8193 284.4485,-392.3649 283.7912,-385.3958"/>
</g>
<!-- Node2281 -->
<g id="node10" class="node">
<title>Node2281</title>
<g id="a_node10"><a xlink:href="libbf_8c.html#a2b19e3958f6cf3fa0cc534681a5ff259" target="_top" xlink:title="bf_sincos">
<polygon fill="none" stroke="#ff0000" points="525.5,-401.6925 525.5,-420.6925 587.5,-420.6925 587.5,-401.6925 525.5,-401.6925"/>
<text text-anchor="middle" x="556.5" y="-408.6925" font-family="Helvetica,sans-Serif" font-size="10.00" fill="#000000">bf_sincos</text>
</a>
</g>
</g>
<!-- Node2273&#45;&gt;Node2281 -->
<g id="edge25" class="edge">
<title>Node2273&#45;&gt;Node2281</title>
<path fill="none" stroke="#191970" d="M284.3703,-394.378C344.9059,-398.1184 467.4135,-405.688 525.1065,-409.2528"/>
<polygon fill="#191970" stroke="#191970" points="284.3609,-390.8708 274.164,-393.7474 283.9291,-397.8575 284.3609,-390.8708"/>
</g>
<!-- Node2303 -->
<g id="node11" class="node">
<title>Node2303</title>
<g id="a_node11"><a xlink:href="libbf_8c.html#aa4b535a5b33344704c576607ab4f0463" target="_top" xlink:title="bf_atan_internal">
<polygon fill="none" stroke="#ff0000" points="508.5,-296.6925 508.5,-315.6925 604.5,-315.6925 604.5,-296.6925 508.5,-296.6925"/>
<text text-anchor="middle" x="556.5" y="-303.6925" font-family="Helvetica,sans-Serif" font-size="10.00" fill="#000000">bf_atan_internal</text>
</a>
</g>
</g>
<!-- Node2273&#45;&gt;Node2303 -->
<g id="edge26" class="edge">
<title>Node2273&#45;&gt;Node2303</title>
<path fill="none" stroke="#191970" d="M281.9499,-379.0099C290.9743,-375.6079 300.8046,-372.0914 310,-369.1925 380.3519,-347.0137 463.8152,-326.9615 513.3452,-315.6996"/>
<polygon fill="#191970" stroke="#191970" points="280.6232,-375.7701 272.542,-382.6218 283.1321,-382.305 280.6232,-375.7701"/>
</g>
<!-- Node2310 -->
<g id="node12" class="node">
<title>Node2310</title>
<g id="a_node12"><a xlink:href="libbf_8c.html#a5d5227218ea18d8ca58be002abc729bf" target="_top" xlink:title="bf_integer_from_radix_rec">
<polygon fill="none" stroke="#ff0000" points="310,-231.6925 310,-250.6925 455,-250.6925 455,-231.6925 310,-231.6925"/>
<text text-anchor="middle" x="382.5" y="-238.6925" font-family="Helvetica,sans-Serif" font-size="10.00" fill="#000000">bf_integer_from_radix_rec</text>
</a>
</g>
</g>
<!-- Node2273&#45;&gt;Node2310 -->
<g id="edge12" class="edge">
<title>Node2273&#45;&gt;Node2310</title>
<path fill="none" stroke="#191970" d="M255.2825,-372.7362C264.092,-348.0567 282.2196,-305.4383 310,-278.1925 322.5102,-265.9231 339.911,-256.8588 354.5296,-250.7732"/>
<polygon fill="#191970" stroke="#191970" points="251.8998,-371.8117 251.9826,-382.4062 258.5247,-374.0725 251.8998,-371.8117"/>
</g>
<!-- Node2316 -->
<g id="node13" class="node">
<title>Node2316</title>
<g id="a_node13"><a xlink:href="libbf_8c.html#a829c2ed2112548096d41c6ceb017e542" target="_top" xlink:title="bf_const_log2_rec">
<polygon fill="none" stroke="#ff0000" points="330.5,-175.6925 330.5,-194.6925 434.5,-194.6925 434.5,-175.6925 330.5,-175.6925"/>
<text text-anchor="middle" x="382.5" y="-182.6925" font-family="Helvetica,sans-Serif" font-size="10.00" fill="#000000">bf_const_log2_rec</text>
</a>
</g>
</g>
<!-- Node2273&#45;&gt;Node2316 -->
<g id="edge15" class="edge">
<title>Node2273&#45;&gt;Node2316</title>
<path fill="none" stroke="#191970" d="M251.328,-372.3169C256.3076,-337.8911 270.9143,-266.6031 310,-222.1925 321.1099,-209.5691 337.5568,-200.6865 351.9784,-194.7947"/>
<polygon fill="#191970" stroke="#191970" points="247.8245,-372.1146 249.9869,-382.4864 254.7644,-373.0299 247.8245,-372.1146"/>
</g>
<!-- Node2320 -->
<g id="node14" class="node">
<title>Node2320</title>
<g id="a_node14"><a xlink:href="libbf_8c.html#a81e50b3d7e7a931a93d6ea7e1d630631" target="_top" xlink:title="chud_bs">
<polygon fill="none" stroke="#000000" points="354.5,-629.6925 354.5,-648.6925 410.5,-648.6925 410.5,-629.6925 354.5,-629.6925"/>
<text text-anchor="middle" x="382.5" y="-636.6925" font-family="Helvetica,sans-Serif" font-size="10.00" fill="#000000">chud_bs</text>
</a>
</g>
</g>
<!-- Node2273&#45;&gt;Node2320 -->
<g id="edge17" class="edge">
<title>Node2273&#45;&gt;Node2320</title>
<path fill="none" stroke="#191970" d="M251.7011,-411.8475C258.9185,-461.5664 280.1541,-590.4989 310,-620.1925 321.6226,-631.7558 339.3672,-636.5392 354.3919,-638.4155"/>
<polygon fill="#191970" stroke="#191970" points="255.1395,-411.1658 250.2722,-401.7552 248.2087,-412.1471 255.1395,-411.1658"/>
</g>
<!-- Node2321 -->
<g id="node15" class="node">
<title>Node2321</title>
<g id="a_node15"><a xlink:href="libbf_8c.html#a11d2dea6becda91c288fd883eefc8e5c" target="_top" xlink:title="bf_const_pi_internal">
<polygon fill="none" stroke="#ff0000" points="499,-591.6925 499,-610.6925 614,-610.6925 614,-591.6925 499,-591.6925"/>
<text text-anchor="middle" x="556.5" y="-598.6925" font-family="Helvetica,sans-Serif" font-size="10.00" fill="#000000">bf_const_pi_internal</text>
</a>
</g>
</g>
<!-- Node2273&#45;&gt;Node2321 -->
<g id="edge20" class="edge">
<title>Node2273&#45;&gt;Node2321</title>
<path fill="none" stroke="#191970" d="M251.1068,-411.8516C255.6869,-444.473 269.6228,-509.6133 310,-544.1925 317.6524,-550.7461 440.9855,-577.191 510.2284,-591.6439"/>
<polygon fill="#191970" stroke="#191970" points="254.5605,-411.2622 249.849,-401.7726 247.6144,-412.1291 254.5605,-411.2622"/>
</g>
<!-- Node2324 -->
<g id="node16" class="node">
<title>Node2324</title>
<g id="a_node16"><a xlink:href="libbf_8c.html#a740cb7dc32453bf521083b7616b7f120" target="_top" xlink:title="bf_add_epsilon">
<polygon fill="none" stroke="#ff0000" points="337.5,-591.6925 337.5,-610.6925 427.5,-610.6925 427.5,-591.6925 337.5,-591.6925"/>
<text text-anchor="middle" x="382.5" y="-598.6925" font-family="Helvetica,sans-Serif" font-size="10.00" fill="#000000">bf_add_epsilon</text>
</a>
</g>
</g>
<!-- Node2273&#45;&gt;Node2324 -->
<g id="edge21" class="edge">
<title>Node2273&#45;&gt;Node2324</title>
<path fill="none" stroke="#191970" d="M253.1609,-411.9539C262.503,-454.6043 286.1961,-553.3606 310,-577.1925 317.4957,-584.6971 327.3867,-589.8551 337.4439,-593.4002"/>
<polygon fill="#191970" stroke="#191970" points="256.5353,-410.9977 251.0104,-401.9575 249.6919,-412.47 256.5353,-410.9977"/>
</g>
<!-- Node2325 -->
<g id="node17" class="node">
<title>Node2325</title>
<g id="a_node17"><a xlink:href="libbf_8c.html#a15b40c4ae7e9b401fd0c6dc398eacef7" target="_top" xlink:title="bf_sqrt_sin">
<polygon fill="none" stroke="#000000" points="347.5,-439.6925 347.5,-458.6925 417.5,-458.6925 417.5,-439.6925 347.5,-439.6925"/>
<text text-anchor="middle" x="382.5" y="-446.6925" font-family="Helvetica,sans-Serif" font-size="10.00" fill="#000000">bf_sqrt_sin</text>
</a>
</g>
</g>
<!-- Node2273&#45;&gt;Node2325 -->
<g id="edge23" class="edge">
<title>Node2273&#45;&gt;Node2325</title>
<path fill="none" stroke="#191970" d="M273.8495,-406.925C284.7271,-413.0337 297.7748,-419.9112 310,-425.1925 322.6582,-430.6609 336.9969,-435.6472 349.5617,-439.6405"/>
<polygon fill="#191970" stroke="#191970" points="275.3414,-403.7461 264.9242,-401.8141 271.8629,-409.8207 275.3414,-403.7461"/>
</g>
<!-- Node2305 -->
<g id="node18" class="node">
<title>Node2305</title>
<g id="a_node18"><a xlink:href="libbf_8c.html#af760cf2a93bf130e8e44a62c7e7d0adf" target="_top" xlink:title="bf_atan2_internal">
<polygon fill="none" stroke="#ff0000" points="331.5,-515.6925 331.5,-534.6925 433.5,-534.6925 433.5,-515.6925 331.5,-515.6925"/>
<text text-anchor="middle" x="382.5" y="-522.6925" font-family="Helvetica,sans-Serif" font-size="10.00" fill="#000000">bf_atan2_internal</text>
</a>
</g>
</g>
<!-- Node2273&#45;&gt;Node2305 -->
<g id="edge27" class="edge">
<title>Node2273&#45;&gt;Node2305</title>
<path fill="none" stroke="#191970" d="M254.0772,-411.5192C261.8063,-437.0809 279.0042,-481.7423 310,-506.1925 316.2318,-511.1083 323.6101,-514.7602 331.2348,-517.4714"/>
<polygon fill="#191970" stroke="#191970" points="257.4297,-410.5122 251.3318,-401.8481 250.6957,-412.4238 257.4297,-410.5122"/>
</g>
<!-- Node2278 -->
<g id="node6" class="node">
<title>Node2278</title>
<g id="a_node6"><a xlink:href="libbf_8h.html#a951ec20cd7fa3bf021d165b213e15ce4" target="_top" xlink:title="bf_divrem">
<polygon fill="none" stroke="#ff0000" points="523.5,-23.6925 523.5,-42.6925 589.5,-42.6925 589.5,-23.6925 523.5,-23.6925"/>
<text text-anchor="middle" x="556.5" y="-30.6925" font-family="Helvetica,sans-Serif" font-size="10.00" fill="#000000">bf_divrem</text>
</a>
</g>
</g>
<!-- Node2277&#45;&gt;Node2278 -->
<g id="edge5" class="edge">
<title>Node2277&#45;&gt;Node2278</title>
<path fill="none" stroke="#191970" d="M424.1882,-294.1137C435.4835,-291.3605 446.8313,-286.5326 455,-278.1925 502.9733,-229.2128 463.07,-190.8053 491,-128.1925 506.2614,-93.9798 534.1767,-59.0592 548.116,-42.7203"/>
<polygon fill="#191970" stroke="#191970" points="423.4996,-290.682 414.3567,-296.0353 424.8424,-297.552 423.4996,-290.682"/>
</g>
<!-- Node2277&#45;&gt;Node2292 -->
<g id="edge6" class="edge">
<title>Node2277&#45;&gt;Node2292</title>
<path fill="none" stroke="#191970" d="M424.0972,-292.3568C434.9798,-289.5471 446.1337,-285.129 455,-278.1925 481.3166,-257.6041 470.931,-238.9073 491,-212.1925 507.3581,-190.4175 530.8747,-168.8988 544.8289,-156.8983"/>
<polygon fill="#191970" stroke="#191970" points="423.2732,-288.9542 414.2526,-294.511 424.7696,-295.7924 423.2732,-288.9542"/>
</g>
<!-- Node2298 -->
<g id="node8" class="node">
<title>Node2298</title>
<g id="a_node8"><a xlink:href="libbf_8c.html#a157194b3c7faaa17e39ae78cd98c4385" target="_top" xlink:title="bf_exp_internal">
<polygon fill="none" stroke="#ff0000" points="510.5,-221.6925 510.5,-240.6925 602.5,-240.6925 602.5,-221.6925 510.5,-221.6925"/>
<text text-anchor="middle" x="556.5" y="-228.6925" font-family="Helvetica,sans-Serif" font-size="10.00" fill="#000000">bf_exp_internal</text>
</a>
</g>
</g>
<!-- Node2277&#45;&gt;Node2298 -->
<g id="edge8" class="edge">
<title>Node2277&#45;&gt;Node2298</title>
<path fill="none" stroke="#191970" d="M424.1989,-287.6162C434.383,-284.9082 445.1732,-281.7238 455,-278.1925 484.9709,-267.4225 518.1972,-251.1627 538.2079,-240.867"/>
<polygon fill="#191970" stroke="#191970" points="423.0925,-284.2866 414.2751,-290.1606 424.8311,-291.0673 423.0925,-284.2866"/>
</g>
<!-- Node2277&#45;&gt;Node2301 -->
<g id="edge9" class="edge">
<title>Node2277&#45;&gt;Node2301</title>
<path fill="none" stroke="#191970" d="M417.2763,-310.3835C451.037,-323.1893 501.4533,-342.3127 531.4507,-353.691"/>
<polygon fill="#191970" stroke="#191970" points="418.3924,-307.0636 407.8011,-306.7895 415.9098,-313.6086 418.3924,-307.0636"/>
</g>
<!-- Node2277&#45;&gt;Node2281 -->
<g id="edge10" class="edge">
<title>Node2277&#45;&gt;Node2281</title>
<path fill="none" stroke="#191970" d="M400.6314,-313.7043C421.3847,-332.0362 456.9207,-361.7331 491,-382.1925 503.5816,-389.7458 518.4809,-396.4974 530.8881,-401.5815"/>
<polygon fill="#191970" stroke="#191970" points="402.7262,-310.8823 392.9377,-306.8282 398.0615,-316.1016 402.7262,-310.8823"/>
</g>
<!-- Node2277&#45;&gt;Node2303 -->
<g id="edge11" class="edge">
<title>Node2277&#45;&gt;Node2303</title>
<path fill="none" stroke="#191970" d="M424.0583,-299.3421C449.4407,-300.655 481.9974,-302.3389 508.4796,-303.7087"/>
<polygon fill="#191970" stroke="#191970" points="424.1776,-295.8437 414.0101,-298.8224 423.8159,-302.8343 424.1776,-295.8437"/>
</g>
<!-- Node2292&#45;&gt;Node2292 -->
<g id="edge7" class="edge">
<title>Node2292&#45;&gt;Node2292</title>
<path fill="none" stroke="#191970" d="M523.9401,-165.4671C524.8684,-170.9335 535.7217,-175.1925 556.5,-175.1925 587.4258,-175.1925 596.3653,-165.7578 583.3185,-156.9496"/>
<polygon fill="#191970" stroke="#191970" points="526.9943,-167.198 529.6815,-156.9496 521.1898,-163.2853 526.9943,-167.198"/>
</g>
<!-- Node2310&#45;&gt;Node2310 -->
<g id="edge13" class="edge">
<title>Node2310&#45;&gt;Node2310</title>
<path fill="none" stroke="#191970" d="M357.9465,-260.2217C359.2858,-265.3205 367.4703,-269.1925 382.5,-269.1925 405.9609,-269.1925 412.7426,-259.7578 402.845,-250.9496"/>
<polygon fill="#191970" stroke="#191970" points="361.209,-261.5021 362.155,-250.9496 354.8348,-258.609 361.209,-261.5021"/>
</g>
<!-- Node2316&#45;&gt;Node2316 -->
<g id="edge16" class="edge">
<title>Node2316&#45;&gt;Node2316</title>
<path fill="none" stroke="#191970" d="M357.9465,-204.2217C359.2858,-209.3205 367.4703,-213.1925 382.5,-213.1925 405.9609,-213.1925 412.7426,-203.7578 402.845,-194.9496"/>
<polygon fill="#191970" stroke="#191970" points="361.209,-205.5021 362.155,-194.9496 354.8348,-202.609 361.209,-205.5021"/>
</g>
<!-- Node2320&#45;&gt;Node2320 -->
<g id="edge18" class="edge">
<title>Node2320&#45;&gt;Node2320</title>
<path fill="none" stroke="#191970" d="M357.9465,-658.2217C359.2858,-663.3205 367.4703,-667.1925 382.5,-667.1925 405.9609,-667.1925 412.7426,-657.7578 402.845,-648.9496"/>
<polygon fill="#191970" stroke="#191970" points="361.209,-659.5021 362.155,-648.9496 354.8348,-656.609 361.209,-659.5021"/>
</g>
<!-- Node2320&#45;&gt;Node2321 -->
<g id="edge19" class="edge">
<title>Node2320&#45;&gt;Node2321</title>
<path fill="none" stroke="#191970" d="M420.7683,-630.8351C447.9576,-624.8972 484.5204,-616.9122 512.8477,-610.7258"/>
<polygon fill="#191970" stroke="#191970" points="419.8663,-627.4495 410.8434,-633.0026 421.3599,-634.2883 419.8663,-627.4495"/>
</g>
<!-- Node2325&#45;&gt;Node2281 -->
<g id="edge24" class="edge">
<title>Node2325&#45;&gt;Node2281</title>
<path fill="none" stroke="#191970" d="M427.7446,-439.3115C458.4501,-432.6057 498.2523,-423.9133 525.4236,-417.9793"/>
<polygon fill="#191970" stroke="#191970" points="426.7344,-435.9496 417.7115,-441.5027 428.228,-442.7884 426.7344,-435.9496"/>
</g>
<!-- Node2327 -->
<g id="node20" class="node">
<title>Node2327</title>
<g id="a_node20"><a xlink:href="libbf_8h.html#abf69a9bc02b7c299bb75d172fa102d84" target="_top" xlink:title="bf_sub">
<polygon fill="none" stroke="#000000" points="224.5,-61.6925 224.5,-80.6925 273.5,-80.6925 273.5,-61.6925 224.5,-61.6925"/>
<text text-anchor="middle" x="249" y="-68.6925" font-family="Helvetica,sans-Serif" font-size="10.00" fill="#000000">bf_sub</text>
</a>
</g>
</g>
<!-- Node2326&#45;&gt;Node2327 -->
<g id="edge29" class="edge">
<title>Node2326&#45;&gt;Node2327</title>
<path fill="none" stroke="#191970" d="M175.7803,-139.5845C194.5199,-122.0806 223.3953,-95.109 238.6829,-80.8294"/>
<polygon fill="#191970" stroke="#191970" points="173.3576,-137.0581 168.4389,-146.4419 178.1359,-142.1736 173.3576,-137.0581"/>
</g>
<!-- Node2327&#45;&gt;Node2278 -->
<g id="edge32" class="edge">
<title>Node2327&#45;&gt;Node2278</title>
<path fill="none" stroke="#191970" d="M261.8321,-53.426C272.8555,-39.8029 290.0916,-22.0464 310,-14.1925 385.0635,15.4201 482.8166,-8.7077 529.4517,-23.6149"/>
<polygon fill="#191970" stroke="#191970" points="258.8405,-51.5748 255.5196,-61.6358 264.3897,-55.8416 258.8405,-51.5748"/>
</g>
<!-- Node2327&#45;&gt;Node2292 -->
<g id="edge33" class="edge">
<title>Node2327&#45;&gt;Node2292</title>
<path fill="none" stroke="#191970" d="M283.8339,-71.4943C325.4247,-72.7047 396.6823,-77.4898 455,-95.1925 487.9657,-105.1995 523.0091,-125.6259 542.0765,-137.6849"/>
<polygon fill="#191970" stroke="#191970" points="283.7553,-67.9916 273.6751,-71.2533 283.5893,-74.9896 283.7553,-67.9916"/>
</g>
<!-- Node2327&#45;&gt;Node2298 -->
<g id="edge34" class="edge">
<title>Node2327&#45;&gt;Node2298</title>
<path fill="none" stroke="#191970" d="M281.6497,-84.6001C322.8492,-101.8904 395.5126,-133.629 455,-166.1925 487.4885,-183.9768 523.5728,-208.2415 542.7497,-221.5238"/>
<polygon fill="#191970" stroke="#191970" points="282.9472,-81.3491 272.3706,-80.7273 280.2509,-87.809 282.9472,-81.3491"/>
</g>
<!-- Node2328 -->
<g id="node21" class="node">
<title>Node2328</title>
<g id="a_node21"><a xlink:href="libbf_8c.html#a4f1865c8160fb851cce8015c3edb4d4f" target="_top" xlink:title="bf_tdivremu">
<polygon fill="none" stroke="#000000" points="344.5,-23.6925 344.5,-42.6925 420.5,-42.6925 420.5,-23.6925 344.5,-23.6925"/>
<text text-anchor="middle" x="382.5" y="-30.6925" font-family="Helvetica,sans-Serif" font-size="10.00" fill="#000000">bf_tdivremu</text>
</a>
</g>
</g>
<!-- Node2327&#45;&gt;Node2328 -->
<g id="edge30" class="edge">
<title>Node2327&#45;&gt;Node2328</title>
<path fill="none" stroke="#191970" d="M283.4921,-61.3746C303.5857,-55.655 328.8137,-48.474 348.7746,-42.7923"/>
<polygon fill="#191970" stroke="#191970" points="282.4572,-58.03 273.7975,-64.1341 284.3736,-64.7626 282.4572,-58.03"/>
</g>
<!-- Node2328&#45;&gt;Node2278 -->
<g id="edge31" class="edge">
<title>Node2328&#45;&gt;Node2278</title>
<path fill="none" stroke="#191970" d="M430.7731,-33.1925C460.2569,-33.1925 497.1963,-33.1925 523.3872,-33.1925"/>
<polygon fill="#191970" stroke="#191970" points="430.6851,-29.6926 420.685,-33.1925 430.685,-36.6926 430.6851,-29.6926"/>
</g>
</g>
</svg>
