<?xml version="1.0" encoding="UTF-8" standalone="no"?>
<!DOCTYPE svg PUBLIC "-//W3C//DTD SVG 1.1//EN"
 "http://www.w3.org/Graphics/SVG/1.1/DTD/svg11.dtd">
<!-- Generated by graphviz version 2.40.1 (20161225.0304)
 -->
<!-- Title: mp_cmp Pages: 1 -->
<svg width="457pt" height="140pt"
 viewBox="0.00 0.00 457.00 140.00" xmlns="http://www.w3.org/2000/svg" xmlns:xlink="http://www.w3.org/1999/xlink">
<g id="graph0" class="graph" transform="scale(1 1) rotate(0) translate(4 136)">
<title>mp_cmp</title>
<!-- Node3613 -->
<g id="node1" class="node">
<title>Node3613</title>
<polygon fill="#bfbfbf" stroke="#000000" points="0,-28.5 0,-47.5 59,-47.5 59,-28.5 0,-28.5"/>
<text text-anchor="middle" x="29.5" y="-35.5" font-family="Helvetica,sans-Serif" font-size="10.00" fill="#000000">mp_cmp</text>
</g>
<!-- Node3614 -->
<g id="node2" class="node">
<title>Node3614</title>
<g id="a_node2"><a xlink:href="libbf_8c.html#ae8bc748c521cf9e366c02ba403b2d8c0" target="_top" xlink:title="mp_divnorm_large">
<polygon fill="none" stroke="#000000" points="95,-28.5 95,-47.5 203,-47.5 203,-28.5 95,-28.5"/>
<text text-anchor="middle" x="149" y="-35.5" font-family="Helvetica,sans-Serif" font-size="10.00" fill="#000000">mp_divnorm_large</text>
</a>
</g>
</g>
<!-- Node3613&#45;&gt;Node3614 -->
<g id="edge1" class="edge">
<title>Node3613&#45;&gt;Node3614</title>
<path fill="none" stroke="#191970" d="M69.0585,-38C77.2539,-38 86.0237,-38 94.6426,-38"/>
<polygon fill="#191970" stroke="#191970" points="69.0394,-34.5001 59.0393,-38 69.0393,-41.5001 69.0394,-34.5001"/>
</g>
<!-- Node3615 -->
<g id="node3" class="node">
<title>Node3615</title>
<g id="a_node3"><a xlink:href="libbf_8c.html#a0b14a84ecf8baf4930b1bcb8621b8e18" target="_top" xlink:title="mp_divnorm">
<polygon fill="none" stroke="#000000" points="239,-51.5 239,-70.5 317,-70.5 317,-51.5 239,-51.5"/>
<text text-anchor="middle" x="278" y="-58.5" font-family="Helvetica,sans-Serif" font-size="10.00" fill="#000000">mp_divnorm</text>
</a>
</g>
</g>
<!-- Node3614&#45;&gt;Node3615 -->
<g id="edge2" class="edge">
<title>Node3614&#45;&gt;Node3615</title>
<path fill="none" stroke="#191970" d="M212.6642,-49.351C221.6306,-50.9496 230.6185,-52.5521 238.9347,-54.0349"/>
<polygon fill="#191970" stroke="#191970" points="213.046,-45.8639 202.5869,-47.5543 211.8173,-52.7553 213.046,-45.8639"/>
</g>
<!-- Node3616 -->
<g id="node4" class="node">
<title>Node3616</title>
<g id="a_node4"><a xlink:href="libbf_8c.html#ad7a540de8355f07757e52b48d35dd708" target="_top" xlink:title="__bf_div">
<polygon fill="none" stroke="#ff0000" points="372.5,-112.5 372.5,-131.5 429.5,-131.5 429.5,-112.5 372.5,-112.5"/>
<text text-anchor="middle" x="401" y="-119.5" font-family="Helvetica,sans-Serif" font-size="10.00" fill="#000000">__bf_div</text>
</a>
</g>
</g>
<!-- Node3615&#45;&gt;Node3616 -->
<g id="edge3" class="edge">
<title>Node3615&#45;&gt;Node3616</title>
<path fill="none" stroke="#191970" d="M302.5713,-75.856C317.0067,-84.3049 335.7518,-94.8018 353,-103 360.0423,-106.3473 367.8417,-109.6138 375.0704,-112.4679"/>
<polygon fill="#191970" stroke="#191970" points="304.1548,-72.7262 293.7665,-70.6444 300.5892,-78.75 304.1548,-72.7262"/>
</g>
<!-- Node3661 -->
<g id="node5" class="node">
<title>Node3661</title>
<g id="a_node5"><a xlink:href="libbf_8h.html#a01be6db77710375febf385d07ad4f1fe" target="_top" xlink:title="mp_recip">
<polygon fill="none" stroke="#000000" points="370,-.5 370,-19.5 432,-19.5 432,-.5 370,-.5"/>
<text text-anchor="middle" x="401" y="-7.5" font-family="Helvetica,sans-Serif" font-size="10.00" fill="#000000">mp_recip</text>
</a>
</g>
</g>
<!-- Node3615&#45;&gt;Node3661 -->
<g id="edge4" class="edge">
<title>Node3615&#45;&gt;Node3661</title>
<path fill="none" stroke="#191970" d="M310.4226,-47.5565C331.6685,-38.7472 358.9283,-27.4444 377.9684,-19.5497"/>
<polygon fill="#191970" stroke="#191970" points="309.0322,-44.344 301.1354,-51.4073 311.7134,-50.8102 309.0322,-44.344"/>
</g>
<!-- Node3662 -->
<g id="node6" class="node">
<title>Node3662</title>
<g id="a_node6"><a xlink:href="libbf_8c.html#ad6e0bb87edc2953629f7fc6f16e3e7d7" target="_top" xlink:title="mp_sqrtrem_rec">
<polygon fill="none" stroke="#ff0000" points="353,-56.5 353,-75.5 449,-75.5 449,-56.5 353,-56.5"/>
<text text-anchor="middle" x="401" y="-63.5" font-family="Helvetica,sans-Serif" font-size="10.00" fill="#000000">mp_sqrtrem_rec</text>
</a>
</g>
</g>
<!-- Node3615&#45;&gt;Node3662 -->
<g id="edge7" class="edge">
<title>Node3615&#45;&gt;Node3662</title>
<path fill="none" stroke="#191970" d="M327.2549,-63.0022C335.616,-63.3421 344.2918,-63.6948 352.6299,-64.0337"/>
<polygon fill="#191970" stroke="#191970" points="327.3901,-59.5049 317.2561,-62.5958 327.1057,-66.4992 327.3901,-59.5049"/>
</g>
<!-- Node3661&#45;&gt;Node3614 -->
<g id="edge6" class="edge">
<title>Node3661&#45;&gt;Node3614</title>
<path fill="none" stroke="#191970" d="M359.5931,-14.6008C316.8451,-19.3505 249.9556,-26.7827 203.0603,-31.9933"/>
<polygon fill="#191970" stroke="#191970" points="360.0978,-18.0663 369.6501,-13.4833 359.3247,-11.1091 360.0978,-18.0663"/>
</g>
<!-- Node3661&#45;&gt;Node3661 -->
<g id="edge5" class="edge">
<title>Node3661&#45;&gt;Node3661</title>
<path fill="none" stroke="#191970" d="M378.3066,-29.0292C379.5445,-34.128 387.1089,-38 401,-38 422.6836,-38 428.9515,-28.5653 419.8037,-19.7571"/>
<polygon fill="#191970" stroke="#191970" points="381.5553,-30.3325 382.1963,-19.7571 375.1003,-27.6246 381.5553,-30.3325"/>
</g>
<!-- Node3662&#45;&gt;Node3662 -->
<g id="edge8" class="edge">
<title>Node3662&#45;&gt;Node3662</title>
<path fill="none" stroke="#191970" d="M378.3066,-85.0292C379.5445,-90.128 387.1089,-94 401,-94 422.6836,-94 428.9515,-84.5653 419.8037,-75.7571"/>
<polygon fill="#191970" stroke="#191970" points="381.5553,-86.3325 382.1963,-75.7571 375.1003,-83.6246 381.5553,-86.3325"/>
</g>
</g>
</svg>
