<?xml version="1.0" encoding="UTF-8" standalone="no"?>
<!DOCTYPE svg PUBLIC "-//W3C//DTD SVG 1.1//EN"
 "http://www.w3.org/Graphics/SVG/1.1/DTD/svg11.dtd">
<!-- Generated by graphviz version 2.40.1 (20161225.0304)
 -->
<!-- Title: bf_set_overflow Pages: 1 -->
<!--zoomable 731 -->
<svg id="main" version="1.1" xmlns="http://www.w3.org/2000/svg" xmlns:xlink="http://www.w3.org/1999/xlink" xml:space="preserve" onload="init(evt)">
<style type="text/css"><![CDATA[
.edge:hover path { stroke: red; }
.edge:hover polygon { stroke: red; fill: red; }
]]></style>
<script type="text/javascript"><![CDATA[
var edges = document.getElementsByTagName('g');
if (edges && edges.length) {
  for (var i=0;i<edges.length;i++) {
    if (edges[i].id.substr(0,4)=='edge') {
      edges[i].setAttribute('class','edge');
    }
  }
}
]]></script>
        <defs>
                <circle id="rim" cx="0" cy="0" r="7"/>
                <circle id="rim2" cx="0" cy="0" r="3.5"/>
                <g id="zoomPlus">
                        <use xlink:href="#rim" fill="#404040">
                                <set attributeName="fill" to="#808080" begin="zoomplus.mouseover" end="zoomplus.mouseout"/>
                        </use>
                        <path d="M-4,0h8M0,-4v8" fill="none" stroke="white" stroke-width="1.5" pointer-events="none"/>
                </g>
                <g id="zoomMin">
                        <use xlink:href="#rim" fill="#404040">
                                <set attributeName="fill" to="#808080" begin="zoomminus.mouseover" end="zoomminus.mouseout"/>
                        </use>
                        <path d="M-4,0h8" fill="none" stroke="white" stroke-width="1.5" pointer-events="none"/>
                </g>
                <g id="dirArrow">
                        <path fill="none" stroke="white" stroke-width="1.5" d="M0,-3.0v7 M-2.5,-0.5L0,-3.0L2.5,-0.5"/>
                </g>
               <g id="resetDef">
                       <use xlink:href="#rim2" fill="#404040">
                               <set attributeName="fill" to="#808080" begin="reset.mouseover" end="reset.mouseout"/>
                       </use>
               </g>
        </defs>

<script type="text/javascript">
var viewWidth = 885;
var viewHeight = 731;
var sectionId = 'dynsection-43';
</script>
<script xlink:href="svgpan.js"/>
<svg id="graph" class="graph">
<g id="viewport">
<title>bf_set_overflow</title>
<!-- Node1751 -->
<g id="node1" class="node">
<title>Node1751</title>
<polygon fill="#bfbfbf" stroke="#000000" points="0,-417.5 0,-436.5 94,-436.5 94,-417.5 0,-417.5"/>
<text text-anchor="middle" x="47" y="-424.5" font-family="Helvetica,sans-Serif" font-size="10.00" fill="#000000">bf_set_overflow</text>
</g>
<!-- Node1752 -->
<g id="node2" class="node">
<title>Node1752</title>
<g id="a_node2"><a xlink:href="libbf_8c.html#a5a13527071b5331585beae41a51ed3c2" target="_top" xlink:title="__bf_round">
<polygon fill="none" stroke="#000000" points="130,-417.5 130,-436.5 200,-436.5 200,-417.5 130,-417.5"/>
<text text-anchor="middle" x="165" y="-424.5" font-family="Helvetica,sans-Serif" font-size="10.00" fill="#000000">__bf_round</text>
</a>
</g>
</g>
<!-- Node1751&#45;&gt;Node1752 -->
<g id="edge1" class="edge">
<title>Node1751&#45;&gt;Node1752</title>
<path fill="none" stroke="#191970" d="M104.3794,-427C113.0084,-427 121.6836,-427 129.6661,-427"/>
<polygon fill="#191970" stroke="#191970" points="104.3152,-423.5001 94.3152,-427 104.3152,-430.5001 104.3152,-423.5001"/>
</g>
<!-- Node1759 -->
<g id="node13" class="node">
<title>Node1759</title>
<g id="a_node13"><a xlink:href="libbf_8h.html#a93fe073491f8c5f086a75e7bf8865b34" target="_top" xlink:title="bf_pow">
<polygon fill="none" stroke="#000000" points="825,-465.5 825,-484.5 877,-484.5 877,-465.5 825,-465.5"/>
<text text-anchor="middle" x="851" y="-472.5" font-family="Helvetica,sans-Serif" font-size="10.00" fill="#000000">bf_pow</text>
</a>
</g>
</g>
<!-- Node1751&#45;&gt;Node1759 -->
<g id="edge49" class="edge">
<title>Node1751&#45;&gt;Node1759</title>
<path fill="none" stroke="#191970" d="M49.1429,-407.2734C59.4499,-323.3146 111.6598,0 304.5,0 304.5,0 304.5,0 598,0 692.8095,0 732.7238,-18.6991 789,-95 834.4302,-156.5956 848.1945,-412.0636 850.5925,-465.2662"/>
<polygon fill="#191970" stroke="#191970" points="45.658,-406.9415 47.9777,-417.2792 52.611,-407.7513 45.658,-406.9415"/>
</g>
<!-- Node1802 -->
<g id="node30" class="node">
<title>Node1802</title>
<g id="a_node30"><a xlink:href="libbf_8c.html#aa6e77d8d722e3fd0540ede79a63e352e" target="_top" xlink:title="check_exp_underflow\l_overflow">
<polygon fill="none" stroke="#000000" points="537,-675 537,-705 659,-705 659,-675 537,-675"/>
<text text-anchor="start" x="545" y="-693" font-family="Helvetica,sans-Serif" font-size="10.00" fill="#000000">check_exp_underflow</text>
<text text-anchor="middle" x="598" y="-682" font-family="Helvetica,sans-Serif" font-size="10.00" fill="#000000">_overflow</text>
</a>
</g>
</g>
<!-- Node1751&#45;&gt;Node1802 -->
<g id="edge50" class="edge">
<title>Node1751&#45;&gt;Node1802</title>
<path fill="none" stroke="#191970" d="M74.6435,-441.1902C148.7854,-479.0823 358.5348,-585.1834 537,-665 544.418,-668.3176 552.4134,-671.718 560.0954,-674.9"/>
<polygon fill="#191970" stroke="#191970" points="75.9888,-437.947 65.4922,-436.5074 72.8,-444.1786 75.9888,-437.947"/>
</g>
<!-- Node1753 -->
<g id="node3" class="node">
<title>Node1753</title>
<g id="a_node3"><a xlink:href="libbf_8h.html#ae822c0888d26739bb681dfef282b9150" target="_top" xlink:title="bf_normalize_and_round">
<polygon fill="none" stroke="#000000" points="236,-389.5 236,-408.5 373,-408.5 373,-389.5 236,-389.5"/>
<text text-anchor="middle" x="304.5" y="-396.5" font-family="Helvetica,sans-Serif" font-size="10.00" fill="#000000">bf_normalize_and_round</text>
</a>
</g>
</g>
<!-- Node1752&#45;&gt;Node1753 -->
<g id="edge2" class="edge">
<title>Node1752&#45;&gt;Node1753</title>
<path fill="none" stroke="#191970" d="M210.2273,-417.9221C225.1634,-414.9242 241.8185,-411.5812 256.9248,-408.5491"/>
<polygon fill="#191970" stroke="#191970" points="209.3174,-414.5349 200.2017,-419.9344 210.695,-421.398 209.3174,-414.5349"/>
</g>
<!-- Node1822 -->
<g id="node20" class="node">
<title>Node1822</title>
<g id="a_node20"><a xlink:href="libbf_8h.html#abd4ca8358212228a53981a32a10286b5" target="_top" xlink:title="bf_round">
<polygon fill="none" stroke="#000000" points="275,-161.5 275,-180.5 334,-180.5 334,-161.5 275,-161.5"/>
<text text-anchor="middle" x="304.5" y="-168.5" font-family="Helvetica,sans-Serif" font-size="10.00" fill="#000000">bf_round</text>
</a>
</g>
</g>
<!-- Node1752&#45;&gt;Node1822 -->
<g id="edge22" class="edge">
<title>Node1752&#45;&gt;Node1822</title>
<path fill="none" stroke="#191970" d="M175.1444,-408.3837C202.7376,-357.7468 278.4711,-218.7663 299.1965,-180.7326"/>
<polygon fill="#191970" stroke="#191970" points="172.0099,-406.8214 170.2982,-417.2771 178.1565,-410.1709 172.0099,-406.8214"/>
</g>
<!-- Node1827 -->
<g id="node26" class="node">
<title>Node1827</title>
<g id="a_node26"><a xlink:href="libbf_8h.html#ae1d5fe9356228cc3a566786637f26680" target="_top" xlink:title="bf_mul_2exp">
<polygon fill="none" stroke="#000000" points="415,-484.5 415,-503.5 495,-503.5 495,-484.5 415,-484.5"/>
<text text-anchor="middle" x="455" y="-491.5" font-family="Helvetica,sans-Serif" font-size="10.00" fill="#000000">bf_mul_2exp</text>
</a>
</g>
</g>
<!-- Node1752&#45;&gt;Node1827 -->
<g id="edge33" class="edge">
<title>Node1752&#45;&gt;Node1827</title>
<path fill="none" stroke="#191970" d="M210.2834,-437.462C266.4217,-450.4319 361.2317,-472.3363 414.8713,-484.7289"/>
<polygon fill="#191970" stroke="#191970" points="210.801,-433.9895 200.2698,-435.1485 209.2252,-440.8098 210.801,-433.9895"/>
</g>
<!-- Node1828 -->
<g id="node28" class="node">
<title>Node1828</title>
<g id="a_node28"><a xlink:href="libbf_8c.html#a39e7dd6286a6f0541a12366ebd93dbfd" target="_top" xlink:title="bf_ziv_rounding">
<polygon fill="none" stroke="#ff0000" points="551,-598.5 551,-617.5 645,-617.5 645,-598.5 551,-598.5"/>
<text text-anchor="middle" x="598" y="-605.5" font-family="Helvetica,sans-Serif" font-size="10.00" fill="#000000">bf_ziv_rounding</text>
</a>
</g>
</g>
<!-- Node1752&#45;&gt;Node1828 -->
<g id="edge42" class="edge">
<title>Node1752&#45;&gt;Node1828</title>
<path fill="none" stroke="#191970" d="M185.8075,-442.6241C199.5633,-452.4794 218.2661,-464.9999 236,-474 351.6343,-532.6853 499.2811,-579.2122 564.482,-598.4326"/>
<polygon fill="#191970" stroke="#191970" points="187.6842,-439.6609 177.5422,-436.5964 183.5595,-445.3166 187.6842,-439.6609"/>
</g>
<!-- Node1754 -->
<g id="node4" class="node">
<title>Node1754</title>
<g id="a_node4"><a xlink:href="libbf_8c.html#aaebd1df91497246cd81f23918af58d33" target="_top" xlink:title="bf_add_internal">
<polygon fill="none" stroke="#ff0000" points="409,-370.5 409,-389.5 501,-389.5 501,-370.5 409,-370.5"/>
<text text-anchor="middle" x="455" y="-377.5" font-family="Helvetica,sans-Serif" font-size="10.00" fill="#000000">bf_add_internal</text>
</a>
</g>
</g>
<!-- Node1753&#45;&gt;Node1754 -->
<g id="edge3" class="edge">
<title>Node1753&#45;&gt;Node1754</title>
<path fill="none" stroke="#191970" d="M383.0902,-389.0783C391.8998,-387.9661 400.6481,-386.8617 408.8511,-385.8261"/>
<polygon fill="#191970" stroke="#191970" points="382.6266,-385.609 373.1438,-390.334 383.5035,-392.5538 382.6266,-385.609"/>
</g>
<!-- Node1812 -->
<g id="node5" class="node">
<title>Node1812</title>
<g id="a_node5"><a xlink:href="libbf_8h.html#ac290278d0c37a0e7786873f98aadba47" target="_top" xlink:title="bf_mul">
<polygon fill="none" stroke="#ff0000" points="430,-294.5 430,-313.5 480,-313.5 480,-294.5 430,-294.5"/>
<text text-anchor="middle" x="455" y="-301.5" font-family="Helvetica,sans-Serif" font-size="10.00" fill="#000000">bf_mul</text>
</a>
</g>
</g>
<!-- Node1753&#45;&gt;Node1812 -->
<g id="edge4" class="edge">
<title>Node1753&#45;&gt;Node1812</title>
<path fill="none" stroke="#191970" d="M323.6412,-382.9254C343.9156,-366.429 377.3121,-340.7352 409,-323 415.4843,-319.3708 422.8033,-316.0358 429.6643,-313.2068"/>
<polygon fill="#191970" stroke="#191970" points="321.2943,-380.324 315.7988,-389.3822 325.7436,-385.7281 321.2943,-380.324"/>
</g>
<!-- Node1795 -->
<g id="node7" class="node">
<title>Node1795</title>
<g id="a_node7"><a xlink:href="libbf_8c.html#aaaeb6c790a8b174f3c5631ee33c81910" target="_top" xlink:title="bf_atof_internal">
<polygon fill="none" stroke="#ff0000" points="695,-218.5 695,-237.5 789,-237.5 789,-218.5 695,-218.5"/>
<text text-anchor="middle" x="742" y="-225.5" font-family="Helvetica,sans-Serif" font-size="10.00" fill="#000000">bf_atof_internal</text>
</a>
</g>
</g>
<!-- Node1753&#45;&gt;Node1795 -->
<g id="edge21" class="edge">
<title>Node1753&#45;&gt;Node1795</title>
<path fill="none" stroke="#191970" d="M315.4691,-380.9002C332.1796,-355.0474 366.5917,-308.1231 409,-285 501.1777,-234.7401 627.2566,-226.8979 694.7617,-226.7272"/>
<polygon fill="#191970" stroke="#191970" points="312.4919,-379.0598 310.1315,-389.3884 318.4177,-382.7861 312.4919,-379.0598"/>
</g>
<!-- Node1820 -->
<g id="node18" class="node">
<title>Node1820</title>
<g id="a_node18"><a xlink:href="libbf_8c.html#ad7a540de8355f07757e52b48d35dd708" target="_top" xlink:title="__bf_div">
<polygon fill="none" stroke="#ff0000" points="426.5,-446.5 426.5,-465.5 483.5,-465.5 483.5,-446.5 426.5,-446.5"/>
<text text-anchor="middle" x="455" y="-453.5" font-family="Helvetica,sans-Serif" font-size="10.00" fill="#000000">__bf_div</text>
</a>
</g>
</g>
<!-- Node1753&#45;&gt;Node1820 -->
<g id="edge19" class="edge">
<title>Node1753&#45;&gt;Node1820</title>
<path fill="none" stroke="#191970" d="M339.3605,-412.203C366.9944,-422.669 404.9554,-437.0462 429.7275,-446.4284"/>
<polygon fill="#191970" stroke="#191970" points="340.2817,-408.8093 329.6903,-408.5405 337.8024,-415.3556 340.2817,-408.8093"/>
</g>
<!-- Node1771 -->
<g id="node19" class="node">
<title>Node1771</title>
<g id="a_node19"><a xlink:href="libbf_8c.html#ad7d8e39c51ec431bcd496bb37382ae94" target="_top" xlink:title="bf_logic_op">
<polygon fill="none" stroke="#ff0000" points="419,-408.5 419,-427.5 491,-427.5 491,-408.5 419,-408.5"/>
<text text-anchor="middle" x="455" y="-415.5" font-family="Helvetica,sans-Serif" font-size="10.00" fill="#000000">bf_logic_op</text>
</a>
</g>
</g>
<!-- Node1753&#45;&gt;Node1771 -->
<g id="edge20" class="edge">
<title>Node1753&#45;&gt;Node1771</title>
<path fill="none" stroke="#191970" d="M383.1777,-408.9327C395.6882,-410.5121 408.0722,-412.0756 418.9425,-413.4479"/>
<polygon fill="#191970" stroke="#191970" points="383.5035,-405.4462 373.1438,-407.666 382.6266,-412.391 383.5035,-405.4462"/>
</g>
<!-- Node1817 -->
<g id="node6" class="node">
<title>Node1817</title>
<g id="a_node6"><a xlink:href="libbf_8h.html#a0b4d56fc6808de8feed2a234525df692" target="_top" xlink:title="bf_mul_pow_radix">
<polygon fill="none" stroke="#000000" points="545,-180.5 545,-199.5 651,-199.5 651,-180.5 545,-180.5"/>
<text text-anchor="middle" x="598" y="-187.5" font-family="Helvetica,sans-Serif" font-size="10.00" fill="#000000">bf_mul_pow_radix</text>
</a>
</g>
</g>
<!-- Node1812&#45;&gt;Node1817 -->
<g id="edge5" class="edge">
<title>Node1812&#45;&gt;Node1817</title>
<path fill="none" stroke="#191970" d="M475.3305,-287.7925C505.5202,-263.7251 561.2754,-219.2769 585.8388,-199.695"/>
<polygon fill="#191970" stroke="#191970" points="472.8297,-285.31 467.1921,-294.2804 477.1932,-290.7836 472.8297,-285.31"/>
</g>
<!-- Node1781 -->
<g id="node9" class="node">
<title>Node1781</title>
<g id="a_node9"><a xlink:href="libbf_8c.html#a157194b3c7faaa17e39ae78cd98c4385" target="_top" xlink:title="bf_exp_internal">
<polygon fill="none" stroke="#ff0000" points="552,-636.5 552,-655.5 644,-655.5 644,-636.5 552,-636.5"/>
<text text-anchor="middle" x="598" y="-643.5" font-family="Helvetica,sans-Serif" font-size="10.00" fill="#000000">bf_exp_internal</text>
</a>
</g>
</g>
<!-- Node1812&#45;&gt;Node1781 -->
<g id="edge8" class="edge">
<title>Node1812&#45;&gt;Node1781</title>
<path fill="none" stroke="#191970" d="M489.5116,-313.3239C493.9307,-315.8258 497.9634,-318.9929 501,-323 583.1745,-431.436 450.0439,-522.3594 537,-627 540.97,-631.7773 546.122,-635.3738 551.749,-638.0774"/>
<polygon fill="#191970" stroke="#191970" points="490.6474,-309.9964 480.0934,-309.0664 487.764,-316.3749 490.6474,-309.9964"/>
</g>
<!-- Node1784 -->
<g id="node11" class="node">
<title>Node1784</title>
<g id="a_node11"><a xlink:href="libbf_8c.html#aab7bc918fdd8dbef25c31c6881c73fdd" target="_top" xlink:title="bf_log_internal">
<polygon fill="none" stroke="#000000" points="553.5,-370.5 553.5,-389.5 642.5,-389.5 642.5,-370.5 553.5,-370.5"/>
<text text-anchor="middle" x="598" y="-377.5" font-family="Helvetica,sans-Serif" font-size="10.00" fill="#000000">bf_log_internal</text>
</a>
</g>
</g>
<!-- Node1812&#45;&gt;Node1784 -->
<g id="edge10" class="edge">
<title>Node1812&#45;&gt;Node1784</title>
<path fill="none" stroke="#191970" d="M489.6247,-316.4153C493.5933,-318.3818 497.475,-320.5777 501,-323 520.1739,-336.1756 517.2544,-348.6978 537,-361 543.1194,-364.8126 550.0638,-367.914 557.0198,-370.4195"/>
<polygon fill="#191970" stroke="#191970" points="490.8901,-313.1469 480.3337,-312.2445 488.0233,-319.533 490.8901,-313.1469"/>
</g>
<!-- Node1812&#45;&gt;Node1759 -->
<g id="edge13" class="edge">
<title>Node1812&#45;&gt;Node1759</title>
<path fill="none" stroke="#191970" d="M489.9147,-294.3745C555.9316,-278.4391 700.3667,-254.6693 789,-323 836.1733,-359.3676 847.6456,-437.6647 850.2681,-465.1885"/>
<polygon fill="#191970" stroke="#191970" points="488.866,-291.0289 480.0133,-296.8495 490.5636,-297.82 488.866,-291.0289"/>
</g>
<!-- Node1808 -->
<g id="node14" class="node">
<title>Node1808</title>
<g id="a_node14"><a xlink:href="libbf_8c.html#a15b40c4ae7e9b401fd0c6dc398eacef7" target="_top" xlink:title="bf_sqrt_sin">
<polygon fill="none" stroke="#000000" points="563,-332.5 563,-351.5 633,-351.5 633,-332.5 563,-332.5"/>
<text text-anchor="middle" x="598" y="-339.5" font-family="Helvetica,sans-Serif" font-size="10.00" fill="#000000">bf_sqrt_sin</text>
</a>
</g>
</g>
<!-- Node1812&#45;&gt;Node1808 -->
<g id="edge14" class="edge">
<title>Node1812&#45;&gt;Node1808</title>
<path fill="none" stroke="#191970" d="M489.9161,-313.2784C512.0655,-319.1643 540.626,-326.7538 562.8251,-332.6528"/>
<polygon fill="#191970" stroke="#191970" points="490.7998,-309.8918 480.2364,-310.7062 489.002,-316.6571 490.7998,-309.8918"/>
</g>
<!-- Node1764 -->
<g id="node15" class="node">
<title>Node1764</title>
<g id="a_node15"><a xlink:href="libbf_8c.html#a2b19e3958f6cf3fa0cc534681a5ff259" target="_top" xlink:title="bf_sincos">
<polygon fill="none" stroke="#ff0000" points="711,-332.5 711,-351.5 773,-351.5 773,-332.5 711,-332.5"/>
<text text-anchor="middle" x="742" y="-339.5" font-family="Helvetica,sans-Serif" font-size="10.00" fill="#000000">bf_sincos</text>
</a>
</g>
</g>
<!-- Node1812&#45;&gt;Node1764 -->
<g id="edge16" class="edge">
<title>Node1812&#45;&gt;Node1764</title>
<path fill="none" stroke="#191970" d="M490.2462,-305.8643C531.0536,-308.3503 600.1975,-313.5736 659,-323 676.2234,-325.761 695.2034,-330.0135 710.6614,-333.7959"/>
<polygon fill="#191970" stroke="#191970" points="490.4477,-302.3702 480.2592,-305.2763 490.0362,-309.3581 490.4477,-302.3702"/>
</g>
<!-- Node1786 -->
<g id="node16" class="node">
<title>Node1786</title>
<g id="a_node16"><a xlink:href="libbf_8c.html#aa4b535a5b33344704c576607ab4f0463" target="_top" xlink:title="bf_atan_internal">
<polygon fill="none" stroke="#ff0000" points="550,-408.5 550,-427.5 646,-427.5 646,-408.5 550,-408.5"/>
<text text-anchor="middle" x="598" y="-415.5" font-family="Helvetica,sans-Serif" font-size="10.00" fill="#000000">bf_atan_internal</text>
</a>
</g>
</g>
<!-- Node1812&#45;&gt;Node1786 -->
<g id="edge17" class="edge">
<title>Node1812&#45;&gt;Node1786</title>
<path fill="none" stroke="#191970" d="M489.5964,-314.9185C493.7366,-317.163 497.6691,-319.8337 501,-323 528.0896,-348.7505 508.7825,-374.4906 537,-399 541.4383,-402.8551 546.6535,-405.9283 552.1336,-408.3781"/>
<polygon fill="#191970" stroke="#191970" points="490.9005,-311.6658 480.3536,-310.6591 487.9707,-318.0232 490.9005,-311.6658"/>
</g>
<!-- Node1817&#45;&gt;Node1795 -->
<g id="edge6" class="edge">
<title>Node1817&#45;&gt;Node1795</title>
<path fill="none" stroke="#191970" d="M644.1722,-202.1843C664.1642,-207.46 687.2187,-213.5438 705.924,-218.4799"/>
<polygon fill="#191970" stroke="#191970" points="644.8994,-198.7565 634.3373,-199.589 643.1132,-205.5248 644.8994,-198.7565"/>
</g>
<!-- Node1778 -->
<g id="node8" class="node">
<title>Node1778</title>
<g id="a_node8"><a xlink:href="libbf_8c.html#ad79aefc435021a0743c89cb4aec7fa56" target="_top" xlink:title="bf_ftoa_internal">
<polygon fill="none" stroke="#ff0000" points="695,-104.5 695,-123.5 789,-123.5 789,-104.5 695,-104.5"/>
<text text-anchor="middle" x="742" y="-111.5" font-family="Helvetica,sans-Serif" font-size="10.00" fill="#000000">bf_ftoa_internal</text>
</a>
</g>
</g>
<!-- Node1817&#45;&gt;Node1778 -->
<g id="edge7" class="edge">
<title>Node1817&#45;&gt;Node1778</title>
<path fill="none" stroke="#191970" d="M625.3887,-175.5449C654.3176,-160.2768 699.1038,-136.6397 723.9104,-123.5473"/>
<polygon fill="#191970" stroke="#191970" points="623.4479,-172.6116 616.2377,-180.3745 626.7152,-178.8023 623.4479,-172.6116"/>
</g>
<!-- Node1782 -->
<g id="node10" class="node">
<title>Node1782</title>
<g id="a_node10"><a xlink:href="libbf_8h.html#a36f22f93ba4258209be035a63b80b87f" target="_top" xlink:title="bf_exp">
<polygon fill="none" stroke="#000000" points="717,-674.5 717,-693.5 767,-693.5 767,-674.5 717,-674.5"/>
<text text-anchor="middle" x="742" y="-681.5" font-family="Helvetica,sans-Serif" font-size="10.00" fill="#000000">bf_exp</text>
</a>
</g>
</g>
<!-- Node1781&#45;&gt;Node1782 -->
<g id="edge9" class="edge">
<title>Node1781&#45;&gt;Node1782</title>
<path fill="none" stroke="#191970" d="M644.3024,-658.2187C668.2655,-664.5423 696.5997,-672.0194 716.5665,-677.2884"/>
<polygon fill="#191970" stroke="#191970" points="644.8994,-654.7565 634.3373,-655.589 643.1132,-661.5248 644.8994,-654.7565"/>
</g>
<!-- Node1785 -->
<g id="node12" class="node">
<title>Node1785</title>
<g id="a_node12"><a xlink:href="libbf_8h.html#a4137b2308536cbc92addaeb3f0c79d35" target="_top" xlink:title="bf_log">
<polygon fill="none" stroke="#ff0000" points="718.5,-484.5 718.5,-503.5 765.5,-503.5 765.5,-484.5 718.5,-484.5"/>
<text text-anchor="middle" x="742" y="-491.5" font-family="Helvetica,sans-Serif" font-size="10.00" fill="#000000">bf_log</text>
</a>
</g>
</g>
<!-- Node1784&#45;&gt;Node1785 -->
<g id="edge11" class="edge">
<title>Node1784&#45;&gt;Node1785</title>
<path fill="none" stroke="#191970" d="M649.0933,-393.5176C652.5494,-395.1527 655.8893,-396.9738 659,-399 694.7854,-422.3092 724.2118,-465.2288 736.2036,-484.3592"/>
<polygon fill="#191970" stroke="#191970" points="650.3273,-390.24 639.7512,-389.611 647.6267,-396.6981 650.3273,-390.24"/>
</g>
<!-- Node1785&#45;&gt;Node1759 -->
<g id="edge12" class="edge">
<title>Node1785&#45;&gt;Node1759</title>
<path fill="none" stroke="#191970" d="M775.5716,-488.1481C791.3797,-485.3925 809.9577,-482.1542 824.7205,-479.5808"/>
<polygon fill="#191970" stroke="#191970" points="774.9018,-484.712 765.6514,-489.8773 776.1039,-491.608 774.9018,-484.712"/>
</g>
<!-- Node1808&#45;&gt;Node1764 -->
<g id="edge15" class="edge">
<title>Node1808&#45;&gt;Node1764</title>
<path fill="none" stroke="#191970" d="M643.2918,-342C665.1665,-342 690.8733,-342 710.5682,-342"/>
<polygon fill="#191970" stroke="#191970" points="643.2264,-338.5001 633.2264,-342 643.2263,-345.5001 643.2264,-338.5001"/>
</g>
<!-- Node1787 -->
<g id="node17" class="node">
<title>Node1787</title>
<g id="a_node17"><a xlink:href="libbf_8h.html#a0bb2c5b98e3f978b84df9849c7ec50d6" target="_top" xlink:title="bf_atan">
<polygon fill="none" stroke="#ff0000" points="715.5,-522.5 715.5,-541.5 768.5,-541.5 768.5,-522.5 715.5,-522.5"/>
<text text-anchor="middle" x="742" y="-529.5" font-family="Helvetica,sans-Serif" font-size="10.00" fill="#000000">bf_atan</text>
</a>
</g>
</g>
<!-- Node1786&#45;&gt;Node1787 -->
<g id="edge18" class="edge">
<title>Node1786&#45;&gt;Node1787</title>
<path fill="none" stroke="#191970" d="M611.9774,-435.3438C629.5088,-456.1547 661.3722,-490.9885 695,-513 701.1857,-517.0489 708.3724,-520.4864 715.2371,-523.2778"/>
<polygon fill="#191970" stroke="#191970" points="614.6512,-433.0849 605.5801,-427.6107 609.2575,-437.5469 614.6512,-433.0849"/>
</g>
<!-- Node1822&#45;&gt;Node1817 -->
<g id="edge30" class="edge">
<title>Node1822&#45;&gt;Node1817</title>
<path fill="none" stroke="#191970" d="M344.4123,-173.5838C396.3436,-176.9456 487.2405,-182.8299 544.9357,-186.5648"/>
<polygon fill="#191970" stroke="#191970" points="344.4628,-170.0798 334.2575,-172.9264 344.0105,-177.0652 344.4628,-170.0798"/>
</g>
<!-- Node1822&#45;&gt;Node1778 -->
<g id="edge31" class="edge">
<title>Node1822&#45;&gt;Node1778</title>
<path fill="none" stroke="#191970" d="M314.7525,-152.3268C330.7731,-125.3437 364.5674,-76.546 409,-57 521.7453,-7.4032 673.5977,-77.5322 724.5294,-104.3361"/>
<polygon fill="#191970" stroke="#191970" points="311.6099,-150.7711 309.6676,-161.1864 317.681,-154.2557 311.6099,-150.7711"/>
</g>
<!-- Node1761 -->
<g id="node21" class="node">
<title>Node1761</title>
<g id="a_node21"><a xlink:href="libbf_8h.html#a951ec20cd7fa3bf021d165b213e15ce4" target="_top" xlink:title="bf_divrem">
<polygon fill="none" stroke="#ff0000" points="422,-218.5 422,-237.5 488,-237.5 488,-218.5 422,-218.5"/>
<text text-anchor="middle" x="455" y="-225.5" font-family="Helvetica,sans-Serif" font-size="10.00" fill="#000000">bf_divrem</text>
</a>
</g>
</g>
<!-- Node1822&#45;&gt;Node1761 -->
<g id="edge23" class="edge">
<title>Node1822&#45;&gt;Node1761</title>
<path fill="none" stroke="#191970" d="M339.3605,-184.203C366.9944,-194.669 404.9554,-209.0462 429.7275,-218.4284"/>
<polygon fill="#191970" stroke="#191970" points="340.2817,-180.8093 329.6903,-180.5405 337.8024,-187.3556 340.2817,-180.8093"/>
</g>
<!-- Node1823 -->
<g id="node22" class="node">
<title>Node1823</title>
<g id="a_node22"><a xlink:href="libbf_8h.html#a1a8b9ac1fea38b97fc6be8663ce9e867" target="_top" xlink:title="bf_sqrt">
<polygon fill="none" stroke="#ff0000" points="430,-332.5 430,-351.5 480,-351.5 480,-332.5 430,-332.5"/>
<text text-anchor="middle" x="455" y="-339.5" font-family="Helvetica,sans-Serif" font-size="10.00" fill="#000000">bf_sqrt</text>
</a>
</g>
</g>
<!-- Node1822&#45;&gt;Node1823 -->
<g id="edge24" class="edge">
<title>Node1822&#45;&gt;Node1823</title>
<path fill="none" stroke="#191970" d="M313.0654,-190.0304C328.1872,-221.6794 362.4706,-285.3654 409,-323 415.0463,-327.8904 422.5267,-331.6906 429.6856,-334.5627"/>
<polygon fill="#191970" stroke="#191970" points="316.0738,-188.1993 308.6817,-180.6094 309.7272,-191.1525 316.0738,-188.1993"/>
</g>
<!-- Node1824 -->
<g id="node23" class="node">
<title>Node1824</title>
<g id="a_node23"><a xlink:href="libbf_8h.html#aaf7d6961c71cf6614ec51fd78755a031" target="_top" xlink:title="bf_rint">
<polygon fill="none" stroke="#ff0000" points="431,-142.5 431,-161.5 479,-161.5 479,-142.5 431,-142.5"/>
<text text-anchor="middle" x="455" y="-149.5" font-family="Helvetica,sans-Serif" font-size="10.00" fill="#000000">bf_rint</text>
</a>
</g>
</g>
<!-- Node1822&#45;&gt;Node1824 -->
<g id="edge28" class="edge">
<title>Node1822&#45;&gt;Node1824</title>
<path fill="none" stroke="#191970" d="M344.3268,-165.972C371.8166,-162.5016 407.478,-157.9995 430.7856,-155.057"/>
<polygon fill="#191970" stroke="#191970" points="343.7168,-162.5212 334.234,-167.2462 344.5936,-169.466 343.7168,-162.5212"/>
</g>
<!-- Node1825 -->
<g id="node24" class="node">
<title>Node1825</title>
<g id="a_node24"><a xlink:href="libbf_8h.html#a74f8125e45e931d1ecec220cea9c952e" target="_top" xlink:title="bf_get_float64">
<polygon fill="none" stroke="#000000" points="412,-104.5 412,-123.5 498,-123.5 498,-104.5 412,-104.5"/>
<text text-anchor="middle" x="455" y="-111.5" font-family="Helvetica,sans-Serif" font-size="10.00" fill="#000000">bf_get_float64</text>
</a>
</g>
</g>
<!-- Node1822&#45;&gt;Node1825 -->
<g id="edge29" class="edge">
<title>Node1822&#45;&gt;Node1825</title>
<path fill="none" stroke="#191970" d="M339.3605,-157.797C366.9944,-147.331 404.9554,-132.9538 429.7275,-123.5716"/>
<polygon fill="#191970" stroke="#191970" points="337.8024,-154.6444 329.6903,-161.4595 340.2817,-161.1907 337.8024,-154.6444"/>
</g>
<!-- Node1826 -->
<g id="node25" class="node">
<title>Node1826</title>
<g id="a_node25"><a xlink:href="libbf_8c.html#afad3b4ae5f29e7af0b533bb452a4f36a" target="_top" xlink:title="bf_const_get">
<polygon fill="none" stroke="#ff0000" points="415.5,-66.5 415.5,-85.5 494.5,-85.5 494.5,-66.5 415.5,-66.5"/>
<text text-anchor="middle" x="455" y="-73.5" font-family="Helvetica,sans-Serif" font-size="10.00" fill="#000000">bf_const_get</text>
</a>
</g>
</g>
<!-- Node1822&#45;&gt;Node1826 -->
<g id="edge32" class="edge">
<title>Node1822&#45;&gt;Node1826</title>
<path fill="none" stroke="#191970" d="M323.6412,-154.9254C343.9156,-138.429 377.3121,-112.7352 409,-95 415.1827,-91.5396 422.1243,-88.3466 428.7041,-85.6048"/>
<polygon fill="#191970" stroke="#191970" points="321.2943,-152.324 315.7988,-161.3822 325.7436,-157.7281 321.2943,-152.324"/>
</g>
<!-- Node1823&#45;&gt;Node1784 -->
<g id="edge25" class="edge">
<title>Node1823&#45;&gt;Node1784</title>
<path fill="none" stroke="#191970" d="M490.1057,-351.3288C511.9599,-357.1362 539.9997,-364.5873 562.0168,-370.438"/>
<polygon fill="#191970" stroke="#191970" points="490.7998,-347.8918 480.2364,-348.7062 489.002,-354.6571 490.7998,-347.8918"/>
</g>
<!-- Node1823&#45;&gt;Node1808 -->
<g id="edge26" class="edge">
<title>Node1823&#45;&gt;Node1808</title>
<path fill="none" stroke="#191970" d="M490.5163,-342C512.5796,-342 540.826,-342 562.8251,-342"/>
<polygon fill="#191970" stroke="#191970" points="490.2364,-338.5001 480.2364,-342 490.2363,-345.5001 490.2364,-338.5001"/>
</g>
<!-- Node1823&#45;&gt;Node1786 -->
<g id="edge27" class="edge">
<title>Node1823&#45;&gt;Node1786</title>
<path fill="none" stroke="#191970" d="M489.6247,-354.4153C493.5933,-356.3818 497.475,-358.5777 501,-361 520.1739,-374.1756 517.2544,-386.6978 537,-399 543.1194,-402.8126 550.0638,-405.914 557.0198,-408.4195"/>
<polygon fill="#191970" stroke="#191970" points="490.8901,-351.1469 480.3337,-350.2445 488.0233,-357.533 490.8901,-351.1469"/>
</g>
<!-- Node1827&#45;&gt;Node1781 -->
<g id="edge34" class="edge">
<title>Node1827&#45;&gt;Node1781</title>
<path fill="none" stroke="#191970" d="M461.7121,-513.0505C472.8504,-541.929 497.8784,-596.6296 537,-627 541.9942,-630.8771 547.7886,-633.9696 553.7792,-636.4347"/>
<polygon fill="#191970" stroke="#191970" points="464.9935,-511.8328 458.2366,-503.6723 458.4297,-514.2654 464.9935,-511.8328"/>
</g>
<!-- Node1827&#45;&gt;Node1784 -->
<g id="edge35" class="edge">
<title>Node1827&#45;&gt;Node1784</title>
<path fill="none" stroke="#191970" d="M495.7299,-479.2962C497.5997,-477.9772 499.3717,-476.5478 501,-475 528.0896,-449.2495 508.7825,-423.5094 537,-399 541.7733,-394.854 547.4451,-391.6123 553.3787,-389.0778"/>
<polygon fill="#191970" stroke="#191970" points="493.8969,-476.3137 487.0489,-484.398 497.4437,-482.3487 493.8969,-476.3137"/>
</g>
<!-- Node1827&#45;&gt;Node1759 -->
<g id="edge36" class="edge">
<title>Node1827&#45;&gt;Node1759</title>
<path fill="none" stroke="#191970" d="M505.5154,-488.8343C554.0361,-484.1489 629.4376,-477.5911 695,-475 740.5998,-473.1978 793.7558,-473.768 824.7658,-474.3684"/>
<polygon fill="#191970" stroke="#191970" points="504.8961,-485.378 495.2834,-489.8331 505.5762,-492.3449 504.8961,-485.378"/>
</g>
<!-- Node1827&#45;&gt;Node1808 -->
<g id="edge37" class="edge">
<title>Node1827&#45;&gt;Node1808</title>
<path fill="none" stroke="#191970" d="M497.0966,-478.6801C498.4857,-477.5378 499.7951,-476.313 501,-475 536.9244,-435.8522 499.3556,-398.4968 537,-361 543.9942,-354.0332 553.498,-349.614 562.9211,-346.8132"/>
<polygon fill="#191970" stroke="#191970" points="494.8813,-475.9473 488.4398,-484.3591 498.721,-481.8003 494.8813,-475.9473"/>
</g>
<!-- Node1827&#45;&gt;Node1764 -->
<g id="edge38" class="edge">
<title>Node1827&#45;&gt;Node1764</title>
<path fill="none" stroke="#191970" d="M505.1617,-483.4511C556.8871,-471.9672 633.4837,-453.0896 659,-437 695.1251,-414.2209 724.3738,-371.0239 736.2615,-351.7311"/>
<polygon fill="#191970" stroke="#191970" points="504.1866,-480.0818 495.1707,-485.6463 505.6889,-486.9187 504.1866,-480.0818"/>
</g>
<!-- Node1827&#45;&gt;Node1786 -->
<g id="edge39" class="edge">
<title>Node1827&#45;&gt;Node1786</title>
<path fill="none" stroke="#191970" d="M491.7021,-480.2367C494.9225,-478.6146 498.0684,-476.866 501,-475 519.3107,-463.3453 518.5918,-453.4999 537,-442 546.3623,-436.1512 557.3875,-431.2891 567.4713,-427.5055"/>
<polygon fill="#191970" stroke="#191970" points="490.1562,-477.0954 482.5448,-484.4654 493.0909,-483.4505 490.1562,-477.0954"/>
</g>
<!-- Node1827&#45;&gt;Node1787 -->
<g id="edge40" class="edge">
<title>Node1827&#45;&gt;Node1787</title>
<path fill="none" stroke="#191970" d="M505.566,-503.0618C515.9472,-504.8015 526.8148,-506.5354 537,-508 600.8433,-517.1807 676.2558,-525.3163 715.4052,-529.3376"/>
<polygon fill="#191970" stroke="#191970" points="505.8357,-499.5574 495.3902,-501.3298 504.6611,-506.4582 505.8357,-499.5574"/>
</g>
<!-- Node1792 -->
<g id="node27" class="node">
<title>Node1792</title>
<g id="a_node27"><a xlink:href="libbf_8h.html#a45cd74dd3a694c26e716762b7fd36955" target="_top" xlink:title="bf_acos">
<polygon fill="none" stroke="#000000" points="715,-560.5 715,-579.5 769,-579.5 769,-560.5 715,-560.5"/>
<text text-anchor="middle" x="742" y="-567.5" font-family="Helvetica,sans-Serif" font-size="10.00" fill="#000000">bf_acos</text>
</a>
</g>
</g>
<!-- Node1827&#45;&gt;Node1792 -->
<g id="edge41" class="edge">
<title>Node1827&#45;&gt;Node1792</title>
<path fill="none" stroke="#191970" d="M483.5276,-507.8954C499.049,-515.0137 518.7561,-523.3484 537,-529 599.2321,-548.2784 674.98,-560.6792 714.694,-566.3691"/>
<polygon fill="#191970" stroke="#191970" points="484.9961,-504.7183 474.4547,-503.6553 482.0323,-511.06 484.9961,-504.7183"/>
</g>
<!-- Node1828&#45;&gt;Node1782 -->
<g id="edge43" class="edge">
<title>Node1828&#45;&gt;Node1782</title>
<path fill="none" stroke="#191970" d="M648.3532,-621.3642C652.0602,-623.0427 655.6535,-624.915 659,-627 678.7456,-639.3022 675.7766,-651.8967 695,-665 701.5452,-669.4614 709.2973,-673.1343 716.5988,-676.0215"/>
<polygon fill="#191970" stroke="#191970" points="649.5633,-618.0783 638.9802,-617.5805 646.9429,-624.5694 649.5633,-618.0783"/>
</g>
<!-- Node1828&#45;&gt;Node1785 -->
<g id="edge44" class="edge">
<title>Node1828&#45;&gt;Node1785</title>
<path fill="none" stroke="#191970" d="M611.9774,-590.6562C629.5088,-569.8453 661.3722,-535.0115 695,-513 702.0694,-508.3726 710.4461,-504.5439 718.1555,-501.5656"/>
<polygon fill="#191970" stroke="#191970" points="609.2575,-588.4531 605.5801,-598.3893 614.6512,-592.9151 609.2575,-588.4531"/>
</g>
<!-- Node1828&#45;&gt;Node1759 -->
<g id="edge45" class="edge">
<title>Node1828&#45;&gt;Node1759</title>
<path fill="none" stroke="#191970" d="M655.2602,-615.6688C695.8494,-618.1086 749.838,-614.9901 789,-589 826.9186,-563.8351 843.5993,-507.4049 848.9493,-484.7181"/>
<polygon fill="#191970" stroke="#191970" points="655.4747,-612.1753 645.2468,-614.9393 654.966,-619.1568 655.4747,-612.1753"/>
</g>
<!-- Node1828&#45;&gt;Node1787 -->
<g id="edge47" class="edge">
<title>Node1828&#45;&gt;Node1787</title>
<path fill="none" stroke="#191970" d="M621.4525,-592.9001C640.7712,-580.7865 669.1004,-563.7585 695,-551 701.7899,-547.6552 709.322,-544.4134 716.3313,-541.583"/>
<polygon fill="#191970" stroke="#191970" points="619.3213,-590.1068 612.7428,-598.4118 623.0645,-596.0219 619.3213,-590.1068"/>
</g>
<!-- Node1828&#45;&gt;Node1792 -->
<g id="edge48" class="edge">
<title>Node1828&#45;&gt;Node1792</title>
<path fill="none" stroke="#191970" d="M644.0358,-595.8517C667.3447,-589.7007 694.8455,-582.4435 714.7666,-577.1866"/>
<polygon fill="#191970" stroke="#191970" points="643.1132,-592.4752 634.3373,-598.411 644.8994,-599.2435 643.1132,-592.4752"/>
</g>
<!-- Node1766 -->
<g id="node29" class="node">
<title>Node1766</title>
<g id="a_node29"><a xlink:href="libbf_8h.html#a69ea68a6b21d496bd89afeaa9c067ebe" target="_top" xlink:title="bf_cos">
<polygon fill="none" stroke="#000000" points="718,-636.5 718,-655.5 766,-655.5 766,-636.5 718,-636.5"/>
<text text-anchor="middle" x="742" y="-643.5" font-family="Helvetica,sans-Serif" font-size="10.00" fill="#000000">bf_cos</text>
</a>
</g>
</g>
<!-- Node1828&#45;&gt;Node1766 -->
<g id="edge46" class="edge">
<title>Node1828&#45;&gt;Node1766</title>
<path fill="none" stroke="#191970" d="M644.1753,-620.1852C668.6984,-626.6565 697.8289,-634.3437 717.8875,-639.637"/>
<polygon fill="#191970" stroke="#191970" points="644.8994,-616.7565 634.3373,-617.589 643.1132,-623.5248 644.8994,-616.7565"/>
</g>
<!-- Node1802&#45;&gt;Node1782 -->
<g id="edge51" class="edge">
<title>Node1802&#45;&gt;Node1782</title>
<path fill="none" stroke="#191970" d="M669.0954,-687.0377C686.1872,-686.3255 703.3471,-685.6105 716.7214,-685.0533"/>
<polygon fill="#191970" stroke="#191970" points="668.9146,-683.5421 659.069,-687.4555 669.206,-690.536 668.9146,-683.5421"/>
</g>
<!-- Node1802&#45;&gt;Node1759 -->
<g id="edge52" class="edge">
<title>Node1802&#45;&gt;Node1759</title>
<path fill="none" stroke="#191970" d="M642.4266,-708.3539C684.5288,-722.5092 747.3542,-734.8333 789,-703 825.1751,-675.3483 845.2339,-524.1958 849.9239,-484.5337"/>
<polygon fill="#191970" stroke="#191970" points="643.5799,-705.0494 632.985,-705.0327 641.257,-711.6527 643.5799,-705.0494"/>
</g>
</g>
</svg>
        <g id="navigator" transform="translate(0 0)" fill="#404254">
                <rect fill="#f2f5e9" fill-opacity="0.5" stroke="#606060" stroke-width=".5" x="0" y="0" width="60" height="60"/>
                <use id="zoomplus" xlink:href="#zoomPlus" x="17" y="9" onmousedown="handleZoom(evt,'in')"/>
                <use id="zoomminus" xlink:href="#zoomMin" x="42" y="9" onmousedown="handleZoom(evt,'out')"/>
                <use id="reset" xlink:href="#resetDef" x="30" y="36" onmousedown="handleReset()"/>
                <g id="arrowUp" xlink:href="#dirArrow" transform="translate(30 24)" onmousedown="handlePan(0,-1)">
                  <use xlink:href="#rim" fill="#404040">
                        <set attributeName="fill" to="#808080" begin="arrowUp.mouseover" end="arrowUp.mouseout"/>
                  </use>
                  <path fill="none" stroke="white" stroke-width="1.5" d="M0,-3.0v7 M-2.5,-0.5L0,-3.0L2.5,-0.5"/>
                </g>
                <g id="arrowRight" xlink:href="#dirArrow" transform="rotate(90) translate(36 -43)" onmousedown="handlePan(1,0)">
                  <use xlink:href="#rim" fill="#404040">
                        <set attributeName="fill" to="#808080" begin="arrowRight.mouseover" end="arrowRight.mouseout"/>
                  </use>
                  <path fill="none" stroke="white" stroke-width="1.5" d="M0,-3.0v7 M-2.5,-0.5L0,-3.0L2.5,-0.5"/>
                </g>
                <g id="arrowDown" xlink:href="#dirArrow" transform="rotate(180) translate(-30 -48)" onmousedown="handlePan(0,1)">
                  <use xlink:href="#rim" fill="#404040">
                        <set attributeName="fill" to="#808080" begin="arrowDown.mouseover" end="arrowDown.mouseout"/>
                  </use>
                  <path fill="none" stroke="white" stroke-width="1.5" d="M0,-3.0v7 M-2.5,-0.5L0,-3.0L2.5,-0.5"/>
                </g>
                <g id="arrowLeft" xlink:href="#dirArrow" transform="rotate(270) translate(-36 17)" onmousedown="handlePan(-1,0)">
                  <use xlink:href="#rim" fill="#404040">
                        <set attributeName="fill" to="#808080" begin="arrowLeft.mouseover" end="arrowLeft.mouseout"/>
                  </use>
                  <path fill="none" stroke="white" stroke-width="1.5" d="M0,-3.0v7 M-2.5,-0.5L0,-3.0L2.5,-0.5"/>
                </g>
        </g>
        <svg viewBox="0 0 15 15" width="100%" height="30px" preserveAspectRatio="xMaxYMin meet">
         <g id="arrow_out" transform="scale(0.3 0.3)">
          <a xlink:href="libbf_8c_af464f3c1421a7305372819f949667273_icgraph_org.svg" target="_base">
           <rect id="button" ry="5" rx="5" y="6" x="6" height="38" width="38"
                fill="#f2f5e9" fill-opacity="0.5" stroke="#606060" stroke-width="1.0"/>
           <path id="arrow"
             d="M 11.500037,31.436501 C 11.940474,20.09759 22.043105,11.32322 32.158766,21.979434 L 37.068811,17.246167 C 37.068811,17.246167 37.088388,32 37.088388,32 L 22.160133,31.978069 C 22.160133,31.978069 26.997745,27.140456 26.997745,27.140456 C 18.528582,18.264221 13.291696,25.230495 11.500037,31.436501 z"
             style="fill:#404040;"/>
          </a>
         </g>
        </svg>
</svg>
