<?xml version="1.0" encoding="UTF-8" standalone="no"?>
<!DOCTYPE svg PUBLIC "-//W3C//DTD SVG 1.1//EN"
 "http://www.w3.org/Graphics/SVG/1.1/DTD/svg11.dtd">
<!-- Generated by graphviz version 2.40.1 (20161225.0304)
 -->
<!-- Title: bf_const_pi Pages: 1 -->
<!--zoomable 452 -->
<svg id="main" version="1.1" xmlns="http://www.w3.org/2000/svg" xmlns:xlink="http://www.w3.org/1999/xlink" xml:space="preserve" onload="init(evt)">
<style type="text/css"><![CDATA[
.edge:hover path { stroke: red; }
.edge:hover polygon { stroke: red; fill: red; }
]]></style>
<script type="text/javascript"><![CDATA[
var edges = document.getElementsByTagName('g');
if (edges && edges.length) {
  for (var i=0;i<edges.length;i++) {
    if (edges[i].id.substr(0,4)=='edge') {
      edges[i].setAttribute('class','edge');
    }
  }
}
]]></script>
        <defs>
                <circle id="rim" cx="0" cy="0" r="7"/>
                <circle id="rim2" cx="0" cy="0" r="3.5"/>
                <g id="zoomPlus">
                        <use xlink:href="#rim" fill="#404040">
                                <set attributeName="fill" to="#808080" begin="zoomplus.mouseover" end="zoomplus.mouseout"/>
                        </use>
                        <path d="M-4,0h8M0,-4v8" fill="none" stroke="white" stroke-width="1.5" pointer-events="none"/>
                </g>
                <g id="zoomMin">
                        <use xlink:href="#rim" fill="#404040">
                                <set attributeName="fill" to="#808080" begin="zoomminus.mouseover" end="zoomminus.mouseout"/>
                        </use>
                        <path d="M-4,0h8" fill="none" stroke="white" stroke-width="1.5" pointer-events="none"/>
                </g>
                <g id="dirArrow">
                        <path fill="none" stroke="white" stroke-width="1.5" d="M0,-3.0v7 M-2.5,-0.5L0,-3.0L2.5,-0.5"/>
                </g>
               <g id="resetDef">
                       <use xlink:href="#rim2" fill="#404040">
                               <set attributeName="fill" to="#808080" begin="reset.mouseover" end="reset.mouseout"/>
                       </use>
               </g>
        </defs>

<script type="text/javascript">
var viewWidth = 774;
var viewHeight = 452;
var sectionId = 'dynsection-199';
</script>
<script xlink:href="svgpan.js"/>
<svg id="graph" class="graph">
<g id="viewport">
<title>bf_const_pi</title>
<!-- Node7430 -->
<g id="node1" class="node">
<title>Node7430</title>
<polygon fill="#bfbfbf" stroke="#000000" points="0,-261.5362 0,-280.5362 72,-280.5362 72,-261.5362 0,-261.5362"/>
<text text-anchor="middle" x="36" y="-268.5362" font-family="Helvetica,sans-Serif" font-size="10.00" fill="#000000">bf_const_pi</text>
</g>
<!-- Node7431 -->
<g id="node2" class="node">
<title>Node7431</title>
<g id="a_node2"><a xlink:href="libbf_8c.html#a25b9653cbfca557499e786f8d2a7eb2e" target="_top" xlink:title="bf_const_pi_signed">
<polygon fill="none" stroke="#000000" points="108,-261.5362 108,-280.5362 218,-280.5362 218,-261.5362 108,-261.5362"/>
<text text-anchor="middle" x="163" y="-268.5362" font-family="Helvetica,sans-Serif" font-size="10.00" fill="#000000">bf_const_pi_signed</text>
</a>
</g>
</g>
<!-- Node7430&#45;&gt;Node7431 -->
<g id="edge1" class="edge">
<title>Node7430&#45;&gt;Node7431</title>
<path fill="none" stroke="#191970" d="M72.0534,-271.0362C80.1522,-271.0362 88.9885,-271.0362 97.8674,-271.0362"/>
<polygon fill="#191970" stroke="#191970" points="97.8731,-274.5363 107.8731,-271.0362 97.8731,-267.5363 97.8731,-274.5363"/>
</g>
<!-- Node7432 -->
<g id="node3" class="node">
<title>Node7432</title>
<g id="a_node3"><a xlink:href="libbf_8c.html#afad3b4ae5f29e7af0b533bb452a4f36a" target="_top" xlink:title="bf_const_get">
<polygon fill="none" stroke="#000000" points="405,-423.5362 405,-442.5362 484,-442.5362 484,-423.5362 405,-423.5362"/>
<text text-anchor="middle" x="444.5" y="-430.5362" font-family="Helvetica,sans-Serif" font-size="10.00" fill="#000000">bf_const_get</text>
</a>
</g>
</g>
<!-- Node7431&#45;&gt;Node7432 -->
<g id="edge2" class="edge">
<title>Node7431&#45;&gt;Node7432</title>
<path fill="none" stroke="#191970" d="M178.3093,-280.7036C216.1601,-304.4678 317.4239,-367.2087 405,-414.0362 408.1142,-415.7014 411.3973,-417.3872 414.6857,-419.0314"/>
<polygon fill="#191970" stroke="#191970" points="413.3108,-422.2551 423.8319,-423.5036 416.3858,-415.9666 413.3108,-422.2551"/>
</g>
<!-- Node7448 -->
<g id="node7" class="node">
<title>Node7448</title>
<g id="a_node7"><a xlink:href="libbf_8c.html#a11d2dea6becda91c288fd883eefc8e5c" target="_top" xlink:title="bf_const_pi_internal">
<polygon fill="none" stroke="#000000" points="254,-242.5362 254,-261.5362 369,-261.5362 369,-242.5362 254,-242.5362"/>
<text text-anchor="middle" x="311.5" y="-249.5362" font-family="Helvetica,sans-Serif" font-size="10.00" fill="#000000">bf_const_pi_internal</text>
</a>
</g>
</g>
<!-- Node7431&#45;&gt;Node7448 -->
<g id="edge6" class="edge">
<title>Node7431&#45;&gt;Node7448</title>
<path fill="none" stroke="#191970" d="M218.2959,-263.9613C226.5937,-262.8996 235.2299,-261.7947 243.7511,-260.7044"/>
<polygon fill="#191970" stroke="#191970" points="244.1992,-264.1757 253.6741,-259.4348 243.3107,-257.2323 244.1992,-264.1757"/>
</g>
<!-- Node7433 -->
<g id="node4" class="node">
<title>Node7433</title>
<g id="a_node4"><a xlink:href="libbf_8h.html#abacc1410890af049e02ebd788364ac48" target="_top" xlink:title="bf_init">
<polygon fill="none" stroke="#000000" points="719,-195.5362 719,-214.5362 766,-214.5362 766,-195.5362 719,-195.5362"/>
<text text-anchor="middle" x="742.5" y="-202.5362" font-family="Helvetica,sans-Serif" font-size="10.00" fill="#000000">bf_init</text>
</a>
</g>
</g>
<!-- Node7432&#45;&gt;Node7433 -->
<g id="edge3" class="edge">
<title>Node7432&#45;&gt;Node7433</title>
<path fill="none" stroke="#191970" d="M484.2732,-441.0178C513.3307,-444.9853 553.0668,-446.4527 585,-433.0362 675.7326,-394.9156 722.0285,-272.1322 736.9691,-224.3326"/>
<polygon fill="#191970" stroke="#191970" points="740.3669,-225.1873 739.8959,-214.603 733.6636,-223.1709 740.3669,-225.1873"/>
</g>
<!-- Node7434 -->
<g id="node5" class="node">
<title>Node7434</title>
<g id="a_node5"><a xlink:href="libbf_8h.html#abd4ca8358212228a53981a32a10286b5" target="_top" xlink:title="bf_round">
<polygon fill="none" stroke="#ff0000" points="523,-366.5362 523,-385.5362 582,-385.5362 582,-366.5362 523,-366.5362"/>
<text text-anchor="middle" x="552.5" y="-373.5362" font-family="Helvetica,sans-Serif" font-size="10.00" fill="#000000">bf_round</text>
</a>
</g>
</g>
<!-- Node7432&#45;&gt;Node7434 -->
<g id="edge4" class="edge">
<title>Node7432&#45;&gt;Node7434</title>
<path fill="none" stroke="#191970" d="M465.1134,-423.3995C471.2291,-420.4656 477.917,-417.1831 484,-414.0362 498.3854,-406.5943 514.2112,-397.8525 527.0238,-390.6308"/>
<polygon fill="#191970" stroke="#191970" points="528.7829,-393.657 535.7572,-385.6814 525.3315,-387.567 528.7829,-393.657"/>
</g>
<!-- Node7447 -->
<g id="node6" class="node">
<title>Node7447</title>
<g id="a_node6"><a xlink:href="libbf_8h.html#ae019ee8073f4359da157d3b1e5fdba7e" target="_top" xlink:title="bf_set">
<polygon fill="none" stroke="#ff0000" points="529,-404.5362 529,-423.5362 576,-423.5362 576,-404.5362 529,-404.5362"/>
<text text-anchor="middle" x="552.5" y="-411.5362" font-family="Helvetica,sans-Serif" font-size="10.00" fill="#000000">bf_set</text>
</a>
</g>
</g>
<!-- Node7432&#45;&gt;Node7447 -->
<g id="edge5" class="edge">
<title>Node7432&#45;&gt;Node7447</title>
<path fill="none" stroke="#191970" d="M484.102,-426.0692C495.5073,-424.0627 507.8371,-421.8936 518.8456,-419.9569"/>
<polygon fill="#191970" stroke="#191970" points="519.6797,-423.364 528.922,-418.1842 518.4668,-416.4699 519.6797,-423.364"/>
</g>
<!-- Node7448&#45;&gt;Node7433 -->
<g id="edge10" class="edge">
<title>Node7448&#45;&gt;Node7433</title>
<path fill="none" stroke="#191970" d="M345.3579,-261.5891C412.6047,-278.7386 566.5528,-308.8131 683,-262.0362 702.6,-254.1629 719.3845,-236.4093 730.0808,-222.7923"/>
<polygon fill="#191970" stroke="#191970" points="733.0274,-224.6957 736.1991,-214.5867 727.4156,-220.5114 733.0274,-224.6957"/>
</g>
<!-- Node7449 -->
<g id="node8" class="node">
<title>Node7449</title>
<g id="a_node8"><a xlink:href="libbf_8h.html#a17dc09166f82ffa408f54a2edc4d7855" target="_top" xlink:title="bf_add">
<polygon fill="none" stroke="#ff0000" points="527.5,-43.5362 527.5,-62.5362 577.5,-62.5362 577.5,-43.5362 527.5,-43.5362"/>
<text text-anchor="middle" x="552.5" y="-50.5362" font-family="Helvetica,sans-Serif" font-size="10.00" fill="#000000">bf_add</text>
</a>
</g>
</g>
<!-- Node7448&#45;&gt;Node7449 -->
<g id="edge7" class="edge">
<title>Node7448&#45;&gt;Node7449</title>
<path fill="none" stroke="#191970" d="M318.7561,-242.3638C333.5708,-223.0063 368.9521,-178.7303 405,-148.0362 443.6714,-115.1083 494.5454,-84.7702 525.3178,-67.6187"/>
<polygon fill="#191970" stroke="#191970" points="527.1181,-70.6229 534.1867,-62.7309 523.7393,-64.4923 527.1181,-70.6229"/>
</g>
<!-- Node7464 -->
<g id="node9" class="node">
<title>Node7464</title>
<g id="a_node9"><a xlink:href="libbf_8h.html#a2b9d906b21e903f2f7f1c9044674ab7d" target="_top" xlink:title="bf_delete">
<polygon fill="none" stroke="#ff0000" points="621,-233.5362 621,-252.5362 683,-252.5362 683,-233.5362 621,-233.5362"/>
<text text-anchor="middle" x="652" y="-240.5362" font-family="Helvetica,sans-Serif" font-size="10.00" fill="#000000">bf_delete</text>
</a>
</g>
</g>
<!-- Node7448&#45;&gt;Node7464 -->
<g id="edge8" class="edge">
<title>Node7448&#45;&gt;Node7464</title>
<path fill="none" stroke="#191970" d="M369.1273,-250.6325C424.4781,-249.2673 510.4565,-247.1027 585,-245.0362 593.3528,-244.8046 602.291,-244.5456 610.829,-244.2928"/>
<polygon fill="#191970" stroke="#191970" points="611.0878,-247.7867 620.9789,-243.9897 610.8788,-240.7898 611.0878,-247.7867"/>
</g>
<!-- Node7465 -->
<g id="node10" class="node">
<title>Node7465</title>
<g id="a_node10"><a xlink:href="libbf_8h.html#a030665e68e114717678fb0d0453bb3c6" target="_top" xlink:title="bf_div">
<polygon fill="none" stroke="#ff0000" points="421,-347.5362 421,-366.5362 468,-366.5362 468,-347.5362 421,-347.5362"/>
<text text-anchor="middle" x="444.5" y="-354.5362" font-family="Helvetica,sans-Serif" font-size="10.00" fill="#000000">bf_div</text>
</a>
</g>
</g>
<!-- Node7448&#45;&gt;Node7465 -->
<g id="edge9" class="edge">
<title>Node7448&#45;&gt;Node7465</title>
<path fill="none" stroke="#191970" d="M321.4089,-261.6144C337.9891,-277.4076 372.7204,-309.5038 405,-333.0362 409.2674,-336.1472 413.9512,-339.2448 418.5553,-342.1303"/>
<polygon fill="#191970" stroke="#191970" points="416.8158,-345.1687 427.1804,-347.3655 420.4479,-339.1847 416.8158,-345.1687"/>
</g>
<!-- Node7509 -->
<g id="node11" class="node">
<title>Node7509</title>
<g id="a_node11"><a xlink:href="libbf_8h.html#ac290278d0c37a0e7786873f98aadba47" target="_top" xlink:title="bf_mul">
<polygon fill="none" stroke="#ff0000" points="627,-119.5362 627,-138.5362 677,-138.5362 677,-119.5362 627,-119.5362"/>
<text text-anchor="middle" x="652" y="-126.5362" font-family="Helvetica,sans-Serif" font-size="10.00" fill="#000000">bf_mul</text>
</a>
</g>
</g>
<!-- Node7448&#45;&gt;Node7509 -->
<g id="edge11" class="edge">
<title>Node7448&#45;&gt;Node7509</title>
<path fill="none" stroke="#191970" d="M314.7436,-242.2609C324.3286,-214.7088 355.0204,-135.4156 405,-89.0362 446.5295,-50.4982 464.7478,-46.5689 520,-34.0362 548.1732,-27.6458 560.5886,-18.5879 585,-34.0362 616.5828,-54.0228 596.0292,-82.2262 621,-110.0362 622.0016,-111.1517 623.0842,-112.2237 624.2241,-113.2508"/>
<polygon fill="#191970" stroke="#191970" points="622.2359,-116.1351 632.3281,-119.3599 626.4496,-110.5454 622.2359,-116.1351"/>
</g>
<!-- Node7510 -->
<g id="node12" class="node">
<title>Node7510</title>
<g id="a_node12"><a xlink:href="libbf_8h.html#acee0d550162528b5ca5513d4479549c2" target="_top" xlink:title="bf_mul_ui">
<polygon fill="none" stroke="#000000" points="520,-195.5362 520,-214.5362 585,-214.5362 585,-195.5362 520,-195.5362"/>
<text text-anchor="middle" x="552.5" y="-202.5362" font-family="Helvetica,sans-Serif" font-size="10.00" fill="#000000">bf_mul_ui</text>
</a>
</g>
</g>
<!-- Node7448&#45;&gt;Node7510 -->
<g id="edge13" class="edge">
<title>Node7448&#45;&gt;Node7510</title>
<path fill="none" stroke="#191970" d="M360.2699,-242.525C404.2341,-233.9511 468.2273,-221.4711 510.1056,-213.304"/>
<polygon fill="#191970" stroke="#191970" points="510.8447,-216.7259 519.9898,-211.3764 509.5048,-209.8553 510.8447,-216.7259"/>
</g>
<!-- Node7511 -->
<g id="node13" class="node">
<title>Node7511</title>
<g id="a_node13"><a xlink:href="libbf_8h.html#a2378f025beace5741c19bf995c2971d3" target="_top" xlink:title="bf_set_ui">
<polygon fill="none" stroke="#ff0000" points="621.5,-81.5362 621.5,-100.5362 682.5,-100.5362 682.5,-81.5362 621.5,-81.5362"/>
<text text-anchor="middle" x="652" y="-88.5362" font-family="Helvetica,sans-Serif" font-size="10.00" fill="#000000">bf_set_ui</text>
</a>
</g>
</g>
<!-- Node7448&#45;&gt;Node7511 -->
<g id="edge18" class="edge">
<title>Node7448&#45;&gt;Node7511</title>
<path fill="none" stroke="#191970" d="M312.4986,-242.4143C316.5933,-208.2822 335.3387,-92.2087 405,-39.0362 468.8747,9.7194 510.9888,9.2597 585,-22.0362 609.2651,-32.2968 629.0705,-56.1203 640.696,-72.8905"/>
<polygon fill="#191970" stroke="#191970" points="637.8547,-74.9393 646.2894,-81.3507 643.6939,-71.0787 637.8547,-74.9393"/>
</g>
<!-- Node7512 -->
<g id="node14" class="node">
<title>Node7512</title>
<g id="a_node14"><a xlink:href="libbf_8h.html#a1a8b9ac1fea38b97fc6be8663ce9e867" target="_top" xlink:title="bf_sqrt">
<polygon fill="none" stroke="#ff0000" points="419.5,-385.5362 419.5,-404.5362 469.5,-404.5362 469.5,-385.5362 419.5,-385.5362"/>
<text text-anchor="middle" x="444.5" y="-392.5362" font-family="Helvetica,sans-Serif" font-size="10.00" fill="#000000">bf_sqrt</text>
</a>
</g>
</g>
<!-- Node7448&#45;&gt;Node7512 -->
<g id="edge19" class="edge">
<title>Node7448&#45;&gt;Node7512</title>
<path fill="none" stroke="#191970" d="M316.6027,-261.6525C329.0138,-284.2675 362.8756,-341.5144 405,-376.0362 406.957,-377.64 409.072,-379.1477 411.2709,-380.5573"/>
<polygon fill="#191970" stroke="#191970" points="409.5843,-383.6243 420.0113,-385.5026 413.0315,-377.5319 409.5843,-383.6243"/>
</g>
<!-- Node7518 -->
<g id="node15" class="node">
<title>Node7518</title>
<g id="a_node15"><a xlink:href="libbf_8c.html#a81e50b3d7e7a931a93d6ea7e1d630631" target="_top" xlink:title="chud_bs">
<polygon fill="none" stroke="#000000" points="416.5,-157.5362 416.5,-176.5362 472.5,-176.5362 472.5,-157.5362 416.5,-157.5362"/>
<text text-anchor="middle" x="444.5" y="-164.5362" font-family="Helvetica,sans-Serif" font-size="10.00" fill="#000000">chud_bs</text>
</a>
</g>
</g>
<!-- Node7448&#45;&gt;Node7518 -->
<g id="edge22" class="edge">
<title>Node7448&#45;&gt;Node7518</title>
<path fill="none" stroke="#191970" d="M326.4983,-242.4508C349.4477,-227.7839 393.4823,-199.6415 420.7882,-182.1904"/>
<polygon fill="#191970" stroke="#191970" points="422.8111,-185.0513 429.3525,-176.7169 419.0415,-179.153 422.8111,-185.0513"/>
</g>
<!-- Node7509&#45;&gt;Node7433 -->
<g id="edge12" class="edge">
<title>Node7509&#45;&gt;Node7433</title>
<path fill="none" stroke="#191970" d="M664.8036,-138.6768C670.4441,-142.9933 677.1135,-148.1925 683,-153.0362 696.9801,-164.5398 712.3584,-178.0017 723.9782,-188.346"/>
<polygon fill="#191970" stroke="#191970" points="721.9145,-191.196 731.7012,-195.2546 726.5816,-185.9788 721.9145,-191.196"/>
</g>
<!-- Node7510&#45;&gt;Node7433 -->
<g id="edge14" class="edge">
<title>Node7510&#45;&gt;Node7433</title>
<path fill="none" stroke="#191970" d="M585.1622,-205.0362C619.6815,-205.0362 673.861,-205.0362 708.7769,-205.0362"/>
<polygon fill="#191970" stroke="#191970" points="708.9513,-208.5363 718.9513,-205.0362 708.9513,-201.5363 708.9513,-208.5363"/>
</g>
<!-- Node7510&#45;&gt;Node7464 -->
<g id="edge17" class="edge">
<title>Node7510&#45;&gt;Node7464</title>
<path fill="none" stroke="#191970" d="M577.6081,-214.6252C589.6277,-219.2156 604.2147,-224.7865 617.2765,-229.775"/>
<polygon fill="#191970" stroke="#191970" points="616.3093,-233.1521 626.9,-233.4503 618.8068,-226.6128 616.3093,-233.1521"/>
</g>
<!-- Node7510&#45;&gt;Node7509 -->
<g id="edge16" class="edge">
<title>Node7510&#45;&gt;Node7509</title>
<path fill="none" stroke="#191970" d="M565.1017,-195.4107C581.7738,-182.6763 611.3775,-160.0645 631.3432,-144.8143"/>
<polygon fill="#191970" stroke="#191970" points="633.6781,-147.435 639.5006,-138.5835 629.429,-141.8721 633.6781,-147.435"/>
</g>
<!-- Node7510&#45;&gt;Node7511 -->
<g id="edge15" class="edge">
<title>Node7510&#45;&gt;Node7511</title>
<path fill="none" stroke="#191970" d="M557.6768,-195.4572C567.9069,-177.169 592.2316,-136.7277 621,-110.0362 622.3044,-108.826 623.6973,-107.652 625.1435,-106.5208"/>
<polygon fill="#191970" stroke="#191970" points="627.5306,-109.1254 633.7631,-100.5576 623.548,-103.3687 627.5306,-109.1254"/>
</g>
<!-- Node7512&#45;&gt;Node7434 -->
<g id="edge21" class="edge">
<title>Node7512&#45;&gt;Node7434</title>
<path fill="none" stroke="#191970" d="M469.5488,-390.6295C482.3853,-388.3712 498.3206,-385.5678 512.7832,-383.0234"/>
<polygon fill="#191970" stroke="#191970" points="513.7462,-386.4078 522.9885,-381.228 512.5333,-379.5137 513.7462,-386.4078"/>
</g>
<!-- Node7512&#45;&gt;Node7447 -->
<g id="edge20" class="edge">
<title>Node7512&#45;&gt;Node7447</title>
<path fill="none" stroke="#191970" d="M469.5488,-399.4429C484.1681,-402.0148 502.8066,-405.2938 518.7114,-408.0919"/>
<polygon fill="#191970" stroke="#191970" points="518.2435,-411.5633 528.6987,-409.8489 519.4564,-404.6691 518.2435,-411.5633"/>
</g>
<!-- Node7518&#45;&gt;Node7433 -->
<g id="edge25" class="edge">
<title>Node7518&#45;&gt;Node7433</title>
<path fill="none" stroke="#191970" d="M472.5351,-170.6111C527.618,-177.6351 649.744,-193.2082 708.9807,-200.7619"/>
<polygon fill="#191970" stroke="#191970" points="708.58,-204.2391 718.9424,-202.0322 709.4655,-197.2953 708.58,-204.2391"/>
</g>
<!-- Node7518&#45;&gt;Node7449 -->
<g id="edge23" class="edge">
<title>Node7518&#45;&gt;Node7449</title>
<path fill="none" stroke="#191970" d="M451.337,-157.4665C463.8523,-140.2962 491.7642,-103.5753 520,-77.0362 523.0186,-74.199 526.3743,-71.3934 529.7508,-68.756"/>
<polygon fill="#191970" stroke="#191970" points="532.066,-71.3962 538.007,-62.6238 527.8921,-65.7767 532.066,-71.3962"/>
</g>
<!-- Node7518&#45;&gt;Node7464 -->
<g id="edge24" class="edge">
<title>Node7518&#45;&gt;Node7464</title>
<path fill="none" stroke="#191970" d="M453.7404,-176.5547C467.0547,-189.6269 493.0149,-212.7916 520,-224.0362 548.8668,-236.0648 584.0186,-240.6896 610.7872,-242.3749"/>
<polygon fill="#191970" stroke="#191970" points="610.8026,-245.8802 620.9699,-242.901 611.1638,-238.8896 610.8026,-245.8802"/>
</g>
<!-- Node7518&#45;&gt;Node7509 -->
<g id="edge26" class="edge">
<title>Node7518&#45;&gt;Node7509</title>
<path fill="none" stroke="#191970" d="M472.819,-161.7608C486.9858,-159.1279 504.3969,-155.9013 520,-153.0362 552.764,-147.02 590.117,-140.2354 616.7062,-135.4187"/>
<polygon fill="#191970" stroke="#191970" points="617.4736,-138.8367 626.6899,-133.6109 616.2263,-131.9487 617.4736,-138.8367"/>
</g>
<!-- Node7518&#45;&gt;Node7510 -->
<g id="edge27" class="edge">
<title>Node7518&#45;&gt;Node7510</title>
<path fill="none" stroke="#191970" d="M471.753,-176.6252C485.0552,-181.3056 501.2545,-187.0054 515.6423,-192.0677"/>
<polygon fill="#191970" stroke="#191970" points="514.6609,-195.4327 525.2558,-195.4503 516.9843,-188.8295 514.6609,-195.4327"/>
</g>
<!-- Node7518&#45;&gt;Node7511 -->
<g id="edge28" class="edge">
<title>Node7518&#45;&gt;Node7511</title>
<path fill="none" stroke="#191970" d="M467.8658,-157.452C482.7305,-151.4293 502.4223,-143.5878 520,-137.0362 551.456,-125.3118 587.4581,-112.8272 613.9092,-103.827"/>
<polygon fill="#191970" stroke="#191970" points="615.204,-107.0838 623.5498,-100.5571 612.9555,-100.4547 615.204,-107.0838"/>
</g>
<!-- Node7518&#45;&gt;Node7518 -->
<g id="edge29" class="edge">
<title>Node7518&#45;&gt;Node7518</title>
<path fill="none" stroke="#191970" d="M427.8541,-176.7933C419.756,-185.6015 425.3047,-195.0362 444.5,-195.0362 456.4971,-195.0362 463.1634,-191.3508 464.499,-186.4362"/>
<polygon fill="#191970" stroke="#191970" points="467.7362,-185.089 461.1459,-176.7933 461.1245,-187.3881 467.7362,-185.089"/>
</g>
</g>
</svg>
        <g id="navigator" transform="translate(0 0)" fill="#404254">
                <rect fill="#f2f5e9" fill-opacity="0.5" stroke="#606060" stroke-width=".5" x="0" y="0" width="60" height="60"/>
                <use id="zoomplus" xlink:href="#zoomPlus" x="17" y="9" onmousedown="handleZoom(evt,'in')"/>
                <use id="zoomminus" xlink:href="#zoomMin" x="42" y="9" onmousedown="handleZoom(evt,'out')"/>
                <use id="reset" xlink:href="#resetDef" x="30" y="36" onmousedown="handleReset()"/>
                <g id="arrowUp" xlink:href="#dirArrow" transform="translate(30 24)" onmousedown="handlePan(0,-1)">
                  <use xlink:href="#rim" fill="#404040">
                        <set attributeName="fill" to="#808080" begin="arrowUp.mouseover" end="arrowUp.mouseout"/>
                  </use>
                  <path fill="none" stroke="white" stroke-width="1.5" d="M0,-3.0v7 M-2.5,-0.5L0,-3.0L2.5,-0.5"/>
                </g>
                <g id="arrowRight" xlink:href="#dirArrow" transform="rotate(90) translate(36 -43)" onmousedown="handlePan(1,0)">
                  <use xlink:href="#rim" fill="#404040">
                        <set attributeName="fill" to="#808080" begin="arrowRight.mouseover" end="arrowRight.mouseout"/>
                  </use>
                  <path fill="none" stroke="white" stroke-width="1.5" d="M0,-3.0v7 M-2.5,-0.5L0,-3.0L2.5,-0.5"/>
                </g>
                <g id="arrowDown" xlink:href="#dirArrow" transform="rotate(180) translate(-30 -48)" onmousedown="handlePan(0,1)">
                  <use xlink:href="#rim" fill="#404040">
                        <set attributeName="fill" to="#808080" begin="arrowDown.mouseover" end="arrowDown.mouseout"/>
                  </use>
                  <path fill="none" stroke="white" stroke-width="1.5" d="M0,-3.0v7 M-2.5,-0.5L0,-3.0L2.5,-0.5"/>
                </g>
                <g id="arrowLeft" xlink:href="#dirArrow" transform="rotate(270) translate(-36 17)" onmousedown="handlePan(-1,0)">
                  <use xlink:href="#rim" fill="#404040">
                        <set attributeName="fill" to="#808080" begin="arrowLeft.mouseover" end="arrowLeft.mouseout"/>
                  </use>
                  <path fill="none" stroke="white" stroke-width="1.5" d="M0,-3.0v7 M-2.5,-0.5L0,-3.0L2.5,-0.5"/>
                </g>
        </g>
        <svg viewBox="0 0 15 15" width="100%" height="30px" preserveAspectRatio="xMaxYMin meet">
         <g id="arrow_out" transform="scale(0.3 0.3)">
          <a xlink:href="libbf_8c_aff86bca731f3c8ffe45f0f1129175961_cgraph_org.svg" target="_base">
           <rect id="button" ry="5" rx="5" y="6" x="6" height="38" width="38"
                fill="#f2f5e9" fill-opacity="0.5" stroke="#606060" stroke-width="1.0"/>
           <path id="arrow"
             d="M 11.500037,31.436501 C 11.940474,20.09759 22.043105,11.32322 32.158766,21.979434 L 37.068811,17.246167 C 37.068811,17.246167 37.088388,32 37.088388,32 L 22.160133,31.978069 C 22.160133,31.978069 26.997745,27.140456 26.997745,27.140456 C 18.528582,18.264221 13.291696,25.230495 11.500037,31.436501 z"
             style="fill:#404040;"/>
          </a>
         </g>
        </svg>
</svg>
