<?xml version="1.0" encoding="UTF-8" standalone="no"?>
<!DOCTYPE svg PUBLIC "-//W3C//DTD SVG 1.1//EN"
 "http://www.w3.org/Graphics/SVG/1.1/DTD/svg11.dtd">
<!-- Generated by graphviz version 2.40.1 (20161225.0304)
 -->
<!-- Title: put_bits Pages: 1 -->
<svg width="351pt" height="66pt"
 viewBox="0.00 0.00 351.00 66.00" xmlns="http://www.w3.org/2000/svg" xmlns:xlink="http://www.w3.org/1999/xlink">
<g id="graph0" class="graph" transform="scale(1 1) rotate(0) translate(4 62)">
<title>put_bits</title>
<!-- Node11657 -->
<g id="node1" class="node">
<title>Node11657</title>
<polygon fill="#bfbfbf" stroke="#000000" points="0,-19.5 0,-38.5 56,-38.5 56,-19.5 0,-19.5"/>
<text text-anchor="middle" x="28" y="-26.5" font-family="Helvetica,sans-Serif" font-size="10.00" fill="#000000">put_bits</text>
</g>
<!-- Node11658 -->
<g id="node2" class="node">
<title>Node11658</title>
<g id="a_node2"><a xlink:href="libbf_8c.html#a4807fe371a7663e3e75a1cf8e07b69eb" target="_top" xlink:title="ntt_to_limb">
<polygon fill="none" stroke="#000000" points="92,-19.5 92,-38.5 164,-38.5 164,-19.5 92,-19.5"/>
<text text-anchor="middle" x="128" y="-26.5" font-family="Helvetica,sans-Serif" font-size="10.00" fill="#000000">ntt_to_limb</text>
</a>
</g>
</g>
<!-- Node11657&#45;&gt;Node11658 -->
<g id="edge1" class="edge">
<title>Node11657&#45;&gt;Node11658</title>
<path fill="none" stroke="#191970" d="M66.3973,-29C74.7632,-29 83.5878,-29 91.8624,-29"/>
<polygon fill="#191970" stroke="#191970" points="66.1217,-25.5001 56.1217,-29 66.1217,-32.5001 66.1217,-25.5001"/>
</g>
<!-- Node11659 -->
<g id="node3" class="node">
<title>Node11659</title>
<g id="a_node3"><a xlink:href="libbf_8c.html#aced93436f1e8ca41feb00d8070cfcbde" target="_top" xlink:title="fft_mul">
<polygon fill="none" stroke="#000000" points="200,-19.5 200,-38.5 251,-38.5 251,-19.5 200,-19.5"/>
<text text-anchor="middle" x="225.5" y="-26.5" font-family="Helvetica,sans-Serif" font-size="10.00" fill="#000000">fft_mul</text>
</a>
</g>
</g>
<!-- Node11658&#45;&gt;Node11659 -->
<g id="edge2" class="edge">
<title>Node11658&#45;&gt;Node11659</title>
<path fill="none" stroke="#191970" d="M174.2875,-29C183.1286,-29 192.078,-29 199.9686,-29"/>
<polygon fill="#191970" stroke="#191970" points="174.0284,-25.5001 164.0284,-29 174.0284,-32.5001 174.0284,-25.5001"/>
</g>
<!-- Node11660 -->
<g id="node4" class="node">
<title>Node11660</title>
<g id="a_node4"><a xlink:href="libbf_8h.html#ac290278d0c37a0e7786873f98aadba47" target="_top" xlink:title="bf_mul">
<polygon fill="none" stroke="#ff0000" points="290,-38.5 290,-57.5 340,-57.5 340,-38.5 290,-38.5"/>
<text text-anchor="middle" x="315" y="-45.5" font-family="Helvetica,sans-Serif" font-size="10.00" fill="#000000">bf_mul</text>
</a>
</g>
</g>
<!-- Node11659&#45;&gt;Node11660 -->
<g id="edge3" class="edge">
<title>Node11659&#45;&gt;Node11660</title>
<path fill="none" stroke="#191970" d="M261.4033,-36.6219C270.9137,-38.6409 280.9794,-40.7777 289.7882,-42.6478"/>
<polygon fill="#191970" stroke="#191970" points="261.896,-33.1486 251.3871,-34.4956 260.4423,-39.996 261.896,-33.1486"/>
</g>
<!-- Node11715 -->
<g id="node5" class="node">
<title>Node11715</title>
<g id="a_node5"><a xlink:href="libbf_8h.html#a6cd295d156fefc2f73a5f9de76595262" target="_top" xlink:title="mp_mul">
<polygon fill="none" stroke="#ff0000" points="287,-.5 287,-19.5 343,-19.5 343,-.5 287,-.5"/>
<text text-anchor="middle" x="315" y="-7.5" font-family="Helvetica,sans-Serif" font-size="10.00" fill="#000000">mp_mul</text>
</a>
</g>
</g>
<!-- Node11659&#45;&gt;Node11715 -->
<g id="edge4" class="edge">
<title>Node11659&#45;&gt;Node11715</title>
<path fill="none" stroke="#191970" d="M261.1699,-21.4276C269.7536,-19.6054 278.8027,-17.6843 286.9808,-15.9482"/>
<polygon fill="#191970" stroke="#191970" points="260.4423,-18.004 251.3871,-23.5044 261.896,-24.8514 260.4423,-18.004"/>
</g>
</g>
</svg>
