<?xml version="1.0" encoding="UTF-8" standalone="no"?>
<!DOCTYPE svg PUBLIC "-//W3C//DTD SVG 1.1//EN"
 "http://www.w3.org/Graphics/SVG/1.1/DTD/svg11.dtd">
<!-- Generated by graphviz version 2.40.1 (20161225.0304)
 -->
<!-- Title: bf_set_overflow Pages: 1 -->
<svg width="329pt" height="180pt"
 viewBox="0.00 0.00 329.00 180.00" xmlns="http://www.w3.org/2000/svg" xmlns:xlink="http://www.w3.org/1999/xlink">
<g id="graph0" class="graph" transform="scale(1 1) rotate(0) translate(4 176)">
<title>bf_set_overflow</title>
<!-- Node1745 -->
<g id="node1" class="node">
<title>Node1745</title>
<polygon fill="#bfbfbf" stroke="#000000" points="0,-76.5 0,-95.5 94,-95.5 94,-76.5 0,-76.5"/>
<text text-anchor="middle" x="47" y="-83.5" font-family="Helvetica,sans-Serif" font-size="10.00" fill="#000000">bf_set_overflow</text>
</g>
<!-- Node1746 -->
<g id="node2" class="node">
<title>Node1746</title>
<g id="a_node2"><a xlink:href="libbf_8h.html#a933c9dd8c3450f560876d02e3b36b1a5" target="_top" xlink:title="bf_get_exp_bits">
<polygon fill="none" stroke="#000000" points="130,-152.5 130,-171.5 224,-171.5 224,-152.5 130,-152.5"/>
<text text-anchor="middle" x="177" y="-159.5" font-family="Helvetica,sans-Serif" font-size="10.00" fill="#000000">bf_get_exp_bits</text>
</a>
</g>
</g>
<!-- Node1745&#45;&gt;Node1746 -->
<g id="edge1" class="edge">
<title>Node1745&#45;&gt;Node1746</title>
<path fill="none" stroke="#191970" d="M61.4584,-95.5988C77.837,-106.3446 105.4469,-124.0751 130,-138 135.753,-141.2627 141.9987,-144.5937 148.0017,-147.6951"/>
<polygon fill="#191970" stroke="#191970" points="146.6295,-150.9238 157.1297,-152.3367 149.8025,-144.6842 146.6295,-150.9238"/>
</g>
<!-- Node1747 -->
<g id="node3" class="node">
<title>Node1747</title>
<g id="a_node3"><a xlink:href="libbf_8h.html#ab51c43b22c1a81c789ee0e3d53c0e585" target="_top" xlink:title="bf_resize">
<polygon fill="none" stroke="#000000" points="260,-76.5 260,-95.5 321,-95.5 321,-76.5 260,-76.5"/>
<text text-anchor="middle" x="290.5" y="-83.5" font-family="Helvetica,sans-Serif" font-size="10.00" fill="#000000">bf_resize</text>
</a>
</g>
</g>
<!-- Node1745&#45;&gt;Node1747 -->
<g id="edge2" class="edge">
<title>Node1745&#45;&gt;Node1747</title>
<path fill="none" stroke="#191970" d="M80.6245,-95.5074C95.6052,-99.2719 113.5483,-103.141 130,-105 171.5136,-109.6909 182.626,-110.7946 224,-105 233.8845,-103.6156 244.3612,-101.127 254.0034,-98.3973"/>
<polygon fill="#191970" stroke="#191970" points="255.1113,-101.7192 263.6898,-95.5014 253.1062,-95.0125 255.1113,-101.7192"/>
</g>
<!-- Node1748 -->
<g id="node4" class="node">
<title>Node1748</title>
<g id="a_node4"><a xlink:href="libbf_8h.html#a88d3dcee173f1e4fd4e55000edb04595" target="_top" xlink:title="bf_set_inf">
<polygon fill="none" stroke="#000000" points="144.5,-76.5 144.5,-95.5 209.5,-95.5 209.5,-76.5 144.5,-76.5"/>
<text text-anchor="middle" x="177" y="-83.5" font-family="Helvetica,sans-Serif" font-size="10.00" fill="#000000">bf_set_inf</text>
</a>
</g>
</g>
<!-- Node1745&#45;&gt;Node1748 -->
<g id="edge3" class="edge">
<title>Node1745&#45;&gt;Node1748</title>
<path fill="none" stroke="#191970" d="M94.3007,-86C107.2323,-86 121.1755,-86 133.8613,-86"/>
<polygon fill="#191970" stroke="#191970" points="134.1719,-89.5001 144.1719,-86 134.1719,-82.5001 134.1719,-89.5001"/>
</g>
<!-- Node1749 -->
<g id="node5" class="node">
<title>Node1749</title>
<g id="a_node5"><a xlink:href="libbf_8h.html#aa6282c789c16c8cf2fe6a8ebd671c6fc" target="_top" xlink:title="bf_set_nan">
<polygon fill="none" stroke="#000000" points="142,-38.5 142,-57.5 212,-57.5 212,-38.5 142,-38.5"/>
<text text-anchor="middle" x="177" y="-45.5" font-family="Helvetica,sans-Serif" font-size="10.00" fill="#000000">bf_set_nan</text>
</a>
</g>
</g>
<!-- Node1745&#45;&gt;Node1749 -->
<g id="edge5" class="edge">
<title>Node1745&#45;&gt;Node1749</title>
<path fill="none" stroke="#191970" d="M79.8045,-76.411C96.2783,-71.5956 116.4434,-65.7012 134.1273,-60.532"/>
<polygon fill="#191970" stroke="#191970" points="135.5897,-63.7511 144.206,-57.5859 133.6256,-57.0323 135.5897,-63.7511"/>
</g>
<!-- Node1750 -->
<g id="node6" class="node">
<title>Node1750</title>
<g id="a_node6"><a xlink:href="libbf_8c.html#a450dfcc66e1b45403f642a8499219f94" target="_top" xlink:title="limb_mask">
<polygon fill="none" stroke="#000000" points="141.5,-.5 141.5,-19.5 212.5,-19.5 212.5,-.5 141.5,-.5"/>
<text text-anchor="middle" x="177" y="-7.5" font-family="Helvetica,sans-Serif" font-size="10.00" fill="#000000">limb_mask</text>
</a>
</g>
</g>
<!-- Node1745&#45;&gt;Node1750 -->
<g id="edge7" class="edge">
<title>Node1745&#45;&gt;Node1750</title>
<path fill="none" stroke="#191970" d="M59.1157,-76.4233C74.8209,-64.3109 103.3596,-43.3116 130,-29 133.4769,-27.1322 137.1778,-25.3357 140.9177,-23.643"/>
<polygon fill="#191970" stroke="#191970" points="142.3776,-26.8252 150.1887,-19.6671 139.6186,-20.3918 142.3776,-26.8252"/>
</g>
<!-- Node1748&#45;&gt;Node1747 -->
<g id="edge4" class="edge">
<title>Node1748&#45;&gt;Node1747</title>
<path fill="none" stroke="#191970" d="M209.5245,-86C222.0331,-86 236.4747,-86 249.6676,-86"/>
<polygon fill="#191970" stroke="#191970" points="249.9196,-89.5001 259.9196,-86 249.9196,-82.5001 249.9196,-89.5001"/>
</g>
<!-- Node1749&#45;&gt;Node1747 -->
<g id="edge6" class="edge">
<title>Node1749&#45;&gt;Node1747</title>
<path fill="none" stroke="#191970" d="M205.6408,-57.589C219.7549,-62.3144 236.9724,-68.0789 252.2009,-73.1774"/>
<polygon fill="#191970" stroke="#191970" points="251.2745,-76.5581 261.8683,-76.4141 253.4969,-69.9203 251.2745,-76.5581"/>
</g>
</g>
</svg>
