<?xml version="1.0" encoding="UTF-8" standalone="no"?>
<!DOCTYPE svg PUBLIC "-//W3C//DTD SVG 1.1//EN"
 "http://www.w3.org/Graphics/SVG/1.1/DTD/svg11.dtd">
<!-- Generated by graphviz version 2.40.1 (20161225.0304)
 -->
<!-- Title: bfdec_divrem Pages: 1 -->
<svg width="908pt" height="674pt"
 viewBox="0.00 0.00 908.00 674.00" xmlns="http://www.w3.org/2000/svg" xmlns:xlink="http://www.w3.org/1999/xlink">
<g id="graph0" class="graph" transform="scale(1 1) rotate(0) translate(4 670)">
<title>bfdec_divrem</title>
<!-- Node11180 -->
<g id="node1" class="node">
<title>Node11180</title>
<polygon fill="#bfbfbf" stroke="#000000" points="0,-266.5 0,-285.5 83,-285.5 83,-266.5 0,-266.5"/>
<text text-anchor="middle" x="41.5" y="-273.5" font-family="Helvetica,sans-Serif" font-size="10.00" fill="#000000">bfdec_divrem</text>
</g>
<!-- Node11181 -->
<g id="node2" class="node">
<title>Node11181</title>
<g id="a_node2"><a xlink:href="libbf_8h.html#a7cb137686dce1e04af24aa61a1a177a6" target="_top" xlink:title="bfdec_add_si">
<polygon fill="none" stroke="#000000" points="125.5,-570.5 125.5,-589.5 205.5,-589.5 205.5,-570.5 125.5,-570.5"/>
<text text-anchor="middle" x="165.5" y="-577.5" font-family="Helvetica,sans-Serif" font-size="10.00" fill="#000000">bfdec_add_si</text>
</a>
</g>
</g>
<!-- Node11180&#45;&gt;Node11181 -->
<g id="edge1" class="edge">
<title>Node11180&#45;&gt;Node11181</title>
<path fill="none" stroke="#191970" d="M43.11,-285.6786C50.6142,-329.8519 83.3035,-512.0533 119,-556 121.8478,-559.506 125.3434,-562.5554 129.1277,-565.1933"/>
<polygon fill="#191970" stroke="#191970" points="127.3531,-568.2102 137.734,-570.3285 130.9399,-562.1989 127.3531,-568.2102"/>
</g>
<!-- Node11182 -->
<g id="node3" class="node">
<title>Node11182</title>
<g id="a_node3"><a xlink:href="libbf_8h.html#ac9371a99b2946966d278072ee4c1e779" target="_top" xlink:title="bfdec_init">
<polygon fill="none" stroke="#000000" points="396.5,-570.5 396.5,-589.5 461.5,-589.5 461.5,-570.5 396.5,-570.5"/>
<text text-anchor="middle" x="429" y="-577.5" font-family="Helvetica,sans-Serif" font-size="10.00" fill="#000000">bfdec_init</text>
</a>
</g>
</g>
<!-- Node11180&#45;&gt;Node11182 -->
<g id="edge22" class="edge">
<title>Node11180&#45;&gt;Node11182</title>
<path fill="none" stroke="#191970" d="M42.1399,-285.5031C44.8611,-318.2473 58.3102,-427.5195 119,-485 193.8715,-555.9122 320.3392,-573.9827 386.2136,-578.5256"/>
<polygon fill="#191970" stroke="#191970" points="386.052,-582.0222 396.2485,-579.1446 386.483,-575.0355 386.052,-582.0222"/>
</g>
<!-- Node11204 -->
<g id="node11" class="node">
<title>Node11204</title>
<g id="a_node11"><a xlink:href="libbf_8h.html#ab992311e37e462dff2a8c330320a06c4" target="_top" xlink:title="bfdec_set_zero">
<polygon fill="none" stroke="#ff0000" points="810,-190.5 810,-209.5 900,-209.5 900,-190.5 810,-190.5"/>
<text text-anchor="middle" x="855" y="-197.5" font-family="Helvetica,sans-Serif" font-size="10.00" fill="#000000">bfdec_set_zero</text>
</a>
</g>
</g>
<!-- Node11180&#45;&gt;Node11204 -->
<g id="edge41" class="edge">
<title>Node11180&#45;&gt;Node11204</title>
<path fill="none" stroke="#191970" d="M44.8894,-266.2145C53.5214,-242.675 78.5554,-182.3705 119,-149 180.8308,-97.984 207.8397,-86 288,-86 288,-86 288,-86 590.5,-86 688.768,-86 792.0339,-153.1808 834.7146,-184.3981"/>
<polygon fill="#191970" stroke="#191970" points="832.7677,-187.3121 842.8789,-190.4765 836.948,-181.6973 832.7677,-187.3121"/>
</g>
<!-- Node11209 -->
<g id="node12" class="node">
<title>Node11209</title>
<g id="a_node12"><a xlink:href="libbf_8h.html#a432cfe0b33bf61782ef53b643aeb1e0f" target="_top" xlink:title="bfdec_set_nan">
<polygon fill="none" stroke="#ff0000" points="547,-266.5 547,-285.5 634,-285.5 634,-266.5 547,-266.5"/>
<text text-anchor="middle" x="590.5" y="-273.5" font-family="Helvetica,sans-Serif" font-size="10.00" fill="#000000">bfdec_set_nan</text>
</a>
</g>
</g>
<!-- Node11180&#45;&gt;Node11209 -->
<g id="edge40" class="edge">
<title>Node11180&#45;&gt;Node11209</title>
<path fill="none" stroke="#191970" d="M55.3565,-266.3752C113.7148,-227.1289 343.4164,-85.706 494,-181 525.5828,-200.9866 501.8112,-232.4575 530,-257 532.3729,-259.066 534.97,-260.9074 537.7116,-262.5488"/>
<polygon fill="#191970" stroke="#191970" points="536.3546,-265.7838 546.8623,-267.1397 539.4936,-259.527 536.3546,-265.7838"/>
</g>
<!-- Node11226 -->
<g id="node16" class="node">
<title>Node11226</title>
<g id="a_node16"><a xlink:href="libbf_8h.html#a96772409266732dd1e61dc3727571d61" target="_top" xlink:title="bfdec_delete">
<polygon fill="none" stroke="#000000" points="248,-646.5 248,-665.5 328,-665.5 328,-646.5 248,-646.5"/>
<text text-anchor="middle" x="288" y="-653.5" font-family="Helvetica,sans-Serif" font-size="10.00" fill="#000000">bfdec_delete</text>
</a>
</g>
</g>
<!-- Node11180&#45;&gt;Node11226 -->
<g id="edge21" class="edge">
<title>Node11180&#45;&gt;Node11226</title>
<path fill="none" stroke="#191970" d="M42.5583,-285.6358C48.0595,-334.0888 74.8419,-550.6867 119,-599 149.3607,-632.2176 199.7182,-646.0901 237.582,-651.8764"/>
<polygon fill="#191970" stroke="#191970" points="237.518,-655.4008 247.9032,-653.3034 238.4768,-648.4667 237.518,-655.4008"/>
</g>
<!-- Node11218 -->
<g id="node18" class="node">
<title>Node11218</title>
<g id="a_node18"><a xlink:href="libbf_8h.html#ab76f65059ac29df0d8ed9f719db8ba06" target="_top" xlink:title="bfdec_cmpu">
<polygon fill="none" stroke="#ff0000" points="250,-266.5 250,-285.5 326,-285.5 326,-266.5 250,-266.5"/>
<text text-anchor="middle" x="288" y="-273.5" font-family="Helvetica,sans-Serif" font-size="10.00" fill="#000000">bfdec_cmpu</text>
</a>
</g>
</g>
<!-- Node11180&#45;&gt;Node11218 -->
<g id="edge20" class="edge">
<title>Node11180&#45;&gt;Node11218</title>
<path fill="none" stroke="#191970" d="M83.0366,-276C126.3162,-276 194.0621,-276 239.7016,-276"/>
<polygon fill="#191970" stroke="#191970" points="239.9425,-279.5001 249.9425,-276 239.9424,-272.5001 239.9425,-279.5001"/>
</g>
<!-- Node11228 -->
<g id="node19" class="node">
<title>Node11228</title>
<g id="a_node19"><a xlink:href="libbf_8h.html#a97b9ac0bfa60e46f0348def0decccbc8" target="_top" xlink:title="bfdec_is_nan">
<polygon fill="none" stroke="#000000" points="125.5,-38.5 125.5,-57.5 205.5,-57.5 205.5,-38.5 125.5,-38.5"/>
<text text-anchor="middle" x="165.5" y="-45.5" font-family="Helvetica,sans-Serif" font-size="10.00" fill="#000000">bfdec_is_nan</text>
</a>
</g>
</g>
<!-- Node11180&#45;&gt;Node11228 -->
<g id="edge23" class="edge">
<title>Node11180&#45;&gt;Node11228</title>
<path fill="none" stroke="#191970" d="M42.714,-266.2131C47.1286,-234.4007 65.0113,-132.4868 119,-72 122.0777,-68.5519 125.7686,-65.5264 129.7074,-62.8918"/>
<polygon fill="#191970" stroke="#191970" points="131.6949,-65.785 138.5844,-57.736 128.1792,-59.7319 131.6949,-65.785"/>
</g>
<!-- Node11229 -->
<g id="node20" class="node">
<title>Node11229</title>
<g id="a_node20"><a xlink:href="libbf_8h.html#ae5aa2c2f63fe392a1ab15f1012c512e8" target="_top" xlink:title="bfdec_mul_si">
<polygon fill="none" stroke="#000000" points="125,-456.5 125,-475.5 206,-475.5 206,-456.5 125,-456.5"/>
<text text-anchor="middle" x="165.5" y="-463.5" font-family="Helvetica,sans-Serif" font-size="10.00" fill="#000000">bfdec_mul_si</text>
</a>
</g>
</g>
<!-- Node11180&#45;&gt;Node11229 -->
<g id="edge24" class="edge">
<title>Node11180&#45;&gt;Node11229</title>
<path fill="none" stroke="#191970" d="M47.8197,-285.6833C67.4664,-315.7873 127.7026,-408.0847 153.5338,-447.6647"/>
<polygon fill="#191970" stroke="#191970" points="150.6479,-449.6468 159.0444,-456.1083 156.51,-445.8211 150.6479,-449.6468"/>
</g>
<!-- Node11235 -->
<g id="node24" class="node">
<title>Node11235</title>
<g id="a_node24"><a xlink:href="libbf_8h.html#a807d4e601bf73a30844a7c84f34961f1" target="_top" xlink:title="bfdec_round">
<polygon fill="none" stroke="#000000" points="552,-228.5 552,-247.5 629,-247.5 629,-228.5 552,-228.5"/>
<text text-anchor="middle" x="590.5" y="-235.5" font-family="Helvetica,sans-Serif" font-size="10.00" fill="#000000">bfdec_round</text>
</a>
</g>
</g>
<!-- Node11180&#45;&gt;Node11235 -->
<g id="edge37" class="edge">
<title>Node11180&#45;&gt;Node11235</title>
<path fill="none" stroke="#191970" d="M46.4688,-266.4707C57.0526,-247.1548 83.761,-203.3308 119,-181 168.8961,-149.3811 189.4972,-157.1734 248,-149 356.296,-133.87 392.5937,-104.089 494,-145 531.5499,-160.149 562.6411,-197.6773 578.7028,-220.1586"/>
<polygon fill="#191970" stroke="#191970" points="575.8994,-222.2584 584.4634,-228.4961 581.6585,-218.2793 575.8994,-222.2584"/>
</g>
<!-- Node11221 -->
<g id="node25" class="node">
<title>Node11221</title>
<g id="a_node25"><a xlink:href="libbf_8h.html#ae69271a2b54f2ce850db0c96c3b20a82" target="_top" xlink:title="bfdec_set">
<polygon fill="none" stroke="#ff0000" points="256,-228.5 256,-247.5 320,-247.5 320,-228.5 256,-228.5"/>
<text text-anchor="middle" x="288" y="-235.5" font-family="Helvetica,sans-Serif" font-size="10.00" fill="#000000">bfdec_set</text>
</a>
</g>
</g>
<!-- Node11180&#45;&gt;Node11221 -->
<g id="edge39" class="edge">
<title>Node11180&#45;&gt;Node11221</title>
<path fill="none" stroke="#191970" d="M83.0366,-269.5968C128.2256,-262.6305 200.0873,-251.5525 245.6091,-244.5349"/>
<polygon fill="#191970" stroke="#191970" points="246.3923,-247.9556 255.7423,-242.9728 245.3258,-241.0373 246.3923,-247.9556"/>
</g>
<!-- Node11236 -->
<g id="node26" class="node">
<title>Node11236</title>
<g id="a_node26"><a xlink:href="libbf_8h.html#ac3255e37957d4be7117b1d9bfc4fcf11" target="_top" xlink:title="bfdec_sub">
<polygon fill="none" stroke="#000000" points="255,-304.5 255,-323.5 321,-323.5 321,-304.5 255,-304.5"/>
<text text-anchor="middle" x="288" y="-311.5" font-family="Helvetica,sans-Serif" font-size="10.00" fill="#000000">bfdec_sub</text>
</a>
</g>
</g>
<!-- Node11180&#45;&gt;Node11236 -->
<g id="edge42" class="edge">
<title>Node11180&#45;&gt;Node11236</title>
<path fill="none" stroke="#191970" d="M83.2805,-283.845C94.8363,-285.9337 107.3915,-288.1279 119,-290 161.6873,-296.8842 210.6134,-303.7173 244.8003,-308.3212"/>
<polygon fill="#191970" stroke="#191970" points="244.5373,-311.8172 254.9136,-309.6761 245.4669,-304.8792 244.5373,-311.8172"/>
</g>
<!-- Node11238 -->
<g id="node28" class="node">
<title>Node11238</title>
<g id="a_node28"><a xlink:href="libbf_8c.html#a4fe4f91a21701a55cffbc44f1eb141b6" target="_top" xlink:title="bfdec_tdivremu">
<polygon fill="none" stroke="#000000" points="119,-342.5 119,-361.5 212,-361.5 212,-342.5 119,-342.5"/>
<text text-anchor="middle" x="165.5" y="-349.5" font-family="Helvetica,sans-Serif" font-size="10.00" fill="#000000">bfdec_tdivremu</text>
</a>
</g>
</g>
<!-- Node11180&#45;&gt;Node11238 -->
<g id="edge45" class="edge">
<title>Node11180&#45;&gt;Node11238</title>
<path fill="none" stroke="#191970" d="M54.9151,-285.6883C70.1319,-296.5143 95.844,-314.3165 119,-328 124.646,-331.3364 130.8052,-334.6995 136.7393,-337.8089"/>
<polygon fill="#191970" stroke="#191970" points="135.2782,-340.9931 145.773,-342.4462 138.475,-334.7657 135.2782,-340.9931"/>
</g>
<!-- Node11197 -->
<g id="node30" class="node">
<title>Node11197</title>
<g id="a_node30"><a xlink:href="libbf_8c.html#a4ae6bd03b3af1b742666f50df5a52cb9" target="_top" xlink:title="get_digit">
<polygon fill="none" stroke="#ff0000" points="136,-.5 136,-19.5 195,-19.5 195,-.5 136,-.5"/>
<text text-anchor="middle" x="165.5" y="-7.5" font-family="Helvetica,sans-Serif" font-size="10.00" fill="#000000">get_digit</text>
</a>
</g>
</g>
<!-- Node11180&#45;&gt;Node11197 -->
<g id="edge53" class="edge">
<title>Node11180&#45;&gt;Node11197</title>
<path fill="none" stroke="#191970" d="M43.3955,-266.3088C51.5991,-225.2179 85.1582,-65.8058 119,-29 121.374,-26.4181 124.1497,-24.1785 127.1424,-22.2374"/>
<polygon fill="#191970" stroke="#191970" points="128.8168,-25.3111 135.9975,-17.5208 125.526,-19.1329 128.8168,-25.3111"/>
</g>
<!-- Node11181&#45;&gt;Node11182 -->
<g id="edge2" class="edge">
<title>Node11181&#45;&gt;Node11182</title>
<path fill="none" stroke="#191970" d="M205.52,-580C254.1767,-580 335.9702,-580 385.9547,-580"/>
<polygon fill="#191970" stroke="#191970" points="386.1147,-583.5001 396.1147,-580 386.1146,-576.5001 386.1147,-583.5001"/>
</g>
<!-- Node11184 -->
<g id="node5" class="node">
<title>Node11184</title>
<g id="a_node5"><a xlink:href="libbf_8h.html#a4c3b1cee330551b12fd6ae2fe5421031" target="_top" xlink:title="bfdec_set_si">
<polygon fill="none" stroke="#000000" points="249.5,-456.5 249.5,-475.5 326.5,-475.5 326.5,-456.5 249.5,-456.5"/>
<text text-anchor="middle" x="288" y="-463.5" font-family="Helvetica,sans-Serif" font-size="10.00" fill="#000000">bfdec_set_si</text>
</a>
</g>
</g>
<!-- Node11181&#45;&gt;Node11184 -->
<g id="edge4" class="edge">
<title>Node11181&#45;&gt;Node11184</title>
<path fill="none" stroke="#191970" d="M175.9443,-570.2804C196.8278,-550.8459 243.955,-506.9888 269.9462,-482.8011"/>
<polygon fill="#191970" stroke="#191970" points="272.646,-485.0697 277.5822,-475.695 267.8773,-479.9454 272.646,-485.0697"/>
</g>
<!-- Node11211 -->
<g id="node13" class="node">
<title>Node11211</title>
<g id="a_node13"><a xlink:href="libbf_8h.html#a2ab5a868db6e2d3d41c9b95e561054d3" target="_top" xlink:title="bfdec_add">
<polygon fill="none" stroke="#000000" points="254.5,-608.5 254.5,-627.5 321.5,-627.5 321.5,-608.5 254.5,-608.5"/>
<text text-anchor="middle" x="288" y="-615.5" font-family="Helvetica,sans-Serif" font-size="10.00" fill="#000000">bfdec_add</text>
</a>
</g>
</g>
<!-- Node11181&#45;&gt;Node11211 -->
<g id="edge14" class="edge">
<title>Node11181&#45;&gt;Node11211</title>
<path fill="none" stroke="#191970" d="M196.4119,-589.589C211.7903,-594.3594 230.5822,-600.1888 247.133,-605.3229"/>
<polygon fill="#191970" stroke="#191970" points="246.5099,-608.7941 257.098,-608.4141 248.5839,-602.1084 246.5099,-608.7941"/>
</g>
<!-- Node11181&#45;&gt;Node11226 -->
<g id="edge18" class="edge">
<title>Node11181&#45;&gt;Node11226</title>
<path fill="none" stroke="#191970" d="M177.9444,-589.5441C193.7446,-601.4369 222.0745,-622.0172 248,-637 250.8623,-638.6541 253.8915,-640.2887 256.9509,-641.8635"/>
<polygon fill="#191970" stroke="#191970" points="255.5662,-645.083 266.0827,-646.3687 258.6633,-638.8054 255.5662,-645.083"/>
</g>
<!-- Node11183 -->
<g id="node4" class="node">
<title>Node11183</title>
<g id="a_node4"><a xlink:href="libbf_8h.html#abacc1410890af049e02ebd788364ac48" target="_top" xlink:title="bf_init">
<polygon fill="none" stroke="#000000" points="567,-551.5 567,-570.5 614,-570.5 614,-551.5 567,-551.5"/>
<text text-anchor="middle" x="590.5" y="-558.5" font-family="Helvetica,sans-Serif" font-size="10.00" fill="#000000">bf_init</text>
</a>
</g>
</g>
<!-- Node11182&#45;&gt;Node11183 -->
<g id="edge3" class="edge">
<title>Node11182&#45;&gt;Node11183</title>
<path fill="none" stroke="#191970" d="M461.6819,-576.1551C489.3061,-572.9052 528.7304,-568.267 556.6741,-564.9795"/>
<polygon fill="#191970" stroke="#191970" points="557.2506,-568.4359 566.7732,-563.7914 556.4327,-561.4839 557.2506,-568.4359"/>
</g>
<!-- Node11185 -->
<g id="node6" class="node">
<title>Node11185</title>
<g id="a_node6"><a xlink:href="libbf_8h.html#a3a0734cc58dd4feba2c300d053f53e36" target="_top" xlink:title="bfdec_set_ui">
<polygon fill="none" stroke="#000000" points="390,-456.5 390,-475.5 468,-475.5 468,-456.5 390,-456.5"/>
<text text-anchor="middle" x="429" y="-463.5" font-family="Helvetica,sans-Serif" font-size="10.00" fill="#000000">bfdec_set_ui</text>
</a>
</g>
</g>
<!-- Node11184&#45;&gt;Node11185 -->
<g id="edge5" class="edge">
<title>Node11184&#45;&gt;Node11185</title>
<path fill="none" stroke="#191970" d="M326.5289,-466C342.7346,-466 361.7997,-466 379.0623,-466"/>
<polygon fill="#191970" stroke="#191970" points="379.5362,-469.5001 389.5361,-466 379.5361,-462.5001 379.5362,-469.5001"/>
</g>
<!-- Node11186 -->
<g id="node7" class="node">
<title>Node11186</title>
<g id="a_node7"><a xlink:href="libbf_8h.html#aa84c22d9104847e3aa0ab161a8c2af22" target="_top" xlink:title="bfdec_resize">
<polygon fill="none" stroke="#ff0000" points="816,-421.5 816,-440.5 894,-440.5 894,-421.5 816,-421.5"/>
<text text-anchor="middle" x="855" y="-428.5" font-family="Helvetica,sans-Serif" font-size="10.00" fill="#000000">bfdec_resize</text>
</a>
</g>
</g>
<!-- Node11185&#45;&gt;Node11186 -->
<g id="edge6" class="edge">
<title>Node11185&#45;&gt;Node11186</title>
<path fill="none" stroke="#191970" d="M468.3135,-462.77C546.2189,-456.3693 720.0413,-442.0882 805.5556,-435.0623"/>
<polygon fill="#191970" stroke="#191970" points="806.1017,-438.5293 815.7815,-434.2222 805.5285,-431.5529 806.1017,-438.5293"/>
</g>
<!-- Node11188 -->
<g id="node8" class="node">
<title>Node11188</title>
<g id="a_node8"><a xlink:href="libbf_8h.html#acd3459551d5c61344889ba07a276b0a0" target="_top" xlink:title="bfdec_normalize_and\l_round">
<polygon fill="none" stroke="#ff0000" points="530,-375 530,-405 651,-405 651,-375 530,-375"/>
<text text-anchor="start" x="538" y="-393" font-family="Helvetica,sans-Serif" font-size="10.00" fill="#000000">bfdec_normalize_and</text>
<text text-anchor="middle" x="590.5" y="-382" font-family="Helvetica,sans-Serif" font-size="10.00" fill="#000000">_round</text>
</a>
</g>
</g>
<!-- Node11185&#45;&gt;Node11188 -->
<g id="edge7" class="edge">
<title>Node11185&#45;&gt;Node11188</title>
<path fill="none" stroke="#191970" d="M467.7129,-456.4028C476.5036,-453.7532 485.6937,-450.5999 494,-447 517.1673,-436.9594 541.6429,-422.4521 560.1477,-410.5862"/>
<polygon fill="#191970" stroke="#191970" points="562.2499,-413.394 568.7204,-405.0045 558.4304,-407.5279 562.2499,-413.394"/>
</g>
<!-- Node11185&#45;&gt;Node11209 -->
<g id="edge13" class="edge">
<title>Node11185&#45;&gt;Node11209</title>
<path fill="none" stroke="#191970" d="M468.2268,-460.4171C477.4848,-457.5982 486.7568,-453.3623 494,-447 523.9038,-420.7329 510.7311,-399.8268 530,-365 544.3264,-339.1063 564.0847,-311.1844 577.0691,-293.6563"/>
<polygon fill="#191970" stroke="#191970" points="579.9823,-295.6052 583.177,-285.5035 574.3801,-291.4082 579.9823,-295.6052"/>
</g>
<!-- Node11188&#45;&gt;Node11186 -->
<g id="edge8" class="edge">
<title>Node11188&#45;&gt;Node11186</title>
<path fill="none" stroke="#191970" d="M651.1816,-399.4062C698.0596,-406.6728 762.1056,-416.6005 805.8137,-423.3757"/>
<polygon fill="#191970" stroke="#191970" points="805.4962,-426.8682 815.9143,-424.9414 806.5685,-419.9508 805.4962,-426.8682"/>
</g>
<!-- Node11193 -->
<g id="node9" class="node">
<title>Node11193</title>
<g id="a_node9"><a xlink:href="libbf_8c.html#aec64568757dfbfcb93d12168d4a9306a" target="_top" xlink:title="__bfdec_round">
<polygon fill="none" stroke="#ff0000" points="687,-266.5 687,-285.5 774,-285.5 774,-266.5 687,-266.5"/>
<text text-anchor="middle" x="730.5" y="-273.5" font-family="Helvetica,sans-Serif" font-size="10.00" fill="#000000">__bfdec_round</text>
</a>
</g>
</g>
<!-- Node11188&#45;&gt;Node11193 -->
<g id="edge9" class="edge">
<title>Node11188&#45;&gt;Node11193</title>
<path fill="none" stroke="#191970" d="M609.0909,-374.8617C635.5349,-353.3287 683.7938,-314.0322 710.8214,-292.024"/>
<polygon fill="#191970" stroke="#191970" points="713.2517,-294.5587 718.796,-285.5304 708.8317,-289.1306 713.2517,-294.5587"/>
</g>
<!-- Node11193&#45;&gt;Node11186 -->
<g id="edge10" class="edge">
<title>Node11193&#45;&gt;Node11186</title>
<path fill="none" stroke="#191970" d="M738.288,-285.6959C758.8124,-311.2484 814.6067,-380.7111 840.9147,-413.4641"/>
<polygon fill="#191970" stroke="#191970" points="838.2239,-415.7031 847.2149,-421.3077 843.6813,-411.3195 838.2239,-415.7031"/>
</g>
<!-- Node11202 -->
<g id="node10" class="node">
<title>Node11202</title>
<g id="a_node10"><a xlink:href="libbf_8h.html#a51327c40664840e14a608d3694536840" target="_top" xlink:title="bfdec_set_inf">
<polygon fill="none" stroke="#ff0000" points="814,-285.5 814,-304.5 896,-304.5 896,-285.5 814,-285.5"/>
<text text-anchor="middle" x="855" y="-292.5" font-family="Helvetica,sans-Serif" font-size="10.00" fill="#000000">bfdec_set_inf</text>
</a>
</g>
</g>
<!-- Node11193&#45;&gt;Node11202 -->
<g id="edge11" class="edge">
<title>Node11193&#45;&gt;Node11202</title>
<path fill="none" stroke="#191970" d="M774.0441,-282.6453C783.62,-284.1067 793.847,-285.6674 803.6966,-287.1706"/>
<polygon fill="#191970" stroke="#191970" points="803.3674,-290.6608 813.781,-288.7096 804.4235,-283.7409 803.3674,-290.6608"/>
</g>
<!-- Node11193&#45;&gt;Node11204 -->
<g id="edge12" class="edge">
<title>Node11193&#45;&gt;Node11204</title>
<path fill="none" stroke="#191970" d="M746.268,-266.3745C767.5968,-253.3546 805.84,-230.0093 830.8149,-214.7636"/>
<polygon fill="#191970" stroke="#191970" points="832.6483,-217.7451 839.36,-209.5473 829.001,-211.7703 832.6483,-217.7451"/>
</g>
<!-- Node11212 -->
<g id="node14" class="node">
<title>Node11212</title>
<g id="a_node14"><a xlink:href="libbf_8c.html#a3ebbc1c7473b2ad84ced2b263bf38bae" target="_top" xlink:title="bf_op2">
<polygon fill="none" stroke="#ff0000" points="404,-532.5 404,-551.5 454,-551.5 454,-532.5 404,-532.5"/>
<text text-anchor="middle" x="429" y="-539.5" font-family="Helvetica,sans-Serif" font-size="10.00" fill="#000000">bf_op2</text>
</a>
</g>
</g>
<!-- Node11211&#45;&gt;Node11212 -->
<g id="edge15" class="edge">
<title>Node11211&#45;&gt;Node11212</title>
<path fill="none" stroke="#191970" d="M298.498,-608.1546C312.4486,-595.5593 338.3356,-573.8417 364,-561 373.3839,-556.3046 384.1252,-552.5738 394.1367,-549.7057"/>
<polygon fill="#191970" stroke="#191970" points="395.0673,-553.0799 403.8278,-547.1214 393.2636,-546.3163 395.0673,-553.0799"/>
</g>
<!-- Node11216 -->
<g id="node15" class="node">
<title>Node11216</title>
<g id="a_node15"><a xlink:href="libbf_8c.html#aa5c7e54724217d71eb29c55c98e2413f" target="_top" xlink:title="__bfdec_add">
<polygon fill="none" stroke="#ff0000" points="390.5,-608.5 390.5,-627.5 467.5,-627.5 467.5,-608.5 390.5,-608.5"/>
<text text-anchor="middle" x="429" y="-615.5" font-family="Helvetica,sans-Serif" font-size="10.00" fill="#000000">__bfdec_add</text>
</a>
</g>
</g>
<!-- Node11211&#45;&gt;Node11216 -->
<g id="edge17" class="edge">
<title>Node11211&#45;&gt;Node11216</title>
<path fill="none" stroke="#191970" d="M321.773,-618C339.2452,-618 360.893,-618 380.1529,-618"/>
<polygon fill="#191970" stroke="#191970" points="380.2679,-621.5001 390.2679,-618 380.2678,-614.5001 380.2679,-621.5001"/>
</g>
<!-- Node11212&#45;&gt;Node11183 -->
<g id="edge16" class="edge">
<title>Node11212&#45;&gt;Node11183</title>
<path fill="none" stroke="#191970" d="M454.2344,-544.9688C481.7716,-548.2084 526.0034,-553.4122 556.5663,-557.0078"/>
<polygon fill="#191970" stroke="#191970" points="556.4164,-560.5142 566.7569,-558.2067 557.2344,-553.5622 556.4164,-560.5142"/>
</g>
<!-- Node11227 -->
<g id="node17" class="node">
<title>Node11227</title>
<g id="a_node17"><a xlink:href="libbf_8h.html#a2b9d906b21e903f2f7f1c9044674ab7d" target="_top" xlink:title="bf_delete">
<polygon fill="none" stroke="#ff0000" points="398,-646.5 398,-665.5 460,-665.5 460,-646.5 398,-646.5"/>
<text text-anchor="middle" x="429" y="-653.5" font-family="Helvetica,sans-Serif" font-size="10.00" fill="#000000">bf_delete</text>
</a>
</g>
</g>
<!-- Node11226&#45;&gt;Node11227 -->
<g id="edge19" class="edge">
<title>Node11226&#45;&gt;Node11227</title>
<path fill="none" stroke="#191970" d="M328.0278,-656C346.7131,-656 368.9348,-656 387.7682,-656"/>
<polygon fill="#191970" stroke="#191970" points="387.8387,-659.5001 397.8387,-656 387.8387,-652.5001 387.8387,-659.5001"/>
</g>
<!-- Node11229&#45;&gt;Node11182 -->
<g id="edge25" class="edge">
<title>Node11229&#45;&gt;Node11182</title>
<path fill="none" stroke="#191970" d="M201.8404,-475.5649C236.0154,-485.5281 287.7929,-503.1704 328,-528 346.4675,-539.4045 345.0906,-550.3441 364,-561 370.9858,-564.9366 378.8629,-568.1243 386.6606,-570.6826"/>
<polygon fill="#191970" stroke="#191970" points="385.8388,-574.0898 396.4221,-573.5956 387.8405,-567.3821 385.8388,-574.0898"/>
</g>
<!-- Node11229&#45;&gt;Node11184 -->
<g id="edge26" class="edge">
<title>Node11229&#45;&gt;Node11184</title>
<path fill="none" stroke="#191970" d="M206.2907,-466C216.8395,-466 228.303,-466 239.2153,-466"/>
<polygon fill="#191970" stroke="#191970" points="239.4609,-469.5001 249.4609,-466 239.4608,-462.5001 239.4609,-469.5001"/>
</g>
<!-- Node11229&#45;&gt;Node11226 -->
<g id="edge36" class="edge">
<title>Node11229&#45;&gt;Node11226</title>
<path fill="none" stroke="#191970" d="M170.2939,-475.69C178.773,-492.852 196.9423,-529.731 212,-561 228.2161,-594.6745 221.5856,-610.5572 248,-637 249.3855,-638.387 250.8919,-639.6862 252.4813,-640.9013"/>
<polygon fill="#191970" stroke="#191970" points="250.6307,-643.8723 260.9452,-646.2937 254.392,-637.9686 250.6307,-643.8723"/>
</g>
<!-- Node11230 -->
<g id="node21" class="node">
<title>Node11230</title>
<g id="a_node21"><a xlink:href="libbf_8h.html#a2afc9f7c942c27cc609877c776dd9a69" target="_top" xlink:title="bfdec_mul">
<polygon fill="none" stroke="#000000" points="254,-342.5 254,-361.5 322,-361.5 322,-342.5 254,-342.5"/>
<text text-anchor="middle" x="288" y="-349.5" font-family="Helvetica,sans-Serif" font-size="10.00" fill="#000000">bfdec_mul</text>
</a>
</g>
</g>
<!-- Node11229&#45;&gt;Node11230 -->
<g id="edge27" class="edge">
<title>Node11229&#45;&gt;Node11230</title>
<path fill="none" stroke="#191970" d="M175.9443,-456.2804C196.8278,-436.8459 243.955,-392.9888 269.9462,-368.8011"/>
<polygon fill="#191970" stroke="#191970" points="272.646,-371.0697 277.5822,-361.695 267.8773,-365.9454 272.646,-371.0697"/>
</g>
<!-- Node11230&#45;&gt;Node11182 -->
<g id="edge31" class="edge">
<title>Node11230&#45;&gt;Node11182</title>
<path fill="none" stroke="#191970" d="M296.637,-361.7864C305.7443,-372.6083 319.8752,-390.9147 328,-409 356.4498,-472.3274 316.198,-510.654 364,-561 370.0512,-567.3732 378.1104,-571.6445 386.4891,-574.498"/>
<polygon fill="#191970" stroke="#191970" points="385.799,-577.9386 396.3706,-577.2374 387.6691,-571.193 385.799,-577.9386"/>
</g>
<!-- Node11230&#45;&gt;Node11186 -->
<g id="edge32" class="edge">
<title>Node11230&#45;&gt;Node11186</title>
<path fill="none" stroke="#191970" d="M295.6121,-361.7505C304.0827,-372.8381 317.9044,-391.6559 328,-409 346.8023,-441.3019 332.4172,-465.0134 364,-485 412.8802,-515.9329 664.4074,-478.3621 774,-456 788.9686,-452.9457 805.116,-448.2579 819.0252,-443.7634"/>
<polygon fill="#191970" stroke="#191970" points="820.3194,-447.0217 828.7087,-440.5511 818.1153,-440.3778 820.3194,-447.0217"/>
</g>
<!-- Node11230&#45;&gt;Node11188 -->
<g id="edge34" class="edge">
<title>Node11230&#45;&gt;Node11188</title>
<path fill="none" stroke="#191970" d="M322.0257,-354.0663C362.9733,-356.8 433.7459,-362.3128 494,-371 502.3815,-372.2084 511.1372,-373.6617 519.8076,-375.2196"/>
<polygon fill="#191970" stroke="#191970" points="519.4495,-378.7126 529.9191,-377.0881 520.7216,-371.8292 519.4495,-378.7126"/>
</g>
<!-- Node11230&#45;&gt;Node11202 -->
<g id="edge29" class="edge">
<title>Node11230&#45;&gt;Node11202</title>
<path fill="none" stroke="#191970" d="M322.1915,-348.5628C417.9648,-338.9348 689.3081,-311.6569 803.4259,-300.1847"/>
<polygon fill="#191970" stroke="#191970" points="804.0442,-303.6403 813.6439,-299.1575 803.3439,-296.6754 804.0442,-303.6403"/>
</g>
<!-- Node11230&#45;&gt;Node11204 -->
<g id="edge30" class="edge">
<title>Node11230&#45;&gt;Node11204</title>
<path fill="none" stroke="#191970" d="M313.9963,-342.4956C319.0005,-339.9125 323.9406,-336.7632 328,-333 351.6501,-311.0757 338.8202,-290.1489 364,-270 424.2625,-221.7779 454.0415,-232.6837 530,-219 623.7198,-202.1167 734.8536,-199.2268 799.8836,-199.224"/>
<polygon fill="#191970" stroke="#191970" points="799.9071,-202.724 809.915,-199.2466 799.9229,-195.724 799.9071,-202.724"/>
</g>
<!-- Node11230&#45;&gt;Node11209 -->
<g id="edge28" class="edge">
<title>Node11230&#45;&gt;Node11209</title>
<path fill="none" stroke="#191970" d="M311.0702,-342.48C316.7879,-339.7365 322.7711,-336.5215 328,-333 346.003,-320.8755 344.2147,-308.9249 364,-300 419.0736,-275.1571 489.0891,-271.4193 536.5931,-272.4434"/>
<polygon fill="#191970" stroke="#191970" points="536.5732,-275.9442 546.6716,-272.7393 536.7787,-268.9472 536.5732,-275.9442"/>
</g>
<!-- Node11231 -->
<g id="node22" class="node">
<title>Node11231</title>
<g id="a_node22"><a xlink:href="libbf_8c.html#a6706f2e3c674b947985821ba58c687cb" target="_top" xlink:title="mp_mul_basecase_dec">
<polygon fill="none" stroke="#ff0000" points="364,-380.5 364,-399.5 494,-399.5 494,-380.5 364,-380.5"/>
<text text-anchor="middle" x="429" y="-387.5" font-family="Helvetica,sans-Serif" font-size="10.00" fill="#000000">mp_mul_basecase_dec</text>
</a>
</g>
</g>
<!-- Node11230&#45;&gt;Node11231 -->
<g id="edge33" class="edge">
<title>Node11230&#45;&gt;Node11231</title>
<path fill="none" stroke="#191970" d="M322.1322,-361.1987C340.6785,-366.197 363.8488,-372.4415 383.8694,-377.8371"/>
<polygon fill="#191970" stroke="#191970" points="383.1434,-381.2663 393.7097,-380.4891 384.965,-374.5074 383.1434,-381.2663"/>
</g>
<!-- Node11234 -->
<g id="node23" class="node">
<title>Node11234</title>
<g id="a_node23"><a xlink:href="libbf_8h.html#a61eaacce56ae40e8efdf0db48f86b28b" target="_top" xlink:title="bfdec_move">
<polygon fill="none" stroke="#ff0000" points="390.5,-418.5 390.5,-437.5 467.5,-437.5 467.5,-418.5 390.5,-418.5"/>
<text text-anchor="middle" x="429" y="-425.5" font-family="Helvetica,sans-Serif" font-size="10.00" fill="#000000">bfdec_move</text>
</a>
</g>
</g>
<!-- Node11230&#45;&gt;Node11234 -->
<g id="edge35" class="edge">
<title>Node11230&#45;&gt;Node11234</title>
<path fill="none" stroke="#191970" d="M305.6212,-361.5439C312.7764,-365.6794 320.9907,-370.7684 328,-376 345.3942,-388.9828 345.0906,-398.3441 364,-409 369.1837,-411.9211 374.8582,-414.4299 380.6269,-416.5751"/>
<polygon fill="#191970" stroke="#191970" points="379.7599,-419.9762 390.354,-419.8508 381.9939,-413.3422 379.7599,-419.9762"/>
</g>
<!-- Node11235&#45;&gt;Node11193 -->
<g id="edge38" class="edge">
<title>Node11235&#45;&gt;Node11193</title>
<path fill="none" stroke="#191970" d="M625.8279,-247.589C643.9006,-252.4944 666.0984,-258.5196 685.3945,-263.7571"/>
<polygon fill="#191970" stroke="#191970" points="684.6157,-267.1723 695.1834,-266.4141 686.4494,-260.4167 684.6157,-267.1723"/>
</g>
<!-- Node11236&#45;&gt;Node11212 -->
<g id="edge43" class="edge">
<title>Node11236&#45;&gt;Node11212</title>
<path fill="none" stroke="#191970" d="M316.5294,-323.5747C320.8594,-326.0734 324.9063,-329.1739 328,-333 371.651,-386.9846 328.2042,-425.5154 364,-485 374.1898,-501.9332 391.0932,-516.5267 405.1083,-526.7077"/>
<polygon fill="#191970" stroke="#191970" points="403.1676,-529.6212 413.3756,-532.4581 407.1647,-523.8746 403.1676,-529.6212"/>
</g>
<!-- Node11237 -->
<g id="node27" class="node">
<title>Node11237</title>
<g id="a_node27"><a xlink:href="libbf_8c.html#ac10038dd7f04c765ddc8fdb12e3257a2" target="_top" xlink:title="__bfdec_sub">
<polygon fill="none" stroke="#ff0000" points="390.5,-190.5 390.5,-209.5 467.5,-209.5 467.5,-190.5 390.5,-190.5"/>
<text text-anchor="middle" x="429" y="-197.5" font-family="Helvetica,sans-Serif" font-size="10.00" fill="#000000">__bfdec_sub</text>
</a>
</g>
</g>
<!-- Node11236&#45;&gt;Node11237 -->
<g id="edge44" class="edge">
<title>Node11236&#45;&gt;Node11237</title>
<path fill="none" stroke="#191970" d="M314.5596,-304.4331C319.4086,-301.8785 324.1458,-298.756 328,-295 353.3384,-270.3075 337.5795,-247.531 364,-224 368.893,-219.6421 374.6464,-216.0522 380.6726,-213.1008"/>
<polygon fill="#191970" stroke="#191970" points="382.4776,-216.1346 390.2824,-208.9696 379.713,-209.7036 382.4776,-216.1346"/>
</g>
<!-- Node11238&#45;&gt;Node11185 -->
<g id="edge51" class="edge">
<title>Node11238&#45;&gt;Node11185</title>
<path fill="none" stroke="#191970" d="M210.1387,-361.561C244.3172,-370.2725 291.6178,-385.4284 328,-409 347.5247,-421.6499 344.1471,-434.8717 364,-447 369.0133,-450.0627 374.546,-452.6536 380.2042,-454.8403"/>
<polygon fill="#191970" stroke="#191970" points="379.181,-458.1898 389.7758,-458.1506 381.469,-451.5743 379.181,-458.1898"/>
</g>
<!-- Node11238&#45;&gt;Node11218 -->
<g id="edge46" class="edge">
<title>Node11238&#45;&gt;Node11218</title>
<path fill="none" stroke="#191970" d="M177.9444,-342.4559C193.7446,-330.5631 222.0745,-309.9828 248,-295 250.8623,-293.3459 253.8915,-291.7113 256.9509,-290.1365"/>
<polygon fill="#191970" stroke="#191970" points="258.6633,-293.1946 266.0827,-285.6313 255.5662,-286.917 258.6633,-293.1946"/>
</g>
<!-- Node11238&#45;&gt;Node11230 -->
<g id="edge49" class="edge">
<title>Node11238&#45;&gt;Node11230</title>
<path fill="none" stroke="#191970" d="M212.1615,-352C222.3987,-352 233.2132,-352 243.3683,-352"/>
<polygon fill="#191970" stroke="#191970" points="243.6606,-355.5001 253.6605,-352 243.6605,-348.5001 243.6606,-355.5001"/>
</g>
<!-- Node11238&#45;&gt;Node11221 -->
<g id="edge50" class="edge">
<title>Node11238&#45;&gt;Node11221</title>
<path fill="none" stroke="#191970" d="M171.7349,-342.4928C184.2757,-323.9721 214.253,-282.6321 248,-257 250.0892,-255.4131 252.3322,-253.9117 254.6509,-252.5012"/>
<polygon fill="#191970" stroke="#191970" points="256.6914,-255.3756 263.8034,-247.5226 253.3465,-249.2265 256.6914,-255.3756"/>
</g>
<!-- Node11238&#45;&gt;Node11236 -->
<g id="edge52" class="edge">
<title>Node11238&#45;&gt;Node11236</title>
<path fill="none" stroke="#191970" d="M196.4119,-342.411C211.7903,-337.6406 230.5822,-331.8112 247.133,-326.6771"/>
<polygon fill="#191970" stroke="#191970" points="248.5839,-329.8916 257.098,-323.5859 246.5099,-323.2059 248.5839,-329.8916"/>
</g>
<!-- Node11239 -->
<g id="node29" class="node">
<title>Node11239</title>
<g id="a_node29"><a xlink:href="libbf_8h.html#a10de87f3c9d3dc623ca131eaa468dd1b" target="_top" xlink:title="bfdec_div">
<polygon fill="none" stroke="#ff0000" points="256,-418.5 256,-437.5 320,-437.5 320,-418.5 256,-418.5"/>
<text text-anchor="middle" x="288" y="-425.5" font-family="Helvetica,sans-Serif" font-size="10.00" fill="#000000">bfdec_div</text>
</a>
</g>
</g>
<!-- Node11238&#45;&gt;Node11239 -->
<g id="edge47" class="edge">
<title>Node11238&#45;&gt;Node11239</title>
<path fill="none" stroke="#191970" d="M180.6429,-361.6844C197.1429,-372.2039 224.3491,-389.4535 248,-404 252.8288,-406.9699 258.0075,-410.1101 262.9838,-413.1054"/>
<polygon fill="#191970" stroke="#191970" points="261.2266,-416.1327 271.6032,-418.2723 264.8257,-410.1288 261.2266,-416.1327"/>
</g>
<!-- Node11239&#45;&gt;Node11212 -->
<g id="edge48" class="edge">
<title>Node11239&#45;&gt;Node11212</title>
<path fill="none" stroke="#191970" d="M314.5596,-437.5669C319.4086,-440.1215 324.1458,-443.244 328,-447 353.3384,-471.6925 337.5795,-494.469 364,-518 372.4413,-525.5181 383.4435,-530.7506 393.9892,-534.3625"/>
<polygon fill="#191970" stroke="#191970" points="393.2765,-537.8035 403.8616,-537.3506 395.3043,-531.1037 393.2765,-537.8035"/>
</g>
</g>
</svg>
