<?xml version="1.0" encoding="UTF-8" standalone="no"?>
<!DOCTYPE svg PUBLIC "-//W3C//DTD SVG 1.1//EN"
 "http://www.w3.org/Graphics/SVG/1.1/DTD/svg11.dtd">
<!-- Generated by graphviz version 2.40.1 (20161225.0304)
 -->
<!-- Title: bfdec_mul Pages: 1 -->
<svg width="428pt" height="104pt"
 viewBox="0.00 0.00 428.00 104.00" xmlns="http://www.w3.org/2000/svg" xmlns:xlink="http://www.w3.org/1999/xlink">
<g id="graph0" class="graph" transform="scale(1 1) rotate(0) translate(4 100)">
<title>bfdec_mul</title>
<!-- Node5568 -->
<g id="node1" class="node">
<title>Node5568</title>
<polygon fill="#bfbfbf" stroke="#000000" points="0,-38.5 0,-57.5 68,-57.5 68,-38.5 0,-38.5"/>
<text text-anchor="middle" x="34" y="-45.5" font-family="Helvetica,sans-Serif" font-size="10.00" fill="#000000">bfdec_mul</text>
</g>
<!-- Node5569 -->
<g id="node2" class="node">
<title>Node5569</title>
<g id="a_node2"><a xlink:href="libbf_8h.html#ae5aa2c2f63fe392a1ab15f1012c512e8" target="_top" xlink:title="bfdec_mul_si">
<polygon fill="none" stroke="#000000" points="110,-76.5 110,-95.5 191,-95.5 191,-76.5 110,-76.5"/>
<text text-anchor="middle" x="150.5" y="-83.5" font-family="Helvetica,sans-Serif" font-size="10.00" fill="#000000">bfdec_mul_si</text>
</a>
</g>
</g>
<!-- Node5568&#45;&gt;Node5569 -->
<g id="edge1" class="edge">
<title>Node5568&#45;&gt;Node5569</title>
<path fill="none" stroke="#191970" d="M73.3216,-60.8259C88.9534,-65.9247 106.6258,-71.6891 121.1115,-76.4141"/>
<polygon fill="#191970" stroke="#191970" points="73.9903,-57.3626 63.3979,-57.589 71.8195,-64.0175 73.9903,-57.3626"/>
</g>
<!-- Node5572 -->
<g id="node5" class="node">
<title>Node5572</title>
<g id="a_node5"><a xlink:href="libbf_8h.html#a1baac52525d382cc854c2e484ce2c169" target="_top" xlink:title="bfdec_pow_ui">
<polygon fill="none" stroke="#000000" points="109,-38.5 109,-57.5 192,-57.5 192,-38.5 109,-38.5"/>
<text text-anchor="middle" x="150.5" y="-45.5" font-family="Helvetica,sans-Serif" font-size="10.00" fill="#000000">bfdec_pow_ui</text>
</a>
</g>
</g>
<!-- Node5568&#45;&gt;Node5572 -->
<g id="edge4" class="edge">
<title>Node5568&#45;&gt;Node5572</title>
<path fill="none" stroke="#191970" d="M78.2019,-48C88.2397,-48 98.8694,-48 108.7994,-48"/>
<polygon fill="#191970" stroke="#191970" points="78.0098,-44.5001 68.0098,-48 78.0098,-51.5001 78.0098,-44.5001"/>
</g>
<!-- Node5573 -->
<g id="node6" class="node">
<title>Node5573</title>
<g id="a_node6"><a xlink:href="libbf_8c.html#a4fe4f91a21701a55cffbc44f1eb141b6" target="_top" xlink:title="bfdec_tdivremu">
<polygon fill="none" stroke="#000000" points="104,-.5 104,-19.5 197,-19.5 197,-.5 104,-.5"/>
<text text-anchor="middle" x="150.5" y="-7.5" font-family="Helvetica,sans-Serif" font-size="10.00" fill="#000000">bfdec_tdivremu</text>
</a>
</g>
</g>
<!-- Node5568&#45;&gt;Node5573 -->
<g id="edge5" class="edge">
<title>Node5568&#45;&gt;Node5573</title>
<path fill="none" stroke="#191970" d="M73.3216,-35.1741C88.9534,-30.0753 106.6258,-24.3109 121.1115,-19.5859"/>
<polygon fill="#191970" stroke="#191970" points="71.8195,-31.9825 63.3979,-38.411 73.9903,-38.6374 71.8195,-31.9825"/>
</g>
<!-- Node5570 -->
<g id="node3" class="node">
<title>Node5570</title>
<g id="a_node3"><a xlink:href="libbf_8h.html#a318508be097917ddd5d1ce187edea68b" target="_top" xlink:title="bfdec_divrem">
<polygon fill="none" stroke="#000000" points="233,-38.5 233,-57.5 316,-57.5 316,-38.5 233,-38.5"/>
<text text-anchor="middle" x="274.5" y="-45.5" font-family="Helvetica,sans-Serif" font-size="10.00" fill="#000000">bfdec_divrem</text>
</a>
</g>
</g>
<!-- Node5569&#45;&gt;Node5570 -->
<g id="edge2" class="edge">
<title>Node5569&#45;&gt;Node5570</title>
<path fill="none" stroke="#191970" d="M191.4047,-73.4647C208.2734,-68.2952 227.5076,-62.4009 243.2196,-57.5859"/>
<polygon fill="#191970" stroke="#191970" points="190.326,-70.1345 181.7904,-76.411 192.3771,-76.8273 190.326,-70.1345"/>
</g>
<!-- Node5571 -->
<g id="node4" class="node">
<title>Node5571</title>
<g id="a_node4"><a xlink:href="libbf_8h.html#a9c0e8e44d597f47e07d562594ca455f2" target="_top" xlink:title="bfdec_rem">
<polygon fill="none" stroke="#000000" points="352,-38.5 352,-57.5 420,-57.5 420,-38.5 352,-38.5"/>
<text text-anchor="middle" x="386" y="-45.5" font-family="Helvetica,sans-Serif" font-size="10.00" fill="#000000">bfdec_rem</text>
</a>
</g>
</g>
<!-- Node5570&#45;&gt;Node5571 -->
<g id="edge3" class="edge">
<title>Node5570&#45;&gt;Node5571</title>
<path fill="none" stroke="#191970" d="M326.1084,-48C334.7998,-48 343.6262,-48 351.7363,-48"/>
<polygon fill="#191970" stroke="#191970" points="326.0185,-44.5001 316.0185,-48 326.0184,-51.5001 326.0185,-44.5001"/>
</g>
<!-- Node5573&#45;&gt;Node5570 -->
<g id="edge6" class="edge">
<title>Node5573&#45;&gt;Node5570</title>
<path fill="none" stroke="#191970" d="M191.4047,-22.5353C208.2734,-27.7048 227.5076,-33.5991 243.2196,-38.4141"/>
<polygon fill="#191970" stroke="#191970" points="192.3771,-19.1727 181.7904,-19.589 190.326,-25.8655 192.3771,-19.1727"/>
</g>
</g>
</svg>
