<?xml version="1.0" encoding="UTF-8" standalone="no"?>
<!DOCTYPE svg PUBLIC "-//W3C//DTD SVG 1.1//EN"
 "http://www.w3.org/Graphics/SVG/1.1/DTD/svg11.dtd">
<!-- Generated by graphviz version 2.40.1 (20161225.0304)
 -->
<!-- Title: bf_max Pages: 1 -->
<!--zoomable 895 -->
<svg id="main" version="1.1" xmlns="http://www.w3.org/2000/svg" xmlns:xlink="http://www.w3.org/1999/xlink" xml:space="preserve" onload="init(evt)">
<style type="text/css"><![CDATA[
.edge:hover path { stroke: red; }
.edge:hover polygon { stroke: red; fill: red; }
]]></style>
<script type="text/javascript"><![CDATA[
var edges = document.getElementsByTagName('g');
if (edges && edges.length) {
  for (var i=0;i<edges.length;i++) {
    if (edges[i].id.substr(0,4)=='edge') {
      edges[i].setAttribute('class','edge');
    }
  }
}
]]></script>
        <defs>
                <circle id="rim" cx="0" cy="0" r="7"/>
                <circle id="rim2" cx="0" cy="0" r="3.5"/>
                <g id="zoomPlus">
                        <use xlink:href="#rim" fill="#404040">
                                <set attributeName="fill" to="#808080" begin="zoomplus.mouseover" end="zoomplus.mouseout"/>
                        </use>
                        <path d="M-4,0h8M0,-4v8" fill="none" stroke="white" stroke-width="1.5" pointer-events="none"/>
                </g>
                <g id="zoomMin">
                        <use xlink:href="#rim" fill="#404040">
                                <set attributeName="fill" to="#808080" begin="zoomminus.mouseover" end="zoomminus.mouseout"/>
                        </use>
                        <path d="M-4,0h8" fill="none" stroke="white" stroke-width="1.5" pointer-events="none"/>
                </g>
                <g id="dirArrow">
                        <path fill="none" stroke="white" stroke-width="1.5" d="M0,-3.0v7 M-2.5,-0.5L0,-3.0L2.5,-0.5"/>
                </g>
               <g id="resetDef">
                       <use xlink:href="#rim2" fill="#404040">
                               <set attributeName="fill" to="#808080" begin="reset.mouseover" end="reset.mouseout"/>
                       </use>
               </g>
        </defs>

<script type="text/javascript">
var viewWidth = 606;
var viewHeight = 895;
var sectionId = 'dynsection-4';
</script>
<script xlink:href="svgpan.js"/>
<svg id="graph" class="graph">
<g id="viewport">
<title>bf_max</title>
<!-- Node105 -->
<g id="node1" class="node">
<title>Node105</title>
<polygon fill="#bfbfbf" stroke="#000000" points="0,-323.5 0,-342.5 53,-342.5 53,-323.5 0,-323.5"/>
<text text-anchor="middle" x="26.5" y="-330.5" font-family="Helvetica,sans-Serif" font-size="10.00" fill="#000000">bf_max</text>
</g>
<!-- Node106 -->
<g id="node2" class="node">
<title>Node106</title>
<g id="a_node2"><a xlink:href="libbf_8c.html#ad7a540de8355f07757e52b48d35dd708" target="_top" xlink:title="__bf_div">
<polygon fill="none" stroke="#000000" points="115.5,-693.5 115.5,-712.5 172.5,-712.5 172.5,-693.5 115.5,-693.5"/>
<text text-anchor="middle" x="144" y="-700.5" font-family="Helvetica,sans-Serif" font-size="10.00" fill="#000000">__bf_div</text>
</a>
</g>
</g>
<!-- Node105&#45;&gt;Node106 -->
<g id="edge1" class="edge">
<title>Node105&#45;&gt;Node106</title>
<path fill="none" stroke="#191970" d="M28.3886,-352.8623C33.4205,-400.3242 49.5544,-523.411 89,-618 101.3803,-647.6875 124.1657,-678.3663 136.1539,-693.4488"/>
<polygon fill="#191970" stroke="#191970" points="31.8518,-352.3202 27.3636,-342.723 24.8873,-353.0243 31.8518,-352.3202"/>
</g>
<!-- Node108 -->
<g id="node4" class="node">
<title>Node108</title>
<g id="a_node4"><a xlink:href="libbf_8c.html#a4f1865c8160fb851cce8015c3edb4d4f" target="_top" xlink:title="bf_tdivremu">
<polygon fill="none" stroke="#000000" points="392.5,-779.5 392.5,-798.5 468.5,-798.5 468.5,-779.5 392.5,-779.5"/>
<text text-anchor="middle" x="430.5" y="-786.5" font-family="Helvetica,sans-Serif" font-size="10.00" fill="#000000">bf_tdivremu</text>
</a>
</g>
</g>
<!-- Node105&#45;&gt;Node108 -->
<g id="edge40" class="edge">
<title>Node105&#45;&gt;Node108</title>
<path fill="none" stroke="#191970" d="M27.0188,-353.0812C29.3591,-430.4593 41.0162,-708.5278 89,-780 152.0744,-873.9497 227.7876,-915.6062 329,-865 352.8514,-853.0743 344.026,-833.4682 365,-817 375.0188,-809.1336 387.5787,-803.0645 399.0132,-798.6199"/>
<polygon fill="#191970" stroke="#191970" points="30.5097,-352.7035 26.7284,-342.8064 23.5124,-352.9013 30.5097,-352.7035"/>
</g>
<!-- Node112 -->
<g id="node8" class="node">
<title>Node112</title>
<g id="a_node8"><a xlink:href="libbf_8c.html#a2b19e3958f6cf3fa0cc534681a5ff259" target="_top" xlink:title="bf_sincos">
<polygon fill="none" stroke="#ff0000" points="399.5,-418.5 399.5,-437.5 461.5,-437.5 461.5,-418.5 399.5,-418.5"/>
<text text-anchor="middle" x="430.5" y="-425.5" font-family="Helvetica,sans-Serif" font-size="10.00" fill="#000000">bf_sincos</text>
</a>
</g>
</g>
<!-- Node105&#45;&gt;Node112 -->
<g id="edge38" class="edge">
<title>Node105&#45;&gt;Node112</title>
<path fill="none" stroke="#191970" d="M63.2771,-333.1014C121.2334,-334.2527 236.7155,-340.5892 329,-371 363.1666,-382.259 398.8914,-405.4182 417.4894,-418.4855"/>
<polygon fill="#191970" stroke="#191970" points="63.1971,-329.5998 53.1433,-332.9421 63.0871,-336.5989 63.1971,-329.5998"/>
</g>
<!-- Node151 -->
<g id="node9" class="node">
<title>Node151</title>
<g id="a_node9"><a xlink:href="libbf_8c.html#ab0fc8c7b5ee65f945fae1794494865f1" target="_top" xlink:title="__bfdec_div">
<polygon fill="none" stroke="#000000" points="107,-304.5 107,-323.5 181,-323.5 181,-304.5 107,-304.5"/>
<text text-anchor="middle" x="144" y="-311.5" font-family="Helvetica,sans-Serif" font-size="10.00" fill="#000000">__bfdec_div</text>
</a>
</g>
</g>
<!-- Node105&#45;&gt;Node151 -->
<g id="edge9" class="edge">
<title>Node105&#45;&gt;Node151</title>
<path fill="none" stroke="#191970" d="M63.3114,-327.0475C77.1473,-324.8102 92.879,-322.2664 106.7542,-320.0227"/>
<polygon fill="#191970" stroke="#191970" points="62.4756,-323.6371 53.1626,-328.6886 63.5931,-330.5474 62.4756,-323.6371"/>
</g>
<!-- Node156 -->
<g id="node11" class="node">
<title>Node156</title>
<g id="a_node11"><a xlink:href="libbf_8c.html#aaebd1df91497246cd81f23918af58d33" target="_top" xlink:title="bf_add_internal">
<polygon fill="none" stroke="#000000" points="236,-836.5 236,-855.5 328,-855.5 328,-836.5 236,-836.5"/>
<text text-anchor="middle" x="282" y="-843.5" font-family="Helvetica,sans-Serif" font-size="10.00" fill="#000000">bf_add_internal</text>
</a>
</g>
</g>
<!-- Node105&#45;&gt;Node156 -->
<g id="edge11" class="edge">
<title>Node105&#45;&gt;Node156</title>
<path fill="none" stroke="#191970" d="M27.5574,-352.624C31.6486,-422.7086 48.2842,-659.7885 89,-722 128.9118,-782.9831 210.3855,-820.1436 253.6056,-836.3779"/>
<polygon fill="#191970" stroke="#191970" points="31.0458,-352.318 26.9888,-342.5308 24.0569,-352.7119 31.0458,-352.318"/>
</g>
<!-- Node174 -->
<g id="node14" class="node">
<title>Node174</title>
<g id="a_node14"><a xlink:href="libbf_8c.html#a680c69ec7601c020906ba64f7ebe8818" target="_top" xlink:title="bf_add_limb">
<polygon fill="none" stroke="#000000" points="105.5,-266.5 105.5,-285.5 182.5,-285.5 182.5,-266.5 105.5,-266.5"/>
<text text-anchor="middle" x="144" y="-273.5" font-family="Helvetica,sans-Serif" font-size="10.00" fill="#000000">bf_add_limb</text>
</a>
</g>
</g>
<!-- Node105&#45;&gt;Node174 -->
<g id="edge14" class="edge">
<title>Node105&#45;&gt;Node174</title>
<path fill="none" stroke="#191970" d="M49.0177,-317.6985C60.6296,-310.2288 75.2164,-301.4798 89,-295 96.4968,-291.4757 104.834,-288.2597 112.704,-285.5162"/>
<polygon fill="#191970" stroke="#191970" points="46.8532,-314.9327 40.4151,-323.347 50.6953,-320.7841 46.8532,-314.9327"/>
</g>
<!-- Node149 -->
<g id="node16" class="node">
<title>Node149</title>
<g id="a_node16"><a xlink:href="libbf_8h.html#a8ee86879e3da22442956f47356855edd" target="_top" xlink:title="bf_asin">
<polygon fill="none" stroke="#000000" points="256,-532.5 256,-551.5 308,-551.5 308,-532.5 256,-532.5"/>
<text text-anchor="middle" x="282" y="-539.5" font-family="Helvetica,sans-Serif" font-size="10.00" fill="#000000">bf_asin</text>
</a>
</g>
</g>
<!-- Node105&#45;&gt;Node149 -->
<g id="edge16" class="edge">
<title>Node105&#45;&gt;Node149</title>
<path fill="none" stroke="#191970" d="M29.1781,-352.7243C34.5902,-384.8892 49.844,-448.5941 89,-484 136.6205,-527.0597 215.1355,-538.1896 255.7876,-541.04"/>
<polygon fill="#191970" stroke="#191970" points="32.6257,-352.115 27.6512,-342.7606 25.7064,-353.1754 32.6257,-352.115"/>
</g>
<!-- Node142 -->
<g id="node17" class="node">
<title>Node142</title>
<g id="a_node17"><a xlink:href="libbf_8h.html#a0bb2c5b98e3f978b84df9849c7ec50d6" target="_top" xlink:title="bf_atan">
<polygon fill="none" stroke="#ff0000" points="255.5,-380.5 255.5,-399.5 308.5,-399.5 308.5,-380.5 255.5,-380.5"/>
<text text-anchor="middle" x="282" y="-387.5" font-family="Helvetica,sans-Serif" font-size="10.00" fill="#000000">bf_atan</text>
</a>
</g>
</g>
<!-- Node105&#45;&gt;Node142 -->
<g id="edge17" class="edge">
<title>Node105&#45;&gt;Node142</title>
<path fill="none" stroke="#191970" d="M50.0598,-348.0453C61.4079,-354.5994 75.4662,-361.7429 89,-366 146.4933,-384.0848 217.643,-388.6181 255.4528,-389.7054"/>
<polygon fill="#191970" stroke="#191970" points="51.6123,-344.8952 41.2359,-342.7548 48.0127,-350.8988 51.6123,-344.8952"/>
</g>
<!-- Node175 -->
<g id="node18" class="node">
<title>Node175</title>
<g id="a_node18"><a xlink:href="libbf_8h.html#a165ae2c6d3fee618014b7c9ea4f944dc" target="_top" xlink:title="bf_cmpu">
<polygon fill="none" stroke="#ff0000" points="114.5,-589.5 114.5,-608.5 173.5,-608.5 173.5,-589.5 114.5,-589.5"/>
<text text-anchor="middle" x="144" y="-596.5" font-family="Helvetica,sans-Serif" font-size="10.00" fill="#000000">bf_cmpu</text>
</a>
</g>
</g>
<!-- Node105&#45;&gt;Node175 -->
<g id="edge18" class="edge">
<title>Node105&#45;&gt;Node175</title>
<path fill="none" stroke="#191970" d="M28.8411,-352.7063C34.2174,-391.9918 50.1079,-481.7992 89,-546 99.7183,-563.6931 117.7972,-579.5037 130.286,-589.1559"/>
<polygon fill="#191970" stroke="#191970" points="32.2913,-352.0944 27.5443,-342.6225 25.3485,-352.9873 32.2913,-352.0944"/>
</g>
<!-- Node124 -->
<g id="node21" class="node">
<title>Node124</title>
<g id="a_node21"><a xlink:href="libbf_8c.html#ad79aefc435021a0743c89cb4aec7fa56" target="_top" xlink:title="bf_ftoa_internal">
<polygon fill="none" stroke="#ff0000" points="235,-494.5 235,-513.5 329,-513.5 329,-494.5 235,-494.5"/>
<text text-anchor="middle" x="282" y="-501.5" font-family="Helvetica,sans-Serif" font-size="10.00" fill="#000000">bf_ftoa_internal</text>
</a>
</g>
</g>
<!-- Node105&#45;&gt;Node124 -->
<g id="edge30" class="edge">
<title>Node105&#45;&gt;Node124</title>
<path fill="none" stroke="#191970" d="M31.9509,-352.1926C40.1514,-377.6028 58.089,-422.0935 89,-447 131.0322,-480.8674 192.6268,-494.617 234.862,-500.196"/>
<polygon fill="#191970" stroke="#191970" points="35.2858,-351.1291 29.0232,-342.5834 28.5897,-353.1693 35.2858,-351.1291"/>
</g>
<!-- Node193 -->
<g id="node23" class="node">
<title>Node193</title>
<g id="a_node23"><a xlink:href="libbf_8c.html#a3d7fdccc1995b3a88b68c5e7a57dce16" target="_top" xlink:title="bf_get_rnd_add">
<polygon fill="none" stroke="#ff0000" points="98,-228.5 98,-247.5 190,-247.5 190,-228.5 98,-228.5"/>
<text text-anchor="middle" x="144" y="-235.5" font-family="Helvetica,sans-Serif" font-size="10.00" fill="#000000">bf_get_rnd_add</text>
</a>
</g>
</g>
<!-- Node105&#45;&gt;Node193 -->
<g id="edge31" class="edge">
<title>Node105&#45;&gt;Node193</title>
<path fill="none" stroke="#191970" d="M37.268,-314.8179C48.2774,-297.6774 66.8702,-272.3877 89,-257 94.4742,-253.1936 100.7815,-250.0869 107.1284,-247.5723"/>
<polygon fill="#191970" stroke="#191970" points="34.2501,-313.0435 31.9576,-323.3874 40.2002,-316.7308 34.2501,-313.0435"/>
</g>
<!-- Node162 -->
<g id="node24" class="node">
<title>Node162</title>
<g id="a_node24"><a xlink:href="libbf_8c.html#ad7d8e39c51ec431bcd496bb37382ae94" target="_top" xlink:title="bf_logic_op">
<polygon fill="none" stroke="#ff0000" points="108,-190.5 108,-209.5 180,-209.5 180,-190.5 108,-190.5"/>
<text text-anchor="middle" x="144" y="-197.5" font-family="Helvetica,sans-Serif" font-size="10.00" fill="#000000">bf_logic_op</text>
</a>
</g>
</g>
<!-- Node105&#45;&gt;Node162 -->
<g id="edge32" class="edge">
<title>Node105&#45;&gt;Node162</title>
<path fill="none" stroke="#191970" d="M32.2456,-313.6347C40.6915,-288.3932 58.8138,-244.4751 89,-219 94.4815,-214.374 101.1531,-210.8525 107.9329,-208.1787"/>
<polygon fill="#191970" stroke="#191970" points="28.8986,-312.6106 29.2113,-323.2009 35.571,-314.7271 28.8986,-312.6106"/>
</g>
<!-- Node195 -->
<g id="node25" class="node">
<title>Node195</title>
<g id="a_node25"><a xlink:href="libbf_8h.html#ae1d5fe9356228cc3a566786637f26680" target="_top" xlink:title="bf_mul_2exp">
<polygon fill="none" stroke="#ff0000" points="104,-418.5 104,-437.5 184,-437.5 184,-418.5 104,-418.5"/>
<text text-anchor="middle" x="144" y="-425.5" font-family="Helvetica,sans-Serif" font-size="10.00" fill="#000000">bf_mul_2exp</text>
</a>
</g>
</g>
<!-- Node105&#45;&gt;Node195 -->
<g id="edge33" class="edge">
<title>Node105&#45;&gt;Node195</title>
<path fill="none" stroke="#191970" d="M39.0474,-351.3059C50.5476,-366.9765 68.8152,-389.2762 89,-404 96.9959,-409.8326 106.6315,-414.6414 115.5886,-418.383"/>
<polygon fill="#191970" stroke="#191970" points="41.7487,-349.0654 33.095,-342.9527 36.048,-353.1277 41.7487,-349.0654"/>
</g>
<!-- Node116 -->
<g id="node26" class="node">
<title>Node116</title>
<g id="a_node26"><a xlink:href="libbf_8h.html#a9a518cd74072443dc50e179d2a9ea610" target="_top" xlink:title="bf_sin">
<polygon fill="none" stroke="#000000" points="121,-152.5 121,-171.5 167,-171.5 167,-152.5 121,-152.5"/>
<text text-anchor="middle" x="144" y="-159.5" font-family="Helvetica,sans-Serif" font-size="10.00" fill="#000000">bf_sin</text>
</a>
</g>
</g>
<!-- Node105&#45;&gt;Node116 -->
<g id="edge37" class="edge">
<title>Node105&#45;&gt;Node116</title>
<path fill="none" stroke="#191970" d="M29.302,-313.3252C34.8925,-281.2066 50.3973,-217.4448 89,-181 97.668,-172.8165 110.0307,-168.1404 120.8404,-165.4769"/>
<polygon fill="#191970" stroke="#191970" points="25.8347,-312.8433 27.7164,-323.2696 32.7474,-313.9455 25.8347,-312.8433"/>
</g>
<!-- Node118 -->
<g id="node27" class="node">
<title>Node118</title>
<g id="a_node27"><a xlink:href="libbf_8h.html#a3291f57ed40cdf116203afa57f73e91e" target="_top" xlink:title="bf_tan">
<polygon fill="none" stroke="#000000" points="120.5,-114.5 120.5,-133.5 167.5,-133.5 167.5,-114.5 120.5,-114.5"/>
<text text-anchor="middle" x="144" y="-121.5" font-family="Helvetica,sans-Serif" font-size="10.00" fill="#000000">bf_tan</text>
</a>
</g>
</g>
<!-- Node105&#45;&gt;Node118 -->
<g id="edge39" class="edge">
<title>Node105&#45;&gt;Node118</title>
<path fill="none" stroke="#191970" d="M27.445,-312.8353C30.3217,-274.5151 41.9552,-190.7473 89,-143 97.2956,-134.5805 109.4968,-129.8883 120.3008,-127.275"/>
<polygon fill="#191970" stroke="#191970" points="23.9293,-312.9811 26.8038,-323.1785 30.9159,-313.4143 23.9293,-312.9811"/>
</g>
<!-- Node187 -->
<g id="node28" class="node">
<title>Node187</title>
<g id="a_node28"><a xlink:href="libbf_8c.html#adab81046eaf5fc5a75e1bae96b75be66" target="_top" xlink:title="bfdec_add_internal">
<polygon fill="none" stroke="#ff0000" points="89,-76.5 89,-95.5 199,-95.5 199,-76.5 89,-76.5"/>
<text text-anchor="middle" x="144" y="-83.5" font-family="Helvetica,sans-Serif" font-size="10.00" fill="#000000">bfdec_add_internal</text>
</a>
</g>
</g>
<!-- Node105&#45;&gt;Node187 -->
<g id="edge41" class="edge">
<title>Node105&#45;&gt;Node187</title>
<path fill="none" stroke="#191970" d="M29.525,-313.1353C37.4545,-263.4736 60.2315,-135.7041 89,-105 92.6609,-101.0928 97.1633,-97.9891 102.0019,-95.5236"/>
<polygon fill="#191970" stroke="#191970" points="26.0326,-312.8153 27.9464,-323.2359 32.9486,-313.8963 26.0326,-312.8153"/>
</g>
<!-- Node208 -->
<g id="node29" class="node">
<title>Node208</title>
<g id="a_node29"><a xlink:href="libbf_8c.html#a17bf08f4c7268d0f16f31fbe1951bf77" target="_top" xlink:title="bfdec_get_rnd_add">
<polygon fill="none" stroke="#ff0000" points="89.5,-38.5 89.5,-57.5 198.5,-57.5 198.5,-38.5 89.5,-38.5"/>
<text text-anchor="middle" x="144" y="-45.5" font-family="Helvetica,sans-Serif" font-size="10.00" fill="#000000">bfdec_get_rnd_add</text>
</a>
</g>
</g>
<!-- Node105&#45;&gt;Node208 -->
<g id="edge42" class="edge">
<title>Node105&#45;&gt;Node208</title>
<path fill="none" stroke="#191970" d="M28.6753,-313.2138C35.1186,-257.988 55.7564,-103.8141 89,-67 92.5207,-63.1012 96.8804,-60.0023 101.593,-57.5393"/>
<polygon fill="#191970" stroke="#191970" points="25.1672,-313.0876 27.5164,-323.4187 32.1225,-313.8775 25.1672,-313.0876"/>
</g>
<!-- Node218 -->
<g id="node30" class="node">
<title>Node218</title>
<g id="a_node30"><a xlink:href="libbf_8h.html#aadf1781139c916e6ccb6ea473bf5a2d1" target="_top" xlink:title="bfdec_sqrt">
<polygon fill="none" stroke="#000000" points="110,-.5 110,-19.5 178,-19.5 178,-.5 110,-.5"/>
<text text-anchor="middle" x="144" y="-7.5" font-family="Helvetica,sans-Serif" font-size="10.00" fill="#000000">bfdec_sqrt</text>
</a>
</g>
</g>
<!-- Node105&#45;&gt;Node218 -->
<g id="edge43" class="edge">
<title>Node105&#45;&gt;Node218</title>
<path fill="none" stroke="#191970" d="M28.0421,-313.2205C33.1312,-252.7732 51.2631,-71.9853 89,-29 94.4652,-22.7747 102.0723,-18.5881 109.8883,-15.7728"/>
<polygon fill="#191970" stroke="#191970" points="24.5413,-313.0882 27.2188,-323.3391 31.5183,-313.6559 24.5413,-313.0882"/>
</g>
<!-- Node107 -->
<g id="node3" class="node">
<title>Node107</title>
<g id="a_node3"><a xlink:href="libbf_8h.html#a030665e68e114717678fb0d0453bb3c6" target="_top" xlink:title="bf_div">
<polygon fill="none" stroke="#ff0000" points="258.5,-760.5 258.5,-779.5 305.5,-779.5 305.5,-760.5 258.5,-760.5"/>
<text text-anchor="middle" x="282" y="-767.5" font-family="Helvetica,sans-Serif" font-size="10.00" fill="#000000">bf_div</text>
</a>
</g>
</g>
<!-- Node106&#45;&gt;Node107 -->
<g id="edge2" class="edge">
<title>Node106&#45;&gt;Node107</title>
<path fill="none" stroke="#191970" d="M173.0391,-717.0987C199.8406,-730.111 238.9166,-749.0827 262.2646,-760.4183"/>
<polygon fill="#191970" stroke="#191970" points="174.2965,-713.8185 163.772,-712.5995 171.2392,-720.1156 174.2965,-713.8185"/>
</g>
<!-- Node107&#45;&gt;Node108 -->
<g id="edge3" class="edge">
<title>Node107&#45;&gt;Node108</title>
<path fill="none" stroke="#191970" d="M315.7517,-774.3184C338.5424,-777.2344 368.6676,-781.0888 392.3322,-784.1166"/>
<polygon fill="#191970" stroke="#191970" points="315.8936,-770.8081 305.5303,-773.0106 315.0052,-777.7515 315.8936,-770.8081"/>
</g>
<!-- Node127 -->
<g id="node6" class="node">
<title>Node127</title>
<g id="a_node6"><a xlink:href="libbf_8c.html#aa94726eca10adb51bd141319fdfdb20c" target="_top" xlink:title="bf_integer_to_radix_rec">
<polygon fill="none" stroke="#ff0000" points="365,-656.5 365,-675.5 496,-675.5 496,-656.5 365,-656.5"/>
<text text-anchor="middle" x="430.5" y="-663.5" font-family="Helvetica,sans-Serif" font-size="10.00" fill="#000000">bf_integer_to_radix_rec</text>
</a>
</g>
</g>
<!-- Node107&#45;&gt;Node127 -->
<g id="edge5" class="edge">
<title>Node107&#45;&gt;Node127</title>
<path fill="none" stroke="#191970" d="M304.1553,-754.4838C335.3041,-732.6692 391.1064,-693.5888 416.8288,-675.5745"/>
<polygon fill="#191970" stroke="#191970" points="301.8876,-751.799 295.7043,-760.4023 305.9032,-757.5327 301.8876,-751.799"/>
</g>
<!-- Node130 -->
<g id="node7" class="node">
<title>Node130</title>
<g id="a_node7"><a xlink:href="libbf_8c.html#a13930fbd670b65bf9f8c07a0fbcfc63b" target="_top" xlink:title="bf_convert_to_radix">
<polygon fill="none" stroke="#000000" points="374,-722.5 374,-741.5 487,-741.5 487,-722.5 374,-722.5"/>
<text text-anchor="middle" x="430.5" y="-729.5" font-family="Helvetica,sans-Serif" font-size="10.00" fill="#000000">bf_convert_to_radix</text>
</a>
</g>
</g>
<!-- Node107&#45;&gt;Node130 -->
<g id="edge7" class="edge">
<title>Node107&#45;&gt;Node130</title>
<path fill="none" stroke="#191970" d="M315.2417,-761.4937C338.3681,-755.5759 369.2276,-747.6791 393.1949,-741.5461"/>
<polygon fill="#191970" stroke="#191970" points="314.3504,-758.1089 305.5303,-763.9788 316.0858,-764.8904 314.3504,-758.1089"/>
</g>
<!-- Node107&#45;&gt;Node112 -->
<g id="edge8" class="edge">
<title>Node107&#45;&gt;Node112</title>
<path fill="none" stroke="#191970" d="M298.8166,-752.8788C308.6569,-742.1295 320.7319,-727.581 329,-713 385.8677,-612.7125 419.8362,-474.8783 428.3665,-437.6127"/>
<polygon fill="#191970" stroke="#191970" points="296.1381,-750.6177 291.8273,-760.2959 301.2326,-755.4184 296.1381,-750.6177"/>
</g>
<!-- Node109 -->
<g id="node5" class="node">
<title>Node109</title>
<g id="a_node5"><a xlink:href="libbf_8h.html#a951ec20cd7fa3bf021d165b213e15ce4" target="_top" xlink:title="bf_divrem">
<polygon fill="none" stroke="#ff0000" points="532,-693.5 532,-712.5 598,-712.5 598,-693.5 532,-693.5"/>
<text text-anchor="middle" x="565" y="-700.5" font-family="Helvetica,sans-Serif" font-size="10.00" fill="#000000">bf_divrem</text>
</a>
</g>
</g>
<!-- Node108&#45;&gt;Node109 -->
<g id="edge4" class="edge">
<title>Node108&#45;&gt;Node109</title>
<path fill="none" stroke="#191970" d="M456.6932,-774.4577C468.7951,-767.5729 483.2729,-759.0995 496,-751 515.9439,-738.3078 538.2775,-722.4575 551.9897,-712.5287"/>
<polygon fill="#191970" stroke="#191970" points="454.9591,-771.4174 447.9703,-779.3803 458.3994,-777.5136 454.9591,-771.4174"/>
</g>
<!-- Node127&#45;&gt;Node127 -->
<g id="edge6" class="edge">
<title>Node127&#45;&gt;Node127</title>
<path fill="none" stroke="#191970" d="M405.5745,-685.0292C406.9341,-690.128 415.2426,-694 430.5,-694 454.3164,-694 461.2008,-684.5653 451.1533,-675.7571"/>
<polygon fill="#191970" stroke="#191970" points="408.8407,-686.304 409.8467,-675.7571 402.4831,-683.3747 408.8407,-686.304"/>
</g>
<!-- Node152 -->
<g id="node10" class="node">
<title>Node152</title>
<g id="a_node10"><a xlink:href="libbf_8h.html#a10de87f3c9d3dc623ca131eaa468dd1b" target="_top" xlink:title="bfdec_div">
<polygon fill="none" stroke="#ff0000" points="250,-304.5 250,-323.5 314,-323.5 314,-304.5 250,-304.5"/>
<text text-anchor="middle" x="282" y="-311.5" font-family="Helvetica,sans-Serif" font-size="10.00" fill="#000000">bfdec_div</text>
</a>
</g>
</g>
<!-- Node151&#45;&gt;Node152 -->
<g id="edge10" class="edge">
<title>Node151&#45;&gt;Node152</title>
<path fill="none" stroke="#191970" d="M191.4428,-314C210.6928,-314 232.4314,-314 249.7839,-314"/>
<polygon fill="#191970" stroke="#191970" points="191.3448,-310.5001 181.3448,-314 191.3448,-317.5001 191.3448,-310.5001"/>
</g>
<!-- Node157 -->
<g id="node12" class="node">
<title>Node157</title>
<g id="a_node12"><a xlink:href="libbf_8c.html#a951a1d3ebb338129d86e00f51b47f2ee" target="_top" xlink:title="__bf_add">
<polygon fill="none" stroke="#ff0000" points="400.5,-864.5 400.5,-883.5 460.5,-883.5 460.5,-864.5 400.5,-864.5"/>
<text text-anchor="middle" x="430.5" y="-871.5" font-family="Helvetica,sans-Serif" font-size="10.00" fill="#000000">__bf_add</text>
</a>
</g>
</g>
<!-- Node156&#45;&gt;Node157 -->
<g id="edge12" class="edge">
<title>Node156&#45;&gt;Node157</title>
<path fill="none" stroke="#191970" d="M338.0278,-856.5642C359.1661,-860.5498 382.4045,-864.9315 400.2978,-868.3053"/>
<polygon fill="#191970" stroke="#191970" points="338.6477,-853.1194 328.1723,-854.7059 337.3506,-859.9982 338.6477,-853.1194"/>
</g>
<!-- Node172 -->
<g id="node13" class="node">
<title>Node172</title>
<g id="a_node13"><a xlink:href="libbf_8c.html#aa3b3bc85aee9c531439d5fbc92986dfe" target="_top" xlink:title="__bf_sub">
<polygon fill="none" stroke="#ff0000" points="401,-826.5 401,-845.5 460,-845.5 460,-826.5 401,-826.5"/>
<text text-anchor="middle" x="430.5" y="-833.5" font-family="Helvetica,sans-Serif" font-size="10.00" fill="#000000">__bf_sub</text>
</a>
</g>
</g>
<!-- Node156&#45;&gt;Node172 -->
<g id="edge13" class="edge">
<title>Node156&#45;&gt;Node172</title>
<path fill="none" stroke="#191970" d="M338.3898,-842.2027C359.6087,-840.7738 382.8964,-839.2056 400.7473,-838.0036"/>
<polygon fill="#191970" stroke="#191970" points="337.9145,-838.7267 328.1723,-842.8908 338.3849,-845.7109 337.9145,-838.7267"/>
</g>
<!-- Node120 -->
<g id="node15" class="node">
<title>Node120</title>
<g id="a_node15"><a xlink:href="libbf_8c.html#aaaeb6c790a8b174f3c5631ee33c81910" target="_top" xlink:title="bf_atof_internal">
<polygon fill="none" stroke="#ff0000" points="235,-266.5 235,-285.5 329,-285.5 329,-266.5 235,-266.5"/>
<text text-anchor="middle" x="282" y="-273.5" font-family="Helvetica,sans-Serif" font-size="10.00" fill="#000000">bf_atof_internal</text>
</a>
</g>
</g>
<!-- Node174&#45;&gt;Node120 -->
<g id="edge15" class="edge">
<title>Node174&#45;&gt;Node120</title>
<path fill="none" stroke="#191970" d="M192.9716,-276C206.6056,-276 221.3819,-276 234.9055,-276"/>
<polygon fill="#191970" stroke="#191970" points="192.808,-272.5001 182.8079,-276 192.8079,-279.5001 192.808,-272.5001"/>
</g>
<!-- Node175&#45;&gt;Node108 -->
<g id="edge22" class="edge">
<title>Node175&#45;&gt;Node108</title>
<path fill="none" stroke="#191970" d="M157.5069,-617.0017C169.5775,-633.7032 187.139,-659.5894 199,-684 220.5605,-728.3726 194.8558,-760.3256 235,-789 284.4378,-824.3127 360.3212,-810.2428 401.4972,-798.5842"/>
<polygon fill="#191970" stroke="#191970" points="160.177,-614.7244 151.437,-608.7358 154.5348,-618.8676 160.177,-614.7244"/>
</g>
<!-- Node175&#45;&gt;Node109 -->
<g id="edge23" class="edge">
<title>Node175&#45;&gt;Node109</title>
<path fill="none" stroke="#191970" d="M183.8621,-601.7204C263.7507,-607.6122 440.5474,-622.9876 496,-647 520.9174,-657.7899 544.1866,-680.2124 556.2966,-693.1728"/>
<polygon fill="#191970" stroke="#191970" points="183.9343,-598.2166 173.7074,-600.9843 183.4281,-605.1982 183.9343,-598.2166"/>
</g>
<!-- Node175&#45;&gt;Node127 -->
<g id="edge24" class="edge">
<title>Node175&#45;&gt;Node127</title>
<path fill="none" stroke="#191970" d="M176.3914,-612.3186C193.5743,-618.9807 215.1792,-626.7264 235,-632 277.614,-643.3381 326.489,-651.8381 364.7105,-657.5035"/>
<polygon fill="#191970" stroke="#191970" points="177.4191,-608.9616 166.8323,-608.5482 174.8506,-615.4733 177.4191,-608.9616"/>
</g>
<!-- Node175&#45;&gt;Node130 -->
<g id="edge25" class="edge">
<title>Node175&#45;&gt;Node130</title>
<path fill="none" stroke="#191970" d="M155.8002,-617.0211C175.3136,-646.2134 214.2106,-701.7235 235,-713 277.4149,-736.0066 332.6697,-739.385 373.6119,-737.8046"/>
<polygon fill="#191970" stroke="#191970" points="158.6338,-614.961 150.1932,-608.5573 152.7981,-618.8269 158.6338,-614.961"/>
</g>
<!-- Node175&#45;&gt;Node156 -->
<g id="edge21" class="edge">
<title>Node175&#45;&gt;Node156</title>
<path fill="none" stroke="#191970" d="M157.9439,-616.7994C170.3116,-633.3634 188.0639,-659.1613 199,-684 224.5417,-742.0121 195.2949,-772.5906 235,-822 239.9356,-828.1419 246.8593,-832.8657 253.8782,-836.4311"/>
<polygon fill="#191970" stroke="#191970" points="160.5496,-614.4442 151.7044,-608.612 154.982,-618.6871 160.5496,-614.4442"/>
</g>
<!-- Node175&#45;&gt;Node149 -->
<g id="edge29" class="edge">
<title>Node175&#45;&gt;Node149</title>
<path fill="none" stroke="#191970" d="M176.442,-585.3474C193.795,-578.0713 215.5403,-568.996 235,-561 242.4895,-557.9225 250.666,-554.6031 258.0685,-551.6132"/>
<polygon fill="#191970" stroke="#191970" points="174.6489,-582.3041 166.7829,-589.4017 177.3582,-588.7586 174.6489,-582.3041"/>
</g>
<!-- Node175&#45;&gt;Node142 -->
<g id="edge28" class="edge">
<title>Node175&#45;&gt;Node142</title>
<path fill="none" stroke="#191970" d="M153.9638,-580.3697C169.857,-551.1397 202.4821,-493.0834 235,-447 247.2754,-429.6036 263.3933,-410.8013 273.209,-399.7311"/>
<polygon fill="#191970" stroke="#191970" points="150.7381,-578.9773 149.0676,-589.4396 156.8979,-582.3026 150.7381,-578.9773"/>
</g>
<!-- Node176 -->
<g id="node19" class="node">
<title>Node176</title>
<g id="a_node19"><a xlink:href="libbf_8h.html#a8e4b224e136c1b2f7785a8cdf6fe9d06" target="_top" xlink:title="bf_cmp_full">
<polygon fill="none" stroke="#ff0000" points="245,-570.5 245,-589.5 319,-589.5 319,-570.5 245,-570.5"/>
<text text-anchor="middle" x="282" y="-577.5" font-family="Helvetica,sans-Serif" font-size="10.00" fill="#000000">bf_cmp_full</text>
</a>
</g>
</g>
<!-- Node175&#45;&gt;Node176 -->
<g id="edge19" class="edge">
<title>Node175&#45;&gt;Node176</title>
<path fill="none" stroke="#191970" d="M183.5798,-593.5506C202.8421,-590.8986 225.8681,-587.7283 244.8036,-585.1212"/>
<polygon fill="#191970" stroke="#191970" points="183.0336,-590.0927 173.6045,-594.924 183.9884,-597.0273 183.0336,-590.0927"/>
</g>
<!-- Node178 -->
<g id="node20" class="node">
<title>Node178</title>
<g id="a_node20"><a xlink:href="libbf_8h.html#a9508b6f4e9f4be88f4b5b0352217e9c5" target="_top" xlink:title="bf_cmp">
<polygon fill="none" stroke="#ff0000" points="255.5,-684.5 255.5,-703.5 308.5,-703.5 308.5,-684.5 255.5,-684.5"/>
<text text-anchor="middle" x="282" y="-691.5" font-family="Helvetica,sans-Serif" font-size="10.00" fill="#000000">bf_cmp</text>
</a>
</g>
</g>
<!-- Node175&#45;&gt;Node178 -->
<g id="edge20" class="edge">
<title>Node175&#45;&gt;Node178</title>
<path fill="none" stroke="#191970" d="M162.8967,-615.4798C180.7754,-630.6427 208.7141,-653.25 235,-670 243.1902,-675.219 252.6559,-680.2308 260.9367,-684.3121"/>
<polygon fill="#191970" stroke="#191970" points="164.8494,-612.5437 154.9793,-608.6925 160.2934,-617.8582 164.8494,-612.5437"/>
</g>
<!-- Node175&#45;&gt;Node124 -->
<g id="edge26" class="edge">
<title>Node175&#45;&gt;Node124</title>
<path fill="none" stroke="#191970" d="M160.9269,-582.0475C178.3229,-565.3371 206.7797,-539.9158 235,-523 240.8882,-519.4705 247.5515,-516.3279 253.9709,-513.6642"/>
<polygon fill="#191970" stroke="#191970" points="158.0313,-579.9834 153.3251,-589.4756 162.9235,-584.99 158.0313,-579.9834"/>
</g>
<!-- Node136 -->
<g id="node22" class="node">
<title>Node136</title>
<g id="a_node22"><a xlink:href="libbf_8h.html#a93fe073491f8c5f086a75e7bf8865b34" target="_top" xlink:title="bf_pow">
<polygon fill="none" stroke="#000000" points="256,-456.5 256,-475.5 308,-475.5 308,-456.5 256,-456.5"/>
<text text-anchor="middle" x="282" y="-463.5" font-family="Helvetica,sans-Serif" font-size="10.00" fill="#000000">bf_pow</text>
</a>
</g>
</g>
<!-- Node175&#45;&gt;Node136 -->
<g id="edge27" class="edge">
<title>Node175&#45;&gt;Node136</title>
<path fill="none" stroke="#191970" d="M154.4939,-580.6019C169.4663,-555.8138 199.1534,-511.7255 235,-485 241.2093,-480.3706 248.7034,-476.6789 255.8653,-473.8271"/>
<polygon fill="#191970" stroke="#191970" points="151.3903,-578.9747 149.3294,-589.3672 157.4213,-582.5283 151.3903,-578.9747"/>
</g>
<!-- Node195&#45;&gt;Node112 -->
<g id="edge35" class="edge">
<title>Node195&#45;&gt;Node112</title>
<path fill="none" stroke="#191970" d="M194.3908,-428C253.6486,-428 350.1606,-428 399.4271,-428"/>
<polygon fill="#191970" stroke="#191970" points="194.1383,-424.5001 184.1383,-428 194.1382,-431.5001 194.1383,-424.5001"/>
</g>
<!-- Node195&#45;&gt;Node142 -->
<g id="edge36" class="edge">
<title>Node195&#45;&gt;Node142</title>
<path fill="none" stroke="#191970" d="M188.649,-415.7054C210.7015,-409.6329 236.5609,-402.5122 255.4637,-397.3071"/>
<polygon fill="#191970" stroke="#191970" points="187.5352,-412.3817 178.8232,-418.411 189.3936,-419.1305 187.5352,-412.3817"/>
</g>
<!-- Node195&#45;&gt;Node136 -->
<g id="edge34" class="edge">
<title>Node195&#45;&gt;Node136</title>
<path fill="none" stroke="#191970" d="M188.717,-440.3134C210.9254,-446.4287 236.9807,-453.6034 255.9013,-458.8134"/>
<polygon fill="#191970" stroke="#191970" points="189.3936,-436.8695 178.8232,-437.589 187.5352,-443.6183 189.3936,-436.8695"/>
</g>
</g>
</svg>
        <g id="navigator" transform="translate(0 0)" fill="#404254">
                <rect fill="#f2f5e9" fill-opacity="0.5" stroke="#606060" stroke-width=".5" x="0" y="0" width="60" height="60"/>
                <use id="zoomplus" xlink:href="#zoomPlus" x="17" y="9" onmousedown="handleZoom(evt,'in')"/>
                <use id="zoomminus" xlink:href="#zoomMin" x="42" y="9" onmousedown="handleZoom(evt,'out')"/>
                <use id="reset" xlink:href="#resetDef" x="30" y="36" onmousedown="handleReset()"/>
                <g id="arrowUp" xlink:href="#dirArrow" transform="translate(30 24)" onmousedown="handlePan(0,-1)">
                  <use xlink:href="#rim" fill="#404040">
                        <set attributeName="fill" to="#808080" begin="arrowUp.mouseover" end="arrowUp.mouseout"/>
                  </use>
                  <path fill="none" stroke="white" stroke-width="1.5" d="M0,-3.0v7 M-2.5,-0.5L0,-3.0L2.5,-0.5"/>
                </g>
                <g id="arrowRight" xlink:href="#dirArrow" transform="rotate(90) translate(36 -43)" onmousedown="handlePan(1,0)">
                  <use xlink:href="#rim" fill="#404040">
                        <set attributeName="fill" to="#808080" begin="arrowRight.mouseover" end="arrowRight.mouseout"/>
                  </use>
                  <path fill="none" stroke="white" stroke-width="1.5" d="M0,-3.0v7 M-2.5,-0.5L0,-3.0L2.5,-0.5"/>
                </g>
                <g id="arrowDown" xlink:href="#dirArrow" transform="rotate(180) translate(-30 -48)" onmousedown="handlePan(0,1)">
                  <use xlink:href="#rim" fill="#404040">
                        <set attributeName="fill" to="#808080" begin="arrowDown.mouseover" end="arrowDown.mouseout"/>
                  </use>
                  <path fill="none" stroke="white" stroke-width="1.5" d="M0,-3.0v7 M-2.5,-0.5L0,-3.0L2.5,-0.5"/>
                </g>
                <g id="arrowLeft" xlink:href="#dirArrow" transform="rotate(270) translate(-36 17)" onmousedown="handlePan(-1,0)">
                  <use xlink:href="#rim" fill="#404040">
                        <set attributeName="fill" to="#808080" begin="arrowLeft.mouseover" end="arrowLeft.mouseout"/>
                  </use>
                  <path fill="none" stroke="white" stroke-width="1.5" d="M0,-3.0v7 M-2.5,-0.5L0,-3.0L2.5,-0.5"/>
                </g>
        </g>
        <svg viewBox="0 0 15 15" width="100%" height="30px" preserveAspectRatio="xMaxYMin meet">
         <g id="arrow_out" transform="scale(0.3 0.3)">
          <a xlink:href="libbf_8h_a4954f3435332238433d15977d55ae566_icgraph_org.svg" target="_base">
           <rect id="button" ry="5" rx="5" y="6" x="6" height="38" width="38"
                fill="#f2f5e9" fill-opacity="0.5" stroke="#606060" stroke-width="1.0"/>
           <path id="arrow"
             d="M 11.500037,31.436501 C 11.940474,20.09759 22.043105,11.32322 32.158766,21.979434 L 37.068811,17.246167 C 37.068811,17.246167 37.088388,32 37.088388,32 L 22.160133,31.978069 C 22.160133,31.978069 26.997745,27.140456 26.997745,27.140456 C 18.528582,18.264221 13.291696,25.230495 11.500037,31.436501 z"
             style="fill:#404040;"/>
          </a>
         </g>
        </svg>
</svg>
