<?xml version="1.0" encoding="UTF-8" standalone="no"?>
<!DOCTYPE svg PUBLIC "-//W3C//DTD SVG 1.1//EN"
 "http://www.w3.org/Graphics/SVG/1.1/DTD/svg11.dtd">
<!-- Generated by graphviz version 2.40.1 (20161225.0304)
 -->
<!-- Title: bfdec_normalize_and_round Pages: 1 -->
<svg width="630pt" height="449pt"
 viewBox="0.00 0.00 630.00 449.37" xmlns="http://www.w3.org/2000/svg" xmlns:xlink="http://www.w3.org/1999/xlink">
<g id="graph0" class="graph" transform="scale(1 1) rotate(0) translate(4 445.3704)">
<title>bfdec_normalize_and_round</title>
<!-- Node6197 -->
<g id="node1" class="node">
<title>Node6197</title>
<polygon fill="#bfbfbf" stroke="#000000" points="0,-52 0,-82 121,-82 121,-52 0,-52"/>
<text text-anchor="start" x="8" y="-70" font-family="Helvetica,sans-Serif" font-size="10.00" fill="#000000">bfdec_normalize_and</text>
<text text-anchor="middle" x="60.5" y="-59" font-family="Helvetica,sans-Serif" font-size="10.00" fill="#000000">_round</text>
</g>
<!-- Node6198 -->
<g id="node2" class="node">
<title>Node6198</title>
<g id="a_node2"><a xlink:href="libbf_8c.html#aec64568757dfbfcb93d12168d4a9306a" target="_top" xlink:title="__bfdec_round">
<polygon fill="none" stroke="#000000" points="157,-228.5 157,-247.5 244,-247.5 244,-228.5 157,-228.5"/>
<text text-anchor="middle" x="200.5" y="-235.5" font-family="Helvetica,sans-Serif" font-size="10.00" fill="#000000">__bfdec_round</text>
</a>
</g>
</g>
<!-- Node6197&#45;&gt;Node6198 -->
<g id="edge1" class="edge">
<title>Node6197&#45;&gt;Node6198</title>
<path fill="none" stroke="#191970" d="M72.9241,-82.1751C98.8479,-113.8392 158.5748,-186.7914 186.1133,-220.4277"/>
<polygon fill="#191970" stroke="#191970" points="183.6347,-222.9253 192.6777,-228.4457 189.051,-218.4909 183.6347,-222.9253"/>
</g>
<!-- Node6207 -->
<g id="node10" class="node">
<title>Node6207</title>
<g id="a_node10"><a xlink:href="libbf_8h.html#aa84c22d9104847e3aa0ab161a8c2af22" target="_top" xlink:title="bfdec_resize">
<polygon fill="none" stroke="#000000" points="295.5,-76.5 295.5,-95.5 373.5,-95.5 373.5,-76.5 295.5,-76.5"/>
<text text-anchor="middle" x="334.5" y="-83.5" font-family="Helvetica,sans-Serif" font-size="10.00" fill="#000000">bfdec_resize</text>
</a>
</g>
</g>
<!-- Node6197&#45;&gt;Node6207 -->
<g id="edge22" class="edge">
<title>Node6197&#45;&gt;Node6207</title>
<path fill="none" stroke="#191970" d="M121.3095,-71.2167C170.7055,-74.642 239.4776,-79.4109 285.4161,-82.5964"/>
<polygon fill="#191970" stroke="#191970" points="285.2108,-86.0904 295.429,-83.2907 285.6951,-79.1072 285.2108,-86.0904"/>
</g>
<!-- Node6216 -->
<g id="node19" class="node">
<title>Node6216</title>
<g id="a_node19"><a xlink:href="libbf_8c.html#ae4e2654233077bd7073bfb8135db9d85" target="_top" xlink:title="clz_dec">
<polygon fill="none" stroke="#000000" points="174,-38.5 174,-57.5 227,-57.5 227,-38.5 174,-38.5"/>
<text text-anchor="middle" x="200.5" y="-45.5" font-family="Helvetica,sans-Serif" font-size="10.00" fill="#000000">clz_dec</text>
</a>
</g>
</g>
<!-- Node6197&#45;&gt;Node6216 -->
<g id="edge23" class="edge">
<title>Node6197&#45;&gt;Node6216</title>
<path fill="none" stroke="#191970" d="M121.0918,-58.7768C135.6697,-56.7984 150.8019,-54.7447 163.8975,-52.9675"/>
<polygon fill="#191970" stroke="#191970" points="164.4752,-56.4213 173.9136,-51.6082 163.5337,-49.4848 164.4752,-56.4213"/>
</g>
<!-- Node6219 -->
<g id="node22" class="node">
<title>Node6219</title>
<g id="a_node22"><a xlink:href="libbf_8c.html#a2db7e367914c68f1ac3e36c0ecc05979" target="_top" xlink:title="mp_shl_dec">
<polygon fill="none" stroke="#000000" points="163.5,-.5 163.5,-19.5 237.5,-19.5 237.5,-.5 163.5,-.5"/>
<text text-anchor="middle" x="200.5" y="-7.5" font-family="Helvetica,sans-Serif" font-size="10.00" fill="#000000">mp_shl_dec</text>
</a>
</g>
</g>
<!-- Node6197&#45;&gt;Node6219 -->
<g id="edge26" class="edge">
<title>Node6197&#45;&gt;Node6219</title>
<path fill="none" stroke="#191970" d="M97.6499,-51.8747C119.3288,-43.0483 146.4441,-32.0085 167.39,-23.4805"/>
<polygon fill="#191970" stroke="#191970" points="168.8894,-26.6491 176.8313,-19.6365 166.2497,-20.1658 168.8894,-26.6491"/>
</g>
<!-- Node6199 -->
<g id="node3" class="node">
<title>Node6199</title>
<g id="a_node3"><a xlink:href="libbf_8h.html#a933c9dd8c3450f560876d02e3b36b1a5" target="_top" xlink:title="bf_get_exp_bits">
<polygon fill="none" stroke="#000000" points="287.5,-342.5 287.5,-361.5 381.5,-361.5 381.5,-342.5 287.5,-342.5"/>
<text text-anchor="middle" x="334.5" y="-349.5" font-family="Helvetica,sans-Serif" font-size="10.00" fill="#000000">bf_get_exp_bits</text>
</a>
</g>
</g>
<!-- Node6198&#45;&gt;Node6199 -->
<g id="edge2" class="edge">
<title>Node6198&#45;&gt;Node6199</title>
<path fill="none" stroke="#191970" d="M206.0139,-247.55C217.4314,-266.517 245.4999,-309.1574 280,-333 282.8478,-334.9681 285.9195,-336.751 289.1028,-338.3629"/>
<polygon fill="#191970" stroke="#191970" points="287.7186,-341.5779 298.2763,-342.4644 290.5758,-335.1875 287.7186,-341.5779"/>
</g>
<!-- Node6200 -->
<g id="node4" class="node">
<title>Node6200</title>
<g id="a_node4"><a xlink:href="libbf_8c.html#a17bf08f4c7268d0f16f31fbe1951bf77" target="_top" xlink:title="bfdec_get_rnd_add">
<polygon fill="none" stroke="#000000" points="280,-304.5 280,-323.5 389,-323.5 389,-304.5 280,-304.5"/>
<text text-anchor="middle" x="334.5" y="-311.5" font-family="Helvetica,sans-Serif" font-size="10.00" fill="#000000">bfdec_get_rnd_add</text>
</a>
</g>
</g>
<!-- Node6198&#45;&gt;Node6200 -->
<g id="edge3" class="edge">
<title>Node6198&#45;&gt;Node6200</title>
<path fill="none" stroke="#191970" d="M213.5902,-247.526C229.0184,-258.5227 255.6453,-276.7888 280,-290 286.6851,-293.6263 294.0284,-297.1503 301.0997,-300.3314"/>
<polygon fill="#191970" stroke="#191970" points="299.9215,-303.6361 310.4862,-304.4339 302.7249,-297.2219 299.9215,-303.6361"/>
</g>
<!-- Node6203 -->
<g id="node7" class="node">
<title>Node6203</title>
<g id="a_node7"><a xlink:href="libbf_8c.html#aea07e4f7e665f38255c0d83fafc7d38d" target="_top" xlink:title="fast_shr_dec">
<polygon fill="none" stroke="#ff0000" points="544,-399.5 544,-418.5 622,-418.5 622,-399.5 544,-399.5"/>
<text text-anchor="middle" x="583" y="-406.5" font-family="Helvetica,sans-Serif" font-size="10.00" fill="#000000">fast_shr_dec</text>
</a>
</g>
</g>
<!-- Node6198&#45;&gt;Node6203 -->
<g id="edge17" class="edge">
<title>Node6198&#45;&gt;Node6203</title>
<path fill="none" stroke="#191970" d="M201.4993,-247.6786C205.2137,-278.0225 221.2083,-371.4981 280,-409 361.7113,-461.1217 482.7516,-438.2194 544.187,-421.2853"/>
<polygon fill="#191970" stroke="#191970" points="545.2168,-424.6313 553.8761,-418.5266 543.2999,-417.8989 545.2168,-424.6313"/>
</g>
<!-- Node6205 -->
<g id="node8" class="node">
<title>Node6205</title>
<g id="a_node8"><a xlink:href="libbf_8c.html#a8f60f7f456c1c9e0253279c3694ad37b" target="_top" xlink:title="floor_div">
<polygon fill="none" stroke="#000000" points="553.5,-323.5 553.5,-342.5 612.5,-342.5 612.5,-323.5 553.5,-323.5"/>
<text text-anchor="middle" x="583" y="-330.5" font-family="Helvetica,sans-Serif" font-size="10.00" fill="#000000">floor_div</text>
</a>
</g>
</g>
<!-- Node6198&#45;&gt;Node6205 -->
<g id="edge18" class="edge">
<title>Node6198&#45;&gt;Node6205</title>
<path fill="none" stroke="#191970" d="M237.9913,-247.526C251.2219,-250.7373 266.2308,-254.2107 280,-257 380.686,-277.3965 410.3893,-262.9713 508,-295 525.7483,-300.8237 544.4934,-310.3205 558.804,-318.3629"/>
<polygon fill="#191970" stroke="#191970" points="557.1013,-321.4213 567.5126,-323.3848 560.5981,-315.3573 557.1013,-321.4213"/>
</g>
<!-- Node6198&#45;&gt;Node6207 -->
<g id="edge9" class="edge">
<title>Node6198&#45;&gt;Node6207</title>
<path fill="none" stroke="#191970" d="M203.6184,-228.4154C211.9871,-204.1664 237.2494,-139.8362 280,-105 282.1471,-103.2504 284.4659,-101.6571 286.8943,-100.2068"/>
<polygon fill="#191970" stroke="#191970" points="288.7231,-103.2036 296.0564,-95.5568 285.5551,-96.9615 288.7231,-103.2036"/>
</g>
<!-- Node6209 -->
<g id="node12" class="node">
<title>Node6209</title>
<g id="a_node12"><a xlink:href="libbf_8h.html#a51327c40664840e14a608d3694536840" target="_top" xlink:title="bfdec_set_inf">
<polygon fill="none" stroke="#000000" points="293.5,-152.5 293.5,-171.5 375.5,-171.5 375.5,-152.5 293.5,-152.5"/>
<text text-anchor="middle" x="334.5" y="-159.5" font-family="Helvetica,sans-Serif" font-size="10.00" fill="#000000">bfdec_set_inf</text>
</a>
</g>
</g>
<!-- Node6198&#45;&gt;Node6209 -->
<g id="edge11" class="edge">
<title>Node6198&#45;&gt;Node6209</title>
<path fill="none" stroke="#191970" d="M211.6716,-228.3919C226.4704,-216.0533 253.7716,-194.6128 280,-181 284.0105,-178.9185 288.2992,-176.9807 292.6436,-175.2007"/>
<polygon fill="#191970" stroke="#191970" points="294.0676,-178.4034 302.1568,-171.5613 291.5663,-171.8655 294.0676,-178.4034"/>
</g>
<!-- Node6211 -->
<g id="node14" class="node">
<title>Node6211</title>
<g id="a_node14"><a xlink:href="libbf_8h.html#ab992311e37e462dff2a8c330320a06c4" target="_top" xlink:title="bfdec_set_zero">
<polygon fill="none" stroke="#000000" points="289.5,-228.5 289.5,-247.5 379.5,-247.5 379.5,-228.5 289.5,-228.5"/>
<text text-anchor="middle" x="334.5" y="-235.5" font-family="Helvetica,sans-Serif" font-size="10.00" fill="#000000">bfdec_set_zero</text>
</a>
</g>
</g>
<!-- Node6198&#45;&gt;Node6211 -->
<g id="edge14" class="edge">
<title>Node6198&#45;&gt;Node6211</title>
<path fill="none" stroke="#191970" d="M244.006,-238C255.2361,-238 267.4746,-238 279.2175,-238"/>
<polygon fill="#191970" stroke="#191970" points="279.3716,-241.5001 289.3716,-238 279.3715,-234.5001 279.3716,-241.5001"/>
</g>
<!-- Node6213 -->
<g id="node16" class="node">
<title>Node6213</title>
<g id="a_node16"><a xlink:href="libbf_8c.html#a96547cfade47875f19556d435153ec47" target="_top" xlink:title="mp_add_ui_dec">
<polygon fill="none" stroke="#000000" points="288.5,-114.5 288.5,-133.5 380.5,-133.5 380.5,-114.5 288.5,-114.5"/>
<text text-anchor="middle" x="334.5" y="-121.5" font-family="Helvetica,sans-Serif" font-size="10.00" fill="#000000">mp_add_ui_dec</text>
</a>
</g>
</g>
<!-- Node6198&#45;&gt;Node6213 -->
<g id="edge19" class="edge">
<title>Node6198&#45;&gt;Node6213</title>
<path fill="none" stroke="#191970" d="M206.0139,-228.45C217.4314,-209.483 245.4999,-166.8426 280,-143 282.8478,-141.0319 285.9195,-139.249 289.1028,-137.6371"/>
<polygon fill="#191970" stroke="#191970" points="290.5758,-140.8125 298.2763,-133.5356 287.7186,-134.4221 290.5758,-140.8125"/>
</g>
<!-- Node6214 -->
<g id="node17" class="node">
<title>Node6214</title>
<g id="a_node17"><a xlink:href="libbf_8c.html#a9935a3a4ed68de1174a72bd753c023d8" target="_top" xlink:title="mp_shr_dec">
<polygon fill="none" stroke="#000000" points="297,-380.5 297,-399.5 372,-399.5 372,-380.5 297,-380.5"/>
<text text-anchor="middle" x="334.5" y="-387.5" font-family="Helvetica,sans-Serif" font-size="10.00" fill="#000000">mp_shr_dec</text>
</a>
</g>
</g>
<!-- Node6198&#45;&gt;Node6214 -->
<g id="edge20" class="edge">
<title>Node6198&#45;&gt;Node6214</title>
<path fill="none" stroke="#191970" d="M203.6184,-247.5846C211.9871,-271.8336 237.2494,-336.1638 280,-371 282.408,-372.9622 285.0321,-374.7279 287.7844,-376.3157"/>
<polygon fill="#191970" stroke="#191970" points="286.3872,-379.529 296.9049,-380.805 289.4786,-373.2485 286.3872,-379.529"/>
</g>
<!-- Node6215 -->
<g id="node18" class="node">
<title>Node6215</title>
<g id="a_node18"><a xlink:href="libbf_8c.html#aefe50efe66e41318b7df5cb3cd012da1" target="_top" xlink:title="smod">
<polygon fill="none" stroke="#000000" points="312.5,-190.5 312.5,-209.5 356.5,-209.5 356.5,-190.5 312.5,-190.5"/>
<text text-anchor="middle" x="334.5" y="-197.5" font-family="Helvetica,sans-Serif" font-size="10.00" fill="#000000">smod</text>
</a>
</g>
</g>
<!-- Node6198&#45;&gt;Node6215 -->
<g id="edge21" class="edge">
<title>Node6198&#45;&gt;Node6215</title>
<path fill="none" stroke="#191970" d="M234.3139,-228.411C255.2729,-222.4674 282.0285,-214.88 302.617,-209.0414"/>
<polygon fill="#191970" stroke="#191970" points="303.8007,-212.3439 312.4665,-206.2483 301.8909,-205.6094 303.8007,-212.3439"/>
</g>
<!-- Node6201 -->
<g id="node5" class="node">
<title>Node6201</title>
<g id="a_node5"><a xlink:href="libbf_8h.html#a4954f3435332238433d15977d55ae566" target="_top" xlink:title="bf_max">
<polygon fill="none" stroke="#000000" points="440,-304.5 440,-323.5 493,-323.5 493,-304.5 440,-304.5"/>
<text text-anchor="middle" x="466.5" y="-311.5" font-family="Helvetica,sans-Serif" font-size="10.00" fill="#000000">bf_max</text>
</a>
</g>
</g>
<!-- Node6200&#45;&gt;Node6201 -->
<g id="edge4" class="edge">
<title>Node6200&#45;&gt;Node6201</title>
<path fill="none" stroke="#191970" d="M389.3331,-314C402.9465,-314 417.2126,-314 429.7234,-314"/>
<polygon fill="#191970" stroke="#191970" points="429.7668,-317.5001 439.7667,-314 429.7667,-310.5001 429.7668,-317.5001"/>
</g>
<!-- Node6202 -->
<g id="node6" class="node">
<title>Node6202</title>
<g id="a_node6"><a xlink:href="libbf_8c.html#a4ae6bd03b3af1b742666f50df5a52cb9" target="_top" xlink:title="get_digit">
<polygon fill="none" stroke="#000000" points="437,-380.5 437,-399.5 496,-399.5 496,-380.5 437,-380.5"/>
<text text-anchor="middle" x="466.5" y="-387.5" font-family="Helvetica,sans-Serif" font-size="10.00" fill="#000000">get_digit</text>
</a>
</g>
</g>
<!-- Node6200&#45;&gt;Node6202 -->
<g id="edge5" class="edge">
<title>Node6200&#45;&gt;Node6202</title>
<path fill="none" stroke="#191970" d="M369.9622,-323.5941C376.5582,-326.1355 383.1938,-329.2461 389,-333 408.5368,-345.6312 406.0775,-357.4658 425,-371 427.3565,-372.6855 429.8864,-374.2771 432.4921,-375.7672"/>
<polygon fill="#191970" stroke="#191970" points="431.012,-378.9421 441.5016,-380.4318 434.2305,-372.7259 431.012,-378.9421"/>
</g>
<!-- Node6206 -->
<g id="node9" class="node">
<title>Node6206</title>
<g id="a_node9"><a xlink:href="libbf_8c.html#ae7f6502b4bd952304cb3b880b6350535" target="_top" xlink:title="scan_digit_nz">
<polygon fill="none" stroke="#000000" points="425,-342.5 425,-361.5 508,-361.5 508,-342.5 425,-342.5"/>
<text text-anchor="middle" x="466.5" y="-349.5" font-family="Helvetica,sans-Serif" font-size="10.00" fill="#000000">scan_digit_nz</text>
</a>
</g>
</g>
<!-- Node6200&#45;&gt;Node6206 -->
<g id="edge8" class="edge">
<title>Node6200&#45;&gt;Node6206</title>
<path fill="none" stroke="#191970" d="M367.8092,-323.589C384.6928,-328.4494 405.3948,-334.4091 423.4705,-339.6127"/>
<polygon fill="#191970" stroke="#191970" points="422.6235,-343.011 433.2015,-342.4141 424.56,-336.2842 422.6235,-343.011"/>
</g>
<!-- Node6202&#45;&gt;Node6203 -->
<g id="edge6" class="edge">
<title>Node6202&#45;&gt;Node6203</title>
<path fill="none" stroke="#191970" d="M496.1993,-394.8437C507.5828,-396.7002 520.899,-398.8719 533.6349,-400.949"/>
<polygon fill="#191970" stroke="#191970" points="533.2434,-404.4314 543.6764,-402.5867 534.3702,-397.5226 533.2434,-404.4314"/>
</g>
<!-- Node6202&#45;&gt;Node6205 -->
<g id="edge7" class="edge">
<title>Node6202&#45;&gt;Node6205</title>
<path fill="none" stroke="#191970" d="M487.6877,-380.4951C494.2262,-377.5096 501.4329,-374.1654 508,-371 523.8116,-363.3785 541.3172,-354.5327 555.4366,-347.2943"/>
<polygon fill="#191970" stroke="#191970" points="557.3179,-350.2625 564.6082,-342.5747 554.1149,-344.0382 557.3179,-350.2625"/>
</g>
<!-- Node6208 -->
<g id="node11" class="node">
<title>Node6208</title>
<g id="a_node11"><a xlink:href="libbf_8h.html#ab51c43b22c1a81c789ee0e3d53c0e585" target="_top" xlink:title="bf_resize">
<polygon fill="none" stroke="#000000" points="552.5,-152.5 552.5,-171.5 613.5,-171.5 613.5,-152.5 552.5,-152.5"/>
<text text-anchor="middle" x="583" y="-159.5" font-family="Helvetica,sans-Serif" font-size="10.00" fill="#000000">bf_resize</text>
</a>
</g>
</g>
<!-- Node6207&#45;&gt;Node6208 -->
<g id="edge10" class="edge">
<title>Node6207&#45;&gt;Node6208</title>
<path fill="none" stroke="#191970" d="M365.7211,-95.5485C410.6,-109.274 493.3672,-134.5872 542.7765,-149.6982"/>
<polygon fill="#191970" stroke="#191970" points="541.9037,-153.0913 552.4901,-152.669 543.951,-146.3973 541.9037,-153.0913"/>
</g>
<!-- Node6210 -->
<g id="node13" class="node">
<title>Node6210</title>
<g id="a_node13"><a xlink:href="libbf_8h.html#a88d3dcee173f1e4fd4e55000edb04595" target="_top" xlink:title="bf_set_inf">
<polygon fill="none" stroke="#000000" points="434,-152.5 434,-171.5 499,-171.5 499,-152.5 434,-152.5"/>
<text text-anchor="middle" x="466.5" y="-159.5" font-family="Helvetica,sans-Serif" font-size="10.00" fill="#000000">bf_set_inf</text>
</a>
</g>
</g>
<!-- Node6209&#45;&gt;Node6210 -->
<g id="edge12" class="edge">
<title>Node6209&#45;&gt;Node6210</title>
<path fill="none" stroke="#191970" d="M375.5421,-162C390.7919,-162 408.1265,-162 423.5429,-162"/>
<polygon fill="#191970" stroke="#191970" points="423.8602,-165.5001 433.8602,-162 423.8602,-158.5001 423.8602,-165.5001"/>
</g>
<!-- Node6210&#45;&gt;Node6208 -->
<g id="edge13" class="edge">
<title>Node6210&#45;&gt;Node6208</title>
<path fill="none" stroke="#191970" d="M499.2618,-162C512.562,-162 528.0706,-162 542.1012,-162"/>
<polygon fill="#191970" stroke="#191970" points="542.4814,-165.5001 552.4814,-162 542.4813,-158.5001 542.4814,-165.5001"/>
</g>
<!-- Node6212 -->
<g id="node15" class="node">
<title>Node6212</title>
<g id="a_node15"><a xlink:href="libbf_8h.html#a66631c65c00e92a5840a5085a009602d" target="_top" xlink:title="bf_set_zero">
<polygon fill="none" stroke="#000000" points="430,-209.5 430,-228.5 503,-228.5 503,-209.5 430,-209.5"/>
<text text-anchor="middle" x="466.5" y="-216.5" font-family="Helvetica,sans-Serif" font-size="10.00" fill="#000000">bf_set_zero</text>
</a>
</g>
</g>
<!-- Node6211&#45;&gt;Node6212 -->
<g id="edge15" class="edge">
<title>Node6211&#45;&gt;Node6212</title>
<path fill="none" stroke="#191970" d="M379.5577,-231.5144C392.5228,-229.6482 406.6907,-227.6089 419.7554,-225.7284"/>
<polygon fill="#191970" stroke="#191970" points="420.5531,-229.1497 429.9525,-224.2606 419.5558,-222.2211 420.5531,-229.1497"/>
</g>
<!-- Node6212&#45;&gt;Node6208 -->
<g id="edge16" class="edge">
<title>Node6212&#45;&gt;Node6208</title>
<path fill="none" stroke="#191970" d="M485.9995,-209.4595C504.6486,-200.335 532.9958,-186.4656 554.2376,-176.0726"/>
<polygon fill="#191970" stroke="#191970" points="555.9926,-179.1104 563.4369,-171.5716 552.9162,-172.8227 555.9926,-179.1104"/>
</g>
<!-- Node6217 -->
<g id="node20" class="node">
<title>Node6217</title>
<g id="a_node20"><a xlink:href="libbf_8c.html#a3ac3b86cc31b99a551947240e979c5d7" target="_top" xlink:title="clz">
<polygon fill="none" stroke="#000000" points="319.5,-38.5 319.5,-57.5 349.5,-57.5 349.5,-38.5 319.5,-38.5"/>
<text text-anchor="middle" x="334.5" y="-45.5" font-family="Helvetica,sans-Serif" font-size="10.00" fill="#000000">clz</text>
</a>
</g>
</g>
<!-- Node6216&#45;&gt;Node6217 -->
<g id="edge24" class="edge">
<title>Node6216&#45;&gt;Node6217</title>
<path fill="none" stroke="#191970" d="M227.2948,-48C251.163,-48 285.8335,-48 309.2276,-48"/>
<polygon fill="#191970" stroke="#191970" points="309.4062,-51.5001 319.4062,-48 309.4062,-44.5001 309.4062,-51.5001"/>
</g>
<!-- Node6218 -->
<g id="node21" class="node">
<title>Node6218</title>
<g id="a_node21"><a xlink:href="cutils_8h.html#a28eb00e6774a2dd724b86fb6f83c1bf6" target="_top" xlink:title="clz64">
<polygon fill="none" stroke="#000000" points="445.5,-38.5 445.5,-57.5 487.5,-57.5 487.5,-38.5 445.5,-38.5"/>
<text text-anchor="middle" x="466.5" y="-45.5" font-family="Helvetica,sans-Serif" font-size="10.00" fill="#000000">clz64</text>
</a>
</g>
</g>
<!-- Node6217&#45;&gt;Node6218 -->
<g id="edge25" class="edge">
<title>Node6217&#45;&gt;Node6218</title>
<path fill="none" stroke="#191970" d="M349.6421,-48C370.4466,-48 408.3582,-48 435.3565,-48"/>
<polygon fill="#191970" stroke="#191970" points="435.4657,-51.5001 445.4656,-48 435.4656,-44.5001 435.4657,-51.5001"/>
</g>
</g>
</svg>
