<?xml version="1.0" encoding="UTF-8" standalone="no"?>
<!DOCTYPE svg PUBLIC "-//W3C//DTD SVG 1.1//EN"
 "http://www.w3.org/Graphics/SVG/1.1/DTD/svg11.dtd">
<!-- Generated by graphviz version 2.40.1 (20161225.0304)
 -->
<!-- Title: sub_mod Pages: 1 -->
<svg width="365pt" height="46pt"
 viewBox="0.00 0.00 365.00 46.00" xmlns="http://www.w3.org/2000/svg" xmlns:xlink="http://www.w3.org/1999/xlink">
<g id="graph0" class="graph" transform="scale(1 1) rotate(0) translate(4 42)">
<title>sub_mod</title>
<!-- Node11868 -->
<g id="node1" class="node">
<title>Node11868</title>
<polygon fill="#bfbfbf" stroke="#000000" points="0,-.5 0,-19.5 61,-19.5 61,-.5 0,-.5"/>
<text text-anchor="middle" x="30.5" y="-7.5" font-family="Helvetica,sans-Serif" font-size="10.00" fill="#000000">sub_mod</text>
</g>
<!-- Node11869 -->
<g id="node2" class="node">
<title>Node11869</title>
<g id="a_node2"><a xlink:href="libbf_8c.html#ab3fb41bbc385686962ae17d42f66d2ab" target="_top" xlink:title="ntt_fft">
<polygon fill="none" stroke="#000000" points="97,-.5 97,-19.5 143,-19.5 143,-.5 97,-.5"/>
<text text-anchor="middle" x="120" y="-7.5" font-family="Helvetica,sans-Serif" font-size="10.00" fill="#000000">ntt_fft</text>
</a>
</g>
</g>
<!-- Node11868&#45;&gt;Node11869 -->
<g id="edge1" class="edge">
<title>Node11868&#45;&gt;Node11869</title>
<path fill="none" stroke="#191970" d="M71.2258,-10C80.0467,-10 89.0778,-10 96.9334,-10"/>
<polygon fill="#191970" stroke="#191970" points="71.0505,-6.5001 61.0505,-10 71.0505,-13.5001 71.0505,-6.5001"/>
</g>
<!-- Node11870 -->
<g id="node3" class="node">
<title>Node11870</title>
<g id="a_node3"><a xlink:href="libbf_8c.html#a53010343d7669bc13648ab1a56ea8563" target="_top" xlink:title="ntt_fft_partial">
<polygon fill="none" stroke="#000000" points="179,-.5 179,-19.5 262,-19.5 262,-.5 179,-.5"/>
<text text-anchor="middle" x="220.5" y="-7.5" font-family="Helvetica,sans-Serif" font-size="10.00" fill="#000000">ntt_fft_partial</text>
</a>
</g>
</g>
<!-- Node11869&#45;&gt;Node11870 -->
<g id="edge2" class="edge">
<title>Node11869&#45;&gt;Node11870</title>
<path fill="none" stroke="#191970" d="M153.2508,-10C161.3624,-10 170.1441,-10 178.601,-10"/>
<polygon fill="#191970" stroke="#191970" points="153.0568,-6.5001 143.0567,-10 153.0567,-13.5001 153.0568,-6.5001"/>
</g>
<!-- Node11871 -->
<g id="node4" class="node">
<title>Node11871</title>
<g id="a_node4"><a xlink:href="libbf_8c.html#a6ae58e818e85536ef032aeac42aaa3e0" target="_top" xlink:title="ntt_conv">
<polygon fill="none" stroke="#ff0000" points="298,-.5 298,-19.5 357,-19.5 357,-.5 298,-.5"/>
<text text-anchor="middle" x="327.5" y="-7.5" font-family="Helvetica,sans-Serif" font-size="10.00" fill="#000000">ntt_conv</text>
</a>
</g>
</g>
<!-- Node11870&#45;&gt;Node11871 -->
<g id="edge3" class="edge">
<title>Node11870&#45;&gt;Node11871</title>
<path fill="none" stroke="#191970" d="M272.3146,-10C281.0222,-10 289.7894,-10 297.6923,-10"/>
<polygon fill="#191970" stroke="#191970" points="272.1754,-6.5001 262.1754,-10 272.1753,-13.5001 272.1754,-6.5001"/>
</g>
<!-- Node11871&#45;&gt;Node11871 -->
<g id="edge4" class="edge">
<title>Node11871&#45;&gt;Node11871</title>
<path fill="none" stroke="#191970" d="M307.8713,-29.4C309.1822,-34.3146 315.7251,-38 327.5,-38 346.3398,-38 351.7857,-28.5653 343.8377,-19.7571"/>
<polygon fill="#191970" stroke="#191970" points="311.2447,-30.3516 311.1623,-19.7571 304.6199,-28.0906 311.2447,-30.3516"/>
</g>
</g>
</svg>
