<?xml version="1.0" encoding="UTF-8" standalone="no"?>
<!DOCTYPE svg PUBLIC "-//W3C//DTD SVG 1.1//EN"
 "http://www.w3.org/Graphics/SVG/1.1/DTD/svg11.dtd">
<!-- Generated by graphviz version 2.40.1 (20161225.0304)
 -->
<!-- Title: bf_atan Pages: 1 -->
<!--zoomable 956 -->
<svg id="main" version="1.1" xmlns="http://www.w3.org/2000/svg" xmlns:xlink="http://www.w3.org/1999/xlink" xml:space="preserve" onload="init(evt)">
<style type="text/css"><![CDATA[
.edge:hover path { stroke: red; }
.edge:hover polygon { stroke: red; fill: red; }
]]></style>
<script type="text/javascript"><![CDATA[
var edges = document.getElementsByTagName('g');
if (edges && edges.length) {
  for (var i=0;i<edges.length;i++) {
    if (edges[i].id.substr(0,4)=='edge') {
      edges[i].setAttribute('class','edge');
    }
  }
}
]]></script>
        <defs>
                <circle id="rim" cx="0" cy="0" r="7"/>
                <circle id="rim2" cx="0" cy="0" r="3.5"/>
                <g id="zoomPlus">
                        <use xlink:href="#rim" fill="#404040">
                                <set attributeName="fill" to="#808080" begin="zoomplus.mouseover" end="zoomplus.mouseout"/>
                        </use>
                        <path d="M-4,0h8M0,-4v8" fill="none" stroke="white" stroke-width="1.5" pointer-events="none"/>
                </g>
                <g id="zoomMin">
                        <use xlink:href="#rim" fill="#404040">
                                <set attributeName="fill" to="#808080" begin="zoomminus.mouseover" end="zoomminus.mouseout"/>
                        </use>
                        <path d="M-4,0h8" fill="none" stroke="white" stroke-width="1.5" pointer-events="none"/>
                </g>
                <g id="dirArrow">
                        <path fill="none" stroke="white" stroke-width="1.5" d="M0,-3.0v7 M-2.5,-0.5L0,-3.0L2.5,-0.5"/>
                </g>
               <g id="resetDef">
                       <use xlink:href="#rim2" fill="#404040">
                               <set attributeName="fill" to="#808080" begin="reset.mouseover" end="reset.mouseout"/>
                       </use>
               </g>
        </defs>

<script type="text/javascript">
var viewWidth = 777;
var viewHeight = 956;
var sectionId = 'dynsection-118';
</script>
<script xlink:href="svgpan.js"/>
<svg id="graph" class="graph">
<g id="viewport">
<title>bf_atan</title>
<!-- Node4730 -->
<g id="node1" class="node">
<title>Node4730</title>
<polygon fill="#bfbfbf" stroke="#000000" points="0,-247.5 0,-266.5 53,-266.5 53,-247.5 0,-247.5"/>
<text text-anchor="middle" x="26.5" y="-254.5" font-family="Helvetica,sans-Serif" font-size="10.00" fill="#000000">bf_atan</text>
</g>
<!-- Node4731 -->
<g id="node2" class="node">
<title>Node4731</title>
<g id="a_node2"><a xlink:href="libbf_8c.html#a740cb7dc32453bf521083b7616b7f120" target="_top" xlink:title="bf_add_epsilon">
<polygon fill="none" stroke="#000000" points="221,-874.5 221,-893.5 311,-893.5 311,-874.5 221,-874.5"/>
<text text-anchor="middle" x="266" y="-881.5" font-family="Helvetica,sans-Serif" font-size="10.00" fill="#000000">bf_add_epsilon</text>
</a>
</g>
</g>
<!-- Node4730&#45;&gt;Node4731 -->
<g id="edge1" class="edge">
<title>Node4730&#45;&gt;Node4731</title>
<path fill="none" stroke="#191970" d="M26.7936,-266.6496C29.1323,-340.5704 45.7879,-815.4052 89,-860 119.77,-891.7546 171.1741,-895.5811 210.6808,-892.7393"/>
<polygon fill="#191970" stroke="#191970" points="211.0502,-896.2204 220.7059,-891.8596 210.4382,-889.2472 211.0502,-896.2204"/>
</g>
<!-- Node4761 -->
<g id="node5" class="node">
<title>Node4761</title>
<g id="a_node5"><a xlink:href="libbf_8h.html#a2b9d906b21e903f2f7f1c9044674ab7d" target="_top" xlink:title="bf_delete">
<polygon fill="none" stroke="#000000" points="371,-912.5 371,-931.5 433,-931.5 433,-912.5 371,-912.5"/>
<text text-anchor="middle" x="402" y="-919.5" font-family="Helvetica,sans-Serif" font-size="10.00" fill="#000000">bf_delete</text>
</a>
</g>
</g>
<!-- Node4730&#45;&gt;Node4761 -->
<g id="edge54" class="edge">
<title>Node4730&#45;&gt;Node4761</title>
<path fill="none" stroke="#191970" d="M26.8145,-266.5779C29.3733,-342.0517 47.7408,-839.3966 89,-890 153.6795,-969.3279 291.3668,-949.671 360.5322,-933.4337"/>
<polygon fill="#191970" stroke="#191970" points="361.7364,-936.7427 370.623,-930.9739 360.0786,-929.9418 361.7364,-936.7427"/>
</g>
<!-- Node4757 -->
<g id="node7" class="node">
<title>Node4757</title>
<g id="a_node7"><a xlink:href="libbf_8h.html#abacc1410890af049e02ebd788364ac48" target="_top" xlink:title="bf_init">
<polygon fill="none" stroke="#000000" points="378.5,-722.5 378.5,-741.5 425.5,-741.5 425.5,-722.5 378.5,-722.5"/>
<text text-anchor="middle" x="402" y="-729.5" font-family="Helvetica,sans-Serif" font-size="10.00" fill="#000000">bf_init</text>
</a>
</g>
</g>
<!-- Node4730&#45;&gt;Node4757 -->
<g id="edge55" class="edge">
<title>Node4730&#45;&gt;Node4757</title>
<path fill="none" stroke="#191970" d="M26.7273,-266.5068C27.9977,-305.2512 36.2496,-454.2429 89,-561 128.6358,-641.2156 141.6434,-671.6713 221,-713 267.7479,-737.3462 330.4272,-738.0309 368.4252,-735.5532"/>
<polygon fill="#191970" stroke="#191970" points="368.7499,-739.0387 378.4544,-734.7875 368.217,-732.059 368.7499,-739.0387"/>
</g>
<!-- Node4762 -->
<g id="node8" class="node">
<title>Node4762</title>
<g id="a_node8"><a xlink:href="libbf_8h.html#a2378f025beace5741c19bf995c2971d3" target="_top" xlink:title="bf_set_ui">
<polygon fill="none" stroke="#000000" points="499,-608.5 499,-627.5 560,-627.5 560,-608.5 499,-608.5"/>
<text text-anchor="middle" x="529.5" y="-615.5" font-family="Helvetica,sans-Serif" font-size="10.00" fill="#000000">bf_set_ui</text>
</a>
</g>
</g>
<!-- Node4730&#45;&gt;Node4762 -->
<g id="edge60" class="edge">
<title>Node4730&#45;&gt;Node4762</title>
<path fill="none" stroke="#191970" d="M27.4733,-266.8292C32.781,-319.47 59.0922,-568.2872 89,-639 127.3658,-729.7106 134.8493,-769.2674 221,-817 266.915,-842.4396 414.231,-857.433 457,-827 488.8668,-804.3246 515.9178,-685.4396 525.6452,-637.7852"/>
<polygon fill="#191970" stroke="#191970" points="529.1163,-638.2757 527.6442,-627.7837 522.252,-636.9037 529.1163,-638.2757"/>
</g>
<!-- Node4749 -->
<g id="node10" class="node">
<title>Node4749</title>
<g id="a_node10"><a xlink:href="libbf_8h.html#aa6282c789c16c8cf2fe6a8ebd671c6fc" target="_top" xlink:title="bf_set_nan">
<polygon fill="none" stroke="#000000" points="602,-399.5 602,-418.5 672,-418.5 672,-399.5 602,-399.5"/>
<text text-anchor="middle" x="637" y="-406.5" font-family="Helvetica,sans-Serif" font-size="10.00" fill="#000000">bf_set_nan</text>
</a>
</g>
</g>
<!-- Node4730&#45;&gt;Node4749 -->
<g id="edge59" class="edge">
<title>Node4730&#45;&gt;Node4749</title>
<path fill="none" stroke="#191970" d="M33.051,-266.6837C58.3848,-302.8576 154.1119,-428 266,-428 266,-428 266,-428 402,-428 468.0232,-428 544.142,-420.457 591.4229,-414.8763"/>
<polygon fill="#191970" stroke="#191970" points="592.1282,-418.3168 601.6388,-413.6479 591.2925,-411.3669 592.1282,-418.3168"/>
</g>
<!-- Node4763 -->
<g id="node12" class="node">
<title>Node4763</title>
<g id="a_node12"><a xlink:href="libbf_8c.html#aa4b535a5b33344704c576607ab4f0463" target="_top" xlink:title="bf_atan_internal">
<polygon fill="none" stroke="#000000" points="89,-532.5 89,-551.5 185,-551.5 185,-532.5 89,-532.5"/>
<text text-anchor="middle" x="137" y="-539.5" font-family="Helvetica,sans-Serif" font-size="10.00" fill="#000000">bf_atan_internal</text>
</a>
</g>
</g>
<!-- Node4730&#45;&gt;Node4763 -->
<g id="edge12" class="edge">
<title>Node4730&#45;&gt;Node4763</title>
<path fill="none" stroke="#191970" d="M29.3447,-266.7817C37.5317,-294.598 62.2812,-376.3769 89,-442 100.8035,-470.9902 116.9683,-503.4797 127.198,-523.3384"/>
<polygon fill="#191970" stroke="#191970" points="124.1088,-524.9842 131.8251,-532.2444 130.3205,-521.7569 124.1088,-524.9842"/>
</g>
<!-- Node4767 -->
<g id="node16" class="node">
<title>Node4767</title>
<g id="a_node16"><a xlink:href="libbf_8c.html#a25b9653cbfca557499e786f8d2a7eb2e" target="_top" xlink:title="bf_const_pi_signed">
<polygon fill="none" stroke="#ff0000" points="347,-228.5 347,-247.5 457,-247.5 457,-228.5 347,-228.5"/>
<text text-anchor="middle" x="402" y="-235.5" font-family="Helvetica,sans-Serif" font-size="10.00" fill="#000000">bf_const_pi_signed</text>
</a>
</g>
</g>
<!-- Node4730&#45;&gt;Node4767 -->
<g id="edge53" class="edge">
<title>Node4730&#45;&gt;Node4767</title>
<path fill="none" stroke="#191970" d="M53.204,-255.6488C111.7508,-252.6864 252.8426,-245.5472 336.5408,-241.3122"/>
<polygon fill="#191970" stroke="#191970" points="336.8937,-244.7989 346.7041,-240.7979 336.5399,-237.8078 336.8937,-244.7989"/>
</g>
<!-- Node4750 -->
<g id="node21" class="node">
<title>Node4750</title>
<g id="a_node21"><a xlink:href="libbf_8h.html#a66631c65c00e92a5840a5085a009602d" target="_top" xlink:title="bf_set_zero">
<polygon fill="none" stroke="#000000" points="493,-190.5 493,-209.5 566,-209.5 566,-190.5 493,-190.5"/>
<text text-anchor="middle" x="529.5" y="-197.5" font-family="Helvetica,sans-Serif" font-size="10.00" fill="#000000">bf_set_zero</text>
</a>
</g>
</g>
<!-- Node4730&#45;&gt;Node4750 -->
<g id="edge61" class="edge">
<title>Node4730&#45;&gt;Node4750</title>
<path fill="none" stroke="#191970" d="M28.3579,-247.3665C33.3757,-224.3501 49.5752,-166.3466 89,-143 226.5156,-61.5659 430.0829,-149.345 502.624,-185.7281"/>
<polygon fill="#191970" stroke="#191970" points="501.4716,-189.0694 511.9697,-190.4978 504.6537,-182.8344 501.4716,-189.0694"/>
</g>
<!-- Node4825 -->
<g id="node22" class="node">
<title>Node4825</title>
<g id="a_node22"><a xlink:href="libbf_8h.html#ae1d5fe9356228cc3a566786637f26680" target="_top" xlink:title="bf_mul_2exp">
<polygon fill="none" stroke="#000000" points="226,-190.5 226,-209.5 306,-209.5 306,-190.5 226,-190.5"/>
<text text-anchor="middle" x="266" y="-197.5" font-family="Helvetica,sans-Serif" font-size="10.00" fill="#000000">bf_mul_2exp</text>
</a>
</g>
</g>
<!-- Node4730&#45;&gt;Node4825 -->
<g id="edge57" class="edge">
<title>Node4730&#45;&gt;Node4825</title>
<path fill="none" stroke="#191970" d="M41.2521,-247.2963C53.5198,-239.708 71.7071,-229.5448 89,-224 130.3898,-210.7288 179.5164,-204.7954 215.5002,-202.143"/>
<polygon fill="#191970" stroke="#191970" points="216.0111,-205.6166 225.752,-201.4496 215.5386,-198.6325 216.0111,-205.6166"/>
</g>
<!-- Node4736 -->
<g id="node24" class="node">
<title>Node4736</title>
<g id="a_node24"><a xlink:href="libbf_8h.html#a4954f3435332238433d15977d55ae566" target="_top" xlink:title="bf_max">
<polygon fill="none" stroke="#000000" points="375.5,-76.5 375.5,-95.5 428.5,-95.5 428.5,-76.5 375.5,-76.5"/>
<text text-anchor="middle" x="402" y="-83.5" font-family="Helvetica,sans-Serif" font-size="10.00" fill="#000000">bf_max</text>
</a>
</g>
</g>
<!-- Node4730&#45;&gt;Node4736 -->
<g id="edge56" class="edge">
<title>Node4730&#45;&gt;Node4736</title>
<path fill="none" stroke="#191970" d="M28.1957,-247.1506C34.5748,-211.3684 58.3381,-89.192 89,-67 174.8489,-4.8654 311.1188,-48.2115 371.4902,-72.5496"/>
<polygon fill="#191970" stroke="#191970" points="370.2668,-75.8311 380.8454,-76.4161 372.9405,-69.3618 370.2668,-75.8311"/>
</g>
<!-- Node4753 -->
<g id="node26" class="node">
<title>Node4753</title>
<g id="a_node26"><a xlink:href="libbf_8h.html#ae019ee8073f4359da157d3b1e5fdba7e" target="_top" xlink:title="bf_set">
<polygon fill="none" stroke="#000000" points="378.5,-266.5 378.5,-285.5 425.5,-285.5 425.5,-266.5 378.5,-266.5"/>
<text text-anchor="middle" x="402" y="-273.5" font-family="Helvetica,sans-Serif" font-size="10.00" fill="#000000">bf_set</text>
</a>
</g>
</g>
<!-- Node4730&#45;&gt;Node4753 -->
<g id="edge58" class="edge">
<title>Node4730&#45;&gt;Node4753</title>
<path fill="none" stroke="#191970" d="M53.2497,-259.3477C64.3096,-260.2643 77.2666,-261.2685 89,-262 190.4943,-268.3277 310.6753,-272.8797 368.1224,-274.8749"/>
<polygon fill="#191970" stroke="#191970" points="368.312,-278.3834 378.4262,-275.2286 368.5522,-271.3875 368.312,-278.3834"/>
</g>
<!-- Node4735 -->
<g id="node28" class="node">
<title>Node4735</title>
<g id="a_node28"><a xlink:href="libbf_8h.html#a165ae2c6d3fee618014b7c9ea4f944dc" target="_top" xlink:title="bf_cmpu">
<polygon fill="none" stroke="#ff0000" points="107.5,-76.5 107.5,-95.5 166.5,-95.5 166.5,-76.5 107.5,-76.5"/>
<text text-anchor="middle" x="137" y="-83.5" font-family="Helvetica,sans-Serif" font-size="10.00" fill="#000000">bf_cmpu</text>
</a>
</g>
</g>
<!-- Node4730&#45;&gt;Node4735 -->
<g id="edge51" class="edge">
<title>Node4730&#45;&gt;Node4735</title>
<path fill="none" stroke="#191970" d="M28.243,-247.1308C33.2442,-221.4438 49.8686,-151.6207 89,-110 92.3346,-106.4533 96.3075,-103.3546 100.5193,-100.6688"/>
<polygon fill="#191970" stroke="#191970" points="102.3483,-103.6562 109.3722,-95.7243 98.9349,-97.5448 102.3483,-103.6562"/>
</g>
<!-- Node4827 -->
<g id="node29" class="node">
<title>Node4827</title>
<g id="a_node29"><a xlink:href="libbf_8c.html#a39e7dd6286a6f0541a12366ebd93dbfd" target="_top" xlink:title="bf_ziv_rounding">
<polygon fill="none" stroke="#000000" points="90,-152.5 90,-171.5 184,-171.5 184,-152.5 90,-152.5"/>
<text text-anchor="middle" x="137" y="-159.5" font-family="Helvetica,sans-Serif" font-size="10.00" fill="#000000">bf_ziv_rounding</text>
</a>
</g>
</g>
<!-- Node4730&#45;&gt;Node4827 -->
<g id="edge62" class="edge">
<title>Node4730&#45;&gt;Node4827</title>
<path fill="none" stroke="#191970" d="M33.2123,-247.2037C43.7214,-232.4293 65.3215,-204.2376 89,-186 93.7287,-182.3579 99.0965,-179.0357 104.4876,-176.1014"/>
<polygon fill="#191970" stroke="#191970" points="106.1399,-179.1878 113.4735,-171.5413 102.9721,-172.9456 106.1399,-179.1878"/>
</g>
<!-- Node4828 -->
<g id="node30" class="node">
<title>Node4828</title>
<g id="a_node30"><a xlink:href="libbf_8c.html#ac88879c9a9c52b85c282df01636226c8" target="_top" xlink:title="sat_add">
<polygon fill="none" stroke="#000000" points="109.5,-.5 109.5,-19.5 164.5,-19.5 164.5,-.5 109.5,-.5"/>
<text text-anchor="middle" x="137" y="-7.5" font-family="Helvetica,sans-Serif" font-size="10.00" fill="#000000">sat_add</text>
</a>
</g>
</g>
<!-- Node4730&#45;&gt;Node4828 -->
<g id="edge64" class="edge">
<title>Node4730&#45;&gt;Node4828</title>
<path fill="none" stroke="#191970" d="M28.1441,-247.2965C34.8045,-208.9209 60.7764,-68.1823 89,-34 92.1699,-30.1608 96.108,-26.8787 100.3553,-24.0883"/>
<polygon fill="#191970" stroke="#191970" points="102.3559,-26.979 109.361,-19.0304 98.928,-20.8757 102.3559,-26.979"/>
</g>
<!-- Node4732 -->
<g id="node3" class="node">
<title>Node4732</title>
<g id="a_node3"><a xlink:href="libbf_8h.html#a17dc09166f82ffa408f54a2edc4d7855" target="_top" xlink:title="bf_add">
<polygon fill="none" stroke="#ff0000" points="377,-798.5 377,-817.5 427,-817.5 427,-798.5 377,-798.5"/>
<text text-anchor="middle" x="402" y="-805.5" font-family="Helvetica,sans-Serif" font-size="10.00" fill="#000000">bf_add</text>
</a>
</g>
</g>
<!-- Node4731&#45;&gt;Node4732 -->
<g id="edge2" class="edge">
<title>Node4731&#45;&gt;Node4732</title>
<path fill="none" stroke="#191970" d="M283.2245,-874.3745C306.6256,-861.2975 348.6659,-837.8043 375.9391,-822.5634"/>
<polygon fill="#191970" stroke="#191970" points="377.8933,-825.4809 384.9154,-817.5473 374.4785,-819.3703 377.8933,-825.4809"/>
</g>
<!-- Node4731&#45;&gt;Node4761 -->
<g id="edge4" class="edge">
<title>Node4731&#45;&gt;Node4761</title>
<path fill="none" stroke="#191970" d="M300.3185,-893.589C318.813,-898.7566 341.7544,-905.1667 361.1629,-910.5896"/>
<polygon fill="#191970" stroke="#191970" points="360.375,-914.0035 370.948,-913.3237 362.2588,-907.2617 360.375,-914.0035"/>
</g>
<!-- Node4731&#45;&gt;Node4757 -->
<g id="edge6" class="edge">
<title>Node4731&#45;&gt;Node4757</title>
<path fill="none" stroke="#191970" d="M273.8581,-874.3945C288.1145,-857.0567 319.3301,-819.5002 347,-789 359.491,-775.2314 374.1271,-760.1092 385.1595,-748.9027"/>
<polygon fill="#191970" stroke="#191970" points="387.9285,-751.0803 392.4737,-741.51 382.9524,-746.1571 387.9285,-751.0803"/>
</g>
<!-- Node4731&#45;&gt;Node4762 -->
<g id="edge7" class="edge">
<title>Node4731&#45;&gt;Node4762</title>
<path fill="none" stroke="#191970" d="M311.225,-891.1776C353.7849,-895.252 416.8209,-894.0047 457,-860 491.6986,-830.6336 517.7396,-690.1556 526.3932,-637.7604"/>
<polygon fill="#191970" stroke="#191970" points="529.8742,-638.1585 528.0138,-627.7283 522.9638,-637.0421 529.8742,-638.1585"/>
</g>
<!-- Node4733 -->
<g id="node4" class="node">
<title>Node4733</title>
<g id="a_node4"><a xlink:href="libbf_8c.html#a951a1d3ebb338129d86e00f51b47f2ee" target="_top" xlink:title="__bf_add">
<polygon fill="none" stroke="#ff0000" points="499.5,-798.5 499.5,-817.5 559.5,-817.5 559.5,-798.5 499.5,-798.5"/>
<text text-anchor="middle" x="529.5" y="-805.5" font-family="Helvetica,sans-Serif" font-size="10.00" fill="#000000">__bf_add</text>
</a>
</g>
</g>
<!-- Node4732&#45;&gt;Node4733 -->
<g id="edge3" class="edge">
<title>Node4732&#45;&gt;Node4733</title>
<path fill="none" stroke="#191970" d="M427.1899,-808C444.8648,-808 468.8742,-808 489.1925,-808"/>
<polygon fill="#191970" stroke="#191970" points="489.4281,-811.5001 499.4281,-808 489.4281,-804.5001 489.4281,-811.5001"/>
</g>
<!-- Node4760 -->
<g id="node6" class="node">
<title>Node4760</title>
<g id="a_node6"><a xlink:href="libbf_8h.html#a524c9e60866c08c75061626a4b5e2f29" target="_top" xlink:title="bf_realloc">
<polygon fill="none" stroke="#000000" points="497,-912.5 497,-931.5 562,-931.5 562,-912.5 497,-912.5"/>
<text text-anchor="middle" x="529.5" y="-919.5" font-family="Helvetica,sans-Serif" font-size="10.00" fill="#000000">bf_realloc</text>
</a>
</g>
</g>
<!-- Node4761&#45;&gt;Node4760 -->
<g id="edge5" class="edge">
<title>Node4761&#45;&gt;Node4760</title>
<path fill="none" stroke="#191970" d="M433.19,-922C449.3365,-922 469.2923,-922 486.8438,-922"/>
<polygon fill="#191970" stroke="#191970" points="486.8532,-925.5001 496.8531,-922 486.8531,-918.5001 486.8532,-925.5001"/>
</g>
<!-- Node4746 -->
<g id="node9" class="node">
<title>Node4746</title>
<g id="a_node9"><a xlink:href="libbf_8h.html#ab51c43b22c1a81c789ee0e3d53c0e585" target="_top" xlink:title="bf_resize">
<polygon fill="none" stroke="#000000" points="708,-304.5 708,-323.5 769,-323.5 769,-304.5 708,-304.5"/>
<text text-anchor="middle" x="738.5" y="-311.5" font-family="Helvetica,sans-Serif" font-size="10.00" fill="#000000">bf_resize</text>
</a>
</g>
</g>
<!-- Node4762&#45;&gt;Node4746 -->
<g id="edge8" class="edge">
<title>Node4762&#45;&gt;Node4746</title>
<path fill="none" stroke="#191970" d="M560.0342,-623.0933C592.0385,-626.5704 641.7844,-626.427 672,-599 711.7665,-562.9036 731.2042,-392.0672 736.7694,-333.6451"/>
<polygon fill="#191970" stroke="#191970" points="740.2688,-333.8113 737.6994,-323.5328 733.2982,-333.1702 740.2688,-333.8113"/>
</g>
<!-- Node4762&#45;&gt;Node4749 -->
<g id="edge9" class="edge">
<title>Node4762&#45;&gt;Node4749</title>
<path fill="none" stroke="#191970" d="M554.0581,-608.4167C558.4563,-605.8634 562.6867,-602.7456 566,-599 611.0368,-548.0869 628.5232,-465.9275 634.4007,-428.5901"/>
<polygon fill="#191970" stroke="#191970" points="637.8886,-428.9265 635.8697,-418.5258 630.962,-427.9154 637.8886,-428.9265"/>
</g>
<!-- Node4751 -->
<g id="node11" class="node">
<title>Node4751</title>
<g id="a_node11"><a xlink:href="libbf_8c.html#a3ac3b86cc31b99a551947240e979c5d7" target="_top" xlink:title="clz">
<polygon fill="none" stroke="#ff0000" points="622,-570.5 622,-589.5 652,-589.5 652,-570.5 622,-570.5"/>
<text text-anchor="middle" x="637" y="-577.5" font-family="Helvetica,sans-Serif" font-size="10.00" fill="#000000">clz</text>
</a>
</g>
</g>
<!-- Node4762&#45;&gt;Node4751 -->
<g id="edge11" class="edge">
<title>Node4762&#45;&gt;Node4751</title>
<path fill="none" stroke="#191970" d="M556.6268,-608.411C573.7277,-602.366 595.6387,-594.6207 612.2627,-588.7443"/>
<polygon fill="#191970" stroke="#191970" points="613.5783,-591.9916 621.8401,-585.3589 611.2453,-585.3918 613.5783,-591.9916"/>
</g>
<!-- Node4749&#45;&gt;Node4746 -->
<g id="edge10" class="edge">
<title>Node4749&#45;&gt;Node4746</title>
<path fill="none" stroke="#191970" d="M647.48,-399.1911C664.8163,-382.965 699.6504,-350.3617 720.84,-330.529"/>
<polygon fill="#191970" stroke="#191970" points="723.3189,-333.0028 728.2282,-323.614 718.5355,-327.8921 723.3189,-333.0028"/>
</g>
<!-- Node4763&#45;&gt;Node4732 -->
<g id="edge13" class="edge">
<title>Node4763&#45;&gt;Node4732</title>
<path fill="none" stroke="#191970" d="M138.8602,-551.6841C147.0856,-593.4514 181.534,-757.4889 221,-789 262.3652,-822.0276 327.1047,-819.9647 366.9109,-814.5944"/>
<polygon fill="#191970" stroke="#191970" points="367.5757,-818.0341 376.9505,-813.0982 366.5438,-811.1105 367.5757,-818.0341"/>
</g>
<!-- Node4763&#45;&gt;Node4761 -->
<g id="edge22" class="edge">
<title>Node4763&#45;&gt;Node4761</title>
<path fill="none" stroke="#191970" d="M137.7631,-551.5724C142.1349,-603.8455 165.7729,-854.2305 221,-903 258.9095,-936.4768 320.1743,-935.5183 360.7675,-930.0987"/>
<polygon fill="#191970" stroke="#191970" points="361.4903,-933.5299 370.8692,-928.6018 360.4642,-926.6055 361.4903,-933.5299"/>
</g>
<!-- Node4763&#45;&gt;Node4757 -->
<g id="edge24" class="edge">
<title>Node4763&#45;&gt;Node4757</title>
<path fill="none" stroke="#191970" d="M143.2915,-551.6316C155.9609,-570.3701 186.317,-612.0745 221,-637 256.2585,-662.3391 272.4783,-654.9672 311,-675 335.2248,-687.5979 361.5181,-704.439 379.5831,-716.544"/>
<polygon fill="#191970" stroke="#191970" points="377.9824,-719.6869 388.2253,-722.3949 381.9067,-713.8904 377.9824,-719.6869"/>
</g>
<!-- Node4763&#45;&gt;Node4762 -->
<g id="edge45" class="edge">
<title>Node4763&#45;&gt;Node4762</title>
<path fill="none" stroke="#191970" d="M185.1645,-540.3833C220.8245,-540.6174 270.1056,-543.9876 311,-558 328.9615,-564.1545 329.398,-573.8821 347,-581 393.572,-599.8328 450.8468,-609.4351 488.6723,-614.0739"/>
<polygon fill="#191970" stroke="#191970" points="488.4622,-617.573 498.8002,-615.2542 489.2726,-610.6201 488.4622,-617.573"/>
</g>
<!-- Node4764 -->
<g id="node13" class="node">
<title>Node4764</title>
<g id="a_node13"><a xlink:href="libbf_8h.html#a50a5aa2767f2389a32daf115aaef07af" target="_top" xlink:title="bf_add_si">
<polygon fill="none" stroke="#000000" points="234.5,-760.5 234.5,-779.5 297.5,-779.5 297.5,-760.5 234.5,-760.5"/>
<text text-anchor="middle" x="266" y="-767.5" font-family="Helvetica,sans-Serif" font-size="10.00" fill="#000000">bf_add_si</text>
</a>
</g>
</g>
<!-- Node4763&#45;&gt;Node4764 -->
<g id="edge14" class="edge">
<title>Node4763&#45;&gt;Node4764</title>
<path fill="none" stroke="#191970" d="M140.8826,-551.6425C151.7892,-578.2883 184.3129,-654.8001 221,-713 229.8065,-726.9705 241.3819,-741.567 250.5872,-752.4916"/>
<polygon fill="#191970" stroke="#191970" points="248.1936,-755.0765 257.3635,-760.3835 253.5045,-750.5164 248.1936,-755.0765"/>
</g>
<!-- Node4765 -->
<g id="node14" class="node">
<title>Node4765</title>
<g id="a_node14"><a xlink:href="libbf_8h.html#a60ee3eaad83309aaf8a8b8fb81d8b44d" target="_top" xlink:title="bf_set_si">
<polygon fill="none" stroke="#000000" points="372,-646.5 372,-665.5 432,-665.5 432,-646.5 372,-646.5"/>
<text text-anchor="middle" x="402" y="-653.5" font-family="Helvetica,sans-Serif" font-size="10.00" fill="#000000">bf_set_si</text>
</a>
</g>
</g>
<!-- Node4763&#45;&gt;Node4765 -->
<g id="edge44" class="edge">
<title>Node4763&#45;&gt;Node4765</title>
<path fill="none" stroke="#191970" d="M183.5801,-551.5489C219.9783,-560.3233 270.9394,-575.5677 311,-599 329.7354,-609.9588 328.8054,-620.165 347,-632 352.8676,-635.8167 359.4437,-639.2831 365.9523,-642.3202"/>
<polygon fill="#191970" stroke="#191970" points="364.7865,-645.631 375.3493,-646.4536 367.6049,-639.2235 364.7865,-645.631"/>
</g>
<!-- Node4766 -->
<g id="node15" class="node">
<title>Node4766</title>
<g id="a_node15"><a xlink:href="libbf_8h.html#aff86bca731f3c8ffe45f0f1129175961" target="_top" xlink:title="bf_const_pi">
<polygon fill="none" stroke="#000000" points="230,-304.5 230,-323.5 302,-323.5 302,-304.5 230,-304.5"/>
<text text-anchor="middle" x="266" y="-311.5" font-family="Helvetica,sans-Serif" font-size="10.00" fill="#000000">bf_const_pi</text>
</a>
</g>
</g>
<!-- Node4763&#45;&gt;Node4766 -->
<g id="edge20" class="edge">
<title>Node4763&#45;&gt;Node4766</title>
<path fill="none" stroke="#191970" d="M138.5991,-532.2355C144.2517,-500.4919 165.9911,-398.7647 221,-338 224.0918,-334.5847 227.7858,-331.5662 231.7093,-328.9244"/>
<polygon fill="#191970" stroke="#191970" points="233.6804,-331.8255 240.5209,-323.7348 230.128,-325.7938 233.6804,-331.8255"/>
</g>
<!-- Node4771 -->
<g id="node17" class="node">
<title>Node4771</title>
<g id="a_node17"><a xlink:href="libbf_8h.html#a030665e68e114717678fb0d0453bb3c6" target="_top" xlink:title="bf_div">
<polygon fill="none" stroke="#ff0000" points="242.5,-684.5 242.5,-703.5 289.5,-703.5 289.5,-684.5 242.5,-684.5"/>
<text text-anchor="middle" x="266" y="-691.5" font-family="Helvetica,sans-Serif" font-size="10.00" fill="#000000">bf_div</text>
</a>
</g>
</g>
<!-- Node4763&#45;&gt;Node4771 -->
<g id="edge23" class="edge">
<title>Node4763&#45;&gt;Node4771</title>
<path fill="none" stroke="#191970" d="M141.1868,-551.509C151.6821,-574.4489 181.154,-633.6171 221,-670 224.825,-673.4926 229.2518,-676.6422 233.8055,-679.4233"/>
<polygon fill="#191970" stroke="#191970" points="232.1535,-682.5093 242.5941,-684.3103 235.5554,-676.3915 232.1535,-682.5093"/>
</g>
<!-- Node4824 -->
<g id="node18" class="node">
<title>Node4824</title>
<g id="a_node18"><a xlink:href="libbf_8h.html#adeb14e044b992b09438bbd872831103b" target="_top" xlink:title="bf_isqrt">
<polygon fill="none" stroke="#ff0000" points="503,-570.5 503,-589.5 556,-589.5 556,-570.5 503,-570.5"/>
<text text-anchor="middle" x="529.5" y="-577.5" font-family="Helvetica,sans-Serif" font-size="10.00" fill="#000000">bf_isqrt</text>
</a>
</g>
</g>
<!-- Node4763&#45;&gt;Node4824 -->
<g id="edge25" class="edge">
<title>Node4763&#45;&gt;Node4824</title>
<path fill="none" stroke="#191970" d="M185.2459,-532.5584C196.9048,-530.6654 209.36,-528.9634 221,-528 260.8637,-524.7008 273.1651,-515.0185 311,-528 330.1726,-534.5783 328.2981,-548.1832 347,-556 394.7034,-575.9385 455.0031,-580.261 492.9244,-580.7422"/>
<polygon fill="#191970" stroke="#191970" points="492.9825,-584.2424 502.9976,-580.7858 493.0129,-577.2424 492.9825,-584.2424"/>
</g>
<!-- Node4815 -->
<g id="node19" class="node">
<title>Node4815</title>
<g id="a_node19"><a xlink:href="libbf_8h.html#ac290278d0c37a0e7786873f98aadba47" target="_top" xlink:title="bf_mul">
<polygon fill="none" stroke="#ff0000" points="241,-456.5 241,-475.5 291,-475.5 291,-456.5 241,-456.5"/>
<text text-anchor="middle" x="266" y="-463.5" font-family="Helvetica,sans-Serif" font-size="10.00" fill="#000000">bf_mul</text>
</a>
</g>
</g>
<!-- Node4763&#45;&gt;Node4815 -->
<g id="edge27" class="edge">
<title>Node4763&#45;&gt;Node4815</title>
<path fill="none" stroke="#191970" d="M151.9979,-532.3097C168.6659,-521.6361 196.4708,-504.114 221,-490 226.6407,-486.7544 232.7518,-483.3941 238.5983,-480.2525"/>
<polygon fill="#191970" stroke="#191970" points="240.2729,-483.3262 247.4621,-475.5437 236.9888,-477.1443 240.2729,-483.3262"/>
</g>
<!-- Node4763&#45;&gt;Node4825 -->
<g id="edge34" class="edge">
<title>Node4763&#45;&gt;Node4825</title>
<path fill="none" stroke="#191970" d="M139.8197,-532.4345C149.7145,-499.1771 184.2489,-385.6697 221,-295 231.9829,-267.9037 246.8431,-237.5162 256.4263,-218.5686"/>
<polygon fill="#191970" stroke="#191970" points="259.6022,-220.0451 261.0289,-209.5467 253.3667,-216.864 259.6022,-220.0451"/>
</g>
<!-- Node4826 -->
<g id="node25" class="node">
<title>Node4826</title>
<g id="a_node25"><a xlink:href="libbf_8h.html#aa561bc5220ec0489f4d3e59789d43d26" target="_top" xlink:title="bf_neg">
<polygon fill="none" stroke="#000000" points="241,-608.5 241,-627.5 291,-627.5 291,-608.5 241,-608.5"/>
<text text-anchor="middle" x="266" y="-615.5" font-family="Helvetica,sans-Serif" font-size="10.00" fill="#000000">bf_neg</text>
</a>
</g>
</g>
<!-- Node4763&#45;&gt;Node4826 -->
<g id="edge40" class="edge">
<title>Node4763&#45;&gt;Node4826</title>
<path fill="none" stroke="#191970" d="M151.9979,-551.6903C168.6659,-562.3639 196.4708,-579.886 221,-594 226.6407,-597.2456 232.7518,-600.6059 238.5983,-603.7475"/>
<polygon fill="#191970" stroke="#191970" points="236.9888,-606.8557 247.4621,-608.4563 240.2729,-600.6738 236.9888,-606.8557"/>
</g>
<!-- Node4763&#45;&gt;Node4753 -->
<g id="edge41" class="edge">
<title>Node4763&#45;&gt;Node4753</title>
<path fill="none" stroke="#191970" d="M139.1708,-532.4485C146.0983,-504.0136 170.2624,-418.9206 221,-371 252.5658,-341.1867 274.4624,-356.4572 311,-333 329.265,-321.2739 328.8054,-311.835 347,-300 353.8159,-295.5665 361.588,-291.6055 369.0996,-288.2411"/>
<polygon fill="#191970" stroke="#191970" points="370.5411,-291.4316 378.3835,-284.3079 367.8104,-284.9862 370.5411,-291.4316"/>
</g>
<!-- Node4817 -->
<g id="node27" class="node">
<title>Node4817</title>
<g id="a_node27"><a xlink:href="libbf_8h.html#a1a8b9ac1fea38b97fc6be8663ce9e867" target="_top" xlink:title="bf_sqrt">
<polygon fill="none" stroke="#ff0000" points="241,-380.5 241,-399.5 291,-399.5 291,-380.5 241,-380.5"/>
<text text-anchor="middle" x="266" y="-387.5" font-family="Helvetica,sans-Serif" font-size="10.00" fill="#000000">bf_sqrt</text>
</a>
</g>
</g>
<!-- Node4763&#45;&gt;Node4817 -->
<g id="edge46" class="edge">
<title>Node4763&#45;&gt;Node4817</title>
<path fill="none" stroke="#191970" d="M145.0695,-532.4917C166.3358,-507.4338 224.1467,-439.3155 251.4056,-407.1965"/>
<polygon fill="#191970" stroke="#191970" points="254.1314,-409.3938 257.9335,-399.5047 248.7943,-404.8643 254.1314,-409.3938"/>
</g>
<!-- Node4764&#45;&gt;Node4732 -->
<g id="edge15" class="edge">
<title>Node4764&#45;&gt;Node4732</title>
<path fill="none" stroke="#191970" d="M297.543,-778.8135C318.407,-784.6431 345.772,-792.2892 367.259,-798.293"/>
<polygon fill="#191970" stroke="#191970" points="366.4033,-801.6879 376.9763,-801.0081 368.2871,-794.9461 366.4033,-801.6879"/>
</g>
<!-- Node4764&#45;&gt;Node4761 -->
<g id="edge16" class="edge">
<title>Node4764&#45;&gt;Node4761</title>
<path fill="none" stroke="#191970" d="M274.5074,-779.5083C296.9277,-804.5662 357.8756,-872.6845 386.6137,-904.8035"/>
<polygon fill="#191970" stroke="#191970" points="384.2195,-907.3767 393.4958,-912.4953 389.4362,-902.7091 384.2195,-907.3767"/>
</g>
<!-- Node4764&#45;&gt;Node4757 -->
<g id="edge17" class="edge">
<title>Node4764&#45;&gt;Node4757</title>
<path fill="none" stroke="#191970" d="M297.543,-761.1865C318.8134,-755.2433 346.8406,-747.4122 368.5079,-741.3581"/>
<polygon fill="#191970" stroke="#191970" points="369.5825,-744.692 378.2717,-738.63 367.6987,-737.9502 369.5825,-744.692"/>
</g>
<!-- Node4764&#45;&gt;Node4765 -->
<g id="edge18" class="edge">
<title>Node4764&#45;&gt;Node4765</title>
<path fill="none" stroke="#191970" d="M277.5953,-760.2804C300.981,-740.6777 354.0092,-696.2276 382.7008,-672.1773"/>
<polygon fill="#191970" stroke="#191970" points="385.0187,-674.8013 390.4341,-665.695 380.5219,-669.4367 385.0187,-674.8013"/>
</g>
<!-- Node4765&#45;&gt;Node4762 -->
<g id="edge19" class="edge">
<title>Node4765&#45;&gt;Node4762</title>
<path fill="none" stroke="#191970" d="M432.2157,-646.9945C449.1943,-641.9343 470.6092,-635.5518 489.022,-630.064"/>
<polygon fill="#191970" stroke="#191970" points="490.0318,-633.4153 498.6155,-627.2048 488.0323,-626.7069 490.0318,-633.4153"/>
</g>
<!-- Node4766&#45;&gt;Node4767 -->
<g id="edge21" class="edge">
<title>Node4766&#45;&gt;Node4767</title>
<path fill="none" stroke="#191970" d="M277.4092,-304.3966C292.5163,-292.063 320.3639,-270.628 347,-257 351.0555,-254.925 355.3888,-252.9916 359.7763,-251.2141"/>
<polygon fill="#191970" stroke="#191970" points="361.2678,-254.3919 369.3806,-247.5777 358.7892,-247.8454 361.2678,-254.3919"/>
</g>
<!-- Node4824&#45;&gt;Node4751 -->
<g id="edge26" class="edge">
<title>Node4824&#45;&gt;Node4751</title>
<path fill="none" stroke="#191970" d="M556.073,-580C573.1081,-580 595.0856,-580 611.8377,-580"/>
<polygon fill="#191970" stroke="#191970" points="611.9872,-583.5001 621.9872,-580 611.9872,-576.5001 611.9872,-583.5001"/>
</g>
<!-- Node4815&#45;&gt;Node4757 -->
<g id="edge28" class="edge">
<title>Node4815&#45;&gt;Node4757</title>
<path fill="none" stroke="#191970" d="M269.149,-475.5854C281.0893,-511.6692 324.0544,-639.0942 347,-675 356.7468,-690.252 371.0106,-704.8886 382.5698,-715.5106"/>
<polygon fill="#191970" stroke="#191970" points="380.2582,-718.1387 390.0515,-722.1812 384.9166,-712.9138 380.2582,-718.1387"/>
</g>
<!-- Node4815&#45;&gt;Node4746 -->
<g id="edge30" class="edge">
<title>Node4815&#45;&gt;Node4746</title>
<path fill="none" stroke="#191970" d="M291.3581,-472.217C360.92,-487.6594 557.1826,-520.1959 672,-428 703.4218,-402.769 723.0563,-358.3997 732.2689,-333.0972"/>
<polygon fill="#191970" stroke="#191970" points="735.6163,-334.1268 735.5831,-323.532 729.002,-331.835 735.6163,-334.1268"/>
</g>
<!-- Node4815&#45;&gt;Node4749 -->
<g id="edge31" class="edge">
<title>Node4815&#45;&gt;Node4749</title>
<path fill="none" stroke="#191970" d="M291.3934,-466.96C343.7233,-468.2914 466.9659,-468.0757 566,-442 581.8661,-437.8224 598.5545,-430.2481 611.7627,-423.4088"/>
<polygon fill="#191970" stroke="#191970" points="613.5424,-426.426 620.7036,-418.6178 610.2362,-420.256 613.5424,-426.426"/>
</g>
<!-- Node4738 -->
<g id="node20" class="node">
<title>Node4738</title>
<g id="a_node20"><a xlink:href="libbf_8h.html#a970a1725f8bc59eda655058c5ff6bc52" target="_top" xlink:title="bf_min">
<polygon fill="none" stroke="#000000" points="377,-380.5 377,-399.5 427,-399.5 427,-380.5 377,-380.5"/>
<text text-anchor="middle" x="402" y="-387.5" font-family="Helvetica,sans-Serif" font-size="10.00" fill="#000000">bf_min</text>
</a>
</g>
</g>
<!-- Node4815&#45;&gt;Node4738 -->
<g id="edge29" class="edge">
<title>Node4815&#45;&gt;Node4738</title>
<path fill="none" stroke="#191970" d="M283.2245,-456.3745C306.6256,-443.2975 348.6659,-419.8043 375.9391,-404.5634"/>
<polygon fill="#191970" stroke="#191970" points="377.8933,-407.4809 384.9154,-399.5473 374.4785,-401.3703 377.8933,-407.4809"/>
</g>
<!-- Node4815&#45;&gt;Node4750 -->
<g id="edge32" class="edge">
<title>Node4815&#45;&gt;Node4750</title>
<path fill="none" stroke="#191970" d="M291.2529,-465.4931C331.5991,-463.32 410.7494,-453.2641 457,-409 511.7817,-356.5712 525.1875,-260.6972 528.4542,-219.5766"/>
<polygon fill="#191970" stroke="#191970" points="531.952,-219.7248 529.1326,-209.512 524.9679,-219.254 531.952,-219.7248"/>
</g>
<!-- Node4750&#45;&gt;Node4746 -->
<g id="edge33" class="edge">
<title>Node4750&#45;&gt;Node4746</title>
<path fill="none" stroke="#191970" d="M566.067,-198.809C596.519,-199.454 639.9306,-204.3094 672,-224 699.744,-241.0348 719.661,-274.3329 730.1097,-295.3029"/>
<polygon fill="#191970" stroke="#191970" points="727.018,-296.9517 734.4712,-304.4816 733.3405,-293.9473 727.018,-296.9517"/>
</g>
<!-- Node4825&#45;&gt;Node4738 -->
<g id="edge39" class="edge">
<title>Node4825&#45;&gt;Node4738</title>
<path fill="none" stroke="#191970" d="M272.9312,-209.6833C294.4793,-239.7873 360.5448,-332.0847 388.8758,-371.6647"/>
<polygon fill="#191970" stroke="#191970" points="386.2531,-374.0139 394.9196,-380.1083 391.9452,-369.9396 386.2531,-374.0139"/>
</g>
<!-- Node4740 -->
<g id="node23" class="node">
<title>Node4740</title>
<g id="a_node23"><a xlink:href="libbf_8c.html#a5a13527071b5331585beae41a51ed3c2" target="_top" xlink:title="__bf_round">
<polygon fill="none" stroke="#ff0000" points="367,-190.5 367,-209.5 437,-209.5 437,-190.5 367,-190.5"/>
<text text-anchor="middle" x="402" y="-197.5" font-family="Helvetica,sans-Serif" font-size="10.00" fill="#000000">__bf_round</text>
</a>
</g>
</g>
<!-- Node4825&#45;&gt;Node4740 -->
<g id="edge35" class="edge">
<title>Node4825&#45;&gt;Node4740</title>
<path fill="none" stroke="#191970" d="M306.0689,-200C321.8803,-200 340.1301,-200 356.4402,-200"/>
<polygon fill="#191970" stroke="#191970" points="356.833,-203.5001 366.8329,-200 356.8329,-196.5001 356.833,-203.5001"/>
</g>
<!-- Node4825&#45;&gt;Node4736 -->
<g id="edge38" class="edge">
<title>Node4825&#45;&gt;Node4736</title>
<path fill="none" stroke="#191970" d="M277.5953,-190.2804C300.981,-170.6777 354.0092,-126.2276 382.7008,-102.1773"/>
<polygon fill="#191970" stroke="#191970" points="385.0187,-104.8013 390.4341,-95.695 380.5219,-99.4367 385.0187,-104.8013"/>
</g>
<!-- Node4740&#45;&gt;Node4746 -->
<g id="edge36" class="edge">
<title>Node4740&#45;&gt;Node4746</title>
<path fill="none" stroke="#191970" d="M434.264,-209.5515C485.1686,-224.8104 587.0679,-256.1225 672,-287 683.3867,-291.1397 695.7171,-296.0298 706.6317,-300.5031"/>
<polygon fill="#191970" stroke="#191970" points="705.6113,-303.8688 716.1896,-304.4606 708.2893,-297.4012 705.6113,-303.8688"/>
</g>
<!-- Node4740&#45;&gt;Node4750 -->
<g id="edge37" class="edge">
<title>Node4740&#45;&gt;Node4750</title>
<path fill="none" stroke="#191970" d="M437.1774,-200C451.1915,-200 467.5281,-200 482.5301,-200"/>
<polygon fill="#191970" stroke="#191970" points="482.6579,-203.5001 492.6578,-200 482.6578,-196.5001 482.6579,-203.5001"/>
</g>
<!-- Node4753&#45;&gt;Node4746 -->
<g id="edge42" class="edge">
<title>Node4753&#45;&gt;Node4746</title>
<path fill="none" stroke="#191970" d="M425.5862,-277.1517C472.6475,-279.6578 581.4703,-286.4959 672,-300 680.471,-301.2636 689.4852,-302.9363 698.0533,-304.6845"/>
<polygon fill="#191970" stroke="#191970" points="697.34,-308.111 707.8473,-306.7515 698.7855,-301.2619 697.34,-308.111"/>
</g>
<!-- Node4753&#45;&gt;Node4749 -->
<g id="edge43" class="edge">
<title>Node4753&#45;&gt;Node4749</title>
<path fill="none" stroke="#191970" d="M418.9006,-285.565C459.4513,-308.515 562.489,-366.83 610.9969,-394.2834"/>
<polygon fill="#191970" stroke="#191970" points="609.51,-397.4634 619.9368,-399.3429 612.9578,-391.3714 609.51,-397.4634"/>
</g>
<!-- Node4817&#45;&gt;Node4746 -->
<g id="edge48" class="edge">
<title>Node4817&#45;&gt;Node4746</title>
<path fill="none" stroke="#191970" d="M289.3619,-380.4532C305.3392,-374.2915 327.1406,-366.5957 347,-362 472.9031,-332.8646 625.9351,-320.6004 697.6775,-316.1664"/>
<polygon fill="#191970" stroke="#191970" points="697.8872,-319.6602 707.6598,-315.5679 697.4682,-312.6727 697.8872,-319.6602"/>
</g>
<!-- Node4817&#45;&gt;Node4749 -->
<g id="edge50" class="edge">
<title>Node4817&#45;&gt;Node4749</title>
<path fill="none" stroke="#191970" d="M291.2712,-382.4877C307.1165,-378.1746 328.06,-373.1916 347,-371 395.5648,-365.3804 408.3754,-365.9234 457,-371 503.8935,-375.8959 556.5587,-387.7812 592.7461,-396.967"/>
<polygon fill="#191970" stroke="#191970" points="591.9405,-400.3737 602.4974,-399.4783 593.6863,-393.5949 591.9405,-400.3737"/>
</g>
<!-- Node4817&#45;&gt;Node4738 -->
<g id="edge47" class="edge">
<title>Node4817&#45;&gt;Node4738</title>
<path fill="none" stroke="#191970" d="M291.2618,-390C312.4453,-390 342.9343,-390 366.5596,-390"/>
<polygon fill="#191970" stroke="#191970" points="366.8735,-393.5001 376.8735,-390 366.8734,-386.5001 366.8735,-393.5001"/>
</g>
<!-- Node4817&#45;&gt;Node4753 -->
<g id="edge49" class="edge">
<title>Node4817&#45;&gt;Node4753</title>
<path fill="none" stroke="#191970" d="M290.1507,-380.3681C297.4495,-376.6492 305.0872,-371.8575 311,-366 334.7374,-342.4845 322.3581,-322.566 347,-300 353.2816,-294.2475 361.1607,-289.7215 368.9762,-286.2252"/>
<polygon fill="#191970" stroke="#191970" points="370.3884,-289.4299 378.3662,-282.458 367.782,-282.9332 370.3884,-289.4299"/>
</g>
<!-- Node4735&#45;&gt;Node4736 -->
<g id="edge52" class="edge">
<title>Node4735&#45;&gt;Node4736</title>
<path fill="none" stroke="#191970" d="M166.6275,-86C215.2742,-86 311.9608,-86 365.0214,-86"/>
<polygon fill="#191970" stroke="#191970" points="365.3368,-89.5001 375.3368,-86 365.3368,-82.5001 365.3368,-89.5001"/>
</g>
<!-- Node4827&#45;&gt;Node4740 -->
<g id="edge63" class="edge">
<title>Node4827&#45;&gt;Node4740</title>
<path fill="none" stroke="#191970" d="M184.0596,-165.8924C219.163,-169.0979 268.2319,-174.2166 311,-181 326.0235,-183.3829 342.3193,-186.5865 356.9143,-189.6836"/>
<polygon fill="#191970" stroke="#191970" points="356.1967,-193.1092 366.7102,-191.7993 357.6745,-186.267 356.1967,-193.1092"/>
</g>
</g>
</svg>
        <g id="navigator" transform="translate(0 0)" fill="#404254">
                <rect fill="#f2f5e9" fill-opacity="0.5" stroke="#606060" stroke-width=".5" x="0" y="0" width="60" height="60"/>
                <use id="zoomplus" xlink:href="#zoomPlus" x="17" y="9" onmousedown="handleZoom(evt,'in')"/>
                <use id="zoomminus" xlink:href="#zoomMin" x="42" y="9" onmousedown="handleZoom(evt,'out')"/>
                <use id="reset" xlink:href="#resetDef" x="30" y="36" onmousedown="handleReset()"/>
                <g id="arrowUp" xlink:href="#dirArrow" transform="translate(30 24)" onmousedown="handlePan(0,-1)">
                  <use xlink:href="#rim" fill="#404040">
                        <set attributeName="fill" to="#808080" begin="arrowUp.mouseover" end="arrowUp.mouseout"/>
                  </use>
                  <path fill="none" stroke="white" stroke-width="1.5" d="M0,-3.0v7 M-2.5,-0.5L0,-3.0L2.5,-0.5"/>
                </g>
                <g id="arrowRight" xlink:href="#dirArrow" transform="rotate(90) translate(36 -43)" onmousedown="handlePan(1,0)">
                  <use xlink:href="#rim" fill="#404040">
                        <set attributeName="fill" to="#808080" begin="arrowRight.mouseover" end="arrowRight.mouseout"/>
                  </use>
                  <path fill="none" stroke="white" stroke-width="1.5" d="M0,-3.0v7 M-2.5,-0.5L0,-3.0L2.5,-0.5"/>
                </g>
                <g id="arrowDown" xlink:href="#dirArrow" transform="rotate(180) translate(-30 -48)" onmousedown="handlePan(0,1)">
                  <use xlink:href="#rim" fill="#404040">
                        <set attributeName="fill" to="#808080" begin="arrowDown.mouseover" end="arrowDown.mouseout"/>
                  </use>
                  <path fill="none" stroke="white" stroke-width="1.5" d="M0,-3.0v7 M-2.5,-0.5L0,-3.0L2.5,-0.5"/>
                </g>
                <g id="arrowLeft" xlink:href="#dirArrow" transform="rotate(270) translate(-36 17)" onmousedown="handlePan(-1,0)">
                  <use xlink:href="#rim" fill="#404040">
                        <set attributeName="fill" to="#808080" begin="arrowLeft.mouseover" end="arrowLeft.mouseout"/>
                  </use>
                  <path fill="none" stroke="white" stroke-width="1.5" d="M0,-3.0v7 M-2.5,-0.5L0,-3.0L2.5,-0.5"/>
                </g>
        </g>
        <svg viewBox="0 0 15 15" width="100%" height="30px" preserveAspectRatio="xMaxYMin meet">
         <g id="arrow_out" transform="scale(0.3 0.3)">
          <a xlink:href="libbf_8h_a0bb2c5b98e3f978b84df9849c7ec50d6_cgraph_org.svg" target="_base">
           <rect id="button" ry="5" rx="5" y="6" x="6" height="38" width="38"
                fill="#f2f5e9" fill-opacity="0.5" stroke="#606060" stroke-width="1.0"/>
           <path id="arrow"
             d="M 11.500037,31.436501 C 11.940474,20.09759 22.043105,11.32322 32.158766,21.979434 L 37.068811,17.246167 C 37.068811,17.246167 37.088388,32 37.088388,32 L 22.160133,31.978069 C 22.160133,31.978069 26.997745,27.140456 26.997745,27.140456 C 18.528582,18.264221 13.291696,25.230495 11.500037,31.436501 z"
             style="fill:#404040;"/>
          </a>
         </g>
        </svg>
</svg>
