<?xml version="1.0" encoding="UTF-8" standalone="no"?>
<!DOCTYPE svg PUBLIC "-//W3C//DTD SVG 1.1//EN"
 "http://www.w3.org/Graphics/SVG/1.1/DTD/svg11.dtd">
<!-- Generated by graphviz version 2.40.1 (20161225.0304)
 -->
<!-- Title: bf_cmpu Pages: 1 -->
<svg width="168pt" height="66pt"
 viewBox="0.00 0.00 168.00 66.00" xmlns="http://www.w3.org/2000/svg" xmlns:xlink="http://www.w3.org/1999/xlink">
<g id="graph0" class="graph" transform="scale(1 1) rotate(0) translate(4 62)">
<title>bf_cmpu</title>
<!-- Node1352 -->
<g id="node1" class="node">
<title>Node1352</title>
<polygon fill="#bfbfbf" stroke="#000000" points="0,-19.5 0,-38.5 59,-38.5 59,-19.5 0,-19.5"/>
<text text-anchor="middle" x="29.5" y="-26.5" font-family="Helvetica,sans-Serif" font-size="10.00" fill="#000000">bf_cmpu</text>
</g>
<!-- Node1353 -->
<g id="node2" class="node">
<title>Node1353</title>
<g id="a_node2"><a xlink:href="libbf_8h.html#a4954f3435332238433d15977d55ae566" target="_top" xlink:title="bf_max">
<polygon fill="none" stroke="#000000" points="101,-38.5 101,-57.5 154,-57.5 154,-38.5 101,-38.5"/>
<text text-anchor="middle" x="127.5" y="-45.5" font-family="Helvetica,sans-Serif" font-size="10.00" fill="#000000">bf_max</text>
</a>
</g>
</g>
<!-- Node1352&#45;&gt;Node1353 -->
<g id="edge1" class="edge">
<title>Node1352&#45;&gt;Node1353</title>
<path fill="none" stroke="#191970" d="M59.1692,-34.7522C69.1406,-36.6854 80.384,-38.8653 90.8282,-40.8902"/>
<polygon fill="#191970" stroke="#191970" points="90.4459,-44.3811 100.9293,-42.8485 91.7783,-37.5091 90.4459,-44.3811"/>
</g>
<!-- Node1354 -->
<g id="node3" class="node">
<title>Node1354</title>
<g id="a_node3"><a xlink:href="libbf_8c.html#a42c793dff09c27760634ad51e7184413" target="_top" xlink:title="get_limbz">
<polygon fill="none" stroke="#000000" points="95,-.5 95,-19.5 160,-19.5 160,-.5 95,-.5"/>
<text text-anchor="middle" x="127.5" y="-7.5" font-family="Helvetica,sans-Serif" font-size="10.00" fill="#000000">get_limbz</text>
</a>
</g>
</g>
<!-- Node1352&#45;&gt;Node1354 -->
<g id="edge2" class="edge">
<title>Node1352&#45;&gt;Node1354</title>
<path fill="none" stroke="#191970" d="M59.1692,-23.2478C67.2675,-21.6777 76.2047,-19.945 84.8714,-18.2647"/>
<polygon fill="#191970" stroke="#191970" points="85.7036,-21.6686 94.8547,-16.3292 84.3713,-14.7966 85.7036,-21.6686"/>
</g>
</g>
</svg>
