<?xml version="1.0" encoding="UTF-8" standalone="no"?>
<!DOCTYPE svg PUBLIC "-//W3C//DTD SVG 1.1//EN"
 "http://www.w3.org/Graphics/SVG/1.1/DTD/svg11.dtd">
<!-- Generated by graphviz version 2.40.1 (20161225.0304)
 -->
<!-- Title: bf_const_pi_internal Pages: 1 -->
<!--zoomable 168 -->
<svg id="main" version="1.1" xmlns="http://www.w3.org/2000/svg" xmlns:xlink="http://www.w3.org/1999/xlink" xml:space="preserve" onload="init(evt)">
<style type="text/css"><![CDATA[
.edge:hover path { stroke: red; }
.edge:hover polygon { stroke: red; fill: red; }
]]></style>
<script type="text/javascript"><![CDATA[
var edges = document.getElementsByTagName('g');
if (edges && edges.length) {
  for (var i=0;i<edges.length;i++) {
    if (edges[i].id.substr(0,4)=='edge') {
      edges[i].setAttribute('class','edge');
    }
  }
}
]]></script>
        <defs>
                <circle id="rim" cx="0" cy="0" r="7"/>
                <circle id="rim2" cx="0" cy="0" r="3.5"/>
                <g id="zoomPlus">
                        <use xlink:href="#rim" fill="#404040">
                                <set attributeName="fill" to="#808080" begin="zoomplus.mouseover" end="zoomplus.mouseout"/>
                        </use>
                        <path d="M-4,0h8M0,-4v8" fill="none" stroke="white" stroke-width="1.5" pointer-events="none"/>
                </g>
                <g id="zoomMin">
                        <use xlink:href="#rim" fill="#404040">
                                <set attributeName="fill" to="#808080" begin="zoomminus.mouseover" end="zoomminus.mouseout"/>
                        </use>
                        <path d="M-4,0h8" fill="none" stroke="white" stroke-width="1.5" pointer-events="none"/>
                </g>
                <g id="dirArrow">
                        <path fill="none" stroke="white" stroke-width="1.5" d="M0,-3.0v7 M-2.5,-0.5L0,-3.0L2.5,-0.5"/>
                </g>
               <g id="resetDef">
                       <use xlink:href="#rim2" fill="#404040">
                               <set attributeName="fill" to="#808080" begin="reset.mouseover" end="reset.mouseout"/>
                       </use>
               </g>
        </defs>

<script type="text/javascript">
var viewWidth = 736;
var viewHeight = 168;
var sectionId = 'dynsection-190';
</script>
<script xlink:href="svgpan.js"/>
<svg id="graph" class="graph">
<g id="viewport">
<title>bf_const_pi_internal</title>
<!-- Node7173 -->
<g id="node1" class="node">
<title>Node7173</title>
<polygon fill="#bfbfbf" stroke="#000000" points="0,-26.6262 0,-45.6262 115,-45.6262 115,-26.6262 0,-26.6262"/>
<text text-anchor="middle" x="57.5" y="-33.6262" font-family="Helvetica,sans-Serif" font-size="10.00" fill="#000000">bf_const_pi_internal</text>
</g>
<!-- Node7174 -->
<g id="node2" class="node">
<title>Node7174</title>
<g id="a_node2"><a xlink:href="libbf_8c.html#a25b9653cbfca557499e786f8d2a7eb2e" target="_top" xlink:title="bf_const_pi_signed">
<polygon fill="none" stroke="#000000" points="151,-26.6262 151,-45.6262 261,-45.6262 261,-26.6262 151,-26.6262"/>
<text text-anchor="middle" x="206" y="-33.6262" font-family="Helvetica,sans-Serif" font-size="10.00" fill="#000000">bf_const_pi_signed</text>
</a>
</g>
</g>
<!-- Node7173&#45;&gt;Node7174 -->
<g id="edge1" class="edge">
<title>Node7173&#45;&gt;Node7174</title>
<path fill="none" stroke="#191970" d="M125.3425,-36.1262C133.9327,-36.1262 142.6381,-36.1262 150.9942,-36.1262"/>
<polygon fill="#191970" stroke="#191970" points="125.3392,-32.6263 115.3392,-36.1262 125.3392,-39.6263 125.3392,-32.6263"/>
</g>
<!-- Node7175 -->
<g id="node3" class="node">
<title>Node7175</title>
<g id="a_node3"><a xlink:href="libbf_8h.html#aff86bca731f3c8ffe45f0f1129175961" target="_top" xlink:title="bf_const_pi">
<polygon fill="none" stroke="#000000" points="297,-64.6262 297,-83.6262 369,-83.6262 369,-64.6262 297,-64.6262"/>
<text text-anchor="middle" x="333" y="-71.6262" font-family="Helvetica,sans-Serif" font-size="10.00" fill="#000000">bf_const_pi</text>
</a>
</g>
</g>
<!-- Node7174&#45;&gt;Node7175 -->
<g id="edge2" class="edge">
<title>Node7174&#45;&gt;Node7175</title>
<path fill="none" stroke="#191970" d="M247.8943,-48.6615C265.1712,-53.8309 284.8707,-59.7253 300.9628,-64.5402"/>
<polygon fill="#191970" stroke="#191970" points="248.6311,-45.2287 238.0475,-45.7152 246.6245,-51.9349 248.6311,-45.2287"/>
</g>
<!-- Node7184 -->
<g id="node6" class="node">
<title>Node7184</title>
<g id="a_node6"><a xlink:href="libbf_8h.html#a0bb2c5b98e3f978b84df9849c7ec50d6" target="_top" xlink:title="bf_atan">
<polygon fill="none" stroke="#000000" points="537,-64.6262 537,-83.6262 590,-83.6262 590,-64.6262 537,-64.6262"/>
<text text-anchor="middle" x="563.5" y="-71.6262" font-family="Helvetica,sans-Serif" font-size="10.00" fill="#000000">bf_atan</text>
</a>
</g>
</g>
<!-- Node7174&#45;&gt;Node7184 -->
<g id="edge9" class="edge">
<title>Node7174&#45;&gt;Node7184</title>
<path fill="none" stroke="#191970" d="M244.2499,-23.7104C302.0442,-7.1118 414.099,16.5498 501,-17.1262 525.648,-26.6778 546.5338,-50.9774 556.7624,-64.5634"/>
<polygon fill="#191970" stroke="#191970" points="243.041,-20.418 234.4438,-26.6099 245.0258,-27.1307 243.041,-20.418"/>
</g>
<!-- Node7176 -->
<g id="node4" class="node">
<title>Node7176</title>
<g id="a_node4"><a xlink:href="libbf_8c.html#a2b19e3958f6cf3fa0cc534681a5ff259" target="_top" xlink:title="bf_sincos">
<polygon fill="none" stroke="#ff0000" points="422,-140.6262 422,-159.6262 484,-159.6262 484,-140.6262 422,-140.6262"/>
<text text-anchor="middle" x="453" y="-147.6262" font-family="Helvetica,sans-Serif" font-size="10.00" fill="#000000">bf_sincos</text>
</a>
</g>
</g>
<!-- Node7175&#45;&gt;Node7176 -->
<g id="edge3" class="edge">
<title>Node7175&#45;&gt;Node7176</title>
<path fill="none" stroke="#191970" d="M353.098,-89.9898C367.2151,-100.7922 386.7603,-115.0792 405,-126.1262 413.6068,-131.3389 423.4946,-136.4249 432.0507,-140.5633"/>
<polygon fill="#191970" stroke="#191970" points="355.1196,-87.1285 345.0697,-83.7742 350.8342,-92.6636 355.1196,-87.1285"/>
</g>
<!-- Node7183 -->
<g id="node5" class="node">
<title>Node7183</title>
<g id="a_node5"><a xlink:href="libbf_8c.html#aa4b535a5b33344704c576607ab4f0463" target="_top" xlink:title="bf_atan_internal">
<polygon fill="none" stroke="#ff0000" points="405,-64.6262 405,-83.6262 501,-83.6262 501,-64.6262 405,-64.6262"/>
<text text-anchor="middle" x="453" y="-71.6262" font-family="Helvetica,sans-Serif" font-size="10.00" fill="#000000">bf_atan_internal</text>
</a>
</g>
</g>
<!-- Node7175&#45;&gt;Node7183 -->
<g id="edge4" class="edge">
<title>Node7175&#45;&gt;Node7183</title>
<path fill="none" stroke="#191970" d="M379.2654,-74.1262C387.5635,-74.1262 396.2319,-74.1262 404.5886,-74.1262"/>
<polygon fill="#191970" stroke="#191970" points="379.004,-70.6263 369.004,-74.1262 379.0039,-77.6263 379.004,-70.6263"/>
</g>
<!-- Node7185 -->
<g id="node7" class="node">
<title>Node7185</title>
<g id="a_node7"><a xlink:href="libbf_8c.html#af760cf2a93bf130e8e44a62c7e7d0adf" target="_top" xlink:title="bf_atan2_internal">
<polygon fill="none" stroke="#ff0000" points="626,-83.6262 626,-102.6262 728,-102.6262 728,-83.6262 626,-83.6262"/>
<text text-anchor="middle" x="677" y="-90.6262" font-family="Helvetica,sans-Serif" font-size="10.00" fill="#000000">bf_atan2_internal</text>
</a>
</g>
</g>
<!-- Node7175&#45;&gt;Node7185 -->
<g id="edge7" class="edge">
<title>Node7175&#45;&gt;Node7185</title>
<path fill="none" stroke="#191970" d="M371.9184,-86.3533C382.5382,-89.1505 394.1186,-91.7146 405,-93.1262 481.4497,-103.0435 571.0064,-100.3124 625.8649,-97.0316"/>
<polygon fill="#191970" stroke="#191970" points="372.6565,-82.926 362.0851,-83.63 370.7882,-89.6721 372.6565,-82.926"/>
</g>
<!-- Node7189 -->
<g id="node8" class="node">
<title>Node7189</title>
<g id="a_node8"><a xlink:href="libbf_8h.html#a45cd74dd3a694c26e716762b7fd36955" target="_top" xlink:title="bf_acos">
<polygon fill="none" stroke="#000000" points="426,-26.6262 426,-45.6262 480,-45.6262 480,-26.6262 426,-26.6262"/>
<text text-anchor="middle" x="453" y="-33.6262" font-family="Helvetica,sans-Serif" font-size="10.00" fill="#000000">bf_acos</text>
</a>
</g>
</g>
<!-- Node7175&#45;&gt;Node7189 -->
<g id="edge8" class="edge">
<title>Node7175&#45;&gt;Node7189</title>
<path fill="none" stroke="#191970" d="M373.0995,-61.428C390.3463,-55.9665 410.0671,-49.7216 425.6012,-44.8025"/>
<polygon fill="#191970" stroke="#191970" points="371.7578,-58.1815 363.2811,-64.5372 373.8711,-64.8549 371.7578,-58.1815"/>
</g>
<!-- Node7183&#45;&gt;Node7184 -->
<g id="edge5" class="edge">
<title>Node7183&#45;&gt;Node7184</title>
<path fill="none" stroke="#191970" d="M511.22,-74.1262C520.1484,-74.1262 528.973,-74.1262 536.7576,-74.1262"/>
<polygon fill="#191970" stroke="#191970" points="511.1455,-70.6263 501.1455,-74.1262 511.1454,-77.6263 511.1455,-70.6263"/>
</g>
<!-- Node7184&#45;&gt;Node7185 -->
<g id="edge6" class="edge">
<title>Node7184&#45;&gt;Node7185</title>
<path fill="none" stroke="#191970" d="M600.0276,-80.2409C608.1748,-81.6048 616.9616,-83.0757 625.5828,-84.5189"/>
<polygon fill="#191970" stroke="#191970" points="600.5514,-76.78 590.1107,-78.5808 599.3956,-83.6839 600.5514,-76.78"/>
</g>
</g>
</svg>
        <g id="navigator" transform="translate(0 0)" fill="#404254">
                <rect fill="#f2f5e9" fill-opacity="0.5" stroke="#606060" stroke-width=".5" x="0" y="0" width="60" height="60"/>
                <use id="zoomplus" xlink:href="#zoomPlus" x="17" y="9" onmousedown="handleZoom(evt,'in')"/>
                <use id="zoomminus" xlink:href="#zoomMin" x="42" y="9" onmousedown="handleZoom(evt,'out')"/>
                <use id="reset" xlink:href="#resetDef" x="30" y="36" onmousedown="handleReset()"/>
                <g id="arrowUp" xlink:href="#dirArrow" transform="translate(30 24)" onmousedown="handlePan(0,-1)">
                  <use xlink:href="#rim" fill="#404040">
                        <set attributeName="fill" to="#808080" begin="arrowUp.mouseover" end="arrowUp.mouseout"/>
                  </use>
                  <path fill="none" stroke="white" stroke-width="1.5" d="M0,-3.0v7 M-2.5,-0.5L0,-3.0L2.5,-0.5"/>
                </g>
                <g id="arrowRight" xlink:href="#dirArrow" transform="rotate(90) translate(36 -43)" onmousedown="handlePan(1,0)">
                  <use xlink:href="#rim" fill="#404040">
                        <set attributeName="fill" to="#808080" begin="arrowRight.mouseover" end="arrowRight.mouseout"/>
                  </use>
                  <path fill="none" stroke="white" stroke-width="1.5" d="M0,-3.0v7 M-2.5,-0.5L0,-3.0L2.5,-0.5"/>
                </g>
                <g id="arrowDown" xlink:href="#dirArrow" transform="rotate(180) translate(-30 -48)" onmousedown="handlePan(0,1)">
                  <use xlink:href="#rim" fill="#404040">
                        <set attributeName="fill" to="#808080" begin="arrowDown.mouseover" end="arrowDown.mouseout"/>
                  </use>
                  <path fill="none" stroke="white" stroke-width="1.5" d="M0,-3.0v7 M-2.5,-0.5L0,-3.0L2.5,-0.5"/>
                </g>
                <g id="arrowLeft" xlink:href="#dirArrow" transform="rotate(270) translate(-36 17)" onmousedown="handlePan(-1,0)">
                  <use xlink:href="#rim" fill="#404040">
                        <set attributeName="fill" to="#808080" begin="arrowLeft.mouseover" end="arrowLeft.mouseout"/>
                  </use>
                  <path fill="none" stroke="white" stroke-width="1.5" d="M0,-3.0v7 M-2.5,-0.5L0,-3.0L2.5,-0.5"/>
                </g>
        </g>
        <svg viewBox="0 0 15 15" width="100%" height="30px" preserveAspectRatio="xMaxYMin meet">
         <g id="arrow_out" transform="scale(0.3 0.3)">
          <a xlink:href="libbf_8c_a11d2dea6becda91c288fd883eefc8e5c_icgraph_org.svg" target="_base">
           <rect id="button" ry="5" rx="5" y="6" x="6" height="38" width="38"
                fill="#f2f5e9" fill-opacity="0.5" stroke="#606060" stroke-width="1.0"/>
           <path id="arrow"
             d="M 11.500037,31.436501 C 11.940474,20.09759 22.043105,11.32322 32.158766,21.979434 L 37.068811,17.246167 C 37.068811,17.246167 37.088388,32 37.088388,32 L 22.160133,31.978069 C 22.160133,31.978069 26.997745,27.140456 26.997745,27.140456 C 18.528582,18.264221 13.291696,25.230495 11.500037,31.436501 z"
             style="fill:#404040;"/>
          </a>
         </g>
        </svg>
</svg>
