<?xml version="1.0" encoding="UTF-8" standalone="no"?>
<!DOCTYPE svg PUBLIC "-//W3C//DTD SVG 1.1//EN"
 "http://www.w3.org/Graphics/SVG/1.1/DTD/svg11.dtd">
<!-- Generated by graphviz version 2.40.1 (20161225.0304)
 -->
<!-- Title: bf_isqrt Pages: 1 -->
<!--zoomable 294 -->
<svg id="main" version="1.1" xmlns="http://www.w3.org/2000/svg" xmlns:xlink="http://www.w3.org/1999/xlink" xml:space="preserve" onload="init(evt)">
<style type="text/css"><![CDATA[
.edge:hover path { stroke: red; }
.edge:hover polygon { stroke: red; fill: red; }
]]></style>
<script type="text/javascript"><![CDATA[
var edges = document.getElementsByTagName('g');
if (edges && edges.length) {
  for (var i=0;i<edges.length;i++) {
    if (edges[i].id.substr(0,4)=='edge') {
      edges[i].setAttribute('class','edge');
    }
  }
}
]]></script>
        <defs>
                <circle id="rim" cx="0" cy="0" r="7"/>
                <circle id="rim2" cx="0" cy="0" r="3.5"/>
                <g id="zoomPlus">
                        <use xlink:href="#rim" fill="#404040">
                                <set attributeName="fill" to="#808080" begin="zoomplus.mouseover" end="zoomplus.mouseout"/>
                        </use>
                        <path d="M-4,0h8M0,-4v8" fill="none" stroke="white" stroke-width="1.5" pointer-events="none"/>
                </g>
                <g id="zoomMin">
                        <use xlink:href="#rim" fill="#404040">
                                <set attributeName="fill" to="#808080" begin="zoomminus.mouseover" end="zoomminus.mouseout"/>
                        </use>
                        <path d="M-4,0h8" fill="none" stroke="white" stroke-width="1.5" pointer-events="none"/>
                </g>
                <g id="dirArrow">
                        <path fill="none" stroke="white" stroke-width="1.5" d="M0,-3.0v7 M-2.5,-0.5L0,-3.0L2.5,-0.5"/>
                </g>
               <g id="resetDef">
                       <use xlink:href="#rim2" fill="#404040">
                               <set attributeName="fill" to="#808080" begin="reset.mouseover" end="reset.mouseout"/>
                       </use>
               </g>
        </defs>

<script type="text/javascript">
var viewWidth = 550;
var viewHeight = 294;
var sectionId = 'dynsection-109';
</script>
<script xlink:href="svgpan.js"/>
<svg id="graph" class="graph">
<g id="viewport">
<title>bf_isqrt</title>
<!-- Node4347 -->
<g id="node1" class="node">
<title>Node4347</title>
<polygon fill="#bfbfbf" stroke="#000000" points="0,-133.5 0,-152.5 53,-152.5 53,-133.5 0,-133.5"/>
<text text-anchor="middle" x="26.5" y="-140.5" font-family="Helvetica,sans-Serif" font-size="10.00" fill="#000000">bf_isqrt</text>
</g>
<!-- Node4348 -->
<g id="node2" class="node">
<title>Node4348</title>
<g id="a_node2"><a xlink:href="libbf_8c.html#aa4b535a5b33344704c576607ab4f0463" target="_top" xlink:title="bf_atan_internal">
<polygon fill="none" stroke="#000000" points="89,-228.5 89,-247.5 185,-247.5 185,-228.5 89,-228.5"/>
<text text-anchor="middle" x="137" y="-235.5" font-family="Helvetica,sans-Serif" font-size="10.00" fill="#000000">bf_atan_internal</text>
</a>
</g>
</g>
<!-- Node4347&#45;&gt;Node4348 -->
<g id="edge1" class="edge">
<title>Node4347&#45;&gt;Node4348</title>
<path fill="none" stroke="#191970" d="M45.6991,-159.5061C68.8578,-179.4162 107.015,-212.2211 125.8174,-228.386"/>
<polygon fill="#191970" stroke="#191970" points="47.7739,-156.6741 37.9092,-152.8089 43.2104,-161.9821 47.7739,-156.6741"/>
</g>
<!-- Node4355 -->
<g id="node8" class="node">
<title>Node4355</title>
<g id="a_node8"><a xlink:href="libbf_8c.html#a157194b3c7faaa17e39ae78cd98c4385" target="_top" xlink:title="bf_exp_internal">
<polygon fill="none" stroke="#000000" points="91,-152.5 91,-171.5 183,-171.5 183,-152.5 91,-152.5"/>
<text text-anchor="middle" x="137" y="-159.5" font-family="Helvetica,sans-Serif" font-size="10.00" fill="#000000">bf_exp_internal</text>
</a>
</g>
</g>
<!-- Node4347&#45;&gt;Node4355 -->
<g id="edge7" class="edge">
<title>Node4347&#45;&gt;Node4355</title>
<path fill="none" stroke="#191970" d="M63.1858,-149.308C71.9818,-150.8204 81.4882,-152.455 90.6583,-154.0318"/>
<polygon fill="#191970" stroke="#191970" points="63.6975,-145.8447 53.249,-147.5994 62.5112,-152.7434 63.6975,-145.8447"/>
</g>
<!-- Node4359 -->
<g id="node12" class="node">
<title>Node4359</title>
<g id="a_node12"><a xlink:href="libbf_8c.html#aab7bc918fdd8dbef25c31c6881c73fdd" target="_top" xlink:title="bf_log_internal">
<polygon fill="none" stroke="#000000" points="92.5,-114.5 92.5,-133.5 181.5,-133.5 181.5,-114.5 92.5,-114.5"/>
<text text-anchor="middle" x="137" y="-121.5" font-family="Helvetica,sans-Serif" font-size="10.00" fill="#000000">bf_log_internal</text>
</a>
</g>
</g>
<!-- Node4347&#45;&gt;Node4359 -->
<g id="edge11" class="edge">
<title>Node4347&#45;&gt;Node4359</title>
<path fill="none" stroke="#191970" d="M63.3553,-136.6629C72.6608,-135.0629 82.752,-133.3277 92.3938,-131.6698"/>
<polygon fill="#191970" stroke="#191970" points="62.5112,-133.2566 53.249,-138.4006 63.6975,-140.1553 62.5112,-133.2566"/>
</g>
<!-- Node4361 -->
<g id="node14" class="node">
<title>Node4361</title>
<g id="a_node14"><a xlink:href="libbf_8c.html#a2b19e3958f6cf3fa0cc534681a5ff259" target="_top" xlink:title="bf_sincos">
<polygon fill="none" stroke="#000000" points="106,-57.5 106,-76.5 168,-76.5 168,-57.5 106,-57.5"/>
<text text-anchor="middle" x="137" y="-64.5" font-family="Helvetica,sans-Serif" font-size="10.00" fill="#000000">bf_sincos</text>
</a>
</g>
</g>
<!-- Node4347&#45;&gt;Node4361 -->
<g id="edge15" class="edge">
<title>Node4347&#45;&gt;Node4361</title>
<path fill="none" stroke="#191970" d="M48.9817,-127.5374C71.2029,-112.2541 104.4969,-89.3551 123.1187,-76.5473"/>
<polygon fill="#191970" stroke="#191970" points="46.7508,-124.8239 40.4949,-133.3745 50.7177,-130.5914 46.7508,-124.8239"/>
</g>
<!-- Node4349 -->
<g id="node3" class="node">
<title>Node4349</title>
<g id="a_node3"><a xlink:href="libbf_8h.html#a0bb2c5b98e3f978b84df9849c7ec50d6" target="_top" xlink:title="bf_atan">
<polygon fill="none" stroke="#000000" points="242,-266.5 242,-285.5 295,-285.5 295,-266.5 242,-266.5"/>
<text text-anchor="middle" x="268.5" y="-273.5" font-family="Helvetica,sans-Serif" font-size="10.00" fill="#000000">bf_atan</text>
</a>
</g>
</g>
<!-- Node4348&#45;&gt;Node4349 -->
<g id="edge2" class="edge">
<title>Node4348&#45;&gt;Node4349</title>
<path fill="none" stroke="#191970" d="M179.9084,-250.3994C200.3538,-256.3076 224.1641,-263.1881 241.9484,-268.3273"/>
<polygon fill="#191970" stroke="#191970" points="180.7616,-247.0028 170.183,-247.589 178.8183,-253.7276 180.7616,-247.0028"/>
</g>
<!-- Node4352 -->
<g id="node5" class="node">
<title>Node4352</title>
<g id="a_node5"><a xlink:href="libbf_8c.html#a4a0919b7e170befaf75d114d48d350cc" target="_top" xlink:title="bf_asin_internal">
<polygon fill="none" stroke="#000000" points="221,-228.5 221,-247.5 316,-247.5 316,-228.5 221,-228.5"/>
<text text-anchor="middle" x="268.5" y="-235.5" font-family="Helvetica,sans-Serif" font-size="10.00" fill="#000000">bf_asin_internal</text>
</a>
</g>
</g>
<!-- Node4348&#45;&gt;Node4352 -->
<g id="edge4" class="edge">
<title>Node4348&#45;&gt;Node4352</title>
<path fill="none" stroke="#191970" d="M195.4203,-238C203.8816,-238 212.5069,-238 220.7262,-238"/>
<polygon fill="#191970" stroke="#191970" points="195.2191,-234.5001 185.2191,-238 195.219,-241.5001 195.2191,-234.5001"/>
</g>
<!-- Node4350 -->
<g id="node4" class="node">
<title>Node4350</title>
<g id="a_node4"><a xlink:href="libbf_8c.html#af760cf2a93bf130e8e44a62c7e7d0adf" target="_top" xlink:title="bf_atan2_internal">
<polygon fill="none" stroke="#ff0000" points="352,-266.5 352,-285.5 454,-285.5 454,-266.5 352,-266.5"/>
<text text-anchor="middle" x="403" y="-273.5" font-family="Helvetica,sans-Serif" font-size="10.00" fill="#000000">bf_atan2_internal</text>
</a>
</g>
</g>
<!-- Node4349&#45;&gt;Node4350 -->
<g id="edge3" class="edge">
<title>Node4349&#45;&gt;Node4350</title>
<path fill="none" stroke="#191970" d="M305.1102,-276C319.5478,-276 336.3818,-276 351.9775,-276"/>
<polygon fill="#191970" stroke="#191970" points="305.0729,-272.5001 295.0729,-276 305.0728,-279.5001 305.0729,-272.5001"/>
</g>
<!-- Node4353 -->
<g id="node6" class="node">
<title>Node4353</title>
<g id="a_node6"><a xlink:href="libbf_8h.html#a8ee86879e3da22442956f47356855edd" target="_top" xlink:title="bf_asin">
<polygon fill="none" stroke="#000000" points="377,-228.5 377,-247.5 429,-247.5 429,-228.5 377,-228.5"/>
<text text-anchor="middle" x="403" y="-235.5" font-family="Helvetica,sans-Serif" font-size="10.00" fill="#000000">bf_asin</text>
</a>
</g>
</g>
<!-- Node4352&#45;&gt;Node4353 -->
<g id="edge5" class="edge">
<title>Node4352&#45;&gt;Node4353</title>
<path fill="none" stroke="#191970" d="M326.506,-238C344.0742,-238 362.5004,-238 376.8652,-238"/>
<polygon fill="#191970" stroke="#191970" points="326.2984,-234.5001 316.2984,-238 326.2983,-241.5001 326.2984,-234.5001"/>
</g>
<!-- Node4354 -->
<g id="node7" class="node">
<title>Node4354</title>
<g id="a_node7"><a xlink:href="libbf_8h.html#a45cd74dd3a694c26e716762b7fd36955" target="_top" xlink:title="bf_acos">
<polygon fill="none" stroke="#000000" points="376,-190.5 376,-209.5 430,-209.5 430,-190.5 376,-190.5"/>
<text text-anchor="middle" x="403" y="-197.5" font-family="Helvetica,sans-Serif" font-size="10.00" fill="#000000">bf_acos</text>
</a>
</g>
</g>
<!-- Node4352&#45;&gt;Node4354 -->
<g id="edge6" class="edge">
<title>Node4352&#45;&gt;Node4354</title>
<path fill="none" stroke="#191970" d="M312.1023,-225.6811C333.0776,-219.755 357.5699,-212.8353 375.8426,-207.6727"/>
<polygon fill="#191970" stroke="#191970" points="311.1117,-222.3239 302.44,-228.411 313.015,-229.0602 311.1117,-222.3239"/>
</g>
<!-- Node4356 -->
<g id="node9" class="node">
<title>Node4356</title>
<g id="a_node9"><a xlink:href="libbf_8h.html#a36f22f93ba4258209be035a63b80b87f" target="_top" xlink:title="bf_exp">
<polygon fill="none" stroke="#000000" points="243.5,-190.5 243.5,-209.5 293.5,-209.5 293.5,-190.5 243.5,-190.5"/>
<text text-anchor="middle" x="268.5" y="-197.5" font-family="Helvetica,sans-Serif" font-size="10.00" fill="#000000">bf_exp</text>
</a>
</g>
</g>
<!-- Node4355&#45;&gt;Node4356 -->
<g id="edge8" class="edge">
<title>Node4355&#45;&gt;Node4356</title>
<path fill="none" stroke="#191970" d="M179.8301,-174.3768C200.7817,-180.4312 225.2823,-187.5112 243.2136,-192.6929"/>
<polygon fill="#191970" stroke="#191970" points="180.7616,-171.0028 170.183,-171.589 178.8183,-177.7276 180.7616,-171.0028"/>
</g>
<!-- Node4357 -->
<g id="node10" class="node">
<title>Node4357</title>
<g id="a_node10"><a xlink:href="libbf_8c.html#aa28c1603087e2aec25b9bb0dae387875" target="_top" xlink:title="bf_pow_generic">
<polygon fill="none" stroke="#000000" points="356.5,-152.5 356.5,-171.5 449.5,-171.5 449.5,-152.5 356.5,-152.5"/>
<text text-anchor="middle" x="403" y="-159.5" font-family="Helvetica,sans-Serif" font-size="10.00" fill="#000000">bf_pow_generic</text>
</a>
</g>
</g>
<!-- Node4355&#45;&gt;Node4357 -->
<g id="edge9" class="edge">
<title>Node4355&#45;&gt;Node4357</title>
<path fill="none" stroke="#191970" d="M193.0343,-162C241.4689,-162 310.6667,-162 356.194,-162"/>
<polygon fill="#191970" stroke="#191970" points="193.03,-158.5001 183.03,-162 193.03,-165.5001 193.03,-158.5001"/>
</g>
<!-- Node4358 -->
<g id="node11" class="node">
<title>Node4358</title>
<g id="a_node11"><a xlink:href="libbf_8h.html#a93fe073491f8c5f086a75e7bf8865b34" target="_top" xlink:title="bf_pow">
<polygon fill="none" stroke="#000000" points="490,-133.5 490,-152.5 542,-152.5 542,-133.5 490,-133.5"/>
<text text-anchor="middle" x="516" y="-140.5" font-family="Helvetica,sans-Serif" font-size="10.00" fill="#000000">bf_pow</text>
</a>
</g>
</g>
<!-- Node4357&#45;&gt;Node4358 -->
<g id="edge10" class="edge">
<title>Node4357&#45;&gt;Node4358</title>
<path fill="none" stroke="#191970" d="M459.6901,-152.468C470.2472,-150.693 480.7954,-148.9194 489.8604,-147.3952"/>
<polygon fill="#191970" stroke="#191970" points="458.895,-149.0525 449.6138,-154.1623 460.0558,-155.9556 458.895,-149.0525"/>
</g>
<!-- Node4360 -->
<g id="node13" class="node">
<title>Node4360</title>
<g id="a_node13"><a xlink:href="libbf_8h.html#a4137b2308536cbc92addaeb3f0c79d35" target="_top" xlink:title="bf_log">
<polygon fill="none" stroke="#000000" points="245,-114.5 245,-133.5 292,-133.5 292,-114.5 245,-114.5"/>
<text text-anchor="middle" x="268.5" y="-121.5" font-family="Helvetica,sans-Serif" font-size="10.00" fill="#000000">bf_log</text>
</a>
</g>
</g>
<!-- Node4359&#45;&gt;Node4360 -->
<g id="edge12" class="edge">
<title>Node4359&#45;&gt;Node4360</title>
<path fill="none" stroke="#191970" d="M191.641,-124C210.1529,-124 229.8746,-124 244.7054,-124"/>
<polygon fill="#191970" stroke="#191970" points="191.5199,-120.5001 181.5199,-124 191.5199,-127.5001 191.5199,-120.5001"/>
</g>
<!-- Node4360&#45;&gt;Node4357 -->
<g id="edge13" class="edge">
<title>Node4360&#45;&gt;Node4357</title>
<path fill="none" stroke="#191970" d="M302.0785,-133.4868C322.5511,-139.2709 348.6347,-146.6403 369.1556,-152.438"/>
<polygon fill="#191970" stroke="#191970" points="302.8112,-130.0569 292.2363,-130.7062 300.908,-136.7932 302.8112,-130.0569"/>
</g>
<!-- Node4360&#45;&gt;Node4358 -->
<g id="edge14" class="edge">
<title>Node4360&#45;&gt;Node4358</title>
<path fill="none" stroke="#191970" d="M302.5117,-126.611C352.4712,-130.4463 444.6411,-137.5219 489.7475,-140.9847"/>
<polygon fill="#191970" stroke="#191970" points="302.4699,-123.0976 292.2313,-125.8218 301.9341,-130.077 302.4699,-123.0976"/>
</g>
<!-- Node4362 -->
<g id="node15" class="node">
<title>Node4362</title>
<g id="a_node15"><a xlink:href="libbf_8c.html#a525aef36dca12b641b625b99bb853dc4" target="_top" xlink:title="bf_cos_internal">
<polygon fill="none" stroke="#000000" points="223,-76.5 223,-95.5 314,-95.5 314,-76.5 223,-76.5"/>
<text text-anchor="middle" x="268.5" y="-83.5" font-family="Helvetica,sans-Serif" font-size="10.00" fill="#000000">bf_cos_internal</text>
</a>
</g>
</g>
<!-- Node4361&#45;&gt;Node4362 -->
<g id="edge16" class="edge">
<title>Node4361&#45;&gt;Node4362</title>
<path fill="none" stroke="#191970" d="M178.1405,-72.9443C192.3402,-74.9959 208.3293,-77.3061 222.8666,-79.4066"/>
<polygon fill="#191970" stroke="#191970" points="178.5614,-69.4688 168.1637,-71.5027 177.5604,-76.3969 178.5614,-69.4688"/>
</g>
<!-- Node4364 -->
<g id="node17" class="node">
<title>Node4364</title>
<g id="a_node17"><a xlink:href="libbf_8c.html#a988e995c3b0dbcc6a26b8eea2891b2e2" target="_top" xlink:title="bf_sin_internal">
<polygon fill="none" stroke="#000000" points="224,-38.5 224,-57.5 313,-57.5 313,-38.5 224,-38.5"/>
<text text-anchor="middle" x="268.5" y="-45.5" font-family="Helvetica,sans-Serif" font-size="10.00" fill="#000000">bf_sin_internal</text>
</a>
</g>
</g>
<!-- Node4361&#45;&gt;Node4364 -->
<g id="edge18" class="edge">
<title>Node4361&#45;&gt;Node4364</title>
<path fill="none" stroke="#191970" d="M178.333,-61.0279C192.8132,-58.9357 209.135,-56.5775 223.8726,-54.4481"/>
<polygon fill="#191970" stroke="#191970" points="177.5604,-57.6031 168.1637,-62.4973 178.5614,-64.5312 177.5604,-57.6031"/>
</g>
<!-- Node4366 -->
<g id="node19" class="node">
<title>Node4366</title>
<g id="a_node19"><a xlink:href="libbf_8c.html#a524a1cfe269d6d10ba833368695f8699" target="_top" xlink:title="bf_tan_internal">
<polygon fill="none" stroke="#000000" points="223.5,-.5 223.5,-19.5 313.5,-19.5 313.5,-.5 223.5,-.5"/>
<text text-anchor="middle" x="268.5" y="-7.5" font-family="Helvetica,sans-Serif" font-size="10.00" fill="#000000">bf_tan_internal</text>
</a>
</g>
</g>
<!-- Node4361&#45;&gt;Node4366 -->
<g id="edge20" class="edge">
<title>Node4361&#45;&gt;Node4366</title>
<path fill="none" stroke="#191970" d="M166.9638,-53.056C182.9311,-45.7242 202.9515,-36.6876 221,-29 228.3543,-25.8675 236.4084,-22.5892 243.7613,-19.6548"/>
<polygon fill="#191970" stroke="#191970" points="165.2153,-50.008 157.5995,-57.3735 168.1463,-56.3649 165.2153,-50.008"/>
</g>
<!-- Node4363 -->
<g id="node16" class="node">
<title>Node4363</title>
<g id="a_node16"><a xlink:href="libbf_8h.html#a69ea68a6b21d496bd89afeaa9c067ebe" target="_top" xlink:title="bf_cos">
<polygon fill="none" stroke="#000000" points="379,-76.5 379,-95.5 427,-95.5 427,-76.5 379,-76.5"/>
<text text-anchor="middle" x="403" y="-83.5" font-family="Helvetica,sans-Serif" font-size="10.00" fill="#000000">bf_cos</text>
</a>
</g>
</g>
<!-- Node4362&#45;&gt;Node4363 -->
<g id="edge17" class="edge">
<title>Node4362&#45;&gt;Node4363</title>
<path fill="none" stroke="#191970" d="M324.1247,-86C343.1349,-86 363.4232,-86 378.6625,-86"/>
<polygon fill="#191970" stroke="#191970" points="324.0356,-82.5001 314.0356,-86 324.0355,-89.5001 324.0356,-82.5001"/>
</g>
<!-- Node4365 -->
<g id="node18" class="node">
<title>Node4365</title>
<g id="a_node18"><a xlink:href="libbf_8h.html#a9a518cd74072443dc50e179d2a9ea610" target="_top" xlink:title="bf_sin">
<polygon fill="none" stroke="#000000" points="380,-38.5 380,-57.5 426,-57.5 426,-38.5 380,-38.5"/>
<text text-anchor="middle" x="403" y="-45.5" font-family="Helvetica,sans-Serif" font-size="10.00" fill="#000000">bf_sin</text>
</a>
</g>
</g>
<!-- Node4364&#45;&gt;Node4365 -->
<g id="edge19" class="edge">
<title>Node4364&#45;&gt;Node4365</title>
<path fill="none" stroke="#191970" d="M323.4321,-48C343.1604,-48 364.3531,-48 379.9025,-48"/>
<polygon fill="#191970" stroke="#191970" points="323.2866,-44.5001 313.2866,-48 323.2865,-51.5001 323.2866,-44.5001"/>
</g>
<!-- Node4367 -->
<g id="node20" class="node">
<title>Node4367</title>
<g id="a_node20"><a xlink:href="libbf_8h.html#a3291f57ed40cdf116203afa57f73e91e" target="_top" xlink:title="bf_tan">
<polygon fill="none" stroke="#000000" points="379.5,-.5 379.5,-19.5 426.5,-19.5 426.5,-.5 379.5,-.5"/>
<text text-anchor="middle" x="403" y="-7.5" font-family="Helvetica,sans-Serif" font-size="10.00" fill="#000000">bf_tan</text>
</a>
</g>
</g>
<!-- Node4366&#45;&gt;Node4367 -->
<g id="edge21" class="edge">
<title>Node4366&#45;&gt;Node4367</title>
<path fill="none" stroke="#191970" d="M323.9137,-10C343.2436,-10 363.9208,-10 379.283,-10"/>
<polygon fill="#191970" stroke="#191970" points="323.6607,-6.5001 313.6607,-10 323.6607,-13.5001 323.6607,-6.5001"/>
</g>
</g>
</svg>
        <g id="navigator" transform="translate(0 0)" fill="#404254">
                <rect fill="#f2f5e9" fill-opacity="0.5" stroke="#606060" stroke-width=".5" x="0" y="0" width="60" height="60"/>
                <use id="zoomplus" xlink:href="#zoomPlus" x="17" y="9" onmousedown="handleZoom(evt,'in')"/>
                <use id="zoomminus" xlink:href="#zoomMin" x="42" y="9" onmousedown="handleZoom(evt,'out')"/>
                <use id="reset" xlink:href="#resetDef" x="30" y="36" onmousedown="handleReset()"/>
                <g id="arrowUp" xlink:href="#dirArrow" transform="translate(30 24)" onmousedown="handlePan(0,-1)">
                  <use xlink:href="#rim" fill="#404040">
                        <set attributeName="fill" to="#808080" begin="arrowUp.mouseover" end="arrowUp.mouseout"/>
                  </use>
                  <path fill="none" stroke="white" stroke-width="1.5" d="M0,-3.0v7 M-2.5,-0.5L0,-3.0L2.5,-0.5"/>
                </g>
                <g id="arrowRight" xlink:href="#dirArrow" transform="rotate(90) translate(36 -43)" onmousedown="handlePan(1,0)">
                  <use xlink:href="#rim" fill="#404040">
                        <set attributeName="fill" to="#808080" begin="arrowRight.mouseover" end="arrowRight.mouseout"/>
                  </use>
                  <path fill="none" stroke="white" stroke-width="1.5" d="M0,-3.0v7 M-2.5,-0.5L0,-3.0L2.5,-0.5"/>
                </g>
                <g id="arrowDown" xlink:href="#dirArrow" transform="rotate(180) translate(-30 -48)" onmousedown="handlePan(0,1)">
                  <use xlink:href="#rim" fill="#404040">
                        <set attributeName="fill" to="#808080" begin="arrowDown.mouseover" end="arrowDown.mouseout"/>
                  </use>
                  <path fill="none" stroke="white" stroke-width="1.5" d="M0,-3.0v7 M-2.5,-0.5L0,-3.0L2.5,-0.5"/>
                </g>
                <g id="arrowLeft" xlink:href="#dirArrow" transform="rotate(270) translate(-36 17)" onmousedown="handlePan(-1,0)">
                  <use xlink:href="#rim" fill="#404040">
                        <set attributeName="fill" to="#808080" begin="arrowLeft.mouseover" end="arrowLeft.mouseout"/>
                  </use>
                  <path fill="none" stroke="white" stroke-width="1.5" d="M0,-3.0v7 M-2.5,-0.5L0,-3.0L2.5,-0.5"/>
                </g>
        </g>
        <svg viewBox="0 0 15 15" width="100%" height="30px" preserveAspectRatio="xMaxYMin meet">
         <g id="arrow_out" transform="scale(0.3 0.3)">
          <a xlink:href="libbf_8c_adeb14e044b992b09438bbd872831103b_icgraph_org.svg" target="_base">
           <rect id="button" ry="5" rx="5" y="6" x="6" height="38" width="38"
                fill="#f2f5e9" fill-opacity="0.5" stroke="#606060" stroke-width="1.0"/>
           <path id="arrow"
             d="M 11.500037,31.436501 C 11.940474,20.09759 22.043105,11.32322 32.158766,21.979434 L 37.068811,17.246167 C 37.068811,17.246167 37.088388,32 37.088388,32 L 22.160133,31.978069 C 22.160133,31.978069 26.997745,27.140456 26.997745,27.140456 C 18.528582,18.264221 13.291696,25.230495 11.500037,31.436501 z"
             style="fill:#404040;"/>
          </a>
         </g>
        </svg>
</svg>
