<?xml version="1.0" encoding="UTF-8" standalone="no"?>
<!DOCTYPE svg PUBLIC "-//W3C//DTD SVG 1.1//EN"
 "http://www.w3.org/Graphics/SVG/1.1/DTD/svg11.dtd">
<!-- Generated by graphviz version 2.40.1 (20161225.0304)
 -->
<!-- Title: mp_sub_mul1_dec Pages: 1 -->
<svg width="515pt" height="84pt"
 viewBox="0.00 0.00 515.00 84.00" xmlns="http://www.w3.org/2000/svg" xmlns:xlink="http://www.w3.org/1999/xlink">
<g id="graph0" class="graph" transform="scale(1 1) rotate(0) translate(4 80)">
<title>mp_sub_mul1_dec</title>
<!-- Node10235 -->
<g id="node1" class="node">
<title>Node10235</title>
<polygon fill="#bfbfbf" stroke="#000000" points="0,-19.5 0,-38.5 107,-38.5 107,-19.5 0,-19.5"/>
<text text-anchor="middle" x="53.5" y="-26.5" font-family="Helvetica,sans-Serif" font-size="10.00" fill="#000000">mp_sub_mul1_dec</text>
</g>
<!-- Node10236 -->
<g id="node2" class="node">
<title>Node10236</title>
<g id="a_node2"><a xlink:href="libbf_8c.html#a073a4541c0bf7be12ff100d2a0330294" target="_top" xlink:title="mp_div_dec">
<polygon fill="none" stroke="#000000" points="143,-19.5 143,-38.5 218,-38.5 218,-19.5 143,-19.5"/>
<text text-anchor="middle" x="180.5" y="-26.5" font-family="Helvetica,sans-Serif" font-size="10.00" fill="#000000">mp_div_dec</text>
</a>
</g>
</g>
<!-- Node10235&#45;&gt;Node10236 -->
<g id="edge1" class="edge">
<title>Node10235&#45;&gt;Node10236</title>
<path fill="none" stroke="#191970" d="M117.4702,-29C126.1111,-29 134.7405,-29 142.7182,-29"/>
<polygon fill="#191970" stroke="#191970" points="117.3595,-25.5001 107.3594,-29 117.3594,-32.5001 117.3595,-25.5001"/>
</g>
<!-- Node10237 -->
<g id="node3" class="node">
<title>Node10237</title>
<g id="a_node3"><a xlink:href="libbf_8c.html#ae758f9e5665601c800cc431c03a696f5" target="_top" xlink:title="mp_sqrtrem_rec_dec">
<polygon fill="none" stroke="#000000" points="254,-38.5 254,-57.5 373,-57.5 373,-38.5 254,-38.5"/>
<text text-anchor="middle" x="313.5" y="-45.5" font-family="Helvetica,sans-Serif" font-size="10.00" fill="#000000">mp_sqrtrem_rec_dec</text>
</a>
</g>
</g>
<!-- Node10236&#45;&gt;Node10237 -->
<g id="edge2" class="edge">
<title>Node10236&#45;&gt;Node10237</title>
<path fill="none" stroke="#191970" d="M228.4111,-35.8444C236.6351,-37.0193 245.2717,-38.2531 253.7597,-39.4657"/>
<polygon fill="#191970" stroke="#191970" points="228.6512,-32.3433 218.2567,-34.3938 227.6612,-39.2729 228.6512,-32.3433"/>
</g>
<!-- Node10240 -->
<g id="node5" class="node">
<title>Node10240</title>
<g id="a_node5"><a xlink:href="libbf_8c.html#ab0fc8c7b5ee65f945fae1794494865f1" target="_top" xlink:title="__bfdec_div">
<polygon fill="none" stroke="#000000" points="276.5,-.5 276.5,-19.5 350.5,-19.5 350.5,-.5 276.5,-.5"/>
<text text-anchor="middle" x="313.5" y="-7.5" font-family="Helvetica,sans-Serif" font-size="10.00" fill="#000000">__bfdec_div</text>
</a>
</g>
</g>
<!-- Node10236&#45;&gt;Node10240 -->
<g id="edge5" class="edge">
<title>Node10236&#45;&gt;Node10240</title>
<path fill="none" stroke="#191970" d="M228.3273,-22.1675C244.0467,-19.9219 261.2809,-17.4599 276.1092,-15.3415"/>
<polygon fill="#191970" stroke="#191970" points="227.6612,-18.7271 218.2567,-23.6062 228.6512,-25.6567 227.6612,-18.7271"/>
</g>
<!-- Node10237&#45;&gt;Node10237 -->
<g id="edge3" class="edge">
<title>Node10237&#45;&gt;Node10237</title>
<path fill="none" stroke="#191970" d="M288.9465,-67.0292C290.2858,-72.128 298.4703,-76 313.5,-76 336.9609,-76 343.7426,-66.5653 333.845,-57.7571"/>
<polygon fill="#191970" stroke="#191970" points="292.209,-68.3096 293.155,-57.7571 285.8348,-65.4164 292.209,-68.3096"/>
</g>
<!-- Node10238 -->
<g id="node4" class="node">
<title>Node10238</title>
<g id="a_node4"><a xlink:href="libbf_8c.html#a4cb0365d02fe07e3b81ef1fbc5a0eacd" target="_top" xlink:title="mp_sqrtrem_dec">
<polygon fill="none" stroke="#ff0000" points="409,-38.5 409,-57.5 507,-57.5 507,-38.5 409,-38.5"/>
<text text-anchor="middle" x="458" y="-45.5" font-family="Helvetica,sans-Serif" font-size="10.00" fill="#000000">mp_sqrtrem_dec</text>
</a>
</g>
</g>
<!-- Node10237&#45;&gt;Node10238 -->
<g id="edge4" class="edge">
<title>Node10237&#45;&gt;Node10238</title>
<path fill="none" stroke="#191970" d="M383.1596,-48C391.7663,-48 400.4221,-48 408.6376,-48"/>
<polygon fill="#191970" stroke="#191970" points="383.108,-44.5001 373.1079,-48 383.1079,-51.5001 383.108,-44.5001"/>
</g>
<!-- Node10241 -->
<g id="node6" class="node">
<title>Node10241</title>
<g id="a_node6"><a xlink:href="libbf_8h.html#a10de87f3c9d3dc623ca131eaa468dd1b" target="_top" xlink:title="bfdec_div">
<polygon fill="none" stroke="#ff0000" points="426,-.5 426,-19.5 490,-19.5 490,-.5 426,-.5"/>
<text text-anchor="middle" x="458" y="-7.5" font-family="Helvetica,sans-Serif" font-size="10.00" fill="#000000">bfdec_div</text>
</a>
</g>
</g>
<!-- Node10240&#45;&gt;Node10241 -->
<g id="edge6" class="edge">
<title>Node10240&#45;&gt;Node10241</title>
<path fill="none" stroke="#191970" d="M360.8601,-10C382.1469,-10 406.7175,-10 425.8214,-10"/>
<polygon fill="#191970" stroke="#191970" points="360.7124,-6.5001 350.7123,-10 360.7123,-13.5001 360.7124,-6.5001"/>
</g>
</g>
</svg>
