<?xml version="1.0" encoding="UTF-8" standalone="no"?>
<!DOCTYPE svg PUBLIC "-//W3C//DTD SVG 1.1//EN"
 "http://www.w3.org/Graphics/SVG/1.1/DTD/svg11.dtd">
<!-- Generated by graphviz version 2.40.1 (20161225.0304)
 -->
<!-- Title: bf_integer_to_radix_rec Pages: 1 -->
<svg width="532pt" height="46pt"
 viewBox="0.00 0.00 532.00 46.00" xmlns="http://www.w3.org/2000/svg" xmlns:xlink="http://www.w3.org/1999/xlink">
<g id="graph0" class="graph" transform="scale(1 1) rotate(0) translate(4 42)">
<title>bf_integer_to_radix_rec</title>
<!-- Node6315 -->
<g id="node1" class="node">
<title>Node6315</title>
<polygon fill="#bfbfbf" stroke="#000000" points="0,-.5 0,-19.5 131,-19.5 131,-.5 0,-.5"/>
<text text-anchor="middle" x="65.5" y="-7.5" font-family="Helvetica,sans-Serif" font-size="10.00" fill="#000000">bf_integer_to_radix_rec</text>
</g>
<!-- Node6315&#45;&gt;Node6315 -->
<g id="edge4" class="edge">
<title>Node6315&#45;&gt;Node6315</title>
<path fill="none" stroke="#191970" d="M36.3809,-28.6539C37.5981,-33.9368 47.3044,-38 65.5,-38 93.2266,-38 101.2413,-28.5653 89.5441,-19.7571"/>
<polygon fill="#191970" stroke="#191970" points="39.5412,-30.1775 41.4559,-19.7571 33.4609,-26.7091 39.5412,-30.1775"/>
</g>
<!-- Node6316 -->
<g id="node2" class="node">
<title>Node6316</title>
<g id="a_node2"><a xlink:href="libbf_8c.html#a1b9b6240cdee780a8968560c8655d9f2" target="_top" xlink:title="bf_integer_to_radix">
<polygon fill="none" stroke="#000000" points="167,-.5 167,-19.5 278,-19.5 278,-.5 167,-.5"/>
<text text-anchor="middle" x="222.5" y="-7.5" font-family="Helvetica,sans-Serif" font-size="10.00" fill="#000000">bf_integer_to_radix</text>
</a>
</g>
</g>
<!-- Node6315&#45;&gt;Node6316 -->
<g id="edge1" class="edge">
<title>Node6315&#45;&gt;Node6316</title>
<path fill="none" stroke="#191970" d="M141.4465,-10C149.9071,-10 158.4073,-10 166.5535,-10"/>
<polygon fill="#191970" stroke="#191970" points="141.1725,-6.5001 131.1725,-10 141.1724,-13.5001 141.1725,-6.5001"/>
</g>
<!-- Node6317 -->
<g id="node3" class="node">
<title>Node6317</title>
<g id="a_node3"><a xlink:href="libbf_8c.html#ae598665f1f567f67350a972a972ef86a" target="_top" xlink:title="output_digits">
<polygon fill="none" stroke="#000000" points="314,-.5 314,-19.5 394,-19.5 394,-.5 314,-.5"/>
<text text-anchor="middle" x="354" y="-7.5" font-family="Helvetica,sans-Serif" font-size="10.00" fill="#000000">output_digits</text>
</a>
</g>
</g>
<!-- Node6316&#45;&gt;Node6317 -->
<g id="edge2" class="edge">
<title>Node6316&#45;&gt;Node6317</title>
<path fill="none" stroke="#191970" d="M288.3788,-10C297.0211,-10 305.6605,-10 313.6996,-10"/>
<polygon fill="#191970" stroke="#191970" points="288.2679,-6.5001 278.2678,-10 288.2678,-13.5001 288.2679,-6.5001"/>
</g>
<!-- Node6318 -->
<g id="node4" class="node">
<title>Node6318</title>
<g id="a_node4"><a xlink:href="libbf_8c.html#ad79aefc435021a0743c89cb4aec7fa56" target="_top" xlink:title="bf_ftoa_internal">
<polygon fill="none" stroke="#ff0000" points="430,-.5 430,-19.5 524,-19.5 524,-.5 430,-.5"/>
<text text-anchor="middle" x="477" y="-7.5" font-family="Helvetica,sans-Serif" font-size="10.00" fill="#000000">bf_ftoa_internal</text>
</a>
</g>
</g>
<!-- Node6317&#45;&gt;Node6318 -->
<g id="edge3" class="edge">
<title>Node6317&#45;&gt;Node6318</title>
<path fill="none" stroke="#191970" d="M404.3488,-10C412.7611,-10 421.4613,-10 429.7913,-10"/>
<polygon fill="#191970" stroke="#191970" points="404.2748,-6.5001 394.2748,-10 404.2748,-13.5001 404.2748,-6.5001"/>
</g>
</g>
</svg>
