<?xml version="1.0" encoding="UTF-8" standalone="no"?>
<!DOCTYPE svg PUBLIC "-//W3C//DTD SVG 1.1//EN"
 "http://www.w3.org/Graphics/SVG/1.1/DTD/svg11.dtd">
<!-- Generated by graphviz version 2.40.1 (20161225.0304)
 -->
<!-- Title: bf_acos Pages: 1 -->
<!--zoomable 854 -->
<svg id="main" version="1.1" xmlns="http://www.w3.org/2000/svg" xmlns:xlink="http://www.w3.org/1999/xlink" xml:space="preserve" onload="init(evt)">
<style type="text/css"><![CDATA[
.edge:hover path { stroke: red; }
.edge:hover polygon { stroke: red; fill: red; }
]]></style>
<script type="text/javascript"><![CDATA[
var edges = document.getElementsByTagName('g');
if (edges && edges.length) {
  for (var i=0;i<edges.length;i++) {
    if (edges[i].id.substr(0,4)=='edge') {
      edges[i].setAttribute('class','edge');
    }
  }
}
]]></script>
        <defs>
                <circle id="rim" cx="0" cy="0" r="7"/>
                <circle id="rim2" cx="0" cy="0" r="3.5"/>
                <g id="zoomPlus">
                        <use xlink:href="#rim" fill="#404040">
                                <set attributeName="fill" to="#808080" begin="zoomplus.mouseover" end="zoomplus.mouseout"/>
                        </use>
                        <path d="M-4,0h8M0,-4v8" fill="none" stroke="white" stroke-width="1.5" pointer-events="none"/>
                </g>
                <g id="zoomMin">
                        <use xlink:href="#rim" fill="#404040">
                                <set attributeName="fill" to="#808080" begin="zoomminus.mouseover" end="zoomminus.mouseout"/>
                        </use>
                        <path d="M-4,0h8" fill="none" stroke="white" stroke-width="1.5" pointer-events="none"/>
                </g>
                <g id="dirArrow">
                        <path fill="none" stroke="white" stroke-width="1.5" d="M0,-3.0v7 M-2.5,-0.5L0,-3.0L2.5,-0.5"/>
                </g>
               <g id="resetDef">
                       <use xlink:href="#rim2" fill="#404040">
                               <set attributeName="fill" to="#808080" begin="reset.mouseover" end="reset.mouseout"/>
                       </use>
               </g>
        </defs>

<script type="text/javascript">
var viewWidth = 762;
var viewHeight = 854;
var sectionId = 'dynsection-246';
</script>
<script xlink:href="svgpan.js"/>
<svg id="graph" class="graph">
<g id="viewport">
<title>bf_acos</title>
<!-- Node9953 -->
<g id="node1" class="node">
<title>Node9953</title>
<polygon fill="#bfbfbf" stroke="#000000" points="0,-171.5 0,-190.5 54,-190.5 54,-171.5 0,-171.5"/>
<text text-anchor="middle" x="27" y="-178.5" font-family="Helvetica,sans-Serif" font-size="10.00" fill="#000000">bf_acos</text>
</g>
<!-- Node9954 -->
<g id="node2" class="node">
<title>Node9954</title>
<g id="a_node2"><a xlink:href="libbf_8c.html#a4a0919b7e170befaf75d114d48d350cc" target="_top" xlink:title="bf_asin_internal">
<polygon fill="none" stroke="#000000" points="90,-475.5 90,-494.5 185,-494.5 185,-475.5 90,-475.5"/>
<text text-anchor="middle" x="137.5" y="-482.5" font-family="Helvetica,sans-Serif" font-size="10.00" fill="#000000">bf_asin_internal</text>
</a>
</g>
</g>
<!-- Node9953&#45;&gt;Node9954 -->
<g id="edge1" class="edge">
<title>Node9953&#45;&gt;Node9954</title>
<path fill="none" stroke="#191970" d="M30.5514,-190.7703C46.2355,-233.9195 109.4508,-407.833 130.582,-465.9676"/>
<polygon fill="#191970" stroke="#191970" points="127.3113,-467.215 134.0169,-475.4177 133.8901,-464.8236 127.3113,-467.215"/>
</g>
<!-- Node9956 -->
<g id="node4" class="node">
<title>Node9956</title>
<g id="a_node4"><a xlink:href="libbf_8h.html#abacc1410890af049e02ebd788364ac48" target="_top" xlink:title="bf_init">
<polygon fill="none" stroke="#000000" points="480.5,-646.5 480.5,-665.5 527.5,-665.5 527.5,-646.5 480.5,-646.5"/>
<text text-anchor="middle" x="504" y="-653.5" font-family="Helvetica,sans-Serif" font-size="10.00" fill="#000000">bf_init</text>
</a>
</g>
</g>
<!-- Node9953&#45;&gt;Node9956 -->
<g id="edge41" class="edge">
<title>Node9953&#45;&gt;Node9956</title>
<path fill="none" stroke="#191970" d="M27.2567,-190.7471C28.6512,-231.1727 37.3715,-388.9127 90,-504 129.2306,-589.7888 146.8331,-612.7074 221,-671 297.9894,-731.5109 343.0525,-769.709 433,-731 459.6472,-719.5323 480.9722,-692.6016 493.0582,-674.3345"/>
<polygon fill="#191970" stroke="#191970" points="496.1317,-676.0226 498.5155,-665.6995 490.2144,-672.2829 496.1317,-676.0226"/>
</g>
<!-- Node9958 -->
<g id="node6" class="node">
<title>Node9958</title>
<g id="a_node6"><a xlink:href="libbf_8h.html#a2378f025beace5741c19bf995c2971d3" target="_top" xlink:title="bf_set_ui">
<polygon fill="none" stroke="#ff0000" points="581,-513.5 581,-532.5 642,-532.5 642,-513.5 581,-513.5"/>
<text text-anchor="middle" x="611.5" y="-520.5" font-family="Helvetica,sans-Serif" font-size="10.00" fill="#000000">bf_set_ui</text>
</a>
</g>
</g>
<!-- Node9953&#45;&gt;Node9958 -->
<g id="edge44" class="edge">
<title>Node9953&#45;&gt;Node9958</title>
<path fill="none" stroke="#191970" d="M54.1647,-177.4708C98.8781,-171.9761 190.8244,-162 269,-162 269,-162 269,-162 393,-162 553.9666,-162 599.5814,-427.9312 609.2774,-503.3046"/>
<polygon fill="#191970" stroke="#191970" points="605.8165,-503.8394 610.4974,-513.3441 612.7654,-502.9949 605.8165,-503.8394"/>
</g>
<!-- Node9962 -->
<g id="node7" class="node">
<title>Node9962</title>
<g id="a_node7"><a xlink:href="libbf_8h.html#aa6282c789c16c8cf2fe6a8ebd671c6fc" target="_top" xlink:title="bf_set_nan">
<polygon fill="none" stroke="#ff0000" points="684,-722.5 684,-741.5 754,-741.5 754,-722.5 684,-722.5"/>
<text text-anchor="middle" x="719" y="-729.5" font-family="Helvetica,sans-Serif" font-size="10.00" fill="#000000">bf_set_nan</text>
</a>
</g>
</g>
<!-- Node9953&#45;&gt;Node9962 -->
<g id="edge43" class="edge">
<title>Node9953&#45;&gt;Node9962</title>
<path fill="none" stroke="#191970" d="M27.9152,-190.6819C33.119,-244.8003 59.8168,-510.1294 90,-586 141.859,-716.3565 128.7068,-846 269,-846 269,-846 269,-846 504,-846 586.1378,-846 667.5176,-780.2523 701.919,-748.6185"/>
<polygon fill="#191970" stroke="#191970" points="704.3709,-751.1173 709.2631,-741.7196 699.5782,-746.0153 704.3709,-751.1173"/>
</g>
<!-- Node9987 -->
<g id="node9" class="node">
<title>Node9987</title>
<g id="a_node9"><a xlink:href="libbf_8h.html#a2b9d906b21e903f2f7f1c9044674ab7d" target="_top" xlink:title="bf_delete">
<polygon fill="none" stroke="#ff0000" points="473,-285.5 473,-304.5 535,-304.5 535,-285.5 473,-285.5"/>
<text text-anchor="middle" x="504" y="-292.5" font-family="Helvetica,sans-Serif" font-size="10.00" fill="#000000">bf_delete</text>
</a>
</g>
</g>
<!-- Node9953&#45;&gt;Node9987 -->
<g id="edge40" class="edge">
<title>Node9953&#45;&gt;Node9987</title>
<path fill="none" stroke="#191970" d="M54.2415,-181.091C121.2481,-182.1931 298.4166,-190.4713 433,-245 452.6712,-252.9701 472.1787,-267.2952 485.7537,-278.5755"/>
<polygon fill="#191970" stroke="#191970" points="483.5181,-281.2691 493.3877,-285.1215 488.0747,-275.9551 483.5181,-281.2691"/>
</g>
<!-- Node9989 -->
<g id="node11" class="node">
<title>Node9989</title>
<g id="a_node11"><a xlink:href="libbf_8h.html#aff86bca731f3c8ffe45f0f1129175961" target="_top" xlink:title="bf_const_pi">
<polygon fill="none" stroke="#ff0000" points="357,-266.5 357,-285.5 429,-285.5 429,-266.5 357,-266.5"/>
<text text-anchor="middle" x="393" y="-273.5" font-family="Helvetica,sans-Serif" font-size="10.00" fill="#000000">bf_const_pi</text>
</a>
</g>
</g>
<!-- Node9953&#45;&gt;Node9989 -->
<g id="edge39" class="edge">
<title>Node9953&#45;&gt;Node9989</title>
<path fill="none" stroke="#191970" d="M42.2387,-190.5409C54.6671,-197.9329 72.9019,-207.9099 90,-214 177.9799,-245.3371 286.283,-262.7125 346.677,-270.632"/>
<polygon fill="#191970" stroke="#191970" points="346.3005,-274.1123 356.6644,-271.9124 347.1907,-267.1691 346.3005,-274.1123"/>
</g>
<!-- Node9983 -->
<g id="node15" class="node">
<title>Node9983</title>
<g id="a_node15"><a xlink:href="libbf_8h.html#a66631c65c00e92a5840a5085a009602d" target="_top" xlink:title="bf_set_zero">
<polygon fill="none" stroke="#ff0000" points="575,-95.5 575,-114.5 648,-114.5 648,-95.5 575,-95.5"/>
<text text-anchor="middle" x="611.5" y="-102.5" font-family="Helvetica,sans-Serif" font-size="10.00" fill="#000000">bf_set_zero</text>
</a>
</g>
</g>
<!-- Node9953&#45;&gt;Node9983 -->
<g id="edge45" class="edge">
<title>Node9953&#45;&gt;Node9983</title>
<path fill="none" stroke="#191970" d="M30.2034,-171.2377C37.3819,-151.0082 56.7832,-104.5249 90,-82 157.0215,-36.5516 188.022,-48 269,-48 269,-48 269,-48 393,-48 461.777,-48 538.9029,-74.7689 580.6351,-91.6175"/>
<polygon fill="#191970" stroke="#191970" points="579.3876,-94.8888 589.967,-95.4595 582.0525,-88.4159 579.3876,-94.8888"/>
</g>
<!-- Node10048 -->
<g id="node16" class="node">
<title>Node10048</title>
<g id="a_node16"><a xlink:href="libbf_8h.html#ae1d5fe9356228cc3a566786637f26680" target="_top" xlink:title="bf_mul_2exp">
<polygon fill="none" stroke="#ff0000" points="353,-114.5 353,-133.5 433,-133.5 433,-114.5 353,-114.5"/>
<text text-anchor="middle" x="393" y="-121.5" font-family="Helvetica,sans-Serif" font-size="10.00" fill="#000000">bf_mul_2exp</text>
</a>
</g>
</g>
<!-- Node9953&#45;&gt;Node10048 -->
<g id="edge42" class="edge">
<title>Node9953&#45;&gt;Node10048</title>
<path fill="none" stroke="#191970" d="M41.3059,-171.3517C53.6338,-163.5797 72.2045,-153.1322 90,-148 176.2735,-123.119 281.722,-120.7105 342.7406,-121.8929"/>
<polygon fill="#191970" stroke="#191970" points="342.7929,-125.395 352.8722,-122.1306 342.9571,-118.397 342.7929,-125.395"/>
</g>
<!-- Node9970 -->
<g id="node21" class="node">
<title>Node9970</title>
<g id="a_node21"><a xlink:href="libbf_8h.html#a165ae2c6d3fee618014b7c9ea4f944dc" target="_top" xlink:title="bf_cmpu">
<polygon fill="none" stroke="#ff0000" points="108,-.5 108,-19.5 167,-19.5 167,-.5 108,-.5"/>
<text text-anchor="middle" x="137.5" y="-7.5" font-family="Helvetica,sans-Serif" font-size="10.00" fill="#000000">bf_cmpu</text>
</a>
</g>
</g>
<!-- Node9953&#45;&gt;Node9970 -->
<g id="edge38" class="edge">
<title>Node9953&#45;&gt;Node9970</title>
<path fill="none" stroke="#191970" d="M28.7904,-171.1396C33.9124,-145.4739 50.8481,-75.6977 90,-34 93.3796,-30.4007 97.418,-27.2582 101.6928,-24.5388"/>
<polygon fill="#191970" stroke="#191970" points="103.6324,-27.4648 110.6644,-19.54 100.2253,-21.3499 103.6324,-27.4648"/>
</g>
<!-- Node10050 -->
<g id="node22" class="node">
<title>Node10050</title>
<g id="a_node22"><a xlink:href="libbf_8c.html#a39e7dd6286a6f0541a12366ebd93dbfd" target="_top" xlink:title="bf_ziv_rounding">
<polygon fill="none" stroke="#000000" points="222,-76.5 222,-95.5 316,-95.5 316,-76.5 222,-76.5"/>
<text text-anchor="middle" x="269" y="-83.5" font-family="Helvetica,sans-Serif" font-size="10.00" fill="#000000">bf_ziv_rounding</text>
</a>
</g>
</g>
<!-- Node9953&#45;&gt;Node10050 -->
<g id="edge46" class="edge">
<title>Node9953&#45;&gt;Node10050</title>
<path fill="none" stroke="#191970" d="M32.3346,-171.4624C41.7203,-155.6901 62.7975,-124.48 90,-110 127.316,-90.1365 174.9754,-84.5387 211.733,-83.6898"/>
<polygon fill="#191970" stroke="#191970" points="211.8368,-87.1889 221.7938,-83.5684 211.7523,-80.1894 211.8368,-87.1889"/>
</g>
<!-- Node9955 -->
<g id="node3" class="node">
<title>Node9955</title>
<g id="a_node3"><a xlink:href="libbf_8h.html#a50a5aa2767f2389a32daf115aaef07af" target="_top" xlink:title="bf_add_si">
<polygon fill="none" stroke="#000000" points="361.5,-380.5 361.5,-399.5 424.5,-399.5 424.5,-380.5 361.5,-380.5"/>
<text text-anchor="middle" x="393" y="-387.5" font-family="Helvetica,sans-Serif" font-size="10.00" fill="#000000">bf_add_si</text>
</a>
</g>
</g>
<!-- Node9954&#45;&gt;Node9955 -->
<g id="edge2" class="edge">
<title>Node9954&#45;&gt;Node9955</title>
<path fill="none" stroke="#191970" d="M163.4048,-475.3681C209.5293,-458.2181 305.918,-422.3788 357.9288,-403.0402"/>
<polygon fill="#191970" stroke="#191970" points="359.2533,-406.2819 367.4065,-399.5162 356.8137,-399.7207 359.2533,-406.2819"/>
</g>
<!-- Node9954&#45;&gt;Node9956 -->
<g id="edge34" class="edge">
<title>Node9954&#45;&gt;Node9956</title>
<path fill="none" stroke="#191970" d="M142.1095,-494.7176C153.3066,-517.6554 183.7741,-576.2219 221,-616 270.7463,-669.1569 283.8209,-690.3151 353,-713 386.7855,-724.0788 399.4589,-724.7979 433,-713 455.4373,-705.1078 476.0273,-686.8013 489.19,-673.0494"/>
<polygon fill="#191970" stroke="#191970" points="491.8527,-675.3244 496.0396,-665.592 486.6973,-670.5892 491.8527,-675.3244"/>
</g>
<!-- Node9954&#45;&gt;Node9987 -->
<g id="edge32" class="edge">
<title>Node9954&#45;&gt;Node9987</title>
<path fill="none" stroke="#191970" d="M142.1095,-475.2824C153.3066,-452.3446 183.7741,-393.7781 221,-354 270.7463,-300.8431 283.8209,-279.6849 353,-257 386.7855,-245.9212 398.5124,-248.3513 433,-257 450.7394,-261.4486 468.8882,-271.2729 482.3961,-279.8176"/>
<polygon fill="#191970" stroke="#191970" points="480.6676,-282.87 490.9443,-285.4468 484.5175,-277.0238 480.6676,-282.87"/>
</g>
<!-- Node9988 -->
<g id="node10" class="node">
<title>Node9988</title>
<g id="a_node10"><a xlink:href="libbf_8c.html#aa4b535a5b33344704c576607ab4f0463" target="_top" xlink:title="bf_atan_internal">
<polygon fill="none" stroke="#000000" points="221,-475.5 221,-494.5 317,-494.5 317,-475.5 221,-475.5"/>
<text text-anchor="middle" x="269" y="-482.5" font-family="Helvetica,sans-Serif" font-size="10.00" fill="#000000">bf_atan_internal</text>
</a>
</g>
</g>
<!-- Node9954&#45;&gt;Node9988 -->
<g id="edge9" class="edge">
<title>Node9954&#45;&gt;Node9988</title>
<path fill="none" stroke="#191970" d="M185.3465,-485C193.5954,-485 202.2513,-485 210.7385,-485"/>
<polygon fill="#191970" stroke="#191970" points="210.9688,-488.5001 220.9687,-485 210.9687,-481.5001 210.9688,-488.5001"/>
</g>
<!-- Node9994 -->
<g id="node12" class="node">
<title>Node9994</title>
<g id="a_node12"><a xlink:href="libbf_8h.html#a030665e68e114717678fb0d0453bb3c6" target="_top" xlink:title="bf_div">
<polygon fill="none" stroke="#ff0000" points="369.5,-304.5 369.5,-323.5 416.5,-323.5 416.5,-304.5 369.5,-304.5"/>
<text text-anchor="middle" x="393" y="-311.5" font-family="Helvetica,sans-Serif" font-size="10.00" fill="#000000">bf_div</text>
</a>
</g>
</g>
<!-- Node9954&#45;&gt;Node9994 -->
<g id="edge33" class="edge">
<title>Node9954&#45;&gt;Node9994</title>
<path fill="none" stroke="#191970" d="M148.1452,-475.2838C163.6127,-461.3837 193.4658,-435.3648 221,-416 270.0584,-381.4972 331.2333,-347.1108 365.8302,-328.3963"/>
<polygon fill="#191970" stroke="#191970" points="367.7009,-331.3644 374.8513,-323.5464 364.3862,-325.1989 367.7009,-331.3644"/>
</g>
<!-- Node10038 -->
<g id="node14" class="node">
<title>Node10038</title>
<g id="a_node14"><a xlink:href="libbf_8h.html#ac290278d0c37a0e7786873f98aadba47" target="_top" xlink:title="bf_mul">
<polygon fill="none" stroke="#ff0000" points="368,-570.5 368,-589.5 418,-589.5 418,-570.5 368,-570.5"/>
<text text-anchor="middle" x="393" y="-577.5" font-family="Helvetica,sans-Serif" font-size="10.00" fill="#000000">bf_mul</text>
</a>
</g>
</g>
<!-- Node9954&#45;&gt;Node10038 -->
<g id="edge35" class="edge">
<title>Node9954&#45;&gt;Node10038</title>
<path fill="none" stroke="#191970" d="M163.4048,-494.6319C209.6485,-511.8263 306.4165,-547.8065 358.331,-567.1094"/>
<polygon fill="#191970" stroke="#191970" points="357.1913,-570.4197 367.7841,-570.6242 359.6309,-563.8585 357.1913,-570.4197"/>
</g>
<!-- Node10049 -->
<g id="node18" class="node">
<title>Node10049</title>
<g id="a_node18"><a xlink:href="libbf_8h.html#aa561bc5220ec0489f4d3e59789d43d26" target="_top" xlink:title="bf_neg">
<polygon fill="none" stroke="#000000" points="368,-684.5 368,-703.5 418,-703.5 418,-684.5 368,-684.5"/>
<text text-anchor="middle" x="393" y="-691.5" font-family="Helvetica,sans-Serif" font-size="10.00" fill="#000000">bf_neg</text>
</a>
</g>
</g>
<!-- Node9954&#45;&gt;Node10049 -->
<g id="edge36" class="edge">
<title>Node9954&#45;&gt;Node10049</title>
<path fill="none" stroke="#191970" d="M147.739,-494.9053C177.8074,-523.7412 269.0209,-609.4226 353,-670 357.3226,-673.1181 362.0663,-676.2191 366.7289,-679.1058"/>
<polygon fill="#191970" stroke="#191970" points="365.0865,-682.2019 375.4632,-684.341 368.6853,-676.1978 365.0865,-682.2019"/>
</g>
<!-- Node10040 -->
<g id="node20" class="node">
<title>Node10040</title>
<g id="a_node20"><a xlink:href="libbf_8h.html#a1a8b9ac1fea38b97fc6be8663ce9e867" target="_top" xlink:title="bf_sqrt">
<polygon fill="none" stroke="#ff0000" points="368,-798.5 368,-817.5 418,-817.5 418,-798.5 368,-798.5"/>
<text text-anchor="middle" x="393" y="-805.5" font-family="Helvetica,sans-Serif" font-size="10.00" fill="#000000">bf_sqrt</text>
</a>
</g>
</g>
<!-- Node9954&#45;&gt;Node10040 -->
<g id="edge37" class="edge">
<title>Node9954&#45;&gt;Node10040</title>
<path fill="none" stroke="#191970" d="M138.7593,-494.6346C143.5524,-527.9225 163.391,-639.7738 221,-708 258.026,-751.8498 319.4437,-780.904 357.9941,-795.8969"/>
<polygon fill="#191970" stroke="#191970" points="357.1557,-799.3214 367.7474,-799.5799 359.6286,-792.7728 357.1557,-799.3214"/>
</g>
<!-- Node9955&#45;&gt;Node9956 -->
<g id="edge3" class="edge">
<title>Node9955&#45;&gt;Node9956</title>
<path fill="none" stroke="#191970" d="M400.9875,-399.5461C409.7946,-410.4506 423.9168,-429.1049 433,-447 466.4806,-512.9615 489.8382,-598.2781 499.3032,-636.2582"/>
<polygon fill="#191970" stroke="#191970" points="496.0196,-637.5663 501.7904,-646.4516 502.8201,-635.9069 496.0196,-637.5663"/>
</g>
<!-- Node9957 -->
<g id="node5" class="node">
<title>Node9957</title>
<g id="a_node5"><a xlink:href="libbf_8h.html#a60ee3eaad83309aaf8a8b8fb81d8b44d" target="_top" xlink:title="bf_set_si">
<polygon fill="none" stroke="#000000" points="474,-494.5 474,-513.5 534,-513.5 534,-494.5 474,-494.5"/>
<text text-anchor="middle" x="504" y="-501.5" font-family="Helvetica,sans-Serif" font-size="10.00" fill="#000000">bf_set_si</text>
</a>
</g>
</g>
<!-- Node9955&#45;&gt;Node9957 -->
<g id="edge4" class="edge">
<title>Node9955&#45;&gt;Node9957</title>
<path fill="none" stroke="#191970" d="M402.4638,-399.7196C421.3049,-419.0699 463.7205,-462.6319 487.3341,-486.8837"/>
<polygon fill="#191970" stroke="#191970" points="485.0763,-489.582 494.5602,-494.305 490.0916,-484.6986 485.0763,-489.582"/>
</g>
<!-- Node9963 -->
<g id="node8" class="node">
<title>Node9963</title>
<g id="a_node8"><a xlink:href="libbf_8h.html#a17dc09166f82ffa408f54a2edc4d7855" target="_top" xlink:title="bf_add">
<polygon fill="none" stroke="#ff0000" points="479,-399.5 479,-418.5 529,-418.5 529,-399.5 479,-399.5"/>
<text text-anchor="middle" x="504" y="-406.5" font-family="Helvetica,sans-Serif" font-size="10.00" fill="#000000">bf_add</text>
</a>
</g>
</g>
<!-- Node9955&#45;&gt;Node9963 -->
<g id="edge7" class="edge">
<title>Node9955&#45;&gt;Node9963</title>
<path fill="none" stroke="#191970" d="M424.5112,-395.3938C438.3336,-397.7598 454.6143,-400.5466 468.83,-402.9799"/>
<polygon fill="#191970" stroke="#191970" points="468.3045,-406.4408 478.7516,-404.6782 469.4855,-399.5411 468.3045,-406.4408"/>
</g>
<!-- Node9955&#45;&gt;Node9987 -->
<g id="edge8" class="edge">
<title>Node9955&#45;&gt;Node9987</title>
<path fill="none" stroke="#191970" d="M411.1364,-380.378C418.2128,-376.3057 426.2337,-371.283 433,-366 453.8678,-349.7069 474.9646,-327.7568 488.674,-312.5964"/>
<polygon fill="#191970" stroke="#191970" points="491.4453,-314.7473 495.482,-304.9515 486.2177,-310.0919 491.4453,-314.7473"/>
</g>
<!-- Node9957&#45;&gt;Node9958 -->
<g id="edge5" class="edge">
<title>Node9957&#45;&gt;Node9958</title>
<path fill="none" stroke="#191970" d="M534.2308,-509.3431C545.5837,-511.3497 558.6803,-513.6644 570.8281,-515.8115"/>
<polygon fill="#191970" stroke="#191970" points="570.2933,-519.2711 580.7499,-517.5651 571.5117,-512.378 570.2933,-519.2711"/>
</g>
<!-- Node9958&#45;&gt;Node9962 -->
<g id="edge6" class="edge">
<title>Node9958&#45;&gt;Node9962</title>
<path fill="none" stroke="#191970" d="M616.3984,-532.5234C632.9777,-564.7567 687.1842,-670.1443 709.3861,-713.3088"/>
<polygon fill="#191970" stroke="#191970" points="706.3864,-715.1289 714.0728,-722.4207 712.6112,-711.9271 706.3864,-715.1289"/>
</g>
<!-- Node9988&#45;&gt;Node9955 -->
<g id="edge11" class="edge">
<title>Node9988&#45;&gt;Node9955</title>
<path fill="none" stroke="#191970" d="M279.1674,-475.4674C294.5397,-461.2766 324.8925,-434.1117 353,-414 357.3345,-410.8985 362.084,-407.8055 366.7487,-404.9217"/>
<polygon fill="#191970" stroke="#191970" points="368.7051,-407.8296 375.4828,-399.6863 365.1062,-401.8256 368.7051,-407.8296"/>
</g>
<!-- Node9988&#45;&gt;Node9956 -->
<g id="edge15" class="edge">
<title>Node9988&#45;&gt;Node9956</title>
<path fill="none" stroke="#191970" d="M273.674,-494.7162C284.5844,-516.4298 313.809,-569.3082 353,-599 388.4704,-625.873 438.0439,-641.3404 470.5718,-649.2114"/>
<polygon fill="#191970" stroke="#191970" points="469.963,-652.6628 480.4944,-651.5048 471.5395,-645.8427 469.963,-652.6628"/>
</g>
<!-- Node9988&#45;&gt;Node9957 -->
<g id="edge27" class="edge">
<title>Node9988&#45;&gt;Node9957</title>
<path fill="none" stroke="#191970" d="M317.1228,-488.8908C360.3579,-492.3864 423.1177,-497.4606 463.7482,-500.7456"/>
<polygon fill="#191970" stroke="#191970" points="463.5787,-504.2432 473.8282,-501.5606 464.1429,-497.266 463.5787,-504.2432"/>
</g>
<!-- Node9988&#45;&gt;Node9958 -->
<g id="edge28" class="edge">
<title>Node9988&#45;&gt;Node9958</title>
<path fill="none" stroke="#191970" d="M298.2642,-494.5939C314.2809,-499.5311 334.565,-505.2783 353,-509 403.9027,-519.2763 417.1639,-519.8833 469,-523 503.3106,-525.063 542.3522,-524.8867 570.8833,-524.2941"/>
<polygon fill="#191970" stroke="#191970" points="570.9755,-527.793 580.891,-524.0603 570.8119,-520.7949 570.9755,-527.793"/>
</g>
<!-- Node9988&#45;&gt;Node9963 -->
<g id="edge10" class="edge">
<title>Node9988&#45;&gt;Node9963</title>
<path fill="none" stroke="#191970" d="M287.6225,-475.4134C304.3894,-467.0649 329.8775,-455.0672 353,-447 391.869,-433.4391 437.9278,-422.5651 468.8682,-415.9802"/>
<polygon fill="#191970" stroke="#191970" points="469.6774,-419.3867 478.7492,-413.9137 468.2445,-412.5349 469.6774,-419.3867"/>
</g>
<!-- Node9988&#45;&gt;Node9987 -->
<g id="edge13" class="edge">
<title>Node9988&#45;&gt;Node9987</title>
<path fill="none" stroke="#191970" d="M274.0252,-475.1912C285.4342,-453.7469 315.2565,-402.1263 353,-371 383.3682,-345.956 397.8597,-350.7367 433,-333 447.8642,-325.4974 464.2643,-316.7514 477.5543,-309.5426"/>
<polygon fill="#191970" stroke="#191970" points="479.5093,-312.4633 486.6154,-304.6049 476.1598,-306.3167 479.5093,-312.4633"/>
</g>
<!-- Node9988&#45;&gt;Node9989 -->
<g id="edge12" class="edge">
<title>Node9988&#45;&gt;Node9989</title>
<path fill="none" stroke="#191970" d="M270.7789,-475.3789C276.8502,-445.027 299.4228,-350.0535 353,-295 354.3673,-293.595 355.8591,-292.2815 357.437,-291.055"/>
<polygon fill="#191970" stroke="#191970" points="359.3524,-293.9845 365.8666,-285.6288 355.5636,-288.0985 359.3524,-293.9845"/>
</g>
<!-- Node9988&#45;&gt;Node9994 -->
<g id="edge14" class="edge">
<title>Node9988&#45;&gt;Node9994</title>
<path fill="none" stroke="#191970" d="M272.5138,-475.3194C282.062,-450.0877 310.6419,-381.269 353,-338 356.2097,-334.7212 359.958,-331.7182 363.8491,-329.0295"/>
<polygon fill="#191970" stroke="#191970" points="365.816,-331.9276 372.4421,-323.6605 362.1068,-325.9911 365.816,-331.9276"/>
</g>
<!-- Node10047 -->
<g id="node13" class="node">
<title>Node10047</title>
<g id="a_node13"><a xlink:href="libbf_8h.html#adeb14e044b992b09438bbd872831103b" target="_top" xlink:title="bf_isqrt">
<polygon fill="none" stroke="#ff0000" points="366.5,-456.5 366.5,-475.5 419.5,-475.5 419.5,-456.5 366.5,-456.5"/>
<text text-anchor="middle" x="393" y="-463.5" font-family="Helvetica,sans-Serif" font-size="10.00" fill="#000000">bf_isqrt</text>
</a>
</g>
</g>
<!-- Node9988&#45;&gt;Node10047 -->
<g id="edge16" class="edge">
<title>Node9988&#45;&gt;Node10047</title>
<path fill="none" stroke="#191970" d="M317.2967,-477.5997C330.3659,-475.5972 344.2902,-473.4636 356.5862,-471.5795"/>
<polygon fill="#191970" stroke="#191970" points="357.1228,-475.0382 366.4773,-470.064 356.0626,-468.119 357.1228,-475.0382"/>
</g>
<!-- Node9988&#45;&gt;Node10038 -->
<g id="edge17" class="edge">
<title>Node9988&#45;&gt;Node10038</title>
<path fill="none" stroke="#191970" d="M279.1674,-494.5326C294.5397,-508.7234 324.8925,-535.8883 353,-556 357.3345,-559.1015 362.084,-562.1945 366.7487,-565.0783"/>
<polygon fill="#191970" stroke="#191970" points="365.1062,-568.1744 375.4828,-570.3137 368.7051,-562.1704 365.1062,-568.1744"/>
</g>
<!-- Node9988&#45;&gt;Node10048 -->
<g id="edge21" class="edge">
<title>Node9988&#45;&gt;Node10048</title>
<path fill="none" stroke="#191970" d="M272.3167,-475.3441C288.9897,-426.8042 363.743,-209.1756 386.4426,-143.0906"/>
<polygon fill="#191970" stroke="#191970" points="389.7922,-144.1127 389.7307,-133.518 383.1718,-141.8386 389.7922,-144.1127"/>
</g>
<!-- Node9988&#45;&gt;Node10049 -->
<g id="edge24" class="edge">
<title>Node9988&#45;&gt;Node10049</title>
<path fill="none" stroke="#191970" d="M272.9513,-494.5732C287.8108,-530.4458 340.1456,-655.587 353,-670 355.9108,-673.2638 359.3734,-676.2185 363.0255,-678.8494"/>
<polygon fill="#191970" stroke="#191970" points="361.4069,-681.9682 371.7204,-684.3933 365.1702,-676.0659 361.4069,-681.9682"/>
</g>
<!-- Node9984 -->
<g id="node19" class="node">
<title>Node9984</title>
<g id="a_node19"><a xlink:href="libbf_8h.html#ae019ee8073f4359da157d3b1e5fdba7e" target="_top" xlink:title="bf_set">
<polygon fill="none" stroke="#ff0000" points="480.5,-722.5 480.5,-741.5 527.5,-741.5 527.5,-722.5 480.5,-722.5"/>
<text text-anchor="middle" x="504" y="-729.5" font-family="Helvetica,sans-Serif" font-size="10.00" fill="#000000">bf_set</text>
</a>
</g>
</g>
<!-- Node9988&#45;&gt;Node9984 -->
<g id="edge25" class="edge">
<title>Node9988&#45;&gt;Node9984</title>
<path fill="none" stroke="#191970" d="M275.9019,-494.823C285.5871,-508.783 303.5323,-535.302 317,-559 334.8738,-590.4511 327.8724,-605.9761 353,-632 381.0388,-661.0389 399.3423,-652.7157 433,-675 451.7735,-687.4297 471.636,-703.6736 485.5637,-715.6394"/>
<polygon fill="#191970" stroke="#191970" points="483.565,-718.5397 493.406,-722.4645 488.1604,-713.2594 483.565,-718.5397"/>
</g>
<!-- Node9988&#45;&gt;Node10040 -->
<g id="edge29" class="edge">
<title>Node9988&#45;&gt;Node10040</title>
<path fill="none" stroke="#191970" d="M272.366,-494.6162C283.4312,-526.1209 319.8714,-629.024 353,-713 363.4726,-739.5465 376.4193,-769.8834 384.6941,-788.9875"/>
<polygon fill="#191970" stroke="#191970" points="381.5677,-790.5749 388.7651,-798.3498 387.9871,-787.7836 381.5677,-790.5749"/>
</g>
<!-- Node10038&#45;&gt;Node9956 -->
<g id="edge20" class="edge">
<title>Node10038&#45;&gt;Node9956</title>
<path fill="none" stroke="#191970" d="M410.0203,-589.6011C417.2326,-593.8253 425.6513,-598.9646 433,-604 449.721,-615.4574 452.6341,-620.0408 469,-632 472.8518,-634.8147 476.9942,-637.7409 481.0338,-640.5421"/>
<polygon fill="#191970" stroke="#191970" points="479.3322,-643.6189 489.5601,-646.3831 483.2883,-637.844 479.3322,-643.6189"/>
</g>
<!-- Node10038&#45;&gt;Node9962 -->
<g id="edge18" class="edge">
<title>Node10038&#45;&gt;Node9962</title>
<path fill="none" stroke="#191970" d="M418.4192,-589.4517C423.2663,-591.2768 428.2943,-593.1856 433,-595 480.2816,-613.2306 492.969,-615.8092 539,-637 595.3309,-662.9325 659.0223,-697.9567 693.5081,-717.4194"/>
<polygon fill="#191970" stroke="#191970" points="692.0044,-720.5901 702.4301,-722.4757 695.4558,-714.5001 692.0044,-720.5901"/>
</g>
<!-- Node10038&#45;&gt;Node9983 -->
<g id="edge19" class="edge">
<title>Node10038&#45;&gt;Node9983</title>
<path fill="none" stroke="#191970" d="M418.2663,-577.605C451.3789,-573.0436 508.7812,-559.9771 539,-523 589.9872,-460.6098 606.7783,-199.5344 610.582,-124.9668"/>
<polygon fill="#191970" stroke="#191970" points="614.0933,-124.818 611.0842,-114.6595 607.1016,-124.4773 614.0933,-124.818"/>
</g>
<!-- Node9975 -->
<g id="node17" class="node">
<title>Node9975</title>
<g id="a_node17"><a xlink:href="libbf_8c.html#a5a13527071b5331585beae41a51ed3c2" target="_top" xlink:title="__bf_round">
<polygon fill="none" stroke="#ff0000" points="469,-95.5 469,-114.5 539,-114.5 539,-95.5 469,-95.5"/>
<text text-anchor="middle" x="504" y="-102.5" font-family="Helvetica,sans-Serif" font-size="10.00" fill="#000000">__bf_round</text>
</a>
</g>
</g>
<!-- Node10048&#45;&gt;Node9975 -->
<g id="edge22" class="edge">
<title>Node10048&#45;&gt;Node9975</title>
<path fill="none" stroke="#191970" d="M433.0735,-117.1406C441.3734,-115.7199 450.1733,-114.2136 458.6466,-112.7632"/>
<polygon fill="#191970" stroke="#191970" points="459.4984,-116.1684 468.7645,-111.0313 458.3174,-109.2687 459.4984,-116.1684"/>
</g>
<!-- Node9975&#45;&gt;Node9983 -->
<g id="edge23" class="edge">
<title>Node9975&#45;&gt;Node9983</title>
<path fill="none" stroke="#191970" d="M539.1995,-105C547.2967,-105 556.034,-105 564.5408,-105"/>
<polygon fill="#191970" stroke="#191970" points="564.7443,-108.5001 574.7442,-105 564.7442,-101.5001 564.7443,-108.5001"/>
</g>
<!-- Node9984&#45;&gt;Node9962 -->
<g id="edge26" class="edge">
<title>Node9984&#45;&gt;Node9962</title>
<path fill="none" stroke="#191970" d="M527.8302,-732C562.8514,-732 628.8776,-732 673.4061,-732"/>
<polygon fill="#191970" stroke="#191970" points="673.674,-735.5001 683.674,-732 673.6739,-728.5001 673.674,-735.5001"/>
</g>
<!-- Node10040&#45;&gt;Node9962 -->
<g id="edge30" class="edge">
<title>Node10040&#45;&gt;Node9962</title>
<path fill="none" stroke="#191970" d="M418.0394,-802.1626C472.8926,-789.3747 604.3119,-758.7371 673.9388,-742.5051"/>
<polygon fill="#191970" stroke="#191970" points="674.8026,-745.8976 683.7468,-740.2185 673.2132,-739.0804 674.8026,-745.8976"/>
</g>
<!-- Node10040&#45;&gt;Node9984 -->
<g id="edge31" class="edge">
<title>Node10040&#45;&gt;Node9984</title>
<path fill="none" stroke="#191970" d="M409.95,-798.2947C417.1505,-794.053 425.5793,-788.9287 433,-784 450.496,-772.3795 469.675,-758.2446 483.6844,-747.6466"/>
<polygon fill="#191970" stroke="#191970" points="485.8429,-750.4022 491.6779,-741.559 481.6017,-744.8333 485.8429,-750.4022"/>
</g>
<!-- Node10050&#45;&gt;Node9975 -->
<g id="edge47" class="edge">
<title>Node10050&#45;&gt;Node9975</title>
<path fill="none" stroke="#191970" d="M316.2731,-89.8221C357.7892,-93.1787 417.7807,-98.0291 458.6982,-101.3373"/>
<polygon fill="#191970" stroke="#191970" points="458.4176,-104.8259 468.6671,-102.1433 458.9817,-97.8487 458.4176,-104.8259"/>
</g>
</g>
</svg>
        <g id="navigator" transform="translate(0 0)" fill="#404254">
                <rect fill="#f2f5e9" fill-opacity="0.5" stroke="#606060" stroke-width=".5" x="0" y="0" width="60" height="60"/>
                <use id="zoomplus" xlink:href="#zoomPlus" x="17" y="9" onmousedown="handleZoom(evt,'in')"/>
                <use id="zoomminus" xlink:href="#zoomMin" x="42" y="9" onmousedown="handleZoom(evt,'out')"/>
                <use id="reset" xlink:href="#resetDef" x="30" y="36" onmousedown="handleReset()"/>
                <g id="arrowUp" xlink:href="#dirArrow" transform="translate(30 24)" onmousedown="handlePan(0,-1)">
                  <use xlink:href="#rim" fill="#404040">
                        <set attributeName="fill" to="#808080" begin="arrowUp.mouseover" end="arrowUp.mouseout"/>
                  </use>
                  <path fill="none" stroke="white" stroke-width="1.5" d="M0,-3.0v7 M-2.5,-0.5L0,-3.0L2.5,-0.5"/>
                </g>
                <g id="arrowRight" xlink:href="#dirArrow" transform="rotate(90) translate(36 -43)" onmousedown="handlePan(1,0)">
                  <use xlink:href="#rim" fill="#404040">
                        <set attributeName="fill" to="#808080" begin="arrowRight.mouseover" end="arrowRight.mouseout"/>
                  </use>
                  <path fill="none" stroke="white" stroke-width="1.5" d="M0,-3.0v7 M-2.5,-0.5L0,-3.0L2.5,-0.5"/>
                </g>
                <g id="arrowDown" xlink:href="#dirArrow" transform="rotate(180) translate(-30 -48)" onmousedown="handlePan(0,1)">
                  <use xlink:href="#rim" fill="#404040">
                        <set attributeName="fill" to="#808080" begin="arrowDown.mouseover" end="arrowDown.mouseout"/>
                  </use>
                  <path fill="none" stroke="white" stroke-width="1.5" d="M0,-3.0v7 M-2.5,-0.5L0,-3.0L2.5,-0.5"/>
                </g>
                <g id="arrowLeft" xlink:href="#dirArrow" transform="rotate(270) translate(-36 17)" onmousedown="handlePan(-1,0)">
                  <use xlink:href="#rim" fill="#404040">
                        <set attributeName="fill" to="#808080" begin="arrowLeft.mouseover" end="arrowLeft.mouseout"/>
                  </use>
                  <path fill="none" stroke="white" stroke-width="1.5" d="M0,-3.0v7 M-2.5,-0.5L0,-3.0L2.5,-0.5"/>
                </g>
        </g>
        <svg viewBox="0 0 15 15" width="100%" height="30px" preserveAspectRatio="xMaxYMin meet">
         <g id="arrow_out" transform="scale(0.3 0.3)">
          <a xlink:href="libbf_8c_a45cd74dd3a694c26e716762b7fd36955_cgraph_org.svg" target="_base">
           <rect id="button" ry="5" rx="5" y="6" x="6" height="38" width="38"
                fill="#f2f5e9" fill-opacity="0.5" stroke="#606060" stroke-width="1.0"/>
           <path id="arrow"
             d="M 11.500037,31.436501 C 11.940474,20.09759 22.043105,11.32322 32.158766,21.979434 L 37.068811,17.246167 C 37.068811,17.246167 37.088388,32 37.088388,32 L 22.160133,31.978069 C 22.160133,31.978069 26.997745,27.140456 26.997745,27.140456 C 18.528582,18.264221 13.291696,25.230495 11.500037,31.436501 z"
             style="fill:#404040;"/>
          </a>
         </g>
        </svg>
</svg>
