<?xml version="1.0" encoding="UTF-8" standalone="no"?>
<!DOCTYPE svg PUBLIC "-//W3C//DTD SVG 1.1//EN"
 "http://www.w3.org/Graphics/SVG/1.1/DTD/svg11.dtd">
<!-- Generated by graphviz version 2.40.1 (20161225.0304)
 -->
<!-- Title: bf_normalize_and_round Pages: 1 -->
<svg width="772pt" height="875pt"
 viewBox="0.00 0.00 772.00 875.31" xmlns="http://www.w3.org/2000/svg" xmlns:xlink="http://www.w3.org/1999/xlink">
<g id="graph0" class="graph" transform="scale(1 1) rotate(0) translate(4 871.3128)">
<title>bf_normalize_and_round</title>
<!-- Node1933 -->
<g id="node1" class="node">
<title>Node1933</title>
<polygon fill="#bfbfbf" stroke="#000000" points="0,-602.3463 0,-621.3463 137,-621.3463 137,-602.3463 0,-602.3463"/>
<text text-anchor="middle" x="68.5" y="-609.3463" font-family="Helvetica,sans-Serif" font-size="10.00" fill="#000000">bf_normalize_and_round</text>
</g>
<!-- Node1934 -->
<g id="node2" class="node">
<title>Node1934</title>
<g id="a_node2"><a xlink:href="libbf_8c.html#ad7a540de8355f07757e52b48d35dd708" target="_top" xlink:title="__bf_div">
<polygon fill="none" stroke="#000000" points="190.5,-602.3463 190.5,-621.3463 247.5,-621.3463 247.5,-602.3463 190.5,-602.3463"/>
<text text-anchor="middle" x="219" y="-609.3463" font-family="Helvetica,sans-Serif" font-size="10.00" fill="#000000">__bf_div</text>
</a>
</g>
</g>
<!-- Node1933&#45;&gt;Node1934 -->
<g id="edge1" class="edge">
<title>Node1933&#45;&gt;Node1934</title>
<path fill="none" stroke="#191970" d="M147.2833,-611.8463C162.7111,-611.8463 177.9405,-611.8463 190.3697,-611.8463"/>
<polygon fill="#191970" stroke="#191970" points="147.1438,-608.3464 137.1438,-611.8463 147.1438,-615.3464 147.1438,-608.3464"/>
</g>
<!-- Node1948 -->
<g id="node6" class="node">
<title>Node1948</title>
<g id="a_node6"><a xlink:href="libbf_8c.html#aaaeb6c790a8b174f3c5631ee33c81910" target="_top" xlink:title="bf_atof_internal">
<polygon fill="none" stroke="#ff0000" points="659.5,-791.3463 659.5,-810.3463 753.5,-810.3463 753.5,-791.3463 659.5,-791.3463"/>
<text text-anchor="middle" x="706.5" y="-798.3463" font-family="Helvetica,sans-Serif" font-size="10.00" fill="#000000">bf_atof_internal</text>
</a>
</g>
</g>
<!-- Node1933&#45;&gt;Node1948 -->
<g id="edge22" class="edge">
<title>Node1933&#45;&gt;Node1948</title>
<path fill="none" stroke="#191970" d="M73.8064,-631.2556C85.2838,-669.5527 116.0846,-755.0883 173,-800.8463 328.1986,-925.6207 599.0096,-840.8131 681.7729,-810.4477"/>
<polygon fill="#191970" stroke="#191970" points="77.0935,-630.0221 70.9658,-621.379 70.3662,-631.9569 77.0935,-630.0221"/>
</g>
<!-- Node1979 -->
<g id="node18" class="node">
<title>Node1979</title>
<g id="a_node18"><a xlink:href="libbf_8c.html#aaebd1df91497246cd81f23918af58d33" target="_top" xlink:title="bf_add_internal">
<polygon fill="none" stroke="#000000" points="173,-772.3463 173,-791.3463 265,-791.3463 265,-772.3463 173,-772.3463"/>
<text text-anchor="middle" x="219" y="-779.3463" font-family="Helvetica,sans-Serif" font-size="10.00" fill="#000000">bf_add_internal</text>
</a>
</g>
</g>
<!-- Node1933&#45;&gt;Node1979 -->
<g id="edge19" class="edge">
<title>Node1933&#45;&gt;Node1979</title>
<path fill="none" stroke="#191970" d="M83.7722,-629.0973C115.1915,-664.5875 186.1656,-744.7576 210.5707,-772.3249"/>
<polygon fill="#191970" stroke="#191970" points="86.272,-626.6408 77.0227,-621.4733 81.0308,-631.2808 86.272,-626.6408"/>
</g>
<!-- Node1985 -->
<g id="node21" class="node">
<title>Node1985</title>
<g id="a_node21"><a xlink:href="libbf_8c.html#ad7d8e39c51ec431bcd496bb37382ae94" target="_top" xlink:title="bf_logic_op">
<polygon fill="none" stroke="#ff0000" points="183,-564.3463 183,-583.3463 255,-583.3463 255,-564.3463 183,-564.3463"/>
<text text-anchor="middle" x="219" y="-571.3463" font-family="Helvetica,sans-Serif" font-size="10.00" fill="#000000">bf_logic_op</text>
</a>
</g>
</g>
<!-- Node1933&#45;&gt;Node1985 -->
<g id="edge23" class="edge">
<title>Node1933&#45;&gt;Node1985</title>
<path fill="none" stroke="#191970" d="M116.4128,-599.7487C137.9425,-594.3127 162.9275,-588.0042 182.8498,-582.9739"/>
<polygon fill="#191970" stroke="#191970" points="115.3164,-596.4156 106.4775,-602.2573 117.0301,-603.2026 115.3164,-596.4156"/>
</g>
<!-- Node1997 -->
<g id="node22" class="node">
<title>Node1997</title>
<g id="a_node22"><a xlink:href="libbf_8h.html#ac290278d0c37a0e7786873f98aadba47" target="_top" xlink:title="bf_mul">
<polygon fill="none" stroke="#000000" points="194,-337.3463 194,-356.3463 244,-356.3463 244,-337.3463 194,-337.3463"/>
<text text-anchor="middle" x="219" y="-344.3463" font-family="Helvetica,sans-Serif" font-size="10.00" fill="#000000">bf_mul</text>
</a>
</g>
</g>
<!-- Node1933&#45;&gt;Node1997 -->
<g id="edge24" class="edge">
<title>Node1933&#45;&gt;Node1997</title>
<path fill="none" stroke="#191970" d="M79.057,-593.2575C108.6286,-541.1879 191.5521,-395.1765 213.5735,-356.4012"/>
<polygon fill="#191970" stroke="#191970" points="75.9299,-591.6765 74.0349,-602.1005 82.0168,-595.1335 75.9299,-591.6765"/>
</g>
<!-- Node1935 -->
<g id="node3" class="node">
<title>Node1935</title>
<g id="a_node3"><a xlink:href="libbf_8h.html#a030665e68e114717678fb0d0453bb3c6" target="_top" xlink:title="bf_div">
<polygon fill="none" stroke="#ff0000" points="350,-470.3463 350,-489.3463 397,-489.3463 397,-470.3463 350,-470.3463"/>
<text text-anchor="middle" x="373.5" y="-477.3463" font-family="Helvetica,sans-Serif" font-size="10.00" fill="#000000">bf_div</text>
</a>
</g>
</g>
<!-- Node1934&#45;&gt;Node1935 -->
<g id="edge2" class="edge">
<title>Node1934&#45;&gt;Node1935</title>
<path fill="none" stroke="#191970" d="M256.7767,-598.5554C259.6935,-596.8485 262.4794,-594.9504 265,-592.8463 287.7143,-573.8853 281.0944,-558.7375 301,-536.8463 318.45,-517.6558 342.8476,-499.9275 358.4118,-489.4957"/>
<polygon fill="#191970" stroke="#191970" points="255.108,-595.4771 247.7677,-603.1171 258.2703,-601.7222 255.108,-595.4771"/>
</g>
<!-- Node1936 -->
<g id="node4" class="node">
<title>Node1936</title>
<g id="a_node4"><a xlink:href="libbf_8c.html#a4f1865c8160fb851cce8015c3edb4d4f" target="_top" xlink:title="bf_tdivremu">
<polygon fill="none" stroke="#ff0000" points="509.5,-564.3463 509.5,-583.3463 585.5,-583.3463 585.5,-564.3463 509.5,-564.3463"/>
<text text-anchor="middle" x="547.5" y="-571.3463" font-family="Helvetica,sans-Serif" font-size="10.00" fill="#000000">bf_tdivremu</text>
</a>
</g>
</g>
<!-- Node1935&#45;&gt;Node1936 -->
<g id="edge3" class="edge">
<title>Node1935&#45;&gt;Node1936</title>
<path fill="none" stroke="#191970" d="M407.2631,-486.6068C420.1734,-490.2809 434.5354,-495.7785 446,-503.8463 467.231,-518.7869 461.0073,-534.5728 482,-549.8463 490.4221,-555.9739 500.5775,-560.693 510.3513,-564.2585"/>
<polygon fill="#191970" stroke="#191970" points="407.861,-483.1465 397.3036,-484.0368 406.1119,-489.9244 407.861,-483.1465"/>
</g>
<!-- Node1947 -->
<g id="node5" class="node">
<title>Node1947</title>
<g id="a_node5"><a xlink:href="libbf_8h.html#a0b4d56fc6808de8feed2a234525df692" target="_top" xlink:title="bf_mul_pow_radix">
<polygon fill="none" stroke="#ff0000" points="494.5,-734.3463 494.5,-753.3463 600.5,-753.3463 600.5,-734.3463 494.5,-734.3463"/>
<text text-anchor="middle" x="547.5" y="-741.3463" font-family="Helvetica,sans-Serif" font-size="10.00" fill="#000000">bf_mul_pow_radix</text>
</a>
</g>
</g>
<!-- Node1935&#45;&gt;Node1947 -->
<g id="edge4" class="edge">
<title>Node1935&#45;&gt;Node1947</title>
<path fill="none" stroke="#191970" d="M400.2026,-494.7179C415.7682,-504.7028 434.5326,-519.2379 446,-536.8463 481.2957,-591.0434 450.1,-621.5835 482,-677.8463 495.3765,-701.4387 519.4048,-722.4899 534.3437,-734.1748"/>
<polygon fill="#191970" stroke="#191970" points="401.8418,-491.6175 391.4868,-489.3759 398.1838,-497.5857 401.8418,-491.6175"/>
</g>
<!-- Node1955 -->
<g id="node7" class="node">
<title>Node1955</title>
<g id="a_node7"><a xlink:href="libbf_8c.html#aa94726eca10adb51bd141319fdfdb20c" target="_top" xlink:title="bf_integer_to_radix_rec">
<polygon fill="none" stroke="#ff0000" points="482,-432.3463 482,-451.3463 613,-451.3463 613,-432.3463 482,-432.3463"/>
<text text-anchor="middle" x="547.5" y="-439.3463" font-family="Helvetica,sans-Serif" font-size="10.00" fill="#000000">bf_integer_to_radix_rec</text>
</a>
</g>
</g>
<!-- Node1935&#45;&gt;Node1955 -->
<g id="edge6" class="edge">
<title>Node1935&#45;&gt;Node1955</title>
<path fill="none" stroke="#191970" d="M407.2817,-472.4687C434.8409,-466.45 473.9694,-457.9047 503.8924,-451.3698"/>
<polygon fill="#191970" stroke="#191970" points="406.3521,-469.0891 397.3291,-474.6423 407.8456,-475.928 406.3521,-469.0891"/>
</g>
<!-- Node1958 -->
<g id="node8" class="node">
<title>Node1958</title>
<g id="a_node8"><a xlink:href="libbf_8c.html#a13930fbd670b65bf9f8c07a0fbcfc63b" target="_top" xlink:title="bf_convert_to_radix">
<polygon fill="none" stroke="#000000" points="491,-394.3463 491,-413.3463 604,-413.3463 604,-394.3463 491,-394.3463"/>
<text text-anchor="middle" x="547.5" y="-401.3463" font-family="Helvetica,sans-Serif" font-size="10.00" fill="#000000">bf_convert_to_radix</text>
</a>
</g>
</g>
<!-- Node1935&#45;&gt;Node1958 -->
<g id="edge8" class="edge">
<title>Node1935&#45;&gt;Node1958</title>
<path fill="none" stroke="#191970" d="M398.0011,-465.1466C419.5598,-452.6612 452.0858,-434.8994 482,-422.8463 490.7859,-419.3063 500.4771,-416.1233 509.6497,-413.4199"/>
<polygon fill="#191970" stroke="#191970" points="396.0528,-462.2315 389.1947,-470.3071 399.592,-468.2709 396.0528,-462.2315"/>
</g>
<!-- Node1959 -->
<g id="node9" class="node">
<title>Node1959</title>
<g id="a_node9"><a xlink:href="libbf_8c.html#ae2d577a0090338aba89d1bfa786d6a7a" target="_top" xlink:title="bf_const_log2_internal">
<polygon fill="none" stroke="#ff0000" points="484,-602.3463 484,-621.3463 611,-621.3463 611,-602.3463 484,-602.3463"/>
<text text-anchor="middle" x="547.5" y="-609.3463" font-family="Helvetica,sans-Serif" font-size="10.00" fill="#000000">bf_const_log2_internal</text>
</a>
</g>
</g>
<!-- Node1935&#45;&gt;Node1959 -->
<g id="edge9" class="edge">
<title>Node1935&#45;&gt;Node1959</title>
<path fill="none" stroke="#191970" d="M396.8923,-495.1935C411.9709,-505.784 431.4129,-520.8042 446,-536.8463 465.9056,-558.7375 458.2833,-575.1552 482,-592.8463 487.2199,-596.74 493.2202,-599.8376 499.4247,-602.3015"/>
<polygon fill="#191970" stroke="#191970" points="398.814,-492.2675 388.5882,-489.4957 394.8536,-498.0394 398.814,-492.2675"/>
</g>
<!-- Node1968 -->
<g id="node10" class="node">
<title>Node1968</title>
<g id="a_node10"><a xlink:href="libbf_8c.html#a11d2dea6becda91c288fd883eefc8e5c" target="_top" xlink:title="bf_const_pi_internal">
<polygon fill="none" stroke="#ff0000" points="649,-42.3463 649,-61.3463 764,-61.3463 764,-42.3463 649,-42.3463"/>
<text text-anchor="middle" x="706.5" y="-49.3463" font-family="Helvetica,sans-Serif" font-size="10.00" fill="#000000">bf_const_pi_internal</text>
</a>
</g>
</g>
<!-- Node1935&#45;&gt;Node1968 -->
<g id="edge10" class="edge">
<title>Node1935&#45;&gt;Node1968</title>
<path fill="none" stroke="#191970" d="M407.3842,-484.8825C466.0704,-492.7866 583.2167,-504.6972 613,-478.8463 654.7242,-442.6312 636.5954,-286.6847 649,-232.8463 664.3978,-166.0173 692.7331,-88.2971 702.8176,-61.5015"/>
<polygon fill="#191970" stroke="#191970" points="407.5266,-481.3689 397.1408,-483.4633 406.5658,-488.3026 407.5266,-481.3689"/>
</g>
<!-- Node1961 -->
<g id="node11" class="node">
<title>Node1961</title>
<g id="a_node11"><a xlink:href="libbf_8c.html#a157194b3c7faaa17e39ae78cd98c4385" target="_top" xlink:title="bf_exp_internal">
<polygon fill="none" stroke="#ff0000" points="501.5,-242.3463 501.5,-261.3463 593.5,-261.3463 593.5,-242.3463 501.5,-242.3463"/>
<text text-anchor="middle" x="547.5" y="-249.3463" font-family="Helvetica,sans-Serif" font-size="10.00" fill="#000000">bf_exp_internal</text>
</a>
</g>
</g>
<!-- Node1935&#45;&gt;Node1961 -->
<g id="edge11" class="edge">
<title>Node1935&#45;&gt;Node1961</title>
<path fill="none" stroke="#191970" d="M389.5937,-462.6562C405.8101,-444.5341 430.5801,-414.5467 446,-384.8463 470.4826,-337.6901 443.9895,-307.972 482,-270.8463 487.421,-265.5515 494.2253,-261.7166 501.3824,-258.9425"/>
<polygon fill="#191970" stroke="#191970" points="386.956,-460.3545 382.8092,-470.1041 392.1308,-465.0684 386.956,-460.3545"/>
</g>
<!-- Node1966 -->
<g id="node12" class="node">
<title>Node1966</title>
<g id="a_node12"><a xlink:href="libbf_8c.html#aab7bc918fdd8dbef25c31c6881c73fdd" target="_top" xlink:title="bf_log_internal">
<polygon fill="none" stroke="#ff0000" points="503,-204.3463 503,-223.3463 592,-223.3463 592,-204.3463 503,-204.3463"/>
<text text-anchor="middle" x="547.5" y="-211.3463" font-family="Helvetica,sans-Serif" font-size="10.00" fill="#000000">bf_log_internal</text>
</a>
</g>
</g>
<!-- Node1935&#45;&gt;Node1966 -->
<g id="edge12" class="edge">
<title>Node1935&#45;&gt;Node1966</title>
<path fill="none" stroke="#191970" d="M390.0449,-462.8801C406.6232,-444.9375 431.6791,-415.0919 446,-384.8463 475.7095,-322.1 434.1462,-283.1431 482,-232.8463 487.6314,-226.9274 494.9855,-222.8189 502.7246,-219.9748"/>
<polygon fill="#191970" stroke="#191970" points="387.4121,-460.5704 383.0934,-470.2451 392.5027,-465.3752 387.4121,-460.5704"/>
</g>
<!-- Node1978 -->
<g id="node13" class="node">
<title>Node1978</title>
<g id="a_node13"><a xlink:href="libbf_8c.html#afb959ebe491ad24167b5eff3b811f211" target="_top" xlink:title="bf_pow_int">
<polygon fill="none" stroke="#000000" points="512.5,-356.3463 512.5,-375.3463 582.5,-375.3463 582.5,-356.3463 512.5,-356.3463"/>
<text text-anchor="middle" x="547.5" y="-363.3463" font-family="Helvetica,sans-Serif" font-size="10.00" fill="#000000">bf_pow_int</text>
</a>
</g>
</g>
<!-- Node1935&#45;&gt;Node1978 -->
<g id="edge13" class="edge">
<title>Node1935&#45;&gt;Node1978</title>
<path fill="none" stroke="#191970" d="M388.6268,-462.6064C408.1685,-441.3598 444.191,-405.5379 482,-384.8463 491.348,-379.7305 502.2187,-375.8634 512.3861,-372.9993"/>
<polygon fill="#191970" stroke="#191970" points="385.8509,-460.4583 381.7504,-470.2275 391.048,-465.1477 385.8509,-460.4583"/>
</g>
<!-- Node1940 -->
<g id="node15" class="node">
<title>Node1940</title>
<g id="a_node15"><a xlink:href="libbf_8c.html#a2b19e3958f6cf3fa0cc534681a5ff259" target="_top" xlink:title="bf_sincos">
<polygon fill="none" stroke="#ff0000" points="516.5,-280.3463 516.5,-299.3463 578.5,-299.3463 578.5,-280.3463 516.5,-280.3463"/>
<text text-anchor="middle" x="547.5" y="-287.3463" font-family="Helvetica,sans-Serif" font-size="10.00" fill="#000000">bf_sincos</text>
</a>
</g>
</g>
<!-- Node1935&#45;&gt;Node1940 -->
<g id="edge15" class="edge">
<title>Node1935&#45;&gt;Node1940</title>
<path fill="none" stroke="#191970" d="M386.7076,-461.7395C406.2858,-435.3639 444.7216,-385.3305 482,-346.8463 499.4105,-328.8726 521.7827,-310.2417 535.3612,-299.3633"/>
<polygon fill="#191970" stroke="#191970" points="383.7169,-459.898 380.6017,-470.0245 389.352,-464.0509 383.7169,-459.898"/>
</g>
<!-- Node1971 -->
<g id="node16" class="node">
<title>Node1971</title>
<g id="a_node16"><a xlink:href="libbf_8c.html#aa4b535a5b33344704c576607ab4f0463" target="_top" xlink:title="bf_atan_internal">
<polygon fill="none" stroke="#ff0000" points="499.5,-649.3463 499.5,-668.3463 595.5,-668.3463 595.5,-649.3463 499.5,-649.3463"/>
<text text-anchor="middle" x="547.5" y="-656.3463" font-family="Helvetica,sans-Serif" font-size="10.00" fill="#000000">bf_atan_internal</text>
</a>
</g>
</g>
<!-- Node1935&#45;&gt;Node1971 -->
<g id="edge16" class="edge">
<title>Node1935&#45;&gt;Node1971</title>
<path fill="none" stroke="#191970" d="M398.9073,-494.8252C414.3156,-505.0078 433.3743,-519.7153 446,-536.8463 472.5417,-572.8591 450.9766,-598.6139 482,-630.8463 489.9757,-639.1329 500.8008,-645.094 511.3525,-649.3256"/>
<polygon fill="#191970" stroke="#191970" points="400.6489,-491.7849 390.3332,-489.3686 396.8905,-497.6904 400.6489,-491.7849"/>
</g>
<!-- Node1975 -->
<g id="node17" class="node">
<title>Node1975</title>
<g id="a_node17"><a xlink:href="libbf_8c.html#a4a0919b7e170befaf75d114d48d350cc" target="_top" xlink:title="bf_asin_internal">
<polygon fill="none" stroke="#ff0000" points="659,-649.3463 659,-668.3463 754,-668.3463 754,-649.3463 659,-649.3463"/>
<text text-anchor="middle" x="706.5" y="-656.3463" font-family="Helvetica,sans-Serif" font-size="10.00" fill="#000000">bf_asin_internal</text>
</a>
</g>
</g>
<!-- Node1935&#45;&gt;Node1975 -->
<g id="edge18" class="edge">
<title>Node1935&#45;&gt;Node1975</title>
<path fill="none" stroke="#191970" d="M406.694,-489.7343C470.3444,-508.7649 604.0832,-549.1184 613,-554.8463 653.4475,-580.8287 687.26,-628.833 700.5051,-649.2512"/>
<polygon fill="#191970" stroke="#191970" points="407.6936,-486.3801 397.1102,-486.8717 405.6901,-493.0873 407.6936,-486.3801"/>
</g>
<!-- Node1947&#45;&gt;Node1948 -->
<g id="edge5" class="edge">
<title>Node1947&#45;&gt;Node1948</title>
<path fill="none" stroke="#191970" d="M583.5636,-756.7748C612.8193,-767.2627 653.3994,-781.8103 679.8002,-791.2747"/>
<polygon fill="#191970" stroke="#191970" points="584.7076,-753.4668 574.113,-753.3868 582.3453,-760.0562 584.7076,-753.4668"/>
</g>
<!-- Node1955&#45;&gt;Node1955 -->
<g id="edge7" class="edge">
<title>Node1955&#45;&gt;Node1955</title>
<path fill="none" stroke="#191970" d="M518.0076,-460.5003C519.2404,-465.7831 529.0712,-469.8463 547.5,-469.8463 575.582,-469.8463 583.6995,-460.4116 571.8524,-451.6034"/>
<polygon fill="#191970" stroke="#191970" points="521.1757,-462.0131 523.1476,-451.6034 515.1145,-458.5113 521.1757,-462.0131"/>
</g>
<!-- Node1964 -->
<g id="node14" class="node">
<title>Node1964</title>
<g id="a_node14"><a xlink:href="libbf_8h.html#a93fe073491f8c5f086a75e7bf8865b34" target="_top" xlink:title="bf_pow">
<polygon fill="none" stroke="#000000" points="680.5,-242.3463 680.5,-261.3463 732.5,-261.3463 732.5,-242.3463 680.5,-242.3463"/>
<text text-anchor="middle" x="706.5" y="-249.3463" font-family="Helvetica,sans-Serif" font-size="10.00" fill="#000000">bf_pow</text>
</a>
</g>
</g>
<!-- Node1978&#45;&gt;Node1964 -->
<g id="edge14" class="edge">
<title>Node1978&#45;&gt;Node1964</title>
<path fill="none" stroke="#191970" d="M591.1947,-352.7266C598.7271,-349.6642 606.2851,-346.0447 613,-341.8463 649.6798,-318.9126 683.9336,-279.7544 698.7681,-261.6087"/>
<polygon fill="#191970" stroke="#191970" points="589.8454,-349.4949 581.7328,-356.3093 592.3242,-356.0414 589.8454,-349.4949"/>
</g>
<!-- Node1971&#45;&gt;Node1975 -->
<g id="edge17" class="edge">
<title>Node1971&#45;&gt;Node1975</title>
<path fill="none" stroke="#191970" d="M605.7159,-658.8463C623.1722,-658.8463 642.1065,-658.8463 658.8006,-658.8463"/>
<polygon fill="#191970" stroke="#191970" points="605.6368,-655.3464 595.6367,-658.8463 605.6367,-662.3464 605.6368,-655.3464"/>
</g>
<!-- Node1980 -->
<g id="node19" class="node">
<title>Node1980</title>
<g id="a_node19"><a xlink:href="libbf_8c.html#a951a1d3ebb338129d86e00f51b47f2ee" target="_top" xlink:title="__bf_add">
<polygon fill="none" stroke="#ff0000" points="343.5,-772.3463 343.5,-791.3463 403.5,-791.3463 403.5,-772.3463 343.5,-772.3463"/>
<text text-anchor="middle" x="373.5" y="-779.3463" font-family="Helvetica,sans-Serif" font-size="10.00" fill="#000000">__bf_add</text>
</a>
</g>
</g>
<!-- Node1979&#45;&gt;Node1980 -->
<g id="edge20" class="edge">
<title>Node1979&#45;&gt;Node1980</title>
<path fill="none" stroke="#191970" d="M275.6599,-781.8463C298.5561,-781.8463 324.0556,-781.8463 343.2809,-781.8463"/>
<polygon fill="#191970" stroke="#191970" points="275.3551,-778.3464 265.3551,-781.8463 275.3551,-785.3464 275.3551,-778.3464"/>
</g>
<!-- Node1995 -->
<g id="node20" class="node">
<title>Node1995</title>
<g id="a_node20"><a xlink:href="libbf_8c.html#aa3b3bc85aee9c531439d5fbc92986dfe" target="_top" xlink:title="__bf_sub">
<polygon fill="none" stroke="#ff0000" points="344,-810.3463 344,-829.3463 403,-829.3463 403,-810.3463 344,-810.3463"/>
<text text-anchor="middle" x="373.5" y="-817.3463" font-family="Helvetica,sans-Serif" font-size="10.00" fill="#000000">__bf_sub</text>
</a>
</g>
</g>
<!-- Node1979&#45;&gt;Node1995 -->
<g id="edge21" class="edge">
<title>Node1979&#45;&gt;Node1995</title>
<path fill="none" stroke="#191970" d="M267.9889,-793.8954C292.8928,-800.0206 322.342,-807.2638 343.7909,-812.5392"/>
<polygon fill="#191970" stroke="#191970" points="268.5334,-790.425 257.9869,-791.4353 266.8615,-797.2225 268.5334,-790.425"/>
</g>
<!-- Node1997&#45;&gt;Node1936 -->
<g id="edge25" class="edge">
<title>Node1997&#45;&gt;Node1936</title>
<path fill="none" stroke="#191970" d="M223.9365,-366.0662C233.29,-398.5231 256.7363,-464.0521 301,-498.8463 353.3761,-540.0175 382.4128,-516.9719 446,-536.8463 472.6737,-545.1833 502.6817,-556.3496 523.1067,-564.2275"/>
<polygon fill="#191970" stroke="#191970" points="227.3118,-365.1398 221.295,-356.4192 220.5603,-366.9885 227.3118,-365.1398"/>
</g>
<!-- Node1997&#45;&gt;Node1947 -->
<g id="edge42" class="edge">
<title>Node1997&#45;&gt;Node1947</title>
<path fill="none" stroke="#191970" d="M223.315,-366.2704C231.4837,-403.0616 249.7551,-485.4462 265,-554.8463 281.1039,-628.1569 244.8944,-669.9871 301,-719.8463 356.7633,-769.4014 450.1646,-762.8099 504.5732,-753.4149"/>
<polygon fill="#191970" stroke="#191970" points="226.7036,-365.3844 221.1187,-356.381 219.87,-366.902 226.7036,-365.3844"/>
</g>
<!-- Node1997&#45;&gt;Node1955 -->
<g id="edge43" class="edge">
<title>Node1997&#45;&gt;Node1955</title>
<path fill="none" stroke="#191970" d="M235.7914,-363.7552C251.2994,-378.2676 275.7001,-398.4396 301,-408.8463 359.0994,-432.7445 430.7836,-440.1372 481.8425,-442.0667"/>
<polygon fill="#191970" stroke="#191970" points="238.1645,-361.1814 228.5346,-356.7637 233.3078,-366.2225 238.1645,-361.1814"/>
</g>
<!-- Node1997&#45;&gt;Node1958 -->
<g id="edge44" class="edge">
<title>Node1997&#45;&gt;Node1958</title>
<path fill="none" stroke="#191970" d="M244.0919,-361.3352C259.8909,-369.723 281.0105,-379.6261 301,-384.8463 364.5399,-401.4394 440.1778,-404.9853 490.7569,-405.1524"/>
<polygon fill="#191970" stroke="#191970" points="245.4533,-358.0906 235.0001,-356.3639 242.0949,-364.2324 245.4533,-358.0906"/>
</g>
<!-- Node1997&#45;&gt;Node1968 -->
<g id="edge49" class="edge">
<title>Node1997&#45;&gt;Node1968</title>
<path fill="none" stroke="#191970" d="M220.5685,-327.2888C226.36,-260.594 248.9601,-43.9394 301,-2.8463 308.2016,2.8404 600.2229,-1.7347 613,-4.8463 643.1852,-12.1973 674.7629,-30.6984 692.4047,-42.1739"/>
<polygon fill="#191970" stroke="#191970" points="217.0773,-327.0378 219.7297,-337.2953 224.0529,-327.6227 217.0773,-327.0378"/>
</g>
<!-- Node1997&#45;&gt;Node1961 -->
<g id="edge50" class="edge">
<title>Node1997&#45;&gt;Node1961</title>
<path fill="none" stroke="#191970" d="M235.8532,-330.2387C251.4021,-315.9792 275.828,-296.1442 301,-285.8463 366.9732,-258.8566 450.304,-252.534 501.2107,-251.4494"/>
<polygon fill="#191970" stroke="#191970" points="233.4454,-327.6985 228.5744,-337.1072 238.2496,-332.7897 233.4454,-327.6985"/>
</g>
<!-- Node1997&#45;&gt;Node1966 -->
<g id="edge51" class="edge">
<title>Node1997&#45;&gt;Node1966</title>
<path fill="none" stroke="#191970" d="M229.1351,-328.3742C242.4662,-306.0135 268.1072,-269.0917 301,-250.8463 364.5756,-215.5814 450.8669,-210.6671 502.6798,-211.4556"/>
<polygon fill="#191970" stroke="#191970" points="225.9899,-326.8227 224.0419,-337.2369 232.0591,-330.3106 225.9899,-326.8227"/>
</g>
<!-- Node1997&#45;&gt;Node1964 -->
<g id="edge52" class="edge">
<title>Node1997&#45;&gt;Node1964</title>
<path fill="none" stroke="#191970" d="M220.6985,-326.8675C225.3359,-286.4524 242.1328,-195.556 301,-156.8463 358.989,-118.7141 549.0421,-143.8986 613,-170.8463 651.0002,-186.8571 684.5939,-224.4142 699.0157,-242.1921"/>
<polygon fill="#191970" stroke="#191970" points="217.1925,-326.7515 219.6699,-337.0526 224.1571,-327.4549 217.1925,-326.7515"/>
</g>
<!-- Node1997&#45;&gt;Node1940 -->
<g id="edge55" class="edge">
<title>Node1997&#45;&gt;Node1940</title>
<path fill="none" stroke="#191970" d="M244.0919,-332.3574C259.8909,-323.9696 281.0105,-314.0665 301,-308.8463 376.3758,-289.1623 468.7765,-287.8391 516.173,-288.736"/>
<polygon fill="#191970" stroke="#191970" points="242.0949,-329.4602 235.0001,-337.3287 245.4533,-335.602 242.0949,-329.4602"/>
</g>
<!-- Node1997&#45;&gt;Node1971 -->
<g id="edge56" class="edge">
<title>Node1997&#45;&gt;Node1971</title>
<path fill="none" stroke="#191970" d="M222.9493,-366.5478C236.0006,-430.7225 278.2084,-630.6741 301,-648.8463 362.9539,-698.2435 464.0952,-681.4686 515.4316,-668.3642"/>
<polygon fill="#191970" stroke="#191970" points="226.3355,-365.6343 220.9243,-356.5256 219.4742,-367.0207 226.3355,-365.6343"/>
</g>
<!-- Node1997&#45;&gt;Node1975 -->
<g id="edge57" class="edge">
<title>Node1997&#45;&gt;Node1975</title>
<path fill="none" stroke="#191970" d="M223.1625,-366.5973C238.0245,-436.6918 288.2647,-669.8666 301,-679.8463 306.5444,-684.1911 598.3142,-679.4122 613,-677.8463 631.2828,-675.8968 651.2894,-672.0659 668.0876,-668.3515"/>
<polygon fill="#191970" stroke="#191970" points="226.515,-365.5333 221.0219,-356.4737 219.6664,-366.9814 226.515,-365.5333"/>
</g>
<!-- Node1982 -->
<g id="node23" class="node">
<title>Node1982</title>
<g id="a_node23"><a xlink:href="libbf_8h.html#ae080fd42a2c7fc561d7084762204357e" target="_top" xlink:title="bf_sqrtrem">
<polygon fill="none" stroke="#ff0000" points="338.5,-90.3463 338.5,-109.3463 408.5,-109.3463 408.5,-90.3463 338.5,-90.3463"/>
<text text-anchor="middle" x="373.5" y="-97.3463" font-family="Helvetica,sans-Serif" font-size="10.00" fill="#000000">bf_sqrtrem</text>
</a>
</g>
</g>
<!-- Node1997&#45;&gt;Node1982 -->
<g id="edge26" class="edge">
<title>Node1997&#45;&gt;Node1982</title>
<path fill="none" stroke="#191970" d="M220.599,-327.2229C225.15,-284.2254 241.9559,-180.9914 301,-123.8463 311.0988,-114.0723 325.2645,-108.2777 338.3978,-104.8427"/>
<polygon fill="#191970" stroke="#191970" points="217.1097,-326.9455 219.6511,-337.231 224.0785,-327.6056 217.1097,-326.9455"/>
</g>
<!-- Node1998 -->
<g id="node24" class="node">
<title>Node1998</title>
<g id="a_node24"><a xlink:href="libbf_8h.html#acee0d550162528b5ca5513d4479549c2" target="_top" xlink:title="bf_mul_ui">
<polygon fill="none" stroke="#ff0000" points="341,-52.3463 341,-71.3463 406,-71.3463 406,-52.3463 341,-52.3463"/>
<text text-anchor="middle" x="373.5" y="-59.3463" font-family="Helvetica,sans-Serif" font-size="10.00" fill="#000000">bf_mul_ui</text>
</a>
</g>
</g>
<!-- Node1997&#45;&gt;Node1998 -->
<g id="edge27" class="edge">
<title>Node1997&#45;&gt;Node1998</title>
<path fill="none" stroke="#191970" d="M222.5065,-327.2219C232.7866,-271.8053 264.4386,-115.8781 301,-80.8463 311.6166,-70.6739 326.9866,-65.7798 340.8451,-63.4864"/>
<polygon fill="#191970" stroke="#191970" points="219.043,-326.7061 220.6916,-337.1719 225.9293,-327.9623 219.043,-326.7061"/>
</g>
<!-- Node1992 -->
<g id="node25" class="node">
<title>Node1992</title>
<g id="a_node25"><a xlink:href="libbf_8c.html#a81e50b3d7e7a931a93d6ea7e1d630631" target="_top" xlink:title="chud_bs">
<polygon fill="none" stroke="#000000" points="519.5,-14.3463 519.5,-33.3463 575.5,-33.3463 575.5,-14.3463 519.5,-14.3463"/>
<text text-anchor="middle" x="547.5" y="-21.3463" font-family="Helvetica,sans-Serif" font-size="10.00" fill="#000000">chud_bs</text>
</a>
</g>
</g>
<!-- Node1997&#45;&gt;Node1992 -->
<g id="edge48" class="edge">
<title>Node1997&#45;&gt;Node1992</title>
<path fill="none" stroke="#191970" d="M221.3932,-326.9563C229.2306,-265.4064 256.2242,-79.9619 301,-42.8463 363.786,9.1983 469.1566,-5.5448 519.3152,-16.606"/>
<polygon fill="#191970" stroke="#191970" points="217.8753,-326.8852 220.117,-337.2401 224.822,-327.7473 217.8753,-326.8852"/>
</g>
<!-- Node1999 -->
<g id="node26" class="node">
<title>Node1999</title>
<g id="a_node26"><a xlink:href="libbf_8h.html#a6fbb1ec8880c203fc01baf940a54cc62" target="_top" xlink:title="bf_mul_si">
<polygon fill="none" stroke="#ff0000" points="341.5,-166.3463 341.5,-185.3463 405.5,-185.3463 405.5,-166.3463 341.5,-166.3463"/>
<text text-anchor="middle" x="373.5" y="-173.3463" font-family="Helvetica,sans-Serif" font-size="10.00" fill="#000000">bf_mul_si</text>
</a>
</g>
</g>
<!-- Node1997&#45;&gt;Node1999 -->
<g id="edge33" class="edge">
<title>Node1997&#45;&gt;Node1999</title>
<path fill="none" stroke="#191970" d="M224.7806,-327.2312C235.0207,-295.8333 259.2951,-234.3247 301,-199.8463 312.4449,-190.3846 327.7524,-184.6081 341.3522,-181.1033"/>
<polygon fill="#191970" stroke="#191970" points="221.374,-326.399 221.7383,-336.9876 228.0566,-328.4829 221.374,-326.399"/>
</g>
<!-- Node2000 -->
<g id="node27" class="node">
<title>Node2000</title>
<g id="a_node27"><a xlink:href="libbf_8c.html#a3ae2be576639444cdfcb0a232471e77d" target="_top" xlink:title="bf_pow_ui">
<polygon fill="none" stroke="#ff0000" points="340.5,-356.3463 340.5,-375.3463 406.5,-375.3463 406.5,-356.3463 340.5,-356.3463"/>
<text text-anchor="middle" x="373.5" y="-363.3463" font-family="Helvetica,sans-Serif" font-size="10.00" fill="#000000">bf_pow_ui</text>
</a>
</g>
</g>
<!-- Node1997&#45;&gt;Node2000 -->
<g id="edge37" class="edge">
<title>Node1997&#45;&gt;Node2000</title>
<path fill="none" stroke="#191970" d="M254.2804,-351.185C280.1028,-354.3606 314.9092,-358.641 340.2447,-361.7567"/>
<polygon fill="#191970" stroke="#191970" points="254.5194,-347.6881 244.167,-349.9413 253.6649,-354.6358 254.5194,-347.6881"/>
</g>
<!-- Node1989 -->
<g id="node28" class="node">
<title>Node1989</title>
<g id="a_node28"><a xlink:href="libbf_8c.html#a5d5227218ea18d8ca58be002abc729bf" target="_top" xlink:title="bf_integer_from_radix_rec">
<polygon fill="none" stroke="#ff0000" points="301,-602.3463 301,-621.3463 446,-621.3463 446,-602.3463 301,-602.3463"/>
<text text-anchor="middle" x="373.5" y="-609.3463" font-family="Helvetica,sans-Serif" font-size="10.00" fill="#000000">bf_integer_from_radix_rec</text>
</a>
</g>
</g>
<!-- Node1997&#45;&gt;Node1989 -->
<g id="edge40" class="edge">
<title>Node1997&#45;&gt;Node1989</title>
<path fill="none" stroke="#191970" d="M223.0777,-366.7113C234.2766,-419.4166 266.945,-560.9502 301,-592.8463 305.0837,-596.6711 309.8409,-599.747 314.9303,-602.2178"/>
<polygon fill="#191970" stroke="#191970" points="226.4407,-365.6941 220.9672,-356.6226 219.589,-367.1274 226.4407,-365.6941"/>
</g>
<!-- Node1991 -->
<g id="node29" class="node">
<title>Node1991</title>
<g id="a_node29"><a xlink:href="libbf_8c.html#a829c2ed2112548096d41c6ceb017e542" target="_top" xlink:title="bf_const_log2_rec">
<polygon fill="none" stroke="#000000" points="321.5,-546.3463 321.5,-565.3463 425.5,-565.3463 425.5,-546.3463 321.5,-546.3463"/>
<text text-anchor="middle" x="373.5" y="-553.3463" font-family="Helvetica,sans-Serif" font-size="10.00" fill="#000000">bf_const_log2_rec</text>
</a>
</g>
</g>
<!-- Node1997&#45;&gt;Node1991 -->
<g id="edge45" class="edge">
<title>Node1997&#45;&gt;Node1991</title>
<path fill="none" stroke="#191970" d="M222.3252,-366.6497C229.6663,-404.2511 250.7667,-486.2885 301,-531.8463 307.973,-538.1703 316.6548,-542.8325 325.5612,-546.2683"/>
<polygon fill="#191970" stroke="#191970" points="225.7108,-365.7053 220.4717,-356.4964 218.8246,-366.9624 225.7108,-365.7053"/>
</g>
<!-- Node1994 -->
<g id="node30" class="node">
<title>Node1994</title>
<g id="a_node30"><a xlink:href="libbf_8c.html#a15b40c4ae7e9b401fd0c6dc398eacef7" target="_top" xlink:title="bf_sqrt_sin">
<polygon fill="none" stroke="#000000" points="338.5,-318.3463 338.5,-337.3463 408.5,-337.3463 408.5,-318.3463 338.5,-318.3463"/>
<text text-anchor="middle" x="373.5" y="-325.3463" font-family="Helvetica,sans-Serif" font-size="10.00" fill="#000000">bf_sqrt_sin</text>
</a>
</g>
</g>
<!-- Node1997&#45;&gt;Node1994 -->
<g id="edge53" class="edge">
<title>Node1997&#45;&gt;Node1994</title>
<path fill="none" stroke="#191970" d="M254.3727,-342.4963C279.5131,-339.4046 313.1341,-335.2699 338.2475,-332.1816"/>
<polygon fill="#191970" stroke="#191970" points="253.665,-339.0569 244.167,-343.7513 254.5194,-346.0045 253.665,-339.0569"/>
</g>
<!-- Node1998&#45;&gt;Node1968 -->
<g id="edge31" class="edge">
<title>Node1998&#45;&gt;Node1968</title>
<path fill="none" stroke="#191970" d="M416.075,-62.8459C463.9884,-63.6969 544.1331,-64.2972 613,-60.8463 624.5639,-60.2668 636.9055,-59.3165 648.7038,-58.2456"/>
<polygon fill="#191970" stroke="#191970" points="416.1304,-59.3464 406.0658,-62.656 415.9976,-66.3451 416.1304,-59.3464"/>
</g>
<!-- Node1998&#45;&gt;Node1940 -->
<g id="edge32" class="edge">
<title>Node1998&#45;&gt;Node1940</title>
<path fill="none" stroke="#191970" d="M416.3671,-64.9072C427.359,-67.6934 438.2514,-72.5433 446,-80.8463 504.6396,-143.6815 424.1829,-207.2534 482,-270.8463 490.7616,-280.4831 504.087,-285.3463 516.4366,-287.7589"/>
<polygon fill="#191970" stroke="#191970" points="416.8258,-61.4294 406.3319,-62.8887 415.4453,-68.292 416.8258,-61.4294"/>
</g>
<!-- Node1998&#45;&gt;Node1992 -->
<g id="edge28" class="edge">
<title>Node1998&#45;&gt;Node1992</title>
<path fill="none" stroke="#191970" d="M416.2253,-52.5155C448.3034,-45.5099 491.3301,-36.1133 519.2339,-30.0194"/>
<polygon fill="#191970" stroke="#191970" points="415.251,-49.1457 406.2281,-54.6988 416.7446,-55.9845 415.251,-49.1457"/>
</g>
<!-- Node1992&#45;&gt;Node1968 -->
<g id="edge30" class="edge">
<title>Node1992&#45;&gt;Node1968</title>
<path fill="none" stroke="#191970" d="M585.534,-30.5441C605.5329,-34.0659 630.3936,-38.4439 652.3665,-42.3134"/>
<polygon fill="#191970" stroke="#191970" points="586.0155,-27.0751 575.56,-28.7877 584.8014,-33.9691 586.0155,-27.0751"/>
</g>
<!-- Node1992&#45;&gt;Node1992 -->
<g id="edge29" class="edge">
<title>Node1992&#45;&gt;Node1992</title>
<path fill="none" stroke="#191970" d="M518.0076,-42.5003C519.2404,-47.7831 529.0712,-51.8463 547.5,-51.8463 575.582,-51.8463 583.6995,-42.4116 571.8524,-33.6034"/>
<polygon fill="#191970" stroke="#191970" points="521.1757,-44.0131 523.1476,-33.6034 515.1145,-40.5113 521.1757,-44.0131"/>
</g>
<!-- Node1999&#45;&gt;Node1961 -->
<g id="edge34" class="edge">
<title>Node1999&#45;&gt;Node1961</title>
<path fill="none" stroke="#191970" d="M398.0011,-190.5461C419.5598,-203.0314 452.0858,-220.7932 482,-232.8463 490.7859,-236.3863 500.4771,-239.5693 509.6497,-242.2727"/>
<polygon fill="#191970" stroke="#191970" points="399.592,-187.4217 389.1947,-185.3855 396.0528,-193.4611 399.592,-187.4217"/>
</g>
<!-- Node1999&#45;&gt;Node1966 -->
<g id="edge35" class="edge">
<title>Node1999&#45;&gt;Node1966</title>
<path fill="none" stroke="#191970" d="M415.6498,-185.0514C442.3725,-190.8874 476.8655,-198.4204 503.8688,-204.3176"/>
<polygon fill="#191970" stroke="#191970" points="416.3368,-181.6191 405.8203,-182.9048 414.8432,-188.4579 416.3368,-181.6191"/>
</g>
<!-- Node1999&#45;&gt;Node1964 -->
<g id="edge36" class="edge">
<title>Node1999&#45;&gt;Node1964</title>
<path fill="none" stroke="#191970" d="M415.9855,-173.3605C464.7804,-171.8288 546.6435,-173.3476 613,-194.8463 645.3734,-205.3349 678.1874,-229.0235 694.9983,-242.3248"/>
<polygon fill="#191970" stroke="#191970" points="415.6605,-169.8701 405.7978,-173.7403 415.9213,-176.8653 415.6605,-169.8701"/>
</g>
<!-- Node2000&#45;&gt;Node1978 -->
<g id="edge38" class="edge">
<title>Node2000&#45;&gt;Node1978</title>
<path fill="none" stroke="#191970" d="M416.6612,-365.8463C446.1665,-365.8463 484.7787,-365.8463 512.3957,-365.8463"/>
<polygon fill="#191970" stroke="#191970" points="416.6377,-362.3464 406.6376,-365.8463 416.6376,-369.3464 416.6377,-362.3464"/>
</g>
<!-- Node2000&#45;&gt;Node1964 -->
<g id="edge39" class="edge">
<title>Node2000&#45;&gt;Node1964</title>
<path fill="none" stroke="#191970" d="M417.0321,-357.1936C475.9792,-345.1849 577.8598,-323.3138 613,-308.8463 643.7643,-296.1804 676.1606,-274.1951 693.5815,-261.5505"/>
<polygon fill="#191970" stroke="#191970" points="416.008,-353.8299 406.9023,-359.2463 417.3983,-360.6905 416.008,-353.8299"/>
</g>
<!-- Node1989&#45;&gt;Node1989 -->
<g id="edge41" class="edge">
<title>Node1989&#45;&gt;Node1989</title>
<path fill="none" stroke="#191970" d="M344.7542,-630.5003C345.9558,-635.7831 355.5377,-639.8463 373.5,-639.8463 400.8711,-639.8463 408.7831,-630.4116 397.2359,-621.6034"/>
<polygon fill="#191970" stroke="#191970" points="347.9072,-632.0342 349.7641,-621.6034 341.8077,-628.5995 347.9072,-632.0342"/>
</g>
<!-- Node1991&#45;&gt;Node1959 -->
<g id="edge47" class="edge">
<title>Node1991&#45;&gt;Node1959</title>
<path fill="none" stroke="#191970" d="M410.0716,-568.7892C431.045,-576.0932 457.9133,-585.2503 482,-592.8463 492.1629,-596.0513 503.2755,-599.3511 513.4141,-602.2829"/>
<polygon fill="#191970" stroke="#191970" points="411.1798,-565.4689 400.5849,-565.472 408.8692,-572.0766 411.1798,-565.4689"/>
</g>
<!-- Node1991&#45;&gt;Node1991 -->
<g id="edge46" class="edge">
<title>Node1991&#45;&gt;Node1991</title>
<path fill="none" stroke="#191970" d="M344.7542,-574.5003C345.9558,-579.7831 355.5377,-583.8463 373.5,-583.8463 400.8711,-583.8463 408.7831,-574.4116 397.2359,-565.6034"/>
<polygon fill="#191970" stroke="#191970" points="347.9072,-576.0342 349.7641,-565.6034 341.8077,-572.5995 347.9072,-576.0342"/>
</g>
<!-- Node1994&#45;&gt;Node1940 -->
<g id="edge54" class="edge">
<title>Node1994&#45;&gt;Node1940</title>
<path fill="none" stroke="#191970" d="M418.7446,-317.9653C449.4501,-311.2595 489.2523,-302.5671 516.4236,-296.6331"/>
<polygon fill="#191970" stroke="#191970" points="417.7344,-314.6033 408.7115,-320.1564 419.228,-321.4422 417.7344,-314.6033"/>
</g>
</g>
</svg>
