<?xml version="1.0" encoding="UTF-8" standalone="no"?>
<!DOCTYPE svg PUBLIC "-//W3C//DTD SVG 1.1//EN"
 "http://www.w3.org/Graphics/SVG/1.1/DTD/svg11.dtd">
<!-- Generated by graphviz version 2.40.1 (20161225.0304)
 -->
<!-- Title: bfdec_rint Pages: 1 -->
<svg width="454pt" height="370pt"
 viewBox="0.00 0.00 454.00 370.00" xmlns="http://www.w3.org/2000/svg" xmlns:xlink="http://www.w3.org/1999/xlink">
<g id="graph0" class="graph" transform="scale(1 1) rotate(0) translate(4 366)">
<title>bfdec_rint</title>
<!-- Node11316 -->
<g id="node1" class="node">
<title>Node11316</title>
<polygon fill="#bfbfbf" stroke="#000000" points="0,-171.5 0,-190.5 65,-190.5 65,-171.5 0,-171.5"/>
<text text-anchor="middle" x="32.5" y="-178.5" font-family="Helvetica,sans-Serif" font-size="10.00" fill="#000000">bfdec_rint</text>
</g>
<!-- Node11317 -->
<g id="node2" class="node">
<title>Node11317</title>
<g id="a_node2"><a xlink:href="libbf_8h.html#a807d4e601bf73a30844a7c84f34961f1" target="_top" xlink:title="bfdec_round">
<polygon fill="none" stroke="#000000" points="101,-171.5 101,-190.5 178,-190.5 178,-171.5 101,-171.5"/>
<text text-anchor="middle" x="139.5" y="-178.5" font-family="Helvetica,sans-Serif" font-size="10.00" fill="#000000">bfdec_round</text>
</a>
</g>
</g>
<!-- Node11316&#45;&gt;Node11317 -->
<g id="edge1" class="edge">
<title>Node11316&#45;&gt;Node11317</title>
<path fill="none" stroke="#191970" d="M65.1849,-181C73.1371,-181 81.8161,-181 90.3468,-181"/>
<polygon fill="#191970" stroke="#191970" points="90.62,-184.5001 100.6199,-181 90.6199,-177.5001 90.62,-184.5001"/>
</g>
<!-- Node11318 -->
<g id="node3" class="node">
<title>Node11318</title>
<g id="a_node3"><a xlink:href="libbf_8c.html#aec64568757dfbfcb93d12168d4a9306a" target="_top" xlink:title="__bfdec_round">
<polygon fill="none" stroke="#000000" points="214,-171.5 214,-190.5 301,-190.5 301,-171.5 214,-171.5"/>
<text text-anchor="middle" x="257.5" y="-178.5" font-family="Helvetica,sans-Serif" font-size="10.00" fill="#000000">__bfdec_round</text>
</a>
</g>
</g>
<!-- Node11317&#45;&gt;Node11318 -->
<g id="edge2" class="edge">
<title>Node11317&#45;&gt;Node11318</title>
<path fill="none" stroke="#191970" d="M178.1376,-181C186.3504,-181 195.1631,-181 203.8217,-181"/>
<polygon fill="#191970" stroke="#191970" points="203.8703,-184.5001 213.8702,-181 203.8702,-177.5001 203.8703,-184.5001"/>
</g>
<!-- Node11319 -->
<g id="node4" class="node">
<title>Node11319</title>
<g id="a_node4"><a xlink:href="libbf_8h.html#a933c9dd8c3450f560876d02e3b36b1a5" target="_top" xlink:title="bf_get_exp_bits">
<polygon fill="none" stroke="#000000" points="344.5,-342.5 344.5,-361.5 438.5,-361.5 438.5,-342.5 344.5,-342.5"/>
<text text-anchor="middle" x="391.5" y="-349.5" font-family="Helvetica,sans-Serif" font-size="10.00" fill="#000000">bf_get_exp_bits</text>
</a>
</g>
</g>
<!-- Node11318&#45;&gt;Node11319 -->
<g id="edge3" class="edge">
<title>Node11318&#45;&gt;Node11319</title>
<path fill="none" stroke="#191970" d="M259.8915,-190.7581C266.9348,-217.4768 290.1125,-292.5214 337,-333 338.9578,-334.6902 341.0749,-336.2328 343.2993,-337.6402"/>
<polygon fill="#191970" stroke="#191970" points="341.8275,-340.8216 352.3002,-342.4258 345.1137,-334.6409 341.8275,-340.8216"/>
</g>
<!-- Node11320 -->
<g id="node5" class="node">
<title>Node11320</title>
<g id="a_node5"><a xlink:href="libbf_8c.html#a17bf08f4c7268d0f16f31fbe1951bf77" target="_top" xlink:title="bfdec_get_rnd_add">
<polygon fill="none" stroke="#ff0000" points="337,-304.5 337,-323.5 446,-323.5 446,-304.5 337,-304.5"/>
<text text-anchor="middle" x="391.5" y="-311.5" font-family="Helvetica,sans-Serif" font-size="10.00" fill="#000000">bfdec_get_rnd_add</text>
</a>
</g>
</g>
<!-- Node11318&#45;&gt;Node11320 -->
<g id="edge4" class="edge">
<title>Node11318&#45;&gt;Node11320</title>
<path fill="none" stroke="#191970" d="M261.7276,-190.7936C271.6521,-212.6655 298.543,-265.8471 337,-295 339.4367,-296.8472 342.0669,-298.524 344.8099,-300.0448"/>
<polygon fill="#191970" stroke="#191970" points="343.3257,-303.2147 353.8553,-304.3883 346.3558,-296.9045 343.3257,-303.2147"/>
</g>
<!-- Node11327 -->
<g id="node6" class="node">
<title>Node11327</title>
<g id="a_node6"><a xlink:href="libbf_8h.html#aa84c22d9104847e3aa0ab161a8c2af22" target="_top" xlink:title="bfdec_resize">
<polygon fill="none" stroke="#ff0000" points="352.5,-266.5 352.5,-285.5 430.5,-285.5 430.5,-266.5 352.5,-266.5"/>
<text text-anchor="middle" x="391.5" y="-273.5" font-family="Helvetica,sans-Serif" font-size="10.00" fill="#000000">bfdec_resize</text>
</a>
</g>
</g>
<!-- Node11318&#45;&gt;Node11327 -->
<g id="edge5" class="edge">
<title>Node11318&#45;&gt;Node11327</title>
<path fill="none" stroke="#191970" d="M265.0754,-190.5253C278.1624,-206.4005 306.5441,-238.362 337,-257 340.3653,-259.0595 343.9848,-260.9349 347.7005,-262.6342"/>
<polygon fill="#191970" stroke="#191970" points="346.4668,-265.9114 357.0453,-266.4998 349.1426,-259.443 346.4668,-265.9114"/>
</g>
<!-- Node11329 -->
<g id="node7" class="node">
<title>Node11329</title>
<g id="a_node7"><a xlink:href="libbf_8h.html#a51327c40664840e14a608d3694536840" target="_top" xlink:title="bfdec_set_inf">
<polygon fill="none" stroke="#ff0000" points="350.5,-228.5 350.5,-247.5 432.5,-247.5 432.5,-228.5 350.5,-228.5"/>
<text text-anchor="middle" x="391.5" y="-235.5" font-family="Helvetica,sans-Serif" font-size="10.00" fill="#000000">bfdec_set_inf</text>
</a>
</g>
</g>
<!-- Node11318&#45;&gt;Node11329 -->
<g id="edge6" class="edge">
<title>Node11318&#45;&gt;Node11329</title>
<path fill="none" stroke="#191970" d="M276.1897,-190.6554C292.1349,-198.7174 315.7823,-210.2618 337,-219 342.038,-221.0748 347.3946,-223.1254 352.7072,-225.0685"/>
<polygon fill="#191970" stroke="#191970" points="351.5492,-228.3714 362.1439,-228.4319 353.8994,-221.7777 351.5492,-228.3714"/>
</g>
<!-- Node11331 -->
<g id="node8" class="node">
<title>Node11331</title>
<g id="a_node8"><a xlink:href="libbf_8h.html#ab992311e37e462dff2a8c330320a06c4" target="_top" xlink:title="bfdec_set_zero">
<polygon fill="none" stroke="#ff0000" points="346.5,-190.5 346.5,-209.5 436.5,-209.5 436.5,-190.5 346.5,-190.5"/>
<text text-anchor="middle" x="391.5" y="-197.5" font-family="Helvetica,sans-Serif" font-size="10.00" fill="#000000">bfdec_set_zero</text>
</a>
</g>
</g>
<!-- Node11318&#45;&gt;Node11331 -->
<g id="edge7" class="edge">
<title>Node11318&#45;&gt;Node11331</title>
<path fill="none" stroke="#191970" d="M301.006,-187.1688C312.2361,-188.7611 324.4746,-190.4964 336.2175,-192.1614"/>
<polygon fill="#191970" stroke="#191970" points="335.9792,-195.6626 346.3716,-193.6012 336.962,-188.7319 335.9792,-195.6626"/>
</g>
<!-- Node11323 -->
<g id="node9" class="node">
<title>Node11323</title>
<g id="a_node9"><a xlink:href="libbf_8c.html#aea07e4f7e665f38255c0d83fafc7d38d" target="_top" xlink:title="fast_shr_dec">
<polygon fill="none" stroke="#ff0000" points="352.5,-152.5 352.5,-171.5 430.5,-171.5 430.5,-152.5 352.5,-152.5"/>
<text text-anchor="middle" x="391.5" y="-159.5" font-family="Helvetica,sans-Serif" font-size="10.00" fill="#000000">fast_shr_dec</text>
</a>
</g>
</g>
<!-- Node11318&#45;&gt;Node11323 -->
<g id="edge8" class="edge">
<title>Node11318&#45;&gt;Node11323</title>
<path fill="none" stroke="#191970" d="M301.006,-174.8312C314.1598,-172.9661 328.6969,-170.9049 342.2007,-168.9902"/>
<polygon fill="#191970" stroke="#191970" points="342.876,-172.4295 352.2856,-167.5603 341.8932,-165.4989 342.876,-172.4295"/>
</g>
<!-- Node11325 -->
<g id="node10" class="node">
<title>Node11325</title>
<g id="a_node10"><a xlink:href="libbf_8c.html#a8f60f7f456c1c9e0253279c3694ad37b" target="_top" xlink:title="floor_div">
<polygon fill="none" stroke="#000000" points="362,-114.5 362,-133.5 421,-133.5 421,-114.5 362,-114.5"/>
<text text-anchor="middle" x="391.5" y="-121.5" font-family="Helvetica,sans-Serif" font-size="10.00" fill="#000000">floor_div</text>
</a>
</g>
</g>
<!-- Node11318&#45;&gt;Node11325 -->
<g id="edge9" class="edge">
<title>Node11318&#45;&gt;Node11325</title>
<path fill="none" stroke="#191970" d="M276.1897,-171.3446C292.1349,-163.2826 315.7823,-151.7382 337,-143 342.038,-140.9252 347.3946,-138.8746 352.7072,-136.9315"/>
<polygon fill="#191970" stroke="#191970" points="353.8994,-140.2223 362.1439,-133.5681 351.5492,-133.6286 353.8994,-140.2223"/>
</g>
<!-- Node11333 -->
<g id="node11" class="node">
<title>Node11333</title>
<g id="a_node11"><a xlink:href="libbf_8c.html#a96547cfade47875f19556d435153ec47" target="_top" xlink:title="mp_add_ui_dec">
<polygon fill="none" stroke="#000000" points="345.5,-76.5 345.5,-95.5 437.5,-95.5 437.5,-76.5 345.5,-76.5"/>
<text text-anchor="middle" x="391.5" y="-83.5" font-family="Helvetica,sans-Serif" font-size="10.00" fill="#000000">mp_add_ui_dec</text>
</a>
</g>
</g>
<!-- Node11318&#45;&gt;Node11333 -->
<g id="edge10" class="edge">
<title>Node11318&#45;&gt;Node11333</title>
<path fill="none" stroke="#191970" d="M265.0754,-171.4747C278.1624,-155.5995 306.5441,-123.638 337,-105 340.3653,-102.9405 343.9848,-101.0651 347.7005,-99.3658"/>
<polygon fill="#191970" stroke="#191970" points="349.1426,-102.557 357.0453,-95.5002 346.4668,-96.0886 349.1426,-102.557"/>
</g>
<!-- Node11334 -->
<g id="node12" class="node">
<title>Node11334</title>
<g id="a_node12"><a xlink:href="libbf_8c.html#a9935a3a4ed68de1174a72bd753c023d8" target="_top" xlink:title="mp_shr_dec">
<polygon fill="none" stroke="#000000" points="354,-38.5 354,-57.5 429,-57.5 429,-38.5 354,-38.5"/>
<text text-anchor="middle" x="391.5" y="-45.5" font-family="Helvetica,sans-Serif" font-size="10.00" fill="#000000">mp_shr_dec</text>
</a>
</g>
</g>
<!-- Node11318&#45;&gt;Node11334 -->
<g id="edge11" class="edge">
<title>Node11318&#45;&gt;Node11334</title>
<path fill="none" stroke="#191970" d="M261.7276,-171.2064C271.6521,-149.3345 298.543,-96.1529 337,-67 339.4367,-65.1528 342.0669,-63.476 344.8099,-61.9552"/>
<polygon fill="#191970" stroke="#191970" points="346.3558,-65.0955 353.8553,-57.6117 343.3257,-58.7853 346.3558,-65.0955"/>
</g>
<!-- Node11335 -->
<g id="node13" class="node">
<title>Node11335</title>
<g id="a_node13"><a xlink:href="libbf_8c.html#aefe50efe66e41318b7df5cb3cd012da1" target="_top" xlink:title="smod">
<polygon fill="none" stroke="#000000" points="369.5,-.5 369.5,-19.5 413.5,-19.5 413.5,-.5 369.5,-.5"/>
<text text-anchor="middle" x="391.5" y="-7.5" font-family="Helvetica,sans-Serif" font-size="10.00" fill="#000000">smod</text>
</a>
</g>
</g>
<!-- Node11318&#45;&gt;Node11335 -->
<g id="edge12" class="edge">
<title>Node11318&#45;&gt;Node11335</title>
<path fill="none" stroke="#191970" d="M259.8915,-171.2419C266.9348,-144.5232 290.1125,-69.4786 337,-29 343.4708,-23.4137 351.6814,-19.4406 359.7535,-16.6259"/>
<polygon fill="#191970" stroke="#191970" points="360.8288,-19.9575 369.4049,-13.7365 358.8212,-13.2516 360.8288,-19.9575"/>
</g>
</g>
</svg>
