<?xml version="1.0" encoding="UTF-8" standalone="no"?>
<!DOCTYPE svg PUBLIC "-//W3C//DTD SVG 1.1//EN"
 "http://www.w3.org/Graphics/SVG/1.1/DTD/svg11.dtd">
<!-- Generated by graphviz version 2.40.1 (20161225.0304)
 -->
<!-- Title: mp_recip Pages: 1 -->
<!--zoomable 636 -->
<svg id="main" version="1.1" xmlns="http://www.w3.org/2000/svg" xmlns:xlink="http://www.w3.org/1999/xlink" xml:space="preserve" onload="init(evt)">
<style type="text/css"><![CDATA[
.edge:hover path { stroke: red; }
.edge:hover polygon { stroke: red; fill: red; }
]]></style>
<script type="text/javascript"><![CDATA[
var edges = document.getElementsByTagName('g');
if (edges && edges.length) {
  for (var i=0;i<edges.length;i++) {
    if (edges[i].id.substr(0,4)=='edge') {
      edges[i].setAttribute('class','edge');
    }
  }
}
]]></script>
        <defs>
                <circle id="rim" cx="0" cy="0" r="7"/>
                <circle id="rim2" cx="0" cy="0" r="3.5"/>
                <g id="zoomPlus">
                        <use xlink:href="#rim" fill="#404040">
                                <set attributeName="fill" to="#808080" begin="zoomplus.mouseover" end="zoomplus.mouseout"/>
                        </use>
                        <path d="M-4,0h8M0,-4v8" fill="none" stroke="white" stroke-width="1.5" pointer-events="none"/>
                </g>
                <g id="zoomMin">
                        <use xlink:href="#rim" fill="#404040">
                                <set attributeName="fill" to="#808080" begin="zoomminus.mouseover" end="zoomminus.mouseout"/>
                        </use>
                        <path d="M-4,0h8" fill="none" stroke="white" stroke-width="1.5" pointer-events="none"/>
                </g>
                <g id="dirArrow">
                        <path fill="none" stroke="white" stroke-width="1.5" d="M0,-3.0v7 M-2.5,-0.5L0,-3.0L2.5,-0.5"/>
                </g>
               <g id="resetDef">
                       <use xlink:href="#rim2" fill="#404040">
                               <set attributeName="fill" to="#808080" begin="reset.mouseover" end="reset.mouseout"/>
                       </use>
               </g>
        </defs>

<script type="text/javascript">
var viewWidth = 668;
var viewHeight = 636;
var sectionId = 'dynsection-87';
</script>
<script xlink:href="svgpan.js"/>
<svg id="graph" class="graph">
<g id="viewport">
<title>mp_recip</title>
<!-- Node3507 -->
<g id="node1" class="node">
<title>Node3507</title>
<polygon fill="#bfbfbf" stroke="#000000" points="0,-445.4291 0,-464.4291 62,-464.4291 62,-445.4291 0,-445.4291"/>
<text text-anchor="middle" x="31" y="-452.4291" font-family="Helvetica,sans-Serif" font-size="10.00" fill="#000000">mp_recip</text>
</g>
<!-- Node3508 -->
<g id="node2" class="node">
<title>Node3508</title>
<g id="a_node2"><a xlink:href="libbf_8h.html#ab8c991bf0d1ab72d676d3c9c3d63c2a7" target="_top" xlink:title="bf_free">
<polygon fill="none" stroke="#000000" points="495,-445.4291 495,-464.4291 546,-464.4291 546,-445.4291 495,-445.4291"/>
<text text-anchor="middle" x="520.5" y="-452.4291" font-family="Helvetica,sans-Serif" font-size="10.00" fill="#000000">bf_free</text>
</a>
</g>
</g>
<!-- Node3507&#45;&gt;Node3508 -->
<g id="edge1" class="edge">
<title>Node3507&#45;&gt;Node3508</title>
<path fill="none" stroke="#191970" d="M62.191,-464.3577C131.9553,-484.0103 305.5088,-524.8952 446,-491.9291 464.3377,-487.6261 483.3284,-478.1033 497.5466,-469.7965"/>
<polygon fill="#191970" stroke="#191970" points="499.411,-472.7592 506.146,-464.5805 495.7807,-466.7741 499.411,-472.7592"/>
</g>
<!-- Node3510 -->
<g id="node4" class="node">
<title>Node3510</title>
<g id="a_node4"><a xlink:href="libbf_8h.html#a7b30173f892a4acfda4ebd0c78edc6ac" target="_top" xlink:title="mp_add">
<polygon fill="none" stroke="#000000" points="492.5,-27.4291 492.5,-46.4291 548.5,-46.4291 548.5,-27.4291 492.5,-27.4291"/>
<text text-anchor="middle" x="520.5" y="-34.4291" font-family="Helvetica,sans-Serif" font-size="10.00" fill="#000000">mp_add</text>
</a>
</g>
</g>
<!-- Node3507&#45;&gt;Node3510 -->
<g id="edge3" class="edge">
<title>Node3507&#45;&gt;Node3510</title>
<path fill="none" stroke="#191970" d="M31.6175,-445.4256C35.1519,-393.4787 54.2161,-143.9917 98,-82.9291 184.5409,37.764 396.1821,-2.8964 482.704,-25.7928"/>
<polygon fill="#191970" stroke="#191970" points="481.8096,-29.1766 492.3772,-28.4178 483.6429,-22.421 481.8096,-29.1766"/>
</g>
<!-- Node3511 -->
<g id="node5" class="node">
<title>Node3511</title>
<g id="a_node5"><a xlink:href="libbf_8c.html#a0b14a84ecf8baf4930b1bcb8621b8e18" target="_top" xlink:title="mp_divnorm">
<polygon fill="none" stroke="#000000" points="98,-198.4291 98,-217.4291 176,-217.4291 176,-198.4291 98,-198.4291"/>
<text text-anchor="middle" x="137" y="-205.4291" font-family="Helvetica,sans-Serif" font-size="10.00" fill="#000000">mp_divnorm</text>
</a>
</g>
</g>
<!-- Node3507&#45;&gt;Node3511 -->
<g id="edge4" class="edge">
<title>Node3507&#45;&gt;Node3511</title>
<path fill="none" stroke="#191970" d="M35.1553,-445.2464C50.986,-408.3578 107.6955,-276.2142 128.9122,-226.7752"/>
<polygon fill="#191970" stroke="#191970" points="132.146,-228.1147 132.8734,-217.5448 125.7133,-225.354 132.146,-228.1147"/>
</g>
<!-- Node3519 -->
<g id="node13" class="node">
<title>Node3519</title>
<g id="a_node13"><a xlink:href="libbf_8h.html#a6cd295d156fefc2f73a5f9de76595262" target="_top" xlink:title="mp_mul">
<polygon fill="none" stroke="#ff0000" points="492.5,-179.4291 492.5,-198.4291 548.5,-198.4291 548.5,-179.4291 492.5,-179.4291"/>
<text text-anchor="middle" x="520.5" y="-186.4291" font-family="Helvetica,sans-Serif" font-size="10.00" fill="#000000">mp_mul</text>
</a>
</g>
</g>
<!-- Node3507&#45;&gt;Node3519 -->
<g id="edge31" class="edge">
<title>Node3507&#45;&gt;Node3519</title>
<path fill="none" stroke="#191970" d="M31.452,-445.2511C34.5281,-392.3049 57.2705,-137.4249 212,-63.9291 305.9959,-19.2814 356.2207,-3.3142 446,-55.9291 488.0962,-80.5994 508.1982,-138.7135 516.1525,-169.3075"/>
<polygon fill="#191970" stroke="#191970" points="512.7975,-170.3248 518.5516,-179.2209 519.6011,-168.6782 512.7975,-170.3248"/>
</g>
<!-- Node3551 -->
<g id="node14" class="node">
<title>Node3551</title>
<g id="a_node14"><a xlink:href="libbf_8h.html#a01be6db77710375febf385d07ad4f1fe" target="_top" xlink:title="mp_recip">
<polygon fill="none" stroke="#000000" points="370,-445.4291 370,-464.4291 432,-464.4291 432,-445.4291 370,-445.4291"/>
<text text-anchor="middle" x="401" y="-452.4291" font-family="Helvetica,sans-Serif" font-size="10.00" fill="#000000">mp_recip</text>
</a>
</g>
</g>
<!-- Node3507&#45;&gt;Node3551 -->
<g id="edge33" class="edge">
<title>Node3507&#45;&gt;Node3551</title>
<path fill="none" stroke="#191970" d="M62.2271,-454.9291C128.8156,-454.9291 284.7693,-454.9291 359.5613,-454.9291"/>
<polygon fill="#191970" stroke="#191970" points="359.987,-458.4292 369.987,-454.9291 359.987,-451.4292 359.987,-458.4292"/>
</g>
<!-- Node3552 -->
<g id="node15" class="node">
<title>Node3552</title>
<g id="a_node15"><a xlink:href="libbf_8c.html#a46c382a2c0fdce3d6a7169762670d7b9" target="_top" xlink:title="mp_scan_nz">
<polygon fill="none" stroke="#000000" points="482,-608.4291 482,-627.4291 559,-627.4291 559,-608.4291 482,-608.4291"/>
<text text-anchor="middle" x="520.5" y="-615.4291" font-family="Helvetica,sans-Serif" font-size="10.00" fill="#000000">mp_scan_nz</text>
</a>
</g>
</g>
<!-- Node3507&#45;&gt;Node3552 -->
<g id="edge34" class="edge">
<title>Node3507&#45;&gt;Node3552</title>
<path fill="none" stroke="#191970" d="M35.1976,-464.4449C44.0121,-483.3127 66.2865,-525.5683 98,-547.9291 212.6222,-628.7475 387.7192,-628.4705 471.9368,-622.7279"/>
<polygon fill="#191970" stroke="#191970" points="472.2741,-626.2126 481.9895,-621.9863 471.7591,-619.2316 472.2741,-626.2126"/>
</g>
<!-- Node3553 -->
<g id="node16" class="node">
<title>Node3553</title>
<g id="a_node16"><a xlink:href="libbf_8c.html#ade2fb6b766b66cbced0bd9b472aff1fe" target="_top" xlink:title="mp_sub_ui">
<polygon fill="none" stroke="#000000" points="486,-563.4291 486,-582.4291 555,-582.4291 555,-563.4291 486,-563.4291"/>
<text text-anchor="middle" x="520.5" y="-570.4291" font-family="Helvetica,sans-Serif" font-size="10.00" fill="#000000">mp_sub_ui</text>
</a>
</g>
</g>
<!-- Node3507&#45;&gt;Node3553 -->
<g id="edge36" class="edge">
<title>Node3507&#45;&gt;Node3553</title>
<path fill="none" stroke="#191970" d="M38.0374,-464.5139C49.0965,-478.8171 71.9857,-505.4989 98,-518.9291 222.8254,-583.3713 395.0507,-581.9081 475.5897,-576.8663"/>
<polygon fill="#191970" stroke="#191970" points="476.1297,-580.3378 485.8708,-576.1712 475.6574,-573.3538 476.1297,-580.3378"/>
</g>
<!-- Node3554 -->
<g id="node17" class="node">
<title>Node3554</title>
<g id="a_node17"><a xlink:href="libbf_8c.html#a0b7f4296ac6df9322b8bc7341039d851" target="_top" xlink:title="mp_sub">
<polygon fill="none" stroke="#000000" points="493,-350.4291 493,-369.4291 548,-369.4291 548,-350.4291 493,-350.4291"/>
<text text-anchor="middle" x="520.5" y="-357.4291" font-family="Helvetica,sans-Serif" font-size="10.00" fill="#000000">mp_sub</text>
</a>
</g>
</g>
<!-- Node3507&#45;&gt;Node3554 -->
<g id="edge35" class="edge">
<title>Node3507&#45;&gt;Node3554</title>
<path fill="none" stroke="#191970" d="M62.3651,-448.8419C148.7028,-432.0858 389.6271,-385.3283 482.9262,-367.2212"/>
<polygon fill="#191970" stroke="#191970" points="483.6306,-370.6499 492.7805,-365.3087 482.2968,-363.7781 483.6306,-370.6499"/>
</g>
<!-- Node3555 -->
<g id="node18" class="node">
<title>Node3555</title>
<g id="a_node18"><a xlink:href="libbf_8c.html#ac4a1dba7585398e01ba844de31a6c95b" target="_top" xlink:title="mp_neg">
<polygon fill="none" stroke="#000000" points="492.5,-511.4291 492.5,-530.4291 548.5,-530.4291 548.5,-511.4291 492.5,-511.4291"/>
<text text-anchor="middle" x="520.5" y="-518.4291" font-family="Helvetica,sans-Serif" font-size="10.00" fill="#000000">mp_neg</text>
</a>
</g>
</g>
<!-- Node3507&#45;&gt;Node3555 -->
<g id="edge32" class="edge">
<title>Node3507&#45;&gt;Node3555</title>
<path fill="none" stroke="#191970" d="M43.6145,-464.4353C56.5665,-473.704 77.6511,-487.4623 98,-494.9291 232.2554,-544.1926 406.5328,-533.5846 482.4117,-525.6617"/>
<polygon fill="#191970" stroke="#191970" points="482.8889,-529.1305 492.451,-524.5681 482.1308,-522.1717 482.8889,-529.1305"/>
</g>
<!-- Node3509 -->
<g id="node3" class="node">
<title>Node3509</title>
<g id="a_node3"><a xlink:href="libbf_8h.html#a524c9e60866c08c75061626a4b5e2f29" target="_top" xlink:title="bf_realloc">
<polygon fill="none" stroke="#000000" points="595,-445.4291 595,-464.4291 660,-464.4291 660,-445.4291 595,-445.4291"/>
<text text-anchor="middle" x="627.5" y="-452.4291" font-family="Helvetica,sans-Serif" font-size="10.00" fill="#000000">bf_realloc</text>
</a>
</g>
</g>
<!-- Node3508&#45;&gt;Node3509 -->
<g id="edge2" class="edge">
<title>Node3508&#45;&gt;Node3509</title>
<path fill="none" stroke="#191970" d="M546.1292,-454.9291C557.6424,-454.9291 571.5447,-454.9291 584.5753,-454.9291"/>
<polygon fill="#191970" stroke="#191970" points="584.7764,-458.4292 594.7764,-454.9291 584.7763,-451.4292 584.7764,-458.4292"/>
</g>
<!-- Node3511&#45;&gt;Node3510 -->
<g id="edge6" class="edge">
<title>Node3511&#45;&gt;Node3510</title>
<path fill="none" stroke="#191970" d="M138.7796,-198.075C144.2062,-171.2049 163.2478,-96.4979 212,-63.9291 295.0424,-8.4526 419.9978,-19.2683 482.3204,-29.381"/>
<polygon fill="#191970" stroke="#191970" points="482.0413,-32.8839 492.4876,-31.1161 483.2189,-25.9837 482.0413,-32.8839"/>
</g>
<!-- Node3512 -->
<g id="node6" class="node">
<title>Node3512</title>
<g id="a_node6"><a xlink:href="libbf_8h.html#a970a1725f8bc59eda655058c5ff6bc52" target="_top" xlink:title="bf_min">
<polygon fill="none" stroke="#000000" points="602.5,-160.4291 602.5,-179.4291 652.5,-179.4291 652.5,-160.4291 602.5,-160.4291"/>
<text text-anchor="middle" x="627.5" y="-167.4291" font-family="Helvetica,sans-Serif" font-size="10.00" fill="#000000">bf_min</text>
</a>
</g>
</g>
<!-- Node3511&#45;&gt;Node3512 -->
<g id="edge5" class="edge">
<title>Node3511&#45;&gt;Node3512</title>
<path fill="none" stroke="#191970" d="M176.2062,-202.1919C240.0878,-193.1639 370.6902,-176.0407 482,-169.9291 519.5144,-167.8693 562.5516,-168.2029 592.0311,-168.8442"/>
<polygon fill="#191970" stroke="#191970" points="592.1616,-172.3482 602.2431,-169.0905 592.3305,-165.3503 592.1616,-172.3482"/>
</g>
<!-- Node3513 -->
<g id="node7" class="node">
<title>Node3513</title>
<g id="a_node7"><a xlink:href="libbf_8c.html#ab2062acf79642a2e95590088d4714633" target="_top" xlink:title="mp_div1norm">
<polygon fill="none" stroke="#000000" points="224,-103.4291 224,-122.4291 308,-122.4291 308,-103.4291 224,-103.4291"/>
<text text-anchor="middle" x="266" y="-110.4291" font-family="Helvetica,sans-Serif" font-size="10.00" fill="#000000">mp_div1norm</text>
</a>
</g>
</g>
<!-- Node3511&#45;&gt;Node3513 -->
<g id="edge7" class="edge">
<title>Node3511&#45;&gt;Node3513</title>
<path fill="none" stroke="#191970" d="M145.3717,-198.0994C158.3966,-183.2813 184.8502,-155.0334 212,-136.9291 217.7348,-133.1049 224.179,-129.6349 230.5651,-126.5966"/>
<polygon fill="#191970" stroke="#191970" points="232.0959,-129.7461 239.7907,-122.4631 229.2337,-123.358 232.0959,-129.7461"/>
</g>
<!-- Node3514 -->
<g id="node8" class="node">
<title>Node3514</title>
<g id="a_node8"><a xlink:href="libbf_8c.html#a6a9d2c1c8274c181a1fc9df04945ab8a" target="_top" xlink:title="udiv1norm">
<polygon fill="none" stroke="#000000" points="366.5,-103.4291 366.5,-122.4291 435.5,-122.4291 435.5,-103.4291 366.5,-103.4291"/>
<text text-anchor="middle" x="401" y="-110.4291" font-family="Helvetica,sans-Serif" font-size="10.00" fill="#000000">udiv1norm</text>
</a>
</g>
</g>
<!-- Node3511&#45;&gt;Node3514 -->
<g id="edge29" class="edge">
<title>Node3511&#45;&gt;Node3514</title>
<path fill="none" stroke="#191970" d="M157.1497,-198.4232C172.1232,-191.5168 193.1358,-182.1536 212,-174.9291 261.7337,-155.8823 320.1359,-137.2835 358.7137,-125.5052"/>
<polygon fill="#191970" stroke="#191970" points="360.0088,-128.7698 368.5606,-122.5155 357.9751,-122.0717 360.0088,-128.7698"/>
</g>
<!-- Node3515 -->
<g id="node9" class="node">
<title>Node3515</title>
<g id="a_node9"><a xlink:href="libbf_8c.html#a2ac8ca76c2d20f74b94372386d6fcd57" target="_top" xlink:title="udiv1norm_init">
<polygon fill="none" stroke="#000000" points="356,-65.4291 356,-84.4291 446,-84.4291 446,-65.4291 356,-65.4291"/>
<text text-anchor="middle" x="401" y="-72.4291" font-family="Helvetica,sans-Serif" font-size="10.00" fill="#000000">udiv1norm_init</text>
</a>
</g>
</g>
<!-- Node3511&#45;&gt;Node3515 -->
<g id="edge30" class="edge">
<title>Node3511&#45;&gt;Node3515</title>
<path fill="none" stroke="#191970" d="M140.1395,-198.1609C148.0346,-175.3661 171.0662,-118.7194 212,-93.9291 252.0916,-69.6488 305.9225,-66.4723 345.8794,-68.4504"/>
<polygon fill="#191970" stroke="#191970" points="345.7838,-71.9511 355.9804,-69.0737 346.215,-64.9644 345.7838,-71.9511"/>
</g>
<!-- Node3516 -->
<g id="node10" class="node">
<title>Node3516</title>
<g id="a_node10"><a xlink:href="libbf_8c.html#ae8bc748c521cf9e366c02ba403b2d8c0" target="_top" xlink:title="mp_divnorm_large">
<polygon fill="none" stroke="#000000" points="212,-293.4291 212,-312.4291 320,-312.4291 320,-293.4291 212,-293.4291"/>
<text text-anchor="middle" x="266" y="-300.4291" font-family="Helvetica,sans-Serif" font-size="10.00" fill="#000000">mp_divnorm_large</text>
</a>
</g>
</g>
<!-- Node3511&#45;&gt;Node3516 -->
<g id="edge10" class="edge">
<title>Node3511&#45;&gt;Node3516</title>
<path fill="none" stroke="#191970" d="M144.0284,-217.4702C156.2004,-233.3688 182.7256,-265.3639 212,-283.9291 215.1657,-285.9367 218.5708,-287.7652 222.0761,-289.4237"/>
<polygon fill="#191970" stroke="#191970" points="220.9204,-292.7354 231.4929,-293.4234 223.657,-286.2925 220.9204,-292.7354"/>
</g>
<!-- Node3511&#45;&gt;Node3554 -->
<g id="edge27" class="edge">
<title>Node3511&#45;&gt;Node3554</title>
<path fill="none" stroke="#191970" d="M176.1701,-208.6976C248.9798,-210.7759 401.7875,-218.3846 446,-245.9291 481.6274,-268.125 503.6702,-314.3639 513.8352,-340.6223"/>
<polygon fill="#191970" stroke="#191970" points="510.6291,-342.0448 517.3648,-350.2228 517.1991,-339.6293 510.6291,-342.0448"/>
</g>
<!-- Node3556 -->
<g id="node19" class="node">
<title>Node3556</title>
<g id="a_node19"><a xlink:href="libbf_8c.html#a227bd29d81f75c3d343f2841f46be9ed" target="_top" xlink:title="mp_sub_mul1">
<polygon fill="none" stroke="#000000" points="223.5,-255.4291 223.5,-274.4291 308.5,-274.4291 308.5,-255.4291 223.5,-255.4291"/>
<text text-anchor="middle" x="266" y="-262.4291" font-family="Helvetica,sans-Serif" font-size="10.00" fill="#000000">mp_sub_mul1</text>
</a>
</g>
</g>
<!-- Node3511&#45;&gt;Node3556 -->
<g id="edge28" class="edge">
<title>Node3511&#45;&gt;Node3556</title>
<path fill="none" stroke="#191970" d="M158.5917,-217.4696C179.5208,-226.7173 211.4809,-240.8392 235.1007,-251.2759"/>
<polygon fill="#191970" stroke="#191970" points="233.7764,-254.5171 244.3379,-255.3574 236.6056,-248.1143 233.7764,-254.5171"/>
</g>
<!-- Node3513&#45;&gt;Node3514 -->
<g id="edge8" class="edge">
<title>Node3513&#45;&gt;Node3514</title>
<path fill="none" stroke="#191970" d="M308.3444,-112.9291C323.5487,-112.9291 340.7401,-112.9291 356.15,-112.9291"/>
<polygon fill="#191970" stroke="#191970" points="356.4875,-116.4292 366.4874,-112.9291 356.4874,-109.4292 356.4875,-116.4292"/>
</g>
<!-- Node3513&#45;&gt;Node3515 -->
<g id="edge9" class="edge">
<title>Node3513&#45;&gt;Node3515</title>
<path fill="none" stroke="#191970" d="M300.0662,-103.3401C317.4135,-98.4571 338.7022,-92.4647 357.2492,-87.2441"/>
<polygon fill="#191970" stroke="#191970" points="358.2671,-90.5937 366.9447,-84.515 356.3704,-83.8555 358.2671,-90.5937"/>
</g>
<!-- Node3516&#45;&gt;Node3508 -->
<g id="edge11" class="edge">
<title>Node3516&#45;&gt;Node3508</title>
<path fill="none" stroke="#191970" d="M280.8526,-312.5976C298.601,-324.09 329.2577,-343.7479 356,-359.9291 404.2806,-389.1424 461.511,-421.7452 494.1576,-440.1552"/>
<polygon fill="#191970" stroke="#191970" points="492.6436,-443.3194 503.0746,-445.1753 496.0777,-437.2196 492.6436,-443.3194"/>
</g>
<!-- Node3517 -->
<g id="node11" class="node">
<title>Node3517</title>
<g id="a_node11"><a xlink:href="libbf_8h.html#ababed0842811906072217767078cef22" target="_top" xlink:title="mp_add_ui">
<polygon fill="none" stroke="#000000" points="366,-255.4291 366,-274.4291 436,-274.4291 436,-255.4291 366,-255.4291"/>
<text text-anchor="middle" x="401" y="-262.4291" font-family="Helvetica,sans-Serif" font-size="10.00" fill="#000000">mp_add_ui</text>
</a>
</g>
</g>
<!-- Node3516&#45;&gt;Node3517 -->
<g id="edge12" class="edge">
<title>Node3516&#45;&gt;Node3517</title>
<path fill="none" stroke="#191970" d="M300.0662,-293.3401C317.4135,-288.4571 338.7022,-282.4647 357.2492,-277.2441"/>
<polygon fill="#191970" stroke="#191970" points="358.2671,-280.5937 366.9447,-274.515 356.3704,-273.8555 358.2671,-280.5937"/>
</g>
<!-- Node3518 -->
<g id="node12" class="node">
<title>Node3518</title>
<g id="a_node12"><a xlink:href="libbf_8c.html#a66fdea7600a7136f7307cc09ce6e7ec3" target="_top" xlink:title="mp_cmp">
<polygon fill="none" stroke="#000000" points="371.5,-331.4291 371.5,-350.4291 430.5,-350.4291 430.5,-331.4291 371.5,-331.4291"/>
<text text-anchor="middle" x="401" y="-338.4291" font-family="Helvetica,sans-Serif" font-size="10.00" fill="#000000">mp_cmp</text>
</a>
</g>
</g>
<!-- Node3516&#45;&gt;Node3518 -->
<g id="edge13" class="edge">
<title>Node3516&#45;&gt;Node3518</title>
<path fill="none" stroke="#191970" d="M300.0662,-312.5181C318.6907,-317.7605 341.8584,-324.2818 361.2986,-329.7539"/>
<polygon fill="#191970" stroke="#191970" points="360.5067,-333.1669 371.081,-332.5074 362.4034,-326.4287 360.5067,-333.1669"/>
</g>
<!-- Node3516&#45;&gt;Node3519 -->
<g id="edge14" class="edge">
<title>Node3516&#45;&gt;Node3519</title>
<path fill="none" stroke="#191970" d="M300.852,-293.4091C307.481,-290.8505 314.1633,-287.7146 320,-283.9291 339.5186,-271.2698 336.4512,-258.5418 356,-245.9291 395.4123,-220.5005 447.4887,-204.9557 482.3937,-196.6557"/>
<polygon fill="#191970" stroke="#191970" points="483.235,-200.0537 492.1997,-194.407 481.6704,-193.2308 483.235,-200.0537"/>
</g>
<!-- Node3516&#45;&gt;Node3551 -->
<g id="edge16" class="edge">
<title>Node3516&#45;&gt;Node3551</title>
<path fill="none" stroke="#191970" d="M280.1397,-312.6237C291.5478,-320.8 307.6695,-333.1797 320,-345.9291 327.6168,-353.8046 366.8779,-407.711 387.8133,-436.6497"/>
<polygon fill="#191970" stroke="#191970" points="385.2096,-439.0224 393.9033,-445.078 390.8835,-434.9227 385.2096,-439.0224"/>
</g>
<!-- Node3516&#45;&gt;Node3554 -->
<g id="edge26" class="edge">
<title>Node3516&#45;&gt;Node3554</title>
<path fill="none" stroke="#191970" d="M320.1673,-303.5088C356.4342,-305.1371 404.8785,-309.7287 446,-321.9291 464.0412,-327.2817 482.9106,-336.9548 497.1453,-345.2015"/>
<polygon fill="#191970" stroke="#191970" points="495.3948,-348.2328 505.7749,-350.3551 498.9839,-342.2229 495.3948,-348.2328"/>
</g>
<!-- Node3519&#45;&gt;Node3512 -->
<g id="edge15" class="edge">
<title>Node3519&#45;&gt;Node3512</title>
<path fill="none" stroke="#191970" d="M548.613,-183.937C562.0657,-181.5482 578.3064,-178.6644 592.5465,-176.1358"/>
<polygon fill="#191970" stroke="#191970" points="593.2594,-179.564 602.4935,-174.3695 592.0355,-172.6718 593.2594,-179.564"/>
</g>
<!-- Node3551&#45;&gt;Node3508 -->
<g id="edge25" class="edge">
<title>Node3551&#45;&gt;Node3508</title>
<path fill="none" stroke="#191970" d="M432.0853,-454.9291C448.0827,-454.9291 467.673,-454.9291 484.3439,-454.9291"/>
<polygon fill="#191970" stroke="#191970" points="484.8104,-458.4292 494.8104,-454.9291 484.8103,-451.4292 484.8104,-458.4292"/>
</g>
<!-- Node3551&#45;&gt;Node3510 -->
<g id="edge24" class="edge">
<title>Node3551&#45;&gt;Node3510</title>
<path fill="none" stroke="#191970" d="M406.5897,-445.2867C416.0874,-428.4944 435.3764,-392.5525 446,-359.9291 472.6126,-278.2061 462.0286,-253.5234 482,-169.9291 491.7751,-129.0136 506.1768,-81.8863 514.3119,-56.1597"/>
<polygon fill="#191970" stroke="#191970" points="517.6807,-57.1154 517.3829,-46.5248 511.0113,-54.9896 517.6807,-57.1154"/>
</g>
<!-- Node3551&#45;&gt;Node3511 -->
<g id="edge17" class="edge">
<title>Node3551&#45;&gt;Node3511</title>
<path fill="none" stroke="#191970" d="M382.9211,-445.2921C347.1939,-425.6272 266.3111,-377.9674 212,-321.9291 183.4351,-292.4557 159.1832,-250.6629 146.4893,-226.724"/>
<polygon fill="#191970" stroke="#191970" points="149.4908,-224.9092 141.7778,-217.6455 143.2776,-228.1337 149.4908,-224.9092"/>
</g>
<!-- Node3551&#45;&gt;Node3519 -->
<g id="edge21" class="edge">
<title>Node3551&#45;&gt;Node3519</title>
<path fill="none" stroke="#191970" d="M405.7007,-445.2661C414.0014,-428.1459 431.7271,-391.3296 446,-359.9291 470.9208,-305.1029 498.9512,-239.689 512.421,-208.0058"/>
<polygon fill="#191970" stroke="#191970" points="515.7202,-209.1909 516.4053,-198.6182 509.2765,-206.456 515.7202,-209.1909"/>
</g>
<!-- Node3551&#45;&gt;Node3551 -->
<g id="edge20" class="edge">
<title>Node3551&#45;&gt;Node3551</title>
<path fill="none" stroke="#191970" d="M382.8128,-464.6861C373.9649,-473.4943 380.0273,-482.9291 401,-482.9291 414.4356,-482.9291 421.752,-479.057 422.9493,-473.9582"/>
<polygon fill="#191970" stroke="#191970" points="426.1902,-472.6365 419.1872,-464.6861 419.7038,-475.2684 426.1902,-472.6365"/>
</g>
<!-- Node3551&#45;&gt;Node3552 -->
<g id="edge18" class="edge">
<title>Node3551&#45;&gt;Node3552</title>
<path fill="none" stroke="#191970" d="M404.8851,-464.5111C414.8652,-488.2621 443.3563,-550.8936 482,-591.9291 485.6391,-595.7934 489.9515,-599.3891 494.3507,-602.5991"/>
<polygon fill="#191970" stroke="#191970" points="492.5136,-605.5815 502.7628,-608.2654 496.4243,-599.7758 492.5136,-605.5815"/>
</g>
<!-- Node3551&#45;&gt;Node3553 -->
<g id="edge19" class="edge">
<title>Node3551&#45;&gt;Node3553</title>
<path fill="none" stroke="#191970" d="M409.6868,-464.6663C424.198,-480.7877 454.4933,-513.8346 482,-539.9291 487.9716,-545.5941 494.7169,-551.523 500.8741,-556.7675"/>
<polygon fill="#191970" stroke="#191970" points="498.8694,-559.6544 508.7779,-563.4056 503.3713,-554.2941 498.8694,-559.6544"/>
</g>
<!-- Node3551&#45;&gt;Node3554 -->
<g id="edge22" class="edge">
<title>Node3551&#45;&gt;Node3554</title>
<path fill="none" stroke="#191970" d="M421.8598,-445.297C429.7096,-441.2938 438.5359,-436.3217 446,-430.9291 468.2399,-414.8612 490.6053,-392.5226 504.9433,-377.2178"/>
<polygon fill="#191970" stroke="#191970" points="507.8302,-379.2498 512.0311,-369.5233 502.6816,-374.5071 507.8302,-379.2498"/>
</g>
<!-- Node3551&#45;&gt;Node3555 -->
<g id="edge23" class="edge">
<title>Node3551&#45;&gt;Node3555</title>
<path fill="none" stroke="#191970" d="M418.3763,-464.526C438.2892,-475.5239 471.1386,-493.6667 494.1915,-506.3988"/>
<polygon fill="#191970" stroke="#191970" points="492.6569,-509.5496 503.1027,-511.3205 496.0412,-503.422 492.6569,-509.5496"/>
</g>
</g>
</svg>
        <g id="navigator" transform="translate(0 0)" fill="#404254">
                <rect fill="#f2f5e9" fill-opacity="0.5" stroke="#606060" stroke-width=".5" x="0" y="0" width="60" height="60"/>
                <use id="zoomplus" xlink:href="#zoomPlus" x="17" y="9" onmousedown="handleZoom(evt,'in')"/>
                <use id="zoomminus" xlink:href="#zoomMin" x="42" y="9" onmousedown="handleZoom(evt,'out')"/>
                <use id="reset" xlink:href="#resetDef" x="30" y="36" onmousedown="handleReset()"/>
                <g id="arrowUp" xlink:href="#dirArrow" transform="translate(30 24)" onmousedown="handlePan(0,-1)">
                  <use xlink:href="#rim" fill="#404040">
                        <set attributeName="fill" to="#808080" begin="arrowUp.mouseover" end="arrowUp.mouseout"/>
                  </use>
                  <path fill="none" stroke="white" stroke-width="1.5" d="M0,-3.0v7 M-2.5,-0.5L0,-3.0L2.5,-0.5"/>
                </g>
                <g id="arrowRight" xlink:href="#dirArrow" transform="rotate(90) translate(36 -43)" onmousedown="handlePan(1,0)">
                  <use xlink:href="#rim" fill="#404040">
                        <set attributeName="fill" to="#808080" begin="arrowRight.mouseover" end="arrowRight.mouseout"/>
                  </use>
                  <path fill="none" stroke="white" stroke-width="1.5" d="M0,-3.0v7 M-2.5,-0.5L0,-3.0L2.5,-0.5"/>
                </g>
                <g id="arrowDown" xlink:href="#dirArrow" transform="rotate(180) translate(-30 -48)" onmousedown="handlePan(0,1)">
                  <use xlink:href="#rim" fill="#404040">
                        <set attributeName="fill" to="#808080" begin="arrowDown.mouseover" end="arrowDown.mouseout"/>
                  </use>
                  <path fill="none" stroke="white" stroke-width="1.5" d="M0,-3.0v7 M-2.5,-0.5L0,-3.0L2.5,-0.5"/>
                </g>
                <g id="arrowLeft" xlink:href="#dirArrow" transform="rotate(270) translate(-36 17)" onmousedown="handlePan(-1,0)">
                  <use xlink:href="#rim" fill="#404040">
                        <set attributeName="fill" to="#808080" begin="arrowLeft.mouseover" end="arrowLeft.mouseout"/>
                  </use>
                  <path fill="none" stroke="white" stroke-width="1.5" d="M0,-3.0v7 M-2.5,-0.5L0,-3.0L2.5,-0.5"/>
                </g>
        </g>
        <svg viewBox="0 0 15 15" width="100%" height="30px" preserveAspectRatio="xMaxYMin meet">
         <g id="arrow_out" transform="scale(0.3 0.3)">
          <a xlink:href="libbf_8c_a01be6db77710375febf385d07ad4f1fe_cgraph_org.svg" target="_base">
           <rect id="button" ry="5" rx="5" y="6" x="6" height="38" width="38"
                fill="#f2f5e9" fill-opacity="0.5" stroke="#606060" stroke-width="1.0"/>
           <path id="arrow"
             d="M 11.500037,31.436501 C 11.940474,20.09759 22.043105,11.32322 32.158766,21.979434 L 37.068811,17.246167 C 37.068811,17.246167 37.088388,32 37.088388,32 L 22.160133,31.978069 C 22.160133,31.978069 26.997745,27.140456 26.997745,27.140456 C 18.528582,18.264221 13.291696,25.230495 11.500037,31.436501 z"
             style="fill:#404040;"/>
          </a>
         </g>
        </svg>
</svg>
