<?xml version="1.0" encoding="UTF-8" standalone="no"?>
<!DOCTYPE svg PUBLIC "-//W3C//DTD SVG 1.1//EN"
 "http://www.w3.org/Graphics/SVG/1.1/DTD/svg11.dtd">
<!-- Generated by graphviz version 2.40.1 (20161225.0304)
 -->
<!-- Title: bfdec_get_rnd_add Pages: 1 -->
<svg width="543pt" height="332pt"
 viewBox="0.00 0.00 543.00 332.00" xmlns="http://www.w3.org/2000/svg" xmlns:xlink="http://www.w3.org/1999/xlink">
<g id="graph0" class="graph" transform="scale(1 1) rotate(0) translate(4 328)">
<title>bfdec_get_rnd_add</title>
<!-- Node10471 -->
<g id="node1" class="node">
<title>Node10471</title>
<polygon fill="#bfbfbf" stroke="#000000" points="0,-152.5 0,-171.5 109,-171.5 109,-152.5 0,-152.5"/>
<text text-anchor="middle" x="54.5" y="-159.5" font-family="Helvetica,sans-Serif" font-size="10.00" fill="#000000">bfdec_get_rnd_add</text>
</g>
<!-- Node10472 -->
<g id="node2" class="node">
<title>Node10472</title>
<g id="a_node2"><a xlink:href="libbf_8c.html#aec64568757dfbfcb93d12168d4a9306a" target="_top" xlink:title="__bfdec_round">
<polygon fill="none" stroke="#000000" points="145,-152.5 145,-171.5 232,-171.5 232,-152.5 145,-152.5"/>
<text text-anchor="middle" x="188.5" y="-159.5" font-family="Helvetica,sans-Serif" font-size="10.00" fill="#000000">__bfdec_round</text>
</a>
</g>
</g>
<!-- Node10471&#45;&gt;Node10472 -->
<g id="edge1" class="edge">
<title>Node10471&#45;&gt;Node10472</title>
<path fill="none" stroke="#191970" d="M119.1235,-162C127.7952,-162 136.5201,-162 144.7161,-162"/>
<polygon fill="#191970" stroke="#191970" points="119.003,-158.5001 109.0029,-162 119.0029,-165.5001 119.003,-158.5001"/>
</g>
<!-- Node10473 -->
<g id="node3" class="node">
<title>Node10473</title>
<g id="a_node3"><a xlink:href="libbf_8h.html#a807d4e601bf73a30844a7c84f34961f1" target="_top" xlink:title="bfdec_round">
<polygon fill="none" stroke="#000000" points="290,-228.5 290,-247.5 367,-247.5 367,-228.5 290,-228.5"/>
<text text-anchor="middle" x="328.5" y="-235.5" font-family="Helvetica,sans-Serif" font-size="10.00" fill="#000000">bfdec_round</text>
</a>
</g>
</g>
<!-- Node10472&#45;&gt;Node10473 -->
<g id="edge2" class="edge">
<title>Node10472&#45;&gt;Node10473</title>
<path fill="none" stroke="#191970" d="M215.1279,-176.4551C243.2532,-191.7232 286.7953,-215.3603 310.9129,-228.4527"/>
<polygon fill="#191970" stroke="#191970" points="216.6895,-173.3204 206.2311,-171.6255 213.3498,-179.4724 216.6895,-173.3204"/>
</g>
<!-- Node10481 -->
<g id="node8" class="node">
<title>Node10481</title>
<g id="a_node8"><a xlink:href="libbf_8h.html#acd3459551d5c61344889ba07a276b0a0" target="_top" xlink:title="bfdec_normalize_and\l_round">
<polygon fill="none" stroke="#000000" points="268,-90 268,-120 389,-120 389,-90 268,-90"/>
<text text-anchor="start" x="276" y="-108" font-family="Helvetica,sans-Serif" font-size="10.00" fill="#000000">bfdec_normalize_and</text>
<text text-anchor="middle" x="328.5" y="-97" font-family="Helvetica,sans-Serif" font-size="10.00" fill="#000000">_round</text>
</a>
</g>
</g>
<!-- Node10472&#45;&gt;Node10481 -->
<g id="edge7" class="edge">
<title>Node10472&#45;&gt;Node10481</title>
<path fill="none" stroke="#191970" d="M221.4072,-148.6021C242.4426,-140.0376 269.7621,-128.9147 291.5428,-120.0468"/>
<polygon fill="#191970" stroke="#191970" points="219.8748,-145.4469 211.9329,-152.4595 222.5145,-151.9302 219.8748,-145.4469"/>
</g>
<!-- Node10474 -->
<g id="node4" class="node">
<title>Node10474</title>
<g id="a_node4"><a xlink:href="libbf_8c.html#ad79aefc435021a0743c89cb4aec7fa56" target="_top" xlink:title="bf_ftoa_internal">
<polygon fill="none" stroke="#ff0000" points="433,-304.5 433,-323.5 527,-323.5 527,-304.5 433,-304.5"/>
<text text-anchor="middle" x="480" y="-311.5" font-family="Helvetica,sans-Serif" font-size="10.00" fill="#000000">bf_ftoa_internal</text>
</a>
</g>
</g>
<!-- Node10473&#45;&gt;Node10474 -->
<g id="edge3" class="edge">
<title>Node10473&#45;&gt;Node10474</title>
<path fill="none" stroke="#191970" d="M351.3172,-253.2543C370.4364,-265.596 398.7424,-282.8598 425,-295 432.5191,-298.4765 440.8643,-301.6752 448.7349,-304.4175"/>
<polygon fill="#191970" stroke="#191970" points="353.0042,-250.1757 342.7185,-247.635 349.1748,-256.0354 353.0042,-250.1757"/>
</g>
<!-- Node10477 -->
<g id="node5" class="node">
<title>Node10477</title>
<g id="a_node5"><a xlink:href="libbf_8h.html#a318508be097917ddd5d1ce187edea68b" target="_top" xlink:title="bfdec_divrem">
<polygon fill="none" stroke="#ff0000" points="438.5,-266.5 438.5,-285.5 521.5,-285.5 521.5,-266.5 438.5,-266.5"/>
<text text-anchor="middle" x="480" y="-273.5" font-family="Helvetica,sans-Serif" font-size="10.00" fill="#000000">bfdec_divrem</text>
</a>
</g>
</g>
<!-- Node10473&#45;&gt;Node10477 -->
<g id="edge4" class="edge">
<title>Node10473&#45;&gt;Node10477</title>
<path fill="none" stroke="#191970" d="M376.5016,-250.04C397.6668,-255.3488 422.1858,-261.4988 442.0451,-266.4799"/>
<polygon fill="#191970" stroke="#191970" points="377.2809,-246.6271 366.7298,-247.589 375.5779,-253.4168 377.2809,-246.6271"/>
</g>
<!-- Node10479 -->
<g id="node6" class="node">
<title>Node10479</title>
<g id="a_node6"><a xlink:href="libbf_8h.html#ab6867737ba58696fdc9de82a5dea003d" target="_top" xlink:title="bfdec_rint">
<polygon fill="none" stroke="#000000" points="447.5,-228.5 447.5,-247.5 512.5,-247.5 512.5,-228.5 447.5,-228.5"/>
<text text-anchor="middle" x="480" y="-235.5" font-family="Helvetica,sans-Serif" font-size="10.00" fill="#000000">bfdec_rint</text>
</a>
</g>
</g>
<!-- Node10473&#45;&gt;Node10479 -->
<g id="edge5" class="edge">
<title>Node10473&#45;&gt;Node10479</title>
<path fill="none" stroke="#191970" d="M377.3074,-238C400.128,-238 426.6997,-238 447.0961,-238"/>
<polygon fill="#191970" stroke="#191970" points="377.1219,-234.5001 367.1218,-238 377.1218,-241.5001 377.1219,-234.5001"/>
</g>
<!-- Node10480 -->
<g id="node7" class="node">
<title>Node10480</title>
<g id="a_node7"><a xlink:href="libbf_8h.html#aadf1781139c916e6ccb6ea473bf5a2d1" target="_top" xlink:title="bfdec_sqrt">
<polygon fill="none" stroke="#000000" points="446,-190.5 446,-209.5 514,-209.5 514,-190.5 446,-190.5"/>
<text text-anchor="middle" x="480" y="-197.5" font-family="Helvetica,sans-Serif" font-size="10.00" fill="#000000">bfdec_sqrt</text>
</a>
</g>
</g>
<!-- Node10473&#45;&gt;Node10480 -->
<g id="edge6" class="edge">
<title>Node10473&#45;&gt;Node10480</title>
<path fill="none" stroke="#191970" d="M376.4677,-225.9685C399.0388,-220.3071 425.43,-213.6875 445.9178,-208.5487"/>
<polygon fill="#191970" stroke="#191970" points="375.5779,-222.5832 366.7298,-228.411 377.2809,-229.3729 375.5779,-222.5832"/>
</g>
<!-- Node10482 -->
<g id="node9" class="node">
<title>Node10482</title>
<g id="a_node9"><a xlink:href="libbf_8c.html#aaaeb6c790a8b174f3c5631ee33c81910" target="_top" xlink:title="bf_atof_internal">
<polygon fill="none" stroke="#ff0000" points="433,-152.5 433,-171.5 527,-171.5 527,-152.5 433,-152.5"/>
<text text-anchor="middle" x="480" y="-159.5" font-family="Helvetica,sans-Serif" font-size="10.00" fill="#000000">bf_atof_internal</text>
</a>
</g>
</g>
<!-- Node10481&#45;&gt;Node10482 -->
<g id="edge8" class="edge">
<title>Node10481&#45;&gt;Node10482</title>
<path fill="none" stroke="#191970" d="M375.435,-123.9449C391.1388,-130.1598 408.7751,-137.0061 425,-143 433.6235,-146.1858 443.0659,-149.5074 451.6554,-152.4659"/>
<polygon fill="#191970" stroke="#191970" points="376.5224,-120.6108 365.9367,-120.17 373.9371,-127.1159 376.5224,-120.6108"/>
</g>
<!-- Node10486 -->
<g id="node10" class="node">
<title>Node10486</title>
<g id="a_node10"><a xlink:href="libbf_8h.html#a3a0734cc58dd4feba2c300d053f53e36" target="_top" xlink:title="bfdec_set_ui">
<polygon fill="none" stroke="#ff0000" points="441,-114.5 441,-133.5 519,-133.5 519,-114.5 441,-114.5"/>
<text text-anchor="middle" x="480" y="-121.5" font-family="Helvetica,sans-Serif" font-size="10.00" fill="#000000">bfdec_set_ui</text>
</a>
</g>
</g>
<!-- Node10481&#45;&gt;Node10486 -->
<g id="edge9" class="edge">
<title>Node10481&#45;&gt;Node10486</title>
<path fill="none" stroke="#191970" d="M399.4732,-113.9009C413.609,-115.6737 427.9674,-117.4745 440.569,-119.0549"/>
<polygon fill="#191970" stroke="#191970" points="399.6057,-110.3902 389.2479,-112.6185 398.7346,-117.3358 399.6057,-110.3902"/>
</g>
<!-- Node10492 -->
<g id="node11" class="node">
<title>Node10492</title>
<g id="a_node11"><a xlink:href="libbf_8c.html#adab81046eaf5fc5a75e1bae96b75be66" target="_top" xlink:title="bfdec_add_internal">
<polygon fill="none" stroke="#ff0000" points="425,-76.5 425,-95.5 535,-95.5 535,-76.5 425,-76.5"/>
<text text-anchor="middle" x="480" y="-83.5" font-family="Helvetica,sans-Serif" font-size="10.00" fill="#000000">bfdec_add_internal</text>
</a>
</g>
</g>
<!-- Node10481&#45;&gt;Node10492 -->
<g id="edge10" class="edge">
<title>Node10481&#45;&gt;Node10492</title>
<path fill="none" stroke="#191970" d="M399.2027,-96.133C407.7386,-95.0625 416.3603,-93.9812 424.6318,-92.9439"/>
<polygon fill="#191970" stroke="#191970" points="398.7346,-92.6642 389.2479,-97.3815 399.6057,-99.6098 398.7346,-92.6642"/>
</g>
<!-- Node10497 -->
<g id="node12" class="node">
<title>Node10497</title>
<g id="a_node12"><a xlink:href="libbf_8h.html#a2afc9f7c942c27cc609877c776dd9a69" target="_top" xlink:title="bfdec_mul">
<polygon fill="none" stroke="#ff0000" points="446,-38.5 446,-57.5 514,-57.5 514,-38.5 446,-38.5"/>
<text text-anchor="middle" x="480" y="-45.5" font-family="Helvetica,sans-Serif" font-size="10.00" fill="#000000">bfdec_mul</text>
</a>
</g>
</g>
<!-- Node10481&#45;&gt;Node10497 -->
<g id="edge11" class="edge">
<title>Node10481&#45;&gt;Node10497</title>
<path fill="none" stroke="#191970" d="M375.435,-86.0551C391.1388,-79.8402 408.7751,-72.9939 425,-67 433.6235,-63.8142 443.0659,-60.4926 451.6554,-57.5341"/>
<polygon fill="#191970" stroke="#191970" points="373.9371,-82.8841 365.9367,-89.83 376.5224,-89.3892 373.9371,-82.8841"/>
</g>
<!-- Node10498 -->
<g id="node13" class="node">
<title>Node10498</title>
<g id="a_node13"><a xlink:href="libbf_8c.html#ab0fc8c7b5ee65f945fae1794494865f1" target="_top" xlink:title="__bfdec_div">
<polygon fill="none" stroke="#ff0000" points="443,-.5 443,-19.5 517,-19.5 517,-.5 443,-.5"/>
<text text-anchor="middle" x="480" y="-7.5" font-family="Helvetica,sans-Serif" font-size="10.00" fill="#000000">__bfdec_div</text>
</a>
</g>
</g>
<!-- Node10481&#45;&gt;Node10498 -->
<g id="edge12" class="edge">
<title>Node10481&#45;&gt;Node10498</title>
<path fill="none" stroke="#191970" d="M351.7916,-82.9711C370.4128,-66.312 397.8148,-43.8466 425,-29 431.7384,-25.32 439.3232,-22.1504 446.6581,-19.5126"/>
<polygon fill="#191970" stroke="#191970" points="349.4182,-80.3986 344.3749,-89.7161 354.1279,-85.5773 349.4182,-80.3986"/>
</g>
</g>
</svg>
