<?xml version="1.0" encoding="UTF-8" standalone="no"?>
<!DOCTYPE svg PUBLIC "-//W3C//DTD SVG 1.1//EN"
 "http://www.w3.org/Graphics/SVG/1.1/DTD/svg11.dtd">
<!-- Generated by graphviz version 2.40.1 (20161225.0304)
 -->
<!-- Title: bf_cmp_lt Pages: 1 -->
<svg width="534pt" height="142pt"
 viewBox="0.00 0.00 534.00 142.00" xmlns="http://www.w3.org/2000/svg" xmlns:xlink="http://www.w3.org/1999/xlink">
<g id="graph0" class="graph" transform="scale(1 1) rotate(0) translate(4 138)">
<title>bf_cmp_lt</title>
<!-- Node1479 -->
<g id="node1" class="node">
<title>Node1479</title>
<polygon fill="#bfbfbf" stroke="#000000" points="0,-57.5 0,-76.5 65,-76.5 65,-57.5 0,-57.5"/>
<text text-anchor="middle" x="32.5" y="-64.5" font-family="Helvetica,sans-Serif" font-size="10.00" fill="#000000">bf_cmp_lt</text>
</g>
<!-- Node1480 -->
<g id="node2" class="node">
<title>Node1480</title>
<g id="a_node2"><a xlink:href="libbf_8c.html#aab7bc918fdd8dbef25c31c6881c73fdd" target="_top" xlink:title="bf_log_internal">
<polygon fill="none" stroke="#000000" points="117.5,-79.5 117.5,-98.5 206.5,-98.5 206.5,-79.5 117.5,-79.5"/>
<text text-anchor="middle" x="162" y="-86.5" font-family="Helvetica,sans-Serif" font-size="10.00" fill="#000000">bf_log_internal</text>
</a>
</g>
</g>
<!-- Node1479&#45;&gt;Node1480 -->
<g id="edge1" class="edge">
<title>Node1479&#45;&gt;Node1480</title>
<path fill="none" stroke="#191970" d="M75.1398,-74.2438C88.5948,-76.5296 103.4973,-79.0613 117.1047,-81.373"/>
<polygon fill="#191970" stroke="#191970" points="75.6233,-70.7759 65.1783,-72.5515 74.4508,-77.677 75.6233,-70.7759"/>
</g>
<!-- Node1484 -->
<g id="node6" class="node">
<title>Node1484</title>
<g id="a_node6"><a xlink:href="libbf_8c.html#aa6e77d8d722e3fd0540ede79a63e352e" target="_top" xlink:title="check_exp_underflow\l_overflow">
<polygon fill="none" stroke="#000000" points="101,-30 101,-60 223,-60 223,-30 101,-30"/>
<text text-anchor="start" x="109" y="-48" font-family="Helvetica,sans-Serif" font-size="10.00" fill="#000000">check_exp_underflow</text>
<text text-anchor="middle" x="162" y="-37" font-family="Helvetica,sans-Serif" font-size="10.00" fill="#000000">_overflow</text>
</a>
</g>
</g>
<!-- Node1479&#45;&gt;Node1484 -->
<g id="edge6" class="edge">
<title>Node1479&#45;&gt;Node1484</title>
<path fill="none" stroke="#191970" d="M75.2341,-59.7402C83.4355,-58.3469 92.1719,-56.8627 100.823,-55.393"/>
<polygon fill="#191970" stroke="#191970" points="74.4508,-56.323 65.1783,-61.4485 75.6233,-63.2241 74.4508,-56.323"/>
</g>
<!-- Node1481 -->
<g id="node3" class="node">
<title>Node1481</title>
<g id="a_node3"><a xlink:href="libbf_8h.html#a4137b2308536cbc92addaeb3f0c79d35" target="_top" xlink:title="bf_log">
<polygon fill="none" stroke="#000000" points="260.5,-79.5 260.5,-98.5 307.5,-98.5 307.5,-79.5 260.5,-79.5"/>
<text text-anchor="middle" x="284" y="-86.5" font-family="Helvetica,sans-Serif" font-size="10.00" fill="#000000">bf_log</text>
</a>
</g>
</g>
<!-- Node1480&#45;&gt;Node1481 -->
<g id="edge2" class="edge">
<title>Node1480&#45;&gt;Node1481</title>
<path fill="none" stroke="#191970" d="M217.1604,-89C232.4002,-89 248.1305,-89 260.4997,-89"/>
<polygon fill="#191970" stroke="#191970" points="216.7356,-85.5001 206.7355,-89 216.7355,-92.5001 216.7356,-85.5001"/>
</g>
<!-- Node1482 -->
<g id="node4" class="node">
<title>Node1482</title>
<g id="a_node4"><a xlink:href="libbf_8c.html#aa28c1603087e2aec25b9bb0dae387875" target="_top" xlink:title="bf_pow_generic">
<polygon fill="none" stroke="#000000" points="345,-114.5 345,-133.5 438,-133.5 438,-114.5 345,-114.5"/>
<text text-anchor="middle" x="391.5" y="-121.5" font-family="Helvetica,sans-Serif" font-size="10.00" fill="#000000">bf_pow_generic</text>
</a>
</g>
</g>
<!-- Node1481&#45;&gt;Node1482 -->
<g id="edge3" class="edge">
<title>Node1481&#45;&gt;Node1482</title>
<path fill="none" stroke="#191970" d="M317.1283,-99.786C331.5322,-104.4756 348.2649,-109.9235 362.2073,-114.4628"/>
<polygon fill="#191970" stroke="#191970" points="318.1836,-96.4488 307.5913,-96.6809 316.0165,-103.1049 318.1836,-96.4488"/>
</g>
<!-- Node1483 -->
<g id="node5" class="node">
<title>Node1483</title>
<g id="a_node5"><a xlink:href="libbf_8h.html#a93fe073491f8c5f086a75e7bf8865b34" target="_top" xlink:title="bf_pow">
<polygon fill="none" stroke="#000000" points="474,-76.5 474,-95.5 526,-95.5 526,-76.5 474,-76.5"/>
<text text-anchor="middle" x="500" y="-83.5" font-family="Helvetica,sans-Serif" font-size="10.00" fill="#000000">bf_pow</text>
</a>
</g>
</g>
<!-- Node1481&#45;&gt;Node1483 -->
<g id="edge5" class="edge">
<title>Node1481&#45;&gt;Node1483</title>
<path fill="none" stroke="#191970" d="M317.7986,-88.5306C360.9491,-87.9313 434.6922,-86.9071 473.821,-86.3636"/>
<polygon fill="#191970" stroke="#191970" points="317.4774,-85.0346 307.527,-88.6732 317.5746,-92.0339 317.4774,-85.0346"/>
</g>
<!-- Node1482&#45;&gt;Node1483 -->
<g id="edge4" class="edge">
<title>Node1482&#45;&gt;Node1483</title>
<path fill="none" stroke="#191970" d="M428.3406,-111.0973C443.2518,-105.8749 460.1259,-99.9651 473.7525,-95.1927"/>
<polygon fill="#191970" stroke="#191970" points="427.1601,-107.8022 418.8791,-114.411 429.474,-114.4088 427.1601,-107.8022"/>
</g>
<!-- Node1484&#45;&gt;Node1483 -->
<g id="edge8" class="edge">
<title>Node1484&#45;&gt;Node1483</title>
<path fill="none" stroke="#191970" d="M233.5395,-53.6779C308.6609,-62.7902 422.8136,-76.6371 473.8028,-82.8222"/>
<polygon fill="#191970" stroke="#191970" points="233.558,-50.1545 223.2093,-52.4248 232.715,-57.1036 233.558,-50.1545"/>
</g>
<!-- Node1485 -->
<g id="node7" class="node">
<title>Node1485</title>
<g id="a_node7"><a xlink:href="libbf_8h.html#a36f22f93ba4258209be035a63b80b87f" target="_top" xlink:title="bf_exp">
<polygon fill="none" stroke="#000000" points="259,-.5 259,-19.5 309,-19.5 309,-.5 259,-.5"/>
<text text-anchor="middle" x="284" y="-7.5" font-family="Helvetica,sans-Serif" font-size="10.00" fill="#000000">bf_exp</text>
</a>
</g>
</g>
<!-- Node1484&#45;&gt;Node1485 -->
<g id="edge7" class="edge">
<title>Node1484&#45;&gt;Node1485</title>
<path fill="none" stroke="#191970" d="M224.2348,-27.1458C236.4684,-23.6361 248.6359,-20.1454 258.7678,-17.2388"/>
<polygon fill="#191970" stroke="#191970" points="223.0941,-23.8317 214.447,-29.9537 225.0245,-30.5603 223.0941,-23.8317"/>
</g>
</g>
</svg>
