<?xml version="1.0" encoding="UTF-8" standalone="no"?>
<!DOCTYPE svg PUBLIC "-//W3C//DTD SVG 1.1//EN"
 "http://www.w3.org/Graphics/SVG/1.1/DTD/svg11.dtd">
<!-- Generated by graphviz version 2.40.1 (20161225.0304)
 -->
<!-- Title: bf_const_pi_signed Pages: 1 -->
<!--zoomable 806 -->
<svg id="main" version="1.1" xmlns="http://www.w3.org/2000/svg" xmlns:xlink="http://www.w3.org/1999/xlink" xml:space="preserve" onload="init(evt)">
<style type="text/css"><![CDATA[
.edge:hover path { stroke: red; }
.edge:hover polygon { stroke: red; fill: red; }
]]></style>
<script type="text/javascript"><![CDATA[
var edges = document.getElementsByTagName('g');
if (edges && edges.length) {
  for (var i=0;i<edges.length;i++) {
    if (edges[i].id.substr(0,4)=='edge') {
      edges[i].setAttribute('class','edge');
    }
  }
}
]]></script>
        <defs>
                <circle id="rim" cx="0" cy="0" r="7"/>
                <circle id="rim2" cx="0" cy="0" r="3.5"/>
                <g id="zoomPlus">
                        <use xlink:href="#rim" fill="#404040">
                                <set attributeName="fill" to="#808080" begin="zoomplus.mouseover" end="zoomplus.mouseout"/>
                        </use>
                        <path d="M-4,0h8M0,-4v8" fill="none" stroke="white" stroke-width="1.5" pointer-events="none"/>
                </g>
                <g id="zoomMin">
                        <use xlink:href="#rim" fill="#404040">
                                <set attributeName="fill" to="#808080" begin="zoomminus.mouseover" end="zoomminus.mouseout"/>
                        </use>
                        <path d="M-4,0h8" fill="none" stroke="white" stroke-width="1.5" pointer-events="none"/>
                </g>
                <g id="dirArrow">
                        <path fill="none" stroke="white" stroke-width="1.5" d="M0,-3.0v7 M-2.5,-0.5L0,-3.0L2.5,-0.5"/>
                </g>
               <g id="resetDef">
                       <use xlink:href="#rim2" fill="#404040">
                               <set attributeName="fill" to="#808080" begin="reset.mouseover" end="reset.mouseout"/>
                       </use>
               </g>
        </defs>

<script type="text/javascript">
var viewWidth = 1062;
var viewHeight = 806;
var sectionId = 'dynsection-197';
</script>
<script xlink:href="svgpan.js"/>
<svg id="graph" class="graph">
<g id="viewport">
<title>bf_const_pi_signed</title>
<!-- Node7326 -->
<g id="node1" class="node">
<title>Node7326</title>
<polygon fill="#bfbfbf" stroke="#000000" points="0,-512.6667 0,-531.6667 110,-531.6667 110,-512.6667 0,-512.6667"/>
<text text-anchor="middle" x="55" y="-519.6667" font-family="Helvetica,sans-Serif" font-size="10.00" fill="#000000">bf_const_pi_signed</text>
</g>
<!-- Node7327 -->
<g id="node2" class="node">
<title>Node7327</title>
<g id="a_node2"><a xlink:href="libbf_8c.html#afad3b4ae5f29e7af0b533bb452a4f36a" target="_top" xlink:title="bf_const_get">
<polygon fill="none" stroke="#000000" points="490,-711.6667 490,-730.6667 569,-730.6667 569,-711.6667 490,-711.6667"/>
<text text-anchor="middle" x="529.5" y="-718.6667" font-family="Helvetica,sans-Serif" font-size="10.00" fill="#000000">bf_const_get</text>
</a>
</g>
</g>
<!-- Node7326&#45;&gt;Node7327 -->
<g id="edge1" class="edge">
<title>Node7326&#45;&gt;Node7327</title>
<path fill="none" stroke="#191970" d="M77.8861,-531.7649C155.3266,-564.2426 407.693,-670.0822 497.4523,-707.7263"/>
<polygon fill="#191970" stroke="#191970" points="496.268,-711.0249 506.8435,-711.6648 498.9753,-704.5696 496.268,-711.0249"/>
</g>
<!-- Node7343 -->
<g id="node10" class="node">
<title>Node7343</title>
<g id="a_node10"><a xlink:href="libbf_8c.html#a11d2dea6becda91c288fd883eefc8e5c" target="_top" xlink:title="bf_const_pi_internal">
<polygon fill="none" stroke="#000000" points="146,-417.6667 146,-436.6667 261,-436.6667 261,-417.6667 146,-417.6667"/>
<text text-anchor="middle" x="203.5" y="-424.6667" font-family="Helvetica,sans-Serif" font-size="10.00" fill="#000000">bf_const_pi_internal</text>
</a>
</g>
</g>
<!-- Node7326&#45;&gt;Node7343 -->
<g id="edge12" class="edge">
<title>Node7326&#45;&gt;Node7343</title>
<path fill="none" stroke="#191970" d="M70.0562,-512.5348C95.9613,-495.9625 149.1453,-461.939 179.9753,-442.2162"/>
<polygon fill="#191970" stroke="#191970" points="181.8663,-445.1614 188.404,-436.8241 178.0941,-439.2648 181.8663,-445.1614"/>
</g>
<!-- Node7328 -->
<g id="node3" class="node">
<title>Node7328</title>
<g id="a_node3"><a xlink:href="libbf_8h.html#abacc1410890af049e02ebd788364ac48" target="_top" xlink:title="bf_init">
<polygon fill="none" stroke="#000000" points="650,-550.6667 650,-569.6667 697,-569.6667 697,-550.6667 650,-550.6667"/>
<text text-anchor="middle" x="673.5" y="-557.6667" font-family="Helvetica,sans-Serif" font-size="10.00" fill="#000000">bf_init</text>
</a>
</g>
</g>
<!-- Node7327&#45;&gt;Node7328 -->
<g id="edge2" class="edge">
<title>Node7327&#45;&gt;Node7328</title>
<path fill="none" stroke="#191970" d="M538.3818,-711.4C546.6673,-702.1076 559.189,-687.5913 569,-674.1667 586.6794,-649.9755 585.2419,-639.6921 605,-617.1667 618.7711,-601.4669 637.0645,-586.476 651.2824,-575.8114"/>
<polygon fill="#191970" stroke="#191970" points="653.5369,-578.4985 659.5316,-569.7626 649.3976,-572.8534 653.5369,-578.4985"/>
</g>
<!-- Node7329 -->
<g id="node4" class="node">
<title>Node7329</title>
<g id="a_node4"><a xlink:href="libbf_8h.html#abd4ca8358212228a53981a32a10286b5" target="_top" xlink:title="bf_round">
<polygon fill="none" stroke="#000000" points="644,-740.6667 644,-759.6667 703,-759.6667 703,-740.6667 644,-740.6667"/>
<text text-anchor="middle" x="673.5" y="-747.6667" font-family="Helvetica,sans-Serif" font-size="10.00" fill="#000000">bf_round</text>
</a>
</g>
</g>
<!-- Node7327&#45;&gt;Node7329 -->
<g id="edge3" class="edge">
<title>Node7327&#45;&gt;Node7329</title>
<path fill="none" stroke="#191970" d="M569.2298,-729.1678C589.4553,-733.241 613.9643,-738.1769 634.1375,-742.2395"/>
<polygon fill="#191970" stroke="#191970" points="633.4552,-745.6723 643.9494,-744.2155 634.8372,-738.8101 633.4552,-745.6723"/>
</g>
<!-- Node7342 -->
<g id="node8" class="node">
<title>Node7342</title>
<g id="a_node8"><a xlink:href="libbf_8h.html#ae019ee8073f4359da157d3b1e5fdba7e" target="_top" xlink:title="bf_set">
<polygon fill="none" stroke="#000000" points="650,-778.6667 650,-797.6667 697,-797.6667 697,-778.6667 650,-778.6667"/>
<text text-anchor="middle" x="673.5" y="-785.6667" font-family="Helvetica,sans-Serif" font-size="10.00" fill="#000000">bf_set</text>
</a>
</g>
</g>
<!-- Node7327&#45;&gt;Node7342 -->
<g id="edge8" class="edge">
<title>Node7327&#45;&gt;Node7342</title>
<path fill="none" stroke="#191970" d="M541.937,-730.7157C556.3911,-741.4117 581.2988,-758.6268 605,-769.1667 615.9647,-774.0427 628.4823,-777.9557 639.7913,-780.9338"/>
<polygon fill="#191970" stroke="#191970" points="639.2095,-784.3955 649.7581,-783.4068 640.8953,-777.6015 639.2095,-784.3955"/>
</g>
<!-- Node7330 -->
<g id="node5" class="node">
<title>Node7330</title>
<g id="a_node5"><a xlink:href="libbf_8c.html#a5a13527071b5331585beae41a51ed3c2" target="_top" xlink:title="__bf_round">
<polygon fill="none" stroke="#ff0000" points="778,-398.6667 778,-417.6667 848,-417.6667 848,-398.6667 778,-398.6667"/>
<text text-anchor="middle" x="813" y="-405.6667" font-family="Helvetica,sans-Serif" font-size="10.00" fill="#000000">__bf_round</text>
</a>
</g>
</g>
<!-- Node7329&#45;&gt;Node7330 -->
<g id="edge4" class="edge">
<title>Node7329&#45;&gt;Node7330</title>
<path fill="none" stroke="#191970" d="M690.2168,-740.6053C705.9583,-730.7311 729.0059,-713.8713 742,-693.1667 797.2074,-605.2005 809.5103,-476.8088 812.2332,-427.996"/>
<polygon fill="#191970" stroke="#191970" points="815.7365,-428.0089 812.7205,-417.8525 808.7446,-427.6729 815.7365,-428.0089"/>
</g>
<!-- Node7337 -->
<g id="node6" class="node">
<title>Node7337</title>
<g id="a_node6"><a xlink:href="libbf_8h.html#ab51c43b22c1a81c789ee0e3d53c0e585" target="_top" xlink:title="bf_resize">
<polygon fill="none" stroke="#000000" points="993,-322.6667 993,-341.6667 1054,-341.6667 1054,-322.6667 993,-322.6667"/>
<text text-anchor="middle" x="1023.5" y="-329.6667" font-family="Helvetica,sans-Serif" font-size="10.00" fill="#000000">bf_resize</text>
</a>
</g>
</g>
<!-- Node7330&#45;&gt;Node7337 -->
<g id="edge5" class="edge">
<title>Node7330&#45;&gt;Node7337</title>
<path fill="none" stroke="#191970" d="M848.2551,-409.034C878.3784,-408.5109 922.2307,-404.6898 957,-389.1667 977.4672,-380.0289 996.4123,-362.5158 1008.8023,-349.3022"/>
<polygon fill="#191970" stroke="#191970" points="1011.5224,-351.5122 1015.6247,-341.7438 1006.3262,-346.8219 1011.5224,-351.5122"/>
</g>
<!-- Node7341 -->
<g id="node7" class="node">
<title>Node7341</title>
<g id="a_node7"><a xlink:href="libbf_8h.html#a66631c65c00e92a5840a5085a009602d" target="_top" xlink:title="bf_set_zero">
<polygon fill="none" stroke="#000000" points="884,-360.6667 884,-379.6667 957,-379.6667 957,-360.6667 884,-360.6667"/>
<text text-anchor="middle" x="920.5" y="-367.6667" font-family="Helvetica,sans-Serif" font-size="10.00" fill="#000000">bf_set_zero</text>
</a>
</g>
</g>
<!-- Node7330&#45;&gt;Node7341 -->
<g id="edge6" class="edge">
<title>Node7330&#45;&gt;Node7341</title>
<path fill="none" stroke="#191970" d="M840.1268,-398.5777C853.3674,-393.8973 869.4917,-388.1975 883.8129,-383.1352"/>
<polygon fill="#191970" stroke="#191970" points="885.1201,-386.3854 893.3819,-379.7526 882.7871,-379.7856 885.1201,-386.3854"/>
</g>
<!-- Node7341&#45;&gt;Node7337 -->
<g id="edge7" class="edge">
<title>Node7341&#45;&gt;Node7337</title>
<path fill="none" stroke="#191970" d="M946.4912,-360.5777C959.0557,-355.9423 974.3301,-350.307 987.9523,-345.2814"/>
<polygon fill="#191970" stroke="#191970" points="989.3467,-348.4976 997.5171,-341.7526 986.9237,-341.9303 989.3467,-348.4976"/>
</g>
<!-- Node7342&#45;&gt;Node7337 -->
<g id="edge9" class="edge">
<title>Node7342&#45;&gt;Node7337</title>
<path fill="none" stroke="#191970" d="M697.053,-790.9255C751.5391,-795.8692 886.9617,-799.6575 957,-726.1667 1009.1348,-671.4619 1020.6961,-424.4964 1022.9834,-352.1433"/>
<polygon fill="#191970" stroke="#191970" points="1026.4935,-351.8436 1023.2846,-341.7464 1019.4964,-351.6408 1026.4935,-351.8436"/>
</g>
<!-- Node7340 -->
<g id="node9" class="node">
<title>Node7340</title>
<g id="a_node9"><a xlink:href="libbf_8h.html#aa6282c789c16c8cf2fe6a8ebd671c6fc" target="_top" xlink:title="bf_set_nan">
<polygon fill="none" stroke="#000000" points="778,-246.6667 778,-265.6667 848,-265.6667 848,-246.6667 778,-246.6667"/>
<text text-anchor="middle" x="813" y="-253.6667" font-family="Helvetica,sans-Serif" font-size="10.00" fill="#000000">bf_set_nan</text>
</a>
</g>
</g>
<!-- Node7342&#45;&gt;Node7340 -->
<g id="edge10" class="edge">
<title>Node7342&#45;&gt;Node7340</title>
<path fill="none" stroke="#191970" d="M697.1052,-788.0686C712.2878,-786.6575 731.1422,-782.1273 742,-769.1667 796.4715,-704.1457 763.1574,-472.6805 778,-389.1667 785.3115,-348.0276 798.9823,-300.9824 806.9014,-275.3302"/>
<polygon fill="#191970" stroke="#191970" points="810.2606,-276.3147 809.9079,-265.7257 803.5803,-274.2235 810.2606,-276.3147"/>
</g>
<!-- Node7340&#45;&gt;Node7337 -->
<g id="edge11" class="edge">
<title>Node7340&#45;&gt;Node7337</title>
<path fill="none" stroke="#191970" d="M848.2551,-255.2994C878.3784,-255.8225 922.2307,-259.6436 957,-275.1667 977.4672,-284.3045 996.4123,-301.8176 1008.8023,-315.0312"/>
<polygon fill="#191970" stroke="#191970" points="1006.3262,-317.5115 1015.6247,-322.5896 1011.5224,-312.8212 1006.3262,-317.5115"/>
</g>
<!-- Node7343&#45;&gt;Node7328 -->
<g id="edge31" class="edge">
<title>Node7343&#45;&gt;Node7328</title>
<path fill="none" stroke="#191970" d="M214.1513,-436.8254C241.0094,-460.4349 314.6707,-520.6359 389,-541.1667 476.9011,-565.4463 585.617,-564.6212 639.6729,-562.2497"/>
<polygon fill="#191970" stroke="#191970" points="639.9143,-565.7422 649.7329,-561.7617 639.5751,-558.7504 639.9143,-565.7422"/>
</g>
<!-- Node7344 -->
<g id="node11" class="node">
<title>Node7344</title>
<g id="a_node11"><a xlink:href="libbf_8h.html#a17dc09166f82ffa408f54a2edc4d7855" target="_top" xlink:title="bf_add">
<polygon fill="none" stroke="#000000" points="396.5,-512.6667 396.5,-531.6667 446.5,-531.6667 446.5,-512.6667 396.5,-512.6667"/>
<text text-anchor="middle" x="421.5" y="-519.6667" font-family="Helvetica,sans-Serif" font-size="10.00" fill="#000000">bf_add</text>
</a>
</g>
</g>
<!-- Node7343&#45;&gt;Node7344 -->
<g id="edge13" class="edge">
<title>Node7343&#45;&gt;Node7344</title>
<path fill="none" stroke="#191970" d="M225.6027,-436.7986C264.6302,-453.806 345.8343,-489.1931 390.4613,-508.6406"/>
<polygon fill="#191970" stroke="#191970" points="389.0973,-511.8641 399.6629,-512.6505 391.8938,-505.447 389.0973,-511.8641"/>
</g>
<!-- Node7359 -->
<g id="node15" class="node">
<title>Node7359</title>
<g id="a_node15"><a xlink:href="libbf_8h.html#a2b9d906b21e903f2f7f1c9044674ab7d" target="_top" xlink:title="bf_delete">
<polygon fill="none" stroke="#000000" points="498.5,-208.6667 498.5,-227.6667 560.5,-227.6667 560.5,-208.6667 498.5,-208.6667"/>
<text text-anchor="middle" x="529.5" y="-215.6667" font-family="Helvetica,sans-Serif" font-size="10.00" fill="#000000">bf_delete</text>
</a>
</g>
</g>
<!-- Node7343&#45;&gt;Node7359 -->
<g id="edge18" class="edge">
<title>Node7343&#45;&gt;Node7359</title>
<path fill="none" stroke="#191970" d="M210.1052,-417.5566C224.2621,-397.4557 259.3176,-350.2637 297,-319.1667 354.9536,-271.3411 439.0226,-242.3833 488.5936,-228.3992"/>
<polygon fill="#191970" stroke="#191970" points="489.6148,-231.7484 498.328,-225.7209 487.7577,-224.9992 489.6148,-231.7484"/>
</g>
<!-- Node7360 -->
<g id="node17" class="node">
<title>Node7360</title>
<g id="a_node17"><a xlink:href="libbf_8h.html#a030665e68e114717678fb0d0453bb3c6" target="_top" xlink:title="bf_div">
<polygon fill="none" stroke="#000000" points="398,-398.6667 398,-417.6667 445,-417.6667 445,-398.6667 398,-398.6667"/>
<text text-anchor="middle" x="421.5" y="-405.6667" font-family="Helvetica,sans-Serif" font-size="10.00" fill="#000000">bf_div</text>
</a>
</g>
</g>
<!-- Node7343&#45;&gt;Node7360 -->
<g id="edge20" class="edge">
<title>Node7343&#45;&gt;Node7360</title>
<path fill="none" stroke="#191970" d="M261.0621,-422.1498C301.357,-418.6379 353.8209,-414.0653 387.5856,-411.1225"/>
<polygon fill="#191970" stroke="#191970" points="388.1936,-414.5829 397.8519,-410.2278 387.5857,-407.6093 388.1936,-414.5829"/>
</g>
<!-- Node7404 -->
<g id="node21" class="node">
<title>Node7404</title>
<g id="a_node21"><a xlink:href="libbf_8h.html#ac290278d0c37a0e7786873f98aadba47" target="_top" xlink:title="bf_mul">
<polygon fill="none" stroke="#000000" points="504.5,-360.6667 504.5,-379.6667 554.5,-379.6667 554.5,-360.6667 504.5,-360.6667"/>
<text text-anchor="middle" x="529.5" y="-367.6667" font-family="Helvetica,sans-Serif" font-size="10.00" fill="#000000">bf_mul</text>
</a>
</g>
</g>
<!-- Node7343&#45;&gt;Node7404 -->
<g id="edge32" class="edge">
<title>Node7343&#45;&gt;Node7404</title>
<path fill="none" stroke="#191970" d="M253.6166,-436.6926C305.3885,-444.3704 387.7425,-450.4691 454,-427.1667 477.0538,-419.0588 498.8148,-401.1194 512.9975,-387.5166"/>
<polygon fill="#191970" stroke="#191970" points="515.8116,-389.6534 520.4248,-380.1156 510.8706,-384.6948 515.8116,-389.6534"/>
</g>
<!-- Node7405 -->
<g id="node25" class="node">
<title>Node7405</title>
<g id="a_node25"><a xlink:href="libbf_8h.html#acee0d550162528b5ca5513d4479549c2" target="_top" xlink:title="bf_mul_ui">
<polygon fill="none" stroke="#000000" points="389,-322.6667 389,-341.6667 454,-341.6667 454,-322.6667 389,-322.6667"/>
<text text-anchor="middle" x="421.5" y="-329.6667" font-family="Helvetica,sans-Serif" font-size="10.00" fill="#000000">bf_mul_ui</text>
</a>
</g>
</g>
<!-- Node7343&#45;&gt;Node7405 -->
<g id="edge44" class="edge">
<title>Node7343&#45;&gt;Node7405</title>
<path fill="none" stroke="#191970" d="M209.2539,-417.5982C222.031,-397.4029 254.9877,-350.8326 297,-333.1667 322.629,-322.3898 353.9336,-322.19 378.7404,-324.6591"/>
<polygon fill="#191970" stroke="#191970" points="378.5984,-328.1664 388.9386,-325.8577 379.4156,-321.2143 378.5984,-328.1664"/>
</g>
<!-- Node7406 -->
<g id="node26" class="node">
<title>Node7406</title>
<g id="a_node26"><a xlink:href="libbf_8h.html#a2378f025beace5741c19bf995c2971d3" target="_top" xlink:title="bf_set_ui">
<polygon fill="none" stroke="#ff0000" points="499,-170.6667 499,-189.6667 560,-189.6667 560,-170.6667 499,-170.6667"/>
<text text-anchor="middle" x="529.5" y="-177.6667" font-family="Helvetica,sans-Serif" font-size="10.00" fill="#000000">bf_set_ui</text>
</a>
</g>
</g>
<!-- Node7343&#45;&gt;Node7406 -->
<g id="edge51" class="edge">
<title>Node7343&#45;&gt;Node7406</title>
<path fill="none" stroke="#191970" d="M207.3178,-417.5928C217.9392,-392.0136 250.1668,-321.1742 297,-279.1667 353.219,-228.7405 438.9578,-201.3666 489.0972,-188.8436"/>
<polygon fill="#191970" stroke="#191970" points="490.0353,-192.2177 498.9318,-186.4641 488.3891,-185.414 490.0353,-192.2177"/>
</g>
<!-- Node7407 -->
<g id="node27" class="node">
<title>Node7407</title>
<g id="a_node27"><a xlink:href="libbf_8h.html#a1a8b9ac1fea38b97fc6be8663ce9e867" target="_top" xlink:title="bf_sqrt">
<polygon fill="none" stroke="#ff0000" points="504.5,-645.6667 504.5,-664.6667 554.5,-664.6667 554.5,-645.6667 504.5,-645.6667"/>
<text text-anchor="middle" x="529.5" y="-652.6667" font-family="Helvetica,sans-Serif" font-size="10.00" fill="#000000">bf_sqrt</text>
</a>
</g>
</g>
<!-- Node7343&#45;&gt;Node7407 -->
<g id="edge52" class="edge">
<title>Node7343&#45;&gt;Node7407</title>
<path fill="none" stroke="#191970" d="M207.0705,-436.9898C217.0777,-463.1756 247.9165,-535.2991 297,-574.1667 356.4728,-621.2612 445.2294,-641.9878 494.0824,-650.2719"/>
<polygon fill="#191970" stroke="#191970" points="493.7343,-653.761 504.1644,-651.9 494.8503,-646.8505 493.7343,-653.761"/>
</g>
<!-- Node7413 -->
<g id="node30" class="node">
<title>Node7413</title>
<g id="a_node30"><a xlink:href="libbf_8c.html#a81e50b3d7e7a931a93d6ea7e1d630631" target="_top" xlink:title="chud_bs">
<polygon fill="none" stroke="#000000" points="297,-342.6667 297,-361.6667 353,-361.6667 353,-342.6667 297,-342.6667"/>
<text text-anchor="middle" x="325" y="-349.6667" font-family="Helvetica,sans-Serif" font-size="10.00" fill="#000000">chud_bs</text>
</a>
</g>
</g>
<!-- Node7343&#45;&gt;Node7413 -->
<g id="edge60" class="edge">
<title>Node7343&#45;&gt;Node7413</title>
<path fill="none" stroke="#191970" d="M219.384,-417.3618C240.1457,-404.5459 276.7034,-381.9794 300.8907,-367.049"/>
<polygon fill="#191970" stroke="#191970" points="302.8253,-369.9679 309.4963,-361.7369 299.1484,-364.0114 302.8253,-369.9679"/>
</g>
<!-- Node7345 -->
<g id="node12" class="node">
<title>Node7345</title>
<g id="a_node12"><a xlink:href="libbf_8c.html#a3ebbc1c7473b2ad84ced2b263bf38bae" target="_top" xlink:title="bf_op2">
<polygon fill="none" stroke="#000000" points="504.5,-436.6667 504.5,-455.6667 554.5,-455.6667 554.5,-436.6667 504.5,-436.6667"/>
<text text-anchor="middle" x="529.5" y="-443.6667" font-family="Helvetica,sans-Serif" font-size="10.00" fill="#000000">bf_op2</text>
</a>
</g>
</g>
<!-- Node7344&#45;&gt;Node7345 -->
<g id="edge14" class="edge">
<title>Node7344&#45;&gt;Node7345</title>
<path fill="none" stroke="#191970" d="M435.1783,-512.5412C453.4369,-499.6926 485.9847,-476.7886 507.6591,-461.5362"/>
<polygon fill="#191970" stroke="#191970" points="509.7689,-464.3313 515.9328,-455.714 505.7405,-458.6066 509.7689,-464.3313"/>
</g>
<!-- Node7349 -->
<g id="node14" class="node">
<title>Node7349</title>
<g id="a_node14"><a xlink:href="libbf_8c.html#a951a1d3ebb338129d86e00f51b47f2ee" target="_top" xlink:title="__bf_add">
<polygon fill="none" stroke="#ff0000" points="499.5,-512.6667 499.5,-531.6667 559.5,-531.6667 559.5,-512.6667 499.5,-512.6667"/>
<text text-anchor="middle" x="529.5" y="-519.6667" font-family="Helvetica,sans-Serif" font-size="10.00" fill="#000000">__bf_add</text>
</a>
</g>
</g>
<!-- Node7344&#45;&gt;Node7349 -->
<g id="edge17" class="edge">
<title>Node7344&#45;&gt;Node7349</title>
<path fill="none" stroke="#191970" d="M446.5488,-522.1667C459.1848,-522.1667 474.8234,-522.1667 489.1042,-522.1667"/>
<polygon fill="#191970" stroke="#191970" points="489.2005,-525.6668 499.2005,-522.1667 489.2005,-518.6668 489.2005,-525.6668"/>
</g>
<!-- Node7345&#45;&gt;Node7328 -->
<g id="edge15" class="edge">
<title>Node7345&#45;&gt;Node7328</title>
<path fill="none" stroke="#191970" d="M549.9603,-455.7148C556.616,-459.5277 563.6568,-464.397 569,-470.1667 593.0397,-496.1252 577.6245,-518.7539 605,-541.1667 614.7491,-549.1485 627.6168,-553.7858 639.5651,-556.4767"/>
<polygon fill="#191970" stroke="#191970" points="639.2542,-559.9791 649.727,-558.3756 640.5401,-553.0982 639.2542,-559.9791"/>
</g>
<!-- Node7346 -->
<g id="node13" class="node">
<title>Node7346</title>
<g id="a_node13"><a xlink:href="libbf_8h.html#ad7ab5aff92f4e7e10b2a30e0e6b9226d" target="_top" xlink:title="bf_move">
<polygon fill="none" stroke="#ff0000" points="644,-474.6667 644,-493.6667 703,-493.6667 703,-474.6667 644,-474.6667"/>
<text text-anchor="middle" x="673.5" y="-481.6667" font-family="Helvetica,sans-Serif" font-size="10.00" fill="#000000">bf_move</text>
</a>
</g>
</g>
<!-- Node7345&#45;&gt;Node7346 -->
<g id="edge16" class="edge">
<title>Node7345&#45;&gt;Node7346</title>
<path fill="none" stroke="#191970" d="M554.5829,-452.7858C576.5642,-458.5864 608.8792,-467.114 634.2767,-473.8161"/>
<polygon fill="#191970" stroke="#191970" points="633.4227,-477.2105 643.9848,-476.378 635.2088,-470.4422 633.4227,-477.2105"/>
</g>
<!-- Node7348 -->
<g id="node16" class="node">
<title>Node7348</title>
<g id="a_node16"><a xlink:href="libbf_8h.html#a524c9e60866c08c75061626a4b5e2f29" target="_top" xlink:title="bf_realloc">
<polygon fill="none" stroke="#000000" points="641,-56.6667 641,-75.6667 706,-75.6667 706,-56.6667 641,-56.6667"/>
<text text-anchor="middle" x="673.5" y="-63.6667" font-family="Helvetica,sans-Serif" font-size="10.00" fill="#000000">bf_realloc</text>
</a>
</g>
</g>
<!-- Node7359&#45;&gt;Node7348 -->
<g id="edge19" class="edge">
<title>Node7359&#45;&gt;Node7348</title>
<path fill="none" stroke="#191970" d="M557.0002,-208.5399C561.4547,-206.0308 565.6856,-202.9402 569,-199.1667 602.6685,-160.8353 569.2508,-126.5653 605,-90.1667 612.1521,-82.8846 621.636,-77.808 631.2601,-74.2703"/>
<polygon fill="#191970" stroke="#191970" points="632.3807,-77.5867 640.8498,-71.2208 630.2593,-70.9159 632.3807,-77.5867"/>
</g>
<!-- Node7360&#45;&gt;Node7345 -->
<g id="edge21" class="edge">
<title>Node7360&#45;&gt;Node7345</title>
<path fill="none" stroke="#191970" d="M445.2011,-416.506C459.7017,-421.608 478.5121,-428.2265 494.684,-433.9166"/>
<polygon fill="#191970" stroke="#191970" points="493.7554,-437.3002 504.3502,-437.3177 496.0788,-430.697 493.7554,-437.3002"/>
</g>
<!-- Node7361 -->
<g id="node18" class="node">
<title>Node7361</title>
<g id="a_node18"><a xlink:href="libbf_8c.html#ad7a540de8355f07757e52b48d35dd708" target="_top" xlink:title="__bf_div">
<polygon fill="none" stroke="#ff0000" points="501,-246.6667 501,-265.6667 558,-265.6667 558,-246.6667 501,-246.6667"/>
<text text-anchor="middle" x="529.5" y="-253.6667" font-family="Helvetica,sans-Serif" font-size="10.00" fill="#000000">__bf_div</text>
</a>
</g>
</g>
<!-- Node7360&#45;&gt;Node7361 -->
<g id="edge22" class="edge">
<title>Node7360&#45;&gt;Node7361</title>
<path fill="none" stroke="#191970" d="M428.2559,-398.6584C445.9087,-373.8138 493.6384,-306.6386 516.6932,-274.191"/>
<polygon fill="#191970" stroke="#191970" points="519.8077,-275.8504 522.7467,-265.6714 514.1014,-271.796 519.8077,-275.8504"/>
</g>
<!-- Node7361&#45;&gt;Node7337 -->
<g id="edge26" class="edge">
<title>Node7361&#45;&gt;Node7337</title>
<path fill="none" stroke="#191970" d="M557.0412,-246.5757C561.4915,-244.063 565.7104,-240.9618 569,-237.1667 603.8014,-197.0173 562.1442,-154.5752 605,-123.1667 654.1115,-87.1735 682.1639,-111.8927 742,-123.1667 842.8158,-142.1618 880.3595,-138.9694 957,-207.1667 989.7641,-236.3213 1009.1599,-285.5541 1017.9067,-312.717"/>
<polygon fill="#191970" stroke="#191970" points="1014.6507,-314.0384 1020.9227,-322.5773 1021.3446,-311.9909 1014.6507,-314.0384"/>
</g>
<!-- Node7361&#45;&gt;Node7341 -->
<g id="edge30" class="edge">
<title>Node7361&#45;&gt;Node7341</title>
<path fill="none" stroke="#191970" d="M551.4666,-246.651C606.5921,-224.3763 753.1441,-175.2424 848,-237.1667 879.2969,-257.5981 865.8857,-280.474 884,-313.1667 891.3858,-326.4967 900.6557,-340.9491 908.0052,-351.9659"/>
<polygon fill="#191970" stroke="#191970" points="905.1453,-353.9849 913.6436,-360.3118 910.9456,-350.0662 905.1453,-353.9849"/>
</g>
<!-- Node7361&#45;&gt;Node7340 -->
<g id="edge29" class="edge">
<title>Node7361&#45;&gt;Node7340</title>
<path fill="none" stroke="#191970" d="M558.009,-249.6035C572.0706,-246.6938 589.3354,-243.6068 605,-242.1667 665.6332,-236.5926 681.3994,-236.249 742,-242.1667 750.4482,-242.9917 759.3824,-244.3563 767.9577,-245.9183"/>
<polygon fill="#191970" stroke="#191970" points="767.3264,-249.361 777.8089,-247.8221 768.6547,-242.4882 767.3264,-249.361"/>
</g>
<!-- Node7354 -->
<g id="node19" class="node">
<title>Node7354</title>
<g id="a_node19"><a xlink:href="libbf_8h.html#ae822c0888d26739bb681dfef282b9150" target="_top" xlink:title="bf_normalize_and_round">
<polygon fill="none" stroke="#ff0000" points="605,-322.6667 605,-341.6667 742,-341.6667 742,-322.6667 605,-322.6667"/>
<text text-anchor="middle" x="673.5" y="-329.6667" font-family="Helvetica,sans-Serif" font-size="10.00" fill="#000000">bf_normalize_and_round</text>
</a>
</g>
</g>
<!-- Node7361&#45;&gt;Node7354 -->
<g id="edge23" class="edge">
<title>Node7361&#45;&gt;Node7354</title>
<path fill="none" stroke="#191970" d="M547.7377,-265.7921C572.6236,-278.9263 617.4178,-302.5677 646.2835,-317.8024"/>
<polygon fill="#191970" stroke="#191970" points="644.9329,-321.0471 655.4104,-322.6194 648.2002,-314.8564 644.9329,-321.0471"/>
</g>
<!-- Node7339 -->
<g id="node20" class="node">
<title>Node7339</title>
<g id="a_node20"><a xlink:href="libbf_8h.html#a88d3dcee173f1e4fd4e55000edb04595" target="_top" xlink:title="bf_set_inf">
<polygon fill="none" stroke="#000000" points="641,-132.6667 641,-151.6667 706,-151.6667 706,-132.6667 641,-132.6667"/>
<text text-anchor="middle" x="673.5" y="-139.6667" font-family="Helvetica,sans-Serif" font-size="10.00" fill="#000000">bf_set_inf</text>
</a>
</g>
</g>
<!-- Node7361&#45;&gt;Node7339 -->
<g id="edge27" class="edge">
<title>Node7361&#45;&gt;Node7339</title>
<path fill="none" stroke="#191970" d="M555.7279,-246.554C560.5163,-244.0031 565.1942,-240.8937 569,-237.1667 594.2779,-212.4123 578.3839,-189.4763 605,-166.1667 612.4579,-159.6353 621.8012,-154.8517 631.1667,-151.3585"/>
<polygon fill="#191970" stroke="#191970" points="632.4539,-154.6195 640.8565,-148.1661 630.2635,-147.971 632.4539,-154.6195"/>
</g>
<!-- Node7354&#45;&gt;Node7330 -->
<g id="edge25" class="edge">
<title>Node7354&#45;&gt;Node7330</title>
<path fill="none" stroke="#191970" d="M718.3468,-341.7779C726.4421,-344.2976 734.6411,-347.396 742,-351.1667 762.504,-361.6728 782.6749,-378.6921 796.2457,-391.4027"/>
<polygon fill="#191970" stroke="#191970" points="794.1552,-394.2486 803.7865,-398.6633 799.0104,-389.206 794.1552,-394.2486"/>
</g>
<!-- Node7354&#45;&gt;Node7337 -->
<g id="edge24" class="edge">
<title>Node7354&#45;&gt;Node7337</title>
<path fill="none" stroke="#191970" d="M742.2311,-332.1667C813.7847,-332.1667 923.4855,-332.1667 982.5143,-332.1667"/>
<polygon fill="#191970" stroke="#191970" points="982.5796,-335.6668 992.5796,-332.1667 982.5796,-328.6668 982.5796,-335.6668"/>
</g>
<!-- Node7339&#45;&gt;Node7337 -->
<g id="edge28" class="edge">
<title>Node7339&#45;&gt;Node7337</title>
<path fill="none" stroke="#191970" d="M706.3471,-149.1917C762.104,-162.3186 876.9959,-194.6734 957,-253.1667 979.9564,-269.9508 999.9959,-296.2663 1011.9194,-313.8573"/>
<polygon fill="#191970" stroke="#191970" points="1009.2588,-316.1817 1017.6756,-322.6165 1015.1087,-312.3373 1009.2588,-316.1817"/>
</g>
<!-- Node7404&#45;&gt;Node7328 -->
<g id="edge39" class="edge">
<title>Node7404&#45;&gt;Node7328</title>
<path fill="none" stroke="#191970" d="M551.9893,-379.7648C558.3071,-383.4382 564.6359,-388.2125 569,-394.1667 608.7635,-448.419 558.1656,-492.8865 605,-541.1667 614.0629,-550.5094 627.285,-555.3789 639.7009,-557.8752"/>
<polygon fill="#191970" stroke="#191970" points="639.4108,-561.3723 649.8316,-559.4601 640.4928,-554.4565 639.4108,-561.3723"/>
</g>
<!-- Node7404&#45;&gt;Node7337 -->
<g id="edge40" class="edge">
<title>Node7404&#45;&gt;Node7337</title>
<path fill="none" stroke="#191970" d="M554.8009,-379.1529C559.5691,-381.0209 564.4765,-383.0646 569,-385.1667 585.5987,-392.8801 587.6074,-399.4648 605,-405.1667 708.0456,-438.9486 739.8461,-435.0623 848,-427.1667 896.8336,-423.6017 914.2297,-435.0022 957,-411.1667 982.3374,-397.0464 1002.2107,-369.2183 1013.4057,-350.6499"/>
<polygon fill="#191970" stroke="#191970" points="1016.485,-352.3162 1018.4519,-341.9055 1010.4221,-348.8174 1016.485,-352.3162"/>
</g>
<!-- Node7404&#45;&gt;Node7341 -->
<g id="edge35" class="edge">
<title>Node7404&#45;&gt;Node7341</title>
<path fill="none" stroke="#191970" d="M554.7153,-378.1702C569.2502,-382.3635 587.9645,-387.0561 605,-389.1667 665.4269,-396.6534 681.1967,-392.3936 742,-389.1667 786.7532,-386.7916 837.5528,-381.0894 873.4839,-376.5475"/>
<polygon fill="#191970" stroke="#191970" points="874.1965,-379.9849 883.6698,-375.2407 873.3056,-373.0418 874.1965,-379.9849"/>
</g>
<!-- Node7404&#45;&gt;Node7340 -->
<g id="edge33" class="edge">
<title>Node7404&#45;&gt;Node7340</title>
<path fill="none" stroke="#191970" d="M534.3525,-360.4829C544.5053,-341.3698 569.9816,-299.0178 605,-280.1667 655.819,-252.8098 723.6091,-250.1549 767.7718,-252.0843"/>
<polygon fill="#191970" stroke="#191970" points="767.7442,-255.5878 777.9167,-252.6264 768.1177,-248.5977 767.7442,-255.5878"/>
</g>
<!-- Node7404&#45;&gt;Node7346 -->
<g id="edge43" class="edge">
<title>Node7404&#45;&gt;Node7346</title>
<path fill="none" stroke="#191970" d="M549.8618,-379.8074C556.5096,-383.6277 563.5707,-388.478 569,-394.1667 592.0694,-418.3379 579.5353,-438.5335 605,-460.1667 613.2965,-467.2149 623.7944,-472.2392 634.063,-475.803"/>
<polygon fill="#191970" stroke="#191970" points="633.1714,-479.1906 643.7587,-478.7907 635.2328,-472.501 633.1714,-479.1906"/>
</g>
<!-- Node7404&#45;&gt;Node7354 -->
<g id="edge42" class="edge">
<title>Node7404&#45;&gt;Node7354</title>
<path fill="none" stroke="#191970" d="M554.5829,-363.5476C574.6964,-358.2399 603.462,-350.6489 627.6632,-344.2625"/>
<polygon fill="#191970" stroke="#191970" points="628.5959,-347.6363 637.3718,-341.7005 626.8097,-340.868 628.5959,-347.6363"/>
</g>
<!-- Node7404&#45;&gt;Node7339 -->
<g id="edge34" class="edge">
<title>Node7404&#45;&gt;Node7339</title>
<path fill="none" stroke="#191970" d="M534.9624,-360.3975C547.103,-338.8009 577.4348,-285.4812 605,-242.1667 623.6293,-212.8936 646.678,-179.8444 660.7248,-160.0274"/>
<polygon fill="#191970" stroke="#191970" points="663.7219,-161.8522 666.6679,-151.6752 658.0184,-157.7938 663.7219,-161.8522"/>
</g>
<!-- Node7353 -->
<g id="node22" class="node">
<title>Node7353</title>
<g id="a_node22"><a xlink:href="libbf_8h.html#a970a1725f8bc59eda655058c5ff6bc52" target="_top" xlink:title="bf_min">
<polygon fill="none" stroke="#000000" points="648.5,-512.6667 648.5,-531.6667 698.5,-531.6667 698.5,-512.6667 648.5,-512.6667"/>
<text text-anchor="middle" x="673.5" y="-519.6667" font-family="Helvetica,sans-Serif" font-size="10.00" fill="#000000">bf_min</text>
</a>
</g>
</g>
<!-- Node7404&#45;&gt;Node7353 -->
<g id="edge36" class="edge">
<title>Node7404&#45;&gt;Node7353</title>
<path fill="none" stroke="#191970" d="M551.2935,-379.7436C557.732,-383.4595 564.3048,-388.2634 569,-394.1667 600.7577,-434.0955 568.0618,-467.9753 605,-503.1667 613.9842,-511.7261 626.4781,-516.4928 638.3387,-519.1258"/>
<polygon fill="#191970" stroke="#191970" points="638.0361,-522.6268 648.4945,-520.932 639.2619,-515.735 638.0361,-522.6268"/>
</g>
<!-- Node7371 -->
<g id="node23" class="node">
<title>Node7371</title>
<g id="a_node23"><a xlink:href="libbf_8c.html#aced93436f1e8ca41feb00d8070cfcbde" target="_top" xlink:title="fft_mul">
<polygon fill="none" stroke="#ff0000" points="895,-284.6667 895,-303.6667 946,-303.6667 946,-284.6667 895,-284.6667"/>
<text text-anchor="middle" x="920.5" y="-291.6667" font-family="Helvetica,sans-Serif" font-size="10.00" fill="#000000">fft_mul</text>
</a>
</g>
</g>
<!-- Node7404&#45;&gt;Node7371 -->
<g id="edge37" class="edge">
<title>Node7404&#45;&gt;Node7371</title>
<path fill="none" stroke="#191970" d="M538.6173,-360.3344C551.7852,-346.8895 577.5726,-323.2846 605,-313.1667 701.1612,-277.693 824.9576,-283.8698 884.87,-289.803"/>
<polygon fill="#191970" stroke="#191970" points="884.6405,-293.298 894.951,-290.86 885.3705,-286.3362 884.6405,-293.298"/>
</g>
<!-- Node7395 -->
<g id="node24" class="node">
<title>Node7395</title>
<g id="a_node24"><a xlink:href="libbf_8c.html#a76a4161d6e245f8cb27f556b6b76a29b" target="_top" xlink:title="mp_mul_basecase">
<polygon fill="none" stroke="#ff0000" points="620,-360.6667 620,-379.6667 727,-379.6667 727,-360.6667 620,-360.6667"/>
<text text-anchor="middle" x="673.5" y="-367.6667" font-family="Helvetica,sans-Serif" font-size="10.00" fill="#000000">mp_mul_basecase</text>
</a>
</g>
</g>
<!-- Node7404&#45;&gt;Node7395 -->
<g id="edge41" class="edge">
<title>Node7404&#45;&gt;Node7395</title>
<path fill="none" stroke="#191970" d="M554.5829,-370.1667C569.8849,-370.1667 590.1947,-370.1667 609.6925,-370.1667"/>
<polygon fill="#191970" stroke="#191970" points="609.7838,-373.6668 619.7837,-370.1667 609.7837,-366.6668 609.7838,-373.6668"/>
</g>
<!-- Node7371&#45;&gt;Node7337 -->
<g id="edge38" class="edge">
<title>Node7371&#45;&gt;Node7337</title>
<path fill="none" stroke="#191970" d="M946.2256,-303.6577C958.8838,-308.3277 974.3411,-314.0304 988.0954,-319.1048"/>
<polygon fill="#191970" stroke="#191970" points="987.1521,-322.4873 997.7454,-322.665 989.575,-315.92 987.1521,-322.4873"/>
</g>
<!-- Node7405&#45;&gt;Node7328 -->
<g id="edge45" class="edge">
<title>Node7405&#45;&gt;Node7328</title>
<path fill="none" stroke="#191970" d="M431.5547,-341.9035C444.387,-353.995 467.6137,-374.7804 490,-389.1667 522.7771,-410.2305 543.4805,-397.7256 569,-427.1667 603.8014,-467.3161 566.7719,-504.2651 605,-541.1667 614.2956,-550.1397 627.4437,-554.9513 639.739,-557.5044"/>
<polygon fill="#191970" stroke="#191970" points="639.3266,-560.9836 649.7632,-559.1596 640.467,-554.0772 639.3266,-560.9836"/>
</g>
<!-- Node7405&#45;&gt;Node7359 -->
<g id="edge50" class="edge">
<title>Node7405&#45;&gt;Node7359</title>
<path fill="none" stroke="#191970" d="M437.6176,-322.4913C443.2823,-318.5491 449.3801,-313.6295 454,-308.1667 476.8464,-281.152 464.7221,-261.9211 490,-237.1667 491.4272,-235.7691 492.977,-234.4583 494.6093,-233.2312"/>
<polygon fill="#191970" stroke="#191970" points="496.6729,-236.068 503.2721,-227.7794 492.9444,-230.1436 496.6729,-236.068"/>
</g>
<!-- Node7405&#45;&gt;Node7404 -->
<g id="edge49" class="edge">
<title>Node7405&#45;&gt;Node7404</title>
<path fill="none" stroke="#191970" d="M448.753,-341.7557C462.7982,-346.6976 480.0732,-352.7758 495.0355,-358.0403"/>
<polygon fill="#191970" stroke="#191970" points="493.8818,-361.3447 504.4767,-361.3622 496.2052,-354.7415 493.8818,-361.3447"/>
</g>
<!-- Node7405&#45;&gt;Node7406 -->
<g id="edge46" class="edge">
<title>Node7405&#45;&gt;Node7406</title>
<path fill="none" stroke="#191970" d="M426.6071,-322.5225C433.0426,-310.3471 444.4208,-288.7459 454,-270.1667 470.2134,-238.7203 464.7221,-223.9211 490,-199.1667 491.4272,-197.7691 492.977,-196.4583 494.6093,-195.2312"/>
<polygon fill="#191970" stroke="#191970" points="496.6729,-198.068 503.2721,-189.7794 492.9444,-192.1436 496.6729,-198.068"/>
</g>
<!-- Node7406&#45;&gt;Node7337 -->
<g id="edge47" class="edge">
<title>Node7406&#45;&gt;Node7337</title>
<path fill="none" stroke="#191970" d="M530.5291,-170.6445C534.235,-141.6467 549.7629,-54.2727 605,-19.1667 656.3885,13.4933 683.4882,-2.3196 742,-19.1667 850.4263,-50.3855 885.7176,-66.7042 957,-154.1667 996.6805,-202.854 1014.1212,-277.5786 1020.4544,-312.6806"/>
<polygon fill="#191970" stroke="#191970" points="1017.0138,-313.3266 1022.1344,-322.6018 1023.9156,-312.1578 1017.0138,-313.3266"/>
</g>
<!-- Node7406&#45;&gt;Node7340 -->
<g id="edge48" class="edge">
<title>Node7406&#45;&gt;Node7340</title>
<path fill="none" stroke="#191970" d="M531.5189,-170.4535C537.4537,-144.7115 557.5027,-74.8206 605,-47.1667 657.62,-16.5302 692.5026,-11.706 742,-47.1667 773.7238,-69.8941 799.9099,-188.7484 809.2896,-236.3881"/>
<polygon fill="#191970" stroke="#191970" points="805.8872,-237.229 811.2157,-246.3864 812.7608,-235.9048 805.8872,-237.229"/>
</g>
<!-- Node7407&#45;&gt;Node7329 -->
<g id="edge59" class="edge">
<title>Node7407&#45;&gt;Node7329</title>
<path fill="none" stroke="#191970" d="M537.3423,-664.7776C550.0799,-679.8201 576.7036,-708.9794 605,-726.1667 613.9661,-731.6127 624.3447,-736.0548 634.269,-739.5699"/>
<polygon fill="#191970" stroke="#191970" points="633.3795,-742.962 643.9727,-742.7788 635.5773,-736.316 633.3795,-742.962"/>
</g>
<!-- Node7407&#45;&gt;Node7337 -->
<g id="edge55" class="edge">
<title>Node7407&#45;&gt;Node7337</title>
<path fill="none" stroke="#191970" d="M543.4784,-664.7268C558.0778,-674.0856 582.0137,-687.7082 605,-693.1667 664.2415,-707.2345 686.9332,-719.1495 742,-693.1667 896.5765,-620.231 990.1028,-415.0722 1016.064,-351.3167"/>
<polygon fill="#191970" stroke="#191970" points="1019.4361,-352.3095 1019.8901,-341.7244 1012.9342,-349.7161 1019.4361,-352.3095"/>
</g>
<!-- Node7407&#45;&gt;Node7342 -->
<g id="edge54" class="edge">
<title>Node7407&#45;&gt;Node7342</title>
<path fill="none" stroke="#191970" d="M538.6004,-664.7795C547.0404,-673.963 559.6666,-688.4057 569,-702.1667 587.9749,-730.1429 578.5911,-748.0648 605,-769.1667 614.8433,-777.032 627.7301,-781.6457 639.6673,-784.3504"/>
<polygon fill="#191970" stroke="#191970" points="639.3364,-787.8498 649.8128,-786.2696 640.6376,-780.9718 639.3364,-787.8498"/>
</g>
<!-- Node7407&#45;&gt;Node7340 -->
<g id="edge53" class="edge">
<title>Node7407&#45;&gt;Node7340</title>
<path fill="none" stroke="#191970" d="M546.1593,-645.5892C561.1778,-637.2467 584.0551,-625.2527 605,-617.1667 663.9474,-594.4094 699.2191,-625.6692 742,-579.1667 800.1899,-515.9148 759.0519,-472.9989 778,-389.1667 787.2118,-348.411 800.1848,-301.225 807.4721,-275.4453"/>
<polygon fill="#191970" stroke="#191970" points="810.8494,-276.3647 810.2196,-265.7886 804.1166,-274.4491 810.8494,-276.3647"/>
</g>
<!-- Node7407&#45;&gt;Node7353 -->
<g id="edge56" class="edge">
<title>Node7407&#45;&gt;Node7353</title>
<path fill="none" stroke="#191970" d="M533.1115,-645.5247C541.8684,-623.4934 566.3949,-569.2082 605,-541.1667 614.6326,-534.1699 626.7326,-529.7483 638.0725,-526.9546"/>
<polygon fill="#191970" stroke="#191970" points="639.1198,-530.3107 648.1805,-524.8195 637.673,-523.4618 639.1198,-530.3107"/>
</g>
<!-- Node7408 -->
<g id="node28" class="node">
<title>Node7408</title>
<g id="a_node28"><a xlink:href="libbf_8c.html#a6eda6dd86092f0d16e5f3148a2464220" target="_top" xlink:title="mp_shr">
<polygon fill="none" stroke="#000000" points="647,-626.6667 647,-645.6667 700,-645.6667 700,-626.6667 647,-626.6667"/>
<text text-anchor="middle" x="673.5" y="-633.6667" font-family="Helvetica,sans-Serif" font-size="10.00" fill="#000000">mp_shr</text>
</a>
</g>
</g>
<!-- Node7407&#45;&gt;Node7408 -->
<g id="edge57" class="edge">
<title>Node7407&#45;&gt;Node7408</title>
<path fill="none" stroke="#191970" d="M554.5829,-651.8571C577.246,-648.8669 610.8937,-644.4272 636.6195,-641.0329"/>
<polygon fill="#191970" stroke="#191970" points="637.296,-644.474 646.7522,-639.6959 636.3802,-637.5342 637.296,-644.474"/>
</g>
<!-- Node7409 -->
<g id="node29" class="node">
<title>Node7409</title>
<g id="a_node29"><a xlink:href="libbf_8h.html#aa3d8931becde9bdbea0aab310312acd3" target="_top" xlink:title="mp_sqrtrem">
<polygon fill="none" stroke="#ff0000" points="635.5,-664.6667 635.5,-683.6667 711.5,-683.6667 711.5,-664.6667 635.5,-664.6667"/>
<text text-anchor="middle" x="673.5" y="-671.6667" font-family="Helvetica,sans-Serif" font-size="10.00" fill="#000000">mp_sqrtrem</text>
</a>
</g>
</g>
<!-- Node7407&#45;&gt;Node7409 -->
<g id="edge58" class="edge">
<title>Node7407&#45;&gt;Node7409</title>
<path fill="none" stroke="#191970" d="M554.5829,-658.4762C574.0263,-661.0417 601.5548,-664.6739 625.2295,-667.7977"/>
<polygon fill="#191970" stroke="#191970" points="625.0759,-671.3077 635.4479,-669.1459 625.9917,-664.3678 625.0759,-671.3077"/>
</g>
<!-- Node7413&#45;&gt;Node7328 -->
<g id="edge63" class="edge">
<title>Node7413&#45;&gt;Node7328</title>
<path fill="none" stroke="#191970" d="M330.9763,-361.7043C341.1659,-377.2896 363.3105,-408.3596 389,-427.1667 459.0684,-478.4634 497.6229,-453.7072 569,-503.1667 588.1223,-516.4171 585.0638,-529.1758 605,-541.1667 615.5518,-547.5132 628.2837,-551.7988 639.8935,-554.6659"/>
<polygon fill="#191970" stroke="#191970" points="639.2047,-558.0981 649.7242,-556.8365 640.714,-551.2627 639.2047,-558.0981"/>
</g>
<!-- Node7413&#45;&gt;Node7344 -->
<g id="edge61" class="edge">
<title>Node7413&#45;&gt;Node7344</title>
<path fill="none" stroke="#191970" d="M327.3925,-361.9631C333.8529,-386.8808 353.5941,-453.8352 389,-498.1667 391.3719,-501.1365 394.1958,-503.9244 397.1741,-506.4743"/>
<polygon fill="#191970" stroke="#191970" points="395.1462,-509.3297 405.214,-512.6297 399.4015,-503.7716 395.1462,-509.3297"/>
</g>
<!-- Node7413&#45;&gt;Node7359 -->
<g id="edge62" class="edge">
<title>Node7413&#45;&gt;Node7359</title>
<path fill="none" stroke="#191970" d="M340.8999,-342.5436C370.6769,-324.4423 433.6768,-285.7479 454,-270.1667 471.2252,-256.9606 472.0267,-249.3352 490,-237.1667 492.4221,-235.5269 495.0073,-233.9511 497.6521,-232.4572"/>
<polygon fill="#191970" stroke="#191970" points="499.48,-235.4512 506.7231,-227.7189 496.239,-229.2467 499.48,-235.4512"/>
</g>
<!-- Node7413&#45;&gt;Node7404 -->
<g id="edge64" class="edge">
<title>Node7413&#45;&gt;Node7404</title>
<path fill="none" stroke="#191970" d="M353.0061,-354.6318C389.7584,-357.8667 454.2756,-363.5455 494.2932,-367.0678"/>
<polygon fill="#191970" stroke="#191970" points="494.1287,-370.5668 504.3971,-367.9571 494.7425,-363.5937 494.1287,-370.5668"/>
</g>
<!-- Node7413&#45;&gt;Node7405 -->
<g id="edge65" class="edge">
<title>Node7413&#45;&gt;Node7405</title>
<path fill="none" stroke="#191970" d="M353.1712,-346.3281C361.1682,-344.6707 370.0609,-342.8276 378.7159,-341.0339"/>
<polygon fill="#191970" stroke="#191970" points="379.6175,-344.4215 388.6991,-338.9648 378.1968,-337.5671 379.6175,-344.4215"/>
</g>
<!-- Node7413&#45;&gt;Node7406 -->
<g id="edge66" class="edge">
<title>Node7413&#45;&gt;Node7406</title>
<path fill="none" stroke="#191970" d="M331.1092,-342.5792C341.6604,-326.4671 364.5313,-293.4412 389,-270.1667 428.7573,-232.3497 442.6721,-226.9306 490,-199.1667 492.8224,-197.511 495.8111,-195.8755 498.8305,-194.3"/>
<polygon fill="#191970" stroke="#191970" points="500.4658,-197.3956 507.8458,-189.7939 497.3361,-191.1342 500.4658,-197.3956"/>
</g>
<!-- Node7413&#45;&gt;Node7413 -->
<g id="edge67" class="edge">
<title>Node7413&#45;&gt;Node7413</title>
<path fill="none" stroke="#191970" d="M310.2036,-361.9238C303.0054,-370.732 307.9375,-380.1667 325,-380.1667 335.6641,-380.1667 341.5897,-376.4813 342.7769,-371.5667"/>
<polygon fill="#191970" stroke="#191970" points="346.0934,-370.4442 339.7964,-361.9238 339.4056,-372.5114 346.0934,-370.4442"/>
</g>
</g>
</svg>
        <g id="navigator" transform="translate(0 0)" fill="#404254">
                <rect fill="#f2f5e9" fill-opacity="0.5" stroke="#606060" stroke-width=".5" x="0" y="0" width="60" height="60"/>
                <use id="zoomplus" xlink:href="#zoomPlus" x="17" y="9" onmousedown="handleZoom(evt,'in')"/>
                <use id="zoomminus" xlink:href="#zoomMin" x="42" y="9" onmousedown="handleZoom(evt,'out')"/>
                <use id="reset" xlink:href="#resetDef" x="30" y="36" onmousedown="handleReset()"/>
                <g id="arrowUp" xlink:href="#dirArrow" transform="translate(30 24)" onmousedown="handlePan(0,-1)">
                  <use xlink:href="#rim" fill="#404040">
                        <set attributeName="fill" to="#808080" begin="arrowUp.mouseover" end="arrowUp.mouseout"/>
                  </use>
                  <path fill="none" stroke="white" stroke-width="1.5" d="M0,-3.0v7 M-2.5,-0.5L0,-3.0L2.5,-0.5"/>
                </g>
                <g id="arrowRight" xlink:href="#dirArrow" transform="rotate(90) translate(36 -43)" onmousedown="handlePan(1,0)">
                  <use xlink:href="#rim" fill="#404040">
                        <set attributeName="fill" to="#808080" begin="arrowRight.mouseover" end="arrowRight.mouseout"/>
                  </use>
                  <path fill="none" stroke="white" stroke-width="1.5" d="M0,-3.0v7 M-2.5,-0.5L0,-3.0L2.5,-0.5"/>
                </g>
                <g id="arrowDown" xlink:href="#dirArrow" transform="rotate(180) translate(-30 -48)" onmousedown="handlePan(0,1)">
                  <use xlink:href="#rim" fill="#404040">
                        <set attributeName="fill" to="#808080" begin="arrowDown.mouseover" end="arrowDown.mouseout"/>
                  </use>
                  <path fill="none" stroke="white" stroke-width="1.5" d="M0,-3.0v7 M-2.5,-0.5L0,-3.0L2.5,-0.5"/>
                </g>
                <g id="arrowLeft" xlink:href="#dirArrow" transform="rotate(270) translate(-36 17)" onmousedown="handlePan(-1,0)">
                  <use xlink:href="#rim" fill="#404040">
                        <set attributeName="fill" to="#808080" begin="arrowLeft.mouseover" end="arrowLeft.mouseout"/>
                  </use>
                  <path fill="none" stroke="white" stroke-width="1.5" d="M0,-3.0v7 M-2.5,-0.5L0,-3.0L2.5,-0.5"/>
                </g>
        </g>
        <svg viewBox="0 0 15 15" width="100%" height="30px" preserveAspectRatio="xMaxYMin meet">
         <g id="arrow_out" transform="scale(0.3 0.3)">
          <a xlink:href="libbf_8c_a25b9653cbfca557499e786f8d2a7eb2e_cgraph_org.svg" target="_base">
           <rect id="button" ry="5" rx="5" y="6" x="6" height="38" width="38"
                fill="#f2f5e9" fill-opacity="0.5" stroke="#606060" stroke-width="1.0"/>
           <path id="arrow"
             d="M 11.500037,31.436501 C 11.940474,20.09759 22.043105,11.32322 32.158766,21.979434 L 37.068811,17.246167 C 37.068811,17.246167 37.088388,32 37.088388,32 L 22.160133,31.978069 C 22.160133,31.978069 26.997745,27.140456 26.997745,27.140456 C 18.528582,18.264221 13.291696,25.230495 11.500037,31.436501 z"
             style="fill:#404040;"/>
          </a>
         </g>
        </svg>
</svg>
