<?xml version="1.0" encoding="UTF-8" standalone="no"?>
<!DOCTYPE svg PUBLIC "-//W3C//DTD SVG 1.1//EN"
 "http://www.w3.org/Graphics/SVG/1.1/DTD/svg11.dtd">
<!-- Generated by graphviz version 2.40.1 (20161225.0304)
 -->
<!-- Title: bf_logic_op Pages: 1 -->
<!--zoomable 465 -->
<svg id="main" version="1.1" xmlns="http://www.w3.org/2000/svg" xmlns:xlink="http://www.w3.org/1999/xlink" xml:space="preserve" onload="init(evt)">
<style type="text/css"><![CDATA[
.edge:hover path { stroke: red; }
.edge:hover polygon { stroke: red; fill: red; }
]]></style>
<script type="text/javascript"><![CDATA[
var edges = document.getElementsByTagName('g');
if (edges && edges.length) {
  for (var i=0;i<edges.length;i++) {
    if (edges[i].id.substr(0,4)=='edge') {
      edges[i].setAttribute('class','edge');
    }
  }
}
]]></script>
        <defs>
                <circle id="rim" cx="0" cy="0" r="7"/>
                <circle id="rim2" cx="0" cy="0" r="3.5"/>
                <g id="zoomPlus">
                        <use xlink:href="#rim" fill="#404040">
                                <set attributeName="fill" to="#808080" begin="zoomplus.mouseover" end="zoomplus.mouseout"/>
                        </use>
                        <path d="M-4,0h8M0,-4v8" fill="none" stroke="white" stroke-width="1.5" pointer-events="none"/>
                </g>
                <g id="zoomMin">
                        <use xlink:href="#rim" fill="#404040">
                                <set attributeName="fill" to="#808080" begin="zoomminus.mouseover" end="zoomminus.mouseout"/>
                        </use>
                        <path d="M-4,0h8" fill="none" stroke="white" stroke-width="1.5" pointer-events="none"/>
                </g>
                <g id="dirArrow">
                        <path fill="none" stroke="white" stroke-width="1.5" d="M0,-3.0v7 M-2.5,-0.5L0,-3.0L2.5,-0.5"/>
                </g>
               <g id="resetDef">
                       <use xlink:href="#rim2" fill="#404040">
                               <set attributeName="fill" to="#808080" begin="reset.mouseover" end="reset.mouseout"/>
                       </use>
               </g>
        </defs>

<script type="text/javascript">
var viewWidth = 663;
var viewHeight = 465;
var sectionId = 'dynsection-141';
</script>
<script xlink:href="svgpan.js"/>
<svg id="graph" class="graph">
<g id="viewport">
<title>bf_logic_op</title>
<!-- Node5441 -->
<g id="node1" class="node">
<title>Node5441</title>
<polygon fill="#bfbfbf" stroke="#000000" points="0,-171.5 0,-190.5 72,-190.5 72,-171.5 0,-171.5"/>
<text text-anchor="middle" x="36" y="-178.5" font-family="Helvetica,sans-Serif" font-size="10.00" fill="#000000">bf_logic_op</text>
</g>
<!-- Node5442 -->
<g id="node2" class="node">
<title>Node5442</title>
<g id="a_node2"><a xlink:href="libbf_8h.html#a50a5aa2767f2389a32daf115aaef07af" target="_top" xlink:title="bf_add_si">
<polygon fill="none" stroke="#000000" points="115.5,-266.5 115.5,-285.5 178.5,-285.5 178.5,-266.5 115.5,-266.5"/>
<text text-anchor="middle" x="147" y="-273.5" font-family="Helvetica,sans-Serif" font-size="10.00" fill="#000000">bf_add_si</text>
</a>
</g>
</g>
<!-- Node5441&#45;&gt;Node5442 -->
<g id="edge1" class="edge">
<title>Node5441&#45;&gt;Node5442</title>
<path fill="none" stroke="#191970" d="M44.6948,-190.9015C57.6403,-205.3208 83.1343,-232.5004 108,-252 111.9374,-255.0877 116.296,-258.1077 120.6307,-260.9068"/>
<polygon fill="#191970" stroke="#191970" points="119.0048,-264.0164 129.3522,-266.2928 122.6829,-258.0605 119.0048,-264.0164"/>
</g>
<!-- Node5443 -->
<g id="node3" class="node">
<title>Node5443</title>
<g id="a_node3"><a xlink:href="libbf_8h.html#abacc1410890af049e02ebd788364ac48" target="_top" xlink:title="bf_init">
<polygon fill="none" stroke="#000000" points="466,-380.5 466,-399.5 513,-399.5 513,-380.5 466,-380.5"/>
<text text-anchor="middle" x="489.5" y="-387.5" font-family="Helvetica,sans-Serif" font-size="10.00" fill="#000000">bf_init</text>
</a>
</g>
</g>
<!-- Node5441&#45;&gt;Node5443 -->
<g id="edge15" class="edge">
<title>Node5441&#45;&gt;Node5443</title>
<path fill="none" stroke="#191970" d="M40.1265,-190.6345C49.545,-211.731 74.4326,-262.7013 108,-295 150.1874,-335.5928 168.2198,-337.8647 222,-361 263.7256,-378.9496 275.0466,-383.4883 320,-390 366.7153,-396.7669 421.4358,-395.0537 455.7887,-392.8307"/>
<polygon fill="#191970" stroke="#191970" points="456.0331,-396.3222 465.7646,-392.1332 455.5448,-389.3393 456.0331,-396.3222"/>
</g>
<!-- Node5446 -->
<g id="node6" class="node">
<title>Node5446</title>
<g id="a_node6"><a xlink:href="libbf_8h.html#ab51c43b22c1a81c789ee0e3d53c0e585" target="_top" xlink:title="bf_resize">
<polygon fill="none" stroke="#000000" points="594,-247.5 594,-266.5 655,-266.5 655,-247.5 594,-247.5"/>
<text text-anchor="middle" x="624.5" y="-254.5" font-family="Helvetica,sans-Serif" font-size="10.00" fill="#000000">bf_resize</text>
</a>
</g>
</g>
<!-- Node5441&#45;&gt;Node5446 -->
<g id="edge21" class="edge">
<title>Node5441&#45;&gt;Node5446</title>
<path fill="none" stroke="#191970" d="M38.9416,-171.3229C46.3648,-148.7248 68.1621,-92.4723 108,-67 162.7587,-31.9874 188.0047,-48 253,-48 253,-48 253,-48 352.5,-48 477.2617,-48 579.9838,-187.9672 613.1857,-238.8168"/>
<polygon fill="#191970" stroke="#191970" points="610.3886,-240.9394 618.7262,-247.4766 616.2851,-237.1668 610.3886,-240.9394"/>
</g>
<!-- Node5449 -->
<g id="node7" class="node">
<title>Node5449</title>
<g id="a_node7"><a xlink:href="libbf_8h.html#aa6282c789c16c8cf2fe6a8ebd671c6fc" target="_top" xlink:title="bf_set_nan">
<polygon fill="none" stroke="#000000" points="454.5,-228.5 454.5,-247.5 524.5,-247.5 524.5,-228.5 454.5,-228.5"/>
<text text-anchor="middle" x="489.5" y="-235.5" font-family="Helvetica,sans-Serif" font-size="10.00" fill="#000000">bf_set_nan</text>
</a>
</g>
</g>
<!-- Node5441&#45;&gt;Node5449 -->
<g id="edge22" class="edge">
<title>Node5441&#45;&gt;Node5449</title>
<path fill="none" stroke="#191970" d="M72.0294,-184.0679C135.4632,-189.6598 271.1532,-202.4738 385,-219 404.5544,-221.8385 426.048,-225.6297 444.4312,-229.0787"/>
<polygon fill="#191970" stroke="#191970" points="443.8146,-232.5241 454.2921,-230.9514 445.1207,-225.647 443.8146,-232.5241"/>
</g>
<!-- Node5474 -->
<g id="node11" class="node">
<title>Node5474</title>
<g id="a_node11"><a xlink:href="libbf_8h.html#a2b9d906b21e903f2f7f1c9044674ab7d" target="_top" xlink:title="bf_delete">
<polygon fill="none" stroke="#000000" points="222,-228.5 222,-247.5 284,-247.5 284,-228.5 222,-228.5"/>
<text text-anchor="middle" x="253" y="-235.5" font-family="Helvetica,sans-Serif" font-size="10.00" fill="#000000">bf_delete</text>
</a>
</g>
</g>
<!-- Node5441&#45;&gt;Node5474 -->
<g id="edge14" class="edge">
<title>Node5441&#45;&gt;Node5474</title>
<path fill="none" stroke="#191970" d="M53.5309,-190.637C67.8,-198.0834 88.6713,-208.0866 108,-214 142.1177,-224.4379 182.2241,-230.6335 211.5984,-234.1071"/>
<polygon fill="#191970" stroke="#191970" points="211.5753,-237.6265 221.904,-235.2665 212.358,-230.6704 211.5753,-237.6265"/>
</g>
<!-- Node5475 -->
<g id="node13" class="node">
<title>Node5475</title>
<g id="a_node13"><a xlink:href="libbf_8c.html#a900239b7676c1dd839184666fc520865" target="_top" xlink:title="bf_logic_op1">
<polygon fill="none" stroke="#000000" points="108,-152.5 108,-171.5 186,-171.5 186,-152.5 108,-152.5"/>
<text text-anchor="middle" x="147" y="-159.5" font-family="Helvetica,sans-Serif" font-size="10.00" fill="#000000">bf_logic_op1</text>
</a>
</g>
</g>
<!-- Node5441&#45;&gt;Node5475 -->
<g id="edge16" class="edge">
<title>Node5441&#45;&gt;Node5475</title>
<path fill="none" stroke="#191970" d="M72.0385,-174.8312C80.2284,-173.4294 89.0656,-171.9167 97.7001,-170.4387"/>
<polygon fill="#191970" stroke="#191970" points="98.4261,-173.8654 107.6923,-168.7284 97.2451,-166.9658 98.4261,-173.8654"/>
</g>
<!-- Node5458 -->
<g id="node14" class="node">
<title>Node5458</title>
<g id="a_node14"><a xlink:href="libbf_8h.html#a4954f3435332238433d15977d55ae566" target="_top" xlink:title="bf_max">
<polygon fill="none" stroke="#000000" points="120.5,-114.5 120.5,-133.5 173.5,-133.5 173.5,-114.5 120.5,-114.5"/>
<text text-anchor="middle" x="147" y="-121.5" font-family="Helvetica,sans-Serif" font-size="10.00" fill="#000000">bf_max</text>
</a>
</g>
</g>
<!-- Node5441&#45;&gt;Node5458 -->
<g id="edge17" class="edge">
<title>Node5441&#45;&gt;Node5458</title>
<path fill="none" stroke="#191970" d="M53.6705,-171.4701C68.1952,-163.6859 89.3448,-152.464 108,-143 111.1862,-141.3836 114.5308,-139.7138 117.8656,-138.066"/>
<polygon fill="#191970" stroke="#191970" points="119.6582,-141.0853 127.0984,-133.5425 116.5783,-134.7992 119.6582,-141.0853"/>
</g>
<!-- Node5460 -->
<g id="node15" class="node">
<title>Node5460</title>
<g id="a_node15"><a xlink:href="libbf_8h.html#a970a1725f8bc59eda655058c5ff6bc52" target="_top" xlink:title="bf_min">
<polygon fill="none" stroke="#000000" points="122,-76.5 122,-95.5 172,-95.5 172,-76.5 122,-76.5"/>
<text text-anchor="middle" x="147" y="-83.5" font-family="Helvetica,sans-Serif" font-size="10.00" fill="#000000">bf_min</text>
</a>
</g>
</g>
<!-- Node5441&#45;&gt;Node5460 -->
<g id="edge18" class="edge">
<title>Node5441&#45;&gt;Node5460</title>
<path fill="none" stroke="#191970" d="M43.4832,-171.0404C55.6365,-155.3881 81.0343,-124.7803 108,-105 110.2014,-103.3852 112.5614,-101.8467 114.9909,-100.3953"/>
<polygon fill="#191970" stroke="#191970" points="116.8159,-103.3871 123.9344,-95.54 113.4761,-97.2352 116.8159,-103.3871"/>
</g>
<!-- Node5461 -->
<g id="node16" class="node">
<title>Node5461</title>
<g id="a_node16"><a xlink:href="libbf_8h.html#ae822c0888d26739bb681dfef282b9150" target="_top" xlink:title="bf_normalize_and_round">
<polygon fill="none" stroke="#ff0000" points="421,-437.5 421,-456.5 558,-456.5 558,-437.5 421,-437.5"/>
<text text-anchor="middle" x="489.5" y="-444.5" font-family="Helvetica,sans-Serif" font-size="10.00" fill="#000000">bf_normalize_and_round</text>
</a>
</g>
</g>
<!-- Node5441&#45;&gt;Node5461 -->
<g id="edge19" class="edge">
<title>Node5441&#45;&gt;Node5461</title>
<path fill="none" stroke="#191970" d="M38.0637,-190.5929C44.1812,-216.9012 64.5667,-291.0802 108,-334 189.328,-414.3664 324.9741,-438.0478 410.6983,-444.7484"/>
<polygon fill="#191970" stroke="#191970" points="410.6721,-448.2555 420.898,-445.484 411.1757,-441.2736 410.6721,-448.2555"/>
</g>
<!-- Node5473 -->
<g id="node17" class="node">
<title>Node5473</title>
<g id="a_node17"><a xlink:href="libbf_8c.html#a9efaad53187f85b1afc28c3f67cc72b6" target="_top" xlink:title="get_bits">
<polygon fill="none" stroke="#000000" points="119,-.5 119,-19.5 175,-19.5 175,-.5 119,-.5"/>
<text text-anchor="middle" x="147" y="-7.5" font-family="Helvetica,sans-Serif" font-size="10.00" fill="#000000">get_bits</text>
</a>
</g>
</g>
<!-- Node5441&#45;&gt;Node5473 -->
<g id="edge23" class="edge">
<title>Node5441&#45;&gt;Node5473</title>
<path fill="none" stroke="#191970" d="M38.6629,-171.3272C46.005,-146.1142 68.644,-77.3368 108,-34 110.9463,-30.7557 114.4321,-27.7957 118.0884,-25.1481"/>
<polygon fill="#191970" stroke="#191970" points="120.2543,-27.9159 126.7557,-19.5504 116.4565,-22.0356 120.2543,-27.9159"/>
</g>
<!-- Node5442&#45;&gt;Node5443 -->
<g id="edge2" class="edge">
<title>Node5442&#45;&gt;Node5443</title>
<path fill="none" stroke="#191970" d="M157.5105,-285.523C171.4406,-297.7697 197.1629,-319.1108 222,-333 262.7731,-355.8008 274.6322,-359.8608 320,-371 366.2587,-382.3579 421.3076,-386.944 455.8354,-388.784"/>
<polygon fill="#191970" stroke="#191970" points="455.7015,-392.2816 465.8597,-389.2714 456.0415,-385.2898 455.7015,-392.2816"/>
</g>
<!-- Node5444 -->
<g id="node4" class="node">
<title>Node5444</title>
<g id="a_node4"><a xlink:href="libbf_8h.html#a60ee3eaad83309aaf8a8b8fb81d8b44d" target="_top" xlink:title="bf_set_si">
<polygon fill="none" stroke="#000000" points="223,-266.5 223,-285.5 283,-285.5 283,-266.5 223,-266.5"/>
<text text-anchor="middle" x="253" y="-273.5" font-family="Helvetica,sans-Serif" font-size="10.00" fill="#000000">bf_set_si</text>
</a>
</g>
</g>
<!-- Node5442&#45;&gt;Node5444 -->
<g id="edge3" class="edge">
<title>Node5442&#45;&gt;Node5444</title>
<path fill="none" stroke="#191970" d="M178.5165,-276C189.263,-276 201.428,-276 212.7646,-276"/>
<polygon fill="#191970" stroke="#191970" points="212.8784,-279.5001 222.8783,-276 212.8783,-272.5001 212.8784,-279.5001"/>
</g>
<!-- Node5450 -->
<g id="node8" class="node">
<title>Node5450</title>
<g id="a_node8"><a xlink:href="libbf_8h.html#a17dc09166f82ffa408f54a2edc4d7855" target="_top" xlink:title="bf_add">
<polygon fill="none" stroke="#000000" points="228,-304.5 228,-323.5 278,-323.5 278,-304.5 228,-304.5"/>
<text text-anchor="middle" x="253" y="-311.5" font-family="Helvetica,sans-Serif" font-size="10.00" fill="#000000">bf_add</text>
</a>
</g>
</g>
<!-- Node5442&#45;&gt;Node5450 -->
<g id="edge8" class="edge">
<title>Node5442&#45;&gt;Node5450</title>
<path fill="none" stroke="#191970" d="M173.7483,-285.589C187.2028,-290.4123 203.6771,-296.3182 218.1133,-301.4934"/>
<polygon fill="#191970" stroke="#191970" points="217.1253,-304.8573 227.7198,-304.9373 219.4875,-298.2679 217.1253,-304.8573"/>
</g>
<!-- Node5442&#45;&gt;Node5474 -->
<g id="edge12" class="edge">
<title>Node5442&#45;&gt;Node5474</title>
<path fill="none" stroke="#191970" d="M173.7483,-266.411C186.8042,-261.7306 202.7035,-256.0308 216.8248,-250.9685"/>
<polygon fill="#191970" stroke="#191970" points="218.028,-254.2553 226.2603,-247.5859 215.6657,-247.6659 218.028,-254.2553"/>
</g>
<!-- Node5445 -->
<g id="node5" class="node">
<title>Node5445</title>
<g id="a_node5"><a xlink:href="libbf_8h.html#a2378f025beace5741c19bf995c2971d3" target="_top" xlink:title="bf_set_ui">
<polygon fill="none" stroke="#ff0000" points="322,-266.5 322,-285.5 383,-285.5 383,-266.5 322,-266.5"/>
<text text-anchor="middle" x="352.5" y="-273.5" font-family="Helvetica,sans-Serif" font-size="10.00" fill="#000000">bf_set_ui</text>
</a>
</g>
</g>
<!-- Node5444&#45;&gt;Node5445 -->
<g id="edge4" class="edge">
<title>Node5444&#45;&gt;Node5445</title>
<path fill="none" stroke="#191970" d="M283.1233,-276C292.1123,-276 302.1195,-276 311.6728,-276"/>
<polygon fill="#191970" stroke="#191970" points="311.7914,-279.5001 321.7913,-276 311.7913,-272.5001 311.7914,-279.5001"/>
</g>
<!-- Node5445&#45;&gt;Node5446 -->
<g id="edge5" class="edge">
<title>Node5445&#45;&gt;Node5446</title>
<path fill="none" stroke="#191970" d="M383.1731,-273.8574C432.3804,-270.4201 528.9877,-263.6718 583.8712,-259.838"/>
<polygon fill="#191970" stroke="#191970" points="584.2072,-263.3232 593.939,-259.1348 583.7194,-256.3402 584.2072,-263.3232"/>
</g>
<!-- Node5445&#45;&gt;Node5449 -->
<g id="edge6" class="edge">
<title>Node5445&#45;&gt;Node5449</title>
<path fill="none" stroke="#191970" d="M383.2455,-267.4721C401.5506,-262.3947 425.0868,-255.8664 445.3533,-250.2451"/>
<polygon fill="#191970" stroke="#191970" points="446.3017,-253.6142 455.0024,-247.5687 444.4307,-246.8689 446.3017,-253.6142"/>
</g>
<!-- Node5449&#45;&gt;Node5446 -->
<g id="edge7" class="edge">
<title>Node5449&#45;&gt;Node5446</title>
<path fill="none" stroke="#191970" d="M524.6172,-242.9424C542.6787,-245.4844 564.7941,-248.5969 583.6198,-251.2465"/>
<polygon fill="#191970" stroke="#191970" points="583.3033,-254.7364 593.6935,-252.6643 584.2789,-247.8047 583.3033,-254.7364"/>
</g>
<!-- Node5451 -->
<g id="node9" class="node">
<title>Node5451</title>
<g id="a_node9"><a xlink:href="libbf_8c.html#a3ebbc1c7473b2ad84ced2b263bf38bae" target="_top" xlink:title="bf_op2">
<polygon fill="none" stroke="#ff0000" points="327.5,-304.5 327.5,-323.5 377.5,-323.5 377.5,-304.5 327.5,-304.5"/>
<text text-anchor="middle" x="352.5" y="-311.5" font-family="Helvetica,sans-Serif" font-size="10.00" fill="#000000">bf_op2</text>
</a>
</g>
</g>
<!-- Node5450&#45;&gt;Node5451 -->
<g id="edge9" class="edge">
<title>Node5450&#45;&gt;Node5451</title>
<path fill="none" stroke="#191970" d="M278.1081,-314C290.0098,-314 304.4289,-314 317.3919,-314"/>
<polygon fill="#191970" stroke="#191970" points="317.4,-317.5001 327.4,-314 317.3999,-310.5001 317.4,-317.5001"/>
</g>
<!-- Node5455 -->
<g id="node10" class="node">
<title>Node5455</title>
<g id="a_node10"><a xlink:href="libbf_8c.html#a951a1d3ebb338129d86e00f51b47f2ee" target="_top" xlink:title="__bf_add">
<polygon fill="none" stroke="#ff0000" points="322.5,-342.5 322.5,-361.5 382.5,-361.5 382.5,-342.5 322.5,-342.5"/>
<text text-anchor="middle" x="352.5" y="-349.5" font-family="Helvetica,sans-Serif" font-size="10.00" fill="#000000">__bf_add</text>
</a>
</g>
</g>
<!-- Node5450&#45;&gt;Node5455 -->
<g id="edge11" class="edge">
<title>Node5450&#45;&gt;Node5455</title>
<path fill="none" stroke="#191970" d="M278.1081,-323.589C290.1277,-328.1794 304.7147,-333.7503 317.7765,-338.7388"/>
<polygon fill="#191970" stroke="#191970" points="316.8093,-342.1159 327.4,-342.4141 319.3068,-335.5766 316.8093,-342.1159"/>
</g>
<!-- Node5451&#45;&gt;Node5443 -->
<g id="edge10" class="edge">
<title>Node5451&#45;&gt;Node5443</title>
<path fill="none" stroke="#191970" d="M369.8511,-323.6255C393.4243,-336.7025 435.7738,-360.1957 463.2475,-375.4366"/>
<polygon fill="#191970" stroke="#191970" points="461.8473,-378.6623 472.2897,-380.4527 465.243,-372.541 461.8473,-378.6623"/>
</g>
<!-- Node5454 -->
<g id="node12" class="node">
<title>Node5454</title>
<g id="a_node12"><a xlink:href="libbf_8h.html#a524c9e60866c08c75061626a4b5e2f29" target="_top" xlink:title="bf_realloc">
<polygon fill="none" stroke="#000000" points="320,-228.5 320,-247.5 385,-247.5 385,-228.5 320,-228.5"/>
<text text-anchor="middle" x="352.5" y="-235.5" font-family="Helvetica,sans-Serif" font-size="10.00" fill="#000000">bf_realloc</text>
</a>
</g>
</g>
<!-- Node5474&#45;&gt;Node5454 -->
<g id="edge13" class="edge">
<title>Node5474&#45;&gt;Node5454</title>
<path fill="none" stroke="#191970" d="M284.2094,-238C292.232,-238 301.0052,-238 309.5098,-238"/>
<polygon fill="#191970" stroke="#191970" points="309.682,-241.5001 319.682,-238 309.6819,-234.5001 309.682,-241.5001"/>
</g>
<!-- Node5461&#45;&gt;Node5446 -->
<g id="edge20" class="edge">
<title>Node5461&#45;&gt;Node5446</title>
<path fill="none" stroke="#191970" d="M515.63,-437.3588C529.6921,-431.0765 546.4664,-421.673 558,-409 593.7423,-369.7268 612.493,-308.1886 620.1885,-276.8218"/>
<polygon fill="#191970" stroke="#191970" points="623.6798,-277.2606 622.5345,-266.7278 616.8615,-275.6759 623.6798,-277.2606"/>
</g>
</g>
</svg>
        <g id="navigator" transform="translate(0 0)" fill="#404254">
                <rect fill="#f2f5e9" fill-opacity="0.5" stroke="#606060" stroke-width=".5" x="0" y="0" width="60" height="60"/>
                <use id="zoomplus" xlink:href="#zoomPlus" x="17" y="9" onmousedown="handleZoom(evt,'in')"/>
                <use id="zoomminus" xlink:href="#zoomMin" x="42" y="9" onmousedown="handleZoom(evt,'out')"/>
                <use id="reset" xlink:href="#resetDef" x="30" y="36" onmousedown="handleReset()"/>
                <g id="arrowUp" xlink:href="#dirArrow" transform="translate(30 24)" onmousedown="handlePan(0,-1)">
                  <use xlink:href="#rim" fill="#404040">
                        <set attributeName="fill" to="#808080" begin="arrowUp.mouseover" end="arrowUp.mouseout"/>
                  </use>
                  <path fill="none" stroke="white" stroke-width="1.5" d="M0,-3.0v7 M-2.5,-0.5L0,-3.0L2.5,-0.5"/>
                </g>
                <g id="arrowRight" xlink:href="#dirArrow" transform="rotate(90) translate(36 -43)" onmousedown="handlePan(1,0)">
                  <use xlink:href="#rim" fill="#404040">
                        <set attributeName="fill" to="#808080" begin="arrowRight.mouseover" end="arrowRight.mouseout"/>
                  </use>
                  <path fill="none" stroke="white" stroke-width="1.5" d="M0,-3.0v7 M-2.5,-0.5L0,-3.0L2.5,-0.5"/>
                </g>
                <g id="arrowDown" xlink:href="#dirArrow" transform="rotate(180) translate(-30 -48)" onmousedown="handlePan(0,1)">
                  <use xlink:href="#rim" fill="#404040">
                        <set attributeName="fill" to="#808080" begin="arrowDown.mouseover" end="arrowDown.mouseout"/>
                  </use>
                  <path fill="none" stroke="white" stroke-width="1.5" d="M0,-3.0v7 M-2.5,-0.5L0,-3.0L2.5,-0.5"/>
                </g>
                <g id="arrowLeft" xlink:href="#dirArrow" transform="rotate(270) translate(-36 17)" onmousedown="handlePan(-1,0)">
                  <use xlink:href="#rim" fill="#404040">
                        <set attributeName="fill" to="#808080" begin="arrowLeft.mouseover" end="arrowLeft.mouseout"/>
                  </use>
                  <path fill="none" stroke="white" stroke-width="1.5" d="M0,-3.0v7 M-2.5,-0.5L0,-3.0L2.5,-0.5"/>
                </g>
        </g>
        <svg viewBox="0 0 15 15" width="100%" height="30px" preserveAspectRatio="xMaxYMin meet">
         <g id="arrow_out" transform="scale(0.3 0.3)">
          <a xlink:href="libbf_8c_ad7d8e39c51ec431bcd496bb37382ae94_cgraph_org.svg" target="_base">
           <rect id="button" ry="5" rx="5" y="6" x="6" height="38" width="38"
                fill="#f2f5e9" fill-opacity="0.5" stroke="#606060" stroke-width="1.0"/>
           <path id="arrow"
             d="M 11.500037,31.436501 C 11.940474,20.09759 22.043105,11.32322 32.158766,21.979434 L 37.068811,17.246167 C 37.068811,17.246167 37.088388,32 37.088388,32 L 22.160133,31.978069 C 22.160133,31.978069 26.997745,27.140456 26.997745,27.140456 C 18.528582,18.264221 13.291696,25.230495 11.500037,31.436501 z"
             style="fill:#404040;"/>
          </a>
         </g>
        </svg>
</svg>
