<?xml version="1.0" encoding="UTF-8" standalone="no"?>
<!DOCTYPE svg PUBLIC "-//W3C//DTD SVG 1.1//EN"
 "http://www.w3.org/Graphics/SVG/1.1/DTD/svg11.dtd">
<!-- Generated by graphviz version 2.40.1 (20161225.0304)
 -->
<!-- Title: fast_udiv Pages: 1 -->
<svg width="583pt" height="180pt"
 viewBox="0.00 0.00 583.00 180.00" xmlns="http://www.w3.org/2000/svg" xmlns:xlink="http://www.w3.org/1999/xlink">
<g id="graph0" class="graph" transform="scale(1 1) rotate(0) translate(4 176)">
<title>fast_udiv</title>
<!-- Node10060 -->
<g id="node1" class="node">
<title>Node10060</title>
<polygon fill="#bfbfbf" stroke="#000000" points="0,-38.5 0,-57.5 62,-57.5 62,-38.5 0,-38.5"/>
<text text-anchor="middle" x="31" y="-45.5" font-family="Helvetica,sans-Serif" font-size="10.00" fill="#000000">fast_udiv</text>
</g>
<!-- Node10061 -->
<g id="node2" class="node">
<title>Node10061</title>
<g id="a_node2"><a xlink:href="libbf_8c.html#aea07e4f7e665f38255c0d83fafc7d38d" target="_top" xlink:title="fast_shr_dec">
<polygon fill="none" stroke="#000000" points="98,-38.5 98,-57.5 176,-57.5 176,-38.5 98,-38.5"/>
<text text-anchor="middle" x="137" y="-45.5" font-family="Helvetica,sans-Serif" font-size="10.00" fill="#000000">fast_shr_dec</text>
</a>
</g>
</g>
<!-- Node10060&#45;&gt;Node10061 -->
<g id="edge1" class="edge">
<title>Node10060&#45;&gt;Node10061</title>
<path fill="none" stroke="#191970" d="M72.4724,-48C80.7776,-48 89.4797,-48 97.7084,-48"/>
<polygon fill="#191970" stroke="#191970" points="72.2302,-44.5001 62.2302,-48 72.2301,-51.5001 72.2302,-44.5001"/>
</g>
<!-- Node10062 -->
<g id="node3" class="node">
<title>Node10062</title>
<g id="a_node3"><a xlink:href="libbf_8c.html#a4ae6bd03b3af1b742666f50df5a52cb9" target="_top" xlink:title="get_digit">
<polygon fill="none" stroke="#000000" points="230,-95.5 230,-114.5 289,-114.5 289,-95.5 230,-95.5"/>
<text text-anchor="middle" x="259.5" y="-102.5" font-family="Helvetica,sans-Serif" font-size="10.00" fill="#000000">get_digit</text>
</a>
</g>
</g>
<!-- Node10061&#45;&gt;Node10062 -->
<g id="edge2" class="edge">
<title>Node10061&#45;&gt;Node10062</title>
<path fill="none" stroke="#191970" d="M166.8665,-61.8971C189.2176,-72.2972 219.2082,-86.252 238.9294,-95.4284"/>
<polygon fill="#191970" stroke="#191970" points="168.0469,-58.586 157.5037,-57.5405 165.0937,-64.9326 168.0469,-58.586"/>
</g>
<!-- Node10069 -->
<g id="node7" class="node">
<title>Node10069</title>
<g id="a_node7"><a xlink:href="libbf_8c.html#aec64568757dfbfcb93d12168d4a9306a" target="_top" xlink:title="__bfdec_round">
<polygon fill="none" stroke="#ff0000" points="488,-57.5 488,-76.5 575,-76.5 575,-57.5 488,-57.5"/>
<text text-anchor="middle" x="531.5" y="-64.5" font-family="Helvetica,sans-Serif" font-size="10.00" fill="#000000">__bfdec_round</text>
</a>
</g>
</g>
<!-- Node10061&#45;&gt;Node10069 -->
<g id="edge7" class="edge">
<title>Node10061&#45;&gt;Node10069</title>
<path fill="none" stroke="#191970" d="M186.2904,-50.3739C264.0326,-54.1182 413.8762,-61.335 487.9135,-64.9008"/>
<polygon fill="#191970" stroke="#191970" points="186.4253,-46.8765 176.2684,-49.8913 186.0885,-53.8684 186.4253,-46.8765"/>
</g>
<!-- Node10092 -->
<g id="node8" class="node">
<title>Node10092</title>
<g id="a_node8"><a xlink:href="libbf_8h.html#ab3ae660142e76ac134eddd281450d969" target="_top" xlink:title="bfdec_get_int32">
<polygon fill="none" stroke="#000000" points="212,-.5 212,-19.5 307,-19.5 307,-.5 212,-.5"/>
<text text-anchor="middle" x="259.5" y="-7.5" font-family="Helvetica,sans-Serif" font-size="10.00" fill="#000000">bfdec_get_int32</text>
</a>
</g>
</g>
<!-- Node10061&#45;&gt;Node10092 -->
<g id="edge8" class="edge">
<title>Node10061&#45;&gt;Node10092</title>
<path fill="none" stroke="#191970" d="M177.8777,-35.3196C194.4294,-30.1852 213.2211,-24.3559 228.598,-19.5859"/>
<polygon fill="#191970" stroke="#191970" points="176.426,-32.1053 167.9119,-38.411 178.4999,-38.791 176.426,-32.1053"/>
</g>
<!-- Node10063 -->
<g id="node4" class="node">
<title>Node10063</title>
<g id="a_node4"><a xlink:href="libbf_8c.html#ad79aefc435021a0743c89cb4aec7fa56" target="_top" xlink:title="bf_ftoa_internal">
<polygon fill="none" stroke="#ff0000" points="350.5,-152.5 350.5,-171.5 444.5,-171.5 444.5,-152.5 350.5,-152.5"/>
<text text-anchor="middle" x="397.5" y="-159.5" font-family="Helvetica,sans-Serif" font-size="10.00" fill="#000000">bf_ftoa_internal</text>
</a>
</g>
</g>
<!-- Node10062&#45;&gt;Node10063 -->
<g id="edge3" class="edge">
<title>Node10062&#45;&gt;Node10063</title>
<path fill="none" stroke="#191970" d="M288.5008,-118.9894C304.4338,-126.4739 324.6362,-135.6383 343,-143 351.1847,-146.2811 360.1824,-149.5515 368.4669,-152.431"/>
<polygon fill="#191970" stroke="#191970" points="289.7224,-115.6953 279.1867,-114.5775 286.7258,-122.0215 289.7224,-115.6953"/>
</g>
<!-- Node10066 -->
<g id="node5" class="node">
<title>Node10066</title>
<g id="a_node5"><a xlink:href="libbf_8h.html#a318508be097917ddd5d1ce187edea68b" target="_top" xlink:title="bfdec_divrem">
<polygon fill="none" stroke="#ff0000" points="356,-114.5 356,-133.5 439,-133.5 439,-114.5 356,-114.5"/>
<text text-anchor="middle" x="397.5" y="-121.5" font-family="Helvetica,sans-Serif" font-size="10.00" fill="#000000">bfdec_divrem</text>
</a>
</g>
</g>
<!-- Node10062&#45;&gt;Node10066 -->
<g id="edge4" class="edge">
<title>Node10062&#45;&gt;Node10066</title>
<path fill="none" stroke="#191970" d="M299.1558,-110.4599C316.933,-112.9074 337.9039,-115.7947 355.9039,-118.273"/>
<polygon fill="#191970" stroke="#191970" points="299.4884,-106.9727 289.1045,-109.076 298.5336,-113.9073 299.4884,-106.9727"/>
</g>
<!-- Node10068 -->
<g id="node6" class="node">
<title>Node10068</title>
<g id="a_node6"><a xlink:href="libbf_8c.html#a17bf08f4c7268d0f16f31fbe1951bf77" target="_top" xlink:title="bfdec_get_rnd_add">
<polygon fill="none" stroke="#000000" points="343,-76.5 343,-95.5 452,-95.5 452,-76.5 343,-76.5"/>
<text text-anchor="middle" x="397.5" y="-83.5" font-family="Helvetica,sans-Serif" font-size="10.00" fill="#000000">bfdec_get_rnd_add</text>
</a>
</g>
</g>
<!-- Node10062&#45;&gt;Node10068 -->
<g id="edge5" class="edge">
<title>Node10062&#45;&gt;Node10068</title>
<path fill="none" stroke="#191970" d="M299.1193,-99.5452C312.7558,-97.6677 328.2749,-95.531 342.8922,-93.5185"/>
<polygon fill="#191970" stroke="#191970" points="298.5336,-96.0927 289.1045,-100.924 299.4884,-103.0273 298.5336,-96.0927"/>
</g>
<!-- Node10068&#45;&gt;Node10069 -->
<g id="edge6" class="edge">
<title>Node10068&#45;&gt;Node10069</title>
<path fill="none" stroke="#191970" d="M462.1235,-76.837C470.7952,-75.6074 479.5201,-74.3703 487.7161,-73.2082"/>
<polygon fill="#191970" stroke="#191970" points="461.4125,-73.4027 452.0029,-78.272 462.3953,-80.3334 461.4125,-73.4027"/>
</g>
</g>
</svg>
