<?xml version="1.0" encoding="UTF-8" standalone="no"?>
<!DOCTYPE svg PUBLIC "-//W3C//DTD SVG 1.1//EN"
 "http://www.w3.org/Graphics/SVG/1.1/DTD/svg11.dtd">
<!-- Generated by graphviz version 2.40.1 (20161225.0304)
 -->
<!-- Title: udiv1norm_init Pages: 1 -->
<svg width="487pt" height="234pt"
 viewBox="0.00 0.00 487.00 234.00" xmlns="http://www.w3.org/2000/svg" xmlns:xlink="http://www.w3.org/1999/xlink">
<g id="graph0" class="graph" transform="scale(1 1) rotate(0) translate(4 230)">
<title>udiv1norm_init</title>
<!-- Node3110 -->
<g id="node1" class="node">
<title>Node3110</title>
<polygon fill="#bfbfbf" stroke="#000000" points="0,-98.5 0,-117.5 90,-117.5 90,-98.5 0,-98.5"/>
<text text-anchor="middle" x="45" y="-105.5" font-family="Helvetica,sans-Serif" font-size="10.00" fill="#000000">udiv1norm_init</text>
</g>
<!-- Node3111 -->
<g id="node2" class="node">
<title>Node3111</title>
<g id="a_node2"><a xlink:href="libbf_8c.html#a0d7d399077e9d627f8dda1a6233a56cb" target="_top" xlink:title="mp_div1_dec">
<polygon fill="none" stroke="#000000" points="127.5,-141.5 127.5,-160.5 208.5,-160.5 208.5,-141.5 127.5,-141.5"/>
<text text-anchor="middle" x="168" y="-148.5" font-family="Helvetica,sans-Serif" font-size="10.00" fill="#000000">mp_div1_dec</text>
</a>
</g>
</g>
<!-- Node3110&#45;&gt;Node3111 -->
<g id="edge1" class="edge">
<title>Node3110&#45;&gt;Node3111</title>
<path fill="none" stroke="#191970" d="M81.8123,-120.8693C100.7517,-127.4904 123.4367,-135.421 140.7786,-141.4836"/>
<polygon fill="#191970" stroke="#191970" points="82.8925,-117.5393 72.2977,-117.5431 80.5824,-124.1472 82.8925,-117.5393"/>
</g>
<!-- Node3121 -->
<g id="node7" class="node">
<title>Node3121</title>
<g id="a_node7"><a xlink:href="libbf_8c.html#ab2062acf79642a2e95590088d4714633" target="_top" xlink:title="mp_div1norm">
<polygon fill="none" stroke="#000000" points="126,-98.5 126,-117.5 210,-117.5 210,-98.5 126,-98.5"/>
<text text-anchor="middle" x="168" y="-105.5" font-family="Helvetica,sans-Serif" font-size="10.00" fill="#000000">mp_div1norm</text>
</a>
</g>
</g>
<!-- Node3110&#45;&gt;Node3121 -->
<g id="edge8" class="edge">
<title>Node3110&#45;&gt;Node3121</title>
<path fill="none" stroke="#191970" d="M100.3778,-108C108.9029,-108 117.5864,-108 125.7645,-108"/>
<polygon fill="#191970" stroke="#191970" points="100.1023,-104.5001 90.1022,-108 100.1022,-111.5001 100.1023,-104.5001"/>
</g>
<!-- Node3122 -->
<g id="node8" class="node">
<title>Node3122</title>
<g id="a_node8"><a xlink:href="libbf_8c.html#a0b14a84ecf8baf4930b1bcb8621b8e18" target="_top" xlink:title="mp_divnorm">
<polygon fill="none" stroke="#000000" points="246,-60.5 246,-79.5 324,-79.5 324,-60.5 246,-60.5"/>
<text text-anchor="middle" x="285" y="-67.5" font-family="Helvetica,sans-Serif" font-size="10.00" fill="#000000">mp_divnorm</text>
</a>
</g>
</g>
<!-- Node3110&#45;&gt;Node3122 -->
<g id="edge15" class="edge">
<title>Node3110&#45;&gt;Node3122</title>
<path fill="none" stroke="#191970" d="M91.8914,-96.0657C103.0229,-93.4926 114.8916,-90.9603 126,-89 166.6557,-81.8257 213.6464,-76.5814 245.9423,-73.442"/>
<polygon fill="#191970" stroke="#191970" points="90.8444,-92.7167 81.9188,-98.4249 92.456,-99.5286 90.8444,-92.7167"/>
</g>
<!-- Node3112 -->
<g id="node3" class="node">
<title>Node3112</title>
<g id="a_node3"><a xlink:href="libbf_8c.html#a073a4541c0bf7be12ff100d2a0330294" target="_top" xlink:title="mp_div_dec">
<polygon fill="none" stroke="#000000" points="247.5,-150.5 247.5,-169.5 322.5,-169.5 322.5,-150.5 247.5,-150.5"/>
<text text-anchor="middle" x="285" y="-157.5" font-family="Helvetica,sans-Serif" font-size="10.00" fill="#000000">mp_div_dec</text>
</a>
</g>
</g>
<!-- Node3111&#45;&gt;Node3112 -->
<g id="edge2" class="edge">
<title>Node3111&#45;&gt;Node3112</title>
<path fill="none" stroke="#191970" d="M218.7934,-154.9072C228.3404,-155.6416 238.166,-156.3974 247.2293,-157.0946"/>
<polygon fill="#191970" stroke="#191970" points="218.8316,-151.3999 208.5926,-154.1225 218.2946,-158.3793 218.8316,-151.3999"/>
</g>
<!-- Node3113 -->
<g id="node4" class="node">
<title>Node3113</title>
<g id="a_node4"><a xlink:href="libbf_8c.html#ae758f9e5665601c800cc431c03a696f5" target="_top" xlink:title="mp_sqrtrem_rec_dec">
<polygon fill="none" stroke="#ff0000" points="360,-188.5 360,-207.5 479,-207.5 479,-188.5 360,-188.5"/>
<text text-anchor="middle" x="419.5" y="-195.5" font-family="Helvetica,sans-Serif" font-size="10.00" fill="#000000">mp_sqrtrem_rec_dec</text>
</a>
</g>
</g>
<!-- Node3111&#45;&gt;Node3113 -->
<g id="edge6" class="edge">
<title>Node3111&#45;&gt;Node3113</title>
<path fill="none" stroke="#191970" d="M199.7293,-164.3087C213.6937,-169.6619 230.4322,-175.4064 246,-179 283.3494,-187.6215 326.1514,-192.3619 359.8976,-194.9516"/>
<polygon fill="#191970" stroke="#191970" points="200.6947,-160.9272 190.1078,-160.5162 198.1277,-167.4395 200.6947,-160.9272"/>
</g>
<!-- Node3115 -->
<g id="node6" class="node">
<title>Node3115</title>
<g id="a_node6"><a xlink:href="libbf_8h.html#aadf1781139c916e6ccb6ea473bf5a2d1" target="_top" xlink:title="bfdec_sqrt">
<polygon fill="none" stroke="#000000" points="251,-112.5 251,-131.5 319,-131.5 319,-112.5 251,-112.5"/>
<text text-anchor="middle" x="285" y="-119.5" font-family="Helvetica,sans-Serif" font-size="10.00" fill="#000000">bfdec_sqrt</text>
</a>
</g>
</g>
<!-- Node3111&#45;&gt;Node3115 -->
<g id="edge7" class="edge">
<title>Node3111&#45;&gt;Node3115</title>
<path fill="none" stroke="#191970" d="M216.5443,-138.9676C228.0282,-136.1212 240.0395,-133.1441 250.7372,-130.4925"/>
<polygon fill="#191970" stroke="#191970" points="215.4987,-135.6208 206.6344,-141.4239 217.1828,-142.4152 215.4987,-135.6208"/>
</g>
<!-- Node3112&#45;&gt;Node3113 -->
<g id="edge3" class="edge">
<title>Node3112&#45;&gt;Node3113</title>
<path fill="none" stroke="#191970" d="M328.6004,-172.3183C347.0798,-177.5393 368.2895,-183.5316 385.5708,-188.4141"/>
<polygon fill="#191970" stroke="#191970" points="329.515,-168.9398 318.94,-169.589 327.6117,-175.6761 329.515,-168.9398"/>
</g>
<!-- Node3116 -->
<g id="node5" class="node">
<title>Node3116</title>
<g id="a_node5"><a xlink:href="libbf_8c.html#ab0fc8c7b5ee65f945fae1794494865f1" target="_top" xlink:title="__bfdec_div">
<polygon fill="none" stroke="#ff0000" points="382.5,-150.5 382.5,-169.5 456.5,-169.5 456.5,-150.5 382.5,-150.5"/>
<text text-anchor="middle" x="419.5" y="-157.5" font-family="Helvetica,sans-Serif" font-size="10.00" fill="#000000">__bfdec_div</text>
</a>
</g>
</g>
<!-- Node3112&#45;&gt;Node3116 -->
<g id="edge5" class="edge">
<title>Node3112&#45;&gt;Node3116</title>
<path fill="none" stroke="#191970" d="M333.1959,-160C349.3995,-160 367.2116,-160 382.4247,-160"/>
<polygon fill="#191970" stroke="#191970" points="332.8237,-156.5001 322.8237,-160 332.8236,-163.5001 332.8237,-156.5001"/>
</g>
<!-- Node3113&#45;&gt;Node3113 -->
<g id="edge4" class="edge">
<title>Node3113&#45;&gt;Node3113</title>
<path fill="none" stroke="#191970" d="M394.5745,-217.0292C395.9341,-222.128 404.2426,-226 419.5,-226 443.3164,-226 450.2008,-216.5653 440.1533,-207.7571"/>
<polygon fill="#191970" stroke="#191970" points="397.8407,-218.304 398.8467,-207.7571 391.4831,-215.3747 397.8407,-218.304"/>
</g>
<!-- Node3121&#45;&gt;Node3122 -->
<g id="edge9" class="edge">
<title>Node3121&#45;&gt;Node3122</title>
<path fill="none" stroke="#191970" d="M207.0424,-95.3196C222.8509,-90.1852 240.7989,-84.3559 255.4854,-79.5859"/>
<polygon fill="#191970" stroke="#191970" points="205.9538,-91.9931 197.524,-98.411 208.1162,-98.6507 205.9538,-91.9931"/>
</g>
<!-- Node3123 -->
<g id="node9" class="node">
<title>Node3123</title>
<g id="a_node9"><a xlink:href="libbf_8h.html#a01be6db77710375febf385d07ad4f1fe" target="_top" xlink:title="mp_recip">
<polygon fill="none" stroke="#ff0000" points="388.5,-94.5 388.5,-113.5 450.5,-113.5 450.5,-94.5 388.5,-94.5"/>
<text text-anchor="middle" x="419.5" y="-101.5" font-family="Helvetica,sans-Serif" font-size="10.00" fill="#000000">mp_recip</text>
</a>
</g>
</g>
<!-- Node3122&#45;&gt;Node3123 -->
<g id="edge10" class="edge">
<title>Node3122&#45;&gt;Node3123</title>
<path fill="none" stroke="#191970" d="M332.5544,-82.0212C351.0625,-86.6998 371.7533,-91.9302 388.3063,-96.1146"/>
<polygon fill="#191970" stroke="#191970" points="333.3765,-78.619 322.8237,-79.5614 331.6609,-85.4055 333.3765,-78.619"/>
</g>
<!-- Node3125 -->
<g id="node10" class="node">
<title>Node3125</title>
<g id="a_node10"><a xlink:href="libbf_8c.html#ad7a540de8355f07757e52b48d35dd708" target="_top" xlink:title="__bf_div">
<polygon fill="none" stroke="#ff0000" points="391,-56.5 391,-75.5 448,-75.5 448,-56.5 391,-56.5"/>
<text text-anchor="middle" x="419.5" y="-63.5" font-family="Helvetica,sans-Serif" font-size="10.00" fill="#000000">__bf_div</text>
</a>
</g>
</g>
<!-- Node3122&#45;&gt;Node3125 -->
<g id="edge12" class="edge">
<title>Node3122&#45;&gt;Node3125</title>
<path fill="none" stroke="#191970" d="M334.5138,-68.5275C353.4102,-67.9655 374.3186,-67.3437 390.6683,-66.8574"/>
<polygon fill="#191970" stroke="#191970" points="334.156,-65.0365 324.2645,-68.8323 334.3642,-72.0334 334.156,-65.0365"/>
</g>
<!-- Node3170 -->
<g id="node11" class="node">
<title>Node3170</title>
<g id="a_node11"><a xlink:href="libbf_8c.html#ad6e0bb87edc2953629f7fc6f16e3e7d7" target="_top" xlink:title="mp_sqrtrem_rec">
<polygon fill="none" stroke="#ff0000" points="371.5,-.5 371.5,-19.5 467.5,-19.5 467.5,-.5 371.5,-.5"/>
<text text-anchor="middle" x="419.5" y="-7.5" font-family="Helvetica,sans-Serif" font-size="10.00" fill="#000000">mp_sqrtrem_rec</text>
</a>
</g>
</g>
<!-- Node3122&#45;&gt;Node3170 -->
<g id="edge13" class="edge">
<title>Node3122&#45;&gt;Node3170</title>
<path fill="none" stroke="#191970" d="M315.7321,-56.2905C340.8089,-45.1039 375.6085,-29.5798 397.8424,-19.6614"/>
<polygon fill="#191970" stroke="#191970" points="314.0185,-53.2224 306.3119,-60.4928 316.8704,-59.6152 314.0185,-53.2224"/>
</g>
<!-- Node3123&#45;&gt;Node3123 -->
<g id="edge11" class="edge">
<title>Node3123&#45;&gt;Node3123</title>
<path fill="none" stroke="#191970" d="M394.5745,-123.0292C395.9341,-128.128 404.2426,-132 419.5,-132 443.3164,-132 450.2008,-122.5653 440.1533,-113.7571"/>
<polygon fill="#191970" stroke="#191970" points="397.8407,-124.304 398.8467,-113.7571 391.4831,-121.3747 397.8407,-124.304"/>
</g>
<!-- Node3170&#45;&gt;Node3170 -->
<g id="edge14" class="edge">
<title>Node3170&#45;&gt;Node3170</title>
<path fill="none" stroke="#191970" d="M394.5745,-29.0292C395.9341,-34.128 404.2426,-38 419.5,-38 443.3164,-38 450.2008,-28.5653 440.1533,-19.7571"/>
<polygon fill="#191970" stroke="#191970" points="397.8407,-30.304 398.8467,-19.7571 391.4831,-27.3747 397.8407,-30.304"/>
</g>
</g>
</svg>
