<?xml version="1.0" encoding="UTF-8" standalone="no"?>
<!DOCTYPE svg PUBLIC "-//W3C//DTD SVG 1.1//EN"
 "http://www.w3.org/Graphics/SVG/1.1/DTD/svg11.dtd">
<!-- Generated by graphviz version 2.40.1 (20161225.0304)
 -->
<!-- Title: bf_const_get Pages: 1 -->
<svg width="790pt" height="314pt"
 viewBox="0.00 0.00 790.00 313.98" xmlns="http://www.w3.org/2000/svg" xmlns:xlink="http://www.w3.org/1999/xlink">
<g id="graph0" class="graph" transform="scale(1 1) rotate(0) translate(4 309.9824)">
<title>bf_const_get</title>
<!-- Node7206 -->
<g id="node1" class="node">
<title>Node7206</title>
<polygon fill="#bfbfbf" stroke="#000000" points="0,-115.4824 0,-134.4824 79,-134.4824 79,-115.4824 0,-115.4824"/>
<text text-anchor="middle" x="39.5" y="-122.4824" font-family="Helvetica,sans-Serif" font-size="10.00" fill="#000000">bf_const_get</text>
</g>
<!-- Node7207 -->
<g id="node2" class="node">
<title>Node7207</title>
<g id="a_node2"><a xlink:href="libbf_8h.html#a9660e7199a5e3dd436970b5e2e481516" target="_top" xlink:title="bf_const_log2">
<polygon fill="none" stroke="#000000" points="128,-202.4824 128,-221.4824 212,-221.4824 212,-202.4824 128,-202.4824"/>
<text text-anchor="middle" x="170" y="-209.4824" font-family="Helvetica,sans-Serif" font-size="10.00" fill="#000000">bf_const_log2</text>
</a>
</g>
</g>
<!-- Node7206&#45;&gt;Node7207 -->
<g id="edge1" class="edge">
<title>Node7206&#45;&gt;Node7207</title>
<path fill="none" stroke="#191970" d="M62.3635,-140.2248C89.198,-158.1144 132.8932,-187.2446 155.4708,-202.2963"/>
<polygon fill="#191970" stroke="#191970" points="64.2264,-137.2602 53.9644,-134.6254 60.3435,-143.0846 64.2264,-137.2602"/>
</g>
<!-- Node7215 -->
<g id="node10" class="node">
<title>Node7215</title>
<g id="a_node10"><a xlink:href="libbf_8c.html#a25b9653cbfca557499e786f8d2a7eb2e" target="_top" xlink:title="bf_const_pi_signed">
<polygon fill="none" stroke="#000000" points="115,-77.4824 115,-96.4824 225,-96.4824 225,-77.4824 115,-77.4824"/>
<text text-anchor="middle" x="170" y="-84.4824" font-family="Helvetica,sans-Serif" font-size="10.00" fill="#000000">bf_const_pi_signed</text>
</a>
</g>
</g>
<!-- Node7206&#45;&gt;Node7215 -->
<g id="edge13" class="edge">
<title>Node7206&#45;&gt;Node7215</title>
<path fill="none" stroke="#191970" d="M82.0518,-112.5919C99.9232,-107.3879 120.3897,-101.4283 137.0799,-96.5684"/>
<polygon fill="#191970" stroke="#191970" points="81.0534,-109.2372 72.4307,-115.3934 83.0104,-115.958 81.0534,-109.2372"/>
</g>
<!-- Node7208 -->
<g id="node3" class="node">
<title>Node7208</title>
<g id="a_node3"><a xlink:href="libbf_8c.html#a157194b3c7faaa17e39ae78cd98c4385" target="_top" xlink:title="bf_exp_internal">
<polygon fill="none" stroke="#000000" points="276,-224.4824 276,-243.4824 368,-243.4824 368,-224.4824 276,-224.4824"/>
<text text-anchor="middle" x="322" y="-231.4824" font-family="Helvetica,sans-Serif" font-size="10.00" fill="#000000">bf_exp_internal</text>
</a>
</g>
</g>
<!-- Node7207&#45;&gt;Node7208 -->
<g id="edge2" class="edge">
<title>Node7207&#45;&gt;Node7208</title>
<path fill="none" stroke="#191970" d="M222.3441,-219.5586C239.7489,-222.0777 258.9923,-224.8629 275.8905,-227.3087"/>
<polygon fill="#191970" stroke="#191970" points="222.7387,-216.0793 212.3405,-218.1107 221.736,-223.0071 222.7387,-216.0793"/>
</g>
<!-- Node7212 -->
<g id="node7" class="node">
<title>Node7212</title>
<g id="a_node7"><a xlink:href="libbf_8c.html#aa6e77d8d722e3fd0540ede79a63e352e" target="_top" xlink:title="check_exp_underflow\l_overflow">
<polygon fill="none" stroke="#000000" points="261,-174.9824 261,-204.9824 383,-204.9824 383,-174.9824 261,-174.9824"/>
<text text-anchor="start" x="269" y="-192.9824" font-family="Helvetica,sans-Serif" font-size="10.00" fill="#000000">check_exp_underflow</text>
<text text-anchor="middle" x="322" y="-181.9824" font-family="Helvetica,sans-Serif" font-size="10.00" fill="#000000">_overflow</text>
</a>
</g>
</g>
<!-- Node7207&#45;&gt;Node7212 -->
<g id="edge6" class="edge">
<title>Node7207&#45;&gt;Node7212</title>
<path fill="none" stroke="#191970" d="M222.4808,-204.3865C234.8499,-202.5963 248.141,-200.6725 260.855,-198.8324"/>
<polygon fill="#191970" stroke="#191970" points="221.736,-200.9578 212.3405,-205.8542 222.7387,-207.8856 221.736,-200.9578"/>
</g>
<!-- Node7213 -->
<g id="node8" class="node">
<title>Node7213</title>
<g id="a_node8"><a xlink:href="libbf_8c.html#aab7bc918fdd8dbef25c31c6881c73fdd" target="_top" xlink:title="bf_log_internal">
<polygon fill="none" stroke="#000000" points="277.5,-278.4824 277.5,-297.4824 366.5,-297.4824 366.5,-278.4824 277.5,-278.4824"/>
<text text-anchor="middle" x="322" y="-285.4824" font-family="Helvetica,sans-Serif" font-size="10.00" fill="#000000">bf_log_internal</text>
</a>
</g>
</g>
<!-- Node7207&#45;&gt;Node7213 -->
<g id="edge9" class="edge">
<title>Node7207&#45;&gt;Node7213</title>
<path fill="none" stroke="#191970" d="M198.5129,-226.2389C229.0349,-241.4999 276.6068,-265.2858 302.9054,-278.4351"/>
<polygon fill="#191970" stroke="#191970" points="199.7605,-222.9496 189.2509,-221.6079 196.6299,-229.2106 199.7605,-222.9496"/>
</g>
<!-- Node7209 -->
<g id="node4" class="node">
<title>Node7209</title>
<g id="a_node4"><a xlink:href="libbf_8h.html#a36f22f93ba4258209be035a63b80b87f" target="_top" xlink:title="bf_exp">
<polygon fill="none" stroke="#000000" points="442,-210.4824 442,-229.4824 492,-229.4824 492,-210.4824 442,-210.4824"/>
<text text-anchor="middle" x="467" y="-217.4824" font-family="Helvetica,sans-Serif" font-size="10.00" fill="#000000">bf_exp</text>
</a>
</g>
</g>
<!-- Node7208&#45;&gt;Node7209 -->
<g id="edge3" class="edge">
<title>Node7208&#45;&gt;Node7209</title>
<path fill="none" stroke="#191970" d="M378.4941,-228.5278C400.3936,-226.4134 424.3439,-224.101 441.8012,-222.4154"/>
<polygon fill="#191970" stroke="#191970" points="377.8949,-225.0693 368.2776,-229.5143 378.5677,-232.0369 377.8949,-225.0693"/>
</g>
<!-- Node7210 -->
<g id="node5" class="node">
<title>Node7210</title>
<g id="a_node5"><a xlink:href="libbf_8c.html#aa28c1603087e2aec25b9bb0dae387875" target="_top" xlink:title="bf_pow_generic">
<polygon fill="none" stroke="#000000" points="551,-248.4824 551,-267.4824 644,-267.4824 644,-248.4824 551,-248.4824"/>
<text text-anchor="middle" x="597.5" y="-255.4824" font-family="Helvetica,sans-Serif" font-size="10.00" fill="#000000">bf_pow_generic</text>
</a>
</g>
</g>
<!-- Node7208&#45;&gt;Node7210 -->
<g id="edge4" class="edge">
<title>Node7208&#45;&gt;Node7210</title>
<path fill="none" stroke="#191970" d="M378.2779,-238.885C429.1337,-243.3153 503.115,-249.7601 550.7761,-253.9121"/>
<polygon fill="#191970" stroke="#191970" points="378.3786,-235.3806 368.1125,-237.9995 377.771,-242.3542 378.3786,-235.3806"/>
</g>
<!-- Node7211 -->
<g id="node6" class="node">
<title>Node7211</title>
<g id="a_node6"><a xlink:href="libbf_8h.html#a93fe073491f8c5f086a75e7bf8865b34" target="_top" xlink:title="bf_pow">
<polygon fill="none" stroke="#000000" points="705,-248.4824 705,-267.4824 757,-267.4824 757,-248.4824 705,-248.4824"/>
<text text-anchor="middle" x="731" y="-255.4824" font-family="Helvetica,sans-Serif" font-size="10.00" fill="#000000">bf_pow</text>
</a>
</g>
</g>
<!-- Node7210&#45;&gt;Node7211 -->
<g id="edge5" class="edge">
<title>Node7210&#45;&gt;Node7211</title>
<path fill="none" stroke="#191970" d="M654.3667,-257.9824C671.8941,-257.9824 690.3513,-257.9824 704.7591,-257.9824"/>
<polygon fill="#191970" stroke="#191970" points="654.1919,-254.4825 644.1918,-257.9824 654.1918,-261.4825 654.1919,-254.4825"/>
</g>
<!-- Node7212&#45;&gt;Node7209 -->
<g id="edge7" class="edge">
<title>Node7212&#45;&gt;Node7209</title>
<path fill="none" stroke="#191970" d="M393.2773,-204.7295C410.6788,-208.3298 428.1741,-211.9495 441.752,-214.7587"/>
<polygon fill="#191970" stroke="#191970" points="393.5746,-201.2169 383.0728,-202.6182 392.1563,-208.0717 393.5746,-201.2169"/>
</g>
<!-- Node7212&#45;&gt;Node7211 -->
<g id="edge8" class="edge">
<title>Node7212&#45;&gt;Node7211</title>
<path fill="none" stroke="#191970" d="M393.2605,-190.6304C429.8404,-191.8243 475.0072,-194.6322 515,-200.9824 584.713,-212.0518 664.4762,-236.1915 704.7642,-249.2224"/>
<polygon fill="#191970" stroke="#191970" points="393.2806,-187.1296 383.1823,-190.3348 393.0754,-194.1265 393.2806,-187.1296"/>
</g>
<!-- Node7214 -->
<g id="node9" class="node">
<title>Node7214</title>
<g id="a_node9"><a xlink:href="libbf_8h.html#a4137b2308536cbc92addaeb3f0c79d35" target="_top" xlink:title="bf_log">
<polygon fill="none" stroke="#000000" points="443.5,-286.4824 443.5,-305.4824 490.5,-305.4824 490.5,-286.4824 443.5,-286.4824"/>
<text text-anchor="middle" x="467" y="-293.4824" font-family="Helvetica,sans-Serif" font-size="10.00" fill="#000000">bf_log</text>
</a>
</g>
</g>
<!-- Node7213&#45;&gt;Node7214 -->
<g id="edge10" class="edge">
<title>Node7213&#45;&gt;Node7214</title>
<path fill="none" stroke="#191970" d="M376.7033,-291.0005C399.714,-292.2701 425.2741,-293.6803 443.3097,-294.6754"/>
<polygon fill="#191970" stroke="#191970" points="376.8656,-287.5043 366.6879,-290.448 376.4799,-294.4936 376.8656,-287.5043"/>
</g>
<!-- Node7214&#45;&gt;Node7210 -->
<g id="edge11" class="edge">
<title>Node7214&#45;&gt;Node7210</title>
<path fill="none" stroke="#191970" d="M500.4359,-286.2463C520.1855,-280.4955 545.0837,-273.2454 564.7181,-267.5281"/>
<polygon fill="#191970" stroke="#191970" points="499.2553,-282.9447 490.6326,-289.1009 501.2123,-289.6655 499.2553,-282.9447"/>
</g>
<!-- Node7214&#45;&gt;Node7211 -->
<g id="edge12" class="edge">
<title>Node7214&#45;&gt;Node7211</title>
<path fill="none" stroke="#191970" d="M500.9335,-293.4363C536.6713,-290.499 594.5133,-285.0181 644,-276.9824 664.6014,-273.6372 687.6687,-268.5364 704.8721,-264.4619"/>
<polygon fill="#191970" stroke="#191970" points="500.274,-289.9779 490.5859,-294.2663 500.8337,-296.9555 500.274,-289.9779"/>
</g>
<!-- Node7216 -->
<g id="node11" class="node">
<title>Node7216</title>
<g id="a_node11"><a xlink:href="libbf_8h.html#aff86bca731f3c8ffe45f0f1129175961" target="_top" xlink:title="bf_const_pi">
<polygon fill="none" stroke="#000000" points="286,-77.4824 286,-96.4824 358,-96.4824 358,-77.4824 286,-77.4824"/>
<text text-anchor="middle" x="322" y="-84.4824" font-family="Helvetica,sans-Serif" font-size="10.00" fill="#000000">bf_const_pi</text>
</a>
</g>
</g>
<!-- Node7215&#45;&gt;Node7216 -->
<g id="edge14" class="edge">
<title>Node7215&#45;&gt;Node7216</title>
<path fill="none" stroke="#191970" d="M235.3914,-86.9824C252.7162,-86.9824 270.7911,-86.9824 285.9194,-86.9824"/>
<polygon fill="#191970" stroke="#191970" points="235.3055,-83.4825 225.3055,-86.9824 235.3054,-90.4825 235.3055,-83.4825"/>
</g>
<!-- Node7225 -->
<g id="node14" class="node">
<title>Node7225</title>
<g id="a_node14"><a xlink:href="libbf_8h.html#a0bb2c5b98e3f978b84df9849c7ec50d6" target="_top" xlink:title="bf_atan">
<polygon fill="none" stroke="#000000" points="571,-58.4824 571,-77.4824 624,-77.4824 624,-58.4824 571,-58.4824"/>
<text text-anchor="middle" x="597.5" y="-65.4824" font-family="Helvetica,sans-Serif" font-size="10.00" fill="#000000">bf_atan</text>
</a>
</g>
</g>
<!-- Node7215&#45;&gt;Node7225 -->
<g id="edge21" class="edge">
<title>Node7215&#45;&gt;Node7225</title>
<path fill="none" stroke="#191970" d="M195.194,-72.5819C252.695,-41.6244 397.6954,25.5999 515,-10.9824 544.9153,-20.3117 573.5489,-44.7016 587.9136,-58.3609"/>
<polygon fill="#191970" stroke="#191970" points="193.5096,-69.5138 186.4241,-77.3908 196.8753,-75.6516 193.5096,-69.5138"/>
</g>
<!-- Node7217 -->
<g id="node12" class="node">
<title>Node7217</title>
<g id="a_node12"><a xlink:href="libbf_8c.html#a2b19e3958f6cf3fa0cc534681a5ff259" target="_top" xlink:title="bf_sincos">
<polygon fill="none" stroke="#ff0000" points="436,-96.4824 436,-115.4824 498,-115.4824 498,-96.4824 436,-96.4824"/>
<text text-anchor="middle" x="467" y="-103.4824" font-family="Helvetica,sans-Serif" font-size="10.00" fill="#000000">bf_sincos</text>
</a>
</g>
</g>
<!-- Node7216&#45;&gt;Node7217 -->
<g id="edge15" class="edge">
<title>Node7216&#45;&gt;Node7217</title>
<path fill="none" stroke="#191970" d="M368.3428,-93.0549C390.3265,-95.9356 416.0157,-99.3017 435.6683,-101.8769"/>
<polygon fill="#191970" stroke="#191970" points="368.5856,-89.5569 358.2156,-91.7279 367.6761,-96.4976 368.5856,-89.5569"/>
</g>
<!-- Node7224 -->
<g id="node13" class="node">
<title>Node7224</title>
<g id="a_node13"><a xlink:href="libbf_8c.html#aa4b535a5b33344704c576607ab4f0463" target="_top" xlink:title="bf_atan_internal">
<polygon fill="none" stroke="#ff0000" points="419,-58.4824 419,-77.4824 515,-77.4824 515,-58.4824 419,-58.4824"/>
<text text-anchor="middle" x="467" y="-65.4824" font-family="Helvetica,sans-Serif" font-size="10.00" fill="#000000">bf_atan_internal</text>
</a>
</g>
</g>
<!-- Node7216&#45;&gt;Node7224 -->
<g id="edge16" class="edge">
<title>Node7216&#45;&gt;Node7224</title>
<path fill="none" stroke="#191970" d="M368.4837,-80.8915C384.6037,-78.7792 402.702,-76.4077 418.946,-74.2792"/>
<polygon fill="#191970" stroke="#191970" points="367.6761,-77.4673 358.2156,-82.2369 368.5856,-84.408 367.6761,-77.4673"/>
</g>
<!-- Node7226 -->
<g id="node15" class="node">
<title>Node7226</title>
<g id="a_node15"><a xlink:href="libbf_8c.html#af760cf2a93bf130e8e44a62c7e7d0adf" target="_top" xlink:title="bf_atan2_internal">
<polygon fill="none" stroke="#ff0000" points="680,-96.4824 680,-115.4824 782,-115.4824 782,-96.4824 680,-96.4824"/>
<text text-anchor="middle" x="731" y="-103.4824" font-family="Helvetica,sans-Serif" font-size="10.00" fill="#000000">bf_atan2_internal</text>
</a>
</g>
</g>
<!-- Node7216&#45;&gt;Node7226 -->
<g id="edge19" class="edge">
<title>Node7216&#45;&gt;Node7226</title>
<path fill="none" stroke="#191970" d="M349.5678,-100.981C368.5454,-109.8082 394.6341,-120.38 419,-124.9824 513.117,-142.76 625.7633,-126.9924 686.6507,-115.4848"/>
<polygon fill="#191970" stroke="#191970" points="350.8699,-97.724 340.3387,-96.5647 347.8484,-104.0383 350.8699,-97.724"/>
</g>
<!-- Node7230 -->
<g id="node16" class="node">
<title>Node7230</title>
<g id="a_node16"><a xlink:href="libbf_8h.html#a45cd74dd3a694c26e716762b7fd36955" target="_top" xlink:title="bf_acos">
<polygon fill="none" stroke="#000000" points="440,-20.4824 440,-39.4824 494,-39.4824 494,-20.4824 440,-20.4824"/>
<text text-anchor="middle" x="467" y="-27.4824" font-family="Helvetica,sans-Serif" font-size="10.00" fill="#000000">bf_acos</text>
</a>
</g>
</g>
<!-- Node7216&#45;&gt;Node7230 -->
<g id="edge20" class="edge">
<title>Node7216&#45;&gt;Node7230</title>
<path fill="none" stroke="#191970" d="M355.5865,-73.7795C382.2106,-63.3134 418.7843,-48.9362 442.6511,-39.5541"/>
<polygon fill="#191970" stroke="#191970" points="354.296,-70.526 346.2697,-77.4419 356.857,-77.0407 354.296,-70.526"/>
</g>
<!-- Node7224&#45;&gt;Node7225 -->
<g id="edge17" class="edge">
<title>Node7224&#45;&gt;Node7225</title>
<path fill="none" stroke="#191970" d="M525.4762,-67.9824C541.2565,-67.9824 557.571,-67.9824 570.6741,-67.9824"/>
<polygon fill="#191970" stroke="#191970" points="525.2226,-64.4825 515.2226,-67.9824 525.2226,-71.4825 525.2226,-64.4825"/>
</g>
<!-- Node7225&#45;&gt;Node7226 -->
<g id="edge18" class="edge">
<title>Node7225&#45;&gt;Node7226</title>
<path fill="none" stroke="#191970" d="M634.0523,-78.3868C653.7739,-84.0005 677.9518,-90.8826 697.2288,-96.3696"/>
<polygon fill="#191970" stroke="#191970" points="634.771,-74.9525 624.1949,-75.581 632.8546,-81.685 634.771,-74.9525"/>
</g>
</g>
</svg>
