<?xml version="1.0" encoding="UTF-8" standalone="no"?>
<!DOCTYPE svg PUBLIC "-//W3C//DTD SVG 1.1//EN"
 "http://www.w3.org/Graphics/SVG/1.1/DTD/svg11.dtd">
<!-- Generated by graphviz version 2.40.1 (20161225.0304)
 -->
<!-- Title: mp_div_dec Pages: 1 -->
<svg width="430pt" height="218pt"
 viewBox="0.00 0.00 430.00 218.00" xmlns="http://www.w3.org/2000/svg" xmlns:xlink="http://www.w3.org/1999/xlink">
<g id="graph0" class="graph" transform="scale(1 1) rotate(0) translate(4 214)">
<title>mp_div_dec</title>
<!-- Node10277 -->
<g id="node1" class="node">
<title>Node10277</title>
<polygon fill="#bfbfbf" stroke="#000000" points="0,-95.5 0,-114.5 75,-114.5 75,-95.5 0,-95.5"/>
<text text-anchor="middle" x="37.5" y="-102.5" font-family="Helvetica,sans-Serif" font-size="10.00" fill="#000000">mp_div_dec</text>
</g>
<!-- Node10278 -->
<g id="node2" class="node">
<title>Node10278</title>
<g id="a_node2"><a xlink:href="libbf_8h.html#ab8c991bf0d1ab72d676d3c9c3d63c2a7" target="_top" xlink:title="bf_free">
<polygon fill="none" stroke="#000000" points="139,-190.5 139,-209.5 190,-209.5 190,-190.5 139,-190.5"/>
<text text-anchor="middle" x="164.5" y="-197.5" font-family="Helvetica,sans-Serif" font-size="10.00" fill="#000000">bf_free</text>
</a>
</g>
</g>
<!-- Node10277&#45;&gt;Node10278 -->
<g id="edge1" class="edge">
<title>Node10277&#45;&gt;Node10278</title>
<path fill="none" stroke="#191970" d="M44.3491,-114.5398C56.2206,-130.4365 82.1333,-162.4287 111,-181 116.5486,-184.5697 122.8533,-187.5716 129.1394,-190.0586"/>
<polygon fill="#191970" stroke="#191970" points="128.2962,-193.4743 138.8908,-193.5506 130.6562,-186.8841 128.2962,-193.4743"/>
</g>
<!-- Node10280 -->
<g id="node4" class="node">
<title>Node10280</title>
<g id="a_node4"><a xlink:href="libbf_8c.html#ad2a486c6dbbf514b13491630b508dea4" target="_top" xlink:title="mp_add_dec">
<polygon fill="none" stroke="#000000" points="125.5,-152.5 125.5,-171.5 203.5,-171.5 203.5,-152.5 125.5,-152.5"/>
<text text-anchor="middle" x="164.5" y="-159.5" font-family="Helvetica,sans-Serif" font-size="10.00" fill="#000000">mp_add_dec</text>
</a>
</g>
</g>
<!-- Node10277&#45;&gt;Node10280 -->
<g id="edge3" class="edge">
<title>Node10277&#45;&gt;Node10280</title>
<path fill="none" stroke="#191970" d="M54.408,-114.5784C69.1038,-122.6996 91.0998,-134.3696 111,-143 115.739,-145.0552 120.7797,-147.0652 125.8001,-148.9624"/>
<polygon fill="#191970" stroke="#191970" points="124.7509,-152.3053 135.3447,-152.4539 127.1557,-145.7314 124.7509,-152.3053"/>
</g>
<!-- Node10281 -->
<g id="node5" class="node">
<title>Node10281</title>
<g id="a_node5"><a xlink:href="libbf_8c.html#a0d7d399077e9d627f8dda1a6233a56cb" target="_top" xlink:title="mp_div1_dec">
<polygon fill="none" stroke="#000000" points="124,-114.5 124,-133.5 205,-133.5 205,-114.5 124,-114.5"/>
<text text-anchor="middle" x="164.5" y="-121.5" font-family="Helvetica,sans-Serif" font-size="10.00" fill="#000000">mp_div1_dec</text>
</a>
</g>
</g>
<!-- Node10277&#45;&gt;Node10281 -->
<g id="edge4" class="edge">
<title>Node10277&#45;&gt;Node10281</title>
<path fill="none" stroke="#191970" d="M75.2603,-110.6492C87.2607,-112.4445 100.7375,-114.4607 113.511,-116.3717"/>
<polygon fill="#191970" stroke="#191970" points="113.1548,-119.8573 123.5626,-117.8755 114.1906,-112.9343 113.1548,-119.8573"/>
</g>
<!-- Node10286 -->
<g id="node10" class="node">
<title>Node10286</title>
<g id="a_node10"><a xlink:href="libbf_8c.html#ad7f9554096b23d3234e32e4586d21f5d" target="_top" xlink:title="mp_mul1_dec">
<polygon fill="none" stroke="#000000" points="122,-76.5 122,-95.5 207,-95.5 207,-76.5 122,-76.5"/>
<text text-anchor="middle" x="164.5" y="-83.5" font-family="Helvetica,sans-Serif" font-size="10.00" fill="#000000">mp_mul1_dec</text>
</a>
</g>
</g>
<!-- Node10277&#45;&gt;Node10286 -->
<g id="edge9" class="edge">
<title>Node10277&#45;&gt;Node10286</title>
<path fill="none" stroke="#191970" d="M75.2603,-99.3508C86.6849,-97.6416 99.4476,-95.7322 111.6677,-93.9041"/>
<polygon fill="#191970" stroke="#191970" points="112.3915,-97.3348 121.7636,-92.3936 111.3558,-90.4118 112.3915,-97.3348"/>
</g>
<!-- Node10287 -->
<g id="node11" class="node">
<title>Node10287</title>
<g id="a_node11"><a xlink:href="libbf_8c.html#a83ad0dceb145acc8418d948d1d4b6175" target="_top" xlink:title="mp_sub_dec">
<polygon fill="none" stroke="#000000" points="126,-38.5 126,-57.5 203,-57.5 203,-38.5 126,-38.5"/>
<text text-anchor="middle" x="164.5" y="-45.5" font-family="Helvetica,sans-Serif" font-size="10.00" fill="#000000">mp_sub_dec</text>
</a>
</g>
</g>
<!-- Node10277&#45;&gt;Node10287 -->
<g id="edge10" class="edge">
<title>Node10277&#45;&gt;Node10287</title>
<path fill="none" stroke="#191970" d="M54.408,-95.4216C69.1038,-87.3004 91.0998,-75.6304 111,-67 115.739,-64.9448 120.7797,-62.9348 125.8001,-61.0376"/>
<polygon fill="#191970" stroke="#191970" points="127.1557,-64.2686 135.3447,-57.5461 124.7509,-57.6947 127.1557,-64.2686"/>
</g>
<!-- Node10288 -->
<g id="node12" class="node">
<title>Node10288</title>
<g id="a_node12"><a xlink:href="libbf_8c.html#a6659c87afe30437c192b654c684c99e1" target="_top" xlink:title="mp_sub_mul1_dec">
<polygon fill="none" stroke="#000000" points="111,-.5 111,-19.5 218,-19.5 218,-.5 111,-.5"/>
<text text-anchor="middle" x="164.5" y="-7.5" font-family="Helvetica,sans-Serif" font-size="10.00" fill="#000000">mp_sub_mul1_dec</text>
</a>
</g>
</g>
<!-- Node10277&#45;&gt;Node10288 -->
<g id="edge11" class="edge">
<title>Node10277&#45;&gt;Node10288</title>
<path fill="none" stroke="#191970" d="M44.3491,-95.4602C56.2206,-79.5635 82.1333,-47.5713 111,-29 114.0826,-27.0168 117.3985,-25.2089 120.815,-23.5672"/>
<polygon fill="#191970" stroke="#191970" points="122.2068,-26.7786 130.002,-19.6032 119.4336,-20.3513 122.2068,-26.7786"/>
</g>
<!-- Node10279 -->
<g id="node3" class="node">
<title>Node10279</title>
<g id="a_node3"><a xlink:href="libbf_8h.html#a524c9e60866c08c75061626a4b5e2f29" target="_top" xlink:title="bf_realloc">
<polygon fill="none" stroke="#000000" points="266.5,-190.5 266.5,-209.5 331.5,-209.5 331.5,-190.5 266.5,-190.5"/>
<text text-anchor="middle" x="299" y="-197.5" font-family="Helvetica,sans-Serif" font-size="10.00" fill="#000000">bf_realloc</text>
</a>
</g>
</g>
<!-- Node10278&#45;&gt;Node10279 -->
<g id="edge2" class="edge">
<title>Node10278&#45;&gt;Node10279</title>
<path fill="none" stroke="#191970" d="M190.115,-200C208.8017,-200 234.5592,-200 256.3311,-200"/>
<polygon fill="#191970" stroke="#191970" points="256.3314,-203.5001 266.3313,-200 256.3313,-196.5001 256.3314,-203.5001"/>
</g>
<!-- Node10282 -->
<g id="node6" class="node">
<title>Node10282</title>
<g id="a_node6"><a xlink:href="libbf_8c.html#a3ac3b86cc31b99a551947240e979c5d7" target="_top" xlink:title="clz">
<polygon fill="none" stroke="#000000" points="284,-152.5 284,-171.5 314,-171.5 314,-152.5 284,-152.5"/>
<text text-anchor="middle" x="299" y="-159.5" font-family="Helvetica,sans-Serif" font-size="10.00" fill="#000000">clz</text>
</a>
</g>
</g>
<!-- Node10281&#45;&gt;Node10282 -->
<g id="edge5" class="edge">
<title>Node10281&#45;&gt;Node10282</title>
<path fill="none" stroke="#191970" d="M198.44,-133.589C221.874,-140.2097 252.5272,-148.8701 273.8021,-154.8809"/>
<polygon fill="#191970" stroke="#191970" points="273.1272,-158.3271 283.7021,-157.6779 275.0304,-151.5908 273.1272,-158.3271"/>
</g>
<!-- Node10284 -->
<g id="node8" class="node">
<title>Node10284</title>
<g id="a_node8"><a xlink:href="libbf_8c.html#a6a9d2c1c8274c181a1fc9df04945ab8a" target="_top" xlink:title="udiv1norm">
<polygon fill="none" stroke="#000000" points="264.5,-114.5 264.5,-133.5 333.5,-133.5 333.5,-114.5 264.5,-114.5"/>
<text text-anchor="middle" x="299" y="-121.5" font-family="Helvetica,sans-Serif" font-size="10.00" fill="#000000">udiv1norm</text>
</a>
</g>
</g>
<!-- Node10281&#45;&gt;Node10284 -->
<g id="edge7" class="edge">
<title>Node10281&#45;&gt;Node10284</title>
<path fill="none" stroke="#191970" d="M205.2194,-124C220.6951,-124 238.4031,-124 254.233,-124"/>
<polygon fill="#191970" stroke="#191970" points="254.322,-127.5001 264.3219,-124 254.3219,-120.5001 254.322,-127.5001"/>
</g>
<!-- Node10285 -->
<g id="node9" class="node">
<title>Node10285</title>
<g id="a_node9"><a xlink:href="libbf_8c.html#a2ac8ca76c2d20f74b94372386d6fcd57" target="_top" xlink:title="udiv1norm_init">
<polygon fill="none" stroke="#000000" points="254,-76.5 254,-95.5 344,-95.5 344,-76.5 254,-76.5"/>
<text text-anchor="middle" x="299" y="-83.5" font-family="Helvetica,sans-Serif" font-size="10.00" fill="#000000">udiv1norm_init</text>
</a>
</g>
</g>
<!-- Node10281&#45;&gt;Node10285 -->
<g id="edge8" class="edge">
<title>Node10281&#45;&gt;Node10285</title>
<path fill="none" stroke="#191970" d="M198.44,-114.411C215.7231,-109.5281 236.9329,-103.5357 255.4112,-98.315"/>
<polygon fill="#191970" stroke="#191970" points="256.3992,-101.673 265.0708,-95.5859 254.4959,-94.9367 256.3992,-101.673"/>
</g>
<!-- Node10283 -->
<g id="node7" class="node">
<title>Node10283</title>
<g id="a_node7"><a xlink:href="cutils_8h.html#a28eb00e6774a2dd724b86fb6f83c1bf6" target="_top" xlink:title="clz64">
<polygon fill="none" stroke="#000000" points="380,-152.5 380,-171.5 422,-171.5 422,-152.5 380,-152.5"/>
<text text-anchor="middle" x="401" y="-159.5" font-family="Helvetica,sans-Serif" font-size="10.00" fill="#000000">clz64</text>
</a>
</g>
</g>
<!-- Node10282&#45;&gt;Node10283 -->
<g id="edge6" class="edge">
<title>Node10282&#45;&gt;Node10283</title>
<path fill="none" stroke="#191970" d="M314.0505,-162C328.6643,-162 351.2907,-162 369.7989,-162"/>
<polygon fill="#191970" stroke="#191970" points="369.854,-165.5001 379.8539,-162 369.8539,-158.5001 369.854,-165.5001"/>
</g>
</g>
</svg>
