<?xml version="1.0" encoding="UTF-8" standalone="no"?>
<!DOCTYPE svg PUBLIC "-//W3C//DTD SVG 1.1//EN"
 "http://www.w3.org/Graphics/SVG/1.1/DTD/svg11.dtd">
<!-- Generated by graphviz version 2.40.1 (20161225.0304)
 -->
<!-- Title: bfdec_cmp Pages: 1 -->
<svg width="201pt" height="104pt"
 viewBox="0.00 0.00 201.00 104.00" xmlns="http://www.w3.org/2000/svg" xmlns:xlink="http://www.w3.org/1999/xlink">
<g id="graph0" class="graph" transform="scale(1 1) rotate(0) translate(4 100)">
<title>bfdec_cmp</title>
<!-- Node5368 -->
<g id="node1" class="node">
<title>Node5368</title>
<polygon fill="#bfbfbf" stroke="#000000" points="0,-38.5 0,-57.5 70,-57.5 70,-38.5 0,-38.5"/>
<text text-anchor="middle" x="35" y="-45.5" font-family="Helvetica,sans-Serif" font-size="10.00" fill="#000000">bfdec_cmp</text>
</g>
<!-- Node5369 -->
<g id="node2" class="node">
<title>Node5369</title>
<g id="a_node2"><a xlink:href="libbf_8h.html#a79d38aeb3ad23b5f22209373e2a8eab1" target="_top" xlink:title="bfdec_cmp_eq">
<polygon fill="none" stroke="#000000" points="106,-76.5 106,-95.5 193,-95.5 193,-76.5 106,-76.5"/>
<text text-anchor="middle" x="149.5" y="-83.5" font-family="Helvetica,sans-Serif" font-size="10.00" fill="#000000">bfdec_cmp_eq</text>
</a>
</g>
</g>
<!-- Node5368&#45;&gt;Node5369 -->
<g id="edge1" class="edge">
<title>Node5368&#45;&gt;Node5369</title>
<path fill="none" stroke="#191970" d="M73.6465,-60.8259C89.01,-65.9247 106.379,-71.6891 120.6161,-76.4141"/>
<polygon fill="#191970" stroke="#191970" points="74.4866,-57.4171 63.8932,-57.589 72.2817,-64.0608 74.4866,-57.4171"/>
</g>
<!-- Node5370 -->
<g id="node3" class="node">
<title>Node5370</title>
<g id="a_node3"><a xlink:href="libbf_8h.html#abf85d0616aad19a1c0dff80906809bc7" target="_top" xlink:title="bfdec_cmp_le">
<polygon fill="none" stroke="#000000" points="107.5,-38.5 107.5,-57.5 191.5,-57.5 191.5,-38.5 107.5,-38.5"/>
<text text-anchor="middle" x="149.5" y="-45.5" font-family="Helvetica,sans-Serif" font-size="10.00" fill="#000000">bfdec_cmp_le</text>
</a>
</g>
</g>
<!-- Node5368&#45;&gt;Node5370 -->
<g id="edge2" class="edge">
<title>Node5368&#45;&gt;Node5370</title>
<path fill="none" stroke="#191970" d="M80.445,-48C89.297,-48 98.5427,-48 107.285,-48"/>
<polygon fill="#191970" stroke="#191970" points="80.2881,-44.5001 70.2881,-48 80.288,-51.5001 80.2881,-44.5001"/>
</g>
<!-- Node5371 -->
<g id="node4" class="node">
<title>Node5371</title>
<g id="a_node4"><a xlink:href="libbf_8h.html#afe1f289284684f0e0b912dc0a05ebf28" target="_top" xlink:title="bfdec_cmp_lt">
<polygon fill="none" stroke="#000000" points="108.5,-.5 108.5,-19.5 190.5,-19.5 190.5,-.5 108.5,-.5"/>
<text text-anchor="middle" x="149.5" y="-7.5" font-family="Helvetica,sans-Serif" font-size="10.00" fill="#000000">bfdec_cmp_lt</text>
</a>
</g>
</g>
<!-- Node5368&#45;&gt;Node5371 -->
<g id="edge3" class="edge">
<title>Node5368&#45;&gt;Node5371</title>
<path fill="none" stroke="#191970" d="M73.6465,-35.1741C89.01,-30.0753 106.379,-24.3109 120.6161,-19.5859"/>
<polygon fill="#191970" stroke="#191970" points="72.2817,-31.9392 63.8932,-38.411 74.4866,-38.5829 72.2817,-31.9392"/>
</g>
</g>
</svg>
