<?xml version="1.0" encoding="UTF-8" standalone="no"?>
<!DOCTYPE svg PUBLIC "-//W3C//DTD SVG 1.1//EN"
 "http://www.w3.org/Graphics/SVG/1.1/DTD/svg11.dtd">
<!-- Generated by graphviz version 2.40.1 (20161225.0304)
 -->
<!-- Title: bfdec_rem Pages: 1 -->
<!--zoomable 564 -->
<svg id="main" version="1.1" xmlns="http://www.w3.org/2000/svg" xmlns:xlink="http://www.w3.org/1999/xlink" xml:space="preserve" onload="init(evt)">
<style type="text/css"><![CDATA[
.edge:hover path { stroke: red; }
.edge:hover polygon { stroke: red; fill: red; }
]]></style>
<script type="text/javascript"><![CDATA[
var edges = document.getElementsByTagName('g');
if (edges && edges.length) {
  for (var i=0;i<edges.length;i++) {
    if (edges[i].id.substr(0,4)=='edge') {
      edges[i].setAttribute('class','edge');
    }
  }
}
]]></script>
        <defs>
                <circle id="rim" cx="0" cy="0" r="7"/>
                <circle id="rim2" cx="0" cy="0" r="3.5"/>
                <g id="zoomPlus">
                        <use xlink:href="#rim" fill="#404040">
                                <set attributeName="fill" to="#808080" begin="zoomplus.mouseover" end="zoomplus.mouseout"/>
                        </use>
                        <path d="M-4,0h8M0,-4v8" fill="none" stroke="white" stroke-width="1.5" pointer-events="none"/>
                </g>
                <g id="zoomMin">
                        <use xlink:href="#rim" fill="#404040">
                                <set attributeName="fill" to="#808080" begin="zoomminus.mouseover" end="zoomminus.mouseout"/>
                        </use>
                        <path d="M-4,0h8" fill="none" stroke="white" stroke-width="1.5" pointer-events="none"/>
                </g>
                <g id="dirArrow">
                        <path fill="none" stroke="white" stroke-width="1.5" d="M0,-3.0v7 M-2.5,-0.5L0,-3.0L2.5,-0.5"/>
                </g>
               <g id="resetDef">
                       <use xlink:href="#rim2" fill="#404040">
                               <set attributeName="fill" to="#808080" begin="reset.mouseover" end="reset.mouseout"/>
                       </use>
               </g>
        </defs>

<script type="text/javascript">
var viewWidth = 696;
var viewHeight = 564;
var sectionId = 'dynsection-165';
</script>
<script xlink:href="svgpan.js"/>
<svg id="graph" class="graph">
<g id="viewport">
<title>bfdec_rem</title>
<!-- Node5729 -->
<g id="node1" class="node">
<title>Node5729</title>
<polygon fill="#bfbfbf" stroke="#000000" points="0,-456.5 0,-475.5 68,-475.5 68,-456.5 0,-456.5"/>
<text text-anchor="middle" x="34" y="-463.5" font-family="Helvetica,sans-Serif" font-size="10.00" fill="#000000">bfdec_rem</text>
</g>
<!-- Node5730 -->
<g id="node2" class="node">
<title>Node5730</title>
<g id="a_node2"><a xlink:href="libbf_8h.html#a96772409266732dd1e61dc3727571d61" target="_top" xlink:title="bfdec_delete">
<polygon fill="none" stroke="#000000" points="355.5,-456.5 355.5,-475.5 435.5,-475.5 435.5,-456.5 355.5,-456.5"/>
<text text-anchor="middle" x="395.5" y="-463.5" font-family="Helvetica,sans-Serif" font-size="10.00" fill="#000000">bfdec_delete</text>
</a>
</g>
</g>
<!-- Node5729&#45;&gt;Node5730 -->
<g id="edge1" class="edge">
<title>Node5729&#45;&gt;Node5730</title>
<path fill="none" stroke="#191970" d="M68.009,-466C131.9664,-466 270.4328,-466 345.1937,-466"/>
<polygon fill="#191970" stroke="#191970" points="345.3056,-469.5001 355.3056,-466 345.3055,-462.5001 345.3056,-469.5001"/>
</g>
<!-- Node5733 -->
<g id="node5" class="node">
<title>Node5733</title>
<g id="a_node5"><a xlink:href="libbf_8h.html#a318508be097917ddd5d1ce187edea68b" target="_top" xlink:title="bfdec_divrem">
<polygon fill="none" stroke="#000000" points="104,-285.5 104,-304.5 187,-304.5 187,-285.5 104,-285.5"/>
<text text-anchor="middle" x="145.5" y="-292.5" font-family="Helvetica,sans-Serif" font-size="10.00" fill="#000000">bfdec_divrem</text>
</a>
</g>
</g>
<!-- Node5729&#45;&gt;Node5733 -->
<g id="edge4" class="edge">
<title>Node5729&#45;&gt;Node5733</title>
<path fill="none" stroke="#191970" d="M40.3142,-456.3163C58.3295,-428.6874 110.1864,-349.1581 133.6805,-313.1268"/>
<polygon fill="#191970" stroke="#191970" points="136.7249,-314.8657 139.2551,-304.5774 130.8613,-311.0424 136.7249,-314.8657"/>
</g>
<!-- Node5775 -->
<g id="node9" class="node">
<title>Node5775</title>
<g id="a_node9"><a xlink:href="libbf_8h.html#ac9371a99b2946966d278072ee4c1e779" target="_top" xlink:title="bfdec_init">
<polygon fill="none" stroke="#ff0000" points="487.5,-380.5 487.5,-399.5 552.5,-399.5 552.5,-380.5 487.5,-380.5"/>
<text text-anchor="middle" x="520" y="-387.5" font-family="Helvetica,sans-Serif" font-size="10.00" fill="#000000">bfdec_init</text>
</a>
</g>
</g>
<!-- Node5729&#45;&gt;Node5775 -->
<g id="edge43" class="edge">
<title>Node5729&#45;&gt;Node5775</title>
<path fill="none" stroke="#191970" d="M50.6728,-475.5236C109.2518,-507.6009 309.0992,-605.2053 439,-523 470.5828,-503.0134 455.2946,-478.759 475,-447 483.7069,-432.9672 495.2846,-418.3721 504.516,-407.4639"/>
<polygon fill="#191970" stroke="#191970" points="507.4306,-409.4437 511.3166,-399.5873 502.1322,-404.8691 507.4306,-409.4437"/>
</g>
<!-- Node5731 -->
<g id="node3" class="node">
<title>Node5731</title>
<g id="a_node3"><a xlink:href="libbf_8h.html#a2b9d906b21e903f2f7f1c9044674ab7d" target="_top" xlink:title="bf_delete">
<polygon fill="none" stroke="#000000" points="489,-456.5 489,-475.5 551,-475.5 551,-456.5 489,-456.5"/>
<text text-anchor="middle" x="520" y="-463.5" font-family="Helvetica,sans-Serif" font-size="10.00" fill="#000000">bf_delete</text>
</a>
</g>
</g>
<!-- Node5730&#45;&gt;Node5731 -->
<g id="edge2" class="edge">
<title>Node5730&#45;&gt;Node5731</title>
<path fill="none" stroke="#191970" d="M435.5779,-466C449.2861,-466 464.6444,-466 478.4651,-466"/>
<polygon fill="#191970" stroke="#191970" points="478.6814,-469.5001 488.6813,-466 478.6813,-462.5001 478.6814,-469.5001"/>
</g>
<!-- Node5732 -->
<g id="node4" class="node">
<title>Node5732</title>
<g id="a_node4"><a xlink:href="libbf_8h.html#a524c9e60866c08c75061626a4b5e2f29" target="_top" xlink:title="bf_realloc">
<polygon fill="none" stroke="#000000" points="612,-456.5 612,-475.5 677,-475.5 677,-456.5 612,-456.5"/>
<text text-anchor="middle" x="644.5" y="-463.5" font-family="Helvetica,sans-Serif" font-size="10.00" fill="#000000">bf_realloc</text>
</a>
</g>
</g>
<!-- Node5731&#45;&gt;Node5732 -->
<g id="edge3" class="edge">
<title>Node5731&#45;&gt;Node5732</title>
<path fill="none" stroke="#191970" d="M551.0955,-466C566.3644,-466 585.0028,-466 601.6024,-466"/>
<polygon fill="#191970" stroke="#191970" points="601.6263,-469.5001 611.6262,-466 601.6262,-462.5001 601.6263,-469.5001"/>
</g>
<!-- Node5733&#45;&gt;Node5730 -->
<g id="edge14" class="edge">
<title>Node5733&#45;&gt;Node5730</title>
<path fill="none" stroke="#191970" d="M149.3775,-304.5127C158.7245,-326.2722 184.6022,-380.025 223,-409 259.0155,-436.1773 308.6435,-450.7799 345.4251,-458.3749"/>
<polygon fill="#191970" stroke="#191970" points="344.9505,-461.8484 355.4368,-460.3359 346.2961,-454.9789 344.9505,-461.8484"/>
</g>
<!-- Node5734 -->
<g id="node6" class="node">
<title>Node5734</title>
<g id="a_node6"><a xlink:href="libbf_8h.html#a7cb137686dce1e04af24aa61a1a177a6" target="_top" xlink:title="bfdec_add_si">
<polygon fill="none" stroke="#000000" points="229.5,-304.5 229.5,-323.5 309.5,-323.5 309.5,-304.5 229.5,-304.5"/>
<text text-anchor="middle" x="269.5" y="-311.5" font-family="Helvetica,sans-Serif" font-size="10.00" fill="#000000">bfdec_add_si</text>
</a>
</g>
</g>
<!-- Node5733&#45;&gt;Node5734 -->
<g id="edge5" class="edge">
<title>Node5733&#45;&gt;Node5734</title>
<path fill="none" stroke="#191970" d="M187.1352,-301.3796C197.4789,-302.9645 208.6733,-304.6798 219.3771,-306.3199"/>
<polygon fill="#191970" stroke="#191970" points="219.0307,-309.8076 229.4454,-307.8626 220.0909,-302.8883 219.0307,-309.8076"/>
</g>
<!-- Node5733&#45;&gt;Node5775 -->
<g id="edge15" class="edge">
<title>Node5733&#45;&gt;Node5775</title>
<path fill="none" stroke="#191970" d="M182.8326,-285.4681C240.7352,-272.7154 354.3344,-255.9256 439,-295 472.9426,-310.665 497.9161,-348.3443 510.5988,-371.2636"/>
<polygon fill="#191970" stroke="#191970" points="507.6376,-373.1507 515.411,-380.3497 513.8236,-369.8744 507.6376,-373.1507"/>
</g>
<!-- Node5768 -->
<g id="node12" class="node">
<title>Node5768</title>
<g id="a_node12"><a xlink:href="libbf_8h.html#a432cfe0b33bf61782ef53b643aeb1e0f" target="_top" xlink:title="bfdec_set_nan">
<polygon fill="none" stroke="#ff0000" points="601,-266.5 601,-285.5 688,-285.5 688,-266.5 601,-266.5"/>
<text text-anchor="middle" x="644.5" y="-273.5" font-family="Helvetica,sans-Serif" font-size="10.00" fill="#000000">bfdec_set_nan</text>
</a>
</g>
</g>
<!-- Node5733&#45;&gt;Node5768 -->
<g id="edge29" class="edge">
<title>Node5733&#45;&gt;Node5768</title>
<path fill="none" stroke="#191970" d="M164.5007,-285.3791C200.1452,-267.9349 279.9573,-231.7152 352,-219 447.7284,-202.1043 560.5012,-240.7145 613.7321,-262.455"/>
<polygon fill="#191970" stroke="#191970" points="612.6849,-265.8104 623.2617,-266.4289 615.3791,-259.3497 612.6849,-265.8104"/>
</g>
<!-- Node5740 -->
<g id="node13" class="node">
<title>Node5740</title>
<g id="a_node13"><a xlink:href="libbf_8h.html#ab76f65059ac29df0d8ed9f719db8ba06" target="_top" xlink:title="bfdec_cmpu">
<polygon fill="none" stroke="#ff0000" points="357.5,-38.5 357.5,-57.5 433.5,-57.5 433.5,-38.5 357.5,-38.5"/>
<text text-anchor="middle" x="395.5" y="-45.5" font-family="Helvetica,sans-Serif" font-size="10.00" fill="#000000">bfdec_cmpu</text>
</a>
</g>
</g>
<!-- Node5733&#45;&gt;Node5740 -->
<g id="edge13" class="edge">
<title>Node5733&#45;&gt;Node5740</title>
<path fill="none" stroke="#191970" d="M147.5092,-285.3435C155.7802,-246.5359 188.394,-102.6523 223,-74 257.3305,-45.5758 309.1955,-41.2394 347.0903,-42.6897"/>
<polygon fill="#191970" stroke="#191970" points="347.2102,-46.201 357.382,-43.2371 347.582,-39.2108 347.2102,-46.201"/>
</g>
<!-- Node5778 -->
<g id="node14" class="node">
<title>Node5778</title>
<g id="a_node14"><a xlink:href="libbf_8h.html#a97b9ac0bfa60e46f0348def0decccbc8" target="_top" xlink:title="bfdec_is_nan">
<polygon fill="none" stroke="#000000" points="229.5,-342.5 229.5,-361.5 309.5,-361.5 309.5,-342.5 229.5,-342.5"/>
<text text-anchor="middle" x="269.5" y="-349.5" font-family="Helvetica,sans-Serif" font-size="10.00" fill="#000000">bfdec_is_nan</text>
</a>
</g>
</g>
<!-- Node5733&#45;&gt;Node5778 -->
<g id="edge16" class="edge">
<title>Node5733&#45;&gt;Node5778</title>
<path fill="none" stroke="#191970" d="M164.1235,-304.5744C179.7179,-312.4842 202.6298,-323.8571 223,-333 227.1397,-334.8581 231.5175,-336.7457 235.8656,-338.5741"/>
<polygon fill="#191970" stroke="#191970" points="234.6545,-341.8607 245.2331,-342.4479 237.3296,-335.392 234.6545,-341.8607"/>
</g>
<!-- Node5779 -->
<g id="node15" class="node">
<title>Node5779</title>
<g id="a_node15"><a xlink:href="libbf_8h.html#ae5aa2c2f63fe392a1ab15f1012c512e8" target="_top" xlink:title="bfdec_mul_si">
<polygon fill="none" stroke="#000000" points="229,-380.5 229,-399.5 310,-399.5 310,-380.5 229,-380.5"/>
<text text-anchor="middle" x="269.5" y="-387.5" font-family="Helvetica,sans-Serif" font-size="10.00" fill="#000000">bfdec_mul_si</text>
</a>
</g>
</g>
<!-- Node5733&#45;&gt;Node5779 -->
<g id="edge17" class="edge">
<title>Node5733&#45;&gt;Node5779</title>
<path fill="none" stroke="#191970" d="M153.1459,-304.6193C166.0729,-320.347 193.7148,-351.7394 223,-371 225.7688,-372.821 228.7401,-374.52 231.7929,-376.0932"/>
<polygon fill="#191970" stroke="#191970" points="230.5331,-379.3677 241.0744,-380.431 233.497,-373.0261 230.5331,-379.3677"/>
</g>
<!-- Node5760 -->
<g id="node17" class="node">
<title>Node5760</title>
<g id="a_node17"><a xlink:href="libbf_8h.html#ab992311e37e462dff2a8c330320a06c4" target="_top" xlink:title="bfdec_set_zero">
<polygon fill="none" stroke="#ff0000" points="475,-494.5 475,-513.5 565,-513.5 565,-494.5 475,-494.5"/>
<text text-anchor="middle" x="520" y="-501.5" font-family="Helvetica,sans-Serif" font-size="10.00" fill="#000000">bfdec_set_zero</text>
</a>
</g>
</g>
<!-- Node5733&#45;&gt;Node5760 -->
<g id="edge30" class="edge">
<title>Node5733&#45;&gt;Node5760</title>
<path fill="none" stroke="#191970" d="M147.2416,-304.5669C154.6977,-344.3628 185.2732,-495.977 223,-523 304.0026,-581.0205 431.5014,-540.8461 489.4803,-517.4925"/>
<polygon fill="#191970" stroke="#191970" points="490.918,-520.6855 498.8223,-513.6305 488.2437,-514.2165 490.918,-520.6855"/>
</g>
<!-- Node5785 -->
<g id="node18" class="node">
<title>Node5785</title>
<g id="a_node18"><a xlink:href="libbf_8h.html#a807d4e601bf73a30844a7c84f34961f1" target="_top" xlink:title="bfdec_round">
<polygon fill="none" stroke="#000000" points="231,-494.5 231,-513.5 308,-513.5 308,-494.5 231,-494.5"/>
<text text-anchor="middle" x="269.5" y="-501.5" font-family="Helvetica,sans-Serif" font-size="10.00" fill="#000000">bfdec_round</text>
</a>
</g>
</g>
<!-- Node5733&#45;&gt;Node5785 -->
<g id="edge25" class="edge">
<title>Node5733&#45;&gt;Node5785</title>
<path fill="none" stroke="#191970" d="M149.8974,-304.5762C160.9984,-328.4512 191.521,-392.2711 223,-442 232.8445,-457.5519 245.4457,-474.1867 255.0464,-486.3065"/>
<polygon fill="#191970" stroke="#191970" points="252.4357,-488.6454 261.4246,-494.2535 257.8949,-484.2639 252.4357,-488.6454"/>
</g>
<!-- Node5765 -->
<g id="node20" class="node">
<title>Node5765</title>
<g id="a_node20"><a xlink:href="libbf_8h.html#ae69271a2b54f2ce850db0c96c3b20a82" target="_top" xlink:title="bfdec_set">
<polygon fill="none" stroke="#ff0000" points="363.5,-.5 363.5,-19.5 427.5,-19.5 427.5,-.5 363.5,-.5"/>
<text text-anchor="middle" x="395.5" y="-7.5" font-family="Helvetica,sans-Serif" font-size="10.00" fill="#000000">bfdec_set</text>
</a>
</g>
</g>
<!-- Node5733&#45;&gt;Node5765 -->
<g id="edge28" class="edge">
<title>Node5733&#45;&gt;Node5765</title>
<path fill="none" stroke="#191970" d="M147.057,-285.3699C154.0928,-243.0598 184.2619,-74.2488 223,-40 258.3875,-8.7134 314.3713,-4.3552 352.9094,-5.7618"/>
<polygon fill="#191970" stroke="#191970" points="353.1188,-9.277 363.2849,-6.2938 353.4773,-2.2862 353.1188,-9.277"/>
</g>
<!-- Node5786 -->
<g id="node21" class="node">
<title>Node5786</title>
<g id="a_node21"><a xlink:href="libbf_8h.html#ac3255e37957d4be7117b1d9bfc4fcf11" target="_top" xlink:title="bfdec_sub">
<polygon fill="none" stroke="#000000" points="362.5,-76.5 362.5,-95.5 428.5,-95.5 428.5,-76.5 362.5,-76.5"/>
<text text-anchor="middle" x="395.5" y="-83.5" font-family="Helvetica,sans-Serif" font-size="10.00" fill="#000000">bfdec_sub</text>
</a>
</g>
</g>
<!-- Node5733&#45;&gt;Node5786 -->
<g id="edge31" class="edge">
<title>Node5733&#45;&gt;Node5786</title>
<path fill="none" stroke="#191970" d="M146.1228,-285.4914C148.7551,-253.7952 161.8684,-151.1456 223,-105 259.8173,-77.2082 314.2969,-75.8631 352.1432,-79.2716"/>
<polygon fill="#191970" stroke="#191970" points="352.0379,-82.7797 362.3482,-80.3411 352.7675,-75.8178 352.0379,-82.7797"/>
</g>
<!-- Node5788 -->
<g id="node23" class="node">
<title>Node5788</title>
<g id="a_node23"><a xlink:href="libbf_8c.html#a4fe4f91a21701a55cffbc44f1eb141b6" target="_top" xlink:title="bfdec_tdivremu">
<polygon fill="none" stroke="#000000" points="223,-152.5 223,-171.5 316,-171.5 316,-152.5 223,-152.5"/>
<text text-anchor="middle" x="269.5" y="-159.5" font-family="Helvetica,sans-Serif" font-size="10.00" fill="#000000">bfdec_tdivremu</text>
</a>
</g>
</g>
<!-- Node5733&#45;&gt;Node5788 -->
<g id="edge34" class="edge">
<title>Node5733&#45;&gt;Node5788</title>
<path fill="none" stroke="#191970" d="M150.2841,-285.3895C160.9034,-264.8559 188.2729,-216.1274 223,-186 227.0144,-182.5173 231.6223,-179.373 236.3429,-176.5944"/>
<polygon fill="#191970" stroke="#191970" points="238.2816,-179.5259 245.4329,-171.7087 234.9676,-173.3601 238.2816,-179.5259"/>
</g>
<!-- Node5753 -->
<g id="node25" class="node">
<title>Node5753</title>
<g id="a_node25"><a xlink:href="libbf_8c.html#a4ae6bd03b3af1b742666f50df5a52cb9" target="_top" xlink:title="get_digit">
<polygon fill="none" stroke="#ff0000" points="240,-114.5 240,-133.5 299,-133.5 299,-114.5 240,-114.5"/>
<text text-anchor="middle" x="269.5" y="-121.5" font-family="Helvetica,sans-Serif" font-size="10.00" fill="#000000">get_digit</text>
</a>
</g>
</g>
<!-- Node5733&#45;&gt;Node5753 -->
<g id="edge42" class="edge">
<title>Node5733&#45;&gt;Node5753</title>
<path fill="none" stroke="#191970" d="M147.8692,-285.3715C154.8321,-258.984 177.6512,-184.7073 223,-143 225.3008,-140.884 227.8688,-138.988 230.5843,-137.292"/>
<polygon fill="#191970" stroke="#191970" points="232.3996,-140.2916 239.6123,-132.531 229.1343,-134.0998 232.3996,-140.2916"/>
</g>
<!-- Node5734&#45;&gt;Node5730 -->
<g id="edge8" class="edge">
<title>Node5734&#45;&gt;Node5730</title>
<path fill="none" stroke="#191970" d="M303.3001,-323.5903C308.0172,-326.0633 312.4549,-329.1515 316,-333 351.9987,-372.0794 316.471,-407.493 352,-447 353.1745,-448.3059 354.4548,-449.5261 355.8154,-450.6658"/>
<polygon fill="#191970" stroke="#191970" points="354.0479,-453.6944 364.3048,-456.3488 357.9419,-447.8774 354.0479,-453.6944"/>
</g>
<!-- Node5735 -->
<g id="node7" class="node">
<title>Node5735</title>
<g id="a_node7"><a xlink:href="libbf_8h.html#a2ab5a868db6e2d3d41c9b95e561054d3" target="_top" xlink:title="bfdec_add">
<polygon fill="none" stroke="#ff0000" points="362,-228.5 362,-247.5 429,-247.5 429,-228.5 362,-228.5"/>
<text text-anchor="middle" x="395.5" y="-235.5" font-family="Helvetica,sans-Serif" font-size="10.00" fill="#000000">bfdec_add</text>
</a>
</g>
</g>
<!-- Node5734&#45;&gt;Node5735 -->
<g id="edge6" class="edge">
<title>Node5734&#45;&gt;Node5735</title>
<path fill="none" stroke="#191970" d="M285.458,-304.3745C307.0438,-291.3546 345.7477,-268.0093 371.0236,-252.7636"/>
<polygon fill="#191970" stroke="#191970" points="372.9164,-255.7093 379.6716,-247.5473 369.3009,-249.7153 372.9164,-255.7093"/>
</g>
<!-- Node5734&#45;&gt;Node5775 -->
<g id="edge9" class="edge">
<title>Node5734&#45;&gt;Node5775</title>
<path fill="none" stroke="#191970" d="M300.9724,-323.5485C345.9666,-337.1994 428.7401,-362.3124 478.6377,-377.451"/>
<polygon fill="#191970" stroke="#191970" points="477.8739,-380.8767 488.4594,-380.4308 479.9062,-374.1782 477.8739,-380.8767"/>
</g>
<!-- Node5776 -->
<g id="node10" class="node">
<title>Node5776</title>
<g id="a_node10"><a xlink:href="libbf_8h.html#a4c3b1cee330551b12fd6ae2fe5421031" target="_top" xlink:title="bfdec_set_si">
<polygon fill="none" stroke="#000000" points="357,-304.5 357,-323.5 434,-323.5 434,-304.5 357,-304.5"/>
<text text-anchor="middle" x="395.5" y="-311.5" font-family="Helvetica,sans-Serif" font-size="10.00" fill="#000000">bfdec_set_si</text>
</a>
</g>
</g>
<!-- Node5734&#45;&gt;Node5776 -->
<g id="edge10" class="edge">
<title>Node5734&#45;&gt;Node5776</title>
<path fill="none" stroke="#191970" d="M309.7136,-314C321.5296,-314 334.5814,-314 346.8639,-314"/>
<polygon fill="#191970" stroke="#191970" points="346.9563,-317.5001 356.9562,-314 346.9562,-310.5001 346.9563,-317.5001"/>
</g>
<!-- Node5772 -->
<g id="node8" class="node">
<title>Node5772</title>
<g id="a_node8"><a xlink:href="libbf_8c.html#a3ebbc1c7473b2ad84ced2b263bf38bae" target="_top" xlink:title="bf_op2">
<polygon fill="none" stroke="#ff0000" points="495,-114.5 495,-133.5 545,-133.5 545,-114.5 495,-114.5"/>
<text text-anchor="middle" x="520" y="-121.5" font-family="Helvetica,sans-Serif" font-size="10.00" fill="#000000">bf_op2</text>
</a>
</g>
</g>
<!-- Node5735&#45;&gt;Node5772 -->
<g id="edge7" class="edge">
<title>Node5735&#45;&gt;Node5772</title>
<path fill="none" stroke="#191970" d="M406.1148,-228.2804C427.4312,-208.7618 475.6511,-164.6087 501.9933,-140.4881"/>
<polygon fill="#191970" stroke="#191970" points="504.4005,-143.0296 509.4121,-133.695 499.6732,-137.8669 504.4005,-143.0296"/>
</g>
<!-- Node5777 -->
<g id="node11" class="node">
<title>Node5777</title>
<g id="a_node11"><a xlink:href="libbf_8h.html#a3a0734cc58dd4feba2c300d053f53e36" target="_top" xlink:title="bfdec_set_ui">
<polygon fill="none" stroke="#ff0000" points="481,-266.5 481,-285.5 559,-285.5 559,-266.5 481,-266.5"/>
<text text-anchor="middle" x="520" y="-273.5" font-family="Helvetica,sans-Serif" font-size="10.00" fill="#000000">bfdec_set_ui</text>
</a>
</g>
</g>
<!-- Node5776&#45;&gt;Node5777 -->
<g id="edge11" class="edge">
<title>Node5776&#45;&gt;Node5777</title>
<path fill="none" stroke="#191970" d="M426.9166,-304.411C442.6935,-299.5956 462.0054,-293.7012 478.9412,-288.532"/>
<polygon fill="#191970" stroke="#191970" points="480.0508,-291.8528 488.5934,-285.5859 478.0073,-285.1577 480.0508,-291.8528"/>
</g>
<!-- Node5777&#45;&gt;Node5768 -->
<g id="edge12" class="edge">
<title>Node5777&#45;&gt;Node5768</title>
<path fill="none" stroke="#191970" d="M559.051,-276C569.1026,-276 580.096,-276 590.7508,-276"/>
<polygon fill="#191970" stroke="#191970" points="590.8207,-279.5001 600.8207,-276 590.8206,-272.5001 590.8207,-279.5001"/>
</g>
<!-- Node5779&#45;&gt;Node5730 -->
<g id="edge18" class="edge">
<title>Node5779&#45;&gt;Node5730</title>
<path fill="none" stroke="#191970" d="M291.0175,-399.6175C299.1244,-403.619 308.2515,-408.5936 316,-414 333.8004,-426.42 333.8074,-435.1618 352,-447 354.6097,-448.6982 357.3966,-450.3089 360.2515,-451.8211"/>
<polygon fill="#191970" stroke="#191970" points="358.9445,-455.0773 369.4684,-456.3016 362.0049,-448.7818 358.9445,-455.0773"/>
</g>
<!-- Node5779&#45;&gt;Node5775 -->
<g id="edge19" class="edge">
<title>Node5779&#45;&gt;Node5775</title>
<path fill="none" stroke="#191970" d="M310.0256,-390C355.855,-390 430.1746,-390 477.0005,-390"/>
<polygon fill="#191970" stroke="#191970" points="477.1289,-393.5001 487.1288,-390 477.1288,-386.5001 477.1289,-393.5001"/>
</g>
<!-- Node5779&#45;&gt;Node5776 -->
<g id="edge24" class="edge">
<title>Node5779&#45;&gt;Node5776</title>
<path fill="none" stroke="#191970" d="M296.0698,-380.394C302.7214,-377.6522 309.7414,-374.4595 316,-371 337.696,-359.0072 360.4971,-342.159 376.0893,-329.8916"/>
<polygon fill="#191970" stroke="#191970" points="378.3278,-332.5831 383.9572,-323.6075 373.9593,-327.1135 378.3278,-332.5831"/>
</g>
<!-- Node5780 -->
<g id="node16" class="node">
<title>Node5780</title>
<g id="a_node16"><a xlink:href="libbf_8h.html#a2afc9f7c942c27cc609877c776dd9a69" target="_top" xlink:title="bfdec_mul">
<polygon fill="none" stroke="#ff0000" points="361.5,-418.5 361.5,-437.5 429.5,-437.5 429.5,-418.5 361.5,-418.5"/>
<text text-anchor="middle" x="395.5" y="-425.5" font-family="Helvetica,sans-Serif" font-size="10.00" fill="#000000">bfdec_mul</text>
</a>
</g>
</g>
<!-- Node5779&#45;&gt;Node5780 -->
<g id="edge20" class="edge">
<title>Node5779&#45;&gt;Node5780</title>
<path fill="none" stroke="#191970" d="M301.2951,-399.589C317.2621,-404.4044 336.8067,-410.2988 353.9465,-415.468"/>
<polygon fill="#191970" stroke="#191970" points="353.1304,-418.8775 363.7151,-418.4141 355.1516,-412.1756 353.1304,-418.8775"/>
</g>
<!-- Node5780&#45;&gt;Node5775 -->
<g id="edge21" class="edge">
<title>Node5780&#45;&gt;Node5775</title>
<path fill="none" stroke="#191970" d="M426.9166,-418.411C442.6935,-413.5956 462.0054,-407.7012 478.9412,-402.532"/>
<polygon fill="#191970" stroke="#191970" points="480.0508,-405.8528 488.5934,-399.5859 478.0073,-399.1577 480.0508,-405.8528"/>
</g>
<!-- Node5780&#45;&gt;Node5768 -->
<g id="edge22" class="edge">
<title>Node5780&#45;&gt;Node5768</title>
<path fill="none" stroke="#191970" d="M429.6165,-432.5847C466.0856,-435.687 524.1631,-435.2809 565,-409 606.5029,-382.2905 629.3507,-325.5532 638.9658,-295.5471"/>
<polygon fill="#191970" stroke="#191970" points="642.3668,-296.3921 641.9195,-285.8067 635.6681,-294.3607 642.3668,-296.3921"/>
</g>
<!-- Node5780&#45;&gt;Node5760 -->
<g id="edge23" class="edge">
<title>Node5780&#45;&gt;Node5760</title>
<path fill="none" stroke="#191970" d="M422.1721,-437.633C427.9577,-440.2646 433.874,-443.4012 439,-447 458.0405,-460.3677 455.8777,-471.7496 475,-485 477.566,-486.7781 480.3245,-488.4376 483.1672,-489.976"/>
<polygon fill="#191970" stroke="#191970" points="481.8775,-493.241 492.4004,-494.4738 484.9431,-486.9479 481.8775,-493.241"/>
</g>
<!-- Node5750 -->
<g id="node19" class="node">
<title>Node5750</title>
<g id="a_node19"><a xlink:href="libbf_8c.html#aec64568757dfbfcb93d12168d4a9306a" target="_top" xlink:title="__bfdec_round">
<polygon fill="none" stroke="#ff0000" points="352,-494.5 352,-513.5 439,-513.5 439,-494.5 352,-494.5"/>
<text text-anchor="middle" x="395.5" y="-501.5" font-family="Helvetica,sans-Serif" font-size="10.00" fill="#000000">__bfdec_round</text>
</a>
</g>
</g>
<!-- Node5785&#45;&gt;Node5750 -->
<g id="edge26" class="edge">
<title>Node5785&#45;&gt;Node5750</title>
<path fill="none" stroke="#191970" d="M308.3323,-504C318.8509,-504 330.4289,-504 341.6152,-504"/>
<polygon fill="#191970" stroke="#191970" points="341.7367,-507.5001 351.7366,-504 341.7366,-500.5001 341.7367,-507.5001"/>
</g>
<!-- Node5750&#45;&gt;Node5760 -->
<g id="edge27" class="edge">
<title>Node5750&#45;&gt;Node5760</title>
<path fill="none" stroke="#191970" d="M439.0441,-504C447.2198,-504 455.8701,-504 464.3548,-504"/>
<polygon fill="#191970" stroke="#191970" points="464.5793,-507.5001 474.5793,-504 464.5792,-500.5001 464.5793,-507.5001"/>
</g>
<!-- Node5786&#45;&gt;Node5772 -->
<g id="edge33" class="edge">
<title>Node5786&#45;&gt;Node5772</title>
<path fill="none" stroke="#191970" d="M426.9166,-95.589C444.6643,-101.006 466.8855,-107.7883 485.1653,-113.3677"/>
<polygon fill="#191970" stroke="#191970" points="484.2756,-116.7555 494.8618,-116.3273 486.3191,-110.0604 484.2756,-116.7555"/>
</g>
<!-- Node5787 -->
<g id="node22" class="node">
<title>Node5787</title>
<g id="a_node22"><a xlink:href="libbf_8c.html#ac10038dd7f04c765ddc8fdb12e3257a2" target="_top" xlink:title="__bfdec_sub">
<polygon fill="none" stroke="#ff0000" points="481.5,-76.5 481.5,-95.5 558.5,-95.5 558.5,-76.5 481.5,-76.5"/>
<text text-anchor="middle" x="520" y="-83.5" font-family="Helvetica,sans-Serif" font-size="10.00" fill="#000000">__bfdec_sub</text>
</a>
</g>
</g>
<!-- Node5786&#45;&gt;Node5787 -->
<g id="edge32" class="edge">
<title>Node5786&#45;&gt;Node5787</title>
<path fill="none" stroke="#191970" d="M428.5369,-86C441.5218,-86 456.6999,-86 470.9177,-86"/>
<polygon fill="#191970" stroke="#191970" points="471.0556,-89.5001 481.0556,-86 471.0556,-82.5001 471.0556,-89.5001"/>
</g>
<!-- Node5788&#45;&gt;Node5777 -->
<g id="edge40" class="edge">
<title>Node5788&#45;&gt;Node5777</title>
<path fill="none" stroke="#191970" d="M308.1267,-171.5552C343.3305,-181.0533 396.2085,-197.3276 439,-219 461.5213,-230.4062 484.8511,-247.4763 500.6551,-259.9627"/>
<polygon fill="#191970" stroke="#191970" points="498.623,-262.82 508.6079,-266.3629 503.0117,-257.3666 498.623,-262.82"/>
</g>
<!-- Node5788&#45;&gt;Node5740 -->
<g id="edge35" class="edge">
<title>Node5788&#45;&gt;Node5740</title>
<path fill="none" stroke="#191970" d="M301.8956,-152.4448C307.0148,-149.944 311.9474,-146.8377 316,-143 343.1385,-117.301 325.1706,-93.0216 352,-67 353.4641,-65.58 355.0517,-64.2569 356.7253,-63.0253"/>
<polygon fill="#191970" stroke="#191970" points="358.9111,-65.7924 365.6352,-57.6048 355.2728,-59.8122 358.9111,-65.7924"/>
</g>
<!-- Node5788&#45;&gt;Node5780 -->
<g id="edge38" class="edge">
<title>Node5788&#45;&gt;Node5780</title>
<path fill="none" stroke="#191970" d="M274.1338,-171.7825C292.698,-210.9735 361.8826,-357.0299 386.6284,-409.2711"/>
<polygon fill="#191970" stroke="#191970" points="383.5129,-410.87 390.9569,-418.409 389.8391,-407.8733 383.5129,-410.87"/>
</g>
<!-- Node5788&#45;&gt;Node5765 -->
<g id="edge39" class="edge">
<title>Node5788&#45;&gt;Node5765</title>
<path fill="none" stroke="#191970" d="M303.3001,-152.4097C308.0172,-149.9367 312.4549,-146.8485 316,-143 351.9987,-103.9206 316.471,-68.507 352,-29 353.1745,-27.6941 354.4548,-26.4739 355.8154,-25.3342"/>
<polygon fill="#191970" stroke="#191970" points="357.9419,-28.1226 364.3048,-19.6512 354.0479,-22.3056 357.9419,-28.1226"/>
</g>
<!-- Node5788&#45;&gt;Node5786 -->
<g id="edge41" class="edge">
<title>Node5788&#45;&gt;Node5786</title>
<path fill="none" stroke="#191970" d="M298.5148,-152.3714C304.5422,-149.7699 310.6743,-146.6447 316,-143 335.1989,-129.8608 332.9595,-118.3677 352,-105 354.4028,-103.3131 356.9793,-101.7277 359.6345,-100.2483"/>
<polygon fill="#191970" stroke="#191970" points="361.4612,-103.2476 368.8279,-95.633 358.3205,-96.9917 361.4612,-103.2476"/>
</g>
<!-- Node5789 -->
<g id="node24" class="node">
<title>Node5789</title>
<g id="a_node24"><a xlink:href="libbf_8h.html#a10de87f3c9d3dc623ca131eaa468dd1b" target="_top" xlink:title="bfdec_div">
<polygon fill="none" stroke="#ff0000" points="363.5,-114.5 363.5,-133.5 427.5,-133.5 427.5,-114.5 363.5,-114.5"/>
<text text-anchor="middle" x="395.5" y="-121.5" font-family="Helvetica,sans-Serif" font-size="10.00" fill="#000000">bfdec_div</text>
</a>
</g>
</g>
<!-- Node5788&#45;&gt;Node5789 -->
<g id="edge36" class="edge">
<title>Node5788&#45;&gt;Node5789</title>
<path fill="none" stroke="#191970" d="M301.2951,-152.411C317.2621,-147.5956 336.8067,-141.7012 353.9465,-136.532"/>
<polygon fill="#191970" stroke="#191970" points="355.1516,-139.8244 363.7151,-133.5859 353.1304,-133.1225 355.1516,-139.8244"/>
</g>
<!-- Node5789&#45;&gt;Node5772 -->
<g id="edge37" class="edge">
<title>Node5789&#45;&gt;Node5772</title>
<path fill="none" stroke="#191970" d="M427.5618,-124C445.0278,-124 466.6773,-124 484.6331,-124"/>
<polygon fill="#191970" stroke="#191970" points="484.7189,-127.5001 494.7188,-124 484.7188,-120.5001 484.7189,-127.5001"/>
</g>
</g>
</svg>
        <g id="navigator" transform="translate(0 0)" fill="#404254">
                <rect fill="#f2f5e9" fill-opacity="0.5" stroke="#606060" stroke-width=".5" x="0" y="0" width="60" height="60"/>
                <use id="zoomplus" xlink:href="#zoomPlus" x="17" y="9" onmousedown="handleZoom(evt,'in')"/>
                <use id="zoomminus" xlink:href="#zoomMin" x="42" y="9" onmousedown="handleZoom(evt,'out')"/>
                <use id="reset" xlink:href="#resetDef" x="30" y="36" onmousedown="handleReset()"/>
                <g id="arrowUp" xlink:href="#dirArrow" transform="translate(30 24)" onmousedown="handlePan(0,-1)">
                  <use xlink:href="#rim" fill="#404040">
                        <set attributeName="fill" to="#808080" begin="arrowUp.mouseover" end="arrowUp.mouseout"/>
                  </use>
                  <path fill="none" stroke="white" stroke-width="1.5" d="M0,-3.0v7 M-2.5,-0.5L0,-3.0L2.5,-0.5"/>
                </g>
                <g id="arrowRight" xlink:href="#dirArrow" transform="rotate(90) translate(36 -43)" onmousedown="handlePan(1,0)">
                  <use xlink:href="#rim" fill="#404040">
                        <set attributeName="fill" to="#808080" begin="arrowRight.mouseover" end="arrowRight.mouseout"/>
                  </use>
                  <path fill="none" stroke="white" stroke-width="1.5" d="M0,-3.0v7 M-2.5,-0.5L0,-3.0L2.5,-0.5"/>
                </g>
                <g id="arrowDown" xlink:href="#dirArrow" transform="rotate(180) translate(-30 -48)" onmousedown="handlePan(0,1)">
                  <use xlink:href="#rim" fill="#404040">
                        <set attributeName="fill" to="#808080" begin="arrowDown.mouseover" end="arrowDown.mouseout"/>
                  </use>
                  <path fill="none" stroke="white" stroke-width="1.5" d="M0,-3.0v7 M-2.5,-0.5L0,-3.0L2.5,-0.5"/>
                </g>
                <g id="arrowLeft" xlink:href="#dirArrow" transform="rotate(270) translate(-36 17)" onmousedown="handlePan(-1,0)">
                  <use xlink:href="#rim" fill="#404040">
                        <set attributeName="fill" to="#808080" begin="arrowLeft.mouseover" end="arrowLeft.mouseout"/>
                  </use>
                  <path fill="none" stroke="white" stroke-width="1.5" d="M0,-3.0v7 M-2.5,-0.5L0,-3.0L2.5,-0.5"/>
                </g>
        </g>
        <svg viewBox="0 0 15 15" width="100%" height="30px" preserveAspectRatio="xMaxYMin meet">
         <g id="arrow_out" transform="scale(0.3 0.3)">
          <a xlink:href="libbf_8h_a9c0e8e44d597f47e07d562594ca455f2_cgraph_org.svg" target="_base">
           <rect id="button" ry="5" rx="5" y="6" x="6" height="38" width="38"
                fill="#f2f5e9" fill-opacity="0.5" stroke="#606060" stroke-width="1.0"/>
           <path id="arrow"
             d="M 11.500037,31.436501 C 11.940474,20.09759 22.043105,11.32322 32.158766,21.979434 L 37.068811,17.246167 C 37.068811,17.246167 37.088388,32 37.088388,32 L 22.160133,31.978069 C 22.160133,31.978069 26.997745,27.140456 26.997745,27.140456 C 18.528582,18.264221 13.291696,25.230495 11.500037,31.436501 z"
             style="fill:#404040;"/>
          </a>
         </g>
        </svg>
</svg>
