<?xml version="1.0" encoding="UTF-8" standalone="no"?>
<!DOCTYPE svg PUBLIC "-//W3C//DTD SVG 1.1//EN"
 "http://www.w3.org/Graphics/SVG/1.1/DTD/svg11.dtd">
<!-- Generated by graphviz version 2.40.1 (20161225.0304)
 -->
<!-- Title: mp_sub_mul1 Pages: 1 -->
<svg width="483pt" height="178pt"
 viewBox="0.00 0.00 483.00 178.00" xmlns="http://www.w3.org/2000/svg" xmlns:xlink="http://www.w3.org/1999/xlink">
<g id="graph0" class="graph" transform="scale(1 1) rotate(0) translate(4 174)">
<title>mp_sub_mul1</title>
<!-- Node3054 -->
<g id="node1" class="node">
<title>Node3054</title>
<polygon fill="#bfbfbf" stroke="#000000" points="0,-75.5 0,-94.5 85,-94.5 85,-75.5 0,-75.5"/>
<text text-anchor="middle" x="42.5" y="-82.5" font-family="Helvetica,sans-Serif" font-size="10.00" fill="#000000">mp_sub_mul1</text>
</g>
<!-- Node3055 -->
<g id="node2" class="node">
<title>Node3055</title>
<g id="a_node2"><a xlink:href="libbf_8c.html#a0b14a84ecf8baf4930b1bcb8621b8e18" target="_top" xlink:title="mp_divnorm">
<polygon fill="none" stroke="#000000" points="121,-75.5 121,-94.5 199,-94.5 199,-75.5 121,-75.5"/>
<text text-anchor="middle" x="160" y="-82.5" font-family="Helvetica,sans-Serif" font-size="10.00" fill="#000000">mp_divnorm</text>
</a>
</g>
</g>
<!-- Node3054&#45;&gt;Node3055 -->
<g id="edge1" class="edge">
<title>Node3054&#45;&gt;Node3055</title>
<path fill="none" stroke="#191970" d="M95.2787,-85C103.9264,-85 112.7486,-85 120.9851,-85"/>
<polygon fill="#191970" stroke="#191970" points="95.2526,-81.5001 85.2526,-85 95.2525,-88.5001 95.2526,-81.5001"/>
</g>
<!-- Node3056 -->
<g id="node3" class="node">
<title>Node3056</title>
<g id="a_node3"><a xlink:href="libbf_8h.html#a01be6db77710375febf385d07ad4f1fe" target="_top" xlink:title="mp_recip">
<polygon fill="none" stroke="#000000" points="252,-132.5 252,-151.5 314,-151.5 314,-132.5 252,-132.5"/>
<text text-anchor="middle" x="283" y="-139.5" font-family="Helvetica,sans-Serif" font-size="10.00" fill="#000000">mp_recip</text>
</a>
</g>
</g>
<!-- Node3055&#45;&gt;Node3056 -->
<g id="edge2" class="edge">
<title>Node3055&#45;&gt;Node3056</title>
<path fill="none" stroke="#191970" d="M189.687,-98.7574C212.1604,-109.1719 242.455,-123.2108 262.3454,-132.4284"/>
<polygon fill="#191970" stroke="#191970" points="191.1322,-95.5696 180.5874,-94.5405 188.1889,-101.9208 191.1322,-95.5696"/>
</g>
<!-- Node3058 -->
<g id="node5" class="node">
<title>Node3058</title>
<g id="a_node5"><a xlink:href="libbf_8c.html#ad7a540de8355f07757e52b48d35dd708" target="_top" xlink:title="__bf_div">
<polygon fill="none" stroke="#000000" points="254.5,-56.5 254.5,-75.5 311.5,-75.5 311.5,-56.5 254.5,-56.5"/>
<text text-anchor="middle" x="283" y="-63.5" font-family="Helvetica,sans-Serif" font-size="10.00" fill="#000000">__bf_div</text>
</a>
</g>
</g>
<!-- Node3055&#45;&gt;Node3058 -->
<g id="edge6" class="edge">
<title>Node3055&#45;&gt;Node3058</title>
<path fill="none" stroke="#191970" d="M209.5583,-77.3447C224.7413,-74.9993 240.9343,-72.498 254.2408,-70.4425"/>
<polygon fill="#191970" stroke="#191970" points="208.6046,-73.9504 199.2561,-78.936 209.6733,-80.8683 208.6046,-73.9504"/>
</g>
<!-- Node3103 -->
<g id="node7" class="node">
<title>Node3103</title>
<g id="a_node7"><a xlink:href="libbf_8c.html#ad6e0bb87edc2953629f7fc6f16e3e7d7" target="_top" xlink:title="mp_sqrtrem_rec">
<polygon fill="none" stroke="#000000" points="235,-.5 235,-19.5 331,-19.5 331,-.5 235,-.5"/>
<text text-anchor="middle" x="283" y="-7.5" font-family="Helvetica,sans-Serif" font-size="10.00" fill="#000000">mp_sqrtrem_rec</text>
</a>
</g>
</g>
<!-- Node3055&#45;&gt;Node3103 -->
<g id="edge8" class="edge">
<title>Node3055&#45;&gt;Node3103</title>
<path fill="none" stroke="#191970" d="M184.5872,-70.0078C209.1963,-55.0023 246.3217,-32.3648 267.2325,-19.6144"/>
<polygon fill="#191970" stroke="#191970" points="182.5441,-67.1542 175.8283,-75.3486 186.1884,-73.1308 182.5441,-67.1542"/>
</g>
<!-- Node3056&#45;&gt;Node3056 -->
<g id="edge3" class="edge">
<title>Node3056&#45;&gt;Node3056</title>
<path fill="none" stroke="#191970" d="M260.3066,-161.0292C261.5445,-166.128 269.1089,-170 283,-170 304.6836,-170 310.9515,-160.5653 301.8037,-151.7571"/>
<polygon fill="#191970" stroke="#191970" points="263.5553,-162.3325 264.1963,-151.7571 257.1003,-159.6246 263.5553,-162.3325"/>
</g>
<!-- Node3057 -->
<g id="node4" class="node">
<title>Node3057</title>
<g id="a_node4"><a xlink:href="libbf_8c.html#ae8bc748c521cf9e366c02ba403b2d8c0" target="_top" xlink:title="mp_divnorm_large">
<polygon fill="none" stroke="#000000" points="367,-113.5 367,-132.5 475,-132.5 475,-113.5 367,-113.5"/>
<text text-anchor="middle" x="421" y="-120.5" font-family="Helvetica,sans-Serif" font-size="10.00" fill="#000000">mp_divnorm_large</text>
</a>
</g>
</g>
<!-- Node3056&#45;&gt;Node3057 -->
<g id="edge4" class="edge">
<title>Node3056&#45;&gt;Node3057</title>
<path fill="none" stroke="#191970" d="M324.569,-136.2767C337.8475,-134.4485 352.7449,-132.3974 366.7852,-130.4644"/>
<polygon fill="#191970" stroke="#191970" points="323.7435,-132.8573 314.3143,-137.6886 324.6983,-139.7919 323.7435,-132.8573"/>
</g>
<!-- Node3057&#45;&gt;Node3055 -->
<g id="edge5" class="edge">
<title>Node3057&#45;&gt;Node3055</title>
<path fill="none" stroke="#191970" d="M356.7078,-113.6394C307.3179,-106.4486 240.7164,-96.7518 199.0743,-90.689"/>
<polygon fill="#191970" stroke="#191970" points="356.2569,-117.1106 366.6569,-115.088 357.2655,-110.1837 356.2569,-117.1106"/>
</g>
<!-- Node3059 -->
<g id="node6" class="node">
<title>Node3059</title>
<g id="a_node6"><a xlink:href="libbf_8h.html#a030665e68e114717678fb0d0453bb3c6" target="_top" xlink:title="bf_div">
<polygon fill="none" stroke="#ff0000" points="397.5,-56.5 397.5,-75.5 444.5,-75.5 444.5,-56.5 397.5,-56.5"/>
<text text-anchor="middle" x="421" y="-63.5" font-family="Helvetica,sans-Serif" font-size="10.00" fill="#000000">bf_div</text>
</a>
</g>
</g>
<!-- Node3058&#45;&gt;Node3059 -->
<g id="edge7" class="edge">
<title>Node3058&#45;&gt;Node3059</title>
<path fill="none" stroke="#191970" d="M321.6088,-66C345.9918,-66 376.7025,-66 397.4851,-66"/>
<polygon fill="#191970" stroke="#191970" points="321.5937,-62.5001 311.5937,-66 321.5937,-69.5001 321.5937,-62.5001"/>
</g>
<!-- Node3103&#45;&gt;Node3103 -->
<g id="edge9" class="edge">
<title>Node3103&#45;&gt;Node3103</title>
<path fill="none" stroke="#191970" d="M260.3066,-29.0292C261.5445,-34.128 269.1089,-38 283,-38 304.6836,-38 310.9515,-28.5653 301.8037,-19.7571"/>
<polygon fill="#191970" stroke="#191970" points="263.5553,-30.3325 264.1963,-19.7571 257.1003,-27.6246 263.5553,-30.3325"/>
</g>
<!-- Node3104 -->
<g id="node8" class="node">
<title>Node3104</title>
<g id="a_node8"><a xlink:href="libbf_8h.html#aa3d8931becde9bdbea0aab310312acd3" target="_top" xlink:title="mp_sqrtrem">
<polygon fill="none" stroke="#ff0000" points="383,-.5 383,-19.5 459,-19.5 459,-.5 383,-.5"/>
<text text-anchor="middle" x="421" y="-7.5" font-family="Helvetica,sans-Serif" font-size="10.00" fill="#000000">mp_sqrtrem</text>
</a>
</g>
</g>
<!-- Node3103&#45;&gt;Node3104 -->
<g id="edge10" class="edge">
<title>Node3103&#45;&gt;Node3104</title>
<path fill="none" stroke="#191970" d="M341.3698,-10C355.4401,-10 370.1147,-10 382.977,-10"/>
<polygon fill="#191970" stroke="#191970" points="341.2657,-6.5001 331.2657,-10 341.2657,-13.5001 341.2657,-6.5001"/>
</g>
</g>
</svg>
