<?xml version="1.0" encoding="UTF-8" standalone="no"?>
<!DOCTYPE svg PUBLIC "-//W3C//DTD SVG 1.1//EN"
 "http://www.w3.org/Graphics/SVG/1.1/DTD/svg11.dtd">
<!-- Generated by graphviz version 2.40.1 (20161225.0304)
 -->
<!-- Title: __bf_div Pages: 1 -->
<svg width="743pt" height="955pt"
 viewBox="0.00 0.00 743.00 955.17" xmlns="http://www.w3.org/2000/svg" xmlns:xlink="http://www.w3.org/1999/xlink">
<g id="graph0" class="graph" transform="scale(1 1) rotate(0) translate(4 951.1733)">
<title>__bf_div</title>
<!-- Node3903 -->
<g id="node1" class="node">
<title>Node3903</title>
<polygon fill="#bfbfbf" stroke="#000000" points="0,-377.6733 0,-396.6733 57,-396.6733 57,-377.6733 0,-377.6733"/>
<text text-anchor="middle" x="28.5" y="-384.6733" font-family="Helvetica,sans-Serif" font-size="10.00" fill="#000000">__bf_div</text>
</g>
<!-- Node3904 -->
<g id="node2" class="node">
<title>Node3904</title>
<g id="a_node2"><a xlink:href="libbf_8h.html#ab8c991bf0d1ab72d676d3c9c3d63c2a7" target="_top" xlink:title="bf_free">
<polygon fill="none" stroke="#000000" points="561.5,-927.6733 561.5,-946.6733 612.5,-946.6733 612.5,-927.6733 561.5,-927.6733"/>
<text text-anchor="middle" x="587" y="-934.6733" font-family="Helvetica,sans-Serif" font-size="10.00" fill="#000000">bf_free</text>
</a>
</g>
</g>
<!-- Node3903&#45;&gt;Node3904 -->
<g id="edge1" class="edge">
<title>Node3903&#45;&gt;Node3904</title>
<path fill="none" stroke="#191970" d="M29.5543,-396.9338C34.9804,-446.0641 60.7564,-666.3063 93,-726.1733 173.3707,-875.3982 242.3678,-913.1342 410,-938.1733 458.5466,-945.4247 515.421,-943.2377 551.3307,-940.5674"/>
<polygon fill="#191970" stroke="#191970" points="551.6335,-944.0545 561.3239,-939.7712 551.0775,-937.0766 551.6335,-944.0545"/>
</g>
<!-- Node3906 -->
<g id="node4" class="node">
<title>Node3906</title>
<g id="a_node4"><a xlink:href="libbf_8h.html#a4954f3435332238433d15977d55ae566" target="_top" xlink:title="bf_max">
<polygon fill="none" stroke="#000000" points="560.5,-349.6733 560.5,-368.6733 613.5,-368.6733 613.5,-349.6733 560.5,-349.6733"/>
<text text-anchor="middle" x="587" y="-356.6733" font-family="Helvetica,sans-Serif" font-size="10.00" fill="#000000">bf_max</text>
</a>
</g>
</g>
<!-- Node3903&#45;&gt;Node3906 -->
<g id="edge3" class="edge">
<title>Node3903&#45;&gt;Node3906</title>
<path fill="none" stroke="#191970" d="M57.2142,-386.7069C131.2919,-385.3558 334.8904,-380.7059 504,-368.1733 519.1208,-367.0527 535.7432,-365.3451 550.1152,-363.7174"/>
<polygon fill="#191970" stroke="#191970" points="550.5987,-367.1849 560.1288,-362.5558 549.7921,-360.2315 550.5987,-367.1849"/>
</g>
<!-- Node3907 -->
<g id="node5" class="node">
<title>Node3907</title>
<g id="a_node5"><a xlink:href="libbf_8h.html#ae822c0888d26739bb681dfef282b9150" target="_top" xlink:title="bf_normalize_and_round">
<polygon fill="none" stroke="#000000" points="93,-225.6733 93,-244.6733 230,-244.6733 230,-225.6733 93,-225.6733"/>
<text text-anchor="middle" x="161.5" y="-232.6733" font-family="Helvetica,sans-Serif" font-size="10.00" fill="#000000">bf_normalize_and_round</text>
</a>
</g>
</g>
<!-- Node3903&#45;&gt;Node3907 -->
<g id="edge4" class="edge">
<title>Node3903&#45;&gt;Node3907</title>
<path fill="none" stroke="#191970" d="M36.8197,-377.665C58.7454,-352.6071 118.3489,-284.4888 146.4531,-252.3698"/>
<polygon fill="#191970" stroke="#191970" points="149.2323,-254.5086 153.1834,-244.678 143.9643,-249.899 149.2323,-254.5086"/>
</g>
<!-- Node3908 -->
<g id="node6" class="node">
<title>Node3908</title>
<g id="a_node6"><a xlink:href="libbf_8h.html#ab51c43b22c1a81c789ee0e3d53c0e585" target="_top" xlink:title="bf_resize">
<polygon fill="none" stroke="#000000" points="672,-111.6733 672,-130.6733 733,-130.6733 733,-111.6733 672,-111.6733"/>
<text text-anchor="middle" x="702.5" y="-118.6733" font-family="Helvetica,sans-Serif" font-size="10.00" fill="#000000">bf_resize</text>
</a>
</g>
</g>
<!-- Node3903&#45;&gt;Node3908 -->
<g id="edge24" class="edge">
<title>Node3903&#45;&gt;Node3908</title>
<path fill="none" stroke="#191970" d="M28.9048,-377.6193C31.2244,-327.5873 44.4817,-96.2411 93,-48.1733 165.8308,23.9813 217.4787,-7.1733 320,-7.1733 320,-7.1733 320,-7.1733 457,-7.1733 536.1186,-7.1733 565.5966,13.5851 634,-26.1733 663.8971,-43.5505 684.3022,-79.7654 694.6326,-102.1203"/>
<polygon fill="#191970" stroke="#191970" points="691.5558,-103.819 698.7803,-111.5687 697.9654,-101.0053 691.5558,-103.819"/>
</g>
<!-- Node3918 -->
<g id="node13" class="node">
<title>Node3918</title>
<g id="a_node13"><a xlink:href="libbf_8h.html#a88d3dcee173f1e4fd4e55000edb04595" target="_top" xlink:title="bf_set_inf">
<polygon fill="none" stroke="#000000" points="554.5,-73.6733 554.5,-92.6733 619.5,-92.6733 619.5,-73.6733 554.5,-73.6733"/>
<text text-anchor="middle" x="587" y="-80.6733" font-family="Helvetica,sans-Serif" font-size="10.00" fill="#000000">bf_set_inf</text>
</a>
</g>
</g>
<!-- Node3903&#45;&gt;Node3918 -->
<g id="edge25" class="edge">
<title>Node3903&#45;&gt;Node3918</title>
<path fill="none" stroke="#191970" d="M29.4646,-377.6412C32.8226,-349.2607 46.4643,-264.3038 93,-216.1733 216.4754,-88.4665 448.5392,-79.1253 544.1547,-81.1491"/>
<polygon fill="#191970" stroke="#191970" points="544.2302,-84.6523 554.3196,-81.419 544.4161,-77.6547 544.2302,-84.6523"/>
</g>
<!-- Node3919 -->
<g id="node14" class="node">
<title>Node3919</title>
<g id="a_node14"><a xlink:href="libbf_8h.html#aa6282c789c16c8cf2fe6a8ebd671c6fc" target="_top" xlink:title="bf_set_nan">
<polygon fill="none" stroke="#000000" points="552,-35.6733 552,-54.6733 622,-54.6733 622,-35.6733 552,-35.6733"/>
<text text-anchor="middle" x="587" y="-42.6733" font-family="Helvetica,sans-Serif" font-size="10.00" fill="#000000">bf_set_nan</text>
</a>
</g>
</g>
<!-- Node3903&#45;&gt;Node3919 -->
<g id="edge26" class="edge">
<title>Node3903&#45;&gt;Node3919</title>
<path fill="none" stroke="#191970" d="M29.554,-377.4187C34.3816,-334.5525 55.7586,-163.4244 93,-127.1733 216.5191,-6.9388 445.04,-23.7613 541.8166,-37.4611"/>
<polygon fill="#191970" stroke="#191970" points="541.4561,-40.9457 551.8593,-38.9394 542.4756,-34.0203 541.4561,-40.9457"/>
</g>
<!-- Node3920 -->
<g id="node16" class="node">
<title>Node3920</title>
<g id="a_node16"><a xlink:href="libbf_8h.html#a66631c65c00e92a5840a5085a009602d" target="_top" xlink:title="bf_set_zero">
<polygon fill="none" stroke="#000000" points="420.5,-415.6733 420.5,-434.6733 493.5,-434.6733 493.5,-415.6733 420.5,-415.6733"/>
<text text-anchor="middle" x="457" y="-422.6733" font-family="Helvetica,sans-Serif" font-size="10.00" fill="#000000">bf_set_zero</text>
</a>
</g>
</g>
<!-- Node3903&#45;&gt;Node3920 -->
<g id="edge27" class="edge">
<title>Node3903&#45;&gt;Node3920</title>
<path fill="none" stroke="#191970" d="M57.2333,-394.3629C68.3416,-396.891 81.1992,-399.5129 93,-401.1733 206.1891,-417.0998 340.7041,-422.4986 410.2138,-424.2978"/>
<polygon fill="#191970" stroke="#191970" points="410.3102,-427.8011 420.393,-424.5474 410.4819,-420.8032 410.3102,-427.8011"/>
</g>
<!-- Node3921 -->
<g id="node17" class="node">
<title>Node3921</title>
<g id="a_node17"><a xlink:href="libbf_8c.html#a0b14a84ecf8baf4930b1bcb8621b8e18" target="_top" xlink:title="mp_divnorm">
<polygon fill="none" stroke="#000000" points="122.5,-586.6733 122.5,-605.6733 200.5,-605.6733 200.5,-586.6733 122.5,-586.6733"/>
<text text-anchor="middle" x="161.5" y="-593.6733" font-family="Helvetica,sans-Serif" font-size="10.00" fill="#000000">mp_divnorm</text>
</a>
</g>
</g>
<!-- Node3903&#45;&gt;Node3921 -->
<g id="edge28" class="edge">
<title>Node3903&#45;&gt;Node3921</title>
<path fill="none" stroke="#191970" d="M34.5603,-396.6967C55.159,-429.066 122.704,-535.2082 149.9512,-578.0252"/>
<polygon fill="#191970" stroke="#191970" points="147.0824,-580.0364 155.4041,-586.594 152.9881,-576.2783 147.0824,-580.0364"/>
</g>
<!-- Node3960 -->
<g id="node28" class="node">
<title>Node3960</title>
<g id="a_node28"><a xlink:href="libbf_8c.html#a46c382a2c0fdce3d6a7169762670d7b9" target="_top" xlink:title="mp_scan_nz">
<polygon fill="none" stroke="#000000" points="548.5,-842.6733 548.5,-861.6733 625.5,-861.6733 625.5,-842.6733 548.5,-842.6733"/>
<text text-anchor="middle" x="587" y="-849.6733" font-family="Helvetica,sans-Serif" font-size="10.00" fill="#000000">mp_scan_nz</text>
</a>
</g>
</g>
<!-- Node3903&#45;&gt;Node3960 -->
<g id="edge53" class="edge">
<title>Node3903&#45;&gt;Node3960</title>
<path fill="none" stroke="#191970" d="M29.8909,-396.7568C34.8413,-429.015 53.4622,-536.0587 93,-615.1733 149.7058,-728.641 169.1943,-760.203 266,-842.1733 350.7415,-913.9282 399.1655,-954.774 504,-918.1733 531.5303,-908.5617 556.7668,-885.5785 572.0091,-869.4495"/>
<polygon fill="#191970" stroke="#191970" points="574.8796,-871.4959 579.0281,-861.747 569.7056,-866.781 574.8796,-871.4959"/>
</g>
<!-- Node3905 -->
<g id="node3" class="node">
<title>Node3905</title>
<g id="a_node3"><a xlink:href="libbf_8h.html#a524c9e60866c08c75061626a4b5e2f29" target="_top" xlink:title="bf_realloc">
<polygon fill="none" stroke="#000000" points="670,-927.6733 670,-946.6733 735,-946.6733 735,-927.6733 670,-927.6733"/>
<text text-anchor="middle" x="702.5" y="-934.6733" font-family="Helvetica,sans-Serif" font-size="10.00" fill="#000000">bf_realloc</text>
</a>
</g>
</g>
<!-- Node3904&#45;&gt;Node3905 -->
<g id="edge2" class="edge">
<title>Node3904&#45;&gt;Node3905</title>
<path fill="none" stroke="#191970" d="M612.6332,-937.1733C626.4806,-937.1733 643.9404,-937.1733 659.7792,-937.1733"/>
<polygon fill="#191970" stroke="#191970" points="659.8992,-940.6734 669.8992,-937.1733 659.8991,-933.6734 659.8992,-940.6734"/>
</g>
<!-- Node3907&#45;&gt;Node3908 -->
<g id="edge5" class="edge">
<title>Node3907&#45;&gt;Node3908</title>
<path fill="none" stroke="#191970" d="M176.5127,-225.467C196.3197,-213.0221 232.5891,-191.4668 266,-178.1733 403.4472,-123.4859 582.5852,-118.9104 661.7946,-119.9319"/>
<polygon fill="#191970" stroke="#191970" points="661.7896,-123.4322 671.8465,-120.0993 661.9062,-116.4331 661.7896,-123.4322"/>
</g>
<!-- Node3909 -->
<g id="node7" class="node">
<title>Node3909</title>
<g id="a_node7"><a xlink:href="libbf_8c.html#a3ac3b86cc31b99a551947240e979c5d7" target="_top" xlink:title="clz">
<polygon fill="none" stroke="#000000" points="305,-187.6733 305,-206.6733 335,-206.6733 335,-187.6733 305,-187.6733"/>
<text text-anchor="middle" x="320" y="-194.6733" font-family="Helvetica,sans-Serif" font-size="10.00" fill="#000000">clz</text>
</a>
</g>
</g>
<!-- Node3907&#45;&gt;Node3909 -->
<g id="edge6" class="edge">
<title>Node3907&#45;&gt;Node3909</title>
<path fill="none" stroke="#191970" d="M201.4962,-225.5843C230.8656,-218.5431 269.8575,-209.1949 294.944,-203.1804"/>
<polygon fill="#191970" stroke="#191970" points="295.867,-206.5584 304.7754,-200.8234 294.2349,-199.7513 295.867,-206.5584"/>
</g>
<!-- Node3911 -->
<g id="node9" class="node">
<title>Node3911</title>
<g id="a_node9"><a xlink:href="libbf_8c.html#a5a13527071b5331585beae41a51ed3c2" target="_top" xlink:title="__bf_round">
<polygon fill="none" stroke="#000000" points="285,-263.6733 285,-282.6733 355,-282.6733 355,-263.6733 285,-263.6733"/>
<text text-anchor="middle" x="320" y="-270.6733" font-family="Helvetica,sans-Serif" font-size="10.00" fill="#000000">__bf_round</text>
</a>
</g>
</g>
<!-- Node3907&#45;&gt;Node3911 -->
<g id="edge8" class="edge">
<title>Node3907&#45;&gt;Node3911</title>
<path fill="none" stroke="#191970" d="M201.4962,-244.7623C223.8643,-250.125 251.8139,-256.8259 274.9511,-262.3729"/>
<polygon fill="#191970" stroke="#191970" points="274.3324,-265.8237 284.8729,-264.7517 275.9645,-259.0166 274.3324,-265.8237"/>
</g>
<!-- Node3910 -->
<g id="node8" class="node">
<title>Node3910</title>
<g id="a_node8"><a xlink:href="cutils_8h.html#a28eb00e6774a2dd724b86fb6f83c1bf6" target="_top" xlink:title="clz64">
<polygon fill="none" stroke="#000000" points="436,-149.6733 436,-168.6733 478,-168.6733 478,-149.6733 436,-149.6733"/>
<text text-anchor="middle" x="457" y="-156.6733" font-family="Helvetica,sans-Serif" font-size="10.00" fill="#000000">clz64</text>
</a>
</g>
</g>
<!-- Node3909&#45;&gt;Node3910 -->
<g id="edge7" class="edge">
<title>Node3909&#45;&gt;Node3910</title>
<path fill="none" stroke="#191970" d="M335.1848,-192.9615C357.0255,-186.9035 397.7905,-175.5964 426.1164,-167.7396"/>
<polygon fill="#191970" stroke="#191970" points="427.2307,-171.0627 435.9314,-165.0172 425.3597,-164.3174 427.2307,-171.0627"/>
</g>
<!-- Node3911&#45;&gt;Node3908 -->
<g id="edge12" class="edge">
<title>Node3911&#45;&gt;Node3908</title>
<path fill="none" stroke="#191970" d="M341.7798,-282.7699C396.4122,-305.2318 541.5017,-354.7637 634,-292.1733 685.1279,-257.5769 698.0983,-177.9303 701.3857,-140.8418"/>
<polygon fill="#191970" stroke="#191970" points="704.8815,-141.0253 702.1265,-130.7949 697.9005,-140.5104 704.8815,-141.0253"/>
</g>
<!-- Node3912 -->
<g id="node10" class="node">
<title>Node3912</title>
<g id="a_node10"><a xlink:href="libbf_8h.html#a933c9dd8c3450f560876d02e3b36b1a5" target="_top" xlink:title="bf_get_exp_bits">
<polygon fill="none" stroke="#000000" points="540,-216.6733 540,-235.6733 634,-235.6733 634,-216.6733 540,-216.6733"/>
<text text-anchor="middle" x="587" y="-223.6733" font-family="Helvetica,sans-Serif" font-size="10.00" fill="#000000">bf_get_exp_bits</text>
</a>
</g>
</g>
<!-- Node3911&#45;&gt;Node3912 -->
<g id="edge9" class="edge">
<title>Node3911&#45;&gt;Node3912</title>
<path fill="none" stroke="#191970" d="M355.1801,-266.9806C399.6128,-259.1591 476.6517,-245.5979 529.6436,-236.2698"/>
<polygon fill="#191970" stroke="#191970" points="530.3328,-239.7023 539.5746,-234.5216 529.1192,-232.8083 530.3328,-239.7023"/>
</g>
<!-- Node3913 -->
<g id="node11" class="node">
<title>Node3913</title>
<g id="a_node11"><a xlink:href="libbf_8c.html#a3d7fdccc1995b3a88b68c5e7a57dce16" target="_top" xlink:title="bf_get_rnd_add">
<polygon fill="none" stroke="#ff0000" points="411,-339.6733 411,-358.6733 503,-358.6733 503,-339.6733 411,-339.6733"/>
<text text-anchor="middle" x="457" y="-346.6733" font-family="Helvetica,sans-Serif" font-size="10.00" fill="#000000">bf_get_rnd_add</text>
</a>
</g>
</g>
<!-- Node3911&#45;&gt;Node3913 -->
<g id="edge10" class="edge">
<title>Node3911&#45;&gt;Node3913</title>
<path fill="none" stroke="#191970" d="M336.1158,-282.8222C354.0152,-293.4596 383.8417,-310.9501 410,-325.1733 415.9161,-328.3901 422.3093,-331.7381 428.4181,-334.8768"/>
<polygon fill="#191970" stroke="#191970" points="427.1742,-338.171 437.6739,-339.5879 430.3495,-331.9325 427.1742,-338.171"/>
</g>
<!-- Node3917 -->
<g id="node12" class="node">
<title>Node3917</title>
<g id="a_node12"><a xlink:href="libbf_8c.html#af464f3c1421a7305372819f949667273" target="_top" xlink:title="bf_set_overflow">
<polygon fill="none" stroke="#000000" points="410,-187.6733 410,-206.6733 504,-206.6733 504,-187.6733 410,-187.6733"/>
<text text-anchor="middle" x="457" y="-194.6733" font-family="Helvetica,sans-Serif" font-size="10.00" fill="#000000">bf_set_overflow</text>
</a>
</g>
</g>
<!-- Node3911&#45;&gt;Node3917 -->
<g id="edge13" class="edge">
<title>Node3911&#45;&gt;Node3917</title>
<path fill="none" stroke="#191970" d="M336.1158,-263.5244C354.0152,-252.887 383.8417,-235.3965 410,-221.1733 415.9161,-217.9565 422.3093,-214.6085 428.4181,-211.4698"/>
<polygon fill="#191970" stroke="#191970" points="430.3495,-214.4141 437.6739,-206.7588 427.1742,-208.1757 430.3495,-214.4141"/>
</g>
<!-- Node3916 -->
<g id="node15" class="node">
<title>Node3916</title>
<g id="a_node15"><a xlink:href="libbf_8c.html#a450dfcc66e1b45403f642a8499219f94" target="_top" xlink:title="limb_mask">
<polygon fill="none" stroke="#000000" points="551.5,-263.6733 551.5,-282.6733 622.5,-282.6733 622.5,-263.6733 551.5,-263.6733"/>
<text text-anchor="middle" x="587" y="-270.6733" font-family="Helvetica,sans-Serif" font-size="10.00" fill="#000000">limb_mask</text>
</a>
</g>
</g>
<!-- Node3911&#45;&gt;Node3916 -->
<g id="edge23" class="edge">
<title>Node3911&#45;&gt;Node3916</title>
<path fill="none" stroke="#191970" d="M355.1801,-273.1733C402.972,-273.1733 488.4869,-273.1733 541.2259,-273.1733"/>
<polygon fill="#191970" stroke="#191970" points="541.3158,-276.6734 551.3158,-273.1733 541.3157,-269.6734 541.3158,-276.6734"/>
</g>
<!-- Node3911&#45;&gt;Node3920 -->
<g id="edge21" class="edge">
<title>Node3911&#45;&gt;Node3920</title>
<path fill="none" stroke="#191970" d="M328.57,-282.6816C351.1551,-307.7395 412.5511,-375.8578 441.5005,-407.9768"/>
<polygon fill="#191970" stroke="#191970" points="439.1384,-410.5838 448.4333,-415.6686 444.338,-405.8972 439.1384,-410.5838"/>
</g>
<!-- Node3913&#45;&gt;Node3906 -->
<g id="edge11" class="edge">
<title>Node3913&#45;&gt;Node3906</title>
<path fill="none" stroke="#191970" d="M503.1992,-352.7271C518.5854,-353.9107 535.5094,-355.2125 550.0959,-356.3345"/>
<polygon fill="#191970" stroke="#191970" points="550.0096,-359.8382 560.2486,-357.1155 550.5465,-352.8588 550.0096,-359.8382"/>
</g>
<!-- Node3917&#45;&gt;Node3908 -->
<g id="edge15" class="edge">
<title>Node3917&#45;&gt;Node3908</title>
<path fill="none" stroke="#191970" d="M488.0927,-187.5479C532.2721,-173.8712 613.2541,-148.8014 662.0544,-133.6941"/>
<polygon fill="#191970" stroke="#191970" points="663.142,-137.0214 671.6597,-130.7206 661.0719,-130.3345 663.142,-137.0214"/>
</g>
<!-- Node3917&#45;&gt;Node3912 -->
<g id="edge14" class="edge">
<title>Node3917&#45;&gt;Node3912</title>
<path fill="none" stroke="#191970" d="M499.9271,-206.7494C510.9098,-209.1993 522.8465,-211.8621 534.2598,-214.4082"/>
<polygon fill="#191970" stroke="#191970" points="533.5958,-217.846 544.1179,-216.6073 535.1199,-211.0139 533.5958,-217.846"/>
</g>
<!-- Node3917&#45;&gt;Node3918 -->
<g id="edge16" class="edge">
<title>Node3917&#45;&gt;Node3918</title>
<path fill="none" stroke="#191970" d="M486.936,-187.5306C492.8601,-184.9575 498.8368,-181.8472 504,-178.1733 534.1562,-156.7155 560.6672,-122.1896 575.2045,-101.1994"/>
<polygon fill="#191970" stroke="#191970" points="578.1437,-103.1011 580.8447,-92.8563 572.3445,-99.1806 578.1437,-103.1011"/>
</g>
<!-- Node3917&#45;&gt;Node3919 -->
<g id="edge18" class="edge">
<title>Node3917&#45;&gt;Node3919</title>
<path fill="none" stroke="#191970" d="M491.1604,-187.6336C495.9286,-185.1542 500.4149,-182.0506 504,-178.1733 540.0716,-139.1611 503.9284,-103.1855 540,-64.1733 541.3444,-62.7193 542.8155,-61.3741 544.3808,-60.1299"/>
<polygon fill="#191970" stroke="#191970" points="546.3058,-63.0533 552.8396,-54.713 542.5309,-57.1584 546.3058,-63.0533"/>
</g>
<!-- Node3917&#45;&gt;Node3916 -->
<g id="edge20" class="edge">
<title>Node3917&#45;&gt;Node3916</title>
<path fill="none" stroke="#191970" d="M473.4646,-206.7988C495.7356,-219.8188 535.6683,-243.164 561.7465,-258.4097"/>
<polygon fill="#191970" stroke="#191970" points="560.2697,-261.6005 570.6691,-263.626 563.8026,-255.5575 560.2697,-261.6005"/>
</g>
<!-- Node3918&#45;&gt;Node3908 -->
<g id="edge17" class="edge">
<title>Node3918&#45;&gt;Node3908</title>
<path fill="none" stroke="#191970" d="M616.1455,-92.7623C630.5083,-97.4877 648.0292,-103.2522 663.526,-108.3507"/>
<polygon fill="#191970" stroke="#191970" points="662.7708,-111.7868 673.3638,-111.5874 664.9586,-105.1374 662.7708,-111.7868"/>
</g>
<!-- Node3919&#45;&gt;Node3908 -->
<g id="edge19" class="edge">
<title>Node3919&#45;&gt;Node3908</title>
<path fill="none" stroke="#191970" d="M615.0245,-54.8452C621.4441,-57.5086 628.1087,-60.6491 634,-64.1733 653.1312,-75.6176 672.4279,-92.2373 685.6426,-104.5806"/>
<polygon fill="#191970" stroke="#191970" points="683.3779,-107.2573 693.0288,-111.6289 688.2104,-102.1931 683.3779,-107.2573"/>
</g>
<!-- Node3920&#45;&gt;Node3908 -->
<g id="edge22" class="edge">
<title>Node3920&#45;&gt;Node3908</title>
<path fill="none" stroke="#191970" d="M493.7648,-425.6483C533.7052,-424.1111 596.7752,-415.3633 634,-378.1733 668.0806,-344.1245 692.1123,-194.8445 699.8351,-140.7965"/>
<polygon fill="#191970" stroke="#191970" points="703.3165,-141.1725 701.2333,-130.7845 696.3838,-140.2043 703.3165,-141.1725"/>
</g>
<!-- Node3922 -->
<g id="node18" class="node">
<title>Node3922</title>
<g id="a_node18"><a xlink:href="libbf_8h.html#a970a1725f8bc59eda655058c5ff6bc52" target="_top" xlink:title="bf_min">
<polygon fill="none" stroke="#000000" points="677.5,-662.6733 677.5,-681.6733 727.5,-681.6733 727.5,-662.6733 677.5,-662.6733"/>
<text text-anchor="middle" x="702.5" y="-669.6733" font-family="Helvetica,sans-Serif" font-size="10.00" fill="#000000">bf_min</text>
</a>
</g>
</g>
<!-- Node3921&#45;&gt;Node3922 -->
<g id="edge29" class="edge">
<title>Node3921&#45;&gt;Node3922</title>
<path fill="none" stroke="#191970" d="M200.8019,-593.6486C243.556,-591.4898 313.8484,-589.6572 374,-596.1733 491.6118,-608.9141 519.1812,-624.6863 634,-653.1733 644.8927,-655.8758 656.6903,-659.0559 667.3755,-662.0331"/>
<polygon fill="#191970" stroke="#191970" points="666.6389,-665.4618 677.2133,-664.8033 668.5363,-658.7238 666.6389,-665.4618"/>
</g>
<!-- Node3923 -->
<g id="node19" class="node">
<title>Node3923</title>
<g id="a_node19"><a xlink:href="libbf_8h.html#a7b30173f892a4acfda4ebd0c78edc6ac" target="_top" xlink:title="mp_add">
<polygon fill="none" stroke="#000000" points="559,-662.6733 559,-681.6733 615,-681.6733 615,-662.6733 559,-662.6733"/>
<text text-anchor="middle" x="587" y="-669.6733" font-family="Helvetica,sans-Serif" font-size="10.00" fill="#000000">mp_add</text>
</a>
</g>
</g>
<!-- Node3921&#45;&gt;Node3923 -->
<g id="edge30" class="edge">
<title>Node3921&#45;&gt;Node3923</title>
<path fill="none" stroke="#191970" d="M183.0674,-605.6831C203.8896,-614.4615 236.5128,-627.1663 266,-634.1733 366.1782,-657.9785 487.6538,-667.1806 548.4357,-670.4838"/>
<polygon fill="#191970" stroke="#191970" points="548.5419,-673.9939 558.7099,-671.0168 548.9047,-667.0033 548.5419,-673.9939"/>
</g>
<!-- Node3924 -->
<g id="node20" class="node">
<title>Node3924</title>
<g id="a_node20"><a xlink:href="libbf_8c.html#ab2062acf79642a2e95590088d4714633" target="_top" xlink:title="mp_div1norm">
<polygon fill="none" stroke="#000000" points="278,-491.6733 278,-510.6733 362,-510.6733 362,-491.6733 278,-491.6733"/>
<text text-anchor="middle" x="320" y="-498.6733" font-family="Helvetica,sans-Serif" font-size="10.00" fill="#000000">mp_div1norm</text>
</a>
</g>
</g>
<!-- Node3921&#45;&gt;Node3924 -->
<g id="edge31" class="edge">
<title>Node3921&#45;&gt;Node3924</title>
<path fill="none" stroke="#191970" d="M173.9018,-586.6686C193.0128,-572.275 231.1122,-544.574 266,-525.1733 272.5957,-521.5055 279.8597,-517.9639 286.8633,-514.7788"/>
<polygon fill="#191970" stroke="#191970" points="288.4267,-517.9147 296.1651,-510.6781 285.6029,-511.5095 288.4267,-517.9147"/>
</g>
<!-- Node3925 -->
<g id="node21" class="node">
<title>Node3925</title>
<g id="a_node21"><a xlink:href="libbf_8c.html#a6a9d2c1c8274c181a1fc9df04945ab8a" target="_top" xlink:title="udiv1norm">
<polygon fill="none" stroke="#000000" points="422.5,-520.6733 422.5,-539.6733 491.5,-539.6733 491.5,-520.6733 422.5,-520.6733"/>
<text text-anchor="middle" x="457" y="-527.6733" font-family="Helvetica,sans-Serif" font-size="10.00" fill="#000000">udiv1norm</text>
</a>
</g>
</g>
<!-- Node3921&#45;&gt;Node3925 -->
<g id="edge51" class="edge">
<title>Node3921&#45;&gt;Node3925</title>
<path fill="none" stroke="#191970" d="M188.2831,-586.6167C209.2288,-579.4115 239.1938,-569.6901 266,-563.1733 315.5269,-551.1329 373.3093,-541.7881 412.2409,-536.1641"/>
<polygon fill="#191970" stroke="#191970" points="412.7997,-539.6199 422.207,-534.7462 411.8136,-532.6897 412.7997,-539.6199"/>
</g>
<!-- Node3926 -->
<g id="node22" class="node">
<title>Node3926</title>
<g id="a_node22"><a xlink:href="libbf_8c.html#a2ac8ca76c2d20f74b94372386d6fcd57" target="_top" xlink:title="udiv1norm_init">
<polygon fill="none" stroke="#000000" points="412,-463.6733 412,-482.6733 502,-482.6733 502,-463.6733 412,-463.6733"/>
<text text-anchor="middle" x="457" y="-470.6733" font-family="Helvetica,sans-Serif" font-size="10.00" fill="#000000">udiv1norm_init</text>
</a>
</g>
</g>
<!-- Node3921&#45;&gt;Node3926 -->
<g id="edge52" class="edge">
<title>Node3921&#45;&gt;Node3926</title>
<path fill="none" stroke="#191970" d="M166.7358,-586.51C179.8529,-563.4274 216.6413,-505.288 266,-482.1733 308.4518,-462.2932 362.1841,-461.6063 401.8362,-464.9875"/>
<polygon fill="#191970" stroke="#191970" points="401.5648,-468.4774 411.8545,-465.953 402.2364,-461.5097 401.5648,-468.4774"/>
</g>
<!-- Node3927 -->
<g id="node23" class="node">
<title>Node3927</title>
<g id="a_node23"><a xlink:href="libbf_8c.html#ae8bc748c521cf9e366c02ba403b2d8c0" target="_top" xlink:title="mp_divnorm_large">
<polygon fill="none" stroke="#000000" points="266,-813.6733 266,-832.6733 374,-832.6733 374,-813.6733 266,-813.6733"/>
<text text-anchor="middle" x="320" y="-820.6733" font-family="Helvetica,sans-Serif" font-size="10.00" fill="#000000">mp_divnorm_large</text>
</a>
</g>
</g>
<!-- Node3921&#45;&gt;Node3927 -->
<g id="edge34" class="edge">
<title>Node3921&#45;&gt;Node3927</title>
<path fill="none" stroke="#191970" d="M166.873,-605.8906C181.4901,-632.0457 223.7201,-705.7674 266,-762.1733 277.7172,-777.8054 292.5106,-794.3269 303.6496,-806.2273"/>
<polygon fill="#191970" stroke="#191970" points="301.2751,-808.8099 310.6946,-813.66 306.3556,-803.9944 301.2751,-808.8099"/>
</g>
<!-- Node3962 -->
<g id="node29" class="node">
<title>Node3962</title>
<g id="a_node29"><a xlink:href="libbf_8c.html#a0b7f4296ac6df9322b8bc7341039d851" target="_top" xlink:title="mp_sub">
<polygon fill="none" stroke="#000000" points="559.5,-719.6733 559.5,-738.6733 614.5,-738.6733 614.5,-719.6733 559.5,-719.6733"/>
<text text-anchor="middle" x="587" y="-726.6733" font-family="Helvetica,sans-Serif" font-size="10.00" fill="#000000">mp_sub</text>
</a>
</g>
</g>
<!-- Node3921&#45;&gt;Node3962 -->
<g id="edge49" class="edge">
<title>Node3921&#45;&gt;Node3962</title>
<path fill="none" stroke="#191970" d="M174.6766,-605.676C193.8567,-619.0751 231.0036,-643.4176 266,-657.1733 364.2352,-695.7857 487.9265,-716.1718 549.1245,-724.5241"/>
<polygon fill="#191970" stroke="#191970" points="548.7263,-728.0019 559.1012,-725.8541 549.6514,-721.0633 548.7263,-728.0019"/>
</g>
<!-- Node3964 -->
<g id="node30" class="node">
<title>Node3964</title>
<g id="a_node30"><a xlink:href="libbf_8c.html#a227bd29d81f75c3d343f2841f46be9ed" target="_top" xlink:title="mp_sub_mul1">
<polygon fill="none" stroke="#000000" points="277.5,-605.6733 277.5,-624.6733 362.5,-624.6733 362.5,-605.6733 277.5,-605.6733"/>
<text text-anchor="middle" x="320" y="-612.6733" font-family="Helvetica,sans-Serif" font-size="10.00" fill="#000000">mp_sub_mul1</text>
</a>
</g>
</g>
<!-- Node3921&#45;&gt;Node3964 -->
<g id="edge50" class="edge">
<title>Node3921&#45;&gt;Node3964</title>
<path fill="none" stroke="#191970" d="M200.6798,-600.8699C220.7812,-603.2796 245.5499,-606.2487 267.3015,-608.8561"/>
<polygon fill="#191970" stroke="#191970" points="267.0328,-612.3489 277.3783,-610.0641 267.866,-605.3987 267.0328,-612.3489"/>
</g>
<!-- Node3924&#45;&gt;Node3925 -->
<g id="edge32" class="edge">
<title>Node3924&#45;&gt;Node3925</title>
<path fill="none" stroke="#191970" d="M362.2224,-510.1109C378.0878,-513.4693 396.17,-517.2969 412.2569,-520.7022"/>
<polygon fill="#191970" stroke="#191970" points="411.9888,-524.2229 422.4968,-522.8697 413.4385,-517.3746 411.9888,-524.2229"/>
</g>
<!-- Node3924&#45;&gt;Node3926 -->
<g id="edge33" class="edge">
<title>Node3924&#45;&gt;Node3926</title>
<path fill="none" stroke="#191970" d="M362.2224,-492.5439C374.7526,-489.983 388.6655,-487.1395 401.8861,-484.4375"/>
<polygon fill="#191970" stroke="#191970" points="402.7301,-487.8374 411.8267,-482.4058 401.3284,-480.9792 402.7301,-487.8374"/>
</g>
<!-- Node3927&#45;&gt;Node3904 -->
<g id="edge35" class="edge">
<title>Node3927&#45;&gt;Node3904</title>
<path fill="none" stroke="#191970" d="M325.7462,-832.8213C338.2153,-852.7637 369.8891,-898.3166 410,-918.1733 454.8722,-940.3871 513.8371,-942.0946 551.0868,-940.3538"/>
<polygon fill="#191970" stroke="#191970" points="551.6677,-943.8261 561.4486,-939.7539 551.263,-936.8378 551.6677,-943.8261"/>
</g>
<!-- Node3928 -->
<g id="node24" class="node">
<title>Node3928</title>
<g id="a_node24"><a xlink:href="libbf_8h.html#ababed0842811906072217767078cef22" target="_top" xlink:title="mp_add_ui">
<polygon fill="none" stroke="#000000" points="422,-889.6733 422,-908.6733 492,-908.6733 492,-889.6733 422,-889.6733"/>
<text text-anchor="middle" x="457" y="-896.6733" font-family="Helvetica,sans-Serif" font-size="10.00" fill="#000000">mp_add_ui</text>
</a>
</g>
</g>
<!-- Node3927&#45;&gt;Node3928 -->
<g id="edge36" class="edge">
<title>Node3927&#45;&gt;Node3928</title>
<path fill="none" stroke="#191970" d="M333.5703,-832.8634C350.8014,-844.9068 381.7011,-865.6425 410,-880.1733 413.5966,-882.0201 417.4159,-883.8159 421.262,-885.5195"/>
<polygon fill="#191970" stroke="#191970" points="420.1932,-888.8676 430.7666,-889.5411 422.9209,-882.421 420.1932,-888.8676"/>
</g>
<!-- Node3929 -->
<g id="node25" class="node">
<title>Node3929</title>
<g id="a_node25"><a xlink:href="libbf_8c.html#a66fdea7600a7136f7307cc09ce6e7ec3" target="_top" xlink:title="mp_cmp">
<polygon fill="none" stroke="#000000" points="427.5,-851.6733 427.5,-870.6733 486.5,-870.6733 486.5,-851.6733 427.5,-851.6733"/>
<text text-anchor="middle" x="457" y="-858.6733" font-family="Helvetica,sans-Serif" font-size="10.00" fill="#000000">mp_cmp</text>
</a>
</g>
</g>
<!-- Node3927&#45;&gt;Node3929 -->
<g id="edge37" class="edge">
<title>Node3927&#45;&gt;Node3929</title>
<path fill="none" stroke="#191970" d="M354.5709,-832.7623C373.6936,-838.0664 397.536,-844.6796 417.405,-850.1908"/>
<polygon fill="#191970" stroke="#191970" points="416.5218,-853.5779 427.0935,-852.8781 418.3928,-846.8325 416.5218,-853.5779"/>
</g>
<!-- Node3930 -->
<g id="node26" class="node">
<title>Node3930</title>
<g id="a_node26"><a xlink:href="libbf_8h.html#a6cd295d156fefc2f73a5f9de76595262" target="_top" xlink:title="mp_mul">
<polygon fill="none" stroke="#ff0000" points="559,-757.6733 559,-776.6733 615,-776.6733 615,-757.6733 559,-757.6733"/>
<text text-anchor="middle" x="587" y="-764.6733" font-family="Helvetica,sans-Serif" font-size="10.00" fill="#000000">mp_mul</text>
</a>
</g>
</g>
<!-- Node3927&#45;&gt;Node3930 -->
<g id="edge38" class="edge">
<title>Node3927&#45;&gt;Node3930</title>
<path fill="none" stroke="#191970" d="M374.3544,-822.0567C411.4244,-820.2082 461.3397,-815.573 504,-804.1733 523.6906,-798.9116 544.6447,-789.538 560.5727,-781.5425"/>
<polygon fill="#191970" stroke="#191970" points="562.5013,-784.4859 569.7844,-776.7913 559.2925,-778.2647 562.5013,-784.4859"/>
</g>
<!-- Node3959 -->
<g id="node27" class="node">
<title>Node3959</title>
<g id="a_node27"><a xlink:href="libbf_8h.html#a01be6db77710375febf385d07ad4f1fe" target="_top" xlink:title="mp_recip">
<polygon fill="none" stroke="#ff0000" points="426,-757.6733 426,-776.6733 488,-776.6733 488,-757.6733 426,-757.6733"/>
<text text-anchor="middle" x="457" y="-764.6733" font-family="Helvetica,sans-Serif" font-size="10.00" fill="#000000">mp_recip</text>
</a>
</g>
</g>
<!-- Node3927&#45;&gt;Node3959 -->
<g id="edge40" class="edge">
<title>Node3927&#45;&gt;Node3959</title>
<path fill="none" stroke="#191970" d="M343.5511,-813.5466C365.8391,-804.4362 399.4937,-790.6796 424.3637,-780.5137"/>
<polygon fill="#191970" stroke="#191970" points="425.8239,-783.698 433.7562,-776.6744 423.1753,-777.2184 425.8239,-783.698"/>
</g>
<!-- Node3927&#45;&gt;Node3962 -->
<g id="edge48" class="edge">
<title>Node3927&#45;&gt;Node3962</title>
<path fill="none" stroke="#191970" d="M327.9941,-813.5328C342.4181,-796.9039 374.606,-763.1726 410,-748.1733 455.0649,-729.0757 512.1102,-726.3353 549.0672,-727.0228"/>
<polygon fill="#191970" stroke="#191970" points="549.2987,-730.5307 559.3935,-727.3142 549.4962,-723.5334 549.2987,-730.5307"/>
</g>
<!-- Node3930&#45;&gt;Node3922 -->
<g id="edge39" class="edge">
<title>Node3930&#45;&gt;Node3922</title>
<path fill="none" stroke="#191970" d="M615.4122,-758.0998C621.8158,-755.4117 628.3759,-752.11 634,-748.1733 656.8377,-732.1874 677.418,-707.2395 689.9259,-690.3254"/>
<polygon fill="#191970" stroke="#191970" points="693.0136,-692.0263 696.0073,-681.8632 687.3292,-687.9412 693.0136,-692.0263"/>
</g>
<!-- Node3959&#45;&gt;Node3904 -->
<g id="edge47" class="edge">
<title>Node3959&#45;&gt;Node3904</title>
<path fill="none" stroke="#191970" d="M464.3618,-776.8003C485.4557,-804.3846 546.3424,-884.0057 573.5673,-919.6075"/>
<polygon fill="#191970" stroke="#191970" points="570.8641,-921.8344 579.7189,-927.6519 576.4246,-917.5822 570.8641,-921.8344"/>
</g>
<!-- Node3959&#45;&gt;Node3921 -->
<g id="edge41" class="edge">
<title>Node3959&#45;&gt;Node3921</title>
<path fill="none" stroke="#191970" d="M425.8995,-761.9534C386.3578,-754.2675 317.0949,-737.2197 266,-705.1733 226.8112,-680.5944 191.9975,-638.1118 174.1466,-614.0848"/>
<polygon fill="#191970" stroke="#191970" points="176.8742,-611.8845 168.1619,-605.8557 171.213,-616.0017 176.8742,-611.8845"/>
</g>
<!-- Node3959&#45;&gt;Node3923 -->
<g id="edge46" class="edge">
<title>Node3959&#45;&gt;Node3923</title>
<path fill="none" stroke="#191970" d="M470.4226,-757.3645C492.9203,-740.9239 538.425,-707.6704 565.4481,-687.9228"/>
<polygon fill="#191970" stroke="#191970" points="567.8351,-690.5134 573.844,-681.7873 563.705,-684.8617 567.8351,-690.5134"/>
</g>
<!-- Node3959&#45;&gt;Node3930 -->
<g id="edge44" class="edge">
<title>Node3959&#45;&gt;Node3930</title>
<path fill="none" stroke="#191970" d="M488.1382,-767.1733C506.2646,-767.1733 529.2654,-767.1733 548.5193,-767.1733"/>
<polygon fill="#191970" stroke="#191970" points="548.7757,-770.6734 558.7757,-767.1733 548.7756,-763.6734 548.7757,-770.6734"/>
</g>
<!-- Node3959&#45;&gt;Node3959 -->
<g id="edge43" class="edge">
<title>Node3959&#45;&gt;Node3959</title>
<path fill="none" stroke="#191970" d="M436.9632,-776.9304C427.2156,-785.7386 433.8945,-795.1733 457,-795.1733 471.8019,-795.1733 479.8624,-791.3013 481.1814,-786.2025"/>
<polygon fill="#191970" stroke="#191970" points="484.313,-784.6315 477.0368,-776.9304 477.9224,-787.4881 484.313,-784.6315"/>
</g>
<!-- Node3959&#45;&gt;Node3960 -->
<g id="edge42" class="edge">
<title>Node3959&#45;&gt;Node3960</title>
<path fill="none" stroke="#191970" d="M471.6599,-776.7587C494.0917,-791.4256 537.1331,-819.568 563.8231,-837.0192"/>
<polygon fill="#191970" stroke="#191970" points="561.9091,-839.9494 572.1942,-842.4926 565.7398,-834.0906 561.9091,-839.9494"/>
</g>
<!-- Node3959&#45;&gt;Node3962 -->
<g id="edge45" class="edge">
<title>Node3959&#45;&gt;Node3962</title>
<path fill="none" stroke="#191970" d="M488.1382,-758.0714C506.5604,-752.6864 530.0173,-745.8298 549.4588,-740.1469"/>
<polygon fill="#191970" stroke="#191970" points="550.5951,-743.4613 559.2114,-737.2961 548.6311,-736.7424 550.5951,-743.4613"/>
</g>
</g>
</svg>
