<?xml version="1.0" encoding="UTF-8" standalone="no"?>
<!DOCTYPE svg PUBLIC "-//W3C//DTD SVG 1.1//EN"
 "http://www.w3.org/Graphics/SVG/1.1/DTD/svg11.dtd">
<!-- Generated by graphviz version 2.40.1 (20161225.0304)
 -->
<!-- Title: bf_normalize_and_round Pages: 1 -->
<!--zoomable 484 -->
<svg id="main" version="1.1" xmlns="http://www.w3.org/2000/svg" xmlns:xlink="http://www.w3.org/1999/xlink" xml:space="preserve" onload="init(evt)">
<style type="text/css"><![CDATA[
.edge:hover path { stroke: red; }
.edge:hover polygon { stroke: red; fill: red; }
]]></style>
<script type="text/javascript"><![CDATA[
var edges = document.getElementsByTagName('g');
if (edges && edges.length) {
  for (var i=0;i<edges.length;i++) {
    if (edges[i].id.substr(0,4)=='edge') {
      edges[i].setAttribute('class','edge');
    }
  }
}
]]></script>
        <defs>
                <circle id="rim" cx="0" cy="0" r="7"/>
                <circle id="rim2" cx="0" cy="0" r="3.5"/>
                <g id="zoomPlus">
                        <use xlink:href="#rim" fill="#404040">
                                <set attributeName="fill" to="#808080" begin="zoomplus.mouseover" end="zoomplus.mouseout"/>
                        </use>
                        <path d="M-4,0h8M0,-4v8" fill="none" stroke="white" stroke-width="1.5" pointer-events="none"/>
                </g>
                <g id="zoomMin">
                        <use xlink:href="#rim" fill="#404040">
                                <set attributeName="fill" to="#808080" begin="zoomminus.mouseover" end="zoomminus.mouseout"/>
                        </use>
                        <path d="M-4,0h8" fill="none" stroke="white" stroke-width="1.5" pointer-events="none"/>
                </g>
                <g id="dirArrow">
                        <path fill="none" stroke="white" stroke-width="1.5" d="M0,-3.0v7 M-2.5,-0.5L0,-3.0L2.5,-0.5"/>
                </g>
               <g id="resetDef">
                       <use xlink:href="#rim2" fill="#404040">
                               <set attributeName="fill" to="#808080" begin="reset.mouseover" end="reset.mouseout"/>
                       </use>
               </g>
        </defs>

<script type="text/javascript">
var viewWidth = 618;
var viewHeight = 484;
var sectionId = 'dynsection-46';
</script>
<script xlink:href="svgpan.js"/>
<svg id="graph" class="graph">
<g id="viewport">
<title>bf_normalize_and_round</title>
<!-- Node1918 -->
<g id="node1" class="node">
<title>Node1918</title>
<polygon fill="#bfbfbf" stroke="#000000" points="0,-38.5 0,-57.5 137,-57.5 137,-38.5 0,-38.5"/>
<text text-anchor="middle" x="68.5" y="-45.5" font-family="Helvetica,sans-Serif" font-size="10.00" fill="#000000">bf_normalize_and_round</text>
</g>
<!-- Node1919 -->
<g id="node2" class="node">
<title>Node1919</title>
<g id="a_node2"><a xlink:href="libbf_8c.html#a5a13527071b5331585beae41a51ed3c2" target="_top" xlink:title="__bf_round">
<polygon fill="none" stroke="#000000" points="173,-190.5 173,-209.5 243,-209.5 243,-190.5 173,-190.5"/>
<text text-anchor="middle" x="208" y="-197.5" font-family="Helvetica,sans-Serif" font-size="10.00" fill="#000000">__bf_round</text>
</a>
</g>
</g>
<!-- Node1918&#45;&gt;Node1919 -->
<g id="edge1" class="edge">
<title>Node1918&#45;&gt;Node1919</title>
<path fill="none" stroke="#191970" d="M77.2263,-57.5083C100.2236,-82.5662 162.74,-150.6845 192.2177,-182.8035"/>
<polygon fill="#191970" stroke="#191970" points="189.9366,-185.4944 199.2769,-190.4953 195.0939,-180.7612 189.9366,-185.4944"/>
</g>
<!-- Node1926 -->
<g id="node9" class="node">
<title>Node1926</title>
<g id="a_node9"><a xlink:href="libbf_8h.html#ab51c43b22c1a81c789ee0e3d53c0e585" target="_top" xlink:title="bf_resize">
<polygon fill="none" stroke="#000000" points="544,-171.5 544,-190.5 605,-190.5 605,-171.5 544,-171.5"/>
<text text-anchor="middle" x="574.5" y="-178.5" font-family="Helvetica,sans-Serif" font-size="10.00" fill="#000000">bf_resize</text>
</a>
</g>
</g>
<!-- Node1918&#45;&gt;Node1926 -->
<g id="edge20" class="edge">
<title>Node1918&#45;&gt;Node1926</title>
<path fill="none" stroke="#191970" d="M137.2208,-39.3421C227.0855,-31.3563 386.7303,-28.8641 503,-92 532.321,-107.9217 553.9975,-141.3882 565.4046,-162.4407"/>
<polygon fill="#191970" stroke="#191970" points="562.3332,-164.1209 570.0411,-171.39 568.5486,-160.9008 562.3332,-164.1209"/>
</g>
<!-- Node1931 -->
<g id="node14" class="node">
<title>Node1931</title>
<g id="a_node14"><a xlink:href="libbf_8c.html#a3ac3b86cc31b99a551947240e979c5d7" target="_top" xlink:title="clz">
<polygon fill="none" stroke="#000000" points="193,-.5 193,-19.5 223,-19.5 223,-.5 193,-.5"/>
<text text-anchor="middle" x="208" y="-7.5" font-family="Helvetica,sans-Serif" font-size="10.00" fill="#000000">clz</text>
</a>
</g>
</g>
<!-- Node1918&#45;&gt;Node1931 -->
<g id="edge21" class="edge">
<title>Node1918&#45;&gt;Node1931</title>
<path fill="none" stroke="#191970" d="M103.7017,-38.411C128.3953,-31.6844 160.8177,-22.8525 182.9158,-16.833"/>
<polygon fill="#191970" stroke="#191970" points="184.1269,-20.1307 192.8554,-14.1254 182.2871,-13.3768 184.1269,-20.1307"/>
</g>
<!-- Node1920 -->
<g id="node3" class="node">
<title>Node1920</title>
<g id="a_node3"><a xlink:href="libbf_8h.html#a933c9dd8c3450f560876d02e3b36b1a5" target="_top" xlink:title="bf_get_exp_bits">
<polygon fill="none" stroke="#000000" points="409,-114.5 409,-133.5 503,-133.5 503,-114.5 409,-114.5"/>
<text text-anchor="middle" x="456" y="-121.5" font-family="Helvetica,sans-Serif" font-size="10.00" fill="#000000">bf_get_exp_bits</text>
</a>
</g>
</g>
<!-- Node1919&#45;&gt;Node1920 -->
<g id="edge2" class="edge">
<title>Node1919&#45;&gt;Node1920</title>
<path fill="none" stroke="#191970" d="M239.1583,-190.4515C283.7035,-176.8006 365.6508,-151.6876 415.0505,-136.549"/>
<polygon fill="#191970" stroke="#191970" points="416.2385,-139.8457 424.7741,-133.5692 414.1875,-133.1529 416.2385,-139.8457"/>
</g>
<!-- Node1921 -->
<g id="node4" class="node">
<title>Node1921</title>
<g id="a_node4"><a xlink:href="libbf_8c.html#a3d7fdccc1995b3a88b68c5e7a57dce16" target="_top" xlink:title="bf_get_rnd_add">
<polygon fill="none" stroke="#000000" points="280,-399.5 280,-418.5 372,-418.5 372,-399.5 280,-399.5"/>
<text text-anchor="middle" x="326" y="-406.5" font-family="Helvetica,sans-Serif" font-size="10.00" fill="#000000">bf_get_rnd_add</text>
</a>
</g>
</g>
<!-- Node1919&#45;&gt;Node1921 -->
<g id="edge3" class="edge">
<title>Node1919&#45;&gt;Node1921</title>
<path fill="none" stroke="#191970" d="M210.5738,-209.7109C217.9832,-236.4729 241.278,-312.8235 279,-366 286.0797,-375.9802 295.8189,-385.3656 304.5963,-392.8061"/>
<polygon fill="#191970" stroke="#191970" points="302.6285,-395.7166 312.599,-399.2999 307.0392,-390.281 302.6285,-395.7166"/>
</g>
<!-- Node1925 -->
<g id="node8" class="node">
<title>Node1925</title>
<g id="a_node8"><a xlink:href="libbf_8c.html#a450dfcc66e1b45403f642a8499219f94" target="_top" xlink:title="limb_mask">
<polygon fill="none" stroke="#000000" points="539,-342.5 539,-361.5 610,-361.5 610,-342.5 539,-342.5"/>
<text text-anchor="middle" x="574.5" y="-349.5" font-family="Helvetica,sans-Serif" font-size="10.00" fill="#000000">limb_mask</text>
</a>
</g>
</g>
<!-- Node1919&#45;&gt;Node1925 -->
<g id="edge19" class="edge">
<title>Node1919&#45;&gt;Node1925</title>
<path fill="none" stroke="#191970" d="M214.188,-209.5713C225.2005,-225.8095 249.8071,-258.6764 279,-276 358.8824,-323.4038 467.9775,-341.5253 528.7841,-348.2384"/>
<polygon fill="#191970" stroke="#191970" points="528.5271,-351.7305 538.8375,-349.2923 529.257,-344.7687 528.5271,-351.7305"/>
</g>
<!-- Node1919&#45;&gt;Node1926 -->
<g id="edge8" class="edge">
<title>Node1919&#45;&gt;Node1926</title>
<path fill="none" stroke="#191970" d="M218.2765,-190.3302C231.4273,-178.4155 255.3472,-158.2499 279,-146 332.7965,-118.1385 349.1223,-114.2185 409,-105 450.2913,-98.643 464.6506,-88.4256 503,-105 530.047,-116.6896 551.5876,-144.2038 563.7008,-162.7157"/>
<polygon fill="#191970" stroke="#191970" points="560.8876,-164.8185 569.1551,-171.4442 566.8239,-161.109 560.8876,-164.8185"/>
</g>
<!-- Node1927 -->
<g id="node10" class="node">
<title>Node1927</title>
<g id="a_node10"><a xlink:href="libbf_8c.html#af464f3c1421a7305372819f949667273" target="_top" xlink:title="bf_set_overflow">
<polygon fill="none" stroke="#000000" points="279,-190.5 279,-209.5 373,-209.5 373,-190.5 279,-190.5"/>
<text text-anchor="middle" x="326" y="-197.5" font-family="Helvetica,sans-Serif" font-size="10.00" fill="#000000">bf_set_overflow</text>
</a>
</g>
</g>
<!-- Node1919&#45;&gt;Node1927 -->
<g id="edge9" class="edge">
<title>Node1919&#45;&gt;Node1927</title>
<path fill="none" stroke="#191970" d="M243.0844,-200C251.0924,-200 259.8079,-200 268.4807,-200"/>
<polygon fill="#191970" stroke="#191970" points="268.5973,-203.5001 278.5972,-200 268.5972,-196.5001 268.5973,-203.5001"/>
</g>
<!-- Node1930 -->
<g id="node13" class="node">
<title>Node1930</title>
<g id="a_node13"><a xlink:href="libbf_8h.html#a66631c65c00e92a5840a5085a009602d" target="_top" xlink:title="bf_set_zero">
<polygon fill="none" stroke="#000000" points="289.5,-247.5 289.5,-266.5 362.5,-266.5 362.5,-247.5 289.5,-247.5"/>
<text text-anchor="middle" x="326" y="-254.5" font-family="Helvetica,sans-Serif" font-size="10.00" fill="#000000">bf_set_zero</text>
</a>
</g>
</g>
<!-- Node1919&#45;&gt;Node1930 -->
<g id="edge17" class="edge">
<title>Node1919&#45;&gt;Node1930</title>
<path fill="none" stroke="#191970" d="M227.7505,-209.5405C246.7248,-218.7061 275.6109,-232.6595 297.1575,-243.0676"/>
<polygon fill="#191970" stroke="#191970" points="295.6581,-246.2302 306.185,-247.4284 298.7029,-239.9271 295.6581,-246.2302"/>
</g>
<!-- Node1922 -->
<g id="node5" class="node">
<title>Node1922</title>
<g id="a_node5"><a xlink:href="libbf_8h.html#a4954f3435332238433d15977d55ae566" target="_top" xlink:title="bf_max">
<polygon fill="none" stroke="#000000" points="429.5,-380.5 429.5,-399.5 482.5,-399.5 482.5,-380.5 429.5,-380.5"/>
<text text-anchor="middle" x="456" y="-387.5" font-family="Helvetica,sans-Serif" font-size="10.00" fill="#000000">bf_max</text>
</a>
</g>
</g>
<!-- Node1921&#45;&gt;Node1922 -->
<g id="edge4" class="edge">
<title>Node1921&#45;&gt;Node1922</title>
<path fill="none" stroke="#191970" d="M372.1992,-402.2478C387.5854,-399.9991 404.5094,-397.5255 419.0959,-395.3937"/>
<polygon fill="#191970" stroke="#191970" points="419.8599,-398.8193 429.2486,-393.9098 418.8475,-391.8929 419.8599,-398.8193"/>
</g>
<!-- Node1923 -->
<g id="node6" class="node">
<title>Node1923</title>
<g id="a_node6"><a xlink:href="libbf_8c.html#a7e1a60c84d638cde1ac9aabd01d266e1" target="_top" xlink:title="get_bit">
<polygon fill="none" stroke="#000000" points="431,-418.5 431,-437.5 481,-437.5 481,-418.5 431,-418.5"/>
<text text-anchor="middle" x="456" y="-425.5" font-family="Helvetica,sans-Serif" font-size="10.00" fill="#000000">get_bit</text>
</a>
</g>
</g>
<!-- Node1921&#45;&gt;Node1923 -->
<g id="edge5" class="edge">
<title>Node1921&#45;&gt;Node1923</title>
<path fill="none" stroke="#191970" d="M372.1992,-415.7522C388.0552,-418.0696 405.5444,-420.6257 420.4254,-422.8006"/>
<polygon fill="#191970" stroke="#191970" points="420.3385,-426.325 430.7396,-424.3081 421.3509,-419.3986 420.3385,-426.325"/>
</g>
<!-- Node1924 -->
<g id="node7" class="node">
<title>Node1924</title>
<g id="a_node7"><a xlink:href="libbf_8c.html#ad3d895c95a9ac95ae5fe9ea75ce7291f" target="_top" xlink:title="scan_bit_nz">
<polygon fill="none" stroke="#000000" points="419,-456.5 419,-475.5 493,-475.5 493,-456.5 419,-456.5"/>
<text text-anchor="middle" x="456" y="-463.5" font-family="Helvetica,sans-Serif" font-size="10.00" fill="#000000">scan_bit_nz</text>
</a>
</g>
</g>
<!-- Node1921&#45;&gt;Node1924 -->
<g id="edge6" class="edge">
<title>Node1921&#45;&gt;Node1924</title>
<path fill="none" stroke="#191970" d="M346.3508,-418.6284C363.0834,-426.4696 387.4585,-437.7203 409,-447 413.2058,-448.8118 417.6434,-450.6719 422.045,-452.486"/>
<polygon fill="#191970" stroke="#191970" points="420.9377,-455.8142 431.5192,-456.3469 423.5795,-449.3318 420.9377,-455.8142"/>
</g>
<!-- Node1924&#45;&gt;Node1925 -->
<g id="edge7" class="edge">
<title>Node1924&#45;&gt;Node1925</title>
<path fill="none" stroke="#191970" d="M486.6412,-456.4275C492.3855,-453.8733 498.1137,-450.7524 503,-447 530.4189,-425.9436 552.5635,-391.7791 564.5999,-370.6691"/>
<polygon fill="#191970" stroke="#191970" points="567.7684,-372.1715 569.5388,-361.7256 561.6407,-368.7875 567.7684,-372.1715"/>
</g>
<!-- Node1927&#45;&gt;Node1920 -->
<g id="edge10" class="edge">
<title>Node1927&#45;&gt;Node1920</title>
<path fill="none" stroke="#191970" d="M340.4584,-190.4012C356.837,-179.6554 384.4469,-161.9249 409,-148 414.753,-144.7373 420.9987,-141.4063 427.0017,-138.3049"/>
<polygon fill="#191970" stroke="#191970" points="428.8025,-141.3158 436.1297,-133.6633 425.6295,-135.0762 428.8025,-141.3158"/>
</g>
<!-- Node1927&#45;&gt;Node1925 -->
<g id="edge16" class="edge">
<title>Node1927&#45;&gt;Node1925</title>
<path fill="none" stroke="#191970" d="M339.2907,-209.6196C355.4977,-221.2343 383.845,-241.1787 409,-257 456.9861,-287.1809 514.7624,-319.4578 547.8035,-337.5453"/>
<polygon fill="#191970" stroke="#191970" points="546.3772,-340.7541 556.832,-342.4713 549.7299,-334.6092 546.3772,-340.7541"/>
</g>
<!-- Node1927&#45;&gt;Node1926 -->
<g id="edge11" class="edge">
<title>Node1927&#45;&gt;Node1926</title>
<path fill="none" stroke="#191970" d="M359.6245,-190.4926C374.6052,-186.7281 392.5483,-182.859 409,-181 451.2509,-176.2258 499.9575,-176.9712 533.5377,-178.4501"/>
<polygon fill="#191970" stroke="#191970" points="533.7242,-181.9632 543.8815,-178.95 534.0622,-174.9713 533.7242,-181.9632"/>
</g>
<!-- Node1928 -->
<g id="node11" class="node">
<title>Node1928</title>
<g id="a_node11"><a xlink:href="libbf_8h.html#a88d3dcee173f1e4fd4e55000edb04595" target="_top" xlink:title="bf_set_inf">
<polygon fill="none" stroke="#000000" points="423.5,-228.5 423.5,-247.5 488.5,-247.5 488.5,-228.5 423.5,-228.5"/>
<text text-anchor="middle" x="456" y="-235.5" font-family="Helvetica,sans-Serif" font-size="10.00" fill="#000000">bf_set_inf</text>
</a>
</g>
</g>
<!-- Node1927&#45;&gt;Node1928 -->
<g id="edge12" class="edge">
<title>Node1927&#45;&gt;Node1928</title>
<path fill="none" stroke="#191970" d="M358.8045,-209.589C375.2783,-214.4044 395.4434,-220.2988 413.1273,-225.468"/>
<polygon fill="#191970" stroke="#191970" points="412.6256,-228.9677 423.206,-228.4141 414.5897,-222.2489 412.6256,-228.9677"/>
</g>
<!-- Node1929 -->
<g id="node12" class="node">
<title>Node1929</title>
<g id="a_node12"><a xlink:href="libbf_8h.html#aa6282c789c16c8cf2fe6a8ebd671c6fc" target="_top" xlink:title="bf_set_nan">
<polygon fill="none" stroke="#000000" points="421,-190.5 421,-209.5 491,-209.5 491,-190.5 421,-190.5"/>
<text text-anchor="middle" x="456" y="-197.5" font-family="Helvetica,sans-Serif" font-size="10.00" fill="#000000">bf_set_nan</text>
</a>
</g>
</g>
<!-- Node1927&#45;&gt;Node1929 -->
<g id="edge14" class="edge">
<title>Node1927&#45;&gt;Node1929</title>
<path fill="none" stroke="#191970" d="M373.3007,-200C385.4291,-200 398.4475,-200 410.4838,-200"/>
<polygon fill="#191970" stroke="#191970" points="410.7612,-203.5001 420.7612,-200 410.7612,-196.5001 410.7612,-203.5001"/>
</g>
<!-- Node1928&#45;&gt;Node1926 -->
<g id="edge13" class="edge">
<title>Node1928&#45;&gt;Node1926</title>
<path fill="none" stroke="#191970" d="M481.088,-228.4208C488.2333,-225.5413 495.9806,-222.2733 503,-219 518.378,-211.8291 535.1497,-202.9725 548.5822,-195.6141"/>
<polygon fill="#191970" stroke="#191970" points="550.6499,-198.4701 557.7054,-190.5662 547.2609,-192.3451 550.6499,-198.4701"/>
</g>
<!-- Node1929&#45;&gt;Node1926 -->
<g id="edge15" class="edge">
<title>Node1929&#45;&gt;Node1926</title>
<path fill="none" stroke="#191970" d="M491.2331,-194.3508C504.4983,-192.2239 519.6969,-189.787 533.4474,-187.5823"/>
<polygon fill="#191970" stroke="#191970" points="534.3044,-190.9897 543.6242,-185.9506 533.1962,-184.0779 534.3044,-190.9897"/>
</g>
<!-- Node1930&#45;&gt;Node1926 -->
<g id="edge18" class="edge">
<title>Node1930&#45;&gt;Node1926</title>
<path fill="none" stroke="#191970" d="M362.6172,-265.1689C399.6487,-271.5986 457.7271,-276.5667 503,-257 530.047,-245.3104 551.5876,-217.7962 563.7008,-199.2843"/>
<polygon fill="#191970" stroke="#191970" points="566.8239,-200.891 569.1551,-190.5558 560.8876,-197.1815 566.8239,-200.891"/>
</g>
<!-- Node1932 -->
<g id="node15" class="node">
<title>Node1932</title>
<g id="a_node15"><a xlink:href="cutils_8h.html#a28eb00e6774a2dd724b86fb6f83c1bf6" target="_top" xlink:title="clz64">
<polygon fill="none" stroke="#000000" points="305,-.5 305,-19.5 347,-19.5 347,-.5 305,-.5"/>
<text text-anchor="middle" x="326" y="-7.5" font-family="Helvetica,sans-Serif" font-size="10.00" fill="#000000">clz64</text>
</a>
</g>
</g>
<!-- Node1931&#45;&gt;Node1932 -->
<g id="edge22" class="edge">
<title>Node1931&#45;&gt;Node1932</title>
<path fill="none" stroke="#191970" d="M223.4264,-10C241.4392,-10 271.6946,-10 294.691,-10"/>
<polygon fill="#191970" stroke="#191970" points="294.9933,-13.5001 304.9932,-10 294.9932,-6.5001 294.9933,-13.5001"/>
</g>
</g>
</svg>
        <g id="navigator" transform="translate(0 0)" fill="#404254">
                <rect fill="#f2f5e9" fill-opacity="0.5" stroke="#606060" stroke-width=".5" x="0" y="0" width="60" height="60"/>
                <use id="zoomplus" xlink:href="#zoomPlus" x="17" y="9" onmousedown="handleZoom(evt,'in')"/>
                <use id="zoomminus" xlink:href="#zoomMin" x="42" y="9" onmousedown="handleZoom(evt,'out')"/>
                <use id="reset" xlink:href="#resetDef" x="30" y="36" onmousedown="handleReset()"/>
                <g id="arrowUp" xlink:href="#dirArrow" transform="translate(30 24)" onmousedown="handlePan(0,-1)">
                  <use xlink:href="#rim" fill="#404040">
                        <set attributeName="fill" to="#808080" begin="arrowUp.mouseover" end="arrowUp.mouseout"/>
                  </use>
                  <path fill="none" stroke="white" stroke-width="1.5" d="M0,-3.0v7 M-2.5,-0.5L0,-3.0L2.5,-0.5"/>
                </g>
                <g id="arrowRight" xlink:href="#dirArrow" transform="rotate(90) translate(36 -43)" onmousedown="handlePan(1,0)">
                  <use xlink:href="#rim" fill="#404040">
                        <set attributeName="fill" to="#808080" begin="arrowRight.mouseover" end="arrowRight.mouseout"/>
                  </use>
                  <path fill="none" stroke="white" stroke-width="1.5" d="M0,-3.0v7 M-2.5,-0.5L0,-3.0L2.5,-0.5"/>
                </g>
                <g id="arrowDown" xlink:href="#dirArrow" transform="rotate(180) translate(-30 -48)" onmousedown="handlePan(0,1)">
                  <use xlink:href="#rim" fill="#404040">
                        <set attributeName="fill" to="#808080" begin="arrowDown.mouseover" end="arrowDown.mouseout"/>
                  </use>
                  <path fill="none" stroke="white" stroke-width="1.5" d="M0,-3.0v7 M-2.5,-0.5L0,-3.0L2.5,-0.5"/>
                </g>
                <g id="arrowLeft" xlink:href="#dirArrow" transform="rotate(270) translate(-36 17)" onmousedown="handlePan(-1,0)">
                  <use xlink:href="#rim" fill="#404040">
                        <set attributeName="fill" to="#808080" begin="arrowLeft.mouseover" end="arrowLeft.mouseout"/>
                  </use>
                  <path fill="none" stroke="white" stroke-width="1.5" d="M0,-3.0v7 M-2.5,-0.5L0,-3.0L2.5,-0.5"/>
                </g>
        </g>
        <svg viewBox="0 0 15 15" width="100%" height="30px" preserveAspectRatio="xMaxYMin meet">
         <g id="arrow_out" transform="scale(0.3 0.3)">
          <a xlink:href="libbf_8c_ae822c0888d26739bb681dfef282b9150_cgraph_org.svg" target="_base">
           <rect id="button" ry="5" rx="5" y="6" x="6" height="38" width="38"
                fill="#f2f5e9" fill-opacity="0.5" stroke="#606060" stroke-width="1.0"/>
           <path id="arrow"
             d="M 11.500037,31.436501 C 11.940474,20.09759 22.043105,11.32322 32.158766,21.979434 L 37.068811,17.246167 C 37.068811,17.246167 37.088388,32 37.088388,32 L 22.160133,31.978069 C 22.160133,31.978069 26.997745,27.140456 26.997745,27.140456 C 18.528582,18.264221 13.291696,25.230495 11.500037,31.436501 z"
             style="fill:#404040;"/>
          </a>
         </g>
        </svg>
</svg>
