<?xml version="1.0" encoding="UTF-8" standalone="no"?>
<!DOCTYPE svg PUBLIC "-//W3C//DTD SVG 1.1//EN"
 "http://www.w3.org/Graphics/SVG/1.1/DTD/svg11.dtd">
<!-- Generated by graphviz version 2.40.1 (20161225.0304)
 -->
<!-- Title: bfdec_set_zero Pages: 1 -->
<svg width="304pt" height="28pt"
 viewBox="0.00 0.00 304.00 28.00" xmlns="http://www.w3.org/2000/svg" xmlns:xlink="http://www.w3.org/1999/xlink">
<g id="graph0" class="graph" transform="scale(1 1) rotate(0) translate(4 24)">
<title>bfdec_set_zero</title>
<!-- Node5252 -->
<g id="node1" class="node">
<title>Node5252</title>
<polygon fill="#bfbfbf" stroke="#000000" points="0,-.5 0,-19.5 90,-19.5 90,-.5 0,-.5"/>
<text text-anchor="middle" x="45" y="-7.5" font-family="Helvetica,sans-Serif" font-size="10.00" fill="#000000">bfdec_set_zero</text>
</g>
<!-- Node5253 -->
<g id="node2" class="node">
<title>Node5253</title>
<g id="a_node2"><a xlink:href="libbf_8h.html#a66631c65c00e92a5840a5085a009602d" target="_top" xlink:title="bf_set_zero">
<polygon fill="none" stroke="#000000" points="126,-.5 126,-19.5 199,-19.5 199,-.5 126,-.5"/>
<text text-anchor="middle" x="162.5" y="-7.5" font-family="Helvetica,sans-Serif" font-size="10.00" fill="#000000">bf_set_zero</text>
</a>
</g>
</g>
<!-- Node5252&#45;&gt;Node5253 -->
<g id="edge1" class="edge">
<title>Node5252&#45;&gt;Node5253</title>
<path fill="none" stroke="#191970" d="M90.0925,-10C98.4664,-10 107.2322,-10 115.657,-10"/>
<polygon fill="#191970" stroke="#191970" points="115.7151,-13.5001 125.7151,-10 115.715,-6.5001 115.7151,-13.5001"/>
</g>
<!-- Node5254 -->
<g id="node3" class="node">
<title>Node5254</title>
<g id="a_node3"><a xlink:href="libbf_8h.html#ab51c43b22c1a81c789ee0e3d53c0e585" target="_top" xlink:title="bf_resize">
<polygon fill="none" stroke="#000000" points="235,-.5 235,-19.5 296,-19.5 296,-.5 235,-.5"/>
<text text-anchor="middle" x="265.5" y="-7.5" font-family="Helvetica,sans-Serif" font-size="10.00" fill="#000000">bf_resize</text>
</a>
</g>
</g>
<!-- Node5253&#45;&gt;Node5254 -->
<g id="edge2" class="edge">
<title>Node5253&#45;&gt;Node5254</title>
<path fill="none" stroke="#191970" d="M199.104,-10C207.4078,-10 216.277,-10 224.7411,-10"/>
<polygon fill="#191970" stroke="#191970" points="224.7993,-13.5001 234.7993,-10 224.7993,-6.5001 224.7993,-13.5001"/>
</g>
</g>
</svg>
