<?xml version="1.0" encoding="UTF-8" standalone="no"?>
<!DOCTYPE svg PUBLIC "-//W3C//DTD SVG 1.1//EN"
 "http://www.w3.org/Graphics/SVG/1.1/DTD/svg11.dtd">
<!-- Generated by graphviz version 2.40.1 (20161225.0304)
 -->
<!-- Title: smod Pages: 1 -->
<svg width="478pt" height="332pt"
 viewBox="0.00 0.00 478.00 332.00" xmlns="http://www.w3.org/2000/svg" xmlns:xlink="http://www.w3.org/1999/xlink">
<g id="graph0" class="graph" transform="scale(1 1) rotate(0) translate(4 328)">
<title>smod</title>
<!-- Node363 -->
<g id="node1" class="node">
<title>Node363</title>
<polygon fill="#bfbfbf" stroke="#000000" points="0,-266.5 0,-285.5 44,-285.5 44,-266.5 0,-266.5"/>
<text text-anchor="middle" x="22" y="-273.5" font-family="Helvetica,sans-Serif" font-size="10.00" fill="#000000">smod</text>
</g>
<!-- Node364 -->
<g id="node2" class="node">
<title>Node364</title>
<g id="a_node2"><a xlink:href="libbf_8c.html#aec64568757dfbfcb93d12168d4a9306a" target="_top" xlink:title="__bfdec_round">
<polygon fill="none" stroke="#000000" points="80,-228.5 80,-247.5 167,-247.5 167,-228.5 80,-228.5"/>
<text text-anchor="middle" x="123.5" y="-235.5" font-family="Helvetica,sans-Serif" font-size="10.00" fill="#000000">__bfdec_round</text>
</a>
</g>
</g>
<!-- Node363&#45;&gt;Node364 -->
<g id="edge1" class="edge">
<title>Node363&#45;&gt;Node364</title>
<path fill="none" stroke="#191970" d="M53.4645,-264.2202C67.7529,-258.8708 84.4371,-252.6245 97.9364,-247.5706"/>
<polygon fill="#191970" stroke="#191970" points="52.162,-260.9705 44.024,-267.7546 54.6164,-267.5261 52.162,-260.9705"/>
</g>
<!-- Node366 -->
<g id="node4" class="node">
<title>Node366</title>
<g id="a_node4"><a xlink:href="libbf_8c.html#ad79aefc435021a0743c89cb4aec7fa56" target="_top" xlink:title="bf_ftoa_internal">
<polygon fill="none" stroke="#ff0000" points="368,-304.5 368,-323.5 462,-323.5 462,-304.5 368,-304.5"/>
<text text-anchor="middle" x="415" y="-311.5" font-family="Helvetica,sans-Serif" font-size="10.00" fill="#000000">bf_ftoa_internal</text>
</a>
</g>
</g>
<!-- Node363&#45;&gt;Node366 -->
<g id="edge13" class="edge">
<title>Node363&#45;&gt;Node366</title>
<path fill="none" stroke="#191970" d="M53.7093,-288.0309C62.1405,-290.7742 71.319,-293.3609 80,-295 181.318,-314.1298 302.6765,-315.8895 367.9289,-315.1538"/>
<polygon fill="#191970" stroke="#191970" points="54.8242,-284.7132 44.2297,-284.786 52.5572,-291.336 54.8242,-284.7132"/>
</g>
<!-- Node392 -->
<g id="node14" class="node">
<title>Node392</title>
<g id="a_node14"><a xlink:href="libbf_8c.html#ae598665f1f567f67350a972a972ef86a" target="_top" xlink:title="output_digits">
<polygon fill="none" stroke="#000000" points="83.5,-266.5 83.5,-285.5 163.5,-285.5 163.5,-266.5 83.5,-266.5"/>
<text text-anchor="middle" x="123.5" y="-273.5" font-family="Helvetica,sans-Serif" font-size="10.00" fill="#000000">output_digits</text>
</a>
</g>
</g>
<!-- Node363&#45;&gt;Node392 -->
<g id="edge14" class="edge">
<title>Node363&#45;&gt;Node392</title>
<path fill="none" stroke="#191970" d="M54.2671,-276C63.4309,-276 73.5259,-276 83.1065,-276"/>
<polygon fill="#191970" stroke="#191970" points="54.024,-272.5001 44.024,-276 54.024,-279.5001 54.024,-272.5001"/>
</g>
<!-- Node365 -->
<g id="node3" class="node">
<title>Node365</title>
<g id="a_node3"><a xlink:href="libbf_8h.html#a807d4e601bf73a30844a7c84f34961f1" target="_top" xlink:title="bfdec_round">
<polygon fill="none" stroke="#000000" points="225,-228.5 225,-247.5 302,-247.5 302,-228.5 225,-228.5"/>
<text text-anchor="middle" x="263.5" y="-235.5" font-family="Helvetica,sans-Serif" font-size="10.00" fill="#000000">bfdec_round</text>
</a>
</g>
</g>
<!-- Node364&#45;&gt;Node365 -->
<g id="edge2" class="edge">
<title>Node364&#45;&gt;Node365</title>
<path fill="none" stroke="#191970" d="M177.2239,-238C193.0503,-238 210.0518,-238 224.7433,-238"/>
<polygon fill="#191970" stroke="#191970" points="177.0295,-234.5001 167.0295,-238 177.0294,-241.5001 177.0295,-234.5001"/>
</g>
<!-- Node373 -->
<g id="node8" class="node">
<title>Node373</title>
<g id="a_node8"><a xlink:href="libbf_8h.html#acd3459551d5c61344889ba07a276b0a0" target="_top" xlink:title="bfdec_normalize_and\l_round">
<polygon fill="none" stroke="#000000" points="203,-90 203,-120 324,-120 324,-90 203,-90"/>
<text text-anchor="start" x="211" y="-108" font-family="Helvetica,sans-Serif" font-size="10.00" fill="#000000">bfdec_normalize_and</text>
<text text-anchor="middle" x="263.5" y="-97" font-family="Helvetica,sans-Serif" font-size="10.00" fill="#000000">_round</text>
</a>
</g>
</g>
<!-- Node364&#45;&gt;Node373 -->
<g id="edge7" class="edge">
<title>Node364&#45;&gt;Node373</title>
<path fill="none" stroke="#191970" d="M140.8605,-221.5075C168.1438,-195.5884 220.6811,-145.6779 247.2563,-120.4315"/>
<polygon fill="#191970" stroke="#191970" points="138.4078,-219.0099 133.5685,-228.435 143.2291,-224.085 138.4078,-219.0099"/>
</g>
<!-- Node365&#45;&gt;Node366 -->
<g id="edge3" class="edge">
<title>Node365&#45;&gt;Node366</title>
<path fill="none" stroke="#191970" d="M303.3468,-251.3978C310.4506,-254.4532 317.6147,-257.9985 324,-262 342.3921,-273.5258 341.3531,-283.8912 360,-295 366.2488,-298.7227 373.3333,-301.8543 380.289,-304.4328"/>
<polygon fill="#191970" stroke="#191970" points="304.3593,-248.0323 293.776,-247.5384 301.7414,-254.5244 304.3593,-248.0323"/>
</g>
<!-- Node369 -->
<g id="node5" class="node">
<title>Node369</title>
<g id="a_node5"><a xlink:href="libbf_8h.html#a318508be097917ddd5d1ce187edea68b" target="_top" xlink:title="bfdec_divrem">
<polygon fill="none" stroke="#ff0000" points="373.5,-266.5 373.5,-285.5 456.5,-285.5 456.5,-266.5 373.5,-266.5"/>
<text text-anchor="middle" x="415" y="-273.5" font-family="Helvetica,sans-Serif" font-size="10.00" fill="#000000">bfdec_divrem</text>
</a>
</g>
</g>
<!-- Node365&#45;&gt;Node369 -->
<g id="edge4" class="edge">
<title>Node365&#45;&gt;Node369</title>
<path fill="none" stroke="#191970" d="M311.5016,-250.04C332.6668,-255.3488 357.1858,-261.4988 377.0451,-266.4799"/>
<polygon fill="#191970" stroke="#191970" points="312.2809,-246.6271 301.7298,-247.589 310.5779,-253.4168 312.2809,-246.6271"/>
</g>
<!-- Node371 -->
<g id="node6" class="node">
<title>Node371</title>
<g id="a_node6"><a xlink:href="libbf_8h.html#ab6867737ba58696fdc9de82a5dea003d" target="_top" xlink:title="bfdec_rint">
<polygon fill="none" stroke="#000000" points="382.5,-228.5 382.5,-247.5 447.5,-247.5 447.5,-228.5 382.5,-228.5"/>
<text text-anchor="middle" x="415" y="-235.5" font-family="Helvetica,sans-Serif" font-size="10.00" fill="#000000">bfdec_rint</text>
</a>
</g>
</g>
<!-- Node365&#45;&gt;Node371 -->
<g id="edge5" class="edge">
<title>Node365&#45;&gt;Node371</title>
<path fill="none" stroke="#191970" d="M312.3074,-238C335.128,-238 361.6997,-238 382.0961,-238"/>
<polygon fill="#191970" stroke="#191970" points="312.1219,-234.5001 302.1218,-238 312.1218,-241.5001 312.1219,-234.5001"/>
</g>
<!-- Node372 -->
<g id="node7" class="node">
<title>Node372</title>
<g id="a_node7"><a xlink:href="libbf_8h.html#aadf1781139c916e6ccb6ea473bf5a2d1" target="_top" xlink:title="bfdec_sqrt">
<polygon fill="none" stroke="#000000" points="381,-190.5 381,-209.5 449,-209.5 449,-190.5 381,-190.5"/>
<text text-anchor="middle" x="415" y="-197.5" font-family="Helvetica,sans-Serif" font-size="10.00" fill="#000000">bfdec_sqrt</text>
</a>
</g>
</g>
<!-- Node365&#45;&gt;Node372 -->
<g id="edge6" class="edge">
<title>Node365&#45;&gt;Node372</title>
<path fill="none" stroke="#191970" d="M311.4677,-225.9685C334.0388,-220.3071 360.43,-213.6875 380.9178,-208.5487"/>
<polygon fill="#191970" stroke="#191970" points="310.5779,-222.5832 301.7298,-228.411 312.2809,-229.3729 310.5779,-222.5832"/>
</g>
<!-- Node374 -->
<g id="node9" class="node">
<title>Node374</title>
<g id="a_node9"><a xlink:href="libbf_8c.html#aaaeb6c790a8b174f3c5631ee33c81910" target="_top" xlink:title="bf_atof_internal">
<polygon fill="none" stroke="#ff0000" points="368,-152.5 368,-171.5 462,-171.5 462,-152.5 368,-152.5"/>
<text text-anchor="middle" x="415" y="-159.5" font-family="Helvetica,sans-Serif" font-size="10.00" fill="#000000">bf_atof_internal</text>
</a>
</g>
</g>
<!-- Node373&#45;&gt;Node374 -->
<g id="edge8" class="edge">
<title>Node373&#45;&gt;Node374</title>
<path fill="none" stroke="#191970" d="M310.435,-123.9449C326.1388,-130.1598 343.7751,-137.0061 360,-143 368.6235,-146.1858 378.0659,-149.5074 386.6554,-152.4659"/>
<polygon fill="#191970" stroke="#191970" points="311.5224,-120.6108 300.9367,-120.17 308.9371,-127.1159 311.5224,-120.6108"/>
</g>
<!-- Node378 -->
<g id="node10" class="node">
<title>Node378</title>
<g id="a_node10"><a xlink:href="libbf_8h.html#a3a0734cc58dd4feba2c300d053f53e36" target="_top" xlink:title="bfdec_set_ui">
<polygon fill="none" stroke="#ff0000" points="376,-114.5 376,-133.5 454,-133.5 454,-114.5 376,-114.5"/>
<text text-anchor="middle" x="415" y="-121.5" font-family="Helvetica,sans-Serif" font-size="10.00" fill="#000000">bfdec_set_ui</text>
</a>
</g>
</g>
<!-- Node373&#45;&gt;Node378 -->
<g id="edge9" class="edge">
<title>Node373&#45;&gt;Node378</title>
<path fill="none" stroke="#191970" d="M334.4732,-113.9009C348.609,-115.6737 362.9674,-117.4745 375.569,-119.0549"/>
<polygon fill="#191970" stroke="#191970" points="334.6057,-110.3902 324.2479,-112.6185 333.7346,-117.3358 334.6057,-110.3902"/>
</g>
<!-- Node384 -->
<g id="node11" class="node">
<title>Node384</title>
<g id="a_node11"><a xlink:href="libbf_8c.html#adab81046eaf5fc5a75e1bae96b75be66" target="_top" xlink:title="bfdec_add_internal">
<polygon fill="none" stroke="#ff0000" points="360,-76.5 360,-95.5 470,-95.5 470,-76.5 360,-76.5"/>
<text text-anchor="middle" x="415" y="-83.5" font-family="Helvetica,sans-Serif" font-size="10.00" fill="#000000">bfdec_add_internal</text>
</a>
</g>
</g>
<!-- Node373&#45;&gt;Node384 -->
<g id="edge10" class="edge">
<title>Node373&#45;&gt;Node384</title>
<path fill="none" stroke="#191970" d="M334.2027,-96.133C342.7386,-95.0625 351.3603,-93.9812 359.6318,-92.9439"/>
<polygon fill="#191970" stroke="#191970" points="333.7346,-92.6642 324.2479,-97.3815 334.6057,-99.6098 333.7346,-92.6642"/>
</g>
<!-- Node389 -->
<g id="node12" class="node">
<title>Node389</title>
<g id="a_node12"><a xlink:href="libbf_8h.html#a2afc9f7c942c27cc609877c776dd9a69" target="_top" xlink:title="bfdec_mul">
<polygon fill="none" stroke="#ff0000" points="381,-38.5 381,-57.5 449,-57.5 449,-38.5 381,-38.5"/>
<text text-anchor="middle" x="415" y="-45.5" font-family="Helvetica,sans-Serif" font-size="10.00" fill="#000000">bfdec_mul</text>
</a>
</g>
</g>
<!-- Node373&#45;&gt;Node389 -->
<g id="edge11" class="edge">
<title>Node373&#45;&gt;Node389</title>
<path fill="none" stroke="#191970" d="M310.435,-86.0551C326.1388,-79.8402 343.7751,-72.9939 360,-67 368.6235,-63.8142 378.0659,-60.4926 386.6554,-57.5341"/>
<polygon fill="#191970" stroke="#191970" points="308.9371,-82.8841 300.9367,-89.83 311.5224,-89.3892 308.9371,-82.8841"/>
</g>
<!-- Node390 -->
<g id="node13" class="node">
<title>Node390</title>
<g id="a_node13"><a xlink:href="libbf_8c.html#ab0fc8c7b5ee65f945fae1794494865f1" target="_top" xlink:title="__bfdec_div">
<polygon fill="none" stroke="#ff0000" points="378,-.5 378,-19.5 452,-19.5 452,-.5 378,-.5"/>
<text text-anchor="middle" x="415" y="-7.5" font-family="Helvetica,sans-Serif" font-size="10.00" fill="#000000">__bfdec_div</text>
</a>
</g>
</g>
<!-- Node373&#45;&gt;Node390 -->
<g id="edge12" class="edge">
<title>Node373&#45;&gt;Node390</title>
<path fill="none" stroke="#191970" d="M286.7916,-82.9711C305.4128,-66.312 332.8148,-43.8466 360,-29 366.7384,-25.32 374.3232,-22.1504 381.6581,-19.5126"/>
<polygon fill="#191970" stroke="#191970" points="284.4182,-80.3986 279.3749,-89.7161 289.1279,-85.5773 284.4182,-80.3986"/>
</g>
<!-- Node392&#45;&gt;Node366 -->
<g id="edge15" class="edge">
<title>Node392&#45;&gt;Node366</title>
<path fill="none" stroke="#191970" d="M174.0489,-281.5762C214.6263,-286.1668 273.0352,-293.0314 324,-300 338.2534,-301.9489 353.7321,-304.2579 367.813,-306.4328"/>
<polygon fill="#191970" stroke="#191970" points="174.2031,-278.0716 163.8742,-280.4306 173.4198,-285.0276 174.2031,-278.0716"/>
</g>
</g>
</svg>
