<?xml version="1.0" encoding="UTF-8" standalone="no"?>
<!DOCTYPE svg PUBLIC "-//W3C//DTD SVG 1.1//EN"
 "http://www.w3.org/Graphics/SVG/1.1/DTD/svg11.dtd">
<!-- Generated by graphviz version 2.40.1 (20161225.0304)
 -->
<!-- Title: bf_set_nan Pages: 1 -->
<svg width="578pt" height="1156pt"
 viewBox="0.00 0.00 578.00 1156.38" xmlns="http://www.w3.org/2000/svg" xmlns:xlink="http://www.w3.org/1999/xlink">
<g id="graph0" class="graph" transform="scale(1 1) rotate(0) translate(4 1152.3799)">
<title>bf_set_nan</title>
<!-- Node723 -->
<g id="node1" class="node">
<title>Node723</title>
<polygon fill="#bfbfbf" stroke="#000000" points="0,-509.5 0,-528.5 70,-528.5 70,-509.5 0,-509.5"/>
<text text-anchor="middle" x="35" y="-516.5" font-family="Helvetica,sans-Serif" font-size="10.00" fill="#000000">bf_set_nan</text>
</g>
<!-- Node724 -->
<g id="node2" class="node">
<title>Node724</title>
<g id="a_node2"><a xlink:href="libbf_8c.html#ad7a540de8355f07757e52b48d35dd708" target="_top" xlink:title="__bf_div">
<polygon fill="none" stroke="#000000" points="124.5,-1026.5 124.5,-1045.5 181.5,-1045.5 181.5,-1026.5 124.5,-1026.5"/>
<text text-anchor="middle" x="153" y="-1033.5" font-family="Helvetica,sans-Serif" font-size="10.00" fill="#000000">__bf_div</text>
</a>
</g>
</g>
<!-- Node723&#45;&gt;Node724 -->
<g id="edge1" class="edge">
<title>Node723&#45;&gt;Node724</title>
<path fill="none" stroke="#191970" d="M36.8045,-538.9533C43.964,-615.911 71.6575,-893.1601 106,-974 114.8726,-994.8855 132.3411,-1015.0599 143.3023,-1026.462"/>
<polygon fill="#191970" stroke="#191970" points="40.2663,-538.3764 35.8661,-528.7386 33.2957,-539.0169 40.2663,-538.3764"/>
</g>
<!-- Node727 -->
<g id="node5" class="node">
<title>Node727</title>
<g id="a_node5"><a xlink:href="libbf_8h.html#a951ec20cd7fa3bf021d165b213e15ce4" target="_top" xlink:title="bf_divrem">
<polygon fill="none" stroke="#ff0000" points="504,-950.5 504,-969.5 570,-969.5 570,-950.5 504,-950.5"/>
<text text-anchor="middle" x="537" y="-957.5" font-family="Helvetica,sans-Serif" font-size="10.00" fill="#000000">bf_divrem</text>
</a>
</g>
</g>
<!-- Node723&#45;&gt;Node727 -->
<g id="edge15" class="edge">
<title>Node723&#45;&gt;Node727</title>
<path fill="none" stroke="#191970" d="M36.0381,-538.9376C41.2841,-636.1733 66.2023,-1057.6462 106,-1099 175.3365,-1171.0477 235.1025,-1151.5101 330,-1120 421.3873,-1089.6554 503.3731,-999.8425 528.8561,-969.8657"/>
<polygon fill="#191970" stroke="#191970" points="39.5217,-538.5345 35.4962,-528.7342 32.5316,-538.9058 39.5217,-538.5345"/>
</g>
<!-- Node767 -->
<g id="node6" class="node">
<title>Node767</title>
<g id="a_node6"><a xlink:href="libbf_8h.html#a45cd74dd3a694c26e716762b7fd36955" target="_top" xlink:title="bf_acos">
<polygon fill="none" stroke="#000000" points="256,-1026.5 256,-1045.5 310,-1045.5 310,-1026.5 256,-1026.5"/>
<text text-anchor="middle" x="283" y="-1033.5" font-family="Helvetica,sans-Serif" font-size="10.00" fill="#000000">bf_acos</text>
</a>
</g>
</g>
<!-- Node723&#45;&gt;Node767 -->
<g id="edge5" class="edge">
<title>Node723&#45;&gt;Node767</title>
<path fill="none" stroke="#191970" d="M37.5001,-538.6194C45.9285,-602.9119 74.5394,-806.4141 106,-864 147.4972,-939.957 233.7103,-1003.1349 268.2351,-1026.4084"/>
<polygon fill="#191970" stroke="#191970" points="40.9588,-538.0739 36.204,-528.606 34.0167,-538.9726 40.9588,-538.0739"/>
</g>
<!-- Node769 -->
<g id="node7" class="node">
<title>Node769</title>
<g id="a_node7"><a xlink:href="libbf_8c.html#aaebd1df91497246cd81f23918af58d33" target="_top" xlink:title="bf_add_internal">
<polygon fill="none" stroke="#000000" points="237,-532.5 237,-551.5 329,-551.5 329,-532.5 237,-532.5"/>
<text text-anchor="middle" x="283" y="-539.5" font-family="Helvetica,sans-Serif" font-size="10.00" fill="#000000">bf_add_internal</text>
</a>
</g>
</g>
<!-- Node723&#45;&gt;Node769 -->
<g id="edge6" class="edge">
<title>Node723&#45;&gt;Node769</title>
<path fill="none" stroke="#191970" d="M80.2182,-523.1936C124.6201,-527.3115 192.0256,-533.5629 236.7722,-537.7127"/>
<polygon fill="#191970" stroke="#191970" points="80.2869,-519.6851 70.0063,-522.2466 79.6404,-526.6551 80.2869,-519.6851"/>
</g>
<!-- Node766 -->
<g id="node10" class="node">
<title>Node766</title>
<g id="a_node10"><a xlink:href="libbf_8h.html#a8ee86879e3da22442956f47356855edd" target="_top" xlink:title="bf_asin">
<polygon fill="none" stroke="#000000" points="257,-722.5 257,-741.5 309,-741.5 309,-722.5 257,-722.5"/>
<text text-anchor="middle" x="283" y="-729.5" font-family="Helvetica,sans-Serif" font-size="10.00" fill="#000000">bf_asin</text>
</a>
</g>
</g>
<!-- Node723&#45;&gt;Node766 -->
<g id="edge9" class="edge">
<title>Node723&#45;&gt;Node766</title>
<path fill="none" stroke="#191970" d="M42.4457,-537.7941C53.2895,-563.2698 75.5088,-609.0163 106,-639 150.4274,-682.688 219.573,-710.8331 256.9309,-723.753"/>
<polygon fill="#191970" stroke="#191970" points="45.6667,-536.4241 38.6195,-528.5128 39.195,-539.092 45.6667,-536.4241"/>
</g>
<!-- Node762 -->
<g id="node11" class="node">
<title>Node762</title>
<g id="a_node11"><a xlink:href="libbf_8h.html#a0bb2c5b98e3f978b84df9849c7ec50d6" target="_top" xlink:title="bf_atan">
<polygon fill="none" stroke="#000000" points="256.5,-684.5 256.5,-703.5 309.5,-703.5 309.5,-684.5 256.5,-684.5"/>
<text text-anchor="middle" x="283" y="-691.5" font-family="Helvetica,sans-Serif" font-size="10.00" fill="#000000">bf_atan</text>
</a>
</g>
</g>
<!-- Node723&#45;&gt;Node762 -->
<g id="edge10" class="edge">
<title>Node723&#45;&gt;Node762</title>
<path fill="none" stroke="#191970" d="M48.6962,-536.7684C62.0984,-553.3974 83.6979,-578.2692 106,-596 156.3148,-636.0017 225.1425,-668.8916 260.3044,-684.3965"/>
<polygon fill="#191970" stroke="#191970" points="51.4243,-534.5757 42.4746,-528.9053 45.9349,-538.9192 51.4243,-534.5757"/>
</g>
<!-- Node763 -->
<g id="node12" class="node">
<title>Node763</title>
<g id="a_node12"><a xlink:href="libbf_8c.html#af760cf2a93bf130e8e44a62c7e7d0adf" target="_top" xlink:title="bf_atan2_internal">
<polygon fill="none" stroke="#ff0000" points="366,-988.5 366,-1007.5 468,-1007.5 468,-988.5 366,-988.5"/>
<text text-anchor="middle" x="417" y="-995.5" font-family="Helvetica,sans-Serif" font-size="10.00" fill="#000000">bf_atan2_internal</text>
</a>
</g>
</g>
<!-- Node723&#45;&gt;Node763 -->
<g id="edge12" class="edge">
<title>Node723&#45;&gt;Node763</title>
<path fill="none" stroke="#191970" d="M36.369,-539.0585C42.8581,-631.65 71.6385,-1014.9463 106,-1055 171.7483,-1131.6401 237.5797,-1133.6821 330,-1093 370.5284,-1075.16 400.4083,-1028.0867 411.8673,-1007.6724"/>
<polygon fill="#191970" stroke="#191970" points="39.8428,-538.5572 35.6601,-528.823 32.8595,-539.041 39.8428,-538.5572"/>
</g>
<!-- Node738 -->
<g id="node13" class="node">
<title>Node738</title>
<g id="a_node13"><a xlink:href="libbf_8c.html#aaaeb6c790a8b174f3c5631ee33c81910" target="_top" xlink:title="bf_atof_internal">
<polygon fill="none" stroke="#ff0000" points="236,-342.5 236,-361.5 330,-361.5 330,-342.5 236,-342.5"/>
<text text-anchor="middle" x="283" y="-349.5" font-family="Helvetica,sans-Serif" font-size="10.00" fill="#000000">bf_atof_internal</text>
</a>
</g>
</g>
<!-- Node723&#45;&gt;Node738 -->
<g id="edge13" class="edge">
<title>Node723&#45;&gt;Node738</title>
<path fill="none" stroke="#191970" d="M45.7119,-500.6127C58.0802,-480.7247 80.0837,-449.1661 106,-429 149.5062,-395.1468 210.1846,-373.0064 248.0023,-361.5043"/>
<polygon fill="#191970" stroke="#191970" points="42.6161,-498.9686 40.4393,-509.3374 48.607,-502.5892 42.6161,-498.9686"/>
</g>
<!-- Node732 -->
<g id="node14" class="node">
<title>Node732</title>
<g id="a_node14"><a xlink:href="libbf_8h.html#a69ea68a6b21d496bd89afeaa9c067ebe" target="_top" xlink:title="bf_cos">
<polygon fill="none" stroke="#000000" points="259,-798.5 259,-817.5 307,-817.5 307,-798.5 259,-798.5"/>
<text text-anchor="middle" x="283" y="-805.5" font-family="Helvetica,sans-Serif" font-size="10.00" fill="#000000">bf_cos</text>
</a>
</g>
</g>
<!-- Node723&#45;&gt;Node732 -->
<g id="edge14" class="edge">
<title>Node723&#45;&gt;Node732</title>
<path fill="none" stroke="#191970" d="M36.7276,-538.5338C41.2182,-578.436 56.5944,-670.2319 106,-726 147.4342,-772.7702 221.081,-794.7174 258.9875,-803.3286"/>
<polygon fill="#191970" stroke="#191970" points="40.2036,-538.1187 35.712,-528.5231 33.2393,-538.8253 40.2036,-538.1187"/>
</g>
<!-- Node752 -->
<g id="node15" class="node">
<title>Node752</title>
<g id="a_node15"><a xlink:href="libbf_8h.html#a36f22f93ba4258209be035a63b80b87f" target="_top" xlink:title="bf_exp">
<polygon fill="none" stroke="#000000" points="258,-760.5 258,-779.5 308,-779.5 308,-760.5 258,-760.5"/>
<text text-anchor="middle" x="283" y="-767.5" font-family="Helvetica,sans-Serif" font-size="10.00" fill="#000000">bf_exp</text>
</a>
</g>
</g>
<!-- Node723&#45;&gt;Node752 -->
<g id="edge16" class="edge">
<title>Node723&#45;&gt;Node752</title>
<path fill="none" stroke="#191970" d="M39.0513,-538.4982C46.8153,-571.6334 66.6277,-639.4663 106,-682 148.4281,-727.8349 219.9902,-752.9764 257.8169,-763.6814"/>
<polygon fill="#191970" stroke="#191970" points="42.4551,-537.6807 36.8694,-528.678 35.6218,-539.1991 42.4551,-537.6807"/>
</g>
<!-- Node757 -->
<g id="node16" class="node">
<title>Node757</title>
<g id="a_node16"><a xlink:href="libbf_8h.html#a4137b2308536cbc92addaeb3f0c79d35" target="_top" xlink:title="bf_log">
<polygon fill="none" stroke="#000000" points="259.5,-570.5 259.5,-589.5 306.5,-589.5 306.5,-570.5 259.5,-570.5"/>
<text text-anchor="middle" x="283" y="-577.5" font-family="Helvetica,sans-Serif" font-size="10.00" fill="#000000">bf_log</text>
</a>
</g>
</g>
<!-- Node723&#45;&gt;Node757 -->
<g id="edge17" class="edge">
<title>Node723&#45;&gt;Node757</title>
<path fill="none" stroke="#191970" d="M70.2853,-531.8573C81.604,-535.7306 94.2513,-539.7987 106,-543 160.2175,-557.7731 225.1517,-569.9765 259.3087,-575.9811"/>
<polygon fill="#191970" stroke="#191970" points="71.3312,-528.5155 60.7364,-528.5303 69.0281,-535.1257 71.3312,-528.5155"/>
</g>
<!-- Node753 -->
<g id="node17" class="node">
<title>Node753</title>
<g id="a_node17"><a xlink:href="libbf_8c.html#aa28c1603087e2aec25b9bb0dae387875" target="_top" xlink:title="bf_pow_generic">
<polygon fill="none" stroke="#000000" points="370.5,-380.5 370.5,-399.5 463.5,-399.5 463.5,-380.5 370.5,-380.5"/>
<text text-anchor="middle" x="417" y="-387.5" font-family="Helvetica,sans-Serif" font-size="10.00" fill="#000000">bf_pow_generic</text>
</a>
</g>
</g>
<!-- Node723&#45;&gt;Node753 -->
<g id="edge28" class="edge">
<title>Node723&#45;&gt;Node753</title>
<path fill="none" stroke="#191970" d="M36.6637,-498.9285C42.1889,-437.6712 62.1223,-255.0977 106,-219 144.4504,-187.3673 287.7057,-187.7273 330,-214 391.9603,-252.4889 411.1256,-349.6165 415.7464,-380.4505"/>
<polygon fill="#191970" stroke="#191970" points="33.151,-498.9236 35.7724,-509.189 40.1247,-499.5294 33.151,-498.9236"/>
</g>
<!-- Node754 -->
<g id="node18" class="node">
<title>Node754</title>
<g id="a_node18"><a xlink:href="libbf_8h.html#a93fe073491f8c5f086a75e7bf8865b34" target="_top" xlink:title="bf_pow">
<polygon fill="none" stroke="#000000" points="511,-456.5 511,-475.5 563,-475.5 563,-456.5 511,-456.5"/>
<text text-anchor="middle" x="537" y="-463.5" font-family="Helvetica,sans-Serif" font-size="10.00" fill="#000000">bf_pow</text>
</a>
</g>
</g>
<!-- Node723&#45;&gt;Node754 -->
<g id="edge27" class="edge">
<title>Node723&#45;&gt;Node754</title>
<path fill="none" stroke="#191970" d="M36.1634,-499.1473C40.4161,-434.2738 57.4903,-230.4416 106,-191 183.2459,-128.1941 240.7786,-145.8294 330,-190 449.7019,-249.2604 517.9331,-414.7081 533.5349,-456.3778"/>
<polygon fill="#191970" stroke="#191970" points="32.6618,-499.0654 35.532,-509.2641 39.6482,-499.5015 32.6618,-499.0654"/>
</g>
<!-- Node775 -->
<g id="node19" class="node">
<title>Node775</title>
<g id="a_node19"><a xlink:href="libbf_8c.html#ad7d8e39c51ec431bcd496bb37382ae94" target="_top" xlink:title="bf_logic_op">
<polygon fill="none" stroke="#ff0000" points="117,-76.5 117,-95.5 189,-95.5 189,-76.5 117,-76.5"/>
<text text-anchor="middle" x="153" y="-83.5" font-family="Helvetica,sans-Serif" font-size="10.00" fill="#000000">bf_logic_op</text>
</a>
</g>
</g>
<!-- Node723&#45;&gt;Node775 -->
<g id="edge21" class="edge">
<title>Node723&#45;&gt;Node775</title>
<path fill="none" stroke="#191970" d="M35.8913,-499.245C39.5887,-425.4655 55.9461,-167.1211 106,-105 109.0924,-101.1621 113.0808,-98.0941 117.4254,-95.6429"/>
<polygon fill="#191970" stroke="#191970" points="32.3854,-499.2873 35.4034,-509.4432 39.3774,-499.6219 32.3854,-499.2873"/>
</g>
<!-- Node787 -->
<g id="node20" class="node">
<title>Node787</title>
<g id="a_node20"><a xlink:href="libbf_8h.html#ac290278d0c37a0e7786873f98aadba47" target="_top" xlink:title="bf_mul">
<polygon fill="none" stroke="#ff0000" points="258,-608.5 258,-627.5 308,-627.5 308,-608.5 258,-608.5"/>
<text text-anchor="middle" x="283" y="-615.5" font-family="Helvetica,sans-Serif" font-size="10.00" fill="#000000">bf_mul</text>
</a>
</g>
</g>
<!-- Node723&#45;&gt;Node787 -->
<g id="edge22" class="edge">
<title>Node723&#45;&gt;Node787</title>
<path fill="none" stroke="#191970" d="M55.0419,-535.0624C68.7303,-545.3827 87.6474,-558.4158 106,-567 157.4169,-591.0496 222.6252,-606.2673 257.7817,-613.3386"/>
<polygon fill="#191970" stroke="#191970" points="56.9148,-532.0867 46.8603,-528.7463 52.6372,-537.6277 56.9148,-532.0867"/>
</g>
<!-- Node772 -->
<g id="node21" class="node">
<title>Node772</title>
<g id="a_node21"><a xlink:href="libbf_8h.html#ae080fd42a2c7fc561d7084762204357e" target="_top" xlink:title="bf_sqrtrem">
<polygon fill="none" stroke="#ff0000" points="382,-418.5 382,-437.5 452,-437.5 452,-418.5 382,-418.5"/>
<text text-anchor="middle" x="417" y="-425.5" font-family="Helvetica,sans-Serif" font-size="10.00" fill="#000000">bf_sqrtrem</text>
</a>
</g>
</g>
<!-- Node723&#45;&gt;Node772 -->
<g id="edge59" class="edge">
<title>Node723&#45;&gt;Node772</title>
<path fill="none" stroke="#191970" d="M38.049,-499.3908C46.5397,-447.3861 72.0787,-307.8851 106,-278 181.0277,-211.8996 251.5694,-194.9753 330,-257 384.4543,-300.0637 320.0471,-356.9607 366,-409 370.2528,-413.8161 375.8447,-417.4143 381.7643,-420.1017"/>
<polygon fill="#191970" stroke="#191970" points="34.5798,-498.9203 36.4588,-509.3472 41.4922,-500.0244 34.5798,-498.9203"/>
</g>
<!-- Node792 -->
<g id="node23" class="node">
<title>Node792</title>
<g id="a_node23"><a xlink:href="libbf_8h.html#ae019ee8073f4359da157d3b1e5fdba7e" target="_top" xlink:title="bf_set">
<polygon fill="none" stroke="#ff0000" points="129.5,-490.5 129.5,-509.5 176.5,-509.5 176.5,-490.5 129.5,-490.5"/>
<text text-anchor="middle" x="153" y="-497.5" font-family="Helvetica,sans-Serif" font-size="10.00" fill="#000000">bf_set</text>
</a>
</g>
</g>
<!-- Node723&#45;&gt;Node792 -->
<g id="edge29" class="edge">
<title>Node723&#45;&gt;Node792</title>
<path fill="none" stroke="#191970" d="M80.2694,-511.7109C97.0361,-509.0111 115.3691,-506.0592 129.4344,-503.7945"/>
<polygon fill="#191970" stroke="#191970" points="79.4008,-508.3055 70.0844,-513.3508 80.5137,-515.2165 79.4008,-508.3055"/>
</g>
<!-- Node793 -->
<g id="node24" class="node">
<title>Node793</title>
<g id="a_node24"><a xlink:href="libbf_8h.html#a1a8b9ac1fea38b97fc6be8663ce9e867" target="_top" xlink:title="bf_sqrt">
<polygon fill="none" stroke="#ff0000" points="258,-380.5 258,-399.5 308,-399.5 308,-380.5 258,-380.5"/>
<text text-anchor="middle" x="283" y="-387.5" font-family="Helvetica,sans-Serif" font-size="10.00" fill="#000000">bf_sqrt</text>
</a>
</g>
</g>
<!-- Node723&#45;&gt;Node793 -->
<g id="edge58" class="edge">
<title>Node723&#45;&gt;Node793</title>
<path fill="none" stroke="#191970" d="M61.8188,-504.5117C75.0853,-497.3791 91.3552,-488.683 106,-481 163.3703,-450.9023 231.6523,-416.0768 264.0862,-399.5947"/>
<polygon fill="#191970" stroke="#191970" points="59.9008,-501.5692 52.7557,-509.3921 63.2197,-507.7324 59.9008,-501.5692"/>
</g>
<!-- Node734 -->
<g id="node25" class="node">
<title>Node734</title>
<g id="a_node25"><a xlink:href="libbf_8h.html#a9a518cd74072443dc50e179d2a9ea610" target="_top" xlink:title="bf_sin">
<polygon fill="none" stroke="#000000" points="260,-304.5 260,-323.5 306,-323.5 306,-304.5 260,-304.5"/>
<text text-anchor="middle" x="283" y="-311.5" font-family="Helvetica,sans-Serif" font-size="10.00" fill="#000000">bf_sin</text>
</a>
</g>
</g>
<!-- Node723&#45;&gt;Node734 -->
<g id="edge57" class="edge">
<title>Node723&#45;&gt;Node734</title>
<path fill="none" stroke="#191970" d="M39.5105,-499.4619C47.5987,-468.696 67.4446,-408.9731 106,-375 150.9929,-335.3545 223.0689,-321.1701 259.8203,-316.3394"/>
<polygon fill="#191970" stroke="#191970" points="36.0596,-498.8367 37.0498,-509.3852 42.8538,-500.5216 36.0596,-498.8367"/>
</g>
<!-- Node736 -->
<g id="node26" class="node">
<title>Node736</title>
<g id="a_node26"><a xlink:href="libbf_8h.html#a3291f57ed40cdf116203afa57f73e91e" target="_top" xlink:title="bf_tan">
<polygon fill="none" stroke="#000000" points="259.5,-266.5 259.5,-285.5 306.5,-285.5 306.5,-266.5 259.5,-266.5"/>
<text text-anchor="middle" x="283" y="-273.5" font-family="Helvetica,sans-Serif" font-size="10.00" fill="#000000">bf_tan</text>
</a>
</g>
</g>
<!-- Node723&#45;&gt;Node736 -->
<g id="edge60" class="edge">
<title>Node723&#45;&gt;Node736</title>
<path fill="none" stroke="#191970" d="M36.3747,-499.0213C40.1856,-459.5922 54.3313,-371.4837 106,-324 149.2523,-284.251 222.0966,-276.8646 259.413,-275.8393"/>
<polygon fill="#191970" stroke="#191970" points="32.87,-498.9313 35.5221,-509.1889 39.8455,-499.5163 32.87,-498.9313"/>
</g>
<!-- Node808 -->
<g id="node27" class="node">
<title>Node808</title>
<g id="a_node27"><a xlink:href="libbf_8h.html#a2c81bf1a3853096401bd9fe830263e23" target="_top" xlink:title="bf_set_float64">
<polygon fill="none" stroke="#000000" points="110,-38.5 110,-57.5 196,-57.5 196,-38.5 110,-38.5"/>
<text text-anchor="middle" x="153" y="-45.5" font-family="Helvetica,sans-Serif" font-size="10.00" fill="#000000">bf_set_float64</text>
</a>
</g>
</g>
<!-- Node723&#45;&gt;Node808 -->
<g id="edge42" class="edge">
<title>Node723&#45;&gt;Node808</title>
<path fill="none" stroke="#191970" d="M35.5861,-498.9679C38.2567,-420.5654 51.6078,-135.4837 106,-67 109.0653,-63.1405 113.0386,-60.0604 117.3759,-57.6033"/>
<polygon fill="#191970" stroke="#191970" points="32.0756,-499.2446 35.2551,-509.351 39.072,-499.4676 32.0756,-499.2446"/>
</g>
<!-- Node809 -->
<g id="node28" class="node">
<title>Node809</title>
<g id="a_node28"><a xlink:href="libbf_8c.html#af464f3c1421a7305372819f949667273" target="_top" xlink:title="bf_set_overflow">
<polygon fill="none" stroke="#ff0000" points="106,-114.5 106,-133.5 200,-133.5 200,-114.5 106,-114.5"/>
<text text-anchor="middle" x="153" y="-121.5" font-family="Helvetica,sans-Serif" font-size="10.00" fill="#000000">bf_set_overflow</text>
</a>
</g>
</g>
<!-- Node723&#45;&gt;Node809 -->
<g id="edge43" class="edge">
<title>Node723&#45;&gt;Node809</title>
<path fill="none" stroke="#191970" d="M36.5075,-499.2607C42.0737,-430.8157 63.3897,-204.7687 106,-148 110.62,-141.8449 117.2684,-137.1451 124.1167,-133.6082"/>
<polygon fill="#191970" stroke="#191970" points="32.9976,-499.2491 35.6985,-509.4939 39.9758,-499.8009 32.9976,-499.2491"/>
</g>
<!-- Node816 -->
<g id="node29" class="node">
<title>Node816</title>
<g id="a_node29"><a xlink:href="libbf_8h.html#a2378f025beace5741c19bf995c2971d3" target="_top" xlink:title="bf_set_ui">
<polygon fill="none" stroke="#ff0000" points="122.5,-835.5 122.5,-854.5 183.5,-854.5 183.5,-835.5 122.5,-835.5"/>
<text text-anchor="middle" x="153" y="-842.5" font-family="Helvetica,sans-Serif" font-size="10.00" fill="#000000">bf_set_ui</text>
</a>
</g>
</g>
<!-- Node723&#45;&gt;Node816 -->
<g id="edge45" class="edge">
<title>Node723&#45;&gt;Node816</title>
<path fill="none" stroke="#191970" d="M37.55,-538.6633C45.5606,-597.9796 71.738,-773.8321 106,-819 111.2974,-825.9837 119.0414,-831.3442 126.721,-835.332"/>
<polygon fill="#191970" stroke="#191970" points="41.0148,-538.1659 36.2303,-528.713 34.0756,-539.0864 41.0148,-538.1659"/>
</g>
<!-- Node818 -->
<g id="node30" class="node">
<title>Node818</title>
<g id="a_node30"><a xlink:href="libbf_8h.html#a432cfe0b33bf61782ef53b643aeb1e0f" target="_top" xlink:title="bfdec_set_nan">
<polygon fill="none" stroke="#ff0000" points="109.5,-.5 109.5,-19.5 196.5,-19.5 196.5,-.5 109.5,-.5"/>
<text text-anchor="middle" x="153" y="-7.5" font-family="Helvetica,sans-Serif" font-size="10.00" fill="#000000">bfdec_set_nan</text>
</a>
</g>
</g>
<!-- Node723&#45;&gt;Node818 -->
<g id="edge61" class="edge">
<title>Node723&#45;&gt;Node818</title>
<path fill="none" stroke="#191970" d="M35.3169,-498.8954C36.9995,-416.3025 47.2105,-103.9321 106,-29 109.0423,-25.1223 113.0026,-22.0319 117.3338,-19.57"/>
<polygon fill="#191970" stroke="#191970" points="31.8091,-499.296 35.1257,-509.3583 38.8079,-499.4239 31.8091,-499.296"/>
</g>
<!-- Node725 -->
<g id="node3" class="node">
<title>Node725</title>
<g id="a_node3"><a xlink:href="libbf_8h.html#a030665e68e114717678fb0d0453bb3c6" target="_top" xlink:title="bf_div">
<polygon fill="none" stroke="#ff0000" points="259.5,-1064.5 259.5,-1083.5 306.5,-1083.5 306.5,-1064.5 259.5,-1064.5"/>
<text text-anchor="middle" x="283" y="-1071.5" font-family="Helvetica,sans-Serif" font-size="10.00" fill="#000000">bf_div</text>
</a>
</g>
</g>
<!-- Node724&#45;&gt;Node725 -->
<g id="edge2" class="edge">
<title>Node724&#45;&gt;Node725</title>
<path fill="none" stroke="#191970" d="M191.2636,-1047.1848C213.3137,-1053.6302 240.3351,-1061.5287 259.3213,-1067.0785"/>
<polygon fill="#191970" stroke="#191970" points="192.1094,-1043.7856 181.5291,-1044.3393 190.1454,-1050.5044 192.1094,-1043.7856"/>
</g>
<!-- Node726 -->
<g id="node4" class="node">
<title>Node726</title>
<g id="a_node4"><a xlink:href="libbf_8c.html#a4f1865c8160fb851cce8015c3edb4d4f" target="_top" xlink:title="bf_tdivremu">
<polygon fill="none" stroke="#000000" points="379,-950.5 379,-969.5 455,-969.5 455,-950.5 379,-950.5"/>
<text text-anchor="middle" x="417" y="-957.5" font-family="Helvetica,sans-Serif" font-size="10.00" fill="#000000">bf_tdivremu</text>
</a>
</g>
</g>
<!-- Node725&#45;&gt;Node726 -->
<g id="edge3" class="edge">
<title>Node725&#45;&gt;Node726</title>
<path fill="none" stroke="#191970" d="M316.4837,-1064.1276C321.3918,-1061.6853 326.0989,-1058.6804 330,-1055 357.1864,-1029.3517 338.4629,-1004.2714 366,-979 370.1769,-975.1668 375.1973,-972.0867 380.4365,-969.6173"/>
<polygon fill="#191970" stroke="#191970" points="314.8006,-1061.0394 306.9562,-1068.1608 317.5295,-1067.4856 314.8006,-1061.0394"/>
</g>
<!-- Node726&#45;&gt;Node727 -->
<g id="edge4" class="edge">
<title>Node726&#45;&gt;Node727</title>
<path fill="none" stroke="#191970" d="M465.4505,-960C478.3673,-960 492.0263,-960 503.9092,-960"/>
<polygon fill="#191970" stroke="#191970" points="465.2987,-956.5001 455.2987,-960 465.2986,-963.5001 465.2987,-956.5001"/>
</g>
<!-- Node770 -->
<g id="node8" class="node">
<title>Node770</title>
<g id="a_node8"><a xlink:href="libbf_8c.html#a951a1d3ebb338129d86e00f51b47f2ee" target="_top" xlink:title="__bf_add">
<polygon fill="none" stroke="#ff0000" points="387,-570.5 387,-589.5 447,-589.5 447,-570.5 387,-570.5"/>
<text text-anchor="middle" x="417" y="-577.5" font-family="Helvetica,sans-Serif" font-size="10.00" fill="#000000">__bf_add</text>
</a>
</g>
</g>
<!-- Node769&#45;&gt;Node770 -->
<g id="edge7" class="edge">
<title>Node769&#45;&gt;Node770</title>
<path fill="none" stroke="#191970" d="M326.5044,-554.3371C346.2265,-559.9299 369.0585,-566.4047 386.8547,-571.4513"/>
<polygon fill="#191970" stroke="#191970" points="327.3894,-550.9501 316.8139,-551.589 325.4796,-557.6845 327.3894,-550.9501"/>
</g>
<!-- Node785 -->
<g id="node9" class="node">
<title>Node785</title>
<g id="a_node9"><a xlink:href="libbf_8c.html#aa3b3bc85aee9c531439d5fbc92986dfe" target="_top" xlink:title="__bf_sub">
<polygon fill="none" stroke="#ff0000" points="387.5,-532.5 387.5,-551.5 446.5,-551.5 446.5,-532.5 387.5,-532.5"/>
<text text-anchor="middle" x="417" y="-539.5" font-family="Helvetica,sans-Serif" font-size="10.00" fill="#000000">__bf_sub</text>
</a>
</g>
</g>
<!-- Node769&#45;&gt;Node785 -->
<g id="edge8" class="edge">
<title>Node769&#45;&gt;Node785</title>
<path fill="none" stroke="#191970" d="M339.2194,-542C355.692,-542 373.0573,-542 387.1909,-542"/>
<polygon fill="#191970" stroke="#191970" points="339.1152,-538.5001 329.1152,-542 339.1152,-545.5001 339.1152,-538.5001"/>
</g>
<!-- Node762&#45;&gt;Node763 -->
<g id="edge11" class="edge">
<title>Node762&#45;&gt;Node763</title>
<path fill="none" stroke="#191970" d="M318.743,-703.5687C323.0523,-706.0305 326.986,-709.1211 330,-713 403.1989,-807.2041 291.5104,-885.8131 366,-979 369.0678,-982.8378 372.9936,-985.9005 377.3022,-988.3445"/>
<polygon fill="#191970" stroke="#191970" points="320.0933,-700.3375 309.5448,-699.3479 317.1738,-706.6996 320.0933,-700.3375"/>
</g>
<!-- Node757&#45;&gt;Node753 -->
<g id="edge18" class="edge">
<title>Node757&#45;&gt;Node753</title>
<path fill="none" stroke="#191970" d="M316.2243,-571.3003C321.4082,-568.7009 326.2728,-565.34 330,-561 375.2317,-508.3327 320.0471,-461.0393 366,-409 369.4398,-405.1046 373.7556,-402.006 378.4122,-399.5416"/>
<polygon fill="#191970" stroke="#191970" points="314.6442,-568.1655 306.7247,-575.2035 317.3046,-574.6403 314.6442,-568.1655"/>
</g>
<!-- Node757&#45;&gt;Node754 -->
<g id="edge20" class="edge">
<title>Node757&#45;&gt;Node754</title>
<path fill="none" stroke="#191970" d="M316.5744,-589.4948C331.5651,-593.2633 349.53,-597.1389 366,-599 411.0467,-604.0901 429.2604,-622.5447 468,-599 514.0144,-571.0339 530.7287,-501.3357 535.4414,-475.6789"/>
<polygon fill="#191970" stroke="#191970" points="317.2856,-586.0633 306.7262,-586.929 315.5207,-592.8372 317.2856,-586.0633"/>
</g>
<!-- Node753&#45;&gt;Node754 -->
<g id="edge19" class="edge">
<title>Node753&#45;&gt;Node754</title>
<path fill="none" stroke="#191970" d="M457.0979,-403.4611C460.862,-405.162 464.5542,-407.0108 468,-409 491.4148,-422.5165 514.8764,-443.9916 527.5041,-456.3623"/>
<polygon fill="#191970" stroke="#191970" points="458.269,-400.1575 447.692,-399.5424 455.5768,-406.6191 458.269,-400.1575"/>
</g>
<!-- Node787&#45;&gt;Node726 -->
<g id="edge23" class="edge">
<title>Node787&#45;&gt;Node726</title>
<path fill="none" stroke="#191970" d="M317.2723,-630.8158C322.1009,-633.8608 326.5766,-637.5535 330,-642 376.054,-701.818 345.9625,-735.215 366,-808 380.9975,-862.4777 404.2787,-926.1347 413.2757,-950.1576"/>
<polygon fill="#191970" stroke="#191970" points="318.815,-627.6714 308.351,-626.0114 315.4959,-633.8345 318.815,-627.6714"/>
</g>
<!-- Node787&#45;&gt;Node754 -->
<g id="edge26" class="edge">
<title>Node787&#45;&gt;Node754</title>
<path fill="none" stroke="#191970" d="M317.8801,-628.4593C357.59,-638.1531 422.7955,-647.1236 468,-618 519.1607,-585.039 532.8168,-503.8719 536.0727,-475.7667"/>
<polygon fill="#191970" stroke="#191970" points="318.6774,-625.0504 308.1196,-625.936 316.9253,-631.8276 318.6774,-625.0504"/>
</g>
<!-- Node787&#45;&gt;Node772 -->
<g id="edge24" class="edge">
<title>Node787&#45;&gt;Node772</title>
<path fill="none" stroke="#191970" d="M317.7174,-607.4994C322.1779,-605.1751 326.427,-602.3709 330,-599 357.1864,-573.3517 349.1555,-556.3646 366,-523 381.945,-491.4171 402.1442,-454.6877 411.6251,-437.6255"/>
<polygon fill="#191970" stroke="#191970" points="316.1368,-604.3716 308.4136,-611.6243 318.974,-610.7708 316.1368,-604.3716"/>
</g>
<!-- Node788 -->
<g id="node22" class="node">
<title>Node788</title>
<g id="a_node22"><a xlink:href="libbf_8h.html#acee0d550162528b5ca5513d4479549c2" target="_top" xlink:title="bf_mul_ui">
<polygon fill="none" stroke="#ff0000" points="384.5,-779.5 384.5,-798.5 449.5,-798.5 449.5,-779.5 384.5,-779.5"/>
<text text-anchor="middle" x="417" y="-786.5" font-family="Helvetica,sans-Serif" font-size="10.00" fill="#000000">bf_mul_ui</text>
</a>
</g>
</g>
<!-- Node787&#45;&gt;Node788 -->
<g id="edge25" class="edge">
<title>Node787&#45;&gt;Node788</title>
<path fill="none" stroke="#191970" d="M317.0799,-632.4368C321.7091,-635.2193 326.1753,-638.4064 330,-642 374.5213,-683.8316 403.7255,-753.5262 413.4351,-779.1549"/>
<polygon fill="#191970" stroke="#191970" points="318.5642,-629.2606 308.1028,-627.5841 315.2354,-635.4185 318.5642,-629.2606"/>
</g>
<!-- Node792&#45;&gt;Node726 -->
<g id="edge31" class="edge">
<title>Node792&#45;&gt;Node726</title>
<path fill="none" stroke="#191970" d="M162.6093,-519.0434C179.7881,-552.4845 215.8483,-619.8489 236,-637 270.3162,-666.2065 300.1012,-641.2853 330,-675 370.6315,-720.8171 348.2523,-749.3899 366,-808 382.4564,-862.3458 405.0709,-926.5995 413.5791,-950.4602"/>
<polygon fill="#191970" stroke="#191970" points="165.5818,-517.1678 157.9227,-509.8474 159.345,-520.3463 165.5818,-517.1678"/>
</g>
<!-- Node792&#45;&gt;Node727 -->
<g id="edge32" class="edge">
<title>Node792&#45;&gt;Node727</title>
<path fill="none" stroke="#191970" d="M186.6994,-497.4349C259.4303,-492.6697 427.7995,-486.0315 468,-523 500.8619,-553.2199 530.9467,-889.0002 536.1932,-950.3927"/>
<polygon fill="#191970" stroke="#191970" points="186.4272,-493.9453 176.6891,-498.119 186.9045,-500.929 186.4272,-493.9453"/>
</g>
<!-- Node792&#45;&gt;Node769 -->
<g id="edge30" class="edge">
<title>Node792&#45;&gt;Node769</title>
<path fill="none" stroke="#191970" d="M186.1811,-510.7201C206.8573,-517.4 233.2353,-525.9222 253.2352,-532.3837"/>
<polygon fill="#191970" stroke="#191970" points="187.1338,-507.3498 176.542,-507.6059 184.9817,-514.0108 187.1338,-507.3498"/>
</g>
<!-- Node792&#45;&gt;Node766 -->
<g id="edge41" class="edge">
<title>Node792&#45;&gt;Node766</title>
<path fill="none" stroke="#191970" d="M155.3996,-519.5866C161.4408,-560.796 180.9426,-657.2446 236,-713 241.6894,-718.7615 249.3596,-722.8358 256.8521,-725.6914"/>
<polygon fill="#191970" stroke="#191970" points="158.8451,-518.9475 154.0342,-509.5079 151.9084,-519.8873 158.8451,-518.9475"/>
</g>
<!-- Node792&#45;&gt;Node762 -->
<g id="edge40" class="edge">
<title>Node792&#45;&gt;Node762</title>
<path fill="none" stroke="#191970" d="M158.0647,-519.4699C167.864,-553.7866 192.3886,-625.5995 236,-670 241.9066,-676.0134 249.6378,-680.8043 257.1195,-684.4747"/>
<polygon fill="#191970" stroke="#191970" points="161.4136,-518.4473 155.395,-509.7279 154.6625,-520.2974 161.4136,-518.4473"/>
</g>
<!-- Node792&#45;&gt;Node738 -->
<g id="edge36" class="edge">
<title>Node792&#45;&gt;Node738</title>
<path fill="none" stroke="#191970" d="M160.66,-481.1369C172.7869,-453.4369 198.8964,-401.724 236,-371 240.6096,-367.183 246.0865,-364.0531 251.6448,-361.5148"/>
<polygon fill="#191970" stroke="#191970" points="157.3786,-479.9103 156.7031,-490.4836 163.8247,-482.6393 157.3786,-479.9103"/>
</g>
<!-- Node792&#45;&gt;Node754 -->
<g id="edge37" class="edge">
<title>Node792&#45;&gt;Node754</title>
<path fill="none" stroke="#191970" d="M186.5105,-495.6506C201.6167,-493.7704 219.6898,-491.6321 236,-490 337.4556,-479.8476 458.4967,-471.2683 510.7978,-467.7321"/>
<polygon fill="#191970" stroke="#191970" points="186.0683,-492.1786 176.5845,-496.9017 186.9437,-499.1236 186.0683,-492.1786"/>
</g>
<!-- Node792&#45;&gt;Node772 -->
<g id="edge33" class="edge">
<title>Node792&#45;&gt;Node772</title>
<path fill="none" stroke="#191970" d="M174.3694,-484.478C190.4981,-473.5734 213.6063,-459.6222 236,-452 284.763,-435.4023 344.5497,-430.2057 381.7172,-428.6237"/>
<polygon fill="#191970" stroke="#191970" points="171.9527,-481.8952 165.7376,-490.4756 175.947,-487.6438 171.9527,-481.8952"/>
</g>
<!-- Node792&#45;&gt;Node793 -->
<g id="edge34" class="edge">
<title>Node792&#45;&gt;Node793</title>
<path fill="none" stroke="#191970" d="M166.853,-482.5193C182.2762,-463.8633 208.6528,-434.2608 236,-414 243.509,-408.4368 252.4956,-403.4967 260.5903,-399.5664"/>
<polygon fill="#191970" stroke="#191970" points="163.9763,-480.5096 160.3891,-490.4787 169.4101,-484.9225 163.9763,-480.5096"/>
</g>
<!-- Node792&#45;&gt;Node734 -->
<g id="edge38" class="edge">
<title>Node792&#45;&gt;Node734</title>
<path fill="none" stroke="#191970" d="M157.7793,-480.4811C167.1316,-446.1551 190.979,-374.6779 236,-333 242.5878,-326.9014 251.3873,-322.6463 259.5902,-319.7339"/>
<polygon fill="#191970" stroke="#191970" points="154.3722,-479.6767 155.2437,-490.2356 161.147,-481.4378 154.3722,-479.6767"/>
</g>
<!-- Node792&#45;&gt;Node736 -->
<g id="edge39" class="edge">
<title>Node792&#45;&gt;Node736</title>
<path fill="none" stroke="#191970" d="M155.7584,-480.3264C162.3741,-440.2022 182.7425,-348.229 236,-295 242.3496,-288.6538 251.1007,-284.3484 259.3316,-281.4651"/>
<polygon fill="#191970" stroke="#191970" points="152.2699,-479.9849 154.2119,-490.4002 159.1888,-481.0471 152.2699,-479.9849"/>
</g>
<!-- Node793&#45;&gt;Node772 -->
<g id="edge35" class="edge">
<title>Node793&#45;&gt;Node772</title>
<path fill="none" stroke="#191970" d="M317.9427,-399.9091C338.1115,-405.6286 363.351,-412.7861 383.3051,-418.4447"/>
<polygon fill="#191970" stroke="#191970" points="318.7799,-396.5086 308.2044,-397.1475 316.8701,-403.243 318.7799,-396.5086"/>
</g>
<!-- Node809&#45;&gt;Node754 -->
<g id="edge44" class="edge">
<title>Node809&#45;&gt;Node754</title>
<path fill="none" stroke="#191970" d="M198.5053,-112.2876C266.0632,-97.8706 392.9639,-82.6402 468,-148 516.3495,-190.1146 533.2068,-407.5755 536.4056,-456.3035"/>
<polygon fill="#191970" stroke="#191970" points="197.5888,-108.9058 188.5853,-114.4904 199.1063,-115.7393 197.5888,-108.9058"/>
</g>
<!-- Node816&#45;&gt;Node726 -->
<g id="edge46" class="edge">
<title>Node816&#45;&gt;Node726</title>
<path fill="none" stroke="#191970" d="M163.9334,-863.2602C177.795,-884.614 203.8092,-919.1762 236,-936 280.9493,-959.4917 340.4151,-962.9938 378.6934,-962.3168"/>
<polygon fill="#191970" stroke="#191970" points="166.8743,-861.3621 158.5973,-854.7484 160.9434,-865.0802 166.8743,-861.3621"/>
</g>
<!-- Node816&#45;&gt;Node767 -->
<g id="edge56" class="edge">
<title>Node816&#45;&gt;Node767</title>
<path fill="none" stroke="#191970" d="M161.5299,-863.7964C180.3394,-904.9914 224.6129,-1000.4884 236,-1012 241.9277,-1017.9925 249.665,-1022.7776 257.1456,-1026.449"/>
<polygon fill="#191970" stroke="#191970" points="164.6614,-862.2277 157.332,-854.5772 158.2908,-865.1285 164.6614,-862.2277"/>
</g>
<!-- Node816&#45;&gt;Node766 -->
<g id="edge55" class="edge">
<title>Node816&#45;&gt;Node766</title>
<path fill="none" stroke="#191970" d="M164.8383,-827.1704C179.4169,-806.4076 205.9676,-772.2513 236,-751 242.1786,-746.6279 249.5102,-743.0491 256.5227,-740.224"/>
<polygon fill="#191970" stroke="#191970" points="161.9484,-825.196 159.1803,-835.4228 167.7218,-829.1544 161.9484,-825.196"/>
</g>
<!-- Node816&#45;&gt;Node762 -->
<g id="edge53" class="edge">
<title>Node816&#45;&gt;Node762</title>
<path fill="none" stroke="#191970" d="M160.544,-825.6952C172.5233,-797.3473 198.4472,-744.427 236,-713 241.8046,-708.1423 249.0134,-704.4041 256.0278,-701.5815"/>
<polygon fill="#191970" stroke="#191970" points="157.1783,-824.6795 156.6404,-835.2607 163.6594,-827.3244 157.1783,-824.6795"/>
</g>
<!-- Node816&#45;&gt;Node763 -->
<g id="edge54" class="edge">
<title>Node816&#45;&gt;Node763</title>
<path fill="none" stroke="#191970" d="M160.993,-864.1049C173.1098,-890.569 198.7314,-937.845 236,-962 274.7157,-987.0929 327.1458,-995.3469 365.6117,-997.7662"/>
<polygon fill="#191970" stroke="#191970" points="164.1165,-862.5131 156.886,-854.7691 157.7091,-865.3319 164.1165,-862.5131"/>
</g>
<!-- Node816&#45;&gt;Node732 -->
<g id="edge52" class="edge">
<title>Node816&#45;&gt;Node732</title>
<path fill="none" stroke="#191970" d="M193.6332,-833.4352C215.0623,-827.3361 240.6227,-820.0612 258.9073,-814.8572"/>
<polygon fill="#191970" stroke="#191970" points="192.4681,-830.1277 183.8082,-836.2315 194.3843,-836.8603 192.4681,-830.1277"/>
</g>
<!-- Node816&#45;&gt;Node752 -->
<g id="edge49" class="edge">
<title>Node816&#45;&gt;Node752</title>
<path fill="none" stroke="#191970" d="M173.688,-829.2524C190.0341,-817.2586 213.728,-800.8469 236,-789 242.8379,-785.3628 250.5285,-781.981 257.6775,-779.1089"/>
<polygon fill="#191970" stroke="#191970" points="171.3529,-826.6271 165.4184,-835.404 175.5309,-832.2436 171.3529,-826.6271"/>
</g>
<!-- Node816&#45;&gt;Node757 -->
<g id="edge50" class="edge">
<title>Node816&#45;&gt;Node757</title>
<path fill="none" stroke="#191970" d="M154.2424,-824.9209C158.1315,-778.9399 173.8567,-664.9068 236,-599 242.1587,-592.4684 250.871,-588.1253 259.1244,-585.2638"/>
<polygon fill="#191970" stroke="#191970" points="150.7387,-824.842 153.4876,-835.074 157.7194,-825.361 150.7387,-824.842"/>
</g>
<!-- Node816&#45;&gt;Node754 -->
<g id="edge51" class="edge">
<title>Node816&#45;&gt;Node754</title>
<path fill="none" stroke="#191970" d="M193.1888,-857.3652C195.5063,-858.221 197.7909,-859.1015 200,-860 216.5704,-866.7396 218.59,-873.8901 236,-878 340.8212,-902.7449 402.8007,-893.7254 468,-808 509.7097,-753.1593 531.7788,-525.6991 536.1757,-475.7333"/>
<polygon fill="#191970" stroke="#191970" points="194.1803,-854.0041 183.5855,-854.0035 191.8675,-860.611 194.1803,-854.0041"/>
</g>
<!-- Node816&#45;&gt;Node772 -->
<g id="edge47" class="edge">
<title>Node816&#45;&gt;Node772</title>
<path fill="none" stroke="#191970" d="M193.743,-853.8646C234.0374,-860.0117 294.6511,-861.7695 330,-827 378.4986,-779.2963 345.5537,-587.8822 366,-523 376.5212,-489.6132 398.8844,-454.3119 410.1752,-437.7077"/>
<polygon fill="#191970" stroke="#191970" points="194.1537,-850.3847 183.7122,-852.1808 192.9947,-857.2881 194.1537,-850.3847"/>
</g>
<!-- Node816&#45;&gt;Node788 -->
<g id="edge48" class="edge">
<title>Node816&#45;&gt;Node788</title>
<path fill="none" stroke="#191970" d="M191.3222,-857.2446C227.9948,-866.8997 284.3267,-876.2714 330,-860 364.7097,-847.6344 395.5885,-814.8282 409.3741,-798.5032"/>
<polygon fill="#191970" stroke="#191970" points="192.0964,-853.8274 181.5252,-854.5349 190.2303,-860.5741 192.0964,-853.8274"/>
</g>
</g>
</svg>
