<?xml version="1.0" encoding="UTF-8" standalone="no"?>
<!DOCTYPE svg PUBLIC "-//W3C//DTD SVG 1.1//EN"
 "http://www.w3.org/Graphics/SVG/1.1/DTD/svg11.dtd">
<!-- Generated by graphviz version 2.40.1 (20161225.0304)
 -->
<!-- Title: __bf_round Pages: 1 -->
<svg width="445pt" height="345pt"
 viewBox="0.00 0.00 445.00 345.31" xmlns="http://www.w3.org/2000/svg" xmlns:xlink="http://www.w3.org/1999/xlink">
<g id="graph0" class="graph" transform="scale(1 1) rotate(0) translate(4 341.3142)">
<title>__bf_round</title>
<!-- Node1829 -->
<g id="node1" class="node">
<title>Node1829</title>
<polygon fill="#bfbfbf" stroke="#000000" points="0,-185.9378 0,-204.9378 70,-204.9378 70,-185.9378 0,-185.9378"/>
<text text-anchor="middle" x="35" y="-192.9378" font-family="Helvetica,sans-Serif" font-size="10.00" fill="#000000">__bf_round</text>
</g>
<!-- Node1830 -->
<g id="node2" class="node">
<title>Node1830</title>
<g id="a_node2"><a xlink:href="libbf_8h.html#a933c9dd8c3450f560876d02e3b36b1a5" target="_top" xlink:title="bf_get_exp_bits">
<polygon fill="none" stroke="#000000" points="236,-299.9378 236,-318.9378 330,-318.9378 330,-299.9378 236,-299.9378"/>
<text text-anchor="middle" x="283" y="-306.9378" font-family="Helvetica,sans-Serif" font-size="10.00" fill="#000000">bf_get_exp_bits</text>
</a>
</g>
</g>
<!-- Node1829&#45;&gt;Node1830 -->
<g id="edge1" class="edge">
<title>Node1829&#45;&gt;Node1830</title>
<path fill="none" stroke="#191970" d="M52.0042,-205.07C66.2565,-213.0141 87.2288,-224.4051 106,-233.4378 155.1678,-257.0974 213.5608,-281.4702 249.4473,-296.0363"/>
<polygon fill="#191970" stroke="#191970" points="248.3631,-299.3731 258.946,-299.8759 250.9865,-292.8833 248.3631,-299.3731"/>
</g>
<!-- Node1831 -->
<g id="node3" class="node">
<title>Node1831</title>
<g id="a_node3"><a xlink:href="libbf_8c.html#a3d7fdccc1995b3a88b68c5e7a57dce16" target="_top" xlink:title="bf_get_rnd_add">
<polygon fill="none" stroke="#000000" points="107,-109.9378 107,-128.9378 199,-128.9378 199,-109.9378 107,-109.9378"/>
<text text-anchor="middle" x="153" y="-116.9378" font-family="Helvetica,sans-Serif" font-size="10.00" fill="#000000">bf_get_rnd_add</text>
</a>
</g>
</g>
<!-- Node1829&#45;&gt;Node1831 -->
<g id="edge2" class="edge">
<title>Node1829&#45;&gt;Node1831</title>
<path fill="none" stroke="#191970" d="M49.9448,-185.8123C70.0714,-172.8495 106.0889,-149.6517 129.7654,-134.4024"/>
<polygon fill="#191970" stroke="#191970" points="131.6646,-137.3424 138.1766,-128.9851 127.8742,-131.4574 131.6646,-137.3424"/>
</g>
<!-- Node1835 -->
<g id="node7" class="node">
<title>Node1835</title>
<g id="a_node7"><a xlink:href="libbf_8c.html#a450dfcc66e1b45403f642a8499219f94" target="_top" xlink:title="limb_mask">
<polygon fill="none" stroke="#000000" points="366,-261.9378 366,-280.9378 437,-280.9378 437,-261.9378 366,-261.9378"/>
<text text-anchor="middle" x="401.5" y="-268.9378" font-family="Helvetica,sans-Serif" font-size="10.00" fill="#000000">limb_mask</text>
</a>
</g>
</g>
<!-- Node1829&#45;&gt;Node1835 -->
<g id="edge18" class="edge">
<title>Node1829&#45;&gt;Node1835</title>
<path fill="none" stroke="#191970" d="M42.8289,-205.3835C55.0333,-220.3809 79.9138,-248.9889 106,-267.4378 158.1077,-304.2898 173.7072,-314.5494 236,-328.4378 276.7766,-337.5291 290.5655,-342.2329 330,-328.4378 352.5471,-320.5503 373.2905,-302.243 386.5611,-288.4896"/>
<polygon fill="#191970" stroke="#191970" points="389.2414,-290.7464 393.4683,-281.0312 384.1055,-285.9901 389.2414,-290.7464"/>
</g>
<!-- Node1836 -->
<g id="node8" class="node">
<title>Node1836</title>
<g id="a_node8"><a xlink:href="libbf_8h.html#ab51c43b22c1a81c789ee0e3d53c0e585" target="_top" xlink:title="bf_resize">
<polygon fill="none" stroke="#000000" points="371,-109.9378 371,-128.9378 432,-128.9378 432,-109.9378 371,-109.9378"/>
<text text-anchor="middle" x="401.5" y="-116.9378" font-family="Helvetica,sans-Serif" font-size="10.00" fill="#000000">bf_resize</text>
</a>
</g>
</g>
<!-- Node1829&#45;&gt;Node1836 -->
<g id="edge7" class="edge">
<title>Node1829&#45;&gt;Node1836</title>
<path fill="none" stroke="#191970" d="M36.5581,-185.8727C41.4555,-158.9972 59.0986,-82.2421 106,-43.4378 151.9285,-5.4384 176.8496,-17.8281 236,-10.4378 277.4555,-5.2583 293.2392,9.4124 330,-10.4378 365.1977,-29.444 385.8759,-74.1648 395.3055,-100.0319"/>
<polygon fill="#191970" stroke="#191970" points="392.1123,-101.5102 398.6676,-109.8336 398.7336,-99.2389 392.1123,-101.5102"/>
</g>
<!-- Node1837 -->
<g id="node9" class="node">
<title>Node1837</title>
<g id="a_node9"><a xlink:href="libbf_8c.html#af464f3c1421a7305372819f949667273" target="_top" xlink:title="bf_set_overflow">
<polygon fill="none" stroke="#000000" points="106,-204.9378 106,-223.9378 200,-223.9378 200,-204.9378 106,-204.9378"/>
<text text-anchor="middle" x="153" y="-211.9378" font-family="Helvetica,sans-Serif" font-size="10.00" fill="#000000">bf_set_overflow</text>
</a>
</g>
</g>
<!-- Node1829&#45;&gt;Node1837 -->
<g id="edge8" class="edge">
<title>Node1829&#45;&gt;Node1837</title>
<path fill="none" stroke="#191970" d="M70.0844,-201.087C78.0924,-202.3764 86.8079,-203.7797 95.4807,-205.1762"/>
<polygon fill="#191970" stroke="#191970" points="95.168,-208.6709 105.5972,-206.8051 96.2808,-201.7599 95.168,-208.6709"/>
</g>
<!-- Node1840 -->
<g id="node12" class="node">
<title>Node1840</title>
<g id="a_node12"><a xlink:href="libbf_8h.html#a66631c65c00e92a5840a5085a009602d" target="_top" xlink:title="bf_set_zero">
<polygon fill="none" stroke="#000000" points="116.5,-52.9378 116.5,-71.9378 189.5,-71.9378 189.5,-52.9378 116.5,-52.9378"/>
<text text-anchor="middle" x="153" y="-59.9378" font-family="Helvetica,sans-Serif" font-size="10.00" fill="#000000">bf_set_zero</text>
</a>
</g>
</g>
<!-- Node1829&#45;&gt;Node1840 -->
<g id="edge16" class="edge">
<title>Node1829&#45;&gt;Node1840</title>
<path fill="none" stroke="#191970" d="M40.9531,-185.9344C52.3541,-168.1161 78.5832,-128.9195 106,-100.4378 113.6693,-92.4706 122.9897,-84.623 131.3018,-78.1468"/>
<polygon fill="#191970" stroke="#191970" points="133.6292,-80.7747 139.4875,-71.9468 129.4028,-75.1946 133.6292,-80.7747"/>
</g>
<!-- Node1832 -->
<g id="node4" class="node">
<title>Node1832</title>
<g id="a_node4"><a xlink:href="libbf_8h.html#a4954f3435332238433d15977d55ae566" target="_top" xlink:title="bf_max">
<polygon fill="none" stroke="#000000" points="256.5,-33.9378 256.5,-52.9378 309.5,-52.9378 309.5,-33.9378 256.5,-33.9378"/>
<text text-anchor="middle" x="283" y="-40.9378" font-family="Helvetica,sans-Serif" font-size="10.00" fill="#000000">bf_max</text>
</a>
</g>
</g>
<!-- Node1831&#45;&gt;Node1832 -->
<g id="edge3" class="edge">
<title>Node1831&#45;&gt;Node1832</title>
<path fill="none" stroke="#191970" d="M165.1157,-109.8611C180.8209,-97.7487 209.3596,-76.7494 236,-62.4378 239.4769,-60.57 243.1778,-58.7735 246.9177,-57.0807"/>
<polygon fill="#191970" stroke="#191970" points="248.3776,-60.263 256.1887,-53.1049 245.6186,-53.8296 248.3776,-60.263"/>
</g>
<!-- Node1833 -->
<g id="node5" class="node">
<title>Node1833</title>
<g id="a_node5"><a xlink:href="libbf_8c.html#a7e1a60c84d638cde1ac9aabd01d266e1" target="_top" xlink:title="get_bit">
<polygon fill="none" stroke="#000000" points="258,-71.9378 258,-90.9378 308,-90.9378 308,-71.9378 258,-71.9378"/>
<text text-anchor="middle" x="283" y="-78.9378" font-family="Helvetica,sans-Serif" font-size="10.00" fill="#000000">get_bit</text>
</a>
</g>
</g>
<!-- Node1831&#45;&gt;Node1833 -->
<g id="edge4" class="edge">
<title>Node1831&#45;&gt;Node1833</title>
<path fill="none" stroke="#191970" d="M185.8045,-109.8488C204.764,-104.3068 228.6128,-97.3356 247.9416,-91.6856"/>
<polygon fill="#191970" stroke="#191970" points="248.9711,-95.0313 257.5874,-88.8661 247.0071,-88.3124 248.9711,-95.0313"/>
</g>
<!-- Node1834 -->
<g id="node6" class="node">
<title>Node1834</title>
<g id="a_node6"><a xlink:href="libbf_8c.html#ad3d895c95a9ac95ae5fe9ea75ce7291f" target="_top" xlink:title="scan_bit_nz">
<polygon fill="none" stroke="#000000" points="246,-185.9378 246,-204.9378 320,-204.9378 320,-185.9378 246,-185.9378"/>
<text text-anchor="middle" x="283" y="-192.9378" font-family="Helvetica,sans-Serif" font-size="10.00" fill="#000000">scan_bit_nz</text>
</a>
</g>
</g>
<!-- Node1831&#45;&gt;Node1834 -->
<g id="edge5" class="edge">
<title>Node1831&#45;&gt;Node1834</title>
<path fill="none" stroke="#191970" d="M165.1157,-129.0145C180.8209,-141.1269 209.3596,-162.1262 236,-176.4378 239.4769,-178.3056 243.1778,-180.1021 246.9177,-181.7948"/>
<polygon fill="#191970" stroke="#191970" points="245.6186,-185.046 256.1887,-185.7707 248.3776,-178.6126 245.6186,-185.046"/>
</g>
<!-- Node1834&#45;&gt;Node1835 -->
<g id="edge6" class="edge">
<title>Node1834&#45;&gt;Node1835</title>
<path fill="none" stroke="#191970" d="M298.0081,-205.0632C318.22,-218.0261 354.3902,-241.2239 378.167,-256.4732"/>
<polygon fill="#191970" stroke="#191970" points="376.3067,-259.438 386.6138,-261.8905 380.0857,-253.5457 376.3067,-259.438"/>
</g>
<!-- Node1837&#45;&gt;Node1830 -->
<g id="edge9" class="edge">
<title>Node1837&#45;&gt;Node1830</title>
<path fill="none" stroke="#191970" d="M162.6071,-223.9934C177.4687,-238.4535 207.3203,-266.2402 236,-285.4378 241.0726,-288.8333 246.6883,-292.087 252.2208,-295.0427"/>
<polygon fill="#191970" stroke="#191970" points="250.8457,-298.2705 261.3426,-299.708 254.0332,-292.0384 250.8457,-298.2705"/>
</g>
<!-- Node1837&#45;&gt;Node1835 -->
<g id="edge15" class="edge">
<title>Node1837&#45;&gt;Node1835</title>
<path fill="none" stroke="#191970" d="M173.3506,-224.0892C189.8797,-231.5436 213.9782,-241.5508 236,-247.4378 275.7803,-258.0722 322.2803,-264.2897 355.8444,-267.7204"/>
<polygon fill="#191970" stroke="#191970" points="355.5304,-271.2063 365.8238,-268.6974 356.2125,-264.2396 355.5304,-271.2063"/>
</g>
<!-- Node1837&#45;&gt;Node1836 -->
<g id="edge10" class="edge">
<title>Node1837&#45;&gt;Node1836</title>
<path fill="none" stroke="#191970" d="M191.8566,-223.9676C229.3149,-231.034 286.5555,-236.1144 330,-214.4378 361.7151,-198.6136 383.0515,-161.2798 393.6642,-138.4088"/>
<polygon fill="#191970" stroke="#191970" points="396.9594,-139.6101 397.7845,-129.0474 390.5525,-136.7901 396.9594,-139.6101"/>
</g>
<!-- Node1838 -->
<g id="node10" class="node">
<title>Node1838</title>
<g id="a_node10"><a xlink:href="libbf_8h.html#a88d3dcee173f1e4fd4e55000edb04595" target="_top" xlink:title="bf_set_inf">
<polygon fill="none" stroke="#000000" points="250.5,-147.9378 250.5,-166.9378 315.5,-166.9378 315.5,-147.9378 250.5,-147.9378"/>
<text text-anchor="middle" x="283" y="-154.9378" font-family="Helvetica,sans-Serif" font-size="10.00" fill="#000000">bf_set_inf</text>
</a>
</g>
</g>
<!-- Node1837&#45;&gt;Node1838 -->
<g id="edge11" class="edge">
<title>Node1837&#45;&gt;Node1838</title>
<path fill="none" stroke="#191970" d="M173.3508,-204.8094C190.0834,-196.9682 214.4585,-185.7175 236,-176.4378 240.2058,-174.626 244.6434,-172.7659 249.045,-170.9518"/>
<polygon fill="#191970" stroke="#191970" points="250.5795,-174.106 258.5192,-167.0909 247.9377,-167.6236 250.5795,-174.106"/>
</g>
<!-- Node1839 -->
<g id="node11" class="node">
<title>Node1839</title>
<g id="a_node11"><a xlink:href="libbf_8h.html#aa6282c789c16c8cf2fe6a8ebd671c6fc" target="_top" xlink:title="bf_set_nan">
<polygon fill="none" stroke="#000000" points="248,-109.9378 248,-128.9378 318,-128.9378 318,-109.9378 248,-109.9378"/>
<text text-anchor="middle" x="283" y="-116.9378" font-family="Helvetica,sans-Serif" font-size="10.00" fill="#000000">bf_set_nan</text>
</a>
</g>
</g>
<!-- Node1837&#45;&gt;Node1839 -->
<g id="edge13" class="edge">
<title>Node1837&#45;&gt;Node1839</title>
<path fill="none" stroke="#191970" d="M161.3293,-204.8473C175.3762,-189.1612 205.2641,-157.8271 236,-138.4378 238.9171,-136.5976 242.0424,-134.8756 245.2438,-133.2787"/>
<polygon fill="#191970" stroke="#191970" points="246.7165,-136.4539 254.3582,-129.1152 243.808,-130.0867 246.7165,-136.4539"/>
</g>
<!-- Node1838&#45;&gt;Node1836 -->
<g id="edge12" class="edge">
<title>Node1838&#45;&gt;Node1836</title>
<path fill="none" stroke="#191970" d="M312.9026,-147.8488C327.7787,-143.0784 345.9571,-137.249 361.9674,-132.1149"/>
<polygon fill="#191970" stroke="#191970" points="363.1534,-135.4102 371.607,-129.0237 361.0159,-128.7446 363.1534,-135.4102"/>
</g>
<!-- Node1839&#45;&gt;Node1836 -->
<g id="edge14" class="edge">
<title>Node1839&#45;&gt;Node1836</title>
<path fill="none" stroke="#191970" d="M318.2331,-119.4378C331.4983,-119.4378 346.6969,-119.4378 360.4474,-119.4378"/>
<polygon fill="#191970" stroke="#191970" points="360.6242,-122.9379 370.6242,-119.4378 360.6241,-115.9379 360.6242,-122.9379"/>
</g>
<!-- Node1840&#45;&gt;Node1836 -->
<g id="edge17" class="edge">
<title>Node1840&#45;&gt;Node1836</title>
<path fill="none" stroke="#191970" d="M168.0428,-52.9081C199.6473,-34.1989 274.5975,3.2052 330,-24.4378 361.7151,-40.262 383.0515,-77.5957 393.6642,-100.4668"/>
<polygon fill="#191970" stroke="#191970" points="390.5525,-102.0855 397.7845,-109.8282 396.9594,-99.2655 390.5525,-102.0855"/>
</g>
</g>
</svg>
