<?xml version="1.0" encoding="UTF-8" standalone="no"?>
<!DOCTYPE svg PUBLIC "-//W3C//DTD SVG 1.1//EN"
 "http://www.w3.org/Graphics/SVG/1.1/DTD/svg11.dtd">
<!-- Generated by graphviz version 2.40.1 (20161225.0304)
 -->
<!-- Title: __bf_add Pages: 1 -->
<svg width="681pt" height="519pt"
 viewBox="0.00 0.00 681.00 518.91" xmlns="http://www.w3.org/2000/svg" xmlns:xlink="http://www.w3.org/1999/xlink">
<g id="graph0" class="graph" transform="scale(1 1) rotate(0) translate(4 514.9095)">
<title>__bf_add</title>
<!-- Node2329 -->
<g id="node1" class="node">
<title>Node2329</title>
<polygon fill="#bfbfbf" stroke="#000000" points="0,-288.8189 0,-307.8189 60,-307.8189 60,-288.8189 0,-288.8189"/>
<text text-anchor="middle" x="30" y="-295.8189" font-family="Helvetica,sans-Serif" font-size="10.00" fill="#000000">__bf_add</text>
</g>
<!-- Node2330 -->
<g id="node2" class="node">
<title>Node2330</title>
<g id="a_node2"><a xlink:href="libbf_8c.html#aaebd1df91497246cd81f23918af58d33" target="_top" xlink:title="bf_add_internal">
<polygon fill="none" stroke="#000000" points="96,-288.8189 96,-307.8189 188,-307.8189 188,-288.8189 96,-288.8189"/>
<text text-anchor="middle" x="142" y="-295.8189" font-family="Helvetica,sans-Serif" font-size="10.00" fill="#000000">bf_add_internal</text>
</a>
</g>
</g>
<!-- Node2329&#45;&gt;Node2330 -->
<g id="edge1" class="edge">
<title>Node2329&#45;&gt;Node2330</title>
<path fill="none" stroke="#191970" d="M60.0139,-298.3189C68.0173,-298.3189 76.9306,-298.3189 85.8489,-298.3189"/>
<polygon fill="#191970" stroke="#191970" points="85.872,-301.819 95.872,-298.3189 85.872,-294.819 85.872,-301.819"/>
</g>
<!-- Node2331 -->
<g id="node3" class="node">
<title>Node2331</title>
<g id="a_node3"><a xlink:href="libbf_8h.html#a165ae2c6d3fee618014b7c9ea4f944dc" target="_top" xlink:title="bf_cmpu">
<polygon fill="none" stroke="#000000" points="263,-459.8189 263,-478.8189 322,-478.8189 322,-459.8189 263,-459.8189"/>
<text text-anchor="middle" x="292.5" y="-466.8189" font-family="Helvetica,sans-Serif" font-size="10.00" fill="#000000">bf_cmpu</text>
</a>
</g>
</g>
<!-- Node2330&#45;&gt;Node2331 -->
<g id="edge2" class="edge">
<title>Node2330&#45;&gt;Node2331</title>
<path fill="none" stroke="#191970" d="M144.7752,-308.1334C152.6674,-334.2979 177.7134,-406.3731 224,-445.3189 232.3299,-452.3277 242.8386,-457.3392 253.1069,-460.9033"/>
<polygon fill="#191970" stroke="#191970" points="252.2118,-464.2899 262.7993,-463.8949 254.2763,-457.6013 252.2118,-464.2899"/>
</g>
<!-- Node2332 -->
<g id="node4" class="node">
<title>Node2332</title>
<g id="a_node4"><a xlink:href="libbf_8h.html#a4954f3435332238433d15977d55ae566" target="_top" xlink:title="bf_max">
<polygon fill="none" stroke="#000000" points="405.5,-478.8189 405.5,-497.8189 458.5,-497.8189 458.5,-478.8189 405.5,-478.8189"/>
<text text-anchor="middle" x="432" y="-485.8189" font-family="Helvetica,sans-Serif" font-size="10.00" fill="#000000">bf_max</text>
</a>
</g>
</g>
<!-- Node2330&#45;&gt;Node2332 -->
<g id="edge5" class="edge">
<title>Node2330&#45;&gt;Node2332</title>
<path fill="none" stroke="#191970" d="M142.6699,-308.1126C145.4895,-340.7108 159.4604,-445.8792 224,-488.3189 275.6449,-522.2794 351.2153,-510.8265 395.629,-499.5067"/>
<polygon fill="#191970" stroke="#191970" points="396.6608,-502.8538 405.4146,-496.8854 394.8495,-496.0922 396.6608,-502.8538"/>
</g>
<!-- Node2333 -->
<g id="node5" class="node">
<title>Node2333</title>
<g id="a_node5"><a xlink:href="libbf_8c.html#a42c793dff09c27760634ad51e7184413" target="_top" xlink:title="get_limbz">
<polygon fill="none" stroke="#000000" points="399.5,-421.8189 399.5,-440.8189 464.5,-440.8189 464.5,-421.8189 399.5,-421.8189"/>
<text text-anchor="middle" x="432" y="-428.8189" font-family="Helvetica,sans-Serif" font-size="10.00" fill="#000000">get_limbz</text>
</a>
</g>
</g>
<!-- Node2330&#45;&gt;Node2333 -->
<g id="edge31" class="edge">
<title>Node2330&#45;&gt;Node2333</title>
<path fill="none" stroke="#191970" d="M146.0098,-307.9737C155.7042,-329.9551 182.7019,-383.6538 224,-407.3189 275.0976,-436.5994 344.8261,-438.4313 389.139,-435.8297"/>
<polygon fill="#191970" stroke="#191970" points="389.5482,-439.3098 399.2838,-435.1303 389.0668,-432.3264 389.5482,-439.3098"/>
</g>
<!-- Node2334 -->
<g id="node6" class="node">
<title>Node2334</title>
<g id="a_node6"><a xlink:href="libbf_8h.html#a970a1725f8bc59eda655058c5ff6bc52" target="_top" xlink:title="bf_min">
<polygon fill="none" stroke="#000000" points="407,-345.8189 407,-364.8189 457,-364.8189 457,-345.8189 407,-345.8189"/>
<text text-anchor="middle" x="432" y="-352.8189" font-family="Helvetica,sans-Serif" font-size="10.00" fill="#000000">bf_min</text>
</a>
</g>
</g>
<!-- Node2330&#45;&gt;Node2334 -->
<g id="edge6" class="edge">
<title>Node2330&#45;&gt;Node2334</title>
<path fill="none" stroke="#191970" d="M158.3243,-307.933C174.4343,-316.9181 200.0585,-329.8852 224,-336.3189 283.1142,-352.2044 354.7083,-355.4015 396.6207,-355.7365"/>
<polygon fill="#191970" stroke="#191970" points="396.8536,-359.237 406.8635,-355.7654 396.8734,-352.2371 396.8536,-359.237"/>
</g>
<!-- Node2335 -->
<g id="node7" class="node">
<title>Node2335</title>
<g id="a_node7"><a xlink:href="libbf_8h.html#ae822c0888d26739bb681dfef282b9150" target="_top" xlink:title="bf_normalize_and_round">
<polygon fill="none" stroke="#000000" points="224,-212.8189 224,-231.8189 361,-231.8189 361,-212.8189 224,-212.8189"/>
<text text-anchor="middle" x="292.5" y="-219.8189" font-family="Helvetica,sans-Serif" font-size="10.00" fill="#000000">bf_normalize_and_round</text>
</a>
</g>
</g>
<!-- Node2330&#45;&gt;Node2335 -->
<g id="edge7" class="edge">
<title>Node2330&#45;&gt;Node2335</title>
<path fill="none" stroke="#191970" d="M161.0609,-288.6935C187.1832,-275.5021 234.2938,-251.7121 264.4476,-236.4849"/>
<polygon fill="#191970" stroke="#191970" points="266.2451,-239.4982 273.5938,-231.8662 263.0897,-233.2497 266.2451,-239.4982"/>
</g>
<!-- Node2336 -->
<g id="node8" class="node">
<title>Node2336</title>
<g id="a_node8"><a xlink:href="libbf_8h.html#ab51c43b22c1a81c789ee0e3d53c0e585" target="_top" xlink:title="bf_resize">
<polygon fill="none" stroke="#000000" points="612,-117.8189 612,-136.8189 673,-136.8189 673,-117.8189 612,-117.8189"/>
<text text-anchor="middle" x="642.5" y="-124.8189" font-family="Helvetica,sans-Serif" font-size="10.00" fill="#000000">bf_resize</text>
</a>
</g>
</g>
<!-- Node2330&#45;&gt;Node2336 -->
<g id="edge15" class="edge">
<title>Node2330&#45;&gt;Node2336</title>
<path fill="none" stroke="#191970" d="M143.9233,-288.6929C150.0181,-260.9475 171.6784,-180.4931 224,-144.3189 353.3544,-54.8857 420.2595,-86.5067 576,-108.3189 585.8845,-109.7033 596.3612,-112.1919 606.0034,-114.9216"/>
<polygon fill="#191970" stroke="#191970" points="605.1062,-118.3064 615.6898,-117.8175 607.1113,-111.5997 605.1062,-118.3064"/>
</g>
<!-- Node2348 -->
<g id="node11" class="node">
<title>Node2348</title>
<g id="a_node11"><a xlink:href="libbf_8h.html#a66631c65c00e92a5840a5085a009602d" target="_top" xlink:title="bf_set_zero">
<polygon fill="none" stroke="#000000" points="503,-117.8189 503,-136.8189 576,-136.8189 576,-117.8189 503,-117.8189"/>
<text text-anchor="middle" x="539.5" y="-124.8189" font-family="Helvetica,sans-Serif" font-size="10.00" fill="#000000">bf_set_zero</text>
</a>
</g>
</g>
<!-- Node2330&#45;&gt;Node2348 -->
<g id="edge23" class="edge">
<title>Node2330&#45;&gt;Node2348</title>
<path fill="none" stroke="#191970" d="M147.7293,-288.7249C159.5814,-269.6786 188.6617,-226.9029 224,-203.3189 307.5176,-147.581 427.6543,-132.6155 492.9496,-128.667"/>
<polygon fill="#191970" stroke="#191970" points="493.1491,-132.1614 502.9442,-128.1233 492.7688,-125.1717 493.1491,-132.1614"/>
</g>
<!-- Node2349 -->
<g id="node13" class="node">
<title>Node2349</title>
<g id="a_node13"><a xlink:href="libbf_8h.html#ae019ee8073f4359da157d3b1e5fdba7e" target="_top" xlink:title="bf_set">
<polygon fill="none" stroke="#000000" points="269,-41.8189 269,-60.8189 316,-60.8189 316,-41.8189 269,-41.8189"/>
<text text-anchor="middle" x="292.5" y="-48.8189" font-family="Helvetica,sans-Serif" font-size="10.00" fill="#000000">bf_set</text>
</a>
</g>
</g>
<!-- Node2330&#45;&gt;Node2349 -->
<g id="edge16" class="edge">
<title>Node2330&#45;&gt;Node2349</title>
<path fill="none" stroke="#191970" d="M142.6888,-288.7422C145.6486,-254.6854 160.2211,-138.1252 224,-75.3189 233.3994,-66.0628 246.5665,-60.3635 258.8479,-56.8599"/>
<polygon fill="#191970" stroke="#191970" points="259.9767,-60.1868 268.8538,-54.4034 258.3077,-53.3887 259.9767,-60.1868"/>
</g>
<!-- Node2347 -->
<g id="node14" class="node">
<title>Node2347</title>
<g id="a_node14"><a xlink:href="libbf_8h.html#aa6282c789c16c8cf2fe6a8ebd671c6fc" target="_top" xlink:title="bf_set_nan">
<polygon fill="none" stroke="#000000" points="397,-3.8189 397,-22.8189 467,-22.8189 467,-3.8189 397,-3.8189"/>
<text text-anchor="middle" x="432" y="-10.8189" font-family="Helvetica,sans-Serif" font-size="10.00" fill="#000000">bf_set_nan</text>
</a>
</g>
</g>
<!-- Node2330&#45;&gt;Node2347 -->
<g id="edge22" class="edge">
<title>Node2330&#45;&gt;Node2347</title>
<path fill="none" stroke="#191970" d="M143.5054,-288.7799C150.5701,-245.2942 181.8695,-66.488 224,-32.3189 269.5585,4.6304 340.5935,2.47 386.7168,-4.1271"/>
<polygon fill="#191970" stroke="#191970" points="386.3133,-7.6064 396.7325,-5.6851 387.3893,-.6896 386.3133,-7.6064"/>
</g>
<!-- Node2346 -->
<g id="node15" class="node">
<title>Node2346</title>
<g id="a_node15"><a xlink:href="libbf_8h.html#a88d3dcee173f1e4fd4e55000edb04595" target="_top" xlink:title="bf_set_inf">
<polygon fill="none" stroke="#000000" points="507,-345.8189 507,-364.8189 572,-364.8189 572,-345.8189 507,-345.8189"/>
<text text-anchor="middle" x="539.5" y="-352.8189" font-family="Helvetica,sans-Serif" font-size="10.00" fill="#000000">bf_set_inf</text>
</a>
</g>
</g>
<!-- Node2330&#45;&gt;Node2346 -->
<g id="edge20" class="edge">
<title>Node2330&#45;&gt;Node2346</title>
<path fill="none" stroke="#191970" d="M151.496,-308.2567C165.7334,-322.4274 194.1439,-347.9773 224,-359.3189 325.153,-397.7444 359.6818,-388.1478 467,-374.3189 477.9533,-372.9075 489.6128,-370.3435 500.3063,-367.5463"/>
<polygon fill="#191970" stroke="#191970" points="501.4945,-370.8495 510.2083,-364.823 499.6382,-364.1001 501.4945,-370.8495"/>
</g>
<!-- Node2350 -->
<g id="node16" class="node">
<title>Node2350</title>
<g id="a_node16"><a xlink:href="libbf_8c.html#ad6bddd5fff6d7452fe82c4a9e3a49cfa" target="_top" xlink:title="count_cancelled_bits">
<polygon fill="none" stroke="#000000" points="233,-307.8189 233,-326.8189 352,-326.8189 352,-307.8189 233,-307.8189"/>
<text text-anchor="middle" x="292.5" y="-314.8189" font-family="Helvetica,sans-Serif" font-size="10.00" fill="#000000">count_cancelled_bits</text>
</a>
</g>
</g>
<!-- Node2330&#45;&gt;Node2350 -->
<g id="edge24" class="edge">
<title>Node2330&#45;&gt;Node2350</title>
<path fill="none" stroke="#191970" d="M188.383,-304.1746C199.2715,-305.5492 211.1103,-307.0438 222.7715,-308.516"/>
<polygon fill="#191970" stroke="#191970" points="222.5853,-312.0202 232.945,-309.8003 223.4621,-305.0753 222.5853,-312.0202"/>
</g>
<!-- Node2351 -->
<g id="node17" class="node">
<title>Node2351</title>
<g id="a_node17"><a xlink:href="libbf_8c.html#a9efaad53187f85b1afc28c3f67cc72b6" target="_top" xlink:title="get_bits">
<polygon fill="none" stroke="#000000" points="404,-269.8189 404,-288.8189 460,-288.8189 460,-269.8189 404,-269.8189"/>
<text text-anchor="middle" x="432" y="-276.8189" font-family="Helvetica,sans-Serif" font-size="10.00" fill="#000000">get_bits</text>
</a>
</g>
</g>
<!-- Node2330&#45;&gt;Node2351 -->
<g id="edge30" class="edge">
<title>Node2330&#45;&gt;Node2351</title>
<path fill="none" stroke="#191970" d="M188.272,-295.2873C245.2406,-291.5549 340.9298,-285.2856 393.8752,-281.8167"/>
<polygon fill="#191970" stroke="#191970" points="394.1205,-285.3083 403.8702,-281.1619 393.6628,-278.3232 394.1205,-285.3083"/>
</g>
<!-- Node2331&#45;&gt;Node2332 -->
<g id="edge3" class="edge">
<title>Node2331&#45;&gt;Node2332</title>
<path fill="none" stroke="#191970" d="M322.0844,-473.3483C343.4461,-476.2578 372.4325,-480.2058 395.2752,-483.317"/>
<polygon fill="#191970" stroke="#191970" points="394.9078,-486.7991 405.2887,-484.6808 395.8525,-479.8632 394.9078,-486.7991"/>
</g>
<!-- Node2331&#45;&gt;Node2333 -->
<g id="edge4" class="edge">
<title>Node2331&#45;&gt;Node2333</title>
<path fill="none" stroke="#191970" d="M322.0844,-461.2601C341.6428,-455.9323 367.593,-448.8635 389.3673,-442.9321"/>
<polygon fill="#191970" stroke="#191970" points="390.3113,-446.3026 399.0398,-440.2973 388.4715,-439.5487 390.3113,-446.3026"/>
</g>
<!-- Node2335&#45;&gt;Node2336 -->
<g id="edge8" class="edge">
<title>Node2335&#45;&gt;Node2336</title>
<path fill="none" stroke="#191970" d="M361.2144,-214.7734C419.7082,-206.8858 505.2544,-191.8492 576,-165.3189 591.6292,-159.4578 607.9205,-150.2077 620.4666,-142.3015"/>
<polygon fill="#191970" stroke="#191970" points="622.3896,-145.226 628.8771,-136.8498 618.582,-139.3521 622.3896,-145.226"/>
</g>
<!-- Node2337 -->
<g id="node9" class="node">
<title>Node2337</title>
<g id="a_node9"><a xlink:href="libbf_8c.html#a3ac3b86cc31b99a551947240e979c5d7" target="_top" xlink:title="clz">
<polygon fill="none" stroke="#ff0000" points="417,-231.8189 417,-250.8189 447,-250.8189 447,-231.8189 417,-231.8189"/>
<text text-anchor="middle" x="432" y="-238.8189" font-family="Helvetica,sans-Serif" font-size="10.00" fill="#000000">clz</text>
</a>
</g>
</g>
<!-- Node2335&#45;&gt;Node2337 -->
<g id="edge9" class="edge">
<title>Node2335&#45;&gt;Node2337</title>
<path fill="none" stroke="#191970" d="M361.024,-231.6519C377.3887,-233.8808 393.8434,-236.1219 406.7834,-237.8844"/>
<polygon fill="#191970" stroke="#191970" points="406.3663,-241.3598 416.7472,-239.2415 407.311,-234.4238 406.3663,-241.3598"/>
</g>
<!-- Node2339 -->
<g id="node10" class="node">
<title>Node2339</title>
<g id="a_node10"><a xlink:href="libbf_8c.html#a5a13527071b5331585beae41a51ed3c2" target="_top" xlink:title="__bf_round">
<polygon fill="none" stroke="#ff0000" points="397,-155.8189 397,-174.8189 467,-174.8189 467,-155.8189 397,-155.8189"/>
<text text-anchor="middle" x="432" y="-162.8189" font-family="Helvetica,sans-Serif" font-size="10.00" fill="#000000">__bf_round</text>
</a>
</g>
</g>
<!-- Node2335&#45;&gt;Node2339 -->
<g id="edge10" class="edge">
<title>Node2335&#45;&gt;Node2339</title>
<path fill="none" stroke="#191970" d="M315.8492,-212.7784C338.683,-203.4484 373.6587,-189.1573 399.2646,-178.6947"/>
<polygon fill="#191970" stroke="#191970" points="400.6415,-181.913 408.5747,-174.8905 397.9937,-175.4331 400.6415,-181.913"/>
</g>
<!-- Node2339&#45;&gt;Node2336 -->
<g id="edge11" class="edge">
<title>Node2339&#45;&gt;Node2336</title>
<path fill="none" stroke="#191970" d="M467.1598,-162.1394C496.466,-159.1412 539.2119,-153.9581 576,-146.3189 584.798,-144.492 594.1349,-142.1095 602.944,-139.6524"/>
<polygon fill="#191970" stroke="#191970" points="603.9658,-143.0005 612.6084,-136.8723 602.0305,-136.2733 603.9658,-143.0005"/>
</g>
<!-- Node2339&#45;&gt;Node2348 -->
<g id="edge12" class="edge">
<title>Node2339&#45;&gt;Node2348</title>
<path fill="none" stroke="#191970" d="M459.1268,-155.7299C472.3674,-151.0495 488.4917,-145.3497 502.8129,-140.2874"/>
<polygon fill="#191970" stroke="#191970" points="504.1201,-143.5376 512.3819,-136.9048 501.7871,-136.9378 504.1201,-143.5376"/>
</g>
<!-- Node2344 -->
<g id="node12" class="node">
<title>Node2344</title>
<g id="a_node12"><a xlink:href="libbf_8c.html#a450dfcc66e1b45403f642a8499219f94" target="_top" xlink:title="limb_mask">
<polygon fill="none" stroke="#000000" points="504,-269.8189 504,-288.8189 575,-288.8189 575,-269.8189 504,-269.8189"/>
<text text-anchor="middle" x="539.5" y="-276.8189" font-family="Helvetica,sans-Serif" font-size="10.00" fill="#000000">limb_mask</text>
</a>
</g>
</g>
<!-- Node2339&#45;&gt;Node2344 -->
<g id="edge14" class="edge">
<title>Node2339&#45;&gt;Node2344</title>
<path fill="none" stroke="#191970" d="M441.1654,-175.0385C459.4124,-194.3888 500.4906,-237.9508 523.3596,-262.2026"/>
<polygon fill="#191970" stroke="#191970" points="520.9508,-264.7497 530.3578,-269.6239 526.0436,-259.9472 520.9508,-264.7497"/>
</g>
<!-- Node2348&#45;&gt;Node2336 -->
<g id="edge13" class="edge">
<title>Node2348&#45;&gt;Node2336</title>
<path fill="none" stroke="#191970" d="M576.104,-127.3189C584.4078,-127.3189 593.277,-127.3189 601.7411,-127.3189"/>
<polygon fill="#191970" stroke="#191970" points="601.7993,-130.819 611.7993,-127.3189 601.7993,-123.819 601.7993,-130.819"/>
</g>
<!-- Node2349&#45;&gt;Node2336 -->
<g id="edge17" class="edge">
<title>Node2349&#45;&gt;Node2336</title>
<path fill="none" stroke="#191970" d="M316.3004,-48.8901C366.3659,-44.718 485.4205,-39.764 576,-75.3189 595.4724,-82.9623 613.9037,-98.2477 626.4014,-110.2772"/>
<polygon fill="#191970" stroke="#191970" points="624.1673,-112.9934 633.7087,-117.5991 629.122,-108.0486 624.1673,-112.9934"/>
</g>
<!-- Node2349&#45;&gt;Node2347 -->
<g id="edge18" class="edge">
<title>Node2349&#45;&gt;Node2347</title>
<path fill="none" stroke="#191970" d="M316.1643,-44.8727C335.5493,-39.5922 363.5304,-31.9701 387.1353,-25.5401"/>
<polygon fill="#191970" stroke="#191970" points="388.2175,-28.8729 396.946,-22.8677 386.3776,-22.119 388.2175,-28.8729"/>
</g>
<!-- Node2347&#45;&gt;Node2336 -->
<g id="edge19" class="edge">
<title>Node2347&#45;&gt;Node2336</title>
<path fill="none" stroke="#191970" d="M467.1177,-12.008C497.9588,-12.4418 542.937,-17.0571 576,-37.3189 603.7586,-54.3301 623.671,-87.6355 634.1149,-108.6133"/>
<polygon fill="#191970" stroke="#191970" points="631.0236,-110.2631 638.4741,-117.7958 637.3472,-107.2611 631.0236,-110.2631"/>
</g>
<!-- Node2346&#45;&gt;Node2336 -->
<g id="edge21" class="edge">
<title>Node2346&#45;&gt;Node2336</title>
<path fill="none" stroke="#191970" d="M546.5847,-345.5852C554.4385,-334.5126 567.1619,-315.7082 576,-298.3189 602.8533,-245.4842 625.8008,-179.1204 636.3348,-146.8033"/>
<polygon fill="#191970" stroke="#191970" points="639.7995,-147.4616 639.5291,-136.8703 633.1356,-145.3186 639.7995,-147.4616"/>
</g>
<!-- Node2350&#45;&gt;Node2333 -->
<g id="edge28" class="edge">
<title>Node2350&#45;&gt;Node2333</title>
<path fill="none" stroke="#191970" d="M304.3937,-327.0385C328.3813,-346.6412 382.7741,-391.0913 412.2041,-415.1416"/>
<polygon fill="#191970" stroke="#191970" points="410.1784,-418.0062 420.1364,-421.6239 414.6079,-412.5859 410.1784,-418.0062"/>
</g>
<!-- Node2350&#45;&gt;Node2334 -->
<g id="edge25" class="edge">
<title>Node2350&#45;&gt;Node2334</title>
<path fill="none" stroke="#191970" d="M327.7017,-326.9079C348.9271,-332.6897 375.8628,-340.027 397.0438,-345.7968"/>
<polygon fill="#191970" stroke="#191970" points="396.361,-349.2382 406.9293,-348.4896 398.2008,-342.4843 396.361,-349.2382"/>
</g>
<!-- Node2350&#45;&gt;Node2337 -->
<g id="edge26" class="edge">
<title>Node2350&#45;&gt;Node2337</title>
<path fill="none" stroke="#191970" d="M310.2446,-307.626C331.0297,-296.2754 366.5042,-276.9134 397,-260.3189 400.4199,-258.4579 404.0288,-256.4963 407.5781,-254.5684"/>
<polygon fill="#191970" stroke="#191970" points="409.5447,-257.4833 416.6631,-249.636 406.2048,-251.3315 409.5447,-257.4833"/>
</g>
<!-- Node2350&#45;&gt;Node2344 -->
<g id="edge29" class="edge">
<title>Node2350&#45;&gt;Node2344</title>
<path fill="none" stroke="#191970" d="M352.1805,-313.0194C386.0367,-310.032 429.0895,-305.3107 467,-298.3189 476.9809,-296.4781 487.6102,-293.9952 497.5662,-291.4324"/>
<polygon fill="#191970" stroke="#191970" points="498.4807,-294.8109 507.2488,-288.8637 496.6857,-288.045 498.4807,-294.8109"/>
</g>
<!-- Node2350&#45;&gt;Node2351 -->
<g id="edge27" class="edge">
<title>Node2350&#45;&gt;Node2351</title>
<path fill="none" stroke="#191970" d="M327.7017,-307.7299C347.956,-302.2126 373.41,-295.2789 394.1016,-289.6425"/>
<polygon fill="#191970" stroke="#191970" points="395.1045,-292.9969 403.8331,-286.9916 393.2647,-286.243 395.1045,-292.9969"/>
</g>
</g>
</svg>
