<?xml version="1.0" encoding="UTF-8" standalone="no"?>
<!DOCTYPE svg PUBLIC "-//W3C//DTD SVG 1.1//EN"
 "http://www.w3.org/Graphics/SVG/1.1/DTD/svg11.dtd">
<!-- Generated by graphviz version 2.40.1 (20161225.0304)
 -->
<!-- Title: get_digit Pages: 1 -->
<svg width="279pt" height="66pt"
 viewBox="0.00 0.00 279.00 66.00" xmlns="http://www.w3.org/2000/svg" xmlns:xlink="http://www.w3.org/1999/xlink">
<g id="graph0" class="graph" transform="scale(1 1) rotate(0) translate(4 62)">
<title>get_digit</title>
<!-- Node103 -->
<g id="node1" class="node">
<title>Node103</title>
<polygon fill="#bfbfbf" stroke="#000000" points="0,-19.5 0,-38.5 59,-38.5 59,-19.5 0,-19.5"/>
<text text-anchor="middle" x="29.5" y="-26.5" font-family="Helvetica,sans-Serif" font-size="10.00" fill="#000000">get_digit</text>
</g>
<!-- Node104 -->
<g id="node2" class="node">
<title>Node104</title>
<g id="a_node2"><a xlink:href="libbf_8c.html#aea07e4f7e665f38255c0d83fafc7d38d" target="_top" xlink:title="fast_shr_dec">
<polygon fill="none" stroke="#000000" points="95,-38.5 95,-57.5 173,-57.5 173,-38.5 95,-38.5"/>
<text text-anchor="middle" x="134" y="-45.5" font-family="Helvetica,sans-Serif" font-size="10.00" fill="#000000">fast_shr_dec</text>
</a>
</g>
</g>
<!-- Node103&#45;&gt;Node104 -->
<g id="edge1" class="edge">
<title>Node103&#45;&gt;Node104</title>
<path fill="none" stroke="#191970" d="M59.166,-34.3938C67.2329,-35.8605 76.1891,-37.4889 85.0203,-39.0946"/>
<polygon fill="#191970" stroke="#191970" points="84.4189,-42.5426 94.8837,-40.8879 85.6711,-35.6555 84.4189,-42.5426"/>
</g>
<!-- Node106 -->
<g id="node4" class="node">
<title>Node106</title>
<g id="a_node4"><a xlink:href="libbf_8c.html#a8f60f7f456c1c9e0253279c3694ad37b" target="_top" xlink:title="floor_div">
<polygon fill="none" stroke="#000000" points="104.5,-.5 104.5,-19.5 163.5,-19.5 163.5,-.5 104.5,-.5"/>
<text text-anchor="middle" x="134" y="-7.5" font-family="Helvetica,sans-Serif" font-size="10.00" fill="#000000">floor_div</text>
</a>
</g>
</g>
<!-- Node103&#45;&gt;Node106 -->
<g id="edge3" class="edge">
<title>Node103&#45;&gt;Node106</title>
<path fill="none" stroke="#191970" d="M59.166,-23.6062C70.0868,-21.6206 82.6376,-19.3386 94.3014,-17.2179"/>
<polygon fill="#191970" stroke="#191970" points="95.0473,-20.6398 104.2598,-15.4073 93.795,-13.7527 95.0473,-20.6398"/>
</g>
<!-- Node105 -->
<g id="node3" class="node">
<title>Node105</title>
<g id="a_node3"><a xlink:href="libbf_8c.html#a18ed5ff631711bfffa3ab5c94dcaa953" target="_top" xlink:title="fast_udiv">
<polygon fill="none" stroke="#000000" points="209,-38.5 209,-57.5 271,-57.5 271,-38.5 209,-38.5"/>
<text text-anchor="middle" x="240" y="-45.5" font-family="Helvetica,sans-Serif" font-size="10.00" fill="#000000">fast_udiv</text>
</a>
</g>
</g>
<!-- Node104&#45;&gt;Node105 -->
<g id="edge2" class="edge">
<title>Node104&#45;&gt;Node105</title>
<path fill="none" stroke="#191970" d="M173.1693,-48C181.5549,-48 190.4371,-48 198.8934,-48"/>
<polygon fill="#191970" stroke="#191970" points="198.9351,-51.5001 208.935,-48 198.935,-44.5001 198.9351,-51.5001"/>
</g>
</g>
</svg>
