<?xml version="1.0" encoding="UTF-8" standalone="no"?>
<!DOCTYPE svg PUBLIC "-//W3C//DTD SVG 1.1//EN"
 "http://www.w3.org/Graphics/SVG/1.1/DTD/svg11.dtd">
<!-- Generated by graphviz version 2.40.1 (20161225.0304)
 -->
<!-- Title: re_emit_op Pages: 1 -->
<!--zoomable 104 -->
<svg id="main" version="1.1" xmlns="http://www.w3.org/2000/svg" xmlns:xlink="http://www.w3.org/1999/xlink" xml:space="preserve" onload="init(evt)">
<style type="text/css"><![CDATA[
.edge:hover path { stroke: red; }
.edge:hover polygon { stroke: red; fill: red; }
]]></style>
<script type="text/javascript"><![CDATA[
var edges = document.getElementsByTagName('g');
if (edges && edges.length) {
  for (var i=0;i<edges.length;i++) {
    if (edges[i].id.substr(0,4)=='edge') {
      edges[i].setAttribute('class','edge');
    }
  }
}
]]></script>
        <defs>
                <circle id="rim" cx="0" cy="0" r="7"/>
                <circle id="rim2" cx="0" cy="0" r="3.5"/>
                <g id="zoomPlus">
                        <use xlink:href="#rim" fill="#404040">
                                <set attributeName="fill" to="#808080" begin="zoomplus.mouseover" end="zoomplus.mouseout"/>
                        </use>
                        <path d="M-4,0h8M0,-4v8" fill="none" stroke="white" stroke-width="1.5" pointer-events="none"/>
                </g>
                <g id="zoomMin">
                        <use xlink:href="#rim" fill="#404040">
                                <set attributeName="fill" to="#808080" begin="zoomminus.mouseover" end="zoomminus.mouseout"/>
                        </use>
                        <path d="M-4,0h8" fill="none" stroke="white" stroke-width="1.5" pointer-events="none"/>
                </g>
                <g id="dirArrow">
                        <path fill="none" stroke="white" stroke-width="1.5" d="M0,-3.0v7 M-2.5,-0.5L0,-3.0L2.5,-0.5"/>
                </g>
               <g id="resetDef">
                       <use xlink:href="#rim2" fill="#404040">
                               <set attributeName="fill" to="#808080" begin="reset.mouseover" end="reset.mouseout"/>
                       </use>
               </g>
        </defs>

<script type="text/javascript">
var viewWidth = 967;
var viewHeight = 104;
var sectionId = 'dynsection-12';
</script>
<script xlink:href="svgpan.js"/>
<svg id="graph" class="graph">
<g id="viewport">
<title>re_emit_op</title>
<!-- Node797 -->
<g id="node1" class="node">
<title>Node797</title>
<polygon fill="#bfbfbf" stroke="#000000" points="0,-38.5 0,-57.5 71,-57.5 71,-38.5 0,-38.5"/>
<text text-anchor="middle" x="35.5" y="-45.5" font-family="Helvetica,sans-Serif" font-size="10.00" fill="#000000">re_emit_op</text>
</g>
<!-- Node798 -->
<g id="node2" class="node">
<title>Node798</title>
<g id="a_node2"><a xlink:href="libregexp_8h.html#a9f2d004d841acbf42a7cf0490258b5ab" target="_top" xlink:title="lre_compile">
<polygon fill="none" stroke="#000000" points="536,-38.5 536,-57.5 610,-57.5 610,-38.5 536,-38.5"/>
<text text-anchor="middle" x="573" y="-45.5" font-family="Helvetica,sans-Serif" font-size="10.00" fill="#000000">lre_compile</text>
</a>
</g>
</g>
<!-- Node797&#45;&gt;Node798 -->
<g id="edge1" class="edge">
<title>Node797&#45;&gt;Node798</title>
<path fill="none" stroke="#191970" d="M81.4187,-48C186.0281,-48 440.3719,-48 535.9109,-48"/>
<polygon fill="#191970" stroke="#191970" points="81.1832,-44.5001 71.1831,-48 81.1831,-51.5001 81.1832,-44.5001"/>
</g>
<!-- Node808 -->
<g id="node7" class="node">
<title>Node808</title>
<g id="a_node7"><a xlink:href="libregexp_8c.html#acca34590a18d70f866ad56d67ce309e8" target="_top" xlink:title="re_parse_term">
<polygon fill="none" stroke="#000000" points="107,-19.5 107,-38.5 194,-38.5 194,-19.5 107,-19.5"/>
<text text-anchor="middle" x="150.5" y="-26.5" font-family="Helvetica,sans-Serif" font-size="10.00" fill="#000000">re_parse_term</text>
</a>
</g>
</g>
<!-- Node797&#45;&gt;Node808 -->
<g id="edge6" class="edge">
<title>Node797&#45;&gt;Node808</title>
<path fill="none" stroke="#191970" d="M81.25,-40.4413C89.6258,-39.0575 98.349,-37.6163 106.6672,-36.2419"/>
<polygon fill="#191970" stroke="#191970" points="80.552,-37.0091 71.2563,-42.0924 81.6931,-43.9155 80.552,-37.0091"/>
</g>
<!-- Node799 -->
<g id="node3" class="node">
<title>Node799</title>
<g id="a_node3"><a xlink:href="quickjs_8c.html#ab0bd3fbfe9b7f004c067b103a6d60d03" target="_top" xlink:title="js_compile_regexp">
<polygon fill="none" stroke="#000000" points="646,-38.5 646,-57.5 754,-57.5 754,-38.5 646,-38.5"/>
<text text-anchor="middle" x="700" y="-45.5" font-family="Helvetica,sans-Serif" font-size="10.00" fill="#000000">js_compile_regexp</text>
</a>
</g>
</g>
<!-- Node798&#45;&gt;Node799 -->
<g id="edge2" class="edge">
<title>Node798&#45;&gt;Node799</title>
<path fill="none" stroke="#191970" d="M620.2888,-48C628.5545,-48 637.213,-48 645.6513,-48"/>
<polygon fill="#191970" stroke="#191970" points="620.0751,-44.5001 610.0751,-48 620.075,-51.5001 620.0751,-44.5001"/>
</g>
<!-- Node800 -->
<g id="node4" class="node">
<title>Node800</title>
<g id="a_node4"><a xlink:href="quickjs_8c.html#a233052710c228313122c39c231a23ddf" target="_top" xlink:title="js_regexp_constructor">
<polygon fill="none" stroke="#ff0000" points="812.5,-76.5 812.5,-95.5 936.5,-95.5 936.5,-76.5 812.5,-76.5"/>
<text text-anchor="middle" x="874.5" y="-83.5" font-family="Helvetica,sans-Serif" font-size="10.00" fill="#000000">js_regexp_constructor</text>
</a>
</g>
</g>
<!-- Node799&#45;&gt;Node800 -->
<g id="edge3" class="edge">
<title>Node799&#45;&gt;Node800</title>
<path fill="none" stroke="#191970" d="M753.9691,-59.7526C778.6433,-65.1258 807.4948,-71.4086 830.7829,-76.4799"/>
<polygon fill="#191970" stroke="#191970" points="754.5495,-56.297 744.0337,-57.589 753.06,-63.1367 754.5495,-56.297"/>
</g>
<!-- Node806 -->
<g id="node5" class="node">
<title>Node806</title>
<g id="a_node5"><a xlink:href="quickjs_8c.html#af55de7fe1d3513a7230dfbfc1cbeec62" target="_top" xlink:title="js_regexp_compile">
<polygon fill="none" stroke="#000000" points="820.5,-38.5 820.5,-57.5 928.5,-57.5 928.5,-38.5 820.5,-38.5"/>
<text text-anchor="middle" x="874.5" y="-45.5" font-family="Helvetica,sans-Serif" font-size="10.00" fill="#000000">js_regexp_compile</text>
</a>
</g>
</g>
<!-- Node799&#45;&gt;Node806 -->
<g id="edge4" class="edge">
<title>Node799&#45;&gt;Node806</title>
<path fill="none" stroke="#191970" d="M764.3013,-48C782.6945,-48 802.5525,-48 820.2772,-48"/>
<polygon fill="#191970" stroke="#191970" points="764.2564,-44.5001 754.2564,-48 764.2563,-51.5001 764.2564,-44.5001"/>
</g>
<!-- Node807 -->
<g id="node6" class="node">
<title>Node807</title>
<g id="a_node6"><a xlink:href="quickjs_8c.html#aa24c64e9ce871601a39b40dbfee0deb4" target="_top" xlink:title="JS_AddIntrinsicRegExpCompiler">
<polygon fill="none" stroke="#ff0000" points="790,-.5 790,-19.5 959,-19.5 959,-.5 790,-.5"/>
<text text-anchor="middle" x="874.5" y="-7.5" font-family="Helvetica,sans-Serif" font-size="10.00" fill="#000000">JS_AddIntrinsicRegExpCompiler</text>
</a>
</g>
</g>
<!-- Node799&#45;&gt;Node807 -->
<g id="edge5" class="edge">
<title>Node799&#45;&gt;Node807</title>
<path fill="none" stroke="#191970" d="M753.9691,-36.2474C778.6433,-30.8742 807.4948,-24.5914 830.7829,-19.5201"/>
<polygon fill="#191970" stroke="#191970" points="753.06,-32.8633 744.0337,-38.411 754.5495,-39.703 753.06,-32.8633"/>
</g>
<!-- Node809 -->
<g id="node8" class="node">
<title>Node809</title>
<g id="a_node8"><a xlink:href="libregexp_8c.html#a87dce3150c68b8a079854274dd39243c" target="_top" xlink:title="re_parse_alternative">
<polygon fill="none" stroke="#000000" points="230,-19.5 230,-38.5 347,-38.5 347,-19.5 230,-19.5"/>
<text text-anchor="middle" x="288.5" y="-26.5" font-family="Helvetica,sans-Serif" font-size="10.00" fill="#000000">re_parse_alternative</text>
</a>
</g>
</g>
<!-- Node808&#45;&gt;Node809 -->
<g id="edge7" class="edge">
<title>Node808&#45;&gt;Node809</title>
<path fill="none" stroke="#191970" d="M204.2557,-29C212.6888,-29 221.4416,-29 229.9756,-29"/>
<polygon fill="#191970" stroke="#191970" points="204.1641,-25.5001 194.1641,-29 204.164,-32.5001 204.1641,-25.5001"/>
</g>
<!-- Node810 -->
<g id="node9" class="node">
<title>Node810</title>
<g id="a_node9"><a xlink:href="libregexp_8c.html#af445f369f2ccbbc81596e0fbed929b7e" target="_top" xlink:title="re_parse_disjunction">
<polygon fill="none" stroke="#000000" points="383,-19.5 383,-38.5 500,-38.5 500,-19.5 383,-19.5"/>
<text text-anchor="middle" x="441.5" y="-26.5" font-family="Helvetica,sans-Serif" font-size="10.00" fill="#000000">re_parse_disjunction</text>
</a>
</g>
</g>
<!-- Node809&#45;&gt;Node810 -->
<g id="edge8" class="edge">
<title>Node809&#45;&gt;Node810</title>
<path fill="none" stroke="#191970" d="M357.4932,-29C365.9927,-29 374.617,-29 382.9409,-29"/>
<polygon fill="#191970" stroke="#191970" points="357.2163,-25.5001 347.2162,-29 357.2162,-32.5001 357.2163,-25.5001"/>
</g>
<!-- Node810&#45;&gt;Node798 -->
<g id="edge10" class="edge">
<title>Node810&#45;&gt;Node798</title>
<path fill="none" stroke="#191970" d="M510.2365,-38.9315C519.0165,-40.2001 527.7253,-41.4584 535.735,-42.6157"/>
<polygon fill="#191970" stroke="#191970" points="510.7246,-35.4658 500.3269,-37.4997 509.7235,-42.3938 510.7246,-35.4658"/>
</g>
<!-- Node810&#45;&gt;Node808 -->
<g id="edge9" class="edge">
<title>Node810&#45;&gt;Node808</title>
<path fill="none" stroke="#191970" d="M393.2186,-17.3753C378.4747,-14.3451 362.1536,-11.5083 347,-10 295.2557,-4.8497 281.6427,-3.9146 230,-10 214.2155,-11.86 197.0257,-15.7292 182.6814,-19.4936"/>
<polygon fill="#191970" stroke="#191970" points="392.6303,-20.8284 403.1402,-19.4901 394.0896,-13.9822 392.6303,-20.8284"/>
</g>
</g>
</svg>
        <g id="navigator" transform="translate(0 0)" fill="#404254">
                <rect fill="#f2f5e9" fill-opacity="0.5" stroke="#606060" stroke-width=".5" x="0" y="0" width="60" height="60"/>
                <use id="zoomplus" xlink:href="#zoomPlus" x="17" y="9" onmousedown="handleZoom(evt,'in')"/>
                <use id="zoomminus" xlink:href="#zoomMin" x="42" y="9" onmousedown="handleZoom(evt,'out')"/>
                <use id="reset" xlink:href="#resetDef" x="30" y="36" onmousedown="handleReset()"/>
                <g id="arrowUp" xlink:href="#dirArrow" transform="translate(30 24)" onmousedown="handlePan(0,-1)">
                  <use xlink:href="#rim" fill="#404040">
                        <set attributeName="fill" to="#808080" begin="arrowUp.mouseover" end="arrowUp.mouseout"/>
                  </use>
                  <path fill="none" stroke="white" stroke-width="1.5" d="M0,-3.0v7 M-2.5,-0.5L0,-3.0L2.5,-0.5"/>
                </g>
                <g id="arrowRight" xlink:href="#dirArrow" transform="rotate(90) translate(36 -43)" onmousedown="handlePan(1,0)">
                  <use xlink:href="#rim" fill="#404040">
                        <set attributeName="fill" to="#808080" begin="arrowRight.mouseover" end="arrowRight.mouseout"/>
                  </use>
                  <path fill="none" stroke="white" stroke-width="1.5" d="M0,-3.0v7 M-2.5,-0.5L0,-3.0L2.5,-0.5"/>
                </g>
                <g id="arrowDown" xlink:href="#dirArrow" transform="rotate(180) translate(-30 -48)" onmousedown="handlePan(0,1)">
                  <use xlink:href="#rim" fill="#404040">
                        <set attributeName="fill" to="#808080" begin="arrowDown.mouseover" end="arrowDown.mouseout"/>
                  </use>
                  <path fill="none" stroke="white" stroke-width="1.5" d="M0,-3.0v7 M-2.5,-0.5L0,-3.0L2.5,-0.5"/>
                </g>
                <g id="arrowLeft" xlink:href="#dirArrow" transform="rotate(270) translate(-36 17)" onmousedown="handlePan(-1,0)">
                  <use xlink:href="#rim" fill="#404040">
                        <set attributeName="fill" to="#808080" begin="arrowLeft.mouseover" end="arrowLeft.mouseout"/>
                  </use>
                  <path fill="none" stroke="white" stroke-width="1.5" d="M0,-3.0v7 M-2.5,-0.5L0,-3.0L2.5,-0.5"/>
                </g>
        </g>
        <svg viewBox="0 0 15 15" width="100%" height="30px" preserveAspectRatio="xMaxYMin meet">
         <g id="arrow_out" transform="scale(0.3 0.3)">
          <a xlink:href="libregexp_8c_a9cfa82248f8e07e4f79304fb3c51b6ab_icgraph_org.svg" target="_base">
           <rect id="button" ry="5" rx="5" y="6" x="6" height="38" width="38"
                fill="#f2f5e9" fill-opacity="0.5" stroke="#606060" stroke-width="1.0"/>
           <path id="arrow"
             d="M 11.500037,31.436501 C 11.940474,20.09759 22.043105,11.32322 32.158766,21.979434 L 37.068811,17.246167 C 37.068811,17.246167 37.088388,32 37.088388,32 L 22.160133,31.978069 C 22.160133,31.978069 26.997745,27.140456 26.997745,27.140456 C 18.528582,18.264221 13.291696,25.230495 11.500037,31.436501 z"
             style="fill:#404040;"/>
          </a>
         </g>
        </svg>
</svg>
