<?xml version="1.0" encoding="UTF-8" standalone="no"?>
<!DOCTYPE svg PUBLIC "-//W3C//DTD SVG 1.1//EN"
 "http://www.w3.org/Graphics/SVG/1.1/DTD/svg11.dtd">
<!-- Generated by graphviz version 2.40.1 (20161225.0304)
 -->
<!-- Title: lre_exec Pages: 1 -->
<!--zoomable 218 -->
<svg id="main" version="1.1" xmlns="http://www.w3.org/2000/svg" xmlns:xlink="http://www.w3.org/1999/xlink" xml:space="preserve" onload="init(evt)">
<style type="text/css"><![CDATA[
.edge:hover path { stroke: red; }
.edge:hover polygon { stroke: red; fill: red; }
]]></style>
<script type="text/javascript"><![CDATA[
var edges = document.getElementsByTagName('g');
if (edges && edges.length) {
  for (var i=0;i<edges.length;i++) {
    if (edges[i].id.substr(0,4)=='edge') {
      edges[i].setAttribute('class','edge');
    }
  }
}
]]></script>
        <defs>
                <circle id="rim" cx="0" cy="0" r="7"/>
                <circle id="rim2" cx="0" cy="0" r="3.5"/>
                <g id="zoomPlus">
                        <use xlink:href="#rim" fill="#404040">
                                <set attributeName="fill" to="#808080" begin="zoomplus.mouseover" end="zoomplus.mouseout"/>
                        </use>
                        <path d="M-4,0h8M0,-4v8" fill="none" stroke="white" stroke-width="1.5" pointer-events="none"/>
                </g>
                <g id="zoomMin">
                        <use xlink:href="#rim" fill="#404040">
                                <set attributeName="fill" to="#808080" begin="zoomminus.mouseover" end="zoomminus.mouseout"/>
                        </use>
                        <path d="M-4,0h8" fill="none" stroke="white" stroke-width="1.5" pointer-events="none"/>
                </g>
                <g id="dirArrow">
                        <path fill="none" stroke="white" stroke-width="1.5" d="M0,-3.0v7 M-2.5,-0.5L0,-3.0L2.5,-0.5"/>
                </g>
               <g id="resetDef">
                       <use xlink:href="#rim2" fill="#404040">
                               <set attributeName="fill" to="#808080" begin="reset.mouseover" end="reset.mouseout"/>
                       </use>
               </g>
        </defs>

<script type="text/javascript">
var viewWidth = 563;
var viewHeight = 218;
var sectionId = 'dynsection-9';
</script>
<script xlink:href="svgpan.js"/>
<svg id="graph" class="graph">
<g id="viewport">
<title>lre_exec</title>
<!-- Node138 -->
<g id="node1" class="node">
<title>Node138</title>
<polygon fill="#bfbfbf" stroke="#000000" points="0,-19.5 0,-38.5 58,-38.5 58,-19.5 0,-19.5"/>
<text text-anchor="middle" x="29" y="-26.5" font-family="Helvetica,sans-Serif" font-size="10.00" fill="#000000">lre_exec</text>
</g>
<!-- Node139 -->
<g id="node2" class="node">
<title>Node139</title>
<g id="a_node2"><a xlink:href="quickjs_8c.html#a9eb2d90f27f684820f9de13189502b7c" target="_top" xlink:title="js_regexp_exec">
<polygon fill="none" stroke="#000000" points="97.5,-38.5 97.5,-57.5 189.5,-57.5 189.5,-38.5 97.5,-38.5"/>
<text text-anchor="middle" x="143.5" y="-45.5" font-family="Helvetica,sans-Serif" font-size="10.00" fill="#000000">js_regexp_exec</text>
</a>
</g>
</g>
<!-- Node138&#45;&gt;Node139 -->
<g id="edge1" class="edge">
<title>Node138&#45;&gt;Node139</title>
<path fill="none" stroke="#191970" d="M68.094,-35.4872C77.5394,-37.0546 87.7202,-38.744 97.4517,-40.3588"/>
<polygon fill="#191970" stroke="#191970" points="68.6275,-32.028 58.1894,-33.8437 67.4816,-38.9335 68.6275,-32.028"/>
</g>
<!-- Node148 -->
<g id="node11" class="node">
<title>Node148</title>
<g id="a_node11"><a xlink:href="quickjs_8c.html#a14fa3c10f581e1cd38b349913f47fb43" target="_top" xlink:title="JS_RegExpDelete">
<polygon fill="none" stroke="#000000" points="94,-.5 94,-19.5 193,-19.5 193,-.5 94,-.5"/>
<text text-anchor="middle" x="143.5" y="-7.5" font-family="Helvetica,sans-Serif" font-size="10.00" fill="#000000">JS_RegExpDelete</text>
</a>
</g>
</g>
<!-- Node138&#45;&gt;Node148 -->
<g id="edge11" class="edge">
<title>Node138&#45;&gt;Node148</title>
<path fill="none" stroke="#191970" d="M68.2816,-22.4817C76.5297,-21.113 85.3314,-19.6524 93.9004,-18.2305"/>
<polygon fill="#191970" stroke="#191970" points="67.4816,-19.0665 58.1894,-24.1563 68.6275,-25.972 67.4816,-19.0665"/>
</g>
<!-- Node140 -->
<g id="node3" class="node">
<title>Node140</title>
<g id="a_node3"><a xlink:href="quickjs_8c.html#ab737681b4f1a426c560df37c1304c9d6" target="_top" xlink:title="JS_RegExpExec">
<polygon fill="none" stroke="#000000" points="246.5,-76.5 246.5,-95.5 336.5,-95.5 336.5,-76.5 246.5,-76.5"/>
<text text-anchor="middle" x="291.5" y="-83.5" font-family="Helvetica,sans-Serif" font-size="10.00" fill="#000000">JS_RegExpExec</text>
</a>
</g>
</g>
<!-- Node139&#45;&gt;Node140 -->
<g id="edge2" class="edge">
<title>Node139&#45;&gt;Node140</title>
<path fill="none" stroke="#191970" d="M190.6735,-60.1121C211.2856,-65.4044 235.1093,-71.5213 254.4219,-76.4799"/>
<polygon fill="#191970" stroke="#191970" points="191.4029,-56.6859 180.8466,-57.589 189.662,-63.466 191.4029,-56.6859"/>
</g>
<!-- Node147 -->
<g id="node10" class="node">
<title>Node147</title>
<g id="a_node10"><a xlink:href="quickjs_8c.html#a55de0909f8b4c06625f67b2fdb670279" target="_top" xlink:title="js_is_standard_regexp">
<polygon fill="none" stroke="#000000" points="229,-38.5 229,-57.5 354,-57.5 354,-38.5 229,-38.5"/>
<text text-anchor="middle" x="291.5" y="-45.5" font-family="Helvetica,sans-Serif" font-size="10.00" fill="#000000">js_is_standard_regexp</text>
</a>
</g>
</g>
<!-- Node139&#45;&gt;Node147 -->
<g id="edge9" class="edge">
<title>Node139&#45;&gt;Node147</title>
<path fill="none" stroke="#191970" d="M199.6875,-48C209.2429,-48 219.2196,-48 228.9274,-48"/>
<polygon fill="#191970" stroke="#191970" points="199.5169,-44.5001 189.5168,-48 199.5168,-51.5001 199.5169,-44.5001"/>
</g>
<!-- Node141 -->
<g id="node4" class="node">
<title>Node141</title>
<g id="a_node4"><a xlink:href="quickjs_8c.html#acda1b1a97bfde7e280456c5969b7a2a3" target="_top" xlink:title="js_regexp_test">
<polygon fill="none" stroke="#000000" points="428.5,-190.5 428.5,-209.5 516.5,-209.5 516.5,-190.5 428.5,-190.5"/>
<text text-anchor="middle" x="472.5" y="-197.5" font-family="Helvetica,sans-Serif" font-size="10.00" fill="#000000">js_regexp_test</text>
</a>
</g>
</g>
<!-- Node140&#45;&gt;Node141 -->
<g id="edge3" class="edge">
<title>Node140&#45;&gt;Node141</title>
<path fill="none" stroke="#191970" d="M304.6729,-103.581C321.8615,-125.2214 354.021,-161.4922 390,-181 401.6287,-187.3051 415.2777,-191.5252 428.0892,-194.3471"/>
<polygon fill="#191970" stroke="#191970" points="307.3422,-101.3117 298.4499,-95.5516 301.8093,-105.5998 307.3422,-101.3117"/>
</g>
<!-- Node142 -->
<g id="node5" class="node">
<title>Node142</title>
<g id="a_node5"><a xlink:href="quickjs_8c.html#a41fc4304b39616e7be3500fe6ec881c2" target="_top" xlink:title="js_regexp_Symbol_match">
<polygon fill="none" stroke="#000000" points="401.5,-152.5 401.5,-171.5 543.5,-171.5 543.5,-152.5 401.5,-152.5"/>
<text text-anchor="middle" x="472.5" y="-159.5" font-family="Helvetica,sans-Serif" font-size="10.00" fill="#000000">js_regexp_Symbol_match</text>
</a>
</g>
</g>
<!-- Node140&#45;&gt;Node142 -->
<g id="edge4" class="edge">
<title>Node140&#45;&gt;Node142</title>
<path fill="none" stroke="#191970" d="M313.5822,-101.3606C332.9334,-114.1766 362.2309,-132.0541 390,-143 399.5717,-146.7729 410.0773,-149.9032 420.2903,-152.46"/>
<polygon fill="#191970" stroke="#191970" points="315.4309,-98.3859 305.1821,-95.7001 311.5191,-104.1909 315.4309,-98.3859"/>
</g>
<!-- Node143 -->
<g id="node6" class="node">
<title>Node143</title>
<g id="a_node6"><a xlink:href="quickjs_8c.html#aeb6df5fcffc6fecfac1e9b0d709e99c5" target="_top" xlink:title="js_regexp_string_iterator_next">
<polygon fill="none" stroke="#000000" points="390,-114.5 390,-133.5 555,-133.5 555,-114.5 390,-114.5"/>
<text text-anchor="middle" x="472.5" y="-121.5" font-family="Helvetica,sans-Serif" font-size="10.00" fill="#000000">js_regexp_string_iterator_next</text>
</a>
</g>
</g>
<!-- Node140&#45;&gt;Node143 -->
<g id="edge5" class="edge">
<title>Node140&#45;&gt;Node143</title>
<path fill="none" stroke="#191970" d="M346.7139,-97.5919C372.5052,-103.0066 402.83,-109.3732 427.242,-114.4983"/>
<polygon fill="#191970" stroke="#191970" points="347.2128,-94.1204 336.707,-95.491 345.7745,-100.971 347.2128,-94.1204"/>
</g>
<!-- Node144 -->
<g id="node7" class="node">
<title>Node144</title>
<g id="a_node7"><a xlink:href="quickjs_8c.html#a6a77bcdb9f7f18c13c108c99a198708b" target="_top" xlink:title="js_regexp_Symbol_replace">
<polygon fill="none" stroke="#000000" points="399,-.5 399,-19.5 546,-19.5 546,-.5 399,-.5"/>
<text text-anchor="middle" x="472.5" y="-7.5" font-family="Helvetica,sans-Serif" font-size="10.00" fill="#000000">js_regexp_Symbol_replace</text>
</a>
</g>
</g>
<!-- Node140&#45;&gt;Node144 -->
<g id="edge6" class="edge">
<title>Node140&#45;&gt;Node144</title>
<path fill="none" stroke="#191970" d="M343.2665,-72.6354C347.0027,-70.9593 350.6239,-69.0875 354,-67 373.7875,-54.7653 369.8036,-40.5473 390,-29 396.7626,-25.1335 404.2611,-22.0536 411.901,-19.6003"/>
<polygon fill="#191970" stroke="#191970" points="341.8049,-69.4503 333.8166,-76.4101 344.4015,-75.9509 341.8049,-69.4503"/>
</g>
<!-- Node145 -->
<g id="node8" class="node">
<title>Node145</title>
<g id="a_node8"><a xlink:href="quickjs_8c.html#af315d0f35b4b11e5957b904c98bf1c0d" target="_top" xlink:title="js_regexp_Symbol_search">
<polygon fill="none" stroke="#000000" points="401,-76.5 401,-95.5 544,-95.5 544,-76.5 401,-76.5"/>
<text text-anchor="middle" x="472.5" y="-83.5" font-family="Helvetica,sans-Serif" font-size="10.00" fill="#000000">js_regexp_Symbol_search</text>
</a>
</g>
</g>
<!-- Node140&#45;&gt;Node145 -->
<g id="edge7" class="edge">
<title>Node140&#45;&gt;Node145</title>
<path fill="none" stroke="#191970" d="M346.9993,-86C363.9751,-86 382.8932,-86 400.7863,-86"/>
<polygon fill="#191970" stroke="#191970" points="346.7071,-82.5001 336.707,-86 346.707,-89.5001 346.7071,-82.5001"/>
</g>
<!-- Node146 -->
<g id="node9" class="node">
<title>Node146</title>
<g id="a_node9"><a xlink:href="quickjs_8c.html#a79872a6d9d139e36d5d1894d16132024" target="_top" xlink:title="js_regexp_Symbol_split">
<polygon fill="none" stroke="#000000" points="406.5,-38.5 406.5,-57.5 538.5,-57.5 538.5,-38.5 406.5,-38.5"/>
<text text-anchor="middle" x="472.5" y="-45.5" font-family="Helvetica,sans-Serif" font-size="10.00" fill="#000000">js_regexp_Symbol_split</text>
</a>
</g>
</g>
<!-- Node140&#45;&gt;Node146 -->
<g id="edge8" class="edge">
<title>Node140&#45;&gt;Node146</title>
<path fill="none" stroke="#191970" d="M346.7139,-74.4081C372.5052,-68.9934 402.83,-62.6268 427.242,-57.5017"/>
<polygon fill="#191970" stroke="#191970" points="345.7745,-71.029 336.707,-76.509 347.2128,-77.8796 345.7745,-71.029"/>
</g>
<!-- Node147&#45;&gt;Node144 -->
<g id="edge10" class="edge">
<title>Node147&#45;&gt;Node144</title>
<path fill="none" stroke="#191970" d="M347.1384,-36.319C372.8066,-30.9301 402.8915,-24.6139 427.1545,-19.5201"/>
<polygon fill="#191970" stroke="#191970" points="346.2414,-32.9309 337.1739,-38.411 347.6797,-39.7816 346.2414,-32.9309"/>
</g>
<!-- Node148&#45;&gt;Node144 -->
<g id="edge12" class="edge">
<title>Node148&#45;&gt;Node144</title>
<path fill="none" stroke="#191970" d="M203.398,-10C258.3898,-10 340.0337,-10 398.9624,-10"/>
<polygon fill="#191970" stroke="#191970" points="203.1109,-6.5001 193.1108,-10 203.1108,-13.5001 203.1109,-6.5001"/>
</g>
</g>
</svg>
        <g id="navigator" transform="translate(0 0)" fill="#404254">
                <rect fill="#f2f5e9" fill-opacity="0.5" stroke="#606060" stroke-width=".5" x="0" y="0" width="60" height="60"/>
                <use id="zoomplus" xlink:href="#zoomPlus" x="17" y="9" onmousedown="handleZoom(evt,'in')"/>
                <use id="zoomminus" xlink:href="#zoomMin" x="42" y="9" onmousedown="handleZoom(evt,'out')"/>
                <use id="reset" xlink:href="#resetDef" x="30" y="36" onmousedown="handleReset()"/>
                <g id="arrowUp" xlink:href="#dirArrow" transform="translate(30 24)" onmousedown="handlePan(0,-1)">
                  <use xlink:href="#rim" fill="#404040">
                        <set attributeName="fill" to="#808080" begin="arrowUp.mouseover" end="arrowUp.mouseout"/>
                  </use>
                  <path fill="none" stroke="white" stroke-width="1.5" d="M0,-3.0v7 M-2.5,-0.5L0,-3.0L2.5,-0.5"/>
                </g>
                <g id="arrowRight" xlink:href="#dirArrow" transform="rotate(90) translate(36 -43)" onmousedown="handlePan(1,0)">
                  <use xlink:href="#rim" fill="#404040">
                        <set attributeName="fill" to="#808080" begin="arrowRight.mouseover" end="arrowRight.mouseout"/>
                  </use>
                  <path fill="none" stroke="white" stroke-width="1.5" d="M0,-3.0v7 M-2.5,-0.5L0,-3.0L2.5,-0.5"/>
                </g>
                <g id="arrowDown" xlink:href="#dirArrow" transform="rotate(180) translate(-30 -48)" onmousedown="handlePan(0,1)">
                  <use xlink:href="#rim" fill="#404040">
                        <set attributeName="fill" to="#808080" begin="arrowDown.mouseover" end="arrowDown.mouseout"/>
                  </use>
                  <path fill="none" stroke="white" stroke-width="1.5" d="M0,-3.0v7 M-2.5,-0.5L0,-3.0L2.5,-0.5"/>
                </g>
                <g id="arrowLeft" xlink:href="#dirArrow" transform="rotate(270) translate(-36 17)" onmousedown="handlePan(-1,0)">
                  <use xlink:href="#rim" fill="#404040">
                        <set attributeName="fill" to="#808080" begin="arrowLeft.mouseover" end="arrowLeft.mouseout"/>
                  </use>
                  <path fill="none" stroke="white" stroke-width="1.5" d="M0,-3.0v7 M-2.5,-0.5L0,-3.0L2.5,-0.5"/>
                </g>
        </g>
        <svg viewBox="0 0 15 15" width="100%" height="30px" preserveAspectRatio="xMaxYMin meet">
         <g id="arrow_out" transform="scale(0.3 0.3)">
          <a xlink:href="libregexp_8h_a55d8c60c9c812ae3e3e23e608b830ce3_icgraph_org.svg" target="_base">
           <rect id="button" ry="5" rx="5" y="6" x="6" height="38" width="38"
                fill="#f2f5e9" fill-opacity="0.5" stroke="#606060" stroke-width="1.0"/>
           <path id="arrow"
             d="M 11.500037,31.436501 C 11.940474,20.09759 22.043105,11.32322 32.158766,21.979434 L 37.068811,17.246167 C 37.068811,17.246167 37.088388,32 37.088388,32 L 22.160133,31.978069 C 22.160133,31.978069 26.997745,27.140456 26.997745,27.140456 C 18.528582,18.264221 13.291696,25.230495 11.500037,31.436501 z"
             style="fill:#404040;"/>
          </a>
         </g>
        </svg>
</svg>
