<?xml version="1.0" encoding="UTF-8" standalone="no"?>
<!DOCTYPE svg PUBLIC "-//W3C//DTD SVG 1.1//EN"
 "http://www.w3.org/Graphics/SVG/1.1/DTD/svg11.dtd">
<!-- Generated by graphviz version 2.40.1 (20161225.0304)
 -->
<!-- Title: re_parse_group_name Pages: 1 -->
<svg width="711pt" height="123pt"
 viewBox="0.00 0.00 711.00 123.00" xmlns="http://www.w3.org/2000/svg" xmlns:xlink="http://www.w3.org/1999/xlink">
<g id="graph0" class="graph" transform="scale(1 1) rotate(0) translate(4 119)">
<title>re_parse_group_name</title>
<!-- Node1264 -->
<g id="node1" class="node">
<title>Node1264</title>
<polygon fill="#bfbfbf" stroke="#000000" points="0,-.5 0,-19.5 125,-19.5 125,-.5 0,-.5"/>
<text text-anchor="middle" x="62.5" y="-7.5" font-family="Helvetica,sans-Serif" font-size="10.00" fill="#000000">re_parse_group_name</text>
</g>
<!-- Node1265 -->
<g id="node2" class="node">
<title>Node1265</title>
<g id="a_node2"><a xlink:href="libregexp_8c.html#abe49cc9b1bcf935c4c8cfcbc932cb407" target="_top" xlink:title="re_parse_captures">
<polygon fill="none" stroke="#000000" points="161,-19.5 161,-38.5 267,-38.5 267,-19.5 161,-19.5"/>
<text text-anchor="middle" x="214" y="-26.5" font-family="Helvetica,sans-Serif" font-size="10.00" fill="#000000">re_parse_captures</text>
</a>
</g>
</g>
<!-- Node1264&#45;&gt;Node1265 -->
<g id="edge1" class="edge">
<title>Node1264&#45;&gt;Node1265</title>
<path fill="none" stroke="#191970" d="M135.3851,-19.1407C143.9034,-20.209 152.47,-21.2834 160.6534,-22.3097"/>
<polygon fill="#191970" stroke="#191970" points="135.7913,-15.6643 125.4335,-17.8926 134.9202,-22.6099 135.7913,-15.6643"/>
</g>
<!-- Node1268 -->
<g id="node5" class="node">
<title>Node1268</title>
<g id="a_node5"><a xlink:href="libregexp_8c.html#acca34590a18d70f866ad56d67ce309e8" target="_top" xlink:title="re_parse_term">
<polygon fill="none" stroke="#ff0000" points="616,-38.5 616,-57.5 703,-57.5 703,-38.5 616,-38.5"/>
<text text-anchor="middle" x="659.5" y="-45.5" font-family="Helvetica,sans-Serif" font-size="10.00" fill="#000000">re_parse_term</text>
</a>
</g>
</g>
<!-- Node1264&#45;&gt;Node1268 -->
<g id="edge7" class="edge">
<title>Node1264&#45;&gt;Node1268</title>
<path fill="none" stroke="#191970" d="M135.3981,-8.5913C174.4458,-8.1922 223.3626,-8.2601 267,-10 406.4433,-15.56 441.4645,-18.1696 580,-35 591.662,-36.4168 604.2302,-38.3035 615.8544,-40.1991"/>
<polygon fill="#191970" stroke="#191970" points="135.1364,-5.0939 125.1773,-8.7086 135.2168,-12.0935 135.1364,-5.0939"/>
</g>
<!-- Node1266 -->
<g id="node3" class="node">
<title>Node1266</title>
<g id="a_node3"><a xlink:href="libregexp_8c.html#a88ae24975d089263922d36934da51581" target="_top" xlink:title="re_count_captures">
<polygon fill="none" stroke="#000000" points="303,-57.5 303,-76.5 409,-76.5 409,-57.5 303,-57.5"/>
<text text-anchor="middle" x="356" y="-64.5" font-family="Helvetica,sans-Serif" font-size="10.00" fill="#000000">re_count_captures</text>
</a>
</g>
</g>
<!-- Node1265&#45;&gt;Node1266 -->
<g id="edge2" class="edge">
<title>Node1265&#45;&gt;Node1266</title>
<path fill="none" stroke="#191970" d="M259.4929,-41.1742C279.1284,-46.4287 301.7657,-52.4866 320.1789,-57.4141"/>
<polygon fill="#191970" stroke="#191970" points="260.3975,-37.7931 249.8326,-38.589 258.5879,-44.5552 260.3975,-37.7931"/>
</g>
<!-- Node1265&#45;&gt;Node1268 -->
<g id="edge6" class="edge">
<title>Node1265&#45;&gt;Node1268</title>
<path fill="none" stroke="#191970" d="M277.5625,-31.7109C369.3574,-35.6258 536.6822,-42.762 615.8105,-46.1367"/>
<polygon fill="#191970" stroke="#191970" points="277.4353,-28.2023 267.2952,-31.273 277.137,-35.196 277.4353,-28.2023"/>
</g>
<!-- Node1267 -->
<g id="node4" class="node">
<title>Node1267</title>
<g id="a_node4"><a xlink:href="libregexp_8c.html#adc25d27f1e668598f417fb0f07f3281f" target="_top" xlink:title="re_has_named_captures">
<polygon fill="none" stroke="#000000" points="445,-95.5 445,-114.5 580,-114.5 580,-95.5 445,-95.5"/>
<text text-anchor="middle" x="512.5" y="-102.5" font-family="Helvetica,sans-Serif" font-size="10.00" fill="#000000">re_has_named_captures</text>
</a>
</g>
</g>
<!-- Node1266&#45;&gt;Node1267 -->
<g id="edge3" class="edge">
<title>Node1266&#45;&gt;Node1267</title>
<path fill="none" stroke="#191970" d="M405.2892,-78.968C427.2203,-84.2931 452.6849,-90.4762 473.2924,-95.4799"/>
<polygon fill="#191970" stroke="#191970" points="406.0351,-75.5475 395.4916,-76.589 404.3833,-82.3498 406.0351,-75.5475"/>
</g>
<!-- Node1266&#45;&gt;Node1268 -->
<g id="edge5" class="edge">
<title>Node1266&#45;&gt;Node1268</title>
<path fill="none" stroke="#191970" d="M419.4989,-63.0248C478.3042,-59.3434 564.2075,-53.9656 615.7072,-50.7416"/>
<polygon fill="#191970" stroke="#191970" points="418.9747,-59.5507 409.213,-63.6687 419.4121,-66.537 418.9747,-59.5507"/>
</g>
<!-- Node1267&#45;&gt;Node1268 -->
<g id="edge4" class="edge">
<title>Node1267&#45;&gt;Node1268</title>
<path fill="none" stroke="#191970" d="M550.0278,-92.0458C559.8209,-88.5591 570.3373,-84.7204 580,-81 599.5243,-73.4826 621.4701,-64.318 637.3498,-57.556"/>
<polygon fill="#191970" stroke="#191970" points="548.7986,-88.768 540.5343,-95.3977 551.1291,-95.3687 548.7986,-88.768"/>
</g>
</g>
</svg>
