<?xml version="1.0" encoding="UTF-8" standalone="no"?>
<!DOCTYPE svg PUBLIC "-//W3C//DTD SVG 1.1//EN"
 "http://www.w3.org/Graphics/SVG/1.1/DTD/svg11.dtd">
<!-- Generated by graphviz version 2.40.1 (20161225.0304)
 -->
<!-- Title: lre_compile Pages: 1 -->
<svg width="592pt" height="104pt"
 viewBox="0.00 0.00 592.00 104.00" xmlns="http://www.w3.org/2000/svg" xmlns:xlink="http://www.w3.org/1999/xlink">
<g id="graph0" class="graph" transform="scale(1 1) rotate(0) translate(4 100)">
<title>lre_compile</title>
<!-- Node1736 -->
<g id="node1" class="node">
<title>Node1736</title>
<polygon fill="#bfbfbf" stroke="#000000" points="0,-38.5 0,-57.5 74,-57.5 74,-38.5 0,-38.5"/>
<text text-anchor="middle" x="37" y="-45.5" font-family="Helvetica,sans-Serif" font-size="10.00" fill="#000000">lre_compile</text>
</g>
<!-- Node1737 -->
<g id="node2" class="node">
<title>Node1737</title>
<g id="a_node2"><a xlink:href="quickjs_8c.html#ab0bd3fbfe9b7f004c067b103a6d60d03" target="_top" xlink:title="js_compile_regexp">
<polygon fill="none" stroke="#000000" points="110,-38.5 110,-57.5 218,-57.5 218,-38.5 110,-38.5"/>
<text text-anchor="middle" x="164" y="-45.5" font-family="Helvetica,sans-Serif" font-size="10.00" fill="#000000">js_compile_regexp</text>
</a>
</g>
</g>
<!-- Node1736&#45;&gt;Node1737 -->
<g id="edge1" class="edge">
<title>Node1736&#45;&gt;Node1737</title>
<path fill="none" stroke="#191970" d="M84.2888,-48C92.5545,-48 101.213,-48 109.6513,-48"/>
<polygon fill="#191970" stroke="#191970" points="84.0751,-44.5001 74.0751,-48 84.075,-51.5001 84.0751,-44.5001"/>
</g>
<!-- Node1738 -->
<g id="node3" class="node">
<title>Node1738</title>
<g id="a_node3"><a xlink:href="quickjs_8c.html#a233052710c228313122c39c231a23ddf" target="_top" xlink:title="js_regexp_constructor">
<polygon fill="none" stroke="#000000" points="276.5,-76.5 276.5,-95.5 400.5,-95.5 400.5,-76.5 276.5,-76.5"/>
<text text-anchor="middle" x="338.5" y="-83.5" font-family="Helvetica,sans-Serif" font-size="10.00" fill="#000000">js_regexp_constructor</text>
</a>
</g>
</g>
<!-- Node1737&#45;&gt;Node1738 -->
<g id="edge2" class="edge">
<title>Node1737&#45;&gt;Node1738</title>
<path fill="none" stroke="#191970" d="M217.9691,-59.7526C242.6433,-65.1258 271.4948,-71.4086 294.7829,-76.4799"/>
<polygon fill="#191970" stroke="#191970" points="218.5495,-56.297 208.0337,-57.589 217.06,-63.1367 218.5495,-56.297"/>
</g>
<!-- Node1744 -->
<g id="node5" class="node">
<title>Node1744</title>
<g id="a_node5"><a xlink:href="quickjs_8c.html#af55de7fe1d3513a7230dfbfc1cbeec62" target="_top" xlink:title="js_regexp_compile">
<polygon fill="none" stroke="#000000" points="284.5,-38.5 284.5,-57.5 392.5,-57.5 392.5,-38.5 284.5,-38.5"/>
<text text-anchor="middle" x="338.5" y="-45.5" font-family="Helvetica,sans-Serif" font-size="10.00" fill="#000000">js_regexp_compile</text>
</a>
</g>
</g>
<!-- Node1737&#45;&gt;Node1744 -->
<g id="edge4" class="edge">
<title>Node1737&#45;&gt;Node1744</title>
<path fill="none" stroke="#191970" d="M228.3013,-48C246.6945,-48 266.5525,-48 284.2772,-48"/>
<polygon fill="#191970" stroke="#191970" points="228.2564,-44.5001 218.2564,-48 228.2563,-51.5001 228.2564,-44.5001"/>
</g>
<!-- Node1745 -->
<g id="node6" class="node">
<title>Node1745</title>
<g id="a_node6"><a xlink:href="quickjs_8c.html#aa24c64e9ce871601a39b40dbfee0deb4" target="_top" xlink:title="JS_AddIntrinsicRegExpCompiler">
<polygon fill="none" stroke="#000000" points="254,-.5 254,-19.5 423,-19.5 423,-.5 254,-.5"/>
<text text-anchor="middle" x="338.5" y="-7.5" font-family="Helvetica,sans-Serif" font-size="10.00" fill="#000000">JS_AddIntrinsicRegExpCompiler</text>
</a>
</g>
</g>
<!-- Node1737&#45;&gt;Node1745 -->
<g id="edge5" class="edge">
<title>Node1737&#45;&gt;Node1745</title>
<path fill="none" stroke="#191970" d="M217.9691,-36.2474C242.6433,-30.8742 271.4948,-24.5914 294.7829,-19.5201"/>
<polygon fill="#191970" stroke="#191970" points="217.06,-32.8633 208.0337,-38.411 218.5495,-39.703 217.06,-32.8633"/>
</g>
<!-- Node1739 -->
<g id="node4" class="node">
<title>Node1739</title>
<g id="a_node4"><a xlink:href="quickjs_8c.html#aafc8241682ce24b6d72e0f237ee85a51" target="_top" xlink:title="JS_AddIntrinsicRegExp">
<polygon fill="none" stroke="#ff0000" points="459,-38.5 459,-57.5 584,-57.5 584,-38.5 459,-38.5"/>
<text text-anchor="middle" x="521.5" y="-45.5" font-family="Helvetica,sans-Serif" font-size="10.00" fill="#000000">JS_AddIntrinsicRegExp</text>
</a>
</g>
</g>
<!-- Node1738&#45;&gt;Node1739 -->
<g id="edge3" class="edge">
<title>Node1738&#45;&gt;Node1739</title>
<path fill="none" stroke="#191970" d="M394.7532,-74.319C420.705,-68.9301 451.1223,-62.6139 475.6534,-57.5201"/>
<polygon fill="#191970" stroke="#191970" points="393.7581,-70.9509 384.6786,-76.411 395.1814,-77.8047 393.7581,-70.9509"/>
</g>
<!-- Node1745&#45;&gt;Node1739 -->
<g id="edge6" class="edge">
<title>Node1745&#45;&gt;Node1739</title>
<path fill="none" stroke="#191970" d="M394.7532,-21.681C420.705,-27.0699 451.1223,-33.3861 475.6534,-38.4799"/>
<polygon fill="#191970" stroke="#191970" points="395.1814,-18.1953 384.6786,-19.589 393.7581,-25.0491 395.1814,-18.1953"/>
</g>
</g>
</svg>
