<?xml version="1.0" encoding="UTF-8" standalone="no"?>
<!DOCTYPE svg PUBLIC "-//W3C//DTD SVG 1.1//EN"
 "http://www.w3.org/Graphics/SVG/1.1/DTD/svg11.dtd">
<!-- Generated by graphviz version 2.40.1 (20161225.0304)
 -->
<!-- Title: unicode_find_name Pages: 1 -->
<svg width="599pt" height="104pt"
 viewBox="0.00 0.00 599.00 104.00" xmlns="http://www.w3.org/2000/svg" xmlns:xlink="http://www.w3.org/1999/xlink">
<g id="graph0" class="graph" transform="scale(1 1) rotate(0) translate(4 100)">
<title>unicode_find_name</title>
<!-- Node776 -->
<g id="node1" class="node">
<title>Node776</title>
<polygon fill="#bfbfbf" stroke="#000000" points="0,-38.5 0,-57.5 111,-57.5 111,-38.5 0,-38.5"/>
<text text-anchor="middle" x="55.5" y="-45.5" font-family="Helvetica,sans-Serif" font-size="10.00" fill="#000000">unicode_find_name</text>
</g>
<!-- Node777 -->
<g id="node2" class="node">
<title>Node777</title>
<g id="a_node2"><a xlink:href="libunicode_8c.html#ae15ce595055a80c448d0e7ea28a3e2d3" target="_top" xlink:title="unicode_general_category">
<polygon fill="none" stroke="#000000" points="147,-76.5 147,-95.5 292,-95.5 292,-76.5 147,-76.5"/>
<text text-anchor="middle" x="219.5" y="-83.5" font-family="Helvetica,sans-Serif" font-size="10.00" fill="#000000">unicode_general_category</text>
</a>
</g>
</g>
<!-- Node776&#45;&gt;Node777 -->
<g id="edge1" class="edge">
<title>Node776&#45;&gt;Node777</title>
<path fill="none" stroke="#191970" d="M106.841,-59.8961C129.8929,-65.2374 156.7211,-71.4537 178.4135,-76.4799"/>
<polygon fill="#191970" stroke="#191970" points="107.4161,-56.4367 96.8841,-57.589 105.836,-63.256 107.4161,-56.4367"/>
</g>
<!-- Node794 -->
<g id="node5" class="node">
<title>Node794</title>
<g id="a_node5"><a xlink:href="libunicode_8c.html#a042c7e38726f6727a9826c4dd2c45832" target="_top" xlink:title="unicode_prop">
<polygon fill="none" stroke="#000000" points="178.5,-38.5 178.5,-57.5 260.5,-57.5 260.5,-38.5 178.5,-38.5"/>
<text text-anchor="middle" x="219.5" y="-45.5" font-family="Helvetica,sans-Serif" font-size="10.00" fill="#000000">unicode_prop</text>
</a>
</g>
</g>
<!-- Node776&#45;&gt;Node794 -->
<g id="edge4" class="edge">
<title>Node776&#45;&gt;Node794</title>
<path fill="none" stroke="#191970" d="M121.2609,-48C140.5215,-48 161.0272,-48 178.2945,-48"/>
<polygon fill="#191970" stroke="#191970" points="121.023,-44.5001 111.0229,-48 121.0229,-51.5001 121.023,-44.5001"/>
</g>
<!-- Node795 -->
<g id="node6" class="node">
<title>Node795</title>
<g id="a_node6"><a xlink:href="libunicode_8c.html#aed9a601406b09f37aad3e07557c8b754" target="_top" xlink:title="unicode_script">
<polygon fill="none" stroke="#000000" points="176,-.5 176,-19.5 263,-19.5 263,-.5 176,-.5"/>
<text text-anchor="middle" x="219.5" y="-7.5" font-family="Helvetica,sans-Serif" font-size="10.00" fill="#000000">unicode_script</text>
</a>
</g>
</g>
<!-- Node776&#45;&gt;Node795 -->
<g id="edge6" class="edge">
<title>Node776&#45;&gt;Node795</title>
<path fill="none" stroke="#191970" d="M106.841,-36.1039C129.8929,-30.7626 156.7211,-24.5463 178.4135,-19.5201"/>
<polygon fill="#191970" stroke="#191970" points="105.836,-32.744 96.8841,-38.411 107.4161,-39.5633 105.836,-32.744"/>
</g>
<!-- Node778 -->
<g id="node3" class="node">
<title>Node778</title>
<g id="a_node3"><a xlink:href="libregexp_8c.html#a24c5604c81a33e66906a1f43227221e8" target="_top" xlink:title="parse_unicode_property">
<polygon fill="none" stroke="#000000" points="328,-38.5 328,-57.5 462,-57.5 462,-38.5 328,-38.5"/>
<text text-anchor="middle" x="395" y="-45.5" font-family="Helvetica,sans-Serif" font-size="10.00" fill="#000000">parse_unicode_property</text>
</a>
</g>
</g>
<!-- Node777&#45;&gt;Node778 -->
<g id="edge2" class="edge">
<title>Node777&#45;&gt;Node778</title>
<path fill="none" stroke="#191970" d="M273.7783,-74.2474C298.594,-68.8742 327.6108,-62.5914 351.0324,-57.5201"/>
<polygon fill="#191970" stroke="#191970" points="272.8189,-70.874 263.7861,-76.411 274.3003,-77.7154 272.8189,-70.874"/>
</g>
<!-- Node779 -->
<g id="node4" class="node">
<title>Node779</title>
<g id="a_node4"><a xlink:href="libregexp_8c.html#ac654c01af0eedad21af5da6e5035f37c" target="_top" xlink:title="get_class_atom">
<polygon fill="none" stroke="#ff0000" points="498,-38.5 498,-57.5 591,-57.5 591,-38.5 498,-38.5"/>
<text text-anchor="middle" x="544.5" y="-45.5" font-family="Helvetica,sans-Serif" font-size="10.00" fill="#000000">get_class_atom</text>
</a>
</g>
</g>
<!-- Node778&#45;&gt;Node779 -->
<g id="edge3" class="edge">
<title>Node778&#45;&gt;Node779</title>
<path fill="none" stroke="#191970" d="M472.4188,-48C481.0304,-48 489.5948,-48 497.6539,-48"/>
<polygon fill="#191970" stroke="#191970" points="472.3152,-44.5001 462.3151,-48 472.3151,-51.5001 472.3152,-44.5001"/>
</g>
<!-- Node794&#45;&gt;Node778 -->
<g id="edge5" class="edge">
<title>Node794&#45;&gt;Node778</title>
<path fill="none" stroke="#191970" d="M270.8079,-48C288.5901,-48 308.8003,-48 327.6755,-48"/>
<polygon fill="#191970" stroke="#191970" points="270.647,-44.5001 260.647,-48 270.6469,-51.5001 270.647,-44.5001"/>
</g>
<!-- Node795&#45;&gt;Node778 -->
<g id="edge7" class="edge">
<title>Node795&#45;&gt;Node778</title>
<path fill="none" stroke="#191970" d="M273.3683,-21.6638C298.3038,-27.0629 327.5518,-33.3958 351.1172,-38.4983"/>
<polygon fill="#191970" stroke="#191970" points="273.8476,-18.1865 263.3333,-19.491 272.3662,-25.028 273.8476,-18.1865"/>
</g>
</g>
</svg>
