<?xml version="1.0" encoding="UTF-8" standalone="no"?>
<!DOCTYPE svg PUBLIC "-//W3C//DTD SVG 1.1//EN"
 "http://www.w3.org/Graphics/SVG/1.1/DTD/svg11.dtd">
<!-- Generated by graphviz version 2.40.1 (20161225.0304)
 -->
<!-- Title: unicode_prop Pages: 1 -->
<!--zoomable 330 -->
<svg id="main" version="1.1" xmlns="http://www.w3.org/2000/svg" xmlns:xlink="http://www.w3.org/1999/xlink" xml:space="preserve" onload="init(evt)">
<style type="text/css"><![CDATA[
.edge:hover path { stroke: red; }
.edge:hover polygon { stroke: red; fill: red; }
]]></style>
<script type="text/javascript"><![CDATA[
var edges = document.getElementsByTagName('g');
if (edges && edges.length) {
  for (var i=0;i<edges.length;i++) {
    if (edges[i].id.substr(0,4)=='edge') {
      edges[i].setAttribute('class','edge');
    }
  }
}
]]></script>
        <defs>
                <circle id="rim" cx="0" cy="0" r="7"/>
                <circle id="rim2" cx="0" cy="0" r="3.5"/>
                <g id="zoomPlus">
                        <use xlink:href="#rim" fill="#404040">
                                <set attributeName="fill" to="#808080" begin="zoomplus.mouseover" end="zoomplus.mouseout"/>
                        </use>
                        <path d="M-4,0h8M0,-4v8" fill="none" stroke="white" stroke-width="1.5" pointer-events="none"/>
                </g>
                <g id="zoomMin">
                        <use xlink:href="#rim" fill="#404040">
                                <set attributeName="fill" to="#808080" begin="zoomminus.mouseover" end="zoomminus.mouseout"/>
                        </use>
                        <path d="M-4,0h8" fill="none" stroke="white" stroke-width="1.5" pointer-events="none"/>
                </g>
                <g id="dirArrow">
                        <path fill="none" stroke="white" stroke-width="1.5" d="M0,-3.0v7 M-2.5,-0.5L0,-3.0L2.5,-0.5"/>
                </g>
               <g id="resetDef">
                       <use xlink:href="#rim2" fill="#404040">
                               <set attributeName="fill" to="#808080" begin="reset.mouseover" end="reset.mouseout"/>
                       </use>
               </g>
        </defs>

<script type="text/javascript">
var viewWidth = 756;
var viewHeight = 330;
var sectionId = 'dynsection-62';
</script>
<script xlink:href="svgpan.js"/>
<svg id="graph" class="graph">
<g id="viewport">
<title>unicode_prop</title>
<!-- Node951 -->
<g id="node1" class="node">
<title>Node951</title>
<polygon fill="#bfbfbf" stroke="#000000" points="0,-236.1674 0,-255.1674 82,-255.1674 82,-236.1674 0,-236.1674"/>
<text text-anchor="middle" x="41" y="-243.1674" font-family="Helvetica,sans-Serif" font-size="10.00" fill="#000000">unicode_prop</text>
</g>
<!-- Node952 -->
<g id="node2" class="node">
<title>Node952</title>
<g id="a_node2"><a xlink:href="libunicode_8h.html#aeade60962a424d84bc260a72311a0745" target="_top" xlink:title="cr_add_interval">
<polygon fill="none" stroke="#000000" points="458,-236.1674 458,-255.1674 550,-255.1674 550,-236.1674 458,-236.1674"/>
<text text-anchor="middle" x="504" y="-243.1674" font-family="Helvetica,sans-Serif" font-size="10.00" fill="#000000">cr_add_interval</text>
</a>
</g>
</g>
<!-- Node951&#45;&gt;Node952 -->
<g id="edge1" class="edge">
<title>Node951&#45;&gt;Node952</title>
<path fill="none" stroke="#191970" d="M59.1609,-255.3074C74.4508,-263.0232 97.1077,-273.535 118,-279.6674 245.4609,-317.0807 288.6097,-340.3202 416,-302.6674 442.757,-294.7589 469.0209,-275.886 485.7896,-262.0139"/>
<polygon fill="#191970" stroke="#191970" points="488.3173,-264.4578 493.6453,-255.3001 483.7694,-259.1364 488.3173,-264.4578"/>
</g>
<!-- Node955 -->
<g id="node5" class="node">
<title>Node955</title>
<g id="a_node5"><a xlink:href="libunicode_8c.html#a35d09b5e2095fe4d202ea26c98871689" target="_top" xlink:title="unicode_case1">
<polygon fill="none" stroke="#000000" points="296,-274.1674 296,-293.1674 385,-293.1674 385,-274.1674 296,-274.1674"/>
<text text-anchor="middle" x="340.5" y="-281.1674" font-family="Helvetica,sans-Serif" font-size="10.00" fill="#000000">unicode_case1</text>
</a>
</g>
</g>
<!-- Node951&#45;&gt;Node955 -->
<g id="edge4" class="edge">
<title>Node951&#45;&gt;Node955</title>
<path fill="none" stroke="#191970" d="M82.0698,-253.7032C93.6605,-255.8162 106.3009,-257.9752 118,-259.6674 174.8993,-267.8978 240.3599,-274.6321 285.4739,-278.8501"/>
<polygon fill="#191970" stroke="#191970" points="285.3525,-282.3537 295.6323,-279.7894 285.9971,-275.3834 285.3525,-282.3537"/>
</g>
<!-- Node956 -->
<g id="node6" class="node">
<title>Node956</title>
<g id="a_node6"><a xlink:href="libunicode_8c.html#a2c7890f229a1126ae81362db9f770003" target="_top" xlink:title="unicode_find_name">
<polygon fill="none" stroke="#000000" points="118,-141.1674 118,-160.1674 229,-160.1674 229,-141.1674 118,-141.1674"/>
<text text-anchor="middle" x="173.5" y="-148.1674" font-family="Helvetica,sans-Serif" font-size="10.00" fill="#000000">unicode_find_name</text>
</a>
</g>
</g>
<!-- Node951&#45;&gt;Node956 -->
<g id="edge6" class="edge">
<title>Node951&#45;&gt;Node956</title>
<path fill="none" stroke="#191970" d="M48.2575,-236.1097C60.8154,-220.1866 88.136,-188.1564 118,-169.6674 121.2201,-167.6738 124.6759,-165.8585 128.2308,-164.2117"/>
<polygon fill="#191970" stroke="#191970" points="129.8904,-167.3121 137.779,-160.2395 127.2017,-160.8491 129.8904,-167.3121"/>
</g>
<!-- Node957 -->
<g id="node7" class="node">
<title>Node957</title>
<g id="a_node7"><a xlink:href="libunicode_8c.html#a91155ef56a166c73950e8c0954813fa3" target="_top" xlink:title="unicode_prop1">
<polygon fill="none" stroke="#000000" points="296.5,-236.1674 296.5,-255.1674 384.5,-255.1674 384.5,-236.1674 296.5,-236.1674"/>
<text text-anchor="middle" x="340.5" y="-243.1674" font-family="Helvetica,sans-Serif" font-size="10.00" fill="#000000">unicode_prop1</text>
</a>
</g>
</g>
<!-- Node951&#45;&gt;Node957 -->
<g id="edge7" class="edge">
<title>Node951&#45;&gt;Node957</title>
<path fill="none" stroke="#191970" d="M82.0162,-245.6674C134.9124,-245.6674 227.0797,-245.6674 285.8706,-245.6674"/>
<polygon fill="#191970" stroke="#191970" points="286.0836,-249.1675 296.0836,-245.6674 286.0836,-242.1675 286.0836,-249.1675"/>
</g>
<!-- Node958 -->
<g id="node8" class="node">
<title>Node958</title>
<g id="a_node8"><a xlink:href="libunicode_8c.html#a58dbb07f758bbf3de6c87a0647ec72e3" target="_top" xlink:title="unicode_prop_ops">
<polygon fill="none" stroke="#000000" points="121.5,-179.1674 121.5,-198.1674 225.5,-198.1674 225.5,-179.1674 121.5,-179.1674"/>
<text text-anchor="middle" x="173.5" y="-186.1674" font-family="Helvetica,sans-Serif" font-size="10.00" fill="#000000">unicode_prop_ops</text>
</a>
</g>
</g>
<!-- Node951&#45;&gt;Node958 -->
<g id="edge9" class="edge">
<title>Node951&#45;&gt;Node958</title>
<path fill="none" stroke="#191970" d="M63.1775,-236.1269C84.6745,-226.8792 117.5017,-212.7573 141.7623,-202.3206"/>
<polygon fill="#191970" stroke="#191970" points="143.4472,-205.406 151.2501,-198.2391 140.6809,-198.9758 143.4472,-205.406"/>
</g>
<!-- Node953 -->
<g id="node3" class="node">
<title>Node953</title>
<g id="a_node3"><a xlink:href="libunicode_8c.html#a7b73e29a0e2b936a11426d602faac462" target="_top" xlink:title="cr_realloc">
<polygon fill="none" stroke="#000000" points="592,-122.1674 592,-141.1674 656,-141.1674 656,-122.1674 592,-122.1674"/>
<text text-anchor="middle" x="624" y="-129.1674" font-family="Helvetica,sans-Serif" font-size="10.00" fill="#000000">cr_realloc</text>
</a>
</g>
</g>
<!-- Node952&#45;&gt;Node953 -->
<g id="edge2" class="edge">
<title>Node952&#45;&gt;Node953</title>
<path fill="none" stroke="#191970" d="M514.2311,-235.9479C534.6885,-216.5134 580.8538,-172.6563 606.3146,-148.4685"/>
<polygon fill="#191970" stroke="#191970" points="608.9554,-150.7874 613.7948,-141.3624 604.1341,-145.7124 608.9554,-150.7874"/>
</g>
<!-- Node954 -->
<g id="node4" class="node">
<title>Node954</title>
<g id="a_node4"><a xlink:href="cutils_8h.html#a94f155fcce337a2b9d4719ed8042cbbe" target="_top" xlink:title="max_int">
<polygon fill="none" stroke="#000000" points="692,-122.1674 692,-141.1674 748,-141.1674 748,-122.1674 692,-122.1674"/>
<text text-anchor="middle" x="720" y="-129.1674" font-family="Helvetica,sans-Serif" font-size="10.00" fill="#000000">max_int</text>
</a>
</g>
</g>
<!-- Node953&#45;&gt;Node954 -->
<g id="edge3" class="edge">
<title>Node953&#45;&gt;Node954</title>
<path fill="none" stroke="#191970" d="M656.2337,-131.6674C664.4434,-131.6674 673.3454,-131.6674 681.8207,-131.6674"/>
<polygon fill="#191970" stroke="#191970" points="681.8718,-135.1675 691.8718,-131.6674 681.8717,-128.1675 681.8718,-135.1675"/>
</g>
<!-- Node955&#45;&gt;Node952 -->
<g id="edge5" class="edge">
<title>Node955&#45;&gt;Node952</title>
<path fill="none" stroke="#191970" d="M381.758,-274.0784C403.4307,-269.0413 430.1832,-262.8236 453.1303,-257.4904"/>
<polygon fill="#191970" stroke="#191970" points="454.0907,-260.8605 463.0387,-255.1875 452.506,-254.0423 454.0907,-260.8605"/>
</g>
<!-- Node957&#45;&gt;Node952 -->
<g id="edge8" class="edge">
<title>Node957&#45;&gt;Node952</title>
<path fill="none" stroke="#191970" d="M384.7455,-245.6674C404.0815,-245.6674 426.9915,-245.6674 447.5376,-245.6674"/>
<polygon fill="#191970" stroke="#191970" points="447.7204,-249.1675 457.7204,-245.6674 447.7204,-242.1675 447.7204,-249.1675"/>
</g>
<!-- Node958&#45;&gt;Node955 -->
<g id="edge22" class="edge">
<title>Node958&#45;&gt;Node955</title>
<path fill="none" stroke="#191970" d="M182.1109,-198.1852C197.2636,-214.3427 230.3838,-247.091 265,-264.6674 271.5456,-267.991 278.7122,-270.7595 285.9415,-273.0589"/>
<polygon fill="#191970" stroke="#191970" points="285.2073,-276.4901 295.7863,-275.9118 287.1556,-269.7667 285.2073,-276.4901"/>
</g>
<!-- Node958&#45;&gt;Node957 -->
<g id="edge25" class="edge">
<title>Node958&#45;&gt;Node957</title>
<path fill="none" stroke="#191970" d="M194.2461,-198.3133C212.5785,-206.587 240.1826,-218.441 265,-226.6674 272.3972,-229.1195 280.2921,-231.4308 288.0852,-233.5403"/>
<polygon fill="#191970" stroke="#191970" points="287.2965,-236.9517 297.857,-236.1 289.0703,-230.1802 287.2965,-236.9517"/>
</g>
<!-- Node959 -->
<g id="node9" class="node">
<title>Node959</title>
<g id="a_node9"><a xlink:href="libunicode_8c.html#a9bd15878dff9b34a1cbd091f1559b8b5" target="_top" xlink:title="cr_copy">
<polygon fill="none" stroke="#000000" points="477,-8.1674 477,-27.1674 531,-27.1674 531,-8.1674 477,-8.1674"/>
<text text-anchor="middle" x="504" y="-15.1674" font-family="Helvetica,sans-Serif" font-size="10.00" fill="#000000">cr_copy</text>
</a>
</g>
</g>
<!-- Node958&#45;&gt;Node959 -->
<g id="edge10" class="edge">
<title>Node958&#45;&gt;Node959</title>
<path fill="none" stroke="#191970" d="M216.164,-179.0644C220.9405,-176.6118 225.3799,-173.5328 229,-169.6674 270.861,-124.9709 217.8832,-75.7843 265,-36.6674 321.9267,10.5937 415.0267,1.3835 466.6203,-8.6618"/>
<polygon fill="#191970" stroke="#191970" points="466.1668,-12.1418 476.6673,-10.7317 467.5793,-5.2858 466.1668,-12.1418"/>
</g>
<!-- Node960 -->
<g id="node10" class="node">
<title>Node960</title>
<g id="a_node10"><a xlink:href="libunicode_8c.html#a32dd1af21800853555eaa260ddffeff4" target="_top" xlink:title="cr_free">
<polygon fill="none" stroke="#000000" points="315.5,-160.1674 315.5,-179.1674 365.5,-179.1674 365.5,-160.1674 315.5,-160.1674"/>
<text text-anchor="middle" x="340.5" y="-167.1674" font-family="Helvetica,sans-Serif" font-size="10.00" fill="#000000">cr_free</text>
</a>
</g>
</g>
<!-- Node958&#45;&gt;Node960 -->
<g id="edge12" class="edge">
<title>Node958&#45;&gt;Node960</title>
<path fill="none" stroke="#191970" d="M225.8816,-182.7079C251.7624,-179.7633 282.2976,-176.2893 305.3407,-173.6676"/>
<polygon fill="#191970" stroke="#191970" points="305.817,-177.1361 315.3572,-172.528 305.0256,-170.181 305.817,-177.1361"/>
</g>
<!-- Node961 -->
<g id="node11" class="node">
<title>Node961</title>
<g id="a_node11"><a xlink:href="libunicode_8c.html#a6fc0a36e3fd26d4b91b66cd5619be63b" target="_top" xlink:title="cr_init">
<polygon fill="none" stroke="#000000" points="317,-46.1674 317,-65.1674 364,-65.1674 364,-46.1674 317,-46.1674"/>
<text text-anchor="middle" x="340.5" y="-53.1674" font-family="Helvetica,sans-Serif" font-size="10.00" fill="#000000">cr_init</text>
</a>
</g>
</g>
<!-- Node958&#45;&gt;Node961 -->
<g id="edge13" class="edge">
<title>Node958&#45;&gt;Node961</title>
<path fill="none" stroke="#191970" d="M214.9727,-179.1272C220.1186,-176.6626 224.9756,-173.5636 229,-169.6674 261.4402,-138.2613 231.2802,-104.6956 265,-74.6674 276.3716,-64.5408 292.3557,-59.6475 306.6907,-57.3425"/>
<polygon fill="#191970" stroke="#191970" points="307.2598,-60.7987 316.7477,-56.0838 306.3904,-53.8528 307.2598,-60.7987"/>
</g>
<!-- Node963 -->
<g id="node13" class="node">
<title>Node963</title>
<g id="a_node13"><a xlink:href="libunicode_8c.html#af1269fd74e0699bd0e12ac018a078c54" target="_top" xlink:title="cr_invert">
<polygon fill="none" stroke="#000000" points="311,-122.1674 311,-141.1674 370,-141.1674 370,-122.1674 311,-122.1674"/>
<text text-anchor="middle" x="340.5" y="-129.1674" font-family="Helvetica,sans-Serif" font-size="10.00" fill="#000000">cr_invert</text>
</a>
</g>
</g>
<!-- Node958&#45;&gt;Node963 -->
<g id="edge15" class="edge">
<title>Node958&#45;&gt;Node963</title>
<path fill="none" stroke="#191970" d="M204.0698,-179.1551C212.2646,-176.3479 221.0529,-173.1001 229,-169.6674 245.6086,-162.4936 248.1071,-157.1435 265,-150.6674 276.4208,-146.2892 289.2012,-142.6321 300.9531,-139.7335"/>
<polygon fill="#191970" stroke="#191970" points="302.0219,-143.0778 310.9557,-137.3824 300.4201,-136.2635 302.0219,-143.0778"/>
</g>
<!-- Node965 -->
<g id="node15" class="node">
<title>Node965</title>
<g id="a_node15"><a xlink:href="libunicode_8c.html#a34896d0331c7b2845f267f8f6dde6a55" target="_top" xlink:title="cr_op">
<polygon fill="none" stroke="#000000" points="319,-84.1674 319,-103.1674 362,-103.1674 362,-84.1674 319,-84.1674"/>
<text text-anchor="middle" x="340.5" y="-91.1674" font-family="Helvetica,sans-Serif" font-size="10.00" fill="#000000">cr_op</text>
</a>
</g>
</g>
<!-- Node958&#45;&gt;Node965 -->
<g id="edge18" class="edge">
<title>Node958&#45;&gt;Node965</title>
<path fill="none" stroke="#191970" d="M212.5632,-179.0935C218.4226,-176.6135 224.1253,-173.5188 229,-169.6674 252.5105,-151.0924 240.7364,-130.2474 265,-112.6674 277.6829,-103.4781 294.3528,-98.7149 308.8018,-96.2537"/>
<polygon fill="#191970" stroke="#191970" points="309.4284,-99.7001 318.8417,-94.8381 308.4509,-92.7687 309.4284,-99.7001"/>
</g>
<!-- Node967 -->
<g id="node17" class="node">
<title>Node967</title>
<g id="a_node17"><a xlink:href="libunicode_8c.html#a5b19223b1de0eaf5d64806a1e3009a30" target="_top" xlink:title="unicode_general_category1">
<polygon fill="none" stroke="#000000" points="265,-198.1674 265,-217.1674 416,-217.1674 416,-198.1674 265,-198.1674"/>
<text text-anchor="middle" x="340.5" y="-205.1674" font-family="Helvetica,sans-Serif" font-size="10.00" fill="#000000">unicode_general_category1</text>
</a>
</g>
</g>
<!-- Node958&#45;&gt;Node967 -->
<g id="edge23" class="edge">
<title>Node958&#45;&gt;Node967</title>
<path fill="none" stroke="#191970" d="M225.8816,-194.627C235.0399,-195.669 244.781,-196.7773 254.5667,-197.8906"/>
<polygon fill="#191970" stroke="#191970" points="254.4264,-201.3971 264.758,-199.0501 255.2177,-194.442 254.4264,-201.3971"/>
</g>
<!-- Node959&#45;&gt;Node953 -->
<g id="edge11" class="edge">
<title>Node959&#45;&gt;Node953</title>
<path fill="none" stroke="#191970" d="M531.2063,-24.2036C539.6955,-27.101 548.7306,-31.142 556,-36.6674 583.1829,-57.3291 604.0198,-91.8963 615.1026,-113.1468"/>
<polygon fill="#191970" stroke="#191970" points="612.0017,-114.7709 619.6207,-122.133 618.2557,-111.6265 612.0017,-114.7709"/>
</g>
<!-- Node962 -->
<g id="node12" class="node">
<title>Node962</title>
<g id="a_node12"><a xlink:href="libunicode_8c.html#a20de05c0af47860fc64fcc54f998cddc" target="_top" xlink:title="cr_default_realloc">
<polygon fill="none" stroke="#000000" points="452,-46.1674 452,-65.1674 556,-65.1674 556,-46.1674 452,-46.1674"/>
<text text-anchor="middle" x="504" y="-53.1674" font-family="Helvetica,sans-Serif" font-size="10.00" fill="#000000">cr_default_realloc</text>
</a>
</g>
</g>
<!-- Node961&#45;&gt;Node962 -->
<g id="edge14" class="edge">
<title>Node961&#45;&gt;Node962</title>
<path fill="none" stroke="#191970" d="M364.2743,-55.6674C384.5361,-55.6674 414.5874,-55.6674 441.6345,-55.6674"/>
<polygon fill="#191970" stroke="#191970" points="441.8269,-59.1675 451.8268,-55.6674 441.8268,-52.1675 441.8269,-59.1675"/>
</g>
<!-- Node963&#45;&gt;Node953 -->
<g id="edge17" class="edge">
<title>Node963&#45;&gt;Node953</title>
<path fill="none" stroke="#191970" d="M370.2311,-138.4854C411.8928,-147.0859 489.9516,-159.7214 556,-150.6674 566.0948,-149.2836 576.8035,-146.7952 586.663,-144.0655"/>
<polygon fill="#191970" stroke="#191970" points="587.9528,-147.335 596.569,-141.1696 585.9886,-140.6162 587.9528,-147.335"/>
</g>
<!-- Node964 -->
<g id="node14" class="node">
<title>Node964</title>
<g id="a_node14"><a xlink:href="libunicode_8c.html#a16bf65ec6f33994ffa796da462b4a434" target="_top" xlink:title="cr_compress">
<polygon fill="none" stroke="#000000" points="465,-122.1674 465,-141.1674 543,-141.1674 543,-122.1674 465,-122.1674"/>
<text text-anchor="middle" x="504" y="-129.1674" font-family="Helvetica,sans-Serif" font-size="10.00" fill="#000000">cr_compress</text>
</a>
</g>
</g>
<!-- Node963&#45;&gt;Node964 -->
<g id="edge16" class="edge">
<title>Node963&#45;&gt;Node964</title>
<path fill="none" stroke="#191970" d="M370.1086,-131.6674C393.6092,-131.6674 426.9762,-131.6674 454.5208,-131.6674"/>
<polygon fill="#191970" stroke="#191970" points="454.7597,-135.1675 464.7597,-131.6674 454.7597,-128.1675 454.7597,-135.1675"/>
</g>
<!-- Node965&#45;&gt;Node964 -->
<g id="edge21" class="edge">
<title>Node965&#45;&gt;Node964</title>
<path fill="none" stroke="#191970" d="M362.2115,-98.7135C385.8047,-104.197 424.267,-113.1362 455.1835,-120.3217"/>
<polygon fill="#191970" stroke="#191970" points="454.395,-123.7317 464.9278,-122.5864 455.9798,-116.9134 454.395,-123.7317"/>
</g>
<!-- Node966 -->
<g id="node16" class="node">
<title>Node966</title>
<g id="a_node16"><a xlink:href="libunicode_8h.html#aaf2d50fc6added56ee3c3273e991321c" target="_top" xlink:title="cr_add_point">
<polygon fill="none" stroke="#000000" points="464.5,-84.1674 464.5,-103.1674 543.5,-103.1674 543.5,-84.1674 464.5,-84.1674"/>
<text text-anchor="middle" x="504" y="-91.1674" font-family="Helvetica,sans-Serif" font-size="10.00" fill="#000000">cr_add_point</text>
</a>
</g>
</g>
<!-- Node965&#45;&gt;Node966 -->
<g id="edge19" class="edge">
<title>Node965&#45;&gt;Node966</title>
<path fill="none" stroke="#191970" d="M362.2115,-93.6674C385.5465,-93.6674 423.4268,-93.6674 454.1657,-93.6674"/>
<polygon fill="#191970" stroke="#191970" points="454.2851,-97.1675 464.2851,-93.6674 454.285,-90.1675 454.2851,-97.1675"/>
</g>
<!-- Node966&#45;&gt;Node953 -->
<g id="edge20" class="edge">
<title>Node966&#45;&gt;Node953</title>
<path fill="none" stroke="#191970" d="M534.2811,-103.2564C549.3456,-108.0269 567.754,-113.8562 583.967,-118.9903"/>
<polygon fill="#191970" stroke="#191970" points="583.1385,-122.3992 593.7286,-122.0815 585.2518,-115.7258 583.1385,-122.3992"/>
</g>
<!-- Node967&#45;&gt;Node952 -->
<g id="edge24" class="edge">
<title>Node967&#45;&gt;Node952</title>
<path fill="none" stroke="#191970" d="M381.758,-217.2564C403.4307,-222.2935 430.1832,-228.5113 453.1303,-233.8445"/>
<polygon fill="#191970" stroke="#191970" points="452.506,-237.2926 463.0387,-236.1474 454.0907,-230.4744 452.506,-237.2926"/>
</g>
</g>
</svg>
        <g id="navigator" transform="translate(0 0)" fill="#404254">
                <rect fill="#f2f5e9" fill-opacity="0.5" stroke="#606060" stroke-width=".5" x="0" y="0" width="60" height="60"/>
                <use id="zoomplus" xlink:href="#zoomPlus" x="17" y="9" onmousedown="handleZoom(evt,'in')"/>
                <use id="zoomminus" xlink:href="#zoomMin" x="42" y="9" onmousedown="handleZoom(evt,'out')"/>
                <use id="reset" xlink:href="#resetDef" x="30" y="36" onmousedown="handleReset()"/>
                <g id="arrowUp" xlink:href="#dirArrow" transform="translate(30 24)" onmousedown="handlePan(0,-1)">
                  <use xlink:href="#rim" fill="#404040">
                        <set attributeName="fill" to="#808080" begin="arrowUp.mouseover" end="arrowUp.mouseout"/>
                  </use>
                  <path fill="none" stroke="white" stroke-width="1.5" d="M0,-3.0v7 M-2.5,-0.5L0,-3.0L2.5,-0.5"/>
                </g>
                <g id="arrowRight" xlink:href="#dirArrow" transform="rotate(90) translate(36 -43)" onmousedown="handlePan(1,0)">
                  <use xlink:href="#rim" fill="#404040">
                        <set attributeName="fill" to="#808080" begin="arrowRight.mouseover" end="arrowRight.mouseout"/>
                  </use>
                  <path fill="none" stroke="white" stroke-width="1.5" d="M0,-3.0v7 M-2.5,-0.5L0,-3.0L2.5,-0.5"/>
                </g>
                <g id="arrowDown" xlink:href="#dirArrow" transform="rotate(180) translate(-30 -48)" onmousedown="handlePan(0,1)">
                  <use xlink:href="#rim" fill="#404040">
                        <set attributeName="fill" to="#808080" begin="arrowDown.mouseover" end="arrowDown.mouseout"/>
                  </use>
                  <path fill="none" stroke="white" stroke-width="1.5" d="M0,-3.0v7 M-2.5,-0.5L0,-3.0L2.5,-0.5"/>
                </g>
                <g id="arrowLeft" xlink:href="#dirArrow" transform="rotate(270) translate(-36 17)" onmousedown="handlePan(-1,0)">
                  <use xlink:href="#rim" fill="#404040">
                        <set attributeName="fill" to="#808080" begin="arrowLeft.mouseover" end="arrowLeft.mouseout"/>
                  </use>
                  <path fill="none" stroke="white" stroke-width="1.5" d="M0,-3.0v7 M-2.5,-0.5L0,-3.0L2.5,-0.5"/>
                </g>
        </g>
        <svg viewBox="0 0 15 15" width="100%" height="30px" preserveAspectRatio="xMaxYMin meet">
         <g id="arrow_out" transform="scale(0.3 0.3)">
          <a xlink:href="libunicode_8c_a042c7e38726f6727a9826c4dd2c45832_cgraph_org.svg" target="_base">
           <rect id="button" ry="5" rx="5" y="6" x="6" height="38" width="38"
                fill="#f2f5e9" fill-opacity="0.5" stroke="#606060" stroke-width="1.0"/>
           <path id="arrow"
             d="M 11.500037,31.436501 C 11.940474,20.09759 22.043105,11.32322 32.158766,21.979434 L 37.068811,17.246167 C 37.068811,17.246167 37.088388,32 37.088388,32 L 22.160133,31.978069 C 22.160133,31.978069 26.997745,27.140456 26.997745,27.140456 C 18.528582,18.264221 13.291696,25.230495 11.500037,31.436501 z"
             style="fill:#404040;"/>
          </a>
         </g>
        </svg>
</svg>
