<?xml version="1.0" encoding="UTF-8" standalone="no"?>
<!DOCTYPE svg PUBLIC "-//W3C//DTD SVG 1.1//EN"
 "http://www.w3.org/Graphics/SVG/1.1/DTD/svg11.dtd">
<!-- Generated by graphviz version 2.40.1 (20161225.0304)
 -->
<!-- Title: lre_is_id_continue Pages: 1 -->
<svg width="479pt" height="47pt"
 viewBox="0.00 0.00 479.00 47.00" xmlns="http://www.w3.org/2000/svg" xmlns:xlink="http://www.w3.org/1999/xlink">
<g id="graph0" class="graph" transform="scale(1 1) rotate(0) translate(4 43)">
<title>lre_is_id_continue</title>
<!-- Node591 -->
<g id="node1" class="node">
<title>Node591</title>
<polygon fill="#bfbfbf" stroke="#000000" points="0,-.5 0,-19.5 104,-19.5 104,-.5 0,-.5"/>
<text text-anchor="middle" x="52" y="-7.5" font-family="Helvetica,sans-Serif" font-size="10.00" fill="#000000">lre_is_id_continue</text>
</g>
<!-- Node592 -->
<g id="node2" class="node">
<title>Node592</title>
<g id="a_node2"><a xlink:href="libunicode_8c.html#a36a983fb62ce82cd14783397f607ad09" target="_top" xlink:title="lre_is_id_start">
<polygon fill="none" stroke="#000000" points="140,-19.5 140,-38.5 225,-38.5 225,-19.5 140,-19.5"/>
<text text-anchor="middle" x="182.5" y="-26.5" font-family="Helvetica,sans-Serif" font-size="10.00" fill="#000000">lre_is_id_start</text>
</a>
</g>
</g>
<!-- Node591&#45;&gt;Node592 -->
<g id="edge1" class="edge">
<title>Node591&#45;&gt;Node592</title>
<path fill="none" stroke="#191970" d="M104.3274,-17.6185C112.6959,-18.837 121.3599,-20.0984 129.7385,-21.3182"/>
<polygon fill="#191970" stroke="#191970" points="129.3779,-24.8026 139.7779,-22.7799 130.3865,-17.8756 129.3779,-24.8026"/>
</g>
<!-- Node593 -->
<g id="node3" class="node">
<title>Node593</title>
<g id="a_node3"><a xlink:href="libunicode_8c.html#a599cfa52b8ac7992138dc50f748e2a03" target="_top" xlink:title="lre_is_in_table">
<polygon fill="none" stroke="#000000" points="261,-.5 261,-19.5 348,-19.5 348,-.5 261,-.5"/>
<text text-anchor="middle" x="304.5" y="-7.5" font-family="Helvetica,sans-Serif" font-size="10.00" fill="#000000">lre_is_in_table</text>
</a>
</g>
</g>
<!-- Node591&#45;&gt;Node593 -->
<g id="edge4" class="edge">
<title>Node591&#45;&gt;Node593</title>
<path fill="none" stroke="#191970" d="M104.012,-10C146.9145,-10 207.5561,-10 250.8912,-10"/>
<polygon fill="#191970" stroke="#191970" points="250.9618,-13.5001 260.9618,-10 250.9618,-6.5001 250.9618,-13.5001"/>
</g>
<!-- Node592&#45;&gt;Node593 -->
<g id="edge2" class="edge">
<title>Node592&#45;&gt;Node593</title>
<path fill="none" stroke="#191970" d="M225.1697,-22.3547C233.4668,-21.0625 242.2628,-19.6927 250.8607,-18.3537"/>
<polygon fill="#191970" stroke="#191970" points="251.479,-21.7996 260.8213,-16.8024 250.4018,-14.883 251.479,-21.7996"/>
</g>
<!-- Node594 -->
<g id="node4" class="node">
<title>Node594</title>
<g id="a_node4"><a xlink:href="libunicode_8c.html#a71293078e836b0d817225cd6c72e17c2" target="_top" xlink:title="get_index_pos">
<polygon fill="none" stroke="#ff0000" points="384,-.5 384,-19.5 471,-19.5 471,-.5 384,-.5"/>
<text text-anchor="middle" x="427.5" y="-7.5" font-family="Helvetica,sans-Serif" font-size="10.00" fill="#000000">get_index_pos</text>
</a>
</g>
</g>
<!-- Node593&#45;&gt;Node594 -->
<g id="edge3" class="edge">
<title>Node593&#45;&gt;Node594</title>
<path fill="none" stroke="#191970" d="M348.2115,-10C356.4587,-10 365.1729,-10 373.6873,-10"/>
<polygon fill="#191970" stroke="#191970" points="373.9293,-13.5001 383.9292,-10 373.9292,-6.5001 373.9293,-13.5001"/>
</g>
</g>
</svg>
