<?xml version="1.0" encoding="UTF-8" standalone="no"?>
<!DOCTYPE svg PUBLIC "-//W3C//DTD SVG 1.1//EN"
 "http://www.w3.org/Graphics/SVG/1.1/DTD/svg11.dtd">
<!-- Generated by graphviz version 2.40.1 (20161225.0304)
 -->
<!-- Title: unicode_script Pages: 1 -->
<!--zoomable 208 -->
<svg id="main" version="1.1" xmlns="http://www.w3.org/2000/svg" xmlns:xlink="http://www.w3.org/1999/xlink" xml:space="preserve" onload="init(evt)">
<style type="text/css"><![CDATA[
.edge:hover path { stroke: red; }
.edge:hover polygon { stroke: red; fill: red; }
]]></style>
<script type="text/javascript"><![CDATA[
var edges = document.getElementsByTagName('g');
if (edges && edges.length) {
  for (var i=0;i<edges.length;i++) {
    if (edges[i].id.substr(0,4)=='edge') {
      edges[i].setAttribute('class','edge');
    }
  }
}
]]></script>
        <defs>
                <circle id="rim" cx="0" cy="0" r="7"/>
                <circle id="rim2" cx="0" cy="0" r="3.5"/>
                <g id="zoomPlus">
                        <use xlink:href="#rim" fill="#404040">
                                <set attributeName="fill" to="#808080" begin="zoomplus.mouseover" end="zoomplus.mouseout"/>
                        </use>
                        <path d="M-4,0h8M0,-4v8" fill="none" stroke="white" stroke-width="1.5" pointer-events="none"/>
                </g>
                <g id="zoomMin">
                        <use xlink:href="#rim" fill="#404040">
                                <set attributeName="fill" to="#808080" begin="zoomminus.mouseover" end="zoomminus.mouseout"/>
                        </use>
                        <path d="M-4,0h8" fill="none" stroke="white" stroke-width="1.5" pointer-events="none"/>
                </g>
                <g id="dirArrow">
                        <path fill="none" stroke="white" stroke-width="1.5" d="M0,-3.0v7 M-2.5,-0.5L0,-3.0L2.5,-0.5"/>
                </g>
               <g id="resetDef">
                       <use xlink:href="#rim2" fill="#404040">
                               <set attributeName="fill" to="#808080" begin="reset.mouseover" end="reset.mouseout"/>
                       </use>
               </g>
        </defs>

<script type="text/javascript">
var viewWidth = 574;
var viewHeight = 208;
var sectionId = 'dynsection-50';
</script>
<script xlink:href="svgpan.js"/>
<svg id="graph" class="graph">
<g id="viewport">
<title>unicode_script</title>
<!-- Node796 -->
<g id="node1" class="node">
<title>Node796</title>
<polygon fill="#bfbfbf" stroke="#000000" points="0,-95.5 0,-114.5 87,-114.5 87,-95.5 0,-95.5"/>
<text text-anchor="middle" x="43.5" y="-102.5" font-family="Helvetica,sans-Serif" font-size="10.00" fill="#000000">unicode_script</text>
</g>
<!-- Node797 -->
<g id="node2" class="node">
<title>Node797</title>
<g id="a_node2"><a xlink:href="libunicode_8h.html#aeade60962a424d84bc260a72311a0745" target="_top" xlink:title="cr_add_interval">
<polygon fill="none" stroke="#000000" points="276,-180.5 276,-199.5 368,-199.5 368,-180.5 276,-180.5"/>
<text text-anchor="middle" x="322" y="-187.5" font-family="Helvetica,sans-Serif" font-size="10.00" fill="#000000">cr_add_interval</text>
</a>
</g>
</g>
<!-- Node796&#45;&gt;Node797 -->
<g id="edge1" class="edge">
<title>Node796&#45;&gt;Node797</title>
<path fill="none" stroke="#191970" d="M49.9762,-114.7058C62.0079,-131.7817 89.6422,-166.7372 123,-181 168.1449,-200.3026 224.4192,-200.9639 265.595,-197.7233"/>
<polygon fill="#191970" stroke="#191970" points="266.0708,-201.1949 275.7221,-196.8243 265.4518,-194.2223 266.0708,-201.1949"/>
</g>
<!-- Node800 -->
<g id="node5" class="node">
<title>Node800</title>
<g id="a_node5"><a xlink:href="libunicode_8c.html#a32dd1af21800853555eaa260ddffeff4" target="_top" xlink:title="cr_free">
<polygon fill="none" stroke="#000000" points="153.5,-152.5 153.5,-171.5 203.5,-171.5 203.5,-152.5 153.5,-152.5"/>
<text text-anchor="middle" x="178.5" y="-159.5" font-family="Helvetica,sans-Serif" font-size="10.00" fill="#000000">cr_free</text>
</a>
</g>
</g>
<!-- Node796&#45;&gt;Node800 -->
<g id="edge4" class="edge">
<title>Node796&#45;&gt;Node800</title>
<path fill="none" stroke="#191970" d="M61.8594,-114.5249C77.7993,-122.6126 101.6162,-134.2635 123,-143 129.5878,-145.6915 136.7141,-148.3292 143.5942,-150.742"/>
<polygon fill="#191970" stroke="#191970" points="142.8122,-154.1735 153.4067,-154.0961 145.0764,-147.5497 142.8122,-154.1735"/>
</g>
<!-- Node801 -->
<g id="node6" class="node">
<title>Node801</title>
<g id="a_node6"><a xlink:href="libunicode_8c.html#a6fc0a36e3fd26d4b91b66cd5619be63b" target="_top" xlink:title="cr_init">
<polygon fill="none" stroke="#000000" points="155,-114.5 155,-133.5 202,-133.5 202,-114.5 155,-114.5"/>
<text text-anchor="middle" x="178.5" y="-121.5" font-family="Helvetica,sans-Serif" font-size="10.00" fill="#000000">cr_init</text>
</a>
</g>
</g>
<!-- Node796&#45;&gt;Node801 -->
<g id="edge5" class="edge">
<title>Node796&#45;&gt;Node801</title>
<path fill="none" stroke="#191970" d="M87.3306,-111.1688C105.9479,-113.789 127.3157,-116.7963 144.6832,-119.2406"/>
<polygon fill="#191970" stroke="#191970" points="144.5294,-122.7534 154.9197,-120.6813 145.5051,-115.8217 144.5294,-122.7534"/>
</g>
<!-- Node803 -->
<g id="node8" class="node">
<title>Node803</title>
<g id="a_node8"><a xlink:href="libunicode_8c.html#af1269fd74e0699bd0e12ac018a078c54" target="_top" xlink:title="cr_invert">
<polygon fill="none" stroke="#000000" points="149,-76.5 149,-95.5 208,-95.5 208,-76.5 149,-76.5"/>
<text text-anchor="middle" x="178.5" y="-83.5" font-family="Helvetica,sans-Serif" font-size="10.00" fill="#000000">cr_invert</text>
</a>
</g>
</g>
<!-- Node796&#45;&gt;Node803 -->
<g id="edge7" class="edge">
<title>Node796&#45;&gt;Node803</title>
<path fill="none" stroke="#191970" d="M87.3306,-98.8312C103.8776,-96.5024 122.5973,-93.8678 138.7501,-91.5944"/>
<polygon fill="#191970" stroke="#191970" points="139.5308,-95.0191 148.9454,-90.1595 138.5552,-88.0874 139.5308,-95.0191"/>
</g>
<!-- Node805 -->
<g id="node10" class="node">
<title>Node805</title>
<g id="a_node10"><a xlink:href="libunicode_8c.html#a34896d0331c7b2845f267f8f6dde6a55" target="_top" xlink:title="cr_op">
<polygon fill="none" stroke="#000000" points="157,-38.5 157,-57.5 200,-57.5 200,-38.5 157,-38.5"/>
<text text-anchor="middle" x="178.5" y="-45.5" font-family="Helvetica,sans-Serif" font-size="10.00" fill="#000000">cr_op</text>
</a>
</g>
</g>
<!-- Node796&#45;&gt;Node805 -->
<g id="edge10" class="edge">
<title>Node796&#45;&gt;Node805</title>
<path fill="none" stroke="#191970" d="M61.8594,-95.4751C77.7993,-87.3874 101.6162,-75.7365 123,-67 130.7559,-63.8313 139.2584,-60.737 147.2266,-57.9966"/>
<polygon fill="#191970" stroke="#191970" points="148.572,-61.237 156.9377,-54.7357 146.3437,-54.6011 148.572,-61.237"/>
</g>
<!-- Node807 -->
<g id="node12" class="node">
<title>Node807</title>
<g id="a_node12"><a xlink:href="libunicode_8c.html#a2c7890f229a1126ae81362db9f770003" target="_top" xlink:title="unicode_find_name">
<polygon fill="none" stroke="#000000" points="123,-.5 123,-19.5 234,-19.5 234,-.5 123,-.5"/>
<text text-anchor="middle" x="178.5" y="-7.5" font-family="Helvetica,sans-Serif" font-size="10.00" fill="#000000">unicode_find_name</text>
</a>
</g>
</g>
<!-- Node796&#45;&gt;Node807 -->
<g id="edge14" class="edge">
<title>Node796&#45;&gt;Node807</title>
<path fill="none" stroke="#191970" d="M51.064,-95.4561C64.1342,-79.5534 92.4919,-47.5524 123,-29 126.3787,-26.9453 130.0093,-25.0769 133.7376,-23.3854"/>
<polygon fill="#191970" stroke="#191970" points="135.1932,-26.5714 143.1185,-19.54 132.5382,-20.0944 135.1932,-26.5714"/>
</g>
<!-- Node798 -->
<g id="node3" class="node">
<title>Node798</title>
<g id="a_node3"><a xlink:href="libunicode_8c.html#a7b73e29a0e2b936a11426d602faac462" target="_top" xlink:title="cr_realloc">
<polygon fill="none" stroke="#000000" points="410,-95.5 410,-114.5 474,-114.5 474,-95.5 410,-95.5"/>
<text text-anchor="middle" x="442" y="-102.5" font-family="Helvetica,sans-Serif" font-size="10.00" fill="#000000">cr_realloc</text>
</a>
</g>
</g>
<!-- Node797&#45;&gt;Node798 -->
<g id="edge2" class="edge">
<title>Node797&#45;&gt;Node798</title>
<path fill="none" stroke="#191970" d="M342.0606,-180.4086C351.9545,-175.3786 363.9007,-168.8469 374,-162 392.1614,-149.6872 411.1642,-133.4301 424.4497,-121.4297"/>
<polygon fill="#191970" stroke="#191970" points="426.9157,-123.9173 431.9243,-114.5811 422.1867,-118.7561 426.9157,-123.9173"/>
</g>
<!-- Node799 -->
<g id="node4" class="node">
<title>Node799</title>
<g id="a_node4"><a xlink:href="cutils_8h.html#a94f155fcce337a2b9d4719ed8042cbbe" target="_top" xlink:title="max_int">
<polygon fill="none" stroke="#000000" points="510,-95.5 510,-114.5 566,-114.5 566,-95.5 510,-95.5"/>
<text text-anchor="middle" x="538" y="-102.5" font-family="Helvetica,sans-Serif" font-size="10.00" fill="#000000">max_int</text>
</a>
</g>
</g>
<!-- Node798&#45;&gt;Node799 -->
<g id="edge3" class="edge">
<title>Node798&#45;&gt;Node799</title>
<path fill="none" stroke="#191970" d="M474.2337,-105C482.4434,-105 491.3454,-105 499.8207,-105"/>
<polygon fill="#191970" stroke="#191970" points="499.8718,-108.5001 509.8718,-105 499.8717,-101.5001 499.8718,-108.5001"/>
</g>
<!-- Node802 -->
<g id="node7" class="node">
<title>Node802</title>
<g id="a_node7"><a xlink:href="libunicode_8c.html#a20de05c0af47860fc64fcc54f998cddc" target="_top" xlink:title="cr_default_realloc">
<polygon fill="none" stroke="#000000" points="270,-133.5 270,-152.5 374,-152.5 374,-133.5 270,-133.5"/>
<text text-anchor="middle" x="322" y="-140.5" font-family="Helvetica,sans-Serif" font-size="10.00" fill="#000000">cr_default_realloc</text>
</a>
</g>
</g>
<!-- Node801&#45;&gt;Node802 -->
<g id="edge6" class="edge">
<title>Node801&#45;&gt;Node802</title>
<path fill="none" stroke="#191970" d="M202.1961,-127.1375C217.999,-129.2298 239.5578,-132.0843 260.0334,-134.7954"/>
<polygon fill="#191970" stroke="#191970" points="259.5952,-138.2678 269.9681,-136.1108 260.5141,-131.3284 259.5952,-138.2678"/>
</g>
<!-- Node803&#45;&gt;Node798 -->
<g id="edge9" class="edge">
<title>Node803&#45;&gt;Node798</title>
<path fill="none" stroke="#191970" d="M208.2146,-88.1426C255.0279,-91.5181 346.1254,-98.0868 399.7373,-101.9526"/>
<polygon fill="#191970" stroke="#191970" points="399.7098,-105.4596 409.9357,-102.688 400.2133,-98.4777 399.7098,-105.4596"/>
</g>
<!-- Node804 -->
<g id="node9" class="node">
<title>Node804</title>
<g id="a_node9"><a xlink:href="libunicode_8c.html#a16bf65ec6f33994ffa796da462b4a434" target="_top" xlink:title="cr_compress">
<polygon fill="none" stroke="#000000" points="283,-57.5 283,-76.5 361,-76.5 361,-57.5 283,-57.5"/>
<text text-anchor="middle" x="322" y="-64.5" font-family="Helvetica,sans-Serif" font-size="10.00" fill="#000000">cr_compress</text>
</a>
</g>
</g>
<!-- Node803&#45;&gt;Node804 -->
<g id="edge8" class="edge">
<title>Node803&#45;&gt;Node804</title>
<path fill="none" stroke="#191970" d="M208.2333,-82.0632C226.8721,-79.5953 251.3517,-76.3541 272.8268,-73.5107"/>
<polygon fill="#191970" stroke="#191970" points="273.3147,-76.9768 282.7687,-72.1944 272.3958,-70.0373 273.3147,-76.9768"/>
</g>
<!-- Node805&#45;&gt;Node804 -->
<g id="edge13" class="edge">
<title>Node805&#45;&gt;Node804</title>
<path fill="none" stroke="#191970" d="M200.2946,-50.8857C219.5208,-53.4313 248.2474,-57.2349 272.9643,-60.5075"/>
<polygon fill="#191970" stroke="#191970" points="272.5439,-63.9823 282.9169,-61.8252 273.4628,-57.0428 272.5439,-63.9823"/>
</g>
<!-- Node806 -->
<g id="node11" class="node">
<title>Node806</title>
<g id="a_node11"><a xlink:href="libunicode_8h.html#aaf2d50fc6added56ee3c3273e991321c" target="_top" xlink:title="cr_add_point">
<polygon fill="none" stroke="#000000" points="282.5,-19.5 282.5,-38.5 361.5,-38.5 361.5,-19.5 282.5,-19.5"/>
<text text-anchor="middle" x="322" y="-26.5" font-family="Helvetica,sans-Serif" font-size="10.00" fill="#000000">cr_add_point</text>
</a>
</g>
</g>
<!-- Node805&#45;&gt;Node806 -->
<g id="edge11" class="edge">
<title>Node805&#45;&gt;Node806</title>
<path fill="none" stroke="#191970" d="M200.2946,-45.1143C219.2981,-42.5982 247.5833,-38.8531 272.1039,-35.6064"/>
<polygon fill="#191970" stroke="#191970" points="272.8902,-39.033 282.3442,-34.2506 271.9713,-32.0935 272.8902,-39.033"/>
</g>
<!-- Node806&#45;&gt;Node798 -->
<g id="edge12" class="edge">
<title>Node806&#45;&gt;Node798</title>
<path fill="none" stroke="#191970" d="M353.5915,-38.5501C360.5228,-41.186 367.6752,-44.3453 374,-48 393.219,-59.1056 412.3462,-75.7679 425.396,-88.2131"/>
<polygon fill="#191970" stroke="#191970" points="423.0829,-90.8464 432.6825,-95.3297 427.974,-85.8386 423.0829,-90.8464"/>
</g>
</g>
</svg>
        <g id="navigator" transform="translate(0 0)" fill="#404254">
                <rect fill="#f2f5e9" fill-opacity="0.5" stroke="#606060" stroke-width=".5" x="0" y="0" width="60" height="60"/>
                <use id="zoomplus" xlink:href="#zoomPlus" x="17" y="9" onmousedown="handleZoom(evt,'in')"/>
                <use id="zoomminus" xlink:href="#zoomMin" x="42" y="9" onmousedown="handleZoom(evt,'out')"/>
                <use id="reset" xlink:href="#resetDef" x="30" y="36" onmousedown="handleReset()"/>
                <g id="arrowUp" xlink:href="#dirArrow" transform="translate(30 24)" onmousedown="handlePan(0,-1)">
                  <use xlink:href="#rim" fill="#404040">
                        <set attributeName="fill" to="#808080" begin="arrowUp.mouseover" end="arrowUp.mouseout"/>
                  </use>
                  <path fill="none" stroke="white" stroke-width="1.5" d="M0,-3.0v7 M-2.5,-0.5L0,-3.0L2.5,-0.5"/>
                </g>
                <g id="arrowRight" xlink:href="#dirArrow" transform="rotate(90) translate(36 -43)" onmousedown="handlePan(1,0)">
                  <use xlink:href="#rim" fill="#404040">
                        <set attributeName="fill" to="#808080" begin="arrowRight.mouseover" end="arrowRight.mouseout"/>
                  </use>
                  <path fill="none" stroke="white" stroke-width="1.5" d="M0,-3.0v7 M-2.5,-0.5L0,-3.0L2.5,-0.5"/>
                </g>
                <g id="arrowDown" xlink:href="#dirArrow" transform="rotate(180) translate(-30 -48)" onmousedown="handlePan(0,1)">
                  <use xlink:href="#rim" fill="#404040">
                        <set attributeName="fill" to="#808080" begin="arrowDown.mouseover" end="arrowDown.mouseout"/>
                  </use>
                  <path fill="none" stroke="white" stroke-width="1.5" d="M0,-3.0v7 M-2.5,-0.5L0,-3.0L2.5,-0.5"/>
                </g>
                <g id="arrowLeft" xlink:href="#dirArrow" transform="rotate(270) translate(-36 17)" onmousedown="handlePan(-1,0)">
                  <use xlink:href="#rim" fill="#404040">
                        <set attributeName="fill" to="#808080" begin="arrowLeft.mouseover" end="arrowLeft.mouseout"/>
                  </use>
                  <path fill="none" stroke="white" stroke-width="1.5" d="M0,-3.0v7 M-2.5,-0.5L0,-3.0L2.5,-0.5"/>
                </g>
        </g>
        <svg viewBox="0 0 15 15" width="100%" height="30px" preserveAspectRatio="xMaxYMin meet">
         <g id="arrow_out" transform="scale(0.3 0.3)">
          <a xlink:href="libunicode_8c_aed9a601406b09f37aad3e07557c8b754_cgraph_org.svg" target="_base">
           <rect id="button" ry="5" rx="5" y="6" x="6" height="38" width="38"
                fill="#f2f5e9" fill-opacity="0.5" stroke="#606060" stroke-width="1.0"/>
           <path id="arrow"
             d="M 11.500037,31.436501 C 11.940474,20.09759 22.043105,11.32322 32.158766,21.979434 L 37.068811,17.246167 C 37.068811,17.246167 37.088388,32 37.088388,32 L 22.160133,31.978069 C 22.160133,31.978069 26.997745,27.140456 26.997745,27.140456 C 18.528582,18.264221 13.291696,25.230495 11.500037,31.436501 z"
             style="fill:#404040;"/>
          </a>
         </g>
        </svg>
</svg>
