<?xml version="1.0" encoding="UTF-8" standalone="no"?>
<!DOCTYPE svg PUBLIC "-//W3C//DTD SVG 1.1//EN"
 "http://www.w3.org/Graphics/SVG/1.1/DTD/svg11.dtd">
<!-- Generated by graphviz version 2.40.1 (20161225.0304)
 -->
<!-- Title: cr_op Pages: 1 -->
<!--zoomable 180 -->
<svg id="main" version="1.1" xmlns="http://www.w3.org/2000/svg" xmlns:xlink="http://www.w3.org/1999/xlink" xml:space="preserve" onload="init(evt)">
<style type="text/css"><![CDATA[
.edge:hover path { stroke: red; }
.edge:hover polygon { stroke: red; fill: red; }
]]></style>
<script type="text/javascript"><![CDATA[
var edges = document.getElementsByTagName('g');
if (edges && edges.length) {
  for (var i=0;i<edges.length;i++) {
    if (edges[i].id.substr(0,4)=='edge') {
      edges[i].setAttribute('class','edge');
    }
  }
}
]]></script>
        <defs>
                <circle id="rim" cx="0" cy="0" r="7"/>
                <circle id="rim2" cx="0" cy="0" r="3.5"/>
                <g id="zoomPlus">
                        <use xlink:href="#rim" fill="#404040">
                                <set attributeName="fill" to="#808080" begin="zoomplus.mouseover" end="zoomplus.mouseout"/>
                        </use>
                        <path d="M-4,0h8M0,-4v8" fill="none" stroke="white" stroke-width="1.5" pointer-events="none"/>
                </g>
                <g id="zoomMin">
                        <use xlink:href="#rim" fill="#404040">
                                <set attributeName="fill" to="#808080" begin="zoomminus.mouseover" end="zoomminus.mouseout"/>
                        </use>
                        <path d="M-4,0h8" fill="none" stroke="white" stroke-width="1.5" pointer-events="none"/>
                </g>
                <g id="dirArrow">
                        <path fill="none" stroke="white" stroke-width="1.5" d="M0,-3.0v7 M-2.5,-0.5L0,-3.0L2.5,-0.5"/>
                </g>
               <g id="resetDef">
                       <use xlink:href="#rim2" fill="#404040">
                               <set attributeName="fill" to="#808080" begin="reset.mouseover" end="reset.mouseout"/>
                       </use>
               </g>
        </defs>

<script type="text/javascript">
var viewWidth = 621;
var viewHeight = 180;
var sectionId = 'dynsection-21';
</script>
<script xlink:href="svgpan.js"/>
<svg id="graph" class="graph">
<g id="viewport">
<title>cr_op</title>
<!-- Node446 -->
<g id="node1" class="node">
<title>Node446</title>
<polygon fill="#bfbfbf" stroke="#000000" points="0,-57.5 0,-76.5 43,-76.5 43,-57.5 0,-57.5"/>
<text text-anchor="middle" x="21.5" y="-64.5" font-family="Helvetica,sans-Serif" font-size="10.00" fill="#000000">cr_op</text>
</g>
<!-- Node447 -->
<g id="node2" class="node">
<title>Node447</title>
<g id="a_node2"><a xlink:href="libregexp_8c.html#a275d25528366a9d7b1c83835b41519d9" target="_top" xlink:title="cr_canonicalize">
<polygon fill="none" stroke="#000000" points="223.5,-152.5 223.5,-171.5 315.5,-171.5 315.5,-152.5 223.5,-152.5"/>
<text text-anchor="middle" x="269.5" y="-159.5" font-family="Helvetica,sans-Serif" font-size="10.00" fill="#000000">cr_canonicalize</text>
</a>
</g>
</g>
<!-- Node446&#45;&gt;Node447 -->
<g id="edge1" class="edge">
<title>Node446&#45;&gt;Node447</title>
<path fill="none" stroke="#191970" d="M34.847,-84.9945C45.3928,-97.8795 61.2548,-114.5586 79,-124 124.2545,-148.0779 182.928,-156.9597 223.1314,-160.2025"/>
<polygon fill="#191970" stroke="#191970" points="37.3608,-82.528 28.4377,-76.8159 31.8511,-86.8458 37.3608,-82.528"/>
</g>
<!-- Node462 -->
<g id="node5" class="node">
<title>Node462</title>
<g id="a_node5"><a xlink:href="libunicode_8c.html#aec56a2c4600cb7d047c077c37b8a491d" target="_top" xlink:title="cr_union1">
<polygon fill="none" stroke="#000000" points="99,-95.5 99,-114.5 163,-114.5 163,-95.5 99,-95.5"/>
<text text-anchor="middle" x="131" y="-102.5" font-family="Helvetica,sans-Serif" font-size="10.00" fill="#000000">cr_union1</text>
</a>
</g>
</g>
<!-- Node446&#45;&gt;Node462 -->
<g id="edge4" class="edge">
<title>Node446&#45;&gt;Node462</title>
<path fill="none" stroke="#191970" d="M52.6311,-77.8035C68.6846,-83.3745 88.0897,-90.1087 103.5738,-95.4822"/>
<polygon fill="#191970" stroke="#191970" points="53.7285,-74.4796 43.1337,-74.5076 51.4335,-81.0927 53.7285,-74.4796"/>
</g>
<!-- Node464 -->
<g id="node7" class="node">
<title>Node464</title>
<g id="a_node7"><a xlink:href="libunicode_8c.html#a58dbb07f758bbf3de6c87a0647ec72e3" target="_top" xlink:title="unicode_prop_ops">
<polygon fill="none" stroke="#000000" points="79,-38.5 79,-57.5 183,-57.5 183,-38.5 79,-38.5"/>
<text text-anchor="middle" x="131" y="-45.5" font-family="Helvetica,sans-Serif" font-size="10.00" fill="#000000">unicode_prop_ops</text>
</a>
</g>
</g>
<!-- Node446&#45;&gt;Node464 -->
<g id="edge9" class="edge">
<title>Node446&#45;&gt;Node464</title>
<path fill="none" stroke="#191970" d="M53.0896,-61.5187C61.0724,-60.1336 69.8605,-58.6087 78.5702,-57.0974"/>
<polygon fill="#191970" stroke="#191970" points="52.3881,-58.088 43.1337,-63.2462 53.5848,-64.985 52.3881,-58.088"/>
</g>
<!-- Node468 -->
<g id="node10" class="node">
<title>Node468</title>
<g id="a_node10"><a xlink:href="libunicode_8c.html#aed9a601406b09f37aad3e07557c8b754" target="_top" xlink:title="unicode_script">
<polygon fill="none" stroke="#000000" points="87.5,-.5 87.5,-19.5 174.5,-19.5 174.5,-.5 87.5,-.5"/>
<text text-anchor="middle" x="131" y="-7.5" font-family="Helvetica,sans-Serif" font-size="10.00" fill="#000000">unicode_script</text>
</a>
</g>
</g>
<!-- Node446&#45;&gt;Node468 -->
<g id="edge12" class="edge">
<title>Node446&#45;&gt;Node468</title>
<path fill="none" stroke="#191970" d="M42.421,-51.4619C53.024,-44.038 66.3132,-35.399 79,-29 85.9512,-25.4939 93.7095,-22.3044 101.0682,-19.5821"/>
<polygon fill="#191970" stroke="#191970" points="40.3107,-48.6683 34.2186,-57.3365 44.3865,-54.3593 40.3107,-48.6683"/>
</g>
<!-- Node448 -->
<g id="node3" class="node">
<title>Node448</title>
<g id="a_node3"><a xlink:href="libregexp_8c.html#ab2f98b8a2e66fd9197d2677f47ccffa8" target="_top" xlink:title="re_parse_char_class">
<polygon fill="none" stroke="#000000" points="365.5,-114.5 365.5,-133.5 480.5,-133.5 480.5,-114.5 365.5,-114.5"/>
<text text-anchor="middle" x="423" y="-121.5" font-family="Helvetica,sans-Serif" font-size="10.00" fill="#000000">re_parse_char_class</text>
</a>
</g>
</g>
<!-- Node447&#45;&gt;Node448 -->
<g id="edge2" class="edge">
<title>Node447&#45;&gt;Node448</title>
<path fill="none" stroke="#191970" d="M318.1352,-149.96C339.5799,-144.6512 364.4226,-138.5012 384.544,-133.5201"/>
<polygon fill="#191970" stroke="#191970" points="317.1004,-146.6104 308.2345,-152.411 318.7826,-153.4053 317.1004,-146.6104"/>
</g>
<!-- Node449 -->
<g id="node4" class="node">
<title>Node449</title>
<g id="a_node4"><a xlink:href="libregexp_8c.html#acca34590a18d70f866ad56d67ce309e8" target="_top" xlink:title="re_parse_term">
<polygon fill="none" stroke="#ff0000" points="526,-114.5 526,-133.5 613,-133.5 613,-114.5 526,-114.5"/>
<text text-anchor="middle" x="569.5" y="-121.5" font-family="Helvetica,sans-Serif" font-size="10.00" fill="#000000">re_parse_term</text>
</a>
</g>
</g>
<!-- Node448&#45;&gt;Node449 -->
<g id="edge3" class="edge">
<title>Node448&#45;&gt;Node449</title>
<path fill="none" stroke="#191970" d="M491.1177,-124C502.8299,-124 514.7179,-124 525.5762,-124"/>
<polygon fill="#191970" stroke="#191970" points="490.9007,-120.5001 480.9007,-124 490.9006,-127.5001 490.9007,-120.5001"/>
</g>
<!-- Node462&#45;&gt;Node447 -->
<g id="edge5" class="edge">
<title>Node462&#45;&gt;Node447</title>
<path fill="none" stroke="#191970" d="M163.7523,-118.4793C189.1234,-128.9208 223.6457,-143.1285 246.2426,-152.4284"/>
<polygon fill="#191970" stroke="#191970" points="164.7613,-115.1098 154.1818,-114.5405 162.0972,-121.583 164.7613,-115.1098"/>
</g>
<!-- Node462&#45;&gt;Node448 -->
<g id="edge6" class="edge">
<title>Node462&#45;&gt;Node448</title>
<path fill="none" stroke="#191970" d="M173.3302,-107.7544C223.887,-111.044 308.7028,-116.5629 365.2502,-120.2423"/>
<polygon fill="#191970" stroke="#191970" points="173.2906,-104.2445 163.0844,-107.0877 172.836,-111.2297 173.2906,-104.2445"/>
</g>
<!-- Node463 -->
<g id="node6" class="node">
<title>Node463</title>
<g id="a_node6"><a xlink:href="libunicode_8h.html#a1e3018bd47f12829f7d435f38d864617" target="_top" xlink:title="cr_union_interval">
<polygon fill="none" stroke="#000000" points="219,-76.5 219,-95.5 320,-95.5 320,-76.5 219,-76.5"/>
<text text-anchor="middle" x="269.5" y="-83.5" font-family="Helvetica,sans-Serif" font-size="10.00" fill="#000000">cr_union_interval</text>
</a>
</g>
</g>
<!-- Node462&#45;&gt;Node463 -->
<g id="edge7" class="edge">
<title>Node462&#45;&gt;Node463</title>
<path fill="none" stroke="#191970" d="M173.23,-99.2067C187.6194,-97.2327 203.8549,-95.0055 218.8368,-92.9502"/>
<polygon fill="#191970" stroke="#191970" points="172.5543,-95.7665 163.1228,-100.5933 173.5057,-102.7016 172.5543,-95.7665"/>
</g>
<!-- Node463&#45;&gt;Node448 -->
<g id="edge8" class="edge">
<title>Node463&#45;&gt;Node448</title>
<path fill="none" stroke="#191970" d="M318.1352,-98.04C339.5799,-103.3488 364.4226,-109.4988 384.544,-114.4799"/>
<polygon fill="#191970" stroke="#191970" points="318.7826,-94.5947 308.2345,-95.589 317.1004,-101.3896 318.7826,-94.5947"/>
</g>
<!-- Node465 -->
<g id="node8" class="node">
<title>Node465</title>
<g id="a_node8"><a xlink:href="libunicode_8c.html#a042c7e38726f6727a9826c4dd2c45832" target="_top" xlink:title="unicode_prop">
<polygon fill="none" stroke="#000000" points="228.5,-38.5 228.5,-57.5 310.5,-57.5 310.5,-38.5 228.5,-38.5"/>
<text text-anchor="middle" x="269.5" y="-45.5" font-family="Helvetica,sans-Serif" font-size="10.00" fill="#000000">unicode_prop</text>
</a>
</g>
</g>
<!-- Node464&#45;&gt;Node465 -->
<g id="edge10" class="edge">
<title>Node464&#45;&gt;Node465</title>
<path fill="none" stroke="#191970" d="M193.5974,-48C205.3608,-48 217.3826,-48 228.2882,-48"/>
<polygon fill="#191970" stroke="#191970" points="193.3609,-44.5001 183.3609,-48 193.3609,-51.5001 193.3609,-44.5001"/>
</g>
<!-- Node466 -->
<g id="node9" class="node">
<title>Node466</title>
<g id="a_node9"><a xlink:href="libregexp_8c.html#a24c5604c81a33e66906a1f43227221e8" target="_top" xlink:title="parse_unicode_property">
<polygon fill="none" stroke="#ff0000" points="356,-19.5 356,-38.5 490,-38.5 490,-19.5 356,-19.5"/>
<text text-anchor="middle" x="423" y="-26.5" font-family="Helvetica,sans-Serif" font-size="10.00" fill="#000000">parse_unicode_property</text>
</a>
</g>
</g>
<!-- Node465&#45;&gt;Node466 -->
<g id="edge11" class="edge">
<title>Node465&#45;&gt;Node466</title>
<path fill="none" stroke="#191970" d="M320.7378,-41.6579C332.0285,-40.2603 344.1504,-38.7599 355.9605,-37.298"/>
<polygon fill="#191970" stroke="#191970" points="320.1295,-38.2064 310.6352,-42.9083 320.9894,-45.1533 320.1295,-38.2064"/>
</g>
<!-- Node468&#45;&gt;Node466 -->
<g id="edge13" class="edge">
<title>Node468&#45;&gt;Node466</title>
<path fill="none" stroke="#191970" d="M184.9511,-13.5105C233.1865,-16.6491 304.0601,-21.2608 355.9299,-24.6358"/>
<polygon fill="#191970" stroke="#191970" points="184.9215,-10.0013 174.7154,-12.8445 184.467,-16.9865 184.9215,-10.0013"/>
</g>
</g>
</svg>
        <g id="navigator" transform="translate(0 0)" fill="#404254">
                <rect fill="#f2f5e9" fill-opacity="0.5" stroke="#606060" stroke-width=".5" x="0" y="0" width="60" height="60"/>
                <use id="zoomplus" xlink:href="#zoomPlus" x="17" y="9" onmousedown="handleZoom(evt,'in')"/>
                <use id="zoomminus" xlink:href="#zoomMin" x="42" y="9" onmousedown="handleZoom(evt,'out')"/>
                <use id="reset" xlink:href="#resetDef" x="30" y="36" onmousedown="handleReset()"/>
                <g id="arrowUp" xlink:href="#dirArrow" transform="translate(30 24)" onmousedown="handlePan(0,-1)">
                  <use xlink:href="#rim" fill="#404040">
                        <set attributeName="fill" to="#808080" begin="arrowUp.mouseover" end="arrowUp.mouseout"/>
                  </use>
                  <path fill="none" stroke="white" stroke-width="1.5" d="M0,-3.0v7 M-2.5,-0.5L0,-3.0L2.5,-0.5"/>
                </g>
                <g id="arrowRight" xlink:href="#dirArrow" transform="rotate(90) translate(36 -43)" onmousedown="handlePan(1,0)">
                  <use xlink:href="#rim" fill="#404040">
                        <set attributeName="fill" to="#808080" begin="arrowRight.mouseover" end="arrowRight.mouseout"/>
                  </use>
                  <path fill="none" stroke="white" stroke-width="1.5" d="M0,-3.0v7 M-2.5,-0.5L0,-3.0L2.5,-0.5"/>
                </g>
                <g id="arrowDown" xlink:href="#dirArrow" transform="rotate(180) translate(-30 -48)" onmousedown="handlePan(0,1)">
                  <use xlink:href="#rim" fill="#404040">
                        <set attributeName="fill" to="#808080" begin="arrowDown.mouseover" end="arrowDown.mouseout"/>
                  </use>
                  <path fill="none" stroke="white" stroke-width="1.5" d="M0,-3.0v7 M-2.5,-0.5L0,-3.0L2.5,-0.5"/>
                </g>
                <g id="arrowLeft" xlink:href="#dirArrow" transform="rotate(270) translate(-36 17)" onmousedown="handlePan(-1,0)">
                  <use xlink:href="#rim" fill="#404040">
                        <set attributeName="fill" to="#808080" begin="arrowLeft.mouseover" end="arrowLeft.mouseout"/>
                  </use>
                  <path fill="none" stroke="white" stroke-width="1.5" d="M0,-3.0v7 M-2.5,-0.5L0,-3.0L2.5,-0.5"/>
                </g>
        </g>
        <svg viewBox="0 0 15 15" width="100%" height="30px" preserveAspectRatio="xMaxYMin meet">
         <g id="arrow_out" transform="scale(0.3 0.3)">
          <a xlink:href="libunicode_8c_a34896d0331c7b2845f267f8f6dde6a55_icgraph_org.svg" target="_base">
           <rect id="button" ry="5" rx="5" y="6" x="6" height="38" width="38"
                fill="#f2f5e9" fill-opacity="0.5" stroke="#606060" stroke-width="1.0"/>
           <path id="arrow"
             d="M 11.500037,31.436501 C 11.940474,20.09759 22.043105,11.32322 32.158766,21.979434 L 37.068811,17.246167 C 37.068811,17.246167 37.088388,32 37.088388,32 L 22.160133,31.978069 C 22.160133,31.978069 26.997745,27.140456 26.997745,27.140456 C 18.528582,18.264221 13.291696,25.230495 11.500037,31.436501 z"
             style="fill:#404040;"/>
          </a>
         </g>
        </svg>
</svg>
