<?xml version="1.0" encoding="UTF-8" standalone="no"?>
<!DOCTYPE svg PUBLIC "-//W3C//DTD SVG 1.1//EN"
 "http://www.w3.org/Graphics/SVG/1.1/DTD/svg11.dtd">
<!-- Generated by graphviz version 2.40.1 (20161225.0304)
 -->
<!-- Title: unicode_get_lower_simple Pages: 1 -->
<svg width="605pt" height="84pt"
 viewBox="0.00 0.00 605.00 84.00" xmlns="http://www.w3.org/2000/svg" xmlns:xlink="http://www.w3.org/1999/xlink">
<g id="graph0" class="graph" transform="scale(1 1) rotate(0) translate(4 80)">
<title>unicode_get_lower_simple</title>
<!-- Node673 -->
<g id="node1" class="node">
<title>Node673</title>
<polygon fill="#bfbfbf" stroke="#000000" points="0,-19.5 0,-38.5 146,-38.5 146,-19.5 0,-19.5"/>
<text text-anchor="middle" x="73" y="-26.5" font-family="Helvetica,sans-Serif" font-size="10.00" fill="#000000">unicode_get_lower_simple</text>
</g>
<!-- Node674 -->
<g id="node2" class="node">
<title>Node674</title>
<g id="a_node2"><a xlink:href="libunicode_8c.html#a9eadbbe61e5372257d1e58decec38d9a" target="_top" xlink:title="unicode_decomp_entry">
<polygon fill="none" stroke="#000000" points="182,-19.5 182,-38.5 312,-38.5 312,-19.5 182,-19.5"/>
<text text-anchor="middle" x="247" y="-26.5" font-family="Helvetica,sans-Serif" font-size="10.00" fill="#000000">unicode_decomp_entry</text>
</a>
</g>
</g>
<!-- Node673&#45;&gt;Node674 -->
<g id="edge1" class="edge">
<title>Node673&#45;&gt;Node674</title>
<path fill="none" stroke="#191970" d="M156.144,-29C164.7925,-29 173.4919,-29 181.8995,-29"/>
<polygon fill="#191970" stroke="#191970" points="156.0354,-25.5001 146.0354,-29 156.0353,-32.5001 156.0354,-25.5001"/>
</g>
<!-- Node675 -->
<g id="node3" class="node">
<title>Node675</title>
<g id="a_node3"><a xlink:href="libunicode_8c.html#aaa47a99ea5633bf86fb1dce6b38248a6" target="_top" xlink:title="unicode_decomp_char">
<polygon fill="none" stroke="#000000" points="349.5,-38.5 349.5,-57.5 474.5,-57.5 474.5,-38.5 349.5,-38.5"/>
<text text-anchor="middle" x="412" y="-45.5" font-family="Helvetica,sans-Serif" font-size="10.00" fill="#000000">unicode_decomp_char</text>
</a>
</g>
</g>
<!-- Node674&#45;&gt;Node675 -->
<g id="edge2" class="edge">
<title>Node674&#45;&gt;Node675</title>
<path fill="none" stroke="#191970" d="M322.3578,-37.6776C331.4079,-38.7197 340.5736,-39.7751 349.4147,-40.7932"/>
<polygon fill="#191970" stroke="#191970" points="322.5471,-34.1763 312.2124,-36.5093 321.7463,-41.1304 322.5471,-34.1763"/>
</g>
<!-- Node679 -->
<g id="node5" class="node">
<title>Node679</title>
<g id="a_node5"><a xlink:href="libunicode_8c.html#a85e9b528eac63b7a68aec567939e4c2c" target="_top" xlink:title="unicode_compose_pair">
<polygon fill="none" stroke="#000000" points="348,-.5 348,-19.5 476,-19.5 476,-.5 348,-.5"/>
<text text-anchor="middle" x="412" y="-7.5" font-family="Helvetica,sans-Serif" font-size="10.00" fill="#000000">unicode_compose_pair</text>
</a>
</g>
</g>
<!-- Node674&#45;&gt;Node679 -->
<g id="edge5" class="edge">
<title>Node674&#45;&gt;Node679</title>
<path fill="none" stroke="#191970" d="M322.1861,-20.3422C330.7425,-19.3569 339.4048,-18.3595 347.8007,-17.3926"/>
<polygon fill="#191970" stroke="#191970" points="321.7463,-16.8696 312.2124,-21.4907 322.5471,-23.8237 321.7463,-16.8696"/>
</g>
<!-- Node676 -->
<g id="node4" class="node">
<title>Node676</title>
<g id="a_node4"><a xlink:href="libunicode_8c.html#ab30f4b72bed0cefc5b1ceeb8caef2afc" target="_top" xlink:title="to_nfd_rec">
<polygon fill="none" stroke="#ff0000" points="520.5,-38.5 520.5,-57.5 588.5,-57.5 588.5,-38.5 520.5,-38.5"/>
<text text-anchor="middle" x="554.5" y="-45.5" font-family="Helvetica,sans-Serif" font-size="10.00" fill="#000000">to_nfd_rec</text>
</a>
</g>
</g>
<!-- Node675&#45;&gt;Node676 -->
<g id="edge3" class="edge">
<title>Node675&#45;&gt;Node676</title>
<path fill="none" stroke="#191970" d="M484.8584,-48C497.2075,-48 509.4922,-48 520.2275,-48"/>
<polygon fill="#191970" stroke="#191970" points="484.5026,-44.5001 474.5026,-48 484.5025,-51.5001 484.5026,-44.5001"/>
</g>
<!-- Node676&#45;&gt;Node676 -->
<g id="edge4" class="edge">
<title>Node676&#45;&gt;Node676</title>
<path fill="none" stroke="#191970" d="M527.9941,-66.6539C529.1021,-71.9368 537.9374,-76 554.5,-76 579.7383,-76 587.0337,-66.5653 576.3863,-57.7571"/>
<polygon fill="#191970" stroke="#191970" points="531.1117,-68.2449 532.6137,-57.7571 524.8992,-65.0192 531.1117,-68.2449"/>
</g>
<!-- Node680 -->
<g id="node6" class="node">
<title>Node680</title>
<g id="a_node6"><a xlink:href="libunicode_8c.html#aa4fcf940cdf5a415e60372353f9d25d7" target="_top" xlink:title="compose_pair">
<polygon fill="none" stroke="#ff0000" points="512,-.5 512,-19.5 597,-19.5 597,-.5 512,-.5"/>
<text text-anchor="middle" x="554.5" y="-7.5" font-family="Helvetica,sans-Serif" font-size="10.00" fill="#000000">compose_pair</text>
</a>
</g>
</g>
<!-- Node679&#45;&gt;Node680 -->
<g id="edge6" class="edge">
<title>Node679&#45;&gt;Node680</title>
<path fill="none" stroke="#191970" d="M486.4194,-10C495.1581,-10 503.8331,-10 511.9172,-10"/>
<polygon fill="#191970" stroke="#191970" points="486.1633,-6.5001 476.1633,-10 486.1632,-13.5001 486.1633,-6.5001"/>
</g>
</g>
</svg>
