<?xml version="1.0" encoding="UTF-8" standalone="no"?>
<!DOCTYPE svg PUBLIC "-//W3C//DTD SVG 1.1//EN"
 "http://www.w3.org/Graphics/SVG/1.1/DTD/svg11.dtd">
<!-- Generated by graphviz version 2.40.1 (20161225.0304)
 -->
<!-- Title: to_nfd_rec Pages: 1 -->
<svg width="369pt" height="46pt"
 viewBox="0.00 0.00 369.00 46.00" xmlns="http://www.w3.org/2000/svg" xmlns:xlink="http://www.w3.org/1999/xlink">
<g id="graph0" class="graph" transform="scale(1 1) rotate(0) translate(4 42)">
<title>to_nfd_rec</title>
<!-- Node742 -->
<g id="node1" class="node">
<title>Node742</title>
<polygon fill="#bfbfbf" stroke="#000000" points="0,-.5 0,-19.5 68,-19.5 68,-.5 0,-.5"/>
<text text-anchor="middle" x="34" y="-7.5" font-family="Helvetica,sans-Serif" font-size="10.00" fill="#000000">to_nfd_rec</text>
</g>
<!-- Node742&#45;&gt;Node742 -->
<g id="edge1" class="edge">
<title>Node742&#45;&gt;Node742</title>
<path fill="none" stroke="#191970" d="M10.9346,-29.0292C12.1928,-34.128 19.8812,-38 34,-38 56.0391,-38 62.4097,-28.5653 53.112,-19.7571"/>
<polygon fill="#191970" stroke="#191970" points="14.1854,-30.3286 14.888,-19.7571 7.7463,-27.5831 14.1854,-30.3286"/>
</g>
<!-- Node743 -->
<g id="node2" class="node">
<title>Node743</title>
<g id="a_node2"><a xlink:href="libunicode_8c.html#a6a79bc427bb64048b575fe5ac770160d" target="_top" xlink:title="unicode_normalize">
<polygon fill="none" stroke="#000000" points="104,-.5 104,-19.5 213,-19.5 213,-.5 104,-.5"/>
<text text-anchor="middle" x="158.5" y="-7.5" font-family="Helvetica,sans-Serif" font-size="10.00" fill="#000000">unicode_normalize</text>
</a>
</g>
</g>
<!-- Node742&#45;&gt;Node743 -->
<g id="edge2" class="edge">
<title>Node742&#45;&gt;Node743</title>
<path fill="none" stroke="#191970" d="M78.2456,-10C86.5557,-10 95.334,-10 103.9151,-10"/>
<polygon fill="#191970" stroke="#191970" points="78.0202,-6.5001 68.0202,-10 78.0201,-13.5001 78.0202,-6.5001"/>
</g>
<!-- Node744 -->
<g id="node3" class="node">
<title>Node744</title>
<g id="a_node3"><a xlink:href="quickjs_8c.html#ac6b88454ffc4d639197c1e95e515e04a" target="_top" xlink:title="js_string_normalize">
<polygon fill="none" stroke="#000000" points="249,-.5 249,-19.5 361,-19.5 361,-.5 249,-.5"/>
<text text-anchor="middle" x="305" y="-7.5" font-family="Helvetica,sans-Serif" font-size="10.00" fill="#000000">js_string_normalize</text>
</a>
</g>
</g>
<!-- Node743&#45;&gt;Node744 -->
<g id="edge3" class="edge">
<title>Node743&#45;&gt;Node744</title>
<path fill="none" stroke="#191970" d="M223.0685,-10C231.6903,-10 240.4749,-10 248.9352,-10"/>
<polygon fill="#191970" stroke="#191970" points="223.0512,-6.5001 213.0512,-10 223.0512,-13.5001 223.0512,-6.5001"/>
</g>
</g>
</svg>
