<?xml version="1.0" encoding="UTF-8" standalone="no"?>
<!DOCTYPE svg PUBLIC "-//W3C//DTD SVG 1.1//EN"
 "http://www.w3.org/Graphics/SVG/1.1/DTD/svg11.dtd">
<!-- Generated by graphviz version 2.40.1 (20161225.0304)
 -->
<!-- Title: unicode_general_category Pages: 1 -->
<svg width="568pt" height="66pt"
 viewBox="0.00 0.00 568.00 66.00" xmlns="http://www.w3.org/2000/svg" xmlns:xlink="http://www.w3.org/1999/xlink">
<g id="graph0" class="graph" transform="scale(1 1) rotate(0) translate(4 62)">
<title>unicode_general_category</title>
<!-- Node431 -->
<g id="node1" class="node">
<title>Node431</title>
<polygon fill="#bfbfbf" stroke="#000000" points="0,-19.5 0,-38.5 145,-38.5 145,-19.5 0,-19.5"/>
<text text-anchor="middle" x="72.5" y="-26.5" font-family="Helvetica,sans-Serif" font-size="10.00" fill="#000000">unicode_general_category</text>
</g>
<!-- Node432 -->
<g id="node2" class="node">
<title>Node432</title>
<g id="a_node2"><a xlink:href="libunicode_8c.html#a2c7890f229a1126ae81362db9f770003" target="_top" xlink:title="unicode_find_name">
<polygon fill="none" stroke="#000000" points="201,-38.5 201,-57.5 312,-57.5 312,-38.5 201,-38.5"/>
<text text-anchor="middle" x="256.5" y="-45.5" font-family="Helvetica,sans-Serif" font-size="10.00" fill="#000000">unicode_find_name</text>
</a>
</g>
</g>
<!-- Node431&#45;&gt;Node432 -->
<g id="edge1" class="edge">
<title>Node431&#45;&gt;Node432</title>
<path fill="none" stroke="#191970" d="M145.2217,-36.5093C160.2392,-38.06 175.9742,-39.6848 190.7274,-41.2083"/>
<polygon fill="#191970" stroke="#191970" points="190.4567,-44.6988 200.7634,-42.2446 191.1758,-37.7359 190.4567,-44.6988"/>
</g>
<!-- Node433 -->
<g id="node3" class="node">
<title>Node433</title>
<g id="a_node3"><a xlink:href="libunicode_8c.html#a5b19223b1de0eaf5d64806a1e3009a30" target="_top" xlink:title="unicode_general_category1">
<polygon fill="none" stroke="#000000" points="181,-.5 181,-19.5 332,-19.5 332,-.5 181,-.5"/>
<text text-anchor="middle" x="256.5" y="-7.5" font-family="Helvetica,sans-Serif" font-size="10.00" fill="#000000">unicode_general_category1</text>
</a>
</g>
</g>
<!-- Node431&#45;&gt;Node433 -->
<g id="edge2" class="edge">
<title>Node431&#45;&gt;Node433</title>
<path fill="none" stroke="#191970" d="M145.2217,-21.4907C153.669,-20.6184 162.3434,-19.7227 170.9423,-18.8348"/>
<polygon fill="#191970" stroke="#191970" points="171.3964,-22.3066 180.984,-17.7978 170.6774,-15.3436 171.3964,-22.3066"/>
</g>
<!-- Node434 -->
<g id="node4" class="node">
<title>Node434</title>
<g id="a_node4"><a xlink:href="libunicode_8h.html#aeade60962a424d84bc260a72311a0745" target="_top" xlink:title="cr_add_interval">
<polygon fill="none" stroke="#000000" points="368,-.5 368,-19.5 460,-19.5 460,-.5 368,-.5"/>
<text text-anchor="middle" x="414" y="-7.5" font-family="Helvetica,sans-Serif" font-size="10.00" fill="#000000">cr_add_interval</text>
</a>
</g>
</g>
<!-- Node433&#45;&gt;Node434 -->
<g id="edge3" class="edge">
<title>Node433&#45;&gt;Node434</title>
<path fill="none" stroke="#191970" d="M332.0208,-10C340.5694,-10 349.1688,-10 357.4152,-10"/>
<polygon fill="#191970" stroke="#191970" points="357.6415,-13.5001 367.6415,-10 357.6414,-6.5001 357.6415,-13.5001"/>
</g>
<!-- Node435 -->
<g id="node5" class="node">
<title>Node435</title>
<g id="a_node5"><a xlink:href="libunicode_8c.html#a7b73e29a0e2b936a11426d602faac462" target="_top" xlink:title="cr_realloc">
<polygon fill="none" stroke="#ff0000" points="496,-.5 496,-19.5 560,-19.5 560,-.5 496,-.5"/>
<text text-anchor="middle" x="528" y="-7.5" font-family="Helvetica,sans-Serif" font-size="10.00" fill="#000000">cr_realloc</text>
</a>
</g>
</g>
<!-- Node434&#45;&gt;Node435 -->
<g id="edge4" class="edge">
<title>Node434&#45;&gt;Node435</title>
<path fill="none" stroke="#191970" d="M460.0396,-10C468.4688,-10 477.2304,-10 485.549,-10"/>
<polygon fill="#191970" stroke="#191970" points="485.7905,-13.5001 495.7905,-10 485.7904,-6.5001 485.7905,-13.5001"/>
</g>
</g>
</svg>
