<?xml version="1.0" encoding="UTF-8" standalone="no"?>
<!DOCTYPE svg PUBLIC "-//W3C//DTD SVG 1.1//EN"
 "http://www.w3.org/Graphics/SVG/1.1/DTD/svg11.dtd">
<!-- Generated by graphviz version 2.40.1 (20161225.0304)
 -->
<!-- Title: lre_is_id_start Pages: 1 -->
<svg width="650pt" height="205pt"
 viewBox="0.00 0.00 650.00 204.90" xmlns="http://www.w3.org/2000/svg" xmlns:xlink="http://www.w3.org/1999/xlink">
<g id="graph0" class="graph" transform="scale(1 1) rotate(0) translate(4 200.8988)">
<title>lre_is_id_start</title>
<!-- Node286 -->
<g id="node1" class="node">
<title>Node286</title>
<polygon fill="#bfbfbf" stroke="#000000" points="0,-63.3988 0,-82.3988 85,-82.3988 85,-63.3988 0,-63.3988"/>
<text text-anchor="middle" x="42.5" y="-70.3988" font-family="Helvetica,sans-Serif" font-size="10.00" fill="#000000">lre_is_id_start</text>
</g>
<!-- Node287 -->
<g id="node2" class="node">
<title>Node287</title>
<g id="a_node2"><a xlink:href="libunicode_8c.html#a9992c7e1e84a9fc516edf3de2c77468a" target="_top" xlink:title="lre_is_id_continue">
<polygon fill="none" stroke="#000000" points="121,-82.3988 121,-101.3988 225,-101.3988 225,-82.3988 121,-82.3988"/>
<text text-anchor="middle" x="173" y="-89.3988" font-family="Helvetica,sans-Serif" font-size="10.00" fill="#000000">lre_is_id_continue</text>
</a>
</g>
</g>
<!-- Node286&#45;&gt;Node287 -->
<g id="edge1" class="edge">
<title>Node286&#45;&gt;Node287</title>
<path fill="none" stroke="#191970" d="M95.2474,-80.5785C103.6069,-81.7956 112.2508,-83.0541 120.6022,-84.27"/>
<polygon fill="#191970" stroke="#191970" points="95.6305,-77.0974 85.2306,-79.1201 94.622,-84.0244 95.6305,-77.0974"/>
</g>
<!-- Node354 -->
<g id="node9" class="node">
<title>Node354</title>
<g id="a_node9"><a xlink:href="libregexp_8h.html#a4737debd233b96f1a317fdb40a3fbd69" target="_top" xlink:title="lre_js_is_ident_first">
<polygon fill="none" stroke="#000000" points="262.5,-25.3988 262.5,-44.3988 372.5,-44.3988 372.5,-25.3988 262.5,-25.3988"/>
<text text-anchor="middle" x="317.5" y="-32.3988" font-family="Helvetica,sans-Serif" font-size="10.00" fill="#000000">lre_js_is_ident_first</text>
</a>
</g>
</g>
<!-- Node286&#45;&gt;Node354 -->
<g id="edge9" class="edge">
<title>Node286&#45;&gt;Node354</title>
<path fill="none" stroke="#191970" d="M95.3419,-65.597C143.2948,-58.9708 213.7366,-49.237 262.3843,-42.5148"/>
<polygon fill="#191970" stroke="#191970" points="94.5938,-62.167 85.167,-67.003 95.552,-69.1011 94.5938,-62.167"/>
</g>
<!-- Node288 -->
<g id="node3" class="node">
<title>Node288</title>
<g id="a_node3"><a xlink:href="libregexp_8h.html#a3dd6ac80b2cc9f7fc7f18a4cb0acdce3" target="_top" xlink:title="lre_js_is_ident_next">
<polygon fill="none" stroke="#000000" points="261,-82.3988 261,-101.3988 374,-101.3988 374,-82.3988 261,-82.3988"/>
<text text-anchor="middle" x="317.5" y="-89.3988" font-family="Helvetica,sans-Serif" font-size="10.00" fill="#000000">lre_js_is_ident_next</text>
</a>
</g>
</g>
<!-- Node287&#45;&gt;Node288 -->
<g id="edge2" class="edge">
<title>Node287&#45;&gt;Node288</title>
<path fill="none" stroke="#191970" d="M235.2756,-91.8988C243.662,-91.8988 252.2312,-91.8988 260.5194,-91.8988"/>
<polygon fill="#191970" stroke="#191970" points="235.1679,-88.3989 225.1678,-91.8988 235.1678,-95.3989 235.1679,-88.3989"/>
</g>
<!-- Node289 -->
<g id="node4" class="node">
<title>Node289</title>
<g id="a_node4"><a xlink:href="quickjs_8c.html#acb789e8ccb230adfd9262642ff338177" target="_top" xlink:title="js_parse_regexp">
<polygon fill="none" stroke="#ff0000" points="424.5,-177.3988 424.5,-196.3988 520.5,-196.3988 520.5,-177.3988 424.5,-177.3988"/>
<text text-anchor="middle" x="472.5" y="-184.3988" font-family="Helvetica,sans-Serif" font-size="10.00" fill="#000000">js_parse_regexp</text>
</a>
</g>
</g>
<!-- Node288&#45;&gt;Node289 -->
<g id="edge3" class="edge">
<title>Node288&#45;&gt;Node289</title>
<path fill="none" stroke="#191970" d="M335.7697,-108.4923C353.6664,-124.1017 382.2241,-147.3386 410,-162.8988 420.1404,-168.5795 431.8954,-173.4843 442.4562,-177.3525"/>
<polygon fill="#191970" stroke="#191970" points="337.6958,-105.5226 327.8906,-101.5092 333.0529,-110.7613 337.6958,-105.5226"/>
</g>
<!-- Node327 -->
<g id="node5" class="node">
<title>Node327</title>
<g id="a_node5"><a xlink:href="quickjs_8c.html#a75a3798e2045f6e403c1ef467126d1fb" target="_top" xlink:title="next_token">
<polygon fill="none" stroke="#ff0000" points="571,-101.3988 571,-120.3988 642,-120.3988 642,-101.3988 571,-101.3988"/>
<text text-anchor="middle" x="606.5" y="-108.3988" font-family="Helvetica,sans-Serif" font-size="10.00" fill="#000000">next_token</text>
</a>
</g>
</g>
<!-- Node288&#45;&gt;Node327 -->
<g id="edge4" class="edge">
<title>Node288&#45;&gt;Node327</title>
<path fill="none" stroke="#191970" d="M344.2124,-106.1359C362.2341,-114.9113 386.8622,-125.3314 410,-129.8988 464.5038,-140.6579 479.9123,-137.0933 535,-129.8988 549.2641,-128.0359 564.7327,-124.1663 577.6216,-120.4024"/>
<polygon fill="#191970" stroke="#191970" points="345.4389,-102.8354 334.9314,-101.4775 342.2987,-109.0916 345.4389,-102.8354"/>
</g>
<!-- Node336 -->
<g id="node6" class="node">
<title>Node336</title>
<g id="a_node6"><a xlink:href="quickjs_8c.html#ad91865d0889d1420e3e70d5d497a9bdb" target="_top" xlink:title="parse_ident">
<polygon fill="none" stroke="#000000" points="435.5,-101.3988 435.5,-120.3988 509.5,-120.3988 509.5,-101.3988 435.5,-101.3988"/>
<text text-anchor="middle" x="472.5" y="-108.3988" font-family="Helvetica,sans-Serif" font-size="10.00" fill="#000000">parse_ident</text>
</a>
</g>
</g>
<!-- Node288&#45;&gt;Node336 -->
<g id="edge5" class="edge">
<title>Node288&#45;&gt;Node336</title>
<path fill="none" stroke="#191970" d="M384.5108,-100.113C401.9805,-102.2545 420.1745,-104.4847 435.4537,-106.3576"/>
<polygon fill="#191970" stroke="#191970" points="384.6877,-96.6086 374.3361,-98.8658 383.836,-103.5566 384.6877,-96.6086"/>
</g>
<!-- Node337 -->
<g id="node7" class="node">
<title>Node337</title>
<g id="a_node7"><a xlink:href="libregexp_8c.html#a6e0ee9170c3faaca126dbcc40c07aed7" target="_top" xlink:title="re_parse_group_name">
<polygon fill="none" stroke="#ff0000" points="410,-63.3988 410,-82.3988 535,-82.3988 535,-63.3988 410,-63.3988"/>
<text text-anchor="middle" x="472.5" y="-70.3988" font-family="Helvetica,sans-Serif" font-size="10.00" fill="#000000">re_parse_group_name</text>
</a>
</g>
</g>
<!-- Node288&#45;&gt;Node337 -->
<g id="edge7" class="edge">
<title>Node288&#45;&gt;Node337</title>
<path fill="none" stroke="#191970" d="M384.515,-83.684C392.951,-82.65 401.5559,-81.5952 409.9198,-80.5699"/>
<polygon fill="#191970" stroke="#191970" points="383.836,-80.241 374.3361,-84.9318 384.6877,-87.189 383.836,-80.241"/>
</g>
<!-- Node350 -->
<g id="node8" class="node">
<title>Node350</title>
<g id="a_node8"><a xlink:href="quickjs_8c.html#abd9d73eefa041a1741277e91ed026746" target="_top" xlink:title="simple_next_token">
<polygon fill="none" stroke="#ff0000" points="417.5,-25.3988 417.5,-44.3988 527.5,-44.3988 527.5,-25.3988 417.5,-25.3988"/>
<text text-anchor="middle" x="472.5" y="-32.3988" font-family="Helvetica,sans-Serif" font-size="10.00" fill="#000000">simple_next_token</text>
</a>
</g>
</g>
<!-- Node288&#45;&gt;Node350 -->
<g id="edge8" class="edge">
<title>Node288&#45;&gt;Node350</title>
<path fill="none" stroke="#191970" d="M348.6557,-78.2376C366.462,-70.648 389.303,-61.2773 410,-53.8988 419.2937,-50.5855 429.489,-47.3299 438.8997,-44.4753"/>
<polygon fill="#191970" stroke="#191970" points="347.1323,-75.0827 339.3268,-82.2469 349.8963,-81.514 347.1323,-75.0827"/>
</g>
<!-- Node336&#45;&gt;Node327 -->
<g id="edge6" class="edge">
<title>Node336&#45;&gt;Node327</title>
<path fill="none" stroke="#191970" d="M519.9629,-110.8988C536.6788,-110.8988 555.1728,-110.8988 570.7582,-110.8988"/>
<polygon fill="#191970" stroke="#191970" points="519.8265,-107.3989 509.8265,-110.8988 519.8264,-114.3989 519.8265,-107.3989"/>
</g>
<!-- Node354&#45;&gt;Node327 -->
<g id="edge10" class="edge">
<title>Node354&#45;&gt;Node327</title>
<path fill="none" stroke="#191970" d="M349.9735,-21.9353C394.3031,-6.4116 475.0891,13.9937 535,-15.8988 571.5723,-34.1465 594.3435,-80.9968 602.7845,-101.2892"/>
<polygon fill="#191970" stroke="#191970" points="348.7717,-18.648 340.5659,-25.3499 351.16,-25.228 348.7717,-18.648"/>
</g>
<!-- Node354&#45;&gt;Node337 -->
<g id="edge11" class="edge">
<title>Node354&#45;&gt;Node337</title>
<path fill="none" stroke="#191970" d="M366.6105,-46.9388C388.2647,-52.2476 413.3502,-58.3975 433.6682,-63.3787"/>
<polygon fill="#191970" stroke="#191970" points="367.1588,-43.4696 356.613,-44.4878 365.492,-50.2683 367.1588,-43.4696"/>
</g>
<!-- Node354&#45;&gt;Node350 -->
<g id="edge12" class="edge">
<title>Node354&#45;&gt;Node350</title>
<path fill="none" stroke="#191970" d="M382.6109,-34.8988C394.1621,-34.8988 406.0902,-34.8988 417.3328,-34.8988"/>
<polygon fill="#191970" stroke="#191970" points="382.5837,-31.3989 372.5836,-34.8988 382.5836,-38.3989 382.5837,-31.3989"/>
</g>
</g>
</svg>
