<?xml version="1.0" encoding="UTF-8" standalone="no"?>
<!DOCTYPE svg PUBLIC "-//W3C//DTD SVG 1.1//EN"
 "http://www.w3.org/Graphics/SVG/1.1/DTD/svg11.dtd">
<!-- Generated by graphviz version 2.40.1 (20161225.0304)
 -->
<!-- Title: cr_add_point Pages: 1 -->
<!--zoomable 197 -->
<svg id="main" version="1.1" xmlns="http://www.w3.org/2000/svg" xmlns:xlink="http://www.w3.org/1999/xlink" xml:space="preserve" onload="init(evt)">
<style type="text/css"><![CDATA[
.edge:hover path { stroke: red; }
.edge:hover polygon { stroke: red; fill: red; }
]]></style>
<script type="text/javascript"><![CDATA[
var edges = document.getElementsByTagName('g');
if (edges && edges.length) {
  for (var i=0;i<edges.length;i++) {
    if (edges[i].id.substr(0,4)=='edge') {
      edges[i].setAttribute('class','edge');
    }
  }
}
]]></script>
        <defs>
                <circle id="rim" cx="0" cy="0" r="7"/>
                <circle id="rim2" cx="0" cy="0" r="3.5"/>
                <g id="zoomPlus">
                        <use xlink:href="#rim" fill="#404040">
                                <set attributeName="fill" to="#808080" begin="zoomplus.mouseover" end="zoomplus.mouseout"/>
                        </use>
                        <path d="M-4,0h8M0,-4v8" fill="none" stroke="white" stroke-width="1.5" pointer-events="none"/>
                </g>
                <g id="zoomMin">
                        <use xlink:href="#rim" fill="#404040">
                                <set attributeName="fill" to="#808080" begin="zoomminus.mouseover" end="zoomminus.mouseout"/>
                        </use>
                        <path d="M-4,0h8" fill="none" stroke="white" stroke-width="1.5" pointer-events="none"/>
                </g>
                <g id="dirArrow">
                        <path fill="none" stroke="white" stroke-width="1.5" d="M0,-3.0v7 M-2.5,-0.5L0,-3.0L2.5,-0.5"/>
                </g>
               <g id="resetDef">
                       <use xlink:href="#rim2" fill="#404040">
                               <set attributeName="fill" to="#808080" begin="reset.mouseover" end="reset.mouseout"/>
                       </use>
               </g>
        </defs>

<script type="text/javascript">
var viewWidth = 1029;
var viewHeight = 197;
var sectionId = 'dynsection-13';
</script>
<script xlink:href="svgpan.js"/>
<svg id="graph" class="graph">
<g id="viewport">
<title>cr_add_point</title>
<!-- Node130 -->
<g id="node1" class="node">
<title>Node130</title>
<polygon fill="#bfbfbf" stroke="#000000" points="0,-131.422 0,-150.422 79,-150.422 79,-131.422 0,-131.422"/>
<text text-anchor="middle" x="39.5" y="-138.422" font-family="Helvetica,sans-Serif" font-size="10.00" fill="#000000">cr_add_point</text>
</g>
<!-- Node131 -->
<g id="node2" class="node">
<title>Node131</title>
<g id="a_node2"><a xlink:href="libregexp_8c.html#a5789f2a52e48bda3437bbd0a28dae35d" target="_top" xlink:title="cr_init_char_range">
<polygon fill="none" stroke="#000000" points="334,-169.422 334,-188.422 440,-188.422 440,-169.422 334,-169.422"/>
<text text-anchor="middle" x="387" y="-176.422" font-family="Helvetica,sans-Serif" font-size="10.00" fill="#000000">cr_init_char_range</text>
</a>
</g>
</g>
<!-- Node130&#45;&gt;Node131 -->
<g id="edge1" class="edge">
<title>Node130&#45;&gt;Node131</title>
<path fill="none" stroke="#191970" d="M89.4547,-147.3765C119.6917,-151.2059 159.0394,-156.052 194,-159.922 241.185,-165.1451 294.9412,-170.3785 333.716,-174.0263"/>
<polygon fill="#191970" stroke="#191970" points="89.5232,-143.8572 79.1615,-146.0677 88.6402,-150.8012 89.5232,-143.8572"/>
</g>
<!-- Node147 -->
<g id="node6" class="node">
<title>Node147</title>
<g id="a_node6"><a xlink:href="libunicode_8c.html#a34896d0331c7b2845f267f8f6dde6a55" target="_top" xlink:title="cr_op">
<polygon fill="none" stroke="#000000" points="115,-93.422 115,-112.422 158,-112.422 158,-93.422 115,-93.422"/>
<text text-anchor="middle" x="136.5" y="-100.422" font-family="Helvetica,sans-Serif" font-size="10.00" fill="#000000">cr_op</text>
</a>
</g>
</g>
<!-- Node130&#45;&gt;Node147 -->
<g id="edge6" class="edge">
<title>Node130&#45;&gt;Node147</title>
<path fill="none" stroke="#191970" d="M73.5569,-127.5801C87.2177,-122.2284 102.5608,-116.2177 114.6784,-111.4706"/>
<polygon fill="#191970" stroke="#191970" points="72.0115,-124.4264 63.9772,-131.3329 74.5649,-130.9441 72.0115,-124.4264"/>
</g>
<!-- Node132 -->
<g id="node3" class="node">
<title>Node132</title>
<g id="a_node3"><a xlink:href="libregexp_8c.html#ac654c01af0eedad21af5da6e5035f37c" target="_top" xlink:title="get_class_atom">
<polygon fill="none" stroke="#000000" points="650,-93.422 650,-112.422 743,-112.422 743,-93.422 650,-93.422"/>
<text text-anchor="middle" x="696.5" y="-100.422" font-family="Helvetica,sans-Serif" font-size="10.00" fill="#000000">get_class_atom</text>
</a>
</g>
</g>
<!-- Node131&#45;&gt;Node132 -->
<g id="edge2" class="edge">
<title>Node131&#45;&gt;Node132</title>
<path fill="none" stroke="#191970" d="M435.715,-166.9596C497.0503,-151.8983 601.1948,-126.3248 657.5306,-112.4912"/>
<polygon fill="#191970" stroke="#191970" points="434.7618,-163.5896 425.885,-169.3735 436.4312,-170.3877 434.7618,-163.5896"/>
</g>
<!-- Node133 -->
<g id="node4" class="node">
<title>Node133</title>
<g id="a_node4"><a xlink:href="libregexp_8c.html#ab2f98b8a2e66fd9197d2677f47ccffa8" target="_top" xlink:title="re_parse_char_class">
<polygon fill="none" stroke="#000000" points="783,-55.422 783,-74.422 898,-74.422 898,-55.422 783,-55.422"/>
<text text-anchor="middle" x="840.5" y="-62.422" font-family="Helvetica,sans-Serif" font-size="10.00" fill="#000000">re_parse_char_class</text>
</a>
</g>
</g>
<!-- Node132&#45;&gt;Node133 -->
<g id="edge3" class="edge">
<title>Node132&#45;&gt;Node133</title>
<path fill="none" stroke="#191970" d="M742.6722,-90.7376C762.6642,-85.462 785.7187,-79.3781 804.424,-74.442"/>
<polygon fill="#191970" stroke="#191970" points="741.6132,-87.3972 732.8373,-93.3329 743.3994,-94.1655 741.6132,-87.3972"/>
</g>
<!-- Node134 -->
<g id="node5" class="node">
<title>Node134</title>
<g id="a_node5"><a xlink:href="libregexp_8c.html#acca34590a18d70f866ad56d67ce309e8" target="_top" xlink:title="re_parse_term">
<polygon fill="none" stroke="#ff0000" points="934,-74.422 934,-93.422 1021,-93.422 1021,-74.422 934,-74.422"/>
<text text-anchor="middle" x="977.5" y="-81.422" font-family="Helvetica,sans-Serif" font-size="10.00" fill="#000000">re_parse_term</text>
</a>
</g>
</g>
<!-- Node132&#45;&gt;Node134 -->
<g id="edge5" class="edge">
<title>Node132&#45;&gt;Node134</title>
<path fill="none" stroke="#191970" d="M753.2012,-99.0881C806.5549,-95.4805 885.3131,-90.1552 933.9093,-86.8694"/>
<polygon fill="#191970" stroke="#191970" points="752.9579,-95.5964 743.2169,-99.7632 753.4302,-102.5805 752.9579,-95.5964"/>
</g>
<!-- Node133&#45;&gt;Node134 -->
<g id="edge4" class="edge">
<title>Node133&#45;&gt;Node134</title>
<path fill="none" stroke="#191970" d="M908.2711,-74.3209C916.8812,-75.515 925.5067,-76.7112 933.6033,-77.8341"/>
<polygon fill="#191970" stroke="#191970" points="908.5893,-70.8316 898.2033,-72.9246 907.6276,-77.7652 908.5893,-70.8316"/>
</g>
<!-- Node148 -->
<g id="node7" class="node">
<title>Node148</title>
<g id="a_node7"><a xlink:href="libregexp_8c.html#a275d25528366a9d7b1c83835b41519d9" target="_top" xlink:title="cr_canonicalize">
<polygon fill="none" stroke="#000000" points="650.5,-55.422 650.5,-74.422 742.5,-74.422 742.5,-55.422 650.5,-55.422"/>
<text text-anchor="middle" x="696.5" y="-62.422" font-family="Helvetica,sans-Serif" font-size="10.00" fill="#000000">cr_canonicalize</text>
</a>
</g>
</g>
<!-- Node147&#45;&gt;Node148 -->
<g id="edge7" class="edge">
<title>Node147&#45;&gt;Node148</title>
<path fill="none" stroke="#191970" d="M167.6923,-90.8488C176.1101,-88.08 185.2992,-85.4914 194,-83.922 359.8166,-54.0111 561.2211,-58.4011 650.3077,-62.3732"/>
<polygon fill="#191970" stroke="#191970" points="166.5384,-87.5444 158.2403,-94.1317 168.8351,-94.1569 166.5384,-87.5444"/>
</g>
<!-- Node149 -->
<g id="node8" class="node">
<title>Node149</title>
<g id="a_node8"><a xlink:href="libunicode_8c.html#aec56a2c4600cb7d047c077c37b8a491d" target="_top" xlink:title="cr_union1">
<polygon fill="none" stroke="#000000" points="511,-17.422 511,-36.422 575,-36.422 575,-17.422 511,-17.422"/>
<text text-anchor="middle" x="543" y="-24.422" font-family="Helvetica,sans-Serif" font-size="10.00" fill="#000000">cr_union1</text>
</a>
</g>
</g>
<!-- Node147&#45;&gt;Node149 -->
<g id="edge9" class="edge">
<title>Node147&#45;&gt;Node149</title>
<path fill="none" stroke="#191970" d="M150.2277,-85.4594C160.782,-73.4467 176.4883,-58.3658 194,-50.922 302.4329,-4.8296 446.9458,-14.8133 510.5842,-22.3526"/>
<polygon fill="#191970" stroke="#191970" points="147.5213,-83.2399 143.7852,-93.1542 152.8884,-87.7337 147.5213,-83.2399"/>
</g>
<!-- Node151 -->
<g id="node10" class="node">
<title>Node151</title>
<g id="a_node10"><a xlink:href="libunicode_8c.html#a58dbb07f758bbf3de6c87a0647ec72e3" target="_top" xlink:title="unicode_prop_ops">
<polygon fill="none" stroke="#000000" points="194,-131.422 194,-150.422 298,-150.422 298,-131.422 194,-131.422"/>
<text text-anchor="middle" x="246" y="-138.422" font-family="Helvetica,sans-Serif" font-size="10.00" fill="#000000">unicode_prop_ops</text>
</a>
</g>
</g>
<!-- Node147&#45;&gt;Node151 -->
<g id="edge14" class="edge">
<title>Node147&#45;&gt;Node151</title>
<path fill="none" stroke="#191970" d="M167.6311,-113.7254C183.6846,-119.2965 203.0897,-126.0307 218.5738,-131.4042"/>
<polygon fill="#191970" stroke="#191970" points="168.7285,-110.4016 158.1337,-110.4295 166.4335,-117.0147 168.7285,-110.4016"/>
</g>
<!-- Node154 -->
<g id="node13" class="node">
<title>Node154</title>
<g id="a_node13"><a xlink:href="libunicode_8c.html#aed9a601406b09f37aad3e07557c8b754" target="_top" xlink:title="unicode_script">
<polygon fill="none" stroke="#000000" points="202.5,-93.422 202.5,-112.422 289.5,-112.422 289.5,-93.422 202.5,-93.422"/>
<text text-anchor="middle" x="246" y="-100.422" font-family="Helvetica,sans-Serif" font-size="10.00" fill="#000000">unicode_script</text>
</a>
</g>
</g>
<!-- Node147&#45;&gt;Node154 -->
<g id="edge18" class="edge">
<title>Node147&#45;&gt;Node154</title>
<path fill="none" stroke="#191970" d="M168.2012,-102.922C178.817,-102.922 190.8469,-102.922 202.2186,-102.922"/>
<polygon fill="#191970" stroke="#191970" points="168.1337,-99.4221 158.1337,-102.922 168.1336,-106.4221 168.1337,-99.4221"/>
</g>
<!-- Node148&#45;&gt;Node133 -->
<g id="edge8" class="edge">
<title>Node148&#45;&gt;Node133</title>
<path fill="none" stroke="#191970" d="M752.9248,-64.922C762.7605,-64.922 773.0035,-64.922 782.8711,-64.922"/>
<polygon fill="#191970" stroke="#191970" points="752.8552,-61.4221 742.8551,-64.922 752.8551,-68.4221 752.8552,-61.4221"/>
</g>
<!-- Node149&#45;&gt;Node133 -->
<g id="edge13" class="edge">
<title>Node149&#45;&gt;Node133</title>
<path fill="none" stroke="#191970" d="M583.1306,-14.7518C624.8391,-4.0433 691.6351,7.6235 747,-7.922 779.9461,-17.1726 812.7867,-41.5945 829.3821,-55.2796"/>
<polygon fill="#191970" stroke="#191970" points="582.104,-11.4033 573.3459,-17.3654 583.9104,-18.1662 582.104,-11.4033"/>
</g>
<!-- Node149&#45;&gt;Node148 -->
<g id="edge10" class="edge">
<title>Node149&#45;&gt;Node148</title>
<path fill="none" stroke="#191970" d="M584.9423,-37.3051C607.7882,-42.9607 635.8547,-49.9088 658.1205,-55.4208"/>
<polygon fill="#191970" stroke="#191970" points="585.7267,-33.8937 575.1786,-34.888 584.0445,-40.6885 585.7267,-33.8937"/>
</g>
<!-- Node150 -->
<g id="node9" class="node">
<title>Node150</title>
<g id="a_node9"><a xlink:href="libunicode_8h.html#a1e3018bd47f12829f7d435f38d864617" target="_top" xlink:title="cr_union_interval">
<polygon fill="none" stroke="#000000" points="646,-17.422 646,-36.422 747,-36.422 747,-17.422 646,-17.422"/>
<text text-anchor="middle" x="696.5" y="-24.422" font-family="Helvetica,sans-Serif" font-size="10.00" fill="#000000">cr_union_interval</text>
</a>
</g>
</g>
<!-- Node149&#45;&gt;Node150 -->
<g id="edge11" class="edge">
<title>Node149&#45;&gt;Node150</title>
<path fill="none" stroke="#191970" d="M585.2164,-26.922C603.9996,-26.922 626.2692,-26.922 645.9335,-26.922"/>
<polygon fill="#191970" stroke="#191970" points="585.1787,-23.4221 575.1786,-26.922 585.1786,-30.4221 585.1787,-23.4221"/>
</g>
<!-- Node150&#45;&gt;Node133 -->
<g id="edge12" class="edge">
<title>Node150&#45;&gt;Node133</title>
<path fill="none" stroke="#191970" d="M742.6722,-39.1063C762.6642,-44.3819 785.7187,-50.4658 804.424,-55.4019"/>
<polygon fill="#191970" stroke="#191970" points="743.3994,-35.6784 732.8373,-36.511 741.6132,-42.4467 743.3994,-35.6784"/>
</g>
<!-- Node152 -->
<g id="node11" class="node">
<title>Node152</title>
<g id="a_node11"><a xlink:href="libunicode_8c.html#a042c7e38726f6727a9826c4dd2c45832" target="_top" xlink:title="unicode_prop">
<polygon fill="none" stroke="#000000" points="346,-131.422 346,-150.422 428,-150.422 428,-131.422 346,-131.422"/>
<text text-anchor="middle" x="387" y="-138.422" font-family="Helvetica,sans-Serif" font-size="10.00" fill="#000000">unicode_prop</text>
</a>
</g>
</g>
<!-- Node151&#45;&gt;Node152 -->
<g id="edge15" class="edge">
<title>Node151&#45;&gt;Node152</title>
<path fill="none" stroke="#191970" d="M308.1737,-140.922C320.869,-140.922 333.9297,-140.922 345.6777,-140.922"/>
<polygon fill="#191970" stroke="#191970" points="308.1026,-137.4221 298.1026,-140.922 308.1026,-144.4221 308.1026,-137.4221"/>
</g>
<!-- Node153 -->
<g id="node12" class="node">
<title>Node153</title>
<g id="a_node12"><a xlink:href="libregexp_8c.html#a24c5604c81a33e66906a1f43227221e8" target="_top" xlink:title="parse_unicode_property">
<polygon fill="none" stroke="#000000" points="476,-93.422 476,-112.422 610,-112.422 610,-93.422 476,-93.422"/>
<text text-anchor="middle" x="543" y="-100.422" font-family="Helvetica,sans-Serif" font-size="10.00" fill="#000000">parse_unicode_property</text>
</a>
</g>
</g>
<!-- Node152&#45;&gt;Node153 -->
<g id="edge16" class="edge">
<title>Node152&#45;&gt;Node153</title>
<path fill="none" stroke="#191970" d="M436.1317,-128.954C457.9927,-123.6289 483.3761,-117.4457 503.9177,-112.442"/>
<polygon fill="#191970" stroke="#191970" points="435.2529,-125.5656 426.3654,-131.3329 436.9097,-132.3667 435.2529,-125.5656"/>
</g>
<!-- Node153&#45;&gt;Node132 -->
<g id="edge17" class="edge">
<title>Node153&#45;&gt;Node132</title>
<path fill="none" stroke="#191970" d="M620.403,-102.922C630.4996,-102.922 640.5811,-102.922 649.9485,-102.922"/>
<polygon fill="#191970" stroke="#191970" points="620.3274,-99.4221 610.3273,-102.922 620.3273,-106.4221 620.3274,-99.4221"/>
</g>
<!-- Node154&#45;&gt;Node153 -->
<g id="edge19" class="edge">
<title>Node154&#45;&gt;Node153</title>
<path fill="none" stroke="#191970" d="M299.6593,-102.922C349.033,-102.922 422.4582,-102.922 475.7337,-102.922"/>
<polygon fill="#191970" stroke="#191970" points="299.5045,-99.4221 289.5044,-102.922 299.5044,-106.4221 299.5045,-99.4221"/>
</g>
</g>
</svg>
        <g id="navigator" transform="translate(0 0)" fill="#404254">
                <rect fill="#f2f5e9" fill-opacity="0.5" stroke="#606060" stroke-width=".5" x="0" y="0" width="60" height="60"/>
                <use id="zoomplus" xlink:href="#zoomPlus" x="17" y="9" onmousedown="handleZoom(evt,'in')"/>
                <use id="zoomminus" xlink:href="#zoomMin" x="42" y="9" onmousedown="handleZoom(evt,'out')"/>
                <use id="reset" xlink:href="#resetDef" x="30" y="36" onmousedown="handleReset()"/>
                <g id="arrowUp" xlink:href="#dirArrow" transform="translate(30 24)" onmousedown="handlePan(0,-1)">
                  <use xlink:href="#rim" fill="#404040">
                        <set attributeName="fill" to="#808080" begin="arrowUp.mouseover" end="arrowUp.mouseout"/>
                  </use>
                  <path fill="none" stroke="white" stroke-width="1.5" d="M0,-3.0v7 M-2.5,-0.5L0,-3.0L2.5,-0.5"/>
                </g>
                <g id="arrowRight" xlink:href="#dirArrow" transform="rotate(90) translate(36 -43)" onmousedown="handlePan(1,0)">
                  <use xlink:href="#rim" fill="#404040">
                        <set attributeName="fill" to="#808080" begin="arrowRight.mouseover" end="arrowRight.mouseout"/>
                  </use>
                  <path fill="none" stroke="white" stroke-width="1.5" d="M0,-3.0v7 M-2.5,-0.5L0,-3.0L2.5,-0.5"/>
                </g>
                <g id="arrowDown" xlink:href="#dirArrow" transform="rotate(180) translate(-30 -48)" onmousedown="handlePan(0,1)">
                  <use xlink:href="#rim" fill="#404040">
                        <set attributeName="fill" to="#808080" begin="arrowDown.mouseover" end="arrowDown.mouseout"/>
                  </use>
                  <path fill="none" stroke="white" stroke-width="1.5" d="M0,-3.0v7 M-2.5,-0.5L0,-3.0L2.5,-0.5"/>
                </g>
                <g id="arrowLeft" xlink:href="#dirArrow" transform="rotate(270) translate(-36 17)" onmousedown="handlePan(-1,0)">
                  <use xlink:href="#rim" fill="#404040">
                        <set attributeName="fill" to="#808080" begin="arrowLeft.mouseover" end="arrowLeft.mouseout"/>
                  </use>
                  <path fill="none" stroke="white" stroke-width="1.5" d="M0,-3.0v7 M-2.5,-0.5L0,-3.0L2.5,-0.5"/>
                </g>
        </g>
        <svg viewBox="0 0 15 15" width="100%" height="30px" preserveAspectRatio="xMaxYMin meet">
         <g id="arrow_out" transform="scale(0.3 0.3)">
          <a xlink:href="libunicode_8h_aaf2d50fc6added56ee3c3273e991321c_icgraph_org.svg" target="_base">
           <rect id="button" ry="5" rx="5" y="6" x="6" height="38" width="38"
                fill="#f2f5e9" fill-opacity="0.5" stroke="#606060" stroke-width="1.0"/>
           <path id="arrow"
             d="M 11.500037,31.436501 C 11.940474,20.09759 22.043105,11.32322 32.158766,21.979434 L 37.068811,17.246167 C 37.068811,17.246167 37.088388,32 37.088388,32 L 22.160133,31.978069 C 22.160133,31.978069 26.997745,27.140456 26.997745,27.140456 C 18.528582,18.264221 13.291696,25.230495 11.500037,31.436501 z"
             style="fill:#404040;"/>
          </a>
         </g>
        </svg>
</svg>
