<?xml version="1.0" encoding="UTF-8" standalone="no"?>
<!DOCTYPE svg PUBLIC "-//W3C//DTD SVG 1.1//EN"
 "http://www.w3.org/Graphics/SVG/1.1/DTD/svg11.dtd">
<!-- Generated by graphviz version 2.40.1 (20161225.0304)
 -->
<!-- Title: cr_invert Pages: 1 -->
<!--zoomable 169 -->
<svg id="main" version="1.1" xmlns="http://www.w3.org/2000/svg" xmlns:xlink="http://www.w3.org/1999/xlink" xml:space="preserve" onload="init(evt)">
<style type="text/css"><![CDATA[
.edge:hover path { stroke: red; }
.edge:hover polygon { stroke: red; fill: red; }
]]></style>
<script type="text/javascript"><![CDATA[
var edges = document.getElementsByTagName('g');
if (edges && edges.length) {
  for (var i=0;i<edges.length;i++) {
    if (edges[i].id.substr(0,4)=='edge') {
      edges[i].setAttribute('class','edge');
    }
  }
}
]]></script>
        <defs>
                <circle id="rim" cx="0" cy="0" r="7"/>
                <circle id="rim2" cx="0" cy="0" r="3.5"/>
                <g id="zoomPlus">
                        <use xlink:href="#rim" fill="#404040">
                                <set attributeName="fill" to="#808080" begin="zoomplus.mouseover" end="zoomplus.mouseout"/>
                        </use>
                        <path d="M-4,0h8M0,-4v8" fill="none" stroke="white" stroke-width="1.5" pointer-events="none"/>
                </g>
                <g id="zoomMin">
                        <use xlink:href="#rim" fill="#404040">
                                <set attributeName="fill" to="#808080" begin="zoomminus.mouseover" end="zoomminus.mouseout"/>
                        </use>
                        <path d="M-4,0h8" fill="none" stroke="white" stroke-width="1.5" pointer-events="none"/>
                </g>
                <g id="dirArrow">
                        <path fill="none" stroke="white" stroke-width="1.5" d="M0,-3.0v7 M-2.5,-0.5L0,-3.0L2.5,-0.5"/>
                </g>
               <g id="resetDef">
                       <use xlink:href="#rim2" fill="#404040">
                               <set attributeName="fill" to="#808080" begin="reset.mouseover" end="reset.mouseout"/>
                       </use>
               </g>
        </defs>

<script type="text/javascript">
var viewWidth = 922;
var viewHeight = 169;
var sectionId = 'dynsection-23';
</script>
<script xlink:href="svgpan.js"/>
<svg id="graph" class="graph">
<g id="viewport">
<title>cr_invert</title>
<!-- Node261 -->
<g id="node1" class="node">
<title>Node261</title>
<polygon fill="#bfbfbf" stroke="#000000" points="0,-65.0803 0,-84.0803 59,-84.0803 59,-65.0803 0,-65.0803"/>
<text text-anchor="middle" x="29.5" y="-72.0803" font-family="Helvetica,sans-Serif" font-size="10.00" fill="#000000">cr_invert</text>
</g>
<!-- Node262 -->
<g id="node2" class="node">
<title>Node262</title>
<g id="a_node2"><a xlink:href="libregexp_8c.html#a5789f2a52e48bda3437bbd0a28dae35d" target="_top" xlink:title="cr_init_char_range">
<polygon fill="none" stroke="#000000" points="235,-103.0803 235,-122.0803 341,-122.0803 341,-103.0803 235,-103.0803"/>
<text text-anchor="middle" x="288" y="-110.0803" font-family="Helvetica,sans-Serif" font-size="10.00" fill="#000000">cr_init_char_range</text>
</a>
</g>
</g>
<!-- Node261&#45;&gt;Node262 -->
<g id="edge1" class="edge">
<title>Node261&#45;&gt;Node262</title>
<path fill="none" stroke="#191970" d="M67.9032,-86.999C76.7299,-89.495 86.1301,-91.8724 95,-93.5803 141.7821,-102.5885 195.8125,-107.4433 234.7858,-109.9839"/>
<polygon fill="#191970" stroke="#191970" points="68.8212,-83.6208 58.24,-84.1597 66.8478,-90.3369 68.8212,-83.6208"/>
</g>
<!-- Node264 -->
<g id="node4" class="node">
<title>Node264</title>
<g id="a_node4"><a xlink:href="libregexp_8c.html#ab2f98b8a2e66fd9197d2677f47ccffa8" target="_top" xlink:title="re_parse_char_class">
<polygon fill="none" stroke="#000000" points="676,-141.0803 676,-160.0803 791,-160.0803 791,-141.0803 676,-141.0803"/>
<text text-anchor="middle" x="733.5" y="-148.0803" font-family="Helvetica,sans-Serif" font-size="10.00" fill="#000000">re_parse_char_class</text>
</a>
</g>
</g>
<!-- Node261&#45;&gt;Node264 -->
<g id="edge8" class="edge">
<title>Node261&#45;&gt;Node264</title>
<path fill="none" stroke="#191970" d="M50.6243,-89.7325C63.0098,-97.9423 79.2712,-107.6019 95,-113.5803 176.6413,-144.6116 200.6602,-150.5803 288,-150.5803 288,-150.5803 288,-150.5803 444,-150.5803 524.4167,-150.5803 617.3984,-150.5803 675.8262,-150.5803"/>
<polygon fill="#191970" stroke="#191970" points="52.5857,-86.8337 42.3538,-84.0841 48.6378,-92.6142 52.5857,-86.8337"/>
</g>
<!-- Node278 -->
<g id="node6" class="node">
<title>Node278</title>
<g id="a_node6"><a xlink:href="libregexp_8c.html#a24c5604c81a33e66906a1f43227221e8" target="_top" xlink:title="parse_unicode_property">
<polygon fill="none" stroke="#000000" points="377,-46.0803 377,-65.0803 511,-65.0803 511,-46.0803 377,-46.0803"/>
<text text-anchor="middle" x="444" y="-53.0803" font-family="Helvetica,sans-Serif" font-size="10.00" fill="#000000">parse_unicode_property</text>
</a>
</g>
</g>
<!-- Node261&#45;&gt;Node278 -->
<g id="edge6" class="edge">
<title>Node261&#45;&gt;Node278</title>
<path fill="none" stroke="#191970" d="M43.2226,-57.1738C55.2103,-43.485 73.9548,-25.4553 95,-17.5803 211.1638,25.887 363.1787,-23.7641 420.643,-45.957"/>
<polygon fill="#191970" stroke="#191970" points="40.4024,-55.0902 36.6715,-65.0064 45.7719,-59.5812 40.4024,-55.0902"/>
</g>
<!-- Node279 -->
<g id="node7" class="node">
<title>Node279</title>
<g id="a_node7"><a xlink:href="libunicode_8c.html#a58dbb07f758bbf3de6c87a0647ec72e3" target="_top" xlink:title="unicode_prop_ops">
<polygon fill="none" stroke="#000000" points="95,-65.0803 95,-84.0803 199,-84.0803 199,-65.0803 95,-65.0803"/>
<text text-anchor="middle" x="147" y="-72.0803" font-family="Helvetica,sans-Serif" font-size="10.00" fill="#000000">unicode_prop_ops</text>
</a>
</g>
</g>
<!-- Node261&#45;&gt;Node279 -->
<g id="edge9" class="edge">
<title>Node261&#45;&gt;Node279</title>
<path fill="none" stroke="#191970" d="M69.252,-74.5803C77.5089,-74.5803 86.3268,-74.5803 94.9497,-74.5803"/>
<polygon fill="#191970" stroke="#191970" points="69.1502,-71.0804 59.1502,-74.5803 69.1502,-78.0804 69.1502,-71.0804"/>
</g>
<!-- Node281 -->
<g id="node9" class="node">
<title>Node281</title>
<g id="a_node9"><a xlink:href="libunicode_8c.html#aed9a601406b09f37aad3e07557c8b754" target="_top" xlink:title="unicode_script">
<polygon fill="none" stroke="#000000" points="103.5,-27.0803 103.5,-46.0803 190.5,-46.0803 190.5,-27.0803 103.5,-27.0803"/>
<text text-anchor="middle" x="147" y="-34.0803" font-family="Helvetica,sans-Serif" font-size="10.00" fill="#000000">unicode_script</text>
</a>
</g>
</g>
<!-- Node261&#45;&gt;Node281 -->
<g id="edge12" class="edge">
<title>Node261&#45;&gt;Node281</title>
<path fill="none" stroke="#191970" d="M68.7092,-61.8999C84.5854,-56.7655 102.61,-50.9362 117.3593,-46.1663"/>
<polygon fill="#191970" stroke="#191970" points="67.588,-58.584 59.1502,-64.9913 69.742,-65.2443 67.588,-58.584"/>
</g>
<!-- Node263 -->
<g id="node3" class="node">
<title>Node263</title>
<g id="a_node3"><a xlink:href="libregexp_8c.html#ac654c01af0eedad21af5da6e5035f37c" target="_top" xlink:title="get_class_atom">
<polygon fill="none" stroke="#000000" points="547,-103.0803 547,-122.0803 640,-122.0803 640,-103.0803 547,-103.0803"/>
<text text-anchor="middle" x="593.5" y="-110.0803" font-family="Helvetica,sans-Serif" font-size="10.00" fill="#000000">get_class_atom</text>
</a>
</g>
</g>
<!-- Node262&#45;&gt;Node263 -->
<g id="edge2" class="edge">
<title>Node262&#45;&gt;Node263</title>
<path fill="none" stroke="#191970" d="M351.4055,-112.5803C409.6622,-112.5803 494.6553,-112.5803 546.8934,-112.5803"/>
<polygon fill="#191970" stroke="#191970" points="351.2141,-109.0804 341.214,-112.5803 351.214,-116.0804 351.2141,-109.0804"/>
</g>
<!-- Node263&#45;&gt;Node264 -->
<g id="edge3" class="edge">
<title>Node263&#45;&gt;Node264</title>
<path fill="none" stroke="#191970" d="M638.6176,-124.8265C657.9149,-130.0644 680.1124,-136.0894 698.1834,-140.9944"/>
<polygon fill="#191970" stroke="#191970" points="639.3956,-121.4111 628.8279,-122.1693 637.5619,-128.1667 639.3956,-121.4111"/>
</g>
<!-- Node265 -->
<g id="node5" class="node">
<title>Node265</title>
<g id="a_node5"><a xlink:href="libregexp_8c.html#acca34590a18d70f866ad56d67ce309e8" target="_top" xlink:title="re_parse_term">
<polygon fill="none" stroke="#ff0000" points="827,-122.0803 827,-141.0803 914,-141.0803 914,-122.0803 827,-122.0803"/>
<text text-anchor="middle" x="870.5" y="-129.0803" font-family="Helvetica,sans-Serif" font-size="10.00" fill="#000000">re_parse_term</text>
</a>
</g>
</g>
<!-- Node263&#45;&gt;Node265 -->
<g id="edge5" class="edge">
<title>Node263&#45;&gt;Node265</title>
<path fill="none" stroke="#191970" d="M650.3018,-116.4765C702.6229,-120.0653 779.1531,-125.3147 826.8342,-128.5852"/>
<polygon fill="#191970" stroke="#191970" points="650.3921,-112.9745 640.176,-115.7819 649.9131,-119.9581 650.3921,-112.9745"/>
</g>
<!-- Node264&#45;&gt;Node265 -->
<g id="edge4" class="edge">
<title>Node264&#45;&gt;Node265</title>
<path fill="none" stroke="#191970" d="M801.2711,-141.1814C809.8812,-139.9873 818.5067,-138.7911 826.6033,-137.6682"/>
<polygon fill="#191970" stroke="#191970" points="800.6276,-137.7371 791.2033,-142.5777 801.5893,-144.6707 800.6276,-137.7371"/>
</g>
<!-- Node278&#45;&gt;Node263 -->
<g id="edge7" class="edge">
<title>Node278&#45;&gt;Node263</title>
<path fill="none" stroke="#191970" d="M478.6288,-68.7833C506.0792,-79.2493 543.788,-93.6266 568.3954,-103.0087"/>
<polygon fill="#191970" stroke="#191970" points="479.6137,-65.4131 469.0229,-65.1208 477.1199,-71.9538 479.6137,-65.4131"/>
</g>
<!-- Node280 -->
<g id="node8" class="node">
<title>Node280</title>
<g id="a_node8"><a xlink:href="libunicode_8c.html#a042c7e38726f6727a9826c4dd2c45832" target="_top" xlink:title="unicode_prop">
<polygon fill="none" stroke="#000000" points="247,-65.0803 247,-84.0803 329,-84.0803 329,-65.0803 247,-65.0803"/>
<text text-anchor="middle" x="288" y="-72.0803" font-family="Helvetica,sans-Serif" font-size="10.00" fill="#000000">unicode_prop</text>
</a>
</g>
</g>
<!-- Node279&#45;&gt;Node280 -->
<g id="edge10" class="edge">
<title>Node279&#45;&gt;Node280</title>
<path fill="none" stroke="#191970" d="M209.1737,-74.5803C221.869,-74.5803 234.9297,-74.5803 246.6777,-74.5803"/>
<polygon fill="#191970" stroke="#191970" points="209.1026,-71.0804 199.1026,-74.5803 209.1026,-78.0804 209.1026,-71.0804"/>
</g>
<!-- Node280&#45;&gt;Node278 -->
<g id="edge11" class="edge">
<title>Node280&#45;&gt;Node278</title>
<path fill="none" stroke="#191970" d="M339.5781,-68.2984C351.4749,-66.8494 364.3015,-65.2872 376.7552,-63.7704"/>
<polygon fill="#191970" stroke="#191970" points="338.899,-64.8551 329.3956,-69.5386 339.7454,-71.8038 338.899,-64.8551"/>
</g>
<!-- Node281&#45;&gt;Node278 -->
<g id="edge13" class="edge">
<title>Node281&#45;&gt;Node278</title>
<path fill="none" stroke="#191970" d="M200.6593,-40.0131C250.033,-43.1717 323.4582,-47.8689 376.7337,-51.2771"/>
<polygon fill="#191970" stroke="#191970" points="200.7075,-36.5091 190.5044,-39.3634 200.2605,-43.4948 200.7075,-36.5091"/>
</g>
</g>
</svg>
        <g id="navigator" transform="translate(0 0)" fill="#404254">
                <rect fill="#f2f5e9" fill-opacity="0.5" stroke="#606060" stroke-width=".5" x="0" y="0" width="60" height="60"/>
                <use id="zoomplus" xlink:href="#zoomPlus" x="17" y="9" onmousedown="handleZoom(evt,'in')"/>
                <use id="zoomminus" xlink:href="#zoomMin" x="42" y="9" onmousedown="handleZoom(evt,'out')"/>
                <use id="reset" xlink:href="#resetDef" x="30" y="36" onmousedown="handleReset()"/>
                <g id="arrowUp" xlink:href="#dirArrow" transform="translate(30 24)" onmousedown="handlePan(0,-1)">
                  <use xlink:href="#rim" fill="#404040">
                        <set attributeName="fill" to="#808080" begin="arrowUp.mouseover" end="arrowUp.mouseout"/>
                  </use>
                  <path fill="none" stroke="white" stroke-width="1.5" d="M0,-3.0v7 M-2.5,-0.5L0,-3.0L2.5,-0.5"/>
                </g>
                <g id="arrowRight" xlink:href="#dirArrow" transform="rotate(90) translate(36 -43)" onmousedown="handlePan(1,0)">
                  <use xlink:href="#rim" fill="#404040">
                        <set attributeName="fill" to="#808080" begin="arrowRight.mouseover" end="arrowRight.mouseout"/>
                  </use>
                  <path fill="none" stroke="white" stroke-width="1.5" d="M0,-3.0v7 M-2.5,-0.5L0,-3.0L2.5,-0.5"/>
                </g>
                <g id="arrowDown" xlink:href="#dirArrow" transform="rotate(180) translate(-30 -48)" onmousedown="handlePan(0,1)">
                  <use xlink:href="#rim" fill="#404040">
                        <set attributeName="fill" to="#808080" begin="arrowDown.mouseover" end="arrowDown.mouseout"/>
                  </use>
                  <path fill="none" stroke="white" stroke-width="1.5" d="M0,-3.0v7 M-2.5,-0.5L0,-3.0L2.5,-0.5"/>
                </g>
                <g id="arrowLeft" xlink:href="#dirArrow" transform="rotate(270) translate(-36 17)" onmousedown="handlePan(-1,0)">
                  <use xlink:href="#rim" fill="#404040">
                        <set attributeName="fill" to="#808080" begin="arrowLeft.mouseover" end="arrowLeft.mouseout"/>
                  </use>
                  <path fill="none" stroke="white" stroke-width="1.5" d="M0,-3.0v7 M-2.5,-0.5L0,-3.0L2.5,-0.5"/>
                </g>
        </g>
        <svg viewBox="0 0 15 15" width="100%" height="30px" preserveAspectRatio="xMaxYMin meet">
         <g id="arrow_out" transform="scale(0.3 0.3)">
          <a xlink:href="libunicode_8h_af1269fd74e0699bd0e12ac018a078c54_icgraph_org.svg" target="_base">
           <rect id="button" ry="5" rx="5" y="6" x="6" height="38" width="38"
                fill="#f2f5e9" fill-opacity="0.5" stroke="#606060" stroke-width="1.0"/>
           <path id="arrow"
             d="M 11.500037,31.436501 C 11.940474,20.09759 22.043105,11.32322 32.158766,21.979434 L 37.068811,17.246167 C 37.068811,17.246167 37.088388,32 37.088388,32 L 22.160133,31.978069 C 22.160133,31.978069 26.997745,27.140456 26.997745,27.140456 C 18.528582,18.264221 13.291696,25.230495 11.500037,31.436501 z"
             style="fill:#404040;"/>
          </a>
         </g>
        </svg>
</svg>
