<?xml version="1.0" encoding="UTF-8" standalone="no"?>
<!DOCTYPE svg PUBLIC "-//W3C//DTD SVG 1.1//EN"
 "http://www.w3.org/Graphics/SVG/1.1/DTD/svg11.dtd">
<!-- Generated by graphviz version 2.40.1 (20161225.0304)
 -->
<!-- Title: emit_class_init_start Pages: 1 -->
<!--zoomable 370 -->
<svg id="main" version="1.1" xmlns="http://www.w3.org/2000/svg" xmlns:xlink="http://www.w3.org/1999/xlink" xml:space="preserve" onload="init(evt)">
<style type="text/css"><![CDATA[
.edge:hover path { stroke: red; }
.edge:hover polygon { stroke: red; fill: red; }
]]></style>
<script type="text/javascript"><![CDATA[
var edges = document.getElementsByTagName('g');
if (edges && edges.length) {
  for (var i=0;i<edges.length;i++) {
    if (edges[i].id.substr(0,4)=='edge') {
      edges[i].setAttribute('class','edge');
    }
  }
}
]]></script>
        <defs>
                <circle id="rim" cx="0" cy="0" r="7"/>
                <circle id="rim2" cx="0" cy="0" r="3.5"/>
                <g id="zoomPlus">
                        <use xlink:href="#rim" fill="#404040">
                                <set attributeName="fill" to="#808080" begin="zoomplus.mouseover" end="zoomplus.mouseout"/>
                        </use>
                        <path d="M-4,0h8M0,-4v8" fill="none" stroke="white" stroke-width="1.5" pointer-events="none"/>
                </g>
                <g id="zoomMin">
                        <use xlink:href="#rim" fill="#404040">
                                <set attributeName="fill" to="#808080" begin="zoomminus.mouseover" end="zoomminus.mouseout"/>
                        </use>
                        <path d="M-4,0h8" fill="none" stroke="white" stroke-width="1.5" pointer-events="none"/>
                </g>
                <g id="dirArrow">
                        <path fill="none" stroke="white" stroke-width="1.5" d="M0,-3.0v7 M-2.5,-0.5L0,-3.0L2.5,-0.5"/>
                </g>
               <g id="resetDef">
                       <use xlink:href="#rim2" fill="#404040">
                               <set attributeName="fill" to="#808080" begin="reset.mouseover" end="reset.mouseout"/>
                       </use>
               </g>
        </defs>

<script type="text/javascript">
var viewWidth = 681;
var viewHeight = 370;
var sectionId = 'dynsection-1036';
</script>
<script xlink:href="svgpan.js"/>
<svg id="graph" class="graph">
<g id="viewport">
<title>emit_class_init_start</title>
<!-- Node322509 -->
<g id="node1" class="node">
<title>Node322509</title>
<polygon fill="#bfbfbf" stroke="#000000" points="0,-247.5 0,-266.5 118,-266.5 118,-247.5 0,-247.5"/>
<text text-anchor="middle" x="59" y="-254.5" font-family="Helvetica,sans-Serif" font-size="10.00" fill="#000000">emit_class_init_start</text>
</g>
<!-- Node322510 -->
<g id="node2" class="node">
<title>Node322510</title>
<g id="a_node2"><a xlink:href="quickjs_8c.html#aa57b449a878287663249bb7ab23ed8e9" target="_top" xlink:title="emit_atom">
<polygon fill="none" stroke="#000000" points="185,-304.5 185,-323.5 255,-323.5 255,-304.5 185,-304.5"/>
<text text-anchor="middle" x="220" y="-311.5" font-family="Helvetica,sans-Serif" font-size="10.00" fill="#000000">emit_atom</text>
</a>
</g>
</g>
<!-- Node322509&#45;&gt;Node322510 -->
<g id="edge1" class="edge">
<title>Node322509&#45;&gt;Node322510</title>
<path fill="none" stroke="#191970" d="M81.0301,-266.5422C100.1349,-274.6408 128.6278,-286.298 154,-295 160.8236,-297.3403 168.1082,-299.6357 175.2547,-301.7766"/>
<polygon fill="#191970" stroke="#191970" points="174.2775,-305.1373 184.8582,-304.5899 176.2455,-298.4196 174.2775,-305.1373"/>
</g>
<!-- Node322517 -->
<g id="node8" class="node">
<title>Node322517</title>
<g id="a_node8"><a xlink:href="quickjs_8c.html#a6b3c67655a0facc68b271ce3d401deb3" target="_top" xlink:title="emit_goto">
<polygon fill="none" stroke="#000000" points="187,-190.5 187,-209.5 253,-209.5 253,-190.5 187,-190.5"/>
<text text-anchor="middle" x="220" y="-197.5" font-family="Helvetica,sans-Serif" font-size="10.00" fill="#000000">emit_goto</text>
</a>
</g>
</g>
<!-- Node322509&#45;&gt;Node322517 -->
<g id="edge7" class="edge">
<title>Node322509&#45;&gt;Node322517</title>
<path fill="none" stroke="#191970" d="M85.9478,-247.4595C112.6491,-238.0062 153.7364,-223.4598 183.3853,-212.963"/>
<polygon fill="#191970" stroke="#191970" points="184.7058,-216.2084 192.9643,-209.5716 182.3695,-209.6098 184.7058,-216.2084"/>
</g>
<!-- Node322518 -->
<g id="node9" class="node">
<title>Node322518</title>
<g id="a_node9"><a xlink:href="quickjs_8c.html#a832fb9c17eacb588e93f333cf8b76522" target="_top" xlink:title="emit_op">
<polygon fill="none" stroke="#000000" points="352,-228.5 352,-247.5 408,-247.5 408,-228.5 352,-228.5"/>
<text text-anchor="middle" x="380" y="-235.5" font-family="Helvetica,sans-Serif" font-size="10.00" fill="#000000">emit_op</text>
</a>
</g>
</g>
<!-- Node322509&#45;&gt;Node322518 -->
<g id="edge20" class="edge">
<title>Node322509&#45;&gt;Node322518</title>
<path fill="none" stroke="#191970" d="M118.2504,-253.493C183.4317,-249.6349 286.2689,-243.5479 341.6455,-240.2702"/>
<polygon fill="#191970" stroke="#191970" points="341.9625,-243.7577 351.7382,-239.6728 341.5489,-236.7699 341.9625,-243.7577"/>
</g>
<!-- Node322524 -->
<g id="node15" class="node">
<title>Node322524</title>
<g id="a_node15"><a xlink:href="quickjs_8c.html#a555f0d4061c655933eb187026d0796af" target="_top" xlink:title="emit_label">
<polygon fill="none" stroke="#000000" points="186,-266.5 186,-285.5 254,-285.5 254,-266.5 186,-266.5"/>
<text text-anchor="middle" x="220" y="-273.5" font-family="Helvetica,sans-Serif" font-size="10.00" fill="#000000">emit_label</text>
</a>
</g>
</g>
<!-- Node322509&#45;&gt;Node322524 -->
<g id="edge17" class="edge">
<title>Node322509&#45;&gt;Node322524</title>
<path fill="none" stroke="#191970" d="M118.0363,-263.967C137.0916,-266.2158 157.8779,-268.6688 175.6824,-270.77"/>
<polygon fill="#191970" stroke="#191970" points="175.4439,-274.266 185.7852,-271.9622 176.2644,-267.3143 175.4439,-274.266"/>
</g>
<!-- Node322525 -->
<g id="node16" class="node">
<title>Node322525</title>
<g id="a_node16"><a xlink:href="quickjs_8c.html#a50b5ef50e38aaeb8cba27214601474c7" target="_top" xlink:title="emit_u16">
<polygon fill="none" stroke="#000000" points="189,-342.5 189,-361.5 251,-361.5 251,-342.5 189,-342.5"/>
<text text-anchor="middle" x="220" y="-349.5" font-family="Helvetica,sans-Serif" font-size="10.00" fill="#000000">emit_u16</text>
</a>
</g>
</g>
<!-- Node322509&#45;&gt;Node322525 -->
<g id="edge21" class="edge">
<title>Node322509&#45;&gt;Node322525</title>
<path fill="none" stroke="#191970" d="M68.339,-266.6312C84.3998,-282.6625 118.9212,-314.848 154,-333 161.7637,-337.0174 170.4935,-340.2921 178.9993,-342.9199"/>
<polygon fill="#191970" stroke="#191970" points="178.234,-346.3411 188.8102,-345.7134 180.151,-339.6086 178.234,-346.3411"/>
</g>
<!-- Node322527 -->
<g id="node18" class="node">
<title>Node322527</title>
<g id="a_node18"><a xlink:href="quickjs_8c.html#a63058dc37265af331214fa1eec1aebf8" target="_top" xlink:title="js_parse_function_class\l_fields_init">
<polygon fill="none" stroke="#000000" points="154,-106 154,-136 286,-136 286,-106 154,-106"/>
<text text-anchor="start" x="162" y="-124" font-family="Helvetica,sans-Serif" font-size="10.00" fill="#000000">js_parse_function_class</text>
<text text-anchor="middle" x="220" y="-113" font-family="Helvetica,sans-Serif" font-size="10.00" fill="#000000">_fields_init</text>
</a>
</g>
</g>
<!-- Node322509&#45;&gt;Node322527 -->
<g id="edge24" class="edge">
<title>Node322509&#45;&gt;Node322527</title>
<path fill="none" stroke="#191970" d="M70.3212,-247.4367C95.8328,-225.8866 158.3617,-173.0671 194.0059,-142.9578"/>
<polygon fill="#191970" stroke="#191970" points="196.6465,-145.3088 202.0272,-136.182 192.1293,-139.9613 196.6465,-145.3088"/>
</g>
<!-- Node322511 -->
<g id="node3" class="node">
<title>Node322511</title>
<g id="a_node3"><a xlink:href="quickjs_8c.html#aa4ce3850b0d5830d9a617fbbdaddfa79" target="_top" xlink:title="emit_u32">
<polygon fill="none" stroke="#000000" points="349,-266.5 349,-285.5 411,-285.5 411,-266.5 349,-266.5"/>
<text text-anchor="middle" x="380" y="-273.5" font-family="Helvetica,sans-Serif" font-size="10.00" fill="#000000">emit_u32</text>
</a>
</g>
</g>
<!-- Node322510&#45;&gt;Node322511 -->
<g id="edge2" class="edge">
<title>Node322510&#45;&gt;Node322511</title>
<path fill="none" stroke="#191970" d="M255.1127,-305.6607C279.8004,-299.7974 312.9203,-291.9314 338.8495,-285.7732"/>
<polygon fill="#191970" stroke="#191970" points="339.8381,-289.1359 348.7587,-283.4198 338.2205,-282.3253 339.8381,-289.1359"/>
</g>
<!-- Node322515 -->
<g id="node6" class="node">
<title>Node322515</title>
<g id="a_node6"><a xlink:href="quickjs_8c.html#abbf44eaeace1104a6bef718fbf5700fe" target="_top" xlink:title="JS_DupAtom">
<polygon fill="none" stroke="#000000" points="341.5,-304.5 341.5,-323.5 418.5,-323.5 418.5,-304.5 341.5,-304.5"/>
<text text-anchor="middle" x="380" y="-311.5" font-family="Helvetica,sans-Serif" font-size="10.00" fill="#000000">JS_DupAtom</text>
</a>
</g>
</g>
<!-- Node322510&#45;&gt;Node322515 -->
<g id="edge5" class="edge">
<title>Node322510&#45;&gt;Node322515</title>
<path fill="none" stroke="#191970" d="M255.1127,-314C277.4086,-314 306.5821,-314 331.1252,-314"/>
<polygon fill="#191970" stroke="#191970" points="331.3267,-317.5001 341.3267,-314 331.3266,-310.5001 331.3267,-317.5001"/>
</g>
<!-- Node322512 -->
<g id="node4" class="node">
<title>Node322512</title>
<g id="a_node4"><a xlink:href="cutils_8h.html#a8ba08f82c43549fcb3c939229498354d" target="_top" xlink:title="dbuf_put_u32">
<polygon fill="none" stroke="#000000" points="484.5,-266.5 484.5,-285.5 567.5,-285.5 567.5,-266.5 484.5,-266.5"/>
<text text-anchor="middle" x="526" y="-273.5" font-family="Helvetica,sans-Serif" font-size="10.00" fill="#000000">dbuf_put_u32</text>
</a>
</g>
</g>
<!-- Node322511&#45;&gt;Node322512 -->
<g id="edge3" class="edge">
<title>Node322511&#45;&gt;Node322512</title>
<path fill="none" stroke="#191970" d="M411.3207,-276C429.6821,-276 453.3341,-276 474.3842,-276"/>
<polygon fill="#191970" stroke="#191970" points="474.4743,-279.5001 484.4743,-276 474.4743,-272.5001 474.4743,-279.5001"/>
</g>
<!-- Node322513 -->
<g id="node5" class="node">
<title>Node322513</title>
<g id="a_node5"><a xlink:href="cutils_8h.html#ad1cfaae47347ae771136b5a9bbda49aa" target="_top" xlink:title="dbuf_put">
<polygon fill="none" stroke="#ff0000" points="614,-266.5 614,-285.5 673,-285.5 673,-266.5 614,-266.5"/>
<text text-anchor="middle" x="643.5" y="-273.5" font-family="Helvetica,sans-Serif" font-size="10.00" fill="#000000">dbuf_put</text>
</a>
</g>
</g>
<!-- Node322512&#45;&gt;Node322513 -->
<g id="edge4" class="edge">
<title>Node322512&#45;&gt;Node322513</title>
<path fill="none" stroke="#191970" d="M567.7569,-276C579.3726,-276 591.9578,-276 603.4717,-276"/>
<polygon fill="#191970" stroke="#191970" points="603.6861,-279.5001 613.686,-276 603.686,-272.5001 603.6861,-279.5001"/>
</g>
<!-- Node322516 -->
<g id="node7" class="node">
<title>Node322516</title>
<g id="a_node7"><a xlink:href="quickjs_8c.html#a7f6796ee7a195631366f57c713a33f65" target="_top" xlink:title="__JS_AtomIsConst">
<polygon fill="none" stroke="#000000" points="474,-304.5 474,-323.5 578,-323.5 578,-304.5 474,-304.5"/>
<text text-anchor="middle" x="526" y="-311.5" font-family="Helvetica,sans-Serif" font-size="10.00" fill="#000000">__JS_AtomIsConst</text>
</a>
</g>
</g>
<!-- Node322515&#45;&gt;Node322516 -->
<g id="edge6" class="edge">
<title>Node322515&#45;&gt;Node322516</title>
<path fill="none" stroke="#191970" d="M418.742,-314C432.4698,-314 448.288,-314 463.4868,-314"/>
<polygon fill="#191970" stroke="#191970" points="463.8768,-317.5001 473.8768,-314 463.8768,-310.5001 463.8768,-317.5001"/>
</g>
<!-- Node322517&#45;&gt;Node322511 -->
<g id="edge12" class="edge">
<title>Node322517&#45;&gt;Node322511</title>
<path fill="none" stroke="#191970" d="M235.0772,-209.6472C254.5762,-221.834 289.8575,-242.912 322,-257 327.471,-259.398 333.3452,-261.6612 339.1795,-263.7327"/>
<polygon fill="#191970" stroke="#191970" points="338.2882,-267.1263 348.8826,-267.0279 340.5392,-260.4981 338.2882,-267.1263"/>
</g>
<!-- Node322517&#45;&gt;Node322518 -->
<g id="edge8" class="edge">
<title>Node322517&#45;&gt;Node322518</title>
<path fill="none" stroke="#191970" d="M253.1521,-207.8736C279.0435,-214.0228 315.0431,-222.5727 342.0795,-228.9939"/>
<polygon fill="#191970" stroke="#191970" points="341.4246,-232.4356 351.9628,-231.3412 343.0422,-225.6251 341.4246,-232.4356"/>
</g>
<!-- Node322520 -->
<g id="node11" class="node">
<title>Node322520</title>
<g id="a_node11"><a xlink:href="quickjs_8c.html#ac9b65f8f0ed192fa6be0984d92550f34" target="_top" xlink:title="js_is_live_code">
<polygon fill="none" stroke="#000000" points="335,-190.5 335,-209.5 425,-209.5 425,-190.5 335,-190.5"/>
<text text-anchor="middle" x="380" y="-197.5" font-family="Helvetica,sans-Serif" font-size="10.00" fill="#000000">js_is_live_code</text>
</a>
</g>
</g>
<!-- Node322517&#45;&gt;Node322520 -->
<g id="edge13" class="edge">
<title>Node322517&#45;&gt;Node322520</title>
<path fill="none" stroke="#191970" d="M253.1521,-200C273.7235,-200 300.6759,-200 324.4438,-200"/>
<polygon fill="#191970" stroke="#191970" points="324.7553,-203.5001 334.7553,-200 324.7553,-196.5001 324.7553,-203.5001"/>
</g>
<!-- Node322522 -->
<g id="node13" class="node">
<title>Node322522</title>
<g id="a_node13"><a xlink:href="quickjs_8c.html#a0dd0929b9f2ff5983b0027b7cce5c447" target="_top" xlink:title="new_label">
<polygon fill="none" stroke="#000000" points="347,-152.5 347,-171.5 413,-171.5 413,-152.5 347,-152.5"/>
<text text-anchor="middle" x="380" y="-159.5" font-family="Helvetica,sans-Serif" font-size="10.00" fill="#000000">new_label</text>
</a>
</g>
</g>
<!-- Node322517&#45;&gt;Node322522 -->
<g id="edge15" class="edge">
<title>Node322517&#45;&gt;Node322522</title>
<path fill="none" stroke="#191970" d="M253.1521,-192.1264C277.5014,-186.3434 310.7906,-178.4372 337.1572,-172.1752"/>
<polygon fill="#191970" stroke="#191970" points="337.9698,-175.5796 346.8904,-169.8635 336.3522,-168.7691 337.9698,-175.5796"/>
</g>
<!-- Node322518&#45;&gt;Node322512 -->
<g id="edge9" class="edge">
<title>Node322518&#45;&gt;Node322512</title>
<path fill="none" stroke="#191970" d="M408.1503,-245.3268C428.3792,-250.5919 456.1101,-257.8095 479.59,-263.9207"/>
<polygon fill="#191970" stroke="#191970" points="478.7991,-267.3314 489.3583,-266.4631 480.5623,-260.5571 478.7991,-267.3314"/>
</g>
<!-- Node322519 -->
<g id="node10" class="node">
<title>Node322519</title>
<g id="a_node10"><a xlink:href="cutils_8h.html#aeed81d4787ccdbd55baa9b5fd6717e88" target="_top" xlink:title="dbuf_putc">
<polygon fill="none" stroke="#000000" points="493.5,-228.5 493.5,-247.5 558.5,-247.5 558.5,-228.5 493.5,-228.5"/>
<text text-anchor="middle" x="526" y="-235.5" font-family="Helvetica,sans-Serif" font-size="10.00" fill="#000000">dbuf_putc</text>
</a>
</g>
</g>
<!-- Node322518&#45;&gt;Node322519 -->
<g id="edge10" class="edge">
<title>Node322518&#45;&gt;Node322519</title>
<path fill="none" stroke="#191970" d="M408.1503,-238C429.4668,-238 459.1136,-238 483.3384,-238"/>
<polygon fill="#191970" stroke="#191970" points="483.3484,-241.5001 493.3484,-238 483.3483,-234.5001 483.3484,-241.5001"/>
</g>
<!-- Node322519&#45;&gt;Node322513 -->
<g id="edge11" class="edge">
<title>Node322519&#45;&gt;Node322513</title>
<path fill="none" stroke="#191970" d="M555.6502,-247.589C570.4009,-252.3594 588.4258,-258.1888 604.301,-263.3229"/>
<polygon fill="#191970" stroke="#191970" points="603.2675,-266.667 613.8593,-266.4141 605.4215,-260.0067 603.2675,-266.667"/>
</g>
<!-- Node322521 -->
<g id="node12" class="node">
<title>Node322521</title>
<g id="a_node12"><a xlink:href="quickjs_8c.html#a54ae8eded33038911c0fde73470ed951" target="_top" xlink:title="get_prev_opcode">
<polygon fill="none" stroke="#000000" points="476,-190.5 476,-209.5 576,-209.5 576,-190.5 476,-190.5"/>
<text text-anchor="middle" x="526" y="-197.5" font-family="Helvetica,sans-Serif" font-size="10.00" fill="#000000">get_prev_opcode</text>
</a>
</g>
</g>
<!-- Node322520&#45;&gt;Node322521 -->
<g id="edge14" class="edge">
<title>Node322520&#45;&gt;Node322521</title>
<path fill="none" stroke="#191970" d="M425.395,-200C438.1357,-200 452.192,-200 465.6558,-200"/>
<polygon fill="#191970" stroke="#191970" points="465.8046,-203.5001 475.8046,-200 465.8045,-196.5001 465.8046,-203.5001"/>
</g>
<!-- Node322523 -->
<g id="node14" class="node">
<title>Node322523</title>
<g id="a_node14"><a xlink:href="quickjs_8c.html#a217c750ab1ff788ada118a7f6736cb6e" target="_top" xlink:title="new_label_fd">
<polygon fill="none" stroke="#000000" points="485.5,-152.5 485.5,-171.5 566.5,-171.5 566.5,-152.5 485.5,-152.5"/>
<text text-anchor="middle" x="526" y="-159.5" font-family="Helvetica,sans-Serif" font-size="10.00" fill="#000000">new_label_fd</text>
</a>
</g>
</g>
<!-- Node322522&#45;&gt;Node322523 -->
<g id="edge16" class="edge">
<title>Node322522&#45;&gt;Node322523</title>
<path fill="none" stroke="#191970" d="M413.1297,-162C431.4828,-162 454.6861,-162 475.275,-162"/>
<polygon fill="#191970" stroke="#191970" points="475.4506,-165.5001 485.4506,-162 475.4505,-158.5001 475.4506,-165.5001"/>
</g>
<!-- Node322524&#45;&gt;Node322511 -->
<g id="edge19" class="edge">
<title>Node322524&#45;&gt;Node322511</title>
<path fill="none" stroke="#191970" d="M254.324,-276C279.1291,-276 312.7448,-276 338.9685,-276"/>
<polygon fill="#191970" stroke="#191970" points="338.983,-279.5001 348.9829,-276 338.9829,-272.5001 338.983,-279.5001"/>
</g>
<!-- Node322524&#45;&gt;Node322518 -->
<g id="edge18" class="edge">
<title>Node322524&#45;&gt;Node322518</title>
<path fill="none" stroke="#191970" d="M254.324,-267.848C280.1345,-261.7181 315.4842,-253.3225 342.1197,-246.9966"/>
<polygon fill="#191970" stroke="#191970" points="342.9426,-250.3986 351.8632,-244.6825 341.3251,-243.588 342.9426,-250.3986"/>
</g>
<!-- Node322526 -->
<g id="node17" class="node">
<title>Node322526</title>
<g id="a_node17"><a xlink:href="cutils_8h.html#a31a6b9f8517a73d45e976d8a026e964e" target="_top" xlink:title="dbuf_put_u16">
<polygon fill="none" stroke="#000000" points="338.5,-342.5 338.5,-361.5 421.5,-361.5 421.5,-342.5 338.5,-342.5"/>
<text text-anchor="middle" x="380" y="-349.5" font-family="Helvetica,sans-Serif" font-size="10.00" fill="#000000">dbuf_put_u16</text>
</a>
</g>
</g>
<!-- Node322525&#45;&gt;Node322526 -->
<g id="edge22" class="edge">
<title>Node322525&#45;&gt;Node322526</title>
<path fill="none" stroke="#191970" d="M251.2294,-352C273.0505,-352 302.6998,-352 328.0478,-352"/>
<polygon fill="#191970" stroke="#191970" points="328.2484,-355.5001 338.2484,-352 328.2483,-348.5001 328.2484,-355.5001"/>
</g>
<!-- Node322526&#45;&gt;Node322513 -->
<g id="edge23" class="edge">
<title>Node322526&#45;&gt;Node322513</title>
<path fill="none" stroke="#191970" d="M421.621,-355.2067C462.9877,-356.7714 527.3953,-354.7478 578,-333 598.4153,-324.2264 617.0367,-306.6581 629.1615,-293.3321"/>
<polygon fill="#191970" stroke="#191970" points="631.886,-295.5332 635.8292,-285.6995 626.6143,-290.9279 631.886,-295.5332"/>
</g>
<!-- Node322528 -->
<g id="node19" class="node">
<title>Node322528</title>
<g id="a_node19"><a xlink:href="quickjs_8c.html#a8020fd59ed57f7f299216ec1ebfcda01" target="_top" xlink:title="js_new_function_def">
<polygon fill="none" stroke="#000000" points="322,-76.5 322,-95.5 438,-95.5 438,-76.5 322,-76.5"/>
<text text-anchor="middle" x="380" y="-83.5" font-family="Helvetica,sans-Serif" font-size="10.00" fill="#000000">js_new_function_def</text>
</a>
</g>
</g>
<!-- Node322527&#45;&gt;Node322528 -->
<g id="edge25" class="edge">
<title>Node322527&#45;&gt;Node322528</title>
<path fill="none" stroke="#191970" d="M286.0019,-106.5621C299.4508,-103.6201 313.4445,-100.559 326.3982,-97.7254"/>
<polygon fill="#191970" stroke="#191970" points="327.5125,-101.0645 336.5335,-95.5083 326.0166,-94.2262 327.5125,-101.0645"/>
</g>
<!-- Node322529 -->
<g id="node20" class="node">
<title>Node322529</title>
<g id="a_node20"><a xlink:href="list_8h.html#a663527a4d757540b2177bef0db1ce5c0" target="_top" xlink:title="init_list_head">
<polygon fill="none" stroke="#000000" points="485,-38.5 485,-57.5 567,-57.5 567,-38.5 485,-38.5"/>
<text text-anchor="middle" x="526" y="-45.5" font-family="Helvetica,sans-Serif" font-size="10.00" fill="#000000">init_list_head</text>
</a>
</g>
</g>
<!-- Node322528&#45;&gt;Node322529 -->
<g id="edge26" class="edge">
<title>Node322528&#45;&gt;Node322529</title>
<path fill="none" stroke="#191970" d="M416.842,-76.411C435.8479,-71.4642 459.2286,-65.3789 479.4692,-60.1108"/>
<polygon fill="#191970" stroke="#191970" points="480.627,-63.4261 489.423,-57.5201 478.8638,-56.6518 480.627,-63.4261"/>
</g>
<!-- Node322530 -->
<g id="node21" class="node">
<title>Node322530</title>
<g id="a_node21"><a xlink:href="list_8h.html#a3a5d0733570b2fafc18f4c71a2968ea5" target="_top" xlink:title="list_add_tail">
<polygon fill="none" stroke="#ff0000" points="488,-.5 488,-19.5 564,-19.5 564,-.5 488,-.5"/>
<text text-anchor="middle" x="526" y="-7.5" font-family="Helvetica,sans-Serif" font-size="10.00" fill="#000000">list_add_tail</text>
</a>
</g>
</g>
<!-- Node322528&#45;&gt;Node322530 -->
<g id="edge27" class="edge">
<title>Node322528&#45;&gt;Node322530</title>
<path fill="none" stroke="#191970" d="M393.8499,-76.4176C411.7722,-64.2991 444.2364,-43.2934 474,-29 478.1575,-27.0035 482.5834,-25.0878 487.0309,-23.2929"/>
<polygon fill="#191970" stroke="#191970" points="488.6291,-26.4283 496.7063,-19.5719 486.1164,-19.8948 488.6291,-26.4283"/>
</g>
<!-- Node322532 -->
<g id="node22" class="node">
<title>Node322532</title>
<g id="a_node22"><a xlink:href="quickjs_8c.html#a85c6e39e83eab2ddb82d58e82721d06a" target="_top" xlink:title="js_dbuf_init">
<polygon fill="none" stroke="#ff0000" points="489.5,-114.5 489.5,-133.5 562.5,-133.5 562.5,-114.5 489.5,-114.5"/>
<text text-anchor="middle" x="526" y="-121.5" font-family="Helvetica,sans-Serif" font-size="10.00" fill="#000000">js_dbuf_init</text>
</a>
</g>
</g>
<!-- Node322528&#45;&gt;Node322532 -->
<g id="edge28" class="edge">
<title>Node322528&#45;&gt;Node322532</title>
<path fill="none" stroke="#191970" d="M416.842,-95.589C435.8479,-100.5358 459.2286,-106.6211 479.4692,-111.8892"/>
<polygon fill="#191970" stroke="#191970" points="478.8638,-115.3482 489.423,-114.4799 480.627,-108.5739 478.8638,-115.3482"/>
</g>
<!-- Node322536 -->
<g id="node23" class="node">
<title>Node322536</title>
<g id="a_node23"><a xlink:href="quickjs_8c.html#aa2ef5af1544a3012f91a80c98c326b8f" target="_top" xlink:title="JS_NewAtom">
<polygon fill="none" stroke="#ff0000" points="486.5,-76.5 486.5,-95.5 565.5,-95.5 565.5,-76.5 486.5,-76.5"/>
<text text-anchor="middle" x="526" y="-83.5" font-family="Helvetica,sans-Serif" font-size="10.00" fill="#000000">JS_NewAtom</text>
</a>
</g>
</g>
<!-- Node322528&#45;&gt;Node322536 -->
<g id="edge29" class="edge">
<title>Node322528&#45;&gt;Node322536</title>
<path fill="none" stroke="#191970" d="M438.1226,-86C450.7962,-86 464.0946,-86 476.4009,-86"/>
<polygon fill="#191970" stroke="#191970" points="476.4693,-89.5001 486.4692,-86 476.4692,-82.5001 476.4693,-89.5001"/>
</g>
</g>
</svg>
        <g id="navigator" transform="translate(0 0)" fill="#404254">
                <rect fill="#f2f5e9" fill-opacity="0.5" stroke="#606060" stroke-width=".5" x="0" y="0" width="60" height="60"/>
                <use id="zoomplus" xlink:href="#zoomPlus" x="17" y="9" onmousedown="handleZoom(evt,'in')"/>
                <use id="zoomminus" xlink:href="#zoomMin" x="42" y="9" onmousedown="handleZoom(evt,'out')"/>
                <use id="reset" xlink:href="#resetDef" x="30" y="36" onmousedown="handleReset()"/>
                <g id="arrowUp" xlink:href="#dirArrow" transform="translate(30 24)" onmousedown="handlePan(0,-1)">
                  <use xlink:href="#rim" fill="#404040">
                        <set attributeName="fill" to="#808080" begin="arrowUp.mouseover" end="arrowUp.mouseout"/>
                  </use>
                  <path fill="none" stroke="white" stroke-width="1.5" d="M0,-3.0v7 M-2.5,-0.5L0,-3.0L2.5,-0.5"/>
                </g>
                <g id="arrowRight" xlink:href="#dirArrow" transform="rotate(90) translate(36 -43)" onmousedown="handlePan(1,0)">
                  <use xlink:href="#rim" fill="#404040">
                        <set attributeName="fill" to="#808080" begin="arrowRight.mouseover" end="arrowRight.mouseout"/>
                  </use>
                  <path fill="none" stroke="white" stroke-width="1.5" d="M0,-3.0v7 M-2.5,-0.5L0,-3.0L2.5,-0.5"/>
                </g>
                <g id="arrowDown" xlink:href="#dirArrow" transform="rotate(180) translate(-30 -48)" onmousedown="handlePan(0,1)">
                  <use xlink:href="#rim" fill="#404040">
                        <set attributeName="fill" to="#808080" begin="arrowDown.mouseover" end="arrowDown.mouseout"/>
                  </use>
                  <path fill="none" stroke="white" stroke-width="1.5" d="M0,-3.0v7 M-2.5,-0.5L0,-3.0L2.5,-0.5"/>
                </g>
                <g id="arrowLeft" xlink:href="#dirArrow" transform="rotate(270) translate(-36 17)" onmousedown="handlePan(-1,0)">
                  <use xlink:href="#rim" fill="#404040">
                        <set attributeName="fill" to="#808080" begin="arrowLeft.mouseover" end="arrowLeft.mouseout"/>
                  </use>
                  <path fill="none" stroke="white" stroke-width="1.5" d="M0,-3.0v7 M-2.5,-0.5L0,-3.0L2.5,-0.5"/>
                </g>
        </g>
        <svg viewBox="0 0 15 15" width="100%" height="30px" preserveAspectRatio="xMaxYMin meet">
         <g id="arrow_out" transform="scale(0.3 0.3)">
          <a xlink:href="quickjs_8c_a38e4107378b0d9abd638e4fe13541678_cgraph_org.svg" target="_base">
           <rect id="button" ry="5" rx="5" y="6" x="6" height="38" width="38"
                fill="#f2f5e9" fill-opacity="0.5" stroke="#606060" stroke-width="1.0"/>
           <path id="arrow"
             d="M 11.500037,31.436501 C 11.940474,20.09759 22.043105,11.32322 32.158766,21.979434 L 37.068811,17.246167 C 37.068811,17.246167 37.088388,32 37.088388,32 L 22.160133,31.978069 C 22.160133,31.978069 26.997745,27.140456 26.997745,27.140456 C 18.528582,18.264221 13.291696,25.230495 11.500037,31.436501 z"
             style="fill:#404040;"/>
          </a>
         </g>
        </svg>
</svg>
