<?xml version="1.0" encoding="UTF-8" standalone="no"?>
<!DOCTYPE svg PUBLIC "-//W3C//DTD SVG 1.1//EN"
 "http://www.w3.org/Graphics/SVG/1.1/DTD/svg11.dtd">
<!-- Generated by graphviz version 2.40.1 (20161225.0304)
 -->
<!-- Title: is_strict_mode Pages: 1 -->
<!--zoomable 707 -->
<svg id="main" version="1.1" xmlns="http://www.w3.org/2000/svg" xmlns:xlink="http://www.w3.org/1999/xlink" xml:space="preserve" onload="init(evt)">
<style type="text/css"><![CDATA[
.edge:hover path { stroke: red; }
.edge:hover polygon { stroke: red; fill: red; }
]]></style>
<script type="text/javascript"><![CDATA[
var edges = document.getElementsByTagName('g');
if (edges && edges.length) {
  for (var i=0;i<edges.length;i++) {
    if (edges[i].id.substr(0,4)=='edge') {
      edges[i].setAttribute('class','edge');
    }
  }
}
]]></script>
        <defs>
                <circle id="rim" cx="0" cy="0" r="7"/>
                <circle id="rim2" cx="0" cy="0" r="3.5"/>
                <g id="zoomPlus">
                        <use xlink:href="#rim" fill="#404040">
                                <set attributeName="fill" to="#808080" begin="zoomplus.mouseover" end="zoomplus.mouseout"/>
                        </use>
                        <path d="M-4,0h8M0,-4v8" fill="none" stroke="white" stroke-width="1.5" pointer-events="none"/>
                </g>
                <g id="zoomMin">
                        <use xlink:href="#rim" fill="#404040">
                                <set attributeName="fill" to="#808080" begin="zoomminus.mouseover" end="zoomminus.mouseout"/>
                        </use>
                        <path d="M-4,0h8" fill="none" stroke="white" stroke-width="1.5" pointer-events="none"/>
                </g>
                <g id="dirArrow">
                        <path fill="none" stroke="white" stroke-width="1.5" d="M0,-3.0v7 M-2.5,-0.5L0,-3.0L2.5,-0.5"/>
                </g>
               <g id="resetDef">
                       <use xlink:href="#rim2" fill="#404040">
                               <set attributeName="fill" to="#808080" begin="reset.mouseover" end="reset.mouseout"/>
                       </use>
               </g>
        </defs>

<script type="text/javascript">
var viewWidth = 1332;
var viewHeight = 707;
var sectionId = 'dynsection-215';
</script>
<script xlink:href="svgpan.js"/>
<svg id="graph" class="graph">
<g id="viewport">
<title>is_strict_mode</title>
<!-- Node73041 -->
<g id="node1" class="node">
<title>Node73041</title>
<polygon fill="#bfbfbf" stroke="#000000" points="0,-258.8196 0,-277.8196 88,-277.8196 88,-258.8196 0,-258.8196"/>
<text text-anchor="middle" x="44" y="-265.8196" font-family="Helvetica,sans-Serif" font-size="10.00" fill="#000000">is_strict_mode</text>
</g>
<!-- Node73042 -->
<g id="node2" class="node">
<title>Node73042</title>
<g id="a_node2"><a xlink:href="quickjs_8c.html#a014abd680db53ab89cb133345742a59c" target="_top" xlink:title="__attribute__">
<polygon fill="none" stroke="#000000" points="340.5,-430.8196 340.5,-449.8196 420.5,-449.8196 420.5,-430.8196 340.5,-430.8196"/>
<text text-anchor="middle" x="380.5" y="-437.8196" font-family="Helvetica,sans-Serif" font-size="10.00" fill="#000000">__attribute__</text>
</a>
</g>
</g>
<!-- Node73041&#45;&gt;Node73042 -->
<g id="edge1" class="edge">
<title>Node73041&#45;&gt;Node73042</title>
<path fill="none" stroke="#191970" d="M72.1587,-282.7127C138.9317,-316.8434 305.4745,-401.9707 361.6532,-430.6861"/>
<polygon fill="#191970" stroke="#191970" points="73.5531,-279.4948 63.0558,-278.0598 70.3671,-285.7277 73.5531,-279.4948"/>
</g>
<!-- Node73061 -->
<g id="node6" class="node">
<title>Node73061</title>
<g id="a_node6"><a xlink:href="quickjs_8c.html#ac2894ff4edcdb4e6841bcce9c76081e3" target="_top" xlink:title="JS_CallInternal">
<polygon fill="none" stroke="#ff0000" points="1237,-195.8196 1237,-214.8196 1324,-214.8196 1324,-195.8196 1237,-195.8196"/>
<text text-anchor="middle" x="1280.5" y="-202.8196" font-family="Helvetica,sans-Serif" font-size="10.00" fill="#000000">JS_CallInternal</text>
</a>
</g>
</g>
<!-- Node73041&#45;&gt;Node73061 -->
<g id="edge31" class="edge">
<title>Node73041&#45;&gt;Node73061</title>
<path fill="none" stroke="#191970" d="M57.8104,-250.9272C100.1255,-199.7611 234.0287,-53.3196 380.5,-53.3196 380.5,-53.3196 380.5,-53.3196 988,-53.3196 1085.1393,-53.3196 1119.2071,-49.9175 1201,-102.3196 1238.6601,-126.4472 1265.6221,-174.8676 1275.9061,-195.5696"/>
<polygon fill="#191970" stroke="#191970" points="54.998,-248.8382 51.4014,-258.8039 60.4277,-253.2562 54.998,-248.8382"/>
</g>
<!-- Node73180 -->
<g id="node9" class="node">
<title>Node73180</title>
<g id="a_node9"><a xlink:href="quickjs_8c.html#ad38b16d301e8f3661cf4c115c86511b3" target="_top" xlink:title="js_proxy_set">
<polygon fill="none" stroke="#000000" points="1241.5,-632.8196 1241.5,-651.8196 1319.5,-651.8196 1319.5,-632.8196 1241.5,-632.8196"/>
<text text-anchor="middle" x="1280.5" y="-639.8196" font-family="Helvetica,sans-Serif" font-size="10.00" fill="#000000">js_proxy_set</text>
</a>
</g>
</g>
<!-- Node73041&#45;&gt;Node73180 -->
<g id="edge34" class="edge">
<title>Node73041&#45;&gt;Node73180</title>
<path fill="none" stroke="#191970" d="M45.383,-288.0157C49.5875,-335.3569 65.7542,-457.5138 124,-537.3196 203.4882,-646.2307 245.6668,-699.3196 380.5,-699.3196 380.5,-699.3196 380.5,-699.3196 988,-699.3196 1086.0406,-699.3196 1199.2096,-668.0866 1251.3889,-651.8601"/>
<polygon fill="#191970" stroke="#191970" points="48.8597,-287.5846 44.5701,-277.897 41.8822,-288.1452 48.8597,-287.5846"/>
</g>
<!-- Node73653 -->
<g id="node11" class="node">
<title>Node73653</title>
<g id="a_node11"><a xlink:href="quickjs_8c.html#ad50f89a3ee5e8b29b31bb62cf8ea0d82" target="_top" xlink:title="JS_SetGlobalVar">
<polygon fill="none" stroke="#000000" points="795.5,-195.8196 795.5,-214.8196 889.5,-214.8196 889.5,-195.8196 795.5,-195.8196"/>
<text text-anchor="middle" x="842.5" y="-202.8196" font-family="Helvetica,sans-Serif" font-size="10.00" fill="#000000">JS_SetGlobalVar</text>
</a>
</g>
</g>
<!-- Node73041&#45;&gt;Node73653 -->
<g id="edge35" class="edge">
<title>Node73041&#45;&gt;Node73653</title>
<path fill="none" stroke="#191970" d="M88.6109,-256.4142C100.0739,-253.7169 112.436,-251.1208 124,-249.3196 344.2079,-215.0203 401.4342,-222.8261 624,-211.3196 682.9309,-208.2729 750.8881,-206.7137 795.1627,-205.959"/>
<polygon fill="#191970" stroke="#191970" points="87.7035,-253.0327 78.8114,-258.7931 89.3549,-259.8352 87.7035,-253.0327"/>
</g>
<!-- Node73177 -->
<g id="node13" class="node">
<title>Node73177</title>
<g id="a_node13"><a xlink:href="quickjs_8c.html#a3fb71f8d31b557ebebec82476999408a" target="_top" xlink:title="call_setter">
<polygon fill="none" stroke="#000000" points="502,-651.8196 502,-670.8196 570,-670.8196 570,-651.8196 502,-651.8196"/>
<text text-anchor="middle" x="536" y="-658.8196" font-family="Helvetica,sans-Serif" font-size="10.00" fill="#000000">call_setter</text>
</a>
</g>
</g>
<!-- Node73041&#45;&gt;Node73177 -->
<g id="edge28" class="edge">
<title>Node73041&#45;&gt;Node73177</title>
<path fill="none" stroke="#191970" d="M51.2779,-287.4827C76.3389,-350.5095 165.7097,-552.1944 313,-637.3196 372.3356,-671.612 455.4871,-670.0961 501.6623,-665.7998"/>
<polygon fill="#191970" stroke="#191970" points="54.4688,-286.0314 47.5754,-277.9857 47.9469,-288.5741 54.4688,-286.0314"/>
</g>
<!-- Node73388 -->
<g id="node14" class="node">
<title>Node73388</title>
<g id="a_node14"><a xlink:href="quickjs_8c.html#a2b88ed25233c441cbed7b0a027c9ee2f" target="_top" xlink:title="JS_DeleteProperty">
<polygon fill="none" stroke="#ff0000" points="936,-5.8196 936,-24.8196 1040,-24.8196 1040,-5.8196 936,-5.8196"/>
<text text-anchor="middle" x="988" y="-12.8196" font-family="Helvetica,sans-Serif" font-size="10.00" fill="#000000">JS_DeleteProperty</text>
</a>
</g>
</g>
<!-- Node73041&#45;&gt;Node73388 -->
<g id="edge32" class="edge">
<title>Node73041&#45;&gt;Node73388</title>
<path fill="none" stroke="#191970" d="M47.9926,-248.8708C58.7368,-198.5451 89.7748,-66.102 124,-39.3196 214.1709,31.2423 266.0021,-15.3196 380.5,-15.3196 380.5,-15.3196 380.5,-15.3196 686.5,-15.3196 774.0449,-15.3196 875.8886,-15.3196 935.9811,-15.3196"/>
<polygon fill="#191970" stroke="#191970" points="44.5376,-248.2934 45.9105,-258.7989 51.3886,-249.7302 44.5376,-248.2934"/>
</g>
<!-- Node73654 -->
<g id="node15" class="node">
<title>Node73654</title>
<g id="a_node15"><a xlink:href="quickjs_8c.html#adba489eac6c2332de312326782457940" target="_top" xlink:title="JS_ThrowTypeErrorReadOnly">
<polygon fill="none" stroke="#000000" points="124,-258.8196 124,-277.8196 277,-277.8196 277,-258.8196 124,-258.8196"/>
<text text-anchor="middle" x="200.5" y="-265.8196" font-family="Helvetica,sans-Serif" font-size="10.00" fill="#000000">JS_ThrowTypeErrorReadOnly</text>
</a>
</g>
</g>
<!-- Node73041&#45;&gt;Node73654 -->
<g id="edge36" class="edge">
<title>Node73041&#45;&gt;Node73654</title>
<path fill="none" stroke="#191970" d="M98.2717,-268.3196C106.5659,-268.3196 115.258,-268.3196 123.9227,-268.3196"/>
<polygon fill="#191970" stroke="#191970" points="98.0105,-264.8197 88.0105,-268.3196 98.0104,-271.8197 98.0105,-264.8197"/>
</g>
<!-- Node73043 -->
<g id="node3" class="node">
<title>Node73043</title>
<g id="a_node3"><a xlink:href="quickjs_8c.html#ad55fe6f65ecb58e327ac9e9b4ab475f5" target="_top" xlink:title="set_array_length">
<polygon fill="none" stroke="#000000" points="487,-423.8196 487,-442.8196 585,-442.8196 585,-423.8196 487,-423.8196"/>
<text text-anchor="middle" x="536" y="-430.8196" font-family="Helvetica,sans-Serif" font-size="10.00" fill="#000000">set_array_length</text>
</a>
</g>
</g>
<!-- Node73042&#45;&gt;Node73043 -->
<g id="edge2" class="edge">
<title>Node73042&#45;&gt;Node73043</title>
<path fill="none" stroke="#191970" d="M430.5873,-438.0648C448.6332,-437.2525 468.9653,-436.3372 486.9239,-435.5288"/>
<polygon fill="#191970" stroke="#191970" points="430.3776,-434.5706 420.5451,-438.5169 430.6924,-441.5636 430.3776,-434.5706"/>
</g>
<!-- Node73044 -->
<g id="node4" class="node">
<title>Node73044</title>
<g id="a_node4"><a xlink:href="quickjs_8c.html#ad7f03358a8088ca920ab308225c6b2e6" target="_top" xlink:title="JS_SetPropertyInternal">
<polygon fill="none" stroke="#ff0000" points="624,-309.8196 624,-328.8196 749,-328.8196 749,-309.8196 624,-309.8196"/>
<text text-anchor="middle" x="686.5" y="-316.8196" font-family="Helvetica,sans-Serif" font-size="10.00" fill="#000000">JS_SetPropertyInternal</text>
</a>
</g>
</g>
<!-- Node73042&#45;&gt;Node73044 -->
<g id="edge20" class="edge">
<title>Node73042&#45;&gt;Node73044</title>
<path fill="none" stroke="#191970" d="M430.7375,-428.2296C473.4825,-417.1456 536.0291,-399.0244 588,-376.3196 619.503,-362.5567 653.6862,-341.1701 672.3525,-328.8815"/>
<polygon fill="#191970" stroke="#191970" points="429.6747,-424.8887 420.8544,-430.7584 431.41,-431.6702 429.6747,-424.8887"/>
</g>
<!-- Node73433 -->
<g id="node5" class="node">
<title>Node73433</title>
<g id="a_node5"><a xlink:href="quickjs_8c.html#aee75cc1546e19479e3ccda58f3b50a96" target="_top" xlink:title="JS_SetPropertyValue">
<polygon fill="none" stroke="#ff0000" points="785,-271.8196 785,-290.8196 900,-290.8196 900,-271.8196 785,-271.8196"/>
<text text-anchor="middle" x="842.5" y="-278.8196" font-family="Helvetica,sans-Serif" font-size="10.00" fill="#000000">JS_SetPropertyValue</text>
</a>
</g>
</g>
<!-- Node73042&#45;&gt;Node73433 -->
<g id="edge21" class="edge">
<title>Node73042&#45;&gt;Node73433</title>
<path fill="none" stroke="#191970" d="M426.4871,-451.9733C469.2717,-460.7319 534.315,-468.6802 588,-452.3196 696.9673,-419.1116 801.5973,-321.9299 832.996,-290.9359"/>
<polygon fill="#191970" stroke="#191970" points="427.1552,-448.5371 416.6437,-449.8633 425.6879,-455.3816 427.1552,-448.5371"/>
</g>
<!-- Node73275 -->
<g id="node7" class="node">
<title>Node73275</title>
<g id="a_node7"><a xlink:href="quickjs_8c.html#ab50618f1bf78e444caa6da0e3e2785d7" target="_top" xlink:title="JS_DefineProperty">
<polygon fill="none" stroke="#ff0000" points="936,-395.8196 936,-414.8196 1040,-414.8196 1040,-395.8196 936,-395.8196"/>
<text text-anchor="middle" x="988" y="-402.8196" font-family="Helvetica,sans-Serif" font-size="10.00" fill="#000000">JS_DefineProperty</text>
</a>
</g>
</g>
<!-- Node73042&#45;&gt;Node73275 -->
<g id="edge26" class="edge">
<title>Node73042&#45;&gt;Node73275</title>
<path fill="none" stroke="#191970" d="M414.6835,-453.295C434.5855,-460.1531 460.3435,-467.8529 484,-471.3196 663.8679,-497.6778 880.612,-438.8793 958.4162,-414.9057"/>
<polygon fill="#191970" stroke="#191970" points="415.7308,-449.9529 405.136,-449.9155 413.395,-456.5518 415.7308,-449.9529"/>
</g>
<!-- Node73178 -->
<g id="node8" class="node">
<title>Node73178</title>
<g id="a_node8"><a xlink:href="quickjs_8c.html#a638e637d492ee889691691baba33c4bd" target="_top" xlink:title="JS_SetPropertyGeneric">
<polygon fill="none" stroke="#ff0000" points="1076,-575.8196 1076,-594.8196 1201,-594.8196 1201,-575.8196 1076,-575.8196"/>
<text text-anchor="middle" x="1138.5" y="-582.8196" font-family="Helvetica,sans-Serif" font-size="10.00" fill="#000000">JS_SetPropertyGeneric</text>
</a>
</g>
</g>
<!-- Node73042&#45;&gt;Node73178 -->
<g id="edge19" class="edge">
<title>Node73042&#45;&gt;Node73178</title>
<path fill="none" stroke="#191970" d="M399.1239,-456.4347C444.768,-494.2138 567.2072,-585.3196 686.5,-585.3196 686.5,-585.3196 686.5,-585.3196 842.5,-585.3196 923.0521,-585.3196 1015.9348,-585.3196 1075.8475,-585.3196"/>
<polygon fill="#191970" stroke="#191970" points="401.1826,-453.5928 391.2771,-449.8334 396.6762,-458.9494 401.1826,-453.5928"/>
</g>
<!-- Node73409 -->
<g id="node10" class="node">
<title>Node73409</title>
<g id="a_node10"><a xlink:href="quickjs_8c.html#a1fdb56277638da2aef63b9be0c12895f" target="_top" xlink:title="js_string_define_own\l_property">
<polygon fill="none" stroke="#000000" points="1079,-433.3196 1079,-463.3196 1198,-463.3196 1198,-433.3196 1079,-433.3196"/>
<text text-anchor="start" x="1087" y="-451.3196" font-family="Helvetica,sans-Serif" font-size="10.00" fill="#000000">js_string_define_own</text>
<text text-anchor="middle" x="1138.5" y="-440.3196" font-family="Helvetica,sans-Serif" font-size="10.00" fill="#000000">_property</text>
</a>
</g>
</g>
<!-- Node73042&#45;&gt;Node73409 -->
<g id="edge27" class="edge">
<title>Node73042&#45;&gt;Node73409</title>
<path fill="none" stroke="#191970" d="M404.3826,-455.0531C424.7053,-466.6734 455.1131,-481.9471 484,-488.3196 529.137,-498.2768 541.7813,-488.8936 588,-488.3196 659.5721,-487.4306 677.5448,-488.5046 749,-484.3196 866.1134,-477.4604 1002.5327,-463.4654 1078.8736,-455.0886"/>
<polygon fill="#191970" stroke="#191970" points="405.9277,-451.9016 395.532,-449.8569 402.3836,-457.9382 405.9277,-451.9016"/>
</g>
<!-- Node73274 -->
<g id="node12" class="node">
<title>Node73274</title>
<g id="a_node12"><a xlink:href="quickjs_8c.html#ad5565bb5cfd5321f181573257f3b0c91" target="_top" xlink:title="JS_CreateProperty">
<polygon fill="none" stroke="#000000" points="484,-347.8196 484,-366.8196 588,-366.8196 588,-347.8196 484,-347.8196"/>
<text text-anchor="middle" x="536" y="-354.8196" font-family="Helvetica,sans-Serif" font-size="10.00" fill="#000000">JS_CreateProperty</text>
</a>
</g>
</g>
<!-- Node73042&#45;&gt;Node73274 -->
<g id="edge22" class="edge">
<title>Node73042&#45;&gt;Node73274</title>
<path fill="none" stroke="#191970" d="M405.2021,-425.4433C425.9673,-413.1313 456.5686,-395.4356 484,-381.3196 493.8135,-376.2696 504.8931,-371.0868 514.2958,-366.8358"/>
<polygon fill="#191970" stroke="#191970" points="403.1984,-422.563 396.4002,-430.6891 406.7821,-428.576 403.1984,-422.563"/>
</g>
<!-- Node73043&#45;&gt;Node73044 -->
<g id="edge3" class="edge">
<title>Node73043&#45;&gt;Node73044</title>
<path fill="none" stroke="#191970" d="M570.1226,-419.4101C576.2564,-416.4001 582.4562,-413.0024 588,-409.3196 624.8527,-384.8378 661.5449,-346.7884 677.8018,-329.0447"/>
<polygon fill="#191970" stroke="#191970" points="568.2418,-416.4241 560.6419,-423.806 571.1864,-422.7747 568.2418,-416.4241"/>
</g>
<!-- Node73043&#45;&gt;Node73275 -->
<g id="edge18" class="edge">
<title>Node73043&#45;&gt;Node73275</title>
<path fill="none" stroke="#191970" d="M595.4334,-429.6378C684.4673,-424.1225 851.0336,-413.8042 935.7022,-408.5592"/>
<polygon fill="#191970" stroke="#191970" points="594.9968,-426.1581 585.2324,-430.2698 595.4297,-433.1447 594.9968,-426.1581"/>
</g>
<!-- Node73044&#45;&gt;Node73433 -->
<g id="edge4" class="edge">
<title>Node73044&#45;&gt;Node73433</title>
<path fill="none" stroke="#191970" d="M716.3386,-306.6082C735.7166,-300.6678 761.6105,-293.9944 784.8961,-288.8107"/>
<polygon fill="#191970" stroke="#191970" points="715.0356,-303.3501 706.5749,-309.7272 717.1657,-310.0182 715.0356,-303.3501"/>
</g>
<!-- Node73044&#45;&gt;Node73061 -->
<g id="edge17" class="edge">
<title>Node73044&#45;&gt;Node73061</title>
<path fill="none" stroke="#191970" d="M707.2925,-303.7687C726.4227,-290.3491 756.1223,-271.691 785,-262.3196 961.7974,-204.9453 1016.9099,-245.0097 1201,-219.3196 1212.6592,-217.6925 1225.2265,-215.6259 1236.8506,-213.5833"/>
<polygon fill="#191970" stroke="#191970" points="705.1247,-301.0165 699.0441,-309.6927 709.2081,-306.7021 705.1247,-301.0165"/>
</g>
<!-- Node73044&#45;&gt;Node73653 -->
<g id="edge15" class="edge">
<title>Node73044&#45;&gt;Node73653</title>
<path fill="none" stroke="#191970" d="M701.7855,-302.1463C720.0243,-282.469 752.1923,-250.2499 785,-229.3196 794.0283,-223.5598 804.673,-218.6656 814.3337,-214.8289"/>
<polygon fill="#191970" stroke="#191970" points="699.0112,-299.9943 694.8604,-309.7421 704.1841,-304.7104 699.0112,-299.9943"/>
</g>
<!-- Node73433&#45;&gt;Node73044 -->
<g id="edge14" class="edge">
<title>Node73433&#45;&gt;Node73044</title>
<path fill="none" stroke="#191970" d="M812.9613,-293.9389C794.9091,-299.4851 771.1214,-305.6819 749.0523,-310.7134"/>
<polygon fill="#191970" stroke="#191970" points="814.1546,-297.2319 822.6113,-290.8495 812.0203,-290.5652 814.1546,-297.2319"/>
</g>
<!-- Node73433&#45;&gt;Node73061 -->
<g id="edge5" class="edge">
<title>Node73433&#45;&gt;Node73061</title>
<path fill="none" stroke="#191970" d="M910.1685,-286.813C983.7461,-290.5137 1103.8286,-289.8498 1201,-257.3196 1228.3687,-248.1573 1255.4697,-227.2219 1269.8795,-214.8911"/>
<polygon fill="#191970" stroke="#191970" points="910.2779,-283.3139 900.1023,-286.2648 909.8971,-290.3035 910.2779,-283.3139"/>
</g>
<!-- Node73433&#45;&gt;Node73275 -->
<g id="edge7" class="edge">
<title>Node73433&#45;&gt;Node73275</title>
<path fill="none" stroke="#191970" d="M881.7777,-294.8791C888.137,-297.8594 894.4488,-301.3374 900,-305.3196 936.8309,-331.7401 968.8485,-376.3224 981.8335,-395.769"/>
<polygon fill="#191970" stroke="#191970" points="883.0773,-291.6279 872.5097,-290.868 880.297,-298.052 883.0773,-291.6279"/>
</g>
<!-- Node73061&#45;&gt;Node73061 -->
<g id="edge6" class="edge">
<title>Node73061&#45;&gt;Node73061</title>
<path fill="none" stroke="#191970" d="M1253.9941,-223.9735C1255.1021,-229.2564 1263.9374,-233.3196 1280.5,-233.3196 1305.7383,-233.3196 1313.0337,-223.8848 1302.3863,-215.0766"/>
<polygon fill="#191970" stroke="#191970" points="1257.1117,-225.5645 1258.6137,-215.0766 1250.8992,-222.3387 1257.1117,-225.5645"/>
</g>
<!-- Node73275&#45;&gt;Node73044 -->
<g id="edge11" class="edge">
<title>Node73275&#45;&gt;Node73044</title>
<path fill="none" stroke="#191970" d="M970.3564,-388.7796C953.6238,-374.1573 927.0788,-353.6005 900,-343.3196 851.5297,-324.917 792.7521,-319.4229 749.15,-318.2448"/>
<polygon fill="#191970" stroke="#191970" points="968.3868,-391.7154 978.163,-395.7993 973.0673,-386.5103 968.3868,-391.7154"/>
</g>
<!-- Node73275&#45;&gt;Node73061 -->
<g id="edge12" class="edge">
<title>Node73275&#45;&gt;Node73061</title>
<path fill="none" stroke="#191970" d="M1022.8018,-392.0613C1066.9704,-374.2217 1144.233,-339.5577 1201,-295.3196 1232.4086,-270.843 1261.2038,-232.7911 1273.8015,-215.0457"/>
<polygon fill="#191970" stroke="#191970" points="1021.3667,-388.8654 1013.3714,-395.8171 1023.9567,-395.3687 1021.3667,-388.8654"/>
</g>
<!-- Node73275&#45;&gt;Node73178 -->
<g id="edge8" class="edge">
<title>Node73275&#45;&gt;Node73178</title>
<path fill="none" stroke="#191970" d="M1002.7868,-423.0048C1034.0815,-460.4337 1106.1235,-546.5969 1130.3685,-575.5941"/>
<polygon fill="#191970" stroke="#191970" points="1005.1911,-420.4238 996.0915,-414.9971 999.8209,-424.9139 1005.1911,-420.4238"/>
</g>
<!-- Node73275&#45;&gt;Node73409 -->
<g id="edge13" class="edge">
<title>Node73275&#45;&gt;Node73409</title>
<path fill="none" stroke="#191970" d="M1031.1201,-417.6396C1048.222,-422.5258 1068.0497,-428.1909 1085.978,-433.3133"/>
<polygon fill="#191970" stroke="#191970" points="1031.9776,-414.2446 1021.4008,-414.8627 1030.0545,-420.9753 1031.9776,-414.2446"/>
</g>
<!-- Node73178&#45;&gt;Node73061 -->
<g id="edge9" class="edge">
<title>Node73178&#45;&gt;Node73061</title>
<path fill="none" stroke="#191970" d="M1150.1713,-567.1395C1163.7999,-545.3082 1186.3405,-507.2546 1201,-472.3196 1241.61,-375.5419 1270.4958,-250.9875 1278.3544,-215.2834"/>
<polygon fill="#191970" stroke="#191970" points="1147.1432,-565.3795 1144.7608,-575.703 1153.0611,-569.1185 1147.1432,-565.3795"/>
</g>
<!-- Node73178&#45;&gt;Node73180 -->
<g id="edge10" class="edge">
<title>Node73178&#45;&gt;Node73180</title>
<path fill="none" stroke="#191970" d="M1171.7352,-598.6605C1197.7788,-609.1146 1233.3844,-623.407 1256.6549,-632.7479"/>
<polygon fill="#191970" stroke="#191970" points="1172.8517,-595.3372 1162.2676,-594.8601 1170.244,-601.8334 1172.8517,-595.3372"/>
</g>
<!-- Node73653&#45;&gt;Node73061 -->
<g id="edge16" class="edge">
<title>Node73653&#45;&gt;Node73061</title>
<path fill="none" stroke="#191970" d="M899.9551,-205.3196C988.7854,-205.3196 1157.4959,-205.3196 1236.9941,-205.3196"/>
<polygon fill="#191970" stroke="#191970" points="899.7899,-201.8197 889.7898,-205.3196 899.7898,-208.8197 899.7899,-201.8197"/>
</g>
<!-- Node73274&#45;&gt;Node73044 -->
<g id="edge25" class="edge">
<title>Node73274&#45;&gt;Node73044</title>
<path fill="none" stroke="#191970" d="M583.6847,-345.2796C604.7103,-339.9708 629.0674,-333.8208 648.7956,-328.8396"/>
<polygon fill="#191970" stroke="#191970" points="582.8164,-341.8889 573.9775,-347.7306 584.5301,-348.6759 582.8164,-341.8889"/>
</g>
<!-- Node73274&#45;&gt;Node73275 -->
<g id="edge23" class="edge">
<title>Node73274&#45;&gt;Node73275</title>
<path fill="none" stroke="#191970" d="M598.329,-363.9386C688.0818,-373.4698 852.1104,-390.8888 935.8305,-399.7794"/>
<polygon fill="#191970" stroke="#191970" points="598.6054,-360.4483 588.2917,-362.8727 597.8662,-367.4092 598.6054,-360.4483"/>
</g>
<!-- Node73274&#45;&gt;Node73178 -->
<g id="edge24" class="edge">
<title>Node73274&#45;&gt;Node73178</title>
<path fill="none" stroke="#191970" d="M570.7163,-370.457C680.4312,-411.9757 1018.0629,-539.7434 1113.2712,-575.7724"/>
<polygon fill="#191970" stroke="#191970" points="571.7131,-367.0921 561.1216,-366.8262 569.2356,-373.639 571.7131,-367.0921"/>
</g>
<!-- Node73177&#45;&gt;Node73044 -->
<g id="edge30" class="edge">
<title>Node73177&#45;&gt;Node73044</title>
<path fill="none" stroke="#191970" d="M544.2207,-642.6385C571.9851,-579.5461 661.69,-375.6985 682.2666,-328.9397"/>
<polygon fill="#191970" stroke="#191970" points="541.0067,-641.2529 540.1823,-651.8156 547.4137,-644.0724 541.0067,-641.2529"/>
</g>
<!-- Node73177&#45;&gt;Node73178 -->
<g id="edge29" class="edge">
<title>Node73177&#45;&gt;Node73178</title>
<path fill="none" stroke="#191970" d="M580.1047,-665.545C668.9835,-672.6931 875.1952,-682.3382 1040,-637.3196 1072.6444,-628.4023 1106.6869,-607.377 1124.9613,-594.9646"/>
<polygon fill="#191970" stroke="#191970" points="580.3656,-662.0546 570.1092,-664.7112 579.7836,-669.0304 580.3656,-662.0546"/>
</g>
<!-- Node73388&#45;&gt;Node73061 -->
<g id="edge33" class="edge">
<title>Node73388&#45;&gt;Node73061</title>
<path fill="none" stroke="#191970" d="M1050.3516,-7.2022C1096.1061,-4.595 1157.5813,-8.4417 1201,-39.3196 1256.2057,-78.5799 1274.4973,-166.6566 1279.1543,-195.7732"/>
<polygon fill="#191970" stroke="#191970" points="1049.9913,-3.7186 1040.2547,-7.8956 1050.471,-10.7021 1049.9913,-3.7186"/>
</g>
<!-- Node73654&#45;&gt;Node73043 -->
<g id="edge37" class="edge">
<title>Node73654&#45;&gt;Node73043</title>
<path fill="none" stroke="#191970" d="M221.4254,-283.8706C243.4652,-299.8154 279.5473,-324.7062 313,-342.3196 380.3392,-377.7747 464.6418,-408.8114 507.7526,-423.7919"/>
<polygon fill="#191970" stroke="#191970" points="223.2984,-280.9045 213.1589,-277.8319 219.1693,-286.5569 223.2984,-280.9045"/>
</g>
<!-- Node73654&#45;&gt;Node73044 -->
<g id="edge43" class="edge">
<title>Node73654&#45;&gt;Node73044</title>
<path fill="none" stroke="#191970" d="M287.3238,-267.1944C334.8862,-267.3894 394.8119,-268.9575 448,-274.3196 510.8877,-280.6594 525.9133,-287.4746 588,-299.3196 605.1405,-302.5896 623.9199,-306.3567 640.4424,-309.7336"/>
<polygon fill="#191970" stroke="#191970" points="287.0688,-263.694 277.0614,-267.1727 287.0539,-270.6939 287.0688,-263.694"/>
</g>
<!-- Node73654&#45;&gt;Node73061 -->
<g id="edge48" class="edge">
<title>Node73654&#45;&gt;Node73061</title>
<path fill="none" stroke="#191970" d="M278.2111,-251.7943C306.9012,-220.9327 281.0115,-187.2935 313,-161.3196 497.2818,-11.687 605.1191,-91.3196 842.5,-91.3196 842.5,-91.3196 842.5,-91.3196 988,-91.3196 1102.7263,-91.3196 1226.5469,-168.3973 1266.9372,-195.7961"/>
<polygon fill="#191970" stroke="#191970" points="275.669,-249.3784 270.7164,-258.7444 280.4288,-254.5111 275.669,-249.3784"/>
</g>
<!-- Node73654&#45;&gt;Node73178 -->
<g id="edge42" class="edge">
<title>Node73654&#45;&gt;Node73178</title>
<path fill="none" stroke="#191970" d="M207.588,-287.7134C236.0693,-361.8687 349.6969,-623.3196 536,-623.3196 536,-623.3196 536,-623.3196 842.5,-623.3196 931.7438,-623.3196 1034.8998,-606.1159 1092.843,-594.8595"/>
<polygon fill="#191970" stroke="#191970" points="210.8008,-286.3131 204.0051,-278.1848 204.2487,-288.7769 210.8008,-286.3131"/>
</g>
<!-- Node73654&#45;&gt;Node73653 -->
<g id="edge47" class="edge">
<title>Node73654&#45;&gt;Node73653</title>
<path fill="none" stroke="#191970" d="M287.3834,-259.7936C424.8627,-246.3027 687.9377,-220.4869 795.2052,-209.9606"/>
<polygon fill="#191970" stroke="#191970" points="286.9129,-256.3229 277.3025,-260.7829 287.5966,-263.2894 286.9129,-256.3229"/>
</g>
<!-- Node73654&#45;&gt;Node73274 -->
<g id="edge44" class="edge">
<title>Node73654&#45;&gt;Node73274</title>
<path fill="none" stroke="#191970" d="M230.9797,-281.9059C253.3318,-291.4567 284.6069,-303.9712 313,-312.3196 370.4059,-329.1986 437.9664,-341.8598 483.5577,-349.3839"/>
<polygon fill="#191970" stroke="#191970" points="232.2488,-278.6414 221.6811,-277.8836 229.4697,-285.0661 232.2488,-278.6414"/>
</g>
<!-- Node73655 -->
<g id="node16" class="node">
<title>Node73655</title>
<g id="a_node16"><a xlink:href="quickjs_8c.html#adbffd820afae76d09c641b5b911e3600" target="_top" xlink:title="add_fast_array_element">
<polygon fill="none" stroke="#000000" points="313,-283.8196 313,-302.8196 448,-302.8196 448,-283.8196 313,-283.8196"/>
<text text-anchor="middle" x="380.5" y="-290.8196" font-family="Helvetica,sans-Serif" font-size="10.00" fill="#000000">add_fast_array_element</text>
</a>
</g>
</g>
<!-- Node73654&#45;&gt;Node73655 -->
<g id="edge38" class="edge">
<title>Node73654&#45;&gt;Node73655</title>
<path fill="none" stroke="#191970" d="M279.2294,-279.2542C290.3925,-280.8046 301.7907,-282.3877 312.7222,-283.906"/>
<polygon fill="#191970" stroke="#191970" points="279.4502,-275.7514 269.0638,-277.8423 278.4872,-282.6848 279.4502,-275.7514"/>
</g>
<!-- Node73219 -->
<g id="node17" class="node">
<title>Node73219</title>
<g id="a_node17"><a xlink:href="quickjs_8c.html#a541a07ee8f5d72f230f97472ec9e42dd" target="_top" xlink:title="JS_GetGlobalVarRef">
<polygon fill="none" stroke="#000000" points="631,-119.8196 631,-138.8196 742,-138.8196 742,-119.8196 631,-119.8196"/>
<text text-anchor="middle" x="686.5" y="-126.8196" font-family="Helvetica,sans-Serif" font-size="10.00" fill="#000000">JS_GetGlobalVarRef</text>
</a>
</g>
</g>
<!-- Node73654&#45;&gt;Node73219 -->
<g id="edge45" class="edge">
<title>Node73654&#45;&gt;Node73219</title>
<path fill="none" stroke="#191970" d="M218.8779,-251.9324C240.017,-234.0411 276.5233,-205.9885 313,-191.3196 342.0058,-179.6551 534.1808,-151.0857 630.9824,-137.1798"/>
<polygon fill="#191970" stroke="#191970" points="216.3368,-249.5023 211.0558,-258.6872 220.9119,-254.8003 216.3368,-249.5023"/>
</g>
<!-- Node73655&#45;&gt;Node73044 -->
<g id="edge39" class="edge">
<title>Node73655&#45;&gt;Node73044</title>
<path fill="none" stroke="#191970" d="M458.0873,-299.9119C509.4211,-304.2736 575.8579,-309.9186 623.8336,-313.995"/>
<polygon fill="#191970" stroke="#191970" points="458.2923,-296.4168 448.0318,-299.0576 457.6996,-303.3917 458.2923,-296.4168"/>
</g>
<!-- Node73655&#45;&gt;Node73433 -->
<g id="edge40" class="edge">
<title>Node73655&#45;&gt;Node73433</title>
<path fill="none" stroke="#191970" d="M458.2999,-291.2988C550.6323,-288.9005 702.429,-284.9578 784.866,-282.8166"/>
<polygon fill="#191970" stroke="#191970" points="458.0793,-287.8032 448.1735,-291.5618 458.2611,-294.8009 458.0793,-287.8032"/>
</g>
<!-- Node73655&#45;&gt;Node73274 -->
<g id="edge41" class="edge">
<title>Node73655&#45;&gt;Node73274</title>
<path fill="none" stroke="#191970" d="M413.34,-306.8357C443.1771,-319.1159 486.4421,-336.9227 512.8152,-347.7773"/>
<polygon fill="#191970" stroke="#191970" points="414.3594,-303.4705 403.7799,-302.901 411.6952,-309.9437 414.3594,-303.4705"/>
</g>
<!-- Node73219&#45;&gt;Node73061 -->
<g id="edge46" class="edge">
<title>Node73219&#45;&gt;Node73061</title>
<path fill="none" stroke="#191970" d="M752.0821,-137.7105C874.1925,-153.3341 1133.3699,-186.4948 1236.6687,-199.7115"/>
<polygon fill="#191970" stroke="#191970" points="752.4785,-134.2328 742.1151,-136.4353 751.59,-141.1762 752.4785,-134.2328"/>
</g>
</g>
</svg>
        <g id="navigator" transform="translate(0 0)" fill="#404254">
                <rect fill="#f2f5e9" fill-opacity="0.5" stroke="#606060" stroke-width=".5" x="0" y="0" width="60" height="60"/>
                <use id="zoomplus" xlink:href="#zoomPlus" x="17" y="9" onmousedown="handleZoom(evt,'in')"/>
                <use id="zoomminus" xlink:href="#zoomMin" x="42" y="9" onmousedown="handleZoom(evt,'out')"/>
                <use id="reset" xlink:href="#resetDef" x="30" y="36" onmousedown="handleReset()"/>
                <g id="arrowUp" xlink:href="#dirArrow" transform="translate(30 24)" onmousedown="handlePan(0,-1)">
                  <use xlink:href="#rim" fill="#404040">
                        <set attributeName="fill" to="#808080" begin="arrowUp.mouseover" end="arrowUp.mouseout"/>
                  </use>
                  <path fill="none" stroke="white" stroke-width="1.5" d="M0,-3.0v7 M-2.5,-0.5L0,-3.0L2.5,-0.5"/>
                </g>
                <g id="arrowRight" xlink:href="#dirArrow" transform="rotate(90) translate(36 -43)" onmousedown="handlePan(1,0)">
                  <use xlink:href="#rim" fill="#404040">
                        <set attributeName="fill" to="#808080" begin="arrowRight.mouseover" end="arrowRight.mouseout"/>
                  </use>
                  <path fill="none" stroke="white" stroke-width="1.5" d="M0,-3.0v7 M-2.5,-0.5L0,-3.0L2.5,-0.5"/>
                </g>
                <g id="arrowDown" xlink:href="#dirArrow" transform="rotate(180) translate(-30 -48)" onmousedown="handlePan(0,1)">
                  <use xlink:href="#rim" fill="#404040">
                        <set attributeName="fill" to="#808080" begin="arrowDown.mouseover" end="arrowDown.mouseout"/>
                  </use>
                  <path fill="none" stroke="white" stroke-width="1.5" d="M0,-3.0v7 M-2.5,-0.5L0,-3.0L2.5,-0.5"/>
                </g>
                <g id="arrowLeft" xlink:href="#dirArrow" transform="rotate(270) translate(-36 17)" onmousedown="handlePan(-1,0)">
                  <use xlink:href="#rim" fill="#404040">
                        <set attributeName="fill" to="#808080" begin="arrowLeft.mouseover" end="arrowLeft.mouseout"/>
                  </use>
                  <path fill="none" stroke="white" stroke-width="1.5" d="M0,-3.0v7 M-2.5,-0.5L0,-3.0L2.5,-0.5"/>
                </g>
        </g>
        <svg viewBox="0 0 15 15" width="100%" height="30px" preserveAspectRatio="xMaxYMin meet">
         <g id="arrow_out" transform="scale(0.3 0.3)">
          <a xlink:href="quickjs_8c_a686cf78f8b0361621ee2ba6182195c31_icgraph_org.svg" target="_base">
           <rect id="button" ry="5" rx="5" y="6" x="6" height="38" width="38"
                fill="#f2f5e9" fill-opacity="0.5" stroke="#606060" stroke-width="1.0"/>
           <path id="arrow"
             d="M 11.500037,31.436501 C 11.940474,20.09759 22.043105,11.32322 32.158766,21.979434 L 37.068811,17.246167 C 37.068811,17.246167 37.088388,32 37.088388,32 L 22.160133,31.978069 C 22.160133,31.978069 26.997745,27.140456 26.997745,27.140456 C 18.528582,18.264221 13.291696,25.230495 11.500037,31.436501 z"
             style="fill:#404040;"/>
          </a>
         </g>
        </svg>
</svg>
