<?xml version="1.0" encoding="UTF-8" standalone="no"?>
<!DOCTYPE svg PUBLIC "-//W3C//DTD SVG 1.1//EN"
 "http://www.w3.org/Graphics/SVG/1.1/DTD/svg11.dtd">
<!-- Generated by graphviz version 2.40.1 (20161225.0304)
 -->
<!-- Title: js_object_list_add Pages: 1 -->
<svg width="569pt" height="161pt"
 viewBox="0.00 0.00 569.00 161.00" xmlns="http://www.w3.org/2000/svg" xmlns:xlink="http://www.w3.org/1999/xlink">
<g id="graph0" class="graph" transform="scale(1 1) rotate(0) translate(4 157)">
<title>js_object_list_add</title>
<!-- Node361227 -->
<g id="node1" class="node">
<title>Node361227</title>
<polygon fill="#bfbfbf" stroke="#000000" points="0,-95.5 0,-114.5 104,-114.5 104,-95.5 0,-95.5"/>
<text text-anchor="middle" x="52" y="-102.5" font-family="Helvetica,sans-Serif" font-size="10.00" fill="#000000">js_object_list_add</text>
</g>
<!-- Node361228 -->
<g id="node2" class="node">
<title>Node361228</title>
<g id="a_node2"><a xlink:href="quickjs_8c.html#aa9342f7444c1c9f8743d43aa4d7f89e3" target="_top" xlink:title="JS_WriteObjectRec">
<polygon fill="none" stroke="#000000" points="140,-95.5 140,-114.5 245,-114.5 245,-95.5 140,-95.5"/>
<text text-anchor="middle" x="192.5" y="-102.5" font-family="Helvetica,sans-Serif" font-size="10.00" fill="#000000">JS_WriteObjectRec</text>
</a>
</g>
</g>
<!-- Node361227&#45;&gt;Node361228 -->
<g id="edge1" class="edge">
<title>Node361227&#45;&gt;Node361228</title>
<path fill="none" stroke="#191970" d="M114.471,-105C122.8838,-105 131.4472,-105 139.6707,-105"/>
<polygon fill="#191970" stroke="#191970" points="114.317,-101.5001 104.317,-105 114.317,-108.5001 114.317,-101.5001"/>
</g>
<!-- Node361228&#45;&gt;Node361228 -->
<g id="edge8" class="edge">
<title>Node361228&#45;&gt;Node361228</title>
<path fill="none" stroke="#191970" d="M166.4584,-124.0292C167.8789,-129.128 176.5594,-133 192.5,-133 217.3828,-133 224.5755,-123.5653 214.0781,-114.7571"/>
<polygon fill="#191970" stroke="#191970" points="169.738,-125.2855 170.9219,-114.7571 163.4308,-122.2493 169.738,-125.2855"/>
</g>
<!-- Node361229 -->
<g id="node3" class="node">
<title>Node361229</title>
<g id="a_node3"><a xlink:href="quickjs_8c.html#aba35628e2e963dca8fa201e6708046d6" target="_top" xlink:title="JS_WriteArray">
<polygon fill="none" stroke="#000000" points="295,-133.5 295,-152.5 378,-152.5 378,-133.5 295,-133.5"/>
<text text-anchor="middle" x="336.5" y="-140.5" font-family="Helvetica,sans-Serif" font-size="10.00" fill="#000000">JS_WriteArray</text>
</a>
</g>
</g>
<!-- Node361228&#45;&gt;Node361229 -->
<g id="edge2" class="edge">
<title>Node361228&#45;&gt;Node361229</title>
<path fill="none" stroke="#191970" d="M255.3166,-114.8756C278.1265,-120.6501 302.1865,-127.671 318.1366,-133.4684"/>
<polygon fill="#191970" stroke="#191970" points="255.8502,-111.4023 245.3026,-112.402 254.1714,-118.198 255.8502,-111.4023"/>
</g>
<!-- Node361230 -->
<g id="node4" class="node">
<title>Node361230</title>
<g id="a_node4"><a xlink:href="quickjs_8c.html#a3da261d6aeb1d35f3fb47a0076752a57" target="_top" xlink:title="JS_WriteObjectTag">
<polygon fill="none" stroke="#000000" points="284.5,-95.5 284.5,-114.5 388.5,-114.5 388.5,-95.5 284.5,-95.5"/>
<text text-anchor="middle" x="336.5" y="-102.5" font-family="Helvetica,sans-Serif" font-size="10.00" fill="#000000">JS_WriteObjectTag</text>
</a>
</g>
</g>
<!-- Node361228&#45;&gt;Node361230 -->
<g id="edge4" class="edge">
<title>Node361228&#45;&gt;Node361230</title>
<path fill="none" stroke="#191970" d="M255.5578,-98.2965C265.116,-98.1966 274.8876,-98.2576 284.185,-98.4794"/>
<polygon fill="#191970" stroke="#191970" points="255.2427,-94.8012 245.3026,-98.4679 255.3598,-101.8002 255.2427,-94.8012"/>
</g>
<!-- Node361231 -->
<g id="node5" class="node">
<title>Node361231</title>
<g id="a_node5"><a xlink:href="quickjs_8c.html#ab24f0a3286c69433ab7e48dcc39c36cb" target="_top" xlink:title="JS_WriteTypedArray">
<polygon fill="none" stroke="#000000" points="281,-57.5 281,-76.5 392,-76.5 392,-57.5 281,-57.5"/>
<text text-anchor="middle" x="336.5" y="-64.5" font-family="Helvetica,sans-Serif" font-size="10.00" fill="#000000">JS_WriteTypedArray</text>
</a>
</g>
</g>
<!-- Node361228&#45;&gt;Node361231 -->
<g id="edge6" class="edge">
<title>Node361228&#45;&gt;Node361231</title>
<path fill="none" stroke="#191970" d="M220.9218,-91.9979C237.9974,-86.3658 260.3151,-80.1123 280.7808,-75.1095"/>
<polygon fill="#191970" stroke="#191970" points="219.344,-88.8396 211.0307,-95.4076 221.6254,-95.4574 219.344,-88.8396"/>
</g>
<!-- Node361232 -->
<g id="node6" class="node">
<title>Node361232</title>
<g id="a_node6"><a xlink:href="quickjs_8c.html#a431ceb41084feaa6af4e466b8b772ab1" target="_top" xlink:title="JS_WriteObject2">
<polygon fill="none" stroke="#000000" points="289.5,-19.5 289.5,-38.5 383.5,-38.5 383.5,-19.5 289.5,-19.5"/>
<text text-anchor="middle" x="336.5" y="-26.5" font-family="Helvetica,sans-Serif" font-size="10.00" fill="#000000">JS_WriteObject2</text>
</a>
</g>
</g>
<!-- Node361228&#45;&gt;Node361232 -->
<g id="edge9" class="edge">
<title>Node361228&#45;&gt;Node361232</title>
<path fill="none" stroke="#191970" d="M213.4049,-89.4635C230.8213,-77.0385 256.6285,-59.8033 281,-48 288.3328,-44.4487 296.5025,-41.2614 304.27,-38.5576"/>
<polygon fill="#191970" stroke="#191970" points="211.1601,-86.7678 205.1142,-95.4682 215.2662,-92.437 211.1601,-86.7678"/>
</g>
<!-- Node361229&#45;&gt;Node361228 -->
<g id="edge3" class="edge">
<title>Node361229&#45;&gt;Node361228</title>
<path fill="none" stroke="#191970" d="M284.7622,-135.8536C259.0594,-129.7038 229.6062,-121.33 211.0307,-114.5924"/>
<polygon fill="#191970" stroke="#191970" points="284.2329,-139.3237 294.7654,-138.176 285.816,-132.5051 284.2329,-139.3237"/>
</g>
<!-- Node361230&#45;&gt;Node361228 -->
<g id="edge5" class="edge">
<title>Node361230&#45;&gt;Node361228</title>
<path fill="none" stroke="#191970" d="M273.9428,-111.6981C264.3923,-111.8036 254.6163,-111.7482 245.3026,-111.5321"/>
<polygon fill="#191970" stroke="#191970" points="274.2472,-115.1935 284.185,-111.5206 274.1258,-108.1945 274.2472,-115.1935"/>
</g>
<!-- Node361231&#45;&gt;Node361228 -->
<g id="edge7" class="edge">
<title>Node361231&#45;&gt;Node361228</title>
<path fill="none" stroke="#191970" d="M308.5748,-79.838C290.6268,-85.7807 266.74,-92.4385 245.3026,-97.598"/>
<polygon fill="#191970" stroke="#191970" points="309.8295,-83.1075 318.1366,-76.5316 307.5419,-76.4919 309.8295,-83.1075"/>
</g>
<!-- Node361233 -->
<g id="node7" class="node">
<title>Node361233</title>
<g id="a_node7"><a xlink:href="quickjs-libc_8c.html#ab995f33d3c307ae55a13a18b88023d15" target="_top" xlink:title="js_worker_postMessage">
<polygon fill="none" stroke="#000000" points="428,-38.5 428,-57.5 561,-57.5 561,-38.5 428,-38.5"/>
<text text-anchor="middle" x="494.5" y="-45.5" font-family="Helvetica,sans-Serif" font-size="10.00" fill="#000000">js_worker_postMessage</text>
</a>
</g>
</g>
<!-- Node361232&#45;&gt;Node361233 -->
<g id="edge10" class="edge">
<title>Node361232&#45;&gt;Node361233</title>
<path fill="none" stroke="#191970" d="M393.8469,-35.8961C404.8894,-37.224 416.5436,-38.6255 427.8516,-39.9853"/>
<polygon fill="#191970" stroke="#191970" points="394.2516,-32.4197 383.9052,-34.7006 393.4158,-39.3696 394.2516,-32.4197"/>
</g>
<!-- Node361234 -->
<g id="node8" class="node">
<title>Node361234</title>
<g id="a_node8"><a xlink:href="quickjs_8c.html#a8c807d481615ed55818787ae89621a37" target="_top" xlink:title="JS_WriteObject">
<polygon fill="none" stroke="#000000" points="450.5,-.5 450.5,-19.5 538.5,-19.5 538.5,-.5 450.5,-.5"/>
<text text-anchor="middle" x="494.5" y="-7.5" font-family="Helvetica,sans-Serif" font-size="10.00" fill="#000000">JS_WriteObject</text>
</a>
</g>
</g>
<!-- Node361232&#45;&gt;Node361234 -->
<g id="edge11" class="edge">
<title>Node361232&#45;&gt;Node361234</title>
<path fill="none" stroke="#191970" d="M394.0248,-22.0825C412.6101,-19.8475 432.9113,-17.4062 450.37,-15.3068"/>
<polygon fill="#191970" stroke="#191970" points="393.4158,-18.6304 383.9052,-23.2994 394.2516,-25.5803 393.4158,-18.6304"/>
</g>
</g>
</svg>
