<?xml version="1.0" encoding="UTF-8" standalone="no"?>
<!DOCTYPE svg PUBLIC "-//W3C//DTD SVG 1.1//EN"
 "http://www.w3.org/Graphics/SVG/1.1/DTD/svg11.dtd">
<!-- Generated by graphviz version 2.40.1 (20161225.0304)
 -->
<!-- Title: call_handler Pages: 1 -->
<svg width="652pt" height="1094pt"
 viewBox="0.00 0.00 652.00 1094.24" xmlns="http://www.w3.org/2000/svg" xmlns:xlink="http://www.w3.org/1999/xlink">
<g id="graph0" class="graph" transform="scale(1 1) rotate(0) translate(4 1090.236)">
<title>call_handler</title>
<!-- Node18998 -->
<g id="node1" class="node">
<title>Node18998</title>
<polygon fill="#bfbfbf" stroke="#000000" points="0,-228.5 0,-247.5 76,-247.5 76,-228.5 0,-228.5"/>
<text text-anchor="middle" x="38" y="-235.5" font-family="Helvetica,sans-Serif" font-size="10.00" fill="#000000">call_handler</text>
</g>
<!-- Node18999 -->
<g id="node2" class="node">
<title>Node18999</title>
<g id="a_node2"><a xlink:href="quickjs_8c.html#a1a4c02a29525d5cb2085dd8bca3af350" target="_top" xlink:title="JS_Call">
<polygon fill="none" stroke="#000000" points="112,-608.5 112,-627.5 162,-627.5 162,-608.5 112,-608.5"/>
<text text-anchor="middle" x="137" y="-615.5" font-family="Helvetica,sans-Serif" font-size="10.00" fill="#000000">JS_Call</text>
</a>
</g>
</g>
<!-- Node18998&#45;&gt;Node18999 -->
<g id="edge1" class="edge">
<title>Node18998&#45;&gt;Node18999</title>
<path fill="none" stroke="#191970" d="M40.5467,-247.7752C53.6772,-298.175 113.8103,-528.989 131.862,-598.2782"/>
<polygon fill="#191970" stroke="#191970" points="128.562,-599.4949 134.4701,-608.2895 135.3359,-597.7301 128.562,-599.4949"/>
</g>
<!-- Node19010 -->
<g id="node9" class="node">
<title>Node19010</title>
<g id="a_node9"><a xlink:href="quickjs_8h.html#a775522f2d084fc8fa0fcb33f390006b4" target="_top" xlink:title="JS_DupValue">
<polygon fill="none" stroke="#000000" points="550.5,-741.5 550.5,-760.5 627.5,-760.5 627.5,-741.5 550.5,-741.5"/>
<text text-anchor="middle" x="589" y="-748.5" font-family="Helvetica,sans-Serif" font-size="10.00" fill="#000000">JS_DupValue</text>
</a>
</g>
</g>
<!-- Node18998&#45;&gt;Node19010 -->
<g id="edge46" class="edge">
<title>Node18998&#45;&gt;Node19010</title>
<path fill="none" stroke="#191970" d="M38.652,-247.5666C41.9512,-292.6181 58.7953,-487.6783 112,-637 183.0987,-836.5422 158.7478,-947.0359 341,-1055 401.0346,-1090.5638 445.0985,-1100.5013 498,-1055 579.1068,-985.2388 490.1401,-914.5769 534,-817 542.6088,-797.8477 558.3822,-779.8005 570.8368,-767.4349"/>
<polygon fill="#191970" stroke="#191970" points="573.2662,-769.9545 578.0689,-760.5107 568.4252,-764.8982 573.2662,-769.9545"/>
</g>
<!-- Node19094 -->
<g id="node15" class="node">
<title>Node19094</title>
<g id="a_node15"><a xlink:href="quickjs_8h.html#ad80a83d73e9b7d872b88fbf2943aebe9" target="_top" xlink:title="JS_IsException">
<polygon fill="none" stroke="#000000" points="545.5,-456.5 545.5,-475.5 632.5,-475.5 632.5,-456.5 545.5,-456.5"/>
<text text-anchor="middle" x="589" y="-463.5" font-family="Helvetica,sans-Serif" font-size="10.00" fill="#000000">JS_IsException</text>
</a>
</g>
</g>
<!-- Node18998&#45;&gt;Node19094 -->
<g id="edge48" class="edge">
<title>Node18998&#45;&gt;Node19094</title>
<path fill="none" stroke="#191970" d="M76.0004,-231.8087C160.2547,-220.2238 365.7281,-204.0182 498,-295 551.2335,-331.6161 575.8189,-409.5851 584.7735,-446.2138"/>
<polygon fill="#191970" stroke="#191970" points="581.4097,-447.2034 587.0651,-456.1626 588.2311,-445.6322 581.4097,-447.2034"/>
</g>
<!-- Node19074 -->
<g id="node16" class="node">
<title>Node19074</title>
<g id="a_node16"><a xlink:href="quickjs_8h.html#afaa20c47565bc704c6c85f3d77254e7d" target="_top" xlink:title="JS_FreeValue">
<polygon fill="none" stroke="#ff0000" points="550,-171.5 550,-190.5 628,-190.5 628,-171.5 550,-171.5"/>
<text text-anchor="middle" x="589" y="-178.5" font-family="Helvetica,sans-Serif" font-size="10.00" fill="#000000">JS_FreeValue</text>
</a>
</g>
</g>
<!-- Node18998&#45;&gt;Node19074 -->
<g id="edge47" class="edge">
<title>Node18998&#45;&gt;Node19074</title>
<path fill="none" stroke="#191970" d="M58.5857,-228.3457C123.1926,-199.2468 327.7637,-116.2362 498,-147 519.7051,-150.9224 542.9829,-159.7106 560.5618,-167.3693"/>
<polygon fill="#191970" stroke="#191970" points="559.1391,-170.5671 569.6954,-171.4699 562.0062,-164.1812 559.1391,-170.5671"/>
</g>
<!-- Node19433 -->
<g id="node28" class="node">
<title>Node19433</title>
<g id="a_node28"><a xlink:href="quickjs-libc_8c.html#a82bb7888d024e97e430d98653e97a7bc" target="_top" xlink:title="js_std_dump_error">
<polygon fill="none" stroke="#000000" points="198,-47.5 198,-66.5 305,-66.5 305,-47.5 198,-47.5"/>
<text text-anchor="middle" x="251.5" y="-54.5" font-family="Helvetica,sans-Serif" font-size="10.00" fill="#000000">js_std_dump_error</text>
</a>
</g>
</g>
<!-- Node18998&#45;&gt;Node19433 -->
<g id="edge49" class="edge">
<title>Node18998&#45;&gt;Node19433</title>
<path fill="none" stroke="#191970" d="M41.0984,-228.1539C49.0345,-204.4656 72.3094,-143.7614 112,-110 135.2879,-90.191 166.7484,-77.3826 193.8984,-69.3299"/>
<polygon fill="#191970" stroke="#191970" points="195.0063,-72.6541 203.6829,-66.5741 193.1085,-65.9163 195.0063,-72.6541"/>
</g>
<!-- Node19000 -->
<g id="node3" class="node">
<title>Node19000</title>
<g id="a_node3"><a xlink:href="quickjs_8c.html#ac2894ff4edcdb4e6841bcce9c76081e3" target="_top" xlink:title="JS_CallInternal">
<polygon fill="none" stroke="#ff0000" points="208,-608.5 208,-627.5 295,-627.5 295,-608.5 208,-608.5"/>
<text text-anchor="middle" x="251.5" y="-615.5" font-family="Helvetica,sans-Serif" font-size="10.00" fill="#000000">JS_CallInternal</text>
</a>
</g>
</g>
<!-- Node18999&#45;&gt;Node19000 -->
<g id="edge2" class="edge">
<title>Node18999&#45;&gt;Node19000</title>
<path fill="none" stroke="#191970" d="M162.1275,-612.3007C172.6192,-611.53 185.2389,-611.1833 197.6452,-611.2606"/>
<polygon fill="#191970" stroke="#191970" points="197.9104,-614.7651 207.965,-611.4252 198.0221,-607.766 197.9104,-614.7651"/>
</g>
<!-- Node19000&#45;&gt;Node18999 -->
<g id="edge45" class="edge">
<title>Node19000&#45;&gt;Node18999</title>
<path fill="none" stroke="#191970" d="M207.965,-624.5748C196.2248,-624.8801 183.667,-624.7864 172.4285,-624.2938"/>
<polygon fill="#191970" stroke="#191970" points="172.3126,-620.7814 162.1275,-623.6993 171.9092,-627.7698 172.3126,-620.7814"/>
</g>
<!-- Node19000&#45;&gt;Node19000 -->
<g id="edge44" class="edge">
<title>Node19000&#45;&gt;Node19000</title>
<path fill="none" stroke="#191970" d="M233.9293,-627.7571C225.3814,-636.5653 231.2383,-646 251.5,-646 264.1636,-646 271.2003,-642.3146 272.6101,-637.4"/>
<polygon fill="#191970" stroke="#191970" points="275.8021,-635.9387 269.0707,-627.7571 269.2307,-638.3507 275.8021,-635.9387"/>
</g>
<!-- Node19001 -->
<g id="node4" class="node">
<title>Node19001</title>
<g id="a_node4"><a xlink:href="quickjs_8c.html#a246e337d6566552736209730827c0871" target="_top" xlink:title="js_poll_interrupts">
<polygon fill="none" stroke="#ff0000" points="369,-836.5 369,-855.5 470,-855.5 470,-836.5 369,-836.5"/>
<text text-anchor="middle" x="419.5" y="-843.5" font-family="Helvetica,sans-Serif" font-size="10.00" fill="#000000">js_poll_interrupts</text>
</a>
</g>
</g>
<!-- Node19000&#45;&gt;Node19001 -->
<g id="edge3" class="edge">
<title>Node19000&#45;&gt;Node19001</title>
<path fill="none" stroke="#191970" d="M252.6036,-627.6815C256.9372,-661.0085 275.8911,-771.9553 341,-827 346.3239,-831.501 352.5408,-834.9703 359.103,-837.6389"/>
<polygon fill="#191970" stroke="#191970" points="358.306,-841.0658 368.9007,-841.0028 360.5792,-834.4451 358.306,-841.0658"/>
</g>
<!-- Node19005 -->
<g id="node5" class="node">
<title>Node19005</title>
<g id="a_node5"><a xlink:href="quickjs_8c.html#af23ec7c9970ceb4671c59da7abd4b078" target="_top" xlink:title="js_check_stack_overflow">
<polygon fill="none" stroke="#ff0000" points="351,-798.5 351,-817.5 488,-817.5 488,-798.5 351,-798.5"/>
<text text-anchor="middle" x="419.5" y="-805.5" font-family="Helvetica,sans-Serif" font-size="10.00" fill="#000000">js_check_stack_overflow</text>
</a>
</g>
</g>
<!-- Node19000&#45;&gt;Node19005 -->
<g id="edge4" class="edge">
<title>Node19000&#45;&gt;Node19005</title>
<path fill="none" stroke="#191970" d="M253.5613,-627.5431C260.3766,-656.6995 285.0141,-745.2756 341,-789 343.3311,-790.8206 345.811,-792.4701 348.3993,-793.9644"/>
<polygon fill="#191970" stroke="#191970" points="347.0409,-797.1967 357.559,-798.4702 350.1308,-790.9155 347.0409,-797.1967"/>
</g>
<!-- Node19007 -->
<g id="node6" class="node">
<title>Node19007</title>
<g id="a_node6"><a xlink:href="quickjs_8c.html#a8353f635fb8a20553c08db8cf38c17e0" target="_top" xlink:title="JS_ThrowStackOverflow">
<polygon fill="none" stroke="#ff0000" points="354,-760.5 354,-779.5 485,-779.5 485,-760.5 354,-760.5"/>
<text text-anchor="middle" x="419.5" y="-767.5" font-family="Helvetica,sans-Serif" font-size="10.00" fill="#000000">JS_ThrowStackOverflow</text>
</a>
</g>
</g>
<!-- Node19000&#45;&gt;Node19007 -->
<g id="edge5" class="edge">
<title>Node19000&#45;&gt;Node19007</title>
<path fill="none" stroke="#191970" d="M255.1651,-627.8521C264.9488,-652.7287 294.169,-718.4102 341,-751 343.7623,-752.9223 346.6965,-754.6511 349.7463,-756.2058"/>
<polygon fill="#191970" stroke="#191970" points="348.6233,-759.5358 359.1855,-760.3673 351.4472,-753.1306 348.6233,-759.5358"/>
</g>
<!-- Node19008 -->
<g id="node7" class="node">
<title>Node19008</title>
<g id="a_node7"><a xlink:href="list_8h.html#a663527a4d757540b2177bef0db1ce5c0" target="_top" xlink:title="init_list_head">
<polygon fill="none" stroke="#000000" points="378.5,-722.5 378.5,-741.5 460.5,-741.5 460.5,-722.5 378.5,-722.5"/>
<text text-anchor="middle" x="419.5" y="-729.5" font-family="Helvetica,sans-Serif" font-size="10.00" fill="#000000">init_list_head</text>
</a>
</g>
</g>
<!-- Node19000&#45;&gt;Node19008 -->
<g id="edge6" class="edge">
<title>Node19000&#45;&gt;Node19008</title>
<path fill="none" stroke="#191970" d="M257.6162,-627.5325C270.536,-646.8542 302.5983,-690.6884 341,-713 349.3685,-717.8621 358.931,-721.4836 368.4353,-724.18"/>
<polygon fill="#191970" stroke="#191970" points="367.7131,-727.6075 378.2662,-726.6683 369.4307,-720.8215 367.7131,-727.6075"/>
</g>
<!-- Node19009 -->
<g id="node8" class="node">
<title>Node19009</title>
<g id="a_node8"><a xlink:href="cutils_8h.html#a29a7a26d9387c01c1b4e9fe4fff5704a" target="_top" xlink:title="min_int">
<polygon fill="none" stroke="#000000" points="393,-684.5 393,-703.5 446,-703.5 446,-684.5 393,-684.5"/>
<text text-anchor="middle" x="419.5" y="-691.5" font-family="Helvetica,sans-Serif" font-size="10.00" fill="#000000">min_int</text>
</a>
</g>
</g>
<!-- Node19000&#45;&gt;Node19009 -->
<g id="edge7" class="edge">
<title>Node19000&#45;&gt;Node19009</title>
<path fill="none" stroke="#191970" d="M263.5176,-627.5013C280.0509,-640.1249 311.1659,-662.306 341,-675 354.2635,-680.6434 369.5326,-684.8182 383.058,-687.7939"/>
<polygon fill="#191970" stroke="#191970" points="382.4986,-691.252 392.9989,-689.8401 383.91,-684.3958 382.4986,-691.252"/>
</g>
<!-- Node19000&#45;&gt;Node19010 -->
<g id="edge8" class="edge">
<title>Node19000&#45;&gt;Node19010</title>
<path fill="none" stroke="#191970" d="M252.3335,-627.6796C257.1003,-680.5232 282.7695,-933.4432 341,-979 395.9572,-1021.9959 443.5704,-1022.6619 498,-979 555.533,-932.8486 501.474,-883.1971 534,-817 543.1726,-798.3318 558.6726,-780.4173 570.8845,-767.975"/>
<polygon fill="#191970" stroke="#191970" points="573.6671,-770.147 578.3352,-760.6359 568.7548,-765.16 573.6671,-770.147"/>
</g>
<!-- Node19011 -->
<g id="node10" class="node">
<title>Node19011</title>
<g id="a_node10"><a xlink:href="quickjs_8h.html#a2050bc428da1c65ac7eb87c3fa3b0392" target="_top" xlink:title="JS_NewInt32">
<polygon fill="none" stroke="#000000" points="550.5,-826.5 550.5,-845.5 627.5,-845.5 627.5,-826.5 550.5,-826.5"/>
<text text-anchor="middle" x="589" y="-833.5" font-family="Helvetica,sans-Serif" font-size="10.00" fill="#000000">JS_NewInt32</text>
</a>
</g>
</g>
<!-- Node19000&#45;&gt;Node19011 -->
<g id="edge9" class="edge">
<title>Node19000&#45;&gt;Node19011</title>
<path fill="none" stroke="#191970" d="M251.8939,-627.6843C254.5173,-686.7949 271.5465,-998.3293 341,-1055 395.0641,-1099.1137 439.9602,-1093.734 498,-1055 566.679,-1009.1657 583.5997,-900.7482 587.7078,-855.9263"/>
<polygon fill="#191970" stroke="#191970" points="591.2132,-855.9957 588.515,-845.7502 584.2351,-855.4421 591.2132,-855.9957"/>
</g>
<!-- Node19012 -->
<g id="node11" class="node">
<title>Node19012</title>
<g id="a_node11"><a xlink:href="cutils_8h.html#a941262a5f72fda2ec43ae7911e97a0dc" target="_top" xlink:title="get_u32">
<polygon fill="none" stroke="#000000" points="391.5,-608.5 391.5,-627.5 447.5,-627.5 447.5,-608.5 391.5,-608.5"/>
<text text-anchor="middle" x="419.5" y="-615.5" font-family="Helvetica,sans-Serif" font-size="10.00" fill="#000000">get_u32</text>
</a>
</g>
</g>
<!-- Node19000&#45;&gt;Node19012 -->
<g id="edge10" class="edge">
<title>Node19000&#45;&gt;Node19012</title>
<path fill="none" stroke="#191970" d="M295.2015,-618C321.8615,-618 355.6192,-618 381.2243,-618"/>
<polygon fill="#191970" stroke="#191970" points="381.3037,-621.5001 391.3036,-618 381.3036,-614.5001 381.3037,-621.5001"/>
</g>
<!-- Node19013 -->
<g id="node12" class="node">
<title>Node19013</title>
<g id="a_node12"><a xlink:href="cutils_8h.html#a288ee4e688944e23500af2ecc813c306" target="_top" xlink:title="get_i8">
<polygon fill="none" stroke="#000000" points="396,-570.5 396,-589.5 443,-589.5 443,-570.5 396,-570.5"/>
<text text-anchor="middle" x="419.5" y="-577.5" font-family="Helvetica,sans-Serif" font-size="10.00" fill="#000000">get_i8</text>
</a>
</g>
</g>
<!-- Node19000&#45;&gt;Node19013 -->
<g id="edge11" class="edge">
<title>Node19000&#45;&gt;Node19013</title>
<path fill="none" stroke="#191970" d="M293.8935,-608.411C322.3835,-601.9668 359.4163,-593.5904 385.8752,-587.6056"/>
<polygon fill="#191970" stroke="#191970" points="386.8268,-590.9789 395.8082,-585.3589 385.2824,-584.1513 386.8268,-590.9789"/>
</g>
<!-- Node19014 -->
<g id="node13" class="node">
<title>Node19014</title>
<g id="a_node13"><a xlink:href="cutils_8h.html#a7c82a3ee025fee89db5b11ff5b7691b8" target="_top" xlink:title="get_i16">
<polygon fill="none" stroke="#000000" points="393,-532.5 393,-551.5 446,-551.5 446,-532.5 393,-532.5"/>
<text text-anchor="middle" x="419.5" y="-539.5" font-family="Helvetica,sans-Serif" font-size="10.00" fill="#000000">get_i16</text>
</a>
</g>
</g>
<!-- Node19000&#45;&gt;Node19014 -->
<g id="edge12" class="edge">
<title>Node19000&#45;&gt;Node19014</title>
<path fill="none" stroke="#191970" d="M263.5176,-608.4987C280.0509,-595.8751 311.1659,-573.694 341,-561 354.2635,-555.3566 369.5326,-551.1818 383.058,-548.2061"/>
<polygon fill="#191970" stroke="#191970" points="383.91,-551.6042 392.9989,-546.1599 382.4986,-544.748 383.91,-551.6042"/>
</g>
<!-- Node19015 -->
<g id="node14" class="node">
<title>Node19015</title>
<g id="a_node14"><a xlink:href="quickjs_8c.html#aab4130a4c3108a127681be821818528a" target="_top" xlink:title="js_closure">
<polygon fill="none" stroke="#ff0000" points="387,-190.5 387,-209.5 452,-209.5 452,-190.5 387,-190.5"/>
<text text-anchor="middle" x="419.5" y="-197.5" font-family="Helvetica,sans-Serif" font-size="10.00" fill="#000000">js_closure</text>
</a>
</g>
</g>
<!-- Node19000&#45;&gt;Node19015 -->
<g id="edge13" class="edge">
<title>Node19000&#45;&gt;Node19015</title>
<path fill="none" stroke="#191970" d="M251.7105,-608.3211C253.0891,-564.5253 263.45,-381.8511 341,-262 353.9346,-242.01 375.53,-225.6487 392.7997,-214.7629"/>
<polygon fill="#191970" stroke="#191970" points="394.6234,-217.7503 401.3676,-209.5792 390.9998,-211.7612 394.6234,-217.7503"/>
</g>
<!-- Node19000&#45;&gt;Node19094 -->
<g id="edge17" class="edge">
<title>Node19000&#45;&gt;Node19094</title>
<path fill="none" stroke="#191970" d="M254.6102,-608.4346C263.4259,-583.0595 291.2189,-513.9984 341,-485 400.4671,-450.3593 482.0103,-451.4863 535.0941,-457.2721"/>
<polygon fill="#191970" stroke="#191970" points="534.9743,-460.7823 545.3164,-458.4821 535.7972,-453.8308 534.9743,-460.7823"/>
</g>
<!-- Node19000&#45;&gt;Node19074 -->
<g id="edge20" class="edge">
<title>Node19000&#45;&gt;Node19074</title>
<path fill="none" stroke="#191970" d="M251.8939,-608.3157C254.5173,-549.2051 271.5465,-237.6707 341,-181 401.4858,-131.6465 500.6969,-152.2032 553.4367,-168.3982"/>
<polygon fill="#191970" stroke="#191970" points="552.4412,-171.7544 563.0318,-171.4552 554.5662,-165.0847 552.4412,-171.7544"/>
</g>
<!-- Node19250 -->
<g id="node17" class="node">
<title>Node19250</title>
<g id="a_node17"><a xlink:href="quickjs_8c.html#a884d294acbf5be675ffc760e38bd0521" target="_top" xlink:title="JS_NewObjectProto">
<polygon fill="none" stroke="#ff0000" points="534,-238.5 534,-257.5 644,-257.5 644,-238.5 534,-238.5"/>
<text text-anchor="middle" x="589" y="-245.5" font-family="Helvetica,sans-Serif" font-size="10.00" fill="#000000">JS_NewObjectProto</text>
</a>
</g>
</g>
<!-- Node19000&#45;&gt;Node19250 -->
<g id="edge37" class="edge">
<title>Node19000&#45;&gt;Node19250</title>
<path fill="none" stroke="#191970" d="M252.8144,-608.226C259.6182,-559.0977 292.4016,-339.7227 341,-295 390.0257,-249.884 468.2916,-241.7789 523.7745,-242.6365"/>
<polygon fill="#191970" stroke="#191970" points="523.7709,-246.1374 533.8571,-242.894 523.9497,-239.1397 523.7709,-246.1374"/>
</g>
<!-- Node19111 -->
<g id="node18" class="node">
<title>Node19111</title>
<g id="a_node18"><a xlink:href="quickjs_8c.html#a260bfa297ff6cb5bd18e229afaa54663" target="_top" xlink:title="JS_AtomToString">
<polygon fill="none" stroke="#ff0000" points="371.5,-380.5 371.5,-399.5 467.5,-399.5 467.5,-380.5 371.5,-380.5"/>
<text text-anchor="middle" x="419.5" y="-387.5" font-family="Helvetica,sans-Serif" font-size="10.00" fill="#000000">JS_AtomToString</text>
</a>
</g>
</g>
<!-- Node19000&#45;&gt;Node19111 -->
<g id="edge18" class="edge">
<title>Node19000&#45;&gt;Node19111</title>
<path fill="none" stroke="#191970" d="M252.6036,-608.3185C256.9372,-574.9915 275.8911,-464.0447 341,-409 347.0233,-403.9078 354.1896,-400.136 361.7058,-397.3503"/>
<polygon fill="#191970" stroke="#191970" points="362.8597,-400.6566 371.3537,-394.3239 360.7645,-393.9775 362.8597,-400.6566"/>
</g>
<!-- Node19106 -->
<g id="node19" class="node">
<title>Node19106</title>
<g id="a_node19"><a xlink:href="quickjs_8h.html#a89b7c8686c7eee70b86be722ee4730ad" target="_top" xlink:title="JS_GetProperty">
<polygon fill="none" stroke="#ff0000" points="375,-342.5 375,-361.5 464,-361.5 464,-342.5 375,-342.5"/>
<text text-anchor="middle" x="419.5" y="-349.5" font-family="Helvetica,sans-Serif" font-size="10.00" fill="#000000">JS_GetProperty</text>
</a>
</g>
</g>
<!-- Node19000&#45;&gt;Node19106 -->
<g id="edge19" class="edge">
<title>Node19000&#45;&gt;Node19106</title>
<path fill="none" stroke="#191970" d="M251.891,-608.4414C253.9347,-571.6323 266.4184,-437.787 341,-371 347.8273,-364.8862 356.2854,-360.6557 365.0964,-357.7455"/>
<polygon fill="#191970" stroke="#191970" points="366.0306,-361.1186 374.7355,-355.079 364.1643,-354.3719 366.0306,-361.1186"/>
</g>
<!-- Node19254 -->
<g id="node20" class="node">
<title>Node19254</title>
<g id="a_node20"><a xlink:href="quickjs_8c.html#afa67965c1017685fc6783776d6d0d4d7" target="_top" xlink:title="JS_AtomToValue">
<polygon fill="none" stroke="#ff0000" points="372,-304.5 372,-323.5 467,-323.5 467,-304.5 372,-304.5"/>
<text text-anchor="middle" x="419.5" y="-311.5" font-family="Helvetica,sans-Serif" font-size="10.00" fill="#000000">JS_AtomToValue</text>
</a>
</g>
</g>
<!-- Node19000&#45;&gt;Node19254 -->
<g id="edge21" class="edge">
<title>Node19000&#45;&gt;Node19254</title>
<path fill="none" stroke="#191970" d="M253.2449,-608.2279C261.5436,-562.808 298.3895,-372.8547 341,-333 346.97,-327.4161 354.2918,-323.3901 362.0401,-320.502"/>
<polygon fill="#191970" stroke="#191970" points="363.1319,-323.8279 371.6408,-317.5152 361.0524,-317.1438 363.1319,-323.8279"/>
</g>
<!-- Node19255 -->
<g id="node21" class="node">
<title>Node19255</title>
<g id="a_node21"><a xlink:href="quickjs_8c.html#a710289a14c2810467e5b448d3c28bd55" target="_top" xlink:title="JS_ToObject">
<polygon fill="none" stroke="#ff0000" points="383,-874.5 383,-893.5 456,-893.5 456,-874.5 383,-874.5"/>
<text text-anchor="middle" x="419.5" y="-881.5" font-family="Helvetica,sans-Serif" font-size="10.00" fill="#000000">JS_ToObject</text>
</a>
</g>
</g>
<!-- Node19000&#45;&gt;Node19255 -->
<g id="edge22" class="edge">
<title>Node19000&#45;&gt;Node19255</title>
<path fill="none" stroke="#191970" d="M251.891,-627.5586C253.9347,-664.3677 266.4184,-798.213 341,-865 349.8063,-872.886 361.3258,-877.6385 372.8163,-880.4662"/>
<polygon fill="#191970" stroke="#191970" points="372.3433,-883.9412 382.8377,-882.486 373.7264,-877.0792 372.3433,-883.9412"/>
</g>
<!-- Node19257 -->
<g id="node22" class="node">
<title>Node19257</title>
<g id="a_node22"><a xlink:href="quickjs_8c.html#afc0d8ea75588216ec132a6e1655524a7" target="_top" xlink:title="JS_NewObject">
<polygon fill="none" stroke="#ff0000" points="377.5,-1026.5 377.5,-1045.5 461.5,-1045.5 461.5,-1026.5 377.5,-1026.5"/>
<text text-anchor="middle" x="419.5" y="-1033.5" font-family="Helvetica,sans-Serif" font-size="10.00" fill="#000000">JS_NewObject</text>
</a>
</g>
</g>
<!-- Node19000&#45;&gt;Node19257 -->
<g id="edge26" class="edge">
<title>Node19000&#45;&gt;Node19257</title>
<path fill="none" stroke="#191970" d="M252.3828,-627.5381C257.6028,-681.9639 286.0892,-952.9068 341,-1012 348.1309,-1019.6741 357.639,-1024.9198 367.5711,-1028.4991"/>
<polygon fill="#191970" stroke="#191970" points="366.5728,-1031.8539 377.1598,-1031.4451 368.6286,-1025.1625 366.5728,-1031.8539"/>
</g>
<!-- Node19258 -->
<g id="node23" class="node">
<title>Node19258</title>
<g id="a_node23"><a xlink:href="quickjs_8c.html#a04d312757919ff6b4d79cd0c2c3e5bb2" target="_top" xlink:title="js_build_arguments">
<polygon fill="none" stroke="#ff0000" points="363.5,-646.5 363.5,-665.5 475.5,-665.5 475.5,-646.5 363.5,-646.5"/>
<text text-anchor="middle" x="419.5" y="-653.5" font-family="Helvetica,sans-Serif" font-size="10.00" fill="#000000">js_build_arguments</text>
</a>
</g>
</g>
<!-- Node19000&#45;&gt;Node19258 -->
<g id="edge27" class="edge">
<title>Node19000&#45;&gt;Node19258</title>
<path fill="none" stroke="#191970" d="M293.8935,-627.589C316.2626,-632.6487 343.8982,-638.8996 367.5472,-644.2488"/>
<polygon fill="#191970" stroke="#191970" points="366.8856,-647.6875 377.4114,-646.4799 368.4299,-640.8599 366.8856,-647.6875"/>
</g>
<!-- Node19259 -->
<g id="node24" class="node">
<title>Node19259</title>
<g id="a_node24"><a xlink:href="quickjs_8c.html#a1c459034f2971c4abc3a8d6d4693ef5f" target="_top" xlink:title="js_build_mapped_arguments">
<polygon fill="none" stroke="#ff0000" points="341,-494.5 341,-513.5 498,-513.5 498,-494.5 341,-494.5"/>
<text text-anchor="middle" x="419.5" y="-501.5" font-family="Helvetica,sans-Serif" font-size="10.00" fill="#000000">js_build_mapped_arguments</text>
</a>
</g>
</g>
<!-- Node19000&#45;&gt;Node19259 -->
<g id="edge32" class="edge">
<title>Node19000&#45;&gt;Node19259</title>
<path fill="none" stroke="#191970" d="M257.6162,-608.4675C270.536,-589.1458 302.5983,-545.3116 341,-523 344.8551,-520.7602 348.9636,-518.7836 353.203,-517.0395"/>
<polygon fill="#191970" stroke="#191970" points="354.4596,-520.3067 362.6457,-513.5806 352.0519,-513.7338 354.4596,-520.3067"/>
</g>
<!-- Node19262 -->
<g id="node25" class="node">
<title>Node19262</title>
<g id="a_node25"><a xlink:href="quickjs_8c.html#a2c15f4e9fa1344bb2d7caca8e21b34f4" target="_top" xlink:title="js_import_meta">
<polygon fill="none" stroke="#ff0000" points="373,-950.5 373,-969.5 466,-969.5 466,-950.5 373,-950.5"/>
<text text-anchor="middle" x="419.5" y="-957.5" font-family="Helvetica,sans-Serif" font-size="10.00" fill="#000000">js_import_meta</text>
</a>
</g>
</g>
<!-- Node19000&#45;&gt;Node19262 -->
<g id="edge38" class="edge">
<title>Node19000&#45;&gt;Node19262</title>
<path fill="none" stroke="#191970" d="M252.8582,-627.7276C259.8759,-676.6292 293.5388,-895.0722 341,-941 347.1561,-946.9572 354.8447,-951.1532 362.9838,-954.0892"/>
<polygon fill="#191970" stroke="#191970" points="362.0969,-957.4771 372.6804,-956.9872 364.1014,-950.7702 362.0969,-957.4771"/>
</g>
<!-- Node19266 -->
<g id="node26" class="node">
<title>Node19266</title>
<g id="a_node26"><a xlink:href="cutils_8h.html#ad587834d17e95461893d59661e5e9676" target="_top" xlink:title="get_u16">
<polygon fill="none" stroke="#000000" points="391.5,-912.5 391.5,-931.5 447.5,-931.5 447.5,-912.5 391.5,-912.5"/>
<text text-anchor="middle" x="419.5" y="-919.5" font-family="Helvetica,sans-Serif" font-size="10.00" fill="#000000">get_u16</text>
</a>
</g>
</g>
<!-- Node19000&#45;&gt;Node19266 -->
<g id="edge39" class="edge">
<title>Node19000&#45;&gt;Node19266</title>
<path fill="none" stroke="#191970" d="M253.2449,-627.7721C261.5436,-673.192 298.3895,-863.1453 341,-903 351.7951,-913.0969 367.0102,-918.1002 381.1748,-920.4926"/>
<polygon fill="#191970" stroke="#191970" points="380.8551,-923.9805 391.225,-921.8087 381.7641,-917.0398 380.8551,-923.9805"/>
</g>
<!-- Node19267 -->
<g id="node27" class="node">
<title>Node19267</title>
<g id="a_node27"><a xlink:href="quickjs_8c.html#a72f4829a5b32f5445fe3f2a59efeb8ea" target="_top" xlink:title="js_build_rest">
<polygon fill="none" stroke="#ff0000" points="380.5,-418.5 380.5,-437.5 458.5,-437.5 458.5,-418.5 380.5,-418.5"/>
<text text-anchor="middle" x="419.5" y="-425.5" font-family="Helvetica,sans-Serif" font-size="10.00" fill="#000000">js_build_rest</text>
</a>
</g>
</g>
<!-- Node19000&#45;&gt;Node19267 -->
<g id="edge40" class="edge">
<title>Node19000&#45;&gt;Node19267</title>
<path fill="none" stroke="#191970" d="M253.871,-608.4746C261.414,-580.1643 287.566,-495.7886 341,-452 349.5237,-445.0149 360.0605,-440.0599 370.6165,-436.5459"/>
<polygon fill="#191970" stroke="#191970" points="371.6547,-439.8888 380.259,-433.7069 369.6776,-433.1738 371.6547,-439.8888"/>
</g>
<!-- Node19015&#45;&gt;Node19094 -->
<g id="edge14" class="edge">
<title>Node19015&#45;&gt;Node19094</title>
<path fill="none" stroke="#191970" d="M452.2606,-203.2899C467.8051,-206.3895 485.6367,-212.3917 498,-224 563.7623,-285.7465 582.3547,-399.6862 587.3092,-445.8192"/>
<polygon fill="#191970" stroke="#191970" points="583.8487,-446.3974 588.2954,-456.0139 590.8162,-445.7234 583.8487,-446.3974"/>
</g>
<!-- Node19015&#45;&gt;Node19074 -->
<g id="edge15" class="edge">
<title>Node19015&#45;&gt;Node19074</title>
<path fill="none" stroke="#191970" d="M452.1813,-196.3366C477.0281,-193.5514 511.6237,-189.6734 539.8095,-186.514"/>
<polygon fill="#191970" stroke="#191970" points="540.326,-189.9781 549.8738,-185.3858 539.5461,-183.0217 540.326,-189.9781"/>
</g>
<!-- Node19015&#45;&gt;Node19250 -->
<g id="edge16" class="edge">
<title>Node19015&#45;&gt;Node19250</title>
<path fill="none" stroke="#191970" d="M452.1813,-209.2549C478.6861,-216.7607 516.284,-227.4079 545.3614,-235.6422"/>
<polygon fill="#191970" stroke="#191970" points="544.6836,-239.0878 555.2589,-238.445 546.5909,-232.3526 544.6836,-239.0878"/>
</g>
<!-- Node19255&#45;&gt;Node19010 -->
<g id="edge23" class="edge">
<title>Node19255&#45;&gt;Node19010</title>
<path fill="none" stroke="#191970" d="M456.3813,-880.4192C470.2886,-877.7494 485.704,-873.0979 498,-865 520.2708,-850.3329 517.4588,-837.9165 534,-817 547.2057,-800.3013 562.7834,-781.7061 573.9827,-768.5204"/>
<polygon fill="#191970" stroke="#191970" points="576.8165,-770.5914 580.6411,-760.711 571.4897,-766.0498 576.8165,-770.5914"/>
</g>
<!-- Node19255&#45;&gt;Node19011 -->
<g id="edge24" class="edge">
<title>Node19255&#45;&gt;Node19011</title>
<path fill="none" stroke="#191970" d="M456.3812,-875.644C469.5654,-872.5066 484.4973,-868.7805 498,-865 515.5866,-860.0761 534.8849,-854.0211 551.1666,-848.7197"/>
<polygon fill="#191970" stroke="#191970" points="552.463,-851.9779 560.8721,-845.533 550.2793,-845.3272 552.463,-851.9779"/>
</g>
<!-- Node19255&#45;&gt;Node19094 -->
<g id="edge25" class="edge">
<title>Node19255&#45;&gt;Node19094</title>
<path fill="none" stroke="#191970" d="M456.0013,-883.2808C470.8571,-881.1217 487.0674,-876.0783 498,-865 511.7646,-851.052 569.4041,-564.7365 585.0608,-485.9267"/>
<polygon fill="#191970" stroke="#191970" points="588.5446,-486.3516 587.0559,-475.8618 581.6782,-484.9904 588.5446,-486.3516"/>
</g>
<!-- Node19258&#45;&gt;Node19010 -->
<g id="edge31" class="edge">
<title>Node19258&#45;&gt;Node19010</title>
<path fill="none" stroke="#191970" d="M473.4562,-665.5796C481.9055,-668.0589 490.3611,-671.1519 498,-675 527.97,-690.0974 556.6743,-716.7886 573.5702,-734.1837"/>
<polygon fill="#191970" stroke="#191970" points="571.0413,-736.6035 580.4643,-741.4469 576.1184,-731.7844 571.0413,-736.6035"/>
</g>
<!-- Node19258&#45;&gt;Node19011 -->
<g id="edge29" class="edge">
<title>Node19258&#45;&gt;Node19011</title>
<path fill="none" stroke="#191970" d="M475.5893,-662.4268C483.7725,-665.2995 491.5866,-669.3406 498,-675 531.8556,-704.875 511.2332,-731.0078 534,-770 544.4878,-787.9623 559.8701,-805.94 571.7023,-818.5861"/>
<polygon fill="#191970" stroke="#191970" points="569.4316,-821.2751 578.878,-826.0727 574.4852,-816.4314 569.4316,-821.2751"/>
</g>
<!-- Node19258&#45;&gt;Node19094 -->
<g id="edge28" class="edge">
<title>Node19258&#45;&gt;Node19094</title>
<path fill="none" stroke="#191970" d="M475.7989,-648.569C483.7687,-645.8119 491.4624,-642.0698 498,-637 548.8373,-597.5766 574.5112,-521.5875 584.2416,-485.6939"/>
<polygon fill="#191970" stroke="#191970" points="587.7503,-486.1029 586.8523,-475.5461 580.9711,-484.3587 587.7503,-486.1029"/>
</g>
<!-- Node19258&#45;&gt;Node19074 -->
<g id="edge30" class="edge">
<title>Node19258&#45;&gt;Node19074</title>
<path fill="none" stroke="#191970" d="M475.8555,-651.4466C484.3125,-648.39 492.1459,-643.8017 498,-637 557.3752,-568.0143 492.7276,-310.1236 534,-229 540.7319,-215.7681 552.8189,-204.5952 563.9507,-196.3676"/>
<polygon fill="#191970" stroke="#191970" points="565.9506,-199.2401 572.1726,-190.6647 561.9609,-193.4883 565.9506,-199.2401"/>
</g>
<!-- Node19259&#45;&gt;Node19010 -->
<g id="edge35" class="edge">
<title>Node19259&#45;&gt;Node19010</title>
<path fill="none" stroke="#191970" d="M483.0261,-513.5462C488.4476,-516.0388 493.5502,-519.1422 498,-523 562.5799,-578.9883 581.8237,-687.1741 587.1307,-731.4191"/>
<polygon fill="#191970" stroke="#191970" points="583.6601,-731.8803 588.2205,-741.4434 590.6191,-731.1237 583.6601,-731.8803"/>
</g>
<!-- Node19259&#45;&gt;Node19011 -->
<g id="edge34" class="edge">
<title>Node19259&#45;&gt;Node19011</title>
<path fill="none" stroke="#191970" d="M485.8823,-513.5051C490.3812,-516.0422 494.5054,-519.1653 498,-523 572.7242,-604.9967 488.791,-668.692 534,-770 542.5571,-789.1754 558.3357,-807.2204 570.8054,-819.5792"/>
<polygon fill="#191970" stroke="#191970" points="568.3995,-822.1213 578.0478,-826.4988 573.2352,-817.06 568.3995,-822.1213"/>
</g>
<!-- Node19259&#45;&gt;Node19094 -->
<g id="edge33" class="edge">
<title>Node19259&#45;&gt;Node19094</title>
<path fill="none" stroke="#191970" d="M462.272,-494.411C484.8409,-489.3513 512.7232,-483.1004 536.5833,-477.7512"/>
<polygon fill="#191970" stroke="#191970" points="537.5435,-481.1229 546.5356,-475.5201 536.0121,-474.2925 537.5435,-481.1229"/>
</g>
<!-- Node19259&#45;&gt;Node19074 -->
<g id="edge36" class="edge">
<title>Node19259&#45;&gt;Node19074</title>
<path fill="none" stroke="#191970" d="M440.8219,-494.3912C459.0654,-485.0029 484.4606,-468.9251 498,-447 549.5969,-363.4463 486.1927,-314.7783 534,-229 541.3258,-215.8557 553.6875,-204.5786 564.8378,-196.2643"/>
<polygon fill="#191970" stroke="#191970" points="566.8618,-199.1197 573.0249,-190.5019 562.8329,-193.3954 566.8618,-199.1197"/>
</g>
<!-- Node19267&#45;&gt;Node19010 -->
<g id="edge42" class="edge">
<title>Node19267&#45;&gt;Node19010</title>
<path fill="none" stroke="#191970" d="M438.9307,-437.6233C456.6544,-447.3229 482.3897,-463.8661 498,-485 556.6697,-564.4293 579.4425,-684.451 586.4133,-731.2939"/>
<polygon fill="#191970" stroke="#191970" points="582.9656,-731.9108 587.8266,-741.3246 589.8971,-730.9341 582.9656,-731.9108"/>
</g>
<!-- Node19267&#45;&gt;Node19094 -->
<g id="edge41" class="edge">
<title>Node19267&#45;&gt;Node19094</title>
<path fill="none" stroke="#191970" d="M458.8127,-436.8135C481.8485,-441.9778 511.2429,-448.5677 536.2697,-454.1785"/>
<polygon fill="#191970" stroke="#191970" points="535.814,-457.6631 546.3374,-456.4355 537.3453,-450.8326 535.814,-457.6631"/>
</g>
<!-- Node19267&#45;&gt;Node19074 -->
<g id="edge43" class="edge">
<title>Node19267&#45;&gt;Node19074</title>
<path fill="none" stroke="#191970" d="M458.5689,-427.0488C472.7612,-424.7214 487.7999,-419.6173 498,-409 554.5214,-350.1669 493.0859,-299.5836 534,-229 541.4725,-216.1088 553.6819,-204.9342 564.7012,-196.6186"/>
<polygon fill="#191970" stroke="#191970" points="567.0569,-199.2377 573.1701,-190.5844 562.9949,-193.5368 567.0569,-199.2377"/>
</g>
<!-- Node19433&#45;&gt;Node19074 -->
<g id="edge53" class="edge">
<title>Node19433&#45;&gt;Node19074</title>
<path fill="none" stroke="#191970" d="M305.1256,-65.638C366.9382,-76.0977 464.3417,-94.2703 498,-110 526.7057,-123.4151 554.6684,-147.346 571.8541,-163.6838"/>
<polygon fill="#191970" stroke="#191970" points="569.7752,-166.5449 579.381,-171.0149 574.6593,-161.5303 569.7752,-166.5449"/>
</g>
<!-- Node19301 -->
<g id="node29" class="node">
<title>Node19301</title>
<g id="a_node29"><a xlink:href="quickjs_8c.html#a8551eaac7ef616910807cebdc515760d" target="_top" xlink:title="JS_GetException">
<polygon fill="none" stroke="#000000" points="371.5,-.5 371.5,-19.5 467.5,-19.5 467.5,-.5 371.5,-.5"/>
<text text-anchor="middle" x="419.5" y="-7.5" font-family="Helvetica,sans-Serif" font-size="10.00" fill="#000000">JS_GetException</text>
</a>
</g>
</g>
<!-- Node19433&#45;&gt;Node19301 -->
<g id="edge50" class="edge">
<title>Node19433&#45;&gt;Node19301</title>
<path fill="none" stroke="#191970" d="M280.3783,-47.4359C297.8426,-41.7844 320.6036,-34.6523 341,-29 349.6397,-26.6058 358.8604,-24.2223 367.8331,-21.9936"/>
<polygon fill="#191970" stroke="#191970" points="368.9326,-25.3278 377.8138,-19.5507 367.2684,-18.5285 368.9326,-25.3278"/>
</g>
<!-- Node19434 -->
<g id="node30" class="node">
<title>Node19434</title>
<g id="a_node30"><a xlink:href="quickjs-libc_8c.html#a410cd5dce0fb0e6a978ed313963f3962" target="_top" xlink:title="js_std_dump_error1">
<polygon fill="none" stroke="#ff0000" points="363,-38.5 363,-57.5 476,-57.5 476,-38.5 363,-38.5"/>
<text text-anchor="middle" x="419.5" y="-45.5" font-family="Helvetica,sans-Serif" font-size="10.00" fill="#000000">js_std_dump_error1</text>
</a>
</g>
</g>
<!-- Node19433&#45;&gt;Node19434 -->
<g id="edge51" class="edge">
<title>Node19433&#45;&gt;Node19434</title>
<path fill="none" stroke="#191970" d="M305.1182,-54.1276C320.2426,-53.3174 336.8857,-52.4258 352.682,-51.5795"/>
<polygon fill="#191970" stroke="#191970" points="353.1172,-55.0613 362.9156,-51.0313 352.7427,-48.0714 353.1172,-55.0613"/>
</g>
<!-- Node19434&#45;&gt;Node19074 -->
<g id="edge52" class="edge">
<title>Node19434&#45;&gt;Node19074</title>
<path fill="none" stroke="#191970" d="M466.7343,-57.6257C477.553,-61.1056 488.6195,-65.7744 498,-72 534.0839,-95.9482 563.498,-138.3597 578.4034,-162.6156"/>
<polygon fill="#191970" stroke="#191970" points="575.418,-164.4429 583.5538,-171.2296 581.426,-160.8506 575.418,-164.4429"/>
</g>
</g>
</svg>
