<?xml version="1.0" encoding="UTF-8" standalone="no"?>
<!DOCTYPE svg PUBLIC "-//W3C//DTD SVG 1.1//EN"
 "http://www.w3.org/Graphics/SVG/1.1/DTD/svg11.dtd">
<!-- Generated by graphviz version 2.40.1 (20161225.0304)
 -->
<!-- Title: js_symbol_constructor Pages: 1 -->
<svg width="601pt" height="28pt"
 viewBox="0.00 0.00 601.00 28.00" xmlns="http://www.w3.org/2000/svg" xmlns:xlink="http://www.w3.org/1999/xlink">
<g id="graph0" class="graph" transform="scale(1 1) rotate(0) translate(4 24)">
<title>js_symbol_constructor</title>
<!-- Node454422 -->
<g id="node1" class="node">
<title>Node454422</title>
<polygon fill="#bfbfbf" stroke="#000000" points="0,-.5 0,-19.5 126,-19.5 126,-.5 0,-.5"/>
<text text-anchor="middle" x="63" y="-7.5" font-family="Helvetica,sans-Serif" font-size="10.00" fill="#000000">js_symbol_constructor</text>
</g>
<!-- Node454423 -->
<g id="node2" class="node">
<title>Node454423</title>
<g id="a_node2"><a xlink:href="quickjs_8c.html#a4c9489297c684663f30e517204a9ec14" target="_top" xlink:title="JS_AddIntrinsicBaseObjects">
<polygon fill="none" stroke="#000000" points="162,-.5 162,-19.5 311,-19.5 311,-.5 162,-.5"/>
<text text-anchor="middle" x="236.5" y="-7.5" font-family="Helvetica,sans-Serif" font-size="10.00" fill="#000000">JS_AddIntrinsicBaseObjects</text>
</a>
</g>
</g>
<!-- Node454422&#45;&gt;Node454423 -->
<g id="edge1" class="edge">
<title>Node454422&#45;&gt;Node454423</title>
<path fill="none" stroke="#191970" d="M136.3422,-10C144.805,-10 153.4423,-10 161.9214,-10"/>
<polygon fill="#191970" stroke="#191970" points="136.1283,-6.5001 126.1283,-10 136.1282,-13.5001 136.1283,-6.5001"/>
</g>
<!-- Node454424 -->
<g id="node3" class="node">
<title>Node454424</title>
<g id="a_node3"><a xlink:href="quickjs_8c.html#ad8aedb643b8753b7a15f6cb2df61945e" target="_top" xlink:title="JS_NewContext">
<polygon fill="none" stroke="#000000" points="347,-.5 347,-19.5 438,-19.5 438,-.5 347,-.5"/>
<text text-anchor="middle" x="392.5" y="-7.5" font-family="Helvetica,sans-Serif" font-size="10.00" fill="#000000">JS_NewContext</text>
</a>
</g>
</g>
<!-- Node454423&#45;&gt;Node454424 -->
<g id="edge2" class="edge">
<title>Node454423&#45;&gt;Node454424</title>
<path fill="none" stroke="#191970" d="M321.4608,-10C330.0918,-10 338.6083,-10 346.583,-10"/>
<polygon fill="#191970" stroke="#191970" points="321.3016,-6.5001 311.3016,-10 321.3015,-13.5001 321.3016,-6.5001"/>
</g>
<!-- Node454425 -->
<g id="node4" class="node">
<title>Node454425</title>
<g id="a_node4"><a xlink:href="classqjs_1_1Context.html#a4392a23648acfc4bf6b445336efb5007" target="_top" xlink:title="qjs::Context::Context">
<polygon fill="none" stroke="#ff0000" points="474,-.5 474,-19.5 593,-19.5 593,-.5 474,-.5"/>
<text text-anchor="middle" x="533.5" y="-7.5" font-family="Helvetica,sans-Serif" font-size="10.00" fill="#000000">qjs::Context::Context</text>
</a>
</g>
</g>
<!-- Node454424&#45;&gt;Node454425 -->
<g id="edge3" class="edge">
<title>Node454424&#45;&gt;Node454425</title>
<path fill="none" stroke="#191970" d="M448.322,-10C456.7011,-10 465.3697,-10 473.8255,-10"/>
<polygon fill="#191970" stroke="#191970" points="448.2787,-6.5001 438.2787,-10 448.2786,-13.5001 448.2787,-6.5001"/>
</g>
</g>
</svg>
