<?xml version="1.0" encoding="UTF-8" standalone="no"?>
<!DOCTYPE svg PUBLIC "-//W3C//DTD SVG 1.1//EN"
 "http://www.w3.org/Graphics/SVG/1.1/DTD/svg11.dtd">
<!-- Generated by graphviz version 2.40.1 (20161225.0304)
 -->
<!-- Title: js_parseInt Pages: 1 -->
<!--zoomable 522 -->
<svg id="main" version="1.1" xmlns="http://www.w3.org/2000/svg" xmlns:xlink="http://www.w3.org/1999/xlink" xml:space="preserve" onload="init(evt)">
<style type="text/css"><![CDATA[
.edge:hover path { stroke: red; }
.edge:hover polygon { stroke: red; fill: red; }
]]></style>
<script type="text/javascript"><![CDATA[
var edges = document.getElementsByTagName('g');
if (edges && edges.length) {
  for (var i=0;i<edges.length;i++) {
    if (edges[i].id.substr(0,4)=='edge') {
      edges[i].setAttribute('class','edge');
    }
  }
}
]]></script>
        <defs>
                <circle id="rim" cx="0" cy="0" r="7"/>
                <circle id="rim2" cx="0" cy="0" r="3.5"/>
                <g id="zoomPlus">
                        <use xlink:href="#rim" fill="#404040">
                                <set attributeName="fill" to="#808080" begin="zoomplus.mouseover" end="zoomplus.mouseout"/>
                        </use>
                        <path d="M-4,0h8M0,-4v8" fill="none" stroke="white" stroke-width="1.5" pointer-events="none"/>
                </g>
                <g id="zoomMin">
                        <use xlink:href="#rim" fill="#404040">
                                <set attributeName="fill" to="#808080" begin="zoomminus.mouseover" end="zoomminus.mouseout"/>
                        </use>
                        <path d="M-4,0h8" fill="none" stroke="white" stroke-width="1.5" pointer-events="none"/>
                </g>
                <g id="dirArrow">
                        <path fill="none" stroke="white" stroke-width="1.5" d="M0,-3.0v7 M-2.5,-0.5L0,-3.0L2.5,-0.5"/>
                </g>
               <g id="resetDef">
                       <use xlink:href="#rim2" fill="#404040">
                               <set attributeName="fill" to="#808080" begin="reset.mouseover" end="reset.mouseout"/>
                       </use>
               </g>
        </defs>

<script type="text/javascript">
var viewWidth = 752;
var viewHeight = 522;
var sectionId = 'dynsection-1525';
</script>
<script xlink:href="svgpan.js"/>
<svg id="graph" class="graph">
<g id="viewport">
<title>js_parseInt</title>
<!-- Node412904 -->
<g id="node1" class="node">
<title>Node412904</title>
<polygon fill="#bfbfbf" stroke="#000000" points="0,-76.5 0,-95.5 70,-95.5 70,-76.5 0,-76.5"/>
<text text-anchor="middle" x="35" y="-83.5" font-family="Helvetica,sans-Serif" font-size="10.00" fill="#000000">js_parseInt</text>
</g>
<!-- Node412905 -->
<g id="node2" class="node">
<title>Node412905</title>
<g id="a_node2"><a xlink:href="quickjs_8c.html#a40bcef4994dba57dfb34b6eed66daef0" target="_top" xlink:title="js_atof">
<polygon fill="none" stroke="#000000" points="124,-361.5 124,-380.5 174,-380.5 174,-361.5 124,-361.5"/>
<text text-anchor="middle" x="149" y="-368.5" font-family="Helvetica,sans-Serif" font-size="10.00" fill="#000000">js_atof</text>
</a>
</g>
</g>
<!-- Node412904&#45;&gt;Node412905 -->
<g id="edge1" class="edge">
<title>Node412904&#45;&gt;Node412905</title>
<path fill="none" stroke="#191970" d="M38.9241,-95.8103C55.4022,-137.0055 119.17,-296.425 141.3466,-351.8666"/>
<polygon fill="#191970" stroke="#191970" points="138.1287,-353.246 145.0924,-361.2309 144.6281,-350.6463 138.1287,-353.246"/>
</g>
<!-- Node412915 -->
<g id="node12" class="node">
<title>Node412915</title>
<g id="a_node12"><a xlink:href="quickjs_8c.html#ae0bc4f65da64810facb2cb9e476eda2e" target="_top" xlink:title="JS_FreeCString">
<polygon fill="none" stroke="#000000" points="106,-76.5 106,-95.5 192,-95.5 192,-76.5 106,-76.5"/>
<text text-anchor="middle" x="149" y="-83.5" font-family="Helvetica,sans-Serif" font-size="10.00" fill="#000000">JS_FreeCString</text>
</a>
</g>
</g>
<!-- Node412904&#45;&gt;Node412915 -->
<g id="edge12" class="edge">
<title>Node412904&#45;&gt;Node412915</title>
<path fill="none" stroke="#191970" d="M70.134,-86C78.2217,-86 87.0018,-86 95.6682,-86"/>
<polygon fill="#191970" stroke="#191970" points="95.7415,-89.5001 105.7415,-86 95.7414,-82.5001 95.7415,-89.5001"/>
</g>
<!-- Node412953 -->
<g id="node15" class="node">
<title>Node412953</title>
<g id="a_node15"><a xlink:href="quickjs_8h.html#af931f06630ab719b5f82a16eb27effd1" target="_top" xlink:title="JS_ToCString">
<polygon fill="none" stroke="#000000" points="110.5,-114.5 110.5,-133.5 187.5,-133.5 187.5,-114.5 110.5,-114.5"/>
<text text-anchor="middle" x="149" y="-121.5" font-family="Helvetica,sans-Serif" font-size="10.00" fill="#000000">JS_ToCString</text>
</a>
</g>
</g>
<!-- Node412904&#45;&gt;Node412953 -->
<g id="edge15" class="edge">
<title>Node412904&#45;&gt;Node412953</title>
<path fill="none" stroke="#191970" d="M63.767,-95.589C77.9433,-100.3144 95.2366,-106.0789 110.5322,-111.1774"/>
<polygon fill="#191970" stroke="#191970" points="109.6485,-114.5721 120.2422,-114.4141 111.8622,-107.9313 109.6485,-114.5721"/>
</g>
<!-- Node413127 -->
<g id="node22" class="node">
<title>Node413127</title>
<g id="a_node22"><a xlink:href="quickjs_8c.html#a4073bd2b4f247bf6077cd956759193b9" target="_top" xlink:title="JS_ToInt32">
<polygon fill="none" stroke="#ff0000" points="116,-38.5 116,-57.5 182,-57.5 182,-38.5 116,-38.5"/>
<text text-anchor="middle" x="149" y="-45.5" font-family="Helvetica,sans-Serif" font-size="10.00" fill="#000000">JS_ToInt32</text>
</a>
</g>
</g>
<!-- Node412904&#45;&gt;Node413127 -->
<g id="edge24" class="edge">
<title>Node412904&#45;&gt;Node413127</title>
<path fill="none" stroke="#191970" d="M63.767,-76.411C77.9433,-71.6856 95.2366,-65.9211 110.5322,-60.8226"/>
<polygon fill="#191970" stroke="#191970" points="111.8622,-64.0687 120.2422,-57.5859 109.6485,-57.4279 111.8622,-64.0687"/>
</g>
<!-- Node413027 -->
<g id="node23" class="node">
<title>Node413027</title>
<g id="a_node23"><a xlink:href="quickjs_8c.html#a55c008c257c5802e77f5fec646e3ebf1" target="_top" xlink:title="skip_spaces">
<polygon fill="none" stroke="#ff0000" points="111,-.5 111,-19.5 187,-19.5 187,-.5 111,-.5"/>
<text text-anchor="middle" x="149" y="-7.5" font-family="Helvetica,sans-Serif" font-size="10.00" fill="#000000">skip_spaces</text>
</a>
</g>
</g>
<!-- Node412904&#45;&gt;Node413027 -->
<g id="edge26" class="edge">
<title>Node412904&#45;&gt;Node413027</title>
<path fill="none" stroke="#191970" d="M45.4125,-76.1786C58.7036,-63.9997 82.7683,-43.1242 106,-29 108.9486,-27.2073 112.0962,-25.4885 115.2966,-23.8681"/>
<polygon fill="#191970" stroke="#191970" points="116.7987,-27.0294 124.3346,-19.5822 113.7994,-20.7045 116.7987,-27.0294"/>
</g>
<!-- Node412906 -->
<g id="node3" class="node">
<title>Node412906</title>
<g id="a_node3"><a xlink:href="quickjs_8c.html#ab3ca6381d29dea396b12acd7f755c51a" target="_top" xlink:title="is_digit">
<polygon fill="none" stroke="#000000" points="252,-418.5 252,-437.5 304,-437.5 304,-418.5 252,-418.5"/>
<text text-anchor="middle" x="278" y="-425.5" font-family="Helvetica,sans-Serif" font-size="10.00" fill="#000000">is_digit</text>
</a>
</g>
</g>
<!-- Node412905&#45;&gt;Node412906 -->
<g id="edge2" class="edge">
<title>Node412905&#45;&gt;Node412906</title>
<path fill="none" stroke="#191970" d="M167.628,-380.5152C183.507,-388.4917 207.0243,-399.9892 228,-409 232.5594,-410.9586 237.394,-412.9275 242.1902,-414.8169"/>
<polygon fill="#191970" stroke="#191970" points="241.291,-418.2214 251.8806,-418.5549 243.8104,-411.6904 241.291,-418.2214"/>
</g>
<!-- Node412907 -->
<g id="node4" class="node">
<title>Node412907</title>
<g id="a_node4"><a xlink:href="quickjs_8c.html#a69e19dda8a93d613203e0baa06f0ed8d" target="_top" xlink:title="js_free_rt">
<polygon fill="none" stroke="#000000" points="247,-380.5 247,-399.5 309,-399.5 309,-380.5 247,-380.5"/>
<text text-anchor="middle" x="278" y="-387.5" font-family="Helvetica,sans-Serif" font-size="10.00" fill="#000000">js_free_rt</text>
</a>
</g>
</g>
<!-- Node412905&#45;&gt;Node412907 -->
<g id="edge3" class="edge">
<title>Node412905&#45;&gt;Node412907</title>
<path fill="none" stroke="#191970" d="M174.1787,-374.7085C191.9928,-377.3323 216.2778,-380.9091 236.8815,-383.9438"/>
<polygon fill="#191970" stroke="#191970" points="236.5569,-387.4337 246.9602,-385.4283 237.577,-380.5084 236.5569,-387.4337"/>
</g>
<!-- Node412908 -->
<g id="node5" class="node">
<title>Node412908</title>
<g id="a_node5"><a xlink:href="quickjs_8h.html#ae91f44bd7249613050c18c7133702c67" target="_top" xlink:title="JS_NewFloat64">
<polygon fill="none" stroke="#000000" points="233.5,-494.5 233.5,-513.5 322.5,-513.5 322.5,-494.5 233.5,-494.5"/>
<text text-anchor="middle" x="278" y="-501.5" font-family="Helvetica,sans-Serif" font-size="10.00" fill="#000000">JS_NewFloat64</text>
</a>
</g>
</g>
<!-- Node412905&#45;&gt;Node412908 -->
<g id="edge4" class="edge">
<title>Node412905&#45;&gt;Node412908</title>
<path fill="none" stroke="#191970" d="M153.2423,-380.7182C163.1889,-402.4359 190.0724,-455.3221 228,-485 230.2968,-486.7973 232.7827,-488.4395 235.3765,-489.9377"/>
<polygon fill="#191970" stroke="#191970" points="233.9841,-493.1545 244.4941,-494.4926 237.1125,-486.8924 233.9841,-493.1545"/>
</g>
<!-- Node412910 -->
<g id="node7" class="node">
<title>Node412910</title>
<g id="a_node7"><a xlink:href="quickjs_8c.html#afe15bf5b8db2df1ac795c3803a1f67a6" target="_top" xlink:title="js_strtod">
<polygon fill="none" stroke="#000000" points="248.5,-342.5 248.5,-361.5 307.5,-361.5 307.5,-342.5 248.5,-342.5"/>
<text text-anchor="middle" x="278" y="-349.5" font-family="Helvetica,sans-Serif" font-size="10.00" fill="#000000">js_strtod</text>
</a>
</g>
</g>
<!-- Node412905&#45;&gt;Node412910 -->
<g id="edge6" class="edge">
<title>Node412905&#45;&gt;Node412910</title>
<path fill="none" stroke="#191970" d="M174.1787,-367.2915C192.4522,-364.6001 217.5347,-360.9057 238.468,-357.8225"/>
<polygon fill="#191970" stroke="#191970" points="238.9798,-361.285 248.3631,-356.3651 237.9598,-354.3597 238.9798,-361.285"/>
</g>
<!-- Node412911 -->
<g id="node8" class="node">
<title>Node412911</title>
<g id="a_node8"><a xlink:href="quickjs_8c.html#aee06949e4c5ec85b3da174509b93dc65" target="_top" xlink:title="to_digit">
<polygon fill="none" stroke="#000000" points="387,-323.5 387,-342.5 440,-342.5 440,-323.5 387,-323.5"/>
<text text-anchor="middle" x="413.5" y="-330.5" font-family="Helvetica,sans-Serif" font-size="10.00" fill="#000000">to_digit</text>
</a>
</g>
</g>
<!-- Node412905&#45;&gt;Node412911 -->
<g id="edge11" class="edge">
<title>Node412905&#45;&gt;Node412911</title>
<path fill="none" stroke="#191970" d="M163.6932,-361.4352C179.0226,-352.0726 204.1098,-338.4471 228,-333 278.6567,-321.4501 339.1379,-324.4578 376.942,-328.2617"/>
<polygon fill="#191970" stroke="#191970" points="376.6586,-331.7513 386.9764,-329.3442 377.4095,-324.7917 376.6586,-331.7513"/>
</g>
<!-- Node412912 -->
<g id="node9" class="node">
<title>Node412912</title>
<g id="a_node9"><a xlink:href="quickjs_8c.html#a344d6c0e45d9bf3861fd9269724045a2" target="_top" xlink:title="JS_ThrowOutOfMemory">
<polygon fill="none" stroke="#000000" points="499,-247.5 499,-266.5 628,-266.5 628,-247.5 499,-247.5"/>
<text text-anchor="middle" x="563.5" y="-254.5" font-family="Helvetica,sans-Serif" font-size="10.00" fill="#000000">JS_ThrowOutOfMemory</text>
</a>
</g>
</g>
<!-- Node412905&#45;&gt;Node412912 -->
<g id="edge8" class="edge">
<title>Node412905&#45;&gt;Node412912</title>
<path fill="none" stroke="#191970" d="M160.5107,-361.4898C175.2219,-349.8475 201.9182,-330.4004 228,-320 313.6554,-285.8441 419.1296,-269.9346 488.6875,-262.7091"/>
<polygon fill="#191970" stroke="#191970" points="489.0828,-266.1871 498.6828,-261.7049 488.383,-259.2221 489.0828,-266.1871"/>
</g>
<!-- Node412914 -->
<g id="node11" class="node">
<title>Node412914</title>
<g id="a_node11"><a xlink:href="cutils_8h.html#ac86d2d258aae26d8f600c60e9953c9cc" target="_top" xlink:title="strstart">
<polygon fill="none" stroke="#000000" points="252,-456.5 252,-475.5 304,-475.5 304,-456.5 252,-456.5"/>
<text text-anchor="middle" x="278" y="-463.5" font-family="Helvetica,sans-Serif" font-size="10.00" fill="#000000">strstart</text>
</a>
</g>
</g>
<!-- Node412905&#45;&gt;Node412914 -->
<g id="edge10" class="edge">
<title>Node412905&#45;&gt;Node412914</title>
<path fill="none" stroke="#191970" d="M156.782,-380.691C169.9421,-396.5218 198.0949,-428.059 228,-447 232.4459,-449.8159 237.3737,-452.3162 242.3522,-454.5026"/>
<polygon fill="#191970" stroke="#191970" points="241.2908,-457.8479 251.8751,-458.3208 243.8959,-451.3506 241.2908,-457.8479"/>
</g>
<!-- Node412909 -->
<g id="node6" class="node">
<title>Node412909</title>
<g id="a_node6"><a xlink:href="quickjs_8h.html#a9bf98b18de88b4199910a43e933eb97d" target="_top" xlink:title="__JS_NewFloat64">
<polygon fill="none" stroke="#000000" points="364,-494.5 364,-513.5 463,-513.5 463,-494.5 364,-494.5"/>
<text text-anchor="middle" x="413.5" y="-501.5" font-family="Helvetica,sans-Serif" font-size="10.00" fill="#000000">__JS_NewFloat64</text>
</a>
</g>
</g>
<!-- Node412908&#45;&gt;Node412909 -->
<g id="edge5" class="edge">
<title>Node412908&#45;&gt;Node412909</title>
<path fill="none" stroke="#191970" d="M322.7433,-504C332.5718,-504 343.1333,-504 353.4533,-504"/>
<polygon fill="#191970" stroke="#191970" points="353.6566,-507.5001 363.6566,-504 353.6566,-500.5001 353.6566,-507.5001"/>
</g>
<!-- Node412910&#45;&gt;Node412911 -->
<g id="edge7" class="edge">
<title>Node412910&#45;&gt;Node412911</title>
<path fill="none" stroke="#191970" d="M307.7361,-347.8304C327.9545,-344.9953 354.851,-341.2238 376.4605,-338.1937"/>
<polygon fill="#191970" stroke="#191970" points="377.1746,-341.6279 386.5916,-336.7731 376.2025,-334.6958 377.1746,-341.6279"/>
</g>
<!-- Node412913 -->
<g id="node10" class="node">
<title>Node412913</title>
<g id="a_node10"><a xlink:href="quickjs_8c.html#a853f0924d441ea4225488f37c8b69f9a" target="_top" xlink:title="__attribute__">
<polygon fill="none" stroke="#000000" points="664,-247.5 664,-266.5 744,-266.5 744,-247.5 664,-247.5"/>
<text text-anchor="middle" x="704" y="-254.5" font-family="Helvetica,sans-Serif" font-size="10.00" fill="#000000">__attribute__</text>
</a>
</g>
</g>
<!-- Node412912&#45;&gt;Node412913 -->
<g id="edge9" class="edge">
<title>Node412912&#45;&gt;Node412913</title>
<path fill="none" stroke="#191970" d="M628.4035,-257C636.8969,-257 645.4951,-257 653.6976,-257"/>
<polygon fill="#191970" stroke="#191970" points="653.8383,-260.5001 663.8383,-257 653.8382,-253.5001 653.8383,-260.5001"/>
</g>
<!-- Node412916 -->
<g id="node13" class="node">
<title>Node412916</title>
<g id="a_node13"><a xlink:href="quickjs_8h.html#afaa20c47565bc704c6c85f3d77254e7d" target="_top" xlink:title="JS_FreeValue">
<polygon fill="none" stroke="#000000" points="374.5,-76.5 374.5,-95.5 452.5,-95.5 452.5,-76.5 374.5,-76.5"/>
<text text-anchor="middle" x="413.5" y="-83.5" font-family="Helvetica,sans-Serif" font-size="10.00" fill="#000000">JS_FreeValue</text>
</a>
</g>
</g>
<!-- Node412915&#45;&gt;Node412916 -->
<g id="edge13" class="edge">
<title>Node412915&#45;&gt;Node412916</title>
<path fill="none" stroke="#191970" d="M192.0852,-86C239.2343,-86 314.6857,-86 364.1715,-86"/>
<polygon fill="#191970" stroke="#191970" points="364.3176,-89.5001 374.3176,-86 364.3175,-82.5001 364.3176,-89.5001"/>
</g>
<!-- Node412917 -->
<g id="node14" class="node">
<title>Node412917</title>
<g id="a_node14"><a xlink:href="quickjs_8c.html#aa059f309c30fd5166d16c82a97973146" target="_top" xlink:title="__JS_FreeValue">
<polygon fill="none" stroke="#ff0000" points="519,-76.5 519,-95.5 608,-95.5 608,-76.5 519,-76.5"/>
<text text-anchor="middle" x="563.5" y="-83.5" font-family="Helvetica,sans-Serif" font-size="10.00" fill="#000000">__JS_FreeValue</text>
</a>
</g>
</g>
<!-- Node412916&#45;&gt;Node412917 -->
<g id="edge14" class="edge">
<title>Node412916&#45;&gt;Node412917</title>
<path fill="none" stroke="#191970" d="M452.5192,-86C469.6578,-86 490.0816,-86 508.7083,-86"/>
<polygon fill="#191970" stroke="#191970" points="508.8394,-89.5001 518.8394,-86 508.8393,-82.5001 508.8394,-89.5001"/>
</g>
<!-- Node412954 -->
<g id="node16" class="node">
<title>Node412954</title>
<g id="a_node16"><a xlink:href="quickjs_8c.html#af49e67b73f845dc1f9c3ee648dd9f95c" target="_top" xlink:title="JS_ToCStringLen2">
<polygon fill="none" stroke="#000000" points="228,-114.5 228,-133.5 328,-133.5 328,-114.5 228,-114.5"/>
<text text-anchor="middle" x="278" y="-121.5" font-family="Helvetica,sans-Serif" font-size="10.00" fill="#000000">JS_ToCStringLen2</text>
</a>
</g>
</g>
<!-- Node412953&#45;&gt;Node412954 -->
<g id="edge16" class="edge">
<title>Node412953&#45;&gt;Node412954</title>
<path fill="none" stroke="#191970" d="M187.7043,-124C197.1666,-124 207.5157,-124 217.7232,-124"/>
<polygon fill="#191970" stroke="#191970" points="217.8454,-127.5001 227.8454,-124 217.8453,-120.5001 217.8454,-127.5001"/>
</g>
<!-- Node412954&#45;&gt;Node412916 -->
<g id="edge20" class="edge">
<title>Node412954&#45;&gt;Node412916</title>
<path fill="none" stroke="#191970" d="M312.1924,-114.411C329.6039,-109.5281 350.9715,-103.5357 369.5871,-98.315"/>
<polygon fill="#191970" stroke="#191970" points="370.6351,-101.6562 379.3186,-95.5859 368.7449,-94.9163 370.6351,-101.6562"/>
</g>
<!-- Node412955 -->
<g id="node17" class="node">
<title>Node412955</title>
<g id="a_node17"><a xlink:href="quickjs_8c.html#ad303a9bc56766627b5fca41574933930" target="_top" xlink:title="js_alloc_string">
<polygon fill="none" stroke="#ff0000" points="370.5,-228.5 370.5,-247.5 456.5,-247.5 456.5,-228.5 370.5,-228.5"/>
<text text-anchor="middle" x="413.5" y="-235.5" font-family="Helvetica,sans-Serif" font-size="10.00" fill="#000000">js_alloc_string</text>
</a>
</g>
</g>
<!-- Node412954&#45;&gt;Node412955 -->
<g id="edge17" class="edge">
<title>Node412954&#45;&gt;Node412955</title>
<path fill="none" stroke="#191970" d="M284.4249,-133.7244C297.3672,-152.6257 328.3979,-194.6021 364,-219 366.7335,-220.8733 369.6772,-222.5954 372.7177,-224.1719"/>
<polygon fill="#191970" stroke="#191970" points="371.4712,-227.4515 382.017,-228.4698 374.408,-221.0973 371.4712,-227.4515"/>
</g>
<!-- Node412957 -->
<g id="node18" class="node">
<title>Node412957</title>
<g id="a_node18"><a xlink:href="quickjs_8h.html#a775522f2d084fc8fa0fcb33f390006b4" target="_top" xlink:title="JS_DupValue">
<polygon fill="none" stroke="#000000" points="375,-38.5 375,-57.5 452,-57.5 452,-38.5 375,-38.5"/>
<text text-anchor="middle" x="413.5" y="-45.5" font-family="Helvetica,sans-Serif" font-size="10.00" fill="#000000">JS_DupValue</text>
</a>
</g>
</g>
<!-- Node412954&#45;&gt;Node412957 -->
<g id="edge19" class="edge">
<title>Node412954&#45;&gt;Node412957</title>
<path fill="none" stroke="#191970" d="M290.5721,-114.3872C306.8645,-102.2367 336.4553,-81.197 364,-67 367.8201,-65.0311 371.8931,-63.1484 375.9999,-61.3859"/>
<polygon fill="#191970" stroke="#191970" points="377.5944,-64.516 385.5402,-57.5078 374.9583,-58.0312 377.5944,-64.516"/>
</g>
<!-- Node412958 -->
<g id="node19" class="node">
<title>Node412958</title>
<g id="a_node19"><a xlink:href="quickjs_8h.html#ad80a83d73e9b7d872b88fbf2943aebe9" target="_top" xlink:title="JS_IsException">
<polygon fill="none" stroke="#000000" points="370,-190.5 370,-209.5 457,-209.5 457,-190.5 370,-190.5"/>
<text text-anchor="middle" x="413.5" y="-197.5" font-family="Helvetica,sans-Serif" font-size="10.00" fill="#000000">JS_IsException</text>
</a>
</g>
</g>
<!-- Node412954&#45;&gt;Node412958 -->
<g id="edge21" class="edge">
<title>Node412954&#45;&gt;Node412958</title>
<path fill="none" stroke="#191970" d="M290.5721,-133.6128C306.8645,-145.7633 336.4553,-166.803 364,-181 367.8201,-182.9689 371.8931,-184.8516 375.9999,-186.6141"/>
<polygon fill="#191970" stroke="#191970" points="374.9583,-189.9688 385.5402,-190.4922 377.5944,-183.484 374.9583,-189.9688"/>
</g>
<!-- Node412959 -->
<g id="node20" class="node">
<title>Node412959</title>
<g id="a_node20"><a xlink:href="quickjs_8c.html#a7bcb8e1a20cbc8374a5f9ba4a2088cec" target="_top" xlink:title="JS_ToString">
<polygon fill="none" stroke="#ff0000" points="378.5,-152.5 378.5,-171.5 448.5,-171.5 448.5,-152.5 378.5,-152.5"/>
<text text-anchor="middle" x="413.5" y="-159.5" font-family="Helvetica,sans-Serif" font-size="10.00" fill="#000000">JS_ToString</text>
</a>
</g>
</g>
<!-- Node412954&#45;&gt;Node412959 -->
<g id="edge22" class="edge">
<title>Node412954&#45;&gt;Node412959</title>
<path fill="none" stroke="#191970" d="M312.1924,-133.589C329.6039,-138.4719 350.9715,-144.4643 369.5871,-149.685"/>
<polygon fill="#191970" stroke="#191970" points="368.7449,-153.0837 379.3186,-152.4141 370.6351,-146.3438 368.7449,-153.0837"/>
</g>
<!-- Node413057 -->
<g id="node21" class="node">
<title>Node413057</title>
<g id="a_node21"><a xlink:href="cutils_8h.html#aad4e0decb15ab19e9f45b0ee69542a28" target="_top" xlink:title="unicode_to_utf8">
<polygon fill="none" stroke="#000000" points="366,-114.5 366,-133.5 461,-133.5 461,-114.5 366,-114.5"/>
<text text-anchor="middle" x="413.5" y="-121.5" font-family="Helvetica,sans-Serif" font-size="10.00" fill="#000000">unicode_to_utf8</text>
</a>
</g>
</g>
<!-- Node412954&#45;&gt;Node413057 -->
<g id="edge23" class="edge">
<title>Node412954&#45;&gt;Node413057</title>
<path fill="none" stroke="#191970" d="M328.0702,-124C337.0532,-124 346.4821,-124 355.6628,-124"/>
<polygon fill="#191970" stroke="#191970" points="355.8856,-127.5001 365.8856,-124 355.8855,-120.5001 355.8856,-127.5001"/>
</g>
<!-- Node412955&#45;&gt;Node412912 -->
<g id="edge18" class="edge">
<title>Node412955&#45;&gt;Node412912</title>
<path fill="none" stroke="#191970" d="M456.8862,-243.4956C466.8893,-244.7626 477.8107,-246.146 488.7258,-247.5286"/>
<polygon fill="#191970" stroke="#191970" points="488.361,-251.0103 498.7215,-248.7947 489.2407,-244.0658 488.361,-251.0103"/>
</g>
<!-- Node413127&#45;&gt;Node412957 -->
<g id="edge25" class="edge">
<title>Node413127&#45;&gt;Node412957</title>
<path fill="none" stroke="#191970" d="M182.2313,-48C228.1484,-48 311.3277,-48 364.4161,-48"/>
<polygon fill="#191970" stroke="#191970" points="364.6126,-51.5001 374.6126,-48 364.6125,-44.5001 364.6126,-51.5001"/>
</g>
</g>
</svg>
        <g id="navigator" transform="translate(0 0)" fill="#404254">
                <rect fill="#f2f5e9" fill-opacity="0.5" stroke="#606060" stroke-width=".5" x="0" y="0" width="60" height="60"/>
                <use id="zoomplus" xlink:href="#zoomPlus" x="17" y="9" onmousedown="handleZoom(evt,'in')"/>
                <use id="zoomminus" xlink:href="#zoomMin" x="42" y="9" onmousedown="handleZoom(evt,'out')"/>
                <use id="reset" xlink:href="#resetDef" x="30" y="36" onmousedown="handleReset()"/>
                <g id="arrowUp" xlink:href="#dirArrow" transform="translate(30 24)" onmousedown="handlePan(0,-1)">
                  <use xlink:href="#rim" fill="#404040">
                        <set attributeName="fill" to="#808080" begin="arrowUp.mouseover" end="arrowUp.mouseout"/>
                  </use>
                  <path fill="none" stroke="white" stroke-width="1.5" d="M0,-3.0v7 M-2.5,-0.5L0,-3.0L2.5,-0.5"/>
                </g>
                <g id="arrowRight" xlink:href="#dirArrow" transform="rotate(90) translate(36 -43)" onmousedown="handlePan(1,0)">
                  <use xlink:href="#rim" fill="#404040">
                        <set attributeName="fill" to="#808080" begin="arrowRight.mouseover" end="arrowRight.mouseout"/>
                  </use>
                  <path fill="none" stroke="white" stroke-width="1.5" d="M0,-3.0v7 M-2.5,-0.5L0,-3.0L2.5,-0.5"/>
                </g>
                <g id="arrowDown" xlink:href="#dirArrow" transform="rotate(180) translate(-30 -48)" onmousedown="handlePan(0,1)">
                  <use xlink:href="#rim" fill="#404040">
                        <set attributeName="fill" to="#808080" begin="arrowDown.mouseover" end="arrowDown.mouseout"/>
                  </use>
                  <path fill="none" stroke="white" stroke-width="1.5" d="M0,-3.0v7 M-2.5,-0.5L0,-3.0L2.5,-0.5"/>
                </g>
                <g id="arrowLeft" xlink:href="#dirArrow" transform="rotate(270) translate(-36 17)" onmousedown="handlePan(-1,0)">
                  <use xlink:href="#rim" fill="#404040">
                        <set attributeName="fill" to="#808080" begin="arrowLeft.mouseover" end="arrowLeft.mouseout"/>
                  </use>
                  <path fill="none" stroke="white" stroke-width="1.5" d="M0,-3.0v7 M-2.5,-0.5L0,-3.0L2.5,-0.5"/>
                </g>
        </g>
        <svg viewBox="0 0 15 15" width="100%" height="30px" preserveAspectRatio="xMaxYMin meet">
         <g id="arrow_out" transform="scale(0.3 0.3)">
          <a xlink:href="quickjs_8c_aed39bc2ad38569d153500dc6ae23cd6c_cgraph_org.svg" target="_base">
           <rect id="button" ry="5" rx="5" y="6" x="6" height="38" width="38"
                fill="#f2f5e9" fill-opacity="0.5" stroke="#606060" stroke-width="1.0"/>
           <path id="arrow"
             d="M 11.500037,31.436501 C 11.940474,20.09759 22.043105,11.32322 32.158766,21.979434 L 37.068811,17.246167 C 37.068811,17.246167 37.088388,32 37.088388,32 L 22.160133,31.978069 C 22.160133,31.978069 26.997745,27.140456 26.997745,27.140456 C 18.528582,18.264221 13.291696,25.230495 11.500037,31.436501 z"
             style="fill:#404040;"/>
          </a>
         </g>
        </svg>
</svg>
