<?xml version="1.0" encoding="UTF-8" standalone="no"?>
<!DOCTYPE svg PUBLIC "-//W3C//DTD SVG 1.1//EN"
 "http://www.w3.org/Graphics/SVG/1.1/DTD/svg11.dtd">
<!-- Generated by graphviz version 2.40.1 (20161225.0304)
 -->
<!-- Title: js_clone_shape Pages: 1 -->
<svg width="1155pt" height="785pt"
 viewBox="0.00 0.00 1155.00 785.02" xmlns="http://www.w3.org/2000/svg" xmlns:xlink="http://www.w3.org/1999/xlink">
<g id="graph0" class="graph" transform="scale(1 1) rotate(0) translate(4 781.0241)">
<title>js_clone_shape</title>
<!-- Node127616 -->
<g id="node1" class="node">
<title>Node127616</title>
<polygon fill="#bfbfbf" stroke="#000000" points="0,-320.5241 0,-339.5241 91,-339.5241 91,-320.5241 0,-320.5241"/>
<text text-anchor="middle" x="45.5" y="-327.5241" font-family="Helvetica,sans-Serif" font-size="10.00" fill="#000000">js_clone_shape</text>
</g>
<!-- Node127617 -->
<g id="node2" class="node">
<title>Node127617</title>
<g id="a_node2"><a xlink:href="quickjs_8c.html#a74547db03bf739a52c83a326b32db997" target="_top" xlink:title="add_property">
<polygon fill="none" stroke="#000000" points="157,-472.5241 157,-491.5241 238,-491.5241 238,-472.5241 157,-472.5241"/>
<text text-anchor="middle" x="197.5" y="-479.5241" font-family="Helvetica,sans-Serif" font-size="10.00" fill="#000000">add_property</text>
</a>
</g>
</g>
<!-- Node127616&#45;&gt;Node127617 -->
<g id="edge1" class="edge">
<title>Node127616&#45;&gt;Node127617</title>
<path fill="none" stroke="#191970" d="M62.293,-346.8171C94.2431,-378.7672 162.8349,-447.359 187.9953,-472.5194"/>
<polygon fill="#191970" stroke="#191970" points="64.5543,-344.1286 55.0083,-339.5324 59.6045,-349.0784 64.5543,-344.1286"/>
</g>
<!-- Node128257 -->
<g id="node22" class="node">
<title>Node128257</title>
<g id="a_node22"><a xlink:href="quickjs_8c.html#a3dd8e78607dbc729614deacf55901b95" target="_top" xlink:title="js_shape_prepare_update">
<polygon fill="none" stroke="#000000" points="127,-168.5241 127,-187.5241 268,-187.5241 268,-168.5241 127,-168.5241"/>
<text text-anchor="middle" x="197.5" y="-175.5241" font-family="Helvetica,sans-Serif" font-size="10.00" fill="#000000">js_shape_prepare_update</text>
</a>
</g>
</g>
<!-- Node127616&#45;&gt;Node128257 -->
<g id="edge40" class="edge">
<title>Node127616&#45;&gt;Node128257</title>
<path fill="none" stroke="#191970" d="M62.293,-313.2311C94.2431,-281.281 162.8349,-212.6892 187.9953,-187.5288"/>
<polygon fill="#191970" stroke="#191970" points="59.6045,-310.9699 55.0083,-320.5158 64.5543,-315.9196 59.6045,-310.9699"/>
</g>
<!-- Node127618 -->
<g id="node3" class="node">
<title>Node127618</title>
<g id="a_node3"><a xlink:href="quickjs_8c.html#ac93c982cb636a5430b191d104083af3e" target="_top" xlink:title="convert_fast_array\l_to_array">
<polygon fill="none" stroke="#000000" points="321,-258.0241 321,-288.0241 429,-288.0241 429,-258.0241 321,-258.0241"/>
<text text-anchor="start" x="329" y="-276.0241" font-family="Helvetica,sans-Serif" font-size="10.00" fill="#000000">convert_fast_array</text>
<text text-anchor="middle" x="375" y="-265.0241" font-family="Helvetica,sans-Serif" font-size="10.00" fill="#000000">_to_array</text>
</a>
</g>
</g>
<!-- Node127617&#45;&gt;Node127618 -->
<g id="edge2" class="edge">
<title>Node127617&#45;&gt;Node127618</title>
<path fill="none" stroke="#191970" d="M206.1443,-462.93C221.8468,-429.8456 257.7521,-361.0907 304,-316.0241 315.4562,-304.8605 330.326,-295.2937 343.4953,-288.0378"/>
<polygon fill="#191970" stroke="#191970" points="202.8101,-461.7995 201.7685,-472.3431 209.1578,-464.7504 202.8101,-461.7995"/>
</g>
<!-- Node127851 -->
<g id="node5" class="node">
<title>Node127851</title>
<g id="a_node5"><a xlink:href="quickjs_8c.html#ad5565bb5cfd5321f181573257f3b0c91" target="_top" xlink:title="JS_CreateProperty">
<polygon fill="none" stroke="#ff0000" points="512,-320.5241 512,-339.5241 616,-339.5241 616,-320.5241 512,-320.5241"/>
<text text-anchor="middle" x="564" y="-327.5241" font-family="Helvetica,sans-Serif" font-size="10.00" fill="#000000">JS_CreateProperty</text>
</a>
</g>
</g>
<!-- Node127617&#45;&gt;Node127851 -->
<g id="edge23" class="edge">
<title>Node127617&#45;&gt;Node127851</title>
<path fill="none" stroke="#191970" d="M206.7945,-463.3526C222.4022,-434.2476 256.859,-378.8327 304,-354.0241 369.3873,-319.6132 456.9148,-319.2926 511.8796,-323.6009"/>
<polygon fill="#191970" stroke="#191970" points="203.5695,-461.9687 202.0701,-472.4569 209.7828,-465.1929 203.5695,-461.9687"/>
</g>
<!-- Node127621 -->
<g id="node7" class="node">
<title>Node127621</title>
<g id="a_node7"><a xlink:href="quickjs_8c.html#ad7f03358a8088ca920ab308225c6b2e6" target="_top" xlink:title="JS_SetPropertyInternal">
<polygon fill="none" stroke="#ff0000" points="883,-326.5241 883,-345.5241 1008,-345.5241 1008,-326.5241 883,-326.5241"/>
<text text-anchor="middle" x="945.5" y="-333.5241" font-family="Helvetica,sans-Serif" font-size="10.00" fill="#000000">JS_SetPropertyInternal</text>
</a>
</g>
</g>
<!-- Node127617&#45;&gt;Node127621 -->
<g id="edge39" class="edge">
<title>Node127617&#45;&gt;Node127621</title>
<path fill="none" stroke="#191970" d="M213.8234,-465.1437C233.3183,-446.174 267.8546,-416.1846 304,-402.0241 317.4134,-396.7692 724.1341,-357.2817 882.8923,-342.0198"/>
<polygon fill="#191970" stroke="#191970" points="211.2688,-462.7482 206.6572,-472.2868 216.2106,-467.706 211.2688,-462.7482"/>
</g>
<!-- Node127638 -->
<g id="node8" class="node">
<title>Node127638</title>
<g id="a_node8"><a xlink:href="quickjs_8c.html#ac2894ff4edcdb4e6841bcce9c76081e3" target="_top" xlink:title="JS_CallInternal">
<polygon fill="none" stroke="#ff0000" points="1060,-453.5241 1060,-472.5241 1147,-472.5241 1147,-453.5241 1060,-453.5241"/>
<text text-anchor="middle" x="1103.5" y="-460.5241" font-family="Helvetica,sans-Serif" font-size="10.00" fill="#000000">JS_CallInternal</text>
</a>
</g>
</g>
<!-- Node127617&#45;&gt;Node127638 -->
<g id="edge22" class="edge">
<title>Node127617&#45;&gt;Node127638</title>
<path fill="none" stroke="#191970" d="M248.5879,-482.0241C319.4107,-482.0241 451.4298,-482.0241 564,-482.0241 564,-482.0241 564,-482.0241 756.5,-482.0241 865.8541,-482.0241 994.3035,-472.4999 1059.9925,-466.9379"/>
<polygon fill="#191970" stroke="#191970" points="248.1756,-478.5242 238.1756,-482.0241 248.1755,-485.5242 248.1756,-478.5242"/>
</g>
<!-- Node127959 -->
<g id="node10" class="node">
<title>Node127959</title>
<g id="a_node10"><a xlink:href="quickjs_8c.html#a04d312757919ff6b4d79cd0c2c3e5bb2" target="_top" xlink:title="js_build_arguments">
<polygon fill="none" stroke="#000000" points="889.5,-434.5241 889.5,-453.5241 1001.5,-453.5241 1001.5,-434.5241 889.5,-434.5241"/>
<text text-anchor="middle" x="945.5" y="-441.5241" font-family="Helvetica,sans-Serif" font-size="10.00" fill="#000000">js_build_arguments</text>
</a>
</g>
</g>
<!-- Node127617&#45;&gt;Node127959 -->
<g id="edge18" class="edge">
<title>Node127617&#45;&gt;Node127959</title>
<path fill="none" stroke="#191970" d="M248.197,-474.3778C265.8232,-471.9806 285.7475,-469.5619 304,-468.0241 519.7263,-449.8494 777.4217,-445.438 889.188,-444.3673"/>
<polygon fill="#191970" stroke="#191970" points="247.5371,-470.9359 238.1145,-475.78 248.5014,-477.8691 247.5371,-470.9359"/>
</g>
<!-- Node128232 -->
<g id="node11" class="node">
<title>Node128232</title>
<g id="a_node11"><a xlink:href="quickjs_8c.html#a6a21784a40b8684f2e779bd460dd13b2" target="_top" xlink:title="JS_AddBrand">
<polygon fill="none" stroke="#000000" points="717.5,-396.5241 717.5,-415.5241 795.5,-415.5241 795.5,-396.5241 717.5,-396.5241"/>
<text text-anchor="middle" x="756.5" y="-403.5241" font-family="Helvetica,sans-Serif" font-size="10.00" fill="#000000">JS_AddBrand</text>
</a>
</g>
</g>
<!-- Node127617&#45;&gt;Node128232 -->
<g id="edge16" class="edge">
<title>Node127617&#45;&gt;Node128232</title>
<path fill="none" stroke="#191970" d="M221.0593,-467.0766C241.9577,-454.6779 273.7733,-437.8583 304,-430.0241 452.6892,-391.4866 637.7904,-397.773 717.268,-402.9267"/>
<polygon fill="#191970" stroke="#191970" points="219.0009,-464.2318 212.2704,-472.4141 222.6345,-470.2149 219.0009,-464.2318"/>
</g>
<!-- Node127935 -->
<g id="node12" class="node">
<title>Node127935</title>
<g id="a_node12"><a xlink:href="quickjs_8c.html#a1c459034f2971c4abc3a8d6d4693ef5f" target="_top" xlink:title="js_build_mapped_arguments">
<polygon fill="none" stroke="#000000" points="867,-548.5241 867,-567.5241 1024,-567.5241 1024,-548.5241 867,-548.5241"/>
<text text-anchor="middle" x="945.5" y="-555.5241" font-family="Helvetica,sans-Serif" font-size="10.00" fill="#000000">js_build_mapped_arguments</text>
</a>
</g>
</g>
<!-- Node127617&#45;&gt;Node127935 -->
<g id="edge19" class="edge">
<title>Node127617&#45;&gt;Node127935</title>
<path fill="none" stroke="#191970" d="M231.6706,-495.1372C252.3299,-502.5896 279.3545,-511.5065 304,-517.0241 503.0202,-561.5802 744.8049,-563.4159 866.8758,-560.8185"/>
<polygon fill="#191970" stroke="#191970" points="232.672,-491.7766 222.0784,-491.6178 230.2608,-498.3482 232.672,-491.7766"/>
</g>
<!-- Node127964 -->
<g id="node13" class="node">
<title>Node127964</title>
<g id="a_node13"><a xlink:href="quickjs_8c.html#ad12b6863ca31850fc39d208bb865420e" target="_top" xlink:title="js_build_module_ns">
<polygon fill="none" stroke="#ff0000" points="507.5,-700.5241 507.5,-719.5241 620.5,-719.5241 620.5,-700.5241 507.5,-700.5241"/>
<text text-anchor="middle" x="564" y="-707.5241" font-family="Helvetica,sans-Serif" font-size="10.00" fill="#000000">js_build_module_ns</text>
</a>
</g>
</g>
<!-- Node127617&#45;&gt;Node127964 -->
<g id="edge21" class="edge">
<title>Node127617&#45;&gt;Node127964</title>
<path fill="none" stroke="#191970" d="M201.2674,-501.7284C210.4443,-543.7438 238.2118,-641.894 304,-686.0241 364.3272,-726.4911 451.0077,-725.6996 507.4094,-719.4465"/>
<polygon fill="#191970" stroke="#191970" points="204.6858,-500.9754 199.2387,-491.8881 197.83,-502.3889 204.6858,-500.9754"/>
</g>
<!-- Node128233 -->
<g id="node14" class="node">
<title>Node128233</title>
<g id="a_node14"><a xlink:href="quickjs_8c.html#a7128998511654840928b9df9d4c55b3c" target="_top" xlink:title="JS_DefineAutoInitProperty">
<polygon fill="none" stroke="#000000" points="304,-738.5241 304,-757.5241 446,-757.5241 446,-738.5241 304,-738.5241"/>
<text text-anchor="middle" x="375" y="-745.5241" font-family="Helvetica,sans-Serif" font-size="10.00" fill="#000000">JS_DefineAutoInitProperty</text>
</a>
</g>
</g>
<!-- Node127617&#45;&gt;Node128233 -->
<g id="edge24" class="edge">
<title>Node127617&#45;&gt;Node128233</title>
<path fill="none" stroke="#191970" d="M200.6607,-501.84C208.9937,-547.628 235.8006,-661.6149 304,-724.0241 310.9113,-730.3486 319.5512,-735.0141 328.4007,-738.4533"/>
<polygon fill="#191970" stroke="#191970" points="204.1079,-501.2341 198.9634,-491.9721 197.2092,-502.4207 204.1079,-501.2341"/>
</g>
<!-- Node128234 -->
<g id="node17" class="node">
<title>Node128234</title>
<g id="a_node17"><a xlink:href="quickjs_8c.html#a4e5684e94183b342edf8cf73f1c23d65" target="_top" xlink:title="JS_DefineGlobalVar">
<polygon fill="none" stroke="#000000" points="890.5,-662.5241 890.5,-681.5241 1000.5,-681.5241 1000.5,-662.5241 890.5,-662.5241"/>
<text text-anchor="middle" x="945.5" y="-669.5241" font-family="Helvetica,sans-Serif" font-size="10.00" fill="#000000">JS_DefineGlobalVar</text>
</a>
</g>
</g>
<!-- Node127617&#45;&gt;Node128234 -->
<g id="edge29" class="edge">
<title>Node127617&#45;&gt;Node128234</title>
<path fill="none" stroke="#191970" d="M202.8877,-501.3844C214.3894,-538.5578 245.2167,-619.2348 304,-653.0241 402.8327,-709.8343 753.5269,-687.9651 890.3036,-676.8995"/>
<polygon fill="#191970" stroke="#191970" points="206.227,-500.334 200.0382,-491.7347 199.5136,-502.3165 206.227,-500.334"/>
</g>
<!-- Node128235 -->
<g id="node18" class="node">
<title>Node128235</title>
<g id="a_node18"><a xlink:href="quickjs_8c.html#a3865abec9986277dbff58ea314f3d82e" target="_top" xlink:title="JS_DefinePrivateField">
<polygon fill="none" stroke="#000000" points="315.5,-624.5241 315.5,-643.5241 434.5,-643.5241 434.5,-624.5241 315.5,-624.5241"/>
<text text-anchor="middle" x="375" y="-631.5241" font-family="Helvetica,sans-Serif" font-size="10.00" fill="#000000">JS_DefinePrivateField</text>
</a>
</g>
</g>
<!-- Node127617&#45;&gt;Node128235 -->
<g id="edge31" class="edge">
<title>Node127617&#45;&gt;Node128235</title>
<path fill="none" stroke="#191970" d="M208.0426,-500.2445C224.9023,-527.8413 260.5026,-580.1766 304,-610.0241 313.012,-616.2081 323.7542,-620.9178 334.1208,-624.455"/>
<polygon fill="#191970" stroke="#191970" points="211.009,-498.3853 202.8785,-491.5923 204.9982,-501.9729 211.009,-498.3853"/>
</g>
<!-- Node128236 -->
<g id="node19" class="node">
<title>Node128236</title>
<g id="a_node19"><a xlink:href="quickjs_8c.html#a030c2e98b1775a7e3bdd13be1400b1fe" target="_top" xlink:title="JS_NewObjectFromShape">
<polygon fill="none" stroke="#000000" points="495,-510.5241 495,-529.5241 633,-529.5241 633,-510.5241 495,-510.5241"/>
<text text-anchor="middle" x="564" y="-517.5241" font-family="Helvetica,sans-Serif" font-size="10.00" fill="#000000">JS_NewObjectFromShape</text>
</a>
</g>
</g>
<!-- Node127617&#45;&gt;Node128236 -->
<g id="edge33" class="edge">
<title>Node127617&#45;&gt;Node128236</title>
<path fill="none" stroke="#191970" d="M248.2526,-489.1027C265.8834,-491.4536 285.7963,-493.9882 304,-496.0241 368.6466,-503.2541 442.5137,-509.9197 494.9514,-514.3819"/>
<polygon fill="#191970" stroke="#191970" points="248.5434,-485.6104 238.1658,-487.745 247.6095,-492.5478 248.5434,-485.6104"/>
</g>
<!-- Node127619 -->
<g id="node4" class="node">
<title>Node127619</title>
<g id="a_node4"><a xlink:href="quickjs_8c.html#a2b9a2014cb970af5b5b7dde00afbdffa" target="_top" xlink:title="delete_property">
<polygon fill="none" stroke="#ff0000" points="517,-206.5241 517,-225.5241 611,-225.5241 611,-206.5241 517,-206.5241"/>
<text text-anchor="middle" x="564" y="-213.5241" font-family="Helvetica,sans-Serif" font-size="10.00" fill="#000000">delete_property</text>
</a>
</g>
</g>
<!-- Node127618&#45;&gt;Node127619 -->
<g id="edge3" class="edge">
<title>Node127618&#45;&gt;Node127619</title>
<path fill="none" stroke="#191970" d="M432.8666,-255.0105C448.7767,-250.1032 466.043,-244.8197 482,-240.0241 498.0524,-235.1999 515.9104,-229.9584 530.8523,-225.608"/>
<polygon fill="#191970" stroke="#191970" points="431.6807,-251.7136 423.1594,-258.0095 433.747,-258.4016 431.6807,-251.7136"/>
</g>
<!-- Node127618&#45;&gt;Node127851 -->
<g id="edge4" class="edge">
<title>Node127618&#45;&gt;Node127851</title>
<path fill="none" stroke="#191970" d="M432.8666,-291.0378C448.7767,-295.945 466.043,-301.2286 482,-306.0241 498.0524,-310.8484 515.9104,-316.0898 530.8523,-320.4403"/>
<polygon fill="#191970" stroke="#191970" points="433.747,-287.6466 423.1594,-288.0387 431.6807,-294.3347 433.747,-287.6466"/>
</g>
<!-- Node127852 -->
<g id="node6" class="node">
<title>Node127852</title>
<g id="a_node6"><a xlink:href="quickjs_8c.html#ab50618f1bf78e444caa6da0e3e2785d7" target="_top" xlink:title="JS_DefineProperty">
<polygon fill="none" stroke="#ff0000" points="704.5,-244.5241 704.5,-263.5241 808.5,-263.5241 808.5,-244.5241 704.5,-244.5241"/>
<text text-anchor="middle" x="756.5" y="-251.5241" font-family="Helvetica,sans-Serif" font-size="10.00" fill="#000000">JS_DefineProperty</text>
</a>
</g>
</g>
<!-- Node127618&#45;&gt;Node127852 -->
<g id="edge14" class="edge">
<title>Node127618&#45;&gt;Node127852</title>
<path fill="none" stroke="#191970" d="M439.4549,-269.814C514.0167,-266.1006 635.3338,-260.0586 704.2695,-256.6254"/>
<polygon fill="#191970" stroke="#191970" points="439.068,-266.3289 429.2545,-270.3221 439.4162,-273.3202 439.068,-266.3289"/>
</g>
<!-- Node127991 -->
<g id="node9" class="node">
<title>Node127991</title>
<g id="a_node9"><a xlink:href="quickjs_8c.html#a9105ee38f5a557a7922fe6cfee0f9bb2" target="_top" xlink:title="js_arguments_define\l_own_property">
<polygon fill="none" stroke="#000000" points="886.5,-277.0241 886.5,-307.0241 1004.5,-307.0241 1004.5,-277.0241 886.5,-277.0241"/>
<text text-anchor="start" x="894.5" y="-295.0241" font-family="Helvetica,sans-Serif" font-size="10.00" fill="#000000">js_arguments_define</text>
<text text-anchor="middle" x="945.5" y="-284.0241" font-family="Helvetica,sans-Serif" font-size="10.00" fill="#000000">_own_property</text>
</a>
</g>
</g>
<!-- Node127618&#45;&gt;Node127991 -->
<g id="edge15" class="edge">
<title>Node127618&#45;&gt;Node127991</title>
<path fill="none" stroke="#191970" d="M439.2551,-275.4786C453.339,-276.0019 468.1717,-276.5419 482,-277.0241 627.2339,-282.0888 798.0874,-287.4685 886.2321,-290.2012"/>
<polygon fill="#191970" stroke="#191970" points="439.2808,-271.9772 429.1571,-275.1015 439.0195,-278.9723 439.2808,-271.9772"/>
</g>
<!-- Node127851&#45;&gt;Node127852 -->
<g id="edge5" class="edge">
<title>Node127851&#45;&gt;Node127852</title>
<path fill="none" stroke="#191970" d="M598.1218,-316.5527C636.67,-301.3336 698.4352,-276.9484 732.3177,-263.5714"/>
<polygon fill="#191970" stroke="#191970" points="596.3963,-313.4709 588.3803,-320.3987 598.9669,-319.9819 596.3963,-313.4709"/>
</g>
<!-- Node127851&#45;&gt;Node127621 -->
<g id="edge13" class="edge">
<title>Node127851&#45;&gt;Node127621</title>
<path fill="none" stroke="#191970" d="M626.3577,-331.0048C697.1272,-332.1179 811.9045,-333.923 882.811,-335.0382"/>
<polygon fill="#191970" stroke="#191970" points="626.2999,-327.5036 616.246,-330.8458 626.1897,-334.5027 626.2999,-327.5036"/>
</g>
<!-- Node127852&#45;&gt;Node127621 -->
<g id="edge6" class="edge">
<title>Node127852&#45;&gt;Node127621</title>
<path fill="none" stroke="#191970" d="M778.9926,-269.3657C800.6791,-283.5362 834.852,-304.265 867,-317.0241 876.3838,-320.7484 886.6987,-323.8807 896.6786,-326.4595"/>
<polygon fill="#191970" stroke="#191970" points="780.7734,-266.347 770.5052,-263.7365 776.9043,-272.1806 780.7734,-266.347"/>
</g>
<!-- Node127852&#45;&gt;Node127638 -->
<g id="edge12" class="edge">
<title>Node127852&#45;&gt;Node127638</title>
<path fill="none" stroke="#191970" d="M803.7293,-242.4342C861.3543,-231.2048 959.1018,-221.8901 1024,-268.0241 1088.0654,-313.5661 1100.5953,-420.1526 1102.9655,-453.1254"/>
<polygon fill="#191970" stroke="#191970" points="802.8948,-239.0323 793.7994,-244.466 804.2981,-245.8902 802.8948,-239.0323"/>
</g>
<!-- Node127852&#45;&gt;Node127991 -->
<g id="edge9" class="edge">
<title>Node127852&#45;&gt;Node127991</title>
<path fill="none" stroke="#191970" d="M814.1029,-265.6057C836.9814,-270.2056 863.2827,-275.4936 886.3149,-280.1245"/>
<polygon fill="#191970" stroke="#191970" points="814.6864,-262.153 804.1927,-263.6131 813.3066,-269.0157 814.6864,-262.153"/>
</g>
<!-- Node127852&#45;&gt;Node127959 -->
<g id="edge10" class="edge">
<title>Node127852&#45;&gt;Node127959</title>
<path fill="none" stroke="#191970" d="M773.4891,-271.1031C812.0444,-309.8624 905.1763,-403.4871 935.6604,-434.1324"/>
<polygon fill="#191970" stroke="#191970" points="775.6662,-268.3288 766.1324,-263.7075 770.7034,-273.2655 775.6662,-268.3288"/>
</g>
<!-- Node127621&#45;&gt;Node127638 -->
<g id="edge7" class="edge">
<title>Node127621&#45;&gt;Node127638</title>
<path fill="none" stroke="#191970" d="M968.6816,-351.5723C984.5744,-362.4693 1005.9631,-377.6072 1024,-392.0241 1050.0189,-412.821 1078.7523,-439.4736 1093.5196,-453.4656"/>
<polygon fill="#191970" stroke="#191970" points="970.263,-348.415 960.0262,-345.684 966.3256,-354.2027 970.263,-348.415"/>
</g>
<!-- Node127638&#45;&gt;Node127638 -->
<g id="edge8" class="edge">
<title>Node127638&#45;&gt;Node127638</title>
<path fill="none" stroke="#191970" d="M1074.0076,-481.6781C1075.2404,-486.9609 1085.0712,-491.0241 1103.5,-491.0241 1131.582,-491.0241 1139.6995,-481.5894 1127.8524,-472.7812"/>
<polygon fill="#191970" stroke="#191970" points="1077.1757,-483.1909 1079.1476,-472.7812 1071.1145,-479.6891 1077.1757,-483.1909"/>
</g>
<!-- Node127959&#45;&gt;Node127638 -->
<g id="edge11" class="edge">
<title>Node127959&#45;&gt;Node127638</title>
<path fill="none" stroke="#191970" d="M1011.6767,-451.9821C1027.9773,-453.9423 1045.0262,-455.9925 1059.9468,-457.7867"/>
<polygon fill="#191970" stroke="#191970" points="1011.9961,-448.4954 1001.6498,-450.7763 1011.1603,-455.4453 1011.9961,-448.4954"/>
</g>
<!-- Node128232&#45;&gt;Node127638 -->
<g id="edge17" class="edge">
<title>Node128232&#45;&gt;Node127638</title>
<path fill="none" stroke="#191970" d="M805.8427,-404.0764C860.2104,-403.1788 949.7864,-405.4091 1024,-425.0241 1047.5159,-431.2395 1072.4884,-444.393 1088.0366,-453.4685"/>
<polygon fill="#191970" stroke="#191970" points="805.7084,-400.5784 795.7831,-404.2851 805.8536,-407.5768 805.7084,-400.5784"/>
</g>
<!-- Node127935&#45;&gt;Node127638 -->
<g id="edge20" class="edge">
<title>Node127935&#45;&gt;Node127638</title>
<path fill="none" stroke="#191970" d="M1010.5988,-545.1671C1015.2449,-543.3765 1019.7627,-541.34 1024,-539.0241 1055.4996,-521.8083 1083.6091,-488.8909 1096.3197,-472.6182"/>
<polygon fill="#191970" stroke="#191970" points="1009.239,-541.9338 1000.9303,-548.5077 1011.5251,-548.5501 1009.239,-541.9338"/>
</g>
<!-- Node128233&#45;&gt;Node127964 -->
<g id="edge27" class="edge">
<title>Node128233&#45;&gt;Node127964</title>
<path fill="none" stroke="#191970" d="M432.742,-736.4146C459.6222,-731.0101 491.2028,-724.6606 516.6503,-719.5442"/>
<polygon fill="#191970" stroke="#191970" points="431.8066,-733.0326 422.6927,-738.4351 433.1864,-739.8952 431.8066,-733.0326"/>
</g>
<!-- Node127881 -->
<g id="node15" class="node">
<title>Node127881</title>
<g id="a_node15"><a xlink:href="quickjs_8c.html#aab4130a4c3108a127681be821818528a" target="_top" xlink:title="js_closure">
<polygon fill="none" stroke="#ff0000" points="724,-757.5241 724,-776.5241 789,-776.5241 789,-757.5241 724,-757.5241"/>
<text text-anchor="middle" x="756.5" y="-764.5241" font-family="Helvetica,sans-Serif" font-size="10.00" fill="#000000">js_closure</text>
</a>
</g>
</g>
<!-- Node128233&#45;&gt;Node127881 -->
<g id="edge25" class="edge">
<title>Node128233&#45;&gt;Node127881</title>
<path fill="none" stroke="#191970" d="M428.7754,-759.4758C445.7226,-762.5715 464.5684,-765.4885 482,-767.0241 569.1118,-774.6983 672.3782,-771.3708 723.8822,-768.8706"/>
<polygon fill="#191970" stroke="#191970" points="428.9741,-755.9515 418.4984,-757.5359 427.6757,-762.8301 428.9741,-755.9515"/>
</g>
<!-- Node127861 -->
<g id="node16" class="node">
<title>Node127861</title>
<g id="a_node16"><a xlink:href="quickjs_8c.html#a6ee4e2edda1f223a5a40e2c48b41d618" target="_top" xlink:title="JS_InstantiateFunctionListItem">
<polygon fill="none" stroke="#ff0000" points="482,-738.5241 482,-757.5241 646,-757.5241 646,-738.5241 482,-738.5241"/>
<text text-anchor="middle" x="564" y="-745.5241" font-family="Helvetica,sans-Serif" font-size="10.00" fill="#000000">JS_InstantiateFunctionListItem</text>
</a>
</g>
</g>
<!-- Node128233&#45;&gt;Node127861 -->
<g id="edge28" class="edge">
<title>Node128233&#45;&gt;Node127861</title>
<path fill="none" stroke="#191970" d="M456.3631,-748.0241C464.7814,-748.0241 473.3415,-748.0241 481.7692,-748.0241"/>
<polygon fill="#191970" stroke="#191970" points="456.1835,-744.5242 446.1835,-748.0241 456.1834,-751.5242 456.1835,-744.5242"/>
</g>
<!-- Node127881&#45;&gt;Node127638 -->
<g id="edge26" class="edge">
<title>Node127881&#45;&gt;Node127638</title>
<path fill="none" stroke="#191970" d="M799.4535,-766.5267C857.7704,-763.5362 961.8338,-749.6451 1024,-691.0241 1090.1833,-628.615 1101.2877,-508.186 1103.135,-472.9413"/>
<polygon fill="#191970" stroke="#191970" points="798.9593,-763.0444 789.1172,-766.9665 799.257,-770.0381 798.9593,-763.0444"/>
</g>
<!-- Node128234&#45;&gt;Node127638 -->
<g id="edge30" class="edge">
<title>Node128234&#45;&gt;Node127638</title>
<path fill="none" stroke="#191970" d="M1008.2461,-658.5123C1013.9553,-655.6603 1019.3341,-652.2066 1024,-648.0241 1079.4456,-598.3232 1097.6622,-503.2567 1102.2175,-472.7225"/>
<polygon fill="#191970" stroke="#191970" points="1006.8264,-655.313 999.0575,-662.5168 1009.6231,-661.7301 1006.8264,-655.313"/>
</g>
<!-- Node128235&#45;&gt;Node127638 -->
<g id="edge32" class="edge">
<title>Node128235&#45;&gt;Node127638</title>
<path fill="none" stroke="#191970" d="M444.9262,-635.2109C591.8582,-636.5407 927.0895,-633.1205 1024,-577.0241 1066.1832,-552.6065 1091.2943,-495.7443 1100.0111,-472.842"/>
<polygon fill="#191970" stroke="#191970" points="444.7132,-631.7086 434.6784,-635.1076 444.6426,-638.7083 444.7132,-631.7086"/>
</g>
<!-- Node128237 -->
<g id="node20" class="node">
<title>Node128237</title>
<g id="a_node20"><a xlink:href="quickjs_8c.html#a73738c650f11459db0d7af3dcdf8316b" target="_top" xlink:title="JS_NewObjectProtoClass">
<polygon fill="none" stroke="#ff0000" points="688.5,-510.5241 688.5,-529.5241 824.5,-529.5241 824.5,-510.5241 688.5,-510.5241"/>
<text text-anchor="middle" x="756.5" y="-517.5241" font-family="Helvetica,sans-Serif" font-size="10.00" fill="#000000">JS_NewObjectProtoClass</text>
</a>
</g>
</g>
<!-- Node128236&#45;&gt;Node128237 -->
<g id="edge34" class="edge">
<title>Node128236&#45;&gt;Node128237</title>
<path fill="none" stroke="#191970" d="M643.4145,-520.0241C658.2869,-520.0241 673.7127,-520.0241 688.2115,-520.0241"/>
<polygon fill="#191970" stroke="#191970" points="643.225,-516.5242 633.225,-520.0241 643.2249,-523.5242 643.225,-516.5242"/>
</g>
<!-- Node128254 -->
<g id="node21" class="node">
<title>Node128254</title>
<g id="a_node21"><a xlink:href="quickjs_8c.html#ad4ba09e4c7ab9f28c144182e1aacf1f6" target="_top" xlink:title="JS_NewArray">
<polygon fill="none" stroke="#ff0000" points="906,-510.5241 906,-529.5241 985,-529.5241 985,-510.5241 906,-510.5241"/>
<text text-anchor="middle" x="945.5" y="-517.5241" font-family="Helvetica,sans-Serif" font-size="10.00" fill="#000000">JS_NewArray</text>
</a>
</g>
</g>
<!-- Node128236&#45;&gt;Node128254 -->
<g id="edge37" class="edge">
<title>Node128236&#45;&gt;Node128254</title>
<path fill="none" stroke="#191970" d="M622.0327,-531.2577C641.0625,-534.4345 662.3632,-537.4533 682,-539.0241 748.0114,-544.3046 765.0015,-544.4628 831,-539.0241 856.1028,-536.9555 883.9901,-532.3771 905.9576,-528.233"/>
<polygon fill="#191970" stroke="#191970" points="622.4635,-527.7805 612.0153,-529.5371 621.2784,-534.6795 622.4635,-527.7805"/>
</g>
<!-- Node128237&#45;&gt;Node127959 -->
<g id="edge35" class="edge">
<title>Node128237&#45;&gt;Node127959</title>
<path fill="none" stroke="#191970" d="M790.0014,-506.5527C827.8488,-491.3336 888.4909,-466.9484 921.7574,-453.5714"/>
<polygon fill="#191970" stroke="#191970" points="788.4092,-503.4205 780.437,-510.3987 791.0208,-509.9151 788.4092,-503.4205"/>
</g>
<!-- Node128237&#45;&gt;Node127935 -->
<g id="edge36" class="edge">
<title>Node128237&#45;&gt;Node127935</title>
<path fill="none" stroke="#191970" d="M814.242,-531.6336C841.1222,-537.0381 872.7028,-543.3876 898.1503,-548.5041"/>
<polygon fill="#191970" stroke="#191970" points="814.6864,-528.153 804.1927,-529.6131 813.3066,-535.0157 814.6864,-528.153"/>
</g>
<!-- Node128254&#45;&gt;Node127638 -->
<g id="edge38" class="edge">
<title>Node128254&#45;&gt;Node127638</title>
<path fill="none" stroke="#191970" d="M989.1273,-507.5054C1000.548,-504.0052 1012.7976,-500.051 1024,-496.0241 1043.9694,-488.8459 1066.2457,-479.4776 1082.1255,-472.5575"/>
<polygon fill="#191970" stroke="#191970" points="987.9142,-504.2155 979.3515,-510.4549 989.9363,-510.9171 987.9142,-504.2155"/>
</g>
<!-- Node128257&#45;&gt;Node127618 -->
<g id="edge41" class="edge">
<title>Node128257&#45;&gt;Node127618</title>
<path fill="none" stroke="#191970" d="M224.5798,-192.5176C257.6244,-210.2034 313.2269,-239.9625 346.7804,-257.9206"/>
<polygon fill="#191970" stroke="#191970" points="225.9647,-189.289 215.4965,-187.656 222.6615,-195.4607 225.9647,-189.289"/>
</g>
<!-- Node128257&#45;&gt;Node127619 -->
<g id="edge42" class="edge">
<title>Node128257&#45;&gt;Node127619</title>
<path fill="none" stroke="#191970" d="M276.7071,-188.7809C285.903,-189.9275 295.1533,-191.0347 304,-192.0241 378.3324,-200.3374 464.855,-207.9044 516.9747,-212.2337"/>
<polygon fill="#191970" stroke="#191970" points="277.1317,-185.3068 266.7716,-187.5249 276.2537,-192.2515 277.1317,-185.3068"/>
</g>
<!-- Node128257&#45;&gt;Node127852 -->
<g id="edge49" class="edge">
<title>Node128257&#45;&gt;Node127852</title>
<path fill="none" stroke="#191970" d="M278.2943,-171.1286C369.3153,-165.7149 520.8791,-163.8347 646,-197.0241 683.3473,-206.9308 722.491,-230.8513 742.6595,-244.3447"/>
<polygon fill="#191970" stroke="#191970" points="277.8078,-167.6521 268.0454,-171.7685 278.2441,-174.6385 277.8078,-167.6521"/>
</g>
<!-- Node128258 -->
<g id="node23" class="node">
<title>Node128258</title>
<g id="a_node23"><a xlink:href="quickjs_8c.html#a8aac7988cf0c6f3c2b629a6662fd7ec8" target="_top" xlink:title="JS_AutoInitProperty">
<polygon fill="none" stroke="#000000" points="509,-54.5241 509,-73.5241 619,-73.5241 619,-54.5241 509,-54.5241"/>
<text text-anchor="middle" x="564" y="-61.5241" font-family="Helvetica,sans-Serif" font-size="10.00" fill="#000000">JS_AutoInitProperty</text>
</a>
</g>
</g>
<!-- Node128257&#45;&gt;Node128258 -->
<g id="edge43" class="edge">
<title>Node128257&#45;&gt;Node128258</title>
<path fill="none" stroke="#191970" d="M217.0185,-162.1805C237.4535,-146.4398 271.0929,-122.8512 304,-110.0241 371.5884,-83.6784 454.9684,-72.3268 508.789,-67.4991"/>
<polygon fill="#191970" stroke="#191970" points="214.8124,-159.4627 209.1097,-168.3918 219.136,-164.9678 214.8124,-159.4627"/>
</g>
<!-- Node128216 -->
<g id="node26" class="node">
<title>Node128216</title>
<g id="a_node26"><a xlink:href="quickjs_8c.html#a11b9662411b5b3f631925a0ca708ce25" target="_top" xlink:title="JS_SetPrototypeInternal">
<polygon fill="none" stroke="#ff0000" points="309.5,-23.5241 309.5,-42.5241 440.5,-42.5241 440.5,-23.5241 309.5,-23.5241"/>
<text text-anchor="middle" x="375" y="-30.5241" font-family="Helvetica,sans-Serif" font-size="10.00" fill="#000000">JS_SetPrototypeInternal</text>
</a>
</g>
</g>
<!-- Node128257&#45;&gt;Node128216 -->
<g id="edge50" class="edge">
<title>Node128257&#45;&gt;Node128216</title>
<path fill="none" stroke="#191970" d="M211.7121,-160.531C230.9102,-137.6774 267.0053,-97.3617 304,-70.0241 319.0913,-58.8722 338.0105,-49.1927 352.5236,-42.5339"/>
<polygon fill="#191970" stroke="#191970" points="208.9007,-158.4384 205.215,-168.3714 214.2906,-162.9048 208.9007,-158.4384"/>
</g>
<!-- Node128259 -->
<g id="node27" class="node">
<title>Node128259</title>
<g id="a_node27"><a xlink:href="quickjs_8c.html#a6d48937f79966a773376cc24834c663f" target="_top" xlink:title="js_update_property\l_flags">
<polygon fill="none" stroke="#000000" points="320,-119.0241 320,-149.0241 430,-149.0241 430,-119.0241 320,-119.0241"/>
<text text-anchor="start" x="328" y="-137.0241" font-family="Helvetica,sans-Serif" font-size="10.00" fill="#000000">js_update_property</text>
<text text-anchor="middle" x="375" y="-126.0241" font-family="Helvetica,sans-Serif" font-size="10.00" fill="#000000">_flags</text>
</a>
</g>
</g>
<!-- Node128257&#45;&gt;Node128259 -->
<g id="edge52" class="edge">
<title>Node128257&#45;&gt;Node128259</title>
<path fill="none" stroke="#191970" d="M245.8301,-166.0437C268.6717,-160.3816 296.0556,-153.5934 319.7198,-147.7274"/>
<polygon fill="#191970" stroke="#191970" points="244.8789,-162.6735 236.0149,-168.4768 246.5632,-169.4678 244.8789,-162.6735"/>
</g>
<!-- Node128258&#45;&gt;Node127852 -->
<g id="edge48" class="edge">
<title>Node128258&#45;&gt;Node127852</title>
<path fill="none" stroke="#191970" d="M628.7764,-71.8497C635.1162,-74.6354 641.0286,-78.2785 646,-83.0241 688.747,-123.8291 645.7324,-164.3657 682,-211.0241 694.0978,-226.5879 713.527,-237.534 729.5106,-244.4863"/>
<polygon fill="#191970" stroke="#191970" points="629.8355,-68.5102 619.2418,-68.3534 627.4255,-75.0823 629.8355,-68.5102"/>
</g>
<!-- Node128258&#45;&gt;Node127621 -->
<g id="edge47" class="edge">
<title>Node128258&#45;&gt;Node127621</title>
<path fill="none" stroke="#191970" d="M628.7936,-73.8781C634.9037,-76.3004 640.7616,-79.3034 646,-83.0241 670.4282,-100.3747 660.8584,-118.7918 682,-140.0241 737.4152,-195.6771 779.8995,-175.3849 831,-235.0241 856.8973,-265.2487 836.4884,-291.4656 867,-317.0241 871.7296,-320.9859 877.1523,-324.1471 882.8903,-326.6659"/>
<polygon fill="#191970" stroke="#191970" points="629.632,-70.4655 619.0373,-70.5302 627.3599,-77.0866 629.632,-70.4655"/>
</g>
<!-- Node127761 -->
<g id="node24" class="node">
<title>Node127761</title>
<g id="a_node24"><a xlink:href="quickjs_8c.html#a5762c57ae0c9937e986040c01222833a" target="_top" xlink:title="JS_GetPropertyInternal">
<polygon fill="none" stroke="#ff0000" points="693,-111.5241 693,-130.5241 820,-130.5241 820,-111.5241 693,-111.5241"/>
<text text-anchor="middle" x="756.5" y="-118.5241" font-family="Helvetica,sans-Serif" font-size="10.00" fill="#000000">JS_GetPropertyInternal</text>
</a>
</g>
</g>
<!-- Node128258&#45;&gt;Node127761 -->
<g id="edge44" class="edge">
<title>Node128258&#45;&gt;Node127761</title>
<path fill="none" stroke="#191970" d="M618.7112,-75.87C627.8645,-78.0893 637.232,-80.508 646,-83.0241 675.6395,-91.5296 709.0377,-103.3313 731.282,-111.5165"/>
<polygon fill="#191970" stroke="#191970" points="619.4391,-72.4456 608.9015,-73.545 617.8248,-79.257 619.4391,-72.4456"/>
</g>
<!-- Node127773 -->
<g id="node25" class="node">
<title>Node127773</title>
<g id="a_node25"><a xlink:href="quickjs_8c.html#ad13892c0a0f11781b566808876658099" target="_top" xlink:title="JS_GetOwnPropertyInternal">
<polygon fill="none" stroke="#ff0000" points="682,-54.5241 682,-73.5241 831,-73.5241 831,-54.5241 682,-54.5241"/>
<text text-anchor="middle" x="756.5" y="-61.5241" font-family="Helvetica,sans-Serif" font-size="10.00" fill="#000000">JS_GetOwnPropertyInternal</text>
</a>
</g>
</g>
<!-- Node128258&#45;&gt;Node127773 -->
<g id="edge46" class="edge">
<title>Node128258&#45;&gt;Node127773</title>
<path fill="none" stroke="#191970" d="M629.4705,-64.0241C646.3529,-64.0241 664.6472,-64.0241 681.954,-64.0241"/>
<polygon fill="#191970" stroke="#191970" points="629.1628,-60.5242 619.1628,-64.0241 629.1627,-67.5242 629.1628,-60.5242"/>
</g>
<!-- Node127761&#45;&gt;Node127638 -->
<g id="edge45" class="edge">
<title>Node127761&#45;&gt;Node127638</title>
<path fill="none" stroke="#191970" d="M830.0373,-132.2095C890.5023,-145.2259 974.077,-172.6332 1024,-229.0241 1085.7158,-298.7358 1099.9265,-418.3983 1102.8239,-453.2401"/>
<polygon fill="#191970" stroke="#191970" points="830.6654,-128.7654 820.1636,-130.1669 829.2472,-135.6202 830.6654,-128.7654"/>
</g>
<!-- Node128216&#45;&gt;Node127638 -->
<g id="edge51" class="edge">
<title>Node128216&#45;&gt;Node127638</title>
<path fill="none" stroke="#191970" d="M427.719,-21.5985C554.7396,2.4531 877.981,42.2373 1024,-138.0241 1065.4984,-189.2541 1095.9104,-405.1687 1102.2682,-453.4294"/>
<polygon fill="#191970" stroke="#191970" points="426.99,-18.1745 417.8385,-23.5132 428.3218,-25.0467 426.99,-18.1745"/>
</g>
<!-- Node128259&#45;&gt;Node127852 -->
<g id="edge53" class="edge">
<title>Node128259&#45;&gt;Node127852</title>
<path fill="none" stroke="#191970" d="M440.3402,-127.4175C498.1172,-124.6552 582.8017,-128.3655 646,-164.0241 668.9163,-176.9543 662.2236,-193.6678 682,-211.0241 698.0506,-225.1106 719.4157,-236.877 735.1498,-244.5199"/>
<polygon fill="#191970" stroke="#191970" points="440.0248,-123.9295 430.2346,-127.9795 440.4136,-130.9187 440.0248,-123.9295"/>
</g>
<!-- Node128260 -->
<g id="node28" class="node">
<title>Node128260</title>
<g id="a_node28"><a xlink:href="quickjs_8c.html#a0f23e03f0a367d4b5559a14efbb1f4ee" target="_top" xlink:title="seal_template_obj">
<polygon fill="none" stroke="#ff0000" points="510.5,-92.5241 510.5,-111.5241 617.5,-111.5241 617.5,-92.5241 510.5,-92.5241"/>
<text text-anchor="middle" x="564" y="-99.5241" font-family="Helvetica,sans-Serif" font-size="10.00" fill="#000000">seal_template_obj</text>
</a>
</g>
</g>
<!-- Node128259&#45;&gt;Node128260 -->
<g id="edge54" class="edge">
<title>Node128259&#45;&gt;Node128260</title>
<path fill="none" stroke="#191970" d="M440.158,-122.9921C463.0685,-119.113 488.5335,-114.8015 510.3852,-111.1018"/>
<polygon fill="#191970" stroke="#191970" points="439.4501,-119.562 430.1747,-124.6824 440.6187,-126.4638 439.4501,-119.562"/>
</g>
</g>
</svg>
