<?xml version="1.0" encoding="UTF-8" standalone="no"?>
<!DOCTYPE svg PUBLIC "-//W3C//DTD SVG 1.1//EN"
 "http://www.w3.org/Graphics/SVG/1.1/DTD/svg11.dtd">
<!-- Generated by graphviz version 2.40.1 (20161225.0304)
 -->
<!-- Title: JS_DefinePropertyValueUint32 Pages: 1 -->
<svg width="793pt" height="161pt"
 viewBox="0.00 0.00 793.00 161.00" xmlns="http://www.w3.org/2000/svg" xmlns:xlink="http://www.w3.org/1999/xlink">
<g id="graph0" class="graph" transform="scale(1 1) rotate(0) translate(4 157)">
<title>JS_DefinePropertyValueUint32</title>
<!-- Node76141 -->
<g id="node1" class="node">
<title>Node76141</title>
<polygon fill="#bfbfbf" stroke="#000000" points="0,-19.5 0,-38.5 163,-38.5 163,-19.5 0,-19.5"/>
<text text-anchor="middle" x="81.5" y="-26.5" font-family="Helvetica,sans-Serif" font-size="10.00" fill="#000000">JS_DefinePropertyValueUint32</text>
</g>
<!-- Node76142 -->
<g id="node2" class="node">
<title>Node76142</title>
<g id="a_node2"><a xlink:href="quickjs_8c.html#a0c61bd5a64c743e81188bb528b78e715" target="_top" xlink:title="JS_DefinePropertyValueValue">
<polygon fill="none" stroke="#000000" points="199,-57.5 199,-76.5 357,-76.5 357,-57.5 199,-57.5"/>
<text text-anchor="middle" x="278" y="-64.5" font-family="Helvetica,sans-Serif" font-size="10.00" fill="#000000">JS_DefinePropertyValueValue</text>
</a>
</g>
</g>
<!-- Node76141&#45;&gt;Node76142 -->
<g id="edge1" class="edge">
<title>Node76141&#45;&gt;Node76142</title>
<path fill="none" stroke="#191970" d="M130.8316,-38.54C157.4607,-43.6896 190.5266,-50.084 218.5663,-55.5065"/>
<polygon fill="#191970" stroke="#191970" points="218.1654,-58.9937 228.6481,-57.4561 219.4946,-52.121 218.1654,-58.9937"/>
</g>
<!-- Node76292 -->
<g id="node6" class="node">
<title>Node76292</title>
<g id="a_node6"><a xlink:href="quickjs_8h.html#a88259aa0da61ac754402c64ccecee116" target="_top" xlink:title="JS_NewUint32">
<polygon fill="none" stroke="#ff0000" points="700,-.5 700,-19.5 785,-19.5 785,-.5 700,-.5"/>
<text text-anchor="middle" x="742.5" y="-7.5" font-family="Helvetica,sans-Serif" font-size="10.00" fill="#000000">JS_NewUint32</text>
</a>
</g>
</g>
<!-- Node76141&#45;&gt;Node76292 -->
<g id="edge10" class="edge">
<title>Node76141&#45;&gt;Node76292</title>
<path fill="none" stroke="#191970" d="M163.0926,-22.66C225.8954,-18.1107 314.8811,-12.3802 393,-10 498.2798,-6.7922 621.4812,-7.9347 689.8925,-9.0027"/>
<polygon fill="#191970" stroke="#191970" points="689.9298,-12.5037 699.9852,-9.166 690.0431,-5.5046 689.9298,-12.5037"/>
</g>
<!-- Node76143 -->
<g id="node3" class="node">
<title>Node76143</title>
<g id="a_node3"><a xlink:href="quickjs_8c.html#a0a8765bd4012467d9139bc24aabcb3ca" target="_top" xlink:title="JS_DefinePropertyValue">
<polygon fill="none" stroke="#000000" points="393,-57.5 393,-76.5 524,-76.5 524,-57.5 393,-57.5"/>
<text text-anchor="middle" x="458.5" y="-64.5" font-family="Helvetica,sans-Serif" font-size="10.00" fill="#000000">JS_DefinePropertyValue</text>
</a>
</g>
</g>
<!-- Node76142&#45;&gt;Node76143 -->
<g id="edge2" class="edge">
<title>Node76142&#45;&gt;Node76143</title>
<path fill="none" stroke="#191970" d="M357.1699,-67C365.655,-67 374.2728,-67 382.717,-67"/>
<polygon fill="#191970" stroke="#191970" points="382.9106,-70.5001 392.9106,-67 382.9105,-63.5001 382.9106,-70.5001"/>
</g>
<!-- Node76172 -->
<g id="node5" class="node">
<title>Node76172</title>
<g id="a_node5"><a xlink:href="quickjs_8h.html#afaa20c47565bc704c6c85f3d77254e7d" target="_top" xlink:title="JS_FreeValue">
<polygon fill="none" stroke="#ff0000" points="703.5,-57.5 703.5,-76.5 781.5,-76.5 781.5,-57.5 703.5,-57.5"/>
<text text-anchor="middle" x="742.5" y="-64.5" font-family="Helvetica,sans-Serif" font-size="10.00" fill="#000000">JS_FreeValue</text>
</a>
</g>
</g>
<!-- Node76142&#45;&gt;Node76172 -->
<g id="edge8" class="edge">
<title>Node76142&#45;&gt;Node76172</title>
<path fill="none" stroke="#191970" d="M324.7838,-76.5127C345.5764,-80.2782 370.4117,-84.1466 393,-86 513.0615,-95.8513 544.2124,-93.7566 664,-81 673.5015,-79.9881 683.5861,-78.5042 693.2485,-76.8762"/>
<polygon fill="#191970" stroke="#191970" points="693.8794,-80.3191 703.1229,-75.1414 692.6681,-73.4247 693.8794,-80.3191"/>
</g>
<!-- Node76194 -->
<g id="node7" class="node">
<title>Node76194</title>
<g id="a_node7"><a xlink:href="quickjs_8c.html#ab7fc45a99935a1c0ba50b0216d9401a9" target="_top" xlink:title="JS_FreeAtom">
<polygon fill="none" stroke="#ff0000" points="420,-19.5 420,-38.5 497,-38.5 497,-19.5 420,-19.5"/>
<text text-anchor="middle" x="458.5" y="-26.5" font-family="Helvetica,sans-Serif" font-size="10.00" fill="#000000">JS_FreeAtom</text>
</a>
</g>
</g>
<!-- Node76142&#45;&gt;Node76194 -->
<g id="edge7" class="edge">
<title>Node76142&#45;&gt;Node76194</title>
<path fill="none" stroke="#191970" d="M323.5478,-57.411C349.9405,-51.8546 383.1569,-44.8617 410.0309,-39.204"/>
<polygon fill="#191970" stroke="#191970" points="410.9283,-42.5919 419.9927,-37.1068 409.4861,-35.7421 410.9283,-42.5919"/>
</g>
<!-- Node76293 -->
<g id="node8" class="node">
<title>Node76293</title>
<g id="a_node8"><a xlink:href="quickjs_8c.html#a859d5c989a2aaecef1653b3ac279e108" target="_top" xlink:title="JS_ValueToAtom">
<polygon fill="none" stroke="#ff0000" points="411,-133.5 411,-152.5 506,-152.5 506,-133.5 411,-133.5"/>
<text text-anchor="middle" x="458.5" y="-140.5" font-family="Helvetica,sans-Serif" font-size="10.00" fill="#000000">JS_ValueToAtom</text>
</a>
</g>
</g>
<!-- Node76142&#45;&gt;Node76293 -->
<g id="edge9" class="edge">
<title>Node76142&#45;&gt;Node76293</title>
<path fill="none" stroke="#191970" d="M298.1623,-76.6602C320.9715,-87.461 359.3298,-105.2407 393,-119 402.1526,-122.7402 412.1291,-126.5357 421.4731,-129.9709"/>
<polygon fill="#191970" stroke="#191970" points="420.3264,-133.278 430.9205,-133.4028 422.7165,-126.6987 420.3264,-133.278"/>
</g>
<!-- Node76144 -->
<g id="node4" class="node">
<title>Node76144</title>
<g id="a_node4"><a xlink:href="quickjs_8c.html#ab50618f1bf78e444caa6da0e3e2785d7" target="_top" xlink:title="JS_DefineProperty">
<polygon fill="none" stroke="#ff0000" points="560,-19.5 560,-38.5 664,-38.5 664,-19.5 560,-19.5"/>
<text text-anchor="middle" x="612" y="-26.5" font-family="Helvetica,sans-Serif" font-size="10.00" fill="#000000">JS_DefineProperty</text>
</a>
</g>
</g>
<!-- Node76143&#45;&gt;Node76144 -->
<g id="edge3" class="edge">
<title>Node76143&#45;&gt;Node76144</title>
<path fill="none" stroke="#191970" d="M497.2345,-57.411C517.3993,-52.4191 542.2479,-46.2676 563.6611,-40.9666"/>
<polygon fill="#191970" stroke="#191970" points="564.6781,-44.3206 573.544,-38.5201 562.9959,-37.5257 564.6781,-44.3206"/>
</g>
<!-- Node76143&#45;&gt;Node76172 -->
<g id="edge6" class="edge">
<title>Node76143&#45;&gt;Node76172</title>
<path fill="none" stroke="#191970" d="M524.0119,-67C575.4875,-67 646.0771,-67 692.929,-67"/>
<polygon fill="#191970" stroke="#191970" points="693.1335,-70.5001 703.1334,-67 693.1334,-63.5001 693.1335,-70.5001"/>
</g>
<!-- Node76144&#45;&gt;Node76172 -->
<g id="edge4" class="edge">
<title>Node76144&#45;&gt;Node76172</title>
<path fill="none" stroke="#191970" d="M644.9307,-38.589C661.6224,-43.4494 682.0892,-49.4091 699.9595,-54.6127"/>
<polygon fill="#191970" stroke="#191970" points="699.0001,-57.9787 709.5799,-57.4141 700.9572,-51.2578 699.0001,-57.9787"/>
</g>
<!-- Node76144&#45;&gt;Node76292 -->
<g id="edge5" class="edge">
<title>Node76144&#45;&gt;Node76292</title>
<path fill="none" stroke="#191970" d="M664.3274,-21.3815C672.6959,-20.163 681.3599,-18.9016 689.7385,-17.6818"/>
<polygon fill="#191970" stroke="#191970" points="690.3865,-21.1244 699.7779,-16.2201 689.3779,-14.1974 690.3865,-21.1244"/>
</g>
</g>
</svg>
