<?xml version="1.0" encoding="UTF-8" standalone="no"?>
<!DOCTYPE svg PUBLIC "-//W3C//DTD SVG 1.1//EN"
 "http://www.w3.org/Graphics/SVG/1.1/DTD/svg11.dtd">
<!-- Generated by graphviz version 2.40.1 (20161225.0304)
 -->
<!-- Title: JS_NewCFunction3 Pages: 1 -->
<!--zoomable 394 -->
<svg id="main" version="1.1" xmlns="http://www.w3.org/2000/svg" xmlns:xlink="http://www.w3.org/1999/xlink" xml:space="preserve" onload="init(evt)">
<style type="text/css"><![CDATA[
.edge:hover path { stroke: red; }
.edge:hover polygon { stroke: red; fill: red; }
]]></style>
<script type="text/javascript"><![CDATA[
var edges = document.getElementsByTagName('g');
if (edges && edges.length) {
  for (var i=0;i<edges.length;i++) {
    if (edges[i].id.substr(0,4)=='edge') {
      edges[i].setAttribute('class','edge');
    }
  }
}
]]></script>
        <defs>
                <circle id="rim" cx="0" cy="0" r="7"/>
                <circle id="rim2" cx="0" cy="0" r="3.5"/>
                <g id="zoomPlus">
                        <use xlink:href="#rim" fill="#404040">
                                <set attributeName="fill" to="#808080" begin="zoomplus.mouseover" end="zoomplus.mouseout"/>
                        </use>
                        <path d="M-4,0h8M0,-4v8" fill="none" stroke="white" stroke-width="1.5" pointer-events="none"/>
                </g>
                <g id="zoomMin">
                        <use xlink:href="#rim" fill="#404040">
                                <set attributeName="fill" to="#808080" begin="zoomminus.mouseover" end="zoomminus.mouseout"/>
                        </use>
                        <path d="M-4,0h8" fill="none" stroke="white" stroke-width="1.5" pointer-events="none"/>
                </g>
                <g id="dirArrow">
                        <path fill="none" stroke="white" stroke-width="1.5" d="M0,-3.0v7 M-2.5,-0.5L0,-3.0L2.5,-0.5"/>
                </g>
               <g id="resetDef">
                       <use xlink:href="#rim2" fill="#404040">
                               <set attributeName="fill" to="#808080" begin="reset.mouseover" end="reset.mouseout"/>
                       </use>
               </g>
        </defs>

<script type="text/javascript">
var viewWidth = 1263;
var viewHeight = 394;
var sectionId = 'dynsection-422';
</script>
<script xlink:href="svgpan.js"/>
<svg id="graph" class="graph">
<g id="viewport">
<title>JS_NewCFunction3</title>
<!-- Node143900 -->
<g id="node1" class="node">
<title>Node143900</title>
<polygon fill="#bfbfbf" stroke="#000000" points="0,-185.1271 0,-204.1271 106,-204.1271 106,-185.1271 0,-185.1271"/>
<text text-anchor="middle" x="53" y="-192.1271" font-family="Helvetica,sans-Serif" font-size="10.00" fill="#000000">JS_NewCFunction3</text>
</g>
<!-- Node143901 -->
<g id="node2" class="node">
<title>Node143901</title>
<g id="a_node2"><a xlink:href="quickjs_8c.html#a4c9489297c684663f30e517204a9ec14" target="_top" xlink:title="JS_AddIntrinsicBaseObjects">
<polygon fill="none" stroke="#000000" points="674.5,-280.1271 674.5,-299.1271 823.5,-299.1271 823.5,-280.1271 674.5,-280.1271"/>
<text text-anchor="middle" x="749" y="-287.1271" font-family="Helvetica,sans-Serif" font-size="10.00" fill="#000000">JS_AddIntrinsicBaseObjects</text>
</a>
</g>
</g>
<!-- Node143900&#45;&gt;Node143901 -->
<g id="edge1" class="edge">
<title>Node143900&#45;&gt;Node143901</title>
<path fill="none" stroke="#191970" d="M70.6314,-211.6537C106.929,-245.3761 194.1647,-319.722 284,-346.6271 356.3792,-368.3042 384.5928,-376.4813 454,-346.6271 475.3713,-337.4346 468.9795,-318.5957 490,-308.6271 547.5415,-281.3389 620.4342,-278.3794 674.22,-281.209"/>
<polygon fill="#191970" stroke="#191970" points="72.5855,-208.6857 62.9086,-204.3719 67.7833,-213.7788 72.5855,-208.6857"/>
</g>
<!-- Node143906 -->
<g id="node5" class="node">
<title>Node143906</title>
<g id="a_node5"><a xlink:href="quickjs_8c.html#a7efb53c2f76fd5cc0e584449437ec09c" target="_top" xlink:title="JS_AddIntrinsicBasicObjects">
<polygon fill="none" stroke="#000000" points="673,-52.1271 673,-71.1271 825,-71.1271 825,-52.1271 673,-52.1271"/>
<text text-anchor="middle" x="749" y="-59.1271" font-family="Helvetica,sans-Serif" font-size="10.00" fill="#000000">JS_AddIntrinsicBasicObjects</text>
</a>
</g>
</g>
<!-- Node143900&#45;&gt;Node143906 -->
<g id="edge4" class="edge">
<title>Node143900&#45;&gt;Node143906</title>
<path fill="none" stroke="#191970" d="M75.1404,-179.3854C114.849,-153.0243 201.7279,-99.7188 284,-78.6271 417.4205,-44.4227 579.384,-48.2388 672.688,-54.6032"/>
<polygon fill="#191970" stroke="#191970" points="73.0924,-176.5447 66.7442,-185.0271 76.9965,-182.3549 73.0924,-176.5447"/>
</g>
<!-- Node143908 -->
<g id="node7" class="node">
<title>Node143908</title>
<g id="a_node7"><a xlink:href="quickjs_8c.html#a2e66fcf1bc1d19f346317f10ee590621" target="_top" xlink:title="JS_AddIntrinsicPromise">
<polygon fill="none" stroke="#000000" points="685,-14.1271 685,-33.1271 813,-33.1271 813,-14.1271 685,-14.1271"/>
<text text-anchor="middle" x="749" y="-21.1271" font-family="Helvetica,sans-Serif" font-size="10.00" fill="#000000">JS_AddIntrinsicPromise</text>
</a>
</g>
</g>
<!-- Node143900&#45;&gt;Node143908 -->
<g id="edge7" class="edge">
<title>Node143900&#45;&gt;Node143908</title>
<path fill="none" stroke="#191970" d="M63.3526,-175.8638C77.7639,-151.5277 106.1829,-109.4949 142,-86.6271 317.4731,25.4059 581.1975,2.5688 694.3091,-14.0988"/>
<polygon fill="#191970" stroke="#191970" points="60.1552,-174.4035 58.211,-184.8185 66.2257,-177.8891 60.1552,-174.4035"/>
</g>
<!-- Node143909 -->
<g id="node8" class="node">
<title>Node143909</title>
<g id="a_node8"><a xlink:href="quickjs_8c.html#a177d09828596bfe6df4bd90b2e93989d" target="_top" xlink:title="JS_AddIntrinsicTypedArrays">
<polygon fill="none" stroke="#000000" points="674.5,-356.1271 674.5,-375.1271 823.5,-375.1271 823.5,-356.1271 674.5,-356.1271"/>
<text text-anchor="middle" x="749" y="-363.1271" font-family="Helvetica,sans-Serif" font-size="10.00" fill="#000000">JS_AddIntrinsicTypedArrays</text>
</a>
</g>
</g>
<!-- Node143900&#45;&gt;Node143909 -->
<g id="edge9" class="edge">
<title>Node143900&#45;&gt;Node143909</title>
<path fill="none" stroke="#191970" d="M62.4465,-213.322C76.4876,-239.3873 105.2081,-286.5943 142,-314.6271 195.834,-355.6447 217.4722,-357.1932 284,-369.6271 419.7022,-394.9895 581.5895,-384.6846 674.1323,-375.0454"/>
<polygon fill="#191970" stroke="#191970" points="65.3856,-211.3897 57.6464,-204.154 59.1841,-214.6366 65.3856,-211.3897"/>
</g>
<!-- Node143910 -->
<g id="node9" class="node">
<title>Node143910</title>
<g id="a_node9"><a xlink:href="quickjs_8c.html#a76d4772691a319f48dc636a0e7f6c1ed" target="_top" xlink:title="JS_NewCFunction2">
<polygon fill="none" stroke="#000000" points="142,-185.1271 142,-204.1271 248,-204.1271 248,-185.1271 142,-185.1271"/>
<text text-anchor="middle" x="195" y="-192.1271" font-family="Helvetica,sans-Serif" font-size="10.00" fill="#000000">JS_NewCFunction2</text>
</a>
</g>
</g>
<!-- Node143900&#45;&gt;Node143910 -->
<g id="edge11" class="edge">
<title>Node143900&#45;&gt;Node143910</title>
<path fill="none" stroke="#191970" d="M116.5173,-194.6271C124.9959,-194.6271 133.6185,-194.6271 141.8941,-194.6271"/>
<polygon fill="#191970" stroke="#191970" points="116.2796,-191.1272 106.2796,-194.6271 116.2795,-198.1272 116.2796,-191.1272"/>
</g>
<!-- Node143902 -->
<g id="node3" class="node">
<title>Node143902</title>
<g id="a_node3"><a xlink:href="quickjs_8c.html#ad8aedb643b8753b7a15f6cb2df61945e" target="_top" xlink:title="JS_NewContext">
<polygon fill="none" stroke="#000000" points="1009,-147.1271 1009,-166.1271 1100,-166.1271 1100,-147.1271 1009,-147.1271"/>
<text text-anchor="middle" x="1054.5" y="-154.1271" font-family="Helvetica,sans-Serif" font-size="10.00" fill="#000000">JS_NewContext</text>
</a>
</g>
</g>
<!-- Node143901&#45;&gt;Node143902 -->
<g id="edge2" class="edge">
<title>Node143901&#45;&gt;Node143902</title>
<path fill="none" stroke="#191970" d="M802.9727,-277.4949C810.4397,-275.4223 817.9585,-273.1228 825,-270.6271 909.075,-240.8282 1002.2313,-187.7781 1038.6717,-166.1764"/>
<polygon fill="#191970" stroke="#191970" points="801.9951,-274.1331 793.2308,-280.0861 803.7945,-280.8979 801.9951,-274.1331"/>
</g>
<!-- Node143903 -->
<g id="node4" class="node">
<title>Node143903</title>
<g id="a_node4"><a xlink:href="classqjs_1_1Context.html#a4392a23648acfc4bf6b445336efb5007" target="_top" xlink:title="qjs::Context::Context">
<polygon fill="none" stroke="#ff0000" points="1136,-147.1271 1136,-166.1271 1255,-166.1271 1255,-147.1271 1136,-147.1271"/>
<text text-anchor="middle" x="1195.5" y="-154.1271" font-family="Helvetica,sans-Serif" font-size="10.00" fill="#000000">qjs::Context::Context</text>
</a>
</g>
</g>
<!-- Node143902&#45;&gt;Node143903 -->
<g id="edge3" class="edge">
<title>Node143902&#45;&gt;Node143903</title>
<path fill="none" stroke="#191970" d="M1110.322,-156.6271C1118.7011,-156.6271 1127.3697,-156.6271 1135.8255,-156.6271"/>
<polygon fill="#191970" stroke="#191970" points="1110.2787,-153.1272 1100.2787,-156.6271 1110.2786,-160.1272 1110.2787,-153.1272"/>
</g>
<!-- Node143907 -->
<g id="node6" class="node">
<title>Node143907</title>
<g id="a_node6"><a xlink:href="quickjs_8c.html#a442ff496ba00319ad39eb0a129b9eb8b" target="_top" xlink:title="JS_NewContextRaw">
<polygon fill="none" stroke="#000000" points="861,-52.1271 861,-71.1271 973,-71.1271 973,-52.1271 861,-52.1271"/>
<text text-anchor="middle" x="917" y="-59.1271" font-family="Helvetica,sans-Serif" font-size="10.00" fill="#000000">JS_NewContextRaw</text>
</a>
</g>
</g>
<!-- Node143906&#45;&gt;Node143907 -->
<g id="edge5" class="edge">
<title>Node143906&#45;&gt;Node143907</title>
<path fill="none" stroke="#191970" d="M835.2732,-61.6271C843.9154,-61.6271 852.5255,-61.6271 860.7372,-61.6271"/>
<polygon fill="#191970" stroke="#191970" points="835.1353,-58.1272 825.1353,-61.6271 835.1352,-65.1272 835.1353,-58.1272"/>
</g>
<!-- Node143907&#45;&gt;Node143902 -->
<g id="edge6" class="edge">
<title>Node143907&#45;&gt;Node143902</title>
<path fill="none" stroke="#191970" d="M953.6313,-75.3673C960.2651,-78.3986 966.9817,-81.8474 973,-85.6271 1001.9224,-103.7911 1030.9135,-132.0139 1045.2573,-146.8124"/>
<polygon fill="#191970" stroke="#191970" points="954.6304,-71.9863 944.0622,-71.2349 951.8551,-78.4127 954.6304,-71.9863"/>
</g>
<!-- Node143908&#45;&gt;Node143902 -->
<g id="edge8" class="edge">
<title>Node143908&#45;&gt;Node143902</title>
<path fill="none" stroke="#191970" d="M823.2537,-14.788C869.2358,-12.8313 927.9043,-16.9639 973,-42.6271 1015.713,-66.9343 1041.763,-123.8603 1050.8524,-146.7945"/>
<polygon fill="#191970" stroke="#191970" points="822.8501,-11.3044 813.0498,-15.3297 823.2213,-18.2945 822.8501,-11.3044"/>
</g>
<!-- Node143909&#45;&gt;Node143902 -->
<g id="edge10" class="edge">
<title>Node143909&#45;&gt;Node143902</title>
<path fill="none" stroke="#191970" d="M808.0035,-353.1537C813.847,-351.245 819.606,-349.078 825,-346.6271 897.9608,-313.4753 912.3831,-296.0476 973,-243.6271 1002.5872,-218.0406 1032.9094,-182.814 1046.7545,-166.1277"/>
<polygon fill="#191970" stroke="#191970" points="806.7037,-349.8898 798.1391,-356.1265 808.7237,-356.5921 806.7037,-349.8898"/>
</g>
<!-- Node143910&#45;&gt;Node143908 -->
<g id="edge42" class="edge">
<title>Node143910&#45;&gt;Node143908</title>
<path fill="none" stroke="#191970" d="M203.3722,-175.9998C216.4161,-149.3878 244.2813,-101.2128 284,-78.6271 411.5518,-6.0959 590.4035,-8.5026 684.8037,-16.2308"/>
<polygon fill="#191970" stroke="#191970" points="200.2063,-174.5076 199.1049,-185.0451 206.5371,-177.4944 200.2063,-174.5076"/>
</g>
<!-- Node143911 -->
<g id="node10" class="node">
<title>Node143911</title>
<g id="a_node10"><a xlink:href="quickjs_8h.html#aa68c88001ca8a8662d8f9f321a72f421" target="_top" xlink:title="JS_NewCFunction">
<polygon fill="none" stroke="#000000" points="513.5,-318.1271 513.5,-337.1271 613.5,-337.1271 613.5,-318.1271 513.5,-318.1271"/>
<text text-anchor="middle" x="563.5" y="-325.1271" font-family="Helvetica,sans-Serif" font-size="10.00" fill="#000000">JS_NewCFunction</text>
</a>
</g>
</g>
<!-- Node143910&#45;&gt;Node143911 -->
<g id="edge12" class="edge">
<title>Node143910&#45;&gt;Node143911</title>
<path fill="none" stroke="#191970" d="M211.7144,-211.9161C228.4817,-228.2336 255.8004,-252.1499 284,-265.6271 324.0806,-284.7825 444.4573,-307.4153 513.4569,-319.3303"/>
<polygon fill="#191970" stroke="#191970" points="213.9255,-209.1781 204.3732,-204.5951 208.9825,-214.1347 213.9255,-209.1781"/>
</g>
<!-- Node143917 -->
<g id="node12" class="node">
<title>Node143917</title>
<g id="a_node12"><a xlink:href="quickjs_8h.html#ae75598e7954a062f9890bc2ecf435fa1" target="_top" xlink:title="JS_NewCFunctionMagic">
<polygon fill="none" stroke="#000000" points="499.5,-166.1271 499.5,-185.1271 627.5,-185.1271 627.5,-166.1271 499.5,-166.1271"/>
<text text-anchor="middle" x="563.5" y="-173.1271" font-family="Helvetica,sans-Serif" font-size="10.00" fill="#000000">JS_NewCFunctionMagic</text>
</a>
</g>
</g>
<!-- Node143910&#45;&gt;Node143917 -->
<g id="edge16" class="edge">
<title>Node143910&#45;&gt;Node143917</title>
<path fill="none" stroke="#191970" d="M258.2536,-191.3657C325.6588,-187.8903 431.7925,-182.418 499.4869,-178.9276"/>
<polygon fill="#191970" stroke="#191970" points="257.996,-187.8742 248.1895,-191.8846 258.3565,-194.865 257.996,-187.8742"/>
</g>
<!-- Node143915 -->
<g id="node14" class="node">
<title>Node143915</title>
<g id="a_node14"><a xlink:href="quickjs-libc_8c.html#a066e7962ce24f22d5df20968a8baa346" target="_top" xlink:title="js_os_init">
<polygon fill="none" stroke="#ff0000" points="718,-242.1271 718,-261.1271 780,-261.1271 780,-242.1271 718,-242.1271"/>
<text text-anchor="middle" x="749" y="-249.1271" font-family="Helvetica,sans-Serif" font-size="10.00" fill="#000000">js_os_init</text>
</a>
</g>
</g>
<!-- Node143910&#45;&gt;Node143915 -->
<g id="edge20" class="edge">
<title>Node143910&#45;&gt;Node143915</title>
<path fill="none" stroke="#191970" d="M236.3535,-206.9638C251.2485,-210.9675 268.2622,-215.0398 284,-217.6271 445.7419,-244.2172 642.5562,-250.0149 717.7545,-251.2769"/>
<polygon fill="#191970" stroke="#191970" points="236.9926,-203.5094 226.4218,-204.2221 235.1299,-210.257 236.9926,-203.5094"/>
</g>
<!-- Node143919 -->
<g id="node15" class="node">
<title>Node143919</title>
<g id="a_node15"><a xlink:href="quickjs_8c.html#a6ee4e2edda1f223a5a40e2c48b41d618" target="_top" xlink:title="JS_InstantiateFunctionListItem">
<polygon fill="none" stroke="#000000" points="287,-128.1271 287,-147.1271 451,-147.1271 451,-128.1271 287,-128.1271"/>
<text text-anchor="middle" x="369" y="-135.1271" font-family="Helvetica,sans-Serif" font-size="10.00" fill="#000000">JS_InstantiateFunctionListItem</text>
</a>
</g>
</g>
<!-- Node143910&#45;&gt;Node143919 -->
<g id="edge21" class="edge">
<title>Node143910&#45;&gt;Node143919</title>
<path fill="none" stroke="#191970" d="M229.1083,-181.253C245.584,-174.9798 265.7054,-167.591 284,-161.6271 299.8909,-156.4468 317.6593,-151.3268 332.8256,-147.1551"/>
<polygon fill="#191970" stroke="#191970" points="227.4509,-178.1401 219.3699,-184.992 229.96,-184.675 227.4509,-178.1401"/>
</g>
<!-- Node143927 -->
<g id="node18" class="node">
<title>Node143927</title>
<g id="a_node18"><a xlink:href="quickjs_8c.html#a3afdbdd7b58ef7e1dcc178c362071b3d" target="_top" xlink:title="JS_AddIntrinsicProxy">
<polygon fill="none" stroke="#000000" points="691,-90.1271 691,-109.1271 807,-109.1271 807,-90.1271 691,-90.1271"/>
<text text-anchor="middle" x="749" y="-97.1271" font-family="Helvetica,sans-Serif" font-size="10.00" fill="#000000">JS_AddIntrinsicProxy</text>
</a>
</g>
</g>
<!-- Node143910&#45;&gt;Node143927 -->
<g id="edge41" class="edge">
<title>Node143910&#45;&gt;Node143927</title>
<path fill="none" stroke="#191970" d="M208.9794,-177.207C224.9184,-158.8228 252.834,-130.8519 284,-118.6271 421.6473,-64.6353 600.1177,-78.1259 690.709,-90.21"/>
<polygon fill="#191970" stroke="#191970" points="206.2799,-174.9791 202.5302,-184.8882 211.6409,-179.4802 206.2799,-174.9791"/>
</g>
<!-- Node143930 -->
<g id="node20" class="node">
<title>Node143930</title>
<g id="a_node20"><a xlink:href="quickjs_8c.html#a293feb2179c9a722b2bd410bc2c5c173" target="_top" xlink:title="JS_NewGlobalCConstructor">
<polygon fill="none" stroke="#000000" points="490,-204.1271 490,-223.1271 637,-223.1271 637,-204.1271 490,-204.1271"/>
<text text-anchor="middle" x="563.5" y="-211.1271" font-family="Helvetica,sans-Serif" font-size="10.00" fill="#000000">JS_NewGlobalCConstructor</text>
</a>
</g>
</g>
<!-- Node143910&#45;&gt;Node143930 -->
<g id="edge35" class="edge">
<title>Node143910&#45;&gt;Node143930</title>
<path fill="none" stroke="#191970" d="M258.2482,-198.2278C266.9008,-198.7065 275.6694,-199.1844 284,-199.6271 353.864,-203.3393 433.5666,-207.3049 489.9339,-210.0643"/>
<polygon fill="#191970" stroke="#191970" points="258.3562,-194.7285 248.1772,-197.6675 257.9673,-201.7177 258.3562,-194.7285"/>
</g>
<!-- Node143931 -->
<g id="node21" class="node">
<title>Node143931</title>
<g id="a_node21"><a xlink:href="quickjs_8c.html#abc33a664e231090ec89f9d9975e21229" target="_top" xlink:title="JS_NewGlobalCConstructorOnly">
<polygon fill="none" stroke="#000000" points="284,-318.1271 284,-337.1271 454,-337.1271 454,-318.1271 284,-318.1271"/>
<text text-anchor="middle" x="369" y="-325.1271" font-family="Helvetica,sans-Serif" font-size="10.00" fill="#000000">JS_NewGlobalCConstructorOnly</text>
</a>
</g>
</g>
<!-- Node143910&#45;&gt;Node143931 -->
<g id="edge39" class="edge">
<title>Node143910&#45;&gt;Node143931</title>
<path fill="none" stroke="#191970" d="M205.1631,-213.0887C219.5352,-237.4722 248.0936,-280.0701 284,-303.6271 293.6157,-309.9356 304.8928,-314.6077 316.0325,-318.0607"/>
<polygon fill="#191970" stroke="#191970" points="208.051,-211.0882 200.0484,-204.145 201.9745,-214.5633 208.051,-211.0882"/>
</g>
<!-- Node143911&#45;&gt;Node143901 -->
<g id="edge14" class="edge">
<title>Node143911&#45;&gt;Node143901</title>
<path fill="none" stroke="#191970" d="M620.1727,-316.0176C646.5551,-310.6131 677.5509,-304.2636 702.5271,-299.1471"/>
<polygon fill="#191970" stroke="#191970" points="619.4036,-312.6024 610.3095,-318.0381 620.8085,-319.46 619.4036,-312.6024"/>
</g>
<!-- Node143911&#45;&gt;Node143909 -->
<g id="edge15" class="edge">
<title>Node143911&#45;&gt;Node143909</title>
<path fill="none" stroke="#191970" d="M620.1727,-339.2366C646.5551,-344.6411 677.5509,-350.9906 702.5271,-356.107"/>
<polygon fill="#191970" stroke="#191970" points="620.8085,-335.7942 610.3095,-337.2161 619.4036,-342.6518 620.8085,-335.7942"/>
</g>
<!-- Node143912 -->
<g id="node11" class="node">
<title>Node143912</title>
<g id="a_node11"><a xlink:href="quickjs-libc_8c.html#ad04466feec6822a3b838baf229f6dfa0" target="_top" xlink:title="js_std_add_helpers">
<polygon fill="none" stroke="#ff0000" points="694,-318.1271 694,-337.1271 804,-337.1271 804,-318.1271 694,-318.1271"/>
<text text-anchor="middle" x="749" y="-325.1271" font-family="Helvetica,sans-Serif" font-size="10.00" fill="#000000">js_std_add_helpers</text>
</a>
</g>
</g>
<!-- Node143911&#45;&gt;Node143912 -->
<g id="edge13" class="edge">
<title>Node143911&#45;&gt;Node143912</title>
<path fill="none" stroke="#191970" d="M623.8257,-327.6271C646.3634,-327.6271 671.823,-327.6271 693.8687,-327.6271"/>
<polygon fill="#191970" stroke="#191970" points="623.699,-324.1272 613.699,-327.6271 623.6989,-331.1272 623.699,-324.1272"/>
</g>
<!-- Node143917&#45;&gt;Node143901 -->
<g id="edge19" class="edge">
<title>Node143917&#45;&gt;Node143901</title>
<path fill="none" stroke="#191970" d="M630.5016,-189.9896C632.7782,-191.3957 634.9555,-192.9373 637,-194.6271 665.8093,-218.4381 644.0958,-246.9313 673,-270.6271 677.733,-274.5072 683.1504,-277.6104 688.8654,-280.0897"/>
<polygon fill="#191970" stroke="#191970" points="631.7871,-186.7134 621.2995,-185.21 628.5605,-192.9254 631.7871,-186.7134"/>
</g>
<!-- Node143918 -->
<g id="node13" class="node">
<title>Node143918</title>
<g id="a_node13"><a xlink:href="quickjs_8c.html#a4497f8c7cf2ec38da989910ae8b1f042" target="_top" xlink:title="JS_AddIntrinsicMapSet">
<polygon fill="none" stroke="#000000" points="686.5,-128.1271 686.5,-147.1271 811.5,-147.1271 811.5,-128.1271 686.5,-128.1271"/>
<text text-anchor="middle" x="749" y="-135.1271" font-family="Helvetica,sans-Serif" font-size="10.00" fill="#000000">JS_AddIntrinsicMapSet</text>
</a>
</g>
</g>
<!-- Node143917&#45;&gt;Node143918 -->
<g id="edge17" class="edge">
<title>Node143917&#45;&gt;Node143918</title>
<path fill="none" stroke="#191970" d="M620.1727,-164.0176C646.5551,-158.6131 677.5509,-152.2636 702.5271,-147.1471"/>
<polygon fill="#191970" stroke="#191970" points="619.4036,-160.6024 610.3095,-166.0381 620.8085,-167.46 619.4036,-160.6024"/>
</g>
<!-- Node143918&#45;&gt;Node143902 -->
<g id="edge18" class="edge">
<title>Node143918&#45;&gt;Node143902</title>
<path fill="none" stroke="#191970" d="M821.7812,-142.1536C879.881,-145.767 959.478,-150.7174 1008.908,-153.7916"/>
<polygon fill="#191970" stroke="#191970" points="821.7577,-138.6454 811.5597,-141.5179 821.3231,-145.6319 821.7577,-138.6454"/>
</g>
<!-- Node143920 -->
<g id="node16" class="node">
<title>Node143920</title>
<g id="a_node16"><a xlink:href="quickjs_8c.html#ac00854b7f1f0f8567af964a2f8f2adb0" target="_top" xlink:title="JS_SetPropertyFunctionList">
<polygon fill="none" stroke="#ff0000" points="490.5,-128.1271 490.5,-147.1271 636.5,-147.1271 636.5,-128.1271 490.5,-128.1271"/>
<text text-anchor="middle" x="563.5" y="-135.1271" font-family="Helvetica,sans-Serif" font-size="10.00" fill="#000000">JS_SetPropertyFunctionList</text>
</a>
</g>
</g>
<!-- Node143919&#45;&gt;Node143920 -->
<g id="edge22" class="edge">
<title>Node143919&#45;&gt;Node143920</title>
<path fill="none" stroke="#191970" d="M461.2838,-137.6271C470.9953,-137.6271 480.773,-137.6271 490.2283,-137.6271"/>
<polygon fill="#191970" stroke="#191970" points="461.2036,-134.1272 451.2036,-137.6271 461.2036,-141.1272 461.2036,-134.1272"/>
</g>
<!-- Node143920&#45;&gt;Node143901 -->
<g id="edge33" class="edge">
<title>Node143920&#45;&gt;Node143901</title>
<path fill="none" stroke="#191970" d="M632.22,-152.6458C633.8948,-153.874 635.4939,-155.1986 637,-156.6271 675.5514,-193.1907 634.3029,-234.2177 673,-270.6271 677.0612,-274.4482 681.7709,-277.5327 686.8173,-280.0185"/>
<polygon fill="#191970" stroke="#191970" points="633.6672,-149.4318 623.2942,-147.2749 630.0581,-155.4297 633.6672,-149.4318"/>
</g>
<!-- Node143920&#45;&gt;Node143906 -->
<g id="edge32" class="edge">
<title>Node143920&#45;&gt;Node143906</title>
<path fill="none" stroke="#191970" d="M587.7621,-122.878C609.4574,-110.2111 642.4518,-92.2116 673,-80.6271 682.6648,-76.962 693.2894,-73.7985 703.452,-71.1618"/>
<polygon fill="#191970" stroke="#191970" points="585.7403,-120.0075 578.9175,-128.113 589.3058,-126.0314 585.7403,-120.0075"/>
</g>
<!-- Node143920&#45;&gt;Node143908 -->
<g id="edge29" class="edge">
<title>Node143920&#45;&gt;Node143908</title>
<path fill="none" stroke="#191970" d="M583.0977,-121.4687C598.0127,-109.0816 618.9757,-91.4783 637,-75.6271 653.2988,-61.2932 653.8844,-52.9083 673,-42.6271 680.1868,-38.7617 688.1795,-35.6645 696.2057,-33.1878"/>
<polygon fill="#191970" stroke="#191970" points="580.552,-119.0326 575.0828,-128.1066 585.0169,-124.4237 580.552,-119.0326"/>
</g>
<!-- Node143920&#45;&gt;Node143909 -->
<g id="edge34" class="edge">
<title>Node143920&#45;&gt;Node143909</title>
<path fill="none" stroke="#191970" d="M633.0592,-152.9149C634.4437,-154.0687 635.7613,-155.3042 637,-156.6271 695.7444,-219.3643 614.0055,-284.125 673,-346.6271 676.5475,-350.3855 680.7164,-353.4468 685.244,-355.935"/>
<polygon fill="#191970" stroke="#191970" points="634.7361,-149.8253 624.4816,-147.1615 630.8368,-155.6387 634.7361,-149.8253"/>
</g>
<!-- Node143920&#45;&gt;Node143918 -->
<g id="edge28" class="edge">
<title>Node143920&#45;&gt;Node143918</title>
<path fill="none" stroke="#191970" d="M646.6456,-137.6271C659.9417,-137.6271 673.5039,-137.6271 686.2234,-137.6271"/>
<polygon fill="#191970" stroke="#191970" points="646.5483,-134.1272 636.5482,-137.6271 646.5482,-141.1272 646.5483,-134.1272"/>
</g>
<!-- Node143920&#45;&gt;Node143915 -->
<g id="edge23" class="edge">
<title>Node143920&#45;&gt;Node143915</title>
<path fill="none" stroke="#191970" d="M630.5016,-151.9896C632.7782,-153.3957 634.9555,-154.9373 637,-156.6271 665.8093,-180.4381 644.0958,-208.9313 673,-232.6271 685.5162,-242.888 702.8184,-247.7149 717.7525,-249.9427"/>
<polygon fill="#191970" stroke="#191970" points="631.7871,-148.7134 621.2995,-147.21 628.5605,-154.9254 631.7871,-148.7134"/>
</g>
<!-- Node143925 -->
<g id="node17" class="node">
<title>Node143925</title>
<g id="a_node17"><a xlink:href="quickjs_8c.html#aafc8241682ce24b6d72e0f237ee85a51" target="_top" xlink:title="JS_AddIntrinsicRegExp">
<polygon fill="none" stroke="#000000" points="686.5,-204.1271 686.5,-223.1271 811.5,-223.1271 811.5,-204.1271 686.5,-204.1271"/>
<text text-anchor="middle" x="749" y="-211.1271" font-family="Helvetica,sans-Serif" font-size="10.00" fill="#000000">JS_AddIntrinsicRegExp</text>
</a>
</g>
</g>
<!-- Node143920&#45;&gt;Node143925 -->
<g id="edge24" class="edge">
<title>Node143920&#45;&gt;Node143925</title>
<path fill="none" stroke="#191970" d="M625.2625,-150.7922C629.3421,-152.5076 633.2959,-154.4433 637,-156.6271 657.041,-168.442 652.912,-182.8923 673,-194.6271 679.6938,-198.5374 687.1746,-201.6484 694.76,-204.1221"/>
<polygon fill="#191970" stroke="#191970" points="626.1659,-147.3936 615.5733,-147.1761 623.7184,-153.9517 626.1659,-147.3936"/>
</g>
<!-- Node143920&#45;&gt;Node143927 -->
<g id="edge26" class="edge">
<title>Node143920&#45;&gt;Node143927</title>
<path fill="none" stroke="#191970" d="M620.1727,-126.0176C646.5551,-120.6131 677.5509,-114.2636 702.5271,-109.1471"/>
<polygon fill="#191970" stroke="#191970" points="619.4036,-122.6024 610.3095,-128.0381 620.8085,-129.46 619.4036,-122.6024"/>
</g>
<!-- Node143928 -->
<g id="node19" class="node">
<title>Node143928</title>
<g id="a_node19"><a xlink:href="quickjs_8c.html#a8ecbf5799518b7bfc3fefd47c7a0dd4e" target="_top" xlink:title="JS_AddIntrinsicDate">
<polygon fill="none" stroke="#000000" points="693,-166.1271 693,-185.1271 805,-185.1271 805,-166.1271 693,-166.1271"/>
<text text-anchor="middle" x="749" y="-173.1271" font-family="Helvetica,sans-Serif" font-size="10.00" fill="#000000">JS_AddIntrinsicDate</text>
</a>
</g>
</g>
<!-- Node143920&#45;&gt;Node143928 -->
<g id="edge30" class="edge">
<title>Node143920&#45;&gt;Node143928</title>
<path fill="none" stroke="#191970" d="M620.1727,-149.2366C646.5551,-154.6411 677.5509,-160.9906 702.5271,-166.107"/>
<polygon fill="#191970" stroke="#191970" points="620.8085,-145.7942 610.3095,-147.2161 619.4036,-152.6518 620.8085,-145.7942"/>
</g>
<!-- Node143925&#45;&gt;Node143902 -->
<g id="edge25" class="edge">
<title>Node143925&#45;&gt;Node143902</title>
<path fill="none" stroke="#191970" d="M821.6487,-204.3137C865.6624,-198.1667 922.8145,-189.2884 973,-178.6271 989.3428,-175.1553 1007.2921,-170.4128 1022.1761,-166.22"/>
<polygon fill="#191970" stroke="#191970" points="821.039,-200.8646 811.612,-205.7001 821.9969,-207.7988 821.039,-200.8646"/>
</g>
<!-- Node143927&#45;&gt;Node143902 -->
<g id="edge27" class="edge">
<title>Node143927&#45;&gt;Node143902</title>
<path fill="none" stroke="#191970" d="M810.0041,-111.0092C868.6014,-121.9422 955.8136,-138.2142 1008.6977,-148.0813"/>
<polygon fill="#191970" stroke="#191970" points="810.6062,-107.5612 800.1338,-109.1676 809.3222,-114.4425 810.6062,-107.5612"/>
</g>
<!-- Node143928&#45;&gt;Node143902 -->
<g id="edge31" class="edge">
<title>Node143928&#45;&gt;Node143902</title>
<path fill="none" stroke="#191970" d="M815.2829,-171.5047C873.7688,-167.8673 957.4735,-162.6615 1008.7842,-159.4703"/>
<polygon fill="#191970" stroke="#191970" points="814.7968,-168.0281 805.0334,-172.1422 815.2314,-175.0146 814.7968,-168.0281"/>
</g>
<!-- Node143930&#45;&gt;Node143901 -->
<g id="edge38" class="edge">
<title>Node143930&#45;&gt;Node143901</title>
<path fill="none" stroke="#191970" d="M587.7621,-228.3762C609.4574,-241.043 642.4518,-259.0426 673,-270.6271 682.6648,-274.2922 693.2894,-277.4557 703.452,-280.0924"/>
<polygon fill="#191970" stroke="#191970" points="589.3058,-225.2227 578.9175,-223.1412 585.7403,-231.2467 589.3058,-225.2227"/>
</g>
<!-- Node143930&#45;&gt;Node143925 -->
<g id="edge36" class="edge">
<title>Node143930&#45;&gt;Node143925</title>
<path fill="none" stroke="#191970" d="M647.0892,-213.6271C660.2638,-213.6271 673.6873,-213.6271 686.2825,-213.6271"/>
<polygon fill="#191970" stroke="#191970" points="647.081,-210.1272 637.0809,-213.6271 647.0809,-217.1272 647.081,-210.1272"/>
</g>
<!-- Node143930&#45;&gt;Node143928 -->
<g id="edge37" class="edge">
<title>Node143930&#45;&gt;Node143928</title>
<path fill="none" stroke="#191970" d="M620.1727,-202.0176C646.5551,-196.6131 677.5509,-190.2636 702.5271,-185.1471"/>
<polygon fill="#191970" stroke="#191970" points="619.4036,-198.6024 610.3095,-204.0381 620.8085,-205.46 619.4036,-198.6024"/>
</g>
<!-- Node143931&#45;&gt;Node143909 -->
<g id="edge40" class="edge">
<title>Node143931&#45;&gt;Node143909</title>
<path fill="none" stroke="#191970" d="M433.3393,-338.7398C451.6096,-341.6206 471.5518,-344.5057 490,-346.6271 551.9235,-353.7479 622.5001,-358.7189 674.3243,-361.7853"/>
<polygon fill="#191970" stroke="#191970" points="433.8091,-335.2705 423.3813,-337.1447 432.7018,-342.1824 433.8091,-335.2705"/>
</g>
</g>
</svg>
        <g id="navigator" transform="translate(0 0)" fill="#404254">
                <rect fill="#f2f5e9" fill-opacity="0.5" stroke="#606060" stroke-width=".5" x="0" y="0" width="60" height="60"/>
                <use id="zoomplus" xlink:href="#zoomPlus" x="17" y="9" onmousedown="handleZoom(evt,'in')"/>
                <use id="zoomminus" xlink:href="#zoomMin" x="42" y="9" onmousedown="handleZoom(evt,'out')"/>
                <use id="reset" xlink:href="#resetDef" x="30" y="36" onmousedown="handleReset()"/>
                <g id="arrowUp" xlink:href="#dirArrow" transform="translate(30 24)" onmousedown="handlePan(0,-1)">
                  <use xlink:href="#rim" fill="#404040">
                        <set attributeName="fill" to="#808080" begin="arrowUp.mouseover" end="arrowUp.mouseout"/>
                  </use>
                  <path fill="none" stroke="white" stroke-width="1.5" d="M0,-3.0v7 M-2.5,-0.5L0,-3.0L2.5,-0.5"/>
                </g>
                <g id="arrowRight" xlink:href="#dirArrow" transform="rotate(90) translate(36 -43)" onmousedown="handlePan(1,0)">
                  <use xlink:href="#rim" fill="#404040">
                        <set attributeName="fill" to="#808080" begin="arrowRight.mouseover" end="arrowRight.mouseout"/>
                  </use>
                  <path fill="none" stroke="white" stroke-width="1.5" d="M0,-3.0v7 M-2.5,-0.5L0,-3.0L2.5,-0.5"/>
                </g>
                <g id="arrowDown" xlink:href="#dirArrow" transform="rotate(180) translate(-30 -48)" onmousedown="handlePan(0,1)">
                  <use xlink:href="#rim" fill="#404040">
                        <set attributeName="fill" to="#808080" begin="arrowDown.mouseover" end="arrowDown.mouseout"/>
                  </use>
                  <path fill="none" stroke="white" stroke-width="1.5" d="M0,-3.0v7 M-2.5,-0.5L0,-3.0L2.5,-0.5"/>
                </g>
                <g id="arrowLeft" xlink:href="#dirArrow" transform="rotate(270) translate(-36 17)" onmousedown="handlePan(-1,0)">
                  <use xlink:href="#rim" fill="#404040">
                        <set attributeName="fill" to="#808080" begin="arrowLeft.mouseover" end="arrowLeft.mouseout"/>
                  </use>
                  <path fill="none" stroke="white" stroke-width="1.5" d="M0,-3.0v7 M-2.5,-0.5L0,-3.0L2.5,-0.5"/>
                </g>
        </g>
        <svg viewBox="0 0 15 15" width="100%" height="30px" preserveAspectRatio="xMaxYMin meet">
         <g id="arrow_out" transform="scale(0.3 0.3)">
          <a xlink:href="quickjs_8c_a21cfe4c4fc9372dc0b95b37667cff0c9_icgraph_org.svg" target="_base">
           <rect id="button" ry="5" rx="5" y="6" x="6" height="38" width="38"
                fill="#f2f5e9" fill-opacity="0.5" stroke="#606060" stroke-width="1.0"/>
           <path id="arrow"
             d="M 11.500037,31.436501 C 11.940474,20.09759 22.043105,11.32322 32.158766,21.979434 L 37.068811,17.246167 C 37.068811,17.246167 37.088388,32 37.088388,32 L 22.160133,31.978069 C 22.160133,31.978069 26.997745,27.140456 26.997745,27.140456 C 18.528582,18.264221 13.291696,25.230495 11.500037,31.436501 z"
             style="fill:#404040;"/>
          </a>
         </g>
        </svg>
</svg>
