<?xml version="1.0" encoding="UTF-8" standalone="no"?>
<!DOCTYPE svg PUBLIC "-//W3C//DTD SVG 1.1//EN"
 "http://www.w3.org/Graphics/SVG/1.1/DTD/svg11.dtd">
<!-- Generated by graphviz version 2.40.1 (20161225.0304)
 -->
<!-- Title: js_typed_array_constructor_obj Pages: 1 -->
<!--zoomable 812 -->
<svg id="main" version="1.1" xmlns="http://www.w3.org/2000/svg" xmlns:xlink="http://www.w3.org/1999/xlink" xml:space="preserve" onload="init(evt)">
<style type="text/css"><![CDATA[
.edge:hover path { stroke: red; }
.edge:hover polygon { stroke: red; fill: red; }
]]></style>
<script type="text/javascript"><![CDATA[
var edges = document.getElementsByTagName('g');
if (edges && edges.length) {
  for (var i=0;i<edges.length;i++) {
    if (edges[i].id.substr(0,4)=='edge') {
      edges[i].setAttribute('class','edge');
    }
  }
}
]]></script>
        <defs>
                <circle id="rim" cx="0" cy="0" r="7"/>
                <circle id="rim2" cx="0" cy="0" r="3.5"/>
                <g id="zoomPlus">
                        <use xlink:href="#rim" fill="#404040">
                                <set attributeName="fill" to="#808080" begin="zoomplus.mouseover" end="zoomplus.mouseout"/>
                        </use>
                        <path d="M-4,0h8M0,-4v8" fill="none" stroke="white" stroke-width="1.5" pointer-events="none"/>
                </g>
                <g id="zoomMin">
                        <use xlink:href="#rim" fill="#404040">
                                <set attributeName="fill" to="#808080" begin="zoomminus.mouseover" end="zoomminus.mouseout"/>
                        </use>
                        <path d="M-4,0h8" fill="none" stroke="white" stroke-width="1.5" pointer-events="none"/>
                </g>
                <g id="dirArrow">
                        <path fill="none" stroke="white" stroke-width="1.5" d="M0,-3.0v7 M-2.5,-0.5L0,-3.0L2.5,-0.5"/>
                </g>
               <g id="resetDef">
                       <use xlink:href="#rim2" fill="#404040">
                               <set attributeName="fill" to="#808080" begin="reset.mouseover" end="reset.mouseout"/>
                       </use>
               </g>
        </defs>

<script type="text/javascript">
var viewWidth = 1071;
var viewHeight = 812;
var sectionId = 'dynsection-1921';
</script>
<script xlink:href="svgpan.js"/>
<svg id="graph" class="graph">
<g id="viewport">
<title>js_typed_array_constructor_obj</title>
<!-- Node489799 -->
<g id="node1" class="node">
<title>Node489799</title>
<polygon fill="#bfbfbf" stroke="#000000" points="0,-370.7891 0,-389.7891 169,-389.7891 169,-370.7891 0,-370.7891"/>
<text text-anchor="middle" x="84.5" y="-377.7891" font-family="Helvetica,sans-Serif" font-size="10.00" fill="#000000">js_typed_array_constructor_obj</text>
</g>
<!-- Node489800 -->
<g id="node2" class="node">
<title>Node489800</title>
<g id="a_node2"><a xlink:href="quickjs_8c.html#aca93646daffcd067d273c79efa6dda37" target="_top" xlink:title="js_array_buffer_constructor1">
<polygon fill="none" stroke="#000000" points="205,-636.7891 205,-655.7891 360,-655.7891 360,-636.7891 205,-636.7891"/>
<text text-anchor="middle" x="282.5" y="-643.7891" font-family="Helvetica,sans-Serif" font-size="10.00" fill="#000000">js_array_buffer_constructor1</text>
</a>
</g>
</g>
<!-- Node489799&#45;&gt;Node489800 -->
<g id="edge1" class="edge">
<title>Node489799&#45;&gt;Node489800</title>
<path fill="none" stroke="#191970" d="M86.4162,-389.8214C94.1777,-425.9429 126.6876,-555.715 205,-622.2891 209.8594,-626.4201 215.4244,-629.8406 221.2934,-632.6726"/>
<polygon fill="#191970" stroke="#191970" points="220.1352,-635.983 230.7086,-636.6563 222.8629,-629.5362 220.1352,-635.983"/>
</g>
<!-- Node489804 -->
<g id="node5" class="node">
<title>Node489804</title>
<g id="a_node5"><a xlink:href="quickjs_8c.html#a93dbf502b17d1328c524401335f60499" target="_top" xlink:title="js_create_from_ctor">
<polygon fill="none" stroke="#ff0000" points="801.5,-712.7891 801.5,-731.7891 914.5,-731.7891 914.5,-712.7891 801.5,-712.7891"/>
<text text-anchor="middle" x="858" y="-719.7891" font-family="Helvetica,sans-Serif" font-size="10.00" fill="#000000">js_create_from_ctor</text>
</a>
</g>
</g>
<!-- Node489799&#45;&gt;Node489804 -->
<g id="edge26" class="edge">
<title>Node489799&#45;&gt;Node489804</title>
<path fill="none" stroke="#191970" d="M85.2068,-390.0108C88.7884,-431.4433 108.7699,-594.3915 205,-665.2891 296.5963,-732.7727 643.4733,-729.612 790.9736,-724.9931"/>
<polygon fill="#191970" stroke="#191970" points="791.362,-728.4824 801.2429,-724.659 791.1343,-721.4861 791.362,-728.4824"/>
</g>
<!-- Node489805 -->
<g id="node6" class="node">
<title>Node489805</title>
<g id="a_node6"><a xlink:href="quickjs_8h.html#a775522f2d084fc8fa0fcb33f390006b4" target="_top" xlink:title="JS_DupValue">
<polygon fill="none" stroke="#000000" points="980,-712.7891 980,-731.7891 1057,-731.7891 1057,-712.7891 980,-712.7891"/>
<text text-anchor="middle" x="1018.5" y="-719.7891" font-family="Helvetica,sans-Serif" font-size="10.00" fill="#000000">JS_DupValue</text>
</a>
</g>
</g>
<!-- Node489799&#45;&gt;Node489805 -->
<g id="edge27" class="edge">
<title>Node489799&#45;&gt;Node489805</title>
<path fill="none" stroke="#191970" d="M84.9541,-389.989C87.5493,-433.6939 104.2285,-613.971 205,-701.2891 297.3382,-781.2997 351.3196,-760.2891 473.5,-760.2891 473.5,-760.2891 473.5,-760.2891 664.5,-760.2891 786.3485,-760.2891 817.5301,-759.5666 938,-741.2891 949.6395,-739.5231 962.08,-736.9396 973.6148,-734.2433"/>
<polygon fill="#191970" stroke="#191970" points="974.5761,-737.6119 983.4753,-731.8625 972.9331,-730.8074 974.5761,-737.6119"/>
</g>
<!-- Node489806 -->
<g id="node7" class="node">
<title>Node489806</title>
<g id="a_node7"><a xlink:href="quickjs_8h.html#afaa20c47565bc704c6c85f3d77254e7d" target="_top" xlink:title="JS_FreeValue">
<polygon fill="none" stroke="#ff0000" points="979.5,-294.7891 979.5,-313.7891 1057.5,-313.7891 1057.5,-294.7891 979.5,-294.7891"/>
<text text-anchor="middle" x="1018.5" y="-301.7891" font-family="Helvetica,sans-Serif" font-size="10.00" fill="#000000">JS_FreeValue</text>
</a>
</g>
</g>
<!-- Node489799&#45;&gt;Node489806 -->
<g id="edge28" class="edge">
<title>Node489799&#45;&gt;Node489806</title>
<path fill="none" stroke="#191970" d="M86.461,-370.4716C96.933,-319.0854 147.9265,-81.7976 205,-38.2891 300.1396,34.2382 353.8683,-19.2891 473.5,-19.2891 473.5,-19.2891 473.5,-19.2891 664.5,-19.2891 786.6909,-19.2891 843.3448,29.9832 938,-47.2891 975.7873,-78.1369 1005.4554,-229.434 1015.1361,-284.3374"/>
<polygon fill="#191970" stroke="#191970" points="1011.7425,-285.2541 1016.8942,-294.5121 1018.6403,-284.0622 1011.7425,-285.2541"/>
</g>
<!-- Node489846 -->
<g id="node8" class="node">
<title>Node489846</title>
<g id="a_node8"><a xlink:href="quickjs_8h.html#a89b7c8686c7eee70b86be722ee4730ad" target="_top" xlink:title="JS_GetProperty">
<polygon fill="none" stroke="#ff0000" points="974,-446.7891 974,-465.7891 1063,-465.7891 1063,-446.7891 974,-446.7891"/>
<text text-anchor="middle" x="1018.5" y="-453.7891" font-family="Helvetica,sans-Serif" font-size="10.00" fill="#000000">JS_GetProperty</text>
</a>
</g>
</g>
<!-- Node489799&#45;&gt;Node489846 -->
<g id="edge36" class="edge">
<title>Node489799&#45;&gt;Node489846</title>
<path fill="none" stroke="#191970" d="M108.3157,-370.7853C231.8422,-322.1796 799.1963,-107.5616 938,-209.2891 980.8558,-240.6975 957.5699,-272.7602 974,-323.2891 987.176,-363.8105 1003.1328,-411.0825 1011.9114,-436.9401"/>
<polygon fill="#191970" stroke="#191970" points="1008.6726,-438.2874 1015.2051,-446.6287 1015.3001,-436.0343 1008.6726,-438.2874"/>
</g>
<!-- Node489855 -->
<g id="node9" class="node">
<title>Node489855</title>
<g id="a_node9"><a xlink:href="quickjs_8h.html#ad80a83d73e9b7d872b88fbf2943aebe9" target="_top" xlink:title="JS_IsException">
<polygon fill="none" stroke="#000000" points="975,-560.7891 975,-579.7891 1062,-579.7891 1062,-560.7891 975,-560.7891"/>
<text text-anchor="middle" x="1018.5" y="-567.7891" font-family="Helvetica,sans-Serif" font-size="10.00" fill="#000000">JS_IsException</text>
</a>
</g>
</g>
<!-- Node489799&#45;&gt;Node489855 -->
<g id="edge39" class="edge">
<title>Node489799&#45;&gt;Node489855</title>
<path fill="none" stroke="#191970" d="M92.7373,-389.7957C131.0926,-432.9464 297.7611,-608.2891 473.5,-608.2891 473.5,-608.2891 473.5,-608.2891 664.5,-608.2891 786.4482,-608.2891 817.2151,-603.0927 938,-586.2891 946.8185,-585.0622 956.128,-583.4811 965.1633,-581.7917"/>
<polygon fill="#191970" stroke="#191970" points="966.0527,-585.1847 975.2073,-579.8514 964.725,-578.3117 966.0527,-585.1847"/>
</g>
<!-- Node490011 -->
<g id="node10" class="node">
<title>Node490011</title>
<g id="a_node10"><a xlink:href="quickjs_8h.html#a4e407128a9605afb77523e49e9a627fd" target="_top" xlink:title="JS_IsUndefined">
<polygon fill="none" stroke="#000000" points="974,-769.7891 974,-788.7891 1063,-788.7891 1063,-769.7891 974,-769.7891"/>
<text text-anchor="middle" x="1018.5" y="-776.7891" font-family="Helvetica,sans-Serif" font-size="10.00" fill="#000000">JS_IsUndefined</text>
</a>
</g>
</g>
<!-- Node489799&#45;&gt;Node490011 -->
<g id="edge41" class="edge">
<title>Node489799&#45;&gt;Node490011</title>
<path fill="none" stroke="#191970" d="M86.3272,-389.9252C96.4967,-442.5524 147.7279,-694.7113 205,-745.2891 296.1729,-825.805 351.864,-798.2891 473.5,-798.2891 473.5,-798.2891 473.5,-798.2891 664.5,-798.2891 770.4603,-798.2891 894.0049,-789.696 963.5602,-784.0677"/>
<polygon fill="#191970" stroke="#191970" points="964.1547,-787.5308 973.8355,-783.2259 963.5831,-780.5541 964.1547,-787.5308"/>
</g>
<!-- Node490238 -->
<g id="node12" class="node">
<title>Node490238</title>
<g id="a_node12"><a xlink:href="quickjs_8c.html#a54596af885c45bf0281d53985349e9ef" target="_top" xlink:title="js_array_from_iterator">
<polygon fill="none" stroke="#000000" points="602,-370.7891 602,-389.7891 727,-389.7891 727,-370.7891 602,-370.7891"/>
<text text-anchor="middle" x="664.5" y="-377.7891" font-family="Helvetica,sans-Serif" font-size="10.00" fill="#000000">js_array_from_iterator</text>
</a>
</g>
</g>
<!-- Node489799&#45;&gt;Node490238 -->
<g id="edge13" class="edge">
<title>Node489799&#45;&gt;Node490238</title>
<path fill="none" stroke="#191970" d="M169.1473,-380.2891C283.2168,-380.2891 484.3447,-380.2891 591.88,-380.2891"/>
<polygon fill="#191970" stroke="#191970" points="591.9885,-383.7892 601.9884,-380.2891 591.9884,-376.7892 591.9885,-383.7892"/>
</g>
<!-- Node490239 -->
<g id="node17" class="node">
<title>Node490239</title>
<g id="a_node17"><a xlink:href="quickjs_8c.html#a5f848f76409193212a44e6221e430919" target="_top" xlink:title="js_get_length64">
<polygon fill="none" stroke="#000000" points="426.5,-503.7891 426.5,-522.7891 520.5,-522.7891 520.5,-503.7891 426.5,-503.7891"/>
<text text-anchor="middle" x="473.5" y="-510.7891" font-family="Helvetica,sans-Serif" font-size="10.00" fill="#000000">js_get_length64</text>
</a>
</g>
</g>
<!-- Node489799&#45;&gt;Node490239 -->
<g id="edge29" class="edge">
<title>Node489799&#45;&gt;Node490239</title>
<path fill="none" stroke="#191970" d="M112.4759,-389.8541C181.082,-413.3107 357.7413,-473.7109 435.6402,-500.3447"/>
<polygon fill="#191970" stroke="#191970" points="434.9222,-503.7981 445.5168,-503.7215 437.1868,-497.1745 434.9222,-503.7981"/>
</g>
<!-- Node489930 -->
<g id="node20" class="node">
<title>Node489930</title>
<g id="a_node20"><a xlink:href="quickjs_8c.html#aeb97957655d979e9fe56c955da2b2d4b" target="_top" xlink:title="JS_GetPropertyUint32">
<polygon fill="none" stroke="#ff0000" points="221.5,-123.7891 221.5,-142.7891 343.5,-142.7891 343.5,-123.7891 221.5,-123.7891"/>
<text text-anchor="middle" x="282.5" y="-130.7891" font-family="Helvetica,sans-Serif" font-size="10.00" fill="#000000">JS_GetPropertyUint32</text>
</a>
</g>
</g>
<!-- Node489799&#45;&gt;Node489930 -->
<g id="edge37" class="edge">
<title>Node489799&#45;&gt;Node489930</title>
<path fill="none" stroke="#191970" d="M86.5902,-370.6778C94.7726,-335.4481 128.0457,-212.3239 205,-152.2891 207.304,-150.4916 209.7545,-148.8614 212.3117,-147.3831"/>
<polygon fill="#191970" stroke="#191970" points="213.9399,-150.4826 221.3594,-142.9194 210.8428,-144.205 213.9399,-150.4826"/>
</g>
<!-- Node490009 -->
<g id="node22" class="node">
<title>Node490009</title>
<g id="a_node22"><a xlink:href="quickjs_8h.html#a149f24b67e745bad93573b3b4c80db4c" target="_top" xlink:title="JS_IsNull">
<polygon fill="none" stroke="#000000" points="253,-85.7891 253,-104.7891 312,-104.7891 312,-85.7891 253,-85.7891"/>
<text text-anchor="middle" x="282.5" y="-92.7891" font-family="Helvetica,sans-Serif" font-size="10.00" fill="#000000">JS_IsNull</text>
</a>
</g>
</g>
<!-- Node489799&#45;&gt;Node490009 -->
<g id="edge40" class="edge">
<title>Node489799&#45;&gt;Node490009</title>
<path fill="none" stroke="#191970" d="M85.8073,-370.7459C91.6257,-332.0974 118.7969,-185.8615 205,-114.2891 215.6168,-105.4742 229.7049,-100.6425 242.9557,-98.0288"/>
<polygon fill="#191970" stroke="#191970" points="243.5386,-101.4801 252.8541,-96.4332 242.4245,-94.5693 243.5386,-101.4801"/>
</g>
<!-- Node490243 -->
<g id="node23" class="node">
<title>Node490243</title>
<g id="a_node23"><a xlink:href="quickjs_8c.html#aae909eaec829081b270012adfcd717a4" target="_top" xlink:title="JS_SetPropertyUint32">
<polygon fill="none" stroke="#000000" points="222.5,-47.7891 222.5,-66.7891 342.5,-66.7891 342.5,-47.7891 222.5,-47.7891"/>
<text text-anchor="middle" x="282.5" y="-54.7891" font-family="Helvetica,sans-Serif" font-size="10.00" fill="#000000">JS_SetPropertyUint32</text>
</a>
</g>
</g>
<!-- Node489799&#45;&gt;Node490243 -->
<g id="edge42" class="edge">
<title>Node489799&#45;&gt;Node490243</title>
<path fill="none" stroke="#191970" d="M85.2331,-370.5837C88.959,-328.4121 109.562,-159.4754 205,-76.2891 207.5586,-74.059 210.3372,-72.0817 213.2704,-70.3293"/>
<polygon fill="#191970" stroke="#191970" points="215.0969,-73.3289 222.4681,-65.7187 211.96,-67.0711 215.0969,-73.3289"/>
</g>
<!-- Node490244 -->
<g id="node25" class="node">
<title>Node490244</title>
<g id="a_node25"><a xlink:href="quickjs_8c.html#aa74340c43f57c6a6d9210a7cbb191e71" target="_top" xlink:title="typed_array_init">
<polygon fill="none" stroke="#000000" points="234.5,-161.7891 234.5,-180.7891 330.5,-180.7891 330.5,-161.7891 234.5,-161.7891"/>
<text text-anchor="middle" x="282.5" y="-168.7891" font-family="Helvetica,sans-Serif" font-size="10.00" fill="#000000">typed_array_init</text>
</a>
</g>
</g>
<!-- Node489799&#45;&gt;Node490244 -->
<g id="edge46" class="edge">
<title>Node489799&#45;&gt;Node490244</title>
<path fill="none" stroke="#191970" d="M88.0429,-370.5489C99.6949,-339.8908 139.8514,-244.4965 205,-195.2891 210.8726,-190.8534 217.5765,-187.2286 224.5276,-184.2685"/>
<polygon fill="#191970" stroke="#191970" points="225.9997,-187.4534 234.1049,-180.6302 223.5137,-180.9096 225.9997,-187.4534"/>
</g>
<!-- Node489801 -->
<g id="node3" class="node">
<title>Node489801</title>
<g id="a_node3"><a xlink:href="quickjs_8c.html#a26d438ccdb07d84370683eb01eda3013" target="_top" xlink:title="js_array_buffer_constructor2">
<polygon fill="none" stroke="#000000" points="396,-636.7891 396,-655.7891 551,-655.7891 551,-636.7891 396,-636.7891"/>
<text text-anchor="middle" x="473.5" y="-643.7891" font-family="Helvetica,sans-Serif" font-size="10.00" fill="#000000">js_array_buffer_constructor2</text>
</a>
</g>
</g>
<!-- Node489800&#45;&gt;Node489801 -->
<g id="edge2" class="edge">
<title>Node489800&#45;&gt;Node489801</title>
<path fill="none" stroke="#191970" d="M360.187,-646.2891C368.6495,-646.2891 377.3055,-646.2891 385.8763,-646.2891"/>
<polygon fill="#191970" stroke="#191970" points="385.8819,-649.7892 395.8818,-646.2891 385.8818,-642.7892 385.8819,-649.7892"/>
</g>
<!-- Node489802 -->
<g id="node4" class="node">
<title>Node489802</title>
<g id="a_node4"><a xlink:href="quickjs_8c.html#a06f84cf8ea00e2baf1a9b94f1a319b18" target="_top" xlink:title="js_array_buffer_constructor3">
<polygon fill="none" stroke="#ff0000" points="587,-636.7891 587,-655.7891 742,-655.7891 742,-636.7891 587,-636.7891"/>
<text text-anchor="middle" x="664.5" y="-643.7891" font-family="Helvetica,sans-Serif" font-size="10.00" fill="#000000">js_array_buffer_constructor3</text>
</a>
</g>
</g>
<!-- Node489801&#45;&gt;Node489802 -->
<g id="edge3" class="edge">
<title>Node489801&#45;&gt;Node489802</title>
<path fill="none" stroke="#191970" d="M551.187,-646.2891C559.6495,-646.2891 568.3055,-646.2891 576.8763,-646.2891"/>
<polygon fill="#191970" stroke="#191970" points="576.8819,-649.7892 586.8818,-646.2891 576.8818,-642.7892 576.8819,-649.7892"/>
</g>
<!-- Node490237 -->
<g id="node11" class="node">
<title>Node490237</title>
<g id="a_node11"><a xlink:href="quickjs_8c.html#a4e2ed26457b779e5bd73472de8be124c" target="_top" xlink:title="js_array_buffer_free">
<polygon fill="none" stroke="#ff0000" points="607.5,-674.7891 607.5,-693.7891 721.5,-693.7891 721.5,-674.7891 607.5,-674.7891"/>
<text text-anchor="middle" x="664.5" y="-681.7891" font-family="Helvetica,sans-Serif" font-size="10.00" fill="#000000">js_array_buffer_free</text>
</a>
</g>
</g>
<!-- Node489801&#45;&gt;Node490237 -->
<g id="edge12" class="edge">
<title>Node489801&#45;&gt;Node490237</title>
<path fill="none" stroke="#191970" d="M521.6974,-655.8781C547.4696,-661.0055 579.3906,-667.3563 606.5124,-672.7523"/>
<polygon fill="#191970" stroke="#191970" points="606.1585,-676.2504 616.6492,-674.769 607.5244,-669.3849 606.1585,-676.2504"/>
</g>
<!-- Node489802&#45;&gt;Node489804 -->
<g id="edge4" class="edge">
<title>Node489802&#45;&gt;Node489804</title>
<path fill="none" stroke="#191970" d="M720.2151,-655.8221C727.811,-658.2895 735.2925,-661.3912 742,-665.2891 762.1147,-676.9781 757.8431,-691.673 778,-703.2891 782.2594,-705.7437 786.8205,-707.8817 791.525,-709.7439"/>
<polygon fill="#191970" stroke="#191970" points="790.7378,-713.1771 801.3326,-713.1921 793.0596,-706.5734 790.7378,-713.1771"/>
</g>
<!-- Node489802&#45;&gt;Node489806 -->
<g id="edge10" class="edge">
<title>Node489802&#45;&gt;Node489806</title>
<path fill="none" stroke="#191970" d="M675.2416,-636.6578C692.3072,-620.702 725.3783,-586.9864 742,-551.2891 778.2792,-473.3745 718.2701,-423.0888 778,-361.2891 828.6551,-308.8786 867.17,-342.4909 938,-325.2891 949.3983,-322.5209 961.6659,-319.3956 973.1043,-316.4185"/>
<polygon fill="#191970" stroke="#191970" points="974.113,-319.7724 982.9,-313.853 972.3395,-313.0008 974.113,-319.7724"/>
</g>
<!-- Node489802&#45;&gt;Node489855 -->
<g id="edge11" class="edge">
<title>Node489802&#45;&gt;Node489855</title>
<path fill="none" stroke="#191970" d="M742.0039,-649.3157C797.9175,-649.1663 874.4301,-644.1009 938,-622.2891 960.8904,-614.435 983.7566,-598.719 999.2365,-586.6106"/>
<polygon fill="#191970" stroke="#191970" points="1001.8604,-588.9904 1007.4417,-579.9849 997.4627,-583.5443 1001.8604,-588.9904"/>
</g>
<!-- Node489804&#45;&gt;Node489805 -->
<g id="edge5" class="edge">
<title>Node489804&#45;&gt;Node489805</title>
<path fill="none" stroke="#191970" d="M914.5863,-722.2891C932.3744,-722.2891 951.8659,-722.2891 969.1136,-722.2891"/>
<polygon fill="#191970" stroke="#191970" points="969.5274,-725.7892 979.5274,-722.2891 969.5274,-718.7892 969.5274,-725.7892"/>
</g>
<!-- Node489804&#45;&gt;Node489806 -->
<g id="edge6" class="edge">
<title>Node489804&#45;&gt;Node489806</title>
<path fill="none" stroke="#191970" d="M914.7433,-717.8256C923.5467,-714.7753 931.7703,-710.1658 938,-703.2891 978.0478,-659.0816 960.4767,-495.3859 974,-437.2891 983.6118,-395.9962 1000.7356,-349.3452 1010.7057,-323.7286"/>
<polygon fill="#191970" stroke="#191970" points="1014.0843,-324.7017 1014.4978,-314.1149 1007.5725,-322.1331 1014.0843,-324.7017"/>
</g>
<!-- Node489804&#45;&gt;Node489846 -->
<g id="edge7" class="edge">
<title>Node489804&#45;&gt;Node489846</title>
<path fill="none" stroke="#191970" d="M914.6018,-717.1629C923.3127,-714.1699 931.5418,-709.7513 938,-703.2891 987.0752,-654.1833 951.1549,-616.8471 974,-551.2891 983.5507,-523.8816 998.4547,-493.7835 1008.3463,-474.9651"/>
<polygon fill="#191970" stroke="#191970" points="1011.514,-476.4632 1013.1336,-465.9928 1005.3381,-473.1678 1011.514,-476.4632"/>
</g>
<!-- Node489804&#45;&gt;Node489855 -->
<g id="edge8" class="edge">
<title>Node489804&#45;&gt;Node489855</title>
<path fill="none" stroke="#191970" d="M914.7043,-714.8029C923.0067,-712.058 931.0784,-708.3341 938,-703.2891 977.8228,-674.2629 1001.7889,-618.9892 1012.2603,-589.6713"/>
<polygon fill="#191970" stroke="#191970" points="1015.5953,-590.7356 1015.5121,-580.1411 1008.9703,-588.4751 1015.5953,-590.7356"/>
</g>
<!-- Node489804&#45;&gt;Node490011 -->
<g id="edge9" class="edge">
<title>Node489804&#45;&gt;Node490011</title>
<path fill="none" stroke="#191970" d="M884.8641,-731.8296C911.4824,-741.2828 952.4422,-755.8293 981.999,-766.3261"/>
<polygon fill="#191970" stroke="#191970" points="980.9535,-769.6689 991.5483,-769.7174 983.2962,-763.0726 980.9535,-769.6689"/>
</g>
<!-- Node490238&#45;&gt;Node489806 -->
<g id="edge15" class="edge">
<title>Node490238&#45;&gt;Node489806</title>
<path fill="none" stroke="#191970" d="M667.3703,-370.4732C676.9595,-339.7217 711.1209,-245.1689 778,-209.2891 840.6628,-175.6712 873.479,-179.392 938,-209.2891 971.8307,-224.9652 996.6161,-262.6406 1009.188,-285.5562"/>
<polygon fill="#191970" stroke="#191970" points="1006.2098,-287.4131 1013.9566,-294.6407 1012.4078,-284.1597 1006.2098,-287.4131"/>
</g>
<!-- Node490238&#45;&gt;Node489846 -->
<g id="edge19" class="edge">
<title>Node490238&#45;&gt;Node489846</title>
<path fill="none" stroke="#191970" d="M679.1605,-390.0012C700.0899,-403.3034 740.195,-426.7398 778,-437.2891 839.9562,-454.5777 914.1297,-457.961 963.5646,-457.9009"/>
<polygon fill="#191970" stroke="#191970" points="963.746,-461.4 973.7247,-457.8396 963.7037,-454.4001 963.746,-461.4"/>
</g>
<!-- Node490238&#45;&gt;Node489855 -->
<g id="edge20" class="edge">
<title>Node490238&#45;&gt;Node489855</title>
<path fill="none" stroke="#191970" d="M676.2428,-389.8451C696.2934,-405.8866 738.7749,-438.6904 778,-461.2891 848.0874,-501.6684 935.8135,-538.1673 983.5666,-556.9519"/>
<polygon fill="#191970" stroke="#191970" points="982.5411,-560.3088 993.1292,-560.6865 985.0876,-553.7884 982.5411,-560.3088"/>
</g>
<!-- Node490065 -->
<g id="node13" class="node">
<title>Node490065</title>
<g id="a_node13"><a xlink:href="quickjs_8c.html#aa44ddb5f94a842c9c5152a17032de580" target="_top" xlink:title="JS_CreateDataPropertyUint32">
<polygon fill="none" stroke="#ff0000" points="778,-218.7891 778,-237.7891 938,-237.7891 938,-218.7891 778,-218.7891"/>
<text text-anchor="middle" x="858" y="-225.7891" font-family="Helvetica,sans-Serif" font-size="10.00" fill="#000000">JS_CreateDataPropertyUint32</text>
</a>
</g>
</g>
<!-- Node490238&#45;&gt;Node490065 -->
<g id="edge14" class="edge">
<title>Node490238&#45;&gt;Node490065</title>
<path fill="none" stroke="#191970" d="M669.6923,-370.7832C683.6663,-346.1511 724.6496,-279.9076 778,-247.2891 781.5624,-245.111 785.3552,-243.1826 789.2791,-241.4753"/>
<polygon fill="#191970" stroke="#191970" points="790.5499,-244.7365 798.6263,-237.8792 788.0364,-238.2033 790.5499,-244.7365"/>
</g>
<!-- Node490081 -->
<g id="node14" class="node">
<title>Node490081</title>
<g id="a_node14"><a xlink:href="quickjs_8c.html#aa049793cc8648d35fe81876a2543ca4e" target="_top" xlink:title="JS_GetIterator2">
<polygon fill="none" stroke="#ff0000" points="813,-370.7891 813,-389.7891 903,-389.7891 903,-370.7891 813,-370.7891"/>
<text text-anchor="middle" x="858" y="-377.7891" font-family="Helvetica,sans-Serif" font-size="10.00" fill="#000000">JS_GetIterator2</text>
</a>
</g>
</g>
<!-- Node490238&#45;&gt;Node490081 -->
<g id="edge16" class="edge">
<title>Node490238&#45;&gt;Node490081</title>
<path fill="none" stroke="#191970" d="M727.0567,-380.2891C751.3912,-380.2891 779.0378,-380.2891 802.6365,-380.2891"/>
<polygon fill="#191970" stroke="#191970" points="802.8232,-383.7892 812.8232,-380.2891 802.8232,-376.7892 802.8232,-383.7892"/>
</g>
<!-- Node490086 -->
<g id="node15" class="node">
<title>Node490086</title>
<g id="a_node15"><a xlink:href="quickjs_8c.html#a44f6eee98516c994a594533cfa8618ed" target="_top" xlink:title="JS_IteratorNext">
<polygon fill="none" stroke="#ff0000" points="813,-408.7891 813,-427.7891 903,-427.7891 903,-408.7891 813,-408.7891"/>
<text text-anchor="middle" x="858" y="-415.7891" font-family="Helvetica,sans-Serif" font-size="10.00" fill="#000000">JS_IteratorNext</text>
</a>
</g>
</g>
<!-- Node490238&#45;&gt;Node490086 -->
<g id="edge21" class="edge">
<title>Node490238&#45;&gt;Node490086</title>
<path fill="none" stroke="#191970" d="M713.3282,-389.8781C740.5499,-395.2239 774.5429,-401.8996 802.7372,-407.4364"/>
<polygon fill="#191970" stroke="#191970" points="802.3519,-410.9275 812.8389,-409.4202 803.7008,-404.0587 802.3519,-410.9275"/>
</g>
<!-- Node490068 -->
<g id="node16" class="node">
<title>Node490068</title>
<g id="a_node16"><a xlink:href="quickjs_8c.html#ad4ba09e4c7ab9f28c144182e1aacf1f6" target="_top" xlink:title="JS_NewArray">
<polygon fill="none" stroke="#ff0000" points="818.5,-256.7891 818.5,-275.7891 897.5,-275.7891 897.5,-256.7891 818.5,-256.7891"/>
<text text-anchor="middle" x="858" y="-263.7891" font-family="Helvetica,sans-Serif" font-size="10.00" fill="#000000">JS_NewArray</text>
</a>
</g>
</g>
<!-- Node490238&#45;&gt;Node490068 -->
<g id="edge25" class="edge">
<title>Node490238&#45;&gt;Node490068</title>
<path fill="none" stroke="#191970" d="M673.9203,-370.6995C692.3108,-352.494 734.9703,-312.7424 778,-290.2891 787.4498,-285.3581 798.0687,-281.2801 808.4062,-277.9718"/>
<polygon fill="#191970" stroke="#191970" points="809.6145,-281.2633 818.1838,-275.033 807.5996,-274.5596 809.6145,-281.2633"/>
</g>
<!-- Node490081&#45;&gt;Node489806 -->
<g id="edge17" class="edge">
<title>Node490081&#45;&gt;Node489806</title>
<path fill="none" stroke="#191970" d="M897.8766,-370.7202C910.9517,-366.9573 925.3613,-362.1236 938,-356.2891 959.467,-346.379 981.907,-331.4474 997.6246,-320.1232"/>
<polygon fill="#191970" stroke="#191970" points="1000.0572,-322.6791 1006.0439,-313.9378 995.9127,-317.0379 1000.0572,-322.6791"/>
</g>
<!-- Node490081&#45;&gt;Node489855 -->
<g id="edge18" class="edge">
<title>Node490081&#45;&gt;Node489855</title>
<path fill="none" stroke="#191970" d="M903.1238,-383.7724C915.4626,-386.5441 928.1369,-391.2806 938,-399.2891 938.4043,-399.6174 988.8719,-507.1335 1009.6829,-551.4919"/>
<polygon fill="#191970" stroke="#191970" points="1006.5529,-553.0607 1013.9686,-560.6276 1012.8902,-550.0878 1006.5529,-553.0607"/>
</g>
<!-- Node490086&#45;&gt;Node489806 -->
<g id="edge22" class="edge">
<title>Node490086&#45;&gt;Node489806</title>
<path fill="none" stroke="#191970" d="M903.1391,-412.7772C915.0756,-409.9627 927.5371,-405.7112 938,-399.2891 969.4565,-379.981 994.7605,-344.1715 1008.1269,-322.4594"/>
<polygon fill="#191970" stroke="#191970" points="1011.1471,-324.2282 1013.2578,-313.8457 1005.1332,-320.6458 1011.1471,-324.2282"/>
</g>
<!-- Node490086&#45;&gt;Node489846 -->
<g id="edge23" class="edge">
<title>Node490086&#45;&gt;Node489846</title>
<path fill="none" stroke="#191970" d="M898.5009,-427.8781C919.6806,-432.8926 945.8022,-439.0771 968.2604,-444.3943"/>
<polygon fill="#191970" stroke="#191970" points="967.7529,-447.8709 978.2903,-446.769 969.3657,-441.0592 967.7529,-447.8709"/>
</g>
<!-- Node490086&#45;&gt;Node489855 -->
<g id="edge24" class="edge">
<title>Node490086&#45;&gt;Node489855</title>
<path fill="none" stroke="#191970" d="M871.9114,-427.8891C888.3696,-439.5081 916.2755,-460.0431 938,-480.2891 963.0222,-503.6083 988.8486,-533.7615 1004.2899,-552.565"/>
<polygon fill="#191970" stroke="#191970" points="1001.7762,-555.0214 1010.8004,-560.5726 1007.2076,-550.6055 1001.7762,-555.0214"/>
</g>
<!-- Node490239&#45;&gt;Node489846 -->
<g id="edge30" class="edge">
<title>Node490239&#45;&gt;Node489846</title>
<path fill="none" stroke="#191970" d="M520.9118,-508.3304C621.6646,-497.7929 856.5988,-473.2219 963.6256,-462.0282"/>
<polygon fill="#191970" stroke="#191970" points="964.3006,-465.4768 973.8823,-460.9555 963.5724,-458.5148 964.3006,-465.4768"/>
</g>
<!-- Node490239&#45;&gt;Node489855 -->
<g id="edge31" class="edge">
<title>Node490239&#45;&gt;Node489855</title>
<path fill="none" stroke="#191970" d="M496.0452,-522.9244C518.5989,-532.0606 554.5149,-545.259 587,-551.2891 721.1578,-576.1924 882.6098,-575.2924 964.7708,-572.6892"/>
<polygon fill="#191970" stroke="#191970" points="964.9934,-576.1838 974.8694,-572.3477 964.7568,-569.1878 964.9934,-576.1838"/>
</g>
<!-- Node490240 -->
<g id="node18" class="node">
<title>Node490240</title>
<g id="a_node18"><a xlink:href="quickjs_8c.html#a07acd485a57197356906928a788a0644" target="_top" xlink:title="JS_ToLengthFree">
<polygon fill="none" stroke="#000000" points="617,-522.7891 617,-541.7891 712,-541.7891 712,-522.7891 617,-522.7891"/>
<text text-anchor="middle" x="664.5" y="-529.7891" font-family="Helvetica,sans-Serif" font-size="10.00" fill="#000000">JS_ToLengthFree</text>
</a>
</g>
</g>
<!-- Node490239&#45;&gt;Node490240 -->
<g id="edge32" class="edge">
<title>Node490239&#45;&gt;Node490240</title>
<path fill="none" stroke="#191970" d="M520.7135,-517.9857C546.6718,-520.5679 579.0891,-523.7927 606.5692,-526.5263"/>
<polygon fill="#191970" stroke="#191970" points="606.5383,-530.0404 616.8357,-527.5476 607.2313,-523.0748 606.5383,-530.0404"/>
</g>
<!-- Node490240&#45;&gt;Node489806 -->
<g id="edge33" class="edge">
<title>Node490240&#45;&gt;Node489806</title>
<path fill="none" stroke="#191970" d="M670.335,-522.7199C683.519,-501.0046 716.4487,-446.2348 742,-399.2891 758.9136,-368.2136 748.8095,-348.2807 778,-328.2891 834.6362,-289.5009 917.0999,-290.4861 969.2531,-296.2512"/>
<polygon fill="#191970" stroke="#191970" points="968.916,-299.7358 979.263,-297.4575 969.7537,-292.7861 968.916,-299.7358"/>
</g>
<!-- Node490241 -->
<g id="node19" class="node">
<title>Node490241</title>
<g id="a_node19"><a xlink:href="quickjs_8c.html#a537e88d38784e3df2a19c72f8bd1d77e" target="_top" xlink:title="JS_ToInt64Clamp">
<polygon fill="none" stroke="#ff0000" points="809,-674.7891 809,-693.7891 907,-693.7891 907,-674.7891 809,-674.7891"/>
<text text-anchor="middle" x="858" y="-681.7891" font-family="Helvetica,sans-Serif" font-size="10.00" fill="#000000">JS_ToInt64Clamp</text>
</a>
</g>
</g>
<!-- Node490240&#45;&gt;Node490241 -->
<g id="edge34" class="edge">
<title>Node490240&#45;&gt;Node490241</title>
<path fill="none" stroke="#191970" d="M676.6043,-541.7973C708.9788,-567.2285 797.8152,-637.0121 837.9045,-668.5035"/>
<polygon fill="#191970" stroke="#191970" points="835.8743,-671.3594 845.9003,-674.7844 840.1984,-665.8547 835.8743,-671.3594"/>
</g>
<!-- Node490241&#45;&gt;Node489805 -->
<g id="edge35" class="edge">
<title>Node490241&#45;&gt;Node489805</title>
<path fill="none" stroke="#191970" d="M898.5009,-693.8781C920.2614,-699.0301 947.2385,-705.4172 970.0994,-710.8297"/>
<polygon fill="#191970" stroke="#191970" points="969.4104,-714.2633 979.9478,-713.1614 971.0232,-707.4516 969.4104,-714.2633"/>
</g>
<!-- Node489932 -->
<g id="node21" class="node">
<title>Node489932</title>
<g id="a_node21"><a xlink:href="quickjs_8h.html#a88259aa0da61ac754402c64ccecee116" target="_top" xlink:title="JS_NewUint32">
<polygon fill="none" stroke="#ff0000" points="431,-85.7891 431,-104.7891 516,-104.7891 516,-85.7891 431,-85.7891"/>
<text text-anchor="middle" x="473.5" y="-92.7891" font-family="Helvetica,sans-Serif" font-size="10.00" fill="#000000">JS_NewUint32</text>
</a>
</g>
</g>
<!-- Node489930&#45;&gt;Node489932 -->
<g id="edge38" class="edge">
<title>Node489930&#45;&gt;Node489932</title>
<path fill="none" stroke="#191970" d="M330.6974,-123.7001C358.1579,-118.2367 392.5993,-111.3845 420.7777,-105.7783"/>
<polygon fill="#191970" stroke="#191970" points="421.7265,-109.1582 430.8513,-103.7741 420.3606,-102.2928 421.7265,-109.1582"/>
</g>
<!-- Node490243&#45;&gt;Node489932 -->
<g id="edge43" class="edge">
<title>Node490243&#45;&gt;Node489932</title>
<path fill="none" stroke="#191970" d="M330.6974,-66.8781C358.1579,-72.3414 392.5993,-79.1936 420.7777,-84.7998"/>
<polygon fill="#191970" stroke="#191970" points="420.3606,-88.2854 430.8513,-86.804 421.7265,-81.4199 420.3606,-88.2854"/>
</g>
<!-- Node490025 -->
<g id="node24" class="node">
<title>Node490025</title>
<g id="a_node24"><a xlink:href="quickjs_8c.html#aee75cc1546e19479e3ccda58f3b50a96" target="_top" xlink:title="JS_SetPropertyValue">
<polygon fill="none" stroke="#ff0000" points="607,-47.7891 607,-66.7891 722,-66.7891 722,-47.7891 607,-47.7891"/>
<text text-anchor="middle" x="664.5" y="-54.7891" font-family="Helvetica,sans-Serif" font-size="10.00" fill="#000000">JS_SetPropertyValue</text>
</a>
</g>
</g>
<!-- Node490243&#45;&gt;Node490025 -->
<g id="edge44" class="edge">
<title>Node490243&#45;&gt;Node490025</title>
<path fill="none" stroke="#191970" d="M342.6077,-57.2891C411.5978,-57.2891 524.4876,-57.2891 596.5961,-57.2891"/>
<polygon fill="#191970" stroke="#191970" points="596.9291,-60.7892 606.9291,-57.2891 596.9291,-53.7892 596.9291,-60.7892"/>
</g>
<!-- Node490025&#45;&gt;Node489806 -->
<g id="edge45" class="edge">
<title>Node490025&#45;&gt;Node489806</title>
<path fill="none" stroke="#191970" d="M722.0733,-50.8121C782.4059,-47.2525 876.7617,-51.2276 938,-100.2891 996.6673,-147.2907 1012.7237,-243.1348 1016.9998,-284.5257"/>
<polygon fill="#191970" stroke="#191970" points="1013.5308,-285.0269 1017.9191,-294.6702 1020.5022,-284.3951 1013.5308,-285.0269"/>
</g>
<!-- Node490244&#45;&gt;Node489806 -->
<g id="edge47" class="edge">
<title>Node490244&#45;&gt;Node489806</title>
<path fill="none" stroke="#191970" d="M330.5128,-167.9086C446.2068,-159.789 734.1086,-139.749 778,-138.2891 849.0718,-135.925 877.737,-100.5378 938,-138.2891 990.149,-170.9573 1009.3638,-248.0879 1015.7058,-284.5441"/>
<polygon fill="#191970" stroke="#191970" points="1012.2553,-285.1321 1017.283,-294.458 1019.1684,-284.0323 1012.2553,-285.1321"/>
</g>
<!-- Node489837 -->
<g id="node26" class="node">
<title>Node489837</title>
<g id="a_node26"><a xlink:href="list_8h.html#a3a5d0733570b2fafc18f4c71a2968ea5" target="_top" xlink:title="list_add_tail">
<polygon fill="none" stroke="#ff0000" points="435.5,-123.7891 435.5,-142.7891 511.5,-142.7891 511.5,-123.7891 435.5,-123.7891"/>
<text text-anchor="middle" x="473.5" y="-130.7891" font-family="Helvetica,sans-Serif" font-size="10.00" fill="#000000">list_add_tail</text>
</a>
</g>
</g>
<!-- Node490244&#45;&gt;Node489837 -->
<g id="edge48" class="edge">
<title>Node490244&#45;&gt;Node489837</title>
<path fill="none" stroke="#191970" d="M330.6974,-161.7001C359.6623,-155.9374 396.394,-148.6295 425.3504,-142.8686"/>
<polygon fill="#191970" stroke="#191970" points="426.1181,-146.2845 435.2429,-140.9004 424.7522,-139.4191 426.1181,-146.2845"/>
</g>
</g>
</svg>
        <g id="navigator" transform="translate(0 0)" fill="#404254">
                <rect fill="#f2f5e9" fill-opacity="0.5" stroke="#606060" stroke-width=".5" x="0" y="0" width="60" height="60"/>
                <use id="zoomplus" xlink:href="#zoomPlus" x="17" y="9" onmousedown="handleZoom(evt,'in')"/>
                <use id="zoomminus" xlink:href="#zoomMin" x="42" y="9" onmousedown="handleZoom(evt,'out')"/>
                <use id="reset" xlink:href="#resetDef" x="30" y="36" onmousedown="handleReset()"/>
                <g id="arrowUp" xlink:href="#dirArrow" transform="translate(30 24)" onmousedown="handlePan(0,-1)">
                  <use xlink:href="#rim" fill="#404040">
                        <set attributeName="fill" to="#808080" begin="arrowUp.mouseover" end="arrowUp.mouseout"/>
                  </use>
                  <path fill="none" stroke="white" stroke-width="1.5" d="M0,-3.0v7 M-2.5,-0.5L0,-3.0L2.5,-0.5"/>
                </g>
                <g id="arrowRight" xlink:href="#dirArrow" transform="rotate(90) translate(36 -43)" onmousedown="handlePan(1,0)">
                  <use xlink:href="#rim" fill="#404040">
                        <set attributeName="fill" to="#808080" begin="arrowRight.mouseover" end="arrowRight.mouseout"/>
                  </use>
                  <path fill="none" stroke="white" stroke-width="1.5" d="M0,-3.0v7 M-2.5,-0.5L0,-3.0L2.5,-0.5"/>
                </g>
                <g id="arrowDown" xlink:href="#dirArrow" transform="rotate(180) translate(-30 -48)" onmousedown="handlePan(0,1)">
                  <use xlink:href="#rim" fill="#404040">
                        <set attributeName="fill" to="#808080" begin="arrowDown.mouseover" end="arrowDown.mouseout"/>
                  </use>
                  <path fill="none" stroke="white" stroke-width="1.5" d="M0,-3.0v7 M-2.5,-0.5L0,-3.0L2.5,-0.5"/>
                </g>
                <g id="arrowLeft" xlink:href="#dirArrow" transform="rotate(270) translate(-36 17)" onmousedown="handlePan(-1,0)">
                  <use xlink:href="#rim" fill="#404040">
                        <set attributeName="fill" to="#808080" begin="arrowLeft.mouseover" end="arrowLeft.mouseout"/>
                  </use>
                  <path fill="none" stroke="white" stroke-width="1.5" d="M0,-3.0v7 M-2.5,-0.5L0,-3.0L2.5,-0.5"/>
                </g>
        </g>
        <svg viewBox="0 0 15 15" width="100%" height="30px" preserveAspectRatio="xMaxYMin meet">
         <g id="arrow_out" transform="scale(0.3 0.3)">
          <a xlink:href="quickjs_8c_acf0e1803a9586d86d752b002a89fb8ed_cgraph_org.svg" target="_base">
           <rect id="button" ry="5" rx="5" y="6" x="6" height="38" width="38"
                fill="#f2f5e9" fill-opacity="0.5" stroke="#606060" stroke-width="1.0"/>
           <path id="arrow"
             d="M 11.500037,31.436501 C 11.940474,20.09759 22.043105,11.32322 32.158766,21.979434 L 37.068811,17.246167 C 37.068811,17.246167 37.088388,32 37.088388,32 L 22.160133,31.978069 C 22.160133,31.978069 26.997745,27.140456 26.997745,27.140456 C 18.528582,18.264221 13.291696,25.230495 11.500037,31.436501 z"
             style="fill:#404040;"/>
          </a>
         </g>
        </svg>
</svg>
