<?xml version="1.0" encoding="UTF-8" standalone="no"?>
<!DOCTYPE svg PUBLIC "-//W3C//DTD SVG 1.1//EN"
 "http://www.w3.org/Graphics/SVG/1.1/DTD/svg11.dtd">
<!-- Generated by graphviz version 2.40.1 (20161225.0304)
 -->
<!-- Title: js_worker_ctor_internal Pages: 1 -->
<svg width="987pt" height="360pt"
 viewBox="0.00 0.00 987.00 360.00" xmlns="http://www.w3.org/2000/svg" xmlns:xlink="http://www.w3.org/1999/xlink">
<g id="graph0" class="graph" transform="scale(1 1) rotate(0) translate(4 356)">
<title>js_worker_ctor_internal</title>
<!-- Node28910 -->
<g id="node1" class="node">
<title>Node28910</title>
<polygon fill="#bfbfbf" stroke="#000000" points="0,-133.5 0,-152.5 131,-152.5 131,-133.5 0,-133.5"/>
<text text-anchor="middle" x="65.5" y="-140.5" font-family="Helvetica,sans-Serif" font-size="10.00" fill="#000000">js_worker_ctor_internal</text>
</g>
<!-- Node28911 -->
<g id="node2" class="node">
<title>Node28911</title>
<g id="a_node2"><a xlink:href="quickjs-libc_8c.html#ac1cc0fd3553ada828be687d09505cb4f" target="_top" xlink:title="js_dup_message_pipe">
<polygon fill="none" stroke="#000000" points="173,-332.5 173,-351.5 297,-351.5 297,-332.5 173,-332.5"/>
<text text-anchor="middle" x="235" y="-339.5" font-family="Helvetica,sans-Serif" font-size="10.00" fill="#000000">js_dup_message_pipe</text>
</a>
</g>
</g>
<!-- Node28910&#45;&gt;Node28911 -->
<g id="edge1" class="edge">
<title>Node28910&#45;&gt;Node28911</title>
<path fill="none" stroke="#191970" d="M68.3847,-152.5201C77.6886,-181.6497 109.6804,-270.4746 167,-318 171.9964,-322.1427 177.758,-325.5918 183.7698,-328.4582"/>
<polygon fill="#191970" stroke="#191970" points="182.775,-331.8372 193.3491,-332.4991 185.4957,-325.3875 182.775,-331.8372"/>
</g>
<!-- Node28913 -->
<g id="node4" class="node">
<title>Node28913</title>
<g id="a_node4"><a xlink:href="quickjs_8h.html#afaa20c47565bc704c6c85f3d77254e7d" target="_top" xlink:title="JS_FreeValue">
<polygon fill="none" stroke="#000000" points="634.5,-180.5 634.5,-199.5 712.5,-199.5 712.5,-180.5 634.5,-180.5"/>
<text text-anchor="middle" x="673.5" y="-187.5" font-family="Helvetica,sans-Serif" font-size="10.00" fill="#000000">JS_FreeValue</text>
</a>
</g>
</g>
<!-- Node28910&#45;&gt;Node28913 -->
<g id="edge3" class="edge">
<title>Node28910&#45;&gt;Node28913</title>
<path fill="none" stroke="#191970" d="M83.0362,-152.5806C125.4225,-175.0764 237.4447,-230.6108 339,-247 450.8857,-265.0564 486.104,-281.683 594,-247 618.5556,-239.1067 641.9562,-220.5173 656.9296,-206.7011"/>
<polygon fill="#191970" stroke="#191970" points="659.5298,-209.0572 664.335,-199.6147 654.6902,-203.9997 659.5298,-209.0572"/>
</g>
<!-- Node28951 -->
<g id="node7" class="node">
<title>Node28951</title>
<g id="a_node7"><a xlink:href="quickjs_8c.html#a3938cae1c86a528a74d6710290d706e5" target="_top" xlink:title="JS_GetClassProto">
<polygon fill="none" stroke="#000000" points="480.5,-114.5 480.5,-133.5 580.5,-133.5 580.5,-114.5 480.5,-114.5"/>
<text text-anchor="middle" x="530.5" y="-121.5" font-family="Helvetica,sans-Serif" font-size="10.00" fill="#000000">JS_GetClassProto</text>
</a>
</g>
</g>
<!-- Node28910&#45;&gt;Node28951 -->
<g id="edge6" class="edge">
<title>Node28910&#45;&gt;Node28951</title>
<path fill="none" stroke="#191970" d="M131.1369,-140.3181C221.4414,-136.6282 382.7292,-130.0379 470.1575,-126.4656"/>
<polygon fill="#191970" stroke="#191970" points="470.3373,-129.9613 480.1861,-126.0558 470.0515,-122.9671 470.3373,-129.9613"/>
</g>
<!-- Node28953 -->
<g id="node9" class="node">
<title>Node28953</title>
<g id="a_node9"><a xlink:href="quickjs_8c.html#a04f589361a4fbc30d997402e92a50de2" target="_top" xlink:title="JS_GetPropertyStr">
<polygon fill="none" stroke="#000000" points="183.5,-161.5 183.5,-180.5 286.5,-180.5 286.5,-161.5 183.5,-161.5"/>
<text text-anchor="middle" x="235" y="-168.5" font-family="Helvetica,sans-Serif" font-size="10.00" fill="#000000">JS_GetPropertyStr</text>
</a>
</g>
</g>
<!-- Node28910&#45;&gt;Node28953 -->
<g id="edge8" class="edge">
<title>Node28910&#45;&gt;Node28953</title>
<path fill="none" stroke="#191970" d="M123.3582,-152.5577C139.4806,-155.221 157.0514,-158.1235 173.3815,-160.8211"/>
<polygon fill="#191970" stroke="#191970" points="172.9281,-164.2936 183.3649,-162.4703 174.0691,-157.3872 172.9281,-164.2936"/>
</g>
<!-- Node28984 -->
<g id="node12" class="node">
<title>Node28984</title>
<g id="a_node12"><a xlink:href="quickjs_8h.html#ad80a83d73e9b7d872b88fbf2943aebe9" target="_top" xlink:title="JS_IsException">
<polygon fill="none" stroke="#000000" points="630,-256.5 630,-275.5 717,-275.5 717,-256.5 630,-256.5"/>
<text text-anchor="middle" x="673.5" y="-263.5" font-family="Helvetica,sans-Serif" font-size="10.00" fill="#000000">JS_IsException</text>
</a>
</g>
</g>
<!-- Node28910&#45;&gt;Node28984 -->
<g id="edge17" class="edge">
<title>Node28910&#45;&gt;Node28984</title>
<path fill="none" stroke="#191970" d="M73.6343,-152.5783C89.5848,-170.704 126.9234,-209.9925 167,-230 316.9177,-304.8435 523.434,-288.3936 619.857,-274.9577"/>
<polygon fill="#191970" stroke="#191970" points="620.551,-278.394 629.9506,-273.5056 619.5541,-271.4653 620.551,-278.394"/>
</g>
<!-- Node29066 -->
<g id="node16" class="node">
<title>Node29066</title>
<g id="a_node16"><a xlink:href="quickjs_8h.html#a4e407128a9605afb77523e49e9a627fd" target="_top" xlink:title="JS_IsUndefined">
<polygon fill="none" stroke="#000000" points="190.5,-76.5 190.5,-95.5 279.5,-95.5 279.5,-76.5 190.5,-76.5"/>
<text text-anchor="middle" x="235" y="-83.5" font-family="Helvetica,sans-Serif" font-size="10.00" fill="#000000">JS_IsUndefined</text>
</a>
</g>
</g>
<!-- Node28910&#45;&gt;Node29066 -->
<g id="edge18" class="edge">
<title>Node28910&#45;&gt;Node29066</title>
<path fill="none" stroke="#191970" d="M93.8705,-133.4595C122.1037,-123.9651 165.6144,-109.3332 196.8587,-98.8263"/>
<polygon fill="#191970" stroke="#191970" points="198.1742,-102.0766 206.537,-95.5716 195.9429,-95.4417 198.1742,-102.0766"/>
</g>
<!-- Node29019 -->
<g id="node17" class="node">
<title>Node29019</title>
<g id="a_node17"><a xlink:href="quickjs_8c.html#a73738c650f11459db0d7af3dcdf8316b" target="_top" xlink:title="JS_NewObjectProtoClass">
<polygon fill="none" stroke="#ff0000" points="167,-38.5 167,-57.5 303,-57.5 303,-38.5 167,-38.5"/>
<text text-anchor="middle" x="235" y="-45.5" font-family="Helvetica,sans-Serif" font-size="10.00" fill="#000000">JS_NewObjectProtoClass</text>
</a>
</g>
</g>
<!-- Node28910&#45;&gt;Node29019 -->
<g id="edge19" class="edge">
<title>Node28910&#45;&gt;Node29019</title>
<path fill="none" stroke="#191970" d="M75.5974,-133.3763C92.9331,-117.3561 130.0691,-85.1865 167,-67 171.6908,-64.69 176.7063,-62.6224 181.8081,-60.7804"/>
<polygon fill="#191970" stroke="#191970" points="183.2731,-63.982 191.6629,-57.5119 181.0695,-57.3379 183.2731,-63.982"/>
</g>
<!-- Node29214 -->
<g id="node18" class="node">
<title>Node29214</title>
<g id="a_node18"><a xlink:href="quickjs_8c.html#a0ddf716409e51648f0d59e7521150d19" target="_top" xlink:title="JS_SetOpaque">
<polygon fill="none" stroke="#000000" points="193,-.5 193,-19.5 277,-19.5 277,-.5 193,-.5"/>
<text text-anchor="middle" x="235" y="-7.5" font-family="Helvetica,sans-Serif" font-size="10.00" fill="#000000">JS_SetOpaque</text>
</a>
</g>
</g>
<!-- Node28910&#45;&gt;Node29214 -->
<g id="edge20" class="edge">
<title>Node28910&#45;&gt;Node29214</title>
<path fill="none" stroke="#191970" d="M71.2847,-133.3798C85.0117,-111.3941 121.8124,-57.1984 167,-29 171.9964,-25.8821 177.5127,-23.2653 183.1776,-21.0713"/>
<polygon fill="#191970" stroke="#191970" points="184.4695,-24.3282 192.7861,-17.7643 182.1914,-17.7092 184.4695,-24.3282"/>
</g>
<!-- Node28912 -->
<g id="node3" class="node">
<title>Node28912</title>
<g id="a_node3"><a xlink:href="quickjs-libc_8c.html#aa790fd732a5386c363726ddb72bb20e2" target="_top" xlink:title="atomic_add_int">
<polygon fill="none" stroke="#000000" points="339,-332.5 339,-351.5 431,-351.5 431,-332.5 339,-332.5"/>
<text text-anchor="middle" x="385" y="-339.5" font-family="Helvetica,sans-Serif" font-size="10.00" fill="#000000">atomic_add_int</text>
</a>
</g>
</g>
<!-- Node28911&#45;&gt;Node28912 -->
<g id="edge2" class="edge">
<title>Node28911&#45;&gt;Node28912</title>
<path fill="none" stroke="#191970" d="M297.3104,-342C307.6939,-342 318.4117,-342 328.6362,-342"/>
<polygon fill="#191970" stroke="#191970" points="328.6656,-345.5001 338.6655,-342 328.6655,-338.5001 328.6656,-345.5001"/>
</g>
<!-- Node28914 -->
<g id="node5" class="node">
<title>Node28914</title>
<g id="a_node5"><a xlink:href="quickjs_8c.html#aa059f309c30fd5166d16c82a97973146" target="_top" xlink:title="__JS_FreeValue">
<polygon fill="none" stroke="#000000" points="753,-180.5 753,-199.5 842,-199.5 842,-180.5 753,-180.5"/>
<text text-anchor="middle" x="797.5" y="-187.5" font-family="Helvetica,sans-Serif" font-size="10.00" fill="#000000">__JS_FreeValue</text>
</a>
</g>
</g>
<!-- Node28913&#45;&gt;Node28914 -->
<g id="edge4" class="edge">
<title>Node28913&#45;&gt;Node28914</title>
<path fill="none" stroke="#191970" d="M712.7344,-190C722.3131,-190 732.7337,-190 742.8862,-190"/>
<polygon fill="#191970" stroke="#191970" points="742.9084,-193.5001 752.9083,-190 742.9083,-186.5001 742.9084,-193.5001"/>
</g>
<!-- Node28915 -->
<g id="node6" class="node">
<title>Node28915</title>
<g id="a_node6"><a xlink:href="quickjs_8c.html#ab1ea3fad7d138be12144a38be4d36423" target="_top" xlink:title="__JS_FreeValueRT">
<polygon fill="none" stroke="#ff0000" points="878,-180.5 878,-199.5 979,-199.5 979,-180.5 878,-180.5"/>
<text text-anchor="middle" x="928.5" y="-187.5" font-family="Helvetica,sans-Serif" font-size="10.00" fill="#000000">__JS_FreeValueRT</text>
</a>
</g>
</g>
<!-- Node28914&#45;&gt;Node28915 -->
<g id="edge5" class="edge">
<title>Node28914&#45;&gt;Node28915</title>
<path fill="none" stroke="#191970" d="M842.2164,-190C850.3314,-190 858.9213,-190 867.4118,-190"/>
<polygon fill="#191970" stroke="#191970" points="867.6806,-193.5001 877.6806,-190 867.6806,-186.5001 867.6806,-193.5001"/>
</g>
<!-- Node28952 -->
<g id="node8" class="node">
<title>Node28952</title>
<g id="a_node8"><a xlink:href="quickjs_8h.html#a775522f2d084fc8fa0fcb33f390006b4" target="_top" xlink:title="JS_DupValue">
<polygon fill="none" stroke="#000000" points="635,-133.5 635,-152.5 712,-152.5 712,-133.5 635,-133.5"/>
<text text-anchor="middle" x="673.5" y="-140.5" font-family="Helvetica,sans-Serif" font-size="10.00" fill="#000000">JS_DupValue</text>
</a>
</g>
</g>
<!-- Node28951&#45;&gt;Node28952 -->
<g id="edge7" class="edge">
<title>Node28951&#45;&gt;Node28952</title>
<path fill="none" stroke="#191970" d="M580.5145,-130.6453C594.7728,-132.5397 610.2877,-134.6012 624.4857,-136.4876"/>
<polygon fill="#191970" stroke="#191970" points="624.1806,-139.9778 634.5545,-137.8254 625.1026,-133.0387 624.1806,-139.9778"/>
</g>
<!-- Node28954 -->
<g id="node10" class="node">
<title>Node28954</title>
<g id="a_node10"><a xlink:href="quickjs_8c.html#aa2ef5af1544a3012f91a80c98c326b8f" target="_top" xlink:title="JS_NewAtom">
<polygon fill="none" stroke="#000000" points="345.5,-218.5 345.5,-237.5 424.5,-237.5 424.5,-218.5 345.5,-218.5"/>
<text text-anchor="middle" x="385" y="-225.5" font-family="Helvetica,sans-Serif" font-size="10.00" fill="#000000">JS_NewAtom</text>
</a>
</g>
</g>
<!-- Node28953&#45;&gt;Node28954 -->
<g id="edge9" class="edge">
<title>Node28953&#45;&gt;Node28954</title>
<path fill="none" stroke="#191970" d="M260.1066,-180.5405C284.7673,-189.9116 322.599,-204.2876 350.1639,-214.7623"/>
<polygon fill="#191970" stroke="#191970" points="349.2203,-218.1479 359.8115,-218.4284 351.7069,-211.6044 349.2203,-218.1479"/>
</g>
<!-- Node28999 -->
<g id="node13" class="node">
<title>Node28999</title>
<g id="a_node13"><a xlink:href="quickjs_8h.html#a89b7c8686c7eee70b86be722ee4730ad" target="_top" xlink:title="JS_GetProperty">
<polygon fill="none" stroke="#000000" points="340.5,-180.5 340.5,-199.5 429.5,-199.5 429.5,-180.5 340.5,-180.5"/>
<text text-anchor="middle" x="385" y="-187.5" font-family="Helvetica,sans-Serif" font-size="10.00" fill="#000000">JS_GetProperty</text>
</a>
</g>
</g>
<!-- Node28953&#45;&gt;Node28999 -->
<g id="edge12" class="edge">
<title>Node28953&#45;&gt;Node28999</title>
<path fill="none" stroke="#191970" d="M286.6215,-177.5387C300.6694,-179.3181 315.9331,-181.2515 330.1528,-183.0527"/>
<polygon fill="#191970" stroke="#191970" points="329.9296,-186.5523 340.2902,-184.3368 330.8093,-179.6078 329.9296,-186.5523"/>
</g>
<!-- Node28932 -->
<g id="node15" class="node">
<title>Node28932</title>
<g id="a_node15"><a xlink:href="quickjs_8c.html#ab7fc45a99935a1c0ba50b0216d9401a9" target="_top" xlink:title="JS_FreeAtom">
<polygon fill="none" stroke="#ff0000" points="346.5,-142.5 346.5,-161.5 423.5,-161.5 423.5,-142.5 346.5,-142.5"/>
<text text-anchor="middle" x="385" y="-149.5" font-family="Helvetica,sans-Serif" font-size="10.00" fill="#000000">JS_FreeAtom</text>
</a>
</g>
</g>
<!-- Node28953&#45;&gt;Node28932 -->
<g id="edge16" class="edge">
<title>Node28953&#45;&gt;Node28932</title>
<path fill="none" stroke="#191970" d="M286.6215,-164.4613C302.6106,-162.436 320.1747,-160.2112 335.9819,-158.209"/>
<polygon fill="#191970" stroke="#191970" points="336.6007,-161.6586 346.0816,-156.9297 335.721,-154.7141 336.6007,-161.6586"/>
</g>
<!-- Node28955 -->
<g id="node11" class="node">
<title>Node28955</title>
<g id="a_node11"><a xlink:href="quickjs_8c.html#a522741f41afb1d0da0aa55968cd8579e" target="_top" xlink:title="JS_NewAtomLen">
<polygon fill="none" stroke="#ff0000" points="482.5,-218.5 482.5,-237.5 578.5,-237.5 578.5,-218.5 482.5,-218.5"/>
<text text-anchor="middle" x="530.5" y="-225.5" font-family="Helvetica,sans-Serif" font-size="10.00" fill="#000000">JS_NewAtomLen</text>
</a>
</g>
</g>
<!-- Node28954&#45;&gt;Node28955 -->
<g id="edge10" class="edge">
<title>Node28954&#45;&gt;Node28955</title>
<path fill="none" stroke="#191970" d="M424.7585,-228C439.322,-228 456.1234,-228 471.9852,-228"/>
<polygon fill="#191970" stroke="#191970" points="472.2401,-231.5001 482.2401,-228 472.24,-224.5001 472.2401,-231.5001"/>
</g>
<!-- Node28955&#45;&gt;Node28984 -->
<g id="edge11" class="edge">
<title>Node28955&#45;&gt;Node28984</title>
<path fill="none" stroke="#191970" d="M566.5849,-237.589C585.1296,-242.5169 607.9265,-248.5749 627.699,-253.8291"/>
<polygon fill="#191970" stroke="#191970" points="626.8631,-257.2284 637.4266,-256.4141 628.6609,-250.4632 626.8631,-257.2284"/>
</g>
<!-- Node29000 -->
<g id="node14" class="node">
<title>Node29000</title>
<g id="a_node14"><a xlink:href="quickjs_8c.html#a5762c57ae0c9937e986040c01222833a" target="_top" xlink:title="JS_GetPropertyInternal">
<polygon fill="none" stroke="#ff0000" points="467,-180.5 467,-199.5 594,-199.5 594,-180.5 467,-180.5"/>
<text text-anchor="middle" x="530.5" y="-187.5" font-family="Helvetica,sans-Serif" font-size="10.00" fill="#000000">JS_GetPropertyInternal</text>
</a>
</g>
</g>
<!-- Node28999&#45;&gt;Node29000 -->
<g id="edge13" class="edge">
<title>Node28999&#45;&gt;Node29000</title>
<path fill="none" stroke="#191970" d="M429.842,-190C438.3354,-190 447.427,-190 456.5438,-190"/>
<polygon fill="#191970" stroke="#191970" points="456.8172,-193.5001 466.8172,-190 456.8172,-186.5001 456.8172,-193.5001"/>
</g>
<!-- Node29000&#45;&gt;Node28913 -->
<g id="edge15" class="edge">
<title>Node29000&#45;&gt;Node28913</title>
<path fill="none" stroke="#191970" d="M594.0547,-190C604.1341,-190 614.4268,-190 624.1181,-190"/>
<polygon fill="#191970" stroke="#191970" points="624.3597,-193.5001 634.3596,-190 624.3596,-186.5001 624.3597,-193.5001"/>
</g>
<!-- Node29000&#45;&gt;Node28952 -->
<g id="edge14" class="edge">
<title>Node29000&#45;&gt;Node28952</title>
<path fill="none" stroke="#191970" d="M559.4382,-180.4888C581.004,-173.4008 610.692,-163.6432 634.3737,-155.8597"/>
<polygon fill="#191970" stroke="#191970" points="635.7069,-159.1058 644.114,-152.6583 633.5211,-152.4558 635.7069,-159.1058"/>
</g>
</g>
</svg>
