<?xml version="1.0" encoding="UTF-8" standalone="no"?>
<!DOCTYPE svg PUBLIC "-//W3C//DTD SVG 1.1//EN"
 "http://www.w3.org/Graphics/SVG/1.1/DTD/svg11.dtd">
<!-- Generated by graphviz version 2.40.1 (20161225.0304)
 -->
<!-- Title: JS_ReadString Pages: 1 -->
<!--zoomable 218 -->
<svg id="main" version="1.1" xmlns="http://www.w3.org/2000/svg" xmlns:xlink="http://www.w3.org/1999/xlink" xml:space="preserve" onload="init(evt)">
<style type="text/css"><![CDATA[
.edge:hover path { stroke: red; }
.edge:hover polygon { stroke: red; fill: red; }
]]></style>
<script type="text/javascript"><![CDATA[
var edges = document.getElementsByTagName('g');
if (edges && edges.length) {
  for (var i=0;i<edges.length;i++) {
    if (edges[i].id.substr(0,4)=='edge') {
      edges[i].setAttribute('class','edge');
    }
  }
}
]]></script>
        <defs>
                <circle id="rim" cx="0" cy="0" r="7"/>
                <circle id="rim2" cx="0" cy="0" r="3.5"/>
                <g id="zoomPlus">
                        <use xlink:href="#rim" fill="#404040">
                                <set attributeName="fill" to="#808080" begin="zoomplus.mouseover" end="zoomplus.mouseout"/>
                        </use>
                        <path d="M-4,0h8M0,-4v8" fill="none" stroke="white" stroke-width="1.5" pointer-events="none"/>
                </g>
                <g id="zoomMin">
                        <use xlink:href="#rim" fill="#404040">
                                <set attributeName="fill" to="#808080" begin="zoomminus.mouseover" end="zoomminus.mouseout"/>
                        </use>
                        <path d="M-4,0h8" fill="none" stroke="white" stroke-width="1.5" pointer-events="none"/>
                </g>
                <g id="dirArrow">
                        <path fill="none" stroke="white" stroke-width="1.5" d="M0,-3.0v7 M-2.5,-0.5L0,-3.0L2.5,-0.5"/>
                </g>
               <g id="resetDef">
                       <use xlink:href="#rim2" fill="#404040">
                               <set attributeName="fill" to="#808080" begin="reset.mouseover" end="reset.mouseout"/>
                       </use>
               </g>
        </defs>

<script type="text/javascript">
var viewWidth = 502;
var viewHeight = 218;
var sectionId = 'dynsection-1337';
</script>
<script xlink:href="svgpan.js"/>
<svg id="graph" class="graph">
<g id="viewport">
<title>JS_ReadString</title>
<!-- Node364535 -->
<g id="node1" class="node">
<title>Node364535</title>
<polygon fill="#bfbfbf" stroke="#000000" points="0,-133.5 0,-152.5 83,-152.5 83,-133.5 0,-133.5"/>
<text text-anchor="middle" x="41.5" y="-140.5" font-family="Helvetica,sans-Serif" font-size="10.00" fill="#000000">JS_ReadString</text>
</g>
<!-- Node364536 -->
<g id="node2" class="node">
<title>Node364536</title>
<g id="a_node2"><a xlink:href="quickjs_8c.html#a79e9250c5e2b097c9655cbc8a75ba923" target="_top" xlink:title="bc_get_leb128">
<polygon fill="none" stroke="#000000" points="119,-152.5 119,-171.5 206,-171.5 206,-152.5 119,-152.5"/>
<text text-anchor="middle" x="162.5" y="-159.5" font-family="Helvetica,sans-Serif" font-size="10.00" fill="#000000">bc_get_leb128</text>
</a>
</g>
</g>
<!-- Node364535&#45;&gt;Node364536 -->
<g id="edge1" class="edge">
<title>Node364535&#45;&gt;Node364536</title>
<path fill="none" stroke="#191970" d="M83.1413,-149.5387C91.396,-150.8349 100.171,-152.2128 108.7619,-153.5618"/>
<polygon fill="#191970" stroke="#191970" points="108.2981,-157.0318 118.72,-155.1255 109.384,-150.1165 108.2981,-157.0318"/>
</g>
<!-- Node364537 -->
<g id="node3" class="node">
<title>Node364537</title>
<g id="a_node3"><a xlink:href="quickjs_8c.html#aec90fdacca60889202841e53258d6363" target="_top" xlink:title="bc_read_error_end">
<polygon fill="none" stroke="#000000" points="253,-190.5 253,-209.5 360,-209.5 360,-190.5 253,-190.5"/>
<text text-anchor="middle" x="306.5" y="-197.5" font-family="Helvetica,sans-Serif" font-size="10.00" fill="#000000">bc_read_error_end</text>
</a>
</g>
</g>
<!-- Node364535&#45;&gt;Node364537 -->
<g id="edge4" class="edge">
<title>Node364535&#45;&gt;Node364537</title>
<path fill="none" stroke="#191970" d="M56.8682,-152.5817C72.0494,-161.5427 96.2352,-174.4925 119,-181 159.1135,-192.4668 205.7846,-197.2243 242.5287,-199.1114"/>
<polygon fill="#191970" stroke="#191970" points="242.4666,-202.6122 252.6155,-199.5708 242.7851,-195.6194 242.4666,-202.6122"/>
</g>
<!-- Node364539 -->
<g id="node5" class="node">
<title>Node364539</title>
<g id="a_node5"><a xlink:href="quickjs_8c.html#ad303a9bc56766627b5fca41574933930" target="_top" xlink:title="js_alloc_string">
<polygon fill="none" stroke="#000000" points="119.5,-114.5 119.5,-133.5 205.5,-133.5 205.5,-114.5 119.5,-114.5"/>
<text text-anchor="middle" x="162.5" y="-121.5" font-family="Helvetica,sans-Serif" font-size="10.00" fill="#000000">js_alloc_string</text>
</a>
</g>
</g>
<!-- Node364535&#45;&gt;Node364539 -->
<g id="edge5" class="edge">
<title>Node364535&#45;&gt;Node364539</title>
<path fill="none" stroke="#191970" d="M83.1413,-136.4613C91.4942,-135.1497 100.38,-133.7544 109.0686,-132.3901"/>
<polygon fill="#191970" stroke="#191970" points="109.798,-135.8185 119.134,-130.8095 108.7121,-128.9032 109.798,-135.8185"/>
</g>
<!-- Node364543 -->
<g id="node9" class="node">
<title>Node364543</title>
<g id="a_node9"><a xlink:href="quickjs_8c.html#aa506aaf9df272c0e9e541bbf0138b483" target="_top" xlink:title="js_free_string">
<polygon fill="none" stroke="#000000" points="121,-38.5 121,-57.5 204,-57.5 204,-38.5 121,-38.5"/>
<text text-anchor="middle" x="162.5" y="-45.5" font-family="Helvetica,sans-Serif" font-size="10.00" fill="#000000">js_free_string</text>
</a>
</g>
</g>
<!-- Node364535&#45;&gt;Node364543 -->
<g id="edge9" class="edge">
<title>Node364535&#45;&gt;Node364543</title>
<path fill="none" stroke="#191970" d="M53.9934,-133.1911C74.8424,-116.8221 116.92,-83.786 142.1111,-64.0078"/>
<polygon fill="#191970" stroke="#191970" points="144.5507,-66.5423 150.2548,-57.614 140.2279,-61.0365 144.5507,-66.5423"/>
</g>
<!-- Node364536&#45;&gt;Node364537 -->
<g id="edge2" class="edge">
<title>Node364536&#45;&gt;Node364537</title>
<path fill="none" stroke="#191970" d="M198.8373,-171.589C217.5829,-176.5358 240.6432,-182.6211 260.6066,-187.8892"/>
<polygon fill="#191970" stroke="#191970" points="259.8619,-191.3125 270.424,-190.4799 261.6481,-184.5442 259.8619,-191.3125"/>
</g>
<!-- Node364538 -->
<g id="node4" class="node">
<title>Node364538</title>
<g id="a_node4"><a xlink:href="quickjs_8c.html#a930fdff715d46df68de392095deb7d79" target="_top" xlink:title="get_leb128">
<polygon fill="none" stroke="#000000" points="271,-152.5 271,-171.5 342,-171.5 342,-152.5 271,-152.5"/>
<text text-anchor="middle" x="306.5" y="-159.5" font-family="Helvetica,sans-Serif" font-size="10.00" fill="#000000">get_leb128</text>
</a>
</g>
</g>
<!-- Node364536&#45;&gt;Node364538 -->
<g id="edge3" class="edge">
<title>Node364536&#45;&gt;Node364538</title>
<path fill="none" stroke="#191970" d="M206.0955,-162C223.2334,-162 242.9283,-162 260.3101,-162"/>
<polygon fill="#191970" stroke="#191970" points="260.7904,-165.5001 270.7903,-162 260.7903,-158.5001 260.7904,-165.5001"/>
</g>
<!-- Node364540 -->
<g id="node6" class="node">
<title>Node364540</title>
<g id="a_node6"><a xlink:href="quickjs_8c.html#a5837dfc67b8f09e0579a28c827b39d93" target="_top" xlink:title="js_alloc_string_rt">
<polygon fill="none" stroke="#000000" points="257,-114.5 257,-133.5 356,-133.5 356,-114.5 257,-114.5"/>
<text text-anchor="middle" x="306.5" y="-121.5" font-family="Helvetica,sans-Serif" font-size="10.00" fill="#000000">js_alloc_string_rt</text>
</a>
</g>
</g>
<!-- Node364539&#45;&gt;Node364540 -->
<g id="edge6" class="edge">
<title>Node364539&#45;&gt;Node364540</title>
<path fill="none" stroke="#191970" d="M205.7047,-124C218.5119,-124 232.7744,-124 246.4457,-124"/>
<polygon fill="#191970" stroke="#191970" points="246.7512,-127.5001 256.7512,-124 246.7512,-120.5001 246.7512,-127.5001"/>
</g>
<!-- Node364541 -->
<g id="node7" class="node">
<title>Node364541</title>
<g id="a_node7"><a xlink:href="quickjs_8c.html#a344d6c0e45d9bf3861fd9269724045a2" target="_top" xlink:title="JS_ThrowOutOfMemory">
<polygon fill="none" stroke="#000000" points="242,-76.5 242,-95.5 371,-95.5 371,-76.5 242,-76.5"/>
<text text-anchor="middle" x="306.5" y="-83.5" font-family="Helvetica,sans-Serif" font-size="10.00" fill="#000000">JS_ThrowOutOfMemory</text>
</a>
</g>
</g>
<!-- Node364539&#45;&gt;Node364541 -->
<g id="edge7" class="edge">
<title>Node364539&#45;&gt;Node364541</title>
<path fill="none" stroke="#191970" d="M198.8373,-114.411C217.5829,-109.4642 240.6432,-103.3789 260.6066,-98.1108"/>
<polygon fill="#191970" stroke="#191970" points="261.6481,-101.4558 270.424,-95.5201 259.8619,-94.6875 261.6481,-101.4558"/>
</g>
<!-- Node364542 -->
<g id="node8" class="node">
<title>Node364542</title>
<g id="a_node8"><a xlink:href="quickjs_8c.html#a853f0924d441ea4225488f37c8b69f9a" target="_top" xlink:title="__attribute__">
<polygon fill="none" stroke="#000000" points="410.5,-76.5 410.5,-95.5 490.5,-95.5 490.5,-76.5 410.5,-76.5"/>
<text text-anchor="middle" x="450.5" y="-83.5" font-family="Helvetica,sans-Serif" font-size="10.00" fill="#000000">__attribute__</text>
</a>
</g>
</g>
<!-- Node364541&#45;&gt;Node364542 -->
<g id="edge8" class="edge">
<title>Node364541&#45;&gt;Node364542</title>
<path fill="none" stroke="#191970" d="M371.3387,-86C380.9931,-86 390.8211,-86 400.1189,-86"/>
<polygon fill="#191970" stroke="#191970" points="400.3536,-89.5001 410.3536,-86 400.3535,-82.5001 400.3536,-89.5001"/>
</g>
<!-- Node364544 -->
<g id="node10" class="node">
<title>Node364544</title>
<g id="a_node10"><a xlink:href="quickjs_8c.html#a69e19dda8a93d613203e0baa06f0ed8d" target="_top" xlink:title="js_free_rt">
<polygon fill="none" stroke="#000000" points="419.5,-38.5 419.5,-57.5 481.5,-57.5 481.5,-38.5 419.5,-38.5"/>
<text text-anchor="middle" x="450.5" y="-45.5" font-family="Helvetica,sans-Serif" font-size="10.00" fill="#000000">js_free_rt</text>
</a>
</g>
</g>
<!-- Node364543&#45;&gt;Node364544 -->
<g id="edge10" class="edge">
<title>Node364543&#45;&gt;Node364544</title>
<path fill="none" stroke="#191970" d="M204.0701,-48C258.802,-48 354.4658,-48 409.1085,-48"/>
<polygon fill="#191970" stroke="#191970" points="409.1404,-51.5001 419.1404,-48 409.1403,-44.5001 409.1404,-51.5001"/>
</g>
<!-- Node364545 -->
<g id="node11" class="node">
<title>Node364545</title>
<g id="a_node11"><a xlink:href="quickjs_8c.html#a58c8965dad50b15b75918a09f3d9dc7c" target="_top" xlink:title="JS_FreeAtomStruct">
<polygon fill="none" stroke="#000000" points="253.5,-.5 253.5,-19.5 359.5,-19.5 359.5,-.5 253.5,-.5"/>
<text text-anchor="middle" x="306.5" y="-7.5" font-family="Helvetica,sans-Serif" font-size="10.00" fill="#000000">JS_FreeAtomStruct</text>
</a>
</g>
</g>
<!-- Node364543&#45;&gt;Node364545 -->
<g id="edge11" class="edge">
<title>Node364543&#45;&gt;Node364545</title>
<path fill="none" stroke="#191970" d="M198.8373,-38.411C217.5829,-33.4642 240.6432,-27.3789 260.6066,-22.1108"/>
<polygon fill="#191970" stroke="#191970" points="261.6481,-25.4558 270.424,-19.5201 259.8619,-18.6875 261.6481,-25.4558"/>
</g>
<!-- Node364545&#45;&gt;Node364544 -->
<g id="edge13" class="edge">
<title>Node364545&#45;&gt;Node364544</title>
<path fill="none" stroke="#191970" d="M342.8373,-19.589C363.0289,-24.9173 388.2266,-31.5668 409.1678,-37.0929"/>
<polygon fill="#191970" stroke="#191970" points="408.5033,-40.5373 419.0654,-39.7048 410.2895,-33.769 408.5033,-40.5373"/>
</g>
<!-- Node364546 -->
<g id="node12" class="node">
<title>Node364546</title>
<g id="a_node12"><a xlink:href="quickjs_8c.html#aba70a7ff210dcedf19125863f2b12d4e" target="_top" xlink:title="atom_set_free">
<polygon fill="none" stroke="#000000" points="407,-.5 407,-19.5 494,-19.5 494,-.5 407,-.5"/>
<text text-anchor="middle" x="450.5" y="-7.5" font-family="Helvetica,sans-Serif" font-size="10.00" fill="#000000">atom_set_free</text>
</a>
</g>
</g>
<!-- Node364545&#45;&gt;Node364546 -->
<g id="edge12" class="edge">
<title>Node364545&#45;&gt;Node364546</title>
<path fill="none" stroke="#191970" d="M359.7112,-10C371.854,-10 384.7634,-10 396.9215,-10"/>
<polygon fill="#191970" stroke="#191970" points="396.9244,-13.5001 406.9243,-10 396.9243,-6.5001 396.9244,-13.5001"/>
</g>
</g>
</svg>
        <g id="navigator" transform="translate(0 0)" fill="#404254">
                <rect fill="#f2f5e9" fill-opacity="0.5" stroke="#606060" stroke-width=".5" x="0" y="0" width="60" height="60"/>
                <use id="zoomplus" xlink:href="#zoomPlus" x="17" y="9" onmousedown="handleZoom(evt,'in')"/>
                <use id="zoomminus" xlink:href="#zoomMin" x="42" y="9" onmousedown="handleZoom(evt,'out')"/>
                <use id="reset" xlink:href="#resetDef" x="30" y="36" onmousedown="handleReset()"/>
                <g id="arrowUp" xlink:href="#dirArrow" transform="translate(30 24)" onmousedown="handlePan(0,-1)">
                  <use xlink:href="#rim" fill="#404040">
                        <set attributeName="fill" to="#808080" begin="arrowUp.mouseover" end="arrowUp.mouseout"/>
                  </use>
                  <path fill="none" stroke="white" stroke-width="1.5" d="M0,-3.0v7 M-2.5,-0.5L0,-3.0L2.5,-0.5"/>
                </g>
                <g id="arrowRight" xlink:href="#dirArrow" transform="rotate(90) translate(36 -43)" onmousedown="handlePan(1,0)">
                  <use xlink:href="#rim" fill="#404040">
                        <set attributeName="fill" to="#808080" begin="arrowRight.mouseover" end="arrowRight.mouseout"/>
                  </use>
                  <path fill="none" stroke="white" stroke-width="1.5" d="M0,-3.0v7 M-2.5,-0.5L0,-3.0L2.5,-0.5"/>
                </g>
                <g id="arrowDown" xlink:href="#dirArrow" transform="rotate(180) translate(-30 -48)" onmousedown="handlePan(0,1)">
                  <use xlink:href="#rim" fill="#404040">
                        <set attributeName="fill" to="#808080" begin="arrowDown.mouseover" end="arrowDown.mouseout"/>
                  </use>
                  <path fill="none" stroke="white" stroke-width="1.5" d="M0,-3.0v7 M-2.5,-0.5L0,-3.0L2.5,-0.5"/>
                </g>
                <g id="arrowLeft" xlink:href="#dirArrow" transform="rotate(270) translate(-36 17)" onmousedown="handlePan(-1,0)">
                  <use xlink:href="#rim" fill="#404040">
                        <set attributeName="fill" to="#808080" begin="arrowLeft.mouseover" end="arrowLeft.mouseout"/>
                  </use>
                  <path fill="none" stroke="white" stroke-width="1.5" d="M0,-3.0v7 M-2.5,-0.5L0,-3.0L2.5,-0.5"/>
                </g>
        </g>
        <svg viewBox="0 0 15 15" width="100%" height="30px" preserveAspectRatio="xMaxYMin meet">
         <g id="arrow_out" transform="scale(0.3 0.3)">
          <a xlink:href="quickjs_8c_a73a002c998fe7508eae9aa069fac802b_cgraph_org.svg" target="_base">
           <rect id="button" ry="5" rx="5" y="6" x="6" height="38" width="38"
                fill="#f2f5e9" fill-opacity="0.5" stroke="#606060" stroke-width="1.0"/>
           <path id="arrow"
             d="M 11.500037,31.436501 C 11.940474,20.09759 22.043105,11.32322 32.158766,21.979434 L 37.068811,17.246167 C 37.068811,17.246167 37.088388,32 37.088388,32 L 22.160133,31.978069 C 22.160133,31.978069 26.997745,27.140456 26.997745,27.140456 C 18.528582,18.264221 13.291696,25.230495 11.500037,31.436501 z"
             style="fill:#404040;"/>
          </a>
         </g>
        </svg>
</svg>
