<?xml version="1.0" encoding="UTF-8" standalone="no"?>
<!DOCTYPE svg PUBLIC "-//W3C//DTD SVG 1.1//EN"
 "http://www.w3.org/Graphics/SVG/1.1/DTD/svg11.dtd">
<!-- Generated by graphviz version 2.40.1 (20161225.0304)
 -->
<!-- Title: seal_template_obj Pages: 1 -->
<svg width="730pt" height="155pt"
 viewBox="0.00 0.00 730.00 154.76" xmlns="http://www.w3.org/2000/svg" xmlns:xlink="http://www.w3.org/1999/xlink">
<g id="graph0" class="graph" transform="scale(1 1) rotate(0) translate(4 150.7599)">
<title>seal_template_obj</title>
<!-- Node317714 -->
<g id="node1" class="node">
<title>Node317714</title>
<polygon fill="#bfbfbf" stroke="#000000" points="0,-95.5 0,-114.5 107,-114.5 107,-95.5 0,-95.5"/>
<text text-anchor="middle" x="53.5" y="-102.5" font-family="Helvetica,sans-Serif" font-size="10.00" fill="#000000">seal_template_obj</text>
</g>
<!-- Node317715 -->
<g id="node2" class="node">
<title>Node317715</title>
<g id="a_node2"><a xlink:href="quickjs_8c.html#afdc6d90129958f6258bae1505495869f" target="_top" xlink:title="find_own_property1">
<polygon fill="none" stroke="#000000" points="143,-117.5 143,-136.5 256,-136.5 256,-117.5 143,-117.5"/>
<text text-anchor="middle" x="199.5" y="-124.5" font-family="Helvetica,sans-Serif" font-size="10.00" fill="#000000">find_own_property1</text>
</a>
</g>
</g>
<!-- Node317714&#45;&gt;Node317715 -->
<g id="edge1" class="edge">
<title>Node317714&#45;&gt;Node317715</title>
<path fill="none" stroke="#191970" d="M107.036,-113.0671C115.3422,-114.3187 124.0111,-115.625 132.568,-116.9144"/>
<polygon fill="#191970" stroke="#191970" points="132.1233,-120.3868 142.5332,-118.416 133.1664,-113.4649 132.1233,-120.3868"/>
</g>
<!-- Node317718 -->
<g id="node5" class="node">
<title>Node317718</title>
<g id="a_node5"><a xlink:href="quickjs_8c.html#a6d48937f79966a773376cc24834c663f" target="_top" xlink:title="js_update_property\l_flags">
<polygon fill="none" stroke="#000000" points="144.5,-68 144.5,-98 254.5,-98 254.5,-68 144.5,-68"/>
<text text-anchor="start" x="152.5" y="-86" font-family="Helvetica,sans-Serif" font-size="10.00" fill="#000000">js_update_property</text>
<text text-anchor="middle" x="199.5" y="-75" font-family="Helvetica,sans-Serif" font-size="10.00" fill="#000000">_flags</text>
</a>
</g>
</g>
<!-- Node317714&#45;&gt;Node317718 -->
<g id="edge4" class="edge">
<title>Node317714&#45;&gt;Node317718</title>
<path fill="none" stroke="#191970" d="M107.036,-96.9329C115.7872,-95.6143 124.9411,-94.2349 133.9425,-92.8785"/>
<polygon fill="#191970" stroke="#191970" points="134.644,-96.3124 144.0109,-91.3614 133.601,-89.3906 134.644,-96.3124"/>
</g>
<!-- Node317716 -->
<g id="node3" class="node">
<title>Node317716</title>
<g id="a_node3"><a xlink:href="quickjs_8c.html#a643df594b75933007bcdbb071b5ea8c5" target="_top" xlink:title="get_shape_prop">
<polygon fill="none" stroke="#000000" points="628,-114.5 628,-133.5 722,-133.5 722,-114.5 628,-114.5"/>
<text text-anchor="middle" x="675" y="-121.5" font-family="Helvetica,sans-Serif" font-size="10.00" fill="#000000">get_shape_prop</text>
</a>
</g>
</g>
<!-- Node317715&#45;&gt;Node317716 -->
<g id="edge2" class="edge">
<title>Node317715&#45;&gt;Node317716</title>
<path fill="none" stroke="#191970" d="M245.4074,-136.5383C260.2107,-139.1844 276.7365,-141.6896 292,-143 407.2991,-152.8983 542.601,-140.5949 617.5841,-131.6762"/>
<polygon fill="#191970" stroke="#191970" points="618.2499,-135.1212 627.7558,-130.4429 617.4072,-128.1721 618.2499,-135.1212"/>
</g>
<!-- Node317717 -->
<g id="node4" class="node">
<title>Node317717</title>
<g id="a_node4"><a xlink:href="quickjs_8c.html#acab22c2945c4d609e57a2484feb68a96" target="_top" xlink:title="prop_hash_end">
<polygon fill="none" stroke="#000000" points="317.5,-114.5 317.5,-133.5 407.5,-133.5 407.5,-114.5 317.5,-114.5"/>
<text text-anchor="middle" x="362.5" y="-121.5" font-family="Helvetica,sans-Serif" font-size="10.00" fill="#000000">prop_hash_end</text>
</a>
</g>
</g>
<!-- Node317715&#45;&gt;Node317717 -->
<g id="edge3" class="edge">
<title>Node317715&#45;&gt;Node317717</title>
<path fill="none" stroke="#191970" d="M256.052,-125.9592C272.6518,-125.6536 290.7798,-125.32 307.2945,-125.0161"/>
<polygon fill="#191970" stroke="#191970" points="307.4067,-128.5147 317.3406,-124.8312 307.2779,-121.5159 307.4067,-128.5147"/>
</g>
<!-- Node317719 -->
<g id="node6" class="node">
<title>Node317719</title>
<g id="a_node6"><a xlink:href="quickjs_8c.html#a3dd8e78607dbc729614deacf55901b95" target="_top" xlink:title="js_shape_prepare_update">
<polygon fill="none" stroke="#000000" points="292,-73.5 292,-92.5 433,-92.5 433,-73.5 292,-73.5"/>
<text text-anchor="middle" x="362.5" y="-80.5" font-family="Helvetica,sans-Serif" font-size="10.00" fill="#000000">js_shape_prepare_update</text>
</a>
</g>
</g>
<!-- Node317718&#45;&gt;Node317719 -->
<g id="edge5" class="edge">
<title>Node317718&#45;&gt;Node317719</title>
<path fill="none" stroke="#191970" d="M254.6844,-83C263.3408,-83 272.441,-83 281.5323,-83"/>
<polygon fill="#191970" stroke="#191970" points="281.7688,-86.5001 291.7688,-83 281.7688,-79.5001 281.7688,-86.5001"/>
</g>
<!-- Node317719&#45;&gt;Node317716 -->
<g id="edge6" class="edge">
<title>Node317719&#45;&gt;Node317716</title>
<path fill="none" stroke="#191970" d="M403.2735,-92.5366C423.0283,-96.8712 447.1514,-101.7462 469,-105 518.9416,-112.4376 576.1566,-117.4364 617.595,-120.4318"/>
<polygon fill="#191970" stroke="#191970" points="617.5546,-123.9376 627.7763,-121.1505 618.0476,-116.955 617.5546,-123.9376"/>
</g>
<!-- Node317720 -->
<g id="node7" class="node">
<title>Node317720</title>
<g id="a_node7"><a xlink:href="quickjs_8c.html#a8e34657169da77ae6a386311351ed3de" target="_top" xlink:title="js_clone_shape">
<polygon fill="none" stroke="#ff0000" points="485,-76.5 485,-95.5 576,-95.5 576,-76.5 485,-76.5"/>
<text text-anchor="middle" x="530.5" y="-83.5" font-family="Helvetica,sans-Serif" font-size="10.00" fill="#000000">js_clone_shape</text>
</a>
</g>
</g>
<!-- Node317719&#45;&gt;Node317720 -->
<g id="edge7" class="edge">
<title>Node317719&#45;&gt;Node317720</title>
<path fill="none" stroke="#191970" d="M433.2602,-84.2636C446.9874,-84.5087 461.1984,-84.7625 474.377,-84.9978"/>
<polygon fill="#191970" stroke="#191970" points="474.6347,-88.5029 484.6956,-85.1821 474.7597,-81.504 474.6347,-88.5029"/>
</g>
<!-- Node317734 -->
<g id="node8" class="node">
<title>Node317734</title>
<g id="a_node8"><a xlink:href="quickjs_8c.html#a3a9f27520d96cf58aa5bd7359e9cddee" target="_top" xlink:title="js_free_shape">
<polygon fill="none" stroke="#ff0000" points="488.5,-38.5 488.5,-57.5 572.5,-57.5 572.5,-38.5 488.5,-38.5"/>
<text text-anchor="middle" x="530.5" y="-45.5" font-family="Helvetica,sans-Serif" font-size="10.00" fill="#000000">js_free_shape</text>
</a>
</g>
</g>
<!-- Node317719&#45;&gt;Node317734 -->
<g id="edge9" class="edge">
<title>Node317719&#45;&gt;Node317734</title>
<path fill="none" stroke="#191970" d="M408.4067,-73.4361C430.0587,-68.9253 455.9946,-63.522 478.3825,-58.8578"/>
<polygon fill="#191970" stroke="#191970" points="479.3151,-62.2388 488.3911,-56.7727 477.8874,-55.3859 479.3151,-62.2388"/>
</g>
<!-- Node317764 -->
<g id="node9" class="node">
<title>Node317764</title>
<g id="a_node9"><a xlink:href="quickjs_8c.html#ae5e76f4be6214208cc91f10a192fc810" target="_top" xlink:title="js_shape_hash_unlink">
<polygon fill="none" stroke="#ff0000" points="469,-.5 469,-19.5 592,-19.5 592,-.5 469,-.5"/>
<text text-anchor="middle" x="530.5" y="-7.5" font-family="Helvetica,sans-Serif" font-size="10.00" fill="#000000">js_shape_hash_unlink</text>
</a>
</g>
</g>
<!-- Node317719&#45;&gt;Node317764 -->
<g id="edge10" class="edge">
<title>Node317719&#45;&gt;Node317764</title>
<path fill="none" stroke="#191970" d="M379.058,-73.4909C399.6595,-61.9228 436.1384,-42.2953 469,-29 474.5082,-26.7715 480.3814,-24.649 486.2304,-22.6847"/>
<polygon fill="#191970" stroke="#191970" points="487.5405,-25.9397 495.9821,-19.5374 485.3905,-19.278 487.5405,-25.9397"/>
</g>
<!-- Node317720&#45;&gt;Node317716 -->
<g id="edge8" class="edge">
<title>Node317720&#45;&gt;Node317716</title>
<path fill="none" stroke="#191970" d="M566.9635,-95.589C585.7741,-100.5358 608.9146,-106.6211 628.9472,-111.8892"/>
<polygon fill="#191970" stroke="#191970" points="628.2374,-115.3215 638.7988,-114.4799 630.0177,-108.5517 628.2374,-115.3215"/>
</g>
</g>
</svg>
