<?xml version="1.0" encoding="UTF-8" standalone="no"?>
<!DOCTYPE svg PUBLIC "-//W3C//DTD SVG 1.1//EN"
 "http://www.w3.org/Graphics/SVG/1.1/DTD/svg11.dtd">
<!-- Generated by graphviz version 2.40.1 (20161225.0304)
 -->
<!-- Title: atom_get_free Pages: 1 -->
<svg width="544pt" height="578pt"
 viewBox="0.00 0.00 544.00 578.00" xmlns="http://www.w3.org/2000/svg" xmlns:xlink="http://www.w3.org/1999/xlink">
<g id="graph0" class="graph" transform="scale(1 1) rotate(0) translate(4 574)">
<title>atom_get_free</title>
<!-- Node63987 -->
<g id="node1" class="node">
<title>Node63987</title>
<polygon fill="#bfbfbf" stroke="#000000" points="0,-294.5 0,-313.5 88,-313.5 88,-294.5 0,-294.5"/>
<text text-anchor="middle" x="44" y="-301.5" font-family="Helvetica,sans-Serif" font-size="10.00" fill="#000000">atom_get_free</text>
</g>
<!-- Node63988 -->
<g id="node2" class="node">
<title>Node63988</title>
<g id="a_node2"><a xlink:href="quickjs_8c.html#acd08798ec15cc37c60d2e7d70007c6a8" target="_top" xlink:title="__JS_NewAtom">
<polygon fill="none" stroke="#000000" points="124,-294.5 124,-313.5 213,-313.5 213,-294.5 124,-294.5"/>
<text text-anchor="middle" x="168.5" y="-301.5" font-family="Helvetica,sans-Serif" font-size="10.00" fill="#000000">__JS_NewAtom</text>
</a>
</g>
</g>
<!-- Node63987&#45;&gt;Node63988 -->
<g id="edge1" class="edge">
<title>Node63987&#45;&gt;Node63988</title>
<path fill="none" stroke="#191970" d="M98.4909,-304C107.007,-304 115.7198,-304 123.9784,-304"/>
<polygon fill="#191970" stroke="#191970" points="98.2446,-300.5001 88.2446,-304 98.2446,-307.5001 98.2446,-300.5001"/>
</g>
<!-- Node63989 -->
<g id="node3" class="node">
<title>Node63989</title>
<g id="a_node3"><a xlink:href="quickjs_8c.html#a128673f932e71b867730af75a44e3f97" target="_top" xlink:title="__JS_NewAtomInit">
<polygon fill="none" stroke="#000000" points="252,-512.5 252,-531.5 357,-531.5 357,-512.5 252,-512.5"/>
<text text-anchor="middle" x="304.5" y="-519.5" font-family="Helvetica,sans-Serif" font-size="10.00" fill="#000000">__JS_NewAtomInit</text>
</a>
</g>
</g>
<!-- Node63988&#45;&gt;Node63989 -->
<g id="edge2" class="edge">
<title>Node63988&#45;&gt;Node63989</title>
<path fill="none" stroke="#191970" d="M179.8941,-322.264C207.5868,-366.6539 277.6824,-479.0129 298.5503,-512.4629"/>
<polygon fill="#191970" stroke="#191970" points="182.7818,-320.2803 174.5192,-313.6485 176.8427,-323.9854 182.7818,-320.2803"/>
</g>
<!-- Node64008 -->
<g id="node6" class="node">
<title>Node64008</title>
<g id="a_node6"><a xlink:href="quickjs_8c.html#a33fd643aff7f70e649d246385cd99b00" target="_top" xlink:title="JS_NewAtomStr">
<polygon fill="none" stroke="#000000" points="258.5,-398.5 258.5,-417.5 350.5,-417.5 350.5,-398.5 258.5,-398.5"/>
<text text-anchor="middle" x="304.5" y="-405.5" font-family="Helvetica,sans-Serif" font-size="10.00" fill="#000000">JS_NewAtomStr</text>
</a>
</g>
</g>
<!-- Node63988&#45;&gt;Node64008 -->
<g id="edge5" class="edge">
<title>Node63988&#45;&gt;Node64008</title>
<path fill="none" stroke="#191970" d="M189.1589,-319.798C217.7554,-341.6659 268.5235,-380.4885 291.9796,-398.4255"/>
<polygon fill="#191970" stroke="#191970" points="191.1205,-316.8919 181.0508,-313.5977 186.8683,-322.4525 191.1205,-316.8919"/>
</g>
<!-- Node64640 -->
<g id="node11" class="node">
<title>Node64640</title>
<g id="a_node11"><a xlink:href="quickjs_8c.html#a7445082229205ad47aec019d74536f8e" target="_top" xlink:title="JS_NewAtomUInt32">
<polygon fill="none" stroke="#000000" points="249,-294.5 249,-313.5 360,-313.5 360,-294.5 249,-294.5"/>
<text text-anchor="middle" x="304.5" y="-301.5" font-family="Helvetica,sans-Serif" font-size="10.00" fill="#000000">JS_NewAtomUInt32</text>
</a>
</g>
</g>
<!-- Node63988&#45;&gt;Node64640 -->
<g id="edge10" class="edge">
<title>Node63988&#45;&gt;Node64640</title>
<path fill="none" stroke="#191970" d="M223.191,-304C231.6672,-304 240.4306,-304 248.9261,-304"/>
<polygon fill="#191970" stroke="#191970" points="223.0315,-300.5001 213.0315,-304 223.0315,-307.5001 223.0315,-300.5001"/>
</g>
<!-- Node64641 -->
<g id="node14" class="node">
<title>Node64641</title>
<g id="a_node14"><a xlink:href="quickjs_8c.html#aa641af3a921335927dab07dc83285917" target="_top" xlink:title="JS_NewAtomInt64">
<polygon fill="none" stroke="#000000" points="252.5,-190.5 252.5,-209.5 356.5,-209.5 356.5,-190.5 252.5,-190.5"/>
<text text-anchor="middle" x="304.5" y="-197.5" font-family="Helvetica,sans-Serif" font-size="10.00" fill="#000000">JS_NewAtomInt64</text>
</a>
</g>
</g>
<!-- Node63988&#45;&gt;Node64641 -->
<g id="edge14" class="edge">
<title>Node63988&#45;&gt;Node64641</title>
<path fill="none" stroke="#191970" d="M189.1589,-288.202C217.7554,-266.3341 268.5235,-227.5115 291.9796,-209.5745"/>
<polygon fill="#191970" stroke="#191970" points="186.8683,-285.5475 181.0508,-294.4023 191.1205,-291.1081 186.8683,-285.5475"/>
</g>
<!-- Node64642 -->
<g id="node19" class="node">
<title>Node64642</title>
<g id="a_node19"><a xlink:href="quickjs_8c.html#a4709c57b3c941673dcc69e07eb45182c" target="_top" xlink:title="JS_NewSymbol">
<polygon fill="none" stroke="#000000" points="260,-57.5 260,-76.5 349,-76.5 349,-57.5 260,-57.5"/>
<text text-anchor="middle" x="304.5" y="-64.5" font-family="Helvetica,sans-Serif" font-size="10.00" fill="#000000">JS_NewSymbol</text>
</a>
</g>
</g>
<!-- Node63988&#45;&gt;Node64642 -->
<g id="edge19" class="edge">
<title>Node63988&#45;&gt;Node64642</title>
<path fill="none" stroke="#191970" d="M179.1125,-285.5061C206.4101,-237.9361 278.3576,-112.5571 298.9318,-76.7035"/>
<polygon fill="#191970" stroke="#191970" points="175.9413,-284.0003 173.9998,-294.4158 182.0127,-287.4844 175.9413,-284.0003"/>
</g>
<!-- Node63990 -->
<g id="node4" class="node">
<title>Node63990</title>
<g id="a_node4"><a xlink:href="quickjs_8c.html#a2469c0e8a95a75d5835ec98ea967085f" target="_top" xlink:title="JS_InitAtoms">
<polygon fill="none" stroke="#ff0000" points="427,-550.5 427,-569.5 505,-569.5 505,-550.5 427,-550.5"/>
<text text-anchor="middle" x="466" y="-557.5" font-family="Helvetica,sans-Serif" font-size="10.00" fill="#000000">JS_InitAtoms</text>
</a>
</g>
</g>
<!-- Node63989&#45;&gt;Node63990 -->
<g id="edge3" class="edge">
<title>Node63989&#45;&gt;Node63990</title>
<path fill="none" stroke="#191970" d="M355.25,-533.9412C378.4033,-539.389 405.3926,-545.7394 426.9311,-550.8073"/>
<polygon fill="#191970" stroke="#191970" points="355.7891,-530.4725 345.2533,-531.589 354.1858,-537.2864 355.7891,-530.4725"/>
</g>
<!-- Node63999 -->
<g id="node5" class="node">
<title>Node63999</title>
<g id="a_node5"><a xlink:href="quickjs_8c.html#a9f0339d81c06451de278073572cc194e" target="_top" xlink:title="JS_NewClass">
<polygon fill="none" stroke="#ff0000" points="426.5,-512.5 426.5,-531.5 505.5,-531.5 505.5,-512.5 426.5,-512.5"/>
<text text-anchor="middle" x="466" y="-519.5" font-family="Helvetica,sans-Serif" font-size="10.00" fill="#000000">JS_NewClass</text>
</a>
</g>
</g>
<!-- Node63989&#45;&gt;Node63999 -->
<g id="edge4" class="edge">
<title>Node63989&#45;&gt;Node63999</title>
<path fill="none" stroke="#191970" d="M367.5663,-522C387.3543,-522 408.6321,-522 426.3246,-522"/>
<polygon fill="#191970" stroke="#191970" points="367.3812,-518.5001 357.3811,-522 367.3811,-525.5001 367.3812,-518.5001"/>
</g>
<!-- Node64009 -->
<g id="node7" class="node">
<title>Node64009</title>
<g id="a_node7"><a xlink:href="quickjs_8c.html#a522741f41afb1d0da0aa55968cd8579e" target="_top" xlink:title="JS_NewAtomLen">
<polygon fill="none" stroke="#ff0000" points="418,-474.5 418,-493.5 514,-493.5 514,-474.5 418,-474.5"/>
<text text-anchor="middle" x="466" y="-481.5" font-family="Helvetica,sans-Serif" font-size="10.00" fill="#000000">JS_NewAtomLen</text>
</a>
</g>
</g>
<!-- Node64008&#45;&gt;Node64009 -->
<g id="edge6" class="edge">
<title>Node64008&#45;&gt;Node64009</title>
<path fill="none" stroke="#191970" d="M325.6864,-423.7031C343.6259,-436.3699 370.433,-453.8548 396,-465 404.5421,-468.7237 413.9948,-471.8822 423.1179,-474.4911"/>
<polygon fill="#191970" stroke="#191970" points="327.3293,-420.5736 317.167,-417.5774 323.2428,-426.257 327.3293,-420.5736"/>
</g>
<!-- Node64578 -->
<g id="node8" class="node">
<title>Node64578</title>
<g id="a_node8"><a xlink:href="quickjs_8c.html#a859d5c989a2aaecef1653b3ac279e108" target="_top" xlink:title="JS_ValueToAtom">
<polygon fill="none" stroke="#ff0000" points="418.5,-436.5 418.5,-455.5 513.5,-455.5 513.5,-436.5 418.5,-436.5"/>
<text text-anchor="middle" x="466" y="-443.5" font-family="Helvetica,sans-Serif" font-size="10.00" fill="#000000">JS_ValueToAtom</text>
</a>
</g>
</g>
<!-- Node64008&#45;&gt;Node64578 -->
<g id="edge7" class="edge">
<title>Node64008&#45;&gt;Node64578</title>
<path fill="none" stroke="#191970" d="M355.0583,-419.8961C377.7588,-425.2374 404.1781,-431.4537 425.5398,-436.4799"/>
<polygon fill="#191970" stroke="#191970" points="355.7891,-416.4725 345.2533,-417.589 354.1858,-423.2864 355.7891,-416.4725"/>
</g>
<!-- Node64638 -->
<g id="node9" class="node">
<title>Node64638</title>
<g id="a_node9"><a xlink:href="quickjs_8c.html#a22324bb35cdaa36ce844506a073bb7f4" target="_top" xlink:title="emit_push_const">
<polygon fill="none" stroke="#ff0000" points="416.5,-398.5 416.5,-417.5 515.5,-417.5 515.5,-398.5 416.5,-398.5"/>
<text text-anchor="middle" x="466" y="-405.5" font-family="Helvetica,sans-Serif" font-size="10.00" fill="#000000">emit_push_const</text>
</a>
</g>
</g>
<!-- Node64008&#45;&gt;Node64638 -->
<g id="edge8" class="edge">
<title>Node64008&#45;&gt;Node64638</title>
<path fill="none" stroke="#191970" d="M360.8844,-408C378.9392,-408 398.7871,-408 416.3267,-408"/>
<polygon fill="#191970" stroke="#191970" points="360.7795,-404.5001 350.7794,-408 360.7794,-411.5001 360.7795,-404.5001"/>
</g>
<!-- Node64639 -->
<g id="node10" class="node">
<title>Node64639</title>
<g id="a_node10"><a xlink:href="quickjs_8c.html#ad54b242d774ba44b2ac39fe8161aaf9c" target="_top" xlink:title="JS_ReadObjectAtoms">
<polygon fill="none" stroke="#ff0000" points="407,-360.5 407,-379.5 525,-379.5 525,-360.5 407,-360.5"/>
<text text-anchor="middle" x="466" y="-367.5" font-family="Helvetica,sans-Serif" font-size="10.00" fill="#000000">JS_ReadObjectAtoms</text>
</a>
</g>
</g>
<!-- Node64008&#45;&gt;Node64639 -->
<g id="edge9" class="edge">
<title>Node64008&#45;&gt;Node64639</title>
<path fill="none" stroke="#191970" d="M355.0583,-396.1039C377.7588,-390.7626 404.1781,-384.5463 425.5398,-379.5201"/>
<polygon fill="#191970" stroke="#191970" points="354.1858,-392.7136 345.2533,-398.411 355.7891,-399.5275 354.1858,-392.7136"/>
</g>
<!-- Node64221 -->
<g id="node12" class="node">
<title>Node64221</title>
<g id="a_node12"><a xlink:href="quickjs_8c.html#ad55fe6f65ecb58e327ac9e9b4ab475f5" target="_top" xlink:title="set_array_length">
<polygon fill="none" stroke="#ff0000" points="417,-322.5 417,-341.5 515,-341.5 515,-322.5 417,-322.5"/>
<text text-anchor="middle" x="466" y="-329.5" font-family="Helvetica,sans-Serif" font-size="10.00" fill="#000000">set_array_length</text>
</a>
</g>
</g>
<!-- Node64640&#45;&gt;Node64221 -->
<g id="edge11" class="edge">
<title>Node64640&#45;&gt;Node64221</title>
<path fill="none" stroke="#191970" d="M369.7956,-315.3206C385.4859,-318.0409 401.9848,-320.9014 416.8019,-323.4703"/>
<polygon fill="#191970" stroke="#191970" points="370.0784,-311.8175 359.6274,-313.5577 368.8825,-318.7146 370.0784,-311.8175"/>
</g>
<!-- Node64148 -->
<g id="node13" class="node">
<title>Node64148</title>
<g id="a_node13"><a xlink:href="quickjs_8c.html#a624282391413d4c5a030adbd8b77aa80" target="_top" xlink:title="internalize_json_property">
<polygon fill="none" stroke="#ff0000" points="396,-266.5 396,-285.5 536,-285.5 536,-266.5 396,-266.5"/>
<text text-anchor="middle" x="466" y="-273.5" font-family="Helvetica,sans-Serif" font-size="10.00" fill="#000000">internalize_json_property</text>
</a>
</g>
</g>
<!-- Node64640&#45;&gt;Node64148 -->
<g id="edge12" class="edge">
<title>Node64640&#45;&gt;Node64148</title>
<path fill="none" stroke="#191970" d="M369.5329,-292.7249C383.3241,-290.3339 397.7515,-287.8326 411.121,-285.5146"/>
<polygon fill="#191970" stroke="#191970" points="368.8825,-289.2854 359.6274,-294.4423 370.0784,-296.1825 368.8825,-289.2854"/>
</g>
<!-- Node64148&#45;&gt;Node64148 -->
<g id="edge13" class="edge">
<title>Node64148&#45;&gt;Node64148</title>
<path fill="none" stroke="#191970" d="M436.0599,-294.2746C436.9135,-299.741 446.8936,-304 466,-304 494.4375,-304 502.6577,-294.5653 490.6606,-285.7571"/>
<polygon fill="#191970" stroke="#191970" points="439.0458,-296.1007 441.3394,-285.7571 433.096,-292.4128 439.0458,-296.1007"/>
</g>
<!-- Node64366 -->
<g id="node15" class="node">
<title>Node64366</title>
<g id="a_node15"><a xlink:href="quickjs_8c.html#a14674e74168715dc5a3a391910982e5d" target="_top" xlink:title="JS_TryGetPropertyInt64">
<polygon fill="none" stroke="#ff0000" points="402,-228.5 402,-247.5 530,-247.5 530,-228.5 402,-228.5"/>
<text text-anchor="middle" x="466" y="-235.5" font-family="Helvetica,sans-Serif" font-size="10.00" fill="#000000">JS_TryGetPropertyInt64</text>
</a>
</g>
</g>
<!-- Node64641&#45;&gt;Node64366 -->
<g id="edge15" class="edge">
<title>Node64641&#45;&gt;Node64366</title>
<path fill="none" stroke="#191970" d="M355.0583,-211.8961C377.7588,-217.2374 404.1781,-223.4537 425.5398,-228.4799"/>
<polygon fill="#191970" stroke="#191970" points="355.7891,-208.4725 345.2533,-209.589 354.1858,-215.2864 355.7891,-208.4725"/>
</g>
<!-- Node64385 -->
<g id="node16" class="node">
<title>Node64385</title>
<g id="a_node16"><a xlink:href="quickjs_8c.html#a7bb763b31e1c40a04aa0c1d5db0f1191" target="_top" xlink:title="JS_GetPropertyInt64">
<polygon fill="none" stroke="#ff0000" points="409,-190.5 409,-209.5 523,-209.5 523,-190.5 409,-190.5"/>
<text text-anchor="middle" x="466" y="-197.5" font-family="Helvetica,sans-Serif" font-size="10.00" fill="#000000">JS_GetPropertyInt64</text>
</a>
</g>
</g>
<!-- Node64641&#45;&gt;Node64385 -->
<g id="edge16" class="edge">
<title>Node64641&#45;&gt;Node64385</title>
<path fill="none" stroke="#191970" d="M367.2348,-200C380.9266,-200 395.3465,-200 408.809,-200"/>
<polygon fill="#191970" stroke="#191970" points="366.9345,-196.5001 356.9344,-200 366.9344,-203.5001 366.9345,-196.5001"/>
</g>
<!-- Node64191 -->
<g id="node17" class="node">
<title>Node64191</title>
<g id="a_node17"><a xlink:href="quickjs_8c.html#a51b06daa618640e531fe808770553b96" target="_top" xlink:title="JS_SetPropertyInt64">
<polygon fill="none" stroke="#ff0000" points="409.5,-152.5 409.5,-171.5 522.5,-171.5 522.5,-152.5 409.5,-152.5"/>
<text text-anchor="middle" x="466" y="-159.5" font-family="Helvetica,sans-Serif" font-size="10.00" fill="#000000">JS_SetPropertyInt64</text>
</a>
</g>
</g>
<!-- Node64641&#45;&gt;Node64191 -->
<g id="edge17" class="edge">
<title>Node64641&#45;&gt;Node64191</title>
<path fill="none" stroke="#191970" d="M355.0583,-188.1039C377.7588,-182.7626 404.1781,-176.5463 425.5398,-171.5201"/>
<polygon fill="#191970" stroke="#191970" points="354.1858,-184.7136 345.2533,-190.411 355.7891,-191.5275 354.1858,-184.7136"/>
</g>
<!-- Node64306 -->
<g id="node18" class="node">
<title>Node64306</title>
<g id="a_node18"><a xlink:href="quickjs_8c.html#a70e21308fe3760cd95dd1dbb1a8755e6" target="_top" xlink:title="JS_DeletePropertyInt64">
<polygon fill="none" stroke="#ff0000" points="401.5,-114.5 401.5,-133.5 530.5,-133.5 530.5,-114.5 401.5,-114.5"/>
<text text-anchor="middle" x="466" y="-121.5" font-family="Helvetica,sans-Serif" font-size="10.00" fill="#000000">JS_DeletePropertyInt64</text>
</a>
</g>
</g>
<!-- Node64641&#45;&gt;Node64306 -->
<g id="edge18" class="edge">
<title>Node64641&#45;&gt;Node64306</title>
<path fill="none" stroke="#191970" d="M325.6864,-184.2969C343.6259,-171.6301 370.433,-154.1452 396,-143 404.5421,-139.2763 413.9948,-136.1178 423.1179,-133.5089"/>
<polygon fill="#191970" stroke="#191970" points="323.2428,-181.743 317.167,-190.4226 327.3293,-187.4264 323.2428,-181.743"/>
</g>
<!-- Node64643 -->
<g id="node20" class="node">
<title>Node64643</title>
<g id="a_node20"><a xlink:href="quickjs_8c.html#a978258a269332de3a28eb005d4a7e402" target="_top" xlink:title="JS_NewSymbolFromAtom">
<polygon fill="none" stroke="#ff0000" points="396,-76.5 396,-95.5 536,-95.5 536,-76.5 396,-76.5"/>
<text text-anchor="middle" x="466" y="-83.5" font-family="Helvetica,sans-Serif" font-size="10.00" fill="#000000">JS_NewSymbolFromAtom</text>
</a>
</g>
</g>
<!-- Node64642&#45;&gt;Node64643 -->
<g id="edge20" class="edge">
<title>Node64642&#45;&gt;Node64643</title>
<path fill="none" stroke="#191970" d="M359.1662,-73.4313C370.9447,-74.817 383.5528,-76.3003 395.8289,-77.7446"/>
<polygon fill="#191970" stroke="#191970" points="359.3986,-69.9346 349.0581,-72.2421 358.5806,-76.8867 359.3986,-69.9346"/>
</g>
<!-- Node64570 -->
<g id="node21" class="node">
<title>Node64570</title>
<g id="a_node21"><a xlink:href="quickjs_8c.html#a61afe2267db511c48066e98e0f1768b9" target="_top" xlink:title="js_symbol_constructor">
<polygon fill="none" stroke="#ff0000" points="403,-38.5 403,-57.5 529,-57.5 529,-38.5 403,-38.5"/>
<text text-anchor="middle" x="466" y="-45.5" font-family="Helvetica,sans-Serif" font-size="10.00" fill="#000000">js_symbol_constructor</text>
</a>
</g>
</g>
<!-- Node64642&#45;&gt;Node64570 -->
<g id="edge21" class="edge">
<title>Node64642&#45;&gt;Node64570</title>
<path fill="none" stroke="#191970" d="M359.0626,-60.5809C373.1296,-58.9259 388.3856,-57.1311 402.8497,-55.4294"/>
<polygon fill="#191970" stroke="#191970" points="358.5806,-57.1133 349.0581,-61.7579 359.3986,-64.0654 358.5806,-57.1133"/>
</g>
<!-- Node64571 -->
<g id="node22" class="node">
<title>Node64571</title>
<g id="a_node22"><a xlink:href="quickjs_8c.html#ad73ff651420d0ac8331be13d2575ee31" target="_top" xlink:title="js_symbol_for">
<polygon fill="none" stroke="#000000" points="423.5,-.5 423.5,-19.5 508.5,-19.5 508.5,-.5 423.5,-.5"/>
<text text-anchor="middle" x="466" y="-7.5" font-family="Helvetica,sans-Serif" font-size="10.00" fill="#000000">js_symbol_for</text>
</a>
</g>
</g>
<!-- Node64642&#45;&gt;Node64571 -->
<g id="edge22" class="edge">
<title>Node64642&#45;&gt;Node64571</title>
<path fill="none" stroke="#191970" d="M334.5212,-53.3857C352.2018,-45.6577 375.1254,-36.1345 396,-29 406.0092,-25.579 416.9865,-22.3574 427.2189,-19.5727"/>
<polygon fill="#191970" stroke="#191970" points="333.0162,-50.2242 325.2843,-57.4677 335.8457,-56.6268 333.0162,-50.2242"/>
</g>
</g>
</svg>
