<?xml version="1.0" encoding="UTF-8" standalone="no"?>
<!DOCTYPE svg PUBLIC "-//W3C//DTD SVG 1.1//EN"
 "http://www.w3.org/Graphics/SVG/1.1/DTD/svg11.dtd">
<!-- Generated by graphviz version 2.40.1 (20161225.0304)
 -->
<!-- Title: JS_SetThisTimeValue Pages: 1 -->
<svg width="524pt" height="104pt"
 viewBox="0.00 0.00 524.00 104.00" xmlns="http://www.w3.org/2000/svg" xmlns:xlink="http://www.w3.org/1999/xlink">
<g id="graph0" class="graph" transform="scale(1 1) rotate(0) translate(4 100)">
<title>JS_SetThisTimeValue</title>
<!-- Node472093 -->
<g id="node1" class="node">
<title>Node472093</title>
<polygon fill="#bfbfbf" stroke="#000000" points="0,-38.5 0,-57.5 119,-57.5 119,-38.5 0,-38.5"/>
<text text-anchor="middle" x="59.5" y="-45.5" font-family="Helvetica,sans-Serif" font-size="10.00" fill="#000000">JS_SetThisTimeValue</text>
</g>
<!-- Node472094 -->
<g id="node2" class="node">
<title>Node472094</title>
<g id="a_node2"><a xlink:href="quickjs_8h.html#a775522f2d084fc8fa0fcb33f390006b4" target="_top" xlink:title="JS_DupValue">
<polygon fill="none" stroke="#000000" points="161,-76.5 161,-95.5 238,-95.5 238,-76.5 161,-76.5"/>
<text text-anchor="middle" x="199.5" y="-83.5" font-family="Helvetica,sans-Serif" font-size="10.00" fill="#000000">JS_DupValue</text>
</a>
</g>
</g>
<!-- Node472093&#45;&gt;Node472094 -->
<g id="edge1" class="edge">
<title>Node472093&#45;&gt;Node472094</title>
<path fill="none" stroke="#191970" d="M94.8279,-57.589C112.9006,-62.4944 135.0984,-68.5196 154.3945,-73.7571"/>
<polygon fill="#191970" stroke="#191970" points="153.6157,-77.1723 164.1834,-76.4141 155.4494,-70.4167 153.6157,-77.1723"/>
</g>
<!-- Node472095 -->
<g id="node3" class="node">
<title>Node472095</title>
<g id="a_node3"><a xlink:href="quickjs_8h.html#afaa20c47565bc704c6c85f3d77254e7d" target="_top" xlink:title="JS_FreeValue">
<polygon fill="none" stroke="#000000" points="160.5,-38.5 160.5,-57.5 238.5,-57.5 238.5,-38.5 160.5,-38.5"/>
<text text-anchor="middle" x="199.5" y="-45.5" font-family="Helvetica,sans-Serif" font-size="10.00" fill="#000000">JS_FreeValue</text>
</a>
</g>
</g>
<!-- Node472093&#45;&gt;Node472095 -->
<g id="edge2" class="edge">
<title>Node472093&#45;&gt;Node472095</title>
<path fill="none" stroke="#191970" d="M119.2787,-48C129.5383,-48 140.0972,-48 150.0483,-48"/>
<polygon fill="#191970" stroke="#191970" points="150.1603,-51.5001 160.1602,-48 150.1602,-44.5001 150.1603,-51.5001"/>
</g>
<!-- Node472133 -->
<g id="node6" class="node">
<title>Node472133</title>
<g id="a_node6"><a xlink:href="quickjs_8h.html#ae91f44bd7249613050c18c7133702c67" target="_top" xlink:title="JS_NewFloat64">
<polygon fill="none" stroke="#000000" points="155,-.5 155,-19.5 244,-19.5 244,-.5 155,-.5"/>
<text text-anchor="middle" x="199.5" y="-7.5" font-family="Helvetica,sans-Serif" font-size="10.00" fill="#000000">JS_NewFloat64</text>
</a>
</g>
</g>
<!-- Node472093&#45;&gt;Node472133 -->
<g id="edge5" class="edge">
<title>Node472093&#45;&gt;Node472133</title>
<path fill="none" stroke="#191970" d="M94.8279,-38.411C112.9006,-33.5056 135.0984,-27.4804 154.3945,-22.2429"/>
<polygon fill="#191970" stroke="#191970" points="155.4494,-25.5833 164.1834,-19.5859 153.6157,-18.8277 155.4494,-25.5833"/>
</g>
<!-- Node472096 -->
<g id="node4" class="node">
<title>Node472096</title>
<g id="a_node4"><a xlink:href="quickjs_8c.html#aa059f309c30fd5166d16c82a97973146" target="_top" xlink:title="__JS_FreeValue">
<polygon fill="none" stroke="#000000" points="285,-38.5 285,-57.5 374,-57.5 374,-38.5 285,-38.5"/>
<text text-anchor="middle" x="329.5" y="-45.5" font-family="Helvetica,sans-Serif" font-size="10.00" fill="#000000">__JS_FreeValue</text>
</a>
</g>
</g>
<!-- Node472095&#45;&gt;Node472096 -->
<g id="edge3" class="edge">
<title>Node472095&#45;&gt;Node472096</title>
<path fill="none" stroke="#191970" d="M238.5043,-48C249.8396,-48 262.4377,-48 274.5577,-48"/>
<polygon fill="#191970" stroke="#191970" points="274.5879,-51.5001 284.5879,-48 274.5878,-44.5001 274.5879,-51.5001"/>
</g>
<!-- Node472097 -->
<g id="node5" class="node">
<title>Node472097</title>
<g id="a_node5"><a xlink:href="quickjs_8c.html#ab1ea3fad7d138be12144a38be4d36423" target="_top" xlink:title="__JS_FreeValueRT">
<polygon fill="none" stroke="#ff0000" points="415,-38.5 415,-57.5 516,-57.5 516,-38.5 415,-38.5"/>
<text text-anchor="middle" x="465.5" y="-45.5" font-family="Helvetica,sans-Serif" font-size="10.00" fill="#000000">__JS_FreeValueRT</text>
</a>
</g>
</g>
<!-- Node472096&#45;&gt;Node472097 -->
<g id="edge4" class="edge">
<title>Node472096&#45;&gt;Node472097</title>
<path fill="none" stroke="#191970" d="M374.0315,-48C383.7924,-48 394.2886,-48 404.5671,-48"/>
<polygon fill="#191970" stroke="#191970" points="404.7378,-51.5001 414.7378,-48 404.7377,-44.5001 404.7378,-51.5001"/>
</g>
<!-- Node472134 -->
<g id="node7" class="node">
<title>Node472134</title>
<g id="a_node7"><a xlink:href="quickjs_8h.html#a9bf98b18de88b4199910a43e933eb97d" target="_top" xlink:title="__JS_NewFloat64">
<polygon fill="none" stroke="#000000" points="280,-.5 280,-19.5 379,-19.5 379,-.5 280,-.5"/>
<text text-anchor="middle" x="329.5" y="-7.5" font-family="Helvetica,sans-Serif" font-size="10.00" fill="#000000">__JS_NewFloat64</text>
</a>
</g>
</g>
<!-- Node472133&#45;&gt;Node472134 -->
<g id="edge6" class="edge">
<title>Node472133&#45;&gt;Node472134</title>
<path fill="none" stroke="#191970" d="M244.2386,-10C252.3842,-10 261.0016,-10 269.504,-10"/>
<polygon fill="#191970" stroke="#191970" points="269.7787,-13.5001 279.7787,-10 269.7787,-6.5001 269.7787,-13.5001"/>
</g>
</g>
</svg>
