<?xml version="1.0" encoding="UTF-8" standalone="no"?>
<!DOCTYPE svg PUBLIC "-//W3C//DTD SVG 1.1//EN"
 "http://www.w3.org/Graphics/SVG/1.1/DTD/svg11.dtd">
<!-- Generated by graphviz version 2.40.1 (20161225.0304)
 -->
<!-- Title: JS_TryGetPropertyInt64 Pages: 1 -->
<svg width="1217pt" height="942pt"
 viewBox="0.00 0.00 1217.00 942.47" xmlns="http://www.w3.org/2000/svg" xmlns:xlink="http://www.w3.org/1999/xlink">
<g id="graph0" class="graph" transform="scale(1 1) rotate(0) translate(4 938.4659)">
<title>JS_TryGetPropertyInt64</title>
<!-- Node197127 -->
<g id="node1" class="node">
<title>Node197127</title>
<polygon fill="#bfbfbf" stroke="#000000" points="0,-566.9659 0,-585.9659 128,-585.9659 128,-566.9659 0,-566.9659"/>
<text text-anchor="middle" x="64" y="-573.9659" font-family="Helvetica,sans-Serif" font-size="10.00" fill="#000000">JS_TryGetPropertyInt64</text>
</g>
<!-- Node197128 -->
<g id="node2" class="node">
<title>Node197128</title>
<g id="a_node2"><a xlink:href="quickjs_8c.html#a877fcb7651d95b411ce70e62b7f4a1f0" target="_top" xlink:title="__JS_AtomFromUInt32">
<polygon fill="none" stroke="#000000" points="305.5,-914.9659 305.5,-933.9659 429.5,-933.9659 429.5,-914.9659 305.5,-914.9659"/>
<text text-anchor="middle" x="367.5" y="-921.9659" font-family="Helvetica,sans-Serif" font-size="10.00" fill="#000000">__JS_AtomFromUInt32</text>
</a>
</g>
</g>
<!-- Node197127&#45;&gt;Node197128 -->
<g id="edge1" class="edge">
<title>Node197127&#45;&gt;Node197128</title>
<path fill="none" stroke="#191970" d="M64.259,-586.1942C65.8882,-627.009 77.7493,-786.07 164,-867.4659 199.202,-900.6865 252.1648,-914.8052 295.2349,-920.6873"/>
<polygon fill="#191970" stroke="#191970" points="295.0332,-924.1891 305.3885,-921.9488 295.8963,-917.2425 295.0332,-924.1891"/>
</g>
<!-- Node197129 -->
<g id="node3" class="node">
<title>Node197129</title>
<g id="a_node3"><a xlink:href="quickjs_8c.html#ab7fc45a99935a1c0ba50b0216d9401a9" target="_top" xlink:title="JS_FreeAtom">
<polygon fill="none" stroke="#000000" points="849.5,-123.9659 849.5,-142.9659 926.5,-142.9659 926.5,-123.9659 849.5,-123.9659"/>
<text text-anchor="middle" x="888" y="-130.9659" font-family="Helvetica,sans-Serif" font-size="10.00" fill="#000000">JS_FreeAtom</text>
</a>
</g>
</g>
<!-- Node197127&#45;&gt;Node197129 -->
<g id="edge2" class="edge">
<title>Node197127&#45;&gt;Node197129</title>
<path fill="none" stroke="#191970" d="M64.5665,-566.6923C68.4726,-502.5621 93.3831,-142.1299 164,-63.4659 227.2478,6.9891 272.8206,-.4659 367.5,-.4659 367.5,-.4659 367.5,-.4659 564,-.4659 677.6292,-.4659 713.6716,-3.2801 813,-58.4659 838.7698,-72.7834 861.6397,-98.5248 875.1586,-115.8025"/>
<polygon fill="#191970" stroke="#191970" points="872.512,-118.105 881.3415,-123.9608 878.0908,-113.8769 872.512,-118.105"/>
</g>
<!-- Node197135 -->
<g id="node7" class="node">
<title>Node197135</title>
<g id="a_node7"><a xlink:href="quickjs_8h.html#a89b7c8686c7eee70b86be722ee4730ad" target="_top" xlink:title="JS_GetProperty">
<polygon fill="none" stroke="#000000" points="171.5,-408.9659 171.5,-427.9659 260.5,-427.9659 260.5,-408.9659 171.5,-408.9659"/>
<text text-anchor="middle" x="216" y="-415.9659" font-family="Helvetica,sans-Serif" font-size="10.00" fill="#000000">JS_GetProperty</text>
</a>
</g>
</g>
<!-- Node197127&#45;&gt;Node197135 -->
<g id="edge6" class="edge">
<title>Node197127&#45;&gt;Node197135</title>
<path fill="none" stroke="#191970" d="M73.5083,-566.5823C98.6728,-540.4245 167.265,-469.1247 199.2116,-435.9171"/>
<polygon fill="#191970" stroke="#191970" points="202.0847,-437.9789 206.4953,-428.3458 197.0401,-433.1259 202.0847,-437.9789"/>
</g>
<!-- Node197176 -->
<g id="node14" class="node">
<title>Node197176</title>
<g id="a_node14"><a xlink:href="quickjs_8h.html#ad80a83d73e9b7d872b88fbf2943aebe9" target="_top" xlink:title="JS_IsException">
<polygon fill="none" stroke="#000000" points="711.5,-800.9659 711.5,-819.9659 798.5,-819.9659 798.5,-800.9659 711.5,-800.9659"/>
<text text-anchor="middle" x="755" y="-807.9659" font-family="Helvetica,sans-Serif" font-size="10.00" fill="#000000">JS_IsException</text>
</a>
</g>
</g>
<!-- Node197127&#45;&gt;Node197176 -->
<g id="edge38" class="edge">
<title>Node197127&#45;&gt;Node197176</title>
<path fill="none" stroke="#191970" d="M74.2491,-586.1714C91.7719,-602.4815 128.9955,-635.9123 164,-659.4659 222.5647,-698.8727 238.3136,-708.62 304,-734.4659 440.5018,-788.1759 614.8586,-803.9455 701.3493,-808.563"/>
<polygon fill="#191970" stroke="#191970" points="701.2893,-812.0643 711.4529,-809.0726 701.642,-805.0732 701.2893,-812.0643"/>
</g>
<!-- Node197235 -->
<g id="node19" class="node">
<title>Node197235</title>
<g id="a_node19"><a xlink:href="quickjs_8c.html#a90d6e607f6917d817c1e997bd2e6ed07" target="_top" xlink:title="JS_GetPropertyValue">
<polygon fill="none" stroke="#ff0000" points="697,-180.9659 697,-199.9659 813,-199.9659 813,-180.9659 697,-180.9659"/>
<text text-anchor="middle" x="755" y="-187.9659" font-family="Helvetica,sans-Serif" font-size="10.00" fill="#000000">JS_GetPropertyValue</text>
</a>
</g>
</g>
<!-- Node197127&#45;&gt;Node197235 -->
<g id="edge33" class="edge">
<title>Node197127&#45;&gt;Node197235</title>
<path fill="none" stroke="#191970" d="M66.7064,-566.8194C81.198,-517.0841 154.5995,-288.0038 304,-185.4659 435.4467,-95.2504 504.7874,-118.6113 661,-150.4659 685.2693,-155.4149 711.0342,-166.8685 729.4401,-176.2568"/>
<polygon fill="#191970" stroke="#191970" points="727.8666,-179.3837 738.3476,-180.9327 731.1202,-173.1857 727.8666,-179.3837"/>
</g>
<!-- Node197177 -->
<g id="node20" class="node">
<title>Node197177</title>
<g id="a_node20"><a xlink:href="quickjs_8h.html#a2050bc428da1c65ac7eb87c3fa3b0392" target="_top" xlink:title="JS_NewInt32">
<polygon fill="none" stroke="#000000" points="849.5,-161.9659 849.5,-180.9659 926.5,-180.9659 926.5,-161.9659 849.5,-161.9659"/>
<text text-anchor="middle" x="888" y="-168.9659" font-family="Helvetica,sans-Serif" font-size="10.00" fill="#000000">JS_NewInt32</text>
</a>
</g>
</g>
<!-- Node197127&#45;&gt;Node197177 -->
<g id="edge45" class="edge">
<title>Node197127&#45;&gt;Node197177</title>
<path fill="none" stroke="#191970" d="M64.6685,-566.6687C70.2137,-493.7518 114.9498,-38.4659 367.5,-38.4659 367.5,-38.4659 367.5,-38.4659 564,-38.4659 681.0814,-38.4659 710.0723,-68.6633 813,-124.4659 830.8194,-134.1268 831.7961,-141.7472 849,-152.4659 851.6009,-154.0864 854.3602,-155.6717 857.1619,-157.1922"/>
<polygon fill="#191970" stroke="#191970" points="855.6189,-160.3343 866.1131,-161.7911 858.8179,-154.108 855.6189,-160.3343"/>
</g>
<!-- Node197419 -->
<g id="node26" class="node">
<title>Node197419</title>
<g id="a_node26"><a xlink:href="quickjs_8c.html#a9d6d0a9704951d01c128975e0d2213f8" target="_top" xlink:title="JS_HasProperty">
<polygon fill="none" stroke="#ff0000" points="322,-705.9659 322,-724.9659 413,-724.9659 413,-705.9659 322,-705.9659"/>
<text text-anchor="middle" x="367.5" y="-712.9659" font-family="Helvetica,sans-Serif" font-size="10.00" fill="#000000">JS_HasProperty</text>
</a>
</g>
</g>
<!-- Node197127&#45;&gt;Node197419 -->
<g id="edge34" class="edge">
<title>Node197127&#45;&gt;Node197419</title>
<path fill="none" stroke="#191970" d="M84.8608,-586.02C137.4899,-610.1236 275.8344,-673.484 337.3114,-701.6399"/>
<polygon fill="#191970" stroke="#191970" points="335.944,-704.8632 346.4932,-705.8451 338.8588,-698.4989 335.944,-704.8632"/>
</g>
<!-- Node197562 -->
<g id="node27" class="node">
<title>Node197562</title>
<g id="a_node27"><a xlink:href="quickjs_8c.html#aa641af3a921335927dab07dc83285917" target="_top" xlink:title="JS_NewAtomInt64">
<polygon fill="none" stroke="#000000" points="164,-838.9659 164,-857.9659 268,-857.9659 268,-838.9659 164,-838.9659"/>
<text text-anchor="middle" x="216" y="-845.9659" font-family="Helvetica,sans-Serif" font-size="10.00" fill="#000000">JS_NewAtomInt64</text>
</a>
</g>
</g>
<!-- Node197127&#45;&gt;Node197562 -->
<g id="edge39" class="edge">
<title>Node197127&#45;&gt;Node197562</title>
<path fill="none" stroke="#191970" d="M67.5806,-586.1256C79.1518,-616.7798 117.5015,-714.1068 164,-786.4659 174.3669,-802.5985 188.4623,-819.1541 199.3628,-831.0951"/>
<polygon fill="#191970" stroke="#191970" points="196.9386,-833.6276 206.3138,-838.5628 202.0624,-828.8583 196.9386,-833.6276"/>
</g>
<!-- Node197130 -->
<g id="node4" class="node">
<title>Node197130</title>
<g id="a_node4"><a xlink:href="quickjs_8c.html#a7f6796ee7a195631366f57c713a33f65" target="_top" xlink:title="__JS_AtomIsConst">
<polygon fill="none" stroke="#000000" points="963,-433.9659 963,-452.9659 1067,-452.9659 1067,-433.9659 963,-433.9659"/>
<text text-anchor="middle" x="1015" y="-440.9659" font-family="Helvetica,sans-Serif" font-size="10.00" fill="#000000">__JS_AtomIsConst</text>
</a>
</g>
</g>
<!-- Node197129&#45;&gt;Node197130 -->
<g id="edge3" class="edge">
<title>Node197129&#45;&gt;Node197130</title>
<path fill="none" stroke="#191970" d="M915.2332,-143.0752C919.623,-145.5861 923.7766,-148.6819 927,-152.4659 997.332,-235.031 1011.4538,-372.5477 1014.2884,-423.5959"/>
<polygon fill="#191970" stroke="#191970" points="1010.806,-424.0575 1014.7666,-433.8842 1017.7985,-423.7325 1010.806,-424.0575"/>
</g>
<!-- Node197131 -->
<g id="node5" class="node">
<title>Node197131</title>
<g id="a_node5"><a xlink:href="quickjs_8c.html#a0bbd9e3ecd55e3ea6c9d44bfda382095" target="_top" xlink:title="__JS_FreeAtom">
<polygon fill="none" stroke="#000000" points="971,-123.9659 971,-142.9659 1059,-142.9659 1059,-123.9659 971,-123.9659"/>
<text text-anchor="middle" x="1015" y="-130.9659" font-family="Helvetica,sans-Serif" font-size="10.00" fill="#000000">__JS_FreeAtom</text>
</a>
</g>
</g>
<!-- Node197129&#45;&gt;Node197131 -->
<g id="edge4" class="edge">
<title>Node197129&#45;&gt;Node197131</title>
<path fill="none" stroke="#191970" d="M926.7943,-133.4659C937.4056,-133.4659 949.1075,-133.4659 960.4236,-133.4659"/>
<polygon fill="#191970" stroke="#191970" points="960.6652,-136.966 970.6652,-133.4659 960.6651,-129.966 960.6652,-136.966"/>
</g>
<!-- Node197132 -->
<g id="node6" class="node">
<title>Node197132</title>
<g id="a_node6"><a xlink:href="quickjs_8c.html#a58c8965dad50b15b75918a09f3d9dc7c" target="_top" xlink:title="JS_FreeAtomStruct">
<polygon fill="none" stroke="#ff0000" points="1103,-123.9659 1103,-142.9659 1209,-142.9659 1209,-123.9659 1103,-123.9659"/>
<text text-anchor="middle" x="1156" y="-130.9659" font-family="Helvetica,sans-Serif" font-size="10.00" fill="#000000">JS_FreeAtomStruct</text>
</a>
</g>
</g>
<!-- Node197131&#45;&gt;Node197132 -->
<g id="edge5" class="edge">
<title>Node197131&#45;&gt;Node197132</title>
<path fill="none" stroke="#191970" d="M1059.2264,-133.4659C1069.8001,-133.4659 1081.2938,-133.4659 1092.5458,-133.4659"/>
<polygon fill="#191970" stroke="#191970" points="1092.778,-136.966 1102.7779,-133.4659 1092.7779,-129.966 1092.778,-136.966"/>
</g>
<!-- Node197136 -->
<g id="node8" class="node">
<title>Node197136</title>
<g id="a_node8"><a xlink:href="quickjs_8c.html#a5762c57ae0c9937e986040c01222833a" target="_top" xlink:title="JS_GetPropertyInternal">
<polygon fill="none" stroke="#000000" points="304,-408.9659 304,-427.9659 431,-427.9659 431,-408.9659 304,-408.9659"/>
<text text-anchor="middle" x="367.5" y="-415.9659" font-family="Helvetica,sans-Serif" font-size="10.00" fill="#000000">JS_GetPropertyInternal</text>
</a>
</g>
</g>
<!-- Node197135&#45;&gt;Node197136 -->
<g id="edge7" class="edge">
<title>Node197135&#45;&gt;Node197136</title>
<path fill="none" stroke="#191970" d="M260.6356,-418.4659C270.9936,-418.4659 282.291,-418.4659 293.536,-418.4659"/>
<polygon fill="#191970" stroke="#191970" points="293.8198,-421.966 303.8197,-418.4659 293.8197,-414.966 293.8198,-421.966"/>
</g>
<!-- Node197137 -->
<g id="node9" class="node">
<title>Node197137</title>
<g id="a_node9"><a xlink:href="quickjs_8c.html#a288254c06a39c9fca740a7abdad2834e" target="_top" xlink:title="__JS_AtomIsTaggedInt">
<polygon fill="none" stroke="#000000" points="502.5,-180.9659 502.5,-199.9659 625.5,-199.9659 625.5,-180.9659 502.5,-180.9659"/>
<text text-anchor="middle" x="564" y="-187.9659" font-family="Helvetica,sans-Serif" font-size="10.00" fill="#000000">__JS_AtomIsTaggedInt</text>
</a>
</g>
</g>
<!-- Node197136&#45;&gt;Node197137 -->
<g id="edge8" class="edge">
<title>Node197136&#45;&gt;Node197137</title>
<path fill="none" stroke="#191970" d="M369.0058,-408.6506C374.7343,-374.8864 398.4231,-262.6832 467,-209.4659 474.5464,-203.6098 483.3971,-199.402 492.6282,-196.4026"/>
<polygon fill="#191970" stroke="#191970" points="493.6525,-199.7507 502.3469,-193.696 491.7745,-193.0073 493.6525,-199.7507"/>
</g>
<!-- Node197138 -->
<g id="node10" class="node">
<title>Node197138</title>
<g id="a_node10"><a xlink:href="quickjs_8c.html#a89f38938cee8077ce1fbba07946ed185" target="_top" xlink:title="__JS_AtomToUInt32">
<polygon fill="none" stroke="#000000" points="509,-534.9659 509,-553.9659 619,-553.9659 619,-534.9659 509,-534.9659"/>
<text text-anchor="middle" x="564" y="-541.9659" font-family="Helvetica,sans-Serif" font-size="10.00" fill="#000000">__JS_AtomToUInt32</text>
</a>
</g>
</g>
<!-- Node197136&#45;&gt;Node197138 -->
<g id="edge9" class="edge">
<title>Node197136&#45;&gt;Node197138</title>
<path fill="none" stroke="#191970" d="M373.3357,-428.0463C386.8722,-449.3699 422.662,-500.8067 467,-525.4659 476.7023,-530.862 487.6957,-534.7442 498.708,-537.533"/>
<polygon fill="#191970" stroke="#191970" points="498.266,-541.0209 508.7901,-539.7989 499.8009,-534.1913 498.266,-541.0209"/>
</g>
<!-- Node197139 -->
<g id="node11" class="node">
<title>Node197139</title>
<g id="a_node11"><a xlink:href="quickjs_8c.html#a06b76f5124fd985e35f4c652fd018d6d" target="_top" xlink:title="find_own_property">
<polygon fill="none" stroke="#ff0000" points="510.5,-496.9659 510.5,-515.9659 617.5,-515.9659 617.5,-496.9659 510.5,-496.9659"/>
<text text-anchor="middle" x="564" y="-503.9659" font-family="Helvetica,sans-Serif" font-size="10.00" fill="#000000">find_own_property</text>
</a>
</g>
</g>
<!-- Node197136&#45;&gt;Node197139 -->
<g id="edge10" class="edge">
<title>Node197136&#45;&gt;Node197139</title>
<path fill="none" stroke="#191970" d="M378.275,-428.0074C395.6643,-442.8757 431.562,-471.4235 467,-486.4659 477.5279,-490.9347 489.1333,-494.4315 500.5457,-497.1596"/>
<polygon fill="#191970" stroke="#191970" points="499.9727,-500.6175 510.4931,-499.3644 501.4874,-493.7834 499.9727,-500.6175"/>
</g>
<!-- Node197142 -->
<g id="node12" class="node">
<title>Node197142</title>
<g id="a_node12"><a xlink:href="quickjs_8c.html#add3eea1f6d626963ade3c28a1fd563d1" target="_top" xlink:title="JS_AtomIsNumericIndex">
<polygon fill="none" stroke="#ff0000" points="497,-724.9659 497,-743.9659 631,-743.9659 631,-724.9659 497,-724.9659"/>
<text text-anchor="middle" x="564" y="-731.9659" font-family="Helvetica,sans-Serif" font-size="10.00" fill="#000000">JS_AtomIsNumericIndex</text>
</a>
</g>
</g>
<!-- Node197136&#45;&gt;Node197142 -->
<g id="edge11" class="edge">
<title>Node197136&#45;&gt;Node197142</title>
<path fill="none" stroke="#191970" d="M368.8599,-428.0902C374.4654,-464.6622 398.7869,-596.997 467,-677.4659 483.4643,-696.8884 508.312,-711.3102 528.7365,-720.7882"/>
<polygon fill="#191970" stroke="#191970" points="527.4963,-724.0668 538.0568,-724.9195 530.333,-717.6673 527.4963,-724.0668"/>
</g>
<!-- Node197146 -->
<g id="node13" class="node">
<title>Node197146</title>
<g id="a_node13"><a xlink:href="quickjs_8h.html#afaa20c47565bc704c6c85f3d77254e7d" target="_top" xlink:title="JS_FreeValue">
<polygon fill="none" stroke="#ff0000" points="849,-686.9659 849,-705.9659 927,-705.9659 927,-686.9659 849,-686.9659"/>
<text text-anchor="middle" x="888" y="-693.9659" font-family="Helvetica,sans-Serif" font-size="10.00" fill="#000000">JS_FreeValue</text>
</a>
</g>
</g>
<!-- Node197136&#45;&gt;Node197146 -->
<g id="edge19" class="edge">
<title>Node197136&#45;&gt;Node197146</title>
<path fill="none" stroke="#191970" d="M371.0398,-428.239C381.252,-454.9139 413.5,-529.2542 467,-563.4659 540.6833,-610.5844 577.2344,-571.3122 661,-596.4659 736.3806,-619.1018 819.8276,-660.3855 861.4033,-682.1538"/>
<polygon fill="#191970" stroke="#191970" points="859.8557,-685.2945 870.3331,-686.8674 863.1234,-679.104 859.8557,-685.2945"/>
</g>
<!-- Node197316 -->
<g id="node15" class="node">
<title>Node197316</title>
<g id="a_node15"><a xlink:href="quickjs_8c.html#a8aac7988cf0c6f3c2b629a6662fd7ec8" target="_top" xlink:title="JS_AutoInitProperty">
<polygon fill="none" stroke="#ff0000" points="509,-648.9659 509,-667.9659 619,-667.9659 619,-648.9659 509,-648.9659"/>
<text text-anchor="middle" x="564" y="-655.9659" font-family="Helvetica,sans-Serif" font-size="10.00" fill="#000000">JS_AutoInitProperty</text>
</a>
</g>
</g>
<!-- Node197136&#45;&gt;Node197316 -->
<g id="edge14" class="edge">
<title>Node197136&#45;&gt;Node197316</title>
<path fill="none" stroke="#191970" d="M368.9164,-428.0029C374.4682,-461.8715 397.949,-577.3784 467,-634.4659 476.2444,-642.1087 487.5708,-647.3737 499.1804,-650.988"/>
<polygon fill="#191970" stroke="#191970" points="498.3911,-654.4005 508.9595,-653.6516 500.2308,-647.6465 498.3911,-654.4005"/>
</g>
<!-- Node197212 -->
<g id="node16" class="node">
<title>Node197212</title>
<g id="a_node16"><a xlink:href="quickjs_8c.html#a75f6ee5e4235a7dc99889f3d2eb2c147" target="_top" xlink:title="JS_CallFree">
<polygon fill="none" stroke="#ff0000" points="720,-686.9659 720,-705.9659 790,-705.9659 790,-686.9659 720,-686.9659"/>
<text text-anchor="middle" x="755" y="-693.9659" font-family="Helvetica,sans-Serif" font-size="10.00" fill="#000000">JS_CallFree</text>
</a>
</g>
</g>
<!-- Node197136&#45;&gt;Node197212 -->
<g id="edge16" class="edge">
<title>Node197136&#45;&gt;Node197212</title>
<path fill="none" stroke="#191970" d="M369.8577,-428.0352C377.7933,-458.1204 406.497,-551.4564 467,-596.4659 537.858,-649.1789 579.038,-606.5761 661,-639.4659 687.7901,-650.2164 715.7364,-668.1606 734.1211,-681.0454"/>
<polygon fill="#191970" stroke="#191970" points="732.1597,-683.9456 742.3312,-686.9106 736.2288,-678.2497 732.1597,-683.9456"/>
</g>
<!-- Node197184 -->
<g id="node17" class="node">
<title>Node197184</title>
<g id="a_node17"><a xlink:href="quickjs_8h.html#a775522f2d084fc8fa0fcb33f390006b4" target="_top" xlink:title="JS_DupValue">
<polygon fill="none" stroke="#000000" points="849.5,-408.9659 849.5,-427.9659 926.5,-427.9659 926.5,-408.9659 849.5,-408.9659"/>
<text text-anchor="middle" x="888" y="-415.9659" font-family="Helvetica,sans-Serif" font-size="10.00" fill="#000000">JS_DupValue</text>
</a>
</g>
</g>
<!-- Node197136&#45;&gt;Node197184 -->
<g id="edge18" class="edge">
<title>Node197136&#45;&gt;Node197184</title>
<path fill="none" stroke="#191970" d="M431.0631,-418.4659C536.2749,-418.4659 744.3938,-418.4659 839.0612,-418.4659"/>
<polygon fill="#191970" stroke="#191970" points="839.218,-421.966 849.218,-418.4659 839.2179,-414.966 839.218,-421.966"/>
</g>
<!-- Node197234 -->
<g id="node18" class="node">
<title>Node197234</title>
<g id="a_node18"><a xlink:href="quickjs_8c.html#aeb97957655d979e9fe56c955da2b2d4b" target="_top" xlink:title="JS_GetPropertyUint32">
<polygon fill="none" stroke="#ff0000" points="503,-294.9659 503,-313.9659 625,-313.9659 625,-294.9659 503,-294.9659"/>
<text text-anchor="middle" x="564" y="-301.9659" font-family="Helvetica,sans-Serif" font-size="10.00" fill="#000000">JS_GetPropertyUint32</text>
</a>
</g>
</g>
<!-- Node197136&#45;&gt;Node197234 -->
<g id="edge20" class="edge">
<title>Node197136&#45;&gt;Node197234</title>
<path fill="none" stroke="#191970" d="M374.4848,-408.8042C389.1898,-389.2441 425.4318,-344.9932 467,-323.4659 475.1131,-319.2643 484.0472,-315.9886 493.1099,-313.4353"/>
<polygon fill="#191970" stroke="#191970" points="494.1279,-316.7881 502.9616,-310.9386 492.4082,-310.0026 494.1279,-316.7881"/>
</g>
<!-- Node197136&#45;&gt;Node197177 -->
<g id="edge30" class="edge">
<title>Node197136&#45;&gt;Node197177</title>
<path fill="none" stroke="#191970" d="M367.8358,-408.8249C369.7519,-370.5333 382.5185,-228.5125 467,-171.4659 586.5649,-90.7292 772.0391,-134.4959 850.7018,-158.7693"/>
<polygon fill="#191970" stroke="#191970" points="850.0457,-162.2325 860.6356,-161.9078 852.1546,-155.5577 850.0457,-162.2325"/>
</g>
<!-- Node197342 -->
<g id="node21" class="node">
<title>Node197342</title>
<g id="a_node21"><a xlink:href="quickjs_8c.html#a93550bf785e919d0881399712c54cb34" target="_top" xlink:title="JS_GetPrototypePrimitive">
<polygon fill="none" stroke="#000000" points="494,-332.9659 494,-351.9659 634,-351.9659 634,-332.9659 494,-332.9659"/>
<text text-anchor="middle" x="564" y="-339.9659" font-family="Helvetica,sans-Serif" font-size="10.00" fill="#000000">JS_GetPrototypePrimitive</text>
</a>
</g>
</g>
<!-- Node197136&#45;&gt;Node197342 -->
<g id="edge27" class="edge">
<title>Node197136&#45;&gt;Node197342</title>
<path fill="none" stroke="#191970" d="M380.9589,-408.8314C399.4513,-396.0567 434.169,-373.7049 467,-361.4659 474.2357,-358.7686 481.9248,-356.4324 489.6844,-354.4138"/>
<polygon fill="#191970" stroke="#191970" points="490.6311,-357.7857 499.522,-352.0235 488.9783,-350.9836 490.6311,-357.7857"/>
</g>
<!-- Node197421 -->
<g id="node22" class="node">
<title>Node197421</title>
<g id="a_node22"><a xlink:href="quickjs_8h.html#aaab426b47c95d00479b7355b1cf7f56c" target="_top" xlink:title="JS_IsUninitialized">
<polygon fill="none" stroke="#000000" points="513.5,-256.9659 513.5,-275.9659 614.5,-275.9659 614.5,-256.9659 513.5,-256.9659"/>
<text text-anchor="middle" x="564" y="-263.9659" font-family="Helvetica,sans-Serif" font-size="10.00" fill="#000000">JS_IsUninitialized</text>
</a>
</g>
</g>
<!-- Node197136&#45;&gt;Node197421 -->
<g id="edge28" class="edge">
<title>Node197136&#45;&gt;Node197421</title>
<path fill="none" stroke="#191970" d="M371.6478,-408.8438C382.9232,-383.9313 416.7002,-317.0689 467,-285.4659 477.7774,-278.6946 490.4524,-274.252 503.0207,-271.3572"/>
<polygon fill="#191970" stroke="#191970" points="503.9202,-274.7467 513.039,-269.3526 502.5466,-267.8828 503.9202,-274.7467"/>
</g>
<!-- Node197560 -->
<g id="node23" class="node">
<title>Node197560</title>
<g id="a_node23"><a xlink:href="quickjs_8c.html#a077ffa6455c0d7831bd4547542b5f2f7" target="_top" xlink:title="js_new_string_char">
<polygon fill="none" stroke="#ff0000" points="509,-218.9659 509,-237.9659 619,-237.9659 619,-218.9659 509,-218.9659"/>
<text text-anchor="middle" x="564" y="-225.9659" font-family="Helvetica,sans-Serif" font-size="10.00" fill="#000000">js_new_string_char</text>
</a>
</g>
</g>
<!-- Node197136&#45;&gt;Node197560 -->
<g id="edge29" class="edge">
<title>Node197136&#45;&gt;Node197560</title>
<path fill="none" stroke="#191970" d="M370.0503,-408.7902C378.3718,-379.2518 407.6778,-289.6932 467,-247.4659 476.4071,-240.7697 487.5706,-236.281 498.9172,-233.3019"/>
<polygon fill="#191970" stroke="#191970" points="499.9091,-236.6662 508.896,-231.055 498.3714,-229.8372 499.9091,-236.6662"/>
</g>
<!-- Node197344 -->
<g id="node24" class="node">
<title>Node197344</title>
<g id="a_node24"><a xlink:href="quickjs_8c.html#ab8d0b87c9eed4eb6c054b6f4e1731554" target="_top" xlink:title="JS_ThrowReferenceErrorNot\lDefined">
<polygon fill="none" stroke="#ff0000" points="489,-447.4659 489,-477.4659 639,-477.4659 639,-447.4659 489,-447.4659"/>
<text text-anchor="start" x="497" y="-465.4659" font-family="Helvetica,sans-Serif" font-size="10.00" fill="#000000">JS_ThrowReferenceErrorNot</text>
<text text-anchor="middle" x="564" y="-454.4659" font-family="Helvetica,sans-Serif" font-size="10.00" fill="#000000">Defined</text>
</a>
</g>
</g>
<!-- Node197136&#45;&gt;Node197344 -->
<g id="edge31" class="edge">
<title>Node197136&#45;&gt;Node197344</title>
<path fill="none" stroke="#191970" d="M410.1376,-428.0133C432.5575,-433.0335 460.7381,-439.3437 486.8356,-445.1874"/>
<polygon fill="#191970" stroke="#191970" points="486.1963,-448.6308 496.7195,-447.4006 487.7259,-441.8 486.1963,-448.6308"/>
</g>
<!-- Node197422 -->
<g id="node25" class="node">
<title>Node197422</title>
<g id="a_node25"><a xlink:href="quickjs_8c.html#a75ac132a3af4de01e1fadeb0bede6ee7" target="_top" xlink:title="JS_ThrowReferenceErrorUninitialized">
<polygon fill="none" stroke="#ff0000" points="467,-370.9659 467,-389.9659 661,-389.9659 661,-370.9659 467,-370.9659"/>
<text text-anchor="middle" x="564" y="-377.9659" font-family="Helvetica,sans-Serif" font-size="10.00" fill="#000000">JS_ThrowReferenceErrorUninitialized</text>
</a>
</g>
</g>
<!-- Node197136&#45;&gt;Node197422 -->
<g id="edge32" class="edge">
<title>Node197136&#45;&gt;Node197422</title>
<path fill="none" stroke="#191970" d="M416.8316,-408.926C443.4607,-403.7763 476.5266,-397.3819 504.5663,-391.9595"/>
<polygon fill="#191970" stroke="#191970" points="505.4946,-395.3449 514.6481,-390.0098 504.1654,-388.4722 505.4946,-395.3449"/>
</g>
<!-- Node197142&#45;&gt;Node197146 -->
<g id="edge12" class="edge">
<title>Node197142&#45;&gt;Node197146</title>
<path fill="none" stroke="#191970" d="M631.2163,-732.4663C681.5376,-730.213 751.9227,-725.4564 813,-715.4659 823.6483,-713.7242 834.9985,-711.2048 845.5618,-708.5672"/>
<polygon fill="#191970" stroke="#191970" points="846.5941,-711.9155 855.3997,-706.0238 844.8419,-705.1383 846.5941,-711.9155"/>
</g>
<!-- Node197142&#45;&gt;Node197176 -->
<g id="edge13" class="edge">
<title>Node197142&#45;&gt;Node197176</title>
<path fill="none" stroke="#191970" d="M588.1903,-744.0914C621.9162,-757.5111 683.2089,-781.8998 721.3669,-797.0831"/>
<polygon fill="#191970" stroke="#191970" points="720.4206,-800.4735 731.0061,-800.9186 723.0087,-793.9694 720.4206,-800.4735"/>
</g>
<!-- Node197316&#45;&gt;Node197176 -->
<g id="edge15" class="edge">
<title>Node197316&#45;&gt;Node197176</title>
<path fill="none" stroke="#191970" d="M583.527,-668.0204C603.8126,-678.3748 636.0215,-696.0407 661,-715.4659 691.7703,-739.3953 722.637,-772.8305 740.2219,-792.9896"/>
<polygon fill="#191970" stroke="#191970" points="737.728,-795.4572 746.9061,-800.7499 743.0318,-790.8888 737.728,-795.4572"/>
</g>
<!-- Node197212&#45;&gt;Node197146 -->
<g id="edge17" class="edge">
<title>Node197212&#45;&gt;Node197146</title>
<path fill="none" stroke="#191970" d="M790.2924,-696.4659C805.0645,-696.4659 822.4936,-696.4659 838.5112,-696.4659"/>
<polygon fill="#191970" stroke="#191970" points="838.7912,-699.966 848.7911,-696.4659 838.7911,-692.966 838.7912,-699.966"/>
</g>
<!-- Node197234&#45;&gt;Node197235 -->
<g id="edge21" class="edge">
<title>Node197234&#45;&gt;Node197235</title>
<path fill="none" stroke="#191970" d="M625.1654,-298.2343C637.5005,-295.4161 650.0348,-291.3437 661,-285.4659 696.0711,-266.6666 726.3391,-230.4199 742.4998,-208.5396"/>
<polygon fill="#191970" stroke="#191970" points="745.5453,-210.299 748.5349,-200.1347 739.8592,-206.2161 745.5453,-210.299"/>
</g>
<!-- Node197235&#45;&gt;Node197129 -->
<g id="edge23" class="edge">
<title>Node197235&#45;&gt;Node197129</title>
<path fill="none" stroke="#191970" d="M777.2612,-180.9254C798.9352,-171.6366 832.0835,-157.4302 856.4667,-146.9802"/>
<polygon fill="#191970" stroke="#191970" points="857.8534,-150.1939 865.6662,-143.0376 855.096,-143.7598 857.8534,-150.1939"/>
</g>
<!-- Node197235&#45;&gt;Node197135 -->
<g id="edge25" class="edge">
<title>Node197235&#45;&gt;Node197135</title>
<path fill="none" stroke="#191970" d="M727.5192,-180.9214C674.7407,-164.2263 556.4961,-134.8158 467,-171.4659 349.7796,-219.4696 257.8911,-351.5592 227.1113,-400.186"/>
<polygon fill="#191970" stroke="#191970" points="224.0943,-398.4098 221.7807,-408.7489 230.0369,-402.1092 224.0943,-398.4098"/>
</g>
<!-- Node197235&#45;&gt;Node197146 -->
<g id="edge24" class="edge">
<title>Node197235&#45;&gt;Node197146</title>
<path fill="none" stroke="#191970" d="M757.5381,-200.1221C773.5543,-261.0559 860.6534,-592.4254 882.8503,-676.8737"/>
<polygon fill="#191970" stroke="#191970" points="879.508,-677.9266 885.4353,-686.7083 886.2781,-676.1471 879.508,-677.9266"/>
</g>
<!-- Node197235&#45;&gt;Node197184 -->
<g id="edge22" class="edge">
<title>Node197235&#45;&gt;Node197184</title>
<path fill="none" stroke="#191970" d="M760.5455,-199.9725C780.6983,-234.5203 850.2804,-353.8038 877.2247,-399.994"/>
<polygon fill="#191970" stroke="#191970" points="874.3688,-402.0445 882.4308,-408.9188 880.4153,-398.5174 874.3688,-402.0445"/>
</g>
<!-- Node197235&#45;&gt;Node197177 -->
<g id="edge26" class="edge">
<title>Node197235&#45;&gt;Node197177</title>
<path fill="none" stroke="#191970" d="M813.3357,-182.1323C821.9697,-180.8988 830.7901,-179.6388 839.2028,-178.437"/>
<polygon fill="#191970" stroke="#191970" points="839.8178,-181.8847 849.2223,-177.0056 838.8278,-174.9551 839.8178,-181.8847"/>
</g>
<!-- Node197419&#45;&gt;Node197142 -->
<g id="edge35" class="edge">
<title>Node197419&#45;&gt;Node197142</title>
<path fill="none" stroke="#191970" d="M413.075,-719.8727C434.8975,-721.9827 461.6423,-724.5688 486.5244,-726.9747"/>
<polygon fill="#191970" stroke="#191970" points="486.3946,-730.4784 496.6851,-727.9571 487.0684,-723.5109 486.3946,-730.4784"/>
</g>
<!-- Node197419&#45;&gt;Node197146 -->
<g id="edge37" class="edge">
<title>Node197419&#45;&gt;Node197146</title>
<path fill="none" stroke="#191970" d="M386.3418,-725.05C405.9165,-734.428 437.723,-748.0656 467,-753.4659 618.4311,-781.3986 668.5057,-788.692 813,-735.4659 831.0443,-728.8191 831.9221,-720.3046 849,-711.4659 849.8174,-711.0429 850.6496,-710.6249 851.4931,-710.2126"/>
<polygon fill="#191970" stroke="#191970" points="853.1139,-713.3216 860.8046,-706.0343 850.2481,-706.9351 853.1139,-713.3216"/>
</g>
<!-- Node197419&#45;&gt;Node197184 -->
<g id="edge36" class="edge">
<title>Node197419&#45;&gt;Node197184</title>
<path fill="none" stroke="#191970" d="M413.0281,-713.4794C484.4638,-709.7165 619.0646,-699.8312 661,-677.4659 770.0786,-619.2915 851.0328,-486.1439 878.1414,-437.072"/>
<polygon fill="#191970" stroke="#191970" points="881.2741,-438.6373 882.9691,-428.1789 875.1221,-435.2976 881.2741,-438.6373"/>
</g>
<!-- Node197562&#45;&gt;Node197128 -->
<g id="edge40" class="edge">
<title>Node197562&#45;&gt;Node197128</title>
<path fill="none" stroke="#191970" d="M230.5188,-858.1018C247.6238,-869.2018 277.1232,-887.5647 304,-900.4659 312.1055,-904.3567 321.0193,-908.0599 329.5398,-911.3418"/>
<polygon fill="#191970" stroke="#191970" points="328.3361,-914.6284 338.9285,-914.8557 330.7898,-908.0725 328.3361,-914.6284"/>
</g>
<!-- Node197562&#45;&gt;Node197176 -->
<g id="edge43" class="edge">
<title>Node197562&#45;&gt;Node197176</title>
<path fill="none" stroke="#191970" d="M268.1896,-847.2402C351.4422,-844.9277 519.3642,-838.8007 661,-824.4659 673.9529,-823.155 687.8514,-821.3221 700.8818,-819.4136"/>
<polygon fill="#191970" stroke="#191970" points="701.743,-822.8236 711.1113,-817.8754 700.702,-815.9014 701.743,-822.8236"/>
</g>
<!-- Node197239 -->
<g id="node28" class="node">
<title>Node197239</title>
<g id="a_node28"><a xlink:href="quickjs_8c.html#acd08798ec15cc37c60d2e7d70007c6a8" target="_top" xlink:title="__JS_NewAtom">
<polygon fill="none" stroke="#ff0000" points="710.5,-857.9659 710.5,-876.9659 799.5,-876.9659 799.5,-857.9659 710.5,-857.9659"/>
<text text-anchor="middle" x="755" y="-864.9659" font-family="Helvetica,sans-Serif" font-size="10.00" fill="#000000">__JS_NewAtom</text>
</a>
</g>
</g>
<!-- Node197562&#45;&gt;Node197239 -->
<g id="edge41" class="edge">
<title>Node197562&#45;&gt;Node197239</title>
<path fill="none" stroke="#191970" d="M267.9619,-858.0264C279.7696,-859.8378 292.2847,-861.4745 304,-862.4659 446.4982,-874.5254 615.2147,-871.923 700.2162,-869.4408"/>
<polygon fill="#191970" stroke="#191970" points="700.5179,-872.9334 710.4073,-869.1319 700.3058,-865.9366 700.5179,-872.9334"/>
</g>
<!-- Node197192 -->
<g id="node29" class="node">
<title>Node197192</title>
<g id="a_node29"><a xlink:href="quickjs_8c.html#a0ee6a3654a6016393fac5e1c108f403a" target="_top" xlink:title="JS_NewString">
<polygon fill="none" stroke="#ff0000" points="327,-800.9659 327,-819.9659 408,-819.9659 408,-800.9659 327,-800.9659"/>
<text text-anchor="middle" x="367.5" y="-807.9659" font-family="Helvetica,sans-Serif" font-size="10.00" fill="#000000">JS_NewString</text>
</a>
</g>
</g>
<!-- Node197562&#45;&gt;Node197192 -->
<g id="edge44" class="edge">
<title>Node197562&#45;&gt;Node197192</title>
<path fill="none" stroke="#191970" d="M254.2298,-838.8769C274.1319,-833.885 298.6567,-827.7336 319.7909,-822.4326"/>
<polygon fill="#191970" stroke="#191970" points="320.6971,-825.8138 329.5451,-819.986 318.994,-819.0241 320.6971,-825.8138"/>
</g>
<!-- Node197239&#45;&gt;Node197130 -->
<g id="edge42" class="edge">
<title>Node197239&#45;&gt;Node197130</title>
<path fill="none" stroke="#191970" d="M771.1439,-857.9586C805.4468,-836.8897 885.8151,-782.7685 927,-715.4659 979.4128,-629.8152 1003.9447,-509.6583 1011.9283,-463.0321"/>
<polygon fill="#191970" stroke="#191970" points="1015.3992,-463.4951 1013.572,-453.0591 1008.4924,-462.3568 1015.3992,-463.4951"/>
</g>
</g>
</svg>
