<?xml version="1.0" encoding="UTF-8" standalone="no"?>
<!DOCTYPE svg PUBLIC "-//W3C//DTD SVG 1.1//EN"
 "http://www.w3.org/Graphics/SVG/1.1/DTD/svg11.dtd">
<!-- Generated by graphviz version 2.40.1 (20161225.0304)
 -->
<!-- Title: JS_SetPropertyFunctionList Pages: 1 -->
<svg width="1130pt" height="463pt"
 viewBox="0.00 0.00 1130.00 462.84" xmlns="http://www.w3.org/2000/svg" xmlns:xlink="http://www.w3.org/1999/xlink">
<g id="graph0" class="graph" transform="scale(1 1) rotate(0) translate(4 458.8354)">
<title>JS_SetPropertyFunctionList</title>
<!-- Node90099 -->
<g id="node1" class="node">
<title>Node90099</title>
<polygon fill="#bfbfbf" stroke="#000000" points="0,-349.9956 0,-368.9956 146,-368.9956 146,-349.9956 0,-349.9956"/>
<text text-anchor="middle" x="73" y="-356.9956" font-family="Helvetica,sans-Serif" font-size="10.00" fill="#000000">JS_SetPropertyFunctionList</text>
</g>
<!-- Node90100 -->
<g id="node2" class="node">
<title>Node90100</title>
<g id="a_node2"><a xlink:href="quickjs_8c.html#ae8e62d181b34d2e7bdda0b099c0880f5" target="_top" xlink:title="find_atom">
<polygon fill="none" stroke="#000000" points="418,-349.9956 418,-368.9956 483,-368.9956 483,-349.9956 418,-349.9956"/>
<text text-anchor="middle" x="450.5" y="-356.9956" font-family="Helvetica,sans-Serif" font-size="10.00" fill="#000000">find_atom</text>
</a>
</g>
</g>
<!-- Node90099&#45;&gt;Node90100 -->
<g id="edge1" class="edge">
<title>Node90099&#45;&gt;Node90100</title>
<path fill="none" stroke="#191970" d="M146.2334,-359.4956C224.0228,-359.4956 344.3453,-359.4956 407.864,-359.4956"/>
<polygon fill="#191970" stroke="#191970" points="407.9271,-362.9957 417.9271,-359.4956 407.927,-355.9957 407.9271,-362.9957"/>
</g>
<!-- Node90153 -->
<g id="node7" class="node">
<title>Node90153</title>
<g id="a_node7"><a xlink:href="quickjs_8c.html#ab7fc45a99935a1c0ba50b0216d9401a9" target="_top" xlink:title="JS_FreeAtom">
<polygon fill="none" stroke="#000000" points="748,-311.9956 748,-330.9956 825,-330.9956 825,-311.9956 748,-311.9956"/>
<text text-anchor="middle" x="786.5" y="-318.9956" font-family="Helvetica,sans-Serif" font-size="10.00" fill="#000000">JS_FreeAtom</text>
</a>
</g>
</g>
<!-- Node90099&#45;&gt;Node90153 -->
<g id="edge6" class="edge">
<title>Node90099&#45;&gt;Node90153</title>
<path fill="none" stroke="#191970" d="M95.7737,-369.1045C179.8649,-403.0701 479.2786,-510.5035 697,-416.4956 733.0415,-400.9336 761.2914,-362.9249 775.7887,-339.9789"/>
<polygon fill="#191970" stroke="#191970" points="778.9363,-341.539 781.1424,-331.1764 772.9556,-337.9015 778.9363,-341.539"/>
</g>
<!-- Node90155 -->
<g id="node10" class="node">
<title>Node90155</title>
<g id="a_node10"><a xlink:href="quickjs_8c.html#a6ee4e2edda1f223a5a40e2c48b41d618" target="_top" xlink:title="JS_InstantiateFunctionListItem">
<polygon fill="none" stroke="#000000" points="182,-197.9956 182,-216.9956 346,-216.9956 346,-197.9956 182,-197.9956"/>
<text text-anchor="middle" x="264" y="-204.9956" font-family="Helvetica,sans-Serif" font-size="10.00" fill="#000000">JS_InstantiateFunctionListItem</text>
</a>
</g>
</g>
<!-- Node90099&#45;&gt;Node90155 -->
<g id="edge10" class="edge">
<title>Node90099&#45;&gt;Node90155</title>
<path fill="none" stroke="#191970" d="M84.9479,-349.9873C116.8371,-324.6095 204.2254,-255.0649 243.9146,-223.4798"/>
<polygon fill="#191970" stroke="#191970" points="246.4114,-225.9659 252.0566,-217.0003 242.0525,-220.4886 246.4114,-225.9659"/>
</g>
<!-- Node90101 -->
<g id="node3" class="node">
<title>Node90101</title>
<g id="a_node3"><a xlink:href="quickjs_8c.html#abbf44eaeace1104a6bef718fbf5700fe" target="_top" xlink:title="JS_DupAtom">
<polygon fill="none" stroke="#000000" points="587.5,-387.9956 587.5,-406.9956 664.5,-406.9956 664.5,-387.9956 587.5,-387.9956"/>
<text text-anchor="middle" x="626" y="-394.9956" font-family="Helvetica,sans-Serif" font-size="10.00" fill="#000000">JS_DupAtom</text>
</a>
</g>
</g>
<!-- Node90100&#45;&gt;Node90101 -->
<g id="edge2" class="edge">
<title>Node90100&#45;&gt;Node90101</title>
<path fill="none" stroke="#191970" d="M483.0989,-366.554C509.6387,-372.3006 547.4977,-380.4979 577.5806,-387.0116"/>
<polygon fill="#191970" stroke="#191970" points="576.9427,-390.4545 587.4569,-389.1501 578.4241,-383.6131 576.9427,-390.4545"/>
</g>
<!-- Node90103 -->
<g id="node5" class="node">
<title>Node90103</title>
<g id="a_node5"><a xlink:href="quickjs_8c.html#aa2ef5af1544a3012f91a80c98c326b8f" target="_top" xlink:title="JS_NewAtom">
<polygon fill="none" stroke="#000000" points="747,-273.9956 747,-292.9956 826,-292.9956 826,-273.9956 747,-273.9956"/>
<text text-anchor="middle" x="786.5" y="-280.9956" font-family="Helvetica,sans-Serif" font-size="10.00" fill="#000000">JS_NewAtom</text>
</a>
</g>
</g>
<!-- Node90100&#45;&gt;Node90103 -->
<g id="edge4" class="edge">
<title>Node90100&#45;&gt;Node90103</title>
<path fill="none" stroke="#191970" d="M483.0224,-352.1393C542.0445,-338.7891 667.1247,-310.4972 736.8713,-294.7211"/>
<polygon fill="#191970" stroke="#191970" points="737.7644,-298.1076 746.7458,-292.4876 736.2201,-291.2801 737.7644,-298.1076"/>
</g>
<!-- Node90102 -->
<g id="node4" class="node">
<title>Node90102</title>
<g id="a_node4"><a xlink:href="quickjs_8c.html#a7f6796ee7a195631366f57c713a33f65" target="_top" xlink:title="__JS_AtomIsConst">
<polygon fill="none" stroke="#000000" points="876,-358.9956 876,-377.9956 980,-377.9956 980,-358.9956 876,-358.9956"/>
<text text-anchor="middle" x="928" y="-365.9956" font-family="Helvetica,sans-Serif" font-size="10.00" fill="#000000">__JS_AtomIsConst</text>
</a>
</g>
</g>
<!-- Node90101&#45;&gt;Node90102 -->
<g id="edge3" class="edge">
<title>Node90101&#45;&gt;Node90102</title>
<path fill="none" stroke="#191970" d="M664.5553,-393.7933C715.2877,-388.9216 805.0878,-380.2984 865.5679,-374.4907"/>
<polygon fill="#191970" stroke="#191970" points="866.1372,-377.9522 875.7569,-373.5123 865.4681,-370.9843 866.1372,-377.9522"/>
</g>
<!-- Node90104 -->
<g id="node6" class="node">
<title>Node90104</title>
<g id="a_node6"><a xlink:href="quickjs_8c.html#a522741f41afb1d0da0aa55968cd8579e" target="_top" xlink:title="JS_NewAtomLen">
<polygon fill="none" stroke="#ff0000" points="880,-273.9956 880,-292.9956 976,-292.9956 976,-273.9956 880,-273.9956"/>
<text text-anchor="middle" x="928" y="-280.9956" font-family="Helvetica,sans-Serif" font-size="10.00" fill="#000000">JS_NewAtomLen</text>
</a>
</g>
</g>
<!-- Node90103&#45;&gt;Node90104 -->
<g id="edge5" class="edge">
<title>Node90103&#45;&gt;Node90104</title>
<path fill="none" stroke="#191970" d="M826.2922,-283.4956C839.841,-283.4956 855.2766,-283.4956 869.9575,-283.4956"/>
<polygon fill="#191970" stroke="#191970" points="869.9681,-286.9957 879.9681,-283.4956 869.9681,-279.9957 869.9681,-286.9957"/>
</g>
<!-- Node90153&#45;&gt;Node90102 -->
<g id="edge7" class="edge">
<title>Node90153&#45;&gt;Node90102</title>
<path fill="none" stroke="#191970" d="M815.1346,-331.0067C836.4742,-338.0948 865.8508,-347.8524 889.2841,-355.6359"/>
<polygon fill="#191970" stroke="#191970" points="888.3288,-359.0065 898.9223,-358.8373 890.5354,-352.3634 888.3288,-359.0065"/>
</g>
<!-- Node90154 -->
<g id="node8" class="node">
<title>Node90154</title>
<g id="a_node8"><a xlink:href="quickjs_8c.html#a0bbd9e3ecd55e3ea6c9d44bfda382095" target="_top" xlink:title="__JS_FreeAtom">
<polygon fill="none" stroke="#000000" points="884,-311.9956 884,-330.9956 972,-330.9956 972,-311.9956 884,-311.9956"/>
<text text-anchor="middle" x="928" y="-318.9956" font-family="Helvetica,sans-Serif" font-size="10.00" fill="#000000">__JS_FreeAtom</text>
</a>
</g>
</g>
<!-- Node90153&#45;&gt;Node90154 -->
<g id="edge8" class="edge">
<title>Node90153&#45;&gt;Node90154</title>
<path fill="none" stroke="#191970" d="M825.1655,-321.4956C840.067,-321.4956 857.3777,-321.4956 873.4986,-321.4956"/>
<polygon fill="#191970" stroke="#191970" points="873.8832,-324.9957 883.8832,-321.4956 873.8832,-317.9957 873.8832,-324.9957"/>
</g>
<!-- Node90118 -->
<g id="node9" class="node">
<title>Node90118</title>
<g id="a_node9"><a xlink:href="quickjs_8c.html#a58c8965dad50b15b75918a09f3d9dc7c" target="_top" xlink:title="JS_FreeAtomStruct">
<polygon fill="none" stroke="#ff0000" points="1016,-311.9956 1016,-330.9956 1122,-330.9956 1122,-311.9956 1016,-311.9956"/>
<text text-anchor="middle" x="1069" y="-318.9956" font-family="Helvetica,sans-Serif" font-size="10.00" fill="#000000">JS_FreeAtomStruct</text>
</a>
</g>
</g>
<!-- Node90154&#45;&gt;Node90118 -->
<g id="edge9" class="edge">
<title>Node90154&#45;&gt;Node90118</title>
<path fill="none" stroke="#191970" d="M972.2264,-321.4956C982.8001,-321.4956 994.2938,-321.4956 1005.5458,-321.4956"/>
<polygon fill="#191970" stroke="#191970" points="1005.778,-324.9957 1015.7779,-321.4956 1005.7779,-317.9957 1005.778,-324.9957"/>
</g>
<!-- Node90155&#45;&gt;Node90100 -->
<g id="edge12" class="edge">
<title>Node90155&#45;&gt;Node90100</title>
<path fill="none" stroke="#191970" d="M270.2506,-217.0017C286.1376,-240.4555 330.4769,-301.6278 382,-335.4956 389.9649,-340.7312 399.2033,-344.9681 408.2672,-348.3395"/>
<polygon fill="#191970" stroke="#191970" points="407.371,-351.7321 417.9656,-351.6643 409.6411,-345.1104 407.371,-351.7321"/>
</g>
<!-- Node90155&#45;&gt;Node90153 -->
<g id="edge26" class="edge">
<title>Node90155&#45;&gt;Node90153</title>
<path fill="none" stroke="#191970" d="M271.9282,-217.0724C289.348,-237.3011 333.3076,-284.0349 382,-302.4956 503.264,-348.4702 659.797,-338.0537 737.8068,-328.6429"/>
<polygon fill="#191970" stroke="#191970" points="738.3421,-332.1033 747.8291,-327.3866 737.4714,-325.1577 738.3421,-332.1033"/>
</g>
<!-- Node90156 -->
<g id="node11" class="node">
<title>Node90156</title>
<g id="a_node11"><a xlink:href="quickjs_8h.html#a9bf98b18de88b4199910a43e933eb97d" target="_top" xlink:title="__JS_NewFloat64">
<polygon fill="none" stroke="#000000" points="576.5,-159.9956 576.5,-178.9956 675.5,-178.9956 675.5,-159.9956 576.5,-159.9956"/>
<text text-anchor="middle" x="626" y="-166.9956" font-family="Helvetica,sans-Serif" font-size="10.00" fill="#000000">__JS_NewFloat64</text>
</a>
</g>
</g>
<!-- Node90155&#45;&gt;Node90156 -->
<g id="edge11" class="edge">
<title>Node90155&#45;&gt;Node90156</title>
<path fill="none" stroke="#191970" d="M346.1434,-198.8728C413.19,-191.8348 506.3419,-182.0564 566.4034,-175.7516"/>
<polygon fill="#191970" stroke="#191970" points="566.9037,-179.2184 576.4836,-174.6934 566.1728,-172.2566 566.9037,-179.2184"/>
</g>
<!-- Node90157 -->
<g id="node12" class="node">
<title>Node90157</title>
<g id="a_node12"><a xlink:href="quickjs_8c.html#a7128998511654840928b9df9d4c55b3c" target="_top" xlink:title="JS_DefineAutoInitProperty">
<polygon fill="none" stroke="#000000" points="555,-197.9956 555,-216.9956 697,-216.9956 697,-197.9956 555,-197.9956"/>
<text text-anchor="middle" x="626" y="-204.9956" font-family="Helvetica,sans-Serif" font-size="10.00" fill="#000000">JS_DefineAutoInitProperty</text>
</a>
</g>
</g>
<!-- Node90155&#45;&gt;Node90157 -->
<g id="edge13" class="edge">
<title>Node90155&#45;&gt;Node90157</title>
<path fill="none" stroke="#191970" d="M346.1434,-207.4956C405.5979,-207.4956 485.5805,-207.4956 544.8132,-207.4956"/>
<polygon fill="#191970" stroke="#191970" points="544.877,-210.9957 554.877,-207.4956 544.8769,-203.9957 544.877,-210.9957"/>
</g>
<!-- Node90205 -->
<g id="node16" class="node">
<title>Node90205</title>
<g id="a_node16"><a xlink:href="quickjs_8c.html#abfb24c507e9a341c0a98e61d86fd8663" target="_top" xlink:title="JS_DefinePropertyGetSet">
<polygon fill="none" stroke="#000000" points="382,-45.9956 382,-64.9956 519,-64.9956 519,-45.9956 382,-45.9956"/>
<text text-anchor="middle" x="450.5" y="-52.9956" font-family="Helvetica,sans-Serif" font-size="10.00" fill="#000000">JS_DefinePropertyGetSet</text>
</a>
</g>
</g>
<!-- Node90155&#45;&gt;Node90205 -->
<g id="edge17" class="edge">
<title>Node90155&#45;&gt;Node90205</title>
<path fill="none" stroke="#191970" d="M270.2506,-197.9895C286.1376,-174.5356 330.4769,-113.3634 382,-79.4956 388.5154,-75.2128 395.8829,-71.5983 403.3101,-68.5791"/>
<polygon fill="#191970" stroke="#191970" points="404.5517,-71.8516 412.69,-65.0679 402.0976,-65.2959 404.5517,-71.8516"/>
</g>
<!-- Node90246 -->
<g id="node19" class="node">
<title>Node90246</title>
<g id="a_node19"><a xlink:href="quickjs_8h.html#a2050bc428da1c65ac7eb87c3fa3b0392" target="_top" xlink:title="JS_NewInt32">
<polygon fill="none" stroke="#000000" points="748,-83.9956 748,-102.9956 825,-102.9956 825,-83.9956 748,-83.9956"/>
<text text-anchor="middle" x="786.5" y="-90.9956" font-family="Helvetica,sans-Serif" font-size="10.00" fill="#000000">JS_NewInt32</text>
</a>
</g>
</g>
<!-- Node90155&#45;&gt;Node90246 -->
<g id="edge33" class="edge">
<title>Node90155&#45;&gt;Node90246</title>
<path fill="none" stroke="#191970" d="M271.9282,-197.9188C289.348,-177.6901 333.3076,-130.9563 382,-112.4956 503.264,-66.5209 659.797,-76.9375 737.8068,-86.3483"/>
<polygon fill="#191970" stroke="#191970" points="737.4714,-89.8335 747.8291,-87.6046 738.3421,-82.8879 737.4714,-89.8335"/>
</g>
<!-- Node90310 -->
<g id="node20" class="node">
<title>Node90310</title>
<g id="a_node20"><a xlink:href="quickjs_8c.html#a0a8765bd4012467d9139bc24aabcb3ca" target="_top" xlink:title="JS_DefinePropertyValue">
<polygon fill="none" stroke="#000000" points="385,-7.9956 385,-26.9956 516,-26.9956 516,-7.9956 385,-7.9956"/>
<text text-anchor="middle" x="450.5" y="-14.9956" font-family="Helvetica,sans-Serif" font-size="10.00" fill="#000000">JS_DefinePropertyValue</text>
</a>
</g>
</g>
<!-- Node90155&#45;&gt;Node90310 -->
<g id="edge23" class="edge">
<title>Node90155&#45;&gt;Node90310</title>
<path fill="none" stroke="#191970" d="M267.9091,-197.5935C280.0412,-168.1796 319.9993,-80.6343 382,-36.4956 384.7145,-34.5631 387.6185,-32.8269 390.6416,-31.267"/>
<polygon fill="#191970" stroke="#191970" points="392.2895,-34.3645 399.9986,-27.0968 389.4399,-27.9708 392.2895,-34.3645"/>
</g>
<!-- Node90242 -->
<g id="node21" class="node">
<title>Node90242</title>
<g id="a_node21"><a xlink:href="quickjs_8h.html#a89b7c8686c7eee70b86be722ee4730ad" target="_top" xlink:title="JS_GetProperty">
<polygon fill="none" stroke="#ff0000" points="406,-273.9956 406,-292.9956 495,-292.9956 495,-273.9956 406,-273.9956"/>
<text text-anchor="middle" x="450.5" y="-280.9956" font-family="Helvetica,sans-Serif" font-size="10.00" fill="#000000">JS_GetProperty</text>
</a>
</g>
</g>
<!-- Node90155&#45;&gt;Node90242 -->
<g id="edge27" class="edge">
<title>Node90155&#45;&gt;Node90242</title>
<path fill="none" stroke="#191970" d="M281.162,-216.9981C303.7549,-229.2225 344.9548,-250.5397 382,-264.4956 388.2852,-266.8634 394.9938,-269.0831 401.6617,-271.1107"/>
<polygon fill="#191970" stroke="#191970" points="400.7677,-274.4958 411.3479,-273.9389 402.7297,-267.7763 400.7677,-274.4958"/>
</g>
<!-- Node90537 -->
<g id="node22" class="node">
<title>Node90537</title>
<g id="a_node22"><a xlink:href="quickjs_8c.html#a76d4772691a319f48dc636a0e7f6c1ed" target="_top" xlink:title="JS_NewCFunction2">
<polygon fill="none" stroke="#000000" points="397.5,-235.9956 397.5,-254.9956 503.5,-254.9956 503.5,-235.9956 397.5,-235.9956"/>
<text text-anchor="middle" x="450.5" y="-242.9956" font-family="Helvetica,sans-Serif" font-size="10.00" fill="#000000">JS_NewCFunction2</text>
</a>
</g>
</g>
<!-- Node90155&#45;&gt;Node90537 -->
<g id="edge28" class="edge">
<title>Node90155&#45;&gt;Node90537</title>
<path fill="none" stroke="#191970" d="M311.0618,-217.0846C336.2268,-222.212 367.3958,-228.5628 393.8786,-233.9588"/>
<polygon fill="#191970" stroke="#191970" points="393.2791,-237.4085 403.7766,-235.9755 394.6767,-230.5494 393.2791,-237.4085"/>
</g>
<!-- Node90311 -->
<g id="node24" class="node">
<title>Node90311</title>
<g id="a_node24"><a xlink:href="quickjs_8h.html#a6acbc709e59969eac6775f9b253b438f" target="_top" xlink:title="JS_NewInt64">
<polygon fill="none" stroke="#000000" points="412,-121.9956 412,-140.9956 489,-140.9956 489,-121.9956 412,-121.9956"/>
<text text-anchor="middle" x="450.5" y="-128.9956" font-family="Helvetica,sans-Serif" font-size="10.00" fill="#000000">JS_NewInt64</text>
</a>
</g>
</g>
<!-- Node90155&#45;&gt;Node90311 -->
<g id="edge34" class="edge">
<title>Node90155&#45;&gt;Node90311</title>
<path fill="none" stroke="#191970" d="M284.2607,-197.989C307.6059,-187.1707 347.2259,-169.2253 382,-155.4956 391.6696,-151.6778 402.2209,-147.8282 412.0814,-144.3637"/>
<polygon fill="#191970" stroke="#191970" points="413.3528,-147.6273 421.6534,-141.0431 411.0586,-141.014 413.3528,-147.6273"/>
</g>
<!-- Node90158 -->
<g id="node13" class="node">
<title>Node90158</title>
<g id="a_node13"><a xlink:href="quickjs_8c.html#a74547db03bf739a52c83a326b32db997" target="_top" xlink:title="add_property">
<polygon fill="none" stroke="#ff0000" points="746,-197.9956 746,-216.9956 827,-216.9956 827,-197.9956 746,-197.9956"/>
<text text-anchor="middle" x="786.5" y="-204.9956" font-family="Helvetica,sans-Serif" font-size="10.00" fill="#000000">add_property</text>
</a>
</g>
</g>
<!-- Node90157&#45;&gt;Node90158 -->
<g id="edge14" class="edge">
<title>Node90157&#45;&gt;Node90158</title>
<path fill="none" stroke="#191970" d="M697.3323,-207.4956C710.1535,-207.4956 723.2822,-207.4956 735.3874,-207.4956"/>
<polygon fill="#191970" stroke="#191970" points="735.7283,-210.9957 745.7283,-207.4956 735.7283,-203.9957 735.7283,-210.9957"/>
</g>
<!-- Node90203 -->
<g id="node14" class="node">
<title>Node90203</title>
<g id="a_node14"><a xlink:href="quickjs_8c.html#a06b76f5124fd985e35f4c652fd018d6d" target="_top" xlink:title="find_own_property">
<polygon fill="none" stroke="#ff0000" points="733,-140.9956 733,-159.9956 840,-159.9956 840,-140.9956 733,-140.9956"/>
<text text-anchor="middle" x="786.5" y="-147.9956" font-family="Helvetica,sans-Serif" font-size="10.00" fill="#000000">find_own_property</text>
</a>
</g>
</g>
<!-- Node90157&#45;&gt;Node90203 -->
<g id="edge15" class="edge">
<title>Node90157&#45;&gt;Node90203</title>
<path fill="none" stroke="#191970" d="M665.7294,-197.9146C676.0017,-195.1515 686.9857,-191.9425 697,-188.4956 717.2813,-181.5148 739.4783,-172.1023 756.693,-164.3918"/>
<polygon fill="#191970" stroke="#191970" points="758.5392,-167.3976 766.2009,-160.0798 755.648,-161.0226 758.5392,-167.3976"/>
</g>
<!-- Node90204 -->
<g id="node15" class="node">
<title>Node90204</title>
<g id="a_node15"><a xlink:href="quickjs_8c.html#a2814982d965920b44b14bef36ba18bba" target="_top" xlink:title="JS_DupContext">
<polygon fill="none" stroke="#000000" points="742,-235.9956 742,-254.9956 831,-254.9956 831,-235.9956 742,-235.9956"/>
<text text-anchor="middle" x="786.5" y="-242.9956" font-family="Helvetica,sans-Serif" font-size="10.00" fill="#000000">JS_DupContext</text>
</a>
</g>
</g>
<!-- Node90157&#45;&gt;Node90204 -->
<g id="edge16" class="edge">
<title>Node90157&#45;&gt;Node90204</title>
<path fill="none" stroke="#191970" d="M666.5009,-217.0846C687.6806,-222.0991 713.8022,-228.2837 736.2604,-233.6009"/>
<polygon fill="#191970" stroke="#191970" points="735.7529,-237.0774 746.2903,-235.9755 737.3657,-230.2657 735.7529,-237.0774"/>
</g>
<!-- Node90206 -->
<g id="node17" class="node">
<title>Node90206</title>
<g id="a_node17"><a xlink:href="quickjs_8c.html#ab50618f1bf78e444caa6da0e3e2785d7" target="_top" xlink:title="JS_DefineProperty">
<polygon fill="none" stroke="#ff0000" points="574,-45.9956 574,-64.9956 678,-64.9956 678,-45.9956 574,-45.9956"/>
<text text-anchor="middle" x="626" y="-52.9956" font-family="Helvetica,sans-Serif" font-size="10.00" fill="#000000">JS_DefineProperty</text>
</a>
</g>
</g>
<!-- Node90205&#45;&gt;Node90206 -->
<g id="edge18" class="edge">
<title>Node90205&#45;&gt;Node90206</title>
<path fill="none" stroke="#191970" d="M519.1069,-55.4956C533.7281,-55.4956 549.0948,-55.4956 563.4738,-55.4956"/>
<polygon fill="#191970" stroke="#191970" points="563.7448,-58.9957 573.7447,-55.4956 563.7447,-51.9957 563.7448,-58.9957"/>
</g>
<!-- Node90195 -->
<g id="node18" class="node">
<title>Node90195</title>
<g id="a_node18"><a xlink:href="quickjs_8h.html#afaa20c47565bc704c6c85f3d77254e7d" target="_top" xlink:title="JS_FreeValue">
<polygon fill="none" stroke="#ff0000" points="747.5,-7.9956 747.5,-26.9956 825.5,-26.9956 825.5,-7.9956 747.5,-7.9956"/>
<text text-anchor="middle" x="786.5" y="-14.9956" font-family="Helvetica,sans-Serif" font-size="10.00" fill="#000000">JS_FreeValue</text>
</a>
</g>
</g>
<!-- Node90205&#45;&gt;Node90195 -->
<g id="edge22" class="edge">
<title>Node90205&#45;&gt;Node90195</title>
<path fill="none" stroke="#191970" d="M497.4242,-45.9528C515.3751,-42.5686 536.078,-38.9862 555,-36.4956 617.6316,-28.2518 690.2969,-22.9826 737.2638,-20.1344"/>
<polygon fill="#191970" stroke="#191970" points="737.6885,-23.6155 747.4637,-19.5295 737.274,-16.6277 737.6885,-23.6155"/>
</g>
<!-- Node90206&#45;&gt;Node90203 -->
<g id="edge19" class="edge">
<title>Node90206&#45;&gt;Node90203</title>
<path fill="none" stroke="#191970" d="M642.2729,-65.1275C670.3914,-81.7709 728.247,-116.0156 761.502,-135.6993"/>
<polygon fill="#191970" stroke="#191970" points="759.7958,-138.7565 770.1841,-140.8382 763.3613,-132.7326 759.7958,-138.7565"/>
</g>
<!-- Node90206&#45;&gt;Node90195 -->
<g id="edge20" class="edge">
<title>Node90206&#45;&gt;Node90195</title>
<path fill="none" stroke="#191970" d="M666.5009,-45.9066C688.0996,-40.7929 714.8377,-34.4624 737.5888,-29.0758"/>
<polygon fill="#191970" stroke="#191970" points="738.4731,-32.4633 747.3977,-26.7535 736.8603,-25.6516 738.4731,-32.4633"/>
</g>
<!-- Node90206&#45;&gt;Node90246 -->
<g id="edge21" class="edge">
<title>Node90206&#45;&gt;Node90246</title>
<path fill="none" stroke="#191970" d="M666.5009,-65.0846C688.2614,-70.2366 715.2385,-76.6237 738.0994,-82.0363"/>
<polygon fill="#191970" stroke="#191970" points="737.4104,-85.4698 747.9478,-84.368 739.0232,-78.6581 737.4104,-85.4698"/>
</g>
<!-- Node90310&#45;&gt;Node90206 -->
<g id="edge24" class="edge">
<title>Node90310&#45;&gt;Node90206</title>
<path fill="none" stroke="#191970" d="M494.7861,-27.0846C518.2581,-32.1669 547.281,-38.451 572.0584,-43.8159"/>
<polygon fill="#191970" stroke="#191970" points="571.5182,-47.28 582.0324,-45.9755 572.9996,-40.4385 571.5182,-47.28"/>
</g>
<!-- Node90310&#45;&gt;Node90195 -->
<g id="edge25" class="edge">
<title>Node90310&#45;&gt;Node90195</title>
<path fill="none" stroke="#191970" d="M511.1462,-7.9805C525.4882,-6.1164 540.7542,-4.4456 555,-3.4956 617.9712,.7038 634.0787,1.3959 697,-3.4956 710.1147,-4.5151 724.2135,-6.3629 737.2535,-8.3889"/>
<polygon fill="#191970" stroke="#191970" points="737.0143,-11.8957 747.4452,-10.0395 738.1334,-4.9857 737.0143,-11.8957"/>
</g>
<!-- Node90538 -->
<g id="node23" class="node">
<title>Node90538</title>
<g id="a_node23"><a xlink:href="quickjs_8c.html#a21cfe4c4fc9372dc0b95b37667cff0c9" target="_top" xlink:title="JS_NewCFunction3">
<polygon fill="none" stroke="#ff0000" points="573,-254.9956 573,-273.9956 679,-273.9956 679,-254.9956 573,-254.9956"/>
<text text-anchor="middle" x="626" y="-261.9956" font-family="Helvetica,sans-Serif" font-size="10.00" fill="#000000">JS_NewCFunction3</text>
</a>
</g>
</g>
<!-- Node90537&#45;&gt;Node90538 -->
<g id="edge29" class="edge">
<title>Node90537&#45;&gt;Node90538</title>
<path fill="none" stroke="#191970" d="M503.6321,-251.2478C522.2749,-253.2661 543.4004,-255.5532 562.7881,-257.6521"/>
<polygon fill="#191970" stroke="#191970" points="562.4273,-261.1334 572.7459,-258.7302 563.1808,-254.1741 562.4273,-261.1334"/>
</g>
<!-- Node90538&#45;&gt;Node90103 -->
<g id="edge32" class="edge">
<title>Node90538&#45;&gt;Node90103</title>
<path fill="none" stroke="#191970" d="M679.4442,-270.8223C697.9779,-273.0163 718.6668,-275.4655 736.8794,-277.6215"/>
<polygon fill="#191970" stroke="#191970" points="736.6542,-281.1192 746.9964,-278.8191 737.4772,-274.1677 736.6542,-281.1192"/>
</g>
<!-- Node90538&#45;&gt;Node90153 -->
<g id="edge31" class="edge">
<title>Node90538&#45;&gt;Node90153</title>
<path fill="none" stroke="#191970" d="M652.8641,-274.0361C679.4824,-283.4894 720.4422,-298.0358 749.999,-308.5326"/>
<polygon fill="#191970" stroke="#191970" points="748.9535,-311.8754 759.5483,-311.9239 751.2962,-305.2791 748.9535,-311.8754"/>
</g>
<!-- Node90538&#45;&gt;Node90204 -->
<g id="edge30" class="edge">
<title>Node90538&#45;&gt;Node90204</title>
<path fill="none" stroke="#191970" d="M679.4442,-258.1689C696.209,-256.1842 714.7371,-253.9909 731.6008,-251.9946"/>
<polygon fill="#191970" stroke="#191970" points="732.3359,-255.4321 741.8551,-250.7807 731.513,-248.4806 732.3359,-255.4321"/>
</g>
<!-- Node90311&#45;&gt;Node90156 -->
<g id="edge35" class="edge">
<title>Node90311&#45;&gt;Node90156</title>
<path fill="none" stroke="#191970" d="M489.0142,-139.8349C513.3503,-145.1042 545.1564,-151.991 571.9944,-157.8021"/>
<polygon fill="#191970" stroke="#191970" points="571.497,-161.2754 582.0112,-159.9709 572.9784,-154.4339 571.497,-161.2754"/>
</g>
<!-- Node90311&#45;&gt;Node90246 -->
<g id="edge36" class="edge">
<title>Node90311&#45;&gt;Node90246</title>
<path fill="none" stroke="#191970" d="M489.0045,-128.4439C537.578,-124.434 623.6316,-116.7976 697,-107.4956 710.3034,-105.8089 724.6735,-103.6927 737.924,-101.6202"/>
<polygon fill="#191970" stroke="#191970" points="738.4749,-105.0767 747.8023,-100.0517 737.3772,-98.1633 738.4749,-105.0767"/>
</g>
</g>
</svg>
