<?xml version="1.0" encoding="UTF-8" standalone="no"?>
<!DOCTYPE svg PUBLIC "-//W3C//DTD SVG 1.1//EN"
 "http://www.w3.org/Graphics/SVG/1.1/DTD/svg11.dtd">
<!-- Generated by graphviz version 2.40.1 (20161225.0304)
 -->
<!-- Title: js_json_parse Pages: 1 -->
<!--zoomable 1062 -->
<svg id="main" version="1.1" xmlns="http://www.w3.org/2000/svg" xmlns:xlink="http://www.w3.org/1999/xlink" xml:space="preserve" onload="init(evt)">
<style type="text/css"><![CDATA[
.edge:hover path { stroke: red; }
.edge:hover polygon { stroke: red; fill: red; }
]]></style>
<script type="text/javascript"><![CDATA[
var edges = document.getElementsByTagName('g');
if (edges && edges.length) {
  for (var i=0;i<edges.length;i++) {
    if (edges[i].id.substr(0,4)=='edge') {
      edges[i].setAttribute('class','edge');
    }
  }
}
]]></script>
        <defs>
                <circle id="rim" cx="0" cy="0" r="7"/>
                <circle id="rim2" cx="0" cy="0" r="3.5"/>
                <g id="zoomPlus">
                        <use xlink:href="#rim" fill="#404040">
                                <set attributeName="fill" to="#808080" begin="zoomplus.mouseover" end="zoomplus.mouseout"/>
                        </use>
                        <path d="M-4,0h8M0,-4v8" fill="none" stroke="white" stroke-width="1.5" pointer-events="none"/>
                </g>
                <g id="zoomMin">
                        <use xlink:href="#rim" fill="#404040">
                                <set attributeName="fill" to="#808080" begin="zoomminus.mouseover" end="zoomminus.mouseout"/>
                        </use>
                        <path d="M-4,0h8" fill="none" stroke="white" stroke-width="1.5" pointer-events="none"/>
                </g>
                <g id="dirArrow">
                        <path fill="none" stroke="white" stroke-width="1.5" d="M0,-3.0v7 M-2.5,-0.5L0,-3.0L2.5,-0.5"/>
                </g>
               <g id="resetDef">
                       <use xlink:href="#rim2" fill="#404040">
                               <set attributeName="fill" to="#808080" begin="reset.mouseover" end="reset.mouseout"/>
                       </use>
               </g>
        </defs>

<script type="text/javascript">
var viewWidth = 946;
var viewHeight = 1062;
var sectionId = 'dynsection-1646';
</script>
<script xlink:href="svgpan.js"/>
<svg id="graph" class="graph">
<g id="viewport">
<title>js_json_parse</title>
<!-- Node440842 -->
<g id="node1" class="node">
<title>Node440842</title>
<polygon fill="#bfbfbf" stroke="#000000" points="0,-152.5 0,-171.5 83,-171.5 83,-152.5 0,-152.5"/>
<text text-anchor="middle" x="41.5" y="-159.5" font-family="Helvetica,sans-Serif" font-size="10.00" fill="#000000">js_json_parse</text>
</g>
<!-- Node440843 -->
<g id="node2" class="node">
<title>Node440843</title>
<g id="a_node2"><a xlink:href="quickjs_8c.html#a624282391413d4c5a030adbd8b77aa80" target="_top" xlink:title="internalize_json_property">
<polygon fill="none" stroke="#000000" points="119,-652.5 119,-671.5 259,-671.5 259,-652.5 119,-652.5"/>
<text text-anchor="middle" x="189" y="-659.5" font-family="Helvetica,sans-Serif" font-size="10.00" fill="#000000">internalize_json_property</text>
</a>
</g>
</g>
<!-- Node440842&#45;&gt;Node440843 -->
<g id="edge1" class="edge">
<title>Node440842&#45;&gt;Node440843</title>
<path fill="none" stroke="#191970" d="M44.3148,-171.5417C62.0771,-231.7529 158.672,-559.1932 183.2888,-642.6401"/>
<polygon fill="#191970" stroke="#191970" points="179.9691,-643.7571 186.1556,-652.3581 186.6831,-641.7764 179.9691,-643.7571"/>
</g>
<!-- Node441021 -->
<g id="node8" class="node">
<title>Node441021</title>
<g id="a_node8"><a xlink:href="quickjs_8c.html#a0a8765bd4012467d9139bc24aabcb3ca" target="_top" xlink:title="JS_DefinePropertyValue">
<polygon fill="none" stroke="#ff0000" points="663,-254.5 663,-273.5 794,-273.5 794,-254.5 663,-254.5"/>
<text text-anchor="middle" x="728.5" y="-261.5" font-family="Helvetica,sans-Serif" font-size="10.00" fill="#000000">JS_DefinePropertyValue</text>
</a>
</g>
</g>
<!-- Node440842&#45;&gt;Node441021 -->
<g id="edge48" class="edge">
<title>Node440842&#45;&gt;Node441021</title>
<path fill="none" stroke="#191970" d="M83.033,-158.657C180.3607,-152.2114 429.6359,-143.8002 624,-207 654.1656,-216.8087 685.7251,-235.3464 706.1626,-248.6195"/>
<polygon fill="#191970" stroke="#191970" points="704.4567,-251.6879 714.7252,-254.2972 708.3252,-245.8539 704.4567,-251.6879"/>
</g>
<!-- Node440920 -->
<g id="node9" class="node">
<title>Node440920</title>
<g id="a_node9"><a xlink:href="quickjs_8h.html#afaa20c47565bc704c6c85f3d77254e7d" target="_top" xlink:title="JS_FreeValue">
<polygon fill="none" stroke="#ff0000" points="846.5,-235.5 846.5,-254.5 924.5,-254.5 924.5,-235.5 846.5,-235.5"/>
<text text-anchor="middle" x="885.5" y="-242.5" font-family="Helvetica,sans-Serif" font-size="10.00" fill="#000000">JS_FreeValue</text>
</a>
</g>
</g>
<!-- Node440842&#45;&gt;Node440920 -->
<g id="edge51" class="edge">
<title>Node440842&#45;&gt;Node440920</title>
<path fill="none" stroke="#191970" d="M46.0214,-152.2657C55.9509,-132.1599 81.7819,-86.315 119,-67 224.7907,-12.0982 267.3116,-48 386.5,-48 386.5,-48 386.5,-48 569,-48 704.5457,-48 830.1335,-179.8398 871.3436,-227.8112"/>
<polygon fill="#191970" stroke="#191970" points="868.7108,-230.1182 877.8379,-235.4983 874.058,-225.6007 868.7108,-230.1182"/>
</g>
<!-- Node440937 -->
<g id="node11" class="node">
<title>Node440937</title>
<g id="a_node11"><a xlink:href="quickjs_8h.html#ad80a83d73e9b7d872b88fbf2943aebe9" target="_top" xlink:title="JS_IsException">
<polygon fill="none" stroke="#000000" points="842,-843.5 842,-862.5 929,-862.5 929,-843.5 842,-843.5"/>
<text text-anchor="middle" x="885.5" y="-850.5" font-family="Helvetica,sans-Serif" font-size="10.00" fill="#000000">JS_IsException</text>
</a>
</g>
</g>
<!-- Node440842&#45;&gt;Node440937 -->
<g id="edge52" class="edge">
<title>Node440842&#45;&gt;Node440937</title>
<path fill="none" stroke="#191970" d="M42.4053,-171.7102C48.4263,-235.4977 83.5281,-595.1539 119,-699 181.4906,-881.9448 193.1768,-1042 386.5,-1042 386.5,-1042 386.5,-1042 569,-1042 670.6846,-1042 712.3356,-1079.3177 797,-1023 824.4662,-1004.7298 862.477,-912.7774 878.2209,-872.2423"/>
<polygon fill="#191970" stroke="#191970" points="881.5689,-873.2866 881.8847,-862.6964 875.0338,-870.7782 881.5689,-873.2866"/>
</g>
<!-- Node441255 -->
<g id="node16" class="node">
<title>Node441255</title>
<g id="a_node16"><a xlink:href="quickjs_8c.html#afc0d8ea75588216ec132a6e1655524a7" target="_top" xlink:title="JS_NewObject">
<polygon fill="none" stroke="#ff0000" points="686.5,-501.5 686.5,-520.5 770.5,-520.5 770.5,-501.5 686.5,-501.5"/>
<text text-anchor="middle" x="728.5" y="-508.5" font-family="Helvetica,sans-Serif" font-size="10.00" fill="#000000">JS_NewObject</text>
</a>
</g>
</g>
<!-- Node440842&#45;&gt;Node441255 -->
<g id="edge54" class="edge">
<title>Node440842&#45;&gt;Node441255</title>
<path fill="none" stroke="#191970" d="M51.794,-171.5573C65.9832,-184.3096 92.7825,-206.9141 119,-221 328.3783,-333.4933 447.1828,-238.1614 624,-397 651.8043,-421.9772 634.432,-445.7381 660,-473 669.3229,-482.9406 681.8434,-490.9215 693.6294,-496.9538"/>
<polygon fill="#191970" stroke="#191970" points="692.3187,-500.2068 702.8491,-501.374 695.345,-493.8948 692.3187,-500.2068"/>
</g>
<!-- Node440952 -->
<g id="node25" class="node">
<title>Node440952</title>
<g id="a_node25"><a xlink:href="quickjs_8c.html#ae0bc4f65da64810facb2cb9e476eda2e" target="_top" xlink:title="JS_FreeCString">
<polygon fill="none" stroke="#000000" points="146,-114.5 146,-133.5 232,-133.5 232,-114.5 146,-114.5"/>
<text text-anchor="middle" x="189" y="-121.5" font-family="Helvetica,sans-Serif" font-size="10.00" fill="#000000">JS_FreeCString</text>
</a>
</g>
</g>
<!-- Node440842&#45;&gt;Node440952 -->
<g id="edge49" class="edge">
<title>Node440842&#45;&gt;Node440952</title>
<path fill="none" stroke="#191970" d="M78.7205,-152.411C98.0093,-147.4417 121.7584,-141.3233 142.271,-136.0387"/>
<polygon fill="#191970" stroke="#191970" points="143.2366,-139.4043 152.0472,-133.5201 141.4902,-132.6256 143.2366,-139.4043"/>
</g>
<!-- Node440967 -->
<g id="node26" class="node">
<title>Node440967</title>
<g id="a_node26"><a xlink:href="quickjs_8c.html#a1ca9cdb1fa2ffc3e6506e92b200e490f" target="_top" xlink:title="JS_IsFunction">
<polygon fill="none" stroke="#000000" points="149,-76.5 149,-95.5 229,-95.5 229,-76.5 149,-76.5"/>
<text text-anchor="middle" x="189" y="-83.5" font-family="Helvetica,sans-Serif" font-size="10.00" fill="#000000">JS_IsFunction</text>
</a>
</g>
</g>
<!-- Node440842&#45;&gt;Node440967 -->
<g id="edge53" class="edge">
<title>Node440842&#45;&gt;Node440967</title>
<path fill="none" stroke="#191970" d="M52.2043,-152.0895C66.4294,-139.4238 92.8264,-117.6302 119,-105 125.2482,-101.9849 132.0492,-99.3875 138.8755,-97.1678"/>
<polygon fill="#191970" stroke="#191970" points="140.2608,-100.4065 148.8337,-94.1811 138.2498,-93.7015 140.2608,-100.4065"/>
</g>
<!-- Node441280 -->
<g id="node27" class="node">
<title>Node441280</title>
<g id="a_node27"><a xlink:href="quickjs_8c.html#a85a2abf65c29c82c085c9b7430538096" target="_top" xlink:title="JS_ParseJSON">
<polygon fill="none" stroke="#000000" points="148.5,-192.5 148.5,-211.5 229.5,-211.5 229.5,-192.5 148.5,-192.5"/>
<text text-anchor="middle" x="189" y="-199.5" font-family="Helvetica,sans-Serif" font-size="10.00" fill="#000000">JS_ParseJSON</text>
</a>
</g>
</g>
<!-- Node440842&#45;&gt;Node441280 -->
<g id="edge55" class="edge">
<title>Node440842&#45;&gt;Node441280</title>
<path fill="none" stroke="#191970" d="M76.8299,-171.581C96.9896,-177.048 122.4632,-183.9561 144.0379,-189.8069"/>
<polygon fill="#191970" stroke="#191970" points="143.3909,-193.2578 153.9584,-192.4972 145.223,-186.5018 143.3909,-193.2578"/>
</g>
<!-- Node440953 -->
<g id="node30" class="node">
<title>Node440953</title>
<g id="a_node30"><a xlink:href="quickjs_8h.html#a1e7f56471f8608df9405987087a56070" target="_top" xlink:title="JS_ToCStringLen">
<polygon fill="none" stroke="#ff0000" points="142,-.5 142,-19.5 236,-19.5 236,-.5 142,-.5"/>
<text text-anchor="middle" x="189" y="-7.5" font-family="Helvetica,sans-Serif" font-size="10.00" fill="#000000">JS_ToCStringLen</text>
</a>
</g>
</g>
<!-- Node440842&#45;&gt;Node440953 -->
<g id="edge62" class="edge">
<title>Node440842&#45;&gt;Node440953</title>
<path fill="none" stroke="#191970" d="M44.6863,-152.4179C53.0236,-128.7908 77.7368,-67.2543 119,-34 124.2423,-29.7752 130.2717,-26.2744 136.5463,-23.3782"/>
<polygon fill="#191970" stroke="#191970" points="137.933,-26.5924 145.8517,-19.5536 135.2719,-20.118 137.933,-26.5924"/>
</g>
<!-- Node440843&#45;&gt;Node440843 -->
<g id="edge2" class="edge">
<title>Node440843&#45;&gt;Node440843</title>
<path fill="none" stroke="#191970" d="M166.4972,-671.7571C155.5498,-680.5653 163.0508,-690 189,-690 206.0292,-690 215.1133,-685.9368 216.2525,-680.6539"/>
<polygon fill="#191970" stroke="#191970" points="219.2999,-678.9303 211.5028,-671.7571 213.1248,-682.227 219.2999,-678.9303"/>
</g>
<!-- Node440844 -->
<g id="node3" class="node">
<title>Node440844</title>
<g id="a_node3"><a xlink:href="quickjs_8c.html#afa67965c1017685fc6783776d6d0d4d7" target="_top" xlink:title="JS_AtomToValue">
<polygon fill="none" stroke="#000000" points="681,-994.5 681,-1013.5 776,-1013.5 776,-994.5 681,-994.5"/>
<text text-anchor="middle" x="728.5" y="-1001.5" font-family="Helvetica,sans-Serif" font-size="10.00" fill="#000000">JS_AtomToValue</text>
</a>
</g>
</g>
<!-- Node440843&#45;&gt;Node440844 -->
<g id="edge3" class="edge">
<title>Node440843&#45;&gt;Node440844</title>
<path fill="none" stroke="#191970" d="M190.7516,-671.7745C199.762,-720.8838 242.505,-939.9125 295,-980 352.3956,-1023.8298 566.7459,-1015.4918 670.9288,-1008.5259"/>
<polygon fill="#191970" stroke="#191970" points="671.2237,-1012.014 680.9602,-1007.8366 670.7438,-1005.0305 671.2237,-1012.014"/>
</g>
<!-- Node440873 -->
<g id="node5" class="node">
<title>Node440873</title>
<g id="a_node5"><a xlink:href="quickjs_8c.html#a1a4c02a29525d5cb2085dd8bca3af350" target="_top" xlink:title="JS_Call">
<polygon fill="none" stroke="#000000" points="361.5,-596.5 361.5,-615.5 411.5,-615.5 411.5,-596.5 361.5,-596.5"/>
<text text-anchor="middle" x="386.5" y="-603.5" font-family="Helvetica,sans-Serif" font-size="10.00" fill="#000000">JS_Call</text>
</a>
</g>
</g>
<!-- Node440843&#45;&gt;Node440873 -->
<g id="edge5" class="edge">
<title>Node440843&#45;&gt;Node440873</title>
<path fill="none" stroke="#191970" d="M222.9515,-652.3733C258.9411,-642.1686 315.4899,-626.1345 351.772,-615.8469"/>
<polygon fill="#191970" stroke="#191970" points="352.7681,-619.2025 361.434,-613.1073 350.8585,-612.468 352.7681,-619.2025"/>
</g>
<!-- Node441062 -->
<g id="node7" class="node">
<title>Node441062</title>
<g id="a_node7"><a xlink:href="quickjs_8c.html#af23ec7c9970ceb4671c59da7abd4b078" target="_top" xlink:title="js_check_stack_overflow">
<polygon fill="none" stroke="#ff0000" points="660,-653.5 660,-672.5 797,-672.5 797,-653.5 660,-653.5"/>
<text text-anchor="middle" x="728.5" y="-660.5" font-family="Helvetica,sans-Serif" font-size="10.00" fill="#000000">js_check_stack_overflow</text>
</a>
</g>
</g>
<!-- Node440843&#45;&gt;Node441062 -->
<g id="edge24" class="edge">
<title>Node440843&#45;&gt;Node441062</title>
<path fill="none" stroke="#191970" d="M201.8365,-671.6599C220.94,-685.3669 258.5281,-709.8157 295,-719 365.8978,-736.8534 556.6473,-747.4404 624,-719 645.1367,-710.0748 640.2602,-693.6944 660,-682 663.6433,-679.8416 667.5405,-677.9205 671.5582,-676.2118"/>
<polygon fill="#191970" stroke="#191970" points="672.9786,-679.4164 681.0884,-672.5987 670.4971,-672.871 672.9786,-679.4164"/>
</g>
<!-- Node440843&#45;&gt;Node441021 -->
<g id="edge25" class="edge">
<title>Node440843&#45;&gt;Node441021</title>
<path fill="none" stroke="#191970" d="M190.6186,-652.4398C199.2886,-602.3885 241.8304,-371.1151 295,-326 397.9147,-238.6755 566.5678,-242.65 660.2893,-253.291"/>
<polygon fill="#191970" stroke="#191970" points="659.8847,-256.7675 670.2289,-254.4766 660.7138,-249.8167 659.8847,-256.7675"/>
</g>
<!-- Node440843&#45;&gt;Node440920 -->
<g id="edge31" class="edge">
<title>Node440843&#45;&gt;Node440920</title>
<path fill="none" stroke="#191970" d="M189.6833,-652.3639C192.9923,-613.3425 210.8465,-465.7323 295,-394 468.8973,-245.7702 579.503,-353.0527 797,-283 817.4892,-276.4007 839.7513,-266.8293 856.8219,-258.9437"/>
<polygon fill="#191970" stroke="#191970" points="858.656,-261.9492 866.2203,-254.5308 855.6808,-255.6129 858.656,-261.9492"/>
</g>
<!-- Node441177 -->
<g id="node10" class="node">
<title>Node441177</title>
<g id="a_node10"><a xlink:href="quickjs_8c.html#a2b88ed25233c441cbed7b0a027c9ee2f" target="_top" xlink:title="JS_DeleteProperty">
<polygon fill="none" stroke="#ff0000" points="676.5,-539.5 676.5,-558.5 780.5,-558.5 780.5,-539.5 676.5,-539.5"/>
<text text-anchor="middle" x="728.5" y="-546.5" font-family="Helvetica,sans-Serif" font-size="10.00" fill="#000000">JS_DeleteProperty</text>
</a>
</g>
</g>
<!-- Node440843&#45;&gt;Node441177 -->
<g id="edge26" class="edge">
<title>Node440843&#45;&gt;Node441177</title>
<path fill="none" stroke="#191970" d="M198.7618,-652.2926C216.286,-635.5604 254.9996,-601.674 295,-587 361.4292,-562.6306 562.7386,-553.5787 665.9769,-550.4757"/>
<polygon fill="#191970" stroke="#191970" points="666.3631,-553.9661 676.2571,-550.1767 666.1595,-546.969 666.3631,-553.9661"/>
</g>
<!-- Node440843&#45;&gt;Node440937 -->
<g id="edge42" class="edge">
<title>Node440843&#45;&gt;Node440937</title>
<path fill="none" stroke="#191970" d="M191.074,-671.7258C201.1069,-717.7706 246.1235,-913.031 295,-947 369.3391,-998.6654 750.9459,-913.9734 797,-899 820.2039,-891.4558 844.6759,-878.2805 861.9903,-867.9585"/>
<polygon fill="#191970" stroke="#191970" points="864.1059,-870.7678 870.8195,-862.5715 860.46,-864.7922 864.1059,-870.7678"/>
</g>
<!-- Node440919 -->
<g id="node12" class="node">
<title>Node440919</title>
<g id="a_node12"><a xlink:href="quickjs_8c.html#ab7fc45a99935a1c0ba50b0216d9401a9" target="_top" xlink:title="JS_FreeAtom">
<polygon fill="none" stroke="#ff0000" points="690,-444.5 690,-463.5 767,-463.5 767,-444.5 690,-444.5"/>
<text text-anchor="middle" x="728.5" y="-451.5" font-family="Helvetica,sans-Serif" font-size="10.00" fill="#000000">JS_FreeAtom</text>
</a>
</g>
</g>
<!-- Node440843&#45;&gt;Node440919 -->
<g id="edge30" class="edge">
<title>Node440843&#45;&gt;Node440919</title>
<path fill="none" stroke="#191970" d="M195.3045,-652.324C209.9043,-630.8206 248.3751,-579.139 295,-556 427.199,-490.3924 483.7992,-557.0942 624,-511 628.163,-509.6313 672.6964,-485.0469 702.2685,-468.616"/>
<polygon fill="#191970" stroke="#191970" points="704.2358,-471.5268 711.274,-463.6076 700.8335,-465.4093 704.2358,-471.5268"/>
</g>
<!-- Node440931 -->
<g id="node13" class="node">
<title>Node440931</title>
<g id="a_node13"><a xlink:href="quickjs_8h.html#a89b7c8686c7eee70b86be722ee4730ad" target="_top" xlink:title="JS_GetProperty">
<polygon fill="none" stroke="#ff0000" points="684,-691.5 684,-710.5 773,-710.5 773,-691.5 684,-691.5"/>
<text text-anchor="middle" x="728.5" y="-698.5" font-family="Helvetica,sans-Serif" font-size="10.00" fill="#000000">JS_GetProperty</text>
</a>
</g>
</g>
<!-- Node440843&#45;&gt;Node440931 -->
<g id="edge39" class="edge">
<title>Node440843&#45;&gt;Node440931</title>
<path fill="none" stroke="#191970" d="M259.3174,-661.9345C345.5347,-662.5757 495.986,-666.0347 624,-681 641.0925,-682.9982 659.5843,-686.1908 676.1931,-689.4438"/>
<polygon fill="#191970" stroke="#191970" points="675.7682,-692.9283 686.2618,-691.467 677.1472,-686.0655 675.7682,-692.9283"/>
</g>
<!-- Node441129 -->
<g id="node14" class="node">
<title>Node441129</title>
<g id="a_node14"><a xlink:href="quickjs_8h.html#a3d68fe446df2d9c7d1900b16371bff5b" target="_top" xlink:title="JS_IsObject">
<polygon fill="none" stroke="#000000" points="693,-805.5 693,-824.5 764,-824.5 764,-805.5 693,-805.5"/>
<text text-anchor="middle" x="728.5" y="-812.5" font-family="Helvetica,sans-Serif" font-size="10.00" fill="#000000">JS_IsObject</text>
</a>
</g>
</g>
<!-- Node440843&#45;&gt;Node441129 -->
<g id="edge43" class="edge">
<title>Node440843&#45;&gt;Node441129</title>
<path fill="none" stroke="#191970" d="M190.7153,-671.6789C197.1811,-704.8837 223.4607,-814.4623 295,-857 428.1059,-936.1456 625.6902,-861.7741 699.3934,-828.863"/>
<polygon fill="#191970" stroke="#191970" points="700.8995,-832.0231 708.5546,-824.6984 698.0026,-825.6506 700.8995,-832.0231"/>
</g>
<!-- Node440969 -->
<g id="node15" class="node">
<title>Node440969</title>
<g id="a_node15"><a xlink:href="quickjs_8h.html#a4e407128a9605afb77523e49e9a627fd" target="_top" xlink:title="JS_IsUndefined">
<polygon fill="none" stroke="#000000" points="684,-767.5 684,-786.5 773,-786.5 773,-767.5 684,-767.5"/>
<text text-anchor="middle" x="728.5" y="-774.5" font-family="Helvetica,sans-Serif" font-size="10.00" fill="#000000">JS_IsUndefined</text>
</a>
</g>
</g>
<!-- Node440843&#45;&gt;Node440969 -->
<g id="edge44" class="edge">
<title>Node440843&#45;&gt;Node440969</title>
<path fill="none" stroke="#191970" d="M192.0088,-671.8247C201.503,-700.8885 233.8804,-786.5028 295,-820 423.2419,-890.2843 486.0866,-873.6392 624,-825 643.3759,-818.1665 641.7228,-805.3843 660,-796 664.4824,-793.6985 669.2774,-791.6479 674.1713,-789.8266"/>
<polygon fill="#191970" stroke="#191970" points="675.3091,-793.1366 683.6481,-786.6012 673.0537,-786.5099 675.3091,-793.1366"/>
</g>
<!-- Node441064 -->
<g id="node17" class="node">
<title>Node441064</title>
<g id="a_node17"><a xlink:href="quickjs_8c.html#a8353f635fb8a20553c08db8cf38c17e0" target="_top" xlink:title="JS_ThrowStackOverflow">
<polygon fill="none" stroke="#ff0000" points="663,-729.5 663,-748.5 794,-748.5 794,-729.5 663,-729.5"/>
<text text-anchor="middle" x="728.5" y="-736.5" font-family="Helvetica,sans-Serif" font-size="10.00" fill="#000000">JS_ThrowStackOverflow</text>
</a>
</g>
</g>
<!-- Node440843&#45;&gt;Node441064 -->
<g id="edge47" class="edge">
<title>Node440843&#45;&gt;Node441064</title>
<path fill="none" stroke="#191970" d="M194.0936,-671.5806C207.1752,-695.067 244.5046,-755.3801 295,-780 426.5687,-844.1487 489.1548,-851.9398 624,-795 645.1367,-786.0748 640.2602,-769.6944 660,-758 663.6433,-755.8416 667.5405,-753.9205 671.5582,-752.2118"/>
<polygon fill="#191970" stroke="#191970" points="672.9786,-755.4164 681.0884,-748.5987 670.4971,-748.871 672.9786,-755.4164"/>
</g>
<!-- Node440880 -->
<g id="node18" class="node">
<title>Node440880</title>
<g id="a_node18"><a xlink:href="quickjs_8c.html#abbf44eaeace1104a6bef718fbf5700fe" target="_top" xlink:title="JS_DupAtom">
<polygon fill="none" stroke="#ff0000" points="530.5,-482.5 530.5,-501.5 607.5,-501.5 607.5,-482.5 530.5,-482.5"/>
<text text-anchor="middle" x="569" y="-489.5" font-family="Helvetica,sans-Serif" font-size="10.00" fill="#000000">JS_DupAtom</text>
</a>
</g>
</g>
<!-- Node440843&#45;&gt;Node440880 -->
<g id="edge27" class="edge">
<title>Node440843&#45;&gt;Node440880</title>
<path fill="none" stroke="#191970" d="M192.6459,-652.3045C203.4299,-625.1533 238.0288,-548.2493 295,-516 365.3675,-476.1676 462.5268,-478.5294 520.2471,-484.6938"/>
<polygon fill="#191970" stroke="#191970" points="519.869,-488.1733 530.2031,-485.837 520.6676,-481.219 519.869,-488.1733"/>
</g>
<!-- Node441157 -->
<g id="node19" class="node">
<title>Node441157</title>
<g id="a_node19"><a xlink:href="quickjs_8c.html#a6b42cd922447e1eb6bfc52761895a174" target="_top" xlink:title="js_free_prop_enum">
<polygon fill="none" stroke="#ff0000" points="514,-406.5 514,-425.5 624,-425.5 624,-406.5 514,-406.5"/>
<text text-anchor="middle" x="569" y="-413.5" font-family="Helvetica,sans-Serif" font-size="10.00" fill="#000000">js_free_prop_enum</text>
</a>
</g>
</g>
<!-- Node440843&#45;&gt;Node441157 -->
<g id="edge28" class="edge">
<title>Node440843&#45;&gt;Node441157</title>
<path fill="none" stroke="#191970" d="M190.1461,-652.027C194.9258,-615.542 216.8277,-488.6621 295,-435 360.4061,-390.1014 456.5272,-395.5371 515.8141,-404.8463"/>
<polygon fill="#191970" stroke="#191970" points="515.2823,-408.3059 525.7207,-406.4919 516.4294,-401.4005 515.2823,-408.3059"/>
</g>
<!-- Node440930 -->
<g id="node20" class="node">
<title>Node440930</title>
<g id="a_node20"><a xlink:href="quickjs_8c.html#a718e904644ebc55548a5bdbd44f3adb9" target="_top" xlink:title="js_get_length32">
<polygon fill="none" stroke="#ff0000" points="522,-766.5 522,-785.5 616,-785.5 616,-766.5 522,-766.5"/>
<text text-anchor="middle" x="569" y="-773.5" font-family="Helvetica,sans-Serif" font-size="10.00" fill="#000000">js_get_length32</text>
</a>
</g>
</g>
<!-- Node440843&#45;&gt;Node440930 -->
<g id="edge32" class="edge">
<title>Node440843&#45;&gt;Node440930</title>
<path fill="none" stroke="#191970" d="M196.5437,-671.5088C212.3985,-690.6952 251.3386,-733.7633 295,-752 365.3097,-781.3672 454.4239,-783.4489 511.5837,-780.8502"/>
<polygon fill="#191970" stroke="#191970" points="512.068,-784.3299 521.8731,-780.3161 511.705,-777.3393 512.068,-784.3299"/>
</g>
<!-- Node441158 -->
<g id="node21" class="node">
<title>Node441158</title>
<g id="a_node21"><a xlink:href="quickjs_8c.html#a176ac5ff56a118a0b1b2566798d28823" target="_top" xlink:title="JS_GetOwnPropertyNamesInternal">
<polygon fill="none" stroke="#ff0000" points="295,-444.5 295,-463.5 478,-463.5 478,-444.5 295,-444.5"/>
<text text-anchor="middle" x="386.5" y="-451.5" font-family="Helvetica,sans-Serif" font-size="10.00" fill="#000000">JS_GetOwnPropertyNamesInternal</text>
</a>
</g>
</g>
<!-- Node440843&#45;&gt;Node441158 -->
<g id="edge35" class="edge">
<title>Node440843&#45;&gt;Node441158</title>
<path fill="none" stroke="#191970" d="M191.6855,-652.2047C200.6558,-621.3922 232.5986,-525.6677 295,-478 300.5241,-473.7802 306.723,-470.2997 313.2224,-467.4294"/>
<polygon fill="#191970" stroke="#191970" points="314.8734,-470.5422 322.9163,-463.6456 312.3281,-464.0213 314.8734,-470.5422"/>
</g>
<!-- Node441278 -->
<g id="node22" class="node">
<title>Node441278</title>
<g id="a_node22"><a xlink:href="quickjs_8c.html#a1fc2c29e89230a9792fd36ae50b270e4" target="_top" xlink:title="JS_IsArray">
<polygon fill="none" stroke="#000000" points="354,-690.5 354,-709.5 419,-709.5 419,-690.5 354,-690.5"/>
<text text-anchor="middle" x="386.5" y="-697.5" font-family="Helvetica,sans-Serif" font-size="10.00" fill="#000000">JS_IsArray</text>
</a>
</g>
</g>
<!-- Node440843&#45;&gt;Node441278 -->
<g id="edge40" class="edge">
<title>Node440843&#45;&gt;Node441278</title>
<path fill="none" stroke="#191970" d="M238.5827,-671.54C271.023,-677.7816 312.9676,-685.852 343.9016,-691.8039"/>
<polygon fill="#191970" stroke="#191970" points="343.4593,-695.2829 353.9405,-693.7354 344.7819,-688.409 343.4593,-695.2829"/>
</g>
<!-- Node441084 -->
<g id="node24" class="node">
<title>Node441084</title>
<g id="a_node24"><a xlink:href="quickjs_8c.html#a7445082229205ad47aec019d74536f8e" target="_top" xlink:title="JS_NewAtomUInt32">
<polygon fill="none" stroke="#ff0000" points="331,-918.5 331,-937.5 442,-937.5 442,-918.5 331,-918.5"/>
<text text-anchor="middle" x="386.5" y="-925.5" font-family="Helvetica,sans-Serif" font-size="10.00" fill="#000000">JS_NewAtomUInt32</text>
</a>
</g>
</g>
<!-- Node440843&#45;&gt;Node441084 -->
<g id="edge45" class="edge">
<title>Node440843&#45;&gt;Node441084</title>
<path fill="none" stroke="#191970" d="M190.2175,-671.6143C195.3541,-708.0321 218.6419,-838.7343 295,-904 302.584,-910.4823 311.7213,-915.2395 321.2475,-918.7255"/>
<polygon fill="#191970" stroke="#191970" points="320.2692,-922.0872 330.8603,-921.8044 322.4045,-915.4208 320.2692,-922.0872"/>
</g>
<!-- Node440845 -->
<g id="node4" class="node">
<title>Node440845</title>
<g id="a_node4"><a xlink:href="quickjs_8c.html#a06ff303a11e6641cbf1f6634e6a61811" target="_top" xlink:title="__JS_AtomToValue">
<polygon fill="none" stroke="#ff0000" points="833,-994.5 833,-1013.5 938,-1013.5 938,-994.5 833,-994.5"/>
<text text-anchor="middle" x="885.5" y="-1001.5" font-family="Helvetica,sans-Serif" font-size="10.00" fill="#000000">__JS_AtomToValue</text>
</a>
</g>
</g>
<!-- Node440844&#45;&gt;Node440845 -->
<g id="edge4" class="edge">
<title>Node440844&#45;&gt;Node440845</title>
<path fill="none" stroke="#191970" d="M776.0312,-1004C790.7642,-1004 807.2304,-1004 822.827,-1004"/>
<polygon fill="#191970" stroke="#191970" points="822.9237,-1007.5001 832.9237,-1004 822.9236,-1000.5001 822.9237,-1007.5001"/>
</g>
<!-- Node440874 -->
<g id="node6" class="node">
<title>Node440874</title>
<g id="a_node6"><a xlink:href="quickjs_8c.html#ac2894ff4edcdb4e6841bcce9c76081e3" target="_top" xlink:title="JS_CallInternal">
<polygon fill="none" stroke="#ff0000" points="525.5,-596.5 525.5,-615.5 612.5,-615.5 612.5,-596.5 525.5,-596.5"/>
<text text-anchor="middle" x="569" y="-603.5" font-family="Helvetica,sans-Serif" font-size="10.00" fill="#000000">JS_CallInternal</text>
</a>
</g>
</g>
<!-- Node440873&#45;&gt;Node440874 -->
<g id="edge6" class="edge">
<title>Node440873&#45;&gt;Node440874</title>
<path fill="none" stroke="#191970" d="M411.8758,-601.155C438.4149,-599.2177 480.8721,-598.758 514.9652,-599.776"/>
<polygon fill="#191970" stroke="#191970" points="515.1331,-603.284 525.2504,-600.1393 515.3803,-596.2883 515.1331,-603.284"/>
</g>
<!-- Node440874&#45;&gt;Node440844 -->
<g id="edge7" class="edge">
<title>Node440874&#45;&gt;Node440844</title>
<path fill="none" stroke="#191970" d="M578.2711,-615.8339C590.5687,-629.4205 612.1037,-655.1915 624,-681 653.2432,-744.4416 638.8849,-767.4106 660,-834 677.8007,-890.1368 705.6661,-953.9586 719.7394,-985.0122"/>
<polygon fill="#191970" stroke="#191970" points="716.6107,-986.5867 723.9489,-994.2288 722.978,-983.6786 716.6107,-986.5867"/>
</g>
<!-- Node440874&#45;&gt;Node440873 -->
<g id="edge8" class="edge">
<title>Node440874&#45;&gt;Node440873</title>
<path fill="none" stroke="#191970" d="M525.2504,-611.8607C493.7012,-613.1615 451.6477,-613.0353 422.1377,-611.4819"/>
<polygon fill="#191970" stroke="#191970" points="422.0735,-607.9712 411.8758,-610.845 421.6398,-614.9578 422.0735,-607.9712"/>
</g>
<!-- Node440874&#45;&gt;Node440874 -->
<g id="edge9" class="edge">
<title>Node440874&#45;&gt;Node440874</title>
<path fill="none" stroke="#191970" d="M544.6476,-615.7571C532.8005,-624.5653 540.918,-634 569,-634 587.4288,-634 597.2596,-629.9368 598.4924,-624.6539"/>
<polygon fill="#191970" stroke="#191970" points="601.3855,-622.665 593.3524,-615.7571 595.3243,-626.1668 601.3855,-622.665"/>
</g>
<!-- Node440874&#45;&gt;Node441062 -->
<g id="edge10" class="edge">
<title>Node440874&#45;&gt;Node441062</title>
<path fill="none" stroke="#191970" d="M595.2552,-615.6067C613.4183,-622.2315 638.1552,-631.2126 660,-639 670.2541,-642.6555 681.3884,-646.5769 691.6409,-650.1686"/>
<polygon fill="#191970" stroke="#191970" points="690.5482,-653.4942 701.1431,-653.4916 692.859,-646.8866 690.5482,-653.4942"/>
</g>
<!-- Node440874&#45;&gt;Node441021 -->
<g id="edge11" class="edge">
<title>Node440874&#45;&gt;Node441021</title>
<path fill="none" stroke="#191970" d="M575.1963,-596.2393C585.8451,-579.2682 608.0132,-543.0641 624,-511 665.2827,-428.201 705.4367,-325.1285 721.3429,-283.1376"/>
<polygon fill="#191970" stroke="#191970" points="724.6805,-284.206 724.9303,-273.6141 718.1298,-281.7384 724.6805,-284.206"/>
</g>
<!-- Node440874&#45;&gt;Node440920 -->
<g id="edge17" class="edge">
<title>Node440874&#45;&gt;Node440920</title>
<path fill="none" stroke="#191970" d="M612.7099,-604.2035C671.1758,-600.9032 770.5621,-591.8632 797,-568 843.2134,-526.2871 874.0378,-328.3489 882.8822,-264.7361"/>
<polygon fill="#191970" stroke="#191970" points="886.3548,-265.1743 884.2362,-254.7935 879.4188,-264.2297 886.3548,-265.1743"/>
</g>
<!-- Node440874&#45;&gt;Node441177 -->
<g id="edge13" class="edge">
<title>Node440874&#45;&gt;Node441177</title>
<path fill="none" stroke="#191970" d="M595.2552,-596.3933C613.4183,-589.7685 638.1552,-580.7874 660,-573 670.2541,-569.3445 681.3884,-565.4231 691.6409,-561.8314"/>
<polygon fill="#191970" stroke="#191970" points="692.859,-565.1134 701.1431,-558.5084 690.5482,-558.5058 692.859,-565.1134"/>
</g>
<!-- Node440874&#45;&gt;Node440937 -->
<g id="edge19" class="edge">
<title>Node440874&#45;&gt;Node440937</title>
<path fill="none" stroke="#191970" d="M612.5354,-601.586C662.4127,-598.9362 744.0606,-602.2567 797,-644 858.2212,-692.2736 877.6741,-790.7744 883.3523,-833.0259"/>
<polygon fill="#191970" stroke="#191970" points="879.9018,-833.6448 884.5884,-843.1468 886.8502,-832.7962 879.9018,-833.6448"/>
</g>
<!-- Node440874&#45;&gt;Node440919 -->
<g id="edge16" class="edge">
<title>Node440874&#45;&gt;Node440919</title>
<path fill="none" stroke="#191970" d="M578.3365,-596.2241C589.5973,-584.2674 608.8947,-563.2398 624,-544 641.3581,-521.8907 639.1641,-510.8677 660,-492 670.6037,-482.398 684.0584,-474.2711 696.2309,-468.0283"/>
<polygon fill="#191970" stroke="#191970" points="697.7775,-471.1681 705.2209,-463.6284 694.7003,-464.8808 697.7775,-471.1681"/>
</g>
<!-- Node440874&#45;&gt;Node440931 -->
<g id="edge18" class="edge">
<title>Node440874&#45;&gt;Node440931</title>
<path fill="none" stroke="#191970" d="M582.4174,-615.636C593.7461,-623.9148 610.2688,-636.3283 624,-648 640.7685,-662.2535 640.8327,-671.1852 660,-682 664.4539,-684.513 669.2607,-686.7103 674.1894,-688.6282"/>
<polygon fill="#191970" stroke="#191970" points="673.1623,-691.9769 683.7571,-691.9817 675.4777,-685.371 673.1623,-691.9769"/>
</g>
<!-- Node440874&#45;&gt;Node441129 -->
<g id="edge20" class="edge">
<title>Node440874&#45;&gt;Node441129</title>
<path fill="none" stroke="#191970" d="M577.595,-615.5013C589.508,-629.1101 611.0331,-655.3501 624,-681 648.1627,-728.7965 621.5134,-758.7559 660,-796 666.3792,-802.1732 674.5815,-806.3774 683.0787,-809.2317"/>
<polygon fill="#191970" stroke="#191970" points="682.144,-812.6045 692.7163,-811.9137 684.0207,-805.8608 682.144,-812.6045"/>
</g>
<!-- Node440874&#45;&gt;Node440969 -->
<g id="edge21" class="edge">
<title>Node440874&#45;&gt;Node440969</title>
<path fill="none" stroke="#191970" d="M577.1249,-615.7591C588.4796,-629.674 609.3455,-656.2754 624,-681 643.2621,-713.4982 631.155,-733.6047 660,-758 664.2404,-761.5863 669.1067,-764.4988 674.2477,-766.8637"/>
<polygon fill="#191970" stroke="#191970" points="673.134,-770.1861 683.7224,-770.5563 675.6759,-763.6639 673.134,-770.1861"/>
</g>
<!-- Node440874&#45;&gt;Node441255 -->
<g id="edge22" class="edge">
<title>Node440874&#45;&gt;Node441255</title>
<path fill="none" stroke="#191970" d="M577.8405,-596.3103C593.0699,-580.1928 625.9151,-547.8836 660,-530 665.2508,-527.245 670.9435,-524.8549 676.7273,-522.7897"/>
<polygon fill="#191970" stroke="#191970" points="678.0593,-526.037 686.4851,-519.6139 675.8929,-519.3807 678.0593,-526.037"/>
</g>
<!-- Node440874&#45;&gt;Node441064 -->
<g id="edge23" class="edge">
<title>Node440874&#45;&gt;Node441064</title>
<path fill="none" stroke="#191970" d="M576.2392,-615.7549C595.8056,-642.0201 649.0129,-712.741 660,-720 663.1181,-722.06 666.4569,-723.8986 669.9206,-725.5392"/>
<polygon fill="#191970" stroke="#191970" points="668.7374,-728.8375 679.3153,-729.4359 671.4193,-722.3716 668.7374,-728.8375"/>
</g>
<!-- Node441021&#45;&gt;Node440920 -->
<g id="edge12" class="edge">
<title>Node441021&#45;&gt;Node440920</title>
<path fill="none" stroke="#191970" d="M794.1725,-256.0524C808.0961,-254.3674 822.5731,-252.6154 835.7869,-251.0162"/>
<polygon fill="#191970" stroke="#191970" points="836.5716,-254.4469 846.0786,-249.7707 835.7305,-247.4976 836.5716,-254.4469"/>
</g>
<!-- Node441177&#45;&gt;Node440920 -->
<g id="edge14" class="edge">
<title>Node441177&#45;&gt;Node440920</title>
<path fill="none" stroke="#191970" d="M780.5506,-540.6966C786.6177,-538.0368 792.3048,-534.554 797,-530 836.2236,-491.9554 870.8944,-323.1102 881.8849,-264.8468"/>
<polygon fill="#191970" stroke="#191970" points="885.377,-265.2111 883.7616,-254.7401 878.4947,-263.933 885.377,-265.2111"/>
</g>
<!-- Node441177&#45;&gt;Node440937 -->
<g id="edge15" class="edge">
<title>Node441177&#45;&gt;Node440937</title>
<path fill="none" stroke="#191970" d="M742.7072,-558.6125C758.0302,-569.6392 782.2118,-589.0505 797,-611 846.7916,-684.9038 872.6797,-790.3199 881.7165,-833.4607"/>
<polygon fill="#191970" stroke="#191970" points="878.3274,-834.3596 883.7405,-843.4673 885.1885,-832.9718 878.3274,-834.3596"/>
</g>
<!-- Node441157&#45;&gt;Node440919 -->
<g id="edge29" class="edge">
<title>Node441157&#45;&gt;Node440919</title>
<path fill="none" stroke="#191970" d="M609.2486,-425.589C630.7931,-430.7219 657.4833,-437.0807 680.1475,-442.4803"/>
<polygon fill="#191970" stroke="#191970" points="679.376,-445.8944 689.9149,-444.8073 680.9984,-439.085 679.376,-445.8944"/>
</g>
<!-- Node440930&#45;&gt;Node440937 -->
<g id="edge34" class="edge">
<title>Node440930&#45;&gt;Node440937</title>
<path fill="none" stroke="#191970" d="M580.1226,-785.6724C596.3969,-799.1875 628.2284,-823.2681 660,-834 716.4057,-853.0529 785.0489,-856.2067 831.6769,-855.6082"/>
<polygon fill="#191970" stroke="#191970" points="831.9325,-859.1041 841.8637,-855.4133 831.7985,-852.1053 831.9325,-859.1041"/>
</g>
<!-- Node440930&#45;&gt;Node440931 -->
<g id="edge33" class="edge">
<title>Node440930&#45;&gt;Node440931</title>
<path fill="none" stroke="#191970" d="M595.3236,-766.4949C604.7051,-762.6014 615.1359,-757.6697 624,-752 642.0338,-740.4651 641.1991,-730.237 660,-720 664.4913,-717.5545 669.3234,-715.4029 674.2682,-713.5141"/>
<polygon fill="#191970" stroke="#191970" points="675.55,-716.7742 683.8565,-710.1975 673.2617,-710.1588 675.55,-716.7742"/>
</g>
<!-- Node441158&#45;&gt;Node440919 -->
<g id="edge38" class="edge">
<title>Node441158&#45;&gt;Node440919</title>
<path fill="none" stroke="#191970" d="M478.1497,-454C543.0727,-454 627.6036,-454 679.9454,-454"/>
<polygon fill="#191970" stroke="#191970" points="679.9693,-457.5001 689.9693,-454 679.9692,-450.5001 679.9693,-457.5001"/>
</g>
<!-- Node441158&#45;&gt;Node440880 -->
<g id="edge36" class="edge">
<title>Node441158&#45;&gt;Node440880</title>
<path fill="none" stroke="#191970" d="M432.5525,-463.589C459.3313,-469.1649 493.0578,-476.1874 520.2797,-481.8555"/>
<polygon fill="#191970" stroke="#191970" points="519.8627,-485.3437 530.3662,-483.9557 521.2896,-478.4906 519.8627,-485.3437"/>
</g>
<!-- Node441158&#45;&gt;Node441157 -->
<g id="edge37" class="edge">
<title>Node441158&#45;&gt;Node441157</title>
<path fill="none" stroke="#191970" d="M432.5525,-444.411C457.0692,-439.3061 487.4096,-432.9887 513.2502,-427.6082"/>
<polygon fill="#191970" stroke="#191970" points="514.2022,-430.9851 523.2787,-425.5201 512.7752,-424.1321 514.2022,-430.9851"/>
</g>
<!-- Node441279 -->
<g id="node23" class="node">
<title>Node441279</title>
<g id="a_node23"><a xlink:href="quickjs_8c.html#a91b2b06caf6cc28b1edf48334b95b51a" target="_top" xlink:title="js_proxy_isArray">
<polygon fill="none" stroke="#ff0000" points="520,-690.5 520,-709.5 618,-709.5 618,-690.5 520,-690.5"/>
<text text-anchor="middle" x="569" y="-697.5" font-family="Helvetica,sans-Serif" font-size="10.00" fill="#000000">js_proxy_isArray</text>
</a>
</g>
</g>
<!-- Node441278&#45;&gt;Node441279 -->
<g id="edge41" class="edge">
<title>Node441278&#45;&gt;Node441279</title>
<path fill="none" stroke="#191970" d="M419.1273,-700C444.165,-700 479.414,-700 509.4374,-700"/>
<polygon fill="#191970" stroke="#191970" points="509.8139,-703.5001 519.8139,-700 509.8138,-696.5001 509.8139,-703.5001"/>
</g>
<!-- Node441084&#45;&gt;Node440937 -->
<g id="edge46" class="edge">
<title>Node441084&#45;&gt;Node440937</title>
<path fill="none" stroke="#191970" d="M442.3444,-923.8149C490.5873,-919.8517 562.0934,-913.1449 624,-904 697.0789,-893.2047 780.7511,-876.0298 833.3573,-864.6367"/>
<polygon fill="#191970" stroke="#191970" points="834.1036,-868.0563 843.1303,-862.5092 832.6146,-861.2165 834.1036,-868.0563"/>
</g>
<!-- Node440952&#45;&gt;Node440920 -->
<g id="edge50" class="edge">
<title>Node440952&#45;&gt;Node440920</title>
<path fill="none" stroke="#191970" d="M232.023,-124.9598C332.9119,-128.2293 591.7137,-142.555 797,-205 818.6411,-211.5829 841.9047,-222.2513 859.147,-230.9154"/>
<polygon fill="#191970" stroke="#191970" points="857.5626,-234.0363 868.0581,-235.4839 860.7561,-227.8072 857.5626,-234.0363"/>
</g>
<!-- Node441281 -->
<g id="node28" class="node">
<title>Node441281</title>
<g id="a_node28"><a xlink:href="quickjs_8c.html#a2ce39fc64f8e4a7a0e19bf5527df730f" target="_top" xlink:title="JS_ParseJSON2">
<polygon fill="none" stroke="#ff0000" points="343,-197.5 343,-216.5 430,-216.5 430,-197.5 343,-197.5"/>
<text text-anchor="middle" x="386.5" y="-204.5" font-family="Helvetica,sans-Serif" font-size="10.00" fill="#000000">JS_ParseJSON2</text>
</a>
</g>
</g>
<!-- Node441280&#45;&gt;Node441281 -->
<g id="edge56" class="edge">
<title>Node441280&#45;&gt;Node441281</title>
<path fill="none" stroke="#191970" d="M229.9221,-203.036C259.6922,-203.7897 300.2887,-204.8174 332.6845,-205.6376"/>
<polygon fill="#191970" stroke="#191970" points="332.8049,-209.1417 342.8903,-205.896 332.9822,-202.1439 332.8049,-209.1417"/>
</g>
<!-- Node441281&#45;&gt;Node440920 -->
<g id="edge60" class="edge">
<title>Node441281&#45;&gt;Node440920</title>
<path fill="none" stroke="#191970" d="M430.3166,-205.4931C478.0074,-204.2045 556.4904,-203.1107 624,-207 701.2729,-211.4518 720.5616,-214.8311 797,-227 809.8289,-229.0423 823.6236,-231.6481 836.4152,-234.2386"/>
<polygon fill="#191970" stroke="#191970" points="835.9204,-237.7102 846.4212,-236.3019 837.3341,-230.8544 835.9204,-237.7102"/>
</g>
<!-- Node441281&#45;&gt;Node440937 -->
<g id="edge61" class="edge">
<title>Node441281&#45;&gt;Node440937</title>
<path fill="none" stroke="#191970" d="M424.4633,-216.5547C506.5149,-239.2842 700.7309,-304.6754 797,-435 845.2155,-500.2719 875.66,-759.3032 883.4907,-833.2158"/>
<polygon fill="#191970" stroke="#191970" points="880.0373,-833.8464 884.5526,-843.4308 886.9998,-833.1225 880.0373,-833.8464"/>
</g>
<!-- Node441282 -->
<g id="node29" class="node">
<title>Node441282</title>
<g id="a_node29"><a xlink:href="quickjs_8c.html#a7cd95e5ed87d4b27630af7944855779f" target="_top" xlink:title="free_token">
<polygon fill="none" stroke="#000000" points="534.5,-216.5 534.5,-235.5 603.5,-235.5 603.5,-216.5 534.5,-216.5"/>
<text text-anchor="middle" x="569" y="-223.5" font-family="Helvetica,sans-Serif" font-size="10.00" fill="#000000">free_token</text>
</a>
</g>
</g>
<!-- Node441281&#45;&gt;Node441282 -->
<g id="edge57" class="edge">
<title>Node441281&#45;&gt;Node441282</title>
<path fill="none" stroke="#191970" d="M430.2133,-211.551C458.6703,-214.5136 495.6849,-218.3672 524.3308,-221.3495"/>
<polygon fill="#191970" stroke="#191970" points="524.1658,-224.8512 534.4745,-222.4056 524.8907,-217.8888 524.1658,-224.8512"/>
</g>
<!-- Node441282&#45;&gt;Node440920 -->
<g id="edge59" class="edge">
<title>Node441282&#45;&gt;Node440920</title>
<path fill="none" stroke="#191970" d="M603.7764,-228.0877C660.1346,-231.471 771.603,-238.1626 836.1474,-242.0373"/>
<polygon fill="#191970" stroke="#191970" points="836.2813,-245.5515 846.4731,-242.6572 836.7008,-238.5641 836.2813,-245.5515"/>
</g>
<!-- Node441282&#45;&gt;Node440919 -->
<g id="edge58" class="edge">
<title>Node441282&#45;&gt;Node440919</title>
<path fill="none" stroke="#191970" d="M575.6504,-235.5066C599.92,-270.1992 683.9657,-390.3397 715.9815,-436.1052"/>
<polygon fill="#191970" stroke="#191970" points="713.221,-438.2651 721.8212,-444.4528 718.9568,-434.2525 713.221,-438.2651"/>
</g>
</g>
</svg>
        <g id="navigator" transform="translate(0 0)" fill="#404254">
                <rect fill="#f2f5e9" fill-opacity="0.5" stroke="#606060" stroke-width=".5" x="0" y="0" width="60" height="60"/>
                <use id="zoomplus" xlink:href="#zoomPlus" x="17" y="9" onmousedown="handleZoom(evt,'in')"/>
                <use id="zoomminus" xlink:href="#zoomMin" x="42" y="9" onmousedown="handleZoom(evt,'out')"/>
                <use id="reset" xlink:href="#resetDef" x="30" y="36" onmousedown="handleReset()"/>
                <g id="arrowUp" xlink:href="#dirArrow" transform="translate(30 24)" onmousedown="handlePan(0,-1)">
                  <use xlink:href="#rim" fill="#404040">
                        <set attributeName="fill" to="#808080" begin="arrowUp.mouseover" end="arrowUp.mouseout"/>
                  </use>
                  <path fill="none" stroke="white" stroke-width="1.5" d="M0,-3.0v7 M-2.5,-0.5L0,-3.0L2.5,-0.5"/>
                </g>
                <g id="arrowRight" xlink:href="#dirArrow" transform="rotate(90) translate(36 -43)" onmousedown="handlePan(1,0)">
                  <use xlink:href="#rim" fill="#404040">
                        <set attributeName="fill" to="#808080" begin="arrowRight.mouseover" end="arrowRight.mouseout"/>
                  </use>
                  <path fill="none" stroke="white" stroke-width="1.5" d="M0,-3.0v7 M-2.5,-0.5L0,-3.0L2.5,-0.5"/>
                </g>
                <g id="arrowDown" xlink:href="#dirArrow" transform="rotate(180) translate(-30 -48)" onmousedown="handlePan(0,1)">
                  <use xlink:href="#rim" fill="#404040">
                        <set attributeName="fill" to="#808080" begin="arrowDown.mouseover" end="arrowDown.mouseout"/>
                  </use>
                  <path fill="none" stroke="white" stroke-width="1.5" d="M0,-3.0v7 M-2.5,-0.5L0,-3.0L2.5,-0.5"/>
                </g>
                <g id="arrowLeft" xlink:href="#dirArrow" transform="rotate(270) translate(-36 17)" onmousedown="handlePan(-1,0)">
                  <use xlink:href="#rim" fill="#404040">
                        <set attributeName="fill" to="#808080" begin="arrowLeft.mouseover" end="arrowLeft.mouseout"/>
                  </use>
                  <path fill="none" stroke="white" stroke-width="1.5" d="M0,-3.0v7 M-2.5,-0.5L0,-3.0L2.5,-0.5"/>
                </g>
        </g>
        <svg viewBox="0 0 15 15" width="100%" height="30px" preserveAspectRatio="xMaxYMin meet">
         <g id="arrow_out" transform="scale(0.3 0.3)">
          <a xlink:href="quickjs_8c_a8d95b2b91f50339b621237ad13f9cc47_cgraph_org.svg" target="_base">
           <rect id="button" ry="5" rx="5" y="6" x="6" height="38" width="38"
                fill="#f2f5e9" fill-opacity="0.5" stroke="#606060" stroke-width="1.0"/>
           <path id="arrow"
             d="M 11.500037,31.436501 C 11.940474,20.09759 22.043105,11.32322 32.158766,21.979434 L 37.068811,17.246167 C 37.068811,17.246167 37.088388,32 37.088388,32 L 22.160133,31.978069 C 22.160133,31.978069 26.997745,27.140456 26.997745,27.140456 C 18.528582,18.264221 13.291696,25.230495 11.500037,31.436501 z"
             style="fill:#404040;"/>
          </a>
         </g>
        </svg>
</svg>
