<?xml version="1.0" encoding="UTF-8" standalone="no"?>
<!DOCTYPE svg PUBLIC "-//W3C//DTD SVG 1.1//EN"
 "http://www.w3.org/Graphics/SVG/1.1/DTD/svg11.dtd">
<!-- Generated by graphviz version 2.40.1 (20161225.0304)
 -->
<!-- Title: js_async_generator_free Pages: 1 -->
<svg width="582pt" height="39pt"
 viewBox="0.00 0.00 582.00 39.00" xmlns="http://www.w3.org/2000/svg" xmlns:xlink="http://www.w3.org/1999/xlink">
<g id="graph0" class="graph" transform="scale(1 1) rotate(0) translate(4 35)">
<title>js_async_generator_free</title>
<!-- Node306443 -->
<g id="node1" class="node">
<title>Node306443</title>
<polygon fill="#bfbfbf" stroke="#000000" points="0,-6 0,-25 136,-25 136,-6 0,-6"/>
<text text-anchor="middle" x="68" y="-13" font-family="Helvetica,sans-Serif" font-size="10.00" fill="#000000">js_async_generator_free</text>
</g>
<!-- Node306444 -->
<g id="node2" class="node">
<title>Node306444</title>
<g id="a_node2"><a xlink:href="quickjs_8c.html#ae19867da709929c072f05e90301835a4" target="_top" xlink:title="js_async_generator\l_function_call">
<polygon fill="none" stroke="#000000" points="172,-.5 172,-30.5 283,-30.5 283,-.5 172,-.5"/>
<text text-anchor="start" x="180" y="-18.5" font-family="Helvetica,sans-Serif" font-size="10.00" fill="#000000">js_async_generator</text>
<text text-anchor="middle" x="227.5" y="-7.5" font-family="Helvetica,sans-Serif" font-size="10.00" fill="#000000">_function_call</text>
</a>
</g>
</g>
<!-- Node306443&#45;&gt;Node306444 -->
<g id="edge1" class="edge">
<title>Node306443&#45;&gt;Node306444</title>
<path fill="none" stroke="#191970" d="M146.166,-15.5C154.7666,-15.5 163.3917,-15.5 171.6411,-15.5"/>
<polygon fill="#191970" stroke="#191970" points="146.105,-12.0001 136.105,-15.5 146.105,-19.0001 146.105,-12.0001"/>
</g>
<!-- Node306445 -->
<g id="node3" class="node">
<title>Node306445</title>
<g id="a_node3"><a xlink:href="quickjs_8c.html#a2e66fcf1bc1d19f346317f10ee590621" target="_top" xlink:title="JS_AddIntrinsicPromise">
<polygon fill="none" stroke="#000000" points="319,-6 319,-25 447,-25 447,-6 319,-6"/>
<text text-anchor="middle" x="383" y="-13" font-family="Helvetica,sans-Serif" font-size="10.00" fill="#000000">JS_AddIntrinsicPromise</text>
</a>
</g>
</g>
<!-- Node306444&#45;&gt;Node306445 -->
<g id="edge2" class="edge">
<title>Node306444&#45;&gt;Node306445</title>
<path fill="none" stroke="#191970" d="M293.4018,-15.5C301.8664,-15.5 310.5229,-15.5 318.9571,-15.5"/>
<polygon fill="#191970" stroke="#191970" points="293.1999,-12.0001 283.1999,-15.5 293.1998,-19.0001 293.1999,-12.0001"/>
</g>
<!-- Node306446 -->
<g id="node4" class="node">
<title>Node306446</title>
<g id="a_node4"><a xlink:href="quickjs_8c.html#ad8aedb643b8753b7a15f6cb2df61945e" target="_top" xlink:title="JS_NewContext">
<polygon fill="none" stroke="#ff0000" points="483,-6 483,-25 574,-25 574,-6 483,-6"/>
<text text-anchor="middle" x="528.5" y="-13" font-family="Helvetica,sans-Serif" font-size="10.00" fill="#000000">JS_NewContext</text>
</a>
</g>
</g>
<!-- Node306445&#45;&gt;Node306446 -->
<g id="edge3" class="edge">
<title>Node306445&#45;&gt;Node306446</title>
<path fill="none" stroke="#191970" d="M457.4356,-15.5C466.1319,-15.5 474.796,-15.5 482.9306,-15.5"/>
<polygon fill="#191970" stroke="#191970" points="457.242,-12.0001 447.242,-15.5 457.2419,-19.0001 457.242,-12.0001"/>
</g>
</g>
</svg>
