<?xml version="1.0" encoding="UTF-8" standalone="no"?>
<!DOCTYPE svg PUBLIC "-//W3C//DTD SVG 1.1//EN"
 "http://www.w3.org/Graphics/SVG/1.1/DTD/svg11.dtd">
<!-- Generated by graphviz version 2.40.1 (20161225.0304)
 -->
<!-- Title: JS_GetGlobalVarRef Pages: 1 -->
<!--zoomable 1013 -->
<svg id="main" version="1.1" xmlns="http://www.w3.org/2000/svg" xmlns:xlink="http://www.w3.org/1999/xlink" xml:space="preserve" onload="init(evt)">
<style type="text/css"><![CDATA[
.edge:hover path { stroke: red; }
.edge:hover polygon { stroke: red; fill: red; }
]]></style>
<script type="text/javascript"><![CDATA[
var edges = document.getElementsByTagName('g');
if (edges && edges.length) {
  for (var i=0;i<edges.length;i++) {
    if (edges[i].id.substr(0,4)=='edge') {
      edges[i].setAttribute('class','edge');
    }
  }
}
]]></script>
        <defs>
                <circle id="rim" cx="0" cy="0" r="7"/>
                <circle id="rim2" cx="0" cy="0" r="3.5"/>
                <g id="zoomPlus">
                        <use xlink:href="#rim" fill="#404040">
                                <set attributeName="fill" to="#808080" begin="zoomplus.mouseover" end="zoomplus.mouseout"/>
                        </use>
                        <path d="M-4,0h8M0,-4v8" fill="none" stroke="white" stroke-width="1.5" pointer-events="none"/>
                </g>
                <g id="zoomMin">
                        <use xlink:href="#rim" fill="#404040">
                                <set attributeName="fill" to="#808080" begin="zoomminus.mouseover" end="zoomminus.mouseout"/>
                        </use>
                        <path d="M-4,0h8" fill="none" stroke="white" stroke-width="1.5" pointer-events="none"/>
                </g>
                <g id="dirArrow">
                        <path fill="none" stroke="white" stroke-width="1.5" d="M0,-3.0v7 M-2.5,-0.5L0,-3.0L2.5,-0.5"/>
                </g>
               <g id="resetDef">
                       <use xlink:href="#rim2" fill="#404040">
                               <set attributeName="fill" to="#808080" begin="reset.mouseover" end="reset.mouseout"/>
                       </use>
               </g>
        </defs>

<script type="text/javascript">
var viewWidth = 603;
var viewHeight = 1013;
var sectionId = 'dynsection-640';
</script>
<script xlink:href="svgpan.js"/>
<svg id="graph" class="graph">
<g id="viewport">
<title>JS_GetGlobalVarRef</title>
<!-- Node222376 -->
<g id="node1" class="node">
<title>Node222376</title>
<polygon fill="#bfbfbf" stroke="#000000" points="0,-274.5 0,-293.5 111,-293.5 111,-274.5 0,-274.5"/>
<text text-anchor="middle" x="55.5" y="-281.5" font-family="Helvetica,sans-Serif" font-size="10.00" fill="#000000">JS_GetGlobalVarRef</text>
</g>
<!-- Node222377 -->
<g id="node2" class="node">
<title>Node222377</title>
<g id="a_node2"><a xlink:href="quickjs_8c.html#ac2894ff4edcdb4e6841bcce9c76081e3" target="_top" xlink:title="JS_CallInternal">
<polygon fill="none" stroke="#000000" points="147,-274.5 147,-293.5 234,-293.5 234,-274.5 147,-274.5"/>
<text text-anchor="middle" x="190.5" y="-281.5" font-family="Helvetica,sans-Serif" font-size="10.00" fill="#000000">JS_CallInternal</text>
</a>
</g>
</g>
<!-- Node222376&#45;&gt;Node222377 -->
<g id="edge1" class="edge">
<title>Node222376&#45;&gt;Node222377</title>
<path fill="none" stroke="#191970" d="M121.3252,-284C130.0035,-284 138.7187,-284 146.8966,-284"/>
<polygon fill="#191970" stroke="#191970" points="121.1891,-280.5001 111.1891,-284 121.189,-287.5001 121.1891,-280.5001"/>
</g>
<!-- Node222377&#45;&gt;Node222377 -->
<g id="edge40" class="edge">
<title>Node222377&#45;&gt;Node222377</title>
<path fill="none" stroke="#191970" d="M165.5745,-303.0292C166.9341,-308.128 175.2426,-312 190.5,-312 214.3164,-312 221.2008,-302.5653 211.1533,-293.7571"/>
<polygon fill="#191970" stroke="#191970" points="168.8407,-304.304 169.8467,-293.7571 162.4831,-301.3747 168.8407,-304.304"/>
</g>
<!-- Node222378 -->
<g id="node3" class="node">
<title>Node222378</title>
<g id="a_node3"><a xlink:href="quickjs_8c.html#ade71a22dc56e7371392393df663b28b3" target="_top" xlink:title="async_func_resume">
<polygon fill="none" stroke="#000000" points="285,-892.5 285,-911.5 398,-911.5 398,-892.5 285,-892.5"/>
<text text-anchor="middle" x="341.5" y="-899.5" font-family="Helvetica,sans-Serif" font-size="10.00" fill="#000000">async_func_resume</text>
</a>
</g>
</g>
<!-- Node222377&#45;&gt;Node222378 -->
<g id="edge2" class="edge">
<title>Node222377&#45;&gt;Node222378</title>
<path fill="none" stroke="#191970" d="M195.2866,-303.5901C218.8588,-400.0646 322.152,-822.8142 339.1334,-892.3141"/>
<polygon fill="#191970" stroke="#191970" points="198.6454,-302.5908 192.8718,-293.7073 191.8455,-304.2523 198.6454,-302.5908"/>
</g>
<!-- Node222397 -->
<g id="node8" class="node">
<title>Node222397</title>
<g id="a_node8"><a xlink:href="quickjs_8c.html#a1a4c02a29525d5cb2085dd8bca3af350" target="_top" xlink:title="JS_Call">
<polygon fill="none" stroke="#ff0000" points="316.5,-366.5 316.5,-385.5 366.5,-385.5 366.5,-366.5 316.5,-366.5"/>
<text text-anchor="middle" x="341.5" y="-373.5" font-family="Helvetica,sans-Serif" font-size="10.00" fill="#000000">JS_Call</text>
</a>
</g>
</g>
<!-- Node222377&#45;&gt;Node222397 -->
<g id="edge7" class="edge">
<title>Node222377&#45;&gt;Node222397</title>
<path fill="none" stroke="#191970" d="M223.9756,-298.6777C258.3925,-317.7532 309.9062,-349.8516 331.4572,-366.3007"/>
<polygon fill="#191970" stroke="#191970" points="225.2179,-295.3692 214.7608,-293.6666 221.8737,-301.5188 225.2179,-295.3692"/>
</g>
<!-- Node222483 -->
<g id="node29" class="node">
<title>Node222483</title>
<g id="a_node29"><a xlink:href="quickjs_8c.html#ad35594576a14c10812efaf958c99af8a" target="_top" xlink:title="JS_CallConstructorInternal">
<polygon fill="none" stroke="#ff0000" points="270,-274.5 270,-293.5 413,-293.5 413,-274.5 270,-274.5"/>
<text text-anchor="middle" x="341.5" y="-281.5" font-family="Helvetica,sans-Serif" font-size="10.00" fill="#000000">JS_CallConstructorInternal</text>
</a>
</g>
</g>
<!-- Node222377&#45;&gt;Node222483 -->
<g id="edge34" class="edge">
<title>Node222377&#45;&gt;Node222483</title>
<path fill="none" stroke="#191970" d="M244.3716,-277.5024C252.6056,-277.3053 261.2144,-277.2236 269.7589,-277.2574"/>
<polygon fill="#191970" stroke="#191970" points="244.0639,-274.0101 234.1755,-277.814 244.2777,-281.0069 244.0639,-274.0101"/>
</g>
<!-- Node222497 -->
<g id="node30" class="node">
<title>Node222497</title>
<g id="a_node30"><a xlink:href="quickjs_8c.html#a75f6ee5e4235a7dc99889f3d2eb2c147" target="_top" xlink:title="JS_CallFree">
<polygon fill="none" stroke="#ff0000" points="306.5,-91.5 306.5,-110.5 376.5,-110.5 376.5,-91.5 306.5,-91.5"/>
<text text-anchor="middle" x="341.5" y="-98.5" font-family="Helvetica,sans-Serif" font-size="10.00" fill="#000000">JS_CallFree</text>
</a>
</g>
</g>
<!-- Node222377&#45;&gt;Node222497 -->
<g id="edge36" class="edge">
<title>Node222377&#45;&gt;Node222497</title>
<path fill="none" stroke="#191970" d="M193.8364,-264.3434C201.631,-228.9929 223.9681,-156.0078 270,-116 280.1793,-107.1528 293.7419,-101.5398 306.3174,-98.5767"/>
<polygon fill="#191970" stroke="#191970" points="190.3526,-263.9142 191.8051,-274.4089 197.2142,-265.299 190.3526,-263.9142"/>
</g>
<!-- Node222379 -->
<g id="node4" class="node">
<title>Node222379</title>
<g id="a_node4"><a xlink:href="quickjs_8c.html#ac90552b1f1659acb3dae9a4c62479a30" target="_top" xlink:title="js_generator_function_call">
<polygon fill="none" stroke="#ff0000" points="449.5,-985.5 449.5,-1004.5 594.5,-1004.5 594.5,-985.5 449.5,-985.5"/>
<text text-anchor="middle" x="522" y="-992.5" font-family="Helvetica,sans-Serif" font-size="10.00" fill="#000000">js_generator_function_call</text>
</a>
</g>
</g>
<!-- Node222378&#45;&gt;Node222379 -->
<g id="edge3" class="edge">
<title>Node222378&#45;&gt;Node222379</title>
<path fill="none" stroke="#191970" d="M360.5497,-918.2005C381.1194,-934.9232 415.4625,-960.6696 449,-976 457.2182,-979.7566 466.3096,-982.8685 475.2063,-985.4103"/>
<polygon fill="#191970" stroke="#191970" points="362.5567,-915.3185 352.6199,-911.6428 358.0957,-920.7129 362.5567,-915.3185"/>
</g>
<!-- Node222388 -->
<g id="node5" class="node">
<title>Node222388</title>
<g id="a_node5"><a xlink:href="quickjs_8c.html#a1bf6b62983e8fff99c0a5d5a9f486115" target="_top" xlink:title="js_async_function_resume">
<polygon fill="none" stroke="#ff0000" points="449,-848.5 449,-867.5 595,-867.5 595,-848.5 449,-848.5"/>
<text text-anchor="middle" x="522" y="-855.5" font-family="Helvetica,sans-Serif" font-size="10.00" fill="#000000">js_async_function_resume</text>
</a>
</g>
</g>
<!-- Node222378&#45;&gt;Node222388 -->
<g id="edge4" class="edge">
<title>Node222378&#45;&gt;Node222388</title>
<path fill="none" stroke="#191970" d="M390.6001,-890.031C419.613,-882.9586 455.8451,-874.1264 482.9106,-867.5287"/>
<polygon fill="#191970" stroke="#191970" points="389.5524,-886.6838 380.6658,-892.4527 391.2103,-893.4847 389.5524,-886.6838"/>
</g>
<!-- Node222395 -->
<g id="node6" class="node">
<title>Node222395</title>
<g id="a_node6"><a xlink:href="quickjs_8c.html#a89b019c704a2d2914bc30b30a72040b3" target="_top" xlink:title="js_async_generator\l_resume_next">
<polygon fill="none" stroke="#000000" points="466.5,-936 466.5,-966 577.5,-966 577.5,-936 466.5,-936"/>
<text text-anchor="start" x="474.5" y="-954" font-family="Helvetica,sans-Serif" font-size="10.00" fill="#000000">js_async_generator</text>
<text text-anchor="middle" x="522" y="-943" font-family="Helvetica,sans-Serif" font-size="10.00" fill="#000000">_resume_next</text>
</a>
</g>
</g>
<!-- Node222378&#45;&gt;Node222395 -->
<g id="edge5" class="edge">
<title>Node222378&#45;&gt;Node222395</title>
<path fill="none" stroke="#191970" d="M386.4024,-914.1896C410.6825,-920.7808 440.8788,-928.9782 466.6087,-935.963"/>
<polygon fill="#191970" stroke="#191970" points="387.2984,-910.8062 376.7307,-911.564 385.4645,-917.5617 387.2984,-910.8062"/>
</g>
<!-- Node222396 -->
<g id="node7" class="node">
<title>Node222396</title>
<g id="a_node7"><a xlink:href="quickjs_8c.html#ae19867da709929c072f05e90301835a4" target="_top" xlink:title="js_async_generator\l_function_call">
<polygon fill="none" stroke="#ff0000" points="466.5,-887 466.5,-917 577.5,-917 577.5,-887 466.5,-887"/>
<text text-anchor="start" x="474.5" y="-905" font-family="Helvetica,sans-Serif" font-size="10.00" fill="#000000">js_async_generator</text>
<text text-anchor="middle" x="522" y="-894" font-family="Helvetica,sans-Serif" font-size="10.00" fill="#000000">_function_call</text>
</a>
</g>
</g>
<!-- Node222378&#45;&gt;Node222396 -->
<g id="edge6" class="edge">
<title>Node222378&#45;&gt;Node222396</title>
<path fill="none" stroke="#191970" d="M408.2282,-902C427.2941,-902 447.8655,-902 466.2038,-902"/>
<polygon fill="#191970" stroke="#191970" points="408.1161,-898.5001 398.1161,-902 408.1161,-905.5001 408.1161,-898.5001"/>
</g>
<!-- Node222397&#45;&gt;Node222377 -->
<g id="edge14" class="edge">
<title>Node222397&#45;&gt;Node222377</title>
<path fill="none" stroke="#191970" d="M308.3158,-361.4837C273.8269,-342.3885 221.9381,-310.0599 200.4075,-293.5959"/>
<polygon fill="#191970" stroke="#191970" points="307.0842,-364.7977 317.5423,-366.4945 310.425,-358.6463 307.0842,-364.7977"/>
</g>
<!-- Node222397&#45;&gt;Node222388 -->
<g id="edge15" class="edge">
<title>Node222397&#45;&gt;Node222388</title>
<path fill="none" stroke="#191970" d="M343.3976,-395.7978C351.4513,-475.748 385.3462,-773.6375 449,-839 452.7461,-842.8466 457.1647,-845.9485 461.9443,-848.4454"/>
<polygon fill="#191970" stroke="#191970" points="346.8602,-395.2454 342.3964,-385.6368 339.894,-395.9319 346.8602,-395.2454"/>
</g>
<!-- Node222398 -->
<g id="node9" class="node">
<title>Node222398</title>
<g id="a_node9"><a xlink:href="structqjs_1_1js__traits_3_01std_1_1function_3_01R_07Args_8_8_8_08_4_01_4.html#ac449e51d3fe10c6c115596fa6ec278ee" target="_top" xlink:title="qjs::js_traits\&lt; std\l::function\&lt; R(Args...)\l\&gt; \&gt;::unwrap">
<polygon fill="none" stroke="#000000" points="462.5,-600.5 462.5,-641.5 581.5,-641.5 581.5,-600.5 462.5,-600.5"/>
<text text-anchor="start" x="470.5" y="-629.5" font-family="Helvetica,sans-Serif" font-size="10.00" fill="#000000">qjs::js_traits&lt; std</text>
<text text-anchor="start" x="470.5" y="-618.5" font-family="Helvetica,sans-Serif" font-size="10.00" fill="#000000">::function&lt; R(Args...)</text>
<text text-anchor="middle" x="522" y="-607.5" font-family="Helvetica,sans-Serif" font-size="10.00" fill="#000000">&gt; &gt;::unwrap</text>
</a>
</g>
</g>
<!-- Node222397&#45;&gt;Node222398 -->
<g id="edge8" class="edge">
<title>Node222397&#45;&gt;Node222398</title>
<path fill="none" stroke="#191970" d="M346.2543,-395.5362C357.3042,-437.0434 388.5012,-534.8051 449,-591 453.0157,-594.7301 457.5588,-598.0269 462.3663,-600.9348"/>
<polygon fill="#191970" stroke="#191970" points="349.5852,-394.4342 343.7161,-385.6136 342.8036,-396.169 349.5852,-394.4342"/>
</g>
<!-- Node222399 -->
<g id="node10" class="node">
<title>Node222399</title>
<g id="a_node10"><a xlink:href="quickjs-libc_8c.html#abb1cbe3fdf905e81f603a3a0bfce475a" target="_top" xlink:title="call_handler">
<polygon fill="none" stroke="#000000" points="484,-562.5 484,-581.5 560,-581.5 560,-562.5 484,-562.5"/>
<text text-anchor="middle" x="522" y="-569.5" font-family="Helvetica,sans-Serif" font-size="10.00" fill="#000000">call_handler</text>
</a>
</g>
</g>
<!-- Node222397&#45;&gt;Node222399 -->
<g id="edge9" class="edge">
<title>Node222397&#45;&gt;Node222399</title>
<path fill="none" stroke="#191970" d="M347.7228,-395.3823C360.5184,-432.046 393.3492,-511.5821 449,-553 459.0854,-560.506 471.8724,-565.0544 483.9165,-567.8078"/>
<polygon fill="#191970" stroke="#191970" points="351.0236,-394.2171 344.5166,-385.856 344.3893,-396.4501 351.0236,-394.2171"/>
</g>
<!-- Node222400 -->
<g id="node11" class="node">
<title>Node222400</title>
<g id="a_node11"><a xlink:href="quickjs-libc_8c.html#a9fa4c190ba56314c7ed9b00bbc7ad0f9" target="_top" xlink:title="handle_posted_message">
<polygon fill="none" stroke="#000000" points="453.5,-524.5 453.5,-543.5 590.5,-543.5 590.5,-524.5 453.5,-524.5"/>
<text text-anchor="middle" x="522" y="-531.5" font-family="Helvetica,sans-Serif" font-size="10.00" fill="#000000">handle_posted_message</text>
</a>
</g>
</g>
<!-- Node222397&#45;&gt;Node222400 -->
<g id="edge10" class="edge">
<title>Node222397&#45;&gt;Node222400</title>
<path fill="none" stroke="#191970" d="M350.6018,-394.4932C366.3647,-424.5396 401.6539,-483.7388 449,-515 454.9014,-518.8965 461.5613,-521.9946 468.3971,-524.4577"/>
<polygon fill="#191970" stroke="#191970" points="353.6778,-392.8207 346.0155,-385.5036 347.4424,-396.0019 353.6778,-392.8207"/>
</g>
<!-- Node222401 -->
<g id="node12" class="node">
<title>Node222401</title>
<g id="a_node12"><a xlink:href="quickjs_8c.html#aa049793cc8648d35fe81876a2543ca4e" target="_top" xlink:title="JS_GetIterator2">
<polygon fill="none" stroke="#ff0000" points="477,-486.5 477,-505.5 567,-505.5 567,-486.5 477,-486.5"/>
<text text-anchor="middle" x="522" y="-493.5" font-family="Helvetica,sans-Serif" font-size="10.00" fill="#000000">JS_GetIterator2</text>
</a>
</g>
</g>
<!-- Node222397&#45;&gt;Node222401 -->
<g id="edge11" class="edge">
<title>Node222397&#45;&gt;Node222401</title>
<path fill="none" stroke="#191970" d="M355.2947,-393.5536C374.0678,-416.2383 409.8381,-455.38 449,-477 457.4839,-481.6837 467.1628,-485.2472 476.6368,-487.9468"/>
<polygon fill="#191970" stroke="#191970" points="357.9753,-391.3023 348.9604,-385.7361 352.5366,-395.7091 357.9753,-391.3023"/>
</g>
<!-- Node222433 -->
<g id="node13" class="node">
<title>Node222433</title>
<g id="a_node13"><a xlink:href="quickjs_8c.html#ad6303fbd3add4afa0cb64b0aa6d431ce" target="_top" xlink:title="JS_IteratorNext2">
<polygon fill="none" stroke="#ff0000" points="474,-448.5 474,-467.5 570,-467.5 570,-448.5 474,-448.5"/>
<text text-anchor="middle" x="522" y="-455.5" font-family="Helvetica,sans-Serif" font-size="10.00" fill="#000000">JS_IteratorNext2</text>
</a>
</g>
</g>
<!-- Node222397&#45;&gt;Node222433 -->
<g id="edge12" class="edge">
<title>Node222397&#45;&gt;Node222433</title>
<path fill="none" stroke="#191970" d="M363.6509,-391.4423C384.7521,-405.5445 417.8333,-426.1027 449,-439 457.9545,-442.7055 467.8319,-445.8564 477.3503,-448.4636"/>
<polygon fill="#191970" stroke="#191970" points="365.3556,-388.3694 355.1152,-385.6516 361.4257,-394.1622 365.3556,-388.3694"/>
</g>
<!-- Node222437 -->
<g id="node14" class="node">
<title>Node222437</title>
<g id="a_node14"><a xlink:href="quickjs_8c.html#afd4ef2d701fa0702f321925b61c57bbf" target="_top" xlink:title="js_call_bound_function">
<polygon fill="none" stroke="#ff0000" points="458,-410.5 458,-429.5 586,-429.5 586,-410.5 458,-410.5"/>
<text text-anchor="middle" x="522" y="-417.5" font-family="Helvetica,sans-Serif" font-size="10.00" fill="#000000">js_call_bound_function</text>
</a>
</g>
</g>
<!-- Node222397&#45;&gt;Node222437 -->
<g id="edge13" class="edge">
<title>Node222397&#45;&gt;Node222437</title>
<path fill="none" stroke="#191970" d="M376.3805,-384.5027C406.8951,-391.9412 451.1733,-402.7348 482.8828,-410.4645"/>
<polygon fill="#191970" stroke="#191970" points="377.1422,-381.086 366.5978,-382.118 375.4843,-387.8868 377.1422,-381.086"/>
</g>
<!-- Node222438 -->
<g id="node15" class="node">
<title>Node222438</title>
<g id="a_node15"><a xlink:href="quickjs_8c.html#a3e852026d167fa03c673f86697dd3e67" target="_top" xlink:title="js_async_generator\l_resolve_or_reject">
<polygon fill="none" stroke="#ff0000" points="466.5,-361 466.5,-391 577.5,-391 577.5,-361 466.5,-361"/>
<text text-anchor="start" x="474.5" y="-379" font-family="Helvetica,sans-Serif" font-size="10.00" fill="#000000">js_async_generator</text>
<text text-anchor="middle" x="522" y="-368" font-family="Helvetica,sans-Serif" font-size="10.00" fill="#000000">_resolve_or_reject</text>
</a>
</g>
</g>
<!-- Node222397&#45;&gt;Node222438 -->
<g id="edge16" class="edge">
<title>Node222397&#45;&gt;Node222438</title>
<path fill="none" stroke="#191970" d="M376.886,-376C402.334,-376 437.1608,-376 466.3173,-376"/>
<polygon fill="#191970" stroke="#191970" points="376.5978,-372.5001 366.5978,-376 376.5977,-379.5001 376.5978,-372.5001"/>
</g>
<!-- Node222441 -->
<g id="node16" class="node">
<title>Node222441</title>
<g id="a_node16"><a xlink:href="quickjs_8c.html#a2355fabf91f59212ea65baba1b0b7c1b" target="_top" xlink:title="js_async_generator_next">
<polygon fill="none" stroke="#000000" points="453,-322.5 453,-341.5 591,-341.5 591,-322.5 453,-322.5"/>
<text text-anchor="middle" x="522" y="-329.5" font-family="Helvetica,sans-Serif" font-size="10.00" fill="#000000">js_async_generator_next</text>
</a>
</g>
</g>
<!-- Node222397&#45;&gt;Node222441 -->
<g id="edge17" class="edge">
<title>Node222397&#45;&gt;Node222441</title>
<path fill="none" stroke="#191970" d="M376.3805,-367.4973C406.8951,-360.0588 451.1733,-349.2652 482.8828,-341.5355"/>
<polygon fill="#191970" stroke="#191970" points="375.4843,-364.1132 366.5978,-369.882 377.1422,-370.914 375.4843,-364.1132"/>
</g>
<!-- Node222442 -->
<g id="node17" class="node">
<title>Node222442</title>
<g id="a_node17"><a xlink:href="quickjs_8c.html#adc0280beaa04d2b8fcaf05a82ab26c74" target="_top" xlink:title="js_link_module">
<polygon fill="none" stroke="#ff0000" points="477,-266.5 477,-285.5 567,-285.5 567,-266.5 477,-266.5"/>
<text text-anchor="middle" x="522" y="-273.5" font-family="Helvetica,sans-Serif" font-size="10.00" fill="#000000">js_link_module</text>
</a>
</g>
</g>
<!-- Node222397&#45;&gt;Node222442 -->
<g id="edge18" class="edge">
<title>Node222397&#45;&gt;Node222442</title>
<path fill="none" stroke="#191970" d="M365.9134,-361.1192C387.545,-348.0721 420.0908,-328.7783 449,-313 466.8348,-303.266 487.5227,-292.8617 502.3114,-285.5732"/>
<polygon fill="#191970" stroke="#191970" points="364.0963,-358.1277 357.3533,-366.2998 367.7207,-364.1164 364.0963,-358.1277"/>
</g>
<!-- Node222446 -->
<g id="node18" class="node">
<title>Node222446</title>
<g id="a_node18"><a xlink:href="quickjs_8c.html#a6357b7fdae71c70c140e78e6c20cb5c2" target="_top" xlink:title="js_dynamic_import_job">
<polygon fill="none" stroke="#ff0000" points="457,-228.5 457,-247.5 587,-247.5 587,-228.5 457,-228.5"/>
<text text-anchor="middle" x="522" y="-235.5" font-family="Helvetica,sans-Serif" font-size="10.00" fill="#000000">js_dynamic_import_job</text>
</a>
</g>
</g>
<!-- Node222397&#45;&gt;Node222446 -->
<g id="edge20" class="edge">
<title>Node222397&#45;&gt;Node222446</title>
<path fill="none" stroke="#191970" d="M359.0484,-359.1657C373.8759,-344.6905 395.4412,-323.0388 413,-303 430.1092,-283.4743 427.2943,-271.2422 449,-257 454.9126,-253.1204 461.5789,-250.0322 468.4179,-247.574"/>
<polygon fill="#191970" stroke="#191970" points="356.3161,-356.9398 351.5724,-366.4133 361.1885,-361.9657 356.3161,-356.9398"/>
</g>
<!-- Node222450 -->
<g id="node19" class="node">
<title>Node222450</title>
<g id="a_node19"><a xlink:href="quickjs_8c.html#a8d4b24969540aff427939eeda47f451d" target="_top" xlink:title="js_function_apply">
<polygon fill="none" stroke="#ff0000" points="471,-76.5 471,-95.5 573,-95.5 573,-76.5 471,-76.5"/>
<text text-anchor="middle" x="522" y="-83.5" font-family="Helvetica,sans-Serif" font-size="10.00" fill="#000000">js_function_apply</text>
</a>
</g>
</g>
<!-- Node222397&#45;&gt;Node222450 -->
<g id="edge21" class="edge">
<title>Node222397&#45;&gt;Node222450</title>
<path fill="none" stroke="#191970" d="M363.0093,-360.0189C379.3778,-346.6445 401.0605,-326.078 413,-303 454.0992,-223.5591 388.1626,-170.5653 449,-105 454.879,-98.6641 462.5788,-94.3323 470.7697,-91.3923"/>
<polygon fill="#191970" stroke="#191970" points="360.693,-357.3884 355.0138,-366.3325 365.0311,-362.8821 360.693,-357.3884"/>
</g>
<!-- Node222453 -->
<g id="node20" class="node">
<title>Node222453</title>
<g id="a_node20"><a xlink:href="quickjs_8c.html#a677ad630a103e1f3d5129e0549112b50" target="_top" xlink:title="js_function_call">
<polygon fill="none" stroke="#000000" points="476,-190.5 476,-209.5 568,-209.5 568,-190.5 476,-190.5"/>
<text text-anchor="middle" x="522" y="-197.5" font-family="Helvetica,sans-Serif" font-size="10.00" fill="#000000">js_function_call</text>
</a>
</g>
</g>
<!-- Node222397&#45;&gt;Node222453 -->
<g id="edge23" class="edge">
<title>Node222397&#45;&gt;Node222453</title>
<path fill="none" stroke="#191970" d="M361.2495,-359.5376C376.8789,-345.7094 398.4275,-324.7665 413,-303 435.5964,-269.2483 418.2043,-245.484 449,-219 456.5461,-212.5104 466.0456,-208.1994 475.6735,-205.3455"/>
<polygon fill="#191970" stroke="#191970" points="358.5326,-357.2598 353.2573,-366.448 363.111,-362.5549 358.5326,-357.2598"/>
</g>
<!-- Node222404 -->
<g id="node21" class="node">
<title>Node222404</title>
<g id="a_node21"><a xlink:href="quickjs_8c.html#a5e32da9a43002cb96dcbd62a1a340144" target="_top" xlink:title="js_array_from">
<polygon fill="none" stroke="#000000" points="480,-152.5 480,-171.5 564,-171.5 564,-152.5 480,-152.5"/>
<text text-anchor="middle" x="522" y="-159.5" font-family="Helvetica,sans-Serif" font-size="10.00" fill="#000000">js_array_from</text>
</a>
</g>
</g>
<!-- Node222397&#45;&gt;Node222404 -->
<g id="edge24" class="edge">
<title>Node222397&#45;&gt;Node222404</title>
<path fill="none" stroke="#191970" d="M362.062,-359.886C378.0852,-346.3097 399.766,-325.5362 413,-303 441.6273,-254.2504 408.3841,-220.3242 449,-181 457.2795,-172.9838 468.4929,-168.2336 479.6447,-165.4513"/>
<polygon fill="#191970" stroke="#191970" points="359.7673,-357.2417 354.2733,-366.3007 364.2175,-362.645 359.7673,-357.2417"/>
</g>
<!-- Node222430 -->
<g id="node22" class="node">
<title>Node222430</title>
<g id="a_node22"><a xlink:href="quickjs_8c.html#aa0bbf08a7e91459c68a312fba7016c6d" target="_top" xlink:title="js_array_every">
<polygon fill="none" stroke="#000000" points="477.5,-114.5 477.5,-133.5 566.5,-133.5 566.5,-114.5 477.5,-114.5"/>
<text text-anchor="middle" x="522" y="-121.5" font-family="Helvetica,sans-Serif" font-size="10.00" fill="#000000">js_array_every</text>
</a>
</g>
</g>
<!-- Node222397&#45;&gt;Node222430 -->
<g id="edge25" class="edge">
<title>Node222397&#45;&gt;Node222430</title>
<path fill="none" stroke="#191970" d="M362.4656,-360.1142C378.719,-346.668 400.5125,-325.9582 413,-303 447.8274,-238.97 398.3253,-195.3914 449,-143 456.5569,-135.1871 466.8872,-130.4432 477.3982,-127.5994"/>
<polygon fill="#191970" stroke="#191970" points="360.165,-357.4726 354.5497,-366.457 364.5421,-362.9353 360.165,-357.4726"/>
</g>
<!-- Node222454 -->
<g id="node23" class="node">
<title>Node222454</title>
<g id="a_node23"><a xlink:href="quickjs_8c.html#a36c1692489542a86dd79a7d39ab8ff95" target="_top" xlink:title="js_array_reduce">
<polygon fill="none" stroke="#000000" points="475,-810.5 475,-829.5 569,-829.5 569,-810.5 475,-810.5"/>
<text text-anchor="middle" x="522" y="-817.5" font-family="Helvetica,sans-Serif" font-size="10.00" fill="#000000">js_array_reduce</text>
</a>
</g>
</g>
<!-- Node222397&#45;&gt;Node222454 -->
<g id="edge26" class="edge">
<title>Node222397&#45;&gt;Node222454</title>
<path fill="none" stroke="#191970" d="M343.8151,-395.6127C353.1103,-471.1082 390.0804,-741.6736 449,-801 456.0135,-808.0619 465.2965,-812.6053 474.8835,-815.5033"/>
<polygon fill="#191970" stroke="#191970" points="347.2776,-395.0911 342.6031,-385.5832 340.3281,-395.9309 347.2776,-395.0911"/>
</g>
<!-- Node222455 -->
<g id="node24" class="node">
<title>Node222455</title>
<g id="a_node24"><a xlink:href="quickjs_8c.html#a9dd41b086da4e13b3487cc9c6e2af2b8" target="_top" xlink:title="js_array_find">
<polygon fill="none" stroke="#000000" points="482.5,-772.5 482.5,-791.5 561.5,-791.5 561.5,-772.5 482.5,-772.5"/>
<text text-anchor="middle" x="522" y="-779.5" font-family="Helvetica,sans-Serif" font-size="10.00" fill="#000000">js_array_find</text>
</a>
</g>
</g>
<!-- Node222397&#45;&gt;Node222455 -->
<g id="edge27" class="edge">
<title>Node222397&#45;&gt;Node222455</title>
<path fill="none" stroke="#191970" d="M344.3438,-395.6772C355.0166,-466.8828 394.8563,-709.7329 449,-763 457.8687,-771.7251 470.208,-776.591 482.2208,-779.2605"/>
<polygon fill="#191970" stroke="#191970" points="347.8055,-395.1603 342.8836,-385.7782 340.8805,-396.1819 347.8055,-395.1603"/>
</g>
<!-- Node222456 -->
<g id="node25" class="node">
<title>Node222456</title>
<g id="a_node25"><a xlink:href="quickjs_8c.html#ad90c33b4aae1181151bda4a98ac2ef23" target="_top" xlink:title="JS_FlattenIntoArray">
<polygon fill="none" stroke="#ff0000" points="467,-716.5 467,-735.5 577,-735.5 577,-716.5 467,-716.5"/>
<text text-anchor="middle" x="522" y="-723.5" font-family="Helvetica,sans-Serif" font-size="10.00" fill="#000000">JS_FlattenIntoArray</text>
</a>
</g>
</g>
<!-- Node222397&#45;&gt;Node222456 -->
<g id="edge28" class="edge">
<title>Node222397&#45;&gt;Node222456</title>
<path fill="none" stroke="#191970" d="M345.3205,-395.6689C358.1914,-459.9941 401.8135,-662.5365 449,-707 454.1468,-711.8498 460.3704,-715.499 466.9875,-718.2383"/>
<polygon fill="#191970" stroke="#191970" points="348.7114,-394.7739 343.3406,-385.6413 341.844,-396.1299 348.7114,-394.7739"/>
</g>
<!-- Node222458 -->
<g id="node26" class="node">
<title>Node222458</title>
<g id="a_node26"><a xlink:href="quickjs_8c.html#aed1bf9ce4b9e3a82388679dd6ec7635b" target="_top" xlink:title="js_string_replace">
<polygon fill="none" stroke="#000000" points="472.5,-38.5 472.5,-57.5 571.5,-57.5 571.5,-38.5 472.5,-38.5"/>
<text text-anchor="middle" x="522" y="-45.5" font-family="Helvetica,sans-Serif" font-size="10.00" fill="#000000">js_string_replace</text>
</a>
</g>
</g>
<!-- Node222397&#45;&gt;Node222458 -->
<g id="edge30" class="edge">
<title>Node222397&#45;&gt;Node222458</title>
<path fill="none" stroke="#191970" d="M363.1904,-360.111C379.66,-346.788 401.3903,-326.2456 413,-303 460.4076,-208.0779 377.9458,-145.7971 449,-67 455.2267,-60.0948 463.6146,-55.5583 472.4861,-52.6079"/>
<polygon fill="#191970" stroke="#191970" points="360.868,-357.4838 355.1389,-366.3961 365.1753,-363.0017 360.868,-357.4838"/>
</g>
<!-- Node222459 -->
<g id="node27" class="node">
<title>Node222459</title>
<g id="a_node27"><a xlink:href="quickjs_8c.html#a624282391413d4c5a030adbd8b77aa80" target="_top" xlink:title="internalize_json_property">
<polygon fill="none" stroke="#ff0000" points="452,-660.5 452,-679.5 592,-679.5 592,-660.5 452,-660.5"/>
<text text-anchor="middle" x="522" y="-667.5" font-family="Helvetica,sans-Serif" font-size="10.00" fill="#000000">internalize_json_property</text>
</a>
</g>
</g>
<!-- Node222397&#45;&gt;Node222459 -->
<g id="edge31" class="edge">
<title>Node222397&#45;&gt;Node222459</title>
<path fill="none" stroke="#191970" d="M343.2063,-395.719C348.6605,-446.2003 370.2514,-581.037 449,-651 453.3077,-654.8271 458.2911,-657.8999 463.5907,-660.3646"/>
<polygon fill="#191970" stroke="#191970" points="346.6662,-395.1387 342.2061,-385.5284 339.6997,-395.8225 346.6662,-395.1387"/>
</g>
<!-- Node222461 -->
<g id="node28" class="node">
<title>Node222461</title>
<g id="a_node28"><a xlink:href="quickjs_8c.html#a0da6493b4bc0edb7ddddfab807241d0b" target="_top" xlink:title="js_json_check">
<polygon fill="none" stroke="#ff0000" points="480,-.5 480,-19.5 564,-19.5 564,-.5 480,-.5"/>
<text text-anchor="middle" x="522" y="-7.5" font-family="Helvetica,sans-Serif" font-size="10.00" fill="#000000">js_json_check</text>
</a>
</g>
</g>
<!-- Node222397&#45;&gt;Node222461 -->
<g id="edge33" class="edge">
<title>Node222397&#45;&gt;Node222461</title>
<path fill="none" stroke="#191970" d="M363.3231,-360.1764C379.8668,-346.89 401.6319,-326.3648 413,-303 466.737,-192.5547 367.6975,-121.0638 449,-29 456.8885,-20.0674 468.3929,-15.0845 479.9458,-12.372"/>
<polygon fill="#191970" stroke="#191970" points="360.9955,-357.5521 355.2306,-366.4413 365.2805,-363.0874 360.9955,-357.5521"/>
</g>
<!-- Node222442&#45;&gt;Node222442 -->
<g id="edge19" class="edge">
<title>Node222442&#45;&gt;Node222442</title>
<path fill="none" stroke="#191970" d="M488.267,-293.8913C488.761,-299.5406 500.0054,-304 522,-304 553.9922,-304 563.2399,-294.5653 549.7432,-285.7571"/>
<polygon fill="#191970" stroke="#191970" points="491.1456,-295.8848 494.2568,-285.7571 485.5089,-291.7341 491.1456,-295.8848"/>
</g>
<!-- Node222450&#45;&gt;Node222377 -->
<g id="edge22" class="edge">
<title>Node222450&#45;&gt;Node222377</title>
<path fill="none" stroke="#191970" d="M465.5818,-98.5395C459.8824,-100.4394 454.2615,-102.5861 449,-105 343.8156,-153.257 235.5659,-244.3449 201.4623,-274.2309"/>
<polygon fill="#191970" stroke="#191970" points="466.675,-101.8651 475.198,-95.5715 464.6105,-95.1764 466.675,-101.8651"/>
</g>
<!-- Node222456&#45;&gt;Node222456 -->
<g id="edge29" class="edge">
<title>Node222456&#45;&gt;Node222456</title>
<path fill="none" stroke="#191970" d="M488.267,-743.8913C488.761,-749.5406 500.0054,-754 522,-754 553.9922,-754 563.2399,-744.5653 549.7432,-735.7571"/>
<polygon fill="#191970" stroke="#191970" points="491.1456,-745.8848 494.2568,-735.7571 485.5089,-741.7341 491.1456,-745.8848"/>
</g>
<!-- Node222459&#45;&gt;Node222459 -->
<g id="edge32" class="edge">
<title>Node222459&#45;&gt;Node222459</title>
<path fill="none" stroke="#191970" d="M488.267,-687.8913C488.761,-693.5406 500.0054,-698 522,-698 553.9922,-698 563.2399,-688.5653 549.7432,-679.7571"/>
<polygon fill="#191970" stroke="#191970" points="491.1456,-689.8848 494.2568,-679.7571 485.5089,-685.7341 491.1456,-689.8848"/>
</g>
<!-- Node222483&#45;&gt;Node222377 -->
<g id="edge35" class="edge">
<title>Node222483&#45;&gt;Node222377</title>
<path fill="none" stroke="#191970" d="M259.5027,-290.7277C250.7876,-290.6679 242.1888,-290.4873 234.1755,-290.186"/>
<polygon fill="#191970" stroke="#191970" points="259.7538,-294.228 269.7589,-290.7426 259.764,-287.228 259.7538,-294.228"/>
</g>
<!-- Node222497&#45;&gt;Node222377 -->
<g id="edge37" class="edge">
<title>Node222497&#45;&gt;Node222377</title>
<path fill="none" stroke="#191970" d="M312.408,-113.4805C298.2832,-117.785 281.8493,-123.7014 270,-134 223.8781,-174.0861 201.5437,-247.2787 193.7908,-274.2224"/>
<polygon fill="#191970" stroke="#191970" points="313.588,-116.7815 322.1864,-110.5913 311.6045,-110.0684 313.588,-116.7815"/>
</g>
<!-- Node222497&#45;&gt;Node222458 -->
<g id="edge39" class="edge">
<title>Node222497&#45;&gt;Node222458</title>
<path fill="none" stroke="#191970" d="M380.1488,-88.2442C400.5491,-81.6463 426.0465,-73.6122 449,-67 460.1999,-63.7737 472.4355,-60.4942 483.633,-57.5885"/>
<polygon fill="#191970" stroke="#191970" points="379.0054,-84.9355 370.577,-91.3553 381.1692,-91.5927 379.0054,-84.9355"/>
</g>
<!-- Node222497&#45;&gt;Node222461 -->
<g id="edge38" class="edge">
<title>Node222497&#45;&gt;Node222461</title>
<path fill="none" stroke="#191970" d="M360.9604,-85.0025C381.6295,-68.7491 415.8344,-43.9058 449,-29 458.6754,-24.6515 469.5363,-21.1527 479.8639,-18.4011"/>
<polygon fill="#191970" stroke="#191970" points="358.5982,-82.4099 352.9734,-91.3884 362.9695,-87.8773 358.5982,-82.4099"/>
</g>
</g>
</svg>
        <g id="navigator" transform="translate(0 0)" fill="#404254">
                <rect fill="#f2f5e9" fill-opacity="0.5" stroke="#606060" stroke-width=".5" x="0" y="0" width="60" height="60"/>
                <use id="zoomplus" xlink:href="#zoomPlus" x="17" y="9" onmousedown="handleZoom(evt,'in')"/>
                <use id="zoomminus" xlink:href="#zoomMin" x="42" y="9" onmousedown="handleZoom(evt,'out')"/>
                <use id="reset" xlink:href="#resetDef" x="30" y="36" onmousedown="handleReset()"/>
                <g id="arrowUp" xlink:href="#dirArrow" transform="translate(30 24)" onmousedown="handlePan(0,-1)">
                  <use xlink:href="#rim" fill="#404040">
                        <set attributeName="fill" to="#808080" begin="arrowUp.mouseover" end="arrowUp.mouseout"/>
                  </use>
                  <path fill="none" stroke="white" stroke-width="1.5" d="M0,-3.0v7 M-2.5,-0.5L0,-3.0L2.5,-0.5"/>
                </g>
                <g id="arrowRight" xlink:href="#dirArrow" transform="rotate(90) translate(36 -43)" onmousedown="handlePan(1,0)">
                  <use xlink:href="#rim" fill="#404040">
                        <set attributeName="fill" to="#808080" begin="arrowRight.mouseover" end="arrowRight.mouseout"/>
                  </use>
                  <path fill="none" stroke="white" stroke-width="1.5" d="M0,-3.0v7 M-2.5,-0.5L0,-3.0L2.5,-0.5"/>
                </g>
                <g id="arrowDown" xlink:href="#dirArrow" transform="rotate(180) translate(-30 -48)" onmousedown="handlePan(0,1)">
                  <use xlink:href="#rim" fill="#404040">
                        <set attributeName="fill" to="#808080" begin="arrowDown.mouseover" end="arrowDown.mouseout"/>
                  </use>
                  <path fill="none" stroke="white" stroke-width="1.5" d="M0,-3.0v7 M-2.5,-0.5L0,-3.0L2.5,-0.5"/>
                </g>
                <g id="arrowLeft" xlink:href="#dirArrow" transform="rotate(270) translate(-36 17)" onmousedown="handlePan(-1,0)">
                  <use xlink:href="#rim" fill="#404040">
                        <set attributeName="fill" to="#808080" begin="arrowLeft.mouseover" end="arrowLeft.mouseout"/>
                  </use>
                  <path fill="none" stroke="white" stroke-width="1.5" d="M0,-3.0v7 M-2.5,-0.5L0,-3.0L2.5,-0.5"/>
                </g>
        </g>
        <svg viewBox="0 0 15 15" width="100%" height="30px" preserveAspectRatio="xMaxYMin meet">
         <g id="arrow_out" transform="scale(0.3 0.3)">
          <a xlink:href="quickjs_8c_a541a07ee8f5d72f230f97472ec9e42dd_icgraph_org.svg" target="_base">
           <rect id="button" ry="5" rx="5" y="6" x="6" height="38" width="38"
                fill="#f2f5e9" fill-opacity="0.5" stroke="#606060" stroke-width="1.0"/>
           <path id="arrow"
             d="M 11.500037,31.436501 C 11.940474,20.09759 22.043105,11.32322 32.158766,21.979434 L 37.068811,17.246167 C 37.068811,17.246167 37.088388,32 37.088388,32 L 22.160133,31.978069 C 22.160133,31.978069 26.997745,27.140456 26.997745,27.140456 C 18.528582,18.264221 13.291696,25.230495 11.500037,31.436501 z"
             style="fill:#404040;"/>
          </a>
         </g>
        </svg>
</svg>
