<?xml version="1.0" encoding="UTF-8" standalone="no"?>
<!DOCTYPE svg PUBLIC "-//W3C//DTD SVG 1.1//EN"
 "http://www.w3.org/Graphics/SVG/1.1/DTD/svg11.dtd">
<!-- Generated by graphviz version 2.40.1 (20161225.0304)
 -->
<!-- Title: JS_WriteArrayBuffer Pages: 1 -->
<!--zoomable 154 -->
<svg id="main" version="1.1" xmlns="http://www.w3.org/2000/svg" xmlns:xlink="http://www.w3.org/1999/xlink" xml:space="preserve" onload="init(evt)">
<style type="text/css"><![CDATA[
.edge:hover path { stroke: red; }
.edge:hover polygon { stroke: red; fill: red; }
]]></style>
<script type="text/javascript"><![CDATA[
var edges = document.getElementsByTagName('g');
if (edges && edges.length) {
  for (var i=0;i<edges.length;i++) {
    if (edges[i].id.substr(0,4)=='edge') {
      edges[i].setAttribute('class','edge');
    }
  }
}
]]></script>
        <defs>
                <circle id="rim" cx="0" cy="0" r="7"/>
                <circle id="rim2" cx="0" cy="0" r="3.5"/>
                <g id="zoomPlus">
                        <use xlink:href="#rim" fill="#404040">
                                <set attributeName="fill" to="#808080" begin="zoomplus.mouseover" end="zoomplus.mouseout"/>
                        </use>
                        <path d="M-4,0h8M0,-4v8" fill="none" stroke="white" stroke-width="1.5" pointer-events="none"/>
                </g>
                <g id="zoomMin">
                        <use xlink:href="#rim" fill="#404040">
                                <set attributeName="fill" to="#808080" begin="zoomminus.mouseover" end="zoomminus.mouseout"/>
                        </use>
                        <path d="M-4,0h8" fill="none" stroke="white" stroke-width="1.5" pointer-events="none"/>
                </g>
                <g id="dirArrow">
                        <path fill="none" stroke="white" stroke-width="1.5" d="M0,-3.0v7 M-2.5,-0.5L0,-3.0L2.5,-0.5"/>
                </g>
               <g id="resetDef">
                       <use xlink:href="#rim2" fill="#404040">
                               <set attributeName="fill" to="#808080" begin="reset.mouseover" end="reset.mouseout"/>
                       </use>
               </g>
        </defs>

<script type="text/javascript">
var viewWidth = 639;
var viewHeight = 154;
var sectionId = 'dynsection-1306';
</script>
<script xlink:href="svgpan.js"/>
<svg id="graph" class="graph">
<g id="viewport">
<title>JS_WriteArrayBuffer</title>
<!-- Node363337 -->
<g id="node1" class="node">
<title>Node363337</title>
<polygon fill="#bfbfbf" stroke="#000000" points="0,-69 0,-88 112,-88 112,-69 0,-69"/>
<text text-anchor="middle" x="56" y="-76" font-family="Helvetica,sans-Serif" font-size="10.00" fill="#000000">JS_WriteArrayBuffer</text>
</g>
<!-- Node363338 -->
<g id="node2" class="node">
<title>Node363338</title>
<g id="a_node2"><a xlink:href="quickjs_8c.html#a5c417bcd8453a3ab8f4ced37e8f86bf2" target="_top" xlink:title="bc_put_leb128">
<polygon fill="none" stroke="#000000" points="181,-88 181,-107 268,-107 268,-88 181,-88"/>
<text text-anchor="middle" x="224.5" y="-95" font-family="Helvetica,sans-Serif" font-size="10.00" fill="#000000">bc_put_leb128</text>
</a>
</g>
</g>
<!-- Node363337&#45;&gt;Node363338 -->
<g id="edge1" class="edge">
<title>Node363337&#45;&gt;Node363338</title>
<path fill="none" stroke="#191970" d="M112.1081,-84.8267C131.0099,-86.9581 152.0469,-89.3302 170.7616,-91.4405"/>
<polygon fill="#191970" stroke="#191970" points="170.5621,-94.9401 180.8914,-92.5827 171.3465,-87.9842 170.5621,-94.9401"/>
</g>
<!-- Node363341 -->
<g id="node5" class="node">
<title>Node363341</title>
<g id="a_node5"><a xlink:href="cutils_8h.html#ad1cfaae47347ae771136b5a9bbda49aa" target="_top" xlink:title="dbuf_put">
<polygon fill="none" stroke="#ff0000" points="572,-69 572,-88 631,-88 631,-69 572,-69"/>
<text text-anchor="middle" x="601.5" y="-76" font-family="Helvetica,sans-Serif" font-size="10.00" fill="#000000">dbuf_put</text>
</a>
</g>
</g>
<!-- Node363337&#45;&gt;Node363341 -->
<g id="edge7" class="edge">
<title>Node363337&#45;&gt;Node363341</title>
<path fill="none" stroke="#191970" d="M112.0688,-78.5C222.5253,-78.5 465.8517,-78.5 561.6372,-78.5"/>
<polygon fill="#191970" stroke="#191970" points="561.7726,-82.0001 571.7726,-78.5 561.7726,-75.0001 561.7726,-82.0001"/>
</g>
<!-- Node363343 -->
<g id="node6" class="node">
<title>Node363343</title>
<g id="a_node6"><a xlink:href="quickjs_8c.html#a1691ba44aef8ba12408b5a824d07600a" target="_top" xlink:title="bc_put_u8">
<polygon fill="none" stroke="#000000" points="353,-126 353,-145 419,-145 419,-126 353,-126"/>
<text text-anchor="middle" x="386" y="-133" font-family="Helvetica,sans-Serif" font-size="10.00" fill="#000000">bc_put_u8</text>
</a>
</g>
</g>
<!-- Node363337&#45;&gt;Node363343 -->
<g id="edge5" class="edge">
<title>Node363337&#45;&gt;Node363343</title>
<path fill="none" stroke="#191970" d="M74.4522,-88.1397C92.6285,-97.1437 121.4507,-110.1243 148,-116.5 214.6509,-132.5058 294.5034,-135.7614 342.6908,-136.0604"/>
<polygon fill="#191970" stroke="#191970" points="342.7613,-139.5605 352.7689,-136.0823 342.7766,-132.5605 342.7613,-139.5605"/>
</g>
<!-- Node363344 -->
<g id="node7" class="node">
<title>Node363344</title>
<g id="a_node7"><a xlink:href="quickjs_8c.html#a033dd3ebd29c4eb9f0baff1dd0fec0b1" target="_top" xlink:title="JS_ThrowTypeErrorDetached\lArrayBuffer">
<polygon fill="none" stroke="#000000" points="148,-.5 148,-30.5 301,-30.5 301,-.5 148,-.5"/>
<text text-anchor="start" x="156" y="-18.5" font-family="Helvetica,sans-Serif" font-size="10.00" fill="#000000">JS_ThrowTypeErrorDetached</text>
<text text-anchor="middle" x="224.5" y="-7.5" font-family="Helvetica,sans-Serif" font-size="10.00" fill="#000000">ArrayBuffer</text>
</a>
</g>
</g>
<!-- Node363337&#45;&gt;Node363344 -->
<g id="edge8" class="edge">
<title>Node363337&#45;&gt;Node363344</title>
<path fill="none" stroke="#191970" d="M81.5915,-68.9317C106.1815,-59.7378 144.0066,-45.5954 174.5663,-34.1696"/>
<polygon fill="#191970" stroke="#191970" points="176.066,-37.3456 184.207,-30.565 173.6145,-30.7888 176.066,-37.3456"/>
</g>
<!-- Node363339 -->
<g id="node3" class="node">
<title>Node363339</title>
<g id="a_node3"><a xlink:href="quickjs_8c.html#af9b9e3f8ca5a82349d1925fca4683c38" target="_top" xlink:title="dbuf_put_leb128">
<polygon fill="none" stroke="#000000" points="337,-88 337,-107 435,-107 435,-88 337,-88"/>
<text text-anchor="middle" x="386" y="-95" font-family="Helvetica,sans-Serif" font-size="10.00" fill="#000000">dbuf_put_leb128</text>
</a>
</g>
</g>
<!-- Node363338&#45;&gt;Node363339 -->
<g id="edge2" class="edge">
<title>Node363338&#45;&gt;Node363339</title>
<path fill="none" stroke="#191970" d="M268.2042,-97.5C286.1791,-97.5 307.2807,-97.5 326.6202,-97.5"/>
<polygon fill="#191970" stroke="#191970" points="326.8483,-101.0001 336.8483,-97.5 326.8482,-94.0001 326.8483,-101.0001"/>
</g>
<!-- Node363340 -->
<g id="node4" class="node">
<title>Node363340</title>
<g id="a_node4"><a xlink:href="cutils_8h.html#aeed81d4787ccdbd55baa9b5fd6717e88" target="_top" xlink:title="dbuf_putc">
<polygon fill="none" stroke="#000000" points="471,-88 471,-107 536,-107 536,-88 471,-88"/>
<text text-anchor="middle" x="503.5" y="-95" font-family="Helvetica,sans-Serif" font-size="10.00" fill="#000000">dbuf_putc</text>
</a>
</g>
</g>
<!-- Node363339&#45;&gt;Node363340 -->
<g id="edge3" class="edge">
<title>Node363339&#45;&gt;Node363340</title>
<path fill="none" stroke="#191970" d="M435.1498,-97.5C443.6395,-97.5 452.4041,-97.5 460.7084,-97.5"/>
<polygon fill="#191970" stroke="#191970" points="460.9258,-101.0001 470.9257,-97.5 460.9257,-94.0001 460.9258,-101.0001"/>
</g>
<!-- Node363340&#45;&gt;Node363341 -->
<g id="edge4" class="edge">
<title>Node363340&#45;&gt;Node363341</title>
<path fill="none" stroke="#191970" d="M536.1326,-91.1733C544.4568,-89.5594 553.493,-87.8075 562.1156,-86.1357"/>
<polygon fill="#191970" stroke="#191970" points="562.8295,-89.5626 571.9805,-84.2232 561.4971,-82.6906 562.8295,-89.5626"/>
</g>
<!-- Node363343&#45;&gt;Node363340 -->
<g id="edge6" class="edge">
<title>Node363343&#45;&gt;Node363340</title>
<path fill="none" stroke="#191970" d="M415.6502,-125.911C430.4009,-121.1406 448.4258,-115.3112 464.301,-110.1771"/>
<polygon fill="#191970" stroke="#191970" points="465.4215,-113.4933 473.8593,-107.0859 463.2675,-106.833 465.4215,-113.4933"/>
</g>
</g>
</svg>
        <g id="navigator" transform="translate(0 0)" fill="#404254">
                <rect fill="#f2f5e9" fill-opacity="0.5" stroke="#606060" stroke-width=".5" x="0" y="0" width="60" height="60"/>
                <use id="zoomplus" xlink:href="#zoomPlus" x="17" y="9" onmousedown="handleZoom(evt,'in')"/>
                <use id="zoomminus" xlink:href="#zoomMin" x="42" y="9" onmousedown="handleZoom(evt,'out')"/>
                <use id="reset" xlink:href="#resetDef" x="30" y="36" onmousedown="handleReset()"/>
                <g id="arrowUp" xlink:href="#dirArrow" transform="translate(30 24)" onmousedown="handlePan(0,-1)">
                  <use xlink:href="#rim" fill="#404040">
                        <set attributeName="fill" to="#808080" begin="arrowUp.mouseover" end="arrowUp.mouseout"/>
                  </use>
                  <path fill="none" stroke="white" stroke-width="1.5" d="M0,-3.0v7 M-2.5,-0.5L0,-3.0L2.5,-0.5"/>
                </g>
                <g id="arrowRight" xlink:href="#dirArrow" transform="rotate(90) translate(36 -43)" onmousedown="handlePan(1,0)">
                  <use xlink:href="#rim" fill="#404040">
                        <set attributeName="fill" to="#808080" begin="arrowRight.mouseover" end="arrowRight.mouseout"/>
                  </use>
                  <path fill="none" stroke="white" stroke-width="1.5" d="M0,-3.0v7 M-2.5,-0.5L0,-3.0L2.5,-0.5"/>
                </g>
                <g id="arrowDown" xlink:href="#dirArrow" transform="rotate(180) translate(-30 -48)" onmousedown="handlePan(0,1)">
                  <use xlink:href="#rim" fill="#404040">
                        <set attributeName="fill" to="#808080" begin="arrowDown.mouseover" end="arrowDown.mouseout"/>
                  </use>
                  <path fill="none" stroke="white" stroke-width="1.5" d="M0,-3.0v7 M-2.5,-0.5L0,-3.0L2.5,-0.5"/>
                </g>
                <g id="arrowLeft" xlink:href="#dirArrow" transform="rotate(270) translate(-36 17)" onmousedown="handlePan(-1,0)">
                  <use xlink:href="#rim" fill="#404040">
                        <set attributeName="fill" to="#808080" begin="arrowLeft.mouseover" end="arrowLeft.mouseout"/>
                  </use>
                  <path fill="none" stroke="white" stroke-width="1.5" d="M0,-3.0v7 M-2.5,-0.5L0,-3.0L2.5,-0.5"/>
                </g>
        </g>
        <svg viewBox="0 0 15 15" width="100%" height="30px" preserveAspectRatio="xMaxYMin meet">
         <g id="arrow_out" transform="scale(0.3 0.3)">
          <a xlink:href="quickjs_8c_aa1abbd3f9bc2fb523e3ff45f58fe42ab_cgraph_org.svg" target="_base">
           <rect id="button" ry="5" rx="5" y="6" x="6" height="38" width="38"
                fill="#f2f5e9" fill-opacity="0.5" stroke="#606060" stroke-width="1.0"/>
           <path id="arrow"
             d="M 11.500037,31.436501 C 11.940474,20.09759 22.043105,11.32322 32.158766,21.979434 L 37.068811,17.246167 C 37.068811,17.246167 37.088388,32 37.088388,32 L 22.160133,31.978069 C 22.160133,31.978069 26.997745,27.140456 26.997745,27.140456 C 18.528582,18.264221 13.291696,25.230495 11.500037,31.436501 z"
             style="fill:#404040;"/>
          </a>
         </g>
        </svg>
</svg>
