<?xml version="1.0" encoding="UTF-8" standalone="no"?>
<!DOCTYPE svg PUBLIC "-//W3C//DTD SVG 1.1//EN"
 "http://www.w3.org/Graphics/SVG/1.1/DTD/svg11.dtd">
<!-- Generated by graphviz version 2.40.1 (20161225.0304)
 -->
<!-- Title: add_module_variables Pages: 1 -->
<svg width="559pt" height="46pt"
 viewBox="0.00 0.00 559.00 46.00" xmlns="http://www.w3.org/2000/svg" xmlns:xlink="http://www.w3.org/1999/xlink">
<g id="graph0" class="graph" transform="scale(1 1) rotate(0) translate(4 42)">
<title>add_module_variables</title>
<!-- Node357110 -->
<g id="node1" class="node">
<title>Node357110</title>
<polygon fill="#bfbfbf" stroke="#000000" points="0,-.5 0,-19.5 127,-19.5 127,-.5 0,-.5"/>
<text text-anchor="middle" x="63.5" y="-7.5" font-family="Helvetica,sans-Serif" font-size="10.00" fill="#000000">add_module_variables</text>
</g>
<!-- Node357111 -->
<g id="node2" class="node">
<title>Node357111</title>
<g id="a_node2"><a xlink:href="quickjs_8c.html#a97fcc747d8b1c3644174745d2e2739be" target="_top" xlink:title="js_create_function">
<polygon fill="none" stroke="#000000" points="163,-.5 163,-19.5 269,-19.5 269,-.5 163,-.5"/>
<text text-anchor="middle" x="216" y="-7.5" font-family="Helvetica,sans-Serif" font-size="10.00" fill="#000000">js_create_function</text>
</a>
</g>
</g>
<!-- Node357110&#45;&gt;Node357111 -->
<g id="edge1" class="edge">
<title>Node357110&#45;&gt;Node357111</title>
<path fill="none" stroke="#191970" d="M137.5561,-10C146.0099,-10 154.4997,-10 162.6094,-10"/>
<polygon fill="#191970" stroke="#191970" points="137.2902,-6.5001 127.2901,-10 137.2901,-13.5001 137.2902,-6.5001"/>
</g>
<!-- Node357111&#45;&gt;Node357111 -->
<g id="edge2" class="edge">
<title>Node357111&#45;&gt;Node357111</title>
<path fill="none" stroke="#191970" d="M190.3305,-29.0292C191.7307,-34.128 200.2872,-38 216,-38 240.5273,-38 247.6173,-28.5653 237.2698,-19.7571"/>
<polygon fill="#191970" stroke="#191970" points="193.6052,-30.292 194.7302,-19.7571 187.2811,-27.2911 193.6052,-30.292"/>
</g>
<!-- Node357112 -->
<g id="node3" class="node">
<title>Node357112</title>
<g id="a_node3"><a xlink:href="quickjs_8c.html#a46a8a7e155cfd0af984f6725f060f0d6" target="_top" xlink:title="__JS_EvalInternal">
<polygon fill="none" stroke="#000000" points="305,-.5 305,-19.5 405,-19.5 405,-.5 305,-.5"/>
<text text-anchor="middle" x="355" y="-7.5" font-family="Helvetica,sans-Serif" font-size="10.00" fill="#000000">__JS_EvalInternal</text>
</a>
</g>
</g>
<!-- Node357111&#45;&gt;Node357112 -->
<g id="edge3" class="edge">
<title>Node357111&#45;&gt;Node357112</title>
<path fill="none" stroke="#191970" d="M279.5615,-10C288.0142,-10 296.585,-10 304.7687,-10"/>
<polygon fill="#191970" stroke="#191970" points="279.3435,-6.5001 269.3435,-10 279.3435,-13.5001 279.3435,-6.5001"/>
</g>
<!-- Node357113 -->
<g id="node4" class="node">
<title>Node357113</title>
<g id="a_node4"><a xlink:href="quickjs_8c.html#acbcccb7ec58fd4a024ea1d01e5d04561" target="_top" xlink:title="JS_AddIntrinsicEval">
<polygon fill="none" stroke="#ff0000" points="441,-.5 441,-19.5 551,-19.5 551,-.5 441,-.5"/>
<text text-anchor="middle" x="496" y="-7.5" font-family="Helvetica,sans-Serif" font-size="10.00" fill="#000000">JS_AddIntrinsicEval</text>
</a>
</g>
</g>
<!-- Node357112&#45;&gt;Node357113 -->
<g id="edge4" class="edge">
<title>Node357112&#45;&gt;Node357113</title>
<path fill="none" stroke="#191970" d="M415.2969,-10C423.7588,-10 432.421,-10 440.782,-10"/>
<polygon fill="#191970" stroke="#191970" points="415.1084,-6.5001 405.1083,-10 415.1083,-13.5001 415.1084,-6.5001"/>
</g>
</g>
</svg>
