<?xml version="1.0" encoding="UTF-8" standalone="no"?>
<!DOCTYPE svg PUBLIC "-//W3C//DTD SVG 1.1//EN"
 "http://www.w3.org/Graphics/SVG/1.1/DTD/svg11.dtd">
<!-- Generated by graphviz version 2.40.1 (20161225.0304)
 -->
<!-- Title: js_object_constructor Pages: 1 -->
<!--zoomable 28 -->
<svg id="main" version="1.1" xmlns="http://www.w3.org/2000/svg" xmlns:xlink="http://www.w3.org/1999/xlink" xml:space="preserve" onload="init(evt)">
<style type="text/css"><![CDATA[
.edge:hover path { stroke: red; }
.edge:hover polygon { stroke: red; fill: red; }
]]></style>
<script type="text/javascript"><![CDATA[
var edges = document.getElementsByTagName('g');
if (edges && edges.length) {
  for (var i=0;i<edges.length;i++) {
    if (edges[i].id.substr(0,4)=='edge') {
      edges[i].setAttribute('class','edge');
    }
  }
}
]]></script>
        <defs>
                <circle id="rim" cx="0" cy="0" r="7"/>
                <circle id="rim2" cx="0" cy="0" r="3.5"/>
                <g id="zoomPlus">
                        <use xlink:href="#rim" fill="#404040">
                                <set attributeName="fill" to="#808080" begin="zoomplus.mouseover" end="zoomplus.mouseout"/>
                        </use>
                        <path d="M-4,0h8M0,-4v8" fill="none" stroke="white" stroke-width="1.5" pointer-events="none"/>
                </g>
                <g id="zoomMin">
                        <use xlink:href="#rim" fill="#404040">
                                <set attributeName="fill" to="#808080" begin="zoomminus.mouseover" end="zoomminus.mouseout"/>
                        </use>
                        <path d="M-4,0h8" fill="none" stroke="white" stroke-width="1.5" pointer-events="none"/>
                </g>
                <g id="dirArrow">
                        <path fill="none" stroke="white" stroke-width="1.5" d="M0,-3.0v7 M-2.5,-0.5L0,-3.0L2.5,-0.5"/>
                </g>
               <g id="resetDef">
                       <use xlink:href="#rim2" fill="#404040">
                               <set attributeName="fill" to="#808080" begin="reset.mouseover" end="reset.mouseout"/>
                       </use>
               </g>
        </defs>

<script type="text/javascript">
var viewWidth = 595;
var viewHeight = 28;
var sectionId = 'dynsection-1414';
</script>
<script xlink:href="svgpan.js"/>
<svg id="graph" class="graph">
<g id="viewport">
<title>js_object_constructor</title>
<!-- Node378875 -->
<g id="node1" class="node">
<title>Node378875</title>
<polygon fill="#bfbfbf" stroke="#000000" points="0,-.5 0,-19.5 120,-19.5 120,-.5 0,-.5"/>
<text text-anchor="middle" x="60" y="-7.5" font-family="Helvetica,sans-Serif" font-size="10.00" fill="#000000">js_object_constructor</text>
</g>
<!-- Node378876 -->
<g id="node2" class="node">
<title>Node378876</title>
<g id="a_node2"><a xlink:href="quickjs_8c.html#a4c9489297c684663f30e517204a9ec14" target="_top" xlink:title="JS_AddIntrinsicBaseObjects">
<polygon fill="none" stroke="#000000" points="156,-.5 156,-19.5 305,-19.5 305,-.5 156,-.5"/>
<text text-anchor="middle" x="230.5" y="-7.5" font-family="Helvetica,sans-Serif" font-size="10.00" fill="#000000">JS_AddIntrinsicBaseObjects</text>
</a>
</g>
</g>
<!-- Node378875&#45;&gt;Node378876 -->
<g id="edge1" class="edge">
<title>Node378875&#45;&gt;Node378876</title>
<path fill="none" stroke="#191970" d="M130.3196,-10C138.7898,-10 147.4629,-10 155.9904,-10"/>
<polygon fill="#191970" stroke="#191970" points="130.112,-6.5001 120.1119,-10 130.1119,-13.5001 130.112,-6.5001"/>
</g>
<!-- Node378877 -->
<g id="node3" class="node">
<title>Node378877</title>
<g id="a_node3"><a xlink:href="quickjs_8c.html#ad8aedb643b8753b7a15f6cb2df61945e" target="_top" xlink:title="JS_NewContext">
<polygon fill="none" stroke="#000000" points="341,-.5 341,-19.5 432,-19.5 432,-.5 341,-.5"/>
<text text-anchor="middle" x="386.5" y="-7.5" font-family="Helvetica,sans-Serif" font-size="10.00" fill="#000000">JS_NewContext</text>
</a>
</g>
</g>
<!-- Node378876&#45;&gt;Node378877 -->
<g id="edge2" class="edge">
<title>Node378876&#45;&gt;Node378877</title>
<path fill="none" stroke="#191970" d="M315.4608,-10C324.0918,-10 332.6083,-10 340.583,-10"/>
<polygon fill="#191970" stroke="#191970" points="315.3016,-6.5001 305.3016,-10 315.3015,-13.5001 315.3016,-6.5001"/>
</g>
<!-- Node378878 -->
<g id="node4" class="node">
<title>Node378878</title>
<g id="a_node4"><a xlink:href="classqjs_1_1Context.html#a4392a23648acfc4bf6b445336efb5007" target="_top" xlink:title="qjs::Context::Context">
<polygon fill="none" stroke="#ff0000" points="468,-.5 468,-19.5 587,-19.5 587,-.5 468,-.5"/>
<text text-anchor="middle" x="527.5" y="-7.5" font-family="Helvetica,sans-Serif" font-size="10.00" fill="#000000">qjs::Context::Context</text>
</a>
</g>
</g>
<!-- Node378877&#45;&gt;Node378878 -->
<g id="edge3" class="edge">
<title>Node378877&#45;&gt;Node378878</title>
<path fill="none" stroke="#191970" d="M442.322,-10C450.7011,-10 459.3697,-10 467.8255,-10"/>
<polygon fill="#191970" stroke="#191970" points="442.2787,-6.5001 432.2787,-10 442.2786,-13.5001 442.2787,-6.5001"/>
</g>
</g>
</svg>
        <g id="navigator" transform="translate(0 0)" fill="#404254">
                <rect fill="#f2f5e9" fill-opacity="0.5" stroke="#606060" stroke-width=".5" x="0" y="0" width="60" height="60"/>
                <use id="zoomplus" xlink:href="#zoomPlus" x="17" y="9" onmousedown="handleZoom(evt,'in')"/>
                <use id="zoomminus" xlink:href="#zoomMin" x="42" y="9" onmousedown="handleZoom(evt,'out')"/>
                <use id="reset" xlink:href="#resetDef" x="30" y="36" onmousedown="handleReset()"/>
                <g id="arrowUp" xlink:href="#dirArrow" transform="translate(30 24)" onmousedown="handlePan(0,-1)">
                  <use xlink:href="#rim" fill="#404040">
                        <set attributeName="fill" to="#808080" begin="arrowUp.mouseover" end="arrowUp.mouseout"/>
                  </use>
                  <path fill="none" stroke="white" stroke-width="1.5" d="M0,-3.0v7 M-2.5,-0.5L0,-3.0L2.5,-0.5"/>
                </g>
                <g id="arrowRight" xlink:href="#dirArrow" transform="rotate(90) translate(36 -43)" onmousedown="handlePan(1,0)">
                  <use xlink:href="#rim" fill="#404040">
                        <set attributeName="fill" to="#808080" begin="arrowRight.mouseover" end="arrowRight.mouseout"/>
                  </use>
                  <path fill="none" stroke="white" stroke-width="1.5" d="M0,-3.0v7 M-2.5,-0.5L0,-3.0L2.5,-0.5"/>
                </g>
                <g id="arrowDown" xlink:href="#dirArrow" transform="rotate(180) translate(-30 -48)" onmousedown="handlePan(0,1)">
                  <use xlink:href="#rim" fill="#404040">
                        <set attributeName="fill" to="#808080" begin="arrowDown.mouseover" end="arrowDown.mouseout"/>
                  </use>
                  <path fill="none" stroke="white" stroke-width="1.5" d="M0,-3.0v7 M-2.5,-0.5L0,-3.0L2.5,-0.5"/>
                </g>
                <g id="arrowLeft" xlink:href="#dirArrow" transform="rotate(270) translate(-36 17)" onmousedown="handlePan(-1,0)">
                  <use xlink:href="#rim" fill="#404040">
                        <set attributeName="fill" to="#808080" begin="arrowLeft.mouseover" end="arrowLeft.mouseout"/>
                  </use>
                  <path fill="none" stroke="white" stroke-width="1.5" d="M0,-3.0v7 M-2.5,-0.5L0,-3.0L2.5,-0.5"/>
                </g>
        </g>
        <svg viewBox="0 0 15 15" width="100%" height="30px" preserveAspectRatio="xMaxYMin meet">
         <g id="arrow_out" transform="scale(0.3 0.3)">
          <a xlink:href="quickjs_8c_a4a08f36e18b6254d214a5105c2f2c2ea_icgraph_org.svg" target="_base">
           <rect id="button" ry="5" rx="5" y="6" x="6" height="38" width="38"
                fill="#f2f5e9" fill-opacity="0.5" stroke="#606060" stroke-width="1.0"/>
           <path id="arrow"
             d="M 11.500037,31.436501 C 11.940474,20.09759 22.043105,11.32322 32.158766,21.979434 L 37.068811,17.246167 C 37.068811,17.246167 37.088388,32 37.088388,32 L 22.160133,31.978069 C 22.160133,31.978069 26.997745,27.140456 26.997745,27.140456 C 18.528582,18.264221 13.291696,25.230495 11.500037,31.436501 z"
             style="fill:#404040;"/>
          </a>
         </g>
        </svg>
</svg>
