<?xml version="1.0" encoding="UTF-8" standalone="no"?>
<!DOCTYPE svg PUBLIC "-//W3C//DTD SVG 1.1//EN"
 "http://www.w3.org/Graphics/SVG/1.1/DTD/svg11.dtd">
<!-- Generated by graphviz version 2.40.1 (20161225.0304)
 -->
<!-- Title: js_new_string16 Pages: 1 -->
<!--zoomable 388 -->
<svg id="main" version="1.1" xmlns="http://www.w3.org/2000/svg" xmlns:xlink="http://www.w3.org/1999/xlink" xml:space="preserve" onload="init(evt)">
<style type="text/css"><![CDATA[
.edge:hover path { stroke: red; }
.edge:hover polygon { stroke: red; fill: red; }
]]></style>
<script type="text/javascript"><![CDATA[
var edges = document.getElementsByTagName('g');
if (edges && edges.length) {
  for (var i=0;i<edges.length;i++) {
    if (edges[i].id.substr(0,4)=='edge') {
      edges[i].setAttribute('class','edge');
    }
  }
}
]]></script>
        <defs>
                <circle id="rim" cx="0" cy="0" r="7"/>
                <circle id="rim2" cx="0" cy="0" r="3.5"/>
                <g id="zoomPlus">
                        <use xlink:href="#rim" fill="#404040">
                                <set attributeName="fill" to="#808080" begin="zoomplus.mouseover" end="zoomplus.mouseout"/>
                        </use>
                        <path d="M-4,0h8M0,-4v8" fill="none" stroke="white" stroke-width="1.5" pointer-events="none"/>
                </g>
                <g id="zoomMin">
                        <use xlink:href="#rim" fill="#404040">
                                <set attributeName="fill" to="#808080" begin="zoomminus.mouseover" end="zoomminus.mouseout"/>
                        </use>
                        <path d="M-4,0h8" fill="none" stroke="white" stroke-width="1.5" pointer-events="none"/>
                </g>
                <g id="dirArrow">
                        <path fill="none" stroke="white" stroke-width="1.5" d="M0,-3.0v7 M-2.5,-0.5L0,-3.0L2.5,-0.5"/>
                </g>
               <g id="resetDef">
                       <use xlink:href="#rim2" fill="#404040">
                               <set attributeName="fill" to="#808080" begin="reset.mouseover" end="reset.mouseout"/>
                       </use>
               </g>
        </defs>

<script type="text/javascript">
var viewWidth = 752;
var viewHeight = 388;
var sectionId = 'dynsection-297';
</script>
<script xlink:href="svgpan.js"/>
<svg id="graph" class="graph">
<g id="viewport">
<title>js_new_string16</title>
<!-- Node99661 -->
<g id="node1" class="node">
<title>Node99661</title>
<polygon fill="#bfbfbf" stroke="#000000" points="0,-95.5 0,-114.5 95,-114.5 95,-95.5 0,-95.5"/>
<text text-anchor="middle" x="47.5" y="-102.5" font-family="Helvetica,sans-Serif" font-size="10.00" fill="#000000">js_new_string16</text>
</g>
<!-- Node99662 -->
<g id="node2" class="node">
<title>Node99662</title>
<g id="a_node2"><a xlink:href="quickjs_8c.html#a077ffa6455c0d7831bd4547542b5f2f7" target="_top" xlink:title="js_new_string_char">
<polygon fill="none" stroke="#000000" points="131,-95.5 131,-114.5 241,-114.5 241,-95.5 131,-95.5"/>
<text text-anchor="middle" x="186" y="-102.5" font-family="Helvetica,sans-Serif" font-size="10.00" fill="#000000">js_new_string_char</text>
</a>
</g>
</g>
<!-- Node99661&#45;&gt;Node99662 -->
<g id="edge1" class="edge">
<title>Node99661&#45;&gt;Node99662</title>
<path fill="none" stroke="#191970" d="M105.2547,-105C113.6498,-105 122.2769,-105 130.6236,-105"/>
<polygon fill="#191970" stroke="#191970" points="105.1639,-101.5001 95.1638,-105 105.1638,-108.5001 105.1639,-101.5001"/>
</g>
<!-- Node100276 -->
<g id="node14" class="node">
<title>Node100276</title>
<g id="a_node14"><a xlink:href="quickjs_8c.html#a15988d5ca6500d029bdc559bd310f48d" target="_top" xlink:title="js_string_iterator_next">
<polygon fill="none" stroke="#000000" points="289.5,-38.5 289.5,-57.5 415.5,-57.5 415.5,-38.5 289.5,-38.5"/>
<text text-anchor="middle" x="352.5" y="-45.5" font-family="Helvetica,sans-Serif" font-size="10.00" fill="#000000">js_string_iterator_next</text>
</a>
</g>
</g>
<!-- Node99661&#45;&gt;Node100276 -->
<g id="edge17" class="edge">
<title>Node99661&#45;&gt;Node100276</title>
<path fill="none" stroke="#191970" d="M97.2859,-93.2099C108.3606,-90.7162 120.0604,-88.1814 131,-86 185.1427,-75.2039 247.104,-64.733 291.6992,-57.5261"/>
<polygon fill="#191970" stroke="#191970" points="96.3038,-89.8439 87.3307,-95.4772 97.8583,-96.6691 96.3038,-89.8439"/>
</g>
<!-- Node100277 -->
<g id="node15" class="node">
<title>Node100277</title>
<g id="a_node15"><a xlink:href="quickjs_8c.html#a011157b8ff30c8418be989eadf509c92" target="_top" xlink:title="js_sub_string">
<polygon fill="none" stroke="#000000" points="471.5,-199.5 471.5,-218.5 551.5,-218.5 551.5,-199.5 471.5,-199.5"/>
<text text-anchor="middle" x="511.5" y="-206.5" font-family="Helvetica,sans-Serif" font-size="10.00" fill="#000000">js_sub_string</text>
</a>
</g>
</g>
<!-- Node99661&#45;&gt;Node100277 -->
<g id="edge18" class="edge">
<title>Node99661&#45;&gt;Node100277</title>
<path fill="none" stroke="#191970" d="M80.522,-118.276C124.5899,-135.447 205.3986,-165.0401 277,-181 344.2317,-195.9859 424.2125,-203.3614 471.255,-206.6613"/>
<polygon fill="#191970" stroke="#191970" points="81.7611,-115.0024 71.1738,-114.6045 79.2021,-121.5179 81.7611,-115.0024"/>
</g>
<!-- Node99663 -->
<g id="node3" class="node">
<title>Node99663</title>
<g id="a_node3"><a xlink:href="quickjs_8c.html#a5762c57ae0c9937e986040c01222833a" target="_top" xlink:title="JS_GetPropertyInternal">
<polygon fill="none" stroke="#000000" points="289,-76.5 289,-95.5 416,-95.5 416,-76.5 289,-76.5"/>
<text text-anchor="middle" x="352.5" y="-83.5" font-family="Helvetica,sans-Serif" font-size="10.00" fill="#000000">JS_GetPropertyInternal</text>
</a>
</g>
</g>
<!-- Node99662&#45;&gt;Node99663 -->
<g id="edge2" class="edge">
<title>Node99662&#45;&gt;Node99663</title>
<path fill="none" stroke="#191970" d="M251.6135,-97.5126C263.9026,-96.1102 276.7291,-94.6465 288.9541,-93.2515"/>
<polygon fill="#191970" stroke="#191970" points="250.9808,-94.062 241.4421,-98.6733 251.7745,-101.0168 250.9808,-94.062"/>
</g>
<!-- Node100275 -->
<g id="node12" class="node">
<title>Node100275</title>
<g id="a_node12"><a xlink:href="quickjs_8c.html#ae97acc40e7697f300ae67de725127ba5" target="_top" xlink:title="js_string_get_own_property">
<polygon fill="none" stroke="#000000" points="277,-114.5 277,-133.5 428,-133.5 428,-114.5 277,-114.5"/>
<text text-anchor="middle" x="352.5" y="-121.5" font-family="Helvetica,sans-Serif" font-size="10.00" fill="#000000">js_string_get_own_property</text>
</a>
</g>
</g>
<!-- Node99662&#45;&gt;Node100275 -->
<g id="edge14" class="edge">
<title>Node99662&#45;&gt;Node100275</title>
<path fill="none" stroke="#191970" d="M251.4578,-112.4697C259.7899,-113.4205 268.3715,-114.3997 276.8471,-115.3669"/>
<polygon fill="#191970" stroke="#191970" points="251.7745,-108.9832 241.4421,-111.3267 250.9808,-115.938 251.7745,-108.9832"/>
</g>
<!-- Node100148 -->
<g id="node13" class="node">
<title>Node100148</title>
<g id="a_node13"><a xlink:href="quickjs_8c.html#a187940a18f6d1d4a5405405f37b5cf46" target="_top" xlink:title="js_string_charAt">
<polygon fill="none" stroke="#000000" points="305,-152.5 305,-171.5 400,-171.5 400,-152.5 305,-152.5"/>
<text text-anchor="middle" x="352.5" y="-159.5" font-family="Helvetica,sans-Serif" font-size="10.00" fill="#000000">js_string_charAt</text>
</a>
</g>
</g>
<!-- Node99662&#45;&gt;Node100148 -->
<g id="edge15" class="edge">
<title>Node99662&#45;&gt;Node100148</title>
<path fill="none" stroke="#191970" d="M215.8011,-118.7679C233.3663,-126.5474 256.1646,-136.071 277,-143 287.5171,-146.4975 299.0429,-149.7039 309.8523,-152.4467"/>
<polygon fill="#191970" stroke="#191970" points="217.1834,-115.5519 206.6268,-114.6529 214.3186,-121.9389 217.1834,-115.5519"/>
</g>
<!-- Node99662&#45;&gt;Node100276 -->
<g id="edge16" class="edge">
<title>Node99662&#45;&gt;Node100276</title>
<path fill="none" stroke="#191970" d="M215.8011,-91.2321C233.3663,-83.4526 256.1646,-73.929 277,-67 287.5171,-63.5025 299.0429,-60.2961 309.8523,-57.5533"/>
<polygon fill="#191970" stroke="#191970" points="214.3186,-88.0611 206.6268,-95.3471 217.1834,-94.4481 214.3186,-88.0611"/>
</g>
<!-- Node99664 -->
<g id="node4" class="node">
<title>Node99664</title>
<g id="a_node4"><a xlink:href="quickjs_8h.html#a89b7c8686c7eee70b86be722ee4730ad" target="_top" xlink:title="JS_GetProperty">
<polygon fill="none" stroke="#ff0000" points="467,-76.5 467,-95.5 556,-95.5 556,-76.5 467,-76.5"/>
<text text-anchor="middle" x="511.5" y="-83.5" font-family="Helvetica,sans-Serif" font-size="10.00" fill="#000000">JS_GetProperty</text>
</a>
</g>
</g>
<!-- Node99663&#45;&gt;Node99664 -->
<g id="edge3" class="edge">
<title>Node99663&#45;&gt;Node99664</title>
<path fill="none" stroke="#191970" d="M426.2668,-86C440.1057,-86 454.1775,-86 466.7931,-86"/>
<polygon fill="#191970" stroke="#191970" points="426.2553,-82.5001 416.2552,-86 426.2552,-89.5001 426.2553,-82.5001"/>
</g>
<!-- Node99670 -->
<g id="node5" class="node">
<title>Node99670</title>
<g id="a_node5"><a xlink:href="quickjs_8c.html#ac2894ff4edcdb4e6841bcce9c76081e3" target="_top" xlink:title="JS_CallInternal">
<polygon fill="none" stroke="#ff0000" points="626,-.5 626,-19.5 713,-19.5 713,-.5 626,-.5"/>
<text text-anchor="middle" x="669.5" y="-7.5" font-family="Helvetica,sans-Serif" font-size="10.00" fill="#000000">JS_CallInternal</text>
</a>
</g>
</g>
<!-- Node99663&#45;&gt;Node99670 -->
<g id="edge11" class="edge">
<title>Node99663&#45;&gt;Node99670</title>
<path fill="none" stroke="#191970" d="M402.3955,-74.0377C465.2171,-58.9764 571.8853,-33.4029 629.5863,-19.5692"/>
<polygon fill="#191970" stroke="#191970" points="401.2357,-70.7165 392.3273,-76.4515 402.8677,-77.5236 401.2357,-70.7165"/>
</g>
<!-- Node100274 -->
<g id="node9" class="node">
<title>Node100274</title>
<g id="a_node9"><a xlink:href="quickjs_8c.html#a0e8d8152892d3235c94ec6df17c87d13" target="_top" xlink:title="JS_GetGlobalVar">
<polygon fill="none" stroke="#000000" points="464,-.5 464,-19.5 559,-19.5 559,-.5 464,-.5"/>
<text text-anchor="middle" x="511.5" y="-7.5" font-family="Helvetica,sans-Serif" font-size="10.00" fill="#000000">JS_GetGlobalVar</text>
</a>
</g>
</g>
<!-- Node99663&#45;&gt;Node100274 -->
<g id="edge9" class="edge">
<title>Node99663&#45;&gt;Node100274</title>
<path fill="none" stroke="#191970" d="M414.5969,-73.0794C419.2398,-71.3005 423.761,-69.2842 428,-67 447.1076,-56.7039 446.1463,-46.3432 464,-34 471.904,-28.5356 481.2253,-23.5501 489.5079,-19.5562"/>
<polygon fill="#191970" stroke="#191970" points="413.26,-69.8381 404.9473,-76.407 415.542,-76.4557 413.26,-69.8381"/>
</g>
<!-- Node100249 -->
<g id="node10" class="node">
<title>Node100249</title>
<g id="a_node10"><a xlink:href="quickjs_8c.html#a6730c3163c357445c0182c52d5a53ca4" target="_top" xlink:title="js_reflect_get">
<polygon fill="none" stroke="#000000" points="470.5,-152.5 470.5,-171.5 552.5,-171.5 552.5,-152.5 470.5,-152.5"/>
<text text-anchor="middle" x="511.5" y="-159.5" font-family="Helvetica,sans-Serif" font-size="10.00" fill="#000000">js_reflect_get</text>
</a>
</g>
</g>
<!-- Node99663&#45;&gt;Node100249 -->
<g id="edge12" class="edge">
<title>Node99663&#45;&gt;Node100249</title>
<path fill="none" stroke="#191970" d="M415.8145,-99.0133C420.0503,-100.765 424.1558,-102.7503 428,-105 448.0789,-116.7505 444.7527,-129.9319 464,-143 469.4376,-146.6919 475.7006,-149.837 481.8574,-152.443"/>
<polygon fill="#191970" stroke="#191970" points="416.9774,-95.7118 406.384,-95.5395 414.5578,-102.2803 416.9774,-95.7118"/>
</g>
<!-- Node100002 -->
<g id="node11" class="node">
<title>Node100002</title>
<g id="a_node11"><a xlink:href="quickjs_8c.html#a45df491949e8e055e732eb13c446d47b" target="_top" xlink:title="js_proxy_get">
<polygon fill="none" stroke="#000000" points="472,-114.5 472,-133.5 551,-133.5 551,-114.5 472,-114.5"/>
<text text-anchor="middle" x="511.5" y="-121.5" font-family="Helvetica,sans-Serif" font-size="10.00" fill="#000000">js_proxy_get</text>
</a>
</g>
</g>
<!-- Node99663&#45;&gt;Node100002 -->
<g id="edge13" class="edge">
<title>Node99663&#45;&gt;Node100002</title>
<path fill="none" stroke="#191970" d="M402.6155,-97.9773C424.9858,-103.3237 450.9685,-109.5334 471.9412,-114.5457"/>
<polygon fill="#191970" stroke="#191970" points="403.1621,-94.5094 392.6224,-95.589 401.5349,-101.3177 403.1621,-94.5094"/>
</g>
<!-- Node99664&#45;&gt;Node99670 -->
<g id="edge4" class="edge">
<title>Node99664&#45;&gt;Node99670</title>
<path fill="none" stroke="#191970" d="M540.7274,-71.9412C572.4367,-56.6887 622.1966,-32.7535 649.6517,-19.5473"/>
<polygon fill="#191970" stroke="#191970" points="539.0053,-68.8857 531.5108,-76.3745 542.0397,-75.1939 539.0053,-68.8857"/>
</g>
<!-- Node99916 -->
<g id="node6" class="node">
<title>Node99916</title>
<g id="a_node6"><a xlink:href="quickjs_8c.html#a99f359a90bf2aa7902ec554d726d4fda" target="_top" xlink:title="js_string_split">
<polygon fill="none" stroke="#000000" points="627.5,-132.5 627.5,-151.5 711.5,-151.5 711.5,-132.5 627.5,-132.5"/>
<text text-anchor="middle" x="669.5" y="-139.5" font-family="Helvetica,sans-Serif" font-size="10.00" fill="#000000">js_string_split</text>
</a>
</g>
</g>
<!-- Node99664&#45;&gt;Node99916 -->
<g id="edge6" class="edge">
<title>Node99664&#45;&gt;Node99916</title>
<path fill="none" stroke="#191970" d="M546.1783,-99.4817C550.5183,-101.2832 554.8779,-103.1489 559,-105 575.3186,-112.3282 578.2373,-116.754 595,-123 605.2565,-126.8217 616.5861,-130.1446 627.2491,-132.896"/>
<polygon fill="#191970" stroke="#191970" points="547.3903,-96.1963 536.8085,-95.6714 544.7533,-102.6807 547.3903,-96.1963"/>
</g>
<!-- Node99810 -->
<g id="node7" class="node">
<title>Node99810</title>
<g id="a_node7"><a xlink:href="quickjs_8c.html#a9eb2d90f27f684820f9de13189502b7c" target="_top" xlink:title="js_regexp_exec">
<polygon fill="none" stroke="#ff0000" points="623.5,-94.5 623.5,-113.5 715.5,-113.5 715.5,-94.5 623.5,-94.5"/>
<text text-anchor="middle" x="669.5" y="-101.5" font-family="Helvetica,sans-Serif" font-size="10.00" fill="#000000">js_regexp_exec</text>
</a>
</g>
</g>
<!-- Node99664&#45;&gt;Node99810 -->
<g id="edge7" class="edge">
<title>Node99664&#45;&gt;Node99810</title>
<path fill="none" stroke="#191970" d="M566.4517,-92.2603C585.0453,-94.3786 605.6035,-96.7207 623.4349,-98.7521"/>
<polygon fill="#191970" stroke="#191970" points="566.6858,-88.7644 556.3538,-91.1099 565.8934,-95.7194 566.6858,-88.7644"/>
</g>
<!-- Node99784 -->
<g id="node8" class="node">
<title>Node99784</title>
<g id="a_node8"><a xlink:href="quickjs_8c.html#a79872a6d9d139e36d5d1894d16132024" target="_top" xlink:title="js_regexp_Symbol_split">
<polygon fill="none" stroke="#000000" points="603.5,-56.5 603.5,-75.5 735.5,-75.5 735.5,-56.5 603.5,-56.5"/>
<text text-anchor="middle" x="669.5" y="-63.5" font-family="Helvetica,sans-Serif" font-size="10.00" fill="#000000">js_regexp_Symbol_split</text>
</a>
</g>
</g>
<!-- Node99664&#45;&gt;Node99784 -->
<g id="edge8" class="edge">
<title>Node99664&#45;&gt;Node99784</title>
<path fill="none" stroke="#191970" d="M566.5415,-79.0327C578.4023,-77.5313 591.059,-75.9292 603.2949,-74.3804"/>
<polygon fill="#191970" stroke="#191970" points="565.8351,-75.5941 556.3538,-80.3223 566.7142,-82.5387 565.8351,-75.5941"/>
</g>
<!-- Node99670&#45;&gt;Node99670 -->
<g id="edge5" class="edge">
<title>Node99670&#45;&gt;Node99670</title>
<path fill="none" stroke="#191970" d="M640.0076,-28.6539C641.2404,-33.9368 651.0712,-38 669.5,-38 697.582,-38 705.6995,-28.5653 693.8524,-19.7571"/>
<polygon fill="#191970" stroke="#191970" points="643.1757,-30.1668 645.1476,-19.7571 637.1145,-26.665 643.1757,-30.1668"/>
</g>
<!-- Node100274&#45;&gt;Node99670 -->
<g id="edge10" class="edge">
<title>Node100274&#45;&gt;Node99670</title>
<path fill="none" stroke="#191970" d="M569.4852,-10C588.1213,-10 608.44,-10 625.8658,-10"/>
<polygon fill="#191970" stroke="#191970" points="569.334,-6.5001 559.334,-10 569.3339,-13.5001 569.334,-6.5001"/>
</g>
<!-- Node100277&#45;&gt;Node99916 -->
<g id="edge20" class="edge">
<title>Node100277&#45;&gt;Node99916</title>
<path fill="none" stroke="#191970" d="M536.438,-194.206C558.7672,-181.0355 588.9066,-163.4743 595,-161 605.2649,-156.8319 616.7049,-153.3693 627.4791,-150.5929"/>
<polygon fill="#191970" stroke="#191970" points="534.5646,-191.2475 527.7366,-199.3488 538.1263,-197.2737 534.5646,-191.2475"/>
</g>
<!-- Node100277&#45;&gt;Node99810 -->
<g id="edge25" class="edge">
<title>Node100277&#45;&gt;Node99810</title>
<path fill="none" stroke="#191970" d="M541.7296,-194.1596C547.8435,-190.3687 553.9405,-185.9451 559,-181 580.6971,-159.7931 570.5296,-140.9358 595,-123 603.2897,-116.924 613.3326,-112.7842 623.324,-109.9655"/>
<polygon fill="#191970" stroke="#191970" points="539.8036,-191.2296 532.8789,-199.2482 543.2927,-197.2981 539.8036,-191.2296"/>
</g>
<!-- Node100277&#45;&gt;Node99784 -->
<g id="edge26" class="edge">
<title>Node100277&#45;&gt;Node99784</title>
<path fill="none" stroke="#191970" d="M543.5711,-194.193C549.2559,-190.4953 554.718,-186.0997 559,-181 588.3021,-146.1025 561.0703,-115.4174 595,-85 599.2737,-81.1687 604.2136,-78.0884 609.4754,-75.6149"/>
<polygon fill="#191970" stroke="#191970" points="541.467,-191.3683 534.5923,-199.43 544.9938,-197.415 541.467,-191.3683"/>
</g>
<!-- Node100039 -->
<g id="node16" class="node">
<title>Node100039</title>
<g id="a_node16"><a xlink:href="quickjs_8c.html#adb4d2990e6bf3f99633512ad2054b47a" target="_top" xlink:title="js_string___GetSubstitution">
<polygon fill="none" stroke="#ff0000" points="595,-360.5 595,-379.5 744,-379.5 744,-360.5 595,-360.5"/>
<text text-anchor="middle" x="669.5" y="-367.5" font-family="Helvetica,sans-Serif" font-size="10.00" fill="#000000">js_string___GetSubstitution</text>
</a>
</g>
</g>
<!-- Node100277&#45;&gt;Node100039 -->
<g id="edge19" class="edge">
<title>Node100277&#45;&gt;Node100039</title>
<path fill="none" stroke="#191970" d="M517.417,-228.2903C527.8876,-259.1028 552.6656,-319.1852 595,-351 600.1219,-354.8492 605.9423,-357.9229 612.0191,-360.3766"/>
<polygon fill="#191970" stroke="#191970" points="520.7224,-227.1366 514.3048,-218.7065 514.0646,-229.2987 520.7224,-227.1366"/>
</g>
<!-- Node100154 -->
<g id="node17" class="node">
<title>Node100154</title>
<g id="a_node17"><a xlink:href="quickjs_8c.html#a95e140838dbe5abed1dabaae43f10a6e" target="_top" xlink:title="js_string_substring">
<polygon fill="none" stroke="#000000" points="615.5,-322.5 615.5,-341.5 723.5,-341.5 723.5,-322.5 615.5,-322.5"/>
<text text-anchor="middle" x="669.5" y="-329.5" font-family="Helvetica,sans-Serif" font-size="10.00" fill="#000000">js_string_substring</text>
</a>
</g>
</g>
<!-- Node100277&#45;&gt;Node100154 -->
<g id="edge21" class="edge">
<title>Node100277&#45;&gt;Node100154</title>
<path fill="none" stroke="#191970" d="M521.4604,-227.7676C534.9508,-251.3291 561.2698,-291.2845 595,-313 601.1728,-316.974 608.132,-320.1175 615.2547,-322.6038"/>
<polygon fill="#191970" stroke="#191970" points="524.3866,-225.8269 516.48,-218.7745 518.2629,-229.2182 524.3866,-225.8269"/>
</g>
<!-- Node100155 -->
<g id="node18" class="node">
<title>Node100155</title>
<g id="a_node18"><a xlink:href="quickjs_8c.html#a1008f89dc6bfd1fedc49ea6f427253c7" target="_top" xlink:title="js_string_substr">
<polygon fill="none" stroke="#000000" points="623,-284.5 623,-303.5 716,-303.5 716,-284.5 623,-284.5"/>
<text text-anchor="middle" x="669.5" y="-291.5" font-family="Helvetica,sans-Serif" font-size="10.00" fill="#000000">js_string_substr</text>
</a>
</g>
</g>
<!-- Node100277&#45;&gt;Node100155 -->
<g id="edge22" class="edge">
<title>Node100277&#45;&gt;Node100155</title>
<path fill="none" stroke="#191970" d="M528.2524,-225.7889C544.137,-240.7905 569.3296,-262.3043 595,-275 603.6146,-279.2605 613.2766,-282.6274 622.7153,-285.2663"/>
<polygon fill="#191970" stroke="#191970" points="530.4617,-223.0565 520.841,-218.6189 525.5945,-228.0875 530.4617,-223.0565"/>
</g>
<!-- Node100156 -->
<g id="node19" class="node">
<title>Node100156</title>
<g id="a_node19"><a xlink:href="quickjs_8c.html#aa46a42bde091ff4968e502d9556c47b6" target="_top" xlink:title="js_string_slice">
<polygon fill="none" stroke="#000000" points="626.5,-246.5 626.5,-265.5 712.5,-265.5 712.5,-246.5 626.5,-246.5"/>
<text text-anchor="middle" x="669.5" y="-253.5" font-family="Helvetica,sans-Serif" font-size="10.00" fill="#000000">js_string_slice</text>
</a>
</g>
</g>
<!-- Node100277&#45;&gt;Node100156 -->
<g id="edge23" class="edge">
<title>Node100277&#45;&gt;Node100156</title>
<path fill="none" stroke="#191970" d="M548.0505,-221.9072C562.5863,-226.8693 579.509,-232.4341 595,-237 606.267,-240.3209 618.5912,-243.6038 629.9144,-246.4824"/>
<polygon fill="#191970" stroke="#191970" points="549.0102,-218.536 538.4155,-218.5879 546.7301,-225.1543 549.0102,-218.536"/>
</g>
<!-- Node100225 -->
<g id="node20" class="node">
<title>Node100225</title>
<g id="a_node20"><a xlink:href="quickjs_8c.html#a62d4bd99d0b9e8200b220818902e5f0d" target="_top" xlink:title="js_string_trim">
<polygon fill="none" stroke="#000000" points="628,-208.5 628,-227.5 711,-227.5 711,-208.5 628,-208.5"/>
<text text-anchor="middle" x="669.5" y="-215.5" font-family="Helvetica,sans-Serif" font-size="10.00" fill="#000000">js_string_trim</text>
</a>
</g>
</g>
<!-- Node100277&#45;&gt;Node100225 -->
<g id="edge24" class="edge">
<title>Node100277&#45;&gt;Node100225</title>
<path fill="none" stroke="#191970" d="M561.9366,-211.873C583.2176,-213.0852 607.6943,-214.4794 627.9172,-215.6314"/>
<polygon fill="#191970" stroke="#191970" points="561.9618,-208.3688 551.7789,-211.2944 561.5636,-215.3575 561.9618,-208.3688"/>
</g>
<!-- Node99756 -->
<g id="node21" class="node">
<title>Node99756</title>
<g id="a_node21"><a xlink:href="quickjs_8c.html#a343a343b16bc3c9875050e99ee0d2884" target="_top" xlink:title="JS_JSONStringify">
<polygon fill="none" stroke="#ff0000" points="621.5,-170.5 621.5,-189.5 717.5,-189.5 717.5,-170.5 621.5,-170.5"/>
<text text-anchor="middle" x="669.5" y="-177.5" font-family="Helvetica,sans-Serif" font-size="10.00" fill="#000000">JS_JSONStringify</text>
</a>
</g>
</g>
<!-- Node100277&#45;&gt;Node99756 -->
<g id="edge27" class="edge">
<title>Node100277&#45;&gt;Node99756</title>
<path fill="none" stroke="#191970" d="M561.7864,-199.7702C580.8704,-196.2675 602.5421,-192.2897 621.4177,-188.8252"/>
<polygon fill="#191970" stroke="#191970" points="560.9827,-196.3592 551.7789,-201.607 562.2465,-203.2442 560.9827,-196.3592"/>
</g>
</g>
</svg>
        <g id="navigator" transform="translate(0 0)" fill="#404254">
                <rect fill="#f2f5e9" fill-opacity="0.5" stroke="#606060" stroke-width=".5" x="0" y="0" width="60" height="60"/>
                <use id="zoomplus" xlink:href="#zoomPlus" x="17" y="9" onmousedown="handleZoom(evt,'in')"/>
                <use id="zoomminus" xlink:href="#zoomMin" x="42" y="9" onmousedown="handleZoom(evt,'out')"/>
                <use id="reset" xlink:href="#resetDef" x="30" y="36" onmousedown="handleReset()"/>
                <g id="arrowUp" xlink:href="#dirArrow" transform="translate(30 24)" onmousedown="handlePan(0,-1)">
                  <use xlink:href="#rim" fill="#404040">
                        <set attributeName="fill" to="#808080" begin="arrowUp.mouseover" end="arrowUp.mouseout"/>
                  </use>
                  <path fill="none" stroke="white" stroke-width="1.5" d="M0,-3.0v7 M-2.5,-0.5L0,-3.0L2.5,-0.5"/>
                </g>
                <g id="arrowRight" xlink:href="#dirArrow" transform="rotate(90) translate(36 -43)" onmousedown="handlePan(1,0)">
                  <use xlink:href="#rim" fill="#404040">
                        <set attributeName="fill" to="#808080" begin="arrowRight.mouseover" end="arrowRight.mouseout"/>
                  </use>
                  <path fill="none" stroke="white" stroke-width="1.5" d="M0,-3.0v7 M-2.5,-0.5L0,-3.0L2.5,-0.5"/>
                </g>
                <g id="arrowDown" xlink:href="#dirArrow" transform="rotate(180) translate(-30 -48)" onmousedown="handlePan(0,1)">
                  <use xlink:href="#rim" fill="#404040">
                        <set attributeName="fill" to="#808080" begin="arrowDown.mouseover" end="arrowDown.mouseout"/>
                  </use>
                  <path fill="none" stroke="white" stroke-width="1.5" d="M0,-3.0v7 M-2.5,-0.5L0,-3.0L2.5,-0.5"/>
                </g>
                <g id="arrowLeft" xlink:href="#dirArrow" transform="rotate(270) translate(-36 17)" onmousedown="handlePan(-1,0)">
                  <use xlink:href="#rim" fill="#404040">
                        <set attributeName="fill" to="#808080" begin="arrowLeft.mouseover" end="arrowLeft.mouseout"/>
                  </use>
                  <path fill="none" stroke="white" stroke-width="1.5" d="M0,-3.0v7 M-2.5,-0.5L0,-3.0L2.5,-0.5"/>
                </g>
        </g>
        <svg viewBox="0 0 15 15" width="100%" height="30px" preserveAspectRatio="xMaxYMin meet">
         <g id="arrow_out" transform="scale(0.3 0.3)">
          <a xlink:href="quickjs_8c_a960b48be1175b0982ecc03505711fc56_icgraph_org.svg" target="_base">
           <rect id="button" ry="5" rx="5" y="6" x="6" height="38" width="38"
                fill="#f2f5e9" fill-opacity="0.5" stroke="#606060" stroke-width="1.0"/>
           <path id="arrow"
             d="M 11.500037,31.436501 C 11.940474,20.09759 22.043105,11.32322 32.158766,21.979434 L 37.068811,17.246167 C 37.068811,17.246167 37.088388,32 37.088388,32 L 22.160133,31.978069 C 22.160133,31.978069 26.997745,27.140456 26.997745,27.140456 C 18.528582,18.264221 13.291696,25.230495 11.500037,31.436501 z"
             style="fill:#404040;"/>
          </a>
         </g>
        </svg>
</svg>
