<?xml version="1.0" encoding="UTF-8" standalone="no"?>
<!DOCTYPE svg PUBLIC "-//W3C//DTD SVG 1.1//EN"
 "http://www.w3.org/Graphics/SVG/1.1/DTD/svg11.dtd">
<!-- Generated by graphviz version 2.40.1 (20161225.0304)
 -->
<!-- Title: js_std_init Pages: 1 -->
<svg width="295pt" height="28pt"
 viewBox="0.00 0.00 295.00 28.00" xmlns="http://www.w3.org/2000/svg" xmlns:xlink="http://www.w3.org/1999/xlink">
<g id="graph0" class="graph" transform="scale(1 1) rotate(0) translate(4 24)">
<title>js_std_init</title>
<!-- Node13126 -->
<g id="node1" class="node">
<title>Node13126</title>
<polygon fill="#bfbfbf" stroke="#000000" points="0,-.5 0,-19.5 66,-19.5 66,-.5 0,-.5"/>
<text text-anchor="middle" x="33" y="-7.5" font-family="Helvetica,sans-Serif" font-size="10.00" fill="#000000">js_std_init</text>
</g>
<!-- Node13127 -->
<g id="node2" class="node">
<title>Node13127</title>
<g id="a_node2"><a xlink:href="quickjs-libc_8c.html#a0e65c67dfff872a664f8d29e7eae5a61" target="_top" xlink:title="js_init_module_std">
<polygon fill="none" stroke="#000000" points="102,-.5 102,-19.5 210,-19.5 210,-.5 102,-.5"/>
<text text-anchor="middle" x="156" y="-7.5" font-family="Helvetica,sans-Serif" font-size="10.00" fill="#000000">js_init_module_std</text>
</a>
</g>
</g>
<!-- Node13126&#45;&gt;Node13127 -->
<g id="edge1" class="edge">
<title>Node13126&#45;&gt;Node13127</title>
<path fill="none" stroke="#191970" d="M76.3971,-10C84.6195,-10 93.3158,-10 101.8225,-10"/>
<polygon fill="#191970" stroke="#191970" points="76.2856,-6.5001 66.2856,-10 76.2855,-13.5001 76.2856,-6.5001"/>
</g>
<!-- Node13128 -->
<g id="node3" class="node">
<title>Node13128</title>
<g id="a_node3"><a xlink:href="qjs_8cpp.html#a3c04138a5bfe5d72780bb7e82a18e627" target="_top" xlink:title="main">
<polygon fill="none" stroke="#000000" points="246,-.5 246,-19.5 287,-19.5 287,-.5 246,-.5"/>
<text text-anchor="middle" x="266.5" y="-7.5" font-family="Helvetica,sans-Serif" font-size="10.00" fill="#000000">main</text>
</a>
</g>
</g>
<!-- Node13127&#45;&gt;Node13128 -->
<g id="edge2" class="edge">
<title>Node13127&#45;&gt;Node13128</title>
<path fill="none" stroke="#191970" d="M220.3338,-10C229.5215,-10 238.3646,-10 245.809,-10"/>
<polygon fill="#191970" stroke="#191970" points="220.2789,-6.5001 210.2789,-10 220.2788,-13.5001 220.2789,-6.5001"/>
</g>
</g>
</svg>
