<?xml version="1.0" encoding="UTF-8" standalone="no"?>
<!DOCTYPE svg PUBLIC "-//W3C//DTD SVG 1.1//EN"
 "http://www.w3.org/Graphics/SVG/1.1/DTD/svg11.dtd">
<!-- Generated by graphviz version 2.40.1 (20161225.0304)
 -->
<!-- Title: JS_EnqueueJob Pages: 1 -->
<svg width="562pt" height="192pt"
 viewBox="0.00 0.00 562.00 192.00" xmlns="http://www.w3.org/2000/svg" xmlns:xlink="http://www.w3.org/1999/xlink">
<g id="graph0" class="graph" transform="scale(1 1) rotate(0) translate(4 188)">
<title>JS_EnqueueJob</title>
<!-- Node63322 -->
<g id="node1" class="node">
<title>Node63322</title>
<polygon fill="#bfbfbf" stroke="#000000" points="0,-44.5 0,-63.5 88,-63.5 88,-44.5 0,-44.5"/>
<text text-anchor="middle" x="44" y="-51.5" font-family="Helvetica,sans-Serif" font-size="10.00" fill="#000000">JS_EnqueueJob</text>
</g>
<!-- Node63323 -->
<g id="node2" class="node">
<title>Node63323</title>
<g id="a_node2"><a xlink:href="quickjs_8c.html#a50e94675d1c4cf67c88e72169ea3c21a" target="_top" xlink:title="js_dynamic_import">
<polygon fill="none" stroke="#000000" points="133,-88.5 133,-107.5 243,-107.5 243,-88.5 133,-88.5"/>
<text text-anchor="middle" x="188" y="-95.5" font-family="Helvetica,sans-Serif" font-size="10.00" fill="#000000">js_dynamic_import</text>
</a>
</g>
</g>
<!-- Node63322&#45;&gt;Node63323 -->
<g id="edge1" class="edge">
<title>Node63322&#45;&gt;Node63323</title>
<path fill="none" stroke="#191970" d="M84.2082,-66.6883C96.9241,-70.6679 111.0396,-75.0513 124,-79 134.2003,-82.1077 145.3347,-85.4356 155.4145,-88.4241"/>
<polygon fill="#191970" stroke="#191970" points="84.9483,-63.2524 74.3591,-63.5993 82.8534,-69.9316 84.9483,-63.2524"/>
</g>
<!-- Node63420 -->
<g id="node8" class="node">
<title>Node63420</title>
<g id="a_node8"><a xlink:href="quickjs_8c.html#ac13d124ad5c7f1234cae3076077e782e" target="_top" xlink:title="js_promise_resolve\l_function_call">
<polygon fill="none" stroke="#ff0000" points="132.5,-39 132.5,-69 243.5,-69 243.5,-39 132.5,-39"/>
<text text-anchor="start" x="140.5" y="-57" font-family="Helvetica,sans-Serif" font-size="10.00" fill="#000000">js_promise_resolve</text>
<text text-anchor="middle" x="188" y="-46" font-family="Helvetica,sans-Serif" font-size="10.00" fill="#000000">_function_call</text>
</a>
</g>
</g>
<!-- Node63322&#45;&gt;Node63420 -->
<g id="edge11" class="edge">
<title>Node63322&#45;&gt;Node63420</title>
<path fill="none" stroke="#191970" d="M98.7146,-54C109.7147,-54 121.2868,-54 132.3194,-54"/>
<polygon fill="#191970" stroke="#191970" points="98.3798,-50.5001 88.3797,-54 98.3797,-57.5001 98.3798,-50.5001"/>
</g>
<!-- Node63415 -->
<g id="node9" class="node">
<title>Node63415</title>
<g id="a_node9"><a xlink:href="quickjs_8c.html#a944c09a3f1ce23a5760b6ed6e83e3644" target="_top" xlink:title="perform_promise_then">
<polygon fill="none" stroke="#ff0000" points="124,-.5 124,-19.5 252,-19.5 252,-.5 124,-.5"/>
<text text-anchor="middle" x="188" y="-7.5" font-family="Helvetica,sans-Serif" font-size="10.00" fill="#000000">perform_promise_then</text>
</a>
</g>
</g>
<!-- Node63322&#45;&gt;Node63415 -->
<g id="edge12" class="edge">
<title>Node63322&#45;&gt;Node63415</title>
<path fill="none" stroke="#191970" d="M85.0022,-41.4715C107.8269,-34.4973 135.7884,-25.9535 156.8151,-19.5287"/>
<polygon fill="#191970" stroke="#191970" points="83.7866,-38.1832 75.2459,-44.4527 85.8322,-44.8776 83.7866,-38.1832"/>
</g>
<!-- Node63324 -->
<g id="node3" class="node">
<title>Node63324</title>
<g id="a_node3"><a xlink:href="quickjs_8c.html#ac2894ff4edcdb4e6841bcce9c76081e3" target="_top" xlink:title="JS_CallInternal">
<polygon fill="none" stroke="#000000" points="288,-88.5 288,-107.5 375,-107.5 375,-88.5 288,-88.5"/>
<text text-anchor="middle" x="331.5" y="-95.5" font-family="Helvetica,sans-Serif" font-size="10.00" fill="#000000">JS_CallInternal</text>
</a>
</g>
</g>
<!-- Node63323&#45;&gt;Node63324 -->
<g id="edge2" class="edge">
<title>Node63323&#45;&gt;Node63324</title>
<path fill="none" stroke="#191970" d="M253.2938,-98C265.0316,-98 277.0017,-98 287.934,-98"/>
<polygon fill="#191970" stroke="#191970" points="253.0705,-94.5001 243.0704,-98 253.0704,-101.5001 253.0705,-94.5001"/>
</g>
<!-- Node63324&#45;&gt;Node63324 -->
<g id="edge10" class="edge">
<title>Node63324&#45;&gt;Node63324</title>
<path fill="none" stroke="#191970" d="M304.9941,-116.6539C306.1021,-121.9368 314.9374,-126 331.5,-126 356.7383,-126 364.0337,-116.5653 353.3863,-107.7571"/>
<polygon fill="#191970" stroke="#191970" points="308.1117,-118.2449 309.6137,-107.7571 301.8992,-115.0192 308.1117,-118.2449"/>
</g>
<!-- Node63325 -->
<g id="node4" class="node">
<title>Node63325</title>
<g id="a_node4"><a xlink:href="quickjs_8c.html#ade71a22dc56e7371392393df663b28b3" target="_top" xlink:title="async_func_resume">
<polygon fill="none" stroke="#ff0000" points="426,-164.5 426,-183.5 539,-183.5 539,-164.5 426,-164.5"/>
<text text-anchor="middle" x="482.5" y="-171.5" font-family="Helvetica,sans-Serif" font-size="10.00" fill="#000000">async_func_resume</text>
</a>
</g>
</g>
<!-- Node63324&#45;&gt;Node63325 -->
<g id="edge3" class="edge">
<title>Node63324&#45;&gt;Node63325</title>
<path fill="none" stroke="#191970" d="M349.9796,-114.2366C365.3561,-126.9796 388.3214,-144.2989 411,-155 419.0149,-158.7819 427.9035,-161.9054 436.6126,-164.4507"/>
<polygon fill="#191970" stroke="#191970" points="352.159,-111.4958 342.2678,-107.6991 347.6325,-116.8353 352.159,-111.4958"/>
</g>
<!-- Node63344 -->
<g id="node5" class="node">
<title>Node63344</title>
<g id="a_node5"><a xlink:href="quickjs_8c.html#a1a4c02a29525d5cb2085dd8bca3af350" target="_top" xlink:title="JS_Call">
<polygon fill="none" stroke="#ff0000" points="457.5,-126.5 457.5,-145.5 507.5,-145.5 507.5,-126.5 457.5,-126.5"/>
<text text-anchor="middle" x="482.5" y="-133.5" font-family="Helvetica,sans-Serif" font-size="10.00" fill="#000000">JS_Call</text>
</a>
</g>
</g>
<!-- Node63324&#45;&gt;Node63344 -->
<g id="edge4" class="edge">
<title>Node63324&#45;&gt;Node63344</title>
<path fill="none" stroke="#191970" d="M384.9688,-104.9679C412.143,-111.1422 443.4903,-119.6288 463.1527,-126.4368"/>
<polygon fill="#191970" stroke="#191970" points="385.695,-101.544 375.1755,-102.8052 384.1854,-108.3793 385.695,-101.544"/>
</g>
<!-- Node63429 -->
<g id="node6" class="node">
<title>Node63429</title>
<g id="a_node6"><a xlink:href="quickjs_8c.html#ad35594576a14c10812efaf958c99af8a" target="_top" xlink:title="JS_CallConstructorInternal">
<polygon fill="none" stroke="#ff0000" points="411,-88.5 411,-107.5 554,-107.5 554,-88.5 411,-88.5"/>
<text text-anchor="middle" x="482.5" y="-95.5" font-family="Helvetica,sans-Serif" font-size="10.00" fill="#000000">JS_CallConstructorInternal</text>
</a>
</g>
</g>
<!-- Node63324&#45;&gt;Node63429 -->
<g id="edge6" class="edge">
<title>Node63324&#45;&gt;Node63429</title>
<path fill="none" stroke="#191970" d="M385.3716,-91.5024C393.6056,-91.3053 402.2144,-91.2236 410.7589,-91.2574"/>
<polygon fill="#191970" stroke="#191970" points="385.0639,-88.0101 375.1755,-91.814 385.2777,-95.0069 385.0639,-88.0101"/>
</g>
<!-- Node63443 -->
<g id="node7" class="node">
<title>Node63443</title>
<g id="a_node7"><a xlink:href="quickjs_8c.html#a75f6ee5e4235a7dc99889f3d2eb2c147" target="_top" xlink:title="JS_CallFree">
<polygon fill="none" stroke="#ff0000" points="447.5,-50.5 447.5,-69.5 517.5,-69.5 517.5,-50.5 447.5,-50.5"/>
<text text-anchor="middle" x="482.5" y="-57.5" font-family="Helvetica,sans-Serif" font-size="10.00" fill="#000000">JS_CallFree</text>
</a>
</g>
</g>
<!-- Node63324&#45;&gt;Node63443 -->
<g id="edge8" class="edge">
<title>Node63324&#45;&gt;Node63443</title>
<path fill="none" stroke="#191970" d="M360.4849,-85.2561C385.2309,-77.425 420.8998,-68.3283 447.2855,-63.0512"/>
<polygon fill="#191970" stroke="#191970" points="359.3316,-81.951 350.9315,-88.4076 361.5246,-88.5986 359.3316,-81.951"/>
</g>
<!-- Node63344&#45;&gt;Node63324 -->
<g id="edge5" class="edge">
<title>Node63344&#45;&gt;Node63324</title>
<path fill="none" stroke="#191970" d="M447.2959,-132.9509C417.2742,-126.9471 375.2287,-115.9968 350.9315,-107.5924"/>
<polygon fill="#191970" stroke="#191970" points="446.8884,-136.4358 457.3648,-134.856 448.1898,-129.5579 446.8884,-136.4358"/>
</g>
<!-- Node63429&#45;&gt;Node63324 -->
<g id="edge7" class="edge">
<title>Node63429&#45;&gt;Node63324</title>
<path fill="none" stroke="#191970" d="M400.5027,-104.7277C391.7876,-104.6679 383.1888,-104.4873 375.1755,-104.186"/>
<polygon fill="#191970" stroke="#191970" points="400.7538,-108.228 410.7589,-104.7426 400.764,-101.228 400.7538,-108.228"/>
</g>
<!-- Node63443&#45;&gt;Node63324 -->
<g id="edge9" class="edge">
<title>Node63443&#45;&gt;Node63324</title>
<path fill="none" stroke="#191970" d="M453.6294,-72.7077C431.4346,-79.7375 400.4036,-87.7946 375.1755,-93.1948"/>
<polygon fill="#191970" stroke="#191970" points="454.7543,-76.0222 463.1527,-69.5632 452.5595,-69.3751 454.7543,-76.0222"/>
</g>
</g>
</svg>
