<?xml version="1.0" encoding="UTF-8" standalone="no"?>
<!DOCTYPE svg PUBLIC "-//W3C//DTD SVG 1.1//EN"
 "http://www.w3.org/Graphics/SVG/1.1/DTD/svg11.dtd">
<!-- Generated by graphviz version 2.40.1 (20161225.0304)
 -->
<!-- Title: add_global_var Pages: 1 -->
<!--zoomable 350 -->
<svg id="main" version="1.1" xmlns="http://www.w3.org/2000/svg" xmlns:xlink="http://www.w3.org/1999/xlink" xml:space="preserve" onload="init(evt)">
<style type="text/css"><![CDATA[
.edge:hover path { stroke: red; }
.edge:hover polygon { stroke: red; fill: red; }
]]></style>
<script type="text/javascript"><![CDATA[
var edges = document.getElementsByTagName('g');
if (edges && edges.length) {
  for (var i=0;i<edges.length;i++) {
    if (edges[i].id.substr(0,4)=='edge') {
      edges[i].setAttribute('class','edge');
    }
  }
}
]]></script>
        <defs>
                <circle id="rim" cx="0" cy="0" r="7"/>
                <circle id="rim2" cx="0" cy="0" r="3.5"/>
                <g id="zoomPlus">
                        <use xlink:href="#rim" fill="#404040">
                                <set attributeName="fill" to="#808080" begin="zoomplus.mouseover" end="zoomplus.mouseout"/>
                        </use>
                        <path d="M-4,0h8M0,-4v8" fill="none" stroke="white" stroke-width="1.5" pointer-events="none"/>
                </g>
                <g id="zoomMin">
                        <use xlink:href="#rim" fill="#404040">
                                <set attributeName="fill" to="#808080" begin="zoomminus.mouseover" end="zoomminus.mouseout"/>
                        </use>
                        <path d="M-4,0h8" fill="none" stroke="white" stroke-width="1.5" pointer-events="none"/>
                </g>
                <g id="dirArrow">
                        <path fill="none" stroke="white" stroke-width="1.5" d="M0,-3.0v7 M-2.5,-0.5L0,-3.0L2.5,-0.5"/>
                </g>
               <g id="resetDef">
                       <use xlink:href="#rim2" fill="#404040">
                               <set attributeName="fill" to="#808080" begin="reset.mouseover" end="reset.mouseout"/>
                       </use>
               </g>
        </defs>

<script type="text/javascript">
var viewWidth = 934;
var viewHeight = 350;
var sectionId = 'dynsection-985';
</script>
<script xlink:href="svgpan.js"/>
<svg id="graph" class="graph">
<g id="viewport">
<title>add_global_var</title>
<!-- Node313723 -->
<g id="node1" class="node">
<title>Node313723</title>
<polygon fill="#bfbfbf" stroke="#000000" points="0,-313.5 0,-332.5 91,-332.5 91,-313.5 0,-313.5"/>
<text text-anchor="middle" x="45.5" y="-320.5" font-family="Helvetica,sans-Serif" font-size="10.00" fill="#000000">add_global_var</text>
</g>
<!-- Node313724 -->
<g id="node2" class="node">
<title>Node313724</title>
<g id="a_node2"><a xlink:href="quickjs_8c.html#a99125693fff3fd8277f544b15109354b" target="_top" xlink:title="define_var">
<polygon fill="none" stroke="#000000" points="127,-275.5 127,-294.5 195,-294.5 195,-275.5 127,-275.5"/>
<text text-anchor="middle" x="161" y="-282.5" font-family="Helvetica,sans-Serif" font-size="10.00" fill="#000000">define_var</text>
</a>
</g>
</g>
<!-- Node313723&#45;&gt;Node313724 -->
<g id="edge1" class="edge">
<title>Node313723&#45;&gt;Node313724</title>
<path fill="none" stroke="#191970" d="M84.4841,-310.1741C99.9817,-305.0753 117.5024,-299.3109 131.8638,-294.5859"/>
<polygon fill="#191970" stroke="#191970" points="83.0508,-306.961 74.6455,-313.411 85.2385,-313.6104 83.0508,-306.961"/>
</g>
<!-- Node313735 -->
<g id="node11" class="node">
<title>Node313735</title>
<g id="a_node11"><a xlink:href="quickjs_8c.html#acc9eb677cab8dfcf45f59381f8a19601" target="_top" xlink:title="js_parse_function_decl2">
<polygon fill="none" stroke="#ff0000" points="511,-294.5 511,-313.5 645,-313.5 645,-294.5 511,-294.5"/>
<text text-anchor="middle" x="578" y="-301.5" font-family="Helvetica,sans-Serif" font-size="10.00" fill="#000000">js_parse_function_decl2</text>
</a>
</g>
</g>
<!-- Node313723&#45;&gt;Node313735 -->
<g id="edge27" class="edge">
<title>Node313723&#45;&gt;Node313735</title>
<path fill="none" stroke="#191970" d="M101.3765,-321.8067C183.3448,-319.9432 340.993,-315.93 475,-310 486.6316,-309.4853 498.9967,-308.8451 510.9731,-308.1764"/>
<polygon fill="#191970" stroke="#191970" points="101.2009,-318.3097 91.2823,-322.034 101.3586,-325.3079 101.2009,-318.3097"/>
</g>
<!-- Node313725 -->
<g id="node3" class="node">
<title>Node313725</title>
<g id="a_node3"><a xlink:href="quickjs_8c.html#a00eb789430243c24dab4a63ad6a79653" target="_top" xlink:title="js_parse_class">
<polygon fill="none" stroke="#000000" points="681,-256.5 681,-275.5 768,-275.5 768,-256.5 681,-256.5"/>
<text text-anchor="middle" x="724.5" y="-263.5" font-family="Helvetica,sans-Serif" font-size="10.00" fill="#000000">js_parse_class</text>
</a>
</g>
</g>
<!-- Node313724&#45;&gt;Node313725 -->
<g id="edge2" class="edge">
<title>Node313724&#45;&gt;Node313725</title>
<path fill="none" stroke="#191970" d="M205.4036,-283.5028C310.9525,-279.9439 575.8479,-271.0122 680.7429,-267.4754"/>
<polygon fill="#191970" stroke="#191970" points="205.2775,-280.005 195.4012,-283.8401 205.5135,-287.001 205.2775,-280.005"/>
</g>
<!-- Node313730 -->
<g id="node5" class="node">
<title>Node313730</title>
<g id="a_node5"><a xlink:href="quickjs_8c.html#a9d844c16dcc71701436848074337d32c" target="_top" xlink:title="js_parse_statement\l_or_decl">
<polygon fill="none" stroke="#ff0000" points="808.5,-109 808.5,-139 921.5,-139 921.5,-109 808.5,-109"/>
<text text-anchor="start" x="816.5" y="-127" font-family="Helvetica,sans-Serif" font-size="10.00" fill="#000000">js_parse_statement</text>
<text text-anchor="middle" x="865" y="-116" font-family="Helvetica,sans-Serif" font-size="10.00" fill="#000000">_or_decl</text>
</a>
</g>
</g>
<!-- Node313724&#45;&gt;Node313730 -->
<g id="edge24" class="edge">
<title>Node313724&#45;&gt;Node313730</title>
<path fill="none" stroke="#191970" d="M163.5038,-265.4314C169.198,-228.1305 186.2735,-146.031 231,-95 290.7529,-26.8244 320.845,0 411.5,0 411.5,0 411.5,0 578,0 686.5562,0 800.6643,-75.6836 845.3919,-108.7952"/>
<polygon fill="#191970" stroke="#191970" points="160.0168,-265.094 162.0841,-275.4852 166.9481,-266.0729 160.0168,-265.094"/>
</g>
<!-- Node313737 -->
<g id="node6" class="node">
<title>Node313737</title>
<g id="a_node6"><a xlink:href="quickjs_8c.html#a498e1d5c7de1b59c1630e9847cde1e41" target="_top" xlink:title="js_parse_export">
<polygon fill="none" stroke="#ff0000" points="818,-289.5 818,-308.5 912,-308.5 912,-289.5 818,-289.5"/>
<text text-anchor="middle" x="865" y="-296.5" font-family="Helvetica,sans-Serif" font-size="10.00" fill="#000000">js_parse_export</text>
</a>
</g>
</g>
<!-- Node313724&#45;&gt;Node313737 -->
<g id="edge25" class="edge">
<title>Node313724&#45;&gt;Node313737</title>
<path fill="none" stroke="#191970" d="M195.3567,-297.9581C243.1119,-314.7774 332.5932,-342 411.5,-342 411.5,-342 411.5,-342 578,-342 667.6809,-342 771.4022,-321.2112 826.2818,-308.5431"/>
<polygon fill="#191970" stroke="#191970" points="196.413,-294.6188 185.8184,-294.5405 194.0518,-301.2085 196.413,-294.6188"/>
</g>
<!-- Node313761 -->
<g id="node7" class="node">
<title>Node313761</title>
<g id="a_node7"><a xlink:href="quickjs_8c.html#a53e971ab3c46da0b7d48481b0696e138" target="_top" xlink:title="js_define_var">
<polygon fill="none" stroke="#000000" points="231,-104.5 231,-123.5 312,-123.5 312,-104.5 231,-104.5"/>
<text text-anchor="middle" x="271.5" y="-111.5" font-family="Helvetica,sans-Serif" font-size="10.00" fill="#000000">js_define_var</text>
</a>
</g>
</g>
<!-- Node313724&#45;&gt;Node313761 -->
<g id="edge8" class="edge">
<title>Node313724&#45;&gt;Node313761</title>
<path fill="none" stroke="#191970" d="M172.8034,-266.7342C196.1589,-230.5913 247.5436,-151.0729 265.3111,-123.5774"/>
<polygon fill="#191970" stroke="#191970" points="169.7454,-265.0177 167.2576,-275.3163 175.6247,-268.817 169.7454,-265.0177"/>
</g>
<!-- Node313724&#45;&gt;Node313735 -->
<g id="edge26" class="edge">
<title>Node313724&#45;&gt;Node313735</title>
<path fill="none" stroke="#191970" d="M205.371,-287.0217C278.5249,-290.3549 424.8792,-297.0233 510.7919,-300.9378"/>
<polygon fill="#191970" stroke="#191970" points="205.2738,-283.5137 195.1249,-286.5548 204.9552,-290.5065 205.2738,-283.5137"/>
</g>
<!-- Node313726 -->
<g id="node4" class="node">
<title>Node313726</title>
<g id="a_node4"><a xlink:href="quickjs_8c.html#a840642c87c5a82d4cc68333376a3b6de" target="_top" xlink:title="js_parse_postfix_expr">
<polygon fill="none" stroke="#ff0000" points="804,-223.5 804,-242.5 926,-242.5 926,-223.5 804,-223.5"/>
<text text-anchor="middle" x="865" y="-230.5" font-family="Helvetica,sans-Serif" font-size="10.00" fill="#000000">js_parse_postfix_expr</text>
</a>
</g>
</g>
<!-- Node313725&#45;&gt;Node313726 -->
<g id="edge3" class="edge">
<title>Node313725&#45;&gt;Node313726</title>
<path fill="none" stroke="#191970" d="M775.0169,-254.1348C791.2558,-250.3207 809.0256,-246.147 824.4529,-242.5235"/>
<polygon fill="#191970" stroke="#191970" points="774.0732,-250.7611 765.1384,-256.455 775.6738,-257.5757 774.0732,-250.7611"/>
</g>
<!-- Node313725&#45;&gt;Node313730 -->
<g id="edge5" class="edge">
<title>Node313725&#45;&gt;Node313730</title>
<path fill="none" stroke="#191970" d="M741.5249,-248.7933C769.2129,-220.8098 823.5527,-165.8898 849.9265,-139.2344"/>
<polygon fill="#191970" stroke="#191970" points="738.7026,-246.6695 734.1571,-256.2398 743.6786,-251.5929 738.7026,-246.6695"/>
</g>
<!-- Node313725&#45;&gt;Node313737 -->
<g id="edge7" class="edge">
<title>Node313725&#45;&gt;Node313737</title>
<path fill="none" stroke="#191970" d="M775.0169,-277.8652C791.2558,-281.6793 809.0256,-285.853 824.4529,-289.4765"/>
<polygon fill="#191970" stroke="#191970" points="775.6738,-274.4243 765.1384,-275.545 774.0732,-281.2389 775.6738,-274.4243"/>
</g>
<!-- Node313726&#45;&gt;Node313726 -->
<g id="edge4" class="edge">
<title>Node313726&#45;&gt;Node313726</title>
<path fill="none" stroke="#191970" d="M838.9584,-252.0292C840.3789,-257.128 849.0594,-261 865,-261 889.8828,-261 897.0755,-251.5653 886.5781,-242.7571"/>
<polygon fill="#191970" stroke="#191970" points="842.238,-253.2855 843.4219,-242.7571 835.9308,-250.2493 842.238,-253.2855"/>
</g>
<!-- Node313730&#45;&gt;Node313730 -->
<g id="edge6" class="edge">
<title>Node313730&#45;&gt;Node313730</title>
<path fill="none" stroke="#191970" d="M840.1237,-149.4579C843.2112,-154.179 851.5033,-157.5 865,-157.5 887.1484,-157.5 895.2811,-148.5566 889.3979,-139.159"/>
<polygon fill="#191970" stroke="#191970" points="843.6342,-149.3107 840.6021,-139.159 836.6418,-148.9858 843.6342,-149.3107"/>
</g>
<!-- Node313761&#45;&gt;Node313730 -->
<g id="edge23" class="edge">
<title>Node313761&#45;&gt;Node313730</title>
<path fill="none" stroke="#191970" d="M300.0346,-100.1082C314.1715,-93.7351 331.6728,-86.5923 348,-82 475.5187,-46.1329 513.7357,-39.1917 645,-57 711.4675,-66.0175 785.4425,-92.054 828.4462,-108.8886"/>
<polygon fill="#191970" stroke="#191970" points="298.4504,-96.9846 290.8409,-104.3566 301.3868,-103.339 298.4504,-96.9846"/>
</g>
<!-- Node313728 -->
<g id="node8" class="node">
<title>Node313728</title>
<g id="a_node8"><a xlink:href="quickjs_8c.html#a26be546cf89c4580ba9020e8fc43a759" target="_top" xlink:title="js_parse_destructuring\l_element">
<polygon fill="none" stroke="#000000" points="348,-159 348,-189 475,-189 475,-159 348,-159"/>
<text text-anchor="start" x="356" y="-177" font-family="Helvetica,sans-Serif" font-size="10.00" fill="#000000">js_parse_destructuring</text>
<text text-anchor="middle" x="411.5" y="-166" font-family="Helvetica,sans-Serif" font-size="10.00" fill="#000000">_element</text>
</a>
</g>
</g>
<!-- Node313761&#45;&gt;Node313728 -->
<g id="edge9" class="edge">
<title>Node313761&#45;&gt;Node313728</title>
<path fill="none" stroke="#191970" d="M303.1327,-127.5569C324.9024,-136.8867 353.8361,-149.2869 376.3302,-158.9272"/>
<polygon fill="#191970" stroke="#191970" points="304.2536,-124.2294 293.6834,-123.5072 301.4961,-130.6634 304.2536,-124.2294"/>
</g>
<!-- Node313729 -->
<g id="node9" class="node">
<title>Node313729</title>
<g id="a_node9"><a xlink:href="quickjs_8c.html#a9660cf21845352b14655d423389d6620" target="_top" xlink:title="js_parse_var">
<polygon fill="none" stroke="#000000" points="685.5,-180.5 685.5,-199.5 763.5,-199.5 763.5,-180.5 685.5,-180.5"/>
<text text-anchor="middle" x="724.5" y="-187.5" font-family="Helvetica,sans-Serif" font-size="10.00" fill="#000000">js_parse_var</text>
</a>
</g>
</g>
<!-- Node313761&#45;&gt;Node313729 -->
<g id="edge21" class="edge">
<title>Node313761&#45;&gt;Node313729</title>
<path fill="none" stroke="#191970" d="M322.3181,-121.8937C394.2452,-133.1587 529.8212,-154.7317 645,-175 658.1414,-177.3125 672.4774,-179.9744 685.3117,-182.4078"/>
<polygon fill="#191970" stroke="#191970" points="322.5985,-118.3951 312.1777,-120.3078 321.5168,-125.311 322.5985,-118.3951"/>
</g>
<!-- Node313732 -->
<g id="node10" class="node">
<title>Node313732</title>
<g id="a_node10"><a xlink:href="quickjs_8c.html#ac188b916dd086803591a67de7e7a85f6" target="_top" xlink:title="js_parse_for_in_of">
<polygon fill="none" stroke="#000000" points="525.5,-66.5 525.5,-85.5 630.5,-85.5 630.5,-66.5 525.5,-66.5"/>
<text text-anchor="middle" x="578" y="-73.5" font-family="Helvetica,sans-Serif" font-size="10.00" fill="#000000">js_parse_for_in_of</text>
</a>
</g>
</g>
<!-- Node313761&#45;&gt;Node313732 -->
<g id="edge22" class="edge">
<title>Node313761&#45;&gt;Node313732</title>
<path fill="none" stroke="#191970" d="M322.2173,-104.1521C330.8038,-102.6475 339.6427,-101.1989 348,-100 408.6043,-91.3057 478.6225,-84.4532 525.3327,-80.3334"/>
<polygon fill="#191970" stroke="#191970" points="321.5217,-100.7209 312.2973,-105.9326 322.7584,-107.6108 321.5217,-100.7209"/>
</g>
<!-- Node313728&#45;&gt;Node313726 -->
<g id="edge11" class="edge">
<title>Node313728&#45;&gt;Node313726</title>
<path fill="none" stroke="#191970" d="M484.4555,-191.1226C493.3685,-192.9208 502.3721,-194.5999 511,-196 613.167,-212.5792 733.1879,-223.3028 803.961,-228.7358"/>
<polygon fill="#191970" stroke="#191970" points="484.958,-187.6524 474.4558,-189.0502 483.5374,-194.5067 484.958,-187.6524"/>
</g>
<!-- Node313728&#45;&gt;Node313730 -->
<g id="edge17" class="edge">
<title>Node313728&#45;&gt;Node313730</title>
<path fill="none" stroke="#191970" d="M485.1987,-165.8745C575.5139,-155.9169 726.5841,-139.2608 808.3272,-130.2484"/>
<polygon fill="#191970" stroke="#191970" points="484.5909,-162.4202 475.0347,-166.9951 485.3581,-169.378 484.5909,-162.4202"/>
</g>
<!-- Node313728&#45;&gt;Node313728 -->
<g id="edge10" class="edge">
<title>Node313728&#45;&gt;Node313728</title>
<path fill="none" stroke="#191970" d="M386.6237,-199.4579C389.7112,-204.179 398.0033,-207.5 411.5,-207.5 433.6484,-207.5 441.7811,-198.5566 435.8979,-189.159"/>
<polygon fill="#191970" stroke="#191970" points="390.1342,-199.3107 387.1021,-189.159 383.1418,-198.9858 390.1342,-199.3107"/>
</g>
<!-- Node313728&#45;&gt;Node313729 -->
<g id="edge12" class="edge">
<title>Node313728&#45;&gt;Node313729</title>
<path fill="none" stroke="#191970" d="M485.4218,-177.7788C547.9582,-180.9755 635.1477,-185.4325 685.1159,-187.9868"/>
<polygon fill="#191970" stroke="#191970" points="485.3832,-174.2723 475.2175,-177.2571 485.0257,-181.2632 485.3832,-174.2723"/>
</g>
<!-- Node313728&#45;&gt;Node313732 -->
<g id="edge15" class="edge">
<title>Node313728&#45;&gt;Node313732</title>
<path fill="none" stroke="#191970" d="M446.1768,-153.5896C481.5749,-132.7547 534.9924,-101.3138 561.6536,-85.6213"/>
<polygon fill="#191970" stroke="#191970" points="443.9934,-150.8135 437.1507,-158.9023 447.5441,-156.8461 443.9934,-150.8135"/>
</g>
<!-- Node313728&#45;&gt;Node313735 -->
<g id="edge18" class="edge">
<title>Node313728&#45;&gt;Node313735</title>
<path fill="none" stroke="#191970" d="M439.2188,-195.6423C475.9641,-224.3323 539.243,-273.7393 565.7547,-294.4391"/>
<polygon fill="#191970" stroke="#191970" points="440.9615,-192.5625 430.9255,-189.1671 436.6536,-198.08 440.9615,-192.5625"/>
</g>
<!-- Node313729&#45;&gt;Node313730 -->
<g id="edge13" class="edge">
<title>Node313729&#45;&gt;Node313730</title>
<path fill="none" stroke="#191970" d="M754.2195,-176.0392C777.2765,-165.2082 809.1872,-150.2181 832.8401,-139.1071"/>
<polygon fill="#191970" stroke="#191970" points="752.4929,-172.9833 744.9299,-180.403 755.4692,-179.3191 752.4929,-172.9833"/>
</g>
<!-- Node313729&#45;&gt;Node313737 -->
<g id="edge14" class="edge">
<title>Node313729&#45;&gt;Node313737</title>
<path fill="none" stroke="#191970" d="M738.672,-207.4443C753.5528,-224.9361 778.32,-251.8153 804,-270 815.0052,-277.7931 828.4326,-284.4367 839.8851,-289.3909"/>
<polygon fill="#191970" stroke="#191970" points="741.2954,-205.1252 732.2004,-199.6907 735.9213,-209.6107 741.2954,-205.1252"/>
</g>
<!-- Node313732&#45;&gt;Node313730 -->
<g id="edge16" class="edge">
<title>Node313732&#45;&gt;Node313730</title>
<path fill="none" stroke="#191970" d="M640.674,-86.4821C690.6208,-94.8355 759.9537,-106.4313 808.2713,-114.5123"/>
<polygon fill="#191970" stroke="#191970" points="641.0806,-83.0015 630.6402,-84.8039 639.9259,-89.9056 641.0806,-83.0015"/>
</g>
<!-- Node313735&#45;&gt;Node313725 -->
<g id="edge19" class="edge">
<title>Node313735&#45;&gt;Node313725</title>
<path fill="none" stroke="#191970" d="M624.6954,-291.8879C645.0986,-286.5956 668.6808,-280.4787 687.7977,-275.5201"/>
<polygon fill="#191970" stroke="#191970" points="623.769,-288.5123 614.9681,-294.411 625.5266,-295.288 623.769,-288.5123"/>
</g>
<!-- Node313735&#45;&gt;Node313737 -->
<g id="edge20" class="edge">
<title>Node313735&#45;&gt;Node313737</title>
<path fill="none" stroke="#191970" d="M655.4477,-302.6507C707.2779,-301.7478 773.8126,-300.5886 817.8489,-299.8214"/>
<polygon fill="#191970" stroke="#191970" points="655.2262,-299.154 645.2887,-302.8277 655.3482,-306.1529 655.2262,-299.154"/>
</g>
</g>
</svg>
        <g id="navigator" transform="translate(0 0)" fill="#404254">
                <rect fill="#f2f5e9" fill-opacity="0.5" stroke="#606060" stroke-width=".5" x="0" y="0" width="60" height="60"/>
                <use id="zoomplus" xlink:href="#zoomPlus" x="17" y="9" onmousedown="handleZoom(evt,'in')"/>
                <use id="zoomminus" xlink:href="#zoomMin" x="42" y="9" onmousedown="handleZoom(evt,'out')"/>
                <use id="reset" xlink:href="#resetDef" x="30" y="36" onmousedown="handleReset()"/>
                <g id="arrowUp" xlink:href="#dirArrow" transform="translate(30 24)" onmousedown="handlePan(0,-1)">
                  <use xlink:href="#rim" fill="#404040">
                        <set attributeName="fill" to="#808080" begin="arrowUp.mouseover" end="arrowUp.mouseout"/>
                  </use>
                  <path fill="none" stroke="white" stroke-width="1.5" d="M0,-3.0v7 M-2.5,-0.5L0,-3.0L2.5,-0.5"/>
                </g>
                <g id="arrowRight" xlink:href="#dirArrow" transform="rotate(90) translate(36 -43)" onmousedown="handlePan(1,0)">
                  <use xlink:href="#rim" fill="#404040">
                        <set attributeName="fill" to="#808080" begin="arrowRight.mouseover" end="arrowRight.mouseout"/>
                  </use>
                  <path fill="none" stroke="white" stroke-width="1.5" d="M0,-3.0v7 M-2.5,-0.5L0,-3.0L2.5,-0.5"/>
                </g>
                <g id="arrowDown" xlink:href="#dirArrow" transform="rotate(180) translate(-30 -48)" onmousedown="handlePan(0,1)">
                  <use xlink:href="#rim" fill="#404040">
                        <set attributeName="fill" to="#808080" begin="arrowDown.mouseover" end="arrowDown.mouseout"/>
                  </use>
                  <path fill="none" stroke="white" stroke-width="1.5" d="M0,-3.0v7 M-2.5,-0.5L0,-3.0L2.5,-0.5"/>
                </g>
                <g id="arrowLeft" xlink:href="#dirArrow" transform="rotate(270) translate(-36 17)" onmousedown="handlePan(-1,0)">
                  <use xlink:href="#rim" fill="#404040">
                        <set attributeName="fill" to="#808080" begin="arrowLeft.mouseover" end="arrowLeft.mouseout"/>
                  </use>
                  <path fill="none" stroke="white" stroke-width="1.5" d="M0,-3.0v7 M-2.5,-0.5L0,-3.0L2.5,-0.5"/>
                </g>
        </g>
        <svg viewBox="0 0 15 15" width="100%" height="30px" preserveAspectRatio="xMaxYMin meet">
         <g id="arrow_out" transform="scale(0.3 0.3)">
          <a xlink:href="quickjs_8c_ae7344d4ed92b31de7c7ef8716b911cb8_icgraph_org.svg" target="_base">
           <rect id="button" ry="5" rx="5" y="6" x="6" height="38" width="38"
                fill="#f2f5e9" fill-opacity="0.5" stroke="#606060" stroke-width="1.0"/>
           <path id="arrow"
             d="M 11.500037,31.436501 C 11.940474,20.09759 22.043105,11.32322 32.158766,21.979434 L 37.068811,17.246167 C 37.068811,17.246167 37.088388,32 37.088388,32 L 22.160133,31.978069 C 22.160133,31.978069 26.997745,27.140456 26.997745,27.140456 C 18.528582,18.264221 13.291696,25.230495 11.500037,31.436501 z"
             style="fill:#404040;"/>
          </a>
         </g>
        </svg>
</svg>
