<?xml version="1.0" encoding="UTF-8" standalone="no"?>
<!DOCTYPE svg PUBLIC "-//W3C//DTD SVG 1.1//EN"
 "http://www.w3.org/Graphics/SVG/1.1/DTD/svg11.dtd">
<!-- Generated by graphviz version 2.40.1 (20161225.0304)
 -->
<!-- Title: JS_ToBoolFree Pages: 1 -->
<svg width="467pt" height="28pt"
 viewBox="0.00 0.00 467.00 28.00" xmlns="http://www.w3.org/2000/svg" xmlns:xlink="http://www.w3.org/1999/xlink">
<g id="graph0" class="graph" transform="scale(1 1) rotate(0) translate(4 24)">
<title>JS_ToBoolFree</title>
<!-- Node233028 -->
<g id="node1" class="node">
<title>Node233028</title>
<polygon fill="#bfbfbf" stroke="#000000" points="0,-.5 0,-19.5 83,-19.5 83,-.5 0,-.5"/>
<text text-anchor="middle" x="41.5" y="-7.5" font-family="Helvetica,sans-Serif" font-size="10.00" fill="#000000">JS_ToBoolFree</text>
</g>
<!-- Node233029 -->
<g id="node2" class="node">
<title>Node233029</title>
<g id="a_node2"><a xlink:href="quickjs_8h.html#afaa20c47565bc704c6c85f3d77254e7d" target="_top" xlink:title="JS_FreeValue">
<polygon fill="none" stroke="#000000" points="119,-.5 119,-19.5 197,-19.5 197,-.5 119,-.5"/>
<text text-anchor="middle" x="158" y="-7.5" font-family="Helvetica,sans-Serif" font-size="10.00" fill="#000000">JS_FreeValue</text>
</a>
</g>
</g>
<!-- Node233028&#45;&gt;Node233029 -->
<g id="edge1" class="edge">
<title>Node233028&#45;&gt;Node233029</title>
<path fill="none" stroke="#191970" d="M83.2301,-10C91.4924,-10 100.238,-10 108.7233,-10"/>
<polygon fill="#191970" stroke="#191970" points="108.8945,-13.5001 118.8945,-10 108.8945,-6.5001 108.8945,-13.5001"/>
</g>
<!-- Node233030 -->
<g id="node3" class="node">
<title>Node233030</title>
<g id="a_node3"><a xlink:href="quickjs_8c.html#aa059f309c30fd5166d16c82a97973146" target="_top" xlink:title="__JS_FreeValue">
<polygon fill="none" stroke="#000000" points="233,-.5 233,-19.5 322,-19.5 322,-.5 233,-.5"/>
<text text-anchor="middle" x="277.5" y="-7.5" font-family="Helvetica,sans-Serif" font-size="10.00" fill="#000000">__JS_FreeValue</text>
</a>
</g>
</g>
<!-- Node233029&#45;&gt;Node233030 -->
<g id="edge2" class="edge">
<title>Node233029&#45;&gt;Node233030</title>
<path fill="none" stroke="#191970" d="M197.1288,-10C205.3481,-10 214.1608,-10 222.8298,-10"/>
<polygon fill="#191970" stroke="#191970" points="222.8964,-13.5001 232.8964,-10 222.8964,-6.5001 222.8964,-13.5001"/>
</g>
<!-- Node233031 -->
<g id="node4" class="node">
<title>Node233031</title>
<g id="a_node4"><a xlink:href="quickjs_8c.html#ab1ea3fad7d138be12144a38be4d36423" target="_top" xlink:title="__JS_FreeValueRT">
<polygon fill="none" stroke="#ff0000" points="358,-.5 358,-19.5 459,-19.5 459,-.5 358,-.5"/>
<text text-anchor="middle" x="408.5" y="-7.5" font-family="Helvetica,sans-Serif" font-size="10.00" fill="#000000">__JS_FreeValueRT</text>
</a>
</g>
</g>
<!-- Node233030&#45;&gt;Node233031 -->
<g id="edge3" class="edge">
<title>Node233030&#45;&gt;Node233031</title>
<path fill="none" stroke="#191970" d="M322.2164,-10C330.3314,-10 338.9213,-10 347.4118,-10"/>
<polygon fill="#191970" stroke="#191970" points="347.6806,-13.5001 357.6806,-10 347.6806,-6.5001 347.6806,-13.5001"/>
</g>
</g>
</svg>
