<?xml version="1.0" encoding="UTF-8" standalone="no"?>
<!DOCTYPE svg PUBLIC "-//W3C//DTD SVG 1.1//EN"
 "http://www.w3.org/Graphics/SVG/1.1/DTD/svg11.dtd">
<!-- Generated by graphviz version 2.40.1 (20161225.0304)
 -->
<!-- Title: compute_bytecode_size Pages: 1 -->
<svg width="455pt" height="28pt"
 viewBox="0.00 0.00 455.00 28.00" xmlns="http://www.w3.org/2000/svg" xmlns:xlink="http://www.w3.org/1999/xlink">
<g id="graph0" class="graph" transform="scale(1 1) rotate(0) translate(4 24)">
<title>compute_bytecode_size</title>
<!-- Node161037 -->
<g id="node1" class="node">
<title>Node161037</title>
<polygon fill="#bfbfbf" stroke="#000000" points="0,-.5 0,-19.5 134,-19.5 134,-.5 0,-.5"/>
<text text-anchor="middle" x="67" y="-7.5" font-family="Helvetica,sans-Serif" font-size="10.00" fill="#000000">compute_bytecode_size</text>
</g>
<!-- Node161038 -->
<g id="node2" class="node">
<title>Node161038</title>
<g id="a_node2"><a xlink:href="quickjs_8c.html#a02e921d8d8c590841f10f15a94a81590" target="_top" xlink:title="compute_value_size">
<polygon fill="none" stroke="#000000" points="170,-.5 170,-19.5 286,-19.5 286,-.5 170,-.5"/>
<text text-anchor="middle" x="228" y="-7.5" font-family="Helvetica,sans-Serif" font-size="10.00" fill="#000000">compute_value_size</text>
</a>
</g>
</g>
<!-- Node161037&#45;&gt;Node161038 -->
<g id="edge1" class="edge">
<title>Node161037&#45;&gt;Node161038</title>
<path fill="none" stroke="#191970" d="M134.3456,-10C142.7383,-10 151.327,-10 159.7335,-10"/>
<polygon fill="#191970" stroke="#191970" points="159.8718,-13.5001 169.8717,-10 159.8717,-6.5001 159.8718,-13.5001"/>
</g>
<!-- Node161039 -->
<g id="node3" class="node">
<title>Node161039</title>
<g id="a_node3"><a xlink:href="quickjs_8c.html#afc0fdd91d84f1430192c8a4de7f7e70c" target="_top" xlink:title="compute_jsstring_size">
<polygon fill="none" stroke="#000000" points="322,-.5 322,-19.5 447,-19.5 447,-.5 322,-.5"/>
<text text-anchor="middle" x="384.5" y="-7.5" font-family="Helvetica,sans-Serif" font-size="10.00" fill="#000000">compute_jsstring_size</text>
</a>
</g>
</g>
<!-- Node161038&#45;&gt;Node161039 -->
<g id="edge2" class="edge">
<title>Node161038&#45;&gt;Node161039</title>
<path fill="none" stroke="#191970" d="M286.2748,-10C294.6448,-10 303.3416,-10 311.946,-10"/>
<polygon fill="#191970" stroke="#191970" points="311.9794,-13.5001 321.9794,-10 311.9794,-6.5001 311.9794,-13.5001"/>
</g>
</g>
</svg>
