<?xml version="1.0" encoding="UTF-8" standalone="no"?>
<!DOCTYPE svg PUBLIC "-//W3C//DTD SVG 1.1//EN"
 "http://www.w3.org/Graphics/SVG/1.1/DTD/svg11.dtd">
<!-- Generated by graphviz version 2.40.1 (20161225.0304)
 -->
<!-- Title: js_free_message_pipe Pages: 1 -->
<!--zoomable 66 -->
<svg id="main" version="1.1" xmlns="http://www.w3.org/2000/svg" xmlns:xlink="http://www.w3.org/1999/xlink" xml:space="preserve" onload="init(evt)">
<style type="text/css"><![CDATA[
.edge:hover path { stroke: red; }
.edge:hover polygon { stroke: red; fill: red; }
]]></style>
<script type="text/javascript"><![CDATA[
var edges = document.getElementsByTagName('g');
if (edges && edges.length) {
  for (var i=0;i<edges.length;i++) {
    if (edges[i].id.substr(0,4)=='edge') {
      edges[i].setAttribute('class','edge');
    }
  }
}
]]></script>
        <defs>
                <circle id="rim" cx="0" cy="0" r="7"/>
                <circle id="rim2" cx="0" cy="0" r="3.5"/>
                <g id="zoomPlus">
                        <use xlink:href="#rim" fill="#404040">
                                <set attributeName="fill" to="#808080" begin="zoomplus.mouseover" end="zoomplus.mouseout"/>
                        </use>
                        <path d="M-4,0h8M0,-4v8" fill="none" stroke="white" stroke-width="1.5" pointer-events="none"/>
                </g>
                <g id="zoomMin">
                        <use xlink:href="#rim" fill="#404040">
                                <set attributeName="fill" to="#808080" begin="zoomminus.mouseover" end="zoomminus.mouseout"/>
                        </use>
                        <path d="M-4,0h8" fill="none" stroke="white" stroke-width="1.5" pointer-events="none"/>
                </g>
                <g id="dirArrow">
                        <path fill="none" stroke="white" stroke-width="1.5" d="M0,-3.0v7 M-2.5,-0.5L0,-3.0L2.5,-0.5"/>
                </g>
               <g id="resetDef">
                       <use xlink:href="#rim2" fill="#404040">
                               <set attributeName="fill" to="#808080" begin="reset.mouseover" end="reset.mouseout"/>
                       </use>
               </g>
        </defs>

<script type="text/javascript">
var viewWidth = 579;
var viewHeight = 66;
var sectionId = 'dynsection-127';
</script>
<script xlink:href="svgpan.js"/>
<svg id="graph" class="graph">
<g id="viewport">
<title>js_free_message_pipe</title>
<!-- Node28359 -->
<g id="node1" class="node">
<title>Node28359</title>
<polygon fill="#bfbfbf" stroke="#000000" points="0,-19.5 0,-38.5 125,-38.5 125,-19.5 0,-19.5"/>
<text text-anchor="middle" x="62.5" y="-26.5" font-family="Helvetica,sans-Serif" font-size="10.00" fill="#000000">js_free_message_pipe</text>
</g>
<!-- Node28360 -->
<g id="node2" class="node">
<title>Node28360</title>
<g id="a_node2"><a xlink:href="quickjs-libc_8c.html#a23e6bef6353d5de8d3103a30b107965e" target="_top" xlink:title="js_free_port">
<polygon fill="none" stroke="#000000" points="168,-38.5 168,-57.5 242,-57.5 242,-38.5 168,-38.5"/>
<text text-anchor="middle" x="205" y="-45.5" font-family="Helvetica,sans-Serif" font-size="10.00" fill="#000000">js_free_port</text>
</a>
</g>
</g>
<!-- Node28359&#45;&gt;Node28360 -->
<g id="edge1" class="edge">
<title>Node28359&#45;&gt;Node28360</title>
<path fill="none" stroke="#191970" d="M135.0126,-38.6683C146.4242,-40.1899 157.7925,-41.7057 167.9463,-43.0595"/>
<polygon fill="#191970" stroke="#191970" points="135.3775,-35.1861 125.0026,-37.3337 134.4523,-42.1247 135.3775,-35.1861"/>
</g>
<!-- Node28362 -->
<g id="node4" class="node">
<title>Node28362</title>
<g id="a_node4"><a xlink:href="quickjs-libc_8c.html#aff1e6131e8bf8b7eb25307623ad669e7" target="_top" xlink:title="js_worker_ctor">
<polygon fill="none" stroke="#000000" points="161,-.5 161,-19.5 249,-19.5 249,-.5 161,-.5"/>
<text text-anchor="middle" x="205" y="-7.5" font-family="Helvetica,sans-Serif" font-size="10.00" fill="#000000">js_worker_ctor</text>
</a>
</g>
</g>
<!-- Node28359&#45;&gt;Node28362 -->
<g id="edge3" class="edge">
<title>Node28359&#45;&gt;Node28362</title>
<path fill="none" stroke="#191970" d="M134.9879,-19.3349C143.8483,-18.1536 152.6832,-16.9756 160.9443,-15.8741"/>
<polygon fill="#191970" stroke="#191970" points="134.4523,-15.8753 125.0026,-20.6663 135.3775,-22.8139 134.4523,-15.8753"/>
</g>
<!-- Node28361 -->
<g id="node3" class="node">
<title>Node28361</title>
<g id="a_node3"><a xlink:href="quickjs-libc_8c.html#a0a99fb986f4b8862e7e44dcb16a9dc96" target="_top" xlink:title="js_worker_set_onmessage">
<polygon fill="none" stroke="#000000" points="285,-38.5 285,-57.5 431,-57.5 431,-38.5 285,-38.5"/>
<text text-anchor="middle" x="358" y="-45.5" font-family="Helvetica,sans-Serif" font-size="10.00" fill="#000000">js_worker_set_onmessage</text>
</a>
</g>
</g>
<!-- Node28360&#45;&gt;Node28361 -->
<g id="edge2" class="edge">
<title>Node28360&#45;&gt;Node28361</title>
<path fill="none" stroke="#191970" d="M252.0736,-48C262.4278,-48 273.6305,-48 284.7419,-48"/>
<polygon fill="#191970" stroke="#191970" points="252.0371,-44.5001 242.037,-48 252.037,-51.5001 252.0371,-44.5001"/>
</g>
<!-- Node28363 -->
<g id="node5" class="node">
<title>Node28363</title>
<g id="a_node5"><a xlink:href="quickjs-libc_8c.html#a066e7962ce24f22d5df20968a8baa346" target="_top" xlink:title="js_os_init">
<polygon fill="none" stroke="#000000" points="327,-.5 327,-19.5 389,-19.5 389,-.5 327,-.5"/>
<text text-anchor="middle" x="358" y="-7.5" font-family="Helvetica,sans-Serif" font-size="10.00" fill="#000000">js_os_init</text>
</a>
</g>
</g>
<!-- Node28362&#45;&gt;Node28363 -->
<g id="edge4" class="edge">
<title>Node28362&#45;&gt;Node28363</title>
<path fill="none" stroke="#191970" d="M259.4331,-10C282.0901,-10 307.5712,-10 326.9489,-10"/>
<polygon fill="#191970" stroke="#191970" points="259.254,-6.5001 249.2539,-10 259.2539,-13.5001 259.254,-6.5001"/>
</g>
<!-- Node28364 -->
<g id="node6" class="node">
<title>Node28364</title>
<g id="a_node6"><a xlink:href="quickjs-libc_8c.html#adcca2b4a661355e6ff87a0def2339894" target="_top" xlink:title="js_init_module_os">
<polygon fill="none" stroke="#ff0000" points="467,-.5 467,-19.5 571,-19.5 571,-.5 467,-.5"/>
<text text-anchor="middle" x="519" y="-7.5" font-family="Helvetica,sans-Serif" font-size="10.00" fill="#000000">js_init_module_os</text>
</a>
</g>
</g>
<!-- Node28363&#45;&gt;Node28364 -->
<g id="edge5" class="edge">
<title>Node28363&#45;&gt;Node28364</title>
<path fill="none" stroke="#191970" d="M399.0585,-10C419.6682,-10 444.8592,-10 466.8252,-10"/>
<polygon fill="#191970" stroke="#191970" points="399.0425,-6.5001 389.0424,-10 399.0424,-13.5001 399.0425,-6.5001"/>
</g>
</g>
</svg>
        <g id="navigator" transform="translate(0 0)" fill="#404254">
                <rect fill="#f2f5e9" fill-opacity="0.5" stroke="#606060" stroke-width=".5" x="0" y="0" width="60" height="60"/>
                <use id="zoomplus" xlink:href="#zoomPlus" x="17" y="9" onmousedown="handleZoom(evt,'in')"/>
                <use id="zoomminus" xlink:href="#zoomMin" x="42" y="9" onmousedown="handleZoom(evt,'out')"/>
                <use id="reset" xlink:href="#resetDef" x="30" y="36" onmousedown="handleReset()"/>
                <g id="arrowUp" xlink:href="#dirArrow" transform="translate(30 24)" onmousedown="handlePan(0,-1)">
                  <use xlink:href="#rim" fill="#404040">
                        <set attributeName="fill" to="#808080" begin="arrowUp.mouseover" end="arrowUp.mouseout"/>
                  </use>
                  <path fill="none" stroke="white" stroke-width="1.5" d="M0,-3.0v7 M-2.5,-0.5L0,-3.0L2.5,-0.5"/>
                </g>
                <g id="arrowRight" xlink:href="#dirArrow" transform="rotate(90) translate(36 -43)" onmousedown="handlePan(1,0)">
                  <use xlink:href="#rim" fill="#404040">
                        <set attributeName="fill" to="#808080" begin="arrowRight.mouseover" end="arrowRight.mouseout"/>
                  </use>
                  <path fill="none" stroke="white" stroke-width="1.5" d="M0,-3.0v7 M-2.5,-0.5L0,-3.0L2.5,-0.5"/>
                </g>
                <g id="arrowDown" xlink:href="#dirArrow" transform="rotate(180) translate(-30 -48)" onmousedown="handlePan(0,1)">
                  <use xlink:href="#rim" fill="#404040">
                        <set attributeName="fill" to="#808080" begin="arrowDown.mouseover" end="arrowDown.mouseout"/>
                  </use>
                  <path fill="none" stroke="white" stroke-width="1.5" d="M0,-3.0v7 M-2.5,-0.5L0,-3.0L2.5,-0.5"/>
                </g>
                <g id="arrowLeft" xlink:href="#dirArrow" transform="rotate(270) translate(-36 17)" onmousedown="handlePan(-1,0)">
                  <use xlink:href="#rim" fill="#404040">
                        <set attributeName="fill" to="#808080" begin="arrowLeft.mouseover" end="arrowLeft.mouseout"/>
                  </use>
                  <path fill="none" stroke="white" stroke-width="1.5" d="M0,-3.0v7 M-2.5,-0.5L0,-3.0L2.5,-0.5"/>
                </g>
        </g>
        <svg viewBox="0 0 15 15" width="100%" height="30px" preserveAspectRatio="xMaxYMin meet">
         <g id="arrow_out" transform="scale(0.3 0.3)">
          <a xlink:href="quickjs-libc_8c_a2c8234980adfda2a29db3b01cbdc8362_icgraph_org.svg" target="_base">
           <rect id="button" ry="5" rx="5" y="6" x="6" height="38" width="38"
                fill="#f2f5e9" fill-opacity="0.5" stroke="#606060" stroke-width="1.0"/>
           <path id="arrow"
             d="M 11.500037,31.436501 C 11.940474,20.09759 22.043105,11.32322 32.158766,21.979434 L 37.068811,17.246167 C 37.068811,17.246167 37.088388,32 37.088388,32 L 22.160133,31.978069 C 22.160133,31.978069 26.997745,27.140456 26.997745,27.140456 C 18.528582,18.264221 13.291696,25.230495 11.500037,31.436501 z"
             style="fill:#404040;"/>
          </a>
         </g>
        </svg>
</svg>
