<?xml version="1.0" encoding="UTF-8" standalone="no"?>
<!DOCTYPE svg PUBLIC "-//W3C//DTD SVG 1.1//EN"
 "http://www.w3.org/Graphics/SVG/1.1/DTD/svg11.dtd">
<!-- Generated by graphviz version 2.40.1 (20161225.0304)
 -->
<!-- Title: js_same_value_zero Pages: 1 -->
<!--zoomable 123 -->
<svg id="main" version="1.1" xmlns="http://www.w3.org/2000/svg" xmlns:xlink="http://www.w3.org/1999/xlink" xml:space="preserve" onload="init(evt)">
<style type="text/css"><![CDATA[
.edge:hover path { stroke: red; }
.edge:hover polygon { stroke: red; fill: red; }
]]></style>
<script type="text/javascript"><![CDATA[
var edges = document.getElementsByTagName('g');
if (edges && edges.length) {
  for (var i=0;i<edges.length;i++) {
    if (edges[i].id.substr(0,4)=='edge') {
      edges[i].setAttribute('class','edge');
    }
  }
}
]]></script>
        <defs>
                <circle id="rim" cx="0" cy="0" r="7"/>
                <circle id="rim2" cx="0" cy="0" r="3.5"/>
                <g id="zoomPlus">
                        <use xlink:href="#rim" fill="#404040">
                                <set attributeName="fill" to="#808080" begin="zoomplus.mouseover" end="zoomplus.mouseout"/>
                        </use>
                        <path d="M-4,0h8M0,-4v8" fill="none" stroke="white" stroke-width="1.5" pointer-events="none"/>
                </g>
                <g id="zoomMin">
                        <use xlink:href="#rim" fill="#404040">
                                <set attributeName="fill" to="#808080" begin="zoomminus.mouseover" end="zoomminus.mouseout"/>
                        </use>
                        <path d="M-4,0h8" fill="none" stroke="white" stroke-width="1.5" pointer-events="none"/>
                </g>
                <g id="dirArrow">
                        <path fill="none" stroke="white" stroke-width="1.5" d="M0,-3.0v7 M-2.5,-0.5L0,-3.0L2.5,-0.5"/>
                </g>
               <g id="resetDef">
                       <use xlink:href="#rim2" fill="#404040">
                               <set attributeName="fill" to="#808080" begin="reset.mouseover" end="reset.mouseout"/>
                       </use>
               </g>
        </defs>

<script type="text/javascript">
var viewWidth = 526;
var viewHeight = 123;
var sectionId = 'dynsection-31';
</script>
<script xlink:href="svgpan.js"/>
<svg id="graph" class="graph">
<g id="viewport">
<title>js_same_value_zero</title>
<!-- Node10981 -->
<g id="node1" class="node">
<title>Node10981</title>
<polygon fill="#bfbfbf" stroke="#000000" points="0,-76.5 0,-95.5 116,-95.5 116,-76.5 0,-76.5"/>
<text text-anchor="middle" x="58" y="-83.5" font-family="Helvetica,sans-Serif" font-size="10.00" fill="#000000">js_same_value_zero</text>
</g>
<!-- Node10982 -->
<g id="node2" class="node">
<title>Node10982</title>
<g id="a_node2"><a xlink:href="quickjs_8h.html#a775522f2d084fc8fa0fcb33f390006b4" target="_top" xlink:title="JS_DupValue">
<polygon fill="none" stroke="#000000" points="152.5,-95.5 152.5,-114.5 229.5,-114.5 229.5,-95.5 152.5,-95.5"/>
<text text-anchor="middle" x="191" y="-102.5" font-family="Helvetica,sans-Serif" font-size="10.00" fill="#000000">JS_DupValue</text>
</a>
</g>
</g>
<!-- Node10981&#45;&gt;Node10982 -->
<g id="edge1" class="edge">
<title>Node10981&#45;&gt;Node10982</title>
<path fill="none" stroke="#191970" d="M116.3357,-94.3337C124.9697,-95.5671 133.7901,-96.8272 142.2028,-98.029"/>
<polygon fill="#191970" stroke="#191970" points="141.8278,-101.5109 152.2223,-99.4603 142.8178,-94.5812 141.8278,-101.5109"/>
</g>
<!-- Node10983 -->
<g id="node3" class="node">
<title>Node10983</title>
<g id="a_node3"><a xlink:href="quickjs_8c.html#a6b7e8c810c238daa5ac20c70c2f22b24" target="_top" xlink:title="js_strict_eq2">
<polygon fill="none" stroke="#000000" points="152,-57.5 152,-76.5 230,-76.5 230,-57.5 152,-57.5"/>
<text text-anchor="middle" x="191" y="-64.5" font-family="Helvetica,sans-Serif" font-size="10.00" fill="#000000">js_strict_eq2</text>
</a>
</g>
</g>
<!-- Node10981&#45;&gt;Node10983 -->
<g id="edge2" class="edge">
<title>Node10981&#45;&gt;Node10983</title>
<path fill="none" stroke="#191970" d="M116.3357,-77.6663C124.8705,-76.4471 133.5873,-75.2018 141.9125,-74.0125"/>
<polygon fill="#191970" stroke="#191970" points="142.4301,-77.4742 151.8346,-72.5951 141.4401,-70.5445 142.4301,-77.4742"/>
</g>
<!-- Node10984 -->
<g id="node4" class="node">
<title>Node10984</title>
<g id="a_node4"><a xlink:href="quickjs_8h.html#afaa20c47565bc704c6c85f3d77254e7d" target="_top" xlink:title="JS_FreeValue">
<polygon fill="none" stroke="#000000" points="280,-76.5 280,-95.5 358,-95.5 358,-76.5 280,-76.5"/>
<text text-anchor="middle" x="319" y="-83.5" font-family="Helvetica,sans-Serif" font-size="10.00" fill="#000000">JS_FreeValue</text>
</a>
</g>
</g>
<!-- Node10983&#45;&gt;Node10984 -->
<g id="edge3" class="edge">
<title>Node10983&#45;&gt;Node10984</title>
<path fill="none" stroke="#191970" d="M230.0997,-72.8039C242.5143,-74.6467 256.4099,-76.7093 269.4592,-78.6463"/>
<polygon fill="#191970" stroke="#191970" points="269.2931,-82.1599 279.6986,-80.1662 270.3209,-75.2358 269.2931,-82.1599"/>
</g>
<!-- Node11022 -->
<g id="node6" class="node">
<title>Node11022</title>
<g id="a_node6"><a xlink:href="quickjs_8c.html#a3d9b165d4274aa43e051caba9bcbbe9f" target="_top" xlink:title="js_string_compare">
<polygon fill="none" stroke="#000000" points="266,-38.5 266,-57.5 372,-57.5 372,-38.5 266,-38.5"/>
<text text-anchor="middle" x="319" y="-45.5" font-family="Helvetica,sans-Serif" font-size="10.00" fill="#000000">js_string_compare</text>
</a>
</g>
</g>
<!-- Node10983&#45;&gt;Node11022 -->
<g id="edge5" class="edge">
<title>Node10983&#45;&gt;Node11022</title>
<path fill="none" stroke="#191970" d="M230.0997,-61.1961C238.326,-59.9751 247.2025,-58.6574 256.0521,-57.3438"/>
<polygon fill="#191970" stroke="#191970" points="256.6185,-60.7982 265.9962,-55.8678 255.5906,-53.8741 256.6185,-60.7982"/>
</g>
<!-- Node10985 -->
<g id="node5" class="node">
<title>Node10985</title>
<g id="a_node5"><a xlink:href="quickjs_8c.html#aa059f309c30fd5166d16c82a97973146" target="_top" xlink:title="__JS_FreeValue">
<polygon fill="none" stroke="#ff0000" points="418.5,-76.5 418.5,-95.5 507.5,-95.5 507.5,-76.5 418.5,-76.5"/>
<text text-anchor="middle" x="463" y="-83.5" font-family="Helvetica,sans-Serif" font-size="10.00" fill="#000000">__JS_FreeValue</text>
</a>
</g>
</g>
<!-- Node10984&#45;&gt;Node10985 -->
<g id="edge4" class="edge">
<title>Node10984&#45;&gt;Node10985</title>
<path fill="none" stroke="#191970" d="M358.3486,-86C373.7268,-86 391.6262,-86 408.2275,-86"/>
<polygon fill="#191970" stroke="#191970" points="408.3622,-89.5001 418.3622,-86 408.3621,-82.5001 408.3622,-89.5001"/>
</g>
<!-- Node11023 -->
<g id="node7" class="node">
<title>Node11023</title>
<g id="a_node7"><a xlink:href="cutils_8h.html#a29a7a26d9387c01c1b4e9fe4fff5704a" target="_top" xlink:title="min_int">
<polygon fill="none" stroke="#000000" points="436.5,-38.5 436.5,-57.5 489.5,-57.5 489.5,-38.5 436.5,-38.5"/>
<text text-anchor="middle" x="463" y="-45.5" font-family="Helvetica,sans-Serif" font-size="10.00" fill="#000000">min_int</text>
</a>
</g>
</g>
<!-- Node11022&#45;&gt;Node11023 -->
<g id="edge6" class="edge">
<title>Node11022&#45;&gt;Node11023</title>
<path fill="none" stroke="#191970" d="M372.2112,-48C390.0874,-48 409.6251,-48 425.9812,-48"/>
<polygon fill="#191970" stroke="#191970" points="426.2206,-51.5001 436.2206,-48 426.2206,-44.5001 426.2206,-51.5001"/>
</g>
<!-- Node11024 -->
<g id="node8" class="node">
<title>Node11024</title>
<g id="a_node8"><a xlink:href="quickjs_8c.html#aa3b85ecf2f1fbd87cb38b78548286017" target="_top" xlink:title="js_string_memcmp">
<polygon fill="none" stroke="#ff0000" points="408,-.5 408,-19.5 518,-19.5 518,-.5 408,-.5"/>
<text text-anchor="middle" x="463" y="-7.5" font-family="Helvetica,sans-Serif" font-size="10.00" fill="#000000">js_string_memcmp</text>
</a>
</g>
</g>
<!-- Node11022&#45;&gt;Node11024 -->
<g id="edge7" class="edge">
<title>Node11022&#45;&gt;Node11024</title>
<path fill="none" stroke="#191970" d="M355.3373,-38.411C374.0829,-33.4642 397.1432,-27.3789 417.1066,-22.1108"/>
<polygon fill="#191970" stroke="#191970" points="418.1481,-25.4558 426.924,-19.5201 416.3619,-18.6875 418.1481,-25.4558"/>
</g>
</g>
</svg>
        <g id="navigator" transform="translate(0 0)" fill="#404254">
                <rect fill="#f2f5e9" fill-opacity="0.5" stroke="#606060" stroke-width=".5" x="0" y="0" width="60" height="60"/>
                <use id="zoomplus" xlink:href="#zoomPlus" x="17" y="9" onmousedown="handleZoom(evt,'in')"/>
                <use id="zoomminus" xlink:href="#zoomMin" x="42" y="9" onmousedown="handleZoom(evt,'out')"/>
                <use id="reset" xlink:href="#resetDef" x="30" y="36" onmousedown="handleReset()"/>
                <g id="arrowUp" xlink:href="#dirArrow" transform="translate(30 24)" onmousedown="handlePan(0,-1)">
                  <use xlink:href="#rim" fill="#404040">
                        <set attributeName="fill" to="#808080" begin="arrowUp.mouseover" end="arrowUp.mouseout"/>
                  </use>
                  <path fill="none" stroke="white" stroke-width="1.5" d="M0,-3.0v7 M-2.5,-0.5L0,-3.0L2.5,-0.5"/>
                </g>
                <g id="arrowRight" xlink:href="#dirArrow" transform="rotate(90) translate(36 -43)" onmousedown="handlePan(1,0)">
                  <use xlink:href="#rim" fill="#404040">
                        <set attributeName="fill" to="#808080" begin="arrowRight.mouseover" end="arrowRight.mouseout"/>
                  </use>
                  <path fill="none" stroke="white" stroke-width="1.5" d="M0,-3.0v7 M-2.5,-0.5L0,-3.0L2.5,-0.5"/>
                </g>
                <g id="arrowDown" xlink:href="#dirArrow" transform="rotate(180) translate(-30 -48)" onmousedown="handlePan(0,1)">
                  <use xlink:href="#rim" fill="#404040">
                        <set attributeName="fill" to="#808080" begin="arrowDown.mouseover" end="arrowDown.mouseout"/>
                  </use>
                  <path fill="none" stroke="white" stroke-width="1.5" d="M0,-3.0v7 M-2.5,-0.5L0,-3.0L2.5,-0.5"/>
                </g>
                <g id="arrowLeft" xlink:href="#dirArrow" transform="rotate(270) translate(-36 17)" onmousedown="handlePan(-1,0)">
                  <use xlink:href="#rim" fill="#404040">
                        <set attributeName="fill" to="#808080" begin="arrowLeft.mouseover" end="arrowLeft.mouseout"/>
                  </use>
                  <path fill="none" stroke="white" stroke-width="1.5" d="M0,-3.0v7 M-2.5,-0.5L0,-3.0L2.5,-0.5"/>
                </g>
        </g>
        <svg viewBox="0 0 15 15" width="100%" height="30px" preserveAspectRatio="xMaxYMin meet">
         <g id="arrow_out" transform="scale(0.3 0.3)">
          <a xlink:href="quickjs_8c_a28a2815f15eb2c3477a05e9c7e4394b8_cgraph_org.svg" target="_base">
           <rect id="button" ry="5" rx="5" y="6" x="6" height="38" width="38"
                fill="#f2f5e9" fill-opacity="0.5" stroke="#606060" stroke-width="1.0"/>
           <path id="arrow"
             d="M 11.500037,31.436501 C 11.940474,20.09759 22.043105,11.32322 32.158766,21.979434 L 37.068811,17.246167 C 37.068811,17.246167 37.088388,32 37.088388,32 L 22.160133,31.978069 C 22.160133,31.978069 26.997745,27.140456 26.997745,27.140456 C 18.528582,18.264221 13.291696,25.230495 11.500037,31.436501 z"
             style="fill:#404040;"/>
          </a>
         </g>
        </svg>
</svg>
