<?xml version="1.0" encoding="UTF-8" standalone="no"?>
<!DOCTYPE svg PUBLIC "-//W3C//DTD SVG 1.1//EN"
 "http://www.w3.org/Graphics/SVG/1.1/DTD/svg11.dtd">
<!-- Generated by graphviz version 2.40.1 (20161225.0304)
 -->
<!-- Title: emit_push_const Pages: 1 -->
<!--zoomable 122 -->
<svg id="main" version="1.1" xmlns="http://www.w3.org/2000/svg" xmlns:xlink="http://www.w3.org/1999/xlink" xml:space="preserve" onload="init(evt)">
<style type="text/css"><![CDATA[
.edge:hover path { stroke: red; }
.edge:hover polygon { stroke: red; fill: red; }
]]></style>
<script type="text/javascript"><![CDATA[
var edges = document.getElementsByTagName('g');
if (edges && edges.length) {
  for (var i=0;i<edges.length;i++) {
    if (edges[i].id.substr(0,4)=='edge') {
      edges[i].setAttribute('class','edge');
    }
  }
}
]]></script>
        <defs>
                <circle id="rim" cx="0" cy="0" r="7"/>
                <circle id="rim2" cx="0" cy="0" r="3.5"/>
                <g id="zoomPlus">
                        <use xlink:href="#rim" fill="#404040">
                                <set attributeName="fill" to="#808080" begin="zoomplus.mouseover" end="zoomplus.mouseout"/>
                        </use>
                        <path d="M-4,0h8M0,-4v8" fill="none" stroke="white" stroke-width="1.5" pointer-events="none"/>
                </g>
                <g id="zoomMin">
                        <use xlink:href="#rim" fill="#404040">
                                <set attributeName="fill" to="#808080" begin="zoomminus.mouseover" end="zoomminus.mouseout"/>
                        </use>
                        <path d="M-4,0h8" fill="none" stroke="white" stroke-width="1.5" pointer-events="none"/>
                </g>
                <g id="dirArrow">
                        <path fill="none" stroke="white" stroke-width="1.5" d="M0,-3.0v7 M-2.5,-0.5L0,-3.0L2.5,-0.5"/>
                </g>
               <g id="resetDef">
                       <use xlink:href="#rim2" fill="#404040">
                               <set attributeName="fill" to="#808080" begin="reset.mouseover" end="reset.mouseout"/>
                       </use>
               </g>
        </defs>

<script type="text/javascript">
var viewWidth = 690;
var viewHeight = 122;
var sectionId = 'dynsection-952';
</script>
<script xlink:href="svgpan.js"/>
<svg id="graph" class="graph">
<g id="viewport">
<title>emit_push_const</title>
<!-- Node312962 -->
<g id="node1" class="node">
<title>Node312962</title>
<polygon fill="#bfbfbf" stroke="#000000" points="0,-38.5 0,-57.5 99,-57.5 99,-38.5 0,-38.5"/>
<text text-anchor="middle" x="49.5" y="-45.5" font-family="Helvetica,sans-Serif" font-size="10.00" fill="#000000">emit_push_const</text>
</g>
<!-- Node312963 -->
<g id="node2" class="node">
<title>Node312963</title>
<g id="a_node2"><a xlink:href="quickjs_8c.html#a2ecfb6abb190101748202a8aa5821fba" target="_top" xlink:title="js_parse_delete">
<polygon fill="none" stroke="#000000" points="292.5,-76.5 292.5,-95.5 385.5,-95.5 385.5,-76.5 292.5,-76.5"/>
<text text-anchor="middle" x="339" y="-83.5" font-family="Helvetica,sans-Serif" font-size="10.00" fill="#000000">js_parse_delete</text>
</a>
</g>
</g>
<!-- Node312962&#45;&gt;Node312963 -->
<g id="edge1" class="edge">
<title>Node312962&#45;&gt;Node312963</title>
<path fill="none" stroke="#191970" d="M109.439,-55.8676C163.7077,-62.991 242.5475,-73.3396 292.2745,-79.8668"/>
<polygon fill="#191970" stroke="#191970" points="109.6373,-52.3637 99.2668,-54.5324 108.7262,-59.3042 109.6373,-52.3637"/>
</g>
<!-- Node312972 -->
<g id="node5" class="node">
<title>Node312972</title>
<g id="a_node5"><a xlink:href="quickjs_8c.html#a840642c87c5a82d4cc68333376a3b6de" target="_top" xlink:title="js_parse_postfix_expr">
<polygon fill="none" stroke="#ff0000" points="278,-20.5 278,-39.5 400,-39.5 400,-20.5 278,-20.5"/>
<text text-anchor="middle" x="339" y="-27.5" font-family="Helvetica,sans-Serif" font-size="10.00" fill="#000000">js_parse_postfix_expr</text>
</a>
</g>
</g>
<!-- Node312962&#45;&gt;Node312972 -->
<g id="edge7" class="edge">
<title>Node312962&#45;&gt;Node312972</title>
<path fill="none" stroke="#191970" d="M109.4582,-44.272C158.7251,-41.2088 228.233,-36.8871 277.8284,-33.8034"/>
<polygon fill="#191970" stroke="#191970" points="109.0303,-40.7918 99.2668,-44.9057 109.4648,-47.7783 109.0303,-40.7918"/>
</g>
<!-- Node312996 -->
<g id="node6" class="node">
<title>Node312996</title>
<g id="a_node6"><a xlink:href="quickjs_8c.html#a035daca514f14aacc1e0cff81d8e423a" target="_top" xlink:title="js_parse_template">
<polygon fill="none" stroke="#000000" points="135,-.5 135,-19.5 242,-19.5 242,-.5 135,-.5"/>
<text text-anchor="middle" x="188.5" y="-7.5" font-family="Helvetica,sans-Serif" font-size="10.00" fill="#000000">js_parse_template</text>
</a>
</g>
</g>
<!-- Node312962&#45;&gt;Node312996 -->
<g id="edge10" class="edge">
<title>Node312962&#45;&gt;Node312996</title>
<path fill="none" stroke="#191970" d="M94.2953,-35.7538C113.4547,-30.516 135.4938,-24.4909 153.4357,-19.5859"/>
<polygon fill="#191970" stroke="#191970" points="93.2986,-32.3978 84.5756,-38.411 95.1446,-39.15 93.2986,-32.3978"/>
</g>
<!-- Node312964 -->
<g id="node3" class="node">
<title>Node312964</title>
<g id="a_node3"><a xlink:href="quickjs_8c.html#a9f26c765171d977db1796791f035f1f9" target="_top" xlink:title="js_parse_unary">
<polygon fill="none" stroke="#000000" points="436,-76.5 436,-95.5 526,-95.5 526,-76.5 436,-76.5"/>
<text text-anchor="middle" x="481" y="-83.5" font-family="Helvetica,sans-Serif" font-size="10.00" fill="#000000">js_parse_unary</text>
</a>
</g>
</g>
<!-- Node312963&#45;&gt;Node312964 -->
<g id="edge2" class="edge">
<title>Node312963&#45;&gt;Node312964</title>
<path fill="none" stroke="#191970" d="M396.223,-79.3642C409.3267,-79.1444 423.0814,-79.2418 435.6081,-79.6564"/>
<polygon fill="#191970" stroke="#191970" points="395.8041,-75.8731 385.8897,-79.6085 395.9696,-82.8711 395.8041,-75.8731"/>
</g>
<!-- Node312964&#45;&gt;Node312963 -->
<g id="edge3" class="edge">
<title>Node312964&#45;&gt;Node312963</title>
<path fill="none" stroke="#191970" d="M425.3346,-92.6081C412.2856,-92.8531 398.5109,-92.7809 385.8897,-92.3915"/>
<polygon fill="#191970" stroke="#191970" points="425.7016,-96.0999 435.6081,-92.3436 425.5213,-89.1022 425.7016,-96.0999"/>
</g>
<!-- Node312964&#45;&gt;Node312964 -->
<g id="edge4" class="edge">
<title>Node312964&#45;&gt;Node312964</title>
<path fill="none" stroke="#191970" d="M454.9584,-105.0292C456.3789,-110.128 465.0594,-114 481,-114 505.8828,-114 513.0755,-104.5653 502.5781,-95.7571"/>
<polygon fill="#191970" stroke="#191970" points="458.238,-106.2855 459.4219,-95.7571 451.9308,-103.2493 458.238,-106.2855"/>
</g>
<!-- Node312965 -->
<g id="node4" class="node">
<title>Node312965</title>
<g id="a_node4"><a xlink:href="quickjs_8c.html#ad70b14684de2ed3babfd7c2264249437" target="_top" xlink:title="js_parse_expr_binary">
<polygon fill="none" stroke="#ff0000" points="562,-76.5 562,-95.5 682,-95.5 682,-76.5 562,-76.5"/>
<text text-anchor="middle" x="622" y="-83.5" font-family="Helvetica,sans-Serif" font-size="10.00" fill="#000000">js_parse_expr_binary</text>
</a>
</g>
</g>
<!-- Node312964&#45;&gt;Node312965 -->
<g id="edge5" class="edge">
<title>Node312964&#45;&gt;Node312965</title>
<path fill="none" stroke="#191970" d="M536.15,-86C544.6258,-86 553.4126,-86 561.9877,-86"/>
<polygon fill="#191970" stroke="#191970" points="536.001,-82.5001 526.001,-86 536.0009,-89.5001 536.001,-82.5001"/>
</g>
<!-- Node312965&#45;&gt;Node312965 -->
<g id="edge6" class="edge">
<title>Node312965&#45;&gt;Node312965</title>
<path fill="none" stroke="#191970" d="M595.9584,-105.0292C597.3789,-110.128 606.0594,-114 622,-114 646.8828,-114 654.0755,-104.5653 643.5781,-95.7571"/>
<polygon fill="#191970" stroke="#191970" points="599.238,-106.2855 600.4219,-95.7571 592.9308,-103.2493 599.238,-106.2855"/>
</g>
<!-- Node312972&#45;&gt;Node312964 -->
<g id="edge9" class="edge">
<title>Node312972&#45;&gt;Node312964</title>
<path fill="none" stroke="#191970" d="M372.8415,-43.3459C398.7366,-53.5581 433.8138,-67.3914 456.9079,-76.4989"/>
<polygon fill="#191970" stroke="#191970" points="373.9975,-40.0395 363.4107,-39.6267 371.4293,-46.5514 373.9975,-40.0395"/>
</g>
<!-- Node312972&#45;&gt;Node312972 -->
<g id="edge8" class="edge">
<title>Node312972&#45;&gt;Node312972</title>
<path fill="none" stroke="#191970" d="M312.4941,-48.6539C313.6021,-53.9368 322.4374,-58 339,-58 364.2383,-58 371.5337,-48.5653 360.8863,-39.7571"/>
<polygon fill="#191970" stroke="#191970" points="315.6117,-50.2449 317.1137,-39.7571 309.3992,-47.0192 315.6117,-50.2449"/>
</g>
<!-- Node312996&#45;&gt;Node312972 -->
<g id="edge11" class="edge">
<title>Node312996&#45;&gt;Node312972</title>
<path fill="none" stroke="#191970" d="M252.5082,-18.5061C260.8889,-19.6198 269.4599,-20.7588 277.7927,-21.8661"/>
<polygon fill="#191970" stroke="#191970" points="252.7828,-15.0119 242.4089,-17.164 251.8606,-21.9509 252.7828,-15.0119"/>
</g>
</g>
</svg>
        <g id="navigator" transform="translate(0 0)" fill="#404254">
                <rect fill="#f2f5e9" fill-opacity="0.5" stroke="#606060" stroke-width=".5" x="0" y="0" width="60" height="60"/>
                <use id="zoomplus" xlink:href="#zoomPlus" x="17" y="9" onmousedown="handleZoom(evt,'in')"/>
                <use id="zoomminus" xlink:href="#zoomMin" x="42" y="9" onmousedown="handleZoom(evt,'out')"/>
                <use id="reset" xlink:href="#resetDef" x="30" y="36" onmousedown="handleReset()"/>
                <g id="arrowUp" xlink:href="#dirArrow" transform="translate(30 24)" onmousedown="handlePan(0,-1)">
                  <use xlink:href="#rim" fill="#404040">
                        <set attributeName="fill" to="#808080" begin="arrowUp.mouseover" end="arrowUp.mouseout"/>
                  </use>
                  <path fill="none" stroke="white" stroke-width="1.5" d="M0,-3.0v7 M-2.5,-0.5L0,-3.0L2.5,-0.5"/>
                </g>
                <g id="arrowRight" xlink:href="#dirArrow" transform="rotate(90) translate(36 -43)" onmousedown="handlePan(1,0)">
                  <use xlink:href="#rim" fill="#404040">
                        <set attributeName="fill" to="#808080" begin="arrowRight.mouseover" end="arrowRight.mouseout"/>
                  </use>
                  <path fill="none" stroke="white" stroke-width="1.5" d="M0,-3.0v7 M-2.5,-0.5L0,-3.0L2.5,-0.5"/>
                </g>
                <g id="arrowDown" xlink:href="#dirArrow" transform="rotate(180) translate(-30 -48)" onmousedown="handlePan(0,1)">
                  <use xlink:href="#rim" fill="#404040">
                        <set attributeName="fill" to="#808080" begin="arrowDown.mouseover" end="arrowDown.mouseout"/>
                  </use>
                  <path fill="none" stroke="white" stroke-width="1.5" d="M0,-3.0v7 M-2.5,-0.5L0,-3.0L2.5,-0.5"/>
                </g>
                <g id="arrowLeft" xlink:href="#dirArrow" transform="rotate(270) translate(-36 17)" onmousedown="handlePan(-1,0)">
                  <use xlink:href="#rim" fill="#404040">
                        <set attributeName="fill" to="#808080" begin="arrowLeft.mouseover" end="arrowLeft.mouseout"/>
                  </use>
                  <path fill="none" stroke="white" stroke-width="1.5" d="M0,-3.0v7 M-2.5,-0.5L0,-3.0L2.5,-0.5"/>
                </g>
        </g>
        <svg viewBox="0 0 15 15" width="100%" height="30px" preserveAspectRatio="xMaxYMin meet">
         <g id="arrow_out" transform="scale(0.3 0.3)">
          <a xlink:href="quickjs_8c_a22324bb35cdaa36ce844506a073bb7f4_icgraph_org.svg" target="_base">
           <rect id="button" ry="5" rx="5" y="6" x="6" height="38" width="38"
                fill="#f2f5e9" fill-opacity="0.5" stroke="#606060" stroke-width="1.0"/>
           <path id="arrow"
             d="M 11.500037,31.436501 C 11.940474,20.09759 22.043105,11.32322 32.158766,21.979434 L 37.068811,17.246167 C 37.068811,17.246167 37.088388,32 37.088388,32 L 22.160133,31.978069 C 22.160133,31.978069 26.997745,27.140456 26.997745,27.140456 C 18.528582,18.264221 13.291696,25.230495 11.500037,31.436501 z"
             style="fill:#404040;"/>
          </a>
         </g>
        </svg>
</svg>
