<?xml version="1.0" encoding="UTF-8" standalone="no"?>
<!DOCTYPE svg PUBLIC "-//W3C//DTD SVG 1.1//EN"
 "http://www.w3.org/Graphics/SVG/1.1/DTD/svg11.dtd">
<!-- Generated by graphviz version 2.40.1 (20161225.0304)
 -->
<!-- Title: js_object_valueOf Pages: 1 -->
<svg width="651pt" height="237pt"
 viewBox="0.00 0.00 651.00 237.00" xmlns="http://www.w3.org/2000/svg" xmlns:xlink="http://www.w3.org/1999/xlink">
<g id="graph0" class="graph" transform="scale(1 1) rotate(0) translate(4 233)">
<title>js_object_valueOf</title>
<!-- Node385446 -->
<g id="node1" class="node">
<title>Node385446</title>
<polygon fill="#bfbfbf" stroke="#000000" points="0,-95.5 0,-114.5 104,-114.5 104,-95.5 0,-95.5"/>
<text text-anchor="middle" x="52" y="-102.5" font-family="Helvetica,sans-Serif" font-size="10.00" fill="#000000">js_object_valueOf</text>
</g>
<!-- Node385447 -->
<g id="node2" class="node">
<title>Node385447</title>
<g id="a_node2"><a xlink:href="quickjs_8c.html#a710289a14c2810467e5b448d3c28bd55" target="_top" xlink:title="JS_ToObject">
<polygon fill="none" stroke="#000000" points="140,-95.5 140,-114.5 213,-114.5 213,-95.5 140,-95.5"/>
<text text-anchor="middle" x="176.5" y="-102.5" font-family="Helvetica,sans-Serif" font-size="10.00" fill="#000000">JS_ToObject</text>
</a>
</g>
</g>
<!-- Node385446&#45;&gt;Node385447 -->
<g id="edge1" class="edge">
<title>Node385446&#45;&gt;Node385447</title>
<path fill="none" stroke="#191970" d="M104.0778,-105C112.5111,-105 121.2004,-105 129.5038,-105"/>
<polygon fill="#191970" stroke="#191970" points="129.7668,-108.5001 139.7668,-105 129.7667,-101.5001 129.7668,-108.5001"/>
</g>
<!-- Node385448 -->
<g id="node3" class="node">
<title>Node385448</title>
<g id="a_node3"><a xlink:href="quickjs_8c.html#a0a8765bd4012467d9139bc24aabcb3ca" target="_top" xlink:title="JS_DefinePropertyValue">
<polygon fill="none" stroke="#000000" points="249,-152.5 249,-171.5 380,-171.5 380,-152.5 249,-152.5"/>
<text text-anchor="middle" x="314.5" y="-159.5" font-family="Helvetica,sans-Serif" font-size="10.00" fill="#000000">JS_DefinePropertyValue</text>
</a>
</g>
</g>
<!-- Node385447&#45;&gt;Node385448 -->
<g id="edge2" class="edge">
<title>Node385447&#45;&gt;Node385448</title>
<path fill="none" stroke="#191970" d="M196.3245,-114.5158C210.7975,-121.3418 230.9588,-130.6013 249,-138 258.148,-141.7516 268.1228,-145.5512 277.4666,-148.9867"/>
<polygon fill="#191970" stroke="#191970" points="276.3203,-152.294 286.9144,-152.4177 278.7097,-145.7144 276.3203,-152.294"/>
</g>
<!-- Node385476 -->
<g id="node5" class="node">
<title>Node385476</title>
<g id="a_node5"><a xlink:href="quickjs_8h.html#a775522f2d084fc8fa0fcb33f390006b4" target="_top" xlink:title="JS_DupValue">
<polygon fill="none" stroke="#000000" points="561,-209.5 561,-228.5 638,-228.5 638,-209.5 561,-209.5"/>
<text text-anchor="middle" x="599.5" y="-216.5" font-family="Helvetica,sans-Serif" font-size="10.00" fill="#000000">JS_DupValue</text>
</a>
</g>
</g>
<!-- Node385447&#45;&gt;Node385476 -->
<g id="edge9" class="edge">
<title>Node385447&#45;&gt;Node385476</title>
<path fill="none" stroke="#191970" d="M182.4479,-114.7579C193.3063,-131.5913 218.0948,-165.7466 249,-181 347.4087,-229.5702 479.9004,-228.7456 550.4614,-223.8911"/>
<polygon fill="#191970" stroke="#191970" points="551.1137,-227.3523 560.8255,-223.1178 550.5928,-220.3717 551.1137,-227.3523"/>
</g>
<!-- Node385513 -->
<g id="node7" class="node">
<title>Node385513</title>
<g id="a_node7"><a xlink:href="quickjs_8h.html#ad80a83d73e9b7d872b88fbf2943aebe9" target="_top" xlink:title="JS_IsException">
<polygon fill="none" stroke="#000000" points="556,-114.5 556,-133.5 643,-133.5 643,-114.5 556,-114.5"/>
<text text-anchor="middle" x="599.5" y="-121.5" font-family="Helvetica,sans-Serif" font-size="10.00" fill="#000000">JS_IsException</text>
</a>
</g>
</g>
<!-- Node385447&#45;&gt;Node385513 -->
<g id="edge10" class="edge">
<title>Node385447&#45;&gt;Node385513</title>
<path fill="none" stroke="#191970" d="M213.0159,-102.206C275.9504,-98.0134 408.8039,-91.8969 520,-105 532.3316,-106.4531 545.521,-109.1326 557.5412,-112.0303"/>
<polygon fill="#191970" stroke="#191970" points="556.7665,-115.4444 567.3186,-114.4936 558.4767,-108.6565 556.7665,-115.4444"/>
</g>
<!-- Node385573 -->
<g id="node8" class="node">
<title>Node385573</title>
<g id="a_node8"><a xlink:href="quickjs_8h.html#a2050bc428da1c65ac7eb87c3fa3b0392" target="_top" xlink:title="JS_NewInt32">
<polygon fill="none" stroke="#000000" points="561,-57.5 561,-76.5 638,-76.5 638,-57.5 561,-57.5"/>
<text text-anchor="middle" x="599.5" y="-64.5" font-family="Helvetica,sans-Serif" font-size="10.00" fill="#000000">JS_NewInt32</text>
</a>
</g>
</g>
<!-- Node385447&#45;&gt;Node385573 -->
<g id="edge11" class="edge">
<title>Node385447&#45;&gt;Node385573</title>
<path fill="none" stroke="#191970" d="M213.2909,-98.2517C224.7045,-96.3357 237.3457,-94.3939 249,-93 356.1114,-80.1892 482.4422,-72.6726 550.3633,-69.2476"/>
<polygon fill="#191970" stroke="#191970" points="550.9363,-72.7236 560.7508,-68.7329 550.5898,-65.7322 550.9363,-72.7236"/>
</g>
<!-- Node385671 -->
<g id="node9" class="node">
<title>Node385671</title>
<g id="a_node9"><a xlink:href="quickjs_8c.html#a659dc0db7e440fd6eb012d613627faa3" target="_top" xlink:title="JS_NewObjectClass">
<polygon fill="none" stroke="#ff0000" points="259.5,-.5 259.5,-19.5 369.5,-19.5 369.5,-.5 259.5,-.5"/>
<text text-anchor="middle" x="314.5" y="-7.5" font-family="Helvetica,sans-Serif" font-size="10.00" fill="#000000">JS_NewObjectClass</text>
</a>
</g>
</g>
<!-- Node385447&#45;&gt;Node385671 -->
<g id="edge12" class="edge">
<title>Node385447&#45;&gt;Node385671</title>
<path fill="none" stroke="#191970" d="M183.9739,-95.4167C196.1276,-80.4119 221.5888,-51.3034 249,-34 255.6247,-29.8181 263.0837,-26.2173 270.5323,-23.1708"/>
<polygon fill="#191970" stroke="#191970" points="271.7969,-26.4345 279.898,-19.6064 269.3071,-19.8922 271.7969,-26.4345"/>
</g>
<!-- Node385880 -->
<g id="node10" class="node">
<title>Node385880</title>
<g id="a_node10"><a xlink:href="quickjs_8c.html#a5cfd8b63940fcb5151b4df41e32dc68c" target="_top" xlink:title="JS_SetObjectData">
<polygon fill="none" stroke="#000000" points="417.5,-114.5 417.5,-133.5 518.5,-133.5 518.5,-114.5 417.5,-114.5"/>
<text text-anchor="middle" x="468" y="-121.5" font-family="Helvetica,sans-Serif" font-size="10.00" fill="#000000">JS_SetObjectData</text>
</a>
</g>
</g>
<!-- Node385447&#45;&gt;Node385880 -->
<g id="edge13" class="edge">
<title>Node385447&#45;&gt;Node385880</title>
<path fill="none" stroke="#191970" d="M213.1235,-107.3871C261.8082,-110.5604 348.5023,-116.2111 407.1083,-120.0311"/>
<polygon fill="#191970" stroke="#191970" points="407.14,-123.5405 417.3465,-120.6984 407.5954,-116.5553 407.14,-123.5405"/>
</g>
<!-- Node385449 -->
<g id="node4" class="node">
<title>Node385449</title>
<g id="a_node4"><a xlink:href="quickjs_8c.html#ab50618f1bf78e444caa6da0e3e2785d7" target="_top" xlink:title="JS_DefineProperty">
<polygon fill="none" stroke="#ff0000" points="416,-152.5 416,-171.5 520,-171.5 520,-152.5 416,-152.5"/>
<text text-anchor="middle" x="468" y="-159.5" font-family="Helvetica,sans-Serif" font-size="10.00" fill="#000000">JS_DefineProperty</text>
</a>
</g>
</g>
<!-- Node385448&#45;&gt;Node385449 -->
<g id="edge3" class="edge">
<title>Node385448&#45;&gt;Node385449</title>
<path fill="none" stroke="#191970" d="M380.0431,-162C388.5011,-162 397.1446,-162 405.5509,-162"/>
<polygon fill="#191970" stroke="#191970" points="405.6587,-165.5001 415.6586,-162 405.6586,-158.5001 405.6587,-165.5001"/>
</g>
<!-- Node385477 -->
<g id="node6" class="node">
<title>Node385477</title>
<g id="a_node6"><a xlink:href="quickjs_8h.html#afaa20c47565bc704c6c85f3d77254e7d" target="_top" xlink:title="JS_FreeValue">
<polygon fill="none" stroke="#ff0000" points="560.5,-152.5 560.5,-171.5 638.5,-171.5 638.5,-152.5 560.5,-152.5"/>
<text text-anchor="middle" x="599.5" y="-159.5" font-family="Helvetica,sans-Serif" font-size="10.00" fill="#000000">JS_FreeValue</text>
</a>
</g>
</g>
<!-- Node385448&#45;&gt;Node385477 -->
<g id="edge8" class="edge">
<title>Node385448&#45;&gt;Node385477</title>
<path fill="none" stroke="#191970" d="M355.7383,-171.511C374.0801,-175.2762 396.007,-179.1448 416,-181 462.0245,-185.2706 474.0954,-186.4093 520,-181 532.3316,-179.5469 545.521,-176.8674 557.5412,-173.9697"/>
<polygon fill="#191970" stroke="#191970" points="558.4767,-177.3435 567.3186,-171.5064 556.7665,-170.5556 558.4767,-177.3435"/>
</g>
<!-- Node385449&#45;&gt;Node385476 -->
<g id="edge4" class="edge">
<title>Node385449&#45;&gt;Node385476</title>
<path fill="none" stroke="#191970" d="M490.0101,-171.5405C511.3448,-180.7883 543.9243,-194.9102 568.0018,-205.3468"/>
<polygon fill="#191970" stroke="#191970" points="566.8509,-208.6625 577.418,-209.4284 569.6349,-202.2399 566.8509,-208.6625"/>
</g>
<!-- Node385449&#45;&gt;Node385477 -->
<g id="edge5" class="edge">
<title>Node385449&#45;&gt;Node385477</title>
<path fill="none" stroke="#191970" d="M520.3501,-162C530.1334,-162 540.3301,-162 550.0232,-162"/>
<polygon fill="#191970" stroke="#191970" points="550.3003,-165.5001 560.3003,-162 550.3002,-158.5001 550.3003,-165.5001"/>
</g>
<!-- Node385449&#45;&gt;Node385513 -->
<g id="edge6" class="edge">
<title>Node385449&#45;&gt;Node385513</title>
<path fill="none" stroke="#191970" d="M501.183,-152.411C518.0027,-147.5506 538.6263,-141.5909 556.6335,-136.3873"/>
<polygon fill="#191970" stroke="#191970" points="557.6924,-139.7246 566.3276,-133.5859 555.749,-132.9997 557.6924,-139.7246"/>
</g>
<!-- Node385449&#45;&gt;Node385573 -->
<g id="edge7" class="edge">
<title>Node385449&#45;&gt;Node385573</title>
<path fill="none" stroke="#191970" d="M501.2842,-152.4451C507.7575,-149.8779 514.2969,-146.7476 520,-143 539.4424,-130.2239 539.2209,-121.1151 556,-105 563.6483,-97.6544 572.4006,-89.8932 580.0397,-83.3132"/>
<polygon fill="#191970" stroke="#191970" points="582.4451,-85.8619 587.7872,-76.7124 577.9054,-80.5336 582.4451,-85.8619"/>
</g>
<!-- Node385880&#45;&gt;Node385477 -->
<g id="edge14" class="edge">
<title>Node385880&#45;&gt;Node385477</title>
<path fill="none" stroke="#191970" d="M501.183,-133.589C518.0027,-138.4494 538.6263,-144.4091 556.6335,-149.6127"/>
<polygon fill="#191970" stroke="#191970" points="555.749,-153.0003 566.3276,-152.4141 557.6924,-146.2754 555.749,-153.0003"/>
</g>
<!-- Node385880&#45;&gt;Node385513 -->
<g id="edge15" class="edge">
<title>Node385880&#45;&gt;Node385513</title>
<path fill="none" stroke="#191970" d="M518.8413,-124C527.5684,-124 536.6653,-124 545.4723,-124"/>
<polygon fill="#191970" stroke="#191970" points="545.6382,-127.5001 555.6382,-124 545.6381,-120.5001 545.6382,-127.5001"/>
</g>
</g>
</svg>
