<?xml version="1.0" encoding="UTF-8" standalone="no"?>
<!DOCTYPE svg PUBLIC "-//W3C//DTD SVG 1.1//EN"
 "http://www.w3.org/Graphics/SVG/1.1/DTD/svg11.dtd">
<!-- Generated by graphviz version 2.40.1 (20161225.0304)
 -->
<!-- Title: JS_NewString Pages: 1 -->
<svg width="614pt" height="990pt"
 viewBox="0.00 0.00 614.00 989.50" xmlns="http://www.w3.org/2000/svg" xmlns:xlink="http://www.w3.org/1999/xlink">
<g id="graph0" class="graph" transform="scale(1 1) rotate(0) translate(4 985.5)">
<title>JS_NewString</title>
<!-- Node112568 -->
<g id="node1" class="node">
<title>Node112568</title>
<polygon fill="#bfbfbf" stroke="#000000" points="0,-423 0,-442 81,-442 81,-423 0,-423"/>
<text text-anchor="middle" x="40.5" y="-430" font-family="Helvetica,sans-Serif" font-size="10.00" fill="#000000">JS_NewString</text>
</g>
<!-- Node112569 -->
<g id="node2" class="node">
<title>Node112569</title>
<g id="a_node2"><a xlink:href="quickjs_8c.html#a06ff303a11e6641cbf1f6634e6a61811" target="_top" xlink:title="__JS_AtomToValue">
<polygon fill="none" stroke="#000000" points="142,-821 142,-840 247,-840 247,-821 142,-821"/>
<text text-anchor="middle" x="194.5" y="-828" font-family="Helvetica,sans-Serif" font-size="10.00" fill="#000000">__JS_AtomToValue</text>
</a>
</g>
</g>
<!-- Node112568&#45;&gt;Node112569 -->
<g id="edge1" class="edge">
<title>Node112568&#45;&gt;Node112569</title>
<path fill="none" stroke="#191970" d="M41.9295,-452.2581C47.3376,-521.6991 68.7362,-753.2291 117,-806.5 123.62,-813.8068 132.4142,-818.9121 141.6986,-822.4736"/>
<polygon fill="#191970" stroke="#191970" points="45.4152,-451.935 41.1731,-442.2265 38.435,-452.4614 45.4152,-451.935"/>
</g>
<!-- Node112934 -->
<g id="node5" class="node">
<title>Node112934</title>
<g id="a_node5"><a xlink:href="quickjs_8c.html#ae69c38078aefed427b6c0d7b6870bd9c" target="_top" xlink:title="js_object_toString">
<polygon fill="none" stroke="#ff0000" points="493,-802 493,-821 597,-821 597,-802 493,-802"/>
<text text-anchor="middle" x="545" y="-809" font-family="Helvetica,sans-Serif" font-size="10.00" fill="#000000">js_object_toString</text>
</a>
</g>
</g>
<!-- Node112568&#45;&gt;Node112934 -->
<g id="edge27" class="edge">
<title>Node112568&#45;&gt;Node112934</title>
<path fill="none" stroke="#191970" d="M43.2846,-452.2141C51.8364,-510.097 79.4339,-677.9098 117,-716.5 168.8312,-769.7442 390.5689,-797.0321 492.889,-806.9848"/>
<polygon fill="#191970" stroke="#191970" points="46.7278,-451.5693 41.8309,-442.1741 39.8001,-452.5725 46.7278,-451.5693"/>
</g>
<!-- Node112842 -->
<g id="node6" class="node">
<title>Node112842</title>
<g id="a_node6"><a xlink:href="quickjs_8c.html#a46d6ebdd8c73102fd9e02a89b1f1d09a" target="_top" xlink:title="JS_ToStringInternal">
<polygon fill="none" stroke="#ff0000" points="491.5,-669 491.5,-688 598.5,-688 598.5,-669 491.5,-669"/>
<text text-anchor="middle" x="545" y="-676" font-family="Helvetica,sans-Serif" font-size="10.00" fill="#000000">JS_ToStringInternal</text>
</a>
</g>
</g>
<!-- Node112568&#45;&gt;Node112842 -->
<g id="edge38" class="edge">
<title>Node112568&#45;&gt;Node112842</title>
<path fill="none" stroke="#191970" d="M44.7544,-452.2089C55.441,-499.6769 84.8659,-618.08 117,-640.5 173.4969,-679.918 205.1319,-657.0631 272,-640.5 289.561,-636.1502 290.439,-625.8498 308,-621.5 368.397,-606.5398 387.9602,-605.1652 448,-621.5 481.9255,-630.73 516.0986,-655.1602 533.3988,-668.8522"/>
<polygon fill="#191970" stroke="#191970" points="48.1283,-451.2559 42.5537,-442.2463 41.2931,-452.7658 48.1283,-451.2559"/>
</g>
<!-- Node112618 -->
<g id="node9" class="node">
<title>Node112618</title>
<g id="a_node9"><a xlink:href="quickjs_8c.html#a61c8dfb5e807af1b6ff7d8ca61576dda" target="_top" xlink:title="build_backtrace">
<polygon fill="none" stroke="#ff0000" points="147.5,-925 147.5,-944 241.5,-944 241.5,-925 147.5,-925"/>
<text text-anchor="middle" x="194.5" y="-932" font-family="Helvetica,sans-Serif" font-size="10.00" fill="#000000">build_backtrace</text>
</a>
</g>
</g>
<!-- Node112568&#45;&gt;Node112618 -->
<g id="edge12" class="edge">
<title>Node112568&#45;&gt;Node112618</title>
<path fill="none" stroke="#191970" d="M41.2388,-452.2442C44.5889,-532.023 60.7182,-829.7205 117,-901.5 125.6624,-912.5477 138.7265,-919.9503 151.6728,-924.888"/>
<polygon fill="#191970" stroke="#191970" points="44.7304,-451.96 40.834,-442.1076 37.736,-452.2393 44.7304,-451.96"/>
</g>
<!-- Node112619 -->
<g id="node10" class="node">
<title>Node112619</title>
<g id="a_node10"><a xlink:href="quickjs_8c.html#aeafb37b03b5560171754f8c4505b0f6b" target="_top" xlink:title="JS_ThrowError2">
<polygon fill="none" stroke="#ff0000" points="333,-897 333,-916 423,-916 423,-897 333,-897"/>
<text text-anchor="middle" x="378" y="-904" font-family="Helvetica,sans-Serif" font-size="10.00" fill="#000000">JS_ThrowError2</text>
</a>
</g>
</g>
<!-- Node112568&#45;&gt;Node112619 -->
<g id="edge37" class="edge">
<title>Node112568&#45;&gt;Node112619</title>
<path fill="none" stroke="#191970" d="M41.331,-452.6951C44.8507,-528.0745 61.027,-791.6152 117,-849.5 173.3407,-907.765 274.3803,-913.0447 332.8415,-910.5269"/>
<polygon fill="#191970" stroke="#191970" points="44.8086,-452.1088 40.8707,-442.273 37.8155,-452.4178 44.8086,-452.1088"/>
</g>
<!-- Node112987 -->
<g id="node11" class="node">
<title>Node112987</title>
<g id="a_node11"><a xlink:href="quickjs_8c.html#ab522181d975cc7949088c8ff67fedde0" target="_top" xlink:title="get_date_string">
<polygon fill="none" stroke="#ff0000" points="148.5,-612 148.5,-631 240.5,-631 240.5,-612 148.5,-612"/>
<text text-anchor="middle" x="194.5" y="-619" font-family="Helvetica,sans-Serif" font-size="10.00" fill="#000000">get_date_string</text>
</a>
</g>
</g>
<!-- Node112568&#45;&gt;Node112987 -->
<g id="edge16" class="edge">
<title>Node112568&#45;&gt;Node112987</title>
<path fill="none" stroke="#191970" d="M43.6662,-452.5047C50.4114,-488.2621 69.64,-563.0781 117,-602.5 125.8373,-609.8561 137.0908,-614.4394 148.2648,-617.2748"/>
<polygon fill="#191970" stroke="#191970" points="47.0632,-451.6109 41.8951,-442.362 40.1675,-452.8151 47.0632,-451.6109"/>
</g>
<!-- Node113233 -->
<g id="node12" class="node">
<title>Node113233</title>
<g id="a_node12"><a xlink:href="quickjs_8c.html#a6508a2922531adcb280bbff485a9a44a" target="_top" xlink:title="js_dtoa">
<polygon fill="none" stroke="#ff0000" points="168.5,-688 168.5,-707 220.5,-707 220.5,-688 168.5,-688"/>
<text text-anchor="middle" x="194.5" y="-695" font-family="Helvetica,sans-Serif" font-size="10.00" fill="#000000">js_dtoa</text>
</a>
</g>
</g>
<!-- Node112568&#45;&gt;Node113233 -->
<g id="edge17" class="edge">
<title>Node112568&#45;&gt;Node113233</title>
<path fill="none" stroke="#191970" d="M44.2483,-451.8732C54.5563,-503.287 84.715,-641.442 117,-673.5 130.593,-686.9974 151.616,-692.9273 168.3383,-695.5208"/>
<polygon fill="#191970" stroke="#191970" points="47.6764,-451.1663 42.3069,-442.0329 40.8088,-452.5213 47.6764,-451.1663"/>
</g>
<!-- Node112628 -->
<g id="node16" class="node">
<title>Node112628</title>
<g id="a_node16"><a xlink:href="quickjs_8c.html#a60d84dd116a9d7d912d08f298a4734dd" target="_top" xlink:title="js_json_to_str">
<polygon fill="none" stroke="#ff0000" points="153,-556 153,-575 236,-575 236,-556 153,-556"/>
<text text-anchor="middle" x="194.5" y="-563" font-family="Helvetica,sans-Serif" font-size="10.00" fill="#000000">js_json_to_str</text>
</a>
</g>
</g>
<!-- Node112568&#45;&gt;Node112628 -->
<g id="edge22" class="edge">
<title>Node112568&#45;&gt;Node112628</title>
<path fill="none" stroke="#191970" d="M48.0449,-451.6107C59.179,-477.2587 82.4895,-522.3753 117,-546.5 127.4458,-553.8022 140.3928,-558.3098 152.6942,-561.0883"/>
<polygon fill="#191970" stroke="#191970" points="51.2122,-450.1119 44.1388,-442.2241 44.7494,-452.8013 51.2122,-450.1119"/>
</g>
<!-- Node112907 -->
<g id="node17" class="node">
<title>Node112907</title>
<g id="a_node17"><a xlink:href="quickjs-libc_8c.html#a5cc3e22713f1916d49867f60a7375505" target="_top" xlink:title="js_module_set_import_meta">
<polygon fill="none" stroke="#ff0000" points="117,-518 117,-537 272,-537 272,-518 117,-518"/>
<text text-anchor="middle" x="194.5" y="-525" font-family="Helvetica,sans-Serif" font-size="10.00" fill="#000000">js_module_set_import_meta</text>
</a>
</g>
</g>
<!-- Node112568&#45;&gt;Node112907 -->
<g id="edge24" class="edge">
<title>Node112568&#45;&gt;Node112907</title>
<path fill="none" stroke="#191970" d="M53.6599,-450.3332C67.4971,-467.79 90.8611,-493.8354 117,-508.5 123.8866,-512.3636 131.5487,-515.4486 139.2994,-517.9102"/>
<polygon fill="#191970" stroke="#191970" points="56.1964,-447.8899 47.328,-442.0931 50.6458,-452.155 56.1964,-447.8899"/>
</g>
<!-- Node113234 -->
<g id="node18" class="node">
<title>Node113234</title>
<g id="a_node18"><a xlink:href="quickjs_8c.html#aa641af3a921335927dab07dc83285917" target="_top" xlink:title="JS_NewAtomInt64">
<polygon fill="none" stroke="#ff0000" points="142.5,-480 142.5,-499 246.5,-499 246.5,-480 142.5,-480"/>
<text text-anchor="middle" x="194.5" y="-487" font-family="Helvetica,sans-Serif" font-size="10.00" fill="#000000">JS_NewAtomInt64</text>
</a>
</g>
</g>
<!-- Node112568&#45;&gt;Node113234 -->
<g id="edge25" class="edge">
<title>Node112568&#45;&gt;Node113234</title>
<path fill="none" stroke="#191970" d="M65.9573,-446.9179C80.5481,-454.7259 99.4066,-464.0634 117,-470.5 127.0177,-474.165 138.0205,-477.3441 148.5095,-479.9982"/>
<polygon fill="#191970" stroke="#191970" points="67.4964,-443.7706 57.0416,-442.0536 64.1438,-449.9155 67.4964,-443.7706"/>
</g>
<!-- Node113235 -->
<g id="node19" class="node">
<title>Node113235</title>
<g id="a_node19"><a xlink:href="quickjs_8c.html#a7445082229205ad47aec019d74536f8e" target="_top" xlink:title="JS_NewAtomUInt32">
<polygon fill="none" stroke="#ff0000" points="139,-442 139,-461 250,-461 250,-442 139,-442"/>
<text text-anchor="middle" x="194.5" y="-449" font-family="Helvetica,sans-Serif" font-size="10.00" fill="#000000">JS_NewAtomUInt32</text>
</a>
</g>
</g>
<!-- Node112568&#45;&gt;Node113235 -->
<g id="edge26" class="edge">
<title>Node112568&#45;&gt;Node113235</title>
<path fill="none" stroke="#191970" d="M91.6004,-438.8046C106.7854,-440.6781 123.4913,-442.7392 138.945,-444.6458"/>
<polygon fill="#191970" stroke="#191970" points="91.7182,-435.2927 81.3649,-437.5418 90.861,-442.24 91.7182,-435.2927"/>
</g>
<!-- Node112881 -->
<g id="node20" class="node">
<title>Node112881</title>
<g id="a_node20"><a xlink:href="quickjs-libc_8c.html#a64270f007df853e9d2f443383d26ec60" target="_top" xlink:title="js_os_readdir">
<polygon fill="none" stroke="#000000" points="154,-404 154,-423 235,-423 235,-404 154,-404"/>
<text text-anchor="middle" x="194.5" y="-411" font-family="Helvetica,sans-Serif" font-size="10.00" fill="#000000">js_os_readdir</text>
</a>
</g>
</g>
<!-- Node112568&#45;&gt;Node112881 -->
<g id="edge28" class="edge">
<title>Node112568&#45;&gt;Node112881</title>
<path fill="none" stroke="#191970" d="M91.4014,-426.22C111.7319,-423.7117 134.8154,-420.8637 153.9785,-418.4994"/>
<polygon fill="#191970" stroke="#191970" points="90.861,-422.76 81.3649,-427.4582 91.7182,-429.7073 90.861,-422.76"/>
</g>
<!-- Node112733 -->
<g id="node21" class="node">
<title>Node112733</title>
<g id="a_node21"><a xlink:href="quickjs_8c.html#a0bfdeb7e158aebcb79b7c9367a60be80" target="_top" xlink:title="js_promise_all_resolve\l_element">
<polygon fill="none" stroke="#ff0000" points="130.5,-354.5 130.5,-384.5 258.5,-384.5 258.5,-354.5 130.5,-354.5"/>
<text text-anchor="start" x="138.5" y="-372.5" font-family="Helvetica,sans-Serif" font-size="10.00" fill="#000000">js_promise_all_resolve</text>
<text text-anchor="middle" x="194.5" y="-361.5" font-family="Helvetica,sans-Serif" font-size="10.00" fill="#000000">_element</text>
</a>
</g>
</g>
<!-- Node112568&#45;&gt;Node112733 -->
<g id="edge29" class="edge">
<title>Node112568&#45;&gt;Node112733</title>
<path fill="none" stroke="#191970" d="M66.7163,-418.2647C81.2825,-410.6657 99.8737,-401.4706 117,-394.5 125.6424,-390.9825 134.9798,-387.617 144.0793,-384.5589"/>
<polygon fill="#191970" stroke="#191970" points="64.986,-415.2203 57.7813,-422.9884 68.2577,-421.4087 64.986,-415.2203"/>
</g>
<!-- Node113231 -->
<g id="node22" class="node">
<title>Node113231</title>
<g id="a_node22"><a xlink:href="quickjs_8c.html#a32ee6be61757664e4eea552e5508ad6e" target="_top" xlink:title="js_regexp_get_source">
<polygon fill="none" stroke="#000000" points="133.5,-316 133.5,-335 255.5,-335 255.5,-316 133.5,-316"/>
<text text-anchor="middle" x="194.5" y="-323" font-family="Helvetica,sans-Serif" font-size="10.00" fill="#000000">js_regexp_get_source</text>
</a>
</g>
</g>
<!-- Node112568&#45;&gt;Node113231 -->
<g id="edge30" class="edge">
<title>Node112568&#45;&gt;Node113231</title>
<path fill="none" stroke="#191970" d="M51.4358,-414.2309C64.4888,-394.0425 88.207,-362.0663 117,-344.5 123.3861,-340.6039 130.5264,-337.506 137.8186,-335.0431"/>
<polygon fill="#191970" stroke="#191970" points="48.3922,-412.497 46.0589,-422.8317 54.3278,-416.2077 48.3922,-412.497"/>
</g>
<!-- Node112860 -->
<g id="node23" class="node">
<title>Node112860</title>
<g id="a_node23"><a xlink:href="quickjs_8c.html#a04f1ec3f8d1f5c012280eb23e64a7b58" target="_top" xlink:title="JS_SetModuleExportList">
<polygon fill="none" stroke="#ff0000" points="129,-278 129,-297 260,-297 260,-278 129,-278"/>
<text text-anchor="middle" x="194.5" y="-285" font-family="Helvetica,sans-Serif" font-size="10.00" fill="#000000">JS_SetModuleExportList</text>
</a>
</g>
</g>
<!-- Node112568&#45;&gt;Node112860 -->
<g id="edge31" class="edge">
<title>Node112568&#45;&gt;Node112860</title>
<path fill="none" stroke="#191970" d="M46.8863,-413.0252C57.1008,-385.0207 79.8352,-333.756 117,-306.5 122.2504,-302.6494 128.1852,-299.5723 134.3761,-297.1144"/>
<polygon fill="#191970" stroke="#191970" points="43.453,-412.2425 43.476,-422.8374 50.065,-414.5407 43.453,-412.2425"/>
</g>
<!-- Node112854 -->
<g id="node24" class="node">
<title>Node112854</title>
<g id="a_node24"><a xlink:href="quickjs-libc_8c.html#ad04466feec6822a3b838baf229f6dfa0" target="_top" xlink:title="js_std_add_helpers">
<polygon fill="none" stroke="#ff0000" points="139.5,-240 139.5,-259 249.5,-259 249.5,-240 139.5,-240"/>
<text text-anchor="middle" x="194.5" y="-247" font-family="Helvetica,sans-Serif" font-size="10.00" fill="#000000">js_std_add_helpers</text>
</a>
</g>
</g>
<!-- Node112568&#45;&gt;Node112854 -->
<g id="edge32" class="edge">
<title>Node112568&#45;&gt;Node112854</title>
<path fill="none" stroke="#191970" d="M43.9811,-412.736C51.1605,-378.0426 70.9667,-306.2905 117,-268.5 123.5315,-263.138 131.3506,-259.2526 139.4729,-256.4445"/>
<polygon fill="#191970" stroke="#191970" points="40.463,-412.4971 42.0108,-422.9783 47.3369,-413.8195 40.463,-412.4971"/>
</g>
<!-- Node113093 -->
<g id="node25" class="node">
<title>Node113093</title>
<g id="a_node25"><a xlink:href="quickjs-libc_8c.html#a1e9ea68a66c0e646ba3250625a52a3e2" target="_top" xlink:title="js_std_getenv">
<polygon fill="none" stroke="#000000" points="152.5,-202 152.5,-221 236.5,-221 236.5,-202 152.5,-202"/>
<text text-anchor="middle" x="194.5" y="-209" font-family="Helvetica,sans-Serif" font-size="10.00" fill="#000000">js_std_getenv</text>
</a>
</g>
</g>
<!-- Node112568&#45;&gt;Node113093 -->
<g id="edge33" class="edge">
<title>Node112568&#45;&gt;Node113093</title>
<path fill="none" stroke="#191970" d="M42.0334,-412.7662C46.2766,-372.24 61.8185,-279.3485 117,-230.5 126.7505,-221.8685 139.7896,-217.0141 152.3875,-214.3266"/>
<polygon fill="#191970" stroke="#191970" points="38.548,-412.4483 41.1127,-422.728 45.5183,-413.0926 38.548,-412.4483"/>
</g>
<!-- Node112849 -->
<g id="node26" class="node">
<title>Node112849</title>
<g id="a_node26"><a xlink:href="quickjs-libc_8c.html#a744c97f53406d93e57acb57e3d498227" target="_top" xlink:title="js_std_getenviron">
<polygon fill="none" stroke="#000000" points="143,-164 143,-183 246,-183 246,-164 143,-164"/>
<text text-anchor="middle" x="194.5" y="-171" font-family="Helvetica,sans-Serif" font-size="10.00" fill="#000000">js_std_getenviron</text>
</a>
</g>
</g>
<!-- Node112568&#45;&gt;Node112849 -->
<g id="edge34" class="edge">
<title>Node112568&#45;&gt;Node112849</title>
<path fill="none" stroke="#191970" d="M44.1572,-413.1002C54.2371,-361.6319 83.8762,-223.44 117,-192.5 124.1879,-185.786 133.35,-181.3347 142.8384,-178.4074"/>
<polygon fill="#191970" stroke="#191970" points="40.7141,-412.4709 42.2606,-422.9523 47.5879,-413.7942 40.7141,-412.4709"/>
</g>
<!-- Node113019 -->
<g id="node27" class="node">
<title>Node113019</title>
<g id="a_node27"><a xlink:href="quickjs-libc_8c.html#a3c85f840e36c372bd5164d7cf6949ae4" target="_top" xlink:title="js_std_strerror">
<polygon fill="none" stroke="#000000" points="151.5,-126 151.5,-145 237.5,-145 237.5,-126 151.5,-126"/>
<text text-anchor="middle" x="194.5" y="-133" font-family="Helvetica,sans-Serif" font-size="10.00" fill="#000000">js_std_strerror</text>
</a>
</g>
</g>
<!-- Node112568&#45;&gt;Node113019 -->
<g id="edge35" class="edge">
<title>Node112568&#45;&gt;Node113019</title>
<path fill="none" stroke="#191970" d="M43.3112,-412.755C51.8496,-355.5139 79.2258,-191.2269 117,-154.5 126.2372,-145.5189 138.991,-140.5556 151.4872,-137.8763"/>
<polygon fill="#191970" stroke="#191970" points="39.7991,-412.5839 41.8174,-422.9847 46.7257,-413.5954 39.7991,-412.5839"/>
</g>
<!-- Node112740 -->
<g id="node28" class="node">
<title>Node112740</title>
<g id="a_node28"><a xlink:href="quickjs_8c.html#a48c74f10715547bf679361ae42e2a97f" target="_top" xlink:title="js_string_match">
<polygon fill="none" stroke="#000000" points="147.5,-88 147.5,-107 241.5,-107 241.5,-88 147.5,-88"/>
<text text-anchor="middle" x="194.5" y="-95" font-family="Helvetica,sans-Serif" font-size="10.00" fill="#000000">js_string_match</text>
</a>
</g>
</g>
<!-- Node112568&#45;&gt;Node112740 -->
<g id="edge36" class="edge">
<title>Node112568&#45;&gt;Node112740</title>
<path fill="none" stroke="#191970" d="M42.5877,-412.966C49.6193,-350.8121 74.4148,-159.2089 117,-116.5 125.1187,-108.3577 136.1195,-103.498 147.2802,-100.6481"/>
<polygon fill="#191970" stroke="#191970" points="39.0985,-412.6765 41.4812,-422.9999 46.0563,-413.4439 39.0985,-412.6765"/>
</g>
<!-- Node112883 -->
<g id="node29" class="node">
<title>Node112883</title>
<g id="a_node29"><a xlink:href="quickjs-libc_8c.html#ae77b81ae623983a6ab0351277d33e0f4" target="_top" xlink:title="make_string_error">
<polygon fill="none" stroke="#ff0000" points="141.5,-50 141.5,-69 247.5,-69 247.5,-50 141.5,-50"/>
<text text-anchor="middle" x="194.5" y="-57" font-family="Helvetica,sans-Serif" font-size="10.00" fill="#000000">make_string_error</text>
</a>
</g>
</g>
<!-- Node112568&#45;&gt;Node112883 -->
<g id="edge39" class="edge">
<title>Node112568&#45;&gt;Node112883</title>
<path fill="none" stroke="#191970" d="M42.051,-412.8418C47.7407,-345.7366 69.6485,-127.1763 117,-78.5 123.5686,-71.7476 132.1158,-67.2419 141.1269,-64.2656"/>
<polygon fill="#191970" stroke="#191970" points="38.5549,-412.6524 41.2246,-422.9053 45.5314,-413.2253 38.5549,-412.6524"/>
</g>
<!-- Node113236 -->
<g id="node30" class="node">
<title>Node113236</title>
<g id="a_node30"><a xlink:href="structqjs_1_1js__traits_3_01const_01char_01_5_01_4.html#ae1a13e887841edd9c73cc2ea8e72d7bb" target="_top" xlink:title="qjs::js_traits\&lt; const\l char * \&gt;::wrap">
<polygon fill="none" stroke="#000000" points="138,-.5 138,-30.5 251,-30.5 251,-.5 138,-.5"/>
<text text-anchor="start" x="146" y="-18.5" font-family="Helvetica,sans-Serif" font-size="10.00" fill="#000000">qjs::js_traits&lt; const</text>
<text text-anchor="middle" x="194.5" y="-7.5" font-family="Helvetica,sans-Serif" font-size="10.00" fill="#000000"> char * &gt;::wrap</text>
</a>
</g>
</g>
<!-- Node112568&#45;&gt;Node113236 -->
<g id="edge40" class="edge">
<title>Node112568&#45;&gt;Node113236</title>
<path fill="none" stroke="#191970" d="M41.7815,-412.294C46.7455,-340.1956 66.9769,-96.878 117,-40.5 122.6298,-34.155 129.8778,-29.4109 137.6763,-25.8659"/>
<polygon fill="#191970" stroke="#191970" points="38.2621,-412.4716 41.0919,-422.6815 45.2467,-412.9353 38.2621,-412.4716"/>
</g>
<!-- Node112570 -->
<g id="node3" class="node">
<title>Node112570</title>
<g id="a_node3"><a xlink:href="quickjs_8c.html#a260bfa297ff6cb5bd18e229afaa54663" target="_top" xlink:title="JS_AtomToString">
<polygon fill="none" stroke="#ff0000" points="330,-821 330,-840 426,-840 426,-821 330,-821"/>
<text text-anchor="middle" x="378" y="-828" font-family="Helvetica,sans-Serif" font-size="10.00" fill="#000000">JS_AtomToString</text>
</a>
</g>
</g>
<!-- Node112569&#45;&gt;Node112570 -->
<g id="edge2" class="edge">
<title>Node112569&#45;&gt;Node112570</title>
<path fill="none" stroke="#191970" d="M257.3939,-830.5C281.094,-830.5 307.6542,-830.5 329.8044,-830.5"/>
<polygon fill="#191970" stroke="#191970" points="257.0838,-827.0001 247.0837,-830.5 257.0837,-834.0001 257.0838,-827.0001"/>
</g>
<!-- Node113232 -->
<g id="node7" class="node">
<title>Node113232</title>
<g id="a_node7"><a xlink:href="quickjs_8c.html#afa67965c1017685fc6783776d6d0d4d7" target="_top" xlink:title="JS_AtomToValue">
<polygon fill="none" stroke="#ff0000" points="330.5,-859 330.5,-878 425.5,-878 425.5,-859 330.5,-859"/>
<text text-anchor="middle" x="378" y="-866" font-family="Helvetica,sans-Serif" font-size="10.00" fill="#000000">JS_AtomToValue</text>
</a>
</g>
</g>
<!-- Node112569&#45;&gt;Node113232 -->
<g id="edge8" class="edge">
<title>Node112569&#45;&gt;Node113232</title>
<path fill="none" stroke="#191970" d="M250.9069,-842.181C276.9296,-847.5699 307.4301,-853.8861 332.0282,-858.9799"/>
<polygon fill="#191970" stroke="#191970" points="251.3068,-838.6896 240.8048,-840.089 249.8873,-845.5442 251.3068,-838.6896"/>
</g>
<!-- Node112640 -->
<g id="node4" class="node">
<title>Node112640</title>
<g id="a_node4"><a xlink:href="quickjs_8c.html#ac2894ff4edcdb4e6841bcce9c76081e3" target="_top" xlink:title="JS_CallInternal">
<polygon fill="none" stroke="#ff0000" points="501.5,-859 501.5,-878 588.5,-878 588.5,-859 501.5,-859"/>
<text text-anchor="middle" x="545" y="-866" font-family="Helvetica,sans-Serif" font-size="10.00" fill="#000000">JS_CallInternal</text>
</a>
</g>
</g>
<!-- Node112570&#45;&gt;Node112640 -->
<g id="edge3" class="edge">
<title>Node112570&#45;&gt;Node112640</title>
<path fill="none" stroke="#191970" d="M429.9646,-842.3243C453.5086,-847.6816 480.9737,-853.9311 503.1619,-858.9799"/>
<polygon fill="#191970" stroke="#191970" points="430.6685,-838.8951 420.1412,-840.089 429.1153,-845.7206 430.6685,-838.8951"/>
</g>
<!-- Node112570&#45;&gt;Node112934 -->
<g id="edge5" class="edge">
<title>Node112570&#45;&gt;Node112934</title>
<path fill="none" stroke="#191970" d="M436.2926,-823.8679C454.6517,-821.7791 474.8048,-819.4863 492.7185,-817.4482"/>
<polygon fill="#191970" stroke="#191970" points="435.8435,-820.3963 426.3033,-825.0044 436.6349,-827.3515 435.8435,-820.3963"/>
</g>
<!-- Node112570&#45;&gt;Node112842 -->
<g id="edge6" class="edge">
<title>Node112570&#45;&gt;Node112842</title>
<path fill="none" stroke="#191970" d="M398.5356,-814.5897C412.7086,-803.4139 431.8372,-787.9407 448,-773.5 481.3976,-743.6608 518.6523,-705.7842 535.642,-688.2373"/>
<polygon fill="#191970" stroke="#191970" points="396.1361,-812.0233 390.422,-820.9452 400.4527,-817.5339 396.1361,-812.0233"/>
</g>
<!-- Node112640&#45;&gt;Node112640 -->
<g id="edge4" class="edge">
<title>Node112640&#45;&gt;Node112640</title>
<path fill="none" stroke="#191970" d="M513.9371,-886.7746C514.8228,-892.241 525.1771,-896.5 545,-896.5 574.5039,-896.5 583.0324,-887.0653 570.5854,-878.2571"/>
<polygon fill="#191970" stroke="#191970" points="516.9495,-888.5611 519.4146,-878.2571 511.0618,-884.7749 516.9495,-888.5611"/>
</g>
<!-- Node112842&#45;&gt;Node112842 -->
<g id="edge7" class="edge">
<title>Node112842&#45;&gt;Node112842</title>
<path fill="none" stroke="#191970" d="M513.9371,-696.7746C514.8228,-702.241 525.1771,-706.5 545,-706.5 574.5039,-706.5 583.0324,-697.0653 570.5854,-688.2571"/>
<polygon fill="#191970" stroke="#191970" points="516.9495,-698.5611 519.4146,-688.2571 511.0618,-694.7749 516.9495,-698.5611"/>
</g>
<!-- Node113232&#45;&gt;Node112640 -->
<g id="edge9" class="edge">
<title>Node113232&#45;&gt;Node112640</title>
<path fill="none" stroke="#191970" d="M435.8609,-868.5C457.3726,-868.5 481.3985,-868.5 501.42,-868.5"/>
<polygon fill="#191970" stroke="#191970" points="435.8555,-865.0001 425.8555,-868.5 435.8555,-872.0001 435.8555,-865.0001"/>
</g>
<!-- Node112581 -->
<g id="node8" class="node">
<title>Node112581</title>
<g id="a_node8"><a xlink:href="quickjs_8c.html#a840642c87c5a82d4cc68333376a3b6de" target="_top" xlink:title="js_parse_postfix_expr">
<polygon fill="none" stroke="#ff0000" points="484,-944 484,-963 606,-963 606,-944 484,-944"/>
<text text-anchor="middle" x="545" y="-951" font-family="Helvetica,sans-Serif" font-size="10.00" fill="#000000">js_parse_postfix_expr</text>
</a>
</g>
</g>
<!-- Node113232&#45;&gt;Node112581 -->
<g id="edge10" class="edge">
<title>Node113232&#45;&gt;Node112581</title>
<path fill="none" stroke="#191970" d="M432.0124,-881.1966C437.504,-883.0673 442.9237,-885.1642 448,-887.5 481.4921,-902.9109 516.1139,-929.5228 533.5255,-943.7929"/>
<polygon fill="#191970" stroke="#191970" points="432.6984,-877.743 422.1087,-878.0711 430.5917,-884.4185 432.6984,-877.743"/>
</g>
<!-- Node112581&#45;&gt;Node112581 -->
<g id="edge11" class="edge">
<title>Node112581&#45;&gt;Node112581</title>
<path fill="none" stroke="#191970" d="M513.9371,-971.7746C514.8228,-977.241 525.1771,-981.5 545,-981.5 574.5039,-981.5 583.0324,-972.0653 570.5854,-963.2571"/>
<polygon fill="#191970" stroke="#191970" points="516.9495,-973.5611 519.4146,-963.2571 511.0618,-969.7749 516.9495,-973.5611"/>
</g>
<!-- Node112618&#45;&gt;Node112640 -->
<g id="edge14" class="edge">
<title>Node112618&#45;&gt;Node112640</title>
<path fill="none" stroke="#191970" d="M251.9287,-940.3683C304.1534,-943.8658 382.7937,-944.4893 448,-925.5 481.5689,-915.7241 515.6177,-891.7515 533.0633,-878.2149"/>
<polygon fill="#191970" stroke="#191970" points="252.0752,-936.8698 241.8477,-939.6355 251.5676,-943.8514 252.0752,-936.8698"/>
</g>
<!-- Node112618&#45;&gt;Node112581 -->
<g id="edge15" class="edge">
<title>Node112618&#45;&gt;Node112581</title>
<path fill="none" stroke="#191970" d="M239.9871,-946.383C260.5943,-951.1788 285.363,-956.1328 308,-958.5 369.8848,-964.9713 385.7984,-960.1021 448,-958.5 459.6314,-958.2004 472.0395,-957.6991 483.9606,-957.1265"/>
<polygon fill="#191970" stroke="#191970" points="240.7722,-942.9722 230.2327,-944.0535 239.1461,-949.7807 240.7722,-942.9722"/>
</g>
<!-- Node112618&#45;&gt;Node112619 -->
<g id="edge13" class="edge">
<title>Node112618&#45;&gt;Node112619</title>
<path fill="none" stroke="#191970" d="M251.8888,-925.7431C277.9692,-921.7636 308.3793,-917.1233 332.8023,-913.3967"/>
<polygon fill="#191970" stroke="#191970" points="251.1134,-922.3208 241.7558,-927.2893 252.1694,-929.2407 251.1134,-922.3208"/>
</g>
<!-- Node113233&#45;&gt;Node112842 -->
<g id="edge18" class="edge">
<title>Node113233&#45;&gt;Node112842</title>
<path fill="none" stroke="#191970" d="M230.6239,-695.5418C292.4965,-692.1878 419.0484,-685.3276 491.2955,-681.4112"/>
<polygon fill="#191970" stroke="#191970" points="230.354,-692.0512 220.5581,-696.0874 230.7329,-699.0409 230.354,-692.0512"/>
</g>
<!-- Node113003 -->
<g id="node13" class="node">
<title>Node113003</title>
<g id="a_node13"><a xlink:href="quickjs_8c.html#adf92b748274979904d269c4d3682e4dd" target="_top" xlink:title="js_number_toString">
<polygon fill="none" stroke="#000000" points="322.5,-707 322.5,-726 433.5,-726 433.5,-707 322.5,-707"/>
<text text-anchor="middle" x="378" y="-714" font-family="Helvetica,sans-Serif" font-size="10.00" fill="#000000">js_number_toString</text>
</a>
</g>
</g>
<!-- Node113233&#45;&gt;Node113003 -->
<g id="edge19" class="edge">
<title>Node113233&#45;&gt;Node113003</title>
<path fill="none" stroke="#191970" d="M230.9888,-701.2781C257.0661,-703.9782 292.6356,-707.6612 322.255,-710.728"/>
<polygon fill="#191970" stroke="#191970" points="231.0984,-697.7709 220.7911,-700.2222 230.3774,-704.7336 231.0984,-697.7709"/>
</g>
<!-- Node113004 -->
<g id="node14" class="node">
<title>Node113004</title>
<g id="a_node14"><a xlink:href="quickjs_8c.html#a7440a8b206568f2729470433d57d9a98" target="_top" xlink:title="js_number_toFixed">
<polygon fill="none" stroke="#000000" points="324,-631 324,-650 432,-650 432,-631 324,-631"/>
<text text-anchor="middle" x="378" y="-638" font-family="Helvetica,sans-Serif" font-size="10.00" fill="#000000">js_number_toFixed</text>
</a>
</g>
</g>
<!-- Node113233&#45;&gt;Node113004 -->
<g id="edge20" class="edge">
<title>Node113233&#45;&gt;Node113004</title>
<path fill="none" stroke="#191970" d="M230.308,-686.4233C243.4246,-682.3627 258.3864,-677.727 272,-673.5 297.4018,-665.6128 326.2196,-656.6396 347.3891,-650.0431"/>
<polygon fill="#191970" stroke="#191970" points="229.2083,-683.0998 220.6903,-689.4001 231.2781,-689.7868 229.2083,-683.0998"/>
</g>
<!-- Node113005 -->
<g id="node15" class="node">
<title>Node113005</title>
<g id="a_node15"><a xlink:href="quickjs_8c.html#afad8d7db437ba0647d2dbf77cd9769d6" target="_top" xlink:title="js_number_toExponential">
<polygon fill="none" stroke="#000000" points="308,-745 308,-764 448,-764 448,-745 308,-745"/>
<text text-anchor="middle" x="378" y="-752" font-family="Helvetica,sans-Serif" font-size="10.00" fill="#000000">js_number_toExponential</text>
</a>
</g>
</g>
<!-- Node113233&#45;&gt;Node113005 -->
<g id="edge21" class="edge">
<title>Node113233&#45;&gt;Node113005</title>
<path fill="none" stroke="#191970" d="M230.208,-710.0467C252.4755,-717.7233 281.7852,-727.5612 308,-735.5 318.7263,-738.7483 330.4549,-742.0345 341.1926,-744.9395"/>
<polygon fill="#191970" stroke="#191970" points="231.1037,-706.6529 220.5089,-706.6862 228.812,-713.2672 231.1037,-706.6529"/>
</g>
<!-- Node112628&#45;&gt;Node112628 -->
<g id="edge23" class="edge">
<title>Node112628&#45;&gt;Node112628</title>
<path fill="none" stroke="#191970" d="M165.7542,-584.1539C166.9558,-589.4368 176.5377,-593.5 194.5,-593.5 221.8711,-593.5 229.7831,-584.0653 218.2359,-575.2571"/>
<polygon fill="#191970" stroke="#191970" points="168.9072,-585.6879 170.7641,-575.2571 162.8077,-582.2532 168.9072,-585.6879"/>
</g>
</g>
</svg>
