<?xml version="1.0" encoding="UTF-8" standalone="no"?>
<!DOCTYPE svg PUBLIC "-//W3C//DTD SVG 1.1//EN"
 "http://www.w3.org/Graphics/SVG/1.1/DTD/svg11.dtd">
<!-- Generated by graphviz version 2.40.1 (20161225.0304)
 -->
<!-- Title: js_object_list_add Pages: 1 -->
<svg width="555pt" height="104pt"
 viewBox="0.00 0.00 555.00 104.00" xmlns="http://www.w3.org/2000/svg" xmlns:xlink="http://www.w3.org/1999/xlink">
<g id="graph0" class="graph" transform="scale(1 1) rotate(0) translate(4 100)">
<title>js_object_list_add</title>
<!-- Node361221 -->
<g id="node1" class="node">
<title>Node361221</title>
<polygon fill="#bfbfbf" stroke="#000000" points="0,-38.5 0,-57.5 104,-57.5 104,-38.5 0,-38.5"/>
<text text-anchor="middle" x="52" y="-45.5" font-family="Helvetica,sans-Serif" font-size="10.00" fill="#000000">js_object_list_add</text>
</g>
<!-- Node361222 -->
<g id="node2" class="node">
<title>Node361222</title>
<g id="a_node2"><a xlink:href="quickjs_8c.html#a707a8e97485085ccb9b9822fa2307f54" target="_top" xlink:title="js_object_list_get_hash">
<polygon fill="none" stroke="#000000" points="319,-76.5 319,-95.5 449,-95.5 449,-76.5 319,-76.5"/>
<text text-anchor="middle" x="384" y="-83.5" font-family="Helvetica,sans-Serif" font-size="10.00" fill="#000000">js_object_list_get_hash</text>
</a>
</g>
</g>
<!-- Node361221&#45;&gt;Node361222 -->
<g id="edge1" class="edge">
<title>Node361221&#45;&gt;Node361222</title>
<path fill="none" stroke="#191970" d="M90.7827,-57.5549C106.0394,-61.0028 123.7613,-64.6258 140,-67 196.2263,-75.2207 260.297,-80.0376 308.6712,-82.7635"/>
<polygon fill="#191970" stroke="#191970" points="308.5709,-86.2631 318.747,-83.3139 308.9528,-79.2736 308.5709,-86.2631"/>
</g>
<!-- Node361223 -->
<g id="node3" class="node">
<title>Node361223</title>
<g id="a_node3"><a xlink:href="quickjs_8c.html#afeeae981762510796811e51355d56544" target="_top" xlink:title="js_object_list_resize_hash">
<polygon fill="none" stroke="#000000" points="140,-38.5 140,-57.5 283,-57.5 283,-38.5 140,-38.5"/>
<text text-anchor="middle" x="211.5" y="-45.5" font-family="Helvetica,sans-Serif" font-size="10.00" fill="#000000">js_object_list_resize_hash</text>
</a>
</g>
</g>
<!-- Node361221&#45;&gt;Node361223 -->
<g id="edge2" class="edge">
<title>Node361221&#45;&gt;Node361223</title>
<path fill="none" stroke="#191970" d="M104.2263,-48C112.3889,-48 120.99,-48 129.6243,-48"/>
<polygon fill="#191970" stroke="#191970" points="129.7513,-51.5001 139.7512,-48 129.7512,-44.5001 129.7513,-51.5001"/>
</g>
<!-- Node361226 -->
<g id="node6" class="node">
<title>Node361226</title>
<g id="a_node6"><a xlink:href="cutils_8h.html#a5a2cb266a87252bf4a7baaaaf9f59fb1" target="_top" xlink:title="max_uint32">
<polygon fill="none" stroke="#000000" points="174.5,-.5 174.5,-19.5 248.5,-19.5 248.5,-.5 174.5,-.5"/>
<text text-anchor="middle" x="211.5" y="-7.5" font-family="Helvetica,sans-Serif" font-size="10.00" fill="#000000">max_uint32</text>
</a>
</g>
</g>
<!-- Node361221&#45;&gt;Node361226 -->
<g id="edge6" class="edge">
<title>Node361221&#45;&gt;Node361226</title>
<path fill="none" stroke="#191970" d="M92.2486,-38.411C114.195,-33.1824 141.4809,-26.6817 164.4117,-21.2185"/>
<polygon fill="#191970" stroke="#191970" points="165.3576,-24.5912 174.2742,-18.8688 163.7353,-17.7818 165.3576,-24.5912"/>
</g>
<!-- Node361223&#45;&gt;Node361222 -->
<g id="edge5" class="edge">
<title>Node361223&#45;&gt;Node361222</title>
<path fill="none" stroke="#191970" d="M255.029,-57.589C278.0999,-62.6713 306.6266,-68.9554 330.9805,-74.3203"/>
<polygon fill="#191970" stroke="#191970" points="330.2651,-77.7466 340.784,-76.4799 331.7711,-70.9105 330.2651,-77.7466"/>
</g>
<!-- Node361224 -->
<g id="node4" class="node">
<title>Node361224</title>
<g id="a_node4"><a xlink:href="quickjs_8c.html#a80e54dcf9ac687d4ccc2f90273565f30" target="_top" xlink:title="js_free">
<polygon fill="none" stroke="#000000" points="359,-38.5 359,-57.5 409,-57.5 409,-38.5 359,-38.5"/>
<text text-anchor="middle" x="384" y="-45.5" font-family="Helvetica,sans-Serif" font-size="10.00" fill="#000000">js_free</text>
</a>
</g>
</g>
<!-- Node361223&#45;&gt;Node361224 -->
<g id="edge3" class="edge">
<title>Node361223&#45;&gt;Node361224</title>
<path fill="none" stroke="#191970" d="M283.1569,-48C305.702,-48 329.6171,-48 348.4973,-48"/>
<polygon fill="#191970" stroke="#191970" points="348.7048,-51.5001 358.7048,-48 348.7048,-44.5001 348.7048,-51.5001"/>
</g>
<!-- Node361225 -->
<g id="node5" class="node">
<title>Node361225</title>
<g id="a_node5"><a xlink:href="quickjs_8c.html#a69e19dda8a93d613203e0baa06f0ed8d" target="_top" xlink:title="js_free_rt">
<polygon fill="none" stroke="#000000" points="485,-38.5 485,-57.5 547,-57.5 547,-38.5 485,-38.5"/>
<text text-anchor="middle" x="516" y="-45.5" font-family="Helvetica,sans-Serif" font-size="10.00" fill="#000000">js_free_rt</text>
</a>
</g>
</g>
<!-- Node361224&#45;&gt;Node361225 -->
<g id="edge4" class="edge">
<title>Node361224&#45;&gt;Node361225</title>
<path fill="none" stroke="#191970" d="M409.1389,-48C427.6524,-48 453.2377,-48 474.7318,-48"/>
<polygon fill="#191970" stroke="#191970" points="474.9059,-51.5001 484.9059,-48 474.9058,-44.5001 474.9059,-51.5001"/>
</g>
</g>
</svg>
