<?xml version="1.0" encoding="UTF-8" standalone="no"?>
<!DOCTYPE svg PUBLIC "-//W3C//DTD SVG 1.1//EN"
 "http://www.w3.org/Graphics/SVG/1.1/DTD/svg11.dtd">
<!-- Generated by graphviz version 2.40.1 (20161225.0304)
 -->
<!-- Title: js_std_add_helpers Pages: 1 -->
<!--zoomable 590 -->
<svg id="main" version="1.1" xmlns="http://www.w3.org/2000/svg" xmlns:xlink="http://www.w3.org/1999/xlink" xml:space="preserve" onload="init(evt)">
<style type="text/css"><![CDATA[
.edge:hover path { stroke: red; }
.edge:hover polygon { stroke: red; fill: red; }
]]></style>
<script type="text/javascript"><![CDATA[
var edges = document.getElementsByTagName('g');
if (edges && edges.length) {
  for (var i=0;i<edges.length;i++) {
    if (edges[i].id.substr(0,4)=='edge') {
      edges[i].setAttribute('class','edge');
    }
  }
}
]]></script>
        <defs>
                <circle id="rim" cx="0" cy="0" r="7"/>
                <circle id="rim2" cx="0" cy="0" r="3.5"/>
                <g id="zoomPlus">
                        <use xlink:href="#rim" fill="#404040">
                                <set attributeName="fill" to="#808080" begin="zoomplus.mouseover" end="zoomplus.mouseout"/>
                        </use>
                        <path d="M-4,0h8M0,-4v8" fill="none" stroke="white" stroke-width="1.5" pointer-events="none"/>
                </g>
                <g id="zoomMin">
                        <use xlink:href="#rim" fill="#404040">
                                <set attributeName="fill" to="#808080" begin="zoomminus.mouseover" end="zoomminus.mouseout"/>
                        </use>
                        <path d="M-4,0h8" fill="none" stroke="white" stroke-width="1.5" pointer-events="none"/>
                </g>
                <g id="dirArrow">
                        <path fill="none" stroke="white" stroke-width="1.5" d="M0,-3.0v7 M-2.5,-0.5L0,-3.0L2.5,-0.5"/>
                </g>
               <g id="resetDef">
                       <use xlink:href="#rim2" fill="#404040">
                               <set attributeName="fill" to="#808080" begin="reset.mouseover" end="reset.mouseout"/>
                       </use>
               </g>
        </defs>

<script type="text/javascript">
var viewWidth = 963;
var viewHeight = 590;
var sectionId = 'dynsection-6';
</script>
<script xlink:href="svgpan.js"/>
<svg id="graph" class="graph">
<g id="viewport">
<title>js_std_add_helpers</title>
<!-- Node980 -->
<g id="node1" class="node">
<title>Node980</title>
<polygon fill="#bfbfbf" stroke="#000000" points="0,-171.5 0,-190.5 110,-190.5 110,-171.5 0,-171.5"/>
<text text-anchor="middle" x="55" y="-178.5" font-family="Helvetica,sans-Serif" font-size="10.00" fill="#000000">js_std_add_helpers</text>
</g>
<!-- Node981 -->
<g id="node2" class="node">
<title>Node981</title>
<g id="a_node2"><a xlink:href="quickjs_8h.html#afaa20c47565bc704c6c85f3d77254e7d" target="_top" xlink:title="JS_FreeValue">
<polygon fill="none" stroke="#000000" points="614.5,-456.5 614.5,-475.5 692.5,-475.5 692.5,-456.5 614.5,-456.5"/>
<text text-anchor="middle" x="653.5" y="-463.5" font-family="Helvetica,sans-Serif" font-size="10.00" fill="#000000">JS_FreeValue</text>
</a>
</g>
</g>
<!-- Node980&#45;&gt;Node981 -->
<g id="edge1" class="edge">
<title>Node980&#45;&gt;Node981</title>
<path fill="none" stroke="#191970" d="M56.2316,-190.6203C62.8697,-241.002 95.9521,-473.9981 146,-523 236.0497,-611.1676 302.406,-579.9423 427,-561 496.4884,-550.4355 514.2301,-543.5576 578,-514 597.3724,-505.0208 617.7101,-491.844 632.3904,-481.5669"/>
<polygon fill="#191970" stroke="#191970" points="634.6351,-484.2648 640.7406,-475.6061 630.568,-478.5675 634.6351,-484.2648"/>
</g>
<!-- Node1019 -->
<g id="node5" class="node">
<title>Node1019</title>
<g id="a_node5"><a xlink:href="quickjs_8c.html#ad2256fd11b2bdbdd19ddf38f681814bd" target="_top" xlink:title="JS_GetGlobalObject">
<polygon fill="none" stroke="#000000" points="465,-190.5 465,-209.5 576,-209.5 576,-190.5 465,-190.5"/>
<text text-anchor="middle" x="520.5" y="-197.5" font-family="Helvetica,sans-Serif" font-size="10.00" fill="#000000">JS_GetGlobalObject</text>
</a>
</g>
</g>
<!-- Node980&#45;&gt;Node1019 -->
<g id="edge4" class="edge">
<title>Node980&#45;&gt;Node1019</title>
<path fill="none" stroke="#191970" d="M110.227,-183.2542C196.4634,-186.774 362.7489,-193.5612 454.9363,-197.3239"/>
<polygon fill="#191970" stroke="#191970" points="454.8489,-200.8232 464.9834,-197.734 455.1345,-193.829 454.8489,-200.8232"/>
</g>
<!-- Node1021 -->
<g id="node7" class="node">
<title>Node1021</title>
<g id="a_node7"><a xlink:href="quickjs-libc_8c.html#acedf696011fa506afce358928ffa1522" target="_top" xlink:title="js_loadScript">
<polygon fill="none" stroke="#000000" points="166.5,-399.5 166.5,-418.5 245.5,-418.5 245.5,-399.5 166.5,-399.5"/>
<text text-anchor="middle" x="206" y="-406.5" font-family="Helvetica,sans-Serif" font-size="10.00" fill="#000000">js_loadScript</text>
</a>
</g>
</g>
<!-- Node980&#45;&gt;Node1021 -->
<g id="edge6" class="edge">
<title>Node980&#45;&gt;Node1021</title>
<path fill="none" stroke="#191970" d="M61.296,-190.5066C84.2723,-225.1992 163.839,-345.3397 194.1486,-391.1052"/>
<polygon fill="#191970" stroke="#191970" points="191.2373,-393.0481 199.6771,-399.4528 197.0735,-389.1829 191.2373,-393.0481"/>
</g>
<!-- Node1244 -->
<g id="node15" class="node">
<title>Node1244</title>
<g id="a_node15"><a xlink:href="quickjs_8c.html#ad4ba09e4c7ab9f28c144182e1aacf1f6" target="_top" xlink:title="JS_NewArray">
<polygon fill="none" stroke="#ff0000" points="166.5,-76.5 166.5,-95.5 245.5,-95.5 245.5,-76.5 166.5,-76.5"/>
<text text-anchor="middle" x="206" y="-83.5" font-family="Helvetica,sans-Serif" font-size="10.00" fill="#000000">JS_NewArray</text>
</a>
</g>
</g>
<!-- Node980&#45;&gt;Node1244 -->
<g id="edge18" class="edge">
<title>Node980&#45;&gt;Node1244</title>
<path fill="none" stroke="#191970" d="M63.912,-171.4438C79.247,-155.5229 112.2435,-123.496 146,-105 149.9333,-102.8449 154.1477,-100.8924 158.4521,-99.133"/>
<polygon fill="#191970" stroke="#191970" points="159.8022,-102.3649 167.9445,-95.586 157.352,-95.8077 159.8022,-102.3649"/>
</g>
<!-- Node1420 -->
<g id="node16" class="node">
<title>Node1420</title>
<g id="a_node16"><a xlink:href="quickjs_8h.html#aa68c88001ca8a8662d8f9f321a72f421" target="_top" xlink:title="JS_NewCFunction">
<polygon fill="none" stroke="#000000" points="156,-114.5 156,-133.5 256,-133.5 256,-114.5 156,-114.5"/>
<text text-anchor="middle" x="206" y="-121.5" font-family="Helvetica,sans-Serif" font-size="10.00" fill="#000000">JS_NewCFunction</text>
</a>
</g>
</g>
<!-- Node980&#45;&gt;Node1420 -->
<g id="edge19" class="edge">
<title>Node980&#45;&gt;Node1420</title>
<path fill="none" stroke="#191970" d="M76.4821,-171.3934C94.788,-163.3612 121.8858,-151.8331 146,-143 151.925,-140.8296 158.2302,-138.6716 164.4425,-136.6308"/>
<polygon fill="#191970" stroke="#191970" points="165.6134,-139.9308 174.0602,-133.5353 163.4687,-133.2674 165.6134,-139.9308"/>
</g>
<!-- Node1233 -->
<g id="node21" class="node">
<title>Node1233</title>
<g id="a_node21"><a xlink:href="quickjs_8c.html#afc0d8ea75588216ec132a6e1655524a7" target="_top" xlink:title="JS_NewObject">
<polygon fill="none" stroke="#ff0000" points="164,-38.5 164,-57.5 248,-57.5 248,-38.5 164,-38.5"/>
<text text-anchor="middle" x="206" y="-45.5" font-family="Helvetica,sans-Serif" font-size="10.00" fill="#000000">JS_NewObject</text>
</a>
</g>
</g>
<!-- Node980&#45;&gt;Node1233 -->
<g id="edge24" class="edge">
<title>Node980&#45;&gt;Node1233</title>
<path fill="none" stroke="#191970" d="M59.9865,-171.466C71.8733,-149.6616 104.0441,-95.8208 146,-67 148.8792,-65.0222 151.975,-63.2421 155.1883,-61.6411"/>
<polygon fill="#191970" stroke="#191970" points="156.7086,-64.7964 164.4733,-57.5881 153.9082,-58.381 156.7086,-64.7964"/>
</g>
<!-- Node1035 -->
<g id="node22" class="node">
<title>Node1035</title>
<g id="a_node22"><a xlink:href="quickjs_8c.html#a0ee6a3654a6016393fac5e1c108f403a" target="_top" xlink:title="JS_NewString">
<polygon fill="none" stroke="#ff0000" points="165.5,-.5 165.5,-19.5 246.5,-19.5 246.5,-.5 165.5,-.5"/>
<text text-anchor="middle" x="206" y="-7.5" font-family="Helvetica,sans-Serif" font-size="10.00" fill="#000000">JS_NewString</text>
</a>
</g>
</g>
<!-- Node980&#45;&gt;Node1035 -->
<g id="edge25" class="edge">
<title>Node980&#45;&gt;Node1035</title>
<path fill="none" stroke="#191970" d="M58.1052,-171.1574C67.107,-144.2227 95.8167,-68.6772 146,-29 149.0936,-26.554 152.5076,-24.4201 156.0902,-22.5588"/>
<polygon fill="#191970" stroke="#191970" points="157.5485,-25.7408 165.256,-18.4714 154.6975,-19.3477 157.5485,-25.7408"/>
</g>
<!-- Node1423 -->
<g id="node23" class="node">
<title>Node1423</title>
<g id="a_node23"><a xlink:href="quickjs-libc_8c.html#a26a501e5bf41a733d365f221143ff3d5" target="_top" xlink:title="js_print">
<polygon fill="none" stroke="#000000" points="179.5,-494.5 179.5,-513.5 232.5,-513.5 232.5,-494.5 179.5,-494.5"/>
<text text-anchor="middle" x="206" y="-501.5" font-family="Helvetica,sans-Serif" font-size="10.00" fill="#000000">js_print</text>
</a>
</g>
</g>
<!-- Node980&#45;&gt;Node1423 -->
<g id="edge26" class="edge">
<title>Node980&#45;&gt;Node1423</title>
<path fill="none" stroke="#191970" d="M57.4373,-190.8988C66.1397,-225.2451 97.7563,-341.8812 146,-428 158.2251,-449.8229 176.5091,-471.9528 189.6785,-486.6603"/>
<polygon fill="#191970" stroke="#191970" points="187.4266,-489.3843 196.757,-494.4037 192.5932,-484.6613 187.4266,-489.3843"/>
</g>
<!-- Node1424 -->
<g id="node25" class="node">
<title>Node1424</title>
<g id="a_node25"><a xlink:href="quickjs_8c.html#a62617fe11025d2e5a545db069fc28e64" target="_top" xlink:title="JS_SetPropertyStr">
<polygon fill="none" stroke="#000000" points="155.5,-152.5 155.5,-171.5 256.5,-171.5 256.5,-152.5 155.5,-152.5"/>
<text text-anchor="middle" x="206" y="-159.5" font-family="Helvetica,sans-Serif" font-size="10.00" fill="#000000">JS_SetPropertyStr</text>
</a>
</g>
</g>
<!-- Node980&#45;&gt;Node1424 -->
<g id="edge30" class="edge">
<title>Node980&#45;&gt;Node1424</title>
<path fill="none" stroke="#191970" d="M110.3694,-174.033C121.6969,-172.6077 133.6766,-171.1003 145.1831,-169.6525"/>
<polygon fill="#191970" stroke="#191970" points="145.6599,-173.1202 155.1447,-168.399 144.7859,-166.1749 145.6599,-173.1202"/>
</g>
<!-- Node1425 -->
<g id="node28" class="node">
<title>Node1425</title>
<g id="a_node28"><a xlink:href="quickjs_8c.html#aae909eaec829081b270012adfcd717a4" target="_top" xlink:title="JS_SetPropertyUint32">
<polygon fill="none" stroke="#000000" points="146,-266.5 146,-285.5 266,-285.5 266,-266.5 146,-266.5"/>
<text text-anchor="middle" x="206" y="-273.5" font-family="Helvetica,sans-Serif" font-size="10.00" fill="#000000">JS_SetPropertyUint32</text>
</a>
</g>
</g>
<!-- Node980&#45;&gt;Node1425 -->
<g id="edge40" class="edge">
<title>Node980&#45;&gt;Node1425</title>
<path fill="none" stroke="#191970" d="M70.3097,-190.6319C96.6509,-207.2042 150.7303,-241.2277 182.0792,-260.9505"/>
<polygon fill="#191970" stroke="#191970" points="180.3218,-263.9799 190.6498,-266.3426 184.0494,-258.0549 180.3218,-263.9799"/>
</g>
<!-- Node982 -->
<g id="node3" class="node">
<title>Node982</title>
<g id="a_node3"><a xlink:href="quickjs_8c.html#aa059f309c30fd5166d16c82a97973146" target="_top" xlink:title="__JS_FreeValue">
<polygon fill="none" stroke="#000000" points="729,-456.5 729,-475.5 818,-475.5 818,-456.5 729,-456.5"/>
<text text-anchor="middle" x="773.5" y="-463.5" font-family="Helvetica,sans-Serif" font-size="10.00" fill="#000000">__JS_FreeValue</text>
</a>
</g>
</g>
<!-- Node981&#45;&gt;Node982 -->
<g id="edge2" class="edge">
<title>Node981&#45;&gt;Node982</title>
<path fill="none" stroke="#191970" d="M692.7925,-466C701.0462,-466 709.8958,-466 718.6011,-466"/>
<polygon fill="#191970" stroke="#191970" points="718.7098,-469.5001 728.7098,-466 718.7098,-462.5001 718.7098,-469.5001"/>
</g>
<!-- Node983 -->
<g id="node4" class="node">
<title>Node983</title>
<g id="a_node4"><a xlink:href="quickjs_8c.html#ab1ea3fad7d138be12144a38be4d36423" target="_top" xlink:title="__JS_FreeValueRT">
<polygon fill="none" stroke="#ff0000" points="854,-456.5 854,-475.5 955,-475.5 955,-456.5 854,-456.5"/>
<text text-anchor="middle" x="904.5" y="-463.5" font-family="Helvetica,sans-Serif" font-size="10.00" fill="#000000">__JS_FreeValueRT</text>
</a>
</g>
</g>
<!-- Node982&#45;&gt;Node983 -->
<g id="edge3" class="edge">
<title>Node982&#45;&gt;Node983</title>
<path fill="none" stroke="#191970" d="M818.2164,-466C826.3314,-466 834.9213,-466 843.4118,-466"/>
<polygon fill="#191970" stroke="#191970" points="843.6806,-469.5001 853.6806,-466 843.6806,-462.5001 843.6806,-469.5001"/>
</g>
<!-- Node1020 -->
<g id="node6" class="node">
<title>Node1020</title>
<g id="a_node6"><a xlink:href="quickjs_8h.html#a775522f2d084fc8fa0fcb33f390006b4" target="_top" xlink:title="JS_DupValue">
<polygon fill="none" stroke="#000000" points="615,-228.5 615,-247.5 692,-247.5 692,-228.5 615,-228.5"/>
<text text-anchor="middle" x="653.5" y="-235.5" font-family="Helvetica,sans-Serif" font-size="10.00" fill="#000000">JS_DupValue</text>
</a>
</g>
</g>
<!-- Node1019&#45;&gt;Node1020 -->
<g id="edge5" class="edge">
<title>Node1019&#45;&gt;Node1020</title>
<path fill="none" stroke="#191970" d="M554.0615,-209.589C571.073,-214.4494 591.9319,-220.4091 610.1446,-225.6127"/>
<polygon fill="#191970" stroke="#191970" points="609.3724,-229.0321 619.9492,-228.4141 611.2955,-222.3014 609.3724,-229.0321"/>
</g>
<!-- Node1022 -->
<g id="node8" class="node">
<title>Node1022</title>
<g id="a_node8"><a xlink:href="quickjs_8c.html#a8f9200abd5af97fd0411fe053cb021e0" target="_top" xlink:title="JS_Eval">
<polygon fill="none" stroke="#000000" points="338.5,-342.5 338.5,-361.5 390.5,-361.5 390.5,-342.5 338.5,-342.5"/>
<text text-anchor="middle" x="364.5" y="-349.5" font-family="Helvetica,sans-Serif" font-size="10.00" fill="#000000">JS_Eval</text>
</a>
</g>
</g>
<!-- Node1021&#45;&gt;Node1022 -->
<g id="edge7" class="edge">
<title>Node1021&#45;&gt;Node1022</title>
<path fill="none" stroke="#191970" d="M232.5293,-399.4595C258.9744,-389.9493 299.7532,-375.2843 328.9801,-364.7737"/>
<polygon fill="#191970" stroke="#191970" points="330.186,-368.0596 338.4116,-361.382 327.8171,-361.4726 330.186,-368.0596"/>
</g>
<!-- Node1003 -->
<g id="node10" class="node">
<title>Node1003</title>
<g id="a_node10"><a xlink:href="quickjs_8c.html#a80e54dcf9ac687d4ccc2f90273565f30" target="_top" xlink:title="js_free">
<polygon fill="none" stroke="#ff0000" points="495.5,-399.5 495.5,-418.5 545.5,-418.5 545.5,-399.5 495.5,-399.5"/>
<text text-anchor="middle" x="520.5" y="-406.5" font-family="Helvetica,sans-Serif" font-size="10.00" fill="#000000">js_free</text>
</a>
</g>
</g>
<!-- Node1021&#45;&gt;Node1003 -->
<g id="edge9" class="edge">
<title>Node1021&#45;&gt;Node1003</title>
<path fill="none" stroke="#191970" d="M245.5132,-409C307.3267,-409 425.9329,-409 485.1078,-409"/>
<polygon fill="#191970" stroke="#191970" points="485.4383,-412.5001 495.4383,-409 485.4383,-405.5001 485.4383,-412.5001"/>
</g>
<!-- Node1025 -->
<g id="node11" class="node">
<title>Node1025</title>
<g id="a_node11"><a xlink:href="quickjs_8c.html#ae0bc4f65da64810facb2cb9e476eda2e" target="_top" xlink:title="JS_FreeCString">
<polygon fill="none" stroke="#000000" points="321.5,-532.5 321.5,-551.5 407.5,-551.5 407.5,-532.5 321.5,-532.5"/>
<text text-anchor="middle" x="364.5" y="-539.5" font-family="Helvetica,sans-Serif" font-size="10.00" fill="#000000">JS_FreeCString</text>
</a>
</g>
</g>
<!-- Node1021&#45;&gt;Node1025 -->
<g id="edge10" class="edge">
<title>Node1021&#45;&gt;Node1025</title>
<path fill="none" stroke="#191970" d="M213.6747,-418.7393C234.413,-444.9644 290.7679,-515.5926 302,-523 305.1184,-525.0565 308.4689,-526.8984 311.9403,-528.5467"/>
<polygon fill="#191970" stroke="#191970" points="310.7587,-531.8462 321.335,-532.4728 313.4578,-525.3875 310.7587,-531.8462"/>
</g>
<!-- Node1026 -->
<g id="node12" class="node">
<title>Node1026</title>
<g id="a_node12"><a xlink:href="quickjs-libc_8c.html#a529207225a77f71253f17893e1e6dffb" target="_top" xlink:title="js_load_file">
<polygon fill="none" stroke="#000000" points="329,-418.5 329,-437.5 400,-437.5 400,-418.5 329,-418.5"/>
<text text-anchor="middle" x="364.5" y="-425.5" font-family="Helvetica,sans-Serif" font-size="10.00" fill="#000000">js_load_file</text>
</a>
</g>
</g>
<!-- Node1021&#45;&gt;Node1026 -->
<g id="edge12" class="edge">
<title>Node1021&#45;&gt;Node1026</title>
<path fill="none" stroke="#191970" d="M245.5874,-413.7455C267.8719,-416.4168 295.7938,-419.7639 318.98,-422.5433"/>
<polygon fill="#191970" stroke="#191970" points="318.5832,-426.0208 328.9287,-423.7359 319.4164,-419.0705 318.5832,-426.0208"/>
</g>
<!-- Node1027 -->
<g id="node13" class="node">
<title>Node1027</title>
<g id="a_node13"><a xlink:href="quickjs_8h.html#af931f06630ab719b5f82a16eb27effd1" target="_top" xlink:title="JS_ToCString">
<polygon fill="none" stroke="#000000" points="326,-456.5 326,-475.5 403,-475.5 403,-456.5 326,-456.5"/>
<text text-anchor="middle" x="364.5" y="-463.5" font-family="Helvetica,sans-Serif" font-size="10.00" fill="#000000">JS_ToCString</text>
</a>
</g>
</g>
<!-- Node1021&#45;&gt;Node1027 -->
<g id="edge14" class="edge">
<title>Node1021&#45;&gt;Node1027</title>
<path fill="none" stroke="#191970" d="M228.6909,-418.5899C248.0202,-426.612 276.6163,-438.1345 302,-447 308.3304,-449.211 315.0705,-451.4141 321.6934,-453.4952"/>
<polygon fill="#191970" stroke="#191970" points="320.6641,-456.8403 331.2515,-456.4434 322.7274,-450.1513 320.6641,-456.8403"/>
</g>
<!-- Node1023 -->
<g id="node9" class="node">
<title>Node1023</title>
<g id="a_node9"><a xlink:href="quickjs_8c.html#a99d6f8b4fcb9989546e5fb13d65aaf55" target="_top" xlink:title="JS_EvalThis">
<polygon fill="none" stroke="#ff0000" points="484.5,-342.5 484.5,-361.5 556.5,-361.5 556.5,-342.5 484.5,-342.5"/>
<text text-anchor="middle" x="520.5" y="-349.5" font-family="Helvetica,sans-Serif" font-size="10.00" fill="#000000">JS_EvalThis</text>
</a>
</g>
</g>
<!-- Node1022&#45;&gt;Node1023 -->
<g id="edge8" class="edge">
<title>Node1022&#45;&gt;Node1023</title>
<path fill="none" stroke="#191970" d="M390.6109,-352C413.3767,-352 446.9355,-352 474.2388,-352"/>
<polygon fill="#191970" stroke="#191970" points="474.3613,-355.5001 484.3613,-352 474.3613,-348.5001 474.3613,-355.5001"/>
</g>
<!-- Node1025&#45;&gt;Node981 -->
<g id="edge11" class="edge">
<title>Node1025&#45;&gt;Node981</title>
<path fill="none" stroke="#191970" d="M400.8094,-532.4515C453.1524,-518.6866 549.812,-493.2674 607.2148,-478.1719"/>
<polygon fill="#191970" stroke="#191970" points="608.3308,-481.4975 617.1118,-475.5692 606.5504,-474.7277 608.3308,-481.4975"/>
</g>
<!-- Node1026&#45;&gt;Node1003 -->
<g id="edge13" class="edge">
<title>Node1026&#45;&gt;Node1003</title>
<path fill="none" stroke="#191970" d="M400.2896,-423.641C425.7473,-420.5404 459.7897,-416.3942 485.1482,-413.3057"/>
<polygon fill="#191970" stroke="#191970" points="485.5866,-416.7782 495.0901,-412.0948 484.7402,-409.8296 485.5866,-416.7782"/>
</g>
<!-- Node1028 -->
<g id="node14" class="node">
<title>Node1028</title>
<g id="a_node14"><a xlink:href="quickjs_8c.html#af49e67b73f845dc1f9c3ee648dd9f95c" target="_top" xlink:title="JS_ToCStringLen2">
<polygon fill="none" stroke="#ff0000" points="470.5,-456.5 470.5,-475.5 570.5,-475.5 570.5,-456.5 470.5,-456.5"/>
<text text-anchor="middle" x="520.5" y="-463.5" font-family="Helvetica,sans-Serif" font-size="10.00" fill="#000000">JS_ToCStringLen2</text>
</a>
</g>
</g>
<!-- Node1027&#45;&gt;Node1028 -->
<g id="edge15" class="edge">
<title>Node1027&#45;&gt;Node1028</title>
<path fill="none" stroke="#191970" d="M403.0618,-466C420.2701,-466 440.9538,-466 460.1358,-466"/>
<polygon fill="#191970" stroke="#191970" points="460.3038,-469.5001 470.3038,-466 460.3037,-462.5001 460.3038,-469.5001"/>
</g>
<!-- Node1028&#45;&gt;Node981 -->
<g id="edge17" class="edge">
<title>Node1028&#45;&gt;Node981</title>
<path fill="none" stroke="#191970" d="M570.7816,-466C581.7077,-466 593.2559,-466 604.1458,-466"/>
<polygon fill="#191970" stroke="#191970" points="604.343,-469.5001 614.343,-466 604.343,-462.5001 604.343,-469.5001"/>
</g>
<!-- Node1028&#45;&gt;Node1020 -->
<g id="edge16" class="edge">
<title>Node1028&#45;&gt;Node1020</title>
<path fill="none" stroke="#191970" d="M541.1676,-456.3679C553.2879,-449.8289 568.1129,-440.1635 578,-428 621.0142,-375.0822 641.9892,-294.5785 649.7783,-257.6998"/>
<polygon fill="#191970" stroke="#191970" points="653.2421,-258.2278 651.782,-247.7341 646.3794,-256.8479 653.2421,-258.2278"/>
</g>
<!-- Node1421 -->
<g id="node17" class="node">
<title>Node1421</title>
<g id="a_node17"><a xlink:href="quickjs_8c.html#a76d4772691a319f48dc636a0e7f6c1ed" target="_top" xlink:title="JS_NewCFunction2">
<polygon fill="none" stroke="#000000" points="311.5,-76.5 311.5,-95.5 417.5,-95.5 417.5,-76.5 311.5,-76.5"/>
<text text-anchor="middle" x="364.5" y="-83.5" font-family="Helvetica,sans-Serif" font-size="10.00" fill="#000000">JS_NewCFunction2</text>
</a>
</g>
</g>
<!-- Node1420&#45;&gt;Node1421 -->
<g id="edge20" class="edge">
<title>Node1420&#45;&gt;Node1421</title>
<path fill="none" stroke="#191970" d="M245.9962,-114.411C266.912,-109.3965 292.7081,-103.2119 314.8864,-97.8947"/>
<polygon fill="#191970" stroke="#191970" points="315.883,-101.2551 324.7914,-95.5201 314.2509,-94.448 315.883,-101.2551"/>
</g>
<!-- Node1422 -->
<g id="node18" class="node">
<title>Node1422</title>
<g id="a_node18"><a xlink:href="quickjs_8c.html#a21cfe4c4fc9372dc0b95b37667cff0c9" target="_top" xlink:title="JS_NewCFunction3">
<polygon fill="none" stroke="#ff0000" points="467.5,-76.5 467.5,-95.5 573.5,-95.5 573.5,-76.5 467.5,-76.5"/>
<text text-anchor="middle" x="520.5" y="-83.5" font-family="Helvetica,sans-Serif" font-size="10.00" fill="#000000">JS_NewCFunction3</text>
</a>
</g>
</g>
<!-- Node1421&#45;&gt;Node1422 -->
<g id="edge21" class="edge">
<title>Node1421&#45;&gt;Node1422</title>
<path fill="none" stroke="#191970" d="M417.75,-86C430.4258,-86 444.0744,-86 457.153,-86"/>
<polygon fill="#191970" stroke="#191970" points="457.49,-89.5001 467.49,-86 457.4899,-82.5001 457.49,-89.5001"/>
</g>
<!-- Node1289 -->
<g id="node19" class="node">
<title>Node1289</title>
<g id="a_node19"><a xlink:href="quickjs_8c.html#aa2ef5af1544a3012f91a80c98c326b8f" target="_top" xlink:title="JS_NewAtom">
<polygon fill="none" stroke="#ff0000" points="614,-95.5 614,-114.5 693,-114.5 693,-95.5 614,-95.5"/>
<text text-anchor="middle" x="653.5" y="-102.5" font-family="Helvetica,sans-Serif" font-size="10.00" fill="#000000">JS_NewAtom</text>
</a>
</g>
</g>
<!-- Node1422&#45;&gt;Node1289 -->
<g id="edge22" class="edge">
<title>Node1422&#45;&gt;Node1289</title>
<path fill="none" stroke="#191970" d="M573.8298,-93.6185C583.6991,-95.0284 593.9714,-96.4959 603.7298,-97.89"/>
<polygon fill="#191970" stroke="#191970" points="603.28,-101.3612 613.6745,-99.3106 604.27,-94.4315 603.28,-101.3612"/>
</g>
<!-- Node1000 -->
<g id="node20" class="node">
<title>Node1000</title>
<g id="a_node20"><a xlink:href="quickjs_8c.html#ab7fc45a99935a1c0ba50b0216d9401a9" target="_top" xlink:title="JS_FreeAtom">
<polygon fill="none" stroke="#ff0000" points="615,-152.5 615,-171.5 692,-171.5 692,-152.5 615,-152.5"/>
<text text-anchor="middle" x="653.5" y="-159.5" font-family="Helvetica,sans-Serif" font-size="10.00" fill="#000000">JS_FreeAtom</text>
</a>
</g>
</g>
<!-- Node1422&#45;&gt;Node1000 -->
<g id="edge23" class="edge">
<title>Node1422&#45;&gt;Node1000</title>
<path fill="none" stroke="#191970" d="M537.3445,-95.6255C560.2295,-108.7025 601.3424,-132.1957 628.014,-147.4366"/>
<polygon fill="#191970" stroke="#191970" points="626.3733,-150.5301 636.7922,-152.4527 629.8463,-144.4524 626.3733,-150.5301"/>
</g>
<!-- Node1423&#45;&gt;Node1025 -->
<g id="edge27" class="edge">
<title>Node1423&#45;&gt;Node1025</title>
<path fill="none" stroke="#191970" d="M232.5293,-510.3603C254.977,-515.7421 287.7526,-523.6 315.024,-530.1382"/>
<polygon fill="#191970" stroke="#191970" points="314.2525,-533.5524 324.793,-532.4803 315.8846,-526.7453 314.2525,-533.5524"/>
</g>
<!-- Node1125 -->
<g id="node24" class="node">
<title>Node1125</title>
<g id="a_node24"><a xlink:href="quickjs_8h.html#a1e7f56471f8608df9405987087a56070" target="_top" xlink:title="JS_ToCStringLen">
<polygon fill="none" stroke="#000000" points="317.5,-494.5 317.5,-513.5 411.5,-513.5 411.5,-494.5 317.5,-494.5"/>
<text text-anchor="middle" x="364.5" y="-501.5" font-family="Helvetica,sans-Serif" font-size="10.00" fill="#000000">JS_ToCStringLen</text>
</a>
</g>
</g>
<!-- Node1423&#45;&gt;Node1125 -->
<g id="edge28" class="edge">
<title>Node1423&#45;&gt;Node1125</title>
<path fill="none" stroke="#191970" d="M232.5293,-504C252.8227,-504 281.5567,-504 307.0342,-504"/>
<polygon fill="#191970" stroke="#191970" points="307.3488,-507.5001 317.3488,-504 307.3488,-500.5001 307.3488,-507.5001"/>
</g>
<!-- Node1125&#45;&gt;Node1028 -->
<g id="edge29" class="edge">
<title>Node1125&#45;&gt;Node1028</title>
<path fill="none" stroke="#191970" d="M403.8654,-494.411C424.4513,-489.3965 449.8405,-483.2119 471.669,-477.8947"/>
<polygon fill="#191970" stroke="#191970" points="472.5302,-481.2874 481.4177,-475.5201 470.8734,-474.4863 472.5302,-481.2874"/>
</g>
<!-- Node1424&#45;&gt;Node1289 -->
<g id="edge31" class="edge">
<title>Node1424&#45;&gt;Node1289</title>
<path fill="none" stroke="#191970" d="M256.8983,-155.5169C343.4103,-144.4975 518.0702,-122.2503 603.7767,-111.3335"/>
<polygon fill="#191970" stroke="#191970" points="604.2983,-114.7954 613.7758,-110.0598 603.4137,-107.8515 604.2983,-114.7954"/>
</g>
<!-- Node1424&#45;&gt;Node1000 -->
<g id="edge39" class="edge">
<title>Node1424&#45;&gt;Node1000</title>
<path fill="none" stroke="#191970" d="M256.8983,-162C343.6522,-162 519.0478,-162 604.4937,-162"/>
<polygon fill="#191970" stroke="#191970" points="604.7029,-165.5001 614.7029,-162 604.7029,-158.5001 604.7029,-165.5001"/>
</g>
<!-- Node1211 -->
<g id="node26" class="node">
<title>Node1211</title>
<g id="a_node26"><a xlink:href="quickjs_8c.html#ad7f03358a8088ca920ab308225c6b2e6" target="_top" xlink:title="JS_SetPropertyInternal">
<polygon fill="none" stroke="#ff0000" points="302,-228.5 302,-247.5 427,-247.5 427,-228.5 302,-228.5"/>
<text text-anchor="middle" x="364.5" y="-235.5" font-family="Helvetica,sans-Serif" font-size="10.00" fill="#000000">JS_SetPropertyInternal</text>
</a>
</g>
</g>
<!-- Node1424&#45;&gt;Node1211 -->
<g id="edge32" class="edge">
<title>Node1424&#45;&gt;Node1211</title>
<path fill="none" stroke="#191970" d="M226.0741,-171.6255C253.704,-184.8739 303.6297,-208.813 335.3678,-224.0313"/>
<polygon fill="#191970" stroke="#191970" points="334.0586,-227.285 344.5889,-228.4527 337.0851,-220.9731 334.0586,-227.285"/>
</g>
<!-- Node1211&#45;&gt;Node981 -->
<g id="edge33" class="edge">
<title>Node1211&#45;&gt;Node981</title>
<path fill="none" stroke="#191970" d="M421.7023,-247.5204C476.6292,-257.6579 554.6111,-274.9796 578,-295 624.9396,-335.1793 643.82,-410.1792 650.4143,-445.9811"/>
<polygon fill="#191970" stroke="#191970" points="647.0141,-446.8636 652.1436,-456.1339 653.9148,-445.6882 647.0141,-446.8636"/>
</g>
<!-- Node1211&#45;&gt;Node1020 -->
<g id="edge38" class="edge">
<title>Node1211&#45;&gt;Node1020</title>
<path fill="none" stroke="#191970" d="M427.2087,-238C480.5239,-238 555.9893,-238 604.8401,-238"/>
<polygon fill="#191970" stroke="#191970" points="604.8428,-241.5001 614.8428,-238 604.8427,-234.5001 604.8428,-241.5001"/>
</g>
<!-- Node1204 -->
<g id="node27" class="node">
<title>Node1204</title>
<g id="a_node27"><a xlink:href="quickjs_8c.html#aee75cc1546e19479e3ccda58f3b50a96" target="_top" xlink:title="JS_SetPropertyValue">
<polygon fill="none" stroke="#ff0000" points="463,-304.5 463,-323.5 578,-323.5 578,-304.5 463,-304.5"/>
<text text-anchor="middle" x="520.5" y="-311.5" font-family="Helvetica,sans-Serif" font-size="10.00" fill="#000000">JS_SetPropertyValue</text>
</a>
</g>
</g>
<!-- Node1211&#45;&gt;Node1204 -->
<g id="edge34" class="edge">
<title>Node1211&#45;&gt;Node1204</title>
<path fill="none" stroke="#191970" d="M426.4068,-247.6646C426.6053,-247.7758 426.803,-247.8876 427,-248 445.8519,-258.7572 444.711,-269.3114 463,-281 474.8436,-288.5693 489.4778,-294.6377 501.0185,-299.9557"/>
<polygon fill="#191970" stroke="#191970" points="499.6953,-303.2047 510.2162,-304.4548 502.7712,-296.9167 499.6953,-303.2047"/>
</g>
<!-- Node1204&#45;&gt;Node981 -->
<g id="edge35" class="edge">
<title>Node1204&#45;&gt;Node981</title>
<path fill="none" stroke="#191970" d="M562.0208,-323.5772C567.7546,-326.0437 573.2847,-329.1335 578,-333 615.3213,-363.6032 637.7081,-417.8038 647.5522,-446.6603"/>
<polygon fill="#191970" stroke="#191970" points="644.2918,-447.9518 650.7159,-456.3769 650.9478,-445.7846 644.2918,-447.9518"/>
</g>
<!-- Node1204&#45;&gt;Node1000 -->
<g id="edge37" class="edge">
<title>Node1204&#45;&gt;Node1000</title>
<path fill="none" stroke="#191970" d="M528.8197,-304.4917C550.7454,-279.4338 610.3489,-211.3155 638.4531,-179.1965"/>
<polygon fill="#191970" stroke="#191970" points="641.2323,-181.3353 645.1834,-171.5047 635.9643,-176.7257 641.2323,-181.3353"/>
</g>
<!-- Node1204&#45;&gt;Node1211 -->
<g id="edge36" class="edge">
<title>Node1204&#45;&gt;Node1211</title>
<path fill="none" stroke="#191970" d="M472.4673,-304.4504C469.1958,-302.7479 466.0079,-300.9224 463,-299 444.711,-287.3114 445.8519,-276.7572 427,-266 415.2675,-259.3052 400.9228,-254.7272 388.9364,-250.8389"/>
<polygon fill="#191970" stroke="#191970" points="389.7288,-247.4135 379.135,-247.5636 387.5102,-254.0526 389.7288,-247.4135"/>
</g>
<!-- Node1425&#45;&gt;Node1204 -->
<g id="edge41" class="edge">
<title>Node1425&#45;&gt;Node1204</title>
<path fill="none" stroke="#191970" d="M248.8398,-285.5131C265.3821,-288.9142 284.506,-292.5157 302,-295 352.2574,-302.137 409.4249,-306.9932 452.6767,-310.0087"/>
<polygon fill="#191970" stroke="#191970" points="452.5851,-313.5105 462.8,-310.6987 453.0612,-306.5267 452.5851,-313.5105"/>
</g>
<!-- Node1138 -->
<g id="node29" class="node">
<title>Node1138</title>
<g id="a_node29"><a xlink:href="quickjs_8h.html#a88259aa0da61ac754402c64ccecee116" target="_top" xlink:title="JS_NewUint32">
<polygon fill="none" stroke="#ff0000" points="322,-266.5 322,-285.5 407,-285.5 407,-266.5 322,-266.5"/>
<text text-anchor="middle" x="364.5" y="-273.5" font-family="Helvetica,sans-Serif" font-size="10.00" fill="#000000">JS_NewUint32</text>
</a>
</g>
</g>
<!-- Node1425&#45;&gt;Node1138 -->
<g id="edge42" class="edge">
<title>Node1425&#45;&gt;Node1138</title>
<path fill="none" stroke="#191970" d="M266.3742,-276C281.1577,-276 296.8717,-276 311.2915,-276"/>
<polygon fill="#191970" stroke="#191970" points="311.5309,-279.5001 321.5309,-276 311.5308,-272.5001 311.5309,-279.5001"/>
</g>
</g>
</svg>
        <g id="navigator" transform="translate(0 0)" fill="#404254">
                <rect fill="#f2f5e9" fill-opacity="0.5" stroke="#606060" stroke-width=".5" x="0" y="0" width="60" height="60"/>
                <use id="zoomplus" xlink:href="#zoomPlus" x="17" y="9" onmousedown="handleZoom(evt,'in')"/>
                <use id="zoomminus" xlink:href="#zoomMin" x="42" y="9" onmousedown="handleZoom(evt,'out')"/>
                <use id="reset" xlink:href="#resetDef" x="30" y="36" onmousedown="handleReset()"/>
                <g id="arrowUp" xlink:href="#dirArrow" transform="translate(30 24)" onmousedown="handlePan(0,-1)">
                  <use xlink:href="#rim" fill="#404040">
                        <set attributeName="fill" to="#808080" begin="arrowUp.mouseover" end="arrowUp.mouseout"/>
                  </use>
                  <path fill="none" stroke="white" stroke-width="1.5" d="M0,-3.0v7 M-2.5,-0.5L0,-3.0L2.5,-0.5"/>
                </g>
                <g id="arrowRight" xlink:href="#dirArrow" transform="rotate(90) translate(36 -43)" onmousedown="handlePan(1,0)">
                  <use xlink:href="#rim" fill="#404040">
                        <set attributeName="fill" to="#808080" begin="arrowRight.mouseover" end="arrowRight.mouseout"/>
                  </use>
                  <path fill="none" stroke="white" stroke-width="1.5" d="M0,-3.0v7 M-2.5,-0.5L0,-3.0L2.5,-0.5"/>
                </g>
                <g id="arrowDown" xlink:href="#dirArrow" transform="rotate(180) translate(-30 -48)" onmousedown="handlePan(0,1)">
                  <use xlink:href="#rim" fill="#404040">
                        <set attributeName="fill" to="#808080" begin="arrowDown.mouseover" end="arrowDown.mouseout"/>
                  </use>
                  <path fill="none" stroke="white" stroke-width="1.5" d="M0,-3.0v7 M-2.5,-0.5L0,-3.0L2.5,-0.5"/>
                </g>
                <g id="arrowLeft" xlink:href="#dirArrow" transform="rotate(270) translate(-36 17)" onmousedown="handlePan(-1,0)">
                  <use xlink:href="#rim" fill="#404040">
                        <set attributeName="fill" to="#808080" begin="arrowLeft.mouseover" end="arrowLeft.mouseout"/>
                  </use>
                  <path fill="none" stroke="white" stroke-width="1.5" d="M0,-3.0v7 M-2.5,-0.5L0,-3.0L2.5,-0.5"/>
                </g>
        </g>
        <svg viewBox="0 0 15 15" width="100%" height="30px" preserveAspectRatio="xMaxYMin meet">
         <g id="arrow_out" transform="scale(0.3 0.3)">
          <a xlink:href="quickjs-libc_8h_ad04466feec6822a3b838baf229f6dfa0_cgraph_org.svg" target="_base">
           <rect id="button" ry="5" rx="5" y="6" x="6" height="38" width="38"
                fill="#f2f5e9" fill-opacity="0.5" stroke="#606060" stroke-width="1.0"/>
           <path id="arrow"
             d="M 11.500037,31.436501 C 11.940474,20.09759 22.043105,11.32322 32.158766,21.979434 L 37.068811,17.246167 C 37.068811,17.246167 37.088388,32 37.088388,32 L 22.160133,31.978069 C 22.160133,31.978069 26.997745,27.140456 26.997745,27.140456 C 18.528582,18.264221 13.291696,25.230495 11.500037,31.436501 z"
             style="fill:#404040;"/>
          </a>
         </g>
        </svg>
</svg>
