<?xml version="1.0" encoding="UTF-8" standalone="no"?>
<!DOCTYPE svg PUBLIC "-//W3C//DTD SVG 1.1//EN"
 "http://www.w3.org/Graphics/SVG/1.1/DTD/svg11.dtd">
<!-- Generated by graphviz version 2.40.1 (20161225.0304)
 -->
<!-- Title: js_global_eval Pages: 1 -->
<!--zoomable 147 -->
<svg id="main" version="1.1" xmlns="http://www.w3.org/2000/svg" xmlns:xlink="http://www.w3.org/1999/xlink" xml:space="preserve" onload="init(evt)">
<style type="text/css"><![CDATA[
.edge:hover path { stroke: red; }
.edge:hover polygon { stroke: red; fill: red; }
]]></style>
<script type="text/javascript"><![CDATA[
var edges = document.getElementsByTagName('g');
if (edges && edges.length) {
  for (var i=0;i<edges.length;i++) {
    if (edges[i].id.substr(0,4)=='edge') {
      edges[i].setAttribute('class','edge');
    }
  }
}
]]></script>
        <defs>
                <circle id="rim" cx="0" cy="0" r="7"/>
                <circle id="rim2" cx="0" cy="0" r="3.5"/>
                <g id="zoomPlus">
                        <use xlink:href="#rim" fill="#404040">
                                <set attributeName="fill" to="#808080" begin="zoomplus.mouseover" end="zoomplus.mouseout"/>
                        </use>
                        <path d="M-4,0h8M0,-4v8" fill="none" stroke="white" stroke-width="1.5" pointer-events="none"/>
                </g>
                <g id="zoomMin">
                        <use xlink:href="#rim" fill="#404040">
                                <set attributeName="fill" to="#808080" begin="zoomminus.mouseover" end="zoomminus.mouseout"/>
                        </use>
                        <path d="M-4,0h8" fill="none" stroke="white" stroke-width="1.5" pointer-events="none"/>
                </g>
                <g id="dirArrow">
                        <path fill="none" stroke="white" stroke-width="1.5" d="M0,-3.0v7 M-2.5,-0.5L0,-3.0L2.5,-0.5"/>
                </g>
               <g id="resetDef">
                       <use xlink:href="#rim2" fill="#404040">
                               <set attributeName="fill" to="#808080" begin="reset.mouseover" end="reset.mouseout"/>
                       </use>
               </g>
        </defs>

<script type="text/javascript">
var viewWidth = 593;
var viewHeight = 147;
var sectionId = 'dynsection-1401';
</script>
<script xlink:href="svgpan.js"/>
<svg id="graph" class="graph">
<g id="viewport">
<title>js_global_eval</title>
<!-- Node375801 -->
<g id="node1" class="node">
<title>Node375801</title>
<polygon fill="#bfbfbf" stroke="#000000" points="0,-59.1996 0,-78.1996 86,-78.1996 86,-59.1996 0,-59.1996"/>
<text text-anchor="middle" x="43" y="-66.1996" font-family="Helvetica,sans-Serif" font-size="10.00" fill="#000000">js_global_eval</text>
</g>
<!-- Node375802 -->
<g id="node2" class="node">
<title>Node375802</title>
<g id="a_node2"><a xlink:href="quickjs_8c.html#a97231fb89bb56fdeddd9f5ba17b0e1ff" target="_top" xlink:title="JS_EvalObject">
<polygon fill="none" stroke="#000000" points="122,-59.1996 122,-78.1996 205,-78.1996 205,-59.1996 122,-59.1996"/>
<text text-anchor="middle" x="163.5" y="-66.1996" font-family="Helvetica,sans-Serif" font-size="10.00" fill="#000000">JS_EvalObject</text>
</a>
</g>
</g>
<!-- Node375801&#45;&gt;Node375802 -->
<g id="edge1" class="edge">
<title>Node375801&#45;&gt;Node375802</title>
<path fill="none" stroke="#191970" d="M86.1629,-68.6996C94.4208,-68.6996 103.1455,-68.6996 111.643,-68.6996"/>
<polygon fill="#191970" stroke="#191970" points="111.8488,-72.1997 121.8488,-68.6996 111.8488,-65.1997 111.8488,-72.1997"/>
</g>
<!-- Node375803 -->
<g id="node3" class="node">
<title>Node375803</title>
<g id="a_node3"><a xlink:href="quickjs_8h.html#a775522f2d084fc8fa0fcb33f390006b4" target="_top" xlink:title="JS_DupValue">
<polygon fill="none" stroke="#000000" points="507.5,-82.1996 507.5,-101.1996 584.5,-101.1996 584.5,-82.1996 507.5,-82.1996"/>
<text text-anchor="middle" x="546" y="-89.1996" font-family="Helvetica,sans-Serif" font-size="10.00" fill="#000000">JS_DupValue</text>
</a>
</g>
</g>
<!-- Node375802&#45;&gt;Node375803 -->
<g id="edge2" class="edge">
<title>Node375802&#45;&gt;Node375803</title>
<path fill="none" stroke="#191970" d="M172.383,-78.3095C185.7246,-91.9542 212.4348,-116.3261 241,-125.6996 335.5572,-156.728 454.5005,-124.3777 511.9059,-104.6164"/>
<polygon fill="#191970" stroke="#191970" points="513.2962,-107.8374 521.5619,-101.2095 510.9671,-101.2363 513.2962,-107.8374"/>
</g>
<!-- Node375804 -->
<g id="node4" class="node">
<title>Node375804</title>
<g id="a_node4"><a xlink:href="quickjs_8c.html#a0800e3e7b9763c0dddb2f3f85df25635" target="_top" xlink:title="JS_EvalInternal">
<polygon fill="none" stroke="#000000" points="243.5,-97.1996 243.5,-116.1996 332.5,-116.1996 332.5,-97.1996 243.5,-97.1996"/>
<text text-anchor="middle" x="288" y="-104.1996" font-family="Helvetica,sans-Serif" font-size="10.00" fill="#000000">JS_EvalInternal</text>
</a>
</g>
</g>
<!-- Node375802&#45;&gt;Node375804 -->
<g id="edge3" class="edge">
<title>Node375802&#45;&gt;Node375804</title>
<path fill="none" stroke="#191970" d="M194.9166,-78.2886C210.6935,-83.1041 230.0054,-88.9985 246.9412,-94.1676"/>
<polygon fill="#191970" stroke="#191970" points="246.0073,-97.5419 256.5934,-97.1137 248.0508,-90.8468 246.0073,-97.5419"/>
</g>
<!-- Node375805 -->
<g id="node5" class="node">
<title>Node375805</title>
<g id="a_node5"><a xlink:href="quickjs_8c.html#ae0bc4f65da64810facb2cb9e476eda2e" target="_top" xlink:title="JS_FreeCString">
<polygon fill="none" stroke="#000000" points="378,-2.1996 378,-21.1996 464,-21.1996 464,-2.1996 378,-2.1996"/>
<text text-anchor="middle" x="421" y="-9.1996" font-family="Helvetica,sans-Serif" font-size="10.00" fill="#000000">JS_FreeCString</text>
</a>
</g>
</g>
<!-- Node375802&#45;&gt;Node375805 -->
<g id="edge4" class="edge">
<title>Node375802&#45;&gt;Node375805</title>
<path fill="none" stroke="#191970" d="M172.383,-59.0898C185.7246,-45.4451 212.4348,-21.0731 241,-11.6996 282.118,1.793 331.4221,.6882 368.0241,-3.1695"/>
<polygon fill="#191970" stroke="#191970" points="367.6581,-6.6504 377.9936,-4.3207 368.4611,.3034 367.6581,-6.6504"/>
</g>
<!-- Node375844 -->
<g id="node7" class="node">
<title>Node375844</title>
<g id="a_node7"><a xlink:href="quickjs_8h.html#aa53b9197dc6d5770e3a080c1e335f7cb" target="_top" xlink:title="JS_IsString">
<polygon fill="none" stroke="#000000" points="254,-21.1996 254,-40.1996 322,-40.1996 322,-21.1996 254,-21.1996"/>
<text text-anchor="middle" x="288" y="-28.1996" font-family="Helvetica,sans-Serif" font-size="10.00" fill="#000000">JS_IsString</text>
</a>
</g>
</g>
<!-- Node375802&#45;&gt;Node375844 -->
<g id="edge6" class="edge">
<title>Node375802&#45;&gt;Node375844</title>
<path fill="none" stroke="#191970" d="M194.9166,-59.1106C210.6935,-54.2952 230.0054,-48.4008 246.9412,-43.2316"/>
<polygon fill="#191970" stroke="#191970" points="248.0508,-46.5524 256.5934,-40.2856 246.0073,-39.8573 248.0508,-46.5524"/>
</g>
<!-- Node375845 -->
<g id="node8" class="node">
<title>Node375845</title>
<g id="a_node8"><a xlink:href="quickjs_8h.html#a1e7f56471f8608df9405987087a56070" target="_top" xlink:title="JS_ToCStringLen">
<polygon fill="none" stroke="#000000" points="241,-59.1996 241,-78.1996 335,-78.1996 335,-59.1996 241,-59.1996"/>
<text text-anchor="middle" x="288" y="-66.1996" font-family="Helvetica,sans-Serif" font-size="10.00" fill="#000000">JS_ToCStringLen</text>
</a>
</g>
</g>
<!-- Node375802&#45;&gt;Node375845 -->
<g id="edge7" class="edge">
<title>Node375802&#45;&gt;Node375845</title>
<path fill="none" stroke="#191970" d="M205.303,-68.6996C213.5284,-68.6996 222.2895,-68.6996 230.9174,-68.6996"/>
<polygon fill="#191970" stroke="#191970" points="230.9444,-72.1997 240.9444,-68.6996 230.9443,-65.1997 230.9444,-72.1997"/>
</g>
<!-- Node375806 -->
<g id="node6" class="node">
<title>Node375806</title>
<g id="a_node6"><a xlink:href="quickjs_8h.html#afaa20c47565bc704c6c85f3d77254e7d" target="_top" xlink:title="JS_FreeValue">
<polygon fill="none" stroke="#ff0000" points="507,-35.1996 507,-54.1996 585,-54.1996 585,-35.1996 507,-35.1996"/>
<text text-anchor="middle" x="546" y="-42.1996" font-family="Helvetica,sans-Serif" font-size="10.00" fill="#000000">JS_FreeValue</text>
</a>
</g>
</g>
<!-- Node375805&#45;&gt;Node375806 -->
<g id="edge5" class="edge">
<title>Node375805&#45;&gt;Node375806</title>
<path fill="none" stroke="#191970" d="M457.1552,-21.2446C470.5001,-24.7676 485.8063,-28.8085 499.9122,-32.5324"/>
<polygon fill="#191970" stroke="#191970" points="499.3639,-36.0076 509.9261,-35.1761 501.1508,-29.2394 499.3639,-36.0076"/>
</g>
<!-- Node375846 -->
<g id="node9" class="node">
<title>Node375846</title>
<g id="a_node9"><a xlink:href="quickjs_8c.html#af49e67b73f845dc1f9c3ee648dd9f95c" target="_top" xlink:title="JS_ToCStringLen2">
<polygon fill="none" stroke="#ff0000" points="371,-59.1996 371,-78.1996 471,-78.1996 471,-59.1996 371,-59.1996"/>
<text text-anchor="middle" x="421" y="-66.1996" font-family="Helvetica,sans-Serif" font-size="10.00" fill="#000000">JS_ToCStringLen2</text>
</a>
</g>
</g>
<!-- Node375845&#45;&gt;Node375846 -->
<g id="edge8" class="edge">
<title>Node375845&#45;&gt;Node375846</title>
<path fill="none" stroke="#191970" d="M335.2653,-68.6996C343.4399,-68.6996 352.0387,-68.6996 360.5066,-68.6996"/>
<polygon fill="#191970" stroke="#191970" points="360.7332,-72.1997 370.7332,-68.6996 360.7332,-65.1997 360.7332,-72.1997"/>
</g>
<!-- Node375846&#45;&gt;Node375803 -->
<g id="edge9" class="edge">
<title>Node375846&#45;&gt;Node375803</title>
<path fill="none" stroke="#191970" d="M471.122,-77.9221C479.8118,-79.521 488.8341,-81.1811 497.4802,-82.772"/>
<polygon fill="#191970" stroke="#191970" points="496.9463,-86.2324 507.4146,-84.5999 498.2131,-79.348 496.9463,-86.2324"/>
</g>
<!-- Node375846&#45;&gt;Node375806 -->
<g id="edge10" class="edge">
<title>Node375846&#45;&gt;Node375806</title>
<path fill="none" stroke="#191970" d="M470.7625,-59.1452C479.375,-57.4916 488.3245,-55.7733 496.9187,-54.1232"/>
<polygon fill="#191970" stroke="#191970" points="497.6422,-57.5483 506.8029,-52.2255 496.3223,-50.6739 497.6422,-57.5483"/>
</g>
</g>
</svg>
        <g id="navigator" transform="translate(0 0)" fill="#404254">
                <rect fill="#f2f5e9" fill-opacity="0.5" stroke="#606060" stroke-width=".5" x="0" y="0" width="60" height="60"/>
                <use id="zoomplus" xlink:href="#zoomPlus" x="17" y="9" onmousedown="handleZoom(evt,'in')"/>
                <use id="zoomminus" xlink:href="#zoomMin" x="42" y="9" onmousedown="handleZoom(evt,'out')"/>
                <use id="reset" xlink:href="#resetDef" x="30" y="36" onmousedown="handleReset()"/>
                <g id="arrowUp" xlink:href="#dirArrow" transform="translate(30 24)" onmousedown="handlePan(0,-1)">
                  <use xlink:href="#rim" fill="#404040">
                        <set attributeName="fill" to="#808080" begin="arrowUp.mouseover" end="arrowUp.mouseout"/>
                  </use>
                  <path fill="none" stroke="white" stroke-width="1.5" d="M0,-3.0v7 M-2.5,-0.5L0,-3.0L2.5,-0.5"/>
                </g>
                <g id="arrowRight" xlink:href="#dirArrow" transform="rotate(90) translate(36 -43)" onmousedown="handlePan(1,0)">
                  <use xlink:href="#rim" fill="#404040">
                        <set attributeName="fill" to="#808080" begin="arrowRight.mouseover" end="arrowRight.mouseout"/>
                  </use>
                  <path fill="none" stroke="white" stroke-width="1.5" d="M0,-3.0v7 M-2.5,-0.5L0,-3.0L2.5,-0.5"/>
                </g>
                <g id="arrowDown" xlink:href="#dirArrow" transform="rotate(180) translate(-30 -48)" onmousedown="handlePan(0,1)">
                  <use xlink:href="#rim" fill="#404040">
                        <set attributeName="fill" to="#808080" begin="arrowDown.mouseover" end="arrowDown.mouseout"/>
                  </use>
                  <path fill="none" stroke="white" stroke-width="1.5" d="M0,-3.0v7 M-2.5,-0.5L0,-3.0L2.5,-0.5"/>
                </g>
                <g id="arrowLeft" xlink:href="#dirArrow" transform="rotate(270) translate(-36 17)" onmousedown="handlePan(-1,0)">
                  <use xlink:href="#rim" fill="#404040">
                        <set attributeName="fill" to="#808080" begin="arrowLeft.mouseover" end="arrowLeft.mouseout"/>
                  </use>
                  <path fill="none" stroke="white" stroke-width="1.5" d="M0,-3.0v7 M-2.5,-0.5L0,-3.0L2.5,-0.5"/>
                </g>
        </g>
        <svg viewBox="0 0 15 15" width="100%" height="30px" preserveAspectRatio="xMaxYMin meet">
         <g id="arrow_out" transform="scale(0.3 0.3)">
          <a xlink:href="quickjs_8c_aa760a09841b95bbc8ab2859780713705_cgraph_org.svg" target="_base">
           <rect id="button" ry="5" rx="5" y="6" x="6" height="38" width="38"
                fill="#f2f5e9" fill-opacity="0.5" stroke="#606060" stroke-width="1.0"/>
           <path id="arrow"
             d="M 11.500037,31.436501 C 11.940474,20.09759 22.043105,11.32322 32.158766,21.979434 L 37.068811,17.246167 C 37.068811,17.246167 37.088388,32 37.088388,32 L 22.160133,31.978069 C 22.160133,31.978069 26.997745,27.140456 26.997745,27.140456 C 18.528582,18.264221 13.291696,25.230495 11.500037,31.436501 z"
             style="fill:#404040;"/>
          </a>
         </g>
        </svg>
</svg>
