<?xml version="1.0" encoding="UTF-8" standalone="no"?>
<!DOCTYPE svg PUBLIC "-//W3C//DTD SVG 1.1//EN"
 "http://www.w3.org/Graphics/SVG/1.1/DTD/svg11.dtd">
<!-- Generated by graphviz version 2.40.1 (20161225.0304)
 -->
<!-- Title: js_math_imul Pages: 1 -->
<svg width="463pt" height="104pt"
 viewBox="0.00 0.00 463.00 104.00" xmlns="http://www.w3.org/2000/svg" xmlns:xlink="http://www.w3.org/1999/xlink">
<g id="graph0" class="graph" transform="scale(1 1) rotate(0) translate(4 100)">
<title>js_math_imul</title>
<!-- Node428127 -->
<g id="node1" class="node">
<title>Node428127</title>
<polygon fill="#bfbfbf" stroke="#000000" points="0,-57.5 0,-76.5 83,-76.5 83,-57.5 0,-57.5"/>
<text text-anchor="middle" x="41.5" y="-64.5" font-family="Helvetica,sans-Serif" font-size="10.00" fill="#000000">js_math_imul</text>
</g>
<!-- Node428128 -->
<g id="node2" class="node">
<title>Node428128</title>
<g id="a_node2"><a xlink:href="quickjs_8h.html#a2050bc428da1c65ac7eb87c3fa3b0392" target="_top" xlink:title="JS_NewInt32">
<polygon fill="none" stroke="#000000" points="119,-76.5 119,-95.5 196,-95.5 196,-76.5 119,-76.5"/>
<text text-anchor="middle" x="157.5" y="-83.5" font-family="Helvetica,sans-Serif" font-size="10.00" fill="#000000">JS_NewInt32</text>
</a>
</g>
</g>
<!-- Node428127&#45;&gt;Node428128 -->
<g id="edge1" class="edge">
<title>Node428127&#45;&gt;Node428128</title>
<path fill="none" stroke="#191970" d="M83.051,-73.8058C91.4616,-75.1834 100.3754,-76.6434 109.0009,-78.0562"/>
<polygon fill="#191970" stroke="#191970" points="108.5124,-81.5227 118.9467,-79.6852 109.644,-74.6148 108.5124,-81.5227"/>
</g>
<!-- Node428129 -->
<g id="node3" class="node">
<title>Node428129</title>
<g id="a_node3"><a xlink:href="quickjs_8c.html#a4073bd2b4f247bf6077cd956759193b9" target="_top" xlink:title="JS_ToInt32">
<polygon fill="none" stroke="#000000" points="124.5,-38.5 124.5,-57.5 190.5,-57.5 190.5,-38.5 124.5,-38.5"/>
<text text-anchor="middle" x="157.5" y="-45.5" font-family="Helvetica,sans-Serif" font-size="10.00" fill="#000000">JS_ToInt32</text>
</a>
</g>
</g>
<!-- Node428127&#45;&gt;Node428129 -->
<g id="edge2" class="edge">
<title>Node428127&#45;&gt;Node428129</title>
<path fill="none" stroke="#191970" d="M83.051,-60.1942C93.1925,-58.5331 104.0655,-56.7522 114.2827,-55.0787"/>
<polygon fill="#191970" stroke="#191970" points="114.9272,-58.5199 124.2299,-53.4494 113.7957,-51.6119 114.9272,-58.5199"/>
</g>
<!-- Node428130 -->
<g id="node4" class="node">
<title>Node428130</title>
<g id="a_node4"><a xlink:href="quickjs_8h.html#a775522f2d084fc8fa0fcb33f390006b4" target="_top" xlink:title="JS_DupValue">
<polygon fill="none" stroke="#000000" points="236.5,-57.5 236.5,-76.5 313.5,-76.5 313.5,-57.5 236.5,-57.5"/>
<text text-anchor="middle" x="275" y="-64.5" font-family="Helvetica,sans-Serif" font-size="10.00" fill="#000000">JS_DupValue</text>
</a>
</g>
</g>
<!-- Node428129&#45;&gt;Node428130 -->
<g id="edge3" class="edge">
<title>Node428129&#45;&gt;Node428130</title>
<path fill="none" stroke="#191970" d="M190.543,-53.3431C201.6792,-55.1439 214.3505,-57.1928 226.4296,-59.1461"/>
<polygon fill="#191970" stroke="#191970" points="225.9596,-62.6154 236.3901,-60.7567 227.077,-55.7052 225.9596,-62.6154"/>
</g>
<!-- Node428131 -->
<g id="node5" class="node">
<title>Node428131</title>
<g id="a_node5"><a xlink:href="quickjs_8c.html#a643088ab23784b7f3c6ff94c37228256" target="_top" xlink:title="JS_ToInt32Free">
<polygon fill="none" stroke="#000000" points="232,-19.5 232,-38.5 318,-38.5 318,-19.5 232,-19.5"/>
<text text-anchor="middle" x="275" y="-26.5" font-family="Helvetica,sans-Serif" font-size="10.00" fill="#000000">JS_ToInt32Free</text>
</a>
</g>
</g>
<!-- Node428129&#45;&gt;Node428131 -->
<g id="edge4" class="edge">
<title>Node428129&#45;&gt;Node428131</title>
<path fill="none" stroke="#191970" d="M190.543,-42.6569C200.2135,-41.0931 211.0415,-39.3422 221.6342,-37.6294"/>
<polygon fill="#191970" stroke="#191970" points="222.3593,-41.0577 231.6724,-36.0062 221.2419,-34.1474 222.3593,-41.0577"/>
</g>
<!-- Node428132 -->
<g id="node6" class="node">
<title>Node428132</title>
<g id="a_node6"><a xlink:href="quickjs_8h.html#ad80a83d73e9b7d872b88fbf2943aebe9" target="_top" xlink:title="JS_IsException">
<polygon fill="none" stroke="#000000" points="361,-38.5 361,-57.5 448,-57.5 448,-38.5 361,-38.5"/>
<text text-anchor="middle" x="404.5" y="-45.5" font-family="Helvetica,sans-Serif" font-size="10.00" fill="#000000">JS_IsException</text>
</a>
</g>
</g>
<!-- Node428131&#45;&gt;Node428132 -->
<g id="edge5" class="edge">
<title>Node428131&#45;&gt;Node428132</title>
<path fill="none" stroke="#191970" d="M318.1216,-35.3267C328.4926,-36.8483 339.6999,-38.4926 350.4971,-40.0768"/>
<polygon fill="#191970" stroke="#191970" points="350.2804,-43.5824 360.6826,-41.5712 351.2966,-36.6565 350.2804,-43.5824"/>
</g>
<!-- Node428133 -->
<g id="node7" class="node">
<title>Node428133</title>
<g id="a_node7"><a xlink:href="quickjs_8c.html#ae738291483438efefca5c9fa4d269504" target="_top" xlink:title="JS_ToNumberFree">
<polygon fill="none" stroke="#ff0000" points="354,-.5 354,-19.5 455,-19.5 455,-.5 354,-.5"/>
<text text-anchor="middle" x="404.5" y="-7.5" font-family="Helvetica,sans-Serif" font-size="10.00" fill="#000000">JS_ToNumberFree</text>
</a>
</g>
</g>
<!-- Node428131&#45;&gt;Node428133 -->
<g id="edge6" class="edge">
<title>Node428131&#45;&gt;Node428133</title>
<path fill="none" stroke="#191970" d="M318.1216,-22.6733C326.3715,-21.4629 335.1506,-20.1748 343.8315,-18.9012"/>
<polygon fill="#191970" stroke="#191970" points="344.5534,-22.3328 353.9393,-17.4182 343.5372,-15.407 344.5534,-22.3328"/>
</g>
</g>
</svg>
