<?xml version="1.0" encoding="UTF-8" standalone="no"?>
<!DOCTYPE svg PUBLIC "-//W3C//DTD SVG 1.1//EN"
 "http://www.w3.org/Graphics/SVG/1.1/DTD/svg11.dtd">
<!-- Generated by graphviz version 2.40.1 (20161225.0304)
 -->
<!-- Title: string_buffer_end Pages: 1 -->
<!--zoomable 142 -->
<svg id="main" version="1.1" xmlns="http://www.w3.org/2000/svg" xmlns:xlink="http://www.w3.org/1999/xlink" xml:space="preserve" onload="init(evt)">
<style type="text/css"><![CDATA[
.edge:hover path { stroke: red; }
.edge:hover polygon { stroke: red; fill: red; }
]]></style>
<script type="text/javascript"><![CDATA[
var edges = document.getElementsByTagName('g');
if (edges && edges.length) {
  for (var i=0;i<edges.length;i++) {
    if (edges[i].id.substr(0,4)=='edge') {
      edges[i].setAttribute('class','edge');
    }
  }
}
]]></script>
        <defs>
                <circle id="rim" cx="0" cy="0" r="7"/>
                <circle id="rim2" cx="0" cy="0" r="3.5"/>
                <g id="zoomPlus">
                        <use xlink:href="#rim" fill="#404040">
                                <set attributeName="fill" to="#808080" begin="zoomplus.mouseover" end="zoomplus.mouseout"/>
                        </use>
                        <path d="M-4,0h8M0,-4v8" fill="none" stroke="white" stroke-width="1.5" pointer-events="none"/>
                </g>
                <g id="zoomMin">
                        <use xlink:href="#rim" fill="#404040">
                                <set attributeName="fill" to="#808080" begin="zoomminus.mouseover" end="zoomminus.mouseout"/>
                        </use>
                        <path d="M-4,0h8" fill="none" stroke="white" stroke-width="1.5" pointer-events="none"/>
                </g>
                <g id="dirArrow">
                        <path fill="none" stroke="white" stroke-width="1.5" d="M0,-3.0v7 M-2.5,-0.5L0,-3.0L2.5,-0.5"/>
                </g>
               <g id="resetDef">
                       <use xlink:href="#rim2" fill="#404040">
                               <set attributeName="fill" to="#808080" begin="reset.mouseover" end="reset.mouseout"/>
                       </use>
               </g>
        </defs>

<script type="text/javascript">
var viewWidth = 541;
var viewHeight = 142;
var sectionId = 'dynsection-338';
</script>
<script xlink:href="svgpan.js"/>
<svg id="graph" class="graph">
<g id="viewport">
<title>string_buffer_end</title>
<!-- Node110100 -->
<g id="node1" class="node">
<title>Node110100</title>
<polygon fill="#bfbfbf" stroke="#000000" points="0,-38.5 0,-57.5 101,-57.5 101,-38.5 0,-38.5"/>
<text text-anchor="middle" x="50.5" y="-45.5" font-family="Helvetica,sans-Serif" font-size="10.00" fill="#000000">string_buffer_end</text>
</g>
<!-- Node110101 -->
<g id="node2" class="node">
<title>Node110101</title>
<g id="a_node2"><a xlink:href="quickjs_8c.html#a260bfa297ff6cb5bd18e229afaa54663" target="_top" xlink:title="JS_AtomToString">
<polygon fill="none" stroke="#000000" points="137,-57.5 137,-76.5 233,-76.5 233,-57.5 137,-57.5"/>
<text text-anchor="middle" x="185" y="-64.5" font-family="Helvetica,sans-Serif" font-size="10.00" fill="#000000">JS_AtomToString</text>
</a>
</g>
</g>
<!-- Node110100&#45;&gt;Node110101 -->
<g id="edge1" class="edge">
<title>Node110100&#45;&gt;Node110101</title>
<path fill="none" stroke="#191970" d="M101.3487,-55.1831C109.5991,-56.3486 118.2002,-57.5636 126.613,-58.752"/>
<polygon fill="#191970" stroke="#191970" points="126.3539,-62.2501 136.7452,-60.1833 127.3331,-55.3189 126.3539,-62.2501"/>
</g>
<!-- Node110120 -->
<g id="node8" class="node">
<title>Node110120</title>
<g id="a_node8"><a xlink:href="quickjs_8c.html#a80e54dcf9ac687d4ccc2f90273565f30" target="_top" xlink:title="js_free">
<polygon fill="none" stroke="#ff0000" points="160,-19.5 160,-38.5 210,-38.5 210,-19.5 160,-19.5"/>
<text text-anchor="middle" x="185" y="-26.5" font-family="Helvetica,sans-Serif" font-size="10.00" fill="#000000">js_free</text>
</a>
</g>
</g>
<!-- Node110100&#45;&gt;Node110120 -->
<g id="edge7" class="edge">
<title>Node110100&#45;&gt;Node110120</title>
<path fill="none" stroke="#191970" d="M101.3487,-40.8169C117.3915,-38.5506 134.7605,-36.097 149.4923,-34.016"/>
<polygon fill="#191970" stroke="#191970" points="150.2845,-37.4389 159.6966,-32.5745 149.3054,-30.5077 150.2845,-37.4389"/>
</g>
<!-- Node110102 -->
<g id="node3" class="node">
<title>Node110102</title>
<g id="a_node3"><a xlink:href="quickjs_8c.html#a06ff303a11e6641cbf1f6634e6a61811" target="_top" xlink:title="__JS_AtomToValue">
<polygon fill="none" stroke="#000000" points="269,-57.5 269,-76.5 374,-76.5 374,-57.5 269,-57.5"/>
<text text-anchor="middle" x="321.5" y="-64.5" font-family="Helvetica,sans-Serif" font-size="10.00" fill="#000000">__JS_AtomToValue</text>
</a>
</g>
</g>
<!-- Node110101&#45;&gt;Node110102 -->
<g id="edge2" class="edge">
<title>Node110101&#45;&gt;Node110102</title>
<path fill="none" stroke="#191970" d="M233.1248,-67C241.4001,-67 250.1089,-67 258.7017,-67"/>
<polygon fill="#191970" stroke="#191970" points="258.7027,-70.5001 268.7026,-67 258.7026,-63.5001 258.7027,-70.5001"/>
</g>
<!-- Node110103 -->
<g id="node4" class="node">
<title>Node110103</title>
<g id="a_node4"><a xlink:href="quickjs_8c.html#a288254c06a39c9fca740a7abdad2834e" target="_top" xlink:title="__JS_AtomIsTaggedInt">
<polygon fill="none" stroke="#000000" points="410,-114.5 410,-133.5 533,-133.5 533,-114.5 410,-114.5"/>
<text text-anchor="middle" x="471.5" y="-121.5" font-family="Helvetica,sans-Serif" font-size="10.00" fill="#000000">__JS_AtomIsTaggedInt</text>
</a>
</g>
</g>
<!-- Node110102&#45;&gt;Node110103 -->
<g id="edge3" class="edge">
<title>Node110102&#45;&gt;Node110103</title>
<path fill="none" stroke="#191970" d="M341.9929,-76.5334C359.7719,-84.6264 386.3046,-96.2804 410,-105 415.9877,-107.2034 422.3636,-109.369 428.6566,-111.4041"/>
<polygon fill="#191970" stroke="#191970" points="427.8202,-114.8102 438.4099,-114.4814 429.9264,-108.1346 427.8202,-114.8102"/>
</g>
<!-- Node110104 -->
<g id="node5" class="node">
<title>Node110104</title>
<g id="a_node5"><a xlink:href="quickjs_8c.html#a89f38938cee8077ce1fbba07946ed185" target="_top" xlink:title="__JS_AtomToUInt32">
<polygon fill="none" stroke="#000000" points="416.5,-76.5 416.5,-95.5 526.5,-95.5 526.5,-76.5 416.5,-76.5"/>
<text text-anchor="middle" x="471.5" y="-83.5" font-family="Helvetica,sans-Serif" font-size="10.00" fill="#000000">__JS_AtomToUInt32</text>
</a>
</g>
</g>
<!-- Node110102&#45;&gt;Node110104 -->
<g id="edge4" class="edge">
<title>Node110102&#45;&gt;Node110104</title>
<path fill="none" stroke="#191970" d="M374.3844,-73.6987C384.6754,-75.0022 395.5766,-76.383 406.2127,-77.7303"/>
<polygon fill="#191970" stroke="#191970" points="405.9398,-81.2236 416.3004,-79.008 406.8195,-74.2791 405.9398,-81.2236"/>
</g>
<!-- Node110105 -->
<g id="node6" class="node">
<title>Node110105</title>
<g id="a_node6"><a xlink:href="quickjs_8h.html#a775522f2d084fc8fa0fcb33f390006b4" target="_top" xlink:title="JS_DupValue">
<polygon fill="none" stroke="#000000" points="433,-38.5 433,-57.5 510,-57.5 510,-38.5 433,-38.5"/>
<text text-anchor="middle" x="471.5" y="-45.5" font-family="Helvetica,sans-Serif" font-size="10.00" fill="#000000">JS_DupValue</text>
</a>
</g>
</g>
<!-- Node110102&#45;&gt;Node110105 -->
<g id="edge5" class="edge">
<title>Node110102&#45;&gt;Node110105</title>
<path fill="none" stroke="#191970" d="M374.3844,-60.3013C390.0098,-58.3221 407.0416,-56.1647 422.4166,-54.2172"/>
<polygon fill="#191970" stroke="#191970" points="423.2776,-57.6362 432.7585,-52.9073 422.398,-50.6917 423.2776,-57.6362"/>
</g>
<!-- Node110106 -->
<g id="node7" class="node">
<title>Node110106</title>
<g id="a_node7"><a xlink:href="quickjs_8c.html#a0ee6a3654a6016393fac5e1c108f403a" target="_top" xlink:title="JS_NewString">
<polygon fill="none" stroke="#ff0000" points="431,-.5 431,-19.5 512,-19.5 512,-.5 431,-.5"/>
<text text-anchor="middle" x="471.5" y="-7.5" font-family="Helvetica,sans-Serif" font-size="10.00" fill="#000000">JS_NewString</text>
</a>
</g>
</g>
<!-- Node110102&#45;&gt;Node110106 -->
<g id="edge6" class="edge">
<title>Node110102&#45;&gt;Node110106</title>
<path fill="none" stroke="#191970" d="M341.9929,-57.4666C359.7719,-49.3736 386.3046,-37.7196 410,-29 415.9877,-26.7966 422.3636,-24.631 428.6566,-22.5959"/>
<polygon fill="#191970" stroke="#191970" points="429.9264,-25.8654 438.4099,-19.5186 427.8202,-19.1898 429.9264,-25.8654"/>
</g>
</g>
</svg>
        <g id="navigator" transform="translate(0 0)" fill="#404254">
                <rect fill="#f2f5e9" fill-opacity="0.5" stroke="#606060" stroke-width=".5" x="0" y="0" width="60" height="60"/>
                <use id="zoomplus" xlink:href="#zoomPlus" x="17" y="9" onmousedown="handleZoom(evt,'in')"/>
                <use id="zoomminus" xlink:href="#zoomMin" x="42" y="9" onmousedown="handleZoom(evt,'out')"/>
                <use id="reset" xlink:href="#resetDef" x="30" y="36" onmousedown="handleReset()"/>
                <g id="arrowUp" xlink:href="#dirArrow" transform="translate(30 24)" onmousedown="handlePan(0,-1)">
                  <use xlink:href="#rim" fill="#404040">
                        <set attributeName="fill" to="#808080" begin="arrowUp.mouseover" end="arrowUp.mouseout"/>
                  </use>
                  <path fill="none" stroke="white" stroke-width="1.5" d="M0,-3.0v7 M-2.5,-0.5L0,-3.0L2.5,-0.5"/>
                </g>
                <g id="arrowRight" xlink:href="#dirArrow" transform="rotate(90) translate(36 -43)" onmousedown="handlePan(1,0)">
                  <use xlink:href="#rim" fill="#404040">
                        <set attributeName="fill" to="#808080" begin="arrowRight.mouseover" end="arrowRight.mouseout"/>
                  </use>
                  <path fill="none" stroke="white" stroke-width="1.5" d="M0,-3.0v7 M-2.5,-0.5L0,-3.0L2.5,-0.5"/>
                </g>
                <g id="arrowDown" xlink:href="#dirArrow" transform="rotate(180) translate(-30 -48)" onmousedown="handlePan(0,1)">
                  <use xlink:href="#rim" fill="#404040">
                        <set attributeName="fill" to="#808080" begin="arrowDown.mouseover" end="arrowDown.mouseout"/>
                  </use>
                  <path fill="none" stroke="white" stroke-width="1.5" d="M0,-3.0v7 M-2.5,-0.5L0,-3.0L2.5,-0.5"/>
                </g>
                <g id="arrowLeft" xlink:href="#dirArrow" transform="rotate(270) translate(-36 17)" onmousedown="handlePan(-1,0)">
                  <use xlink:href="#rim" fill="#404040">
                        <set attributeName="fill" to="#808080" begin="arrowLeft.mouseover" end="arrowLeft.mouseout"/>
                  </use>
                  <path fill="none" stroke="white" stroke-width="1.5" d="M0,-3.0v7 M-2.5,-0.5L0,-3.0L2.5,-0.5"/>
                </g>
        </g>
        <svg viewBox="0 0 15 15" width="100%" height="30px" preserveAspectRatio="xMaxYMin meet">
         <g id="arrow_out" transform="scale(0.3 0.3)">
          <a xlink:href="quickjs_8c_accfc3d1dcaa88c88402cb245ccaf4fdb_cgraph_org.svg" target="_base">
           <rect id="button" ry="5" rx="5" y="6" x="6" height="38" width="38"
                fill="#f2f5e9" fill-opacity="0.5" stroke="#606060" stroke-width="1.0"/>
           <path id="arrow"
             d="M 11.500037,31.436501 C 11.940474,20.09759 22.043105,11.32322 32.158766,21.979434 L 37.068811,17.246167 C 37.068811,17.246167 37.088388,32 37.088388,32 L 22.160133,31.978069 C 22.160133,31.978069 26.997745,27.140456 26.997745,27.140456 C 18.528582,18.264221 13.291696,25.230495 11.500037,31.436501 z"
             style="fill:#404040;"/>
          </a>
         </g>
        </svg>
</svg>
