<?xml version="1.0" encoding="UTF-8" standalone="no"?>
<!DOCTYPE svg PUBLIC "-//W3C//DTD SVG 1.1//EN"
 "http://www.w3.org/Graphics/SVG/1.1/DTD/svg11.dtd">
<!-- Generated by graphviz version 2.40.1 (20161225.0304)
 -->
<!-- Title: js_map_has Pages: 1 -->
<svg width="347pt" height="66pt"
 viewBox="0.00 0.00 347.00 66.00" xmlns="http://www.w3.org/2000/svg" xmlns:xlink="http://www.w3.org/1999/xlink">
<g id="graph0" class="graph" transform="scale(1 1) rotate(0) translate(4 62)">
<title>js_map_has</title>
<!-- Node456015 -->
<g id="node1" class="node">
<title>Node456015</title>
<polygon fill="#bfbfbf" stroke="#000000" points="0,-19.5 0,-38.5 74,-38.5 74,-19.5 0,-19.5"/>
<text text-anchor="middle" x="37" y="-26.5" font-family="Helvetica,sans-Serif" font-size="10.00" fill="#000000">js_map_has</text>
</g>
<!-- Node456016 -->
<g id="node2" class="node">
<title>Node456016</title>
<g id="a_node2"><a xlink:href="quickjs_8h.html#a93abffa925714e249a6aa2f4ae7900f6" target="_top" xlink:title="JS_NewBool">
<polygon fill="none" stroke="#000000" points="131,-38.5 131,-57.5 205,-57.5 205,-38.5 131,-38.5"/>
<text text-anchor="middle" x="168" y="-45.5" font-family="Helvetica,sans-Serif" font-size="10.00" fill="#000000">JS_NewBool</text>
</a>
</g>
</g>
<!-- Node456015&#45;&gt;Node456016 -->
<g id="edge1" class="edge">
<title>Node456015&#45;&gt;Node456016</title>
<path fill="none" stroke="#191970" d="M74.1889,-34.3938C88.5706,-36.4797 105.2071,-38.8926 120.4408,-41.1021"/>
<polygon fill="#191970" stroke="#191970" points="120.3192,-44.621 130.7181,-42.5927 121.324,-37.6935 120.3192,-44.621"/>
</g>
<!-- Node456017 -->
<g id="node3" class="node">
<title>Node456017</title>
<g id="a_node3"><a xlink:href="quickjs_8c.html#a6e07161e854c5b51edf4112a23c1b3d7" target="_top" xlink:title="map_normalize_key">
<polygon fill="none" stroke="#000000" points="110,-.5 110,-19.5 226,-19.5 226,-.5 110,-.5"/>
<text text-anchor="middle" x="168" y="-7.5" font-family="Helvetica,sans-Serif" font-size="10.00" fill="#000000">map_normalize_key</text>
</a>
</g>
</g>
<!-- Node456015&#45;&gt;Node456017 -->
<g id="edge2" class="edge">
<title>Node456015&#45;&gt;Node456017</title>
<path fill="none" stroke="#191970" d="M74.1889,-23.6062C82.213,-22.4424 90.939,-21.1768 99.7317,-19.9015"/>
<polygon fill="#191970" stroke="#191970" points="100.2593,-23.3617 109.6534,-18.4625 99.2545,-16.4342 100.2593,-23.3617"/>
</g>
<!-- Node456018 -->
<g id="node4" class="node">
<title>Node456018</title>
<g id="a_node4"><a xlink:href="quickjs_8h.html#a2050bc428da1c65ac7eb87c3fa3b0392" target="_top" xlink:title="JS_NewInt32">
<polygon fill="none" stroke="#000000" points="262,-.5 262,-19.5 339,-19.5 339,-.5 262,-.5"/>
<text text-anchor="middle" x="300.5" y="-7.5" font-family="Helvetica,sans-Serif" font-size="10.00" fill="#000000">JS_NewInt32</text>
</a>
</g>
</g>
<!-- Node456017&#45;&gt;Node456018 -->
<g id="edge3" class="edge">
<title>Node456017&#45;&gt;Node456018</title>
<path fill="none" stroke="#191970" d="M226.1164,-10C234.6234,-10 243.312,-10 251.6098,-10"/>
<polygon fill="#191970" stroke="#191970" points="251.8681,-13.5001 261.8681,-10 251.868,-6.5001 251.8681,-13.5001"/>
</g>
</g>
</svg>
