<?xml version="1.0" encoding="UTF-8" standalone="no"?>
<!DOCTYPE svg PUBLIC "-//W3C//DTD SVG 1.1//EN"
 "http://www.w3.org/Graphics/SVG/1.1/DTD/svg11.dtd">
<!-- Generated by graphviz version 2.40.1 (20161225.0304)
 -->
<!-- Title: test_final_sigma Pages: 1 -->
<svg width="509pt" height="142pt"
 viewBox="0.00 0.00 509.00 142.00" xmlns="http://www.w3.org/2000/svg" xmlns:xlink="http://www.w3.org/1999/xlink">
<g id="graph0" class="graph" transform="scale(1 1) rotate(0) translate(4 138)">
<title>test_final_sigma</title>
<!-- Node424466 -->
<g id="node1" class="node">
<title>Node424466</title>
<polygon fill="#bfbfbf" stroke="#000000" points="0,-57.5 0,-76.5 97,-76.5 97,-57.5 0,-57.5"/>
<text text-anchor="middle" x="48.5" y="-64.5" font-family="Helvetica,sans-Serif" font-size="10.00" fill="#000000">test_final_sigma</text>
</g>
<!-- Node424467 -->
<g id="node2" class="node">
<title>Node424467</title>
<g id="a_node2"><a xlink:href="libunicode_8c.html#a017df7a4ffd8f22c30735d8c9fa313ec" target="_top" xlink:title="lre_is_case_ignorable">
<polygon fill="none" stroke="#000000" points="133,-114.5 133,-133.5 255,-133.5 255,-114.5 133,-114.5"/>
<text text-anchor="middle" x="194" y="-121.5" font-family="Helvetica,sans-Serif" font-size="10.00" fill="#000000">lre_is_case_ignorable</text>
</a>
</g>
</g>
<!-- Node424466&#45;&gt;Node424467 -->
<g id="edge1" class="edge">
<title>Node424466&#45;&gt;Node424467</title>
<path fill="none" stroke="#191970" d="M68.0224,-76.5896C84.97,-84.7179 110.2878,-96.3919 133,-105 138.8538,-107.2186 145.0912,-109.3825 151.2587,-111.4078"/>
<polygon fill="#191970" stroke="#191970" points="150.2368,-114.7556 160.8277,-114.4646 152.3669,-108.0875 150.2368,-114.7556"/>
</g>
<!-- Node424471 -->
<g id="node5" class="node">
<title>Node424471</title>
<g id="a_node5"><a xlink:href="libunicode_8c.html#a44a954902c2b80c209810addcdd22c90" target="_top" xlink:title="lre_is_cased">
<polygon fill="none" stroke="#000000" points="155.5,-76.5 155.5,-95.5 232.5,-95.5 232.5,-76.5 155.5,-76.5"/>
<text text-anchor="middle" x="194" y="-83.5" font-family="Helvetica,sans-Serif" font-size="10.00" fill="#000000">lre_is_cased</text>
</a>
</g>
</g>
<!-- Node424466&#45;&gt;Node424471 -->
<g id="edge4" class="edge">
<title>Node424466&#45;&gt;Node424471</title>
<path fill="none" stroke="#191970" d="M97.3542,-73.3796C112.6479,-75.3767 129.5266,-77.5808 144.8412,-79.5806"/>
<polygon fill="#191970" stroke="#191970" points="144.786,-83.1031 155.155,-80.9275 145.6924,-76.162 144.786,-83.1031"/>
</g>
<!-- Node424472 -->
<g id="node6" class="node">
<title>Node424472</title>
<g id="a_node6"><a xlink:href="quickjs_8c.html#ae94a3705c1c334ae8719767ae53719c2" target="_top" xlink:title="string_getc">
<polygon fill="none" stroke="#000000" points="158.5,-38.5 158.5,-57.5 229.5,-57.5 229.5,-38.5 158.5,-38.5"/>
<text text-anchor="middle" x="194" y="-45.5" font-family="Helvetica,sans-Serif" font-size="10.00" fill="#000000">string_getc</text>
</a>
</g>
</g>
<!-- Node424466&#45;&gt;Node424472 -->
<g id="edge6" class="edge">
<title>Node424466&#45;&gt;Node424472</title>
<path fill="none" stroke="#191970" d="M97.3542,-60.6204C113.743,-58.4803 131.952,-56.1025 148.106,-53.993"/>
<polygon fill="#191970" stroke="#191970" points="148.9223,-57.4162 158.3849,-52.6508 148.0158,-50.4752 148.9223,-57.4162"/>
</g>
<!-- Node424473 -->
<g id="node7" class="node">
<title>Node424473</title>
<g id="a_node7"><a xlink:href="quickjs_8c.html#acf73acfeb3f86ca3b5bf4793a1a4d432" target="_top" xlink:title="string_prevc">
<polygon fill="none" stroke="#000000" points="155.5,-.5 155.5,-19.5 232.5,-19.5 232.5,-.5 155.5,-.5"/>
<text text-anchor="middle" x="194" y="-7.5" font-family="Helvetica,sans-Serif" font-size="10.00" fill="#000000">string_prevc</text>
</a>
</g>
</g>
<!-- Node424466&#45;&gt;Node424473 -->
<g id="edge7" class="edge">
<title>Node424466&#45;&gt;Node424473</title>
<path fill="none" stroke="#191970" d="M68.0224,-57.4104C84.97,-49.2821 110.2878,-37.6081 133,-29 138.8538,-26.7814 145.0912,-24.6175 151.2587,-22.5922"/>
<polygon fill="#191970" stroke="#191970" points="152.3669,-25.9125 160.8277,-19.5354 150.2368,-19.2444 152.3669,-25.9125"/>
</g>
<!-- Node424468 -->
<g id="node3" class="node">
<title>Node424468</title>
<g id="a_node3"><a xlink:href="libunicode_8c.html#a599cfa52b8ac7992138dc50f748e2a03" target="_top" xlink:title="lre_is_in_table">
<polygon fill="none" stroke="#000000" points="291,-95.5 291,-114.5 378,-114.5 378,-95.5 291,-95.5"/>
<text text-anchor="middle" x="334.5" y="-102.5" font-family="Helvetica,sans-Serif" font-size="10.00" fill="#000000">lre_is_in_table</text>
</a>
</g>
</g>
<!-- Node424467&#45;&gt;Node424468 -->
<g id="edge2" class="edge">
<title>Node424467&#45;&gt;Node424468</title>
<path fill="none" stroke="#191970" d="M255.2166,-115.7216C263.7335,-114.5699 272.4304,-113.3938 280.7955,-112.2625"/>
<polygon fill="#191970" stroke="#191970" points="281.3593,-115.7182 290.8001,-110.9096 280.4212,-108.7814 281.3593,-115.7182"/>
</g>
<!-- Node424469 -->
<g id="node4" class="node">
<title>Node424469</title>
<g id="a_node4"><a xlink:href="libunicode_8c.html#a71293078e836b0d817225cd6c72e17c2" target="_top" xlink:title="get_index_pos">
<polygon fill="none" stroke="#ff0000" points="414,-95.5 414,-114.5 501,-114.5 501,-95.5 414,-95.5"/>
<text text-anchor="middle" x="457.5" y="-102.5" font-family="Helvetica,sans-Serif" font-size="10.00" fill="#000000">get_index_pos</text>
</a>
</g>
</g>
<!-- Node424468&#45;&gt;Node424469 -->
<g id="edge3" class="edge">
<title>Node424468&#45;&gt;Node424469</title>
<path fill="none" stroke="#191970" d="M378.2115,-105C386.4587,-105 395.1729,-105 403.6873,-105"/>
<polygon fill="#191970" stroke="#191970" points="403.9293,-108.5001 413.9292,-105 403.9292,-101.5001 403.9293,-108.5001"/>
</g>
<!-- Node424471&#45;&gt;Node424468 -->
<g id="edge5" class="edge">
<title>Node424471&#45;&gt;Node424468</title>
<path fill="none" stroke="#191970" d="M232.7642,-91.2421C247.556,-93.2424 264.696,-95.5603 280.6425,-97.7168"/>
<polygon fill="#191970" stroke="#191970" points="280.5338,-101.2339 290.9126,-99.1056 281.4719,-94.297 280.5338,-101.2339"/>
</g>
</g>
</svg>
