<?xml version="1.0" encoding="UTF-8" standalone="no"?>
<!DOCTYPE svg PUBLIC "-//W3C//DTD SVG 1.1//EN"
 "http://www.w3.org/Graphics/SVG/1.1/DTD/svg11.dtd">
<!-- Generated by graphviz version 2.40.1 (20161225.0304)
 -->
<!-- Title: JS_WriteString Pages: 1 -->
<!--zoomable 123 -->
<svg id="main" version="1.1" xmlns="http://www.w3.org/2000/svg" xmlns:xlink="http://www.w3.org/1999/xlink" xml:space="preserve" onload="init(evt)">
<style type="text/css"><![CDATA[
.edge:hover path { stroke: red; }
.edge:hover polygon { stroke: red; fill: red; }
]]></style>
<script type="text/javascript"><![CDATA[
var edges = document.getElementsByTagName('g');
if (edges && edges.length) {
  for (var i=0;i<edges.length;i++) {
    if (edges[i].id.substr(0,4)=='edge') {
      edges[i].setAttribute('class','edge');
    }
  }
}
]]></script>
        <defs>
                <circle id="rim" cx="0" cy="0" r="7"/>
                <circle id="rim2" cx="0" cy="0" r="3.5"/>
                <g id="zoomPlus">
                        <use xlink:href="#rim" fill="#404040">
                                <set attributeName="fill" to="#808080" begin="zoomplus.mouseover" end="zoomplus.mouseout"/>
                        </use>
                        <path d="M-4,0h8M0,-4v8" fill="none" stroke="white" stroke-width="1.5" pointer-events="none"/>
                </g>
                <g id="zoomMin">
                        <use xlink:href="#rim" fill="#404040">
                                <set attributeName="fill" to="#808080" begin="zoomminus.mouseover" end="zoomminus.mouseout"/>
                        </use>
                        <path d="M-4,0h8" fill="none" stroke="white" stroke-width="1.5" pointer-events="none"/>
                </g>
                <g id="dirArrow">
                        <path fill="none" stroke="white" stroke-width="1.5" d="M0,-3.0v7 M-2.5,-0.5L0,-3.0L2.5,-0.5"/>
                </g>
               <g id="resetDef">
                       <use xlink:href="#rim2" fill="#404040">
                               <set attributeName="fill" to="#808080" begin="reset.mouseover" end="reset.mouseout"/>
                       </use>
               </g>
        </defs>

<script type="text/javascript">
var viewWidth = 564;
var viewHeight = 123;
var sectionId = 'dynsection-1292';
</script>
<script xlink:href="svgpan.js"/>
<svg id="graph" class="graph">
<g id="viewport">
<title>JS_WriteString</title>
<!-- Node361416 -->
<g id="node1" class="node">
<title>Node361416</title>
<polygon fill="#bfbfbf" stroke="#000000" points="0,-57.5 0,-76.5 85,-76.5 85,-57.5 0,-57.5"/>
<text text-anchor="middle" x="42.5" y="-64.5" font-family="Helvetica,sans-Serif" font-size="10.00" fill="#000000">JS_WriteString</text>
</g>
<!-- Node361417 -->
<g id="node2" class="node">
<title>Node361417</title>
<g id="a_node2"><a xlink:href="quickjs_8c.html#a5c417bcd8453a3ab8f4ced37e8f86bf2" target="_top" xlink:title="bc_put_leb128">
<polygon fill="none" stroke="#000000" points="121,-95.5 121,-114.5 208,-114.5 208,-95.5 121,-95.5"/>
<text text-anchor="middle" x="164.5" y="-102.5" font-family="Helvetica,sans-Serif" font-size="10.00" fill="#000000">bc_put_leb128</text>
</a>
</g>
</g>
<!-- Node361416&#45;&gt;Node361417 -->
<g id="edge1" class="edge">
<title>Node361416&#45;&gt;Node361417</title>
<path fill="none" stroke="#191970" d="M73.2858,-76.589C88.6013,-81.3594 107.3166,-87.1888 123.7998,-92.3229"/>
<polygon fill="#191970" stroke="#191970" points="123.1356,-95.7818 133.7241,-95.4141 125.2174,-89.0985 123.1356,-95.7818"/>
</g>
<!-- Node361420 -->
<g id="node5" class="node">
<title>Node361420</title>
<g id="a_node5"><a xlink:href="cutils_8h.html#ad1cfaae47347ae771136b5a9bbda49aa" target="_top" xlink:title="dbuf_put">
<polygon fill="none" stroke="#ff0000" points="497,-57.5 497,-76.5 556,-76.5 556,-57.5 497,-57.5"/>
<text text-anchor="middle" x="526.5" y="-64.5" font-family="Helvetica,sans-Serif" font-size="10.00" fill="#000000">dbuf_put</text>
</a>
</g>
</g>
<!-- Node361416&#45;&gt;Node361420 -->
<g id="edge9" class="edge">
<title>Node361416&#45;&gt;Node361420</title>
<path fill="none" stroke="#191970" d="M85.0276,-67C177.6659,-67 396.5903,-67 486.695,-67"/>
<polygon fill="#191970" stroke="#191970" points="486.7761,-70.5001 496.7761,-67 486.7761,-63.5001 486.7761,-70.5001"/>
</g>
<!-- Node361422 -->
<g id="node6" class="node">
<title>Node361422</title>
<g id="a_node6"><a xlink:href="quickjs_8c.html#a226c9e47a5047a3adcce0950aa3e3610" target="_top" xlink:title="bc_put_u16">
<polygon fill="none" stroke="#000000" points="128.5,-19.5 128.5,-38.5 200.5,-38.5 200.5,-19.5 128.5,-19.5"/>
<text text-anchor="middle" x="164.5" y="-26.5" font-family="Helvetica,sans-Serif" font-size="10.00" fill="#000000">bc_put_u16</text>
</a>
</g>
</g>
<!-- Node361416&#45;&gt;Node361422 -->
<g id="edge5" class="edge">
<title>Node361416&#45;&gt;Node361422</title>
<path fill="none" stroke="#191970" d="M73.2858,-57.411C88.6013,-52.6406 107.3166,-46.8112 123.7998,-41.6771"/>
<polygon fill="#191970" stroke="#191970" points="125.2174,-44.9015 133.7241,-38.5859 123.1356,-38.2182 125.2174,-44.9015"/>
</g>
<!-- Node361418 -->
<g id="node3" class="node">
<title>Node361418</title>
<g id="a_node3"><a xlink:href="quickjs_8c.html#af9b9e3f8ca5a82349d1925fca4683c38" target="_top" xlink:title="dbuf_put_leb128">
<polygon fill="none" stroke="#000000" points="244,-95.5 244,-114.5 342,-114.5 342,-95.5 244,-95.5"/>
<text text-anchor="middle" x="293" y="-102.5" font-family="Helvetica,sans-Serif" font-size="10.00" fill="#000000">dbuf_put_leb128</text>
</a>
</g>
</g>
<!-- Node361417&#45;&gt;Node361418 -->
<g id="edge2" class="edge">
<title>Node361417&#45;&gt;Node361418</title>
<path fill="none" stroke="#191970" d="M208.0042,-105C216.2728,-105 225.0548,-105 233.7157,-105"/>
<polygon fill="#191970" stroke="#191970" points="233.7894,-108.5001 243.7893,-105 233.7893,-101.5001 233.7894,-108.5001"/>
</g>
<!-- Node361419 -->
<g id="node4" class="node">
<title>Node361419</title>
<g id="a_node4"><a xlink:href="cutils_8h.html#aeed81d4787ccdbd55baa9b5fd6717e88" target="_top" xlink:title="dbuf_putc">
<polygon fill="none" stroke="#000000" points="387,-95.5 387,-114.5 452,-114.5 452,-95.5 387,-95.5"/>
<text text-anchor="middle" x="419.5" y="-102.5" font-family="Helvetica,sans-Serif" font-size="10.00" fill="#000000">dbuf_putc</text>
</a>
</g>
</g>
<!-- Node361418&#45;&gt;Node361419 -->
<g id="edge3" class="edge">
<title>Node361418&#45;&gt;Node361419</title>
<path fill="none" stroke="#191970" d="M342.2704,-105C353.626,-105 365.6143,-105 376.6702,-105"/>
<polygon fill="#191970" stroke="#191970" points="376.9334,-108.5001 386.9334,-105 376.9333,-101.5001 376.9334,-108.5001"/>
</g>
<!-- Node361419&#45;&gt;Node361420 -->
<g id="edge4" class="edge">
<title>Node361419&#45;&gt;Node361420</title>
<path fill="none" stroke="#191970" d="M446.5006,-95.411C459.6797,-90.7306 475.729,-85.0308 489.9835,-79.9685"/>
<polygon fill="#191970" stroke="#191970" points="491.256,-83.2308 499.508,-76.5859 488.9133,-76.6344 491.256,-83.2308"/>
</g>
<!-- Node361423 -->
<g id="node7" class="node">
<title>Node361423</title>
<g id="a_node7"><a xlink:href="cutils_8h.html#a86b872249d4bcf1f6b08c4af388f1d3c" target="_top" xlink:title="bswap16">
<polygon fill="none" stroke="#000000" points="263,-19.5 263,-38.5 323,-38.5 323,-19.5 263,-19.5"/>
<text text-anchor="middle" x="293" y="-26.5" font-family="Helvetica,sans-Serif" font-size="10.00" fill="#000000">bswap16</text>
</a>
</g>
</g>
<!-- Node361422&#45;&gt;Node361423 -->
<g id="edge6" class="edge">
<title>Node361422&#45;&gt;Node361423</title>
<path fill="none" stroke="#191970" d="M200.6364,-29C216.8655,-29 236.0756,-29 252.7618,-29"/>
<polygon fill="#191970" stroke="#191970" points="252.7761,-32.5001 262.776,-29 252.776,-25.5001 252.7761,-32.5001"/>
</g>
<!-- Node361424 -->
<g id="node8" class="node">
<title>Node361424</title>
<g id="a_node8"><a xlink:href="cutils_8h.html#a31a6b9f8517a73d45e976d8a026e964e" target="_top" xlink:title="dbuf_put_u16">
<polygon fill="none" stroke="#000000" points="378,-.5 378,-19.5 461,-19.5 461,-.5 378,-.5"/>
<text text-anchor="middle" x="419.5" y="-7.5" font-family="Helvetica,sans-Serif" font-size="10.00" fill="#000000">dbuf_put_u16</text>
</a>
</g>
</g>
<!-- Node361422&#45;&gt;Node361424 -->
<g id="edge7" class="edge">
<title>Node361422&#45;&gt;Node361424</title>
<path fill="none" stroke="#191970" d="M196.6814,-19.4936C211.0257,-15.7292 228.2155,-11.86 244,-10 285.4489,-5.1158 332.7875,-5.4584 367.8461,-6.8327"/>
<polygon fill="#191970" stroke="#191970" points="367.7098,-10.33 377.8518,-7.2658 368.0126,-3.3365 367.7098,-10.33"/>
</g>
<!-- Node361424&#45;&gt;Node361420 -->
<g id="edge8" class="edge">
<title>Node361424&#45;&gt;Node361420</title>
<path fill="none" stroke="#191970" d="M437.6511,-19.6693C454.6626,-28.7315 480.3049,-42.3914 499.6764,-52.7108"/>
<polygon fill="#191970" stroke="#191970" points="498.1456,-55.8609 508.617,-57.4735 501.4367,-49.6828 498.1456,-55.8609"/>
</g>
</g>
</svg>
        <g id="navigator" transform="translate(0 0)" fill="#404254">
                <rect fill="#f2f5e9" fill-opacity="0.5" stroke="#606060" stroke-width=".5" x="0" y="0" width="60" height="60"/>
                <use id="zoomplus" xlink:href="#zoomPlus" x="17" y="9" onmousedown="handleZoom(evt,'in')"/>
                <use id="zoomminus" xlink:href="#zoomMin" x="42" y="9" onmousedown="handleZoom(evt,'out')"/>
                <use id="reset" xlink:href="#resetDef" x="30" y="36" onmousedown="handleReset()"/>
                <g id="arrowUp" xlink:href="#dirArrow" transform="translate(30 24)" onmousedown="handlePan(0,-1)">
                  <use xlink:href="#rim" fill="#404040">
                        <set attributeName="fill" to="#808080" begin="arrowUp.mouseover" end="arrowUp.mouseout"/>
                  </use>
                  <path fill="none" stroke="white" stroke-width="1.5" d="M0,-3.0v7 M-2.5,-0.5L0,-3.0L2.5,-0.5"/>
                </g>
                <g id="arrowRight" xlink:href="#dirArrow" transform="rotate(90) translate(36 -43)" onmousedown="handlePan(1,0)">
                  <use xlink:href="#rim" fill="#404040">
                        <set attributeName="fill" to="#808080" begin="arrowRight.mouseover" end="arrowRight.mouseout"/>
                  </use>
                  <path fill="none" stroke="white" stroke-width="1.5" d="M0,-3.0v7 M-2.5,-0.5L0,-3.0L2.5,-0.5"/>
                </g>
                <g id="arrowDown" xlink:href="#dirArrow" transform="rotate(180) translate(-30 -48)" onmousedown="handlePan(0,1)">
                  <use xlink:href="#rim" fill="#404040">
                        <set attributeName="fill" to="#808080" begin="arrowDown.mouseover" end="arrowDown.mouseout"/>
                  </use>
                  <path fill="none" stroke="white" stroke-width="1.5" d="M0,-3.0v7 M-2.5,-0.5L0,-3.0L2.5,-0.5"/>
                </g>
                <g id="arrowLeft" xlink:href="#dirArrow" transform="rotate(270) translate(-36 17)" onmousedown="handlePan(-1,0)">
                  <use xlink:href="#rim" fill="#404040">
                        <set attributeName="fill" to="#808080" begin="arrowLeft.mouseover" end="arrowLeft.mouseout"/>
                  </use>
                  <path fill="none" stroke="white" stroke-width="1.5" d="M0,-3.0v7 M-2.5,-0.5L0,-3.0L2.5,-0.5"/>
                </g>
        </g>
        <svg viewBox="0 0 15 15" width="100%" height="30px" preserveAspectRatio="xMaxYMin meet">
         <g id="arrow_out" transform="scale(0.3 0.3)">
          <a xlink:href="quickjs_8c_a0c946fdd3a6def82765db148f99b8fba_cgraph_org.svg" target="_base">
           <rect id="button" ry="5" rx="5" y="6" x="6" height="38" width="38"
                fill="#f2f5e9" fill-opacity="0.5" stroke="#606060" stroke-width="1.0"/>
           <path id="arrow"
             d="M 11.500037,31.436501 C 11.940474,20.09759 22.043105,11.32322 32.158766,21.979434 L 37.068811,17.246167 C 37.068811,17.246167 37.088388,32 37.088388,32 L 22.160133,31.978069 C 22.160133,31.978069 26.997745,27.140456 26.997745,27.140456 C 18.528582,18.264221 13.291696,25.230495 11.500037,31.436501 z"
             style="fill:#404040;"/>
          </a>
         </g>
        </svg>
</svg>
