<?xml version="1.0" encoding="UTF-8" standalone="no"?>
<!DOCTYPE svg PUBLIC "-//W3C//DTD SVG 1.1//EN"
 "http://www.w3.org/Graphics/SVG/1.1/DTD/svg11.dtd">
<!-- Generated by graphviz version 2.40.1 (20161225.0304)
 -->
<!-- Title: js_trigger_gc Pages: 1 -->
<!--zoomable 392 -->
<svg id="main" version="1.1" xmlns="http://www.w3.org/2000/svg" xmlns:xlink="http://www.w3.org/1999/xlink" xml:space="preserve" onload="init(evt)">
<style type="text/css"><![CDATA[
.edge:hover path { stroke: red; }
.edge:hover polygon { stroke: red; fill: red; }
]]></style>
<script type="text/javascript"><![CDATA[
var edges = document.getElementsByTagName('g');
if (edges && edges.length) {
  for (var i=0;i<edges.length;i++) {
    if (edges[i].id.substr(0,4)=='edge') {
      edges[i].setAttribute('class','edge');
    }
  }
}
]]></script>
        <defs>
                <circle id="rim" cx="0" cy="0" r="7"/>
                <circle id="rim2" cx="0" cy="0" r="3.5"/>
                <g id="zoomPlus">
                        <use xlink:href="#rim" fill="#404040">
                                <set attributeName="fill" to="#808080" begin="zoomplus.mouseover" end="zoomplus.mouseout"/>
                        </use>
                        <path d="M-4,0h8M0,-4v8" fill="none" stroke="white" stroke-width="1.5" pointer-events="none"/>
                </g>
                <g id="zoomMin">
                        <use xlink:href="#rim" fill="#404040">
                                <set attributeName="fill" to="#808080" begin="zoomminus.mouseover" end="zoomminus.mouseout"/>
                        </use>
                        <path d="M-4,0h8" fill="none" stroke="white" stroke-width="1.5" pointer-events="none"/>
                </g>
                <g id="dirArrow">
                        <path fill="none" stroke="white" stroke-width="1.5" d="M0,-3.0v7 M-2.5,-0.5L0,-3.0L2.5,-0.5"/>
                </g>
               <g id="resetDef">
                       <use xlink:href="#rim2" fill="#404040">
                               <set attributeName="fill" to="#808080" begin="reset.mouseover" end="reset.mouseout"/>
                       </use>
               </g>
        </defs>

<script type="text/javascript">
var viewWidth = 582;
var viewHeight = 392;
var sectionId = 'dynsection-135';
</script>
<script xlink:href="svgpan.js"/>
<svg id="graph" class="graph">
<g id="viewport">
<title>js_trigger_gc</title>
<!-- Node50324 -->
<g id="node1" class="node">
<title>Node50324</title>
<polygon fill="#bfbfbf" stroke="#000000" points="0,-228.5 0,-247.5 79,-247.5 79,-228.5 0,-228.5"/>
<text text-anchor="middle" x="39.5" y="-235.5" font-family="Helvetica,sans-Serif" font-size="10.00" fill="#000000">js_trigger_gc</text>
</g>
<!-- Node50325 -->
<g id="node2" class="node">
<title>Node50325</title>
<g id="a_node2"><a xlink:href="quickjs_8c.html#aeeea589ee4cec4bbc3145210f4cf6e42" target="_top" xlink:title="JS_RunGC">
<polygon fill="none" stroke="#000000" points="115,-228.5 115,-247.5 178,-247.5 178,-228.5 115,-228.5"/>
<text text-anchor="middle" x="146.5" y="-235.5" font-family="Helvetica,sans-Serif" font-size="10.00" fill="#000000">JS_RunGC</text>
</a>
</g>
</g>
<!-- Node50324&#45;&gt;Node50325 -->
<g id="edge1" class="edge">
<title>Node50324&#45;&gt;Node50325</title>
<path fill="none" stroke="#191970" d="M79.0388,-238C87.4189,-238 96.2903,-238 104.7494,-238"/>
<polygon fill="#191970" stroke="#191970" points="104.8026,-241.5001 114.8025,-238 104.8025,-234.5001 104.8026,-241.5001"/>
</g>
<!-- Node50326 -->
<g id="node3" class="node">
<title>Node50326</title>
<g id="a_node3"><a xlink:href="quickjs_8c.html#ae09ca4f159971d3c1f1dafc8682ba04b" target="_top" xlink:title="gc_decref">
<polygon fill="none" stroke="#000000" points="226.5,-285.5 226.5,-304.5 290.5,-304.5 290.5,-285.5 226.5,-285.5"/>
<text text-anchor="middle" x="258.5" y="-292.5" font-family="Helvetica,sans-Serif" font-size="10.00" fill="#000000">gc_decref</text>
</a>
</g>
</g>
<!-- Node50325&#45;&gt;Node50326 -->
<g id="edge2" class="edge">
<title>Node50325&#45;&gt;Node50326</title>
<path fill="none" stroke="#191970" d="M165.2463,-247.5405C183.0942,-256.6239 210.182,-270.4096 230.5722,-280.7867"/>
<polygon fill="#191970" stroke="#191970" points="229.1928,-284.0119 239.6926,-285.4284 232.3678,-277.7733 229.1928,-284.0119"/>
</g>
<!-- Node50340 -->
<g id="node9" class="node">
<title>Node50340</title>
<g id="a_node9"><a xlink:href="quickjs_8c.html#adee2db09b659dd2c1a1a3c408658a753" target="_top" xlink:title="gc_scan">
<polygon fill="none" stroke="#000000" points="230.5,-228.5 230.5,-247.5 286.5,-247.5 286.5,-228.5 230.5,-228.5"/>
<text text-anchor="middle" x="258.5" y="-235.5" font-family="Helvetica,sans-Serif" font-size="10.00" fill="#000000">gc_scan</text>
</a>
</g>
</g>
<!-- Node50325&#45;&gt;Node50340 -->
<g id="edge10" class="edge">
<title>Node50325&#45;&gt;Node50340</title>
<path fill="none" stroke="#191970" d="M178.2951,-238C191.3852,-238 206.6601,-238 220.3467,-238"/>
<polygon fill="#191970" stroke="#191970" points="220.4409,-241.5001 230.4409,-238 220.4409,-234.5001 220.4409,-241.5001"/>
</g>
<!-- Node50343 -->
<g id="node12" class="node">
<title>Node50343</title>
<g id="a_node12"><a xlink:href="quickjs_8c.html#af7c53b26778d6b7e155fab5349a4585e" target="_top" xlink:title="gc_free_cycles">
<polygon fill="none" stroke="#000000" points="214,-95.5 214,-114.5 303,-114.5 303,-95.5 214,-95.5"/>
<text text-anchor="middle" x="258.5" y="-102.5" font-family="Helvetica,sans-Serif" font-size="10.00" fill="#000000">gc_free_cycles</text>
</a>
</g>
</g>
<!-- Node50325&#45;&gt;Node50343 -->
<g id="edge16" class="edge">
<title>Node50325&#45;&gt;Node50343</title>
<path fill="none" stroke="#191970" d="M154.5548,-228.435C173.1914,-206.304 219.5215,-151.287 243.5353,-122.7706"/>
<polygon fill="#191970" stroke="#191970" points="246.4518,-124.7408 250.216,-114.8372 241.0975,-120.2318 246.4518,-124.7408"/>
</g>
<!-- Node50327 -->
<g id="node4" class="node">
<title>Node50327</title>
<g id="a_node4"><a xlink:href="list_8h.html#a663527a4d757540b2177bef0db1ce5c0" target="_top" xlink:title="init_list_head">
<polygon fill="none" stroke="#000000" points="359.5,-190.5 359.5,-209.5 441.5,-209.5 441.5,-190.5 359.5,-190.5"/>
<text text-anchor="middle" x="400.5" y="-197.5" font-family="Helvetica,sans-Serif" font-size="10.00" fill="#000000">init_list_head</text>
</a>
</g>
</g>
<!-- Node50326&#45;&gt;Node50327 -->
<g id="edge3" class="edge">
<title>Node50326&#45;&gt;Node50327</title>
<path fill="none" stroke="#191970" d="M270.5086,-285.3287C279.638,-277.8383 292.3921,-267.0741 303,-257 319.8694,-240.9794 319.2402,-231.2794 339,-219 342.374,-216.9033 345.9967,-215.0226 349.7341,-213.3382"/>
<polygon fill="#191970" stroke="#191970" points="351.2076,-216.5182 359.1839,-209.5448 348.5999,-210.0221 351.2076,-216.5182"/>
</g>
<!-- Node50328 -->
<g id="node5" class="node">
<title>Node50328</title>
<g id="a_node5"><a xlink:href="quickjs_8c.html#aa863a9d565bac49a2a76d10009eabd5c" target="_top" xlink:title="mark_children">
<polygon fill="none" stroke="#ff0000" points="357.5,-266.5 357.5,-285.5 443.5,-285.5 443.5,-266.5 357.5,-266.5"/>
<text text-anchor="middle" x="400.5" y="-273.5" font-family="Helvetica,sans-Serif" font-size="10.00" fill="#000000">mark_children</text>
</a>
</g>
</g>
<!-- Node50326&#45;&gt;Node50328 -->
<g id="edge4" class="edge">
<title>Node50326&#45;&gt;Node50328</title>
<path fill="none" stroke="#191970" d="M290.722,-290.6886C307.4383,-288.4519 328.2914,-285.6617 347.3191,-283.1158"/>
<polygon fill="#191970" stroke="#191970" points="347.9193,-286.5667 357.3667,-281.7714 346.9909,-279.6286 347.9193,-286.5667"/>
</g>
<!-- Node50336 -->
<g id="node6" class="node">
<title>Node50336</title>
<g id="a_node6"><a xlink:href="quickjs_8c.html#a765db9341ea8163ebb7b0b61c7127752" target="_top" xlink:title="gc_decref_child">
<polygon fill="none" stroke="#000000" points="354.5,-342.5 354.5,-361.5 446.5,-361.5 446.5,-342.5 354.5,-342.5"/>
<text text-anchor="middle" x="400.5" y="-349.5" font-family="Helvetica,sans-Serif" font-size="10.00" fill="#000000">gc_decref_child</text>
</a>
</g>
</g>
<!-- Node50326&#45;&gt;Node50336 -->
<g id="edge5" class="edge">
<title>Node50326&#45;&gt;Node50336</title>
<path fill="none" stroke="#191970" d="M281.7075,-304.6355C297.7667,-311.2732 319.6471,-320.2577 339,-328 347.8306,-331.5328 357.3986,-335.2971 366.2978,-338.7716"/>
<polygon fill="#191970" stroke="#191970" points="365.0371,-342.0366 375.6256,-342.4034 367.5769,-335.5136 365.0371,-342.0366"/>
</g>
<!-- Node50337 -->
<g id="node7" class="node">
<title>Node50337</title>
<g id="a_node7"><a xlink:href="list_8h.html#ab60d5d18869ebeb5d6ab694289576fa7" target="_top" xlink:title="list_del">
<polygon fill="none" stroke="#000000" points="510,-247.5 510,-266.5 562,-266.5 562,-247.5 510,-247.5"/>
<text text-anchor="middle" x="536" y="-254.5" font-family="Helvetica,sans-Serif" font-size="10.00" fill="#000000">list_del</text>
</a>
</g>
</g>
<!-- Node50326&#45;&gt;Node50337 -->
<g id="edge8" class="edge">
<title>Node50326&#45;&gt;Node50337</title>
<path fill="none" stroke="#191970" d="M290.7735,-299.6122C331.3749,-304.3707 402.9341,-309.2792 462,-295 480.5397,-290.518 499.6454,-280.5467 513.7988,-271.9429"/>
<polygon fill="#191970" stroke="#191970" points="515.7412,-274.8558 522.3287,-266.5579 512.0043,-268.9367 515.7412,-274.8558"/>
</g>
<!-- Node50338 -->
<g id="node8" class="node">
<title>Node50338</title>
<g id="a_node8"><a xlink:href="list_8h.html#a3a5d0733570b2fafc18f4c71a2968ea5" target="_top" xlink:title="list_add_tail">
<polygon fill="none" stroke="#ff0000" points="498,-323.5 498,-342.5 574,-342.5 574,-323.5 498,-323.5"/>
<text text-anchor="middle" x="536" y="-330.5" font-family="Helvetica,sans-Serif" font-size="10.00" fill="#000000">list_add_tail</text>
</a>
</g>
</g>
<!-- Node50326&#45;&gt;Node50338 -->
<g id="edge9" class="edge">
<title>Node50326&#45;&gt;Node50338</title>
<path fill="none" stroke="#191970" d="M264.8358,-304.5882C276.8655,-321.8084 304.8856,-357.4404 339,-371 389.8009,-391.192 408.864,-383.8457 462,-371 480.5397,-366.518 499.6454,-356.5467 513.7988,-347.9429"/>
<polygon fill="#191970" stroke="#191970" points="515.7412,-350.8558 522.3287,-342.5579 512.0043,-344.9367 515.7412,-350.8558"/>
</g>
<!-- Node50336&#45;&gt;Node50337 -->
<g id="edge6" class="edge">
<title>Node50336&#45;&gt;Node50337</title>
<path fill="none" stroke="#191970" d="M431.9899,-342.4165C441.9888,-338.6769 452.8237,-333.8609 462,-328 485.295,-313.1215 507.5512,-290.1769 521.4611,-274.4214"/>
<polygon fill="#191970" stroke="#191970" points="524.4067,-276.3649 528.2838,-266.5049 519.1041,-271.795 524.4067,-276.3649"/>
</g>
<!-- Node50336&#45;&gt;Node50338 -->
<g id="edge7" class="edge">
<title>Node50336&#45;&gt;Node50338</title>
<path fill="none" stroke="#191970" d="M446.7524,-345.5144C459.9487,-343.664 474.3588,-341.6434 487.6753,-339.7762"/>
<polygon fill="#191970" stroke="#191970" points="488.19,-343.2383 497.6071,-338.3835 487.2179,-336.3061 488.19,-343.2383"/>
</g>
<!-- Node50340&#45;&gt;Node50328 -->
<g id="edge11" class="edge">
<title>Node50340&#45;&gt;Node50328</title>
<path fill="none" stroke="#191970" d="M286.5546,-245.5076C306.1279,-250.7455 332.6761,-257.85 355.2227,-263.8835"/>
<polygon fill="#191970" stroke="#191970" points="354.3688,-267.2781 364.9337,-266.4822 356.1784,-260.516 354.3688,-267.2781"/>
</g>
<!-- Node50341 -->
<g id="node10" class="node">
<title>Node50341</title>
<g id="a_node10"><a xlink:href="quickjs_8c.html#abc20b88e7a87b45b51a6dc6ff24f9a9a" target="_top" xlink:title="gc_scan_incref_child">
<polygon fill="none" stroke="#000000" points="342,-228.5 342,-247.5 459,-247.5 459,-228.5 342,-228.5"/>
<text text-anchor="middle" x="400.5" y="-235.5" font-family="Helvetica,sans-Serif" font-size="10.00" fill="#000000">gc_scan_incref_child</text>
</a>
</g>
</g>
<!-- Node50340&#45;&gt;Node50341 -->
<g id="edge12" class="edge">
<title>Node50340&#45;&gt;Node50341</title>
<path fill="none" stroke="#191970" d="M286.5546,-238C299.55,-238 315.62,-238 331.5521,-238"/>
<polygon fill="#191970" stroke="#191970" points="331.9682,-241.5001 341.9682,-238 331.9682,-234.5001 331.9682,-241.5001"/>
</g>
<!-- Node50342 -->
<g id="node11" class="node">
<title>Node50342</title>
<g id="a_node11"><a xlink:href="quickjs_8c.html#aa76a7a61c337651e4cadfcac05db5cb6" target="_top" xlink:title="gc_scan_incref_child2">
<polygon fill="none" stroke="#000000" points="339,-152.5 339,-171.5 462,-171.5 462,-152.5 339,-152.5"/>
<text text-anchor="middle" x="400.5" y="-159.5" font-family="Helvetica,sans-Serif" font-size="10.00" fill="#000000">gc_scan_incref_child2</text>
</a>
</g>
</g>
<!-- Node50340&#45;&gt;Node50342 -->
<g id="edge15" class="edge">
<title>Node50340&#45;&gt;Node50342</title>
<path fill="none" stroke="#191970" d="M269.504,-228.4705C284.3718,-216.0192 312.1191,-194.2473 339,-181 343.5812,-178.7423 348.4868,-176.6852 353.455,-174.8289"/>
<polygon fill="#191970" stroke="#191970" points="354.7197,-178.0948 363.0173,-171.507 352.4225,-171.4825 354.7197,-178.0948"/>
</g>
<!-- Node50341&#45;&gt;Node50337 -->
<g id="edge13" class="edge">
<title>Node50341&#45;&gt;Node50337</title>
<path fill="none" stroke="#191970" d="M459.1442,-246.2232C473.002,-248.1663 487.3775,-250.1821 499.8944,-251.9372"/>
<polygon fill="#191970" stroke="#191970" points="499.5302,-255.4203 509.9194,-253.3429 500.5023,-248.4881 499.5302,-255.4203"/>
</g>
<!-- Node50341&#45;&gt;Node50338 -->
<g id="edge14" class="edge">
<title>Node50341&#45;&gt;Node50338</title>
<path fill="none" stroke="#191970" d="M441.4486,-247.5004C448.5741,-250.0223 455.7091,-253.15 462,-257 487.0135,-272.3079 509.5413,-297.9785 522.9972,-315.1966"/>
<polygon fill="#191970" stroke="#191970" points="520.3377,-317.4819 529.172,-323.3305 525.9132,-313.2493 520.3377,-317.4819"/>
</g>
<!-- Node50343&#45;&gt;Node50327 -->
<g id="edge21" class="edge">
<title>Node50343&#45;&gt;Node50327</title>
<path fill="none" stroke="#191970" d="M266.1259,-114.6399C279.3116,-130.684 307.9557,-162.8878 339,-181 342.6377,-183.1224 346.5373,-185.0316 350.5427,-186.7445"/>
<polygon fill="#191970" stroke="#191970" points="349.4178,-190.0618 360.0074,-190.3927 351.9354,-183.5303 349.4178,-190.0618"/>
</g>
<!-- Node50343&#45;&gt;Node50337 -->
<g id="edge18" class="edge">
<title>Node50343&#45;&gt;Node50337</title>
<path fill="none" stroke="#191970" d="M273.3111,-95.4933C309.101,-73.8442 401.7717,-25.8222 462,-67 491.3642,-87.0761 520.2292,-192.7243 531.2823,-237.2181"/>
<polygon fill="#191970" stroke="#191970" points="527.9282,-238.2373 533.6981,-247.1231 534.7288,-236.5786 527.9282,-238.2373"/>
</g>
<!-- Node50343&#45;&gt;Node50338 -->
<g id="edge19" class="edge">
<title>Node50343&#45;&gt;Node50338</title>
<path fill="none" stroke="#191970" d="M303.4391,-107.8916C356.209,-112.2024 439.4224,-122.1545 462,-143 506.9935,-184.5417 472.6848,-220.2392 498,-276 504.3762,-290.0445 514.0442,-304.4876 522.0326,-315.3211"/>
<polygon fill="#191970" stroke="#191970" points="519.4002,-317.6417 528.2386,-323.4842 524.9727,-313.4053 519.4002,-317.6417"/>
</g>
<!-- Node50344 -->
<g id="node13" class="node">
<title>Node50344</title>
<g id="a_node13"><a xlink:href="quickjs_8c.html#a3d1c7a8d6aa5a9ba8ea8ef2828db188a" target="_top" xlink:title="free_gc_object">
<polygon fill="none" stroke="#ff0000" points="356.5,-.5 356.5,-19.5 444.5,-19.5 444.5,-.5 356.5,-.5"/>
<text text-anchor="middle" x="400.5" y="-7.5" font-family="Helvetica,sans-Serif" font-size="10.00" fill="#000000">free_gc_object</text>
</a>
</g>
</g>
<!-- Node50343&#45;&gt;Node50344 -->
<g id="edge17" class="edge">
<title>Node50343&#45;&gt;Node50344</title>
<path fill="none" stroke="#191970" d="M267.5311,-95.0571C281.5705,-80.0911 310.0405,-51.6526 339,-34 345.5263,-30.0218 352.8258,-26.4876 360.0528,-23.436"/>
<polygon fill="#191970" stroke="#191970" points="361.7776,-26.5173 369.7833,-19.5776 359.1973,-20.0102 361.7776,-26.5173"/>
</g>
<!-- Node50351 -->
<g id="node14" class="node">
<title>Node50351</title>
<g id="a_node14"><a xlink:href="quickjs_8c.html#a69e19dda8a93d613203e0baa06f0ed8d" target="_top" xlink:title="js_free_rt">
<polygon fill="none" stroke="#000000" points="369.5,-76.5 369.5,-95.5 431.5,-95.5 431.5,-76.5 369.5,-76.5"/>
<text text-anchor="middle" x="400.5" y="-83.5" font-family="Helvetica,sans-Serif" font-size="10.00" fill="#000000">js_free_rt</text>
</a>
</g>
</g>
<!-- Node50343&#45;&gt;Node50351 -->
<g id="edge20" class="edge">
<title>Node50343&#45;&gt;Node50351</title>
<path fill="none" stroke="#191970" d="M303.0401,-99.0404C320.9899,-96.6387 341.5727,-93.8846 359.1838,-91.5282"/>
<polygon fill="#191970" stroke="#191970" points="359.7197,-94.9878 369.1672,-90.1924 358.7913,-88.0496 359.7197,-94.9878"/>
</g>
</g>
</svg>
        <g id="navigator" transform="translate(0 0)" fill="#404254">
                <rect fill="#f2f5e9" fill-opacity="0.5" stroke="#606060" stroke-width=".5" x="0" y="0" width="60" height="60"/>
                <use id="zoomplus" xlink:href="#zoomPlus" x="17" y="9" onmousedown="handleZoom(evt,'in')"/>
                <use id="zoomminus" xlink:href="#zoomMin" x="42" y="9" onmousedown="handleZoom(evt,'out')"/>
                <use id="reset" xlink:href="#resetDef" x="30" y="36" onmousedown="handleReset()"/>
                <g id="arrowUp" xlink:href="#dirArrow" transform="translate(30 24)" onmousedown="handlePan(0,-1)">
                  <use xlink:href="#rim" fill="#404040">
                        <set attributeName="fill" to="#808080" begin="arrowUp.mouseover" end="arrowUp.mouseout"/>
                  </use>
                  <path fill="none" stroke="white" stroke-width="1.5" d="M0,-3.0v7 M-2.5,-0.5L0,-3.0L2.5,-0.5"/>
                </g>
                <g id="arrowRight" xlink:href="#dirArrow" transform="rotate(90) translate(36 -43)" onmousedown="handlePan(1,0)">
                  <use xlink:href="#rim" fill="#404040">
                        <set attributeName="fill" to="#808080" begin="arrowRight.mouseover" end="arrowRight.mouseout"/>
                  </use>
                  <path fill="none" stroke="white" stroke-width="1.5" d="M0,-3.0v7 M-2.5,-0.5L0,-3.0L2.5,-0.5"/>
                </g>
                <g id="arrowDown" xlink:href="#dirArrow" transform="rotate(180) translate(-30 -48)" onmousedown="handlePan(0,1)">
                  <use xlink:href="#rim" fill="#404040">
                        <set attributeName="fill" to="#808080" begin="arrowDown.mouseover" end="arrowDown.mouseout"/>
                  </use>
                  <path fill="none" stroke="white" stroke-width="1.5" d="M0,-3.0v7 M-2.5,-0.5L0,-3.0L2.5,-0.5"/>
                </g>
                <g id="arrowLeft" xlink:href="#dirArrow" transform="rotate(270) translate(-36 17)" onmousedown="handlePan(-1,0)">
                  <use xlink:href="#rim" fill="#404040">
                        <set attributeName="fill" to="#808080" begin="arrowLeft.mouseover" end="arrowLeft.mouseout"/>
                  </use>
                  <path fill="none" stroke="white" stroke-width="1.5" d="M0,-3.0v7 M-2.5,-0.5L0,-3.0L2.5,-0.5"/>
                </g>
        </g>
        <svg viewBox="0 0 15 15" width="100%" height="30px" preserveAspectRatio="xMaxYMin meet">
         <g id="arrow_out" transform="scale(0.3 0.3)">
          <a xlink:href="quickjs_8c_a85321334e4bec66bfc03451897a03a3b_cgraph_org.svg" target="_base">
           <rect id="button" ry="5" rx="5" y="6" x="6" height="38" width="38"
                fill="#f2f5e9" fill-opacity="0.5" stroke="#606060" stroke-width="1.0"/>
           <path id="arrow"
             d="M 11.500037,31.436501 C 11.940474,20.09759 22.043105,11.32322 32.158766,21.979434 L 37.068811,17.246167 C 37.068811,17.246167 37.088388,32 37.088388,32 L 22.160133,31.978069 C 22.160133,31.978069 26.997745,27.140456 26.997745,27.140456 C 18.528582,18.264221 13.291696,25.230495 11.500037,31.436501 z"
             style="fill:#404040;"/>
          </a>
         </g>
        </svg>
</svg>
