<?xml version="1.0" encoding="UTF-8" standalone="no"?>
<!DOCTYPE svg PUBLIC "-//W3C//DTD SVG 1.1//EN"
 "http://www.w3.org/Graphics/SVG/1.1/DTD/svg11.dtd">
<!-- Generated by graphviz version 2.40.1 (20161225.0304)
 -->
<!-- Title: js_array_includes Pages: 1 -->
<svg width="1110pt" height="637pt"
 viewBox="0.00 0.00 1110.00 636.76" xmlns="http://www.w3.org/2000/svg" xmlns:xlink="http://www.w3.org/1999/xlink">
<g id="graph0" class="graph" transform="scale(1 1) rotate(0) translate(4 632.7587)">
<title>js_array_includes</title>
<!-- Node401185 -->
<g id="node1" class="node">
<title>Node401185</title>
<polygon fill="#bfbfbf" stroke="#000000" points="0,-382.1117 0,-401.1117 101,-401.1117 101,-382.1117 0,-382.1117"/>
<text text-anchor="middle" x="50.5" y="-389.1117" font-family="Helvetica,sans-Serif" font-size="10.00" fill="#000000">js_array_includes</text>
</g>
<!-- Node401186 -->
<g id="node2" class="node">
<title>Node401186</title>
<g id="a_node2"><a xlink:href="quickjs_8h.html#a775522f2d084fc8fa0fcb33f390006b4" target="_top" xlink:title="JS_DupValue">
<polygon fill="none" stroke="#000000" points="762.5,-496.1117 762.5,-515.1117 839.5,-515.1117 839.5,-496.1117 762.5,-496.1117"/>
<text text-anchor="middle" x="801" y="-503.1117" font-family="Helvetica,sans-Serif" font-size="10.00" fill="#000000">JS_DupValue</text>
</a>
</g>
</g>
<!-- Node401185&#45;&gt;Node401186 -->
<g id="edge1" class="edge">
<title>Node401185&#45;&gt;Node401186</title>
<path fill="none" stroke="#191970" d="M51.3025,-401.3509C54.6277,-434.8259 70.4666,-545.8347 137,-595.6117 211.5123,-651.3582 251.9422,-619.6117 345,-619.6117 345,-619.6117 345,-619.6117 501,-619.6117 601.5673,-619.6117 637.3212,-643.0443 726,-595.6117 756.1914,-579.4629 779.1071,-545.6355 791.2607,-524.3625"/>
<polygon fill="#191970" stroke="#191970" points="794.479,-525.7724 796.2114,-515.3202 788.339,-522.4107 794.479,-525.7724"/>
</g>
<!-- Node401187 -->
<g id="node3" class="node">
<title>Node401187</title>
<g id="a_node3"><a xlink:href="quickjs_8h.html#afaa20c47565bc704c6c85f3d77254e7d" target="_top" xlink:title="JS_FreeValue">
<polygon fill="none" stroke="#000000" points="762,-230.1117 762,-249.1117 840,-249.1117 840,-230.1117 762,-230.1117"/>
<text text-anchor="middle" x="801" y="-237.1117" font-family="Helvetica,sans-Serif" font-size="10.00" fill="#000000">JS_FreeValue</text>
</a>
</g>
</g>
<!-- Node401185&#45;&gt;Node401187 -->
<g id="edge2" class="edge">
<title>Node401185&#45;&gt;Node401187</title>
<path fill="none" stroke="#191970" d="M57.9687,-401.295C88.7537,-440.0134 210.5309,-581.6117 345,-581.6117 345,-581.6117 345,-581.6117 501,-581.6117 551.178,-581.6117 688.0598,-595.4502 726,-562.6117 749.5056,-542.2668 786.7403,-326.298 797.8012,-259.3109"/>
<polygon fill="#191970" stroke="#191970" points="801.287,-259.682 799.4504,-249.2476 794.3791,-258.5499 801.287,-259.682"/>
</g>
<!-- Node401225 -->
<g id="node6" class="node">
<title>Node401225</title>
<g id="a_node6"><a xlink:href="quickjs_8c.html#a4e7bf9ce9c03f0cac9529a14161183e0" target="_top" xlink:title="js_get_fast_array">
<polygon fill="none" stroke="#000000" points="143.5,-211.1117 143.5,-230.1117 244.5,-230.1117 244.5,-211.1117 143.5,-211.1117"/>
<text text-anchor="middle" x="194" y="-218.1117" font-family="Helvetica,sans-Serif" font-size="10.00" fill="#000000">js_get_fast_array</text>
</a>
</g>
</g>
<!-- Node401185&#45;&gt;Node401225 -->
<g id="edge5" class="edge">
<title>Node401185&#45;&gt;Node401225</title>
<path fill="none" stroke="#191970" d="M53.3353,-381.8118C61.5948,-354.9864 88.1955,-279.6942 137,-239.6117 139.0455,-237.9318 141.2455,-236.3982 143.5493,-234.9985"/>
<polygon fill="#191970" stroke="#191970" points="145.5386,-237.9119 152.8422,-230.2368 142.3464,-231.6822 145.5386,-237.9119"/>
</g>
<!-- Node401226 -->
<g id="node7" class="node">
<title>Node401226</title>
<g id="a_node7"><a xlink:href="quickjs_8c.html#a5f848f76409193212a44e6221e430919" target="_top" xlink:title="js_get_length64">
<polygon fill="none" stroke="#000000" points="298,-363.1117 298,-382.1117 392,-382.1117 392,-363.1117 298,-363.1117"/>
<text text-anchor="middle" x="345" y="-370.1117" font-family="Helvetica,sans-Serif" font-size="10.00" fill="#000000">js_get_length64</text>
</a>
</g>
</g>
<!-- Node401185&#45;&gt;Node401226 -->
<g id="edge6" class="edge">
<title>Node401185&#45;&gt;Node401226</title>
<path fill="none" stroke="#191970" d="M101.1264,-388.3455C153.0382,-384.9963 233.6355,-379.7965 287.8169,-376.3009"/>
<polygon fill="#191970" stroke="#191970" points="288.1949,-379.7839 297.9488,-375.6473 287.7442,-372.7984 288.1949,-379.7839"/>
</g>
<!-- Node401236 -->
<g id="node11" class="node">
<title>Node401236</title>
<g id="a_node11"><a xlink:href="quickjs_8h.html#ad80a83d73e9b7d872b88fbf2943aebe9" target="_top" xlink:title="JS_IsException">
<polygon fill="none" stroke="#000000" points="457.5,-344.1117 457.5,-363.1117 544.5,-363.1117 544.5,-344.1117 457.5,-344.1117"/>
<text text-anchor="middle" x="501" y="-351.1117" font-family="Helvetica,sans-Serif" font-size="10.00" fill="#000000">JS_IsException</text>
</a>
</g>
</g>
<!-- Node401185&#45;&gt;Node401236 -->
<g id="edge32" class="edge">
<title>Node401185&#45;&gt;Node401236</title>
<path fill="none" stroke="#191970" d="M96.6522,-382.0538C109.6731,-379.49 123.8693,-376.8194 137,-374.6117 203.385,-363.45 219.8459,-358.2897 287,-353.6117 341.5564,-349.8113 404.1263,-350.3813 447.4566,-351.5523"/>
<polygon fill="#191970" stroke="#191970" points="447.3955,-355.0519 457.4929,-351.8436 447.5987,-348.0549 447.3955,-355.0519"/>
</g>
<!-- Node401622 -->
<g id="node13" class="node">
<title>Node401622</title>
<g id="a_node13"><a xlink:href="quickjs_8c.html#a537e88d38784e3df2a19c72f8bd1d77e" target="_top" xlink:title="JS_ToInt64Clamp">
<polygon fill="none" stroke="#ff0000" points="613.5,-534.1117 613.5,-553.1117 711.5,-553.1117 711.5,-534.1117 613.5,-534.1117"/>
<text text-anchor="middle" x="662.5" y="-541.1117" font-family="Helvetica,sans-Serif" font-size="10.00" fill="#000000">JS_ToInt64Clamp</text>
</a>
</g>
</g>
<!-- Node401185&#45;&gt;Node401622 -->
<g id="edge36" class="edge">
<title>Node401185&#45;&gt;Node401622</title>
<path fill="none" stroke="#191970" d="M61.9878,-401.1989C77.823,-413.8873 107.7324,-436.0026 137,-447.6117 297.9035,-511.4345 503.518,-533.223 603.1179,-540.3444"/>
<polygon fill="#191970" stroke="#191970" points="603.0698,-543.8494 613.2872,-541.0466 603.552,-536.866 603.0698,-543.8494"/>
</g>
<!-- Node401624 -->
<g id="node14" class="node">
<title>Node401624</title>
<g id="a_node14"><a xlink:href="quickjs_8c.html#a7bb763b31e1c40a04aa0c1d5db0f1191" target="_top" xlink:title="JS_GetPropertyInt64">
<polygon fill="none" stroke="#000000" points="137,-249.1117 137,-268.1117 251,-268.1117 251,-249.1117 137,-249.1117"/>
<text text-anchor="middle" x="194" y="-256.1117" font-family="Helvetica,sans-Serif" font-size="10.00" fill="#000000">JS_GetPropertyInt64</text>
</a>
</g>
</g>
<!-- Node401185&#45;&gt;Node401624 -->
<g id="edge17" class="edge">
<title>Node401185&#45;&gt;Node401624</title>
<path fill="none" stroke="#191970" d="M60.8202,-382.0467C85.0071,-359.6295 145.5999,-303.4703 176.0056,-275.2895"/>
<polygon fill="#191970" stroke="#191970" points="178.431,-277.8136 183.3862,-268.4489 173.6727,-272.6796 178.431,-277.8136"/>
</g>
<!-- Node401567 -->
<g id="node21" class="node">
<title>Node401567</title>
<g id="a_node21"><a xlink:href="quickjs_8h.html#a93abffa925714e249a6aa2f4ae7900f6" target="_top" xlink:title="JS_NewBool">
<polygon fill="none" stroke="#000000" points="157,-173.1117 157,-192.1117 231,-192.1117 231,-173.1117 157,-173.1117"/>
<text text-anchor="middle" x="194" y="-180.1117" font-family="Helvetica,sans-Serif" font-size="10.00" fill="#000000">JS_NewBool</text>
</a>
</g>
</g>
<!-- Node401185&#45;&gt;Node401567 -->
<g id="edge33" class="edge">
<title>Node401185&#45;&gt;Node401567</title>
<path fill="none" stroke="#191970" d="M52.1441,-381.7012C57.8388,-350.4902 79.6105,-253.2464 137,-201.6117 140.1842,-198.7468 143.8134,-196.3122 147.6629,-194.2434"/>
<polygon fill="#191970" stroke="#191970" points="149.2688,-197.3586 156.9393,-190.0502 146.3854,-190.98 149.2688,-197.3586"/>
</g>
<!-- Node401407 -->
<g id="node22" class="node">
<title>Node401407</title>
<g id="a_node22"><a xlink:href="quickjs_8c.html#a6b7e8c810c238daa5ac20c70c2f22b24" target="_top" xlink:title="js_strict_eq2">
<polygon fill="none" stroke="#ff0000" points="623.5,-382.1117 623.5,-401.1117 701.5,-401.1117 701.5,-382.1117 623.5,-382.1117"/>
<text text-anchor="middle" x="662.5" y="-389.1117" font-family="Helvetica,sans-Serif" font-size="10.00" fill="#000000">js_strict_eq2</text>
</a>
</g>
</g>
<!-- Node401185&#45;&gt;Node401407 -->
<g id="edge34" class="edge">
<title>Node401185&#45;&gt;Node401407</title>
<path fill="none" stroke="#191970" d="M76.5977,-401.155C152.8422,-427.6322 381.3232,-496.9638 563,-448.6117 592.8946,-440.6555 623.1575,-421.3568 642.3271,-407.4167"/>
<polygon fill="#191970" stroke="#191970" points="644.643,-410.0553 650.5547,-401.2631 640.4504,-404.4497 644.643,-410.0553"/>
</g>
<!-- Node401457 -->
<g id="node23" class="node">
<title>Node401457</title>
<g id="a_node23"><a xlink:href="quickjs_8c.html#a710289a14c2810467e5b448d3c28bd55" target="_top" xlink:title="JS_ToObject">
<polygon fill="none" stroke="#ff0000" points="308.5,-401.1117 308.5,-420.1117 381.5,-420.1117 381.5,-401.1117 308.5,-401.1117"/>
<text text-anchor="middle" x="345" y="-408.1117" font-family="Helvetica,sans-Serif" font-size="10.00" fill="#000000">JS_ToObject</text>
</a>
</g>
</g>
<!-- Node401185&#45;&gt;Node401457 -->
<g id="edge37" class="edge">
<title>Node401185&#45;&gt;Node401457</title>
<path fill="none" stroke="#191970" d="M101.1264,-394.8779C156.4764,-398.4489 244.4374,-404.1238 298.2187,-407.5936"/>
<polygon fill="#191970" stroke="#191970" points="298.2949,-411.1057 308.4995,-408.2568 298.7456,-404.1202 298.2949,-411.1057"/>
</g>
<!-- Node401188 -->
<g id="node4" class="node">
<title>Node401188</title>
<g id="a_node4"><a xlink:href="quickjs_8c.html#aa059f309c30fd5166d16c82a97973146" target="_top" xlink:title="__JS_FreeValue">
<polygon fill="none" stroke="#000000" points="876,-230.1117 876,-249.1117 965,-249.1117 965,-230.1117 876,-230.1117"/>
<text text-anchor="middle" x="920.5" y="-237.1117" font-family="Helvetica,sans-Serif" font-size="10.00" fill="#000000">__JS_FreeValue</text>
</a>
</g>
</g>
<!-- Node401187&#45;&gt;Node401188 -->
<g id="edge3" class="edge">
<title>Node401187&#45;&gt;Node401188</title>
<path fill="none" stroke="#191970" d="M840.1288,-239.6117C848.3481,-239.6117 857.1608,-239.6117 865.8298,-239.6117"/>
<polygon fill="#191970" stroke="#191970" points="865.8964,-243.1118 875.8964,-239.6117 865.8964,-236.1118 865.8964,-243.1118"/>
</g>
<!-- Node401189 -->
<g id="node5" class="node">
<title>Node401189</title>
<g id="a_node5"><a xlink:href="quickjs_8c.html#ab1ea3fad7d138be12144a38be4d36423" target="_top" xlink:title="__JS_FreeValueRT">
<polygon fill="none" stroke="#ff0000" points="1001,-230.1117 1001,-249.1117 1102,-249.1117 1102,-230.1117 1001,-230.1117"/>
<text text-anchor="middle" x="1051.5" y="-237.1117" font-family="Helvetica,sans-Serif" font-size="10.00" fill="#000000">__JS_FreeValueRT</text>
</a>
</g>
</g>
<!-- Node401188&#45;&gt;Node401189 -->
<g id="edge4" class="edge">
<title>Node401188&#45;&gt;Node401189</title>
<path fill="none" stroke="#191970" d="M965.2164,-239.6117C973.3314,-239.6117 981.9213,-239.6117 990.4118,-239.6117"/>
<polygon fill="#191970" stroke="#191970" points="990.6806,-243.1118 1000.6806,-239.6117 990.6806,-236.1118 990.6806,-243.1118"/>
</g>
<!-- Node401227 -->
<g id="node8" class="node">
<title>Node401227</title>
<g id="a_node8"><a xlink:href="quickjs_8h.html#a89b7c8686c7eee70b86be722ee4730ad" target="_top" xlink:title="JS_GetProperty">
<polygon fill="none" stroke="#000000" points="456.5,-192.1117 456.5,-211.1117 545.5,-211.1117 545.5,-192.1117 456.5,-192.1117"/>
<text text-anchor="middle" x="501" y="-199.1117" font-family="Helvetica,sans-Serif" font-size="10.00" fill="#000000">JS_GetProperty</text>
</a>
</g>
</g>
<!-- Node401226&#45;&gt;Node401227 -->
<g id="edge7" class="edge">
<title>Node401226&#45;&gt;Node401227</title>
<path fill="none" stroke="#191970" d="M353.5915,-362.7719C365.5934,-348.73 387.6302,-321.8431 403,-296.6117 422.444,-264.692 410.7264,-245.0563 439,-220.6117 441.5123,-218.4396 444.2689,-216.5158 447.1802,-214.812"/>
<polygon fill="#191970" stroke="#191970" points="448.8598,-217.8863 456.2881,-210.3317 445.77,-211.6051 448.8598,-217.8863"/>
</g>
<!-- Node401226&#45;&gt;Node401236 -->
<g id="edge12" class="edge">
<title>Node401226&#45;&gt;Node401236</title>
<path fill="none" stroke="#191970" d="M392.2285,-366.8595C409.6263,-364.7406 429.4565,-362.3253 447.3778,-360.1426"/>
<polygon fill="#191970" stroke="#191970" points="447.8887,-363.6063 457.3922,-358.9229 447.0424,-356.6577 447.8887,-363.6063"/>
</g>
<!-- Node401621 -->
<g id="node12" class="node">
<title>Node401621</title>
<g id="a_node12"><a xlink:href="quickjs_8c.html#a07acd485a57197356906928a788a0644" target="_top" xlink:title="JS_ToLengthFree">
<polygon fill="none" stroke="#000000" points="453.5,-420.1117 453.5,-439.1117 548.5,-439.1117 548.5,-420.1117 453.5,-420.1117"/>
<text text-anchor="middle" x="501" y="-427.1117" font-family="Helvetica,sans-Serif" font-size="10.00" fill="#000000">JS_ToLengthFree</text>
</a>
</g>
</g>
<!-- Node401226&#45;&gt;Node401621 -->
<g id="edge13" class="edge">
<title>Node401226&#45;&gt;Node401621</title>
<path fill="none" stroke="#191970" d="M375.207,-382.1696C384.1853,-385.1013 394.0199,-388.4024 403,-391.6117 424.8032,-399.4038 449.0677,-408.8067 467.9976,-416.3095"/>
<polygon fill="#191970" stroke="#191970" points="466.7838,-419.5934 477.3692,-420.0412 469.3735,-413.09 466.7838,-419.5934"/>
</g>
<!-- Node401228 -->
<g id="node9" class="node">
<title>Node401228</title>
<g id="a_node9"><a xlink:href="quickjs_8c.html#a5762c57ae0c9937e986040c01222833a" target="_top" xlink:title="JS_GetPropertyInternal">
<polygon fill="none" stroke="#ff0000" points="599,-192.1117 599,-211.1117 726,-211.1117 726,-192.1117 599,-192.1117"/>
<text text-anchor="middle" x="662.5" y="-199.1117" font-family="Helvetica,sans-Serif" font-size="10.00" fill="#000000">JS_GetPropertyInternal</text>
</a>
</g>
</g>
<!-- Node401227&#45;&gt;Node401228 -->
<g id="edge8" class="edge">
<title>Node401227&#45;&gt;Node401228</title>
<path fill="none" stroke="#191970" d="M545.5581,-201.6117C558.9093,-201.6117 573.9249,-201.6117 588.6337,-201.6117"/>
<polygon fill="#191970" stroke="#191970" points="588.7434,-205.1118 598.7434,-201.6117 588.7433,-198.1118 588.7434,-205.1118"/>
</g>
<!-- Node401228&#45;&gt;Node401186 -->
<g id="edge9" class="edge">
<title>Node401228&#45;&gt;Node401186</title>
<path fill="none" stroke="#191970" d="M675.5783,-211.1224C689.9165,-222.201 712.6545,-241.7927 726,-263.6117 771.5071,-338.0126 791.5134,-442.3384 798.2215,-485.5998"/>
<polygon fill="#191970" stroke="#191970" points="794.7852,-486.289 799.7099,-495.6697 801.71,-485.2653 794.7852,-486.289"/>
</g>
<!-- Node401228&#45;&gt;Node401187 -->
<g id="edge10" class="edge">
<title>Node401228&#45;&gt;Node401187</title>
<path fill="none" stroke="#191970" d="M697.4494,-211.2007C715.3284,-216.1062 737.2884,-222.1313 756.3778,-227.3688"/>
<polygon fill="#191970" stroke="#191970" points="755.4921,-230.7551 766.0618,-230.0258 757.3443,-224.0045 755.4921,-230.7551"/>
</g>
<!-- Node401237 -->
<g id="node10" class="node">
<title>Node401237</title>
<g id="a_node10"><a xlink:href="quickjs_8h.html#a2050bc428da1c65ac7eb87c3fa3b0392" target="_top" xlink:title="JS_NewInt32">
<polygon fill="none" stroke="#000000" points="762.5,-97.1117 762.5,-116.1117 839.5,-116.1117 839.5,-97.1117 762.5,-97.1117"/>
<text text-anchor="middle" x="801" y="-104.1117" font-family="Helvetica,sans-Serif" font-size="10.00" fill="#000000">JS_NewInt32</text>
</a>
</g>
</g>
<!-- Node401228&#45;&gt;Node401237 -->
<g id="edge11" class="edge">
<title>Node401228&#45;&gt;Node401237</title>
<path fill="none" stroke="#191970" d="M676.5423,-191.9798C700.4955,-175.5498 749.4559,-141.9669 778.3144,-122.1722"/>
<polygon fill="#191970" stroke="#191970" points="780.6538,-124.8119 786.9205,-116.2691 776.6942,-119.0393 780.6538,-124.8119"/>
</g>
<!-- Node401621&#45;&gt;Node401187 -->
<g id="edge14" class="edge">
<title>Node401621&#45;&gt;Node401187</title>
<path fill="none" stroke="#191970" d="M532.3513,-420.0549C542.5143,-416.2927 553.5864,-411.4565 563,-405.6117 581.4398,-394.1625 581.8812,-385.9556 599,-372.6117 659.7035,-325.294 737.0418,-277.5488 776.0698,-254.2482"/>
<polygon fill="#191970" stroke="#191970" points="777.879,-257.2445 784.6893,-249.1285 774.3042,-251.2261 777.879,-257.2445"/>
</g>
<!-- Node401621&#45;&gt;Node401622 -->
<g id="edge15" class="edge">
<title>Node401621&#45;&gt;Node401622</title>
<path fill="none" stroke="#191970" d="M514.4916,-439.1352C542.3282,-458.7846 606.3622,-503.985 640.3576,-527.9818"/>
<polygon fill="#191970" stroke="#191970" points="638.5163,-530.9662 648.7044,-533.8737 642.5531,-525.2474 638.5163,-530.9662"/>
</g>
<!-- Node401622&#45;&gt;Node401186 -->
<g id="edge16" class="edge">
<title>Node401622&#45;&gt;Node401186</title>
<path fill="none" stroke="#191970" d="M697.4494,-534.0227C715.3284,-529.1173 737.2884,-523.0921 756.3778,-517.8546"/>
<polygon fill="#191970" stroke="#191970" points="757.3443,-521.2189 766.0618,-515.1976 755.4921,-514.4684 757.3443,-521.2189"/>
</g>
<!-- Node401624&#45;&gt;Node401227 -->
<g id="edge19" class="edge">
<title>Node401624&#45;&gt;Node401227</title>
<path fill="none" stroke="#191970" d="M245.3849,-249.0712C301.0999,-238.7267 389.6628,-222.2834 446.549,-211.7215"/>
<polygon fill="#191970" stroke="#191970" points="447.246,-215.152 456.4391,-209.8852 445.9681,-208.2696 447.246,-215.152"/>
</g>
<!-- Node401624&#45;&gt;Node401237 -->
<g id="edge31" class="edge">
<title>Node401624&#45;&gt;Node401237</title>
<path fill="none" stroke="#191970" d="M238.6088,-249.0875C243.2603,-246.6201 247.542,-243.5161 251,-239.6117 304.2257,-179.5162 230.4299,-119.5702 287,-62.6117 421.9118,73.2265 689.8985,-48.4653 774.6578,-92.3199"/>
<polygon fill="#191970" stroke="#191970" points="773.1418,-95.4769 783.623,-97.0243 776.3944,-89.2785 773.1418,-95.4769"/>
</g>
<!-- Node401209 -->
<g id="node15" class="node">
<title>Node401209</title>
<g id="a_node15"><a xlink:href="quickjs_8c.html#ab7fc45a99935a1c0ba50b0216d9401a9" target="_top" xlink:title="JS_FreeAtom">
<polygon fill="none" stroke="#ff0000" points="462.5,-40.1117 462.5,-59.1117 539.5,-59.1117 539.5,-40.1117 462.5,-40.1117"/>
<text text-anchor="middle" x="501" y="-47.1117" font-family="Helvetica,sans-Serif" font-size="10.00" fill="#000000">JS_FreeAtom</text>
</a>
</g>
</g>
<!-- Node401624&#45;&gt;Node401209 -->
<g id="edge18" class="edge">
<title>Node401624&#45;&gt;Node401209</title>
<path fill="none" stroke="#191970" d="M237.6515,-249.0095C242.5841,-246.5568 247.1951,-243.4775 251,-239.6117 288.2713,-201.7441 250.0996,-163.8409 287,-125.6117 330.9682,-80.0603 403.9765,-61.7515 452.2942,-54.4313"/>
<polygon fill="#191970" stroke="#191970" points="452.7986,-57.8949 462.2106,-53.0302 451.8192,-50.9637 452.7986,-57.8949"/>
</g>
<!-- Node401312 -->
<g id="node16" class="node">
<title>Node401312</title>
<g id="a_node16"><a xlink:href="quickjs_8c.html#a90d6e607f6917d817c1e997bd2e6ed07" target="_top" xlink:title="JS_GetPropertyValue">
<polygon fill="none" stroke="#ff0000" points="287,-135.1117 287,-154.1117 403,-154.1117 403,-135.1117 287,-135.1117"/>
<text text-anchor="middle" x="345" y="-142.1117" font-family="Helvetica,sans-Serif" font-size="10.00" fill="#000000">JS_GetPropertyValue</text>
</a>
</g>
</g>
<!-- Node401624&#45;&gt;Node401312 -->
<g id="edge20" class="edge">
<title>Node401624&#45;&gt;Node401312</title>
<path fill="none" stroke="#191970" d="M231.0249,-249.0916C237.9291,-246.5437 244.8875,-243.4118 251,-239.6117 260.0236,-234.0018 304.2603,-187.7816 328.6981,-161.939"/>
<polygon fill="#191970" stroke="#191970" points="331.5495,-164.0171 335.8671,-154.3419 326.4583,-159.2129 331.5495,-164.0171"/>
</g>
<!-- Node401625 -->
<g id="node17" class="node">
<title>Node401625</title>
<g id="a_node17"><a xlink:href="quickjs_8c.html#aa641af3a921335927dab07dc83285917" target="_top" xlink:title="JS_NewAtomInt64">
<polygon fill="none" stroke="#000000" points="293,-268.1117 293,-287.1117 397,-287.1117 397,-268.1117 293,-268.1117"/>
<text text-anchor="middle" x="345" y="-275.1117" font-family="Helvetica,sans-Serif" font-size="10.00" fill="#000000">JS_NewAtomInt64</text>
</a>
</g>
</g>
<!-- Node401624&#45;&gt;Node401625 -->
<g id="edge26" class="edge">
<title>Node401624&#45;&gt;Node401625</title>
<path fill="none" stroke="#191970" d="M251.0866,-265.7948C261.4662,-267.1008 272.3402,-268.4691 282.8571,-269.7924"/>
<polygon fill="#191970" stroke="#191970" points="282.4443,-273.268 292.8031,-271.0439 283.3183,-266.3227 282.4443,-273.268"/>
</g>
<!-- Node401312&#45;&gt;Node401186 -->
<g id="edge21" class="edge">
<title>Node401312&#45;&gt;Node401186</title>
<path fill="none" stroke="#191970" d="M403.2234,-150.2824C458.2974,-156.4405 536.3683,-167.4638 563,-182.6117 575.0889,-189.4878 718.0184,-361.2224 726,-372.6117 752.9952,-411.1325 778.601,-460.1522 791.7737,-486.609"/>
<polygon fill="#191970" stroke="#191970" points="788.7787,-488.4496 796.3363,-495.8748 795.0586,-485.3572 788.7787,-488.4496"/>
</g>
<!-- Node401312&#45;&gt;Node401187 -->
<g id="edge23" class="edge">
<title>Node401312&#45;&gt;Node401187</title>
<path fill="none" stroke="#191970" d="M403.1274,-139.2376C480.4894,-134.5136 619.8589,-134.598 726,-182.6117 747.9229,-192.5287 769.4189,-209.8734 783.7378,-222.8328"/>
<polygon fill="#191970" stroke="#191970" points="781.5857,-225.6113 791.2882,-229.8671 786.3573,-220.4896 781.5857,-225.6113"/>
</g>
<!-- Node401312&#45;&gt;Node401227 -->
<g id="edge24" class="edge">
<title>Node401312&#45;&gt;Node401227</title>
<path fill="none" stroke="#191970" d="M371.1109,-154.1522C396.8705,-163.5644 436.4483,-178.0255 465.147,-188.5116"/>
<polygon fill="#191970" stroke="#191970" points="464.2101,-191.8955 474.8039,-192.0401 466.6125,-185.3206 464.2101,-191.8955"/>
</g>
<!-- Node401312&#45;&gt;Node401237 -->
<g id="edge25" class="edge">
<title>Node401312&#45;&gt;Node401237</title>
<path fill="none" stroke="#191970" d="M366.1201,-134.9734C384.8298,-126.9796 413.1151,-116.2075 439,-111.6117 549.5165,-91.9897 682.0027,-97.3107 752.0265,-102.3235"/>
<polygon fill="#191970" stroke="#191970" points="752.0727,-105.8365 762.3052,-103.0896 752.5931,-98.8559 752.0727,-105.8365"/>
</g>
<!-- Node401312&#45;&gt;Node401209 -->
<g id="edge22" class="edge">
<title>Node401312&#45;&gt;Node401209</title>
<path fill="none" stroke="#191970" d="M358.4266,-134.793C370.2242,-126.1334 387.8264,-113.1348 403,-101.6117 419.1426,-89.3527 421.3612,-83.5986 439,-73.6117 446.0622,-69.6132 453.9221,-66.0006 461.6088,-62.8636"/>
<polygon fill="#191970" stroke="#191970" points="463.1221,-66.0308 471.1796,-59.1512 460.5906,-59.5045 463.1221,-66.0308"/>
</g>
<!-- Node401625&#45;&gt;Node401236 -->
<g id="edge29" class="edge">
<title>Node401625&#45;&gt;Node401236</title>
<path fill="none" stroke="#191970" d="M358.4267,-287.2304C376.1598,-299.5804 408.6943,-321.0332 439,-334.6117 444.0085,-336.8558 449.3578,-338.9342 454.7365,-340.8286"/>
<polygon fill="#191970" stroke="#191970" points="453.7891,-344.202 464.3826,-344.036 455.9978,-337.5595 453.7891,-344.202"/>
</g>
<!-- Node401290 -->
<g id="node18" class="node">
<title>Node401290</title>
<g id="a_node18"><a xlink:href="quickjs_8c.html#a877fcb7651d95b411ce70e62b7f4a1f0" target="_top" xlink:title="__JS_AtomFromUInt32">
<polygon fill="none" stroke="#000000" points="439,-268.1117 439,-287.1117 563,-287.1117 563,-268.1117 439,-268.1117"/>
<text text-anchor="middle" x="501" y="-275.1117" font-family="Helvetica,sans-Serif" font-size="10.00" fill="#000000">__JS_AtomFromUInt32</text>
</a>
</g>
</g>
<!-- Node401625&#45;&gt;Node401290 -->
<g id="edge27" class="edge">
<title>Node401625&#45;&gt;Node401290</title>
<path fill="none" stroke="#191970" d="M397.3797,-277.6117C407.4414,-277.6117 418.1429,-277.6117 428.7042,-277.6117"/>
<polygon fill="#191970" stroke="#191970" points="428.7615,-281.1118 438.7615,-277.6117 428.7615,-274.1118 428.7615,-281.1118"/>
</g>
<!-- Node401316 -->
<g id="node19" class="node">
<title>Node401316</title>
<g id="a_node19"><a xlink:href="quickjs_8c.html#acd08798ec15cc37c60d2e7d70007c6a8" target="_top" xlink:title="__JS_NewAtom">
<polygon fill="none" stroke="#ff0000" points="456.5,-230.1117 456.5,-249.1117 545.5,-249.1117 545.5,-230.1117 456.5,-230.1117"/>
<text text-anchor="middle" x="501" y="-237.1117" font-family="Helvetica,sans-Serif" font-size="10.00" fill="#000000">__JS_NewAtom</text>
</a>
</g>
</g>
<!-- Node401625&#45;&gt;Node401316 -->
<g id="edge28" class="edge">
<title>Node401625&#45;&gt;Node401316</title>
<path fill="none" stroke="#191970" d="M384.3654,-268.0227C404.9513,-263.0082 430.3405,-256.8236 452.169,-251.5064"/>
<polygon fill="#191970" stroke="#191970" points="453.0302,-254.8991 461.9177,-249.1318 451.3734,-248.098 453.0302,-254.8991"/>
</g>
<!-- Node401263 -->
<g id="node20" class="node">
<title>Node401263</title>
<g id="a_node20"><a xlink:href="quickjs_8c.html#a0ee6a3654a6016393fac5e1c108f403a" target="_top" xlink:title="JS_NewString">
<polygon fill="none" stroke="#ff0000" points="460.5,-306.1117 460.5,-325.1117 541.5,-325.1117 541.5,-306.1117 460.5,-306.1117"/>
<text text-anchor="middle" x="501" y="-313.1117" font-family="Helvetica,sans-Serif" font-size="10.00" fill="#000000">JS_NewString</text>
</a>
</g>
</g>
<!-- Node401625&#45;&gt;Node401263 -->
<g id="edge30" class="edge">
<title>Node401625&#45;&gt;Node401263</title>
<path fill="none" stroke="#191970" d="M384.3654,-287.2007C404.9513,-292.2152 430.3405,-298.3998 452.169,-303.717"/>
<polygon fill="#191970" stroke="#191970" points="451.3734,-307.1255 461.9177,-306.0917 453.0302,-300.3243 451.3734,-307.1255"/>
</g>
<!-- Node401407&#45;&gt;Node401187 -->
<g id="edge35" class="edge">
<title>Node401407&#45;&gt;Node401187</title>
<path fill="none" stroke="#191970" d="M671.1638,-382.1034C693.9962,-357.0455 756.0645,-288.9272 785.3308,-256.8082"/>
<polygon fill="#191970" stroke="#191970" points="788.1914,-258.8654 792.3395,-249.1164 783.0172,-254.1508 788.1914,-258.8654"/>
</g>
<!-- Node401457&#45;&gt;Node401186 -->
<g id="edge38" class="edge">
<title>Node401457&#45;&gt;Node401186</title>
<path fill="none" stroke="#191970" d="M364.71,-420.1218C383.4194,-428.7751 412.5362,-441.2827 439,-448.6117 548.6413,-478.9762 681.7391,-494.7323 752.0271,-501.4727"/>
<polygon fill="#191970" stroke="#191970" points="752.0604,-504.9911 762.3435,-502.4403 752.7141,-498.0217 752.0604,-504.9911"/>
</g>
<!-- Node401457&#45;&gt;Node401237 -->
<g id="edge40" class="edge">
<title>Node401457&#45;&gt;Node401237</title>
<path fill="none" stroke="#191970" d="M381.5092,-409.1477C436.7715,-406.1494 537.8934,-397.3525 563,-372.6117 624.2179,-312.2857 543.6909,-248.3974 599,-182.6117 637.2213,-137.1506 705.5555,-118.8495 752.0579,-111.5036"/>
<polygon fill="#191970" stroke="#191970" points="752.8239,-114.9289 762.2118,-110.0179 751.8104,-108.0027 752.8239,-114.9289"/>
</g>
<!-- Node401457&#45;&gt;Node401236 -->
<g id="edge39" class="edge">
<title>Node401457&#45;&gt;Node401236</title>
<path fill="none" stroke="#191970" d="M375.209,-401.0594C384.1874,-398.1279 394.0215,-394.8255 403,-391.6117 419.1631,-385.8263 422.9952,-383.8215 439,-377.6117 448.0087,-374.1164 457.7559,-370.3405 466.7951,-366.8413"/>
<polygon fill="#191970" stroke="#191970" points="468.1946,-370.0528 476.2573,-363.1794 465.6681,-363.5246 468.1946,-370.0528"/>
</g>
</g>
</svg>
