<?xml version="1.0" encoding="UTF-8" standalone="no"?>
<!DOCTYPE svg PUBLIC "-//W3C//DTD SVG 1.1//EN"
 "http://www.w3.org/Graphics/SVG/1.1/DTD/svg11.dtd">
<!-- Generated by graphviz version 2.40.1 (20161225.0304)
 -->
<!-- Title: JS_AutoInitProperty Pages: 1 -->
<!--zoomable 558 -->
<svg id="main" version="1.1" xmlns="http://www.w3.org/2000/svg" xmlns:xlink="http://www.w3.org/1999/xlink" xml:space="preserve" onload="init(evt)">
<style type="text/css"><![CDATA[
.edge:hover path { stroke: red; }
.edge:hover polygon { stroke: red; fill: red; }
]]></style>
<script type="text/javascript"><![CDATA[
var edges = document.getElementsByTagName('g');
if (edges && edges.length) {
  for (var i=0;i<edges.length;i++) {
    if (edges[i].id.substr(0,4)=='edge') {
      edges[i].setAttribute('class','edge');
    }
  }
}
]]></script>
        <defs>
                <circle id="rim" cx="0" cy="0" r="7"/>
                <circle id="rim2" cx="0" cy="0" r="3.5"/>
                <g id="zoomPlus">
                        <use xlink:href="#rim" fill="#404040">
                                <set attributeName="fill" to="#808080" begin="zoomplus.mouseover" end="zoomplus.mouseout"/>
                        </use>
                        <path d="M-4,0h8M0,-4v8" fill="none" stroke="white" stroke-width="1.5" pointer-events="none"/>
                </g>
                <g id="zoomMin">
                        <use xlink:href="#rim" fill="#404040">
                                <set attributeName="fill" to="#808080" begin="zoomminus.mouseover" end="zoomminus.mouseout"/>
                        </use>
                        <path d="M-4,0h8" fill="none" stroke="white" stroke-width="1.5" pointer-events="none"/>
                </g>
                <g id="dirArrow">
                        <path fill="none" stroke="white" stroke-width="1.5" d="M0,-3.0v7 M-2.5,-0.5L0,-3.0L2.5,-0.5"/>
                </g>
               <g id="resetDef">
                       <use xlink:href="#rim2" fill="#404040">
                               <set attributeName="fill" to="#808080" begin="reset.mouseover" end="reset.mouseout"/>
                       </use>
               </g>
        </defs>

<script type="text/javascript">
var viewWidth = 734;
var viewHeight = 558;
var sectionId = 'dynsection-541';
</script>
<script xlink:href="svgpan.js"/>
<svg id="graph" class="graph">
<g id="viewport">
<title>JS_AutoInitProperty</title>
<!-- Node182078 -->
<g id="node1" class="node">
<title>Node182078</title>
<polygon fill="#bfbfbf" stroke="#000000" points="0,-378.1832 0,-397.1832 110,-397.1832 110,-378.1832 0,-378.1832"/>
<text text-anchor="middle" x="55" y="-385.1832" font-family="Helvetica,sans-Serif" font-size="10.00" fill="#000000">JS_AutoInitProperty</text>
</g>
<!-- Node182079 -->
<g id="node2" class="node">
<title>Node182079</title>
<g id="a_node2"><a xlink:href="quickjs_8c.html#af2bcf1faee5b5dd948692540d9cce73e" target="_top" xlink:title="js_autoinit_free">
<polygon fill="none" stroke="#000000" points="170.5,-416.1832 170.5,-435.1832 262.5,-435.1832 262.5,-416.1832 170.5,-416.1832"/>
<text text-anchor="middle" x="216.5" y="-423.1832" font-family="Helvetica,sans-Serif" font-size="10.00" fill="#000000">js_autoinit_free</text>
</a>
</g>
</g>
<!-- Node182078&#45;&gt;Node182079 -->
<g id="edge1" class="edge">
<title>Node182078&#45;&gt;Node182079</title>
<path fill="none" stroke="#191970" d="M95.7533,-397.2722C117.1609,-402.3093 143.5862,-408.527 166.2525,-413.8603"/>
<polygon fill="#191970" stroke="#191970" points="165.5039,-417.2796 176.0398,-416.1632 167.1073,-410.4657 165.5039,-417.2796"/>
</g>
<!-- Node182080 -->
<g id="node3" class="node">
<title>Node182080</title>
<g id="a_node3"><a xlink:href="quickjs_8c.html#ab47c18f4aa00970629cc8e69fe2fdb51" target="_top" xlink:title="js_autoinit_get_realm">
<polygon fill="none" stroke="#000000" points="323.5,-454.1832 323.5,-473.1832 445.5,-473.1832 445.5,-454.1832 323.5,-454.1832"/>
<text text-anchor="middle" x="384.5" y="-461.1832" font-family="Helvetica,sans-Serif" font-size="10.00" fill="#000000">js_autoinit_get_realm</text>
</a>
</g>
</g>
<!-- Node182078&#45;&gt;Node182080 -->
<g id="edge13" class="edge">
<title>Node182078&#45;&gt;Node182080</title>
<path fill="none" stroke="#191970" d="M66.1474,-397.2064C82.452,-410.5098 114.32,-434.2009 146,-444.6832 200.2117,-462.6208 264.9758,-466.7725 313.3262,-466.7716"/>
<polygon fill="#191970" stroke="#191970" points="313.4058,-470.2713 323.3848,-466.7119 313.3642,-463.2714 313.4058,-470.2713"/>
</g>
<!-- Node182117 -->
<g id="node12" class="node">
<title>Node182117</title>
<g id="a_node12"><a xlink:href="quickjs_8c.html#a822a6c16ff56aeab5fa7e87a076c6b06" target="_top" xlink:title="js_autoinit_get_id">
<polygon fill="none" stroke="#000000" points="165,-378.1832 165,-397.1832 268,-397.1832 268,-378.1832 165,-378.1832"/>
<text text-anchor="middle" x="216.5" y="-385.1832" font-family="Helvetica,sans-Serif" font-size="10.00" fill="#000000">js_autoinit_get_id</text>
</a>
</g>
</g>
<!-- Node182078&#45;&gt;Node182117 -->
<g id="edge12" class="edge">
<title>Node182078&#45;&gt;Node182117</title>
<path fill="none" stroke="#191970" d="M110.1274,-387.6832C124.5308,-387.6832 140.1476,-387.6832 154.8654,-387.6832"/>
<polygon fill="#191970" stroke="#191970" points="154.8852,-391.1833 164.8852,-387.6832 154.8851,-384.1833 154.8852,-391.1833"/>
</g>
<!-- Node182118 -->
<g id="node13" class="node">
<title>Node182118</title>
<g id="a_node13"><a xlink:href="quickjs_8h.html#ad80a83d73e9b7d872b88fbf2943aebe9" target="_top" xlink:title="JS_IsException">
<polygon fill="none" stroke="#000000" points="173,-340.1832 173,-359.1832 260,-359.1832 260,-340.1832 173,-340.1832"/>
<text text-anchor="middle" x="216.5" y="-347.1832" font-family="Helvetica,sans-Serif" font-size="10.00" fill="#000000">JS_IsException</text>
</a>
</g>
</g>
<!-- Node182078&#45;&gt;Node182118 -->
<g id="edge14" class="edge">
<title>Node182078&#45;&gt;Node182118</title>
<path fill="none" stroke="#191970" d="M95.7533,-378.0942C117.1609,-373.0571 143.5862,-366.8394 166.2525,-361.5061"/>
<polygon fill="#191970" stroke="#191970" points="167.1073,-364.9007 176.0398,-359.2033 165.5039,-358.0868 167.1073,-364.9007"/>
</g>
<!-- Node182119 -->
<g id="node14" class="node">
<title>Node182119</title>
<g id="a_node14"><a xlink:href="quickjs_8c.html#a3dd8e78607dbc729614deacf55901b95" target="_top" xlink:title="js_shape_prepare_update">
<polygon fill="none" stroke="#000000" points="146,-103.1832 146,-122.1832 287,-122.1832 287,-103.1832 146,-103.1832"/>
<text text-anchor="middle" x="216.5" y="-110.1832" font-family="Helvetica,sans-Serif" font-size="10.00" fill="#000000">js_shape_prepare_update</text>
</a>
</g>
</g>
<!-- Node182078&#45;&gt;Node182119 -->
<g id="edge15" class="edge">
<title>Node182078&#45;&gt;Node182119</title>
<path fill="none" stroke="#191970" d="M60.7479,-377.8958C84.3933,-337.6327 174.3823,-184.4007 205.6877,-131.0942"/>
<polygon fill="#191970" stroke="#191970" points="208.775,-132.7487 210.821,-122.3533 202.7389,-129.2039 208.775,-132.7487"/>
</g>
<!-- Node182079&#45;&gt;Node182080 -->
<g id="edge2" class="edge">
<title>Node182079&#45;&gt;Node182080</title>
<path fill="none" stroke="#191970" d="M258.8935,-435.2722C281.2626,-440.3319 308.8982,-446.5828 332.5472,-451.932"/>
<polygon fill="#191970" stroke="#191970" points="331.8856,-455.3707 342.4114,-454.1632 333.4299,-448.5431 331.8856,-455.3707"/>
</g>
<!-- Node182081 -->
<g id="node4" class="node">
<title>Node182081</title>
<g id="a_node4"><a xlink:href="quickjs_8c.html#a1b4fe6eb1b7bcaec6713bd5ac2921f1b" target="_top" xlink:title="JS_FreeContext">
<polygon fill="none" stroke="#000000" points="340,-416.1832 340,-435.1832 429,-435.1832 429,-416.1832 340,-416.1832"/>
<text text-anchor="middle" x="384.5" y="-423.1832" font-family="Helvetica,sans-Serif" font-size="10.00" fill="#000000">JS_FreeContext</text>
</a>
</g>
</g>
<!-- Node182079&#45;&gt;Node182081 -->
<g id="edge3" class="edge">
<title>Node182079&#45;&gt;Node182081</title>
<path fill="none" stroke="#191970" d="M262.8515,-425.6832C283.5611,-425.6832 308.1201,-425.6832 329.7304,-425.6832"/>
<polygon fill="#191970" stroke="#191970" points="329.7489,-429.1833 339.7489,-425.6832 329.7488,-422.1833 329.7489,-429.1833"/>
</g>
<!-- Node182082 -->
<g id="node5" class="node">
<title>Node182082</title>
<g id="a_node5"><a xlink:href="quickjs_8c.html#adcabee55726eddca24893a78515c7ba2" target="_top" xlink:title="js_free_modules">
<polygon fill="none" stroke="#ff0000" points="495.5,-416.1832 495.5,-435.1832 592.5,-435.1832 592.5,-416.1832 495.5,-416.1832"/>
<text text-anchor="middle" x="544" y="-423.1832" font-family="Helvetica,sans-Serif" font-size="10.00" fill="#000000">js_free_modules</text>
</a>
</g>
</g>
<!-- Node182081&#45;&gt;Node182082 -->
<g id="edge4" class="edge">
<title>Node182081&#45;&gt;Node182082</title>
<path fill="none" stroke="#191970" d="M429.3541,-425.6832C446.691,-425.6832 466.7685,-425.6832 485.2311,-425.6832"/>
<polygon fill="#191970" stroke="#191970" points="485.2942,-429.1833 495.2942,-425.6832 485.2942,-422.1833 485.2942,-429.1833"/>
</g>
<!-- Node182085 -->
<g id="node6" class="node">
<title>Node182085</title>
<g id="a_node6"><a xlink:href="quickjs_8c.html#a69e19dda8a93d613203e0baa06f0ed8d" target="_top" xlink:title="js_free_rt">
<polygon fill="none" stroke="#000000" points="513,-378.1832 513,-397.1832 575,-397.1832 575,-378.1832 513,-378.1832"/>
<text text-anchor="middle" x="544" y="-385.1832" font-family="Helvetica,sans-Serif" font-size="10.00" fill="#000000">js_free_rt</text>
</a>
</g>
</g>
<!-- Node182081&#45;&gt;Node182085 -->
<g id="edge5" class="edge">
<title>Node182081&#45;&gt;Node182085</title>
<path fill="none" stroke="#191970" d="M424.7486,-416.0942C448.6507,-410.3996 478.8863,-403.1962 502.9313,-397.4676"/>
<polygon fill="#191970" stroke="#191970" points="503.9042,-400.8339 512.8207,-395.1115 502.2818,-394.0244 503.9042,-400.8339"/>
</g>
<!-- Node182116 -->
<g id="node7" class="node">
<title>Node182116</title>
<g id="a_node7"><a xlink:href="quickjs_8c.html#a8a02cfc587edc36995bda62a0160269c" target="_top" xlink:title="js_free_shape_null">
<polygon fill="none" stroke="#000000" points="490.5,-340.1832 490.5,-359.1832 597.5,-359.1832 597.5,-340.1832 490.5,-340.1832"/>
<text text-anchor="middle" x="544" y="-347.1832" font-family="Helvetica,sans-Serif" font-size="10.00" fill="#000000">js_free_shape_null</text>
</a>
</g>
</g>
<!-- Node182081&#45;&gt;Node182116 -->
<g id="edge6" class="edge">
<title>Node182081&#45;&gt;Node182116</title>
<path fill="none" stroke="#191970" d="M398.4846,-416.1018C416.9406,-403.7919 450.7542,-382.3826 482,-368.6832 487.0908,-366.4512 492.5243,-364.3734 497.9788,-362.4733"/>
<polygon fill="#191970" stroke="#191970" points="499.3498,-365.7066 507.7502,-359.2502 497.1571,-359.0589 499.3498,-365.7066"/>
</g>
<!-- Node182114 -->
<g id="node9" class="node">
<title>Node182114</title>
<g id="a_node9"><a xlink:href="quickjs_8h.html#afaa20c47565bc704c6c85f3d77254e7d" target="_top" xlink:title="JS_FreeValue">
<polygon fill="none" stroke="#ff0000" points="505,-530.1832 505,-549.1832 583,-549.1832 583,-530.1832 505,-530.1832"/>
<text text-anchor="middle" x="544" y="-537.1832" font-family="Helvetica,sans-Serif" font-size="10.00" fill="#000000">JS_FreeValue</text>
</a>
</g>
</g>
<!-- Node182081&#45;&gt;Node182114 -->
<g id="edge8" class="edge">
<title>Node182081&#45;&gt;Node182114</title>
<path fill="none" stroke="#191970" d="M429.0678,-434.7007C435.1786,-437.2445 441.0451,-440.5048 446,-444.6832 473.0469,-467.4916 455.7642,-491.9464 482,-515.6832 486.4413,-519.7015 491.6295,-523.0768 497.0793,-525.9048"/>
<polygon fill="#191970" stroke="#191970" points="495.8617,-529.1964 506.4122,-530.1642 498.768,-522.8282 495.8617,-529.1964"/>
</g>
<!-- Node182101 -->
<g id="node10" class="node">
<title>Node182101</title>
<g id="a_node10"><a xlink:href="list_8h.html#ab60d5d18869ebeb5d6ab694289576fa7" target="_top" xlink:title="list_del">
<polygon fill="none" stroke="#000000" points="658,-473.1832 658,-492.1832 710,-492.1832 710,-473.1832 658,-473.1832"/>
<text text-anchor="middle" x="684" y="-480.1832" font-family="Helvetica,sans-Serif" font-size="10.00" fill="#000000">list_del</text>
</a>
</g>
</g>
<!-- Node182081&#45;&gt;Node182101 -->
<g id="edge9" class="edge">
<title>Node182081&#45;&gt;Node182101</title>
<path fill="none" stroke="#191970" d="M425.8161,-435.228C432.8291,-437.7373 439.8305,-440.8493 446,-444.6832 465.7598,-456.9626 460.6287,-473.4907 482,-482.6832 536.0519,-505.9326 606.0208,-498.7069 647.8252,-490.966"/>
<polygon fill="#191970" stroke="#191970" points="648.6807,-494.3649 657.8198,-489.0051 647.333,-487.4959 648.6807,-494.3649"/>
</g>
<!-- Node182100 -->
<g id="node11" class="node">
<title>Node182100</title>
<g id="a_node11"><a xlink:href="quickjs_8c.html#adfb3133f30938e2db9b525ade5fc09cf" target="_top" xlink:title="remove_gc_object">
<polygon fill="none" stroke="#000000" points="491,-454.1832 491,-473.1832 597,-473.1832 597,-454.1832 491,-454.1832"/>
<text text-anchor="middle" x="544" y="-461.1832" font-family="Helvetica,sans-Serif" font-size="10.00" fill="#000000">remove_gc_object</text>
</a>
</g>
</g>
<!-- Node182081&#45;&gt;Node182100 -->
<g id="edge10" class="edge">
<title>Node182081&#45;&gt;Node182100</title>
<path fill="none" stroke="#191970" d="M424.7486,-435.2722C445.7963,-440.2867 471.7552,-446.4713 494.0734,-451.7885"/>
<polygon fill="#191970" stroke="#191970" points="493.5019,-455.2502 504.0408,-454.1632 495.1243,-448.4408 493.5019,-455.2502"/>
</g>
<!-- Node182105 -->
<g id="node8" class="node">
<title>Node182105</title>
<g id="a_node8"><a xlink:href="quickjs_8c.html#a3a9f27520d96cf58aa5bd7359e9cddee" target="_top" xlink:title="js_free_shape">
<polygon fill="none" stroke="#ff0000" points="642,-169.1832 642,-188.1832 726,-188.1832 726,-169.1832 642,-169.1832"/>
<text text-anchor="middle" x="684" y="-176.1832" font-family="Helvetica,sans-Serif" font-size="10.00" fill="#000000">js_free_shape</text>
</a>
</g>
</g>
<!-- Node182116&#45;&gt;Node182105 -->
<g id="edge7" class="edge">
<title>Node182116&#45;&gt;Node182105</title>
<path fill="none" stroke="#191970" d="M590.1811,-340.1521C595.8851,-337.6873 601.3386,-334.5857 606,-330.6832 648.3152,-295.2565 670.3238,-231.0328 679.1908,-198.586"/>
<polygon fill="#191970" stroke="#191970" points="682.6752,-199.0915 681.7909,-188.5336 675.8982,-197.3385 682.6752,-199.0915"/>
</g>
<!-- Node182100&#45;&gt;Node182101 -->
<g id="edge11" class="edge">
<title>Node182100&#45;&gt;Node182101</title>
<path fill="none" stroke="#191970" d="M597.3274,-470.9205C614.1536,-473.2041 632.3446,-475.6728 647.6959,-477.7562"/>
<polygon fill="#191970" stroke="#191970" points="647.4386,-481.2533 657.8185,-479.13 648.38,-474.3169 647.4386,-481.2533"/>
</g>
<!-- Node182119&#45;&gt;Node182105 -->
<g id="edge26" class="edge">
<title>Node182119&#45;&gt;Node182105</title>
<path fill="none" stroke="#191970" d="M230.085,-103.1048C282.6602,-67.3136 476.2809,52.5521 606,-26.6832 653.7568,-55.8541 673.4872,-124.5887 680.5622,-158.7254"/>
<polygon fill="#191970" stroke="#191970" points="677.1854,-159.7025 682.4985,-168.8688 684.0612,-158.3898 677.1854,-159.7025"/>
</g>
<!-- Node182104 -->
<g id="node15" class="node">
<title>Node182104</title>
<g id="a_node15"><a xlink:href="quickjs_8c.html#a643df594b75933007bcdbb071b5ea8c5" target="_top" xlink:title="get_shape_prop">
<polygon fill="none" stroke="#000000" points="497,-36.1832 497,-55.1832 591,-55.1832 591,-36.1832 497,-36.1832"/>
<text text-anchor="middle" x="544" y="-43.1832" font-family="Helvetica,sans-Serif" font-size="10.00" fill="#000000">get_shape_prop</text>
</a>
</g>
</g>
<!-- Node182119&#45;&gt;Node182104 -->
<g id="edge16" class="edge">
<title>Node182119&#45;&gt;Node182104</title>
<path fill="none" stroke="#191970" d="M263.075,-103.1549C322.1638,-91.0665 423.9997,-70.2329 487.4752,-57.2471"/>
<polygon fill="#191970" stroke="#191970" points="488.2253,-60.6662 497.3209,-55.2328 486.8223,-53.8082 488.2253,-60.6662"/>
</g>
<!-- Node182120 -->
<g id="node16" class="node">
<title>Node182120</title>
<g id="a_node16"><a xlink:href="quickjs_8c.html#a8e34657169da77ae6a386311351ed3de" target="_top" xlink:title="js_clone_shape">
<polygon fill="none" stroke="#000000" points="339,-150.1832 339,-169.1832 430,-169.1832 430,-150.1832 339,-150.1832"/>
<text text-anchor="middle" x="384.5" y="-157.1832" font-family="Helvetica,sans-Serif" font-size="10.00" fill="#000000">js_clone_shape</text>
</a>
</g>
</g>
<!-- Node182119&#45;&gt;Node182120 -->
<g id="edge17" class="edge">
<title>Node182119&#45;&gt;Node182120</title>
<path fill="none" stroke="#191970" d="M250.4973,-122.1944C276.3712,-129.4329 312.1966,-139.4555 340.2955,-147.3165"/>
<polygon fill="#191970" stroke="#191970" points="339.6921,-150.782 350.2654,-150.1057 341.5781,-144.0408 339.6921,-150.782"/>
</g>
<!-- Node182109 -->
<g id="node24" class="node">
<title>Node182109</title>
<g id="a_node24"><a xlink:href="quickjs_8c.html#ae5e76f4be6214208cc91f10a192fc810" target="_top" xlink:title="js_shape_hash_unlink">
<polygon fill="none" stroke="#ff0000" points="323,-103.1832 323,-122.1832 446,-122.1832 446,-103.1832 323,-103.1832"/>
<text text-anchor="middle" x="384.5" y="-110.1832" font-family="Helvetica,sans-Serif" font-size="10.00" fill="#000000">js_shape_hash_unlink</text>
</a>
</g>
</g>
<!-- Node182119&#45;&gt;Node182109 -->
<g id="edge27" class="edge">
<title>Node182119&#45;&gt;Node182109</title>
<path fill="none" stroke="#191970" d="M287.2602,-112.6832C295.6756,-112.6832 304.2728,-112.6832 312.7025,-112.6832"/>
<polygon fill="#191970" stroke="#191970" points="312.8784,-116.1833 322.8783,-112.6832 312.8783,-109.1833 312.8784,-116.1833"/>
</g>
<!-- Node182120&#45;&gt;Node182104 -->
<g id="edge21" class="edge">
<title>Node182120&#45;&gt;Node182104</title>
<path fill="none" stroke="#191970" d="M415.6386,-150.095C426.1786,-145.7277 437.4361,-139.7013 446,-131.6832 470.6766,-108.5795 455.8762,-86.137 482,-64.6832 484.0554,-62.9952 486.2595,-61.457 488.5673,-60.0552"/>
<polygon fill="#191970" stroke="#191970" points="490.5725,-62.9613 497.8876,-55.297 487.3896,-56.7267 490.5725,-62.9613"/>
</g>
<!-- Node182121 -->
<g id="node17" class="node">
<title>Node182121</title>
<g id="a_node17"><a xlink:href="quickjs_8c.html#a9780456a71703c53244b88831bc8fb7a" target="_top" xlink:title="add_gc_object">
<polygon fill="none" stroke="#ff0000" points="501,-264.1832 501,-283.1832 587,-283.1832 587,-264.1832 501,-264.1832"/>
<text text-anchor="middle" x="544" y="-271.1832" font-family="Helvetica,sans-Serif" font-size="10.00" fill="#000000">add_gc_object</text>
</a>
</g>
</g>
<!-- Node182120&#45;&gt;Node182121 -->
<g id="edge18" class="edge">
<title>Node182120&#45;&gt;Node182121</title>
<path fill="none" stroke="#191970" d="M391.7159,-169.2929C406.534,-188.3674 442.3515,-231.1913 482,-254.6832 485.5958,-256.8137 489.4525,-258.7258 493.4189,-260.4382"/>
<polygon fill="#191970" stroke="#191970" points="492.2128,-263.7244 502.8017,-264.0797 494.7456,-257.1986 492.2128,-263.7244"/>
</g>
<!-- Node182107 -->
<g id="node18" class="node">
<title>Node182107</title>
<g id="a_node18"><a xlink:href="quickjs_8c.html#a7da0cfa6f27af0e1b9599d7f359edbe2" target="_top" xlink:title="get_alloc_from_shape">
<polygon fill="none" stroke="#ff0000" points="482,-226.1832 482,-245.1832 606,-245.1832 606,-226.1832 482,-226.1832"/>
<text text-anchor="middle" x="544" y="-233.1832" font-family="Helvetica,sans-Serif" font-size="10.00" fill="#000000">get_alloc_from_shape</text>
</a>
</g>
</g>
<!-- Node182120&#45;&gt;Node182107 -->
<g id="edge19" class="edge">
<title>Node182120&#45;&gt;Node182107</title>
<path fill="none" stroke="#191970" d="M398.4846,-169.2647C416.9406,-181.5745 450.7542,-202.9839 482,-216.6832 487.0908,-218.9152 492.5243,-220.993 497.9788,-222.8931"/>
<polygon fill="#191970" stroke="#191970" points="497.1571,-226.3075 507.7502,-226.1162 499.3498,-219.6598 497.1571,-226.3075"/>
</g>
<!-- Node182122 -->
<g id="node19" class="node">
<title>Node182122</title>
<g id="a_node19"><a xlink:href="quickjs_8c.html#a8b6c89e0f589df709eb31a92b7fac32a" target="_top" xlink:title="get_shape_from_alloc">
<polygon fill="none" stroke="#000000" points="482,-188.1832 482,-207.1832 606,-207.1832 606,-188.1832 482,-188.1832"/>
<text text-anchor="middle" x="544" y="-195.1832" font-family="Helvetica,sans-Serif" font-size="10.00" fill="#000000">get_shape_from_alloc</text>
</a>
</g>
</g>
<!-- Node182120&#45;&gt;Node182122 -->
<g id="edge20" class="edge">
<title>Node182120&#45;&gt;Node182122</title>
<path fill="none" stroke="#191970" d="M424.7486,-169.2722C445.7963,-174.2867 471.7552,-180.4713 494.0734,-185.7885"/>
<polygon fill="#191970" stroke="#191970" points="493.5019,-189.2502 504.0408,-188.1632 495.1243,-182.4408 493.5019,-189.2502"/>
</g>
<!-- Node182123 -->
<g id="node20" class="node">
<title>Node182123</title>
<g id="a_node20"><a xlink:href="quickjs_8c.html#ab54e821a9b1b55dc16c4494bd410b698" target="_top" xlink:title="get_shape_size">
<polygon fill="none" stroke="#000000" points="498,-150.1832 498,-169.1832 590,-169.1832 590,-150.1832 498,-150.1832"/>
<text text-anchor="middle" x="544" y="-157.1832" font-family="Helvetica,sans-Serif" font-size="10.00" fill="#000000">get_shape_size</text>
</a>
</g>
</g>
<!-- Node182120&#45;&gt;Node182123 -->
<g id="edge22" class="edge">
<title>Node182120&#45;&gt;Node182123</title>
<path fill="none" stroke="#191970" d="M430.2063,-159.6832C448.0706,-159.6832 468.7407,-159.6832 487.5231,-159.6832"/>
<polygon fill="#191970" stroke="#191970" points="487.7338,-163.1833 497.7338,-159.6832 487.7338,-156.1833 487.7338,-163.1833"/>
</g>
<!-- Node182124 -->
<g id="node21" class="node">
<title>Node182124</title>
<g id="a_node21"><a xlink:href="quickjs_8c.html#abbf44eaeace1104a6bef718fbf5700fe" target="_top" xlink:title="JS_DupAtom">
<polygon fill="none" stroke="#ff0000" points="505.5,-112.1832 505.5,-131.1832 582.5,-131.1832 582.5,-112.1832 505.5,-112.1832"/>
<text text-anchor="middle" x="544" y="-119.1832" font-family="Helvetica,sans-Serif" font-size="10.00" fill="#000000">JS_DupAtom</text>
</a>
</g>
</g>
<!-- Node182120&#45;&gt;Node182124 -->
<g id="edge23" class="edge">
<title>Node182120&#45;&gt;Node182124</title>
<path fill="none" stroke="#191970" d="M424.7486,-150.0942C446.2931,-144.9613 472.9833,-138.6026 495.6475,-133.2029"/>
<polygon fill="#191970" stroke="#191970" points="496.4984,-136.5983 505.4149,-130.8759 494.876,-129.7888 496.4984,-136.5983"/>
</g>
<!-- Node182125 -->
<g id="node22" class="node">
<title>Node182125</title>
<g id="a_node22"><a xlink:href="quickjs_8h.html#a775522f2d084fc8fa0fcb33f390006b4" target="_top" xlink:title="JS_DupValue">
<polygon fill="none" stroke="#000000" points="505.5,-74.1832 505.5,-93.1832 582.5,-93.1832 582.5,-74.1832 505.5,-74.1832"/>
<text text-anchor="middle" x="544" y="-81.1832" font-family="Helvetica,sans-Serif" font-size="10.00" fill="#000000">JS_DupValue</text>
</a>
</g>
</g>
<!-- Node182120&#45;&gt;Node182125 -->
<g id="edge24" class="edge">
<title>Node182120&#45;&gt;Node182125</title>
<path fill="none" stroke="#191970" d="M409.1694,-150.1301C420.7042,-145.2461 434.4174,-138.8273 446,-131.6832 463.4868,-120.8974 463.8501,-112.3116 482,-102.6832 486.3106,-100.3965 490.9389,-98.3394 495.6537,-96.4998"/>
<polygon fill="#191970" stroke="#191970" points="497.1394,-99.6857 505.3788,-93.0252 494.7842,-93.0938 497.1394,-99.6857"/>
</g>
<!-- Node182126 -->
<g id="node23" class="node">
<title>Node182126</title>
<g id="a_node23"><a xlink:href="quickjs_8c.html#a78b7f6b85f2739b551ff54f16156128b" target="_top" xlink:title="js_malloc">
<polygon fill="none" stroke="#ff0000" points="512.5,-302.1832 512.5,-321.1832 575.5,-321.1832 575.5,-302.1832 512.5,-302.1832"/>
<text text-anchor="middle" x="544" y="-309.1832" font-family="Helvetica,sans-Serif" font-size="10.00" fill="#000000">js_malloc</text>
</a>
</g>
</g>
<!-- Node182120&#45;&gt;Node182126 -->
<g id="edge25" class="edge">
<title>Node182120&#45;&gt;Node182126</title>
<path fill="none" stroke="#191970" d="M388.8705,-169.3679C400.4155,-193.8515 434.1566,-258.6869 482,-292.6832 488.12,-297.0319 495.2587,-300.4043 502.4702,-303.0139"/>
<polygon fill="#191970" stroke="#191970" points="501.67,-306.4319 512.2602,-306.1197 503.7868,-299.7596 501.67,-306.4319"/>
</g>
</g>
</svg>
        <g id="navigator" transform="translate(0 0)" fill="#404254">
                <rect fill="#f2f5e9" fill-opacity="0.5" stroke="#606060" stroke-width=".5" x="0" y="0" width="60" height="60"/>
                <use id="zoomplus" xlink:href="#zoomPlus" x="17" y="9" onmousedown="handleZoom(evt,'in')"/>
                <use id="zoomminus" xlink:href="#zoomMin" x="42" y="9" onmousedown="handleZoom(evt,'out')"/>
                <use id="reset" xlink:href="#resetDef" x="30" y="36" onmousedown="handleReset()"/>
                <g id="arrowUp" xlink:href="#dirArrow" transform="translate(30 24)" onmousedown="handlePan(0,-1)">
                  <use xlink:href="#rim" fill="#404040">
                        <set attributeName="fill" to="#808080" begin="arrowUp.mouseover" end="arrowUp.mouseout"/>
                  </use>
                  <path fill="none" stroke="white" stroke-width="1.5" d="M0,-3.0v7 M-2.5,-0.5L0,-3.0L2.5,-0.5"/>
                </g>
                <g id="arrowRight" xlink:href="#dirArrow" transform="rotate(90) translate(36 -43)" onmousedown="handlePan(1,0)">
                  <use xlink:href="#rim" fill="#404040">
                        <set attributeName="fill" to="#808080" begin="arrowRight.mouseover" end="arrowRight.mouseout"/>
                  </use>
                  <path fill="none" stroke="white" stroke-width="1.5" d="M0,-3.0v7 M-2.5,-0.5L0,-3.0L2.5,-0.5"/>
                </g>
                <g id="arrowDown" xlink:href="#dirArrow" transform="rotate(180) translate(-30 -48)" onmousedown="handlePan(0,1)">
                  <use xlink:href="#rim" fill="#404040">
                        <set attributeName="fill" to="#808080" begin="arrowDown.mouseover" end="arrowDown.mouseout"/>
                  </use>
                  <path fill="none" stroke="white" stroke-width="1.5" d="M0,-3.0v7 M-2.5,-0.5L0,-3.0L2.5,-0.5"/>
                </g>
                <g id="arrowLeft" xlink:href="#dirArrow" transform="rotate(270) translate(-36 17)" onmousedown="handlePan(-1,0)">
                  <use xlink:href="#rim" fill="#404040">
                        <set attributeName="fill" to="#808080" begin="arrowLeft.mouseover" end="arrowLeft.mouseout"/>
                  </use>
                  <path fill="none" stroke="white" stroke-width="1.5" d="M0,-3.0v7 M-2.5,-0.5L0,-3.0L2.5,-0.5"/>
                </g>
        </g>
        <svg viewBox="0 0 15 15" width="100%" height="30px" preserveAspectRatio="xMaxYMin meet">
         <g id="arrow_out" transform="scale(0.3 0.3)">
          <a xlink:href="quickjs_8c_a8aac7988cf0c6f3c2b629a6662fd7ec8_cgraph_org.svg" target="_base">
           <rect id="button" ry="5" rx="5" y="6" x="6" height="38" width="38"
                fill="#f2f5e9" fill-opacity="0.5" stroke="#606060" stroke-width="1.0"/>
           <path id="arrow"
             d="M 11.500037,31.436501 C 11.940474,20.09759 22.043105,11.32322 32.158766,21.979434 L 37.068811,17.246167 C 37.068811,17.246167 37.088388,32 37.088388,32 L 22.160133,31.978069 C 22.160133,31.978069 26.997745,27.140456 26.997745,27.140456 C 18.528582,18.264221 13.291696,25.230495 11.500037,31.436501 z"
             style="fill:#404040;"/>
          </a>
         </g>
        </svg>
</svg>
