<?xml version="1.0" encoding="UTF-8" standalone="no"?>
<!DOCTYPE svg PUBLIC "-//W3C//DTD SVG 1.1//EN"
 "http://www.w3.org/Graphics/SVG/1.1/DTD/svg11.dtd">
<!-- Generated by graphviz version 2.40.1 (20161225.0304)
 -->
<!-- Title: js_create_from_ctor Pages: 1 -->
<svg width="1095pt" height="833pt"
 viewBox="0.00 0.00 1095.00 832.74" xmlns="http://www.w3.org/2000/svg" xmlns:xlink="http://www.w3.org/1999/xlink">
<g id="graph0" class="graph" transform="scale(1 1) rotate(0) translate(4 828.7427)">
<title>js_create_from_ctor</title>
<!-- Node300603 -->
<g id="node1" class="node">
<title>Node300603</title>
<polygon fill="#bfbfbf" stroke="#000000" points="0,-151.5 0,-170.5 113,-170.5 113,-151.5 0,-151.5"/>
<text text-anchor="middle" x="56.5" y="-158.5" font-family="Helvetica,sans-Serif" font-size="10.00" fill="#000000">js_create_from_ctor</text>
</g>
<!-- Node300604 -->
<g id="node2" class="node">
<title>Node300604</title>
<g id="a_node2"><a xlink:href="quickjs_8h.html#a775522f2d084fc8fa0fcb33f390006b4" target="_top" xlink:title="JS_DupValue">
<polygon fill="none" stroke="#000000" points="564.5,-752.5 564.5,-771.5 641.5,-771.5 641.5,-752.5 564.5,-752.5"/>
<text text-anchor="middle" x="603" y="-759.5" font-family="Helvetica,sans-Serif" font-size="10.00" fill="#000000">JS_DupValue</text>
</a>
</g>
</g>
<!-- Node300603&#45;&gt;Node300604 -->
<g id="edge1" class="edge">
<title>Node300603&#45;&gt;Node300604</title>
<path fill="none" stroke="#191970" d="M56.8189,-170.5106C58.6715,-212.7424 70.9241,-386.05 149,-496 260.7087,-653.3132 328.2399,-667.9824 506,-743 521.0443,-749.3489 538.3064,-753.6031 554.0591,-756.4426"/>
<polygon fill="#191970" stroke="#191970" points="553.7173,-759.9336 564.1544,-758.1121 554.8594,-753.0274 553.7173,-759.9336"/>
</g>
<!-- Node300605 -->
<g id="node3" class="node">
<title>Node300605</title>
<g id="a_node3"><a xlink:href="quickjs_8h.html#afaa20c47565bc704c6c85f3d77254e7d" target="_top" xlink:title="JS_FreeValue">
<polygon fill="none" stroke="#000000" points="741.5,-543.5 741.5,-562.5 819.5,-562.5 819.5,-543.5 741.5,-543.5"/>
<text text-anchor="middle" x="780.5" y="-550.5" font-family="Helvetica,sans-Serif" font-size="10.00" fill="#000000">JS_FreeValue</text>
</a>
</g>
</g>
<!-- Node300603&#45;&gt;Node300605 -->
<g id="edge2" class="edge">
<title>Node300603&#45;&gt;Node300605</title>
<path fill="none" stroke="#191970" d="M57.6759,-170.5232C64.6759,-226.1257 102.1466,-508.8236 149,-581 200.7399,-660.7039 237.8793,-661.9491 321,-708 471.0509,-791.1319 559.959,-880.0691 700,-781 735.3648,-755.9819 766.0298,-623.1082 776.5867,-572.5494"/>
<polygon fill="#191970" stroke="#191970" points="780.0523,-573.0719 778.6303,-562.5729 773.1947,-571.6671 780.0523,-573.0719"/>
</g>
<!-- Node300643 -->
<g id="node6" class="node">
<title>Node300643</title>
<g id="a_node6"><a xlink:href="quickjs_8c.html#a83e9d1851a3e2cd176944272b583143c" target="_top" xlink:title="JS_GetFunctionRealm">
<polygon fill="none" stroke="#000000" points="157.5,-76.5 157.5,-95.5 276.5,-95.5 276.5,-76.5 157.5,-76.5"/>
<text text-anchor="middle" x="217" y="-83.5" font-family="Helvetica,sans-Serif" font-size="10.00" fill="#000000">JS_GetFunctionRealm</text>
</a>
</g>
</g>
<!-- Node300603&#45;&gt;Node300643 -->
<g id="edge5" class="edge">
<title>Node300603&#45;&gt;Node300643</title>
<path fill="none" stroke="#191970" d="M77.154,-151.3486C105.0829,-138.2977 155.0742,-114.9373 187.1055,-99.9694"/>
<polygon fill="#191970" stroke="#191970" points="188.8473,-103.0188 196.4253,-95.6144 185.8839,-96.677 188.8473,-103.0188"/>
</g>
<!-- Node300645 -->
<g id="node8" class="node">
<title>Node300645</title>
<g id="a_node8"><a xlink:href="quickjs_8h.html#a89b7c8686c7eee70b86be722ee4730ad" target="_top" xlink:title="JS_GetProperty">
<polygon fill="none" stroke="#000000" points="172.5,-467.5 172.5,-486.5 261.5,-486.5 261.5,-467.5 172.5,-467.5"/>
<text text-anchor="middle" x="217" y="-474.5" font-family="Helvetica,sans-Serif" font-size="10.00" fill="#000000">JS_GetProperty</text>
</a>
</g>
</g>
<!-- Node300603&#45;&gt;Node300645 -->
<g id="edge8" class="edge">
<title>Node300603&#45;&gt;Node300645</title>
<path fill="none" stroke="#191970" d="M61.4794,-170.8038C84.0875,-215.3156 177.2729,-398.7835 207.492,-458.2803"/>
<polygon fill="#191970" stroke="#191970" points="204.4295,-459.9797 212.0786,-467.3106 210.6707,-456.8097 204.4295,-459.9797"/>
</g>
<!-- Node300654 -->
<g id="node14" class="node">
<title>Node300654</title>
<g id="a_node14"><a xlink:href="quickjs_8h.html#ad80a83d73e9b7d872b88fbf2943aebe9" target="_top" xlink:title="JS_IsException">
<polygon fill="none" stroke="#000000" points="737,-208.5 737,-227.5 824,-227.5 824,-208.5 737,-208.5"/>
<text text-anchor="middle" x="780.5" y="-215.5" font-family="Helvetica,sans-Serif" font-size="10.00" fill="#000000">JS_IsException</text>
</a>
</g>
</g>
<!-- Node300603&#45;&gt;Node300654 -->
<g id="edge30" class="edge">
<title>Node300603&#45;&gt;Node300654</title>
<path fill="none" stroke="#191970" d="M113.1225,-164.0772C264.8818,-172.3603 671.2268,-194.7871 700,-199 711.7584,-200.7216 724.3271,-203.3157 735.9535,-206.0383"/>
<polygon fill="#191970" stroke="#191970" points="735.3408,-209.4911 745.8839,-208.4453 736.9898,-202.6881 735.3408,-209.4911"/>
</g>
<!-- Node300811 -->
<g id="node15" class="node">
<title>Node300811</title>
<g id="a_node15"><a xlink:href="quickjs_8h.html#a4e407128a9605afb77523e49e9a627fd" target="_top" xlink:title="JS_IsUndefined">
<polygon fill="none" stroke="#000000" points="736,-151.5 736,-170.5 825,-170.5 825,-151.5 736,-151.5"/>
<text text-anchor="middle" x="780.5" y="-158.5" font-family="Helvetica,sans-Serif" font-size="10.00" fill="#000000">JS_IsUndefined</text>
</a>
</g>
</g>
<!-- Node300603&#45;&gt;Node300811 -->
<g id="edge32" class="edge">
<title>Node300603&#45;&gt;Node300811</title>
<path fill="none" stroke="#191970" d="M113.0095,-161C248.7488,-161 591.8217,-161 725.7497,-161"/>
<polygon fill="#191970" stroke="#191970" points="725.7838,-164.5001 735.7838,-161 725.7838,-157.5001 725.7838,-164.5001"/>
</g>
<!-- Node300883 -->
<g id="node25" class="node">
<title>Node300883</title>
<g id="a_node25"><a xlink:href="quickjs_8h.html#a3d68fe446df2d9c7d1900b16371bff5b" target="_top" xlink:title="JS_IsObject">
<polygon fill="none" stroke="#000000" points="181.5,-38.5 181.5,-57.5 252.5,-57.5 252.5,-38.5 181.5,-38.5"/>
<text text-anchor="middle" x="217" y="-45.5" font-family="Helvetica,sans-Serif" font-size="10.00" fill="#000000">JS_IsObject</text>
</a>
</g>
</g>
<!-- Node300603&#45;&gt;Node300883 -->
<g id="edge31" class="edge">
<title>Node300603&#45;&gt;Node300883</title>
<path fill="none" stroke="#191970" d="M63.2028,-151.396C77.004,-132.3506 110.5453,-89.684 149,-67 155.9038,-62.9275 163.7173,-59.6959 171.5255,-57.1412"/>
<polygon fill="#191970" stroke="#191970" points="172.737,-60.4332 181.344,-54.255 170.7629,-53.7174 172.737,-60.4332"/>
</g>
<!-- Node300770 -->
<g id="node26" class="node">
<title>Node300770</title>
<g id="a_node26"><a xlink:href="quickjs_8c.html#a73738c650f11459db0d7af3dcdf8316b" target="_top" xlink:title="JS_NewObjectProtoClass">
<polygon fill="none" stroke="#ff0000" points="149,-.5 149,-19.5 285,-19.5 285,-.5 149,-.5"/>
<text text-anchor="middle" x="217" y="-7.5" font-family="Helvetica,sans-Serif" font-size="10.00" fill="#000000">JS_NewObjectProtoClass</text>
</a>
</g>
</g>
<!-- Node300603&#45;&gt;Node300770 -->
<g id="edge33" class="edge">
<title>Node300603&#45;&gt;Node300770</title>
<path fill="none" stroke="#191970" d="M60.476,-151.3173C71.0289,-126.8513 102.1787,-62.1451 149,-29 151.8372,-26.9915 154.8804,-25.1948 158.0489,-23.5877"/>
<polygon fill="#191970" stroke="#191970" points="159.5004,-26.7729 167.244,-19.5419 156.6812,-20.3657 159.5004,-26.7729"/>
</g>
<!-- Node300606 -->
<g id="node4" class="node">
<title>Node300606</title>
<g id="a_node4"><a xlink:href="quickjs_8c.html#aa059f309c30fd5166d16c82a97973146" target="_top" xlink:title="__JS_FreeValue">
<polygon fill="none" stroke="#000000" points="861,-543.5 861,-562.5 950,-562.5 950,-543.5 861,-543.5"/>
<text text-anchor="middle" x="905.5" y="-550.5" font-family="Helvetica,sans-Serif" font-size="10.00" fill="#000000">__JS_FreeValue</text>
</a>
</g>
</g>
<!-- Node300605&#45;&gt;Node300606 -->
<g id="edge3" class="edge">
<title>Node300605&#45;&gt;Node300606</title>
<path fill="none" stroke="#191970" d="M819.7078,-553C829.481,-553 840.1409,-553 850.5201,-553"/>
<polygon fill="#191970" stroke="#191970" points="850.7624,-556.5001 860.7624,-553 850.7624,-549.5001 850.7624,-556.5001"/>
</g>
<!-- Node300607 -->
<g id="node5" class="node">
<title>Node300607</title>
<g id="a_node5"><a xlink:href="quickjs_8c.html#ab1ea3fad7d138be12144a38be4d36423" target="_top" xlink:title="__JS_FreeValueRT">
<polygon fill="none" stroke="#ff0000" points="986,-543.5 986,-562.5 1087,-562.5 1087,-543.5 986,-543.5"/>
<text text-anchor="middle" x="1036.5" y="-550.5" font-family="Helvetica,sans-Serif" font-size="10.00" fill="#000000">__JS_FreeValueRT</text>
</a>
</g>
</g>
<!-- Node300606&#45;&gt;Node300607 -->
<g id="edge4" class="edge">
<title>Node300606&#45;&gt;Node300607</title>
<path fill="none" stroke="#191970" d="M950.2164,-553C958.3314,-553 966.9213,-553 975.4118,-553"/>
<polygon fill="#191970" stroke="#191970" points="975.6806,-556.5001 985.6806,-553 975.6806,-549.5001 975.6806,-556.5001"/>
</g>
<!-- Node300643&#45;&gt;Node300643 -->
<g id="edge6" class="edge">
<title>Node300643&#45;&gt;Node300643</title>
<path fill="none" stroke="#191970" d="M192.3394,-95.7571C180.3423,-104.5653 188.5625,-114 217,-114 236.1064,-114 246.0865,-109.741 246.9401,-104.2746"/>
<polygon fill="#191970" stroke="#191970" points="249.904,-102.4128 241.6606,-95.7571 243.9542,-106.1007 249.904,-102.4128"/>
</g>
<!-- Node300644 -->
<g id="node7" class="node">
<title>Node300644</title>
<g id="a_node7"><a xlink:href="quickjs_8c.html#a199d64ccbee0a90d93e1ad12745417f6" target="_top" xlink:title="JS_ThrowTypeErrorRevoked\lProxy">
<polygon fill="none" stroke="#000000" points="321,-71 321,-101 470,-101 470,-71 321,-71"/>
<text text-anchor="start" x="329" y="-89" font-family="Helvetica,sans-Serif" font-size="10.00" fill="#000000">JS_ThrowTypeErrorRevoked</text>
<text text-anchor="middle" x="395.5" y="-78" font-family="Helvetica,sans-Serif" font-size="10.00" fill="#000000">Proxy</text>
</a>
</g>
</g>
<!-- Node300643&#45;&gt;Node300644 -->
<g id="edge7" class="edge">
<title>Node300643&#45;&gt;Node300644</title>
<path fill="none" stroke="#191970" d="M276.9345,-86C287.823,-86 299.3665,-86 310.8097,-86"/>
<polygon fill="#191970" stroke="#191970" points="310.8211,-89.5001 320.8211,-86 310.821,-82.5001 310.8211,-89.5001"/>
</g>
<!-- Node300646 -->
<g id="node9" class="node">
<title>Node300646</title>
<g id="a_node9"><a xlink:href="quickjs_8c.html#a5762c57ae0c9937e986040c01222833a" target="_top" xlink:title="JS_GetPropertyInternal">
<polygon fill="none" stroke="#000000" points="332,-467.5 332,-486.5 459,-486.5 459,-467.5 332,-467.5"/>
<text text-anchor="middle" x="395.5" y="-474.5" font-family="Helvetica,sans-Serif" font-size="10.00" fill="#000000">JS_GetPropertyInternal</text>
</a>
</g>
</g>
<!-- Node300645&#45;&gt;Node300646 -->
<g id="edge9" class="edge">
<title>Node300645&#45;&gt;Node300646</title>
<path fill="none" stroke="#191970" d="M261.5826,-477C279.7802,-477 301.3159,-477 321.7359,-477"/>
<polygon fill="#191970" stroke="#191970" points="321.9687,-480.5001 331.9687,-477 321.9687,-473.5001 321.9687,-480.5001"/>
</g>
<!-- Node300646&#45;&gt;Node300604 -->
<g id="edge21" class="edge">
<title>Node300646&#45;&gt;Node300604</title>
<path fill="none" stroke="#191970" d="M400.6398,-486.7299C413.3937,-511.0932 447.1123,-576.8671 470,-634 488.9724,-681.3594 467.7322,-709.2592 506,-743 519.1109,-754.5599 537.145,-759.9287 554.1089,-762.203"/>
<polygon fill="#191970" stroke="#191970" points="554.1792,-765.7277 564.4795,-763.2469 554.8803,-758.7629 554.1792,-765.7277"/>
</g>
<!-- Node300646&#45;&gt;Node300605 -->
<g id="edge22" class="edge">
<title>Node300646&#45;&gt;Node300605</title>
<path fill="none" stroke="#191970" d="M399.6982,-486.9455C415.1665,-523.0628 469.9462,-646.2604 506,-667 580.7388,-709.9929 623.4411,-706.6611 700,-667 738.5542,-647.0271 762.579,-599.1512 773.523,-572.2267"/>
<polygon fill="#191970" stroke="#191970" points="776.8543,-573.3158 777.1931,-562.7264 770.3246,-570.7933 776.8543,-573.3158"/>
</g>
<!-- Node300647 -->
<g id="node10" class="node">
<title>Node300647</title>
<g id="a_node10"><a xlink:href="quickjs_8c.html#a288254c06a39c9fca740a7abdad2834e" target="_top" xlink:title="__JS_AtomIsTaggedInt">
<polygon fill="none" stroke="#000000" points="541.5,-638.5 541.5,-657.5 664.5,-657.5 664.5,-638.5 541.5,-638.5"/>
<text text-anchor="middle" x="603" y="-645.5" font-family="Helvetica,sans-Serif" font-size="10.00" fill="#000000">__JS_AtomIsTaggedInt</text>
</a>
</g>
</g>
<!-- Node300646&#45;&gt;Node300647 -->
<g id="edge10" class="edge">
<title>Node300646&#45;&gt;Node300647</title>
<path fill="none" stroke="#191970" d="M399.4931,-486.7809C411.2412,-514.2243 448.5133,-592.3301 506,-629 513.7559,-633.9474 522.5173,-637.6559 531.5228,-640.4275"/>
<polygon fill="#191970" stroke="#191970" points="530.788,-643.8543 541.3546,-643.0815 532.6123,-637.0962 530.788,-643.8543"/>
</g>
<!-- Node300648 -->
<g id="node11" class="node">
<title>Node300648</title>
<g id="a_node11"><a xlink:href="quickjs_8c.html#a89f38938cee8077ce1fbba07946ed185" target="_top" xlink:title="__JS_AtomToUInt32">
<polygon fill="none" stroke="#000000" points="548,-600.5 548,-619.5 658,-619.5 658,-600.5 548,-600.5"/>
<text text-anchor="middle" x="603" y="-607.5" font-family="Helvetica,sans-Serif" font-size="10.00" fill="#000000">__JS_AtomToUInt32</text>
</a>
</g>
</g>
<!-- Node300646&#45;&gt;Node300648 -->
<g id="edge11" class="edge">
<title>Node300646&#45;&gt;Node300648</title>
<path fill="none" stroke="#191970" d="M401.6435,-486.5323C416.5555,-508.8177 457.0637,-564.4431 506,-591 515.7577,-596.2953 526.7784,-600.1276 537.8007,-602.8982"/>
<polygon fill="#191970" stroke="#191970" points="537.3644,-606.3871 547.8875,-605.1557 538.8933,-599.5561 537.3644,-606.3871"/>
</g>
<!-- Node300649 -->
<g id="node12" class="node">
<title>Node300649</title>
<g id="a_node12"><a xlink:href="quickjs_8c.html#a06b76f5124fd985e35f4c652fd018d6d" target="_top" xlink:title="find_own_property">
<polygon fill="none" stroke="#ff0000" points="549.5,-562.5 549.5,-581.5 656.5,-581.5 656.5,-562.5 549.5,-562.5"/>
<text text-anchor="middle" x="603" y="-569.5" font-family="Helvetica,sans-Serif" font-size="10.00" fill="#000000">find_own_property</text>
</a>
</g>
</g>
<!-- Node300646&#45;&gt;Node300649 -->
<g id="edge12" class="edge">
<title>Node300646&#45;&gt;Node300649</title>
<path fill="none" stroke="#191970" d="M406.2063,-486.6475C424.9694,-503.0009 465.6477,-536.0366 506,-553 516.5223,-557.4234 528.1251,-560.8309 539.5366,-563.4517"/>
<polygon fill="#191970" stroke="#191970" points="538.9755,-566.9104 549.4837,-565.5581 540.4257,-560.0623 538.9755,-566.9104"/>
</g>
<!-- Node300650 -->
<g id="node13" class="node">
<title>Node300650</title>
<g id="a_node13"><a xlink:href="quickjs_8c.html#add3eea1f6d626963ade3c28a1fd563d1" target="_top" xlink:title="JS_AtomIsNumericIndex">
<polygon fill="none" stroke="#ff0000" points="536,-246.5 536,-265.5 670,-265.5 670,-246.5 536,-246.5"/>
<text text-anchor="middle" x="603" y="-253.5" font-family="Helvetica,sans-Serif" font-size="10.00" fill="#000000">JS_AtomIsNumericIndex</text>
</a>
</g>
</g>
<!-- Node300646&#45;&gt;Node300650 -->
<g id="edge13" class="edge">
<title>Node300646&#45;&gt;Node300650</title>
<path fill="none" stroke="#191970" d="M397.7941,-467.0963C405.994,-434.0564 437.1105,-326.8365 506,-276 512.04,-271.5429 518.8408,-268.0243 525.9673,-265.2537"/>
<polygon fill="#191970" stroke="#191970" points="527.4895,-268.4341 535.8463,-261.9215 525.2522,-261.8013 527.4895,-268.4341"/>
</g>
<!-- Node300798 -->
<g id="node16" class="node">
<title>Node300798</title>
<g id="a_node16"><a xlink:href="quickjs_8c.html#a8aac7988cf0c6f3c2b629a6662fd7ec8" target="_top" xlink:title="JS_AutoInitProperty">
<polygon fill="none" stroke="#ff0000" points="548,-208.5 548,-227.5 658,-227.5 658,-208.5 548,-208.5"/>
<text text-anchor="middle" x="603" y="-215.5" font-family="Helvetica,sans-Serif" font-size="10.00" fill="#000000">JS_AutoInitProperty</text>
</a>
</g>
</g>
<!-- Node300646&#45;&gt;Node300798 -->
<g id="edge17" class="edge">
<title>Node300646&#45;&gt;Node300798</title>
<path fill="none" stroke="#191970" d="M396.8089,-467.3004C402.3069,-430.5882 427.0335,-299.0963 506,-237 515.1811,-229.7803 526.3368,-225.0566 537.7682,-222.0119"/>
<polygon fill="#191970" stroke="#191970" points="538.853,-225.3555 547.8423,-219.748 537.3182,-218.5259 538.853,-225.3555"/>
</g>
<!-- Node300706 -->
<g id="node17" class="node">
<title>Node300706</title>
<g id="a_node17"><a xlink:href="quickjs_8c.html#a75f6ee5e4235a7dc99889f3d2eb2c147" target="_top" xlink:title="JS_CallFree">
<polygon fill="none" stroke="#ff0000" points="568,-410.5 568,-429.5 638,-429.5 638,-410.5 568,-410.5"/>
<text text-anchor="middle" x="603" y="-417.5" font-family="Helvetica,sans-Serif" font-size="10.00" fill="#000000">JS_CallFree</text>
</a>
</g>
</g>
<!-- Node300646&#45;&gt;Node300706 -->
<g id="edge19" class="edge">
<title>Node300646&#45;&gt;Node300706</title>
<path fill="none" stroke="#191970" d="M420.2113,-467.4046C442.4082,-459.0504 476.0232,-447.0491 506,-439 522.7441,-434.504 541.3799,-430.5974 557.8063,-427.5153"/>
<polygon fill="#191970" stroke="#191970" points="558.5041,-430.9459 567.7118,-425.7049 557.2455,-424.0599 558.5041,-430.9459"/>
</g>
<!-- Node300729 -->
<g id="node18" class="node">
<title>Node300729</title>
<g id="a_node18"><a xlink:href="quickjs_8c.html#aeb97957655d979e9fe56c955da2b2d4b" target="_top" xlink:title="JS_GetPropertyUint32">
<polygon fill="none" stroke="#ff0000" points="542,-524.5 542,-543.5 664,-543.5 664,-524.5 542,-524.5"/>
<text text-anchor="middle" x="603" y="-531.5" font-family="Helvetica,sans-Serif" font-size="10.00" fill="#000000">JS_GetPropertyUint32</text>
</a>
</g>
</g>
<!-- Node300646&#45;&gt;Node300729 -->
<g id="edge23" class="edge">
<title>Node300646&#45;&gt;Node300729</title>
<path fill="none" stroke="#191970" d="M420.2113,-486.5954C442.4082,-494.9496 476.0232,-506.9509 506,-515 516.0475,-517.6979 526.7762,-520.1835 537.2998,-522.4061"/>
<polygon fill="#191970" stroke="#191970" points="536.7988,-525.8761 547.2978,-524.4548 538.204,-519.0186 536.7988,-525.8761"/>
</g>
<!-- Node300828 -->
<g id="node19" class="node">
<title>Node300828</title>
<g id="a_node19"><a xlink:href="quickjs_8c.html#a93550bf785e919d0881399712c54cb34" target="_top" xlink:title="JS_GetPrototypePrimitive">
<polygon fill="none" stroke="#000000" points="533,-486.5 533,-505.5 673,-505.5 673,-486.5 533,-486.5"/>
<text text-anchor="middle" x="603" y="-493.5" font-family="Helvetica,sans-Serif" font-size="10.00" fill="#000000">JS_GetPrototypePrimitive</text>
</a>
</g>
</g>
<!-- Node300646&#45;&gt;Node300828 -->
<g id="edge24" class="edge">
<title>Node300646&#45;&gt;Node300828</title>
<path fill="none" stroke="#191970" d="M459.167,-482.8297C479.2333,-484.6671 501.6635,-486.721 522.7305,-488.65"/>
<polygon fill="#191970" stroke="#191970" points="522.6691,-492.159 532.9466,-489.5855 523.3075,-485.1881 522.6691,-492.159"/>
</g>
<!-- Node300902 -->
<g id="node20" class="node">
<title>Node300902</title>
<g id="a_node20"><a xlink:href="quickjs_8h.html#aaab426b47c95d00479b7355b1cf7f56c" target="_top" xlink:title="JS_IsUninitialized">
<polygon fill="none" stroke="#000000" points="552.5,-448.5 552.5,-467.5 653.5,-467.5 653.5,-448.5 552.5,-448.5"/>
<text text-anchor="middle" x="603" y="-455.5" font-family="Helvetica,sans-Serif" font-size="10.00" fill="#000000">JS_IsUninitialized</text>
</a>
</g>
</g>
<!-- Node300646&#45;&gt;Node300902 -->
<g id="edge25" class="edge">
<title>Node300646&#45;&gt;Node300902</title>
<path fill="none" stroke="#191970" d="M459.167,-471.1703C485.565,-468.7531 516.054,-465.9613 542.1485,-463.5719"/>
<polygon fill="#191970" stroke="#191970" points="542.6489,-467.0409 552.288,-462.6435 542.0105,-460.07 542.6489,-467.0409"/>
</g>
<!-- Node301035 -->
<g id="node21" class="node">
<title>Node301035</title>
<g id="a_node21"><a xlink:href="quickjs_8c.html#a077ffa6455c0d7831bd4547542b5f2f7" target="_top" xlink:title="js_new_string_char">
<polygon fill="none" stroke="#ff0000" points="548,-372.5 548,-391.5 658,-391.5 658,-372.5 548,-372.5"/>
<text text-anchor="middle" x="603" y="-379.5" font-family="Helvetica,sans-Serif" font-size="10.00" fill="#000000">js_new_string_char</text>
</a>
</g>
</g>
<!-- Node300646&#45;&gt;Node301035 -->
<g id="edge26" class="edge">
<title>Node300646&#45;&gt;Node301035</title>
<path fill="none" stroke="#191970" d="M406.2063,-467.3525C424.9694,-450.9991 465.6477,-417.9634 506,-401 516.0527,-396.774 527.0916,-393.4753 538.0076,-390.904"/>
<polygon fill="#191970" stroke="#191970" points="538.9368,-394.2838 547.9662,-388.7412 537.4512,-387.4433 538.9368,-394.2838"/>
</g>
<!-- Node300655 -->
<g id="node22" class="node">
<title>Node300655</title>
<g id="a_node22"><a xlink:href="quickjs_8h.html#a2050bc428da1c65ac7eb87c3fa3b0392" target="_top" xlink:title="JS_NewInt32">
<polygon fill="none" stroke="#000000" points="564.5,-334.5 564.5,-353.5 641.5,-353.5 641.5,-334.5 564.5,-334.5"/>
<text text-anchor="middle" x="603" y="-341.5" font-family="Helvetica,sans-Serif" font-size="10.00" fill="#000000">JS_NewInt32</text>
</a>
</g>
</g>
<!-- Node300646&#45;&gt;Node300655 -->
<g id="edge27" class="edge">
<title>Node300646&#45;&gt;Node300655</title>
<path fill="none" stroke="#191970" d="M401.6435,-467.4677C416.5555,-445.1823 457.0637,-389.5569 506,-363 520.5994,-355.0772 538.0264,-350.4294 554.0554,-347.7127"/>
<polygon fill="#191970" stroke="#191970" points="554.9627,-351.1166 564.3431,-346.1913 553.9386,-344.192 554.9627,-351.1166"/>
</g>
<!-- Node300829 -->
<g id="node23" class="node">
<title>Node300829</title>
<g id="a_node23"><a xlink:href="quickjs_8c.html#ab8d0b87c9eed4eb6c054b6f4e1731554" target="_top" xlink:title="JS_ThrowReferenceErrorNot\lDefined">
<polygon fill="none" stroke="#ff0000" points="528,-285 528,-315 678,-315 678,-285 528,-285"/>
<text text-anchor="start" x="536" y="-303" font-family="Helvetica,sans-Serif" font-size="10.00" fill="#000000">JS_ThrowReferenceErrorNot</text>
<text text-anchor="middle" x="603" y="-292" font-family="Helvetica,sans-Serif" font-size="10.00" fill="#000000">Defined</text>
</a>
</g>
</g>
<!-- Node300646&#45;&gt;Node300829 -->
<g id="edge28" class="edge">
<title>Node300646&#45;&gt;Node300829</title>
<path fill="none" stroke="#191970" d="M399.6046,-467.3884C411.6463,-440.3905 449.6164,-363.3444 506,-325 509.8243,-322.3993 513.9008,-320.0691 518.1358,-317.9813"/>
<polygon fill="#191970" stroke="#191970" points="519.8929,-321.0314 527.624,-313.7871 517.0627,-314.629 519.8929,-321.0314"/>
</g>
<!-- Node300903 -->
<g id="node24" class="node">
<title>Node300903</title>
<g id="a_node24"><a xlink:href="quickjs_8c.html#a75ac132a3af4de01e1fadeb0bede6ee7" target="_top" xlink:title="JS_ThrowReferenceErrorUninitialized">
<polygon fill="none" stroke="#ff0000" points="506,-714.5 506,-733.5 700,-733.5 700,-714.5 506,-714.5"/>
<text text-anchor="middle" x="603" y="-721.5" font-family="Helvetica,sans-Serif" font-size="10.00" fill="#000000">JS_ThrowReferenceErrorUninitialized</text>
</a>
</g>
</g>
<!-- Node300646&#45;&gt;Node300903 -->
<g id="edge29" class="edge">
<title>Node300646&#45;&gt;Node300903</title>
<path fill="none" stroke="#191970" d="M399.9356,-486.5043C419.386,-528.1078 496.5884,-692.4413 506,-700 511.2709,-704.2332 517.1847,-707.7337 523.4236,-710.6266"/>
<polygon fill="#191970" stroke="#191970" points="522.1791,-713.899 532.7599,-714.4447 524.8288,-707.4198 522.1791,-713.899"/>
</g>
<!-- Node300650&#45;&gt;Node300605 -->
<g id="edge14" class="edge">
<title>Node300650&#45;&gt;Node300605</title>
<path fill="none" stroke="#191970" d="M670.2053,-259.974C681.1774,-263.2419 691.663,-268.3007 700,-276 738.7221,-311.7603 768.1918,-475.9942 777.4445,-533.247"/>
<polygon fill="#191970" stroke="#191970" points="774.0439,-534.1505 779.0654,-543.4797 780.9577,-533.0552 774.0439,-534.1505"/>
</g>
<!-- Node300650&#45;&gt;Node300654 -->
<g id="edge15" class="edge">
<title>Node300650&#45;&gt;Node300654</title>
<path fill="none" stroke="#191970" d="M653.6705,-246.4557C668.6158,-243.5378 684.9873,-240.2407 700,-237 710.2115,-234.7957 721.1202,-232.3098 731.5052,-229.8804"/>
<polygon fill="#191970" stroke="#191970" points="732.332,-233.2815 741.2616,-227.5795 730.7252,-226.4684 732.332,-233.2815"/>
</g>
<!-- Node300650&#45;&gt;Node300811 -->
<g id="edge16" class="edge">
<title>Node300650&#45;&gt;Node300811</title>
<path fill="none" stroke="#191970" d="M670.1377,-248.5044C680.5201,-245.7651 690.8284,-242.0454 700,-237 720.3838,-225.7868 719.1306,-215.0206 736,-199 743.7902,-191.6018 752.7378,-183.8315 760.5573,-177.2589"/>
<polygon fill="#191970" stroke="#191970" points="763.0335,-179.7522 768.4914,-170.6713 758.5618,-174.3665 763.0335,-179.7522"/>
</g>
<!-- Node300798&#45;&gt;Node300654 -->
<g id="edge18" class="edge">
<title>Node300798&#45;&gt;Node300654</title>
<path fill="none" stroke="#191970" d="M658.1891,-218C680.065,-218 705.1312,-218 726.853,-218"/>
<polygon fill="#191970" stroke="#191970" points="726.8957,-221.5001 736.8957,-218 726.8957,-214.5001 726.8957,-221.5001"/>
</g>
<!-- Node300706&#45;&gt;Node300605 -->
<g id="edge20" class="edge">
<title>Node300706&#45;&gt;Node300605</title>
<path fill="none" stroke="#191970" d="M638.1337,-420.5871C657.6919,-422.3849 681.7074,-427.1535 700,-439 736.1054,-462.3822 760.8489,-508.1621 772.6246,-534.0276"/>
<polygon fill="#191970" stroke="#191970" points="769.54,-535.71 776.7491,-543.4739 775.9551,-532.9089 769.54,-535.71"/>
</g>
</g>
</svg>
