<?xml version="1.0" encoding="UTF-8" standalone="no"?>
<!DOCTYPE svg PUBLIC "-//W3C//DTD SVG 1.1//EN"
 "http://www.w3.org/Graphics/SVG/1.1/DTD/svg11.dtd">
<!-- Generated by graphviz version 2.40.1 (20161225.0304)
 -->
<!-- Title: js_dataview_getValue Pages: 1 -->
<svg width="593pt" height="453pt"
 viewBox="0.00 0.00 593.00 452.91" xmlns="http://www.w3.org/2000/svg" xmlns:xlink="http://www.w3.org/1999/xlink">
<g id="graph0" class="graph" transform="scale(1 1) rotate(0) translate(4 448.9099)">
<title>js_dataview_getValue</title>
<!-- Node491222 -->
<g id="node1" class="node">
<title>Node491222</title>
<polygon fill="#bfbfbf" stroke="#000000" points="0,-221.5 0,-240.5 123,-240.5 123,-221.5 0,-221.5"/>
<text text-anchor="middle" x="61.5" y="-228.5" font-family="Helvetica,sans-Serif" font-size="10.00" fill="#000000">js_dataview_getValue</text>
</g>
<!-- Node491223 -->
<g id="node2" class="node">
<title>Node491223</title>
<g id="a_node2"><a xlink:href="quickjs_8h.html#a9bf98b18de88b4199910a43e933eb97d" target="_top" xlink:title="__JS_NewFloat64">
<polygon fill="none" stroke="#000000" points="348,-316.5 348,-335.5 447,-335.5 447,-316.5 348,-316.5"/>
<text text-anchor="middle" x="397.5" y="-323.5" font-family="Helvetica,sans-Serif" font-size="10.00" fill="#000000">__JS_NewFloat64</text>
</a>
</g>
</g>
<!-- Node491222&#45;&gt;Node491223 -->
<g id="edge1" class="edge">
<title>Node491222&#45;&gt;Node491223</title>
<path fill="none" stroke="#191970" d="M62.9669,-240.862C68.4399,-273.6763 90.9738,-379.4481 159,-421 217.0306,-456.4464 249.882,-448.665 312,-421 347.1174,-405.36 373.8619,-367.3789 387.4826,-344.4588"/>
<polygon fill="#191970" stroke="#191970" points="390.5835,-346.0867 392.5027,-335.6671 384.5046,-342.6156 390.5835,-346.0867"/>
</g>
<!-- Node491224 -->
<g id="node3" class="node">
<title>Node491224</title>
<g id="a_node3"><a xlink:href="cutils_8h.html#a86b872249d4bcf1f6b08c4af388f1d3c" target="_top" xlink:title="bswap16">
<polygon fill="none" stroke="#000000" points="205.5,-392.5 205.5,-411.5 265.5,-411.5 265.5,-392.5 205.5,-392.5"/>
<text text-anchor="middle" x="235.5" y="-399.5" font-family="Helvetica,sans-Serif" font-size="10.00" fill="#000000">bswap16</text>
</a>
</g>
</g>
<!-- Node491222&#45;&gt;Node491224 -->
<g id="edge2" class="edge">
<title>Node491222&#45;&gt;Node491224</title>
<path fill="none" stroke="#191970" d="M64.7674,-240.6287C74.4601,-267.6715 105.7457,-344.8244 159,-383 169.6191,-390.6124 182.9581,-395.1894 195.5112,-397.9363"/>
<polygon fill="#191970" stroke="#191970" points="194.8708,-401.3772 205.343,-399.77 196.1542,-394.4958 194.8708,-401.3772"/>
</g>
<!-- Node491225 -->
<g id="node4" class="node">
<title>Node491225</title>
<g id="a_node4"><a xlink:href="cutils_8h.html#acc2d0d790271933eb5f1b1b70edb98ba" target="_top" xlink:title="bswap32">
<polygon fill="none" stroke="#000000" points="205.5,-354.5 205.5,-373.5 265.5,-373.5 265.5,-354.5 205.5,-354.5"/>
<text text-anchor="middle" x="235.5" y="-361.5" font-family="Helvetica,sans-Serif" font-size="10.00" fill="#000000">bswap32</text>
</a>
</g>
</g>
<!-- Node491222&#45;&gt;Node491225 -->
<g id="edge3" class="edge">
<title>Node491222&#45;&gt;Node491225</title>
<path fill="none" stroke="#191970" d="M66.9005,-240.7156C79.7581,-262.9017 114.4653,-317.49 159,-345 169.9149,-351.7424 183.095,-356.0946 195.4173,-358.903"/>
<polygon fill="#191970" stroke="#191970" points="195.0057,-362.3899 205.4978,-360.9176 196.3776,-355.5256 195.0057,-362.3899"/>
</g>
<!-- Node491226 -->
<g id="node5" class="node">
<title>Node491226</title>
<g id="a_node5"><a xlink:href="cutils_8h.html#a099a2e37a35e9b2fe832c74cdeadfe2c" target="_top" xlink:title="bswap64">
<polygon fill="none" stroke="#000000" points="205.5,-316.5 205.5,-335.5 265.5,-335.5 265.5,-316.5 205.5,-316.5"/>
<text text-anchor="middle" x="235.5" y="-323.5" font-family="Helvetica,sans-Serif" font-size="10.00" fill="#000000">bswap64</text>
</a>
</g>
</g>
<!-- Node491222&#45;&gt;Node491226 -->
<g id="edge4" class="edge">
<title>Node491222&#45;&gt;Node491226</title>
<path fill="none" stroke="#191970" d="M70.8032,-240.502C87.1423,-256.6356 122.717,-289.349 159,-307 170.3444,-312.5189 183.4388,-316.5268 195.5516,-319.3964"/>
<polygon fill="#191970" stroke="#191970" points="194.9199,-322.8408 205.4355,-321.5472 196.4084,-316.0009 194.9199,-322.8408"/>
</g>
<!-- Node491227 -->
<g id="node6" class="node">
<title>Node491227</title>
<g id="a_node6"><a xlink:href="cutils_8h.html#ad587834d17e95461893d59661e5e9676" target="_top" xlink:title="get_u16">
<polygon fill="none" stroke="#000000" points="207.5,-278.5 207.5,-297.5 263.5,-297.5 263.5,-278.5 207.5,-278.5"/>
<text text-anchor="middle" x="235.5" y="-285.5" font-family="Helvetica,sans-Serif" font-size="10.00" fill="#000000">get_u16</text>
</a>
</g>
</g>
<!-- Node491222&#45;&gt;Node491227 -->
<g id="edge5" class="edge">
<title>Node491222&#45;&gt;Node491227</title>
<path fill="none" stroke="#191970" d="M83.6689,-240.5801C103.2435,-248.8117 132.6814,-260.6408 159,-269 171.3294,-272.916 184.9844,-276.5307 197.3048,-279.5326"/>
<polygon fill="#191970" stroke="#191970" points="196.7434,-282.9966 207.2817,-281.9033 198.3617,-276.1862 196.7434,-282.9966"/>
</g>
<!-- Node491228 -->
<g id="node7" class="node">
<title>Node491228</title>
<g id="a_node7"><a xlink:href="cutils_8h.html#a941262a5f72fda2ec43ae7911e97a0dc" target="_top" xlink:title="get_u32">
<polygon fill="none" stroke="#000000" points="207.5,-240.5 207.5,-259.5 263.5,-259.5 263.5,-240.5 207.5,-240.5"/>
<text text-anchor="middle" x="235.5" y="-247.5" font-family="Helvetica,sans-Serif" font-size="10.00" fill="#000000">get_u32</text>
</a>
</g>
</g>
<!-- Node491222&#45;&gt;Node491228 -->
<g id="edge6" class="edge">
<title>Node491222&#45;&gt;Node491228</title>
<path fill="none" stroke="#191970" d="M123.3358,-237.7522C148.0155,-240.4471 175.6512,-243.4648 197.3156,-245.8304"/>
<polygon fill="#191970" stroke="#191970" points="197.1113,-249.3288 207.4322,-246.9351 197.8712,-242.3702 197.1113,-249.3288"/>
</g>
<!-- Node491229 -->
<g id="node8" class="node">
<title>Node491229</title>
<g id="a_node8"><a xlink:href="cutils_8h.html#abd459f86984783206f7317582511f8db" target="_top" xlink:title="get_u64">
<polygon fill="none" stroke="#000000" points="207.5,-202.5 207.5,-221.5 263.5,-221.5 263.5,-202.5 207.5,-202.5"/>
<text text-anchor="middle" x="235.5" y="-209.5" font-family="Helvetica,sans-Serif" font-size="10.00" fill="#000000">get_u64</text>
</a>
</g>
</g>
<!-- Node491222&#45;&gt;Node491229 -->
<g id="edge7" class="edge">
<title>Node491222&#45;&gt;Node491229</title>
<path fill="none" stroke="#191970" d="M123.3358,-224.2478C148.0155,-221.5529 175.6512,-218.5352 197.3156,-216.1696"/>
<polygon fill="#191970" stroke="#191970" points="197.8712,-219.6298 207.4322,-215.0649 197.1113,-212.6712 197.8712,-219.6298"/>
</g>
<!-- Node491230 -->
<g id="node9" class="node">
<title>Node491230</title>
<g id="a_node9"><a xlink:href="quickjs_8h.html#a2050bc428da1c65ac7eb87c3fa3b0392" target="_top" xlink:title="JS_NewInt32">
<polygon fill="none" stroke="#000000" points="359,-145.5 359,-164.5 436,-164.5 436,-145.5 359,-145.5"/>
<text text-anchor="middle" x="397.5" y="-152.5" font-family="Helvetica,sans-Serif" font-size="10.00" fill="#000000">JS_NewInt32</text>
</a>
</g>
</g>
<!-- Node491222&#45;&gt;Node491230 -->
<g id="edge8" class="edge">
<title>Node491222&#45;&gt;Node491230</title>
<path fill="none" stroke="#191970" d="M69.6674,-221.3663C85.0399,-204.072 120.2334,-168.3242 159,-155 221.6962,-133.4511 299.2614,-138.8571 348.5716,-145.9301"/>
<polygon fill="#191970" stroke="#191970" points="348.2382,-149.4195 358.6495,-147.4557 349.286,-142.4983 348.2382,-149.4195"/>
</g>
<!-- Node491231 -->
<g id="node10" class="node">
<title>Node491231</title>
<g id="a_node10"><a xlink:href="quickjs_8h.html#a88259aa0da61ac754402c64ccecee116" target="_top" xlink:title="JS_NewUint32">
<polygon fill="none" stroke="#000000" points="193,-164.5 193,-183.5 278,-183.5 278,-164.5 193,-164.5"/>
<text text-anchor="middle" x="235.5" y="-171.5" font-family="Helvetica,sans-Serif" font-size="10.00" fill="#000000">JS_NewUint32</text>
</a>
</g>
</g>
<!-- Node491222&#45;&gt;Node491231 -->
<g id="edge9" class="edge">
<title>Node491222&#45;&gt;Node491231</title>
<path fill="none" stroke="#191970" d="M83.6689,-221.4199C103.2435,-213.1883 132.6814,-201.3592 159,-193 166.6962,-190.5556 174.9089,-188.2286 182.9911,-186.0947"/>
<polygon fill="#191970" stroke="#191970" points="183.9252,-189.4685 192.7414,-183.5927 182.1853,-182.6882 183.9252,-189.4685"/>
</g>
<!-- Node491232 -->
<g id="node11" class="node">
<title>Node491232</title>
<g id="a_node11"><a xlink:href="quickjs_8c.html#a033dd3ebd29c4eb9f0baff1dd0fec0b1" target="_top" xlink:title="JS_ThrowTypeErrorDetached\lArrayBuffer">
<polygon fill="none" stroke="#000000" points="159,-77 159,-107 312,-107 312,-77 159,-77"/>
<text text-anchor="start" x="167" y="-95" font-family="Helvetica,sans-Serif" font-size="10.00" fill="#000000">JS_ThrowTypeErrorDetached</text>
<text text-anchor="middle" x="235.5" y="-84" font-family="Helvetica,sans-Serif" font-size="10.00" fill="#000000">ArrayBuffer</text>
</a>
</g>
</g>
<!-- Node491222&#45;&gt;Node491232 -->
<g id="edge12" class="edge">
<title>Node491222&#45;&gt;Node491232</title>
<path fill="none" stroke="#191970" d="M67.6779,-221.4837C81.6089,-200.7056 117.5114,-150.8356 159,-122 164.6669,-118.0614 170.9237,-114.5401 177.3452,-111.419"/>
<polygon fill="#191970" stroke="#191970" points="179.1541,-114.4421 186.8217,-107.1305 176.2681,-108.0647 179.1541,-114.4421"/>
</g>
<!-- Node491233 -->
<g id="node12" class="node">
<title>Node491233</title>
<g id="a_node12"><a xlink:href="quickjs_8c.html#a525bb5bdbab2566313d9bcd876838d9d" target="_top" xlink:title="JS_ToBool">
<polygon fill="none" stroke="#000000" points="204,-38.5 204,-57.5 267,-57.5 267,-38.5 204,-38.5"/>
<text text-anchor="middle" x="235.5" y="-45.5" font-family="Helvetica,sans-Serif" font-size="10.00" fill="#000000">JS_ToBool</text>
</a>
</g>
</g>
<!-- Node491222&#45;&gt;Node491233 -->
<g id="edge13" class="edge">
<title>Node491222&#45;&gt;Node491233</title>
<path fill="none" stroke="#191970" d="M64.4477,-221.1284C73.4858,-192.6206 103.6115,-109.5605 159,-68 169.0367,-60.469 181.6589,-55.7662 193.7408,-52.8321"/>
<polygon fill="#191970" stroke="#191970" points="194.6171,-56.2248 203.6939,-50.7601 193.1904,-49.3717 194.6171,-56.2248"/>
</g>
<!-- Node491273 -->
<g id="node16" class="node">
<title>Node491273</title>
<g id="a_node16"><a xlink:href="quickjs_8c.html#ad52f50dfe0e0e4aeae7003b97c4c0765" target="_top" xlink:title="JS_ToIndex">
<polygon fill="none" stroke="#000000" points="201.5,-.5 201.5,-19.5 269.5,-19.5 269.5,-.5 201.5,-.5"/>
<text text-anchor="middle" x="235.5" y="-7.5" font-family="Helvetica,sans-Serif" font-size="10.00" fill="#000000">JS_ToIndex</text>
</a>
</g>
</g>
<!-- Node491222&#45;&gt;Node491273 -->
<g id="edge17" class="edge">
<title>Node491222&#45;&gt;Node491273</title>
<path fill="none" stroke="#191970" d="M63.2013,-221.1781C69.4154,-188.3882 94.0192,-81.7922 159,-29 168.2007,-21.5251 179.934,-16.9334 191.4325,-14.1295"/>
<polygon fill="#191970" stroke="#191970" points="192.3068,-17.5234 201.4073,-12.0982 190.9099,-10.6642 192.3068,-17.5234"/>
</g>
<!-- Node491231&#45;&gt;Node491223 -->
<g id="edge11" class="edge">
<title>Node491231&#45;&gt;Node491223</title>
<path fill="none" stroke="#191970" d="M278.0486,-178.6546C289.8344,-181.452 302.0977,-185.909 312,-193 352.7473,-222.1791 378.8624,-277.3876 390.4905,-306.6555"/>
<polygon fill="#191970" stroke="#191970" points="387.2851,-308.0726 394.1194,-316.1685 393.8254,-305.5777 387.2851,-308.0726"/>
</g>
<!-- Node491231&#45;&gt;Node491230 -->
<g id="edge10" class="edge">
<title>Node491231&#45;&gt;Node491230</title>
<path fill="none" stroke="#191970" d="M278.0636,-169.008C299.7694,-166.4622 326.269,-163.3543 348.7877,-160.7132"/>
<polygon fill="#191970" stroke="#191970" points="349.2982,-164.1774 358.8224,-159.5363 348.4828,-157.225 349.2982,-164.1774"/>
</g>
<!-- Node491234 -->
<g id="node13" class="node">
<title>Node491234</title>
<g id="a_node13"><a xlink:href="quickjs_8h.html#a775522f2d084fc8fa0fcb33f390006b4" target="_top" xlink:title="JS_DupValue">
<polygon fill="none" stroke="#000000" points="495.5,-38.5 495.5,-57.5 572.5,-57.5 572.5,-38.5 495.5,-38.5"/>
<text text-anchor="middle" x="534" y="-45.5" font-family="Helvetica,sans-Serif" font-size="10.00" fill="#000000">JS_DupValue</text>
</a>
</g>
</g>
<!-- Node491233&#45;&gt;Node491234 -->
<g id="edge14" class="edge">
<title>Node491233&#45;&gt;Node491234</title>
<path fill="none" stroke="#191970" d="M267.1621,-48C319.2169,-48 423.2427,-48 484.9084,-48"/>
<polygon fill="#191970" stroke="#191970" points="485.1671,-51.5001 495.1671,-48 485.1671,-44.5001 485.1671,-51.5001"/>
</g>
<!-- Node491235 -->
<g id="node14" class="node">
<title>Node491235</title>
<g id="a_node14"><a xlink:href="quickjs_8c.html#a2bf30c9cddfe98a32535843202495069" target="_top" xlink:title="JS_ToBoolFree">
<polygon fill="none" stroke="#000000" points="356,-76.5 356,-95.5 439,-95.5 439,-76.5 356,-76.5"/>
<text text-anchor="middle" x="397.5" y="-83.5" font-family="Helvetica,sans-Serif" font-size="10.00" fill="#000000">JS_ToBoolFree</text>
</a>
</g>
</g>
<!-- Node491233&#45;&gt;Node491235 -->
<g id="edge15" class="edge">
<title>Node491233&#45;&gt;Node491235</title>
<path fill="none" stroke="#191970" d="M267.1198,-55.417C289.8182,-60.7413 320.8826,-68.028 346.9955,-74.1533"/>
<polygon fill="#191970" stroke="#191970" points="346.1983,-77.5612 356.7333,-76.4374 347.7969,-70.7462 346.1983,-77.5612"/>
</g>
<!-- Node491236 -->
<g id="node15" class="node">
<title>Node491236</title>
<g id="a_node15"><a xlink:href="quickjs_8h.html#afaa20c47565bc704c6c85f3d77254e7d" target="_top" xlink:title="JS_FreeValue">
<polygon fill="none" stroke="#ff0000" points="495,-76.5 495,-95.5 573,-95.5 573,-76.5 495,-76.5"/>
<text text-anchor="middle" x="534" y="-83.5" font-family="Helvetica,sans-Serif" font-size="10.00" fill="#000000">JS_FreeValue</text>
</a>
</g>
</g>
<!-- Node491235&#45;&gt;Node491236 -->
<g id="edge16" class="edge">
<title>Node491235&#45;&gt;Node491236</title>
<path fill="none" stroke="#191970" d="M439.1962,-86C453.5929,-86 469.8571,-86 484.7976,-86"/>
<polygon fill="#191970" stroke="#191970" points="484.8903,-89.5001 494.8903,-86 484.8903,-82.5001 484.8903,-89.5001"/>
</g>
<!-- Node491274 -->
<g id="node17" class="node">
<title>Node491274</title>
<g id="a_node17"><a xlink:href="quickjs_8c.html#aee6a60a9e9f3c0d9827d5cb0e15c23b4" target="_top" xlink:title="JS_ToInt64Sat">
<polygon fill="none" stroke="#000000" points="356.5,-.5 356.5,-19.5 438.5,-19.5 438.5,-.5 356.5,-.5"/>
<text text-anchor="middle" x="397.5" y="-7.5" font-family="Helvetica,sans-Serif" font-size="10.00" fill="#000000">JS_ToInt64Sat</text>
</a>
</g>
</g>
<!-- Node491273&#45;&gt;Node491274 -->
<g id="edge18" class="edge">
<title>Node491273&#45;&gt;Node491274</title>
<path fill="none" stroke="#191970" d="M269.856,-10C292.0597,-10 321.3569,-10 346.2826,-10"/>
<polygon fill="#191970" stroke="#191970" points="346.3063,-13.5001 356.3063,-10 346.3063,-6.5001 346.3063,-13.5001"/>
</g>
<!-- Node491274&#45;&gt;Node491234 -->
<g id="edge19" class="edge">
<title>Node491274&#45;&gt;Node491234</title>
<path fill="none" stroke="#191970" d="M431.9447,-19.589C449.4847,-24.4719 471.01,-30.4643 489.7631,-35.685"/>
<polygon fill="#191970" stroke="#191970" points="488.994,-39.1039 499.5663,-38.4141 490.8713,-32.3603 488.994,-39.1039"/>
</g>
<!-- Node491275 -->
<g id="node18" class="node">
<title>Node491275</title>
<g id="a_node18"><a xlink:href="quickjs_8c.html#a8c94da482e7e46bf333be67ff97e58c1" target="_top" xlink:title="JS_ToInt64SatFree">
<polygon fill="none" stroke="#ff0000" points="483,-.5 483,-19.5 585,-19.5 585,-.5 483,-.5"/>
<text text-anchor="middle" x="534" y="-7.5" font-family="Helvetica,sans-Serif" font-size="10.00" fill="#000000">JS_ToInt64SatFree</text>
</a>
</g>
</g>
<!-- Node491274&#45;&gt;Node491275 -->
<g id="edge20" class="edge">
<title>Node491274&#45;&gt;Node491275</title>
<path fill="none" stroke="#191970" d="M438.8249,-10C449.3985,-10 460.9988,-10 472.3531,-10"/>
<polygon fill="#191970" stroke="#191970" points="472.6748,-13.5001 482.6748,-10 472.6747,-6.5001 472.6748,-13.5001"/>
</g>
</g>
</svg>
