<?xml version="1.0" encoding="UTF-8" standalone="no"?>
<!DOCTYPE svg PUBLIC "-//W3C//DTD SVG 1.1//EN"
 "http://www.w3.org/Graphics/SVG/1.1/DTD/svg11.dtd">
<!-- Generated by graphviz version 2.40.1 (20161225.0304)
 -->
<!-- Title: bc_idx_to_atom Pages: 1 -->
<!--zoomable 72 -->
<svg id="main" version="1.1" xmlns="http://www.w3.org/2000/svg" xmlns:xlink="http://www.w3.org/1999/xlink" xml:space="preserve" onload="init(evt)">
<style type="text/css"><![CDATA[
.edge:hover path { stroke: red; }
.edge:hover polygon { stroke: red; fill: red; }
]]></style>
<script type="text/javascript"><![CDATA[
var edges = document.getElementsByTagName('g');
if (edges && edges.length) {
  for (var i=0;i<edges.length;i++) {
    if (edges[i].id.substr(0,4)=='edge') {
      edges[i].setAttribute('class','edge');
    }
  }
}
]]></script>
        <defs>
                <circle id="rim" cx="0" cy="0" r="7"/>
                <circle id="rim2" cx="0" cy="0" r="3.5"/>
                <g id="zoomPlus">
                        <use xlink:href="#rim" fill="#404040">
                                <set attributeName="fill" to="#808080" begin="zoomplus.mouseover" end="zoomplus.mouseout"/>
                        </use>
                        <path d="M-4,0h8M0,-4v8" fill="none" stroke="white" stroke-width="1.5" pointer-events="none"/>
                </g>
                <g id="zoomMin">
                        <use xlink:href="#rim" fill="#404040">
                                <set attributeName="fill" to="#808080" begin="zoomminus.mouseover" end="zoomminus.mouseout"/>
                        </use>
                        <path d="M-4,0h8" fill="none" stroke="white" stroke-width="1.5" pointer-events="none"/>
                </g>
                <g id="dirArrow">
                        <path fill="none" stroke="white" stroke-width="1.5" d="M0,-3.0v7 M-2.5,-0.5L0,-3.0L2.5,-0.5"/>
                </g>
               <g id="resetDef">
                       <use xlink:href="#rim2" fill="#404040">
                               <set attributeName="fill" to="#808080" begin="reset.mouseover" end="reset.mouseout"/>
                       </use>
               </g>
        </defs>

<script type="text/javascript">
var viewWidth = 706;
var viewHeight = 72;
var sectionId = 'dynsection-1334';
</script>
<script xlink:href="svgpan.js"/>
<svg id="graph" class="graph">
<g id="viewport">
<title>bc_idx_to_atom</title>
<!-- Node364500 -->
<g id="node1" class="node">
<title>Node364500</title>
<polygon fill="#bfbfbf" stroke="#000000" points="0,-19.5 0,-38.5 94,-38.5 94,-19.5 0,-19.5"/>
<text text-anchor="middle" x="47" y="-26.5" font-family="Helvetica,sans-Serif" font-size="10.00" fill="#000000">bc_idx_to_atom</text>
</g>
<!-- Node364501 -->
<g id="node2" class="node">
<title>Node364501</title>
<g id="a_node2"><a xlink:href="quickjs_8c.html#a267b1caf06e54dfdf809cd51602400b4" target="_top" xlink:title="bc_get_atom">
<polygon fill="none" stroke="#000000" points="160.5,-.5 160.5,-19.5 240.5,-19.5 240.5,-.5 160.5,-.5"/>
<text text-anchor="middle" x="200.5" y="-7.5" font-family="Helvetica,sans-Serif" font-size="10.00" fill="#000000">bc_get_atom</text>
</a>
</g>
</g>
<!-- Node364500&#45;&gt;Node364501 -->
<g id="edge1" class="edge">
<title>Node364500&#45;&gt;Node364501</title>
<path fill="none" stroke="#191970" d="M104.4447,-21.8896C123.0456,-19.5872 143.2645,-17.0845 160.3326,-14.9719"/>
<polygon fill="#191970" stroke="#191970" points="103.8019,-18.4424 94.3076,-23.1443 104.6618,-25.3893 103.8019,-18.4424"/>
</g>
<!-- Node364513 -->
<g id="node7" class="node">
<title>Node364513</title>
<g id="a_node7"><a xlink:href="quickjs_8c.html#ab64e04b510d4c4073aa468fc0a3ac0b1" target="_top" xlink:title="JS_ReadFunctionBytecode">
<polygon fill="none" stroke="#000000" points="130,-38.5 130,-57.5 271,-57.5 271,-38.5 130,-38.5"/>
<text text-anchor="middle" x="200.5" y="-45.5" font-family="Helvetica,sans-Serif" font-size="10.00" fill="#000000">JS_ReadFunctionBytecode</text>
</a>
</g>
</g>
<!-- Node364500&#45;&gt;Node364513 -->
<g id="edge11" class="edge">
<title>Node364500&#45;&gt;Node364513</title>
<path fill="none" stroke="#191970" d="M104.3069,-36.0934C112.6623,-37.1276 121.3467,-38.2025 129.9275,-39.2646"/>
<polygon fill="#191970" stroke="#191970" points="104.6618,-32.6107 94.3076,-34.8557 103.8019,-39.5577 104.6618,-32.6107"/>
</g>
<!-- Node364502 -->
<g id="node3" class="node">
<title>Node364502</title>
<g id="a_node3"><a xlink:href="quickjs_8c.html#a367627778ac537f4bb1f0fd07a2dee1b" target="_top" xlink:title="JS_ReadFunctionTag">
<polygon fill="none" stroke="#000000" points="307,-19.5 307,-38.5 419,-38.5 419,-19.5 307,-19.5"/>
<text text-anchor="middle" x="363" y="-26.5" font-family="Helvetica,sans-Serif" font-size="10.00" fill="#000000">JS_ReadFunctionTag</text>
</a>
</g>
</g>
<!-- Node364501&#45;&gt;Node364502 -->
<g id="edge2" class="edge">
<title>Node364501&#45;&gt;Node364502</title>
<path fill="none" stroke="#191970" d="M250.8052,-15.8818C268.528,-17.954 288.5602,-20.2963 306.7424,-22.4222"/>
<polygon fill="#191970" stroke="#191970" points="251.0074,-12.3817 240.6685,-14.6966 250.1944,-19.3344 251.0074,-12.3817"/>
</g>
<!-- Node364504 -->
<g id="node5" class="node">
<title>Node364504</title>
<g id="a_node5"><a xlink:href="quickjs_8c.html#a21c7b14be807f7ce7f71c19e2e80380c" target="_top" xlink:title="JS_ReadModule">
<polygon fill="none" stroke="#000000" points="601.5,-38.5 601.5,-57.5 691.5,-57.5 691.5,-38.5 601.5,-38.5"/>
<text text-anchor="middle" x="646.5" y="-45.5" font-family="Helvetica,sans-Serif" font-size="10.00" fill="#000000">JS_ReadModule</text>
</a>
</g>
</g>
<!-- Node364501&#45;&gt;Node364504 -->
<g id="edge9" class="edge">
<title>Node364501&#45;&gt;Node364504</title>
<path fill="none" stroke="#191970" d="M250.5998,-22.0192C257.5326,-24.1108 264.5,-26.4457 271,-29 287.8382,-35.617 289.439,-43.6502 307,-48 409.8386,-73.4729 535.639,-63.1743 601.4553,-54.7795"/>
<polygon fill="#191970" stroke="#191970" points="251.1033,-18.5226 240.526,-19.1316 249.1744,-25.2517 251.1033,-18.5226"/>
</g>
<!-- Node364505 -->
<g id="node6" class="node">
<title>Node364505</title>
<g id="a_node6"><a xlink:href="quickjs_8c.html#ad0e3230c3896c2048283a9302f184fb4" target="_top" xlink:title="JS_ReadObjectTag">
<polygon fill="none" stroke="#000000" points="595,-.5 595,-19.5 698,-19.5 698,-.5 595,-.5"/>
<text text-anchor="middle" x="646.5" y="-7.5" font-family="Helvetica,sans-Serif" font-size="10.00" fill="#000000">JS_ReadObjectTag</text>
</a>
</g>
</g>
<!-- Node364501&#45;&gt;Node364505 -->
<g id="edge10" class="edge">
<title>Node364501&#45;&gt;Node364505</title>
<path fill="none" stroke="#191970" d="M251.0915,-10C336.5196,-10 508.4668,-10 594.702,-10"/>
<polygon fill="#191970" stroke="#191970" points="250.8662,-6.5001 240.8661,-10 250.8661,-13.5001 250.8662,-6.5001"/>
</g>
<!-- Node364503 -->
<g id="node4" class="node">
<title>Node364503</title>
<g id="a_node4"><a xlink:href="quickjs_8c.html#a4b8ef2bb3b35e4a5f6ed8bd837a50e7c" target="_top" xlink:title="JS_ReadObjectRec">
<polygon fill="none" stroke="#ff0000" points="455,-19.5 455,-38.5 559,-38.5 559,-19.5 455,-19.5"/>
<text text-anchor="middle" x="507" y="-26.5" font-family="Helvetica,sans-Serif" font-size="10.00" fill="#000000">JS_ReadObjectRec</text>
</a>
</g>
</g>
<!-- Node364502&#45;&gt;Node364503 -->
<g id="edge3" class="edge">
<title>Node364502&#45;&gt;Node364503</title>
<path fill="none" stroke="#191970" d="M429.3376,-22.2686C437.8106,-22.2129 446.3888,-22.2824 454.599,-22.4774"/>
<polygon fill="#191970" stroke="#191970" points="429.0412,-18.772 419.0865,-22.3987 429.1301,-25.7714 429.0412,-18.772"/>
</g>
<!-- Node364503&#45;&gt;Node364502 -->
<g id="edge4" class="edge">
<title>Node364503&#45;&gt;Node364502</title>
<path fill="none" stroke="#191970" d="M444.4337,-35.6982C436.0025,-35.7912 427.3956,-35.7589 419.0865,-35.6013"/>
<polygon fill="#191970" stroke="#191970" points="444.661,-39.1949 454.599,-35.5226 444.54,-32.196 444.661,-39.1949"/>
</g>
<!-- Node364503&#45;&gt;Node364504 -->
<g id="edge5" class="edge">
<title>Node364503&#45;&gt;Node364504</title>
<path fill="none" stroke="#191970" d="M569.6068,-30.8087C586.2628,-32.9296 603.4678,-35.6433 617.369,-38.4251"/>
<polygon fill="#191970" stroke="#191970" points="569.689,-27.2932 559.3415,-29.5694 568.8499,-34.2428 569.689,-27.2932"/>
</g>
<!-- Node364503&#45;&gt;Node364505 -->
<g id="edge7" class="edge">
<title>Node364503&#45;&gt;Node364505</title>
<path fill="none" stroke="#191970" d="M545.9464,-17.5683C561.0776,-14.8541 578.6289,-12.3242 594.7923,-10.4975"/>
<polygon fill="#191970" stroke="#191970" points="545.0784,-14.1704 535.9045,-19.4705 546.3812,-21.0481 545.0784,-14.1704"/>
</g>
<!-- Node364504&#45;&gt;Node364503 -->
<g id="edge6" class="edge">
<title>Node364504&#45;&gt;Node364503</title>
<path fill="none" stroke="#191970" d="M591.3814,-47.109C572.4149,-44.8773 551.937,-41.747 535.9045,-38.5295"/>
<polygon fill="#191970" stroke="#191970" points="591.1023,-50.5994 601.4266,-48.2206 591.8722,-43.6419 591.1023,-50.5994"/>
</g>
<!-- Node364505&#45;&gt;Node364503 -->
<g id="edge8" class="edge">
<title>Node364505&#45;&gt;Node364503</title>
<path fill="none" stroke="#191970" d="M607.4633,-21.4479C592.5503,-24.1206 575.2968,-26.6133 559.3415,-28.4306"/>
<polygon fill="#191970" stroke="#191970" points="608.1934,-24.8719 617.369,-19.5749 606.8928,-17.9938 608.1934,-24.8719"/>
</g>
<!-- Node364513&#45;&gt;Node364502 -->
<g id="edge12" class="edge">
<title>Node364513&#45;&gt;Node364502</title>
<path fill="none" stroke="#191970" d="M281.3091,-38.5515C289.8555,-37.5523 298.4083,-36.5523 306.5894,-35.5957"/>
<polygon fill="#191970" stroke="#191970" points="280.828,-35.0839 271.3022,-39.7216 281.641,-42.0365 280.828,-35.0839"/>
</g>
</g>
</svg>
        <g id="navigator" transform="translate(0 0)" fill="#404254">
                <rect fill="#f2f5e9" fill-opacity="0.5" stroke="#606060" stroke-width=".5" x="0" y="0" width="60" height="60"/>
                <use id="zoomplus" xlink:href="#zoomPlus" x="17" y="9" onmousedown="handleZoom(evt,'in')"/>
                <use id="zoomminus" xlink:href="#zoomMin" x="42" y="9" onmousedown="handleZoom(evt,'out')"/>
                <use id="reset" xlink:href="#resetDef" x="30" y="36" onmousedown="handleReset()"/>
                <g id="arrowUp" xlink:href="#dirArrow" transform="translate(30 24)" onmousedown="handlePan(0,-1)">
                  <use xlink:href="#rim" fill="#404040">
                        <set attributeName="fill" to="#808080" begin="arrowUp.mouseover" end="arrowUp.mouseout"/>
                  </use>
                  <path fill="none" stroke="white" stroke-width="1.5" d="M0,-3.0v7 M-2.5,-0.5L0,-3.0L2.5,-0.5"/>
                </g>
                <g id="arrowRight" xlink:href="#dirArrow" transform="rotate(90) translate(36 -43)" onmousedown="handlePan(1,0)">
                  <use xlink:href="#rim" fill="#404040">
                        <set attributeName="fill" to="#808080" begin="arrowRight.mouseover" end="arrowRight.mouseout"/>
                  </use>
                  <path fill="none" stroke="white" stroke-width="1.5" d="M0,-3.0v7 M-2.5,-0.5L0,-3.0L2.5,-0.5"/>
                </g>
                <g id="arrowDown" xlink:href="#dirArrow" transform="rotate(180) translate(-30 -48)" onmousedown="handlePan(0,1)">
                  <use xlink:href="#rim" fill="#404040">
                        <set attributeName="fill" to="#808080" begin="arrowDown.mouseover" end="arrowDown.mouseout"/>
                  </use>
                  <path fill="none" stroke="white" stroke-width="1.5" d="M0,-3.0v7 M-2.5,-0.5L0,-3.0L2.5,-0.5"/>
                </g>
                <g id="arrowLeft" xlink:href="#dirArrow" transform="rotate(270) translate(-36 17)" onmousedown="handlePan(-1,0)">
                  <use xlink:href="#rim" fill="#404040">
                        <set attributeName="fill" to="#808080" begin="arrowLeft.mouseover" end="arrowLeft.mouseout"/>
                  </use>
                  <path fill="none" stroke="white" stroke-width="1.5" d="M0,-3.0v7 M-2.5,-0.5L0,-3.0L2.5,-0.5"/>
                </g>
        </g>
        <svg viewBox="0 0 15 15" width="100%" height="30px" preserveAspectRatio="xMaxYMin meet">
         <g id="arrow_out" transform="scale(0.3 0.3)">
          <a xlink:href="quickjs_8c_af4fed3f85dbff3b99bb7d672b48cab0c_icgraph_org.svg" target="_base">
           <rect id="button" ry="5" rx="5" y="6" x="6" height="38" width="38"
                fill="#f2f5e9" fill-opacity="0.5" stroke="#606060" stroke-width="1.0"/>
           <path id="arrow"
             d="M 11.500037,31.436501 C 11.940474,20.09759 22.043105,11.32322 32.158766,21.979434 L 37.068811,17.246167 C 37.068811,17.246167 37.088388,32 37.088388,32 L 22.160133,31.978069 C 22.160133,31.978069 26.997745,27.140456 26.997745,27.140456 C 18.528582,18.264221 13.291696,25.230495 11.500037,31.436501 z"
             style="fill:#404040;"/>
          </a>
         </g>
        </svg>
</svg>
