<?xml version="1.0" encoding="UTF-8" standalone="no"?>
<!DOCTYPE svg PUBLIC "-//W3C//DTD SVG 1.1//EN"
 "http://www.w3.org/Graphics/SVG/1.1/DTD/svg11.dtd">
<!-- Generated by graphviz version 2.40.1 (20161225.0304)
 -->
<!-- Title: js_std_file_tell Pages: 1 -->
<svg width="411pt" height="104pt"
 viewBox="0.00 0.00 411.00 104.00" xmlns="http://www.w3.org/2000/svg" xmlns:xlink="http://www.w3.org/1999/xlink">
<g id="graph0" class="graph" transform="scale(1 1) rotate(0) translate(4 100)">
<title>js_std_file_tell</title>
<!-- Node10386 -->
<g id="node1" class="node">
<title>Node10386</title>
<polygon fill="#bfbfbf" stroke="#000000" points="0,-38.5 0,-57.5 86,-57.5 86,-38.5 0,-38.5"/>
<text text-anchor="middle" x="43" y="-45.5" font-family="Helvetica,sans-Serif" font-size="10.00" fill="#000000">js_std_file_tell</text>
</g>
<!-- Node10387 -->
<g id="node2" class="node">
<title>Node10387</title>
<g id="a_node2"><a xlink:href="quickjs_8c.html#a213070e88270656c91c47f11bfb138e2" target="_top" xlink:title="JS_NewBigInt64">
<polygon fill="none" stroke="#000000" points="122,-76.5 122,-95.5 215,-95.5 215,-76.5 122,-76.5"/>
<text text-anchor="middle" x="168.5" y="-83.5" font-family="Helvetica,sans-Serif" font-size="10.00" fill="#000000">JS_NewBigInt64</text>
</a>
</g>
</g>
<!-- Node10386&#45;&gt;Node10387 -->
<g id="edge1" class="edge">
<title>Node10386&#45;&gt;Node10387</title>
<path fill="none" stroke="#191970" d="M74.6689,-57.589C90.5725,-62.4044 110.0396,-68.2988 127.1114,-73.468"/>
<polygon fill="#191970" stroke="#191970" points="126.256,-76.8658 136.8412,-76.4141 128.2846,-70.1662 126.256,-76.8658"/>
</g>
<!-- Node10389 -->
<g id="node4" class="node">
<title>Node10389</title>
<g id="a_node4"><a xlink:href="quickjs_8h.html#a6acbc709e59969eac6775f9b253b438f" target="_top" xlink:title="JS_NewInt64">
<polygon fill="none" stroke="#000000" points="130,-38.5 130,-57.5 207,-57.5 207,-38.5 130,-38.5"/>
<text text-anchor="middle" x="168.5" y="-45.5" font-family="Helvetica,sans-Serif" font-size="10.00" fill="#000000">JS_NewInt64</text>
</a>
</g>
</g>
<!-- Node10386&#45;&gt;Node10389 -->
<g id="edge3" class="edge">
<title>Node10386&#45;&gt;Node10389</title>
<path fill="none" stroke="#191970" d="M86.19,-48C96.9363,-48 108.5331,-48 119.535,-48"/>
<polygon fill="#191970" stroke="#191970" points="119.854,-51.5001 129.8539,-48 119.8539,-44.5001 119.854,-51.5001"/>
</g>
<!-- Node10392 -->
<g id="node7" class="node">
<title>Node10392</title>
<g id="a_node7"><a xlink:href="quickjs-libc_8c.html#ae0b015235e2737bee13533c992f0b71b" target="_top" xlink:title="js_std_file_get">
<polygon fill="none" stroke="#000000" points="125.5,-.5 125.5,-19.5 211.5,-19.5 211.5,-.5 125.5,-.5"/>
<text text-anchor="middle" x="168.5" y="-7.5" font-family="Helvetica,sans-Serif" font-size="10.00" fill="#000000">js_std_file_get</text>
</a>
</g>
</g>
<!-- Node10386&#45;&gt;Node10392 -->
<g id="edge6" class="edge">
<title>Node10386&#45;&gt;Node10392</title>
<path fill="none" stroke="#191970" d="M74.6689,-38.411C90.5725,-33.5956 110.0396,-27.7012 127.1114,-22.532"/>
<polygon fill="#191970" stroke="#191970" points="128.2846,-25.8338 136.8412,-19.5859 126.256,-19.1342 128.2846,-25.8338"/>
</g>
<!-- Node10388 -->
<g id="node3" class="node">
<title>Node10388</title>
<g id="a_node3"><a xlink:href="quickjs_8c.html#acbf99cd07615bd84e8b0ace04da3a33a" target="_top" xlink:title="JS_ThrowUnsupportedBigint">
<polygon fill="none" stroke="#000000" points="251,-76.5 251,-95.5 403,-95.5 403,-76.5 251,-76.5"/>
<text text-anchor="middle" x="327" y="-83.5" font-family="Helvetica,sans-Serif" font-size="10.00" fill="#000000">JS_ThrowUnsupportedBigint</text>
</a>
</g>
</g>
<!-- Node10387&#45;&gt;Node10388 -->
<g id="edge2" class="edge">
<title>Node10387&#45;&gt;Node10388</title>
<path fill="none" stroke="#191970" d="M215.198,-86C223.2708,-86 231.8891,-86 240.6239,-86"/>
<polygon fill="#191970" stroke="#191970" points="240.9055,-89.5001 250.9054,-86 240.9054,-82.5001 240.9055,-89.5001"/>
</g>
<!-- Node10390 -->
<g id="node5" class="node">
<title>Node10390</title>
<g id="a_node5"><a xlink:href="quickjs_8h.html#a2050bc428da1c65ac7eb87c3fa3b0392" target="_top" xlink:title="JS_NewInt32">
<polygon fill="none" stroke="#000000" points="288.5,-38.5 288.5,-57.5 365.5,-57.5 365.5,-38.5 288.5,-38.5"/>
<text text-anchor="middle" x="327" y="-45.5" font-family="Helvetica,sans-Serif" font-size="10.00" fill="#000000">JS_NewInt32</text>
</a>
</g>
</g>
<!-- Node10389&#45;&gt;Node10390 -->
<g id="edge4" class="edge">
<title>Node10389&#45;&gt;Node10390</title>
<path fill="none" stroke="#191970" d="M207.2735,-48C228.6525,-48 255.4035,-48 278.1936,-48"/>
<polygon fill="#191970" stroke="#191970" points="278.3525,-51.5001 288.3525,-48 278.3524,-44.5001 278.3525,-51.5001"/>
</g>
<!-- Node10391 -->
<g id="node6" class="node">
<title>Node10391</title>
<g id="a_node6"><a xlink:href="quickjs_8h.html#a9bf98b18de88b4199910a43e933eb97d" target="_top" xlink:title="__JS_NewFloat64">
<polygon fill="none" stroke="#000000" points="277.5,-.5 277.5,-19.5 376.5,-19.5 376.5,-.5 277.5,-.5"/>
<text text-anchor="middle" x="327" y="-7.5" font-family="Helvetica,sans-Serif" font-size="10.00" fill="#000000">__JS_NewFloat64</text>
</a>
</g>
</g>
<!-- Node10389&#45;&gt;Node10391 -->
<g id="edge5" class="edge">
<title>Node10389&#45;&gt;Node10391</title>
<path fill="none" stroke="#191970" d="M207.2735,-38.7042C228.4294,-33.6321 254.846,-27.2988 277.4791,-21.8725"/>
<polygon fill="#191970" stroke="#191970" points="278.3407,-25.2652 287.2491,-19.5302 276.7086,-18.4581 278.3407,-25.2652"/>
</g>
</g>
</svg>
