<?xml version="1.0" encoding="UTF-8" standalone="no"?>
<!DOCTYPE svg PUBLIC "-//W3C//DTD SVG 1.1//EN"
 "http://www.w3.org/Graphics/SVG/1.1/DTD/svg11.dtd">
<!-- Generated by graphviz version 2.40.1 (20161225.0304)
 -->
<!-- Title: JS_AddIntrinsicRegExpCompiler Pages: 1 -->
<svg width="620pt" height="28pt"
 viewBox="0.00 0.00 620.00 28.00" xmlns="http://www.w3.org/2000/svg" xmlns:xlink="http://www.w3.org/1999/xlink">
<g id="graph0" class="graph" transform="scale(1 1) rotate(0) translate(4 24)">
<title>JS_AddIntrinsicRegExpCompiler</title>
<!-- Node8336 -->
<g id="node1" class="node">
<title>Node8336</title>
<polygon fill="#bfbfbf" stroke="#000000" points="0,-.5 0,-19.5 169,-19.5 169,-.5 0,-.5"/>
<text text-anchor="middle" x="84.5" y="-7.5" font-family="Helvetica,sans-Serif" font-size="10.00" fill="#000000">JS_AddIntrinsicRegExpCompiler</text>
</g>
<!-- Node8337 -->
<g id="node2" class="node">
<title>Node8337</title>
<g id="a_node2"><a xlink:href="quickjs_8c.html#aafc8241682ce24b6d72e0f237ee85a51" target="_top" xlink:title="JS_AddIntrinsicRegExp">
<polygon fill="none" stroke="#000000" points="205,-.5 205,-19.5 330,-19.5 330,-.5 205,-.5"/>
<text text-anchor="middle" x="267.5" y="-7.5" font-family="Helvetica,sans-Serif" font-size="10.00" fill="#000000">JS_AddIntrinsicRegExp</text>
</a>
</g>
</g>
<!-- Node8336&#45;&gt;Node8337 -->
<g id="edge1" class="edge">
<title>Node8336&#45;&gt;Node8337</title>
<path fill="none" stroke="#191970" d="M179.2493,-10C187.9501,-10 196.6116,-10 204.9187,-10"/>
<polygon fill="#191970" stroke="#191970" points="179.0363,-6.5001 169.0363,-10 179.0362,-13.5001 179.0363,-6.5001"/>
</g>
<!-- Node8338 -->
<g id="node3" class="node">
<title>Node8338</title>
<g id="a_node3"><a xlink:href="quickjs_8c.html#ad8aedb643b8753b7a15f6cb2df61945e" target="_top" xlink:title="JS_NewContext">
<polygon fill="none" stroke="#000000" points="366,-.5 366,-19.5 457,-19.5 457,-.5 366,-.5"/>
<text text-anchor="middle" x="411.5" y="-7.5" font-family="Helvetica,sans-Serif" font-size="10.00" fill="#000000">JS_NewContext</text>
</a>
</g>
</g>
<!-- Node8337&#45;&gt;Node8338 -->
<g id="edge2" class="edge">
<title>Node8337&#45;&gt;Node8338</title>
<path fill="none" stroke="#191970" d="M340.3978,-10C349.0683,-10 357.7214,-10 365.8541,-10"/>
<polygon fill="#191970" stroke="#191970" points="340.2416,-6.5001 330.2416,-10 340.2416,-13.5001 340.2416,-6.5001"/>
</g>
<!-- Node8339 -->
<g id="node4" class="node">
<title>Node8339</title>
<g id="a_node4"><a xlink:href="classqjs_1_1Context.html#a4392a23648acfc4bf6b445336efb5007" target="_top" xlink:title="qjs::Context::Context">
<polygon fill="none" stroke="#ff0000" points="493,-.5 493,-19.5 612,-19.5 612,-.5 493,-.5"/>
<text text-anchor="middle" x="552.5" y="-7.5" font-family="Helvetica,sans-Serif" font-size="10.00" fill="#000000">qjs::Context::Context</text>
</a>
</g>
</g>
<!-- Node8338&#45;&gt;Node8339 -->
<g id="edge3" class="edge">
<title>Node8338&#45;&gt;Node8339</title>
<path fill="none" stroke="#191970" d="M467.322,-10C475.7011,-10 484.3697,-10 492.8255,-10"/>
<polygon fill="#191970" stroke="#191970" points="467.2787,-6.5001 457.2787,-10 467.2786,-13.5001 467.2787,-6.5001"/>
</g>
</g>
</svg>
