<?xml version="1.0" encoding="UTF-8" standalone="no"?>
<!DOCTYPE svg PUBLIC "-//W3C//DTD SVG 1.1//EN"
 "http://www.w3.org/Graphics/SVG/1.1/DTD/svg11.dtd">
<!-- Generated by graphviz version 2.40.1 (20161225.0304)
 -->
<!-- Title: js_dup_message_pipe Pages: 1 -->
<svg width="521pt" height="28pt"
 viewBox="0.00 0.00 521.00 28.00" xmlns="http://www.w3.org/2000/svg" xmlns:xlink="http://www.w3.org/1999/xlink">
<g id="graph0" class="graph" transform="scale(1 1) rotate(0) translate(4 24)">
<title>js_dup_message_pipe</title>
<!-- Node28349 -->
<g id="node1" class="node">
<title>Node28349</title>
<polygon fill="#bfbfbf" stroke="#000000" points="0,-.5 0,-19.5 124,-19.5 124,-.5 0,-.5"/>
<text text-anchor="middle" x="62" y="-7.5" font-family="Helvetica,sans-Serif" font-size="10.00" fill="#000000">js_dup_message_pipe</text>
</g>
<!-- Node28350 -->
<g id="node2" class="node">
<title>Node28350</title>
<g id="a_node2"><a xlink:href="quickjs-libc_8c.html#a8129754877bdfb4d22f64dae5ba8e778" target="_top" xlink:title="js_worker_ctor_internal">
<polygon fill="none" stroke="#000000" points="160,-.5 160,-19.5 291,-19.5 291,-.5 160,-.5"/>
<text text-anchor="middle" x="225.5" y="-7.5" font-family="Helvetica,sans-Serif" font-size="10.00" fill="#000000">js_worker_ctor_internal</text>
</a>
</g>
</g>
<!-- Node28349&#45;&gt;Node28350 -->
<g id="edge1" class="edge">
<title>Node28349&#45;&gt;Node28350</title>
<path fill="none" stroke="#191970" d="M134.4897,-10C142.9353,-10 151.5145,-10 159.8604,-10"/>
<polygon fill="#191970" stroke="#191970" points="134.2788,-6.5001 124.2788,-10 134.2787,-13.5001 134.2788,-6.5001"/>
</g>
<!-- Node28351 -->
<g id="node3" class="node">
<title>Node28351</title>
<g id="a_node3"><a xlink:href="quickjs-libc_8c.html#aff1e6131e8bf8b7eb25307623ad669e7" target="_top" xlink:title="js_worker_ctor">
<polygon fill="none" stroke="#000000" points="327,-.5 327,-19.5 415,-19.5 415,-.5 327,-.5"/>
<text text-anchor="middle" x="371" y="-7.5" font-family="Helvetica,sans-Serif" font-size="10.00" fill="#000000">js_worker_ctor</text>
</a>
</g>
</g>
<!-- Node28350&#45;&gt;Node28351 -->
<g id="edge2" class="edge">
<title>Node28350&#45;&gt;Node28351</title>
<path fill="none" stroke="#191970" d="M301.2306,-10C309.9369,-10 318.5861,-10 326.6784,-10"/>
<polygon fill="#191970" stroke="#191970" points="301.0141,-6.5001 291.0141,-10 301.014,-13.5001 301.0141,-6.5001"/>
</g>
<!-- Node28352 -->
<g id="node4" class="node">
<title>Node28352</title>
<g id="a_node4"><a xlink:href="quickjs-libc_8c.html#a066e7962ce24f22d5df20968a8baa346" target="_top" xlink:title="js_os_init">
<polygon fill="none" stroke="#ff0000" points="451,-.5 451,-19.5 513,-19.5 513,-.5 451,-.5"/>
<text text-anchor="middle" x="482" y="-7.5" font-family="Helvetica,sans-Serif" font-size="10.00" fill="#000000">js_os_init</text>
</a>
</g>
</g>
<!-- Node28351&#45;&gt;Node28352 -->
<g id="edge3" class="edge">
<title>Node28351&#45;&gt;Node28352</title>
<path fill="none" stroke="#191970" d="M425.4108,-10C434.1771,-10 442.9796,-10 450.9431,-10"/>
<polygon fill="#191970" stroke="#191970" points="425.1891,-6.5001 415.1891,-10 425.189,-13.5001 425.1891,-6.5001"/>
</g>
</g>
</svg>
