<?xml version="1.0" encoding="UTF-8" standalone="no"?>
<!DOCTYPE svg PUBLIC "-//W3C//DTD SVG 1.1//EN"
 "http://www.w3.org/Graphics/SVG/1.1/DTD/svg11.dtd">
<!-- Generated by graphviz version 2.40.1 (20161225.0304)
 -->
<!-- Title: async_func_init Pages: 1 -->
<svg width="218pt" height="104pt"
 viewBox="0.00 0.00 218.00 104.00" xmlns="http://www.w3.org/2000/svg" xmlns:xlink="http://www.w3.org/1999/xlink">
<g id="graph0" class="graph" transform="scale(1 1) rotate(0) translate(4 100)">
<title>async_func_init</title>
<!-- Node304189 -->
<g id="node1" class="node">
<title>Node304189</title>
<polygon fill="#bfbfbf" stroke="#000000" points="0,-38.5 0,-57.5 92,-57.5 92,-38.5 0,-38.5"/>
<text text-anchor="middle" x="46" y="-45.5" font-family="Helvetica,sans-Serif" font-size="10.00" fill="#000000">async_func_init</text>
</g>
<!-- Node304190 -->
<g id="node2" class="node">
<title>Node304190</title>
<g id="a_node2"><a xlink:href="list_8h.html#a663527a4d757540b2177bef0db1ce5c0" target="_top" xlink:title="init_list_head">
<polygon fill="none" stroke="#000000" points="128,-76.5 128,-95.5 210,-95.5 210,-76.5 128,-76.5"/>
<text text-anchor="middle" x="169" y="-83.5" font-family="Helvetica,sans-Serif" font-size="10.00" fill="#000000">init_list_head</text>
</a>
</g>
</g>
<!-- Node304189&#45;&gt;Node304190 -->
<g id="edge1" class="edge">
<title>Node304189&#45;&gt;Node304190</title>
<path fill="none" stroke="#191970" d="M77.0381,-57.589C92.4792,-62.3594 111.3478,-68.1888 127.9661,-73.3229"/>
<polygon fill="#191970" stroke="#191970" points="127.3843,-76.8063 137.9718,-76.4141 129.4506,-70.1182 127.3843,-76.8063"/>
</g>
<!-- Node304191 -->
<g id="node3" class="node">
<title>Node304191</title>
<g id="a_node3"><a xlink:href="quickjs_8h.html#a775522f2d084fc8fa0fcb33f390006b4" target="_top" xlink:title="JS_DupValue">
<polygon fill="none" stroke="#000000" points="130.5,-38.5 130.5,-57.5 207.5,-57.5 207.5,-38.5 130.5,-38.5"/>
<text text-anchor="middle" x="169" y="-45.5" font-family="Helvetica,sans-Serif" font-size="10.00" fill="#000000">JS_DupValue</text>
</a>
</g>
</g>
<!-- Node304189&#45;&gt;Node304191 -->
<g id="edge2" class="edge">
<title>Node304189&#45;&gt;Node304191</title>
<path fill="none" stroke="#191970" d="M92.1506,-48C101.2637,-48 110.8573,-48 120.059,-48"/>
<polygon fill="#191970" stroke="#191970" points="120.2351,-51.5001 130.235,-48 120.235,-44.5001 120.2351,-51.5001"/>
</g>
<!-- Node304192 -->
<g id="node4" class="node">
<title>Node304192</title>
<g id="a_node4"><a xlink:href="cutils_8h.html#a94f155fcce337a2b9d4719ed8042cbbe" target="_top" xlink:title="max_int">
<polygon fill="none" stroke="#000000" points="141,-.5 141,-19.5 197,-19.5 197,-.5 141,-.5"/>
<text text-anchor="middle" x="169" y="-7.5" font-family="Helvetica,sans-Serif" font-size="10.00" fill="#000000">max_int</text>
</a>
</g>
</g>
<!-- Node304189&#45;&gt;Node304192 -->
<g id="edge3" class="edge">
<title>Node304189&#45;&gt;Node304192</title>
<path fill="none" stroke="#191970" d="M77.0381,-38.411C93.4578,-33.3383 113.7531,-27.0681 131.0971,-21.7099"/>
<polygon fill="#191970" stroke="#191970" points="132.3949,-24.9722 140.9162,-18.6763 130.3287,-18.2841 132.3949,-24.9722"/>
</g>
</g>
</svg>
