<?xml version="1.0" encoding="UTF-8" standalone="no"?>
<!DOCTYPE svg PUBLIC "-//W3C//DTD SVG 1.1//EN"
 "http://www.w3.org/Graphics/SVG/1.1/DTD/svg11.dtd">
<!-- Generated by graphviz version 2.40.1 (20161225.0304)
 -->
<!-- Title: js_regexp_exec Pages: 1 -->
<svg width="462pt" height="218pt"
 viewBox="0.00 0.00 462.00 218.00" xmlns="http://www.w3.org/2000/svg" xmlns:xlink="http://www.w3.org/1999/xlink">
<g id="graph0" class="graph" transform="scale(1 1) rotate(0) translate(4 214)">
<title>js_regexp_exec</title>
<!-- Node433184 -->
<g id="node1" class="node">
<title>Node433184</title>
<polygon fill="#bfbfbf" stroke="#000000" points="0,-133.5 0,-152.5 92,-152.5 92,-133.5 0,-133.5"/>
<text text-anchor="middle" x="46" y="-140.5" font-family="Helvetica,sans-Serif" font-size="10.00" fill="#000000">js_regexp_exec</text>
</g>
<!-- Node433185 -->
<g id="node2" class="node">
<title>Node433185</title>
<g id="a_node2"><a xlink:href="quickjs_8c.html#a55de0909f8b4c06625f67b2fdb670279" target="_top" xlink:title="js_is_standard_regexp">
<polygon fill="none" stroke="#000000" points="128,-171.5 128,-190.5 253,-190.5 253,-171.5 128,-171.5"/>
<text text-anchor="middle" x="190.5" y="-178.5" font-family="Helvetica,sans-Serif" font-size="10.00" fill="#000000">js_is_standard_regexp</text>
</a>
</g>
</g>
<!-- Node433184&#45;&gt;Node433185 -->
<g id="edge1" class="edge">
<title>Node433184&#45;&gt;Node433185</title>
<path fill="none" stroke="#191970" d="M92.3325,-155.1843C112.3939,-160.46 135.5285,-166.5438 154.2988,-171.4799"/>
<polygon fill="#191970" stroke="#191970" points="93.0248,-151.7474 82.4635,-152.589 91.2445,-158.5173 93.0248,-151.7474"/>
</g>
<!-- Node433187 -->
<g id="node4" class="node">
<title>Node433187</title>
<g id="a_node4"><a xlink:href="quickjs_8c.html#ab737681b4f1a426c560df37c1304c9d6" target="_top" xlink:title="JS_RegExpExec">
<polygon fill="none" stroke="#000000" points="145.5,-114.5 145.5,-133.5 235.5,-133.5 235.5,-114.5 145.5,-114.5"/>
<text text-anchor="middle" x="190.5" y="-121.5" font-family="Helvetica,sans-Serif" font-size="10.00" fill="#000000">JS_RegExpExec</text>
</a>
</g>
</g>
<!-- Node433184&#45;&gt;Node433187 -->
<g id="edge3" class="edge">
<title>Node433184&#45;&gt;Node433187</title>
<path fill="none" stroke="#191970" d="M102.3094,-135.596C116.5635,-133.7218 131.6889,-131.7329 145.3134,-129.9415"/>
<polygon fill="#191970" stroke="#191970" points="101.5763,-132.1622 92.118,-136.936 102.489,-139.1024 101.5763,-132.1622"/>
</g>
<!-- Node433186 -->
<g id="node3" class="node">
<title>Node433186</title>
<g id="a_node3"><a xlink:href="quickjs_8c.html#a6a77bcdb9f7f18c13c108c99a198708b" target="_top" xlink:title="js_regexp_Symbol_replace">
<polygon fill="none" stroke="#000000" points="298,-190.5 298,-209.5 445,-209.5 445,-190.5 298,-190.5"/>
<text text-anchor="middle" x="371.5" y="-197.5" font-family="Helvetica,sans-Serif" font-size="10.00" fill="#000000">js_regexp_Symbol_replace</text>
</a>
</g>
</g>
<!-- Node433185&#45;&gt;Node433186 -->
<g id="edge2" class="edge">
<title>Node433185&#45;&gt;Node433186</title>
<path fill="none" stroke="#191970" d="M263.325,-188.6446C274.6619,-189.8347 286.3838,-191.0651 297.7412,-192.2574"/>
<polygon fill="#191970" stroke="#191970" points="263.3542,-185.1285 253.0434,-187.5653 262.6233,-192.0903 263.3542,-185.1285"/>
</g>
<!-- Node433187&#45;&gt;Node433186 -->
<g id="edge7" class="edge">
<title>Node433187&#45;&gt;Node433186</title>
<path fill="none" stroke="#191970" d="M215.4505,-138.957C242.0393,-154.8124 281.3542,-177.9862 289,-181 298.5717,-184.7729 309.0773,-187.9032 319.2903,-190.46"/>
<polygon fill="#191970" stroke="#191970" points="217.029,-135.823 206.6492,-133.699 213.4389,-141.8323 217.029,-135.823"/>
</g>
<!-- Node433188 -->
<g id="node5" class="node">
<title>Node433188</title>
<g id="a_node5"><a xlink:href="quickjs_8c.html#acda1b1a97bfde7e280456c5969b7a2a3" target="_top" xlink:title="js_regexp_test">
<polygon fill="none" stroke="#000000" points="327.5,-152.5 327.5,-171.5 415.5,-171.5 415.5,-152.5 327.5,-152.5"/>
<text text-anchor="middle" x="371.5" y="-159.5" font-family="Helvetica,sans-Serif" font-size="10.00" fill="#000000">js_regexp_test</text>
</a>
</g>
</g>
<!-- Node433187&#45;&gt;Node433188 -->
<g id="edge4" class="edge">
<title>Node433187&#45;&gt;Node433188</title>
<path fill="none" stroke="#191970" d="M245.522,-135.5516C271.797,-141.0679 302.8122,-147.5794 327.4936,-152.7611"/>
<polygon fill="#191970" stroke="#191970" points="246.2128,-132.1204 235.707,-133.491 244.7745,-138.971 246.2128,-132.1204"/>
</g>
<!-- Node433189 -->
<g id="node6" class="node">
<title>Node433189</title>
<g id="a_node6"><a xlink:href="quickjs_8c.html#a41fc4304b39616e7be3500fe6ec881c2" target="_top" xlink:title="js_regexp_Symbol_match">
<polygon fill="none" stroke="#000000" points="300.5,-114.5 300.5,-133.5 442.5,-133.5 442.5,-114.5 300.5,-114.5"/>
<text text-anchor="middle" x="371.5" y="-121.5" font-family="Helvetica,sans-Serif" font-size="10.00" fill="#000000">js_regexp_Symbol_match</text>
</a>
</g>
</g>
<!-- Node433187&#45;&gt;Node433189 -->
<g id="edge5" class="edge">
<title>Node433187&#45;&gt;Node433189</title>
<path fill="none" stroke="#191970" d="M246.1136,-124C263.2817,-124 282.4275,-124 300.4865,-124"/>
<polygon fill="#191970" stroke="#191970" points="245.7071,-120.5001 235.707,-124 245.707,-127.5001 245.7071,-120.5001"/>
</g>
<!-- Node433190 -->
<g id="node7" class="node">
<title>Node433190</title>
<g id="a_node7"><a xlink:href="quickjs_8c.html#aeb6df5fcffc6fecfac1e9b0d709e99c5" target="_top" xlink:title="js_regexp_string_iterator_next">
<polygon fill="none" stroke="#000000" points="289,-76.5 289,-95.5 454,-95.5 454,-76.5 289,-76.5"/>
<text text-anchor="middle" x="371.5" y="-83.5" font-family="Helvetica,sans-Serif" font-size="10.00" fill="#000000">js_regexp_string_iterator_next</text>
</a>
</g>
</g>
<!-- Node433187&#45;&gt;Node433190 -->
<g id="edge6" class="edge">
<title>Node433187&#45;&gt;Node433190</title>
<path fill="none" stroke="#191970" d="M245.7139,-112.4081C271.5052,-106.9934 301.83,-100.6268 326.242,-95.5017"/>
<polygon fill="#191970" stroke="#191970" points="244.7745,-109.029 235.707,-114.509 246.2128,-115.8796 244.7745,-109.029"/>
</g>
<!-- Node433191 -->
<g id="node8" class="node">
<title>Node433191</title>
<g id="a_node8"><a xlink:href="quickjs_8c.html#af315d0f35b4b11e5957b904c98bf1c0d" target="_top" xlink:title="js_regexp_Symbol_search">
<polygon fill="none" stroke="#000000" points="300,-38.5 300,-57.5 443,-57.5 443,-38.5 300,-38.5"/>
<text text-anchor="middle" x="371.5" y="-45.5" font-family="Helvetica,sans-Serif" font-size="10.00" fill="#000000">js_regexp_Symbol_search</text>
</a>
</g>
</g>
<!-- Node433187&#45;&gt;Node433191 -->
<g id="edge8" class="edge">
<title>Node433187&#45;&gt;Node433191</title>
<path fill="none" stroke="#191970" d="M212.5822,-108.6394C231.9334,-95.8234 261.2309,-77.9459 289,-67 298.5717,-63.2271 309.0773,-60.0968 319.2903,-57.54"/>
<polygon fill="#191970" stroke="#191970" points="210.5191,-105.8091 204.1821,-114.2999 214.4309,-111.6141 210.5191,-105.8091"/>
</g>
<!-- Node433192 -->
<g id="node9" class="node">
<title>Node433192</title>
<g id="a_node9"><a xlink:href="quickjs_8c.html#a79872a6d9d139e36d5d1894d16132024" target="_top" xlink:title="js_regexp_Symbol_split">
<polygon fill="none" stroke="#000000" points="305.5,-.5 305.5,-19.5 437.5,-19.5 437.5,-.5 305.5,-.5"/>
<text text-anchor="middle" x="371.5" y="-7.5" font-family="Helvetica,sans-Serif" font-size="10.00" fill="#000000">js_regexp_Symbol_split</text>
</a>
</g>
</g>
<!-- Node433187&#45;&gt;Node433192 -->
<g id="edge9" class="edge">
<title>Node433187&#45;&gt;Node433192</title>
<path fill="none" stroke="#191970" d="M203.6729,-106.419C220.8615,-84.7786 253.021,-48.5078 289,-29 296.1065,-25.1469 303.9674,-22.0724 311.9306,-19.6199"/>
<polygon fill="#191970" stroke="#191970" points="200.8093,-104.4002 197.4499,-114.4484 206.3422,-108.6883 200.8093,-104.4002"/>
</g>
</g>
</svg>
