<?xml version="1.0" encoding="UTF-8" standalone="no"?>
<!DOCTYPE svg PUBLIC "-//W3C//DTD SVG 1.1//EN"
 "http://www.w3.org/Graphics/SVG/1.1/DTD/svg11.dtd">
<!-- Generated by graphviz version 2.40.1 (20161225.0304)
 -->
<!-- Title: js_async_from_sync_iterator_unwrap Pages: 1 -->
<svg width="691pt" height="274pt"
 viewBox="0.00 0.00 691.00 273.58" xmlns="http://www.w3.org/2000/svg" xmlns:xlink="http://www.w3.org/1999/xlink">
<g id="graph0" class="graph" transform="scale(1 1) rotate(0) translate(4 269.5782)">
<title>js_async_from_sync_iterator_unwrap</title>
<!-- Node467550 -->
<g id="node1" class="node">
<title>Node467550</title>
<polygon fill="#bfbfbf" stroke="#000000" points="0,-223 0,-253 115,-253 115,-223 0,-223"/>
<text text-anchor="start" x="8" y="-241" font-family="Helvetica,sans-Serif" font-size="10.00" fill="#000000">js_async_from_sync</text>
<text text-anchor="middle" x="57.5" y="-230" font-family="Helvetica,sans-Serif" font-size="10.00" fill="#000000">_iterator_unwrap</text>
</g>
<!-- Node467551 -->
<g id="node2" class="node">
<title>Node467551</title>
<g id="a_node2"><a xlink:href="quickjs_8c.html#a7346b86113acd072c9cfc8d238c4ff7c" target="_top" xlink:title="js_create_iterator\l_result">
<polygon fill="none" stroke="#000000" points="151,-109 151,-139 253,-139 253,-109 151,-109"/>
<text text-anchor="start" x="159" y="-127" font-family="Helvetica,sans-Serif" font-size="10.00" fill="#000000">js_create_iterator</text>
<text text-anchor="middle" x="202" y="-116" font-family="Helvetica,sans-Serif" font-size="10.00" fill="#000000">_result</text>
</a>
</g>
</g>
<!-- Node467550&#45;&gt;Node467551 -->
<g id="edge1" class="edge">
<title>Node467550&#45;&gt;Node467551</title>
<path fill="none" stroke="#191970" d="M76.6885,-222.8617C101.843,-203.0166 146.1222,-168.0835 174.7465,-145.501"/>
<polygon fill="#191970" stroke="#191970" points="177.0491,-148.1426 182.7322,-139.2009 172.7134,-142.6469 177.0491,-148.1426"/>
</g>
<!-- Node467580 -->
<g id="node5" class="node">
<title>Node467580</title>
<g id="a_node5"><a xlink:href="quickjs_8h.html#a775522f2d084fc8fa0fcb33f390006b4" target="_top" xlink:title="JS_DupValue">
<polygon fill="none" stroke="#000000" points="601,-228.5 601,-247.5 678,-247.5 678,-228.5 601,-228.5"/>
<text text-anchor="middle" x="639.5" y="-235.5" font-family="Helvetica,sans-Serif" font-size="10.00" fill="#000000">JS_DupValue</text>
</a>
</g>
</g>
<!-- Node467550&#45;&gt;Node467580 -->
<g id="edge12" class="edge">
<title>Node467550&#45;&gt;Node467580</title>
<path fill="none" stroke="#191970" d="M115.2336,-247.6817C127.0367,-249.3687 139.3961,-250.9245 151,-252 332.002,-268.7764 379.2235,-271.0527 560,-252 570.0348,-250.9424 580.7136,-249.3723 590.8804,-247.6616"/>
<polygon fill="#191970" stroke="#191970" points="591.5878,-251.091 600.8337,-245.9178 590.3797,-244.1961 591.5878,-251.091"/>
</g>
<!-- Node467986 -->
<g id="node10" class="node">
<title>Node467986</title>
<g id="a_node10"><a xlink:href="quickjs_8c.html#a525bb5bdbab2566313d9bcd876838d9d" target="_top" xlink:title="JS_ToBool">
<polygon fill="none" stroke="#000000" points="323,-228.5 323,-247.5 386,-247.5 386,-228.5 323,-228.5"/>
<text text-anchor="middle" x="354.5" y="-235.5" font-family="Helvetica,sans-Serif" font-size="10.00" fill="#000000">JS_ToBool</text>
</a>
</g>
</g>
<!-- Node467550&#45;&gt;Node467986 -->
<g id="edge13" class="edge">
<title>Node467550&#45;&gt;Node467986</title>
<path fill="none" stroke="#191970" d="M115.1167,-238C173.0357,-238 260.9248,-238 312.5422,-238"/>
<polygon fill="#191970" stroke="#191970" points="312.6724,-241.5001 322.6723,-238 312.6723,-234.5001 312.6724,-241.5001"/>
</g>
<!-- Node467552 -->
<g id="node3" class="node">
<title>Node467552</title>
<g id="a_node3"><a xlink:href="quickjs_8c.html#a0a8765bd4012467d9139bc24aabcb3ca" target="_top" xlink:title="JS_DefinePropertyValue">
<polygon fill="none" stroke="#000000" points="289,-95.5 289,-114.5 420,-114.5 420,-95.5 289,-95.5"/>
<text text-anchor="middle" x="354.5" y="-102.5" font-family="Helvetica,sans-Serif" font-size="10.00" fill="#000000">JS_DefinePropertyValue</text>
</a>
</g>
</g>
<!-- Node467551&#45;&gt;Node467552 -->
<g id="edge2" class="edge">
<title>Node467551&#45;&gt;Node467552</title>
<path fill="none" stroke="#191970" d="M253.2045,-117.6204C261.414,-116.5976 270.0591,-115.5205 278.6967,-114.4443"/>
<polygon fill="#191970" stroke="#191970" points="279.3158,-117.8944 288.8063,-113.1848 278.4503,-110.9481 279.3158,-117.8944"/>
</g>
<!-- Node467581 -->
<g id="node6" class="node">
<title>Node467581</title>
<g id="a_node6"><a xlink:href="quickjs_8h.html#afaa20c47565bc704c6c85f3d77254e7d" target="_top" xlink:title="JS_FreeValue">
<polygon fill="none" stroke="#ff0000" points="600.5,-104.5 600.5,-123.5 678.5,-123.5 678.5,-104.5 600.5,-104.5"/>
<text text-anchor="middle" x="639.5" y="-111.5" font-family="Helvetica,sans-Serif" font-size="10.00" fill="#000000">JS_FreeValue</text>
</a>
</g>
</g>
<!-- Node467551&#45;&gt;Node467581 -->
<g id="edge8" class="edge">
<title>Node467551&#45;&gt;Node467581</title>
<path fill="none" stroke="#191970" d="M228.8537,-108.8253C245.5784,-100.2615 267.8646,-90.4144 289,-86 396.5647,-63.5336 526.1585,-86.5064 593.6175,-102.1244"/>
<polygon fill="#191970" stroke="#191970" points="592.9666,-105.567 603.5039,-104.4644 594.5789,-98.7552 592.9666,-105.567"/>
</g>
<!-- Node467617 -->
<g id="node7" class="node">
<title>Node467617</title>
<g id="a_node7"><a xlink:href="quickjs_8h.html#ad80a83d73e9b7d872b88fbf2943aebe9" target="_top" xlink:title="JS_IsException">
<polygon fill="none" stroke="#000000" points="596,-161.5 596,-180.5 683,-180.5 683,-161.5 596,-161.5"/>
<text text-anchor="middle" x="639.5" y="-168.5" font-family="Helvetica,sans-Serif" font-size="10.00" fill="#000000">JS_IsException</text>
</a>
</g>
</g>
<!-- Node467551&#45;&gt;Node467617 -->
<g id="edge9" class="edge">
<title>Node467551&#45;&gt;Node467617</title>
<path fill="none" stroke="#191970" d="M230.6107,-139.0842C247.2156,-147.1726 268.7851,-156.5672 289,-162 405.6026,-193.3369 439.4961,-188.5491 560,-181 568.3822,-180.4749 577.2326,-179.6413 585.864,-178.6738"/>
<polygon fill="#191970" stroke="#191970" points="586.3374,-182.1423 595.8548,-177.4872 585.5117,-175.1911 586.3374,-182.1423"/>
</g>
<!-- Node467924 -->
<g id="node8" class="node">
<title>Node467924</title>
<g id="a_node8"><a xlink:href="quickjs_8h.html#a93abffa925714e249a6aa2f4ae7900f6" target="_top" xlink:title="JS_NewBool">
<polygon fill="none" stroke="#000000" points="317.5,-.5 317.5,-19.5 391.5,-19.5 391.5,-.5 317.5,-.5"/>
<text text-anchor="middle" x="354.5" y="-7.5" font-family="Helvetica,sans-Serif" font-size="10.00" fill="#000000">JS_NewBool</text>
</a>
</g>
</g>
<!-- Node467551&#45;&gt;Node467924 -->
<g id="edge10" class="edge">
<title>Node467551&#45;&gt;Node467924</title>
<path fill="none" stroke="#191970" d="M213.0435,-108.9001C228.1719,-89.1812 257.1217,-54.7394 289,-34 295.3511,-29.8681 302.5099,-26.3224 309.7023,-23.3231"/>
<polygon fill="#191970" stroke="#191970" points="311.3828,-26.4266 319.4582,-19.5682 308.8684,-19.8938 311.3828,-26.4266"/>
</g>
<!-- Node467952 -->
<g id="node9" class="node">
<title>Node467952</title>
<g id="a_node9"><a xlink:href="quickjs_8c.html#afc0d8ea75588216ec132a6e1655524a7" target="_top" xlink:title="JS_NewObject">
<polygon fill="none" stroke="#ff0000" points="312.5,-133.5 312.5,-152.5 396.5,-152.5 396.5,-133.5 312.5,-133.5"/>
<text text-anchor="middle" x="354.5" y="-140.5" font-family="Helvetica,sans-Serif" font-size="10.00" fill="#000000">JS_NewObject</text>
</a>
</g>
</g>
<!-- Node467551&#45;&gt;Node467952 -->
<g id="edge11" class="edge">
<title>Node467551&#45;&gt;Node467952</title>
<path fill="none" stroke="#191970" d="M253.2045,-130.3796C268.9623,-132.3428 286.3254,-134.5061 302.1584,-136.4787"/>
<polygon fill="#191970" stroke="#191970" points="301.9537,-139.9802 312.3097,-137.7435 302.8192,-133.0339 301.9537,-139.9802"/>
</g>
<!-- Node467553 -->
<g id="node4" class="node">
<title>Node467553</title>
<g id="a_node4"><a xlink:href="quickjs_8c.html#ab50618f1bf78e444caa6da0e3e2785d7" target="_top" xlink:title="JS_DefineProperty">
<polygon fill="none" stroke="#ff0000" points="456,-152.5 456,-171.5 560,-171.5 560,-152.5 456,-152.5"/>
<text text-anchor="middle" x="508" y="-159.5" font-family="Helvetica,sans-Serif" font-size="10.00" fill="#000000">JS_DefineProperty</text>
</a>
</g>
</g>
<!-- Node467552&#45;&gt;Node467553 -->
<g id="edge3" class="edge">
<title>Node467552&#45;&gt;Node467553</title>
<path fill="none" stroke="#191970" d="M392.3551,-114.5618C401.5276,-117.2655 411.2175,-120.4516 420,-124 436.7743,-130.7773 439.4657,-135.6565 456,-143 460.4854,-144.9921 465.2503,-146.9455 470.0047,-148.7962"/>
<polygon fill="#191970" stroke="#191970" points="469.0644,-152.182 479.6563,-152.4307 471.5313,-145.6311 469.0644,-152.182"/>
</g>
<!-- Node467552&#45;&gt;Node467581 -->
<g id="edge7" class="edge">
<title>Node467552&#45;&gt;Node467581</title>
<path fill="none" stroke="#191970" d="M420.2625,-103.1168C460.6195,-102.4288 513.3372,-102.3671 560,-105 569.7782,-105.5517 580.2007,-106.4822 590.171,-107.541"/>
<polygon fill="#191970" stroke="#191970" points="590.024,-111.0464 600.3513,-108.6804 590.8026,-104.0898 590.024,-111.0464"/>
</g>
<!-- Node467553&#45;&gt;Node467580 -->
<g id="edge4" class="edge">
<title>Node467553&#45;&gt;Node467580</title>
<path fill="none" stroke="#191970" d="M524.6546,-171.6255C547.2814,-184.7025 587.9306,-208.1957 614.3014,-223.4366"/>
<polygon fill="#191970" stroke="#191970" points="612.5713,-226.4791 622.9807,-228.4527 616.074,-220.4185 612.5713,-226.4791"/>
</g>
<!-- Node467553&#45;&gt;Node467581 -->
<g id="edge5" class="edge">
<title>Node467553&#45;&gt;Node467581</title>
<path fill="none" stroke="#191970" d="M534.2949,-152.4018C554.184,-145.142 581.7164,-135.0921 603.6269,-127.0944"/>
<polygon fill="#191970" stroke="#191970" points="605.057,-130.2983 613.2506,-123.5815 602.6567,-123.7227 605.057,-130.2983"/>
</g>
<!-- Node467553&#45;&gt;Node467617 -->
<g id="edge6" class="edge">
<title>Node467553&#45;&gt;Node467617</title>
<path fill="none" stroke="#191970" d="M560.3501,-165.5829C568.701,-166.1544 577.3529,-166.7466 585.7359,-167.3203"/>
<polygon fill="#191970" stroke="#191970" points="585.5738,-170.8173 595.7895,-168.0084 586.0518,-163.8337 585.5738,-170.8173"/>
</g>
<!-- Node467986&#45;&gt;Node467580 -->
<g id="edge14" class="edge">
<title>Node467986&#45;&gt;Node467580</title>
<path fill="none" stroke="#191970" d="M386.0889,-238C435.7181,-238 532.3189,-238 590.8589,-238"/>
<polygon fill="#191970" stroke="#191970" points="590.9734,-241.5001 600.9734,-238 590.9733,-234.5001 590.9734,-241.5001"/>
</g>
<!-- Node467801 -->
<g id="node11" class="node">
<title>Node467801</title>
<g id="a_node11"><a xlink:href="quickjs_8c.html#a2bf30c9cddfe98a32535843202495069" target="_top" xlink:title="JS_ToBoolFree">
<polygon fill="none" stroke="#000000" points="466.5,-114.5 466.5,-133.5 549.5,-133.5 549.5,-114.5 466.5,-114.5"/>
<text text-anchor="middle" x="508" y="-121.5" font-family="Helvetica,sans-Serif" font-size="10.00" fill="#000000">JS_ToBoolFree</text>
</a>
</g>
</g>
<!-- Node467986&#45;&gt;Node467801 -->
<g id="edge15" class="edge">
<title>Node467986&#45;&gt;Node467801</title>
<path fill="none" stroke="#191970" d="M362.4582,-228.2983C378.3909,-209.4368 416.1142,-167.5268 456,-143 459.2187,-141.0207 462.6751,-139.2013 466.2203,-137.5393"/>
<polygon fill="#191970" stroke="#191970" points="467.8757,-140.6388 475.7097,-133.5059 465.1374,-134.1966 467.8757,-140.6388"/>
</g>
<!-- Node467801&#45;&gt;Node467581 -->
<g id="edge16" class="edge">
<title>Node467801&#45;&gt;Node467581</title>
<path fill="none" stroke="#191970" d="M549.6074,-120.8359C562.559,-119.851 576.9618,-118.7558 590.3765,-117.7356"/>
<polygon fill="#191970" stroke="#191970" points="590.6959,-121.2215 600.4017,-116.9733 590.1651,-114.2417 590.6959,-121.2215"/>
</g>
</g>
</svg>
