<?xml version="1.0" encoding="UTF-8" standalone="no"?>
<!DOCTYPE svg PUBLIC "-//W3C//DTD SVG 1.1//EN"
 "http://www.w3.org/Graphics/SVG/1.1/DTD/svg11.dtd">
<!-- Generated by graphviz version 2.40.1 (20161225.0304)
 -->
<!-- Title: JS_DefinePropertyDesc Pages: 1 -->
<!--zoomable 1154 -->
<svg id="main" version="1.1" xmlns="http://www.w3.org/2000/svg" xmlns:xlink="http://www.w3.org/1999/xlink" xml:space="preserve" onload="init(evt)">
<style type="text/css"><![CDATA[
.edge:hover path { stroke: red; }
.edge:hover polygon { stroke: red; fill: red; }
]]></style>
<script type="text/javascript"><![CDATA[
var edges = document.getElementsByTagName('g');
if (edges && edges.length) {
  for (var i=0;i<edges.length;i++) {
    if (edges[i].id.substr(0,4)=='edge') {
      edges[i].setAttribute('class','edge');
    }
  }
}
]]></script>
        <defs>
                <circle id="rim" cx="0" cy="0" r="7"/>
                <circle id="rim2" cx="0" cy="0" r="3.5"/>
                <g id="zoomPlus">
                        <use xlink:href="#rim" fill="#404040">
                                <set attributeName="fill" to="#808080" begin="zoomplus.mouseover" end="zoomplus.mouseout"/>
                        </use>
                        <path d="M-4,0h8M0,-4v8" fill="none" stroke="white" stroke-width="1.5" pointer-events="none"/>
                </g>
                <g id="zoomMin">
                        <use xlink:href="#rim" fill="#404040">
                                <set attributeName="fill" to="#808080" begin="zoomminus.mouseover" end="zoomminus.mouseout"/>
                        </use>
                        <path d="M-4,0h8" fill="none" stroke="white" stroke-width="1.5" pointer-events="none"/>
                </g>
                <g id="dirArrow">
                        <path fill="none" stroke="white" stroke-width="1.5" d="M0,-3.0v7 M-2.5,-0.5L0,-3.0L2.5,-0.5"/>
                </g>
               <g id="resetDef">
                       <use xlink:href="#rim2" fill="#404040">
                               <set attributeName="fill" to="#808080" begin="reset.mouseover" end="reset.mouseout"/>
                       </use>
               </g>
        </defs>

<script type="text/javascript">
var viewWidth = 963;
var viewHeight = 1154;
var sectionId = 'dynsection-1409';
</script>
<script xlink:href="svgpan.js"/>
<svg id="graph" class="graph">
<g id="viewport">
<title>JS_DefinePropertyDesc</title>
<!-- Node377558 -->
<g id="node1" class="node">
<title>Node377558</title>
<polygon fill="#bfbfbf" stroke="#000000" points="0,-98.85 0,-117.85 128,-117.85 128,-98.85 0,-98.85"/>
<text text-anchor="middle" x="64" y="-105.85" font-family="Helvetica,sans-Serif" font-size="10.00" fill="#000000">JS_DefinePropertyDesc</text>
</g>
<!-- Node377559 -->
<g id="node2" class="node">
<title>Node377559</title>
<g id="a_node2"><a xlink:href="quickjs_8c.html#ab50618f1bf78e444caa6da0e3e2785d7" target="_top" xlink:title="JS_DefineProperty">
<polygon fill="none" stroke="#ff0000" points="164,-610.85 164,-629.85 268,-629.85 268,-610.85 164,-610.85"/>
<text text-anchor="middle" x="216" y="-617.85" font-family="Helvetica,sans-Serif" font-size="10.00" fill="#000000">JS_DefineProperty</text>
</a>
</g>
</g>
<!-- Node377558&#45;&gt;Node377559 -->
<g id="edge1" class="edge">
<title>Node377558&#45;&gt;Node377559</title>
<path fill="none" stroke="#191970" d="M66.9007,-118.1207C85.2236,-179.8399 184.95,-515.7604 210.192,-600.7863"/>
<polygon fill="#191970" stroke="#191970" points="206.8675,-601.8864 213.0689,-610.4767 213.5781,-599.8941 206.8675,-601.8864"/>
</g>
<!-- Node377840 -->
<g id="node29" class="node">
<title>Node377840</title>
<g id="a_node29"><a xlink:href="quickjs_8c.html#adfe21c674d998ca6586b7f7400352dc4" target="_top" xlink:title="js_free_desc">
<polygon fill="none" stroke="#000000" points="177.5,-22.85 177.5,-41.85 254.5,-41.85 254.5,-22.85 177.5,-22.85"/>
<text text-anchor="middle" x="216" y="-29.85" font-family="Helvetica,sans-Serif" font-size="10.00" fill="#000000">js_free_desc</text>
</a>
</g>
</g>
<!-- Node377558&#45;&gt;Node377840 -->
<g id="edge54" class="edge">
<title>Node377558&#45;&gt;Node377840</title>
<path fill="none" stroke="#191970" d="M83.2509,-98.7246C109.6335,-85.5333 157.2136,-61.7432 187.668,-46.516"/>
<polygon fill="#191970" stroke="#191970" points="189.5264,-49.5 196.9054,-41.8973 186.3959,-43.239 189.5264,-49.5"/>
</g>
<!-- Node377993 -->
<g id="node30" class="node">
<title>Node377993</title>
<g id="a_node30"><a xlink:href="quickjs_8c.html#a26ceb6b90296d2572803b252df73cded" target="_top" xlink:title="js_obj_to_desc">
<polygon fill="none" stroke="#ff0000" points="172,-98.85 172,-117.85 260,-117.85 260,-98.85 172,-98.85"/>
<text text-anchor="middle" x="216" y="-105.85" font-family="Helvetica,sans-Serif" font-size="10.00" fill="#000000">js_obj_to_desc</text>
</a>
</g>
</g>
<!-- Node377558&#45;&gt;Node377993 -->
<g id="edge56" class="edge">
<title>Node377558&#45;&gt;Node377993</title>
<path fill="none" stroke="#191970" d="M128.0211,-108.35C139.2113,-108.35 150.7568,-108.35 161.6543,-108.35"/>
<polygon fill="#191970" stroke="#191970" points="161.8711,-111.8501 171.871,-108.35 161.871,-104.8501 161.8711,-111.8501"/>
</g>
<!-- Node377560 -->
<g id="node3" class="node">
<title>Node377560</title>
<g id="a_node3"><a xlink:href="quickjs_8c.html#a014abd680db53ab89cb133345742a59c" target="_top" xlink:title="__attribute__">
<polygon fill="none" stroke="#ff0000" points="546.5,-788.85 546.5,-807.85 626.5,-807.85 626.5,-788.85 546.5,-788.85"/>
<text text-anchor="middle" x="586.5" y="-795.85" font-family="Helvetica,sans-Serif" font-size="10.00" fill="#000000">__attribute__</text>
</a>
</g>
</g>
<!-- Node377559&#45;&gt;Node377560 -->
<g id="edge2" class="edge">
<title>Node377559&#45;&gt;Node377560</title>
<path fill="none" stroke="#191970" d="M217.5149,-630.0047C222.8401,-660.2775 243.7518,-753.5651 304,-791.35 377.0788,-837.1818 483.0371,-823.3586 542.236,-810.2055"/>
<polygon fill="#191970" stroke="#191970" points="543.0714,-813.6047 552.0253,-807.9411 541.4938,-806.7848 543.0714,-813.6047"/>
</g>
<!-- Node377628 -->
<g id="node4" class="node">
<title>Node377628</title>
<g id="a_node4"><a xlink:href="quickjs_8c.html#a288254c06a39c9fca740a7abdad2834e" target="_top" xlink:title="__JS_AtomIsTaggedInt">
<polygon fill="none" stroke="#000000" points="525,-610.85 525,-629.85 648,-629.85 648,-610.85 525,-610.85"/>
<text text-anchor="middle" x="586.5" y="-617.85" font-family="Helvetica,sans-Serif" font-size="10.00" fill="#000000">__JS_AtomIsTaggedInt</text>
</a>
</g>
</g>
<!-- Node377559&#45;&gt;Node377628 -->
<g id="edge3" class="edge">
<title>Node377559&#45;&gt;Node377628</title>
<path fill="none" stroke="#191970" d="M267.0233,-629.8639C279.1027,-631.728 291.971,-633.3992 304,-634.35 385.9665,-640.8294 406.9867,-640.2081 489,-634.35 498.9785,-633.6373 509.4879,-632.5192 519.7645,-631.2183"/>
<polygon fill="#191970" stroke="#191970" points="520.4844,-634.6534 529.9352,-629.8646 519.5608,-627.7146 520.4844,-634.6534"/>
</g>
<!-- Node377629 -->
<g id="node5" class="node">
<title>Node377629</title>
<g id="a_node5"><a xlink:href="quickjs_8c.html#a89f38938cee8077ce1fbba07946ed185" target="_top" xlink:title="__JS_AtomToUInt32">
<polygon fill="none" stroke="#000000" points="531.5,-572.85 531.5,-591.85 641.5,-591.85 641.5,-572.85 531.5,-572.85"/>
<text text-anchor="middle" x="586.5" y="-579.85" font-family="Helvetica,sans-Serif" font-size="10.00" fill="#000000">__JS_AtomToUInt32</text>
</a>
</g>
</g>
<!-- Node377559&#45;&gt;Node377629 -->
<g id="edge4" class="edge">
<title>Node377559&#45;&gt;Node377629</title>
<path fill="none" stroke="#191970" d="M268.0181,-618.6329C323.0883,-616.3708 412.4567,-611.4328 489,-601.35 503.4463,-599.4471 518.9775,-596.7305 533.3038,-593.9448"/>
<polygon fill="#191970" stroke="#191970" points="534.3668,-597.3018 543.4898,-591.9147 532.9986,-590.4368 534.3668,-597.3018"/>
</g>
<!-- Node377986 -->
<g id="node6" class="node">
<title>Node377986</title>
<g id="a_node6"><a xlink:href="quickjs_8c.html#a68c7ae36cec3bf8bbf6cc0868a71cc4b" target="_top" xlink:title="check_define_prop_flags">
<polygon fill="none" stroke="#000000" points="328.5,-762.85 328.5,-781.85 464.5,-781.85 464.5,-762.85 328.5,-762.85"/>
<text text-anchor="middle" x="396.5" y="-769.85" font-family="Helvetica,sans-Serif" font-size="10.00" fill="#000000">check_define_prop_flags</text>
</a>
</g>
</g>
<!-- Node377559&#45;&gt;Node377986 -->
<g id="edge5" class="edge">
<title>Node377559&#45;&gt;Node377986</title>
<path fill="none" stroke="#191970" d="M221.1699,-630.1125C236.1283,-658.0017 279.9153,-737.069 304,-753.35 308.584,-756.4488 313.567,-759.0607 318.7642,-761.2603"/>
<polygon fill="#191970" stroke="#191970" points="317.7173,-764.6047 328.3105,-764.7903 320.1451,-758.0392 317.7173,-764.6047"/>
</g>
<!-- Node377850 -->
<g id="node7" class="node">
<title>Node377850</title>
<g id="a_node7"><a xlink:href="quickjs_8c.html#ac93c982cb636a5430b191d104083af3e" target="_top" xlink:title="convert_fast_array\l_to_array">
<polygon fill="none" stroke="#ff0000" points="532.5,-903.35 532.5,-933.35 640.5,-933.35 640.5,-903.35 532.5,-903.35"/>
<text text-anchor="start" x="540.5" y="-921.35" font-family="Helvetica,sans-Serif" font-size="10.00" fill="#000000">convert_fast_array</text>
<text text-anchor="middle" x="586.5" y="-910.35" font-family="Helvetica,sans-Serif" font-size="10.00" fill="#000000">_to_array</text>
</a>
</g>
</g>
<!-- Node377559&#45;&gt;Node377850 -->
<g id="edge6" class="edge">
<title>Node377559&#45;&gt;Node377850</title>
<path fill="none" stroke="#191970" d="M217.6325,-629.8527C225.4179,-674.0002 260.2148,-858.4025 304,-893.35 365.2406,-942.2297 459.5109,-939.9989 522.0798,-931.3136"/>
<polygon fill="#191970" stroke="#191970" points="522.8444,-934.7386 532.2235,-929.8107 521.8185,-927.8142 522.8444,-934.7386"/>
</g>
<!-- Node377704 -->
<g id="node8" class="node">
<title>Node377704</title>
<g id="a_node8"><a xlink:href="quickjs_8c.html#a3dd8e78607dbc729614deacf55901b95" target="_top" xlink:title="js_shape_prepare_update">
<polygon fill="none" stroke="#ff0000" points="684,-756.85 684,-775.85 825,-775.85 825,-756.85 684,-756.85"/>
<text text-anchor="middle" x="754.5" y="-763.85" font-family="Helvetica,sans-Serif" font-size="10.00" fill="#000000">js_shape_prepare_update</text>
</a>
</g>
</g>
<!-- Node377559&#45;&gt;Node377704 -->
<g id="edge48" class="edge">
<title>Node377559&#45;&gt;Node377704</title>
<path fill="none" stroke="#191970" d="M241.2191,-629.9043C258.7074,-636.364 282.6079,-644.8657 304,-651.35 446.5244,-694.5519 617.6088,-735.2148 702.0576,-754.5588"/>
<polygon fill="#191970" stroke="#191970" points="701.3907,-757.9966 711.919,-756.8109 702.9493,-751.1723 701.3907,-757.9966"/>
</g>
<!-- Node377578 -->
<g id="node9" class="node">
<title>Node377578</title>
<g id="a_node9"><a xlink:href="quickjs_8c.html#a643df594b75933007bcdbb071b5ea8c5" target="_top" xlink:title="get_shape_prop">
<polygon fill="none" stroke="#000000" points="861,-905.85 861,-924.85 955,-924.85 955,-905.85 861,-905.85"/>
<text text-anchor="middle" x="908" y="-912.85" font-family="Helvetica,sans-Serif" font-size="10.00" fill="#000000">get_shape_prop</text>
</a>
</g>
</g>
<!-- Node377559&#45;&gt;Node377578 -->
<g id="edge13" class="edge">
<title>Node377559&#45;&gt;Node377578</title>
<path fill="none" stroke="#191970" d="M216.1936,-630.0471C217.653,-692.108 229.0424,-1033.0038 304,-1095.35 491.0865,-1250.9599 808.9558,-1000.3554 889.1817,-931.8837"/>
<polygon fill="#191970" stroke="#191970" points="891.6996,-934.334 896.9869,-925.1528 887.1281,-929.0329 891.6996,-934.334"/>
</g>
<!-- Node377577 -->
<g id="node10" class="node">
<title>Node377577</title>
<g id="a_node10"><a xlink:href="quickjs_8c.html#a06b76f5124fd985e35f4c652fd018d6d" target="_top" xlink:title="find_own_property">
<polygon fill="none" stroke="#ff0000" points="701,-946.85 701,-965.85 808,-965.85 808,-946.85 701,-946.85"/>
<text text-anchor="middle" x="754.5" y="-953.85" font-family="Helvetica,sans-Serif" font-size="10.00" fill="#000000">find_own_property</text>
</a>
</g>
</g>
<!-- Node377559&#45;&gt;Node377577 -->
<g id="edge9" class="edge">
<title>Node377559&#45;&gt;Node377577</title>
<path fill="none" stroke="#191970" d="M216.9531,-629.8693C222.2535,-680.7543 249.8337,-920.0347 304,-965.35 421.3909,-1063.5588 495.9618,-998.9556 648,-981.35 669.528,-978.8572 693.0241,-973.6195 712.4564,-968.5793"/>
<polygon fill="#191970" stroke="#191970" points="713.4552,-971.9354 722.216,-965.9772 711.6518,-965.1717 713.4552,-971.9354"/>
</g>
<!-- Node377604 -->
<g id="node11" class="node">
<title>Node377604</title>
<g id="a_node11"><a xlink:href="quickjs_8c.html#a9e7b4bccf927d811b0f99b40b08c0472" target="_top" xlink:title="free_var_ref">
<polygon fill="none" stroke="#ff0000" points="358.5,-572.85 358.5,-591.85 434.5,-591.85 434.5,-572.85 358.5,-572.85"/>
<text text-anchor="middle" x="396.5" y="-579.85" font-family="Helvetica,sans-Serif" font-size="10.00" fill="#000000">free_var_ref</text>
</a>
</g>
</g>
<!-- Node377559&#45;&gt;Node377604 -->
<g id="edge11" class="edge">
<title>Node377559&#45;&gt;Node377604</title>
<path fill="none" stroke="#191970" d="M261.5478,-610.761C288.0331,-605.1852 321.3901,-598.1626 348.3136,-592.4945"/>
<polygon fill="#191970" stroke="#191970" points="349.2251,-595.8794 358.2896,-590.3943 347.783,-589.0296 349.2251,-595.8794"/>
</g>
<!-- Node377851 -->
<g id="node12" class="node">
<title>Node377851</title>
<g id="a_node12"><a xlink:href="quickjs_8c.html#a6df3ef223d7e76a0db2c14d972dbfa77" target="_top" xlink:title="get_prop_flags">
<polygon fill="none" stroke="#000000" points="542.5,-952.85 542.5,-971.85 630.5,-971.85 630.5,-952.85 542.5,-952.85"/>
<text text-anchor="middle" x="586.5" y="-959.85" font-family="Helvetica,sans-Serif" font-size="10.00" fill="#000000">get_prop_flags</text>
</a>
</g>
</g>
<!-- Node377559&#45;&gt;Node377851 -->
<g id="edge12" class="edge">
<title>Node377559&#45;&gt;Node377851</title>
<path fill="none" stroke="#191970" d="M217.3273,-630.0491C224.0686,-677.8257 256.0797,-887.482 304,-928.35 367.3758,-982.3991 469.8197,-979.9995 532.3743,-972.0633"/>
<polygon fill="#191970" stroke="#191970" points="532.9998,-975.5105 542.4371,-970.6952 532.0567,-968.5743 532.9998,-975.5105"/>
</g>
<!-- Node377681 -->
<g id="node13" class="node">
<title>Node377681</title>
<g id="a_node13"><a xlink:href="quickjs_8c.html#ab4e100a9cde5f7ec87c92f5e766dbbab" target="_top" xlink:title="JS_AtomIsNumericIndex1">
<polygon fill="none" stroke="#ff0000" points="326.5,-420.85 326.5,-439.85 466.5,-439.85 466.5,-420.85 326.5,-420.85"/>
<text text-anchor="middle" x="396.5" y="-427.85" font-family="Helvetica,sans-Serif" font-size="10.00" fill="#000000">JS_AtomIsNumericIndex1</text>
</a>
</g>
</g>
<!-- Node377559&#45;&gt;Node377681 -->
<g id="edge14" class="edge">
<title>Node377559&#45;&gt;Node377681</title>
<path fill="none" stroke="#191970" d="M218.1952,-610.7204C225.2318,-582.119 249.9937,-497.0141 304,-454.35 309.3356,-450.135 315.3336,-446.6545 321.6452,-443.7813"/>
<polygon fill="#191970" stroke="#191970" points="323.1023,-446.9678 331.0761,-439.9914 320.4921,-440.4726 323.1023,-446.9678"/>
</g>
<!-- Node377587 -->
<g id="node14" class="node">
<title>Node377587</title>
<g id="a_node14"><a xlink:href="quickjs_8h.html#afaa20c47565bc704c6c85f3d77254e7d" target="_top" xlink:title="JS_FreeValue">
<polygon fill="none" stroke="#ff0000" points="547.5,-231.85 547.5,-250.85 625.5,-250.85 625.5,-231.85 547.5,-231.85"/>
<text text-anchor="middle" x="586.5" y="-238.85" font-family="Helvetica,sans-Serif" font-size="10.00" fill="#000000">JS_FreeValue</text>
</a>
</g>
</g>
<!-- Node377559&#45;&gt;Node377587 -->
<g id="edge35" class="edge">
<title>Node377559&#45;&gt;Node377587</title>
<path fill="none" stroke="#191970" d="M216.6826,-610.5572C220.7106,-555.9283 243.3078,-289.5646 304,-241.35 375.5152,-184.5375 492.4766,-210.3812 550.9204,-228.6891"/>
<polygon fill="#191970" stroke="#191970" points="549.864,-232.0259 560.4558,-231.7734 552.0183,-225.3656 549.864,-232.0259"/>
</g>
<!-- Node377623 -->
<g id="node15" class="node">
<title>Node377623</title>
<g id="a_node15"><a xlink:href="quickjs_8h.html#ad80a83d73e9b7d872b88fbf2943aebe9" target="_top" xlink:title="JS_IsException">
<polygon fill="none" stroke="#000000" points="543,-306.85 543,-325.85 630,-325.85 630,-306.85 543,-306.85"/>
<text text-anchor="middle" x="586.5" y="-313.85" font-family="Helvetica,sans-Serif" font-size="10.00" fill="#000000">JS_IsException</text>
</a>
</g>
</g>
<!-- Node377559&#45;&gt;Node377623 -->
<g id="edge36" class="edge">
<title>Node377559&#45;&gt;Node377623</title>
<path fill="none" stroke="#191970" d="M217.4997,-610.7202C224.8081,-565.1164 258.2075,-371.5722 304,-335.35 338.1735,-308.3185 460.4929,-309.6142 532.487,-312.967"/>
<polygon fill="#191970" stroke="#191970" points="532.5667,-316.4751 542.7274,-313.4735 532.9125,-309.4837 532.5667,-316.4751"/>
</g>
<!-- Node377683 -->
<g id="node16" class="node">
<title>Node377683</title>
<g id="a_node16"><a xlink:href="quickjs_8h.html#a2050bc428da1c65ac7eb87c3fa3b0392" target="_top" xlink:title="JS_NewInt32">
<polygon fill="none" stroke="#000000" points="716,-420.85 716,-439.85 793,-439.85 793,-420.85 716,-420.85"/>
<text text-anchor="middle" x="754.5" y="-427.85" font-family="Helvetica,sans-Serif" font-size="10.00" fill="#000000">JS_NewInt32</text>
</a>
</g>
</g>
<!-- Node377559&#45;&gt;Node377683 -->
<g id="edge39" class="edge">
<title>Node377559&#45;&gt;Node377683</title>
<path fill="none" stroke="#191970" d="M216.4548,-610.7364C219.3845,-553.3951 237.6253,-257.1795 304,-203.35 363.4639,-155.1252 585.1706,-178.6002 648,-222.35 714.3196,-268.5301 741.9127,-368.7813 750.8924,-410.9949"/>
<polygon fill="#191970" stroke="#191970" points="747.4691,-411.7254 752.8681,-420.8414 754.3323,-410.3482 747.4691,-411.7254"/>
</g>
<!-- Node377702 -->
<g id="node17" class="node">
<title>Node377702</title>
<g id="a_node17"><a xlink:href="quickjs_8c.html#a8aac7988cf0c6f3c2b629a6662fd7ec8" target="_top" xlink:title="JS_AutoInitProperty">
<polygon fill="none" stroke="#ff0000" points="341.5,-344.85 341.5,-363.85 451.5,-363.85 451.5,-344.85 341.5,-344.85"/>
<text text-anchor="middle" x="396.5" y="-351.85" font-family="Helvetica,sans-Serif" font-size="10.00" fill="#000000">JS_AutoInitProperty</text>
</a>
</g>
</g>
<!-- Node377559&#45;&gt;Node377702 -->
<g id="edge20" class="edge">
<title>Node377559&#45;&gt;Node377702</title>
<path fill="none" stroke="#191970" d="M217.9017,-610.4851C224.5172,-578.3889 249.1759,-475.3239 304,-411.35 320.1392,-392.5173 344.101,-377.9936 363.5924,-368.3206"/>
<polygon fill="#191970" stroke="#191970" points="365.222,-371.4213 372.7479,-363.964 362.2142,-365.1004 365.222,-371.4213"/>
</g>
<!-- Node377849 -->
<g id="node18" class="node">
<title>Node377849</title>
<g id="a_node18"><a xlink:href="quickjs_8c.html#ad5565bb5cfd5321f181573257f3b0c91" target="_top" xlink:title="JS_CreateProperty">
<polygon fill="none" stroke="#ff0000" points="344.5,-838.85 344.5,-857.85 448.5,-857.85 448.5,-838.85 344.5,-838.85"/>
<text text-anchor="middle" x="396.5" y="-845.85" font-family="Helvetica,sans-Serif" font-size="10.00" fill="#000000">JS_CreateProperty</text>
</a>
</g>
</g>
<!-- Node377559&#45;&gt;Node377849 -->
<g id="edge23" class="edge">
<title>Node377559&#45;&gt;Node377849</title>
<path fill="none" stroke="#191970" d="M217.2038,-630.2185C221.7634,-663.1727 241.0401,-770.3762 304,-824.35 312.6705,-831.783 323.3661,-836.9539 334.3708,-840.5418"/>
<polygon fill="#191970" stroke="#191970" points="333.502,-843.9335 344.0781,-843.3044 335.4181,-837.2008 333.502,-843.9335"/>
</g>
<!-- Node377586 -->
<g id="node19" class="node">
<title>Node377586</title>
<g id="a_node19"><a xlink:href="quickjs_8h.html#a775522f2d084fc8fa0fcb33f390006b4" target="_top" xlink:title="JS_DupValue">
<polygon fill="none" stroke="#000000" points="548,-826.85 548,-845.85 625,-845.85 625,-826.85 548,-826.85"/>
<text text-anchor="middle" x="586.5" y="-833.85" font-family="Helvetica,sans-Serif" font-size="10.00" fill="#000000">JS_DupValue</text>
</a>
</g>
</g>
<!-- Node377559&#45;&gt;Node377586 -->
<g id="edge34" class="edge">
<title>Node377559&#45;&gt;Node377586</title>
<path fill="none" stroke="#191970" d="M217.8848,-629.8643C226.3702,-671.6394 262.4285,-838.0298 304,-867.35 382.3822,-922.6326 504.6256,-876.0784 558.9165,-850.4734"/>
<polygon fill="#191970" stroke="#191970" points="560.7587,-853.4704 568.2372,-845.9655 557.7109,-847.1687 560.7587,-853.4704"/>
</g>
<!-- Node377801 -->
<g id="node20" class="node">
<title>Node377801</title>
<g id="a_node20"><a xlink:href="quickjs_8c.html#a1ca9cdb1fa2ffc3e6506e92b200e490f" target="_top" xlink:title="JS_IsFunction">
<polygon fill="none" stroke="#000000" points="546.5,-458.85 546.5,-477.85 626.5,-477.85 626.5,-458.85 546.5,-458.85"/>
<text text-anchor="middle" x="586.5" y="-465.85" font-family="Helvetica,sans-Serif" font-size="10.00" fill="#000000">JS_IsFunction</text>
</a>
</g>
</g>
<!-- Node377559&#45;&gt;Node377801 -->
<g id="edge37" class="edge">
<title>Node377559&#45;&gt;Node377801</title>
<path fill="none" stroke="#191970" d="M219.2344,-610.7221C228.159,-585.8464 255.7208,-519.4232 304,-491.35 376.1812,-449.3785 476.7884,-452.9418 536.4266,-460.1164"/>
<polygon fill="#191970" stroke="#191970" points="535.9882,-463.5887 546.3523,-461.3897 536.8789,-456.6456 535.9882,-463.5887"/>
</g>
<!-- Node377707 -->
<g id="node21" class="node">
<title>Node377707</title>
<g id="a_node21"><a xlink:href="quickjs_8h.html#a88259aa0da61ac754402c64ccecee116" target="_top" xlink:title="JS_NewUint32">
<polygon fill="none" stroke="#ff0000" points="544,-648.85 544,-667.85 629,-667.85 629,-648.85 544,-648.85"/>
<text text-anchor="middle" x="586.5" y="-655.85" font-family="Helvetica,sans-Serif" font-size="10.00" fill="#000000">JS_NewUint32</text>
</a>
</g>
</g>
<!-- Node377559&#45;&gt;Node377707 -->
<g id="edge40" class="edge">
<title>Node377559&#45;&gt;Node377707</title>
<path fill="none" stroke="#191970" d="M221.2228,-610.6742C232.8739,-590.2532 263.2076,-543.1678 304,-525.35 379.3481,-492.4386 422.6815,-476.746 489,-525.35 531.8558,-556.7585 487.3123,-601.8967 525,-639.35 527.861,-642.1932 531.1377,-644.6124 534.6562,-646.6705"/>
<polygon fill="#191970" stroke="#191970" points="533.2729,-649.8891 543.8007,-651.079 536.3127,-643.5836 533.2729,-649.8891"/>
</g>
<!-- Node377701 -->
<g id="node22" class="node">
<title>Node377701</title>
<g id="a_node22"><a xlink:href="quickjs_8h.html#a4e407128a9605afb77523e49e9a627fd" target="_top" xlink:title="JS_IsUndefined">
<polygon fill="none" stroke="#000000" points="352,-136.85 352,-155.85 441,-155.85 441,-136.85 352,-136.85"/>
<text text-anchor="middle" x="396.5" y="-143.85" font-family="Helvetica,sans-Serif" font-size="10.00" fill="#000000">JS_IsUndefined</text>
</a>
</g>
</g>
<!-- Node377559&#45;&gt;Node377701 -->
<g id="edge38" class="edge">
<title>Node377559&#45;&gt;Node377701</title>
<path fill="none" stroke="#191970" d="M216.5286,-610.618C219.9512,-551.1828 240.854,-237.4532 304,-170.35 313.8811,-159.8498 327.7135,-153.7128 341.6757,-150.1868"/>
<polygon fill="#191970" stroke="#191970" points="342.7449,-153.5386 351.8107,-148.0557 341.3045,-146.6884 342.7449,-153.5386"/>
</g>
<!-- Node377987 -->
<g id="node23" class="node">
<title>Node377987</title>
<g id="a_node23"><a xlink:href="quickjs_8c.html#af2333dd9d30e60437b73af383477188c" target="_top" xlink:title="JS_NumberIsInteger">
<polygon fill="none" stroke="#ff0000" points="340,-1066.85 340,-1085.85 453,-1085.85 453,-1066.85 340,-1066.85"/>
<text text-anchor="middle" x="396.5" y="-1073.85" font-family="Helvetica,sans-Serif" font-size="10.00" fill="#000000">JS_NumberIsInteger</text>
</a>
</g>
</g>
<!-- Node377559&#45;&gt;Node377987 -->
<g id="edge41" class="edge">
<title>Node377559&#45;&gt;Node377987</title>
<path fill="none" stroke="#191970" d="M216.549,-630.2269C220.0273,-689.1653 240.9166,-994.0219 304,-1057.35 311.1156,-1064.4932 320.1508,-1069.3009 329.7726,-1072.4829"/>
<polygon fill="#191970" stroke="#191970" points="328.9718,-1075.8923 339.5406,-1075.1493 330.8152,-1069.1394 328.9718,-1075.8923"/>
</g>
<!-- Node377990 -->
<g id="node24" class="node">
<title>Node377990</title>
<g id="a_node24"><a xlink:href="quickjs_8c.html#aced4796120beed3ba63dc0b234b399ab" target="_top" xlink:title="JS_NumberIsNegativeOrMinusZero">
<polygon fill="none" stroke="#000000" points="304,-1028.85 304,-1047.85 489,-1047.85 489,-1028.85 304,-1028.85"/>
<text text-anchor="middle" x="396.5" y="-1035.85" font-family="Helvetica,sans-Serif" font-size="10.00" fill="#000000">JS_NumberIsNegativeOrMinusZero</text>
</a>
</g>
</g>
<!-- Node377559&#45;&gt;Node377990 -->
<g id="edge42" class="edge">
<title>Node377559&#45;&gt;Node377990</title>
<path fill="none" stroke="#191970" d="M216.8054,-629.9233C221.5896,-684.5445 247.9867,-956.3923 304,-1014.35 307.6534,-1018.1303 311.8197,-1021.3424 316.3158,-1024.0692"/>
<polygon fill="#191970" stroke="#191970" points="314.8316,-1027.2421 325.3205,-1028.7363 318.0528,-1021.0272 314.8316,-1027.2421"/>
</g>
<!-- Node377972 -->
<g id="node25" class="node">
<title>Node377972</title>
<g id="a_node25"><a xlink:href="quickjs_8c.html#a24be89a128d1cd7c0908604815b2b854" target="_top" xlink:title="js_same_value">
<polygon fill="none" stroke="#ff0000" points="352,-724.85 352,-743.85 441,-743.85 441,-724.85 352,-724.85"/>
<text text-anchor="middle" x="396.5" y="-731.85" font-family="Helvetica,sans-Serif" font-size="10.00" fill="#000000">js_same_value</text>
</a>
</g>
</g>
<!-- Node377559&#45;&gt;Node377972 -->
<g id="edge43" class="edge">
<title>Node377559&#45;&gt;Node377972</title>
<path fill="none" stroke="#191970" d="M222.5303,-629.8892C235.6966,-648.3681 267.3201,-689.0922 304,-710.35 315.553,-717.0456 328.9846,-721.9033 341.9716,-725.417"/>
<polygon fill="#191970" stroke="#191970" points="341.2291,-728.8388 351.7777,-727.8501 342.9149,-722.0448 341.2291,-728.8388"/>
</g>
<!-- Node377859 -->
<g id="node26" class="node">
<title>Node377859</title>
<g id="a_node26"><a xlink:href="quickjs_8c.html#aee75cc1546e19479e3ccda58f3b50a96" target="_top" xlink:title="JS_SetPropertyValue">
<polygon fill="none" stroke="#ff0000" points="339,-534.85 339,-553.85 454,-553.85 454,-534.85 339,-534.85"/>
<text text-anchor="middle" x="396.5" y="-541.85" font-family="Helvetica,sans-Serif" font-size="10.00" fill="#000000">JS_SetPropertyValue</text>
</a>
</g>
</g>
<!-- Node377559&#45;&gt;Node377859 -->
<g id="edge45" class="edge">
<title>Node377559&#45;&gt;Node377859</title>
<path fill="none" stroke="#191970" d="M227.7245,-610.6867C243.8768,-597.8795 274.3529,-575.491 304,-563.35 311.8512,-560.1348 320.3081,-557.4431 328.805,-555.1946"/>
<polygon fill="#191970" stroke="#191970" points="329.8847,-558.5337 338.7641,-552.7539 328.2184,-551.7349 329.8847,-558.5337"/>
</g>
<!-- Node377755 -->
<g id="node27" class="node">
<title>Node377755</title>
<g id="a_node27"><a xlink:href="quickjs_8c.html#a726b00d108e0a0f4d958c36c2e426a64" target="_top" xlink:title="JS_ThrowTypeErrorNotAnObject">
<polygon fill="none" stroke="#000000" points="312.5,-98.85 312.5,-117.85 480.5,-117.85 480.5,-98.85 312.5,-98.85"/>
<text text-anchor="middle" x="396.5" y="-105.85" font-family="Helvetica,sans-Serif" font-size="10.00" fill="#000000">JS_ThrowTypeErrorNotAnObject</text>
</a>
</g>
</g>
<!-- Node377559&#45;&gt;Node377755 -->
<g id="edge49" class="edge">
<title>Node377559&#45;&gt;Node377755</title>
<path fill="none" stroke="#191970" d="M216.3054,-610.4797C218.4649,-547.2829 233.465,-199.7395 304,-127.35 305.2585,-126.0584 306.5797,-124.8427 307.9558,-123.6988"/>
<polygon fill="#191970" stroke="#191970" points="310.1271,-126.4534 316.3839,-117.9033 306.1608,-120.6855 310.1271,-126.4534"/>
</g>
<!-- Node377865 -->
<g id="node28" class="node">
<title>Node377865</title>
<g id="a_node28"><a xlink:href="quickjs_8c.html#a77d135018423229ffcdcde7a46eb3fd9" target="_top" xlink:title="JS_ToArrayLengthFree">
<polygon fill="none" stroke="#ff0000" points="336,-250.85 336,-269.85 457,-269.85 457,-250.85 336,-250.85"/>
<text text-anchor="middle" x="396.5" y="-257.85" font-family="Helvetica,sans-Serif" font-size="10.00" fill="#000000">JS_ToArrayLengthFree</text>
</a>
</g>
</g>
<!-- Node377559&#45;&gt;Node377865 -->
<g id="edge50" class="edge">
<title>Node377559&#45;&gt;Node377865</title>
<path fill="none" stroke="#191970" d="M217.5571,-610.6196C225.3979,-562.6487 261.8476,-351.6625 304,-302.35 315.2933,-289.1384 331.5991,-279.8746 347.3848,-273.4769"/>
<polygon fill="#191970" stroke="#191970" points="348.9507,-276.6284 357.0969,-269.8542 346.5042,-270.0699 348.9507,-276.6284"/>
</g>
<!-- Node377850&#45;&gt;Node377704 -->
<g id="edge7" class="edge">
<title>Node377850&#45;&gt;Node377704</title>
<path fill="none" stroke="#191970" d="M603.2227,-903.22C634.8984,-874.561 703.4085,-812.5757 736.2378,-782.873"/>
<polygon fill="#191970" stroke="#191970" points="738.7042,-785.3614 743.7714,-776.0569 734.0078,-780.1707 738.7042,-785.3614"/>
</g>
<!-- Node377704&#45;&gt;Node377578 -->
<g id="edge8" class="edge">
<title>Node377704&#45;&gt;Node377578</title>
<path fill="none" stroke="#191970" d="M764.5716,-776.1263C790.2734,-801.0747 858.5317,-867.3319 890.7297,-898.5861"/>
<polygon fill="#191970" stroke="#191970" points="888.4776,-901.2777 898.0909,-905.7314 893.3532,-896.2549 888.4776,-901.2777"/>
</g>
<!-- Node377577&#45;&gt;Node377578 -->
<g id="edge10" class="edge">
<title>Node377577&#45;&gt;Node377578</title>
<path fill="none" stroke="#191970" d="M790.1018,-946.8408C811.6263,-941.0915 839.2811,-933.7049 862.3965,-927.5308"/>
<polygon fill="#191970" stroke="#191970" points="863.5676,-930.8407 872.3257,-924.8787 861.7612,-924.0778 863.5676,-930.8407"/>
</g>
<!-- Node377681&#45;&gt;Node377628 -->
<g id="edge15" class="edge">
<title>Node377681&#45;&gt;Node377628</title>
<path fill="none" stroke="#191970" d="M418.6647,-439.9577C439.6182,-450.1104 470.5227,-468.0266 489,-492.35 519.8613,-532.9757 488.5772,-565.6255 525,-601.35 526.6205,-602.9395 528.3711,-604.3964 530.2208,-605.7316"/>
<polygon fill="#191970" stroke="#191970" points="528.4806,-608.7686 538.8706,-610.8417 532.0411,-602.7418 528.4806,-608.7686"/>
</g>
<!-- Node377681&#45;&gt;Node377629 -->
<g id="edge16" class="edge">
<title>Node377681&#45;&gt;Node377629</title>
<path fill="none" stroke="#191970" d="M412.4008,-439.9533C431.2535,-451.5754 463.3493,-472.1134 489,-492.35 518.9089,-515.9461 550.8635,-546.6142 569.7395,-565.3705"/>
<polygon fill="#191970" stroke="#191970" points="567.4413,-568.0222 576.9844,-572.6242 572.394,-563.0754 567.4413,-568.0222"/>
</g>
<!-- Node377681&#45;&gt;Node377587 -->
<g id="edge17" class="edge">
<title>Node377681&#45;&gt;Node377587</title>
<path fill="none" stroke="#191970" d="M419.6212,-420.7194C440.0813,-411.2198 469.618,-394.988 489,-373.35 513.9374,-345.51 502.7613,-327.3896 525,-297.35 536.418,-281.9268 552.5541,-267.4258 565.4331,-257.0457"/>
<polygon fill="#191970" stroke="#191970" points="567.6283,-259.7722 573.3438,-250.8513 563.3126,-254.2608 567.6283,-259.7722"/>
</g>
<!-- Node377681&#45;&gt;Node377623 -->
<g id="edge18" class="edge">
<title>Node377681&#45;&gt;Node377623</title>
<path fill="none" stroke="#191970" d="M412.3725,-420.8265C445.4827,-400.9604 522.1228,-354.9763 561.7608,-331.1935"/>
<polygon fill="#191970" stroke="#191970" points="563.7649,-334.0728 570.5391,-325.9266 560.1634,-328.0704 563.7649,-334.0728"/>
</g>
<!-- Node377681&#45;&gt;Node377683 -->
<g id="edge19" class="edge">
<title>Node377681&#45;&gt;Node377683</title>
<path fill="none" stroke="#191970" d="M466.8021,-430.35C537.2553,-430.35 643.865,-430.35 705.5939,-430.35"/>
<polygon fill="#191970" stroke="#191970" points="705.841,-433.8501 715.8409,-430.35 705.8409,-426.8501 705.841,-433.8501"/>
</g>
<!-- Node377702&#45;&gt;Node377704 -->
<g id="edge22" class="edge">
<title>Node377702&#45;&gt;Node377704</title>
<path fill="none" stroke="#191970" d="M451.6953,-360.0142C509.2829,-368.9351 598.0042,-391.6957 648,-449.35 727.0224,-540.4773 747.9258,-692.4751 752.998,-746.5279"/>
<polygon fill="#191970" stroke="#191970" points="749.5355,-747.1164 753.8755,-756.7815 756.51,-746.5195 749.5355,-747.1164"/>
</g>
<!-- Node377702&#45;&gt;Node377623 -->
<g id="edge21" class="edge">
<title>Node377702&#45;&gt;Node377623</title>
<path fill="none" stroke="#191970" d="M444.445,-344.761C471.3701,-339.376 505.0419,-332.6417 532.8443,-327.0812"/>
<polygon fill="#191970" stroke="#191970" points="533.679,-330.4836 542.7984,-325.0904 532.3061,-323.6196 533.679,-330.4836"/>
</g>
<!-- Node377849&#45;&gt;Node377560 -->
<g id="edge24" class="edge">
<title>Node377849&#45;&gt;Node377560</title>
<path fill="none" stroke="#191970" d="M433.4242,-838.8305C450.3652,-834.4473 470.7088,-829.1617 489,-824.35 505.9766,-819.8842 524.6011,-814.9309 540.9825,-810.5561"/>
<polygon fill="#191970" stroke="#191970" points="542.1007,-813.8801 550.8576,-807.9163 540.293,-807.1176 542.1007,-813.8801"/>
</g>
<!-- Node377849&#45;&gt;Node377628 -->
<g id="edge25" class="edge">
<title>Node377849&#45;&gt;Node377628</title>
<path fill="none" stroke="#191970" d="M422.8451,-838.7417C443.9074,-829.7054 472.5427,-814.1341 489,-791.35 529.6509,-735.0716 477.5834,-690.0592 525,-639.35 526.2331,-638.0313 527.5556,-636.8033 528.9511,-635.6599"/>
<polygon fill="#191970" stroke="#191970" points="531.1709,-638.3906 537.6307,-629.9929 527.3439,-632.5293 531.1709,-638.3906"/>
</g>
<!-- Node377849&#45;&gt;Node377629 -->
<g id="edge26" class="edge">
<title>Node377849&#45;&gt;Node377629</title>
<path fill="none" stroke="#191970" d="M423.5461,-838.7535C444.7272,-829.8036 473.1699,-814.3456 489,-791.35 537.7345,-720.5559 467.7356,-665.441 525,-601.35 526.1773,-600.0323 527.4439,-598.8049 528.7841,-597.6617"/>
<polygon fill="#191970" stroke="#191970" points="530.8398,-600.4967 537.1576,-591.9917 526.9149,-594.7005 530.8398,-600.4967"/>
</g>
<!-- Node377849&#45;&gt;Node377850 -->
<g id="edge27" class="edge">
<title>Node377849&#45;&gt;Node377850</title>
<path fill="none" stroke="#191970" d="M422.5203,-857.9365C451.6287,-868.6606 499.4829,-886.2911 536.0022,-899.7456"/>
<polygon fill="#191970" stroke="#191970" points="534.906,-903.0716 545.4994,-903.2446 537.326,-896.5032 534.906,-903.0716"/>
</g>
<!-- Node377849&#45;&gt;Node377578 -->
<g id="edge29" class="edge">
<title>Node377849&#45;&gt;Node377578</title>
<path fill="none" stroke="#191970" d="M448.8357,-855.2053C545.4548,-867.8612 751.0749,-894.7948 851.0514,-907.8905"/>
<polygon fill="#191970" stroke="#191970" points="850.5996,-911.3611 860.9695,-909.1896 851.5088,-904.4204 850.5996,-911.3611"/>
</g>
<!-- Node377849&#45;&gt;Node377851 -->
<g id="edge28" class="edge">
<title>Node377849&#45;&gt;Node377851</title>
<path fill="none" stroke="#191970" d="M407.0087,-858.0942C427.9394,-877.03 476.9678,-919.0642 525,-943.35 529.3226,-945.5356 533.9444,-947.5257 538.6402,-949.324"/>
<polygon fill="#191970" stroke="#191970" points="537.7161,-952.7096 548.3108,-952.7467 540.0517,-946.1107 537.7161,-952.7096"/>
</g>
<!-- Node377849&#45;&gt;Node377586 -->
<g id="edge30" class="edge">
<title>Node377849&#45;&gt;Node377586</title>
<path fill="none" stroke="#191970" d="M448.6696,-845.0551C476.4325,-843.3017 510.3677,-841.1584 537.6183,-839.4373"/>
<polygon fill="#191970" stroke="#191970" points="537.9488,-842.9235 547.7083,-838.8 537.5076,-835.9374 537.9488,-842.9235"/>
</g>
<!-- Node377849&#45;&gt;Node377801 -->
<g id="edge31" class="edge">
<title>Node377849&#45;&gt;Node377801</title>
<path fill="none" stroke="#191970" d="M424.1678,-838.7008C445.4107,-829.7972 473.6288,-814.4285 489,-791.35 545.8691,-705.9665 488.3271,-659.16 525,-563.35 536.2869,-533.8623 557.6382,-503.96 571.9704,-485.7837"/>
<polygon fill="#191970" stroke="#191970" points="574.8115,-487.8362 578.3674,-477.8559 569.3638,-483.4404 574.8115,-487.8362"/>
</g>
<!-- Node377849&#45;&gt;Node377707 -->
<g id="edge32" class="edge">
<title>Node377849&#45;&gt;Node377707</title>
<path fill="none" stroke="#191970" d="M416.7829,-838.7614C436.6135,-828.7515 466.9577,-811.6892 489,-791.35 527.0417,-756.2476 559.9807,-704.3899 576.0503,-676.9514"/>
<polygon fill="#191970" stroke="#191970" points="579.2334,-678.437 581.1856,-668.0235 573.1656,-674.9467 579.2334,-678.437"/>
</g>
<!-- Node377707&#45;&gt;Node377683 -->
<g id="edge33" class="edge">
<title>Node377707&#45;&gt;Node377683</title>
<path fill="none" stroke="#191970" d="M629.1565,-650.09C635.9481,-647.4453 642.5279,-643.9552 648,-639.35 709.6498,-587.4671 739.6212,-490.9362 750.0551,-449.7656"/>
<polygon fill="#191970" stroke="#191970" points="753.4886,-450.4577 752.4416,-439.9147 746.6854,-448.8094 753.4886,-450.4577"/>
</g>
<!-- Node377972&#45;&gt;Node377586 -->
<g id="edge44" class="edge">
<title>Node377972&#45;&gt;Node377586</title>
<path fill="none" stroke="#191970" d="M441.0399,-735.8596C457.3797,-738.2778 475.2281,-743.2982 489,-753.35 515.3609,-772.5903 499.6034,-796.8537 525,-817.35 529.0274,-820.6004 533.6105,-823.2965 538.4162,-825.5326"/>
<polygon fill="#191970" stroke="#191970" points="537.2597,-828.8394 547.8449,-829.2904 539.8514,-822.3368 537.2597,-828.8394"/>
</g>
<!-- Node377859&#45;&gt;Node377560 -->
<g id="edge46" class="edge">
<title>Node377859&#45;&gt;Node377560</title>
<path fill="none" stroke="#191970" d="M454.2159,-546.6003C466.8904,-549.5474 479.3814,-554.6769 489,-563.35 528.4601,-598.9311 504.8949,-628.1677 525,-677.35 540.2921,-714.7585 562.6961,-756.3497 575.8201,-779.7307"/>
<polygon fill="#191970" stroke="#191970" points="572.854,-781.5957 580.8288,-788.5709 578.9444,-778.145 572.854,-781.5957"/>
</g>
<!-- Node377859&#45;&gt;Node377587 -->
<g id="edge47" class="edge">
<title>Node377859&#45;&gt;Node377587</title>
<path fill="none" stroke="#191970" d="M409.4957,-534.8428C429.7435,-519.3096 468.6073,-486.4743 489,-449.35 522.4246,-388.5014 489.7621,-357.1668 525,-297.35 534.5598,-281.1221 550.3426,-266.8936 563.5257,-256.8396"/>
<polygon fill="#191970" stroke="#191970" points="565.7086,-259.5795 571.7219,-250.8565 561.5814,-253.9256 565.7086,-259.5795"/>
</g>
<!-- Node377865&#45;&gt;Node377587 -->
<g id="edge51" class="edge">
<title>Node377865&#45;&gt;Node377587</title>
<path fill="none" stroke="#191970" d="M457.1396,-254.2861C482.9871,-251.7013 512.7567,-248.7244 537.2169,-246.2783"/>
<polygon fill="#191970" stroke="#191970" points="537.7458,-249.743 547.3479,-245.2652 537.0492,-242.7777 537.7458,-249.743"/>
</g>
<!-- Node377865&#45;&gt;Node377623 -->
<g id="edge52" class="edge">
<title>Node377865&#45;&gt;Node377623</title>
<path fill="none" stroke="#191970" d="M429.1622,-269.9768C461.0298,-279.3693 509.6531,-293.7004 544.407,-303.9437"/>
<polygon fill="#191970" stroke="#191970" points="543.6825,-307.3789 554.264,-306.8489 545.6615,-300.6645 543.6825,-307.3789"/>
</g>
<!-- Node377865&#45;&gt;Node377865 -->
<g id="edge53" class="edge">
<title>Node377865&#45;&gt;Node377865</title>
<path fill="none" stroke="#191970" d="M368.7568,-270.1071C355.2601,-278.9153 364.5078,-288.35 396.5,-288.35 418.4946,-288.35 429.739,-283.8906 430.233,-278.2413"/>
<polygon fill="#191970" stroke="#191970" points="432.9911,-276.0842 424.2432,-270.1071 427.3544,-280.2348 432.9911,-276.0842"/>
</g>
<!-- Node377840&#45;&gt;Node377587 -->
<g id="edge55" class="edge">
<title>Node377840&#45;&gt;Node377587</title>
<path fill="none" stroke="#191970" d="M243.4761,-22.7625C295.9438,-6.2966 412.0172,21.076 489,-28.35 557.6314,-72.4142 578.5679,-178.1529 584.4181,-221.8972"/>
<polygon fill="#191970" stroke="#191970" points="580.9443,-222.325 585.6244,-231.83 587.8932,-221.481 580.9443,-222.325"/>
</g>
<!-- Node377993&#45;&gt;Node377587 -->
<g id="edge57" class="edge">
<title>Node377993&#45;&gt;Node377587</title>
<path fill="none" stroke="#191970" d="M227.5839,-98.7024C243.5769,-86.0756 273.873,-64.586 304,-56.35 383.312,-34.6682 418.5994,-13.8736 489,-56.35 549.9602,-93.1305 574.7389,-182.1193 582.9968,-221.7474"/>
<polygon fill="#191970" stroke="#191970" points="579.595,-222.5902 584.9413,-231.7372 586.4661,-221.2527 579.595,-222.5902"/>
</g>
<!-- Node377993&#45;&gt;Node377623 -->
<g id="edge58" class="edge">
<title>Node377993&#45;&gt;Node377623</title>
<path fill="none" stroke="#191970" d="M235.8998,-98.7578C285.0668,-76.6064 413.7372,-28.2823 489,-89.35 549.3103,-138.2854 486.4205,-192.9436 525,-260.35 534.2969,-276.5936 549.9441,-290.7437 563.1283,-300.7564"/>
<polygon fill="#191970" stroke="#191970" points="561.196,-303.6785 571.3452,-306.7191 565.3073,-298.0131 561.196,-303.6785"/>
</g>
<!-- Node377993&#45;&gt;Node377801 -->
<g id="edge59" class="edge">
<title>Node377993&#45;&gt;Node377801</title>
<path fill="none" stroke="#191970" d="M217.8786,-118.0464C226.4776,-161.4442 263.4104,-337.2892 304,-373.35 366.7511,-429.0997 410.615,-381.3247 489,-411.35 516.82,-422.0065 545.9616,-440.0918 565.0565,-453.0341"/>
<polygon fill="#191970" stroke="#191970" points="563.1102,-455.9435 573.3276,-458.7463 567.0881,-450.1836 563.1102,-455.9435"/>
</g>
<!-- Node377993&#45;&gt;Node377701 -->
<g id="edge60" class="edge">
<title>Node377993&#45;&gt;Node377701</title>
<path fill="none" stroke="#191970" d="M259.8476,-117.9079C273.94,-120.9555 289.6235,-124.3216 304,-127.35 316.2786,-129.9365 329.4836,-132.6748 341.9634,-135.2429"/>
<polygon fill="#191970" stroke="#191970" points="341.2854,-138.6766 351.785,-137.2598 342.6935,-131.8197 341.2854,-138.6766"/>
</g>
<!-- Node377993&#45;&gt;Node377755 -->
<g id="edge61" class="edge">
<title>Node377993&#45;&gt;Node377755</title>
<path fill="none" stroke="#191970" d="M260.1553,-108.35C272.96,-108.35 287.457,-108.35 302.0999,-108.35"/>
<polygon fill="#191970" stroke="#191970" points="302.2417,-111.8501 312.2417,-108.35 302.2416,-104.8501 302.2417,-111.8501"/>
</g>
</g>
</svg>
        <g id="navigator" transform="translate(0 0)" fill="#404254">
                <rect fill="#f2f5e9" fill-opacity="0.5" stroke="#606060" stroke-width=".5" x="0" y="0" width="60" height="60"/>
                <use id="zoomplus" xlink:href="#zoomPlus" x="17" y="9" onmousedown="handleZoom(evt,'in')"/>
                <use id="zoomminus" xlink:href="#zoomMin" x="42" y="9" onmousedown="handleZoom(evt,'out')"/>
                <use id="reset" xlink:href="#resetDef" x="30" y="36" onmousedown="handleReset()"/>
                <g id="arrowUp" xlink:href="#dirArrow" transform="translate(30 24)" onmousedown="handlePan(0,-1)">
                  <use xlink:href="#rim" fill="#404040">
                        <set attributeName="fill" to="#808080" begin="arrowUp.mouseover" end="arrowUp.mouseout"/>
                  </use>
                  <path fill="none" stroke="white" stroke-width="1.5" d="M0,-3.0v7 M-2.5,-0.5L0,-3.0L2.5,-0.5"/>
                </g>
                <g id="arrowRight" xlink:href="#dirArrow" transform="rotate(90) translate(36 -43)" onmousedown="handlePan(1,0)">
                  <use xlink:href="#rim" fill="#404040">
                        <set attributeName="fill" to="#808080" begin="arrowRight.mouseover" end="arrowRight.mouseout"/>
                  </use>
                  <path fill="none" stroke="white" stroke-width="1.5" d="M0,-3.0v7 M-2.5,-0.5L0,-3.0L2.5,-0.5"/>
                </g>
                <g id="arrowDown" xlink:href="#dirArrow" transform="rotate(180) translate(-30 -48)" onmousedown="handlePan(0,1)">
                  <use xlink:href="#rim" fill="#404040">
                        <set attributeName="fill" to="#808080" begin="arrowDown.mouseover" end="arrowDown.mouseout"/>
                  </use>
                  <path fill="none" stroke="white" stroke-width="1.5" d="M0,-3.0v7 M-2.5,-0.5L0,-3.0L2.5,-0.5"/>
                </g>
                <g id="arrowLeft" xlink:href="#dirArrow" transform="rotate(270) translate(-36 17)" onmousedown="handlePan(-1,0)">
                  <use xlink:href="#rim" fill="#404040">
                        <set attributeName="fill" to="#808080" begin="arrowLeft.mouseover" end="arrowLeft.mouseout"/>
                  </use>
                  <path fill="none" stroke="white" stroke-width="1.5" d="M0,-3.0v7 M-2.5,-0.5L0,-3.0L2.5,-0.5"/>
                </g>
        </g>
        <svg viewBox="0 0 15 15" width="100%" height="30px" preserveAspectRatio="xMaxYMin meet">
         <g id="arrow_out" transform="scale(0.3 0.3)">
          <a xlink:href="quickjs_8c_af40540b5f7e973f44e4e89d87938bfc6_cgraph_org.svg" target="_base">
           <rect id="button" ry="5" rx="5" y="6" x="6" height="38" width="38"
                fill="#f2f5e9" fill-opacity="0.5" stroke="#606060" stroke-width="1.0"/>
           <path id="arrow"
             d="M 11.500037,31.436501 C 11.940474,20.09759 22.043105,11.32322 32.158766,21.979434 L 37.068811,17.246167 C 37.068811,17.246167 37.088388,32 37.088388,32 L 22.160133,31.978069 C 22.160133,31.978069 26.997745,27.140456 26.997745,27.140456 C 18.528582,18.264221 13.291696,25.230495 11.500037,31.436501 z"
             style="fill:#404040;"/>
          </a>
         </g>
        </svg>
</svg>
