<?xml version="1.0" encoding="UTF-8" standalone="no"?>
<!DOCTYPE svg PUBLIC "-//W3C//DTD SVG 1.1//EN"
 "http://www.w3.org/Graphics/SVG/1.1/DTD/svg11.dtd">
<!-- Generated by graphviz version 2.40.1 (20161225.0304)
 -->
<!-- Title: JS_ToStringFree Pages: 1 -->
<svg width="769pt" height="882pt"
 viewBox="0.00 0.00 769.00 882.00" xmlns="http://www.w3.org/2000/svg" xmlns:xlink="http://www.w3.org/1999/xlink">
<g id="graph0" class="graph" transform="scale(1 1) rotate(0) translate(4 878)">
<title>JS_ToStringFree</title>
<!-- Node257983 -->
<g id="node1" class="node">
<title>Node257983</title>
<polygon fill="#bfbfbf" stroke="#000000" points="0,-326.5 0,-345.5 90,-345.5 90,-326.5 0,-326.5"/>
<text text-anchor="middle" x="45" y="-333.5" font-family="Helvetica,sans-Serif" font-size="10.00" fill="#000000">JS_ToStringFree</text>
</g>
<!-- Node257984 -->
<g id="node2" class="node">
<title>Node257984</title>
<g id="a_node2"><a xlink:href="quickjs_8c.html#a93aaed931ba8fcbf558c02a846fc7844" target="_top" xlink:title="check_regexp_g_flag">
<polygon fill="none" stroke="#000000" points="149,-816.5 149,-835.5 268,-835.5 268,-816.5 149,-816.5"/>
<text text-anchor="middle" x="208.5" y="-823.5" font-family="Helvetica,sans-Serif" font-size="10.00" fill="#000000">check_regexp_g_flag</text>
</a>
</g>
</g>
<!-- Node257983&#45;&gt;Node257984 -->
<g id="edge1" class="edge">
<title>Node257983&#45;&gt;Node257984</title>
<path fill="none" stroke="#191970" d="M47.3623,-355.8986C56.1726,-428.0914 88.5388,-675.6124 126,-745 142.783,-776.0862 175.4835,-802.7141 194.2824,-816.3207"/>
<polygon fill="#191970" stroke="#191970" points="50.7845,-355.0421 46.1131,-345.5328 43.8347,-355.8797 50.7845,-355.0421"/>
</g>
<!-- Node257986 -->
<g id="node4" class="node">
<title>Node257986</title>
<g id="a_node4"><a xlink:href="quickjs_8c.html#aed1bf9ce4b9e3a82388679dd6ec7635b" target="_top" xlink:title="js_string_replace">
<polygon fill="none" stroke="#000000" points="343.5,-816.5 343.5,-835.5 442.5,-835.5 442.5,-816.5 343.5,-816.5"/>
<text text-anchor="middle" x="393" y="-823.5" font-family="Helvetica,sans-Serif" font-size="10.00" fill="#000000">js_string_replace</text>
</a>
</g>
</g>
<!-- Node257983&#45;&gt;Node257986 -->
<g id="edge37" class="edge">
<title>Node257983&#45;&gt;Node257986</title>
<path fill="none" stroke="#191970" d="M45.5672,-355.534C47.9648,-408.2917 60.4969,-556.3167 126,-655 187.9397,-748.3149 226.8352,-756.888 327,-807 334.4645,-810.7345 342.7816,-813.8472 350.9268,-816.3991"/>
<polygon fill="#191970" stroke="#191970" points="49.0638,-355.3763 45.1862,-345.5166 42.0689,-355.6424 49.0638,-355.3763"/>
</g>
<!-- Node257987 -->
<g id="node5" class="node">
<title>Node257987</title>
<g id="a_node5"><a xlink:href="quickjs_8c.html#ab6d8a1a52baf4d686aed594b996699d7" target="_top" xlink:title="JS_ConcatString">
<polygon fill="none" stroke="#000000" points="162,-471.5 162,-490.5 255,-490.5 255,-471.5 162,-471.5"/>
<text text-anchor="middle" x="208.5" y="-478.5" font-family="Helvetica,sans-Serif" font-size="10.00" fill="#000000">JS_ConcatString</text>
</a>
</g>
</g>
<!-- Node257983&#45;&gt;Node257987 -->
<g id="edge4" class="edge">
<title>Node257983&#45;&gt;Node257987</title>
<path fill="none" stroke="#191970" d="M53.0494,-354.6609C65.1724,-380.6241 90.5311,-427.4395 126,-454 136.4949,-461.859 149.3848,-467.4946 161.8297,-471.5105"/>
<polygon fill="#191970" stroke="#191970" points="56.2293,-353.1981 48.9287,-345.5201 49.8477,-356.075 56.2293,-353.1981"/>
</g>
<!-- Node258571 -->
<g id="node8" class="node">
<title>Node258571</title>
<g id="a_node8"><a xlink:href="quickjs_8c.html#a367aedcd65b39452fb00ce58dac0c6f6" target="_top" xlink:title="js_error_toString">
<polygon fill="none" stroke="#000000" points="344.5,-550.5 344.5,-569.5 441.5,-569.5 441.5,-550.5 344.5,-550.5"/>
<text text-anchor="middle" x="393" y="-557.5" font-family="Helvetica,sans-Serif" font-size="10.00" fill="#000000">js_error_toString</text>
</a>
</g>
</g>
<!-- Node257983&#45;&gt;Node258571 -->
<g id="edge25" class="edge">
<title>Node257983&#45;&gt;Node258571</title>
<path fill="none" stroke="#191970" d="M48.8698,-355.4266C56.8402,-390.1267 78.4798,-462.6186 126,-500 189.4802,-549.9362 286.3921,-560.0096 344.3409,-561.1422"/>
<polygon fill="#191970" stroke="#191970" points="52.276,-354.6183 46.7469,-345.5806 45.4333,-356.0937 52.276,-354.6183"/>
</g>
<!-- Node258073 -->
<g id="node9" class="node">
<title>Node258073</title>
<g id="a_node9"><a xlink:href="quickjs_8c.html#a60d84dd116a9d7d912d08f298a4734dd" target="_top" xlink:title="js_json_to_str">
<polygon fill="none" stroke="#000000" points="351.5,-380.5 351.5,-399.5 434.5,-399.5 434.5,-380.5 351.5,-380.5"/>
<text text-anchor="middle" x="393" y="-387.5" font-family="Helvetica,sans-Serif" font-size="10.00" fill="#000000">js_json_to_str</text>
</a>
</g>
</g>
<!-- Node257983&#45;&gt;Node258073 -->
<g id="edge26" class="edge">
<title>Node257983&#45;&gt;Node258073</title>
<path fill="none" stroke="#191970" d="M56.5876,-353.8744C70.4161,-373.3788 95.5366,-403.4924 126,-416 210.0126,-450.4939 320.9548,-417.3529 369.0556,-399.6006"/>
<polygon fill="#191970" stroke="#191970" points="59.4156,-351.8091 50.8908,-345.5179 53.6318,-355.7521 59.4156,-351.8091"/>
</g>
<!-- Node258074 -->
<g id="node10" class="node">
<title>Node258074</title>
<g id="a_node10"><a xlink:href="quickjs_8c.html#a343a343b16bc3c9875050e99ee0d2884" target="_top" xlink:title="JS_JSONStringify">
<polygon fill="none" stroke="#ff0000" points="518.5,-361.5 518.5,-380.5 614.5,-380.5 614.5,-361.5 518.5,-361.5"/>
<text text-anchor="middle" x="566.5" y="-368.5" font-family="Helvetica,sans-Serif" font-size="10.00" fill="#000000">JS_JSONStringify</text>
</a>
</g>
</g>
<!-- Node257983&#45;&gt;Node258074 -->
<g id="edge27" class="edge">
<title>Node257983&#45;&gt;Node258074</title>
<path fill="none" stroke="#191970" d="M65.0353,-351.6741C80.6586,-362.8482 103.4266,-376.9252 126,-383 196.8139,-402.0569 218.6136,-394.7467 291,-383 307.6477,-380.2984 310.3523,-373.7016 327,-371 392.6687,-360.3434 469.8062,-363.0076 518.4247,-366.5043"/>
<polygon fill="#191970" stroke="#191970" points="66.8365,-348.6527 56.7176,-345.5129 62.6699,-354.2776 66.8365,-348.6527"/>
</g>
<!-- Node258592 -->
<g id="node12" class="node">
<title>Node258592</title>
<g id="a_node12"><a xlink:href="quickjs_8c.html#a964b0ba49f8823d8d8f21c6645a81542" target="_top" xlink:title="JS_ConcatString3">
<polygon fill="none" stroke="#000000" points="159,-626.5 159,-645.5 258,-645.5 258,-626.5 159,-626.5"/>
<text text-anchor="middle" x="208.5" y="-633.5" font-family="Helvetica,sans-Serif" font-size="10.00" fill="#000000">JS_ConcatString3</text>
</a>
</g>
</g>
<!-- Node257983&#45;&gt;Node258592 -->
<g id="edge14" class="edge">
<title>Node257983&#45;&gt;Node258592</title>
<path fill="none" stroke="#191970" d="M48.6415,-355.4775C59.2717,-410.512 91.6851,-565.6009 126,-603 136.1164,-614.0256 150.411,-621.4337 164.265,-626.3827"/>
<polygon fill="#191970" stroke="#191970" points="52.0694,-354.7679 46.7611,-345.5988 45.1929,-356.0769 52.0694,-354.7679"/>
</g>
<!-- Node258101 -->
<g id="node18" class="node">
<title>Node258101</title>
<g id="a_node18"><a xlink:href="quickjs_8c.html#a79872a6d9d139e36d5d1894d16132024" target="_top" xlink:title="js_regexp_Symbol_split">
<polygon fill="none" stroke="#000000" points="327,-588.5 327,-607.5 459,-607.5 459,-588.5 327,-588.5"/>
<text text-anchor="middle" x="393" y="-595.5" font-family="Helvetica,sans-Serif" font-size="10.00" fill="#000000">js_regexp_Symbol_split</text>
</a>
</g>
</g>
<!-- Node257983&#45;&gt;Node258101 -->
<g id="edge35" class="edge">
<title>Node257983&#45;&gt;Node258101</title>
<path fill="none" stroke="#191970" d="M46.6777,-355.7215C51.3022,-397.0671 68.0395,-493.0366 126,-542 181.8992,-589.2221 267.576,-599.8426 326.7277,-600.841"/>
<polygon fill="#191970" stroke="#191970" points="50.1429,-355.1974 45.6704,-345.5929 43.1773,-355.8902 50.1429,-355.1974"/>
</g>
<!-- Node258374 -->
<g id="node19" class="node">
<title>Node258374</title>
<g id="a_node19"><a xlink:href="quickjs_8c.html#afad8d7db437ba0647d2dbf77cd9769d6" target="_top" xlink:title="js_number_toExponential">
<polygon fill="none" stroke="#000000" points="138.5,-228.5 138.5,-247.5 278.5,-247.5 278.5,-228.5 138.5,-228.5"/>
<text text-anchor="middle" x="208.5" y="-235.5" font-family="Helvetica,sans-Serif" font-size="10.00" fill="#000000">js_number_toExponential</text>
</a>
</g>
</g>
<!-- Node257983&#45;&gt;Node258374 -->
<g id="edge28" class="edge">
<title>Node257983&#45;&gt;Node258374</title>
<path fill="none" stroke="#191970" d="M58.3308,-318.1769C72.9203,-299.9757 97.9949,-272.2857 126,-257 133.0957,-253.1271 140.9504,-250.0413 148.9106,-247.5832"/>
<polygon fill="#191970" stroke="#191970" points="55.4244,-316.2127 52.0441,-326.2538 60.9483,-320.5123 55.4244,-316.2127"/>
</g>
<!-- Node258375 -->
<g id="node20" class="node">
<title>Node258375</title>
<g id="a_node20"><a xlink:href="quickjs_8c.html#a7440a8b206568f2729470433d57d9a98" target="_top" xlink:title="js_number_toFixed">
<polygon fill="none" stroke="#000000" points="154.5,-190.5 154.5,-209.5 262.5,-209.5 262.5,-190.5 154.5,-190.5"/>
<text text-anchor="middle" x="208.5" y="-197.5" font-family="Helvetica,sans-Serif" font-size="10.00" fill="#000000">js_number_toFixed</text>
</a>
</g>
</g>
<!-- Node257983&#45;&gt;Node258375 -->
<g id="edge29" class="edge">
<title>Node257983&#45;&gt;Node258375</title>
<path fill="none" stroke="#191970" d="M52.7742,-317.052C64.5676,-290.7759 89.5345,-243.7234 126,-219 134.3941,-213.3088 144.2567,-209.3053 154.1862,-206.493"/>
<polygon fill="#191970" stroke="#191970" points="49.5249,-315.7484 48.778,-326.3169 55.9525,-318.5208 49.5249,-315.7484"/>
</g>
<!-- Node258376 -->
<g id="node21" class="node">
<title>Node258376</title>
<g id="a_node21"><a xlink:href="quickjs_8c.html#a806a4bbff6962ecc09ab3ae101b3755a" target="_top" xlink:title="js_number_toPrecision">
<polygon fill="none" stroke="#000000" points="145,-152.5 145,-171.5 272,-171.5 272,-152.5 145,-152.5"/>
<text text-anchor="middle" x="208.5" y="-159.5" font-family="Helvetica,sans-Serif" font-size="10.00" fill="#000000">js_number_toPrecision</text>
</a>
</g>
</g>
<!-- Node257983&#45;&gt;Node258376 -->
<g id="edge30" class="edge">
<title>Node257983&#45;&gt;Node258376</title>
<path fill="none" stroke="#191970" d="M49.5796,-316.2677C58.3734,-282.9704 80.8835,-215.8565 126,-181 131.5829,-176.6867 137.9725,-173.323 144.6702,-170.7043"/>
<polygon fill="#191970" stroke="#191970" points="46.1344,-315.6181 47.1103,-326.1679 52.9264,-317.3122 46.1344,-315.6181"/>
</g>
<!-- Node258133 -->
<g id="node22" class="node">
<title>Node258133</title>
<g id="a_node22"><a xlink:href="quickjs_8c.html#aeb6df5fcffc6fecfac1e9b0d709e99c5" target="_top" xlink:title="js_regexp_string_iterator_next">
<polygon fill="none" stroke="#000000" points="126,-114.5 126,-133.5 291,-133.5 291,-114.5 126,-114.5"/>
<text text-anchor="middle" x="208.5" y="-121.5" font-family="Helvetica,sans-Serif" font-size="10.00" fill="#000000">js_regexp_string_iterator_next</text>
</a>
</g>
</g>
<!-- Node257983&#45;&gt;Node258133 -->
<g id="edge31" class="edge">
<title>Node257983&#45;&gt;Node258133</title>
<path fill="none" stroke="#191970" d="M47.356,-316.2383C53.1357,-276.9064 71.7456,-188.6881 126,-143 130.497,-139.213 135.6029,-136.1456 141.0175,-133.6654"/>
<polygon fill="#191970" stroke="#191970" points="43.8852,-315.7876 46.0221,-326.1647 50.8228,-316.7199 43.8852,-315.7876"/>
</g>
<!-- Node258125 -->
<g id="node23" class="node">
<title>Node258125</title>
<g id="a_node23"><a xlink:href="quickjs_8c.html#a41fc4304b39616e7be3500fe6ec881c2" target="_top" xlink:title="js_regexp_Symbol_match">
<polygon fill="none" stroke="#000000" points="137.5,-76.5 137.5,-95.5 279.5,-95.5 279.5,-76.5 137.5,-76.5"/>
<text text-anchor="middle" x="208.5" y="-83.5" font-family="Helvetica,sans-Serif" font-size="10.00" fill="#000000">js_regexp_Symbol_match</text>
</a>
</g>
</g>
<!-- Node257983&#45;&gt;Node258125 -->
<g id="edge32" class="edge">
<title>Node257983&#45;&gt;Node258125</title>
<path fill="none" stroke="#191970" d="M49.3421,-316.2923C60.832,-265.8847 93.3916,-134.1788 126,-105 130.2717,-101.1776 135.1565,-98.0789 140.3686,-95.5721"/>
<polygon fill="#191970" stroke="#191970" points="45.881,-315.7309 47.1058,-326.2547 52.7111,-317.2641 45.881,-315.7309"/>
</g>
<!-- Node258100 -->
<g id="node24" class="node">
<title>Node258100</title>
<g id="a_node24"><a xlink:href="quickjs_8c.html#ace9b3fda4db2506ca054f0c7aaf41880" target="_top" xlink:title="js_regexp_Symbol_matchAll">
<polygon fill="none" stroke="#000000" points="131,-38.5 131,-57.5 286,-57.5 286,-38.5 131,-38.5"/>
<text text-anchor="middle" x="208.5" y="-45.5" font-family="Helvetica,sans-Serif" font-size="10.00" fill="#000000">js_regexp_Symbol_matchAll</text>
</a>
</g>
</g>
<!-- Node257983&#45;&gt;Node258100 -->
<g id="edge33" class="edge">
<title>Node257983&#45;&gt;Node258100</title>
<path fill="none" stroke="#191970" d="M48.2802,-316.4791C58.0486,-260.6356 88.6055,-102.0001 126,-67 130.0777,-63.1834 134.7626,-60.0812 139.7846,-57.5654"/>
<polygon fill="#191970" stroke="#191970" points="44.8053,-316.035 46.5618,-326.4832 51.7043,-317.22 44.8053,-316.035"/>
</g>
<!-- Node258063 -->
<g id="node25" class="node">
<title>Node258063</title>
<g id="a_node25"><a xlink:href="quickjs_8c.html#a6a77bcdb9f7f18c13c108c99a198708b" target="_top" xlink:title="js_regexp_Symbol_replace">
<polygon fill="none" stroke="#000000" points="135,-.5 135,-19.5 282,-19.5 282,-.5 135,-.5"/>
<text text-anchor="middle" x="208.5" y="-7.5" font-family="Helvetica,sans-Serif" font-size="10.00" fill="#000000">js_regexp_Symbol_replace</text>
</a>
</g>
</g>
<!-- Node257983&#45;&gt;Node258063 -->
<g id="edge34" class="edge">
<title>Node257983&#45;&gt;Node258063</title>
<path fill="none" stroke="#191970" d="M47.5444,-316.1981C55.8183,-254.8796 83.8804,-69.8088 126,-29 129.9057,-25.2159 134.4057,-22.1287 139.2468,-19.616"/>
<polygon fill="#191970" stroke="#191970" points="44.0313,-316.0681 46.1928,-326.4401 50.9712,-316.984 44.0313,-316.0681"/>
</g>
<!-- Node258302 -->
<g id="node26" class="node">
<title>Node258302</title>
<g id="a_node26"><a xlink:href="quickjs_8c.html#a80bed67de3ceaf66888093b5fc84972a" target="_top" xlink:title="js_string_raw">
<polygon fill="none" stroke="#000000" points="352.5,-304.5 352.5,-323.5 433.5,-323.5 433.5,-304.5 352.5,-304.5"/>
<text text-anchor="middle" x="393" y="-311.5" font-family="Helvetica,sans-Serif" font-size="10.00" fill="#000000">js_string_raw</text>
</a>
</g>
</g>
<!-- Node257983&#45;&gt;Node258302 -->
<g id="edge36" class="edge">
<title>Node257983&#45;&gt;Node258302</title>
<path fill="none" stroke="#191970" d="M100.5485,-332.4883C170.7539,-328.05 289.9376,-320.5154 352.2674,-316.5751"/>
<polygon fill="#191970" stroke="#191970" points="99.8974,-329.0224 90.1382,-333.1464 100.3391,-336.0085 99.8974,-329.0224"/>
</g>
<!-- Node258566 -->
<g id="node27" class="node">
<title>Node258566</title>
<g id="a_node27"><a xlink:href="quickjs_8c.html#aec0d90811584e89016b62543155169d8" target="_top" xlink:title="JS_ToLocaleStringFree">
<polygon fill="none" stroke="#000000" points="147.5,-266.5 147.5,-285.5 269.5,-285.5 269.5,-266.5 147.5,-266.5"/>
<text text-anchor="middle" x="208.5" y="-273.5" font-family="Helvetica,sans-Serif" font-size="10.00" fill="#000000">JS_ToLocaleStringFree</text>
</a>
</g>
</g>
<!-- Node257983&#45;&gt;Node258566 -->
<g id="edge38" class="edge">
<title>Node257983&#45;&gt;Node258566</title>
<path fill="none" stroke="#191970" d="M74.0764,-321.9325C89.3326,-314.8452 108.4539,-306.4179 126,-300 140.7094,-294.6197 157.2313,-289.6154 171.6044,-285.5838"/>
<polygon fill="#191970" stroke="#191970" points="72.2222,-318.9368 64.6644,-326.3618 75.2029,-325.2705 72.2222,-318.9368"/>
</g>
<!-- Node258594 -->
<g id="node30" class="node">
<title>Node258594</title>
<g id="a_node30"><a xlink:href="quickjs_8c.html#ac91bb65d1f12eadbcc97cecf2860350b" target="_top" xlink:title="string_buffer_concat\l_value_free">
<polygon fill="none" stroke="#ff0000" points="150.5,-343 150.5,-373 266.5,-373 266.5,-343 150.5,-343"/>
<text text-anchor="start" x="158.5" y="-361" font-family="Helvetica,sans-Serif" font-size="10.00" fill="#000000">string_buffer_concat</text>
<text text-anchor="middle" x="208.5" y="-350" font-family="Helvetica,sans-Serif" font-size="10.00" fill="#000000">_value_free</text>
</a>
</g>
</g>
<!-- Node257983&#45;&gt;Node258594 -->
<g id="edge41" class="edge">
<title>Node257983&#45;&gt;Node258594</title>
<path fill="none" stroke="#191970" d="M100.4271,-343.4581C116.5065,-345.6217 134.1068,-347.9899 150.348,-350.1753"/>
<polygon fill="#191970" stroke="#191970" points="100.4874,-339.9347 90.1099,-342.0698 99.5538,-346.8722 100.4874,-339.9347"/>
</g>
<!-- Node257985 -->
<g id="node3" class="node">
<title>Node257985</title>
<g id="a_node3"><a xlink:href="quickjs_8c.html#a48c74f10715547bf679361ae42e2a97f" target="_top" xlink:title="js_string_match">
<polygon fill="none" stroke="#000000" points="346,-854.5 346,-873.5 440,-873.5 440,-854.5 346,-854.5"/>
<text text-anchor="middle" x="393" y="-861.5" font-family="Helvetica,sans-Serif" font-size="10.00" fill="#000000">js_string_match</text>
</a>
</g>
</g>
<!-- Node257984&#45;&gt;Node257985 -->
<g id="edge2" class="edge">
<title>Node257984&#45;&gt;Node257985</title>
<path fill="none" stroke="#191970" d="M264.8672,-837.6095C291.1074,-843.014 321.936,-849.3635 346.7776,-854.4799"/>
<polygon fill="#191970" stroke="#191970" points="265.5576,-834.1783 255.0571,-835.589 264.1455,-841.0344 265.5576,-834.1783"/>
</g>
<!-- Node257984&#45;&gt;Node257986 -->
<g id="edge3" class="edge">
<title>Node257984&#45;&gt;Node257986</title>
<path fill="none" stroke="#191970" d="M278.296,-826C299.9797,-826 323.4256,-826 343.4347,-826"/>
<polygon fill="#191970" stroke="#191970" points="278.1471,-822.5001 268.1471,-826 278.147,-829.5001 278.1471,-822.5001"/>
</g>
<!-- Node257988 -->
<g id="node6" class="node">
<title>Node257988</title>
<g id="a_node6"><a xlink:href="quickjs_8c.html#ae8ff05447c0d51fe277baccf616dc7c6" target="_top" xlink:title="js_add_slow">
<polygon fill="none" stroke="#000000" points="528.5,-512.5 528.5,-531.5 604.5,-531.5 604.5,-512.5 528.5,-512.5"/>
<text text-anchor="middle" x="566.5" y="-519.5" font-family="Helvetica,sans-Serif" font-size="10.00" fill="#000000">js_add_slow</text>
</a>
</g>
</g>
<!-- Node257987&#45;&gt;Node257988 -->
<g id="edge5" class="edge">
<title>Node257987&#45;&gt;Node257988</title>
<path fill="none" stroke="#191970" d="M263.4638,-492.4394C283.4022,-496.2617 306.1485,-500.245 327,-503 397.7104,-512.3427 480.8168,-517.6816 528.2092,-520.197"/>
<polygon fill="#191970" stroke="#191970" points="264.1058,-488.9988 253.6212,-490.5226 262.7677,-495.8697 264.1058,-488.9988"/>
</g>
<!-- Node257989 -->
<g id="node7" class="node">
<title>Node257989</title>
<g id="a_node7"><a xlink:href="quickjs_8c.html#ac2894ff4edcdb4e6841bcce9c76081e3" target="_top" xlink:title="JS_CallInternal">
<polygon fill="none" stroke="#ff0000" points="674,-512.5 674,-531.5 761,-531.5 761,-512.5 674,-512.5"/>
<text text-anchor="middle" x="717.5" y="-519.5" font-family="Helvetica,sans-Serif" font-size="10.00" fill="#000000">JS_CallInternal</text>
</a>
</g>
</g>
<!-- Node257987&#45;&gt;Node257989 -->
<g id="edge8" class="edge">
<title>Node257987&#45;&gt;Node257989</title>
<path fill="none" stroke="#191970" d="M265.0443,-471.792C284.61,-469.0248 306.7159,-466.3632 327,-465 385.5346,-461.0661 400.6539,-458.8751 459,-465 539.884,-473.4908 558.6654,-485.1018 638,-503 651.1507,-505.9669 665.4891,-509.3482 678.3228,-512.4279"/>
<polygon fill="#191970" stroke="#191970" points="264.4599,-468.3401 255.0674,-473.2423 265.4669,-475.2672 264.4599,-468.3401"/>
</g>
<!-- Node257987&#45;&gt;Node258571 -->
<g id="edge9" class="edge">
<title>Node257987&#45;&gt;Node258571</title>
<path fill="none" stroke="#191970" d="M240.256,-494.8684C255.6481,-501.6854 274.3607,-510.1132 291,-518 307.1647,-525.6618 310.5671,-528.9317 327,-536 339.0963,-541.203 352.7329,-546.2874 364.4573,-550.4273"/>
<polygon fill="#191970" stroke="#191970" points="241.2378,-491.4762 230.6758,-490.6432 238.413,-497.881 241.2378,-491.4762"/>
</g>
<!-- Node257987&#45;&gt;Node258073 -->
<g id="edge10" class="edge">
<title>Node257987&#45;&gt;Node258073</title>
<path fill="none" stroke="#191970" d="M253.7956,-468.3722C266.1011,-464.3536 279.2636,-459.5013 291,-454 295.543,-451.8705 350.6465,-416.9353 377.9143,-399.6007"/>
<polygon fill="#191970" stroke="#191970" points="252.6385,-465.0671 244.1541,-471.4127 254.7438,-471.743 252.6385,-465.0671"/>
</g>
<!-- Node258545 -->
<g id="node11" class="node">
<title>Node258545</title>
<g id="a_node11"><a xlink:href="quickjs_8c.html#ad15d899d5566569437570ab09c3f1f33" target="_top" xlink:title="js_string_concat">
<polygon fill="none" stroke="#000000" points="345.5,-474.5 345.5,-493.5 440.5,-493.5 440.5,-474.5 345.5,-474.5"/>
<text text-anchor="middle" x="393" y="-481.5" font-family="Helvetica,sans-Serif" font-size="10.00" fill="#000000">js_string_concat</text>
</a>
</g>
</g>
<!-- Node257987&#45;&gt;Node258545 -->
<g id="edge13" class="edge">
<title>Node257987&#45;&gt;Node258545</title>
<path fill="none" stroke="#191970" d="M265.0558,-481.9196C290.8046,-482.3383 320.9398,-482.8283 345.4942,-483.2275"/>
<polygon fill="#191970" stroke="#191970" points="265.1128,-478.4202 255.0571,-481.757 264.9989,-485.4192 265.1128,-478.4202"/>
</g>
<!-- Node257988&#45;&gt;Node257989 -->
<g id="edge6" class="edge">
<title>Node257988&#45;&gt;Node257989</title>
<path fill="none" stroke="#191970" d="M614.8173,-522C633.7552,-522 655.3263,-522 673.7929,-522"/>
<polygon fill="#191970" stroke="#191970" points="614.6037,-518.5001 604.6037,-522 614.6036,-525.5001 614.6037,-518.5001"/>
</g>
<!-- Node257989&#45;&gt;Node257989 -->
<g id="edge7" class="edge">
<title>Node257989&#45;&gt;Node257989</title>
<path fill="none" stroke="#191970" d="M689.5009,-540.6539C690.6712,-545.9368 700.0043,-550 717.5,-550 744.1602,-550 751.8666,-540.5653 740.6194,-531.7571"/>
<polygon fill="#191970" stroke="#191970" points="692.6403,-542.208 694.3806,-531.7571 686.5029,-538.8417 692.6403,-542.208"/>
</g>
<!-- Node258073&#45;&gt;Node258073 -->
<g id="edge11" class="edge">
<title>Node258073&#45;&gt;Node258073</title>
<path fill="none" stroke="#191970" d="M360.8144,-408.2746C361.732,-413.741 372.4606,-418 393,-418 423.5703,-418 432.407,-408.5653 419.5102,-399.7571"/>
<polygon fill="#191970" stroke="#191970" points="363.8574,-410.0197 366.4898,-399.7571 358.0321,-406.1381 363.8574,-410.0197"/>
</g>
<!-- Node258073&#45;&gt;Node258074 -->
<g id="edge12" class="edge">
<title>Node258073&#45;&gt;Node258074</title>
<path fill="none" stroke="#191970" d="M444.6117,-384.348C467.9242,-381.795 495.3108,-378.7959 518.2129,-376.2879"/>
<polygon fill="#191970" stroke="#191970" points="444.1171,-380.8811 434.5576,-385.449 444.8792,-387.8395 444.1171,-380.8811"/>
</g>
<!-- Node258592&#45;&gt;Node258571 -->
<g id="edge15" class="edge">
<title>Node258592&#45;&gt;Node258571</title>
<path fill="none" stroke="#191970" d="M235.2044,-621.5559C258.8567,-609.1526 294.5663,-591.3684 327,-579 336.1357,-575.5162 346.1904,-572.3147 355.6381,-569.5723"/>
<polygon fill="#191970" stroke="#191970" points="233.3544,-618.575 226.1549,-626.3479 236.6302,-624.7613 233.3544,-618.575"/>
</g>
<!-- Node258592&#45;&gt;Node258073 -->
<g id="edge21" class="edge">
<title>Node258592&#45;&gt;Node258073</title>
<path fill="none" stroke="#191970" d="M220.1216,-617.7888C240.63,-585.992 285.0506,-518.6261 327,-465 346.0222,-440.6829 370.5,-413.9223 383.6502,-399.8725"/>
<polygon fill="#191970" stroke="#191970" points="217.0116,-616.1544 214.5538,-626.4602 222.9019,-619.9365 217.0116,-616.1544"/>
</g>
<!-- Node258256 -->
<g id="node13" class="node">
<title>Node258256</title>
<g id="a_node13"><a xlink:href="quickjs_8c.html#ac6d5606ba25525b3a03981eefbe98e13" target="_top" xlink:title="js_function_bind">
<polygon fill="none" stroke="#000000" points="345,-702.5 345,-721.5 441,-721.5 441,-702.5 345,-702.5"/>
<text text-anchor="middle" x="393" y="-709.5" font-family="Helvetica,sans-Serif" font-size="10.00" fill="#000000">js_function_bind</text>
</a>
</g>
</g>
<!-- Node258592&#45;&gt;Node258256 -->
<g id="edge16" class="edge">
<title>Node258592&#45;&gt;Node258256</title>
<path fill="none" stroke="#191970" d="M235.2044,-650.4441C258.8567,-662.8474 294.5663,-680.6316 327,-693 336.1357,-696.4838 346.1904,-699.6853 355.6381,-702.4277"/>
<polygon fill="#191970" stroke="#191970" points="236.6302,-647.2387 226.1549,-645.6521 233.3544,-653.425 236.6302,-647.2387"/>
</g>
<!-- Node258570 -->
<g id="node14" class="node">
<title>Node258570</title>
<g id="a_node14"><a xlink:href="quickjs_8c.html#a9876c37aa1b715e05e0e5fe1b46bcf3d" target="_top" xlink:title="js_function_toString">
<polygon fill="none" stroke="#000000" points="336.5,-664.5 336.5,-683.5 449.5,-683.5 449.5,-664.5 336.5,-664.5"/>
<text text-anchor="middle" x="393" y="-671.5" font-family="Helvetica,sans-Serif" font-size="10.00" fill="#000000">js_function_toString</text>
</a>
</g>
</g>
<!-- Node258592&#45;&gt;Node258570 -->
<g id="edge17" class="edge">
<title>Node258592&#45;&gt;Node258570</title>
<path fill="none" stroke="#191970" d="M264.8672,-647.6095C291.1074,-653.014 321.936,-659.3635 346.7776,-664.4799"/>
<polygon fill="#191970" stroke="#191970" points="265.5576,-644.1783 255.0571,-645.589 264.1455,-651.0344 265.5576,-644.1783"/>
</g>
<!-- Node258593 -->
<g id="node15" class="node">
<title>Node258593</title>
<g id="a_node15"><a xlink:href="quickjs_8c.html#adadf01adc112b1f79ced7b2884a5738b" target="_top" xlink:title="js_get_function_name">
<polygon fill="none" stroke="#ff0000" points="331,-626.5 331,-645.5 455,-645.5 455,-626.5 331,-626.5"/>
<text text-anchor="middle" x="393" y="-633.5" font-family="Helvetica,sans-Serif" font-size="10.00" fill="#000000">js_get_function_name</text>
</a>
</g>
</g>
<!-- Node258592&#45;&gt;Node258593 -->
<g id="edge18" class="edge">
<title>Node258592&#45;&gt;Node258593</title>
<path fill="none" stroke="#191970" d="M268.6159,-636C288.5406,-636 310.7509,-636 330.8271,-636"/>
<polygon fill="#191970" stroke="#191970" points="268.4284,-632.5001 258.4284,-636 268.4283,-639.5001 268.4284,-632.5001"/>
</g>
<!-- Node258269 -->
<g id="node16" class="node">
<title>Node258269</title>
<g id="a_node16"><a xlink:href="quickjs_8c.html#a44d4e574b5bd12a89f8389ca79e587a0" target="_top" xlink:title="js_method_set_properties">
<polygon fill="none" stroke="#000000" points="495,-626.5 495,-645.5 638,-645.5 638,-626.5 495,-626.5"/>
<text text-anchor="middle" x="566.5" y="-633.5" font-family="Helvetica,sans-Serif" font-size="10.00" fill="#000000">js_method_set_properties</text>
</a>
</g>
</g>
<!-- Node258592&#45;&gt;Node258269 -->
<g id="edge22" class="edge">
<title>Node258592&#45;&gt;Node258269</title>
<path fill="none" stroke="#191970" d="M223.0372,-653.3924C243.4709,-676.3299 283.131,-715.5862 327,-731 382.3495,-750.4475 404.1329,-751.7696 459,-731 505.1211,-713.5412 544.2057,-666.2594 559.5485,-645.7311"/>
<polygon fill="#191970" stroke="#191970" points="225.6053,-651.0116 216.4067,-645.7545 220.3192,-655.6005 225.6053,-651.0116"/>
</g>
<!-- Node258300 -->
<g id="node17" class="node">
<title>Node258300</title>
<g id="a_node17"><a xlink:href="quickjs_8c.html#ae69c38078aefed427b6c0d7b6870bd9c" target="_top" xlink:title="js_object_toString">
<polygon fill="none" stroke="#ff0000" points="341,-778.5 341,-797.5 445,-797.5 445,-778.5 341,-778.5"/>
<text text-anchor="middle" x="393" y="-785.5" font-family="Helvetica,sans-Serif" font-size="10.00" fill="#000000">js_object_toString</text>
</a>
</g>
</g>
<!-- Node258592&#45;&gt;Node258300 -->
<g id="edge23" class="edge">
<title>Node258592&#45;&gt;Node258300</title>
<path fill="none" stroke="#191970" d="M226.8007,-652.5614C244.0227,-668.4665 270.2023,-693.4826 291,-717 308.4311,-736.7105 305.7849,-748.4352 327,-764 335.3559,-770.1304 345.4391,-774.8357 355.1814,-778.3865"/>
<polygon fill="#191970" stroke="#191970" points="228.8662,-649.7069 219.1286,-645.5318 224.1372,-654.868 228.8662,-649.7069"/>
</g>
<!-- Node258592&#45;&gt;Node258101 -->
<g id="edge24" class="edge">
<title>Node258592&#45;&gt;Node258101</title>
<path fill="none" stroke="#191970" d="M264.8672,-624.3905C291.1074,-618.986 321.936,-612.6365 346.7776,-607.5201"/>
<polygon fill="#191970" stroke="#191970" points="264.1455,-620.9656 255.0571,-626.411 265.5576,-627.8217 264.1455,-620.9656"/>
</g>
<!-- Node258593&#45;&gt;Node258269 -->
<g id="edge19" class="edge">
<title>Node258593&#45;&gt;Node258269</title>
<path fill="none" stroke="#191970" d="M465.2091,-636C474.9728,-636 484.9894,-636 494.7451,-636"/>
<polygon fill="#191970" stroke="#191970" points="465.1475,-632.5001 455.1474,-636 465.1474,-639.5001 465.1475,-632.5001"/>
</g>
<!-- Node258269&#45;&gt;Node257989 -->
<g id="edge20" class="edge">
<title>Node258269&#45;&gt;Node257989</title>
<path fill="none" stroke="#191970" d="M587.2631,-620.3245C618.9485,-596.4031 678.442,-551.4875 704.6014,-531.738"/>
<polygon fill="#191970" stroke="#191970" points="584.9865,-617.6578 579.1145,-626.4765 589.2043,-623.2445 584.9865,-617.6578"/>
</g>
<!-- Node258282 -->
<g id="node28" class="node">
<title>Node258282</title>
<g id="a_node28"><a xlink:href="quickjs_8c.html#a4f8035820871c730dd7e98d46e137bc1" target="_top" xlink:title="js_array_join">
<polygon fill="none" stroke="#000000" points="353.5,-266.5 353.5,-285.5 432.5,-285.5 432.5,-266.5 353.5,-266.5"/>
<text text-anchor="middle" x="393" y="-273.5" font-family="Helvetica,sans-Serif" font-size="10.00" fill="#000000">js_array_join</text>
</a>
</g>
</g>
<!-- Node258566&#45;&gt;Node258282 -->
<g id="edge39" class="edge">
<title>Node258566&#45;&gt;Node258282</title>
<path fill="none" stroke="#191970" d="M279.8656,-276C304.8564,-276 332.0054,-276 353.4427,-276"/>
<polygon fill="#191970" stroke="#191970" points="279.6796,-272.5001 269.6796,-276 279.6795,-279.5001 279.6796,-272.5001"/>
</g>
<!-- Node258344 -->
<g id="node29" class="node">
<title>Node258344</title>
<g id="a_node29"><a xlink:href="quickjs_8c.html#aa04ea5aa5c3614856e8cd9843f1ebaa1" target="_top" xlink:title="js_typed_array_join">
<polygon fill="none" stroke="#000000" points="337,-228.5 337,-247.5 449,-247.5 449,-228.5 337,-228.5"/>
<text text-anchor="middle" x="393" y="-235.5" font-family="Helvetica,sans-Serif" font-size="10.00" fill="#000000">js_typed_array_join</text>
</a>
</g>
</g>
<!-- Node258566&#45;&gt;Node258344 -->
<g id="edge40" class="edge">
<title>Node258566&#45;&gt;Node258344</title>
<path fill="none" stroke="#191970" d="M264.8672,-264.3905C291.1074,-258.986 321.936,-252.6365 346.7776,-247.5201"/>
<polygon fill="#191970" stroke="#191970" points="264.1455,-260.9656 255.0571,-266.411 265.5576,-267.8217 264.1455,-260.9656"/>
</g>
<!-- Node258594&#45;&gt;Node257986 -->
<g id="edge45" class="edge">
<title>Node258594&#45;&gt;Node257986</title>
<path fill="none" stroke="#191970" d="M232.4741,-380.2314C251.8362,-399.7551 277.9365,-429.9738 291,-462 320.1133,-533.3736 277.5051,-747.9066 327,-807 331.364,-812.2103 337.0567,-816.0424 343.27,-818.8516"/>
<polygon fill="#191970" stroke="#191970" points="234.7495,-377.5601 225.166,-373.0426 229.8406,-382.5504 234.7495,-377.5601"/>
</g>
<!-- Node258594&#45;&gt;Node258073 -->
<g id="edge43" class="edge">
<title>Node258594&#45;&gt;Node258073</title>
<path fill="none" stroke="#191970" d="M276.786,-369.8436C301.7703,-374.177 329.2744,-378.9473 351.2512,-382.759"/>
<polygon fill="#191970" stroke="#191970" points="277.0748,-366.3415 266.6237,-368.0811 275.8785,-373.2386 277.0748,-366.3415"/>
</g>
<!-- Node258594&#45;&gt;Node258302 -->
<g id="edge44" class="edge">
<title>Node258594&#45;&gt;Node258302</title>
<path fill="none" stroke="#191970" d="M276.6835,-341.7394C302.3509,-335.6182 330.6908,-328.8596 352.9707,-323.5463"/>
<polygon fill="#191970" stroke="#191970" points="275.539,-338.4141 266.6237,-344.1385 277.1629,-345.2232 275.539,-338.4141"/>
</g>
<!-- Node258594&#45;&gt;Node258282 -->
<g id="edge42" class="edge">
<title>Node258594&#45;&gt;Node258282</title>
<path fill="none" stroke="#191970" d="M241.9649,-337.7884C265.2185,-324.3539 297.2545,-307.0352 327,-295 335.8426,-291.4222 345.6039,-288.2251 354.8461,-285.5201"/>
<polygon fill="#191970" stroke="#191970" points="240.064,-334.8454 233.1948,-342.9117 243.5949,-340.8896 240.064,-334.8454"/>
</g>
<!-- Node258594&#45;&gt;Node258344 -->
<g id="edge46" class="edge">
<title>Node258594&#45;&gt;Node258344</title>
<path fill="none" stroke="#191970" d="M238.7449,-336.7091C254.767,-324.9886 274.491,-309.8426 291,-295 308.3004,-279.4459 307.1223,-269.0877 327,-257 333.3165,-253.1589 340.4446,-250.0639 347.6208,-247.5789"/>
<polygon fill="#191970" stroke="#191970" points="236.317,-334.1458 230.2685,-342.8444 240.4214,-339.8162 236.317,-334.1458"/>
</g>
</g>
</svg>
