<?xml version="1.0" encoding="UTF-8" standalone="no"?>
<!DOCTYPE svg PUBLIC "-//W3C//DTD SVG 1.1//EN"
 "http://www.w3.org/Graphics/SVG/1.1/DTD/svg11.dtd">
<!-- Generated by graphviz version 2.40.1 (20161225.0304)
 -->
<!-- Title: push_scope Pages: 1 -->
<svg width="836pt" height="271pt"
 viewBox="0.00 0.00 836.00 271.05" xmlns="http://www.w3.org/2000/svg" xmlns:xlink="http://www.w3.org/1999/xlink">
<g id="graph0" class="graph" transform="scale(1 1) rotate(0) translate(4 267.0465)">
<title>push_scope</title>
<!-- Node313315 -->
<g id="node1" class="node">
<title>Node313315</title>
<polygon fill="#bfbfbf" stroke="#000000" points="0,-148.5465 0,-167.5465 74,-167.5465 74,-148.5465 0,-148.5465"/>
<text text-anchor="middle" x="37" y="-155.5465" font-family="Helvetica,sans-Serif" font-size="10.00" fill="#000000">push_scope</text>
</g>
<!-- Node313316 -->
<g id="node2" class="node">
<title>Node313316</title>
<g id="a_node2"><a xlink:href="quickjs_8c.html#a46a8a7e155cfd0af984f6725f060f0d6" target="_top" xlink:title="__JS_EvalInternal">
<polygon fill="none" stroke="#000000" points="110,-243.5465 110,-262.5465 210,-262.5465 210,-243.5465 110,-243.5465"/>
<text text-anchor="middle" x="160" y="-250.5465" font-family="Helvetica,sans-Serif" font-size="10.00" fill="#000000">__JS_EvalInternal</text>
</a>
</g>
</g>
<!-- Node313315&#45;&gt;Node313316 -->
<g id="edge1" class="edge">
<title>Node313315&#45;&gt;Node313316</title>
<path fill="none" stroke="#191970" d="M52.0187,-175.5879C65.9183,-191.0609 87.7399,-213.5046 110,-229.0465 118.0528,-234.6689 127.6261,-239.621 136.2299,-243.5444"/>
<polygon fill="#191970" stroke="#191970" points="54.3945,-172.9897 45.1593,-167.797 49.1406,-177.6154 54.3945,-172.9897"/>
</g>
<!-- Node313322 -->
<g id="node5" class="node">
<title>Node313322</title>
<g id="a_node5"><a xlink:href="quickjs_8c.html#acc0cac53be5317d9cab6a79afcd7da48" target="_top" xlink:title="js_parse_block">
<polygon fill="none" stroke="#000000" points="115.5,-129.5465 115.5,-148.5465 204.5,-148.5465 204.5,-129.5465 115.5,-129.5465"/>
<text text-anchor="middle" x="160" y="-136.5465" font-family="Helvetica,sans-Serif" font-size="10.00" fill="#000000">js_parse_block</text>
</a>
</g>
</g>
<!-- Node313315&#45;&gt;Node313322 -->
<g id="edge4" class="edge">
<title>Node313315&#45;&gt;Node313322</title>
<path fill="none" stroke="#191970" d="M84.1617,-150.7613C94.3137,-149.1931 105.0178,-147.5397 115.0816,-145.9851"/>
<polygon fill="#191970" stroke="#191970" points="83.5863,-147.3086 74.2378,-152.2943 84.655,-154.2266 83.5863,-147.3086"/>
</g>
<!-- Node313323 -->
<g id="node6" class="node">
<title>Node313323</title>
<g id="a_node6"><a xlink:href="quickjs_8c.html#a9d844c16dcc71701436848074337d32c" target="_top" xlink:title="js_parse_statement\l_or_decl">
<polygon fill="none" stroke="#000000" points="246,-86.0465 246,-116.0465 359,-116.0465 359,-86.0465 246,-86.0465"/>
<text text-anchor="start" x="254" y="-104.0465" font-family="Helvetica,sans-Serif" font-size="10.00" fill="#000000">js_parse_statement</text>
<text text-anchor="middle" x="302.5" y="-93.0465" font-family="Helvetica,sans-Serif" font-size="10.00" fill="#000000">_or_decl</text>
</a>
</g>
</g>
<!-- Node313315&#45;&gt;Node313323 -->
<g id="edge19" class="edge">
<title>Node313315&#45;&gt;Node313323</title>
<path fill="none" stroke="#191970" d="M60.2313,-143.0298C74.1139,-134.8172 92.4195,-125.2768 110,-120.0465 154.4198,-106.8314 206.8878,-102.3426 245.8191,-101.0123"/>
<polygon fill="#191970" stroke="#191970" points="58.0971,-140.2322 51.3903,-148.4339 61.7479,-146.2048 58.0971,-140.2322"/>
</g>
<!-- Node313325 -->
<g id="node8" class="node">
<title>Node313325</title>
<g id="a_node8"><a xlink:href="quickjs_8c.html#ac188b916dd086803591a67de7e7a85f6" target="_top" xlink:title="js_parse_for_in_of">
<polygon fill="none" stroke="#000000" points="585.5,-129.5465 585.5,-148.5465 690.5,-148.5465 690.5,-129.5465 585.5,-129.5465"/>
<text text-anchor="middle" x="638" y="-136.5465" font-family="Helvetica,sans-Serif" font-size="10.00" fill="#000000">js_parse_for_in_of</text>
</a>
</g>
</g>
<!-- Node313315&#45;&gt;Node313325 -->
<g id="edge17" class="edge">
<title>Node313315&#45;&gt;Node313325</title>
<path fill="none" stroke="#191970" d="M84.4592,-158.6129C119.2239,-158.8899 167.5489,-158.9883 210,-158.0465 345.336,-155.044 504.5661,-146.7075 585.3127,-142.1388"/>
<polygon fill="#191970" stroke="#191970" points="84.1574,-155.1102 74.127,-158.5222 84.0959,-162.11 84.1574,-155.1102"/>
</g>
<!-- Node313327 -->
<g id="node10" class="node">
<title>Node313327</title>
<g id="a_node10"><a xlink:href="quickjs_8c.html#acc9eb677cab8dfcf45f59381f8a19601" target="_top" xlink:title="js_parse_function_decl2">
<polygon fill="none" stroke="#ff0000" points="571,-15.5465 571,-34.5465 705,-34.5465 705,-15.5465 571,-15.5465"/>
<text text-anchor="middle" x="638" y="-22.5465" font-family="Helvetica,sans-Serif" font-size="10.00" fill="#000000">js_parse_function_decl2</text>
</a>
</g>
</g>
<!-- Node313315&#45;&gt;Node313327 -->
<g id="edge18" class="edge">
<title>Node313315&#45;&gt;Node313327</title>
<path fill="none" stroke="#191970" d="M53.9488,-141.3181C67.9692,-128.2668 88.9325,-110.4895 110,-99.0465 227.0835,-35.4513 263.4136,-26.9729 395,-6.0465 456.45,3.726 473.0364,-.3792 535,-6.0465 555.281,-7.9014 577.531,-11.77 596.1452,-15.5353"/>
<polygon fill="#191970" stroke="#191970" points="51.3712,-138.9397 46.5477,-148.3728 56.201,-144.0066 51.3712,-138.9397"/>
</g>
<!-- Node313329 -->
<g id="node11" class="node">
<title>Node313329</title>
<g id="a_node11"><a xlink:href="quickjs_8c.html#a00eb789430243c24dab4a63ad6a79653" target="_top" xlink:title="js_parse_class">
<polygon fill="none" stroke="#ff0000" points="741,-53.5465 741,-72.5465 828,-72.5465 828,-53.5465 741,-53.5465"/>
<text text-anchor="middle" x="784.5" y="-60.5465" font-family="Helvetica,sans-Serif" font-size="10.00" fill="#000000">js_parse_class</text>
</a>
</g>
</g>
<!-- Node313315&#45;&gt;Node313329 -->
<g id="edge16" class="edge">
<title>Node313315&#45;&gt;Node313329</title>
<path fill="none" stroke="#191970" d="M72.8449,-170.794C123.3741,-187.5956 218.7457,-215.0465 302.5,-215.0465 302.5,-215.0465 302.5,-215.0465 465,-215.0465 574.6337,-215.0465 611.7406,-215.6854 705,-158.0465 740.8566,-135.8854 768.4092,-91.9712 779.3548,-72.6038"/>
<polygon fill="#191970" stroke="#191970" points="73.9479,-167.4724 63.3536,-167.587 71.707,-174.1041 73.9479,-167.4724"/>
</g>
<!-- Node313317 -->
<g id="node3" class="node">
<title>Node313317</title>
<g id="a_node3"><a xlink:href="quickjs_8c.html#acbcccb7ec58fd4a024ea1d01e5d04561" target="_top" xlink:title="JS_AddIntrinsicEval">
<polygon fill="none" stroke="#000000" points="247.5,-243.5465 247.5,-262.5465 357.5,-262.5465 357.5,-243.5465 247.5,-243.5465"/>
<text text-anchor="middle" x="302.5" y="-250.5465" font-family="Helvetica,sans-Serif" font-size="10.00" fill="#000000">JS_AddIntrinsicEval</text>
</a>
</g>
</g>
<!-- Node313316&#45;&gt;Node313317 -->
<g id="edge2" class="edge">
<title>Node313316&#45;&gt;Node313317</title>
<path fill="none" stroke="#191970" d="M220.2648,-253.0465C229.2619,-253.0465 238.4985,-253.0465 247.3819,-253.0465"/>
<polygon fill="#191970" stroke="#191970" points="220.2402,-249.5466 210.2402,-253.0465 220.2401,-256.5466 220.2402,-249.5466"/>
</g>
<!-- Node313318 -->
<g id="node4" class="node">
<title>Node313318</title>
<g id="a_node4"><a xlink:href="quickjs_8c.html#ad8aedb643b8753b7a15f6cb2df61945e" target="_top" xlink:title="JS_NewContext">
<polygon fill="none" stroke="#ff0000" points="419.5,-243.5465 419.5,-262.5465 510.5,-262.5465 510.5,-243.5465 419.5,-243.5465"/>
<text text-anchor="middle" x="465" y="-250.5465" font-family="Helvetica,sans-Serif" font-size="10.00" fill="#000000">JS_NewContext</text>
</a>
</g>
</g>
<!-- Node313317&#45;&gt;Node313318 -->
<g id="edge3" class="edge">
<title>Node313317&#45;&gt;Node313318</title>
<path fill="none" stroke="#191970" d="M367.6094,-253.0465C384.9985,-253.0465 403.4155,-253.0465 419.4983,-253.0465"/>
<polygon fill="#191970" stroke="#191970" points="367.5151,-249.5466 357.5151,-253.0465 367.5151,-256.5466 367.5151,-249.5466"/>
</g>
<!-- Node313322&#45;&gt;Node313323 -->
<g id="edge5" class="edge">
<title>Node313322&#45;&gt;Node313323</title>
<path fill="none" stroke="#191970" d="M187.8993,-126.1199C204.3873,-120.6147 225.8717,-114.5065 245.7764,-109.5491"/>
<polygon fill="#191970" stroke="#191970" points="186.6276,-122.8566 178.3377,-129.4541 188.9325,-129.4663 186.6276,-122.8566"/>
</g>
<!-- Node313323&#45;&gt;Node313322 -->
<g id="edge10" class="edge">
<title>Node313323&#45;&gt;Node313322</title>
<path fill="none" stroke="#191970" d="M258.2024,-119.1602C241.1819,-124.293 221.7547,-129.4782 204.6969,-133.4421"/>
<polygon fill="#191970" stroke="#191970" points="259.3927,-122.4557 267.9095,-116.1538 257.3217,-115.769 259.3927,-122.4557"/>
</g>
<!-- Node313323&#45;&gt;Node313323 -->
<g id="edge11" class="edge">
<title>Node313323&#45;&gt;Node313323</title>
<path fill="none" stroke="#191970" d="M277.2683,-126.5044C280.3999,-131.2255 288.8105,-134.5465 302.5,-134.5465 324.9648,-134.5465 333.2137,-125.6031 327.2464,-116.2055"/>
<polygon fill="#191970" stroke="#191970" points="280.7789,-126.3592 277.7536,-116.2055 273.7867,-126.0296 280.7789,-126.3592"/>
</g>
<!-- Node313324 -->
<g id="node7" class="node">
<title>Node313324</title>
<g id="a_node7"><a xlink:href="quickjs_8c.html#a729d43e44d20f1ed655cd9f4843995d3" target="_top" xlink:title="js_parse_statement">
<polygon fill="none" stroke="#000000" points="408.5,-91.5465 408.5,-110.5465 521.5,-110.5465 521.5,-91.5465 408.5,-91.5465"/>
<text text-anchor="middle" x="465" y="-98.5465" font-family="Helvetica,sans-Serif" font-size="10.00" fill="#000000">js_parse_statement</text>
</a>
</g>
</g>
<!-- Node313323&#45;&gt;Node313324 -->
<g id="edge6" class="edge">
<title>Node313323&#45;&gt;Node313324</title>
<path fill="none" stroke="#191970" d="M369.5704,-94.3887C382.4981,-94.219 395.92,-94.2835 408.4719,-94.5822"/>
<polygon fill="#191970" stroke="#191970" points="369.2692,-90.8935 359.3346,-94.575 369.3967,-97.8923 369.2692,-90.8935"/>
</g>
<!-- Node313326 -->
<g id="node9" class="node">
<title>Node313326</title>
<g id="a_node9"><a xlink:href="quickjs_8c.html#ab59a3267a100decc9d2d81eb3297794a" target="_top" xlink:title="js_parse_source_element">
<polygon fill="none" stroke="#ff0000" points="395,-15.5465 395,-34.5465 535,-34.5465 535,-15.5465 395,-15.5465"/>
<text text-anchor="middle" x="465" y="-22.5465" font-family="Helvetica,sans-Serif" font-size="10.00" fill="#000000">js_parse_source_element</text>
</a>
</g>
</g>
<!-- Node313323&#45;&gt;Node313326 -->
<g id="edge12" class="edge">
<title>Node313323&#45;&gt;Node313326</title>
<path fill="none" stroke="#191970" d="M335.2372,-80.7158C352.6012,-70.4312 374.527,-58.219 395,-49.0465 407.1933,-43.5835 421.0322,-38.5983 433.1674,-34.6042"/>
<polygon fill="#191970" stroke="#191970" points="333.3811,-77.7477 326.6045,-85.892 336.9809,-83.7512 333.3811,-77.7477"/>
</g>
<!-- Node313324&#45;&gt;Node313323 -->
<g id="edge9" class="edge">
<title>Node313324&#45;&gt;Node313323</title>
<path fill="none" stroke="#191970" d="M398.245,-107.7001C385.3255,-107.8736 371.9006,-107.8129 359.3346,-107.518"/>
<polygon fill="#191970" stroke="#191970" points="398.5384,-111.1954 408.4719,-107.5107 398.4088,-104.1966 398.5384,-111.1954"/>
</g>
<!-- Node313324&#45;&gt;Node313325 -->
<g id="edge7" class="edge">
<title>Node313324&#45;&gt;Node313325</title>
<path fill="none" stroke="#191970" d="M518.5051,-112.7991C542.9673,-118.1723 571.5707,-124.4551 594.6587,-129.5264"/>
<polygon fill="#191970" stroke="#191970" points="519.1733,-109.3625 508.6552,-110.6355 517.6714,-116.1995 519.1733,-109.3625"/>
</g>
<!-- Node313325&#45;&gt;Node313323 -->
<g id="edge8" class="edge">
<title>Node313325&#45;&gt;Node313323</title>
<path fill="none" stroke="#191970" d="M575.0064,-136.2773C525.8124,-133.5952 455.8284,-128.6377 395,-120.0465 383.3121,-118.3957 370.8817,-116.1706 359.0511,-113.8247"/>
<polygon fill="#191970" stroke="#191970" points="575.0065,-139.7821 585.1775,-136.8156 575.3765,-132.7919 575.0065,-139.7821"/>
</g>
<!-- Node313326&#45;&gt;Node313327 -->
<g id="edge13" class="edge">
<title>Node313326&#45;&gt;Node313327</title>
<path fill="none" stroke="#191970" d="M545.5866,-25.0465C554.0143,-25.0465 562.5171,-25.0465 570.7732,-25.0465"/>
<polygon fill="#191970" stroke="#191970" points="545.3658,-21.5466 535.3657,-25.0465 545.3657,-28.5466 545.3658,-21.5466"/>
</g>
<!-- Node313327&#45;&gt;Node313329 -->
<g id="edge14" class="edge">
<title>Node313327&#45;&gt;Node313329</title>
<path fill="none" stroke="#191970" d="M684.6954,-37.1586C705.0986,-42.4509 728.6808,-48.5678 747.7977,-53.5264"/>
<polygon fill="#191970" stroke="#191970" points="685.5266,-33.7584 674.9681,-34.6355 683.769,-40.5342 685.5266,-33.7584"/>
</g>
<!-- Node313329&#45;&gt;Node313323 -->
<g id="edge15" class="edge">
<title>Node313329&#45;&gt;Node313323</title>
<path fill="none" stroke="#191970" d="M730.5997,-63.0628C655.2186,-63.6789 514.16,-66.9929 395,-82.0465 383.2892,-83.5259 370.8488,-85.6761 359.0156,-88.0027"/>
<polygon fill="#191970" stroke="#191970" points="730.8156,-66.5615 740.7913,-62.9928 730.7675,-59.5617 730.8156,-66.5615"/>
</g>
</g>
</svg>
