<?xml version="1.0" encoding="UTF-8" standalone="no"?>
<!DOCTYPE svg PUBLIC "-//W3C//DTD SVG 1.1//EN"
 "http://www.w3.org/Graphics/SVG/1.1/DTD/svg11.dtd">
<!-- Generated by graphviz version 2.40.1 (20161225.0304)
 -->
<!-- Title: js_string_CreateHTML Pages: 1 -->
<!--zoomable 550 -->
<svg id="main" version="1.1" xmlns="http://www.w3.org/2000/svg" xmlns:xlink="http://www.w3.org/1999/xlink" xml:space="preserve" onload="init(evt)">
<style type="text/css"><![CDATA[
.edge:hover path { stroke: red; }
.edge:hover polygon { stroke: red; fill: red; }
]]></style>
<script type="text/javascript"><![CDATA[
var edges = document.getElementsByTagName('g');
if (edges && edges.length) {
  for (var i=0;i<edges.length;i++) {
    if (edges[i].id.substr(0,4)=='edge') {
      edges[i].setAttribute('class','edge');
    }
  }
}
]]></script>
        <defs>
                <circle id="rim" cx="0" cy="0" r="7"/>
                <circle id="rim2" cx="0" cy="0" r="3.5"/>
                <g id="zoomPlus">
                        <use xlink:href="#rim" fill="#404040">
                                <set attributeName="fill" to="#808080" begin="zoomplus.mouseover" end="zoomplus.mouseout"/>
                        </use>
                        <path d="M-4,0h8M0,-4v8" fill="none" stroke="white" stroke-width="1.5" pointer-events="none"/>
                </g>
                <g id="zoomMin">
                        <use xlink:href="#rim" fill="#404040">
                                <set attributeName="fill" to="#808080" begin="zoomminus.mouseover" end="zoomminus.mouseout"/>
                        </use>
                        <path d="M-4,0h8" fill="none" stroke="white" stroke-width="1.5" pointer-events="none"/>
                </g>
                <g id="dirArrow">
                        <path fill="none" stroke="white" stroke-width="1.5" d="M0,-3.0v7 M-2.5,-0.5L0,-3.0L2.5,-0.5"/>
                </g>
               <g id="resetDef">
                       <use xlink:href="#rim2" fill="#404040">
                               <set attributeName="fill" to="#808080" begin="reset.mouseover" end="reset.mouseout"/>
                       </use>
               </g>
        </defs>

<script type="text/javascript">
var viewWidth = 1127;
var viewHeight = 550;
var sectionId = 'dynsection-1581';
</script>
<script xlink:href="svgpan.js"/>
<svg id="graph" class="graph">
<g id="viewport">
<title>js_string_CreateHTML</title>
<!-- Node426356 -->
<g id="node1" class="node">
<title>Node426356</title>
<polygon fill="#bfbfbf" stroke="#000000" points="0,-190.5 0,-209.5 122,-209.5 122,-190.5 0,-190.5"/>
<text text-anchor="middle" x="61" y="-197.5" font-family="Helvetica,sans-Serif" font-size="10.00" fill="#000000">js_string_CreateHTML</text>
</g>
<!-- Node426357 -->
<g id="node2" class="node">
<title>Node426357</title>
<g id="a_node2"><a xlink:href="quickjs_8h.html#afaa20c47565bc704c6c85f3d77254e7d" target="_top" xlink:title="JS_FreeValue">
<polygon fill="none" stroke="#000000" points="774.5,-361.5 774.5,-380.5 852.5,-380.5 852.5,-361.5 774.5,-361.5"/>
<text text-anchor="middle" x="813.5" y="-368.5" font-family="Helvetica,sans-Serif" font-size="10.00" fill="#000000">JS_FreeValue</text>
</a>
</g>
</g>
<!-- Node426356&#45;&gt;Node426357 -->
<g id="edge1" class="edge">
<title>Node426356&#45;&gt;Node426357</title>
<path fill="none" stroke="#191970" d="M104.2912,-209.5014C121.0064,-212.901 140.3286,-216.5046 158,-219 254.0816,-232.5676 278.4652,-238 375.5,-238 375.5,-238 375.5,-238 534,-238 641.5872,-238 751.842,-319.3449 794.7899,-354.8017"/>
<polygon fill="#191970" stroke="#191970" points="792.7773,-357.6821 802.6852,-361.435 797.2801,-352.3225 792.7773,-357.6821"/>
</g>
<!-- Node426395 -->
<g id="node5" class="node">
<title>Node426395</title>
<g id="a_node5"><a xlink:href="quickjs_8h.html#ad80a83d73e9b7d872b88fbf2943aebe9" target="_top" xlink:title="JS_IsException">
<polygon fill="none" stroke="#000000" points="770,-474.5 770,-493.5 857,-493.5 857,-474.5 770,-474.5"/>
<text text-anchor="middle" x="813.5" y="-481.5" font-family="Helvetica,sans-Serif" font-size="10.00" fill="#000000">JS_IsException</text>
</a>
</g>
</g>
<!-- Node426356&#45;&gt;Node426395 -->
<g id="edge4" class="edge">
<title>Node426356&#45;&gt;Node426395</title>
<path fill="none" stroke="#191970" d="M62.2976,-209.8118C67.5401,-245.8813 90.229,-372.8795 158,-447 229.1803,-524.8493 270.0146,-542 375.5,-542 375.5,-542 375.5,-542 534,-542 622.4592,-542 723.4432,-513.8028 776.4809,-496.7295"/>
<polygon fill="#191970" stroke="#191970" points="777.7047,-500.0118 786.122,-493.5775 775.5294,-493.3583 777.7047,-500.0118"/>
</g>
<!-- Node426396 -->
<g id="node6" class="node">
<title>Node426396</title>
<g id="a_node6"><a xlink:href="quickjs_8c.html#a4d1d0760c9f9efcb8c0a8db414e46c8a" target="_top" xlink:title="JS_ToStringCheckObject">
<polygon fill="none" stroke="#000000" points="310,-494.5 310,-513.5 441,-513.5 441,-494.5 310,-494.5"/>
<text text-anchor="middle" x="375.5" y="-501.5" font-family="Helvetica,sans-Serif" font-size="10.00" fill="#000000">JS_ToStringCheckObject</text>
</a>
</g>
</g>
<!-- Node426356&#45;&gt;Node426396 -->
<g id="edge5" class="edge">
<title>Node426356&#45;&gt;Node426396</title>
<path fill="none" stroke="#191970" d="M63.5616,-209.7834C72.0792,-240.6737 102.1265,-337.5361 158,-396 205.6891,-445.9 281.3389,-476.1469 329.6807,-491.4691"/>
<polygon fill="#191970" stroke="#191970" points="328.6778,-494.8224 339.2652,-494.4249 330.7408,-488.1333 328.6778,-494.8224"/>
</g>
<!-- Node426791 -->
<g id="node9" class="node">
<title>Node426791</title>
<g id="a_node9"><a xlink:href="quickjs_8c.html#ac91bb65d1f12eadbcc97cecf2860350b" target="_top" xlink:title="string_buffer_concat\l_value_free">
<polygon fill="none" stroke="#000000" points="158,-356 158,-386 274,-386 274,-356 158,-356"/>
<text text-anchor="start" x="166" y="-374" font-family="Helvetica,sans-Serif" font-size="10.00" fill="#000000">string_buffer_concat</text>
<text text-anchor="middle" x="216" y="-363" font-family="Helvetica,sans-Serif" font-size="10.00" fill="#000000">_value_free</text>
</a>
</g>
</g>
<!-- Node426356&#45;&gt;Node426791 -->
<g id="edge11" class="edge">
<title>Node426356&#45;&gt;Node426791</title>
<path fill="none" stroke="#191970" d="M69.7776,-209.6837C93.8127,-236.1998 161.1788,-310.5199 195.4369,-348.3142"/>
<polygon fill="#191970" stroke="#191970" points="192.9079,-350.7357 202.2171,-355.7944 198.0944,-346.0346 192.9079,-350.7357"/>
</g>
<!-- Node426411 -->
<g id="node14" class="node">
<title>Node426411</title>
<g id="a_node14"><a xlink:href="quickjs_8c.html#accfc3d1dcaa88c88402cb245ccaf4fdb" target="_top" xlink:title="string_buffer_end">
<polygon fill="none" stroke="#ff0000" points="165.5,-190.5 165.5,-209.5 266.5,-209.5 266.5,-190.5 165.5,-190.5"/>
<text text-anchor="middle" x="216" y="-197.5" font-family="Helvetica,sans-Serif" font-size="10.00" fill="#000000">string_buffer_end</text>
</a>
</g>
</g>
<!-- Node426356&#45;&gt;Node426411 -->
<g id="edge20" class="edge">
<title>Node426356&#45;&gt;Node426411</title>
<path fill="none" stroke="#191970" d="M122.2601,-200C133.0332,-200 144.2447,-200 155.0104,-200"/>
<polygon fill="#191970" stroke="#191970" points="155.1668,-203.5001 165.1667,-200 155.1667,-196.5001 155.1668,-203.5001"/>
</g>
<!-- Node426412 -->
<g id="node15" class="node">
<title>Node426412</title>
<g id="a_node15"><a xlink:href="quickjs_8c.html#a266b4993a59d9e34537386e62b9f3d4f" target="_top" xlink:title="string_buffer_free">
<polygon fill="none" stroke="#ff0000" points="164.5,-152.5 164.5,-171.5 267.5,-171.5 267.5,-152.5 164.5,-152.5"/>
<text text-anchor="middle" x="216" y="-159.5" font-family="Helvetica,sans-Serif" font-size="10.00" fill="#000000">string_buffer_free</text>
</a>
</g>
</g>
<!-- Node426356&#45;&gt;Node426412 -->
<g id="edge21" class="edge">
<title>Node426356&#45;&gt;Node426412</title>
<path fill="none" stroke="#191970" d="M100.113,-190.411C120.4748,-185.4191 145.5663,-179.2676 167.1887,-173.9666"/>
<polygon fill="#191970" stroke="#191970" points="168.2892,-177.3006 177.1682,-171.5201 166.6224,-170.5019 168.2892,-177.3006"/>
</g>
<!-- Node426413 -->
<g id="node16" class="node">
<title>Node426413</title>
<g id="a_node16"><a xlink:href="quickjs_8c.html#a9c11961b0adafedd064b294612d0c2f3" target="_top" xlink:title="string_buffer_init">
<polygon fill="none" stroke="#ff0000" points="166.5,-114.5 166.5,-133.5 265.5,-133.5 265.5,-114.5 166.5,-114.5"/>
<text text-anchor="middle" x="216" y="-121.5" font-family="Helvetica,sans-Serif" font-size="10.00" fill="#000000">string_buffer_init</text>
</a>
</g>
</g>
<!-- Node426356&#45;&gt;Node426413 -->
<g id="edge22" class="edge">
<title>Node426356&#45;&gt;Node426413</title>
<path fill="none" stroke="#191970" d="M75.2646,-190.2934C93.73,-178.0439 127.1997,-156.8997 158,-143 162.7672,-140.8487 167.8522,-138.8206 172.9553,-136.9482"/>
<polygon fill="#191970" stroke="#191970" points="174.4211,-140.1439 182.7123,-133.548 172.1175,-133.5338 174.4211,-140.1439"/>
</g>
<!-- Node426415 -->
<g id="node17" class="node">
<title>Node426415</title>
<g id="a_node17"><a xlink:href="quickjs_8c.html#a9b8fb6b5ce638616691f7bf7881fa57d" target="_top" xlink:title="string_buffer_putc16">
<polygon fill="none" stroke="#ff0000" points="158,-76.5 158,-95.5 274,-95.5 274,-76.5 158,-76.5"/>
<text text-anchor="middle" x="216" y="-83.5" font-family="Helvetica,sans-Serif" font-size="10.00" fill="#000000">string_buffer_putc16</text>
</a>
</g>
</g>
<!-- Node426356&#45;&gt;Node426415 -->
<g id="edge23" class="edge">
<title>Node426356&#45;&gt;Node426415</title>
<path fill="none" stroke="#191970" d="M68.2058,-190.4529C82.9964,-171.4909 118.7131,-128.8593 158,-105 161.4175,-102.9245 165.0876,-101.0481 168.8617,-99.3572"/>
<polygon fill="#191970" stroke="#191970" points="170.4032,-102.5096 178.3725,-95.5281 167.7889,-96.0161 170.4032,-102.5096"/>
</g>
<!-- Node426422 -->
<g id="node18" class="node">
<title>Node426422</title>
<g id="a_node18"><a xlink:href="quickjs_8c.html#a874fcee73f61cc997ec1d10cc6711554" target="_top" xlink:title="string_buffer_putc8">
<polygon fill="none" stroke="#ff0000" points="161,-38.5 161,-57.5 271,-57.5 271,-38.5 161,-38.5"/>
<text text-anchor="middle" x="216" y="-45.5" font-family="Helvetica,sans-Serif" font-size="10.00" fill="#000000">string_buffer_putc8</text>
</a>
</g>
</g>
<!-- Node426356&#45;&gt;Node426422 -->
<g id="edge24" class="edge">
<title>Node426356&#45;&gt;Node426422</title>
<path fill="none" stroke="#191970" d="M65.3732,-190.3694C76.9177,-166.0127 110.6125,-101.4505 158,-67 160.6568,-65.0685 163.5207,-63.3261 166.5026,-61.7555"/>
<polygon fill="#191970" stroke="#191970" points="168.0758,-64.8847 175.7127,-57.5411 165.1632,-58.5194 168.0758,-64.8847"/>
</g>
<!-- Node426792 -->
<g id="node19" class="node">
<title>Node426792</title>
<g id="a_node19"><a xlink:href="quickjs_8c.html#a64bdafbabe72b0b23fa14ef7329690c9" target="_top" xlink:title="string_buffer_puts8">
<polygon fill="none" stroke="#000000" points="320.5,-266.5 320.5,-285.5 430.5,-285.5 430.5,-266.5 320.5,-266.5"/>
<text text-anchor="middle" x="375.5" y="-273.5" font-family="Helvetica,sans-Serif" font-size="10.00" fill="#000000">string_buffer_puts8</text>
</a>
</g>
</g>
<!-- Node426356&#45;&gt;Node426792 -->
<g id="edge25" class="edge">
<title>Node426356&#45;&gt;Node426792</title>
<path fill="none" stroke="#191970" d="M74.7076,-209.5538C92.8471,-221.6628 126.2477,-242.1432 158,-252 207.5436,-267.3798 266.1174,-273.1808 309.9915,-275.2458"/>
<polygon fill="#191970" stroke="#191970" points="310.1106,-278.7537 320.2478,-275.6734 310.4023,-271.7598 310.1106,-278.7537"/>
</g>
<!-- Node426793 -->
<g id="node20" class="node">
<title>Node426793</title>
<g id="a_node20"><a xlink:href="quickjs_8c.html#a80398f847e2e83c2613b638719bf6fda" target="_top" xlink:title="string_get">
<polygon fill="none" stroke="#000000" points="183.5,-.5 183.5,-19.5 248.5,-19.5 248.5,-.5 183.5,-.5"/>
<text text-anchor="middle" x="216" y="-7.5" font-family="Helvetica,sans-Serif" font-size="10.00" fill="#000000">string_get</text>
</a>
</g>
</g>
<!-- Node426356&#45;&gt;Node426793 -->
<g id="edge27" class="edge">
<title>Node426356&#45;&gt;Node426793</title>
<path fill="none" stroke="#191970" d="M63.771,-190.2335C72.5083,-161.1983 102.26,-74.6015 158,-29 162.6759,-25.1746 168.146,-22.1107 173.8245,-19.6588"/>
<polygon fill="#191970" stroke="#191970" points="175.3131,-22.8399 183.4745,-16.084 172.8814,-16.2758 175.3131,-22.8399"/>
</g>
<!-- Node426358 -->
<g id="node3" class="node">
<title>Node426358</title>
<g id="a_node3"><a xlink:href="quickjs_8c.html#aa059f309c30fd5166d16c82a97973146" target="_top" xlink:title="__JS_FreeValue">
<polygon fill="none" stroke="#000000" points="893,-361.5 893,-380.5 982,-380.5 982,-361.5 893,-361.5"/>
<text text-anchor="middle" x="937.5" y="-368.5" font-family="Helvetica,sans-Serif" font-size="10.00" fill="#000000">__JS_FreeValue</text>
</a>
</g>
</g>
<!-- Node426357&#45;&gt;Node426358 -->
<g id="edge2" class="edge">
<title>Node426357&#45;&gt;Node426358</title>
<path fill="none" stroke="#191970" d="M852.7344,-371C862.3131,-371 872.7337,-371 882.8862,-371"/>
<polygon fill="#191970" stroke="#191970" points="882.9084,-374.5001 892.9083,-371 882.9083,-367.5001 882.9084,-374.5001"/>
</g>
<!-- Node426359 -->
<g id="node4" class="node">
<title>Node426359</title>
<g id="a_node4"><a xlink:href="quickjs_8c.html#ab1ea3fad7d138be12144a38be4d36423" target="_top" xlink:title="__JS_FreeValueRT">
<polygon fill="none" stroke="#ff0000" points="1018,-361.5 1018,-380.5 1119,-380.5 1119,-361.5 1018,-361.5"/>
<text text-anchor="middle" x="1068.5" y="-368.5" font-family="Helvetica,sans-Serif" font-size="10.00" fill="#000000">__JS_FreeValueRT</text>
</a>
</g>
</g>
<!-- Node426358&#45;&gt;Node426359 -->
<g id="edge3" class="edge">
<title>Node426358&#45;&gt;Node426359</title>
<path fill="none" stroke="#191970" d="M982.2164,-371C990.3314,-371 998.9213,-371 1007.4118,-371"/>
<polygon fill="#191970" stroke="#191970" points="1007.6806,-374.5001 1017.6806,-371 1007.6806,-367.5001 1007.6806,-374.5001"/>
</g>
<!-- Node426397 -->
<g id="node7" class="node">
<title>Node426397</title>
<g id="a_node7"><a xlink:href="quickjs_8c.html#a7bcb8e1a20cbc8374a5f9ba4a2088cec" target="_top" xlink:title="JS_ToString">
<polygon fill="none" stroke="#000000" points="499,-418.5 499,-437.5 569,-437.5 569,-418.5 499,-418.5"/>
<text text-anchor="middle" x="534" y="-425.5" font-family="Helvetica,sans-Serif" font-size="10.00" fill="#000000">JS_ToString</text>
</a>
</g>
</g>
<!-- Node426396&#45;&gt;Node426397 -->
<g id="edge6" class="edge">
<title>Node426396&#45;&gt;Node426397</title>
<path fill="none" stroke="#191970" d="M395.5741,-494.3745C423.204,-481.1261 473.1297,-457.187 504.8678,-441.9687"/>
<polygon fill="#191970" stroke="#191970" points="506.5851,-445.0269 514.0889,-437.5473 503.5586,-438.715 506.5851,-445.0269"/>
</g>
<!-- Node426398 -->
<g id="node8" class="node">
<title>Node426398</title>
<g id="a_node8"><a xlink:href="quickjs_8c.html#a46d6ebdd8c73102fd9e02a89b1f1d09a" target="_top" xlink:title="JS_ToStringInternal">
<polygon fill="none" stroke="#ff0000" points="627,-418.5 627,-437.5 734,-437.5 734,-418.5 627,-418.5"/>
<text text-anchor="middle" x="680.5" y="-425.5" font-family="Helvetica,sans-Serif" font-size="10.00" fill="#000000">JS_ToStringInternal</text>
</a>
</g>
</g>
<!-- Node426397&#45;&gt;Node426398 -->
<g id="edge7" class="edge">
<title>Node426397&#45;&gt;Node426398</title>
<path fill="none" stroke="#191970" d="M569.0904,-428C583.3909,-428 600.3836,-428 616.735,-428"/>
<polygon fill="#191970" stroke="#191970" points="616.8034,-431.5001 626.8034,-428 616.8034,-424.5001 616.8034,-431.5001"/>
</g>
<!-- Node426398&#45;&gt;Node426357 -->
<g id="edge8" class="edge">
<title>Node426398&#45;&gt;Node426357</title>
<path fill="none" stroke="#191970" d="M702.7612,-418.4595C724.4352,-409.1706 757.5835,-394.9642 781.9667,-384.5143"/>
<polygon fill="#191970" stroke="#191970" points="783.3534,-387.7279 791.1662,-380.5716 780.596,-381.2939 783.3534,-387.7279"/>
</g>
<!-- Node426398&#45;&gt;Node426395 -->
<g id="edge9" class="edge">
<title>Node426398&#45;&gt;Node426395</title>
<path fill="none" stroke="#191970" d="M703.3635,-437.6267C724.905,-446.6968 757.3838,-460.3721 781.4956,-470.5245"/>
<polygon fill="#191970" stroke="#191970" points="780.3603,-473.844 790.9348,-474.4989 783.0767,-467.3925 780.3603,-473.844"/>
</g>
<!-- Node426398&#45;&gt;Node426398 -->
<g id="edge10" class="edge">
<title>Node426398&#45;&gt;Node426398</title>
<path fill="none" stroke="#191970" d="M660.155,-437.7571C650.2574,-446.5653 657.0391,-456 680.5,-456 695.5297,-456 703.7142,-452.128 705.0535,-447.0292"/>
<polygon fill="#191970" stroke="#191970" points="708.1652,-445.4164 700.845,-437.7571 701.791,-448.3096 708.1652,-445.4164"/>
</g>
<!-- Node426791&#45;&gt;Node426357 -->
<g id="edge12" class="edge">
<title>Node426791&#45;&gt;Node426357</title>
<path fill="none" stroke="#191970" d="M274.2634,-370.5756C370.1392,-369.9472 567.1818,-368.9509 734,-370 743.7321,-370.0612 754.134,-370.1646 764.0984,-370.2822"/>
<polygon fill="#191970" stroke="#191970" points="764.2349,-373.7841 774.2777,-370.4088 764.322,-366.7846 764.2349,-373.7841"/>
</g>
<!-- Node426791&#45;&gt;Node426395 -->
<g id="edge13" class="edge">
<title>Node426791&#45;&gt;Node426395</title>
<path fill="none" stroke="#191970" d="M265.0479,-386.0517C268.2077,-387.831 271.2284,-389.8073 274,-392 296.9121,-410.1264 284.8268,-432.173 310,-447 384.8838,-491.1066 645.8885,-489.0821 759.723,-485.9296"/>
<polygon fill="#191970" stroke="#191970" points="760.0498,-489.4217 769.9438,-485.6325 759.8463,-482.4247 760.0498,-489.4217"/>
</g>
<!-- Node426617 -->
<g id="node10" class="node">
<title>Node426617</title>
<g id="a_node10"><a xlink:href="quickjs_8c.html#a38cad713b74c445668210ea8614bfb65" target="_top" xlink:title="JS_ToStringFree">
<polygon fill="none" stroke="#000000" points="330.5,-380.5 330.5,-399.5 420.5,-399.5 420.5,-380.5 330.5,-380.5"/>
<text text-anchor="middle" x="375.5" y="-387.5" font-family="Helvetica,sans-Serif" font-size="10.00" fill="#000000">JS_ToStringFree</text>
</a>
</g>
</g>
<!-- Node426791&#45;&gt;Node426617 -->
<g id="edge14" class="edge">
<title>Node426791&#45;&gt;Node426617</title>
<path fill="none" stroke="#191970" d="M274.0344,-377.9132C289.0876,-379.7064 305.2581,-381.6326 320.1684,-383.4088"/>
<polygon fill="#191970" stroke="#191970" points="319.9165,-386.9034 330.2603,-384.6109 320.7445,-379.9526 319.9165,-386.9034"/>
</g>
<!-- Node426686 -->
<g id="node11" class="node">
<title>Node426686</title>
<g id="a_node11"><a xlink:href="quickjs_8c.html#a6887ef15fd884e05ddf04ec291b5f3d2" target="_top" xlink:title="string_buffer_concat">
<polygon fill="none" stroke="#ff0000" points="317.5,-304.5 317.5,-323.5 433.5,-323.5 433.5,-304.5 317.5,-304.5"/>
<text text-anchor="middle" x="375.5" y="-311.5" font-family="Helvetica,sans-Serif" font-size="10.00" fill="#000000">string_buffer_concat</text>
</a>
</g>
</g>
<!-- Node426791&#45;&gt;Node426686 -->
<g id="edge17" class="edge">
<title>Node426791&#45;&gt;Node426686</title>
<path fill="none" stroke="#191970" d="M258.3243,-355.8747C283.4698,-346.8885 315.0352,-335.6081 339.067,-327.0199"/>
<polygon fill="#191970" stroke="#191970" points="340.2957,-330.2977 348.5346,-323.6365 337.94,-323.706 340.2957,-330.2977"/>
</g>
<!-- Node426420 -->
<g id="node13" class="node">
<title>Node426420</title>
<g id="a_node13"><a xlink:href="quickjs_8c.html#a85744d3012cd123d2c7d27ef7a4e7ddf" target="_top" xlink:title="string_buffer_set_error">
<polygon fill="none" stroke="#ff0000" points="312,-418.5 312,-437.5 439,-437.5 439,-418.5 312,-418.5"/>
<text text-anchor="middle" x="375.5" y="-425.5" font-family="Helvetica,sans-Serif" font-size="10.00" fill="#000000">string_buffer_set_error</text>
</a>
</g>
</g>
<!-- Node426791&#45;&gt;Node426420 -->
<g id="edge19" class="edge">
<title>Node426791&#45;&gt;Node426420</title>
<path fill="none" stroke="#191970" d="M250.9418,-386.1135C268.5021,-393.4551 290.2054,-402.1479 310,-409 316.5403,-411.264 323.5087,-413.4846 330.3688,-415.5638"/>
<polygon fill="#191970" stroke="#191970" points="329.6975,-419.0151 340.2797,-418.4972 331.6842,-412.3029 329.6975,-419.0151"/>
</g>
<!-- Node426617&#45;&gt;Node426357 -->
<g id="edge15" class="edge">
<title>Node426617&#45;&gt;Node426357</title>
<path fill="none" stroke="#191970" d="M420.724,-388.0382C503.3928,-384.4521 678.2641,-376.8664 764.0013,-373.1472"/>
<polygon fill="#191970" stroke="#191970" points="764.4121,-376.6328 774.251,-372.7026 764.1087,-369.6393 764.4121,-376.6328"/>
</g>
<!-- Node426617&#45;&gt;Node426397 -->
<g id="edge16" class="edge">
<title>Node426617&#45;&gt;Node426397</title>
<path fill="none" stroke="#191970" d="M415.4962,-399.589C437.8643,-404.9517 465.8139,-411.6526 488.9511,-417.1996"/>
<polygon fill="#191970" stroke="#191970" points="488.3324,-420.6504 498.8729,-419.5784 489.9645,-413.8433 488.3324,-420.6504"/>
</g>
<!-- Node426423 -->
<g id="node12" class="node">
<title>Node426423</title>
<g id="a_node12"><a xlink:href="quickjs_8c.html#a0b130652cf11eb0eb9f7e3ee6c5d7c6a" target="_top" xlink:title="string_buffer_write8">
<polygon fill="none" stroke="#ff0000" points="477,-285.5 477,-304.5 591,-304.5 591,-285.5 477,-285.5"/>
<text text-anchor="middle" x="534" y="-292.5" font-family="Helvetica,sans-Serif" font-size="10.00" fill="#000000">string_buffer_write8</text>
</a>
</g>
</g>
<!-- Node426686&#45;&gt;Node426423 -->
<g id="edge18" class="edge">
<title>Node426686&#45;&gt;Node426423</title>
<path fill="none" stroke="#191970" d="M433.6195,-307.033C444.4426,-305.7356 455.8328,-304.3702 466.8993,-303.0436"/>
<polygon fill="#191970" stroke="#191970" points="467.4335,-306.5047 476.9458,-301.8393 466.6003,-299.5545 467.4335,-306.5047"/>
</g>
<!-- Node426792&#45;&gt;Node426423 -->
<g id="edge26" class="edge">
<title>Node426792&#45;&gt;Node426423</title>
<path fill="none" stroke="#191970" d="M430.9356,-282.6453C442.5827,-284.0415 454.9863,-285.5283 467.0046,-286.969"/>
<polygon fill="#191970" stroke="#191970" points="466.6388,-290.4501 476.9843,-288.1653 467.472,-283.4999 466.6388,-290.4501"/>
</g>
</g>
</svg>
        <g id="navigator" transform="translate(0 0)" fill="#404254">
                <rect fill="#f2f5e9" fill-opacity="0.5" stroke="#606060" stroke-width=".5" x="0" y="0" width="60" height="60"/>
                <use id="zoomplus" xlink:href="#zoomPlus" x="17" y="9" onmousedown="handleZoom(evt,'in')"/>
                <use id="zoomminus" xlink:href="#zoomMin" x="42" y="9" onmousedown="handleZoom(evt,'out')"/>
                <use id="reset" xlink:href="#resetDef" x="30" y="36" onmousedown="handleReset()"/>
                <g id="arrowUp" xlink:href="#dirArrow" transform="translate(30 24)" onmousedown="handlePan(0,-1)">
                  <use xlink:href="#rim" fill="#404040">
                        <set attributeName="fill" to="#808080" begin="arrowUp.mouseover" end="arrowUp.mouseout"/>
                  </use>
                  <path fill="none" stroke="white" stroke-width="1.5" d="M0,-3.0v7 M-2.5,-0.5L0,-3.0L2.5,-0.5"/>
                </g>
                <g id="arrowRight" xlink:href="#dirArrow" transform="rotate(90) translate(36 -43)" onmousedown="handlePan(1,0)">
                  <use xlink:href="#rim" fill="#404040">
                        <set attributeName="fill" to="#808080" begin="arrowRight.mouseover" end="arrowRight.mouseout"/>
                  </use>
                  <path fill="none" stroke="white" stroke-width="1.5" d="M0,-3.0v7 M-2.5,-0.5L0,-3.0L2.5,-0.5"/>
                </g>
                <g id="arrowDown" xlink:href="#dirArrow" transform="rotate(180) translate(-30 -48)" onmousedown="handlePan(0,1)">
                  <use xlink:href="#rim" fill="#404040">
                        <set attributeName="fill" to="#808080" begin="arrowDown.mouseover" end="arrowDown.mouseout"/>
                  </use>
                  <path fill="none" stroke="white" stroke-width="1.5" d="M0,-3.0v7 M-2.5,-0.5L0,-3.0L2.5,-0.5"/>
                </g>
                <g id="arrowLeft" xlink:href="#dirArrow" transform="rotate(270) translate(-36 17)" onmousedown="handlePan(-1,0)">
                  <use xlink:href="#rim" fill="#404040">
                        <set attributeName="fill" to="#808080" begin="arrowLeft.mouseover" end="arrowLeft.mouseout"/>
                  </use>
                  <path fill="none" stroke="white" stroke-width="1.5" d="M0,-3.0v7 M-2.5,-0.5L0,-3.0L2.5,-0.5"/>
                </g>
        </g>
        <svg viewBox="0 0 15 15" width="100%" height="30px" preserveAspectRatio="xMaxYMin meet">
         <g id="arrow_out" transform="scale(0.3 0.3)">
          <a xlink:href="quickjs_8c_a82cb999c219dbe6148c7df47ad6bb262_cgraph_org.svg" target="_base">
           <rect id="button" ry="5" rx="5" y="6" x="6" height="38" width="38"
                fill="#f2f5e9" fill-opacity="0.5" stroke="#606060" stroke-width="1.0"/>
           <path id="arrow"
             d="M 11.500037,31.436501 C 11.940474,20.09759 22.043105,11.32322 32.158766,21.979434 L 37.068811,17.246167 C 37.068811,17.246167 37.088388,32 37.088388,32 L 22.160133,31.978069 C 22.160133,31.978069 26.997745,27.140456 26.997745,27.140456 C 18.528582,18.264221 13.291696,25.230495 11.500037,31.436501 z"
             style="fill:#404040;"/>
          </a>
         </g>
        </svg>
</svg>
