<?xml version="1.0" encoding="UTF-8" standalone="no"?>
<!DOCTYPE svg PUBLIC "-//W3C//DTD SVG 1.1//EN"
 "http://www.w3.org/Graphics/SVG/1.1/DTD/svg11.dtd">
<!-- Generated by graphviz version 2.40.1 (20161225.0304)
 -->
<!-- Title: string_buffer_concat_value_free Pages: 1 -->
<!--zoomable 312 -->
<svg id="main" version="1.1" xmlns="http://www.w3.org/2000/svg" xmlns:xlink="http://www.w3.org/1999/xlink" xml:space="preserve" onload="init(evt)">
<style type="text/css"><![CDATA[
.edge:hover path { stroke: red; }
.edge:hover polygon { stroke: red; fill: red; }
]]></style>
<script type="text/javascript"><![CDATA[
var edges = document.getElementsByTagName('g');
if (edges && edges.length) {
  for (var i=0;i<edges.length;i++) {
    if (edges[i].id.substr(0,4)=='edge') {
      edges[i].setAttribute('class','edge');
    }
  }
}
]]></script>
        <defs>
                <circle id="rim" cx="0" cy="0" r="7"/>
                <circle id="rim2" cx="0" cy="0" r="3.5"/>
                <g id="zoomPlus">
                        <use xlink:href="#rim" fill="#404040">
                                <set attributeName="fill" to="#808080" begin="zoomplus.mouseover" end="zoomplus.mouseout"/>
                        </use>
                        <path d="M-4,0h8M0,-4v8" fill="none" stroke="white" stroke-width="1.5" pointer-events="none"/>
                </g>
                <g id="zoomMin">
                        <use xlink:href="#rim" fill="#404040">
                                <set attributeName="fill" to="#808080" begin="zoomminus.mouseover" end="zoomminus.mouseout"/>
                        </use>
                        <path d="M-4,0h8" fill="none" stroke="white" stroke-width="1.5" pointer-events="none"/>
                </g>
                <g id="dirArrow">
                        <path fill="none" stroke="white" stroke-width="1.5" d="M0,-3.0v7 M-2.5,-0.5L0,-3.0L2.5,-0.5"/>
                </g>
               <g id="resetDef">
                       <use xlink:href="#rim2" fill="#404040">
                               <set attributeName="fill" to="#808080" begin="reset.mouseover" end="reset.mouseout"/>
                       </use>
               </g>
        </defs>

<script type="text/javascript">
var viewWidth = 624;
var viewHeight = 312;
var sectionId = 'dynsection-335';
</script>
<script xlink:href="svgpan.js"/>
<svg id="graph" class="graph">
<g id="viewport">
<title>string_buffer_concat_value_free</title>
<!-- Node110074 -->
<g id="node1" class="node">
<title>Node110074</title>
<polygon fill="#bfbfbf" stroke="#000000" points="0,-128 0,-158 116,-158 116,-128 0,-128"/>
<text text-anchor="start" x="8" y="-146" font-family="Helvetica,sans-Serif" font-size="10.00" fill="#000000">string_buffer_concat</text>
<text text-anchor="middle" x="58" y="-135" font-family="Helvetica,sans-Serif" font-size="10.00" fill="#000000">_value_free</text>
</g>
<!-- Node110075 -->
<g id="node2" class="node">
<title>Node110075</title>
<g id="a_node2"><a xlink:href="quickjs_8c.html#a4f8035820871c730dd7e98d46e137bc1" target="_top" xlink:title="js_array_join">
<polygon fill="none" stroke="#000000" points="187,-284.5 187,-303.5 266,-303.5 266,-284.5 187,-284.5"/>
<text text-anchor="middle" x="226.5" y="-291.5" font-family="Helvetica,sans-Serif" font-size="10.00" fill="#000000">js_array_join</text>
</a>
</g>
</g>
<!-- Node110074&#45;&gt;Node110075 -->
<g id="edge1" class="edge">
<title>Node110074&#45;&gt;Node110075</title>
<path fill="none" stroke="#191970" d="M68.9291,-167.6817C83.506,-197.6926 112.1778,-247.7067 152,-275 162.2395,-282.0179 174.8714,-286.4444 186.8061,-289.2361"/>
<polygon fill="#191970" stroke="#191970" points="71.9547,-165.891 64.5303,-158.3327 65.6208,-168.8713 71.9547,-165.891"/>
</g>
<!-- Node110076 -->
<g id="node3" class="node">
<title>Node110076</title>
<g id="a_node3"><a xlink:href="quickjs_8c.html#a60d84dd116a9d7d912d08f298a4734dd" target="_top" xlink:title="js_json_to_str">
<polygon fill="none" stroke="#000000" points="185,-228.5 185,-247.5 268,-247.5 268,-228.5 185,-228.5"/>
<text text-anchor="middle" x="226.5" y="-235.5" font-family="Helvetica,sans-Serif" font-size="10.00" fill="#000000">js_json_to_str</text>
</a>
</g>
</g>
<!-- Node110074&#45;&gt;Node110076 -->
<g id="edge2" class="edge">
<title>Node110074&#45;&gt;Node110076</title>
<path fill="none" stroke="#191970" d="M80.0958,-165.5394C98.0028,-182.5751 124.6695,-205.295 152,-219 162.1421,-224.0858 173.7625,-227.889 184.7613,-230.7005"/>
<polygon fill="#191970" stroke="#191970" points="82.1225,-162.6282 72.5137,-158.165 77.242,-167.6462 82.1225,-162.6282"/>
</g>
<!-- Node110079 -->
<g id="node6" class="node">
<title>Node110079</title>
<g id="a_node6"><a xlink:href="quickjs_8c.html#a7b44b5cacbbb59aa0c12d52690baf412" target="_top" xlink:title="js_regexp_toString">
<polygon fill="none" stroke="#000000" points="173,-190.5 173,-209.5 280,-209.5 280,-190.5 173,-190.5"/>
<text text-anchor="middle" x="226.5" y="-197.5" font-family="Helvetica,sans-Serif" font-size="10.00" fill="#000000">js_regexp_toString</text>
</a>
</g>
</g>
<!-- Node110074&#45;&gt;Node110079 -->
<g id="edge6" class="edge">
<title>Node110074&#45;&gt;Node110079</title>
<path fill="none" stroke="#191970" d="M109.7857,-161.4509C123.4869,-166.2583 138.2816,-171.3832 152,-176 166.5531,-180.8977 182.7741,-186.1478 196.355,-190.485"/>
<polygon fill="#191970" stroke="#191970" points="110.6282,-158.037 100.0334,-158.0182 108.3041,-164.6399 110.6282,-158.037"/>
</g>
<!-- Node110080 -->
<g id="node7" class="node">
<title>Node110080</title>
<g id="a_node7"><a xlink:href="quickjs_8c.html#adb4d2990e6bf3f99633512ad2054b47a" target="_top" xlink:title="js_string___GetSubstitution">
<polygon fill="none" stroke="#000000" points="152,-114.5 152,-133.5 301,-133.5 301,-114.5 152,-114.5"/>
<text text-anchor="middle" x="226.5" y="-121.5" font-family="Helvetica,sans-Serif" font-size="10.00" fill="#000000">js_string___GetSubstitution</text>
</a>
</g>
</g>
<!-- Node110074&#45;&gt;Node110080 -->
<g id="edge7" class="edge">
<title>Node110074&#45;&gt;Node110080</title>
<path fill="none" stroke="#191970" d="M126.5035,-135.2756C134.8429,-134.3352 143.3957,-133.3708 151.8193,-132.421"/>
<polygon fill="#191970" stroke="#191970" points="126.0051,-131.8095 116.4602,-136.408 126.7895,-138.7654 126.0051,-131.8095"/>
</g>
<!-- Node110081 -->
<g id="node8" class="node">
<title>Node110081</title>
<g id="a_node8"><a xlink:href="quickjs_8c.html#aed1bf9ce4b9e3a82388679dd6ec7635b" target="_top" xlink:title="js_string_replace">
<polygon fill="none" stroke="#000000" points="361,-152.5 361,-171.5 460,-171.5 460,-152.5 361,-152.5"/>
<text text-anchor="middle" x="410.5" y="-159.5" font-family="Helvetica,sans-Serif" font-size="10.00" fill="#000000">js_string_replace</text>
</a>
</g>
</g>
<!-- Node110074&#45;&gt;Node110081 -->
<g id="edge12" class="edge">
<title>Node110074&#45;&gt;Node110081</title>
<path fill="none" stroke="#191970" d="M126.5071,-146.6926C195.2727,-150.3991 299.5422,-156.0193 360.7605,-159.319"/>
<polygon fill="#191970" stroke="#191970" points="126.3821,-143.1809 116.2082,-146.1375 126.0053,-150.1707 126.3821,-143.1809"/>
</g>
<!-- Node110083 -->
<g id="node10" class="node">
<title>Node110083</title>
<g id="a_node10"><a xlink:href="quickjs_8c.html#a82cb999c219dbe6148c7df47ad6bb262" target="_top" xlink:title="js_string_CreateHTML">
<polygon fill="none" stroke="#000000" points="165.5,-76.5 165.5,-95.5 287.5,-95.5 287.5,-76.5 165.5,-76.5"/>
<text text-anchor="middle" x="226.5" y="-83.5" font-family="Helvetica,sans-Serif" font-size="10.00" fill="#000000">js_string_CreateHTML</text>
</a>
</g>
</g>
<!-- Node110074&#45;&gt;Node110083 -->
<g id="edge10" class="edge">
<title>Node110074&#45;&gt;Node110083</title>
<path fill="none" stroke="#191970" d="M101.4473,-124.0161C117.1991,-117.5128 135.2403,-110.4971 152,-105 162.5271,-101.5472 174.0593,-98.336 184.8382,-95.5728"/>
<polygon fill="#191970" stroke="#191970" points="99.8426,-120.8934 91.9674,-127.9809 102.5435,-127.3514 99.8426,-120.8934"/>
</g>
<!-- Node110084 -->
<g id="node11" class="node">
<title>Node110084</title>
<g id="a_node11"><a xlink:href="quickjs_8c.html#a80bed67de3ceaf66888093b5fc84972a" target="_top" xlink:title="js_string_raw">
<polygon fill="none" stroke="#000000" points="186,-38.5 186,-57.5 267,-57.5 267,-38.5 186,-38.5"/>
<text text-anchor="middle" x="226.5" y="-45.5" font-family="Helvetica,sans-Serif" font-size="10.00" fill="#000000">js_string_raw</text>
</a>
</g>
</g>
<!-- Node110074&#45;&gt;Node110084 -->
<g id="edge11" class="edge">
<title>Node110074&#45;&gt;Node110084</title>
<path fill="none" stroke="#191970" d="M80.0958,-120.4606C98.0028,-103.4249 124.6695,-80.705 152,-67 162.5001,-61.7347 174.5846,-57.8442 185.9235,-55.0054"/>
<polygon fill="#191970" stroke="#191970" points="77.242,-118.3538 72.5137,-127.835 82.1225,-123.3718 77.242,-118.3538"/>
</g>
<!-- Node110085 -->
<g id="node12" class="node">
<title>Node110085</title>
<g id="a_node12"><a xlink:href="quickjs_8c.html#aa04ea5aa5c3614856e8cd9843f1ebaa1" target="_top" xlink:title="js_typed_array_join">
<polygon fill="none" stroke="#000000" points="170.5,-.5 170.5,-19.5 282.5,-19.5 282.5,-.5 170.5,-.5"/>
<text text-anchor="middle" x="226.5" y="-7.5" font-family="Helvetica,sans-Serif" font-size="10.00" fill="#000000">js_typed_array_join</text>
</a>
</g>
</g>
<!-- Node110074&#45;&gt;Node110085 -->
<g id="edge13" class="edge">
<title>Node110074&#45;&gt;Node110085</title>
<path fill="none" stroke="#191970" d="M71.4525,-118.9349C87.3152,-92.8064 116.1207,-51.7696 152,-29 158.0859,-25.1378 164.9191,-22.0596 171.9136,-19.6064"/>
<polygon fill="#191970" stroke="#191970" points="68.274,-117.4343 66.2048,-127.8252 74.3022,-120.9926 68.274,-117.4343"/>
</g>
<!-- Node110076&#45;&gt;Node110076 -->
<g id="edge3" class="edge">
<title>Node110076&#45;&gt;Node110076</title>
<path fill="none" stroke="#191970" d="M195.0629,-256.2746C195.9592,-261.741 206.4382,-266 226.5,-266 256.3594,-266 264.9906,-256.5653 252.3937,-247.7571"/>
<polygon fill="#191970" stroke="#191970" points="198.085,-258.0475 200.6063,-247.7571 192.2181,-254.2291 198.085,-258.0475"/>
</g>
<!-- Node110077 -->
<g id="node4" class="node">
<title>Node110077</title>
<g id="a_node4"><a xlink:href="quickjs_8c.html#a343a343b16bc3c9875050e99ee0d2884" target="_top" xlink:title="JS_JSONStringify">
<polygon fill="none" stroke="#000000" points="362.5,-228.5 362.5,-247.5 458.5,-247.5 458.5,-228.5 362.5,-228.5"/>
<text text-anchor="middle" x="410.5" y="-235.5" font-family="Helvetica,sans-Serif" font-size="10.00" fill="#000000">JS_JSONStringify</text>
</a>
</g>
</g>
<!-- Node110076&#45;&gt;Node110077 -->
<g id="edge4" class="edge">
<title>Node110076&#45;&gt;Node110077</title>
<path fill="none" stroke="#191970" d="M278.4354,-238C304.7974,-238 336.6135,-238 362.4115,-238"/>
<polygon fill="#191970" stroke="#191970" points="278.2525,-234.5001 268.2524,-238 278.2524,-241.5001 278.2525,-234.5001"/>
</g>
<!-- Node110078 -->
<g id="node5" class="node">
<title>Node110078</title>
<g id="a_node5"><a xlink:href="quickjs_8c.html#ad2e4811daaaacb846df56bc88bd84e03" target="_top" xlink:title="js_json_stringify">
<polygon fill="none" stroke="#000000" points="520,-228.5 520,-247.5 616,-247.5 616,-228.5 520,-228.5"/>
<text text-anchor="middle" x="568" y="-235.5" font-family="Helvetica,sans-Serif" font-size="10.00" fill="#000000">js_json_stringify</text>
</a>
</g>
</g>
<!-- Node110077&#45;&gt;Node110078 -->
<g id="edge5" class="edge">
<title>Node110077&#45;&gt;Node110078</title>
<path fill="none" stroke="#191970" d="M468.8716,-238C485.6749,-238 503.8075,-238 519.9125,-238"/>
<polygon fill="#191970" stroke="#191970" points="468.611,-234.5001 458.611,-238 468.611,-241.5001 468.611,-234.5001"/>
</g>
<!-- Node110080&#45;&gt;Node110081 -->
<g id="edge8" class="edge">
<title>Node110080&#45;&gt;Node110081</title>
<path fill="none" stroke="#191970" d="M283.0606,-135.681C309.1542,-141.0699 339.7378,-147.3861 364.4029,-152.4799"/>
<polygon fill="#191970" stroke="#191970" points="283.4322,-132.184 272.931,-133.589 282.0164,-139.0393 283.4322,-132.184"/>
</g>
<!-- Node110082 -->
<g id="node9" class="node">
<title>Node110082</title>
<g id="a_node9"><a xlink:href="quickjs_8c.html#a6a77bcdb9f7f18c13c108c99a198708b" target="_top" xlink:title="js_regexp_Symbol_replace">
<polygon fill="none" stroke="#000000" points="337,-114.5 337,-133.5 484,-133.5 484,-114.5 337,-114.5"/>
<text text-anchor="middle" x="410.5" y="-121.5" font-family="Helvetica,sans-Serif" font-size="10.00" fill="#000000">js_regexp_Symbol_replace</text>
</a>
</g>
</g>
<!-- Node110080&#45;&gt;Node110082 -->
<g id="edge9" class="edge">
<title>Node110080&#45;&gt;Node110082</title>
<path fill="none" stroke="#191970" d="M311.3476,-124C319.8186,-124 328.371,-124 336.7152,-124"/>
<polygon fill="#191970" stroke="#191970" points="311.0746,-120.5001 301.0746,-124 311.0746,-127.5001 311.0746,-120.5001"/>
</g>
</g>
</svg>
        <g id="navigator" transform="translate(0 0)" fill="#404254">
                <rect fill="#f2f5e9" fill-opacity="0.5" stroke="#606060" stroke-width=".5" x="0" y="0" width="60" height="60"/>
                <use id="zoomplus" xlink:href="#zoomPlus" x="17" y="9" onmousedown="handleZoom(evt,'in')"/>
                <use id="zoomminus" xlink:href="#zoomMin" x="42" y="9" onmousedown="handleZoom(evt,'out')"/>
                <use id="reset" xlink:href="#resetDef" x="30" y="36" onmousedown="handleReset()"/>
                <g id="arrowUp" xlink:href="#dirArrow" transform="translate(30 24)" onmousedown="handlePan(0,-1)">
                  <use xlink:href="#rim" fill="#404040">
                        <set attributeName="fill" to="#808080" begin="arrowUp.mouseover" end="arrowUp.mouseout"/>
                  </use>
                  <path fill="none" stroke="white" stroke-width="1.5" d="M0,-3.0v7 M-2.5,-0.5L0,-3.0L2.5,-0.5"/>
                </g>
                <g id="arrowRight" xlink:href="#dirArrow" transform="rotate(90) translate(36 -43)" onmousedown="handlePan(1,0)">
                  <use xlink:href="#rim" fill="#404040">
                        <set attributeName="fill" to="#808080" begin="arrowRight.mouseover" end="arrowRight.mouseout"/>
                  </use>
                  <path fill="none" stroke="white" stroke-width="1.5" d="M0,-3.0v7 M-2.5,-0.5L0,-3.0L2.5,-0.5"/>
                </g>
                <g id="arrowDown" xlink:href="#dirArrow" transform="rotate(180) translate(-30 -48)" onmousedown="handlePan(0,1)">
                  <use xlink:href="#rim" fill="#404040">
                        <set attributeName="fill" to="#808080" begin="arrowDown.mouseover" end="arrowDown.mouseout"/>
                  </use>
                  <path fill="none" stroke="white" stroke-width="1.5" d="M0,-3.0v7 M-2.5,-0.5L0,-3.0L2.5,-0.5"/>
                </g>
                <g id="arrowLeft" xlink:href="#dirArrow" transform="rotate(270) translate(-36 17)" onmousedown="handlePan(-1,0)">
                  <use xlink:href="#rim" fill="#404040">
                        <set attributeName="fill" to="#808080" begin="arrowLeft.mouseover" end="arrowLeft.mouseout"/>
                  </use>
                  <path fill="none" stroke="white" stroke-width="1.5" d="M0,-3.0v7 M-2.5,-0.5L0,-3.0L2.5,-0.5"/>
                </g>
        </g>
        <svg viewBox="0 0 15 15" width="100%" height="30px" preserveAspectRatio="xMaxYMin meet">
         <g id="arrow_out" transform="scale(0.3 0.3)">
          <a xlink:href="quickjs_8c_ac91bb65d1f12eadbcc97cecf2860350b_icgraph_org.svg" target="_base">
           <rect id="button" ry="5" rx="5" y="6" x="6" height="38" width="38"
                fill="#f2f5e9" fill-opacity="0.5" stroke="#606060" stroke-width="1.0"/>
           <path id="arrow"
             d="M 11.500037,31.436501 C 11.940474,20.09759 22.043105,11.32322 32.158766,21.979434 L 37.068811,17.246167 C 37.068811,17.246167 37.088388,32 37.088388,32 L 22.160133,31.978069 C 22.160133,31.978069 26.997745,27.140456 26.997745,27.140456 C 18.528582,18.264221 13.291696,25.230495 11.500037,31.436501 z"
             style="fill:#404040;"/>
          </a>
         </g>
        </svg>
</svg>
