<?xml version="1.0" encoding="UTF-8" standalone="no"?>
<!DOCTYPE svg PUBLIC "-//W3C//DTD SVG 1.1//EN"
 "http://www.w3.org/Graphics/SVG/1.1/DTD/svg11.dtd">
<!-- Generated by graphviz version 2.40.1 (20161225.0304)
 -->
<!-- Title: JS_ToPropertyKey Pages: 1 -->
<svg width="906pt" height="303pt"
 viewBox="0.00 0.00 906.00 303.44" xmlns="http://www.w3.org/2000/svg" xmlns:xlink="http://www.w3.org/1999/xlink">
<g id="graph0" class="graph" transform="scale(1 1) rotate(0) translate(4 299.4428)">
<title>JS_ToPropertyKey</title>
<!-- Node259035 -->
<g id="node1" class="node">
<title>Node259035</title>
<polygon fill="#bfbfbf" stroke="#000000" points="0,-128.1995 0,-147.1995 101,-147.1995 101,-128.1995 0,-128.1995"/>
<text text-anchor="middle" x="50.5" y="-135.1995" font-family="Helvetica,sans-Serif" font-size="10.00" fill="#000000">JS_ToPropertyKey</text>
</g>
<!-- Node259036 -->
<g id="node2" class="node">
<title>Node259036</title>
<g id="a_node2"><a xlink:href="quickjs_8c.html#a46d6ebdd8c73102fd9e02a89b1f1d09a" target="_top" xlink:title="JS_ToStringInternal">
<polygon fill="none" stroke="#000000" points="137,-128.1995 137,-147.1995 244,-147.1995 244,-128.1995 137,-128.1995"/>
<text text-anchor="middle" x="190.5" y="-135.1995" font-family="Helvetica,sans-Serif" font-size="10.00" fill="#000000">JS_ToStringInternal</text>
</a>
</g>
</g>
<!-- Node259035&#45;&gt;Node259036 -->
<g id="edge1" class="edge">
<title>Node259035&#45;&gt;Node259036</title>
<path fill="none" stroke="#191970" d="M101.0432,-137.6995C109.3748,-137.6995 118.1059,-137.6995 126.7108,-137.6995"/>
<polygon fill="#191970" stroke="#191970" points="126.7227,-141.1996 136.7227,-137.6995 126.7227,-134.1996 126.7227,-141.1996"/>
</g>
<!-- Node259036&#45;&gt;Node259036 -->
<g id="edge20" class="edge">
<title>Node259036&#45;&gt;Node259036</title>
<path fill="none" stroke="#191970" d="M170.155,-147.4565C160.2574,-156.2647 167.0391,-165.6995 190.5,-165.6995 205.5297,-165.6995 213.7142,-161.8275 215.0535,-156.7287"/>
<polygon fill="#191970" stroke="#191970" points="218.1652,-155.1159 210.845,-147.4565 211.791,-158.0091 218.1652,-155.1159"/>
</g>
<!-- Node259037 -->
<g id="node3" class="node">
<title>Node259037</title>
<g id="a_node3"><a xlink:href="quickjs_8c.html#a260bfa297ff6cb5bd18e229afaa54663" target="_top" xlink:title="JS_AtomToString">
<polygon fill="none" stroke="#000000" points="544,-156.1995 544,-175.1995 640,-175.1995 640,-156.1995 544,-156.1995"/>
<text text-anchor="middle" x="592" y="-163.1995" font-family="Helvetica,sans-Serif" font-size="10.00" fill="#000000">JS_AtomToString</text>
</a>
</g>
</g>
<!-- Node259036&#45;&gt;Node259037 -->
<g id="edge2" class="edge">
<title>Node259036&#45;&gt;Node259037</title>
<path fill="none" stroke="#191970" d="M244.2041,-140.143C307.3848,-143.196 415.4139,-148.9735 508,-156.6995 516.2991,-157.392 525.0492,-158.2201 533.6419,-159.0895"/>
<polygon fill="#191970" stroke="#191970" points="533.3127,-162.5741 543.6203,-160.1235 534.0343,-155.6114 533.3127,-162.5741"/>
</g>
<!-- Node259041 -->
<g id="node5" class="node">
<title>Node259041</title>
<g id="a_node5"><a xlink:href="quickjs_8h.html#a775522f2d084fc8fa0fcb33f390006b4" target="_top" xlink:title="JS_DupValue">
<polygon fill="none" stroke="#000000" points="819,-242.1995 819,-261.1995 896,-261.1995 896,-242.1995 819,-242.1995"/>
<text text-anchor="middle" x="857.5" y="-249.1995" font-family="Helvetica,sans-Serif" font-size="10.00" fill="#000000">JS_DupValue</text>
</a>
</g>
</g>
<!-- Node259036&#45;&gt;Node259041 -->
<g id="edge9" class="edge">
<title>Node259036&#45;&gt;Node259041</title>
<path fill="none" stroke="#191970" d="M193.7924,-147.5463C202.876,-173.0011 230.9227,-241.06 280,-270.6995 346.9693,-311.1446 376.7652,-289.6995 455,-289.6995 455,-289.6995 455,-289.6995 592,-289.6995 668.3336,-289.6995 755.7782,-274.1167 808.8011,-262.9086"/>
<polygon fill="#191970" stroke="#191970" points="809.5698,-266.3234 818.6118,-260.8014 808.0998,-259.4795 809.5698,-266.3234"/>
</g>
<!-- Node259042 -->
<g id="node6" class="node">
<title>Node259042</title>
<g id="a_node6"><a xlink:href="quickjs_8c.html#a0ee6a3654a6016393fac5e1c108f403a" target="_top" xlink:title="JS_NewString">
<polygon fill="none" stroke="#ff0000" points="817,-52.1995 817,-71.1995 898,-71.1995 898,-52.1995 817,-52.1995"/>
<text text-anchor="middle" x="857.5" y="-59.1995" font-family="Helvetica,sans-Serif" font-size="10.00" fill="#000000">JS_NewString</text>
</a>
</g>
</g>
<!-- Node259036&#45;&gt;Node259042 -->
<g id="edge13" class="edge">
<title>Node259036&#45;&gt;Node259042</title>
<path fill="none" stroke="#191970" d="M209.8583,-128.074C252.8327,-107.6235 359.9215,-61.6995 455,-61.6995 455,-61.6995 455,-61.6995 592,-61.6995 666.5422,-61.6995 752.8568,-61.6995 806.3232,-61.6995"/>
<polygon fill="#191970" stroke="#191970" points="806.5653,-65.1996 816.5653,-61.6995 806.5653,-58.1996 806.5653,-65.1996"/>
</g>
<!-- Node259065 -->
<g id="node7" class="node">
<title>Node259065</title>
<g id="a_node7"><a xlink:href="quickjs_8c.html#a6508a2922531adcb280bbff485a9a44a" target="_top" xlink:title="js_dtoa">
<polygon fill="none" stroke="#000000" points="297,-14.1995 297,-33.1995 349,-33.1995 349,-14.1995 297,-14.1995"/>
<text text-anchor="middle" x="323" y="-21.1995" font-family="Helvetica,sans-Serif" font-size="10.00" fill="#000000">js_dtoa</text>
</a>
</g>
</g>
<!-- Node259036&#45;&gt;Node259065 -->
<g id="edge6" class="edge">
<title>Node259036&#45;&gt;Node259065</title>
<path fill="none" stroke="#191970" d="M198.3928,-128.1568C213.1469,-110.7098 246.4592,-73.1248 280,-47.6995 284.3178,-44.4264 289.1331,-41.3031 293.9348,-38.4559"/>
<polygon fill="#191970" stroke="#191970" points="296.013,-41.303 303.0179,-33.3543 292.585,-35.1998 296.013,-41.303"/>
</g>
<!-- Node259072 -->
<g id="node9" class="node">
<title>Node259072</title>
<g id="a_node9"><a xlink:href="quickjs_8h.html#afaa20c47565bc704c6c85f3d77254e7d" target="_top" xlink:title="JS_FreeValue">
<polygon fill="none" stroke="#000000" points="553,-199.1995 553,-218.1995 631,-218.1995 631,-199.1995 553,-199.1995"/>
<text text-anchor="middle" x="592" y="-206.1995" font-family="Helvetica,sans-Serif" font-size="10.00" fill="#000000">JS_FreeValue</text>
</a>
</g>
</g>
<!-- Node259036&#45;&gt;Node259072 -->
<g id="edge10" class="edge">
<title>Node259036&#45;&gt;Node259072</title>
<path fill="none" stroke="#191970" d="M219.193,-147.3C259.5103,-160.3585 335.4536,-183.3859 402,-194.6995 449.2416,-202.731 503.8653,-206.1559 542.385,-207.6158"/>
<polygon fill="#191970" stroke="#191970" points="542.6875,-211.1284 552.803,-207.9777 542.9305,-204.1326 542.6875,-211.1284"/>
</g>
<!-- Node259108 -->
<g id="node11" class="node">
<title>Node259108</title>
<g id="a_node11"><a xlink:href="quickjs_8h.html#ad80a83d73e9b7d872b88fbf2943aebe9" target="_top" xlink:title="JS_IsException">
<polygon fill="none" stroke="#000000" points="548.5,-109.1995 548.5,-128.1995 635.5,-128.1995 635.5,-109.1995 548.5,-109.1995"/>
<text text-anchor="middle" x="592" y="-116.1995" font-family="Helvetica,sans-Serif" font-size="10.00" fill="#000000">JS_IsException</text>
</a>
</g>
</g>
<!-- Node259036&#45;&gt;Node259108 -->
<g id="edge12" class="edge">
<title>Node259036&#45;&gt;Node259108</title>
<path fill="none" stroke="#191970" d="M243.3567,-128.1841C255.3651,-126.3703 268.0911,-124.7213 280,-123.6995 370.3116,-115.9503 475.851,-116.1948 538.1326,-117.2941"/>
<polygon fill="#191970" stroke="#191970" points="538.4311,-120.8004 548.4962,-117.4921 538.5649,-113.8016 538.4311,-120.8004"/>
</g>
<!-- Node259109 -->
<g id="node12" class="node">
<title>Node259109</title>
<g id="a_node12"><a xlink:href="quickjs_8c.html#a2b8df609710fa689dd50b4bd18df2493" target="_top" xlink:title="JS_ToPrimitive">
<polygon fill="none" stroke="#000000" points="280,-242.1995 280,-261.1995 366,-261.1995 366,-242.1995 280,-242.1995"/>
<text text-anchor="middle" x="323" y="-249.1995" font-family="Helvetica,sans-Serif" font-size="10.00" fill="#000000">JS_ToPrimitive</text>
</a>
</g>
</g>
<!-- Node259036&#45;&gt;Node259109 -->
<g id="edge14" class="edge">
<title>Node259036&#45;&gt;Node259109</title>
<path fill="none" stroke="#191970" d="M198.3928,-147.2422C213.1469,-164.6892 246.4592,-202.2742 280,-227.6995 284.3178,-230.9726 289.1331,-234.0959 293.9348,-236.9431"/>
<polygon fill="#191970" stroke="#191970" points="292.585,-240.1992 303.0179,-242.0447 296.013,-234.096 292.585,-240.1992"/>
</g>
<!-- Node259038 -->
<g id="node4" class="node">
<title>Node259038</title>
<g id="a_node4"><a xlink:href="quickjs_8c.html#a06ff303a11e6641cbf1f6634e6a61811" target="_top" xlink:title="__JS_AtomToValue">
<polygon fill="none" stroke="#ff0000" points="676,-156.1995 676,-175.1995 781,-175.1995 781,-156.1995 676,-156.1995"/>
<text text-anchor="middle" x="728.5" y="-163.1995" font-family="Helvetica,sans-Serif" font-size="10.00" fill="#000000">__JS_AtomToValue</text>
</a>
</g>
</g>
<!-- Node259037&#45;&gt;Node259038 -->
<g id="edge3" class="edge">
<title>Node259037&#45;&gt;Node259038</title>
<path fill="none" stroke="#191970" d="M640.1248,-165.6995C648.4001,-165.6995 657.1089,-165.6995 665.7017,-165.6995"/>
<polygon fill="#191970" stroke="#191970" points="665.7027,-169.1996 675.7026,-165.6995 665.7026,-162.1996 665.7027,-169.1996"/>
</g>
<!-- Node259038&#45;&gt;Node259041 -->
<g id="edge4" class="edge">
<title>Node259038&#45;&gt;Node259041</title>
<path fill="none" stroke="#191970" d="M752.6773,-175.227C761.8158,-179.2173 772.1414,-184.2079 781,-189.6995 802.5771,-203.0753 824.8629,-221.7955 839.7747,-235.1589"/>
<polygon fill="#191970" stroke="#191970" points="837.4984,-237.8198 847.2491,-241.964 842.211,-232.6437 837.4984,-237.8198"/>
</g>
<!-- Node259038&#45;&gt;Node259042 -->
<g id="edge5" class="edge">
<title>Node259038&#45;&gt;Node259042</title>
<path fill="none" stroke="#191970" d="M740.4048,-156.1018C762.5799,-138.2242 810.4184,-99.6568 837.5878,-77.7528"/>
<polygon fill="#191970" stroke="#191970" points="840.0356,-80.2751 845.624,-71.2739 835.6422,-74.8255 840.0356,-80.2751"/>
</g>
<!-- Node259065&#45;&gt;Node259042 -->
<g id="edge8" class="edge">
<title>Node259065&#45;&gt;Node259042</title>
<path fill="none" stroke="#191970" d="M349.0521,-15.7939C364.3194,-11.5754 384.0694,-6.8254 402,-4.6995 554.172,13.3424 734.7143,-27.8723 815.1669,-49.5087"/>
<polygon fill="#191970" stroke="#191970" points="814.3618,-52.9169 824.9304,-52.1712 816.2036,-46.1635 814.3618,-52.9169"/>
</g>
<!-- Node259066 -->
<g id="node8" class="node">
<title>Node259066</title>
<g id="a_node8"><a xlink:href="quickjs_8c.html#a7ba39dd8c4124908e1c12e2d3267767c" target="_top" xlink:title="js_dtoa1">
<polygon fill="none" stroke="#ff0000" points="426,-14.1995 426,-33.1995 484,-33.1995 484,-14.1995 426,-14.1995"/>
<text text-anchor="middle" x="455" y="-21.1995" font-family="Helvetica,sans-Serif" font-size="10.00" fill="#000000">js_dtoa1</text>
</a>
</g>
</g>
<!-- Node259065&#45;&gt;Node259066 -->
<g id="edge7" class="edge">
<title>Node259065&#45;&gt;Node259066</title>
<path fill="none" stroke="#191970" d="M349.079,-23.6995C368.0621,-23.6995 394.1031,-23.6995 415.6137,-23.6995"/>
<polygon fill="#191970" stroke="#191970" points="415.7587,-27.1996 425.7587,-23.6995 415.7586,-20.1996 415.7587,-27.1996"/>
</g>
<!-- Node259073 -->
<g id="node10" class="node">
<title>Node259073</title>
<g id="a_node10"><a xlink:href="quickjs_8c.html#aa059f309c30fd5166d16c82a97973146" target="_top" xlink:title="__JS_FreeValue">
<polygon fill="none" stroke="#ff0000" points="684,-199.1995 684,-218.1995 773,-218.1995 773,-199.1995 684,-199.1995"/>
<text text-anchor="middle" x="728.5" y="-206.1995" font-family="Helvetica,sans-Serif" font-size="10.00" fill="#000000">__JS_FreeValue</text>
</a>
</g>
</g>
<!-- Node259072&#45;&gt;Node259073 -->
<g id="edge11" class="edge">
<title>Node259072&#45;&gt;Node259073</title>
<path fill="none" stroke="#191970" d="M631.1154,-208.6995C644.3013,-208.6995 659.2732,-208.6995 673.4544,-208.6995"/>
<polygon fill="#191970" stroke="#191970" points="673.6039,-212.1996 683.6039,-208.6995 673.6039,-205.1996 673.6039,-212.1996"/>
</g>
<!-- Node259109&#45;&gt;Node259041 -->
<g id="edge15" class="edge">
<title>Node259109&#45;&gt;Node259041</title>
<path fill="none" stroke="#191970" d="M366.2876,-251.6995C464.8006,-251.6995 705.1977,-251.6995 808.7414,-251.6995"/>
<polygon fill="#191970" stroke="#191970" points="808.914,-255.1996 818.914,-251.6995 808.914,-248.1996 808.914,-255.1996"/>
</g>
<!-- Node259110 -->
<g id="node13" class="node">
<title>Node259110</title>
<g id="a_node13"><a xlink:href="quickjs_8c.html#abac33881bb91f8c31106f616d81b67e8" target="_top" xlink:title="JS_ToPrimitiveFree">
<polygon fill="none" stroke="#ff0000" points="402,-166.1995 402,-185.1995 508,-185.1995 508,-166.1995 402,-166.1995"/>
<text text-anchor="middle" x="455" y="-173.1995" font-family="Helvetica,sans-Serif" font-size="10.00" fill="#000000">JS_ToPrimitiveFree</text>
</a>
</g>
</g>
<!-- Node259109&#45;&gt;Node259110 -->
<g id="edge16" class="edge">
<title>Node259109&#45;&gt;Node259110</title>
<path fill="none" stroke="#191970" d="M339.7179,-242.074C362.4307,-228.9969 403.2346,-205.5038 429.7056,-190.2629"/>
<polygon fill="#191970" stroke="#191970" points="431.498,-193.2697 438.4179,-185.2468 428.0052,-187.2033 431.498,-193.2697"/>
</g>
<!-- Node259110&#45;&gt;Node259037 -->
<g id="edge17" class="edge">
<title>Node259110&#45;&gt;Node259037</title>
<path fill="none" stroke="#191970" d="M508.3601,-171.8046C516.6926,-171.1964 525.3398,-170.5652 533.7743,-169.9495"/>
<polygon fill="#191970" stroke="#191970" points="534.203,-173.4276 543.9217,-169.2089 533.6934,-166.4462 534.203,-173.4276"/>
</g>
<!-- Node259110&#45;&gt;Node259072 -->
<g id="edge18" class="edge">
<title>Node259110&#45;&gt;Node259072</title>
<path fill="none" stroke="#191970" d="M494.6261,-185.2444C509.6657,-188.8671 526.9783,-193.0373 542.7962,-196.8475"/>
<polygon fill="#191970" stroke="#191970" points="542.3945,-200.3508 552.9361,-199.2899 544.0338,-193.5454 542.3945,-200.3508"/>
</g>
<!-- Node259110&#45;&gt;Node259108 -->
<g id="edge19" class="edge">
<title>Node259110&#45;&gt;Node259108</title>
<path fill="none" stroke="#191970" d="M477.9307,-166.159C500.2565,-156.8701 534.4018,-142.6637 559.5184,-132.2137"/>
<polygon fill="#191970" stroke="#191970" points="561.1062,-135.344 568.9945,-128.2711 558.4172,-128.8811 561.1062,-135.344"/>
</g>
</g>
</svg>
