<?xml version="1.0" encoding="UTF-8" standalone="no"?>
<!DOCTYPE svg PUBLIC "-//W3C//DTD SVG 1.1//EN"
 "http://www.w3.org/Graphics/SVG/1.1/DTD/svg11.dtd">
<!-- Generated by graphviz version 2.40.1 (20161225.0304)
 -->
<!-- Title: shape_initial_hash Pages: 1 -->
<!--zoomable 872 -->
<svg id="main" version="1.1" xmlns="http://www.w3.org/2000/svg" xmlns:xlink="http://www.w3.org/1999/xlink" xml:space="preserve" onload="init(evt)">
<style type="text/css"><![CDATA[
.edge:hover path { stroke: red; }
.edge:hover polygon { stroke: red; fill: red; }
]]></style>
<script type="text/javascript"><![CDATA[
var edges = document.getElementsByTagName('g');
if (edges && edges.length) {
  for (var i=0;i<edges.length;i++) {
    if (edges[i].id.substr(0,4)=='edge') {
      edges[i].setAttribute('class','edge');
    }
  }
}
]]></script>
        <defs>
                <circle id="rim" cx="0" cy="0" r="7"/>
                <circle id="rim2" cx="0" cy="0" r="3.5"/>
                <g id="zoomPlus">
                        <use xlink:href="#rim" fill="#404040">
                                <set attributeName="fill" to="#808080" begin="zoomplus.mouseover" end="zoomplus.mouseout"/>
                        </use>
                        <path d="M-4,0h8M0,-4v8" fill="none" stroke="white" stroke-width="1.5" pointer-events="none"/>
                </g>
                <g id="zoomMin">
                        <use xlink:href="#rim" fill="#404040">
                                <set attributeName="fill" to="#808080" begin="zoomminus.mouseover" end="zoomminus.mouseout"/>
                        </use>
                        <path d="M-4,0h8" fill="none" stroke="white" stroke-width="1.5" pointer-events="none"/>
                </g>
                <g id="dirArrow">
                        <path fill="none" stroke="white" stroke-width="1.5" d="M0,-3.0v7 M-2.5,-0.5L0,-3.0L2.5,-0.5"/>
                </g>
               <g id="resetDef">
                       <use xlink:href="#rim2" fill="#404040">
                               <set attributeName="fill" to="#808080" begin="reset.mouseover" end="reset.mouseout"/>
                       </use>
               </g>
        </defs>

<script type="text/javascript">
var viewWidth = 971;
var viewHeight = 872;
var sectionId = 'dynsection-367';
</script>
<script xlink:href="svgpan.js"/>
<svg id="graph" class="graph">
<g id="viewport">
<title>shape_initial_hash</title>
<!-- Node123632 -->
<g id="node1" class="node">
<title>Node123632</title>
<polygon fill="#bfbfbf" stroke="#000000" points="0,-472 0,-491 107,-491 107,-472 0,-472"/>
<text text-anchor="middle" x="53.5" y="-479" font-family="Helvetica,sans-Serif" font-size="10.00" fill="#000000">shape_initial_hash</text>
</g>
<!-- Node123633 -->
<g id="node2" class="node">
<title>Node123633</title>
<g id="a_node2"><a xlink:href="quickjs_8c.html#aad24bdf2bcbb0ce55462fe6074dac8a5" target="_top" xlink:title="find_hashed_shape_proto">
<polygon fill="none" stroke="#000000" points="270,-453 270,-472 410,-472 410,-453 270,-453"/>
<text text-anchor="middle" x="340" y="-460" font-family="Helvetica,sans-Serif" font-size="10.00" fill="#000000">find_hashed_shape_proto</text>
</a>
</g>
</g>
<!-- Node123632&#45;&gt;Node123633 -->
<g id="edge1" class="edge">
<title>Node123632&#45;&gt;Node123633</title>
<path fill="none" stroke="#191970" d="M117.0481,-477.2856C162.3394,-474.282 223.223,-470.2444 269.9228,-467.1474"/>
<polygon fill="#191970" stroke="#191970" points="116.7988,-473.7944 107.0524,-477.9485 117.2621,-480.779 116.7988,-473.7944"/>
</g>
<!-- Node124263 -->
<g id="node26" class="node">
<title>Node124263</title>
<g id="a_node26"><a xlink:href="quickjs_8c.html#a1030d2020be7d911eb62869f21cc3b70" target="_top" xlink:title="js_new_shape2">
<polygon fill="none" stroke="#000000" points="143,-491 143,-510 234,-510 234,-491 143,-491"/>
<text text-anchor="middle" x="188.5" y="-498" font-family="Helvetica,sans-Serif" font-size="10.00" fill="#000000">js_new_shape2</text>
</a>
</g>
</g>
<!-- Node123632&#45;&gt;Node124263 -->
<g id="edge33" class="edge">
<title>Node123632&#45;&gt;Node124263</title>
<path fill="none" stroke="#191970" d="M117.2745,-490.4757C125.8798,-491.6868 134.5661,-492.9093 142.7716,-494.0642"/>
<polygon fill="#191970" stroke="#191970" points="117.6337,-486.9918 107.2435,-489.0639 116.6581,-493.9235 117.6337,-486.9918"/>
</g>
<!-- Node123634 -->
<g id="node3" class="node">
<title>Node123634</title>
<g id="a_node3"><a xlink:href="quickjs_8c.html#a73738c650f11459db0d7af3dcdf8316b" target="_top" xlink:title="JS_NewObjectProtoClass">
<polygon fill="none" stroke="#000000" points="446,-453 446,-472 582,-472 582,-453 446,-453"/>
<text text-anchor="middle" x="514" y="-460" font-family="Helvetica,sans-Serif" font-size="10.00" fill="#000000">JS_NewObjectProtoClass</text>
</a>
</g>
</g>
<!-- Node123633&#45;&gt;Node123634 -->
<g id="edge2" class="edge">
<title>Node123633&#45;&gt;Node123634</title>
<path fill="none" stroke="#191970" d="M420.0627,-462.5C428.6704,-462.5 437.3692,-462.5 445.8192,-462.5"/>
<polygon fill="#191970" stroke="#191970" points="420.0204,-459.0001 410.0203,-462.5 420.0203,-466.0001 420.0204,-459.0001"/>
</g>
<!-- Node123635 -->
<g id="node4" class="node">
<title>Node123635</title>
<g id="a_node4"><a xlink:href="quickjs-libc_8c.html#a8129754877bdfb4d22f64dae5ba8e778" target="_top" xlink:title="js_worker_ctor_internal">
<polygon fill="none" stroke="#ff0000" points="631,-681 631,-700 762,-700 762,-681 631,-681"/>
<text text-anchor="middle" x="696.5" y="-688" font-family="Helvetica,sans-Serif" font-size="10.00" fill="#000000">js_worker_ctor_internal</text>
</a>
</g>
</g>
<!-- Node123634&#45;&gt;Node123635 -->
<g id="edge3" class="edge">
<title>Node123634&#45;&gt;Node123635</title>
<path fill="none" stroke="#191970" d="M517.9554,-482.2066C527.3989,-523.9405 555.3084,-621.498 618,-671.5 622.8234,-675.3471 628.3077,-678.433 634.0833,-680.9057"/>
<polygon fill="#191970" stroke="#191970" points="521.3316,-481.2579 515.8111,-472.215 514.4875,-482.7269 521.3316,-481.2579"/>
</g>
<!-- Node123640 -->
<g id="node5" class="node">
<title>Node123640</title>
<g id="a_node5"><a xlink:href="quickjs_8c.html#a659dc0db7e440fd6eb012d613627faa3" target="_top" xlink:title="JS_NewObjectClass">
<polygon fill="none" stroke="#ff0000" points="641.5,-643 641.5,-662 751.5,-662 751.5,-643 641.5,-643"/>
<text text-anchor="middle" x="696.5" y="-650" font-family="Helvetica,sans-Serif" font-size="10.00" fill="#000000">JS_NewObjectClass</text>
</a>
</g>
</g>
<!-- Node123634&#45;&gt;Node123640 -->
<g id="edge4" class="edge">
<title>Node123634&#45;&gt;Node123640</title>
<path fill="none" stroke="#191970" d="M520.8642,-481.8581C534.1333,-516.4925 566.6073,-589.1129 618,-628.5 626.2573,-634.8283 636.1885,-639.4991 646.1675,-642.943"/>
<polygon fill="#191970" stroke="#191970" points="523.9836,-480.2026 517.2312,-472.0383 517.4185,-482.6315 523.9836,-480.2026"/>
</g>
<!-- Node124253 -->
<g id="node6" class="node">
<title>Node124253</title>
<g id="a_node6"><a xlink:href="quickjs_8c.html#a884d294acbf5be675ffc760e38bd0521" target="_top" xlink:title="JS_NewObjectProto">
<polygon fill="none" stroke="#ff0000" points="641.5,-769 641.5,-788 751.5,-788 751.5,-769 641.5,-769"/>
<text text-anchor="middle" x="696.5" y="-776" font-family="Helvetica,sans-Serif" font-size="10.00" fill="#000000">JS_NewObjectProto</text>
</a>
</g>
</g>
<!-- Node123634&#45;&gt;Node124253 -->
<g id="edge5" class="edge">
<title>Node123634&#45;&gt;Node124253</title>
<path fill="none" stroke="#191970" d="M514.7442,-482.411C517.8626,-535.8471 534.0444,-683.4971 618,-759.5 624.6529,-765.5227 632.8856,-769.7215 641.4924,-772.6321"/>
<polygon fill="#191970" stroke="#191970" points="518.231,-482.0529 514.2472,-472.2356 511.2393,-482.3945 518.231,-482.0529"/>
</g>
<!-- Node123899 -->
<g id="node7" class="node">
<title>Node123899</title>
<g id="a_node7"><a xlink:href="quickjs_8c.html#a36322a209de4ef17f939e6d128578d7f" target="_top" xlink:title="js_op_define_class">
<polygon fill="none" stroke="#ff0000" points="833.5,-807 833.5,-826 940.5,-826 940.5,-807 833.5,-807"/>
<text text-anchor="middle" x="887" y="-814" font-family="Helvetica,sans-Serif" font-size="10.00" fill="#000000">js_op_define_class</text>
</a>
</g>
</g>
<!-- Node123634&#45;&gt;Node123899 -->
<g id="edge20" class="edge">
<title>Node123634&#45;&gt;Node123899</title>
<path fill="none" stroke="#191970" d="M516.4111,-482.3715C525.4482,-553.1816 559.8016,-791.3086 618,-835.5 693.5055,-892.833 817.8738,-847.575 866.5582,-826.1546"/>
<polygon fill="#191970" stroke="#191970" points="519.8487,-481.6532 515.1375,-472.1635 512.9026,-482.5199 519.8487,-481.6532"/>
</g>
<!-- Node123813 -->
<g id="node8" class="node">
<title>Node123813</title>
<g id="a_node8"><a xlink:href="quickjs_8c.html#a7efb53c2f76fd5cc0e584449437ec09c" target="_top" xlink:title="JS_AddIntrinsicBasicObjects">
<polygon fill="none" stroke="#ff0000" points="811,-605 811,-624 963,-624 963,-605 811,-605"/>
<text text-anchor="middle" x="887" y="-612" font-family="Helvetica,sans-Serif" font-size="10.00" fill="#000000">JS_AddIntrinsicBasicObjects</text>
</a>
</g>
</g>
<!-- Node123634&#45;&gt;Node123813 -->
<g id="edge31" class="edge">
<title>Node123634&#45;&gt;Node123813</title>
<path fill="none" stroke="#191970" d="M522.4742,-481.5577C537.0721,-511.8127 570.0812,-570.0123 618,-595.5 681.5517,-629.3027 765.7961,-629.3559 822.9544,-624.0058"/>
<polygon fill="#191970" stroke="#191970" points="525.4757,-479.7117 518.0843,-472.121 519.1288,-482.6642 525.4757,-479.7117"/>
</g>
<!-- Node123682 -->
<g id="node9" class="node">
<title>Node123682</title>
<g id="a_node9"><a xlink:href="quickjs_8c.html#a4c9489297c684663f30e517204a9ec14" target="_top" xlink:title="JS_AddIntrinsicBaseObjects">
<polygon fill="none" stroke="#ff0000" points="812.5,-529 812.5,-548 961.5,-548 961.5,-529 812.5,-529"/>
<text text-anchor="middle" x="887" y="-536" font-family="Helvetica,sans-Serif" font-size="10.00" fill="#000000">JS_AddIntrinsicBaseObjects</text>
</a>
</g>
</g>
<!-- Node123634&#45;&gt;Node123682 -->
<g id="edge32" class="edge">
<title>Node123634&#45;&gt;Node123682</title>
<path fill="none" stroke="#191970" d="M592.3058,-460.1738C644.8786,-460.5506 715.1985,-464.8389 775,-481.5 812.6209,-491.9815 852.3889,-515.673 872.9083,-528.9766"/>
<polygon fill="#191970" stroke="#191970" points="592.045,-456.6732 582.0362,-460.1481 592.0274,-463.6732 592.045,-456.6732"/>
</g>
<!-- Node124256 -->
<g id="node10" class="node">
<title>Node124256</title>
<g id="a_node10"><a xlink:href="quickjs_8c.html#afc0d8ea75588216ec132a6e1655524a7" target="_top" xlink:title="JS_NewObject">
<polygon fill="none" stroke="#ff0000" points="654.5,-529 654.5,-548 738.5,-548 738.5,-529 654.5,-529"/>
<text text-anchor="middle" x="696.5" y="-536" font-family="Helvetica,sans-Serif" font-size="10.00" fill="#000000">JS_NewObject</text>
</a>
</g>
</g>
<!-- Node123634&#45;&gt;Node124256 -->
<g id="edge9" class="edge">
<title>Node123634&#45;&gt;Node124256</title>
<path fill="none" stroke="#191970" d="M537.1947,-477.5443C557.7227,-490.2811 588.8617,-508.2178 618,-519.5 629.5069,-523.9554 642.3787,-527.5928 654.3173,-530.4482"/>
<polygon fill="#191970" stroke="#191970" points="538.8814,-474.4703 528.5549,-472.1008 535.1498,-480.3928 538.8814,-474.4703"/>
</g>
<!-- Node123801 -->
<g id="node11" class="node">
<title>Node123801</title>
<g id="a_node11"><a xlink:href="quickjs_8c.html#a21cfe4c4fc9372dc0b95b37667cff0c9" target="_top" xlink:title="JS_NewCFunction3">
<polygon fill="none" stroke="#ff0000" points="643.5,-567 643.5,-586 749.5,-586 749.5,-567 643.5,-567"/>
<text text-anchor="middle" x="696.5" y="-574" font-family="Helvetica,sans-Serif" font-size="10.00" fill="#000000">JS_NewCFunction3</text>
</a>
</g>
</g>
<!-- Node123634&#45;&gt;Node123801 -->
<g id="edge12" class="edge">
<title>Node123634&#45;&gt;Node123801</title>
<path fill="none" stroke="#191970" d="M527.919,-479.7064C546.2728,-501.2197 580.6419,-537.6294 618,-557.5 625.7992,-561.6484 634.5139,-564.9056 643.2211,-567.4592"/>
<polygon fill="#191970" stroke="#191970" points="530.5819,-477.4347 521.4871,-472.0001 525.2078,-481.9201 530.5819,-477.4347"/>
</g>
<!-- Node123818 -->
<g id="node12" class="node">
<title>Node123818</title>
<g id="a_node12"><a xlink:href="quickjs_8c.html#ac048b0ff95f3f0cb7c189e87f74df753" target="_top" xlink:title="JS_NewCFunctionData">
<polygon fill="none" stroke="#ff0000" points="635,-415 635,-434 758,-434 758,-415 635,-415"/>
<text text-anchor="middle" x="696.5" y="-422" font-family="Helvetica,sans-Serif" font-size="10.00" fill="#000000">JS_NewCFunctionData</text>
</a>
</g>
</g>
<!-- Node123634&#45;&gt;Node123818 -->
<g id="edge15" class="edge">
<title>Node123634&#45;&gt;Node123818</title>
<path fill="none" stroke="#191970" d="M570.0995,-450.819C595.9804,-445.4301 626.3146,-439.1139 650.7787,-434.0201"/>
<polygon fill="#191970" stroke="#191970" points="569.129,-447.4459 560.0525,-452.911 570.556,-454.299 569.129,-447.4459"/>
</g>
<!-- Node123827 -->
<g id="node13" class="node">
<title>Node123827</title>
<g id="a_node13"><a xlink:href="quickjs_8c.html#aeafb37b03b5560171754f8c4505b0f6b" target="_top" xlink:title="JS_ThrowError2">
<polygon fill="none" stroke="#ff0000" points="651.5,-377 651.5,-396 741.5,-396 741.5,-377 651.5,-377"/>
<text text-anchor="middle" x="696.5" y="-384" font-family="Helvetica,sans-Serif" font-size="10.00" fill="#000000">JS_ThrowError2</text>
</a>
</g>
</g>
<!-- Node123634&#45;&gt;Node123827 -->
<g id="edge16" class="edge">
<title>Node123634&#45;&gt;Node123827</title>
<path fill="none" stroke="#191970" d="M537.1947,-447.4557C557.7227,-434.7189 588.8617,-416.7822 618,-405.5 628.5916,-401.399 640.3395,-397.991 651.4518,-395.2481"/>
<polygon fill="#191970" stroke="#191970" points="535.1498,-444.6072 528.5549,-452.8992 538.8814,-450.5297 535.1498,-444.6072"/>
</g>
<!-- Node123901 -->
<g id="node14" class="node">
<title>Node123901</title>
<g id="a_node14"><a xlink:href="quickjs_8c.html#a04d312757919ff6b4d79cd0c2c3e5bb2" target="_top" xlink:title="js_build_arguments">
<polygon fill="none" stroke="#ff0000" points="640.5,-339 640.5,-358 752.5,-358 752.5,-339 640.5,-339"/>
<text text-anchor="middle" x="696.5" y="-346" font-family="Helvetica,sans-Serif" font-size="10.00" fill="#000000">js_build_arguments</text>
</a>
</g>
</g>
<!-- Node123634&#45;&gt;Node123901 -->
<g id="edge17" class="edge">
<title>Node123634&#45;&gt;Node123901</title>
<path fill="none" stroke="#191970" d="M527.919,-445.2936C546.2728,-423.7803 580.6419,-387.3706 618,-367.5 625.304,-363.615 633.411,-360.5116 641.5627,-358.0358"/>
<polygon fill="#191970" stroke="#191970" points="525.2078,-443.0799 521.4871,-452.9999 530.5819,-447.5653 525.2078,-443.0799"/>
</g>
<!-- Node123875 -->
<g id="node15" class="node">
<title>Node123875</title>
<g id="a_node15"><a xlink:href="quickjs_8c.html#a1c459034f2971c4abc3a8d6d4693ef5f" target="_top" xlink:title="js_build_mapped_arguments">
<polygon fill="none" stroke="#ff0000" points="618,-301 618,-320 775,-320 775,-301 618,-301"/>
<text text-anchor="middle" x="696.5" y="-308" font-family="Helvetica,sans-Serif" font-size="10.00" fill="#000000">js_build_mapped_arguments</text>
</a>
</g>
</g>
<!-- Node123634&#45;&gt;Node123875 -->
<g id="edge18" class="edge">
<title>Node123634&#45;&gt;Node123875</title>
<path fill="none" stroke="#191970" d="M523.4505,-443.4916C538.9992,-414.2608 572.8141,-358.6104 618,-329.5 624.0117,-325.6271 630.7436,-322.5432 637.6702,-320.0876"/>
<polygon fill="#191970" stroke="#191970" points="520.2035,-442.1513 518.7238,-452.6423 526.4228,-445.3638 520.2035,-442.1513"/>
</g>
<!-- Node123902 -->
<g id="node16" class="node">
<title>Node123902</title>
<g id="a_node16"><a xlink:href="quickjs_8c.html#aa40a5354bee3b56e05a71244910bcc78" target="_top" xlink:title="build_for_in_iterator">
<polygon fill="none" stroke="#ff0000" points="639,-263 639,-282 754,-282 754,-263 639,-263"/>
<text text-anchor="middle" x="696.5" y="-270" font-family="Helvetica,sans-Serif" font-size="10.00" fill="#000000">build_for_in_iterator</text>
</a>
</g>
</g>
<!-- Node123634&#45;&gt;Node123902 -->
<g id="edge19" class="edge">
<title>Node123634&#45;&gt;Node123902</title>
<path fill="none" stroke="#191970" d="M520.1251,-443.23C532.5237,-407.4642 564.0944,-330.8798 618,-291.5 624.2274,-286.9507 631.4023,-283.4792 638.8302,-280.8323"/>
<polygon fill="#191970" stroke="#191970" points="516.7327,-442.3392 516.8892,-452.9329 523.3732,-444.5538 516.7327,-442.3392"/>
</g>
<!-- Node124218 -->
<g id="node17" class="node">
<title>Node124218</title>
<g id="a_node17"><a xlink:href="quickjs_8c.html#a93dbf502b17d1328c524401335f60499" target="_top" xlink:title="js_create_from_ctor">
<polygon fill="none" stroke="#ff0000" points="640,-225 640,-244 753,-244 753,-225 640,-225"/>
<text text-anchor="middle" x="696.5" y="-232" font-family="Helvetica,sans-Serif" font-size="10.00" fill="#000000">js_create_from_ctor</text>
</a>
</g>
</g>
<!-- Node123634&#45;&gt;Node124218 -->
<g id="edge21" class="edge">
<title>Node123634&#45;&gt;Node124218</title>
<path fill="none" stroke="#191970" d="M517.9554,-442.7934C527.3989,-401.0595 555.3084,-303.502 618,-253.5 624.3581,-248.4289 631.8646,-244.6803 639.6728,-241.9153"/>
<polygon fill="#191970" stroke="#191970" points="514.4875,-442.2731 515.8111,-452.785 521.3316,-443.7421 514.4875,-442.2731"/>
</g>
<!-- Node124259 -->
<g id="node18" class="node">
<title>Node124259</title>
<g id="a_node18"><a xlink:href="quickjs_8c.html#a7068f4cd630e0bb554ea300ddb389715" target="_top" xlink:title="js_async_function_resolve\l_create">
<polygon fill="none" stroke="#ff0000" points="624,-175.5 624,-205.5 769,-205.5 769,-175.5 624,-175.5"/>
<text text-anchor="start" x="632" y="-193.5" font-family="Helvetica,sans-Serif" font-size="10.00" fill="#000000">js_async_function_resolve</text>
<text text-anchor="middle" x="696.5" y="-182.5" font-family="Helvetica,sans-Serif" font-size="10.00" fill="#000000">_create</text>
</a>
</g>
</g>
<!-- Node123634&#45;&gt;Node124259 -->
<g id="edge22" class="edge">
<title>Node123634&#45;&gt;Node124259</title>
<path fill="none" stroke="#191970" d="M516.6336,-442.8479C523.8971,-396.401 548.5031,-278.9945 618,-215.5 622.2238,-211.641 627.0441,-208.3777 632.1715,-205.6179"/>
<polygon fill="#191970" stroke="#191970" points="513.1592,-442.4184 515.1751,-452.8197 520.0856,-443.4315 513.1592,-442.4184"/>
</g>
<!-- Node124260 -->
<g id="node19" class="node">
<title>Node124260</title>
<g id="a_node19"><a xlink:href="quickjs_8c.html#a6e67f3bc70778c4c816db73e18d47d03" target="_top" xlink:title="js_create_module_bytecode\l_function">
<polygon fill="none" stroke="#ff0000" points="620,-126.5 620,-156.5 773,-156.5 773,-126.5 620,-126.5"/>
<text text-anchor="start" x="628" y="-144.5" font-family="Helvetica,sans-Serif" font-size="10.00" fill="#000000">js_create_module_bytecode</text>
<text text-anchor="middle" x="696.5" y="-133.5" font-family="Helvetica,sans-Serif" font-size="10.00" fill="#000000">_function</text>
</a>
</g>
</g>
<!-- Node123634&#45;&gt;Node124260 -->
<g id="edge23" class="edge">
<title>Node123634&#45;&gt;Node124260</title>
<path fill="none" stroke="#191970" d="M514.9927,-442.8554C518.7331,-390.0863 536.3319,-243.9558 618,-165.5 621.597,-162.0445 625.6778,-159.0852 630.0428,-156.5511"/>
<polygon fill="#191970" stroke="#191970" points="511.4955,-442.7031 514.3733,-452.8996 518.4822,-443.134 511.4955,-442.7031"/>
</g>
<!-- Node123697 -->
<g id="node20" class="node">
<title>Node123697</title>
<g id="a_node20"><a xlink:href="quickjs_8c.html#a8fce6f70a6fc880eabcdb9883e3753f2" target="_top" xlink:title="JS_ReadDate">
<polygon fill="none" stroke="#ff0000" points="657.5,-88 657.5,-107 735.5,-107 735.5,-88 657.5,-88"/>
<text text-anchor="middle" x="696.5" y="-95" font-family="Helvetica,sans-Serif" font-size="10.00" fill="#000000">JS_ReadDate</text>
</a>
</g>
</g>
<!-- Node123634&#45;&gt;Node123697 -->
<g id="edge24" class="edge">
<title>Node123634&#45;&gt;Node123697</title>
<path fill="none" stroke="#191970" d="M517.2955,-442.7787C528.7641,-376.4485 568.918,-162.9766 618,-116.5 628.487,-106.5696 643.2429,-101.5544 657.1349,-99.1066"/>
<polygon fill="#191970" stroke="#191970" points="513.8255,-442.3067 515.5969,-452.7524 520.7262,-443.482 513.8255,-442.3067"/>
</g>
<!-- Node123944 -->
<g id="node21" class="node">
<title>Node123944</title>
<g id="a_node21"><a xlink:href="quickjs_8c.html#ac6d5606ba25525b3a03981eefbe98e13" target="_top" xlink:title="js_function_bind">
<polygon fill="none" stroke="#000000" points="648.5,-50 648.5,-69 744.5,-69 744.5,-50 648.5,-50"/>
<text text-anchor="middle" x="696.5" y="-57" font-family="Helvetica,sans-Serif" font-size="10.00" fill="#000000">js_function_bind</text>
</a>
</g>
</g>
<!-- Node123634&#45;&gt;Node123944 -->
<g id="edge25" class="edge">
<title>Node123634&#45;&gt;Node123944</title>
<path fill="none" stroke="#191970" d="M516.7112,-442.5111C526.7749,-371.2162 564.2006,-130.8652 618,-78.5 626.2394,-70.4802 637.2546,-65.6487 648.4219,-62.7858"/>
<polygon fill="#191970" stroke="#191970" points="513.1934,-442.3988 515.2868,-452.7847 520.1271,-443.3602 513.1934,-442.3988"/>
</g>
<!-- Node123681 -->
<g id="node22" class="node">
<title>Node123681</title>
<g id="a_node22"><a xlink:href="quickjs_8c.html#ad25358fc5ae69ab218abde24d52b7767" target="_top" xlink:title="js_error_constructor">
<polygon fill="none" stroke="#000000" points="640,-491 640,-510 753,-510 753,-491 640,-491"/>
<text text-anchor="middle" x="696.5" y="-498" font-family="Helvetica,sans-Serif" font-size="10.00" fill="#000000">js_error_constructor</text>
</a>
</g>
</g>
<!-- Node123634&#45;&gt;Node123681 -->
<g id="edge26" class="edge">
<title>Node123634&#45;&gt;Node123681</title>
<path fill="none" stroke="#191970" d="M570.0995,-474.181C595.9804,-479.5699 626.3146,-485.8861 650.7787,-490.9799"/>
<polygon fill="#191970" stroke="#191970" points="570.556,-470.701 560.0525,-472.089 569.129,-477.5541 570.556,-470.701"/>
</g>
<!-- Node123945 -->
<g id="node23" class="node">
<title>Node123945</title>
<g id="a_node23"><a xlink:href="quickjs_8c.html#a57af8ddae60fbd0080e34d23ce2a04a6" target="_top" xlink:title="js_aggregate_error\l_constructor">
<polygon fill="none" stroke="#ff0000" points="642.5,-.5 642.5,-30.5 750.5,-30.5 750.5,-.5 642.5,-.5"/>
<text text-anchor="start" x="650.5" y="-18.5" font-family="Helvetica,sans-Serif" font-size="10.00" fill="#000000">js_aggregate_error</text>
<text text-anchor="middle" x="696.5" y="-7.5" font-family="Helvetica,sans-Serif" font-size="10.00" fill="#000000">_constructor</text>
</a>
</g>
</g>
<!-- Node123634&#45;&gt;Node123945 -->
<g id="edge28" class="edge">
<title>Node123634&#45;&gt;Node123945</title>
<path fill="none" stroke="#191970" d="M516.3214,-442.6368C525.4936,-367.3683 561.4928,-100.9069 618,-40.5 624.6442,-33.3973 633.2974,-28.3039 642.4235,-24.6537"/>
<polygon fill="#191970" stroke="#191970" points="512.8346,-442.3182 515.1218,-452.6632 519.7851,-443.1499 512.8346,-442.3182"/>
</g>
<!-- Node124262 -->
<g id="node24" class="node">
<title>Node124262</title>
<g id="a_node24"><a xlink:href="quickjs_8c.html#aabd74747b51e480d80dc19914e74a3a5" target="_top" xlink:title="js_proxy_constructor">
<polygon fill="none" stroke="#ff0000" points="637.5,-807 637.5,-826 755.5,-826 755.5,-807 637.5,-807"/>
<text text-anchor="middle" x="696.5" y="-814" font-family="Helvetica,sans-Serif" font-size="10.00" fill="#000000">js_proxy_constructor</text>
</a>
</g>
</g>
<!-- Node123634&#45;&gt;Node124262 -->
<g id="edge29" class="edge">
<title>Node123634&#45;&gt;Node124262</title>
<path fill="none" stroke="#191970" d="M517.5391,-482.4288C529.5006,-547.601 570.3476,-752.7833 618,-797.5 623.5215,-802.6813 630.2064,-806.5222 637.3183,-809.3576"/>
<polygon fill="#191970" stroke="#191970" points="520.9255,-481.4865 515.7017,-472.269 514.0373,-482.7322 520.9255,-481.4865"/>
</g>
<!-- Node123824 -->
<g id="node25" class="node">
<title>Node123824</title>
<g id="a_node25"><a xlink:href="quickjs_8c.html#a37cac335cb6abd3c24e162ad57f418f1" target="_top" xlink:title="js_create_resolving\l_functions">
<polygon fill="none" stroke="#ff0000" points="641,-719.5 641,-749.5 752,-749.5 752,-719.5 641,-719.5"/>
<text text-anchor="start" x="649" y="-737.5" font-family="Helvetica,sans-Serif" font-size="10.00" fill="#000000">js_create_resolving</text>
<text text-anchor="middle" x="696.5" y="-726.5" font-family="Helvetica,sans-Serif" font-size="10.00" fill="#000000">_functions</text>
</a>
</g>
</g>
<!-- Node123634&#45;&gt;Node123824 -->
<g id="edge30" class="edge">
<title>Node123634&#45;&gt;Node123824</title>
<path fill="none" stroke="#191970" d="M516.6336,-482.1521C523.8971,-528.599 548.5031,-646.0055 618,-709.5 624.5468,-715.4814 632.5269,-720.0319 640.8621,-723.4938"/>
<polygon fill="#191970" stroke="#191970" points="520.0856,-481.5685 515.1751,-472.1803 513.1592,-482.5816 520.0856,-481.5685"/>
</g>
<!-- Node124253&#45;&gt;Node123899 -->
<g id="edge6" class="edge">
<title>Node124253&#45;&gt;Node123899</title>
<path fill="none" stroke="#191970" d="M754.7003,-790.1095C781.7938,-795.514 813.625,-801.8635 839.2745,-806.9799"/>
<polygon fill="#191970" stroke="#191970" points="755.0627,-786.6129 744.5712,-788.089 753.6933,-793.4777 755.0627,-786.6129"/>
</g>
<!-- Node124253&#45;&gt;Node123813 -->
<g id="edge7" class="edge">
<title>Node124253&#45;&gt;Node123813</title>
<path fill="none" stroke="#191970" d="M761.1719,-766.7005C766.0243,-764.6695 770.6984,-762.2894 775,-759.5 830.5125,-723.5027 869.7547,-650.2784 882.5189,-624.0848"/>
<polygon fill="#191970" stroke="#191970" points="759.8506,-763.4571 751.6714,-770.1915 762.265,-770.0276 759.8506,-763.4571"/>
</g>
<!-- Node124253&#45;&gt;Node123682 -->
<g id="edge8" class="edge">
<title>Node124253&#45;&gt;Node123682</title>
<path fill="none" stroke="#191970" d="M761.2358,-769.4276C766.3184,-766.8281 771.0153,-763.5708 775,-759.5 827.2001,-706.1714 770.6242,-658.2581 811,-595.5 824.8316,-574.0008 849.775,-557.64 867.304,-548.0768"/>
<polygon fill="#191970" stroke="#191970" points="759.5962,-766.3204 751.7407,-773.4297 762.3151,-772.7708 759.5962,-766.3204"/>
</g>
<!-- Node124256&#45;&gt;Node123813 -->
<g id="edge10" class="edge">
<title>Node124256&#45;&gt;Node123813</title>
<path fill="none" stroke="#191970" d="M748.5564,-549.2869C757.4857,-551.65 766.591,-554.3912 775,-557.5 810.812,-570.7398 849.9999,-592.5144 871.2133,-604.9682"/>
<polygon fill="#191970" stroke="#191970" points="749.1482,-545.8267 738.5964,-546.7799 747.4396,-552.615 749.1482,-545.8267"/>
</g>
<!-- Node124256&#45;&gt;Node123682 -->
<g id="edge11" class="edge">
<title>Node124256&#45;&gt;Node123682</title>
<path fill="none" stroke="#191970" d="M748.9924,-538.5C768.5288,-538.5 791.0936,-538.5 812.2433,-538.5"/>
<polygon fill="#191970" stroke="#191970" points="748.7782,-535.0001 738.7781,-538.5 748.7781,-542.0001 748.7782,-535.0001"/>
</g>
<!-- Node123801&#45;&gt;Node123813 -->
<g id="edge13" class="edge">
<title>Node123801&#45;&gt;Node123813</title>
<path fill="none" stroke="#191970" d="M754.7003,-588.1095C781.7938,-593.514 813.625,-599.8635 839.2745,-604.9799"/>
<polygon fill="#191970" stroke="#191970" points="755.0627,-584.6129 744.5712,-586.089 753.6933,-591.4777 755.0627,-584.6129"/>
</g>
<!-- Node123801&#45;&gt;Node123682 -->
<g id="edge14" class="edge">
<title>Node123801&#45;&gt;Node123682</title>
<path fill="none" stroke="#191970" d="M754.7003,-564.8905C781.7938,-559.486 813.625,-553.1365 839.2745,-548.0201"/>
<polygon fill="#191970" stroke="#191970" points="753.6933,-561.5223 744.5712,-566.911 755.0627,-568.3871 753.6933,-561.5223"/>
</g>
<!-- Node123681&#45;&gt;Node123682 -->
<g id="edge27" class="edge">
<title>Node123681&#45;&gt;Node123682</title>
<path fill="none" stroke="#191970" d="M754.7003,-512.1095C781.7938,-517.514 813.625,-523.8635 839.2745,-528.9799"/>
<polygon fill="#191970" stroke="#191970" points="755.0627,-508.6129 744.5712,-510.089 753.6933,-515.4777 755.0627,-508.6129"/>
</g>
<!-- Node124263&#45;&gt;Node123813 -->
<g id="edge36" class="edge">
<title>Node124263&#45;&gt;Node123813</title>
<path fill="none" stroke="#191970" d="M202.9192,-518.0738C252.7667,-577.25 425.3403,-769.2496 618,-835.5 683.9854,-858.1906 715.5444,-872.0235 775,-835.5 815.5909,-810.5651 869.7871,-663.3319 883.6575,-624.1008"/>
<polygon fill="#191970" stroke="#191970" points="205.3181,-515.4855 196.2266,-510.0454 199.9413,-519.9677 205.3181,-515.4855"/>
</g>
<!-- Node124264 -->
<g id="node27" class="node">
<title>Node124264</title>
<g id="a_node27"><a xlink:href="quickjs_8c.html#ad6926e49955be5e10423f6df8d8cff3e" target="_top" xlink:title="js_new_shape">
<polygon fill="none" stroke="#000000" points="297.5,-491 297.5,-510 382.5,-510 382.5,-491 297.5,-491"/>
<text text-anchor="middle" x="340" y="-498" font-family="Helvetica,sans-Serif" font-size="10.00" fill="#000000">js_new_shape</text>
</a>
</g>
</g>
<!-- Node124263&#45;&gt;Node124264 -->
<g id="edge34" class="edge">
<title>Node124263&#45;&gt;Node124264</title>
<path fill="none" stroke="#191970" d="M244.4621,-500.5C261.9593,-500.5 280.9712,-500.5 297.3941,-500.5"/>
<polygon fill="#191970" stroke="#191970" points="244.3662,-497.0001 234.3661,-500.5 244.3661,-504.0001 244.3662,-497.0001"/>
</g>
<!-- Node124264&#45;&gt;Node123634 -->
<g id="edge35" class="edge">
<title>Node124264&#45;&gt;Node123634</title>
<path fill="none" stroke="#191970" d="M392.559,-489.0216C417.4186,-483.5925 446.7522,-477.1863 470.3617,-472.0302"/>
<polygon fill="#191970" stroke="#191970" points="391.5881,-485.6511 382.5652,-491.2042 393.0817,-492.4899 391.5881,-485.6511"/>
</g>
</g>
</svg>
        <g id="navigator" transform="translate(0 0)" fill="#404254">
                <rect fill="#f2f5e9" fill-opacity="0.5" stroke="#606060" stroke-width=".5" x="0" y="0" width="60" height="60"/>
                <use id="zoomplus" xlink:href="#zoomPlus" x="17" y="9" onmousedown="handleZoom(evt,'in')"/>
                <use id="zoomminus" xlink:href="#zoomMin" x="42" y="9" onmousedown="handleZoom(evt,'out')"/>
                <use id="reset" xlink:href="#resetDef" x="30" y="36" onmousedown="handleReset()"/>
                <g id="arrowUp" xlink:href="#dirArrow" transform="translate(30 24)" onmousedown="handlePan(0,-1)">
                  <use xlink:href="#rim" fill="#404040">
                        <set attributeName="fill" to="#808080" begin="arrowUp.mouseover" end="arrowUp.mouseout"/>
                  </use>
                  <path fill="none" stroke="white" stroke-width="1.5" d="M0,-3.0v7 M-2.5,-0.5L0,-3.0L2.5,-0.5"/>
                </g>
                <g id="arrowRight" xlink:href="#dirArrow" transform="rotate(90) translate(36 -43)" onmousedown="handlePan(1,0)">
                  <use xlink:href="#rim" fill="#404040">
                        <set attributeName="fill" to="#808080" begin="arrowRight.mouseover" end="arrowRight.mouseout"/>
                  </use>
                  <path fill="none" stroke="white" stroke-width="1.5" d="M0,-3.0v7 M-2.5,-0.5L0,-3.0L2.5,-0.5"/>
                </g>
                <g id="arrowDown" xlink:href="#dirArrow" transform="rotate(180) translate(-30 -48)" onmousedown="handlePan(0,1)">
                  <use xlink:href="#rim" fill="#404040">
                        <set attributeName="fill" to="#808080" begin="arrowDown.mouseover" end="arrowDown.mouseout"/>
                  </use>
                  <path fill="none" stroke="white" stroke-width="1.5" d="M0,-3.0v7 M-2.5,-0.5L0,-3.0L2.5,-0.5"/>
                </g>
                <g id="arrowLeft" xlink:href="#dirArrow" transform="rotate(270) translate(-36 17)" onmousedown="handlePan(-1,0)">
                  <use xlink:href="#rim" fill="#404040">
                        <set attributeName="fill" to="#808080" begin="arrowLeft.mouseover" end="arrowLeft.mouseout"/>
                  </use>
                  <path fill="none" stroke="white" stroke-width="1.5" d="M0,-3.0v7 M-2.5,-0.5L0,-3.0L2.5,-0.5"/>
                </g>
        </g>
        <svg viewBox="0 0 15 15" width="100%" height="30px" preserveAspectRatio="xMaxYMin meet">
         <g id="arrow_out" transform="scale(0.3 0.3)">
          <a xlink:href="quickjs_8c_afeaafcef811076df11d1552bcc7f6a2a_icgraph_org.svg" target="_base">
           <rect id="button" ry="5" rx="5" y="6" x="6" height="38" width="38"
                fill="#f2f5e9" fill-opacity="0.5" stroke="#606060" stroke-width="1.0"/>
           <path id="arrow"
             d="M 11.500037,31.436501 C 11.940474,20.09759 22.043105,11.32322 32.158766,21.979434 L 37.068811,17.246167 C 37.068811,17.246167 37.088388,32 37.088388,32 L 22.160133,31.978069 C 22.160133,31.978069 26.997745,27.140456 26.997745,27.140456 C 18.528582,18.264221 13.291696,25.230495 11.500037,31.436501 z"
             style="fill:#404040;"/>
          </a>
         </g>
        </svg>
</svg>
