<?xml version="1.0" encoding="UTF-8" standalone="no"?>
<!DOCTYPE svg PUBLIC "-//W3C//DTD SVG 1.1//EN"
 "http://www.w3.org/Graphics/SVG/1.1/DTD/svg11.dtd">
<!-- Generated by graphviz version 2.40.1 (20161225.0304)
 -->
<!-- Title: js_std_setenv Pages: 1 -->
<!--zoomable 218 -->
<svg id="main" version="1.1" xmlns="http://www.w3.org/2000/svg" xmlns:xlink="http://www.w3.org/1999/xlink" xml:space="preserve" onload="init(evt)">
<style type="text/css"><![CDATA[
.edge:hover path { stroke: red; }
.edge:hover polygon { stroke: red; fill: red; }
]]></style>
<script type="text/javascript"><![CDATA[
var edges = document.getElementsByTagName('g');
if (edges && edges.length) {
  for (var i=0;i<edges.length;i++) {
    if (edges[i].id.substr(0,4)=='edge') {
      edges[i].setAttribute('class','edge');
    }
  }
}
]]></script>
        <defs>
                <circle id="rim" cx="0" cy="0" r="7"/>
                <circle id="rim2" cx="0" cy="0" r="3.5"/>
                <g id="zoomPlus">
                        <use xlink:href="#rim" fill="#404040">
                                <set attributeName="fill" to="#808080" begin="zoomplus.mouseover" end="zoomplus.mouseout"/>
                        </use>
                        <path d="M-4,0h8M0,-4v8" fill="none" stroke="white" stroke-width="1.5" pointer-events="none"/>
                </g>
                <g id="zoomMin">
                        <use xlink:href="#rim" fill="#404040">
                                <set attributeName="fill" to="#808080" begin="zoomminus.mouseover" end="zoomminus.mouseout"/>
                        </use>
                        <path d="M-4,0h8" fill="none" stroke="white" stroke-width="1.5" pointer-events="none"/>
                </g>
                <g id="dirArrow">
                        <path fill="none" stroke="white" stroke-width="1.5" d="M0,-3.0v7 M-2.5,-0.5L0,-3.0L2.5,-0.5"/>
                </g>
               <g id="resetDef">
                       <use xlink:href="#rim2" fill="#404040">
                               <set attributeName="fill" to="#808080" begin="reset.mouseover" end="reset.mouseout"/>
                       </use>
               </g>
        </defs>

<script type="text/javascript">
var viewWidth = 596;
var viewHeight = 218;
var sectionId = 'dynsection-19';
</script>
<script xlink:href="svgpan.js"/>
<svg id="graph" class="graph">
<g id="viewport">
<title>js_std_setenv</title>
<!-- Node3143 -->
<g id="node1" class="node">
<title>Node3143</title>
<polygon fill="#bfbfbf" stroke="#000000" points="0,-152.5 0,-171.5 83,-171.5 83,-152.5 0,-152.5"/>
<text text-anchor="middle" x="41.5" y="-159.5" font-family="Helvetica,sans-Serif" font-size="10.00" fill="#000000">js_std_setenv</text>
</g>
<!-- Node3144 -->
<g id="node2" class="node">
<title>Node3144</title>
<g id="a_node2"><a xlink:href="quickjs_8c.html#ae0bc4f65da64810facb2cb9e476eda2e" target="_top" xlink:title="JS_FreeCString">
<polygon fill="none" stroke="#000000" points="239,-185.5 239,-204.5 325,-204.5 325,-185.5 239,-185.5"/>
<text text-anchor="middle" x="282" y="-192.5" font-family="Helvetica,sans-Serif" font-size="10.00" fill="#000000">JS_FreeCString</text>
</a>
</g>
</g>
<!-- Node3143&#45;&gt;Node3144 -->
<g id="edge1" class="edge">
<title>Node3143&#45;&gt;Node3144</title>
<path fill="none" stroke="#191970" d="M83.1173,-167.7105C123.5287,-173.2555 185.0384,-181.6955 228.9452,-187.7201"/>
<polygon fill="#191970" stroke="#191970" points="228.4838,-191.1895 238.8668,-189.0815 229.4354,-184.2545 228.4838,-191.1895"/>
</g>
<!-- Node3183 -->
<g id="node5" class="node">
<title>Node3183</title>
<g id="a_node5"><a xlink:href="quickjs_8h.html#af931f06630ab719b5f82a16eb27effd1" target="_top" xlink:title="JS_ToCString">
<polygon fill="none" stroke="#000000" points="119,-133.5 119,-152.5 196,-152.5 196,-133.5 119,-133.5"/>
<text text-anchor="middle" x="157.5" y="-140.5" font-family="Helvetica,sans-Serif" font-size="10.00" fill="#000000">JS_ToCString</text>
</a>
</g>
</g>
<!-- Node3143&#45;&gt;Node3183 -->
<g id="edge4" class="edge">
<title>Node3143&#45;&gt;Node3183</title>
<path fill="none" stroke="#191970" d="M83.051,-155.1942C91.4616,-153.8166 100.3754,-152.3566 109.0009,-150.9438"/>
<polygon fill="#191970" stroke="#191970" points="109.644,-154.3852 118.9467,-149.3148 108.5124,-147.4773 109.644,-154.3852"/>
</g>
<!-- Node3145 -->
<g id="node3" class="node">
<title>Node3145</title>
<g id="a_node3"><a xlink:href="quickjs_8h.html#afaa20c47565bc704c6c85f3d77254e7d" target="_top" xlink:title="JS_FreeValue">
<polygon fill="none" stroke="#000000" points="376.5,-190.5 376.5,-209.5 454.5,-209.5 454.5,-190.5 376.5,-190.5"/>
<text text-anchor="middle" x="415.5" y="-197.5" font-family="Helvetica,sans-Serif" font-size="10.00" fill="#000000">JS_FreeValue</text>
</a>
</g>
</g>
<!-- Node3144&#45;&gt;Node3145 -->
<g id="edge2" class="edge">
<title>Node3144&#45;&gt;Node3145</title>
<path fill="none" stroke="#191970" d="M325.3436,-196.6234C338.4484,-197.1142 352.9313,-197.6566 366.3846,-198.1605"/>
<polygon fill="#191970" stroke="#191970" points="366.3079,-201.66 376.4319,-198.5368 366.57,-194.6649 366.3079,-201.66"/>
</g>
<!-- Node3146 -->
<g id="node4" class="node">
<title>Node3146</title>
<g id="a_node4"><a xlink:href="quickjs_8c.html#aa059f309c30fd5166d16c82a97973146" target="_top" xlink:title="__JS_FreeValue">
<polygon fill="none" stroke="#ff0000" points="499,-190.5 499,-209.5 588,-209.5 588,-190.5 499,-190.5"/>
<text text-anchor="middle" x="543.5" y="-197.5" font-family="Helvetica,sans-Serif" font-size="10.00" fill="#000000">__JS_FreeValue</text>
</a>
</g>
</g>
<!-- Node3145&#45;&gt;Node3146 -->
<g id="edge3" class="edge">
<title>Node3145&#45;&gt;Node3146</title>
<path fill="none" stroke="#191970" d="M454.5997,-200C465.2947,-200 477.0887,-200 488.4939,-200"/>
<polygon fill="#191970" stroke="#191970" points="488.8161,-203.5001 498.8161,-200 488.816,-196.5001 488.8161,-203.5001"/>
</g>
<!-- Node3184 -->
<g id="node6" class="node">
<title>Node3184</title>
<g id="a_node6"><a xlink:href="quickjs_8c.html#af49e67b73f845dc1f9c3ee648dd9f95c" target="_top" xlink:title="JS_ToCStringLen2">
<polygon fill="none" stroke="#000000" points="232,-114.5 232,-133.5 332,-133.5 332,-114.5 232,-114.5"/>
<text text-anchor="middle" x="282" y="-121.5" font-family="Helvetica,sans-Serif" font-size="10.00" fill="#000000">JS_ToCStringLen2</text>
</a>
</g>
</g>
<!-- Node3183&#45;&gt;Node3184 -->
<g id="edge5" class="edge">
<title>Node3183&#45;&gt;Node3184</title>
<path fill="none" stroke="#191970" d="M196.2101,-137.0924C204.3164,-135.8553 213.0472,-134.5229 221.7267,-133.1983"/>
<polygon fill="#191970" stroke="#191970" points="222.4941,-136.6218 231.8516,-131.6532 221.438,-129.7019 222.4941,-136.6218"/>
</g>
<!-- Node3184&#45;&gt;Node3145 -->
<g id="edge11" class="edge">
<title>Node3184&#45;&gt;Node3145</title>
<path fill="none" stroke="#191970" d="M294.6037,-133.5521C310.9294,-145.6384 340.5554,-166.6104 368,-181 371.7167,-182.9487 375.6796,-184.8254 379.6712,-186.5902"/>
<polygon fill="#191970" stroke="#191970" points="378.3597,-189.8355 388.9345,-190.4862 381.0736,-183.383 378.3597,-189.8355"/>
</g>
<!-- Node3185 -->
<g id="node7" class="node">
<title>Node3185</title>
<g id="a_node7"><a xlink:href="quickjs_8c.html#a7bcb8e1a20cbc8374a5f9ba4a2088cec" target="_top" xlink:title="JS_ToString">
<polygon fill="none" stroke="#ff0000" points="380.5,-152.5 380.5,-171.5 450.5,-171.5 450.5,-152.5 380.5,-152.5"/>
<text text-anchor="middle" x="415.5" y="-159.5" font-family="Helvetica,sans-Serif" font-size="10.00" fill="#000000">JS_ToString</text>
</a>
</g>
</g>
<!-- Node3184&#45;&gt;Node3185 -->
<g id="edge6" class="edge">
<title>Node3184&#45;&gt;Node3185</title>
<path fill="none" stroke="#191970" d="M315.6877,-133.589C332.7632,-138.4494 353.7004,-144.4091 371.9816,-149.6127"/>
<polygon fill="#191970" stroke="#191970" points="371.2469,-153.0426 381.8231,-152.4141 373.1634,-146.31 371.2469,-153.0426"/>
</g>
<!-- Node3272 -->
<g id="node8" class="node">
<title>Node3272</title>
<g id="a_node8"><a xlink:href="quickjs_8h.html#ad80a83d73e9b7d872b88fbf2943aebe9" target="_top" xlink:title="JS_IsException">
<polygon fill="none" stroke="#000000" points="372,-114.5 372,-133.5 459,-133.5 459,-114.5 372,-114.5"/>
<text text-anchor="middle" x="415.5" y="-121.5" font-family="Helvetica,sans-Serif" font-size="10.00" fill="#000000">JS_IsException</text>
</a>
</g>
</g>
<!-- Node3184&#45;&gt;Node3272 -->
<g id="edge7" class="edge">
<title>Node3184&#45;&gt;Node3272</title>
<path fill="none" stroke="#191970" d="M332.0903,-124C341.7548,-124 351.9171,-124 361.6941,-124"/>
<polygon fill="#191970" stroke="#191970" points="361.7063,-127.5001 371.7062,-124 361.7062,-120.5001 361.7063,-127.5001"/>
</g>
<!-- Node3187 -->
<g id="node9" class="node">
<title>Node3187</title>
<g id="a_node9"><a xlink:href="quickjs_8h.html#a775522f2d084fc8fa0fcb33f390006b4" target="_top" xlink:title="JS_DupValue">
<polygon fill="none" stroke="#000000" points="377,-76.5 377,-95.5 454,-95.5 454,-76.5 377,-76.5"/>
<text text-anchor="middle" x="415.5" y="-83.5" font-family="Helvetica,sans-Serif" font-size="10.00" fill="#000000">JS_DupValue</text>
</a>
</g>
</g>
<!-- Node3184&#45;&gt;Node3187 -->
<g id="edge8" class="edge">
<title>Node3184&#45;&gt;Node3187</title>
<path fill="none" stroke="#191970" d="M315.6877,-114.411C332.7632,-109.5506 353.7004,-103.5909 371.9816,-98.3873"/>
<polygon fill="#191970" stroke="#191970" points="373.1634,-101.69 381.8231,-95.5859 371.2469,-94.9574 373.1634,-101.69"/>
</g>
<!-- Node3196 -->
<g id="node10" class="node">
<title>Node3196</title>
<g id="a_node10"><a xlink:href="quickjs_8c.html#ad303a9bc56766627b5fca41574933930" target="_top" xlink:title="js_alloc_string">
<polygon fill="none" stroke="#ff0000" points="372.5,-38.5 372.5,-57.5 458.5,-57.5 458.5,-38.5 372.5,-38.5"/>
<text text-anchor="middle" x="415.5" y="-45.5" font-family="Helvetica,sans-Serif" font-size="10.00" fill="#000000">js_alloc_string</text>
</a>
</g>
</g>
<!-- Node3184&#45;&gt;Node3196 -->
<g id="edge9" class="edge">
<title>Node3184&#45;&gt;Node3196</title>
<path fill="none" stroke="#191970" d="M294.6037,-114.4479C310.9294,-102.3616 340.5554,-81.3896 368,-67 371.7167,-65.0513 375.6796,-63.1746 379.6712,-61.4098"/>
<polygon fill="#191970" stroke="#191970" points="381.0736,-64.617 388.9345,-57.5138 378.3597,-58.1645 381.0736,-64.617"/>
</g>
<!-- Node3375 -->
<g id="node11" class="node">
<title>Node3375</title>
<g id="a_node11"><a xlink:href="cutils_8h.html#aad4e0decb15ab19e9f45b0ee69542a28" target="_top" xlink:title="unicode_to_utf8">
<polygon fill="none" stroke="#000000" points="368,-.5 368,-19.5 463,-19.5 463,-.5 368,-.5"/>
<text text-anchor="middle" x="415.5" y="-7.5" font-family="Helvetica,sans-Serif" font-size="10.00" fill="#000000">unicode_to_utf8</text>
</a>
</g>
</g>
<!-- Node3184&#45;&gt;Node3375 -->
<g id="edge10" class="edge">
<title>Node3184&#45;&gt;Node3375</title>
<path fill="none" stroke="#191970" d="M288.4551,-114.3194C301.4504,-95.4948 332.5697,-53.6467 368,-29 370.5428,-27.2311 373.2743,-25.5916 376.0959,-24.079"/>
<polygon fill="#191970" stroke="#191970" points="377.785,-27.1509 385.2944,-19.677 374.7632,-20.8367 377.785,-27.1509"/>
</g>
</g>
</svg>
        <g id="navigator" transform="translate(0 0)" fill="#404254">
                <rect fill="#f2f5e9" fill-opacity="0.5" stroke="#606060" stroke-width=".5" x="0" y="0" width="60" height="60"/>
                <use id="zoomplus" xlink:href="#zoomPlus" x="17" y="9" onmousedown="handleZoom(evt,'in')"/>
                <use id="zoomminus" xlink:href="#zoomMin" x="42" y="9" onmousedown="handleZoom(evt,'out')"/>
                <use id="reset" xlink:href="#resetDef" x="30" y="36" onmousedown="handleReset()"/>
                <g id="arrowUp" xlink:href="#dirArrow" transform="translate(30 24)" onmousedown="handlePan(0,-1)">
                  <use xlink:href="#rim" fill="#404040">
                        <set attributeName="fill" to="#808080" begin="arrowUp.mouseover" end="arrowUp.mouseout"/>
                  </use>
                  <path fill="none" stroke="white" stroke-width="1.5" d="M0,-3.0v7 M-2.5,-0.5L0,-3.0L2.5,-0.5"/>
                </g>
                <g id="arrowRight" xlink:href="#dirArrow" transform="rotate(90) translate(36 -43)" onmousedown="handlePan(1,0)">
                  <use xlink:href="#rim" fill="#404040">
                        <set attributeName="fill" to="#808080" begin="arrowRight.mouseover" end="arrowRight.mouseout"/>
                  </use>
                  <path fill="none" stroke="white" stroke-width="1.5" d="M0,-3.0v7 M-2.5,-0.5L0,-3.0L2.5,-0.5"/>
                </g>
                <g id="arrowDown" xlink:href="#dirArrow" transform="rotate(180) translate(-30 -48)" onmousedown="handlePan(0,1)">
                  <use xlink:href="#rim" fill="#404040">
                        <set attributeName="fill" to="#808080" begin="arrowDown.mouseover" end="arrowDown.mouseout"/>
                  </use>
                  <path fill="none" stroke="white" stroke-width="1.5" d="M0,-3.0v7 M-2.5,-0.5L0,-3.0L2.5,-0.5"/>
                </g>
                <g id="arrowLeft" xlink:href="#dirArrow" transform="rotate(270) translate(-36 17)" onmousedown="handlePan(-1,0)">
                  <use xlink:href="#rim" fill="#404040">
                        <set attributeName="fill" to="#808080" begin="arrowLeft.mouseover" end="arrowLeft.mouseout"/>
                  </use>
                  <path fill="none" stroke="white" stroke-width="1.5" d="M0,-3.0v7 M-2.5,-0.5L0,-3.0L2.5,-0.5"/>
                </g>
        </g>
        <svg viewBox="0 0 15 15" width="100%" height="30px" preserveAspectRatio="xMaxYMin meet">
         <g id="arrow_out" transform="scale(0.3 0.3)">
          <a xlink:href="quickjs-libc_8c_ac7a6ac1e9ba97d8ad852198d49760a0b_cgraph_org.svg" target="_base">
           <rect id="button" ry="5" rx="5" y="6" x="6" height="38" width="38"
                fill="#f2f5e9" fill-opacity="0.5" stroke="#606060" stroke-width="1.0"/>
           <path id="arrow"
             d="M 11.500037,31.436501 C 11.940474,20.09759 22.043105,11.32322 32.158766,21.979434 L 37.068811,17.246167 C 37.068811,17.246167 37.088388,32 37.088388,32 L 22.160133,31.978069 C 22.160133,31.978069 26.997745,27.140456 26.997745,27.140456 C 18.528582,18.264221 13.291696,25.230495 11.500037,31.436501 z"
             style="fill:#404040;"/>
          </a>
         </g>
        </svg>
</svg>
