<?xml version="1.0" encoding="UTF-8" standalone="no"?>
<!DOCTYPE svg PUBLIC "-//W3C//DTD SVG 1.1//EN"
 "http://www.w3.org/Graphics/SVG/1.1/DTD/svg11.dtd">
<!-- Generated by graphviz version 2.40.1 (20161225.0304)
 -->
<!-- Title: emit_u32 Pages: 1 -->
<svg width="397pt" height="28pt"
 viewBox="0.00 0.00 397.00 28.00" xmlns="http://www.w3.org/2000/svg" xmlns:xlink="http://www.w3.org/1999/xlink">
<g id="graph0" class="graph" transform="scale(1 1) rotate(0) translate(4 24)">
<title>emit_u32</title>
<!-- Node312471 -->
<g id="node1" class="node">
<title>Node312471</title>
<polygon fill="#bfbfbf" stroke="#000000" points="0,-.5 0,-19.5 62,-19.5 62,-.5 0,-.5"/>
<text text-anchor="middle" x="31" y="-7.5" font-family="Helvetica,sans-Serif" font-size="10.00" fill="#000000">emit_u32</text>
</g>
<!-- Node312472 -->
<g id="node2" class="node">
<title>Node312472</title>
<g id="a_node2"><a xlink:href="cutils_8h.html#a8ba08f82c43549fcb3c939229498354d" target="_top" xlink:title="dbuf_put_u32">
<polygon fill="none" stroke="#000000" points="98,-.5 98,-19.5 181,-19.5 181,-.5 98,-.5"/>
<text text-anchor="middle" x="139.5" y="-7.5" font-family="Helvetica,sans-Serif" font-size="10.00" fill="#000000">dbuf_put_u32</text>
</a>
</g>
</g>
<!-- Node312471&#45;&gt;Node312472 -->
<g id="edge1" class="edge">
<title>Node312471&#45;&gt;Node312472</title>
<path fill="none" stroke="#191970" d="M62.0917,-10C70.1032,-10 78.9442,-10 87.6999,-10"/>
<polygon fill="#191970" stroke="#191970" points="87.8844,-13.5001 97.8844,-10 87.8844,-6.5001 87.8844,-13.5001"/>
</g>
<!-- Node312473 -->
<g id="node3" class="node">
<title>Node312473</title>
<g id="a_node3"><a xlink:href="cutils_8h.html#ad1cfaae47347ae771136b5a9bbda49aa" target="_top" xlink:title="dbuf_put">
<polygon fill="none" stroke="#000000" points="217,-.5 217,-19.5 276,-19.5 276,-.5 217,-.5"/>
<text text-anchor="middle" x="246.5" y="-7.5" font-family="Helvetica,sans-Serif" font-size="10.00" fill="#000000">dbuf_put</text>
</a>
</g>
</g>
<!-- Node312472&#45;&gt;Node312473 -->
<g id="edge2" class="edge">
<title>Node312472&#45;&gt;Node312473</title>
<path fill="none" stroke="#191970" d="M181.1754,-10C189.5097,-10 198.247,-10 206.5223,-10"/>
<polygon fill="#191970" stroke="#191970" points="206.6923,-13.5001 216.6923,-10 206.6923,-6.5001 206.6923,-13.5001"/>
</g>
<!-- Node312474 -->
<g id="node4" class="node">
<title>Node312474</title>
<g id="a_node4"><a xlink:href="cutils_8h.html#ac0b9ce26415947e972d6781d9f2fb11b" target="_top" xlink:title="dbuf_realloc">
<polygon fill="none" stroke="#000000" points="312,-.5 312,-19.5 389,-19.5 389,-.5 312,-.5"/>
<text text-anchor="middle" x="350.5" y="-7.5" font-family="Helvetica,sans-Serif" font-size="10.00" fill="#000000">dbuf_realloc</text>
</a>
</g>
</g>
<!-- Node312473&#45;&gt;Node312474 -->
<g id="edge3" class="edge">
<title>Node312473&#45;&gt;Node312474</title>
<path fill="none" stroke="#191970" d="M276.024,-10C284.0523,-10 292.9657,-10 301.7546,-10"/>
<polygon fill="#191970" stroke="#191970" points="301.9544,-13.5001 311.9543,-10 301.9543,-6.5001 301.9544,-13.5001"/>
</g>
</g>
</svg>
