<?xml version="1.0" encoding="UTF-8" standalone="no"?>
<!DOCTYPE svg PUBLIC "-//W3C//DTD SVG 1.1//EN"
 "http://www.w3.org/Graphics/SVG/1.1/DTD/svg11.dtd">
<!-- Generated by graphviz version 2.40.1 (20161225.0304)
 -->
<!-- Title: token_is_ident Pages: 1 -->
<svg width="615pt" height="160pt"
 viewBox="0.00 0.00 615.00 160.00" xmlns="http://www.w3.org/2000/svg" xmlns:xlink="http://www.w3.org/1999/xlink">
<g id="graph0" class="graph" transform="scale(1 1) rotate(0) translate(4 156)">
<title>token_is_ident</title>
<!-- Node318406 -->
<g id="node1" class="node">
<title>Node318406</title>
<polygon fill="#bfbfbf" stroke="#000000" points="0,-66.5 0,-85.5 88,-85.5 88,-66.5 0,-66.5"/>
<text text-anchor="middle" x="44" y="-73.5" font-family="Helvetica,sans-Serif" font-size="10.00" fill="#000000">token_is_ident</text>
</g>
<!-- Node318407 -->
<g id="node2" class="node">
<title>Node318407</title>
<g id="a_node2"><a xlink:href="quickjs_8c.html#a498e1d5c7de1b59c1630e9847cde1e41" target="_top" xlink:title="js_parse_export">
<polygon fill="none" stroke="#000000" points="145.5,-94.5 145.5,-113.5 239.5,-113.5 239.5,-94.5 145.5,-94.5"/>
<text text-anchor="middle" x="192.5" y="-101.5" font-family="Helvetica,sans-Serif" font-size="10.00" fill="#000000">js_parse_export</text>
</a>
</g>
</g>
<!-- Node318406&#45;&gt;Node318407 -->
<g id="edge1" class="edge">
<title>Node318406&#45;&gt;Node318407</title>
<path fill="none" stroke="#191970" d="M98.1222,-86.2049C113.618,-89.1266 130.3789,-92.2869 145.4157,-95.1221"/>
<polygon fill="#191970" stroke="#191970" points="98.6282,-82.7387 88.1528,-84.3251 97.3311,-89.6175 98.6282,-82.7387"/>
</g>
<!-- Node318443 -->
<g id="node6" class="node">
<title>Node318443</title>
<g id="a_node6"><a xlink:href="quickjs_8c.html#aa24f7964f6d938a05c3c3c03af5a01e9" target="_top" xlink:title="js_parse_import">
<polygon fill="none" stroke="#000000" points="145,-132.5 145,-151.5 240,-151.5 240,-132.5 145,-132.5"/>
<text text-anchor="middle" x="192.5" y="-139.5" font-family="Helvetica,sans-Serif" font-size="10.00" fill="#000000">js_parse_import</text>
</a>
</g>
</g>
<!-- Node318406&#45;&gt;Node318443 -->
<g id="edge6" class="edge">
<title>Node318406&#45;&gt;Node318443</title>
<path fill="none" stroke="#191970" d="M66.3002,-91.2381C81.9067,-101.3587 103.5431,-114.3299 124,-123 132.6358,-126.6601 142.1814,-129.8215 151.3354,-132.4579"/>
<polygon fill="#191970" stroke="#191970" points="68.1354,-88.2557 57.8627,-85.6627 64.2762,-94.0958 68.1354,-88.2557"/>
</g>
<!-- Node318411 -->
<g id="node7" class="node">
<title>Node318411</title>
<g id="a_node7"><a xlink:href="quickjs_8c.html#a840642c87c5a82d4cc68333376a3b6de" target="_top" xlink:title="js_parse_postfix_expr">
<polygon fill="none" stroke="#ff0000" points="131.5,-38.5 131.5,-57.5 253.5,-57.5 253.5,-38.5 131.5,-38.5"/>
<text text-anchor="middle" x="192.5" y="-45.5" font-family="Helvetica,sans-Serif" font-size="10.00" fill="#000000">js_parse_postfix_expr</text>
</a>
</g>
</g>
<!-- Node318406&#45;&gt;Node318411 -->
<g id="edge8" class="edge">
<title>Node318406&#45;&gt;Node318411</title>
<path fill="none" stroke="#191970" d="M98.3258,-65.7567C112.6001,-63.0653 127.9352,-60.1738 141.9996,-57.522"/>
<polygon fill="#191970" stroke="#191970" points="97.3311,-62.3825 88.1528,-67.6749 98.6282,-69.2613 97.3311,-62.3825"/>
</g>
<!-- Node318432 -->
<g id="node8" class="node">
<title>Node318432</title>
<g id="a_node8"><a xlink:href="quickjs_8c.html#a42234753f3193f37ce45b3c0ca4c25cd" target="_top" xlink:title="js_parse_property_name">
<polygon fill="none" stroke="#ff0000" points="124,-.5 124,-19.5 261,-19.5 261,-.5 124,-.5"/>
<text text-anchor="middle" x="192.5" y="-7.5" font-family="Helvetica,sans-Serif" font-size="10.00" fill="#000000">js_parse_property_name</text>
</a>
</g>
</g>
<!-- Node318406&#45;&gt;Node318432 -->
<g id="edge10" class="edge">
<title>Node318406&#45;&gt;Node318432</title>
<path fill="none" stroke="#191970" d="M66.3002,-60.7619C81.9067,-50.6413 103.5431,-37.6701 124,-29 132.6358,-25.3399 142.1814,-22.1785 151.3354,-19.5421"/>
<polygon fill="#191970" stroke="#191970" points="64.2762,-57.9042 57.8627,-66.3373 68.1354,-63.7443 64.2762,-57.9042"/>
</g>
<!-- Node318408 -->
<g id="node3" class="node">
<title>Node318408</title>
<g id="a_node3"><a xlink:href="quickjs_8c.html#ab59a3267a100decc9d2d81eb3297794a" target="_top" xlink:title="js_parse_source_element">
<polygon fill="none" stroke="#000000" points="297,-132.5 297,-151.5 437,-151.5 437,-132.5 297,-132.5"/>
<text text-anchor="middle" x="367" y="-139.5" font-family="Helvetica,sans-Serif" font-size="10.00" fill="#000000">js_parse_source_element</text>
</a>
</g>
</g>
<!-- Node318407&#45;&gt;Node318408 -->
<g id="edge2" class="edge">
<title>Node318407&#45;&gt;Node318408</title>
<path fill="none" stroke="#191970" d="M246.4691,-115.7526C271.1433,-121.1258 299.9948,-127.4086 323.2829,-132.4799"/>
<polygon fill="#191970" stroke="#191970" points="247.0495,-112.297 236.5337,-113.589 245.56,-119.1367 247.0495,-112.297"/>
</g>
<!-- Node318409 -->
<g id="node4" class="node">
<title>Node318409</title>
<g id="a_node4"><a xlink:href="quickjs_8c.html#acc9eb677cab8dfcf45f59381f8a19601" target="_top" xlink:title="js_parse_function_decl2">
<polygon fill="none" stroke="#ff0000" points="473,-94.5 473,-113.5 607,-113.5 607,-94.5 473,-94.5"/>
<text text-anchor="middle" x="540" y="-101.5" font-family="Helvetica,sans-Serif" font-size="10.00" fill="#000000">js_parse_function_decl2</text>
</a>
</g>
</g>
<!-- Node318408&#45;&gt;Node318409 -->
<g id="edge3" class="edge">
<title>Node318408&#45;&gt;Node318409</title>
<path fill="none" stroke="#191970" d="M420.5051,-130.2474C444.9673,-124.8742 473.5707,-118.5914 496.6587,-113.5201"/>
<polygon fill="#191970" stroke="#191970" points="419.6714,-126.847 410.6552,-132.411 421.1733,-133.684 419.6714,-126.847"/>
</g>
<!-- Node318436 -->
<g id="node5" class="node">
<title>Node318436</title>
<g id="a_node5"><a xlink:href="quickjs_8c.html#aec05caae64451720670d1a56040110b3" target="_top" xlink:title="js_parse_program">
<polygon fill="none" stroke="#ff0000" points="488,-132.5 488,-151.5 592,-151.5 592,-132.5 488,-132.5"/>
<text text-anchor="middle" x="540" y="-139.5" font-family="Helvetica,sans-Serif" font-size="10.00" fill="#000000">js_parse_program</text>
</a>
</g>
</g>
<!-- Node318408&#45;&gt;Node318436 -->
<g id="edge5" class="edge">
<title>Node318408&#45;&gt;Node318436</title>
<path fill="none" stroke="#191970" d="M447.7089,-142C461.3128,-142 475.1086,-142 487.7423,-142"/>
<polygon fill="#191970" stroke="#191970" points="447.3658,-138.5001 437.3657,-142 447.3657,-145.5001 447.3658,-138.5001"/>
</g>
<!-- Node318409&#45;&gt;Node318407 -->
<g id="edge4" class="edge">
<title>Node318409&#45;&gt;Node318407</title>
<path fill="none" stroke="#191970" d="M462.6355,-104C394.3486,-104 297.0049,-104 239.727,-104"/>
<polygon fill="#191970" stroke="#191970" points="462.9129,-107.5001 472.9129,-104 462.9128,-100.5001 462.9129,-107.5001"/>
</g>
<!-- Node318443&#45;&gt;Node318408 -->
<g id="edge7" class="edge">
<title>Node318443&#45;&gt;Node318408</title>
<path fill="none" stroke="#191970" d="M250.2605,-142C265.153,-142 281.3445,-142 296.7942,-142"/>
<polygon fill="#191970" stroke="#191970" points="250.1829,-138.5001 240.1829,-142 250.1829,-145.5001 250.1829,-138.5001"/>
</g>
<!-- Node318411&#45;&gt;Node318411 -->
<g id="edge9" class="edge">
<title>Node318411&#45;&gt;Node318411</title>
<path fill="none" stroke="#191970" d="M164.8742,-66.6539C166.0289,-71.9368 175.2375,-76 192.5,-76 218.8047,-76 226.4084,-66.5653 215.3111,-57.7571"/>
<polygon fill="#191970" stroke="#191970" points="168.0076,-68.2176 169.6889,-57.7571 161.8512,-64.886 168.0076,-68.2176"/>
</g>
</g>
</svg>
