<?xml version="1.0" encoding="UTF-8" standalone="no"?>
<!DOCTYPE svg PUBLIC "-//W3C//DTD SVG 1.1//EN"
 "http://www.w3.org/Graphics/SVG/1.1/DTD/svg11.dtd">
<!-- Generated by graphviz version 2.40.1 (20161225.0304)
 -->
<!-- Title: js_load_file Pages: 1 -->
<svg width="471pt" height="142pt"
 viewBox="0.00 0.00 471.00 142.00" xmlns="http://www.w3.org/2000/svg" xmlns:xlink="http://www.w3.org/1999/xlink">
<g id="graph0" class="graph" transform="scale(1 1) rotate(0) translate(4 138)">
<title>js_load_file</title>
<!-- Node470 -->
<g id="node1" class="node">
<title>Node470</title>
<polygon fill="#bfbfbf" stroke="#000000" points="0,-57.5 0,-76.5 71,-76.5 71,-57.5 0,-57.5"/>
<text text-anchor="middle" x="35.5" y="-64.5" font-family="Helvetica,sans-Serif" font-size="10.00" fill="#000000">js_load_file</text>
</g>
<!-- Node471 -->
<g id="node2" class="node">
<title>Node471</title>
<g id="a_node2"><a xlink:href="classqjs_1_1Context.html#a003bfbb1ead4106d2f1fad18cedbdad1" target="_top" xlink:title="qjs::Context::evalFile">
<polygon fill="none" stroke="#000000" points="231,-114.5 231,-133.5 350,-133.5 350,-114.5 231,-114.5"/>
<text text-anchor="middle" x="290.5" y="-121.5" font-family="Helvetica,sans-Serif" font-size="10.00" fill="#000000">qjs::Context::evalFile</text>
</a>
</g>
</g>
<!-- Node470&#45;&gt;Node471 -->
<g id="edge1" class="edge">
<title>Node470&#45;&gt;Node471</title>
<path fill="none" stroke="#191970" d="M73.398,-79.5107C84.1877,-82.8404 95.9987,-86.2671 107,-89 148.2327,-99.2428 195.3169,-108.1677 231.4669,-114.4413"/>
<polygon fill="#191970" stroke="#191970" points="74.4181,-76.1626 63.8287,-76.5027 72.319,-82.8404 74.4181,-76.1626"/>
</g>
<!-- Node473 -->
<g id="node4" class="node">
<title>Node473</title>
<g id="a_node4"><a xlink:href="quickjs-libc_8c.html#acedf696011fa506afce358928ffa1522" target="_top" xlink:title="js_loadScript">
<polygon fill="none" stroke="#000000" points="111.5,-38.5 111.5,-57.5 190.5,-57.5 190.5,-38.5 111.5,-38.5"/>
<text text-anchor="middle" x="151" y="-45.5" font-family="Helvetica,sans-Serif" font-size="10.00" fill="#000000">js_loadScript</text>
</a>
</g>
</g>
<!-- Node470&#45;&gt;Node473 -->
<g id="edge3" class="edge">
<title>Node470&#45;&gt;Node473</title>
<path fill="none" stroke="#191970" d="M81.2241,-59.4783C91.1659,-57.8428 101.6053,-56.1255 111.2919,-54.5321"/>
<polygon fill="#191970" stroke="#191970" points="80.3955,-56.0675 71.0963,-61.1443 81.5318,-62.9746 80.3955,-56.0675"/>
</g>
<!-- Node479 -->
<g id="node7" class="node">
<title>Node479</title>
<g id="a_node7"><a xlink:href="quickjs-libc_8c.html#ad61d60681847f324c5ba4ad88c546f1e" target="_top" xlink:title="js_module_loader">
<polygon fill="none" stroke="#000000" points="239,-76.5 239,-95.5 342,-95.5 342,-76.5 239,-76.5"/>
<text text-anchor="middle" x="290.5" y="-83.5" font-family="Helvetica,sans-Serif" font-size="10.00" fill="#000000">js_module_loader</text>
</a>
</g>
</g>
<!-- Node470&#45;&gt;Node479 -->
<g id="edge7" class="edge">
<title>Node470&#45;&gt;Node479</title>
<path fill="none" stroke="#191970" d="M81.4111,-70.4208C125.6689,-73.7185 192.543,-78.7012 238.6869,-82.1394"/>
<polygon fill="#191970" stroke="#191970" points="81.4576,-66.9147 71.2252,-69.6619 80.9374,-73.8953 81.4576,-66.9147"/>
</g>
<!-- Node480 -->
<g id="node8" class="node">
<title>Node480</title>
<g id="a_node8"><a xlink:href="quickjs-libc_8c.html#a879319bb5089c26a9e2f19e9fc9c0a73" target="_top" xlink:title="js_std_loadFile">
<polygon fill="none" stroke="#000000" points="107,-.5 107,-19.5 195,-19.5 195,-.5 107,-.5"/>
<text text-anchor="middle" x="151" y="-7.5" font-family="Helvetica,sans-Serif" font-size="10.00" fill="#000000">js_std_loadFile</text>
</a>
</g>
</g>
<!-- Node470&#45;&gt;Node480 -->
<g id="edge10" class="edge">
<title>Node470&#45;&gt;Node480</title>
<path fill="none" stroke="#191970" d="M61.7586,-52.3901C75.1638,-45.0995 91.8092,-36.3018 107,-29 113.7494,-25.7558 121.1913,-22.4443 128.0047,-19.5138"/>
<polygon fill="#191970" stroke="#191970" points="59.7242,-49.5138 52.6373,-57.3895 63.0887,-55.6523 59.7242,-49.5138"/>
</g>
<!-- Node472 -->
<g id="node3" class="node">
<title>Node472</title>
<g id="a_node3"><a xlink:href="qjs_8cpp.html#a3c04138a5bfe5d72780bb7e82a18e627" target="_top" xlink:title="main">
<polygon fill="none" stroke="#000000" points="404,-76.5 404,-95.5 445,-95.5 445,-76.5 404,-76.5"/>
<text text-anchor="middle" x="424.5" y="-83.5" font-family="Helvetica,sans-Serif" font-size="10.00" fill="#000000">main</text>
</a>
</g>
</g>
<!-- Node471&#45;&gt;Node472 -->
<g id="edge2" class="edge">
<title>Node471&#45;&gt;Node472</title>
<path fill="none" stroke="#191970" d="M334.0219,-111.658C357.3891,-105.0314 385.1181,-97.168 403.6636,-91.9088"/>
<polygon fill="#191970" stroke="#191970" points="332.9796,-108.3155 324.3139,-114.411 334.8894,-115.0499 332.9796,-108.3155"/>
</g>
<!-- Node474 -->
<g id="node5" class="node">
<title>Node474</title>
<g id="a_node5"><a xlink:href="quickjs-libc_8c.html#ad04466feec6822a3b838baf229f6dfa0" target="_top" xlink:title="js_std_add_helpers">
<polygon fill="none" stroke="#000000" points="235.5,-38.5 235.5,-57.5 345.5,-57.5 345.5,-38.5 235.5,-38.5"/>
<text text-anchor="middle" x="290.5" y="-45.5" font-family="Helvetica,sans-Serif" font-size="10.00" fill="#000000">js_std_add_helpers</text>
</a>
</g>
</g>
<!-- Node473&#45;&gt;Node474 -->
<g id="edge4" class="edge">
<title>Node473&#45;&gt;Node474</title>
<path fill="none" stroke="#191970" d="M200.6901,-48C211.9495,-48 223.9711,-48 235.4379,-48"/>
<polygon fill="#191970" stroke="#191970" points="200.602,-44.5001 190.602,-48 200.6019,-51.5001 200.602,-44.5001"/>
</g>
<!-- Node474&#45;&gt;Node472 -->
<g id="edge5" class="edge">
<title>Node474&#45;&gt;Node472</title>
<path fill="none" stroke="#191970" d="M334.0219,-60.342C357.3891,-66.9686 385.1181,-74.832 403.6636,-80.0912"/>
<polygon fill="#191970" stroke="#191970" points="334.8894,-56.9501 324.3139,-57.589 332.9796,-63.6845 334.8894,-56.9501"/>
</g>
<!-- Node475 -->
<g id="node6" class="node">
<title>Node475</title>
<g id="a_node6"><a xlink:href="quickjs-libc_8c.html#a1fbb3adc15e7b967479fc1940e99b67a" target="_top" xlink:title="worker_func">
<polygon fill="none" stroke="#ff0000" points="386,-38.5 386,-57.5 463,-57.5 463,-38.5 386,-38.5"/>
<text text-anchor="middle" x="424.5" y="-45.5" font-family="Helvetica,sans-Serif" font-size="10.00" fill="#000000">worker_func</text>
</a>
</g>
</g>
<!-- Node474&#45;&gt;Node475 -->
<g id="edge6" class="edge">
<title>Node474&#45;&gt;Node475</title>
<path fill="none" stroke="#191970" d="M355.9198,-48C366.1144,-48 376.3577,-48 385.7051,-48"/>
<polygon fill="#191970" stroke="#191970" points="355.7766,-44.5001 345.7766,-48 355.7765,-51.5001 355.7766,-44.5001"/>
</g>
<!-- Node479&#45;&gt;Node472 -->
<g id="edge8" class="edge">
<title>Node479&#45;&gt;Node472</title>
<path fill="none" stroke="#191970" d="M352.5136,-86C371.0438,-86 390.0856,-86 403.9271,-86"/>
<polygon fill="#191970" stroke="#191970" points="352.3079,-82.5001 342.3079,-86 352.3079,-89.5001 352.3079,-82.5001"/>
</g>
<!-- Node479&#45;&gt;Node475 -->
<g id="edge9" class="edge">
<title>Node479&#45;&gt;Node475</title>
<path fill="none" stroke="#191970" d="M333.9383,-73.6817C352.3491,-68.4607 373.4798,-62.4684 390.697,-57.5859"/>
<polygon fill="#191970" stroke="#191970" points="332.9796,-70.3155 324.3139,-76.411 334.8894,-77.0499 332.9796,-70.3155"/>
</g>
</g>
</svg>
