<?xml version="1.0" encoding="UTF-8" standalone="no"?>
<!DOCTYPE svg PUBLIC "-//W3C//DTD SVG 1.1//EN"
 "http://www.w3.org/Graphics/SVG/1.1/DTD/svg11.dtd">
<!-- Generated by graphviz version 2.40.1 (20161225.0304)
 -->
<!-- Title: add_req_module_entry Pages: 1 -->
<!--zoomable 66 -->
<svg id="main" version="1.1" xmlns="http://www.w3.org/2000/svg" xmlns:xlink="http://www.w3.org/1999/xlink" xml:space="preserve" onload="init(evt)">
<style type="text/css"><![CDATA[
.edge:hover path { stroke: red; }
.edge:hover polygon { stroke: red; fill: red; }
]]></style>
<script type="text/javascript"><![CDATA[
var edges = document.getElementsByTagName('g');
if (edges && edges.length) {
  for (var i=0;i<edges.length;i++) {
    if (edges[i].id.substr(0,4)=='edge') {
      edges[i].setAttribute('class','edge');
    }
  }
}
]]></script>
        <defs>
                <circle id="rim" cx="0" cy="0" r="7"/>
                <circle id="rim2" cx="0" cy="0" r="3.5"/>
                <g id="zoomPlus">
                        <use xlink:href="#rim" fill="#404040">
                                <set attributeName="fill" to="#808080" begin="zoomplus.mouseover" end="zoomplus.mouseout"/>
                        </use>
                        <path d="M-4,0h8M0,-4v8" fill="none" stroke="white" stroke-width="1.5" pointer-events="none"/>
                </g>
                <g id="zoomMin">
                        <use xlink:href="#rim" fill="#404040">
                                <set attributeName="fill" to="#808080" begin="zoomminus.mouseover" end="zoomminus.mouseout"/>
                        </use>
                        <path d="M-4,0h8" fill="none" stroke="white" stroke-width="1.5" pointer-events="none"/>
                </g>
                <g id="dirArrow">
                        <path fill="none" stroke="white" stroke-width="1.5" d="M0,-3.0v7 M-2.5,-0.5L0,-3.0L2.5,-0.5"/>
                </g>
               <g id="resetDef">
                       <use xlink:href="#rim2" fill="#404040">
                               <set attributeName="fill" to="#808080" begin="reset.mouseover" end="reset.mouseout"/>
                       </use>
               </g>
        </defs>

<script type="text/javascript">
var viewWidth = 613;
var viewHeight = 66;
var sectionId = 'dynsection-1098';
</script>
<script xlink:href="svgpan.js"/>
<svg id="graph" class="graph">
<g id="viewport">
<title>add_req_module_entry</title>
<!-- Node332749 -->
<g id="node1" class="node">
<title>Node332749</title>
<polygon fill="#bfbfbf" stroke="#000000" points="0,-19.5 0,-38.5 128,-38.5 128,-19.5 0,-19.5"/>
<text text-anchor="middle" x="64" y="-26.5" font-family="Helvetica,sans-Serif" font-size="10.00" fill="#000000">add_req_module_entry</text>
</g>
<!-- Node332750 -->
<g id="node2" class="node">
<title>Node332750</title>
<g id="a_node2"><a xlink:href="quickjs_8c.html#a498e1d5c7de1b59c1630e9847cde1e41" target="_top" xlink:title="js_parse_export">
<polygon fill="none" stroke="#000000" points="164.5,-.5 164.5,-19.5 258.5,-19.5 258.5,-.5 164.5,-.5"/>
<text text-anchor="middle" x="211.5" y="-7.5" font-family="Helvetica,sans-Serif" font-size="10.00" fill="#000000">js_parse_export</text>
</a>
</g>
</g>
<!-- Node332749&#45;&gt;Node332750 -->
<g id="edge1" class="edge">
<title>Node332749&#45;&gt;Node332750</title>
<path fill="none" stroke="#191970" d="M138.2517,-19.4354C147.1162,-18.2935 155.9711,-17.1529 164.304,-16.0795"/>
<polygon fill="#191970" stroke="#191970" points="137.7374,-15.9726 128.2666,-20.7216 138.6318,-22.9152 137.7374,-15.9726"/>
</g>
<!-- Node332786 -->
<g id="node6" class="node">
<title>Node332786</title>
<g id="a_node6"><a xlink:href="quickjs_8c.html#aa24f7964f6d938a05c3c3c03af5a01e9" target="_top" xlink:title="js_parse_import">
<polygon fill="none" stroke="#000000" points="164,-38.5 164,-57.5 259,-57.5 259,-38.5 164,-38.5"/>
<text text-anchor="middle" x="211.5" y="-45.5" font-family="Helvetica,sans-Serif" font-size="10.00" fill="#000000">js_parse_import</text>
</a>
</g>
</g>
<!-- Node332749&#45;&gt;Node332786 -->
<g id="edge6" class="edge">
<title>Node332749&#45;&gt;Node332786</title>
<path fill="none" stroke="#191970" d="M138.4057,-38.5845C147.0623,-39.6996 155.7069,-40.8131 163.8624,-41.8636"/>
<polygon fill="#191970" stroke="#191970" points="138.6318,-35.0848 128.2666,-37.2784 137.7374,-42.0274 138.6318,-35.0848"/>
</g>
<!-- Node332751 -->
<g id="node3" class="node">
<title>Node332751</title>
<g id="a_node3"><a xlink:href="quickjs_8c.html#ab59a3267a100decc9d2d81eb3297794a" target="_top" xlink:title="js_parse_source_element">
<polygon fill="none" stroke="#000000" points="295,-38.5 295,-57.5 435,-57.5 435,-38.5 295,-38.5"/>
<text text-anchor="middle" x="365" y="-45.5" font-family="Helvetica,sans-Serif" font-size="10.00" fill="#000000">js_parse_source_element</text>
</a>
</g>
</g>
<!-- Node332750&#45;&gt;Node332751 -->
<g id="edge2" class="edge">
<title>Node332750&#45;&gt;Node332751</title>
<path fill="none" stroke="#191970" d="M260.1352,-22.04C281.5799,-27.3488 306.4226,-33.4988 326.544,-38.4799"/>
<polygon fill="#191970" stroke="#191970" points="260.7826,-18.5947 250.2345,-19.589 259.1004,-25.3896 260.7826,-18.5947"/>
</g>
<!-- Node332752 -->
<g id="node4" class="node">
<title>Node332752</title>
<g id="a_node4"><a xlink:href="quickjs_8c.html#acc9eb677cab8dfcf45f59381f8a19601" target="_top" xlink:title="js_parse_function_decl2">
<polygon fill="none" stroke="#ff0000" points="471,-.5 471,-19.5 605,-19.5 605,-.5 471,-.5"/>
<text text-anchor="middle" x="538" y="-7.5" font-family="Helvetica,sans-Serif" font-size="10.00" fill="#000000">js_parse_function_decl2</text>
</a>
</g>
</g>
<!-- Node332751&#45;&gt;Node332752 -->
<g id="edge3" class="edge">
<title>Node332751&#45;&gt;Node332752</title>
<path fill="none" stroke="#191970" d="M418.5051,-36.2474C442.9673,-30.8742 471.5707,-24.5914 494.6587,-19.5201"/>
<polygon fill="#191970" stroke="#191970" points="417.6714,-32.847 408.6552,-38.411 419.1733,-39.684 417.6714,-32.847"/>
</g>
<!-- Node332779 -->
<g id="node5" class="node">
<title>Node332779</title>
<g id="a_node5"><a xlink:href="quickjs_8c.html#aec05caae64451720670d1a56040110b3" target="_top" xlink:title="js_parse_program">
<polygon fill="none" stroke="#ff0000" points="486,-38.5 486,-57.5 590,-57.5 590,-38.5 486,-38.5"/>
<text text-anchor="middle" x="538" y="-45.5" font-family="Helvetica,sans-Serif" font-size="10.00" fill="#000000">js_parse_program</text>
</a>
</g>
</g>
<!-- Node332751&#45;&gt;Node332779 -->
<g id="edge5" class="edge">
<title>Node332751&#45;&gt;Node332779</title>
<path fill="none" stroke="#191970" d="M445.7089,-48C459.3128,-48 473.1086,-48 485.7423,-48"/>
<polygon fill="#191970" stroke="#191970" points="445.3658,-44.5001 435.3657,-48 445.3657,-51.5001 445.3658,-44.5001"/>
</g>
<!-- Node332752&#45;&gt;Node332750 -->
<g id="edge4" class="edge">
<title>Node332752&#45;&gt;Node332750</title>
<path fill="none" stroke="#191970" d="M460.5058,-10C397.7577,-10 311.4055,-10 258.6272,-10"/>
<polygon fill="#191970" stroke="#191970" points="460.7561,-13.5001 470.7561,-10 460.756,-6.5001 460.7561,-13.5001"/>
</g>
<!-- Node332786&#45;&gt;Node332751 -->
<g id="edge7" class="edge">
<title>Node332786&#45;&gt;Node332751</title>
<path fill="none" stroke="#191970" d="M269.4873,-48C277.7425,-48 286.3063,-48 294.7638,-48"/>
<polygon fill="#191970" stroke="#191970" points="269.227,-44.5001 259.2269,-48 269.2269,-51.5001 269.227,-44.5001"/>
</g>
</g>
</svg>
        <g id="navigator" transform="translate(0 0)" fill="#404254">
                <rect fill="#f2f5e9" fill-opacity="0.5" stroke="#606060" stroke-width=".5" x="0" y="0" width="60" height="60"/>
                <use id="zoomplus" xlink:href="#zoomPlus" x="17" y="9" onmousedown="handleZoom(evt,'in')"/>
                <use id="zoomminus" xlink:href="#zoomMin" x="42" y="9" onmousedown="handleZoom(evt,'out')"/>
                <use id="reset" xlink:href="#resetDef" x="30" y="36" onmousedown="handleReset()"/>
                <g id="arrowUp" xlink:href="#dirArrow" transform="translate(30 24)" onmousedown="handlePan(0,-1)">
                  <use xlink:href="#rim" fill="#404040">
                        <set attributeName="fill" to="#808080" begin="arrowUp.mouseover" end="arrowUp.mouseout"/>
                  </use>
                  <path fill="none" stroke="white" stroke-width="1.5" d="M0,-3.0v7 M-2.5,-0.5L0,-3.0L2.5,-0.5"/>
                </g>
                <g id="arrowRight" xlink:href="#dirArrow" transform="rotate(90) translate(36 -43)" onmousedown="handlePan(1,0)">
                  <use xlink:href="#rim" fill="#404040">
                        <set attributeName="fill" to="#808080" begin="arrowRight.mouseover" end="arrowRight.mouseout"/>
                  </use>
                  <path fill="none" stroke="white" stroke-width="1.5" d="M0,-3.0v7 M-2.5,-0.5L0,-3.0L2.5,-0.5"/>
                </g>
                <g id="arrowDown" xlink:href="#dirArrow" transform="rotate(180) translate(-30 -48)" onmousedown="handlePan(0,1)">
                  <use xlink:href="#rim" fill="#404040">
                        <set attributeName="fill" to="#808080" begin="arrowDown.mouseover" end="arrowDown.mouseout"/>
                  </use>
                  <path fill="none" stroke="white" stroke-width="1.5" d="M0,-3.0v7 M-2.5,-0.5L0,-3.0L2.5,-0.5"/>
                </g>
                <g id="arrowLeft" xlink:href="#dirArrow" transform="rotate(270) translate(-36 17)" onmousedown="handlePan(-1,0)">
                  <use xlink:href="#rim" fill="#404040">
                        <set attributeName="fill" to="#808080" begin="arrowLeft.mouseover" end="arrowLeft.mouseout"/>
                  </use>
                  <path fill="none" stroke="white" stroke-width="1.5" d="M0,-3.0v7 M-2.5,-0.5L0,-3.0L2.5,-0.5"/>
                </g>
        </g>
        <svg viewBox="0 0 15 15" width="100%" height="30px" preserveAspectRatio="xMaxYMin meet">
         <g id="arrow_out" transform="scale(0.3 0.3)">
          <a xlink:href="quickjs_8c_ad5cccb20d07c9e601482d5b2398c2f55_icgraph_org.svg" target="_base">
           <rect id="button" ry="5" rx="5" y="6" x="6" height="38" width="38"
                fill="#f2f5e9" fill-opacity="0.5" stroke="#606060" stroke-width="1.0"/>
           <path id="arrow"
             d="M 11.500037,31.436501 C 11.940474,20.09759 22.043105,11.32322 32.158766,21.979434 L 37.068811,17.246167 C 37.068811,17.246167 37.088388,32 37.088388,32 L 22.160133,31.978069 C 22.160133,31.978069 26.997745,27.140456 26.997745,27.140456 C 18.528582,18.264221 13.291696,25.230495 11.500037,31.436501 z"
             style="fill:#404040;"/>
          </a>
         </g>
        </svg>
</svg>
