<?xml version="1.0" encoding="UTF-8" standalone="no"?>
<!DOCTYPE svg PUBLIC "-//W3C//DTD SVG 1.1//EN"
 "http://www.w3.org/Graphics/SVG/1.1/DTD/svg11.dtd">
<!-- Generated by graphviz version 2.40.1 (20161225.0304)
 -->
<!-- Title: JS_GetIterator2 Pages: 1 -->
<!--zoomable 312 -->
<svg id="main" version="1.1" xmlns="http://www.w3.org/2000/svg" xmlns:xlink="http://www.w3.org/1999/xlink" xml:space="preserve" onload="init(evt)">
<style type="text/css"><![CDATA[
.edge:hover path { stroke: red; }
.edge:hover polygon { stroke: red; fill: red; }
]]></style>
<script type="text/javascript"><![CDATA[
var edges = document.getElementsByTagName('g');
if (edges && edges.length) {
  for (var i=0;i<edges.length;i++) {
    if (edges[i].id.substr(0,4)=='edge') {
      edges[i].setAttribute('class','edge');
    }
  }
}
]]></script>
        <defs>
                <circle id="rim" cx="0" cy="0" r="7"/>
                <circle id="rim2" cx="0" cy="0" r="3.5"/>
                <g id="zoomPlus">
                        <use xlink:href="#rim" fill="#404040">
                                <set attributeName="fill" to="#808080" begin="zoomplus.mouseover" end="zoomplus.mouseout"/>
                        </use>
                        <path d="M-4,0h8M0,-4v8" fill="none" stroke="white" stroke-width="1.5" pointer-events="none"/>
                </g>
                <g id="zoomMin">
                        <use xlink:href="#rim" fill="#404040">
                                <set attributeName="fill" to="#808080" begin="zoomminus.mouseover" end="zoomminus.mouseout"/>
                        </use>
                        <path d="M-4,0h8" fill="none" stroke="white" stroke-width="1.5" pointer-events="none"/>
                </g>
                <g id="dirArrow">
                        <path fill="none" stroke="white" stroke-width="1.5" d="M0,-3.0v7 M-2.5,-0.5L0,-3.0L2.5,-0.5"/>
                </g>
               <g id="resetDef">
                       <use xlink:href="#rim2" fill="#404040">
                               <set attributeName="fill" to="#808080" begin="reset.mouseover" end="reset.mouseout"/>
                       </use>
               </g>
        </defs>

<script type="text/javascript">
var viewWidth = 649;
var viewHeight = 312;
var sectionId = 'dynsection-807';
</script>
<script xlink:href="svgpan.js"/>
<svg id="graph" class="graph">
<g id="viewport">
<title>JS_GetIterator2</title>
<!-- Node281323 -->
<g id="node1" class="node">
<title>Node281323</title>
<polygon fill="#bfbfbf" stroke="#000000" points="0,-152.5 0,-171.5 90,-171.5 90,-152.5 0,-152.5"/>
<text text-anchor="middle" x="45" y="-159.5" font-family="Helvetica,sans-Serif" font-size="10.00" fill="#000000">JS_GetIterator2</text>
</g>
<!-- Node281324 -->
<g id="node2" class="node">
<title>Node281324</title>
<g id="a_node2"><a xlink:href="quickjs_8c.html#a54596af885c45bf0281d53985349e9ef" target="_top" xlink:title="js_array_from_iterator">
<polygon fill="none" stroke="#000000" points="126,-218.5 126,-237.5 251,-237.5 251,-218.5 126,-218.5"/>
<text text-anchor="middle" x="188.5" y="-225.5" font-family="Helvetica,sans-Serif" font-size="10.00" fill="#000000">js_array_from_iterator</text>
</a>
</g>
</g>
<!-- Node281323&#45;&gt;Node281324 -->
<g id="edge1" class="edge">
<title>Node281323&#45;&gt;Node281324</title>
<path fill="none" stroke="#191970" d="M75.0984,-175.8432C102.8301,-188.5978 143.2604,-207.1929 167.6087,-218.3915"/>
<polygon fill="#191970" stroke="#191970" points="76.4138,-172.5958 65.8661,-171.597 73.4888,-178.9554 76.4138,-172.5958"/>
</g>
<!-- Node281347 -->
<g id="node5" class="node">
<title>Node281347</title>
<g id="a_node5"><a xlink:href="quickjs_8c.html#a5ec5d4521881c24fd8de4e8a4f602fba" target="_top" xlink:title="JS_GetIterator">
<polygon fill="none" stroke="#000000" points="146.5,-133.5 146.5,-152.5 230.5,-152.5 230.5,-133.5 146.5,-133.5"/>
<text text-anchor="middle" x="188.5" y="-140.5" font-family="Helvetica,sans-Serif" font-size="10.00" fill="#000000">JS_GetIterator</text>
</a>
</g>
</g>
<!-- Node281323&#45;&gt;Node281347 -->
<g id="edge4" class="edge">
<title>Node281323&#45;&gt;Node281347</title>
<path fill="none" stroke="#191970" d="M100.3276,-154.6744C115.5215,-152.6627 131.7537,-150.5134 146.0958,-148.6145"/>
<polygon fill="#191970" stroke="#191970" points="99.4646,-151.258 90.0106,-156.0404 100.3835,-158.1975 99.4646,-151.258"/>
</g>
<!-- Node281325 -->
<g id="node3" class="node">
<title>Node281325</title>
<g id="a_node3"><a xlink:href="quickjs_8c.html#acf0e1803a9586d86d752b002a89fb8ed" target="_top" xlink:title="js_typed_array_constructor_obj">
<polygon fill="none" stroke="#000000" points="287,-275.5 287,-294.5 456,-294.5 456,-275.5 287,-275.5"/>
<text text-anchor="middle" x="371.5" y="-282.5" font-family="Helvetica,sans-Serif" font-size="10.00" fill="#000000">js_typed_array_constructor_obj</text>
</a>
</g>
</g>
<!-- Node281324&#45;&gt;Node281325 -->
<g id="edge2" class="edge">
<title>Node281324&#45;&gt;Node281325</title>
<path fill="none" stroke="#191970" d="M228.6963,-240.5201C262.4577,-251.036 309.9879,-265.8405 340.77,-275.4284"/>
<polygon fill="#191970" stroke="#191970" points="229.7185,-237.1728 219.1301,-237.5405 227.6368,-243.8561 229.7185,-237.1728"/>
</g>
<!-- Node281326 -->
<g id="node4" class="node">
<title>Node281326</title>
<g id="a_node4"><a xlink:href="quickjs_8c.html#a3be661c1eaa7a31184410667862635a2" target="_top" xlink:title="js_typed_array_constructor">
<polygon fill="none" stroke="#ff0000" points="492,-284.5 492,-303.5 641,-303.5 641,-284.5 492,-284.5"/>
<text text-anchor="middle" x="566.5" y="-291.5" font-family="Helvetica,sans-Serif" font-size="10.00" fill="#000000">js_typed_array_constructor</text>
</a>
</g>
</g>
<!-- Node281325&#45;&gt;Node281326 -->
<g id="edge3" class="edge">
<title>Node281325&#45;&gt;Node281326</title>
<path fill="none" stroke="#191970" d="M466.2845,-289.3747C474.9178,-289.7731 483.5795,-290.1729 491.9986,-290.5615"/>
<polygon fill="#191970" stroke="#191970" points="466.3299,-285.8731 456.1791,-288.9083 466.0071,-292.8657 466.3299,-285.8731"/>
</g>
<!-- Node281348 -->
<g id="node6" class="node">
<title>Node281348</title>
<g id="a_node6"><a xlink:href="quickjs_8c.html#ac71df7cd121a3af9abf57897c58e75c2" target="_top" xlink:title="js_for_of_start">
<polygon fill="none" stroke="#000000" points="328.5,-190.5 328.5,-209.5 414.5,-209.5 414.5,-190.5 328.5,-190.5"/>
<text text-anchor="middle" x="371.5" y="-197.5" font-family="Helvetica,sans-Serif" font-size="10.00" fill="#000000">js_for_of_start</text>
</a>
</g>
</g>
<!-- Node281347&#45;&gt;Node281348 -->
<g id="edge5" class="edge">
<title>Node281347&#45;&gt;Node281348</title>
<path fill="none" stroke="#191970" d="M219.8979,-156.4729C239.0436,-164.3453 264.1486,-174.0641 287,-181 300.2372,-185.0178 314.8734,-188.6016 328.1934,-191.5445"/>
<polygon fill="#191970" stroke="#191970" points="221.0498,-153.1613 210.4727,-152.5489 218.3594,-159.6236 221.0498,-153.1613"/>
</g>
<!-- Node281371 -->
<g id="node10" class="node">
<title>Node281371</title>
<g id="a_node10"><a xlink:href="quickjs_8c.html#a43208b0746998d2b6b9b8bd1ef8b5f99" target="_top" xlink:title="js_append_enumerate">
<polygon fill="none" stroke="#000000" points="309,-228.5 309,-247.5 434,-247.5 434,-228.5 309,-228.5"/>
<text text-anchor="middle" x="371.5" y="-235.5" font-family="Helvetica,sans-Serif" font-size="10.00" fill="#000000">js_append_enumerate</text>
</a>
</g>
</g>
<!-- Node281347&#45;&gt;Node281371 -->
<g id="edge10" class="edge">
<title>Node281347&#45;&gt;Node281371</title>
<path fill="none" stroke="#191970" d="M205.1774,-159.6307C223.6213,-177.0613 254.9845,-203.9602 287,-219 295.1657,-222.836 304.1455,-225.9176 313.1092,-228.3876"/>
<polygon fill="#191970" stroke="#191970" points="207.5032,-157.0111 197.8778,-152.5836 202.6413,-162.0472 207.5032,-157.0111"/>
</g>
<!-- Node281372 -->
<g id="node11" class="node">
<title>Node281372</title>
<g id="a_node11"><a xlink:href="quickjs_8c.html#ad6908ae6db4e80d175180b55e19b203e" target="_top" xlink:title="js_object_fromEntries">
<polygon fill="none" stroke="#000000" points="310.5,-152.5 310.5,-171.5 432.5,-171.5 432.5,-152.5 310.5,-152.5"/>
<text text-anchor="middle" x="371.5" y="-159.5" font-family="Helvetica,sans-Serif" font-size="10.00" fill="#000000">js_object_fromEntries</text>
</a>
</g>
</g>
<!-- Node281347&#45;&gt;Node281372 -->
<g id="edge12" class="edge">
<title>Node281347&#45;&gt;Node281372</title>
<path fill="none" stroke="#191970" d="M240.9212,-148.4426C262.5416,-150.6874 287.7465,-153.3043 310.2138,-155.6369"/>
<polygon fill="#191970" stroke="#191970" points="241.2519,-144.9582 230.9438,-147.4067 240.5289,-151.9208 241.2519,-144.9582"/>
</g>
<!-- Node281373 -->
<g id="node12" class="node">
<title>Node281373</title>
<g id="a_node12"><a xlink:href="quickjs_8c.html#a9f70dbefcf33550d6f9e588c05c9ffef" target="_top" xlink:title="iterator_to_array">
<polygon fill="none" stroke="#ff0000" points="322.5,-114.5 322.5,-133.5 420.5,-133.5 420.5,-114.5 322.5,-114.5"/>
<text text-anchor="middle" x="371.5" y="-121.5" font-family="Helvetica,sans-Serif" font-size="10.00" fill="#000000">iterator_to_array</text>
</a>
</g>
</g>
<!-- Node281347&#45;&gt;Node281373 -->
<g id="edge13" class="edge">
<title>Node281347&#45;&gt;Node281373</title>
<path fill="none" stroke="#191970" d="M241.2162,-137.5267C266.8198,-134.8684 297.395,-131.694 322.4894,-129.0885"/>
<polygon fill="#191970" stroke="#191970" points="240.5289,-134.0792 230.9438,-138.5933 241.2519,-141.0418 240.5289,-134.0792"/>
</g>
<!-- Node281377 -->
<g id="node13" class="node">
<title>Node281377</title>
<g id="a_node13"><a xlink:href="quickjs_8c.html#a27dcb5e2923cd6c0201c70546d704748" target="_top" xlink:title="js_map_constructor">
<polygon fill="none" stroke="#ff0000" points="315.5,-76.5 315.5,-95.5 427.5,-95.5 427.5,-76.5 315.5,-76.5"/>
<text text-anchor="middle" x="371.5" y="-83.5" font-family="Helvetica,sans-Serif" font-size="10.00" fill="#000000">js_map_constructor</text>
</a>
</g>
</g>
<!-- Node281347&#45;&gt;Node281377 -->
<g id="edge14" class="edge">
<title>Node281347&#45;&gt;Node281377</title>
<path fill="none" stroke="#191970" d="M219.8979,-129.5271C239.0436,-121.6547 264.1486,-111.9359 287,-105 298.6545,-101.4626 311.3934,-98.2616 323.3638,-95.5382"/>
<polygon fill="#191970" stroke="#191970" points="218.3594,-126.3764 210.4727,-133.4511 221.0498,-132.8387 218.3594,-126.3764"/>
</g>
<!-- Node281379 -->
<g id="node14" class="node">
<title>Node281379</title>
<g id="a_node14"><a xlink:href="quickjs_8c.html#a7a5c4f3ad3260974d9a0c75120ce5647" target="_top" xlink:title="js_promise_all">
<polygon fill="none" stroke="#000000" points="328,-38.5 328,-57.5 415,-57.5 415,-38.5 328,-38.5"/>
<text text-anchor="middle" x="371.5" y="-45.5" font-family="Helvetica,sans-Serif" font-size="10.00" fill="#000000">js_promise_all</text>
</a>
</g>
</g>
<!-- Node281347&#45;&gt;Node281379 -->
<g id="edge15" class="edge">
<title>Node281347&#45;&gt;Node281379</title>
<path fill="none" stroke="#191970" d="M205.1774,-126.3693C223.6213,-108.9387 254.9845,-82.0398 287,-67 299.6569,-61.0542 314.2695,-56.9209 327.7465,-54.0679"/>
<polygon fill="#191970" stroke="#191970" points="202.6413,-123.9528 197.8778,-133.4164 207.5032,-128.9889 202.6413,-123.9528"/>
</g>
<!-- Node281380 -->
<g id="node15" class="node">
<title>Node281380</title>
<g id="a_node15"><a xlink:href="quickjs_8c.html#a44e36674957b179c1963f7046c049d14" target="_top" xlink:title="js_promise_race">
<polygon fill="none" stroke="#000000" points="323.5,-.5 323.5,-19.5 419.5,-19.5 419.5,-.5 323.5,-.5"/>
<text text-anchor="middle" x="371.5" y="-7.5" font-family="Helvetica,sans-Serif" font-size="10.00" fill="#000000">js_promise_race</text>
</a>
</g>
</g>
<!-- Node281347&#45;&gt;Node281380 -->
<g id="edge16" class="edge">
<title>Node281347&#45;&gt;Node281380</title>
<path fill="none" stroke="#191970" d="M199.1755,-124.4625C214.9576,-98.8121 247.0078,-52.9558 287,-29 297.9644,-22.4322 310.9634,-18.1312 323.4372,-15.3158"/>
<polygon fill="#191970" stroke="#191970" points="196.0693,-122.8372 193.9407,-133.2161 202.077,-126.43 196.0693,-122.8372"/>
</g>
<!-- Node281349 -->
<g id="node7" class="node">
<title>Node281349</title>
<g id="a_node7"><a xlink:href="quickjs_8c.html#ac2894ff4edcdb4e6841bcce9c76081e3" target="_top" xlink:title="JS_CallInternal">
<polygon fill="none" stroke="#ff0000" points="523,-228.5 523,-247.5 610,-247.5 610,-228.5 523,-228.5"/>
<text text-anchor="middle" x="566.5" y="-235.5" font-family="Helvetica,sans-Serif" font-size="10.00" fill="#000000">JS_CallInternal</text>
</a>
</g>
</g>
<!-- Node281348&#45;&gt;Node281349 -->
<g id="edge6" class="edge">
<title>Node281348&#45;&gt;Node281349</title>
<path fill="none" stroke="#191970" d="M424.886,-210.4034C455.6025,-216.3892 493.7209,-223.8174 522.6699,-229.4587"/>
<polygon fill="#191970" stroke="#191970" points="425.2617,-206.9109 414.7768,-208.4334 423.9227,-213.7816 425.2617,-206.9109"/>
</g>
<!-- Node281376 -->
<g id="node8" class="node">
<title>Node281376</title>
<g id="a_node8"><a xlink:href="quickjs_8c.html#a5e32da9a43002cb96dcbd62a1a340144" target="_top" xlink:title="js_array_from">
<polygon fill="none" stroke="#000000" points="524.5,-190.5 524.5,-209.5 608.5,-209.5 608.5,-190.5 524.5,-190.5"/>
<text text-anchor="middle" x="566.5" y="-197.5" font-family="Helvetica,sans-Serif" font-size="10.00" fill="#000000">js_array_from</text>
</a>
</g>
</g>
<!-- Node281348&#45;&gt;Node281376 -->
<g id="edge8" class="edge">
<title>Node281348&#45;&gt;Node281376</title>
<path fill="none" stroke="#191970" d="M425.0682,-200C456.3514,-200 495.2636,-200 524.3493,-200"/>
<polygon fill="#191970" stroke="#191970" points="424.7769,-196.5001 414.7768,-200 424.7768,-203.5001 424.7769,-196.5001"/>
</g>
<!-- Node281381 -->
<g id="node9" class="node">
<title>Node281381</title>
<g id="a_node9"><a xlink:href="quickjs_8c.html#a5f46f50deddd4e3a23da24e8173db28e" target="_top" xlink:title="js_typed_array_from">
<polygon fill="none" stroke="#000000" points="508,-152.5 508,-171.5 625,-171.5 625,-152.5 508,-152.5"/>
<text text-anchor="middle" x="566.5" y="-159.5" font-family="Helvetica,sans-Serif" font-size="10.00" fill="#000000">js_typed_array_from</text>
</a>
</g>
</g>
<!-- Node281348&#45;&gt;Node281381 -->
<g id="edge9" class="edge">
<title>Node281348&#45;&gt;Node281381</title>
<path fill="none" stroke="#191970" d="M424.7194,-189.629C453.673,-183.9868 489.2415,-177.0555 517.5096,-171.5468"/>
<polygon fill="#191970" stroke="#191970" points="423.9227,-186.2184 414.7768,-191.5666 425.2617,-193.0891 423.9227,-186.2184"/>
</g>
<!-- Node281349&#45;&gt;Node281349 -->
<g id="edge7" class="edge">
<title>Node281349&#45;&gt;Node281349</title>
<path fill="none" stroke="#191970" d="M530.125,-255.5043C530.1309,-261.3356 542.2559,-266 566.5,-266 600.9805,-266 610.9475,-256.5653 596.401,-247.7571"/>
<polygon fill="#191970" stroke="#191970" points="532.8723,-257.6749 536.599,-247.7571 527.5009,-253.1862 532.8723,-257.6749"/>
</g>
<!-- Node281371&#45;&gt;Node281349 -->
<g id="edge11" class="edge">
<title>Node281371&#45;&gt;Node281349</title>
<path fill="none" stroke="#191970" d="M444.0121,-238C470.5095,-238 499.6472,-238 522.8539,-238"/>
<polygon fill="#191970" stroke="#191970" points="444.0039,-234.5001 434.0038,-238 444.0038,-241.5001 444.0039,-234.5001"/>
</g>
</g>
</svg>
        <g id="navigator" transform="translate(0 0)" fill="#404254">
                <rect fill="#f2f5e9" fill-opacity="0.5" stroke="#606060" stroke-width=".5" x="0" y="0" width="60" height="60"/>
                <use id="zoomplus" xlink:href="#zoomPlus" x="17" y="9" onmousedown="handleZoom(evt,'in')"/>
                <use id="zoomminus" xlink:href="#zoomMin" x="42" y="9" onmousedown="handleZoom(evt,'out')"/>
                <use id="reset" xlink:href="#resetDef" x="30" y="36" onmousedown="handleReset()"/>
                <g id="arrowUp" xlink:href="#dirArrow" transform="translate(30 24)" onmousedown="handlePan(0,-1)">
                  <use xlink:href="#rim" fill="#404040">
                        <set attributeName="fill" to="#808080" begin="arrowUp.mouseover" end="arrowUp.mouseout"/>
                  </use>
                  <path fill="none" stroke="white" stroke-width="1.5" d="M0,-3.0v7 M-2.5,-0.5L0,-3.0L2.5,-0.5"/>
                </g>
                <g id="arrowRight" xlink:href="#dirArrow" transform="rotate(90) translate(36 -43)" onmousedown="handlePan(1,0)">
                  <use xlink:href="#rim" fill="#404040">
                        <set attributeName="fill" to="#808080" begin="arrowRight.mouseover" end="arrowRight.mouseout"/>
                  </use>
                  <path fill="none" stroke="white" stroke-width="1.5" d="M0,-3.0v7 M-2.5,-0.5L0,-3.0L2.5,-0.5"/>
                </g>
                <g id="arrowDown" xlink:href="#dirArrow" transform="rotate(180) translate(-30 -48)" onmousedown="handlePan(0,1)">
                  <use xlink:href="#rim" fill="#404040">
                        <set attributeName="fill" to="#808080" begin="arrowDown.mouseover" end="arrowDown.mouseout"/>
                  </use>
                  <path fill="none" stroke="white" stroke-width="1.5" d="M0,-3.0v7 M-2.5,-0.5L0,-3.0L2.5,-0.5"/>
                </g>
                <g id="arrowLeft" xlink:href="#dirArrow" transform="rotate(270) translate(-36 17)" onmousedown="handlePan(-1,0)">
                  <use xlink:href="#rim" fill="#404040">
                        <set attributeName="fill" to="#808080" begin="arrowLeft.mouseover" end="arrowLeft.mouseout"/>
                  </use>
                  <path fill="none" stroke="white" stroke-width="1.5" d="M0,-3.0v7 M-2.5,-0.5L0,-3.0L2.5,-0.5"/>
                </g>
        </g>
        <svg viewBox="0 0 15 15" width="100%" height="30px" preserveAspectRatio="xMaxYMin meet">
         <g id="arrow_out" transform="scale(0.3 0.3)">
          <a xlink:href="quickjs_8c_aa049793cc8648d35fe81876a2543ca4e_icgraph_org.svg" target="_base">
           <rect id="button" ry="5" rx="5" y="6" x="6" height="38" width="38"
                fill="#f2f5e9" fill-opacity="0.5" stroke="#606060" stroke-width="1.0"/>
           <path id="arrow"
             d="M 11.500037,31.436501 C 11.940474,20.09759 22.043105,11.32322 32.158766,21.979434 L 37.068811,17.246167 C 37.068811,17.246167 37.088388,32 37.088388,32 L 22.160133,31.978069 C 22.160133,31.978069 26.997745,27.140456 26.997745,27.140456 C 18.528582,18.264221 13.291696,25.230495 11.500037,31.436501 z"
             style="fill:#404040;"/>
          </a>
         </g>
        </svg>
</svg>
