<?xml version="1.0" encoding="UTF-8" standalone="no"?>
<!DOCTYPE svg PUBLIC "-//W3C//DTD SVG 1.1//EN"
 "http://www.w3.org/Graphics/SVG/1.1/DTD/svg11.dtd">
<!-- Generated by graphviz version 2.40.1 (20161225.0304)
 -->
<!-- Title: JS_CallConstructorInternal Pages: 1 -->
<!--zoomable 1124 -->
<svg id="main" version="1.1" xmlns="http://www.w3.org/2000/svg" xmlns:xlink="http://www.w3.org/1999/xlink" xml:space="preserve" onload="init(evt)">
<style type="text/css"><![CDATA[
.edge:hover path { stroke: red; }
.edge:hover polygon { stroke: red; fill: red; }
]]></style>
<script type="text/javascript"><![CDATA[
var edges = document.getElementsByTagName('g');
if (edges && edges.length) {
  for (var i=0;i<edges.length;i++) {
    if (edges[i].id.substr(0,4)=='edge') {
      edges[i].setAttribute('class','edge');
    }
  }
}
]]></script>
        <defs>
                <circle id="rim" cx="0" cy="0" r="7"/>
                <circle id="rim2" cx="0" cy="0" r="3.5"/>
                <g id="zoomPlus">
                        <use xlink:href="#rim" fill="#404040">
                                <set attributeName="fill" to="#808080" begin="zoomplus.mouseover" end="zoomplus.mouseout"/>
                        </use>
                        <path d="M-4,0h8M0,-4v8" fill="none" stroke="white" stroke-width="1.5" pointer-events="none"/>
                </g>
                <g id="zoomMin">
                        <use xlink:href="#rim" fill="#404040">
                                <set attributeName="fill" to="#808080" begin="zoomminus.mouseover" end="zoomminus.mouseout"/>
                        </use>
                        <path d="M-4,0h8" fill="none" stroke="white" stroke-width="1.5" pointer-events="none"/>
                </g>
                <g id="dirArrow">
                        <path fill="none" stroke="white" stroke-width="1.5" d="M0,-3.0v7 M-2.5,-0.5L0,-3.0L2.5,-0.5"/>
                </g>
               <g id="resetDef">
                       <use xlink:href="#rim2" fill="#404040">
                               <set attributeName="fill" to="#808080" begin="reset.mouseover" end="reset.mouseout"/>
                       </use>
               </g>
        </defs>

<script type="text/javascript">
var viewWidth = 672;
var viewHeight = 1124;
var sectionId = 'dynsection-14';
</script>
<script xlink:href="svgpan.js"/>
<svg id="graph" class="graph">
<g id="viewport">
<title>JS_CallConstructorInternal</title>
<!-- Node3591 -->
<g id="node1" class="node">
<title>Node3591</title>
<polygon fill="#bfbfbf" stroke="#000000" points="0,-741.5 0,-760.5 143,-760.5 143,-741.5 0,-741.5"/>
<text text-anchor="middle" x="71.5" y="-748.5" font-family="Helvetica,sans-Serif" font-size="10.00" fill="#000000">JS_CallConstructorInternal</text>
</g>
<!-- Node3592 -->
<g id="node2" class="node">
<title>Node3592</title>
<g id="a_node2"><a xlink:href="quickjs_8c.html#ac2894ff4edcdb4e6841bcce9c76081e3" target="_top" xlink:title="JS_CallInternal">
<polygon fill="none" stroke="#ff0000" points="179,-532.5 179,-551.5 266,-551.5 266,-532.5 179,-532.5"/>
<text text-anchor="middle" x="222.5" y="-539.5" font-family="Helvetica,sans-Serif" font-size="10.00" fill="#000000">JS_CallInternal</text>
</a>
</g>
</g>
<!-- Node3591&#45;&gt;Node3592 -->
<g id="edge1" class="edge">
<title>Node3591&#45;&gt;Node3592</title>
<path fill="none" stroke="#191970" d="M76.524,-741.4161C96.8231,-708.4684 173.289,-602.0649 206.707,-559.5293"/>
<polygon fill="#191970" stroke="#191970" points="209.4608,-561.6897 212.9684,-551.6923 203.9919,-557.3203 209.4608,-561.6897"/>
</g>
<!-- Node3693 -->
<g id="node8" class="node">
<title>Node3693</title>
<g id="a_node8"><a xlink:href="quickjs_8h.html#ad80a83d73e9b7d872b88fbf2943aebe9" target="_top" xlink:title="JS_IsException">
<polygon fill="none" stroke="#000000" points="463,-824.5 463,-843.5 550,-843.5 550,-824.5 463,-824.5"/>
<text text-anchor="middle" x="506.5" y="-831.5" font-family="Helvetica,sans-Serif" font-size="10.00" fill="#000000">JS_IsException</text>
</a>
</g>
</g>
<!-- Node3591&#45;&gt;Node3693 -->
<g id="edge49" class="edge">
<title>Node3591&#45;&gt;Node3693</title>
<path fill="none" stroke="#191970" d="M78.9019,-760.6941C104.9572,-793.9078 196.571,-903.1486 302,-941 354.2878,-959.7725 377.3656,-965.957 427,-941 463.5263,-922.634 487.4991,-878.6616 498.8501,-853.1698"/>
<polygon fill="#191970" stroke="#191970" points="502.1412,-854.3738 502.8229,-843.8009 495.6967,-851.641 502.1412,-854.3738"/>
</g>
<!-- Node3625 -->
<g id="node10" class="node">
<title>Node3625</title>
<g id="a_node10"><a xlink:href="quickjs_8h.html#afaa20c47565bc704c6c85f3d77254e7d" target="_top" xlink:title="JS_FreeValue">
<polygon fill="none" stroke="#ff0000" points="586,-864.5 586,-883.5 664,-883.5 664,-864.5 586,-864.5"/>
<text text-anchor="middle" x="625" y="-871.5" font-family="Helvetica,sans-Serif" font-size="10.00" fill="#000000">JS_FreeValue</text>
</a>
</g>
</g>
<!-- Node3591&#45;&gt;Node3625 -->
<g id="edge48" class="edge">
<title>Node3591&#45;&gt;Node3625</title>
<path fill="none" stroke="#191970" d="M73.1082,-760.6322C79.748,-797.8474 108.0879,-934.3209 179,-1018 220.3945,-1066.8472 240.3569,-1075.6886 302,-1093 409.0524,-1123.0639 466.758,-1133.7212 550,-1060 600.3146,-1015.4402 617.3938,-932.3272 622.7517,-894.1362"/>
<polygon fill="#191970" stroke="#191970" points="626.2742,-894.1798 624.062,-883.8185 619.33,-893.2979 626.2742,-894.1798"/>
</g>
<!-- Node4010 -->
<g id="node29" class="node">
<title>Node4010</title>
<g id="a_node29"><a xlink:href="quickjs_8c.html#a246e337d6566552736209730827c0871" target="_top" xlink:title="js_poll_interrupts">
<polygon fill="none" stroke="#ff0000" points="314,-.5 314,-19.5 415,-19.5 415,-.5 314,-.5"/>
<text text-anchor="middle" x="364.5" y="-7.5" font-family="Helvetica,sans-Serif" font-size="10.00" fill="#000000">js_poll_interrupts</text>
</a>
</g>
</g>
<!-- Node3591&#45;&gt;Node4010 -->
<g id="edge50" class="edge">
<title>Node3591&#45;&gt;Node4010</title>
<path fill="none" stroke="#191970" d="M73.286,-741.4684C87.966,-664.0568 190.9825,-138.4848 302,-29 303.4838,-27.5367 305.0765,-26.1856 306.755,-24.9381"/>
<polygon fill="#191970" stroke="#191970" points="308.9891,-27.6787 315.7537,-19.5244 305.3805,-21.6805 308.9891,-27.6787"/>
</g>
<!-- Node3929 -->
<g id="node30" class="node">
<title>Node3929</title>
<g id="a_node30"><a xlink:href="quickjs_8c.html#a93dbf502b17d1328c524401335f60499" target="_top" xlink:title="js_create_from_ctor">
<polygon fill="none" stroke="#ff0000" points="308,-1064.5 308,-1083.5 421,-1083.5 421,-1064.5 308,-1064.5"/>
<text text-anchor="middle" x="364.5" y="-1071.5" font-family="Helvetica,sans-Serif" font-size="10.00" fill="#000000">js_create_from_ctor</text>
</a>
</g>
</g>
<!-- Node3591&#45;&gt;Node3929 -->
<g id="edge45" class="edge">
<title>Node3591&#45;&gt;Node3929</title>
<path fill="none" stroke="#191970" d="M74.0026,-760.5797C83.0524,-793.6883 116.8662,-905.0244 179,-974 218.5587,-1017.9146 282.0609,-1046.227 323.5344,-1061.1409"/>
<polygon fill="#191970" stroke="#191970" points="322.4657,-1064.4749 333.0605,-1064.4706 324.7754,-1057.867 322.4657,-1064.4749"/>
</g>
<!-- Node3592&#45;&gt;Node3591 -->
<g id="edge40" class="edge">
<title>Node3592&#45;&gt;Node3591</title>
<path fill="none" stroke="#191970" d="M217.4854,-551.5686C197.1806,-584.5311 120.5658,-691.1378 87.1946,-733.596"/>
<polygon fill="#191970" stroke="#191970" points="84.4561,-731.4164 80.9457,-741.4128 89.9238,-735.7873 84.4561,-731.4164"/>
</g>
<!-- Node3592&#45;&gt;Node3592 -->
<g id="edge41" class="edge">
<title>Node3592&#45;&gt;Node3592</title>
<path fill="none" stroke="#191970" d="M200.6137,-551.7571C189.9663,-560.5653 197.2617,-570 222.5,-570 239.0626,-570 247.8979,-565.9368 249.0059,-560.6539"/>
<polygon fill="#191970" stroke="#191970" points="252.1008,-559.0192 244.3863,-551.7571 245.8883,-562.2449 252.1008,-559.0192"/>
</g>
<!-- Node3593 -->
<g id="node3" class="node">
<title>Node3593</title>
<g id="a_node3"><a xlink:href="quickjs_8c.html#a853f0924d441ea4225488f37c8b69f9a" target="_top" xlink:title="__attribute__">
<polygon fill="none" stroke="#000000" points="466.5,-999.5 466.5,-1018.5 546.5,-1018.5 546.5,-999.5 466.5,-999.5"/>
<text text-anchor="middle" x="506.5" y="-1006.5" font-family="Helvetica,sans-Serif" font-size="10.00" fill="#000000">__attribute__</text>
</a>
</g>
</g>
<!-- Node3592&#45;&gt;Node3593 -->
<g id="edge2" class="edge">
<title>Node3592&#45;&gt;Node3593</title>
<path fill="none" stroke="#191970" d="M223.3711,-551.632C229.3122,-616.2834 264.7472,-985.464 302,-1017 324.4193,-1035.9789 403.1864,-1027.1046 456.1618,-1018.4393"/>
<polygon fill="#191970" stroke="#191970" points="456.7803,-1021.8845 466.061,-1016.774 455.619,-1014.9815 456.7803,-1021.8845"/>
</g>
<!-- Node3594 -->
<g id="node4" class="node">
<title>Node3594</title>
<g id="a_node4"><a xlink:href="quickjs_8c.html#a877fcb7651d95b411ce70e62b7f4a1f0" target="_top" xlink:title="__JS_AtomFromUInt32">
<polygon fill="none" stroke="#000000" points="302.5,-152.5 302.5,-171.5 426.5,-171.5 426.5,-152.5 302.5,-152.5"/>
<text text-anchor="middle" x="364.5" y="-159.5" font-family="Helvetica,sans-Serif" font-size="10.00" fill="#000000">__JS_AtomFromUInt32</text>
</a>
</g>
</g>
<!-- Node3592&#45;&gt;Node3594 -->
<g id="edge3" class="edge">
<title>Node3592&#45;&gt;Node3594</title>
<path fill="none" stroke="#191970" d="M223.4187,-532.4548C228.5075,-481.3923 254.7324,-240.7778 302,-186 305.2462,-182.238 309.1511,-179.0632 313.4042,-176.3844"/>
<polygon fill="#191970" stroke="#191970" points="315.3257,-179.3273 322.5238,-171.5531 312.0488,-173.1417 315.3257,-179.3273"/>
</g>
<!-- Node3595 -->
<g id="node5" class="node">
<title>Node3595</title>
<g id="a_node5"><a xlink:href="quickjs_8h.html#a9bf98b18de88b4199910a43e933eb97d" target="_top" xlink:title="__JS_NewFloat64">
<polygon fill="none" stroke="#000000" points="315,-114.5 315,-133.5 414,-133.5 414,-114.5 315,-114.5"/>
<text text-anchor="middle" x="364.5" y="-121.5" font-family="Helvetica,sans-Serif" font-size="10.00" fill="#000000">__JS_NewFloat64</text>
</a>
</g>
</g>
<!-- Node3592&#45;&gt;Node3595 -->
<g id="edge4" class="edge">
<title>Node3592&#45;&gt;Node3595</title>
<path fill="none" stroke="#191970" d="M223.8428,-532.1925C231.9198,-473.7793 274.6111,-173.2274 302,-143 303.2303,-141.6422 304.5542,-140.3801 305.9551,-139.207"/>
<polygon fill="#191970" stroke="#191970" points="308.2967,-141.8544 314.703,-133.4157 304.4326,-136.0175 308.2967,-141.8544"/>
</g>
<!-- Node3596 -->
<g id="node6" class="node">
<title>Node3596</title>
<g id="a_node6"><a xlink:href="quickjs_8c.html#a74547db03bf739a52c83a326b32db997" target="_top" xlink:title="add_property">
<polygon fill="none" stroke="#ff0000" points="466,-418.5 466,-437.5 547,-437.5 547,-418.5 466,-418.5"/>
<text text-anchor="middle" x="506.5" y="-425.5" font-family="Helvetica,sans-Serif" font-size="10.00" fill="#000000">add_property</text>
</a>
</g>
</g>
<!-- Node3592&#45;&gt;Node3596 -->
<g id="edge5" class="edge">
<title>Node3592&#45;&gt;Node3596</title>
<path fill="none" stroke="#191970" d="M224.7994,-532.2673C231.4798,-506.4768 253.5658,-436.4761 302,-409 356.8395,-377.8902 433.4872,-398.8215 475.6528,-414.7445"/>
<polygon fill="#191970" stroke="#191970" points="474.5125,-418.0568 485.1001,-418.4482 477.0674,-411.5397 474.5125,-418.0568"/>
</g>
<!-- Node3653 -->
<g id="node7" class="node">
<title>Node3653</title>
<g id="a_node7"><a xlink:href="quickjs_8c.html#a4956f45ffd2849b96dc051277264f87a" target="_top" xlink:title="build_arg_list">
<polygon fill="none" stroke="#ff0000" points="323.5,-266.5 323.5,-285.5 405.5,-285.5 405.5,-266.5 323.5,-266.5"/>
<text text-anchor="middle" x="364.5" y="-273.5" font-family="Helvetica,sans-Serif" font-size="10.00" fill="#000000">build_arg_list</text>
</a>
</g>
</g>
<!-- Node3592&#45;&gt;Node3653 -->
<g id="edge6" class="edge">
<title>Node3592&#45;&gt;Node3653</title>
<path fill="none" stroke="#191970" d="M224.3926,-532.2236C232.5954,-490.7841 266.2753,-330.1482 302,-295 305.504,-291.5525 309.6132,-288.7278 314.022,-286.4137"/>
<polygon fill="#191970" stroke="#191970" points="315.6156,-289.5376 323.395,-282.3452 312.8283,-283.1164 315.6156,-289.5376"/>
</g>
<!-- Node3592&#45;&gt;Node3693 -->
<g id="edge43" class="edge">
<title>Node3592&#45;&gt;Node3693</title>
<path fill="none" stroke="#191970" d="M223.2276,-551.5212C226.2513,-584.3248 240.715,-693.7674 302,-751 344.4379,-790.6317 373.6337,-766.1157 427,-789 446.5548,-797.3854 467.4471,-809.3403 482.9048,-818.8206"/>
<polygon fill="#191970" stroke="#191970" points="481.4297,-822.0256 491.7665,-824.3497 485.1351,-816.0868 481.4297,-822.0256"/>
</g>
<!-- Node3748 -->
<g id="node9" class="node">
<title>Node3748</title>
<g id="a_node9"><a xlink:href="quickjs_8c.html#ac864482356b3efc2d0b0a509fcfa4c7c" target="_top" xlink:title="free_arg_list">
<polygon fill="none" stroke="#ff0000" points="468,-266.5 468,-285.5 545,-285.5 545,-266.5 468,-266.5"/>
<text text-anchor="middle" x="506.5" y="-273.5" font-family="Helvetica,sans-Serif" font-size="10.00" fill="#000000">free_arg_list</text>
</a>
</g>
</g>
<!-- Node3592&#45;&gt;Node3748 -->
<g id="edge13" class="edge">
<title>Node3592&#45;&gt;Node3748</title>
<path fill="none" stroke="#191970" d="M223.6522,-532.319C229.3232,-486.4805 255.8711,-292.0224 302,-257 353.6392,-217.794 435.0947,-243.8697 477.9566,-262.2686"/>
<polygon fill="#191970" stroke="#191970" points="476.6783,-265.5305 487.2379,-266.3939 479.5215,-259.1339 476.6783,-265.5305"/>
</g>
<!-- Node3592&#45;&gt;Node3625 -->
<g id="edge42" class="edge">
<title>Node3592&#45;&gt;Node3625</title>
<path fill="none" stroke="#191970" d="M223.4114,-532.4552C228.2035,-484.5022 252.1769,-270.6581 302,-232 389.5243,-164.0891 474.8433,-175.6129 550,-257 591.5891,-302.0368 618.44,-753.2828 623.9478,-854.0961"/>
<polygon fill="#191970" stroke="#191970" points="620.4563,-854.35 624.4891,-864.1472 627.4462,-853.9735 620.4563,-854.35"/>
</g>
<!-- Node3749 -->
<g id="node11" class="node">
<title>Node3749</title>
<g id="a_node11"><a xlink:href="quickjs_8c.html#a61c8dfb5e807af1b6ff7d8ca61576dda" target="_top" xlink:title="build_backtrace">
<polygon fill="none" stroke="#ff0000" points="317.5,-76.5 317.5,-95.5 411.5,-95.5 411.5,-76.5 317.5,-76.5"/>
<text text-anchor="middle" x="364.5" y="-83.5" font-family="Helvetica,sans-Serif" font-size="10.00" fill="#000000">build_backtrace</text>
</a>
</g>
</g>
<!-- Node3592&#45;&gt;Node3749 -->
<g id="edge10" class="edge">
<title>Node3592&#45;&gt;Node3749</title>
<path fill="none" stroke="#191970" d="M223.948,-532.4576C233.4588,-470.0171 287.0592,-121.7688 302,-105 303.9804,-102.7773 306.2119,-100.8106 308.622,-99.0709"/>
<polygon fill="#191970" stroke="#191970" points="310.5,-102.0279 317.3998,-93.9877 306.9921,-95.9703 310.5,-102.0279"/>
</g>
<!-- Node3836 -->
<g id="node12" class="node">
<title>Node3836</title>
<g id="a_node12"><a xlink:href="quickjs_8c.html#a344894112559c2ba75043fd10bcfa02f" target="_top" xlink:title="close_lexical_var">
<polygon fill="none" stroke="#ff0000" points="314,-38.5 314,-57.5 415,-57.5 415,-38.5 314,-38.5"/>
<text text-anchor="middle" x="364.5" y="-45.5" font-family="Helvetica,sans-Serif" font-size="10.00" fill="#000000">close_lexical_var</text>
</a>
</g>
</g>
<!-- Node3592&#45;&gt;Node3836 -->
<g id="edge11" class="edge">
<title>Node3592&#45;&gt;Node3836</title>
<path fill="none" stroke="#191970" d="M224.0711,-532.1807C234.8834,-464.6569 297.965,-71.5936 302,-67 303.1578,-65.682 304.4038,-64.4539 305.7232,-63.3096"/>
<polygon fill="#191970" stroke="#191970" points="307.7233,-66.1819 313.9787,-57.6309 303.7561,-60.4146 307.7233,-66.1819"/>
</g>
<!-- Node3837 -->
<g id="node13" class="node">
<title>Node3837</title>
<g id="a_node13"><a xlink:href="quickjs_8c.html#a1782043fce951bd4f0d91c7796b31e24" target="_top" xlink:title="close_var_refs">
<polygon fill="none" stroke="#ff0000" points="321,-874.5 321,-893.5 408,-893.5 408,-874.5 321,-874.5"/>
<text text-anchor="middle" x="364.5" y="-881.5" font-family="Helvetica,sans-Serif" font-size="10.00" fill="#000000">close_var_refs</text>
</a>
</g>
</g>
<!-- Node3592&#45;&gt;Node3837 -->
<g id="edge12" class="edge">
<title>Node3592&#45;&gt;Node3837</title>
<path fill="none" stroke="#191970" d="M223.5938,-551.6641C229.2769,-600.2554 256.915,-817.4222 302,-865 304.8156,-867.9713 308.0796,-870.4824 311.6097,-872.604"/>
<polygon fill="#191970" stroke="#191970" points="310.3081,-875.8636 320.8286,-877.1159 313.3852,-869.5762 310.3081,-875.8636"/>
</g>
<!-- Node3614 -->
<g id="node14" class="node">
<title>Node3614</title>
<g id="a_node14"><a xlink:href="quickjs_8c.html#a9e7b4bccf927d811b0f99b40b08c0472" target="_top" xlink:title="free_var_ref">
<polygon fill="none" stroke="#ff0000" points="326.5,-836.5 326.5,-855.5 402.5,-855.5 402.5,-836.5 326.5,-836.5"/>
<text text-anchor="middle" x="364.5" y="-843.5" font-family="Helvetica,sans-Serif" font-size="10.00" fill="#000000">free_var_ref</text>
</a>
</g>
</g>
<!-- Node3592&#45;&gt;Node3614 -->
<g id="edge14" class="edge">
<title>Node3592&#45;&gt;Node3614</title>
<path fill="none" stroke="#191970" d="M223.9382,-551.7071C230.8065,-596.8342 261.6114,-785.6679 302,-827 306.2145,-831.313 311.3746,-834.654 316.9055,-837.2407"/>
<polygon fill="#191970" stroke="#191970" points="315.8728,-840.5935 326.4626,-840.9203 318.388,-834.0609 315.8728,-840.5935"/>
</g>
<!-- Node3839 -->
<g id="node15" class="node">
<title>Node3839</title>
<g id="a_node15"><a xlink:href="cutils_8h.html#a7c82a3ee025fee89db5b11ff5b7691b8" target="_top" xlink:title="get_i16">
<polygon fill="none" stroke="#000000" points="338,-798.5 338,-817.5 391,-817.5 391,-798.5 338,-798.5"/>
<text text-anchor="middle" x="364.5" y="-805.5" font-family="Helvetica,sans-Serif" font-size="10.00" fill="#000000">get_i16</text>
</a>
</g>
</g>
<!-- Node3592&#45;&gt;Node3839 -->
<g id="edge15" class="edge">
<title>Node3592&#45;&gt;Node3839</title>
<path fill="none" stroke="#191970" d="M222.8412,-551.7979C224.6164,-587.7819 235.5293,-714.1735 302,-784 309.0186,-791.3729 318.5496,-796.51 328.0527,-800.0783"/>
<polygon fill="#191970" stroke="#191970" points="327.2471,-803.4965 337.8393,-803.2567 329.4095,-796.8389 327.2471,-803.4965"/>
</g>
<!-- Node3840 -->
<g id="node16" class="node">
<title>Node3840</title>
<g id="a_node16"><a xlink:href="cutils_8h.html#a288ee4e688944e23500af2ecc813c306" target="_top" xlink:title="get_i8">
<polygon fill="none" stroke="#000000" points="341,-494.5 341,-513.5 388,-513.5 388,-494.5 341,-494.5"/>
<text text-anchor="middle" x="364.5" y="-501.5" font-family="Helvetica,sans-Serif" font-size="10.00" fill="#000000">get_i8</text>
</a>
</g>
</g>
<!-- Node3592&#45;&gt;Node3840 -->
<g id="edge16" class="edge">
<title>Node3592&#45;&gt;Node3840</title>
<path fill="none" stroke="#191970" d="M258.3326,-532.411C280.6039,-526.4511 309.0517,-518.8383 330.8931,-512.9934"/>
<polygon fill="#191970" stroke="#191970" points="331.9671,-516.3292 340.7224,-510.363 330.1575,-509.5672 331.9671,-516.3292"/>
</g>
<!-- Node3841 -->
<g id="node17" class="node">
<title>Node3841</title>
<g id="a_node17"><a xlink:href="cutils_8h.html#ad587834d17e95461893d59661e5e9676" target="_top" xlink:title="get_u16">
<polygon fill="none" stroke="#000000" points="336.5,-684.5 336.5,-703.5 392.5,-703.5 392.5,-684.5 336.5,-684.5"/>
<text text-anchor="middle" x="364.5" y="-691.5" font-family="Helvetica,sans-Serif" font-size="10.00" fill="#000000">get_u16</text>
</a>
</g>
</g>
<!-- Node3592&#45;&gt;Node3841 -->
<g id="edge17" class="edge">
<title>Node3592&#45;&gt;Node3841</title>
<path fill="none" stroke="#191970" d="M225.5358,-551.6881C233.7108,-576.1799 258.5557,-641.0328 302,-675 309.1405,-680.5829 317.9142,-684.5317 326.6053,-687.3226"/>
<polygon fill="#191970" stroke="#191970" points="325.7198,-690.7091 336.2913,-690.007 327.5894,-683.9633 325.7198,-690.7091"/>
</g>
<!-- Node3634 -->
<g id="node18" class="node">
<title>Node3634</title>
<g id="a_node18"><a xlink:href="cutils_8h.html#a941262a5f72fda2ec43ae7911e97a0dc" target="_top" xlink:title="get_u32">
<polygon fill="none" stroke="#000000" points="336.5,-646.5 336.5,-665.5 392.5,-665.5 392.5,-646.5 336.5,-646.5"/>
<text text-anchor="middle" x="364.5" y="-653.5" font-family="Helvetica,sans-Serif" font-size="10.00" fill="#000000">get_u32</text>
</a>
</g>
</g>
<!-- Node3592&#45;&gt;Node3634 -->
<g id="edge18" class="edge">
<title>Node3592&#45;&gt;Node3634</title>
<path fill="none" stroke="#191970" d="M227.9332,-551.6693C239.2057,-570.8508 267.0262,-613.8578 302,-637 309.3417,-641.858 317.9776,-645.5168 326.4477,-648.2571"/>
<polygon fill="#191970" stroke="#191970" points="325.6496,-651.6693 336.2274,-651.0687 327.5837,-644.9418 325.6496,-651.6693"/>
</g>
<!-- Node3842 -->
<g id="node19" class="node">
<title>Node3842</title>
<g id="a_node19"><a xlink:href="quickjs_8c.html#a37fe43b6649456a848bd54846450b995" target="_top" xlink:title="get_var_ref">
<polygon fill="none" stroke="#ff0000" points="328.5,-608.5 328.5,-627.5 400.5,-627.5 400.5,-608.5 328.5,-608.5"/>
<text text-anchor="middle" x="364.5" y="-615.5" font-family="Helvetica,sans-Serif" font-size="10.00" fill="#000000">get_var_ref</text>
</a>
</g>
</g>
<!-- Node3592&#45;&gt;Node3842 -->
<g id="edge19" class="edge">
<title>Node3592&#45;&gt;Node3842</title>
<path fill="none" stroke="#191970" d="M233.3364,-551.5568C247.9853,-564.0383 275.3502,-585.8436 302,-599 307.2769,-601.6051 312.9825,-603.9347 318.7261,-605.9936"/>
<polygon fill="#191970" stroke="#191970" points="317.7656,-609.3626 328.3593,-609.2035 319.9786,-602.7216 317.7656,-609.3626"/>
</g>
<!-- Node3782 -->
<g id="node20" class="node">
<title>Node3782</title>
<g id="a_node20"><a xlink:href="list_8h.html#a663527a4d757540b2177bef0db1ce5c0" target="_top" xlink:title="init_list_head">
<polygon fill="none" stroke="#000000" points="323.5,-570.5 323.5,-589.5 405.5,-589.5 405.5,-570.5 323.5,-570.5"/>
<text text-anchor="middle" x="364.5" y="-577.5" font-family="Helvetica,sans-Serif" font-size="10.00" fill="#000000">init_list_head</text>
</a>
</g>
</g>
<!-- Node3592&#45;&gt;Node3782 -->
<g id="edge20" class="edge">
<title>Node3592&#45;&gt;Node3782</title>
<path fill="none" stroke="#191970" d="M258.3326,-551.589C276.6634,-556.4944 299.1784,-562.5196 318.7501,-567.7571"/>
<polygon fill="#191970" stroke="#191970" points="318.114,-571.2099 328.6789,-570.4141 319.9236,-564.4479 318.114,-571.2099"/>
</g>
<!-- Node3843 -->
<g id="node21" class="node">
<title>Node3843</title>
<g id="a_node21"><a xlink:href="quickjs_8c.html#a2bb0a2ca3b8320f3ff778c65034fce49" target="_top" xlink:title="is_backtrace_needed">
<polygon fill="none" stroke="#ff0000" points="305,-532.5 305,-551.5 424,-551.5 424,-532.5 305,-532.5"/>
<text text-anchor="middle" x="364.5" y="-539.5" font-family="Helvetica,sans-Serif" font-size="10.00" fill="#000000">is_backtrace_needed</text>
</a>
</g>
</g>
<!-- Node3592&#45;&gt;Node3843 -->
<g id="edge21" class="edge">
<title>Node3592&#45;&gt;Node3843</title>
<path fill="none" stroke="#191970" d="M266.2634,-542C275.3355,-542 285.1069,-542 294.8447,-542"/>
<polygon fill="#191970" stroke="#191970" points="294.9495,-545.5001 304.9494,-542 294.9494,-538.5001 294.9495,-545.5001"/>
</g>
<!-- Node3766 -->
<g id="node22" class="node">
<title>Node3766</title>
<g id="a_node22"><a xlink:href="quickjs_8c.html#a686cf78f8b0361621ee2ba6182195c31" target="_top" xlink:title="is_strict_mode">
<polygon fill="none" stroke="#000000" points="320.5,-456.5 320.5,-475.5 408.5,-475.5 408.5,-456.5 320.5,-456.5"/>
<text text-anchor="middle" x="364.5" y="-463.5" font-family="Helvetica,sans-Serif" font-size="10.00" fill="#000000">is_strict_mode</text>
</a>
</g>
</g>
<!-- Node3592&#45;&gt;Node3766 -->
<g id="edge22" class="edge">
<title>Node3592&#45;&gt;Node3766</title>
<path fill="none" stroke="#191970" d="M233.3364,-532.4432C247.9853,-519.9617 275.3502,-498.1564 302,-485 306.5857,-482.7361 311.4951,-480.6803 316.472,-478.8294"/>
<polygon fill="#191970" stroke="#191970" points="317.7467,-482.0921 326.0584,-475.5219 315.4636,-475.4749 317.7467,-482.0921"/>
</g>
<!-- Node3845 -->
<g id="node23" class="node">
<title>Node3845</title>
<g id="a_node23"><a xlink:href="quickjs_8c.html#ae8ff05447c0d51fe277baccf616dc7c6" target="_top" xlink:title="js_add_slow">
<polygon fill="none" stroke="#ff0000" points="326.5,-912.5 326.5,-931.5 402.5,-931.5 402.5,-912.5 326.5,-912.5"/>
<text text-anchor="middle" x="364.5" y="-919.5" font-family="Helvetica,sans-Serif" font-size="10.00" fill="#000000">js_add_slow</text>
</a>
</g>
</g>
<!-- Node3592&#45;&gt;Node3845 -->
<g id="edge23" class="edge">
<title>Node3592&#45;&gt;Node3845</title>
<path fill="none" stroke="#191970" d="M223.3319,-551.7385C227.9689,-603.8264 252.2253,-849.1637 302,-903 306.0937,-907.4278 311.1832,-910.8359 316.6781,-913.4569"/>
<polygon fill="#191970" stroke="#191970" points="315.6158,-916.7992 326.2043,-917.1658 318.1555,-910.2761 315.6158,-916.7992"/>
</g>
<!-- Node3852 -->
<g id="node24" class="node">
<title>Node3852</title>
<g id="a_node24"><a xlink:href="quickjs_8c.html#a6a21784a40b8684f2e779bd460dd13b2" target="_top" xlink:title="JS_AddBrand">
<polygon fill="none" stroke="#ff0000" points="325.5,-418.5 325.5,-437.5 403.5,-437.5 403.5,-418.5 325.5,-418.5"/>
<text text-anchor="middle" x="364.5" y="-425.5" font-family="Helvetica,sans-Serif" font-size="10.00" fill="#000000">JS_AddBrand</text>
</a>
</g>
</g>
<!-- Node3592&#45;&gt;Node3852 -->
<g id="edge26" class="edge">
<title>Node3592&#45;&gt;Node3852</title>
<path fill="none" stroke="#191970" d="M227.9332,-532.3307C239.2057,-513.1492 267.0262,-470.1422 302,-447 306.2649,-444.1779 310.9666,-441.7605 315.8188,-439.6927"/>
<polygon fill="#191970" stroke="#191970" points="317.138,-442.9359 325.2601,-436.1329 314.6683,-436.386 317.138,-442.9359"/>
</g>
<!-- Node3855 -->
<g id="node25" class="node">
<title>Node3855</title>
<g id="a_node25"><a xlink:href="quickjs_8c.html#a43208b0746998d2b6b9b8bd1ef8b5f99" target="_top" xlink:title="js_append_enumerate">
<polygon fill="none" stroke="#ff0000" points="302,-988.5 302,-1007.5 427,-1007.5 427,-988.5 302,-988.5"/>
<text text-anchor="middle" x="364.5" y="-995.5" font-family="Helvetica,sans-Serif" font-size="10.00" fill="#000000">js_append_enumerate</text>
</a>
</g>
</g>
<!-- Node3592&#45;&gt;Node3855 -->
<g id="edge30" class="edge">
<title>Node3592&#45;&gt;Node3855</title>
<path fill="none" stroke="#191970" d="M223.5982,-551.6725C229.8565,-605.7184 262.148,-870.4235 302,-941 311.418,-957.679 327.4631,-972.1585 340.9376,-982.3502"/>
<polygon fill="#191970" stroke="#191970" points="339.1696,-985.3907 349.3256,-988.4085 343.2682,-979.716 339.1696,-985.3907"/>
</g>
<!-- Node3660 -->
<g id="node26" class="node">
<title>Node3660</title>
<g id="a_node26"><a xlink:href="quickjs_8c.html#a260bfa297ff6cb5bd18e229afaa54663" target="_top" xlink:title="JS_AtomToString">
<polygon fill="none" stroke="#ff0000" points="316.5,-342.5 316.5,-361.5 412.5,-361.5 412.5,-342.5 316.5,-342.5"/>
<text text-anchor="middle" x="364.5" y="-349.5" font-family="Helvetica,sans-Serif" font-size="10.00" fill="#000000">JS_AtomToString</text>
</a>
</g>
</g>
<!-- Node3592&#45;&gt;Node3660 -->
<g id="edge34" class="edge">
<title>Node3592&#45;&gt;Node3660</title>
<path fill="none" stroke="#191970" d="M224.5019,-532.2555C230.7831,-504.06 252.6912,-421.5138 302,-376 306.3225,-372.0102 311.3786,-368.6599 316.7093,-365.8522"/>
<polygon fill="#191970" stroke="#191970" points="318.2506,-368.9956 325.8588,-361.6222 315.3131,-362.6418 318.2506,-368.9956"/>
</g>
<!-- Node3881 -->
<g id="node27" class="node">
<title>Node3881</title>
<g id="a_node27"><a xlink:href="quickjs_8c.html#afa67965c1017685fc6783776d6d0d4d7" target="_top" xlink:title="JS_AtomToValue">
<polygon fill="none" stroke="#ff0000" points="317,-304.5 317,-323.5 412,-323.5 412,-304.5 317,-304.5"/>
<text text-anchor="middle" x="364.5" y="-311.5" font-family="Helvetica,sans-Serif" font-size="10.00" fill="#000000">JS_AtomToValue</text>
</a>
</g>
</g>
<!-- Node3592&#45;&gt;Node3881 -->
<g id="edge35" class="edge">
<title>Node3592&#45;&gt;Node3881</title>
<path fill="none" stroke="#191970" d="M223.2276,-532.4788C226.2513,-499.6752 240.715,-390.2326 302,-333 303.8857,-331.239 305.9298,-329.641 308.0893,-328.1908"/>
<polygon fill="#191970" stroke="#191970" points="309.856,-331.2133 316.8995,-323.2987 306.4577,-325.0934 309.856,-331.2133"/>
</g>
<!-- Node3882 -->
<g id="node28" class="node">
<title>Node3882</title>
<g id="a_node28"><a xlink:href="quickjs_8c.html#a04d312757919ff6b4d79cd0c2c3e5bb2" target="_top" xlink:title="js_build_arguments">
<polygon fill="none" stroke="#ff0000" points="308.5,-722.5 308.5,-741.5 420.5,-741.5 420.5,-722.5 308.5,-722.5"/>
<text text-anchor="middle" x="364.5" y="-729.5" font-family="Helvetica,sans-Serif" font-size="10.00" fill="#000000">js_build_arguments</text>
</a>
</g>
</g>
<!-- Node3592&#45;&gt;Node3882 -->
<g id="edge36" class="edge">
<title>Node3592&#45;&gt;Node3882</title>
<path fill="none" stroke="#191970" d="M224.1721,-551.7937C229.6606,-580.9046 249.8552,-667.6912 302,-713 303.9476,-714.6923 306.0426,-716.2338 308.2435,-717.638"/>
<polygon fill="#191970" stroke="#191970" points="306.6989,-720.781 317.169,-722.402 309.9951,-714.6055 306.6989,-720.781"/>
</g>
<!-- Node3592&#45;&gt;Node4010 -->
<g id="edge44" class="edge">
<title>Node3592&#45;&gt;Node4010</title>
<path fill="none" stroke="#191970" d="M224.1209,-532.1627C229.9298,-496.8546 250.1984,-373.1879 266,-271 274.3086,-217.269 266.491,-70.1724 302,-29 303.1457,-27.6715 304.3812,-26.4342 305.6914,-25.2819"/>
<polygon fill="#191970" stroke="#191970" points="307.6954,-28.1515 313.9075,-19.5689 303.6991,-22.4043 307.6954,-28.1515"/>
</g>
<!-- Node3653&#45;&gt;Node3693 -->
<g id="edge7" class="edge">
<title>Node3653&#45;&gt;Node3693</title>
<path fill="none" stroke="#191970" d="M405.725,-281.3984C413.7859,-284.2562 421.4488,-288.5554 427,-295 444.4254,-315.2299 492.969,-719.176 504.1724,-814.1368"/>
<polygon fill="#191970" stroke="#191970" points="500.7046,-814.6164 505.3489,-824.139 507.6567,-813.7986 500.7046,-814.6164"/>
</g>
<!-- Node3653&#45;&gt;Node3748 -->
<g id="edge8" class="edge">
<title>Node3653&#45;&gt;Node3748</title>
<path fill="none" stroke="#191970" d="M405.5723,-276C421.8519,-276 440.701,-276 457.6716,-276"/>
<polygon fill="#191970" stroke="#191970" points="457.9557,-279.5001 467.9557,-276 457.9557,-272.5001 457.9557,-279.5001"/>
</g>
<!-- Node3748&#45;&gt;Node3625 -->
<g id="edge9" class="edge">
<title>Node3748&#45;&gt;Node3625</title>
<path fill="none" stroke="#191970" d="M510.1895,-285.53C518.438,-307.1653 538.5446,-361.7818 550,-409 591.285,-579.1733 615.9799,-790.0197 622.9517,-854.4194"/>
<polygon fill="#191970" stroke="#191970" points="619.4747,-854.8227 624.0155,-864.3951 626.4352,-854.0803 619.4747,-854.8227"/>
</g>
<!-- Node3845&#45;&gt;Node3693 -->
<g id="edge24" class="edge">
<title>Node3845&#45;&gt;Node3693</title>
<path fill="none" stroke="#191970" d="M402.5573,-913.2138C410.8836,-910.5383 419.4566,-907.1698 427,-903 451.7892,-889.2973 475.7015,-866.8963 490.7129,-851.3513"/>
<polygon fill="#191970" stroke="#191970" points="493.3965,-853.607 497.7091,-843.9296 488.3029,-848.8054 493.3965,-853.607"/>
</g>
<!-- Node3845&#45;&gt;Node3625 -->
<g id="edge25" class="edge">
<title>Node3845&#45;&gt;Node3625</title>
<path fill="none" stroke="#191970" d="M402.6579,-914.969C448.5356,-906.5155 525.6221,-892.3115 575.8975,-883.0477"/>
<polygon fill="#191970" stroke="#191970" points="576.6875,-886.4611 585.8877,-881.2069 575.419,-879.577 576.6875,-886.4611"/>
</g>
<!-- Node3852&#45;&gt;Node3596 -->
<g id="edge28" class="edge">
<title>Node3852&#45;&gt;Node3596</title>
<path fill="none" stroke="#191970" d="M403.678,-428C419.7219,-428 438.4992,-428 455.5854,-428"/>
<polygon fill="#191970" stroke="#191970" points="455.9659,-431.5001 465.9659,-428 455.9659,-424.5001 455.9659,-431.5001"/>
</g>
<!-- Node3852&#45;&gt;Node3693 -->
<g id="edge27" class="edge">
<title>Node3852&#45;&gt;Node3693</title>
<path fill="none" stroke="#191970" d="M403.513,-432.9797C412.2823,-435.816 420.8117,-440.2109 427,-447 439.718,-460.9526 489.375,-737.2223 503.0161,-814.2266"/>
<polygon fill="#191970" stroke="#191970" points="499.6355,-815.2095 504.8223,-824.4478 506.5287,-813.9913 499.6355,-815.2095"/>
</g>
<!-- Node3852&#45;&gt;Node3625 -->
<g id="edge29" class="edge">
<title>Node3852&#45;&gt;Node3625</title>
<path fill="none" stroke="#191970" d="M403.7743,-434.4716C412.1314,-437.2667 420.411,-441.2691 427,-447 559.8866,-562.5819 609.3615,-786.212 621.6829,-854.027"/>
<polygon fill="#191970" stroke="#191970" points="618.288,-854.9328 623.4572,-864.181 625.1835,-853.7278 618.288,-854.9328"/>
</g>
<!-- Node3855&#45;&gt;Node3593 -->
<g id="edge31" class="edge">
<title>Node3855&#45;&gt;Node3593</title>
<path fill="none" stroke="#191970" d="M427.1966,-1002.8568C436.8052,-1003.6011 446.6196,-1004.3614 455.9226,-1005.082"/>
<polygon fill="#191970" stroke="#191970" points="455.9301,-1008.593 466.1705,-1005.8759 456.4708,-1001.6139 455.9301,-1008.593"/>
</g>
<!-- Node3855&#45;&gt;Node3693 -->
<g id="edge32" class="edge">
<title>Node3855&#45;&gt;Node3693</title>
<path fill="none" stroke="#191970" d="M401.8573,-988.4249C410.7661,-984.9125 419.7751,-980.2162 427,-974 465.8733,-940.554 489.8606,-883.1406 500.3325,-853.2921"/>
<polygon fill="#191970" stroke="#191970" points="503.709,-854.232 503.5816,-843.6379 497.0747,-851.9992 503.709,-854.232"/>
</g>
<!-- Node3855&#45;&gt;Node3625 -->
<g id="edge33" class="edge">
<title>Node3855&#45;&gt;Node3625</title>
<path fill="none" stroke="#191970" d="M391.1994,-988.4254C402.3673,-984.246 415.4172,-979.1331 427,-974 489.5387,-946.2848 560.6159,-908.8868 598.2744,-888.5859"/>
<polygon fill="#191970" stroke="#191970" points="600.4103,-891.4097 607.5395,-883.5723 597.0789,-885.2533 600.4103,-891.4097"/>
</g>
<!-- Node3882&#45;&gt;Node3596 -->
<g id="edge38" class="edge">
<title>Node3882&#45;&gt;Node3596</title>
<path fill="none" stroke="#191970" d="M413.6973,-722.4643C418.6203,-719.9948 423.1954,-716.8934 427,-713 464.8643,-674.2511 494.3054,-505.8622 503.497,-447.7814"/>
<polygon fill="#191970" stroke="#191970" points="506.9854,-448.1258 505.0618,-437.7071 500.0683,-447.0514 506.9854,-448.1258"/>
</g>
<!-- Node3882&#45;&gt;Node3693 -->
<g id="edge37" class="edge">
<title>Node3882&#45;&gt;Node3693</title>
<path fill="none" stroke="#191970" d="M397.2717,-741.5629C407.2592,-745.2559 417.9752,-750.0502 427,-756 446.1555,-768.6287 446.648,-776.9056 463,-793 471.3208,-801.1898 480.7291,-810.0994 488.6622,-817.5145"/>
<polygon fill="#191970" stroke="#191970" points="486.3032,-820.1003 496.0086,-824.3496 491.0714,-814.9754 486.3032,-820.1003"/>
</g>
<!-- Node3882&#45;&gt;Node3625 -->
<g id="edge39" class="edge">
<title>Node3882&#45;&gt;Node3625</title>
<path fill="none" stroke="#191970" d="M390.8415,-741.5766C402.068,-745.7966 415.2586,-750.9394 427,-756 482.679,-779.998 498.5312,-782.953 550,-815 570.4559,-827.7368 591.8785,-845.0468 606.5656,-857.6214"/>
<polygon fill="#191970" stroke="#191970" points="604.5322,-860.4912 614.3766,-864.4076 609.1232,-855.2069 604.5322,-860.4912"/>
</g>
<!-- Node3929&#45;&gt;Node3693 -->
<g id="edge46" class="edge">
<title>Node3929&#45;&gt;Node3693</title>
<path fill="none" stroke="#191970" d="M377.9957,-1064.4168C391.8117,-1054.039 413.165,-1036.3542 427,-1017 465.171,-963.6012 490.3915,-888.9884 500.9196,-853.8242"/>
<polygon fill="#191970" stroke="#191970" points="504.3827,-854.4502 503.8194,-843.8703 497.6621,-852.4923 504.3827,-854.4502"/>
</g>
<!-- Node3929&#45;&gt;Node3625 -->
<g id="edge47" class="edge">
<title>Node3929&#45;&gt;Node3625</title>
<path fill="none" stroke="#191970" d="M421.1516,-1072.3084C461.0521,-1068.3953 513.6317,-1057.4297 550,-1028 593.4083,-992.8734 613.4881,-926.4237 621.1078,-893.4996"/>
<polygon fill="#191970" stroke="#191970" points="624.5312,-894.2276 623.2299,-883.7129 617.6902,-892.7441 624.5312,-894.2276"/>
</g>
</g>
</svg>
        <g id="navigator" transform="translate(0 0)" fill="#404254">
                <rect fill="#f2f5e9" fill-opacity="0.5" stroke="#606060" stroke-width=".5" x="0" y="0" width="60" height="60"/>
                <use id="zoomplus" xlink:href="#zoomPlus" x="17" y="9" onmousedown="handleZoom(evt,'in')"/>
                <use id="zoomminus" xlink:href="#zoomMin" x="42" y="9" onmousedown="handleZoom(evt,'out')"/>
                <use id="reset" xlink:href="#resetDef" x="30" y="36" onmousedown="handleReset()"/>
                <g id="arrowUp" xlink:href="#dirArrow" transform="translate(30 24)" onmousedown="handlePan(0,-1)">
                  <use xlink:href="#rim" fill="#404040">
                        <set attributeName="fill" to="#808080" begin="arrowUp.mouseover" end="arrowUp.mouseout"/>
                  </use>
                  <path fill="none" stroke="white" stroke-width="1.5" d="M0,-3.0v7 M-2.5,-0.5L0,-3.0L2.5,-0.5"/>
                </g>
                <g id="arrowRight" xlink:href="#dirArrow" transform="rotate(90) translate(36 -43)" onmousedown="handlePan(1,0)">
                  <use xlink:href="#rim" fill="#404040">
                        <set attributeName="fill" to="#808080" begin="arrowRight.mouseover" end="arrowRight.mouseout"/>
                  </use>
                  <path fill="none" stroke="white" stroke-width="1.5" d="M0,-3.0v7 M-2.5,-0.5L0,-3.0L2.5,-0.5"/>
                </g>
                <g id="arrowDown" xlink:href="#dirArrow" transform="rotate(180) translate(-30 -48)" onmousedown="handlePan(0,1)">
                  <use xlink:href="#rim" fill="#404040">
                        <set attributeName="fill" to="#808080" begin="arrowDown.mouseover" end="arrowDown.mouseout"/>
                  </use>
                  <path fill="none" stroke="white" stroke-width="1.5" d="M0,-3.0v7 M-2.5,-0.5L0,-3.0L2.5,-0.5"/>
                </g>
                <g id="arrowLeft" xlink:href="#dirArrow" transform="rotate(270) translate(-36 17)" onmousedown="handlePan(-1,0)">
                  <use xlink:href="#rim" fill="#404040">
                        <set attributeName="fill" to="#808080" begin="arrowLeft.mouseover" end="arrowLeft.mouseout"/>
                  </use>
                  <path fill="none" stroke="white" stroke-width="1.5" d="M0,-3.0v7 M-2.5,-0.5L0,-3.0L2.5,-0.5"/>
                </g>
        </g>
        <svg viewBox="0 0 15 15" width="100%" height="30px" preserveAspectRatio="xMaxYMin meet">
         <g id="arrow_out" transform="scale(0.3 0.3)">
          <a xlink:href="quickjs_8c_ad35594576a14c10812efaf958c99af8a_cgraph_org.svg" target="_base">
           <rect id="button" ry="5" rx="5" y="6" x="6" height="38" width="38"
                fill="#f2f5e9" fill-opacity="0.5" stroke="#606060" stroke-width="1.0"/>
           <path id="arrow"
             d="M 11.500037,31.436501 C 11.940474,20.09759 22.043105,11.32322 32.158766,21.979434 L 37.068811,17.246167 C 37.068811,17.246167 37.088388,32 37.088388,32 L 22.160133,31.978069 C 22.160133,31.978069 26.997745,27.140456 26.997745,27.140456 C 18.528582,18.264221 13.291696,25.230495 11.500037,31.436501 z"
             style="fill:#404040;"/>
          </a>
         </g>
        </svg>
</svg>
