<?xml version="1.0" encoding="UTF-8" standalone="no"?>
<!DOCTYPE svg PUBLIC "-//W3C//DTD SVG 1.1//EN"
 "http://www.w3.org/Graphics/SVG/1.1/DTD/svg11.dtd">
<!-- Generated by graphviz version 2.40.1 (20161225.0304)
 -->
<!-- Title: js_parse_statement Pages: 1 -->
<svg width="587pt" height="113pt"
 viewBox="0.00 0.00 587.00 113.00" xmlns="http://www.w3.org/2000/svg" xmlns:xlink="http://www.w3.org/1999/xlink">
<g id="graph0" class="graph" transform="scale(1 1) rotate(0) translate(4 109)">
<title>js_parse_statement</title>
<!-- Node330621 -->
<g id="node1" class="node">
<title>Node330621</title>
<polygon fill="#bfbfbf" stroke="#000000" points="0,-38.5 0,-57.5 113,-57.5 113,-38.5 0,-38.5"/>
<text text-anchor="middle" x="56.5" y="-45.5" font-family="Helvetica,sans-Serif" font-size="10.00" fill="#000000">js_parse_statement</text>
</g>
<!-- Node330622 -->
<g id="node2" class="node">
<title>Node330622</title>
<g id="a_node2"><a xlink:href="quickjs_8c.html#ac188b916dd086803591a67de7e7a85f6" target="_top" xlink:title="js_parse_for_in_of">
<polygon fill="none" stroke="#000000" points="149,-85.5 149,-104.5 254,-104.5 254,-85.5 149,-85.5"/>
<text text-anchor="middle" x="201.5" y="-92.5" font-family="Helvetica,sans-Serif" font-size="10.00" fill="#000000">js_parse_for_in_of</text>
</a>
</g>
</g>
<!-- Node330621&#45;&gt;Node330622 -->
<g id="edge1" class="edge">
<title>Node330621&#45;&gt;Node330622</title>
<path fill="none" stroke="#191970" d="M95.3899,-60.6057C119.4542,-68.4058 149.8628,-78.2624 171.9522,-85.4224"/>
<polygon fill="#191970" stroke="#191970" points="96.4349,-57.2652 85.8429,-57.5112 94.2764,-63.9241 96.4349,-57.2652"/>
</g>
<!-- Node330623 -->
<g id="node3" class="node">
<title>Node330623</title>
<g id="a_node3"><a xlink:href="quickjs_8c.html#a9d844c16dcc71701436848074337d32c" target="_top" xlink:title="js_parse_statement\l_or_decl">
<polygon fill="none" stroke="#000000" points="290,-33 290,-63 403,-63 403,-33 290,-33"/>
<text text-anchor="start" x="298" y="-51" font-family="Helvetica,sans-Serif" font-size="10.00" fill="#000000">js_parse_statement</text>
<text text-anchor="middle" x="346.5" y="-40" font-family="Helvetica,sans-Serif" font-size="10.00" fill="#000000">_or_decl</text>
</a>
</g>
</g>
<!-- Node330621&#45;&gt;Node330623 -->
<g id="edge8" class="edge">
<title>Node330621&#45;&gt;Node330623</title>
<path fill="none" stroke="#191970" d="M123.2326,-42.2136C173.539,-40.8374 241.7925,-40.9353 289.5446,-42.5074"/>
<polygon fill="#191970" stroke="#191970" points="122.9933,-38.7191 113.1034,-42.519 123.2043,-45.7159 122.9933,-38.7191"/>
</g>
<!-- Node330622&#45;&gt;Node330623 -->
<g id="edge2" class="edge">
<title>Node330622&#45;&gt;Node330623</title>
<path fill="none" stroke="#191970" d="M240.6092,-82.3232C258.9369,-76.3825 280.907,-69.2612 300.0727,-63.0488"/>
<polygon fill="#191970" stroke="#191970" points="239.2764,-79.0759 230.8429,-85.4888 241.4349,-85.7348 239.2764,-79.0759"/>
</g>
<!-- Node330623&#45;&gt;Node330621 -->
<g id="edge6" class="edge">
<title>Node330623&#45;&gt;Node330621</title>
<path fill="none" stroke="#191970" d="M279.3958,-53.7965C229.0013,-55.1655 160.7544,-55.0603 113.1034,-53.481"/>
<polygon fill="#191970" stroke="#191970" points="279.6539,-57.2905 289.5446,-53.4926 279.4443,-50.2936 279.6539,-57.2905"/>
</g>
<!-- Node330623&#45;&gt;Node330623 -->
<g id="edge7" class="edge">
<title>Node330623&#45;&gt;Node330623</title>
<path fill="none" stroke="#191970" d="M320.9129,-73.4579C324.0887,-78.179 332.6177,-81.5 346.5,-81.5 369.2813,-81.5 377.6462,-72.5566 371.595,-63.159"/>
<polygon fill="#191970" stroke="#191970" points="324.4237,-73.3147 321.405,-63.159 317.4317,-72.9805 324.4237,-73.3147"/>
</g>
<!-- Node330624 -->
<g id="node4" class="node">
<title>Node330624</title>
<g id="a_node4"><a xlink:href="quickjs_8c.html#acc0cac53be5317d9cab6a79afcd7da48" target="_top" xlink:title="js_parse_block">
<polygon fill="none" stroke="#000000" points="464.5,-38.5 464.5,-57.5 553.5,-57.5 553.5,-38.5 464.5,-38.5"/>
<text text-anchor="middle" x="509" y="-45.5" font-family="Helvetica,sans-Serif" font-size="10.00" fill="#000000">js_parse_block</text>
</a>
</g>
</g>
<!-- Node330623&#45;&gt;Node330624 -->
<g id="edge3" class="edge">
<title>Node330623&#45;&gt;Node330624</title>
<path fill="none" stroke="#191970" d="M413.3519,-41.3451C430.5821,-41.1153 448.7047,-41.3019 464.4854,-41.9049"/>
<polygon fill="#191970" stroke="#191970" points="413.2688,-37.8459 403.3346,-41.5285 413.397,-44.8448 413.2688,-37.8459"/>
</g>
<!-- Node330625 -->
<g id="node5" class="node">
<title>Node330625</title>
<g id="a_node5"><a xlink:href="quickjs_8c.html#ab59a3267a100decc9d2d81eb3297794a" target="_top" xlink:title="js_parse_source_element">
<polygon fill="none" stroke="#ff0000" points="439,-.5 439,-19.5 579,-19.5 579,-.5 439,-.5"/>
<text text-anchor="middle" x="509" y="-7.5" font-family="Helvetica,sans-Serif" font-size="10.00" fill="#000000">js_parse_source_element</text>
</a>
</g>
</g>
<!-- Node330623&#45;&gt;Node330625 -->
<g id="edge5" class="edge">
<title>Node330623&#45;&gt;Node330625</title>
<path fill="none" stroke="#191970" d="M413.2725,-32.3855C431.938,-28.0207 451.6568,-23.4095 468.3154,-19.5139"/>
<polygon fill="#191970" stroke="#191970" points="412.2749,-29.0243 403.3346,-34.7094 413.8689,-35.8404 412.2749,-29.0243"/>
</g>
<!-- Node330624&#45;&gt;Node330623 -->
<g id="edge4" class="edge">
<title>Node330624&#45;&gt;Node330623</title>
<path fill="none" stroke="#191970" d="M454.4826,-54.4142C438.0308,-54.8419 419.9334,-54.861 403.3346,-54.4715"/>
<polygon fill="#191970" stroke="#191970" points="454.6021,-57.9123 464.4854,-54.0951 454.3788,-50.9158 454.6021,-57.9123"/>
</g>
</g>
</svg>
