<?xml version="1.0" encoding="UTF-8" standalone="no"?>
<!DOCTYPE svg PUBLIC "-//W3C//DTD SVG 1.1//EN"
 "http://www.w3.org/Graphics/SVG/1.1/DTD/svg11.dtd">
<!-- Generated by graphviz version 2.40.1 (20161225.0304)
 -->
<!-- Title: js_parse_error_reserved_identifier Pages: 1 -->
<!--zoomable 142 -->
<svg id="main" version="1.1" xmlns="http://www.w3.org/2000/svg" xmlns:xlink="http://www.w3.org/1999/xlink" xml:space="preserve" onload="init(evt)">
<style type="text/css"><![CDATA[
.edge:hover path { stroke: red; }
.edge:hover polygon { stroke: red; fill: red; }
]]></style>
<script type="text/javascript"><![CDATA[
var edges = document.getElementsByTagName('g');
if (edges && edges.length) {
  for (var i=0;i<edges.length;i++) {
    if (edges[i].id.substr(0,4)=='edge') {
      edges[i].setAttribute('class','edge');
    }
  }
}
]]></script>
        <defs>
                <circle id="rim" cx="0" cy="0" r="7"/>
                <circle id="rim2" cx="0" cy="0" r="3.5"/>
                <g id="zoomPlus">
                        <use xlink:href="#rim" fill="#404040">
                                <set attributeName="fill" to="#808080" begin="zoomplus.mouseover" end="zoomplus.mouseout"/>
                        </use>
                        <path d="M-4,0h8M0,-4v8" fill="none" stroke="white" stroke-width="1.5" pointer-events="none"/>
                </g>
                <g id="zoomMin">
                        <use xlink:href="#rim" fill="#404040">
                                <set attributeName="fill" to="#808080" begin="zoomminus.mouseover" end="zoomminus.mouseout"/>
                        </use>
                        <path d="M-4,0h8" fill="none" stroke="white" stroke-width="1.5" pointer-events="none"/>
                </g>
                <g id="dirArrow">
                        <path fill="none" stroke="white" stroke-width="1.5" d="M0,-3.0v7 M-2.5,-0.5L0,-3.0L2.5,-0.5"/>
                </g>
               <g id="resetDef">
                       <use xlink:href="#rim2" fill="#404040">
                               <set attributeName="fill" to="#808080" begin="reset.mouseover" end="reset.mouseout"/>
                       </use>
               </g>
        </defs>

<script type="text/javascript">
var viewWidth = 561;
var viewHeight = 142;
var sectionId = 'dynsection-909';
</script>
<script xlink:href="svgpan.js"/>
<svg id="graph" class="graph">
<g id="viewport">
<title>js_parse_error_reserved_identifier</title>
<!-- Node311512 -->
<g id="node1" class="node">
<title>Node311512</title>
<polygon fill="#bfbfbf" stroke="#000000" points="0,-52 0,-82 134,-82 134,-52 0,-52"/>
<text text-anchor="start" x="8" y="-70" font-family="Helvetica,sans-Serif" font-size="10.00" fill="#000000">js_parse_error_reserved</text>
<text text-anchor="middle" x="67" y="-59" font-family="Helvetica,sans-Serif" font-size="10.00" fill="#000000">_identifier</text>
</g>
<!-- Node311513 -->
<g id="node2" class="node">
<title>Node311513</title>
<g id="a_node2"><a xlink:href="quickjs_8c.html#ab18048ab5eea3e47109a5473f78515bc" target="_top" xlink:title="JS_AtomGetStr">
<polygon fill="none" stroke="#000000" points="170,-57.5 170,-76.5 258,-76.5 258,-57.5 170,-57.5"/>
<text text-anchor="middle" x="214" y="-64.5" font-family="Helvetica,sans-Serif" font-size="10.00" fill="#000000">JS_AtomGetStr</text>
</a>
</g>
</g>
<!-- Node311512&#45;&gt;Node311513 -->
<g id="edge1" class="edge">
<title>Node311512&#45;&gt;Node311513</title>
<path fill="none" stroke="#191970" d="M134.0474,-67C142.6608,-67 151.3933,-67 159.7669,-67"/>
<polygon fill="#191970" stroke="#191970" points="159.7706,-70.5001 169.7706,-67 159.7706,-63.5001 159.7706,-70.5001"/>
</g>
<!-- Node311514 -->
<g id="node3" class="node">
<title>Node311514</title>
<g id="a_node3"><a xlink:href="quickjs_8c.html#a4e63c63058f1efe20ee939c165f7b3ad" target="_top" xlink:title="JS_AtomGetStrRT">
<polygon fill="none" stroke="#000000" points="294,-57.5 294,-76.5 394,-76.5 394,-57.5 294,-57.5"/>
<text text-anchor="middle" x="344" y="-64.5" font-family="Helvetica,sans-Serif" font-size="10.00" fill="#000000">JS_AtomGetStrRT</text>
</a>
</g>
</g>
<!-- Node311513&#45;&gt;Node311514 -->
<g id="edge2" class="edge">
<title>Node311513&#45;&gt;Node311514</title>
<path fill="none" stroke="#191970" d="M258.0121,-67C266.2712,-67 275.0368,-67 283.6909,-67"/>
<polygon fill="#191970" stroke="#191970" points="283.7619,-70.5001 293.7619,-67 283.7618,-63.5001 283.7619,-70.5001"/>
</g>
<!-- Node311515 -->
<g id="node4" class="node">
<title>Node311515</title>
<g id="a_node4"><a xlink:href="quickjs_8c.html#a288254c06a39c9fca740a7abdad2834e" target="_top" xlink:title="__JS_AtomIsTaggedInt">
<polygon fill="none" stroke="#000000" points="430,-114.5 430,-133.5 553,-133.5 553,-114.5 430,-114.5"/>
<text text-anchor="middle" x="491.5" y="-121.5" font-family="Helvetica,sans-Serif" font-size="10.00" fill="#000000">__JS_AtomIsTaggedInt</text>
</a>
</g>
</g>
<!-- Node311514&#45;&gt;Node311515 -->
<g id="edge3" class="edge">
<title>Node311514&#45;&gt;Node311515</title>
<path fill="none" stroke="#191970" d="M363.8835,-76.5769C381.1411,-84.6972 406.9135,-96.3667 430,-105 435.9074,-107.2091 442.1991,-109.3676 448.4186,-111.3904"/>
<polygon fill="#191970" stroke="#191970" points="447.477,-114.7635 458.0671,-114.4453 449.59,-108.09 447.477,-114.7635"/>
</g>
<!-- Node311516 -->
<g id="node5" class="node">
<title>Node311516</title>
<g id="a_node5"><a xlink:href="quickjs_8c.html#a89f38938cee8077ce1fbba07946ed185" target="_top" xlink:title="__JS_AtomToUInt32">
<polygon fill="none" stroke="#000000" points="436.5,-76.5 436.5,-95.5 546.5,-95.5 546.5,-76.5 436.5,-76.5"/>
<text text-anchor="middle" x="491.5" y="-83.5" font-family="Helvetica,sans-Serif" font-size="10.00" fill="#000000">__JS_AtomToUInt32</text>
</a>
</g>
</g>
<!-- Node311514&#45;&gt;Node311516 -->
<g id="edge4" class="edge">
<title>Node311514&#45;&gt;Node311516</title>
<path fill="none" stroke="#191970" d="M394.3486,-73.4856C404.5942,-74.8053 415.5119,-76.2117 426.1905,-77.5873"/>
<polygon fill="#191970" stroke="#191970" points="425.9605,-81.0865 436.3257,-78.8928 426.8548,-74.1438 425.9605,-81.0865"/>
</g>
<!-- Node311517 -->
<g id="node6" class="node">
<title>Node311517</title>
<g id="a_node6"><a xlink:href="quickjs_8c.html#ac3bdf708c1dc092fd52508b5d29bd0ce" target="_top" xlink:title="atom_is_free">
<polygon fill="none" stroke="#000000" points="451.5,-38.5 451.5,-57.5 531.5,-57.5 531.5,-38.5 451.5,-38.5"/>
<text text-anchor="middle" x="491.5" y="-45.5" font-family="Helvetica,sans-Serif" font-size="10.00" fill="#000000">atom_is_free</text>
</a>
</g>
</g>
<!-- Node311514&#45;&gt;Node311517 -->
<g id="edge5" class="edge">
<title>Node311514&#45;&gt;Node311517</title>
<path fill="none" stroke="#191970" d="M394.3486,-60.5144C409.402,-58.5753 425.9066,-56.4493 440.9715,-54.5088"/>
<polygon fill="#191970" stroke="#191970" points="441.6647,-57.9485 451.1356,-53.1995 440.7703,-51.0058 441.6647,-57.9485"/>
</g>
<!-- Node311518 -->
<g id="node7" class="node">
<title>Node311518</title>
<g id="a_node7"><a xlink:href="cutils_8h.html#aad4e0decb15ab19e9f45b0ee69542a28" target="_top" xlink:title="unicode_to_utf8">
<polygon fill="none" stroke="#000000" points="444,-.5 444,-19.5 539,-19.5 539,-.5 444,-.5"/>
<text text-anchor="middle" x="491.5" y="-7.5" font-family="Helvetica,sans-Serif" font-size="10.00" fill="#000000">unicode_to_utf8</text>
</a>
</g>
</g>
<!-- Node311514&#45;&gt;Node311518 -->
<g id="edge6" class="edge">
<title>Node311514&#45;&gt;Node311518</title>
<path fill="none" stroke="#191970" d="M363.8835,-57.4231C381.1411,-49.3028 406.9135,-37.6333 430,-29 435.9074,-26.7909 442.1991,-24.6324 448.4186,-22.6096"/>
<polygon fill="#191970" stroke="#191970" points="449.59,-25.91 458.0671,-19.5547 447.477,-19.2365 449.59,-25.91"/>
</g>
</g>
</svg>
        <g id="navigator" transform="translate(0 0)" fill="#404254">
                <rect fill="#f2f5e9" fill-opacity="0.5" stroke="#606060" stroke-width=".5" x="0" y="0" width="60" height="60"/>
                <use id="zoomplus" xlink:href="#zoomPlus" x="17" y="9" onmousedown="handleZoom(evt,'in')"/>
                <use id="zoomminus" xlink:href="#zoomMin" x="42" y="9" onmousedown="handleZoom(evt,'out')"/>
                <use id="reset" xlink:href="#resetDef" x="30" y="36" onmousedown="handleReset()"/>
                <g id="arrowUp" xlink:href="#dirArrow" transform="translate(30 24)" onmousedown="handlePan(0,-1)">
                  <use xlink:href="#rim" fill="#404040">
                        <set attributeName="fill" to="#808080" begin="arrowUp.mouseover" end="arrowUp.mouseout"/>
                  </use>
                  <path fill="none" stroke="white" stroke-width="1.5" d="M0,-3.0v7 M-2.5,-0.5L0,-3.0L2.5,-0.5"/>
                </g>
                <g id="arrowRight" xlink:href="#dirArrow" transform="rotate(90) translate(36 -43)" onmousedown="handlePan(1,0)">
                  <use xlink:href="#rim" fill="#404040">
                        <set attributeName="fill" to="#808080" begin="arrowRight.mouseover" end="arrowRight.mouseout"/>
                  </use>
                  <path fill="none" stroke="white" stroke-width="1.5" d="M0,-3.0v7 M-2.5,-0.5L0,-3.0L2.5,-0.5"/>
                </g>
                <g id="arrowDown" xlink:href="#dirArrow" transform="rotate(180) translate(-30 -48)" onmousedown="handlePan(0,1)">
                  <use xlink:href="#rim" fill="#404040">
                        <set attributeName="fill" to="#808080" begin="arrowDown.mouseover" end="arrowDown.mouseout"/>
                  </use>
                  <path fill="none" stroke="white" stroke-width="1.5" d="M0,-3.0v7 M-2.5,-0.5L0,-3.0L2.5,-0.5"/>
                </g>
                <g id="arrowLeft" xlink:href="#dirArrow" transform="rotate(270) translate(-36 17)" onmousedown="handlePan(-1,0)">
                  <use xlink:href="#rim" fill="#404040">
                        <set attributeName="fill" to="#808080" begin="arrowLeft.mouseover" end="arrowLeft.mouseout"/>
                  </use>
                  <path fill="none" stroke="white" stroke-width="1.5" d="M0,-3.0v7 M-2.5,-0.5L0,-3.0L2.5,-0.5"/>
                </g>
        </g>
        <svg viewBox="0 0 15 15" width="100%" height="30px" preserveAspectRatio="xMaxYMin meet">
         <g id="arrow_out" transform="scale(0.3 0.3)">
          <a xlink:href="quickjs_8c_ab1d195fd11f9d22a0a79a040df2be944_cgraph_org.svg" target="_base">
           <rect id="button" ry="5" rx="5" y="6" x="6" height="38" width="38"
                fill="#f2f5e9" fill-opacity="0.5" stroke="#606060" stroke-width="1.0"/>
           <path id="arrow"
             d="M 11.500037,31.436501 C 11.940474,20.09759 22.043105,11.32322 32.158766,21.979434 L 37.068811,17.246167 C 37.068811,17.246167 37.088388,32 37.088388,32 L 22.160133,31.978069 C 22.160133,31.978069 26.997745,27.140456 26.997745,27.140456 C 18.528582,18.264221 13.291696,25.230495 11.500037,31.436501 z"
             style="fill:#404040;"/>
          </a>
         </g>
        </svg>
</svg>
