<?xml version="1.0" encoding="UTF-8" standalone="no"?>
<!DOCTYPE svg PUBLIC "-//W3C//DTD SVG 1.1//EN"
 "http://www.w3.org/Graphics/SVG/1.1/DTD/svg11.dtd">
<!-- Generated by graphviz version 2.40.1 (20161225.0304)
 -->
<!-- Title: emit_goto Pages: 1 -->
<!--zoomable 638 -->
<svg id="main" version="1.1" xmlns="http://www.w3.org/2000/svg" xmlns:xlink="http://www.w3.org/1999/xlink" xml:space="preserve" onload="init(evt)">
<style type="text/css"><![CDATA[
.edge:hover path { stroke: red; }
.edge:hover polygon { stroke: red; fill: red; }
]]></style>
<script type="text/javascript"><![CDATA[
var edges = document.getElementsByTagName('g');
if (edges && edges.length) {
  for (var i=0;i<edges.length;i++) {
    if (edges[i].id.substr(0,4)=='edge') {
      edges[i].setAttribute('class','edge');
    }
  }
}
]]></script>
        <defs>
                <circle id="rim" cx="0" cy="0" r="7"/>
                <circle id="rim2" cx="0" cy="0" r="3.5"/>
                <g id="zoomPlus">
                        <use xlink:href="#rim" fill="#404040">
                                <set attributeName="fill" to="#808080" begin="zoomplus.mouseover" end="zoomplus.mouseout"/>
                        </use>
                        <path d="M-4,0h8M0,-4v8" fill="none" stroke="white" stroke-width="1.5" pointer-events="none"/>
                </g>
                <g id="zoomMin">
                        <use xlink:href="#rim" fill="#404040">
                                <set attributeName="fill" to="#808080" begin="zoomminus.mouseover" end="zoomminus.mouseout"/>
                        </use>
                        <path d="M-4,0h8" fill="none" stroke="white" stroke-width="1.5" pointer-events="none"/>
                </g>
                <g id="dirArrow">
                        <path fill="none" stroke="white" stroke-width="1.5" d="M0,-3.0v7 M-2.5,-0.5L0,-3.0L2.5,-0.5"/>
                </g>
               <g id="resetDef">
                       <use xlink:href="#rim2" fill="#404040">
                               <set attributeName="fill" to="#808080" begin="reset.mouseover" end="reset.mouseout"/>
                       </use>
               </g>
        </defs>

<script type="text/javascript">
var viewWidth = 1212;
var viewHeight = 638;
var sectionId = 'dynsection-949';
</script>
<script xlink:href="svgpan.js"/>
<svg id="graph" class="graph">
<g id="viewport">
<title>emit_goto</title>
<!-- Node312848 -->
<g id="node1" class="node">
<title>Node312848</title>
<polygon fill="#bfbfbf" stroke="#000000" points="0,-269.4535 0,-288.4535 66,-288.4535 66,-269.4535 0,-269.4535"/>
<text text-anchor="middle" x="33" y="-276.4535" font-family="Helvetica,sans-Serif" font-size="10.00" fill="#000000">emit_goto</text>
</g>
<!-- Node312849 -->
<g id="node2" class="node">
<title>Node312849</title>
<g id="a_node2"><a xlink:href="quickjs_8c.html#abb105b8bb34f4bf0a39ade5bc0252191" target="_top" xlink:title="emit_break">
<polygon fill="none" stroke="#000000" points="301,-458.4535 301,-477.4535 373,-477.4535 373,-458.4535 301,-458.4535"/>
<text text-anchor="middle" x="337" y="-465.4535" font-family="Helvetica,sans-Serif" font-size="10.00" fill="#000000">emit_break</text>
</a>
</g>
</g>
<!-- Node312848&#45;&gt;Node312849 -->
<g id="edge1" class="edge">
<title>Node312848&#45;&gt;Node312849</title>
<path fill="none" stroke="#191970" d="M37.1898,-298.4906C44.705,-328.5903 63.4312,-385.9582 102,-415.9535 160.5476,-461.4865 250.8817,-468.8769 300.7768,-469.1279"/>
<polygon fill="#191970" stroke="#191970" points="40.5944,-297.6784 34.9123,-288.7362 33.7778,-299.2701 40.5944,-297.6784"/>
</g>
<!-- Node312850 -->
<g id="node3" class="node">
<title>Node312850</title>
<g id="a_node3"><a xlink:href="quickjs_8c.html#a9d844c16dcc71701436848074337d32c" target="_top" xlink:title="js_parse_statement\l_or_decl">
<polygon fill="none" stroke="#000000" points="439,-459.9535 439,-489.9535 552,-489.9535 552,-459.9535 439,-459.9535"/>
<text text-anchor="start" x="447" y="-477.9535" font-family="Helvetica,sans-Serif" font-size="10.00" fill="#000000">js_parse_statement</text>
<text text-anchor="middle" x="495.5" y="-466.9535" font-family="Helvetica,sans-Serif" font-size="10.00" fill="#000000">_or_decl</text>
</a>
</g>
</g>
<!-- Node312848&#45;&gt;Node312850 -->
<g id="edge48" class="edge">
<title>Node312848&#45;&gt;Node312850</title>
<path fill="none" stroke="#191970" d="M34.7921,-299.1817C39.1963,-336.0355 53.9777,-413.9923 102,-453.9535 198.7607,-534.4718 359.7106,-510.0937 442.591,-490.0118"/>
<polygon fill="#191970" stroke="#191970" points="38.2231,-298.3404 33.6978,-288.7607 31.2614,-299.0715 38.2231,-298.3404"/>
</g>
<!-- Node312852 -->
<g id="node5" class="node">
<title>Node312852</title>
<g id="a_node5"><a xlink:href="quickjs_8c.html#ac188b916dd086803591a67de7e7a85f6" target="_top" xlink:title="js_parse_for_in_of">
<polygon fill="none" stroke="#000000" points="778.5,-541.4535 778.5,-560.4535 883.5,-560.4535 883.5,-541.4535 778.5,-541.4535"/>
<text text-anchor="middle" x="831" y="-548.4535" font-family="Helvetica,sans-Serif" font-size="10.00" fill="#000000">js_parse_for_in_of</text>
</a>
</g>
</g>
<!-- Node312848&#45;&gt;Node312852 -->
<g id="edge43" class="edge">
<title>Node312848&#45;&gt;Node312852</title>
<path fill="none" stroke="#191970" d="M34.5677,-298.7009C38.7399,-339.4866 53.3683,-434.2028 102,-493.9535 177.7574,-587.0318 216.9885,-626.9535 337,-626.9535 337,-626.9535 337,-626.9535 495.5,-626.9535 599.1778,-626.9535 628.7556,-637.9473 728,-607.9535 762.8232,-597.4292 799.0167,-573.983 817.8393,-560.6726"/>
<polygon fill="#191970" stroke="#191970" points="38.0493,-298.3389 33.6486,-288.7012 31.0786,-298.9796 38.0493,-298.3389"/>
</g>
<!-- Node312855 -->
<g id="node8" class="node">
<title>Node312855</title>
<g id="a_node8"><a xlink:href="quickjs_8c.html#acc9eb677cab8dfcf45f59381f8a19601" target="_top" xlink:title="js_parse_function_decl2">
<polygon fill="none" stroke="#ff0000" points="764,-216.4535 764,-235.4535 898,-235.4535 898,-216.4535 764,-216.4535"/>
<text text-anchor="middle" x="831" y="-223.4535" font-family="Helvetica,sans-Serif" font-size="10.00" fill="#000000">js_parse_function_decl2</text>
</a>
</g>
</g>
<!-- Node312848&#45;&gt;Node312855 -->
<g id="edge44" class="edge">
<title>Node312848&#45;&gt;Node312855</title>
<path fill="none" stroke="#191970" d="M37.0474,-259.0829C44.3065,-229.1 62.6174,-173.0326 102,-146.9535 189.3663,-89.0995 232.2147,-127.9535 337,-127.9535 337,-127.9535 337,-127.9535 495.5,-127.9535 620.8054,-127.9535 762.2574,-191.719 812.2747,-216.3784"/>
<polygon fill="#191970" stroke="#191970" points="33.5562,-258.6568 34.7855,-269.18 40.3869,-260.187 33.5562,-258.6568"/>
</g>
<!-- Node312886 -->
<g id="node11" class="node">
<title>Node312886</title>
<g id="a_node11"><a xlink:href="quickjs_8c.html#a1e86277b96b55991d572603e00fef94d" target="_top" xlink:title="emit_class_field_init">
<polygon fill="none" stroke="#000000" points="600,-80.4535 600,-99.4535 716,-99.4535 716,-80.4535 600,-80.4535"/>
<text text-anchor="middle" x="658" y="-87.4535" font-family="Helvetica,sans-Serif" font-size="10.00" fill="#000000">emit_class_field_init</text>
</a>
</g>
</g>
<!-- Node312848&#45;&gt;Node312886 -->
<g id="edge16" class="edge">
<title>Node312848&#45;&gt;Node312886</title>
<path fill="none" stroke="#191970" d="M34.6582,-259.1715C38.843,-223.2613 53.2788,-147.9279 102,-113.9535 180.9546,-58.8966 473.8204,-75.0047 599.7851,-84.852"/>
<polygon fill="#191970" stroke="#191970" points="31.1535,-259.0414 33.6292,-269.343 38.118,-259.746 31.1535,-259.0414"/>
</g>
<!-- Node312887 -->
<g id="node12" class="node">
<title>Node312887</title>
<g id="a_node12"><a xlink:href="quickjs_8c.html#a38e4107378b0d9abd638e4fe13541678" target="_top" xlink:title="emit_class_init_start">
<polygon fill="none" stroke="#000000" points="599,-42.4535 599,-61.4535 717,-61.4535 717,-42.4535 599,-42.4535"/>
<text text-anchor="middle" x="658" y="-49.4535" font-family="Helvetica,sans-Serif" font-size="10.00" fill="#000000">emit_class_init_start</text>
</a>
</g>
</g>
<!-- Node312848&#45;&gt;Node312887 -->
<g id="edge19" class="edge">
<title>Node312848&#45;&gt;Node312887</title>
<path fill="none" stroke="#191970" d="M36.8083,-259.3152C46.2067,-213.067 71.9359,-99.4915 102,-76.9535 178.8295,-19.3571 471.49,-36.124 598.5446,-46.5037"/>
<polygon fill="#191970" stroke="#191970" points="33.3418,-258.8024 34.8234,-269.2932 40.2073,-260.1683 33.3418,-258.8024"/>
</g>
<!-- Node312889 -->
<g id="node14" class="node">
<title>Node312889</title>
<g id="a_node14"><a xlink:href="quickjs_8c.html#acea69d5aa6481a035d0833b8bce455f5" target="_top" xlink:title="emit_return">
<polygon fill="none" stroke="#000000" points="131.5,-326.4535 131.5,-345.4535 205.5,-345.4535 205.5,-326.4535 131.5,-326.4535"/>
<text text-anchor="middle" x="168.5" y="-333.4535" font-family="Helvetica,sans-Serif" font-size="10.00" fill="#000000">emit_return</text>
</a>
</g>
</g>
<!-- Node312848&#45;&gt;Node312889 -->
<g id="edge23" class="edge">
<title>Node312848&#45;&gt;Node312889</title>
<path fill="none" stroke="#191970" d="M60.7922,-293.0241C73.2623,-299.1346 88.2361,-306.1952 102,-311.9535 114.3421,-317.1169 128.2299,-322.2343 140.1097,-326.4088"/>
<polygon fill="#191970" stroke="#191970" points="62.3203,-289.8752 51.8057,-288.5739 59.2138,-296.1482 62.3203,-289.8752"/>
</g>
<!-- Node312869 -->
<g id="node15" class="node">
<title>Node312869</title>
<g id="a_node15"><a xlink:href="quickjs_8c.html#afa1bc2743b3cf892d36544a708453736" target="_top" xlink:title="js_parse_assign_expr2">
<polygon fill="none" stroke="#ff0000" points="273.5,-248.4535 273.5,-267.4535 400.5,-267.4535 400.5,-248.4535 273.5,-248.4535"/>
<text text-anchor="middle" x="337" y="-255.4535" font-family="Helvetica,sans-Serif" font-size="10.00" fill="#000000">js_parse_assign_expr2</text>
</a>
</g>
</g>
<!-- Node312848&#45;&gt;Node312869 -->
<g id="edge38" class="edge">
<title>Node312848&#45;&gt;Node312869</title>
<path fill="none" stroke="#191970" d="M76.4963,-279.5167C117.4687,-279.6594 180.5228,-278.8791 235,-273.9535 251.2454,-272.4846 268.8298,-270.0383 284.7486,-267.495"/>
<polygon fill="#191970" stroke="#191970" points="76.3379,-276.0159 66.3187,-279.4606 76.2992,-283.0158 76.3379,-276.0159"/>
</g>
<!-- Node312868 -->
<g id="node16" class="node">
<title>Node312868</title>
<g id="a_node16"><a xlink:href="quickjs_8c.html#a6686f5baeecd532b043761b6c24ed431" target="_top" xlink:title="js_parse_cond_expr">
<polygon fill="none" stroke="#000000" points="439,-199.4535 439,-218.4535 552,-218.4535 552,-199.4535 439,-199.4535"/>
<text text-anchor="middle" x="495.5" y="-206.4535" font-family="Helvetica,sans-Serif" font-size="10.00" fill="#000000">js_parse_cond_expr</text>
</a>
</g>
</g>
<!-- Node312848&#45;&gt;Node312868 -->
<g id="edge41" class="edge">
<title>Node312848&#45;&gt;Node312868</title>
<path fill="none" stroke="#191970" d="M76.0121,-271.2765C123.6255,-262.8829 202.681,-249.2563 271,-238.9535 327.9629,-230.3632 393.251,-221.7801 438.6812,-216.0092"/>
<polygon fill="#191970" stroke="#191970" points="75.2938,-267.8491 66.0557,-273.0362 76.5122,-274.7423 75.2938,-267.8491"/>
</g>
<!-- Node312890 -->
<g id="node17" class="node">
<title>Node312890</title>
<g id="a_node17"><a xlink:href="quickjs_8c.html#a98ab69061f85c400e0eed2c0eb47f49b" target="_top" xlink:title="js_emit_spread_code">
<polygon fill="none" stroke="#000000" points="109,-364.4535 109,-383.4535 228,-383.4535 228,-364.4535 109,-364.4535"/>
<text text-anchor="middle" x="168.5" y="-371.4535" font-family="Helvetica,sans-Serif" font-size="10.00" fill="#000000">js_emit_spread_code</text>
</a>
</g>
</g>
<!-- Node312848&#45;&gt;Node312890 -->
<g id="edge31" class="edge">
<title>Node312848&#45;&gt;Node312890</title>
<path fill="none" stroke="#191970" d="M45.1298,-297.3775C57.4626,-314.6964 78.1165,-340.1135 102,-354.9535 108.2212,-358.819 115.2534,-361.9212 122.3568,-364.4042"/>
<polygon fill="#191970" stroke="#191970" points="47.7174,-294.9634 39.1667,-288.7076 41.9499,-298.9303 47.7174,-294.9634"/>
</g>
<!-- Node312860 -->
<g id="node18" class="node">
<title>Node312860</title>
<g id="a_node18"><a xlink:href="quickjs_8c.html#a26be546cf89c4580ba9020e8fc43a759" target="_top" xlink:title="js_parse_destructuring\l_element">
<polygon fill="none" stroke="#ff0000" points="273.5,-352.9535 273.5,-382.9535 400.5,-382.9535 400.5,-352.9535 273.5,-352.9535"/>
<text text-anchor="start" x="281.5" y="-370.9535" font-family="Helvetica,sans-Serif" font-size="10.00" fill="#000000">js_parse_destructuring</text>
<text text-anchor="middle" x="337" y="-359.9535" font-family="Helvetica,sans-Serif" font-size="10.00" fill="#000000">_element</text>
</a>
</g>
</g>
<!-- Node312848&#45;&gt;Node312860 -->
<g id="edge42" class="edge">
<title>Node312848&#45;&gt;Node312860</title>
<path fill="none" stroke="#191970" d="M38.263,-298.4333C46.6901,-325.2957 66.0422,-372.6861 102,-392.9535 166.1573,-429.1153 255.8799,-402.2748 303.774,-383.0042"/>
<polygon fill="#191970" stroke="#191970" points="41.5592,-297.2353 35.3871,-288.6239 34.8419,-299.2047 41.5592,-297.2353"/>
</g>
<!-- Node312867 -->
<g id="node19" class="node">
<title>Node312867</title>
<g id="a_node19"><a xlink:href="quickjs_8c.html#a93b69939f7af67646a177249bf2deb4d" target="_top" xlink:title="js_parse_coalesce_expr">
<polygon fill="none" stroke="#000000" points="271,-172.4535 271,-191.4535 403,-191.4535 403,-172.4535 271,-172.4535"/>
<text text-anchor="middle" x="337" y="-179.4535" font-family="Helvetica,sans-Serif" font-size="10.00" fill="#000000">js_parse_coalesce_expr</text>
</a>
</g>
</g>
<!-- Node312848&#45;&gt;Node312867 -->
<g id="edge39" class="edge">
<title>Node312848&#45;&gt;Node312867</title>
<path fill="none" stroke="#191970" d="M59.794,-264.7508C72.3761,-258.4442 87.7181,-251.2641 102,-245.9535 166.8004,-221.858 244.6853,-202.435 292.5091,-191.5447"/>
<polygon fill="#191970" stroke="#191970" points="58.0873,-261.6924 50.7736,-269.3579 61.2713,-267.9264 58.0873,-261.6924"/>
</g>
<!-- Node312866 -->
<g id="node20" class="node">
<title>Node312866</title>
<g id="a_node20"><a xlink:href="quickjs_8c.html#aae2d76e4aa080c7737119ef079a9b97d" target="_top" xlink:title="js_parse_logical_and_or">
<polygon fill="none" stroke="#000000" points="102,-156.4535 102,-175.4535 235,-175.4535 235,-156.4535 102,-156.4535"/>
<text text-anchor="middle" x="168.5" y="-163.4535" font-family="Helvetica,sans-Serif" font-size="10.00" fill="#000000">js_parse_logical_and_or</text>
</a>
</g>
</g>
<!-- Node312848&#45;&gt;Node312866 -->
<g id="edge45" class="edge">
<title>Node312848&#45;&gt;Node312866</title>
<path fill="none" stroke="#191970" d="M47.8973,-261.4324C61.2226,-246.3202 81.7262,-224.3984 102,-207.9535 117.4831,-195.3944 136.9353,-183.4998 150.7934,-175.5966"/>
<polygon fill="#191970" stroke="#191970" points="45.1961,-259.205 41.28,-269.0495 50.4805,-263.7958 45.1961,-259.205"/>
</g>
<!-- Node312891 -->
<g id="node21" class="node">
<title>Node312891</title>
<g id="a_node21"><a xlink:href="quickjs_8c.html#a964237617fb99ed93ebe4abda62d6c84" target="_top" xlink:title="optional_chain_test">
<polygon fill="none" stroke="#000000" points="934,-23.4535 934,-42.4535 1046,-42.4535 1046,-23.4535 934,-23.4535"/>
<text text-anchor="middle" x="990" y="-30.4535" font-family="Helvetica,sans-Serif" font-size="10.00" fill="#000000">optional_chain_test</text>
</a>
</g>
</g>
<!-- Node312848&#45;&gt;Node312891 -->
<g id="edge49" class="edge">
<title>Node312848&#45;&gt;Node312891</title>
<path fill="none" stroke="#191970" d="M35.7866,-259.2427C43.596,-206.984 67.4087,-66.9042 102,-37.9535 182.5109,29.4291 232.0123,-13.9535 337,-13.9535 337,-13.9535 337,-13.9535 658,-13.9535 755.1361,-13.9535 867.9977,-22.1605 933.9567,-27.7867"/>
<polygon fill="#191970" stroke="#191970" points="32.3071,-258.8489 34.328,-269.2492 39.2339,-259.8586 32.3071,-258.8489"/>
</g>
<!-- Node312849&#45;&gt;Node312850 -->
<g id="edge2" class="edge">
<title>Node312849&#45;&gt;Node312850</title>
<path fill="none" stroke="#191970" d="M383.7501,-470.0181C401.0086,-470.7803 420.7544,-471.6524 438.7989,-472.4493"/>
<polygon fill="#191970" stroke="#191970" points="383.5078,-466.5041 373.3631,-469.5594 383.1989,-473.4973 383.5078,-466.5041"/>
</g>
<!-- Node312850&#45;&gt;Node312850 -->
<g id="edge9" class="edge">
<title>Node312850&#45;&gt;Node312850</title>
<path fill="none" stroke="#191970" d="M467.4253,-500.4114C470.9098,-505.1324 480.268,-508.4535 495.5,-508.4535 520.4961,-508.4535 529.6743,-499.51 523.0348,-490.1125"/>
<polygon fill="#191970" stroke="#191970" points="470.9368,-500.282 467.9652,-490.1125 463.9464,-499.9155 470.9368,-500.282"/>
</g>
<!-- Node312851 -->
<g id="node4" class="node">
<title>Node312851</title>
<g id="a_node4"><a xlink:href="quickjs_8c.html#a729d43e44d20f1ed655cd9f4843995d3" target="_top" xlink:title="js_parse_statement">
<polygon fill="none" stroke="#000000" points="601.5,-579.4535 601.5,-598.4535 714.5,-598.4535 714.5,-579.4535 601.5,-579.4535"/>
<text text-anchor="middle" x="658" y="-586.4535" font-family="Helvetica,sans-Serif" font-size="10.00" fill="#000000">js_parse_statement</text>
</a>
</g>
</g>
<!-- Node312850&#45;&gt;Node312851 -->
<g id="edge3" class="edge">
<title>Node312850&#45;&gt;Node312851</title>
<path fill="none" stroke="#191970" d="M520.1158,-497.3749C537.3742,-515.4172 561.9421,-539.9414 588,-555.9535 605.8418,-566.9169 629.3419,-573.6489 644.0616,-579.4165"/>
<polygon fill="#191970" stroke="#191970" points="522.6105,-494.9192 513.1839,-490.0831 517.5372,-499.7422 522.6105,-494.9192"/>
</g>
<!-- Node312853 -->
<g id="node6" class="node">
<title>Node312853</title>
<g id="a_node6"><a xlink:href="quickjs_8c.html#acc0cac53be5317d9cab6a79afcd7da48" target="_top" xlink:title="js_parse_block">
<polygon fill="none" stroke="#000000" points="613.5,-427.4535 613.5,-446.4535 702.5,-446.4535 702.5,-427.4535 613.5,-427.4535"/>
<text text-anchor="middle" x="658" y="-434.4535" font-family="Helvetica,sans-Serif" font-size="10.00" fill="#000000">js_parse_block</text>
</a>
</g>
</g>
<!-- Node312850&#45;&gt;Node312853 -->
<g id="edge7" class="edge">
<title>Node312850&#45;&gt;Node312853</title>
<path fill="none" stroke="#191970" d="M544.5852,-457.219C566.4313,-451.4041 591.9769,-445.4815 613.2871,-441.3068"/>
<polygon fill="#191970" stroke="#191970" points="543.5641,-453.8696 534.8367,-459.8765 545.4052,-460.6232 543.5641,-453.8696"/>
</g>
<!-- Node312854 -->
<g id="node7" class="node">
<title>Node312854</title>
<g id="a_node7"><a xlink:href="quickjs_8c.html#ab59a3267a100decc9d2d81eb3297794a" target="_top" xlink:title="js_parse_source_element">
<polygon fill="none" stroke="#ff0000" points="588,-465.4535 588,-484.4535 728,-484.4535 728,-465.4535 588,-465.4535"/>
<text text-anchor="middle" x="658" y="-472.4535" font-family="Helvetica,sans-Serif" font-size="10.00" fill="#000000">js_parse_source_element</text>
</a>
</g>
</g>
<!-- Node312850&#45;&gt;Node312854 -->
<g id="edge10" class="edge">
<title>Node312850&#45;&gt;Node312854</title>
<path fill="none" stroke="#191970" d="M562.4093,-474.9535C570.7742,-474.9535 579.3486,-474.9535 587.7625,-474.9535"/>
<polygon fill="#191970" stroke="#191970" points="562.3346,-471.4536 552.3346,-474.9535 562.3346,-478.4536 562.3346,-471.4536"/>
</g>
<!-- Node312851&#45;&gt;Node312850 -->
<g id="edge6" class="edge">
<title>Node312851&#45;&gt;Node312850</title>
<path fill="none" stroke="#191970" d="M591.984,-576.2817C590.6297,-575.5284 589.2998,-574.7522 588,-573.9535 551.3471,-551.431 517.6423,-512.0672 503.0807,-489.9961"/>
<polygon fill="#191970" stroke="#191970" points="590.7101,-579.5583 601.2179,-580.9137 593.8488,-573.3014 590.7101,-579.5583"/>
</g>
<!-- Node312851&#45;&gt;Node312852 -->
<g id="edge4" class="edge">
<title>Node312851&#45;&gt;Node312852</title>
<path fill="none" stroke="#191970" d="M711.5051,-577.2009C735.9673,-571.8277 764.5707,-565.5449 787.6587,-560.4735"/>
<polygon fill="#191970" stroke="#191970" points="710.6714,-573.8005 701.6552,-579.3645 712.1733,-580.6375 710.6714,-573.8005"/>
</g>
<!-- Node312852&#45;&gt;Node312850 -->
<g id="edge5" class="edge">
<title>Node312852&#45;&gt;Node312850</title>
<path fill="none" stroke="#191970" d="M768.0801,-551.7809C718.1678,-550.7761 647.1985,-545.6094 588,-526.9535 561.6439,-518.6476 534.4165,-502.2223 516.3875,-490.0443"/>
<polygon fill="#191970" stroke="#191970" points="768.0336,-555.2805 778.0854,-551.9323 768.1396,-548.2813 768.0336,-555.2805"/>
</g>
<!-- Node312853&#45;&gt;Node312850 -->
<g id="edge8" class="edge">
<title>Node312853&#45;&gt;Node312850</title>
<path fill="none" stroke="#191970" d="M627.6118,-449.4602C606.4766,-455.7109 577.661,-462.8063 552.3346,-468.1344"/>
<polygon fill="#191970" stroke="#191970" points="628.7938,-452.7584 637.3213,-446.4709 626.7341,-446.0683 628.7938,-452.7584"/>
</g>
<!-- Node312854&#45;&gt;Node312855 -->
<g id="edge11" class="edge">
<title>Node312854&#45;&gt;Node312855</title>
<path fill="none" stroke="#191970" d="M721.724,-460.5712C723.9285,-459.1711 726.032,-457.6362 728,-455.9535 800.4932,-393.9708 824.2128,-270.7659 829.6572,-235.5551"/>
<polygon fill="#191970" stroke="#191970" points="719.9725,-457.5386 712.7932,-465.3302 723.2644,-463.7162 719.9725,-457.5386"/>
</g>
<!-- Node312857 -->
<g id="node9" class="node">
<title>Node312857</title>
<g id="a_node9"><a xlink:href="quickjs_8c.html#a00eb789430243c24dab4a63ad6a79653" target="_top" xlink:title="js_parse_class">
<polygon fill="none" stroke="#ff0000" points="946.5,-80.4535 946.5,-99.4535 1033.5,-99.4535 1033.5,-80.4535 946.5,-80.4535"/>
<text text-anchor="middle" x="990" y="-87.4535" font-family="Helvetica,sans-Serif" font-size="10.00" fill="#000000">js_parse_class</text>
</a>
</g>
</g>
<!-- Node312855&#45;&gt;Node312857 -->
<g id="edge12" class="edge">
<title>Node312855&#45;&gt;Node312857</title>
<path fill="none" stroke="#191970" d="M849.8542,-209.8266C883.1896,-181.3133 951.5657,-122.828 978.619,-99.6882"/>
<polygon fill="#191970" stroke="#191970" points="847.5049,-207.2304 842.1806,-216.3902 852.0549,-212.5499 847.5049,-207.2304"/>
</g>
<!-- Node312857&#45;&gt;Node312850 -->
<g id="edge15" class="edge">
<title>Node312857&#45;&gt;Node312850</title>
<path fill="none" stroke="#191970" d="M984.7587,-109.3995C965.0737,-178.0222 888.3542,-409.2697 728,-493.9535 666.0452,-526.672 581.648,-506.4925 533.4343,-489.968"/>
<polygon fill="#191970" stroke="#191970" points="988.2034,-110.0769 987.5206,-99.5041 981.4611,-108.195 988.2034,-110.0769"/>
</g>
<!-- Node312858 -->
<g id="node10" class="node">
<title>Node312858</title>
<g id="a_node10"><a xlink:href="quickjs_8c.html#a840642c87c5a82d4cc68333376a3b6de" target="_top" xlink:title="js_parse_postfix_expr">
<polygon fill="none" stroke="#ff0000" points="1082,-99.4535 1082,-118.4535 1204,-118.4535 1204,-99.4535 1082,-99.4535"/>
<text text-anchor="middle" x="1143" y="-106.4535" font-family="Helvetica,sans-Serif" font-size="10.00" fill="#000000">js_parse_postfix_expr</text>
</a>
</g>
</g>
<!-- Node312857&#45;&gt;Node312858 -->
<g id="edge13" class="edge">
<title>Node312857&#45;&gt;Node312858</title>
<path fill="none" stroke="#191970" d="M1043.8989,-96.6468C1056.1442,-98.1674 1069.2382,-99.7935 1081.7633,-101.3489"/>
<polygon fill="#191970" stroke="#191970" points="1044.1988,-93.1572 1033.8437,-95.3981 1043.3361,-100.1039 1044.1988,-93.1572"/>
</g>
<!-- Node312858&#45;&gt;Node312858 -->
<g id="edge14" class="edge">
<title>Node312858&#45;&gt;Node312858</title>
<path fill="none" stroke="#191970" d="M1114.6275,-127.6074C1115.8135,-132.8903 1125.271,-136.9535 1143,-136.9535 1170.0156,-136.9535 1177.8248,-127.5187 1166.4276,-118.7105"/>
<polygon fill="#191970" stroke="#191970" points="1117.7735,-129.1515 1119.5724,-118.7105 1111.6551,-125.7509 1117.7735,-129.1515"/>
</g>
<!-- Node312886&#45;&gt;Node312855 -->
<g id="edge18" class="edge">
<title>Node312886&#45;&gt;Node312855</title>
<path fill="none" stroke="#191970" d="M706.488,-103.0279C713.9893,-106.04 721.421,-109.6547 728,-113.9535 772.2291,-142.853 810.2165,-194.9564 824.7195,-216.3687"/>
<polygon fill="#191970" stroke="#191970" points="707.6014,-99.7081 697.0081,-99.5287 705.1774,-106.275 707.6014,-99.7081"/>
</g>
<!-- Node312886&#45;&gt;Node312858 -->
<g id="edge17" class="edge">
<title>Node312886&#45;&gt;Node312858</title>
<path fill="none" stroke="#191970" d="M726.2129,-95.9595C782.0292,-100.5584 863.0531,-106.5143 934,-108.9535 983.6807,-110.6615 1040.0435,-110.5414 1081.7083,-110.0607"/>
<polygon fill="#191970" stroke="#191970" points="726.3479,-92.4588 716.0922,-95.1178 725.7677,-99.4347 726.3479,-92.4588"/>
</g>
<!-- Node312887&#45;&gt;Node312857 -->
<g id="edge22" class="edge">
<title>Node312887&#45;&gt;Node312857</title>
<path fill="none" stroke="#191970" d="M715.6658,-63.2996C731.3037,-66.1001 748.2618,-68.886 764,-70.9535 827.0482,-79.2358 900.4916,-84.6299 946.1222,-87.4836"/>
<polygon fill="#191970" stroke="#191970" points="716.072,-59.816 705.6062,-61.4646 714.8158,-66.7024 716.072,-59.816"/>
</g>
<!-- Node312888 -->
<g id="node13" class="node">
<title>Node312888</title>
<g id="a_node13"><a xlink:href="quickjs_8c.html#ac9030f2b94f2e8292ad37ab68fc99bbd" target="_top" xlink:title="add_brand">
<polygon fill="none" stroke="#000000" points="797,-42.4535 797,-61.4535 865,-61.4535 865,-42.4535 797,-42.4535"/>
<text text-anchor="middle" x="831" y="-49.4535" font-family="Helvetica,sans-Serif" font-size="10.00" fill="#000000">add_brand</text>
</a>
</g>
</g>
<!-- Node312887&#45;&gt;Node312888 -->
<g id="edge20" class="edge">
<title>Node312887&#45;&gt;Node312888</title>
<path fill="none" stroke="#191970" d="M727.1958,-51.9535C751.18,-51.9535 777.0147,-51.9535 796.9111,-51.9535"/>
<polygon fill="#191970" stroke="#191970" points="727.053,-48.4536 717.0529,-51.9535 727.0529,-55.4536 727.053,-48.4536"/>
</g>
<!-- Node312888&#45;&gt;Node312857 -->
<g id="edge21" class="edge">
<title>Node312888&#45;&gt;Node312857</title>
<path fill="none" stroke="#191970" d="M874.8378,-62.4304C898.3637,-68.053 927.1454,-74.9316 950.05,-80.4057"/>
<polygon fill="#191970" stroke="#191970" points="875.6492,-59.0258 865.1095,-60.1054 874.022,-65.8341 875.6492,-59.0258"/>
</g>
<!-- Node312889&#45;&gt;Node312850 -->
<g id="edge29" class="edge">
<title>Node312889&#45;&gt;Node312850</title>
<path fill="none" stroke="#191970" d="M215.3794,-344.7349C222.352,-347.313 229.1507,-350.6458 235,-354.9535 258.5244,-372.2778 247.5062,-392.5877 271,-409.9535 274.5434,-412.5726 376.6925,-441.5786 441.9655,-459.9469"/>
<polygon fill="#191970" stroke="#191970" points="216.4276,-341.3955 205.8362,-341.6664 214.2848,-348.0595 216.4276,-341.3955"/>
</g>
<!-- Node312889&#45;&gt;Node312855 -->
<g id="edge30" class="edge">
<title>Node312889&#45;&gt;Node312855</title>
<path fill="none" stroke="#191970" d="M215.746,-328.1088C334.3756,-308.4119 644.493,-256.9207 773.4537,-235.5083"/>
<polygon fill="#191970" stroke="#191970" points="214.8301,-324.7129 205.5385,-329.8037 215.9767,-331.6184 214.8301,-324.7129"/>
</g>
<!-- Node312889&#45;&gt;Node312869 -->
<g id="edge24" class="edge">
<title>Node312889&#45;&gt;Node312869</title>
<path fill="none" stroke="#191970" d="M207.3413,-322.973C216.5096,-319.6246 226.1803,-315.8565 235,-311.9535 266.1489,-298.1691 300.908,-278.8792 320.7465,-267.4745"/>
<polygon fill="#191970" stroke="#191970" points="205.897,-319.7721 197.6539,-326.4281 208.2486,-326.3653 205.897,-319.7721"/>
</g>
<!-- Node312869&#45;&gt;Node312852 -->
<g id="edge28" class="edge">
<title>Node312869&#45;&gt;Node312852</title>
<path fill="none" stroke="#191970" d="M410.5616,-265.9338C494.9688,-278.3491 633.8354,-309.0972 728,-382.9535 784.8003,-427.5037 817.9405,-512.7442 827.8363,-541.335"/>
<polygon fill="#191970" stroke="#191970" points="410.9379,-262.4522 400.5446,-264.509 409.952,-269.3824 410.9379,-262.4522"/>
</g>
<!-- Node312869&#45;&gt;Node312869 -->
<g id="edge27" class="edge">
<title>Node312869&#45;&gt;Node312869</title>
<path fill="none" stroke="#191970" d="M307.5076,-276.6074C308.7404,-281.8903 318.5712,-285.9535 337,-285.9535 365.082,-285.9535 373.1995,-276.5187 361.3524,-267.7105"/>
<polygon fill="#191970" stroke="#191970" points="310.6757,-278.1202 312.6476,-267.7105 304.6145,-274.6185 310.6757,-278.1202"/>
</g>
<!-- Node312869&#45;&gt;Node312868 -->
<g id="edge25" class="edge">
<title>Node312869&#45;&gt;Node312868</title>
<path fill="none" stroke="#191970" d="M363.2648,-244.6609C385.1512,-236.327 416.987,-226.0861 443.9369,-218.5244"/>
<polygon fill="#191970" stroke="#191970" points="361.9746,-241.4072 353.9623,-248.3392 364.5487,-247.9168 361.9746,-241.4072"/>
</g>
<!-- Node312868&#45;&gt;Node312869 -->
<g id="edge26" class="edge">
<title>Node312868&#45;&gt;Node312869</title>
<path fill="none" stroke="#191970" d="M469.2193,-222.2521C447.3056,-230.5955 415.4256,-240.8487 388.4604,-248.4113"/>
<polygon fill="#191970" stroke="#191970" points="470.5205,-225.5014 478.533,-218.5696 467.9466,-218.9918 470.5205,-225.5014"/>
</g>
<!-- Node312890&#45;&gt;Node312860 -->
<g id="edge32" class="edge">
<title>Node312890&#45;&gt;Node312860</title>
<path fill="none" stroke="#191970" d="M238.4235,-371.4636C249.9854,-371.0519 261.9182,-370.627 273.3161,-370.2211"/>
<polygon fill="#191970" stroke="#191970" points="238.2503,-367.9675 228.3812,-371.8212 238.4995,-374.963 238.2503,-367.9675"/>
</g>
<!-- Node312860&#45;&gt;Node312850 -->
<g id="edge36" class="edge">
<title>Node312860&#45;&gt;Node312850</title>
<path fill="none" stroke="#191970" d="M368.0454,-388.9116C399.0076,-409.8135 445.8002,-441.4022 473.2408,-459.9268"/>
<polygon fill="#191970" stroke="#191970" points="369.6195,-385.7514 359.373,-383.057 365.7029,-391.5531 369.6195,-385.7514"/>
</g>
<!-- Node312860&#45;&gt;Node312852 -->
<g id="edge35" class="edge">
<title>Node312860&#45;&gt;Node312852</title>
<path fill="none" stroke="#191970" d="M410.7264,-370.7103C508.6627,-375.4957 675.4301,-387.8879 728,-417.9535 780.2243,-447.8214 815.0949,-515.741 826.724,-541.1328"/>
<polygon fill="#191970" stroke="#191970" points="410.7499,-367.2075 400.5954,-370.2303 410.4186,-374.1997 410.7499,-367.2075"/>
</g>
<!-- Node312860&#45;&gt;Node312855 -->
<g id="edge37" class="edge">
<title>Node312860&#45;&gt;Node312855</title>
<path fill="none" stroke="#191970" d="M410.7415,-364.5799C491.4285,-358.7218 623.2366,-342.7067 728,-298.9535 765.8202,-283.1583 803.3467,-251.4872 820.8282,-235.562"/>
<polygon fill="#191970" stroke="#191970" points="410.4095,-361.0944 400.6753,-365.2772 410.8933,-368.0777 410.4095,-361.0944"/>
</g>
<!-- Node312860&#45;&gt;Node312858 -->
<g id="edge34" class="edge">
<title>Node312860&#45;&gt;Node312858</title>
<path fill="none" stroke="#191970" d="M410.6976,-351.6756C475.4962,-338.7916 572.5337,-322.9535 658,-322.9535 658,-322.9535 658,-322.9535 831,-322.9535 977.4748,-322.9535 1105.51,-160.5693 1136.0851,-118.7047"/>
<polygon fill="#191970" stroke="#191970" points="409.6924,-348.3078 400.5814,-353.7152 411.0759,-355.1697 409.6924,-348.3078"/>
</g>
<!-- Node312860&#45;&gt;Node312860 -->
<g id="edge33" class="edge">
<title>Node312860&#45;&gt;Node312860</title>
<path fill="none" stroke="#191970" d="M308.9253,-393.4114C312.4098,-398.1324 321.768,-401.4535 337,-401.4535 361.9961,-401.4535 371.1743,-392.51 364.5348,-383.1125"/>
<polygon fill="#191970" stroke="#191970" points="312.4368,-393.282 309.4652,-383.1125 305.4464,-392.9155 312.4368,-393.282"/>
</g>
<!-- Node312867&#45;&gt;Node312868 -->
<g id="edge40" class="edge">
<title>Node312867&#45;&gt;Node312868</title>
<path fill="none" stroke="#191970" d="M402.9779,-193.1926C415.1494,-195.266 427.7507,-197.4126 439.5892,-199.4292"/>
<polygon fill="#191970" stroke="#191970" points="403.3269,-189.7017 392.8812,-191.4727 402.1514,-196.6023 403.3269,-189.7017"/>
</g>
<!-- Node312866&#45;&gt;Node312867 -->
<g id="edge47" class="edge">
<title>Node312866&#45;&gt;Node312867</title>
<path fill="none" stroke="#191970" d="M245.1231,-173.2293C253.7254,-174.0461 262.4345,-174.8731 270.888,-175.6758"/>
<polygon fill="#191970" stroke="#191970" points="245.3818,-169.7382 235.0957,-172.2771 244.72,-176.7068 245.3818,-169.7382"/>
</g>
<!-- Node312866&#45;&gt;Node312866 -->
<g id="edge46" class="edge">
<title>Node312866&#45;&gt;Node312866</title>
<path fill="none" stroke="#191970" d="M143.5745,-184.9826C144.9341,-190.0814 153.2426,-193.9535 168.5,-193.9535 192.3164,-193.9535 199.2008,-184.5187 189.1533,-175.7105"/>
<polygon fill="#191970" stroke="#191970" points="146.8407,-186.2575 147.8467,-175.7105 140.4831,-183.3281 146.8407,-186.2575"/>
</g>
<!-- Node312891&#45;&gt;Node312858 -->
<g id="edge50" class="edge">
<title>Node312891&#45;&gt;Node312858</title>
<path fill="none" stroke="#191970" d="M1018.7005,-47.2099C1049.4233,-62.4709 1097.3082,-86.2569 1123.7798,-99.4062"/>
<polygon fill="#191970" stroke="#191970" points="1019.8906,-43.8931 1009.3776,-42.5789 1016.7764,-50.1623 1019.8906,-43.8931"/>
</g>
</g>
</svg>
        <g id="navigator" transform="translate(0 0)" fill="#404254">
                <rect fill="#f2f5e9" fill-opacity="0.5" stroke="#606060" stroke-width=".5" x="0" y="0" width="60" height="60"/>
                <use id="zoomplus" xlink:href="#zoomPlus" x="17" y="9" onmousedown="handleZoom(evt,'in')"/>
                <use id="zoomminus" xlink:href="#zoomMin" x="42" y="9" onmousedown="handleZoom(evt,'out')"/>
                <use id="reset" xlink:href="#resetDef" x="30" y="36" onmousedown="handleReset()"/>
                <g id="arrowUp" xlink:href="#dirArrow" transform="translate(30 24)" onmousedown="handlePan(0,-1)">
                  <use xlink:href="#rim" fill="#404040">
                        <set attributeName="fill" to="#808080" begin="arrowUp.mouseover" end="arrowUp.mouseout"/>
                  </use>
                  <path fill="none" stroke="white" stroke-width="1.5" d="M0,-3.0v7 M-2.5,-0.5L0,-3.0L2.5,-0.5"/>
                </g>
                <g id="arrowRight" xlink:href="#dirArrow" transform="rotate(90) translate(36 -43)" onmousedown="handlePan(1,0)">
                  <use xlink:href="#rim" fill="#404040">
                        <set attributeName="fill" to="#808080" begin="arrowRight.mouseover" end="arrowRight.mouseout"/>
                  </use>
                  <path fill="none" stroke="white" stroke-width="1.5" d="M0,-3.0v7 M-2.5,-0.5L0,-3.0L2.5,-0.5"/>
                </g>
                <g id="arrowDown" xlink:href="#dirArrow" transform="rotate(180) translate(-30 -48)" onmousedown="handlePan(0,1)">
                  <use xlink:href="#rim" fill="#404040">
                        <set attributeName="fill" to="#808080" begin="arrowDown.mouseover" end="arrowDown.mouseout"/>
                  </use>
                  <path fill="none" stroke="white" stroke-width="1.5" d="M0,-3.0v7 M-2.5,-0.5L0,-3.0L2.5,-0.5"/>
                </g>
                <g id="arrowLeft" xlink:href="#dirArrow" transform="rotate(270) translate(-36 17)" onmousedown="handlePan(-1,0)">
                  <use xlink:href="#rim" fill="#404040">
                        <set attributeName="fill" to="#808080" begin="arrowLeft.mouseover" end="arrowLeft.mouseout"/>
                  </use>
                  <path fill="none" stroke="white" stroke-width="1.5" d="M0,-3.0v7 M-2.5,-0.5L0,-3.0L2.5,-0.5"/>
                </g>
        </g>
        <svg viewBox="0 0 15 15" width="100%" height="30px" preserveAspectRatio="xMaxYMin meet">
         <g id="arrow_out" transform="scale(0.3 0.3)">
          <a xlink:href="quickjs_8c_a6b3c67655a0facc68b271ce3d401deb3_icgraph_org.svg" target="_base">
           <rect id="button" ry="5" rx="5" y="6" x="6" height="38" width="38"
                fill="#f2f5e9" fill-opacity="0.5" stroke="#606060" stroke-width="1.0"/>
           <path id="arrow"
             d="M 11.500037,31.436501 C 11.940474,20.09759 22.043105,11.32322 32.158766,21.979434 L 37.068811,17.246167 C 37.068811,17.246167 37.088388,32 37.088388,32 L 22.160133,31.978069 C 22.160133,31.978069 26.997745,27.140456 26.997745,27.140456 C 18.528582,18.264221 13.291696,25.230495 11.500037,31.436501 z"
             style="fill:#404040;"/>
          </a>
         </g>
        </svg>
</svg>
