<?xml version="1.0" encoding="UTF-8" standalone="no"?>
<!DOCTYPE svg PUBLIC "-//W3C//DTD SVG 1.1//EN"
 "http://www.w3.org/Graphics/SVG/1.1/DTD/svg11.dtd">
<!-- Generated by graphviz version 2.40.1 (20161225.0304)
 -->
<!-- Title: JS_NewRuntime2 Pages: 1 -->
<svg width="778pt" height="800pt"
 viewBox="0.00 0.00 778.00 800.00" xmlns="http://www.w3.org/2000/svg" xmlns:xlink="http://www.w3.org/1999/xlink">
<g id="graph0" class="graph" transform="scale(1 1) rotate(0) translate(4 796)">
<title>JS_NewRuntime2</title>
<!-- Node1153 -->
<g id="node1" class="node">
<title>Node1153</title>
<polygon fill="#bfbfbf" stroke="#000000" points="0,-283.5 0,-302.5 99,-302.5 99,-283.5 0,-283.5"/>
<text text-anchor="middle" x="49.5" y="-290.5" font-family="Helvetica,sans-Serif" font-size="10.00" fill="#000000">JS_NewRuntime2</text>
</g>
<!-- Node1154 -->
<g id="node2" class="node">
<title>Node1154</title>
<g id="a_node2"><a xlink:href="quickjs_8c.html#a4883d074a00e989747e68453c718c862" target="_top" xlink:title="init_class_range">
<polygon fill="none" stroke="#000000" points="160,-715.5 160,-734.5 255,-734.5 255,-715.5 160,-715.5"/>
<text text-anchor="middle" x="207.5" y="-722.5" font-family="Helvetica,sans-Serif" font-size="10.00" fill="#000000">init_class_range</text>
</a>
</g>
</g>
<!-- Node1153&#45;&gt;Node1154 -->
<g id="edge1" class="edge">
<title>Node1153&#45;&gt;Node1154</title>
<path fill="none" stroke="#191970" d="M50.5071,-302.5901C55.1187,-343.7807 76.5628,-509.0777 135,-630 149.561,-660.1307 174.5545,-690.0062 191.0537,-707.9866"/>
<polygon fill="#191970" stroke="#191970" points="188.578,-710.4634 197.9687,-715.3691 193.6869,-705.678 188.578,-710.4634"/>
</g>
<!-- Node1159 -->
<g id="node4" class="node">
<title>Node1159</title>
<g id="a_node4"><a xlink:href="list_8h.html#a663527a4d757540b2177bef0db1ce5c0" target="_top" xlink:title="init_list_head">
<polygon fill="none" stroke="#000000" points="507.5,-468.5 507.5,-487.5 589.5,-487.5 589.5,-468.5 507.5,-468.5"/>
<text text-anchor="middle" x="548.5" y="-475.5" font-family="Helvetica,sans-Serif" font-size="10.00" fill="#000000">init_list_head</text>
</a>
</g>
</g>
<!-- Node1153&#45;&gt;Node1159 -->
<g id="edge3" class="edge">
<title>Node1153&#45;&gt;Node1159</title>
<path fill="none" stroke="#191970" d="M51.2863,-302.8334C57.1555,-331.9522 78.7902,-417.9479 135,-454 193.5469,-491.5511 399.7327,-486.0546 496.9929,-481.127"/>
<polygon fill="#191970" stroke="#191970" points="497.3754,-484.6119 507.1783,-480.5928 497.0087,-477.6215 497.3754,-484.6119"/>
</g>
<!-- Node1160 -->
<g id="node5" class="node">
<title>Node1160</title>
<g id="a_node5"><a xlink:href="quickjs_8c.html#a1aca23241f0d5313e2eaefa3aabeeb4b" target="_top" xlink:title="init_shape_hash">
<polygon fill="none" stroke="#000000" points="160,-207.5 160,-226.5 255,-226.5 255,-207.5 160,-207.5"/>
<text text-anchor="middle" x="207.5" y="-214.5" font-family="Helvetica,sans-Serif" font-size="10.00" fill="#000000">init_shape_hash</text>
</a>
</g>
</g>
<!-- Node1153&#45;&gt;Node1160 -->
<g id="edge4" class="edge">
<title>Node1153&#45;&gt;Node1160</title>
<path fill="none" stroke="#191970" d="M63.1784,-283.334C79.6243,-272.0364 108.3491,-253.3211 135,-241 144.0213,-236.8293 153.9757,-233.0433 163.5432,-229.7743"/>
<polygon fill="#191970" stroke="#191970" points="164.9117,-233.0088 173.3182,-226.5604 162.7253,-226.359 164.9117,-233.0088"/>
</g>
<!-- Node1161 -->
<g id="node6" class="node">
<title>Node1161</title>
<g id="a_node6"><a xlink:href="quickjs_8c.html#a621d5d7548657b7462a29bea78b5a1e4" target="_top" xlink:title="js_c_function_data_call">
<polygon fill="none" stroke="#000000" points="142.5,-169.5 142.5,-188.5 272.5,-188.5 272.5,-169.5 142.5,-169.5"/>
<text text-anchor="middle" x="207.5" y="-176.5" font-family="Helvetica,sans-Serif" font-size="10.00" fill="#000000">js_c_function_data_call</text>
</a>
</g>
</g>
<!-- Node1153&#45;&gt;Node1161 -->
<g id="edge5" class="edge">
<title>Node1153&#45;&gt;Node1161</title>
<path fill="none" stroke="#191970" d="M55.4559,-283.2231C67.7816,-263.8482 98.0478,-220.5106 135,-198 138.5629,-195.8296 142.3706,-193.9047 146.3058,-192.1981"/>
<polygon fill="#191970" stroke="#191970" points="147.5873,-195.4552 155.6644,-188.5989 145.0745,-188.9218 147.5873,-195.4552"/>
</g>
<!-- Node1162 -->
<g id="node7" class="node">
<title>Node1162</title>
<g id="a_node7"><a xlink:href="quickjs_8c.html#afd4ef2d701fa0702f321925b61c57bbf" target="_top" xlink:title="js_call_bound_function">
<polygon fill="none" stroke="#000000" points="316,-38.5 316,-57.5 444,-57.5 444,-38.5 316,-38.5"/>
<text text-anchor="middle" x="380" y="-45.5" font-family="Helvetica,sans-Serif" font-size="10.00" fill="#000000">js_call_bound_function</text>
</a>
</g>
</g>
<!-- Node1153&#45;&gt;Node1162 -->
<g id="edge6" class="edge">
<title>Node1153&#45;&gt;Node1162</title>
<path fill="none" stroke="#191970" d="M90.5029,-283.4411C155.851,-268.1265 276.6581,-239.4525 280,-236 333.4124,-180.8204 263.8753,-123.3976 316,-67 317.2169,-65.6833 318.5204,-64.4564 319.8956,-63.3132"/>
<polygon fill="#191970" stroke="#191970" points="322.0525,-66.0826 328.4521,-57.639 318.1837,-60.2488 322.0525,-66.0826"/>
</g>
<!-- Node1378 -->
<g id="node11" class="node">
<title>Node1378</title>
<g id="a_node11"><a xlink:href="quickjs_8c.html#acad70023f36797496683e579a4d60461" target="_top" xlink:title="js_get_stack_pointer">
<polygon fill="none" stroke="#000000" points="653,-319.5 653,-338.5 770,-338.5 770,-319.5 653,-319.5"/>
<text text-anchor="middle" x="711.5" y="-326.5" font-family="Helvetica,sans-Serif" font-size="10.00" fill="#000000">js_get_stack_pointer</text>
</a>
</g>
</g>
<!-- Node1153&#45;&gt;Node1378 -->
<g id="edge36" class="edge">
<title>Node1153&#45;&gt;Node1378</title>
<path fill="none" stroke="#191970" d="M59.1922,-302.643C74.2345,-317.1337 104.6414,-344.5729 135,-361 209.5368,-401.3321 232.3339,-407.4941 316,-421 372.1618,-430.066 387.8896,-430.3793 444,-421 533.7272,-406.0014 633.6607,-364.5392 682.051,-342.7638"/>
<polygon fill="#191970" stroke="#191970" points="683.6441,-345.8843 691.2982,-338.5586 680.7464,-339.5122 683.6441,-345.8843"/>
</g>
<!-- Node1594 -->
<g id="node14" class="node">
<title>Node1594</title>
<g id="a_node14"><a xlink:href="quickjs_8c.html#a3486836f2ac17a9fa315904e14858e5a" target="_top" xlink:title="js_call_c_function">
<polygon fill="none" stroke="#000000" points="156,-283.5 156,-302.5 259,-302.5 259,-283.5 156,-283.5"/>
<text text-anchor="middle" x="207.5" y="-290.5" font-family="Helvetica,sans-Serif" font-size="10.00" fill="#000000">js_call_c_function</text>
</a>
</g>
</g>
<!-- Node1153&#45;&gt;Node1594 -->
<g id="edge13" class="edge">
<title>Node1153&#45;&gt;Node1594</title>
<path fill="none" stroke="#191970" d="M99.0587,-293C113.9064,-293 130.3733,-293 145.897,-293"/>
<polygon fill="#191970" stroke="#191970" points="145.9357,-296.5001 155.9357,-293 145.9357,-289.5001 145.9357,-296.5001"/>
</g>
<!-- Node1596 -->
<g id="node19" class="node">
<title>Node1596</title>
<g id="a_node19"><a xlink:href="quickjs_8c.html#ad80a65b72c3a346d8a0047858a5f0b13" target="_top" xlink:title="JS_FreeRuntime">
<polygon fill="none" stroke="#000000" points="161.5,-601.5 161.5,-620.5 253.5,-620.5 253.5,-601.5 161.5,-601.5"/>
<text text-anchor="middle" x="207.5" y="-608.5" font-family="Helvetica,sans-Serif" font-size="10.00" fill="#000000">JS_FreeRuntime</text>
</a>
</g>
</g>
<!-- Node1153&#45;&gt;Node1596 -->
<g id="edge21" class="edge">
<title>Node1153&#45;&gt;Node1596</title>
<path fill="none" stroke="#191970" d="M53.1235,-302.7496C64.1229,-332.0258 98.6088,-421.4968 135,-492 154.1147,-529.0323 180.3332,-570.1101 195.4396,-593.0203"/>
<polygon fill="#191970" stroke="#191970" points="192.5551,-595.0034 201.0032,-601.3971 198.3862,-591.1306 192.5551,-595.0034"/>
</g>
<!-- Node1597 -->
<g id="node26" class="node">
<title>Node1597</title>
<g id="a_node26"><a xlink:href="quickjs_8c.html#ac90552b1f1659acb3dae9a4c62479a30" target="_top" xlink:title="js_generator_function_call">
<polygon fill="none" stroke="#ff0000" points="135,-332.5 135,-351.5 280,-351.5 280,-332.5 135,-332.5"/>
<text text-anchor="middle" x="207.5" y="-339.5" font-family="Helvetica,sans-Serif" font-size="10.00" fill="#000000">js_generator_function_call</text>
</a>
</g>
</g>
<!-- Node1153&#45;&gt;Node1597 -->
<g id="edge29" class="edge">
<title>Node1153&#45;&gt;Node1597</title>
<path fill="none" stroke="#191970" d="M80.3391,-302.564C105.1341,-310.2536 140.1645,-321.1175 167.1815,-329.4961"/>
<polygon fill="#191970" stroke="#191970" points="166.1507,-332.8409 176.7387,-332.4601 168.2242,-326.155 166.1507,-332.8409"/>
</g>
<!-- Node1602 -->
<g id="node29" class="node">
<title>Node1602</title>
<g id="a_node29"><a xlink:href="quickjs_8c.html#a2469c0e8a95a75d5835ec98ea967085f" target="_top" xlink:title="JS_InitAtoms">
<polygon fill="none" stroke="#ff0000" points="168.5,-131.5 168.5,-150.5 246.5,-150.5 246.5,-131.5 168.5,-131.5"/>
<text text-anchor="middle" x="207.5" y="-138.5" font-family="Helvetica,sans-Serif" font-size="10.00" fill="#000000">JS_InitAtoms</text>
</a>
</g>
</g>
<!-- Node1153&#45;&gt;Node1602 -->
<g id="edge37" class="edge">
<title>Node1153&#45;&gt;Node1602</title>
<path fill="none" stroke="#191970" d="M52.9058,-283.2034C62.0283,-258.4571 89.4603,-193.0562 135,-160 141.9631,-154.9457 150.1661,-151.2348 158.5041,-148.5105"/>
<polygon fill="#191970" stroke="#191970" points="159.6173,-151.833 168.2878,-145.7442 157.7128,-145.0971 159.6173,-151.833"/>
</g>
<!-- Node1604 -->
<g id="node30" class="node">
<title>Node1604</title>
<g id="a_node30"><a xlink:href="quickjs_8c.html#a13dc07fcd82cf239eb10a991e6be507d" target="_top" xlink:title="js_malloc_usable_size\l_unknown">
<polygon fill="none" stroke="#000000" points="145,-82 145,-112 270,-112 270,-82 145,-82"/>
<text text-anchor="start" x="153" y="-100" font-family="Helvetica,sans-Serif" font-size="10.00" fill="#000000">js_malloc_usable_size</text>
<text text-anchor="middle" x="207.5" y="-89" font-family="Helvetica,sans-Serif" font-size="10.00" fill="#000000">_unknown</text>
</a>
</g>
</g>
<!-- Node1153&#45;&gt;Node1604 -->
<g id="edge38" class="edge">
<title>Node1153&#45;&gt;Node1604</title>
<path fill="none" stroke="#191970" d="M51.6144,-283.2851C58.3998,-254.3942 82.3295,-168.1587 135,-122 136.9275,-120.3108 138.9751,-118.7342 141.1138,-117.263"/>
<polygon fill="#191970" stroke="#191970" points="142.9684,-120.232 149.7533,-112.0946 139.3748,-114.2249 142.9684,-120.232"/>
</g>
<!-- Node1155 -->
<g id="node3" class="node">
<title>Node1155</title>
<g id="a_node3"><a xlink:href="quickjs_8c.html#ab515cd66efd3e476d2c22d6a55f13194" target="_top" xlink:title="JS_NewClass1">
<polygon fill="none" stroke="#ff0000" points="337.5,-772.5 337.5,-791.5 422.5,-791.5 422.5,-772.5 337.5,-772.5"/>
<text text-anchor="middle" x="380" y="-779.5" font-family="Helvetica,sans-Serif" font-size="10.00" fill="#000000">JS_NewClass1</text>
</a>
</g>
</g>
<!-- Node1154&#45;&gt;Node1155 -->
<g id="edge2" class="edge">
<title>Node1154&#45;&gt;Node1155</title>
<path fill="none" stroke="#191970" d="M233.6894,-734.5711C255.5908,-742.4788 287.704,-753.8507 316,-763 322.6686,-765.1563 329.7577,-767.354 336.6965,-769.4532"/>
<polygon fill="#191970" stroke="#191970" points="336.1051,-772.9295 346.6887,-772.4421 338.1112,-766.2231 336.1051,-772.9295"/>
</g>
<!-- Node1163 -->
<g id="node8" class="node">
<title>Node1163</title>
<g id="a_node8"><a xlink:href="quickjs_8c.html#a1a4c02a29525d5cb2085dd8bca3af350" target="_top" xlink:title="JS_Call">
<polygon fill="none" stroke="#ff0000" points="523.5,-.5 523.5,-19.5 573.5,-19.5 573.5,-.5 523.5,-.5"/>
<text text-anchor="middle" x="548.5" y="-7.5" font-family="Helvetica,sans-Serif" font-size="10.00" fill="#000000">JS_Call</text>
</a>
</g>
</g>
<!-- Node1162&#45;&gt;Node1163 -->
<g id="edge7" class="edge">
<title>Node1162&#45;&gt;Node1163</title>
<path fill="none" stroke="#191970" d="M422.5197,-38.411C450.578,-32.0833 486.8978,-23.8925 513.326,-17.9324"/>
<polygon fill="#191970" stroke="#191970" points="514.3002,-21.3007 523.2852,-15.6864 512.7602,-14.4722 514.3002,-21.3007"/>
</g>
<!-- Node1555 -->
<g id="node9" class="node">
<title>Node1555</title>
<g id="a_node9"><a xlink:href="quickjs_8c.html#a03d5edf3e8bb18809d6675e5c08bac26" target="_top" xlink:title="JS_CallConstructor2">
<polygon fill="none" stroke="#ff0000" points="492.5,-76.5 492.5,-95.5 604.5,-95.5 604.5,-76.5 492.5,-76.5"/>
<text text-anchor="middle" x="548.5" y="-83.5" font-family="Helvetica,sans-Serif" font-size="10.00" fill="#000000">JS_CallConstructor2</text>
</a>
</g>
</g>
<!-- Node1162&#45;&gt;Node1555 -->
<g id="edge8" class="edge">
<title>Node1162&#45;&gt;Node1555</title>
<path fill="none" stroke="#191970" d="M422.5197,-57.589C444.9554,-62.6487 472.6732,-68.8996 496.3925,-74.2488"/>
<polygon fill="#191970" stroke="#191970" points="495.7611,-77.6942 506.2861,-76.4799 497.3011,-70.8657 495.7611,-77.6942"/>
</g>
<!-- Node1377 -->
<g id="node10" class="node">
<title>Node1377</title>
<g id="a_node10"><a xlink:href="quickjs_8c.html#af23ec7c9970ceb4671c59da7abd4b078" target="_top" xlink:title="js_check_stack_overflow">
<polygon fill="none" stroke="#000000" points="480,-209.5 480,-228.5 617,-228.5 617,-209.5 480,-209.5"/>
<text text-anchor="middle" x="548.5" y="-216.5" font-family="Helvetica,sans-Serif" font-size="10.00" fill="#000000">js_check_stack_overflow</text>
</a>
</g>
</g>
<!-- Node1162&#45;&gt;Node1377 -->
<g id="edge9" class="edge">
<title>Node1162&#45;&gt;Node1377</title>
<path fill="none" stroke="#191970" d="M430.2357,-57.5232C435.3024,-59.9949 440.0322,-63.1002 444,-67 481.8941,-104.2444 446.3802,-139.8561 480,-181 488.3517,-191.2208 500.2165,-199.1536 511.7301,-205.0642"/>
<polygon fill="#191970" stroke="#191970" points="510.2799,-208.2501 520.8148,-209.3759 513.2814,-201.9262 510.2799,-208.2501"/>
</g>
<!-- Node1391 -->
<g id="node12" class="node">
<title>Node1391</title>
<g id="a_node12"><a xlink:href="quickjs_8c.html#a24be89a128d1cd7c0908604815b2b854" target="_top" xlink:title="js_same_value">
<polygon fill="none" stroke="#ff0000" points="504,-38.5 504,-57.5 593,-57.5 593,-38.5 504,-38.5"/>
<text text-anchor="middle" x="548.5" y="-45.5" font-family="Helvetica,sans-Serif" font-size="10.00" fill="#000000">js_same_value</text>
</a>
</g>
</g>
<!-- Node1162&#45;&gt;Node1391 -->
<g id="edge11" class="edge">
<title>Node1162&#45;&gt;Node1391</title>
<path fill="none" stroke="#191970" d="M444.1833,-48C460.5099,-48 477.9039,-48 493.7141,-48"/>
<polygon fill="#191970" stroke="#191970" points="493.8479,-51.5001 503.8479,-48 493.8478,-44.5001 493.8479,-51.5001"/>
</g>
<!-- Node1379 -->
<g id="node13" class="node">
<title>Node1379</title>
<g id="a_node13"><a xlink:href="quickjs_8c.html#a8353f635fb8a20553c08db8cf38c17e0" target="_top" xlink:title="JS_ThrowStackOverflow">
<polygon fill="none" stroke="#ff0000" points="483,-152.5 483,-171.5 614,-171.5 614,-152.5 483,-152.5"/>
<text text-anchor="middle" x="548.5" y="-159.5" font-family="Helvetica,sans-Serif" font-size="10.00" fill="#000000">JS_ThrowStackOverflow</text>
</a>
</g>
</g>
<!-- Node1162&#45;&gt;Node1379 -->
<g id="edge12" class="edge">
<title>Node1162&#45;&gt;Node1379</title>
<path fill="none" stroke="#191970" d="M423.6685,-57.6011C430.7406,-60.0898 437.7768,-63.1802 444,-67 463.8274,-79.17 463.0288,-89.0873 480,-105 495.5148,-119.5471 514.1194,-134.9072 528.0217,-146.0125"/>
<polygon fill="#191970" stroke="#191970" points="525.9884,-148.8668 536.0005,-152.3319 530.3345,-143.3794 525.9884,-148.8668"/>
</g>
<!-- Node1377&#45;&gt;Node1378 -->
<g id="edge10" class="edge">
<title>Node1377&#45;&gt;Node1378</title>
<path fill="none" stroke="#191970" d="M562.68,-228.5694C590.9783,-247.6663 654.6686,-290.6475 688.8317,-313.7024"/>
<polygon fill="#191970" stroke="#191970" points="686.9897,-316.6817 697.2367,-319.3744 690.9054,-310.8794 686.9897,-316.6817"/>
</g>
<!-- Node1594&#45;&gt;Node1377 -->
<g id="edge14" class="edge">
<title>Node1594&#45;&gt;Node1377</title>
<path fill="none" stroke="#191970" d="M251.0606,-283.4664C261.1631,-279.974 271.4496,-275.2766 280,-269 302.074,-252.7962 291.6283,-231.484 316,-219 374.8627,-188.8486 453.6171,-197.2923 502.6892,-207.2786"/>
<polygon fill="#191970" stroke="#191970" points="502.1812,-210.749 512.6922,-209.4196 503.6463,-203.9041 502.1812,-210.749"/>
</g>
<!-- Node1594&#45;&gt;Node1379 -->
<g id="edge19" class="edge">
<title>Node1594&#45;&gt;Node1379</title>
<path fill="none" stroke="#191970" d="M254.913,-283.3992C263.9618,-279.9621 272.8325,-275.3052 280,-269 307.7615,-244.5785 286.1242,-215.7841 316,-194 360.7981,-161.3353 423.6598,-154.3543 472.7259,-154.9823"/>
<polygon fill="#191970" stroke="#191970" points="472.8951,-158.4872 482.9753,-155.2253 473.0611,-151.4891 472.8951,-158.4872"/>
</g>
<!-- Node1595 -->
<g id="node15" class="node">
<title>Node1595</title>
<g id="a_node15"><a xlink:href="quickjs_8c.html#a7346b86113acd072c9cfc8d238c4ff7c" target="_top" xlink:title="js_create_iterator\l_result">
<polygon fill="none" stroke="#ff0000" points="329,-267 329,-297 431,-297 431,-267 329,-267"/>
<text text-anchor="start" x="337" y="-285" font-family="Helvetica,sans-Serif" font-size="10.00" fill="#000000">js_create_iterator</text>
<text text-anchor="middle" x="380" y="-274" font-family="Helvetica,sans-Serif" font-size="10.00" fill="#000000">_result</text>
</a>
</g>
</g>
<!-- Node1594&#45;&gt;Node1595 -->
<g id="edge15" class="edge">
<title>Node1594&#45;&gt;Node1595</title>
<path fill="none" stroke="#191970" d="M259.2557,-289.6996C278.0167,-288.5033 299.3848,-287.1407 318.8769,-285.8977"/>
<polygon fill="#191970" stroke="#191970" points="319.1183,-289.3895 328.8753,-285.2601 318.6728,-282.4037 319.1183,-289.3895"/>
</g>
<!-- Node1233 -->
<g id="node16" class="node">
<title>Node1233</title>
<g id="a_node16"><a xlink:href="quickjs_8h.html#ad80a83d73e9b7d872b88fbf2943aebe9" target="_top" xlink:title="JS_IsException">
<polygon fill="none" stroke="#000000" points="505,-316.5 505,-335.5 592,-335.5 592,-316.5 505,-316.5"/>
<text text-anchor="middle" x="548.5" y="-323.5" font-family="Helvetica,sans-Serif" font-size="10.00" fill="#000000">JS_IsException</text>
</a>
</g>
</g>
<!-- Node1594&#45;&gt;Node1233 -->
<g id="edge17" class="edge">
<title>Node1594&#45;&gt;Node1233</title>
<path fill="none" stroke="#191970" d="M259.0454,-300.152C277.0441,-302.5163 297.3948,-305.0405 316,-307 377.1627,-313.4415 447.5744,-318.9266 494.7405,-322.3233"/>
<polygon fill="#191970" stroke="#191970" points="494.5108,-325.8157 504.7347,-323.0368 495.0093,-318.8335 494.5108,-325.8157"/>
</g>
<!-- Node1245 -->
<g id="node17" class="node">
<title>Node1245</title>
<g id="a_node17"><a xlink:href="quickjs_8h.html#ae91f44bd7249613050c18c7133702c67" target="_top" xlink:title="JS_NewFloat64">
<polygon fill="none" stroke="#ff0000" points="335.5,-114.5 335.5,-133.5 424.5,-133.5 424.5,-114.5 335.5,-114.5"/>
<text text-anchor="middle" x="380" y="-121.5" font-family="Helvetica,sans-Serif" font-size="10.00" fill="#000000">JS_NewFloat64</text>
</a>
</g>
</g>
<!-- Node1594&#45;&gt;Node1245 -->
<g id="edge18" class="edge">
<title>Node1594&#45;&gt;Node1245</title>
<path fill="none" stroke="#191970" d="M257.588,-283.4979C265.9016,-280.0591 273.8151,-275.3764 280,-269 319.0644,-228.7256 277.7302,-189.0301 316,-148 319.6006,-144.1397 323.8823,-140.8963 328.4997,-138.172"/>
<polygon fill="#191970" stroke="#191970" points="330.3389,-141.1649 337.7023,-133.5471 327.1955,-134.9104 330.3389,-141.1649"/>
</g>
<!-- Node1387 -->
<g id="node18" class="node">
<title>Node1387</title>
<g id="a_node18"><a xlink:href="quickjs_8c.html#a8cc9386cd04cfa067d0c6bf588c6bb58" target="_top" xlink:title="JS_ToFloat64">
<polygon fill="none" stroke="#ff0000" points="341.5,-76.5 341.5,-95.5 418.5,-95.5 418.5,-76.5 341.5,-76.5"/>
<text text-anchor="middle" x="380" y="-83.5" font-family="Helvetica,sans-Serif" font-size="10.00" fill="#000000">JS_ToFloat64</text>
</a>
</g>
</g>
<!-- Node1594&#45;&gt;Node1387 -->
<g id="edge20" class="edge">
<title>Node1594&#45;&gt;Node1387</title>
<path fill="none" stroke="#191970" d="M259.0845,-283.3859C266.9466,-279.9541 274.3186,-275.3027 280,-269 329.9646,-213.5714 265.1798,-159.6452 316,-105 320.4029,-100.2657 325.9257,-96.6924 331.8713,-93.9991"/>
<polygon fill="#191970" stroke="#191970" points="333.2981,-97.2031 341.4622,-90.4505 330.8691,-90.6381 333.2981,-97.2031"/>
</g>
<!-- Node1595&#45;&gt;Node1233 -->
<g id="edge16" class="edge">
<title>Node1595&#45;&gt;Node1233</title>
<path fill="none" stroke="#191970" d="M431.0128,-295.3209C453.6924,-301.2431 480.1989,-308.1647 502.2892,-313.9331"/>
<polygon fill="#191970" stroke="#191970" points="501.5386,-317.3544 512.0985,-316.4946 503.3072,-310.5815 501.5386,-317.3544"/>
</g>
<!-- Node1596&#45;&gt;Node1159 -->
<g id="edge23" class="edge">
<title>Node1596&#45;&gt;Node1159</title>
<path fill="none" stroke="#191970" d="M218.3613,-601.2836C236.9922,-585.1267 276.8321,-552.761 316,-535 375.189,-508.1602 448.8209,-492.8417 497.1654,-484.984"/>
<polygon fill="#191970" stroke="#191970" points="497.7513,-488.4349 507.0835,-483.419 496.6602,-481.5205 497.7513,-488.4349"/>
</g>
<!-- Node1315 -->
<g id="node20" class="node">
<title>Node1315</title>
<g id="a_node20"><a xlink:href="quickjs_8c.html#ac3bdf708c1dc092fd52508b5d29bd0ce" target="_top" xlink:title="atom_is_free">
<polygon fill="none" stroke="#000000" points="340,-544.5 340,-563.5 420,-563.5 420,-544.5 340,-544.5"/>
<text text-anchor="middle" x="380" y="-551.5" font-family="Helvetica,sans-Serif" font-size="10.00" fill="#000000">atom_is_free</text>
</a>
</g>
</g>
<!-- Node1596&#45;&gt;Node1315 -->
<g id="edge22" class="edge">
<title>Node1596&#45;&gt;Node1315</title>
<path fill="none" stroke="#191970" d="M233.6894,-601.4289C255.5908,-593.5212 287.704,-582.1493 316,-573 322.6686,-570.8437 329.7577,-568.646 336.6965,-566.5468"/>
<polygon fill="#191970" stroke="#191970" points="338.1112,-569.7769 346.6887,-563.5579 336.1051,-563.0705 338.1112,-569.7769"/>
</g>
<!-- Node1182 -->
<g id="node21" class="node">
<title>Node1182</title>
<g id="a_node21"><a xlink:href="quickjs_8c.html#a69e19dda8a93d613203e0baa06f0ed8d" target="_top" xlink:title="js_free_rt">
<polygon fill="none" stroke="#000000" points="349,-734.5 349,-753.5 411,-753.5 411,-734.5 349,-734.5"/>
<text text-anchor="middle" x="380" y="-741.5" font-family="Helvetica,sans-Serif" font-size="10.00" fill="#000000">js_free_rt</text>
</a>
</g>
</g>
<!-- Node1596&#45;&gt;Node1182 -->
<g id="edge24" class="edge">
<title>Node1596&#45;&gt;Node1182</title>
<path fill="none" stroke="#191970" d="M213.8866,-620.5543C228.9871,-642.4011 269.1617,-696.3251 316,-725 323.0277,-729.3024 331.0879,-732.6805 339.0651,-735.3159"/>
<polygon fill="#191970" stroke="#191970" points="338.0968,-738.6793 348.6796,-738.1742 340.0916,-731.9696 338.0968,-738.6793"/>
</g>
<!-- Node1198 -->
<g id="node22" class="node">
<title>Node1198</title>
<g id="a_node22"><a xlink:href="quickjs_8c.html#a5a0aca30abbb4d4ae86746541bf4cbc7" target="_top" xlink:title="JS_FreeAtomRT">
<polygon fill="none" stroke="#ff0000" points="335.5,-696.5 335.5,-715.5 424.5,-715.5 424.5,-696.5 335.5,-696.5"/>
<text text-anchor="middle" x="380" y="-703.5" font-family="Helvetica,sans-Serif" font-size="10.00" fill="#000000">JS_FreeAtomRT</text>
</a>
</g>
</g>
<!-- Node1596&#45;&gt;Node1198 -->
<g id="edge25" class="edge">
<title>Node1596&#45;&gt;Node1198</title>
<path fill="none" stroke="#191970" d="M218.457,-620.512C237.2288,-636.3676 277.2712,-668.3009 316,-687 320.7067,-689.2725 325.741,-691.3339 330.8415,-693.1881"/>
<polygon fill="#191970" stroke="#191970" points="330.0687,-696.6211 340.6629,-696.4995 332.3052,-689.988 330.0687,-696.6211"/>
</g>
<!-- Node1202 -->
<g id="node23" class="node">
<title>Node1202</title>
<g id="a_node23"><a xlink:href="quickjs_8h.html#ab8db583fa5e7c2b1935854a42859daed" target="_top" xlink:title="JS_FreeValueRT">
<polygon fill="none" stroke="#ff0000" points="335,-658.5 335,-677.5 425,-677.5 425,-658.5 335,-658.5"/>
<text text-anchor="middle" x="380" y="-665.5" font-family="Helvetica,sans-Serif" font-size="10.00" fill="#000000">JS_FreeValueRT</text>
</a>
</g>
</g>
<!-- Node1596&#45;&gt;Node1202 -->
<g id="edge26" class="edge">
<title>Node1596&#45;&gt;Node1202</title>
<path fill="none" stroke="#191970" d="M233.6894,-620.5711C255.5908,-628.4788 287.704,-639.8507 316,-649 322.6686,-651.1563 329.7577,-653.354 336.6965,-655.4532"/>
<polygon fill="#191970" stroke="#191970" points="336.1051,-658.9295 346.6887,-658.4421 338.1112,-652.2231 336.1051,-658.9295"/>
</g>
<!-- Node1353 -->
<g id="node24" class="node">
<title>Node1353</title>
<g id="a_node24"><a xlink:href="quickjs_8c.html#aeeea589ee4cec4bbc3145210f4cf6e42" target="_top" xlink:title="JS_RunGC">
<polygon fill="none" stroke="#ff0000" points="348.5,-620.5 348.5,-639.5 411.5,-639.5 411.5,-620.5 348.5,-620.5"/>
<text text-anchor="middle" x="380" y="-627.5" font-family="Helvetica,sans-Serif" font-size="10.00" fill="#000000">JS_RunGC</text>
</a>
</g>
</g>
<!-- Node1596&#45;&gt;Node1353 -->
<g id="edge27" class="edge">
<title>Node1596&#45;&gt;Node1353</title>
<path fill="none" stroke="#191970" d="M253.7268,-616.0917C280.0408,-618.99 312.7409,-622.5918 338.271,-625.4038"/>
<polygon fill="#191970" stroke="#191970" points="338.0566,-628.9012 348.3797,-626.5172 338.823,-621.9433 338.0566,-628.9012"/>
</g>
<!-- Node1593 -->
<g id="node25" class="node">
<title>Node1593</title>
<g id="a_node25"><a xlink:href="list_8h.html#acc8877b883e77ef12325dd5bfa4be0d3" target="_top" xlink:title="list_empty">
<polygon fill="none" stroke="#000000" points="346,-582.5 346,-601.5 414,-601.5 414,-582.5 346,-582.5"/>
<text text-anchor="middle" x="380" y="-589.5" font-family="Helvetica,sans-Serif" font-size="10.00" fill="#000000">list_empty</text>
</a>
</g>
</g>
<!-- Node1596&#45;&gt;Node1593 -->
<g id="edge28" class="edge">
<title>Node1596&#45;&gt;Node1593</title>
<path fill="none" stroke="#191970" d="M253.7268,-605.9083C279.2513,-603.097 310.7847,-599.6237 335.9543,-596.8514"/>
<polygon fill="#191970" stroke="#191970" points="336.4063,-600.3229 345.963,-595.749 335.6399,-593.365 336.4063,-600.3229"/>
</g>
<!-- Node1597&#45;&gt;Node1233 -->
<g id="edge35" class="edge">
<title>Node1597&#45;&gt;Node1233</title>
<path fill="none" stroke="#191970" d="M280.0478,-343.7228C326.8916,-344.2587 389.1168,-343.8932 444,-340 460.6324,-338.8202 478.6597,-336.7073 494.9831,-334.4749"/>
<polygon fill="#191970" stroke="#191970" points="495.4856,-337.9387 504.8989,-333.0766 494.5082,-331.0073 495.4856,-337.9387"/>
</g>
<!-- Node1598 -->
<g id="node27" class="node">
<title>Node1598</title>
<g id="a_node27"><a xlink:href="quickjs_8c.html#a4bd986b91b68c6aa485f57c6142acccb" target="_top" xlink:title="async_func_init">
<polygon fill="none" stroke="#ff0000" points="334,-392.5 334,-411.5 426,-411.5 426,-392.5 334,-392.5"/>
<text text-anchor="middle" x="380" y="-399.5" font-family="Helvetica,sans-Serif" font-size="10.00" fill="#000000">async_func_init</text>
</a>
</g>
</g>
<!-- Node1597&#45;&gt;Node1598 -->
<g id="edge30" class="edge">
<title>Node1597&#45;&gt;Node1598</title>
<path fill="none" stroke="#191970" d="M234.8331,-351.5072C264.0191,-361.6588 310.4462,-377.8074 342.9156,-389.1011"/>
<polygon fill="#191970" stroke="#191970" points="341.9149,-392.4586 352.5097,-392.4382 344.2146,-385.8471 341.9149,-392.4586"/>
</g>
<!-- Node1599 -->
<g id="node28" class="node">
<title>Node1599</title>
<g id="a_node28"><a xlink:href="quickjs_8c.html#ade71a22dc56e7371392393df663b28b3" target="_top" xlink:title="async_func_resume">
<polygon fill="none" stroke="#ff0000" points="323.5,-228.5 323.5,-247.5 436.5,-247.5 436.5,-228.5 323.5,-228.5"/>
<text text-anchor="middle" x="380" y="-235.5" font-family="Helvetica,sans-Serif" font-size="10.00" fill="#000000">async_func_resume</text>
</a>
</g>
</g>
<!-- Node1597&#45;&gt;Node1599 -->
<g id="edge32" class="edge">
<title>Node1597&#45;&gt;Node1599</title>
<path fill="none" stroke="#191970" d="M241.8786,-332.4751C254.7641,-327.7554 268.9468,-321.0775 280,-312 302.2907,-293.6936 292.913,-275.2914 316,-258 319.1592,-255.6339 322.6042,-253.5437 326.204,-251.6978"/>
<polygon fill="#191970" stroke="#191970" points="327.691,-254.867 335.3959,-247.5948 324.8377,-248.4749 327.691,-254.867"/>
</g>
<!-- Node1598&#45;&gt;Node1159 -->
<g id="edge31" class="edge">
<title>Node1598&#45;&gt;Node1159</title>
<path fill="none" stroke="#191970" d="M401.3406,-411.6255C430.8404,-424.931 484.2473,-449.0196 517.965,-464.2276"/>
<polygon fill="#191970" stroke="#191970" points="516.7779,-467.5316 527.3326,-468.4527 519.656,-461.1506 516.7779,-467.5316"/>
</g>
<!-- Node1599&#45;&gt;Node1377 -->
<g id="edge33" class="edge">
<title>Node1599&#45;&gt;Node1377</title>
<path fill="none" stroke="#191970" d="M436.5768,-231.6204C447.1907,-230.4236 458.4638,-229.1524 469.6113,-227.8955"/>
<polygon fill="#191970" stroke="#191970" points="470.2461,-231.3462 479.7909,-226.7476 469.4617,-224.3902 470.2461,-231.3462"/>
</g>
<!-- Node1599&#45;&gt;Node1379 -->
<g id="edge34" class="edge">
<title>Node1599&#45;&gt;Node1379</title>
<path fill="none" stroke="#191970" d="M401.3406,-228.3745C430.8404,-215.069 484.2473,-190.9804 517.965,-175.7724"/>
<polygon fill="#191970" stroke="#191970" points="519.656,-178.8494 527.3326,-171.5473 516.7779,-172.4684 519.656,-178.8494"/>
</g>
</g>
</svg>
