<?xml version="1.0" encoding="UTF-8" standalone="no"?>
<!DOCTYPE svg PUBLIC "-//W3C//DTD SVG 1.1//EN"
 "http://www.w3.org/Graphics/SVG/1.1/DTD/svg11.dtd">
<!-- Generated by graphviz version 2.40.1 (20161225.0304)
 -->
<!-- Title: js_reflect_get Pages: 1 -->
<!--zoomable 724 -->
<svg id="main" version="1.1" xmlns="http://www.w3.org/2000/svg" xmlns:xlink="http://www.w3.org/1999/xlink" xml:space="preserve" onload="init(evt)">
<style type="text/css"><![CDATA[
.edge:hover path { stroke: red; }
.edge:hover polygon { stroke: red; fill: red; }
]]></style>
<script type="text/javascript"><![CDATA[
var edges = document.getElementsByTagName('g');
if (edges && edges.length) {
  for (var i=0;i<edges.length;i++) {
    if (edges[i].id.substr(0,4)=='edge') {
      edges[i].setAttribute('class','edge');
    }
  }
}
]]></script>
        <defs>
                <circle id="rim" cx="0" cy="0" r="7"/>
                <circle id="rim2" cx="0" cy="0" r="3.5"/>
                <g id="zoomPlus">
                        <use xlink:href="#rim" fill="#404040">
                                <set attributeName="fill" to="#808080" begin="zoomplus.mouseover" end="zoomplus.mouseout"/>
                        </use>
                        <path d="M-4,0h8M0,-4v8" fill="none" stroke="white" stroke-width="1.5" pointer-events="none"/>
                </g>
                <g id="zoomMin">
                        <use xlink:href="#rim" fill="#404040">
                                <set attributeName="fill" to="#808080" begin="zoomminus.mouseover" end="zoomminus.mouseout"/>
                        </use>
                        <path d="M-4,0h8" fill="none" stroke="white" stroke-width="1.5" pointer-events="none"/>
                </g>
                <g id="dirArrow">
                        <path fill="none" stroke="white" stroke-width="1.5" d="M0,-3.0v7 M-2.5,-0.5L0,-3.0L2.5,-0.5"/>
                </g>
               <g id="resetDef">
                       <use xlink:href="#rim2" fill="#404040">
                               <set attributeName="fill" to="#808080" begin="reset.mouseover" end="reset.mouseout"/>
                       </use>
               </g>
        </defs>

<script type="text/javascript">
var viewWidth = 859;
var viewHeight = 724;
var sectionId = 'dynsection-1661';
</script>
<script xlink:href="svgpan.js"/>
<svg id="graph" class="graph">
<g id="viewport">
<title>js_reflect_get</title>
<!-- Node445332 -->
<g id="node1" class="node">
<title>Node445332</title>
<polygon fill="#bfbfbf" stroke="#000000" points="0,-481.5 0,-500.5 82,-500.5 82,-481.5 0,-481.5"/>
<text text-anchor="middle" x="41" y="-488.5" font-family="Helvetica,sans-Serif" font-size="10.00" fill="#000000">js_reflect_get</text>
</g>
<!-- Node445333 -->
<g id="node2" class="node">
<title>Node445333</title>
<g id="a_node2"><a xlink:href="quickjs_8c.html#ab7fc45a99935a1c0ba50b0216d9401a9" target="_top" xlink:title="JS_FreeAtom">
<polygon fill="none" stroke="#000000" points="163.5,-658.5 163.5,-677.5 240.5,-677.5 240.5,-658.5 163.5,-658.5"/>
<text text-anchor="middle" x="202" y="-665.5" font-family="Helvetica,sans-Serif" font-size="10.00" fill="#000000">JS_FreeAtom</text>
</a>
</g>
</g>
<!-- Node445332&#45;&gt;Node445333 -->
<g id="edge1" class="edge">
<title>Node445332&#45;&gt;Node445333</title>
<path fill="none" stroke="#191970" d="M49.1655,-500.7493C63.0615,-517.2694 92.3026,-551.7258 118,-580 140.9128,-605.2104 168.299,-633.5869 185.4256,-651.1317"/>
<polygon fill="#191970" stroke="#191970" points="183.0238,-653.6815 192.5197,-658.3803 188.0266,-648.7853 183.0238,-653.6815"/>
</g>
<!-- Node445339 -->
<g id="node6" class="node">
<title>Node445339</title>
<g id="a_node6"><a xlink:href="quickjs_8c.html#a5762c57ae0c9937e986040c01222833a" target="_top" xlink:title="JS_GetPropertyInternal">
<polygon fill="none" stroke="#000000" points="138.5,-342.5 138.5,-361.5 265.5,-361.5 265.5,-342.5 138.5,-342.5"/>
<text text-anchor="middle" x="202" y="-349.5" font-family="Helvetica,sans-Serif" font-size="10.00" fill="#000000">JS_GetPropertyInternal</text>
</a>
</g>
</g>
<!-- Node445332&#45;&gt;Node445339 -->
<g id="edge5" class="edge">
<title>Node445332&#45;&gt;Node445339</title>
<path fill="none" stroke="#191970" d="M52.0662,-481.446C79.1805,-458.0367 149.183,-397.5998 183.0678,-368.3452"/>
<polygon fill="#191970" stroke="#191970" points="185.5743,-370.8052 190.8564,-361.6209 180.9998,-365.5066 185.5743,-370.8052"/>
</g>
<!-- Node445568 -->
<g id="node29" class="node">
<title>Node445568</title>
<g id="a_node29"><a xlink:href="quickjs_8c.html#a726b00d108e0a0f4d958c36c2e426a64" target="_top" xlink:title="JS_ThrowTypeErrorNotAnObject">
<polygon fill="none" stroke="#000000" points="118,-304.5 118,-323.5 286,-323.5 286,-304.5 118,-304.5"/>
<text text-anchor="middle" x="202" y="-311.5" font-family="Helvetica,sans-Serif" font-size="10.00" fill="#000000">JS_ThrowTypeErrorNotAnObject</text>
</a>
</g>
</g>
<!-- Node445332&#45;&gt;Node445568 -->
<g id="edge36" class="edge">
<title>Node445332&#45;&gt;Node445568</title>
<path fill="none" stroke="#191970" d="M42.6993,-481.3829C48.1335,-453.6188 67.7677,-372.7875 118,-333 120.1024,-331.3348 122.3225,-329.8096 124.6336,-328.4131"/>
<polygon fill="#191970" stroke="#191970" points="126.6407,-331.3173 133.942,-323.64 123.4466,-325.0885 126.6407,-331.3173"/>
</g>
<!-- Node445459 -->
<g id="node30" class="node">
<title>Node445459</title>
<g id="a_node30"><a xlink:href="quickjs_8c.html#a859d5c989a2aaecef1653b3ac279e108" target="_top" xlink:title="JS_ValueToAtom">
<polygon fill="none" stroke="#ff0000" points="154.5,-551.5 154.5,-570.5 249.5,-570.5 249.5,-551.5 154.5,-551.5"/>
<text text-anchor="middle" x="202" y="-558.5" font-family="Helvetica,sans-Serif" font-size="10.00" fill="#000000">JS_ValueToAtom</text>
</a>
</g>
</g>
<!-- Node445332&#45;&gt;Node445459 -->
<g id="edge37" class="edge">
<title>Node445332&#45;&gt;Node445459</title>
<path fill="none" stroke="#191970" d="M63.0488,-500.5864C90.9116,-512.7007 139.0439,-533.6278 170.7038,-547.393"/>
<polygon fill="#191970" stroke="#191970" points="169.3935,-550.6397 179.9598,-551.4173 172.1846,-544.2202 169.3935,-550.6397"/>
</g>
<!-- Node445334 -->
<g id="node3" class="node">
<title>Node445334</title>
<g id="a_node3"><a xlink:href="quickjs_8c.html#a7f6796ee7a195631366f57c713a33f65" target="_top" xlink:title="__JS_AtomIsConst">
<polygon fill="none" stroke="#000000" points="367,-696.5 367,-715.5 471,-715.5 471,-696.5 367,-696.5"/>
<text text-anchor="middle" x="419" y="-703.5" font-family="Helvetica,sans-Serif" font-size="10.00" fill="#000000">__JS_AtomIsConst</text>
</a>
</g>
</g>
<!-- Node445333&#45;&gt;Node445334 -->
<g id="edge2" class="edge">
<title>Node445333&#45;&gt;Node445334</title>
<path fill="none" stroke="#191970" d="M240.7953,-674.7936C272.8875,-680.4135 319.089,-688.5041 356.4069,-695.039"/>
<polygon fill="#191970" stroke="#191970" points="356.224,-698.5602 366.6778,-696.8376 357.4315,-691.6651 356.224,-698.5602"/>
</g>
<!-- Node445335 -->
<g id="node4" class="node">
<title>Node445335</title>
<g id="a_node4"><a xlink:href="quickjs_8c.html#a0bbd9e3ecd55e3ea6c9d44bfda382095" target="_top" xlink:title="__JS_FreeAtom">
<polygon fill="none" stroke="#000000" points="375,-658.5 375,-677.5 463,-677.5 463,-658.5 375,-658.5"/>
<text text-anchor="middle" x="419" y="-665.5" font-family="Helvetica,sans-Serif" font-size="10.00" fill="#000000">__JS_FreeAtom</text>
</a>
</g>
</g>
<!-- Node445333&#45;&gt;Node445335 -->
<g id="edge3" class="edge">
<title>Node445333&#45;&gt;Node445335</title>
<path fill="none" stroke="#191970" d="M240.7953,-668C275.3747,-668 326.3351,-668 364.9128,-668"/>
<polygon fill="#191970" stroke="#191970" points="364.9377,-671.5001 374.9377,-668 364.9377,-664.5001 364.9377,-671.5001"/>
</g>
<!-- Node445336 -->
<g id="node5" class="node">
<title>Node445336</title>
<g id="a_node5"><a xlink:href="quickjs_8c.html#a58c8965dad50b15b75918a09f3d9dc7c" target="_top" xlink:title="JS_FreeAtomStruct">
<polygon fill="none" stroke="#ff0000" points="569,-658.5 569,-677.5 675,-677.5 675,-658.5 569,-658.5"/>
<text text-anchor="middle" x="622" y="-665.5" font-family="Helvetica,sans-Serif" font-size="10.00" fill="#000000">JS_FreeAtomStruct</text>
</a>
</g>
</g>
<!-- Node445335&#45;&gt;Node445336 -->
<g id="edge4" class="edge">
<title>Node445335&#45;&gt;Node445336</title>
<path fill="none" stroke="#191970" d="M463.048,-668C490.9158,-668 527.3991,-668 558.3834,-668"/>
<polygon fill="#191970" stroke="#191970" points="558.66,-671.5001 568.66,-668 558.66,-664.5001 558.66,-671.5001"/>
</g>
<!-- Node445340 -->
<g id="node7" class="node">
<title>Node445340</title>
<g id="a_node7"><a xlink:href="quickjs_8c.html#a288254c06a39c9fca740a7abdad2834e" target="_top" xlink:title="__JS_AtomIsTaggedInt">
<polygon fill="none" stroke="#000000" points="728,-342.5 728,-361.5 851,-361.5 851,-342.5 728,-342.5"/>
<text text-anchor="middle" x="789.5" y="-349.5" font-family="Helvetica,sans-Serif" font-size="10.00" fill="#000000">__JS_AtomIsTaggedInt</text>
</a>
</g>
</g>
<!-- Node445339&#45;&gt;Node445340 -->
<g id="edge6" class="edge">
<title>Node445339&#45;&gt;Node445340</title>
<path fill="none" stroke="#191970" d="M265.52,-356.5943C378.7528,-364.4281 611.1797,-378.8014 692,-371 707.771,-369.4777 724.78,-366.6008 740.107,-363.5378"/>
<polygon fill="#191970" stroke="#191970" points="740.8228,-366.9639 749.9063,-361.5104 739.4045,-360.1091 740.8228,-366.9639"/>
</g>
<!-- Node445341 -->
<g id="node8" class="node">
<title>Node445341</title>
<g id="a_node8"><a xlink:href="quickjs_8c.html#a89f38938cee8077ce1fbba07946ed185" target="_top" xlink:title="__JS_AtomToUInt32">
<polygon fill="none" stroke="#000000" points="734.5,-266.5 734.5,-285.5 844.5,-285.5 844.5,-266.5 734.5,-266.5"/>
<text text-anchor="middle" x="789.5" y="-273.5" font-family="Helvetica,sans-Serif" font-size="10.00" fill="#000000">__JS_AtomToUInt32</text>
</a>
</g>
</g>
<!-- Node445339&#45;&gt;Node445341 -->
<g id="edge7" class="edge">
<title>Node445339&#45;&gt;Node445341</title>
<path fill="none" stroke="#191970" d="M264.138,-342.3598C271.765,-339.9133 279.2429,-336.8459 286,-333 306.2189,-321.4922 300.8198,-304.6246 322,-295 457.6117,-233.3761 638.8182,-250.2871 730.7167,-264.8414"/>
<polygon fill="#191970" stroke="#191970" points="730.2352,-268.309 740.6682,-266.464 731.3618,-261.4003 730.2352,-268.309"/>
</g>
<!-- Node445342 -->
<g id="node9" class="node">
<title>Node445342</title>
<g id="a_node9"><a xlink:href="quickjs_8c.html#a06b76f5124fd985e35f4c652fd018d6d" target="_top" xlink:title="find_own_property">
<polygon fill="none" stroke="#000000" points="365.5,-38.5 365.5,-57.5 472.5,-57.5 472.5,-38.5 365.5,-38.5"/>
<text text-anchor="middle" x="419" y="-45.5" font-family="Helvetica,sans-Serif" font-size="10.00" fill="#000000">find_own_property</text>
</a>
</g>
</g>
<!-- Node445339&#45;&gt;Node445342 -->
<g id="edge8" class="edge">
<title>Node445339&#45;&gt;Node445342</title>
<path fill="none" stroke="#191970" d="M265.7489,-346.4574C273.3896,-343.3895 280.4386,-339.0577 286,-333 365.1918,-246.7407 243.6793,-159.0509 322,-72 330.8302,-62.1855 342.9824,-56.0853 355.7012,-52.3583"/>
<polygon fill="#191970" stroke="#191970" points="356.6184,-55.7371 365.4922,-49.9487 354.9455,-48.9399 356.6184,-55.7371"/>
</g>
<!-- Node445345 -->
<g id="node12" class="node">
<title>Node445345</title>
<g id="a_node12"><a xlink:href="quickjs_8c.html#add3eea1f6d626963ade3c28a1fd563d1" target="_top" xlink:title="JS_AtomIsNumericIndex">
<polygon fill="none" stroke="#000000" points="352,-304.5 352,-323.5 486,-323.5 486,-304.5 352,-304.5"/>
<text text-anchor="middle" x="419" y="-311.5" font-family="Helvetica,sans-Serif" font-size="10.00" fill="#000000">JS_AtomIsNumericIndex</text>
</a>
</g>
</g>
<!-- Node445339&#45;&gt;Node445345 -->
<g id="edge11" class="edge">
<title>Node445339&#45;&gt;Node445345</title>
<path fill="none" stroke="#191970" d="M256.4782,-342.46C286.2723,-337.2426 323.363,-330.7475 354.5852,-325.28"/>
<polygon fill="#191970" stroke="#191970" points="355.2531,-328.7164 364.4994,-323.5439 354.0456,-321.8213 355.2531,-328.7164"/>
</g>
<!-- Node445349 -->
<g id="node14" class="node">
<title>Node445349</title>
<g id="a_node14"><a xlink:href="quickjs_8h.html#afaa20c47565bc704c6c85f3d77254e7d" target="_top" xlink:title="JS_FreeValue">
<polygon fill="none" stroke="#ff0000" points="750.5,-171.5 750.5,-190.5 828.5,-190.5 828.5,-171.5 750.5,-171.5"/>
<text text-anchor="middle" x="789.5" y="-178.5" font-family="Helvetica,sans-Serif" font-size="10.00" fill="#000000">JS_FreeValue</text>
</a>
</g>
</g>
<!-- Node445339&#45;&gt;Node445349 -->
<g id="edge26" class="edge">
<title>Node445339&#45;&gt;Node445349</title>
<path fill="none" stroke="#191970" d="M265.6144,-345.7569C273.1802,-342.782 280.2449,-338.6628 286,-333 334.2534,-285.5203 268.9571,-227.0615 322,-185 385.3945,-134.7299 633.5713,-160.3302 740.2838,-174.1187"/>
<polygon fill="#191970" stroke="#191970" points="740.0914,-177.6234 750.4617,-175.4536 741.0018,-170.6828 740.0914,-177.6234"/>
</g>
<!-- Node445380 -->
<g id="node16" class="node">
<title>Node445380</title>
<g id="a_node16"><a xlink:href="quickjs_8h.html#a2050bc428da1c65ac7eb87c3fa3b0392" target="_top" xlink:title="JS_NewInt32">
<polygon fill="none" stroke="#000000" points="751,-209.5 751,-228.5 828,-228.5 828,-209.5 751,-209.5"/>
<text text-anchor="middle" x="789.5" y="-216.5" font-family="Helvetica,sans-Serif" font-size="10.00" fill="#000000">JS_NewInt32</text>
</a>
</g>
</g>
<!-- Node445339&#45;&gt;Node445380 -->
<g id="edge33" class="edge">
<title>Node445339&#45;&gt;Node445380</title>
<path fill="none" stroke="#191970" d="M265.6268,-344.509C273.0105,-341.7113 280.0244,-337.974 286,-333 317.2178,-307.0149 288.8246,-272.4344 322,-249 450.5666,-158.1834 651.9424,-187.5381 742.5528,-207.268"/>
<polygon fill="#191970" stroke="#191970" points="742.002,-210.7313 752.525,-209.4988 743.5303,-203.9001 742.002,-210.7313"/>
</g>
<!-- Node445525 -->
<g id="node18" class="node">
<title>Node445525</title>
<g id="a_node18"><a xlink:href="quickjs_8c.html#a8aac7988cf0c6f3c2b629a6662fd7ec8" target="_top" xlink:title="JS_AutoInitProperty">
<polygon fill="none" stroke="#ff0000" points="567,-456.5 567,-475.5 677,-475.5 677,-456.5 567,-456.5"/>
<text text-anchor="middle" x="622" y="-463.5" font-family="Helvetica,sans-Serif" font-size="10.00" fill="#000000">JS_AutoInitProperty</text>
</a>
</g>
</g>
<!-- Node445339&#45;&gt;Node445525 -->
<g id="edge21" class="edge">
<title>Node445339&#45;&gt;Node445525</title>
<path fill="none" stroke="#191970" d="M215.2588,-361.6849C236.5923,-376.7499 280.3725,-405.5623 322,-420 364.1381,-434.6148 481.7333,-450.016 556.5625,-458.7727"/>
<polygon fill="#191970" stroke="#191970" points="556.4883,-462.2875 566.8251,-459.9634 557.2951,-455.3341 556.4883,-462.2875"/>
</g>
<!-- Node445432 -->
<g id="node19" class="node">
<title>Node445432</title>
<g id="a_node19"><a xlink:href="quickjs_8c.html#a75f6ee5e4235a7dc99889f3d2eb2c147" target="_top" xlink:title="JS_CallFree">
<polygon fill="none" stroke="#ff0000" points="587,-95.5 587,-114.5 657,-114.5 657,-95.5 587,-95.5"/>
<text text-anchor="middle" x="622" y="-102.5" font-family="Helvetica,sans-Serif" font-size="10.00" fill="#000000">JS_CallFree</text>
</a>
</g>
</g>
<!-- Node445339&#45;&gt;Node445432 -->
<g id="edge23" class="edge">
<title>Node445339&#45;&gt;Node445432</title>
<path fill="none" stroke="#191970" d="M265.64,-346.3564C273.2971,-343.3038 280.3797,-339.0031 286,-333 356.114,-258.1103 244.0068,-171.6447 322,-105 359.1086,-73.291 502.6974,-88.0144 576.9518,-98.176"/>
<polygon fill="#191970" stroke="#191970" points="576.5626,-101.6555 586.9509,-99.5742 577.5321,-94.723 576.5626,-101.6555"/>
</g>
<!-- Node445387 -->
<g id="node20" class="node">
<title>Node445387</title>
<g id="a_node20"><a xlink:href="quickjs_8h.html#a775522f2d084fc8fa0fcb33f390006b4" target="_top" xlink:title="JS_DupValue">
<polygon fill="none" stroke="#000000" points="380.5,-.5 380.5,-19.5 457.5,-19.5 457.5,-.5 380.5,-.5"/>
<text text-anchor="middle" x="419" y="-7.5" font-family="Helvetica,sans-Serif" font-size="10.00" fill="#000000">JS_DupValue</text>
</a>
</g>
</g>
<!-- Node445339&#45;&gt;Node445387 -->
<g id="edge25" class="edge">
<title>Node445339&#45;&gt;Node445387</title>
<path fill="none" stroke="#191970" d="M265.8569,-346.5556C273.4813,-343.4729 280.497,-339.1108 286,-333 377.046,-231.8979 229.4967,-128.7705 322,-29 334.1913,-15.8509 352.591,-10.2705 370.0997,-8.2709"/>
<polygon fill="#191970" stroke="#191970" points="370.5552,-11.746 380.252,-7.4771 370.0096,-4.7673 370.5552,-11.746"/>
</g>
<!-- Node445456 -->
<g id="node21" class="node">
<title>Node445456</title>
<g id="a_node21"><a xlink:href="quickjs_8c.html#aeb97957655d979e9fe56c955da2b2d4b" target="_top" xlink:title="JS_GetPropertyUint32">
<polygon fill="none" stroke="#ff0000" points="358,-582.5 358,-601.5 480,-601.5 480,-582.5 358,-582.5"/>
<text text-anchor="middle" x="419" y="-589.5" font-family="Helvetica,sans-Serif" font-size="10.00" fill="#000000">JS_GetPropertyUint32</text>
</a>
</g>
</g>
<!-- Node445339&#45;&gt;Node445456 -->
<g id="edge27" class="edge">
<title>Node445339&#45;&gt;Node445456</title>
<path fill="none" stroke="#191970" d="M204.1897,-361.9203C212.5105,-397.1214 245.6366,-516.9248 322,-573 329.7506,-578.6914 338.7556,-582.8016 348.0945,-585.7501"/>
<polygon fill="#191970" stroke="#191970" points="347.3409,-589.1722 357.909,-588.4198 349.1783,-582.4176 347.3409,-589.1722"/>
</g>
<!-- Node445556 -->
<g id="node22" class="node">
<title>Node445556</title>
<g id="a_node22"><a xlink:href="quickjs_8c.html#a93550bf785e919d0881399712c54cb34" target="_top" xlink:title="JS_GetPrototypePrimitive">
<polygon fill="none" stroke="#000000" points="349,-544.5 349,-563.5 489,-563.5 489,-544.5 349,-544.5"/>
<text text-anchor="middle" x="419" y="-551.5" font-family="Helvetica,sans-Serif" font-size="10.00" fill="#000000">JS_GetPrototypePrimitive</text>
</a>
</g>
</g>
<!-- Node445339&#45;&gt;Node445556 -->
<g id="edge28" class="edge">
<title>Node445339&#45;&gt;Node445556</title>
<path fill="none" stroke="#191970" d="M205.3353,-361.9331C216.3665,-393.1455 254.8436,-489.8487 322,-535 327.2803,-538.5501 333.0658,-541.4704 339.0995,-543.8688"/>
<polygon fill="#191970" stroke="#191970" points="338.1535,-547.2454 348.7483,-547.2238 340.4525,-540.6337 338.1535,-547.2454"/>
</g>
<!-- Node445632 -->
<g id="node23" class="node">
<title>Node445632</title>
<g id="a_node23"><a xlink:href="quickjs_8h.html#aaab426b47c95d00479b7355b1cf7f56c" target="_top" xlink:title="JS_IsUninitialized">
<polygon fill="none" stroke="#000000" points="368.5,-506.5 368.5,-525.5 469.5,-525.5 469.5,-506.5 368.5,-506.5"/>
<text text-anchor="middle" x="419" y="-513.5" font-family="Helvetica,sans-Serif" font-size="10.00" fill="#000000">JS_IsUninitialized</text>
</a>
</g>
</g>
<!-- Node445339&#45;&gt;Node445632 -->
<g id="edge29" class="edge">
<title>Node445339&#45;&gt;Node445632</title>
<path fill="none" stroke="#191970" d="M206.9128,-361.7177C220.8739,-388.2511 263.5805,-462.2635 322,-497 332.9402,-503.5051 345.6837,-507.8357 358.2671,-510.7057"/>
<polygon fill="#191970" stroke="#191970" points="357.7949,-514.1805 368.2869,-512.708 359.1666,-507.3162 357.7949,-514.1805"/>
</g>
<!-- Node445765 -->
<g id="node24" class="node">
<title>Node445765</title>
<g id="a_node24"><a xlink:href="quickjs_8c.html#a077ffa6455c0d7831bd4547542b5f2f7" target="_top" xlink:title="js_new_string_char">
<polygon fill="none" stroke="#000000" points="364,-468.5 364,-487.5 474,-487.5 474,-468.5 364,-468.5"/>
<text text-anchor="middle" x="419" y="-475.5" font-family="Helvetica,sans-Serif" font-size="10.00" fill="#000000">js_new_string_char</text>
</a>
</g>
</g>
<!-- Node445339&#45;&gt;Node445765 -->
<g id="edge30" class="edge">
<title>Node445339&#45;&gt;Node445765</title>
<path fill="none" stroke="#191970" d="M210.2684,-361.5329C228.3832,-381.7961 273.8188,-429.3117 322,-454 331.971,-459.1092 343.0844,-463.1679 354.1293,-466.3811"/>
<polygon fill="#191970" stroke="#191970" points="353.2204,-469.761 363.7873,-468.9923 355.0474,-463.0036 353.2204,-469.761"/>
</g>
<!-- Node445557 -->
<g id="node27" class="node">
<title>Node445557</title>
<g id="a_node27"><a xlink:href="quickjs_8c.html#ab8d0b87c9eed4eb6c054b6f4e1731554" target="_top" xlink:title="JS_ThrowReferenceErrorNot\lDefined">
<polygon fill="none" stroke="#ff0000" points="344,-381 344,-411 494,-411 494,-381 344,-381"/>
<text text-anchor="start" x="352" y="-399" font-family="Helvetica,sans-Serif" font-size="10.00" fill="#000000">JS_ThrowReferenceErrorNot</text>
<text text-anchor="middle" x="419" y="-388" font-family="Helvetica,sans-Serif" font-size="10.00" fill="#000000">Defined</text>
</a>
</g>
</g>
<!-- Node445339&#45;&gt;Node445557 -->
<g id="edge34" class="edge">
<title>Node445339&#45;&gt;Node445557</title>
<path fill="none" stroke="#191970" d="M249.0858,-361.5473C274.0628,-366.6118 305.5141,-372.989 334.5466,-378.8758"/>
<polygon fill="#191970" stroke="#191970" points="334.2043,-382.3775 344.7004,-380.9346 335.5954,-375.5172 334.2043,-382.3775"/>
</g>
<!-- Node445633 -->
<g id="node28" class="node">
<title>Node445633</title>
<g id="a_node28"><a xlink:href="quickjs_8c.html#a75ac132a3af4de01e1fadeb0bede6ee7" target="_top" xlink:title="JS_ThrowReferenceErrorUninitialized">
<polygon fill="none" stroke="#ff0000" points="322,-114.5 322,-133.5 516,-133.5 516,-114.5 322,-114.5"/>
<text text-anchor="middle" x="419" y="-121.5" font-family="Helvetica,sans-Serif" font-size="10.00" fill="#000000">JS_ThrowReferenceErrorUninitialized</text>
</a>
</g>
</g>
<!-- Node445339&#45;&gt;Node445633 -->
<g id="edge35" class="edge">
<title>Node445339&#45;&gt;Node445633</title>
<path fill="none" stroke="#191970" d="M265.8628,-346.0035C273.39,-342.9904 280.3779,-338.7948 286,-333 344.3277,-272.8804 264.2795,-208.7029 322,-148 325.4779,-144.3424 329.4182,-141.2061 333.6707,-138.52"/>
<polygon fill="#191970" stroke="#191970" points="335.6408,-141.4346 342.7902,-133.6157 332.3253,-135.2696 335.6408,-141.4346"/>
</g>
<!-- Node445343 -->
<g id="node10" class="node">
<title>Node445343</title>
<g id="a_node10"><a xlink:href="quickjs_8c.html#a643df594b75933007bcdbb071b5ea8c5" target="_top" xlink:title="get_shape_prop">
<polygon fill="none" stroke="#000000" points="575,-47.5 575,-66.5 669,-66.5 669,-47.5 575,-47.5"/>
<text text-anchor="middle" x="622" y="-54.5" font-family="Helvetica,sans-Serif" font-size="10.00" fill="#000000">get_shape_prop</text>
</a>
</g>
</g>
<!-- Node445342&#45;&gt;Node445343 -->
<g id="edge9" class="edge">
<title>Node445342&#45;&gt;Node445343</title>
<path fill="none" stroke="#191970" d="M472.6014,-50.3764C500.8485,-51.6288 535.5174,-53.1658 564.345,-54.4439"/>
<polygon fill="#191970" stroke="#191970" points="564.5335,-57.9556 574.6787,-54.902 564.8436,-50.9624 564.5335,-57.9556"/>
</g>
<!-- Node445344 -->
<g id="node11" class="node">
<title>Node445344</title>
<g id="a_node11"><a xlink:href="quickjs_8c.html#acab22c2945c4d609e57a2484feb68a96" target="_top" xlink:title="prop_hash_end">
<polygon fill="none" stroke="#000000" points="577,-9.5 577,-28.5 667,-28.5 667,-9.5 577,-9.5"/>
<text text-anchor="middle" x="622" y="-16.5" font-family="Helvetica,sans-Serif" font-size="10.00" fill="#000000">prop_hash_end</text>
</a>
</g>
</g>
<!-- Node445342&#45;&gt;Node445344 -->
<g id="edge10" class="edge">
<title>Node445342&#45;&gt;Node445344</title>
<path fill="none" stroke="#191970" d="M472.6014,-40.3427C501.6028,-36.1996 537.3737,-31.0895 566.6419,-26.9083"/>
<polygon fill="#191970" stroke="#191970" points="567.2969,-30.3503 576.7014,-25.4712 566.3069,-23.4207 567.2969,-30.3503"/>
</g>
<!-- Node445346 -->
<g id="node13" class="node">
<title>Node445346</title>
<g id="a_node13"><a xlink:href="quickjs_8c.html#ab4e100a9cde5f7ec87c92f5e766dbbab" target="_top" xlink:title="JS_AtomIsNumericIndex1">
<polygon fill="none" stroke="#ff0000" points="552,-342.5 552,-361.5 692,-361.5 692,-342.5 552,-342.5"/>
<text text-anchor="middle" x="622" y="-349.5" font-family="Helvetica,sans-Serif" font-size="10.00" fill="#000000">JS_AtomIsNumericIndex1</text>
</a>
</g>
</g>
<!-- Node445345&#45;&gt;Node445346 -->
<g id="edge12" class="edge">
<title>Node445345&#45;&gt;Node445346</title>
<path fill="none" stroke="#191970" d="M469.9634,-323.54C497.5941,-328.7122 531.9328,-335.1401 560.9811,-340.5778"/>
<polygon fill="#191970" stroke="#191970" points="560.5423,-344.0563 571.0156,-342.4561 561.8303,-337.1758 560.5423,-344.0563"/>
</g>
<!-- Node445345&#45;&gt;Node445349 -->
<g id="edge18" class="edge">
<title>Node445345&#45;&gt;Node445349</title>
<path fill="none" stroke="#191970" d="M443.6719,-304.3832C495.8382,-284.1634 621.3073,-236.133 728,-200 734.4003,-197.8324 741.2083,-195.6288 747.8744,-193.527"/>
<polygon fill="#191970" stroke="#191970" points="748.9684,-196.8522 757.4752,-190.5367 746.8868,-190.1689 748.9684,-196.8522"/>
</g>
<!-- Node445379 -->
<g id="node15" class="node">
<title>Node445379</title>
<g id="a_node15"><a xlink:href="quickjs_8h.html#ad80a83d73e9b7d872b88fbf2943aebe9" target="_top" xlink:title="JS_IsException">
<polygon fill="none" stroke="#000000" points="746,-418.5 746,-437.5 833,-437.5 833,-418.5 746,-418.5"/>
<text text-anchor="middle" x="789.5" y="-425.5" font-family="Helvetica,sans-Serif" font-size="10.00" fill="#000000">JS_IsException</text>
</a>
</g>
</g>
<!-- Node445345&#45;&gt;Node445379 -->
<g id="edge19" class="edge">
<title>Node445345&#45;&gt;Node445379</title>
<path fill="none" stroke="#191970" d="M438.4251,-323.563C463.9782,-335.8529 510.5106,-357.2408 552,-371 613.9992,-391.5609 687.3787,-408.0161 735.9941,-417.862"/>
<polygon fill="#191970" stroke="#191970" points="735.4865,-421.3297 745.9792,-419.8617 736.8612,-414.466 735.4865,-421.3297"/>
</g>
<!-- Node445539 -->
<g id="node17" class="node">
<title>Node445539</title>
<g id="a_node17"><a xlink:href="quickjs_8h.html#a4e407128a9605afb77523e49e9a627fd" target="_top" xlink:title="JS_IsUndefined">
<polygon fill="none" stroke="#000000" points="577.5,-304.5 577.5,-323.5 666.5,-323.5 666.5,-304.5 577.5,-304.5"/>
<text text-anchor="middle" x="622" y="-311.5" font-family="Helvetica,sans-Serif" font-size="10.00" fill="#000000">JS_IsUndefined</text>
</a>
</g>
</g>
<!-- Node445345&#45;&gt;Node445539 -->
<g id="edge20" class="edge">
<title>Node445345&#45;&gt;Node445539</title>
<path fill="none" stroke="#191970" d="M486.0324,-314C512.423,-314 542.3412,-314 567.3811,-314"/>
<polygon fill="#191970" stroke="#191970" points="567.4312,-317.5001 577.4312,-314 567.4311,-310.5001 567.4312,-317.5001"/>
</g>
<!-- Node445346&#45;&gt;Node445340 -->
<g id="edge13" class="edge">
<title>Node445346&#45;&gt;Node445340</title>
<path fill="none" stroke="#191970" d="M692.0646,-352C700.5411,-352 709.2099,-352 717.7109,-352"/>
<polygon fill="#191970" stroke="#191970" points="717.9727,-355.5001 727.9727,-352 717.9727,-348.5001 717.9727,-355.5001"/>
</g>
<!-- Node445346&#45;&gt;Node445341 -->
<g id="edge14" class="edge">
<title>Node445346&#45;&gt;Node445341</title>
<path fill="none" stroke="#191970" d="M664.4342,-342.4137C673.6758,-339.795 683.2903,-336.652 692,-333 719.3176,-321.5456 748.3483,-303.7598 767.5565,-291.1044"/>
<polygon fill="#191970" stroke="#191970" points="769.533,-293.9932 775.8978,-285.5232 765.6402,-288.1754 769.533,-293.9932"/>
</g>
<!-- Node445346&#45;&gt;Node445349 -->
<g id="edge15" class="edge">
<title>Node445346&#45;&gt;Node445349</title>
<path fill="none" stroke="#191970" d="M678.7896,-342.3827C683.6559,-339.9097 688.1725,-336.8302 692,-333 735.2868,-289.6829 685.469,-244.0595 728,-200 731.689,-196.1784 736.1282,-193.1209 740.9119,-190.6756"/>
<polygon fill="#191970" stroke="#191970" points="742.5588,-193.7804 750.4291,-186.6875 739.8534,-187.3243 742.5588,-193.7804"/>
</g>
<!-- Node445346&#45;&gt;Node445379 -->
<g id="edge16" class="edge">
<title>Node445346&#45;&gt;Node445379</title>
<path fill="none" stroke="#191970" d="M653.42,-361.5856C665.6302,-365.6174 679.6291,-370.6214 692,-376 717.4,-387.0435 745.1611,-402.1696 764.5415,-413.261"/>
<polygon fill="#191970" stroke="#191970" points="762.9263,-416.37 773.3352,-418.3462 766.4305,-410.3103 762.9263,-416.37"/>
</g>
<!-- Node445346&#45;&gt;Node445380 -->
<g id="edge17" class="edge">
<title>Node445346&#45;&gt;Node445380</title>
<path fill="none" stroke="#191970" d="M676.3592,-342.4352C682.006,-339.971 687.3643,-336.8788 692,-333 720.665,-309.0155 703.0795,-284.8551 728,-257 736.4789,-247.5227 747.8798,-239.5948 758.5615,-233.4745"/>
<polygon fill="#191970" stroke="#191970" points="760.5273,-236.3912 767.6719,-228.5678 757.208,-230.2282 760.5273,-236.3912"/>
</g>
<!-- Node445525&#45;&gt;Node445379 -->
<g id="edge22" class="edge">
<title>Node445525&#45;&gt;Node445379</title>
<path fill="none" stroke="#191970" d="M664.2673,-456.411C686.5699,-451.3513 714.1232,-445.1004 737.7018,-439.7512"/>
<polygon fill="#191970" stroke="#191970" points="738.5588,-443.1458 747.5366,-437.5201 737.0101,-436.3193 738.5588,-443.1458"/>
</g>
<!-- Node445432&#45;&gt;Node445349 -->
<g id="edge24" class="edge">
<title>Node445432&#45;&gt;Node445349</title>
<path fill="none" stroke="#191970" d="M643.214,-114.6255C672.5387,-127.931 725.6286,-152.0196 759.1463,-167.2276"/>
<polygon fill="#191970" stroke="#191970" points="757.9056,-170.508 768.4583,-171.4527 760.798,-164.1335 757.9056,-170.508"/>
</g>
<!-- Node445766 -->
<g id="node25" class="node">
<title>Node445766</title>
<g id="a_node25"><a xlink:href="quickjs_8c.html#a960b48be1175b0982ecc03505711fc56" target="_top" xlink:title="js_new_string16">
<polygon fill="none" stroke="#ff0000" points="574.5,-532.5 574.5,-551.5 669.5,-551.5 669.5,-532.5 574.5,-532.5"/>
<text text-anchor="middle" x="622" y="-539.5" font-family="Helvetica,sans-Serif" font-size="10.00" fill="#000000">js_new_string16</text>
</a>
</g>
</g>
<!-- Node445765&#45;&gt;Node445766 -->
<g id="edge31" class="edge">
<title>Node445765&#45;&gt;Node445766</title>
<path fill="none" stroke="#191970" d="M474.122,-484.5348C488.1445,-487.339 502.9343,-491.3297 516,-497 534.1051,-504.8573 534.1878,-514.4996 552,-523 556.9721,-525.3728 562.2891,-527.4895 567.688,-529.3683"/>
<polygon fill="#191970" stroke="#191970" points="566.8465,-532.774 577.4377,-532.4973 568.9856,-526.1089 566.8465,-532.774"/>
</g>
<!-- Node445409 -->
<g id="node26" class="node">
<title>Node445409</title>
<g id="a_node26"><a xlink:href="quickjs_8c.html#aa923510185fe24e3083baf7405b09f51" target="_top" xlink:title="js_new_string8">
<polygon fill="none" stroke="#ff0000" points="577.5,-494.5 577.5,-513.5 666.5,-513.5 666.5,-494.5 577.5,-494.5"/>
<text text-anchor="middle" x="622" y="-501.5" font-family="Helvetica,sans-Serif" font-size="10.00" fill="#000000">js_new_string8</text>
</a>
</g>
</g>
<!-- Node445765&#45;&gt;Node445409 -->
<g id="edge32" class="edge">
<title>Node445765&#45;&gt;Node445409</title>
<path fill="none" stroke="#191970" d="M474.2025,-485.0703C503.1892,-488.7828 538.5872,-493.3166 567.4732,-497.0163"/>
<polygon fill="#191970" stroke="#191970" points="567.0342,-500.4885 577.3978,-498.2874 567.9235,-493.5453 567.0342,-500.4885"/>
</g>
<!-- Node445459&#45;&gt;Node445379 -->
<g id="edge38" class="edge">
<title>Node445459&#45;&gt;Node445379</title>
<path fill="none" stroke="#191970" d="M218.8063,-570.5229C241.4154,-582.7333 283.2705,-603.2541 322,-611 406.5478,-627.9096 430.6022,-622.895 516,-611 596.54,-599.7816 625.2322,-607.4177 692,-561 735.1078,-531.031 766.4865,-475.7521 780.8203,-446.8011"/>
<polygon fill="#191970" stroke="#191970" points="783.9961,-448.273 785.1708,-437.7434 777.6862,-445.2422 783.9961,-448.273"/>
</g>
</g>
</svg>
        <g id="navigator" transform="translate(0 0)" fill="#404254">
                <rect fill="#f2f5e9" fill-opacity="0.5" stroke="#606060" stroke-width=".5" x="0" y="0" width="60" height="60"/>
                <use id="zoomplus" xlink:href="#zoomPlus" x="17" y="9" onmousedown="handleZoom(evt,'in')"/>
                <use id="zoomminus" xlink:href="#zoomMin" x="42" y="9" onmousedown="handleZoom(evt,'out')"/>
                <use id="reset" xlink:href="#resetDef" x="30" y="36" onmousedown="handleReset()"/>
                <g id="arrowUp" xlink:href="#dirArrow" transform="translate(30 24)" onmousedown="handlePan(0,-1)">
                  <use xlink:href="#rim" fill="#404040">
                        <set attributeName="fill" to="#808080" begin="arrowUp.mouseover" end="arrowUp.mouseout"/>
                  </use>
                  <path fill="none" stroke="white" stroke-width="1.5" d="M0,-3.0v7 M-2.5,-0.5L0,-3.0L2.5,-0.5"/>
                </g>
                <g id="arrowRight" xlink:href="#dirArrow" transform="rotate(90) translate(36 -43)" onmousedown="handlePan(1,0)">
                  <use xlink:href="#rim" fill="#404040">
                        <set attributeName="fill" to="#808080" begin="arrowRight.mouseover" end="arrowRight.mouseout"/>
                  </use>
                  <path fill="none" stroke="white" stroke-width="1.5" d="M0,-3.0v7 M-2.5,-0.5L0,-3.0L2.5,-0.5"/>
                </g>
                <g id="arrowDown" xlink:href="#dirArrow" transform="rotate(180) translate(-30 -48)" onmousedown="handlePan(0,1)">
                  <use xlink:href="#rim" fill="#404040">
                        <set attributeName="fill" to="#808080" begin="arrowDown.mouseover" end="arrowDown.mouseout"/>
                  </use>
                  <path fill="none" stroke="white" stroke-width="1.5" d="M0,-3.0v7 M-2.5,-0.5L0,-3.0L2.5,-0.5"/>
                </g>
                <g id="arrowLeft" xlink:href="#dirArrow" transform="rotate(270) translate(-36 17)" onmousedown="handlePan(-1,0)">
                  <use xlink:href="#rim" fill="#404040">
                        <set attributeName="fill" to="#808080" begin="arrowLeft.mouseover" end="arrowLeft.mouseout"/>
                  </use>
                  <path fill="none" stroke="white" stroke-width="1.5" d="M0,-3.0v7 M-2.5,-0.5L0,-3.0L2.5,-0.5"/>
                </g>
        </g>
        <svg viewBox="0 0 15 15" width="100%" height="30px" preserveAspectRatio="xMaxYMin meet">
         <g id="arrow_out" transform="scale(0.3 0.3)">
          <a xlink:href="quickjs_8c_a6730c3163c357445c0182c52d5a53ca4_cgraph_org.svg" target="_base">
           <rect id="button" ry="5" rx="5" y="6" x="6" height="38" width="38"
                fill="#f2f5e9" fill-opacity="0.5" stroke="#606060" stroke-width="1.0"/>
           <path id="arrow"
             d="M 11.500037,31.436501 C 11.940474,20.09759 22.043105,11.32322 32.158766,21.979434 L 37.068811,17.246167 C 37.068811,17.246167 37.088388,32 37.088388,32 L 22.160133,31.978069 C 22.160133,31.978069 26.997745,27.140456 26.997745,27.140456 C 18.528582,18.264221 13.291696,25.230495 11.500037,31.436501 z"
             style="fill:#404040;"/>
          </a>
         </g>
        </svg>
</svg>
