<?xml version="1.0" encoding="UTF-8" standalone="no"?>
<!DOCTYPE svg PUBLIC "-//W3C//DTD SVG 1.1//EN"
 "http://www.w3.org/Graphics/SVG/1.1/DTD/svg11.dtd">
<!-- Generated by graphviz version 2.40.1 (20161225.0304)
 -->
<!-- Title: JS_ThrowSyntaxErrorVarRedeclaration Pages: 1 -->
<svg width="868pt" height="975pt"
 viewBox="0.00 0.00 868.00 975.00" xmlns="http://www.w3.org/2000/svg" xmlns:xlink="http://www.w3.org/1999/xlink">
<g id="graph0" class="graph" transform="scale(1 1) rotate(0) translate(4 971)">
<title>JS_ThrowSyntaxErrorVarRedeclaration</title>
<!-- Node217945 -->
<g id="node1" class="node">
<title>Node217945</title>
<polygon fill="#bfbfbf" stroke="#000000" points="0,-322.5 0,-341.5 200,-341.5 200,-322.5 0,-322.5"/>
<text text-anchor="middle" x="100" y="-329.5" font-family="Helvetica,sans-Serif" font-size="10.00" fill="#000000">JS_ThrowSyntaxErrorVarRedeclaration</text>
</g>
<!-- Node217946 -->
<g id="node2" class="node">
<title>Node217946</title>
<g id="a_node2"><a xlink:href="quickjs_8c.html#ac2894ff4edcdb4e6841bcce9c76081e3" target="_top" xlink:title="JS_CallInternal">
<polygon fill="none" stroke="#000000" points="412,-322.5 412,-341.5 499,-341.5 499,-322.5 412,-322.5"/>
<text text-anchor="middle" x="455.5" y="-329.5" font-family="Helvetica,sans-Serif" font-size="10.00" fill="#000000">JS_CallInternal</text>
</a>
</g>
</g>
<!-- Node217945&#45;&gt;Node217946 -->
<g id="edge1" class="edge">
<title>Node217945&#45;&gt;Node217946</title>
<path fill="none" stroke="#191970" d="M210.7764,-332C278.6785,-332 361.8534,-332 411.6602,-332"/>
<polygon fill="#191970" stroke="#191970" points="210.4466,-328.5001 200.4466,-332 210.4465,-335.5001 210.4466,-328.5001"/>
</g>
<!-- Node218558 -->
<g id="node30" class="node">
<title>Node218558</title>
<g id="a_node30"><a xlink:href="quickjs_8c.html#aa1646c78b429295983c0fb114f932d49" target="_top" xlink:title="JS_CheckDefineGlobalVar">
<polygon fill="none" stroke="#000000" points="236,-303.5 236,-322.5 376,-322.5 376,-303.5 236,-303.5"/>
<text text-anchor="middle" x="306" y="-310.5" font-family="Helvetica,sans-Serif" font-size="10.00" fill="#000000">JS_CheckDefineGlobalVar</text>
</a>
</g>
</g>
<!-- Node217945&#45;&gt;Node218558 -->
<g id="edge39" class="edge">
<title>Node217945&#45;&gt;Node218558</title>
<path fill="none" stroke="#191970" d="M210.469,-321.8111C219.1296,-321.0123 227.7193,-320.2201 235.9917,-319.4571"/>
<polygon fill="#191970" stroke="#191970" points="209.9207,-318.3467 200.2845,-322.7505 210.5637,-325.3171 209.9207,-318.3467"/>
</g>
<!-- Node217946&#45;&gt;Node217946 -->
<g id="edge38" class="edge">
<title>Node217946&#45;&gt;Node217946</title>
<path fill="none" stroke="#191970" d="M427.8742,-350.6539C429.0289,-355.9368 438.2375,-360 455.5,-360 481.8047,-360 489.4084,-350.5653 478.3111,-341.7571"/>
<polygon fill="#191970" stroke="#191970" points="431.0076,-352.2176 432.6889,-341.7571 424.8512,-348.886 431.0076,-352.2176"/>
</g>
<!-- Node217947 -->
<g id="node3" class="node">
<title>Node217947</title>
<g id="a_node3"><a xlink:href="quickjs_8c.html#ade71a22dc56e7371392393df663b28b3" target="_top" xlink:title="async_func_resume">
<polygon fill="none" stroke="#000000" points="550,-854.5 550,-873.5 663,-873.5 663,-854.5 550,-854.5"/>
<text text-anchor="middle" x="606.5" y="-861.5" font-family="Helvetica,sans-Serif" font-size="10.00" fill="#000000">async_func_resume</text>
</a>
</g>
</g>
<!-- Node217946&#45;&gt;Node217947 -->
<g id="edge2" class="edge">
<title>Node217946&#45;&gt;Node217947</title>
<path fill="none" stroke="#191970" d="M460.985,-351.3245C485.622,-438.125 585.6392,-790.5038 603.6983,-854.1291"/>
<polygon fill="#191970" stroke="#191970" points="464.3474,-350.3523 458.2498,-341.688 457.6133,-352.2637 464.3474,-350.3523"/>
</g>
<!-- Node217966 -->
<g id="node8" class="node">
<title>Node217966</title>
<g id="a_node8"><a xlink:href="quickjs_8c.html#a1a4c02a29525d5cb2085dd8bca3af350" target="_top" xlink:title="JS_Call">
<polygon fill="none" stroke="#ff0000" points="581.5,-360.5 581.5,-379.5 631.5,-379.5 631.5,-360.5 581.5,-360.5"/>
<text text-anchor="middle" x="606.5" y="-367.5" font-family="Helvetica,sans-Serif" font-size="10.00" fill="#000000">JS_Call</text>
</a>
</g>
</g>
<!-- Node217946&#45;&gt;Node217966 -->
<g id="edge7" class="edge">
<title>Node217946&#45;&gt;Node217966</title>
<path fill="none" stroke="#191970" d="M508.9688,-338.9679C536.143,-345.1422 567.4903,-353.6288 587.1527,-360.4368"/>
<polygon fill="#191970" stroke="#191970" points="509.695,-335.544 499.1755,-336.8052 508.1854,-342.3793 509.695,-335.544"/>
</g>
<!-- Node218052 -->
<g id="node28" class="node">
<title>Node218052</title>
<g id="a_node28"><a xlink:href="quickjs_8c.html#ad35594576a14c10812efaf958c99af8a" target="_top" xlink:title="JS_CallConstructorInternal">
<polygon fill="none" stroke="#ff0000" points="535,-322.5 535,-341.5 678,-341.5 678,-322.5 535,-322.5"/>
<text text-anchor="middle" x="606.5" y="-329.5" font-family="Helvetica,sans-Serif" font-size="10.00" fill="#000000">JS_CallConstructorInternal</text>
</a>
</g>
</g>
<!-- Node217946&#45;&gt;Node218052 -->
<g id="edge33" class="edge">
<title>Node217946&#45;&gt;Node218052</title>
<path fill="none" stroke="#191970" d="M509.3716,-325.5024C517.6056,-325.3053 526.2144,-325.2236 534.7589,-325.2574"/>
<polygon fill="#191970" stroke="#191970" points="509.0639,-322.0101 499.1755,-325.814 509.2777,-329.0069 509.0639,-322.0101"/>
</g>
<!-- Node218066 -->
<g id="node29" class="node">
<title>Node218066</title>
<g id="a_node29"><a xlink:href="quickjs_8c.html#a75f6ee5e4235a7dc99889f3d2eb2c147" target="_top" xlink:title="JS_CallFree">
<polygon fill="none" stroke="#ff0000" points="571.5,-246.5 571.5,-265.5 641.5,-265.5 641.5,-246.5 571.5,-246.5"/>
<text text-anchor="middle" x="606.5" y="-253.5" font-family="Helvetica,sans-Serif" font-size="10.00" fill="#000000">JS_CallFree</text>
</a>
</g>
</g>
<!-- Node217946&#45;&gt;Node218066 -->
<g id="edge35" class="edge">
<title>Node217946&#45;&gt;Node218066</title>
<path fill="none" stroke="#191970" d="M469.1085,-314.9647C484.4488,-301.1264 510.4593,-282.9013 535,-271 546.428,-265.4578 559.461,-260.6699 571.242,-257.3499"/>
<polygon fill="#191970" stroke="#191970" points="466.4745,-312.6446 461.761,-322.1333 471.3629,-317.655 466.4745,-312.6446"/>
</g>
<!-- Node217948 -->
<g id="node4" class="node">
<title>Node217948</title>
<g id="a_node4"><a xlink:href="quickjs_8c.html#ac90552b1f1659acb3dae9a4c62479a30" target="_top" xlink:title="js_generator_function_call">
<polygon fill="none" stroke="#ff0000" points="714.5,-947.5 714.5,-966.5 859.5,-966.5 859.5,-947.5 714.5,-947.5"/>
<text text-anchor="middle" x="787" y="-954.5" font-family="Helvetica,sans-Serif" font-size="10.00" fill="#000000">js_generator_function_call</text>
</a>
</g>
</g>
<!-- Node217947&#45;&gt;Node217948 -->
<g id="edge3" class="edge">
<title>Node217947&#45;&gt;Node217948</title>
<path fill="none" stroke="#191970" d="M625.5497,-880.2005C646.1194,-896.9232 680.4625,-922.6696 714,-938 722.2182,-941.7566 731.3096,-944.8685 740.2063,-947.4103"/>
<polygon fill="#191970" stroke="#191970" points="627.5567,-877.3185 617.6199,-873.6428 623.0957,-882.7129 627.5567,-877.3185"/>
</g>
<!-- Node217957 -->
<g id="node5" class="node">
<title>Node217957</title>
<g id="a_node5"><a xlink:href="quickjs_8c.html#a1bf6b62983e8fff99c0a5d5a9f486115" target="_top" xlink:title="js_async_function_resume">
<polygon fill="none" stroke="#ff0000" points="714,-810.5 714,-829.5 860,-829.5 860,-810.5 714,-810.5"/>
<text text-anchor="middle" x="787" y="-817.5" font-family="Helvetica,sans-Serif" font-size="10.00" fill="#000000">js_async_function_resume</text>
</a>
</g>
</g>
<!-- Node217947&#45;&gt;Node217957 -->
<g id="edge4" class="edge">
<title>Node217947&#45;&gt;Node217957</title>
<path fill="none" stroke="#191970" d="M655.6001,-852.031C684.613,-844.9586 720.8451,-836.1264 747.9106,-829.5287"/>
<polygon fill="#191970" stroke="#191970" points="654.5524,-848.6838 645.6658,-854.4527 656.2103,-855.4847 654.5524,-848.6838"/>
</g>
<!-- Node217964 -->
<g id="node6" class="node">
<title>Node217964</title>
<g id="a_node6"><a xlink:href="quickjs_8c.html#a89b019c704a2d2914bc30b30a72040b3" target="_top" xlink:title="js_async_generator\l_resume_next">
<polygon fill="none" stroke="#000000" points="731.5,-898 731.5,-928 842.5,-928 842.5,-898 731.5,-898"/>
<text text-anchor="start" x="739.5" y="-916" font-family="Helvetica,sans-Serif" font-size="10.00" fill="#000000">js_async_generator</text>
<text text-anchor="middle" x="787" y="-905" font-family="Helvetica,sans-Serif" font-size="10.00" fill="#000000">_resume_next</text>
</a>
</g>
</g>
<!-- Node217947&#45;&gt;Node217964 -->
<g id="edge5" class="edge">
<title>Node217947&#45;&gt;Node217964</title>
<path fill="none" stroke="#191970" d="M651.4024,-876.1896C675.6825,-882.7808 705.8788,-890.9782 731.6087,-897.963"/>
<polygon fill="#191970" stroke="#191970" points="652.2984,-872.8062 641.7307,-873.564 650.4645,-879.5617 652.2984,-872.8062"/>
</g>
<!-- Node217965 -->
<g id="node7" class="node">
<title>Node217965</title>
<g id="a_node7"><a xlink:href="quickjs_8c.html#ae19867da709929c072f05e90301835a4" target="_top" xlink:title="js_async_generator\l_function_call">
<polygon fill="none" stroke="#ff0000" points="731.5,-849 731.5,-879 842.5,-879 842.5,-849 731.5,-849"/>
<text text-anchor="start" x="739.5" y="-867" font-family="Helvetica,sans-Serif" font-size="10.00" fill="#000000">js_async_generator</text>
<text text-anchor="middle" x="787" y="-856" font-family="Helvetica,sans-Serif" font-size="10.00" fill="#000000">_function_call</text>
</a>
</g>
</g>
<!-- Node217947&#45;&gt;Node217965 -->
<g id="edge6" class="edge">
<title>Node217947&#45;&gt;Node217965</title>
<path fill="none" stroke="#191970" d="M673.2282,-864C692.2941,-864 712.8655,-864 731.2038,-864"/>
<polygon fill="#191970" stroke="#191970" points="673.1161,-860.5001 663.1161,-864 673.1161,-867.5001 673.1161,-860.5001"/>
</g>
<!-- Node217966&#45;&gt;Node217946 -->
<g id="edge14" class="edge">
<title>Node217966&#45;&gt;Node217946</title>
<path fill="none" stroke="#191970" d="M571.2959,-366.9509C541.2742,-360.9471 499.2287,-349.9968 474.9315,-341.5924"/>
<polygon fill="#191970" stroke="#191970" points="570.8884,-370.4358 581.3648,-368.856 572.1898,-363.5579 570.8884,-370.4358"/>
</g>
<!-- Node217966&#45;&gt;Node217957 -->
<g id="edge15" class="edge">
<title>Node217966&#45;&gt;Node217957</title>
<path fill="none" stroke="#191970" d="M608.7739,-389.8867C617.9168,-466.437 654.3979,-740.7873 714,-801 717.7773,-804.816 722.2171,-807.897 727.0103,-810.3806"/>
<polygon fill="#191970" stroke="#191970" points="612.2224,-389.2419 607.5826,-379.7171 605.27,-390.0564 612.2224,-389.2419"/>
</g>
<!-- Node217967 -->
<g id="node9" class="node">
<title>Node217967</title>
<g id="a_node9"><a xlink:href="structqjs_1_1js__traits_3_01std_1_1function_3_01R_07Args_8_8_8_08_4_01_4.html#ac449e51d3fe10c6c115596fa6ec278ee" target="_top" xlink:title="qjs::js_traits\&lt; std\l::function\&lt; R(Args...)\l\&gt; \&gt;::unwrap">
<polygon fill="none" stroke="#000000" points="727.5,-694.5 727.5,-735.5 846.5,-735.5 846.5,-694.5 727.5,-694.5"/>
<text text-anchor="start" x="735.5" y="-723.5" font-family="Helvetica,sans-Serif" font-size="10.00" fill="#000000">qjs::js_traits&lt; std</text>
<text text-anchor="start" x="735.5" y="-712.5" font-family="Helvetica,sans-Serif" font-size="10.00" fill="#000000">::function&lt; R(Args...)</text>
<text text-anchor="middle" x="787" y="-701.5" font-family="Helvetica,sans-Serif" font-size="10.00" fill="#000000">&gt; &gt;::unwrap</text>
</a>
</g>
</g>
<!-- Node217966&#45;&gt;Node217967 -->
<g id="edge8" class="edge">
<title>Node217966&#45;&gt;Node217967</title>
<path fill="none" stroke="#191970" d="M607.7226,-389.687C612.1142,-443.9404 631.569,-597.3772 714,-685 717.8494,-689.0918 722.3382,-692.6424 727.1629,-695.7203"/>
<polygon fill="#191970" stroke="#191970" points="611.2108,-389.3955 606.9969,-379.6747 604.2291,-389.9016 611.2108,-389.3955"/>
</g>
<!-- Node217968 -->
<g id="node10" class="node">
<title>Node217968</title>
<g id="a_node10"><a xlink:href="quickjs-libc_8c.html#abb1cbe3fdf905e81f603a3a0bfce475a" target="_top" xlink:title="call_handler">
<polygon fill="none" stroke="#000000" points="749,-656.5 749,-675.5 825,-675.5 825,-656.5 749,-656.5"/>
<text text-anchor="middle" x="787" y="-663.5" font-family="Helvetica,sans-Serif" font-size="10.00" fill="#000000">call_handler</text>
</a>
</g>
</g>
<!-- Node217966&#45;&gt;Node217968 -->
<g id="edge9" class="edge">
<title>Node217966&#45;&gt;Node217968</title>
<path fill="none" stroke="#191970" d="M608.1583,-389.859C613.4984,-440.6991 634.8406,-576.4984 714,-647 723.5839,-655.5357 736.528,-660.3206 748.8551,-662.9756"/>
<polygon fill="#191970" stroke="#191970" points="611.6134,-389.2195 607.182,-379.596 604.6449,-389.8825 611.6134,-389.2195"/>
</g>
<!-- Node217969 -->
<g id="node11" class="node">
<title>Node217969</title>
<g id="a_node11"><a xlink:href="quickjs-libc_8c.html#a9fa4c190ba56314c7ed9b00bbc7ad0f9" target="_top" xlink:title="handle_posted_message">
<polygon fill="none" stroke="#000000" points="718.5,-618.5 718.5,-637.5 855.5,-637.5 855.5,-618.5 718.5,-618.5"/>
<text text-anchor="middle" x="787" y="-625.5" font-family="Helvetica,sans-Serif" font-size="10.00" fill="#000000">handle_posted_message</text>
</a>
</g>
</g>
<!-- Node217966&#45;&gt;Node217969 -->
<g id="edge10" class="edge">
<title>Node217966&#45;&gt;Node217969</title>
<path fill="none" stroke="#191970" d="M609.4726,-389.5747C617.4767,-435.2996 643.827,-549.7295 714,-609 718.6022,-612.8871 723.9074,-615.9908 729.5145,-618.467"/>
<polygon fill="#191970" stroke="#191970" points="612.8931,-388.8052 607.8174,-379.5053 605.9858,-389.9406 612.8931,-388.8052"/>
</g>
<!-- Node217970 -->
<g id="node12" class="node">
<title>Node217970</title>
<g id="a_node12"><a xlink:href="quickjs_8c.html#aa049793cc8648d35fe81876a2543ca4e" target="_top" xlink:title="JS_GetIterator2">
<polygon fill="none" stroke="#ff0000" points="742,-580.5 742,-599.5 832,-599.5 832,-580.5 742,-580.5"/>
<text text-anchor="middle" x="787" y="-587.5" font-family="Helvetica,sans-Serif" font-size="10.00" fill="#000000">JS_GetIterator2</text>
</a>
</g>
</g>
<!-- Node217966&#45;&gt;Node217970 -->
<g id="edge11" class="edge">
<title>Node217966&#45;&gt;Node217970</title>
<path fill="none" stroke="#191970" d="M611.2483,-389.4561C622.1289,-429.7913 652.7739,-522.7766 714,-571 722.0246,-577.3204 731.9361,-581.5531 741.8398,-584.3837"/>
<polygon fill="#191970" stroke="#191970" points="614.6348,-388.5718 608.7456,-379.7645 607.8572,-390.322 614.6348,-388.5718"/>
</g>
<!-- Node218002 -->
<g id="node13" class="node">
<title>Node218002</title>
<g id="a_node13"><a xlink:href="quickjs_8c.html#ad6303fbd3add4afa0cb64b0aa6d431ce" target="_top" xlink:title="JS_IteratorNext2">
<polygon fill="none" stroke="#ff0000" points="739,-542.5 739,-561.5 835,-561.5 835,-542.5 739,-542.5"/>
<text text-anchor="middle" x="787" y="-549.5" font-family="Helvetica,sans-Serif" font-size="10.00" fill="#000000">JS_IteratorNext2</text>
</a>
</g>
</g>
<!-- Node217966&#45;&gt;Node218002 -->
<g id="edge12" class="edge">
<title>Node217966&#45;&gt;Node218002</title>
<path fill="none" stroke="#191970" d="M613.7389,-389.2718C627.6672,-423.6484 661.5386,-495.4526 714,-533 721.348,-538.2591 730.0383,-542.0635 738.8133,-544.8153"/>
<polygon fill="#191970" stroke="#191970" points="616.967,-387.9164 610.0582,-379.8841 610.4501,-390.4717 616.967,-387.9164"/>
</g>
<!-- Node218006 -->
<g id="node14" class="node">
<title>Node218006</title>
<g id="a_node14"><a xlink:href="quickjs_8c.html#afd4ef2d701fa0702f321925b61c57bbf" target="_top" xlink:title="js_call_bound_function">
<polygon fill="none" stroke="#ff0000" points="723,-504.5 723,-523.5 851,-523.5 851,-504.5 723,-504.5"/>
<text text-anchor="middle" x="787" y="-511.5" font-family="Helvetica,sans-Serif" font-size="10.00" fill="#000000">js_call_bound_function</text>
</a>
</g>
</g>
<!-- Node217966&#45;&gt;Node218006 -->
<g id="edge13" class="edge">
<title>Node217966&#45;&gt;Node218006</title>
<path fill="none" stroke="#191970" d="M617.0389,-388.167C633.921,-415.6108 669.6789,-467.3624 714,-495 720.2229,-498.8805 727.2165,-501.9724 734.3457,-504.4351"/>
<polygon fill="#191970" stroke="#191970" points="620.0171,-386.3279 611.8715,-379.5529 614.0143,-389.9288 620.0171,-386.3279"/>
</g>
<!-- Node218007 -->
<g id="node15" class="node">
<title>Node218007</title>
<g id="a_node15"><a xlink:href="quickjs_8c.html#a3e852026d167fa03c673f86697dd3e67" target="_top" xlink:title="js_async_generator\l_resolve_or_reject">
<polygon fill="none" stroke="#ff0000" points="731.5,-455 731.5,-485 842.5,-485 842.5,-455 731.5,-455"/>
<text text-anchor="start" x="739.5" y="-473" font-family="Helvetica,sans-Serif" font-size="10.00" fill="#000000">js_async_generator</text>
<text text-anchor="middle" x="787" y="-462" font-family="Helvetica,sans-Serif" font-size="10.00" fill="#000000">_resolve_or_reject</text>
</a>
</g>
</g>
<!-- Node217966&#45;&gt;Node218007 -->
<g id="edge16" class="edge">
<title>Node217966&#45;&gt;Node218007</title>
<path fill="none" stroke="#191970" d="M626.0883,-386.2011C646.8614,-402.7553 681.1499,-428.3316 714,-445 721.1678,-448.637 728.9857,-451.9424 736.7552,-454.872"/>
<polygon fill="#191970" stroke="#191970" points="628.0344,-383.2738 618.0565,-379.7111 623.6348,-388.7185 628.0344,-383.2738"/>
</g>
<!-- Node218010 -->
<g id="node16" class="node">
<title>Node218010</title>
<g id="a_node16"><a xlink:href="quickjs_8c.html#a2355fabf91f59212ea65baba1b0b7c1b" target="_top" xlink:title="js_async_generator_next">
<polygon fill="none" stroke="#000000" points="718,-416.5 718,-435.5 856,-435.5 856,-416.5 718,-416.5"/>
<text text-anchor="middle" x="787" y="-423.5" font-family="Helvetica,sans-Serif" font-size="10.00" fill="#000000">js_async_generator_next</text>
</a>
</g>
</g>
<!-- Node217966&#45;&gt;Node218010 -->
<g id="edge17" class="edge">
<title>Node217966&#45;&gt;Node218010</title>
<path fill="none" stroke="#191970" d="M640.966,-382.6182C661.9478,-390.1106 689.3677,-399.5674 714,-407 725.033,-410.3291 737.1068,-413.6146 748.2021,-416.4931"/>
<polygon fill="#191970" stroke="#191970" points="642.1128,-379.3112 631.5183,-379.2221 639.7448,-385.8986 642.1128,-379.3112"/>
</g>
<!-- Node218011 -->
<g id="node17" class="node">
<title>Node218011</title>
<g id="a_node17"><a xlink:href="quickjs_8c.html#adc0280beaa04d2b8fcaf05a82ab26c74" target="_top" xlink:title="js_link_module">
<polygon fill="none" stroke="#ff0000" points="742,-360.5 742,-379.5 832,-379.5 832,-360.5 742,-360.5"/>
<text text-anchor="middle" x="787" y="-367.5" font-family="Helvetica,sans-Serif" font-size="10.00" fill="#000000">js_link_module</text>
</a>
</g>
</g>
<!-- Node217966&#45;&gt;Node218011 -->
<g id="edge18" class="edge">
<title>Node217966&#45;&gt;Node218011</title>
<path fill="none" stroke="#191970" d="M641.9452,-370C670.5725,-370 711.0402,-370 741.9614,-370"/>
<polygon fill="#191970" stroke="#191970" points="641.5978,-366.5001 631.5978,-370 641.5977,-373.5001 641.5978,-366.5001"/>
</g>
<!-- Node218015 -->
<g id="node18" class="node">
<title>Node218015</title>
<g id="a_node18"><a xlink:href="quickjs_8c.html#a6357b7fdae71c70c140e78e6c20cb5c2" target="_top" xlink:title="js_dynamic_import_job">
<polygon fill="none" stroke="#ff0000" points="722,-322.5 722,-341.5 852,-341.5 852,-322.5 722,-322.5"/>
<text text-anchor="middle" x="787" y="-329.5" font-family="Helvetica,sans-Serif" font-size="10.00" fill="#000000">js_dynamic_import_job</text>
</a>
</g>
</g>
<!-- Node217966&#45;&gt;Node218015 -->
<g id="edge20" class="edge">
<title>Node217966&#45;&gt;Node218015</title>
<path fill="none" stroke="#191970" d="M641.5316,-362.6249C670.0724,-356.6163 710.5804,-348.0883 741.6052,-341.5568"/>
<polygon fill="#191970" stroke="#191970" points="640.6622,-359.2312 631.5978,-364.7163 642.1043,-366.081 640.6622,-359.2312"/>
</g>
<!-- Node218019 -->
<g id="node19" class="node">
<title>Node218019</title>
<g id="a_node19"><a xlink:href="quickjs_8c.html#a8d4b24969540aff427939eeda47f451d" target="_top" xlink:title="js_function_apply">
<polygon fill="none" stroke="#ff0000" points="736,-38.5 736,-57.5 838,-57.5 838,-38.5 736,-38.5"/>
<text text-anchor="middle" x="787" y="-45.5" font-family="Helvetica,sans-Serif" font-size="10.00" fill="#000000">js_function_apply</text>
</a>
</g>
</g>
<!-- Node217966&#45;&gt;Node218019 -->
<g id="edge21" class="edge">
<title>Node217966&#45;&gt;Node218019</title>
<path fill="none" stroke="#191970" d="M641.9508,-368.6652C655.1019,-366.3167 668.993,-361.2989 678,-351 761.7587,-255.2267 629.997,-162.5591 714,-67 719.793,-60.41 727.554,-55.9681 735.8561,-53.0011"/>
<polygon fill="#191970" stroke="#191970" points="641.1241,-365.244 631.67,-370.0262 642.0429,-372.1834 641.1241,-365.244"/>
</g>
<!-- Node218022 -->
<g id="node20" class="node">
<title>Node218022</title>
<g id="a_node20"><a xlink:href="quickjs_8c.html#a677ad630a103e1f3d5129e0549112b50" target="_top" xlink:title="js_function_call">
<polygon fill="none" stroke="#000000" points="741,-284.5 741,-303.5 833,-303.5 833,-284.5 741,-284.5"/>
<text text-anchor="middle" x="787" y="-291.5" font-family="Helvetica,sans-Serif" font-size="10.00" fill="#000000">js_function_call</text>
</a>
</g>
</g>
<!-- Node217966&#45;&gt;Node218022 -->
<g id="edge23" class="edge">
<title>Node217966&#45;&gt;Node218022</title>
<path fill="none" stroke="#191970" d="M641.4922,-364.7408C653.6322,-361.8945 666.9578,-357.5603 678,-351 698.0009,-339.1173 693.9688,-324.8316 714,-313 722.1186,-308.2047 731.4449,-304.6038 740.6573,-301.9048"/>
<polygon fill="#191970" stroke="#191970" points="640.7219,-361.326 631.6494,-366.7979 642.154,-368.178 640.7219,-361.326"/>
</g>
<!-- Node217973 -->
<g id="node21" class="node">
<title>Node217973</title>
<g id="a_node21"><a xlink:href="quickjs_8c.html#a5e32da9a43002cb96dcbd62a1a340144" target="_top" xlink:title="js_array_from">
<polygon fill="none" stroke="#000000" points="745,-246.5 745,-265.5 829,-265.5 829,-246.5 745,-246.5"/>
<text text-anchor="middle" x="787" y="-253.5" font-family="Helvetica,sans-Serif" font-size="10.00" fill="#000000">js_array_from</text>
</a>
</g>
</g>
<!-- Node217966&#45;&gt;Node217973 -->
<g id="edge24" class="edge">
<title>Node217966&#45;&gt;Node217973</title>
<path fill="none" stroke="#191970" d="M641.9345,-366.7699C654.4435,-364.1306 667.8961,-359.4086 678,-351 706.7286,-327.0917 685.2105,-298.8349 714,-275 722.6752,-267.8178 733.7601,-263.3169 744.6566,-260.5064"/>
<polygon fill="#191970" stroke="#191970" points="641.0004,-363.3794 631.743,-368.5322 642.1932,-370.277 641.0004,-363.3794"/>
</g>
<!-- Node217999 -->
<g id="node22" class="node">
<title>Node217999</title>
<g id="a_node22"><a xlink:href="quickjs_8c.html#aa0bbf08a7e91459c68a312fba7016c6d" target="_top" xlink:title="js_array_every">
<polygon fill="none" stroke="#000000" points="742.5,-208.5 742.5,-227.5 831.5,-227.5 831.5,-208.5 742.5,-208.5"/>
<text text-anchor="middle" x="787" y="-215.5" font-family="Helvetica,sans-Serif" font-size="10.00" fill="#000000">js_array_every</text>
</a>
</g>
</g>
<!-- Node217966&#45;&gt;Node217999 -->
<g id="edge25" class="edge">
<title>Node217966&#45;&gt;Node217999</title>
<path fill="none" stroke="#191970" d="M641.6218,-367.6842C654.4798,-365.1784 668.2514,-360.3088 678,-351 716.4275,-314.3061 675.4789,-273.5956 714,-237 721.7854,-229.6037 732.0731,-224.9963 742.4613,-222.15"/>
<polygon fill="#191970" stroke="#191970" points="640.9513,-364.2461 631.6001,-369.2266 642.0162,-371.1646 640.9513,-364.2461"/>
</g>
<!-- Node218023 -->
<g id="node23" class="node">
<title>Node218023</title>
<g id="a_node23"><a xlink:href="quickjs_8c.html#a36c1692489542a86dd79a7d39ab8ff95" target="_top" xlink:title="js_array_reduce">
<polygon fill="none" stroke="#000000" points="740,-170.5 740,-189.5 834,-189.5 834,-170.5 740,-170.5"/>
<text text-anchor="middle" x="787" y="-177.5" font-family="Helvetica,sans-Serif" font-size="10.00" fill="#000000">js_array_reduce</text>
</a>
</g>
</g>
<!-- Node217966&#45;&gt;Node218023 -->
<g id="edge26" class="edge">
<title>Node217966&#45;&gt;Node218023</title>
<path fill="none" stroke="#191970" d="M641.6941,-368.1059C654.6838,-365.6666 668.5285,-360.7325 678,-351 726.419,-301.247 665.4541,-248.6292 714,-199 720.9596,-191.8851 730.2208,-187.32 739.8036,-184.418"/>
<polygon fill="#191970" stroke="#191970" points="640.9559,-364.6761 631.5598,-369.5712 641.9577,-371.6041 640.9559,-364.6761"/>
</g>
<!-- Node218024 -->
<g id="node24" class="node">
<title>Node218024</title>
<g id="a_node24"><a xlink:href="quickjs_8c.html#a9dd41b086da4e13b3487cc9c6e2af2b8" target="_top" xlink:title="js_array_find">
<polygon fill="none" stroke="#000000" points="747.5,-132.5 747.5,-151.5 826.5,-151.5 826.5,-132.5 747.5,-132.5"/>
<text text-anchor="middle" x="787" y="-139.5" font-family="Helvetica,sans-Serif" font-size="10.00" fill="#000000">js_array_find</text>
</a>
</g>
</g>
<!-- Node217966&#45;&gt;Node218024 -->
<g id="edge27" class="edge">
<title>Node217966&#45;&gt;Node218024</title>
<path fill="none" stroke="#191970" d="M641.9244,-368.325C654.9454,-365.9155 668.7513,-360.9445 678,-351 736.5318,-288.0644 655.3077,-223.7859 714,-161 722.5853,-151.8159 734.9973,-146.848 747.1586,-144.2257"/>
<polygon fill="#191970" stroke="#191970" points="641.1679,-364.8969 631.7522,-369.7543 642.1419,-371.8288 641.1679,-364.8969"/>
</g>
<!-- Node218025 -->
<g id="node25" class="node">
<title>Node218025</title>
<g id="a_node25"><a xlink:href="quickjs_8c.html#ad90c33b4aae1181151bda4a98ac2ef23" target="_top" xlink:title="JS_FlattenIntoArray">
<polygon fill="none" stroke="#ff0000" points="732,-76.5 732,-95.5 842,-95.5 842,-76.5 732,-76.5"/>
<text text-anchor="middle" x="787" y="-83.5" font-family="Helvetica,sans-Serif" font-size="10.00" fill="#000000">JS_FlattenIntoArray</text>
</a>
</g>
</g>
<!-- Node217966&#45;&gt;Node218025 -->
<g id="edge28" class="edge">
<title>Node217966&#45;&gt;Node218025</title>
<path fill="none" stroke="#191970" d="M641.7912,-368.5234C654.9197,-366.1548 668.837,-361.1603 678,-351 746.7058,-274.8163 653.6315,-205.9463 714,-123 723.448,-110.0185 738.7785,-101.2881 752.9574,-95.5853"/>
<polygon fill="#191970" stroke="#191970" points="640.9789,-365.1012 631.5374,-369.9085 641.916,-372.0382 640.9789,-365.1012"/>
</g>
<!-- Node218027 -->
<g id="node26" class="node">
<title>Node218027</title>
<g id="a_node26"><a xlink:href="quickjs_8c.html#aed1bf9ce4b9e3a82388679dd6ec7635b" target="_top" xlink:title="js_string_replace">
<polygon fill="none" stroke="#000000" points="737.5,-.5 737.5,-19.5 836.5,-19.5 836.5,-.5 737.5,-.5"/>
<text text-anchor="middle" x="787" y="-7.5" font-family="Helvetica,sans-Serif" font-size="10.00" fill="#000000">js_string_replace</text>
</a>
</g>
</g>
<!-- Node217966&#45;&gt;Node218027 -->
<g id="edge30" class="edge">
<title>Node217966&#45;&gt;Node218027</title>
<path fill="none" stroke="#191970" d="M642.0288,-368.7328C655.1909,-366.394 669.0692,-361.3651 678,-351 771.997,-241.9067 619.7247,-137.8529 714,-29 720.0872,-21.9715 728.4131,-17.3802 737.2676,-14.4148"/>
<polygon fill="#191970" stroke="#191970" points="641.1949,-365.3121 631.7347,-370.0824 642.1049,-372.2527 641.1949,-365.3121"/>
</g>
<!-- Node218028 -->
<g id="node27" class="node">
<title>Node218028</title>
<g id="a_node27"><a xlink:href="quickjs_8c.html#a624282391413d4c5a030adbd8b77aa80" target="_top" xlink:title="internalize_json_property">
<polygon fill="none" stroke="#ff0000" points="717,-754.5 717,-773.5 857,-773.5 857,-754.5 717,-754.5"/>
<text text-anchor="middle" x="787" y="-761.5" font-family="Helvetica,sans-Serif" font-size="10.00" fill="#000000">internalize_json_property</text>
</a>
</g>
</g>
<!-- Node217966&#45;&gt;Node218028 -->
<g id="edge31" class="edge">
<title>Node217966&#45;&gt;Node218028</title>
<path fill="none" stroke="#191970" d="M609.5744,-389.9586C620.7627,-460.0825 661.424,-693.6994 714,-745 717.9367,-748.8412 722.5466,-751.9335 727.5028,-754.4191"/>
<polygon fill="#191970" stroke="#191970" points="612.9924,-389.1627 607.983,-379.827 606.0772,-390.249 612.9924,-389.1627"/>
</g>
<!-- Node218011&#45;&gt;Node218011 -->
<g id="edge19" class="edge">
<title>Node218011&#45;&gt;Node218011</title>
<path fill="none" stroke="#191970" d="M753.267,-387.8913C753.761,-393.5406 765.0054,-398 787,-398 818.9922,-398 828.2399,-388.5653 814.7432,-379.7571"/>
<polygon fill="#191970" stroke="#191970" points="756.1456,-389.8848 759.2568,-379.7571 750.5089,-385.7341 756.1456,-389.8848"/>
</g>
<!-- Node218019&#45;&gt;Node217946 -->
<g id="edge22" class="edge">
<title>Node218019&#45;&gt;Node217946</title>
<path fill="none" stroke="#191970" d="M726.4401,-57.479C721.8135,-59.9968 717.5661,-63.1239 714,-67 650.478,-136.0429 741.6544,-206.0791 678,-275 674.8422,-278.4191 557.8862,-307.1828 494.8423,-322.4943"/>
<polygon fill="#191970" stroke="#191970" points="728.0092,-60.6117 735.7252,-53.3513 725.1657,-54.2153 728.0092,-60.6117"/>
</g>
<!-- Node218025&#45;&gt;Node218025 -->
<g id="edge29" class="edge">
<title>Node218025&#45;&gt;Node218025</title>
<path fill="none" stroke="#191970" d="M753.267,-103.8913C753.761,-109.5406 765.0054,-114 787,-114 818.9922,-114 828.2399,-104.5653 814.7432,-95.7571"/>
<polygon fill="#191970" stroke="#191970" points="756.1456,-105.8848 759.2568,-95.7571 750.5089,-101.7341 756.1456,-105.8848"/>
</g>
<!-- Node218028&#45;&gt;Node218028 -->
<g id="edge32" class="edge">
<title>Node218028&#45;&gt;Node218028</title>
<path fill="none" stroke="#191970" d="M753.267,-781.8913C753.761,-787.5406 765.0054,-792 787,-792 818.9922,-792 828.2399,-782.5653 814.7432,-773.7571"/>
<polygon fill="#191970" stroke="#191970" points="756.1456,-783.8848 759.2568,-773.7571 750.5089,-779.7341 756.1456,-783.8848"/>
</g>
<!-- Node218052&#45;&gt;Node217946 -->
<g id="edge34" class="edge">
<title>Node218052&#45;&gt;Node217946</title>
<path fill="none" stroke="#191970" d="M524.5027,-338.7277C515.7876,-338.6679 507.1888,-338.4873 499.1755,-338.186"/>
<polygon fill="#191970" stroke="#191970" points="524.7538,-342.228 534.7589,-338.7426 524.764,-335.228 524.7538,-342.228"/>
</g>
<!-- Node218066&#45;&gt;Node217946 -->
<g id="edge36" class="edge">
<title>Node218066&#45;&gt;Node217946</title>
<path fill="none" stroke="#191970" d="M584.3995,-269.5042C569.9716,-275.0169 550.9271,-281.276 535,-289 514.9668,-298.7153 493.9541,-312.6448 478.566,-322.3222"/>
<polygon fill="#191970" stroke="#191970" points="586.032,-272.6189 593.9787,-265.6118 583.3968,-266.1338 586.032,-272.6189"/>
</g>
<!-- Node218066&#45;&gt;Node218027 -->
<g id="edge37" class="edge">
<title>Node218066&#45;&gt;Node218027</title>
<path fill="none" stroke="#191970" d="M609.9659,-236.5088C618.8478,-192.4658 646.6438,-84.7696 714,-29 720.7583,-23.4043 728.9793,-19.4361 737.4345,-16.6269"/>
<polygon fill="#191970" stroke="#191970" points="606.4983,-236.0086 608.0628,-246.4873 613.3744,-237.3201 606.4983,-236.0086"/>
</g>
<!-- Node218558&#45;&gt;Node217946 -->
<g id="edge40" class="edge">
<title>Node218558&#45;&gt;Node217946</title>
<path fill="none" stroke="#191970" d="M386.3208,-323.208C395.1165,-324.3258 403.8087,-325.4305 411.9068,-326.4597"/>
<polygon fill="#191970" stroke="#191970" points="386.7338,-319.7324 376.3723,-321.9436 385.8513,-326.6766 386.7338,-319.7324"/>
</g>
</g>
</svg>
