<?xml version="1.0" encoding="UTF-8" standalone="no"?>
<!DOCTYPE svg PUBLIC "-//W3C//DTD SVG 1.1//EN"
 "http://www.w3.org/Graphics/SVG/1.1/DTD/svg11.dtd">
<!-- Generated by graphviz version 2.40.1 (20161225.0304)
 -->
<!-- Title: js_new_string8 Pages: 1 -->
<svg width="576pt" height="963pt"
 viewBox="0.00 0.00 576.00 963.00" xmlns="http://www.w3.org/2000/svg" xmlns:xlink="http://www.w3.org/1999/xlink">
<g id="graph0" class="graph" transform="scale(1 1) rotate(0) translate(4 959)">
<title>js_new_string8</title>
<!-- Node98987 -->
<g id="node1" class="node">
<title>Node98987</title>
<polygon fill="#bfbfbf" stroke="#000000" points="0,-707.5 0,-726.5 89,-726.5 89,-707.5 0,-707.5"/>
<text text-anchor="middle" x="44.5" y="-714.5" font-family="Helvetica,sans-Serif" font-size="10.00" fill="#000000">js_new_string8</text>
</g>
<!-- Node98988 -->
<g id="node2" class="node">
<title>Node98988</title>
<g id="a_node2"><a xlink:href="quickjs_8c.html#ab0bd3fbfe9b7f004c067b103a6d60d03" target="_top" xlink:title="js_compile_regexp">
<polygon fill="none" stroke="#000000" points="126,-878.5 126,-897.5 234,-897.5 234,-878.5 126,-878.5"/>
<text text-anchor="middle" x="180" y="-885.5" font-family="Helvetica,sans-Serif" font-size="10.00" fill="#000000">js_compile_regexp</text>
</a>
</g>
</g>
<!-- Node98987&#45;&gt;Node98988 -->
<g id="edge1" class="edge">
<title>Node98987&#45;&gt;Node98988</title>
<path fill="none" stroke="#191970" d="M58.6101,-734.8068C87.0764,-770.7311 150.5308,-850.8101 172.4109,-878.4226"/>
<polygon fill="#191970" stroke="#191970" points="61.1271,-732.3476 52.1733,-726.6837 55.6407,-736.695 61.1271,-732.3476"/>
</g>
<!-- Node98997 -->
<g id="node6" class="node">
<title>Node98997</title>
<g id="a_node6"><a xlink:href="quickjs_8c.html#a077ffa6455c0d7831bd4547542b5f2f7" target="_top" xlink:title="js_new_string_char">
<polygon fill="none" stroke="#000000" points="125,-745.5 125,-764.5 235,-764.5 235,-745.5 125,-745.5"/>
<text text-anchor="middle" x="180" y="-752.5" font-family="Helvetica,sans-Serif" font-size="10.00" fill="#000000">js_new_string_char</text>
</a>
</g>
</g>
<!-- Node98987&#45;&gt;Node98997 -->
<g id="edge5" class="edge">
<title>Node98987&#45;&gt;Node98997</title>
<path fill="none" stroke="#191970" d="M88.4246,-729.3183C107.0414,-734.5393 128.4087,-740.5316 145.8186,-745.4141"/>
<polygon fill="#191970" stroke="#191970" points="89.266,-725.9193 78.6924,-726.589 87.3758,-732.6593 89.266,-725.9193"/>
</g>
<!-- Node99476 -->
<g id="node9" class="node">
<title>Node99476</title>
<g id="a_node9"><a xlink:href="quickjs_8c.html#a187940a18f6d1d4a5405405f37b5cf46" target="_top" xlink:title="js_string_charAt">
<polygon fill="none" stroke="#000000" points="308,-707.5 308,-726.5 403,-726.5 403,-707.5 308,-707.5"/>
<text text-anchor="middle" x="355.5" y="-714.5" font-family="Helvetica,sans-Serif" font-size="10.00" fill="#000000">js_string_charAt</text>
</a>
</g>
</g>
<!-- Node98987&#45;&gt;Node99476 -->
<g id="edge25" class="edge">
<title>Node98987&#45;&gt;Node99476</title>
<path fill="none" stroke="#191970" d="M99.3332,-717C158.5077,-717 251.7927,-717 307.9643,-717"/>
<polygon fill="#191970" stroke="#191970" points="99.0588,-713.5001 89.0587,-717 99.0587,-720.5001 99.0588,-713.5001"/>
</g>
<!-- Node99603 -->
<g id="node11" class="node">
<title>Node99603</title>
<g id="a_node11"><a xlink:href="quickjs_8c.html#ac34cc554aab1e98c45a7f845fff64385" target="_top" xlink:title="JS_NewStringLen">
<polygon fill="none" stroke="#000000" points="131,-437.5 131,-456.5 229,-456.5 229,-437.5 131,-437.5"/>
<text text-anchor="middle" x="180" y="-444.5" font-family="Helvetica,sans-Serif" font-size="10.00" fill="#000000">JS_NewStringLen</text>
</a>
</g>
</g>
<!-- Node98987&#45;&gt;Node99603 -->
<g id="edge10" class="edge">
<title>Node98987&#45;&gt;Node99603</title>
<path fill="none" stroke="#191970" d="M53.9672,-698.1355C80.5494,-645.1672 155.2265,-496.3642 175.0937,-456.7765"/>
<polygon fill="#191970" stroke="#191970" points="50.6798,-696.883 49.3225,-707.3906 56.9361,-700.0228 50.6798,-696.883"/>
</g>
<!-- Node99655 -->
<g id="node25" class="node">
<title>Node99655</title>
<g id="a_node25"><a xlink:href="quickjs_8c.html#a011157b8ff30c8418be989eadf509c92" target="_top" xlink:title="js_sub_string">
<polygon fill="none" stroke="#ff0000" points="140,-114.5 140,-133.5 220,-133.5 220,-114.5 140,-114.5"/>
<text text-anchor="middle" x="180" y="-121.5" font-family="Helvetica,sans-Serif" font-size="10.00" fill="#000000">js_sub_string</text>
</a>
</g>
</g>
<!-- Node98987&#45;&gt;Node99655 -->
<g id="edge26" class="edge">
<title>Node98987&#45;&gt;Node99655</title>
<path fill="none" stroke="#191970" d="M49.0023,-697.2963C70.5019,-603.2058 162.3156,-201.3936 177.7834,-133.7007"/>
<polygon fill="#191970" stroke="#191970" points="45.5544,-696.6737 46.7388,-707.2021 52.3785,-698.2331 45.5544,-696.6737"/>
</g>
<!-- Node98989 -->
<g id="node3" class="node">
<title>Node98989</title>
<g id="a_node3"><a xlink:href="quickjs_8c.html#a233052710c228313122c39c231a23ddf" target="_top" xlink:title="js_regexp_constructor">
<polygon fill="none" stroke="#ff0000" points="293.5,-935.5 293.5,-954.5 417.5,-954.5 417.5,-935.5 293.5,-935.5"/>
<text text-anchor="middle" x="355.5" y="-942.5" font-family="Helvetica,sans-Serif" font-size="10.00" fill="#000000">js_regexp_constructor</text>
</a>
</g>
</g>
<!-- Node98988&#45;&gt;Node98989 -->
<g id="edge2" class="edge">
<title>Node98988&#45;&gt;Node98989</title>
<path fill="none" stroke="#191970" d="M209.3912,-901.811C226.9803,-909.6862 249.9408,-919.2919 271,-926 282.3184,-929.6053 294.6982,-932.7948 306.4064,-935.4819"/>
<polygon fill="#191970" stroke="#191970" points="210.7704,-898.5934 200.2183,-897.6434 207.8748,-904.9665 210.7704,-898.5934"/>
</g>
<!-- Node98995 -->
<g id="node4" class="node">
<title>Node98995</title>
<g id="a_node4"><a xlink:href="quickjs_8c.html#af55de7fe1d3513a7230dfbfc1cbeec62" target="_top" xlink:title="js_regexp_compile">
<polygon fill="none" stroke="#000000" points="301.5,-897.5 301.5,-916.5 409.5,-916.5 409.5,-897.5 301.5,-897.5"/>
<text text-anchor="middle" x="355.5" y="-904.5" font-family="Helvetica,sans-Serif" font-size="10.00" fill="#000000">js_regexp_compile</text>
</a>
</g>
</g>
<!-- Node98988&#45;&gt;Node98995 -->
<g id="edge3" class="edge">
<title>Node98988&#45;&gt;Node98995</title>
<path fill="none" stroke="#191970" d="M244.0422,-894.9333C262.8274,-896.9671 283.1797,-899.1704 301.2887,-901.131"/>
<polygon fill="#191970" stroke="#191970" points="244.4065,-891.4524 234.0878,-893.8557 243.653,-898.4117 244.4065,-891.4524"/>
</g>
<!-- Node98996 -->
<g id="node5" class="node">
<title>Node98996</title>
<g id="a_node5"><a xlink:href="quickjs_8c.html#aa24c64e9ce871601a39b40dbfee0deb4" target="_top" xlink:title="JS_AddIntrinsicRegExpCompiler">
<polygon fill="none" stroke="#ff0000" points="271,-859.5 271,-878.5 440,-878.5 440,-859.5 271,-859.5"/>
<text text-anchor="middle" x="355.5" y="-866.5" font-family="Helvetica,sans-Serif" font-size="10.00" fill="#000000">JS_AddIntrinsicRegExpCompiler</text>
</a>
</g>
</g>
<!-- Node98988&#45;&gt;Node98996 -->
<g id="edge4" class="edge">
<title>Node98988&#45;&gt;Node98996</title>
<path fill="none" stroke="#191970" d="M244.1452,-881.0555C252.8634,-880.1117 261.9174,-879.1314 270.9267,-878.1561"/>
<polygon fill="#191970" stroke="#191970" points="243.653,-877.5883 234.0878,-882.1443 244.4065,-884.5476 243.653,-877.5883"/>
</g>
<!-- Node98998 -->
<g id="node7" class="node">
<title>Node98998</title>
<g id="a_node7"><a xlink:href="quickjs_8c.html#a5762c57ae0c9937e986040c01222833a" target="_top" xlink:title="JS_GetPropertyInternal">
<polygon fill="none" stroke="#ff0000" points="292,-821.5 292,-840.5 419,-840.5 419,-821.5 292,-821.5"/>
<text text-anchor="middle" x="355.5" y="-828.5" font-family="Helvetica,sans-Serif" font-size="10.00" fill="#000000">JS_GetPropertyInternal</text>
</a>
</g>
</g>
<!-- Node98997&#45;&gt;Node98998 -->
<g id="edge6" class="edge">
<title>Node98997&#45;&gt;Node98998</title>
<path fill="none" stroke="#191970" d="M200.629,-770.7837C218.3877,-783.6481 245.1624,-801.3678 271,-812 280.3164,-815.8337 290.5443,-818.9622 300.5683,-821.4919"/>
<polygon fill="#191970" stroke="#191970" points="202.3381,-767.6946 192.2169,-764.5624 198.1758,-773.3226 202.3381,-767.6946"/>
</g>
<!-- Node99601 -->
<g id="node8" class="node">
<title>Node99601</title>
<g id="a_node8"><a xlink:href="quickjs_8c.html#ae97acc40e7697f300ae67de725127ba5" target="_top" xlink:title="js_string_get_own_property">
<polygon fill="none" stroke="#000000" points="280,-783.5 280,-802.5 431,-802.5 431,-783.5 280,-783.5"/>
<text text-anchor="middle" x="355.5" y="-790.5" font-family="Helvetica,sans-Serif" font-size="10.00" fill="#000000">js_string_get_own_property</text>
</a>
</g>
</g>
<!-- Node98997&#45;&gt;Node99601 -->
<g id="edge7" class="edge">
<title>Node98997&#45;&gt;Node99601</title>
<path fill="none" stroke="#191970" d="M234.2783,-766.7526C259.094,-772.1258 288.1108,-778.4086 311.5324,-783.4799"/>
<polygon fill="#191970" stroke="#191970" points="234.8003,-763.2846 224.2861,-764.589 233.3189,-770.126 234.8003,-763.2846"/>
</g>
<!-- Node98997&#45;&gt;Node99476 -->
<g id="edge8" class="edge">
<title>Node98997&#45;&gt;Node99476</title>
<path fill="none" stroke="#191970" d="M234.2783,-743.2474C259.094,-737.8742 288.1108,-731.5914 311.5324,-726.5201"/>
<polygon fill="#191970" stroke="#191970" points="233.3189,-739.874 224.2861,-745.411 234.8003,-746.7154 233.3189,-739.874"/>
</g>
<!-- Node99602 -->
<g id="node10" class="node">
<title>Node99602</title>
<g id="a_node10"><a xlink:href="quickjs_8c.html#a15988d5ca6500d029bdc559bd310f48d" target="_top" xlink:title="js_string_iterator_next">
<polygon fill="none" stroke="#000000" points="292.5,-745.5 292.5,-764.5 418.5,-764.5 418.5,-745.5 292.5,-745.5"/>
<text text-anchor="middle" x="355.5" y="-752.5" font-family="Helvetica,sans-Serif" font-size="10.00" fill="#000000">js_string_iterator_next</text>
</a>
</g>
</g>
<!-- Node98997&#45;&gt;Node99602 -->
<g id="edge9" class="edge">
<title>Node98997&#45;&gt;Node99602</title>
<path fill="none" stroke="#191970" d="M245.4881,-755C260.8292,-755 277.1424,-755 292.3778,-755"/>
<polygon fill="#191970" stroke="#191970" points="245.0478,-751.5001 235.0478,-755 245.0477,-758.5001 245.0478,-751.5001"/>
</g>
<!-- Node99604 -->
<g id="node12" class="node">
<title>Node99604</title>
<g id="a_node12"><a xlink:href="structqjs_1_1js__traits_3_01std_1_1string__view_01_4.html#ad9dac01710453b7af63a997961c1fa6a" target="_top" xlink:title="qjs::js_traits\&lt; std\l::string_view \&gt;::wrap">
<polygon fill="none" stroke="#000000" points="295.5,-658 295.5,-688 415.5,-688 415.5,-658 295.5,-658"/>
<text text-anchor="start" x="303.5" y="-676" font-family="Helvetica,sans-Serif" font-size="10.00" fill="#000000">qjs::js_traits&lt; std</text>
<text text-anchor="middle" x="355.5" y="-665" font-family="Helvetica,sans-Serif" font-size="10.00" fill="#000000">::string_view &gt;::wrap</text>
</a>
</g>
</g>
<!-- Node99603&#45;&gt;Node99604 -->
<g id="edge11" class="edge">
<title>Node99603&#45;&gt;Node99604</title>
<path fill="none" stroke="#191970" d="M183.1877,-466.6453C190.7845,-507.0063 213.7804,-599.6055 271,-649 278.0419,-655.0789 286.5256,-659.6235 295.3642,-663.0198"/>
<polygon fill="#191970" stroke="#191970" points="186.622,-465.9658 181.4378,-456.726 179.7285,-467.182 186.622,-465.9658"/>
</g>
<!-- Node99605 -->
<g id="node13" class="node">
<title>Node99605</title>
<g id="a_node13"><a xlink:href="structqjs_1_1js__traits_3_01std_1_1string_01_4.html#ac5b51c364766cc6e173eb6fb473bca98" target="_top" xlink:title="qjs::js_traits\&lt; std\l::string \&gt;::wrap">
<polygon fill="none" stroke="#000000" points="304.5,-609 304.5,-639 406.5,-639 406.5,-609 304.5,-609"/>
<text text-anchor="start" x="312.5" y="-627" font-family="Helvetica,sans-Serif" font-size="10.00" fill="#000000">qjs::js_traits&lt; std</text>
<text text-anchor="middle" x="355.5" y="-616" font-family="Helvetica,sans-Serif" font-size="10.00" fill="#000000">::string &gt;::wrap</text>
</a>
</g>
</g>
<!-- Node99603&#45;&gt;Node99605 -->
<g id="edge12" class="edge">
<title>Node99603&#45;&gt;Node99605</title>
<path fill="none" stroke="#191970" d="M186.2198,-466.0938C197.7132,-498.3612 225.358,-563.6137 271,-599 280.6725,-606.4991 292.5516,-611.7526 304.3136,-615.4318"/>
<polygon fill="#191970" stroke="#191970" points="189.4881,-464.8342 182.9386,-456.5062 182.8652,-467.1008 189.4881,-464.8342"/>
</g>
<!-- Node99373 -->
<g id="node14" class="node">
<title>Node99373</title>
<g id="a_node14"><a xlink:href="quickjs-libc_8c.html#a2abec3aeee82a6dd3dd063725bbeecfe" target="_top" xlink:title="js_printf_internal">
<polygon fill="none" stroke="#ff0000" points="306,-570.5 306,-589.5 405,-589.5 405,-570.5 306,-570.5"/>
<text text-anchor="middle" x="355.5" y="-577.5" font-family="Helvetica,sans-Serif" font-size="10.00" fill="#000000">js_printf_internal</text>
</a>
</g>
</g>
<!-- Node99603&#45;&gt;Node99373 -->
<g id="edge13" class="edge">
<title>Node99603&#45;&gt;Node99373</title>
<path fill="none" stroke="#191970" d="M189.6866,-465.8814C203.9011,-491.5995 232.9072,-537.1628 271,-561 281.4521,-567.5406 293.878,-571.8405 305.9409,-574.6641"/>
<polygon fill="#191970" stroke="#191970" points="192.6243,-463.9528 184.8212,-456.786 186.4519,-467.2546 192.6243,-463.9528"/>
</g>
<!-- Node99518 -->
<g id="node15" class="node">
<title>Node99518</title>
<g id="a_node15"><a xlink:href="quickjs-libc_8c.html#a879319bb5089c26a9e2f19e9fc9c0a73" target="_top" xlink:title="js_std_loadFile">
<polygon fill="none" stroke="#000000" points="311.5,-532.5 311.5,-551.5 399.5,-551.5 399.5,-532.5 311.5,-532.5"/>
<text text-anchor="middle" x="355.5" y="-539.5" font-family="Helvetica,sans-Serif" font-size="10.00" fill="#000000">js_std_loadFile</text>
</a>
</g>
</g>
<!-- Node99603&#45;&gt;Node99518 -->
<g id="edge14" class="edge">
<title>Node99603&#45;&gt;Node99518</title>
<path fill="none" stroke="#191970" d="M195.3816,-463.9131C212.2371,-481.3892 240.908,-508.1473 271,-523 283.4048,-529.1227 297.8068,-533.2986 311.1685,-536.1361"/>
<polygon fill="#191970" stroke="#191970" points="197.91,-461.4928 188.5059,-456.6128 192.8143,-466.2921 197.91,-461.4928"/>
</g>
<!-- Node99606 -->
<g id="node16" class="node">
<title>Node99606</title>
<g id="a_node16"><a xlink:href="quickjs-libc_8c.html#af31f002f20b3b7e983dd4efabd18d65e" target="_top" xlink:title="js_std_file_getline">
<polygon fill="none" stroke="#000000" points="303.5,-494.5 303.5,-513.5 407.5,-513.5 407.5,-494.5 303.5,-494.5"/>
<text text-anchor="middle" x="355.5" y="-501.5" font-family="Helvetica,sans-Serif" font-size="10.00" fill="#000000">js_std_file_getline</text>
</a>
</g>
</g>
<!-- Node99603&#45;&gt;Node99606 -->
<g id="edge15" class="edge">
<title>Node99603&#45;&gt;Node99606</title>
<path fill="none" stroke="#191970" d="M209.3912,-460.811C226.9803,-468.6862 249.9408,-478.2919 271,-485 282.3184,-488.6053 294.6982,-491.7948 306.4064,-494.4819"/>
<polygon fill="#191970" stroke="#191970" points="210.7704,-457.5934 200.2183,-456.6434 207.8748,-463.9665 210.7704,-457.5934"/>
</g>
<!-- Node99497 -->
<g id="node17" class="node">
<title>Node99497</title>
<g id="a_node17"><a xlink:href="quickjs-libc_8c.html#ae8abf0c32bf9b0acd85adffaf8345dfe" target="_top" xlink:title="js_std_file_readAsString">
<polygon fill="none" stroke="#000000" points="289,-456.5 289,-475.5 422,-475.5 422,-456.5 289,-456.5"/>
<text text-anchor="middle" x="355.5" y="-463.5" font-family="Helvetica,sans-Serif" font-size="10.00" fill="#000000">js_std_file_readAsString</text>
</a>
</g>
</g>
<!-- Node99603&#45;&gt;Node99497 -->
<g id="edge16" class="edge">
<title>Node99603&#45;&gt;Node99497</title>
<path fill="none" stroke="#191970" d="M239.5484,-453.4468C255.4016,-455.1631 272.6289,-457.0282 288.8362,-458.7828"/>
<polygon fill="#191970" stroke="#191970" points="239.6722,-449.9399 229.3536,-452.3431 238.9187,-456.8992 239.6722,-449.9399"/>
</g>
<!-- Node99249 -->
<g id="node18" class="node">
<title>Node99249</title>
<g id="a_node18"><a xlink:href="quickjs-libc_8c.html#a7aebce2172c6aa4a6645aef600a69e6b" target="_top" xlink:title="js_std_urlGet">
<polygon fill="none" stroke="#000000" points="315.5,-418.5 315.5,-437.5 395.5,-437.5 395.5,-418.5 315.5,-418.5"/>
<text text-anchor="middle" x="355.5" y="-425.5" font-family="Helvetica,sans-Serif" font-size="10.00" fill="#000000">js_std_urlGet</text>
</a>
</g>
</g>
<!-- Node99603&#45;&gt;Node99249 -->
<g id="edge17" class="edge">
<title>Node99603&#45;&gt;Node99249</title>
<path fill="none" stroke="#191970" d="M239.4688,-440.5618C264.4732,-437.8548 292.9081,-434.7763 315.3709,-432.3445"/>
<polygon fill="#191970" stroke="#191970" points="238.9187,-437.1008 229.3536,-441.6569 239.6722,-444.0601 238.9187,-437.1008"/>
</g>
<!-- Node99607 -->
<g id="node19" class="node">
<title>Node99607</title>
<g id="a_node19"><a xlink:href="quickjs_8c.html#a522741f41afb1d0da0aa55968cd8579e" target="_top" xlink:title="JS_NewAtomLen">
<polygon fill="none" stroke="#ff0000" points="307.5,-380.5 307.5,-399.5 403.5,-399.5 403.5,-380.5 307.5,-380.5"/>
<text text-anchor="middle" x="355.5" y="-387.5" font-family="Helvetica,sans-Serif" font-size="10.00" fill="#000000">JS_NewAtomLen</text>
</a>
</g>
</g>
<!-- Node99603&#45;&gt;Node99607 -->
<g id="edge18" class="edge">
<title>Node99603&#45;&gt;Node99607</title>
<path fill="none" stroke="#191970" d="M209.3912,-433.189C226.9803,-425.3138 249.9408,-415.7081 271,-409 282.605,-405.3034 295.3257,-402.0439 307.2944,-399.315"/>
<polygon fill="#191970" stroke="#191970" points="207.8748,-430.0335 200.2183,-437.3566 210.7704,-436.4066 207.8748,-430.0335"/>
</g>
<!-- Node99636 -->
<g id="node20" class="node">
<title>Node99636</title>
<g id="a_node20"><a xlink:href="quickjs_8c.html#a0ee6a3654a6016393fac5e1c108f403a" target="_top" xlink:title="JS_NewString">
<polygon fill="none" stroke="#ff0000" points="315,-342.5 315,-361.5 396,-361.5 396,-342.5 315,-342.5"/>
<text text-anchor="middle" x="355.5" y="-349.5" font-family="Helvetica,sans-Serif" font-size="10.00" fill="#000000">JS_NewString</text>
</a>
</g>
</g>
<!-- Node99603&#45;&gt;Node99636 -->
<g id="edge19" class="edge">
<title>Node99603&#45;&gt;Node99636</title>
<path fill="none" stroke="#191970" d="M195.3816,-430.0869C212.2371,-412.6108 240.908,-385.8527 271,-371 284.4834,-364.3449 300.3266,-359.9899 314.6286,-357.1536"/>
<polygon fill="#191970" stroke="#191970" points="192.8143,-427.7079 188.5059,-437.3872 197.91,-432.5072 192.8143,-427.7079"/>
</g>
<!-- Node99409 -->
<g id="node21" class="node">
<title>Node99409</title>
<g id="a_node21"><a xlink:href="quickjs_8c.html#ab522181d975cc7949088c8ff67fedde0" target="_top" xlink:title="get_date_string">
<polygon fill="none" stroke="#ff0000" points="476,-323.5 476,-342.5 568,-342.5 568,-323.5 476,-323.5"/>
<text text-anchor="middle" x="522" y="-330.5" font-family="Helvetica,sans-Serif" font-size="10.00" fill="#000000">get_date_string</text>
</a>
</g>
</g>
<!-- Node99603&#45;&gt;Node99409 -->
<g id="edge24" class="edge">
<title>Node99603&#45;&gt;Node99409</title>
<path fill="none" stroke="#191970" d="M188.4378,-428.0521C201.6222,-401.0993 229.9254,-352.7686 271,-333 340.4998,-299.5509 433.8831,-312.3556 484.8996,-323.4439"/>
<polygon fill="#191970" stroke="#191970" points="185.2101,-426.6915 184.1299,-437.2311 191.547,-429.6655 185.2101,-426.6915"/>
</g>
<!-- Node99542 -->
<g id="node22" class="node">
<title>Node99542</title>
<g id="a_node22"><a xlink:href="quickjs_8c.html#a9876c37aa1b715e05e0e5fe1b46bcf3d" target="_top" xlink:title="js_function_toString">
<polygon fill="none" stroke="#000000" points="299,-266.5 299,-285.5 412,-285.5 412,-266.5 299,-266.5"/>
<text text-anchor="middle" x="355.5" y="-273.5" font-family="Helvetica,sans-Serif" font-size="10.00" fill="#000000">js_function_toString</text>
</a>
</g>
</g>
<!-- Node99603&#45;&gt;Node99542 -->
<g id="edge21" class="edge">
<title>Node99603&#45;&gt;Node99542</title>
<path fill="none" stroke="#191970" d="M186.6842,-427.6144C198.5753,-396.0367 226.4269,-333.647 271,-300 279.3985,-293.6602 289.4084,-288.9944 299.5509,-285.5608"/>
<polygon fill="#191970" stroke="#191970" points="183.2544,-426.8069 183.1426,-437.4012 189.8366,-429.189 183.2544,-426.8069"/>
</g>
<!-- Node99583 -->
<g id="node23" class="node">
<title>Node99583</title>
<g id="a_node23"><a xlink:href="quickjs_8c.html#a85bd252225e0864923cb62c583892de7" target="_top" xlink:title="js_regexp_get_flags">
<polygon fill="none" stroke="#000000" points="299,-228.5 299,-247.5 412,-247.5 412,-228.5 299,-228.5"/>
<text text-anchor="middle" x="355.5" y="-235.5" font-family="Helvetica,sans-Serif" font-size="10.00" fill="#000000">js_regexp_get_flags</text>
</a>
</g>
</g>
<!-- Node99603&#45;&gt;Node99583 -->
<g id="edge22" class="edge">
<title>Node99603&#45;&gt;Node99583</title>
<path fill="none" stroke="#191970" d="M183.5643,-427.2108C191.6705,-388.2158 215.2804,-301.3852 271,-257 278.9975,-250.6293 288.7084,-246.3025 298.6581,-243.3832"/>
<polygon fill="#191970" stroke="#191970" points="180.0808,-426.7883 181.601,-437.2735 186.9513,-428.1289 180.0808,-426.7883"/>
</g>
<!-- Node99087 -->
<g id="node24" class="node">
<title>Node99087</title>
<g id="a_node24"><a xlink:href="quickjs_8c.html#a343a343b16bc3c9875050e99ee0d2884" target="_top" xlink:title="JS_JSONStringify">
<polygon fill="none" stroke="#ff0000" points="307.5,-190.5 307.5,-209.5 403.5,-209.5 403.5,-190.5 307.5,-190.5"/>
<text text-anchor="middle" x="355.5" y="-197.5" font-family="Helvetica,sans-Serif" font-size="10.00" fill="#000000">JS_JSONStringify</text>
</a>
</g>
</g>
<!-- Node99603&#45;&gt;Node99087 -->
<g id="edge23" class="edge">
<title>Node99603&#45;&gt;Node99087</title>
<path fill="none" stroke="#191970" d="M181.8054,-427.3448C186.9795,-382.9453 205.966,-274.4602 271,-219 281.0682,-210.414 294.1993,-205.4858 307.098,-202.7151"/>
<polygon fill="#191970" stroke="#191970" points="178.3125,-427.0941 180.7469,-437.4055 185.2741,-427.8266 178.3125,-427.0941"/>
</g>
<!-- Node99636&#45;&gt;Node99409 -->
<g id="edge20" class="edge">
<title>Node99636&#45;&gt;Node99409</title>
<path fill="none" stroke="#191970" d="M406.4349,-346.1876C428.548,-343.6642 454.2618,-340.7299 475.8122,-338.2707"/>
<polygon fill="#191970" stroke="#191970" points="405.7691,-342.7408 396.2305,-347.3521 406.5629,-349.6956 405.7691,-342.7408"/>
</g>
<!-- Node99655&#45;&gt;Node99087 -->
<g id="edge32" class="edge">
<title>Node99655&#45;&gt;Node99087</title>
<path fill="none" stroke="#191970" d="M200.629,-139.7837C218.3877,-152.6481 245.1624,-170.3678 271,-181 282.4022,-185.692 295.1696,-189.3276 307.2577,-192.1021"/>
<polygon fill="#191970" stroke="#191970" points="202.3381,-136.6946 192.2169,-133.5624 198.1758,-142.3226 202.3381,-136.6946"/>
</g>
<!-- Node99367 -->
<g id="node26" class="node">
<title>Node99367</title>
<g id="a_node26"><a xlink:href="quickjs_8c.html#adb4d2990e6bf3f99633512ad2054b47a" target="_top" xlink:title="js_string___GetSubstitution">
<polygon fill="none" stroke="#ff0000" points="281,-152.5 281,-171.5 430,-171.5 430,-152.5 281,-152.5"/>
<text text-anchor="middle" x="355.5" y="-159.5" font-family="Helvetica,sans-Serif" font-size="10.00" fill="#000000">js_string___GetSubstitution</text>
</a>
</g>
</g>
<!-- Node99655&#45;&gt;Node99367 -->
<g id="edge27" class="edge">
<title>Node99655&#45;&gt;Node99367</title>
<path fill="none" stroke="#191970" d="M230.1662,-134.8622C255.8016,-140.4129 286.7135,-147.1061 311.4237,-152.4564"/>
<polygon fill="#191970" stroke="#191970" points="230.7775,-131.4135 220.2632,-132.718 229.2961,-138.255 230.7775,-131.4135"/>
</g>
<!-- Node99245 -->
<g id="node27" class="node">
<title>Node99245</title>
<g id="a_node27"><a xlink:href="quickjs_8c.html#a99f359a90bf2aa7902ec554d726d4fda" target="_top" xlink:title="js_string_split">
<polygon fill="none" stroke="#000000" points="313.5,-114.5 313.5,-133.5 397.5,-133.5 397.5,-114.5 313.5,-114.5"/>
<text text-anchor="middle" x="355.5" y="-121.5" font-family="Helvetica,sans-Serif" font-size="10.00" fill="#000000">js_string_split</text>
</a>
</g>
</g>
<!-- Node99655&#45;&gt;Node99245 -->
<g id="edge28" class="edge">
<title>Node99655&#45;&gt;Node99245</title>
<path fill="none" stroke="#191970" d="M230.3941,-124C256.6331,-124 288.3511,-124 313.2846,-124"/>
<polygon fill="#191970" stroke="#191970" points="230.2633,-120.5001 220.2632,-124 230.2632,-127.5001 230.2633,-120.5001"/>
</g>
<!-- Node99482 -->
<g id="node28" class="node">
<title>Node99482</title>
<g id="a_node28"><a xlink:href="quickjs_8c.html#a95e140838dbe5abed1dabaae43f10a6e" target="_top" xlink:title="js_string_substring">
<polygon fill="none" stroke="#000000" points="301.5,-76.5 301.5,-95.5 409.5,-95.5 409.5,-76.5 301.5,-76.5"/>
<text text-anchor="middle" x="355.5" y="-83.5" font-family="Helvetica,sans-Serif" font-size="10.00" fill="#000000">js_string_substring</text>
</a>
</g>
</g>
<!-- Node99655&#45;&gt;Node99482 -->
<g id="edge29" class="edge">
<title>Node99655&#45;&gt;Node99482</title>
<path fill="none" stroke="#191970" d="M230.1662,-113.1378C255.8016,-107.5871 286.7135,-100.8939 311.4237,-95.5436"/>
<polygon fill="#191970" stroke="#191970" points="229.2961,-109.745 220.2632,-115.282 230.7775,-116.5865 229.2961,-109.745"/>
</g>
<!-- Node99483 -->
<g id="node29" class="node">
<title>Node99483</title>
<g id="a_node29"><a xlink:href="quickjs_8c.html#a1008f89dc6bfd1fedc49ea6f427253c7" target="_top" xlink:title="js_string_substr">
<polygon fill="none" stroke="#000000" points="309,-38.5 309,-57.5 402,-57.5 402,-38.5 309,-38.5"/>
<text text-anchor="middle" x="355.5" y="-45.5" font-family="Helvetica,sans-Serif" font-size="10.00" fill="#000000">js_string_substr</text>
</a>
</g>
</g>
<!-- Node99655&#45;&gt;Node99483 -->
<g id="edge30" class="edge">
<title>Node99655&#45;&gt;Node99483</title>
<path fill="none" stroke="#191970" d="M200.629,-108.2163C218.3877,-95.3519 245.1624,-77.6322 271,-67 282.8194,-62.1363 296.1056,-58.4078 308.5816,-55.5968"/>
<polygon fill="#191970" stroke="#191970" points="198.1758,-105.6774 192.2169,-114.4376 202.3381,-111.3054 198.1758,-105.6774"/>
</g>
<!-- Node99484 -->
<g id="node30" class="node">
<title>Node99484</title>
<g id="a_node30"><a xlink:href="quickjs_8c.html#aa46a42bde091ff4968e502d9556c47b6" target="_top" xlink:title="js_string_slice">
<polygon fill="none" stroke="#000000" points="312.5,-.5 312.5,-19.5 398.5,-19.5 398.5,-.5 312.5,-.5"/>
<text text-anchor="middle" x="355.5" y="-7.5" font-family="Helvetica,sans-Serif" font-size="10.00" fill="#000000">js_string_slice</text>
</a>
</g>
</g>
<!-- Node99655&#45;&gt;Node99484 -->
<g id="edge31" class="edge">
<title>Node99655&#45;&gt;Node99484</title>
<path fill="none" stroke="#191970" d="M192.0506,-106.0766C207.6438,-84.3496 236.8931,-48.2591 271,-29 283.5695,-21.9024 298.5947,-17.4561 312.4662,-14.6708"/>
<polygon fill="#191970" stroke="#191970" points="189.0823,-104.2143 186.2296,-114.4179 194.8227,-108.2203 189.0823,-104.2143"/>
</g>
</g>
</svg>
