<?xml version="1.0" encoding="UTF-8" standalone="no"?>
<!DOCTYPE svg PUBLIC "-//W3C//DTD SVG 1.1//EN"
 "http://www.w3.org/Graphics/SVG/1.1/DTD/svg11.dtd">
<!-- Generated by graphviz version 2.40.1 (20161225.0304)
 -->
<!-- Title: js_regexp_constructor Pages: 1 -->
<svg width="575pt" height="28pt"
 viewBox="0.00 0.00 575.00 28.00" xmlns="http://www.w3.org/2000/svg" xmlns:xlink="http://www.w3.org/1999/xlink">
<g id="graph0" class="graph" transform="scale(1 1) rotate(0) translate(4 24)">
<title>js_regexp_constructor</title>
<!-- Node431169 -->
<g id="node1" class="node">
<title>Node431169</title>
<polygon fill="#bfbfbf" stroke="#000000" points="0,-.5 0,-19.5 124,-19.5 124,-.5 0,-.5"/>
<text text-anchor="middle" x="62" y="-7.5" font-family="Helvetica,sans-Serif" font-size="10.00" fill="#000000">js_regexp_constructor</text>
</g>
<!-- Node431170 -->
<g id="node2" class="node">
<title>Node431170</title>
<g id="a_node2"><a xlink:href="quickjs_8c.html#aafc8241682ce24b6d72e0f237ee85a51" target="_top" xlink:title="JS_AddIntrinsicRegExp">
<polygon fill="none" stroke="#000000" points="160,-.5 160,-19.5 285,-19.5 285,-.5 160,-.5"/>
<text text-anchor="middle" x="222.5" y="-7.5" font-family="Helvetica,sans-Serif" font-size="10.00" fill="#000000">JS_AddIntrinsicRegExp</text>
</a>
</g>
</g>
<!-- Node431169&#45;&gt;Node431170 -->
<g id="edge1" class="edge">
<title>Node431169&#45;&gt;Node431170</title>
<path fill="none" stroke="#191970" d="M134.0586,-10C142.6514,-10 151.3708,-10 159.8171,-10"/>
<polygon fill="#191970" stroke="#191970" points="134.0535,-6.5001 124.0535,-10 134.0535,-13.5001 134.0535,-6.5001"/>
</g>
<!-- Node431171 -->
<g id="node3" class="node">
<title>Node431171</title>
<g id="a_node3"><a xlink:href="quickjs_8c.html#ad8aedb643b8753b7a15f6cb2df61945e" target="_top" xlink:title="JS_NewContext">
<polygon fill="none" stroke="#000000" points="321,-.5 321,-19.5 412,-19.5 412,-.5 321,-.5"/>
<text text-anchor="middle" x="366.5" y="-7.5" font-family="Helvetica,sans-Serif" font-size="10.00" fill="#000000">JS_NewContext</text>
</a>
</g>
</g>
<!-- Node431170&#45;&gt;Node431171 -->
<g id="edge2" class="edge">
<title>Node431170&#45;&gt;Node431171</title>
<path fill="none" stroke="#191970" d="M295.3978,-10C304.0683,-10 312.7214,-10 320.8541,-10"/>
<polygon fill="#191970" stroke="#191970" points="295.2416,-6.5001 285.2416,-10 295.2416,-13.5001 295.2416,-6.5001"/>
</g>
<!-- Node431172 -->
<g id="node4" class="node">
<title>Node431172</title>
<g id="a_node4"><a xlink:href="classqjs_1_1Context.html#a4392a23648acfc4bf6b445336efb5007" target="_top" xlink:title="qjs::Context::Context">
<polygon fill="none" stroke="#ff0000" points="448,-.5 448,-19.5 567,-19.5 567,-.5 448,-.5"/>
<text text-anchor="middle" x="507.5" y="-7.5" font-family="Helvetica,sans-Serif" font-size="10.00" fill="#000000">qjs::Context::Context</text>
</a>
</g>
</g>
<!-- Node431171&#45;&gt;Node431172 -->
<g id="edge3" class="edge">
<title>Node431171&#45;&gt;Node431172</title>
<path fill="none" stroke="#191970" d="M422.322,-10C430.7011,-10 439.3697,-10 447.8255,-10"/>
<polygon fill="#191970" stroke="#191970" points="422.2787,-6.5001 412.2787,-10 422.2786,-13.5001 422.2787,-6.5001"/>
</g>
</g>
</svg>
