<?xml version="1.0" encoding="UTF-8" standalone="no"?>
<!DOCTYPE svg PUBLIC "-//W3C//DTD SVG 1.1//EN"
 "http://www.w3.org/Graphics/SVG/1.1/DTD/svg11.dtd">
<!-- Generated by graphviz version 2.40.1 (20161225.0304)
 -->
<!-- Title: js_resolve_export Pages: 1 -->
<svg width="681pt" height="206pt"
 viewBox="0.00 0.00 681.00 206.00" xmlns="http://www.w3.org/2000/svg" xmlns:xlink="http://www.w3.org/1999/xlink">
<g id="graph0" class="graph" transform="scale(1 1) rotate(0) translate(4 202)">
<title>js_resolve_export</title>
<!-- Node338573 -->
<g id="node1" class="node">
<title>Node338573</title>
<polygon fill="#bfbfbf" stroke="#000000" points="0,-128.5 0,-147.5 103,-147.5 103,-128.5 0,-128.5"/>
<text text-anchor="middle" x="51.5" y="-135.5" font-family="Helvetica,sans-Serif" font-size="10.00" fill="#000000">js_resolve_export</text>
</g>
<!-- Node338574 -->
<g id="node2" class="node">
<title>Node338574</title>
<g id="a_node2"><a xlink:href="quickjs_8c.html#a80e54dcf9ac687d4ccc2f90273565f30" target="_top" xlink:title="js_free">
<polygon fill="none" stroke="#000000" points="168.5,-178.5 168.5,-197.5 218.5,-197.5 218.5,-178.5 168.5,-178.5"/>
<text text-anchor="middle" x="193.5" y="-185.5" font-family="Helvetica,sans-Serif" font-size="10.00" fill="#000000">js_free</text>
</a>
</g>
</g>
<!-- Node338573&#45;&gt;Node338574 -->
<g id="edge1" class="edge">
<title>Node338573&#45;&gt;Node338574</title>
<path fill="none" stroke="#191970" d="M78.5434,-147.5223C101.3166,-155.5411 134.037,-167.0623 158.75,-175.7641"/>
<polygon fill="#191970" stroke="#191970" points="157.867,-179.1637 168.4618,-179.1837 160.1919,-172.5611 157.867,-179.1637"/>
</g>
<!-- Node338576 -->
<g id="node4" class="node">
<title>Node338576</title>
<g id="a_node4"><a xlink:href="quickjs_8c.html#ab7fc45a99935a1c0ba50b0216d9401a9" target="_top" xlink:title="JS_FreeAtom">
<polygon fill="none" stroke="#000000" points="155,-128.5 155,-147.5 232,-147.5 232,-128.5 155,-128.5"/>
<text text-anchor="middle" x="193.5" y="-135.5" font-family="Helvetica,sans-Serif" font-size="10.00" fill="#000000">JS_FreeAtom</text>
</a>
</g>
</g>
<!-- Node338573&#45;&gt;Node338576 -->
<g id="edge3" class="edge">
<title>Node338573&#45;&gt;Node338576</title>
<path fill="none" stroke="#191970" d="M103.167,-138C116.5574,-138 130.941,-138 144.2061,-138"/>
<polygon fill="#191970" stroke="#191970" points="144.5644,-141.5001 154.5644,-138 144.5643,-134.5001 144.5644,-141.5001"/>
</g>
<!-- Node338581 -->
<g id="node8" class="node">
<title>Node338581</title>
<g id="a_node8"><a xlink:href="quickjs_8c.html#a9796602fa908587aec571ec952dab68e" target="_top" xlink:title="js_resolve_export1">
<polygon fill="none" stroke="#000000" points="139,-62.5 139,-81.5 248,-81.5 248,-62.5 139,-62.5"/>
<text text-anchor="middle" x="193.5" y="-69.5" font-family="Helvetica,sans-Serif" font-size="10.00" fill="#000000">js_resolve_export1</text>
</a>
</g>
</g>
<!-- Node338573&#45;&gt;Node338581 -->
<g id="edge8" class="edge">
<title>Node338573&#45;&gt;Node338581</title>
<path fill="none" stroke="#191970" d="M72.148,-128.403C96.2308,-117.2096 136.2373,-98.615 163.6878,-85.8564"/>
<polygon fill="#191970" stroke="#191970" points="165.2339,-88.9974 172.8271,-81.6085 162.2835,-82.6495 165.2339,-88.9974"/>
</g>
<!-- Node338575 -->
<g id="node3" class="node">
<title>Node338575</title>
<g id="a_node3"><a xlink:href="quickjs_8c.html#a69e19dda8a93d613203e0baa06f0ed8d" target="_top" xlink:title="js_free_rt">
<polygon fill="none" stroke="#000000" points="590,-171.5 590,-190.5 652,-190.5 652,-171.5 590,-171.5"/>
<text text-anchor="middle" x="621" y="-178.5" font-family="Helvetica,sans-Serif" font-size="10.00" fill="#000000">js_free_rt</text>
</a>
</g>
</g>
<!-- Node338574&#45;&gt;Node338575 -->
<g id="edge2" class="edge">
<title>Node338574&#45;&gt;Node338575</title>
<path fill="none" stroke="#191970" d="M218.6461,-187.5883C289.6769,-186.4252 492.337,-183.1068 579.8891,-181.6732"/>
<polygon fill="#191970" stroke="#191970" points="580.0376,-185.1713 589.979,-181.5079 579.923,-178.1722 580.0376,-185.1713"/>
</g>
<!-- Node338577 -->
<g id="node5" class="node">
<title>Node338577</title>
<g id="a_node5"><a xlink:href="quickjs_8c.html#a7f6796ee7a195631366f57c713a33f65" target="_top" xlink:title="__JS_AtomIsConst">
<polygon fill="none" stroke="#000000" points="569,-95.5 569,-114.5 673,-114.5 673,-95.5 569,-95.5"/>
<text text-anchor="middle" x="621" y="-102.5" font-family="Helvetica,sans-Serif" font-size="10.00" fill="#000000">__JS_AtomIsConst</text>
</a>
</g>
</g>
<!-- Node338576&#45;&gt;Node338577 -->
<g id="edge4" class="edge">
<title>Node338576&#45;&gt;Node338577</title>
<path fill="none" stroke="#191970" d="M232.1918,-135.0133C306.4065,-129.2844 469.3227,-116.7084 558.9164,-109.7924"/>
<polygon fill="#191970" stroke="#191970" points="559.2382,-113.2781 568.9391,-109.0187 558.6994,-106.2988 559.2382,-113.2781"/>
</g>
<!-- Node338578 -->
<g id="node6" class="node">
<title>Node338578</title>
<g id="a_node6"><a xlink:href="quickjs_8c.html#a0bbd9e3ecd55e3ea6c9d44bfda382095" target="_top" xlink:title="__JS_FreeAtom">
<polygon fill="none" stroke="#000000" points="293.5,-152.5 293.5,-171.5 381.5,-171.5 381.5,-152.5 293.5,-152.5"/>
<text text-anchor="middle" x="337.5" y="-159.5" font-family="Helvetica,sans-Serif" font-size="10.00" fill="#000000">__JS_FreeAtom</text>
</a>
</g>
</g>
<!-- Node338576&#45;&gt;Node338578 -->
<g id="edge5" class="edge">
<title>Node338576&#45;&gt;Node338578</title>
<path fill="none" stroke="#191970" d="M232.0894,-144.4316C247.898,-147.0663 266.4678,-150.1613 283.5806,-153.0134"/>
<polygon fill="#191970" stroke="#191970" points="283.0168,-156.4677 293.4561,-154.6594 284.1676,-149.5629 283.0168,-156.4677"/>
</g>
<!-- Node338579 -->
<g id="node7" class="node">
<title>Node338579</title>
<g id="a_node7"><a xlink:href="quickjs_8c.html#a58c8965dad50b15b75918a09f3d9dc7c" target="_top" xlink:title="JS_FreeAtomStruct">
<polygon fill="none" stroke="#ff0000" points="427,-152.5 427,-171.5 533,-171.5 533,-152.5 427,-152.5"/>
<text text-anchor="middle" x="480" y="-159.5" font-family="Helvetica,sans-Serif" font-size="10.00" fill="#000000">JS_FreeAtomStruct</text>
</a>
</g>
</g>
<!-- Node338578&#45;&gt;Node338579 -->
<g id="edge6" class="edge">
<title>Node338578&#45;&gt;Node338579</title>
<path fill="none" stroke="#191970" d="M381.8068,-162C392.8652,-162 404.9391,-162 416.7188,-162"/>
<polygon fill="#191970" stroke="#191970" points="416.962,-165.5001 426.962,-162 416.962,-158.5001 416.962,-165.5001"/>
</g>
<!-- Node338579&#45;&gt;Node338575 -->
<g id="edge7" class="edge">
<title>Node338579&#45;&gt;Node338575</title>
<path fill="none" stroke="#191970" d="M533.3061,-169.1831C548.6181,-171.2464 565.0825,-173.465 579.5638,-175.4164"/>
<polygon fill="#191970" stroke="#191970" points="579.3351,-178.9171 589.713,-176.784 580.27,-171.9798 579.3351,-178.9171"/>
</g>
<!-- Node338581&#45;&gt;Node338581 -->
<g id="edge15" class="edge">
<title>Node338581&#45;&gt;Node338581</title>
<path fill="none" stroke="#191970" d="M171.6137,-81.7571C160.9663,-90.5653 168.2617,-100 193.5,-100 210.0626,-100 218.8979,-95.9368 220.0059,-90.6539"/>
<polygon fill="#191970" stroke="#191970" points="223.1008,-89.0192 215.3863,-81.7571 216.8883,-92.2449 223.1008,-89.0192"/>
</g>
<!-- Node338582 -->
<g id="node9" class="node">
<title>Node338582</title>
<g id="a_node9"><a xlink:href="quickjs_8c.html#ade1e452957ebf589907635cc79718d16" target="_top" xlink:title="add_resolve_entry">
<polygon fill="none" stroke="#000000" points="284,-76.5 284,-95.5 391,-95.5 391,-76.5 284,-76.5"/>
<text text-anchor="middle" x="337.5" y="-83.5" font-family="Helvetica,sans-Serif" font-size="10.00" fill="#000000">add_resolve_entry</text>
</a>
</g>
</g>
<!-- Node338581&#45;&gt;Node338582 -->
<g id="edge9" class="edge">
<title>Node338581&#45;&gt;Node338582</title>
<path fill="none" stroke="#191970" d="M248.351,-77.3327C256.6009,-78.1348 265.1697,-78.9679 273.5891,-79.7864"/>
<polygon fill="#191970" stroke="#191970" points="273.4616,-83.2905 283.7533,-80.7746 274.139,-76.3233 273.4616,-83.2905"/>
</g>
<!-- Node338592 -->
<g id="node12" class="node">
<title>Node338592</title>
<g id="a_node12"><a xlink:href="quickjs_8c.html#af5a10beab08419072e00fedfe4e467af" target="_top" xlink:title="find_export_entry">
<polygon fill="none" stroke="#000000" points="286.5,-38.5 286.5,-57.5 388.5,-57.5 388.5,-38.5 286.5,-38.5"/>
<text text-anchor="middle" x="337.5" y="-45.5" font-family="Helvetica,sans-Serif" font-size="10.00" fill="#000000">find_export_entry</text>
</a>
</g>
</g>
<!-- Node338581&#45;&gt;Node338592 -->
<g id="edge13" class="edge">
<title>Node338581&#45;&gt;Node338592</title>
<path fill="none" stroke="#191970" d="M248.351,-62.8582C257.4566,-61.3406 266.9507,-59.7582 276.2035,-58.2161"/>
<polygon fill="#191970" stroke="#191970" points="276.8309,-61.6599 286.1194,-56.5634 275.68,-54.7551 276.8309,-61.6599"/>
</g>
<!-- Node338593 -->
<g id="node13" class="node">
<title>Node338593</title>
<g id="a_node13"><a xlink:href="quickjs_8c.html#a12d1778dc462ef8c9179c499857abfc6" target="_top" xlink:title="find_resolve_entry">
<polygon fill="none" stroke="#000000" points="284,-.5 284,-19.5 391,-19.5 391,-.5 284,-.5"/>
<text text-anchor="middle" x="337.5" y="-7.5" font-family="Helvetica,sans-Serif" font-size="10.00" fill="#000000">find_resolve_entry</text>
</a>
</g>
</g>
<!-- Node338581&#45;&gt;Node338593 -->
<g id="edge14" class="edge">
<title>Node338581&#45;&gt;Node338593</title>
<path fill="none" stroke="#191970" d="M212.3136,-62.3673C230.4443,-53.2505 258.7654,-39.4438 284,-29 288.8838,-26.9787 294.0691,-24.9706 299.2153,-23.0587"/>
<polygon fill="#191970" stroke="#191970" points="300.7643,-26.2202 308.9738,-19.5227 298.3796,-19.6389 300.7643,-26.2202"/>
</g>
<!-- Node338583 -->
<g id="node10" class="node">
<title>Node338583</title>
<g id="a_node10"><a xlink:href="quickjs_8c.html#abbf44eaeace1104a6bef718fbf5700fe" target="_top" xlink:title="JS_DupAtom">
<polygon fill="none" stroke="#000000" points="441.5,-38.5 441.5,-57.5 518.5,-57.5 518.5,-38.5 441.5,-38.5"/>
<text text-anchor="middle" x="480" y="-45.5" font-family="Helvetica,sans-Serif" font-size="10.00" fill="#000000">JS_DupAtom</text>
</a>
</g>
</g>
<!-- Node338582&#45;&gt;Node338583 -->
<g id="edge10" class="edge">
<title>Node338582&#45;&gt;Node338583</title>
<path fill="none" stroke="#191970" d="M373.4588,-76.411C391.9385,-71.4831 414.6558,-65.4251 434.3591,-60.1709"/>
<polygon fill="#191970" stroke="#191970" points="435.2922,-63.5445 444.0527,-57.5859 433.4885,-56.7808 435.2922,-63.5445"/>
</g>
<!-- Node338584 -->
<g id="node11" class="node">
<title>Node338584</title>
<g id="a_node11"><a xlink:href="quickjs_8c.html#afa610f3175e9cb11fdceac95071099b5" target="_top" xlink:title="js_resize_array">
<polygon fill="none" stroke="#ff0000" points="435,-76.5 435,-95.5 525,-95.5 525,-76.5 435,-76.5"/>
<text text-anchor="middle" x="480" y="-83.5" font-family="Helvetica,sans-Serif" font-size="10.00" fill="#000000">js_resize_array</text>
</a>
</g>
</g>
<!-- Node338582&#45;&gt;Node338584 -->
<g id="edge12" class="edge">
<title>Node338582&#45;&gt;Node338584</title>
<path fill="none" stroke="#191970" d="M391.3731,-86C402.2435,-86 413.6886,-86 424.6099,-86"/>
<polygon fill="#191970" stroke="#191970" points="424.8846,-89.5001 434.8846,-86 424.8846,-82.5001 424.8846,-89.5001"/>
</g>
<!-- Node338583&#45;&gt;Node338577 -->
<g id="edge11" class="edge">
<title>Node338583&#45;&gt;Node338577</title>
<path fill="none" stroke="#191970" d="M507.632,-57.5321C515.8371,-60.463 524.817,-63.7702 533,-67 552.2801,-74.6098 573.6307,-83.8101 590.4729,-91.2518"/>
<polygon fill="#191970" stroke="#191970" points="589.259,-94.5423 599.8187,-95.4048 592.1017,-88.1455 589.259,-94.5423"/>
</g>
</g>
</svg>
