<?xml version="1.0" encoding="UTF-8" standalone="no"?>
<!DOCTYPE svg PUBLIC "-//W3C//DTD SVG 1.1//EN"
 "http://www.w3.org/Graphics/SVG/1.1/DTD/svg11.dtd">
<!-- Generated by graphviz version 2.40.1 (20161225.0304)
 -->
<!-- Title: get_with_scope_opcode Pages: 1 -->
<svg width="551pt" height="28pt"
 viewBox="0.00 0.00 551.00 28.00" xmlns="http://www.w3.org/2000/svg" xmlns:xlink="http://www.w3.org/1999/xlink">
<g id="graph0" class="graph" transform="scale(1 1) rotate(0) translate(4 24)">
<title>get_with_scope_opcode</title>
<!-- Node355624 -->
<g id="node1" class="node">
<title>Node355624</title>
<polygon fill="#bfbfbf" stroke="#000000" points="0,-.5 0,-19.5 133,-19.5 133,-.5 0,-.5"/>
<text text-anchor="middle" x="66.5" y="-7.5" font-family="Helvetica,sans-Serif" font-size="10.00" fill="#000000">get_with_scope_opcode</text>
</g>
<!-- Node355625 -->
<g id="node2" class="node">
<title>Node355625</title>
<g id="a_node2"><a xlink:href="quickjs_8c.html#ad34818a053dbb507b49db3a43a3f9143" target="_top" xlink:title="var_object_test">
<polygon fill="none" stroke="#000000" points="169,-.5 169,-19.5 261,-19.5 261,-.5 169,-.5"/>
<text text-anchor="middle" x="215" y="-7.5" font-family="Helvetica,sans-Serif" font-size="10.00" fill="#000000">var_object_test</text>
</a>
</g>
</g>
<!-- Node355624&#45;&gt;Node355625 -->
<g id="edge1" class="edge">
<title>Node355624&#45;&gt;Node355625</title>
<path fill="none" stroke="#191970" d="M143.5313,-10C152.196,-10 160.81,-10 168.9007,-10"/>
<polygon fill="#191970" stroke="#191970" points="143.3649,-6.5001 133.3649,-10 143.3648,-13.5001 143.3649,-6.5001"/>
</g>
<!-- Node355626 -->
<g id="node3" class="node">
<title>Node355626</title>
<g id="a_node3"><a xlink:href="quickjs_8c.html#a30aac2d7e62ad60386ab6b522d7db744" target="_top" xlink:title="resolve_scope_var">
<polygon fill="none" stroke="#000000" points="297,-.5 297,-19.5 404,-19.5 404,-.5 297,-.5"/>
<text text-anchor="middle" x="350.5" y="-7.5" font-family="Helvetica,sans-Serif" font-size="10.00" fill="#000000">resolve_scope_var</text>
</a>
</g>
</g>
<!-- Node355625&#45;&gt;Node355626 -->
<g id="edge2" class="edge">
<title>Node355625&#45;&gt;Node355626</title>
<path fill="none" stroke="#191970" d="M271.4193,-10C279.8833,-10 288.59,-10 296.9909,-10"/>
<polygon fill="#191970" stroke="#191970" points="271.2525,-6.5001 261.2524,-10 271.2524,-13.5001 271.2525,-6.5001"/>
</g>
<!-- Node355627 -->
<g id="node4" class="node">
<title>Node355627</title>
<g id="a_node4"><a xlink:href="quickjs_8c.html#a7a4eedc4cc552a71e165f4d28ad43985" target="_top" xlink:title="resolve_variables">
<polygon fill="none" stroke="#ff0000" points="440,-.5 440,-19.5 543,-19.5 543,-.5 440,-.5"/>
<text text-anchor="middle" x="491.5" y="-7.5" font-family="Helvetica,sans-Serif" font-size="10.00" fill="#000000">resolve_variables</text>
</a>
</g>
</g>
<!-- Node355626&#45;&gt;Node355627 -->
<g id="edge3" class="edge">
<title>Node355626&#45;&gt;Node355627</title>
<path fill="none" stroke="#191970" d="M414.4617,-10C422.9469,-10 431.5595,-10 439.8021,-10"/>
<polygon fill="#191970" stroke="#191970" points="414.2083,-6.5001 404.2083,-10 414.2082,-13.5001 414.2083,-6.5001"/>
</g>
</g>
</svg>
