<?xml version="1.0" encoding="UTF-8" standalone="no"?>
<!DOCTYPE svg PUBLIC "-//W3C//DTD SVG 1.1//EN"
 "http://www.w3.org/Graphics/SVG/1.1/DTD/svg11.dtd">
<!-- Generated by graphviz version 2.40.1 (20161225.0304)
 -->
<!-- Title: js_json_stringify Pages: 1 -->
<svg width="810pt" height="1252pt"
 viewBox="0.00 0.00 810.00 1251.69" xmlns="http://www.w3.org/2000/svg" xmlns:xlink="http://www.w3.org/1999/xlink">
<g id="graph0" class="graph" transform="scale(1 1) rotate(0) translate(4 1247.6946)">
<title>js_json_stringify</title>
<!-- Node443110 -->
<g id="node1" class="node">
<title>Node443110</title>
<polygon fill="#bfbfbf" stroke="#000000" points="0,-513.5 0,-532.5 96,-532.5 96,-513.5 0,-513.5"/>
<text text-anchor="middle" x="48" y="-520.5" font-family="Helvetica,sans-Serif" font-size="10.00" fill="#000000">js_json_stringify</text>
</g>
<!-- Node443111 -->
<g id="node2" class="node">
<title>Node443111</title>
<g id="a_node2"><a xlink:href="quickjs_8c.html#a343a343b16bc3c9875050e99ee0d2884" target="_top" xlink:title="JS_JSONStringify">
<polygon fill="none" stroke="#ff0000" points="132,-513.5 132,-532.5 228,-532.5 228,-513.5 132,-513.5"/>
<text text-anchor="middle" x="180" y="-520.5" font-family="Helvetica,sans-Serif" font-size="10.00" fill="#000000">JS_JSONStringify</text>
</a>
</g>
</g>
<!-- Node443110&#45;&gt;Node443111 -->
<g id="edge1" class="edge">
<title>Node443110&#45;&gt;Node443111</title>
<path fill="none" stroke="#191970" d="M96.0284,-523C104.3087,-523 112.9975,-523 121.517,-523"/>
<polygon fill="#191970" stroke="#191970" points="121.7862,-526.5001 131.7861,-523 121.7861,-519.5001 121.7862,-526.5001"/>
</g>
<!-- Node443112 -->
<g id="node3" class="node">
<title>Node443112</title>
<g id="a_node3"><a xlink:href="quickjs_8c.html#a2ef89587b2e4287d4bd0417788c8e21e" target="_top" xlink:title="js_array_includes">
<polygon fill="none" stroke="#ff0000" points="413,-798.5 413,-817.5 514,-817.5 514,-798.5 413,-798.5"/>
<text text-anchor="middle" x="463.5" y="-805.5" font-family="Helvetica,sans-Serif" font-size="10.00" fill="#000000">js_array_includes</text>
</a>
</g>
</g>
<!-- Node443111&#45;&gt;Node443112 -->
<g id="edge2" class="edge">
<title>Node443111&#45;&gt;Node443112</title>
<path fill="none" stroke="#191970" d="M181.6813,-532.6249C189.4044,-575.6922 222.8677,-750.0814 264,-784 302.1228,-815.437 359.1339,-819.4332 402.4606,-816.7305"/>
<polygon fill="#191970" stroke="#191970" points="402.8935,-820.2078 412.6003,-815.962 402.3644,-813.2278 402.8935,-820.2078"/>
</g>
<!-- Node443113 -->
<g id="node4" class="node">
<title>Node443113</title>
<g id="a_node4"><a xlink:href="quickjs_8h.html#a775522f2d084fc8fa0fcb33f390006b4" target="_top" xlink:title="JS_DupValue">
<polygon fill="none" stroke="#000000" points="583.5,-1140.5 583.5,-1159.5 660.5,-1159.5 660.5,-1140.5 583.5,-1140.5"/>
<text text-anchor="middle" x="622" y="-1147.5" font-family="Helvetica,sans-Serif" font-size="10.00" fill="#000000">JS_DupValue</text>
</a>
</g>
</g>
<!-- Node443111&#45;&gt;Node443113 -->
<g id="edge12" class="edge">
<title>Node443111&#45;&gt;Node443113</title>
<path fill="none" stroke="#191970" d="M180.4305,-532.7136C184.0687,-612.6382 210.8515,-1159.9793 264,-1207 361.5159,-1293.2728 535.2192,-1202.8826 598.2878,-1165.019"/>
<polygon fill="#191970" stroke="#191970" points="600.3924,-1167.8347 607.1007,-1159.6341 596.7426,-1161.8615 600.3924,-1167.8347"/>
</g>
<!-- Node443114 -->
<g id="node5" class="node">
<title>Node443114</title>
<g id="a_node5"><a xlink:href="quickjs_8h.html#afaa20c47565bc704c6c85f3d77254e7d" target="_top" xlink:title="JS_FreeValue">
<polygon fill="none" stroke="#ff0000" points="583,-893.5 583,-912.5 661,-912.5 661,-893.5 583,-893.5"/>
<text text-anchor="middle" x="622" y="-900.5" font-family="Helvetica,sans-Serif" font-size="10.00" fill="#000000">JS_FreeValue</text>
</a>
</g>
</g>
<!-- Node443111&#45;&gt;Node443114 -->
<g id="edge13" class="edge">
<title>Node443111&#45;&gt;Node443114</title>
<path fill="none" stroke="#191970" d="M180.4863,-532.7009C183.6442,-591.9532 203.0587,-904.8262 264,-974 342.8748,-1063.5299 421.2124,-1068.173 529,-1017 570.5337,-997.2816 599.6391,-948.9305 613.2594,-921.9612"/>
<polygon fill="#191970" stroke="#191970" points="616.4995,-923.301 617.715,-912.7761 610.2014,-920.2459 616.4995,-923.301"/>
</g>
<!-- Node443153 -->
<g id="node6" class="node">
<title>Node443153</title>
<g id="a_node6"><a xlink:href="quickjs_8c.html#a5f848f76409193212a44e6221e430919" target="_top" xlink:title="js_get_length64">
<polygon fill="none" stroke="#ff0000" points="575,-684.5 575,-703.5 669,-703.5 669,-684.5 575,-684.5"/>
<text text-anchor="middle" x="622" y="-691.5" font-family="Helvetica,sans-Serif" font-size="10.00" fill="#000000">js_get_length64</text>
</a>
</g>
</g>
<!-- Node443111&#45;&gt;Node443153 -->
<g id="edge14" class="edge">
<title>Node443111&#45;&gt;Node443153</title>
<path fill="none" stroke="#191970" d="M204.7109,-532.5601C279.209,-561.3818 501.7529,-647.4791 587.6482,-680.7101"/>
<polygon fill="#191970" stroke="#191970" points="586.6015,-684.0578 597.1907,-684.4018 589.1272,-677.5294 586.6015,-684.0578"/>
</g>
<!-- Node443163 -->
<g id="node7" class="node">
<title>Node443163</title>
<g id="a_node7"><a xlink:href="quickjs_8h.html#ad80a83d73e9b7d872b88fbf2943aebe9" target="_top" xlink:title="JS_IsException">
<polygon fill="none" stroke="#000000" points="715,-684.5 715,-703.5 802,-703.5 802,-684.5 715,-684.5"/>
<text text-anchor="middle" x="758.5" y="-691.5" font-family="Helvetica,sans-Serif" font-size="10.00" fill="#000000">JS_IsException</text>
</a>
</g>
</g>
<!-- Node443111&#45;&gt;Node443163 -->
<g id="edge17" class="edge">
<title>Node443111&#45;&gt;Node443163</title>
<path fill="none" stroke="#191970" d="M180.1754,-532.592C181.5272,-595.5179 192.2726,-948.9936 264,-1022 346.9088,-1106.3872 417.7652,-1087.2726 529,-1047 610.5973,-1017.4577 629.5868,-993.3387 679,-922 726.2285,-853.8153 747.9421,-754.8317 755.3689,-713.388"/>
<polygon fill="#191970" stroke="#191970" points="758.8227,-713.955 757.0601,-703.5079 751.923,-712.774 758.8227,-713.955"/>
</g>
<!-- Node443551 -->
<g id="node8" class="node">
<title>Node443551</title>
<g id="a_node8"><a xlink:href="quickjs_8c.html#a7bb763b31e1c40a04aa0c1d5db0f1191" target="_top" xlink:title="JS_GetPropertyInt64">
<polygon fill="none" stroke="#ff0000" points="565,-760.5 565,-779.5 679,-779.5 679,-760.5 565,-760.5"/>
<text text-anchor="middle" x="622" y="-767.5" font-family="Helvetica,sans-Serif" font-size="10.00" fill="#000000">JS_GetPropertyInt64</text>
</a>
</g>
</g>
<!-- Node443111&#45;&gt;Node443551 -->
<g id="edge15" class="edge">
<title>Node443111&#45;&gt;Node443551</title>
<path fill="none" stroke="#191970" d="M180.5983,-532.9299C183.2362,-567.0602 196.9184,-680.2426 264,-731 350.3632,-796.3469 483.7636,-791.1161 561.0036,-780.9011"/>
<polygon fill="#191970" stroke="#191970" points="561.6367,-784.3468 571.0584,-779.5009 560.6713,-777.4136 561.6367,-784.3468"/>
</g>
<!-- Node443188 -->
<g id="node9" class="node">
<title>Node443188</title>
<g id="a_node9"><a xlink:href="quickjs_8c.html#a260bfa297ff6cb5bd18e229afaa54663" target="_top" xlink:title="JS_AtomToString">
<polygon fill="none" stroke="#ff0000" points="574,-285.5 574,-304.5 670,-304.5 670,-285.5 574,-285.5"/>
<text text-anchor="middle" x="622" y="-292.5" font-family="Helvetica,sans-Serif" font-size="10.00" fill="#000000">JS_AtomToString</text>
</a>
</g>
</g>
<!-- Node443111&#45;&gt;Node443188 -->
<g id="edge9" class="edge">
<title>Node443111&#45;&gt;Node443188</title>
<path fill="none" stroke="#191970" d="M181.3753,-513.3317C186.2487,-482.9621 205.6554,-388.9523 264,-346 310.4436,-311.809 474.6162,-300.4261 563.6135,-296.724"/>
<polygon fill="#191970" stroke="#191970" points="563.9657,-300.2129 573.8192,-296.3195 563.6884,-293.2184 563.9657,-300.2129"/>
</g>
<!-- Node443272 -->
<g id="node10" class="node">
<title>Node443272</title>
<g id="a_node10"><a xlink:href="quickjs_8c.html#a0a8765bd4012467d9139bc24aabcb3ca" target="_top" xlink:title="JS_DefinePropertyValue">
<polygon fill="none" stroke="#ff0000" points="398,-988.5 398,-1007.5 529,-1007.5 529,-988.5 398,-988.5"/>
<text text-anchor="middle" x="463.5" y="-995.5" font-family="Helvetica,sans-Serif" font-size="10.00" fill="#000000">JS_DefinePropertyValue</text>
</a>
</g>
</g>
<!-- Node443111&#45;&gt;Node443272 -->
<g id="edge10" class="edge">
<title>Node443111&#45;&gt;Node443272</title>
<path fill="none" stroke="#191970" d="M180.679,-532.5501C184.8222,-588.2761 208.3892,-871.13 264,-934 295.0118,-969.0599 345.2553,-985.0441 387.5602,-992.2712"/>
<polygon fill="#191970" stroke="#191970" points="387.1452,-995.7489 397.5677,-993.8458 388.2333,-988.834 387.1452,-995.7489"/>
</g>
<!-- Node443553 -->
<g id="node11" class="node">
<title>Node443553</title>
<g id="a_node11"><a xlink:href="quickjs_8c.html#a1fc2c29e89230a9792fd36ae50b270e4" target="_top" xlink:title="JS_IsArray">
<polygon fill="none" stroke="#ff0000" points="431,-532.5 431,-551.5 496,-551.5 496,-532.5 431,-532.5"/>
<text text-anchor="middle" x="463.5" y="-539.5" font-family="Helvetica,sans-Serif" font-size="10.00" fill="#000000">JS_IsArray</text>
</a>
</g>
</g>
<!-- Node443111&#45;&gt;Node443553 -->
<g id="edge16" class="edge">
<title>Node443111&#45;&gt;Node443553</title>
<path fill="none" stroke="#191970" d="M228.0919,-526.2231C282.0368,-529.8384 368.7378,-535.6491 420.5067,-539.1186"/>
<polygon fill="#191970" stroke="#191970" points="420.4751,-542.6243 430.6868,-539.8009 420.9433,-535.6399 420.4751,-542.6243"/>
</g>
<!-- Node443323 -->
<g id="node12" class="node">
<title>Node443323</title>
<g id="a_node12"><a xlink:href="quickjs_8c.html#a1ca9cdb1fa2ffc3e6506e92b200e490f" target="_top" xlink:title="JS_IsFunction">
<polygon fill="none" stroke="#000000" points="582,-380.5 582,-399.5 662,-399.5 662,-380.5 582,-380.5"/>
<text text-anchor="middle" x="622" y="-387.5" font-family="Helvetica,sans-Serif" font-size="10.00" fill="#000000">JS_IsFunction</text>
</a>
</g>
</g>
<!-- Node443111&#45;&gt;Node443323 -->
<g id="edge18" class="edge">
<title>Node443111&#45;&gt;Node443323</title>
<path fill="none" stroke="#191970" d="M184.9546,-513.4068C196.0165,-493.0949 224.8623,-445.901 264,-425 362.8386,-372.2165 498.9911,-376.2298 571.5992,-383.3533"/>
<polygon fill="#191970" stroke="#191970" points="571.5299,-386.8649 581.8388,-384.4205 572.2555,-379.9026 571.5299,-386.8649"/>
</g>
<!-- Node443328 -->
<g id="node13" class="node">
<title>Node443328</title>
<g id="a_node13"><a xlink:href="quickjs_8h.html#ab995df176086f2a2a06ab777d4c4ef28" target="_top" xlink:title="JS_IsNumber">
<polygon fill="none" stroke="#000000" points="274,-152.5 274,-171.5 352,-171.5 352,-152.5 274,-152.5"/>
<text text-anchor="middle" x="313" y="-159.5" font-family="Helvetica,sans-Serif" font-size="10.00" fill="#000000">JS_IsNumber</text>
</a>
</g>
</g>
<!-- Node443111&#45;&gt;Node443328 -->
<g id="edge19" class="edge">
<title>Node443111&#45;&gt;Node443328</title>
<path fill="none" stroke="#191970" d="M181.2883,-513.383C188.0616,-464.0181 220.8824,-239.3402 264,-186 266.8918,-182.4225 270.4498,-179.3387 274.3171,-176.69"/>
<polygon fill="#191970" stroke="#191970" points="276.2512,-179.6142 283.1389,-171.5636 272.7342,-173.5618 276.2512,-179.6142"/>
</g>
<!-- Node443392 -->
<g id="node14" class="node">
<title>Node443392</title>
<g id="a_node14"><a xlink:href="quickjs_8h.html#a3d68fe446df2d9c7d1900b16371bff5b" target="_top" xlink:title="JS_IsObject">
<polygon fill="none" stroke="#000000" points="586.5,-342.5 586.5,-361.5 657.5,-361.5 657.5,-342.5 586.5,-342.5"/>
<text text-anchor="middle" x="622" y="-349.5" font-family="Helvetica,sans-Serif" font-size="10.00" fill="#000000">JS_IsObject</text>
</a>
</g>
</g>
<!-- Node443111&#45;&gt;Node443392 -->
<g id="edge20" class="edge">
<title>Node443111&#45;&gt;Node443392</title>
<path fill="none" stroke="#191970" d="M182.724,-513.3768C190.5135,-487.8337 215.5028,-418.2171 264,-388 361.6532,-327.1554 504.1122,-335.2295 576.3489,-344.5465"/>
<polygon fill="#191970" stroke="#191970" points="576.1036,-348.0452 586.4835,-345.9221 577.0452,-341.1088 576.1036,-348.0452"/>
</g>
<!-- Node443461 -->
<g id="node15" class="node">
<title>Node443461</title>
<g id="a_node15"><a xlink:href="quickjs_8h.html#aa53b9197dc6d5770e3a080c1e335f7cb" target="_top" xlink:title="JS_IsString">
<polygon fill="none" stroke="#000000" points="279,-114.5 279,-133.5 347,-133.5 347,-114.5 279,-114.5"/>
<text text-anchor="middle" x="313" y="-121.5" font-family="Helvetica,sans-Serif" font-size="10.00" fill="#000000">JS_IsString</text>
</a>
</g>
</g>
<!-- Node443111&#45;&gt;Node443461 -->
<g id="edge21" class="edge">
<title>Node443111&#45;&gt;Node443461</title>
<path fill="none" stroke="#191970" d="M180.9248,-513.1698C186.157,-459.4543 213.6187,-201.7074 264,-143 265.7417,-140.9704 267.7271,-139.1565 269.8773,-137.5355"/>
<polygon fill="#191970" stroke="#191970" points="272.0327,-140.3248 278.8221,-132.1912 268.4424,-134.3157 272.0327,-140.3248"/>
</g>
<!-- Node443321 -->
<g id="node16" class="node">
<title>Node443321</title>
<g id="a_node16"><a xlink:href="quickjs_8h.html#a4e407128a9605afb77523e49e9a627fd" target="_top" xlink:title="JS_IsUndefined">
<polygon fill="none" stroke="#000000" points="577.5,-456.5 577.5,-475.5 666.5,-475.5 666.5,-456.5 577.5,-456.5"/>
<text text-anchor="middle" x="622" y="-463.5" font-family="Helvetica,sans-Serif" font-size="10.00" fill="#000000">JS_IsUndefined</text>
</a>
</g>
</g>
<!-- Node443111&#45;&gt;Node443321 -->
<g id="edge22" class="edge">
<title>Node443111&#45;&gt;Node443321</title>
<path fill="none" stroke="#191970" d="M228.378,-513.5669C240.0321,-511.3549 252.4521,-509.0474 264,-507 323.4261,-496.4639 338.1081,-492.445 398,-485 455.4905,-477.8535 521.6216,-472.6066 567.0443,-469.4591"/>
<polygon fill="#191970" stroke="#191970" points="567.5294,-472.9343 577.268,-468.7619 567.0531,-465.9505 567.5294,-472.9343"/>
</g>
<!-- Node443555 -->
<g id="node17" class="node">
<title>Node443555</title>
<g id="a_node17"><a xlink:href="quickjs_8c.html#a0da6493b4bc0edb7ddddfab807241d0b" target="_top" xlink:title="js_json_check">
<polygon fill="none" stroke="#ff0000" points="421.5,-418.5 421.5,-437.5 505.5,-437.5 505.5,-418.5 421.5,-418.5"/>
<text text-anchor="middle" x="463.5" y="-425.5" font-family="Helvetica,sans-Serif" font-size="10.00" fill="#000000">js_json_check</text>
</a>
</g>
</g>
<!-- Node443111&#45;&gt;Node443555 -->
<g id="edge23" class="edge">
<title>Node443111&#45;&gt;Node443555</title>
<path fill="none" stroke="#191970" d="M187.8826,-513.4138C201.5312,-497.5699 231.2623,-466.257 264,-452 310.8813,-431.5836 369.4804,-426.6787 411.0093,-426.2158"/>
<polygon fill="#191970" stroke="#191970" points="411.1922,-429.7154 421.1822,-426.1871 411.1724,-422.7154 411.1922,-429.7154"/>
</g>
<!-- Node443556 -->
<g id="node18" class="node">
<title>Node443556</title>
<g id="a_node18"><a xlink:href="quickjs_8c.html#a60d84dd116a9d7d912d08f298a4734dd" target="_top" xlink:title="js_json_to_str">
<polygon fill="none" stroke="#ff0000" points="271.5,-684.5 271.5,-703.5 354.5,-703.5 354.5,-684.5 271.5,-684.5"/>
<text text-anchor="middle" x="313" y="-691.5" font-family="Helvetica,sans-Serif" font-size="10.00" fill="#000000">js_json_to_str</text>
</a>
</g>
</g>
<!-- Node443111&#45;&gt;Node443556 -->
<g id="edge29" class="edge">
<title>Node443111&#45;&gt;Node443556</title>
<path fill="none" stroke="#191970" d="M187.3768,-532.6539C201.9482,-551.7054 235.4844,-595.4619 264,-632 275.6828,-646.9696 289.0558,-663.8753 298.8765,-676.248"/>
<polygon fill="#191970" stroke="#191970" points="296.3634,-678.7113 305.3247,-684.3635 301.8441,-674.3567 296.3634,-678.7113"/>
</g>
<!-- Node443322 -->
<g id="node19" class="node">
<title>Node443322</title>
<g id="a_node19"><a xlink:href="quickjs_8c.html#a2bf30c9cddfe98a32535843202495069" target="_top" xlink:title="JS_ToBoolFree">
<polygon fill="none" stroke="#000000" points="422,-874.5 422,-893.5 505,-893.5 505,-874.5 422,-874.5"/>
<text text-anchor="middle" x="463.5" y="-881.5" font-family="Helvetica,sans-Serif" font-size="10.00" fill="#000000">JS_ToBoolFree</text>
</a>
</g>
</g>
<!-- Node443111&#45;&gt;Node443322 -->
<g id="edge55" class="edge">
<title>Node443111&#45;&gt;Node443322</title>
<path fill="none" stroke="#191970" d="M181.5588,-532.5727C189.1197,-577.9419 223.2766,-770.911 264,-814 302.7108,-854.9595 366.7507,-871.9671 411.8116,-879.02"/>
<polygon fill="#191970" stroke="#191970" points="411.5765,-882.5224 421.9753,-880.4935 412.581,-875.5948 411.5765,-882.5224"/>
</g>
<!-- Node443171 -->
<g id="node20" class="node">
<title>Node443171</title>
<g id="a_node20"><a xlink:href="quickjs_8c.html#ae738291483438efefca5c9fa4d269504" target="_top" xlink:title="JS_ToNumberFree">
<polygon fill="none" stroke="#ff0000" points="413,-494.5 413,-513.5 514,-513.5 514,-494.5 413,-494.5"/>
<text text-anchor="middle" x="463.5" y="-501.5" font-family="Helvetica,sans-Serif" font-size="10.00" fill="#000000">JS_ToNumberFree</text>
</a>
</g>
</g>
<!-- Node443111&#45;&gt;Node443171 -->
<g id="edge58" class="edge">
<title>Node443111&#45;&gt;Node443171</title>
<path fill="none" stroke="#191970" d="M228.0919,-519.7769C276.2253,-516.551 350.4373,-511.5774 402.6439,-508.0785"/>
<polygon fill="#191970" stroke="#191970" points="403.034,-511.5603 412.7776,-507.3994 402.5659,-504.576 403.034,-511.5603"/>
</g>
<!-- Node443368 -->
<g id="node21" class="node">
<title>Node443368</title>
<g id="a_node21"><a xlink:href="quickjs_8c.html#a38cad713b74c445668210ea8614bfb65" target="_top" xlink:title="JS_ToStringFree">
<polygon fill="none" stroke="#ff0000" points="418.5,-912.5 418.5,-931.5 508.5,-931.5 508.5,-912.5 418.5,-912.5"/>
<text text-anchor="middle" x="463.5" y="-919.5" font-family="Helvetica,sans-Serif" font-size="10.00" fill="#000000">JS_ToStringFree</text>
</a>
</g>
</g>
<!-- Node443111&#45;&gt;Node443368 -->
<g id="edge59" class="edge">
<title>Node443111&#45;&gt;Node443368</title>
<path fill="none" stroke="#191970" d="M181.2111,-532.5326C187.5996,-581.4515 218.8075,-803.9438 264,-854 300.8175,-894.7798 363.0728,-911.1157 408.2627,-917.6529"/>
<polygon fill="#191970" stroke="#191970" points="407.8306,-921.1261 418.2046,-918.9743 408.753,-914.1871 407.8306,-921.1261"/>
</g>
<!-- Node443378 -->
<g id="node22" class="node">
<title>Node443378</title>
<g id="a_node22"><a xlink:href="quickjs_8c.html#ad4ba09e4c7ab9f28c144182e1aacf1f6" target="_top" xlink:title="JS_NewArray">
<polygon fill="none" stroke="#ff0000" points="273.5,-76.5 273.5,-95.5 352.5,-95.5 352.5,-76.5 273.5,-76.5"/>
<text text-anchor="middle" x="313" y="-83.5" font-family="Helvetica,sans-Serif" font-size="10.00" fill="#000000">JS_NewArray</text>
</a>
</g>
</g>
<!-- Node443111&#45;&gt;Node443378 -->
<g id="edge45" class="edge">
<title>Node443111&#45;&gt;Node443378</title>
<path fill="none" stroke="#191970" d="M180.6992,-513.3268C184.9576,-456.8768 209.0688,-170.2692 264,-105 265.131,-103.6562 266.3689,-102.407 267.6913,-101.2459"/>
<polygon fill="#191970" stroke="#191970" points="269.7745,-104.0612 276.0327,-95.5122 265.8092,-98.2926 269.7745,-104.0612"/>
</g>
<!-- Node443521 -->
<g id="node23" class="node">
<title>Node443521</title>
<g id="a_node23"><a xlink:href="quickjs_8c.html#afc0d8ea75588216ec132a6e1655524a7" target="_top" xlink:title="JS_NewObject">
<polygon fill="none" stroke="#ff0000" points="271,-38.5 271,-57.5 355,-57.5 355,-38.5 271,-38.5"/>
<text text-anchor="middle" x="313" y="-45.5" font-family="Helvetica,sans-Serif" font-size="10.00" fill="#000000">JS_NewObject</text>
</a>
</g>
</g>
<!-- Node443111&#45;&gt;Node443521 -->
<g id="edge46" class="edge">
<title>Node443111&#45;&gt;Node443521</title>
<path fill="none" stroke="#191970" d="M180.5281,-513.2419C183.9353,-453.6329 204.5794,-138.7718 264,-67 264.9819,-65.814 266.0472,-64.7018 267.1808,-63.6589"/>
<polygon fill="#191970" stroke="#191970" points="269.3814,-66.3884 275.4898,-57.7317 265.3162,-60.6897 269.3814,-66.3884"/>
</g>
<!-- Node443191 -->
<g id="node24" class="node">
<title>Node443191</title>
<g id="a_node24"><a xlink:href="quickjs_8c.html#ac34cc554aab1e98c45a7f845fff64385" target="_top" xlink:title="JS_NewStringLen">
<polygon fill="none" stroke="#ff0000" points="264,-228.5 264,-247.5 362,-247.5 362,-228.5 264,-228.5"/>
<text text-anchor="middle" x="313" y="-235.5" font-family="Helvetica,sans-Serif" font-size="10.00" fill="#000000">JS_NewStringLen</text>
</a>
</g>
</g>
<!-- Node443111&#45;&gt;Node443191 -->
<g id="edge47" class="edge">
<title>Node443111&#45;&gt;Node443191</title>
<path fill="none" stroke="#191970" d="M180.4661,-513.4141C182.7486,-476.4097 195.6274,-341.0084 264,-262 267.1652,-258.3425 271.0172,-255.1892 275.156,-252.4845"/>
<polygon fill="#191970" stroke="#191970" points="276.9309,-255.5018 283.9265,-247.5449 273.4958,-249.4026 276.9309,-255.5018"/>
</g>
<!-- Node443193 -->
<g id="node25" class="node">
<title>Node443193</title>
<g id="a_node25"><a xlink:href="quickjs_8c.html#accfc3d1dcaa88c88402cb245ccaf4fdb" target="_top" xlink:title="string_buffer_end">
<polygon fill="none" stroke="#ff0000" points="413,-266.5 413,-285.5 514,-285.5 514,-266.5 413,-266.5"/>
<text text-anchor="middle" x="463.5" y="-273.5" font-family="Helvetica,sans-Serif" font-size="10.00" fill="#000000">string_buffer_end</text>
</a>
</g>
</g>
<!-- Node443111&#45;&gt;Node443193 -->
<g id="edge61" class="edge">
<title>Node443111&#45;&gt;Node443193</title>
<path fill="none" stroke="#191970" d="M180.3123,-513.3974C182.0195,-478.2349 193.0369,-355.6614 264,-300 302.8796,-269.5039 359.81,-265.4074 402.9136,-267.8328"/>
<polygon fill="#191970" stroke="#191970" points="402.7792,-271.3318 412.9973,-268.5316 403.2632,-264.3485 402.7792,-271.3318"/>
</g>
<!-- Node443194 -->
<g id="node26" class="node">
<title>Node443194</title>
<g id="a_node26"><a xlink:href="quickjs_8c.html#a266b4993a59d9e34537386e62b9f3d4f" target="_top" xlink:title="string_buffer_free">
<polygon fill="none" stroke="#ff0000" points="412,-209.5 412,-228.5 515,-228.5 515,-209.5 412,-209.5"/>
<text text-anchor="middle" x="463.5" y="-216.5" font-family="Helvetica,sans-Serif" font-size="10.00" fill="#000000">string_buffer_free</text>
</a>
</g>
</g>
<!-- Node443111&#45;&gt;Node443194 -->
<g id="edge62" class="edge">
<title>Node443111&#45;&gt;Node443194</title>
<path fill="none" stroke="#191970" d="M181.1236,-513.3161C186.8719,-465.6302 214.657,-256.5578 264,-219 310.5345,-183.5799 382.471,-194.8833 426.0576,-206.6846"/>
<polygon fill="#191970" stroke="#191970" points="425.1255,-210.0582 435.7017,-209.4296 427.0419,-203.3256 425.1255,-210.0582"/>
</g>
<!-- Node443561 -->
<g id="node27" class="node">
<title>Node443561</title>
<g id="a_node27"><a xlink:href="quickjs_8c.html#a51b06daa618640e531fe808770553b96" target="_top" xlink:title="JS_SetPropertyInt64">
<polygon fill="none" stroke="#ff0000" points="407,-950.5 407,-969.5 520,-969.5 520,-950.5 407,-950.5"/>
<text text-anchor="middle" x="463.5" y="-957.5" font-family="Helvetica,sans-Serif" font-size="10.00" fill="#000000">JS_SetPropertyInt64</text>
</a>
</g>
</g>
<!-- Node443111&#45;&gt;Node443561 -->
<g id="edge51" class="edge">
<title>Node443111&#45;&gt;Node443561</title>
<path fill="none" stroke="#191970" d="M180.927,-532.6265C186.1707,-585.2246 213.6836,-837.5552 264,-894 297.4442,-931.5176 352.6699,-947.7689 396.5474,-954.7776"/>
<polygon fill="#191970" stroke="#191970" points="396.1758,-958.2605 406.5787,-956.2528 397.1944,-951.335 396.1758,-958.2605"/>
</g>
<!-- Node443574 -->
<g id="node28" class="node">
<title>Node443574</title>
<g id="a_node28"><a xlink:href="quickjs_8c.html#a011157b8ff30c8418be989eadf509c92" target="_top" xlink:title="js_sub_string">
<polygon fill="none" stroke="#ff0000" points="273,-1178.5 273,-1197.5 353,-1197.5 353,-1178.5 273,-1178.5"/>
<text text-anchor="middle" x="313" y="-1185.5" font-family="Helvetica,sans-Serif" font-size="10.00" fill="#000000">js_sub_string</text>
</a>
</g>
</g>
<!-- Node443111&#45;&gt;Node443574 -->
<g id="edge53" class="edge">
<title>Node443111&#45;&gt;Node443574</title>
<path fill="none" stroke="#191970" d="M180.6696,-532.7577C186.0227,-609.6502 222.733,-1116.384 264,-1169 264.9502,-1170.2115 265.988,-1171.3459 267.0978,-1172.408"/>
<polygon fill="#191970" stroke="#191970" points="265.166,-1175.3315 275.3004,-1178.4209 269.3046,-1169.6859 265.166,-1175.3315"/>
</g>
<!-- Node443575 -->
<g id="node29" class="node">
<title>Node443575</title>
<g id="a_node29"><a xlink:href="quickjs_8c.html#a6d4699bf179372379572ec9039e5ec00" target="_top" xlink:title="JS_ToInt32Clamp">
<polygon fill="none" stroke="#ff0000" points="264,-1140.5 264,-1159.5 362,-1159.5 362,-1140.5 264,-1140.5"/>
<text text-anchor="middle" x="313" y="-1147.5" font-family="Helvetica,sans-Serif" font-size="10.00" fill="#000000">JS_ToInt32Clamp</text>
</a>
</g>
</g>
<!-- Node443111&#45;&gt;Node443575 -->
<g id="edge56" class="edge">
<title>Node443111&#45;&gt;Node443575</title>
<path fill="none" stroke="#191970" d="M180.1396,-532.9214C181.3055,-603.1734 191.2994,-1025.6327 264,-1126 266.5318,-1129.4953 269.7145,-1132.5067 273.2363,-1135.0956"/>
<polygon fill="#191970" stroke="#191970" points="271.5635,-1138.175 281.9223,-1140.3989 275.2112,-1132.2006 271.5635,-1138.175"/>
</g>
<!-- Node443169 -->
<g id="node30" class="node">
<title>Node443169</title>
<g id="a_node30"><a xlink:href="cutils_8h.html#a29a7a26d9387c01c1b4e9fe4fff5704a" target="_top" xlink:title="min_int">
<polygon fill="none" stroke="#000000" points="286.5,-.5 286.5,-19.5 339.5,-19.5 339.5,-.5 286.5,-.5"/>
<text text-anchor="middle" x="313" y="-7.5" font-family="Helvetica,sans-Serif" font-size="10.00" fill="#000000">min_int</text>
</a>
</g>
</g>
<!-- Node443111&#45;&gt;Node443169 -->
<g id="edge60" class="edge">
<title>Node443111&#45;&gt;Node443169</title>
<path fill="none" stroke="#191970" d="M180.3767,-513.2564C182.972,-450.8502 200.0434,-107.34 264,-29 267.4107,-24.8223 271.8587,-21.5608 276.6832,-19.0153"/>
<polygon fill="#191970" stroke="#191970" points="278.4162,-22.0818 286.2509,-14.9497 275.6786,-15.6393 278.4162,-22.0818"/>
</g>
<!-- Node443112&#45;&gt;Node443113 -->
<g id="edge3" class="edge">
<title>Node443112&#45;&gt;Node443113</title>
<path fill="none" stroke="#191970" d="M478.6054,-817.5522C493.4244,-827.6536 515.6805,-844.8922 529,-865 587.5401,-953.3747 611.798,-1081.5248 619.2691,-1130.2218"/>
<polygon fill="#191970" stroke="#191970" points="615.8388,-1130.9533 620.7513,-1140.3404 622.7649,-1129.9387 615.8388,-1130.9533"/>
</g>
<!-- Node443112&#45;&gt;Node443114 -->
<g id="edge4" class="edge">
<title>Node443112&#45;&gt;Node443114</title>
<path fill="none" stroke="#191970" d="M495.3277,-817.503C506.31,-821.3392 518.4874,-826.2346 529,-832 557.01,-847.3614 585.7029,-870.6437 603.669,-886.3178"/>
<polygon fill="#191970" stroke="#191970" points="601.7737,-889.3152 611.5771,-893.3332 606.4191,-884.0787 601.7737,-889.3152"/>
</g>
<!-- Node443112&#45;&gt;Node443153 -->
<g id="edge5" class="edge">
<title>Node443112&#45;&gt;Node443153</title>
<path fill="none" stroke="#191970" d="M476.741,-798.4765C504.0605,-778.8271 566.905,-733.6267 600.269,-709.6299"/>
<polygon fill="#191970" stroke="#191970" points="602.3861,-712.4185 608.4607,-703.738 598.2988,-706.7357 602.3861,-712.4185"/>
</g>
<!-- Node443112&#45;&gt;Node443163 -->
<g id="edge8" class="edge">
<title>Node443112&#45;&gt;Node443163</title>
<path fill="none" stroke="#191970" d="M514.0055,-814.0684C559.7145,-817.2081 627.5557,-815.8456 679,-789 711.7189,-771.926 736.2957,-735.0546 748.9442,-712.5996"/>
<polygon fill="#191970" stroke="#191970" points="752.0848,-714.1498 753.7635,-703.6888 745.9276,-710.8198 752.0848,-714.1498"/>
</g>
<!-- Node443112&#45;&gt;Node443551 -->
<g id="edge7" class="edge">
<title>Node443112&#45;&gt;Node443551</title>
<path fill="none" stroke="#191970" d="M503.4962,-798.411C524.412,-793.3965 550.2081,-787.2119 572.3864,-781.8947"/>
<polygon fill="#191970" stroke="#191970" points="573.383,-785.2551 582.2914,-779.5201 571.7509,-778.448 573.383,-785.2551"/>
</g>
<!-- Node443153&#45;&gt;Node443163 -->
<g id="edge6" class="edge">
<title>Node443153&#45;&gt;Node443163</title>
<path fill="none" stroke="#191970" d="M669.358,-694C680.7926,-694 693.0931,-694 704.7953,-694"/>
<polygon fill="#191970" stroke="#191970" points="704.8883,-697.5001 714.8883,-694 704.8882,-690.5001 704.8883,-697.5001"/>
</g>
<!-- Node443272&#45;&gt;Node443114 -->
<g id="edge11" class="edge">
<title>Node443272&#45;&gt;Node443114</title>
<path fill="none" stroke="#191970" d="M505.7126,-988.4792C513.6755,-985.9314 521.7676,-982.7997 529,-979 558.9339,-963.2737 588.2618,-936.9752 605.7401,-919.8088"/>
<polygon fill="#191970" stroke="#191970" points="608.3119,-922.1865 612.8964,-912.6349 603.3561,-917.2428 608.3119,-922.1865"/>
</g>
<!-- Node443555&#45;&gt;Node443114 -->
<g id="edge24" class="edge">
<title>Node443555&#45;&gt;Node443114</title>
<path fill="none" stroke="#191970" d="M480.3483,-437.5928C495.81,-447.3785 517.9396,-464.0766 529,-485 592.5833,-605.2837 525.9957,-658.6556 565,-789 575.7202,-824.8246 597.1257,-863.029 610.4377,-884.8602"/>
<polygon fill="#191970" stroke="#191970" points="607.5036,-886.7699 615.755,-893.4156 613.4489,-883.0748 607.5036,-886.7699"/>
</g>
<!-- Node443555&#45;&gt;Node443163 -->
<g id="edge25" class="edge">
<title>Node443555&#45;&gt;Node443163</title>
<path fill="none" stroke="#191970" d="M505.7544,-419.1042C553.2094,-411.7069 629.9802,-407.87 679,-447 715.6489,-476.255 745.2676,-621.2857 755.0521,-674.435"/>
<polygon fill="#191970" stroke="#191970" points="751.6134,-675.0881 756.8344,-684.3072 758.502,-673.8444 751.6134,-675.0881"/>
</g>
<!-- Node443555&#45;&gt;Node443323 -->
<g id="edge26" class="edge">
<title>Node443555&#45;&gt;Node443323</title>
<path fill="none" stroke="#191970" d="M503.4962,-418.411C524.412,-413.3965 550.2081,-407.2119 572.3864,-401.8947"/>
<polygon fill="#191970" stroke="#191970" points="573.383,-405.2551 582.2914,-399.5201 571.7509,-398.448 573.383,-405.2551"/>
</g>
<!-- Node443555&#45;&gt;Node443392 -->
<g id="edge27" class="edge">
<title>Node443555&#45;&gt;Node443392</title>
<path fill="none" stroke="#191970" d="M478.5076,-418.3729C497.9156,-406.2074 533.0287,-385.1519 565,-371 569.8244,-368.8645 574.9674,-366.8312 580.1148,-364.9431"/>
<polygon fill="#191970" stroke="#191970" points="581.656,-368.1118 589.9364,-361.5022 579.3415,-361.5054 581.656,-368.1118"/>
</g>
<!-- Node443555&#45;&gt;Node443321 -->
<g id="edge28" class="edge">
<title>Node443555&#45;&gt;Node443321</title>
<path fill="none" stroke="#191970" d="M503.4962,-437.589C524.412,-442.6035 550.2081,-448.7881 572.3864,-454.1053"/>
<polygon fill="#191970" stroke="#191970" points="571.7509,-457.552 582.2914,-456.4799 573.383,-450.7449 571.7509,-457.552"/>
</g>
<!-- Node443556&#45;&gt;Node443112 -->
<g id="edge30" class="edge">
<title>Node443556&#45;&gt;Node443112</title>
<path fill="none" stroke="#191970" d="M325.5727,-703.5235C351.4029,-723.0892 410.6785,-767.9891 442.4598,-792.0626"/>
<polygon fill="#191970" stroke="#191970" points="440.5594,-795.0138 450.6441,-798.262 444.7861,-789.4339 440.5594,-795.0138"/>
</g>
<!-- Node443556&#45;&gt;Node443113 -->
<g id="edge31" class="edge">
<title>Node443556&#45;&gt;Node443113</title>
<path fill="none" stroke="#191970" d="M314.5508,-703.7902C322.3483,-752.0688 358.4595,-964.5698 398,-1017 445.231,-1079.6278 531.2793,-1118.4422 581.8696,-1136.9642"/>
<polygon fill="#191970" stroke="#191970" points="580.8982,-1140.3337 591.4929,-1140.3991 583.2514,-1133.7411 580.8982,-1140.3337"/>
</g>
<!-- Node443556&#45;&gt;Node443114 -->
<g id="edge32" class="edge">
<title>Node443556&#45;&gt;Node443114</title>
<path fill="none" stroke="#191970" d="M316.4204,-703.7261C325.5704,-728.3069 353.016,-793.3516 398,-827 446.5442,-863.3115 471.75,-845.0627 529,-865 549.9856,-872.3082 573.1178,-881.7542 591.062,-889.3999"/>
<polygon fill="#191970" stroke="#191970" points="589.8815,-892.7021 600.4508,-893.4373 592.6468,-886.2715 589.8815,-892.7021"/>
</g>
<!-- Node443556&#45;&gt;Node443153 -->
<g id="edge33" class="edge">
<title>Node443556&#45;&gt;Node443153</title>
<path fill="none" stroke="#191970" d="M354.6731,-694C408.8654,-694 503.7788,-694 564.7132,-694"/>
<polygon fill="#191970" stroke="#191970" points="564.933,-697.5001 574.933,-694 564.933,-690.5001 564.933,-697.5001"/>
</g>
<!-- Node443556&#45;&gt;Node443163 -->
<g id="edge36" class="edge">
<title>Node443556&#45;&gt;Node443163</title>
<path fill="none" stroke="#191970" d="M354.5898,-687.2878C422.6433,-677.3248 561.9405,-661.206 679,-675 691.3316,-676.4531 704.521,-679.1326 716.5412,-682.0303"/>
<polygon fill="#191970" stroke="#191970" points="715.7665,-685.4444 726.3186,-684.4936 717.4767,-678.6565 715.7665,-685.4444"/>
</g>
<!-- Node443556&#45;&gt;Node443551 -->
<g id="edge34" class="edge">
<title>Node443556&#45;&gt;Node443551</title>
<path fill="none" stroke="#191970" d="M351.8222,-703.5485C408.0193,-717.3704 511.9931,-742.9433 573.2719,-758.0151"/>
<polygon fill="#191970" stroke="#191970" points="572.547,-761.4411 583.0936,-760.4308 574.2189,-754.6436 572.547,-761.4411"/>
</g>
<!-- Node443556&#45;&gt;Node443553 -->
<g id="edge35" class="edge">
<title>Node443556&#45;&gt;Node443553</title>
<path fill="none" stroke="#191970" d="M316.808,-684.4736C326.6672,-660.9735 355.2751,-599.7039 398,-566 404.8342,-560.6088 412.994,-556.353 421.1964,-553.0201"/>
<polygon fill="#191970" stroke="#191970" points="422.579,-556.2412 430.7679,-549.5187 420.1741,-549.6673 422.579,-556.2412"/>
</g>
<!-- Node443556&#45;&gt;Node443321 -->
<g id="edge37" class="edge">
<title>Node443556&#45;&gt;Node443321</title>
<path fill="none" stroke="#191970" d="M328.8474,-684.3131C377.9295,-654.3019 524.4192,-564.6589 529,-561 559.2969,-536.8005 589.8809,-503.4498 607.3274,-483.3806"/>
<polygon fill="#191970" stroke="#191970" points="610.0999,-485.5244 613.9609,-475.6581 604.7899,-480.9632 610.0999,-485.5244"/>
</g>
<!-- Node443556&#45;&gt;Node443555 -->
<g id="edge38" class="edge">
<title>Node443556&#45;&gt;Node443555</title>
<path fill="none" stroke="#191970" d="M315.1774,-684.4764C322.6107,-653.4258 349.2623,-553.2007 398,-485 409.6856,-468.6478 426.9658,-453.8674 440.8435,-443.4571"/>
<polygon fill="#191970" stroke="#191970" points="442.9257,-446.2706 448.9641,-437.565 438.8147,-440.6049 442.9257,-446.2706"/>
</g>
<!-- Node443556&#45;&gt;Node443556 -->
<g id="edge39" class="edge">
<title>Node443556&#45;&gt;Node443556</title>
<path fill="none" stroke="#191970" d="M292.655,-703.7571C282.7574,-712.5653 289.5391,-722 313,-722 328.0297,-722 336.2142,-718.128 337.5535,-713.0292"/>
<polygon fill="#191970" stroke="#191970" points="340.6652,-711.4164 333.345,-703.7571 334.291,-714.3096 340.6652,-711.4164"/>
</g>
<!-- Node443556&#45;&gt;Node443322 -->
<g id="edge40" class="edge">
<title>Node443556&#45;&gt;Node443322</title>
<path fill="none" stroke="#191970" d="M315.3147,-703.7886C322.5028,-732.1039 347.0793,-814.9422 398,-860 402.5321,-864.0103 407.7905,-867.3694 413.3189,-870.1788"/>
<polygon fill="#191970" stroke="#191970" points="412.2387,-873.5293 422.7973,-874.4057 415.0898,-867.1362 412.2387,-873.5293"/>
</g>
<!-- Node443556&#45;&gt;Node443171 -->
<g id="edge42" class="edge">
<title>Node443556&#45;&gt;Node443171</title>
<path fill="none" stroke="#191970" d="M314.9793,-684.1634C321.3822,-654.9325 344.3134,-567.8455 398,-523 400.0276,-521.3063 402.1992,-519.7636 404.4746,-518.3583"/>
<polygon fill="#191970" stroke="#191970" points="406.4086,-521.2982 413.6784,-513.591 403.1891,-515.0825 406.4086,-521.2982"/>
</g>
<!-- Node443556&#45;&gt;Node443368 -->
<g id="edge43" class="edge">
<title>Node443556&#45;&gt;Node443368</title>
<path fill="none" stroke="#191970" d="M313.9735,-703.5647C317.8453,-736.5103 335.1455,-846.3611 398,-903 401.3562,-906.0243 405.167,-908.5692 409.2224,-910.7103"/>
<polygon fill="#191970" stroke="#191970" points="407.849,-913.9299 418.4095,-914.7822 410.6854,-907.5303 407.849,-913.9299"/>
</g>
<!-- Node443322&#45;&gt;Node443114 -->
<g id="edge41" class="edge">
<title>Node443322&#45;&gt;Node443114</title>
<path fill="none" stroke="#191970" d="M505.144,-888.992C525.8893,-891.4788 551.1102,-894.5022 572.804,-897.1027"/>
<polygon fill="#191970" stroke="#191970" points="572.4683,-900.5874 582.8139,-898.3026 573.3015,-893.6372 572.4683,-900.5874"/>
</g>
<!-- Node443368&#45;&gt;Node443114 -->
<g id="edge44" class="edge">
<title>Node443368&#45;&gt;Node443114</title>
<path fill="none" stroke="#191970" d="M508.9197,-916.5554C528.875,-914.1632 552.3534,-911.3488 572.7302,-908.9062"/>
<polygon fill="#191970" stroke="#191970" points="573.2483,-912.3692 582.7606,-907.7038 572.4151,-905.419 573.2483,-912.3692"/>
</g>
<!-- Node443191&#45;&gt;Node443193 -->
<g id="edge48" class="edge">
<title>Node443191&#45;&gt;Node443193</title>
<path fill="none" stroke="#191970" d="M350.9775,-247.589C370.6587,-252.5583 394.8907,-258.6767 415.8206,-263.9613"/>
<polygon fill="#191970" stroke="#191970" points="415.243,-267.4253 425.7956,-266.4799 416.9567,-260.6383 415.243,-267.4253"/>
</g>
<!-- Node443191&#45;&gt;Node443194 -->
<g id="edge50" class="edge">
<title>Node443191&#45;&gt;Node443194</title>
<path fill="none" stroke="#191970" d="M362.2793,-231.7787C374.9173,-230.1832 388.6693,-228.4471 401.846,-226.7836"/>
<polygon fill="#191970" stroke="#191970" points="402.2993,-230.2542 411.7821,-225.5292 401.4225,-223.3093 402.2993,-230.2542"/>
</g>
<!-- Node443193&#45;&gt;Node443188 -->
<g id="edge49" class="edge">
<title>Node443193&#45;&gt;Node443188</title>
<path fill="none" stroke="#191970" d="M514.0862,-282.064C529.9167,-283.9616 547.5109,-286.0707 563.821,-288.0259"/>
<polygon fill="#191970" stroke="#191970" points="563.4377,-291.5049 573.7832,-289.2201 564.2709,-284.5546 563.4377,-291.5049"/>
</g>
<!-- Node443561&#45;&gt;Node443114 -->
<g id="edge52" class="edge">
<title>Node443561&#45;&gt;Node443114</title>
<path fill="none" stroke="#191970" d="M499.069,-950.4223C508.8365,-947.5919 519.3838,-944.3488 529,-941 549.9856,-933.6918 573.1178,-924.2458 591.062,-916.6001"/>
<polygon fill="#191970" stroke="#191970" points="592.6468,-919.7285 600.4508,-912.5627 589.8815,-913.2979 592.6468,-919.7285"/>
</g>
<!-- Node443574&#45;&gt;Node443113 -->
<g id="edge54" class="edge">
<title>Node443574&#45;&gt;Node443113</title>
<path fill="none" stroke="#191970" d="M353.264,-1183.9973C396.6891,-1179.5704 467.831,-1171.9993 529,-1164 543.3306,-1162.1259 558.8696,-1159.8741 573.0681,-1157.7298"/>
<polygon fill="#191970" stroke="#191970" points="573.7756,-1161.1624 583.1334,-1156.1943 572.7199,-1154.2425 573.7756,-1161.1624"/>
</g>
<!-- Node443575&#45;&gt;Node443113 -->
<g id="edge57" class="edge">
<title>Node443575&#45;&gt;Node443113</title>
<path fill="none" stroke="#191970" d="M362.3036,-1150C420.0495,-1150 515.1334,-1150 572.8241,-1150"/>
<polygon fill="#191970" stroke="#191970" points="573.1437,-1153.5001 583.1436,-1150 573.1436,-1146.5001 573.1437,-1153.5001"/>
</g>
</g>
</svg>
