<?xml version="1.0" encoding="UTF-8" standalone="no"?>
<!DOCTYPE svg PUBLIC "-//W3C//DTD SVG 1.1//EN"
 "http://www.w3.org/Graphics/SVG/1.1/DTD/svg11.dtd">
<!-- Generated by graphviz version 2.40.1 (20161225.0304)
 -->
<!-- Title: js_async_generator_resolve_function_create Pages: 1 -->
<!--zoomable 286 -->
<svg id="main" version="1.1" xmlns="http://www.w3.org/2000/svg" xmlns:xlink="http://www.w3.org/1999/xlink" xml:space="preserve" onload="init(evt)">
<style type="text/css"><![CDATA[
.edge:hover path { stroke: red; }
.edge:hover polygon { stroke: red; fill: red; }
]]></style>
<script type="text/javascript"><![CDATA[
var edges = document.getElementsByTagName('g');
if (edges && edges.length) {
  for (var i=0;i<edges.length;i++) {
    if (edges[i].id.substr(0,4)=='edge') {
      edges[i].setAttribute('class','edge');
    }
  }
}
]]></script>
        <defs>
                <circle id="rim" cx="0" cy="0" r="7"/>
                <circle id="rim2" cx="0" cy="0" r="3.5"/>
                <g id="zoomPlus">
                        <use xlink:href="#rim" fill="#404040">
                                <set attributeName="fill" to="#808080" begin="zoomplus.mouseover" end="zoomplus.mouseout"/>
                        </use>
                        <path d="M-4,0h8M0,-4v8" fill="none" stroke="white" stroke-width="1.5" pointer-events="none"/>
                </g>
                <g id="zoomMin">
                        <use xlink:href="#rim" fill="#404040">
                                <set attributeName="fill" to="#808080" begin="zoomminus.mouseover" end="zoomminus.mouseout"/>
                        </use>
                        <path d="M-4,0h8" fill="none" stroke="white" stroke-width="1.5" pointer-events="none"/>
                </g>
                <g id="dirArrow">
                        <path fill="none" stroke="white" stroke-width="1.5" d="M0,-3.0v7 M-2.5,-0.5L0,-3.0L2.5,-0.5"/>
                </g>
               <g id="resetDef">
                       <use xlink:href="#rim2" fill="#404040">
                               <set attributeName="fill" to="#808080" begin="reset.mouseover" end="reset.mouseout"/>
                       </use>
               </g>
        </defs>

<script type="text/javascript">
var viewWidth = 768;
var viewHeight = 286;
var sectionId = 'dynsection-883';
</script>
<script xlink:href="svgpan.js"/>
<svg id="graph" class="graph">
<g id="viewport">
<title>js_async_generator_resolve_function_create</title>
<!-- Node306500 -->
<g id="node1" class="node">
<title>Node306500</title>
<polygon fill="#bfbfbf" stroke="#000000" points="0,-147 0,-177 139,-177 139,-147 0,-147"/>
<text text-anchor="start" x="8" y="-165" font-family="Helvetica,sans-Serif" font-size="10.00" fill="#000000">js_async_generator</text>
<text text-anchor="middle" x="69.5" y="-154" font-family="Helvetica,sans-Serif" font-size="10.00" fill="#000000">_resolve_function_create</text>
</g>
<!-- Node306501 -->
<g id="node2" class="node">
<title>Node306501</title>
<g id="a_node2"><a xlink:href="quickjs_8c.html#aa24b27761647485ad206339ca8e707ee" target="_top" xlink:title="js_async_generator\l_resolve_function">
<polygon fill="none" stroke="#000000" points="181,-185 181,-215 292,-215 292,-185 181,-185"/>
<text text-anchor="start" x="189" y="-203" font-family="Helvetica,sans-Serif" font-size="10.00" fill="#000000">js_async_generator</text>
<text text-anchor="middle" x="236.5" y="-192" font-family="Helvetica,sans-Serif" font-size="10.00" fill="#000000">_resolve_function</text>
</a>
</g>
</g>
<!-- Node306500&#45;&gt;Node306501 -->
<g id="edge1" class="edge">
<title>Node306500&#45;&gt;Node306501</title>
<path fill="none" stroke="#191970" d="M135.5028,-177.0186C147.1378,-179.6661 159.2473,-182.4215 170.8719,-185.0667"/>
<polygon fill="#191970" stroke="#191970" points="170.4112,-188.5512 180.9386,-187.3573 171.9644,-181.7257 170.4112,-188.5512"/>
</g>
<!-- Node306504 -->
<g id="node5" class="node">
<title>Node306504</title>
<g id="a_node5"><a xlink:href="quickjs_8h.html#afaa20c47565bc704c6c85f3d77254e7d" target="_top" xlink:title="JS_FreeValue">
<polygon fill="none" stroke="#ff0000" points="682,-180.5 682,-199.5 760,-199.5 760,-180.5 682,-180.5"/>
<text text-anchor="middle" x="721" y="-187.5" font-family="Helvetica,sans-Serif" font-size="10.00" fill="#000000">JS_FreeValue</text>
</a>
</g>
</g>
<!-- Node306500&#45;&gt;Node306504 -->
<g id="edge5" class="edge">
<title>Node306500&#45;&gt;Node306504</title>
<path fill="none" stroke="#191970" d="M88.3747,-177.1058C108.5104,-192.2575 141.9896,-214.7681 175,-225 375.0247,-286.9994 445.0141,-296.809 646,-238 667.1336,-231.8163 687.9681,-217.654 702.2939,-206.3061"/>
<polygon fill="#191970" stroke="#191970" points="704.8216,-208.7587 710.3172,-199.7005 700.3724,-203.3545 704.8216,-208.7587"/>
</g>
<!-- Node306542 -->
<g id="node6" class="node">
<title>Node306542</title>
<g id="a_node6"><a xlink:href="quickjs_8h.html#ad80a83d73e9b7d872b88fbf2943aebe9" target="_top" xlink:title="JS_IsException">
<polygon fill="none" stroke="#000000" points="363,-.5 363,-19.5 450,-19.5 450,-.5 363,-.5"/>
<text text-anchor="middle" x="406.5" y="-7.5" font-family="Helvetica,sans-Serif" font-size="10.00" fill="#000000">JS_IsException</text>
</a>
</g>
</g>
<!-- Node306500&#45;&gt;Node306542 -->
<g id="edge6" class="edge">
<title>Node306500&#45;&gt;Node306542</title>
<path fill="none" stroke="#191970" d="M94.5286,-146.9488C140.4863,-119.8804 242.0587,-62.6752 334,-29 340.72,-26.5387 347.8989,-24.258 355.0294,-22.1939"/>
<polygon fill="#191970" stroke="#191970" points="355.9753,-25.5637 364.6751,-19.5168 354.1033,-18.8187 355.9753,-25.5637"/>
</g>
<!-- Node306543 -->
<g id="node7" class="node">
<title>Node306543</title>
<g id="a_node7"><a xlink:href="quickjs_8c.html#ac048b0ff95f3f0cb7c189e87f74df753" target="_top" xlink:title="JS_NewCFunctionData">
<polygon fill="none" stroke="#000000" points="175,-114.5 175,-133.5 298,-133.5 298,-114.5 175,-114.5"/>
<text text-anchor="middle" x="236.5" y="-121.5" font-family="Helvetica,sans-Serif" font-size="10.00" fill="#000000">JS_NewCFunctionData</text>
</a>
</g>
</g>
<!-- Node306500&#45;&gt;Node306543 -->
<g id="edge7" class="edge">
<title>Node306500&#45;&gt;Node306543</title>
<path fill="none" stroke="#191970" d="M135.5028,-146.9814C151.8067,-143.2715 169.0424,-139.3496 184.5701,-135.8164"/>
<polygon fill="#191970" stroke="#191970" points="185.5262,-139.1884 194.5003,-133.5568 183.973,-132.3629 185.5262,-139.1884"/>
</g>
<!-- Node306502 -->
<g id="node3" class="node">
<title>Node306502</title>
<g id="a_node3"><a xlink:href="quickjs_8h.html#a775522f2d084fc8fa0fcb33f390006b4" target="_top" xlink:title="JS_DupValue">
<polygon fill="none" stroke="#000000" points="368,-190.5 368,-209.5 445,-209.5 445,-190.5 368,-190.5"/>
<text text-anchor="middle" x="406.5" y="-197.5" font-family="Helvetica,sans-Serif" font-size="10.00" fill="#000000">JS_DupValue</text>
</a>
</g>
</g>
<!-- Node306501&#45;&gt;Node306502 -->
<g id="edge2" class="edge">
<title>Node306501&#45;&gt;Node306502</title>
<path fill="none" stroke="#191970" d="M292.1644,-200C313.3711,-200 337.3546,-200 357.8595,-200"/>
<polygon fill="#191970" stroke="#191970" points="357.9244,-203.5001 367.9244,-200 357.9243,-196.5001 357.9244,-203.5001"/>
</g>
<!-- Node306503 -->
<g id="node4" class="node">
<title>Node306503</title>
<g id="a_node4"><a xlink:href="quickjs_8c.html#a3ae8a83da71ef07d6e858d172d9c5a81" target="_top" xlink:title="JS_Throw">
<polygon fill="none" stroke="#000000" points="550,-209.5 550,-228.5 611,-228.5 611,-209.5 550,-209.5"/>
<text text-anchor="middle" x="580.5" y="-216.5" font-family="Helvetica,sans-Serif" font-size="10.00" fill="#000000">JS_Throw</text>
</a>
</g>
</g>
<!-- Node306501&#45;&gt;Node306503 -->
<g id="edge3" class="edge">
<title>Node306501&#45;&gt;Node306503</title>
<path fill="none" stroke="#191970" d="M292.1708,-212.7625C305.7796,-215.3512 320.3533,-217.6827 334,-219 406.0287,-225.9528 490.449,-223.7207 539.4661,-221.4039"/>
<polygon fill="#191970" stroke="#191970" points="539.8518,-224.8891 549.6654,-220.8961 539.5037,-217.8978 539.8518,-224.8891"/>
</g>
<!-- Node306503&#45;&gt;Node306504 -->
<g id="edge4" class="edge">
<title>Node306503&#45;&gt;Node306504</title>
<path fill="none" stroke="#191970" d="M611.3333,-212.6358C629.0929,-208.9702 651.8216,-204.2788 671.9774,-200.1186"/>
<polygon fill="#191970" stroke="#191970" points="672.8505,-203.5122 681.9366,-198.0629 671.4355,-196.6567 672.8505,-203.5122"/>
</g>
<!-- Node306543&#45;&gt;Node306502 -->
<g id="edge8" class="edge">
<title>Node306543&#45;&gt;Node306502</title>
<path fill="none" stroke="#191970" d="M252.3029,-133.5108C271.2538,-144.6591 304.1995,-163.2309 334,-176 343.5058,-180.0731 353.9495,-183.8922 363.8771,-187.2339"/>
<polygon fill="#191970" stroke="#191970" points="362.9862,-190.6249 373.5788,-190.4082 365.163,-183.972 362.9862,-190.6249"/>
</g>
<!-- Node306543&#45;&gt;Node306504 -->
<g id="edge9" class="edge">
<title>Node306543&#45;&gt;Node306504</title>
<path fill="none" stroke="#191970" d="M282.0145,-133.5701C298.3621,-136.8217 316.9657,-140.3094 334,-143 454.7469,-162.0722 597.7524,-177.6278 671.5026,-185.1353"/>
<polygon fill="#191970" stroke="#191970" points="671.5689,-188.6598 681.8704,-186.184 672.2734,-181.6953 671.5689,-188.6598"/>
</g>
<!-- Node306543&#45;&gt;Node306542 -->
<g id="edge15" class="edge">
<title>Node306543&#45;&gt;Node306542</title>
<path fill="none" stroke="#191970" d="M246.2848,-114.2003C269.955,-90.5304 328.7532,-31.9649 334,-29 339.9367,-25.6452 346.481,-22.8677 353.1354,-20.5717"/>
<polygon fill="#191970" stroke="#191970" points="354.3915,-23.8467 362.9057,-17.5413 352.3177,-17.1609 354.3915,-23.8467"/>
</g>
<!-- Node306544 -->
<g id="node8" class="node">
<title>Node306544</title>
<g id="a_node8"><a xlink:href="quickjs_8c.html#a5d963b1e3acf275363fedd4bfdd8a57f" target="_top" xlink:title="js_function_set_properties">
<polygon fill="none" stroke="#000000" points="334,-114.5 334,-133.5 479,-133.5 479,-114.5 334,-114.5"/>
<text text-anchor="middle" x="406.5" y="-121.5" font-family="Helvetica,sans-Serif" font-size="10.00" fill="#000000">js_function_set_properties</text>
</a>
</g>
</g>
<!-- Node306543&#45;&gt;Node306544 -->
<g id="edge10" class="edge">
<title>Node306543&#45;&gt;Node306544</title>
<path fill="none" stroke="#191970" d="M298.3548,-124C306.5215,-124 314.9968,-124 323.4464,-124"/>
<polygon fill="#191970" stroke="#191970" points="323.7179,-127.5001 333.7179,-124 323.7179,-120.5001 323.7179,-127.5001"/>
</g>
<!-- Node306729 -->
<g id="node12" class="node">
<title>Node306729</title>
<g id="a_node12"><a xlink:href="quickjs_8c.html#a73738c650f11459db0d7af3dcdf8316b" target="_top" xlink:title="JS_NewObjectProtoClass">
<polygon fill="none" stroke="#ff0000" points="338.5,-76.5 338.5,-95.5 474.5,-95.5 474.5,-76.5 338.5,-76.5"/>
<text text-anchor="middle" x="406.5" y="-83.5" font-family="Helvetica,sans-Serif" font-size="10.00" fill="#000000">JS_NewObjectProtoClass</text>
</a>
</g>
</g>
<!-- Node306543&#45;&gt;Node306729 -->
<g id="edge16" class="edge">
<title>Node306543&#45;&gt;Node306729</title>
<path fill="none" stroke="#191970" d="M279.3982,-114.411C302.0336,-109.3513 329.9982,-103.1004 353.9287,-97.7512"/>
<polygon fill="#191970" stroke="#191970" points="354.9147,-101.1173 363.9103,-95.5201 353.3876,-94.2859 354.9147,-101.1173"/>
</g>
<!-- Node306736 -->
<g id="node13" class="node">
<title>Node306736</title>
<g id="a_node13"><a xlink:href="quickjs_8c.html#a0ddf716409e51648f0d59e7521150d19" target="_top" xlink:title="JS_SetOpaque">
<polygon fill="none" stroke="#000000" points="364.5,-38.5 364.5,-57.5 448.5,-57.5 448.5,-38.5 364.5,-38.5"/>
<text text-anchor="middle" x="406.5" y="-45.5" font-family="Helvetica,sans-Serif" font-size="10.00" fill="#000000">JS_SetOpaque</text>
</a>
</g>
</g>
<!-- Node306543&#45;&gt;Node306736 -->
<g id="edge17" class="edge">
<title>Node306543&#45;&gt;Node306736</title>
<path fill="none" stroke="#191970" d="M250.0849,-114.4353C268.377,-101.945 302.2984,-80.1301 334,-67 340.6119,-64.2615 347.7291,-61.8227 354.8294,-59.6813"/>
<polygon fill="#191970" stroke="#191970" points="355.7907,-63.0468 364.4521,-56.9452 353.8761,-56.3137 355.7907,-63.0468"/>
</g>
<!-- Node306545 -->
<g id="node9" class="node">
<title>Node306545</title>
<g id="a_node9"><a xlink:href="quickjs_8c.html#a260bfa297ff6cb5bd18e229afaa54663" target="_top" xlink:title="JS_AtomToString">
<polygon fill="none" stroke="#ff0000" points="532.5,-76.5 532.5,-95.5 628.5,-95.5 628.5,-76.5 532.5,-76.5"/>
<text text-anchor="middle" x="580.5" y="-83.5" font-family="Helvetica,sans-Serif" font-size="10.00" fill="#000000">JS_AtomToString</text>
</a>
</g>
</g>
<!-- Node306544&#45;&gt;Node306545 -->
<g id="edge11" class="edge">
<title>Node306544&#45;&gt;Node306545</title>
<path fill="none" stroke="#191970" d="M450.4075,-114.411C473.679,-109.3287 502.4538,-103.0446 527.0195,-97.6797"/>
<polygon fill="#191970" stroke="#191970" points="527.8852,-101.0732 536.9082,-95.5201 526.3917,-94.2343 527.8852,-101.0732"/>
</g>
<!-- Node306570 -->
<g id="node10" class="node">
<title>Node306570</title>
<g id="a_node10"><a xlink:href="quickjs_8c.html#a0a8765bd4012467d9139bc24aabcb3ca" target="_top" xlink:title="JS_DefinePropertyValue">
<polygon fill="none" stroke="#ff0000" points="515,-114.5 515,-133.5 646,-133.5 646,-114.5 515,-114.5"/>
<text text-anchor="middle" x="580.5" y="-121.5" font-family="Helvetica,sans-Serif" font-size="10.00" fill="#000000">JS_DefinePropertyValue</text>
</a>
</g>
</g>
<!-- Node306544&#45;&gt;Node306570 -->
<g id="edge12" class="edge">
<title>Node306544&#45;&gt;Node306570</title>
<path fill="none" stroke="#191970" d="M479.0317,-124C487.4511,-124 496.0565,-124 504.5204,-124"/>
<polygon fill="#191970" stroke="#191970" points="504.7525,-127.5001 514.7525,-124 504.7524,-120.5001 504.7525,-127.5001"/>
</g>
<!-- Node306630 -->
<g id="node11" class="node">
<title>Node306630</title>
<g id="a_node11"><a xlink:href="quickjs_8h.html#a2050bc428da1c65ac7eb87c3fa3b0392" target="_top" xlink:title="JS_NewInt32">
<polygon fill="none" stroke="#000000" points="542,-38.5 542,-57.5 619,-57.5 619,-38.5 542,-38.5"/>
<text text-anchor="middle" x="580.5" y="-45.5" font-family="Helvetica,sans-Serif" font-size="10.00" fill="#000000">JS_NewInt32</text>
</a>
</g>
</g>
<!-- Node306544&#45;&gt;Node306630 -->
<g id="edge14" class="edge">
<title>Node306544&#45;&gt;Node306630</title>
<path fill="none" stroke="#191970" d="M457.8662,-114.3816C465.2319,-111.9208 472.5052,-108.8436 479,-105 499.0212,-93.1516 495.1346,-79.1079 515,-67 520.1816,-63.8419 525.9136,-61.1867 531.768,-58.9598"/>
<polygon fill="#191970" stroke="#191970" points="533.3156,-62.1307 541.6606,-55.603 531.0662,-55.5019 533.3156,-62.1307"/>
</g>
<!-- Node306570&#45;&gt;Node306504 -->
<g id="edge13" class="edge">
<title>Node306570&#45;&gt;Node306504</title>
<path fill="none" stroke="#191970" d="M609.5964,-133.5411C621.1011,-137.6022 634.3357,-142.6385 646,-148 663.4633,-156.0271 682.3375,-166.6075 696.7832,-175.1405"/>
<polygon fill="#191970" stroke="#191970" points="695.1995,-178.2716 705.5773,-180.4049 698.7949,-172.2655 695.1995,-178.2716"/>
</g>
</g>
</svg>
        <g id="navigator" transform="translate(0 0)" fill="#404254">
                <rect fill="#f2f5e9" fill-opacity="0.5" stroke="#606060" stroke-width=".5" x="0" y="0" width="60" height="60"/>
                <use id="zoomplus" xlink:href="#zoomPlus" x="17" y="9" onmousedown="handleZoom(evt,'in')"/>
                <use id="zoomminus" xlink:href="#zoomMin" x="42" y="9" onmousedown="handleZoom(evt,'out')"/>
                <use id="reset" xlink:href="#resetDef" x="30" y="36" onmousedown="handleReset()"/>
                <g id="arrowUp" xlink:href="#dirArrow" transform="translate(30 24)" onmousedown="handlePan(0,-1)">
                  <use xlink:href="#rim" fill="#404040">
                        <set attributeName="fill" to="#808080" begin="arrowUp.mouseover" end="arrowUp.mouseout"/>
                  </use>
                  <path fill="none" stroke="white" stroke-width="1.5" d="M0,-3.0v7 M-2.5,-0.5L0,-3.0L2.5,-0.5"/>
                </g>
                <g id="arrowRight" xlink:href="#dirArrow" transform="rotate(90) translate(36 -43)" onmousedown="handlePan(1,0)">
                  <use xlink:href="#rim" fill="#404040">
                        <set attributeName="fill" to="#808080" begin="arrowRight.mouseover" end="arrowRight.mouseout"/>
                  </use>
                  <path fill="none" stroke="white" stroke-width="1.5" d="M0,-3.0v7 M-2.5,-0.5L0,-3.0L2.5,-0.5"/>
                </g>
                <g id="arrowDown" xlink:href="#dirArrow" transform="rotate(180) translate(-30 -48)" onmousedown="handlePan(0,1)">
                  <use xlink:href="#rim" fill="#404040">
                        <set attributeName="fill" to="#808080" begin="arrowDown.mouseover" end="arrowDown.mouseout"/>
                  </use>
                  <path fill="none" stroke="white" stroke-width="1.5" d="M0,-3.0v7 M-2.5,-0.5L0,-3.0L2.5,-0.5"/>
                </g>
                <g id="arrowLeft" xlink:href="#dirArrow" transform="rotate(270) translate(-36 17)" onmousedown="handlePan(-1,0)">
                  <use xlink:href="#rim" fill="#404040">
                        <set attributeName="fill" to="#808080" begin="arrowLeft.mouseover" end="arrowLeft.mouseout"/>
                  </use>
                  <path fill="none" stroke="white" stroke-width="1.5" d="M0,-3.0v7 M-2.5,-0.5L0,-3.0L2.5,-0.5"/>
                </g>
        </g>
        <svg viewBox="0 0 15 15" width="100%" height="30px" preserveAspectRatio="xMaxYMin meet">
         <g id="arrow_out" transform="scale(0.3 0.3)">
          <a xlink:href="quickjs_8c_aa4b0672b30fbf661af60cf49cfadbe8f_cgraph_org.svg" target="_base">
           <rect id="button" ry="5" rx="5" y="6" x="6" height="38" width="38"
                fill="#f2f5e9" fill-opacity="0.5" stroke="#606060" stroke-width="1.0"/>
           <path id="arrow"
             d="M 11.500037,31.436501 C 11.940474,20.09759 22.043105,11.32322 32.158766,21.979434 L 37.068811,17.246167 C 37.068811,17.246167 37.088388,32 37.088388,32 L 22.160133,31.978069 C 22.160133,31.978069 26.997745,27.140456 26.997745,27.140456 C 18.528582,18.264221 13.291696,25.230495 11.500037,31.436501 z"
             style="fill:#404040;"/>
          </a>
         </g>
        </svg>
</svg>
