<?xml version="1.0" encoding="UTF-8" standalone="no"?>
<!DOCTYPE svg PUBLIC "-//W3C//DTD SVG 1.1//EN"
 "http://www.w3.org/Graphics/SVG/1.1/DTD/svg11.dtd">
<!-- Generated by graphviz version 2.40.1 (20161225.0304)
 -->
<!-- Title: JS_ExecutePendingJob Pages: 1 -->
<svg width="615pt" height="180pt"
 viewBox="0.00 0.00 615.00 180.00" xmlns="http://www.w3.org/2000/svg" xmlns:xlink="http://www.w3.org/1999/xlink">
<g id="graph0" class="graph" transform="scale(1 1) rotate(0) translate(4 176)">
<title>JS_ExecutePendingJob</title>
<!-- Node63938 -->
<g id="node1" class="node">
<title>Node63938</title>
<polygon fill="#bfbfbf" stroke="#000000" points="0,-76.5 0,-95.5 124,-95.5 124,-76.5 0,-76.5"/>
<text text-anchor="middle" x="62" y="-83.5" font-family="Helvetica,sans-Serif" font-size="10.00" fill="#000000">JS_ExecutePendingJob</text>
</g>
<!-- Node63939 -->
<g id="node2" class="node">
<title>Node63939</title>
<g id="a_node2"><a xlink:href="quickjs_8c.html#a80e54dcf9ac687d4ccc2f90273565f30" target="_top" xlink:title="js_free">
<polygon fill="none" stroke="#000000" points="302.5,-152.5 302.5,-171.5 352.5,-171.5 352.5,-152.5 302.5,-152.5"/>
<text text-anchor="middle" x="327.5" y="-159.5" font-family="Helvetica,sans-Serif" font-size="10.00" fill="#000000">js_free</text>
</a>
</g>
</g>
<!-- Node63938&#45;&gt;Node63939 -->
<g id="edge1" class="edge">
<title>Node63938&#45;&gt;Node63939</title>
<path fill="none" stroke="#191970" d="M74.487,-95.582C92.3546,-108.7295 126.7424,-131.9833 160,-143 204.0602,-157.5951 257.8138,-161.3986 292.3408,-162.1801"/>
<polygon fill="#191970" stroke="#191970" points="292.3543,-165.6806 302.4067,-162.3342 292.4615,-158.6814 292.3543,-165.6806"/>
</g>
<!-- Node63941 -->
<g id="node4" class="node">
<title>Node63941</title>
<g id="a_node4"><a xlink:href="quickjs_8h.html#afaa20c47565bc704c6c85f3d77254e7d" target="_top" xlink:title="JS_FreeValue">
<polygon fill="none" stroke="#000000" points="164.5,-114.5 164.5,-133.5 242.5,-133.5 242.5,-114.5 164.5,-114.5"/>
<text text-anchor="middle" x="203.5" y="-121.5" font-family="Helvetica,sans-Serif" font-size="10.00" fill="#000000">JS_FreeValue</text>
</a>
</g>
</g>
<!-- Node63938&#45;&gt;Node63941 -->
<g id="edge3" class="edge">
<title>Node63938&#45;&gt;Node63941</title>
<path fill="none" stroke="#191970" d="M97.7064,-95.589C115.9727,-100.4944 138.4084,-106.5196 157.9112,-111.7571"/>
<polygon fill="#191970" stroke="#191970" points="157.2394,-115.2006 167.805,-114.4141 159.055,-108.4401 157.2394,-115.2006"/>
</g>
<!-- Node63977 -->
<g id="node7" class="node">
<title>Node63977</title>
<g id="a_node7"><a xlink:href="quickjs_8h.html#ad80a83d73e9b7d872b88fbf2943aebe9" target="_top" xlink:title="JS_IsException">
<polygon fill="none" stroke="#000000" points="160,-76.5 160,-95.5 247,-95.5 247,-76.5 160,-76.5"/>
<text text-anchor="middle" x="203.5" y="-83.5" font-family="Helvetica,sans-Serif" font-size="10.00" fill="#000000">JS_IsException</text>
</a>
</g>
</g>
<!-- Node63938&#45;&gt;Node63977 -->
<g id="edge7" class="edge">
<title>Node63938&#45;&gt;Node63977</title>
<path fill="none" stroke="#191970" d="M124.064,-86C132.6162,-86 141.3404,-86 149.7264,-86"/>
<polygon fill="#191970" stroke="#191970" points="149.7535,-89.5001 159.7534,-86 149.7534,-82.5001 149.7535,-89.5001"/>
</g>
<!-- Node63953 -->
<g id="node8" class="node">
<title>Node63953</title>
<g id="a_node8"><a xlink:href="list_8h.html#ab60d5d18869ebeb5d6ab694289576fa7" target="_top" xlink:title="list_del">
<polygon fill="none" stroke="#000000" points="177.5,-38.5 177.5,-57.5 229.5,-57.5 229.5,-38.5 177.5,-38.5"/>
<text text-anchor="middle" x="203.5" y="-45.5" font-family="Helvetica,sans-Serif" font-size="10.00" fill="#000000">list_del</text>
</a>
</g>
</g>
<!-- Node63938&#45;&gt;Node63953 -->
<g id="edge8" class="edge">
<title>Node63938&#45;&gt;Node63953</title>
<path fill="none" stroke="#191970" d="M97.7064,-76.411C119.0512,-70.6788 146.0892,-63.4177 167.488,-57.6711"/>
<polygon fill="#191970" stroke="#191970" points="168.4355,-61.0407 177.1855,-55.0668 166.6199,-54.2802 168.4355,-61.0407"/>
</g>
<!-- Node63978 -->
<g id="node9" class="node">
<title>Node63978</title>
<g id="a_node9"><a xlink:href="list_8h.html#acc8877b883e77ef12325dd5bfa4be0d3" target="_top" xlink:title="list_empty">
<polygon fill="none" stroke="#000000" points="169.5,-.5 169.5,-19.5 237.5,-19.5 237.5,-.5 169.5,-.5"/>
<text text-anchor="middle" x="203.5" y="-7.5" font-family="Helvetica,sans-Serif" font-size="10.00" fill="#000000">list_empty</text>
</a>
</g>
</g>
<!-- Node63938&#45;&gt;Node63978 -->
<g id="edge9" class="edge">
<title>Node63938&#45;&gt;Node63978</title>
<path fill="none" stroke="#191970" d="M77.3094,-76.3555C96.3402,-64.5407 129.9819,-44.222 160,-29 163.5372,-27.2063 167.2818,-25.4155 171.0308,-23.69"/>
<polygon fill="#191970" stroke="#191970" points="172.5431,-26.8478 180.2432,-19.5706 169.6856,-20.4576 172.5431,-26.8478"/>
</g>
<!-- Node63940 -->
<g id="node3" class="node">
<title>Node63940</title>
<g id="a_node3"><a xlink:href="quickjs_8c.html#a69e19dda8a93d613203e0baa06f0ed8d" target="_top" xlink:title="js_free_rt">
<polygon fill="none" stroke="#000000" points="545,-133.5 545,-152.5 607,-152.5 607,-133.5 545,-133.5"/>
<text text-anchor="middle" x="576" y="-140.5" font-family="Helvetica,sans-Serif" font-size="10.00" fill="#000000">js_free_rt</text>
</a>
</g>
</g>
<!-- Node63939&#45;&gt;Node63940 -->
<g id="edge2" class="edge">
<title>Node63939&#45;&gt;Node63940</title>
<path fill="none" stroke="#191970" d="M352.695,-160.0736C395.5224,-156.7991 482.9052,-150.1179 534.753,-146.1537"/>
<polygon fill="#191970" stroke="#191970" points="535.2327,-149.6273 544.9368,-145.3751 534.699,-142.6477 535.2327,-149.6273"/>
</g>
<!-- Node63942 -->
<g id="node5" class="node">
<title>Node63942</title>
<g id="a_node5"><a xlink:href="quickjs_8c.html#aa059f309c30fd5166d16c82a97973146" target="_top" xlink:title="__JS_FreeValue">
<polygon fill="none" stroke="#000000" points="283,-114.5 283,-133.5 372,-133.5 372,-114.5 283,-114.5"/>
<text text-anchor="middle" x="327.5" y="-121.5" font-family="Helvetica,sans-Serif" font-size="10.00" fill="#000000">__JS_FreeValue</text>
</a>
</g>
</g>
<!-- Node63941&#45;&gt;Node63942 -->
<g id="edge4" class="edge">
<title>Node63941&#45;&gt;Node63942</title>
<path fill="none" stroke="#191970" d="M242.7344,-124C252.3131,-124 262.7337,-124 272.8862,-124"/>
<polygon fill="#191970" stroke="#191970" points="272.9084,-127.5001 282.9083,-124 272.9083,-120.5001 272.9084,-127.5001"/>
</g>
<!-- Node63943 -->
<g id="node6" class="node">
<title>Node63943</title>
<g id="a_node6"><a xlink:href="quickjs_8c.html#ab1ea3fad7d138be12144a38be4d36423" target="_top" xlink:title="__JS_FreeValueRT">
<polygon fill="none" stroke="#ff0000" points="408,-114.5 408,-133.5 509,-133.5 509,-114.5 408,-114.5"/>
<text text-anchor="middle" x="458.5" y="-121.5" font-family="Helvetica,sans-Serif" font-size="10.00" fill="#000000">__JS_FreeValueRT</text>
</a>
</g>
</g>
<!-- Node63942&#45;&gt;Node63943 -->
<g id="edge5" class="edge">
<title>Node63942&#45;&gt;Node63943</title>
<path fill="none" stroke="#191970" d="M372.2164,-124C380.3314,-124 388.9213,-124 397.4118,-124"/>
<polygon fill="#191970" stroke="#191970" points="397.6806,-127.5001 407.6806,-124 397.6806,-120.5001 397.6806,-127.5001"/>
</g>
<!-- Node63943&#45;&gt;Node63940 -->
<g id="edge6" class="edge">
<title>Node63943&#45;&gt;Node63940</title>
<path fill="none" stroke="#191970" d="M509.0125,-132.168C517.6797,-133.5695 526.5909,-135.0104 534.9714,-136.3656"/>
<polygon fill="#191970" stroke="#191970" points="534.4479,-139.8263 544.8784,-137.9676 535.5653,-132.9161 534.4479,-139.8263"/>
</g>
</g>
</svg>
