<?xml version="1.0" encoding="UTF-8" standalone="no"?>
<!DOCTYPE svg PUBLIC "-//W3C//DTD SVG 1.1//EN"
 "http://www.w3.org/Graphics/SVG/1.1/DTD/svg11.dtd">
<!-- Generated by graphviz version 2.40.1 (20161225.0304)
 -->
<!-- Title: JS_NewObjectFromShape Pages: 1 -->
<svg width="629pt" height="1057pt"
 viewBox="0.00 0.00 629.00 1056.50" xmlns="http://www.w3.org/2000/svg" xmlns:xlink="http://www.w3.org/1999/xlink">
<g id="graph0" class="graph" transform="scale(1 1) rotate(0) translate(4 1052.5)">
<title>JS_NewObjectFromShape</title>
<!-- Node133015 -->
<g id="node1" class="node">
<title>Node133015</title>
<polygon fill="#bfbfbf" stroke="#000000" points="0,-493.5 0,-512.5 138,-512.5 138,-493.5 0,-493.5"/>
<text text-anchor="middle" x="69" y="-500.5" font-family="Helvetica,sans-Serif" font-size="10.00" fill="#000000">JS_NewObjectFromShape</text>
</g>
<!-- Node133016 -->
<g id="node2" class="node">
<title>Node133016</title>
<g id="a_node2"><a xlink:href="quickjs_8c.html#ad4ba09e4c7ab9f28c144182e1aacf1f6" target="_top" xlink:title="JS_NewArray">
<polygon fill="none" stroke="#ff0000" points="202.5,-512.5 202.5,-531.5 281.5,-531.5 281.5,-512.5 202.5,-512.5"/>
<text text-anchor="middle" x="242" y="-519.5" font-family="Helvetica,sans-Serif" font-size="10.00" fill="#000000">JS_NewArray</text>
</a>
</g>
</g>
<!-- Node133015&#45;&gt;Node133016 -->
<g id="edge1" class="edge">
<title>Node133015&#45;&gt;Node133016</title>
<path fill="none" stroke="#191970" d="M148.4209,-511.7225C167.1832,-513.7831 186.3926,-515.8928 202.4865,-517.6604"/>
<polygon fill="#191970" stroke="#191970" points="148.6913,-508.2313 138.3689,-510.6185 147.927,-515.1894 148.6913,-508.2313"/>
</g>
<!-- Node133631 -->
<g id="node30" class="node">
<title>Node133631</title>
<g id="a_node30"><a xlink:href="quickjs_8c.html#a73738c650f11459db0d7af3dcdf8316b" target="_top" xlink:title="JS_NewObjectProtoClass">
<polygon fill="none" stroke="#ff0000" points="174,-474.5 174,-493.5 310,-493.5 310,-474.5 174,-474.5"/>
<text text-anchor="middle" x="242" y="-481.5" font-family="Helvetica,sans-Serif" font-size="10.00" fill="#000000">JS_NewObjectProtoClass</text>
</a>
</g>
</g>
<!-- Node133015&#45;&gt;Node133631 -->
<g id="edge33" class="edge">
<title>Node133015&#45;&gt;Node133631</title>
<path fill="none" stroke="#191970" d="M148.564,-494.2618C156.9757,-493.3379 165.4754,-492.4044 173.7422,-491.4965"/>
<polygon fill="#191970" stroke="#191970" points="147.927,-490.8106 138.3689,-495.3815 148.6913,-497.7687 147.927,-490.8106"/>
</g>
<!-- Node133017 -->
<g id="node3" class="node">
<title>Node133017</title>
<g id="a_node3"><a xlink:href="structqjs_1_1js__traits_3_01std_1_1vector_3_01T_01_4_01_4.html#a0a1cc387d5c49e5cb5ae417730d32b1c" target="_top" xlink:title="qjs::js_traits\&lt; std\l::vector\&lt; T \&gt; \&gt;::wrap">
<polygon fill="none" stroke="#000000" points="360.5,-1018 360.5,-1048 483.5,-1048 483.5,-1018 360.5,-1018"/>
<text text-anchor="start" x="368.5" y="-1036" font-family="Helvetica,sans-Serif" font-size="10.00" fill="#000000">qjs::js_traits&lt; std</text>
<text text-anchor="middle" x="422" y="-1025" font-family="Helvetica,sans-Serif" font-size="10.00" fill="#000000">::vector&lt; T &gt; &gt;::wrap</text>
</a>
</g>
</g>
<!-- Node133016&#45;&gt;Node133017 -->
<g id="edge2" class="edge">
<title>Node133016&#45;&gt;Node133017</title>
<path fill="none" stroke="#191970" d="M243.5955,-541.6691C250.6312,-623.7472 281.4421,-937.9634 346,-1009 350.0946,-1013.5055 355.0268,-1017.1713 360.3877,-1020.1528"/>
<polygon fill="#191970" stroke="#191970" points="247.0812,-541.351 242.7594,-531.6777 240.1055,-541.9347 247.0812,-541.351"/>
</g>
<!-- Node133018 -->
<g id="node4" class="node">
<title>Node133018</title>
<g id="a_node4"><a xlink:href="structqjs_1_1js__traits_3_01std_1_1pair_3_01U_00_01V_01_4_01_4.html#a41dcc6c493ccb87839663368294d791a" target="_top" xlink:title="qjs::js_traits\&lt; std\l::pair\&lt; U, V \&gt; \&gt;::wrap">
<polygon fill="none" stroke="#000000" points="359.5,-969 359.5,-999 484.5,-999 484.5,-969 359.5,-969"/>
<text text-anchor="start" x="367.5" y="-987" font-family="Helvetica,sans-Serif" font-size="10.00" fill="#000000">qjs::js_traits&lt; std</text>
<text text-anchor="middle" x="422" y="-976" font-family="Helvetica,sans-Serif" font-size="10.00" fill="#000000">::pair&lt; U, V &gt; &gt;::wrap</text>
</a>
</g>
</g>
<!-- Node133016&#45;&gt;Node133018 -->
<g id="edge3" class="edge">
<title>Node133016&#45;&gt;Node133018</title>
<path fill="none" stroke="#191970" d="M244.1807,-542.0414C252.9547,-619.2052 288.0195,-895.9225 346,-959 349.8539,-963.1927 354.4228,-966.6837 359.3788,-969.5902"/>
<polygon fill="#191970" stroke="#191970" points="247.6245,-541.3419 243.0378,-531.7914 240.6676,-542.1177 247.6245,-541.3419"/>
</g>
<!-- Node133019 -->
<g id="node5" class="node">
<title>Node133019</title>
<g id="a_node5"><a xlink:href="quickjs-libc_8c.html#a9caf548a60b412734dc8a40a7ebc914e" target="_top" xlink:title="js_os_ttyGetWinSize">
<polygon fill="none" stroke="#000000" points="364,-930.5 364,-949.5 480,-949.5 480,-930.5 364,-930.5"/>
<text text-anchor="middle" x="422" y="-937.5" font-family="Helvetica,sans-Serif" font-size="10.00" fill="#000000">js_os_ttyGetWinSize</text>
</a>
</g>
</g>
<!-- Node133016&#45;&gt;Node133019 -->
<g id="edge4" class="edge">
<title>Node133016&#45;&gt;Node133019</title>
<path fill="none" stroke="#191970" d="M244.4869,-541.8139C254.015,-614.6267 290.4693,-866.0218 346,-921 351.0258,-925.9758 357.1456,-929.7141 363.7076,-932.5123"/>
<polygon fill="#191970" stroke="#191970" points="247.9357,-541.1912 243.19,-531.7187 240.9928,-542.0832 247.9357,-541.1912"/>
</g>
<!-- Node133020 -->
<g id="node6" class="node">
<title>Node133020</title>
<g id="a_node6"><a xlink:href="quickjs-libc_8c.html#a0210b73e16d177f7668621a6573576aa" target="_top" xlink:title="make_obj_error">
<polygon fill="none" stroke="#ff0000" points="375.5,-892.5 375.5,-911.5 468.5,-911.5 468.5,-892.5 375.5,-892.5"/>
<text text-anchor="middle" x="422" y="-899.5" font-family="Helvetica,sans-Serif" font-size="10.00" fill="#000000">make_obj_error</text>
</a>
</g>
</g>
<!-- Node133016&#45;&gt;Node133020 -->
<g id="edge5" class="edge">
<title>Node133016&#45;&gt;Node133020</title>
<path fill="none" stroke="#191970" d="M245.2608,-541.7142C256.7604,-609.0189 297.3622,-828.2974 346,-878 353.9356,-886.1093 364.585,-891.486 375.3956,-895.0486"/>
<polygon fill="#191970" stroke="#191970" points="248.6733,-540.9014 243.5613,-531.6214 241.7705,-542.0638 248.6733,-540.9014"/>
</g>
<!-- Node133021 -->
<g id="node7" class="node">
<title>Node133021</title>
<g id="a_node7"><a xlink:href="quickjs-libc_8c.html#a64270f007df853e9d2f443383d26ec60" target="_top" xlink:title="js_os_readdir">
<polygon fill="none" stroke="#000000" points="537,-873.5 537,-892.5 618,-892.5 618,-873.5 537,-873.5"/>
<text text-anchor="middle" x="577.5" y="-880.5" font-family="Helvetica,sans-Serif" font-size="10.00" fill="#000000">js_os_readdir</text>
</a>
</g>
</g>
<!-- Node133016&#45;&gt;Node133021 -->
<g id="edge7" class="edge">
<title>Node133016&#45;&gt;Node133021</title>
<path fill="none" stroke="#191970" d="M245.5986,-541.7801C257.5995,-605.5285 298.2056,-803.8364 346,-845 373.929,-869.0542 478.0899,-878.0902 536.7245,-881.3201"/>
<polygon fill="#191970" stroke="#191970" points="249.0156,-541.0101 243.751,-531.8159 242.1329,-542.2864 249.0156,-541.0101"/>
</g>
<!-- Node133027 -->
<g id="node8" class="node">
<title>Node133027</title>
<g id="a_node8"><a xlink:href="quickjs-libc_8c.html#aedcefc332980a5da1b0a3c512232d46f" target="_top" xlink:title="js_os_waitpid">
<polygon fill="none" stroke="#000000" points="380.5,-816.5 380.5,-835.5 463.5,-835.5 463.5,-816.5 380.5,-816.5"/>
<text text-anchor="middle" x="422" y="-823.5" font-family="Helvetica,sans-Serif" font-size="10.00" fill="#000000">js_os_waitpid</text>
</a>
</g>
</g>
<!-- Node133016&#45;&gt;Node133027 -->
<g id="edge8" class="edge">
<title>Node133016&#45;&gt;Node133027</title>
<path fill="none" stroke="#191970" d="M243.1009,-541.7661C247.0891,-593.567 265.2076,-734.2688 346,-807 355.4005,-815.4626 368.0009,-820.284 380.2357,-822.9931"/>
<polygon fill="#191970" stroke="#191970" points="246.5808,-541.3488 242.4175,-531.6063 239.5966,-541.8187 246.5808,-541.3488"/>
</g>
<!-- Node133028 -->
<g id="node9" class="node">
<title>Node133028</title>
<g id="a_node9"><a xlink:href="quickjs-libc_8c.html#a6d1c957c402e5cda23a3b00762208185" target="_top" xlink:title="js_os_pipe">
<polygon fill="none" stroke="#000000" points="388,-778.5 388,-797.5 456,-797.5 456,-778.5 388,-778.5"/>
<text text-anchor="middle" x="422" y="-785.5" font-family="Helvetica,sans-Serif" font-size="10.00" fill="#000000">js_os_pipe</text>
</a>
</g>
</g>
<!-- Node133016&#45;&gt;Node133028 -->
<g id="edge9" class="edge">
<title>Node133016&#45;&gt;Node133028</title>
<path fill="none" stroke="#191970" d="M244.3274,-541.6252C250.9617,-588.4929 274.3643,-707.598 346,-769 357.5654,-778.9132 373.558,-783.7891 387.8902,-786.1379"/>
<polygon fill="#191970" stroke="#191970" points="247.7805,-541.0386 243.0107,-531.5782 240.8399,-541.9483 247.7805,-541.0386"/>
</g>
<!-- Node133029 -->
<g id="node10" class="node">
<title>Node133029</title>
<g id="a_node10"><a xlink:href="quickjs-libc_8c.html#ad04466feec6822a3b838baf229f6dfa0" target="_top" xlink:title="js_std_add_helpers">
<polygon fill="none" stroke="#ff0000" points="367,-740.5 367,-759.5 477,-759.5 477,-740.5 367,-740.5"/>
<text text-anchor="middle" x="422" y="-747.5" font-family="Helvetica,sans-Serif" font-size="10.00" fill="#000000">js_std_add_helpers</text>
</a>
</g>
</g>
<!-- Node133016&#45;&gt;Node133029 -->
<g id="edge10" class="edge">
<title>Node133016&#45;&gt;Node133029</title>
<path fill="none" stroke="#191970" d="M245.9846,-541.6703C255.4844,-583.3337 283.4965,-680.763 346,-731 352.1485,-735.9418 359.412,-739.6197 366.9698,-742.3526"/>
<polygon fill="#191970" stroke="#191970" points="249.3621,-540.7297 243.8261,-531.6963 242.5205,-542.2103 249.3621,-540.7297"/>
</g>
<!-- Node133035 -->
<g id="node11" class="node">
<title>Node133035</title>
<g id="a_node11"><a xlink:href="quickjs_8c.html#a72f4829a5b32f5445fe3f2a59efeb8ea" target="_top" xlink:title="js_build_rest">
<polygon fill="none" stroke="#000000" points="383,-702.5 383,-721.5 461,-721.5 461,-702.5 383,-702.5"/>
<text text-anchor="middle" x="422" y="-709.5" font-family="Helvetica,sans-Serif" font-size="10.00" fill="#000000">js_build_rest</text>
</a>
</g>
</g>
<!-- Node133016&#45;&gt;Node133035 -->
<g id="edge11" class="edge">
<title>Node133016&#45;&gt;Node133035</title>
<path fill="none" stroke="#191970" d="M248.8999,-541.3118C262.2261,-575.8719 294.7885,-648.3777 346,-688 356.6153,-696.2131 370.0975,-701.6478 382.75,-705.2306"/>
<polygon fill="#191970" stroke="#191970" points="252.0207,-539.6631 245.2498,-531.5141 245.4611,-542.1068 252.0207,-539.6631"/>
</g>
<!-- Node133036 -->
<g id="node12" class="node">
<title>Node133036</title>
<g id="a_node12"><a xlink:href="quickjs_8c.html#ac2894ff4edcdb4e6841bcce9c76081e3" target="_top" xlink:title="JS_CallInternal">
<polygon fill="none" stroke="#ff0000" points="534,-683.5 534,-702.5 621,-702.5 621,-683.5 534,-683.5"/>
<text text-anchor="middle" x="577.5" y="-690.5" font-family="Helvetica,sans-Serif" font-size="10.00" fill="#000000">JS_CallInternal</text>
</a>
</g>
</g>
<!-- Node133016&#45;&gt;Node133036 -->
<g id="edge14" class="edge">
<title>Node133016&#45;&gt;Node133036</title>
<path fill="none" stroke="#191970" d="M250.9742,-540.987C266.0747,-570.6582 299.532,-627.4652 346,-655 377.0098,-673.3749 475.8057,-684.5064 533.8283,-689.6268"/>
<polygon fill="#191970" stroke="#191970" points="253.9661,-539.1401 246.4073,-531.7162 247.6866,-542.2335 253.9661,-539.1401"/>
</g>
<!-- Node133244 -->
<g id="node13" class="node">
<title>Node133244</title>
<g id="a_node13"><a xlink:href="quickjs_8c.html#a035daca514f14aacc1e0cff81d8e423a" target="_top" xlink:title="js_parse_template">
<polygon fill="none" stroke="#ff0000" points="368.5,-626.5 368.5,-645.5 475.5,-645.5 475.5,-626.5 368.5,-626.5"/>
<text text-anchor="middle" x="422" y="-633.5" font-family="Helvetica,sans-Serif" font-size="10.00" fill="#000000">js_parse_template</text>
</a>
</g>
</g>
<!-- Node133016&#45;&gt;Node133244 -->
<g id="edge15" class="edge">
<title>Node133016&#45;&gt;Node133244</title>
<path fill="none" stroke="#191970" d="M256.2252,-539.4919C274.6724,-560.9995 308.9069,-597.0914 346,-617 353.1901,-620.8591 361.1847,-623.9529 369.2117,-626.4283"/>
<polygon fill="#191970" stroke="#191970" points="258.8536,-537.1793 249.7438,-531.7699 253.4919,-541.6796 258.8536,-537.1793"/>
</g>
<!-- Node133078 -->
<g id="node14" class="node">
<title>Node133078</title>
<g id="a_node14"><a xlink:href="quickjs_8c.html#a18da561cb430d36d47200cd3ab394984" target="_top" xlink:title="JS_ReadArray">
<polygon fill="none" stroke="#ff0000" points="381.5,-588.5 381.5,-607.5 462.5,-607.5 462.5,-588.5 381.5,-588.5"/>
<text text-anchor="middle" x="422" y="-595.5" font-family="Helvetica,sans-Serif" font-size="10.00" fill="#000000">JS_ReadArray</text>
</a>
</g>
</g>
<!-- Node133016&#45;&gt;Node133078 -->
<g id="edge16" class="edge">
<title>Node133016&#45;&gt;Node133078</title>
<path fill="none" stroke="#191970" d="M265.2158,-536.99C285.7573,-549.6921 316.9042,-567.6085 346,-579 357.1447,-583.3634 369.6079,-586.972 381.1662,-589.8293"/>
<polygon fill="#191970" stroke="#191970" points="266.9001,-533.9148 256.5696,-531.5629 263.1787,-539.8437 266.9001,-533.9148"/>
</g>
<!-- Node133257 -->
<g id="node15" class="node">
<title>Node133257</title>
<g id="a_node15"><a xlink:href="quickjs_8c.html#a79c9d633e8f9d5fd70546406b9e6f176" target="_top" xlink:title="JS_GetOwnPropertyNames2">
<polygon fill="none" stroke="#ff0000" points="346,-550.5 346,-569.5 498,-569.5 498,-550.5 346,-550.5"/>
<text text-anchor="middle" x="422" y="-557.5" font-family="Helvetica,sans-Serif" font-size="10.00" fill="#000000">JS_GetOwnPropertyNames2</text>
</a>
</g>
</g>
<!-- Node133016&#45;&gt;Node133257 -->
<g id="edge17" class="edge">
<title>Node133016&#45;&gt;Node133257</title>
<path fill="none" stroke="#191970" d="M291.4165,-532.4324C318.1259,-538.071 350.8672,-544.9831 376.8833,-550.4754"/>
<polygon fill="#191970" stroke="#191970" points="292.0091,-528.9804 281.5018,-530.3393 290.5631,-535.8294 292.0091,-528.9804"/>
</g>
<!-- Node133062 -->
<g id="node16" class="node">
<title>Node133062</title>
<g id="a_node16"><a xlink:href="quickjs_8c.html#a9f70dbefcf33550d6f9e588c05c9ffef" target="_top" xlink:title="iterator_to_array">
<polygon fill="none" stroke="#ff0000" points="373,-512.5 373,-531.5 471,-531.5 471,-512.5 373,-512.5"/>
<text text-anchor="middle" x="422" y="-519.5" font-family="Helvetica,sans-Serif" font-size="10.00" fill="#000000">iterator_to_array</text>
</a>
</g>
</g>
<!-- Node133016&#45;&gt;Node133062 -->
<g id="edge18" class="edge">
<title>Node133016&#45;&gt;Node133062</title>
<path fill="none" stroke="#191970" d="M291.6398,-522C316.9777,-522 347.6984,-522 372.9517,-522"/>
<polygon fill="#191970" stroke="#191970" points="291.5018,-518.5001 281.5018,-522 291.5017,-525.5001 291.5018,-518.5001"/>
</g>
<!-- Node133058 -->
<g id="node17" class="node">
<title>Node133058</title>
<g id="a_node17"><a xlink:href="quickjs_8c.html#a5e32da9a43002cb96dcbd62a1a340144" target="_top" xlink:title="js_array_from">
<polygon fill="none" stroke="#000000" points="380,-474.5 380,-493.5 464,-493.5 464,-474.5 380,-474.5"/>
<text text-anchor="middle" x="422" y="-481.5" font-family="Helvetica,sans-Serif" font-size="10.00" fill="#000000">js_array_from</text>
</a>
</g>
</g>
<!-- Node133016&#45;&gt;Node133058 -->
<g id="edge19" class="edge">
<title>Node133016&#45;&gt;Node133058</title>
<path fill="none" stroke="#191970" d="M291.3905,-511.5731C319.1012,-505.7231 353.3109,-498.501 379.7669,-492.9159"/>
<polygon fill="#191970" stroke="#191970" points="290.5631,-508.1706 281.5018,-513.6607 292.0091,-515.0196 290.5631,-508.1706"/>
</g>
<!-- Node133139 -->
<g id="node18" class="node">
<title>Node133139</title>
<g id="a_node18"><a xlink:href="quickjs_8c.html#aed64f4c93145310216f62d7548856b8d" target="_top" xlink:title="js_array_of">
<polygon fill="none" stroke="#000000" points="386.5,-436.5 386.5,-455.5 457.5,-455.5 457.5,-436.5 386.5,-436.5"/>
<text text-anchor="middle" x="422" y="-443.5" font-family="Helvetica,sans-Serif" font-size="10.00" fill="#000000">js_array_of</text>
</a>
</g>
</g>
<!-- Node133016&#45;&gt;Node133139 -->
<g id="edge20" class="edge">
<title>Node133016&#45;&gt;Node133139</title>
<path fill="none" stroke="#191970" d="M291.2206,-511.7026C297.7724,-509.3519 304.2162,-506.4862 310,-503 329.9249,-490.9902 325.912,-476.7348 346,-465 358.2133,-457.8653 373.0463,-453.3919 386.3547,-450.5948"/>
<polygon fill="#191970" stroke="#191970" points="290.0586,-508.3997 281.6084,-514.7906 292.1997,-515.0642 290.0586,-508.3997"/>
</g>
<!-- Node133084 -->
<g id="node19" class="node">
<title>Node133084</title>
<g id="a_node19"><a xlink:href="quickjs_8c.html#aa0bbf08a7e91459c68a312fba7016c6d" target="_top" xlink:title="js_array_every">
<polygon fill="none" stroke="#000000" points="377.5,-398.5 377.5,-417.5 466.5,-417.5 466.5,-398.5 377.5,-398.5"/>
<text text-anchor="middle" x="422" y="-405.5" font-family="Helvetica,sans-Serif" font-size="10.00" fill="#000000">js_array_every</text>
</a>
</g>
</g>
<!-- Node133016&#45;&gt;Node133084 -->
<g id="edge21" class="edge">
<title>Node133016&#45;&gt;Node133084</title>
<path fill="none" stroke="#191970" d="M291.6659,-513.5853C298.2996,-510.9566 304.6479,-507.5121 310,-503 338.5758,-478.9093 317.0958,-450.6957 346,-427 354.835,-419.757 366.0546,-415.2216 377.1428,-412.3967"/>
<polygon fill="#191970" stroke="#191970" points="290.1955,-510.3866 281.8255,-516.8822 292.4194,-517.024 290.1955,-510.3866"/>
</g>
<!-- Node133262 -->
<g id="node20" class="node">
<title>Node133262</title>
<g id="a_node20"><a xlink:href="quickjs_8c.html#a339d687d765143d3f8ea0ea89fa47b0f" target="_top" xlink:title="js_create_array">
<polygon fill="none" stroke="#ff0000" points="376,-360.5 376,-379.5 468,-379.5 468,-360.5 376,-360.5"/>
<text text-anchor="middle" x="422" y="-367.5" font-family="Helvetica,sans-Serif" font-size="10.00" fill="#000000">js_create_array</text>
</a>
</g>
</g>
<!-- Node133016&#45;&gt;Node133262 -->
<g id="edge22" class="edge">
<title>Node133016&#45;&gt;Node133262</title>
<path fill="none" stroke="#191970" d="M291.3129,-514.6072C298.2103,-511.8493 304.7298,-508.0969 310,-503 348.1931,-466.0623 307.3029,-425.4094 346,-389 354.1224,-381.3578 364.839,-376.662 375.6545,-373.8091"/>
<polygon fill="#191970" stroke="#191970" points="290.1403,-511.3086 281.755,-517.7845 292.3485,-517.9512 290.1403,-511.3086"/>
</g>
<!-- Node133265 -->
<g id="node21" class="node">
<title>Node133265</title>
<g id="a_node21"><a xlink:href="quickjs_8c.html#a99f359a90bf2aa7902ec554d726d4fda" target="_top" xlink:title="js_string_split">
<polygon fill="none" stroke="#000000" points="380,-322.5 380,-341.5 464,-341.5 464,-322.5 380,-322.5"/>
<text text-anchor="middle" x="422" y="-329.5" font-family="Helvetica,sans-Serif" font-size="10.00" fill="#000000">js_string_split</text>
</a>
</g>
</g>
<!-- Node133016&#45;&gt;Node133265 -->
<g id="edge23" class="edge">
<title>Node133016&#45;&gt;Node133265</title>
<path fill="none" stroke="#191970" d="M291.4118,-515.0377C298.3544,-512.2285 304.8618,-508.3474 310,-503 358.1013,-452.9398 297.2153,-400.3944 346,-351 354.8881,-342.0008 367.3484,-337.0326 379.6125,-334.3542"/>
<polygon fill="#191970" stroke="#191970" points="290.1506,-511.7685 281.7627,-518.2411 292.3562,-518.412 290.1506,-511.7685"/>
</g>
<!-- Node133171 -->
<g id="node22" class="node">
<title>Node133171</title>
<g id="a_node22"><a xlink:href="quickjs_8c.html#a9eb2d90f27f684820f9de13189502b7c" target="_top" xlink:title="js_regexp_exec">
<polygon fill="none" stroke="#ff0000" points="376,-284.5 376,-303.5 468,-303.5 468,-284.5 376,-284.5"/>
<text text-anchor="middle" x="422" y="-291.5" font-family="Helvetica,sans-Serif" font-size="10.00" fill="#000000">js_regexp_exec</text>
</a>
</g>
</g>
<!-- Node133016&#45;&gt;Node133171 -->
<g id="edge24" class="edge">
<title>Node133016&#45;&gt;Node133171</title>
<path fill="none" stroke="#191970" d="M291.3901,-515.3351C298.3947,-512.4936 304.9273,-508.5245 310,-503 368.13,-439.6931 287.0055,-375.5021 346,-313 353.8418,-304.6919 364.72,-299.7904 375.7978,-296.9543"/>
<polygon fill="#191970" stroke="#191970" points="290.0389,-512.0953 281.6383,-518.5513 292.2314,-518.743 290.0389,-512.0953"/>
</g>
<!-- Node133166 -->
<g id="node23" class="node">
<title>Node133166</title>
<g id="a_node23"><a xlink:href="quickjs_8c.html#a41fc4304b39616e7be3500fe6ec881c2" target="_top" xlink:title="js_regexp_Symbol_match">
<polygon fill="none" stroke="#000000" points="351,-246.5 351,-265.5 493,-265.5 493,-246.5 351,-246.5"/>
<text text-anchor="middle" x="422" y="-253.5" font-family="Helvetica,sans-Serif" font-size="10.00" fill="#000000">js_regexp_Symbol_match</text>
</a>
</g>
</g>
<!-- Node133016&#45;&gt;Node133166 -->
<g id="edge25" class="edge">
<title>Node133016&#45;&gt;Node133166</title>
<path fill="none" stroke="#191970" d="M291.5382,-515.4691C298.5245,-512.6109 305.0125,-508.6016 310,-503 378.2195,-426.3805 276.7341,-350.6748 346,-275 349.4895,-271.1877 353.6176,-268.0885 358.1178,-265.5747"/>
<polygon fill="#191970" stroke="#191970" points="290.1897,-512.2286 281.7967,-518.6945 292.39,-518.8739 290.1897,-512.2286"/>
</g>
<!-- Node133105 -->
<g id="node24" class="node">
<title>Node133105</title>
<g id="a_node24"><a xlink:href="quickjs_8c.html#a6a77bcdb9f7f18c13c108c99a198708b" target="_top" xlink:title="js_regexp_Symbol_replace">
<polygon fill="none" stroke="#000000" points="348.5,-208.5 348.5,-227.5 495.5,-227.5 495.5,-208.5 348.5,-208.5"/>
<text text-anchor="middle" x="422" y="-215.5" font-family="Helvetica,sans-Serif" font-size="10.00" fill="#000000">js_regexp_Symbol_replace</text>
</a>
</g>
</g>
<!-- Node133016&#45;&gt;Node133105 -->
<g id="edge26" class="edge">
<title>Node133016&#45;&gt;Node133105</title>
<path fill="none" stroke="#191970" d="M291.4109,-515.6604C298.4738,-512.7847 305.0193,-508.7199 310,-503 388.3436,-413.0291 266.4274,-325.8858 346,-237 349.3565,-233.2507 353.3303,-230.1883 357.6729,-227.6925"/>
<polygon fill="#191970" stroke="#191970" points="289.9707,-512.4492 281.5574,-518.8886 292.1501,-519.1013 289.9707,-512.4492"/>
</g>
<!-- Node133145 -->
<g id="node25" class="node">
<title>Node133145</title>
<g id="a_node25"><a xlink:href="quickjs_8c.html#a79872a6d9d139e36d5d1894d16132024" target="_top" xlink:title="js_regexp_Symbol_split">
<polygon fill="none" stroke="#000000" points="356,-170.5 356,-189.5 488,-189.5 488,-170.5 356,-170.5"/>
<text text-anchor="middle" x="422" y="-177.5" font-family="Helvetica,sans-Serif" font-size="10.00" fill="#000000">js_regexp_Symbol_split</text>
</a>
</g>
</g>
<!-- Node133016&#45;&gt;Node133145 -->
<g id="edge27" class="edge">
<title>Node133016&#45;&gt;Node133145</title>
<path fill="none" stroke="#191970" d="M291.4934,-515.7316C298.5463,-512.8473 305.0671,-508.7611 310,-503 398.4894,-399.6529 256.0987,-301.1214 346,-199 349.3251,-195.2229 353.2767,-192.1407 357.6041,-189.6315"/>
<polygon fill="#191970" stroke="#191970" points="290.0547,-512.5201 281.645,-518.9643 292.2379,-519.1709 290.0547,-512.5201"/>
</g>
<!-- Node133250 -->
<g id="node26" class="node">
<title>Node133250</title>
<g id="a_node26"><a xlink:href="quickjs_8c.html#a756c1ab5dee9a6dd07723d7a075e2a53" target="_top" xlink:title="json_parse_value">
<polygon fill="none" stroke="#ff0000" points="371.5,-114.5 371.5,-133.5 472.5,-133.5 472.5,-114.5 371.5,-114.5"/>
<text text-anchor="middle" x="422" y="-121.5" font-family="Helvetica,sans-Serif" font-size="10.00" fill="#000000">json_parse_value</text>
</a>
</g>
</g>
<!-- Node133016&#45;&gt;Node133250 -->
<g id="edge28" class="edge">
<title>Node133016&#45;&gt;Node133250</title>
<path fill="none" stroke="#191970" d="M291.5581,-515.7867C298.6032,-512.8957 305.1046,-508.7931 310,-503 408.6496,-386.2599 258.2798,-286.1606 346,-161 355.1805,-147.9011 370.3213,-139.249 384.6824,-133.6317"/>
<polygon fill="#191970" stroke="#191970" points="290.1207,-512.5749 281.7139,-519.0229 292.3068,-519.2248 290.1207,-512.5749"/>
</g>
<!-- Node133117 -->
<g id="node27" class="node">
<title>Node133117</title>
<g id="a_node27"><a xlink:href="quickjs_8c.html#a343a343b16bc3c9875050e99ee0d2884" target="_top" xlink:title="JS_JSONStringify">
<polygon fill="none" stroke="#ff0000" points="374,-76.5 374,-95.5 470,-95.5 470,-76.5 374,-76.5"/>
<text text-anchor="middle" x="422" y="-83.5" font-family="Helvetica,sans-Serif" font-size="10.00" fill="#000000">JS_JSONStringify</text>
</a>
</g>
</g>
<!-- Node133016&#45;&gt;Node133117 -->
<g id="edge30" class="edge">
<title>Node133016&#45;&gt;Node133117</title>
<path fill="none" stroke="#191970" d="M291.6317,-515.8484C298.6679,-512.95 305.1473,-508.8288 310,-503 366.82,-434.7511 288.2475,-172.4617 346,-105 353.0758,-96.7346 363.1511,-91.7796 373.6602,-88.8732"/>
<polygon fill="#191970" stroke="#191970" points="290.1957,-512.6363 281.7921,-519.0884 292.3851,-519.2851 290.1957,-512.6363"/>
</g>
<!-- Node133067 -->
<g id="node28" class="node">
<title>Node133067</title>
<g id="a_node28"><a xlink:href="quickjs_8c.html#a7a5c4f3ad3260974d9a0c75120ce5647" target="_top" xlink:title="js_promise_all">
<polygon fill="none" stroke="#000000" points="378.5,-38.5 378.5,-57.5 465.5,-57.5 465.5,-38.5 378.5,-38.5"/>
<text text-anchor="middle" x="422" y="-45.5" font-family="Helvetica,sans-Serif" font-size="10.00" fill="#000000">js_promise_all</text>
</a>
</g>
</g>
<!-- Node133016&#45;&gt;Node133067 -->
<g id="edge31" class="edge">
<title>Node133016&#45;&gt;Node133067</title>
<path fill="none" stroke="#191970" d="M291.6711,-515.8811C298.7025,-512.9787 305.1701,-508.8478 310,-503 371.9101,-428.0427 283.0657,-141.0995 346,-67 354.0999,-57.4631 366.1935,-52.3269 378.3641,-49.6602"/>
<polygon fill="#191970" stroke="#191970" points="290.2359,-512.6688 281.834,-519.1232 292.4271,-519.317 290.2359,-512.6688"/>
</g>
<!-- Node133059 -->
<g id="node29" class="node">
<title>Node133059</title>
<g id="a_node29"><a xlink:href="quickjs_8c.html#a5f46f50deddd4e3a23da24e8173db28e" target="_top" xlink:title="js_typed_array_from">
<polygon fill="none" stroke="#000000" points="363.5,-.5 363.5,-19.5 480.5,-19.5 480.5,-.5 363.5,-.5"/>
<text text-anchor="middle" x="422" y="-7.5" font-family="Helvetica,sans-Serif" font-size="10.00" fill="#000000">js_typed_array_from</text>
</a>
</g>
</g>
<!-- Node133016&#45;&gt;Node133059 -->
<g id="edge32" class="edge">
<title>Node133016&#45;&gt;Node133059</title>
<path fill="none" stroke="#191970" d="M291.4698,-516.0048C298.588,-513.0945 305.1359,-508.9288 310,-503 377.0026,-421.3314 277.8815,-109.7402 346,-29 350.6482,-23.4906 356.6292,-19.448 363.192,-16.5011"/>
<polygon fill="#191970" stroke="#191970" points="289.9413,-512.8214 281.5142,-519.2429 292.1065,-519.4782 289.9413,-512.8214"/>
</g>
<!-- Node133020&#45;&gt;Node133021 -->
<g id="edge6" class="edge">
<title>Node133020&#45;&gt;Node133021</title>
<path fill="none" stroke="#191970" d="M478.8304,-895.0561C498.0914,-892.7027 519.2029,-890.1231 536.9377,-887.9562"/>
<polygon fill="#191970" stroke="#191970" points="478.1568,-891.6123 468.6551,-896.2994 479.0058,-898.5606 478.1568,-891.6123"/>
</g>
<!-- Node133035&#45;&gt;Node133036 -->
<g id="edge12" class="edge">
<title>Node133035&#45;&gt;Node133036</title>
<path fill="none" stroke="#191970" d="M471.4293,-705.9604C491.489,-703.5094 514.4618,-700.7024 533.8873,-698.3289"/>
<polygon fill="#191970" stroke="#191970" points="470.7409,-702.5184 461.2392,-707.2055 471.5899,-709.4667 470.7409,-702.5184"/>
</g>
<!-- Node133036&#45;&gt;Node133036 -->
<g id="edge13" class="edge">
<title>Node133036&#45;&gt;Node133036</title>
<path fill="none" stroke="#191970" d="M548.7542,-711.6539C549.9558,-716.9368 559.5377,-721 577.5,-721 604.8711,-721 612.7831,-711.5653 601.2359,-702.7571"/>
<polygon fill="#191970" stroke="#191970" points="551.9072,-713.1879 553.7641,-702.7571 545.8077,-709.7532 551.9072,-713.1879"/>
</g>
<!-- Node133250&#45;&gt;Node133250 -->
<g id="edge29" class="edge">
<title>Node133250&#45;&gt;Node133250</title>
<path fill="none" stroke="#191970" d="M393.2542,-142.6539C394.4558,-147.9368 404.0377,-152 422,-152 449.3711,-152 457.2831,-142.5653 445.7359,-133.7571"/>
<polygon fill="#191970" stroke="#191970" points="396.4072,-144.1879 398.2641,-133.7571 390.3077,-140.7532 396.4072,-144.1879"/>
</g>
</g>
</svg>
