<?xml version="1.0" encoding="UTF-8" standalone="no"?>
<!DOCTYPE svg PUBLIC "-//W3C//DTD SVG 1.1//EN"
 "http://www.w3.org/Graphics/SVG/1.1/DTD/svg11.dtd">
<!-- Generated by graphviz version 2.40.1 (20161225.0304)
 -->
<!-- Title: js_free_desc Pages: 1 -->
<!--zoomable 773 -->
<svg id="main" version="1.1" xmlns="http://www.w3.org/2000/svg" xmlns:xlink="http://www.w3.org/1999/xlink" xml:space="preserve" onload="init(evt)">
<style type="text/css"><![CDATA[
.edge:hover path { stroke: red; }
.edge:hover polygon { stroke: red; fill: red; }
]]></style>
<script type="text/javascript"><![CDATA[
var edges = document.getElementsByTagName('g');
if (edges && edges.length) {
  for (var i=0;i<edges.length;i++) {
    if (edges[i].id.substr(0,4)=='edge') {
      edges[i].setAttribute('class','edge');
    }
  }
}
]]></script>
        <defs>
                <circle id="rim" cx="0" cy="0" r="7"/>
                <circle id="rim2" cx="0" cy="0" r="3.5"/>
                <g id="zoomPlus">
                        <use xlink:href="#rim" fill="#404040">
                                <set attributeName="fill" to="#808080" begin="zoomplus.mouseover" end="zoomplus.mouseout"/>
                        </use>
                        <path d="M-4,0h8M0,-4v8" fill="none" stroke="white" stroke-width="1.5" pointer-events="none"/>
                </g>
                <g id="zoomMin">
                        <use xlink:href="#rim" fill="#404040">
                                <set attributeName="fill" to="#808080" begin="zoomminus.mouseover" end="zoomminus.mouseout"/>
                        </use>
                        <path d="M-4,0h8" fill="none" stroke="white" stroke-width="1.5" pointer-events="none"/>
                </g>
                <g id="dirArrow">
                        <path fill="none" stroke="white" stroke-width="1.5" d="M0,-3.0v7 M-2.5,-0.5L0,-3.0L2.5,-0.5"/>
                </g>
               <g id="resetDef">
                       <use xlink:href="#rim2" fill="#404040">
                               <set attributeName="fill" to="#808080" begin="reset.mouseover" end="reset.mouseout"/>
                       </use>
               </g>
        </defs>

<script type="text/javascript">
var viewWidth = 792;
var viewHeight = 773;
var sectionId = 'dynsection-102';
</script>
<script xlink:href="svgpan.js"/>
<svg id="graph" class="graph">
<g id="viewport">
<title>js_free_desc</title>
<!-- Node38309 -->
<g id="node1" class="node">
<title>Node38309</title>
<polygon fill="#bfbfbf" stroke="#000000" points="0,-278.5 0,-297.5 77,-297.5 77,-278.5 0,-278.5"/>
<text text-anchor="middle" x="38.5" y="-285.5" font-family="Helvetica,sans-Serif" font-size="10.00" fill="#000000">js_free_desc</text>
</g>
<!-- Node38310 -->
<g id="node2" class="node">
<title>Node38310</title>
<g id="a_node2"><a xlink:href="quickjs_8c.html#af40540b5f7e973f44e4e89d87938bfc6" target="_top" xlink:title="JS_DefinePropertyDesc">
<polygon fill="none" stroke="#000000" points="140.5,-688.5 140.5,-707.5 268.5,-707.5 268.5,-688.5 140.5,-688.5"/>
<text text-anchor="middle" x="204.5" y="-695.5" font-family="Helvetica,sans-Serif" font-size="10.00" fill="#000000">JS_DefinePropertyDesc</text>
</a>
</g>
</g>
<!-- Node38309&#45;&gt;Node38310 -->
<g id="edge1" class="edge">
<title>Node38309&#45;&gt;Node38310</title>
<path fill="none" stroke="#191970" d="M39.3202,-307.826C42.2541,-360.2114 55.4047,-505.3227 113,-608 132.7306,-643.1745 170.3011,-673.6004 190.6216,-688.4091"/>
<polygon fill="#191970" stroke="#191970" points="42.8037,-307.4052 38.815,-297.5899 35.8122,-307.7503 42.8037,-307.4052"/>
</g>
<!-- Node38315 -->
<g id="node7" class="node">
<title>Node38315</title>
<g id="a_node7"><a xlink:href="quickjs_8c.html#a79c9d633e8f9d5fd70546406b9e6f176" target="_top" xlink:title="JS_GetOwnPropertyNames2">
<polygon fill="none" stroke="#000000" points="332,-650.5 332,-669.5 484,-669.5 484,-650.5 332,-650.5"/>
<text text-anchor="middle" x="408" y="-657.5" font-family="Helvetica,sans-Serif" font-size="10.00" fill="#000000">JS_GetOwnPropertyNames2</text>
</a>
</g>
</g>
<!-- Node38309&#45;&gt;Node38315 -->
<g id="edge6" class="edge">
<title>Node38309&#45;&gt;Node38315</title>
<path fill="none" stroke="#191970" d="M40.5525,-307.6199C45.7811,-349.0326 62.9355,-446.6768 113,-509 184.1729,-597.6001 227.048,-597.4037 332,-641 341.0432,-644.7565 351.0113,-647.9029 360.6688,-650.4852"/>
<polygon fill="#191970" stroke="#191970" points="44.0082,-307.0354 39.3766,-297.5066 37.0551,-307.8439 44.0082,-307.0354"/>
</g>
<!-- Node38323 -->
<g id="node13" class="node">
<title>Node38323</title>
<g id="a_node13"><a xlink:href="quickjs_8c.html#a176ac5ff56a118a0b1b2566798d28823" target="_top" xlink:title="JS_GetOwnPropertyNamesInternal">
<polygon fill="none" stroke="#000000" points="113,-480.5 113,-499.5 296,-499.5 296,-480.5 113,-480.5"/>
<text text-anchor="middle" x="204.5" y="-487.5" font-family="Helvetica,sans-Serif" font-size="10.00" fill="#000000">JS_GetOwnPropertyNamesInternal</text>
</a>
</g>
</g>
<!-- Node38309&#45;&gt;Node38323 -->
<g id="edge13" class="edge">
<title>Node38309&#45;&gt;Node38323</title>
<path fill="none" stroke="#191970" d="M40.5699,-308.0775C45.6126,-346.1073 62.1205,-428.6244 113,-471 117.488,-474.7379 122.5232,-477.8003 127.863,-480.3031"/>
<polygon fill="#191970" stroke="#191970" points="44.0038,-307.3138 39.3476,-297.797 37.0528,-308.1403 44.0038,-307.3138"/>
</g>
<!-- Node38625 -->
<g id="node18" class="node">
<title>Node38625</title>
<g id="a_node18"><a xlink:href="quickjs_8c.html#a3b1f61e0c2e39eb52d8b1c5c8713873e" target="_top" xlink:title="js_object_seal">
<polygon fill="none" stroke="#ff0000" points="365,-392.5 365,-411.5 451,-411.5 451,-392.5 365,-392.5"/>
<text text-anchor="middle" x="408" y="-399.5" font-family="Helvetica,sans-Serif" font-size="10.00" fill="#000000">js_object_seal</text>
</a>
</g>
</g>
<!-- Node38309&#45;&gt;Node38625 -->
<g id="edge30" class="edge">
<title>Node38309&#45;&gt;Node38625</title>
<path fill="none" stroke="#191970" d="M52.0732,-305.8779C65.6028,-322.2943 87.9342,-345.8559 113,-358 195.5995,-398.0187 305.2393,-403.7142 364.8772,-403.4314"/>
<polygon fill="#191970" stroke="#191970" points="54.4637,-303.2604 45.5009,-297.6107 48.9842,-307.6165 54.4637,-303.2604"/>
</g>
<!-- Node38661 -->
<g id="node19" class="node">
<title>Node38661</title>
<g id="a_node19"><a xlink:href="quickjs_8c.html#a43a4ecde0329def8ff22e9341c7b109d" target="_top" xlink:title="js_object_isSealed">
<polygon fill="none" stroke="#000000" points="354.5,-354.5 354.5,-373.5 461.5,-373.5 461.5,-354.5 354.5,-354.5"/>
<text text-anchor="middle" x="408" y="-361.5" font-family="Helvetica,sans-Serif" font-size="10.00" fill="#000000">js_object_isSealed</text>
</a>
</g>
</g>
<!-- Node38309&#45;&gt;Node38661 -->
<g id="edge28" class="edge">
<title>Node38309&#45;&gt;Node38661</title>
<path fill="none" stroke="#191970" d="M61.2473,-303.0892C75.5169,-311.8092 94.6334,-322.1756 113,-328 194.5184,-353.851 294.1425,-361.3183 354.2539,-363.3706"/>
<polygon fill="#191970" stroke="#191970" points="62.9537,-300.0276 52.6266,-297.6608 59.2237,-305.9511 62.9537,-300.0276"/>
</g>
<!-- Node38663 -->
<g id="node21" class="node">
<title>Node38663</title>
<g id="a_node21"><a xlink:href="quickjs_8c.html#a438b354d69a8f0674195b0cdc19dd686" target="_top" xlink:title="js_proxy_get_own_property\l_names">
<polygon fill="none" stroke="#000000" points="332.5,-305 332.5,-335 483.5,-335 483.5,-305 332.5,-305"/>
<text text-anchor="start" x="340.5" y="-323" font-family="Helvetica,sans-Serif" font-size="10.00" fill="#000000">js_proxy_get_own_property</text>
<text text-anchor="middle" x="408" y="-312" font-family="Helvetica,sans-Serif" font-size="10.00" fill="#000000">_names</text>
</a>
</g>
</g>
<!-- Node38309&#45;&gt;Node38663 -->
<g id="edge35" class="edge">
<title>Node38309&#45;&gt;Node38663</title>
<path fill="none" stroke="#191970" d="M80.0205,-300.196C90.6816,-302.8827 102.1931,-305.4012 113,-307 187.041,-317.9536 272.5796,-320.6416 332.4191,-320.9292"/>
<polygon fill="#191970" stroke="#191970" points="80.6716,-296.7484 70.1105,-297.5931 78.8932,-303.5187 80.6716,-296.7484"/>
</g>
<!-- Node38600 -->
<g id="node22" class="node">
<title>Node38600</title>
<g id="a_node22"><a xlink:href="quickjs_8c.html#a26abea9136a3d8e9a861aefb51626b4e" target="_top" xlink:title="js_object___lookupGetter__">
<polygon fill="none" stroke="#000000" points="129.5,-278.5 129.5,-297.5 279.5,-297.5 279.5,-278.5 129.5,-278.5"/>
<text text-anchor="middle" x="204.5" y="-285.5" font-family="Helvetica,sans-Serif" font-size="10.00" fill="#000000">js_object___lookupGetter__</text>
</a>
</g>
</g>
<!-- Node38309&#45;&gt;Node38600 -->
<g id="edge25" class="edge">
<title>Node38309&#45;&gt;Node38600</title>
<path fill="none" stroke="#191970" d="M87.2457,-288C100.4348,-288 115.0234,-288 129.3014,-288"/>
<polygon fill="#191970" stroke="#191970" points="87.001,-284.5001 77.001,-288 87.0009,-291.5001 87.001,-284.5001"/>
</g>
<!-- Node38603 -->
<g id="node23" class="node">
<title>Node38603</title>
<g id="a_node23"><a xlink:href="quickjs_8c.html#a5f75fb513884286c86db6863663f262a" target="_top" xlink:title="js_object_getOwnProperty\lDescriptor">
<polygon fill="none" stroke="#000000" points="132.5,-431 132.5,-461 276.5,-461 276.5,-431 132.5,-431"/>
<text text-anchor="start" x="140.5" y="-449" font-family="Helvetica,sans-Serif" font-size="10.00" fill="#000000">js_object_getOwnProperty</text>
<text text-anchor="middle" x="204.5" y="-438" font-family="Helvetica,sans-Serif" font-size="10.00" fill="#000000">Descriptor</text>
</a>
</g>
</g>
<!-- Node38309&#45;&gt;Node38603 -->
<g id="edge26" class="edge">
<title>Node38309&#45;&gt;Node38603</title>
<path fill="none" stroke="#191970" d="M44.7706,-307.4047C54.7821,-335.3804 77.0012,-386.8738 113,-416 120.5379,-422.0988 129.3569,-426.974 138.4896,-430.867"/>
<polygon fill="#191970" stroke="#191970" points="47.9708,-305.9456 41.4254,-297.6144 41.3468,-308.209 47.9708,-305.9456"/>
</g>
<!-- Node38607 -->
<g id="node24" class="node">
<title>Node38607</title>
<g id="a_node24"><a xlink:href="quickjs_8c.html#acc70b8dea6a26f839c651835b7104c92" target="_top" xlink:title="js_object_propertyIsEnumerable">
<polygon fill="none" stroke="#000000" points="118,-240.5 118,-259.5 291,-259.5 291,-240.5 118,-240.5"/>
<text text-anchor="middle" x="204.5" y="-247.5" font-family="Helvetica,sans-Serif" font-size="10.00" fill="#000000">js_object_propertyIsEnumerable</text>
</a>
</g>
</g>
<!-- Node38309&#45;&gt;Node38607 -->
<g id="edge29" class="edge">
<title>Node38309&#45;&gt;Node38607</title>
<path fill="none" stroke="#191970" d="M84.1271,-276.018C93.649,-273.6146 103.6375,-271.1648 113,-269 127.0684,-265.7471 142.4141,-262.4596 156.4484,-259.5546"/>
<polygon fill="#191970" stroke="#191970" points="83.245,-272.6308 74.4189,-278.4918 84.9735,-279.4141 83.245,-272.6308"/>
</g>
<!-- Node38621 -->
<g id="node25" class="node">
<title>Node38621</title>
<g id="a_node25"><a xlink:href="quickjs_8c.html#a7e5b77a4851eee6f666581d051979392" target="_top" xlink:title="js_proxy_define_own\l_property">
<polygon fill="none" stroke="#000000" points="145,-191 145,-221 264,-221 264,-191 145,-191"/>
<text text-anchor="start" x="153" y="-209" font-family="Helvetica,sans-Serif" font-size="10.00" fill="#000000">js_proxy_define_own</text>
<text text-anchor="middle" x="204.5" y="-198" font-family="Helvetica,sans-Serif" font-size="10.00" fill="#000000">_property</text>
</a>
</g>
</g>
<!-- Node38309&#45;&gt;Node38621 -->
<g id="edge31" class="edge">
<title>Node38309&#45;&gt;Node38621</title>
<path fill="none" stroke="#191970" d="M56.3041,-271.1747C70.6174,-258.4815 91.7736,-241.5141 113,-231 122.8869,-226.1027 133.8661,-222.0564 144.6886,-218.7511"/>
<polygon fill="#191970" stroke="#191970" points="53.7619,-268.7558 48.7186,-278.0733 58.4716,-273.9345 53.7619,-268.7558"/>
</g>
<!-- Node38598 -->
<g id="node26" class="node">
<title>Node38598</title>
<g id="a_node26"><a xlink:href="quickjs_8c.html#acffb121a8a0ee2b735f60c1db01e79e7" target="_top" xlink:title="js_proxy_delete_property">
<polygon fill="none" stroke="#000000" points="134.5,-152.5 134.5,-171.5 274.5,-171.5 274.5,-152.5 134.5,-152.5"/>
<text text-anchor="middle" x="204.5" y="-159.5" font-family="Helvetica,sans-Serif" font-size="10.00" fill="#000000">js_proxy_delete_property</text>
</a>
</g>
</g>
<!-- Node38309&#45;&gt;Node38598 -->
<g id="edge32" class="edge">
<title>Node38309&#45;&gt;Node38598</title>
<path fill="none" stroke="#191970" d="M46.2279,-269.1988C57.2688,-244.8153 79.9455,-202.8297 113,-181 119.4984,-176.7084 126.7767,-173.3581 134.314,-170.7471"/>
<polygon fill="#191970" stroke="#191970" points="42.9788,-267.8941 42.2122,-278.4611 49.4012,-270.6786 42.9788,-267.8941"/>
</g>
<!-- Node38662 -->
<g id="node27" class="node">
<title>Node38662</title>
<g id="a_node27"><a xlink:href="quickjs_8c.html#a45df491949e8e055e732eb13c446d47b" target="_top" xlink:title="js_proxy_get">
<polygon fill="none" stroke="#000000" points="165,-114.5 165,-133.5 244,-133.5 244,-114.5 165,-114.5"/>
<text text-anchor="middle" x="204.5" y="-121.5" font-family="Helvetica,sans-Serif" font-size="10.00" fill="#000000">js_proxy_get</text>
</a>
</g>
</g>
<!-- Node38309&#45;&gt;Node38662 -->
<g id="edge33" class="edge">
<title>Node38309&#45;&gt;Node38662</title>
<path fill="none" stroke="#191970" d="M42.7597,-268.5868C50.7483,-237.0191 71.0934,-174.8879 113,-143 127.719,-131.7999 147.4736,-126.8072 164.8602,-124.7143"/>
<polygon fill="#191970" stroke="#191970" points="39.3397,-267.8402 40.4343,-278.3784 46.1503,-269.4577 39.3397,-267.8402"/>
</g>
<!-- Node38658 -->
<g id="node28" class="node">
<title>Node38658</title>
<g id="a_node28"><a xlink:href="quickjs_8c.html#ab9c2e9c8dab72f3c057efe4ffcced332" target="_top" xlink:title="js_proxy_get_own_property">
<polygon fill="none" stroke="#000000" points="129,-76.5 129,-95.5 280,-95.5 280,-76.5 129,-76.5"/>
<text text-anchor="middle" x="204.5" y="-83.5" font-family="Helvetica,sans-Serif" font-size="10.00" fill="#000000">js_proxy_get_own_property</text>
</a>
</g>
</g>
<!-- Node38309&#45;&gt;Node38658 -->
<g id="edge34" class="edge">
<title>Node38309&#45;&gt;Node38658</title>
<path fill="none" stroke="#191970" d="M40.5699,-267.9225C45.6126,-229.8927 62.1205,-147.3756 113,-105 117.7374,-101.0544 123.0844,-97.8616 128.7557,-95.2849"/>
<polygon fill="#191970" stroke="#191970" points="37.0528,-267.8597 39.3476,-278.203 44.0038,-268.6862 37.0528,-267.8597"/>
</g>
<!-- Node38660 -->
<g id="node29" class="node">
<title>Node38660</title>
<g id="a_node29"><a xlink:href="quickjs_8c.html#a1bddfeab11a7cfee6bd88781073b5972" target="_top" xlink:title="js_proxy_has">
<polygon fill="none" stroke="#000000" points="164.5,-38.5 164.5,-57.5 244.5,-57.5 244.5,-38.5 164.5,-38.5"/>
<text text-anchor="middle" x="204.5" y="-45.5" font-family="Helvetica,sans-Serif" font-size="10.00" fill="#000000">js_proxy_has</text>
</a>
</g>
</g>
<!-- Node38309&#45;&gt;Node38660 -->
<g id="edge36" class="edge">
<title>Node38309&#45;&gt;Node38660</title>
<path fill="none" stroke="#191970" d="M42.4898,-268.4799C52.8436,-219.7201 81.937,-94.5313 113,-67 126.8416,-54.7321 146.5002,-49.6226 164.0503,-47.7287"/>
<polygon fill="#191970" stroke="#191970" points="39.0362,-267.8967 40.4193,-278.4009 45.8886,-269.3268 39.0362,-267.8967"/>
</g>
<!-- Node38450 -->
<g id="node30" class="node">
<title>Node38450</title>
<g id="a_node30"><a xlink:href="quickjs_8c.html#ad38b16d301e8f3661cf4c115c86511b3" target="_top" xlink:title="js_proxy_set">
<polygon fill="none" stroke="#000000" points="165.5,-.5 165.5,-19.5 243.5,-19.5 243.5,-.5 165.5,-.5"/>
<text text-anchor="middle" x="204.5" y="-7.5" font-family="Helvetica,sans-Serif" font-size="10.00" fill="#000000">js_proxy_set</text>
</a>
</g>
</g>
<!-- Node38309&#45;&gt;Node38450 -->
<g id="edge37" class="edge">
<title>Node38309&#45;&gt;Node38450</title>
<path fill="none" stroke="#191970" d="M41.5289,-268.109C50.2686,-213.3407 77.2078,-62.1923 113,-29 126.9186,-16.0925 147.227,-11.0145 165.1773,-9.3056"/>
<polygon fill="#191970" stroke="#191970" points="38.0293,-267.8355 39.9436,-278.2559 44.9454,-268.9161 38.0293,-267.8355"/>
</g>
<!-- Node38311 -->
<g id="node3" class="node">
<title>Node38311</title>
<g id="a_node3"><a xlink:href="quickjs_8c.html#ab2de4cc7a9e58c7a6220acf9e4769d62" target="_top" xlink:title="JS_ObjectDefineProperties">
<polygon fill="none" stroke="#000000" points="336.5,-688.5 336.5,-707.5 479.5,-707.5 479.5,-688.5 336.5,-688.5"/>
<text text-anchor="middle" x="408" y="-695.5" font-family="Helvetica,sans-Serif" font-size="10.00" fill="#000000">JS_ObjectDefineProperties</text>
</a>
</g>
</g>
<!-- Node38310&#45;&gt;Node38311 -->
<g id="edge2" class="edge">
<title>Node38310&#45;&gt;Node38311</title>
<path fill="none" stroke="#191970" d="M278.6258,-698C297.4803,-698 317.704,-698 336.4285,-698"/>
<polygon fill="#191970" stroke="#191970" points="278.6094,-694.5001 268.6094,-698 278.6093,-701.5001 278.6094,-694.5001"/>
</g>
<!-- Node38314 -->
<g id="node6" class="node">
<title>Node38314</title>
<g id="a_node6"><a xlink:href="quickjs_8c.html#aca3b864ab833c3c9034cee730e49cedb" target="_top" xlink:title="js_object_defineProperty">
<polygon fill="none" stroke="#000000" points="339.5,-726.5 339.5,-745.5 476.5,-745.5 476.5,-726.5 339.5,-726.5"/>
<text text-anchor="middle" x="408" y="-733.5" font-family="Helvetica,sans-Serif" font-size="10.00" fill="#000000">js_object_defineProperty</text>
</a>
</g>
</g>
<!-- Node38310&#45;&gt;Node38314 -->
<g id="edge5" class="edge">
<title>Node38310&#45;&gt;Node38314</title>
<path fill="none" stroke="#191970" d="M265.6471,-709.4181C294.7642,-714.8552 329.1879,-721.2832 356.89,-726.4561"/>
<polygon fill="#191970" stroke="#191970" points="266.0615,-705.9351 255.589,-707.54 264.7766,-712.8162 266.0615,-705.9351"/>
</g>
<!-- Node38312 -->
<g id="node4" class="node">
<title>Node38312</title>
<g id="a_node4"><a xlink:href="quickjs_8c.html#a044c9fa96a633f551f51655924c570c7" target="_top" xlink:title="js_object_create">
<polygon fill="none" stroke="#000000" points="544.5,-745.5 544.5,-764.5 640.5,-764.5 640.5,-745.5 544.5,-745.5"/>
<text text-anchor="middle" x="592.5" y="-752.5" font-family="Helvetica,sans-Serif" font-size="10.00" fill="#000000">js_object_create</text>
</a>
</g>
</g>
<!-- Node38311&#45;&gt;Node38312 -->
<g id="edge3" class="edge">
<title>Node38311&#45;&gt;Node38312</title>
<path fill="none" stroke="#191970" d="M463.9377,-710.3435C470.773,-712.3312 477.5988,-714.5518 484,-717 500.8979,-723.4629 503.1389,-729.4415 520,-736 529.3376,-739.6321 539.6171,-742.7981 549.4271,-745.45"/>
<polygon fill="#191970" stroke="#191970" points="464.5351,-706.8778 453.9648,-707.5985 462.6774,-713.6268 464.5351,-706.8778"/>
</g>
<!-- Node38313 -->
<g id="node5" class="node">
<title>Node38313</title>
<g id="a_node5"><a xlink:href="quickjs_8c.html#a8717c172013667b43f0c233fc04a72c0" target="_top" xlink:title="js_object_defineProperties">
<polygon fill="none" stroke="#000000" points="520,-707.5 520,-726.5 665,-726.5 665,-707.5 520,-707.5"/>
<text text-anchor="middle" x="592.5" y="-714.5" font-family="Helvetica,sans-Serif" font-size="10.00" fill="#000000">js_object_defineProperties</text>
</a>
</g>
</g>
<!-- Node38311&#45;&gt;Node38313 -->
<g id="edge4" class="edge">
<title>Node38311&#45;&gt;Node38313</title>
<path fill="none" stroke="#191970" d="M489.5656,-706.3997C499.6096,-707.4341 509.825,-708.486 519.7266,-709.5057"/>
<polygon fill="#191970" stroke="#191970" points="489.9026,-702.916 479.5966,-705.3731 489.1854,-709.8792 489.9026,-702.916"/>
</g>
<!-- Node38316 -->
<g id="node8" class="node">
<title>Node38316</title>
<g id="a_node8"><a xlink:href="quickjs_8c.html#a8bc4f56dd3af257e80deb082f6a6a428" target="_top" xlink:title="js_object_getOwnProperty\lNames">
<polygon fill="none" stroke="#000000" points="520.5,-582 520.5,-612 664.5,-612 664.5,-582 520.5,-582"/>
<text text-anchor="start" x="528.5" y="-600" font-family="Helvetica,sans-Serif" font-size="10.00" fill="#000000">js_object_getOwnProperty</text>
<text text-anchor="middle" x="592.5" y="-589" font-family="Helvetica,sans-Serif" font-size="10.00" fill="#000000">Names</text>
</a>
</g>
</g>
<!-- Node38315&#45;&gt;Node38316 -->
<g id="edge7" class="edge">
<title>Node38315&#45;&gt;Node38316</title>
<path fill="none" stroke="#191970" d="M463.9377,-647.6565C470.773,-645.6688 477.5988,-643.4482 484,-641 500.8979,-634.5371 503.3994,-629.1923 520,-622 528.0631,-618.5066 536.7875,-615.1529 545.2964,-612.0989"/>
<polygon fill="#191970" stroke="#191970" points="462.6774,-644.3732 453.9648,-650.4015 464.5351,-651.1222 462.6774,-644.3732"/>
</g>
<!-- Node38317 -->
<g id="node9" class="node">
<title>Node38317</title>
<g id="a_node9"><a xlink:href="quickjs_8c.html#a83a8b773a15bb0deebe81242a2c0b036" target="_top" xlink:title="js_object_getOwnProperty\lSymbols">
<polygon fill="none" stroke="#000000" points="520.5,-533 520.5,-563 664.5,-563 664.5,-533 520.5,-533"/>
<text text-anchor="start" x="528.5" y="-551" font-family="Helvetica,sans-Serif" font-size="10.00" fill="#000000">js_object_getOwnProperty</text>
<text text-anchor="middle" x="592.5" y="-540" font-family="Helvetica,sans-Serif" font-size="10.00" fill="#000000">Symbols</text>
</a>
</g>
</g>
<!-- Node38315&#45;&gt;Node38317 -->
<g id="edge8" class="edge">
<title>Node38315&#45;&gt;Node38317</title>
<path fill="none" stroke="#191970" d="M476.6647,-645.9312C479.2323,-644.4468 481.6913,-642.8083 484,-641 510.9215,-619.914 494.0219,-595.2378 520,-573 524.5515,-569.1038 529.743,-565.8049 535.209,-563.0137"/>
<polygon fill="#191970" stroke="#191970" points="475.0014,-642.8489 467.5774,-650.4076 478.0947,-649.1283 475.0014,-642.8489"/>
</g>
<!-- Node38318 -->
<g id="node10" class="node">
<title>Node38318</title>
<g id="a_node10"><a xlink:href="quickjs_8c.html#a0183869c9353a8e82a93327f39c40456" target="_top" xlink:title="js_object_keys">
<polygon fill="none" stroke="#000000" points="548,-669.5 548,-688.5 637,-688.5 637,-669.5 548,-669.5"/>
<text text-anchor="middle" x="592.5" y="-676.5" font-family="Helvetica,sans-Serif" font-size="10.00" fill="#000000">js_object_keys</text>
</a>
</g>
</g>
<!-- Node38315&#45;&gt;Node38318 -->
<g id="edge9" class="edge">
<title>Node38315&#45;&gt;Node38318</title>
<path fill="none" stroke="#191970" d="M494.1118,-668.8679C512.7584,-670.7881 531.7409,-672.743 547.9939,-674.4167"/>
<polygon fill="#191970" stroke="#191970" points="494.4144,-665.3806 484.1084,-667.8377 493.6972,-672.3438 494.4144,-665.3806"/>
</g>
<!-- Node38322 -->
<g id="node12" class="node">
<title>Node38322</title>
<g id="a_node12"><a xlink:href="quickjs_8c.html#a0be9569ff7b17a2659dc40aedf2c1a16" target="_top" xlink:title="js_reflect_ownKeys">
<polygon fill="none" stroke="#000000" points="537.5,-631.5 537.5,-650.5 647.5,-650.5 647.5,-631.5 537.5,-631.5"/>
<text text-anchor="middle" x="592.5" y="-638.5" font-family="Helvetica,sans-Serif" font-size="10.00" fill="#000000">js_reflect_ownKeys</text>
</a>
</g>
</g>
<!-- Node38315&#45;&gt;Node38322 -->
<g id="edge12" class="edge">
<title>Node38315&#45;&gt;Node38322</title>
<path fill="none" stroke="#191970" d="M494.2283,-651.1201C508.9197,-649.6072 523.8157,-648.0732 537.4172,-646.6725"/>
<polygon fill="#191970" stroke="#191970" points="493.6972,-647.6562 484.1084,-652.1623 494.4144,-654.6194 493.6972,-647.6562"/>
</g>
<!-- Node38319 -->
<g id="node11" class="node">
<title>Node38319</title>
<g id="a_node11"><a xlink:href="quickjs_8c.html#a60d84dd116a9d7d912d08f298a4734dd" target="_top" xlink:title="js_json_to_str">
<polygon fill="none" stroke="#ff0000" points="701,-669.5 701,-688.5 784,-688.5 784,-669.5 701,-669.5"/>
<text text-anchor="middle" x="742.5" y="-676.5" font-family="Helvetica,sans-Serif" font-size="10.00" fill="#000000">js_json_to_str</text>
</a>
</g>
</g>
<!-- Node38318&#45;&gt;Node38319 -->
<g id="edge10" class="edge">
<title>Node38318&#45;&gt;Node38319</title>
<path fill="none" stroke="#191970" d="M647.2982,-679C664.9953,-679 684.3138,-679 700.8956,-679"/>
<polygon fill="#191970" stroke="#191970" points="647.0989,-675.5001 637.0988,-679 647.0988,-682.5001 647.0989,-675.5001"/>
</g>
<!-- Node38319&#45;&gt;Node38319 -->
<g id="edge11" class="edge">
<title>Node38319&#45;&gt;Node38319</title>
<path fill="none" stroke="#191970" d="M714.5009,-697.6539C715.6712,-702.9368 725.0043,-707 742.5,-707 769.1602,-707 776.8666,-697.5653 765.6194,-688.7571"/>
<polygon fill="#191970" stroke="#191970" points="717.6403,-699.208 719.3806,-688.7571 711.5029,-695.8417 717.6403,-699.208"/>
</g>
<!-- Node38323&#45;&gt;Node38311 -->
<g id="edge17" class="edge">
<title>Node38323&#45;&gt;Node38311</title>
<path fill="none" stroke="#191970" d="M211.8523,-509.174C227.6429,-547.6924 268.5908,-634.5736 332,-679 337.5693,-682.902 343.8623,-686.0047 350.3838,-688.4712"/>
<polygon fill="#191970" stroke="#191970" points="215.0184,-507.664 208.0678,-499.6677 208.5148,-510.2531 215.0184,-507.664"/>
</g>
<!-- Node38323&#45;&gt;Node38315 -->
<g id="edge19" class="edge">
<title>Node38323&#45;&gt;Node38315</title>
<path fill="none" stroke="#191970" d="M223.8229,-506.306C243.4136,-523.425 273.9086,-551.735 296,-580 315.3858,-604.8033 306.7744,-622.167 332,-641 337.2312,-644.9055 343.1725,-648.0144 349.3738,-650.4881"/>
<polygon fill="#191970" stroke="#191970" points="226.0088,-503.5693 216.1508,-499.6873 221.4363,-508.8696 226.0088,-503.5693"/>
</g>
<!-- Node38324 -->
<g id="node14" class="node">
<title>Node38324</title>
<g id="a_node14"><a xlink:href="quickjs_8c.html#a160229a9daaaf70e287d6dadb69bc609" target="_top" xlink:title="JS_GetOwnPropertyNames">
<polygon fill="none" stroke="#ff0000" points="335,-556.5 335,-575.5 481,-575.5 481,-556.5 335,-556.5"/>
<text text-anchor="middle" x="408" y="-563.5" font-family="Helvetica,sans-Serif" font-size="10.00" fill="#000000">JS_GetOwnPropertyNames</text>
</a>
</g>
</g>
<!-- Node38323&#45;&gt;Node38324 -->
<g id="edge14" class="edge">
<title>Node38323&#45;&gt;Node38324</title>
<path fill="none" stroke="#191970" d="M232.1418,-504.0575C257.5906,-516.5871 296.6413,-534.7823 332,-547 342.2838,-550.5534 353.5621,-553.7414 364.2091,-556.4454"/>
<polygon fill="#191970" stroke="#191970" points="233.6029,-500.8752 223.0904,-499.5571 230.4864,-507.1432 233.6029,-500.8752"/>
</g>
<!-- Node38327 -->
<g id="node15" class="node">
<title>Node38327</title>
<g id="a_node15"><a xlink:href="quickjs_8c.html#aa40a5354bee3b56e05a71244910bcc78" target="_top" xlink:title="build_for_in_iterator">
<polygon fill="none" stroke="#ff0000" points="350.5,-518.5 350.5,-537.5 465.5,-537.5 465.5,-518.5 350.5,-518.5"/>
<text text-anchor="middle" x="408" y="-525.5" font-family="Helvetica,sans-Serif" font-size="10.00" fill="#000000">build_for_in_iterator</text>
</a>
</g>
</g>
<!-- Node38323&#45;&gt;Node38327 -->
<g id="edge15" class="edge">
<title>Node38323&#45;&gt;Node38327</title>
<path fill="none" stroke="#191970" d="M265.6471,-501.4181C294.7642,-506.8552 329.1879,-513.2832 356.89,-518.4561"/>
<polygon fill="#191970" stroke="#191970" points="266.0615,-497.9351 255.589,-499.54 264.7766,-504.8162 266.0615,-497.9351"/>
</g>
<!-- Node38462 -->
<g id="node16" class="node">
<title>Node38462</title>
<g id="a_node16"><a xlink:href="quickjs_8c.html#a3b754d750c7f3123e85f4a2e748de023" target="_top" xlink:title="JS_CopyDataProperties">
<polygon fill="none" stroke="#ff0000" points="344,-480.5 344,-499.5 472,-499.5 472,-480.5 344,-480.5"/>
<text text-anchor="middle" x="408" y="-487.5" font-family="Helvetica,sans-Serif" font-size="10.00" fill="#000000">JS_CopyDataProperties</text>
</a>
</g>
</g>
<!-- Node38323&#45;&gt;Node38462 -->
<g id="edge16" class="edge">
<title>Node38323&#45;&gt;Node38462</title>
<path fill="none" stroke="#191970" d="M306.3742,-490C319.1668,-490 331.9568,-490 343.9354,-490"/>
<polygon fill="#191970" stroke="#191970" points="306.1297,-486.5001 296.1296,-490 306.1296,-493.5001 306.1297,-486.5001"/>
</g>
<!-- Node38604 -->
<g id="node17" class="node">
<title>Node38604</title>
<g id="a_node17"><a xlink:href="quickjs_8c.html#ad4eec5e88dc04d884c28e0f09d9a81f5" target="_top" xlink:title="js_object_getOwnProperty\lDescriptors">
<polygon fill="none" stroke="#000000" points="336,-431 336,-461 480,-461 480,-431 336,-431"/>
<text text-anchor="start" x="344" y="-449" font-family="Helvetica,sans-Serif" font-size="10.00" fill="#000000">js_object_getOwnProperty</text>
<text text-anchor="middle" x="408" y="-438" font-family="Helvetica,sans-Serif" font-size="10.00" fill="#000000">Descriptors</text>
</a>
</g>
</g>
<!-- Node38323&#45;&gt;Node38604 -->
<g id="edge18" class="edge">
<title>Node38323&#45;&gt;Node38604</title>
<path fill="none" stroke="#191970" d="M261.0709,-478.3902C272.6333,-475.9787 284.7143,-473.4312 296,-471 310.7045,-467.8324 326.4773,-464.3587 341.4093,-461.0349"/>
<polygon fill="#191970" stroke="#191970" points="260.1549,-475.0057 251.0767,-480.4679 261.5798,-481.8592 260.1549,-475.0057"/>
</g>
<!-- Node38323&#45;&gt;Node38625 -->
<g id="edge20" class="edge">
<title>Node38323&#45;&gt;Node38625</title>
<path fill="none" stroke="#191970" d="M285.9464,-476.5234C289.4381,-474.8832 292.8091,-473.0496 296,-471 318.7373,-456.3956 309.6545,-437.1971 332,-422 341.7023,-415.4015 353.4628,-410.9792 364.8037,-408.0158"/>
<polygon fill="#191970" stroke="#191970" points="284.377,-473.3844 276.4628,-480.4282 287.0422,-479.8572 284.377,-473.3844"/>
</g>
<!-- Node38323&#45;&gt;Node38661 -->
<g id="edge21" class="edge">
<title>Node38323&#45;&gt;Node38661</title>
<path fill="none" stroke="#191970" d="M290.2721,-475.2247C292.2607,-473.9226 294.1754,-472.517 296,-471 328.4935,-443.9842 300.0566,-410.664 332,-383 338.3742,-377.4797 346.1187,-373.5189 354.1958,-370.6859"/>
<polygon fill="#191970" stroke="#191970" points="288.1778,-472.384 281.13,-480.2947 291.5727,-478.5056 288.1778,-472.384"/>
</g>
<!-- Node38411 -->
<g id="node20" class="node">
<title>Node38411</title>
<g id="a_node20"><a xlink:href="quickjs_8c.html#a624282391413d4c5a030adbd8b77aa80" target="_top" xlink:title="internalize_json_property">
<polygon fill="none" stroke="#ff0000" points="338,-594.5 338,-613.5 478,-613.5 478,-594.5 338,-594.5"/>
<text text-anchor="middle" x="408" y="-601.5" font-family="Helvetica,sans-Serif" font-size="10.00" fill="#000000">internalize_json_property</text>
</a>
</g>
</g>
<!-- Node38323&#45;&gt;Node38411 -->
<g id="edge22" class="edge">
<title>Node38323&#45;&gt;Node38411</title>
<path fill="none" stroke="#191970" d="M221.8314,-506.5053C245.0781,-527.7499 288.49,-564.3744 332,-585 340.1111,-588.845 349.0915,-591.9703 357.9537,-594.4915"/>
<polygon fill="#191970" stroke="#191970" points="224.1928,-503.9219 214.4826,-499.6837 219.4305,-509.0522 224.1928,-503.9219"/>
</g>
<!-- Node38323&#45;&gt;Node38663 -->
<g id="edge24" class="edge">
<title>Node38323&#45;&gt;Node38663</title>
<path fill="none" stroke="#191970" d="M291.2368,-474.9503C292.893,-473.7228 294.4845,-472.4079 296,-471 338.669,-431.3597 291.6388,-386.9878 332,-345 335.7541,-341.0946 340.1282,-337.799 344.8463,-335.0179"/>
<polygon fill="#191970" stroke="#191970" points="289.1236,-472.1423 282.4693,-480.3868 292.8125,-478.0914 289.1236,-472.1423"/>
</g>
<!-- Node38411&#45;&gt;Node38411 -->
<g id="edge23" class="edge">
<title>Node38411&#45;&gt;Node38411</title>
<path fill="none" stroke="#191970" d="M373.5174,-621.8913C374.0224,-627.5406 385.5166,-632 408,-632 440.7031,-632 450.1564,-622.5653 436.3597,-613.7571"/>
<polygon fill="#191970" stroke="#191970" points="376.4226,-623.8515 379.6403,-613.7571 370.8299,-619.6417 376.4226,-623.8515"/>
</g>
<!-- Node38603&#45;&gt;Node38604 -->
<g id="edge27" class="edge">
<title>Node38603&#45;&gt;Node38604</title>
<path fill="none" stroke="#191970" d="M286.5589,-446C302.8315,-446 319.8028,-446 335.7208,-446"/>
<polygon fill="#191970" stroke="#191970" points="286.5329,-442.5001 276.5329,-446 286.5328,-449.5001 286.5329,-442.5001"/>
</g>
</g>
</svg>
        <g id="navigator" transform="translate(0 0)" fill="#404254">
                <rect fill="#f2f5e9" fill-opacity="0.5" stroke="#606060" stroke-width=".5" x="0" y="0" width="60" height="60"/>
                <use id="zoomplus" xlink:href="#zoomPlus" x="17" y="9" onmousedown="handleZoom(evt,'in')"/>
                <use id="zoomminus" xlink:href="#zoomMin" x="42" y="9" onmousedown="handleZoom(evt,'out')"/>
                <use id="reset" xlink:href="#resetDef" x="30" y="36" onmousedown="handleReset()"/>
                <g id="arrowUp" xlink:href="#dirArrow" transform="translate(30 24)" onmousedown="handlePan(0,-1)">
                  <use xlink:href="#rim" fill="#404040">
                        <set attributeName="fill" to="#808080" begin="arrowUp.mouseover" end="arrowUp.mouseout"/>
                  </use>
                  <path fill="none" stroke="white" stroke-width="1.5" d="M0,-3.0v7 M-2.5,-0.5L0,-3.0L2.5,-0.5"/>
                </g>
                <g id="arrowRight" xlink:href="#dirArrow" transform="rotate(90) translate(36 -43)" onmousedown="handlePan(1,0)">
                  <use xlink:href="#rim" fill="#404040">
                        <set attributeName="fill" to="#808080" begin="arrowRight.mouseover" end="arrowRight.mouseout"/>
                  </use>
                  <path fill="none" stroke="white" stroke-width="1.5" d="M0,-3.0v7 M-2.5,-0.5L0,-3.0L2.5,-0.5"/>
                </g>
                <g id="arrowDown" xlink:href="#dirArrow" transform="rotate(180) translate(-30 -48)" onmousedown="handlePan(0,1)">
                  <use xlink:href="#rim" fill="#404040">
                        <set attributeName="fill" to="#808080" begin="arrowDown.mouseover" end="arrowDown.mouseout"/>
                  </use>
                  <path fill="none" stroke="white" stroke-width="1.5" d="M0,-3.0v7 M-2.5,-0.5L0,-3.0L2.5,-0.5"/>
                </g>
                <g id="arrowLeft" xlink:href="#dirArrow" transform="rotate(270) translate(-36 17)" onmousedown="handlePan(-1,0)">
                  <use xlink:href="#rim" fill="#404040">
                        <set attributeName="fill" to="#808080" begin="arrowLeft.mouseover" end="arrowLeft.mouseout"/>
                  </use>
                  <path fill="none" stroke="white" stroke-width="1.5" d="M0,-3.0v7 M-2.5,-0.5L0,-3.0L2.5,-0.5"/>
                </g>
        </g>
        <svg viewBox="0 0 15 15" width="100%" height="30px" preserveAspectRatio="xMaxYMin meet">
         <g id="arrow_out" transform="scale(0.3 0.3)">
          <a xlink:href="quickjs_8c_adfe21c674d998ca6586b7f7400352dc4_icgraph_org.svg" target="_base">
           <rect id="button" ry="5" rx="5" y="6" x="6" height="38" width="38"
                fill="#f2f5e9" fill-opacity="0.5" stroke="#606060" stroke-width="1.0"/>
           <path id="arrow"
             d="M 11.500037,31.436501 C 11.940474,20.09759 22.043105,11.32322 32.158766,21.979434 L 37.068811,17.246167 C 37.068811,17.246167 37.088388,32 37.088388,32 L 22.160133,31.978069 C 22.160133,31.978069 26.997745,27.140456 26.997745,27.140456 C 18.528582,18.264221 13.291696,25.230495 11.500037,31.436501 z"
             style="fill:#404040;"/>
          </a>
         </g>
        </svg>
</svg>
