<?xml version="1.0" encoding="UTF-8" standalone="no"?>
<!DOCTYPE svg PUBLIC "-//W3C//DTD SVG 1.1//EN"
 "http://www.w3.org/Graphics/SVG/1.1/DTD/svg11.dtd">
<!-- Generated by graphviz version 2.40.1 (20161225.0304)
 -->
<!-- Title: js_create_module_function Pages: 1 -->
<!--zoomable 256 -->
<svg id="main" version="1.1" xmlns="http://www.w3.org/2000/svg" xmlns:xlink="http://www.w3.org/1999/xlink" xml:space="preserve" onload="init(evt)">
<style type="text/css"><![CDATA[
.edge:hover path { stroke: red; }
.edge:hover polygon { stroke: red; fill: red; }
]]></style>
<script type="text/javascript"><![CDATA[
var edges = document.getElementsByTagName('g');
if (edges && edges.length) {
  for (var i=0;i<edges.length;i++) {
    if (edges[i].id.substr(0,4)=='edge') {
      edges[i].setAttribute('class','edge');
    }
  }
}
]]></script>
        <defs>
                <circle id="rim" cx="0" cy="0" r="7"/>
                <circle id="rim2" cx="0" cy="0" r="3.5"/>
                <g id="zoomPlus">
                        <use xlink:href="#rim" fill="#404040">
                                <set attributeName="fill" to="#808080" begin="zoomplus.mouseover" end="zoomplus.mouseout"/>
                        </use>
                        <path d="M-4,0h8M0,-4v8" fill="none" stroke="white" stroke-width="1.5" pointer-events="none"/>
                </g>
                <g id="zoomMin">
                        <use xlink:href="#rim" fill="#404040">
                                <set attributeName="fill" to="#808080" begin="zoomminus.mouseover" end="zoomminus.mouseout"/>
                        </use>
                        <path d="M-4,0h8" fill="none" stroke="white" stroke-width="1.5" pointer-events="none"/>
                </g>
                <g id="dirArrow">
                        <path fill="none" stroke="white" stroke-width="1.5" d="M0,-3.0v7 M-2.5,-0.5L0,-3.0L2.5,-0.5"/>
                </g>
               <g id="resetDef">
                       <use xlink:href="#rim2" fill="#404040">
                               <set attributeName="fill" to="#808080" begin="reset.mouseover" end="reset.mouseout"/>
                       </use>
               </g>
        </defs>

<script type="text/javascript">
var viewWidth = 815;
var viewHeight = 256;
var sectionId = 'dynsection-1143';
</script>
<script xlink:href="svgpan.js"/>
<svg id="graph" class="graph">
<g id="viewport">
<title>js_create_module_function</title>
<!-- Node346141 -->
<g id="node1" class="node">
<title>Node346141</title>
<polygon fill="#bfbfbf" stroke="#000000" points="0,-206.5 0,-225.5 148,-225.5 148,-206.5 0,-206.5"/>
<text text-anchor="middle" x="74" y="-213.5" font-family="Helvetica,sans-Serif" font-size="10.00" fill="#000000">js_create_module_function</text>
</g>
<!-- Node346141&#45;&gt;Node346141 -->
<g id="edge14" class="edge">
<title>Node346141&#45;&gt;Node346141</title>
<path fill="none" stroke="#191970" d="M45.332,-225.7571C31.3854,-234.5653 40.9414,-244 74,-244 96.7278,-244 108.3469,-239.5406 108.8574,-233.8913"/>
<polygon fill="#191970" stroke="#191970" points="111.5088,-231.5958 102.668,-225.7571 105.9381,-235.8346 111.5088,-231.5958"/>
</g>
<!-- Node346142 -->
<g id="node2" class="node">
<title>Node346142</title>
<g id="a_node2"><a xlink:href="quickjs_8c.html#a6e67f3bc70778c4c816db73e18d47d03" target="_top" xlink:title="js_create_module_bytecode\l_function">
<polygon fill="none" stroke="#000000" points="184,-179 184,-209 337,-209 337,-179 184,-179"/>
<text text-anchor="start" x="192" y="-197" font-family="Helvetica,sans-Serif" font-size="10.00" fill="#000000">js_create_module_bytecode</text>
<text text-anchor="middle" x="260.5" y="-186" font-family="Helvetica,sans-Serif" font-size="10.00" fill="#000000">_function</text>
</a>
</g>
</g>
<!-- Node346141&#45;&gt;Node346142 -->
<g id="edge1" class="edge">
<title>Node346141&#45;&gt;Node346142</title>
<path fill="none" stroke="#191970" d="M148.2456,-207.2418C156.6418,-206.2514 165.2527,-205.2356 173.7901,-204.2285"/>
<polygon fill="#191970" stroke="#191970" points="174.2402,-207.6998 183.7612,-203.0523 173.42,-200.748 174.2402,-207.6998"/>
</g>
<!-- Node346143 -->
<g id="node3" class="node">
<title>Node346143</title>
<g id="a_node3"><a xlink:href="quickjs_8c.html#a66b74f17c8f724e92b6d7e3856e12b1e" target="_top" xlink:title="js_create_module_var">
<polygon fill="none" stroke="#000000" points="379,-228.5 379,-247.5 503,-247.5 503,-228.5 379,-228.5"/>
<text text-anchor="middle" x="441" y="-235.5" font-family="Helvetica,sans-Serif" font-size="10.00" fill="#000000">js_create_module_var</text>
</a>
</g>
</g>
<!-- Node346141&#45;&gt;Node346143 -->
<g id="edge15" class="edge">
<title>Node346141&#45;&gt;Node346143</title>
<path fill="none" stroke="#191970" d="M148.2679,-220.452C212.4519,-224.2996 304.6686,-229.8275 368.3698,-233.6461"/>
<polygon fill="#191970" stroke="#191970" points="368.5422,-237.1627 378.7337,-234.2674 368.9611,-230.1752 368.5422,-237.1627"/>
</g>
<!-- Node346142&#45;&gt;Node346143 -->
<g id="edge2" class="edge">
<title>Node346142&#45;&gt;Node346143</title>
<path fill="none" stroke="#191970" d="M322.113,-209.0192C344.9478,-214.5856 370.5112,-220.8171 392.0653,-226.0713"/>
<polygon fill="#191970" stroke="#191970" points="391.433,-229.5196 401.9775,-228.4876 393.0909,-222.7188 391.433,-229.5196"/>
</g>
<!-- Node346147 -->
<g id="node5" class="node">
<title>Node346147</title>
<g id="a_node5"><a xlink:href="quickjs_8h.html#afaa20c47565bc704c6c85f3d77254e7d" target="_top" xlink:title="JS_FreeValue">
<polygon fill="none" stroke="#000000" points="402,-190.5 402,-209.5 480,-209.5 480,-190.5 402,-190.5"/>
<text text-anchor="middle" x="441" y="-197.5" font-family="Helvetica,sans-Serif" font-size="10.00" fill="#000000">JS_FreeValue</text>
</a>
</g>
</g>
<!-- Node346142&#45;&gt;Node346147 -->
<g id="edge4" class="edge">
<title>Node346142&#45;&gt;Node346147</title>
<path fill="none" stroke="#191970" d="M337.0483,-196.5445C355.5085,-197.1582 374.7518,-197.7978 391.5911,-198.3576"/>
<polygon fill="#191970" stroke="#191970" points="391.626,-201.8606 401.7368,-198.6949 391.8587,-194.8645 391.626,-201.8606"/>
</g>
<!-- Node346183 -->
<g id="node7" class="node">
<title>Node346183</title>
<g id="a_node7"><a xlink:href="quickjs_8h.html#ad80a83d73e9b7d872b88fbf2943aebe9" target="_top" xlink:title="JS_IsException">
<polygon fill="none" stroke="#000000" points="397.5,-152.5 397.5,-171.5 484.5,-171.5 484.5,-152.5 397.5,-152.5"/>
<text text-anchor="middle" x="441" y="-159.5" font-family="Helvetica,sans-Serif" font-size="10.00" fill="#000000">JS_IsException</text>
</a>
</g>
</g>
<!-- Node346142&#45;&gt;Node346183 -->
<g id="edge6" class="edge">
<title>Node346142&#45;&gt;Node346183</title>
<path fill="none" stroke="#191970" d="M337.0483,-180.4291C353.9944,-177.4248 371.6004,-174.3035 387.401,-171.5023"/>
<polygon fill="#191970" stroke="#191970" points="388.2629,-174.9042 397.4983,-169.7122 387.0409,-168.0117 388.2629,-174.9042"/>
</g>
<!-- Node346184 -->
<g id="node8" class="node">
<title>Node346184</title>
<g id="a_node8"><a xlink:href="quickjs_8c.html#a73738c650f11459db0d7af3dcdf8316b" target="_top" xlink:title="JS_NewObjectProtoClass">
<polygon fill="none" stroke="#000000" points="373,-95.5 373,-114.5 509,-114.5 509,-95.5 373,-95.5"/>
<text text-anchor="middle" x="441" y="-102.5" font-family="Helvetica,sans-Serif" font-size="10.00" fill="#000000">JS_NewObjectProtoClass</text>
</a>
</g>
</g>
<!-- Node346142&#45;&gt;Node346184 -->
<g id="edge7" class="edge">
<title>Node346142&#45;&gt;Node346184</title>
<path fill="none" stroke="#191970" d="M291.1194,-178.9024C325.0823,-162.1561 379.4383,-135.3545 412.5163,-119.0446"/>
<polygon fill="#191970" stroke="#191970" points="414.2288,-122.1026 421.6499,-114.5411 411.1331,-115.8243 414.2288,-122.1026"/>
</g>
<!-- Node346144 -->
<g id="node4" class="node">
<title>Node346144</title>
<g id="a_node4"><a xlink:href="quickjs_8c.html#a9780456a71703c53244b88831bc8fb7a" target="_top" xlink:title="add_gc_object">
<polygon fill="none" stroke="#ff0000" points="721,-114.5 721,-133.5 807,-133.5 807,-114.5 721,-114.5"/>
<text text-anchor="middle" x="764" y="-121.5" font-family="Helvetica,sans-Serif" font-size="10.00" fill="#000000">add_gc_object</text>
</a>
</g>
</g>
<!-- Node346143&#45;&gt;Node346144 -->
<g id="edge3" class="edge">
<title>Node346143&#45;&gt;Node346144</title>
<path fill="none" stroke="#191970" d="M503.2575,-246.0249C554.8442,-249.7638 628.5807,-248.1865 685,-219 717.6947,-202.0865 742.0551,-165.1604 754.5635,-142.652"/>
<polygon fill="#191970" stroke="#191970" points="757.7103,-144.189 759.3265,-133.7182 751.5334,-140.8958 757.7103,-144.189"/>
</g>
<!-- Node346148 -->
<g id="node6" class="node">
<title>Node346148</title>
<g id="a_node6"><a xlink:href="quickjs_8c.html#aa059f309c30fd5166d16c82a97973146" target="_top" xlink:title="__JS_FreeValue">
<polygon fill="none" stroke="#ff0000" points="570.5,-190.5 570.5,-209.5 659.5,-209.5 659.5,-190.5 570.5,-190.5"/>
<text text-anchor="middle" x="615" y="-197.5" font-family="Helvetica,sans-Serif" font-size="10.00" fill="#000000">__JS_FreeValue</text>
</a>
</g>
</g>
<!-- Node346147&#45;&gt;Node346148 -->
<g id="edge5" class="edge">
<title>Node346147&#45;&gt;Node346148</title>
<path fill="none" stroke="#191970" d="M480.049,-200C503.6666,-200 534.1403,-200 560.1519,-200"/>
<polygon fill="#191970" stroke="#191970" points="560.2481,-203.5001 570.2481,-200 560.248,-196.5001 560.2481,-203.5001"/>
</g>
<!-- Node346185 -->
<g id="node9" class="node">
<title>Node346185</title>
<g id="a_node9"><a xlink:href="quickjs_8c.html#aad24bdf2bcbb0ce55462fe6074dac8a5" target="_top" xlink:title="find_hashed_shape_proto">
<polygon fill="none" stroke="#ff0000" points="545,-152.5 545,-171.5 685,-171.5 685,-152.5 545,-152.5"/>
<text text-anchor="middle" x="615" y="-159.5" font-family="Helvetica,sans-Serif" font-size="10.00" fill="#000000">find_hashed_shape_proto</text>
</a>
</g>
</g>
<!-- Node346184&#45;&gt;Node346185 -->
<g id="edge8" class="edge">
<title>Node346184&#45;&gt;Node346185</title>
<path fill="none" stroke="#191970" d="M465.5913,-114.6583C486.5371,-122.7222 517.5195,-134.2675 545,-143 552.2598,-145.3069 559.9971,-147.5845 567.5811,-149.7178"/>
<polygon fill="#191970" stroke="#191970" points="566.8387,-153.1437 577.4095,-152.4294 568.7005,-146.3958 566.8387,-153.1437"/>
</g>
<!-- Node346188 -->
<g id="node10" class="node">
<title>Node346188</title>
<g id="a_node10"><a xlink:href="quickjs_8c.html#aab0be018b8f7bdcff45226f502c3f820" target="_top" xlink:title="get_proto_obj">
<polygon fill="none" stroke="#000000" points="573.5,-114.5 573.5,-133.5 656.5,-133.5 656.5,-114.5 573.5,-114.5"/>
<text text-anchor="middle" x="615" y="-121.5" font-family="Helvetica,sans-Serif" font-size="10.00" fill="#000000">get_proto_obj</text>
</a>
</g>
</g>
<!-- Node346184&#45;&gt;Node346188 -->
<g id="edge9" class="edge">
<title>Node346184&#45;&gt;Node346188</title>
<path fill="none" stroke="#191970" d="M509.27,-112.4548C527.1678,-114.4091 546.1759,-116.4847 563.0662,-118.3291"/>
<polygon fill="#191970" stroke="#191970" points="562.9594,-121.8381 573.2803,-119.4444 563.7194,-114.8795 562.9594,-121.8381"/>
</g>
<!-- Node346189 -->
<g id="node11" class="node">
<title>Node346189</title>
<g id="a_node11"><a xlink:href="quickjs_8c.html#aed229eb80b3b03a2275471dee93c69d6" target="_top" xlink:title="js_dup_shape">
<polygon fill="none" stroke="#000000" points="573.5,-76.5 573.5,-95.5 656.5,-95.5 656.5,-76.5 573.5,-76.5"/>
<text text-anchor="middle" x="615" y="-83.5" font-family="Helvetica,sans-Serif" font-size="10.00" fill="#000000">js_dup_shape</text>
</a>
</g>
</g>
<!-- Node346184&#45;&gt;Node346189 -->
<g id="edge10" class="edge">
<title>Node346184&#45;&gt;Node346189</title>
<path fill="none" stroke="#191970" d="M509.27,-97.5452C527.1678,-95.5909 546.1759,-93.5153 563.0662,-91.6709"/>
<polygon fill="#191970" stroke="#191970" points="563.7194,-95.1205 573.2803,-90.5556 562.9594,-88.1619 563.7194,-95.1205"/>
</g>
<!-- Node346190 -->
<g id="node12" class="node">
<title>Node346190</title>
<g id="a_node12"><a xlink:href="quickjs_8c.html#ad6926e49955be5e10423f6df8d8cff3e" target="_top" xlink:title="js_new_shape">
<polygon fill="none" stroke="#ff0000" points="572.5,-38.5 572.5,-57.5 657.5,-57.5 657.5,-38.5 572.5,-38.5"/>
<text text-anchor="middle" x="615" y="-45.5" font-family="Helvetica,sans-Serif" font-size="10.00" fill="#000000">js_new_shape</text>
</a>
</g>
</g>
<!-- Node346184&#45;&gt;Node346190 -->
<g id="edge11" class="edge">
<title>Node346184&#45;&gt;Node346190</title>
<path fill="none" stroke="#191970" d="M465.5913,-95.3417C486.5371,-87.2778 517.5195,-75.7325 545,-67 552.2598,-64.6931 559.9971,-62.4155 567.5811,-60.2822"/>
<polygon fill="#191970" stroke="#191970" points="568.7005,-63.6042 577.4095,-57.5706 566.8387,-56.8563 568.7005,-63.6042"/>
</g>
<!-- Node346201 -->
<g id="node13" class="node">
<title>Node346201</title>
<g id="a_node13"><a xlink:href="quickjs_8c.html#a030c2e98b1775a7e3bdd13be1400b1fe" target="_top" xlink:title="JS_NewObjectFromShape">
<polygon fill="none" stroke="#ff0000" points="546,-.5 546,-19.5 684,-19.5 684,-.5 546,-.5"/>
<text text-anchor="middle" x="615" y="-7.5" font-family="Helvetica,sans-Serif" font-size="10.00" fill="#000000">JS_NewObjectFromShape</text>
</a>
</g>
</g>
<!-- Node346184&#45;&gt;Node346201 -->
<g id="edge12" class="edge">
<title>Node346184&#45;&gt;Node346201</title>
<path fill="none" stroke="#191970" d="M451.3788,-95.3611C469.1896,-79.3184 507.3095,-47.1166 545,-29 549.8945,-26.6474 555.1264,-24.5482 560.4431,-22.6839"/>
<polygon fill="#191970" stroke="#191970" points="561.6121,-25.9844 570.0503,-19.5777 559.4585,-19.3239 561.6121,-25.9844"/>
</g>
<!-- Node346201&#45;&gt;Node346144 -->
<g id="edge13" class="edge">
<title>Node346201&#45;&gt;Node346144</title>
<path fill="none" stroke="#191970" d="M665.1874,-19.5604C672.1413,-22.0262 678.9612,-25.1202 685,-29 715.5176,-48.6069 740.1883,-83.7624 753.4207,-105.37"/>
<polygon fill="#191970" stroke="#191970" points="750.5673,-107.4204 758.6755,-114.24 756.5898,-103.8525 750.5673,-107.4204"/>
</g>
</g>
</svg>
        <g id="navigator" transform="translate(0 0)" fill="#404254">
                <rect fill="#f2f5e9" fill-opacity="0.5" stroke="#606060" stroke-width=".5" x="0" y="0" width="60" height="60"/>
                <use id="zoomplus" xlink:href="#zoomPlus" x="17" y="9" onmousedown="handleZoom(evt,'in')"/>
                <use id="zoomminus" xlink:href="#zoomMin" x="42" y="9" onmousedown="handleZoom(evt,'out')"/>
                <use id="reset" xlink:href="#resetDef" x="30" y="36" onmousedown="handleReset()"/>
                <g id="arrowUp" xlink:href="#dirArrow" transform="translate(30 24)" onmousedown="handlePan(0,-1)">
                  <use xlink:href="#rim" fill="#404040">
                        <set attributeName="fill" to="#808080" begin="arrowUp.mouseover" end="arrowUp.mouseout"/>
                  </use>
                  <path fill="none" stroke="white" stroke-width="1.5" d="M0,-3.0v7 M-2.5,-0.5L0,-3.0L2.5,-0.5"/>
                </g>
                <g id="arrowRight" xlink:href="#dirArrow" transform="rotate(90) translate(36 -43)" onmousedown="handlePan(1,0)">
                  <use xlink:href="#rim" fill="#404040">
                        <set attributeName="fill" to="#808080" begin="arrowRight.mouseover" end="arrowRight.mouseout"/>
                  </use>
                  <path fill="none" stroke="white" stroke-width="1.5" d="M0,-3.0v7 M-2.5,-0.5L0,-3.0L2.5,-0.5"/>
                </g>
                <g id="arrowDown" xlink:href="#dirArrow" transform="rotate(180) translate(-30 -48)" onmousedown="handlePan(0,1)">
                  <use xlink:href="#rim" fill="#404040">
                        <set attributeName="fill" to="#808080" begin="arrowDown.mouseover" end="arrowDown.mouseout"/>
                  </use>
                  <path fill="none" stroke="white" stroke-width="1.5" d="M0,-3.0v7 M-2.5,-0.5L0,-3.0L2.5,-0.5"/>
                </g>
                <g id="arrowLeft" xlink:href="#dirArrow" transform="rotate(270) translate(-36 17)" onmousedown="handlePan(-1,0)">
                  <use xlink:href="#rim" fill="#404040">
                        <set attributeName="fill" to="#808080" begin="arrowLeft.mouseover" end="arrowLeft.mouseout"/>
                  </use>
                  <path fill="none" stroke="white" stroke-width="1.5" d="M0,-3.0v7 M-2.5,-0.5L0,-3.0L2.5,-0.5"/>
                </g>
        </g>
        <svg viewBox="0 0 15 15" width="100%" height="30px" preserveAspectRatio="xMaxYMin meet">
         <g id="arrow_out" transform="scale(0.3 0.3)">
          <a xlink:href="quickjs_8c_a2d91a9da16cf07ff3b9ec053b870c335_cgraph_org.svg" target="_base">
           <rect id="button" ry="5" rx="5" y="6" x="6" height="38" width="38"
                fill="#f2f5e9" fill-opacity="0.5" stroke="#606060" stroke-width="1.0"/>
           <path id="arrow"
             d="M 11.500037,31.436501 C 11.940474,20.09759 22.043105,11.32322 32.158766,21.979434 L 37.068811,17.246167 C 37.068811,17.246167 37.088388,32 37.088388,32 L 22.160133,31.978069 C 22.160133,31.978069 26.997745,27.140456 26.997745,27.140456 C 18.528582,18.264221 13.291696,25.230495 11.500037,31.436501 z"
             style="fill:#404040;"/>
          </a>
         </g>
        </svg>
</svg>
