<?xml version="1.0" encoding="UTF-8" standalone="no"?>
<!DOCTYPE svg PUBLIC "-//W3C//DTD SVG 1.1//EN"
 "http://www.w3.org/Graphics/SVG/1.1/DTD/svg11.dtd">
<!-- Generated by graphviz version 2.40.1 (20161225.0304)
 -->
<!-- Title: bc_put_u64 Pages: 1 -->
<!--zoomable 161 -->
<svg id="main" version="1.1" xmlns="http://www.w3.org/2000/svg" xmlns:xlink="http://www.w3.org/1999/xlink" xml:space="preserve" onload="init(evt)">
<style type="text/css"><![CDATA[
.edge:hover path { stroke: red; }
.edge:hover polygon { stroke: red; fill: red; }
]]></style>
<script type="text/javascript"><![CDATA[
var edges = document.getElementsByTagName('g');
if (edges && edges.length) {
  for (var i=0;i<edges.length;i++) {
    if (edges[i].id.substr(0,4)=='edge') {
      edges[i].setAttribute('class','edge');
    }
  }
}
]]></script>
        <defs>
                <circle id="rim" cx="0" cy="0" r="7"/>
                <circle id="rim2" cx="0" cy="0" r="3.5"/>
                <g id="zoomPlus">
                        <use xlink:href="#rim" fill="#404040">
                                <set attributeName="fill" to="#808080" begin="zoomplus.mouseover" end="zoomplus.mouseout"/>
                        </use>
                        <path d="M-4,0h8M0,-4v8" fill="none" stroke="white" stroke-width="1.5" pointer-events="none"/>
                </g>
                <g id="zoomMin">
                        <use xlink:href="#rim" fill="#404040">
                                <set attributeName="fill" to="#808080" begin="zoomminus.mouseover" end="zoomminus.mouseout"/>
                        </use>
                        <path d="M-4,0h8" fill="none" stroke="white" stroke-width="1.5" pointer-events="none"/>
                </g>
                <g id="dirArrow">
                        <path fill="none" stroke="white" stroke-width="1.5" d="M0,-3.0v7 M-2.5,-0.5L0,-3.0L2.5,-0.5"/>
                </g>
               <g id="resetDef">
                       <use xlink:href="#rim2" fill="#404040">
                               <set attributeName="fill" to="#808080" begin="reset.mouseover" end="reset.mouseout"/>
                       </use>
               </g>
        </defs>

<script type="text/javascript">
var viewWidth = 719;
var viewHeight = 161;
var sectionId = 'dynsection-1280';
</script>
<script xlink:href="svgpan.js"/>
<svg id="graph" class="graph">
<g id="viewport">
<title>bc_put_u64</title>
<!-- Node361295 -->
<g id="node1" class="node">
<title>Node361295</title>
<polygon fill="#bfbfbf" stroke="#000000" points="0,-95.5 0,-114.5 72,-114.5 72,-95.5 0,-95.5"/>
<text text-anchor="middle" x="36" y="-102.5" font-family="Helvetica,sans-Serif" font-size="10.00" fill="#000000">bc_put_u64</text>
</g>
<!-- Node361296 -->
<g id="node2" class="node">
<title>Node361296</title>
<g id="a_node2"><a xlink:href="quickjs_8c.html#aa9342f7444c1c9f8743d43aa4d7f89e3" target="_top" xlink:title="JS_WriteObjectRec">
<polygon fill="none" stroke="#000000" points="290,-95.5 290,-114.5 395,-114.5 395,-95.5 290,-95.5"/>
<text text-anchor="middle" x="342.5" y="-102.5" font-family="Helvetica,sans-Serif" font-size="10.00" fill="#000000">JS_WriteObjectRec</text>
</a>
</g>
</g>
<!-- Node361295&#45;&gt;Node361296 -->
<g id="edge1" class="edge">
<title>Node361295&#45;&gt;Node361296</title>
<path fill="none" stroke="#191970" d="M82.3557,-105C138.1276,-105 231.5306,-105 289.935,-105"/>
<polygon fill="#191970" stroke="#191970" points="82.0608,-101.5001 72.0607,-105 82.0607,-108.5001 82.0608,-101.5001"/>
</g>
<!-- Node361303 -->
<g id="node9" class="node">
<title>Node361303</title>
<g id="a_node9"><a xlink:href="quickjs_8c.html#a7d118830f69bffb6590c82bd3c077ac5" target="_top" xlink:title="JS_WriteSharedArrayBuffer">
<polygon fill="none" stroke="#000000" points="108,-76.5 108,-95.5 254,-95.5 254,-76.5 108,-76.5"/>
<text text-anchor="middle" x="181" y="-83.5" font-family="Helvetica,sans-Serif" font-size="10.00" fill="#000000">JS_WriteSharedArrayBuffer</text>
</a>
</g>
</g>
<!-- Node361295&#45;&gt;Node361303 -->
<g id="edge12" class="edge">
<title>Node361295&#45;&gt;Node361303</title>
<path fill="none" stroke="#191970" d="M82.1622,-98.9512C90.569,-97.8496 99.5227,-96.6763 108.4768,-95.503"/>
<polygon fill="#191970" stroke="#191970" points="81.6761,-95.4849 72.2156,-100.2545 82.5856,-102.4255 81.6761,-95.4849"/>
</g>
<!-- Node361296&#45;&gt;Node361296 -->
<g id="edge8" class="edge">
<title>Node361296&#45;&gt;Node361296</title>
<path fill="none" stroke="#191970" d="M315.6208,-123.6539C316.7444,-128.9368 325.7041,-133 342.5,-133 368.0938,-133 375.4919,-123.5653 364.6946,-114.7571"/>
<polygon fill="#191970" stroke="#191970" points="318.7433,-125.2361 320.3054,-114.7571 312.5494,-121.9747 318.7433,-125.2361"/>
</g>
<!-- Node361297 -->
<g id="node3" class="node">
<title>Node361297</title>
<g id="a_node3"><a xlink:href="quickjs_8c.html#aba35628e2e963dca8fa201e6708046d6" target="_top" xlink:title="JS_WriteArray">
<polygon fill="none" stroke="#000000" points="445,-133.5 445,-152.5 528,-152.5 528,-133.5 445,-133.5"/>
<text text-anchor="middle" x="486.5" y="-140.5" font-family="Helvetica,sans-Serif" font-size="10.00" fill="#000000">JS_WriteArray</text>
</a>
</g>
</g>
<!-- Node361296&#45;&gt;Node361297 -->
<g id="edge2" class="edge">
<title>Node361296&#45;&gt;Node361297</title>
<path fill="none" stroke="#191970" d="M405.3166,-114.8756C428.1265,-120.6501 452.1865,-127.671 468.1366,-133.4684"/>
<polygon fill="#191970" stroke="#191970" points="405.8502,-111.4023 395.3026,-112.402 404.1714,-118.198 405.8502,-111.4023"/>
</g>
<!-- Node361298 -->
<g id="node4" class="node">
<title>Node361298</title>
<g id="a_node4"><a xlink:href="quickjs_8c.html#a3da261d6aeb1d35f3fb47a0076752a57" target="_top" xlink:title="JS_WriteObjectTag">
<polygon fill="none" stroke="#000000" points="434.5,-95.5 434.5,-114.5 538.5,-114.5 538.5,-95.5 434.5,-95.5"/>
<text text-anchor="middle" x="486.5" y="-102.5" font-family="Helvetica,sans-Serif" font-size="10.00" fill="#000000">JS_WriteObjectTag</text>
</a>
</g>
</g>
<!-- Node361296&#45;&gt;Node361298 -->
<g id="edge4" class="edge">
<title>Node361296&#45;&gt;Node361298</title>
<path fill="none" stroke="#191970" d="M405.5578,-98.2965C415.116,-98.1966 424.8876,-98.2576 434.185,-98.4794"/>
<polygon fill="#191970" stroke="#191970" points="405.2427,-94.8012 395.3026,-98.4679 405.3598,-101.8002 405.2427,-94.8012"/>
</g>
<!-- Node361299 -->
<g id="node5" class="node">
<title>Node361299</title>
<g id="a_node5"><a xlink:href="quickjs_8c.html#ab24f0a3286c69433ab7e48dcc39c36cb" target="_top" xlink:title="JS_WriteTypedArray">
<polygon fill="none" stroke="#000000" points="431,-57.5 431,-76.5 542,-76.5 542,-57.5 431,-57.5"/>
<text text-anchor="middle" x="486.5" y="-64.5" font-family="Helvetica,sans-Serif" font-size="10.00" fill="#000000">JS_WriteTypedArray</text>
</a>
</g>
</g>
<!-- Node361296&#45;&gt;Node361299 -->
<g id="edge6" class="edge">
<title>Node361296&#45;&gt;Node361299</title>
<path fill="none" stroke="#191970" d="M370.9218,-91.9979C387.9974,-86.3658 410.3151,-80.1123 430.7808,-75.1095"/>
<polygon fill="#191970" stroke="#191970" points="369.344,-88.8396 361.0307,-95.4076 371.6254,-95.4574 369.344,-88.8396"/>
</g>
<!-- Node361300 -->
<g id="node6" class="node">
<title>Node361300</title>
<g id="a_node6"><a xlink:href="quickjs_8c.html#a431ceb41084feaa6af4e466b8b772ab1" target="_top" xlink:title="JS_WriteObject2">
<polygon fill="none" stroke="#000000" points="439.5,-19.5 439.5,-38.5 533.5,-38.5 533.5,-19.5 439.5,-19.5"/>
<text text-anchor="middle" x="486.5" y="-26.5" font-family="Helvetica,sans-Serif" font-size="10.00" fill="#000000">JS_WriteObject2</text>
</a>
</g>
</g>
<!-- Node361296&#45;&gt;Node361300 -->
<g id="edge9" class="edge">
<title>Node361296&#45;&gt;Node361300</title>
<path fill="none" stroke="#191970" d="M363.4049,-89.4635C380.8213,-77.0385 406.6285,-59.8033 431,-48 438.3328,-44.4487 446.5025,-41.2614 454.27,-38.5576"/>
<polygon fill="#191970" stroke="#191970" points="361.1601,-86.7678 355.1142,-95.4682 365.2662,-92.437 361.1601,-86.7678"/>
</g>
<!-- Node361297&#45;&gt;Node361296 -->
<g id="edge3" class="edge">
<title>Node361297&#45;&gt;Node361296</title>
<path fill="none" stroke="#191970" d="M434.7622,-135.8536C409.0594,-129.7038 379.6062,-121.33 361.0307,-114.5924"/>
<polygon fill="#191970" stroke="#191970" points="434.2329,-139.3237 444.7654,-138.176 435.816,-132.5051 434.2329,-139.3237"/>
</g>
<!-- Node361298&#45;&gt;Node361296 -->
<g id="edge5" class="edge">
<title>Node361298&#45;&gt;Node361296</title>
<path fill="none" stroke="#191970" d="M423.9428,-111.6981C414.3923,-111.8036 404.6163,-111.7482 395.3026,-111.5321"/>
<polygon fill="#191970" stroke="#191970" points="424.2472,-115.1935 434.185,-111.5206 424.1258,-108.1945 424.2472,-115.1935"/>
</g>
<!-- Node361299&#45;&gt;Node361296 -->
<g id="edge7" class="edge">
<title>Node361299&#45;&gt;Node361296</title>
<path fill="none" stroke="#191970" d="M458.5748,-79.838C440.6268,-85.7807 416.74,-92.4385 395.3026,-97.598"/>
<polygon fill="#191970" stroke="#191970" points="459.8295,-83.1075 468.1366,-76.5316 457.5419,-76.4919 459.8295,-83.1075"/>
</g>
<!-- Node361301 -->
<g id="node7" class="node">
<title>Node361301</title>
<g id="a_node7"><a xlink:href="quickjs-libc_8c.html#ab995f33d3c307ae55a13a18b88023d15" target="_top" xlink:title="js_worker_postMessage">
<polygon fill="none" stroke="#000000" points="578,-38.5 578,-57.5 711,-57.5 711,-38.5 578,-38.5"/>
<text text-anchor="middle" x="644.5" y="-45.5" font-family="Helvetica,sans-Serif" font-size="10.00" fill="#000000">js_worker_postMessage</text>
</a>
</g>
</g>
<!-- Node361300&#45;&gt;Node361301 -->
<g id="edge10" class="edge">
<title>Node361300&#45;&gt;Node361301</title>
<path fill="none" stroke="#191970" d="M543.8469,-35.8961C554.8894,-37.224 566.5436,-38.6255 577.8516,-39.9853"/>
<polygon fill="#191970" stroke="#191970" points="544.2516,-32.4197 533.9052,-34.7006 543.4158,-39.3696 544.2516,-32.4197"/>
</g>
<!-- Node361302 -->
<g id="node8" class="node">
<title>Node361302</title>
<g id="a_node8"><a xlink:href="quickjs_8c.html#a8c807d481615ed55818787ae89621a37" target="_top" xlink:title="JS_WriteObject">
<polygon fill="none" stroke="#000000" points="600.5,-.5 600.5,-19.5 688.5,-19.5 688.5,-.5 600.5,-.5"/>
<text text-anchor="middle" x="644.5" y="-7.5" font-family="Helvetica,sans-Serif" font-size="10.00" fill="#000000">JS_WriteObject</text>
</a>
</g>
</g>
<!-- Node361300&#45;&gt;Node361302 -->
<g id="edge11" class="edge">
<title>Node361300&#45;&gt;Node361302</title>
<path fill="none" stroke="#191970" d="M544.0248,-22.0825C562.6101,-19.8475 582.9113,-17.4062 600.37,-15.3068"/>
<polygon fill="#191970" stroke="#191970" points="543.4158,-18.6304 533.9052,-23.2994 544.2516,-25.5803 543.4158,-18.6304"/>
</g>
<!-- Node361303&#45;&gt;Node361296 -->
<g id="edge13" class="edge">
<title>Node361303&#45;&gt;Node361296</title>
<path fill="none" stroke="#191970" d="M264.3593,-95.807C273.0271,-96.8267 281.6548,-97.8417 289.8423,-98.805"/>
<polygon fill="#191970" stroke="#191970" points="264.53,-92.303 254.1895,-94.6105 263.7121,-99.2551 264.53,-92.303"/>
</g>
</g>
</svg>
        <g id="navigator" transform="translate(0 0)" fill="#404254">
                <rect fill="#f2f5e9" fill-opacity="0.5" stroke="#606060" stroke-width=".5" x="0" y="0" width="60" height="60"/>
                <use id="zoomplus" xlink:href="#zoomPlus" x="17" y="9" onmousedown="handleZoom(evt,'in')"/>
                <use id="zoomminus" xlink:href="#zoomMin" x="42" y="9" onmousedown="handleZoom(evt,'out')"/>
                <use id="reset" xlink:href="#resetDef" x="30" y="36" onmousedown="handleReset()"/>
                <g id="arrowUp" xlink:href="#dirArrow" transform="translate(30 24)" onmousedown="handlePan(0,-1)">
                  <use xlink:href="#rim" fill="#404040">
                        <set attributeName="fill" to="#808080" begin="arrowUp.mouseover" end="arrowUp.mouseout"/>
                  </use>
                  <path fill="none" stroke="white" stroke-width="1.5" d="M0,-3.0v7 M-2.5,-0.5L0,-3.0L2.5,-0.5"/>
                </g>
                <g id="arrowRight" xlink:href="#dirArrow" transform="rotate(90) translate(36 -43)" onmousedown="handlePan(1,0)">
                  <use xlink:href="#rim" fill="#404040">
                        <set attributeName="fill" to="#808080" begin="arrowRight.mouseover" end="arrowRight.mouseout"/>
                  </use>
                  <path fill="none" stroke="white" stroke-width="1.5" d="M0,-3.0v7 M-2.5,-0.5L0,-3.0L2.5,-0.5"/>
                </g>
                <g id="arrowDown" xlink:href="#dirArrow" transform="rotate(180) translate(-30 -48)" onmousedown="handlePan(0,1)">
                  <use xlink:href="#rim" fill="#404040">
                        <set attributeName="fill" to="#808080" begin="arrowDown.mouseover" end="arrowDown.mouseout"/>
                  </use>
                  <path fill="none" stroke="white" stroke-width="1.5" d="M0,-3.0v7 M-2.5,-0.5L0,-3.0L2.5,-0.5"/>
                </g>
                <g id="arrowLeft" xlink:href="#dirArrow" transform="rotate(270) translate(-36 17)" onmousedown="handlePan(-1,0)">
                  <use xlink:href="#rim" fill="#404040">
                        <set attributeName="fill" to="#808080" begin="arrowLeft.mouseover" end="arrowLeft.mouseout"/>
                  </use>
                  <path fill="none" stroke="white" stroke-width="1.5" d="M0,-3.0v7 M-2.5,-0.5L0,-3.0L2.5,-0.5"/>
                </g>
        </g>
        <svg viewBox="0 0 15 15" width="100%" height="30px" preserveAspectRatio="xMaxYMin meet">
         <g id="arrow_out" transform="scale(0.3 0.3)">
          <a xlink:href="quickjs_8c_a62769be0f680a8dc54843456a730d84a_icgraph_org.svg" target="_base">
           <rect id="button" ry="5" rx="5" y="6" x="6" height="38" width="38"
                fill="#f2f5e9" fill-opacity="0.5" stroke="#606060" stroke-width="1.0"/>
           <path id="arrow"
             d="M 11.500037,31.436501 C 11.940474,20.09759 22.043105,11.32322 32.158766,21.979434 L 37.068811,17.246167 C 37.068811,17.246167 37.088388,32 37.088388,32 L 22.160133,31.978069 C 22.160133,31.978069 26.997745,27.140456 26.997745,27.140456 C 18.528582,18.264221 13.291696,25.230495 11.500037,31.436501 z"
             style="fill:#404040;"/>
          </a>
         </g>
        </svg>
</svg>
