<?xml version="1.0" encoding="UTF-8" standalone="no"?>
<!DOCTYPE svg PUBLIC "-//W3C//DTD SVG 1.1//EN"
 "http://www.w3.org/Graphics/SVG/1.1/DTD/svg11.dtd">
<!-- Generated by graphviz version 2.40.1 (20161225.0304)
 -->
<!-- Title: add_arg Pages: 1 -->
<!--zoomable 221 -->
<svg id="main" version="1.1" xmlns="http://www.w3.org/2000/svg" xmlns:xlink="http://www.w3.org/1999/xlink" xml:space="preserve" onload="init(evt)">
<style type="text/css"><![CDATA[
.edge:hover path { stroke: red; }
.edge:hover polygon { stroke: red; fill: red; }
]]></style>
<script type="text/javascript"><![CDATA[
var edges = document.getElementsByTagName('g');
if (edges && edges.length) {
  for (var i=0;i<edges.length;i++) {
    if (edges[i].id.substr(0,4)=='edge') {
      edges[i].setAttribute('class','edge');
    }
  }
}
]]></script>
        <defs>
                <circle id="rim" cx="0" cy="0" r="7"/>
                <circle id="rim2" cx="0" cy="0" r="3.5"/>
                <g id="zoomPlus">
                        <use xlink:href="#rim" fill="#404040">
                                <set attributeName="fill" to="#808080" begin="zoomplus.mouseover" end="zoomplus.mouseout"/>
                        </use>
                        <path d="M-4,0h8M0,-4v8" fill="none" stroke="white" stroke-width="1.5" pointer-events="none"/>
                </g>
                <g id="zoomMin">
                        <use xlink:href="#rim" fill="#404040">
                                <set attributeName="fill" to="#808080" begin="zoomminus.mouseover" end="zoomminus.mouseout"/>
                        </use>
                        <path d="M-4,0h8" fill="none" stroke="white" stroke-width="1.5" pointer-events="none"/>
                </g>
                <g id="dirArrow">
                        <path fill="none" stroke="white" stroke-width="1.5" d="M0,-3.0v7 M-2.5,-0.5L0,-3.0L2.5,-0.5"/>
                </g>
               <g id="resetDef">
                       <use xlink:href="#rim2" fill="#404040">
                               <set attributeName="fill" to="#808080" begin="reset.mouseover" end="reset.mouseout"/>
                       </use>
               </g>
        </defs>

<script type="text/javascript">
var viewWidth = 917;
var viewHeight = 221;
var sectionId = 'dynsection-983';
</script>
<script xlink:href="svgpan.js"/>
<svg id="graph" class="graph">
<g id="viewport">
<title>add_arg</title>
<!-- Node313675 -->
<g id="node1" class="node">
<title>Node313675</title>
<polygon fill="#bfbfbf" stroke="#000000" points="0,-120.6763 0,-139.6763 56,-139.6763 56,-120.6763 0,-120.6763"/>
<text text-anchor="middle" x="28" y="-127.6763" font-family="Helvetica,sans-Serif" font-size="10.00" fill="#000000">add_arg</text>
</g>
<!-- Node313676 -->
<g id="node2" class="node">
<title>Node313676</title>
<g id="a_node2"><a xlink:href="quickjs_8c.html#acc9eb677cab8dfcf45f59381f8a19601" target="_top" xlink:title="js_parse_function_decl2">
<polygon fill="none" stroke="#000000" points="92,-120.6763 92,-139.6763 226,-139.6763 226,-120.6763 92,-120.6763"/>
<text text-anchor="middle" x="159" y="-127.6763" font-family="Helvetica,sans-Serif" font-size="10.00" fill="#000000">js_parse_function_decl2</text>
</a>
</g>
</g>
<!-- Node313675&#45;&gt;Node313676 -->
<g id="edge1" class="edge">
<title>Node313675&#45;&gt;Node313676</title>
<path fill="none" stroke="#191970" d="M66.2862,-130.1763C74.3676,-130.1763 83.1214,-130.1763 91.9133,-130.1763"/>
<polygon fill="#191970" stroke="#191970" points="66.1028,-126.6764 56.1028,-130.1763 66.1028,-133.6764 66.1028,-126.6764"/>
</g>
<!-- Node313677 -->
<g id="node3" class="node">
<title>Node313677</title>
<g id="a_node3"><a xlink:href="quickjs_8c.html#adf95ddf430ef93fd9efea1cc2f8a2fbe" target="_top" xlink:title="js_parse_class_default_ctor">
<polygon fill="none" stroke="#000000" points="262,-120.6763 262,-139.6763 413,-139.6763 413,-120.6763 262,-120.6763"/>
<text text-anchor="middle" x="337.5" y="-127.6763" font-family="Helvetica,sans-Serif" font-size="10.00" fill="#000000">js_parse_class_default_ctor</text>
</a>
</g>
</g>
<!-- Node313676&#45;&gt;Node313677 -->
<g id="edge2" class="edge">
<title>Node313676&#45;&gt;Node313677</title>
<path fill="none" stroke="#191970" d="M236.4548,-130.1763C244.9139,-130.1763 253.5169,-130.1763 261.9526,-130.1763"/>
<polygon fill="#191970" stroke="#191970" points="236.2289,-126.6764 226.2288,-130.1763 236.2288,-133.6764 236.2289,-126.6764"/>
</g>
<!-- Node313678 -->
<g id="node4" class="node">
<title>Node313678</title>
<g id="a_node4"><a xlink:href="quickjs_8c.html#a00eb789430243c24dab4a63ad6a79653" target="_top" xlink:title="js_parse_class">
<polygon fill="none" stroke="#000000" points="468.5,-120.6763 468.5,-139.6763 555.5,-139.6763 555.5,-120.6763 468.5,-120.6763"/>
<text text-anchor="middle" x="512" y="-127.6763" font-family="Helvetica,sans-Serif" font-size="10.00" fill="#000000">js_parse_class</text>
</a>
</g>
</g>
<!-- Node313676&#45;&gt;Node313678 -->
<g id="edge12" class="edge">
<title>Node313676&#45;&gt;Node313678</title>
<path fill="none" stroke="#191970" d="M210.7465,-118.7252C227.0593,-115.6295 245.2048,-112.7124 262,-111.1763 328.8322,-105.0637 346.1903,-104.8232 413,-111.1763 432.5133,-113.0319 453.9017,-116.9005 471.7895,-120.6657"/>
<polygon fill="#191970" stroke="#191970" points="209.9943,-115.306 200.8548,-120.6651 211.3415,-122.1751 209.9943,-115.306"/>
</g>
<!-- Node313695 -->
<g id="node8" class="node">
<title>Node313695</title>
<g id="a_node8"><a xlink:href="quickjs_8c.html#a498e1d5c7de1b59c1630e9847cde1e41" target="_top" xlink:title="js_parse_export">
<polygon fill="none" stroke="#000000" points="625,-158.6763 625,-177.6763 719,-177.6763 719,-158.6763 625,-158.6763"/>
<text text-anchor="middle" x="672" y="-165.6763" font-family="Helvetica,sans-Serif" font-size="10.00" fill="#000000">js_parse_export</text>
</a>
</g>
</g>
<!-- Node313676&#45;&gt;Node313695 -->
<g id="edge13" class="edge">
<title>Node313676&#45;&gt;Node313695</title>
<path fill="none" stroke="#191970" d="M213.218,-141.6071C228.8927,-144.5228 246.0698,-147.3465 262,-149.1763 392.7873,-164.1989 548.3383,-167.4341 624.7933,-168.0713"/>
<polygon fill="#191970" stroke="#191970" points="213.6416,-138.1248 203.1626,-139.6873 212.3288,-145.0006 213.6416,-138.1248"/>
</g>
<!-- Node313711 -->
<g id="node9" class="node">
<title>Node313711</title>
<g id="a_node9"><a xlink:href="quickjs_8c.html#a3cad0b329e5f016dce8d42b4196c3499" target="_top" xlink:title="js_parse_function_decl">
<polygon fill="none" stroke="#000000" points="273.5,-44.6763 273.5,-63.6763 401.5,-63.6763 401.5,-44.6763 273.5,-44.6763"/>
<text text-anchor="middle" x="337.5" y="-51.6763" font-family="Helvetica,sans-Serif" font-size="10.00" fill="#000000">js_parse_function_decl</text>
</a>
</g>
</g>
<!-- Node313676&#45;&gt;Node313711 -->
<g id="edge14" class="edge">
<title>Node313676&#45;&gt;Node313711</title>
<path fill="none" stroke="#191970" d="M184.7555,-115.7239C205.273,-104.5682 234.9435,-89.2238 262,-78.1763 275.3701,-72.7171 290.4737,-67.6987 303.6397,-63.6779"/>
<polygon fill="#191970" stroke="#191970" points="182.8221,-112.7926 175.7429,-120.6752 186.1926,-118.9278 182.8221,-112.7926"/>
</g>
<!-- Node313677&#45;&gt;Node313678 -->
<g id="edge3" class="edge">
<title>Node313677&#45;&gt;Node313678</title>
<path fill="none" stroke="#191970" d="M423.2035,-130.1763C438.7409,-130.1763 454.3437,-130.1763 468.0402,-130.1763"/>
<polygon fill="#191970" stroke="#191970" points="423.0234,-126.6764 413.0233,-130.1763 423.0233,-133.6764 423.0234,-126.6764"/>
</g>
<!-- Node313679 -->
<g id="node5" class="node">
<title>Node313679</title>
<g id="a_node5"><a xlink:href="quickjs_8c.html#a840642c87c5a82d4cc68333376a3b6de" target="_top" xlink:title="js_parse_postfix_expr">
<polygon fill="none" stroke="#ff0000" points="611,-34.6763 611,-53.6763 733,-53.6763 733,-34.6763 611,-34.6763"/>
<text text-anchor="middle" x="672" y="-41.6763" font-family="Helvetica,sans-Serif" font-size="10.00" fill="#000000">js_parse_postfix_expr</text>
</a>
</g>
</g>
<!-- Node313678&#45;&gt;Node313679 -->
<g id="edge4" class="edge">
<title>Node313678&#45;&gt;Node313679</title>
<path fill="none" stroke="#191970" d="M538.7552,-115.7954C571.5304,-98.1787 626.1441,-68.8239 654.1864,-53.7511"/>
<polygon fill="#191970" stroke="#191970" points="536.8853,-112.8268 529.7341,-120.6442 540.1995,-118.9926 536.8853,-112.8268"/>
</g>
<!-- Node313683 -->
<g id="node6" class="node">
<title>Node313683</title>
<g id="a_node6"><a xlink:href="quickjs_8c.html#a9d844c16dcc71701436848074337d32c" target="_top" xlink:title="js_parse_statement\l_or_decl">
<polygon fill="none" stroke="#ff0000" points="615.5,-91.1763 615.5,-121.1763 728.5,-121.1763 728.5,-91.1763 615.5,-91.1763"/>
<text text-anchor="start" x="623.5" y="-109.1763" font-family="Helvetica,sans-Serif" font-size="10.00" fill="#000000">js_parse_statement</text>
<text text-anchor="middle" x="672" y="-98.1763" font-family="Helvetica,sans-Serif" font-size="10.00" fill="#000000">_or_decl</text>
</a>
</g>
</g>
<!-- Node313678&#45;&gt;Node313683 -->
<g id="edge6" class="edge">
<title>Node313678&#45;&gt;Node313683</title>
<path fill="none" stroke="#191970" d="M565.9305,-122.0867C581.8529,-119.6984 599.3221,-117.078 615.4071,-114.6652"/>
<polygon fill="#191970" stroke="#191970" points="565.0908,-118.6734 555.7207,-123.6182 566.1293,-125.596 565.0908,-118.6734"/>
</g>
<!-- Node313678&#45;&gt;Node313695 -->
<g id="edge10" class="edge">
<title>Node313678&#45;&gt;Node313695</title>
<path fill="none" stroke="#191970" d="M562.3915,-142.1443C584.813,-147.4694 610.8472,-153.6525 631.9156,-158.6562"/>
<polygon fill="#191970" stroke="#191970" points="562.9129,-138.6708 552.3748,-139.7653 561.2953,-145.4814 562.9129,-138.6708"/>
</g>
<!-- Node313679&#45;&gt;Node313679 -->
<g id="edge5" class="edge">
<title>Node313679&#45;&gt;Node313679</title>
<path fill="none" stroke="#191970" d="M642.0599,-62.4509C642.9135,-67.9173 652.8936,-72.1763 672,-72.1763 700.4375,-72.1763 708.6577,-62.7416 696.6606,-53.9334"/>
<polygon fill="#191970" stroke="#191970" points="645.0458,-64.277 647.3394,-53.9334 639.096,-60.5891 645.0458,-64.277"/>
</g>
<!-- Node313683&#45;&gt;Node313683 -->
<g id="edge7" class="edge">
<title>Node313683&#45;&gt;Node313683</title>
<path fill="none" stroke="#191970" d="M643.5699,-131.6342C647.0985,-136.3553 656.5752,-139.6763 672,-139.6763 697.3125,-139.6763 706.6069,-130.7329 699.8833,-121.3353"/>
<polygon fill="#191970" stroke="#191970" points="647.0815,-131.5068 644.1167,-121.3353 640.0914,-131.1356 647.0815,-131.5068"/>
</g>
<!-- Node313687 -->
<g id="node7" class="node">
<title>Node313687</title>
<g id="a_node7"><a xlink:href="quickjs_8c.html#ab59a3267a100decc9d2d81eb3297794a" target="_top" xlink:title="js_parse_source_element">
<polygon fill="none" stroke="#ff0000" points="769,-127.6763 769,-146.6763 909,-146.6763 909,-127.6763 769,-127.6763"/>
<text text-anchor="middle" x="839" y="-134.6763" font-family="Helvetica,sans-Serif" font-size="10.00" fill="#000000">js_parse_source_element</text>
</a>
</g>
</g>
<!-- Node313683&#45;&gt;Node313687 -->
<g id="edge8" class="edge">
<title>Node313683&#45;&gt;Node313687</title>
<path fill="none" stroke="#191970" d="M738.5579,-118.5314C754.8745,-121.5602 772.092,-124.7562 787.5745,-127.6303"/>
<polygon fill="#191970" stroke="#191970" points="739.0094,-115.0555 728.5386,-116.6715 737.7318,-121.9379 739.0094,-115.0555"/>
</g>
<!-- Node313687&#45;&gt;Node313676 -->
<g id="edge9" class="edge">
<title>Node313687&#45;&gt;Node313676</title>
<path fill="none" stroke="#191970" d="M815.5748,-151.9383C794.7893,-164.1084 763.1319,-180.4263 733,-187.1763 528.5632,-232.9729 467.0698,-211.0495 262,-168.1763 232.3358,-161.9745 199.7871,-148.8177 179.3801,-139.7377"/>
<polygon fill="#191970" stroke="#191970" points="817.5453,-154.8376 824.3153,-146.6878 813.9407,-148.837 817.5453,-154.8376"/>
</g>
<!-- Node313695&#45;&gt;Node313687 -->
<g id="edge11" class="edge">
<title>Node313695&#45;&gt;Node313687</title>
<path fill="none" stroke="#191970" d="M729.3932,-157.5225C748.3168,-154.0097 769.2294,-150.1277 787.6706,-146.7045"/>
<polygon fill="#191970" stroke="#191970" points="728.602,-154.1095 719.4088,-159.3759 729.8797,-160.9919 728.602,-154.1095"/>
</g>
<!-- Node313711&#45;&gt;Node313679 -->
<g id="edge17" class="edge">
<title>Node313711&#45;&gt;Node313679</title>
<path fill="none" stroke="#191970" d="M393.0579,-42.8117C410.8474,-39.6835 430.6806,-36.726 449,-35.1763 504.8007,-30.456 519.0599,-32.5867 575,-35.1763 586.5727,-35.712 598.8973,-36.6054 610.7427,-37.6268"/>
<polygon fill="#191970" stroke="#191970" points="392.0614,-39.4353 382.8467,-44.664 393.3109,-46.3229 392.0614,-39.4353"/>
</g>
<!-- Node313711&#45;&gt;Node313683 -->
<g id="edge18" class="edge">
<title>Node313711&#45;&gt;Node313683</title>
<path fill="none" stroke="#191970" d="M401.8748,-65.3927C417.3013,-68.0122 433.7284,-70.7455 449,-73.1763 505.4295,-82.1584 570.0262,-91.6287 615.1204,-98.1089"/>
<polygon fill="#191970" stroke="#191970" points="402.3502,-61.9233 391.9041,-63.692 401.1732,-68.8236 402.3502,-61.9233"/>
</g>
<!-- Node313711&#45;&gt;Node313687 -->
<g id="edge19" class="edge">
<title>Node313711&#45;&gt;Node313687</title>
<path fill="none" stroke="#191970" d="M372.7317,-41.126C444.0967,-16.8868 609.4382,28.0078 733,-25.1763 782.9197,-46.663 820.3226,-104.4987 833.6701,-127.5253"/>
<polygon fill="#191970" stroke="#191970" points="371.2,-37.9527 362.9005,-44.5383 373.4953,-44.5657 371.2,-37.9527"/>
</g>
<!-- Node313704 -->
<g id="node10" class="node">
<title>Node313704</title>
<g id="a_node10"><a xlink:href="quickjs_8c.html#aee6d0acd87f136d43f157ae1426436e6" target="_top" xlink:title="js_parse_object_literal">
<polygon fill="none" stroke="#000000" points="449,-44.6763 449,-63.6763 575,-63.6763 575,-44.6763 449,-44.6763"/>
<text text-anchor="middle" x="512" y="-51.6763" font-family="Helvetica,sans-Serif" font-size="10.00" fill="#000000">js_parse_object_literal</text>
</a>
</g>
</g>
<!-- Node313711&#45;&gt;Node313704 -->
<g id="edge15" class="edge">
<title>Node313711&#45;&gt;Node313704</title>
<path fill="none" stroke="#191970" d="M412.1714,-54.1763C424.4227,-54.1763 437.012,-54.1763 448.9456,-54.1763"/>
<polygon fill="#191970" stroke="#191970" points="411.9816,-50.6764 401.9816,-54.1763 411.9815,-57.6764 411.9816,-50.6764"/>
</g>
<!-- Node313704&#45;&gt;Node313679 -->
<g id="edge16" class="edge">
<title>Node313704&#45;&gt;Node313679</title>
<path fill="none" stroke="#191970" d="M585.4864,-49.5834C593.9506,-49.0544 602.5127,-48.5193 610.7903,-48.0019"/>
<polygon fill="#191970" stroke="#191970" points="584.9984,-46.107 575.2362,-50.224 585.4351,-53.0933 584.9984,-46.107"/>
</g>
</g>
</svg>
        <g id="navigator" transform="translate(0 0)" fill="#404254">
                <rect fill="#f2f5e9" fill-opacity="0.5" stroke="#606060" stroke-width=".5" x="0" y="0" width="60" height="60"/>
                <use id="zoomplus" xlink:href="#zoomPlus" x="17" y="9" onmousedown="handleZoom(evt,'in')"/>
                <use id="zoomminus" xlink:href="#zoomMin" x="42" y="9" onmousedown="handleZoom(evt,'out')"/>
                <use id="reset" xlink:href="#resetDef" x="30" y="36" onmousedown="handleReset()"/>
                <g id="arrowUp" xlink:href="#dirArrow" transform="translate(30 24)" onmousedown="handlePan(0,-1)">
                  <use xlink:href="#rim" fill="#404040">
                        <set attributeName="fill" to="#808080" begin="arrowUp.mouseover" end="arrowUp.mouseout"/>
                  </use>
                  <path fill="none" stroke="white" stroke-width="1.5" d="M0,-3.0v7 M-2.5,-0.5L0,-3.0L2.5,-0.5"/>
                </g>
                <g id="arrowRight" xlink:href="#dirArrow" transform="rotate(90) translate(36 -43)" onmousedown="handlePan(1,0)">
                  <use xlink:href="#rim" fill="#404040">
                        <set attributeName="fill" to="#808080" begin="arrowRight.mouseover" end="arrowRight.mouseout"/>
                  </use>
                  <path fill="none" stroke="white" stroke-width="1.5" d="M0,-3.0v7 M-2.5,-0.5L0,-3.0L2.5,-0.5"/>
                </g>
                <g id="arrowDown" xlink:href="#dirArrow" transform="rotate(180) translate(-30 -48)" onmousedown="handlePan(0,1)">
                  <use xlink:href="#rim" fill="#404040">
                        <set attributeName="fill" to="#808080" begin="arrowDown.mouseover" end="arrowDown.mouseout"/>
                  </use>
                  <path fill="none" stroke="white" stroke-width="1.5" d="M0,-3.0v7 M-2.5,-0.5L0,-3.0L2.5,-0.5"/>
                </g>
                <g id="arrowLeft" xlink:href="#dirArrow" transform="rotate(270) translate(-36 17)" onmousedown="handlePan(-1,0)">
                  <use xlink:href="#rim" fill="#404040">
                        <set attributeName="fill" to="#808080" begin="arrowLeft.mouseover" end="arrowLeft.mouseout"/>
                  </use>
                  <path fill="none" stroke="white" stroke-width="1.5" d="M0,-3.0v7 M-2.5,-0.5L0,-3.0L2.5,-0.5"/>
                </g>
        </g>
        <svg viewBox="0 0 15 15" width="100%" height="30px" preserveAspectRatio="xMaxYMin meet">
         <g id="arrow_out" transform="scale(0.3 0.3)">
          <a xlink:href="quickjs_8c_aff573513d994f4e9ad7b0430c03ddc3d_icgraph_org.svg" target="_base">
           <rect id="button" ry="5" rx="5" y="6" x="6" height="38" width="38"
                fill="#f2f5e9" fill-opacity="0.5" stroke="#606060" stroke-width="1.0"/>
           <path id="arrow"
             d="M 11.500037,31.436501 C 11.940474,20.09759 22.043105,11.32322 32.158766,21.979434 L 37.068811,17.246167 C 37.068811,17.246167 37.088388,32 37.088388,32 L 22.160133,31.978069 C 22.160133,31.978069 26.997745,27.140456 26.997745,27.140456 C 18.528582,18.264221 13.291696,25.230495 11.500037,31.436501 z"
             style="fill:#404040;"/>
          </a>
         </g>
        </svg>
</svg>
