<?xml version="1.0" encoding="UTF-8" standalone="no"?>
<!DOCTYPE svg PUBLIC "-//W3C//DTD SVG 1.1//EN"
 "http://www.w3.org/Graphics/SVG/1.1/DTD/svg11.dtd">
<!-- Generated by graphviz version 2.40.1 (20161225.0304)
 -->
<!-- Title: JS_FreeContext Pages: 1 -->
<!--zoomable 322 -->
<svg id="main" version="1.1" xmlns="http://www.w3.org/2000/svg" xmlns:xlink="http://www.w3.org/1999/xlink" xml:space="preserve" onload="init(evt)">
<style type="text/css"><![CDATA[
.edge:hover path { stroke: red; }
.edge:hover polygon { stroke: red; fill: red; }
]]></style>
<script type="text/javascript"><![CDATA[
var edges = document.getElementsByTagName('g');
if (edges && edges.length) {
  for (var i=0;i<edges.length;i++) {
    if (edges[i].id.substr(0,4)=='edge') {
      edges[i].setAttribute('class','edge');
    }
  }
}
]]></script>
        <defs>
                <circle id="rim" cx="0" cy="0" r="7"/>
                <circle id="rim2" cx="0" cy="0" r="3.5"/>
                <g id="zoomPlus">
                        <use xlink:href="#rim" fill="#404040">
                                <set attributeName="fill" to="#808080" begin="zoomplus.mouseover" end="zoomplus.mouseout"/>
                        </use>
                        <path d="M-4,0h8M0,-4v8" fill="none" stroke="white" stroke-width="1.5" pointer-events="none"/>
                </g>
                <g id="zoomMin">
                        <use xlink:href="#rim" fill="#404040">
                                <set attributeName="fill" to="#808080" begin="zoomminus.mouseover" end="zoomminus.mouseout"/>
                        </use>
                        <path d="M-4,0h8" fill="none" stroke="white" stroke-width="1.5" pointer-events="none"/>
                </g>
                <g id="dirArrow">
                        <path fill="none" stroke="white" stroke-width="1.5" d="M0,-3.0v7 M-2.5,-0.5L0,-3.0L2.5,-0.5"/>
                </g>
               <g id="resetDef">
                       <use xlink:href="#rim2" fill="#404040">
                               <set attributeName="fill" to="#808080" begin="reset.mouseover" end="reset.mouseout"/>
                       </use>
               </g>
        </defs>

<script type="text/javascript">
var viewWidth = 733;
var viewHeight = 322;
var sectionId = 'dynsection-18';
</script>
<script xlink:href="svgpan.js"/>
<svg id="graph" class="graph">
<g id="viewport">
<title>JS_FreeContext</title>
<!-- Node3854 -->
<g id="node1" class="node">
<title>Node3854</title>
<polygon fill="#bfbfbf" stroke="#000000" points="0,-119.5 0,-138.5 89,-138.5 89,-119.5 0,-119.5"/>
<text text-anchor="middle" x="44.5" y="-126.5" font-family="Helvetica,sans-Serif" font-size="10.00" fill="#000000">JS_FreeContext</text>
</g>
<!-- Node3855 -->
<g id="node2" class="node">
<title>Node3855</title>
<g id="a_node2"><a xlink:href="quickjs_8c.html#adcabee55726eddca24893a78515c7ba2" target="_top" xlink:title="js_free_modules">
<polygon fill="none" stroke="#000000" points="130,-138.5 130,-157.5 227,-157.5 227,-138.5 130,-138.5"/>
<text text-anchor="middle" x="178.5" y="-145.5" font-family="Helvetica,sans-Serif" font-size="10.00" fill="#000000">js_free_modules</text>
</a>
</g>
</g>
<!-- Node3854&#45;&gt;Node3855 -->
<g id="edge1" class="edge">
<title>Node3854&#45;&gt;Node3855</title>
<path fill="none" stroke="#191970" d="M89.1201,-135.3267C98.9414,-136.7193 109.4875,-138.2146 119.7698,-139.6726"/>
<polygon fill="#191970" stroke="#191970" points="119.5352,-143.1742 129.9275,-141.1129 120.518,-136.2436 119.5352,-143.1742"/>
</g>
<!-- Node3858 -->
<g id="node5" class="node">
<title>Node3858</title>
<g id="a_node5"><a xlink:href="quickjs_8c.html#a69e19dda8a93d613203e0baa06f0ed8d" target="_top" xlink:title="js_free_rt">
<polygon fill="none" stroke="#000000" points="553,-171.5 553,-190.5 615,-190.5 615,-171.5 553,-171.5"/>
<text text-anchor="middle" x="584" y="-178.5" font-family="Helvetica,sans-Serif" font-size="10.00" fill="#000000">js_free_rt</text>
</a>
</g>
</g>
<!-- Node3854&#45;&gt;Node3858 -->
<g id="edge13" class="edge">
<title>Node3854&#45;&gt;Node3858</title>
<path fill="none" stroke="#191970" d="M61.2388,-138.5127C77.162,-147.1678 102.0301,-159.6766 125,-167 250.5909,-207.0415 285.6919,-207.3994 417,-219 451.5322,-222.0508 461.0366,-225.9472 495,-219 517.3599,-214.4263 541.0502,-204.0066 558.3629,-195.233"/>
<polygon fill="#191970" stroke="#191970" points="560.0339,-198.3089 567.276,-190.5757 556.792,-192.1048 560.0339,-198.3089"/>
</g>
<!-- Node3881 -->
<g id="node6" class="node">
<title>Node3881</title>
<g id="a_node6"><a xlink:href="list_8h.html#ab60d5d18869ebeb5d6ab694289576fa7" target="_top" xlink:title="list_del">
<polygon fill="none" stroke="#000000" points="673,-171.5 673,-190.5 725,-190.5 725,-171.5 673,-171.5"/>
<text text-anchor="middle" x="699" y="-178.5" font-family="Helvetica,sans-Serif" font-size="10.00" fill="#000000">list_del</text>
</a>
</g>
</g>
<!-- Node3854&#45;&gt;Node3881 -->
<g id="edge16" class="edge">
<title>Node3854&#45;&gt;Node3881</title>
<path fill="none" stroke="#191970" d="M51.7484,-138.6859C81.1414,-176.7511 196.0295,-314 324.5,-314 324.5,-314 324.5,-314 456,-314 551.6827,-314 645.4106,-233.6708 682.4317,-197.8698"/>
<polygon fill="#191970" stroke="#191970" points="685.1749,-200.0801 689.8347,-190.565 680.2583,-195.0974 685.1749,-200.0801"/>
</g>
<!-- Node3880 -->
<g id="node7" class="node">
<title>Node3880</title>
<g id="a_node7"><a xlink:href="quickjs_8c.html#adfb3133f30938e2db9b525ade5fc09cf" target="_top" xlink:title="remove_gc_object">
<polygon fill="none" stroke="#000000" points="531,-95.5 531,-114.5 637,-114.5 637,-95.5 531,-95.5"/>
<text text-anchor="middle" x="584" y="-102.5" font-family="Helvetica,sans-Serif" font-size="10.00" fill="#000000">remove_gc_object</text>
</a>
</g>
</g>
<!-- Node3854&#45;&gt;Node3880 -->
<g id="edge17" class="edge">
<title>Node3854&#45;&gt;Node3880</title>
<path fill="none" stroke="#191970" d="M70.0984,-119.4556C139.1605,-94.9998 334.8908,-34.2495 495,-67 517.3599,-71.5737 541.0502,-81.9934 558.3629,-90.767"/>
<polygon fill="#191970" stroke="#191970" points="556.792,-93.8952 567.276,-95.4243 560.0339,-87.6911 556.792,-93.8952"/>
</g>
<!-- Node3882 -->
<g id="node10" class="node">
<title>Node3882</title>
<g id="a_node10"><a xlink:href="quickjs_8h.html#afaa20c47565bc704c6c85f3d77254e7d" target="_top" xlink:title="JS_FreeValue">
<polygon fill="none" stroke="#ff0000" points="417,-76.5 417,-95.5 495,-95.5 495,-76.5 417,-76.5"/>
<text text-anchor="middle" x="456" y="-83.5" font-family="Helvetica,sans-Serif" font-size="10.00" fill="#000000">JS_FreeValue</text>
</a>
</g>
</g>
<!-- Node3854&#45;&gt;Node3882 -->
<g id="edge15" class="edge">
<title>Node3854&#45;&gt;Node3882</title>
<path fill="none" stroke="#191970" d="M89.3211,-124.3164C166.8696,-116.2129 325.5082,-99.6358 406.3124,-91.1921"/>
<polygon fill="#191970" stroke="#191970" points="407.1291,-94.6259 416.7111,-90.1055 406.4015,-87.6639 407.1291,-94.6259"/>
</g>
<!-- Node3872 -->
<g id="node11" class="node">
<title>Node3872</title>
<g id="a_node11"><a xlink:href="quickjs_8c.html#a8a02cfc587edc36995bda62a0160269c" target="_top" xlink:title="js_free_shape_null">
<polygon fill="none" stroke="#ff0000" points="125,-.5 125,-19.5 232,-19.5 232,-.5 125,-.5"/>
<text text-anchor="middle" x="178.5" y="-7.5" font-family="Helvetica,sans-Serif" font-size="10.00" fill="#000000">js_free_shape_null</text>
</a>
</g>
</g>
<!-- Node3854&#45;&gt;Node3872 -->
<g id="edge14" class="edge">
<title>Node3854&#45;&gt;Node3872</title>
<path fill="none" stroke="#191970" d="M50.4798,-119.4177C62.5344,-100.7656 91.4805,-59.2056 125,-34 130.1259,-30.1455 135.9689,-26.7347 141.8657,-23.7825"/>
<polygon fill="#191970" stroke="#191970" points="143.4722,-26.8959 151.081,-19.5232 140.5353,-20.5418 143.4722,-26.8959"/>
</g>
<!-- Node3856 -->
<g id="node3" class="node">
<title>Node3856</title>
<g id="a_node3"><a xlink:href="quickjs_8c.html#a05db980a30860573f912cbeb64e99c3c" target="_top" xlink:title="js_free_module_def">
<polygon fill="none" stroke="#000000" points="268,-147.5 268,-166.5 381,-166.5 381,-147.5 268,-147.5"/>
<text text-anchor="middle" x="324.5" y="-154.5" font-family="Helvetica,sans-Serif" font-size="10.00" fill="#000000">js_free_module_def</text>
</a>
</g>
</g>
<!-- Node3855&#45;&gt;Node3856 -->
<g id="edge2" class="edge">
<title>Node3855&#45;&gt;Node3856</title>
<path fill="none" stroke="#191970" d="M227.1159,-150.9969C236.8835,-151.599 247.3091,-152.2417 257.5735,-152.8744"/>
<polygon fill="#191970" stroke="#191970" points="257.5574,-156.38 267.7538,-153.5019 257.9881,-149.3932 257.5574,-156.38"/>
</g>
<!-- Node3857 -->
<g id="node4" class="node">
<title>Node3857</title>
<g id="a_node4"><a xlink:href="quickjs_8c.html#a9e7b4bccf927d811b0f99b40b08c0472" target="_top" xlink:title="free_var_ref">
<polygon fill="none" stroke="#ff0000" points="418,-114.5 418,-133.5 494,-133.5 494,-114.5 418,-114.5"/>
<text text-anchor="middle" x="456" y="-121.5" font-family="Helvetica,sans-Serif" font-size="10.00" fill="#000000">free_var_ref</text>
</a>
</g>
</g>
<!-- Node3856&#45;&gt;Node3857 -->
<g id="edge3" class="edge">
<title>Node3856&#45;&gt;Node3857</title>
<path fill="none" stroke="#191970" d="M362.5352,-147.455C376.7104,-143.8978 392.9891,-139.8126 407.9475,-136.0588"/>
<polygon fill="#191970" stroke="#191970" points="409.2029,-139.3524 418.0502,-133.5235 407.499,-132.5629 409.2029,-139.3524"/>
</g>
<!-- Node3856&#45;&gt;Node3881 -->
<g id="edge12" class="edge">
<title>Node3856&#45;&gt;Node3881</title>
<path fill="none" stroke="#191970" d="M334.5181,-166.738C350.4284,-181.4469 383.152,-208.7056 417,-219 504.4712,-245.6031 612.8543,-213.8811 666.1973,-194.261"/>
<polygon fill="#191970" stroke="#191970" points="667.6835,-197.4412 675.8049,-190.6372 665.2131,-190.8916 667.6835,-197.4412"/>
</g>
<!-- Node3891 -->
<g id="node8" class="node">
<title>Node3891</title>
<g id="a_node8"><a xlink:href="quickjs_8c.html#a80e54dcf9ac687d4ccc2f90273565f30" target="_top" xlink:title="js_free">
<polygon fill="none" stroke="#000000" points="431,-152.5 431,-171.5 481,-171.5 481,-152.5 431,-152.5"/>
<text text-anchor="middle" x="456" y="-159.5" font-family="Helvetica,sans-Serif" font-size="10.00" fill="#000000">js_free</text>
</a>
</g>
</g>
<!-- Node3856&#45;&gt;Node3891 -->
<g id="edge8" class="edge">
<title>Node3856&#45;&gt;Node3891</title>
<path fill="none" stroke="#191970" d="M381.031,-159.1495C394.491,-159.6613 408.4769,-160.193 420.6717,-160.6567"/>
<polygon fill="#191970" stroke="#191970" points="420.7432,-164.1619 430.869,-161.0445 421.0093,-157.1669 420.7432,-164.1619"/>
</g>
<!-- Node3892 -->
<g id="node9" class="node">
<title>Node3892</title>
<g id="a_node9"><a xlink:href="quickjs_8c.html#ab7fc45a99935a1c0ba50b0216d9401a9" target="_top" xlink:title="JS_FreeAtom">
<polygon fill="none" stroke="#ff0000" points="417.5,-190.5 417.5,-209.5 494.5,-209.5 494.5,-190.5 417.5,-190.5"/>
<text text-anchor="middle" x="456" y="-197.5" font-family="Helvetica,sans-Serif" font-size="10.00" fill="#000000">JS_FreeAtom</text>
</a>
</g>
</g>
<!-- Node3856&#45;&gt;Node3892 -->
<g id="edge10" class="edge">
<title>Node3856&#45;&gt;Node3892</title>
<path fill="none" stroke="#191970" d="M353.6841,-166.5431C372.4114,-172.6669 396.9418,-180.6882 417.2888,-187.3416"/>
<polygon fill="#191970" stroke="#191970" points="416.3049,-190.7022 426.8975,-190.4836 418.4805,-184.0488 416.3049,-190.7022"/>
</g>
<!-- Node3856&#45;&gt;Node3882 -->
<g id="edge11" class="edge">
<title>Node3856&#45;&gt;Node3882</title>
<path fill="none" stroke="#191970" d="M341.0487,-147.3084C359.4325,-136.6336 390.0762,-119.1106 417,-105 420.0957,-103.3775 423.3507,-101.719 426.6054,-100.0907"/>
<polygon fill="#191970" stroke="#191970" points="428.2213,-103.1963 435.6449,-95.637 425.1276,-96.917 428.2213,-103.1963"/>
</g>
<!-- Node3857&#45;&gt;Node3858 -->
<g id="edge4" class="edge">
<title>Node3857&#45;&gt;Node3858</title>
<path fill="none" stroke="#191970" d="M477.4243,-133.5405C498.1912,-142.7883 529.9035,-156.9102 553.3402,-167.3468"/>
<polygon fill="#191970" stroke="#191970" points="551.9468,-170.5576 562.5058,-171.4284 554.7944,-164.163 551.9468,-170.5576"/>
</g>
<!-- Node3857&#45;&gt;Node3881 -->
<g id="edge5" class="edge">
<title>Node3857&#45;&gt;Node3881</title>
<path fill="none" stroke="#191970" d="M494.0177,-130.9443C530.8036,-137.9074 588.028,-149.3831 637,-162 645.541,-164.2005 654.661,-166.8336 663.2057,-169.4284"/>
<polygon fill="#191970" stroke="#191970" points="662.3152,-172.8165 672.9029,-172.4287 664.3843,-166.1293 662.3152,-172.8165"/>
</g>
<!-- Node3857&#45;&gt;Node3880 -->
<g id="edge6" class="edge">
<title>Node3857&#45;&gt;Node3880</title>
<path fill="none" stroke="#191970" d="M494.0577,-118.3508C502.4103,-117.111 511.4726,-115.7658 520.521,-114.4227"/>
<polygon fill="#191970" stroke="#191970" points="521.3148,-117.8433 530.6925,-112.9128 520.287,-110.9191 521.3148,-117.8433"/>
</g>
<!-- Node3880&#45;&gt;Node3881 -->
<g id="edge7" class="edge">
<title>Node3880&#45;&gt;Node3881</title>
<path fill="none" stroke="#191970" d="M608.7285,-114.5343C617.8943,-118.4928 628.1939,-123.4599 637,-129 653.2314,-139.2114 669.7804,-153.3172 681.6938,-164.2612"/>
<polygon fill="#191970" stroke="#191970" points="679.452,-166.9572 689.1399,-171.246 684.241,-161.8518 679.452,-166.9572"/>
</g>
<!-- Node3891&#45;&gt;Node3858 -->
<g id="edge9" class="edge">
<title>Node3891&#45;&gt;Node3858</title>
<path fill="none" stroke="#191970" d="M481.2887,-165.7538C498.865,-168.3628 522.6809,-171.8979 542.9544,-174.9073"/>
<polygon fill="#191970" stroke="#191970" points="542.4739,-178.3742 552.8795,-176.3805 543.5018,-171.4501 542.4739,-178.3742"/>
</g>
</g>
</svg>
        <g id="navigator" transform="translate(0 0)" fill="#404254">
                <rect fill="#f2f5e9" fill-opacity="0.5" stroke="#606060" stroke-width=".5" x="0" y="0" width="60" height="60"/>
                <use id="zoomplus" xlink:href="#zoomPlus" x="17" y="9" onmousedown="handleZoom(evt,'in')"/>
                <use id="zoomminus" xlink:href="#zoomMin" x="42" y="9" onmousedown="handleZoom(evt,'out')"/>
                <use id="reset" xlink:href="#resetDef" x="30" y="36" onmousedown="handleReset()"/>
                <g id="arrowUp" xlink:href="#dirArrow" transform="translate(30 24)" onmousedown="handlePan(0,-1)">
                  <use xlink:href="#rim" fill="#404040">
                        <set attributeName="fill" to="#808080" begin="arrowUp.mouseover" end="arrowUp.mouseout"/>
                  </use>
                  <path fill="none" stroke="white" stroke-width="1.5" d="M0,-3.0v7 M-2.5,-0.5L0,-3.0L2.5,-0.5"/>
                </g>
                <g id="arrowRight" xlink:href="#dirArrow" transform="rotate(90) translate(36 -43)" onmousedown="handlePan(1,0)">
                  <use xlink:href="#rim" fill="#404040">
                        <set attributeName="fill" to="#808080" begin="arrowRight.mouseover" end="arrowRight.mouseout"/>
                  </use>
                  <path fill="none" stroke="white" stroke-width="1.5" d="M0,-3.0v7 M-2.5,-0.5L0,-3.0L2.5,-0.5"/>
                </g>
                <g id="arrowDown" xlink:href="#dirArrow" transform="rotate(180) translate(-30 -48)" onmousedown="handlePan(0,1)">
                  <use xlink:href="#rim" fill="#404040">
                        <set attributeName="fill" to="#808080" begin="arrowDown.mouseover" end="arrowDown.mouseout"/>
                  </use>
                  <path fill="none" stroke="white" stroke-width="1.5" d="M0,-3.0v7 M-2.5,-0.5L0,-3.0L2.5,-0.5"/>
                </g>
                <g id="arrowLeft" xlink:href="#dirArrow" transform="rotate(270) translate(-36 17)" onmousedown="handlePan(-1,0)">
                  <use xlink:href="#rim" fill="#404040">
                        <set attributeName="fill" to="#808080" begin="arrowLeft.mouseover" end="arrowLeft.mouseout"/>
                  </use>
                  <path fill="none" stroke="white" stroke-width="1.5" d="M0,-3.0v7 M-2.5,-0.5L0,-3.0L2.5,-0.5"/>
                </g>
        </g>
        <svg viewBox="0 0 15 15" width="100%" height="30px" preserveAspectRatio="xMaxYMin meet">
         <g id="arrow_out" transform="scale(0.3 0.3)">
          <a xlink:href="quickjs_8h_aa59446eeb9276919bfaf36c38b3b0c0a_cgraph_org.svg" target="_base">
           <rect id="button" ry="5" rx="5" y="6" x="6" height="38" width="38"
                fill="#f2f5e9" fill-opacity="0.5" stroke="#606060" stroke-width="1.0"/>
           <path id="arrow"
             d="M 11.500037,31.436501 C 11.940474,20.09759 22.043105,11.32322 32.158766,21.979434 L 37.068811,17.246167 C 37.068811,17.246167 37.088388,32 37.088388,32 L 22.160133,31.978069 C 22.160133,31.978069 26.997745,27.140456 26.997745,27.140456 C 18.528582,18.264221 13.291696,25.230495 11.500037,31.436501 z"
             style="fill:#404040;"/>
          </a>
         </g>
        </svg>
</svg>
