<?xml version="1.0" encoding="UTF-8" standalone="no"?>
<!DOCTYPE svg PUBLIC "-//W3C//DTD SVG 1.1//EN"
 "http://www.w3.org/Graphics/SVG/1.1/DTD/svg11.dtd">
<!-- Generated by graphviz version 2.40.1 (20161225.0304)
 -->
<!-- Title: free_bytecode_atoms Pages: 1 -->
<!--zoomable 103 -->
<svg id="main" version="1.1" xmlns="http://www.w3.org/2000/svg" xmlns:xlink="http://www.w3.org/1999/xlink" xml:space="preserve" onload="init(evt)">
<style type="text/css"><![CDATA[
.edge:hover path { stroke: red; }
.edge:hover polygon { stroke: red; fill: red; }
]]></style>
<script type="text/javascript"><![CDATA[
var edges = document.getElementsByTagName('g');
if (edges && edges.length) {
  for (var i=0;i<edges.length;i++) {
    if (edges[i].id.substr(0,4)=='edge') {
      edges[i].setAttribute('class','edge');
    }
  }
}
]]></script>
        <defs>
                <circle id="rim" cx="0" cy="0" r="7"/>
                <circle id="rim2" cx="0" cy="0" r="3.5"/>
                <g id="zoomPlus">
                        <use xlink:href="#rim" fill="#404040">
                                <set attributeName="fill" to="#808080" begin="zoomplus.mouseover" end="zoomplus.mouseout"/>
                        </use>
                        <path d="M-4,0h8M0,-4v8" fill="none" stroke="white" stroke-width="1.5" pointer-events="none"/>
                </g>
                <g id="zoomMin">
                        <use xlink:href="#rim" fill="#404040">
                                <set attributeName="fill" to="#808080" begin="zoomminus.mouseover" end="zoomminus.mouseout"/>
                        </use>
                        <path d="M-4,0h8" fill="none" stroke="white" stroke-width="1.5" pointer-events="none"/>
                </g>
                <g id="dirArrow">
                        <path fill="none" stroke="white" stroke-width="1.5" d="M0,-3.0v7 M-2.5,-0.5L0,-3.0L2.5,-0.5"/>
                </g>
               <g id="resetDef">
                       <use xlink:href="#rim2" fill="#404040">
                               <set attributeName="fill" to="#808080" begin="reset.mouseover" end="reset.mouseout"/>
                       </use>
               </g>
        </defs>

<script type="text/javascript">
var viewWidth = 565;
var viewHeight = 103;
var sectionId = 'dynsection-1174';
</script>
<script xlink:href="svgpan.js"/>
<svg id="graph" class="graph">
<g id="viewport">
<title>free_bytecode_atoms</title>
<!-- Node354730 -->
<g id="node1" class="node">
<title>Node354730</title>
<polygon fill="#bfbfbf" stroke="#000000" points="0,-28.5 0,-47.5 122,-47.5 122,-28.5 0,-28.5"/>
<text text-anchor="middle" x="61" y="-35.5" font-family="Helvetica,sans-Serif" font-size="10.00" fill="#000000">free_bytecode_atoms</text>
</g>
<!-- Node354731 -->
<g id="node2" class="node">
<title>Node354731</title>
<g id="a_node2"><a xlink:href="quickjs_8c.html#adc4a49d7eb1cc1ec4b3a8c37ab8cb075" target="_top" xlink:title="free_function_bytecode">
<polygon fill="none" stroke="#000000" points="158,-56.5 158,-75.5 289,-75.5 289,-56.5 158,-56.5"/>
<text text-anchor="middle" x="223.5" y="-63.5" font-family="Helvetica,sans-Serif" font-size="10.00" fill="#000000">free_function_bytecode</text>
</a>
</g>
</g>
<!-- Node354730&#45;&gt;Node354731 -->
<g id="edge1" class="edge">
<title>Node354730&#45;&gt;Node354731</title>
<path fill="none" stroke="#191970" d="M126.4356,-49.2751C140.3122,-51.6661 154.8289,-54.1674 168.2812,-56.4854"/>
<polygon fill="#191970" stroke="#191970" points="126.9179,-45.8067 116.4688,-47.5577 125.7292,-52.705 126.9179,-45.8067"/>
</g>
<!-- Node355410 -->
<g id="node6" class="node">
<title>Node355410</title>
<g id="a_node6"><a xlink:href="quickjs_8c.html#a1b660b405f6a69b35dd871279c780ef7" target="_top" xlink:title="js_free_function_def">
<polygon fill="none" stroke="#ff0000" points="165.5,-.5 165.5,-19.5 281.5,-19.5 281.5,-.5 165.5,-.5"/>
<text text-anchor="middle" x="223.5" y="-7.5" font-family="Helvetica,sans-Serif" font-size="10.00" fill="#000000">js_free_function_def</text>
</a>
</g>
</g>
<!-- Node354730&#45;&gt;Node355410 -->
<g id="edge5" class="edge">
<title>Node354730&#45;&gt;Node355410</title>
<path fill="none" stroke="#191970" d="M126.4356,-26.7249C140.3122,-24.3339 154.8289,-21.8326 168.2812,-19.5146"/>
<polygon fill="#191970" stroke="#191970" points="125.7292,-23.295 116.4688,-28.4423 126.9179,-30.1933 125.7292,-23.295"/>
</g>
<!-- Node354732 -->
<g id="node3" class="node">
<title>Node354732</title>
<g id="a_node3"><a xlink:href="quickjs_8c.html#a3d1c7a8d6aa5a9ba8ea8ef2828db188a" target="_top" xlink:title="free_gc_object">
<polygon fill="none" stroke="#000000" points="325,-56.5 325,-75.5 413,-75.5 413,-56.5 325,-56.5"/>
<text text-anchor="middle" x="369" y="-63.5" font-family="Helvetica,sans-Serif" font-size="10.00" fill="#000000">free_gc_object</text>
</a>
</g>
</g>
<!-- Node354731&#45;&gt;Node354732 -->
<g id="edge2" class="edge">
<title>Node354731&#45;&gt;Node354732</title>
<path fill="none" stroke="#191970" d="M299.2306,-66C307.9369,-66 316.5861,-66 324.6784,-66"/>
<polygon fill="#191970" stroke="#191970" points="299.0141,-62.5001 289.0141,-66 299.014,-69.5001 299.0141,-62.5001"/>
</g>
<!-- Node354733 -->
<g id="node4" class="node">
<title>Node354733</title>
<g id="a_node4"><a xlink:href="quickjs_8c.html#a8defed3434f60d6b5d6a7ea202cc8f9d" target="_top" xlink:title="free_zero_refcount">
<polygon fill="none" stroke="#ff0000" points="449,-75.5 449,-94.5 557,-94.5 557,-75.5 449,-75.5"/>
<text text-anchor="middle" x="503" y="-82.5" font-family="Helvetica,sans-Serif" font-size="10.00" fill="#000000">free_zero_refcount</text>
</a>
</g>
</g>
<!-- Node354732&#45;&gt;Node354733 -->
<g id="edge3" class="edge">
<title>Node354732&#45;&gt;Node354733</title>
<path fill="none" stroke="#191970" d="M423.3778,-73.7103C431.8265,-74.9082 440.553,-76.1456 448.9934,-77.3423"/>
<polygon fill="#191970" stroke="#191970" points="423.6403,-70.2126 413.248,-72.274 422.6576,-77.1433 423.6403,-70.2126"/>
</g>
<!-- Node355479 -->
<g id="node5" class="node">
<title>Node355479</title>
<g id="a_node5"><a xlink:href="quickjs_8c.html#af7c53b26778d6b7e155fab5349a4585e" target="_top" xlink:title="gc_free_cycles">
<polygon fill="none" stroke="#ff0000" points="458.5,-37.5 458.5,-56.5 547.5,-56.5 547.5,-37.5 458.5,-37.5"/>
<text text-anchor="middle" x="503" y="-44.5" font-family="Helvetica,sans-Serif" font-size="10.00" fill="#000000">gc_free_cycles</text>
</a>
</g>
</g>
<!-- Node354732&#45;&gt;Node355479 -->
<g id="edge4" class="edge">
<title>Node354732&#45;&gt;Node355479</title>
<path fill="none" stroke="#191970" d="M423.3035,-58.3002C434.9437,-56.6498 447.1147,-54.924 458.3407,-53.3323"/>
<polygon fill="#191970" stroke="#191970" points="422.6576,-54.8567 413.248,-59.726 423.6403,-61.7874 422.6576,-54.8567"/>
</g>
<!-- Node355410&#45;&gt;Node355410 -->
<g id="edge6" class="edge">
<title>Node355410&#45;&gt;Node355410</title>
<path fill="none" stroke="#191970" d="M196.6208,-28.6539C197.7444,-33.9368 206.7041,-38 223.5,-38 249.0938,-38 256.4919,-28.5653 245.6946,-19.7571"/>
<polygon fill="#191970" stroke="#191970" points="199.7433,-30.2361 201.3054,-19.7571 193.5494,-26.9747 199.7433,-30.2361"/>
</g>
</g>
</svg>
        <g id="navigator" transform="translate(0 0)" fill="#404254">
                <rect fill="#f2f5e9" fill-opacity="0.5" stroke="#606060" stroke-width=".5" x="0" y="0" width="60" height="60"/>
                <use id="zoomplus" xlink:href="#zoomPlus" x="17" y="9" onmousedown="handleZoom(evt,'in')"/>
                <use id="zoomminus" xlink:href="#zoomMin" x="42" y="9" onmousedown="handleZoom(evt,'out')"/>
                <use id="reset" xlink:href="#resetDef" x="30" y="36" onmousedown="handleReset()"/>
                <g id="arrowUp" xlink:href="#dirArrow" transform="translate(30 24)" onmousedown="handlePan(0,-1)">
                  <use xlink:href="#rim" fill="#404040">
                        <set attributeName="fill" to="#808080" begin="arrowUp.mouseover" end="arrowUp.mouseout"/>
                  </use>
                  <path fill="none" stroke="white" stroke-width="1.5" d="M0,-3.0v7 M-2.5,-0.5L0,-3.0L2.5,-0.5"/>
                </g>
                <g id="arrowRight" xlink:href="#dirArrow" transform="rotate(90) translate(36 -43)" onmousedown="handlePan(1,0)">
                  <use xlink:href="#rim" fill="#404040">
                        <set attributeName="fill" to="#808080" begin="arrowRight.mouseover" end="arrowRight.mouseout"/>
                  </use>
                  <path fill="none" stroke="white" stroke-width="1.5" d="M0,-3.0v7 M-2.5,-0.5L0,-3.0L2.5,-0.5"/>
                </g>
                <g id="arrowDown" xlink:href="#dirArrow" transform="rotate(180) translate(-30 -48)" onmousedown="handlePan(0,1)">
                  <use xlink:href="#rim" fill="#404040">
                        <set attributeName="fill" to="#808080" begin="arrowDown.mouseover" end="arrowDown.mouseout"/>
                  </use>
                  <path fill="none" stroke="white" stroke-width="1.5" d="M0,-3.0v7 M-2.5,-0.5L0,-3.0L2.5,-0.5"/>
                </g>
                <g id="arrowLeft" xlink:href="#dirArrow" transform="rotate(270) translate(-36 17)" onmousedown="handlePan(-1,0)">
                  <use xlink:href="#rim" fill="#404040">
                        <set attributeName="fill" to="#808080" begin="arrowLeft.mouseover" end="arrowLeft.mouseout"/>
                  </use>
                  <path fill="none" stroke="white" stroke-width="1.5" d="M0,-3.0v7 M-2.5,-0.5L0,-3.0L2.5,-0.5"/>
                </g>
        </g>
        <svg viewBox="0 0 15 15" width="100%" height="30px" preserveAspectRatio="xMaxYMin meet">
         <g id="arrow_out" transform="scale(0.3 0.3)">
          <a xlink:href="quickjs_8c_a3242b1f6e8d8ecc3c27ee7c2caa647a3_icgraph_org.svg" target="_base">
           <rect id="button" ry="5" rx="5" y="6" x="6" height="38" width="38"
                fill="#f2f5e9" fill-opacity="0.5" stroke="#606060" stroke-width="1.0"/>
           <path id="arrow"
             d="M 11.500037,31.436501 C 11.940474,20.09759 22.043105,11.32322 32.158766,21.979434 L 37.068811,17.246167 C 37.068811,17.246167 37.088388,32 37.088388,32 L 22.160133,31.978069 C 22.160133,31.978069 26.997745,27.140456 26.997745,27.140456 C 18.528582,18.264221 13.291696,25.230495 11.500037,31.436501 z"
             style="fill:#404040;"/>
          </a>
         </g>
        </svg>
</svg>
