<?xml version="1.0" encoding="UTF-8" standalone="no"?>
<!DOCTYPE svg PUBLIC "-//W3C//DTD SVG 1.1//EN"
 "http://www.w3.org/Graphics/SVG/1.1/DTD/svg11.dtd">
<!-- Generated by graphviz version 2.40.1 (20161225.0304)
 -->
<!-- Title: js_regexp_constructor Pages: 1 -->
<!--zoomable 752 -->
<svg id="main" version="1.1" xmlns="http://www.w3.org/2000/svg" xmlns:xlink="http://www.w3.org/1999/xlink" xml:space="preserve" onload="init(evt)">
<style type="text/css"><![CDATA[
.edge:hover path { stroke: red; }
.edge:hover polygon { stroke: red; fill: red; }
]]></style>
<script type="text/javascript"><![CDATA[
var edges = document.getElementsByTagName('g');
if (edges && edges.length) {
  for (var i=0;i<edges.length;i++) {
    if (edges[i].id.substr(0,4)=='edge') {
      edges[i].setAttribute('class','edge');
    }
  }
}
]]></script>
        <defs>
                <circle id="rim" cx="0" cy="0" r="7"/>
                <circle id="rim2" cx="0" cy="0" r="3.5"/>
                <g id="zoomPlus">
                        <use xlink:href="#rim" fill="#404040">
                                <set attributeName="fill" to="#808080" begin="zoomplus.mouseover" end="zoomplus.mouseout"/>
                        </use>
                        <path d="M-4,0h8M0,-4v8" fill="none" stroke="white" stroke-width="1.5" pointer-events="none"/>
                </g>
                <g id="zoomMin">
                        <use xlink:href="#rim" fill="#404040">
                                <set attributeName="fill" to="#808080" begin="zoomminus.mouseover" end="zoomminus.mouseout"/>
                        </use>
                        <path d="M-4,0h8" fill="none" stroke="white" stroke-width="1.5" pointer-events="none"/>
                </g>
                <g id="dirArrow">
                        <path fill="none" stroke="white" stroke-width="1.5" d="M0,-3.0v7 M-2.5,-0.5L0,-3.0L2.5,-0.5"/>
                </g>
               <g id="resetDef">
                       <use xlink:href="#rim2" fill="#404040">
                               <set attributeName="fill" to="#808080" begin="reset.mouseover" end="reset.mouseout"/>
                       </use>
               </g>
        </defs>

<script type="text/javascript">
var viewWidth = 893;
var viewHeight = 752;
var sectionId = 'dynsection-1602';
</script>
<script xlink:href="svgpan.js"/>
<svg id="graph" class="graph">
<g id="viewport">
<title>js_regexp_constructor</title>
<!-- Node430661 -->
<g id="node1" class="node">
<title>Node430661</title>
<polygon fill="#bfbfbf" stroke="#000000" points="0,-268.1903 0,-287.1903 124,-287.1903 124,-268.1903 0,-268.1903"/>
<text text-anchor="middle" x="62" y="-275.1903" font-family="Helvetica,sans-Serif" font-size="10.00" fill="#000000">js_regexp_constructor</text>
</g>
<!-- Node430662 -->
<g id="node2" class="node">
<title>Node430662</title>
<g id="a_node2"><a xlink:href="quickjs_8c.html#a260bfa297ff6cb5bd18e229afaa54663" target="_top" xlink:title="JS_AtomToString">
<polygon fill="none" stroke="#000000" points="467,-686.1903 467,-705.1903 563,-705.1903 563,-686.1903 467,-686.1903"/>
<text text-anchor="middle" x="515" y="-693.1903" font-family="Helvetica,sans-Serif" font-size="10.00" fill="#000000">JS_AtomToString</text>
</a>
</g>
</g>
<!-- Node430661&#45;&gt;Node430662 -->
<g id="edge1" class="edge">
<title>Node430661&#45;&gt;Node430662</title>
<path fill="none" stroke="#191970" d="M62.8388,-287.2174C67.938,-342.7733 96.6874,-624.2538 160,-676.6903 249.8897,-751.1383 400.6896,-725.9655 473.3619,-707.7264"/>
<polygon fill="#191970" stroke="#191970" points="474.2795,-711.1044 483.0833,-705.2099 472.5252,-704.3277 474.2795,-711.1044"/>
</g>
<!-- Node430666 -->
<g id="node6" class="node">
<title>Node430666</title>
<g id="a_node6"><a xlink:href="quickjs_8h.html#a775522f2d084fc8fa0fcb33f390006b4" target="_top" xlink:title="JS_DupValue">
<polygon fill="none" stroke="#000000" points="785,-610.1903 785,-629.1903 862,-629.1903 862,-610.1903 785,-610.1903"/>
<text text-anchor="middle" x="823.5" y="-617.1903" font-family="Helvetica,sans-Serif" font-size="10.00" fill="#000000">JS_DupValue</text>
</a>
</g>
</g>
<!-- Node430661&#45;&gt;Node430666 -->
<g id="edge25" class="edge">
<title>Node430661&#45;&gt;Node430666</title>
<path fill="none" stroke="#191970" d="M64.9178,-287.1942C82.5208,-342.4297 179.9478,-619.6903 362,-619.6903 362,-619.6903 362,-619.6903 515,-619.6903 606.6403,-619.6903 713.593,-619.6903 774.4526,-619.6903"/>
<polygon fill="#191970" stroke="#191970" points="774.5404,-623.1904 784.5404,-619.6903 774.5403,-616.1904 774.5404,-623.1904"/>
</g>
<!-- Node430690 -->
<g id="node8" class="node">
<title>Node430690</title>
<g id="a_node8"><a xlink:href="quickjs_8c.html#ab0bd3fbfe9b7f004c067b103a6d60d03" target="_top" xlink:title="js_compile_regexp">
<polygon fill="none" stroke="#000000" points="165.5,-401.1903 165.5,-420.1903 273.5,-420.1903 273.5,-401.1903 165.5,-401.1903"/>
<text text-anchor="middle" x="219.5" y="-408.1903" font-family="Helvetica,sans-Serif" font-size="10.00" fill="#000000">js_compile_regexp</text>
</a>
</g>
</g>
<!-- Node430661&#45;&gt;Node430690 -->
<g id="edge7" class="edge">
<title>Node430661&#45;&gt;Node430690</title>
<path fill="none" stroke="#191970" d="M73.327,-287.2553C99.9866,-309.7678 166.9447,-366.3102 200.1742,-394.3707"/>
<polygon fill="#191970" stroke="#191970" points="197.9522,-397.0753 207.8507,-400.8531 202.4685,-391.7271 197.9522,-397.0753"/>
</g>
<!-- Node430692 -->
<g id="node11" class="node">
<title>Node430692</title>
<g id="a_node11"><a xlink:href="quickjs_8h.html#afaa20c47565bc704c6c85f3d77254e7d" target="_top" xlink:title="JS_FreeValue">
<polygon fill="none" stroke="#ff0000" points="634.5,-276.1903 634.5,-295.1903 712.5,-295.1903 712.5,-276.1903 634.5,-276.1903"/>
<text text-anchor="middle" x="673.5" y="-283.1903" font-family="Helvetica,sans-Serif" font-size="10.00" fill="#000000">JS_FreeValue</text>
</a>
</g>
</g>
<!-- Node430661&#45;&gt;Node430692 -->
<g id="edge26" class="edge">
<title>Node430661&#45;&gt;Node430692</title>
<path fill="none" stroke="#191970" d="M124.283,-278.5051C246.0653,-280.0983 513.4729,-283.5967 624.0923,-285.0439"/>
<polygon fill="#191970" stroke="#191970" points="624.2529,-288.5462 634.2978,-285.1774 624.3445,-281.5468 624.2529,-288.5462"/>
</g>
<!-- Node430728 -->
<g id="node12" class="node">
<title>Node430728</title>
<g id="a_node12"><a xlink:href="quickjs_8h.html#a4e407128a9605afb77523e49e9a627fd" target="_top" xlink:title="JS_IsUndefined">
<polygon fill="none" stroke="#000000" points="317.5,-306.1903 317.5,-325.1903 406.5,-325.1903 406.5,-306.1903 317.5,-306.1903"/>
<text text-anchor="middle" x="362" y="-313.1903" font-family="Helvetica,sans-Serif" font-size="10.00" fill="#000000">JS_IsUndefined</text>
</a>
</g>
</g>
<!-- Node430661&#45;&gt;Node430728 -->
<g id="edge40" class="edge">
<title>Node430661&#45;&gt;Node430728</title>
<path fill="none" stroke="#191970" d="M124.181,-286.799C136.0653,-288.476 148.4118,-290.1743 160,-291.6903 209.8757,-298.2148 266.7808,-304.9083 307.4548,-309.5631"/>
<polygon fill="#191970" stroke="#191970" points="307.0995,-313.0452 317.4318,-310.7013 307.893,-306.0903 307.0995,-313.0452"/>
</g>
<!-- Node430731 -->
<g id="node16" class="node">
<title>Node430731</title>
<g id="a_node16"><a xlink:href="quickjs_8h.html#ad80a83d73e9b7d872b88fbf2943aebe9" target="_top" xlink:title="JS_IsException">
<polygon fill="none" stroke="#000000" points="630,-122.1903 630,-141.1903 717,-141.1903 717,-122.1903 630,-122.1903"/>
<text text-anchor="middle" x="673.5" y="-129.1903" font-family="Helvetica,sans-Serif" font-size="10.00" fill="#000000">JS_IsException</text>
</a>
</g>
</g>
<!-- Node430661&#45;&gt;Node430731 -->
<g id="edge39" class="edge">
<title>Node430661&#45;&gt;Node430731</title>
<path fill="none" stroke="#191970" d="M62.438,-268.1781C64.7224,-231.0335 78.5704,-95.1355 160,-40.6903 321.2838,67.147 572.3565,-69.3116 649.8911,-116.6417"/>
<polygon fill="#191970" stroke="#191970" points="648.1232,-119.6636 658.4685,-121.9494 651.8067,-113.7111 648.1232,-119.6636"/>
</g>
<!-- Node430732 -->
<g id="node17" class="node">
<title>Node430732</title>
<g id="a_node17"><a xlink:href="quickjs_8c.html#a7bcb8e1a20cbc8374a5f9ba4a2088cec" target="_top" xlink:title="JS_ToString">
<polygon fill="none" stroke="#ff0000" points="638.5,-530.1903 638.5,-549.1903 708.5,-549.1903 708.5,-530.1903 638.5,-530.1903"/>
<text text-anchor="middle" x="673.5" y="-537.1903" font-family="Helvetica,sans-Serif" font-size="10.00" fill="#000000">JS_ToString</text>
</a>
</g>
</g>
<!-- Node430661&#45;&gt;Node430732 -->
<g id="edge46" class="edge">
<title>Node430661&#45;&gt;Node430732</title>
<path fill="none" stroke="#191970" d="M66.2882,-287.2714C78.1325,-312.9176 113.5209,-384.2596 160,-429.6903 217.7811,-486.168 237.7115,-501.1344 315,-524.6903 423.5391,-557.7706 559.1175,-551.3702 628.3079,-544.9244"/>
<polygon fill="#191970" stroke="#191970" points="628.8134,-548.3918 638.426,-543.9367 628.1332,-541.4249 628.8134,-548.3918"/>
</g>
<!-- Node431165 -->
<g id="node22" class="node">
<title>Node431165</title>
<g id="a_node22"><a xlink:href="quickjs_8c.html#a82de8d310598980dd9ab473ce2c8dd1c" target="_top" xlink:title="js_get_regexp">
<polygon fill="none" stroke="#000000" points="319.5,-230.1903 319.5,-249.1903 404.5,-249.1903 404.5,-230.1903 319.5,-230.1903"/>
<text text-anchor="middle" x="362" y="-237.1903" font-family="Helvetica,sans-Serif" font-size="10.00" fill="#000000">js_get_regexp</text>
</a>
</g>
</g>
<!-- Node430661&#45;&gt;Node431165 -->
<g id="edge27" class="edge">
<title>Node430661&#45;&gt;Node431165</title>
<path fill="none" stroke="#191970" d="M124.181,-268.5815C136.0653,-266.9046 148.4118,-265.2062 160,-263.6903 210.6827,-257.0601 268.6242,-250.2556 309.4164,-245.593"/>
<polygon fill="#191970" stroke="#191970" points="309.8635,-249.0648 319.403,-244.4552 309.071,-242.1098 309.8635,-249.0648"/>
</g>
<!-- Node431167 -->
<g id="node24" class="node">
<title>Node431167</title>
<g id="a_node24"><a xlink:href="quickjs_8c.html#a3755be7c2ce474f29037fb2bbf35083b" target="_top" xlink:title="JS_GetActiveFunction">
<polygon fill="none" stroke="#000000" points="160,-192.1903 160,-211.1903 279,-211.1903 279,-192.1903 160,-192.1903"/>
<text text-anchor="middle" x="219.5" y="-199.1903" font-family="Helvetica,sans-Serif" font-size="10.00" fill="#000000">JS_GetActiveFunction</text>
</a>
</g>
</g>
<!-- Node430661&#45;&gt;Node431167 -->
<g id="edge29" class="edge">
<title>Node430661&#45;&gt;Node431167</title>
<path fill="none" stroke="#191970" d="M78.7247,-268.1268C98.0196,-257.2563 130.8386,-239.2631 160,-225.6903 167.9114,-222.008 176.553,-218.3318 184.7369,-215.0028"/>
<polygon fill="#191970" stroke="#191970" points="186.0763,-218.2367 194.0627,-211.2748 183.4779,-211.7368 186.0763,-218.2367"/>
</g>
<!-- Node430765 -->
<g id="node25" class="node">
<title>Node430765</title>
<g id="a_node25"><a xlink:href="quickjs_8h.html#a89b7c8686c7eee70b86be722ee4730ad" target="_top" xlink:title="JS_GetProperty">
<polygon fill="none" stroke="#ff0000" points="317.5,-78.1903 317.5,-97.1903 406.5,-97.1903 406.5,-78.1903 317.5,-78.1903"/>
<text text-anchor="middle" x="362" y="-85.1903" font-family="Helvetica,sans-Serif" font-size="10.00" fill="#000000">JS_GetProperty</text>
</a>
</g>
</g>
<!-- Node430661&#45;&gt;Node430765 -->
<g id="edge30" class="edge">
<title>Node430661&#45;&gt;Node430765</title>
<path fill="none" stroke="#191970" d="M66.3621,-267.9419C77.894,-243.3087 111.6525,-178.1512 160,-144.6903 204.105,-114.1655 264.2751,-99.8986 307.4534,-93.2853"/>
<polygon fill="#191970" stroke="#191970" points="308.0952,-96.729 317.4934,-91.8379 307.0963,-89.8007 308.0952,-96.729"/>
</g>
<!-- Node431168 -->
<g id="node26" class="node">
<title>Node431168</title>
<g id="a_node26"><a xlink:href="quickjs_8c.html#a34780713146b6995321c8880802b7d9d" target="_top" xlink:title="js_is_regexp">
<polygon fill="none" stroke="#000000" points="181,-154.1903 181,-173.1903 258,-173.1903 258,-154.1903 181,-154.1903"/>
<text text-anchor="middle" x="219.5" y="-161.1903" font-family="Helvetica,sans-Serif" font-size="10.00" fill="#000000">js_is_regexp</text>
</a>
</g>
</g>
<!-- Node430661&#45;&gt;Node431168 -->
<g id="edge31" class="edge">
<title>Node430661&#45;&gt;Node431168</title>
<path fill="none" stroke="#191970" d="M69.2882,-268.1221C84.2458,-249.1223 120.3554,-206.426 160,-182.6903 163.611,-180.5283 167.4947,-178.5852 171.4855,-176.8442"/>
<polygon fill="#191970" stroke="#191970" points="172.8854,-180.0547 180.9135,-173.141 170.3262,-173.5393 172.8854,-180.0547"/>
</g>
<!-- Node431086 -->
<g id="node29" class="node">
<title>Node431086</title>
<g id="a_node29"><a xlink:href="quickjs_8c.html#a4227224bd57b74d7e4a30fbdd67be26e" target="_top" xlink:title="js_regexp_constructor\l_internal">
<polygon fill="none" stroke="#ff0000" points="453,-138.6903 453,-168.6903 577,-168.6903 577,-138.6903 453,-138.6903"/>
<text text-anchor="start" x="461" y="-156.6903" font-family="Helvetica,sans-Serif" font-size="10.00" fill="#000000">js_regexp_constructor</text>
<text text-anchor="middle" x="515" y="-145.6903" font-family="Helvetica,sans-Serif" font-size="10.00" fill="#000000">_internal</text>
</a>
</g>
</g>
<!-- Node430661&#45;&gt;Node431086 -->
<g id="edge41" class="edge">
<title>Node430661&#45;&gt;Node431086</title>
<path fill="none" stroke="#191970" d="M64.1179,-267.7944C71.3274,-236.7019 97.9958,-140.3932 160,-95.6903 250.2949,-30.5907 303.9809,-31.7837 409,-68.6903 443.9283,-80.965 475.871,-110.1379 495.3604,-130.8753"/>
<polygon fill="#191970" stroke="#191970" points="492.8698,-133.3382 502.2004,-138.3572 498.0363,-128.615 492.8698,-133.3382"/>
</g>
<!-- Node430893 -->
<g id="node30" class="node">
<title>Node430893</title>
<g id="a_node30"><a xlink:href="quickjs_8c.html#a24be89a128d1cd7c0908604815b2b854" target="_top" xlink:title="js_same_value">
<polygon fill="none" stroke="#ff0000" points="175,-648.1903 175,-667.1903 264,-667.1903 264,-648.1903 175,-648.1903"/>
<text text-anchor="middle" x="219.5" y="-655.1903" font-family="Helvetica,sans-Serif" font-size="10.00" fill="#000000">js_same_value</text>
</a>
</g>
</g>
<!-- Node430661&#45;&gt;Node430893 -->
<g id="edge44" class="edge">
<title>Node430661&#45;&gt;Node430893</title>
<path fill="none" stroke="#191970" d="M63.4626,-287.2391C71.4539,-338.3204 111.2674,-579.017 160,-633.6903 163.4324,-637.5411 167.5702,-640.7841 172.0459,-643.5132"/>
<polygon fill="#191970" stroke="#191970" points="170.4853,-646.6466 180.9726,-648.1526 173.7135,-640.4353 170.4853,-646.6466"/>
</g>
<!-- Node430663 -->
<g id="node3" class="node">
<title>Node430663</title>
<g id="a_node3"><a xlink:href="quickjs_8c.html#a06ff303a11e6641cbf1f6634e6a61811" target="_top" xlink:title="__JS_AtomToValue">
<polygon fill="none" stroke="#000000" points="621,-686.1903 621,-705.1903 726,-705.1903 726,-686.1903 621,-686.1903"/>
<text text-anchor="middle" x="673.5" y="-693.1903" font-family="Helvetica,sans-Serif" font-size="10.00" fill="#000000">__JS_AtomToValue</text>
</a>
</g>
</g>
<!-- Node430662&#45;&gt;Node430663 -->
<g id="edge2" class="edge">
<title>Node430662&#45;&gt;Node430663</title>
<path fill="none" stroke="#191970" d="M563.4165,-695.6903C578.3525,-695.6903 595.0197,-695.6903 610.775,-695.6903"/>
<polygon fill="#191970" stroke="#191970" points="610.9695,-699.1904 620.9695,-695.6903 610.9694,-692.1904 610.9695,-699.1904"/>
</g>
<!-- Node430664 -->
<g id="node4" class="node">
<title>Node430664</title>
<g id="a_node4"><a xlink:href="quickjs_8c.html#a288254c06a39c9fca740a7abdad2834e" target="_top" xlink:title="__JS_AtomIsTaggedInt">
<polygon fill="none" stroke="#000000" points="762,-724.1903 762,-743.1903 885,-743.1903 885,-724.1903 762,-724.1903"/>
<text text-anchor="middle" x="823.5" y="-731.1903" font-family="Helvetica,sans-Serif" font-size="10.00" fill="#000000">__JS_AtomIsTaggedInt</text>
</a>
</g>
</g>
<!-- Node430663&#45;&gt;Node430664 -->
<g id="edge3" class="edge">
<title>Node430663&#45;&gt;Node430664</title>
<path fill="none" stroke="#191970" d="M711.3513,-705.2793C730.9671,-710.2486 755.1187,-716.367 775.979,-721.6516"/>
<polygon fill="#191970" stroke="#191970" points="775.3675,-725.1072 785.9209,-724.1702 777.0866,-718.3216 775.3675,-725.1072"/>
</g>
<!-- Node430665 -->
<g id="node5" class="node">
<title>Node430665</title>
<g id="a_node5"><a xlink:href="quickjs_8c.html#a89f38938cee8077ce1fbba07946ed185" target="_top" xlink:title="__JS_AtomToUInt32">
<polygon fill="none" stroke="#000000" points="768.5,-686.1903 768.5,-705.1903 878.5,-705.1903 878.5,-686.1903 768.5,-686.1903"/>
<text text-anchor="middle" x="823.5" y="-693.1903" font-family="Helvetica,sans-Serif" font-size="10.00" fill="#000000">__JS_AtomToUInt32</text>
</a>
</g>
</g>
<!-- Node430663&#45;&gt;Node430665 -->
<g id="edge4" class="edge">
<title>Node430663&#45;&gt;Node430665</title>
<path fill="none" stroke="#191970" d="M726.3844,-695.6903C736.6754,-695.6903 747.5766,-695.6903 758.2127,-695.6903"/>
<polygon fill="#191970" stroke="#191970" points="758.3004,-699.1904 768.3004,-695.6903 758.3003,-692.1904 758.3004,-699.1904"/>
</g>
<!-- Node430663&#45;&gt;Node430666 -->
<g id="edge5" class="edge">
<title>Node430663&#45;&gt;Node430666</title>
<path fill="none" stroke="#191970" d="M698.6538,-686.1001C707.6116,-682.1981 717.5632,-677.2827 726,-671.6903 744.0915,-659.6982 743.1725,-649.49 762,-638.6903 766.2015,-636.2802 770.7433,-634.1416 775.3896,-632.2516"/>
<polygon fill="#191970" stroke="#191970" points="776.8234,-635.4534 784.9983,-628.7139 774.4049,-628.8845 776.8234,-635.4534"/>
</g>
<!-- Node430667 -->
<g id="node7" class="node">
<title>Node430667</title>
<g id="a_node7"><a xlink:href="quickjs_8c.html#a0ee6a3654a6016393fac5e1c108f403a" target="_top" xlink:title="JS_NewString">
<polygon fill="none" stroke="#ff0000" points="783,-648.1903 783,-667.1903 864,-667.1903 864,-648.1903 783,-648.1903"/>
<text text-anchor="middle" x="823.5" y="-655.1903" font-family="Helvetica,sans-Serif" font-size="10.00" fill="#000000">JS_NewString</text>
</a>
</g>
</g>
<!-- Node430663&#45;&gt;Node430667 -->
<g id="edge6" class="edge">
<title>Node430663&#45;&gt;Node430667</title>
<path fill="none" stroke="#191970" d="M711.3513,-686.1013C730.9671,-681.1319 755.1187,-675.0135 775.979,-669.7289"/>
<polygon fill="#191970" stroke="#191970" points="777.0866,-673.059 785.9209,-667.2103 775.3675,-666.2733 777.0866,-673.059"/>
</g>
<!-- Node430675 -->
<g id="node9" class="node">
<title>Node430675</title>
<g id="a_node9"><a xlink:href="quickjs_8c.html#a80e54dcf9ac687d4ccc2f90273565f30" target="_top" xlink:title="js_free">
<polygon fill="none" stroke="#ff0000" points="337,-420.1903 337,-439.1903 387,-439.1903 387,-420.1903 337,-420.1903"/>
<text text-anchor="middle" x="362" y="-427.1903" font-family="Helvetica,sans-Serif" font-size="10.00" fill="#000000">js_free</text>
</a>
</g>
</g>
<!-- Node430690&#45;&gt;Node430675 -->
<g id="edge8" class="edge">
<title>Node430690&#45;&gt;Node430675</title>
<path fill="none" stroke="#191970" d="M273.7796,-417.9275C291.5872,-420.3019 310.8964,-422.8764 326.8972,-425.0099"/>
<polygon fill="#191970" stroke="#191970" points="326.5102,-428.4892 336.8851,-426.3416 327.4354,-421.5506 326.5102,-428.4892"/>
</g>
<!-- Node430691 -->
<g id="node10" class="node">
<title>Node430691</title>
<g id="a_node10"><a xlink:href="quickjs_8c.html#ae0bc4f65da64810facb2cb9e476eda2e" target="_top" xlink:title="JS_FreeCString">
<polygon fill="none" stroke="#000000" points="472,-314.1903 472,-333.1903 558,-333.1903 558,-314.1903 472,-314.1903"/>
<text text-anchor="middle" x="515" y="-321.1903" font-family="Helvetica,sans-Serif" font-size="10.00" fill="#000000">JS_FreeCString</text>
</a>
</g>
</g>
<!-- Node430690&#45;&gt;Node430691 -->
<g id="edge9" class="edge">
<title>Node430690&#45;&gt;Node430691</title>
<path fill="none" stroke="#191970" d="M241.1865,-401.0615C260.3419,-392.7987 289.1654,-380.9511 315,-372.6903 364.1262,-356.9818 421.4023,-343.416 462.0393,-334.5671"/>
<polygon fill="#191970" stroke="#191970" points="462.9592,-337.9492 471.9971,-332.4205 461.4841,-331.1064 462.9592,-337.9492"/>
</g>
<!-- Node430690&#45;&gt;Node430728 -->
<g id="edge11" class="edge">
<title>Node430690&#45;&gt;Node430728</title>
<path fill="none" stroke="#191970" d="M231.1078,-401.0586C248.6464,-386.7417 283.2325,-359.4176 315,-339.6903 320.5165,-336.2646 326.5809,-332.8962 332.467,-329.8159"/>
<polygon fill="#191970" stroke="#191970" points="334.1345,-332.8946 341.4656,-325.2458 330.9647,-326.6534 334.1345,-332.8946"/>
</g>
<!-- Node430670 -->
<g id="node13" class="node">
<title>Node430670</title>
<g id="a_node13"><a xlink:href="quickjs_8c.html#aa923510185fe24e3083baf7405b09f51" target="_top" xlink:title="js_new_string8">
<polygon fill="none" stroke="#ff0000" points="317.5,-572.1903 317.5,-591.1903 406.5,-591.1903 406.5,-572.1903 317.5,-572.1903"/>
<text text-anchor="middle" x="362" y="-579.1903" font-family="Helvetica,sans-Serif" font-size="10.00" fill="#000000">js_new_string8</text>
</a>
</g>
</g>
<!-- Node430690&#45;&gt;Node430670 -->
<g id="edge12" class="edge">
<title>Node430690&#45;&gt;Node430670</title>
<path fill="none" stroke="#191970" d="M227.5697,-420.3739C250.6918,-448.1204 317.4331,-528.2099 347.2757,-564.0211"/>
<polygon fill="#191970" stroke="#191970" points="344.9281,-566.6712 354.0188,-572.1128 350.3057,-562.1899 344.9281,-566.6712"/>
</g>
<!-- Node430729 -->
<g id="node14" class="node">
<title>Node430729</title>
<g id="a_node14"><a xlink:href="quickjs_8h.html#a1e7f56471f8608df9405987087a56070" target="_top" xlink:title="JS_ToCStringLen">
<polygon fill="none" stroke="#000000" points="315,-496.1903 315,-515.1903 409,-515.1903 409,-496.1903 315,-496.1903"/>
<text text-anchor="middle" x="362" y="-503.1903" font-family="Helvetica,sans-Serif" font-size="10.00" fill="#000000">JS_ToCStringLen</text>
</a>
</g>
</g>
<!-- Node430690&#45;&gt;Node430729 -->
<g id="edge14" class="edge">
<title>Node430690&#45;&gt;Node430729</title>
<path fill="none" stroke="#191970" d="M231.1078,-420.3219C248.6464,-434.6389 283.2325,-461.9629 315,-481.6903 320.5165,-485.1159 326.5809,-488.4843 332.467,-491.5646"/>
<polygon fill="#191970" stroke="#191970" points="330.9647,-494.7271 341.4656,-496.1347 334.1345,-488.4859 330.9647,-494.7271"/>
</g>
<!-- Node430730 -->
<g id="node15" class="node">
<title>Node430730</title>
<g id="a_node15"><a xlink:href="quickjs_8c.html#af49e67b73f845dc1f9c3ee648dd9f95c" target="_top" xlink:title="JS_ToCStringLen2">
<polygon fill="none" stroke="#ff0000" points="465,-468.1903 465,-487.1903 565,-487.1903 565,-468.1903 465,-468.1903"/>
<text text-anchor="middle" x="515" y="-475.1903" font-family="Helvetica,sans-Serif" font-size="10.00" fill="#000000">JS_ToCStringLen2</text>
</a>
</g>
</g>
<!-- Node430690&#45;&gt;Node430730 -->
<g id="edge20" class="edge">
<title>Node430690&#45;&gt;Node430730</title>
<path fill="none" stroke="#191970" d="M239.5219,-420.2628C258.5281,-428.9602 288.1083,-441.4977 315,-448.6903 360.9902,-460.991 414.4147,-468.3993 454.4725,-472.6457"/>
<polygon fill="#191970" stroke="#191970" points="454.3114,-476.1474 464.6158,-473.6839 455.0242,-469.1838 454.3114,-476.1474"/>
</g>
<!-- Node431097 -->
<g id="node18" class="node">
<title>Node431097</title>
<g id="a_node18"><a xlink:href="libregexp_8h.html#a9f2d004d841acbf42a7cf0490258b5ab" target="_top" xlink:title="lre_compile">
<polygon fill="none" stroke="#ff0000" points="325,-382.1903 325,-401.1903 399,-401.1903 399,-382.1903 325,-382.1903"/>
<text text-anchor="middle" x="362" y="-389.1903" font-family="Helvetica,sans-Serif" font-size="10.00" fill="#000000">lre_compile</text>
</a>
</g>
</g>
<!-- Node430690&#45;&gt;Node431097 -->
<g id="edge21" class="edge">
<title>Node430690&#45;&gt;Node431097</title>
<path fill="none" stroke="#191970" d="M273.7796,-403.453C287.1851,-401.6656 301.4415,-399.7647 314.4969,-398.024"/>
<polygon fill="#191970" stroke="#191970" points="315.2207,-401.4586 324.6704,-396.6675 314.2955,-394.52 315.2207,-401.4586"/>
</g>
<!-- Node430691&#45;&gt;Node430692 -->
<g id="edge10" class="edge">
<title>Node430691&#45;&gt;Node430692</title>
<path fill="none" stroke="#191970" d="M554.9962,-314.1013C576.0711,-309.0486 602.1007,-302.8081 624.3918,-297.4638"/>
<polygon fill="#191970" stroke="#191970" points="625.4309,-300.814 634.3393,-295.0789 623.7988,-294.0069 625.4309,-300.814"/>
</g>
<!-- Node430670&#45;&gt;Node430662 -->
<g id="edge13" class="edge">
<title>Node430670&#45;&gt;Node430662</title>
<path fill="none" stroke="#191970" d="M374.7815,-591.2138C401.0408,-610.7795 461.3011,-655.6793 493.6103,-679.7529"/>
<polygon fill="#191970" stroke="#191970" points="491.8205,-682.784 501.9305,-685.9522 496.0029,-677.1708 491.8205,-682.784"/>
</g>
<!-- Node430729&#45;&gt;Node430730 -->
<g id="edge15" class="edge">
<title>Node430729&#45;&gt;Node430730</title>
<path fill="none" stroke="#191970" d="M409.1535,-497.0609C423.6307,-494.4114 439.7606,-491.4596 454.9773,-488.6748"/>
<polygon fill="#191970" stroke="#191970" points="455.6119,-492.1169 464.8185,-486.8738 454.3518,-485.2312 455.6119,-492.1169"/>
</g>
<!-- Node430730&#45;&gt;Node430666 -->
<g id="edge16" class="edge">
<title>Node430730&#45;&gt;Node430666</title>
<path fill="none" stroke="#191970" d="M565.1312,-479.6906C609.7458,-483.3188 675.5579,-493.3275 726,-520.6903 762.7143,-540.6063 794.3662,-578.869 811.0089,-601.5505"/>
<polygon fill="#191970" stroke="#191970" points="808.3471,-603.8458 817.0071,-609.9495 814.0436,-599.7775 808.3471,-603.8458"/>
</g>
<!-- Node430730&#45;&gt;Node430692 -->
<g id="edge17" class="edge">
<title>Node430730&#45;&gt;Node430692</title>
<path fill="none" stroke="#191970" d="M564.9618,-468.1558C572.1817,-465.2849 579.14,-461.5497 585,-456.6903 633.991,-416.0635 659.0622,-341.2817 668.6948,-305.621"/>
<polygon fill="#191970" stroke="#191970" points="672.1938,-306.0666 671.2905,-295.5104 665.4137,-304.3259 672.1938,-306.0666"/>
</g>
<!-- Node430730&#45;&gt;Node430731 -->
<g id="edge18" class="edge">
<title>Node430730&#45;&gt;Node430731</title>
<path fill="none" stroke="#191970" d="M565.2459,-470.0062C572.6936,-466.9167 579.6499,-462.6291 585,-456.6903 642.5262,-392.8342 597.3247,-349.312 621,-266.6903 633.1767,-224.196 653.3841,-176.4087 664.8526,-150.6325"/>
<polygon fill="#191970" stroke="#191970" points="668.1388,-151.8587 669.0513,-141.3032 661.7555,-148.9857 668.1388,-151.8587"/>
</g>
<!-- Node430730&#45;&gt;Node430732 -->
<g id="edge19" class="edge">
<title>Node430730&#45;&gt;Node430732</title>
<path fill="none" stroke="#191970" d="M539.4183,-487.2419C566.1783,-497.7095 609.2984,-514.5767 639.3907,-526.3478"/>
<polygon fill="#191970" stroke="#191970" points="638.4661,-529.7443 649.054,-530.1278 641.0161,-523.2253 638.4661,-529.7443"/>
</g>
<!-- Node431098 -->
<g id="node19" class="node">
<title>Node431098</title>
<g id="a_node19"><a xlink:href="libregexp_8c.html#a0a619a0b3bf0d0ec3aa0a9a59d610e1c" target="_top" xlink:title="__attribute__">
<polygon fill="none" stroke="#000000" points="475,-390.1903 475,-409.1903 555,-409.1903 555,-390.1903 475,-390.1903"/>
<text text-anchor="middle" x="515" y="-397.1903" font-family="Helvetica,sans-Serif" font-size="10.00" fill="#000000">__attribute__</text>
</a>
</g>
</g>
<!-- Node431097&#45;&gt;Node431098 -->
<g id="edge22" class="edge">
<title>Node431097&#45;&gt;Node431098</title>
<path fill="none" stroke="#191970" d="M399.037,-393.6268C418.7216,-394.6561 443.2067,-395.9364 464.5984,-397.0549"/>
<polygon fill="#191970" stroke="#191970" points="464.6475,-400.5621 474.8167,-397.5892 465.0131,-393.5717 464.6475,-400.5621"/>
</g>
<!-- Node431099 -->
<g id="node20" class="node">
<title>Node431099</title>
<g id="a_node20"><a xlink:href="libregexp_8c.html#a09c49010ae229bc3a53575addc5f7c40" target="_top" xlink:title="compute_stack_size">
<polygon fill="none" stroke="#ff0000" points="457,-352.1903 457,-371.1903 573,-371.1903 573,-352.1903 457,-352.1903"/>
<text text-anchor="middle" x="515" y="-359.1903" font-family="Helvetica,sans-Serif" font-size="10.00" fill="#000000">compute_stack_size</text>
</a>
</g>
</g>
<!-- Node431097&#45;&gt;Node431099 -->
<g id="edge23" class="edge">
<title>Node431097&#45;&gt;Node431099</title>
<path fill="none" stroke="#191970" d="M399.037,-384.4281C416.2833,-381.0465 437.2145,-376.9423 456.5217,-373.1566"/>
<polygon fill="#191970" stroke="#191970" points="457.3024,-376.5702 466.4421,-371.2114 455.9554,-369.701 457.3024,-376.5702"/>
</g>
<!-- Node430820 -->
<g id="node21" class="node">
<title>Node430820</title>
<g id="a_node21"><a xlink:href="cutils_8h.html#a1fed0a329cb7bb0e04283285037921a4" target="_top" xlink:title="dbuf_error">
<polygon fill="none" stroke="#000000" points="481.5,-428.1903 481.5,-447.1903 548.5,-447.1903 548.5,-428.1903 481.5,-428.1903"/>
<text text-anchor="middle" x="515" y="-435.1903" font-family="Helvetica,sans-Serif" font-size="10.00" fill="#000000">dbuf_error</text>
</a>
</g>
</g>
<!-- Node431097&#45;&gt;Node430820 -->
<g id="edge24" class="edge">
<title>Node431097&#45;&gt;Node430820</title>
<path fill="none" stroke="#191970" d="M390.3178,-401.2862C406.3107,-406.6088 426.7033,-413.2348 445,-418.6903 453.5924,-421.2522 462.8203,-423.8589 471.6655,-426.2872"/>
<polygon fill="#191970" stroke="#191970" points="470.8672,-429.6971 481.4351,-428.9411 472.7024,-422.9419 470.8672,-429.6971"/>
</g>
<!-- Node431166 -->
<g id="node23" class="node">
<title>Node431166</title>
<g id="a_node23"><a xlink:href="quickjs_8c.html#ab0f713d7a2440dbb2673810323a9a78d" target="_top" xlink:title="JS_ThrowTypeErrorInvalid\lClass">
<polygon fill="none" stroke="#000000" points="445,-226.6903 445,-256.6903 585,-256.6903 585,-226.6903 445,-226.6903"/>
<text text-anchor="start" x="453" y="-244.6903" font-family="Helvetica,sans-Serif" font-size="10.00" fill="#000000">JS_ThrowTypeErrorInvalid</text>
<text text-anchor="middle" x="515" y="-233.6903" font-family="Helvetica,sans-Serif" font-size="10.00" fill="#000000">Class</text>
</a>
</g>
</g>
<!-- Node431165&#45;&gt;Node431166 -->
<g id="edge28" class="edge">
<title>Node431165&#45;&gt;Node431166</title>
<path fill="none" stroke="#191970" d="M404.619,-240.2474C413.9695,-240.3696 424.1663,-240.5029 434.4609,-240.6375"/>
<polygon fill="#191970" stroke="#191970" points="434.7155,-244.141 444.7604,-240.7721 434.807,-237.1416 434.7155,-244.141"/>
</g>
<!-- Node431168&#45;&gt;Node430728 -->
<g id="edge36" class="edge">
<title>Node431168&#45;&gt;Node430728</title>
<path fill="none" stroke="#191970" d="M258.1115,-170.9461C265.6441,-173.6934 273.0423,-177.478 279,-182.6903 307.1298,-207.3002 294.9583,-227.1424 315,-258.6903 324.0978,-273.0113 336.3427,-287.7515 346.0531,-298.6539"/>
<polygon fill="#191970" stroke="#191970" points="343.5732,-301.129 352.8907,-306.1724 348.7519,-296.4194 343.5732,-301.129"/>
</g>
<!-- Node431168&#45;&gt;Node430731 -->
<g id="edge34" class="edge">
<title>Node431168&#45;&gt;Node430731</title>
<path fill="none" stroke="#191970" d="M258.4125,-155.2713C275.6908,-151.7084 296.3067,-147.6959 315,-144.6903 372.4755,-135.4488 386.8954,-132.2525 445,-128.6903 507.1056,-124.8827 522.7867,-127.6361 585,-128.6903 596.1801,-128.8797 608.1513,-129.2037 619.5616,-129.5704"/>
<polygon fill="#191970" stroke="#191970" points="619.7317,-133.078 629.8439,-129.9166 619.9674,-126.082 619.7317,-133.078"/>
</g>
<!-- Node431168&#45;&gt;Node431165 -->
<g id="edge32" class="edge">
<title>Node431168&#45;&gt;Node431165</title>
<path fill="none" stroke="#191970" d="M258.0016,-173.285C265.2215,-175.8263 272.5274,-178.9367 279,-182.6903 297.7763,-193.5789 297.1727,-203.3089 315,-215.6903 320.0136,-219.1723 325.601,-222.4675 331.124,-225.4372"/>
<polygon fill="#191970" stroke="#191970" points="329.7484,-228.6649 340.2451,-230.1033 332.9365,-222.433 329.7484,-228.6649"/>
</g>
<!-- Node431168&#45;&gt;Node430765 -->
<g id="edge33" class="edge">
<title>Node431168&#45;&gt;Node430765</title>
<path fill="none" stroke="#191970" d="M236.6784,-154.1585C255.7398,-143.6236 287.4483,-126.2224 315,-111.6903 320.9563,-108.5486 327.3667,-105.2326 333.4794,-102.1013"/>
<polygon fill="#191970" stroke="#191970" points="335.4126,-105.0444 342.7321,-97.3843 332.2333,-98.808 335.4126,-105.0444"/>
</g>
<!-- Node430947 -->
<g id="node27" class="node">
<title>Node430947</title>
<g id="a_node27"><a xlink:href="quickjs_8h.html#a3d68fe446df2d9c7d1900b16371bff5b" target="_top" xlink:title="JS_IsObject">
<polygon fill="none" stroke="#000000" points="326.5,-154.1903 326.5,-173.1903 397.5,-173.1903 397.5,-154.1903 326.5,-154.1903"/>
<text text-anchor="middle" x="362" y="-161.1903" font-family="Helvetica,sans-Serif" font-size="10.00" fill="#000000">JS_IsObject</text>
</a>
</g>
</g>
<!-- Node431168&#45;&gt;Node430947 -->
<g id="edge35" class="edge">
<title>Node431168&#45;&gt;Node430947</title>
<path fill="none" stroke="#191970" d="M258.0626,-163.6903C276.0056,-163.6903 297.4797,-163.6903 316.2387,-163.6903"/>
<polygon fill="#191970" stroke="#191970" points="316.3415,-167.1904 326.3414,-163.6903 316.3414,-160.1904 316.3415,-167.1904"/>
</g>
<!-- Node430882 -->
<g id="node28" class="node">
<title>Node430882</title>
<g id="a_node28"><a xlink:href="quickjs_8c.html#a2bf30c9cddfe98a32535843202495069" target="_top" xlink:title="JS_ToBoolFree">
<polygon fill="none" stroke="#000000" points="473.5,-188.1903 473.5,-207.1903 556.5,-207.1903 556.5,-188.1903 473.5,-188.1903"/>
<text text-anchor="middle" x="515" y="-195.1903" font-family="Helvetica,sans-Serif" font-size="10.00" fill="#000000">JS_ToBoolFree</text>
</a>
</g>
</g>
<!-- Node431168&#45;&gt;Node430882 -->
<g id="edge37" class="edge">
<title>Node431168&#45;&gt;Node430882</title>
<path fill="none" stroke="#191970" d="M258.3496,-172.5323C275.6162,-176.1736 296.2405,-180.1303 315,-182.6903 365.1449,-189.5331 422.8201,-193.4411 463.3102,-195.5409"/>
<polygon fill="#191970" stroke="#191970" points="463.3148,-199.0454 473.4771,-196.0489 463.6642,-192.0542 463.3148,-199.0454"/>
</g>
<!-- Node430882&#45;&gt;Node430692 -->
<g id="edge38" class="edge">
<title>Node430882&#45;&gt;Node430692</title>
<path fill="none" stroke="#191970" d="M556.7228,-206.1028C566.2846,-208.8182 576.2147,-212.2978 585,-216.6903 612.405,-230.3921 639.538,-253.2991 656.3908,-268.9305"/>
<polygon fill="#191970" stroke="#191970" points="654.1287,-271.6088 663.7944,-275.9475 658.944,-266.5281 654.1287,-271.6088"/>
</g>
<!-- Node431086&#45;&gt;Node430692 -->
<g id="edge42" class="edge">
<title>Node431086&#45;&gt;Node430692</title>
<path fill="none" stroke="#191970" d="M567.405,-168.8416C573.5908,-171.6478 579.6109,-174.9126 585,-178.6903 619.3526,-202.7708 647.8966,-243.5571 662.6549,-267.2091"/>
<polygon fill="#191970" stroke="#191970" points="659.7647,-269.1928 667.949,-275.921 665.7468,-265.5575 659.7647,-269.1928"/>
</g>
<!-- Node431086&#45;&gt;Node430731 -->
<g id="edge43" class="edge">
<title>Node431086&#45;&gt;Node430731</title>
<path fill="none" stroke="#191970" d="M577.1885,-145.0584C591.149,-143.1207 605.851,-141.08 619.4484,-139.1927"/>
<polygon fill="#191970" stroke="#191970" points="620.1767,-142.6252 629.6005,-137.7836 619.2142,-135.6917 620.1767,-142.6252"/>
</g>
<!-- Node430893&#45;&gt;Node430666 -->
<g id="edge45" class="edge">
<title>Node430893&#45;&gt;Node430666</title>
<path fill="none" stroke="#191970" d="M264.3195,-656.9991C352.7769,-655.3184 555.9864,-649.8872 726,-633.6903 741.9197,-632.1736 759.2191,-629.8968 774.7659,-627.6177"/>
<polygon fill="#191970" stroke="#191970" points="775.3272,-631.0727 784.6971,-626.1275 774.2884,-624.1502 775.3272,-631.0727"/>
</g>
</g>
</svg>
        <g id="navigator" transform="translate(0 0)" fill="#404254">
                <rect fill="#f2f5e9" fill-opacity="0.5" stroke="#606060" stroke-width=".5" x="0" y="0" width="60" height="60"/>
                <use id="zoomplus" xlink:href="#zoomPlus" x="17" y="9" onmousedown="handleZoom(evt,'in')"/>
                <use id="zoomminus" xlink:href="#zoomMin" x="42" y="9" onmousedown="handleZoom(evt,'out')"/>
                <use id="reset" xlink:href="#resetDef" x="30" y="36" onmousedown="handleReset()"/>
                <g id="arrowUp" xlink:href="#dirArrow" transform="translate(30 24)" onmousedown="handlePan(0,-1)">
                  <use xlink:href="#rim" fill="#404040">
                        <set attributeName="fill" to="#808080" begin="arrowUp.mouseover" end="arrowUp.mouseout"/>
                  </use>
                  <path fill="none" stroke="white" stroke-width="1.5" d="M0,-3.0v7 M-2.5,-0.5L0,-3.0L2.5,-0.5"/>
                </g>
                <g id="arrowRight" xlink:href="#dirArrow" transform="rotate(90) translate(36 -43)" onmousedown="handlePan(1,0)">
                  <use xlink:href="#rim" fill="#404040">
                        <set attributeName="fill" to="#808080" begin="arrowRight.mouseover" end="arrowRight.mouseout"/>
                  </use>
                  <path fill="none" stroke="white" stroke-width="1.5" d="M0,-3.0v7 M-2.5,-0.5L0,-3.0L2.5,-0.5"/>
                </g>
                <g id="arrowDown" xlink:href="#dirArrow" transform="rotate(180) translate(-30 -48)" onmousedown="handlePan(0,1)">
                  <use xlink:href="#rim" fill="#404040">
                        <set attributeName="fill" to="#808080" begin="arrowDown.mouseover" end="arrowDown.mouseout"/>
                  </use>
                  <path fill="none" stroke="white" stroke-width="1.5" d="M0,-3.0v7 M-2.5,-0.5L0,-3.0L2.5,-0.5"/>
                </g>
                <g id="arrowLeft" xlink:href="#dirArrow" transform="rotate(270) translate(-36 17)" onmousedown="handlePan(-1,0)">
                  <use xlink:href="#rim" fill="#404040">
                        <set attributeName="fill" to="#808080" begin="arrowLeft.mouseover" end="arrowLeft.mouseout"/>
                  </use>
                  <path fill="none" stroke="white" stroke-width="1.5" d="M0,-3.0v7 M-2.5,-0.5L0,-3.0L2.5,-0.5"/>
                </g>
        </g>
        <svg viewBox="0 0 15 15" width="100%" height="30px" preserveAspectRatio="xMaxYMin meet">
         <g id="arrow_out" transform="scale(0.3 0.3)">
          <a xlink:href="quickjs_8c_a233052710c228313122c39c231a23ddf_cgraph_org.svg" target="_base">
           <rect id="button" ry="5" rx="5" y="6" x="6" height="38" width="38"
                fill="#f2f5e9" fill-opacity="0.5" stroke="#606060" stroke-width="1.0"/>
           <path id="arrow"
             d="M 11.500037,31.436501 C 11.940474,20.09759 22.043105,11.32322 32.158766,21.979434 L 37.068811,17.246167 C 37.068811,17.246167 37.088388,32 37.088388,32 L 22.160133,31.978069 C 22.160133,31.978069 26.997745,27.140456 26.997745,27.140456 C 18.528582,18.264221 13.291696,25.230495 11.500037,31.436501 z"
             style="fill:#404040;"/>
          </a>
         </g>
        </svg>
</svg>
