<?xml version="1.0" encoding="UTF-8" standalone="no"?>
<!DOCTYPE svg PUBLIC "-//W3C//DTD SVG 1.1//EN"
 "http://www.w3.org/Graphics/SVG/1.1/DTD/svg11.dtd">
<!-- Generated by graphviz version 2.40.1 (20161225.0304)
 -->
<!-- Title: emit_class_field_init Pages: 1 -->
<!--zoomable 257 -->
<svg id="main" version="1.1" xmlns="http://www.w3.org/2000/svg" xmlns:xlink="http://www.w3.org/1999/xlink" xml:space="preserve" onload="init(evt)">
<style type="text/css"><![CDATA[
.edge:hover path { stroke: red; }
.edge:hover polygon { stroke: red; fill: red; }
]]></style>
<script type="text/javascript"><![CDATA[
var edges = document.getElementsByTagName('g');
if (edges && edges.length) {
  for (var i=0;i<edges.length;i++) {
    if (edges[i].id.substr(0,4)=='edge') {
      edges[i].setAttribute('class','edge');
    }
  }
}
]]></script>
        <defs>
                <circle id="rim" cx="0" cy="0" r="7"/>
                <circle id="rim2" cx="0" cy="0" r="3.5"/>
                <g id="zoomPlus">
                        <use xlink:href="#rim" fill="#404040">
                                <set attributeName="fill" to="#808080" begin="zoomplus.mouseover" end="zoomplus.mouseout"/>
                        </use>
                        <path d="M-4,0h8M0,-4v8" fill="none" stroke="white" stroke-width="1.5" pointer-events="none"/>
                </g>
                <g id="zoomMin">
                        <use xlink:href="#rim" fill="#404040">
                                <set attributeName="fill" to="#808080" begin="zoomminus.mouseover" end="zoomminus.mouseout"/>
                        </use>
                        <path d="M-4,0h8" fill="none" stroke="white" stroke-width="1.5" pointer-events="none"/>
                </g>
                <g id="dirArrow">
                        <path fill="none" stroke="white" stroke-width="1.5" d="M0,-3.0v7 M-2.5,-0.5L0,-3.0L2.5,-0.5"/>
                </g>
               <g id="resetDef">
                       <use xlink:href="#rim2" fill="#404040">
                               <set attributeName="fill" to="#808080" begin="reset.mouseover" end="reset.mouseout"/>
                       </use>
               </g>
        </defs>

<script type="text/javascript">
var viewWidth = 977;
var viewHeight = 257;
var sectionId = 'dynsection-1033';
</script>
<script xlink:href="svgpan.js"/>
<svg id="graph" class="graph">
<g id="viewport">
<title>emit_class_field_init</title>
<!-- Node321996 -->
<g id="node1" class="node">
<title>Node321996</title>
<polygon fill="#bfbfbf" stroke="#000000" points="0,-153.3031 0,-172.3031 116,-172.3031 116,-153.3031 0,-153.3031"/>
<text text-anchor="middle" x="58" y="-160.3031" font-family="Helvetica,sans-Serif" font-size="10.00" fill="#000000">emit_class_field_init</text>
</g>
<!-- Node321997 -->
<g id="node2" class="node">
<title>Node321997</title>
<g id="a_node2"><a xlink:href="quickjs_8c.html#acc9eb677cab8dfcf45f59381f8a19601" target="_top" xlink:title="js_parse_function_decl2">
<polygon fill="none" stroke="#000000" points="152,-96.3031 152,-115.3031 286,-115.3031 286,-96.3031 152,-96.3031"/>
<text text-anchor="middle" x="219" y="-103.3031" font-family="Helvetica,sans-Serif" font-size="10.00" fill="#000000">js_parse_function_decl2</text>
</a>
</g>
</g>
<!-- Node321996&#45;&gt;Node321997 -->
<g id="edge1" class="edge">
<title>Node321996&#45;&gt;Node321997</title>
<path fill="none" stroke="#191970" d="M94.5172,-149.8746C124.141,-139.3867 165.2315,-124.8391 191.9643,-115.3747"/>
<polygon fill="#191970" stroke="#191970" points="93.2063,-146.6258 84.9478,-153.2626 95.5426,-153.2244 93.2063,-146.6258"/>
</g>
<!-- Node321999 -->
<g id="node4" class="node">
<title>Node321999</title>
<g id="a_node4"><a xlink:href="quickjs_8c.html#a840642c87c5a82d4cc68333376a3b6de" target="_top" xlink:title="js_parse_postfix_expr">
<polygon fill="none" stroke="#ff0000" points="671,-172.3031 671,-191.3031 793,-191.3031 793,-172.3031 671,-172.3031"/>
<text text-anchor="middle" x="732" y="-179.3031" font-family="Helvetica,sans-Serif" font-size="10.00" fill="#000000">js_parse_postfix_expr</text>
</a>
</g>
</g>
<!-- Node321996&#45;&gt;Node321999 -->
<g id="edge20" class="edge">
<title>Node321996&#45;&gt;Node321999</title>
<path fill="none" stroke="#191970" d="M122.9782,-173.9486C229.9144,-190.7505 449.63,-218.787 635,-200.8031 654.1297,-198.9472 675.0873,-195.0785 692.6119,-191.3134"/>
<polygon fill="#191970" stroke="#191970" points="123.4122,-170.4738 112.9865,-172.3597 122.3127,-177.3869 123.4122,-170.4738"/>
</g>
<!-- Node321998 -->
<g id="node3" class="node">
<title>Node321998</title>
<g id="a_node3"><a xlink:href="quickjs_8c.html#a00eb789430243c24dab4a63ad6a79653" target="_top" xlink:title="js_parse_class">
<polygon fill="none" stroke="#000000" points="528.5,-39.3031 528.5,-58.3031 615.5,-58.3031 615.5,-39.3031 528.5,-39.3031"/>
<text text-anchor="middle" x="572" y="-46.3031" font-family="Helvetica,sans-Serif" font-size="10.00" fill="#000000">js_parse_class</text>
</a>
</g>
</g>
<!-- Node321997&#45;&gt;Node321998 -->
<g id="edge2" class="edge">
<title>Node321997&#45;&gt;Node321998</title>
<path fill="none" stroke="#191970" d="M296.4032,-95.0654C346.7883,-87.8682 413.8908,-77.8924 473,-67.8031 491.1142,-64.7112 511.0237,-60.9593 528.2085,-57.6089"/>
<polygon fill="#191970" stroke="#191970" points="295.6428,-91.6383 286.2358,-96.5125 296.6292,-98.5684 295.6428,-91.6383"/>
</g>
<!-- Node322015 -->
<g id="node7" class="node">
<title>Node322015</title>
<g id="a_node7"><a xlink:href="quickjs_8c.html#a498e1d5c7de1b59c1630e9847cde1e41" target="_top" xlink:title="js_parse_export">
<polygon fill="none" stroke="#000000" points="685,-9.3031 685,-28.3031 779,-28.3031 779,-9.3031 685,-9.3031"/>
<text text-anchor="middle" x="732" y="-16.3031" font-family="Helvetica,sans-Serif" font-size="10.00" fill="#000000">js_parse_export</text>
</a>
</g>
</g>
<!-- Node321997&#45;&gt;Node322015 -->
<g id="edge13" class="edge">
<title>Node321997&#45;&gt;Node322015</title>
<path fill="none" stroke="#191970" d="M234.9239,-89.0508C253.7168,-70.5804 286.8791,-41.8822 322,-29.8031 447.2431,13.2716 606.9285,-.4398 684.8922,-11.1588"/>
<polygon fill="#191970" stroke="#191970" points="232.3332,-86.6929 227.7858,-96.2623 237.3082,-91.6174 232.3332,-86.6929"/>
</g>
<!-- Node322031 -->
<g id="node8" class="node">
<title>Node322031</title>
<g id="a_node8"><a xlink:href="quickjs_8c.html#adf95ddf430ef93fd9efea1cc2f8a2fbe" target="_top" xlink:title="js_parse_class_default_ctor">
<polygon fill="none" stroke="#000000" points="322,-39.3031 322,-58.3031 473,-58.3031 473,-39.3031 322,-39.3031"/>
<text text-anchor="middle" x="397.5" y="-46.3031" font-family="Helvetica,sans-Serif" font-size="10.00" fill="#000000">js_parse_class_default_ctor</text>
</a>
</g>
</g>
<!-- Node321997&#45;&gt;Node322031 -->
<g id="edge11" class="edge">
<title>Node321997&#45;&gt;Node322031</title>
<path fill="none" stroke="#191970" d="M258.3585,-93.17C277.552,-87.0152 300.9783,-79.5118 322,-72.8031 336.9373,-68.0361 353.543,-62.7554 367.369,-58.3639"/>
<polygon fill="#191970" stroke="#191970" points="257.1957,-89.8672 248.7425,-96.2542 259.3336,-96.5327 257.1957,-89.8672"/>
</g>
<!-- Node322032 -->
<g id="node9" class="node">
<title>Node322032</title>
<g id="a_node9"><a xlink:href="quickjs_8c.html#a3cad0b329e5f016dce8d42b4196c3499" target="_top" xlink:title="js_parse_function_decl">
<polygon fill="none" stroke="#000000" points="333.5,-115.3031 333.5,-134.3031 461.5,-134.3031 461.5,-115.3031 333.5,-115.3031"/>
<text text-anchor="middle" x="397.5" y="-122.3031" font-family="Helvetica,sans-Serif" font-size="10.00" fill="#000000">js_parse_function_decl</text>
</a>
</g>
</g>
<!-- Node321997&#45;&gt;Node322032 -->
<g id="edge14" class="edge">
<title>Node321997&#45;&gt;Node322032</title>
<path fill="none" stroke="#191970" d="M296.4595,-114.0481C308.7488,-115.3562 321.3417,-116.6966 333.284,-117.9678"/>
<polygon fill="#191970" stroke="#191970" points="296.5432,-110.5373 286.2288,-112.9591 295.8022,-117.498 296.5432,-110.5373"/>
</g>
<!-- Node321998&#45;&gt;Node321999 -->
<g id="edge3" class="edge">
<title>Node321998&#45;&gt;Node321999</title>
<path fill="none" stroke="#191970" d="M591.2285,-64.7868C624.7098,-92.6181 692.7563,-149.1817 720.1658,-171.9659"/>
<polygon fill="#191970" stroke="#191970" points="593.4343,-62.069 583.5068,-58.3681 588.9596,-67.4521 593.4343,-62.069"/>
</g>
<!-- Node322003 -->
<g id="node5" class="node">
<title>Node322003</title>
<g id="a_node5"><a xlink:href="quickjs_8c.html#a9d844c16dcc71701436848074337d32c" target="_top" xlink:title="js_parse_statement\l_or_decl">
<polygon fill="none" stroke="#ff0000" points="675.5,-47.8031 675.5,-77.8031 788.5,-77.8031 788.5,-47.8031 675.5,-47.8031"/>
<text text-anchor="start" x="683.5" y="-65.8031" font-family="Helvetica,sans-Serif" font-size="10.00" fill="#000000">js_parse_statement</text>
<text text-anchor="middle" x="732" y="-54.8031" font-family="Helvetica,sans-Serif" font-size="10.00" fill="#000000">_or_decl</text>
</a>
</g>
</g>
<!-- Node321998&#45;&gt;Node322003 -->
<g id="edge5" class="edge">
<title>Node321998&#45;&gt;Node322003</title>
<path fill="none" stroke="#191970" d="M625.9305,-53.522C641.8529,-54.9152 659.3221,-56.4438 675.4071,-57.8512"/>
<polygon fill="#191970" stroke="#191970" points="625.9878,-50.0137 615.7207,-52.6286 625.3775,-56.9871 625.9878,-50.0137"/>
</g>
<!-- Node321998&#45;&gt;Node322015 -->
<g id="edge9" class="edge">
<title>Node321998&#45;&gt;Node322015</title>
<path fill="none" stroke="#191970" d="M625.8094,-38.7138C644.9814,-35.1191 666.4092,-31.1014 684.968,-27.6216"/>
<polygon fill="#191970" stroke="#191970" points="624.9044,-35.3224 615.7207,-40.6055 626.1945,-42.2025 624.9044,-35.3224"/>
</g>
<!-- Node321999&#45;&gt;Node321999 -->
<g id="edge4" class="edge">
<title>Node321999&#45;&gt;Node321999</title>
<path fill="none" stroke="#191970" d="M702.0599,-200.0776C702.9135,-205.5441 712.8936,-209.8031 732,-209.8031 760.4375,-209.8031 768.6577,-200.3684 756.6606,-191.5601"/>
<polygon fill="#191970" stroke="#191970" points="705.0458,-201.9038 707.3394,-191.5601 699.096,-198.2158 705.0458,-201.9038"/>
</g>
<!-- Node322003&#45;&gt;Node322003 -->
<g id="edge6" class="edge">
<title>Node322003&#45;&gt;Node322003</title>
<path fill="none" stroke="#191970" d="M703.5699,-88.261C707.0985,-92.9821 716.5752,-96.3031 732,-96.3031 757.3125,-96.3031 766.6069,-87.3597 759.8833,-77.9621"/>
<polygon fill="#191970" stroke="#191970" points="707.0815,-88.1336 704.1167,-77.9621 700.0914,-87.7624 707.0815,-88.1336"/>
</g>
<!-- Node322007 -->
<g id="node6" class="node">
<title>Node322007</title>
<g id="a_node6"><a xlink:href="quickjs_8c.html#ab59a3267a100decc9d2d81eb3297794a" target="_top" xlink:title="js_parse_source_element">
<polygon fill="none" stroke="#ff0000" points="829,-84.3031 829,-103.3031 969,-103.3031 969,-84.3031 829,-84.3031"/>
<text text-anchor="middle" x="899" y="-91.3031" font-family="Helvetica,sans-Serif" font-size="10.00" fill="#000000">js_parse_source_element</text>
</a>
</g>
</g>
<!-- Node322003&#45;&gt;Node322007 -->
<g id="edge7" class="edge">
<title>Node322003&#45;&gt;Node322007</title>
<path fill="none" stroke="#191970" d="M798.5579,-75.1582C814.8745,-78.187 832.092,-81.383 847.5745,-84.257"/>
<polygon fill="#191970" stroke="#191970" points="799.0094,-71.6822 788.5386,-73.2983 797.7318,-78.5647 799.0094,-71.6822"/>
</g>
<!-- Node322007&#45;&gt;Node321997 -->
<g id="edge8" class="edge">
<title>Node322007&#45;&gt;Node321997</title>
<path fill="none" stroke="#191970" d="M889.9041,-112.5531C874.5834,-141.688 840.5775,-196.7677 793,-218.8031 587.0205,-314.2017 303.1915,-156.8956 234.4453,-115.417"/>
<polygon fill="#191970" stroke="#191970" points="893.1313,-113.9279 894.5356,-103.4265 886.8891,-110.7601 893.1313,-113.9279"/>
</g>
<!-- Node322015&#45;&gt;Node322007 -->
<g id="edge10" class="edge">
<title>Node322015&#45;&gt;Node322007</title>
<path fill="none" stroke="#191970" d="M776.152,-31.4923C781.8788,-33.4475 787.6196,-35.5663 793,-37.8031 826.0557,-51.5453 862.5429,-72.1007 882.9287,-84.1106"/>
<polygon fill="#191970" stroke="#191970" points="777.1863,-28.1482 766.5937,-28.3647 775.0093,-34.8011 777.1863,-28.1482"/>
</g>
<!-- Node322031&#45;&gt;Node321998 -->
<g id="edge12" class="edge">
<title>Node322031&#45;&gt;Node321998</title>
<path fill="none" stroke="#191970" d="M483.2035,-48.8031C498.7409,-48.8031 514.3437,-48.8031 528.0402,-48.8031"/>
<polygon fill="#191970" stroke="#191970" points="483.0234,-45.3032 473.0233,-48.8031 483.0233,-52.3032 483.0234,-45.3032"/>
</g>
<!-- Node322032&#45;&gt;Node321999 -->
<g id="edge17" class="edge">
<title>Node322032&#45;&gt;Node321999</title>
<path fill="none" stroke="#191970" d="M419.5332,-140.0649C441.1783,-154.0595 475.7103,-173.7874 509,-181.8031 562.6363,-194.718 625.6566,-193.2549 670.9947,-189.419"/>
<polygon fill="#191970" stroke="#191970" points="421.3564,-137.0745 411.0869,-134.4692 417.4903,-142.91 421.3564,-137.0745"/>
</g>
<!-- Node322032&#45;&gt;Node322003 -->
<g id="edge19" class="edge">
<title>Node322032&#45;&gt;Node322003</title>
<path fill="none" stroke="#191970" d="M459.0429,-113.396C520.8684,-101.9366 615.351,-84.4241 675.372,-73.2992"/>
<polygon fill="#191970" stroke="#191970" points="458.2272,-109.9875 449.0326,-115.2515 459.503,-116.8703 458.2272,-109.9875"/>
</g>
<!-- Node322032&#45;&gt;Node322007 -->
<g id="edge18" class="edge">
<title>Node322032&#45;&gt;Node322007</title>
<path fill="none" stroke="#191970" d="M472.0218,-122.2102C551.5838,-119.1671 681.3126,-113.4161 793,-104.8031 804.6215,-103.9069 816.9426,-102.7856 828.9152,-101.6043"/>
<polygon fill="#191970" stroke="#191970" points="471.4755,-118.7283 461.6149,-122.6037 471.74,-125.7233 471.4755,-118.7283"/>
</g>
<!-- Node322025 -->
<g id="node10" class="node">
<title>Node322025</title>
<g id="a_node10"><a xlink:href="quickjs_8c.html#aee6d0acd87f136d43f157ae1426436e6" target="_top" xlink:title="js_parse_object_literal">
<polygon fill="none" stroke="#000000" points="509,-153.3031 509,-172.3031 635,-172.3031 635,-153.3031 509,-153.3031"/>
<text text-anchor="middle" x="572" y="-160.3031" font-family="Helvetica,sans-Serif" font-size="10.00" fill="#000000">js_parse_object_literal</text>
</a>
</g>
</g>
<!-- Node322032&#45;&gt;Node322025 -->
<g id="edge15" class="edge">
<title>Node322032&#45;&gt;Node322025</title>
<path fill="none" stroke="#191970" d="M451.4691,-136.5557C476.1433,-141.9289 504.9948,-148.2117 528.2829,-153.283"/>
<polygon fill="#191970" stroke="#191970" points="452.0495,-133.1001 441.5337,-134.3921 450.56,-139.9398 452.0495,-133.1001"/>
</g>
<!-- Node322025&#45;&gt;Node321999 -->
<g id="edge16" class="edge">
<title>Node322025&#45;&gt;Node321999</title>
<path fill="none" stroke="#191970" d="M645.2074,-171.4965C653.7624,-172.5124 662.4217,-173.5407 670.7903,-174.5344"/>
<polygon fill="#191970" stroke="#191970" points="645.5792,-168.0161 635.2362,-170.3124 644.7537,-174.9673 645.5792,-168.0161"/>
</g>
</g>
</svg>
        <g id="navigator" transform="translate(0 0)" fill="#404254">
                <rect fill="#f2f5e9" fill-opacity="0.5" stroke="#606060" stroke-width=".5" x="0" y="0" width="60" height="60"/>
                <use id="zoomplus" xlink:href="#zoomPlus" x="17" y="9" onmousedown="handleZoom(evt,'in')"/>
                <use id="zoomminus" xlink:href="#zoomMin" x="42" y="9" onmousedown="handleZoom(evt,'out')"/>
                <use id="reset" xlink:href="#resetDef" x="30" y="36" onmousedown="handleReset()"/>
                <g id="arrowUp" xlink:href="#dirArrow" transform="translate(30 24)" onmousedown="handlePan(0,-1)">
                  <use xlink:href="#rim" fill="#404040">
                        <set attributeName="fill" to="#808080" begin="arrowUp.mouseover" end="arrowUp.mouseout"/>
                  </use>
                  <path fill="none" stroke="white" stroke-width="1.5" d="M0,-3.0v7 M-2.5,-0.5L0,-3.0L2.5,-0.5"/>
                </g>
                <g id="arrowRight" xlink:href="#dirArrow" transform="rotate(90) translate(36 -43)" onmousedown="handlePan(1,0)">
                  <use xlink:href="#rim" fill="#404040">
                        <set attributeName="fill" to="#808080" begin="arrowRight.mouseover" end="arrowRight.mouseout"/>
                  </use>
                  <path fill="none" stroke="white" stroke-width="1.5" d="M0,-3.0v7 M-2.5,-0.5L0,-3.0L2.5,-0.5"/>
                </g>
                <g id="arrowDown" xlink:href="#dirArrow" transform="rotate(180) translate(-30 -48)" onmousedown="handlePan(0,1)">
                  <use xlink:href="#rim" fill="#404040">
                        <set attributeName="fill" to="#808080" begin="arrowDown.mouseover" end="arrowDown.mouseout"/>
                  </use>
                  <path fill="none" stroke="white" stroke-width="1.5" d="M0,-3.0v7 M-2.5,-0.5L0,-3.0L2.5,-0.5"/>
                </g>
                <g id="arrowLeft" xlink:href="#dirArrow" transform="rotate(270) translate(-36 17)" onmousedown="handlePan(-1,0)">
                  <use xlink:href="#rim" fill="#404040">
                        <set attributeName="fill" to="#808080" begin="arrowLeft.mouseover" end="arrowLeft.mouseout"/>
                  </use>
                  <path fill="none" stroke="white" stroke-width="1.5" d="M0,-3.0v7 M-2.5,-0.5L0,-3.0L2.5,-0.5"/>
                </g>
        </g>
        <svg viewBox="0 0 15 15" width="100%" height="30px" preserveAspectRatio="xMaxYMin meet">
         <g id="arrow_out" transform="scale(0.3 0.3)">
          <a xlink:href="quickjs_8c_a1e86277b96b55991d572603e00fef94d_icgraph_org.svg" target="_base">
           <rect id="button" ry="5" rx="5" y="6" x="6" height="38" width="38"
                fill="#f2f5e9" fill-opacity="0.5" stroke="#606060" stroke-width="1.0"/>
           <path id="arrow"
             d="M 11.500037,31.436501 C 11.940474,20.09759 22.043105,11.32322 32.158766,21.979434 L 37.068811,17.246167 C 37.068811,17.246167 37.088388,32 37.088388,32 L 22.160133,31.978069 C 22.160133,31.978069 26.997745,27.140456 26.997745,27.140456 C 18.528582,18.264221 13.291696,25.230495 11.500037,31.436501 z"
             style="fill:#404040;"/>
          </a>
         </g>
        </svg>
</svg>
