<?xml version="1.0" encoding="UTF-8" standalone="no"?>
<!DOCTYPE svg PUBLIC "-//W3C//DTD SVG 1.1//EN"
 "http://www.w3.org/Graphics/SVG/1.1/DTD/svg11.dtd">
<!-- Generated by graphviz version 2.40.1 (20161225.0304)
 -->
<!-- Title: js_new_function_def Pages: 1 -->
<svg width="526pt" height="218pt"
 viewBox="0.00 0.00 526.00 218.00" xmlns="http://www.w3.org/2000/svg" xmlns:xlink="http://www.w3.org/1999/xlink">
<g id="graph0" class="graph" transform="scale(1 1) rotate(0) translate(4 214)">
<title>js_new_function_def</title>
<!-- Node354623 -->
<g id="node1" class="node">
<title>Node354623</title>
<polygon fill="#bfbfbf" stroke="#000000" points="0,-114.5 0,-133.5 116,-133.5 116,-114.5 0,-114.5"/>
<text text-anchor="middle" x="58" y="-121.5" font-family="Helvetica,sans-Serif" font-size="10.00" fill="#000000">js_new_function_def</text>
</g>
<!-- Node354624 -->
<g id="node2" class="node">
<title>Node354624</title>
<g id="a_node2"><a xlink:href="list_8h.html#a663527a4d757540b2177bef0db1ce5c0" target="_top" xlink:title="init_list_head">
<polygon fill="none" stroke="#000000" points="152,-171.5 152,-190.5 234,-190.5 234,-171.5 152,-171.5"/>
<text text-anchor="middle" x="193" y="-178.5" font-family="Helvetica,sans-Serif" font-size="10.00" fill="#000000">init_list_head</text>
</a>
</g>
</g>
<!-- Node354623&#45;&gt;Node354624 -->
<g id="edge1" class="edge">
<title>Node354623&#45;&gt;Node354624</title>
<path fill="none" stroke="#191970" d="M80.596,-133.5405C102.5959,-142.8294 136.2427,-157.0358 160.9925,-167.4857"/>
<polygon fill="#191970" stroke="#191970" points="159.7564,-170.763 170.3303,-171.4284 162.4792,-164.3142 159.7564,-170.763"/>
</g>
<!-- Node354625 -->
<g id="node3" class="node">
<title>Node354625</title>
<g id="a_node3"><a xlink:href="quickjs_8c.html#a85c6e39e83eab2ddb82d58e82721d06a" target="_top" xlink:title="js_dbuf_init">
<polygon fill="none" stroke="#000000" points="156.5,-133.5 156.5,-152.5 229.5,-152.5 229.5,-133.5 156.5,-133.5"/>
<text text-anchor="middle" x="193" y="-140.5" font-family="Helvetica,sans-Serif" font-size="10.00" fill="#000000">js_dbuf_init</text>
</a>
</g>
</g>
<!-- Node354623&#45;&gt;Node354625 -->
<g id="edge2" class="edge">
<title>Node354623&#45;&gt;Node354625</title>
<path fill="none" stroke="#191970" d="M116.0356,-132.168C126.2193,-133.6012 136.6961,-135.0757 146.5141,-136.4575"/>
<polygon fill="#191970" stroke="#191970" points="146.0768,-139.9304 156.4671,-137.8583 147.0525,-132.9987 146.0768,-139.9304"/>
</g>
<!-- Node354629 -->
<g id="node7" class="node">
<title>Node354629</title>
<g id="a_node7"><a xlink:href="quickjs_8c.html#aa2ef5af1544a3012f91a80c98c326b8f" target="_top" xlink:title="JS_NewAtom">
<polygon fill="none" stroke="#000000" points="153.5,-95.5 153.5,-114.5 232.5,-114.5 232.5,-95.5 153.5,-95.5"/>
<text text-anchor="middle" x="193" y="-102.5" font-family="Helvetica,sans-Serif" font-size="10.00" fill="#000000">JS_NewAtom</text>
</a>
</g>
</g>
<!-- Node354623&#45;&gt;Node354629 -->
<g id="edge6" class="edge">
<title>Node354623&#45;&gt;Node354629</title>
<path fill="none" stroke="#191970" d="M116.0356,-115.832C125.0758,-114.5597 134.3471,-113.2549 143.1834,-112.0112"/>
<polygon fill="#191970" stroke="#191970" points="143.9022,-115.4447 153.3167,-110.5851 142.9265,-108.513 143.9022,-115.4447"/>
</g>
<!-- Node354680 -->
<g id="node14" class="node">
<title>Node354680</title>
<g id="a_node14"><a xlink:href="list_8h.html#a3a5d0733570b2fafc18f4c71a2968ea5" target="_top" xlink:title="list_add_tail">
<polygon fill="none" stroke="#000000" points="155,-57.5 155,-76.5 231,-76.5 231,-57.5 155,-57.5"/>
<text text-anchor="middle" x="193" y="-64.5" font-family="Helvetica,sans-Serif" font-size="10.00" fill="#000000">list_add_tail</text>
</a>
</g>
</g>
<!-- Node354623&#45;&gt;Node354680 -->
<g id="edge13" class="edge">
<title>Node354623&#45;&gt;Node354680</title>
<path fill="none" stroke="#191970" d="M80.596,-114.4595C102.5959,-105.1706 136.2427,-90.9642 160.9925,-80.5143"/>
<polygon fill="#191970" stroke="#191970" points="162.4792,-83.6858 170.3303,-76.5716 159.7564,-77.237 162.4792,-83.6858"/>
</g>
<!-- Node354626 -->
<g id="node4" class="node">
<title>Node354626</title>
<g id="a_node4"><a xlink:href="cutils_8h.html#a04e3983476063eb6fbab2fd74fc49fc6" target="_top" xlink:title="dbuf_init2">
<polygon fill="none" stroke="#000000" points="285.5,-180.5 285.5,-199.5 350.5,-199.5 350.5,-180.5 285.5,-180.5"/>
<text text-anchor="middle" x="318" y="-187.5" font-family="Helvetica,sans-Serif" font-size="10.00" fill="#000000">dbuf_init2</text>
</a>
</g>
</g>
<!-- Node354625&#45;&gt;Node354626 -->
<g id="edge3" class="edge">
<title>Node354625&#45;&gt;Node354626</title>
<path fill="none" stroke="#191970" d="M218.2956,-152.5112C236.8102,-159.4726 262.1733,-169.0092 282.6847,-176.7215"/>
<polygon fill="#191970" stroke="#191970" points="281.7209,-180.0983 292.313,-180.3417 284.1846,-173.5461 281.7209,-180.0983"/>
</g>
<!-- Node354628 -->
<g id="node6" class="node">
<title>Node354628</title>
<g id="a_node6"><a xlink:href="quickjs_8c.html#aa548c4ad5eacef7d9508100cfe6f6871" target="_top" xlink:title="js_realloc_rt">
<polygon fill="none" stroke="#000000" points="280,-133.5 280,-152.5 356,-152.5 356,-133.5 280,-133.5"/>
<text text-anchor="middle" x="318" y="-140.5" font-family="Helvetica,sans-Serif" font-size="10.00" fill="#000000">js_realloc_rt</text>
</a>
</g>
</g>
<!-- Node354625&#45;&gt;Node354628 -->
<g id="edge5" class="edge">
<title>Node354625&#45;&gt;Node354628</title>
<path fill="none" stroke="#191970" d="M229.828,-143C242.2158,-143 256.2322,-143 269.3845,-143"/>
<polygon fill="#191970" stroke="#191970" points="269.6997,-146.5001 279.6996,-143 269.6996,-139.5001 269.6997,-146.5001"/>
</g>
<!-- Node354627 -->
<g id="node5" class="node">
<title>Node354627</title>
<g id="a_node5"><a xlink:href="cutils_8c.html#abb5d9de84cd0caedf89814f555ab5d1a" target="_top" xlink:title="dbuf_default_realloc">
<polygon fill="none" stroke="#000000" points="402,-190.5 402,-209.5 518,-209.5 518,-190.5 402,-190.5"/>
<text text-anchor="middle" x="460" y="-197.5" font-family="Helvetica,sans-Serif" font-size="10.00" fill="#000000">dbuf_default_realloc</text>
</a>
</g>
</g>
<!-- Node354626&#45;&gt;Node354627 -->
<g id="edge4" class="edge">
<title>Node354626&#45;&gt;Node354627</title>
<path fill="none" stroke="#191970" d="M350.5777,-192.2942C362.833,-193.1573 377.2739,-194.1742 391.5754,-195.1814"/>
<polygon fill="#191970" stroke="#191970" points="391.7099,-198.6994 401.9311,-195.9106 392.2017,-191.7167 391.7099,-198.6994"/>
</g>
<!-- Node354630 -->
<g id="node8" class="node">
<title>Node354630</title>
<g id="a_node8"><a xlink:href="quickjs_8c.html#a522741f41afb1d0da0aa55968cd8579e" target="_top" xlink:title="JS_NewAtomLen">
<polygon fill="none" stroke="#000000" points="270,-95.5 270,-114.5 366,-114.5 366,-95.5 270,-95.5"/>
<text text-anchor="middle" x="318" y="-102.5" font-family="Helvetica,sans-Serif" font-size="10.00" fill="#000000">JS_NewAtomLen</text>
</a>
</g>
</g>
<!-- Node354629&#45;&gt;Node354630 -->
<g id="edge7" class="edge">
<title>Node354629&#45;&gt;Node354630</title>
<path fill="none" stroke="#191970" d="M232.5508,-105C241.1774,-105 250.4815,-105 259.665,-105"/>
<polygon fill="#191970" stroke="#191970" points="259.9399,-108.5001 269.9399,-105 259.9399,-101.5001 259.9399,-108.5001"/>
</g>
<!-- Node354631 -->
<g id="node9" class="node">
<title>Node354631</title>
<g id="a_node9"><a xlink:href="quickjs_8c.html#ac8c91ebeea0cf07e3079c49a16de739f" target="_top" xlink:title="__JS_FindAtom">
<polygon fill="none" stroke="#ff0000" points="416.5,-152.5 416.5,-171.5 503.5,-171.5 503.5,-152.5 416.5,-152.5"/>
<text text-anchor="middle" x="460" y="-159.5" font-family="Helvetica,sans-Serif" font-size="10.00" fill="#000000">__JS_FindAtom</text>
</a>
</g>
</g>
<!-- Node354630&#45;&gt;Node354631 -->
<g id="edge8" class="edge">
<title>Node354630&#45;&gt;Node354631</title>
<path fill="none" stroke="#191970" d="M343.6269,-114.5486C350.9243,-117.4277 358.8352,-120.7031 366,-124 382.4352,-131.5627 385.3442,-135.9365 402,-143 407.0604,-145.146 412.4515,-147.2025 417.8316,-149.1176"/>
<polygon fill="#191970" stroke="#191970" points="416.8353,-152.4759 427.4298,-152.4009 419.1009,-145.8526 416.8353,-152.4759"/>
</g>
<!-- Node354634 -->
<g id="node10" class="node">
<title>Node354634</title>
<g id="a_node10"><a xlink:href="quickjs_8c.html#ab3ca6381d29dea396b12acd7f755c51a" target="_top" xlink:title="is_digit">
<polygon fill="none" stroke="#000000" points="434,-114.5 434,-133.5 486,-133.5 486,-114.5 434,-114.5"/>
<text text-anchor="middle" x="460" y="-121.5" font-family="Helvetica,sans-Serif" font-size="10.00" fill="#000000">is_digit</text>
</a>
</g>
</g>
<!-- Node354630&#45;&gt;Node354634 -->
<g id="edge9" class="edge">
<title>Node354630&#45;&gt;Node354634</title>
<path fill="none" stroke="#191970" d="M366.0747,-111.4325C384.8645,-113.9467 406.0541,-116.7819 423.5451,-119.1222"/>
<polygon fill="#191970" stroke="#191970" points="423.5275,-122.651 433.9033,-120.5082 424.4559,-115.7128 423.5275,-122.651"/>
</g>
<!-- Node354635 -->
<g id="node11" class="node">
<title>Node354635</title>
<g id="a_node11"><a xlink:href="quickjs_8h.html#ad80a83d73e9b7d872b88fbf2943aebe9" target="_top" xlink:title="JS_IsException">
<polygon fill="none" stroke="#000000" points="416.5,-76.5 416.5,-95.5 503.5,-95.5 503.5,-76.5 416.5,-76.5"/>
<text text-anchor="middle" x="460" y="-83.5" font-family="Helvetica,sans-Serif" font-size="10.00" fill="#000000">JS_IsException</text>
</a>
</g>
</g>
<!-- Node354630&#45;&gt;Node354635 -->
<g id="edge10" class="edge">
<title>Node354630&#45;&gt;Node354635</title>
<path fill="none" stroke="#191970" d="M366.0747,-98.5675C379.0262,-96.8345 393.1178,-94.949 406.3525,-93.1782"/>
<polygon fill="#191970" stroke="#191970" points="406.8255,-96.6462 416.273,-91.8508 405.8971,-89.708 406.8255,-96.6462"/>
</g>
<!-- Node354636 -->
<g id="node12" class="node">
<title>Node354636</title>
<g id="a_node12"><a xlink:href="quickjs_8c.html#a33fd643aff7f70e649d246385cd99b00" target="_top" xlink:title="JS_NewAtomStr">
<polygon fill="none" stroke="#ff0000" points="414,-38.5 414,-57.5 506,-57.5 506,-38.5 414,-38.5"/>
<text text-anchor="middle" x="460" y="-45.5" font-family="Helvetica,sans-Serif" font-size="10.00" fill="#000000">JS_NewAtomStr</text>
</a>
</g>
</g>
<!-- Node354630&#45;&gt;Node354636 -->
<g id="edge11" class="edge">
<title>Node354630&#45;&gt;Node354636</title>
<path fill="none" stroke="#191970" d="M343.6269,-95.4514C350.9243,-92.5723 358.8352,-89.2969 366,-86 382.4352,-78.4373 385.3442,-74.0635 402,-67 407.0604,-64.854 412.4515,-62.7975 417.8316,-60.8824"/>
<polygon fill="#191970" stroke="#191970" points="419.1009,-64.1474 427.4298,-57.5991 416.8353,-57.5241 419.1009,-64.1474"/>
</g>
<!-- Node354654 -->
<g id="node13" class="node">
<title>Node354654</title>
<g id="a_node13"><a xlink:href="quickjs_8c.html#ac34cc554aab1e98c45a7f845fff64385" target="_top" xlink:title="JS_NewStringLen">
<polygon fill="none" stroke="#ff0000" points="411,-.5 411,-19.5 509,-19.5 509,-.5 411,-.5"/>
<text text-anchor="middle" x="460" y="-7.5" font-family="Helvetica,sans-Serif" font-size="10.00" fill="#000000">JS_NewStringLen</text>
</a>
</g>
</g>
<!-- Node354630&#45;&gt;Node354654 -->
<g id="edge12" class="edge">
<title>Node354630&#45;&gt;Node354654</title>
<path fill="none" stroke="#191970" d="M350.2983,-95.4898C355.8863,-92.9603 361.3772,-89.8325 366,-86 389.0669,-66.8768 378.3668,-47.4187 402,-29 404.3114,-27.1986 406.8003,-25.5647 409.4014,-24.0831"/>
<polygon fill="#191970" stroke="#191970" points="411.1251,-27.1366 418.5822,-19.6104 408.0593,-20.8437 411.1251,-27.1366"/>
</g>
<!-- Node354681 -->
<g id="node15" class="node">
<title>Node354681</title>
<g id="a_node15"><a xlink:href="list_8h.html#a16286d5bff74a27aec51a3134ffc7b43" target="_top" xlink:title="__list_add">
<polygon fill="none" stroke="#000000" points="285.5,-57.5 285.5,-76.5 350.5,-76.5 350.5,-57.5 285.5,-57.5"/>
<text text-anchor="middle" x="318" y="-64.5" font-family="Helvetica,sans-Serif" font-size="10.00" fill="#000000">__list_add</text>
</a>
</g>
</g>
<!-- Node354680&#45;&gt;Node354681 -->
<g id="edge14" class="edge">
<title>Node354680&#45;&gt;Node354681</title>
<path fill="none" stroke="#191970" d="M231.1833,-67C245.0492,-67 260.8068,-67 275.0562,-67"/>
<polygon fill="#191970" stroke="#191970" points="275.1169,-70.5001 285.1169,-67 275.1168,-63.5001 275.1169,-70.5001"/>
</g>
</g>
</svg>
