<?xml version="1.0" encoding="UTF-8" standalone="no"?>
<!DOCTYPE svg PUBLIC "-//W3C//DTD SVG 1.1//EN"
 "http://www.w3.org/Graphics/SVG/1.1/DTD/svg11.dtd">
<!-- Generated by graphviz version 2.40.1 (20161225.0304)
 -->
<!-- Title: js_build_arguments Pages: 1 -->
<!--zoomable 1053 -->
<svg id="main" version="1.1" xmlns="http://www.w3.org/2000/svg" xmlns:xlink="http://www.w3.org/1999/xlink" xml:space="preserve" onload="init(evt)">
<style type="text/css"><![CDATA[
.edge:hover path { stroke: red; }
.edge:hover polygon { stroke: red; fill: red; }
]]></style>
<script type="text/javascript"><![CDATA[
var edges = document.getElementsByTagName('g');
if (edges && edges.length) {
  for (var i=0;i<edges.length;i++) {
    if (edges[i].id.substr(0,4)=='edge') {
      edges[i].setAttribute('class','edge');
    }
  }
}
]]></script>
        <defs>
                <circle id="rim" cx="0" cy="0" r="7"/>
                <circle id="rim2" cx="0" cy="0" r="3.5"/>
                <g id="zoomPlus">
                        <use xlink:href="#rim" fill="#404040">
                                <set attributeName="fill" to="#808080" begin="zoomplus.mouseover" end="zoomplus.mouseout"/>
                        </use>
                        <path d="M-4,0h8M0,-4v8" fill="none" stroke="white" stroke-width="1.5" pointer-events="none"/>
                </g>
                <g id="zoomMin">
                        <use xlink:href="#rim" fill="#404040">
                                <set attributeName="fill" to="#808080" begin="zoomminus.mouseover" end="zoomminus.mouseout"/>
                        </use>
                        <path d="M-4,0h8" fill="none" stroke="white" stroke-width="1.5" pointer-events="none"/>
                </g>
                <g id="dirArrow">
                        <path fill="none" stroke="white" stroke-width="1.5" d="M0,-3.0v7 M-2.5,-0.5L0,-3.0L2.5,-0.5"/>
                </g>
               <g id="resetDef">
                       <use xlink:href="#rim2" fill="#404040">
                               <set attributeName="fill" to="#808080" begin="reset.mouseover" end="reset.mouseout"/>
                       </use>
               </g>
        </defs>

<script type="text/javascript">
var viewWidth = 1256;
var viewHeight = 1053;
var sectionId = 'dynsection-794';
</script>
<script xlink:href="svgpan.js"/>
<svg id="graph" class="graph">
<g id="viewport">
<title>js_build_arguments</title>
<!-- Node274613 -->
<g id="node1" class="node">
<title>Node274613</title>
<polygon fill="#bfbfbf" stroke="#000000" points="0,-626.2346 0,-645.2346 112,-645.2346 112,-626.2346 0,-626.2346"/>
<text text-anchor="middle" x="56" y="-633.2346" font-family="Helvetica,sans-Serif" font-size="10.00" fill="#000000">js_build_arguments</text>
</g>
<!-- Node274614 -->
<g id="node2" class="node">
<title>Node274614</title>
<g id="a_node2"><a xlink:href="quickjs_8c.html#a74547db03bf739a52c83a326b32db997" target="_top" xlink:title="add_property">
<polygon fill="none" stroke="#000000" points="822,-864.2346 822,-883.2346 903,-883.2346 903,-864.2346 822,-864.2346"/>
<text text-anchor="middle" x="862.5" y="-871.2346" font-family="Helvetica,sans-Serif" font-size="10.00" fill="#000000">add_property</text>
</a>
</g>
</g>
<!-- Node274613&#45;&gt;Node274614 -->
<g id="edge1" class="edge">
<title>Node274613&#45;&gt;Node274614</title>
<path fill="none" stroke="#191970" d="M60.1943,-645.2591C83.7245,-697.0774 204.6787,-942.7346 383,-942.7346 383,-942.7346 383,-942.7346 557,-942.7346 654.1139,-942.7346 679.3276,-935.3587 773,-909.7346 793.6614,-904.0826 816.0173,-895.0924 833.2174,-887.5103"/>
<polygon fill="#191970" stroke="#191970" points="835.0139,-890.54 842.697,-883.2446 832.1415,-884.1565 835.0139,-890.54"/>
</g>
<!-- Node274643 -->
<g id="node9" class="node">
<title>Node274643</title>
<g id="a_node9"><a xlink:href="quickjs_8h.html#a775522f2d084fc8fa0fcb33f390006b4" target="_top" xlink:title="JS_DupValue">
<polygon fill="none" stroke="#000000" points="1148,-978.2346 1148,-997.2346 1225,-997.2346 1225,-978.2346 1148,-978.2346"/>
<text text-anchor="middle" x="1186.5" y="-985.2346" font-family="Helvetica,sans-Serif" font-size="10.00" fill="#000000">JS_DupValue</text>
</a>
</g>
</g>
<!-- Node274613&#45;&gt;Node274643 -->
<g id="edge55" class="edge">
<title>Node274613&#45;&gt;Node274643</title>
<path fill="none" stroke="#191970" d="M58.4172,-645.4413C74.4735,-707.3779 171.6306,-1044.7346 383,-1044.7346 383,-1044.7346 383,-1044.7346 862.5,-1044.7346 965.0232,-1044.7346 1083.0723,-1016.7088 1144.4653,-999.9606"/>
<polygon fill="#191970" stroke="#191970" points="1145.4735,-1003.3132 1154.1793,-997.2751 1143.6082,-996.5663 1145.4735,-1003.3132"/>
</g>
<!-- Node274672 -->
<g id="node12" class="node">
<title>Node274672</title>
<g id="a_node12"><a xlink:href="quickjs_8c.html#ab50618f1bf78e444caa6da0e3e2785d7" target="_top" xlink:title="JS_DefineProperty">
<polygon fill="none" stroke="#ff0000" points="331,-446.2346 331,-465.2346 435,-465.2346 435,-446.2346 331,-446.2346"/>
<text text-anchor="middle" x="383" y="-453.2346" font-family="Helvetica,sans-Serif" font-size="10.00" fill="#000000">JS_DefineProperty</text>
</a>
</g>
</g>
<!-- Node274613&#45;&gt;Node274672 -->
<g id="edge13" class="edge">
<title>Node274613&#45;&gt;Node274672</title>
<path fill="none" stroke="#191970" d="M73.5809,-626.057C127.7127,-596.2597 292.0957,-505.7736 356.6113,-470.2604"/>
<polygon fill="#191970" stroke="#191970" points="358.6563,-473.13 365.729,-465.2415 355.2807,-466.9977 358.6563,-473.13"/>
</g>
<!-- Node274664 -->
<g id="node21" class="node">
<title>Node274664</title>
<g id="a_node21"><a xlink:href="quickjs_8h.html#afaa20c47565bc704c6c85f3d77254e7d" target="_top" xlink:title="JS_FreeValue">
<polygon fill="none" stroke="#ff0000" points="679,-9.2346 679,-28.2346 757,-28.2346 757,-9.2346 679,-9.2346"/>
<text text-anchor="middle" x="718" y="-16.2346" font-family="Helvetica,sans-Serif" font-size="10.00" fill="#000000">JS_FreeValue</text>
</a>
</g>
</g>
<!-- Node274613&#45;&gt;Node274664 -->
<g id="edge56" class="edge">
<title>Node274613&#45;&gt;Node274664</title>
<path fill="none" stroke="#191970" d="M56.8805,-626.2095C61.1753,-583.0386 82.4513,-402.2006 148,-271.7346 200.7583,-166.7263 218.7732,-134.1925 315,-66.7346 430.6257,14.3226 486.0958,2.5158 627,-6.7346 640.5582,-7.6246 655.1799,-9.253 668.6525,-11.0292"/>
<polygon fill="#191970" stroke="#191970" points="668.3116,-14.5151 678.6944,-12.4064 669.2628,-7.58 668.3116,-14.5151"/>
</g>
<!-- Node274695 -->
<g id="node22" class="node">
<title>Node274695</title>
<g id="a_node22"><a xlink:href="quickjs_8h.html#ad80a83d73e9b7d872b88fbf2943aebe9" target="_top" xlink:title="JS_IsException">
<polygon fill="none" stroke="#000000" points="674.5,-180.2346 674.5,-199.2346 761.5,-199.2346 761.5,-180.2346 674.5,-180.2346"/>
<text text-anchor="middle" x="718" y="-187.2346" font-family="Helvetica,sans-Serif" font-size="10.00" fill="#000000">JS_IsException</text>
</a>
</g>
</g>
<!-- Node274613&#45;&gt;Node274695 -->
<g id="edge57" class="edge">
<title>Node274613&#45;&gt;Node274695</title>
<path fill="none" stroke="#191970" d="M58.7492,-626.23C67.7766,-596.1396 98.7826,-501.1576 148,-436.7346 267.4963,-280.32 302.0653,-219.1441 487,-151.7346 545.4597,-130.4257 565.9909,-139.508 627,-151.7346 649.804,-156.3046 674.0302,-166.7245 691.7482,-175.4992"/>
<polygon fill="#191970" stroke="#191970" points="690.3737,-178.7271 700.8716,-180.1571 693.5567,-172.4927 690.3737,-178.7271"/>
</g>
<!-- Node274738 -->
<g id="node23" class="node">
<title>Node274738</title>
<g id="a_node23"><a xlink:href="quickjs_8h.html#a2050bc428da1c65ac7eb87c3fa3b0392" target="_top" xlink:title="JS_NewInt32">
<polygon fill="none" stroke="#000000" points="824,-465.2346 824,-484.2346 901,-484.2346 901,-465.2346 824,-465.2346"/>
<text text-anchor="middle" x="862.5" y="-472.2346" font-family="Helvetica,sans-Serif" font-size="10.00" fill="#000000">JS_NewInt32</text>
</a>
</g>
</g>
<!-- Node274613&#45;&gt;Node274738 -->
<g id="edge58" class="edge">
<title>Node274613&#45;&gt;Node274738</title>
<path fill="none" stroke="#191970" d="M112.0649,-636.7438C271.2038,-639.1661 717.7982,-642.7347 773,-607.7346 798.3052,-591.69 792.3711,-575.6596 809,-550.7346 822.3487,-530.7263 838.291,-508.2513 849.2808,-492.9658"/>
<polygon fill="#191970" stroke="#191970" points="852.4024,-494.6212 855.416,-484.4639 846.7261,-490.5249 852.4024,-494.6212"/>
</g>
<!-- Node274816 -->
<g id="node29" class="node">
<title>Node274816</title>
<g id="a_node29"><a xlink:href="quickjs_8c.html#a0a8765bd4012467d9139bc24aabcb3ca" target="_top" xlink:title="JS_DefinePropertyValue">
<polygon fill="none" stroke="#000000" points="148,-446.2346 148,-465.2346 279,-465.2346 279,-446.2346 148,-446.2346"/>
<text text-anchor="middle" x="213.5" y="-453.2346" font-family="Helvetica,sans-Serif" font-size="10.00" fill="#000000">JS_DefinePropertyValue</text>
</a>
</g>
</g>
<!-- Node274613&#45;&gt;Node274816 -->
<g id="edge52" class="edge">
<title>Node274613&#45;&gt;Node274816</title>
<path fill="none" stroke="#191970" d="M63.9813,-625.9894C79.7689,-606.778 116.2119,-562.7542 148,-526.7346 164.5119,-508.0246 183.9575,-487.0781 197.3481,-472.8158"/>
<polygon fill="#191970" stroke="#191970" points="200.1572,-474.938 204.4646,-465.2583 195.061,-470.1392 200.1572,-474.938"/>
</g>
<!-- Node274818 -->
<g id="node30" class="node">
<title>Node274818</title>
<g id="a_node30"><a xlink:href="quickjs_8c.html#a73738c650f11459db0d7af3dcdf8316b" target="_top" xlink:title="JS_NewObjectProtoClass">
<polygon fill="none" stroke="#ff0000" points="315,-845.2346 315,-864.2346 451,-864.2346 451,-845.2346 315,-845.2346"/>
<text text-anchor="middle" x="383" y="-852.2346" font-family="Helvetica,sans-Serif" font-size="10.00" fill="#000000">JS_NewObjectProtoClass</text>
</a>
</g>
</g>
<!-- Node274613&#45;&gt;Node274818 -->
<g id="edge59" class="edge">
<title>Node274613&#45;&gt;Node274818</title>
<path fill="none" stroke="#191970" d="M70.4727,-645.4273C122.0728,-679.9851 297.303,-797.3411 360.25,-839.4983"/>
<polygon fill="#191970" stroke="#191970" points="358.438,-842.4972 368.6944,-845.1537 362.3333,-836.6811 358.438,-842.4972"/>
</g>
<!-- Node274615 -->
<g id="node3" class="node">
<title>Node274615</title>
<g id="a_node3"><a xlink:href="quickjs_8c.html#a3cadcaa2bd1e3f9359f1c006f396cfa0" target="_top" xlink:title="add_shape_property">
<polygon fill="none" stroke="#ff0000" points="962.5,-769.2346 962.5,-788.2346 1078.5,-788.2346 1078.5,-769.2346 962.5,-769.2346"/>
<text text-anchor="middle" x="1020.5" y="-776.2346" font-family="Helvetica,sans-Serif" font-size="10.00" fill="#000000">add_shape_property</text>
</a>
</g>
</g>
<!-- Node274614&#45;&gt;Node274615 -->
<g id="edge2" class="edge">
<title>Node274614&#45;&gt;Node274615</title>
<path fill="none" stroke="#191970" d="M891.37,-864.1762C899.8623,-860.5044 908.7976,-855.7211 916,-849.7346 937.6168,-831.7669 929.0885,-814.0191 952,-797.7346 954.716,-795.8041 957.6211,-794.0695 960.6451,-792.511"/>
<polygon fill="#191970" stroke="#191970" points="962.2926,-795.6087 970.0041,-788.3434 959.4451,-789.2141 962.2926,-795.6087"/>
</g>
<!-- Node274620 -->
<g id="node6" class="node">
<title>Node274620</title>
<g id="a_node6"><a xlink:href="quickjs_8c.html#a82dbe63adeac7849406fd48d96f39f7b" target="_top" xlink:title="js_shape_hash_link">
<polygon fill="none" stroke="#ff0000" points="1131,-826.2346 1131,-845.2346 1242,-845.2346 1242,-826.2346 1131,-826.2346"/>
<text text-anchor="middle" x="1186.5" y="-833.2346" font-family="Helvetica,sans-Serif" font-size="10.00" fill="#000000">js_shape_hash_link</text>
</a>
</g>
</g>
<!-- Node274614&#45;&gt;Node274620 -->
<g id="edge12" class="edge">
<title>Node274614&#45;&gt;Node274620</title>
<path fill="none" stroke="#191970" d="M903.013,-878.2061C948.6561,-882.214 1024.8476,-885.7943 1089,-873.7346 1113.4788,-869.1329 1139.7029,-858.561 1158.7819,-849.7336"/>
<polygon fill="#191970" stroke="#191970" points="1160.5354,-852.7752 1168.0606,-845.3172 1157.527,-846.4547 1160.5354,-852.7752"/>
</g>
<!-- Node274640 -->
<g id="node7" class="node">
<title>Node274640</title>
<g id="a_node7"><a xlink:href="quickjs_8c.html#ac0c5dbb01d6082796c44b1c7f7c170f1" target="_top" xlink:title="find_hashed_shape_prop">
<polygon fill="none" stroke="#ff0000" points="952,-807.2346 952,-826.2346 1089,-826.2346 1089,-807.2346 952,-807.2346"/>
<text text-anchor="middle" x="1020.5" y="-814.2346" font-family="Helvetica,sans-Serif" font-size="10.00" fill="#000000">find_hashed_shape_prop</text>
</a>
</g>
</g>
<!-- Node274614&#45;&gt;Node274640 -->
<g id="edge6" class="edge">
<title>Node274614&#45;&gt;Node274640</title>
<path fill="none" stroke="#191970" d="M884.2106,-864.1295C906.2789,-854.4363 939.0117,-840.2712 952,-835.7346 958.5756,-833.4378 965.5811,-831.2302 972.5074,-829.1842"/>
<polygon fill="#191970" stroke="#191970" points="973.8898,-832.4291 982.5393,-826.3106 971.9621,-825.6997 973.8898,-832.4291"/>
</g>
<!-- Node274641 -->
<g id="node8" class="node">
<title>Node274641</title>
<g id="a_node8"><a xlink:href="quickjs_8c.html#a8e34657169da77ae6a386311351ed3de" target="_top" xlink:title="js_clone_shape">
<polygon fill="none" stroke="#ff0000" points="975,-845.2346 975,-864.2346 1066,-864.2346 1066,-845.2346 975,-845.2346"/>
<text text-anchor="middle" x="1020.5" y="-852.2346" font-family="Helvetica,sans-Serif" font-size="10.00" fill="#000000">js_clone_shape</text>
</a>
</g>
</g>
<!-- Node274614&#45;&gt;Node274641 -->
<g id="edge7" class="edge">
<title>Node274614&#45;&gt;Node274641</title>
<path fill="none" stroke="#191970" d="M903.1889,-868.8416C921.9615,-866.5841 944.5423,-863.8687 964.8584,-861.4256"/>
<polygon fill="#191970" stroke="#191970" points="965.4218,-864.8832 974.9324,-860.2142 964.586,-857.9333 965.4218,-864.8832"/>
</g>
<!-- Node274644 -->
<g id="node10" class="node">
<title>Node274644</title>
<g id="a_node10"><a xlink:href="quickjs_8c.html#aed229eb80b3b03a2275471dee93c69d6" target="_top" xlink:title="js_dup_shape">
<polygon fill="none" stroke="#000000" points="979,-731.2346 979,-750.2346 1062,-750.2346 1062,-731.2346 979,-731.2346"/>
<text text-anchor="middle" x="1020.5" y="-738.2346" font-family="Helvetica,sans-Serif" font-size="10.00" fill="#000000">js_dup_shape</text>
</a>
</g>
</g>
<!-- Node274614&#45;&gt;Node274644 -->
<g id="edge10" class="edge">
<title>Node274614&#45;&gt;Node274644</title>
<path fill="none" stroke="#191970" d="M894.4814,-864.1462C902.2838,-860.6092 910.0792,-855.9044 916,-849.7346 945.8294,-818.6507 919.9093,-788.478 952,-759.7346 956.8866,-755.3576 962.6973,-751.9792 968.8376,-749.3733"/>
<polygon fill="#191970" stroke="#191970" points="970.4197,-752.5257 978.6725,-745.8817 968.0777,-745.9291 970.4197,-752.5257"/>
</g>
<!-- Node274645 -->
<g id="node11" class="node">
<title>Node274645</title>
<g id="a_node11"><a xlink:href="quickjs_8c.html#a3a9f27520d96cf58aa5bd7359e9cddee" target="_top" xlink:title="js_free_shape">
<polygon fill="none" stroke="#ff0000" points="978.5,-921.2346 978.5,-940.2346 1062.5,-940.2346 1062.5,-921.2346 978.5,-921.2346"/>
<text text-anchor="middle" x="1020.5" y="-928.2346" font-family="Helvetica,sans-Serif" font-size="10.00" fill="#000000">js_free_shape</text>
</a>
</g>
</g>
<!-- Node274614&#45;&gt;Node274645 -->
<g id="edge11" class="edge">
<title>Node274614&#45;&gt;Node274645</title>
<path fill="none" stroke="#191970" d="M888.3087,-883.3767C906.1663,-890.0174 930.4938,-899.0028 952,-906.7346 962.1544,-910.3852 973.1801,-914.279 983.358,-917.8447"/>
<polygon fill="#191970" stroke="#191970" points="982.2054,-921.1494 992.8002,-921.1443 984.5146,-914.5413 982.2054,-921.1494"/>
</g>
<!-- Node274616 -->
<g id="node4" class="node">
<title>Node274616</title>
<g id="a_node4"><a xlink:href="quickjs_8c.html#a288254c06a39c9fca740a7abdad2834e" target="_top" xlink:title="__JS_AtomIsTaggedInt">
<polygon fill="none" stroke="#000000" points="1125,-446.2346 1125,-465.2346 1248,-465.2346 1248,-446.2346 1125,-446.2346"/>
<text text-anchor="middle" x="1186.5" y="-453.2346" font-family="Helvetica,sans-Serif" font-size="10.00" fill="#000000">__JS_AtomIsTaggedInt</text>
</a>
</g>
</g>
<!-- Node274615&#45;&gt;Node274616 -->
<g id="edge3" class="edge">
<title>Node274615&#45;&gt;Node274616</title>
<path fill="none" stroke="#191970" d="M1075.2335,-769.1319C1080.2825,-766.665 1084.9957,-763.5826 1089,-759.7346 1110.442,-739.1291 1164.4566,-539.4184 1181.3606,-475.3852"/>
<polygon fill="#191970" stroke="#191970" points="1184.8315,-475.9481 1183.989,-465.3868 1178.0615,-474.1683 1184.8315,-475.9481"/>
</g>
<!-- Node274617 -->
<g id="node5" class="node">
<title>Node274617</title>
<g id="a_node5"><a xlink:href="quickjs_8c.html#a643df594b75933007bcdbb071b5ea8c5" target="_top" xlink:title="get_shape_prop">
<polygon fill="none" stroke="#000000" points="1139.5,-693.2346 1139.5,-712.2346 1233.5,-712.2346 1233.5,-693.2346 1139.5,-693.2346"/>
<text text-anchor="middle" x="1186.5" y="-700.2346" font-family="Helvetica,sans-Serif" font-size="10.00" fill="#000000">get_shape_prop</text>
</a>
</g>
</g>
<!-- Node274615&#45;&gt;Node274617 -->
<g id="edge4" class="edge">
<title>Node274615&#45;&gt;Node274617</title>
<path fill="none" stroke="#191970" d="M1061.6588,-769.1787C1070.8131,-766.543 1080.3602,-763.3853 1089,-759.7346 1116.1299,-748.2706 1144.9904,-730.6354 1164.2101,-718.0179"/>
<polygon fill="#191970" stroke="#191970" points="1166.1911,-720.9038 1172.5711,-712.4452 1162.3088,-715.079 1166.1911,-720.9038"/>
</g>
<!-- Node274615&#45;&gt;Node274620 -->
<g id="edge5" class="edge">
<title>Node274615&#45;&gt;Node274620</title>
<path fill="none" stroke="#191970" d="M1057.679,-788.311C1067.8938,-791.1414 1078.9289,-794.3848 1089,-797.7346 1111.1665,-805.1074 1135.6637,-814.6609 1154.5578,-822.3442"/>
<polygon fill="#191970" stroke="#191970" points="1153.3052,-825.6133 1163.8854,-826.1701 1155.9617,-819.1369 1153.3052,-825.6133"/>
</g>
<!-- Node274641&#45;&gt;Node274617 -->
<g id="edge8" class="edge">
<title>Node274641&#45;&gt;Node274617</title>
<path fill="none" stroke="#191970" d="M1066.2543,-846.641C1074.2616,-843.974 1082.1961,-840.4333 1089,-835.7346 1132.201,-805.8999 1163.5393,-750.5629 1177.8428,-721.5681"/>
<polygon fill="#191970" stroke="#191970" points="1181.0246,-723.0272 1182.1832,-712.4959 1174.7101,-720.0061 1181.0246,-723.0272"/>
</g>
<!-- Node274641&#45;&gt;Node274643 -->
<g id="edge9" class="edge">
<title>Node274641&#45;&gt;Node274643</title>
<path fill="none" stroke="#191970" d="M1032.4383,-864.2996C1060.5367,-886.8121 1131.1083,-943.3545 1166.1313,-971.415"/>
<polygon fill="#191970" stroke="#191970" points="1164.2294,-974.3761 1174.222,-977.8974 1168.6063,-968.9132 1164.2294,-974.3761"/>
</g>
<!-- Node274672&#45;&gt;Node274616 -->
<g id="edge15" class="edge">
<title>Node274672&#45;&gt;Node274616</title>
<path fill="none" stroke="#191970" d="M383.5067,-446.1226C386.175,-405.0311 401.936,-242.1114 487,-151.7346 563.0838,-70.8988 606.9903,-56.7346 718,-56.7346 718,-56.7346 718,-56.7346 862.5,-56.7346 1060.2206,-56.7346 1158.3986,-355.6489 1181.226,-436.0332"/>
<polygon fill="#191970" stroke="#191970" points="1177.9084,-437.1678 1183.9495,-445.8716 1184.6547,-435.3002 1177.9084,-437.1678"/>
</g>
<!-- Node274672&#45;&gt;Node274617 -->
<g id="edge24" class="edge">
<title>Node274672&#45;&gt;Node274617</title>
<path fill="none" stroke="#191970" d="M388.2507,-446.1825C401.3938,-423.3471 438.1885,-365.715 487,-341.7346 579.458,-296.3113 614.9866,-322.7346 718,-322.7346 718,-322.7346 718,-322.7346 862.5,-322.7346 1053.7959,-322.7346 1156.0277,-605.031 1180.6146,-682.9968"/>
<polygon fill="#191970" stroke="#191970" points="1177.3939,-684.431 1183.6802,-692.9594 1184.0844,-682.3722 1177.3939,-684.431"/>
</g>
<!-- Node274672&#45;&gt;Node274643 -->
<g id="edge45" class="edge">
<title>Node274672&#45;&gt;Node274643</title>
<path fill="none" stroke="#191970" d="M383.9768,-465.2982C392.0166,-538.4653 453.7924,-1006.7346 718,-1006.7346 718,-1006.7346 718,-1006.7346 862.5,-1006.7346 960.1767,-1006.7346 1074.1335,-998.0225 1137.5349,-992.3971"/>
<polygon fill="#191970" stroke="#191970" points="1137.9956,-995.8699 1147.642,-991.4883 1137.3687,-988.898 1137.9956,-995.8699"/>
</g>
<!-- Node274673 -->
<g id="node13" class="node">
<title>Node274673</title>
<g id="a_node13"><a xlink:href="quickjs_8c.html#a014abd680db53ab89cb133345742a59c" target="_top" xlink:title="__attribute__">
<polygon fill="none" stroke="#ff0000" points="678,-579.2346 678,-598.2346 758,-598.2346 758,-579.2346 678,-579.2346"/>
<text text-anchor="middle" x="718" y="-586.2346" font-family="Helvetica,sans-Serif" font-size="10.00" fill="#000000">__attribute__</text>
</a>
</g>
</g>
<!-- Node274672&#45;&gt;Node274673 -->
<g id="edge14" class="edge">
<title>Node274672&#45;&gt;Node274673</title>
<path fill="none" stroke="#191970" d="M386.2193,-465.3451C396.0633,-492.9733 428.6939,-572.5624 487,-602.7346 549.8309,-635.2482 635.513,-616.412 682.8871,-601.4824"/>
<polygon fill="#191970" stroke="#191970" points="684.2566,-604.717 692.6725,-598.2809 682.0799,-598.064 684.2566,-604.717"/>
</g>
<!-- Node274700 -->
<g id="node14" class="node">
<title>Node274700</title>
<g id="a_node14"><a xlink:href="quickjs_8c.html#a89f38938cee8077ce1fbba07946ed185" target="_top" xlink:title="__JS_AtomToUInt32">
<polygon fill="none" stroke="#000000" points="663,-427.2346 663,-446.2346 773,-446.2346 773,-427.2346 663,-427.2346"/>
<text text-anchor="middle" x="718" y="-434.2346" font-family="Helvetica,sans-Serif" font-size="10.00" fill="#000000">__JS_AtomToUInt32</text>
</a>
</g>
</g>
<!-- Node274672&#45;&gt;Node274700 -->
<g id="edge16" class="edge">
<title>Node274672&#45;&gt;Node274700</title>
<path fill="none" stroke="#191970" d="M435.3438,-452.7658C494.0013,-449.439 589.1773,-444.0409 652.6661,-440.4401"/>
<polygon fill="#191970" stroke="#191970" points="653.1773,-443.9168 662.963,-439.8561 652.7808,-436.928 653.1773,-443.9168"/>
</g>
<!-- Node275040 -->
<g id="node15" class="node">
<title>Node275040</title>
<g id="a_node15"><a xlink:href="quickjs_8c.html#a68c7ae36cec3bf8bbf6cc0868a71cc4b" target="_top" xlink:title="check_define_prop_flags">
<polygon fill="none" stroke="#000000" points="489,-351.2346 489,-370.2346 625,-370.2346 625,-351.2346 489,-351.2346"/>
<text text-anchor="middle" x="557" y="-358.2346" font-family="Helvetica,sans-Serif" font-size="10.00" fill="#000000">check_define_prop_flags</text>
</a>
</g>
</g>
<!-- Node274672&#45;&gt;Node275040 -->
<g id="edge17" class="edge">
<title>Node274672&#45;&gt;Node275040</title>
<path fill="none" stroke="#191970" d="M394.8223,-446.0806C413.4583,-431.2402 451.2345,-402.6624 487,-384.7346 495.35,-380.549 504.6031,-376.8051 513.5728,-373.5896"/>
<polygon fill="#191970" stroke="#191970" points="514.813,-376.8645 523.1385,-370.3119 512.5439,-370.2425 514.813,-376.8645"/>
</g>
<!-- Node274904 -->
<g id="node16" class="node">
<title>Node274904</title>
<g id="a_node16"><a xlink:href="quickjs_8c.html#ac93c982cb636a5430b191d104083af3e" target="_top" xlink:title="convert_fast_array\l_to_array">
<polygon fill="none" stroke="#ff0000" points="664,-807.7346 664,-837.7346 772,-837.7346 772,-807.7346 664,-807.7346"/>
<text text-anchor="start" x="672" y="-825.7346" font-family="Helvetica,sans-Serif" font-size="10.00" fill="#000000">convert_fast_array</text>
<text text-anchor="middle" x="718" y="-814.7346" font-family="Helvetica,sans-Serif" font-size="10.00" fill="#000000">_to_array</text>
</a>
</g>
</g>
<!-- Node274672&#45;&gt;Node274904 -->
<g id="edge18" class="edge">
<title>Node274672&#45;&gt;Node274904</title>
<path fill="none" stroke="#191970" d="M384.1065,-465.3703C388.9314,-503.1684 411.4018,-643.0913 487,-721.7346 532.0731,-768.6232 602.6489,-795.1078 653.9357,-809.0777"/>
<polygon fill="#191970" stroke="#191970" points="653.361,-812.5456 663.9226,-811.7072 655.1433,-805.7763 653.361,-812.5456"/>
</g>
<!-- Node274690 -->
<g id="node17" class="node">
<title>Node274690</title>
<g id="a_node17"><a xlink:href="quickjs_8c.html#a06b76f5124fd985e35f4c652fd018d6d" target="_top" xlink:title="find_own_property">
<polygon fill="none" stroke="#ff0000" points="809,-560.2346 809,-579.2346 916,-579.2346 916,-560.2346 809,-560.2346"/>
<text text-anchor="middle" x="862.5" y="-567.2346" font-family="Helvetica,sans-Serif" font-size="10.00" fill="#000000">find_own_property</text>
</a>
</g>
</g>
<!-- Node274672&#45;&gt;Node274690 -->
<g id="edge20" class="edge">
<title>Node274672&#45;&gt;Node274690</title>
<path fill="none" stroke="#191970" d="M388.1295,-465.5466C401.0035,-488.9595 437.2459,-547.7767 487,-569.7346 487,-569.7346 691.4667,-569.7346 798.642,-569.7346"/>
<polygon fill="#191970" stroke="#191970" points="798.7,-573.2346 808.7,-569.7346 798.7,-566.2346 798.7,-573.2346"/>
</g>
<!-- Node274661 -->
<g id="node18" class="node">
<title>Node274661</title>
<g id="a_node18"><a xlink:href="quickjs_8c.html#a9e7b4bccf927d811b0f99b40b08c0472" target="_top" xlink:title="free_var_ref">
<polygon fill="none" stroke="#ff0000" points="519,-275.2346 519,-294.2346 595,-294.2346 595,-275.2346 519,-275.2346"/>
<text text-anchor="middle" x="557" y="-282.2346" font-family="Helvetica,sans-Serif" font-size="10.00" fill="#000000">free_var_ref</text>
</a>
</g>
</g>
<!-- Node274672&#45;&gt;Node274661 -->
<g id="edge22" class="edge">
<title>Node274672&#45;&gt;Node274661</title>
<path fill="none" stroke="#191970" d="M387.2785,-445.9024C399.172,-419.6941 435.1982,-347.5196 487,-308.7346 493.6533,-303.7531 501.4144,-299.7566 509.2985,-296.5655"/>
<polygon fill="#191970" stroke="#191970" points="510.7144,-299.7746 518.9101,-293.0603 508.3161,-293.1983 510.7144,-299.7746"/>
</g>
<!-- Node274905 -->
<g id="node19" class="node">
<title>Node274905</title>
<g id="a_node19"><a xlink:href="quickjs_8c.html#a6df3ef223d7e76a0db2c14d972dbfa77" target="_top" xlink:title="get_prop_flags">
<polygon fill="none" stroke="#000000" points="674,-465.2346 674,-484.2346 762,-484.2346 762,-465.2346 674,-465.2346"/>
<text text-anchor="middle" x="718" y="-472.2346" font-family="Helvetica,sans-Serif" font-size="10.00" fill="#000000">get_prop_flags</text>
</a>
</g>
</g>
<!-- Node274672&#45;&gt;Node274905 -->
<g id="edge23" class="edge">
<title>Node274672&#45;&gt;Node274905</title>
<path fill="none" stroke="#191970" d="M435.3438,-458.7033C497.4877,-462.2279 600.6199,-468.0772 663.6364,-471.6512"/>
<polygon fill="#191970" stroke="#191970" points="663.5917,-475.1542 673.7738,-472.2262 663.9881,-468.1655 663.5917,-475.1542"/>
</g>
<!-- Node274736 -->
<g id="node20" class="node">
<title>Node274736</title>
<g id="a_node20"><a xlink:href="quickjs_8c.html#ab4e100a9cde5f7ec87c92f5e766dbbab" target="_top" xlink:title="JS_AtomIsNumericIndex1">
<polygon fill="none" stroke="#ff0000" points="487,-237.2346 487,-256.2346 627,-256.2346 627,-237.2346 487,-237.2346"/>
<text text-anchor="middle" x="557" y="-244.2346" font-family="Helvetica,sans-Serif" font-size="10.00" fill="#000000">JS_AtomIsNumericIndex1</text>
</a>
</g>
</g>
<!-- Node274672&#45;&gt;Node274736 -->
<g id="edge25" class="edge">
<title>Node274672&#45;&gt;Node274736</title>
<path fill="none" stroke="#191970" d="M385.376,-446.0928C393.5879,-414.8507 423.799,-315.5501 487,-265.7346 489.3179,-263.9076 491.7981,-262.2558 494.3915,-260.7626"/>
<polygon fill="#191970" stroke="#191970" points="496.128,-263.8096 503.5735,-256.272 493.0526,-257.5213 496.128,-263.8096"/>
</g>
<!-- Node274672&#45;&gt;Node274664 -->
<g id="edge46" class="edge">
<title>Node274672&#45;&gt;Node274664</title>
<path fill="none" stroke="#191970" d="M383.85,-446.1301C387.8779,-405.7364 408.2702,-247.3186 487,-151.7346 538.272,-89.4864 626.7845,-50.3549 678.0759,-31.7133"/>
<polygon fill="#191970" stroke="#191970" points="679.2569,-35.0082 687.5093,-28.3637 676.9145,-28.4117 679.2569,-35.0082"/>
</g>
<!-- Node274672&#45;&gt;Node274695 -->
<g id="edge47" class="edge">
<title>Node274672&#45;&gt;Node274695</title>
<path fill="none" stroke="#191970" d="M384.2145,-445.9637C389.2184,-410.1769 411.6649,-285.3555 487,-227.7346 514.0282,-207.0617 604.5275,-197.175 663.9032,-192.8088"/>
<polygon fill="#191970" stroke="#191970" points="664.5117,-196.2747 674.2411,-192.0809 664.02,-189.292 664.5117,-196.2747"/>
</g>
<!-- Node274672&#45;&gt;Node274738 -->
<g id="edge50" class="edge">
<title>Node274672&#45;&gt;Node274738</title>
<path fill="none" stroke="#191970" d="M410.6073,-446.0869C475.3441,-424.9487 641.3952,-379.3853 773,-417.7346 800.1097,-425.6342 826.8416,-444.5089 843.9292,-458.3838"/>
<polygon fill="#191970" stroke="#191970" points="842.0254,-461.3551 851.9367,-465.0991 846.5235,-455.9915 842.0254,-461.3551"/>
</g>
<!-- Node274757 -->
<g id="node24" class="node">
<title>Node274757</title>
<g id="a_node24"><a xlink:href="quickjs_8c.html#a8aac7988cf0c6f3c2b629a6662fd7ec8" target="_top" xlink:title="JS_AutoInitProperty">
<polygon fill="none" stroke="#ff0000" points="502,-161.2346 502,-180.2346 612,-180.2346 612,-161.2346 502,-161.2346"/>
<text text-anchor="middle" x="557" y="-168.2346" font-family="Helvetica,sans-Serif" font-size="10.00" fill="#000000">JS_AutoInitProperty</text>
</a>
</g>
</g>
<!-- Node274672&#45;&gt;Node274757 -->
<g id="edge31" class="edge">
<title>Node274672&#45;&gt;Node274757</title>
<path fill="none" stroke="#191970" d="M383.9812,-446.0923C388.337,-408.3029 409.2884,-268.737 487,-194.7346 491.2317,-190.7048 496.1695,-187.3494 501.4287,-184.5559"/>
<polygon fill="#191970" stroke="#191970" points="502.9004,-187.7316 510.5154,-180.3653 499.9688,-181.375 502.9004,-187.7316"/>
</g>
<!-- Node274903 -->
<g id="node25" class="node">
<title>Node274903</title>
<g id="a_node25"><a xlink:href="quickjs_8c.html#ad5565bb5cfd5321f181573257f3b0c91" target="_top" xlink:title="JS_CreateProperty">
<polygon fill="none" stroke="#ff0000" points="505,-693.2346 505,-712.2346 609,-712.2346 609,-693.2346 505,-693.2346"/>
<text text-anchor="middle" x="557" y="-700.2346" font-family="Helvetica,sans-Serif" font-size="10.00" fill="#000000">JS_CreateProperty</text>
</a>
</g>
</g>
<!-- Node274672&#45;&gt;Node274903 -->
<g id="edge33" class="edge">
<title>Node274672&#45;&gt;Node274903</title>
<path fill="none" stroke="#191970" d="M386.9847,-465.2658C399.1836,-493.7883 438.174,-580.236 487,-640.7346 501.2334,-658.3707 520.7594,-675.2093 535.5731,-686.8757"/>
<polygon fill="#191970" stroke="#191970" points="533.6163,-689.7863 543.675,-693.1139 537.8868,-684.2399 533.6163,-689.7863"/>
</g>
<!-- Node274848 -->
<g id="node26" class="node">
<title>Node274848</title>
<g id="a_node26"><a xlink:href="quickjs_8c.html#a1ca9cdb1fa2ffc3e6506e92b200e490f" target="_top" xlink:title="JS_IsFunction">
<polygon fill="none" stroke="#000000" points="678,-857.2346 678,-876.2346 758,-876.2346 758,-857.2346 678,-857.2346"/>
<text text-anchor="middle" x="718" y="-864.2346" font-family="Helvetica,sans-Serif" font-size="10.00" fill="#000000">JS_IsFunction</text>
</a>
</g>
</g>
<!-- Node274672&#45;&gt;Node274848 -->
<g id="edge48" class="edge">
<title>Node274672&#45;&gt;Node274848</title>
<path fill="none" stroke="#191970" d="M383.3075,-465.2714C385.1737,-507.5345 398.1628,-680.0592 487,-775.7346 534.8434,-827.2607 615.5081,-850.0702 667.7402,-859.8386"/>
<polygon fill="#191970" stroke="#191970" points="667.3314,-863.3207 677.7893,-861.6231 668.5553,-856.4285 667.3314,-863.3207"/>
</g>
<!-- Node274762 -->
<g id="node27" class="node">
<title>Node274762</title>
<g id="a_node27"><a xlink:href="quickjs_8h.html#a88259aa0da61ac754402c64ccecee116" target="_top" xlink:title="JS_NewUint32">
<polygon fill="none" stroke="#ff0000" points="675.5,-503.2346 675.5,-522.2346 760.5,-522.2346 760.5,-503.2346 675.5,-503.2346"/>
<text text-anchor="middle" x="718" y="-510.2346" font-family="Helvetica,sans-Serif" font-size="10.00" fill="#000000">JS_NewUint32</text>
</a>
</g>
</g>
<!-- Node274672&#45;&gt;Node274762 -->
<g id="edge51" class="edge">
<title>Node274672&#45;&gt;Node274762</title>
<path fill="none" stroke="#191970" d="M420.8727,-465.2891C440.5191,-470.0381 464.9585,-475.6246 487,-479.7346 547.8481,-491.0806 618.3482,-500.6382 665.3044,-506.5005"/>
<polygon fill="#191970" stroke="#191970" points="664.8932,-509.9763 675.2473,-507.7305 665.7527,-503.0292 664.8932,-509.9763"/>
</g>
<!-- Node274756 -->
<g id="node28" class="node">
<title>Node274756</title>
<g id="a_node28"><a xlink:href="quickjs_8h.html#a4e407128a9605afb77523e49e9a627fd" target="_top" xlink:title="JS_IsUndefined">
<polygon fill="none" stroke="#000000" points="512.5,-541.2346 512.5,-560.2346 601.5,-560.2346 601.5,-541.2346 512.5,-541.2346"/>
<text text-anchor="middle" x="557" y="-548.2346" font-family="Helvetica,sans-Serif" font-size="10.00" fill="#000000">JS_IsUndefined</text>
</a>
</g>
</g>
<!-- Node274672&#45;&gt;Node274756 -->
<g id="edge49" class="edge">
<title>Node274672&#45;&gt;Node274756</title>
<path fill="none" stroke="#191970" d="M394.8223,-465.3885C413.4583,-480.2289 451.2345,-508.8067 487,-526.7346 495.35,-530.9201 504.6031,-534.664 513.5728,-537.8795"/>
<polygon fill="#191970" stroke="#191970" points="512.5439,-541.2266 523.1385,-541.1572 514.813,-534.6046 512.5439,-541.2266"/>
</g>
<!-- Node274904&#45;&gt;Node274614 -->
<g id="edge19" class="edge">
<title>Node274904&#45;&gt;Node274614</title>
<path fill="none" stroke="#191970" d="M760.5732,-837.7604C781.2263,-845.0497 805.7954,-853.7211 825.6365,-860.7239"/>
<polygon fill="#191970" stroke="#191970" points="824.6516,-864.0878 835.2464,-864.1156 826.9814,-857.4869 824.6516,-864.0878"/>
</g>
<!-- Node274690&#45;&gt;Node274617 -->
<g id="edge21" class="edge">
<title>Node274690&#45;&gt;Node274617</title>
<path fill="none" stroke="#191970" d="M885.8013,-579.2996C942.5248,-602.5842 1087.9317,-662.2729 1153.5264,-689.1991"/>
<polygon fill="#191970" stroke="#191970" points="1152.3945,-692.5178 1162.9745,-693.0775 1155.0527,-686.0422 1152.3945,-692.5178"/>
</g>
<!-- Node274736&#45;&gt;Node274616 -->
<g id="edge26" class="edge">
<title>Node274736&#45;&gt;Node274616</title>
<path fill="none" stroke="#191970" d="M627.1722,-237.2211C735.0142,-226.261 944.1805,-219.8284 1089,-308.7346 1138.006,-338.8199 1167.5769,-403.8577 1179.858,-436.3873"/>
<polygon fill="#191970" stroke="#191970" points="1176.6697,-437.8627 1183.3632,-446.0754 1183.2522,-435.4812 1176.6697,-437.8627"/>
</g>
<!-- Node274736&#45;&gt;Node274700 -->
<g id="edge27" class="edge">
<title>Node274736&#45;&gt;Node274700</title>
<path fill="none" stroke="#191970" d="M610.8272,-256.3648C616.6351,-258.8154 622.1766,-261.8865 627,-265.7346 677.2685,-305.8386 703.2128,-381.4377 713.1244,-417.1305"/>
<polygon fill="#191970" stroke="#191970" points="709.7528,-418.0713 715.6949,-426.843 716.5198,-416.2803 709.7528,-418.0713"/>
</g>
<!-- Node274736&#45;&gt;Node274664 -->
<g id="edge28" class="edge">
<title>Node274736&#45;&gt;Node274664</title>
<path fill="none" stroke="#191970" d="M572.1436,-237.0633C587.4186,-226.7436 610.9733,-209.2233 627,-189.7346 667.2835,-140.7492 697.6003,-71.1358 710.7733,-37.871"/>
<polygon fill="#191970" stroke="#191970" points="714.0858,-39.0091 714.4387,-28.4202 707.5595,-36.4779 714.0858,-39.0091"/>
</g>
<!-- Node274736&#45;&gt;Node274695 -->
<g id="edge29" class="edge">
<title>Node274736&#45;&gt;Node274695</title>
<path fill="none" stroke="#191970" d="M585.3086,-237.1551C598.0662,-232.8055 613.3093,-227.5635 627,-222.7346 645.4151,-216.2392 665.8607,-208.8417 682.6998,-202.6992"/>
<polygon fill="#191970" stroke="#191970" points="683.9639,-205.9637 692.1551,-199.2438 681.5612,-199.3889 683.9639,-205.9637"/>
</g>
<!-- Node274736&#45;&gt;Node274738 -->
<g id="edge30" class="edge">
<title>Node274736&#45;&gt;Node274738</title>
<path fill="none" stroke="#191970" d="M603.2237,-256.3226C611.3733,-258.8356 619.607,-261.9376 627,-265.7346 724.8529,-315.9898 814.3845,-416.3795 848.2129,-457.032"/>
<polygon fill="#191970" stroke="#191970" points="845.6867,-459.4705 854.741,-464.9724 851.0939,-455.025 845.6867,-459.4705"/>
</g>
<!-- Node274757&#45;&gt;Node274695 -->
<g id="edge32" class="edge">
<title>Node274757&#45;&gt;Node274695</title>
<path fill="none" stroke="#191970" d="M612.4071,-177.2733C629.2048,-179.2556 647.6223,-181.4291 664.3057,-183.398"/>
<polygon fill="#191970" stroke="#191970" points="664.0981,-186.8977 674.4394,-184.5939 664.9185,-179.9459 664.0981,-186.8977"/>
</g>
<!-- Node274903&#45;&gt;Node274614 -->
<g id="edge37" class="edge">
<title>Node274903&#45;&gt;Node274614</title>
<path fill="none" stroke="#191970" d="M609.0843,-708.7751C655.265,-716.1054 722.9536,-731.8439 773,-764.7346 808.9685,-788.3731 837.7394,-830.9406 852.2386,-855.2969"/>
<polygon fill="#191970" stroke="#191970" points="849.3668,-857.3226 857.4004,-864.23 855.4277,-853.8204 849.3668,-857.3226"/>
</g>
<!-- Node274903&#45;&gt;Node274616 -->
<g id="edge35" class="edge">
<title>Node274903&#45;&gt;Node274616</title>
<path fill="none" stroke="#191970" d="M593.1571,-693.1789C636.2445,-681.6025 710.2927,-661.1085 773,-640.7346 837.3175,-619.8374 853.7871,-615.2485 916,-588.7346 1007.2036,-549.8653 1111.5587,-495.6879 1159.6528,-470.1461"/>
<polygon fill="#191970" stroke="#191970" points="1161.5892,-473.0802 1168.7691,-465.2892 1158.2978,-466.9023 1161.5892,-473.0802"/>
</g>
<!-- Node274903&#45;&gt;Node274617 -->
<g id="edge40" class="edge">
<title>Node274903&#45;&gt;Node274617</title>
<path fill="none" stroke="#191970" d="M609.0502,-702.7346C725.6883,-702.7346 1007.2833,-702.7346 1128.9343,-702.7346"/>
<polygon fill="#191970" stroke="#191970" points="1129.1555,-706.2346 1139.1555,-702.7346 1129.1554,-699.2346 1129.1555,-706.2346"/>
</g>
<!-- Node274903&#45;&gt;Node274643 -->
<g id="edge41" class="edge">
<title>Node274903&#45;&gt;Node274643</title>
<path fill="none" stroke="#191970" d="M609.1796,-710.1455C615.4031,-712.1106 621.4937,-714.5947 627,-717.7346 647.4917,-729.4193 643.4655,-743.5116 663,-756.7346 706.3365,-786.0691 735.9774,-761.7495 773,-798.7346 804.6497,-830.3522 777.5814,-860.8872 809,-892.7346 857.0502,-941.4404 886.0598,-931.4868 952,-949.7346 1014.954,-967.1559 1089.7675,-977.5657 1137.6708,-982.9715"/>
<polygon fill="#191970" stroke="#191970" points="1137.443,-986.4675 1147.7656,-984.0815 1138.2081,-979.5094 1137.443,-986.4675"/>
</g>
<!-- Node274903&#45;&gt;Node274673 -->
<g id="edge34" class="edge">
<title>Node274903&#45;&gt;Node274673</title>
<path fill="none" stroke="#191970" d="M570.4499,-693.2111C598.2003,-673.5617 662.036,-628.3613 695.9262,-604.3645"/>
<polygon fill="#191970" stroke="#191970" points="698.1085,-607.1078 704.2471,-598.4726 694.0633,-601.395 698.1085,-607.1078"/>
</g>
<!-- Node274903&#45;&gt;Node274700 -->
<g id="edge36" class="edge">
<title>Node274903&#45;&gt;Node274700</title>
<path fill="none" stroke="#191970" d="M562.8925,-693.0175C575.7998,-671.4424 607.0102,-617.6579 627,-569.7346 647.4547,-520.6967 625.935,-493.8042 663,-455.7346 664.4271,-454.2688 665.9725,-452.916 667.6087,-451.6676"/>
<polygon fill="#191970" stroke="#191970" points="669.7302,-454.472 676.4174,-446.2542 666.0651,-448.5081 669.7302,-454.472"/>
</g>
<!-- Node274903&#45;&gt;Node274904 -->
<g id="edge38" class="edge">
<title>Node274903&#45;&gt;Node274904</title>
<path fill="none" stroke="#191970" d="M566.9635,-712.4194C585.1128,-729.7723 625.1858,-766.773 663,-792.7346 667.9402,-796.1262 673.3013,-799.4475 678.6735,-802.5717"/>
<polygon fill="#191970" stroke="#191970" points="677.2204,-805.77 687.6524,-807.6208 680.6515,-799.6685 677.2204,-805.77"/>
</g>
<!-- Node274903&#45;&gt;Node274905 -->
<g id="edge39" class="edge">
<title>Node274903&#45;&gt;Node274905</title>
<path fill="none" stroke="#191970" d="M562.2345,-693.1276C574.0694,-671.3347 603.6719,-616.4165 627,-569.7346 643.7075,-536.3011 635.1616,-518.6737 663,-493.7346 664.7424,-492.1736 666.6196,-490.7396 668.5929,-489.4224"/>
<polygon fill="#191970" stroke="#191970" points="670.6839,-492.2656 677.7408,-484.3629 667.296,-486.14 670.6839,-492.2656"/>
</g>
<!-- Node274903&#45;&gt;Node274848 -->
<g id="edge42" class="edge">
<title>Node274903&#45;&gt;Node274848</title>
<path fill="none" stroke="#191970" d="M561.4567,-712.4233C573.8172,-738.2512 611.0752,-809.3896 663,-847.7346 665.5192,-849.5949 668.2349,-851.2834 671.0624,-852.8142"/>
<polygon fill="#191970" stroke="#191970" points="669.831,-856.1026 680.3705,-857.1847 672.8062,-849.7663 669.831,-856.1026"/>
</g>
<!-- Node274903&#45;&gt;Node274762 -->
<g id="edge43" class="edge">
<title>Node274903&#45;&gt;Node274762</title>
<path fill="none" stroke="#191970" d="M564.1555,-693.1327C580.8347,-670.8934 623.8565,-614.3444 663,-569.7346 675.1153,-555.9274 689.5619,-541.01 700.6083,-529.9002"/>
<polygon fill="#191970" stroke="#191970" points="703.3634,-532.0954 707.9689,-522.5538 698.4185,-527.1408 703.3634,-532.0954"/>
</g>
<!-- Node274762&#45;&gt;Node274738 -->
<g id="edge44" class="edge">
<title>Node274762&#45;&gt;Node274738</title>
<path fill="none" stroke="#191970" d="M754.4635,-503.1455C773.2741,-498.1988 796.4146,-492.1134 816.4472,-486.8453"/>
<polygon fill="#191970" stroke="#191970" points="817.5177,-490.1829 826.2988,-484.2546 815.7374,-483.413 817.5177,-490.1829"/>
</g>
<!-- Node274816&#45;&gt;Node274672 -->
<g id="edge53" class="edge">
<title>Node274816&#45;&gt;Node274672</title>
<path fill="none" stroke="#191970" d="M279.0331,-455.7346C292.6925,-455.7346 307.055,-455.7346 320.5975,-455.7346"/>
<polygon fill="#191970" stroke="#191970" points="320.7686,-459.2346 330.7686,-455.7346 320.7685,-452.2346 320.7686,-459.2346"/>
</g>
<!-- Node274816&#45;&gt;Node274664 -->
<g id="edge54" class="edge">
<title>Node274816&#45;&gt;Node274664</title>
<path fill="none" stroke="#191970" d="M216.4718,-445.986C232.9953,-393.6456 318.9318,-144.5562 487,-42.7346 542.3755,-9.1862 619.1691,-8.2819 668.7239,-12.2689"/>
<polygon fill="#191970" stroke="#191970" points="668.5933,-15.7712 678.8673,-13.1839 669.2223,-8.7996 668.5933,-15.7712"/>
</g>
<!-- Node274818&#45;&gt;Node274644 -->
<g id="edge60" class="edge">
<title>Node274818&#45;&gt;Node274644</title>
<path fill="none" stroke="#191970" d="M409.6056,-864.3407C474.2456,-886.1106 643.7378,-933.7196 773,-885.7346 792.7947,-878.3863 792.1737,-867.4901 809,-854.7346 869.8053,-808.6397 882.5956,-791.4372 952,-759.7346 957.3936,-757.2709 963.1755,-755.0627 969.01,-753.1009"/>
<polygon fill="#191970" stroke="#191970" points="970.3216,-756.3579 978.8194,-750.0303 968.2305,-749.6775 970.3216,-756.3579"/>
</g>
</g>
</svg>
        <g id="navigator" transform="translate(0 0)" fill="#404254">
                <rect fill="#f2f5e9" fill-opacity="0.5" stroke="#606060" stroke-width=".5" x="0" y="0" width="60" height="60"/>
                <use id="zoomplus" xlink:href="#zoomPlus" x="17" y="9" onmousedown="handleZoom(evt,'in')"/>
                <use id="zoomminus" xlink:href="#zoomMin" x="42" y="9" onmousedown="handleZoom(evt,'out')"/>
                <use id="reset" xlink:href="#resetDef" x="30" y="36" onmousedown="handleReset()"/>
                <g id="arrowUp" xlink:href="#dirArrow" transform="translate(30 24)" onmousedown="handlePan(0,-1)">
                  <use xlink:href="#rim" fill="#404040">
                        <set attributeName="fill" to="#808080" begin="arrowUp.mouseover" end="arrowUp.mouseout"/>
                  </use>
                  <path fill="none" stroke="white" stroke-width="1.5" d="M0,-3.0v7 M-2.5,-0.5L0,-3.0L2.5,-0.5"/>
                </g>
                <g id="arrowRight" xlink:href="#dirArrow" transform="rotate(90) translate(36 -43)" onmousedown="handlePan(1,0)">
                  <use xlink:href="#rim" fill="#404040">
                        <set attributeName="fill" to="#808080" begin="arrowRight.mouseover" end="arrowRight.mouseout"/>
                  </use>
                  <path fill="none" stroke="white" stroke-width="1.5" d="M0,-3.0v7 M-2.5,-0.5L0,-3.0L2.5,-0.5"/>
                </g>
                <g id="arrowDown" xlink:href="#dirArrow" transform="rotate(180) translate(-30 -48)" onmousedown="handlePan(0,1)">
                  <use xlink:href="#rim" fill="#404040">
                        <set attributeName="fill" to="#808080" begin="arrowDown.mouseover" end="arrowDown.mouseout"/>
                  </use>
                  <path fill="none" stroke="white" stroke-width="1.5" d="M0,-3.0v7 M-2.5,-0.5L0,-3.0L2.5,-0.5"/>
                </g>
                <g id="arrowLeft" xlink:href="#dirArrow" transform="rotate(270) translate(-36 17)" onmousedown="handlePan(-1,0)">
                  <use xlink:href="#rim" fill="#404040">
                        <set attributeName="fill" to="#808080" begin="arrowLeft.mouseover" end="arrowLeft.mouseout"/>
                  </use>
                  <path fill="none" stroke="white" stroke-width="1.5" d="M0,-3.0v7 M-2.5,-0.5L0,-3.0L2.5,-0.5"/>
                </g>
        </g>
        <svg viewBox="0 0 15 15" width="100%" height="30px" preserveAspectRatio="xMaxYMin meet">
         <g id="arrow_out" transform="scale(0.3 0.3)">
          <a xlink:href="quickjs_8c_a04d312757919ff6b4d79cd0c2c3e5bb2_cgraph_org.svg" target="_base">
           <rect id="button" ry="5" rx="5" y="6" x="6" height="38" width="38"
                fill="#f2f5e9" fill-opacity="0.5" stroke="#606060" stroke-width="1.0"/>
           <path id="arrow"
             d="M 11.500037,31.436501 C 11.940474,20.09759 22.043105,11.32322 32.158766,21.979434 L 37.068811,17.246167 C 37.068811,17.246167 37.088388,32 37.088388,32 L 22.160133,31.978069 C 22.160133,31.978069 26.997745,27.140456 26.997745,27.140456 C 18.528582,18.264221 13.291696,25.230495 11.500037,31.436501 z"
             style="fill:#404040;"/>
          </a>
         </g>
        </svg>
</svg>
