<?xml version="1.0" encoding="UTF-8" standalone="no"?>
<!DOCTYPE svg PUBLIC "-//W3C//DTD SVG 1.1//EN"
 "http://www.w3.org/Graphics/SVG/1.1/DTD/svg11.dtd">
<!-- Generated by graphviz version 2.40.1 (20161225.0304)
 -->
<!-- Title: get_first_lexical_var Pages: 1 -->
<!--zoomable 170 -->
<svg id="main" version="1.1" xmlns="http://www.w3.org/2000/svg" xmlns:xlink="http://www.w3.org/1999/xlink" xml:space="preserve" onload="init(evt)">
<style type="text/css"><![CDATA[
.edge:hover path { stroke: red; }
.edge:hover polygon { stroke: red; fill: red; }
]]></style>
<script type="text/javascript"><![CDATA[
var edges = document.getElementsByTagName('g');
if (edges && edges.length) {
  for (var i=0;i<edges.length;i++) {
    if (edges[i].id.substr(0,4)=='edge') {
      edges[i].setAttribute('class','edge');
    }
  }
}
]]></script>
        <defs>
                <circle id="rim" cx="0" cy="0" r="7"/>
                <circle id="rim2" cx="0" cy="0" r="3.5"/>
                <g id="zoomPlus">
                        <use xlink:href="#rim" fill="#404040">
                                <set attributeName="fill" to="#808080" begin="zoomplus.mouseover" end="zoomplus.mouseout"/>
                        </use>
                        <path d="M-4,0h8M0,-4v8" fill="none" stroke="white" stroke-width="1.5" pointer-events="none"/>
                </g>
                <g id="zoomMin">
                        <use xlink:href="#rim" fill="#404040">
                                <set attributeName="fill" to="#808080" begin="zoomminus.mouseover" end="zoomminus.mouseout"/>
                        </use>
                        <path d="M-4,0h8" fill="none" stroke="white" stroke-width="1.5" pointer-events="none"/>
                </g>
                <g id="dirArrow">
                        <path fill="none" stroke="white" stroke-width="1.5" d="M0,-3.0v7 M-2.5,-0.5L0,-3.0L2.5,-0.5"/>
                </g>
               <g id="resetDef">
                       <use xlink:href="#rim2" fill="#404040">
                               <set attributeName="fill" to="#808080" begin="reset.mouseover" end="reset.mouseout"/>
                       </use>
               </g>
        </defs>

<script type="text/javascript">
var viewWidth = 651;
var viewHeight = 170;
var sectionId = 'dynsection-967';
</script>
<script xlink:href="svgpan.js"/>
<svg id="graph" class="graph">
<g id="viewport">
<title>get_first_lexical_var</title>
<!-- Node313353 -->
<g id="node1" class="node">
<title>Node313353</title>
<polygon fill="#bfbfbf" stroke="#000000" points="0,-31.3026 0,-50.3026 115,-50.3026 115,-31.3026 0,-31.3026"/>
<text text-anchor="middle" x="57.5" y="-38.3026" font-family="Helvetica,sans-Serif" font-size="10.00" fill="#000000">get_first_lexical_var</text>
</g>
<!-- Node313354 -->
<g id="node2" class="node">
<title>Node313354</title>
<g id="a_node2"><a xlink:href="quickjs_8c.html#a3376d6ef6fabfbe6070a4e13cb281974" target="_top" xlink:title="pop_scope">
<polygon fill="none" stroke="#000000" points="151,-31.3026 151,-50.3026 219,-50.3026 219,-31.3026 151,-31.3026"/>
<text text-anchor="middle" x="185" y="-38.3026" font-family="Helvetica,sans-Serif" font-size="10.00" fill="#000000">pop_scope</text>
</a>
</g>
</g>
<!-- Node313353&#45;&gt;Node313354 -->
<g id="edge1" class="edge">
<title>Node313353&#45;&gt;Node313354</title>
<path fill="none" stroke="#191970" d="M125.5399,-40.8026C134.2701,-40.8026 142.8927,-40.8026 150.7485,-40.8026"/>
<polygon fill="#191970" stroke="#191970" points="125.2813,-37.3027 115.2812,-40.8026 125.2812,-44.3027 125.2813,-37.3027"/>
</g>
<!-- Node313355 -->
<g id="node3" class="node">
<title>Node313355</title>
<g id="a_node3"><a xlink:href="quickjs_8c.html#a00eb789430243c24dab4a63ad6a79653" target="_top" xlink:title="js_parse_class">
<polygon fill="none" stroke="#000000" points="264,-88.3026 264,-107.3026 351,-107.3026 351,-88.3026 264,-88.3026"/>
<text text-anchor="middle" x="307.5" y="-95.3026" font-family="Helvetica,sans-Serif" font-size="10.00" fill="#000000">js_parse_class</text>
</a>
</g>
</g>
<!-- Node313354&#45;&gt;Node313355 -->
<g id="edge2" class="edge">
<title>Node313354&#45;&gt;Node313355</title>
<path fill="none" stroke="#191970" d="M214.2648,-54.6926C226.7943,-60.6152 241.599,-67.581 255,-73.8026 265.3625,-78.6136 276.9069,-83.8991 286.5255,-88.2824"/>
<polygon fill="#191970" stroke="#191970" points="215.7239,-51.511 205.1878,-50.3965 212.7292,-57.8381 215.7239,-51.511"/>
</g>
<!-- Node313360 -->
<g id="node5" class="node">
<title>Node313360</title>
<g id="a_node5"><a xlink:href="quickjs_8c.html#a9d844c16dcc71701436848074337d32c" target="_top" xlink:title="js_parse_statement\l_or_decl">
<polygon fill="none" stroke="#ff0000" points="400.5,-16.8026 400.5,-46.8026 513.5,-46.8026 513.5,-16.8026 400.5,-16.8026"/>
<text text-anchor="start" x="408.5" y="-34.8026" font-family="Helvetica,sans-Serif" font-size="10.00" fill="#000000">js_parse_statement</text>
<text text-anchor="middle" x="457" y="-23.8026" font-family="Helvetica,sans-Serif" font-size="10.00" fill="#000000">_or_decl</text>
</a>
</g>
</g>
<!-- Node313354&#45;&gt;Node313360 -->
<g id="edge13" class="edge">
<title>Node313354&#45;&gt;Node313360</title>
<path fill="none" stroke="#191970" d="M229.2331,-41.9319C264.6294,-42.5633 315.5274,-42.8614 360,-40.8026 373.0933,-40.1965 387.1488,-39.1326 400.3841,-37.9435"/>
<polygon fill="#191970" stroke="#191970" points="229.2914,-38.4325 219.2251,-41.7371 229.1551,-45.4311 229.2914,-38.4325"/>
</g>
<!-- Node313363 -->
<g id="node6" class="node">
<title>Node313363</title>
<g id="a_node6"><a xlink:href="quickjs_8c.html#acc0cac53be5317d9cab6a79afcd7da48" target="_top" xlink:title="js_parse_block">
<polygon fill="none" stroke="#000000" points="554,-22.3026 554,-41.3026 643,-41.3026 643,-22.3026 554,-22.3026"/>
<text text-anchor="middle" x="598.5" y="-29.3026" font-family="Helvetica,sans-Serif" font-size="10.00" fill="#000000">js_parse_block</text>
</a>
</g>
</g>
<!-- Node313354&#45;&gt;Node313363 -->
<g id="edge10" class="edge">
<title>Node313354&#45;&gt;Node313363</title>
<path fill="none" stroke="#191970" d="M206.5173,-25.4632C219.7977,-16.957 237.5766,-7.2269 255,-2.8026 280.7978,3.7481 497.6808,-3.4565 518,-6.8026 537.2047,-9.9652 558.1825,-16.5895 573.9075,-22.225"/>
<polygon fill="#191970" stroke="#191970" points="204.4788,-22.6158 198.1017,-31.0764 208.363,-28.4393 204.4788,-22.6158"/>
</g>
<!-- Node313362 -->
<g id="node8" class="node">
<title>Node313362</title>
<g id="a_node8"><a xlink:href="quickjs_8c.html#ac188b916dd086803591a67de7e7a85f6" target="_top" xlink:title="js_parse_for_in_of">
<polygon fill="none" stroke="#000000" points="255,-12.3026 255,-31.3026 360,-31.3026 360,-12.3026 255,-12.3026"/>
<text text-anchor="middle" x="307.5" y="-19.3026" font-family="Helvetica,sans-Serif" font-size="10.00" fill="#000000">js_parse_for_in_of</text>
</a>
</g>
</g>
<!-- Node313354&#45;&gt;Node313362 -->
<g id="edge11" class="edge">
<title>Node313354&#45;&gt;Node313362</title>
<path fill="none" stroke="#191970" d="M229.0234,-33.9745C237.3667,-32.6805 246.1742,-31.3144 254.7547,-29.9835"/>
<polygon fill="#191970" stroke="#191970" points="228.4685,-30.5187 219.1231,-35.5101 229.5414,-37.4359 228.4685,-30.5187"/>
</g>
<!-- Node313356 -->
<g id="node4" class="node">
<title>Node313356</title>
<g id="a_node4"><a xlink:href="quickjs_8c.html#a840642c87c5a82d4cc68333376a3b6de" target="_top" xlink:title="js_parse_postfix_expr">
<polygon fill="none" stroke="#ff0000" points="396,-124.3026 396,-143.3026 518,-143.3026 518,-124.3026 396,-124.3026"/>
<text text-anchor="middle" x="457" y="-131.3026" font-family="Helvetica,sans-Serif" font-size="10.00" fill="#000000">js_parse_postfix_expr</text>
</a>
</g>
</g>
<!-- Node313355&#45;&gt;Node313356 -->
<g id="edge3" class="edge">
<title>Node313355&#45;&gt;Node313356</title>
<path fill="none" stroke="#191970" d="M357.1437,-109.757C376.7325,-114.474 398.9238,-119.8177 417.4035,-124.2677"/>
<polygon fill="#191970" stroke="#191970" points="357.7123,-106.2939 347.1708,-107.3555 356.0734,-113.0994 357.7123,-106.2939"/>
</g>
<!-- Node313355&#45;&gt;Node313360 -->
<g id="edge5" class="edge">
<title>Node313355&#45;&gt;Node313360</title>
<path fill="none" stroke="#191970" d="M338.4684,-84.131C363.0502,-73.2788 397.3873,-58.12 422.78,-46.9098"/>
<polygon fill="#191970" stroke="#191970" points="336.9732,-80.9651 329.2386,-88.2057 339.8003,-87.3688 336.9732,-80.9651"/>
</g>
<!-- Node313367 -->
<g id="node7" class="node">
<title>Node313367</title>
<g id="a_node7"><a xlink:href="quickjs_8c.html#a498e1d5c7de1b59c1630e9847cde1e41" target="_top" xlink:title="js_parse_export">
<polygon fill="none" stroke="#ff0000" points="410,-86.3026 410,-105.3026 504,-105.3026 504,-86.3026 410,-86.3026"/>
<text text-anchor="middle" x="457" y="-93.3026" font-family="Helvetica,sans-Serif" font-size="10.00" fill="#000000">js_parse_export</text>
</a>
</g>
</g>
<!-- Node313355&#45;&gt;Node313367 -->
<g id="edge9" class="edge">
<title>Node313355&#45;&gt;Node313367</title>
<path fill="none" stroke="#191970" d="M361.35,-97.0822C377.2328,-96.8698 394.4844,-96.639 409.9073,-96.4326"/>
<polygon fill="#191970" stroke="#191970" points="361.0957,-93.5852 351.1435,-97.2188 361.1894,-100.5846 361.0957,-93.5852"/>
</g>
<!-- Node313356&#45;&gt;Node313356 -->
<g id="edge4" class="edge">
<title>Node313356&#45;&gt;Node313356</title>
<path fill="none" stroke="#191970" d="M430.9584,-152.8318C432.3789,-157.9306 441.0594,-161.8026 457,-161.8026 481.8828,-161.8026 489.0755,-152.3679 478.5781,-143.5597"/>
<polygon fill="#191970" stroke="#191970" points="434.238,-154.0882 435.4219,-143.5597 427.9308,-151.0519 434.238,-154.0882"/>
</g>
<!-- Node313360&#45;&gt;Node313360 -->
<g id="edge8" class="edge">
<title>Node313360&#45;&gt;Node313360</title>
<path fill="none" stroke="#191970" d="M432.1237,-57.2605C435.2112,-61.9816 443.5033,-65.3026 457,-65.3026 479.1484,-65.3026 487.2811,-56.3592 481.3979,-46.9616"/>
<polygon fill="#191970" stroke="#191970" points="435.6342,-57.1133 432.6021,-46.9616 428.6418,-56.7884 435.6342,-57.1133"/>
</g>
<!-- Node313360&#45;&gt;Node313363 -->
<g id="edge6" class="edge">
<title>Node313360&#45;&gt;Node313363</title>
<path fill="none" stroke="#191970" d="M523.871,-25.0617C534.0713,-25.0142 544.3795,-25.1542 553.944,-25.4819"/>
<polygon fill="#191970" stroke="#191970" points="523.6995,-21.5632 513.7381,-25.1717 523.7756,-28.5628 523.6995,-21.5632"/>
</g>
<!-- Node313363&#45;&gt;Node313360 -->
<g id="edge7" class="edge">
<title>Node313363&#45;&gt;Node313360</title>
<path fill="none" stroke="#191970" d="M543.8515,-38.3948C533.9803,-38.5914 523.6674,-38.6043 513.7381,-38.4336"/>
<polygon fill="#191970" stroke="#191970" points="544.0417,-41.8911 553.944,-38.1234 543.8535,-34.8936 544.0417,-41.8911"/>
</g>
<!-- Node313362&#45;&gt;Node313360 -->
<g id="edge12" class="edge">
<title>Node313362&#45;&gt;Node313360</title>
<path fill="none" stroke="#191970" d="M370.4513,-26.0134C380.4095,-26.6795 390.6543,-27.3648 400.4547,-28.0203"/>
<polygon fill="#191970" stroke="#191970" points="370.4194,-22.5036 360.2081,-25.3283 369.9522,-29.488 370.4194,-22.5036"/>
</g>
</g>
</svg>
        <g id="navigator" transform="translate(0 0)" fill="#404254">
                <rect fill="#f2f5e9" fill-opacity="0.5" stroke="#606060" stroke-width=".5" x="0" y="0" width="60" height="60"/>
                <use id="zoomplus" xlink:href="#zoomPlus" x="17" y="9" onmousedown="handleZoom(evt,'in')"/>
                <use id="zoomminus" xlink:href="#zoomMin" x="42" y="9" onmousedown="handleZoom(evt,'out')"/>
                <use id="reset" xlink:href="#resetDef" x="30" y="36" onmousedown="handleReset()"/>
                <g id="arrowUp" xlink:href="#dirArrow" transform="translate(30 24)" onmousedown="handlePan(0,-1)">
                  <use xlink:href="#rim" fill="#404040">
                        <set attributeName="fill" to="#808080" begin="arrowUp.mouseover" end="arrowUp.mouseout"/>
                  </use>
                  <path fill="none" stroke="white" stroke-width="1.5" d="M0,-3.0v7 M-2.5,-0.5L0,-3.0L2.5,-0.5"/>
                </g>
                <g id="arrowRight" xlink:href="#dirArrow" transform="rotate(90) translate(36 -43)" onmousedown="handlePan(1,0)">
                  <use xlink:href="#rim" fill="#404040">
                        <set attributeName="fill" to="#808080" begin="arrowRight.mouseover" end="arrowRight.mouseout"/>
                  </use>
                  <path fill="none" stroke="white" stroke-width="1.5" d="M0,-3.0v7 M-2.5,-0.5L0,-3.0L2.5,-0.5"/>
                </g>
                <g id="arrowDown" xlink:href="#dirArrow" transform="rotate(180) translate(-30 -48)" onmousedown="handlePan(0,1)">
                  <use xlink:href="#rim" fill="#404040">
                        <set attributeName="fill" to="#808080" begin="arrowDown.mouseover" end="arrowDown.mouseout"/>
                  </use>
                  <path fill="none" stroke="white" stroke-width="1.5" d="M0,-3.0v7 M-2.5,-0.5L0,-3.0L2.5,-0.5"/>
                </g>
                <g id="arrowLeft" xlink:href="#dirArrow" transform="rotate(270) translate(-36 17)" onmousedown="handlePan(-1,0)">
                  <use xlink:href="#rim" fill="#404040">
                        <set attributeName="fill" to="#808080" begin="arrowLeft.mouseover" end="arrowLeft.mouseout"/>
                  </use>
                  <path fill="none" stroke="white" stroke-width="1.5" d="M0,-3.0v7 M-2.5,-0.5L0,-3.0L2.5,-0.5"/>
                </g>
        </g>
        <svg viewBox="0 0 15 15" width="100%" height="30px" preserveAspectRatio="xMaxYMin meet">
         <g id="arrow_out" transform="scale(0.3 0.3)">
          <a xlink:href="quickjs_8c_a784b9d77d94e1e197320b0e9a5cbd7a3_icgraph_org.svg" target="_base">
           <rect id="button" ry="5" rx="5" y="6" x="6" height="38" width="38"
                fill="#f2f5e9" fill-opacity="0.5" stroke="#606060" stroke-width="1.0"/>
           <path id="arrow"
             d="M 11.500037,31.436501 C 11.940474,20.09759 22.043105,11.32322 32.158766,21.979434 L 37.068811,17.246167 C 37.068811,17.246167 37.088388,32 37.088388,32 L 22.160133,31.978069 C 22.160133,31.978069 26.997745,27.140456 26.997745,27.140456 C 18.528582,18.264221 13.291696,25.230495 11.500037,31.436501 z"
             style="fill:#404040;"/>
          </a>
         </g>
        </svg>
</svg>
