<?xml version="1.0" encoding="UTF-8" standalone="no"?>
<!DOCTYPE svg PUBLIC "-//W3C//DTD SVG 1.1//EN"
 "http://www.w3.org/Graphics/SVG/1.1/DTD/svg11.dtd">
<!-- Generated by graphviz version 2.40.1 (20161225.0304)
 -->
<!-- Title: js_def_realloc Pages: 1 -->
<svg width="394pt" height="47pt"
 viewBox="0.00 0.00 394.00 47.00" xmlns="http://www.w3.org/2000/svg" xmlns:xlink="http://www.w3.org/1999/xlink">
<g id="graph0" class="graph" transform="scale(1 1) rotate(0) translate(4 43)">
<title>js_def_realloc</title>
<!-- Node62832 -->
<g id="node1" class="node">
<title>Node62832</title>
<polygon fill="#bfbfbf" stroke="#000000" points="0,-.5 0,-19.5 84,-19.5 84,-.5 0,-.5"/>
<text text-anchor="middle" x="42" y="-7.5" font-family="Helvetica,sans-Serif" font-size="10.00" fill="#000000">js_def_realloc</text>
</g>
<!-- Node62833 -->
<g id="node2" class="node">
<title>Node62833</title>
<g id="a_node2"><a xlink:href="quickjs_8c.html#a05592d34ebd23009c91700ce9b2433ae" target="_top" xlink:title="js_def_malloc">
<polygon fill="none" stroke="#000000" points="120,-19.5 120,-38.5 204,-38.5 204,-19.5 120,-19.5"/>
<text text-anchor="middle" x="162" y="-26.5" font-family="Helvetica,sans-Serif" font-size="10.00" fill="#000000">js_def_malloc</text>
</a>
</g>
</g>
<!-- Node62832&#45;&gt;Node62833 -->
<g id="edge1" class="edge">
<title>Node62832&#45;&gt;Node62833</title>
<path fill="none" stroke="#191970" d="M84.3075,-16.6987C92.4629,-17.99 101.0971,-19.357 109.5298,-20.6922"/>
<polygon fill="#191970" stroke="#191970" points="109.2457,-24.1908 119.6701,-22.2978 110.3405,-17.2769 109.2457,-24.1908"/>
</g>
<!-- Node62834 -->
<g id="node3" class="node">
<title>Node62834</title>
<g id="a_node3"><a xlink:href="quickjs_8c.html#ab87b1e3d5ee087978a60209a295950d2" target="_top" xlink:title="js_def_malloc_usable_size">
<polygon fill="none" stroke="#000000" points="240,-.5 240,-19.5 386,-19.5 386,-.5 240,-.5"/>
<text text-anchor="middle" x="313" y="-7.5" font-family="Helvetica,sans-Serif" font-size="10.00" fill="#000000">js_def_malloc_usable_size</text>
</a>
</g>
</g>
<!-- Node62832&#45;&gt;Node62834 -->
<g id="edge3" class="edge">
<title>Node62832&#45;&gt;Node62834</title>
<path fill="none" stroke="#191970" d="M84.0464,-10C122.8402,-10 181.5602,-10 229.8194,-10"/>
<polygon fill="#191970" stroke="#191970" points="229.9477,-13.5001 239.9477,-10 229.9476,-6.5001 229.9477,-13.5001"/>
</g>
<!-- Node62833&#45;&gt;Node62834 -->
<g id="edge2" class="edge">
<title>Node62833&#45;&gt;Node62834</title>
<path fill="none" stroke="#191970" d="M204.0619,-23.7074C212.1776,-22.6863 220.9392,-21.5838 229.8443,-20.4633"/>
<polygon fill="#191970" stroke="#191970" points="230.4479,-23.915 239.9327,-19.1939 229.574,-16.9698 230.4479,-23.915"/>
</g>
</g>
</svg>
