<?xml version="1.0" encoding="UTF-8" standalone="no"?>
<!DOCTYPE svg PUBLIC "-//W3C//DTD SVG 1.1//EN"
 "http://www.w3.org/Graphics/SVG/1.1/DTD/svg11.dtd">
<!-- Generated by graphviz version 2.40.1 (20161225.0304)
 -->
<!-- Title: js_atomics_notify Pages: 1 -->
<!--zoomable 294 -->
<svg id="main" version="1.1" xmlns="http://www.w3.org/2000/svg" xmlns:xlink="http://www.w3.org/1999/xlink" xml:space="preserve" onload="init(evt)">
<style type="text/css"><![CDATA[
.edge:hover path { stroke: red; }
.edge:hover polygon { stroke: red; fill: red; }
]]></style>
<script type="text/javascript"><![CDATA[
var edges = document.getElementsByTagName('g');
if (edges && edges.length) {
  for (var i=0;i<edges.length;i++) {
    if (edges[i].id.substr(0,4)=='edge') {
      edges[i].setAttribute('class','edge');
    }
  }
}
]]></script>
        <defs>
                <circle id="rim" cx="0" cy="0" r="7"/>
                <circle id="rim2" cx="0" cy="0" r="3.5"/>
                <g id="zoomPlus">
                        <use xlink:href="#rim" fill="#404040">
                                <set attributeName="fill" to="#808080" begin="zoomplus.mouseover" end="zoomplus.mouseout"/>
                        </use>
                        <path d="M-4,0h8M0,-4v8" fill="none" stroke="white" stroke-width="1.5" pointer-events="none"/>
                </g>
                <g id="zoomMin">
                        <use xlink:href="#rim" fill="#404040">
                                <set attributeName="fill" to="#808080" begin="zoomminus.mouseover" end="zoomminus.mouseout"/>
                        </use>
                        <path d="M-4,0h8" fill="none" stroke="white" stroke-width="1.5" pointer-events="none"/>
                </g>
                <g id="dirArrow">
                        <path fill="none" stroke="white" stroke-width="1.5" d="M0,-3.0v7 M-2.5,-0.5L0,-3.0L2.5,-0.5"/>
                </g>
               <g id="resetDef">
                       <use xlink:href="#rim2" fill="#404040">
                               <set attributeName="fill" to="#808080" begin="reset.mouseover" end="reset.mouseout"/>
                       </use>
               </g>
        </defs>

<script type="text/javascript">
var viewWidth = 695;
var viewHeight = 294;
var sectionId = 'dynsection-1937';
</script>
<script xlink:href="svgpan.js"/>
<svg id="graph" class="graph">
<g id="viewport">
<title>js_atomics_notify</title>
<!-- Node494314 -->
<g id="node1" class="node">
<title>Node494314</title>
<polygon fill="#bfbfbf" stroke="#000000" points="0,-133.5 0,-152.5 103,-152.5 103,-133.5 0,-133.5"/>
<text text-anchor="middle" x="51.5" y="-140.5" font-family="Helvetica,sans-Serif" font-size="10.00" fill="#000000">js_atomics_notify</text>
</g>
<!-- Node494315 -->
<g id="node2" class="node">
<title>Node494315</title>
<g id="a_node2"><a xlink:href="list_8h.html#a663527a4d757540b2177bef0db1ce5c0" target="_top" xlink:title="init_list_head">
<polygon fill="none" stroke="#000000" points="152.5,-266.5 152.5,-285.5 234.5,-285.5 234.5,-266.5 152.5,-266.5"/>
<text text-anchor="middle" x="193.5" y="-273.5" font-family="Helvetica,sans-Serif" font-size="10.00" fill="#000000">init_list_head</text>
</a>
</g>
</g>
<!-- Node494314&#45;&gt;Node494315 -->
<g id="edge1" class="edge">
<title>Node494314&#45;&gt;Node494315</title>
<path fill="none" stroke="#191970" d="M57.0695,-152.7451C69.3857,-173.5401 100.8839,-222.7465 139,-252 144.0593,-255.883 149.8449,-259.2881 155.713,-262.2204"/>
<polygon fill="#191970" stroke="#191970" points="154.3611,-265.4508 164.9097,-266.4395 157.28,-259.0884 154.3611,-265.4508"/>
</g>
<!-- Node494316 -->
<g id="node3" class="node">
<title>Node494316</title>
<g id="a_node3"><a xlink:href="quickjs_8c.html#ab81c18658906074980c65ae90e2ca5f0" target="_top" xlink:title="js_atomics_get_ptr">
<polygon fill="none" stroke="#000000" points="139,-190.5 139,-209.5 248,-209.5 248,-190.5 139,-190.5"/>
<text text-anchor="middle" x="193.5" y="-197.5" font-family="Helvetica,sans-Serif" font-size="10.00" fill="#000000">js_atomics_get_ptr</text>
</a>
</g>
</g>
<!-- Node494314&#45;&gt;Node494316 -->
<g id="edge2" class="edge">
<title>Node494314&#45;&gt;Node494316</title>
<path fill="none" stroke="#191970" d="M72.5343,-152.6583C90.1454,-160.618 116.0161,-172.0172 139,-181 144.1914,-183.029 149.6999,-185.0732 155.1425,-187.0304"/>
<polygon fill="#191970" stroke="#191970" points="154.1907,-190.4061 164.7855,-190.437 156.5224,-183.8058 154.1907,-190.4061"/>
</g>
<!-- Node494317 -->
<g id="node4" class="node">
<title>Node494317</title>
<g id="a_node4"><a xlink:href="quickjs_8c.html#a033dd3ebd29c4eb9f0baff1dd0fec0b1" target="_top" xlink:title="JS_ThrowTypeErrorDetached\lArrayBuffer">
<polygon fill="none" stroke="#000000" points="284,-221 284,-251 437,-251 437,-221 284,-221"/>
<text text-anchor="start" x="292" y="-239" font-family="Helvetica,sans-Serif" font-size="10.00" fill="#000000">JS_ThrowTypeErrorDetached</text>
<text text-anchor="middle" x="360.5" y="-228" font-family="Helvetica,sans-Serif" font-size="10.00" fill="#000000">ArrayBuffer</text>
</a>
</g>
</g>
<!-- Node494314&#45;&gt;Node494317 -->
<g id="edge9" class="edge">
<title>Node494314&#45;&gt;Node494317</title>
<path fill="none" stroke="#191970" d="M58.9153,-152.6102C72.6136,-169.5343 103.7268,-204.2574 139,-219 181.0791,-236.5872 231.5446,-241.554 273.6708,-241.8071"/>
<polygon fill="#191970" stroke="#191970" points="273.9215,-245.3065 283.9115,-241.778 273.9016,-238.3065 273.9215,-245.3065"/>
</g>
<!-- Node494442 -->
<g id="node8" class="node">
<title>Node494442</title>
<g id="a_node8"><a xlink:href="quickjs_8h.html#a4e407128a9605afb77523e49e9a627fd" target="_top" xlink:title="JS_IsUndefined">
<polygon fill="none" stroke="#000000" points="149,-152.5 149,-171.5 238,-171.5 238,-152.5 149,-152.5"/>
<text text-anchor="middle" x="193.5" y="-159.5" font-family="Helvetica,sans-Serif" font-size="10.00" fill="#000000">JS_IsUndefined</text>
</a>
</g>
</g>
<!-- Node494314&#45;&gt;Node494442 -->
<g id="edge7" class="edge">
<title>Node494314&#45;&gt;Node494442</title>
<path fill="none" stroke="#191970" d="M103.167,-149.9132C114.6976,-151.456 126.9646,-153.0974 138.6198,-154.6569"/>
<polygon fill="#191970" stroke="#191970" points="138.295,-158.1445 148.6708,-156.0017 139.2234,-151.2064 138.295,-158.1445"/>
</g>
<!-- Node494373 -->
<g id="node9" class="node">
<title>Node494373</title>
<g id="a_node9"><a xlink:href="quickjs_8h.html#a2050bc428da1c65ac7eb87c3fa3b0392" target="_top" xlink:title="JS_NewInt32">
<polygon fill="none" stroke="#000000" points="155,-114.5 155,-133.5 232,-133.5 232,-114.5 155,-114.5"/>
<text text-anchor="middle" x="193.5" y="-121.5" font-family="Helvetica,sans-Serif" font-size="10.00" fill="#000000">JS_NewInt32</text>
</a>
</g>
</g>
<!-- Node494314&#45;&gt;Node494373 -->
<g id="edge8" class="edge">
<title>Node494314&#45;&gt;Node494373</title>
<path fill="none" stroke="#191970" d="M103.167,-136.0868C116.69,-134.2774 131.2259,-132.3325 144.5998,-130.543"/>
<polygon fill="#191970" stroke="#191970" points="145.1169,-134.0051 154.5644,-129.2097 144.1885,-127.0669 145.1169,-134.0051"/>
</g>
<!-- Node494753 -->
<g id="node10" class="node">
<title>Node494753</title>
<g id="a_node10"><a xlink:href="quickjs_8c.html#a6d4699bf179372379572ec9039e5ec00" target="_top" xlink:title="JS_ToInt32Clamp">
<polygon fill="none" stroke="#000000" points="144.5,-76.5 144.5,-95.5 242.5,-95.5 242.5,-76.5 144.5,-76.5"/>
<text text-anchor="middle" x="193.5" y="-83.5" font-family="Helvetica,sans-Serif" font-size="10.00" fill="#000000">JS_ToInt32Clamp</text>
</a>
</g>
</g>
<!-- Node494314&#45;&gt;Node494753 -->
<g id="edge10" class="edge">
<title>Node494314&#45;&gt;Node494753</title>
<path fill="none" stroke="#191970" d="M72.5343,-133.3417C90.1454,-125.382 116.0161,-113.9828 139,-105 144.1914,-102.971 149.6999,-100.9268 155.1425,-98.9696"/>
<polygon fill="#191970" stroke="#191970" points="156.5224,-102.1942 164.7855,-95.563 154.1907,-95.5939 156.5224,-102.1942"/>
</g>
<!-- Node494366 -->
<g id="node14" class="node">
<title>Node494366</title>
<g id="a_node14"><a xlink:href="list_8h.html#a3a5d0733570b2fafc18f4c71a2968ea5" target="_top" xlink:title="list_add_tail">
<polygon fill="none" stroke="#ff0000" points="155.5,-38.5 155.5,-57.5 231.5,-57.5 231.5,-38.5 155.5,-38.5"/>
<text text-anchor="middle" x="193.5" y="-45.5" font-family="Helvetica,sans-Serif" font-size="10.00" fill="#000000">list_add_tail</text>
</a>
</g>
</g>
<!-- Node494314&#45;&gt;Node494366 -->
<g id="edge15" class="edge">
<title>Node494314&#45;&gt;Node494366</title>
<path fill="none" stroke="#191970" d="M60.2861,-133.2702C75.102,-117.3837 106.6209,-85.7682 139,-67 142.6086,-64.9083 146.4845,-62.9945 150.4455,-61.2561"/>
<polygon fill="#191970" stroke="#191970" points="151.7811,-64.4915 159.7563,-57.5167 149.1723,-57.9958 151.7811,-64.4915"/>
</g>
<!-- Node494354 -->
<g id="node15" class="node">
<title>Node494354</title>
<g id="a_node15"><a xlink:href="list_8h.html#ab60d5d18869ebeb5d6ab694289576fa7" target="_top" xlink:title="list_del">
<polygon fill="none" stroke="#000000" points="167.5,-.5 167.5,-19.5 219.5,-19.5 219.5,-.5 167.5,-.5"/>
<text text-anchor="middle" x="193.5" y="-7.5" font-family="Helvetica,sans-Serif" font-size="10.00" fill="#000000">list_del</text>
</a>
</g>
</g>
<!-- Node494314&#45;&gt;Node494354 -->
<g id="edge16" class="edge">
<title>Node494314&#45;&gt;Node494354</title>
<path fill="none" stroke="#191970" d="M56.4235,-133.2172C67.9006,-111.3675 98.5573,-58.2283 139,-29 144.6202,-24.9382 151.1845,-21.684 157.7717,-19.0975"/>
<polygon fill="#191970" stroke="#191970" points="159.0384,-22.3627 167.3319,-15.7696 156.7371,-15.7518 159.0384,-22.3627"/>
</g>
<!-- Node494316&#45;&gt;Node494317 -->
<g id="edge3" class="edge">
<title>Node494316&#45;&gt;Node494317</title>
<path fill="none" stroke="#191970" d="M237.8145,-209.5528C251.0045,-212.3962 265.8816,-215.6032 280.6087,-218.7779"/>
<polygon fill="#191970" stroke="#191970" points="280.2449,-222.2798 290.7579,-220.9658 281.72,-215.437 280.2449,-222.2798"/>
</g>
<!-- Node494318 -->
<g id="node5" class="node">
<title>Node494318</title>
<g id="a_node5"><a xlink:href="quickjs_8c.html#ad52f50dfe0e0e4aeae7003b97c4c0765" target="_top" xlink:title="JS_ToIndex">
<polygon fill="none" stroke="#000000" points="326.5,-174.5 326.5,-193.5 394.5,-193.5 394.5,-174.5 326.5,-174.5"/>
<text text-anchor="middle" x="360.5" y="-181.5" font-family="Helvetica,sans-Serif" font-size="10.00" fill="#000000">JS_ToIndex</text>
</a>
</g>
</g>
<!-- Node494316&#45;&gt;Node494318 -->
<g id="edge4" class="edge">
<title>Node494316&#45;&gt;Node494318</title>
<path fill="none" stroke="#191970" d="M248.182,-194.761C270.2352,-192.6481 295.3451,-190.2424 316.2222,-188.2422"/>
<polygon fill="#191970" stroke="#191970" points="316.7855,-191.7043 326.4061,-187.2665 316.1179,-184.7362 316.7855,-191.7043"/>
</g>
<!-- Node494319 -->
<g id="node6" class="node">
<title>Node494319</title>
<g id="a_node6"><a xlink:href="quickjs_8c.html#aee6a60a9e9f3c0d9827d5cb0e15c23b4" target="_top" xlink:title="JS_ToInt64Sat">
<polygon fill="none" stroke="#ff0000" points="482.5,-166.5 482.5,-185.5 564.5,-185.5 564.5,-166.5 482.5,-166.5"/>
<text text-anchor="middle" x="523.5" y="-173.5" font-family="Helvetica,sans-Serif" font-size="10.00" fill="#000000">JS_ToInt64Sat</text>
</a>
</g>
</g>
<!-- Node494318&#45;&gt;Node494319 -->
<g id="edge5" class="edge">
<title>Node494318&#45;&gt;Node494319</title>
<path fill="none" stroke="#191970" d="M394.6701,-182.3229C417.1515,-181.2196 446.9857,-179.7553 472.2824,-178.5137"/>
<polygon fill="#191970" stroke="#191970" points="472.6324,-182.0009 482.4488,-178.0148 472.2892,-175.0093 472.6324,-182.0009"/>
</g>
<!-- Node494320 -->
<g id="node7" class="node">
<title>Node494320</title>
<g id="a_node7"><a xlink:href="quickjs_8h.html#a775522f2d084fc8fa0fcb33f390006b4" target="_top" xlink:title="JS_DupValue">
<polygon fill="none" stroke="#000000" points="610,-147.5 610,-166.5 687,-166.5 687,-147.5 610,-147.5"/>
<text text-anchor="middle" x="648.5" y="-154.5" font-family="Helvetica,sans-Serif" font-size="10.00" fill="#000000">JS_DupValue</text>
</a>
</g>
</g>
<!-- Node494319&#45;&gt;Node494320 -->
<g id="edge6" class="edge">
<title>Node494319&#45;&gt;Node494320</title>
<path fill="none" stroke="#191970" d="M564.7761,-169.726C575.9964,-168.0206 588.2522,-166.1577 599.8398,-164.3964"/>
<polygon fill="#191970" stroke="#191970" points="600.4475,-167.8443 609.8079,-162.8812 599.3955,-160.9238 600.4475,-167.8443"/>
</g>
<!-- Node494753&#45;&gt;Node494320 -->
<g id="edge11" class="edge">
<title>Node494753&#45;&gt;Node494320</title>
<path fill="none" stroke="#191970" d="M236.203,-95.5629C251.2663,-98.7773 268.3471,-102.2434 284,-105 396.4234,-124.7988 529.3726,-142.2795 599.5021,-151.0416"/>
<polygon fill="#191970" stroke="#191970" points="599.4389,-154.5606 609.7944,-152.3212 600.3026,-147.6141 599.4389,-154.5606"/>
</g>
<!-- Node494754 -->
<g id="node11" class="node">
<title>Node494754</title>
<g id="a_node11"><a xlink:href="quickjs_8c.html#a419bec82cb80e98e08626a9a5212ec4c" target="_top" xlink:title="JS_ToInt32SatFree">
<polygon fill="none" stroke="#000000" points="309.5,-76.5 309.5,-95.5 411.5,-95.5 411.5,-76.5 309.5,-76.5"/>
<text text-anchor="middle" x="360.5" y="-83.5" font-family="Helvetica,sans-Serif" font-size="10.00" fill="#000000">JS_ToInt32SatFree</text>
</a>
</g>
</g>
<!-- Node494753&#45;&gt;Node494754 -->
<g id="edge12" class="edge">
<title>Node494753&#45;&gt;Node494754</title>
<path fill="none" stroke="#191970" d="M242.7023,-86C260.3994,-86 280.5843,-86 299.1855,-86"/>
<polygon fill="#191970" stroke="#191970" points="299.3307,-89.5001 309.3307,-86 299.3307,-82.5001 299.3307,-89.5001"/>
</g>
<!-- Node494322 -->
<g id="node12" class="node">
<title>Node494322</title>
<g id="a_node12"><a xlink:href="quickjs_8h.html#ad80a83d73e9b7d872b88fbf2943aebe9" target="_top" xlink:title="JS_IsException">
<polygon fill="none" stroke="#000000" points="480,-78.5 480,-97.5 567,-97.5 567,-78.5 480,-78.5"/>
<text text-anchor="middle" x="523.5" y="-85.5" font-family="Helvetica,sans-Serif" font-size="10.00" fill="#000000">JS_IsException</text>
</a>
</g>
</g>
<!-- Node494754&#45;&gt;Node494322 -->
<g id="edge13" class="edge">
<title>Node494754&#45;&gt;Node494322</title>
<path fill="none" stroke="#191970" d="M411.627,-86.6273C430.1394,-86.8545 451.0916,-87.1116 469.8175,-87.3413"/>
<polygon fill="#191970" stroke="#191970" points="469.9198,-90.8427 479.9621,-87.4658 470.0058,-83.8433 469.9198,-90.8427"/>
</g>
<!-- Node494323 -->
<g id="node13" class="node">
<title>Node494323</title>
<g id="a_node13"><a xlink:href="quickjs_8c.html#ae738291483438efefca5c9fa4d269504" target="_top" xlink:title="JS_ToNumberFree">
<polygon fill="none" stroke="#ff0000" points="473,-40.5 473,-59.5 574,-59.5 574,-40.5 473,-40.5"/>
<text text-anchor="middle" x="523.5" y="-47.5" font-family="Helvetica,sans-Serif" font-size="10.00" fill="#000000">JS_ToNumberFree</text>
</a>
</g>
</g>
<!-- Node494754&#45;&gt;Node494323 -->
<g id="edge14" class="edge">
<title>Node494754&#45;&gt;Node494323</title>
<path fill="none" stroke="#191970" d="M403.7531,-76.4472C424.1897,-71.9336 448.7758,-66.5035 470.3389,-61.7411"/>
<polygon fill="#191970" stroke="#191970" points="471.318,-65.1093 480.3279,-59.5349 469.8083,-58.274 471.318,-65.1093"/>
</g>
</g>
</svg>
        <g id="navigator" transform="translate(0 0)" fill="#404254">
                <rect fill="#f2f5e9" fill-opacity="0.5" stroke="#606060" stroke-width=".5" x="0" y="0" width="60" height="60"/>
                <use id="zoomplus" xlink:href="#zoomPlus" x="17" y="9" onmousedown="handleZoom(evt,'in')"/>
                <use id="zoomminus" xlink:href="#zoomMin" x="42" y="9" onmousedown="handleZoom(evt,'out')"/>
                <use id="reset" xlink:href="#resetDef" x="30" y="36" onmousedown="handleReset()"/>
                <g id="arrowUp" xlink:href="#dirArrow" transform="translate(30 24)" onmousedown="handlePan(0,-1)">
                  <use xlink:href="#rim" fill="#404040">
                        <set attributeName="fill" to="#808080" begin="arrowUp.mouseover" end="arrowUp.mouseout"/>
                  </use>
                  <path fill="none" stroke="white" stroke-width="1.5" d="M0,-3.0v7 M-2.5,-0.5L0,-3.0L2.5,-0.5"/>
                </g>
                <g id="arrowRight" xlink:href="#dirArrow" transform="rotate(90) translate(36 -43)" onmousedown="handlePan(1,0)">
                  <use xlink:href="#rim" fill="#404040">
                        <set attributeName="fill" to="#808080" begin="arrowRight.mouseover" end="arrowRight.mouseout"/>
                  </use>
                  <path fill="none" stroke="white" stroke-width="1.5" d="M0,-3.0v7 M-2.5,-0.5L0,-3.0L2.5,-0.5"/>
                </g>
                <g id="arrowDown" xlink:href="#dirArrow" transform="rotate(180) translate(-30 -48)" onmousedown="handlePan(0,1)">
                  <use xlink:href="#rim" fill="#404040">
                        <set attributeName="fill" to="#808080" begin="arrowDown.mouseover" end="arrowDown.mouseout"/>
                  </use>
                  <path fill="none" stroke="white" stroke-width="1.5" d="M0,-3.0v7 M-2.5,-0.5L0,-3.0L2.5,-0.5"/>
                </g>
                <g id="arrowLeft" xlink:href="#dirArrow" transform="rotate(270) translate(-36 17)" onmousedown="handlePan(-1,0)">
                  <use xlink:href="#rim" fill="#404040">
                        <set attributeName="fill" to="#808080" begin="arrowLeft.mouseover" end="arrowLeft.mouseout"/>
                  </use>
                  <path fill="none" stroke="white" stroke-width="1.5" d="M0,-3.0v7 M-2.5,-0.5L0,-3.0L2.5,-0.5"/>
                </g>
        </g>
        <svg viewBox="0 0 15 15" width="100%" height="30px" preserveAspectRatio="xMaxYMin meet">
         <g id="arrow_out" transform="scale(0.3 0.3)">
          <a xlink:href="quickjs_8c_a10203c5ecfd1db25342e97b0342ba514_cgraph_org.svg" target="_base">
           <rect id="button" ry="5" rx="5" y="6" x="6" height="38" width="38"
                fill="#f2f5e9" fill-opacity="0.5" stroke="#606060" stroke-width="1.0"/>
           <path id="arrow"
             d="M 11.500037,31.436501 C 11.940474,20.09759 22.043105,11.32322 32.158766,21.979434 L 37.068811,17.246167 C 37.068811,17.246167 37.088388,32 37.088388,32 L 22.160133,31.978069 C 22.160133,31.978069 26.997745,27.140456 26.997745,27.140456 C 18.528582,18.264221 13.291696,25.230495 11.500037,31.436501 z"
             style="fill:#404040;"/>
          </a>
         </g>
        </svg>
</svg>
