<?xml version="1.0" encoding="UTF-8" standalone="no"?>
<!DOCTYPE svg PUBLIC "-//W3C//DTD SVG 1.1//EN"
 "http://www.w3.org/Graphics/SVG/1.1/DTD/svg11.dtd">
<!-- Generated by graphviz version 2.40.1 (20161225.0304)
 -->
<!-- Title: js_create_module_var Pages: 1 -->
<svg width="467pt" height="28pt"
 viewBox="0.00 0.00 467.00 28.00" xmlns="http://www.w3.org/2000/svg" xmlns:xlink="http://www.w3.org/1999/xlink">
<g id="graph0" class="graph" transform="scale(1 1) rotate(0) translate(4 24)">
<title>js_create_module_var</title>
<!-- Node344823 -->
<g id="node1" class="node">
<title>Node344823</title>
<polygon fill="#bfbfbf" stroke="#000000" points="0,-.5 0,-19.5 124,-19.5 124,-.5 0,-.5"/>
<text text-anchor="middle" x="62" y="-7.5" font-family="Helvetica,sans-Serif" font-size="10.00" fill="#000000">js_create_module_var</text>
</g>
<!-- Node344824 -->
<g id="node2" class="node">
<title>Node344824</title>
<g id="a_node2"><a xlink:href="quickjs_8c.html#a9780456a71703c53244b88831bc8fb7a" target="_top" xlink:title="add_gc_object">
<polygon fill="none" stroke="#000000" points="160,-.5 160,-19.5 246,-19.5 246,-.5 160,-.5"/>
<text text-anchor="middle" x="203" y="-7.5" font-family="Helvetica,sans-Serif" font-size="10.00" fill="#000000">add_gc_object</text>
</a>
</g>
</g>
<!-- Node344823&#45;&gt;Node344824 -->
<g id="edge1" class="edge">
<title>Node344823&#45;&gt;Node344824</title>
<path fill="none" stroke="#191970" d="M124.2551,-10C132.6583,-10 141.22,-10 149.4537,-10"/>
<polygon fill="#191970" stroke="#191970" points="149.6711,-13.5001 159.671,-10 149.671,-6.5001 149.6711,-13.5001"/>
</g>
<!-- Node344825 -->
<g id="node3" class="node">
<title>Node344825</title>
<g id="a_node3"><a xlink:href="list_8h.html#a3a5d0733570b2fafc18f4c71a2968ea5" target="_top" xlink:title="list_add_tail">
<polygon fill="none" stroke="#000000" points="282,-.5 282,-19.5 358,-19.5 358,-.5 282,-.5"/>
<text text-anchor="middle" x="320" y="-7.5" font-family="Helvetica,sans-Serif" font-size="10.00" fill="#000000">list_add_tail</text>
</a>
</g>
</g>
<!-- Node344824&#45;&gt;Node344825 -->
<g id="edge2" class="edge">
<title>Node344824&#45;&gt;Node344825</title>
<path fill="none" stroke="#191970" d="M246.2341,-10C254.5643,-10 263.3385,-10 271.8144,-10"/>
<polygon fill="#191970" stroke="#191970" points="271.9554,-13.5001 281.9553,-10 271.9553,-6.5001 271.9554,-13.5001"/>
</g>
<!-- Node344826 -->
<g id="node4" class="node">
<title>Node344826</title>
<g id="a_node4"><a xlink:href="list_8h.html#a16286d5bff74a27aec51a3134ffc7b43" target="_top" xlink:title="__list_add">
<polygon fill="none" stroke="#000000" points="394,-.5 394,-19.5 459,-19.5 459,-.5 394,-.5"/>
<text text-anchor="middle" x="426.5" y="-7.5" font-family="Helvetica,sans-Serif" font-size="10.00" fill="#000000">__list_add</text>
</a>
</g>
</g>
<!-- Node344825&#45;&gt;Node344826 -->
<g id="edge3" class="edge">
<title>Node344825&#45;&gt;Node344826</title>
<path fill="none" stroke="#191970" d="M358.1481,-10C366.465,-10 375.3176,-10 383.7983,-10"/>
<polygon fill="#191970" stroke="#191970" points="383.8976,-13.5001 393.8975,-10 383.8975,-6.5001 383.8976,-13.5001"/>
</g>
</g>
</svg>
