<?xml version="1.0" encoding="UTF-8" standalone="no"?>
<!DOCTYPE svg PUBLIC "-//W3C//DTD SVG 1.1//EN"
 "http://www.w3.org/Graphics/SVG/1.1/DTD/svg11.dtd">
<!-- Generated by graphviz version 2.40.1 (20161225.0304)
 -->
<!-- Title: set_closure_from_var Pages: 1 -->
<svg width="383pt" height="28pt"
 viewBox="0.00 0.00 383.00 28.00" xmlns="http://www.w3.org/2000/svg" xmlns:xlink="http://www.w3.org/1999/xlink">
<g id="graph0" class="graph" transform="scale(1 1) rotate(0) translate(4 24)">
<title>set_closure_from_var</title>
<!-- Node356359 -->
<g id="node1" class="node">
<title>Node356359</title>
<polygon fill="#bfbfbf" stroke="#000000" points="0,-.5 0,-19.5 122,-19.5 122,-.5 0,-.5"/>
<text text-anchor="middle" x="61" y="-7.5" font-family="Helvetica,sans-Serif" font-size="10.00" fill="#000000">set_closure_from_var</text>
</g>
<!-- Node356360 -->
<g id="node2" class="node">
<title>Node356360</title>
<g id="a_node2"><a xlink:href="quickjs_8c.html#abbf44eaeace1104a6bef718fbf5700fe" target="_top" xlink:title="JS_DupAtom">
<polygon fill="none" stroke="#000000" points="158,-.5 158,-19.5 235,-19.5 235,-.5 158,-.5"/>
<text text-anchor="middle" x="196.5" y="-7.5" font-family="Helvetica,sans-Serif" font-size="10.00" fill="#000000">JS_DupAtom</text>
</a>
</g>
</g>
<!-- Node356359&#45;&gt;Node356360 -->
<g id="edge1" class="edge">
<title>Node356359&#45;&gt;Node356360</title>
<path fill="none" stroke="#191970" d="M122.0114,-10C130.7009,-10 139.5397,-10 147.9484,-10"/>
<polygon fill="#191970" stroke="#191970" points="147.953,-13.5001 157.953,-10 147.9529,-6.5001 147.953,-13.5001"/>
</g>
<!-- Node356361 -->
<g id="node3" class="node">
<title>Node356361</title>
<g id="a_node3"><a xlink:href="quickjs_8c.html#a7f6796ee7a195631366f57c713a33f65" target="_top" xlink:title="__JS_AtomIsConst">
<polygon fill="none" stroke="#000000" points="271,-.5 271,-19.5 375,-19.5 375,-.5 271,-.5"/>
<text text-anchor="middle" x="323" y="-7.5" font-family="Helvetica,sans-Serif" font-size="10.00" fill="#000000">__JS_AtomIsConst</text>
</a>
</g>
</g>
<!-- Node356360&#45;&gt;Node356361 -->
<g id="edge2" class="edge">
<title>Node356360&#45;&gt;Node356361</title>
<path fill="none" stroke="#191970" d="M235.1415,-10C243.184,-10 251.8553,-10 260.5077,-10"/>
<polygon fill="#191970" stroke="#191970" points="260.6174,-13.5001 270.6173,-10 260.6173,-6.5001 260.6174,-13.5001"/>
</g>
</g>
</svg>
