<?xml version="1.0" encoding="UTF-8" standalone="no"?>
<!DOCTYPE svg PUBLIC "-//W3C//DTD SVG 1.1//EN"
 "http://www.w3.org/Graphics/SVG/1.1/DTD/svg11.dtd">
<!-- Generated by graphviz version 2.40.1 (20161225.0304)
 -->
<!-- Title: js_typed_array_constructor_obj Pages: 1 -->
<!--zoomable 180 -->
<svg id="main" version="1.1" xmlns="http://www.w3.org/2000/svg" xmlns:xlink="http://www.w3.org/1999/xlink" xml:space="preserve" onload="init(evt)">
<style type="text/css"><![CDATA[
.edge:hover path { stroke: red; }
.edge:hover polygon { stroke: red; fill: red; }
]]></style>
<script type="text/javascript"><![CDATA[
var edges = document.getElementsByTagName('g');
if (edges && edges.length) {
  for (var i=0;i<edges.length;i++) {
    if (edges[i].id.substr(0,4)=='edge') {
      edges[i].setAttribute('class','edge');
    }
  }
}
]]></script>
        <defs>
                <circle id="rim" cx="0" cy="0" r="7"/>
                <circle id="rim2" cx="0" cy="0" r="3.5"/>
                <g id="zoomPlus">
                        <use xlink:href="#rim" fill="#404040">
                                <set attributeName="fill" to="#808080" begin="zoomplus.mouseover" end="zoomplus.mouseout"/>
                        </use>
                        <path d="M-4,0h8M0,-4v8" fill="none" stroke="white" stroke-width="1.5" pointer-events="none"/>
                </g>
                <g id="zoomMin">
                        <use xlink:href="#rim" fill="#404040">
                                <set attributeName="fill" to="#808080" begin="zoomminus.mouseover" end="zoomminus.mouseout"/>
                        </use>
                        <path d="M-4,0h8" fill="none" stroke="white" stroke-width="1.5" pointer-events="none"/>
                </g>
                <g id="dirArrow">
                        <path fill="none" stroke="white" stroke-width="1.5" d="M0,-3.0v7 M-2.5,-0.5L0,-3.0L2.5,-0.5"/>
                </g>
               <g id="resetDef">
                       <use xlink:href="#rim2" fill="#404040">
                               <set attributeName="fill" to="#808080" begin="reset.mouseover" end="reset.mouseout"/>
                       </use>
               </g>
        </defs>

<script type="text/javascript">
var viewWidth = 720;
var viewHeight = 180;
var sectionId = 'dynsection-1922';
</script>
<script xlink:href="svgpan.js"/>
<svg id="graph" class="graph">
<g id="viewport">
<title>js_typed_array_constructor_obj</title>
<!-- Node490245 -->
<g id="node1" class="node">
<title>Node490245</title>
<polygon fill="#bfbfbf" stroke="#000000" points="0,-114.5 0,-133.5 169,-133.5 169,-114.5 0,-114.5"/>
<text text-anchor="middle" x="84.5" y="-121.5" font-family="Helvetica,sans-Serif" font-size="10.00" fill="#000000">js_typed_array_constructor_obj</text>
</g>
<!-- Node490246 -->
<g id="node2" class="node">
<title>Node490246</title>
<g id="a_node2"><a xlink:href="quickjs_8c.html#a3be661c1eaa7a31184410667862635a2" target="_top" xlink:title="js_typed_array_constructor">
<polygon fill="none" stroke="#000000" points="205,-114.5 205,-133.5 354,-133.5 354,-114.5 205,-114.5"/>
<text text-anchor="middle" x="279.5" y="-121.5" font-family="Helvetica,sans-Serif" font-size="10.00" fill="#000000">js_typed_array_constructor</text>
</a>
</g>
</g>
<!-- Node490245&#45;&gt;Node490246 -->
<g id="edge1" class="edge">
<title>Node490245&#45;&gt;Node490246</title>
<path fill="none" stroke="#191970" d="M179.2845,-124C187.9178,-124 196.5795,-124 204.9986,-124"/>
<polygon fill="#191970" stroke="#191970" points="179.1791,-120.5001 169.1791,-124 179.1791,-127.5001 179.1791,-120.5001"/>
</g>
<!-- Node490247 -->
<g id="node3" class="node">
<title>Node490247</title>
<g id="a_node3"><a xlink:href="quickjs_8c.html#a177d09828596bfe6df4bd90b2e93989d" target="_top" xlink:title="JS_AddIntrinsicTypedArrays">
<polygon fill="none" stroke="#000000" points="390,-152.5 390,-171.5 539,-171.5 539,-152.5 390,-152.5"/>
<text text-anchor="middle" x="464.5" y="-159.5" font-family="Helvetica,sans-Serif" font-size="10.00" fill="#000000">JS_AddIntrinsicTypedArrays</text>
</a>
</g>
</g>
<!-- Node490246&#45;&gt;Node490247 -->
<g id="edge2" class="edge">
<title>Node490246&#45;&gt;Node490247</title>
<path fill="none" stroke="#191970" d="M336.02,-135.6095C362.3312,-141.014 393.2435,-147.3635 418.1524,-152.4799"/>
<polygon fill="#191970" stroke="#191970" points="336.683,-132.1727 326.1833,-133.589 335.2746,-139.0296 336.683,-132.1727"/>
</g>
<!-- Node490252 -->
<g id="node5" class="node">
<title>Node490252</title>
<g id="a_node5"><a xlink:href="quickjs_8c.html#a00910faacc776e3c2c225aa117aab450" target="_top" xlink:title="JS_ReadTypedArray">
<polygon fill="none" stroke="#000000" points="409.5,-114.5 409.5,-133.5 519.5,-133.5 519.5,-114.5 409.5,-114.5"/>
<text text-anchor="middle" x="464.5" y="-121.5" font-family="Helvetica,sans-Serif" font-size="10.00" fill="#000000">JS_ReadTypedArray</text>
</a>
</g>
</g>
<!-- Node490246&#45;&gt;Node490252 -->
<g id="edge4" class="edge">
<title>Node490246&#45;&gt;Node490252</title>
<path fill="none" stroke="#191970" d="M364.2372,-124C379.5809,-124 395.2116,-124 409.4244,-124"/>
<polygon fill="#191970" stroke="#191970" points="364.2134,-120.5001 354.2133,-124 364.2133,-127.5001 364.2134,-120.5001"/>
</g>
<!-- Node490263 -->
<g id="node7" class="node">
<title>Node490263</title>
<g id="a_node7"><a xlink:href="quickjs_8c.html#ae5a8e884ec4a3364f63ebfeae6b08bdc" target="_top" xlink:title="js_typed_array___species\lCreate">
<polygon fill="none" stroke="#000000" points="394,-49 394,-79 535,-79 535,-49 394,-49"/>
<text text-anchor="start" x="402" y="-67" font-family="Helvetica,sans-Serif" font-size="10.00" fill="#000000">js_typed_array___species</text>
<text text-anchor="middle" x="464.5" y="-56" font-family="Helvetica,sans-Serif" font-size="10.00" fill="#000000">Create</text>
</a>
</g>
</g>
<!-- Node490246&#45;&gt;Node490263 -->
<g id="edge7" class="edge">
<title>Node490246&#45;&gt;Node490263</title>
<path fill="none" stroke="#191970" d="M318.608,-111.3163C347.6478,-101.898 387.364,-89.0171 418.0257,-79.0728"/>
<polygon fill="#191970" stroke="#191970" points="317.2462,-108.0784 308.8138,-114.4928 319.4058,-114.737 317.2462,-108.0784"/>
</g>
<!-- Node490248 -->
<g id="node4" class="node">
<title>Node490248</title>
<g id="a_node4"><a xlink:href="quickjs_8c.html#ad8aedb643b8753b7a15f6cb2df61945e" target="_top" xlink:title="JS_NewContext">
<polygon fill="none" stroke="#ff0000" points="598,-152.5 598,-171.5 689,-171.5 689,-152.5 598,-152.5"/>
<text text-anchor="middle" x="643.5" y="-159.5" font-family="Helvetica,sans-Serif" font-size="10.00" fill="#000000">JS_NewContext</text>
</a>
</g>
</g>
<!-- Node490247&#45;&gt;Node490248 -->
<g id="edge3" class="edge">
<title>Node490247&#45;&gt;Node490248</title>
<path fill="none" stroke="#191970" d="M549.4734,-162C566.1855,-162 583.1085,-162 597.9038,-162"/>
<polygon fill="#191970" stroke="#191970" points="549.116,-158.5001 539.1159,-162 549.1159,-165.5001 549.116,-158.5001"/>
</g>
<!-- Node490253 -->
<g id="node6" class="node">
<title>Node490253</title>
<g id="a_node6"><a xlink:href="quickjs_8c.html#a4b8ef2bb3b35e4a5f6ed8bd837a50e7c" target="_top" xlink:title="JS_ReadObjectRec">
<polygon fill="none" stroke="#ff0000" points="591.5,-114.5 591.5,-133.5 695.5,-133.5 695.5,-114.5 591.5,-114.5"/>
<text text-anchor="middle" x="643.5" y="-121.5" font-family="Helvetica,sans-Serif" font-size="10.00" fill="#000000">JS_ReadObjectRec</text>
</a>
</g>
</g>
<!-- Node490252&#45;&gt;Node490253 -->
<g id="edge5" class="edge">
<title>Node490252&#45;&gt;Node490253</title>
<path fill="none" stroke="#191970" d="M529.752,-117.4752C549.9965,-117.0905 572.0312,-117.1987 591.2691,-117.7996"/>
<polygon fill="#191970" stroke="#191970" points="529.5814,-113.9781 519.6665,-117.7124 529.746,-120.9762 529.5814,-113.9781"/>
</g>
<!-- Node490253&#45;&gt;Node490252 -->
<g id="edge6" class="edge">
<title>Node490253&#45;&gt;Node490252</title>
<path fill="none" stroke="#191970" d="M581.0262,-130.4687C561.0475,-130.8967 539.0861,-130.8363 519.6665,-130.2876"/>
<polygon fill="#191970" stroke="#191970" points="581.3642,-133.9611 591.2691,-130.2004 581.1808,-126.9635 581.3642,-133.9611"/>
</g>
<!-- Node490264 -->
<g id="node8" class="node">
<title>Node490264</title>
<g id="a_node8"><a xlink:href="quickjs_8c.html#aa0bbf08a7e91459c68a312fba7016c6d" target="_top" xlink:title="js_array_every">
<polygon fill="none" stroke="#000000" points="599,-76.5 599,-95.5 688,-95.5 688,-76.5 599,-76.5"/>
<text text-anchor="middle" x="643.5" y="-83.5" font-family="Helvetica,sans-Serif" font-size="10.00" fill="#000000">js_array_every</text>
</a>
</g>
</g>
<!-- Node490263&#45;&gt;Node490264 -->
<g id="edge8" class="edge">
<title>Node490263&#45;&gt;Node490264</title>
<path fill="none" stroke="#191970" d="M545.3672,-73.939C563.7123,-76.1937 582.5456,-78.5084 598.7457,-80.4995"/>
<polygon fill="#191970" stroke="#191970" points="545.5978,-70.4411 535.2455,-72.695 544.7439,-77.3888 545.5978,-70.4411"/>
</g>
<!-- Node490265 -->
<g id="node9" class="node">
<title>Node490265</title>
<g id="a_node9"><a xlink:href="quickjs_8c.html#a04f45f4b341a84aa1039cfd862adbcd2" target="_top" xlink:title="js_typed_array_slice">
<polygon fill="none" stroke="#000000" points="585.5,-38.5 585.5,-57.5 701.5,-57.5 701.5,-38.5 585.5,-38.5"/>
<text text-anchor="middle" x="643.5" y="-45.5" font-family="Helvetica,sans-Serif" font-size="10.00" fill="#000000">js_typed_array_slice</text>
</a>
</g>
</g>
<!-- Node490263&#45;&gt;Node490265 -->
<g id="edge9" class="edge">
<title>Node490263&#45;&gt;Node490265</title>
<path fill="none" stroke="#191970" d="M545.4603,-56.7633C558.9108,-55.561 572.6209,-54.3356 585.3606,-53.1968"/>
<polygon fill="#191970" stroke="#191970" points="544.8942,-53.2999 535.2455,-57.6764 545.5175,-60.2721 544.8942,-53.2999"/>
</g>
<!-- Node490266 -->
<g id="node10" class="node">
<title>Node490266</title>
<g id="a_node10"><a xlink:href="quickjs_8c.html#a355310420e303302c981eb7c73a222fb" target="_top" xlink:title="js_typed_array_subarray">
<polygon fill="none" stroke="#000000" points="575,-.5 575,-19.5 712,-19.5 712,-.5 575,-.5"/>
<text text-anchor="middle" x="643.5" y="-7.5" font-family="Helvetica,sans-Serif" font-size="10.00" fill="#000000">js_typed_array_subarray</text>
</a>
</g>
</g>
<!-- Node490263&#45;&gt;Node490266 -->
<g id="edge10" class="edge">
<title>Node490263&#45;&gt;Node490266</title>
<path fill="none" stroke="#191970" d="M520.6198,-45.792C538.0095,-40.2665 557.2615,-34.2675 575,-29 585.766,-25.803 597.5336,-22.4781 608.2303,-19.5201"/>
<polygon fill="#191970" stroke="#191970" points="519.085,-42.6078 510.6218,-48.9815 521.2125,-49.2767 519.085,-42.6078"/>
</g>
</g>
</svg>
        <g id="navigator" transform="translate(0 0)" fill="#404254">
                <rect fill="#f2f5e9" fill-opacity="0.5" stroke="#606060" stroke-width=".5" x="0" y="0" width="60" height="60"/>
                <use id="zoomplus" xlink:href="#zoomPlus" x="17" y="9" onmousedown="handleZoom(evt,'in')"/>
                <use id="zoomminus" xlink:href="#zoomMin" x="42" y="9" onmousedown="handleZoom(evt,'out')"/>
                <use id="reset" xlink:href="#resetDef" x="30" y="36" onmousedown="handleReset()"/>
                <g id="arrowUp" xlink:href="#dirArrow" transform="translate(30 24)" onmousedown="handlePan(0,-1)">
                  <use xlink:href="#rim" fill="#404040">
                        <set attributeName="fill" to="#808080" begin="arrowUp.mouseover" end="arrowUp.mouseout"/>
                  </use>
                  <path fill="none" stroke="white" stroke-width="1.5" d="M0,-3.0v7 M-2.5,-0.5L0,-3.0L2.5,-0.5"/>
                </g>
                <g id="arrowRight" xlink:href="#dirArrow" transform="rotate(90) translate(36 -43)" onmousedown="handlePan(1,0)">
                  <use xlink:href="#rim" fill="#404040">
                        <set attributeName="fill" to="#808080" begin="arrowRight.mouseover" end="arrowRight.mouseout"/>
                  </use>
                  <path fill="none" stroke="white" stroke-width="1.5" d="M0,-3.0v7 M-2.5,-0.5L0,-3.0L2.5,-0.5"/>
                </g>
                <g id="arrowDown" xlink:href="#dirArrow" transform="rotate(180) translate(-30 -48)" onmousedown="handlePan(0,1)">
                  <use xlink:href="#rim" fill="#404040">
                        <set attributeName="fill" to="#808080" begin="arrowDown.mouseover" end="arrowDown.mouseout"/>
                  </use>
                  <path fill="none" stroke="white" stroke-width="1.5" d="M0,-3.0v7 M-2.5,-0.5L0,-3.0L2.5,-0.5"/>
                </g>
                <g id="arrowLeft" xlink:href="#dirArrow" transform="rotate(270) translate(-36 17)" onmousedown="handlePan(-1,0)">
                  <use xlink:href="#rim" fill="#404040">
                        <set attributeName="fill" to="#808080" begin="arrowLeft.mouseover" end="arrowLeft.mouseout"/>
                  </use>
                  <path fill="none" stroke="white" stroke-width="1.5" d="M0,-3.0v7 M-2.5,-0.5L0,-3.0L2.5,-0.5"/>
                </g>
        </g>
        <svg viewBox="0 0 15 15" width="100%" height="30px" preserveAspectRatio="xMaxYMin meet">
         <g id="arrow_out" transform="scale(0.3 0.3)">
          <a xlink:href="quickjs_8c_acf0e1803a9586d86d752b002a89fb8ed_icgraph_org.svg" target="_base">
           <rect id="button" ry="5" rx="5" y="6" x="6" height="38" width="38"
                fill="#f2f5e9" fill-opacity="0.5" stroke="#606060" stroke-width="1.0"/>
           <path id="arrow"
             d="M 11.500037,31.436501 C 11.940474,20.09759 22.043105,11.32322 32.158766,21.979434 L 37.068811,17.246167 C 37.068811,17.246167 37.088388,32 37.088388,32 L 22.160133,31.978069 C 22.160133,31.978069 26.997745,27.140456 26.997745,27.140456 C 18.528582,18.264221 13.291696,25.230495 11.500037,31.436501 z"
             style="fill:#404040;"/>
          </a>
         </g>
        </svg>
</svg>
