<?xml version="1.0" encoding="UTF-8" standalone="no"?>
<!DOCTYPE svg PUBLIC "-//W3C//DTD SVG 1.1//EN"
 "http://www.w3.org/Graphics/SVG/1.1/DTD/svg11.dtd">
<!-- Generated by graphviz version 2.40.1 (20161225.0304)
 -->
<!-- Title: js_async_generator_resolve_function Pages: 1 -->
<svg width="588pt" height="88pt"
 viewBox="0.00 0.00 588.00 88.00" xmlns="http://www.w3.org/2000/svg" xmlns:xlink="http://www.w3.org/1999/xlink">
<g id="graph0" class="graph" transform="scale(1 1) rotate(0) translate(4 84)">
<title>js_async_generator_resolve_function</title>
<!-- Node306495 -->
<g id="node1" class="node">
<title>Node306495</title>
<polygon fill="#bfbfbf" stroke="#000000" points="0,-24.5 0,-54.5 111,-54.5 111,-24.5 0,-24.5"/>
<text text-anchor="start" x="8" y="-42.5" font-family="Helvetica,sans-Serif" font-size="10.00" fill="#000000">js_async_generator</text>
<text text-anchor="middle" x="55.5" y="-31.5" font-family="Helvetica,sans-Serif" font-size="10.00" fill="#000000">_resolve_function</text>
</g>
<!-- Node306496 -->
<g id="node2" class="node">
<title>Node306496</title>
<g id="a_node2"><a xlink:href="quickjs_8c.html#aa4b0672b30fbf661af60cf49cfadbe8f" target="_top" xlink:title="js_async_generator\l_resolve_function_create">
<polygon fill="none" stroke="#000000" points="147,-24.5 147,-54.5 286,-54.5 286,-24.5 147,-24.5"/>
<text text-anchor="start" x="155" y="-42.5" font-family="Helvetica,sans-Serif" font-size="10.00" fill="#000000">js_async_generator</text>
<text text-anchor="middle" x="216.5" y="-31.5" font-family="Helvetica,sans-Serif" font-size="10.00" fill="#000000">_resolve_function_create</text>
</a>
</g>
</g>
<!-- Node306495&#45;&gt;Node306496 -->
<g id="edge1" class="edge">
<title>Node306495&#45;&gt;Node306496</title>
<path fill="none" stroke="#191970" d="M121.4406,-39.5C129.8158,-39.5 138.4085,-39.5 146.8395,-39.5"/>
<polygon fill="#191970" stroke="#191970" points="121.3582,-36.0001 111.3581,-39.5 121.3581,-43.0001 121.3582,-36.0001"/>
</g>
<!-- Node306497 -->
<g id="node3" class="node">
<title>Node306497</title>
<g id="a_node3"><a xlink:href="quickjs_8c.html#a0950cebccf1347ea44a3c6927d3a5fa6" target="_top" xlink:title="js_async_generator\l_await">
<polygon fill="none" stroke="#000000" points="322,-49.5 322,-79.5 433,-79.5 433,-49.5 322,-49.5"/>
<text text-anchor="start" x="330" y="-67.5" font-family="Helvetica,sans-Serif" font-size="10.00" fill="#000000">js_async_generator</text>
<text text-anchor="middle" x="377.5" y="-56.5" font-family="Helvetica,sans-Serif" font-size="10.00" fill="#000000">_await</text>
</a>
</g>
</g>
<!-- Node306496&#45;&gt;Node306497 -->
<g id="edge2" class="edge">
<title>Node306496&#45;&gt;Node306497</title>
<path fill="none" stroke="#191970" d="M296.2719,-51.8869C304.8927,-53.2256 313.5247,-54.566 321.7723,-55.8466"/>
<polygon fill="#191970" stroke="#191970" points="296.5992,-48.3959 286.1806,-50.32 295.5251,-55.313 296.5992,-48.3959"/>
</g>
<!-- Node306499 -->
<g id="node5" class="node">
<title>Node306499</title>
<g id="a_node5"><a xlink:href="quickjs_8c.html#a5d885b4633392386983e2d76c175dee7" target="_top" xlink:title="js_async_generator\l_completed_return">
<polygon fill="none" stroke="#000000" points="322,-.5 322,-30.5 433,-30.5 433,-.5 322,-.5"/>
<text text-anchor="start" x="330" y="-18.5" font-family="Helvetica,sans-Serif" font-size="10.00" fill="#000000">js_async_generator</text>
<text text-anchor="middle" x="377.5" y="-7.5" font-family="Helvetica,sans-Serif" font-size="10.00" fill="#000000">_completed_return</text>
</a>
</g>
</g>
<!-- Node306496&#45;&gt;Node306499 -->
<g id="edge4" class="edge">
<title>Node306496&#45;&gt;Node306499</title>
<path fill="none" stroke="#191970" d="M296.2719,-27.6085C304.8927,-26.3234 313.5247,-25.0367 321.7723,-23.8072"/>
<polygon fill="#191970" stroke="#191970" points="295.5552,-24.1766 286.1806,-29.1128 296.5873,-31.1001 295.5552,-24.1766"/>
</g>
<!-- Node306498 -->
<g id="node4" class="node">
<title>Node306498</title>
<g id="a_node4"><a xlink:href="quickjs_8c.html#a89b019c704a2d2914bc30b30a72040b3" target="_top" xlink:title="js_async_generator\l_resume_next">
<polygon fill="none" stroke="#000000" points="469,-24.5 469,-54.5 580,-54.5 580,-24.5 469,-24.5"/>
<text text-anchor="start" x="477" y="-42.5" font-family="Helvetica,sans-Serif" font-size="10.00" fill="#000000">js_async_generator</text>
<text text-anchor="middle" x="524.5" y="-31.5" font-family="Helvetica,sans-Serif" font-size="10.00" fill="#000000">_resume_next</text>
</a>
</g>
</g>
<!-- Node306497&#45;&gt;Node306498 -->
<g id="edge3" class="edge">
<title>Node306497&#45;&gt;Node306498</title>
<path fill="none" stroke="#191970" d="M443.0775,-53.3474C451.6805,-51.8843 460.4299,-50.3963 468.847,-48.9648"/>
<polygon fill="#191970" stroke="#191970" points="442.346,-49.9214 433.0744,-55.0486 443.5197,-56.8223 442.346,-49.9214"/>
</g>
<!-- Node306499&#45;&gt;Node306498 -->
<g id="edge5" class="edge">
<title>Node306499&#45;&gt;Node306498</title>
<path fill="none" stroke="#191970" d="M443.0775,-26.2065C451.6805,-27.6111 460.4299,-29.0396 468.847,-30.4138"/>
<polygon fill="#191970" stroke="#191970" points="443.5077,-22.7305 433.0744,-24.5734 442.3797,-29.639 443.5077,-22.7305"/>
</g>
</g>
</svg>
