<?xml version="1.0" encoding="UTF-8" standalone="no"?>
<!DOCTYPE svg PUBLIC "-//W3C//DTD SVG 1.1//EN"
 "http://www.w3.org/Graphics/SVG/1.1/DTD/svg11.dtd">
<!-- Generated by graphviz version 2.40.1 (20161225.0304)
 -->
<!-- Title: js_regexp_finalizer Pages: 1 -->
<!--zoomable 104 -->
<svg id="main" version="1.1" xmlns="http://www.w3.org/2000/svg" xmlns:xlink="http://www.w3.org/1999/xlink" xml:space="preserve" onload="init(evt)">
<style type="text/css"><![CDATA[
.edge:hover path { stroke: red; }
.edge:hover polygon { stroke: red; fill: red; }
]]></style>
<script type="text/javascript"><![CDATA[
var edges = document.getElementsByTagName('g');
if (edges && edges.length) {
  for (var i=0;i<edges.length;i++) {
    if (edges[i].id.substr(0,4)=='edge') {
      edges[i].setAttribute('class','edge');
    }
  }
}
]]></script>
        <defs>
                <circle id="rim" cx="0" cy="0" r="7"/>
                <circle id="rim2" cx="0" cy="0" r="3.5"/>
                <g id="zoomPlus">
                        <use xlink:href="#rim" fill="#404040">
                                <set attributeName="fill" to="#808080" begin="zoomplus.mouseover" end="zoomplus.mouseout"/>
                        </use>
                        <path d="M-4,0h8M0,-4v8" fill="none" stroke="white" stroke-width="1.5" pointer-events="none"/>
                </g>
                <g id="zoomMin">
                        <use xlink:href="#rim" fill="#404040">
                                <set attributeName="fill" to="#808080" begin="zoomminus.mouseover" end="zoomminus.mouseout"/>
                        </use>
                        <path d="M-4,0h8" fill="none" stroke="white" stroke-width="1.5" pointer-events="none"/>
                </g>
                <g id="dirArrow">
                        <path fill="none" stroke="white" stroke-width="1.5" d="M0,-3.0v7 M-2.5,-0.5L0,-3.0L2.5,-0.5"/>
                </g>
               <g id="resetDef">
                       <use xlink:href="#rim2" fill="#404040">
                               <set attributeName="fill" to="#808080" begin="reset.mouseover" end="reset.mouseout"/>
                       </use>
               </g>
        </defs>

<script type="text/javascript">
var viewWidth = 621;
var viewHeight = 104;
var sectionId = 'dynsection-1595';
</script>
<script xlink:href="svgpan.js"/>
<svg id="graph" class="graph">
<g id="viewport">
<title>js_regexp_finalizer</title>
<!-- Node429036 -->
<g id="node1" class="node">
<title>Node429036</title>
<polygon fill="#bfbfbf" stroke="#000000" points="0,-38.5 0,-57.5 108,-57.5 108,-38.5 0,-38.5"/>
<text text-anchor="middle" x="54" y="-45.5" font-family="Helvetica,sans-Serif" font-size="10.00" fill="#000000">js_regexp_finalizer</text>
</g>
<!-- Node429037 -->
<g id="node2" class="node">
<title>Node429037</title>
<g id="a_node2"><a xlink:href="quickjs_8h.html#ab8db583fa5e7c2b1935854a42859daed" target="_top" xlink:title="JS_FreeValueRT">
<polygon fill="none" stroke="#000000" points="144,-38.5 144,-57.5 234,-57.5 234,-38.5 144,-38.5"/>
<text text-anchor="middle" x="189" y="-45.5" font-family="Helvetica,sans-Serif" font-size="10.00" fill="#000000">JS_FreeValueRT</text>
</a>
</g>
</g>
<!-- Node429036&#45;&gt;Node429037 -->
<g id="edge1" class="edge">
<title>Node429036&#45;&gt;Node429037</title>
<path fill="none" stroke="#191970" d="M108.1318,-48C116.5803,-48 125.3198,-48 133.792,-48"/>
<polygon fill="#191970" stroke="#191970" points="133.9561,-51.5001 143.9561,-48 133.956,-44.5001 133.9561,-51.5001"/>
</g>
<!-- Node429038 -->
<g id="node3" class="node">
<title>Node429038</title>
<g id="a_node3"><a xlink:href="quickjs_8c.html#ab1ea3fad7d138be12144a38be4d36423" target="_top" xlink:title="__JS_FreeValueRT">
<polygon fill="none" stroke="#000000" points="270,-38.5 270,-57.5 371,-57.5 371,-38.5 270,-38.5"/>
<text text-anchor="middle" x="320.5" y="-45.5" font-family="Helvetica,sans-Serif" font-size="10.00" fill="#000000">__JS_FreeValueRT</text>
</a>
</g>
</g>
<!-- Node429037&#45;&gt;Node429038 -->
<g id="edge2" class="edge">
<title>Node429037&#45;&gt;Node429038</title>
<path fill="none" stroke="#191970" d="M234.2548,-48C242.3888,-48 250.9878,-48 259.4809,-48"/>
<polygon fill="#191970" stroke="#191970" points="259.7498,-51.5001 269.7498,-48 259.7498,-44.5001 259.7498,-51.5001"/>
</g>
<!-- Node429039 -->
<g id="node4" class="node">
<title>Node429039</title>
<g id="a_node4"><a xlink:href="quickjs_8c.html#a8defed3434f60d6b5d6a7ea202cc8f9d" target="_top" xlink:title="free_zero_refcount">
<polygon fill="none" stroke="#ff0000" points="407,-76.5 407,-95.5 515,-95.5 515,-76.5 407,-76.5"/>
<text text-anchor="middle" x="461" y="-83.5" font-family="Helvetica,sans-Serif" font-size="10.00" fill="#000000">free_zero_refcount</text>
</a>
</g>
</g>
<!-- Node429038&#45;&gt;Node429039 -->
<g id="edge3" class="edge">
<title>Node429038&#45;&gt;Node429039</title>
<path fill="none" stroke="#191970" d="M355.9541,-57.589C374.0913,-62.4944 396.3684,-68.5196 415.7334,-73.7571"/>
<polygon fill="#191970" stroke="#191970" points="414.9903,-77.1818 425.5573,-76.4141 416.8179,-70.4246 414.9903,-77.1818"/>
</g>
<!-- Node429049 -->
<g id="node5" class="node">
<title>Node429049</title>
<g id="a_node5"><a xlink:href="quickjs_8c.html#a69e19dda8a93d613203e0baa06f0ed8d" target="_top" xlink:title="js_free_rt">
<polygon fill="none" stroke="#000000" points="551,-19.5 551,-38.5 613,-38.5 613,-19.5 551,-19.5"/>
<text text-anchor="middle" x="582" y="-26.5" font-family="Helvetica,sans-Serif" font-size="10.00" fill="#000000">js_free_rt</text>
</a>
</g>
</g>
<!-- Node429038&#45;&gt;Node429049 -->
<g id="edge4" class="edge">
<title>Node429038&#45;&gt;Node429049</title>
<path fill="none" stroke="#191970" d="M371.2299,-44.3141C420.5599,-40.7299 494.5818,-35.3516 540.5029,-32.0151"/>
<polygon fill="#191970" stroke="#191970" points="540.9774,-35.4899 550.6975,-31.2744 540.4701,-28.5083 540.9774,-35.4899"/>
</g>
<!-- Node429047 -->
<g id="node6" class="node">
<title>Node429047</title>
<g id="a_node6"><a xlink:href="quickjs_8c.html#a58c8965dad50b15b75918a09f3d9dc7c" target="_top" xlink:title="JS_FreeAtomStruct">
<polygon fill="none" stroke="#ff0000" points="408,-.5 408,-19.5 514,-19.5 514,-.5 408,-.5"/>
<text text-anchor="middle" x="461" y="-7.5" font-family="Helvetica,sans-Serif" font-size="10.00" fill="#000000">JS_FreeAtomStruct</text>
</a>
</g>
</g>
<!-- Node429038&#45;&gt;Node429047 -->
<g id="edge5" class="edge">
<title>Node429038&#45;&gt;Node429047</title>
<path fill="none" stroke="#191970" d="M355.9541,-38.411C374.0913,-33.5056 396.3684,-27.4804 415.7334,-22.2429"/>
<polygon fill="#191970" stroke="#191970" points="416.8179,-25.5754 425.5573,-19.5859 414.9903,-18.8182 416.8179,-25.5754"/>
</g>
<!-- Node429047&#45;&gt;Node429049 -->
<g id="edge6" class="edge">
<title>Node429047&#45;&gt;Node429049</title>
<path fill="none" stroke="#191970" d="M514.0724,-18.3337C523.0108,-19.7372 532.1688,-21.1753 540.75,-22.5227"/>
<polygon fill="#191970" stroke="#191970" points="540.4557,-26.0193 550.8776,-24.113 541.5416,-19.1041 540.4557,-26.0193"/>
</g>
</g>
</svg>
        <g id="navigator" transform="translate(0 0)" fill="#404254">
                <rect fill="#f2f5e9" fill-opacity="0.5" stroke="#606060" stroke-width=".5" x="0" y="0" width="60" height="60"/>
                <use id="zoomplus" xlink:href="#zoomPlus" x="17" y="9" onmousedown="handleZoom(evt,'in')"/>
                <use id="zoomminus" xlink:href="#zoomMin" x="42" y="9" onmousedown="handleZoom(evt,'out')"/>
                <use id="reset" xlink:href="#resetDef" x="30" y="36" onmousedown="handleReset()"/>
                <g id="arrowUp" xlink:href="#dirArrow" transform="translate(30 24)" onmousedown="handlePan(0,-1)">
                  <use xlink:href="#rim" fill="#404040">
                        <set attributeName="fill" to="#808080" begin="arrowUp.mouseover" end="arrowUp.mouseout"/>
                  </use>
                  <path fill="none" stroke="white" stroke-width="1.5" d="M0,-3.0v7 M-2.5,-0.5L0,-3.0L2.5,-0.5"/>
                </g>
                <g id="arrowRight" xlink:href="#dirArrow" transform="rotate(90) translate(36 -43)" onmousedown="handlePan(1,0)">
                  <use xlink:href="#rim" fill="#404040">
                        <set attributeName="fill" to="#808080" begin="arrowRight.mouseover" end="arrowRight.mouseout"/>
                  </use>
                  <path fill="none" stroke="white" stroke-width="1.5" d="M0,-3.0v7 M-2.5,-0.5L0,-3.0L2.5,-0.5"/>
                </g>
                <g id="arrowDown" xlink:href="#dirArrow" transform="rotate(180) translate(-30 -48)" onmousedown="handlePan(0,1)">
                  <use xlink:href="#rim" fill="#404040">
                        <set attributeName="fill" to="#808080" begin="arrowDown.mouseover" end="arrowDown.mouseout"/>
                  </use>
                  <path fill="none" stroke="white" stroke-width="1.5" d="M0,-3.0v7 M-2.5,-0.5L0,-3.0L2.5,-0.5"/>
                </g>
                <g id="arrowLeft" xlink:href="#dirArrow" transform="rotate(270) translate(-36 17)" onmousedown="handlePan(-1,0)">
                  <use xlink:href="#rim" fill="#404040">
                        <set attributeName="fill" to="#808080" begin="arrowLeft.mouseover" end="arrowLeft.mouseout"/>
                  </use>
                  <path fill="none" stroke="white" stroke-width="1.5" d="M0,-3.0v7 M-2.5,-0.5L0,-3.0L2.5,-0.5"/>
                </g>
        </g>
        <svg viewBox="0 0 15 15" width="100%" height="30px" preserveAspectRatio="xMaxYMin meet">
         <g id="arrow_out" transform="scale(0.3 0.3)">
          <a xlink:href="quickjs_8c_ac9c75493ffc21eedbbceab3913de681c_cgraph_org.svg" target="_base">
           <rect id="button" ry="5" rx="5" y="6" x="6" height="38" width="38"
                fill="#f2f5e9" fill-opacity="0.5" stroke="#606060" stroke-width="1.0"/>
           <path id="arrow"
             d="M 11.500037,31.436501 C 11.940474,20.09759 22.043105,11.32322 32.158766,21.979434 L 37.068811,17.246167 C 37.068811,17.246167 37.088388,32 37.088388,32 L 22.160133,31.978069 C 22.160133,31.978069 26.997745,27.140456 26.997745,27.140456 C 18.528582,18.264221 13.291696,25.230495 11.500037,31.436501 z"
             style="fill:#404040;"/>
          </a>
         </g>
        </svg>
</svg>
