<?xml version="1.0" encoding="UTF-8" standalone="no"?>
<!DOCTYPE svg PUBLIC "-//W3C//DTD SVG 1.1//EN"
 "http://www.w3.org/Graphics/SVG/1.1/DTD/svg11.dtd">
<!-- Generated by graphviz version 2.40.1 (20161225.0304)
 -->
<!-- Title: JS_ReadSharedArrayBuffer Pages: 1 -->
<svg width="664pt" height="446pt"
 viewBox="0.00 0.00 664.00 446.00" xmlns="http://www.w3.org/2000/svg" xmlns:xlink="http://www.w3.org/1999/xlink">
<g id="graph0" class="graph" transform="scale(1 1) rotate(0) translate(4 442)">
<title>JS_ReadSharedArrayBuffer</title>
<!-- Node368056 -->
<g id="node1" class="node">
<title>Node368056</title>
<polygon fill="#bfbfbf" stroke="#000000" points="0,-285.5 0,-304.5 144,-304.5 144,-285.5 0,-285.5"/>
<text text-anchor="middle" x="72" y="-292.5" font-family="Helvetica,sans-Serif" font-size="10.00" fill="#000000">JS_ReadSharedArrayBuffer</text>
</g>
<!-- Node368057 -->
<g id="node2" class="node">
<title>Node368057</title>
<g id="a_node2"><a xlink:href="quickjs_8c.html#a236b90efd249cb2775e66b12d53cab5e" target="_top" xlink:title="BC_add_object_ref">
<polygon fill="none" stroke="#000000" points="204,-399.5 204,-418.5 311,-418.5 311,-399.5 204,-399.5"/>
<text text-anchor="middle" x="257.5" y="-406.5" font-family="Helvetica,sans-Serif" font-size="10.00" fill="#000000">BC_add_object_ref</text>
</a>
</g>
</g>
<!-- Node368056&#45;&gt;Node368057 -->
<g id="edge1" class="edge">
<title>Node368056&#45;&gt;Node368057</title>
<path fill="none" stroke="#191970" d="M84.209,-304.5535C103.7876,-319.6493 143.6988,-349.5085 180,-371 194.7726,-379.7459 211.844,-388.2741 226.1982,-395.028"/>
<polygon fill="#191970" stroke="#191970" points="225.0951,-398.3742 235.6401,-399.4011 228.0371,-392.0224 225.0951,-398.3742"/>
</g>
<!-- Node368059 -->
<g id="node4" class="node">
<title>Node368059</title>
<g id="a_node4"><a xlink:href="quickjs_8c.html#a79e9250c5e2b097c9655cbc8a75ba923" target="_top" xlink:title="bc_get_leb128">
<polygon fill="none" stroke="#000000" points="214,-342.5 214,-361.5 301,-361.5 301,-342.5 214,-342.5"/>
<text text-anchor="middle" x="257.5" y="-349.5" font-family="Helvetica,sans-Serif" font-size="10.00" fill="#000000">bc_get_leb128</text>
</a>
</g>
</g>
<!-- Node368056&#45;&gt;Node368059 -->
<g id="edge3" class="edge">
<title>Node368056&#45;&gt;Node368059</title>
<path fill="none" stroke="#191970" d="M97.0842,-304.6117C118.828,-312.7537 151.234,-324.4355 180,-333 188.2071,-335.4435 196.9691,-337.8147 205.5397,-340.0061"/>
<polygon fill="#191970" stroke="#191970" points="204.9177,-343.4582 215.4682,-342.4895 206.6164,-336.6675 204.9177,-343.4582"/>
</g>
<!-- Node368062 -->
<g id="node7" class="node">
<title>Node368062</title>
<g id="a_node7"><a xlink:href="quickjs_8c.html#acde90ec09be2051ca056c973ac9c2a38" target="_top" xlink:title="bc_get_u64">
<polygon fill="none" stroke="#000000" points="221.5,-304.5 221.5,-323.5 293.5,-323.5 293.5,-304.5 221.5,-304.5"/>
<text text-anchor="middle" x="257.5" y="-311.5" font-family="Helvetica,sans-Serif" font-size="10.00" fill="#000000">bc_get_u64</text>
</a>
</g>
</g>
<!-- Node368056&#45;&gt;Node368062 -->
<g id="edge6" class="edge">
<title>Node368056&#45;&gt;Node368062</title>
<path fill="none" stroke="#191970" d="M144.2503,-302.4003C166.7738,-304.7073 190.995,-307.1882 211.2338,-309.2611"/>
<polygon fill="#191970" stroke="#191970" points="211.1197,-312.7677 221.4243,-310.3049 211.833,-305.8041 211.1197,-312.7677"/>
</g>
<!-- Node368064 -->
<g id="node9" class="node">
<title>Node368064</title>
<g id="a_node9"><a xlink:href="quickjs_8c.html#a06f84cf8ea00e2baf1a9b94f1a319b18" target="_top" xlink:title="js_array_buffer_constructor3">
<polygon fill="none" stroke="#000000" points="180,-152.5 180,-171.5 335,-171.5 335,-152.5 180,-152.5"/>
<text text-anchor="middle" x="257.5" y="-159.5" font-family="Helvetica,sans-Serif" font-size="10.00" fill="#000000">js_array_buffer_constructor3</text>
</a>
</g>
</g>
<!-- Node368056&#45;&gt;Node368064 -->
<g id="edge9" class="edge">
<title>Node368056&#45;&gt;Node368064</title>
<path fill="none" stroke="#191970" d="M85.3407,-285.435C116.9497,-262.7719 196.6582,-205.6224 235.5183,-177.7605"/>
<polygon fill="#191970" stroke="#191970" points="237.9434,-180.3284 244.0309,-171.6571 233.8645,-174.6395 237.9434,-180.3284"/>
</g>
<!-- Node368068 -->
<g id="node13" class="node">
<title>Node368068</title>
<g id="a_node13"><a xlink:href="quickjs_8h.html#afaa20c47565bc704c6c85f3d77254e7d" target="_top" xlink:title="JS_FreeValue">
<polygon fill="none" stroke="#ff0000" points="549,-284.5 549,-303.5 627,-303.5 627,-284.5 549,-284.5"/>
<text text-anchor="middle" x="588" y="-291.5" font-family="Helvetica,sans-Serif" font-size="10.00" fill="#000000">JS_FreeValue</text>
</a>
</g>
</g>
<!-- Node368056&#45;&gt;Node368068 -->
<g id="edge25" class="edge">
<title>Node368056&#45;&gt;Node368068</title>
<path fill="none" stroke="#191970" d="M144.0191,-294.8604C250.4953,-294.6541 447.1676,-294.2729 538.7205,-294.0955"/>
<polygon fill="#191970" stroke="#191970" points="538.833,-297.5954 548.8262,-294.0759 538.8194,-290.5954 538.833,-297.5954"/>
</g>
<!-- Node368117 -->
<g id="node16" class="node">
<title>Node368117</title>
<g id="a_node16"><a xlink:href="quickjs_8h.html#ad80a83d73e9b7d872b88fbf2943aebe9" target="_top" xlink:title="JS_IsException">
<polygon fill="none" stroke="#000000" points="544.5,-.5 544.5,-19.5 631.5,-19.5 631.5,-.5 544.5,-.5"/>
<text text-anchor="middle" x="588" y="-7.5" font-family="Helvetica,sans-Serif" font-size="10.00" fill="#000000">JS_IsException</text>
</a>
</g>
</g>
<!-- Node368056&#45;&gt;Node368117 -->
<g id="edge26" class="edge">
<title>Node368056&#45;&gt;Node368117</title>
<path fill="none" stroke="#191970" d="M76.9924,-285.4733C90.7073,-259.9625 131.2039,-188.9265 180,-143 252.8316,-74.4514 275.7753,-54.5878 371,-24 424.6865,-6.755 489.5972,-4.8675 534.3583,-6.2872"/>
<polygon fill="#191970" stroke="#191970" points="534.3099,-9.7879 544.4366,-6.6735 534.5781,-2.793 534.3099,-9.7879"/>
</g>
<!-- Node368058 -->
<g id="node3" class="node">
<title>Node368058</title>
<g id="a_node3"><a xlink:href="quickjs_8c.html#ad349303e811cfcab407ed0cd5ff20690" target="_top" xlink:title="BC_add_object_ref1">
<polygon fill="none" stroke="#000000" points="371,-418.5 371,-437.5 484,-437.5 484,-418.5 371,-418.5"/>
<text text-anchor="middle" x="427.5" y="-425.5" font-family="Helvetica,sans-Serif" font-size="10.00" fill="#000000">BC_add_object_ref1</text>
</a>
</g>
</g>
<!-- Node368057&#45;&gt;Node368058 -->
<g id="edge2" class="edge">
<title>Node368057&#45;&gt;Node368058</title>
<path fill="none" stroke="#191970" d="M311.2891,-415.0117C326.9974,-416.7674 344.3572,-418.7076 360.7642,-420.5413"/>
<polygon fill="#191970" stroke="#191970" points="360.5065,-424.0342 370.8334,-421.6667 361.2841,-417.0775 360.5065,-424.0342"/>
</g>
<!-- Node368060 -->
<g id="node5" class="node">
<title>Node368060</title>
<g id="a_node5"><a xlink:href="quickjs_8c.html#aec90fdacca60889202841e53258d6363" target="_top" xlink:title="bc_read_error_end">
<polygon fill="none" stroke="#000000" points="374,-342.5 374,-361.5 481,-361.5 481,-342.5 374,-342.5"/>
<text text-anchor="middle" x="427.5" y="-349.5" font-family="Helvetica,sans-Serif" font-size="10.00" fill="#000000">bc_read_error_end</text>
</a>
</g>
</g>
<!-- Node368059&#45;&gt;Node368060 -->
<g id="edge4" class="edge">
<title>Node368059&#45;&gt;Node368060</title>
<path fill="none" stroke="#191970" d="M301.2792,-352C320.3016,-352 342.9582,-352 363.7911,-352"/>
<polygon fill="#191970" stroke="#191970" points="363.8477,-355.5001 373.8477,-352 363.8477,-348.5001 363.8477,-355.5001"/>
</g>
<!-- Node368061 -->
<g id="node6" class="node">
<title>Node368061</title>
<g id="a_node6"><a xlink:href="quickjs_8c.html#a930fdff715d46df68de392095deb7d79" target="_top" xlink:title="get_leb128">
<polygon fill="none" stroke="#000000" points="392,-380.5 392,-399.5 463,-399.5 463,-380.5 392,-380.5"/>
<text text-anchor="middle" x="427.5" y="-387.5" font-family="Helvetica,sans-Serif" font-size="10.00" fill="#000000">get_leb128</text>
</a>
</g>
</g>
<!-- Node368059&#45;&gt;Node368061 -->
<g id="edge5" class="edge">
<title>Node368059&#45;&gt;Node368061</title>
<path fill="none" stroke="#191970" d="M300.3982,-361.589C325.2095,-367.1351 356.4237,-374.1124 381.7096,-379.7645"/>
<polygon fill="#191970" stroke="#191970" points="381.2685,-383.2522 391.7912,-382.018 382.7956,-376.4208 381.2685,-383.2522"/>
</g>
<!-- Node368062&#45;&gt;Node368060 -->
<g id="edge7" class="edge">
<title>Node368062&#45;&gt;Node368060</title>
<path fill="none" stroke="#191970" d="M293.5526,-322.0588C317.2328,-327.352 348.6014,-334.3638 375.0293,-340.2712"/>
<polygon fill="#191970" stroke="#191970" points="374.3671,-343.7095 384.8898,-342.4754 375.8941,-336.8781 374.3671,-343.7095"/>
</g>
<!-- Node368063 -->
<g id="node8" class="node">
<title>Node368063</title>
<g id="a_node8"><a xlink:href="cutils_8h.html#abd459f86984783206f7317582511f8db" target="_top" xlink:title="get_u64">
<polygon fill="none" stroke="#000000" points="399.5,-304.5 399.5,-323.5 455.5,-323.5 455.5,-304.5 399.5,-304.5"/>
<text text-anchor="middle" x="427.5" y="-311.5" font-family="Helvetica,sans-Serif" font-size="10.00" fill="#000000">get_u64</text>
</a>
</g>
</g>
<!-- Node368062&#45;&gt;Node368063 -->
<g id="edge8" class="edge">
<title>Node368062&#45;&gt;Node368063</title>
<path fill="none" stroke="#191970" d="M293.5526,-314C321.6773,-314 360.6474,-314 389.3044,-314"/>
<polygon fill="#191970" stroke="#191970" points="389.3565,-317.5001 399.3565,-314 389.3564,-310.5001 389.3565,-317.5001"/>
</g>
<!-- Node368065 -->
<g id="node10" class="node">
<title>Node368065</title>
<g id="a_node10"><a xlink:href="list_8h.html#a663527a4d757540b2177bef0db1ce5c0" target="_top" xlink:title="init_list_head">
<polygon fill="none" stroke="#000000" points="386.5,-228.5 386.5,-247.5 468.5,-247.5 468.5,-228.5 386.5,-228.5"/>
<text text-anchor="middle" x="427.5" y="-235.5" font-family="Helvetica,sans-Serif" font-size="10.00" fill="#000000">init_list_head</text>
</a>
</g>
</g>
<!-- Node368064&#45;&gt;Node368065 -->
<g id="edge10" class="edge">
<title>Node368064&#45;&gt;Node368065</title>
<path fill="none" stroke="#191970" d="M277.9264,-171.5666C300.5894,-182.1319 338.2822,-199.5596 371,-214 378.8327,-217.457 387.3134,-221.1078 395.264,-224.4903"/>
<polygon fill="#191970" stroke="#191970" points="394.0468,-227.7757 404.6201,-228.4521 396.7764,-221.3298 394.0468,-227.7757"/>
</g>
<!-- Node368066 -->
<g id="node11" class="node">
<title>Node368066</title>
<g id="a_node11"><a xlink:href="quickjs_8c.html#a93dbf502b17d1328c524401335f60499" target="_top" xlink:title="js_create_from_ctor">
<polygon fill="none" stroke="#000000" points="371,-152.5 371,-171.5 484,-171.5 484,-152.5 371,-152.5"/>
<text text-anchor="middle" x="427.5" y="-159.5" font-family="Helvetica,sans-Serif" font-size="10.00" fill="#000000">js_create_from_ctor</text>
</a>
</g>
</g>
<!-- Node368064&#45;&gt;Node368066 -->
<g id="edge11" class="edge">
<title>Node368064&#45;&gt;Node368066</title>
<path fill="none" stroke="#191970" d="M335.0378,-162C343.6293,-162 352.3232,-162 360.7648,-162"/>
<polygon fill="#191970" stroke="#191970" points="360.9128,-165.5001 370.9128,-162 360.9127,-158.5001 360.9128,-165.5001"/>
</g>
<!-- Node368064&#45;&gt;Node368068 -->
<g id="edge22" class="edge">
<title>Node368064&#45;&gt;Node368068</title>
<path fill="none" stroke="#191970" d="M315.0978,-171.5156C372.9334,-181.9365 457.2023,-199.7473 484,-219 508.0295,-236.2638 496.1963,-257.4261 520,-275 525.6318,-279.1578 532.1349,-282.4062 538.8404,-284.9438"/>
<polygon fill="#191970" stroke="#191970" points="538.1391,-288.3967 548.7316,-288.1765 540.3137,-281.743 538.1391,-288.3967"/>
</g>
<!-- Node368064&#45;&gt;Node368117 -->
<g id="edge23" class="edge">
<title>Node368064&#45;&gt;Node368117</title>
<path fill="none" stroke="#191970" d="M266.179,-152.3065C283.9303,-133.0815 326.4827,-90.0002 371,-67 423.1195,-40.072 489.0209,-25.0997 534.4485,-17.3359"/>
<polygon fill="#191970" stroke="#191970" points="535.0925,-20.7771 544.3894,-15.696 533.9531,-13.8704 535.0925,-20.7771"/>
</g>
<!-- Node368089 -->
<g id="node20" class="node">
<title>Node368089</title>
<g id="a_node20"><a xlink:href="quickjs_8c.html#a80e54dcf9ac687d4ccc2f90273565f30" target="_top" xlink:title="js_free">
<polygon fill="none" stroke="#ff0000" points="402.5,-114.5 402.5,-133.5 452.5,-133.5 452.5,-114.5 402.5,-114.5"/>
<text text-anchor="middle" x="427.5" y="-121.5" font-family="Helvetica,sans-Serif" font-size="10.00" fill="#000000">js_free</text>
</a>
</g>
</g>
<!-- Node368064&#45;&gt;Node368089 -->
<g id="edge21" class="edge">
<title>Node368064&#45;&gt;Node368089</title>
<path fill="none" stroke="#191970" d="M300.3982,-152.411C328.7063,-146.0833 365.3494,-137.8925 392.0129,-131.9324"/>
<polygon fill="#191970" stroke="#191970" points="393.0651,-135.2837 402.0608,-129.6864 391.5381,-128.4522 393.0651,-135.2837"/>
</g>
<!-- Node368334 -->
<g id="node21" class="node">
<title>Node368334</title>
<g id="a_node21"><a xlink:href="quickjs_8c.html#a0ddf716409e51648f0d59e7521150d19" target="_top" xlink:title="JS_SetOpaque">
<polygon fill="none" stroke="#000000" points="385.5,-76.5 385.5,-95.5 469.5,-95.5 469.5,-76.5 385.5,-76.5"/>
<text text-anchor="middle" x="427.5" y="-83.5" font-family="Helvetica,sans-Serif" font-size="10.00" fill="#000000">JS_SetOpaque</text>
</a>
</g>
</g>
<!-- Node368064&#45;&gt;Node368334 -->
<g id="edge24" class="edge">
<title>Node368064&#45;&gt;Node368334</title>
<path fill="none" stroke="#191970" d="M274.8336,-152.3294C296.7908,-140.3061 335.9928,-119.591 371,-105 376.0747,-102.8849 381.4763,-100.8294 386.8506,-98.8999"/>
<polygon fill="#191970" stroke="#191970" points="388.1201,-102.1641 396.4184,-95.5771 385.8236,-95.5515 388.1201,-102.1641"/>
</g>
<!-- Node368067 -->
<g id="node12" class="node">
<title>Node368067</title>
<g id="a_node12"><a xlink:href="quickjs_8h.html#a775522f2d084fc8fa0fcb33f390006b4" target="_top" xlink:title="JS_DupValue">
<polygon fill="none" stroke="#000000" points="549.5,-208.5 549.5,-227.5 626.5,-227.5 626.5,-208.5 549.5,-208.5"/>
<text text-anchor="middle" x="588" y="-215.5" font-family="Helvetica,sans-Serif" font-size="10.00" fill="#000000">JS_DupValue</text>
</a>
</g>
</g>
<!-- Node368066&#45;&gt;Node368067 -->
<g id="edge12" class="edge">
<title>Node368066&#45;&gt;Node368067</title>
<path fill="none" stroke="#191970" d="M449.6772,-171.6564C468.2596,-179.5567 495.5902,-190.7348 520,-199 526.8645,-201.3243 534.1855,-203.5885 541.3858,-205.6964"/>
<polygon fill="#191970" stroke="#191970" points="540.4987,-209.0829 551.0755,-208.4647 542.4217,-202.3522 540.4987,-209.0829"/>
</g>
<!-- Node368066&#45;&gt;Node368068 -->
<g id="edge13" class="edge">
<title>Node368066&#45;&gt;Node368068</title>
<path fill="none" stroke="#191970" d="M461.8332,-171.5523C469.876,-175.0651 477.8743,-179.7674 484,-186 513.9093,-216.4315 488.1883,-246.5631 520,-275 525.5289,-279.9424 532.2424,-283.6099 539.2718,-286.329"/>
<polygon fill="#191970" stroke="#191970" points="538.3794,-289.7191 548.9716,-289.4798 540.5421,-283.0616 538.3794,-289.7191"/>
</g>
<!-- Node368106 -->
<g id="node14" class="node">
<title>Node368106</title>
<g id="a_node14"><a xlink:href="quickjs_8c.html#a83e9d1851a3e2cd176944272b583143c" target="_top" xlink:title="JS_GetFunctionRealm">
<polygon fill="none" stroke="#ff0000" points="528.5,-152.5 528.5,-171.5 647.5,-171.5 647.5,-152.5 528.5,-152.5"/>
<text text-anchor="middle" x="588" y="-159.5" font-family="Helvetica,sans-Serif" font-size="10.00" fill="#000000">JS_GetFunctionRealm</text>
</a>
</g>
</g>
<!-- Node368066&#45;&gt;Node368106 -->
<g id="edge14" class="edge">
<title>Node368066&#45;&gt;Node368106</title>
<path fill="none" stroke="#191970" d="M484.0863,-162C495.073,-162 506.7097,-162 518.066,-162"/>
<polygon fill="#191970" stroke="#191970" points="518.3899,-165.5001 528.3899,-162 518.3898,-158.5001 518.3899,-165.5001"/>
</g>
<!-- Node368108 -->
<g id="node15" class="node">
<title>Node368108</title>
<g id="a_node15"><a xlink:href="quickjs_8h.html#a89b7c8686c7eee70b86be722ee4730ad" target="_top" xlink:title="JS_GetProperty">
<polygon fill="none" stroke="#ff0000" points="543.5,-114.5 543.5,-133.5 632.5,-133.5 632.5,-114.5 543.5,-114.5"/>
<text text-anchor="middle" x="588" y="-121.5" font-family="Helvetica,sans-Serif" font-size="10.00" fill="#000000">JS_GetProperty</text>
</a>
</g>
</g>
<!-- Node368066&#45;&gt;Node368108 -->
<g id="edge16" class="edge">
<title>Node368066&#45;&gt;Node368108</title>
<path fill="none" stroke="#191970" d="M468.0009,-152.411C489.1806,-147.3965 515.3022,-141.2119 537.7604,-135.8947"/>
<polygon fill="#191970" stroke="#191970" points="538.8657,-139.2299 547.7903,-133.5201 537.2529,-132.4182 538.8657,-139.2299"/>
</g>
<!-- Node368066&#45;&gt;Node368117 -->
<g id="edge17" class="edge">
<title>Node368066&#45;&gt;Node368117</title>
<path fill="none" stroke="#191970" d="M470.4895,-152.4896C475.4847,-150.022 480.1577,-146.9141 484,-143 521.2211,-105.083 481.8069,-65.9377 520,-29 524.2899,-24.8511 529.4077,-21.5931 534.8832,-19.0371"/>
<polygon fill="#191970" stroke="#191970" points="536.2947,-22.2438 544.3529,-15.3652 533.7639,-15.7173 536.2947,-22.2438"/>
</g>
<!-- Node368344 -->
<g id="node17" class="node">
<title>Node368344</title>
<g id="a_node17"><a xlink:href="quickjs_8h.html#a3d68fe446df2d9c7d1900b16371bff5b" target="_top" xlink:title="JS_IsObject">
<polygon fill="none" stroke="#000000" points="552.5,-76.5 552.5,-95.5 623.5,-95.5 623.5,-76.5 552.5,-76.5"/>
<text text-anchor="middle" x="588" y="-83.5" font-family="Helvetica,sans-Serif" font-size="10.00" fill="#000000">JS_IsObject</text>
</a>
</g>
</g>
<!-- Node368066&#45;&gt;Node368344 -->
<g id="edge18" class="edge">
<title>Node368066&#45;&gt;Node368344</title>
<path fill="none" stroke="#191970" d="M464.5631,-152.4383C471.3029,-149.9043 478.0694,-146.7881 484,-143 503.6063,-130.4769 500.0751,-117.0098 520,-105 526.8648,-100.8622 534.6593,-97.5986 542.4607,-95.0326"/>
<polygon fill="#191970" stroke="#191970" points="543.6726,-98.3244 552.2767,-92.142 541.6952,-91.6095 543.6726,-98.3244"/>
</g>
<!-- Node368272 -->
<g id="node18" class="node">
<title>Node368272</title>
<g id="a_node18"><a xlink:href="quickjs_8h.html#a4e407128a9605afb77523e49e9a627fd" target="_top" xlink:title="JS_IsUndefined">
<polygon fill="none" stroke="#000000" points="543.5,-38.5 543.5,-57.5 632.5,-57.5 632.5,-38.5 543.5,-38.5"/>
<text text-anchor="middle" x="588" y="-45.5" font-family="Helvetica,sans-Serif" font-size="10.00" fill="#000000">JS_IsUndefined</text>
</a>
</g>
</g>
<!-- Node368066&#45;&gt;Node368272 -->
<g id="edge19" class="edge">
<title>Node368066&#45;&gt;Node368272</title>
<path fill="none" stroke="#191970" d="M469.1392,-152.3779C474.5271,-149.9236 479.6676,-146.8492 484,-143 511.9406,-118.1754 491.4242,-91.0907 520,-67 524.0547,-63.5817 528.6812,-60.7761 533.5704,-58.4738"/>
<polygon fill="#191970" stroke="#191970" points="535.2165,-61.5858 543.215,-54.6378 532.6294,-55.0814 535.2165,-61.5858"/>
</g>
<!-- Node368232 -->
<g id="node19" class="node">
<title>Node368232</title>
<g id="a_node19"><a xlink:href="quickjs_8c.html#a73738c650f11459db0d7af3dcdf8316b" target="_top" xlink:title="JS_NewObjectProtoClass">
<polygon fill="none" stroke="#ff0000" points="520,-246.5 520,-265.5 656,-265.5 656,-246.5 520,-246.5"/>
<text text-anchor="middle" x="588" y="-253.5" font-family="Helvetica,sans-Serif" font-size="10.00" fill="#000000">JS_NewObjectProtoClass</text>
</a>
</g>
</g>
<!-- Node368066&#45;&gt;Node368232 -->
<g id="edge20" class="edge">
<title>Node368066&#45;&gt;Node368232</title>
<path fill="none" stroke="#191970" d="M458.5444,-171.5893C467.336,-175.2227 476.5353,-179.977 484,-186 505.5927,-203.4222 497.3275,-221.0083 520,-237 522.8407,-239.0036 525.8865,-240.7965 529.0571,-242.4008"/>
<polygon fill="#191970" stroke="#191970" points="527.693,-245.6243 538.2563,-246.4407 530.5077,-239.2151 527.693,-245.6243"/>
</g>
<!-- Node368106&#45;&gt;Node368106 -->
<g id="edge15" class="edge">
<title>Node368106&#45;&gt;Node368106</title>
<path fill="none" stroke="#191970" d="M563.3394,-171.7571C551.3423,-180.5653 559.5625,-190 588,-190 607.1064,-190 617.0865,-185.741 617.9401,-180.2746"/>
<polygon fill="#191970" stroke="#191970" points="620.904,-178.4128 612.6606,-171.7571 614.9542,-182.1007 620.904,-178.4128"/>
</g>
</g>
</svg>
