<?xml version="1.0" encoding="UTF-8" standalone="no"?>
<!DOCTYPE svg PUBLIC "-//W3C//DTD SVG 1.1//EN"
 "http://www.w3.org/Graphics/SVG/1.1/DTD/svg11.dtd">
<!-- Generated by graphviz version 2.40.1 (20161225.0304)
 -->
<!-- Title: js_object_defineProperties Pages: 1 -->
<svg width="901pt" height="418pt"
 viewBox="0.00 0.00 901.00 417.62" xmlns="http://www.w3.org/2000/svg" xmlns:xlink="http://www.w3.org/1999/xlink">
<g id="graph0" class="graph" transform="scale(1 1) rotate(0) translate(4 413.6225)">
<title>js_object_defineProperties</title>
<!-- Node380630 -->
<g id="node1" class="node">
<title>Node380630</title>
<polygon fill="#bfbfbf" stroke="#000000" points="0,-302.8707 0,-321.8707 145,-321.8707 145,-302.8707 0,-302.8707"/>
<text text-anchor="middle" x="72.5" y="-309.8707" font-family="Helvetica,sans-Serif" font-size="10.00" fill="#000000">js_object_defineProperties</text>
</g>
<!-- Node380631 -->
<g id="node2" class="node">
<title>Node380631</title>
<g id="a_node2"><a xlink:href="quickjs_8h.html#a775522f2d084fc8fa0fcb33f390006b4" target="_top" xlink:title="JS_DupValue">
<polygon fill="none" stroke="#000000" points="770.5,-378.8707 770.5,-397.8707 847.5,-397.8707 847.5,-378.8707 770.5,-378.8707"/>
<text text-anchor="middle" x="809" y="-385.8707" font-family="Helvetica,sans-Serif" font-size="10.00" fill="#000000">JS_DupValue</text>
</a>
</g>
</g>
<!-- Node380630&#45;&gt;Node380631 -->
<g id="edge1" class="edge">
<title>Node380630&#45;&gt;Node380631</title>
<path fill="none" stroke="#191970" d="M98.2042,-321.9324C147.9363,-339.9488 261.1434,-378.6153 360,-395.3707 456.1086,-411.6604 481.5572,-404.7031 579,-407.3707 627.8706,-408.7087 640.2617,-411.2053 689,-407.3707 712.5989,-405.5141 738.5687,-401.6338 760.2955,-397.861"/>
<polygon fill="#191970" stroke="#191970" points="761.0408,-401.2835 770.2726,-396.0851 759.814,-394.3918 761.0408,-401.2835"/>
</g>
<!-- Node380632 -->
<g id="node3" class="node">
<title>Node380632</title>
<g id="a_node3"><a xlink:href="quickjs_8c.html#ab2de4cc7a9e58c7a6220acf9e4769d62" target="_top" xlink:title="JS_ObjectDefineProperties">
<polygon fill="none" stroke="#000000" points="181,-207.8707 181,-226.8707 324,-226.8707 324,-207.8707 181,-207.8707"/>
<text text-anchor="middle" x="252.5" y="-214.8707" font-family="Helvetica,sans-Serif" font-size="10.00" fill="#000000">JS_ObjectDefineProperties</text>
</a>
</g>
</g>
<!-- Node380630&#45;&gt;Node380632 -->
<g id="edge2" class="edge">
<title>Node380630&#45;&gt;Node380632</title>
<path fill="none" stroke="#191970" d="M90.7499,-302.7388C122.5016,-285.981 188.0633,-251.379 225.2301,-231.7632"/>
<polygon fill="#191970" stroke="#191970" points="227.2592,-234.6499 234.4694,-226.8869 223.9919,-228.4592 227.2592,-234.6499"/>
</g>
<!-- Node380633 -->
<g id="node4" class="node">
<title>Node380633</title>
<g id="a_node4"><a xlink:href="quickjs_8c.html#af40540b5f7e973f44e4e89d87938bfc6" target="_top" xlink:title="JS_DefinePropertyDesc">
<polygon fill="none" stroke="#000000" points="387.5,-226.8707 387.5,-245.8707 515.5,-245.8707 515.5,-226.8707 387.5,-226.8707"/>
<text text-anchor="middle" x="451.5" y="-233.8707" font-family="Helvetica,sans-Serif" font-size="10.00" fill="#000000">JS_DefinePropertyDesc</text>
</a>
</g>
</g>
<!-- Node380632&#45;&gt;Node380633 -->
<g id="edge3" class="edge">
<title>Node380632&#45;&gt;Node380633</title>
<path fill="none" stroke="#191970" d="M324.0624,-224.2033C341.2946,-225.8486 359.7435,-227.6101 377.1018,-229.2674"/>
<polygon fill="#191970" stroke="#191970" points="376.8912,-232.7631 387.1786,-230.2295 377.5566,-225.7948 376.8912,-232.7631"/>
</g>
<!-- Node380661 -->
<g id="node6" class="node">
<title>Node380661</title>
<g id="a_node6"><a xlink:href="quickjs_8h.html#afaa20c47565bc704c6c85f3d77254e7d" target="_top" xlink:title="JS_FreeValue">
<polygon fill="none" stroke="#ff0000" points="770,-217.8707 770,-236.8707 848,-236.8707 848,-217.8707 770,-217.8707"/>
<text text-anchor="middle" x="809" y="-224.8707" font-family="Helvetica,sans-Serif" font-size="10.00" fill="#000000">JS_FreeValue</text>
</a>
</g>
</g>
<!-- Node380632&#45;&gt;Node380661 -->
<g id="edge18" class="edge">
<title>Node380632&#45;&gt;Node380661</title>
<path fill="none" stroke="#191970" d="M324.3708,-215.5424C410.9147,-213.7633 560.6618,-212.0326 689,-217.3707 712.3511,-218.342 738.1922,-220.372 759.8952,-222.3509"/>
<polygon fill="#191970" stroke="#191970" points="759.5866,-225.8372 769.8689,-223.2828 760.2379,-218.8676 759.5866,-225.8372"/>
</g>
<!-- Node380697 -->
<g id="node7" class="node">
<title>Node380697</title>
<g id="a_node7"><a xlink:href="quickjs_8h.html#ad80a83d73e9b7d872b88fbf2943aebe9" target="_top" xlink:title="JS_IsException">
<polygon fill="none" stroke="#000000" points="765.5,-321.8707 765.5,-340.8707 852.5,-340.8707 852.5,-321.8707 765.5,-321.8707"/>
<text text-anchor="middle" x="809" y="-328.8707" font-family="Helvetica,sans-Serif" font-size="10.00" fill="#000000">JS_IsException</text>
</a>
</g>
</g>
<!-- Node380632&#45;&gt;Node380697 -->
<g id="edge23" class="edge">
<title>Node380632&#45;&gt;Node380697</title>
<path fill="none" stroke="#191970" d="M263.1242,-227.0273C281.3813,-242.9748 320.5643,-274.4365 360,-288.3707 496.2246,-336.5044 669.3106,-337.5927 755.369,-334.4458"/>
<polygon fill="#191970" stroke="#191970" points="755.5719,-337.9406 765.4242,-334.0439 755.2923,-330.9462 755.5719,-337.9406"/>
</g>
<!-- Node380829 -->
<g id="node8" class="node">
<title>Node380829</title>
<g id="a_node8"><a xlink:href="quickjs_8c.html#a726b00d108e0a0f4d958c36c2e426a64" target="_top" xlink:title="JS_ThrowTypeErrorNotAnObject">
<polygon fill="none" stroke="#000000" points="725,-264.8707 725,-283.8707 893,-283.8707 893,-264.8707 725,-264.8707"/>
<text text-anchor="middle" x="809" y="-271.8707" font-family="Helvetica,sans-Serif" font-size="10.00" fill="#000000">JS_ThrowTypeErrorNotAnObject</text>
</a>
</g>
</g>
<!-- Node380632&#45;&gt;Node380829 -->
<g id="edge25" class="edge">
<title>Node380632&#45;&gt;Node380829</title>
<path fill="none" stroke="#191970" d="M276.0524,-226.988C297.5965,-235.4732 330.5077,-247.6579 360,-255.3707 502.4051,-292.6127 542.2591,-304.9158 689,-293.3707 709.0553,-291.7929 730.8231,-288.7535 750.2436,-285.5606"/>
<polygon fill="#191970" stroke="#191970" points="750.887,-289.0016 760.1639,-283.8839 749.7204,-282.0995 750.887,-289.0016"/>
</g>
<!-- Node380752 -->
<g id="node11" class="node">
<title>Node380752</title>
<g id="a_node11"><a xlink:href="quickjs_8h.html#a89b7c8686c7eee70b86be722ee4730ad" target="_top" xlink:title="JS_GetProperty">
<polygon fill="none" stroke="#ff0000" points="764.5,-160.8707 764.5,-179.8707 853.5,-179.8707 853.5,-160.8707 764.5,-160.8707"/>
<text text-anchor="middle" x="809" y="-167.8707" font-family="Helvetica,sans-Serif" font-size="10.00" fill="#000000">JS_GetProperty</text>
</a>
</g>
</g>
<!-- Node380632&#45;&gt;Node380752 -->
<g id="edge22" class="edge">
<title>Node380632&#45;&gt;Node380752</title>
<path fill="none" stroke="#191970" d="M277.4569,-207.8378C343.9868,-183.5558 531.2725,-122.5824 689,-141.3707 715.8818,-144.5729 745.4494,-151.6748 768.5085,-158.0488"/>
<polygon fill="#191970" stroke="#191970" points="767.7129,-161.4611 778.2881,-160.8157 769.6186,-154.7255 767.7129,-161.4611"/>
</g>
<!-- Node380874 -->
<g id="node12" class="node">
<title>Node380874</title>
<g id="a_node12"><a xlink:href="quickjs_8h.html#a3d68fe446df2d9c7d1900b16371bff5b" target="_top" xlink:title="JS_IsObject">
<polygon fill="none" stroke="#000000" points="773.5,-84.8707 773.5,-103.8707 844.5,-103.8707 844.5,-84.8707 773.5,-84.8707"/>
<text text-anchor="middle" x="809" y="-91.8707" font-family="Helvetica,sans-Serif" font-size="10.00" fill="#000000">JS_IsObject</text>
</a>
</g>
</g>
<!-- Node380632&#45;&gt;Node380874 -->
<g id="edge24" class="edge">
<title>Node380632&#45;&gt;Node380874</title>
<path fill="none" stroke="#191970" d="M261.7819,-207.7377C279.1809,-190.3802 318.6884,-154.1909 360,-138.3707 499.4128,-84.983 680.1211,-86.7022 763.3552,-91.0652"/>
<polygon fill="#191970" stroke="#191970" points="763.3083,-94.568 773.4892,-91.6354 763.7016,-87.5791 763.3083,-94.568"/>
</g>
<!-- Node380910 -->
<g id="node13" class="node">
<title>Node380910</title>
<g id="a_node13"><a xlink:href="quickjs_8c.html#a6b42cd922447e1eb6bfc52761895a174" target="_top" xlink:title="js_free_prop_enum">
<polygon fill="none" stroke="#ff0000" points="579,-17.8707 579,-36.8707 689,-36.8707 689,-17.8707 579,-17.8707"/>
<text text-anchor="middle" x="634" y="-24.8707" font-family="Helvetica,sans-Serif" font-size="10.00" fill="#000000">js_free_prop_enum</text>
</a>
</g>
</g>
<!-- Node380632&#45;&gt;Node380910 -->
<g id="edge17" class="edge">
<title>Node380632&#45;&gt;Node380910</title>
<path fill="none" stroke="#191970" d="M254.4724,-207.47C261.6295,-174.5335 289.6104,-68.4201 360,-27.3707 432.8779,15.1298 536.2837,-1.2567 592.9419,-15.3366"/>
<polygon fill="#191970" stroke="#191970" points="592.0678,-18.7256 602.6251,-17.8345 593.8164,-11.9475 592.0678,-18.7256"/>
</g>
<!-- Node380911 -->
<g id="node14" class="node">
<title>Node380911</title>
<g id="a_node14"><a xlink:href="quickjs_8c.html#a176ac5ff56a118a0b1b2566798d28823" target="_top" xlink:title="JS_GetOwnPropertyNamesInternal">
<polygon fill="none" stroke="#ff0000" points="360,-36.8707 360,-55.8707 543,-55.8707 543,-36.8707 360,-36.8707"/>
<text text-anchor="middle" x="451.5" y="-43.8707" font-family="Helvetica,sans-Serif" font-size="10.00" fill="#000000">JS_GetOwnPropertyNamesInternal</text>
</a>
</g>
</g>
<!-- Node380632&#45;&gt;Node380911 -->
<g id="edge19" class="edge">
<title>Node380632&#45;&gt;Node380911</title>
<path fill="none" stroke="#191970" d="M256.6881,-207.7094C268.6509,-181.2966 305.6472,-107.3918 360,-70.3707 366.4897,-65.9504 373.7471,-62.3441 381.2588,-59.4018"/>
<polygon fill="#191970" stroke="#191970" points="382.6003,-62.6402 390.8713,-56.0189 380.2764,-56.0372 382.6003,-62.6402"/>
</g>
<!-- Node380865 -->
<g id="node15" class="node">
<title>Node380865</title>
<g id="a_node15"><a xlink:href="quickjs_8c.html#a710289a14c2810467e5b448d3c28bd55" target="_top" xlink:title="JS_ToObject">
<polygon fill="none" stroke="#ff0000" points="597.5,-378.8707 597.5,-397.8707 670.5,-397.8707 670.5,-378.8707 597.5,-378.8707"/>
<text text-anchor="middle" x="634" y="-385.8707" font-family="Helvetica,sans-Serif" font-size="10.00" fill="#000000">JS_ToObject</text>
</a>
</g>
</g>
<!-- Node380632&#45;&gt;Node380865 -->
<g id="edge26" class="edge">
<title>Node380632&#45;&gt;Node380865</title>
<path fill="none" stroke="#191970" d="M256.2193,-227.1344C267.2134,-254.4762 302.4388,-331.918 360,-364.3707 431.0732,-404.4414 529.3332,-401.7139 586.8271,-395.4681"/>
<polygon fill="#191970" stroke="#191970" points="587.5464,-398.908 597.0723,-394.2705 586.7336,-391.9553 587.5464,-398.908"/>
</g>
<!-- Node380634 -->
<g id="node5" class="node">
<title>Node380634</title>
<g id="a_node5"><a xlink:href="quickjs_8c.html#ab50618f1bf78e444caa6da0e3e2785d7" target="_top" xlink:title="JS_DefineProperty">
<polygon fill="none" stroke="#ff0000" points="582,-264.8707 582,-283.8707 686,-283.8707 686,-264.8707 582,-264.8707"/>
<text text-anchor="middle" x="634" y="-271.8707" font-family="Helvetica,sans-Serif" font-size="10.00" fill="#000000">JS_DefineProperty</text>
</a>
</g>
</g>
<!-- Node380633&#45;&gt;Node380634 -->
<g id="edge4" class="edge">
<title>Node380633&#45;&gt;Node380634</title>
<path fill="none" stroke="#191970" d="M497.5525,-245.9597C522.0692,-251.0646 552.4096,-257.3821 578.2502,-262.7626"/>
<polygon fill="#191970" stroke="#191970" points="577.7752,-266.2386 588.2787,-264.8507 579.2022,-259.3856 577.7752,-266.2386"/>
</g>
<!-- Node380914 -->
<g id="node9" class="node">
<title>Node380914</title>
<g id="a_node9"><a xlink:href="quickjs_8c.html#adfe21c674d998ca6586b7f7400352dc4" target="_top" xlink:title="js_free_desc">
<polygon fill="none" stroke="#000000" points="595.5,-150.8707 595.5,-169.8707 672.5,-169.8707 672.5,-150.8707 595.5,-150.8707"/>
<text text-anchor="middle" x="634" y="-157.8707" font-family="Helvetica,sans-Serif" font-size="10.00" fill="#000000">js_free_desc</text>
</a>
</g>
</g>
<!-- Node380633&#45;&gt;Node380914 -->
<g id="edge9" class="edge">
<title>Node380633&#45;&gt;Node380914</title>
<path fill="none" stroke="#191970" d="M474.6138,-226.7453C506.7016,-213.3827 564.9058,-189.1442 601.397,-173.9479"/>
<polygon fill="#191970" stroke="#191970" points="603.1879,-176.9935 611.0739,-169.918 600.4969,-170.5314 603.1879,-176.9935"/>
</g>
<!-- Node381067 -->
<g id="node10" class="node">
<title>Node381067</title>
<g id="a_node10"><a xlink:href="quickjs_8c.html#a26ceb6b90296d2572803b252df73cded" target="_top" xlink:title="js_obj_to_desc">
<polygon fill="none" stroke="#ff0000" points="590,-226.8707 590,-245.8707 678,-245.8707 678,-226.8707 590,-226.8707"/>
<text text-anchor="middle" x="634" y="-233.8707" font-family="Helvetica,sans-Serif" font-size="10.00" fill="#000000">js_obj_to_desc</text>
</a>
</g>
</g>
<!-- Node380633&#45;&gt;Node381067 -->
<g id="edge11" class="edge">
<title>Node380633&#45;&gt;Node381067</title>
<path fill="none" stroke="#191970" d="M515.5861,-236.3707C536.4892,-236.3707 559.4848,-236.3707 579.6064,-236.3707"/>
<polygon fill="#191970" stroke="#191970" points="579.8405,-239.8708 589.8405,-236.3707 579.8404,-232.8708 579.8405,-239.8708"/>
</g>
<!-- Node380634&#45;&gt;Node380631 -->
<g id="edge5" class="edge">
<title>Node380634&#45;&gt;Node380631</title>
<path fill="none" stroke="#191970" d="M643.6729,-283.9957C659.5844,-299.4553 692.7432,-330.1327 725,-350.3707 740.1262,-359.861 758.0215,-368.2964 773.3996,-374.7941"/>
<polygon fill="#191970" stroke="#191970" points="772.5076,-378.2115 783.0874,-378.7758 775.1686,-371.737 772.5076,-378.2115"/>
</g>
<!-- Node380634&#45;&gt;Node380661 -->
<g id="edge6" class="edge">
<title>Node380634&#45;&gt;Node380661</title>
<path fill="none" stroke="#191970" d="M669.4139,-264.8596C696.484,-257.5893 734.0115,-247.5105 763.3383,-239.6342"/>
<polygon fill="#191970" stroke="#191970" points="764.589,-242.9224 773.3389,-236.9483 762.7733,-236.1619 764.589,-242.9224"/>
</g>
<!-- Node380634&#45;&gt;Node380697 -->
<g id="edge7" class="edge">
<title>Node380634&#45;&gt;Node380697</title>
<path fill="none" stroke="#191970" d="M663.2911,-283.9113C692.5666,-293.4467 737.7522,-308.1643 770.0393,-318.6807"/>
<polygon fill="#191970" stroke="#191970" points="769.0211,-322.0299 779.6134,-321.7991 771.189,-315.3741 769.0211,-322.0299"/>
</g>
<!-- Node380634&#45;&gt;Node380829 -->
<g id="edge8" class="edge">
<title>Node380634&#45;&gt;Node380829</title>
<path fill="none" stroke="#191970" d="M686.032,-274.3707C695.08,-274.3707 704.7371,-274.3707 714.5113,-274.3707"/>
<polygon fill="#191970" stroke="#191970" points="714.7188,-277.8708 724.7187,-274.3707 714.7187,-270.8708 714.7188,-277.8708"/>
</g>
<!-- Node380914&#45;&gt;Node380661 -->
<g id="edge10" class="edge">
<title>Node380914&#45;&gt;Node380661</title>
<path fill="none" stroke="#191970" d="M659.0732,-169.9702C689.3518,-181.5626 740.4403,-201.1222 774.4405,-214.1394"/>
<polygon fill="#191970" stroke="#191970" points="773.3829,-217.4822 783.9733,-217.7891 775.8858,-210.9449 773.3829,-217.4822"/>
</g>
<!-- Node381067&#45;&gt;Node380661 -->
<g id="edge12" class="edge">
<title>Node381067&#45;&gt;Node380661</title>
<path fill="none" stroke="#191970" d="M678.1599,-234.0997C702.989,-232.8227 734.047,-231.2255 759.6722,-229.9076"/>
<polygon fill="#191970" stroke="#191970" points="760.117,-233.3894 769.924,-229.3804 759.7574,-226.3987 760.117,-233.3894"/>
</g>
<!-- Node381067&#45;&gt;Node380697 -->
<g id="edge14" class="edge">
<title>Node381067&#45;&gt;Node380697</title>
<path fill="none" stroke="#191970" d="M669.7882,-245.9289C676.4447,-248.4735 683.1409,-251.5944 689,-255.3707 708.5547,-267.9743 706.047,-279.8793 725,-293.3707 739.0127,-303.3455 756.0626,-311.6419 771.1306,-317.9114"/>
<polygon fill="#191970" stroke="#191970" points="770.1097,-321.2726 780.6944,-321.7359 772.7089,-314.773 770.1097,-321.2726"/>
</g>
<!-- Node381067&#45;&gt;Node380829 -->
<g id="edge16" class="edge">
<title>Node381067&#45;&gt;Node380829</title>
<path fill="none" stroke="#191970" d="M678.1599,-245.9597C701.5651,-251.042 730.5053,-257.3262 755.2121,-262.6911"/>
<polygon fill="#191970" stroke="#191970" points="754.6427,-266.1489 765.1577,-264.8507 756.1281,-259.3083 754.6427,-266.1489"/>
</g>
<!-- Node381067&#45;&gt;Node380752 -->
<g id="edge13" class="edge">
<title>Node381067&#45;&gt;Node380752</title>
<path fill="none" stroke="#191970" d="M659.4465,-226.7738C689.7307,-215.3523 740.447,-196.225 774.3078,-183.4546"/>
<polygon fill="#191970" stroke="#191970" points="775.6851,-186.6759 783.8067,-179.8722 773.2149,-180.1262 775.6851,-186.6759"/>
</g>
<!-- Node381067&#45;&gt;Node380874 -->
<g id="edge15" class="edge">
<title>Node381067&#45;&gt;Node380874</title>
<path fill="none" stroke="#191970" d="M643.3836,-226.6717C659.4133,-210.3224 693.4072,-176.5942 725,-151.3707 744.1742,-136.0622 767.3361,-120.5465 784.4779,-109.5764"/>
<polygon fill="#191970" stroke="#191970" points="786.7412,-112.2861 793.3182,-103.9798 782.9969,-106.3717 786.7412,-112.2861"/>
</g>
<!-- Node380911&#45;&gt;Node380914 -->
<g id="edge20" class="edge">
<title>Node380911&#45;&gt;Node380914</title>
<path fill="none" stroke="#191970" d="M466.7459,-55.8942C498.415,-75.6765 571.5435,-121.3568 609.7535,-145.225"/>
<polygon fill="#191970" stroke="#191970" points="608.3335,-148.4647 618.6691,-150.7942 612.0421,-142.5278 608.3335,-148.4647"/>
</g>
<!-- Node380911&#45;&gt;Node380910 -->
<g id="edge21" class="edge">
<title>Node380911&#45;&gt;Node380910</title>
<path fill="none" stroke="#191970" d="M543.0173,-36.8429C551.7429,-35.9345 560.4652,-35.0264 568.8651,-34.1519"/>
<polygon fill="#191970" stroke="#191970" points="569.346,-37.6209 578.9297,-33.1041 568.621,-30.6585 569.346,-37.6209"/>
</g>
<!-- Node380865&#45;&gt;Node380631 -->
<g id="edge27" class="edge">
<title>Node380865&#45;&gt;Node380631</title>
<path fill="none" stroke="#191970" d="M670.6857,-388.3707C696.6614,-388.3707 731.7803,-388.3707 760.1301,-388.3707"/>
<polygon fill="#191970" stroke="#191970" points="760.2391,-391.8708 770.239,-388.3707 760.239,-384.8708 760.2391,-391.8708"/>
</g>
<!-- Node380865&#45;&gt;Node380697 -->
<g id="edge28" class="edge">
<title>Node380865&#45;&gt;Node380697</title>
<path fill="none" stroke="#191970" d="M663.2911,-378.8302C692.5666,-369.2948 737.7522,-354.5772 770.0393,-344.0608"/>
<polygon fill="#191970" stroke="#191970" points="771.189,-347.3674 779.6134,-340.9424 769.0211,-340.7115 771.189,-347.3674"/>
</g>
</g>
</svg>
