<?xml version="1.0" encoding="UTF-8" standalone="no"?>
<!DOCTYPE svg PUBLIC "-//W3C//DTD SVG 1.1//EN"
 "http://www.w3.org/Graphics/SVG/1.1/DTD/svg11.dtd">
<!-- Generated by graphviz version 2.40.1 (20161225.0304)
 -->
<!-- Title: js_free_shape Pages: 1 -->
<svg width="613pt" height="256pt"
 viewBox="0.00 0.00 613.00 256.00" xmlns="http://www.w3.org/2000/svg" xmlns:xlink="http://www.w3.org/1999/xlink">
<g id="graph0" class="graph" transform="scale(1 1) rotate(0) translate(4 252)">
<title>js_free_shape</title>
<!-- Node40016 -->
<g id="node1" class="node">
<title>Node40016</title>
<polygon fill="#bfbfbf" stroke="#000000" points="0,-114.5 0,-133.5 84,-133.5 84,-114.5 0,-114.5"/>
<text text-anchor="middle" x="42" y="-121.5" font-family="Helvetica,sans-Serif" font-size="10.00" fill="#000000">js_free_shape</text>
</g>
<!-- Node40017 -->
<g id="node2" class="node">
<title>Node40017</title>
<g id="a_node2"><a xlink:href="quickjs_8c.html#a6f921a6312ada5c7da7b485e24d37f54" target="_top" xlink:title="js_free_shape0">
<polygon fill="none" stroke="#000000" points="120,-114.5 120,-133.5 210,-133.5 210,-114.5 120,-114.5"/>
<text text-anchor="middle" x="165" y="-121.5" font-family="Helvetica,sans-Serif" font-size="10.00" fill="#000000">js_free_shape0</text>
</a>
</g>
</g>
<!-- Node40016&#45;&gt;Node40017 -->
<g id="edge1" class="edge">
<title>Node40016&#45;&gt;Node40017</title>
<path fill="none" stroke="#191970" d="M84.3296,-124C92.4319,-124 101.0273,-124 109.4713,-124"/>
<polygon fill="#191970" stroke="#191970" points="109.6525,-127.5001 119.6525,-124 109.6524,-120.5001 109.6525,-127.5001"/>
</g>
<!-- Node40018 -->
<g id="node3" class="node">
<title>Node40018</title>
<g id="a_node3"><a xlink:href="quickjs_8c.html#ae5e76f4be6214208cc91f10a192fc810" target="_top" xlink:title="js_shape_hash_unlink">
<polygon fill="none" stroke="#000000" points="246.5,-228.5 246.5,-247.5 369.5,-247.5 369.5,-228.5 246.5,-228.5"/>
<text text-anchor="middle" x="308" y="-235.5" font-family="Helvetica,sans-Serif" font-size="10.00" fill="#000000">js_shape_hash_unlink</text>
</a>
</g>
</g>
<!-- Node40017&#45;&gt;Node40018 -->
<g id="edge2" class="edge">
<title>Node40017&#45;&gt;Node40018</title>
<path fill="none" stroke="#191970" d="M170.5877,-133.6594C182.1665,-152.8233 210.6718,-195.8 246,-219 249.0995,-221.0354 252.4278,-222.8616 255.8746,-224.4988"/>
<polygon fill="#191970" stroke="#191970" points="254.6242,-227.7696 265.2,-228.4045 257.3284,-221.313 254.6242,-227.7696"/>
</g>
<!-- Node40020 -->
<g id="node5" class="node">
<title>Node40020</title>
<g id="a_node5"><a xlink:href="quickjs_8h.html#ab8db583fa5e7c2b1935854a42859daed" target="_top" xlink:title="JS_FreeValueRT">
<polygon fill="none" stroke="#000000" points="263,-190.5 263,-209.5 353,-209.5 353,-190.5 263,-190.5"/>
<text text-anchor="middle" x="308" y="-197.5" font-family="Helvetica,sans-Serif" font-size="10.00" fill="#000000">JS_FreeValueRT</text>
</a>
</g>
</g>
<!-- Node40017&#45;&gt;Node40020 -->
<g id="edge4" class="edge">
<title>Node40017&#45;&gt;Node40020</title>
<path fill="none" stroke="#191970" d="M177.9825,-133.5033C193.5859,-144.6444 220.8211,-163.2092 246,-176 253.6922,-179.9076 262.1783,-183.5794 270.339,-186.82"/>
<polygon fill="#191970" stroke="#191970" points="269.1121,-190.0981 279.7022,-190.4144 271.6208,-183.563 269.1121,-190.0981"/>
</g>
<!-- Node40024 -->
<g id="node7" class="node">
<title>Node40024</title>
<g id="a_node7"><a xlink:href="quickjs_8c.html#a69e19dda8a93d613203e0baa06f0ed8d" target="_top" xlink:title="js_free_rt">
<polygon fill="none" stroke="#000000" points="543,-171.5 543,-190.5 605,-190.5 605,-171.5 543,-171.5"/>
<text text-anchor="middle" x="574" y="-178.5" font-family="Helvetica,sans-Serif" font-size="10.00" fill="#000000">js_free_rt</text>
</a>
</g>
</g>
<!-- Node40017&#45;&gt;Node40024 -->
<g id="edge10" class="edge">
<title>Node40017&#45;&gt;Node40024</title>
<path fill="none" stroke="#191970" d="M201.5095,-133.5055C215.3695,-136.8653 231.3442,-140.4409 246,-143 348.2278,-160.8504 469.8917,-172.4571 532.3854,-177.7244"/>
<polygon fill="#191970" stroke="#191970" points="532.3666,-181.2348 542.6221,-178.5749 532.9462,-174.2588 532.3666,-181.2348"/>
</g>
<!-- Node40028 -->
<g id="node8" class="node">
<title>Node40028</title>
<g id="a_node8"><a xlink:href="quickjs_8c.html#a643df594b75933007bcdbb071b5ea8c5" target="_top" xlink:title="get_shape_prop">
<polygon fill="none" stroke="#000000" points="261,-114.5 261,-133.5 355,-133.5 355,-114.5 261,-114.5"/>
<text text-anchor="middle" x="308" y="-121.5" font-family="Helvetica,sans-Serif" font-size="10.00" fill="#000000">get_shape_prop</text>
</a>
</g>
</g>
<!-- Node40017&#45;&gt;Node40028 -->
<g id="edge7" class="edge">
<title>Node40017&#45;&gt;Node40028</title>
<path fill="none" stroke="#191970" d="M210.2461,-124C223.0262,-124 237.1058,-124 250.5028,-124"/>
<polygon fill="#191970" stroke="#191970" points="250.5817,-127.5001 260.5817,-124 250.5817,-120.5001 250.5817,-127.5001"/>
</g>
<!-- Node40051 -->
<g id="node9" class="node">
<title>Node40051</title>
<g id="a_node9"><a xlink:href="quickjs_8c.html#a5a0aca30abbb4d4ae86746541bf4cbc7" target="_top" xlink:title="JS_FreeAtomRT">
<polygon fill="none" stroke="#ff0000" points="263.5,-76.5 263.5,-95.5 352.5,-95.5 352.5,-76.5 263.5,-76.5"/>
<text text-anchor="middle" x="308" y="-83.5" font-family="Helvetica,sans-Serif" font-size="10.00" fill="#000000">JS_FreeAtomRT</text>
</a>
</g>
</g>
<!-- Node40017&#45;&gt;Node40051 -->
<g id="edge8" class="edge">
<title>Node40017&#45;&gt;Node40051</title>
<path fill="none" stroke="#191970" d="M201.0849,-114.411C219.6296,-109.4831 242.4265,-103.4251 262.199,-98.1709"/>
<polygon fill="#191970" stroke="#191970" points="263.1609,-101.5368 271.9266,-95.5859 261.3631,-94.7716 263.1609,-101.5368"/>
</g>
<!-- Node40032 -->
<g id="node10" class="node">
<title>Node40032</title>
<g id="a_node10"><a xlink:href="quickjs_8c.html#adfb3133f30938e2db9b525ade5fc09cf" target="_top" xlink:title="remove_gc_object">
<polygon fill="none" stroke="#ff0000" points="255,-38.5 255,-57.5 361,-57.5 361,-38.5 255,-38.5"/>
<text text-anchor="middle" x="308" y="-45.5" font-family="Helvetica,sans-Serif" font-size="10.00" fill="#000000">remove_gc_object</text>
</a>
</g>
</g>
<!-- Node40017&#45;&gt;Node40032 -->
<g id="edge9" class="edge">
<title>Node40017&#45;&gt;Node40032</title>
<path fill="none" stroke="#191970" d="M176.0787,-114.4659C191.0459,-102.0095 218.9734,-80.232 246,-67 250.5595,-64.7677 255.4365,-62.7323 260.3776,-60.8937"/>
<polygon fill="#191970" stroke="#191970" points="261.5869,-64.1789 269.892,-57.6005 259.2972,-57.564 261.5869,-64.1789"/>
</g>
<!-- Node40052 -->
<g id="node11" class="node">
<title>Node40052</title>
<g id="a_node11"><a xlink:href="quickjs_8c.html#a7da0cfa6f27af0e1b9599d7f359edbe2" target="_top" xlink:title="get_alloc_from_shape">
<polygon fill="none" stroke="#000000" points="246,-.5 246,-19.5 370,-19.5 370,-.5 246,-.5"/>
<text text-anchor="middle" x="308" y="-7.5" font-family="Helvetica,sans-Serif" font-size="10.00" fill="#000000">get_alloc_from_shape</text>
</a>
</g>
</g>
<!-- Node40017&#45;&gt;Node40052 -->
<g id="edge11" class="edge">
<title>Node40017&#45;&gt;Node40052</title>
<path fill="none" stroke="#191970" d="M170.5877,-114.3406C182.1665,-95.1767 210.6718,-52.2 246,-29 249.0995,-26.9646 252.4278,-25.1384 255.8746,-23.5012"/>
<polygon fill="#191970" stroke="#191970" points="257.3284,-26.687 265.2,-19.5955 254.6242,-20.2304 257.3284,-26.687"/>
</g>
<!-- Node40019 -->
<g id="node4" class="node">
<title>Node40019</title>
<g id="a_node4"><a xlink:href="quickjs_8c.html#a8291bf195606b5d1b0faed795b6dc3ff" target="_top" xlink:title="get_shape_hash">
<polygon fill="none" stroke="#000000" points="409,-228.5 409,-247.5 504,-247.5 504,-228.5 409,-228.5"/>
<text text-anchor="middle" x="456.5" y="-235.5" font-family="Helvetica,sans-Serif" font-size="10.00" fill="#000000">get_shape_hash</text>
</a>
</g>
</g>
<!-- Node40018&#45;&gt;Node40019 -->
<g id="edge3" class="edge">
<title>Node40018&#45;&gt;Node40019</title>
<path fill="none" stroke="#191970" d="M369.6873,-238C379.2847,-238 389.1705,-238 398.678,-238"/>
<polygon fill="#191970" stroke="#191970" points="398.8146,-241.5001 408.8146,-238 398.8146,-234.5001 398.8146,-241.5001"/>
</g>
<!-- Node40021 -->
<g id="node6" class="node">
<title>Node40021</title>
<g id="a_node6"><a xlink:href="quickjs_8c.html#ab1ea3fad7d138be12144a38be4d36423" target="_top" xlink:title="__JS_FreeValueRT">
<polygon fill="none" stroke="#ff0000" points="406,-190.5 406,-209.5 507,-209.5 507,-190.5 406,-190.5"/>
<text text-anchor="middle" x="456.5" y="-197.5" font-family="Helvetica,sans-Serif" font-size="10.00" fill="#000000">__JS_FreeValueRT</text>
</a>
</g>
</g>
<!-- Node40020&#45;&gt;Node40021 -->
<g id="edge5" class="edge">
<title>Node40020&#45;&gt;Node40021</title>
<path fill="none" stroke="#191970" d="M353.3618,-200C366.7458,-200 381.6135,-200 395.7983,-200"/>
<polygon fill="#191970" stroke="#191970" points="395.9754,-203.5001 405.9753,-200 395.9753,-196.5001 395.9754,-203.5001"/>
</g>
<!-- Node40021&#45;&gt;Node40024 -->
<g id="edge6" class="edge">
<title>Node40021&#45;&gt;Node40024</title>
<path fill="none" stroke="#191970" d="M507.0125,-191.832C515.6797,-190.4305 524.5909,-188.9896 532.9714,-187.6344"/>
<polygon fill="#191970" stroke="#191970" points="533.5653,-191.0839 542.8784,-186.0324 532.4479,-184.1737 533.5653,-191.0839"/>
</g>
<!-- Node40053 -->
<g id="node12" class="node">
<title>Node40053</title>
<g id="a_node12"><a xlink:href="quickjs_8c.html#acab22c2945c4d609e57a2484feb68a96" target="_top" xlink:title="prop_hash_end">
<polygon fill="none" stroke="#000000" points="411.5,-.5 411.5,-19.5 501.5,-19.5 501.5,-.5 411.5,-.5"/>
<text text-anchor="middle" x="456.5" y="-7.5" font-family="Helvetica,sans-Serif" font-size="10.00" fill="#000000">prop_hash_end</text>
</a>
</g>
</g>
<!-- Node40052&#45;&gt;Node40053 -->
<g id="edge12" class="edge">
<title>Node40052&#45;&gt;Node40053</title>
<path fill="none" stroke="#191970" d="M370.1169,-10C380.3808,-10 390.9626,-10 401.049,-10"/>
<polygon fill="#191970" stroke="#191970" points="401.3466,-13.5001 411.3466,-10 401.3465,-6.5001 401.3466,-13.5001"/>
</g>
</g>
</svg>
