<?xml version="1.0" encoding="UTF-8" standalone="no"?>
<!DOCTYPE svg PUBLIC "-//W3C//DTD SVG 1.1//EN"
 "http://www.w3.org/Graphics/SVG/1.1/DTD/svg11.dtd">
<!-- Generated by graphviz version 2.40.1 (20161225.0304)
 -->
<!-- Title: add_resolve_entry Pages: 1 -->
<!--zoomable 84 -->
<svg id="main" version="1.1" xmlns="http://www.w3.org/2000/svg" xmlns:xlink="http://www.w3.org/1999/xlink" xml:space="preserve" onload="init(evt)">
<style type="text/css"><![CDATA[
.edge:hover path { stroke: red; }
.edge:hover polygon { stroke: red; fill: red; }
]]></style>
<script type="text/javascript"><![CDATA[
var edges = document.getElementsByTagName('g');
if (edges && edges.length) {
  for (var i=0;i<edges.length;i++) {
    if (edges[i].id.substr(0,4)=='edge') {
      edges[i].setAttribute('class','edge');
    }
  }
}
]]></script>
        <defs>
                <circle id="rim" cx="0" cy="0" r="7"/>
                <circle id="rim2" cx="0" cy="0" r="3.5"/>
                <g id="zoomPlus">
                        <use xlink:href="#rim" fill="#404040">
                                <set attributeName="fill" to="#808080" begin="zoomplus.mouseover" end="zoomplus.mouseout"/>
                        </use>
                        <path d="M-4,0h8M0,-4v8" fill="none" stroke="white" stroke-width="1.5" pointer-events="none"/>
                </g>
                <g id="zoomMin">
                        <use xlink:href="#rim" fill="#404040">
                                <set attributeName="fill" to="#808080" begin="zoomminus.mouseover" end="zoomminus.mouseout"/>
                        </use>
                        <path d="M-4,0h8" fill="none" stroke="white" stroke-width="1.5" pointer-events="none"/>
                </g>
                <g id="dirArrow">
                        <path fill="none" stroke="white" stroke-width="1.5" d="M0,-3.0v7 M-2.5,-0.5L0,-3.0L2.5,-0.5"/>
                </g>
               <g id="resetDef">
                       <use xlink:href="#rim2" fill="#404040">
                               <set attributeName="fill" to="#808080" begin="reset.mouseover" end="reset.mouseout"/>
                       </use>
               </g>
        </defs>

<script type="text/javascript">
var viewWidth = 548;
var viewHeight = 84;
var sectionId = 'dynsection-1120';
</script>
<script xlink:href="svgpan.js"/>
<svg id="graph" class="graph">
<g id="viewport">
<title>add_resolve_entry</title>
<!-- Node337330 -->
<g id="node1" class="node">
<title>Node337330</title>
<polygon fill="#bfbfbf" stroke="#000000" points="0,-28.5 0,-47.5 107,-47.5 107,-28.5 0,-28.5"/>
<text text-anchor="middle" x="53.5" y="-35.5" font-family="Helvetica,sans-Serif" font-size="10.00" fill="#000000">add_resolve_entry</text>
</g>
<!-- Node337331 -->
<g id="node2" class="node">
<title>Node337331</title>
<g id="a_node2"><a xlink:href="quickjs_8c.html#a9796602fa908587aec571ec952dab68e" target="_top" xlink:title="js_resolve_export1">
<polygon fill="none" stroke="#000000" points="143,-28.5 143,-47.5 252,-47.5 252,-28.5 143,-28.5"/>
<text text-anchor="middle" x="197.5" y="-35.5" font-family="Helvetica,sans-Serif" font-size="10.00" fill="#000000">js_resolve_export1</text>
</a>
</g>
</g>
<!-- Node337330&#45;&gt;Node337331 -->
<g id="edge1" class="edge">
<title>Node337330&#45;&gt;Node337331</title>
<path fill="none" stroke="#191970" d="M117.3851,-38C125.8893,-38 134.5464,-38 142.8737,-38"/>
<polygon fill="#191970" stroke="#191970" points="117.1203,-34.5001 107.1203,-38 117.1203,-41.5001 117.1203,-34.5001"/>
</g>
<!-- Node337331&#45;&gt;Node337331 -->
<g id="edge2" class="edge">
<title>Node337331&#45;&gt;Node337331</title>
<path fill="none" stroke="#191970" d="M170.9941,-56.6539C172.1021,-61.9368 180.9374,-66 197.5,-66 222.7383,-66 230.0337,-56.5653 219.3863,-47.7571"/>
<polygon fill="#191970" stroke="#191970" points="174.1117,-58.2449 175.6137,-47.7571 167.8992,-55.0192 174.1117,-58.2449"/>
</g>
<!-- Node337332 -->
<g id="node3" class="node">
<title>Node337332</title>
<g id="a_node3"><a xlink:href="quickjs_8c.html#a844d3c1554247d20a0cab7287e45173a" target="_top" xlink:title="js_resolve_export">
<polygon fill="none" stroke="#000000" points="288,-28.5 288,-47.5 391,-47.5 391,-28.5 288,-28.5"/>
<text text-anchor="middle" x="339.5" y="-35.5" font-family="Helvetica,sans-Serif" font-size="10.00" fill="#000000">js_resolve_export</text>
</a>
</g>
</g>
<!-- Node337331&#45;&gt;Node337332 -->
<g id="edge3" class="edge">
<title>Node337331&#45;&gt;Node337332</title>
<path fill="none" stroke="#191970" d="M262.5362,-38C270.9166,-38 279.4086,-38 287.5408,-38"/>
<polygon fill="#191970" stroke="#191970" points="262.4009,-34.5001 252.4009,-38 262.4009,-41.5001 262.4009,-34.5001"/>
</g>
<!-- Node337333 -->
<g id="node4" class="node">
<title>Node337333</title>
<g id="a_node4"><a xlink:href="quickjs_8c.html#ad12b6863ca31850fc39d208bb865420e" target="_top" xlink:title="js_build_module_ns">
<polygon fill="none" stroke="#ff0000" points="427,-56.5 427,-75.5 540,-75.5 540,-56.5 427,-56.5"/>
<text text-anchor="middle" x="483.5" y="-63.5" font-family="Helvetica,sans-Serif" font-size="10.00" fill="#000000">js_build_module_ns</text>
</a>
</g>
</g>
<!-- Node337332&#45;&gt;Node337333 -->
<g id="edge4" class="edge">
<title>Node337332&#45;&gt;Node337333</title>
<path fill="none" stroke="#191970" d="M398.5619,-49.4843C410.5313,-51.8116 422.9941,-54.235 434.5677,-56.4854"/>
<polygon fill="#191970" stroke="#191970" points="399.1381,-46.0308 388.6539,-47.5577 397.802,-52.9021 399.1381,-46.0308"/>
</g>
<!-- Node337335 -->
<g id="node5" class="node">
<title>Node337335</title>
<g id="a_node5"><a xlink:href="quickjs_8c.html#adc0280beaa04d2b8fcaf05a82ab26c74" target="_top" xlink:title="js_link_module">
<polygon fill="none" stroke="#ff0000" points="438.5,-.5 438.5,-19.5 528.5,-19.5 528.5,-.5 438.5,-.5"/>
<text text-anchor="middle" x="483.5" y="-7.5" font-family="Helvetica,sans-Serif" font-size="10.00" fill="#000000">js_link_module</text>
</a>
</g>
</g>
<!-- Node337332&#45;&gt;Node337335 -->
<g id="edge5" class="edge">
<title>Node337332&#45;&gt;Node337335</title>
<path fill="none" stroke="#191970" d="M398.6645,-26.4958C411.9498,-23.9125 425.8376,-21.2121 438.4389,-18.7619"/>
<polygon fill="#191970" stroke="#191970" points="397.802,-23.0979 388.6539,-28.4423 399.1381,-29.9692 397.802,-23.0979"/>
</g>
<!-- Node337335&#45;&gt;Node337335 -->
<g id="edge6" class="edge">
<title>Node337335&#45;&gt;Node337335</title>
<path fill="none" stroke="#191970" d="M456.6208,-28.6539C457.7444,-33.9368 466.7041,-38 483.5,-38 509.0938,-38 516.4919,-28.5653 505.6946,-19.7571"/>
<polygon fill="#191970" stroke="#191970" points="459.7433,-30.2361 461.3054,-19.7571 453.5494,-26.9747 459.7433,-30.2361"/>
</g>
</g>
</svg>
        <g id="navigator" transform="translate(0 0)" fill="#404254">
                <rect fill="#f2f5e9" fill-opacity="0.5" stroke="#606060" stroke-width=".5" x="0" y="0" width="60" height="60"/>
                <use id="zoomplus" xlink:href="#zoomPlus" x="17" y="9" onmousedown="handleZoom(evt,'in')"/>
                <use id="zoomminus" xlink:href="#zoomMin" x="42" y="9" onmousedown="handleZoom(evt,'out')"/>
                <use id="reset" xlink:href="#resetDef" x="30" y="36" onmousedown="handleReset()"/>
                <g id="arrowUp" xlink:href="#dirArrow" transform="translate(30 24)" onmousedown="handlePan(0,-1)">
                  <use xlink:href="#rim" fill="#404040">
                        <set attributeName="fill" to="#808080" begin="arrowUp.mouseover" end="arrowUp.mouseout"/>
                  </use>
                  <path fill="none" stroke="white" stroke-width="1.5" d="M0,-3.0v7 M-2.5,-0.5L0,-3.0L2.5,-0.5"/>
                </g>
                <g id="arrowRight" xlink:href="#dirArrow" transform="rotate(90) translate(36 -43)" onmousedown="handlePan(1,0)">
                  <use xlink:href="#rim" fill="#404040">
                        <set attributeName="fill" to="#808080" begin="arrowRight.mouseover" end="arrowRight.mouseout"/>
                  </use>
                  <path fill="none" stroke="white" stroke-width="1.5" d="M0,-3.0v7 M-2.5,-0.5L0,-3.0L2.5,-0.5"/>
                </g>
                <g id="arrowDown" xlink:href="#dirArrow" transform="rotate(180) translate(-30 -48)" onmousedown="handlePan(0,1)">
                  <use xlink:href="#rim" fill="#404040">
                        <set attributeName="fill" to="#808080" begin="arrowDown.mouseover" end="arrowDown.mouseout"/>
                  </use>
                  <path fill="none" stroke="white" stroke-width="1.5" d="M0,-3.0v7 M-2.5,-0.5L0,-3.0L2.5,-0.5"/>
                </g>
                <g id="arrowLeft" xlink:href="#dirArrow" transform="rotate(270) translate(-36 17)" onmousedown="handlePan(-1,0)">
                  <use xlink:href="#rim" fill="#404040">
                        <set attributeName="fill" to="#808080" begin="arrowLeft.mouseover" end="arrowLeft.mouseout"/>
                  </use>
                  <path fill="none" stroke="white" stroke-width="1.5" d="M0,-3.0v7 M-2.5,-0.5L0,-3.0L2.5,-0.5"/>
                </g>
        </g>
        <svg viewBox="0 0 15 15" width="100%" height="30px" preserveAspectRatio="xMaxYMin meet">
         <g id="arrow_out" transform="scale(0.3 0.3)">
          <a xlink:href="quickjs_8c_ade1e452957ebf589907635cc79718d16_icgraph_org.svg" target="_base">
           <rect id="button" ry="5" rx="5" y="6" x="6" height="38" width="38"
                fill="#f2f5e9" fill-opacity="0.5" stroke="#606060" stroke-width="1.0"/>
           <path id="arrow"
             d="M 11.500037,31.436501 C 11.940474,20.09759 22.043105,11.32322 32.158766,21.979434 L 37.068811,17.246167 C 37.068811,17.246167 37.088388,32 37.088388,32 L 22.160133,31.978069 C 22.160133,31.978069 26.997745,27.140456 26.997745,27.140456 C 18.528582,18.264221 13.291696,25.230495 11.500037,31.436501 z"
             style="fill:#404040;"/>
          </a>
         </g>
        </svg>
</svg>
