<?xml version="1.0" encoding="UTF-8" standalone="no"?>
<!DOCTYPE svg PUBLIC "-//W3C//DTD SVG 1.1//EN"
 "http://www.w3.org/Graphics/SVG/1.1/DTD/svg11.dtd">
<!-- Generated by graphviz version 2.40.1 (20161225.0304)
 -->
<!-- Title: js_string_concat Pages: 1 -->
<!--zoomable 284 -->
<svg id="main" version="1.1" xmlns="http://www.w3.org/2000/svg" xmlns:xlink="http://www.w3.org/1999/xlink" xml:space="preserve" onload="init(evt)">
<style type="text/css"><![CDATA[
.edge:hover path { stroke: red; }
.edge:hover polygon { stroke: red; fill: red; }
]]></style>
<script type="text/javascript"><![CDATA[
var edges = document.getElementsByTagName('g');
if (edges && edges.length) {
  for (var i=0;i<edges.length;i++) {
    if (edges[i].id.substr(0,4)=='edge') {
      edges[i].setAttribute('class','edge');
    }
  }
}
]]></script>
        <defs>
                <circle id="rim" cx="0" cy="0" r="7"/>
                <circle id="rim2" cx="0" cy="0" r="3.5"/>
                <g id="zoomPlus">
                        <use xlink:href="#rim" fill="#404040">
                                <set attributeName="fill" to="#808080" begin="zoomplus.mouseover" end="zoomplus.mouseout"/>
                        </use>
                        <path d="M-4,0h8M0,-4v8" fill="none" stroke="white" stroke-width="1.5" pointer-events="none"/>
                </g>
                <g id="zoomMin">
                        <use xlink:href="#rim" fill="#404040">
                                <set attributeName="fill" to="#808080" begin="zoomminus.mouseover" end="zoomminus.mouseout"/>
                        </use>
                        <path d="M-4,0h8" fill="none" stroke="white" stroke-width="1.5" pointer-events="none"/>
                </g>
                <g id="dirArrow">
                        <path fill="none" stroke="white" stroke-width="1.5" d="M0,-3.0v7 M-2.5,-0.5L0,-3.0L2.5,-0.5"/>
                </g>
               <g id="resetDef">
                       <use xlink:href="#rim2" fill="#404040">
                               <set attributeName="fill" to="#808080" begin="reset.mouseover" end="reset.mouseout"/>
                       </use>
               </g>
        </defs>

<script type="text/javascript">
var viewWidth = 730;
var viewHeight = 284;
var sectionId = 'dynsection-1543';
</script>
<script xlink:href="svgpan.js"/>
<svg id="graph" class="graph">
<g id="viewport">
<title>js_string_concat</title>
<!-- Node417366 -->
<g id="node1" class="node">
<title>Node417366</title>
<polygon fill="#bfbfbf" stroke="#000000" points="0,-57.5 0,-76.5 95,-76.5 95,-57.5 0,-57.5"/>
<text text-anchor="middle" x="47.5" y="-64.5" font-family="Helvetica,sans-Serif" font-size="10.00" fill="#000000">js_string_concat</text>
</g>
<!-- Node417367 -->
<g id="node2" class="node">
<title>Node417367</title>
<g id="a_node2"><a xlink:href="quickjs_8c.html#ab6d8a1a52baf4d686aed594b996699d7" target="_top" xlink:title="JS_ConcatString">
<polygon fill="none" stroke="#000000" points="150,-114.5 150,-133.5 243,-133.5 243,-114.5 150,-114.5"/>
<text text-anchor="middle" x="196.5" y="-121.5" font-family="Helvetica,sans-Serif" font-size="10.00" fill="#000000">JS_ConcatString</text>
</a>
</g>
</g>
<!-- Node417366&#45;&gt;Node417367 -->
<g id="edge1" class="edge">
<title>Node417366&#45;&gt;Node417367</title>
<path fill="none" stroke="#191970" d="M71.1929,-76.5472C87.8743,-83.2241 110.7513,-92.2905 131,-100 140.4923,-103.6141 150.7949,-107.436 160.3583,-110.9417"/>
<polygon fill="#191970" stroke="#191970" points="159.3977,-114.3169 169.9916,-114.4586 161.7983,-107.7414 159.3977,-114.3169"/>
</g>
<!-- Node417412 -->
<g id="node9" class="node">
<title>Node417412</title>
<g id="a_node9"><a xlink:href="quickjs_8h.html#ad80a83d73e9b7d872b88fbf2943aebe9" target="_top" xlink:title="JS_IsException">
<polygon fill="none" stroke="#000000" points="317,-38.5 317,-57.5 404,-57.5 404,-38.5 317,-38.5"/>
<text text-anchor="middle" x="360.5" y="-45.5" font-family="Helvetica,sans-Serif" font-size="10.00" fill="#000000">JS_IsException</text>
</a>
</g>
</g>
<!-- Node417366&#45;&gt;Node417412 -->
<g id="edge15" class="edge">
<title>Node417366&#45;&gt;Node417412</title>
<path fill="none" stroke="#191970" d="M95.3327,-69.5983C138.8846,-71.3475 204.9111,-72.4557 262,-67 277.9283,-65.4778 295.1105,-62.601 310.5949,-59.538"/>
<polygon fill="#191970" stroke="#191970" points="311.4006,-62.9457 320.4951,-57.5106 309.9962,-56.088 311.4006,-62.9457"/>
</g>
<!-- Node417422 -->
<g id="node14" class="node">
<title>Node417422</title>
<g id="a_node14"><a xlink:href="quickjs_8h.html#a775522f2d084fc8fa0fcb33f390006b4" target="_top" xlink:title="JS_DupValue">
<polygon fill="none" stroke="#000000" points="158,-38.5 158,-57.5 235,-57.5 235,-38.5 158,-38.5"/>
<text text-anchor="middle" x="196.5" y="-45.5" font-family="Helvetica,sans-Serif" font-size="10.00" fill="#000000">JS_DupValue</text>
</a>
</g>
</g>
<!-- Node417366&#45;&gt;Node417422 -->
<g id="edge14" class="edge">
<title>Node417366&#45;&gt;Node417422</title>
<path fill="none" stroke="#191970" d="M95.0542,-60.936C111.8402,-58.7955 130.7355,-56.3861 147.6287,-54.2319"/>
<polygon fill="#191970" stroke="#191970" points="148.3748,-57.6652 157.8517,-52.9283 147.4892,-50.7214 148.3748,-57.6652"/>
</g>
<!-- Node417644 -->
<g id="node15" class="node">
<title>Node417644</title>
<g id="a_node15"><a xlink:href="quickjs_8c.html#a4d1d0760c9f9efcb8c0a8db414e46c8a" target="_top" xlink:title="JS_ToStringCheckObject">
<polygon fill="none" stroke="#000000" points="131,-.5 131,-19.5 262,-19.5 262,-.5 131,-.5"/>
<text text-anchor="middle" x="196.5" y="-7.5" font-family="Helvetica,sans-Serif" font-size="10.00" fill="#000000">JS_ToStringCheckObject</text>
</a>
</g>
</g>
<!-- Node417366&#45;&gt;Node417644 -->
<g id="edge16" class="edge">
<title>Node417366&#45;&gt;Node417644</title>
<path fill="none" stroke="#191970" d="M66.4052,-57.4441C83.1175,-49.2281 108.2978,-37.4081 131,-29 137.2664,-26.6791 143.9532,-24.4581 150.5706,-22.4058"/>
<polygon fill="#191970" stroke="#191970" points="151.5876,-25.7549 160.1591,-19.5275 149.575,-19.0504 151.5876,-25.7549"/>
</g>
<!-- Node417368 -->
<g id="node3" class="node">
<title>Node417368</title>
<g id="a_node3"><a xlink:href="quickjs_8c.html#aa864584f81729321ec9d527d6362c633" target="_top" xlink:title="JS_ConcatString1">
<polygon fill="none" stroke="#000000" points="311,-209.5 311,-228.5 410,-228.5 410,-209.5 311,-209.5"/>
<text text-anchor="middle" x="360.5" y="-216.5" font-family="Helvetica,sans-Serif" font-size="10.00" fill="#000000">JS_ConcatString1</text>
</a>
</g>
</g>
<!-- Node417367&#45;&gt;Node417368 -->
<g id="edge2" class="edge">
<title>Node417367&#45;&gt;Node417368</title>
<path fill="none" stroke="#191970" d="M213.1277,-133.6319C241.8595,-150.2753 300.9767,-184.52 334.9568,-204.2037"/>
<polygon fill="#191970" stroke="#191970" points="333.4208,-207.3587 343.8283,-209.3426 336.9296,-201.3015 333.4208,-207.3587"/>
</g>
<!-- Node417374 -->
<g id="node7" class="node">
<title>Node417374</title>
<g id="a_node7"><a xlink:href="quickjs_8h.html#afaa20c47565bc704c6c85f3d77254e7d" target="_top" xlink:title="JS_FreeValue">
<polygon fill="none" stroke="#000000" points="489,-90.5 489,-109.5 567,-109.5 567,-90.5 489,-90.5"/>
<text text-anchor="middle" x="528" y="-97.5" font-family="Helvetica,sans-Serif" font-size="10.00" fill="#000000">JS_FreeValue</text>
</a>
</g>
</g>
<!-- Node417367&#45;&gt;Node417374 -->
<g id="edge6" class="edge">
<title>Node417367&#45;&gt;Node417374</title>
<path fill="none" stroke="#191970" d="M243.2928,-120.6123C305.5073,-116.1081 414.9815,-108.1823 478.5224,-103.5821"/>
<polygon fill="#191970" stroke="#191970" points="478.9702,-107.0589 488.6913,-102.8459 478.4646,-100.0772 478.9702,-107.0589"/>
</g>
<!-- Node417367&#45;&gt;Node417412 -->
<g id="edge8" class="edge">
<title>Node417367&#45;&gt;Node417412</title>
<path fill="none" stroke="#191970" d="M230.3081,-114.4398C240.8599,-110.7248 252.2744,-105.9172 262,-100 280.5428,-88.7183 279.1481,-77.7572 298,-67 301.8724,-64.7904 306.0293,-62.8113 310.292,-61.0441"/>
<polygon fill="#191970" stroke="#191970" points="311.5897,-64.2956 319.7237,-57.5066 309.1315,-57.7414 311.5897,-64.2956"/>
</g>
<!-- Node417413 -->
<g id="node10" class="node">
<title>Node417413</title>
<g id="a_node10"><a xlink:href="quickjs_8c.html#ade5954b108a45072dff068d11f1c6d10" target="_top" xlink:title="js_malloc_usable_size">
<polygon fill="none" stroke="#000000" points="298,-152.5 298,-171.5 423,-171.5 423,-152.5 298,-152.5"/>
<text text-anchor="middle" x="360.5" y="-159.5" font-family="Helvetica,sans-Serif" font-size="10.00" fill="#000000">js_malloc_usable_size</text>
</a>
</g>
</g>
<!-- Node417367&#45;&gt;Node417413 -->
<g id="edge9" class="edge">
<title>Node417367&#45;&gt;Node417413</title>
<path fill="none" stroke="#191970" d="M237.8841,-133.589C259.6232,-138.6261 286.4575,-144.8438 309.4747,-150.1771"/>
<polygon fill="#191970" stroke="#191970" points="308.8815,-153.6323 319.4135,-152.4799 310.4616,-146.8129 308.8815,-153.6323"/>
</g>
<!-- Node417415 -->
<g id="node12" class="node">
<title>Node417415</title>
<g id="a_node12"><a xlink:href="quickjs_8c.html#a38cad713b74c445668210ea8614bfb65" target="_top" xlink:title="JS_ToStringFree">
<polygon fill="none" stroke="#000000" points="315.5,-76.5 315.5,-95.5 405.5,-95.5 405.5,-76.5 315.5,-76.5"/>
<text text-anchor="middle" x="360.5" y="-83.5" font-family="Helvetica,sans-Serif" font-size="10.00" fill="#000000">JS_ToStringFree</text>
</a>
</g>
</g>
<!-- Node417367&#45;&gt;Node417415 -->
<g id="edge11" class="edge">
<title>Node417367&#45;&gt;Node417415</title>
<path fill="none" stroke="#191970" d="M237.8841,-114.411C259.6232,-109.3739 286.4575,-103.1562 309.4747,-97.8229"/>
<polygon fill="#191970" stroke="#191970" points="310.4616,-101.1871 319.4135,-95.5201 308.8815,-94.3677 310.4616,-101.1871"/>
</g>
<!-- Node417369 -->
<g id="node4" class="node">
<title>Node417369</title>
<g id="a_node4"><a xlink:href="quickjs_8c.html#a853f0924d441ea4225488f37c8b69f9a" target="_top" xlink:title="__attribute__">
<polygon fill="none" stroke="#000000" points="488,-256.5 488,-275.5 568,-275.5 568,-256.5 488,-256.5"/>
<text text-anchor="middle" x="528" y="-263.5" font-family="Helvetica,sans-Serif" font-size="10.00" fill="#000000">__attribute__</text>
</a>
</g>
</g>
<!-- Node417368&#45;&gt;Node417369 -->
<g id="edge3" class="edge">
<title>Node417368&#45;&gt;Node417369</title>
<path fill="none" stroke="#191970" d="M393.764,-228.5295C412.8452,-233.9775 437.2568,-240.9161 459,-247 466.9112,-249.2136 475.3385,-251.5512 483.4876,-253.801"/>
<polygon fill="#191970" stroke="#191970" points="482.6658,-257.205 493.2363,-256.4876 484.5256,-250.4565 482.6658,-257.205"/>
</g>
<!-- Node417370 -->
<g id="node5" class="node">
<title>Node417370</title>
<g id="a_node5"><a xlink:href="quickjs_8c.html#a17da89ffe34d5b094b306c7668990cb1" target="_top" xlink:title="copy_str16">
<polygon fill="none" stroke="#000000" points="493,-218.5 493,-237.5 563,-237.5 563,-218.5 493,-218.5"/>
<text text-anchor="middle" x="528" y="-225.5" font-family="Helvetica,sans-Serif" font-size="10.00" fill="#000000">copy_str16</text>
</a>
</g>
</g>
<!-- Node417368&#45;&gt;Node417370 -->
<g id="edge4" class="edge">
<title>Node417368&#45;&gt;Node417370</title>
<path fill="none" stroke="#191970" d="M410.302,-221.6759C433.279,-222.9105 460.3597,-224.3656 482.7487,-225.5686"/>
<polygon fill="#191970" stroke="#191970" points="482.8246,-229.0776 492.9981,-226.1193 483.2003,-222.0877 482.8246,-229.0776"/>
</g>
<!-- Node417371 -->
<g id="node6" class="node">
<title>Node417371</title>
<g id="a_node6"><a xlink:href="quickjs_8c.html#ad303a9bc56766627b5fca41574933930" target="_top" xlink:title="js_alloc_string">
<polygon fill="none" stroke="#ff0000" points="485,-180.5 485,-199.5 571,-199.5 571,-180.5 485,-180.5"/>
<text text-anchor="middle" x="528" y="-187.5" font-family="Helvetica,sans-Serif" font-size="10.00" fill="#000000">js_alloc_string</text>
</a>
</g>
</g>
<!-- Node417368&#45;&gt;Node417371 -->
<g id="edge5" class="edge">
<title>Node417368&#45;&gt;Node417371</title>
<path fill="none" stroke="#191970" d="M410.302,-210.3776C430.6889,-206.8479 454.3063,-202.7589 475.0108,-199.1742"/>
<polygon fill="#191970" stroke="#191970" points="475.6576,-202.6144 484.9139,-197.4597 474.4634,-195.717 475.6576,-202.6144"/>
</g>
<!-- Node417375 -->
<g id="node8" class="node">
<title>Node417375</title>
<g id="a_node8"><a xlink:href="quickjs_8c.html#aa059f309c30fd5166d16c82a97973146" target="_top" xlink:title="__JS_FreeValue">
<polygon fill="none" stroke="#ff0000" points="633,-90.5 633,-109.5 722,-109.5 722,-90.5 633,-90.5"/>
<text text-anchor="middle" x="677.5" y="-97.5" font-family="Helvetica,sans-Serif" font-size="10.00" fill="#000000">__JS_FreeValue</text>
</a>
</g>
</g>
<!-- Node417374&#45;&gt;Node417375 -->
<g id="edge7" class="edge">
<title>Node417374&#45;&gt;Node417375</title>
<path fill="none" stroke="#191970" d="M567.2794,-100C584.2871,-100 604.4842,-100 622.9139,-100"/>
<polygon fill="#191970" stroke="#191970" points="622.9393,-103.5001 632.9393,-100 622.9392,-96.5001 622.9393,-103.5001"/>
</g>
<!-- Node417414 -->
<g id="node11" class="node">
<title>Node417414</title>
<g id="a_node11"><a xlink:href="quickjs_8c.html#a9a3248be6328b083907b3655ec93777b" target="_top" xlink:title="js_malloc_usable_size_rt">
<polygon fill="none" stroke="#000000" points="459,-142.5 459,-161.5 597,-161.5 597,-142.5 459,-142.5"/>
<text text-anchor="middle" x="528" y="-149.5" font-family="Helvetica,sans-Serif" font-size="10.00" fill="#000000">js_malloc_usable_size_rt</text>
</a>
</g>
</g>
<!-- Node417413&#45;&gt;Node417414 -->
<g id="edge10" class="edge">
<title>Node417413&#45;&gt;Node417414</title>
<path fill="none" stroke="#191970" d="M423.3474,-158.2479C431.6875,-157.75 440.3232,-157.2344 448.8937,-156.7228"/>
<polygon fill="#191970" stroke="#191970" points="449.1297,-160.215 458.9033,-156.1252 448.7125,-153.2274 449.1297,-160.215"/>
</g>
<!-- Node417415&#45;&gt;Node417374 -->
<g id="edge12" class="edge">
<title>Node417415&#45;&gt;Node417374</title>
<path fill="none" stroke="#191970" d="M405.8279,-89.7886C428.3449,-91.6706 455.5927,-93.948 478.6371,-95.8741"/>
<polygon fill="#191970" stroke="#191970" points="478.6404,-99.3865 488.8972,-96.7317 479.2235,-92.4109 478.6404,-99.3865"/>
</g>
<!-- Node417416 -->
<g id="node13" class="node">
<title>Node417416</title>
<g id="a_node13"><a xlink:href="quickjs_8c.html#a7bcb8e1a20cbc8374a5f9ba4a2088cec" target="_top" xlink:title="JS_ToString">
<polygon fill="none" stroke="#ff0000" points="493,-19.5 493,-38.5 563,-38.5 563,-19.5 493,-19.5"/>
<text text-anchor="middle" x="528" y="-26.5" font-family="Helvetica,sans-Serif" font-size="10.00" fill="#000000">JS_ToString</text>
</a>
</g>
</g>
<!-- Node417415&#45;&gt;Node417416 -->
<g id="edge13" class="edge">
<title>Node417415&#45;&gt;Node417416</title>
<path fill="none" stroke="#191970" d="M393.0405,-76.4583C402.7151,-73.5271 413.315,-70.2222 423,-67 446.5541,-59.1635 472.8147,-49.6594 493.1815,-42.1165"/>
<polygon fill="#191970" stroke="#191970" points="494.5165,-45.3543 502.6686,-38.5871 492.0757,-38.7936 494.5165,-45.3543"/>
</g>
<!-- Node417644&#45;&gt;Node417416 -->
<g id="edge17" class="edge">
<title>Node417644&#45;&gt;Node417416</title>
<path fill="none" stroke="#191970" d="M262.3901,-13.7765C327.6264,-17.5155 425.7659,-23.1404 482.6972,-26.4035"/>
<polygon fill="#191970" stroke="#191970" points="482.6469,-29.9062 492.8308,-26.9843 483.0475,-22.9177 482.6469,-29.9062"/>
</g>
</g>
</svg>
        <g id="navigator" transform="translate(0 0)" fill="#404254">
                <rect fill="#f2f5e9" fill-opacity="0.5" stroke="#606060" stroke-width=".5" x="0" y="0" width="60" height="60"/>
                <use id="zoomplus" xlink:href="#zoomPlus" x="17" y="9" onmousedown="handleZoom(evt,'in')"/>
                <use id="zoomminus" xlink:href="#zoomMin" x="42" y="9" onmousedown="handleZoom(evt,'out')"/>
                <use id="reset" xlink:href="#resetDef" x="30" y="36" onmousedown="handleReset()"/>
                <g id="arrowUp" xlink:href="#dirArrow" transform="translate(30 24)" onmousedown="handlePan(0,-1)">
                  <use xlink:href="#rim" fill="#404040">
                        <set attributeName="fill" to="#808080" begin="arrowUp.mouseover" end="arrowUp.mouseout"/>
                  </use>
                  <path fill="none" stroke="white" stroke-width="1.5" d="M0,-3.0v7 M-2.5,-0.5L0,-3.0L2.5,-0.5"/>
                </g>
                <g id="arrowRight" xlink:href="#dirArrow" transform="rotate(90) translate(36 -43)" onmousedown="handlePan(1,0)">
                  <use xlink:href="#rim" fill="#404040">
                        <set attributeName="fill" to="#808080" begin="arrowRight.mouseover" end="arrowRight.mouseout"/>
                  </use>
                  <path fill="none" stroke="white" stroke-width="1.5" d="M0,-3.0v7 M-2.5,-0.5L0,-3.0L2.5,-0.5"/>
                </g>
                <g id="arrowDown" xlink:href="#dirArrow" transform="rotate(180) translate(-30 -48)" onmousedown="handlePan(0,1)">
                  <use xlink:href="#rim" fill="#404040">
                        <set attributeName="fill" to="#808080" begin="arrowDown.mouseover" end="arrowDown.mouseout"/>
                  </use>
                  <path fill="none" stroke="white" stroke-width="1.5" d="M0,-3.0v7 M-2.5,-0.5L0,-3.0L2.5,-0.5"/>
                </g>
                <g id="arrowLeft" xlink:href="#dirArrow" transform="rotate(270) translate(-36 17)" onmousedown="handlePan(-1,0)">
                  <use xlink:href="#rim" fill="#404040">
                        <set attributeName="fill" to="#808080" begin="arrowLeft.mouseover" end="arrowLeft.mouseout"/>
                  </use>
                  <path fill="none" stroke="white" stroke-width="1.5" d="M0,-3.0v7 M-2.5,-0.5L0,-3.0L2.5,-0.5"/>
                </g>
        </g>
        <svg viewBox="0 0 15 15" width="100%" height="30px" preserveAspectRatio="xMaxYMin meet">
         <g id="arrow_out" transform="scale(0.3 0.3)">
          <a xlink:href="quickjs_8c_ad15d899d5566569437570ab09c3f1f33_cgraph_org.svg" target="_base">
           <rect id="button" ry="5" rx="5" y="6" x="6" height="38" width="38"
                fill="#f2f5e9" fill-opacity="0.5" stroke="#606060" stroke-width="1.0"/>
           <path id="arrow"
             d="M 11.500037,31.436501 C 11.940474,20.09759 22.043105,11.32322 32.158766,21.979434 L 37.068811,17.246167 C 37.068811,17.246167 37.088388,32 37.088388,32 L 22.160133,31.978069 C 22.160133,31.978069 26.997745,27.140456 26.997745,27.140456 C 18.528582,18.264221 13.291696,25.230495 11.500037,31.436501 z"
             style="fill:#404040;"/>
          </a>
         </g>
        </svg>
</svg>
