<?xml version="1.0" encoding="UTF-8" standalone="no"?>
<!DOCTYPE svg PUBLIC "-//W3C//DTD SVG 1.1//EN"
 "http://www.w3.org/Graphics/SVG/1.1/DTD/svg11.dtd">
<!-- Generated by graphviz version 2.40.1 (20161225.0304)
 -->
<!-- Title: js_std_file_read_write Pages: 1 -->
<svg width="635pt" height="217pt"
 viewBox="0.00 0.00 635.00 216.50" xmlns="http://www.w3.org/2000/svg" xmlns:xlink="http://www.w3.org/1999/xlink">
<g id="graph0" class="graph" transform="scale(1 1) rotate(0) translate(4 212.5)">
<title>js_std_file_read_write</title>
<!-- Node10852 -->
<g id="node1" class="node">
<title>Node10852</title>
<polygon fill="#bfbfbf" stroke="#000000" points="0,-76.5 0,-95.5 122,-95.5 122,-76.5 0,-76.5"/>
<text text-anchor="middle" x="61" y="-83.5" font-family="Helvetica,sans-Serif" font-size="10.00" fill="#000000">js_std_file_read_write</text>
</g>
<!-- Node10853 -->
<g id="node2" class="node">
<title>Node10853</title>
<g id="a_node2"><a xlink:href="quickjs_8c.html#ab9dd8240188c470b7c9733ff1ac12726" target="_top" xlink:title="JS_GetArrayBuffer">
<polygon fill="none" stroke="#000000" points="158,-139.5 158,-158.5 262,-158.5 262,-139.5 158,-139.5"/>
<text text-anchor="middle" x="210" y="-146.5" font-family="Helvetica,sans-Serif" font-size="10.00" fill="#000000">JS_GetArrayBuffer</text>
</a>
</g>
</g>
<!-- Node10852&#45;&gt;Node10853 -->
<g id="edge1" class="edge">
<title>Node10852&#45;&gt;Node10853</title>
<path fill="none" stroke="#191970" d="M83.6299,-95.5683C108.6815,-106.1606 149.2674,-123.3211 177.6659,-135.3286"/>
<polygon fill="#191970" stroke="#191970" points="176.5836,-138.6709 187.1571,-139.3416 179.3097,-132.2235 176.5836,-138.6709"/>
</g>
<!-- Node10857 -->
<g id="node6" class="node">
<title>Node10857</title>
<g id="a_node6"><a xlink:href="quickjs_8h.html#a6acbc709e59969eac6775f9b253b438f" target="_top" xlink:title="JS_NewInt64">
<polygon fill="none" stroke="#000000" points="171.5,-95.5 171.5,-114.5 248.5,-114.5 248.5,-95.5 171.5,-95.5"/>
<text text-anchor="middle" x="210" y="-102.5" font-family="Helvetica,sans-Serif" font-size="10.00" fill="#000000">JS_NewInt64</text>
</a>
</g>
</g>
<!-- Node10852&#45;&gt;Node10857 -->
<g id="edge5" class="edge">
<title>Node10852&#45;&gt;Node10857</title>
<path fill="none" stroke="#191970" d="M122.0339,-93.7828C135.0937,-95.4482 148.7246,-97.1864 161.2485,-98.7834"/>
<polygon fill="#191970" stroke="#191970" points="161.1089,-102.2938 171.4714,-100.087 161.9945,-95.3501 161.1089,-102.2938"/>
</g>
<!-- Node10860 -->
<g id="node9" class="node">
<title>Node10860</title>
<g id="a_node9"><a xlink:href="quickjs-libc_8c.html#ae0b015235e2737bee13533c992f0b71b" target="_top" xlink:title="js_std_file_get">
<polygon fill="none" stroke="#000000" points="167,-57.5 167,-76.5 253,-76.5 253,-57.5 167,-57.5"/>
<text text-anchor="middle" x="210" y="-64.5" font-family="Helvetica,sans-Serif" font-size="10.00" fill="#000000">js_std_file_get</text>
</a>
</g>
</g>
<!-- Node10852&#45;&gt;Node10860 -->
<g id="edge8" class="edge">
<title>Node10852&#45;&gt;Node10860</title>
<path fill="none" stroke="#191970" d="M122.0339,-78.2172C133.4788,-76.7577 145.3623,-75.2424 156.555,-73.8151"/>
<polygon fill="#191970" stroke="#191970" points="157.1305,-77.2702 166.6074,-72.5333 156.245,-70.3264 157.1305,-77.2702"/>
</g>
<!-- Node10861 -->
<g id="node10" class="node">
<title>Node10861</title>
<g id="a_node10"><a xlink:href="quickjs_8c.html#ad52f50dfe0e0e4aeae7003b97c4c0765" target="_top" xlink:title="JS_ToIndex">
<polygon fill="none" stroke="#000000" points="176,-19.5 176,-38.5 244,-38.5 244,-19.5 176,-19.5"/>
<text text-anchor="middle" x="210" y="-26.5" font-family="Helvetica,sans-Serif" font-size="10.00" fill="#000000">JS_ToIndex</text>
</a>
</g>
</g>
<!-- Node10852&#45;&gt;Node10861 -->
<g id="edge9" class="edge">
<title>Node10852&#45;&gt;Node10861</title>
<path fill="none" stroke="#191970" d="M84.8585,-76.4764C104.4569,-68.6959 132.9655,-57.4758 158,-48 163.1688,-46.0436 168.639,-44.0075 174.0145,-42.0262"/>
<polygon fill="#191970" stroke="#191970" points="175.3181,-45.2761 183.5025,-38.5481 172.9088,-38.7038 175.3181,-45.2761"/>
</g>
<!-- Node10854 -->
<g id="node3" class="node">
<title>Node10854</title>
<g id="a_node3"><a xlink:href="quickjs_8c.html#a97c02025a1b40d1d8f9612874b071a74" target="_top" xlink:title="js_get_array_buffer">
<polygon fill="none" stroke="#000000" points="319.5,-183.5 319.5,-202.5 429.5,-202.5 429.5,-183.5 319.5,-183.5"/>
<text text-anchor="middle" x="374.5" y="-190.5" font-family="Helvetica,sans-Serif" font-size="10.00" fill="#000000">js_get_array_buffer</text>
</a>
</g>
</g>
<!-- Node10853&#45;&gt;Node10854 -->
<g id="edge2" class="edge">
<title>Node10853&#45;&gt;Node10854</title>
<path fill="none" stroke="#191970" d="M242.5258,-158.5201C259.0953,-163.2986 279.5824,-169.0982 298,-174 306.8376,-176.3521 316.2743,-178.771 325.395,-181.0615"/>
<polygon fill="#191970" stroke="#191970" points="324.575,-184.4641 335.1247,-183.4872 326.2685,-177.672 324.575,-184.4641"/>
</g>
<!-- Node10856 -->
<g id="node5" class="node">
<title>Node10856</title>
<g id="a_node5"><a xlink:href="quickjs_8c.html#a033dd3ebd29c4eb9f0baff1dd0fec0b1" target="_top" xlink:title="JS_ThrowTypeErrorDetached\lArrayBuffer">
<polygon fill="none" stroke="#000000" points="298,-134 298,-164 451,-164 451,-134 298,-134"/>
<text text-anchor="start" x="306" y="-152" font-family="Helvetica,sans-Serif" font-size="10.00" fill="#000000">JS_ThrowTypeErrorDetached</text>
<text text-anchor="middle" x="374.5" y="-141" font-family="Helvetica,sans-Serif" font-size="10.00" fill="#000000">ArrayBuffer</text>
</a>
</g>
</g>
<!-- Node10853&#45;&gt;Node10856 -->
<g id="edge4" class="edge">
<title>Node10853&#45;&gt;Node10856</title>
<path fill="none" stroke="#191970" d="M262.0488,-149C270.235,-149 278.8847,-149 287.6042,-149"/>
<polygon fill="#191970" stroke="#191970" points="287.8487,-152.5001 297.8486,-149 287.8486,-145.5001 287.8487,-152.5001"/>
</g>
<!-- Node10855 -->
<g id="node4" class="node">
<title>Node10855</title>
<g id="a_node4"><a xlink:href="quickjs_8c.html#ab0f713d7a2440dbb2673810323a9a78d" target="_top" xlink:title="JS_ThrowTypeErrorInvalid\lClass">
<polygon fill="none" stroke="#000000" points="487,-178 487,-208 627,-208 627,-178 487,-178"/>
<text text-anchor="start" x="495" y="-196" font-family="Helvetica,sans-Serif" font-size="10.00" fill="#000000">JS_ThrowTypeErrorInvalid</text>
<text text-anchor="middle" x="557" y="-185" font-family="Helvetica,sans-Serif" font-size="10.00" fill="#000000">Class</text>
</a>
</g>
</g>
<!-- Node10854&#45;&gt;Node10855 -->
<g id="edge3" class="edge">
<title>Node10854&#45;&gt;Node10855</title>
<path fill="none" stroke="#191970" d="M429.7513,-193C444.4675,-193 460.6714,-193 476.4433,-193"/>
<polygon fill="#191970" stroke="#191970" points="476.7253,-196.5001 486.7252,-193 476.7252,-189.5001 476.7253,-196.5001"/>
</g>
<!-- Node10858 -->
<g id="node7" class="node">
<title>Node10858</title>
<g id="a_node7"><a xlink:href="quickjs_8h.html#a2050bc428da1c65ac7eb87c3fa3b0392" target="_top" xlink:title="JS_NewInt32">
<polygon fill="none" stroke="#000000" points="336,-95.5 336,-114.5 413,-114.5 413,-95.5 336,-95.5"/>
<text text-anchor="middle" x="374.5" y="-102.5" font-family="Helvetica,sans-Serif" font-size="10.00" fill="#000000">JS_NewInt32</text>
</a>
</g>
</g>
<!-- Node10857&#45;&gt;Node10858 -->
<g id="edge6" class="edge">
<title>Node10857&#45;&gt;Node10858</title>
<path fill="none" stroke="#191970" d="M248.5679,-105C271.5847,-105 301.0307,-105 325.6609,-105"/>
<polygon fill="#191970" stroke="#191970" points="325.8891,-108.5001 335.889,-105 325.889,-101.5001 325.8891,-108.5001"/>
</g>
<!-- Node10859 -->
<g id="node8" class="node">
<title>Node10859</title>
<g id="a_node8"><a xlink:href="quickjs_8h.html#a9bf98b18de88b4199910a43e933eb97d" target="_top" xlink:title="__JS_NewFloat64">
<polygon fill="none" stroke="#000000" points="325,-57.5 325,-76.5 424,-76.5 424,-57.5 325,-57.5"/>
<text text-anchor="middle" x="374.5" y="-64.5" font-family="Helvetica,sans-Serif" font-size="10.00" fill="#000000">__JS_NewFloat64</text>
</a>
</g>
</g>
<!-- Node10857&#45;&gt;Node10859 -->
<g id="edge7" class="edge">
<title>Node10857&#45;&gt;Node10859</title>
<path fill="none" stroke="#191970" d="M248.5679,-96.0907C270.8369,-90.9465 299.124,-84.4121 323.2452,-78.84"/>
<polygon fill="#191970" stroke="#191970" points="324.3425,-82.1788 333.2981,-76.5178 322.7669,-75.3584 324.3425,-82.1788"/>
</g>
<!-- Node10862 -->
<g id="node11" class="node">
<title>Node10862</title>
<g id="a_node11"><a xlink:href="quickjs_8c.html#aee6a60a9e9f3c0d9827d5cb0e15c23b4" target="_top" xlink:title="JS_ToInt64Sat">
<polygon fill="none" stroke="#000000" points="333.5,-19.5 333.5,-38.5 415.5,-38.5 415.5,-19.5 333.5,-19.5"/>
<text text-anchor="middle" x="374.5" y="-26.5" font-family="Helvetica,sans-Serif" font-size="10.00" fill="#000000">JS_ToInt64Sat</text>
</a>
</g>
</g>
<!-- Node10861&#45;&gt;Node10862 -->
<g id="edge10" class="edge">
<title>Node10861&#45;&gt;Node10862</title>
<path fill="none" stroke="#191970" d="M244.0845,-29C266.9129,-29 297.3845,-29 323.1325,-29"/>
<polygon fill="#191970" stroke="#191970" points="323.4736,-32.5001 333.4736,-29 323.4736,-25.5001 323.4736,-32.5001"/>
</g>
<!-- Node10863 -->
<g id="node12" class="node">
<title>Node10863</title>
<g id="a_node12"><a xlink:href="quickjs_8c.html#a8c94da482e7e46bf333be67ff97e58c1" target="_top" xlink:title="JS_ToInt64SatFree">
<polygon fill="none" stroke="#ff0000" points="506,-38.5 506,-57.5 608,-57.5 608,-38.5 506,-38.5"/>
<text text-anchor="middle" x="557" y="-45.5" font-family="Helvetica,sans-Serif" font-size="10.00" fill="#000000">JS_ToInt64SatFree</text>
</a>
</g>
</g>
<!-- Node10862&#45;&gt;Node10863 -->
<g id="edge11" class="edge">
<title>Node10862&#45;&gt;Node10863</title>
<path fill="none" stroke="#191970" d="M415.9121,-33.3114C439.494,-35.7665 469.4818,-38.8885 495.7413,-41.6224"/>
<polygon fill="#191970" stroke="#191970" points="495.6691,-45.1337 505.9778,-42.6881 496.394,-38.1713 495.6691,-45.1337"/>
</g>
<!-- Node10897 -->
<g id="node13" class="node">
<title>Node10897</title>
<g id="a_node13"><a xlink:href="quickjs_8h.html#a775522f2d084fc8fa0fcb33f390006b4" target="_top" xlink:title="JS_DupValue">
<polygon fill="none" stroke="#000000" points="518.5,-.5 518.5,-19.5 595.5,-19.5 595.5,-.5 518.5,-.5"/>
<text text-anchor="middle" x="557" y="-7.5" font-family="Helvetica,sans-Serif" font-size="10.00" fill="#000000">JS_DupValue</text>
</a>
</g>
</g>
<!-- Node10862&#45;&gt;Node10897 -->
<g id="edge12" class="edge">
<title>Node10862&#45;&gt;Node10897</title>
<path fill="none" stroke="#191970" d="M415.9121,-24.6886C443.2619,-21.8412 479.2282,-18.0968 508.0016,-15.1012"/>
<polygon fill="#191970" stroke="#191970" points="508.6638,-18.5513 518.2476,-14.0345 507.9389,-11.5889 508.6638,-18.5513"/>
</g>
</g>
</svg>
