<?xml version="1.0" encoding="UTF-8" standalone="no"?>
<!DOCTYPE svg PUBLIC "-//W3C//DTD SVG 1.1//EN"
 "http://www.w3.org/Graphics/SVG/1.1/DTD/svg11.dtd">
<!-- Generated by graphviz version 2.40.1 (20161225.0304)
 -->
<!-- Title: js_std_init_handlers Pages: 1 -->
<svg width="456pt" height="66pt"
 viewBox="0.00 0.00 456.00 66.00" xmlns="http://www.w3.org/2000/svg" xmlns:xlink="http://www.w3.org/1999/xlink">
<g id="graph0" class="graph" transform="scale(1 1) rotate(0) translate(4 62)">
<title>js_std_init_handlers</title>
<!-- Node32320 -->
<g id="node1" class="node">
<title>Node32320</title>
<polygon fill="#bfbfbf" stroke="#000000" points="0,-19.5 0,-38.5 113,-38.5 113,-19.5 0,-19.5"/>
<text text-anchor="middle" x="56.5" y="-26.5" font-family="Helvetica,sans-Serif" font-size="10.00" fill="#000000">js_std_init_handlers</text>
</g>
<!-- Node32321 -->
<g id="node2" class="node">
<title>Node32321</title>
<g id="a_node2"><a xlink:href="qjs_8cpp.html#a3c04138a5bfe5d72780bb7e82a18e627" target="_top" xlink:title="main">
<polygon fill="none" stroke="#000000" points="167,-38.5 167,-57.5 208,-57.5 208,-38.5 167,-38.5"/>
<text text-anchor="middle" x="187.5" y="-45.5" font-family="Helvetica,sans-Serif" font-size="10.00" fill="#000000">main</text>
</a>
</g>
</g>
<!-- Node32320&#45;&gt;Node32321 -->
<g id="edge1" class="edge">
<title>Node32320&#45;&gt;Node32321</title>
<path fill="none" stroke="#191970" d="M123.0937,-38.6586C139.0252,-40.9693 154.8704,-43.2675 166.8578,-45.0061"/>
<polygon fill="#191970" stroke="#191970" points="123.5955,-35.1949 113.1966,-37.2232 122.5906,-42.1224 123.5955,-35.1949"/>
</g>
<!-- Node32322 -->
<g id="node3" class="node">
<title>Node32322</title>
<g id="a_node3"><a xlink:href="quickjs-libc_8c.html#a1fbb3adc15e7b967479fc1940e99b67a" target="_top" xlink:title="worker_func">
<polygon fill="none" stroke="#000000" points="149,-.5 149,-19.5 226,-19.5 226,-.5 149,-.5"/>
<text text-anchor="middle" x="187.5" y="-7.5" font-family="Helvetica,sans-Serif" font-size="10.00" fill="#000000">worker_func</text>
</a>
</g>
</g>
<!-- Node32320&#45;&gt;Node32322 -->
<g id="edge2" class="edge">
<title>Node32320&#45;&gt;Node32322</title>
<path fill="none" stroke="#191970" d="M123.1231,-19.3371C131.935,-18.059 140.7198,-16.7849 148.8393,-15.6073"/>
<polygon fill="#191970" stroke="#191970" points="122.5906,-15.8776 113.1966,-20.7768 123.5955,-22.8051 122.5906,-15.8776"/>
</g>
<!-- Node32323 -->
<g id="node4" class="node">
<title>Node32323</title>
<g id="a_node4"><a xlink:href="quickjs-libc_8c.html#aff1e6131e8bf8b7eb25307623ad669e7" target="_top" xlink:title="js_worker_ctor">
<polygon fill="none" stroke="#000000" points="262,-.5 262,-19.5 350,-19.5 350,-.5 262,-.5"/>
<text text-anchor="middle" x="306" y="-7.5" font-family="Helvetica,sans-Serif" font-size="10.00" fill="#000000">js_worker_ctor</text>
</a>
</g>
</g>
<!-- Node32322&#45;&gt;Node32323 -->
<g id="edge3" class="edge">
<title>Node32322&#45;&gt;Node32323</title>
<path fill="none" stroke="#191970" d="M236.3731,-10C244.7863,-10 253.4876,-10 261.7697,-10"/>
<polygon fill="#191970" stroke="#191970" points="236.3014,-6.5001 226.3013,-10 236.3013,-13.5001 236.3014,-6.5001"/>
</g>
<!-- Node32324 -->
<g id="node5" class="node">
<title>Node32324</title>
<g id="a_node5"><a xlink:href="quickjs-libc_8c.html#a066e7962ce24f22d5df20968a8baa346" target="_top" xlink:title="js_os_init">
<polygon fill="none" stroke="#ff0000" points="386,-.5 386,-19.5 448,-19.5 448,-.5 386,-.5"/>
<text text-anchor="middle" x="417" y="-7.5" font-family="Helvetica,sans-Serif" font-size="10.00" fill="#000000">js_os_init</text>
</a>
</g>
</g>
<!-- Node32323&#45;&gt;Node32324 -->
<g id="edge4" class="edge">
<title>Node32323&#45;&gt;Node32324</title>
<path fill="none" stroke="#191970" d="M360.4108,-10C369.1771,-10 377.9796,-10 385.9431,-10"/>
<polygon fill="#191970" stroke="#191970" points="360.1891,-6.5001 350.1891,-10 360.189,-13.5001 360.1891,-6.5001"/>
</g>
</g>
</svg>
