<?xml version="1.0" encoding="UTF-8" standalone="no"?>
<!DOCTYPE svg PUBLIC "-//W3C//DTD SVG 1.1//EN"
 "http://www.w3.org/Graphics/SVG/1.1/DTD/svg11.dtd">
<!-- Generated by graphviz version 2.40.1 (20161225.0304)
 -->
<!-- Title: add_star_export_entry Pages: 1 -->
<svg width="495pt" height="66pt"
 viewBox="0.00 0.00 495.00 66.00" xmlns="http://www.w3.org/2000/svg" xmlns:xlink="http://www.w3.org/1999/xlink">
<g id="graph0" class="graph" transform="scale(1 1) rotate(0) translate(4 62)">
<title>add_star_export_entry</title>
<!-- Node333471 -->
<g id="node1" class="node">
<title>Node333471</title>
<polygon fill="#bfbfbf" stroke="#000000" points="0,-19.5 0,-38.5 126,-38.5 126,-19.5 0,-19.5"/>
<text text-anchor="middle" x="63" y="-26.5" font-family="Helvetica,sans-Serif" font-size="10.00" fill="#000000">add_star_export_entry</text>
</g>
<!-- Node333472 -->
<g id="node2" class="node">
<title>Node333472</title>
<g id="a_node2"><a xlink:href="quickjs_8c.html#afa610f3175e9cb11fdceac95071099b5" target="_top" xlink:title="js_resize_array">
<polygon fill="none" stroke="#000000" points="162,-19.5 162,-38.5 252,-38.5 252,-19.5 162,-19.5"/>
<text text-anchor="middle" x="207" y="-26.5" font-family="Helvetica,sans-Serif" font-size="10.00" fill="#000000">js_resize_array</text>
</a>
</g>
</g>
<!-- Node333471&#45;&gt;Node333472 -->
<g id="edge1" class="edge">
<title>Node333471&#45;&gt;Node333472</title>
<path fill="none" stroke="#191970" d="M126.1605,-29C134.5557,-29 143.1136,-29 151.3685,-29"/>
<polygon fill="#191970" stroke="#191970" points="151.6275,-32.5001 161.6274,-29 151.6274,-25.5001 151.6275,-32.5001"/>
</g>
<!-- Node333473 -->
<g id="node3" class="node">
<title>Node333473</title>
<g id="a_node3"><a xlink:href="quickjs_8c.html#a0eda61158c0a22ef337abc3a035bca33" target="_top" xlink:title="js_realloc_array">
<polygon fill="none" stroke="#000000" points="288,-19.5 288,-38.5 382,-38.5 382,-19.5 288,-19.5"/>
<text text-anchor="middle" x="335" y="-26.5" font-family="Helvetica,sans-Serif" font-size="10.00" fill="#000000">js_realloc_array</text>
</a>
</g>
</g>
<!-- Node333472&#45;&gt;Node333473 -->
<g id="edge2" class="edge">
<title>Node333472&#45;&gt;Node333473</title>
<path fill="none" stroke="#191970" d="M252.128,-29C260.3153,-29 268.9552,-29 277.4424,-29"/>
<polygon fill="#191970" stroke="#191970" points="277.6785,-32.5001 287.6785,-29 277.6784,-25.5001 277.6785,-32.5001"/>
</g>
<!-- Node333474 -->
<g id="node4" class="node">
<title>Node333474</title>
<g id="a_node4"><a xlink:href="quickjs_8c.html#a1c31248142879982abb1595f97817cd9" target="_top" xlink:title="js_realloc2">
<polygon fill="none" stroke="#ff0000" points="418,-38.5 418,-57.5 487,-57.5 487,-38.5 418,-38.5"/>
<text text-anchor="middle" x="452.5" y="-45.5" font-family="Helvetica,sans-Serif" font-size="10.00" fill="#000000">js_realloc2</text>
</a>
</g>
</g>
<!-- Node333473&#45;&gt;Node333474 -->
<g id="edge3" class="edge">
<title>Node333473&#45;&gt;Node333474</title>
<path fill="none" stroke="#191970" d="M382.1147,-36.6185C390.5574,-37.9838 399.3341,-39.403 407.709,-40.7572"/>
<polygon fill="#191970" stroke="#191970" points="407.2454,-44.2276 417.6759,-42.3689 408.3629,-37.3174 407.2454,-44.2276"/>
</g>
<!-- Node333479 -->
<g id="node5" class="node">
<title>Node333479</title>
<g id="a_node5"><a xlink:href="cutils_8h.html#a94f155fcce337a2b9d4719ed8042cbbe" target="_top" xlink:title="max_int">
<polygon fill="none" stroke="#000000" points="424.5,-.5 424.5,-19.5 480.5,-19.5 480.5,-.5 424.5,-.5"/>
<text text-anchor="middle" x="452.5" y="-7.5" font-family="Helvetica,sans-Serif" font-size="10.00" fill="#000000">max_int</text>
</a>
</g>
</g>
<!-- Node333473&#45;&gt;Node333479 -->
<g id="edge4" class="edge">
<title>Node333473&#45;&gt;Node333479</title>
<path fill="none" stroke="#191970" d="M382.1147,-21.3815C392.8409,-19.647 404.1062,-17.8254 414.4018,-16.1606"/>
<polygon fill="#191970" stroke="#191970" points="415.0054,-19.6085 424.3185,-14.557 413.888,-12.6983 415.0054,-19.6085"/>
</g>
</g>
</svg>
