<?xml version="1.0" encoding="UTF-8" standalone="no"?>
<!DOCTYPE svg PUBLIC "-//W3C//DTD SVG 1.1//EN"
 "http://www.w3.org/Graphics/SVG/1.1/DTD/svg11.dtd">
<!-- Generated by graphviz version 2.40.1 (20161225.0304)
 -->
<!-- Title: js_proxy_isExtensible Pages: 1 -->
<svg width="747pt" height="372pt"
 viewBox="0.00 0.00 747.00 371.50" xmlns="http://www.w3.org/2000/svg" xmlns:xlink="http://www.w3.org/1999/xlink">
<g id="graph0" class="graph" transform="scale(1 1) rotate(0) translate(4 367.5)">
<title>js_proxy_isExtensible</title>
<!-- Node17726 -->
<g id="node1" class="node">
<title>Node17726</title>
<polygon fill="#bfbfbf" stroke="#000000" points="0,-164 0,-183 122,-183 122,-164 0,-164"/>
<text text-anchor="middle" x="61" y="-171" font-family="Helvetica,sans-Serif" font-size="10.00" fill="#000000">js_proxy_isExtensible</text>
</g>
<!-- Node17727 -->
<g id="node2" class="node">
<title>Node17727</title>
<g id="a_node2"><a xlink:href="quickjs_8c.html#a17c92ef7fbad6a6029f6aa933d669624" target="_top" xlink:title="JS_IsExtensible">
<polygon fill="none" stroke="#000000" points="158,-164 158,-183 248,-183 248,-164 158,-164"/>
<text text-anchor="middle" x="203" y="-171" font-family="Helvetica,sans-Serif" font-size="10.00" fill="#000000">JS_IsExtensible</text>
</a>
</g>
</g>
<!-- Node17726&#45;&gt;Node17727 -->
<g id="edge1" class="edge">
<title>Node17726&#45;&gt;Node17727</title>
<path fill="none" stroke="#191970" d="M132.2535,-166.75C140.9746,-166.7527 149.6906,-166.8911 157.8752,-167.1653"/>
<polygon fill="#191970" stroke="#191970" points="132.0243,-163.2512 122.0449,-166.8093 132.0651,-170.2511 132.0243,-163.2512"/>
</g>
<!-- Node17727&#45;&gt;Node17726 -->
<g id="edge12" class="edge">
<title>Node17727&#45;&gt;Node17726</title>
<path fill="none" stroke="#191970" d="M147.7767,-180.0996C139.3425,-180.2628 130.5954,-180.2932 122.0449,-180.1907"/>
<polygon fill="#191970" stroke="#191970" points="147.9705,-183.5959 157.8752,-179.8347 147.7868,-176.5983 147.9705,-183.5959"/>
</g>
<!-- Node17728 -->
<g id="node3" class="node">
<title>Node17728</title>
<g id="a_node3"><a xlink:href="quickjs_8c.html#ad5565bb5cfd5321f181573257f3b0c91" target="_top" xlink:title="JS_CreateProperty">
<polygon fill="none" stroke="#000000" points="309,-316 309,-335 413,-335 413,-316 309,-316"/>
<text text-anchor="middle" x="361" y="-323" font-family="Helvetica,sans-Serif" font-size="10.00" fill="#000000">JS_CreateProperty</text>
</a>
</g>
</g>
<!-- Node17727&#45;&gt;Node17728 -->
<g id="edge2" class="edge">
<title>Node17727&#45;&gt;Node17728</title>
<path fill="none" stroke="#191970" d="M209.3446,-192.8408C219.9687,-222.1039 244.198,-277.306 284,-306.5 291.3277,-311.8747 299.9951,-315.741 308.8243,-318.5194"/>
<polygon fill="#191970" stroke="#191970" points="212.6287,-191.6284 206.0424,-183.3296 206.0159,-193.9244 212.6287,-191.6284"/>
</g>
<!-- Node18337 -->
<g id="node7" class="node">
<title>Node18337</title>
<g id="a_node7"><a xlink:href="quickjs_8c.html#ae3e0206955a579f92a0b1de78c7d4a88" target="_top" xlink:title="js_object_isExtensible">
<polygon fill="none" stroke="#000000" points="298.5,-278 298.5,-297 423.5,-297 423.5,-278 298.5,-278"/>
<text text-anchor="middle" x="361" y="-285" font-family="Helvetica,sans-Serif" font-size="10.00" fill="#000000">js_object_isExtensible</text>
</a>
</g>
</g>
<!-- Node17727&#45;&gt;Node18337 -->
<g id="edge8" class="edge">
<title>Node17727&#45;&gt;Node18337</title>
<path fill="none" stroke="#191970" d="M213.4937,-191.6238C226.9993,-213.2893 252.5169,-249.0522 284,-268.5 290.3257,-272.4075 297.4088,-275.512 304.6484,-277.9782"/>
<polygon fill="#191970" stroke="#191970" points="216.4707,-189.7829 208.3067,-183.0302 210.4778,-193.4002 216.4707,-189.7829"/>
</g>
<!-- Node18066 -->
<g id="node8" class="node">
<title>Node18066</title>
<g id="a_node8"><a xlink:href="quickjs_8c.html#a43a4ecde0329def8ff22e9341c7b109d" target="_top" xlink:title="js_object_isSealed">
<polygon fill="none" stroke="#000000" points="307.5,-240 307.5,-259 414.5,-259 414.5,-240 307.5,-240"/>
<text text-anchor="middle" x="361" y="-247" font-family="Helvetica,sans-Serif" font-size="10.00" fill="#000000">js_object_isSealed</text>
</a>
</g>
</g>
<!-- Node17727&#45;&gt;Node18066 -->
<g id="edge9" class="edge">
<title>Node17727&#45;&gt;Node18066</title>
<path fill="none" stroke="#191970" d="M221.5615,-189.6106C237.2293,-202.4275 260.7636,-219.9117 284,-230.5 292.3948,-234.3253 301.6696,-237.4497 310.7889,-239.9781"/>
<polygon fill="#191970" stroke="#191970" points="223.6326,-186.7799 213.7184,-183.0437 219.1388,-192.147 223.6326,-186.7799"/>
</g>
<!-- Node18324 -->
<g id="node9" class="node">
<title>Node18324</title>
<g id="a_node9"><a xlink:href="quickjs_8c.html#adda8732f2afb3bb7bd7e5f59e3ba022d" target="_top" xlink:title="js_proxy_getPrototypeOf">
<polygon fill="none" stroke="#ff0000" points="292.5,-202 292.5,-221 429.5,-221 429.5,-202 292.5,-202"/>
<text text-anchor="middle" x="361" y="-209" font-family="Helvetica,sans-Serif" font-size="10.00" fill="#000000">js_proxy_getPrototypeOf</text>
</a>
</g>
</g>
<!-- Node17727&#45;&gt;Node18324 -->
<g id="edge10" class="edge">
<title>Node17727&#45;&gt;Node18324</title>
<path fill="none" stroke="#191970" d="M252.7616,-185.468C274.9029,-190.7931 300.6116,-196.9762 321.4166,-201.9799"/>
<polygon fill="#191970" stroke="#191970" points="253.4113,-182.0245 242.8701,-183.089 251.7744,-188.8304 253.4113,-182.0245"/>
</g>
<!-- Node18328 -->
<g id="node10" class="node">
<title>Node18328</title>
<g id="a_node10"><a xlink:href="quickjs_8c.html#ae8b32777df50bb192c19840adc4d32a1" target="_top" xlink:title="js_proxy_setPrototypeOf">
<polygon fill="none" stroke="#ff0000" points="292.5,-164 292.5,-183 429.5,-183 429.5,-164 292.5,-164"/>
<text text-anchor="middle" x="361" y="-171" font-family="Helvetica,sans-Serif" font-size="10.00" fill="#000000">js_proxy_setPrototypeOf</text>
</a>
</g>
</g>
<!-- Node17727&#45;&gt;Node18328 -->
<g id="edge11" class="edge">
<title>Node17727&#45;&gt;Node18328</title>
<path fill="none" stroke="#191970" d="M258.5459,-173.5C269.5009,-173.5 281.1176,-173.5 292.4429,-173.5"/>
<polygon fill="#191970" stroke="#191970" points="258.2765,-170.0001 248.2765,-173.5 258.2764,-177.0001 258.2765,-170.0001"/>
</g>
<!-- Node18334 -->
<g id="node11" class="node">
<title>Node18334</title>
<g id="a_node11"><a xlink:href="quickjs_8c.html#a7be64afafb067c71764032c0708d7aa3" target="_top" xlink:title="js_proxy_preventExtensions">
<polygon fill="none" stroke="#ff0000" points="284,-126 284,-145 438,-145 438,-126 284,-126"/>
<text text-anchor="middle" x="361" y="-133" font-family="Helvetica,sans-Serif" font-size="10.00" fill="#000000">js_proxy_preventExtensions</text>
</a>
</g>
</g>
<!-- Node17727&#45;&gt;Node18334 -->
<g id="edge13" class="edge">
<title>Node17727&#45;&gt;Node18334</title>
<path fill="none" stroke="#191970" d="M252.7616,-161.532C274.9029,-156.2069 300.6116,-150.0238 321.4166,-145.0201"/>
<polygon fill="#191970" stroke="#191970" points="251.7744,-158.1696 242.8701,-163.911 253.4113,-164.9755 251.7744,-158.1696"/>
</g>
<!-- Node18076 -->
<g id="node12" class="node">
<title>Node18076</title>
<g id="a_node12"><a xlink:href="quickjs_8c.html#ab9c2e9c8dab72f3c057efe4ffcced332" target="_top" xlink:title="js_proxy_get_own_property">
<polygon fill="none" stroke="#000000" points="285.5,-88 285.5,-107 436.5,-107 436.5,-88 285.5,-88"/>
<text text-anchor="middle" x="361" y="-95" font-family="Helvetica,sans-Serif" font-size="10.00" fill="#000000">js_proxy_get_own_property</text>
</a>
</g>
</g>
<!-- Node17727&#45;&gt;Node18076 -->
<g id="edge14" class="edge">
<title>Node17727&#45;&gt;Node18076</title>
<path fill="none" stroke="#191970" d="M221.5615,-157.3894C237.2293,-144.5725 260.7636,-127.0883 284,-116.5 292.3948,-112.6747 301.6696,-109.5503 310.7889,-107.0219"/>
<polygon fill="#191970" stroke="#191970" points="219.1388,-154.853 213.7184,-163.9563 223.6326,-160.2201 219.1388,-154.853"/>
</g>
<!-- Node18011 -->
<g id="node13" class="node">
<title>Node18011</title>
<g id="a_node13"><a xlink:href="quickjs_8c.html#acffb121a8a0ee2b735f60c1db01e79e7" target="_top" xlink:title="js_proxy_delete_property">
<polygon fill="none" stroke="#000000" points="291,-50 291,-69 431,-69 431,-50 291,-50"/>
<text text-anchor="middle" x="361" y="-57" font-family="Helvetica,sans-Serif" font-size="10.00" fill="#000000">js_proxy_delete_property</text>
</a>
</g>
</g>
<!-- Node17727&#45;&gt;Node18011 -->
<g id="edge15" class="edge">
<title>Node17727&#45;&gt;Node18011</title>
<path fill="none" stroke="#191970" d="M213.4937,-155.3762C226.9993,-133.7107 252.5169,-97.9478 284,-78.5 290.3257,-74.5925 297.4088,-71.488 304.6484,-69.0218"/>
<polygon fill="#191970" stroke="#191970" points="210.4778,-153.5998 208.3067,-163.9698 216.4707,-157.2171 210.4778,-153.5998"/>
</g>
<!-- Node18067 -->
<g id="node14" class="node">
<title>Node18067</title>
<g id="a_node14"><a xlink:href="quickjs_8c.html#a438b354d69a8f0674195b0cdc19dd686" target="_top" xlink:title="js_proxy_get_own_property\l_names">
<polygon fill="none" stroke="#000000" points="285.5,-.5 285.5,-30.5 436.5,-30.5 436.5,-.5 285.5,-.5"/>
<text text-anchor="start" x="293.5" y="-18.5" font-family="Helvetica,sans-Serif" font-size="10.00" fill="#000000">js_proxy_get_own_property</text>
<text text-anchor="middle" x="361" y="-7.5" font-family="Helvetica,sans-Serif" font-size="10.00" fill="#000000">_names</text>
</a>
</g>
</g>
<!-- Node17727&#45;&gt;Node18067 -->
<g id="edge16" class="edge">
<title>Node17727&#45;&gt;Node18067</title>
<path fill="none" stroke="#191970" d="M209.7555,-154.1276C220.8032,-125.2287 245.4447,-70.9737 284,-40.5 288.8517,-36.6653 294.3103,-33.4102 300.0238,-30.6488"/>
<polygon fill="#191970" stroke="#191970" points="206.3437,-153.2658 206.1863,-163.8595 212.9156,-155.6762 206.3437,-153.2658"/>
</g>
<!-- Node17729 -->
<g id="node4" class="node">
<title>Node17729</title>
<g id="a_node4"><a xlink:href="quickjs_8c.html#a638e637d492ee889691691baba33c4bd" target="_top" xlink:title="JS_SetPropertyGeneric">
<polygon fill="none" stroke="#ff0000" points="614,-344 614,-363 739,-363 739,-344 614,-344"/>
<text text-anchor="middle" x="676.5" y="-351" font-family="Helvetica,sans-Serif" font-size="10.00" fill="#000000">JS_SetPropertyGeneric</text>
</a>
</g>
</g>
<!-- Node17728&#45;&gt;Node17729 -->
<g id="edge3" class="edge">
<title>Node17728&#45;&gt;Node17729</title>
<path fill="none" stroke="#191970" d="M419.7855,-336.783C437.1806,-339.7424 456.3052,-342.6263 474,-344.5 520.7187,-349.4472 573.7803,-351.6821 613.8644,-352.6882"/>
<polygon fill="#191970" stroke="#191970" points="420.2194,-333.306 409.7673,-335.0389 419.0188,-340.2023 420.2194,-333.306"/>
</g>
<!-- Node17852 -->
<g id="node5" class="node">
<title>Node17852</title>
<g id="a_node5"><a xlink:href="quickjs_8c.html#ad7f03358a8088ca920ab308225c6b2e6" target="_top" xlink:title="JS_SetPropertyInternal">
<polygon fill="none" stroke="#ff0000" points="614,-297 614,-316 739,-316 739,-297 614,-297"/>
<text text-anchor="middle" x="676.5" y="-304" font-family="Helvetica,sans-Serif" font-size="10.00" fill="#000000">JS_SetPropertyInternal</text>
</a>
</g>
</g>
<!-- Node17728&#45;&gt;Node17852 -->
<g id="edge4" class="edge">
<title>Node17728&#45;&gt;Node17852</title>
<path fill="none" stroke="#191970" d="M416.8066,-314.223C434.9649,-311.0624 455.2659,-308.064 474,-306.5 520.7709,-302.5953 573.8303,-302.7631 613.9003,-303.8178"/>
<polygon fill="#191970" stroke="#191970" points="416.1882,-310.778 406.9627,-315.9875 417.4234,-317.6682 416.1882,-310.778"/>
</g>
<!-- Node17882 -->
<g id="node6" class="node">
<title>Node17882</title>
<g id="a_node6"><a xlink:href="quickjs_8c.html#ab50618f1bf78e444caa6da0e3e2785d7" target="_top" xlink:title="JS_DefineProperty">
<polygon fill="none" stroke="#ff0000" points="474,-316 474,-335 578,-335 578,-316 474,-316"/>
<text text-anchor="middle" x="526" y="-323" font-family="Helvetica,sans-Serif" font-size="10.00" fill="#000000">JS_DefineProperty</text>
</a>
</g>
</g>
<!-- Node17728&#45;&gt;Node17882 -->
<g id="edge5" class="edge">
<title>Node17728&#45;&gt;Node17882</title>
<path fill="none" stroke="#191970" d="M423.3895,-325.5C440.0266,-325.5 457.8256,-325.5 473.8496,-325.5"/>
<polygon fill="#191970" stroke="#191970" points="423.2071,-322.0001 413.207,-325.5 423.207,-329.0001 423.2071,-322.0001"/>
</g>
<!-- Node17882&#45;&gt;Node17729 -->
<g id="edge6" class="edge">
<title>Node17882&#45;&gt;Node17729</title>
<path fill="none" stroke="#191970" d="M587.3527,-336.9145C599.977,-339.2632 613.1419,-341.7125 625.3589,-343.9854"/>
<polygon fill="#191970" stroke="#191970" points="587.8441,-333.4459 577.3726,-335.0577 586.5637,-340.3278 587.8441,-333.4459"/>
</g>
<!-- Node17882&#45;&gt;Node17852 -->
<g id="edge7" class="edge">
<title>Node17882&#45;&gt;Node17852</title>
<path fill="none" stroke="#191970" d="M588.3228,-317.632C596.7233,-316.5715 605.3454,-315.483 613.7532,-314.4215"/>
<polygon fill="#191970" stroke="#191970" points="587.6981,-314.183 578.2152,-318.908 588.5749,-321.1279 587.6981,-314.183"/>
</g>
</g>
</svg>
