<?xml version="1.0" encoding="UTF-8" standalone="no"?>
<!DOCTYPE svg PUBLIC "-//W3C//DTD SVG 1.1//EN"
 "http://www.w3.org/Graphics/SVG/1.1/DTD/svg11.dtd">
<!-- Generated by graphviz version 2.40.1 (20161225.0304)
 -->
<!-- Title: JS_OrdinaryIsInstanceOf Pages: 1 -->
<svg width="1209pt" height="782pt"
 viewBox="0.00 0.00 1209.00 781.86" xmlns="http://www.w3.org/2000/svg" xmlns:xlink="http://www.w3.org/1999/xlink">
<g id="graph0" class="graph" transform="scale(1 1) rotate(0) translate(4 777.8575)">
<title>JS_OrdinaryIsInstanceOf</title>
<!-- Node179986 -->
<g id="node1" class="node">
<title>Node179986</title>
<polygon fill="#bfbfbf" stroke="#000000" points="0,-152.5 0,-171.5 134,-171.5 134,-152.5 0,-152.5"/>
<text text-anchor="middle" x="67" y="-159.5" font-family="Helvetica,sans-Serif" font-size="10.00" fill="#000000">JS_OrdinaryIsInstanceOf</text>
</g>
<!-- Node179987 -->
<g id="node2" class="node">
<title>Node179987</title>
<g id="a_node2"><a xlink:href="quickjs_8h.html#a775522f2d084fc8fa0fcb33f390006b4" target="_top" xlink:title="JS_DupValue">
<polygon fill="none" stroke="#000000" points="680.5,-677.5 680.5,-696.5 757.5,-696.5 757.5,-677.5 680.5,-677.5"/>
<text text-anchor="middle" x="719" y="-684.5" font-family="Helvetica,sans-Serif" font-size="10.00" fill="#000000">JS_DupValue</text>
</a>
</g>
</g>
<!-- Node179986&#45;&gt;Node179987 -->
<g id="edge1" class="edge">
<title>Node179986&#45;&gt;Node179987</title>
<path fill="none" stroke="#191970" d="M67.9041,-171.7792C74.0304,-231.6665 115.2147,-550.1846 307,-668 421.5311,-738.3574 589.6299,-715.7471 671.1512,-698.6811"/>
<polygon fill="#191970" stroke="#191970" points="672.088,-702.0596 681.1251,-696.5295 670.6119,-695.217 672.088,-702.0596"/>
</g>
<!-- Node179988 -->
<g id="node3" class="node">
<title>Node179988</title>
<g id="a_node3"><a xlink:href="quickjs_8h.html#afaa20c47565bc704c6c85f3d77254e7d" target="_top" xlink:title="JS_FreeValue">
<polygon fill="none" stroke="#000000" points="856.5,-601.5 856.5,-620.5 934.5,-620.5 934.5,-601.5 856.5,-601.5"/>
<text text-anchor="middle" x="895.5" y="-608.5" font-family="Helvetica,sans-Serif" font-size="10.00" fill="#000000">JS_FreeValue</text>
</a>
</g>
</g>
<!-- Node179986&#45;&gt;Node179988 -->
<g id="edge2" class="edge">
<title>Node179986&#45;&gt;Node179988</title>
<path fill="none" stroke="#191970" d="M67.1559,-171.6418C68.3581,-220.5948 78.8284,-445.1505 170,-595 229.4597,-692.728 250.605,-763 365,-763 365,-763 365,-763 522.5,-763 653.6241,-763 704.0469,-801.2645 816,-733 855.0444,-709.1923 878.6044,-658.1165 889.0683,-630.1951"/>
<polygon fill="#191970" stroke="#191970" points="892.3803,-631.3274 892.4424,-620.7328 885.787,-628.9763 892.3803,-631.3274"/>
</g>
<!-- Node180026 -->
<g id="node6" class="node">
<title>Node180026</title>
<g id="a_node6"><a xlink:href="quickjs_8h.html#a89b7c8686c7eee70b86be722ee4730ad" target="_top" xlink:title="JS_GetProperty">
<polygon fill="none" stroke="#000000" points="320.5,-228.5 320.5,-247.5 409.5,-247.5 409.5,-228.5 320.5,-228.5"/>
<text text-anchor="middle" x="365" y="-235.5" font-family="Helvetica,sans-Serif" font-size="10.00" fill="#000000">JS_GetProperty</text>
</a>
</g>
</g>
<!-- Node179986&#45;&gt;Node180026 -->
<g id="edge5" class="edge">
<title>Node179986&#45;&gt;Node180026</title>
<path fill="none" stroke="#191970" d="M104.4402,-171.5485C158.525,-185.3419 258.4959,-210.8379 317.6405,-225.9217"/>
<polygon fill="#191970" stroke="#191970" points="316.9238,-229.3509 327.4786,-228.4308 318.6537,-222.568 316.9238,-229.3509"/>
</g>
<!-- Node180080 -->
<g id="node18" class="node">
<title>Node180080</title>
<g id="a_node18"><a xlink:href="quickjs_8h.html#ad80a83d73e9b7d872b88fbf2943aebe9" target="_top" xlink:title="JS_IsException">
<polygon fill="none" stroke="#000000" points="852,-114.5 852,-133.5 939,-133.5 939,-114.5 852,-114.5"/>
<text text-anchor="middle" x="895.5" y="-121.5" font-family="Helvetica,sans-Serif" font-size="10.00" fill="#000000">JS_IsException</text>
</a>
</g>
</g>
<!-- Node179986&#45;&gt;Node180080 -->
<g id="edge31" class="edge">
<title>Node179986&#45;&gt;Node180080</title>
<path fill="none" stroke="#191970" d="M80.3698,-152.4745C99.4408,-139.2703 135.9276,-115.407 170,-101 252.7199,-66.023 275.1892,-48 365,-48 365,-48 365,-48 522.5,-48 647.5925,-48 791.6182,-89.5487 858.1918,-111.205"/>
<polygon fill="#191970" stroke="#191970" points="857.226,-114.5718 867.819,-114.3745 859.4151,-107.9228 857.226,-114.5718"/>
</g>
<!-- Node180419 -->
<g id="node22" class="node">
<title>Node180419</title>
<g id="a_node22"><a xlink:href="quickjs_8c.html#a7f82fd53b039b4e12f1addfa15d750ae" target="_top" xlink:title="JS_GetPrototypeFree">
<polygon fill="none" stroke="#000000" points="307,-639.5 307,-658.5 423,-658.5 423,-639.5 307,-639.5"/>
<text text-anchor="middle" x="365" y="-646.5" font-family="Helvetica,sans-Serif" font-size="10.00" fill="#000000">JS_GetPrototypeFree</text>
</a>
</g>
</g>
<!-- Node179986&#45;&gt;Node180419 -->
<g id="edge26" class="edge">
<title>Node179986&#45;&gt;Node180419</title>
<path fill="none" stroke="#191970" d="M72.9527,-171.728C109.6073,-231.63 304.7213,-550.4908 353.7932,-630.6856"/>
<polygon fill="#191970" stroke="#191970" points="350.8282,-632.5459 359.0332,-639.2488 356.7991,-628.8922 350.8282,-632.5459"/>
</g>
<!-- Node180088 -->
<g id="node24" class="node">
<title>Node180088</title>
<g id="a_node24"><a xlink:href="quickjs_8c.html#a1ca9cdb1fa2ffc3e6506e92b200e490f" target="_top" xlink:title="JS_IsFunction">
<polygon fill="none" stroke="#000000" points="325,-114.5 325,-133.5 405,-133.5 405,-114.5 325,-114.5"/>
<text text-anchor="middle" x="365" y="-121.5" font-family="Helvetica,sans-Serif" font-size="10.00" fill="#000000">JS_IsFunction</text>
</a>
</g>
</g>
<!-- Node179986&#45;&gt;Node180088 -->
<g id="edge32" class="edge">
<title>Node179986&#45;&gt;Node180088</title>
<path fill="none" stroke="#191970" d="M113.779,-152.4994C131.3545,-149.1599 151.5435,-145.5966 170,-143 219.0078,-136.1051 275.2979,-130.9102 314.7618,-127.7101"/>
<polygon fill="#191970" stroke="#191970" points="315.2309,-131.1839 324.9211,-126.9002 314.6746,-124.2061 315.2309,-131.1839"/>
</g>
<!-- Node180406 -->
<g id="node25" class="node">
<title>Node180406</title>
<g id="a_node25"><a xlink:href="quickjs_8c.html#af4cd70eee97bbcab2d0f2e46cf53ccd7" target="_top" xlink:title="JS_IsInstanceOf">
<polygon fill="none" stroke="#ff0000" points="174.5,-152.5 174.5,-171.5 266.5,-171.5 266.5,-152.5 174.5,-152.5"/>
<text text-anchor="middle" x="220.5" y="-159.5" font-family="Helvetica,sans-Serif" font-size="10.00" fill="#000000">JS_IsInstanceOf</text>
</a>
</g>
</g>
<!-- Node179986&#45;&gt;Node180406 -->
<g id="edge33" class="edge">
<title>Node179986&#45;&gt;Node180406</title>
<path fill="none" stroke="#191970" d="M134.3273,-155.2954C144.2657,-155.1992 154.418,-155.2559 164.1041,-155.4656"/>
<polygon fill="#191970" stroke="#191970" points="164.3056,-158.9725 174.3994,-155.7531 164.5011,-151.9752 164.3056,-158.9725"/>
</g>
<!-- Node180087 -->
<g id="node26" class="node">
<title>Node180087</title>
<g id="a_node26"><a xlink:href="quickjs_8h.html#a149f24b67e745bad93573b3b4c80db4c" target="_top" xlink:title="JS_IsNull">
<polygon fill="none" stroke="#000000" points="335.5,-76.5 335.5,-95.5 394.5,-95.5 394.5,-76.5 335.5,-76.5"/>
<text text-anchor="middle" x="365" y="-83.5" font-family="Helvetica,sans-Serif" font-size="10.00" fill="#000000">JS_IsNull</text>
</a>
</g>
</g>
<!-- Node179986&#45;&gt;Node180087 -->
<g id="edge40" class="edge">
<title>Node179986&#45;&gt;Node180087</title>
<path fill="none" stroke="#191970" d="M93.4398,-152.4076C114.107,-145.1206 143.6517,-135.1643 170,-128 223.2228,-113.5283 285.6977,-100.807 325.3123,-93.2595"/>
<polygon fill="#191970" stroke="#191970" points="326.1846,-96.6568 335.3618,-91.3626 324.8861,-89.7782 326.1846,-96.6568"/>
</g>
<!-- Node180281 -->
<g id="node27" class="node">
<title>Node180281</title>
<g id="a_node27"><a xlink:href="quickjs_8c.html#a246e337d6566552736209730827c0871" target="_top" xlink:title="js_poll_interrupts">
<polygon fill="none" stroke="#ff0000" points="170,-.5 170,-19.5 271,-19.5 271,-.5 170,-.5"/>
<text text-anchor="middle" x="220.5" y="-7.5" font-family="Helvetica,sans-Serif" font-size="10.00" fill="#000000">js_poll_interrupts</text>
</a>
</g>
</g>
<!-- Node179986&#45;&gt;Node180281 -->
<g id="edge41" class="edge">
<title>Node179986&#45;&gt;Node180281</title>
<path fill="none" stroke="#191970" d="M72.5732,-152.427C86.4179,-129.3451 124.5581,-69.8854 170,-34 174.7339,-30.2616 180.1452,-26.924 185.626,-24.0129"/>
<polygon fill="#191970" stroke="#191970" points="187.3636,-27.0593 194.8082,-19.5209 184.2874,-20.7714 187.3636,-27.0593"/>
</g>
<!-- Node179989 -->
<g id="node4" class="node">
<title>Node179989</title>
<g id="a_node4"><a xlink:href="quickjs_8c.html#aa059f309c30fd5166d16c82a97973146" target="_top" xlink:title="__JS_FreeValue">
<polygon fill="none" stroke="#000000" points="975,-601.5 975,-620.5 1064,-620.5 1064,-601.5 975,-601.5"/>
<text text-anchor="middle" x="1019.5" y="-608.5" font-family="Helvetica,sans-Serif" font-size="10.00" fill="#000000">__JS_FreeValue</text>
</a>
</g>
</g>
<!-- Node179988&#45;&gt;Node179989 -->
<g id="edge3" class="edge">
<title>Node179988&#45;&gt;Node179989</title>
<path fill="none" stroke="#191970" d="M934.7344,-611C944.3131,-611 954.7337,-611 964.8862,-611"/>
<polygon fill="#191970" stroke="#191970" points="964.9084,-614.5001 974.9083,-611 964.9083,-607.5001 964.9084,-614.5001"/>
</g>
<!-- Node179990 -->
<g id="node5" class="node">
<title>Node179990</title>
<g id="a_node5"><a xlink:href="quickjs_8c.html#ab1ea3fad7d138be12144a38be4d36423" target="_top" xlink:title="__JS_FreeValueRT">
<polygon fill="none" stroke="#ff0000" points="1100,-601.5 1100,-620.5 1201,-620.5 1201,-601.5 1100,-601.5"/>
<text text-anchor="middle" x="1150.5" y="-608.5" font-family="Helvetica,sans-Serif" font-size="10.00" fill="#000000">__JS_FreeValueRT</text>
</a>
</g>
</g>
<!-- Node179989&#45;&gt;Node179990 -->
<g id="edge4" class="edge">
<title>Node179989&#45;&gt;Node179990</title>
<path fill="none" stroke="#191970" d="M1064.2164,-611C1072.3314,-611 1080.9213,-611 1089.4118,-611"/>
<polygon fill="#191970" stroke="#191970" points="1089.6806,-614.5001 1099.6806,-611 1089.6806,-607.5001 1089.6806,-614.5001"/>
</g>
<!-- Node180027 -->
<g id="node7" class="node">
<title>Node180027</title>
<g id="a_node7"><a xlink:href="quickjs_8c.html#a5762c57ae0c9937e986040c01222833a" target="_top" xlink:title="JS_GetPropertyInternal">
<polygon fill="none" stroke="#000000" points="459,-389.5 459,-408.5 586,-408.5 586,-389.5 459,-389.5"/>
<text text-anchor="middle" x="522.5" y="-396.5" font-family="Helvetica,sans-Serif" font-size="10.00" fill="#000000">JS_GetPropertyInternal</text>
</a>
</g>
</g>
<!-- Node180026&#45;&gt;Node180027 -->
<g id="edge6" class="edge">
<title>Node180026&#45;&gt;Node180027</title>
<path fill="none" stroke="#191970" d="M374.3807,-247.5891C400.2532,-274.0366 472.8828,-348.2802 505.8498,-381.9798"/>
<polygon fill="#191970" stroke="#191970" points="503.4744,-384.5567 512.9693,-389.2576 508.4783,-379.6616 503.4744,-384.5567"/>
</g>
<!-- Node180027&#45;&gt;Node179987 -->
<g id="edge13" class="edge">
<title>Node180027&#45;&gt;Node179987</title>
<path fill="none" stroke="#191970" d="M522.8711,-408.7108C524.9295,-448.0277 538.1869,-596.69 622,-668 635.2046,-679.2347 653.0946,-684.5611 669.9151,-686.8928"/>
<polygon fill="#191970" stroke="#191970" points="669.8852,-690.4092 680.1986,-687.9836 670.6237,-683.4482 669.8852,-690.4092"/>
</g>
<!-- Node180027&#45;&gt;Node179988 -->
<g id="edge24" class="edge">
<title>Node180027&#45;&gt;Node179988</title>
<path fill="none" stroke="#191970" d="M524.1293,-408.8369C530.1328,-441.5974 554.2969,-547.4421 622,-592 689.5126,-636.4326 787.7938,-630.2803 846.3228,-621.1002"/>
<polygon fill="#191970" stroke="#191970" points="847.1282,-624.5144 856.4201,-619.4241 845.9819,-617.6089 847.1282,-624.5144"/>
</g>
<!-- Node180028 -->
<g id="node8" class="node">
<title>Node180028</title>
<g id="a_node8"><a xlink:href="quickjs_8c.html#a288254c06a39c9fca740a7abdad2834e" target="_top" xlink:title="__JS_AtomIsTaggedInt">
<polygon fill="none" stroke="#000000" points="657.5,-323.5 657.5,-342.5 780.5,-342.5 780.5,-323.5 657.5,-323.5"/>
<text text-anchor="middle" x="719" y="-330.5" font-family="Helvetica,sans-Serif" font-size="10.00" fill="#000000">__JS_AtomIsTaggedInt</text>
</a>
</g>
</g>
<!-- Node180027&#45;&gt;Node180028 -->
<g id="edge7" class="edge">
<title>Node180027&#45;&gt;Node180028</title>
<path fill="none" stroke="#191970" d="M539.5748,-389.3269C558.9781,-378.7206 591.8702,-361.8965 622,-352 630.351,-349.257 639.2436,-346.851 648.1266,-344.757"/>
<polygon fill="#191970" stroke="#191970" points="649.1261,-348.1201 658.1225,-342.524 647.5999,-341.2885 649.1261,-348.1201"/>
</g>
<!-- Node180029 -->
<g id="node9" class="node">
<title>Node180029</title>
<g id="a_node9"><a xlink:href="quickjs_8c.html#a89f38938cee8077ce1fbba07946ed185" target="_top" xlink:title="__JS_AtomToUInt32">
<polygon fill="none" stroke="#000000" points="664,-285.5 664,-304.5 774,-304.5 774,-285.5 664,-285.5"/>
<text text-anchor="middle" x="719" y="-292.5" font-family="Helvetica,sans-Serif" font-size="10.00" fill="#000000">__JS_AtomToUInt32</text>
</a>
</g>
</g>
<!-- Node180027&#45;&gt;Node180029 -->
<g id="edge8" class="edge">
<title>Node180027&#45;&gt;Node180029</title>
<path fill="none" stroke="#191970" d="M530.6829,-389.2778C546.3939,-371.3032 582.7252,-332.9815 622,-314 631.8774,-309.2262 642.8708,-305.6519 653.8067,-302.9755"/>
<polygon fill="#191970" stroke="#191970" points="654.7939,-306.3417 663.8,-300.7615 653.2797,-299.5075 654.7939,-306.3417"/>
</g>
<!-- Node180030 -->
<g id="node10" class="node">
<title>Node180030</title>
<g id="a_node10"><a xlink:href="quickjs_8c.html#a077ffa6455c0d7831bd4547542b5f2f7" target="_top" xlink:title="js_new_string_char">
<polygon fill="none" stroke="#ff0000" points="664,-247.5 664,-266.5 774,-266.5 774,-247.5 664,-247.5"/>
<text text-anchor="middle" x="719" y="-254.5" font-family="Helvetica,sans-Serif" font-size="10.00" fill="#000000">js_new_string_char</text>
</a>
</g>
</g>
<!-- Node180027&#45;&gt;Node180030 -->
<g id="edge9" class="edge">
<title>Node180027&#45;&gt;Node180030</title>
<path fill="none" stroke="#191970" d="M527.2068,-389.4147C539.3165,-365.8489 573.9999,-304.9051 622,-276 631.7214,-270.1459 642.8929,-266.0484 654.1167,-263.1906"/>
<polygon fill="#191970" stroke="#191970" points="654.9657,-266.5873 663.9584,-260.9854 653.435,-259.7567 654.9657,-266.5873"/>
</g>
<!-- Node180055 -->
<g id="node11" class="node">
<title>Node180055</title>
<g id="a_node11"><a xlink:href="quickjs_8h.html#a2050bc428da1c65ac7eb87c3fa3b0392" target="_top" xlink:title="JS_NewInt32">
<polygon fill="none" stroke="#000000" points="680.5,-563.5 680.5,-582.5 757.5,-582.5 757.5,-563.5 680.5,-563.5"/>
<text text-anchor="middle" x="719" y="-570.5" font-family="Helvetica,sans-Serif" font-size="10.00" fill="#000000">JS_NewInt32</text>
</a>
</g>
</g>
<!-- Node180027&#45;&gt;Node180055 -->
<g id="edge10" class="edge">
<title>Node180027&#45;&gt;Node180055</title>
<path fill="none" stroke="#191970" d="M525.6031,-408.5598C535.0837,-436.1366 566.4549,-516.2624 622,-554 636.1055,-563.5834 653.8766,-568.5895 670.3418,-571.1281"/>
<polygon fill="#191970" stroke="#191970" points="670.0181,-574.615 680.3806,-572.4086 670.9039,-567.6713 670.0181,-574.615"/>
</g>
<!-- Node180056 -->
<g id="node12" class="node">
<title>Node180056</title>
<g id="a_node12"><a xlink:href="quickjs_8c.html#a93550bf785e919d0881399712c54cb34" target="_top" xlink:title="JS_GetPrototypePrimitive">
<polygon fill="none" stroke="#000000" points="649,-639.5 649,-658.5 789,-658.5 789,-639.5 649,-639.5"/>
<text text-anchor="middle" x="719" y="-646.5" font-family="Helvetica,sans-Serif" font-size="10.00" fill="#000000">JS_GetPrototypePrimitive</text>
</a>
</g>
</g>
<!-- Node180027&#45;&gt;Node180056 -->
<g id="edge11" class="edge">
<title>Node180027&#45;&gt;Node180056</title>
<path fill="none" stroke="#191970" d="M523.7672,-408.968C528.8153,-444.369 550.8062,-565.1183 622,-625 627.2628,-629.4266 633.2215,-633.0577 639.5345,-636.0337"/>
<polygon fill="#191970" stroke="#191970" points="638.4186,-639.3595 648.9974,-639.9413 641.0904,-632.8894 638.4186,-639.3595"/>
</g>
<!-- Node180057 -->
<g id="node13" class="node">
<title>Node180057</title>
<g id="a_node13"><a xlink:href="quickjs_8c.html#a06b76f5124fd985e35f4c652fd018d6d" target="_top" xlink:title="find_own_property">
<polygon fill="none" stroke="#ff0000" points="665.5,-525.5 665.5,-544.5 772.5,-544.5 772.5,-525.5 665.5,-525.5"/>
<text text-anchor="middle" x="719" y="-532.5" font-family="Helvetica,sans-Serif" font-size="10.00" fill="#000000">find_own_property</text>
</a>
</g>
</g>
<!-- Node180027&#45;&gt;Node180057 -->
<g id="edge12" class="edge">
<title>Node180027&#45;&gt;Node180057</title>
<path fill="none" stroke="#191970" d="M527.7096,-408.7883C540.4406,-431.6712 575.5201,-488.7828 622,-516 632.0789,-521.9019 643.655,-526.0085 655.2198,-528.8574"/>
<polygon fill="#191970" stroke="#191970" points="654.8276,-532.3536 665.342,-531.0507 656.31,-525.5123 654.8276,-532.3536"/>
</g>
<!-- Node180058 -->
<g id="node14" class="node">
<title>Node180058</title>
<g id="a_node14"><a xlink:href="quickjs_8c.html#a75f6ee5e4235a7dc99889f3d2eb2c147" target="_top" xlink:title="JS_CallFree">
<polygon fill="none" stroke="#ff0000" points="684,-171.5 684,-190.5 754,-190.5 754,-171.5 684,-171.5"/>
<text text-anchor="middle" x="719" y="-178.5" font-family="Helvetica,sans-Serif" font-size="10.00" fill="#000000">JS_CallFree</text>
</a>
</g>
</g>
<!-- Node180027&#45;&gt;Node180058 -->
<g id="edge14" class="edge">
<title>Node180027&#45;&gt;Node180058</title>
<path fill="none" stroke="#191970" d="M524.2528,-389.1908C530.6469,-356.4668 555.9021,-250.278 622,-200 636.6141,-188.8836 655.9574,-183.7406 673.5236,-181.5196"/>
<polygon fill="#191970" stroke="#191970" points="674.0028,-184.9894 683.6117,-180.5265 673.3169,-178.0231 674.0028,-184.9894"/>
</g>
<!-- Node180290 -->
<g id="node15" class="node">
<title>Node180290</title>
<g id="a_node15"><a xlink:href="quickjs_8h.html#aaab426b47c95d00479b7355b1cf7f56c" target="_top" xlink:title="JS_IsUninitialized">
<polygon fill="none" stroke="#000000" points="668.5,-487.5 668.5,-506.5 769.5,-506.5 769.5,-487.5 668.5,-487.5"/>
<text text-anchor="middle" x="719" y="-494.5" font-family="Helvetica,sans-Serif" font-size="10.00" fill="#000000">JS_IsUninitialized</text>
</a>
</g>
</g>
<!-- Node180027&#45;&gt;Node180290 -->
<g id="edge16" class="edge">
<title>Node180027&#45;&gt;Node180290</title>
<path fill="none" stroke="#191970" d="M531.3424,-408.5446C547.5696,-425.4313 583.9461,-460.4444 622,-478 633.3116,-483.2184 646.0079,-487.0051 658.3939,-489.7524"/>
<polygon fill="#191970" stroke="#191970" points="657.7332,-493.1896 668.2284,-491.7404 659.1202,-486.3283 657.7332,-493.1896"/>
</g>
<!-- Node180291 -->
<g id="node16" class="node">
<title>Node180291</title>
<g id="a_node16"><a xlink:href="quickjs_8c.html#a75ac132a3af4de01e1fadeb0bede6ee7" target="_top" xlink:title="JS_ThrowReferenceErrorUninitialized">
<polygon fill="none" stroke="#ff0000" points="622,-449.5 622,-468.5 816,-468.5 816,-449.5 622,-449.5"/>
<text text-anchor="middle" x="719" y="-456.5" font-family="Helvetica,sans-Serif" font-size="10.00" fill="#000000">JS_ThrowReferenceErrorUninitialized</text>
</a>
</g>
</g>
<!-- Node180027&#45;&gt;Node180291 -->
<g id="edge17" class="edge">
<title>Node180027&#45;&gt;Node180291</title>
<path fill="none" stroke="#191970" d="M542.2773,-408.5133C562.059,-417.7004 593.5521,-431.4443 622,-440 631.1474,-442.7511 640.9029,-445.2041 650.5695,-447.3585"/>
<polygon fill="#191970" stroke="#191970" points="650.0715,-450.831 660.5819,-449.4957 651.5328,-443.9852 650.0715,-450.831"/>
</g>
<!-- Node180185 -->
<g id="node17" class="node">
<title>Node180185</title>
<g id="a_node17"><a xlink:href="quickjs_8c.html#a8aac7988cf0c6f3c2b629a6662fd7ec8" target="_top" xlink:title="JS_AutoInitProperty">
<polygon fill="none" stroke="#ff0000" points="664,-133.5 664,-152.5 774,-152.5 774,-133.5 664,-133.5"/>
<text text-anchor="middle" x="719" y="-140.5" font-family="Helvetica,sans-Serif" font-size="10.00" fill="#000000">JS_AutoInitProperty</text>
</a>
</g>
</g>
<!-- Node180027&#45;&gt;Node180185 -->
<g id="edge18" class="edge">
<title>Node180027&#45;&gt;Node180185</title>
<path fill="none" stroke="#191970" d="M523.3854,-389.4458C527.2771,-353.28 546.2165,-223.7067 622,-162 631.2005,-154.5085 642.5068,-149.6777 654.1102,-146.6168"/>
<polygon fill="#191970" stroke="#191970" points="654.8857,-150.03 663.8874,-144.4424 653.366,-143.1969 654.8857,-150.03"/>
</g>
<!-- Node180111 -->
<g id="node19" class="node">
<title>Node180111</title>
<g id="a_node19"><a xlink:href="quickjs_8c.html#aeb97957655d979e9fe56c955da2b2d4b" target="_top" xlink:title="JS_GetPropertyUint32">
<polygon fill="none" stroke="#ff0000" points="658,-411.5 658,-430.5 780,-430.5 780,-411.5 658,-411.5"/>
<text text-anchor="middle" x="719" y="-418.5" font-family="Helvetica,sans-Serif" font-size="10.00" fill="#000000">JS_GetPropertyUint32</text>
</a>
</g>
</g>
<!-- Node180027&#45;&gt;Node180111 -->
<g id="edge20" class="edge">
<title>Node180027&#45;&gt;Node180111</title>
<path fill="none" stroke="#191970" d="M586.0266,-406.1124C605.6908,-408.314 627.4848,-410.754 647.6425,-413.0109"/>
<polygon fill="#191970" stroke="#191970" points="647.3738,-416.5026 657.7012,-414.137 648.1527,-409.546 647.3738,-416.5026"/>
</g>
<!-- Node180214 -->
<g id="node20" class="node">
<title>Node180214</title>
<g id="a_node20"><a xlink:href="quickjs_8c.html#add3eea1f6d626963ade3c28a1fd563d1" target="_top" xlink:title="JS_AtomIsNumericIndex">
<polygon fill="none" stroke="#ff0000" points="652,-209.5 652,-228.5 786,-228.5 786,-209.5 652,-209.5"/>
<text text-anchor="middle" x="719" y="-216.5" font-family="Helvetica,sans-Serif" font-size="10.00" fill="#000000">JS_AtomIsNumericIndex</text>
</a>
</g>
</g>
<!-- Node180027&#45;&gt;Node180214 -->
<g id="edge21" class="edge">
<title>Node180027&#45;&gt;Node180214</title>
<path fill="none" stroke="#191970" d="M525.3576,-389.4818C534.3627,-361.243 564.9878,-277.4521 622,-238 628.1119,-233.7706 634.9323,-230.4285 642.0465,-227.7945"/>
<polygon fill="#191970" stroke="#191970" points="643.4448,-231.0212 651.8908,-224.6247 641.2993,-224.3581 643.4448,-231.0212"/>
</g>
<!-- Node180215 -->
<g id="node21" class="node">
<title>Node180215</title>
<g id="a_node21"><a xlink:href="quickjs_8c.html#ab8d0b87c9eed4eb6c054b6f4e1731554" target="_top" xlink:title="JS_ThrowReferenceErrorNot\lDefined">
<polygon fill="none" stroke="#ff0000" points="644,-362 644,-392 794,-392 794,-362 644,-362"/>
<text text-anchor="start" x="652" y="-380" font-family="Helvetica,sans-Serif" font-size="10.00" fill="#000000">JS_ThrowReferenceErrorNot</text>
<text text-anchor="middle" x="719" y="-369" font-family="Helvetica,sans-Serif" font-size="10.00" fill="#000000">Defined</text>
</a>
</g>
</g>
<!-- Node180027&#45;&gt;Node180215 -->
<g id="edge25" class="edge">
<title>Node180027&#45;&gt;Node180215</title>
<path fill="none" stroke="#191970" d="M586.0266,-391.8876C601.1115,-390.1987 617.4497,-388.3695 633.3411,-386.5903"/>
<polygon fill="#191970" stroke="#191970" points="634.1534,-390.0213 643.7018,-385.4303 633.3745,-383.0648 634.1534,-390.0213"/>
</g>
<!-- Node180058&#45;&gt;Node179988 -->
<g id="edge15" class="edge">
<title>Node180058&#45;&gt;Node179988</title>
<path fill="none" stroke="#191970" d="M754.4391,-178.7832C775.0951,-179.4833 800.123,-184.0855 816,-200 872.1533,-256.2858 890.3931,-516.5781 894.5087,-591.047"/>
<polygon fill="#191970" stroke="#191970" points="891.0299,-591.5418 895.0516,-601.3436 898.0201,-591.1731 891.0299,-591.5418"/>
</g>
<!-- Node180185&#45;&gt;Node180080 -->
<g id="edge19" class="edge">
<title>Node180185&#45;&gt;Node180080</title>
<path fill="none" stroke="#191970" d="M774.3614,-137.0404C795.8209,-134.7303 820.3079,-132.0943 841.6239,-129.7997"/>
<polygon fill="#191970" stroke="#191970" points="842.2382,-133.2539 851.8061,-128.7036 841.489,-126.2941 842.2382,-133.2539"/>
</g>
<!-- Node180214&#45;&gt;Node179988 -->
<g id="edge22" class="edge">
<title>Node180214&#45;&gt;Node179988</title>
<path fill="none" stroke="#191970" d="M786.1418,-221.5937C797.2525,-224.7941 807.803,-229.9377 816,-238 867.1992,-288.3579 888.7126,-521.1937 894.0873,-591.101"/>
<polygon fill="#191970" stroke="#191970" points="890.6063,-591.4885 894.8372,-601.2019 897.5871,-590.9702 890.6063,-591.4885"/>
</g>
<!-- Node180214&#45;&gt;Node180080 -->
<g id="edge23" class="edge">
<title>Node180214&#45;&gt;Node180080</title>
<path fill="none" stroke="#191970" d="M786.1811,-211.0401C796.5041,-208.3576 806.7824,-204.7772 816,-200 843.3892,-185.8049 867.8718,-159.2568 882.2076,-141.6015"/>
<polygon fill="#191970" stroke="#191970" points="884.9601,-143.7633 888.3983,-133.7418 879.4611,-139.4319 884.9601,-143.7633"/>
</g>
<!-- Node180419&#45;&gt;Node179988 -->
<g id="edge27" class="edge">
<title>Node180419&#45;&gt;Node179988</title>
<path fill="none" stroke="#191970" d="M384.6214,-658.6565C449.6425,-689.2113 662.6217,-777.6453 816,-706 849.6075,-690.3014 874.0165,-652.6338 886.3666,-629.7257"/>
<polygon fill="#191970" stroke="#191970" points="889.5769,-631.1366 891.0479,-620.6444 883.3549,-627.9293 889.5769,-631.1366"/>
</g>
<!-- Node180387 -->
<g id="node23" class="node">
<title>Node180387</title>
<g id="a_node23"><a xlink:href="quickjs_8c.html#ad56da91bca3e6259b73d5148126b5099" target="_top" xlink:title="JS_GetPrototype">
<polygon fill="none" stroke="#ff0000" points="475,-639.5 475,-658.5 570,-658.5 570,-639.5 475,-639.5"/>
<text text-anchor="middle" x="522.5" y="-646.5" font-family="Helvetica,sans-Serif" font-size="10.00" fill="#000000">JS_GetPrototype</text>
</a>
</g>
</g>
<!-- Node180419&#45;&gt;Node180387 -->
<g id="edge28" class="edge">
<title>Node180419&#45;&gt;Node180387</title>
<path fill="none" stroke="#191970" d="M423.1997,-649C436.7465,-649 451.1657,-649 464.6954,-649"/>
<polygon fill="#191970" stroke="#191970" points="464.8392,-652.5001 474.8391,-649 464.8391,-645.5001 464.8392,-652.5001"/>
</g>
<!-- Node180387&#45;&gt;Node179987 -->
<g id="edge29" class="edge">
<title>Node180387&#45;&gt;Node179987</title>
<path fill="none" stroke="#191970" d="M570.0672,-658.1987C600.4774,-664.0796 639.8082,-671.6856 670.4147,-677.6044"/>
<polygon fill="#191970" stroke="#191970" points="669.9517,-681.0796 680.4343,-679.542 671.2808,-674.2069 669.9517,-681.0796"/>
</g>
<!-- Node180387&#45;&gt;Node180056 -->
<g id="edge30" class="edge">
<title>Node180387&#45;&gt;Node180056</title>
<path fill="none" stroke="#191970" d="M570.0672,-649C590.6471,-649 615.3125,-649 638.5945,-649"/>
<polygon fill="#191970" stroke="#191970" points="638.822,-652.5001 648.8219,-649 638.8219,-645.5001 638.822,-652.5001"/>
</g>
<!-- Node180406&#45;&gt;Node179986 -->
<g id="edge39" class="edge">
<title>Node180406&#45;&gt;Node179986</title>
<path fill="none" stroke="#191970" d="M174.3994,-168.2469C164.9425,-168.574 154.7428,-168.7416 144.5247,-168.7497"/>
<polygon fill="#191970" stroke="#191970" points="144.3428,-165.249 134.3273,-168.7046 144.3117,-172.2489 144.3428,-165.249"/>
</g>
<!-- Node180406&#45;&gt;Node180026 -->
<g id="edge34" class="edge">
<title>Node180406&#45;&gt;Node180026</title>
<path fill="none" stroke="#191970" d="M234.8178,-171.513C251.6748,-182.4977 280.7124,-200.7523 307,-214 314.3215,-217.6897 322.349,-221.2835 330.0351,-224.5192"/>
<polygon fill="#191970" stroke="#191970" points="328.9295,-227.8486 339.5096,-228.4063 331.5865,-221.3725 328.9295,-227.8486"/>
</g>
<!-- Node180406&#45;&gt;Node180058 -->
<g id="edge37" class="edge">
<title>Node180406&#45;&gt;Node180058</title>
<path fill="none" stroke="#191970" d="M266.5801,-170.7568C279.6003,-172.877 293.8141,-174.8593 307,-176 439.8977,-187.4972 597.7947,-184.8976 673.7527,-182.6377"/>
<polygon fill="#191970" stroke="#191970" points="674.0291,-186.131 683.9158,-182.3226 673.8121,-179.1343 674.0291,-186.131"/>
</g>
<!-- Node180406&#45;&gt;Node180080 -->
<g id="edge35" class="edge">
<title>Node180406&#45;&gt;Node180080</title>
<path fill="none" stroke="#191970" d="M266.747,-157.6825C307.7924,-153.8454 369.3909,-148.0742 423,-143 511.4513,-134.6279 533.254,-128.227 622,-124 698.1928,-120.3709 786.4608,-121.2965 841.6452,-122.4895"/>
<polygon fill="#191970" stroke="#191970" points="841.8136,-125.9942 851.8906,-122.7224 841.9728,-118.996 841.8136,-125.9942"/>
</g>
<!-- Node180406&#45;&gt;Node180088 -->
<g id="edge38" class="edge">
<title>Node180406&#45;&gt;Node180088</title>
<path fill="none" stroke="#191970" d="M256.9635,-152.411C275.7741,-147.4642 298.9146,-141.3789 318.9472,-136.1108"/>
<polygon fill="#191970" stroke="#191970" points="320.0177,-139.4483 328.7988,-133.5201 318.2374,-132.6785 320.0177,-139.4483"/>
</g>
<!-- Node180406&#45;&gt;Node180087 -->
<g id="edge36" class="edge">
<title>Node180406&#45;&gt;Node180087</title>
<path fill="none" stroke="#191970" d="M232.7644,-152.3881C248.9842,-140.0454 278.8167,-118.6005 307,-105 312.8868,-102.1592 319.3043,-99.5842 325.655,-97.312"/>
<polygon fill="#191970" stroke="#191970" points="327.1354,-100.5065 335.4936,-93.9957 324.8995,-93.8732 327.1354,-100.5065"/>
</g>
</g>
</svg>
