<?xml version="1.0" encoding="UTF-8" standalone="no"?>
<!DOCTYPE svg PUBLIC "-//W3C//DTD SVG 1.1//EN"
 "http://www.w3.org/Graphics/SVG/1.1/DTD/svg11.dtd">
<!-- Generated by graphviz version 2.40.1 (20161225.0304)
 -->
<!-- Title: js_async_generator_reject Pages: 1 -->
<!--zoomable 160 -->
<svg id="main" version="1.1" xmlns="http://www.w3.org/2000/svg" xmlns:xlink="http://www.w3.org/1999/xlink" xml:space="preserve" onload="init(evt)">
<style type="text/css"><![CDATA[
.edge:hover path { stroke: red; }
.edge:hover polygon { stroke: red; fill: red; }
]]></style>
<script type="text/javascript"><![CDATA[
var edges = document.getElementsByTagName('g');
if (edges && edges.length) {
  for (var i=0;i<edges.length;i++) {
    if (edges[i].id.substr(0,4)=='edge') {
      edges[i].setAttribute('class','edge');
    }
  }
}
]]></script>
        <defs>
                <circle id="rim" cx="0" cy="0" r="7"/>
                <circle id="rim2" cx="0" cy="0" r="3.5"/>
                <g id="zoomPlus">
                        <use xlink:href="#rim" fill="#404040">
                                <set attributeName="fill" to="#808080" begin="zoomplus.mouseover" end="zoomplus.mouseout"/>
                        </use>
                        <path d="M-4,0h8M0,-4v8" fill="none" stroke="white" stroke-width="1.5" pointer-events="none"/>
                </g>
                <g id="zoomMin">
                        <use xlink:href="#rim" fill="#404040">
                                <set attributeName="fill" to="#808080" begin="zoomminus.mouseover" end="zoomminus.mouseout"/>
                        </use>
                        <path d="M-4,0h8" fill="none" stroke="white" stroke-width="1.5" pointer-events="none"/>
                </g>
                <g id="dirArrow">
                        <path fill="none" stroke="white" stroke-width="1.5" d="M0,-3.0v7 M-2.5,-0.5L0,-3.0L2.5,-0.5"/>
                </g>
               <g id="resetDef">
                       <use xlink:href="#rim2" fill="#404040">
                               <set attributeName="fill" to="#808080" begin="reset.mouseover" end="reset.mouseout"/>
                       </use>
               </g>
        </defs>

<script type="text/javascript">
var viewWidth = 591;
var viewHeight = 160;
var sectionId = 'dynsection-891';
</script>
<script xlink:href="svgpan.js"/>
<svg id="graph" class="graph">
<g id="viewport">
<title>js_async_generator_reject</title>
<!-- Node308263 -->
<g id="node1" class="node">
<title>Node308263</title>
<polygon fill="#bfbfbf" stroke="#000000" points="0,-52 0,-82 111,-82 111,-52 0,-52"/>
<text text-anchor="start" x="8" y="-70" font-family="Helvetica,sans-Serif" font-size="10.00" fill="#000000">js_async_generator</text>
<text text-anchor="middle" x="55.5" y="-59" font-family="Helvetica,sans-Serif" font-size="10.00" fill="#000000">_reject</text>
</g>
<!-- Node308264 -->
<g id="node2" class="node">
<title>Node308264</title>
<g id="a_node2"><a xlink:href="quickjs_8c.html#a3e852026d167fa03c673f86697dd3e67" target="_top" xlink:title="js_async_generator\l_resolve_or_reject">
<polygon fill="none" stroke="#000000" points="147,-52 147,-82 258,-82 258,-52 147,-52"/>
<text text-anchor="start" x="155" y="-70" font-family="Helvetica,sans-Serif" font-size="10.00" fill="#000000">js_async_generator</text>
<text text-anchor="middle" x="202.5" y="-59" font-family="Helvetica,sans-Serif" font-size="10.00" fill="#000000">_resolve_or_reject</text>
</a>
</g>
</g>
<!-- Node308263&#45;&gt;Node308264 -->
<g id="edge1" class="edge">
<title>Node308263&#45;&gt;Node308264</title>
<path fill="none" stroke="#191970" d="M111.0744,-67C119.4894,-67 128.2383,-67 136.8421,-67"/>
<polygon fill="#191970" stroke="#191970" points="136.8471,-70.5001 146.847,-67 136.847,-63.5001 136.8471,-70.5001"/>
</g>
<!-- Node308265 -->
<g id="node3" class="node">
<title>Node308265</title>
<g id="a_node3"><a xlink:href="quickjs_8c.html#a1a4c02a29525d5cb2085dd8bca3af350" target="_top" xlink:title="JS_Call">
<polygon fill="none" stroke="#000000" points="295,-114.5 295,-133.5 345,-133.5 345,-114.5 295,-114.5"/>
<text text-anchor="middle" x="320" y="-121.5" font-family="Helvetica,sans-Serif" font-size="10.00" fill="#000000">JS_Call</text>
</a>
</g>
</g>
<!-- Node308264&#45;&gt;Node308265 -->
<g id="edge2" class="edge">
<title>Node308264&#45;&gt;Node308265</title>
<path fill="none" stroke="#191970" d="M233.6794,-82.1253C251.4625,-90.752 273.6043,-101.4931 291.0102,-109.9369"/>
<polygon fill="#191970" stroke="#191970" points="289.6104,-113.1478 300.1352,-114.3635 292.6656,-106.8498 289.6104,-113.1478"/>
</g>
<!-- Node308319 -->
<g id="node5" class="node">
<title>Node308319</title>
<g id="a_node5"><a xlink:href="quickjs_8h.html#afaa20c47565bc704c6c85f3d77254e7d" target="_top" xlink:title="JS_FreeValue">
<polygon fill="none" stroke="#ff0000" points="505,-95.5 505,-114.5 583,-114.5 583,-95.5 505,-95.5"/>
<text text-anchor="middle" x="544" y="-102.5" font-family="Helvetica,sans-Serif" font-size="10.00" fill="#000000">JS_FreeValue</text>
</a>
</g>
</g>
<!-- Node308264&#45;&gt;Node308319 -->
<g id="edge8" class="edge">
<title>Node308264&#45;&gt;Node308319</title>
<path fill="none" stroke="#191970" d="M258.1279,-73.1899C323.8332,-80.5012 432.1087,-92.5494 494.8517,-99.5311"/>
<polygon fill="#191970" stroke="#191970" points="494.5662,-103.0208 504.8919,-100.6483 495.3404,-96.0638 494.5662,-103.0208"/>
</g>
<!-- Node308284 -->
<g id="node6" class="node">
<title>Node308284</title>
<g id="a_node6"><a xlink:href="quickjs_8c.html#a80e54dcf9ac687d4ccc2f90273565f30" target="_top" xlink:title="js_free">
<polygon fill="none" stroke="#ff0000" points="295,-38.5 295,-57.5 345,-57.5 345,-38.5 295,-38.5"/>
<text text-anchor="middle" x="320" y="-45.5" font-family="Helvetica,sans-Serif" font-size="10.00" fill="#000000">js_free</text>
</a>
</g>
</g>
<!-- Node308264&#45;&gt;Node308284 -->
<g id="edge7" class="edge">
<title>Node308264&#45;&gt;Node308284</title>
<path fill="none" stroke="#191970" d="M258.1531,-58.0008C267.1619,-56.544 276.2679,-55.0716 284.621,-53.7209"/>
<polygon fill="#191970" stroke="#191970" points="285.4216,-57.1369 294.7347,-52.0855 284.3042,-50.2267 285.4216,-57.1369"/>
</g>
<!-- Node308292 -->
<g id="node7" class="node">
<title>Node308292</title>
<g id="a_node7"><a xlink:href="list_8h.html#ab60d5d18869ebeb5d6ab694289576fa7" target="_top" xlink:title="list_del">
<polygon fill="none" stroke="#000000" points="294,-.5 294,-19.5 346,-19.5 346,-.5 294,-.5"/>
<text text-anchor="middle" x="320" y="-7.5" font-family="Helvetica,sans-Serif" font-size="10.00" fill="#000000">list_del</text>
</a>
</g>
</g>
<!-- Node308264&#45;&gt;Node308292 -->
<g id="edge9" class="edge">
<title>Node308264&#45;&gt;Node308292</title>
<path fill="none" stroke="#191970" d="M233.6794,-51.8747C251.4625,-43.248 273.6043,-32.5069 291.0102,-24.0631"/>
<polygon fill="#191970" stroke="#191970" points="292.6656,-27.1502 300.1352,-19.6365 289.6104,-20.8522 292.6656,-27.1502"/>
</g>
<!-- Node308266 -->
<g id="node4" class="node">
<title>Node308266</title>
<g id="a_node4"><a xlink:href="quickjs_8c.html#ac2894ff4edcdb4e6841bcce9c76081e3" target="_top" xlink:title="JS_CallInternal">
<polygon fill="none" stroke="#ff0000" points="382,-114.5 382,-133.5 469,-133.5 469,-114.5 382,-114.5"/>
<text text-anchor="middle" x="425.5" y="-121.5" font-family="Helvetica,sans-Serif" font-size="10.00" fill="#000000">JS_CallInternal</text>
</a>
</g>
</g>
<!-- Node308265&#45;&gt;Node308266 -->
<g id="edge3" class="edge">
<title>Node308265&#45;&gt;Node308266</title>
<path fill="none" stroke="#191970" d="M345.002,-118.1601C353.0566,-117.5768 362.3179,-117.2739 371.6258,-117.2514"/>
<polygon fill="#191970" stroke="#191970" points="371.6599,-120.7517 381.6893,-117.3369 371.7195,-113.7519 371.6599,-120.7517"/>
</g>
<!-- Node308266&#45;&gt;Node308265 -->
<g id="edge4" class="edge">
<title>Node308266&#45;&gt;Node308265</title>
<path fill="none" stroke="#191970" d="M381.6893,-130.6631C372.7927,-130.8376 363.5466,-130.7493 355.0034,-130.3983"/>
<polygon fill="#191970" stroke="#191970" points="355.1816,-126.9029 345.002,-129.8399 354.7913,-133.892 355.1816,-126.9029"/>
</g>
<!-- Node308266&#45;&gt;Node308266 -->
<g id="edge5" class="edge">
<title>Node308266&#45;&gt;Node308266</title>
<path fill="none" stroke="#191970" d="M409.4706,-133.7571C401.6725,-142.5653 407.0156,-152 425.5,-152 437.0527,-152 443.4722,-148.3146 444.7583,-143.4"/>
<polygon fill="#191970" stroke="#191970" points="448.0235,-142.1283 441.5294,-133.7571 441.3858,-144.3509 448.0235,-142.1283"/>
</g>
<!-- Node308266&#45;&gt;Node308319 -->
<g id="edge6" class="edge">
<title>Node308266&#45;&gt;Node308319</title>
<path fill="none" stroke="#191970" d="M469.2883,-116.9791C477.5379,-115.6564 486.2173,-114.2647 494.6239,-112.9168"/>
<polygon fill="#191970" stroke="#191970" points="495.3758,-116.3411 504.6955,-111.302 494.2675,-109.4294 495.3758,-116.3411"/>
</g>
</g>
</svg>
        <g id="navigator" transform="translate(0 0)" fill="#404254">
                <rect fill="#f2f5e9" fill-opacity="0.5" stroke="#606060" stroke-width=".5" x="0" y="0" width="60" height="60"/>
                <use id="zoomplus" xlink:href="#zoomPlus" x="17" y="9" onmousedown="handleZoom(evt,'in')"/>
                <use id="zoomminus" xlink:href="#zoomMin" x="42" y="9" onmousedown="handleZoom(evt,'out')"/>
                <use id="reset" xlink:href="#resetDef" x="30" y="36" onmousedown="handleReset()"/>
                <g id="arrowUp" xlink:href="#dirArrow" transform="translate(30 24)" onmousedown="handlePan(0,-1)">
                  <use xlink:href="#rim" fill="#404040">
                        <set attributeName="fill" to="#808080" begin="arrowUp.mouseover" end="arrowUp.mouseout"/>
                  </use>
                  <path fill="none" stroke="white" stroke-width="1.5" d="M0,-3.0v7 M-2.5,-0.5L0,-3.0L2.5,-0.5"/>
                </g>
                <g id="arrowRight" xlink:href="#dirArrow" transform="rotate(90) translate(36 -43)" onmousedown="handlePan(1,0)">
                  <use xlink:href="#rim" fill="#404040">
                        <set attributeName="fill" to="#808080" begin="arrowRight.mouseover" end="arrowRight.mouseout"/>
                  </use>
                  <path fill="none" stroke="white" stroke-width="1.5" d="M0,-3.0v7 M-2.5,-0.5L0,-3.0L2.5,-0.5"/>
                </g>
                <g id="arrowDown" xlink:href="#dirArrow" transform="rotate(180) translate(-30 -48)" onmousedown="handlePan(0,1)">
                  <use xlink:href="#rim" fill="#404040">
                        <set attributeName="fill" to="#808080" begin="arrowDown.mouseover" end="arrowDown.mouseout"/>
                  </use>
                  <path fill="none" stroke="white" stroke-width="1.5" d="M0,-3.0v7 M-2.5,-0.5L0,-3.0L2.5,-0.5"/>
                </g>
                <g id="arrowLeft" xlink:href="#dirArrow" transform="rotate(270) translate(-36 17)" onmousedown="handlePan(-1,0)">
                  <use xlink:href="#rim" fill="#404040">
                        <set attributeName="fill" to="#808080" begin="arrowLeft.mouseover" end="arrowLeft.mouseout"/>
                  </use>
                  <path fill="none" stroke="white" stroke-width="1.5" d="M0,-3.0v7 M-2.5,-0.5L0,-3.0L2.5,-0.5"/>
                </g>
        </g>
        <svg viewBox="0 0 15 15" width="100%" height="30px" preserveAspectRatio="xMaxYMin meet">
         <g id="arrow_out" transform="scale(0.3 0.3)">
          <a xlink:href="quickjs_8c_afeff65269c8c136c7b74103e389befcf_cgraph_org.svg" target="_base">
           <rect id="button" ry="5" rx="5" y="6" x="6" height="38" width="38"
                fill="#f2f5e9" fill-opacity="0.5" stroke="#606060" stroke-width="1.0"/>
           <path id="arrow"
             d="M 11.500037,31.436501 C 11.940474,20.09759 22.043105,11.32322 32.158766,21.979434 L 37.068811,17.246167 C 37.068811,17.246167 37.088388,32 37.088388,32 L 22.160133,31.978069 C 22.160133,31.978069 26.997745,27.140456 26.997745,27.140456 C 18.528582,18.264221 13.291696,25.230495 11.500037,31.436501 z"
             style="fill:#404040;"/>
          </a>
         </g>
        </svg>
</svg>
