<?xml version="1.0" encoding="UTF-8" standalone="no"?>
<!DOCTYPE svg PUBLIC "-//W3C//DTD SVG 1.1//EN"
 "http://www.w3.org/Graphics/SVG/1.1/DTD/svg11.dtd">
<!-- Generated by graphviz version 2.40.1 (20161225.0304)
 -->
<!-- Title: JS_FreeAtomRT Pages: 1 -->
<svg width="502pt" height="85pt"
 viewBox="0.00 0.00 502.00 85.00" xmlns="http://www.w3.org/2000/svg" xmlns:xlink="http://www.w3.org/1999/xlink">
<g id="graph0" class="graph" transform="scale(1 1) rotate(0) translate(4 81)">
<title>JS_FreeAtomRT</title>
<!-- Node22618 -->
<g id="node1" class="node">
<title>Node22618</title>
<polygon fill="#bfbfbf" stroke="#000000" points="0,-38.5 0,-57.5 89,-57.5 89,-38.5 0,-38.5"/>
<text text-anchor="middle" x="44.5" y="-45.5" font-family="Helvetica,sans-Serif" font-size="10.00" fill="#000000">JS_FreeAtomRT</text>
</g>
<!-- Node22619 -->
<g id="node2" class="node">
<title>Node22619</title>
<g id="a_node2"><a xlink:href="quickjs_8c.html#a7f6796ee7a195631366f57c713a33f65" target="_top" xlink:title="__JS_AtomIsConst">
<polygon fill="none" stroke="#000000" points="125,-57.5 125,-76.5 229,-76.5 229,-57.5 125,-57.5"/>
<text text-anchor="middle" x="177" y="-64.5" font-family="Helvetica,sans-Serif" font-size="10.00" fill="#000000">__JS_AtomIsConst</text>
</a>
</g>
</g>
<!-- Node22618&#45;&gt;Node22619 -->
<g id="edge1" class="edge">
<title>Node22618&#45;&gt;Node22619</title>
<path fill="none" stroke="#191970" d="M89.3585,-54.4325C97.5606,-55.6087 106.2528,-56.8551 114.8524,-58.0883"/>
<polygon fill="#191970" stroke="#191970" points="114.4746,-61.5698 124.8702,-59.5248 115.4683,-54.6407 114.4746,-61.5698"/>
</g>
<!-- Node22620 -->
<g id="node3" class="node">
<title>Node22620</title>
<g id="a_node3"><a xlink:href="quickjs_8c.html#a0bbd9e3ecd55e3ea6c9d44bfda382095" target="_top" xlink:title="__JS_FreeAtom">
<polygon fill="none" stroke="#000000" points="133,-19.5 133,-38.5 221,-38.5 221,-19.5 133,-19.5"/>
<text text-anchor="middle" x="177" y="-26.5" font-family="Helvetica,sans-Serif" font-size="10.00" fill="#000000">__JS_FreeAtom</text>
</a>
</g>
</g>
<!-- Node22618&#45;&gt;Node22620 -->
<g id="edge2" class="edge">
<title>Node22618&#45;&gt;Node22620</title>
<path fill="none" stroke="#191970" d="M89.3585,-41.5675C100.0498,-40.0344 111.5739,-38.3819 122.6403,-36.795"/>
<polygon fill="#191970" stroke="#191970" points="123.2357,-40.2455 132.6376,-35.3614 122.242,-33.3164 123.2357,-40.2455"/>
</g>
<!-- Node22621 -->
<g id="node4" class="node">
<title>Node22621</title>
<g id="a_node4"><a xlink:href="quickjs_8c.html#a58c8965dad50b15b75918a09f3d9dc7c" target="_top" xlink:title="JS_FreeAtomStruct">
<polygon fill="none" stroke="#000000" points="265,-19.5 265,-38.5 371,-38.5 371,-19.5 265,-19.5"/>
<text text-anchor="middle" x="318" y="-26.5" font-family="Helvetica,sans-Serif" font-size="10.00" fill="#000000">JS_FreeAtomStruct</text>
</a>
</g>
</g>
<!-- Node22620&#45;&gt;Node22621 -->
<g id="edge3" class="edge">
<title>Node22620&#45;&gt;Node22621</title>
<path fill="none" stroke="#191970" d="M221.2264,-29C231.8001,-29 243.2938,-29 254.5458,-29"/>
<polygon fill="#191970" stroke="#191970" points="254.778,-32.5001 264.7779,-29 254.7779,-25.5001 254.778,-32.5001"/>
</g>
<!-- Node22622 -->
<g id="node5" class="node">
<title>Node22622</title>
<g id="a_node5"><a xlink:href="quickjs_8c.html#aba70a7ff210dcedf19125863f2b12d4e" target="_top" xlink:title="atom_set_free">
<polygon fill="none" stroke="#000000" points="407,-38.5 407,-57.5 494,-57.5 494,-38.5 407,-38.5"/>
<text text-anchor="middle" x="450.5" y="-45.5" font-family="Helvetica,sans-Serif" font-size="10.00" fill="#000000">atom_set_free</text>
</a>
</g>
</g>
<!-- Node22621&#45;&gt;Node22622 -->
<g id="edge4" class="edge">
<title>Node22621&#45;&gt;Node22622</title>
<path fill="none" stroke="#191970" d="M371.1294,-36.6185C379.5238,-37.8223 388.211,-39.068 396.6222,-40.2741"/>
<polygon fill="#191970" stroke="#191970" points="396.3115,-43.7653 406.7071,-41.7203 397.3052,-36.8362 396.3115,-43.7653"/>
</g>
<!-- Node22623 -->
<g id="node6" class="node">
<title>Node22623</title>
<g id="a_node6"><a xlink:href="quickjs_8c.html#a69e19dda8a93d613203e0baa06f0ed8d" target="_top" xlink:title="js_free_rt">
<polygon fill="none" stroke="#000000" points="419.5,-.5 419.5,-19.5 481.5,-19.5 481.5,-.5 419.5,-.5"/>
<text text-anchor="middle" x="450.5" y="-7.5" font-family="Helvetica,sans-Serif" font-size="10.00" fill="#000000">js_free_rt</text>
</a>
</g>
</g>
<!-- Node22621&#45;&gt;Node22623 -->
<g id="edge5" class="edge">
<title>Node22621&#45;&gt;Node22623</title>
<path fill="none" stroke="#191970" d="M371.1294,-21.3815C383.8256,-19.5609 397.1916,-17.6442 409.2598,-15.9137"/>
<polygon fill="#191970" stroke="#191970" points="410.0798,-19.332 419.4817,-14.4479 409.0861,-12.4029 410.0798,-19.332"/>
</g>
</g>
</svg>
