<?xml version="1.0" encoding="UTF-8" standalone="no"?>
<!DOCTYPE svg PUBLIC "-//W3C//DTD SVG 1.1//EN"
 "http://www.w3.org/Graphics/SVG/1.1/DTD/svg11.dtd">
<!-- Generated by graphviz version 2.40.1 (20161225.0304)
 -->
<!-- Title: js_malloc_usable_size_unknown Pages: 1 -->
<svg width="557pt" height="66pt"
 viewBox="0.00 0.00 557.00 66.00" xmlns="http://www.w3.org/2000/svg" xmlns:xlink="http://www.w3.org/1999/xlink">
<g id="graph0" class="graph" transform="scale(1 1) rotate(0) translate(4 62)">
<title>js_malloc_usable_size_unknown</title>
<!-- Node51012 -->
<g id="node1" class="node">
<title>Node51012</title>
<polygon fill="#bfbfbf" stroke="#000000" points="0,-14 0,-44 125,-44 125,-14 0,-14"/>
<text text-anchor="start" x="8" y="-32" font-family="Helvetica,sans-Serif" font-size="10.00" fill="#000000">js_malloc_usable_size</text>
<text text-anchor="middle" x="62.5" y="-21" font-family="Helvetica,sans-Serif" font-size="10.00" fill="#000000">_unknown</text>
</g>
<!-- Node51013 -->
<g id="node2" class="node">
<title>Node51013</title>
<g id="a_node2"><a xlink:href="quickjs_8c.html#a27966451027feb455b5da12c1578771c" target="_top" xlink:title="JS_NewRuntime2">
<polygon fill="none" stroke="#000000" points="161,-19.5 161,-38.5 260,-38.5 260,-19.5 161,-19.5"/>
<text text-anchor="middle" x="210.5" y="-26.5" font-family="Helvetica,sans-Serif" font-size="10.00" fill="#000000">JS_NewRuntime2</text>
</a>
</g>
</g>
<!-- Node51012&#45;&gt;Node51013 -->
<g id="edge1" class="edge">
<title>Node51012&#45;&gt;Node51013</title>
<path fill="none" stroke="#191970" d="M135.3016,-29C143.8831,-29 152.486,-29 160.6486,-29"/>
<polygon fill="#191970" stroke="#191970" points="135.2654,-25.5001 125.2653,-29 135.2653,-32.5001 135.2654,-25.5001"/>
</g>
<!-- Node51014 -->
<g id="node3" class="node">
<title>Node51014</title>
<g id="a_node3"><a xlink:href="quickjs_8c.html#afc1ca27a266094085ebb43e2eea0dda2" target="_top" xlink:title="JS_NewRuntime">
<polygon fill="none" stroke="#000000" points="296,-19.5 296,-38.5 389,-38.5 389,-19.5 296,-19.5"/>
<text text-anchor="middle" x="342.5" y="-26.5" font-family="Helvetica,sans-Serif" font-size="10.00" fill="#000000">JS_NewRuntime</text>
</a>
</g>
</g>
<!-- Node51013&#45;&gt;Node51014 -->
<g id="edge2" class="edge">
<title>Node51013&#45;&gt;Node51014</title>
<path fill="none" stroke="#191970" d="M270.043,-29C278.6632,-29 287.4317,-29 295.7527,-29"/>
<polygon fill="#191970" stroke="#191970" points="270.0275,-25.5001 260.0275,-29 270.0274,-32.5001 270.0275,-25.5001"/>
</g>
<!-- Node51015 -->
<g id="node4" class="node">
<title>Node51015</title>
<g id="a_node4"><a xlink:href="classqjs_1_1Runtime.html#a0860a1339ff567f9f603c7bed4d670f9" target="_top" xlink:title="qjs::Runtime::Runtime">
<polygon fill="none" stroke="#000000" points="425,-38.5 425,-57.5 549,-57.5 549,-38.5 425,-38.5"/>
<text text-anchor="middle" x="487" y="-45.5" font-family="Helvetica,sans-Serif" font-size="10.00" fill="#000000">qjs::Runtime::Runtime</text>
</a>
</g>
</g>
<!-- Node51014&#45;&gt;Node51015 -->
<g id="edge3" class="edge">
<title>Node51014&#45;&gt;Node51015</title>
<path fill="none" stroke="#191970" d="M399.1026,-36.4426C407.5195,-37.5493 416.2341,-38.6951 424.7591,-39.8161"/>
<polygon fill="#191970" stroke="#191970" points="399.3871,-32.9499 389.0161,-35.1163 398.4745,-39.8902 399.3871,-32.9499"/>
</g>
<!-- Node51016 -->
<g id="node5" class="node">
<title>Node51016</title>
<g id="a_node5"><a xlink:href="quickjs-libc_8c.html#a1fbb3adc15e7b967479fc1940e99b67a" target="_top" xlink:title="worker_func">
<polygon fill="none" stroke="#ff0000" points="448.5,-.5 448.5,-19.5 525.5,-19.5 525.5,-.5 448.5,-.5"/>
<text text-anchor="middle" x="487" y="-7.5" font-family="Helvetica,sans-Serif" font-size="10.00" fill="#000000">worker_func</text>
</a>
</g>
</g>
<!-- Node51014&#45;&gt;Node51016 -->
<g id="edge4" class="edge">
<title>Node51014&#45;&gt;Node51016</title>
<path fill="none" stroke="#191970" d="M399.0986,-21.558C415.5811,-19.3907 433.2052,-17.0734 448.3123,-15.087"/>
<polygon fill="#191970" stroke="#191970" points="398.4745,-18.1098 389.0161,-22.8837 399.3871,-25.0501 398.4745,-18.1098"/>
</g>
</g>
</svg>
