<?xml version="1.0" encoding="UTF-8" standalone="no"?>
<!DOCTYPE svg PUBLIC "-//W3C//DTD SVG 1.1//EN"
 "http://www.w3.org/Graphics/SVG/1.1/DTD/svg11.dtd">
<!-- Generated by graphviz version 2.40.1 (20161225.0304)
 -->
<!-- Title: js_std_file_printf Pages: 1 -->
<!--zoomable 636 -->
<svg id="main" version="1.1" xmlns="http://www.w3.org/2000/svg" xmlns:xlink="http://www.w3.org/1999/xlink" xml:space="preserve" onload="init(evt)">
<style type="text/css"><![CDATA[
.edge:hover path { stroke: red; }
.edge:hover polygon { stroke: red; fill: red; }
]]></style>
<script type="text/javascript"><![CDATA[
var edges = document.getElementsByTagName('g');
if (edges && edges.length) {
  for (var i=0;i<edges.length;i++) {
    if (edges[i].id.substr(0,4)=='edge') {
      edges[i].setAttribute('class','edge');
    }
  }
}
]]></script>
        <defs>
                <circle id="rim" cx="0" cy="0" r="7"/>
                <circle id="rim2" cx="0" cy="0" r="3.5"/>
                <g id="zoomPlus">
                        <use xlink:href="#rim" fill="#404040">
                                <set attributeName="fill" to="#808080" begin="zoomplus.mouseover" end="zoomplus.mouseout"/>
                        </use>
                        <path d="M-4,0h8M0,-4v8" fill="none" stroke="white" stroke-width="1.5" pointer-events="none"/>
                </g>
                <g id="zoomMin">
                        <use xlink:href="#rim" fill="#404040">
                                <set attributeName="fill" to="#808080" begin="zoomminus.mouseover" end="zoomminus.mouseout"/>
                        </use>
                        <path d="M-4,0h8" fill="none" stroke="white" stroke-width="1.5" pointer-events="none"/>
                </g>
                <g id="dirArrow">
                        <path fill="none" stroke="white" stroke-width="1.5" d="M0,-3.0v7 M-2.5,-0.5L0,-3.0L2.5,-0.5"/>
                </g>
               <g id="resetDef">
                       <use xlink:href="#rim2" fill="#404040">
                               <set attributeName="fill" to="#808080" begin="reset.mouseover" end="reset.mouseout"/>
                       </use>
               </g>
        </defs>

<script type="text/javascript">
var viewWidth = 670;
var viewHeight = 636;
var sectionId = 'dynsection-43';
</script>
<script xlink:href="svgpan.js"/>
<svg id="graph" class="graph">
<g id="viewport">
<title>js_std_file_printf</title>
<!-- Node9936 -->
<g id="node1" class="node">
<title>Node9936</title>
<polygon fill="#bfbfbf" stroke="#000000" points="0,-285.5 0,-304.5 97,-304.5 97,-285.5 0,-285.5"/>
<text text-anchor="middle" x="48.5" y="-292.5" font-family="Helvetica,sans-Serif" font-size="10.00" fill="#000000">js_std_file_printf</text>
</g>
<!-- Node9937 -->
<g id="node2" class="node">
<title>Node9937</title>
<g id="a_node2"><a xlink:href="quickjs-libc_8c.html#a2abec3aeee82a6dd3dd063725bbeecfe" target="_top" xlink:title="js_printf_internal">
<polygon fill="none" stroke="#000000" points="133,-304.5 133,-323.5 232,-323.5 232,-304.5 133,-304.5"/>
<text text-anchor="middle" x="182.5" y="-311.5" font-family="Helvetica,sans-Serif" font-size="10.00" fill="#000000">js_printf_internal</text>
</a>
</g>
</g>
<!-- Node9936&#45;&gt;Node9937 -->
<g id="edge1" class="edge">
<title>Node9936&#45;&gt;Node9937</title>
<path fill="none" stroke="#191970" d="M97.2561,-301.9132C105.5391,-303.0876 114.2247,-304.3192 122.7518,-305.5282"/>
<polygon fill="#191970" stroke="#191970" points="122.2631,-308.9939 132.6554,-306.9325 123.2458,-302.0632 122.2631,-308.9939"/>
</g>
<!-- Node10381 -->
<g id="node30" class="node">
<title>Node10381</title>
<g id="a_node30"><a xlink:href="quickjs-libc_8c.html#ae0b015235e2737bee13533c992f0b71b" target="_top" xlink:title="js_std_file_get">
<polygon fill="none" stroke="#000000" points="139.5,-266.5 139.5,-285.5 225.5,-285.5 225.5,-266.5 139.5,-266.5"/>
<text text-anchor="middle" x="182.5" y="-273.5" font-family="Helvetica,sans-Serif" font-size="10.00" fill="#000000">js_std_file_get</text>
</a>
</g>
</g>
<!-- Node9936&#45;&gt;Node10381 -->
<g id="edge32" class="edge">
<title>Node9936&#45;&gt;Node10381</title>
<path fill="none" stroke="#191970" d="M97.2561,-288.0868C107.6905,-286.6073 118.7639,-285.0372 129.3544,-283.5356"/>
<polygon fill="#191970" stroke="#191970" points="129.914,-286.9913 139.3235,-282.122 128.9312,-280.0607 129.914,-286.9913"/>
</g>
<!-- Node9938 -->
<g id="node3" class="node">
<title>Node9938</title>
<g id="a_node3"><a xlink:href="cutils_8h.html#a8a3b715fc2146312b777c4e3db546b55" target="_top" xlink:title="dbuf_free">
<polygon fill="none" stroke="#000000" points="301,-608.5 301,-627.5 364,-627.5 364,-608.5 301,-608.5"/>
<text text-anchor="middle" x="332.5" y="-615.5" font-family="Helvetica,sans-Serif" font-size="10.00" fill="#000000">dbuf_free</text>
</a>
</g>
</g>
<!-- Node9937&#45;&gt;Node9938 -->
<g id="edge2" class="edge">
<title>Node9937&#45;&gt;Node9938</title>
<path fill="none" stroke="#191970" d="M184.2882,-323.7883C192.6199,-368.4462 228.8825,-552.4682 268,-594 274.3091,-600.6985 282.6597,-605.5387 291.2525,-609.0325"/>
<polygon fill="#191970" stroke="#191970" points="290.3662,-612.4305 300.9611,-612.4324 292.6799,-605.8239 290.3662,-612.4305"/>
</g>
<!-- Node9939 -->
<g id="node4" class="node">
<title>Node9939</title>
<g id="a_node4"><a xlink:href="cutils_8h.html#ad1cfaae47347ae771136b5a9bbda49aa" target="_top" xlink:title="dbuf_put">
<polygon fill="none" stroke="#000000" points="461.5,-551.5 461.5,-570.5 520.5,-570.5 520.5,-551.5 461.5,-551.5"/>
<text text-anchor="middle" x="491" y="-558.5" font-family="Helvetica,sans-Serif" font-size="10.00" fill="#000000">dbuf_put</text>
</a>
</g>
</g>
<!-- Node9937&#45;&gt;Node9939 -->
<g id="edge3" class="edge">
<title>Node9937&#45;&gt;Node9939</title>
<path fill="none" stroke="#191970" d="M184.2868,-323.5098C192.3426,-365.2655 226.6919,-531.586 268,-561 322.4692,-599.7855 404.9454,-586.2363 452.8448,-573.3153"/>
<polygon fill="#191970" stroke="#191970" points="453.8444,-576.67 462.5187,-570.5867 451.944,-569.9329 453.8444,-576.67"/>
</g>
<!-- Node9941 -->
<g id="node6" class="node">
<title>Node9941</title>
<g id="a_node6"><a xlink:href="cutils_8h.html#aeed81d4787ccdbd55baa9b5fd6717e88" target="_top" xlink:title="dbuf_putc">
<polygon fill="none" stroke="#000000" points="300,-532.5 300,-551.5 365,-551.5 365,-532.5 300,-532.5"/>
<text text-anchor="middle" x="332.5" y="-539.5" font-family="Helvetica,sans-Serif" font-size="10.00" fill="#000000">dbuf_putc</text>
</a>
</g>
</g>
<!-- Node9937&#45;&gt;Node9941 -->
<g id="edge5" class="edge">
<title>Node9937&#45;&gt;Node9941</title>
<path fill="none" stroke="#191970" d="M183.5068,-323.5564C187.4914,-356.4749 205.1522,-466.2479 268,-523 274.2211,-528.6177 282.0268,-532.5789 290.0387,-535.3707"/>
<polygon fill="#191970" stroke="#191970" points="289.2407,-538.7839 299.821,-538.229 291.204,-532.0648 289.2407,-538.7839"/>
</g>
<!-- Node9942 -->
<g id="node7" class="node">
<title>Node9942</title>
<g id="a_node7"><a xlink:href="quickjs_8c.html#ae0bc4f65da64810facb2cb9e476eda2e" target="_top" xlink:title="JS_FreeCString">
<polygon fill="none" stroke="#000000" points="289.5,-494.5 289.5,-513.5 375.5,-513.5 375.5,-494.5 289.5,-494.5"/>
<text text-anchor="middle" x="332.5" y="-501.5" font-family="Helvetica,sans-Serif" font-size="10.00" fill="#000000">JS_FreeCString</text>
</a>
</g>
</g>
<!-- Node9937&#45;&gt;Node9942 -->
<g id="edge7" class="edge">
<title>Node9937&#45;&gt;Node9942</title>
<path fill="none" stroke="#191970" d="M184.5182,-323.8273C191.0347,-353.032 214.2911,-440.0537 268,-485 271.6677,-488.0693 275.8134,-490.6429 280.1902,-492.8007"/>
<polygon fill="#191970" stroke="#191970" points="278.844,-496.0314 289.4195,-496.6717 281.5515,-489.5762 278.844,-496.0314"/>
</g>
<!-- Node9981 -->
<g id="node9" class="node">
<title>Node9981</title>
<g id="a_node9"><a xlink:href="quickjs_8h.html#aa53b9197dc6d5770e3a080c1e335f7cb" target="_top" xlink:title="JS_IsString">
<polygon fill="none" stroke="#000000" points="298.5,-456.5 298.5,-475.5 366.5,-475.5 366.5,-456.5 298.5,-456.5"/>
<text text-anchor="middle" x="332.5" y="-463.5" font-family="Helvetica,sans-Serif" font-size="10.00" fill="#000000">JS_IsString</text>
</a>
</g>
</g>
<!-- Node9937&#45;&gt;Node9981 -->
<g id="edge9" class="edge">
<title>Node9937&#45;&gt;Node9981</title>
<path fill="none" stroke="#191970" d="M185.9658,-323.7153C195.2291,-348.2707 222.964,-413.2607 268,-447 274.0377,-451.5232 281.1374,-454.9736 288.3783,-457.6044"/>
<polygon fill="#191970" stroke="#191970" points="287.6637,-461.0486 298.253,-460.7079 289.7625,-454.3706 287.6637,-461.0486"/>
</g>
<!-- Node9982 -->
<g id="node10" class="node">
<title>Node9982</title>
<g id="a_node10"><a xlink:href="quickjs_8h.html#a2050bc428da1c65ac7eb87c3fa3b0392" target="_top" xlink:title="JS_NewInt32">
<polygon fill="none" stroke="#000000" points="294,-418.5 294,-437.5 371,-437.5 371,-418.5 294,-418.5"/>
<text text-anchor="middle" x="332.5" y="-425.5" font-family="Helvetica,sans-Serif" font-size="10.00" fill="#000000">JS_NewInt32</text>
</a>
</g>
</g>
<!-- Node9937&#45;&gt;Node9982 -->
<g id="edge10" class="edge">
<title>Node9937&#45;&gt;Node9982</title>
<path fill="none" stroke="#191970" d="M188.5144,-323.6824C200.9454,-342.8875 231.3915,-385.9346 268,-409 272.9986,-412.1494 278.5416,-414.7961 284.2184,-417.0158"/>
<polygon fill="#191970" stroke="#191970" points="283.2312,-420.3781 293.826,-420.3617 285.5334,-413.7675 283.2312,-420.3781"/>
</g>
<!-- Node9983 -->
<g id="node11" class="node">
<title>Node9983</title>
<g id="a_node11"><a xlink:href="quickjs_8c.html#ac34cc554aab1e98c45a7f845fff64385" target="_top" xlink:title="JS_NewStringLen">
<polygon fill="none" stroke="#000000" points="283.5,-342.5 283.5,-361.5 381.5,-361.5 381.5,-342.5 283.5,-342.5"/>
<text text-anchor="middle" x="332.5" y="-349.5" font-family="Helvetica,sans-Serif" font-size="10.00" fill="#000000">JS_NewStringLen</text>
</a>
</g>
</g>
<!-- Node9937&#45;&gt;Node9983 -->
<g id="edge11" class="edge">
<title>Node9937&#45;&gt;Node9983</title>
<path fill="none" stroke="#191970" d="M220.3513,-323.589C239.9671,-328.5583 264.1187,-334.6767 284.979,-339.9613"/>
<polygon fill="#191970" stroke="#191970" points="284.3675,-343.4169 294.9209,-342.4799 286.0866,-336.6313 284.3675,-343.4169"/>
</g>
<!-- Node10004 -->
<g id="node17" class="node">
<title>Node10004</title>
<g id="a_node17"><a xlink:href="cutils_8h.html#a69529af6d6911dd0ead90eef221b2e10" target="_top" xlink:title="unicode_from_utf8">
<polygon fill="none" stroke="#000000" points="437,-171.5 437,-190.5 545,-190.5 545,-171.5 437,-171.5"/>
<text text-anchor="middle" x="491" y="-178.5" font-family="Helvetica,sans-Serif" font-size="10.00" fill="#000000">unicode_from_utf8</text>
</a>
</g>
</g>
<!-- Node9937&#45;&gt;Node10004 -->
<g id="edge30" class="edge">
<title>Node9937&#45;&gt;Node10004</title>
<path fill="none" stroke="#191970" d="M232.0378,-323.4628C279.2478,-329.5513 349.9211,-330.6752 397,-295 432.987,-267.73 400.3521,-231.1903 433,-200 434.6496,-198.424 436.4321,-196.9787 438.3133,-195.6533"/>
<polygon fill="#191970" stroke="#191970" points="440.1857,-198.6136 447.0886,-190.5761 436.6801,-192.5546 440.1857,-198.6136"/>
</g>
<!-- Node10009 -->
<g id="node21" class="node">
<title>Node10009</title>
<g id="a_node21"><a xlink:href="quickjs-libc_8c.html#abc010e21334ba999f6ad18a681caf4fb" target="_top" xlink:title="js_std_dbuf_init">
<polygon fill="none" stroke="#ff0000" points="286,-266.5 286,-285.5 379,-285.5 379,-266.5 286,-266.5"/>
<text text-anchor="middle" x="332.5" y="-273.5" font-family="Helvetica,sans-Serif" font-size="10.00" fill="#000000">js_std_dbuf_init</text>
</a>
</g>
</g>
<!-- Node9937&#45;&gt;Node10009 -->
<g id="edge21" class="edge">
<title>Node9937&#45;&gt;Node10009</title>
<path fill="none" stroke="#191970" d="M220.3513,-304.411C239.9671,-299.4417 264.1187,-293.3233 284.979,-288.0387"/>
<polygon fill="#191970" stroke="#191970" points="286.0866,-291.3687 294.9209,-285.5201 284.3675,-284.5831 286.0866,-291.3687"/>
</g>
<!-- Node9994 -->
<g id="node22" class="node">
<title>Node9994</title>
<g id="a_node22"><a xlink:href="quickjs_8c.html#a344d6c0e45d9bf3861fd9269724045a2" target="_top" xlink:title="JS_ThrowOutOfMemory">
<polygon fill="none" stroke="#000000" points="268,-380.5 268,-399.5 397,-399.5 397,-380.5 268,-380.5"/>
<text text-anchor="middle" x="332.5" y="-387.5" font-family="Helvetica,sans-Serif" font-size="10.00" fill="#000000">JS_ThrowOutOfMemory</text>
</a>
</g>
</g>
<!-- Node9937&#45;&gt;Node9994 -->
<g id="edge22" class="edge">
<title>Node9937&#45;&gt;Node9994</title>
<path fill="none" stroke="#191970" d="M194.2678,-323.5378C210.148,-335.9983 239.7171,-357.7803 268,-371 272.9572,-373.3171 278.2616,-375.4226 283.6198,-377.3164"/>
<polygon fill="#191970" stroke="#191970" points="282.6662,-380.6873 293.2593,-380.4966 284.8593,-374.0397 282.6662,-380.6873"/>
</g>
<!-- Node10014 -->
<g id="node23" class="node">
<title>Node10014</title>
<g id="a_node23"><a xlink:href="quickjs_8h.html#af931f06630ab719b5f82a16eb27effd1" target="_top" xlink:title="JS_ToCString">
<polygon fill="none" stroke="#ff0000" points="294,-228.5 294,-247.5 371,-247.5 371,-228.5 294,-228.5"/>
<text text-anchor="middle" x="332.5" y="-235.5" font-family="Helvetica,sans-Serif" font-size="10.00" fill="#000000">JS_ToCString</text>
</a>
</g>
</g>
<!-- Node9937&#45;&gt;Node10014 -->
<g id="edge24" class="edge">
<title>Node9937&#45;&gt;Node10014</title>
<path fill="none" stroke="#191970" d="M213.6575,-304.4804C219.9891,-301.8856 226.4143,-298.7356 232,-295 251.3384,-282.0671 248.1597,-269.149 268,-257 273.0384,-253.9148 278.6055,-251.3068 284.2954,-249.1081"/>
<polygon fill="#191970" stroke="#191970" points="285.6079,-252.3576 293.9152,-245.7819 283.3204,-245.7419 285.6079,-252.3576"/>
</g>
<!-- Node10086 -->
<g id="node24" class="node">
<title>Node10086</title>
<g id="a_node24"><a xlink:href="quickjs_8h.html#a1e7f56471f8608df9405987087a56070" target="_top" xlink:title="JS_ToCStringLen">
<polygon fill="none" stroke="#ff0000" points="285.5,-190.5 285.5,-209.5 379.5,-209.5 379.5,-190.5 285.5,-190.5"/>
<text text-anchor="middle" x="332.5" y="-197.5" font-family="Helvetica,sans-Serif" font-size="10.00" fill="#000000">JS_ToCStringLen</text>
</a>
</g>
</g>
<!-- Node9937&#45;&gt;Node10086 -->
<g id="edge25" class="edge">
<title>Node9937&#45;&gt;Node10086</title>
<path fill="none" stroke="#191970" d="M217.4848,-304.4874C222.7526,-301.9944 227.8143,-298.8796 232,-295 259.412,-269.5929 239.5936,-243.2902 268,-219 270.5286,-216.8378 273.2936,-214.9215 276.211,-213.2233"/>
<polygon fill="#191970" stroke="#191970" points="277.895,-216.2958 285.3366,-208.7544 274.8163,-210.0092 277.895,-216.2958"/>
</g>
<!-- Node10153 -->
<g id="node25" class="node">
<title>Node10153</title>
<g id="a_node25"><a xlink:href="quickjs_8c.html#a8cc9386cd04cfa067d0c6bf588c6bb58" target="_top" xlink:title="JS_ToFloat64">
<polygon fill="none" stroke="#ff0000" points="294,-152.5 294,-171.5 371,-171.5 371,-152.5 294,-152.5"/>
<text text-anchor="middle" x="332.5" y="-159.5" font-family="Helvetica,sans-Serif" font-size="10.00" fill="#000000">JS_ToFloat64</text>
</a>
</g>
</g>
<!-- Node9937&#45;&gt;Node10153 -->
<g id="edge26" class="edge">
<title>Node9937&#45;&gt;Node10153</title>
<path fill="none" stroke="#191970" d="M218.9621,-304.4612C223.799,-301.9893 228.3409,-298.8879 232,-295 268.4149,-256.308 230.0665,-218.2043 268,-181 272.5942,-176.4941 278.2006,-173.0477 284.1703,-170.4135"/>
<polygon fill="#191970" stroke="#191970" points="285.5677,-173.6292 293.7568,-166.907 283.163,-167.0552 285.5677,-173.6292"/>
</g>
<!-- Node10097 -->
<g id="node26" class="node">
<title>Node10097</title>
<g id="a_node26"><a xlink:href="quickjs_8c.html#a4073bd2b4f247bf6077cd956759193b9" target="_top" xlink:title="JS_ToInt32">
<polygon fill="none" stroke="#ff0000" points="299.5,-114.5 299.5,-133.5 365.5,-133.5 365.5,-114.5 299.5,-114.5"/>
<text text-anchor="middle" x="332.5" y="-121.5" font-family="Helvetica,sans-Serif" font-size="10.00" fill="#000000">JS_ToInt32</text>
</a>
</g>
</g>
<!-- Node9937&#45;&gt;Node10097 -->
<g id="edge27" class="edge">
<title>Node9937&#45;&gt;Node10097</title>
<path fill="none" stroke="#191970" d="M219.7177,-304.4357C224.3299,-301.9729 228.6071,-298.8808 232,-295 277.6953,-242.7344 220.2505,-193.3958 268,-143 273.8863,-136.7875 281.6909,-132.575 289.8325,-129.7265"/>
<polygon fill="#191970" stroke="#191970" points="290.8006,-133.09 299.4499,-126.9711 288.8726,-126.3607 290.8006,-133.09"/>
</g>
<!-- Node10374 -->
<g id="node27" class="node">
<title>Node10374</title>
<g id="a_node27"><a xlink:href="quickjs_8c.html#acbddbd012155853a1d93ae7bb4055f0d" target="_top" xlink:title="JS_ToInt64Ext">
<polygon fill="none" stroke="#ff0000" points="291.5,-76.5 291.5,-95.5 373.5,-95.5 373.5,-76.5 291.5,-76.5"/>
<text text-anchor="middle" x="332.5" y="-83.5" font-family="Helvetica,sans-Serif" font-size="10.00" fill="#000000">JS_ToInt64Ext</text>
</a>
</g>
</g>
<!-- Node9937&#45;&gt;Node10374 -->
<g id="edge28" class="edge">
<title>Node9937&#45;&gt;Node10374</title>
<path fill="none" stroke="#191970" d="M220.3704,-304.306C224.7694,-301.8665 228.8138,-298.8153 232,-295 287.0904,-229.031 210.3148,-168.7125 268,-105 271.8196,-100.7813 276.5234,-97.4804 281.6363,-94.9006"/>
<polygon fill="#191970" stroke="#191970" points="283.2504,-98.0218 291.1784,-90.9934 280.5978,-91.5438 283.2504,-98.0218"/>
</g>
<!-- Node10380 -->
<g id="node28" class="node">
<title>Node10380</title>
<g id="a_node28"><a xlink:href="quickjs-libc_8c.html#acb6dcc807b8e12d0878a0cec8a24ad76" target="_top" xlink:title="my_isdigit">
<polygon fill="none" stroke="#000000" points="298.5,-38.5 298.5,-57.5 366.5,-57.5 366.5,-38.5 298.5,-38.5"/>
<text text-anchor="middle" x="332.5" y="-45.5" font-family="Helvetica,sans-Serif" font-size="10.00" fill="#000000">my_isdigit</text>
</a>
</g>
</g>
<!-- Node9937&#45;&gt;Node10380 -->
<g id="edge29" class="edge">
<title>Node9937&#45;&gt;Node10380</title>
<path fill="none" stroke="#191970" d="M220.4804,-304.3964C224.8622,-301.9428 228.8727,-298.8637 232,-295 296.543,-215.2589 200.3188,-144.0954 268,-67 273.4753,-60.7631 280.8839,-56.525 288.7298,-53.6565"/>
<polygon fill="#191970" stroke="#191970" points="289.8179,-56.9846 298.4163,-50.7945 287.8344,-50.2715 289.8179,-56.9846"/>
</g>
<!-- Node10172 -->
<g id="node29" class="node">
<title>Node10172</title>
<g id="a_node29"><a xlink:href="cutils_8h.html#aad4e0decb15ab19e9f45b0ee69542a28" target="_top" xlink:title="unicode_to_utf8">
<polygon fill="none" stroke="#000000" points="285,-.5 285,-19.5 380,-19.5 380,-.5 285,-.5"/>
<text text-anchor="middle" x="332.5" y="-7.5" font-family="Helvetica,sans-Serif" font-size="10.00" fill="#000000">unicode_to_utf8</text>
</a>
</g>
</g>
<!-- Node9937&#45;&gt;Node10172 -->
<g id="edge31" class="edge">
<title>Node9937&#45;&gt;Node10172</title>
<path fill="none" stroke="#191970" d="M220.5604,-304.4604C224.9299,-301.9969 228.9155,-298.898 232,-295 306.0285,-201.4464 190.2884,-119.5174 268,-29 270.3525,-26.2598 273.0785,-23.9044 276.0532,-21.8808"/>
<polygon fill="#191970" stroke="#191970" points="277.8838,-24.8693 284.9918,-17.0126 274.5358,-18.7219 277.8838,-24.8693"/>
</g>
<!-- Node9940 -->
<g id="node5" class="node">
<title>Node9940</title>
<g id="a_node5"><a xlink:href="cutils_8h.html#ac0b9ce26415947e972d6781d9f2fb11b" target="_top" xlink:title="dbuf_realloc">
<polygon fill="none" stroke="#000000" points="585,-551.5 585,-570.5 662,-570.5 662,-551.5 585,-551.5"/>
<text text-anchor="middle" x="623.5" y="-558.5" font-family="Helvetica,sans-Serif" font-size="10.00" fill="#000000">dbuf_realloc</text>
</a>
</g>
</g>
<!-- Node9939&#45;&gt;Node9940 -->
<g id="edge4" class="edge">
<title>Node9939&#45;&gt;Node9940</title>
<path fill="none" stroke="#191970" d="M520.7356,-561C536.6274,-561 556.5957,-561 574.6939,-561"/>
<polygon fill="#191970" stroke="#191970" points="574.8026,-564.5001 584.8026,-561 574.8026,-557.5001 574.8026,-564.5001"/>
</g>
<!-- Node9941&#45;&gt;Node9939 -->
<g id="edge6" class="edge">
<title>Node9941&#45;&gt;Node9939</title>
<path fill="none" stroke="#191970" d="M365.3413,-545.9368C390.3166,-548.9307 424.7866,-553.0627 451.3076,-556.2419"/>
<polygon fill="#191970" stroke="#191970" points="451.0626,-559.7375 461.4081,-557.4527 451.8958,-552.7873 451.0626,-559.7375"/>
</g>
<!-- Node9943 -->
<g id="node8" class="node">
<title>Node9943</title>
<g id="a_node8"><a xlink:href="quickjs_8h.html#afaa20c47565bc704c6c85f3d77254e7d" target="_top" xlink:title="JS_FreeValue">
<polygon fill="none" stroke="#ff0000" points="452,-513.5 452,-532.5 530,-532.5 530,-513.5 452,-513.5"/>
<text text-anchor="middle" x="491" y="-520.5" font-family="Helvetica,sans-Serif" font-size="10.00" fill="#000000">JS_FreeValue</text>
</a>
</g>
</g>
<!-- Node9942&#45;&gt;Node9943 -->
<g id="edge8" class="edge">
<title>Node9942&#45;&gt;Node9943</title>
<path fill="none" stroke="#191970" d="M375.8108,-509.1918C396.2119,-511.6374 420.6443,-514.5662 441.7474,-517.0959"/>
<polygon fill="#191970" stroke="#191970" points="441.462,-520.5867 451.8075,-518.3018 442.2952,-513.6364 441.462,-520.5867"/>
</g>
<!-- Node9984 -->
<g id="node12" class="node">
<title>Node9984</title>
<g id="a_node12"><a xlink:href="quickjs_8c.html#a853f0924d441ea4225488f37c8b69f9a" target="_top" xlink:title="__attribute__">
<polygon fill="none" stroke="#000000" points="451,-475.5 451,-494.5 531,-494.5 531,-475.5 451,-475.5"/>
<text text-anchor="middle" x="491" y="-482.5" font-family="Helvetica,sans-Serif" font-size="10.00" fill="#000000">__attribute__</text>
</a>
</g>
</g>
<!-- Node9983&#45;&gt;Node9984 -->
<g id="edge12" class="edge">
<title>Node9983&#45;&gt;Node9984</title>
<path fill="none" stroke="#191970" d="M381.6165,-361.1051C387.2437,-363.6391 392.5482,-366.8733 397,-371 430.1135,-401.6954 400.3521,-434.8097 433,-466 435.6073,-468.4909 438.5464,-470.6553 441.6829,-472.536"/>
<polygon fill="#191970" stroke="#191970" points="440.4195,-475.8161 450.9337,-477.1206 443.5279,-469.5441 440.4195,-475.8161"/>
</g>
<!-- Node9985 -->
<g id="node13" class="node">
<title>Node9985</title>
<g id="a_node13"><a xlink:href="quickjs_8c.html#aa923510185fe24e3083baf7405b09f51" target="_top" xlink:title="js_new_string8">
<polygon fill="none" stroke="#ff0000" points="446.5,-437.5 446.5,-456.5 535.5,-456.5 535.5,-437.5 446.5,-437.5"/>
<text text-anchor="middle" x="491" y="-444.5" font-family="Helvetica,sans-Serif" font-size="10.00" fill="#000000">js_new_string8</text>
</a>
</g>
</g>
<!-- Node9983&#45;&gt;Node9985 -->
<g id="edge13" class="edge">
<title>Node9983&#45;&gt;Node9985</title>
<path fill="none" stroke="#191970" d="M379.8732,-361.5884C385.9781,-364.0457 391.877,-367.1299 397,-371 420.9077,-389.0609 409.3668,-409.5813 433,-428 435.3114,-429.8014 437.8003,-431.4353 440.4014,-432.9169"/>
<polygon fill="#191970" stroke="#191970" points="439.0593,-436.1563 449.5822,-437.3896 442.1251,-429.8634 439.0593,-436.1563"/>
</g>
<!-- Node9995 -->
<g id="node14" class="node">
<title>Node9995</title>
<g id="a_node14"><a xlink:href="quickjs_8c.html#a9c11961b0adafedd064b294612d0c2f3" target="_top" xlink:title="string_buffer_init">
<polygon fill="none" stroke="#ff0000" points="441.5,-399.5 441.5,-418.5 540.5,-418.5 540.5,-399.5 441.5,-399.5"/>
<text text-anchor="middle" x="491" y="-406.5" font-family="Helvetica,sans-Serif" font-size="10.00" fill="#000000">string_buffer_init</text>
</a>
</g>
</g>
<!-- Node9983&#45;&gt;Node9995 -->
<g id="edge14" class="edge">
<title>Node9983&#45;&gt;Node9995</title>
<path fill="none" stroke="#191970" d="M369.4341,-361.506C378.5665,-364.2302 388.2402,-367.4397 397,-371 413.7602,-377.812 416.3442,-382.9365 433,-390 438.0604,-392.146 443.4515,-394.2025 448.8316,-396.1176"/>
<polygon fill="#191970" stroke="#191970" points="447.8353,-399.4759 458.4298,-399.4009 450.1009,-392.8526 447.8353,-399.4759"/>
</g>
<!-- Node9997 -->
<g id="node15" class="node">
<title>Node9997</title>
<g id="a_node15"><a xlink:href="quickjs_8c.html#a0b130652cf11eb0eb9f7e3ee6c5d7c6a" target="_top" xlink:title="string_buffer_write8">
<polygon fill="none" stroke="#ff0000" points="434,-361.5 434,-380.5 548,-380.5 548,-361.5 434,-361.5"/>
<text text-anchor="middle" x="491" y="-368.5" font-family="Helvetica,sans-Serif" font-size="10.00" fill="#000000">string_buffer_write8</text>
</a>
</g>
</g>
<!-- Node9983&#45;&gt;Node9997 -->
<g id="edge15" class="edge">
<title>Node9983&#45;&gt;Node9997</title>
<path fill="none" stroke="#191970" d="M381.7816,-357.9076C395.0905,-359.503 409.7218,-361.2569 423.8301,-362.9481"/>
<polygon fill="#191970" stroke="#191970" points="423.6388,-366.4501 433.9843,-364.1653 424.472,-359.4999 423.6388,-366.4501"/>
</g>
<!-- Node10003 -->
<g id="node16" class="node">
<title>Node10003</title>
<g id="a_node16"><a xlink:href="quickjs_8c.html#a874fcee73f61cc997ec1d10cc6711554" target="_top" xlink:title="string_buffer_putc8">
<polygon fill="none" stroke="#ff0000" points="436,-323.5 436,-342.5 546,-342.5 546,-323.5 436,-323.5"/>
<text text-anchor="middle" x="491" y="-330.5" font-family="Helvetica,sans-Serif" font-size="10.00" fill="#000000">string_buffer_putc8</text>
</a>
</g>
</g>
<!-- Node9983&#45;&gt;Node10003 -->
<g id="edge16" class="edge">
<title>Node9983&#45;&gt;Node10003</title>
<path fill="none" stroke="#191970" d="M381.7816,-346.0924C395.7366,-344.4196 411.1455,-342.5725 425.8808,-340.8061"/>
<polygon fill="#191970" stroke="#191970" points="426.4361,-344.2647 435.9484,-339.5992 425.6029,-337.3144 426.4361,-344.2647"/>
</g>
<!-- Node9983&#45;&gt;Node10004 -->
<g id="edge17" class="edge">
<title>Node9983&#45;&gt;Node10004</title>
<path fill="none" stroke="#191970" d="M375.531,-342.4335C383.5197,-338.9939 391.1717,-334.3273 397,-328 437.0382,-284.534 392.108,-242.6637 433,-200 434.4022,-198.537 435.9187,-197.1866 437.5244,-195.94"/>
<polygon fill="#191970" stroke="#191970" points="439.5543,-198.7989 446.1821,-190.5331 435.8462,-192.8616 439.5543,-198.7989"/>
</g>
<!-- Node10005 -->
<g id="node18" class="node">
<title>Node10005</title>
<g id="a_node18"><a xlink:href="quickjs_8c.html#a9b8fb6b5ce638616691f7bf7881fa57d" target="_top" xlink:title="string_buffer_putc16">
<polygon fill="none" stroke="#ff0000" points="433,-285.5 433,-304.5 549,-304.5 549,-285.5 433,-285.5"/>
<text text-anchor="middle" x="491" y="-292.5" font-family="Helvetica,sans-Serif" font-size="10.00" fill="#000000">string_buffer_putc16</text>
</a>
</g>
</g>
<!-- Node9983&#45;&gt;Node10005 -->
<g id="edge18" class="edge">
<title>Node9983&#45;&gt;Node10005</title>
<path fill="none" stroke="#191970" d="M358.5808,-342.3944C370.3353,-338.0398 384.3812,-332.801 397,-328 413.0452,-321.8953 416.8369,-319.7854 433,-314 438.7519,-311.9412 444.8549,-309.846 450.8591,-307.8352"/>
<polygon fill="#191970" stroke="#191970" points="452.3947,-311.0139 460.791,-304.5523 450.1977,-304.3676 452.3947,-311.0139"/>
</g>
<!-- Node10007 -->
<g id="node19" class="node">
<title>Node10007</title>
<g id="a_node19"><a xlink:href="quickjs_8c.html#accfc3d1dcaa88c88402cb245ccaf4fdb" target="_top" xlink:title="string_buffer_end">
<polygon fill="none" stroke="#ff0000" points="440.5,-247.5 440.5,-266.5 541.5,-266.5 541.5,-247.5 440.5,-247.5"/>
<text text-anchor="middle" x="491" y="-254.5" font-family="Helvetica,sans-Serif" font-size="10.00" fill="#000000">string_buffer_end</text>
</a>
</g>
</g>
<!-- Node9983&#45;&gt;Node10007 -->
<g id="edge19" class="edge">
<title>Node9983&#45;&gt;Node10007</title>
<path fill="none" stroke="#191970" d="M369.9928,-342.3974C379.4076,-338.8605 389.0759,-334.1593 397,-328 419.1933,-310.7495 410.4691,-292.8072 433,-276 435.5095,-274.128 438.2123,-272.4351 441.0304,-270.9047"/>
<polygon fill="#191970" stroke="#191970" points="442.7563,-273.9614 450.328,-266.5507 439.7875,-267.6221 442.7563,-273.9614"/>
</g>
<!-- Node10008 -->
<g id="node20" class="node">
<title>Node10008</title>
<g id="a_node20"><a xlink:href="quickjs_8c.html#a266b4993a59d9e34537386e62b9f3d4f" target="_top" xlink:title="string_buffer_free">
<polygon fill="none" stroke="#ff0000" points="439.5,-209.5 439.5,-228.5 542.5,-228.5 542.5,-209.5 439.5,-209.5"/>
<text text-anchor="middle" x="491" y="-216.5" font-family="Helvetica,sans-Serif" font-size="10.00" fill="#000000">string_buffer_free</text>
</a>
</g>
</g>
<!-- Node9983&#45;&gt;Node10008 -->
<g id="edge20" class="edge">
<title>Node9983&#45;&gt;Node10008</title>
<path fill="none" stroke="#191970" d="M373.6831,-342.4966C382.177,-339.0343 390.5016,-334.3424 397,-328 427.8308,-297.9091 401.5788,-267.4738 433,-238 434.6954,-236.4097 436.5261,-234.9525 438.4565,-233.6171"/>
<polygon fill="#191970" stroke="#191970" points="440.4824,-236.4916 447.4483,-228.5086 437.0246,-230.4052 440.4824,-236.4916"/>
</g>
<!-- Node9994&#45;&gt;Node9984 -->
<g id="edge23" class="edge">
<title>Node9994&#45;&gt;Node9984</title>
<path fill="none" stroke="#191970" d="M379.8732,-399.5884C385.9781,-402.0457 391.877,-405.1299 397,-409 420.9077,-427.0609 409.3668,-447.5813 433,-466 435.6326,-468.0518 438.4955,-469.8863 441.4922,-471.5259"/>
<polygon fill="#191970" stroke="#191970" points="440.2467,-474.8075 450.7869,-475.8827 443.2178,-468.4692 440.2467,-474.8075"/>
</g>
</g>
</svg>
        <g id="navigator" transform="translate(0 0)" fill="#404254">
                <rect fill="#f2f5e9" fill-opacity="0.5" stroke="#606060" stroke-width=".5" x="0" y="0" width="60" height="60"/>
                <use id="zoomplus" xlink:href="#zoomPlus" x="17" y="9" onmousedown="handleZoom(evt,'in')"/>
                <use id="zoomminus" xlink:href="#zoomMin" x="42" y="9" onmousedown="handleZoom(evt,'out')"/>
                <use id="reset" xlink:href="#resetDef" x="30" y="36" onmousedown="handleReset()"/>
                <g id="arrowUp" xlink:href="#dirArrow" transform="translate(30 24)" onmousedown="handlePan(0,-1)">
                  <use xlink:href="#rim" fill="#404040">
                        <set attributeName="fill" to="#808080" begin="arrowUp.mouseover" end="arrowUp.mouseout"/>
                  </use>
                  <path fill="none" stroke="white" stroke-width="1.5" d="M0,-3.0v7 M-2.5,-0.5L0,-3.0L2.5,-0.5"/>
                </g>
                <g id="arrowRight" xlink:href="#dirArrow" transform="rotate(90) translate(36 -43)" onmousedown="handlePan(1,0)">
                  <use xlink:href="#rim" fill="#404040">
                        <set attributeName="fill" to="#808080" begin="arrowRight.mouseover" end="arrowRight.mouseout"/>
                  </use>
                  <path fill="none" stroke="white" stroke-width="1.5" d="M0,-3.0v7 M-2.5,-0.5L0,-3.0L2.5,-0.5"/>
                </g>
                <g id="arrowDown" xlink:href="#dirArrow" transform="rotate(180) translate(-30 -48)" onmousedown="handlePan(0,1)">
                  <use xlink:href="#rim" fill="#404040">
                        <set attributeName="fill" to="#808080" begin="arrowDown.mouseover" end="arrowDown.mouseout"/>
                  </use>
                  <path fill="none" stroke="white" stroke-width="1.5" d="M0,-3.0v7 M-2.5,-0.5L0,-3.0L2.5,-0.5"/>
                </g>
                <g id="arrowLeft" xlink:href="#dirArrow" transform="rotate(270) translate(-36 17)" onmousedown="handlePan(-1,0)">
                  <use xlink:href="#rim" fill="#404040">
                        <set attributeName="fill" to="#808080" begin="arrowLeft.mouseover" end="arrowLeft.mouseout"/>
                  </use>
                  <path fill="none" stroke="white" stroke-width="1.5" d="M0,-3.0v7 M-2.5,-0.5L0,-3.0L2.5,-0.5"/>
                </g>
        </g>
        <svg viewBox="0 0 15 15" width="100%" height="30px" preserveAspectRatio="xMaxYMin meet">
         <g id="arrow_out" transform="scale(0.3 0.3)">
          <a xlink:href="quickjs-libc_8c_a2770356a19e5d09edcb7da0cecbfe0f8_cgraph_org.svg" target="_base">
           <rect id="button" ry="5" rx="5" y="6" x="6" height="38" width="38"
                fill="#f2f5e9" fill-opacity="0.5" stroke="#606060" stroke-width="1.0"/>
           <path id="arrow"
             d="M 11.500037,31.436501 C 11.940474,20.09759 22.043105,11.32322 32.158766,21.979434 L 37.068811,17.246167 C 37.068811,17.246167 37.088388,32 37.088388,32 L 22.160133,31.978069 C 22.160133,31.978069 26.997745,27.140456 26.997745,27.140456 C 18.528582,18.264221 13.291696,25.230495 11.500037,31.436501 z"
             style="fill:#404040;"/>
          </a>
         </g>
        </svg>
</svg>
