<?xml version="1.0" encoding="UTF-8" standalone="no"?>
<!DOCTYPE svg PUBLIC "-//W3C//DTD SVG 1.1//EN"
 "http://www.w3.org/Graphics/SVG/1.1/DTD/svg11.dtd">
<!-- Generated by graphviz version 2.40.1 (20161225.0304)
 -->
<!-- Title: js_method_set_properties Pages: 1 -->
<!--zoomable 311 -->
<svg id="main" version="1.1" xmlns="http://www.w3.org/2000/svg" xmlns:xlink="http://www.w3.org/1999/xlink" xml:space="preserve" onload="init(evt)">
<style type="text/css"><![CDATA[
.edge:hover path { stroke: red; }
.edge:hover polygon { stroke: red; fill: red; }
]]></style>
<script type="text/javascript"><![CDATA[
var edges = document.getElementsByTagName('g');
if (edges && edges.length) {
  for (var i=0;i<edges.length;i++) {
    if (edges[i].id.substr(0,4)=='edge') {
      edges[i].setAttribute('class','edge');
    }
  }
}
]]></script>
        <defs>
                <circle id="rim" cx="0" cy="0" r="7"/>
                <circle id="rim2" cx="0" cy="0" r="3.5"/>
                <g id="zoomPlus">
                        <use xlink:href="#rim" fill="#404040">
                                <set attributeName="fill" to="#808080" begin="zoomplus.mouseover" end="zoomplus.mouseout"/>
                        </use>
                        <path d="M-4,0h8M0,-4v8" fill="none" stroke="white" stroke-width="1.5" pointer-events="none"/>
                </g>
                <g id="zoomMin">
                        <use xlink:href="#rim" fill="#404040">
                                <set attributeName="fill" to="#808080" begin="zoomminus.mouseover" end="zoomminus.mouseout"/>
                        </use>
                        <path d="M-4,0h8" fill="none" stroke="white" stroke-width="1.5" pointer-events="none"/>
                </g>
                <g id="dirArrow">
                        <path fill="none" stroke="white" stroke-width="1.5" d="M0,-3.0v7 M-2.5,-0.5L0,-3.0L2.5,-0.5"/>
                </g>
               <g id="resetDef">
                       <use xlink:href="#rim2" fill="#404040">
                               <set attributeName="fill" to="#808080" begin="reset.mouseover" end="reset.mouseout"/>
                       </use>
               </g>
        </defs>

<script type="text/javascript">
var viewWidth = 911;
var viewHeight = 311;
var sectionId = 'dynsection-419';
</script>
<script xlink:href="svgpan.js"/>
<svg id="graph" class="graph">
<g id="viewport">
<title>js_method_set_properties</title>
<!-- Node142419 -->
<g id="node1" class="node">
<title>Node142419</title>
<polygon fill="#bfbfbf" stroke="#000000" points="0,-112 0,-131 143,-131 143,-112 0,-112"/>
<text text-anchor="middle" x="71.5" y="-119" font-family="Helvetica,sans-Serif" font-size="10.00" fill="#000000">js_method_set_properties</text>
</g>
<!-- Node142420 -->
<g id="node2" class="node">
<title>Node142420</title>
<g id="a_node2"><a xlink:href="quickjs_8c.html#a964b0ba49f8823d8d8f21c6645a81542" target="_top" xlink:title="JS_ConcatString3">
<polygon fill="none" stroke="#000000" points="355,-150 355,-169 454,-169 454,-150 355,-150"/>
<text text-anchor="middle" x="404.5" y="-157" font-family="Helvetica,sans-Serif" font-size="10.00" fill="#000000">JS_ConcatString3</text>
</a>
</g>
</g>
<!-- Node142419&#45;&gt;Node142420 -->
<g id="edge1" class="edge">
<title>Node142419&#45;&gt;Node142420</title>
<path fill="none" stroke="#191970" d="M120.0537,-131.0465C138.4595,-134.411 159.6424,-137.9791 179,-140.5 234.9595,-147.7874 299.1135,-152.8786 344.6496,-155.9439"/>
<polygon fill="#191970" stroke="#191970" points="344.4413,-159.4377 354.6503,-156.6047 344.9029,-152.4529 344.4413,-159.4377"/>
</g>
<!-- Node142459 -->
<g id="node5" class="node">
<title>Node142459</title>
<g id="a_node5"><a xlink:href="quickjs_8h.html#ad80a83d73e9b7d872b88fbf2943aebe9" target="_top" xlink:title="JS_IsException">
<polygon fill="none" stroke="#000000" points="520.5,-283 520.5,-302 607.5,-302 607.5,-283 520.5,-283"/>
<text text-anchor="middle" x="564" y="-290" font-family="Helvetica,sans-Serif" font-size="10.00" fill="#000000">JS_IsException</text>
</a>
</g>
</g>
<!-- Node142419&#45;&gt;Node142459 -->
<g id="edge18" class="edge">
<title>Node142419&#45;&gt;Node142459</title>
<path fill="none" stroke="#191970" d="M96.6226,-131.0766C118.3623,-139.3088 150.6733,-151.413 179,-161.5 305.1553,-206.4234 455.7146,-256.6901 525.264,-279.722"/>
<polygon fill="#191970" stroke="#191970" points="524.3317,-283.1001 534.925,-282.9187 526.5307,-276.4545 524.3317,-283.1001"/>
</g>
<!-- Node142565 -->
<g id="node13" class="node">
<title>Node142565</title>
<g id="a_node13"><a xlink:href="quickjs_8c.html#a0a8765bd4012467d9139bc24aabcb3ca" target="_top" xlink:title="JS_DefinePropertyValue">
<polygon fill="none" stroke="#ff0000" points="339,-41 339,-60 470,-60 470,-41 339,-41"/>
<text text-anchor="middle" x="404.5" y="-48" font-family="Helvetica,sans-Serif" font-size="10.00" fill="#000000">JS_DefinePropertyValue</text>
</a>
</g>
</g>
<!-- Node142419&#45;&gt;Node142565 -->
<g id="edge14" class="edge">
<title>Node142419&#45;&gt;Node142565</title>
<path fill="none" stroke="#191970" d="M116.0643,-111.9983C176.5415,-99.1038 284.5302,-76.0792 349.8335,-62.1556"/>
<polygon fill="#191970" stroke="#191970" points="350.8837,-65.5105 359.934,-60.0021 349.4239,-58.6643 350.8837,-65.5105"/>
</g>
<!-- Node142740 -->
<g id="node14" class="node">
<title>Node142740</title>
<g id="a_node14"><a xlink:href="quickjs_8c.html#adadf01adc112b1f79ced7b2884a5738b" target="_top" xlink:title="js_get_function_name">
<polygon fill="none" stroke="#ff0000" points="179,-112 179,-131 303,-131 303,-112 179,-112"/>
<text text-anchor="middle" x="241" y="-119" font-family="Helvetica,sans-Serif" font-size="10.00" fill="#000000">js_get_function_name</text>
</a>
</g>
</g>
<!-- Node142419&#45;&gt;Node142740 -->
<g id="edge16" class="edge">
<title>Node142419&#45;&gt;Node142740</title>
<path fill="none" stroke="#191970" d="M143.3833,-121.5C151.7865,-121.5 160.3626,-121.5 168.7706,-121.5"/>
<polygon fill="#191970" stroke="#191970" points="168.9202,-125.0001 178.9201,-121.5 168.9201,-118.0001 168.9202,-125.0001"/>
</g>
<!-- Node142819 -->
<g id="node15" class="node">
<title>Node142819</title>
<g id="a_node15"><a xlink:href="quickjs_8c.html#a2d5c3143055af5f45dab61f1006dc5c4" target="_top" xlink:title="js_method_set_home\l_object">
<polygon fill="none" stroke="#ff0000" points="180.5,-.5 180.5,-30.5 301.5,-30.5 301.5,-.5 180.5,-.5"/>
<text text-anchor="start" x="188.5" y="-18.5" font-family="Helvetica,sans-Serif" font-size="10.00" fill="#000000">js_method_set_home</text>
<text text-anchor="middle" x="241" y="-7.5" font-family="Helvetica,sans-Serif" font-size="10.00" fill="#000000">_object</text>
</a>
</g>
</g>
<!-- Node142419&#45;&gt;Node142819 -->
<g id="edge19" class="edge">
<title>Node142419&#45;&gt;Node142819</title>
<path fill="none" stroke="#191970" d="M86.8409,-111.9063C114.1115,-94.8521 171.5889,-58.9075 208.1375,-36.0512"/>
<polygon fill="#191970" stroke="#191970" points="210.3246,-38.8115 216.9474,-30.5417 206.613,-32.8765 210.3246,-38.8115"/>
</g>
<!-- Node142421 -->
<g id="node3" class="node">
<title>Node142421</title>
<g id="a_node3"><a xlink:href="quickjs_8h.html#afaa20c47565bc704c6c85f3d77254e7d" target="_top" xlink:title="JS_FreeValue">
<polygon fill="none" stroke="#000000" points="679,-36 679,-55 757,-55 757,-36 679,-36"/>
<text text-anchor="middle" x="718" y="-43" font-family="Helvetica,sans-Serif" font-size="10.00" fill="#000000">JS_FreeValue</text>
</a>
</g>
</g>
<!-- Node142420&#45;&gt;Node142421 -->
<g id="edge2" class="edge">
<title>Node142420&#45;&gt;Node142421</title>
<path fill="none" stroke="#191970" d="M414.1459,-149.754C431.0965,-133.252 468.0445,-99.9983 506,-83.5 558.7007,-60.5923 624.527,-51.4939 668.728,-47.8804"/>
<polygon fill="#191970" stroke="#191970" points="669.2148,-51.3537 678.9238,-47.1128 668.6892,-44.3735 669.2148,-51.3537"/>
</g>
<!-- Node142420&#45;&gt;Node142459 -->
<g id="edge4" class="edge">
<title>Node142420&#45;&gt;Node142459</title>
<path fill="none" stroke="#191970" d="M411.2922,-169.2548C426.2229,-190.0688 463.9382,-239.3098 506,-268.5 511.7144,-272.4657 518.1848,-275.9458 524.679,-278.936"/>
<polygon fill="#191970" stroke="#191970" points="523.5542,-282.2612 534.1256,-282.9658 526.3009,-275.8226 523.5542,-282.2612"/>
</g>
<!-- Node142460 -->
<g id="node6" class="node">
<title>Node142460</title>
<g id="a_node6"><a xlink:href="quickjs_8c.html#a38cad713b74c445668210ea8614bfb65" target="_top" xlink:title="JS_ToStringFree">
<polygon fill="none" stroke="#000000" points="519,-93 519,-112 609,-112 609,-93 519,-93"/>
<text text-anchor="middle" x="564" y="-100" font-family="Helvetica,sans-Serif" font-size="10.00" fill="#000000">JS_ToStringFree</text>
</a>
</g>
</g>
<!-- Node142420&#45;&gt;Node142460 -->
<g id="edge5" class="edge">
<title>Node142420&#45;&gt;Node142460</title>
<path fill="none" stroke="#191970" d="M429.0078,-149.9979C449.501,-142.1311 479.5449,-130.7808 506,-121.5 511.971,-119.4053 518.3125,-117.2539 524.5266,-115.1863"/>
<polygon fill="#191970" stroke="#191970" points="525.7133,-118.4805 534.1153,-112.0264 523.5223,-111.8322 525.7133,-118.4805"/>
</g>
<!-- Node142851 -->
<g id="node8" class="node">
<title>Node142851</title>
<g id="a_node8"><a xlink:href="quickjs_8c.html#a6887ef15fd884e05ddf04ec291b5f3d2" target="_top" xlink:title="string_buffer_concat">
<polygon fill="none" stroke="#000000" points="506,-131 506,-150 622,-150 622,-131 506,-131"/>
<text text-anchor="middle" x="564" y="-138" font-family="Helvetica,sans-Serif" font-size="10.00" fill="#000000">string_buffer_concat</text>
</a>
</g>
</g>
<!-- Node142420&#45;&gt;Node142851 -->
<g id="edge8" class="edge">
<title>Node142420&#45;&gt;Node142851</title>
<path fill="none" stroke="#191970" d="M454.0925,-153.5924C467.2646,-152.0233 481.724,-150.3009 495.7038,-148.6356"/>
<polygon fill="#191970" stroke="#191970" points="496.2576,-152.0945 505.7733,-147.4361 495.4295,-145.1436 496.2576,-152.0945"/>
</g>
<!-- Node142487 -->
<g id="node10" class="node">
<title>Node142487</title>
<g id="a_node10"><a xlink:href="quickjs_8c.html#a0b130652cf11eb0eb9f7e3ee6c5d7c6a" target="_top" xlink:title="string_buffer_write8">
<polygon fill="none" stroke="#ff0000" points="661,-207 661,-226 775,-226 775,-207 661,-207"/>
<text text-anchor="middle" x="718" y="-214" font-family="Helvetica,sans-Serif" font-size="10.00" fill="#000000">string_buffer_write8</text>
</a>
</g>
</g>
<!-- Node142420&#45;&gt;Node142487 -->
<g id="edge13" class="edge">
<title>Node142420&#45;&gt;Node142487</title>
<path fill="none" stroke="#191970" d="M413.092,-169.1422C429.2407,-186.4501 466.1059,-222.2194 506,-235.5 564.4265,-254.9499 636.6179,-241.0276 679.8974,-228.9384"/>
<polygon fill="#191970" stroke="#191970" points="681.0995,-232.234 689.7269,-226.0843 679.1476,-225.5116 681.0995,-232.234"/>
</g>
<!-- Node142475 -->
<g id="node11" class="node">
<title>Node142475</title>
<g id="a_node11"><a xlink:href="quickjs_8c.html#accfc3d1dcaa88c88402cb245ccaf4fdb" target="_top" xlink:title="string_buffer_end">
<polygon fill="none" stroke="#ff0000" points="513.5,-207 513.5,-226 614.5,-226 614.5,-207 513.5,-207"/>
<text text-anchor="middle" x="564" y="-214" font-family="Helvetica,sans-Serif" font-size="10.00" fill="#000000">string_buffer_end</text>
</a>
</g>
</g>
<!-- Node142420&#45;&gt;Node142475 -->
<g id="edge11" class="edge">
<title>Node142420&#45;&gt;Node142475</title>
<path fill="none" stroke="#191970" d="M429.0078,-169.0021C449.501,-176.8689 479.5449,-188.2192 506,-197.5 511.971,-199.5947 518.3125,-201.7461 524.5266,-203.8137"/>
<polygon fill="#191970" stroke="#191970" points="523.5223,-207.1678 534.1153,-206.9736 525.7133,-200.5195 523.5223,-207.1678"/>
</g>
<!-- Node142478 -->
<g id="node12" class="node">
<title>Node142478</title>
<g id="a_node12"><a xlink:href="quickjs_8c.html#ac43dee2ed14e80248f1af195bd3d8181" target="_top" xlink:title="string_buffer_init2">
<polygon fill="none" stroke="#ff0000" points="511.5,-169 511.5,-188 616.5,-188 616.5,-169 511.5,-169"/>
<text text-anchor="middle" x="564" y="-176" font-family="Helvetica,sans-Serif" font-size="10.00" fill="#000000">string_buffer_init2</text>
</a>
</g>
</g>
<!-- Node142420&#45;&gt;Node142478 -->
<g id="edge12" class="edge">
<title>Node142420&#45;&gt;Node142478</title>
<path fill="none" stroke="#191970" d="M454.0925,-165.4076C469.0207,-167.1859 485.6023,-169.1611 501.2654,-171.0269"/>
<polygon fill="#191970" stroke="#191970" points="501.0553,-174.5265 511.3991,-172.2341 501.8833,-167.5757 501.0553,-174.5265"/>
</g>
<!-- Node142422 -->
<g id="node4" class="node">
<title>Node142422</title>
<g id="a_node4"><a xlink:href="quickjs_8c.html#aa059f309c30fd5166d16c82a97973146" target="_top" xlink:title="__JS_FreeValue">
<polygon fill="none" stroke="#ff0000" points="814,-36 814,-55 903,-55 903,-36 814,-36"/>
<text text-anchor="middle" x="858.5" y="-43" font-family="Helvetica,sans-Serif" font-size="10.00" fill="#000000">__JS_FreeValue</text>
</a>
</g>
</g>
<!-- Node142421&#45;&gt;Node142422 -->
<g id="edge3" class="edge">
<title>Node142421&#45;&gt;Node142422</title>
<path fill="none" stroke="#191970" d="M757.1371,-45.5C771.5908,-45.5 788.2465,-45.5 803.8259,-45.5"/>
<polygon fill="#191970" stroke="#191970" points="803.8745,-49.0001 813.8745,-45.5 803.8745,-42.0001 803.8745,-49.0001"/>
</g>
<!-- Node142460&#45;&gt;Node142421 -->
<g id="edge7" class="edge">
<title>Node142460&#45;&gt;Node142421</title>
<path fill="none" stroke="#191970" d="M589.7761,-92.9595C615.2054,-83.5473 654.2759,-69.0862 682.6067,-58.6001"/>
<polygon fill="#191970" stroke="#191970" points="683.9765,-61.8252 692.1398,-55.0716 681.5466,-55.2605 683.9765,-61.8252"/>
</g>
<!-- Node142461 -->
<g id="node7" class="node">
<title>Node142461</title>
<g id="a_node7"><a xlink:href="quickjs_8c.html#a7bcb8e1a20cbc8374a5f9ba4a2088cec" target="_top" xlink:title="JS_ToString">
<polygon fill="none" stroke="#ff0000" points="683,-93 683,-112 753,-112 753,-93 683,-93"/>
<text text-anchor="middle" x="718" y="-100" font-family="Helvetica,sans-Serif" font-size="10.00" fill="#000000">JS_ToString</text>
</a>
</g>
</g>
<!-- Node142460&#45;&gt;Node142461 -->
<g id="edge6" class="edge">
<title>Node142460&#45;&gt;Node142461</title>
<path fill="none" stroke="#191970" d="M609.3721,-102.5C629.3182,-102.5 652.6913,-102.5 672.6364,-102.5"/>
<polygon fill="#191970" stroke="#191970" points="672.7176,-106.0001 682.7176,-102.5 672.7175,-99.0001 672.7176,-106.0001"/>
</g>
<!-- Node142852 -->
<g id="node9" class="node">
<title>Node142852</title>
<g id="a_node9"><a xlink:href="quickjs_8c.html#a529c84c4766057fc95736603e6f55e3e" target="_top" xlink:title="string_buffer_write16">
<polygon fill="none" stroke="#ff0000" points="658,-131 658,-150 778,-150 778,-131 658,-131"/>
<text text-anchor="middle" x="718" y="-138" font-family="Helvetica,sans-Serif" font-size="10.00" fill="#000000">string_buffer_write16</text>
</a>
</g>
</g>
<!-- Node142851&#45;&gt;Node142852 -->
<g id="edge9" class="edge">
<title>Node142851&#45;&gt;Node142852</title>
<path fill="none" stroke="#191970" d="M622.2208,-140.5C630.608,-140.5 639.3117,-140.5 647.9001,-140.5"/>
<polygon fill="#191970" stroke="#191970" points="647.9032,-144.0001 657.9031,-140.5 647.9031,-137.0001 647.9032,-144.0001"/>
</g>
<!-- Node142851&#45;&gt;Node142487 -->
<g id="edge10" class="edge">
<title>Node142851&#45;&gt;Node142487</title>
<path fill="none" stroke="#191970" d="M597.299,-150.0231C605.5089,-152.7469 614.185,-155.9519 622,-159.5 648.3911,-171.4821 676.7051,-188.9138 695.6915,-201.3408"/>
<polygon fill="#191970" stroke="#191970" points="693.9454,-204.3825 704.2135,-206.9935 697.8148,-198.5491 693.9454,-204.3825"/>
</g>
<!-- Node142565&#45;&gt;Node142421 -->
<g id="edge15" class="edge">
<title>Node142565&#45;&gt;Node142421</title>
<path fill="none" stroke="#191970" d="M470.2199,-49.4518C529.3022,-48.5095 614.789,-47.1461 668.3352,-46.2921"/>
<polygon fill="#191970" stroke="#191970" points="668.6584,-49.7875 678.6013,-46.1284 668.5467,-42.7884 668.6584,-49.7875"/>
</g>
<!-- Node142740&#45;&gt;Node142420 -->
<g id="edge17" class="edge">
<title>Node142740&#45;&gt;Node142420</title>
<path fill="none" stroke="#191970" d="M282.258,-131.089C303.9307,-136.1261 330.6832,-142.3438 353.6303,-147.6771"/>
<polygon fill="#191970" stroke="#191970" points="353.006,-151.1252 363.5387,-149.9799 354.5907,-144.3069 353.006,-151.1252"/>
</g>
<!-- Node142819&#45;&gt;Node142421 -->
<g id="edge20" class="edge">
<title>Node142819&#45;&gt;Node142421</title>
<path fill="none" stroke="#191970" d="M301.8969,-19.33C397.4706,-25.3409 580.8273,-36.8728 668.6886,-42.3987"/>
<polygon fill="#191970" stroke="#191970" points="668.7176,-45.9073 678.9176,-43.042 669.1571,-38.9211 668.7176,-45.9073"/>
</g>
</g>
</svg>
        <g id="navigator" transform="translate(0 0)" fill="#404254">
                <rect fill="#f2f5e9" fill-opacity="0.5" stroke="#606060" stroke-width=".5" x="0" y="0" width="60" height="60"/>
                <use id="zoomplus" xlink:href="#zoomPlus" x="17" y="9" onmousedown="handleZoom(evt,'in')"/>
                <use id="zoomminus" xlink:href="#zoomMin" x="42" y="9" onmousedown="handleZoom(evt,'out')"/>
                <use id="reset" xlink:href="#resetDef" x="30" y="36" onmousedown="handleReset()"/>
                <g id="arrowUp" xlink:href="#dirArrow" transform="translate(30 24)" onmousedown="handlePan(0,-1)">
                  <use xlink:href="#rim" fill="#404040">
                        <set attributeName="fill" to="#808080" begin="arrowUp.mouseover" end="arrowUp.mouseout"/>
                  </use>
                  <path fill="none" stroke="white" stroke-width="1.5" d="M0,-3.0v7 M-2.5,-0.5L0,-3.0L2.5,-0.5"/>
                </g>
                <g id="arrowRight" xlink:href="#dirArrow" transform="rotate(90) translate(36 -43)" onmousedown="handlePan(1,0)">
                  <use xlink:href="#rim" fill="#404040">
                        <set attributeName="fill" to="#808080" begin="arrowRight.mouseover" end="arrowRight.mouseout"/>
                  </use>
                  <path fill="none" stroke="white" stroke-width="1.5" d="M0,-3.0v7 M-2.5,-0.5L0,-3.0L2.5,-0.5"/>
                </g>
                <g id="arrowDown" xlink:href="#dirArrow" transform="rotate(180) translate(-30 -48)" onmousedown="handlePan(0,1)">
                  <use xlink:href="#rim" fill="#404040">
                        <set attributeName="fill" to="#808080" begin="arrowDown.mouseover" end="arrowDown.mouseout"/>
                  </use>
                  <path fill="none" stroke="white" stroke-width="1.5" d="M0,-3.0v7 M-2.5,-0.5L0,-3.0L2.5,-0.5"/>
                </g>
                <g id="arrowLeft" xlink:href="#dirArrow" transform="rotate(270) translate(-36 17)" onmousedown="handlePan(-1,0)">
                  <use xlink:href="#rim" fill="#404040">
                        <set attributeName="fill" to="#808080" begin="arrowLeft.mouseover" end="arrowLeft.mouseout"/>
                  </use>
                  <path fill="none" stroke="white" stroke-width="1.5" d="M0,-3.0v7 M-2.5,-0.5L0,-3.0L2.5,-0.5"/>
                </g>
        </g>
        <svg viewBox="0 0 15 15" width="100%" height="30px" preserveAspectRatio="xMaxYMin meet">
         <g id="arrow_out" transform="scale(0.3 0.3)">
          <a xlink:href="quickjs_8c_a44d4e574b5bd12a89f8389ca79e587a0_cgraph_org.svg" target="_base">
           <rect id="button" ry="5" rx="5" y="6" x="6" height="38" width="38"
                fill="#f2f5e9" fill-opacity="0.5" stroke="#606060" stroke-width="1.0"/>
           <path id="arrow"
             d="M 11.500037,31.436501 C 11.940474,20.09759 22.043105,11.32322 32.158766,21.979434 L 37.068811,17.246167 C 37.068811,17.246167 37.088388,32 37.088388,32 L 22.160133,31.978069 C 22.160133,31.978069 26.997745,27.140456 26.997745,27.140456 C 18.528582,18.264221 13.291696,25.230495 11.500037,31.436501 z"
             style="fill:#404040;"/>
          </a>
         </g>
        </svg>
</svg>
