<?xml version="1.0" encoding="UTF-8" standalone="no"?>
<!DOCTYPE svg PUBLIC "-//W3C//DTD SVG 1.1//EN"
 "http://www.w3.org/Graphics/SVG/1.1/DTD/svg11.dtd">
<!-- Generated by graphviz version 2.40.1 (20161225.0304)
 -->
<!-- Title: js_is_regexp Pages: 1 -->
<svg width="533pt" height="142pt"
 viewBox="0.00 0.00 533.00 142.00" xmlns="http://www.w3.org/2000/svg" xmlns:xlink="http://www.w3.org/1999/xlink">
<g id="graph0" class="graph" transform="scale(1 1) rotate(0) translate(4 138)">
<title>js_is_regexp</title>
<!-- Node418712 -->
<g id="node1" class="node">
<title>Node418712</title>
<polygon fill="#bfbfbf" stroke="#000000" points="0,-38.5 0,-57.5 77,-57.5 77,-38.5 0,-38.5"/>
<text text-anchor="middle" x="38.5" y="-45.5" font-family="Helvetica,sans-Serif" font-size="10.00" fill="#000000">js_is_regexp</text>
</g>
<!-- Node418713 -->
<g id="node2" class="node">
<title>Node418713</title>
<g id="a_node2"><a xlink:href="quickjs_8c.html#a93aaed931ba8fcbf558c02a846fc7844" target="_top" xlink:title="check_regexp_g_flag">
<polygon fill="none" stroke="#000000" points="115.5,-76.5 115.5,-95.5 234.5,-95.5 234.5,-76.5 115.5,-76.5"/>
<text text-anchor="middle" x="175" y="-83.5" font-family="Helvetica,sans-Serif" font-size="10.00" fill="#000000">check_regexp_g_flag</text>
</a>
</g>
</g>
<!-- Node418712&#45;&gt;Node418713 -->
<g id="edge1" class="edge">
<title>Node418712&#45;&gt;Node418713</title>
<path fill="none" stroke="#191970" d="M82.7487,-60.3183C101.503,-65.5393 123.028,-71.5316 140.5663,-76.4141"/>
<polygon fill="#191970" stroke="#191970" points="83.5171,-56.8992 72.9447,-57.589 81.6397,-63.6428 83.5171,-56.8992"/>
</g>
<!-- Node418716 -->
<g id="node5" class="node">
<title>Node418716</title>
<g id="a_node5"><a xlink:href="quickjs_8c.html#a233052710c228313122c39c231a23ddf" target="_top" xlink:title="js_regexp_constructor">
<polygon fill="none" stroke="#000000" points="113,-38.5 113,-57.5 237,-57.5 237,-38.5 113,-38.5"/>
<text text-anchor="middle" x="175" y="-45.5" font-family="Helvetica,sans-Serif" font-size="10.00" fill="#000000">js_regexp_constructor</text>
</a>
</g>
</g>
<!-- Node418712&#45;&gt;Node418716 -->
<g id="edge4" class="edge">
<title>Node418712&#45;&gt;Node418716</title>
<path fill="none" stroke="#191970" d="M87.4493,-48C95.7066,-48 104.3746,-48 112.9129,-48"/>
<polygon fill="#191970" stroke="#191970" points="87.2503,-44.5001 77.2503,-48 87.2503,-51.5001 87.2503,-44.5001"/>
</g>
<!-- Node418722 -->
<g id="node8" class="node">
<title>Node418722</title>
<g id="a_node8"><a xlink:href="quickjs_8c.html#a507292e60d4d33781303b635d3f42fd1" target="_top" xlink:title="js_string_includes">
<polygon fill="none" stroke="#000000" points="123,-.5 123,-19.5 227,-19.5 227,-.5 123,-.5"/>
<text text-anchor="middle" x="175" y="-7.5" font-family="Helvetica,sans-Serif" font-size="10.00" fill="#000000">js_string_includes</text>
</a>
</g>
</g>
<!-- Node418712&#45;&gt;Node418722 -->
<g id="edge7" class="edge">
<title>Node418712&#45;&gt;Node418722</title>
<path fill="none" stroke="#191970" d="M82.7487,-35.6817C101.503,-30.4607 123.028,-24.4684 140.5663,-19.5859"/>
<polygon fill="#191970" stroke="#191970" points="81.6397,-32.3572 72.9447,-38.411 83.5171,-39.1008 81.6397,-32.3572"/>
</g>
<!-- Node418714 -->
<g id="node3" class="node">
<title>Node418714</title>
<g id="a_node3"><a xlink:href="quickjs_8c.html#a48c74f10715547bf679361ae42e2a97f" target="_top" xlink:title="js_string_match">
<polygon fill="none" stroke="#000000" points="288.5,-114.5 288.5,-133.5 382.5,-133.5 382.5,-114.5 288.5,-114.5"/>
<text text-anchor="middle" x="335.5" y="-121.5" font-family="Helvetica,sans-Serif" font-size="10.00" fill="#000000">js_string_match</text>
</a>
</g>
</g>
<!-- Node418713&#45;&gt;Node418714 -->
<g id="edge2" class="edge">
<title>Node418713&#45;&gt;Node418714</title>
<path fill="none" stroke="#191970" d="M225.2453,-97.8961C247.8052,-103.2374 274.0609,-109.4537 295.2903,-114.4799"/>
<polygon fill="#191970" stroke="#191970" points="226.0383,-94.4871 215.5009,-95.589 224.4255,-101.2988 226.0383,-94.4871"/>
</g>
<!-- Node418715 -->
<g id="node4" class="node">
<title>Node418715</title>
<g id="a_node4"><a xlink:href="quickjs_8c.html#aed1bf9ce4b9e3a82388679dd6ec7635b" target="_top" xlink:title="js_string_replace">
<polygon fill="none" stroke="#000000" points="286,-76.5 286,-95.5 385,-95.5 385,-76.5 286,-76.5"/>
<text text-anchor="middle" x="335.5" y="-83.5" font-family="Helvetica,sans-Serif" font-size="10.00" fill="#000000">js_string_replace</text>
</a>
</g>
</g>
<!-- Node418713&#45;&gt;Node418715 -->
<g id="edge3" class="edge">
<title>Node418713&#45;&gt;Node418715</title>
<path fill="none" stroke="#191970" d="M245.1616,-86C258.8958,-86 273.0305,-86 285.9221,-86"/>
<polygon fill="#191970" stroke="#191970" points="244.7643,-82.5001 234.7643,-86 244.7642,-89.5001 244.7643,-82.5001"/>
</g>
<!-- Node418717 -->
<g id="node6" class="node">
<title>Node418717</title>
<g id="a_node6"><a xlink:href="quickjs_8c.html#aafc8241682ce24b6d72e0f237ee85a51" target="_top" xlink:title="JS_AddIntrinsicRegExp">
<polygon fill="none" stroke="#000000" points="273,-38.5 273,-57.5 398,-57.5 398,-38.5 273,-38.5"/>
<text text-anchor="middle" x="335.5" y="-45.5" font-family="Helvetica,sans-Serif" font-size="10.00" fill="#000000">JS_AddIntrinsicRegExp</text>
</a>
</g>
</g>
<!-- Node418716&#45;&gt;Node418717 -->
<g id="edge5" class="edge">
<title>Node418716&#45;&gt;Node418717</title>
<path fill="none" stroke="#191970" d="M247.0586,-48C255.6514,-48 264.3708,-48 272.8171,-48"/>
<polygon fill="#191970" stroke="#191970" points="247.0535,-44.5001 237.0535,-48 247.0535,-51.5001 247.0535,-44.5001"/>
</g>
<!-- Node418718 -->
<g id="node7" class="node">
<title>Node418718</title>
<g id="a_node7"><a xlink:href="quickjs_8c.html#ad8aedb643b8753b7a15f6cb2df61945e" target="_top" xlink:title="JS_NewContext">
<polygon fill="none" stroke="#ff0000" points="434,-38.5 434,-57.5 525,-57.5 525,-38.5 434,-38.5"/>
<text text-anchor="middle" x="479.5" y="-45.5" font-family="Helvetica,sans-Serif" font-size="10.00" fill="#000000">JS_NewContext</text>
</a>
</g>
</g>
<!-- Node418717&#45;&gt;Node418718 -->
<g id="edge6" class="edge">
<title>Node418717&#45;&gt;Node418718</title>
<path fill="none" stroke="#191970" d="M408.3978,-48C417.0683,-48 425.7214,-48 433.8541,-48"/>
<polygon fill="#191970" stroke="#191970" points="408.2416,-44.5001 398.2416,-48 408.2416,-51.5001 408.2416,-44.5001"/>
</g>
</g>
</svg>
