<?xml version="1.0" encoding="UTF-8" standalone="no"?>
<!DOCTYPE svg PUBLIC "-//W3C//DTD SVG 1.1//EN"
 "http://www.w3.org/Graphics/SVG/1.1/DTD/svg11.dtd">
<!-- Generated by graphviz version 2.40.1 (20161225.0304)
 -->
<!-- Title: bc_put_u8 Pages: 1 -->
<!--zoomable 323 -->
<svg id="main" version="1.1" xmlns="http://www.w3.org/2000/svg" xmlns:xlink="http://www.w3.org/1999/xlink" xml:space="preserve" onload="init(evt)">
<style type="text/css"><![CDATA[
.edge:hover path { stroke: red; }
.edge:hover polygon { stroke: red; fill: red; }
]]></style>
<script type="text/javascript"><![CDATA[
var edges = document.getElementsByTagName('g');
if (edges && edges.length) {
  for (var i=0;i<edges.length;i++) {
    if (edges[i].id.substr(0,4)=='edge') {
      edges[i].setAttribute('class','edge');
    }
  }
}
]]></script>
        <defs>
                <circle id="rim" cx="0" cy="0" r="7"/>
                <circle id="rim2" cx="0" cy="0" r="3.5"/>
                <g id="zoomPlus">
                        <use xlink:href="#rim" fill="#404040">
                                <set attributeName="fill" to="#808080" begin="zoomplus.mouseover" end="zoomplus.mouseout"/>
                        </use>
                        <path d="M-4,0h8M0,-4v8" fill="none" stroke="white" stroke-width="1.5" pointer-events="none"/>
                </g>
                <g id="zoomMin">
                        <use xlink:href="#rim" fill="#404040">
                                <set attributeName="fill" to="#808080" begin="zoomminus.mouseover" end="zoomminus.mouseout"/>
                        </use>
                        <path d="M-4,0h8" fill="none" stroke="white" stroke-width="1.5" pointer-events="none"/>
                </g>
                <g id="dirArrow">
                        <path fill="none" stroke="white" stroke-width="1.5" d="M0,-3.0v7 M-2.5,-0.5L0,-3.0L2.5,-0.5"/>
                </g>
               <g id="resetDef">
                       <use xlink:href="#rim2" fill="#404040">
                               <set attributeName="fill" to="#808080" begin="reset.mouseover" end="reset.mouseout"/>
                       </use>
               </g>
        </defs>

<script type="text/javascript">
var viewWidth = 558;
var viewHeight = 323;
var sectionId = 'dynsection-1275';
</script>
<script xlink:href="svgpan.js"/>
<svg id="graph" class="graph">
<g id="viewport">
<title>bc_put_u8</title>
<!-- Node361256 -->
<g id="node1" class="node">
<title>Node361256</title>
<polygon fill="#bfbfbf" stroke="#000000" points="0,-153.1942 0,-172.1942 66,-172.1942 66,-153.1942 0,-153.1942"/>
<text text-anchor="middle" x="33" y="-160.1942" font-family="Helvetica,sans-Serif" font-size="10.00" fill="#000000">bc_put_u8</text>
</g>
<!-- Node361257 -->
<g id="node2" class="node">
<title>Node361257</title>
<g id="a_node2"><a xlink:href="quickjs_8c.html#aba35628e2e963dca8fa201e6708046d6" target="_top" xlink:title="JS_WriteArray">
<polygon fill="none" stroke="#000000" points="133.5,-115.1942 133.5,-134.1942 216.5,-134.1942 216.5,-115.1942 133.5,-115.1942"/>
<text text-anchor="middle" x="175" y="-122.1942" font-family="Helvetica,sans-Serif" font-size="10.00" fill="#000000">JS_WriteArray</text>
</a>
</g>
</g>
<!-- Node361256&#45;&gt;Node361257 -->
<g id="edge1" class="edge">
<title>Node361256&#45;&gt;Node361257</title>
<path fill="none" stroke="#191970" d="M76.204,-151.1325C96.4413,-145.7169 120.2564,-139.3439 139.4337,-134.2119"/>
<polygon fill="#191970" stroke="#191970" points="75.048,-147.8187 66.2927,-153.7849 76.8576,-154.5807 75.048,-147.8187"/>
</g>
<!-- Node361258 -->
<g id="node3" class="node">
<title>Node361258</title>
<g id="a_node3"><a xlink:href="quickjs_8c.html#aa9342f7444c1c9f8743d43aa4d7f89e3" target="_top" xlink:title="JS_WriteObjectRec">
<polygon fill="none" stroke="#000000" points="291,-134.1942 291,-153.1942 396,-153.1942 396,-134.1942 291,-134.1942"/>
<text text-anchor="middle" x="343.5" y="-141.1942" font-family="Helvetica,sans-Serif" font-size="10.00" fill="#000000">JS_WriteObjectRec</text>
</a>
</g>
</g>
<!-- Node361256&#45;&gt;Node361258 -->
<g id="edge18" class="edge">
<title>Node361256&#45;&gt;Node361258</title>
<path fill="none" stroke="#191970" d="M76.2142,-160.0498C132.4005,-156.6117 230.4733,-150.6105 290.9158,-146.9119"/>
<polygon fill="#191970" stroke="#191970" points="75.9965,-156.5565 66.2289,-160.6608 76.4241,-163.5434 75.9965,-156.5565"/>
</g>
<!-- Node361259 -->
<g id="node4" class="node">
<title>Node361259</title>
<g id="a_node4"><a xlink:href="quickjs_8c.html#a3da261d6aeb1d35f3fb47a0076752a57" target="_top" xlink:title="JS_WriteObjectTag">
<polygon fill="none" stroke="#000000" points="442.5,-153.1942 442.5,-172.1942 546.5,-172.1942 546.5,-153.1942 442.5,-153.1942"/>
<text text-anchor="middle" x="494.5" y="-160.1942" font-family="Helvetica,sans-Serif" font-size="10.00" fill="#000000">JS_WriteObjectTag</text>
</a>
</g>
</g>
<!-- Node361256&#45;&gt;Node361259 -->
<g id="edge19" class="edge">
<title>Node361256&#45;&gt;Node361259</title>
<path fill="none" stroke="#191970" d="M36.5583,-182.26C43.278,-212.7771 61.0184,-270.7869 102,-295.6942 157.4508,-329.3954 185.0867,-311.584 248,-295.6942 346.0647,-270.9262 447.5028,-198.6054 482.0945,-172.3558"/>
<polygon fill="#191970" stroke="#191970" points="39.9716,-181.4807 34.5586,-172.373 33.1106,-182.8684 39.9716,-181.4807"/>
</g>
<!-- Node361260 -->
<g id="node5" class="node">
<title>Node361260</title>
<g id="a_node5"><a xlink:href="quickjs_8c.html#ab24f0a3286c69433ab7e48dcc39c36cb" target="_top" xlink:title="JS_WriteTypedArray">
<polygon fill="none" stroke="#000000" points="439,-115.1942 439,-134.1942 550,-134.1942 550,-115.1942 439,-115.1942"/>
<text text-anchor="middle" x="494.5" y="-122.1942" font-family="Helvetica,sans-Serif" font-size="10.00" fill="#000000">JS_WriteTypedArray</text>
</a>
</g>
</g>
<!-- Node361256&#45;&gt;Node361260 -->
<g id="edge22" class="edge">
<title>Node361256&#45;&gt;Node361260</title>
<path fill="none" stroke="#191970" d="M40.3737,-143.7453C50.4225,-120.8969 70.8155,-83.5864 102,-67.6942 233.2887,-.787 419.3548,-85.5714 476.8739,-115.1921"/>
<polygon fill="#191970" stroke="#191970" points="37.0929,-142.5194 36.4829,-153.0967 43.5559,-145.2084 37.0929,-142.5194"/>
</g>
<!-- Node361264 -->
<g id="node7" class="node">
<title>Node361264</title>
<g id="a_node7"><a xlink:href="quickjs_8c.html#aa1abbd3f9bc2fb523e3ff45f58fe42ab" target="_top" xlink:title="JS_WriteArrayBuffer">
<polygon fill="none" stroke="#000000" points="119,-77.1942 119,-96.1942 231,-96.1942 231,-77.1942 119,-77.1942"/>
<text text-anchor="middle" x="175" y="-84.1942" font-family="Helvetica,sans-Serif" font-size="10.00" fill="#000000">JS_WriteArrayBuffer</text>
</a>
</g>
</g>
<!-- Node361256&#45;&gt;Node361264 -->
<g id="edge10" class="edge">
<title>Node361256&#45;&gt;Node361264</title>
<path fill="none" stroke="#191970" d="M49.1497,-145.8196C62.2655,-133.0485 81.8351,-116.0017 102,-105.6942 109.4629,-101.8794 117.7568,-98.7846 125.9999,-96.2881"/>
<polygon fill="#191970" stroke="#191970" points="46.4522,-143.568 41.8696,-153.1205 51.409,-148.5107 46.4522,-143.568"/>
</g>
<!-- Node361265 -->
<g id="node8" class="node">
<title>Node361265</title>
<g id="a_node8"><a xlink:href="quickjs_8c.html#aded409755b8a76b40d57ec5fbe8d9653" target="_top" xlink:title="JS_WriteFunctionTag">
<polygon fill="none" stroke="#000000" points="118.5,-267.1942 118.5,-286.1942 231.5,-286.1942 231.5,-267.1942 118.5,-267.1942"/>
<text text-anchor="middle" x="175" y="-274.1942" font-family="Helvetica,sans-Serif" font-size="10.00" fill="#000000">JS_WriteFunctionTag</text>
</a>
</g>
</g>
<!-- Node361256&#45;&gt;Node361265 -->
<g id="edge12" class="edge">
<title>Node361256&#45;&gt;Node361265</title>
<path fill="none" stroke="#191970" d="M41.759,-181.6809C52.7499,-203.3727 73.652,-238.3574 102,-257.6942 107.7339,-261.6054 114.2225,-264.7115 120.9076,-267.1782"/>
<polygon fill="#191970" stroke="#191970" points="44.8115,-179.9545 37.2927,-172.49 38.5155,-183.0141 44.8115,-179.9545"/>
</g>
<!-- Node361266 -->
<g id="node9" class="node">
<title>Node361266</title>
<g id="a_node9"><a xlink:href="quickjs_8c.html#ab921f333383ee439053ef22586ea7e5e" target="_top" xlink:title="JS_WriteModule">
<polygon fill="none" stroke="#000000" points="129,-229.1942 129,-248.1942 221,-248.1942 221,-229.1942 129,-229.1942"/>
<text text-anchor="middle" x="175" y="-236.1942" font-family="Helvetica,sans-Serif" font-size="10.00" fill="#000000">JS_WriteModule</text>
</a>
</g>
</g>
<!-- Node361256&#45;&gt;Node361266 -->
<g id="edge14" class="edge">
<title>Node361256&#45;&gt;Node361266</title>
<path fill="none" stroke="#191970" d="M49.1497,-179.5687C62.2655,-192.3399 81.8351,-209.3867 102,-219.6942 110.2791,-223.9261 119.5811,-227.2722 128.7016,-229.8981"/>
<polygon fill="#191970" stroke="#191970" points="51.409,-176.8777 41.8696,-172.2679 46.4522,-181.8204 51.409,-176.8777"/>
</g>
<!-- Node361267 -->
<g id="node10" class="node">
<title>Node361267</title>
<g id="a_node10"><a xlink:href="quickjs_8c.html#a91942742587df191fbf0f17a2ede99ef" target="_top" xlink:title="JS_WriteObjectAtoms">
<polygon fill="none" stroke="#000000" points="284,-1.1942 284,-20.1942 403,-20.1942 403,-1.1942 284,-1.1942"/>
<text text-anchor="middle" x="343.5" y="-8.1942" font-family="Helvetica,sans-Serif" font-size="10.00" fill="#000000">JS_WriteObjectAtoms</text>
</a>
</g>
</g>
<!-- Node361256&#45;&gt;Node361267 -->
<g id="edge16" class="edge">
<title>Node361256&#45;&gt;Node361267</title>
<path fill="none" stroke="#191970" d="M37.4064,-143.0707C45.0653,-113.9857 63.8098,-60.1388 102,-34.6942 155.7354,1.1076 231.6795,2.6458 283.9859,-1.8869"/>
<polygon fill="#191970" stroke="#191970" points="33.9798,-142.3487 34.9963,-152.8946 40.7782,-144.0165 33.9798,-142.3487"/>
</g>
<!-- Node361268 -->
<g id="node11" class="node">
<title>Node361268</title>
<g id="a_node11"><a xlink:href="quickjs_8c.html#a7d118830f69bffb6590c82bd3c077ac5" target="_top" xlink:title="JS_WriteSharedArrayBuffer">
<polygon fill="none" stroke="#000000" points="102,-191.1942 102,-210.1942 248,-210.1942 248,-191.1942 102,-191.1942"/>
<text text-anchor="middle" x="175" y="-198.1942" font-family="Helvetica,sans-Serif" font-size="10.00" fill="#000000">JS_WriteSharedArrayBuffer</text>
</a>
</g>
</g>
<!-- Node361256&#45;&gt;Node361268 -->
<g id="edge20" class="edge">
<title>Node361256&#45;&gt;Node361268</title>
<path fill="none" stroke="#191970" d="M76.204,-174.2558C96.4413,-179.6714 120.2564,-186.0445 139.4337,-191.1764"/>
<polygon fill="#191970" stroke="#191970" points="76.8576,-170.8076 66.2927,-171.6035 75.048,-177.5697 76.8576,-170.8076"/>
</g>
<!-- Node361257&#45;&gt;Node361258 -->
<g id="edge2" class="edge">
<title>Node361257&#45;&gt;Node361258</title>
<path fill="none" stroke="#191970" d="M226.9148,-124.2609C253.4318,-126.4546 284.9869,-130.244 308.5771,-134.163"/>
<polygon fill="#191970" stroke="#191970" points="226.8897,-120.7488 216.6517,-123.4751 226.3553,-127.7284 226.8897,-120.7488"/>
</g>
<!-- Node361258&#45;&gt;Node361257 -->
<g id="edge3" class="edge">
<title>Node361258&#45;&gt;Node361257</title>
<path fill="none" stroke="#191970" d="M280.6197,-143.157C256.7025,-140.9095 230.3251,-137.615 209.9133,-134.2237"/>
<polygon fill="#191970" stroke="#191970" points="280.4239,-146.6533 290.6948,-144.0533 281.0443,-139.6809 280.4239,-146.6533"/>
</g>
<!-- Node361258&#45;&gt;Node361258 -->
<g id="edge8" class="edge">
<title>Node361258&#45;&gt;Node361258</title>
<path fill="none" stroke="#191970" d="M315.5009,-162.3481C316.6712,-167.631 326.0043,-171.6942 343.5,-171.6942 370.1602,-171.6942 377.8666,-162.2594 366.6194,-153.4512"/>
<polygon fill="#191970" stroke="#191970" points="318.6403,-163.9022 320.3806,-153.4512 312.5029,-160.5359 318.6403,-163.9022"/>
</g>
<!-- Node361258&#45;&gt;Node361259 -->
<g id="edge4" class="edge">
<title>Node361258&#45;&gt;Node361259</title>
<path fill="none" stroke="#191970" d="M406.3984,-144.9428C425.9426,-147.1384 446.6463,-150.0983 463.0694,-153.1381"/>
<polygon fill="#191970" stroke="#191970" points="406.6271,-141.4475 396.3125,-143.868 405.8852,-148.408 406.6271,-141.4475"/>
</g>
<!-- Node361258&#45;&gt;Node361260 -->
<g id="edge6" class="edge">
<title>Node361258&#45;&gt;Node361260</title>
<path fill="none" stroke="#191970" d="M384.7636,-132.4111C401.4362,-129.625 420.9347,-127.0223 438.8328,-125.1601"/>
<polygon fill="#191970" stroke="#191970" points="384.0304,-128.9863 374.7873,-134.1646 385.2422,-135.8806 384.0304,-128.9863"/>
</g>
<!-- Node361261 -->
<g id="node6" class="node">
<title>Node361261</title>
<g id="a_node6"><a xlink:href="quickjs_8c.html#a431ceb41084feaa6af4e466b8b772ab1" target="_top" xlink:title="JS_WriteObject2">
<polygon fill="none" stroke="#ff0000" points="447.5,-39.1942 447.5,-58.1942 541.5,-58.1942 541.5,-39.1942 447.5,-39.1942"/>
<text text-anchor="middle" x="494.5" y="-46.1942" font-family="Helvetica,sans-Serif" font-size="10.00" fill="#000000">JS_WriteObject2</text>
</a>
</g>
</g>
<!-- Node361258&#45;&gt;Node361261 -->
<g id="edge9" class="edge">
<title>Node361258&#45;&gt;Node361261</title>
<path fill="none" stroke="#191970" d="M367.3726,-128.675C398.6982,-108.9668 452.7802,-74.9417 479.1498,-58.3516"/>
<polygon fill="#191970" stroke="#191970" points="365.4101,-125.7746 358.8097,-134.0623 369.1377,-131.6995 365.4101,-125.7746"/>
</g>
<!-- Node361259&#45;&gt;Node361258 -->
<g id="edge5" class="edge">
<title>Node361259&#45;&gt;Node361258</title>
<path fill="none" stroke="#191970" d="M432.2414,-161.5172C412.4532,-159.3082 391.4123,-156.306 374.7873,-153.2237"/>
<polygon fill="#191970" stroke="#191970" points="432.1325,-165.0251 442.4452,-162.5962 432.8687,-158.0639 432.1325,-165.0251"/>
</g>
<!-- Node361260&#45;&gt;Node361258 -->
<g id="edge7" class="edge">
<title>Node361260&#45;&gt;Node361258</title>
<path fill="none" stroke="#191970" d="M453.1394,-135.9934C435.5967,-138.9222 414.9391,-141.6471 396.3125,-143.5204"/>
<polygon fill="#191970" stroke="#191970" points="453.8252,-139.4266 463.0694,-134.2503 452.6148,-132.532 453.8252,-139.4266"/>
</g>
<!-- Node361264&#45;&gt;Node361258 -->
<g id="edge11" class="edge">
<title>Node361264&#45;&gt;Node361258</title>
<path fill="none" stroke="#191970" d="M225.0864,-98.8506C232.8055,-100.9771 240.6498,-103.2856 248,-105.6942 273.7746,-114.1402 302.6093,-125.9531 321.7838,-134.1571"/>
<polygon fill="#191970" stroke="#191970" points="225.9875,-95.4687 215.4223,-96.2607 224.1754,-102.2301 225.9875,-95.4687"/>
</g>
<!-- Node361265&#45;&gt;Node361258 -->
<g id="edge13" class="edge">
<title>Node361265&#45;&gt;Node361258</title>
<path fill="none" stroke="#191970" d="M237.436,-263.3396C241.1168,-261.6733 244.6712,-259.8 248,-257.6942 291.8567,-229.9502 325.7176,-175.4953 338.2429,-153.3773"/>
<polygon fill="#191970" stroke="#191970" points="236.0741,-260.1146 228.0819,-267.0698 238.6671,-266.6166 236.0741,-260.1146"/>
</g>
<!-- Node361266&#45;&gt;Node361258 -->
<g id="edge15" class="edge">
<title>Node361266&#45;&gt;Node361258</title>
<path fill="none" stroke="#191970" d="M231.0961,-226.6818C236.9322,-224.6729 242.6716,-222.3567 248,-219.6942 283.4451,-201.9825 318.0644,-169.594 334.1515,-153.4213"/>
<polygon fill="#191970" stroke="#191970" points="229.7292,-223.4425 221.2383,-229.7794 231.8277,-230.1206 229.7292,-223.4425"/>
</g>
<!-- Node361267&#45;&gt;Node361261 -->
<g id="edge17" class="edge">
<title>Node361267&#45;&gt;Node361261</title>
<path fill="none" stroke="#191970" d="M391.3431,-22.7342C412.4386,-28.0429 436.8766,-34.1929 456.6703,-39.1741"/>
<polygon fill="#191970" stroke="#191970" points="392.1555,-19.3295 381.6037,-20.2832 390.4471,-26.1179 392.1555,-19.3295"/>
</g>
<!-- Node361268&#45;&gt;Node361258 -->
<g id="edge21" class="edge">
<title>Node361268&#45;&gt;Node361258</title>
<path fill="none" stroke="#191970" d="M214.2415,-187.9132C225.1807,-184.3176 237.0628,-180.3815 248,-176.6942 270.9391,-168.9605 296.8982,-159.9753 315.9555,-153.3352"/>
<polygon fill="#191970" stroke="#191970" points="212.9261,-184.6611 204.5144,-191.1027 215.1072,-191.3127 212.9261,-184.6611"/>
</g>
</g>
</svg>
        <g id="navigator" transform="translate(0 0)" fill="#404254">
                <rect fill="#f2f5e9" fill-opacity="0.5" stroke="#606060" stroke-width=".5" x="0" y="0" width="60" height="60"/>
                <use id="zoomplus" xlink:href="#zoomPlus" x="17" y="9" onmousedown="handleZoom(evt,'in')"/>
                <use id="zoomminus" xlink:href="#zoomMin" x="42" y="9" onmousedown="handleZoom(evt,'out')"/>
                <use id="reset" xlink:href="#resetDef" x="30" y="36" onmousedown="handleReset()"/>
                <g id="arrowUp" xlink:href="#dirArrow" transform="translate(30 24)" onmousedown="handlePan(0,-1)">
                  <use xlink:href="#rim" fill="#404040">
                        <set attributeName="fill" to="#808080" begin="arrowUp.mouseover" end="arrowUp.mouseout"/>
                  </use>
                  <path fill="none" stroke="white" stroke-width="1.5" d="M0,-3.0v7 M-2.5,-0.5L0,-3.0L2.5,-0.5"/>
                </g>
                <g id="arrowRight" xlink:href="#dirArrow" transform="rotate(90) translate(36 -43)" onmousedown="handlePan(1,0)">
                  <use xlink:href="#rim" fill="#404040">
                        <set attributeName="fill" to="#808080" begin="arrowRight.mouseover" end="arrowRight.mouseout"/>
                  </use>
                  <path fill="none" stroke="white" stroke-width="1.5" d="M0,-3.0v7 M-2.5,-0.5L0,-3.0L2.5,-0.5"/>
                </g>
                <g id="arrowDown" xlink:href="#dirArrow" transform="rotate(180) translate(-30 -48)" onmousedown="handlePan(0,1)">
                  <use xlink:href="#rim" fill="#404040">
                        <set attributeName="fill" to="#808080" begin="arrowDown.mouseover" end="arrowDown.mouseout"/>
                  </use>
                  <path fill="none" stroke="white" stroke-width="1.5" d="M0,-3.0v7 M-2.5,-0.5L0,-3.0L2.5,-0.5"/>
                </g>
                <g id="arrowLeft" xlink:href="#dirArrow" transform="rotate(270) translate(-36 17)" onmousedown="handlePan(-1,0)">
                  <use xlink:href="#rim" fill="#404040">
                        <set attributeName="fill" to="#808080" begin="arrowLeft.mouseover" end="arrowLeft.mouseout"/>
                  </use>
                  <path fill="none" stroke="white" stroke-width="1.5" d="M0,-3.0v7 M-2.5,-0.5L0,-3.0L2.5,-0.5"/>
                </g>
        </g>
        <svg viewBox="0 0 15 15" width="100%" height="30px" preserveAspectRatio="xMaxYMin meet">
         <g id="arrow_out" transform="scale(0.3 0.3)">
          <a xlink:href="quickjs_8c_a1691ba44aef8ba12408b5a824d07600a_icgraph_org.svg" target="_base">
           <rect id="button" ry="5" rx="5" y="6" x="6" height="38" width="38"
                fill="#f2f5e9" fill-opacity="0.5" stroke="#606060" stroke-width="1.0"/>
           <path id="arrow"
             d="M 11.500037,31.436501 C 11.940474,20.09759 22.043105,11.32322 32.158766,21.979434 L 37.068811,17.246167 C 37.068811,17.246167 37.088388,32 37.088388,32 L 22.160133,31.978069 C 22.160133,31.978069 26.997745,27.140456 26.997745,27.140456 C 18.528582,18.264221 13.291696,25.230495 11.500037,31.436501 z"
             style="fill:#404040;"/>
          </a>
         </g>
        </svg>
</svg>
