<?xml version="1.0" encoding="UTF-8" standalone="no"?>
<!DOCTYPE svg PUBLIC "-//W3C//DTD SVG 1.1//EN"
 "http://www.w3.org/Graphics/SVG/1.1/DTD/svg11.dtd">
<!-- Generated by graphviz version 2.40.1 (20161225.0304)
 -->
<!-- Title: JS_ToNumber Pages: 1 -->
<!--zoomable 180 -->
<svg id="main" version="1.1" xmlns="http://www.w3.org/2000/svg" xmlns:xlink="http://www.w3.org/1999/xlink" xml:space="preserve" onload="init(evt)">
<style type="text/css"><![CDATA[
.edge:hover path { stroke: red; }
.edge:hover polygon { stroke: red; fill: red; }
]]></style>
<script type="text/javascript"><![CDATA[
var edges = document.getElementsByTagName('g');
if (edges && edges.length) {
  for (var i=0;i<edges.length;i++) {
    if (edges[i].id.substr(0,4)=='edge') {
      edges[i].setAttribute('class','edge');
    }
  }
}
]]></script>
        <defs>
                <circle id="rim" cx="0" cy="0" r="7"/>
                <circle id="rim2" cx="0" cy="0" r="3.5"/>
                <g id="zoomPlus">
                        <use xlink:href="#rim" fill="#404040">
                                <set attributeName="fill" to="#808080" begin="zoomplus.mouseover" end="zoomplus.mouseout"/>
                        </use>
                        <path d="M-4,0h8M0,-4v8" fill="none" stroke="white" stroke-width="1.5" pointer-events="none"/>
                </g>
                <g id="zoomMin">
                        <use xlink:href="#rim" fill="#404040">
                                <set attributeName="fill" to="#808080" begin="zoomminus.mouseover" end="zoomminus.mouseout"/>
                        </use>
                        <path d="M-4,0h8" fill="none" stroke="white" stroke-width="1.5" pointer-events="none"/>
                </g>
                <g id="dirArrow">
                        <path fill="none" stroke="white" stroke-width="1.5" d="M0,-3.0v7 M-2.5,-0.5L0,-3.0L2.5,-0.5"/>
                </g>
               <g id="resetDef">
                       <use xlink:href="#rim2" fill="#404040">
                               <set attributeName="fill" to="#808080" begin="reset.mouseover" end="reset.mouseout"/>
                       </use>
               </g>
        </defs>

<script type="text/javascript">
var viewWidth = 898;
var viewHeight = 180;
var sectionId = 'dynsection-91';
</script>
<script xlink:href="svgpan.js"/>
<svg id="graph" class="graph">
<g id="viewport">
<title>JS_ToNumber</title>
<!-- Node32860 -->
<g id="node1" class="node">
<title>Node32860</title>
<polygon fill="#bfbfbf" stroke="#000000" points="0,-38.5 0,-57.5 80,-57.5 80,-38.5 0,-38.5"/>
<text text-anchor="middle" x="40" y="-45.5" font-family="Helvetica,sans-Serif" font-size="10.00" fill="#000000">JS_ToNumber</text>
</g>
<!-- Node32861 -->
<g id="node2" class="node">
<title>Node32861</title>
<g id="a_node2"><a xlink:href="quickjs_8c.html#ab4e100a9cde5f7ec87c92f5e766dbbab" target="_top" xlink:title="JS_AtomIsNumericIndex1">
<polygon fill="none" stroke="#000000" points="116,-38.5 116,-57.5 256,-57.5 256,-38.5 116,-38.5"/>
<text text-anchor="middle" x="186" y="-45.5" font-family="Helvetica,sans-Serif" font-size="10.00" fill="#000000">JS_AtomIsNumericIndex1</text>
</a>
</g>
</g>
<!-- Node32860&#45;&gt;Node32861 -->
<g id="edge1" class="edge">
<title>Node32860&#45;&gt;Node32861</title>
<path fill="none" stroke="#191970" d="M90.4273,-48C98.644,-48 107.2838,-48 115.8707,-48"/>
<polygon fill="#191970" stroke="#191970" points="90.2817,-44.5001 80.2816,-48 90.2816,-51.5001 90.2817,-44.5001"/>
</g>
<!-- Node32862 -->
<g id="node3" class="node">
<title>Node32862</title>
<g id="a_node3"><a xlink:href="quickjs_8c.html#add3eea1f6d626963ade3c28a1fd563d1" target="_top" xlink:title="JS_AtomIsNumericIndex">
<polygon fill="none" stroke="#000000" points="292,-76.5 292,-95.5 426,-95.5 426,-76.5 292,-76.5"/>
<text text-anchor="middle" x="359" y="-83.5" font-family="Helvetica,sans-Serif" font-size="10.00" fill="#000000">JS_AtomIsNumericIndex</text>
</a>
</g>
</g>
<!-- Node32861&#45;&gt;Node32862 -->
<g id="edge2" class="edge">
<title>Node32861&#45;&gt;Node32862</title>
<path fill="none" stroke="#191970" d="M239.5051,-59.7526C263.9673,-65.1258 292.5707,-71.4086 315.6587,-76.4799"/>
<polygon fill="#191970" stroke="#191970" points="240.1733,-56.316 229.6552,-57.589 238.6714,-63.153 240.1733,-56.316"/>
</g>
<!-- Node33025 -->
<g id="node8" class="node">
<title>Node33025</title>
<g id="a_node8"><a xlink:href="quickjs_8c.html#ab50618f1bf78e444caa6da0e3e2785d7" target="_top" xlink:title="JS_DefineProperty">
<polygon fill="none" stroke="#ff0000" points="625,-.5 625,-19.5 729,-19.5 729,-.5 625,-.5"/>
<text text-anchor="middle" x="677" y="-7.5" font-family="Helvetica,sans-Serif" font-size="10.00" fill="#000000">JS_DefineProperty</text>
</a>
</g>
</g>
<!-- Node32861&#45;&gt;Node33025 -->
<g id="edge10" class="edge">
<title>Node32861&#45;&gt;Node33025</title>
<path fill="none" stroke="#191970" d="M266.2717,-41.7875C367.586,-33.9465 538.9618,-20.6832 624.7705,-14.0422"/>
<polygon fill="#191970" stroke="#191970" points="265.7875,-38.3144 256.0874,-42.5757 266.3277,-45.2936 265.7875,-38.3144"/>
</g>
<!-- Node32863 -->
<g id="node4" class="node">
<title>Node32863</title>
<g id="a_node4"><a xlink:href="quickjs_8c.html#a5762c57ae0c9937e986040c01222833a" target="_top" xlink:title="JS_GetPropertyInternal">
<polygon fill="none" stroke="#ff0000" points="462,-152.5 462,-171.5 589,-171.5 589,-152.5 462,-152.5"/>
<text text-anchor="middle" x="525.5" y="-159.5" font-family="Helvetica,sans-Serif" font-size="10.00" fill="#000000">JS_GetPropertyInternal</text>
</a>
</g>
</g>
<!-- Node32862&#45;&gt;Node32863 -->
<g id="edge3" class="edge">
<title>Node32862&#45;&gt;Node32863</title>
<path fill="none" stroke="#191970" d="M382.456,-100.8904C402.8734,-113.3807 433.5732,-131.0452 462,-143 470.4859,-146.5687 479.8693,-149.7624 488.7605,-152.4671"/>
<polygon fill="#191970" stroke="#191970" points="384.1877,-97.8461 373.8436,-95.5549 380.5012,-103.7967 384.1877,-97.8461"/>
</g>
<!-- Node33435 -->
<g id="node5" class="node">
<title>Node33435</title>
<g id="a_node5"><a xlink:href="quickjs_8c.html#a9d6d0a9704951d01c128975e0d2213f8" target="_top" xlink:title="JS_HasProperty">
<polygon fill="none" stroke="#ff0000" points="480,-114.5 480,-133.5 571,-133.5 571,-114.5 480,-114.5"/>
<text text-anchor="middle" x="525.5" y="-121.5" font-family="Helvetica,sans-Serif" font-size="10.00" fill="#000000">JS_HasProperty</text>
</a>
</g>
</g>
<!-- Node32862&#45;&gt;Node33435 -->
<g id="edge4" class="edge">
<title>Node32862&#45;&gt;Node33435</title>
<path fill="none" stroke="#191970" d="M410.809,-97.8243C434.2825,-103.1816 461.6654,-109.4311 483.7871,-114.4799"/>
<polygon fill="#191970" stroke="#191970" points="411.5431,-94.4019 401.015,-95.589 409.9855,-101.2264 411.5431,-94.4019"/>
</g>
<!-- Node32995 -->
<g id="node6" class="node">
<title>Node32995</title>
<g id="a_node6"><a xlink:href="quickjs_8c.html#ad7f03358a8088ca920ab308225c6b2e6" target="_top" xlink:title="JS_SetPropertyInternal">
<polygon fill="none" stroke="#ff0000" points="765,-38.5 765,-57.5 890,-57.5 890,-38.5 765,-38.5"/>
<text text-anchor="middle" x="827.5" y="-45.5" font-family="Helvetica,sans-Serif" font-size="10.00" fill="#000000">JS_SetPropertyInternal</text>
</a>
</g>
</g>
<!-- Node32862&#45;&gt;Node32995 -->
<g id="edge5" class="edge">
<title>Node32862&#45;&gt;Node32995</title>
<path fill="none" stroke="#191970" d="M436.6031,-82.6935C511.5686,-79.0917 628.2492,-72.4122 729,-62 740.8549,-60.7748 753.475,-59.1931 765.5866,-57.5359"/>
<polygon fill="#191970" stroke="#191970" points="436.131,-79.2118 426.308,-83.1813 436.4625,-86.204 436.131,-79.2118"/>
</g>
<!-- Node33061 -->
<g id="node7" class="node">
<title>Node33061</title>
<g id="a_node7"><a xlink:href="quickjs_8c.html#ad5565bb5cfd5321f181573257f3b0c91" target="_top" xlink:title="JS_CreateProperty">
<polygon fill="none" stroke="#ff0000" points="473.5,-38.5 473.5,-57.5 577.5,-57.5 577.5,-38.5 473.5,-38.5"/>
<text text-anchor="middle" x="525.5" y="-45.5" font-family="Helvetica,sans-Serif" font-size="10.00" fill="#000000">JS_CreateProperty</text>
</a>
</g>
</g>
<!-- Node32862&#45;&gt;Node33061 -->
<g id="edge6" class="edge">
<title>Node32862&#45;&gt;Node33061</title>
<path fill="none" stroke="#191970" d="M410.809,-74.1757C434.2825,-68.8184 461.6654,-62.5689 483.7871,-57.5201"/>
<polygon fill="#191970" stroke="#191970" points="409.9855,-70.7736 401.015,-76.411 411.5431,-77.5981 409.9855,-70.7736"/>
</g>
<!-- Node33061&#45;&gt;Node32995 -->
<g id="edge9" class="edge">
<title>Node33061&#45;&gt;Node32995</title>
<path fill="none" stroke="#191970" d="M587.8222,-48C639.6376,-48 713.0292,-48 764.9168,-48"/>
<polygon fill="#191970" stroke="#191970" points="587.7596,-44.5001 577.7596,-48 587.7596,-51.5001 587.7596,-44.5001"/>
</g>
<!-- Node33061&#45;&gt;Node33025 -->
<g id="edge7" class="edge">
<title>Node33061&#45;&gt;Node33025</title>
<path fill="none" stroke="#191970" d="M573.5016,-35.96C594.6668,-30.6512 619.1858,-24.5012 639.0451,-19.5201"/>
<polygon fill="#191970" stroke="#191970" points="572.5779,-32.5832 563.7298,-38.411 574.2809,-39.3729 572.5779,-32.5832"/>
</g>
<!-- Node33025&#45;&gt;Node32995 -->
<g id="edge8" class="edge">
<title>Node33025&#45;&gt;Node32995</title>
<path fill="none" stroke="#191970" d="M724.6847,-22.04C745.7103,-27.3488 770.0674,-33.4988 789.7956,-38.4799"/>
<polygon fill="#191970" stroke="#191970" points="725.5301,-18.6437 714.9775,-19.589 723.8164,-25.4307 725.5301,-18.6437"/>
</g>
</g>
</svg>
        <g id="navigator" transform="translate(0 0)" fill="#404254">
                <rect fill="#f2f5e9" fill-opacity="0.5" stroke="#606060" stroke-width=".5" x="0" y="0" width="60" height="60"/>
                <use id="zoomplus" xlink:href="#zoomPlus" x="17" y="9" onmousedown="handleZoom(evt,'in')"/>
                <use id="zoomminus" xlink:href="#zoomMin" x="42" y="9" onmousedown="handleZoom(evt,'out')"/>
                <use id="reset" xlink:href="#resetDef" x="30" y="36" onmousedown="handleReset()"/>
                <g id="arrowUp" xlink:href="#dirArrow" transform="translate(30 24)" onmousedown="handlePan(0,-1)">
                  <use xlink:href="#rim" fill="#404040">
                        <set attributeName="fill" to="#808080" begin="arrowUp.mouseover" end="arrowUp.mouseout"/>
                  </use>
                  <path fill="none" stroke="white" stroke-width="1.5" d="M0,-3.0v7 M-2.5,-0.5L0,-3.0L2.5,-0.5"/>
                </g>
                <g id="arrowRight" xlink:href="#dirArrow" transform="rotate(90) translate(36 -43)" onmousedown="handlePan(1,0)">
                  <use xlink:href="#rim" fill="#404040">
                        <set attributeName="fill" to="#808080" begin="arrowRight.mouseover" end="arrowRight.mouseout"/>
                  </use>
                  <path fill="none" stroke="white" stroke-width="1.5" d="M0,-3.0v7 M-2.5,-0.5L0,-3.0L2.5,-0.5"/>
                </g>
                <g id="arrowDown" xlink:href="#dirArrow" transform="rotate(180) translate(-30 -48)" onmousedown="handlePan(0,1)">
                  <use xlink:href="#rim" fill="#404040">
                        <set attributeName="fill" to="#808080" begin="arrowDown.mouseover" end="arrowDown.mouseout"/>
                  </use>
                  <path fill="none" stroke="white" stroke-width="1.5" d="M0,-3.0v7 M-2.5,-0.5L0,-3.0L2.5,-0.5"/>
                </g>
                <g id="arrowLeft" xlink:href="#dirArrow" transform="rotate(270) translate(-36 17)" onmousedown="handlePan(-1,0)">
                  <use xlink:href="#rim" fill="#404040">
                        <set attributeName="fill" to="#808080" begin="arrowLeft.mouseover" end="arrowLeft.mouseout"/>
                  </use>
                  <path fill="none" stroke="white" stroke-width="1.5" d="M0,-3.0v7 M-2.5,-0.5L0,-3.0L2.5,-0.5"/>
                </g>
        </g>
        <svg viewBox="0 0 15 15" width="100%" height="30px" preserveAspectRatio="xMaxYMin meet">
         <g id="arrow_out" transform="scale(0.3 0.3)">
          <a xlink:href="quickjs_8c_a1be6d78cdf2c36e34930631587f98d44_icgraph_org.svg" target="_base">
           <rect id="button" ry="5" rx="5" y="6" x="6" height="38" width="38"
                fill="#f2f5e9" fill-opacity="0.5" stroke="#606060" stroke-width="1.0"/>
           <path id="arrow"
             d="M 11.500037,31.436501 C 11.940474,20.09759 22.043105,11.32322 32.158766,21.979434 L 37.068811,17.246167 C 37.068811,17.246167 37.088388,32 37.088388,32 L 22.160133,31.978069 C 22.160133,31.978069 26.997745,27.140456 26.997745,27.140456 C 18.528582,18.264221 13.291696,25.230495 11.500037,31.436501 z"
             style="fill:#404040;"/>
          </a>
         </g>
        </svg>
</svg>
