<?xml version="1.0" encoding="UTF-8" standalone="no"?>
<!DOCTYPE svg PUBLIC "-//W3C//DTD SVG 1.1//EN"
 "http://www.w3.org/Graphics/SVG/1.1/DTD/svg11.dtd">
<!-- Generated by graphviz version 2.40.1 (20161225.0304)
 -->
<!-- Title: JS_GetOpaque Pages: 1 -->
<svg width="641pt" height="374pt"
 viewBox="0.00 0.00 641.00 374.00" xmlns="http://www.w3.org/2000/svg" xmlns:xlink="http://www.w3.org/1999/xlink">
<g id="graph0" class="graph" transform="scale(1 1) rotate(0) translate(4 370)">
<title>JS_GetOpaque</title>
<!-- Node78735 -->
<g id="node1" class="node">
<title>Node78735</title>
<polygon fill="#bfbfbf" stroke="#000000" points="0,-236 0,-255 86,-255 86,-236 0,-236"/>
<text text-anchor="middle" x="43" y="-243" font-family="Helvetica,sans-Serif" font-size="10.00" fill="#000000">JS_GetOpaque</text>
</g>
<!-- Node78736 -->
<g id="node2" class="node">
<title>Node78736</title>
<g id="a_node2"><a xlink:href="quickjs_8c.html#a1951b8aab94369f326d8c0720097c523" target="_top" xlink:title="JS_GetOpaque2">
<polygon fill="none" stroke="#000000" points="133,-286 133,-305 225,-305 225,-286 133,-286"/>
<text text-anchor="middle" x="179" y="-293" font-family="Helvetica,sans-Serif" font-size="10.00" fill="#000000">JS_GetOpaque2</text>
</a>
</g>
</g>
<!-- Node78735&#45;&gt;Node78736 -->
<g id="edge1" class="edge">
<title>Node78735&#45;&gt;Node78736</title>
<path fill="none" stroke="#191970" d="M78.4155,-258.5204C101.673,-267.071 131.5905,-278.07 152.7325,-285.8428"/>
<polygon fill="#191970" stroke="#191970" points="79.4942,-255.188 68.9007,-255.0223 77.0787,-261.7581 79.4942,-255.188"/>
</g>
<!-- Node78737 -->
<g id="node3" class="node">
<title>Node78737</title>
<g id="a_node3"><a xlink:href="structqjs_1_1js__traits_3_01detail_1_1function_01_4.html#afe383c63f389edaf9f878cd30062d37f" target="_top" xlink:title="qjs::js_traits\&lt; detail\l::function \&gt;::register_class">
<polygon fill="none" stroke="#000000" points="277.5,-335.5 277.5,-365.5 424.5,-365.5 424.5,-335.5 277.5,-335.5"/>
<text text-anchor="start" x="285.5" y="-353.5" font-family="Helvetica,sans-Serif" font-size="10.00" fill="#000000">qjs::js_traits&lt; detail</text>
<text text-anchor="middle" x="351" y="-342.5" font-family="Helvetica,sans-Serif" font-size="10.00" fill="#000000">::function &gt;::register_class</text>
</a>
</g>
</g>
<!-- Node78735&#45;&gt;Node78737 -->
<g id="edge18" class="edge">
<title>Node78735&#45;&gt;Node78737</title>
<path fill="none" stroke="#191970" d="M57.771,-263.1446C72.3468,-279.2833 96.1475,-302.4259 122,-314.5 170.6799,-337.2353 230.8638,-346.0485 277.3151,-349.277"/>
<polygon fill="#191970" stroke="#191970" points="60.2472,-260.6595 51.0277,-255.4392 54.9795,-265.2695 60.2472,-260.6595"/>
</g>
<!-- Node78743 -->
<g id="node6" class="node">
<title>Node78743</title>
<g id="a_node6"><a xlink:href="quickjs_8c.html#a192c7bd4fc5264ccdf89e13ed5bc0dcc" target="_top" xlink:title="js_promise_resolve">
<polygon fill="none" stroke="#000000" points="123.5,-165 123.5,-184 234.5,-184 234.5,-165 123.5,-165"/>
<text text-anchor="middle" x="179" y="-172" font-family="Helvetica,sans-Serif" font-size="10.00" fill="#000000">js_promise_resolve</text>
</a>
</g>
</g>
<!-- Node78735&#45;&gt;Node78743 -->
<g id="edge5" class="edge">
<title>Node78735&#45;&gt;Node78743</title>
<path fill="none" stroke="#191970" d="M70.213,-231.2932C97.0153,-217.3008 137.2259,-196.3085 160.5147,-184.1504"/>
<polygon fill="#191970" stroke="#191970" points="68.5865,-228.194 61.3416,-235.9246 71.826,-234.3993 68.5865,-228.194"/>
</g>
<!-- Node78755 -->
<g id="node16" class="node">
<title>Node78755</title>
<g id="a_node16"><a xlink:href="structqjs_1_1js__traits_3_01std_1_1shared__ptr_3_01T_01_4_01_4.html#af3558afeef079826c58411353c8ccce0" target="_top" xlink:title="Register class in QuickJS context. ">
<polygon fill="none" stroke="#000000" points="122,-61 122,-102 236,-102 236,-61 122,-61"/>
<text text-anchor="start" x="130" y="-90" font-family="Helvetica,sans-Serif" font-size="10.00" fill="#000000">qjs::js_traits&lt; std</text>
<text text-anchor="start" x="130" y="-79" font-family="Helvetica,sans-Serif" font-size="10.00" fill="#000000">::shared_ptr&lt; T &gt; &gt;</text>
<text text-anchor="middle" x="179" y="-68" font-family="Helvetica,sans-Serif" font-size="10.00" fill="#000000">::register_class</text>
</a>
</g>
</g>
<!-- Node78735&#45;&gt;Node78755 -->
<g id="edge16" class="edge">
<title>Node78735&#45;&gt;Node78755</title>
<path fill="none" stroke="#191970" d="M57.4863,-228.0313C82.806,-197.4986 134.9806,-134.5823 161.9798,-102.0244"/>
<polygon fill="#191970" stroke="#191970" points="54.7894,-225.8004 51.1001,-235.7322 60.1777,-230.2688 54.7894,-225.8004"/>
</g>
<!-- Node78736&#45;&gt;Node78737 -->
<g id="edge2" class="edge">
<title>Node78736&#45;&gt;Node78737</title>
<path fill="none" stroke="#191970" d="M218.5885,-308.324C235.0949,-313.6571 254.4687,-319.8985 272,-325.5 282.1403,-328.74 293.0193,-332.1958 303.3626,-335.4719"/>
<polygon fill="#191970" stroke="#191970" points="219.3154,-304.8807 208.7236,-305.1347 217.162,-311.5413 219.3154,-304.8807"/>
</g>
<!-- Node78742 -->
<g id="node5" class="node">
<title>Node78742</title>
<g id="a_node5"><a xlink:href="structqjs_1_1js__traits_3_01std_1_1shared__ptr_3_01T_01_4_01_4.html#a34eea271d3cd85ddae26e5c33b400070" target="_top" xlink:title="qjs::js_traits\&lt; std\l::shared_ptr\&lt; T \&gt; \&gt;\l::unwrap">
<polygon fill="none" stroke="#000000" points="294,-275 294,-316 408,-316 408,-275 294,-275"/>
<text text-anchor="start" x="302" y="-304" font-family="Helvetica,sans-Serif" font-size="10.00" fill="#000000">qjs::js_traits&lt; std</text>
<text text-anchor="start" x="302" y="-293" font-family="Helvetica,sans-Serif" font-size="10.00" fill="#000000">::shared_ptr&lt; T &gt; &gt;</text>
<text text-anchor="middle" x="351" y="-282" font-family="Helvetica,sans-Serif" font-size="10.00" fill="#000000">::unwrap</text>
</a>
</g>
</g>
<!-- Node78736&#45;&gt;Node78742 -->
<g id="edge4" class="edge">
<title>Node78736&#45;&gt;Node78742</title>
<path fill="none" stroke="#191970" d="M235.2562,-295.5C253.9965,-295.5 274.8859,-295.5 293.7041,-295.5"/>
<polygon fill="#191970" stroke="#191970" points="235.0929,-292.0001 225.0928,-295.5 235.0928,-299.0001 235.0929,-292.0001"/>
</g>
<!-- Node78738 -->
<g id="node4" class="node">
<title>Node78738</title>
<g id="a_node4"><a xlink:href="classqjs_1_1Context.html#aae629cc551168d549a405db5c762b61e" target="_top" xlink:title="qjs::Context::init">
<polygon fill="none" stroke="#ff0000" points="501,-341 501,-360 598,-360 598,-341 501,-341"/>
<text text-anchor="middle" x="549.5" y="-348" font-family="Helvetica,sans-Serif" font-size="10.00" fill="#000000">qjs::Context::init</text>
</a>
</g>
</g>
<!-- Node78737&#45;&gt;Node78738 -->
<g id="edge3" class="edge">
<title>Node78737&#45;&gt;Node78738</title>
<path fill="none" stroke="#191970" d="M434.8978,-350.5C457.4445,-350.5 481.0745,-350.5 500.9806,-350.5"/>
<polygon fill="#191970" stroke="#191970" points="434.632,-347.0001 424.632,-350.5 434.632,-354.0001 434.632,-347.0001"/>
</g>
<!-- Node78744 -->
<g id="node7" class="node">
<title>Node78744</title>
<g id="a_node7"><a xlink:href="quickjs_8c.html#aa45afa6d2861615f29444c9614ce766a" target="_top" xlink:title="js_async_from_sync\l_iterator_next">
<polygon fill="none" stroke="#000000" points="293.5,-225.5 293.5,-255.5 408.5,-255.5 408.5,-225.5 293.5,-225.5"/>
<text text-anchor="start" x="301.5" y="-243.5" font-family="Helvetica,sans-Serif" font-size="10.00" fill="#000000">js_async_from_sync</text>
<text text-anchor="middle" x="351" y="-232.5" font-family="Helvetica,sans-Serif" font-size="10.00" fill="#000000">_iterator_next</text>
</a>
</g>
</g>
<!-- Node78743&#45;&gt;Node78744 -->
<g id="edge6" class="edge">
<title>Node78743&#45;&gt;Node78744</title>
<path fill="none" stroke="#191970" d="M208.4879,-188.4838C226.6074,-196.829 250.4096,-207.3522 272,-215.5 281.1522,-218.9539 291.0163,-222.3368 300.5683,-225.4427"/>
<polygon fill="#191970" stroke="#191970" points="209.6,-185.1411 199.0563,-184.1006 206.6498,-191.4891 209.6,-185.1411"/>
</g>
<!-- Node78745 -->
<g id="node8" class="node">
<title>Node78745</title>
<g id="a_node8"><a xlink:href="quickjs_8c.html#a1bf6b62983e8fff99c0a5d5a9f486115" target="_top" xlink:title="js_async_function_resume">
<polygon fill="none" stroke="#000000" points="278,-187 278,-206 424,-206 424,-187 278,-187"/>
<text text-anchor="middle" x="351" y="-194" font-family="Helvetica,sans-Serif" font-size="10.00" fill="#000000">js_async_function_resume</text>
</a>
</g>
</g>
<!-- Node78743&#45;&gt;Node78745 -->
<g id="edge7" class="edge">
<title>Node78743&#45;&gt;Node78745</title>
<path fill="none" stroke="#191970" d="M245.0042,-182.9424C255.7681,-184.3192 266.9744,-185.7525 277.8968,-187.1496"/>
<polygon fill="#191970" stroke="#191970" points="245.2067,-179.4399 234.8435,-181.6428 244.3186,-186.3833 245.2067,-179.4399"/>
</g>
<!-- Node78750 -->
<g id="node11" class="node">
<title>Node78750</title>
<g id="a_node11"><a xlink:href="quickjs_8c.html#a0950cebccf1347ea44a3c6927d3a5fa6" target="_top" xlink:title="js_async_generator\l_await">
<polygon fill="none" stroke="#000000" points="295.5,-137.5 295.5,-167.5 406.5,-167.5 406.5,-137.5 295.5,-137.5"/>
<text text-anchor="start" x="303.5" y="-155.5" font-family="Helvetica,sans-Serif" font-size="10.00" fill="#000000">js_async_generator</text>
<text text-anchor="middle" x="351" y="-144.5" font-family="Helvetica,sans-Serif" font-size="10.00" fill="#000000">_await</text>
</a>
</g>
</g>
<!-- Node78743&#45;&gt;Node78750 -->
<g id="edge10" class="edge">
<title>Node78743&#45;&gt;Node78750</title>
<path fill="none" stroke="#191970" d="M245.0423,-166.0527C261.6795,-163.9247 279.3716,-161.6618 295.4367,-159.6069"/>
<polygon fill="#191970" stroke="#191970" points="244.3186,-162.6167 234.8435,-167.3572 245.2067,-169.5601 244.3186,-162.6167"/>
</g>
<!-- Node78752 -->
<g id="node13" class="node">
<title>Node78752</title>
<g id="a_node13"><a xlink:href="quickjs_8c.html#a5d885b4633392386983e2d76c175dee7" target="_top" xlink:title="js_async_generator\l_completed_return">
<polygon fill="none" stroke="#000000" points="295.5,-88.5 295.5,-118.5 406.5,-118.5 406.5,-88.5 295.5,-88.5"/>
<text text-anchor="start" x="303.5" y="-106.5" font-family="Helvetica,sans-Serif" font-size="10.00" fill="#000000">js_async_generator</text>
<text text-anchor="middle" x="351" y="-95.5" font-family="Helvetica,sans-Serif" font-size="10.00" fill="#000000">_completed_return</text>
</a>
</g>
</g>
<!-- Node78743&#45;&gt;Node78752 -->
<g id="edge12" class="edge">
<title>Node78743&#45;&gt;Node78752</title>
<path fill="none" stroke="#191970" d="M205.3838,-160.0997C223.7361,-150.4203 248.9502,-137.7843 272,-128.5 280.8069,-124.9526 290.3237,-121.5727 299.599,-118.5096"/>
<polygon fill="#191970" stroke="#191970" points="203.6369,-157.0646 196.4601,-164.8584 206.9308,-163.2413 203.6369,-157.0646"/>
</g>
<!-- Node78753 -->
<g id="node14" class="node">
<title>Node78753</title>
<g id="a_node14"><a xlink:href="quickjs_8c.html#a976c7217666ebb9ef04fd8cba9ba2dd2" target="_top" xlink:title="js_promise_then_finally_func">
<polygon fill="none" stroke="#000000" points="272,-50 272,-69 430,-69 430,-50 272,-50"/>
<text text-anchor="middle" x="351" y="-57" font-family="Helvetica,sans-Serif" font-size="10.00" fill="#000000">js_promise_then_finally_func</text>
</a>
</g>
</g>
<!-- Node78743&#45;&gt;Node78753 -->
<g id="edge14" class="edge">
<title>Node78743&#45;&gt;Node78753</title>
<path fill="none" stroke="#191970" d="M195.0715,-157.0902C219.173,-131.1368 262.8381,-84.77 272,-79.5 279.6036,-75.1263 288.1579,-71.698 296.7565,-69.0138"/>
<polygon fill="#191970" stroke="#191970" points="192.2306,-155.0068 188.0024,-164.7214 197.3658,-159.7638 192.2306,-155.0068"/>
</g>
<!-- Node78746 -->
<g id="node9" class="node">
<title>Node78746</title>
<g id="a_node9"><a xlink:href="quickjs_8c.html#a8029b29b8458274699fbcb7ce42a7100" target="_top" xlink:title="js_async_function_call">
<polygon fill="none" stroke="#ff0000" points="486.5,-206 486.5,-225 612.5,-225 612.5,-206 486.5,-206"/>
<text text-anchor="middle" x="549.5" y="-213" font-family="Helvetica,sans-Serif" font-size="10.00" fill="#000000">js_async_function_call</text>
</a>
</g>
</g>
<!-- Node78745&#45;&gt;Node78746 -->
<g id="edge8" class="edge">
<title>Node78745&#45;&gt;Node78746</title>
<path fill="none" stroke="#191970" d="M434.2461,-204.4681C451.6937,-206.1382 469.819,-207.8731 486.3881,-209.4591"/>
<polygon fill="#191970" stroke="#191970" points="434.3564,-200.9628 424.0684,-203.494 433.6894,-207.9309 434.3564,-200.9628"/>
</g>
<!-- Node78749 -->
<g id="node10" class="node">
<title>Node78749</title>
<g id="a_node10"><a xlink:href="quickjs_8c.html#a2cf6c9a897a2a59d310f3cf18897b639" target="_top" xlink:title="js_async_function_resolve_call">
<polygon fill="none" stroke="#ff0000" points="466,-168 466,-187 633,-187 633,-168 466,-168"/>
<text text-anchor="middle" x="549.5" y="-175" font-family="Helvetica,sans-Serif" font-size="10.00" fill="#000000">js_async_function_resolve_call</text>
</a>
</g>
</g>
<!-- Node78745&#45;&gt;Node78749 -->
<g id="edge9" class="edge">
<title>Node78745&#45;&gt;Node78749</title>
<path fill="none" stroke="#191970" d="M434.0557,-188.5501C444.5689,-187.5438 455.3312,-186.5136 465.8536,-185.5065"/>
<polygon fill="#191970" stroke="#191970" points="433.6894,-185.0691 424.0684,-189.506 434.3564,-192.0372 433.6894,-185.0691"/>
</g>
<!-- Node78751 -->
<g id="node12" class="node">
<title>Node78751</title>
<g id="a_node12"><a xlink:href="quickjs_8c.html#a89b019c704a2d2914bc30b30a72040b3" target="_top" xlink:title="js_async_generator\l_resume_next">
<polygon fill="none" stroke="#000000" points="494,-113.5 494,-143.5 605,-143.5 605,-113.5 494,-113.5"/>
<text text-anchor="start" x="502" y="-131.5" font-family="Helvetica,sans-Serif" font-size="10.00" fill="#000000">js_async_generator</text>
<text text-anchor="middle" x="549.5" y="-120.5" font-family="Helvetica,sans-Serif" font-size="10.00" fill="#000000">_resume_next</text>
</a>
</g>
</g>
<!-- Node78750&#45;&gt;Node78751 -->
<g id="edge11" class="edge">
<title>Node78750&#45;&gt;Node78751</title>
<path fill="none" stroke="#191970" d="M416.6966,-144.5568C441.7189,-141.5315 469.9661,-138.1162 493.9561,-135.2156"/>
<polygon fill="#191970" stroke="#191970" points="416.0648,-141.1076 406.5573,-145.7827 416.9051,-148.057 416.0648,-141.1076"/>
</g>
<!-- Node78752&#45;&gt;Node78751 -->
<g id="edge13" class="edge">
<title>Node78752&#45;&gt;Node78751</title>
<path fill="none" stroke="#191970" d="M416.6966,-111.7741C441.7189,-114.9256 469.9661,-118.4831 493.9561,-121.5046"/>
<polygon fill="#191970" stroke="#191970" points="416.9163,-108.2742 406.5573,-110.4971 416.0415,-115.2194 416.9163,-108.2742"/>
</g>
<!-- Node78754 -->
<g id="node15" class="node">
<title>Node78754</title>
<g id="a_node15"><a xlink:href="quickjs_8c.html#a7f42cf22a3fab5aa419eb5122569576c" target="_top" xlink:title="js_promise_finally">
<polygon fill="none" stroke="#000000" points="497,-50 497,-69 602,-69 602,-50 497,-50"/>
<text text-anchor="middle" x="549.5" y="-57" font-family="Helvetica,sans-Serif" font-size="10.00" fill="#000000">js_promise_finally</text>
</a>
</g>
</g>
<!-- Node78753&#45;&gt;Node78754 -->
<g id="edge15" class="edge">
<title>Node78753&#45;&gt;Node78754</title>
<path fill="none" stroke="#191970" d="M440.1167,-59.5C459.5408,-59.5 479.488,-59.5 496.9406,-59.5"/>
<polygon fill="#191970" stroke="#191970" points="440.0228,-56.0001 430.0228,-59.5 440.0228,-63.0001 440.0228,-56.0001"/>
</g>
<!-- Node78756 -->
<g id="node17" class="node">
<title>Node78756</title>
<g id="a_node17"><a xlink:href="structqjs_1_1js__traits_3_01std_1_1shared__ptr_3_01T_01_4_01_4.html#a046f811ae16e0cb24170a8425f3e8780" target="_top" xlink:title="Create a JSValue from std::shared_ptr&lt;T&gt;. ">
<polygon fill="none" stroke="#000000" points="279,-.5 279,-30.5 423,-30.5 423,-.5 279,-.5"/>
<text text-anchor="start" x="287" y="-18.5" font-family="Helvetica,sans-Serif" font-size="10.00" fill="#000000">qjs::js_traits&lt; std</text>
<text text-anchor="middle" x="351" y="-7.5" font-family="Helvetica,sans-Serif" font-size="10.00" fill="#000000">::shared_ptr&lt; T &gt; &gt;::wrap</text>
</a>
</g>
</g>
<!-- Node78755&#45;&gt;Node78756 -->
<g id="edge17" class="edge">
<title>Node78755&#45;&gt;Node78756</title>
<path fill="none" stroke="#191970" d="M232.262,-56.8318C245.1583,-51.1897 258.9813,-45.413 272,-40.5 281.1522,-37.0461 291.0163,-33.6632 300.5683,-30.5573"/>
<polygon fill="#191970" stroke="#191970" points="230.7895,-53.656 223.06,-60.9021 233.6212,-60.0577 230.7895,-53.656"/>
</g>
</g>
</svg>
