<?xml version="1.0" encoding="UTF-8" standalone="no"?>
<!DOCTYPE svg PUBLIC "-//W3C//DTD SVG 1.1//EN"
 "http://www.w3.org/Graphics/SVG/1.1/DTD/svg11.dtd">
<!-- Generated by graphviz version 2.40.1 (20161225.0304)
 -->
<!-- Title: add_closure_var Pages: 1 -->
<!--zoomable 116 -->
<svg id="main" version="1.1" xmlns="http://www.w3.org/2000/svg" xmlns:xlink="http://www.w3.org/1999/xlink" xml:space="preserve" onload="init(evt)">
<style type="text/css"><![CDATA[
.edge:hover path { stroke: red; }
.edge:hover polygon { stroke: red; fill: red; }
]]></style>
<script type="text/javascript"><![CDATA[
var edges = document.getElementsByTagName('g');
if (edges && edges.length) {
  for (var i=0;i<edges.length;i++) {
    if (edges[i].id.substr(0,4)=='edge') {
      edges[i].setAttribute('class','edge');
    }
  }
}
]]></script>
        <defs>
                <circle id="rim" cx="0" cy="0" r="7"/>
                <circle id="rim2" cx="0" cy="0" r="3.5"/>
                <g id="zoomPlus">
                        <use xlink:href="#rim" fill="#404040">
                                <set attributeName="fill" to="#808080" begin="zoomplus.mouseover" end="zoomplus.mouseout"/>
                        </use>
                        <path d="M-4,0h8M0,-4v8" fill="none" stroke="white" stroke-width="1.5" pointer-events="none"/>
                </g>
                <g id="zoomMin">
                        <use xlink:href="#rim" fill="#404040">
                                <set attributeName="fill" to="#808080" begin="zoomminus.mouseover" end="zoomminus.mouseout"/>
                        </use>
                        <path d="M-4,0h8" fill="none" stroke="white" stroke-width="1.5" pointer-events="none"/>
                </g>
                <g id="dirArrow">
                        <path fill="none" stroke="white" stroke-width="1.5" d="M0,-3.0v7 M-2.5,-0.5L0,-3.0L2.5,-0.5"/>
                </g>
               <g id="resetDef">
                       <use xlink:href="#rim2" fill="#404040">
                               <set attributeName="fill" to="#808080" begin="reset.mouseover" end="reset.mouseout"/>
                       </use>
               </g>
        </defs>

<script type="text/javascript">
var viewWidth = 532;
var viewHeight = 116;
var sectionId = 'dynsection-1164';
</script>
<script xlink:href="svgpan.js"/>
<svg id="graph" class="graph">
<g id="viewport">
<title>add_closure_var</title>
<!-- Node353459 -->
<g id="node1" class="node">
<title>Node353459</title>
<polygon fill="#bfbfbf" stroke="#000000" points="0,-66.5 0,-85.5 96,-85.5 96,-66.5 0,-66.5"/>
<text text-anchor="middle" x="48" y="-73.5" font-family="Helvetica,sans-Serif" font-size="10.00" fill="#000000">add_closure_var</text>
</g>
<!-- Node353460 -->
<g id="node2" class="node">
<title>Node353460</title>
<g id="a_node2"><a xlink:href="quickjs_8c.html#a4671a759c33274b073d0578ac62261e0" target="_top" xlink:title="get_closure_var2">
<polygon fill="none" stroke="#000000" points="132,-66.5 132,-85.5 232,-85.5 232,-66.5 132,-66.5"/>
<text text-anchor="middle" x="182" y="-73.5" font-family="Helvetica,sans-Serif" font-size="10.00" fill="#000000">get_closure_var2</text>
</a>
</g>
</g>
<!-- Node353459&#45;&gt;Node353460 -->
<g id="edge1" class="edge">
<title>Node353459&#45;&gt;Node353460</title>
<path fill="none" stroke="#191970" d="M106.5526,-76C114.9989,-76 123.6272,-76 131.889,-76"/>
<polygon fill="#191970" stroke="#191970" points="106.3771,-72.5001 96.3771,-76 106.377,-79.5001 106.3771,-72.5001"/>
</g>
<!-- Node353460&#45;&gt;Node353460 -->
<g id="edge2" class="edge">
<title>Node353460&#45;&gt;Node353460</title>
<path fill="none" stroke="#191970" d="M157.4465,-95.0292C158.7858,-100.128 166.9703,-104 182,-104 205.4609,-104 212.2426,-94.5653 202.345,-85.7571"/>
<polygon fill="#191970" stroke="#191970" points="160.709,-96.3096 161.655,-85.7571 154.3348,-93.4164 160.709,-96.3096"/>
</g>
<!-- Node353461 -->
<g id="node3" class="node">
<title>Node353461</title>
<g id="a_node3"><a xlink:href="quickjs_8c.html#a5067e8cf3633f10ec12c2f3ee9134c85" target="_top" xlink:title="get_closure_var">
<polygon fill="none" stroke="#000000" points="268,-47.5 268,-66.5 362,-66.5 362,-47.5 268,-47.5"/>
<text text-anchor="middle" x="315" y="-54.5" font-family="Helvetica,sans-Serif" font-size="10.00" fill="#000000">get_closure_var</text>
</a>
</g>
</g>
<!-- Node353460&#45;&gt;Node353461 -->
<g id="edge3" class="edge">
<title>Node353460&#45;&gt;Node353461</title>
<path fill="none" stroke="#191970" d="M242.221,-67.397C250.7717,-66.1755 259.4622,-64.934 267.72,-63.7543"/>
<polygon fill="#191970" stroke="#191970" points="241.6861,-63.9378 232.2816,-68.8169 242.6761,-70.8674 241.6861,-63.9378"/>
</g>
<!-- Node353462 -->
<g id="node4" class="node">
<title>Node353462</title>
<g id="a_node4"><a xlink:href="quickjs_8c.html#a30aac2d7e62ad60386ab6b522d7db744" target="_top" xlink:title="resolve_scope_var">
<polygon fill="none" stroke="#ff0000" points="407.5,-88.5 407.5,-107.5 514.5,-107.5 514.5,-88.5 407.5,-88.5"/>
<text text-anchor="middle" x="461" y="-95.5" font-family="Helvetica,sans-Serif" font-size="10.00" fill="#000000">resolve_scope_var</text>
</a>
</g>
</g>
<!-- Node353460&#45;&gt;Node353462 -->
<g id="edge7" class="edge">
<title>Node353460&#45;&gt;Node353462</title>
<path fill="none" stroke="#191970" d="M242.3735,-80.7606C291.5017,-84.6345 360.1923,-90.051 407.3976,-93.7733"/>
<polygon fill="#191970" stroke="#191970" points="242.4461,-77.2556 232.2018,-79.9586 241.8957,-84.2339 242.4461,-77.2556"/>
</g>
<!-- Node353461&#45;&gt;Node353462 -->
<g id="edge4" class="edge">
<title>Node353461&#45;&gt;Node353462</title>
<path fill="none" stroke="#191970" d="M358.5972,-69.2431C380.5134,-75.3976 406.6747,-82.7443 427.0688,-88.4714"/>
<polygon fill="#191970" stroke="#191970" points="359.4362,-65.8433 348.8623,-66.5093 357.5436,-72.5826 359.4362,-65.8433"/>
</g>
<!-- Node353471 -->
<g id="node5" class="node">
<title>Node353471</title>
<g id="a_node5"><a xlink:href="quickjs_8c.html#ac063ff57eb8322aa00135892aeeef233" target="_top" xlink:title="resolve_scope_private\l_field1">
<polygon fill="none" stroke="#ff0000" points="398,-39 398,-69 524,-69 524,-39 398,-39"/>
<text text-anchor="start" x="406" y="-57" font-family="Helvetica,sans-Serif" font-size="10.00" fill="#000000">resolve_scope_private</text>
<text text-anchor="middle" x="461" y="-46" font-family="Helvetica,sans-Serif" font-size="10.00" fill="#000000">_field1</text>
</a>
</g>
</g>
<!-- Node353461&#45;&gt;Node353471 -->
<g id="edge5" class="edge">
<title>Node353461&#45;&gt;Node353471</title>
<path fill="none" stroke="#191970" d="M372.4264,-55.82C380.7866,-55.6482 389.4325,-55.4706 397.8976,-55.2966"/>
<polygon fill="#191970" stroke="#191970" points="372.328,-52.3212 362.402,-56.026 372.4718,-59.3197 372.328,-52.3212"/>
</g>
<!-- Node353473 -->
<g id="node6" class="node">
<title>Node353473</title>
<g id="a_node6"><a xlink:href="quickjs_8c.html#a3d84c0bab25b37dbac0b6f3aa7b93e59" target="_top" xlink:title="add_eval_variables">
<polygon fill="none" stroke="#ff0000" points="405.5,-.5 405.5,-19.5 516.5,-19.5 516.5,-.5 405.5,-.5"/>
<text text-anchor="middle" x="461" y="-7.5" font-family="Helvetica,sans-Serif" font-size="10.00" fill="#000000">add_eval_variables</text>
</a>
</g>
</g>
<!-- Node353461&#45;&gt;Node353473 -->
<g id="edge6" class="edge">
<title>Node353461&#45;&gt;Node353473</title>
<path fill="none" stroke="#191970" d="M352.1009,-44.1976C366.4107,-39.3351 382.9338,-33.8118 398,-29 407.9031,-25.8372 418.7263,-22.5221 428.5641,-19.5627"/>
<polygon fill="#191970" stroke="#191970" points="350.9269,-40.9 342.5928,-47.4416 353.1873,-47.525 350.9269,-40.9"/>
</g>
</g>
</svg>
        <g id="navigator" transform="translate(0 0)" fill="#404254">
                <rect fill="#f2f5e9" fill-opacity="0.5" stroke="#606060" stroke-width=".5" x="0" y="0" width="60" height="60"/>
                <use id="zoomplus" xlink:href="#zoomPlus" x="17" y="9" onmousedown="handleZoom(evt,'in')"/>
                <use id="zoomminus" xlink:href="#zoomMin" x="42" y="9" onmousedown="handleZoom(evt,'out')"/>
                <use id="reset" xlink:href="#resetDef" x="30" y="36" onmousedown="handleReset()"/>
                <g id="arrowUp" xlink:href="#dirArrow" transform="translate(30 24)" onmousedown="handlePan(0,-1)">
                  <use xlink:href="#rim" fill="#404040">
                        <set attributeName="fill" to="#808080" begin="arrowUp.mouseover" end="arrowUp.mouseout"/>
                  </use>
                  <path fill="none" stroke="white" stroke-width="1.5" d="M0,-3.0v7 M-2.5,-0.5L0,-3.0L2.5,-0.5"/>
                </g>
                <g id="arrowRight" xlink:href="#dirArrow" transform="rotate(90) translate(36 -43)" onmousedown="handlePan(1,0)">
                  <use xlink:href="#rim" fill="#404040">
                        <set attributeName="fill" to="#808080" begin="arrowRight.mouseover" end="arrowRight.mouseout"/>
                  </use>
                  <path fill="none" stroke="white" stroke-width="1.5" d="M0,-3.0v7 M-2.5,-0.5L0,-3.0L2.5,-0.5"/>
                </g>
                <g id="arrowDown" xlink:href="#dirArrow" transform="rotate(180) translate(-30 -48)" onmousedown="handlePan(0,1)">
                  <use xlink:href="#rim" fill="#404040">
                        <set attributeName="fill" to="#808080" begin="arrowDown.mouseover" end="arrowDown.mouseout"/>
                  </use>
                  <path fill="none" stroke="white" stroke-width="1.5" d="M0,-3.0v7 M-2.5,-0.5L0,-3.0L2.5,-0.5"/>
                </g>
                <g id="arrowLeft" xlink:href="#dirArrow" transform="rotate(270) translate(-36 17)" onmousedown="handlePan(-1,0)">
                  <use xlink:href="#rim" fill="#404040">
                        <set attributeName="fill" to="#808080" begin="arrowLeft.mouseover" end="arrowLeft.mouseout"/>
                  </use>
                  <path fill="none" stroke="white" stroke-width="1.5" d="M0,-3.0v7 M-2.5,-0.5L0,-3.0L2.5,-0.5"/>
                </g>
        </g>
        <svg viewBox="0 0 15 15" width="100%" height="30px" preserveAspectRatio="xMaxYMin meet">
         <g id="arrow_out" transform="scale(0.3 0.3)">
          <a xlink:href="quickjs_8c_a9f64fb61a20cee1cad0eb2680624e341_icgraph_org.svg" target="_base">
           <rect id="button" ry="5" rx="5" y="6" x="6" height="38" width="38"
                fill="#f2f5e9" fill-opacity="0.5" stroke="#606060" stroke-width="1.0"/>
           <path id="arrow"
             d="M 11.500037,31.436501 C 11.940474,20.09759 22.043105,11.32322 32.158766,21.979434 L 37.068811,17.246167 C 37.068811,17.246167 37.088388,32 37.088388,32 L 22.160133,31.978069 C 22.160133,31.978069 26.997745,27.140456 26.997745,27.140456 C 18.528582,18.264221 13.291696,25.230495 11.500037,31.436501 z"
             style="fill:#404040;"/>
          </a>
         </g>
        </svg>
</svg>
