<?xml version="1.0" encoding="UTF-8" standalone="no"?>
<!DOCTYPE svg PUBLIC "-//W3C//DTD SVG 1.1//EN"
 "http://www.w3.org/Graphics/SVG/1.1/DTD/svg11.dtd">
<!-- Generated by graphviz version 2.40.1 (20161225.0304)
 -->
<!-- Title: js_os_dup2 Pages: 1 -->
<svg width="451pt" height="123pt"
 viewBox="0.00 0.00 451.00 123.00" xmlns="http://www.w3.org/2000/svg" xmlns:xlink="http://www.w3.org/1999/xlink">
<g id="graph0" class="graph" transform="scale(1 1) rotate(0) translate(4 119)">
<title>js_os_dup2</title>
<!-- Node27853 -->
<g id="node1" class="node">
<title>Node27853</title>
<polygon fill="#bfbfbf" stroke="#000000" points="0,-57.5 0,-76.5 71,-76.5 71,-57.5 0,-57.5"/>
<text text-anchor="middle" x="35.5" y="-64.5" font-family="Helvetica,sans-Serif" font-size="10.00" fill="#000000">js_os_dup2</text>
</g>
<!-- Node27854 -->
<g id="node2" class="node">
<title>Node27854</title>
<g id="a_node2"><a xlink:href="quickjs-libc_8c.html#ad2d02a2bee77d81e6e3aa114751f3ace" target="_top" xlink:title="js_get_errno">
<polygon fill="none" stroke="#000000" points="107,-95.5 107,-114.5 184,-114.5 184,-95.5 107,-95.5"/>
<text text-anchor="middle" x="145.5" y="-102.5" font-family="Helvetica,sans-Serif" font-size="10.00" fill="#000000">js_get_errno</text>
</a>
</g>
</g>
<!-- Node27853&#45;&gt;Node27854 -->
<g id="edge1" class="edge">
<title>Node27853&#45;&gt;Node27854</title>
<path fill="none" stroke="#191970" d="M63.2576,-76.589C76.8062,-81.2694 93.3055,-86.9692 107.9597,-92.0315"/>
<polygon fill="#191970" stroke="#191970" points="107.1565,-95.457 117.7512,-95.4141 109.4422,-88.8406 107.1565,-95.457"/>
</g>
<!-- Node27855 -->
<g id="node3" class="node">
<title>Node27855</title>
<g id="a_node3"><a xlink:href="quickjs_8h.html#a2050bc428da1c65ac7eb87c3fa3b0392" target="_top" xlink:title="JS_NewInt32">
<polygon fill="none" stroke="#000000" points="107,-57.5 107,-76.5 184,-76.5 184,-57.5 107,-57.5"/>
<text text-anchor="middle" x="145.5" y="-64.5" font-family="Helvetica,sans-Serif" font-size="10.00" fill="#000000">JS_NewInt32</text>
</a>
</g>
</g>
<!-- Node27853&#45;&gt;Node27855 -->
<g id="edge2" class="edge">
<title>Node27853&#45;&gt;Node27855</title>
<path fill="none" stroke="#191970" d="M71.2138,-67C79.4201,-67 88.2822,-67 96.9294,-67"/>
<polygon fill="#191970" stroke="#191970" points="96.9296,-70.5001 106.9296,-67 96.9295,-63.5001 96.9296,-70.5001"/>
</g>
<!-- Node27856 -->
<g id="node4" class="node">
<title>Node27856</title>
<g id="a_node4"><a xlink:href="quickjs_8c.html#a4073bd2b4f247bf6077cd956759193b9" target="_top" xlink:title="JS_ToInt32">
<polygon fill="none" stroke="#000000" points="112.5,-19.5 112.5,-38.5 178.5,-38.5 178.5,-19.5 112.5,-19.5"/>
<text text-anchor="middle" x="145.5" y="-26.5" font-family="Helvetica,sans-Serif" font-size="10.00" fill="#000000">JS_ToInt32</text>
</a>
</g>
</g>
<!-- Node27853&#45;&gt;Node27856 -->
<g id="edge3" class="edge">
<title>Node27853&#45;&gt;Node27856</title>
<path fill="none" stroke="#191970" d="M63.2576,-57.411C76.8062,-52.7306 93.3055,-47.0308 107.9597,-41.9685"/>
<polygon fill="#191970" stroke="#191970" points="109.4422,-45.1594 117.7512,-38.5859 107.1565,-38.543 109.4422,-45.1594"/>
</g>
<!-- Node27857 -->
<g id="node5" class="node">
<title>Node27857</title>
<g id="a_node5"><a xlink:href="quickjs_8c.html#a643088ab23784b7f3c6ff94c37228256" target="_top" xlink:title="JS_ToInt32Free">
<polygon fill="none" stroke="#000000" points="220,-38.5 220,-57.5 306,-57.5 306,-38.5 220,-38.5"/>
<text text-anchor="middle" x="263" y="-45.5" font-family="Helvetica,sans-Serif" font-size="10.00" fill="#000000">JS_ToInt32Free</text>
</a>
</g>
</g>
<!-- Node27856&#45;&gt;Node27857 -->
<g id="edge4" class="edge">
<title>Node27856&#45;&gt;Node27857</title>
<path fill="none" stroke="#191970" d="M178.543,-34.3431C188.2135,-35.9069 199.0415,-37.6578 209.6342,-39.3706"/>
<polygon fill="#191970" stroke="#191970" points="209.2419,-42.8526 219.6724,-40.9938 210.3593,-35.9423 209.2419,-42.8526"/>
</g>
<!-- Node27891 -->
<g id="node8" class="node">
<title>Node27891</title>
<g id="a_node8"><a xlink:href="quickjs_8h.html#a775522f2d084fc8fa0fcb33f390006b4" target="_top" xlink:title="JS_DupValue">
<polygon fill="none" stroke="#000000" points="224.5,-.5 224.5,-19.5 301.5,-19.5 301.5,-.5 224.5,-.5"/>
<text text-anchor="middle" x="263" y="-7.5" font-family="Helvetica,sans-Serif" font-size="10.00" fill="#000000">JS_DupValue</text>
</a>
</g>
</g>
<!-- Node27856&#45;&gt;Node27891 -->
<g id="edge7" class="edge">
<title>Node27856&#45;&gt;Node27891</title>
<path fill="none" stroke="#191970" d="M178.543,-23.6569C189.6792,-21.8561 202.3505,-19.8072 214.4296,-17.8539"/>
<polygon fill="#191970" stroke="#191970" points="215.077,-21.2948 224.3901,-16.2433 213.9596,-14.3846 215.077,-21.2948"/>
</g>
<!-- Node27858 -->
<g id="node6" class="node">
<title>Node27858</title>
<g id="a_node6"><a xlink:href="quickjs_8c.html#ae738291483438efefca5c9fa4d269504" target="_top" xlink:title="JS_ToNumberFree">
<polygon fill="none" stroke="#ff0000" points="342,-57.5 342,-76.5 443,-76.5 443,-57.5 342,-57.5"/>
<text text-anchor="middle" x="392.5" y="-64.5" font-family="Helvetica,sans-Serif" font-size="10.00" fill="#000000">JS_ToNumberFree</text>
</a>
</g>
</g>
<!-- Node27857&#45;&gt;Node27858 -->
<g id="edge5" class="edge">
<title>Node27857&#45;&gt;Node27858</title>
<path fill="none" stroke="#191970" d="M306.1216,-54.3267C314.3715,-55.5371 323.1506,-56.8252 331.8315,-58.0988"/>
<polygon fill="#191970" stroke="#191970" points="331.5372,-61.593 341.9393,-59.5818 332.5534,-54.6672 331.5372,-61.593"/>
</g>
<!-- Node27981 -->
<g id="node7" class="node">
<title>Node27981</title>
<g id="a_node7"><a xlink:href="quickjs_8h.html#ad80a83d73e9b7d872b88fbf2943aebe9" target="_top" xlink:title="JS_IsException">
<polygon fill="none" stroke="#000000" points="349,-19.5 349,-38.5 436,-38.5 436,-19.5 349,-19.5"/>
<text text-anchor="middle" x="392.5" y="-26.5" font-family="Helvetica,sans-Serif" font-size="10.00" fill="#000000">JS_IsException</text>
</a>
</g>
</g>
<!-- Node27857&#45;&gt;Node27981 -->
<g id="edge6" class="edge">
<title>Node27857&#45;&gt;Node27981</title>
<path fill="none" stroke="#191970" d="M306.1216,-41.6733C316.4926,-40.1517 327.6999,-38.5074 338.4971,-36.9232"/>
<polygon fill="#191970" stroke="#191970" points="339.2966,-40.3435 348.6826,-35.4288 338.2804,-33.4176 339.2966,-40.3435"/>
</g>
</g>
</svg>
