<?xml version="1.0" encoding="UTF-8" standalone="no"?>
<!DOCTYPE svg PUBLIC "-//W3C//DTD SVG 1.1//EN"
 "http://www.w3.org/Graphics/SVG/1.1/DTD/svg11.dtd">
<!-- Generated by graphviz version 2.40.1 (20161225.0304)
 -->
<!-- Title: JS_NewRuntime Pages: 1 -->
<!--zoomable 888 -->
<svg id="main" version="1.1" xmlns="http://www.w3.org/2000/svg" xmlns:xlink="http://www.w3.org/1999/xlink" xml:space="preserve" onload="init(evt)">
<style type="text/css"><![CDATA[
.edge:hover path { stroke: red; }
.edge:hover polygon { stroke: red; fill: red; }
]]></style>
<script type="text/javascript"><![CDATA[
var edges = document.getElementsByTagName('g');
if (edges && edges.length) {
  for (var i=0;i<edges.length;i++) {
    if (edges[i].id.substr(0,4)=='edge') {
      edges[i].setAttribute('class','edge');
    }
  }
}
]]></script>
        <defs>
                <circle id="rim" cx="0" cy="0" r="7"/>
                <circle id="rim2" cx="0" cy="0" r="3.5"/>
                <g id="zoomPlus">
                        <use xlink:href="#rim" fill="#404040">
                                <set attributeName="fill" to="#808080" begin="zoomplus.mouseover" end="zoomplus.mouseout"/>
                        </use>
                        <path d="M-4,0h8M0,-4v8" fill="none" stroke="white" stroke-width="1.5" pointer-events="none"/>
                </g>
                <g id="zoomMin">
                        <use xlink:href="#rim" fill="#404040">
                                <set attributeName="fill" to="#808080" begin="zoomminus.mouseover" end="zoomminus.mouseout"/>
                        </use>
                        <path d="M-4,0h8" fill="none" stroke="white" stroke-width="1.5" pointer-events="none"/>
                </g>
                <g id="dirArrow">
                        <path fill="none" stroke="white" stroke-width="1.5" d="M0,-3.0v7 M-2.5,-0.5L0,-3.0L2.5,-0.5"/>
                </g>
               <g id="resetDef">
                       <use xlink:href="#rim2" fill="#404040">
                               <set attributeName="fill" to="#808080" begin="reset.mouseover" end="reset.mouseout"/>
                       </use>
               </g>
        </defs>

<script type="text/javascript">
var viewWidth = 743;
var viewHeight = 888;
var sectionId = 'dynsection-4';
</script>
<script xlink:href="svgpan.js"/>
<svg id="graph" class="graph">
<g id="viewport">
<title>JS_NewRuntime</title>
<!-- Node685 -->
<g id="node1" class="node">
<title>Node685</title>
<polygon fill="#bfbfbf" stroke="#000000" points="0,-572 0,-591 93,-591 93,-572 0,-572"/>
<text text-anchor="middle" x="46.5" y="-579" font-family="Helvetica,sans-Serif" font-size="10.00" fill="#000000">JS_NewRuntime</text>
</g>
<!-- Node686 -->
<g id="node2" class="node">
<title>Node686</title>
<g id="a_node2"><a xlink:href="quickjs_8c.html#a27966451027feb455b5da12c1578771c" target="_top" xlink:title="JS_NewRuntime2">
<polygon fill="none" stroke="#000000" points="129,-572 129,-591 228,-591 228,-572 129,-572"/>
<text text-anchor="middle" x="178.5" y="-579" font-family="Helvetica,sans-Serif" font-size="10.00" fill="#000000">JS_NewRuntime2</text>
</a>
</g>
</g>
<!-- Node685&#45;&gt;Node686 -->
<g id="edge1" class="edge">
<title>Node685&#45;&gt;Node686</title>
<path fill="none" stroke="#191970" d="M93.0383,-581.5C101.3608,-581.5 110.1368,-581.5 118.7685,-581.5"/>
<polygon fill="#191970" stroke="#191970" points="118.7993,-585.0001 128.7992,-581.5 118.7992,-578.0001 118.7993,-585.0001"/>
</g>
<!-- Node687 -->
<g id="node3" class="node">
<title>Node687</title>
<g id="a_node3"><a xlink:href="quickjs_8c.html#a4883d074a00e989747e68453c718c862" target="_top" xlink:title="init_class_range">
<polygon fill="none" stroke="#000000" points="289,-860 289,-879 384,-879 384,-860 289,-860"/>
<text text-anchor="middle" x="336.5" y="-867" font-family="Helvetica,sans-Serif" font-size="10.00" fill="#000000">init_class_range</text>
</a>
</g>
</g>
<!-- Node686&#45;&gt;Node687 -->
<g id="edge2" class="edge">
<title>Node686&#45;&gt;Node687</title>
<path fill="none" stroke="#191970" d="M180.3911,-591.0495C189.0314,-633.8056 225.9694,-807.2223 264,-845.5 268.4767,-850.0058 273.8169,-853.6657 279.5405,-856.6385"/>
<polygon fill="#191970" stroke="#191970" points="278.2234,-859.8835 288.7814,-860.7673 281.079,-853.4924 278.2234,-859.8835"/>
</g>
<!-- Node692 -->
<g id="node5" class="node">
<title>Node692</title>
<g id="a_node5"><a xlink:href="list_8h.html#a663527a4d757540b2177bef0db1ce5c0" target="_top" xlink:title="init_list_head">
<polygon fill="none" stroke="#000000" points="635.5,-126 635.5,-145 717.5,-145 717.5,-126 635.5,-126"/>
<text text-anchor="middle" x="676.5" y="-133" font-family="Helvetica,sans-Serif" font-size="10.00" fill="#000000">init_list_head</text>
</a>
</g>
</g>
<!-- Node686&#45;&gt;Node692 -->
<g id="edge4" class="edge">
<title>Node686&#45;&gt;Node692</title>
<path fill="none" stroke="#191970" d="M180.0548,-571.8168C188.0157,-523.0935 225.3429,-304.901 264,-249.5 319.9437,-169.325 351.6665,-153.5963 445,-124.5 506.3749,-105.3667 581.3155,-114.4014 628.9807,-123.8965"/>
<polygon fill="#191970" stroke="#191970" points="628.5133,-127.3741 639.0164,-125.9831 629.9383,-120.5206 628.5133,-127.3741"/>
</g>
<!-- Node693 -->
<g id="node6" class="node">
<title>Node693</title>
<g id="a_node6"><a xlink:href="quickjs_8c.html#a1aca23241f0d5313e2eaefa3aabeeb4b" target="_top" xlink:title="init_shape_hash">
<polygon fill="none" stroke="#000000" points="289,-727 289,-746 384,-746 384,-727 289,-727"/>
<text text-anchor="middle" x="336.5" y="-734" font-family="Helvetica,sans-Serif" font-size="10.00" fill="#000000">init_shape_hash</text>
</a>
</g>
</g>
<!-- Node686&#45;&gt;Node693 -->
<g id="edge5" class="edge">
<title>Node686&#45;&gt;Node693</title>
<path fill="none" stroke="#191970" d="M181.7093,-591.1483C190.5417,-616.1622 217.6764,-683.5164 264,-717.5 268.7047,-720.9515 273.9859,-723.7768 279.4971,-726.0893"/>
<polygon fill="#191970" stroke="#191970" points="278.3341,-729.3906 288.9282,-729.5172 280.7253,-722.8117 278.3341,-729.3906"/>
</g>
<!-- Node694 -->
<g id="node7" class="node">
<title>Node694</title>
<g id="a_node7"><a xlink:href="quickjs_8c.html#a621d5d7548657b7462a29bea78b5a1e4" target="_top" xlink:title="js_c_function_data_call">
<polygon fill="none" stroke="#000000" points="271.5,-689 271.5,-708 401.5,-708 401.5,-689 271.5,-689"/>
<text text-anchor="middle" x="336.5" y="-696" font-family="Helvetica,sans-Serif" font-size="10.00" fill="#000000">js_c_function_data_call</text>
</a>
</g>
</g>
<!-- Node686&#45;&gt;Node694 -->
<g id="edge6" class="edge">
<title>Node686&#45;&gt;Node694</title>
<path fill="none" stroke="#191970" d="M184.1896,-591.2844C196.2492,-611.1256 226.3846,-656.1856 264,-679.5 267.546,-681.6979 271.3411,-683.6432 275.2671,-685.3649"/>
<polygon fill="#191970" stroke="#191970" points="274.0212,-688.6356 284.6101,-688.9895 276.553,-682.1095 274.0212,-688.6356"/>
</g>
<!-- Node695 -->
<g id="node8" class="node">
<title>Node695</title>
<g id="a_node8"><a xlink:href="quickjs_8c.html#afd4ef2d701fa0702f321925b61c57bbf" target="_top" xlink:title="js_call_bound_function">
<polygon fill="none" stroke="#000000" points="272.5,-651 272.5,-670 400.5,-670 400.5,-651 272.5,-651"/>
<text text-anchor="middle" x="336.5" y="-658" font-family="Helvetica,sans-Serif" font-size="10.00" fill="#000000">js_call_bound_function</text>
</a>
</g>
</g>
<!-- Node686&#45;&gt;Node695 -->
<g id="edge7" class="edge">
<title>Node686&#45;&gt;Node695</title>
<path fill="none" stroke="#191970" d="M197.5585,-591.0292C225.0798,-604.7899 276.1458,-630.3229 308.1133,-646.3067"/>
<polygon fill="#191970" stroke="#191970" points="306.8644,-649.5953 317.3739,-650.937 309.9949,-643.3343 306.8644,-649.5953"/>
</g>
<!-- Node911 -->
<g id="node12" class="node">
<title>Node911</title>
<g id="a_node12"><a xlink:href="quickjs_8c.html#acad70023f36797496683e579a4d60461" target="_top" xlink:title="js_get_stack_pointer">
<polygon fill="none" stroke="#000000" points="618,-727 618,-746 735,-746 735,-727 618,-727"/>
<text text-anchor="middle" x="676.5" y="-734" font-family="Helvetica,sans-Serif" font-size="10.00" fill="#000000">js_get_stack_pointer</text>
</a>
</g>
</g>
<!-- Node686&#45;&gt;Node911 -->
<g id="edge34" class="edge">
<title>Node686&#45;&gt;Node911</title>
<path fill="none" stroke="#191970" d="M180.4116,-591.0335C186.7566,-620.1917 209.867,-709.0109 264,-755.5 372.9296,-849.048 446.5697,-860.2024 582,-812.5 615.0393,-800.8626 645.0491,-772.2501 662.0117,-753.6428"/>
<polygon fill="#191970" stroke="#191970" points="664.654,-755.9383 668.6525,-746.1269 659.4083,-751.3033 664.654,-755.9383"/>
</g>
<!-- Node1127 -->
<g id="node15" class="node">
<title>Node1127</title>
<g id="a_node15"><a xlink:href="quickjs_8c.html#a3486836f2ac17a9fa315904e14858e5a" target="_top" xlink:title="js_call_c_function">
<polygon fill="none" stroke="#000000" points="285,-572 285,-591 388,-591 388,-572 285,-572"/>
<text text-anchor="middle" x="336.5" y="-579" font-family="Helvetica,sans-Serif" font-size="10.00" fill="#000000">js_call_c_function</text>
</a>
</g>
</g>
<!-- Node686&#45;&gt;Node1127 -->
<g id="edge14" class="edge">
<title>Node686&#45;&gt;Node1127</title>
<path fill="none" stroke="#191970" d="M228.0587,-581.5C242.9064,-581.5 259.3733,-581.5 274.897,-581.5"/>
<polygon fill="#191970" stroke="#191970" points="274.9357,-585.0001 284.9357,-581.5 274.9357,-578.0001 274.9357,-585.0001"/>
</g>
<!-- Node1129 -->
<g id="node20" class="node">
<title>Node1129</title>
<g id="a_node20"><a xlink:href="quickjs_8c.html#ad80a65b72c3a346d8a0047858a5f0b13" target="_top" xlink:title="JS_FreeRuntime">
<polygon fill="none" stroke="#000000" points="290.5,-259 290.5,-278 382.5,-278 382.5,-259 290.5,-259"/>
<text text-anchor="middle" x="336.5" y="-266" font-family="Helvetica,sans-Serif" font-size="10.00" fill="#000000">JS_FreeRuntime</text>
</a>
</g>
</g>
<!-- Node686&#45;&gt;Node1129 -->
<g id="edge22" class="edge">
<title>Node686&#45;&gt;Node1129</title>
<path fill="none" stroke="#191970" d="M183.4019,-571.7893C205.6578,-527.7 297.3917,-345.974 327.1401,-287.042"/>
<polygon fill="#191970" stroke="#191970" points="330.2734,-288.6018 331.6553,-278.0974 324.0244,-285.4473 330.2734,-288.6018"/>
</g>
<!-- Node1130 -->
<g id="node27" class="node">
<title>Node1130</title>
<g id="a_node27"><a xlink:href="quickjs_8c.html#ac90552b1f1659acb3dae9a4c62479a30" target="_top" xlink:title="js_generator_function_call">
<polygon fill="none" stroke="#ff0000" points="264,-430 264,-449 409,-449 409,-430 264,-430"/>
<text text-anchor="middle" x="336.5" y="-437" font-family="Helvetica,sans-Serif" font-size="10.00" fill="#000000">js_generator_function_call</text>
</a>
</g>
</g>
<!-- Node686&#45;&gt;Node1130 -->
<g id="edge30" class="edge">
<title>Node686&#45;&gt;Node1130</title>
<path fill="none" stroke="#191970" d="M189.1122,-571.9625C215.5192,-548.2296 284.4541,-486.2754 317.8413,-456.2692"/>
<polygon fill="#191970" stroke="#191970" points="320.4181,-458.6592 325.5162,-449.3715 315.739,-453.4528 320.4181,-458.6592"/>
</g>
<!-- Node1135 -->
<g id="node29" class="node">
<title>Node1135</title>
<g id="a_node29"><a xlink:href="quickjs_8c.html#a2469c0e8a95a75d5835ec98ea967085f" target="_top" xlink:title="JS_InitAtoms">
<polygon fill="none" stroke="#ff0000" points="297.5,-50 297.5,-69 375.5,-69 375.5,-50 297.5,-50"/>
<text text-anchor="middle" x="336.5" y="-57" font-family="Helvetica,sans-Serif" font-size="10.00" fill="#000000">JS_InitAtoms</text>
</a>
</g>
</g>
<!-- Node686&#45;&gt;Node1135 -->
<g id="edge35" class="edge">
<title>Node686&#45;&gt;Node1135</title>
<path fill="none" stroke="#191970" d="M178.8476,-571.6351C181.2646,-508.4583 197.4828,-160.7984 264,-83.5 270.2902,-76.1903 278.8585,-71.0969 287.9026,-67.5505"/>
<polygon fill="#191970" stroke="#191970" points="289.0381,-70.8614 297.4243,-64.3867 286.8308,-64.2185 289.0381,-70.8614"/>
</g>
<!-- Node1137 -->
<g id="node30" class="node">
<title>Node1137</title>
<g id="a_node30"><a xlink:href="quickjs_8c.html#a13dc07fcd82cf239eb10a991e6be507d" target="_top" xlink:title="js_malloc_usable_size\l_unknown">
<polygon fill="none" stroke="#000000" points="274,-.5 274,-30.5 399,-30.5 399,-.5 274,-.5"/>
<text text-anchor="start" x="282" y="-18.5" font-family="Helvetica,sans-Serif" font-size="10.00" fill="#000000">js_malloc_usable_size</text>
<text text-anchor="middle" x="336.5" y="-7.5" font-family="Helvetica,sans-Serif" font-size="10.00" fill="#000000">_unknown</text>
</a>
</g>
</g>
<!-- Node686&#45;&gt;Node1137 -->
<g id="edge36" class="edge">
<title>Node686&#45;&gt;Node1137</title>
<path fill="none" stroke="#191970" d="M178.7124,-571.6688C180.3309,-505.5355 192.673,-125.5717 264,-40.5 265.0158,-39.2884 266.0934,-38.1355 267.2248,-37.0383"/>
<polygon fill="#191970" stroke="#191970" points="269.7201,-39.527 275.3896,-30.5768 265.3761,-34.0379 269.7201,-39.527"/>
</g>
<!-- Node688 -->
<g id="node4" class="node">
<title>Node688</title>
<g id="a_node4"><a xlink:href="quickjs_8c.html#ab515cd66efd3e476d2c22d6a55f13194" target="_top" xlink:title="JS_NewClass1">
<polygon fill="none" stroke="#ff0000" points="471,-860 471,-879 556,-879 556,-860 471,-860"/>
<text text-anchor="middle" x="513.5" y="-867" font-family="Helvetica,sans-Serif" font-size="10.00" fill="#000000">JS_NewClass1</text>
</a>
</g>
</g>
<!-- Node687&#45;&gt;Node688 -->
<g id="edge3" class="edge">
<title>Node687&#45;&gt;Node688</title>
<path fill="none" stroke="#191970" d="M384.3987,-869.5C408.0489,-869.5 436.6378,-869.5 460.8949,-869.5"/>
<polygon fill="#191970" stroke="#191970" points="460.9986,-873.0001 470.9986,-869.5 460.9985,-866.0001 460.9986,-873.0001"/>
</g>
<!-- Node696 -->
<g id="node9" class="node">
<title>Node696</title>
<g id="a_node9"><a xlink:href="quickjs_8c.html#a1a4c02a29525d5cb2085dd8bca3af350" target="_top" xlink:title="JS_Call">
<polygon fill="none" stroke="#ff0000" points="488.5,-784 488.5,-803 538.5,-803 538.5,-784 488.5,-784"/>
<text text-anchor="middle" x="513.5" y="-791" font-family="Helvetica,sans-Serif" font-size="10.00" fill="#000000">JS_Call</text>
</a>
</g>
</g>
<!-- Node695&#45;&gt;Node696 -->
<g id="edge8" class="edge">
<title>Node695&#45;&gt;Node696</title>
<path fill="none" stroke="#191970" d="M394.5529,-670.1327C399.8077,-672.598 404.743,-675.6716 409,-679.5 442.5727,-709.6925 411.6435,-744.0688 445,-774.5 454.0966,-782.7989 466.5076,-787.515 478.2676,-790.1804"/>
<polygon fill="#191970" stroke="#191970" points="477.8666,-793.6654 488.335,-792.0335 479.1338,-786.781 477.8666,-793.6654"/>
</g>
<!-- Node1088 -->
<g id="node10" class="node">
<title>Node1088</title>
<g id="a_node10"><a xlink:href="quickjs_8c.html#a03d5edf3e8bb18809d6675e5c08bac26" target="_top" xlink:title="JS_CallConstructor2">
<polygon fill="none" stroke="#ff0000" points="457.5,-746 457.5,-765 569.5,-765 569.5,-746 457.5,-746"/>
<text text-anchor="middle" x="513.5" y="-753" font-family="Helvetica,sans-Serif" font-size="10.00" fill="#000000">JS_CallConstructor2</text>
</a>
</g>
</g>
<!-- Node695&#45;&gt;Node1088 -->
<g id="edge9" class="edge">
<title>Node695&#45;&gt;Node1088</title>
<path fill="none" stroke="#191970" d="M391.5855,-670.1437C397.7856,-672.5906 403.7503,-675.6571 409,-679.5 433.1774,-697.1983 420.9494,-718.6297 445,-736.5 447.6251,-738.4505 450.4408,-740.2009 453.3794,-741.7715"/>
<polygon fill="#191970" stroke="#191970" points="451.9488,-744.966 462.4965,-745.9649 454.874,-738.6064 451.9488,-744.966"/>
</g>
<!-- Node910 -->
<g id="node11" class="node">
<title>Node910</title>
<g id="a_node11"><a xlink:href="quickjs_8c.html#af23ec7c9970ceb4671c59da7abd4b078" target="_top" xlink:title="js_check_stack_overflow">
<polygon fill="none" stroke="#000000" points="445,-632 445,-651 582,-651 582,-632 445,-632"/>
<text text-anchor="middle" x="513.5" y="-639" font-family="Helvetica,sans-Serif" font-size="10.00" fill="#000000">js_check_stack_overflow</text>
</a>
</g>
</g>
<!-- Node695&#45;&gt;Node910 -->
<g id="edge10" class="edge">
<title>Node695&#45;&gt;Node910</title>
<path fill="none" stroke="#191970" d="M400.6513,-653.6137C411.7466,-652.4227 423.3956,-651.1722 434.8234,-649.9455"/>
<polygon fill="#191970" stroke="#191970" points="435.2203,-653.4231 444.7896,-648.8757 434.4731,-646.4631 435.2203,-653.4231"/>
</g>
<!-- Node924 -->
<g id="node13" class="node">
<title>Node924</title>
<g id="a_node13"><a xlink:href="quickjs_8c.html#a24be89a128d1cd7c0908604815b2b854" target="_top" xlink:title="js_same_value">
<polygon fill="none" stroke="#ff0000" points="469,-708 469,-727 558,-727 558,-708 469,-708"/>
<text text-anchor="middle" x="513.5" y="-715" font-family="Helvetica,sans-Serif" font-size="10.00" fill="#000000">js_same_value</text>
</a>
</g>
</g>
<!-- Node695&#45;&gt;Node924 -->
<g id="edge12" class="edge">
<title>Node695&#45;&gt;Node924</title>
<path fill="none" stroke="#191970" d="M379.5729,-670.05C389.3829,-672.7019 399.6624,-675.8679 409,-679.5 425.8611,-686.0585 428.1862,-691.8214 445,-698.5 450.9463,-700.8619 457.2935,-703.0464 463.6354,-705.0285"/>
<polygon fill="#191970" stroke="#191970" points="462.9556,-708.4777 473.5384,-707.973 464.9507,-701.7681 462.9556,-708.4777"/>
</g>
<!-- Node912 -->
<g id="node14" class="node">
<title>Node912</title>
<g id="a_node14"><a xlink:href="quickjs_8c.html#a8353f635fb8a20553c08db8cf38c17e0" target="_top" xlink:title="JS_ThrowStackOverflow">
<polygon fill="none" stroke="#ff0000" points="448,-670 448,-689 579,-689 579,-670 448,-670"/>
<text text-anchor="middle" x="513.5" y="-677" font-family="Helvetica,sans-Serif" font-size="10.00" fill="#000000">JS_ThrowStackOverflow</text>
</a>
</g>
</g>
<!-- Node695&#45;&gt;Node912 -->
<g id="edge13" class="edge">
<title>Node695&#45;&gt;Node912</title>
<path fill="none" stroke="#191970" d="M400.6513,-667.3863C412.6316,-668.6723 425.2575,-670.0276 437.5534,-671.3475"/>
<polygon fill="#191970" stroke="#191970" points="437.4664,-674.8582 447.7829,-672.4456 438.2136,-667.8982 437.4664,-674.8582"/>
</g>
<!-- Node910&#45;&gt;Node911 -->
<g id="edge11" class="edge">
<title>Node910&#45;&gt;Node911</title>
<path fill="none" stroke="#191970" d="M558.3494,-651.106C566.4445,-653.6263 574.6427,-656.7262 582,-660.5 612.3783,-676.0822 642.1895,-702.4192 659.9624,-719.6331"/>
<polygon fill="#191970" stroke="#191970" points="657.6681,-722.2867 667.24,-726.8288 662.5898,-717.309 657.6681,-722.2867"/>
</g>
<!-- Node1127&#45;&gt;Node910 -->
<g id="edge15" class="edge">
<title>Node1127&#45;&gt;Node910</title>
<path fill="none" stroke="#191970" d="M359.986,-591.0814C381.8154,-599.8176 415.3327,-612.8023 445,-622.5 452.0163,-624.7935 459.4934,-627.0525 466.8328,-629.1679"/>
<polygon fill="#191970" stroke="#191970" points="466.1249,-632.6047 476.6997,-631.9532 468.0267,-625.868 466.1249,-632.6047"/>
</g>
<!-- Node1127&#45;&gt;Node912 -->
<g id="edge20" class="edge">
<title>Node1127&#45;&gt;Node912</title>
<path fill="none" stroke="#191970" d="M347.0498,-591.2279C365.5298,-607.7732 405.5544,-641.4477 445,-660.5 449.8619,-662.8483 455.0627,-664.9489 460.3445,-666.8179"/>
<polygon fill="#191970" stroke="#191970" points="459.291,-670.1557 469.8835,-669.9353 461.4655,-663.502 459.291,-670.1557"/>
</g>
<!-- Node1128 -->
<g id="node16" class="node">
<title>Node1128</title>
<g id="a_node16"><a xlink:href="quickjs_8c.html#a7346b86113acd072c9cfc8d238c4ff7c" target="_top" xlink:title="js_create_iterator\l_result">
<polygon fill="none" stroke="#ff0000" points="462.5,-544.5 462.5,-574.5 564.5,-574.5 564.5,-544.5 462.5,-544.5"/>
<text text-anchor="start" x="470.5" y="-562.5" font-family="Helvetica,sans-Serif" font-size="10.00" fill="#000000">js_create_iterator</text>
<text text-anchor="middle" x="513.5" y="-551.5" font-family="Helvetica,sans-Serif" font-size="10.00" fill="#000000">_result</text>
</a>
</g>
</g>
<!-- Node1127&#45;&gt;Node1128 -->
<g id="edge16" class="edge">
<title>Node1127&#45;&gt;Node1128</title>
<path fill="none" stroke="#191970" d="M388.1715,-575.0775C408.2525,-572.5816 431.4124,-569.703 452.3177,-567.1046"/>
<polygon fill="#191970" stroke="#191970" points="452.8838,-570.5612 462.3757,-565.8544 452.0203,-563.6147 452.8838,-570.5612"/>
</g>
<!-- Node766 -->
<g id="node17" class="node">
<title>Node766</title>
<g id="a_node17"><a xlink:href="quickjs_8h.html#ad80a83d73e9b7d872b88fbf2943aebe9" target="_top" xlink:title="JS_IsException">
<polygon fill="none" stroke="#000000" points="633,-468 633,-487 720,-487 720,-468 633,-468"/>
<text text-anchor="middle" x="676.5" y="-475" font-family="Helvetica,sans-Serif" font-size="10.00" fill="#000000">JS_IsException</text>
</a>
</g>
</g>
<!-- Node1127&#45;&gt;Node766 -->
<g id="edge18" class="edge">
<title>Node1127&#45;&gt;Node766</title>
<path fill="none" stroke="#191970" d="M344.9033,-571.9363C361.7529,-553.5123 401.7736,-513.4261 445,-496.5 502.5473,-473.9663 574.1589,-471.603 622.3715,-473.3357"/>
<polygon fill="#191970" stroke="#191970" points="622.45,-476.8423 632.5916,-473.7769 622.7519,-469.8488 622.45,-476.8423"/>
</g>
<!-- Node778 -->
<g id="node18" class="node">
<title>Node778</title>
<g id="a_node18"><a xlink:href="quickjs_8h.html#ae91f44bd7249613050c18c7133702c67" target="_top" xlink:title="JS_NewFloat64">
<polygon fill="none" stroke="#ff0000" points="469,-594 469,-613 558,-613 558,-594 469,-594"/>
<text text-anchor="middle" x="513.5" y="-601" font-family="Helvetica,sans-Serif" font-size="10.00" fill="#000000">JS_NewFloat64</text>
</a>
</g>
</g>
<!-- Node1127&#45;&gt;Node778 -->
<g id="edge19" class="edge">
<title>Node1127&#45;&gt;Node778</title>
<path fill="none" stroke="#191970" d="M388.1715,-587.9225C410.3818,-590.683 436.3585,-593.9118 458.8852,-596.7117"/>
<polygon fill="#191970" stroke="#191970" points="458.6113,-600.2045 468.9667,-597.9648 459.4748,-593.258 458.6113,-600.2045"/>
</g>
<!-- Node920 -->
<g id="node19" class="node">
<title>Node920</title>
<g id="a_node19"><a xlink:href="quickjs_8c.html#a8cc9386cd04cfa067d0c6bf588c6bb58" target="_top" xlink:title="JS_ToFloat64">
<polygon fill="none" stroke="#ff0000" points="475,-506 475,-525 552,-525 552,-506 475,-506"/>
<text text-anchor="middle" x="513.5" y="-513" font-family="Helvetica,sans-Serif" font-size="10.00" fill="#000000">JS_ToFloat64</text>
</a>
</g>
</g>
<!-- Node1127&#45;&gt;Node920 -->
<g id="edge21" class="edge">
<title>Node1127&#45;&gt;Node920</title>
<path fill="none" stroke="#191970" d="M356.168,-571.9987C377.6565,-561.851 413.2574,-545.7169 445,-534.5 451.5672,-532.1793 458.568,-529.9585 465.4921,-527.9062"/>
<polygon fill="#191970" stroke="#191970" points="466.8757,-531.1505 475.5224,-525.0279 464.9449,-524.422 466.8757,-531.1505"/>
</g>
<!-- Node1128&#45;&gt;Node766 -->
<g id="edge17" class="edge">
<title>Node1128&#45;&gt;Node766</title>
<path fill="none" stroke="#191970" d="M558.5988,-544.4486C566.508,-541.4122 574.5774,-538.0521 582,-534.5 607.6944,-522.2038 635.4168,-504.9652 654.1457,-492.672"/>
<polygon fill="#191970" stroke="#191970" points="656.1752,-495.5257 662.5692,-487.0777 652.3026,-489.6945 656.1752,-495.5257"/>
</g>
<!-- Node1129&#45;&gt;Node692 -->
<g id="edge24" class="edge">
<title>Node1129&#45;&gt;Node692</title>
<path fill="none" stroke="#191970" d="M342.0916,-258.9409C356.0557,-236.0898 394.9604,-178.4256 445,-154.5 502.2317,-127.1356 576.5415,-126.2273 625.3297,-129.5937"/>
<polygon fill="#191970" stroke="#191970" points="625.0974,-133.0861 635.3378,-130.369 625.638,-126.107 625.0974,-133.0861"/>
</g>
<!-- Node848 -->
<g id="node21" class="node">
<title>Node848</title>
<g id="a_node21"><a xlink:href="quickjs_8c.html#ac3bdf708c1dc092fd52508b5d29bd0ce" target="_top" xlink:title="atom_is_free">
<polygon fill="none" stroke="#000000" points="473.5,-354 473.5,-373 553.5,-373 553.5,-354 473.5,-354"/>
<text text-anchor="middle" x="513.5" y="-361" font-family="Helvetica,sans-Serif" font-size="10.00" fill="#000000">atom_is_free</text>
</a>
</g>
</g>
<!-- Node1129&#45;&gt;Node848 -->
<g id="edge23" class="edge">
<title>Node1129&#45;&gt;Node848</title>
<path fill="none" stroke="#191970" d="M347.4207,-278.0882C366.1389,-294.0561 406.1043,-326.1505 445,-344.5 450.7866,-347.2299 457.0388,-349.6333 463.3307,-351.7306"/>
<polygon fill="#191970" stroke="#191970" points="462.6018,-355.1686 473.1894,-354.7772 464.6686,-348.4806 462.6018,-355.1686"/>
</g>
<!-- Node715 -->
<g id="node22" class="node">
<title>Node715</title>
<g id="a_node22"><a xlink:href="quickjs_8c.html#a69e19dda8a93d613203e0baa06f0ed8d" target="_top" xlink:title="js_free_rt">
<polygon fill="none" stroke="#000000" points="482.5,-316 482.5,-335 544.5,-335 544.5,-316 482.5,-316"/>
<text text-anchor="middle" x="513.5" y="-323" font-family="Helvetica,sans-Serif" font-size="10.00" fill="#000000">js_free_rt</text>
</a>
</g>
</g>
<!-- Node1129&#45;&gt;Node715 -->
<g id="edge25" class="edge">
<title>Node1129&#45;&gt;Node715</title>
<path fill="none" stroke="#191970" d="M362.2078,-278.0445C384.0918,-286.0389 416.4323,-297.5462 445,-306.5 453.9078,-309.2919 463.5319,-312.0927 472.6713,-314.6534"/>
<polygon fill="#191970" stroke="#191970" points="471.7704,-318.0356 482.3414,-317.3261 473.6352,-311.2885 471.7704,-318.0356"/>
</g>
<!-- Node731 -->
<g id="node23" class="node">
<title>Node731</title>
<g id="a_node23"><a xlink:href="quickjs_8c.html#a5a0aca30abbb4d4ae86746541bf4cbc7" target="_top" xlink:title="JS_FreeAtomRT">
<polygon fill="none" stroke="#ff0000" points="469,-278 469,-297 558,-297 558,-278 469,-278"/>
<text text-anchor="middle" x="513.5" y="-285" font-family="Helvetica,sans-Serif" font-size="10.00" fill="#000000">JS_FreeAtomRT</text>
</a>
</g>
</g>
<!-- Node1129&#45;&gt;Node731 -->
<g id="edge26" class="edge">
<title>Node1129&#45;&gt;Node731</title>
<path fill="none" stroke="#191970" d="M382.5426,-273.4424C405.8455,-275.9439 434.2953,-278.9978 458.7172,-281.6194"/>
<polygon fill="#191970" stroke="#191970" points="458.594,-285.1262 468.9104,-282.7135 459.3411,-278.1661 458.594,-285.1262"/>
</g>
<!-- Node735 -->
<g id="node24" class="node">
<title>Node735</title>
<g id="a_node24"><a xlink:href="quickjs_8h.html#ab8db583fa5e7c2b1935854a42859daed" target="_top" xlink:title="JS_FreeValueRT">
<polygon fill="none" stroke="#ff0000" points="468.5,-240 468.5,-259 558.5,-259 558.5,-240 468.5,-240"/>
<text text-anchor="middle" x="513.5" y="-247" font-family="Helvetica,sans-Serif" font-size="10.00" fill="#000000">JS_FreeValueRT</text>
</a>
</g>
</g>
<!-- Node1129&#45;&gt;Node735 -->
<g id="edge27" class="edge">
<title>Node1129&#45;&gt;Node735</title>
<path fill="none" stroke="#191970" d="M382.5426,-263.5576C405.6662,-261.0754 433.8579,-258.0492 458.1529,-255.4412"/>
<polygon fill="#191970" stroke="#191970" points="458.7311,-258.8993 468.3004,-254.3519 457.9839,-251.9393 458.7311,-258.8993"/>
</g>
<!-- Node886 -->
<g id="node25" class="node">
<title>Node886</title>
<g id="a_node25"><a xlink:href="quickjs_8c.html#aeeea589ee4cec4bbc3145210f4cf6e42" target="_top" xlink:title="JS_RunGC">
<polygon fill="none" stroke="#ff0000" points="482,-202 482,-221 545,-221 545,-202 482,-202"/>
<text text-anchor="middle" x="513.5" y="-209" font-family="Helvetica,sans-Serif" font-size="10.00" fill="#000000">JS_RunGC</text>
</a>
</g>
</g>
<!-- Node1129&#45;&gt;Node886 -->
<g id="edge28" class="edge">
<title>Node1129&#45;&gt;Node886</title>
<path fill="none" stroke="#191970" d="M362.2078,-258.9555C384.0918,-250.9611 416.4323,-239.4538 445,-230.5 453.7275,-227.7646 463.1425,-225.0207 472.1156,-222.5024"/>
<polygon fill="#191970" stroke="#191970" points="473.2943,-225.8078 481.9986,-219.7675 471.4273,-219.0614 473.2943,-225.8078"/>
</g>
<!-- Node1126 -->
<g id="node26" class="node">
<title>Node1126</title>
<g id="a_node26"><a xlink:href="list_8h.html#acc8877b883e77ef12325dd5bfa4be0d3" target="_top" xlink:title="list_empty">
<polygon fill="none" stroke="#000000" points="479.5,-164 479.5,-183 547.5,-183 547.5,-164 479.5,-164"/>
<text text-anchor="middle" x="513.5" y="-171" font-family="Helvetica,sans-Serif" font-size="10.00" fill="#000000">list_empty</text>
</a>
</g>
</g>
<!-- Node1129&#45;&gt;Node1126 -->
<g id="edge29" class="edge">
<title>Node1129&#45;&gt;Node1126</title>
<path fill="none" stroke="#191970" d="M347.4207,-258.9118C366.1389,-242.9439 406.1043,-210.8495 445,-192.5 452.7015,-188.8667 461.2278,-185.8117 469.5747,-183.2872"/>
<polygon fill="#191970" stroke="#191970" points="470.5559,-186.6471 479.2307,-180.5644 468.6561,-179.9098 470.5559,-186.6471"/>
</g>
<!-- Node1130&#45;&gt;Node766 -->
<g id="edge33" class="edge">
<title>Node1130&#45;&gt;Node766</title>
<path fill="none" stroke="#191970" d="M409.1138,-445.6461C458.0365,-450.0208 523.9806,-456.3708 582,-463.5 595.2489,-465.128 609.5078,-467.1161 622.8319,-469.077"/>
<polygon fill="#191970" stroke="#191970" points="622.3996,-472.5512 632.8066,-470.5648 623.4324,-465.6278 622.3996,-472.5512"/>
</g>
<!-- Node1131 -->
<g id="node28" class="node">
<title>Node1131</title>
<g id="a_node28"><a xlink:href="quickjs_8c.html#a4bd986b91b68c6aa485f57c6142acccb" target="_top" xlink:title="async_func_init">
<polygon fill="none" stroke="#ff0000" points="467.5,-392 467.5,-411 559.5,-411 559.5,-392 467.5,-392"/>
<text text-anchor="middle" x="513.5" y="-399" font-family="Helvetica,sans-Serif" font-size="10.00" fill="#000000">async_func_init</text>
</a>
</g>
</g>
<!-- Node1130&#45;&gt;Node1131 -->
<g id="edge31" class="edge">
<title>Node1130&#45;&gt;Node1131</title>
<path fill="none" stroke="#191970" d="M381.1646,-429.911C404.8373,-424.8287 434.1082,-418.5446 459.0974,-413.1797"/>
<polygon fill="#191970" stroke="#191970" points="460.1141,-416.5412 469.1566,-411.0201 458.6447,-409.6972 460.1141,-416.5412"/>
</g>
<!-- Node1131&#45;&gt;Node692 -->
<g id="edge32" class="edge">
<title>Node1131&#45;&gt;Node692</title>
<path fill="none" stroke="#191970" d="M559.6687,-395.0679C567.8197,-392.2503 575.7,-388.2292 582,-382.5 650.7235,-320.0036 669.845,-202.0176 674.8424,-155.2838"/>
<polygon fill="#191970" stroke="#191970" points="678.334,-155.5379 675.8104,-145.2481 671.3664,-154.8658 678.334,-155.5379"/>
</g>
</g>
</svg>
        <g id="navigator" transform="translate(0 0)" fill="#404254">
                <rect fill="#f2f5e9" fill-opacity="0.5" stroke="#606060" stroke-width=".5" x="0" y="0" width="60" height="60"/>
                <use id="zoomplus" xlink:href="#zoomPlus" x="17" y="9" onmousedown="handleZoom(evt,'in')"/>
                <use id="zoomminus" xlink:href="#zoomMin" x="42" y="9" onmousedown="handleZoom(evt,'out')"/>
                <use id="reset" xlink:href="#resetDef" x="30" y="36" onmousedown="handleReset()"/>
                <g id="arrowUp" xlink:href="#dirArrow" transform="translate(30 24)" onmousedown="handlePan(0,-1)">
                  <use xlink:href="#rim" fill="#404040">
                        <set attributeName="fill" to="#808080" begin="arrowUp.mouseover" end="arrowUp.mouseout"/>
                  </use>
                  <path fill="none" stroke="white" stroke-width="1.5" d="M0,-3.0v7 M-2.5,-0.5L0,-3.0L2.5,-0.5"/>
                </g>
                <g id="arrowRight" xlink:href="#dirArrow" transform="rotate(90) translate(36 -43)" onmousedown="handlePan(1,0)">
                  <use xlink:href="#rim" fill="#404040">
                        <set attributeName="fill" to="#808080" begin="arrowRight.mouseover" end="arrowRight.mouseout"/>
                  </use>
                  <path fill="none" stroke="white" stroke-width="1.5" d="M0,-3.0v7 M-2.5,-0.5L0,-3.0L2.5,-0.5"/>
                </g>
                <g id="arrowDown" xlink:href="#dirArrow" transform="rotate(180) translate(-30 -48)" onmousedown="handlePan(0,1)">
                  <use xlink:href="#rim" fill="#404040">
                        <set attributeName="fill" to="#808080" begin="arrowDown.mouseover" end="arrowDown.mouseout"/>
                  </use>
                  <path fill="none" stroke="white" stroke-width="1.5" d="M0,-3.0v7 M-2.5,-0.5L0,-3.0L2.5,-0.5"/>
                </g>
                <g id="arrowLeft" xlink:href="#dirArrow" transform="rotate(270) translate(-36 17)" onmousedown="handlePan(-1,0)">
                  <use xlink:href="#rim" fill="#404040">
                        <set attributeName="fill" to="#808080" begin="arrowLeft.mouseover" end="arrowLeft.mouseout"/>
                  </use>
                  <path fill="none" stroke="white" stroke-width="1.5" d="M0,-3.0v7 M-2.5,-0.5L0,-3.0L2.5,-0.5"/>
                </g>
        </g>
        <svg viewBox="0 0 15 15" width="100%" height="30px" preserveAspectRatio="xMaxYMin meet">
         <g id="arrow_out" transform="scale(0.3 0.3)">
          <a xlink:href="quickjs_8h_afc1ca27a266094085ebb43e2eea0dda2_cgraph_org.svg" target="_base">
           <rect id="button" ry="5" rx="5" y="6" x="6" height="38" width="38"
                fill="#f2f5e9" fill-opacity="0.5" stroke="#606060" stroke-width="1.0"/>
           <path id="arrow"
             d="M 11.500037,31.436501 C 11.940474,20.09759 22.043105,11.32322 32.158766,21.979434 L 37.068811,17.246167 C 37.068811,17.246167 37.088388,32 37.088388,32 L 22.160133,31.978069 C 22.160133,31.978069 26.997745,27.140456 26.997745,27.140456 C 18.528582,18.264221 13.291696,25.230495 11.500037,31.436501 z"
             style="fill:#404040;"/>
          </a>
         </g>
        </svg>
</svg>
