<?xml version="1.0" encoding="UTF-8" standalone="no"?>
<!DOCTYPE svg PUBLIC "-//W3C//DTD SVG 1.1//EN"
 "http://www.w3.org/Graphics/SVG/1.1/DTD/svg11.dtd">
<!-- Generated by graphviz version 2.40.1 (20161225.0304)
 -->
<!-- Title: js_thisNumberValue Pages: 1 -->
<svg width="236pt" height="66pt"
 viewBox="0.00 0.00 236.00 66.00" xmlns="http://www.w3.org/2000/svg" xmlns:xlink="http://www.w3.org/1999/xlink">
<g id="graph0" class="graph" transform="scale(1 1) rotate(0) translate(4 62)">
<title>js_thisNumberValue</title>
<!-- Node410694 -->
<g id="node1" class="node">
<title>Node410694</title>
<polygon fill="#bfbfbf" stroke="#000000" points="0,-19.5 0,-38.5 114,-38.5 114,-19.5 0,-19.5"/>
<text text-anchor="middle" x="57" y="-26.5" font-family="Helvetica,sans-Serif" font-size="10.00" fill="#000000">js_thisNumberValue</text>
</g>
<!-- Node410695 -->
<g id="node2" class="node">
<title>Node410695</title>
<g id="a_node2"><a xlink:href="quickjs_8h.html#a775522f2d084fc8fa0fcb33f390006b4" target="_top" xlink:title="JS_DupValue">
<polygon fill="none" stroke="#000000" points="150.5,-38.5 150.5,-57.5 227.5,-57.5 227.5,-38.5 150.5,-38.5"/>
<text text-anchor="middle" x="189" y="-45.5" font-family="Helvetica,sans-Serif" font-size="10.00" fill="#000000">JS_DupValue</text>
</a>
</g>
</g>
<!-- Node410694&#45;&gt;Node410695 -->
<g id="edge1" class="edge">
<title>Node410694&#45;&gt;Node410695</title>
<path fill="none" stroke="#191970" d="M114.1294,-37.2232C122.8477,-38.4781 131.7763,-39.7633 140.2918,-40.989"/>
<polygon fill="#191970" stroke="#191970" points="140.0353,-44.488 150.432,-42.4485 141.0327,-37.5595 140.0353,-44.488"/>
</g>
<!-- Node410696 -->
<g id="node3" class="node">
<title>Node410696</title>
<g id="a_node3"><a xlink:href="quickjs_8h.html#ab995df176086f2a2a06ab777d4c4ef28" target="_top" xlink:title="JS_IsNumber">
<polygon fill="none" stroke="#000000" points="150,-.5 150,-19.5 228,-19.5 228,-.5 150,-.5"/>
<text text-anchor="middle" x="189" y="-7.5" font-family="Helvetica,sans-Serif" font-size="10.00" fill="#000000">JS_IsNumber</text>
</a>
</g>
</g>
<!-- Node410694&#45;&gt;Node410696 -->
<g id="edge2" class="edge">
<title>Node410694&#45;&gt;Node410696</title>
<path fill="none" stroke="#191970" d="M114.1294,-20.7768C122.6496,-19.5504 131.3706,-18.2951 139.7106,-17.0947"/>
<polygon fill="#191970" stroke="#191970" points="140.2561,-20.5523 149.6554,-15.6632 139.2587,-13.6237 140.2561,-20.5523"/>
</g>
</g>
</svg>
