<?xml version="1.0" encoding="UTF-8" standalone="no"?>
<!DOCTYPE svg PUBLIC "-//W3C//DTD SVG 1.1//EN"
 "http://www.w3.org/Graphics/SVG/1.1/DTD/svg11.dtd">
<!-- Generated by graphviz version 2.40.1 (20161225.0304)
 -->
<!-- Title: JS_IsEmptyString Pages: 1 -->
<!--zoomable 198 -->
<svg id="main" version="1.1" xmlns="http://www.w3.org/2000/svg" xmlns:xlink="http://www.w3.org/1999/xlink" xml:space="preserve" onload="init(evt)">
<style type="text/css"><![CDATA[
.edge:hover path { stroke: red; }
.edge:hover polygon { stroke: red; fill: red; }
]]></style>
<script type="text/javascript"><![CDATA[
var edges = document.getElementsByTagName('g');
if (edges && edges.length) {
  for (var i=0;i<edges.length;i++) {
    if (edges[i].id.substr(0,4)=='edge') {
      edges[i].setAttribute('class','edge');
    }
  }
}
]]></script>
        <defs>
                <circle id="rim" cx="0" cy="0" r="7"/>
                <circle id="rim2" cx="0" cy="0" r="3.5"/>
                <g id="zoomPlus">
                        <use xlink:href="#rim" fill="#404040">
                                <set attributeName="fill" to="#808080" begin="zoomplus.mouseover" end="zoomplus.mouseout"/>
                        </use>
                        <path d="M-4,0h8M0,-4v8" fill="none" stroke="white" stroke-width="1.5" pointer-events="none"/>
                </g>
                <g id="zoomMin">
                        <use xlink:href="#rim" fill="#404040">
                                <set attributeName="fill" to="#808080" begin="zoomminus.mouseover" end="zoomminus.mouseout"/>
                        </use>
                        <path d="M-4,0h8" fill="none" stroke="white" stroke-width="1.5" pointer-events="none"/>
                </g>
                <g id="dirArrow">
                        <path fill="none" stroke="white" stroke-width="1.5" d="M0,-3.0v7 M-2.5,-0.5L0,-3.0L2.5,-0.5"/>
                </g>
               <g id="resetDef">
                       <use xlink:href="#rim2" fill="#404040">
                               <set attributeName="fill" to="#808080" begin="reset.mouseover" end="reset.mouseout"/>
                       </use>
               </g>
        </defs>

<script type="text/javascript">
var viewWidth = 572;
var viewHeight = 198;
var sectionId = 'dynsection-287';
</script>
<script xlink:href="svgpan.js"/>
<svg id="graph" class="graph">
<g id="viewport">
<title>JS_IsEmptyString</title>
<!-- Node98864 -->
<g id="node1" class="node">
<title>Node98864</title>
<polygon fill="#bfbfbf" stroke="#000000" points="0,-76.5 0,-95.5 99,-95.5 99,-76.5 0,-76.5"/>
<text text-anchor="middle" x="49.5" y="-83.5" font-family="Helvetica,sans-Serif" font-size="10.00" fill="#000000">JS_IsEmptyString</text>
</g>
<!-- Node98865 -->
<g id="node2" class="node">
<title>Node98865</title>
<g id="a_node2"><a xlink:href="quickjs_8c.html#a367aedcd65b39452fb00ce58dac0c6f6" target="_top" xlink:title="js_error_toString">
<polygon fill="none" stroke="#000000" points="169,-170.5 169,-189.5 266,-189.5 266,-170.5 169,-170.5"/>
<text text-anchor="middle" x="217.5" y="-177.5" font-family="Helvetica,sans-Serif" font-size="10.00" fill="#000000">js_error_toString</text>
</a>
</g>
</g>
<!-- Node98864&#45;&gt;Node98865 -->
<g id="edge1" class="edge">
<title>Node98864&#45;&gt;Node98865</title>
<path fill="none" stroke="#191970" d="M64.4813,-103.4293C80.2792,-120.6783 106.7556,-146.5384 135,-161 145.4661,-166.3588 157.4476,-170.2239 168.9752,-173.0054"/>
<polygon fill="#191970" stroke="#191970" points="66.8915,-100.8734 57.6228,-95.741 61.6679,-105.5332 66.8915,-100.8734"/>
</g>
<!-- Node98866 -->
<g id="node3" class="node">
<title>Node98866</title>
<g id="a_node3"><a xlink:href="quickjs_8c.html#a60d84dd116a9d7d912d08f298a4734dd" target="_top" xlink:title="js_json_to_str">
<polygon fill="none" stroke="#000000" points="176,-114.5 176,-133.5 259,-133.5 259,-114.5 176,-114.5"/>
<text text-anchor="middle" x="217.5" y="-121.5" font-family="Helvetica,sans-Serif" font-size="10.00" fill="#000000">js_json_to_str</text>
</a>
</g>
</g>
<!-- Node98864&#45;&gt;Node98866 -->
<g id="edge2" class="edge">
<title>Node98864&#45;&gt;Node98866</title>
<path fill="none" stroke="#191970" d="M101.8529,-97.8417C125.7267,-103.2417 153.595,-109.5453 175.9921,-114.6113"/>
<polygon fill="#191970" stroke="#191970" points="102.4193,-94.3815 91.8935,-95.589 100.8749,-101.209 102.4193,-94.3815"/>
</g>
<!-- Node98869 -->
<g id="node6" class="node">
<title>Node98869</title>
<g id="a_node6"><a xlink:href="quickjs_8c.html#aeb6df5fcffc6fecfac1e9b0d709e99c5" target="_top" xlink:title="js_regexp_string_iterator_next">
<polygon fill="none" stroke="#000000" points="135,-76.5 135,-95.5 300,-95.5 300,-76.5 135,-76.5"/>
<text text-anchor="middle" x="217.5" y="-83.5" font-family="Helvetica,sans-Serif" font-size="10.00" fill="#000000">js_regexp_string_iterator_next</text>
</a>
</g>
</g>
<!-- Node98864&#45;&gt;Node98869 -->
<g id="edge6" class="edge">
<title>Node98864&#45;&gt;Node98869</title>
<path fill="none" stroke="#191970" d="M109.5847,-86C117.7445,-86 126.2326,-86 134.7045,-86"/>
<polygon fill="#191970" stroke="#191970" points="109.4507,-82.5001 99.4507,-86 109.4506,-89.5001 109.4507,-82.5001"/>
</g>
<!-- Node98870 -->
<g id="node7" class="node">
<title>Node98870</title>
<g id="a_node7"><a xlink:href="quickjs_8c.html#a41fc4304b39616e7be3500fe6ec881c2" target="_top" xlink:title="js_regexp_Symbol_match">
<polygon fill="none" stroke="#000000" points="146.5,-38.5 146.5,-57.5 288.5,-57.5 288.5,-38.5 146.5,-38.5"/>
<text text-anchor="middle" x="217.5" y="-45.5" font-family="Helvetica,sans-Serif" font-size="10.00" fill="#000000">js_regexp_Symbol_match</text>
</a>
</g>
</g>
<!-- Node98864&#45;&gt;Node98870 -->
<g id="edge7" class="edge">
<title>Node98864&#45;&gt;Node98870</title>
<path fill="none" stroke="#191970" d="M101.7757,-74.1757C125.4607,-68.8184 153.0903,-62.5689 175.4114,-57.5201"/>
<polygon fill="#191970" stroke="#191970" points="100.8749,-70.791 91.8935,-76.411 102.4193,-77.6185 100.8749,-70.791"/>
</g>
<!-- Node98871 -->
<g id="node8" class="node">
<title>Node98871</title>
<g id="a_node8"><a xlink:href="quickjs_8c.html#a6a77bcdb9f7f18c13c108c99a198708b" target="_top" xlink:title="js_regexp_Symbol_replace">
<polygon fill="none" stroke="#000000" points="144,-.5 144,-19.5 291,-19.5 291,-.5 144,-.5"/>
<text text-anchor="middle" x="217.5" y="-7.5" font-family="Helvetica,sans-Serif" font-size="10.00" fill="#000000">js_regexp_Symbol_replace</text>
</a>
</g>
</g>
<!-- Node98864&#45;&gt;Node98871 -->
<g id="edge8" class="edge">
<title>Node98864&#45;&gt;Node98871</title>
<path fill="none" stroke="#191970" d="M68.7401,-70.1938C85.339,-57.3159 110.4484,-39.5887 135,-29 143.9075,-25.1584 153.7056,-22.0347 163.343,-19.5141"/>
<polygon fill="#191970" stroke="#191970" points="66.5452,-67.4674 60.8837,-76.4227 70.8941,-72.9526 66.5452,-67.4674"/>
</g>
<!-- Node98866&#45;&gt;Node98866 -->
<g id="edge3" class="edge">
<title>Node98866&#45;&gt;Node98866</title>
<path fill="none" stroke="#191970" d="M186.4371,-142.2746C187.3228,-147.741 197.6771,-152 217.5,-152 247.0039,-152 255.5324,-142.5653 243.0854,-133.7571"/>
<polygon fill="#191970" stroke="#191970" points="189.4495,-144.0611 191.9146,-133.7571 183.5618,-140.2749 189.4495,-144.0611"/>
</g>
<!-- Node98867 -->
<g id="node4" class="node">
<title>Node98867</title>
<g id="a_node4"><a xlink:href="quickjs_8c.html#a343a343b16bc3c9875050e99ee0d2884" target="_top" xlink:title="JS_JSONStringify">
<polygon fill="none" stroke="#000000" points="336,-114.5 336,-133.5 432,-133.5 432,-114.5 336,-114.5"/>
<text text-anchor="middle" x="384" y="-121.5" font-family="Helvetica,sans-Serif" font-size="10.00" fill="#000000">JS_JSONStringify</text>
</a>
</g>
</g>
<!-- Node98866&#45;&gt;Node98867 -->
<g id="edge4" class="edge">
<title>Node98866&#45;&gt;Node98867</title>
<path fill="none" stroke="#191970" d="M269.2376,-124C290.5056,-124 314.9927,-124 335.871,-124"/>
<polygon fill="#191970" stroke="#191970" points="269.0855,-120.5001 259.0855,-124 269.0854,-127.5001 269.0855,-120.5001"/>
</g>
<!-- Node98868 -->
<g id="node5" class="node">
<title>Node98868</title>
<g id="a_node5"><a xlink:href="quickjs_8c.html#ad2e4811daaaacb846df56bc88bd84e03" target="_top" xlink:title="js_json_stringify">
<polygon fill="none" stroke="#000000" points="468,-114.5 468,-133.5 564,-133.5 564,-114.5 468,-114.5"/>
<text text-anchor="middle" x="516" y="-121.5" font-family="Helvetica,sans-Serif" font-size="10.00" fill="#000000">js_json_stringify</text>
</a>
</g>
</g>
<!-- Node98867&#45;&gt;Node98868 -->
<g id="edge5" class="edge">
<title>Node98867&#45;&gt;Node98868</title>
<path fill="none" stroke="#191970" d="M442.2923,-124C450.8093,-124 459.4998,-124 467.7861,-124"/>
<polygon fill="#191970" stroke="#191970" points="442.0285,-120.5001 432.0284,-124 442.0284,-127.5001 442.0285,-120.5001"/>
</g>
</g>
</svg>
        <g id="navigator" transform="translate(0 0)" fill="#404254">
                <rect fill="#f2f5e9" fill-opacity="0.5" stroke="#606060" stroke-width=".5" x="0" y="0" width="60" height="60"/>
                <use id="zoomplus" xlink:href="#zoomPlus" x="17" y="9" onmousedown="handleZoom(evt,'in')"/>
                <use id="zoomminus" xlink:href="#zoomMin" x="42" y="9" onmousedown="handleZoom(evt,'out')"/>
                <use id="reset" xlink:href="#resetDef" x="30" y="36" onmousedown="handleReset()"/>
                <g id="arrowUp" xlink:href="#dirArrow" transform="translate(30 24)" onmousedown="handlePan(0,-1)">
                  <use xlink:href="#rim" fill="#404040">
                        <set attributeName="fill" to="#808080" begin="arrowUp.mouseover" end="arrowUp.mouseout"/>
                  </use>
                  <path fill="none" stroke="white" stroke-width="1.5" d="M0,-3.0v7 M-2.5,-0.5L0,-3.0L2.5,-0.5"/>
                </g>
                <g id="arrowRight" xlink:href="#dirArrow" transform="rotate(90) translate(36 -43)" onmousedown="handlePan(1,0)">
                  <use xlink:href="#rim" fill="#404040">
                        <set attributeName="fill" to="#808080" begin="arrowRight.mouseover" end="arrowRight.mouseout"/>
                  </use>
                  <path fill="none" stroke="white" stroke-width="1.5" d="M0,-3.0v7 M-2.5,-0.5L0,-3.0L2.5,-0.5"/>
                </g>
                <g id="arrowDown" xlink:href="#dirArrow" transform="rotate(180) translate(-30 -48)" onmousedown="handlePan(0,1)">
                  <use xlink:href="#rim" fill="#404040">
                        <set attributeName="fill" to="#808080" begin="arrowDown.mouseover" end="arrowDown.mouseout"/>
                  </use>
                  <path fill="none" stroke="white" stroke-width="1.5" d="M0,-3.0v7 M-2.5,-0.5L0,-3.0L2.5,-0.5"/>
                </g>
                <g id="arrowLeft" xlink:href="#dirArrow" transform="rotate(270) translate(-36 17)" onmousedown="handlePan(-1,0)">
                  <use xlink:href="#rim" fill="#404040">
                        <set attributeName="fill" to="#808080" begin="arrowLeft.mouseover" end="arrowLeft.mouseout"/>
                  </use>
                  <path fill="none" stroke="white" stroke-width="1.5" d="M0,-3.0v7 M-2.5,-0.5L0,-3.0L2.5,-0.5"/>
                </g>
        </g>
        <svg viewBox="0 0 15 15" width="100%" height="30px" preserveAspectRatio="xMaxYMin meet">
         <g id="arrow_out" transform="scale(0.3 0.3)">
          <a xlink:href="quickjs_8c_a31b40ad741f7d1cebdce14d1d979d6d4_icgraph_org.svg" target="_base">
           <rect id="button" ry="5" rx="5" y="6" x="6" height="38" width="38"
                fill="#f2f5e9" fill-opacity="0.5" stroke="#606060" stroke-width="1.0"/>
           <path id="arrow"
             d="M 11.500037,31.436501 C 11.940474,20.09759 22.043105,11.32322 32.158766,21.979434 L 37.068811,17.246167 C 37.068811,17.246167 37.088388,32 37.088388,32 L 22.160133,31.978069 C 22.160133,31.978069 26.997745,27.140456 26.997745,27.140456 C 18.528582,18.264221 13.291696,25.230495 11.500037,31.436501 z"
             style="fill:#404040;"/>
          </a>
         </g>
        </svg>
</svg>
