<?xml version="1.0" encoding="UTF-8" standalone="no"?>
<!DOCTYPE svg PUBLIC "-//W3C//DTD SVG 1.1//EN"
 "http://www.w3.org/Graphics/SVG/1.1/DTD/svg11.dtd">
<!-- Generated by graphviz version 2.40.1 (20161225.0304)
 -->
<!-- Title: string_buffer_putc Pages: 1 -->
<svg width="733pt" height="47pt"
 viewBox="0.00 0.00 733.00 47.00" xmlns="http://www.w3.org/2000/svg" xmlns:xlink="http://www.w3.org/1999/xlink">
<g id="graph0" class="graph" transform="scale(1 1) rotate(0) translate(4 43)">
<title>string_buffer_putc</title>
<!-- Node107098 -->
<g id="node1" class="node">
<title>Node107098</title>
<polygon fill="#bfbfbf" stroke="#000000" points="0,-.5 0,-19.5 104,-19.5 104,-.5 0,-.5"/>
<text text-anchor="middle" x="52" y="-7.5" font-family="Helvetica,sans-Serif" font-size="10.00" fill="#000000">string_buffer_putc</text>
</g>
<!-- Node107099 -->
<g id="node2" class="node">
<title>Node107099</title>
<g id="a_node2"><a xlink:href="quickjs_8c.html#a9b8fb6b5ce638616691f7bf7881fa57d" target="_top" xlink:title="string_buffer_putc16">
<polygon fill="none" stroke="#000000" points="140,-.5 140,-19.5 256,-19.5 256,-.5 140,-.5"/>
<text text-anchor="middle" x="198" y="-7.5" font-family="Helvetica,sans-Serif" font-size="10.00" fill="#000000">string_buffer_putc16</text>
</a>
</g>
</g>
<!-- Node107098&#45;&gt;Node107099 -->
<g id="edge1" class="edge">
<title>Node107098&#45;&gt;Node107099</title>
<path fill="none" stroke="#191970" d="M104.297,-10C112.5892,-10 121.2699,-10 129.8605,-10"/>
<polygon fill="#191970" stroke="#191970" points="129.875,-13.5001 139.875,-10 129.8749,-6.5001 129.875,-13.5001"/>
</g>
<!-- Node107100 -->
<g id="node3" class="node">
<title>Node107100</title>
<g id="a_node3"><a xlink:href="quickjs_8c.html#a08e52b8382e2347db73c950c39af413c" target="_top" xlink:title="string_buffer_putc_slow">
<polygon fill="none" stroke="#000000" points="292,-.5 292,-19.5 424,-19.5 424,-.5 292,-.5"/>
<text text-anchor="middle" x="358" y="-7.5" font-family="Helvetica,sans-Serif" font-size="10.00" fill="#000000">string_buffer_putc_slow</text>
</a>
</g>
</g>
<!-- Node107099&#45;&gt;Node107100 -->
<g id="edge2" class="edge">
<title>Node107099&#45;&gt;Node107100</title>
<path fill="none" stroke="#191970" d="M256.2163,-10C264.5651,-10 273.2565,-10 281.8874,-10"/>
<polygon fill="#191970" stroke="#191970" points="281.9675,-13.5001 291.9674,-10 281.9674,-6.5001 281.9675,-13.5001"/>
</g>
<!-- Node107101 -->
<g id="node4" class="node">
<title>Node107101</title>
<g id="a_node4"><a xlink:href="quickjs_8c.html#a317ccdca83843c76330ace89fb055b56" target="_top" xlink:title="string_buffer_realloc">
<polygon fill="none" stroke="#ff0000" points="460,-19.5 460,-38.5 576,-38.5 576,-19.5 460,-19.5"/>
<text text-anchor="middle" x="518" y="-26.5" font-family="Helvetica,sans-Serif" font-size="10.00" fill="#000000">string_buffer_realloc</text>
</a>
</g>
</g>
<!-- Node107100&#45;&gt;Node107101 -->
<g id="edge3" class="edge">
<title>Node107100&#45;&gt;Node107101</title>
<path fill="none" stroke="#191970" d="M424.0019,-17.8377C432.5401,-18.8516 441.2979,-19.8916 449.8697,-20.9095"/>
<polygon fill="#191970" stroke="#191970" points="449.4797,-24.3877 459.8226,-22.0914 450.3052,-17.4366 449.4797,-24.3877"/>
</g>
<!-- Node107108 -->
<g id="node5" class="node">
<title>Node107108</title>
<g id="a_node5"><a xlink:href="quickjs_8c.html#a3a6ad85d7c6ef1ba1854e51b762ee0ea" target="_top" xlink:title="string_buffer_widen">
<polygon fill="none" stroke="#ff0000" points="612,-.5 612,-19.5 725,-19.5 725,-.5 612,-.5"/>
<text text-anchor="middle" x="668.5" y="-7.5" font-family="Helvetica,sans-Serif" font-size="10.00" fill="#000000">string_buffer_widen</text>
</a>
</g>
</g>
<!-- Node107100&#45;&gt;Node107108 -->
<g id="edge5" class="edge">
<title>Node107100&#45;&gt;Node107108</title>
<path fill="none" stroke="#191970" d="M424.2292,-10C476.5758,-10 549.3161,-10 601.7876,-10"/>
<polygon fill="#191970" stroke="#191970" points="601.9997,-13.5001 611.9996,-10 601.9996,-6.5001 601.9997,-13.5001"/>
</g>
<!-- Node107101&#45;&gt;Node107108 -->
<g id="edge4" class="edge">
<title>Node107101&#45;&gt;Node107108</title>
<path fill="none" stroke="#191970" d="M576.1872,-21.6541C584.6294,-20.5883 593.3741,-19.4843 601.9652,-18.3997"/>
<polygon fill="#191970" stroke="#191970" points="602.4697,-21.8639 611.9525,-17.1389 601.5928,-14.9191 602.4697,-21.8639"/>
</g>
</g>
</svg>
