<?xml version="1.0" encoding="UTF-8" standalone="no"?>
<!DOCTYPE svg PUBLIC "-//W3C//DTD SVG 1.1//EN"
 "http://www.w3.org/Graphics/SVG/1.1/DTD/svg11.dtd">
<!-- Generated by graphviz version 2.40.1 (20161225.0304)
 -->
<!-- Title: js_async_function_resume Pages: 1 -->
<svg width="648pt" height="66pt"
 viewBox="0.00 0.00 648.00 66.00" xmlns="http://www.w3.org/2000/svg" xmlns:xlink="http://www.w3.org/1999/xlink">
<g id="graph0" class="graph" transform="scale(1 1) rotate(0) translate(4 62)">
<title>js_async_function_resume</title>
<!-- Node305485 -->
<g id="node1" class="node">
<title>Node305485</title>
<polygon fill="#bfbfbf" stroke="#000000" points="0,-19.5 0,-38.5 146,-38.5 146,-19.5 0,-19.5"/>
<text text-anchor="middle" x="73" y="-26.5" font-family="Helvetica,sans-Serif" font-size="10.00" fill="#000000">js_async_function_resume</text>
</g>
<!-- Node305486 -->
<g id="node2" class="node">
<title>Node305486</title>
<g id="a_node2"><a xlink:href="quickjs_8c.html#a8029b29b8458274699fbcb7ce42a7100" target="_top" xlink:title="js_async_function_call">
<polygon fill="none" stroke="#000000" points="202.5,-38.5 202.5,-57.5 328.5,-57.5 328.5,-38.5 202.5,-38.5"/>
<text text-anchor="middle" x="265.5" y="-45.5" font-family="Helvetica,sans-Serif" font-size="10.00" fill="#000000">js_async_function_call</text>
</a>
</g>
</g>
<!-- Node305485&#45;&gt;Node305486 -->
<g id="edge1" class="edge">
<title>Node305485&#45;&gt;Node305486</title>
<path fill="none" stroke="#191970" d="M156.1275,-37.2048C171.589,-38.7309 187.511,-40.3024 202.2569,-41.7578"/>
<polygon fill="#191970" stroke="#191970" points="156.3459,-33.7094 146.0505,-36.2102 155.6583,-40.6756 156.3459,-33.7094"/>
</g>
<!-- Node305492 -->
<g id="node5" class="node">
<title>Node305492</title>
<g id="a_node5"><a xlink:href="quickjs_8c.html#a2cf6c9a897a2a59d310f3cf18897b639" target="_top" xlink:title="js_async_function_resolve_call">
<polygon fill="none" stroke="#000000" points="182,-.5 182,-19.5 349,-19.5 349,-.5 182,-.5"/>
<text text-anchor="middle" x="265.5" y="-7.5" font-family="Helvetica,sans-Serif" font-size="10.00" fill="#000000">js_async_function_resolve_call</text>
</a>
</g>
</g>
<!-- Node305485&#45;&gt;Node305492 -->
<g id="edge4" class="edge">
<title>Node305485&#45;&gt;Node305492</title>
<path fill="none" stroke="#191970" d="M156.0208,-20.8057C164.584,-19.9605 173.2896,-19.1013 181.8595,-18.2554"/>
<polygon fill="#191970" stroke="#191970" points="155.6583,-17.3244 146.0505,-21.7898 156.3459,-24.2906 155.6583,-17.3244"/>
</g>
<!-- Node305487 -->
<g id="node3" class="node">
<title>Node305487</title>
<g id="a_node3"><a xlink:href="quickjs_8c.html#a2e66fcf1bc1d19f346317f10ee590621" target="_top" xlink:title="JS_AddIntrinsicPromise">
<polygon fill="none" stroke="#000000" points="385,-19.5 385,-38.5 513,-38.5 513,-19.5 385,-19.5"/>
<text text-anchor="middle" x="449" y="-26.5" font-family="Helvetica,sans-Serif" font-size="10.00" fill="#000000">JS_AddIntrinsicPromise</text>
</a>
</g>
</g>
<!-- Node305486&#45;&gt;Node305487 -->
<g id="edge2" class="edge">
<title>Node305486&#45;&gt;Node305487</title>
<path fill="none" stroke="#191970" d="M339.0089,-40.3887C354.1619,-38.8197 370.0067,-37.1791 384.7985,-35.6476"/>
<polygon fill="#191970" stroke="#191970" points="338.2366,-36.9499 328.6503,-41.4613 338.9576,-43.9127 338.2366,-36.9499"/>
</g>
<!-- Node305488 -->
<g id="node4" class="node">
<title>Node305488</title>
<g id="a_node4"><a xlink:href="quickjs_8c.html#ad8aedb643b8753b7a15f6cb2df61945e" target="_top" xlink:title="JS_NewContext">
<polygon fill="none" stroke="#ff0000" points="549,-19.5 549,-38.5 640,-38.5 640,-19.5 549,-19.5"/>
<text text-anchor="middle" x="594.5" y="-26.5" font-family="Helvetica,sans-Serif" font-size="10.00" fill="#000000">JS_NewContext</text>
</a>
</g>
</g>
<!-- Node305487&#45;&gt;Node305488 -->
<g id="edge3" class="edge">
<title>Node305487&#45;&gt;Node305488</title>
<path fill="none" stroke="#191970" d="M523.4356,-29C532.1319,-29 540.796,-29 548.9306,-29"/>
<polygon fill="#191970" stroke="#191970" points="523.242,-25.5001 513.242,-29 523.2419,-32.5001 523.242,-25.5001"/>
</g>
<!-- Node305492&#45;&gt;Node305487 -->
<g id="edge5" class="edge">
<title>Node305492&#45;&gt;Node305487</title>
<path fill="none" stroke="#191970" d="M359.3496,-19.7174C368.0056,-20.6137 376.6366,-21.5073 384.9343,-22.3665"/>
<polygon fill="#191970" stroke="#191970" points="359.5026,-16.2146 349.1953,-18.666 358.7816,-23.1774 359.5026,-16.2146"/>
</g>
</g>
</svg>
