<?xml version="1.0" encoding="UTF-8" standalone="no"?>
<!DOCTYPE svg PUBLIC "-//W3C//DTD SVG 1.1//EN"
 "http://www.w3.org/Graphics/SVG/1.1/DTD/svg11.dtd">
<!-- Generated by graphviz version 2.40.1 (20161225.0304)
 -->
<!-- Title: JS_ToNumeric Pages: 1 -->
<!--zoomable 294 -->
<svg id="main" version="1.1" xmlns="http://www.w3.org/2000/svg" xmlns:xlink="http://www.w3.org/1999/xlink" xml:space="preserve" onload="init(evt)">
<style type="text/css"><![CDATA[
.edge:hover path { stroke: red; }
.edge:hover polygon { stroke: red; fill: red; }
]]></style>
<script type="text/javascript"><![CDATA[
var edges = document.getElementsByTagName('g');
if (edges && edges.length) {
  for (var i=0;i<edges.length;i++) {
    if (edges[i].id.substr(0,4)=='edge') {
      edges[i].setAttribute('class','edge');
    }
  }
}
]]></script>
        <defs>
                <circle id="rim" cx="0" cy="0" r="7"/>
                <circle id="rim2" cx="0" cy="0" r="3.5"/>
                <g id="zoomPlus">
                        <use xlink:href="#rim" fill="#404040">
                                <set attributeName="fill" to="#808080" begin="zoomplus.mouseover" end="zoomplus.mouseout"/>
                        </use>
                        <path d="M-4,0h8M0,-4v8" fill="none" stroke="white" stroke-width="1.5" pointer-events="none"/>
                </g>
                <g id="zoomMin">
                        <use xlink:href="#rim" fill="#404040">
                                <set attributeName="fill" to="#808080" begin="zoomminus.mouseover" end="zoomminus.mouseout"/>
                        </use>
                        <path d="M-4,0h8" fill="none" stroke="white" stroke-width="1.5" pointer-events="none"/>
                </g>
                <g id="dirArrow">
                        <path fill="none" stroke="white" stroke-width="1.5" d="M0,-3.0v7 M-2.5,-0.5L0,-3.0L2.5,-0.5"/>
                </g>
               <g id="resetDef">
                       <use xlink:href="#rim2" fill="#404040">
                               <set attributeName="fill" to="#808080" begin="reset.mouseover" end="reset.mouseout"/>
                       </use>
               </g>
        </defs>

<script type="text/javascript">
var viewWidth = 652;
var viewHeight = 294;
var sectionId = 'dynsection-681';
</script>
<script xlink:href="svgpan.js"/>
<svg id="graph" class="graph">
<g id="viewport">
<title>JS_ToNumeric</title>
<!-- Node237740 -->
<g id="node1" class="node">
<title>Node237740</title>
<polygon fill="#bfbfbf" stroke="#000000" points="0,-152.5 0,-171.5 83,-171.5 83,-152.5 0,-152.5"/>
<text text-anchor="middle" x="41.5" y="-159.5" font-family="Helvetica,sans-Serif" font-size="10.00" fill="#000000">JS_ToNumeric</text>
</g>
<!-- Node237741 -->
<g id="node2" class="node">
<title>Node237741</title>
<g id="a_node2"><a xlink:href="quickjs_8h.html#a775522f2d084fc8fa0fcb33f390006b4" target="_top" xlink:title="JS_DupValue">
<polygon fill="none" stroke="#000000" points="132,-171.5 132,-190.5 209,-190.5 209,-171.5 132,-171.5"/>
<text text-anchor="middle" x="170.5" y="-178.5" font-family="Helvetica,sans-Serif" font-size="10.00" fill="#000000">JS_DupValue</text>
</a>
</g>
</g>
<!-- Node237740&#45;&gt;Node237741 -->
<g id="edge1" class="edge">
<title>Node237740&#45;&gt;Node237741</title>
<path fill="none" stroke="#191970" d="M83.0265,-168.1163C95.3474,-169.931 108.9548,-171.9352 121.6929,-173.8114"/>
<polygon fill="#191970" stroke="#191970" points="121.2777,-177.2879 131.681,-175.2825 122.2977,-170.3626 121.2777,-177.2879"/>
</g>
<!-- Node237742 -->
<g id="node3" class="node">
<title>Node237742</title>
<g id="a_node3"><a xlink:href="quickjs_8c.html#a95c291df13743182541d687be697e59d" target="_top" xlink:title="JS_ToNumericFree">
<polygon fill="none" stroke="#000000" points="119,-133.5 119,-152.5 222,-152.5 222,-133.5 119,-133.5"/>
<text text-anchor="middle" x="170.5" y="-140.5" font-family="Helvetica,sans-Serif" font-size="10.00" fill="#000000">JS_ToNumericFree</text>
</a>
</g>
</g>
<!-- Node237740&#45;&gt;Node237742 -->
<g id="edge2" class="edge">
<title>Node237740&#45;&gt;Node237742</title>
<path fill="none" stroke="#191970" d="M83.0265,-155.8837C91.1791,-154.6829 99.8949,-153.3992 108.5494,-152.1245"/>
<polygon fill="#191970" stroke="#191970" points="109.2603,-155.5577 118.6435,-150.6378 108.2402,-148.6324 109.2603,-155.5577"/>
</g>
<!-- Node237743 -->
<g id="node4" class="node">
<title>Node237743</title>
<g id="a_node4"><a xlink:href="quickjs_8c.html#a0315f23b9804563f376c47edef2967fd" target="_top" xlink:title="JS_ToNumberHintFree">
<polygon fill="none" stroke="#000000" points="258,-133.5 258,-152.5 379,-152.5 379,-133.5 258,-133.5"/>
<text text-anchor="middle" x="318.5" y="-140.5" font-family="Helvetica,sans-Serif" font-size="10.00" fill="#000000">JS_ToNumberHintFree</text>
</a>
</g>
</g>
<!-- Node237742&#45;&gt;Node237743 -->
<g id="edge3" class="edge">
<title>Node237742&#45;&gt;Node237743</title>
<path fill="none" stroke="#191970" d="M222.2632,-143C230.5312,-143 239.2075,-143 247.8236,-143"/>
<polygon fill="#191970" stroke="#191970" points="247.8824,-146.5001 257.8824,-143 247.8823,-139.5001 247.8824,-146.5001"/>
</g>
<!-- Node237744 -->
<g id="node5" class="node">
<title>Node237744</title>
<g id="a_node5"><a xlink:href="quickjs_8c.html#a40bcef4994dba57dfb34b6eed66daef0" target="_top" xlink:title="js_atof">
<polygon fill="none" stroke="#ff0000" points="443,-266.5 443,-285.5 493,-285.5 493,-266.5 443,-266.5"/>
<text text-anchor="middle" x="468" y="-273.5" font-family="Helvetica,sans-Serif" font-size="10.00" fill="#000000">js_atof</text>
</a>
</g>
</g>
<!-- Node237743&#45;&gt;Node237744 -->
<g id="edge4" class="edge">
<title>Node237743&#45;&gt;Node237744</title>
<path fill="none" stroke="#191970" d="M324.2148,-152.7364C337.4557,-174.4913 372.3821,-227.4489 415,-257 420.4823,-260.8014 426.8084,-263.9263 433.1389,-266.4653"/>
<polygon fill="#191970" stroke="#191970" points="432.3749,-269.9093 442.9695,-269.9858 434.735,-263.3192 432.3749,-269.9093"/>
</g>
<!-- Node237754 -->
<g id="node6" class="node">
<title>Node237754</title>
<g id="a_node6"><a xlink:href="quickjs_8c.html#ae0bc4f65da64810facb2cb9e476eda2e" target="_top" xlink:title="JS_FreeCString">
<polygon fill="none" stroke="#000000" points="425,-228.5 425,-247.5 511,-247.5 511,-228.5 425,-228.5"/>
<text text-anchor="middle" x="468" y="-235.5" font-family="Helvetica,sans-Serif" font-size="10.00" fill="#000000">JS_FreeCString</text>
</a>
</g>
</g>
<!-- Node237743&#45;&gt;Node237754 -->
<g id="edge5" class="edge">
<title>Node237743&#45;&gt;Node237754</title>
<path fill="none" stroke="#191970" d="M329.8397,-152.5728C347.3407,-167.0552 382.3338,-194.8708 415,-214 421.1491,-217.6009 427.9339,-221.0397 434.5373,-224.1324"/>
<polygon fill="#191970" stroke="#191970" points="433.432,-227.4734 443.9868,-228.3943 436.3101,-221.0924 433.432,-227.4734"/>
</g>
<!-- Node237755 -->
<g id="node7" class="node">
<title>Node237755</title>
<g id="a_node7"><a xlink:href="quickjs_8h.html#afaa20c47565bc704c6c85f3d77254e7d" target="_top" xlink:title="JS_FreeValue">
<polygon fill="none" stroke="#ff0000" points="561.5,-190.5 561.5,-209.5 639.5,-209.5 639.5,-190.5 561.5,-190.5"/>
<text text-anchor="middle" x="600.5" y="-197.5" font-family="Helvetica,sans-Serif" font-size="10.00" fill="#000000">JS_FreeValue</text>
</a>
</g>
</g>
<!-- Node237743&#45;&gt;Node237755 -->
<g id="edge7" class="edge">
<title>Node237743&#45;&gt;Node237755</title>
<path fill="none" stroke="#191970" d="M338.3095,-152.6559C357.4603,-161.5402 387.5321,-174.3188 415,-181 460.2859,-192.0151 513.3023,-196.6501 551.0327,-198.5972"/>
<polygon fill="#191970" stroke="#191970" points="551.0967,-202.104 561.2502,-199.0782 551.4259,-195.1117 551.0967,-202.104"/>
</g>
<!-- Node237792 -->
<g id="node8" class="node">
<title>Node237792</title>
<g id="a_node8"><a xlink:href="quickjs_8h.html#ad80a83d73e9b7d872b88fbf2943aebe9" target="_top" xlink:title="JS_IsException">
<polygon fill="none" stroke="#000000" points="557,-95.5 557,-114.5 644,-114.5 644,-95.5 557,-95.5"/>
<text text-anchor="middle" x="600.5" y="-102.5" font-family="Helvetica,sans-Serif" font-size="10.00" fill="#000000">JS_IsException</text>
</a>
</g>
</g>
<!-- Node237743&#45;&gt;Node237792 -->
<g id="edge8" class="edge">
<title>Node237743&#45;&gt;Node237792</title>
<path fill="none" stroke="#191970" d="M326.5609,-133.3685C341.7388,-116.0779 376.5135,-80.3357 415,-67 459.5145,-51.5756 475.0548,-56.5838 521,-67 540.8914,-71.5096 561.6275,-81.6292 576.9329,-90.2921"/>
<polygon fill="#191970" stroke="#191970" points="575.3079,-93.3965 585.7048,-95.4346 578.8481,-87.3577 575.3079,-93.3965"/>
</g>
<!-- Node237793 -->
<g id="node9" class="node">
<title>Node237793</title>
<g id="a_node9"><a xlink:href="quickjs_8h.html#a2050bc428da1c65ac7eb87c3fa3b0392" target="_top" xlink:title="JS_NewInt32">
<polygon fill="none" stroke="#000000" points="429.5,-114.5 429.5,-133.5 506.5,-133.5 506.5,-114.5 429.5,-114.5"/>
<text text-anchor="middle" x="468" y="-121.5" font-family="Helvetica,sans-Serif" font-size="10.00" fill="#000000">JS_NewInt32</text>
</a>
</g>
</g>
<!-- Node237743&#45;&gt;Node237793 -->
<g id="edge9" class="edge">
<title>Node237743&#45;&gt;Node237793</title>
<path fill="none" stroke="#191970" d="M379.3074,-135.272C392.5752,-133.5858 406.4506,-131.8223 419.1807,-130.2045"/>
<polygon fill="#191970" stroke="#191970" points="419.632,-133.6753 429.1109,-128.9424 418.7494,-126.7312 419.632,-133.6753"/>
</g>
<!-- Node237794 -->
<g id="node10" class="node">
<title>Node237794</title>
<g id="a_node10"><a xlink:href="quickjs_8h.html#a1e7f56471f8608df9405987087a56070" target="_top" xlink:title="JS_ToCStringLen">
<polygon fill="none" stroke="#ff0000" points="421,-76.5 421,-95.5 515,-95.5 515,-76.5 421,-76.5"/>
<text text-anchor="middle" x="468" y="-83.5" font-family="Helvetica,sans-Serif" font-size="10.00" fill="#000000">JS_ToCStringLen</text>
</a>
</g>
</g>
<!-- Node237743&#45;&gt;Node237794 -->
<g id="edge10" class="edge">
<title>Node237743&#45;&gt;Node237794</title>
<path fill="none" stroke="#191970" d="M342.2154,-133.4249C361.7012,-125.6146 390.0569,-114.3795 415,-105 420.2608,-103.0217 425.8322,-100.9736 431.3093,-98.9868"/>
<polygon fill="#191970" stroke="#191970" points="432.7557,-102.1861 440.9785,-95.5051 430.3841,-95.6 432.7557,-102.1861"/>
</g>
<!-- Node237822 -->
<g id="node11" class="node">
<title>Node237822</title>
<g id="a_node11"><a xlink:href="quickjs_8c.html#abac33881bb91f8c31106f616d81b67e8" target="_top" xlink:title="JS_ToPrimitiveFree">
<polygon fill="none" stroke="#ff0000" points="415,-152.5 415,-171.5 521,-171.5 521,-152.5 415,-152.5"/>
<text text-anchor="middle" x="468" y="-159.5" font-family="Helvetica,sans-Serif" font-size="10.00" fill="#000000">JS_ToPrimitiveFree</text>
</a>
</g>
</g>
<!-- Node237743&#45;&gt;Node237822 -->
<g id="edge11" class="edge">
<title>Node237743&#45;&gt;Node237822</title>
<path fill="none" stroke="#191970" d="M379.3074,-150.728C387.6983,-151.7944 396.3322,-152.8917 404.7657,-153.9635"/>
<polygon fill="#191970" stroke="#191970" points="404.5621,-157.4657 414.9236,-155.2545 405.4447,-150.5216 404.5621,-157.4657"/>
</g>
<!-- Node238174 -->
<g id="node12" class="node">
<title>Node238174</title>
<g id="a_node12"><a xlink:href="quickjs_8c.html#a55c008c257c5802e77f5fec646e3ebf1" target="_top" xlink:title="skip_spaces">
<polygon fill="none" stroke="#ff0000" points="430,-.5 430,-19.5 506,-19.5 506,-.5 430,-.5"/>
<text text-anchor="middle" x="468" y="-7.5" font-family="Helvetica,sans-Serif" font-size="10.00" fill="#000000">skip_spaces</text>
</a>
</g>
</g>
<!-- Node237743&#45;&gt;Node238174 -->
<g id="edge14" class="edge">
<title>Node237743&#45;&gt;Node238174</title>
<path fill="none" stroke="#191970" d="M324.9148,-133.3255C339.0268,-112.6675 374.7321,-63.7116 415,-34 420.1739,-30.1825 426.0517,-26.7795 431.9635,-23.821"/>
<polygon fill="#191970" stroke="#191970" points="433.5873,-26.9261 441.1852,-19.5421 430.641,-20.5763 433.5873,-26.9261"/>
</g>
<!-- Node237754&#45;&gt;Node237755 -->
<g id="edge6" class="edge">
<title>Node237754&#45;&gt;Node237755</title>
<path fill="none" stroke="#191970" d="M501.4353,-228.411C518.3829,-223.5506 539.1634,-217.5909 557.3075,-212.3873"/>
<polygon fill="#191970" stroke="#191970" points="558.4278,-215.7072 567.0754,-209.5859 556.4979,-208.9784 558.4278,-215.7072"/>
</g>
<!-- Node237822&#45;&gt;Node237755 -->
<g id="edge12" class="edge">
<title>Node237822&#45;&gt;Node237755</title>
<path fill="none" stroke="#191970" d="M501.4353,-171.589C518.3829,-176.4494 539.1634,-182.4091 557.3075,-187.6127"/>
<polygon fill="#191970" stroke="#191970" points="556.4979,-191.0216 567.0754,-190.4141 558.4278,-184.2928 556.4979,-191.0216"/>
</g>
<!-- Node237822&#45;&gt;Node237792 -->
<g id="edge13" class="edge">
<title>Node237822&#45;&gt;Node237792</title>
<path fill="none" stroke="#191970" d="M496.26,-152.4689C504.317,-149.5901 513.0607,-146.3105 521,-143 538.3736,-135.7557 557.4124,-126.6964 572.502,-119.2405"/>
<polygon fill="#191970" stroke="#191970" points="574.4041,-122.203 581.7905,-114.6076 571.2797,-115.939 574.4041,-122.203"/>
</g>
</g>
</svg>
        <g id="navigator" transform="translate(0 0)" fill="#404254">
                <rect fill="#f2f5e9" fill-opacity="0.5" stroke="#606060" stroke-width=".5" x="0" y="0" width="60" height="60"/>
                <use id="zoomplus" xlink:href="#zoomPlus" x="17" y="9" onmousedown="handleZoom(evt,'in')"/>
                <use id="zoomminus" xlink:href="#zoomMin" x="42" y="9" onmousedown="handleZoom(evt,'out')"/>
                <use id="reset" xlink:href="#resetDef" x="30" y="36" onmousedown="handleReset()"/>
                <g id="arrowUp" xlink:href="#dirArrow" transform="translate(30 24)" onmousedown="handlePan(0,-1)">
                  <use xlink:href="#rim" fill="#404040">
                        <set attributeName="fill" to="#808080" begin="arrowUp.mouseover" end="arrowUp.mouseout"/>
                  </use>
                  <path fill="none" stroke="white" stroke-width="1.5" d="M0,-3.0v7 M-2.5,-0.5L0,-3.0L2.5,-0.5"/>
                </g>
                <g id="arrowRight" xlink:href="#dirArrow" transform="rotate(90) translate(36 -43)" onmousedown="handlePan(1,0)">
                  <use xlink:href="#rim" fill="#404040">
                        <set attributeName="fill" to="#808080" begin="arrowRight.mouseover" end="arrowRight.mouseout"/>
                  </use>
                  <path fill="none" stroke="white" stroke-width="1.5" d="M0,-3.0v7 M-2.5,-0.5L0,-3.0L2.5,-0.5"/>
                </g>
                <g id="arrowDown" xlink:href="#dirArrow" transform="rotate(180) translate(-30 -48)" onmousedown="handlePan(0,1)">
                  <use xlink:href="#rim" fill="#404040">
                        <set attributeName="fill" to="#808080" begin="arrowDown.mouseover" end="arrowDown.mouseout"/>
                  </use>
                  <path fill="none" stroke="white" stroke-width="1.5" d="M0,-3.0v7 M-2.5,-0.5L0,-3.0L2.5,-0.5"/>
                </g>
                <g id="arrowLeft" xlink:href="#dirArrow" transform="rotate(270) translate(-36 17)" onmousedown="handlePan(-1,0)">
                  <use xlink:href="#rim" fill="#404040">
                        <set attributeName="fill" to="#808080" begin="arrowLeft.mouseover" end="arrowLeft.mouseout"/>
                  </use>
                  <path fill="none" stroke="white" stroke-width="1.5" d="M0,-3.0v7 M-2.5,-0.5L0,-3.0L2.5,-0.5"/>
                </g>
        </g>
        <svg viewBox="0 0 15 15" width="100%" height="30px" preserveAspectRatio="xMaxYMin meet">
         <g id="arrow_out" transform="scale(0.3 0.3)">
          <a xlink:href="quickjs_8c_a3db848576f8ea57675df6ba68de8ebfc_cgraph_org.svg" target="_base">
           <rect id="button" ry="5" rx="5" y="6" x="6" height="38" width="38"
                fill="#f2f5e9" fill-opacity="0.5" stroke="#606060" stroke-width="1.0"/>
           <path id="arrow"
             d="M 11.500037,31.436501 C 11.940474,20.09759 22.043105,11.32322 32.158766,21.979434 L 37.068811,17.246167 C 37.068811,17.246167 37.088388,32 37.088388,32 L 22.160133,31.978069 C 22.160133,31.978069 26.997745,27.140456 26.997745,27.140456 C 18.528582,18.264221 13.291696,25.230495 11.500037,31.436501 z"
             style="fill:#404040;"/>
          </a>
         </g>
        </svg>
</svg>
