<?xml version="1.0" encoding="UTF-8" standalone="no"?>
<!DOCTYPE svg PUBLIC "-//W3C//DTD SVG 1.1//EN"
 "http://www.w3.org/Graphics/SVG/1.1/DTD/svg11.dtd">
<!-- Generated by graphviz version 2.40.1 (20161225.0304)
 -->
<!-- Title: js_ecvt Pages: 1 -->
<svg width="417pt" height="198pt"
 viewBox="0.00 0.00 417.00 198.00" xmlns="http://www.w3.org/2000/svg" xmlns:xlink="http://www.w3.org/1999/xlink">
<g id="graph0" class="graph" transform="scale(1 1) rotate(0) translate(4 194)">
<title>js_ecvt</title>
<!-- Node252340 -->
<g id="node1" class="node">
<title>Node252340</title>
<polygon fill="#bfbfbf" stroke="#000000" points="0,-76.5 0,-95.5 51,-95.5 51,-76.5 0,-76.5"/>
<text text-anchor="middle" x="25.5" y="-83.5" font-family="Helvetica,sans-Serif" font-size="10.00" fill="#000000">js_ecvt</text>
</g>
<!-- Node252341 -->
<g id="node2" class="node">
<title>Node252341</title>
<g id="a_node2"><a xlink:href="quickjs_8c.html#a7ba39dd8c4124908e1c12e2d3267767c" target="_top" xlink:title="js_dtoa1">
<polygon fill="none" stroke="#000000" points="87,-76.5 87,-95.5 145,-95.5 145,-76.5 87,-76.5"/>
<text text-anchor="middle" x="116" y="-83.5" font-family="Helvetica,sans-Serif" font-size="10.00" fill="#000000">js_dtoa1</text>
</a>
</g>
</g>
<!-- Node252340&#45;&gt;Node252341 -->
<g id="edge1" class="edge">
<title>Node252340&#45;&gt;Node252341</title>
<path fill="none" stroke="#191970" d="M61.1997,-86C69.6638,-86 78.595,-86 86.7344,-86"/>
<polygon fill="#191970" stroke="#191970" points="61.1916,-82.5001 51.1916,-86 61.1916,-89.5001 61.1916,-82.5001"/>
</g>
<!-- Node252342 -->
<g id="node3" class="node">
<title>Node252342</title>
<g id="a_node3"><a xlink:href="quickjs_8c.html#a6508a2922531adcb280bbff485a9a44a" target="_top" xlink:title="js_dtoa">
<polygon fill="none" stroke="#000000" points="181,-76.5 181,-95.5 233,-95.5 233,-76.5 181,-76.5"/>
<text text-anchor="middle" x="207" y="-83.5" font-family="Helvetica,sans-Serif" font-size="10.00" fill="#000000">js_dtoa</text>
</a>
</g>
</g>
<!-- Node252341&#45;&gt;Node252342 -->
<g id="edge2" class="edge">
<title>Node252341&#45;&gt;Node252342</title>
<path fill="none" stroke="#191970" d="M155.2847,-86C163.8724,-86 172.7612,-86 180.6962,-86"/>
<polygon fill="#191970" stroke="#191970" points="155.0432,-82.5001 145.0432,-86 155.0431,-89.5001 155.0432,-82.5001"/>
</g>
<!-- Node252343 -->
<g id="node4" class="node">
<title>Node252343</title>
<g id="a_node4"><a xlink:href="quickjs_8c.html#a46d6ebdd8c73102fd9e02a89b1f1d09a" target="_top" xlink:title="JS_ToStringInternal">
<polygon fill="none" stroke="#ff0000" points="285.5,-152.5 285.5,-171.5 392.5,-171.5 392.5,-152.5 285.5,-152.5"/>
<text text-anchor="middle" x="339" y="-159.5" font-family="Helvetica,sans-Serif" font-size="10.00" fill="#000000">JS_ToStringInternal</text>
</a>
</g>
</g>
<!-- Node252342&#45;&gt;Node252343 -->
<g id="edge3" class="edge">
<title>Node252342&#45;&gt;Node252343</title>
<path fill="none" stroke="#191970" d="M221.5416,-103.2437C233.1623,-115.9768 250.5173,-132.8012 269,-143 275.946,-146.8328 283.7126,-149.9298 291.4752,-152.4211"/>
<polygon fill="#191970" stroke="#191970" points="224.0191,-100.7614 214.7789,-95.5778 218.7698,-105.3923 224.0191,-100.7614"/>
</g>
<!-- Node252612 -->
<g id="node5" class="node">
<title>Node252612</title>
<g id="a_node5"><a xlink:href="quickjs_8c.html#adf92b748274979904d269c4d3682e4dd" target="_top" xlink:title="js_number_toString">
<polygon fill="none" stroke="#000000" points="283.5,-114.5 283.5,-133.5 394.5,-133.5 394.5,-114.5 283.5,-114.5"/>
<text text-anchor="middle" x="339" y="-121.5" font-family="Helvetica,sans-Serif" font-size="10.00" fill="#000000">js_number_toString</text>
</a>
</g>
</g>
<!-- Node252342&#45;&gt;Node252612 -->
<g id="edge5" class="edge">
<title>Node252342&#45;&gt;Node252612</title>
<path fill="none" stroke="#191970" d="M242.8919,-97.2145C251.4327,-99.8234 260.5265,-102.5524 269,-105 280.0091,-108.1801 292.0364,-111.5001 302.9671,-114.4588"/>
<polygon fill="#191970" stroke="#191970" points="243.777,-93.825 233.19,-94.2311 241.7195,-100.5158 243.777,-93.825"/>
</g>
<!-- Node252610 -->
<g id="node6" class="node">
<title>Node252610</title>
<g id="a_node6"><a xlink:href="quickjs_8c.html#a7440a8b206568f2729470433d57d9a98" target="_top" xlink:title="js_number_toFixed">
<polygon fill="none" stroke="#000000" points="285,-76.5 285,-95.5 393,-95.5 393,-76.5 285,-76.5"/>
<text text-anchor="middle" x="339" y="-83.5" font-family="Helvetica,sans-Serif" font-size="10.00" fill="#000000">js_number_toFixed</text>
</a>
</g>
</g>
<!-- Node252342&#45;&gt;Node252610 -->
<g id="edge6" class="edge">
<title>Node252342&#45;&gt;Node252610</title>
<path fill="none" stroke="#191970" d="M243.3509,-86C256.1758,-86 270.8862,-86 284.8627,-86"/>
<polygon fill="#191970" stroke="#191970" points="243.079,-82.5001 233.079,-86 243.0789,-89.5001 243.079,-82.5001"/>
</g>
<!-- Node252609 -->
<g id="node7" class="node">
<title>Node252609</title>
<g id="a_node7"><a xlink:href="quickjs_8c.html#afad8d7db437ba0647d2dbf77cd9769d6" target="_top" xlink:title="js_number_toExponential">
<polygon fill="none" stroke="#000000" points="269,-38.5 269,-57.5 409,-57.5 409,-38.5 269,-38.5"/>
<text text-anchor="middle" x="339" y="-45.5" font-family="Helvetica,sans-Serif" font-size="10.00" fill="#000000">js_number_toExponential</text>
</a>
</g>
</g>
<!-- Node252342&#45;&gt;Node252609 -->
<g id="edge7" class="edge">
<title>Node252342&#45;&gt;Node252609</title>
<path fill="none" stroke="#191970" d="M242.8919,-74.7855C251.4327,-72.1766 260.5265,-69.4476 269,-67 280.0091,-63.8199 292.0364,-60.4999 302.9671,-57.5412"/>
<polygon fill="#191970" stroke="#191970" points="241.7195,-71.4842 233.19,-77.7689 243.777,-78.175 241.7195,-71.4842"/>
</g>
<!-- Node252611 -->
<g id="node8" class="node">
<title>Node252611</title>
<g id="a_node8"><a xlink:href="quickjs_8c.html#a806a4bbff6962ecc09ab3ae101b3755a" target="_top" xlink:title="js_number_toPrecision">
<polygon fill="none" stroke="#000000" points="275.5,-.5 275.5,-19.5 402.5,-19.5 402.5,-.5 275.5,-.5"/>
<text text-anchor="middle" x="339" y="-7.5" font-family="Helvetica,sans-Serif" font-size="10.00" fill="#000000">js_number_toPrecision</text>
</a>
</g>
</g>
<!-- Node252342&#45;&gt;Node252611 -->
<g id="edge8" class="edge">
<title>Node252342&#45;&gt;Node252611</title>
<path fill="none" stroke="#191970" d="M221.5416,-68.7563C233.1623,-56.0232 250.5173,-39.1988 269,-29 275.946,-25.1672 283.7126,-22.0702 291.4752,-19.5789"/>
<polygon fill="#191970" stroke="#191970" points="218.7698,-66.6077 214.7789,-76.4222 224.0191,-71.2386 218.7698,-66.6077"/>
</g>
<!-- Node252343&#45;&gt;Node252343 -->
<g id="edge4" class="edge">
<title>Node252343&#45;&gt;Node252343</title>
<path fill="none" stroke="#191970" d="M314.4465,-181.0292C315.7858,-186.128 323.9703,-190 339,-190 362.4609,-190 369.2426,-180.5653 359.345,-171.7571"/>
<polygon fill="#191970" stroke="#191970" points="317.709,-182.3096 318.655,-171.7571 311.3348,-179.4164 317.709,-182.3096"/>
</g>
</g>
</svg>
