<?xml version="1.0" encoding="UTF-8" standalone="no"?>
<!DOCTYPE svg PUBLIC "-//W3C//DTD SVG 1.1//EN"
 "http://www.w3.org/Graphics/SVG/1.1/DTD/svg11.dtd">
<!-- Generated by graphviz version 2.40.1 (20161225.0304)
 -->
<!-- Title: JS_GetOwnPropertyNames2 Pages: 1 -->
<!--zoomable 165 -->
<svg id="main" version="1.1" xmlns="http://www.w3.org/2000/svg" xmlns:xlink="http://www.w3.org/1999/xlink" xml:space="preserve" onload="init(evt)">
<style type="text/css"><![CDATA[
.edge:hover path { stroke: red; }
.edge:hover polygon { stroke: red; fill: red; }
]]></style>
<script type="text/javascript"><![CDATA[
var edges = document.getElementsByTagName('g');
if (edges && edges.length) {
  for (var i=0;i<edges.length;i++) {
    if (edges[i].id.substr(0,4)=='edge') {
      edges[i].setAttribute('class','edge');
    }
  }
}
]]></script>
        <defs>
                <circle id="rim" cx="0" cy="0" r="7"/>
                <circle id="rim2" cx="0" cy="0" r="3.5"/>
                <g id="zoomPlus">
                        <use xlink:href="#rim" fill="#404040">
                                <set attributeName="fill" to="#808080" begin="zoomplus.mouseover" end="zoomplus.mouseout"/>
                        </use>
                        <path d="M-4,0h8M0,-4v8" fill="none" stroke="white" stroke-width="1.5" pointer-events="none"/>
                </g>
                <g id="zoomMin">
                        <use xlink:href="#rim" fill="#404040">
                                <set attributeName="fill" to="#808080" begin="zoomminus.mouseover" end="zoomminus.mouseout"/>
                        </use>
                        <path d="M-4,0h8" fill="none" stroke="white" stroke-width="1.5" pointer-events="none"/>
                </g>
                <g id="dirArrow">
                        <path fill="none" stroke="white" stroke-width="1.5" d="M0,-3.0v7 M-2.5,-0.5L0,-3.0L2.5,-0.5"/>
                </g>
               <g id="resetDef">
                       <use xlink:href="#rim2" fill="#404040">
                               <set attributeName="fill" to="#808080" begin="reset.mouseover" end="reset.mouseout"/>
                       </use>
               </g>
        </defs>

<script type="text/javascript">
var viewWidth = 591;
var viewHeight = 165;
var sectionId = 'dynsection-1425';
</script>
<script xlink:href="svgpan.js"/>
<svg id="graph" class="graph">
<g id="viewport">
<title>JS_GetOwnPropertyNames2</title>
<!-- Node382814 -->
<g id="node1" class="node">
<title>Node382814</title>
<polygon fill="#bfbfbf" stroke="#000000" points="0,-60.5 0,-79.5 152,-79.5 152,-60.5 0,-60.5"/>
<text text-anchor="middle" x="76" y="-67.5" font-family="Helvetica,sans-Serif" font-size="10.00" fill="#000000">JS_GetOwnPropertyNames2</text>
</g>
<!-- Node382815 -->
<g id="node2" class="node">
<title>Node382815</title>
<g id="a_node2"><a xlink:href="quickjs_8c.html#a8bc4f56dd3af257e80deb082f6a6a428" target="_top" xlink:title="js_object_getOwnProperty\lNames">
<polygon fill="none" stroke="#000000" points="188,-126 188,-156 332,-156 332,-126 188,-126"/>
<text text-anchor="start" x="196" y="-144" font-family="Helvetica,sans-Serif" font-size="10.00" fill="#000000">js_object_getOwnProperty</text>
<text text-anchor="middle" x="260" y="-133" font-family="Helvetica,sans-Serif" font-size="10.00" fill="#000000">Names</text>
</a>
</g>
</g>
<!-- Node382814&#45;&gt;Node382815 -->
<g id="edge1" class="edge">
<title>Node382814&#45;&gt;Node382815</title>
<path fill="none" stroke="#191970" d="M107.0085,-83.7557C129.3516,-93.4843 160.3171,-106.5947 188,-117 196.0169,-120.0133 204.6044,-123.0437 212.956,-125.8882"/>
<polygon fill="#191970" stroke="#191970" points="108.2587,-80.4823 97.6944,-79.6786 105.4517,-86.8949 108.2587,-80.4823"/>
</g>
<!-- Node382816 -->
<g id="node3" class="node">
<title>Node382816</title>
<g id="a_node3"><a xlink:href="quickjs_8c.html#a83a8b773a15bb0deebe81242a2c0b036" target="_top" xlink:title="js_object_getOwnProperty\lSymbols">
<polygon fill="none" stroke="#000000" points="188,-77 188,-107 332,-107 332,-77 188,-77"/>
<text text-anchor="start" x="196" y="-95" font-family="Helvetica,sans-Serif" font-size="10.00" fill="#000000">js_object_getOwnProperty</text>
<text text-anchor="middle" x="260" y="-84" font-family="Helvetica,sans-Serif" font-size="10.00" fill="#000000">Symbols</text>
</a>
</g>
</g>
<!-- Node382814&#45;&gt;Node382816 -->
<g id="edge2" class="edge">
<title>Node382814&#45;&gt;Node382816</title>
<path fill="none" stroke="#191970" d="M162.1615,-80.3019C170.7161,-81.3248 179.3383,-82.3557 187.7307,-83.3591"/>
<polygon fill="#191970" stroke="#191970" points="162.5129,-76.8191 152.168,-79.107 161.6818,-83.7696 162.5129,-76.8191"/>
</g>
<!-- Node382817 -->
<g id="node4" class="node">
<title>Node382817</title>
<g id="a_node4"><a xlink:href="quickjs_8c.html#a0183869c9353a8e82a93327f39c40456" target="_top" xlink:title="js_object_keys">
<polygon fill="none" stroke="#000000" points="215.5,-38.5 215.5,-57.5 304.5,-57.5 304.5,-38.5 215.5,-38.5"/>
<text text-anchor="middle" x="260" y="-45.5" font-family="Helvetica,sans-Serif" font-size="10.00" fill="#000000">js_object_keys</text>
</a>
</g>
</g>
<!-- Node382814&#45;&gt;Node382817 -->
<g id="edge3" class="edge">
<title>Node382814&#45;&gt;Node382817</title>
<path fill="none" stroke="#191970" d="M162.3397,-59.6768C180.7386,-57.4769 199.4406,-55.2408 215.4872,-53.3222"/>
<polygon fill="#191970" stroke="#191970" points="161.6818,-56.2304 152.168,-60.893 162.5129,-63.1809 161.6818,-56.2304"/>
</g>
<!-- Node382821 -->
<g id="node7" class="node">
<title>Node382821</title>
<g id="a_node7"><a xlink:href="quickjs_8c.html#a0be9569ff7b17a2659dc40aedf2c1a16" target="_top" xlink:title="js_reflect_ownKeys">
<polygon fill="none" stroke="#000000" points="205,-.5 205,-19.5 315,-19.5 315,-.5 205,-.5"/>
<text text-anchor="middle" x="260" y="-7.5" font-family="Helvetica,sans-Serif" font-size="10.00" fill="#000000">js_reflect_ownKeys</text>
</a>
</g>
</g>
<!-- Node382814&#45;&gt;Node382821 -->
<g id="edge7" class="edge">
<title>Node382814&#45;&gt;Node382821</title>
<path fill="none" stroke="#191970" d="M109.8259,-56.6859C131.9019,-48.2285 161.4478,-37.3436 188,-29 198.73,-25.6283 210.4825,-22.3539 221.3233,-19.5001"/>
<polygon fill="#191970" stroke="#191970" points="108.3153,-53.5172 100.2462,-60.383 110.8357,-60.0477 108.3153,-53.5172"/>
</g>
<!-- Node382818 -->
<g id="node5" class="node">
<title>Node382818</title>
<g id="a_node5"><a xlink:href="quickjs_8c.html#a60d84dd116a9d7d912d08f298a4734dd" target="_top" xlink:title="js_json_to_str">
<polygon fill="none" stroke="#000000" points="368,-38.5 368,-57.5 451,-57.5 451,-38.5 368,-38.5"/>
<text text-anchor="middle" x="409.5" y="-45.5" font-family="Helvetica,sans-Serif" font-size="10.00" fill="#000000">js_json_to_str</text>
</a>
</g>
</g>
<!-- Node382817&#45;&gt;Node382818 -->
<g id="edge4" class="edge">
<title>Node382817&#45;&gt;Node382818</title>
<path fill="none" stroke="#191970" d="M314.9633,-48C332.4932,-48 351.5875,-48 367.9971,-48"/>
<polygon fill="#191970" stroke="#191970" points="314.855,-44.5001 304.8549,-48 314.8549,-51.5001 314.855,-44.5001"/>
</g>
<!-- Node382818&#45;&gt;Node382818 -->
<g id="edge5" class="edge">
<title>Node382818&#45;&gt;Node382818</title>
<path fill="none" stroke="#191970" d="M386.4346,-67.0292C387.6928,-72.128 395.3812,-76 409.5,-76 431.5391,-76 437.9097,-66.5653 428.612,-57.7571"/>
<polygon fill="#191970" stroke="#191970" points="389.6854,-68.3286 390.388,-57.7571 383.2463,-65.5831 389.6854,-68.3286"/>
</g>
<!-- Node382819 -->
<g id="node6" class="node">
<title>Node382819</title>
<g id="a_node6"><a xlink:href="quickjs_8c.html#a343a343b16bc3c9875050e99ee0d2884" target="_top" xlink:title="JS_JSONStringify">
<polygon fill="none" stroke="#ff0000" points="487,-38.5 487,-57.5 583,-57.5 583,-38.5 487,-38.5"/>
<text text-anchor="middle" x="535" y="-45.5" font-family="Helvetica,sans-Serif" font-size="10.00" fill="#000000">JS_JSONStringify</text>
</a>
</g>
</g>
<!-- Node382818&#45;&gt;Node382819 -->
<g id="edge6" class="edge">
<title>Node382818&#45;&gt;Node382819</title>
<path fill="none" stroke="#191970" d="M461.4023,-48C469.8375,-48 478.5424,-48 486.8822,-48"/>
<polygon fill="#191970" stroke="#191970" points="461.2897,-44.5001 451.2897,-48 461.2896,-51.5001 461.2897,-44.5001"/>
</g>
</g>
</svg>
        <g id="navigator" transform="translate(0 0)" fill="#404254">
                <rect fill="#f2f5e9" fill-opacity="0.5" stroke="#606060" stroke-width=".5" x="0" y="0" width="60" height="60"/>
                <use id="zoomplus" xlink:href="#zoomPlus" x="17" y="9" onmousedown="handleZoom(evt,'in')"/>
                <use id="zoomminus" xlink:href="#zoomMin" x="42" y="9" onmousedown="handleZoom(evt,'out')"/>
                <use id="reset" xlink:href="#resetDef" x="30" y="36" onmousedown="handleReset()"/>
                <g id="arrowUp" xlink:href="#dirArrow" transform="translate(30 24)" onmousedown="handlePan(0,-1)">
                  <use xlink:href="#rim" fill="#404040">
                        <set attributeName="fill" to="#808080" begin="arrowUp.mouseover" end="arrowUp.mouseout"/>
                  </use>
                  <path fill="none" stroke="white" stroke-width="1.5" d="M0,-3.0v7 M-2.5,-0.5L0,-3.0L2.5,-0.5"/>
                </g>
                <g id="arrowRight" xlink:href="#dirArrow" transform="rotate(90) translate(36 -43)" onmousedown="handlePan(1,0)">
                  <use xlink:href="#rim" fill="#404040">
                        <set attributeName="fill" to="#808080" begin="arrowRight.mouseover" end="arrowRight.mouseout"/>
                  </use>
                  <path fill="none" stroke="white" stroke-width="1.5" d="M0,-3.0v7 M-2.5,-0.5L0,-3.0L2.5,-0.5"/>
                </g>
                <g id="arrowDown" xlink:href="#dirArrow" transform="rotate(180) translate(-30 -48)" onmousedown="handlePan(0,1)">
                  <use xlink:href="#rim" fill="#404040">
                        <set attributeName="fill" to="#808080" begin="arrowDown.mouseover" end="arrowDown.mouseout"/>
                  </use>
                  <path fill="none" stroke="white" stroke-width="1.5" d="M0,-3.0v7 M-2.5,-0.5L0,-3.0L2.5,-0.5"/>
                </g>
                <g id="arrowLeft" xlink:href="#dirArrow" transform="rotate(270) translate(-36 17)" onmousedown="handlePan(-1,0)">
                  <use xlink:href="#rim" fill="#404040">
                        <set attributeName="fill" to="#808080" begin="arrowLeft.mouseover" end="arrowLeft.mouseout"/>
                  </use>
                  <path fill="none" stroke="white" stroke-width="1.5" d="M0,-3.0v7 M-2.5,-0.5L0,-3.0L2.5,-0.5"/>
                </g>
        </g>
        <svg viewBox="0 0 15 15" width="100%" height="30px" preserveAspectRatio="xMaxYMin meet">
         <g id="arrow_out" transform="scale(0.3 0.3)">
          <a xlink:href="quickjs_8c_a79c9d633e8f9d5fd70546406b9e6f176_icgraph_org.svg" target="_base">
           <rect id="button" ry="5" rx="5" y="6" x="6" height="38" width="38"
                fill="#f2f5e9" fill-opacity="0.5" stroke="#606060" stroke-width="1.0"/>
           <path id="arrow"
             d="M 11.500037,31.436501 C 11.940474,20.09759 22.043105,11.32322 32.158766,21.979434 L 37.068811,17.246167 C 37.068811,17.246167 37.088388,32 37.088388,32 L 22.160133,31.978069 C 22.160133,31.978069 26.997745,27.140456 26.997745,27.140456 C 18.528582,18.264221 13.291696,25.230495 11.500037,31.436501 z"
             style="fill:#404040;"/>
          </a>
         </g>
        </svg>
</svg>
