<?xml version="1.0" encoding="UTF-8" standalone="no"?>
<!DOCTYPE svg PUBLIC "-//W3C//DTD SVG 1.1//EN"
 "http://www.w3.org/Graphics/SVG/1.1/DTD/svg11.dtd">
<!-- Generated by graphviz version 2.40.1 (20161225.0304)
 -->
<!-- Title: JS_AtomGetStr Pages: 1 -->
<!--zoomable 727 -->
<svg id="main" version="1.1" xmlns="http://www.w3.org/2000/svg" xmlns:xlink="http://www.w3.org/1999/xlink" xml:space="preserve" onload="init(evt)">
<style type="text/css"><![CDATA[
.edge:hover path { stroke: red; }
.edge:hover polygon { stroke: red; fill: red; }
]]></style>
<script type="text/javascript"><![CDATA[
var edges = document.getElementsByTagName('g');
if (edges && edges.length) {
  for (var i=0;i<edges.length;i++) {
    if (edges[i].id.substr(0,4)=='edge') {
      edges[i].setAttribute('class','edge');
    }
  }
}
]]></script>
        <defs>
                <circle id="rim" cx="0" cy="0" r="7"/>
                <circle id="rim2" cx="0" cy="0" r="3.5"/>
                <g id="zoomPlus">
                        <use xlink:href="#rim" fill="#404040">
                                <set attributeName="fill" to="#808080" begin="zoomplus.mouseover" end="zoomplus.mouseout"/>
                        </use>
                        <path d="M-4,0h8M0,-4v8" fill="none" stroke="white" stroke-width="1.5" pointer-events="none"/>
                </g>
                <g id="zoomMin">
                        <use xlink:href="#rim" fill="#404040">
                                <set attributeName="fill" to="#808080" begin="zoomminus.mouseover" end="zoomminus.mouseout"/>
                        </use>
                        <path d="M-4,0h8" fill="none" stroke="white" stroke-width="1.5" pointer-events="none"/>
                </g>
                <g id="dirArrow">
                        <path fill="none" stroke="white" stroke-width="1.5" d="M0,-3.0v7 M-2.5,-0.5L0,-3.0L2.5,-0.5"/>
                </g>
               <g id="resetDef">
                       <use xlink:href="#rim2" fill="#404040">
                               <set attributeName="fill" to="#808080" begin="reset.mouseover" end="reset.mouseout"/>
                       </use>
               </g>
        </defs>

<script type="text/javascript">
var viewWidth = 1079;
var viewHeight = 727;
var sectionId = 'dynsection-262';
</script>
<script xlink:href="svgpan.js"/>
<svg id="graph" class="graph">
<g id="viewport">
<title>JS_AtomGetStr</title>
<!-- Node89333 -->
<g id="node1" class="node">
<title>Node89333</title>
<polygon fill="#bfbfbf" stroke="#000000" points="0,-369.3952 0,-388.3952 88,-388.3952 88,-369.3952 0,-369.3952"/>
<text text-anchor="middle" x="44" y="-376.3952" font-family="Helvetica,sans-Serif" font-size="10.00" fill="#000000">JS_AtomGetStr</text>
</g>
<!-- Node89334 -->
<g id="node2" class="node">
<title>Node89334</title>
<g id="a_node2"><a xlink:href="quickjs_8c.html#acf2f211c47aeb52306aa1467fc034915" target="_top" xlink:title="__attribute">
<polygon fill="none" stroke="#000000" points="186.5,-559.3952 186.5,-578.3952 255.5,-578.3952 255.5,-559.3952 186.5,-559.3952"/>
<text text-anchor="middle" x="221" y="-566.3952" font-family="Helvetica,sans-Serif" font-size="10.00" fill="#000000">__attribute</text>
</a>
</g>
</g>
<!-- Node89333&#45;&gt;Node89334 -->
<g id="edge1" class="edge">
<title>Node89333&#45;&gt;Node89334</title>
<path fill="none" stroke="#191970" d="M47.7537,-398.4476C55.5162,-433.3932 76.7196,-506.4944 124,-544.8952 141.506,-559.1134 166.2462,-565.0802 186.359,-567.5094"/>
<polygon fill="#191970" stroke="#191970" points="51.1547,-397.6113 45.6897,-388.5348 44.3017,-399.0383 51.1547,-397.6113"/>
</g>
<!-- Node89335 -->
<g id="node3" class="node">
<title>Node89335</title>
<g id="a_node3"><a xlink:href="quickjs_8c.html#aaea4bacf94d0db93f4a13f6e88860ad0" target="_top" xlink:title="add_export_entry2">
<polygon fill="none" stroke="#000000" points="167,-483.3952 167,-502.3952 275,-502.3952 275,-483.3952 167,-483.3952"/>
<text text-anchor="middle" x="221" y="-490.3952" font-family="Helvetica,sans-Serif" font-size="10.00" fill="#000000">add_export_entry2</text>
</a>
</g>
</g>
<!-- Node89333&#45;&gt;Node89335 -->
<g id="edge2" class="edge">
<title>Node89333&#45;&gt;Node89335</title>
<path fill="none" stroke="#191970" d="M55.146,-396.965C68.8086,-417.5594 93.8949,-450.7118 124,-468.8952 136.9192,-476.6983 152.2602,-481.9696 166.885,-485.5287"/>
<polygon fill="#191970" stroke="#191970" points="58.0469,-395.005 49.6955,-388.4853 52.1584,-398.7899 58.0469,-395.005"/>
</g>
<!-- Node89378 -->
<g id="node11" class="node">
<title>Node89378</title>
<g id="a_node11"><a xlink:href="quickjs_8c.html#a4c9489297c684663f30e517204a9ec14" target="_top" xlink:title="JS_AddIntrinsicBaseObjects">
<polygon fill="none" stroke="#000000" points="146.5,-407.3952 146.5,-426.3952 295.5,-426.3952 295.5,-407.3952 146.5,-407.3952"/>
<text text-anchor="middle" x="221" y="-414.3952" font-family="Helvetica,sans-Serif" font-size="10.00" fill="#000000">JS_AddIntrinsicBaseObjects</text>
</a>
</g>
</g>
<!-- Node89333&#45;&gt;Node89378 -->
<g id="edge14" class="edge">
<title>Node89333&#45;&gt;Node89378</title>
<path fill="none" stroke="#191970" d="M93.0071,-390.8597C103.2319,-393.2645 113.9548,-395.7194 124,-397.8952 139.0104,-401.1464 155.3812,-404.4466 170.3266,-407.3642"/>
<polygon fill="#191970" stroke="#191970" points="93.5297,-387.3866 82.9918,-388.4838 91.9139,-394.1976 93.5297,-387.3866"/>
</g>
<!-- Node89379 -->
<g id="node13" class="node">
<title>Node89379</title>
<g id="a_node13"><a xlink:href="quickjs_8c.html#a4497f8c7cf2ec38da989910ae8b1f042" target="_top" xlink:title="JS_AddIntrinsicMapSet">
<polygon fill="none" stroke="#000000" points="158.5,-369.3952 158.5,-388.3952 283.5,-388.3952 283.5,-369.3952 158.5,-369.3952"/>
<text text-anchor="middle" x="221" y="-376.3952" font-family="Helvetica,sans-Serif" font-size="10.00" fill="#000000">JS_AddIntrinsicMapSet</text>
</a>
</g>
</g>
<!-- Node89333&#45;&gt;Node89379 -->
<g id="edge16" class="edge">
<title>Node89333&#45;&gt;Node89379</title>
<path fill="none" stroke="#191970" d="M98.4507,-378.8952C117.3913,-378.8952 138.787,-378.8952 158.3386,-378.8952"/>
<polygon fill="#191970" stroke="#191970" points="98.208,-375.3953 88.208,-378.8952 98.208,-382.3953 98.208,-375.3953"/>
</g>
<!-- Node89380 -->
<g id="node14" class="node">
<title>Node89380</title>
<g id="a_node14"><a xlink:href="quickjs_8c.html#a177d09828596bfe6df4bd90b2e93989d" target="_top" xlink:title="JS_AddIntrinsicTypedArrays">
<polygon fill="none" stroke="#000000" points="146.5,-331.3952 146.5,-350.3952 295.5,-350.3952 295.5,-331.3952 146.5,-331.3952"/>
<text text-anchor="middle" x="221" y="-338.3952" font-family="Helvetica,sans-Serif" font-size="10.00" fill="#000000">JS_AddIntrinsicTypedArrays</text>
</a>
</g>
</g>
<!-- Node89333&#45;&gt;Node89380 -->
<g id="edge18" class="edge">
<title>Node89333&#45;&gt;Node89380</title>
<path fill="none" stroke="#191970" d="M93.0071,-366.9306C103.2319,-364.5258 113.9548,-362.0709 124,-359.8952 139.0104,-356.6439 155.3812,-353.3437 170.3266,-350.4261"/>
<polygon fill="#191970" stroke="#191970" points="91.9139,-363.5927 82.9918,-369.3065 93.5297,-370.4037 91.9139,-363.5927"/>
</g>
<!-- Node89381 -->
<g id="node15" class="node">
<title>Node89381</title>
<g id="a_node15"><a xlink:href="quickjs_8c.html#ab1d195fd11f9d22a0a79a040df2be944" target="_top" xlink:title="js_parse_error_reserved\l_identifier">
<polygon fill="none" stroke="#000000" points="361.5,-591.8952 361.5,-621.8952 495.5,-621.8952 495.5,-591.8952 361.5,-591.8952"/>
<text text-anchor="start" x="369.5" y="-609.8952" font-family="Helvetica,sans-Serif" font-size="10.00" fill="#000000">js_parse_error_reserved</text>
<text text-anchor="middle" x="428.5" y="-598.8952" font-family="Helvetica,sans-Serif" font-size="10.00" fill="#000000">_identifier</text>
</a>
</g>
</g>
<!-- Node89333&#45;&gt;Node89381 -->
<g id="edge20" class="edge">
<title>Node89333&#45;&gt;Node89381</title>
<path fill="none" stroke="#191970" d="M49.8777,-398.0411C59.9708,-427.5045 83.5176,-483.5199 124,-511.8952 195.9469,-562.3249 235.0186,-521.0232 318,-549.8952 348.9886,-560.6771 382.1338,-578.7502 403.9499,-591.6552"/>
<polygon fill="#191970" stroke="#191970" points="53.1901,-396.9094 46.7614,-388.4879 46.5352,-399.0803 53.1901,-396.9094"/>
</g>
<!-- Node89383 -->
<g id="node17" class="node">
<title>Node89383</title>
<g id="a_node17"><a xlink:href="quickjs_8c.html#a0c56d4991dacd4cd61dddec1afa2703c" target="_top" xlink:title="js_resolve_export_throw\l_error">
<polygon fill="none" stroke="#000000" points="153,-281.8952 153,-311.8952 289,-311.8952 289,-281.8952 153,-281.8952"/>
<text text-anchor="start" x="161" y="-299.8952" font-family="Helvetica,sans-Serif" font-size="10.00" fill="#000000">js_resolve_export_throw</text>
<text text-anchor="middle" x="221" y="-288.8952" font-family="Helvetica,sans-Serif" font-size="10.00" fill="#000000">_error</text>
</a>
</g>
</g>
<!-- Node89333&#45;&gt;Node89383 -->
<g id="edge27" class="edge">
<title>Node89333&#45;&gt;Node89383</title>
<path fill="none" stroke="#191970" d="M62.3273,-362.8368C77.7986,-350.0506 101.0407,-332.5823 124,-321.8952 133.0656,-317.6753 142.9523,-314.0898 152.834,-311.0667"/>
<polygon fill="#191970" stroke="#191970" points="59.9586,-360.2561 54.5827,-369.3858 64.4786,-365.6012 59.9586,-360.2561"/>
</g>
<!-- Node89953 -->
<g id="node20" class="node">
<title>Node89953</title>
<g id="a_node20"><a xlink:href="quickjs_8c.html#ab8d0b87c9eed4eb6c054b6f4e1731554" target="_top" xlink:title="JS_ThrowReferenceErrorNot\lDefined">
<polygon fill="none" stroke="#000000" points="146,-66.8952 146,-96.8952 296,-96.8952 296,-66.8952 146,-66.8952"/>
<text text-anchor="start" x="154" y="-84.8952" font-family="Helvetica,sans-Serif" font-size="10.00" fill="#000000">JS_ThrowReferenceErrorNot</text>
<text text-anchor="middle" x="221" y="-73.8952" font-family="Helvetica,sans-Serif" font-size="10.00" fill="#000000">Defined</text>
</a>
</g>
</g>
<!-- Node89333&#45;&gt;Node89953 -->
<g id="edge31" class="edge">
<title>Node89333&#45;&gt;Node89953</title>
<path fill="none" stroke="#191970" d="M48.8258,-359.2505C58.6929,-321.5778 83.706,-237.5398 124,-176.8952 145.5237,-144.5008 179.5978,-114.3998 201.1027,-97.0932"/>
<polygon fill="#191970" stroke="#191970" points="45.3234,-358.8221 46.2497,-369.3763 52.1073,-360.548 45.3234,-358.8221"/>
</g>
<!-- Node89954 -->
<g id="node25" class="node">
<title>Node89954</title>
<g id="a_node25"><a xlink:href="quickjs_8c.html#a75ac132a3af4de01e1fadeb0bede6ee7" target="_top" xlink:title="JS_ThrowReferenceErrorUninitialized">
<polygon fill="none" stroke="#ff0000" points="124,-186.3952 124,-205.3952 318,-205.3952 318,-186.3952 124,-186.3952"/>
<text text-anchor="middle" x="221" y="-193.3952" font-family="Helvetica,sans-Serif" font-size="10.00" fill="#000000">JS_ThrowReferenceErrorUninitialized</text>
</a>
</g>
</g>
<!-- Node89333&#45;&gt;Node89954 -->
<g id="edge40" class="edge">
<title>Node89333&#45;&gt;Node89954</title>
<path fill="none" stroke="#191970" d="M55.591,-360.7847C70.1364,-338.7622 96.5254,-301.0497 124,-272.8952 150.5795,-245.6579 186.7747,-219.2754 206.5827,-205.5862"/>
<polygon fill="#191970" stroke="#191970" points="52.6417,-358.8999 50.1136,-369.1887 58.5061,-362.722 52.6417,-358.8999"/>
</g>
<!-- Node89956 -->
<g id="node29" class="node">
<title>Node89956</title>
<g id="a_node29"><a xlink:href="quickjs_8c.html#a6c762f0392095a1152dd6fab61a93e5c" target="_top" xlink:title="js_unsupported_keyword">
<polygon fill="none" stroke="#000000" points="775,-461.3952 775,-480.3952 913,-480.3952 913,-461.3952 775,-461.3952"/>
<text text-anchor="middle" x="844" y="-468.3952" font-family="Helvetica,sans-Serif" font-size="10.00" fill="#000000">js_unsupported_keyword</text>
</a>
</g>
</g>
<!-- Node89333&#45;&gt;Node89956 -->
<g id="edge49" class="edge">
<title>Node89333&#45;&gt;Node89956</title>
<path fill="none" stroke="#191970" d="M61.3014,-395.758C76.4614,-409.3394 99.8013,-427.5031 124,-435.8952 242.7565,-477.0797 618.4509,-475.1815 774.7425,-472.4544"/>
<polygon fill="#191970" stroke="#191970" points="63.4807,-393.0058 53.7671,-388.7753 58.7224,-398.1399 63.4807,-393.0058"/>
</g>
<!-- Node89957 -->
<g id="node30" class="node">
<title>Node89957</title>
<g id="a_node30"><a xlink:href="quickjs_8c.html#ab4e5569a1110db200c0eab67bcd4862a" target="_top" xlink:title="print_atom">
<polygon fill="none" stroke="#000000" points="186,-28.3952 186,-47.3952 256,-47.3952 256,-28.3952 186,-28.3952"/>
<text text-anchor="middle" x="221" y="-35.3952" font-family="Helvetica,sans-Serif" font-size="10.00" fill="#000000">print_atom</text>
</a>
</g>
</g>
<!-- Node89333&#45;&gt;Node89957 -->
<g id="edge51" class="edge">
<title>Node89333&#45;&gt;Node89957</title>
<path fill="none" stroke="#191970" d="M46.178,-358.8999C53.5155,-295.2918 79.4029,-99.3125 124,-56.8952 140.2888,-41.4025 165.3071,-36.7903 185.8554,-35.98"/>
<polygon fill="#191970" stroke="#191970" points="42.6627,-358.8412 45.0235,-369.1696 49.6188,-359.6233 42.6627,-358.8412"/>
</g>
<!-- Node89336 -->
<g id="node4" class="node">
<title>Node89336</title>
<g id="a_node4"><a xlink:href="quickjs_8c.html#ac4a40e2d5f6c48850ba11ed6ce953925" target="_top" xlink:title="add_export_entry">
<polygon fill="none" stroke="#ff0000" points="377.5,-521.3952 377.5,-540.3952 479.5,-540.3952 479.5,-521.3952 377.5,-521.3952"/>
<text text-anchor="middle" x="428.5" y="-528.3952" font-family="Helvetica,sans-Serif" font-size="10.00" fill="#000000">add_export_entry</text>
</a>
</g>
</g>
<!-- Node89335&#45;&gt;Node89336 -->
<g id="edge3" class="edge">
<title>Node89335&#45;&gt;Node89336</title>
<path fill="none" stroke="#191970" d="M283.0755,-504.2632C313.201,-509.7802 348.9486,-516.3267 377.4626,-521.5486"/>
<polygon fill="#191970" stroke="#191970" points="283.5601,-500.7938 273.0932,-502.4351 282.2991,-507.6793 283.5601,-500.7938"/>
</g>
<!-- Node89373 -->
<g id="node10" class="node">
<title>Node89373</title>
<g id="a_node10"><a xlink:href="quickjs_8c.html#a369af749a1fb181216fe8a8b55f841b0" target="_top" xlink:title="JS_AddModuleExport">
<polygon fill="none" stroke="#ff0000" points="370.5,-483.3952 370.5,-502.3952 486.5,-502.3952 486.5,-483.3952 370.5,-483.3952"/>
<text text-anchor="middle" x="428.5" y="-490.3952" font-family="Helvetica,sans-Serif" font-size="10.00" fill="#000000">JS_AddModuleExport</text>
</a>
</g>
</g>
<!-- Node89335&#45;&gt;Node89373 -->
<g id="edge13" class="edge">
<title>Node89335&#45;&gt;Node89373</title>
<path fill="none" stroke="#191970" d="M285.4072,-492.8952C312.5033,-492.8952 343.802,-492.8952 370.2053,-492.8952"/>
<polygon fill="#191970" stroke="#191970" points="285.2472,-489.3953 275.2471,-492.8952 285.2471,-496.3953 285.2472,-489.3953"/>
</g>
<!-- Node89337 -->
<g id="node5" class="node">
<title>Node89337</title>
<g id="a_node5"><a xlink:href="quickjs_8c.html#a00eb789430243c24dab4a63ad6a79653" target="_top" xlink:title="js_parse_class">
<polygon fill="none" stroke="#ff0000" points="800.5,-559.3952 800.5,-578.3952 887.5,-578.3952 887.5,-559.3952 800.5,-559.3952"/>
<text text-anchor="middle" x="844" y="-566.3952" font-family="Helvetica,sans-Serif" font-size="10.00" fill="#000000">js_parse_class</text>
</a>
</g>
</g>
<!-- Node89336&#45;&gt;Node89337 -->
<g id="edge4" class="edge">
<title>Node89336&#45;&gt;Node89337</title>
<path fill="none" stroke="#191970" d="M489.8918,-532.5177C552.668,-534.6768 652.9097,-539.5087 739,-549.8952 759.323,-552.347 781.6644,-556.2222 800.4954,-559.8352"/>
<polygon fill="#191970" stroke="#191970" points="489.8754,-529.0153 479.7648,-532.1814 489.6431,-536.0114 489.8754,-529.0153"/>
</g>
<!-- Node89341 -->
<g id="node8" class="node">
<title>Node89341</title>
<g id="a_node8"><a xlink:href="quickjs_8c.html#a9660cf21845352b14655d423389d6620" target="_top" xlink:title="js_parse_var">
<polygon fill="none" stroke="#ff0000" points="600,-483.3952 600,-502.3952 678,-502.3952 678,-483.3952 600,-483.3952"/>
<text text-anchor="middle" x="639" y="-490.3952" font-family="Helvetica,sans-Serif" font-size="10.00" fill="#000000">js_parse_var</text>
</a>
</g>
</g>
<!-- Node89336&#45;&gt;Node89341 -->
<g id="edge9" class="edge">
<title>Node89336&#45;&gt;Node89341</title>
<path fill="none" stroke="#191970" d="M489.9723,-519.798C525.44,-513.3953 568.9786,-505.5356 599.8153,-499.9689"/>
<polygon fill="#191970" stroke="#191970" points="488.9441,-516.427 479.7249,-521.6479 490.1877,-523.3156 488.9441,-516.427"/>
</g>
<!-- Node89347 -->
<g id="node9" class="node">
<title>Node89347</title>
<g id="a_node9"><a xlink:href="quickjs_8c.html#acc9eb677cab8dfcf45f59381f8a19601" target="_top" xlink:title="js_parse_function_decl2">
<polygon fill="none" stroke="#ff0000" points="572,-559.3952 572,-578.3952 706,-578.3952 706,-559.3952 572,-559.3952"/>
<text text-anchor="middle" x="639" y="-566.3952" font-family="Helvetica,sans-Serif" font-size="10.00" fill="#000000">js_parse_function_decl2</text>
</a>
</g>
</g>
<!-- Node89336&#45;&gt;Node89347 -->
<g id="edge11" class="edge">
<title>Node89336&#45;&gt;Node89347</title>
<path fill="none" stroke="#191970" d="M489.8191,-541.9646C520.3186,-547.4705 556.8162,-554.0591 586.0768,-559.3413"/>
<polygon fill="#191970" stroke="#191970" points="490.1877,-538.4747 479.7249,-540.1424 488.9441,-545.3633 490.1877,-538.4747"/>
</g>
<!-- Node89338 -->
<g id="node6" class="node">
<title>Node89338</title>
<g id="a_node6"><a xlink:href="quickjs_8c.html#a840642c87c5a82d4cc68333376a3b6de" target="_top" xlink:title="js_parse_postfix_expr">
<polygon fill="none" stroke="#ff0000" points="949,-573.3952 949,-592.3952 1071,-592.3952 1071,-573.3952 949,-573.3952"/>
<text text-anchor="middle" x="1010" y="-580.3952" font-family="Helvetica,sans-Serif" font-size="10.00" fill="#000000">js_parse_postfix_expr</text>
</a>
</g>
</g>
<!-- Node89337&#45;&gt;Node89338 -->
<g id="edge5" class="edge">
<title>Node89337&#45;&gt;Node89338</title>
<path fill="none" stroke="#191970" d="M898.0185,-573.4509C914.2693,-574.8215 932.2151,-576.335 948.8912,-577.7414"/>
<polygon fill="#191970" stroke="#191970" points="897.8733,-569.9264 887.6145,-572.5735 897.285,-576.9016 897.8733,-569.9264"/>
</g>
<!-- Node89342 -->
<g id="node7" class="node">
<title>Node89342</title>
<g id="a_node7"><a xlink:href="quickjs_8c.html#a9d844c16dcc71701436848074337d32c" target="_top" xlink:title="js_parse_statement\l_or_decl">
<polygon fill="none" stroke="#ff0000" points="953.5,-503.8952 953.5,-533.8952 1066.5,-533.8952 1066.5,-503.8952 953.5,-503.8952"/>
<text text-anchor="start" x="961.5" y="-521.8952" font-family="Helvetica,sans-Serif" font-size="10.00" fill="#000000">js_parse_statement</text>
<text text-anchor="middle" x="1010" y="-510.8952" font-family="Helvetica,sans-Serif" font-size="10.00" fill="#000000">_or_decl</text>
</a>
</g>
</g>
<!-- Node89337&#45;&gt;Node89342 -->
<g id="edge7" class="edge">
<title>Node89337&#45;&gt;Node89342</title>
<path fill="none" stroke="#191970" d="M885.2489,-556.4708C907.8505,-549.6631 936.0369,-541.1732 959.8964,-533.9866"/>
<polygon fill="#191970" stroke="#191970" points="884.1797,-553.1374 875.6141,-559.3729 886.1986,-559.84 884.1797,-553.1374"/>
</g>
<!-- Node89338&#45;&gt;Node89338 -->
<g id="edge6" class="edge">
<title>Node89338&#45;&gt;Node89338</title>
<path fill="none" stroke="#191970" d="M978.9371,-601.1697C979.8228,-606.6362 990.1771,-610.8952 1010,-610.8952 1039.5039,-610.8952 1048.0324,-601.4604 1035.5854,-592.6522"/>
<polygon fill="#191970" stroke="#191970" points="981.9495,-602.9563 984.4146,-592.6522 976.0618,-599.17 981.9495,-602.9563"/>
</g>
<!-- Node89342&#45;&gt;Node89342 -->
<g id="edge8" class="edge">
<title>Node89342&#45;&gt;Node89342</title>
<path fill="none" stroke="#191970" d="M980.5038,-544.3531C984.1647,-549.0741 993.9968,-552.3952 1010,-552.3952 1036.2617,-552.3952 1045.9047,-543.4517 1038.9289,-534.0542"/>
<polygon fill="#191970" stroke="#191970" points="984.0157,-544.2315 981.0711,-534.0542 977.0263,-543.8465 984.0157,-544.2315"/>
</g>
<!-- Node89341&#45;&gt;Node89342 -->
<g id="edge10" class="edge">
<title>Node89341&#45;&gt;Node89342</title>
<path fill="none" stroke="#191970" d="M688.1188,-496.3374C756.7608,-501.1479 881.0752,-509.86 953.4797,-514.9342"/>
<polygon fill="#191970" stroke="#191970" points="688.2225,-492.8362 678.0023,-495.6285 687.7331,-499.8191 688.2225,-492.8362"/>
</g>
<!-- Node89347&#45;&gt;Node89337 -->
<g id="edge12" class="edge">
<title>Node89347&#45;&gt;Node89337</title>
<path fill="none" stroke="#191970" d="M716.4367,-568.8952C744.8093,-568.8952 775.9113,-568.8952 800.3013,-568.8952"/>
<polygon fill="#191970" stroke="#191970" points="716.1247,-565.3953 706.1247,-568.8952 716.1246,-572.3953 716.1247,-565.3953"/>
</g>
<!-- Node89355 -->
<g id="node12" class="node">
<title>Node89355</title>
<g id="a_node12"><a xlink:href="quickjs_8c.html#ad8aedb643b8753b7a15f6cb2df61945e" target="_top" xlink:title="JS_NewContext">
<polygon fill="none" stroke="#ff0000" points="383,-394.3952 383,-413.3952 474,-413.3952 474,-394.3952 383,-394.3952"/>
<text text-anchor="middle" x="428.5" y="-401.3952" font-family="Helvetica,sans-Serif" font-size="10.00" fill="#000000">JS_NewContext</text>
</a>
</g>
</g>
<!-- Node89378&#45;&gt;Node89355 -->
<g id="edge15" class="edge">
<title>Node89378&#45;&gt;Node89355</title>
<path fill="none" stroke="#191970" d="M305.6437,-411.5922C332.0575,-409.9373 360.1827,-408.1753 382.8484,-406.7553"/>
<polygon fill="#191970" stroke="#191970" points="305.3807,-408.1017 295.6191,-412.2202 305.8184,-415.088 305.3807,-408.1017"/>
</g>
<!-- Node89379&#45;&gt;Node89355 -->
<g id="edge17" class="edge">
<title>Node89379&#45;&gt;Node89355</title>
<path fill="none" stroke="#191970" d="M293.8473,-387.6719C323.4796,-391.2421 356.813,-395.2582 382.9011,-398.4013"/>
<polygon fill="#191970" stroke="#191970" points="293.8851,-384.1513 283.5382,-386.4299 293.0477,-391.101 293.8851,-384.1513"/>
</g>
<!-- Node89380&#45;&gt;Node89355 -->
<g id="edge19" class="edge">
<title>Node89380&#45;&gt;Node89355</title>
<path fill="none" stroke="#191970" d="M298.662,-353.0907C305.3099,-355.0373 311.8413,-357.2898 318,-359.8952 335.9404,-367.4846 336.2803,-376.8039 354,-384.8952 362.9851,-388.998 373.0007,-392.3165 382.7003,-394.9612"/>
<polygon fill="#191970" stroke="#191970" points="299.4348,-349.6742 288.8686,-350.4521 297.6137,-356.4332 299.4348,-349.6742"/>
</g>
<!-- Node89381&#45;&gt;Node89337 -->
<g id="edge21" class="edge">
<title>Node89381&#45;&gt;Node89337</title>
<path fill="none" stroke="#191970" d="M505.8813,-604.6929C568.8383,-602.293 659.8934,-597.439 739,-587.8952 759.323,-585.4433 781.6644,-581.5681 800.4954,-577.9552"/>
<polygon fill="#191970" stroke="#191970" points="505.499,-601.2045 495.635,-605.0713 505.7573,-608.1997 505.499,-601.2045"/>
</g>
<!-- Node89381&#45;&gt;Node89338 -->
<g id="edge22" class="edge">
<title>Node89381&#45;&gt;Node89338</title>
<path fill="none" stroke="#191970" d="M446.6762,-630.1111C466.4899,-653.3492 500.5495,-687.6388 539,-701.8952 622.3446,-732.7969 650.7625,-712.6365 739,-701.8952 818.076,-692.2691 841.3901,-693.7907 913,-658.8952 949.1557,-641.2764 984.5205,-608.5479 1000.757,-592.404"/>
<polygon fill="#191970" stroke="#191970" points="449.1166,-627.5709 440.0392,-622.1073 443.7282,-632.0392 449.1166,-627.5709"/>
</g>
<!-- Node89381&#45;&gt;Node89342 -->
<g id="edge24" class="edge">
<title>Node89381&#45;&gt;Node89342</title>
<path fill="none" stroke="#191970" d="M506.0474,-618.8456C604.3909,-630.6904 777.4655,-640.3397 913,-587.8952 917.2643,-586.2451 962.002,-553.8918 989.2075,-534.0809"/>
<polygon fill="#191970" stroke="#191970" points="506.2478,-615.3436 495.8922,-617.5825 505.3837,-622.2901 506.2478,-615.3436"/>
</g>
<!-- Node89381&#45;&gt;Node89341 -->
<g id="edge23" class="edge">
<title>Node89381&#45;&gt;Node89341</title>
<path fill="none" stroke="#191970" d="M465.4513,-586.8835C511.1905,-562.1126 587.2188,-520.9382 621.4023,-502.4255"/>
<polygon fill="#191970" stroke="#191970" points="463.5793,-583.917 456.4528,-591.7568 466.9128,-590.0723 463.5793,-583.917"/>
</g>
<!-- Node89381&#45;&gt;Node89347 -->
<g id="edge26" class="edge">
<title>Node89381&#45;&gt;Node89347</title>
<path fill="none" stroke="#191970" d="M505.7772,-592.9449C532.4892,-588.1228 561.7931,-582.8327 586.0996,-578.4449"/>
<polygon fill="#191970" stroke="#191970" points="504.9014,-589.5463 495.6823,-594.7672 506.145,-596.435 504.9014,-589.5463"/>
</g>
<!-- Node89382 -->
<g id="node16" class="node">
<title>Node89382</title>
<g id="a_node16"><a xlink:href="quickjs_8c.html#aa24f7964f6d938a05c3c3c03af5a01e9" target="_top" xlink:title="js_parse_import">
<polygon fill="none" stroke="#ff0000" points="591.5,-673.3952 591.5,-692.3952 686.5,-692.3952 686.5,-673.3952 591.5,-673.3952"/>
<text text-anchor="middle" x="639" y="-680.3952" font-family="Helvetica,sans-Serif" font-size="10.00" fill="#000000">js_parse_import</text>
</a>
</g>
</g>
<!-- Node89381&#45;&gt;Node89382 -->
<g id="edge25" class="edge">
<title>Node89381&#45;&gt;Node89382</title>
<path fill="none" stroke="#191970" d="M465.3903,-626.579C486.4988,-637.2467 513.7325,-650.0226 539,-658.8952 555.7615,-664.7809 574.6001,-669.7169 591.3692,-673.5524"/>
<polygon fill="#191970" stroke="#191970" points="466.9441,-623.4426 456.4478,-622.0012 463.7543,-629.6736 466.9441,-623.4426"/>
</g>
<!-- Node89384 -->
<g id="node18" class="node">
<title>Node89384</title>
<g id="a_node18"><a xlink:href="quickjs_8c.html#ad12b6863ca31850fc39d208bb865420e" target="_top" xlink:title="js_build_module_ns">
<polygon fill="none" stroke="#ff0000" points="372,-300.3952 372,-319.3952 485,-319.3952 485,-300.3952 372,-300.3952"/>
<text text-anchor="middle" x="428.5" y="-307.3952" font-family="Helvetica,sans-Serif" font-size="10.00" fill="#000000">js_build_module_ns</text>
</a>
</g>
</g>
<!-- Node89383&#45;&gt;Node89384 -->
<g id="edge28" class="edge">
<title>Node89383&#45;&gt;Node89384</title>
<path fill="none" stroke="#191970" d="M299.3924,-301.8065C323.4173,-303.3117 349.3747,-304.9379 371.67,-306.3347"/>
<polygon fill="#191970" stroke="#191970" points="299.43,-298.3021 289.2307,-301.1699 298.9922,-305.2884 299.43,-298.3021"/>
</g>
<!-- Node89386 -->
<g id="node19" class="node">
<title>Node89386</title>
<g id="a_node19"><a xlink:href="quickjs_8c.html#adc0280beaa04d2b8fcaf05a82ab26c74" target="_top" xlink:title="js_link_module">
<polygon fill="none" stroke="#ff0000" points="383.5,-338.3952 383.5,-357.3952 473.5,-357.3952 473.5,-338.3952 383.5,-338.3952"/>
<text text-anchor="middle" x="428.5" y="-345.3952" font-family="Helvetica,sans-Serif" font-size="10.00" fill="#000000">js_link_module</text>
</a>
</g>
</g>
<!-- Node89383&#45;&gt;Node89386 -->
<g id="edge29" class="edge">
<title>Node89383&#45;&gt;Node89386</title>
<path fill="none" stroke="#191970" d="M292.1061,-314.3718C324.7876,-322.4044 362.281,-331.6196 389.6763,-338.3529"/>
<polygon fill="#191970" stroke="#191970" points="292.6809,-310.909 282.1345,-311.921 291.0101,-317.7067 292.6809,-310.909"/>
</g>
<!-- Node89386&#45;&gt;Node89386 -->
<g id="edge30" class="edge">
<title>Node89386&#45;&gt;Node89386</title>
<path fill="none" stroke="#191970" d="M389.8936,-365.009C389.3154,-371.0212 402.1842,-375.8952 428.5,-375.8952 465.1133,-375.8952 475.6968,-366.4604 460.2506,-357.6522"/>
<polygon fill="#191970" stroke="#191970" points="392.4923,-367.3542 396.7494,-357.6522 387.3713,-362.5819 392.4923,-367.3542"/>
</g>
<!-- Node89668 -->
<g id="node21" class="node">
<title>Node89668</title>
<g id="a_node21"><a xlink:href="quickjs_8c.html#a5762c57ae0c9937e986040c01222833a" target="_top" xlink:title="JS_GetPropertyInternal">
<polygon fill="none" stroke="#ff0000" points="365,-72.3952 365,-91.3952 492,-91.3952 492,-72.3952 365,-72.3952"/>
<text text-anchor="middle" x="428.5" y="-79.3952" font-family="Helvetica,sans-Serif" font-size="10.00" fill="#000000">JS_GetPropertyInternal</text>
</a>
</g>
</g>
<!-- Node89953&#45;&gt;Node89668 -->
<g id="edge32" class="edge">
<title>Node89953&#45;&gt;Node89668</title>
<path fill="none" stroke="#191970" d="M306.3384,-81.8952C325.9019,-81.8952 346.3676,-81.8952 364.8319,-81.8952"/>
<polygon fill="#191970" stroke="#191970" points="306.2057,-78.3953 296.2056,-81.8952 306.2056,-85.3953 306.2057,-78.3953"/>
</g>
<!-- Node89393 -->
<g id="node23" class="node">
<title>Node89393</title>
<g id="a_node23"><a xlink:href="quickjs_8c.html#ac2894ff4edcdb4e6841bcce9c76081e3" target="_top" xlink:title="JS_CallInternal">
<polygon fill="none" stroke="#ff0000" points="800.5,-91.3952 800.5,-110.3952 887.5,-110.3952 887.5,-91.3952 800.5,-91.3952"/>
<text text-anchor="middle" x="844" y="-98.3952" font-family="Helvetica,sans-Serif" font-size="10.00" fill="#000000">JS_CallInternal</text>
</a>
</g>
</g>
<!-- Node89953&#45;&gt;Node89393 -->
<g id="edge39" class="edge">
<title>Node89953&#45;&gt;Node89393</title>
<path fill="none" stroke="#191970" d="M289.3967,-64.3139C321.0736,-56.1881 352.1895,-48.2377 354,-47.8952 522.4283,-16.0295 575.9262,27.9293 739,-24.8952 779.8894,-38.1405 818.213,-73.9271 835.0382,-91.2462"/>
<polygon fill="#191970" stroke="#191970" points="288.3959,-60.9572 279.5798,-66.8331 290.1359,-67.7375 288.3959,-60.9572"/>
</g>
<!-- Node89501 -->
<g id="node24" class="node">
<title>Node89501</title>
<g id="a_node24"><a xlink:href="quickjs_8c.html#ad7f03358a8088ca920ab308225c6b2e6" target="_top" xlink:title="JS_SetPropertyInternal">
<polygon fill="none" stroke="#ff0000" points="576.5,-34.3952 576.5,-53.3952 701.5,-53.3952 701.5,-34.3952 576.5,-34.3952"/>
<text text-anchor="middle" x="639" y="-41.3952" font-family="Helvetica,sans-Serif" font-size="10.00" fill="#000000">JS_SetPropertyInternal</text>
</a>
</g>
</g>
<!-- Node89953&#45;&gt;Node89501 -->
<g id="edge37" class="edge">
<title>Node89953&#45;&gt;Node89501</title>
<path fill="none" stroke="#191970" d="M306.4187,-68.7229C322.2135,-66.5631 338.5859,-64.5077 354,-62.8952 430.3225,-54.9109 518.5144,-49.6367 576.3367,-46.7137"/>
<polygon fill="#191970" stroke="#191970" points="305.5605,-65.3085 296.1385,-70.1536 306.5255,-72.2416 305.5605,-65.3085"/>
</g>
<!-- Node89936 -->
<g id="node22" class="node">
<title>Node89936</title>
<g id="a_node22"><a xlink:href="quickjs_8c.html#a0e8d8152892d3235c94ec6df17c87d13" target="_top" xlink:title="JS_GetGlobalVar">
<polygon fill="none" stroke="#000000" points="591.5,-110.3952 591.5,-129.3952 686.5,-129.3952 686.5,-110.3952 591.5,-110.3952"/>
<text text-anchor="middle" x="639" y="-117.3952" font-family="Helvetica,sans-Serif" font-size="10.00" fill="#000000">JS_GetGlobalVar</text>
</a>
</g>
</g>
<!-- Node89668&#45;&gt;Node89936 -->
<g id="edge33" class="edge">
<title>Node89668&#45;&gt;Node89936</title>
<path fill="none" stroke="#191970" d="M491.4865,-93.2656C523.4514,-99.036 561.6531,-105.9323 591.1711,-111.261"/>
<polygon fill="#191970" stroke="#191970" points="491.8091,-89.7674 481.3463,-91.4351 490.5655,-96.656 491.8091,-89.7674"/>
</g>
<!-- Node89668&#45;&gt;Node89393 -->
<g id="edge36" class="edge">
<title>Node89668&#45;&gt;Node89393</title>
<path fill="none" stroke="#191970" d="M502.0824,-85.2599C588.6951,-89.2206 729.6779,-95.6674 800.4955,-98.9058"/>
<polygon fill="#191970" stroke="#191970" points="502.2073,-81.7621 492.0578,-84.8015 501.8874,-88.7548 502.2073,-81.7621"/>
</g>
<!-- Node89936&#45;&gt;Node89393 -->
<g id="edge34" class="edge">
<title>Node89936&#45;&gt;Node89393</title>
<path fill="none" stroke="#191970" d="M696.9065,-114.5282C729.7039,-111.4885 770.0677,-107.7474 800.211,-104.9537"/>
<polygon fill="#191970" stroke="#191970" points="696.1807,-111.0804 686.5464,-115.4884 696.8267,-118.0505 696.1807,-111.0804"/>
</g>
<!-- Node89393&#45;&gt;Node89393 -->
<g id="edge35" class="edge">
<title>Node89393&#45;&gt;Node89393</title>
<path fill="none" stroke="#191970" d="M812.9371,-119.1697C813.8228,-124.6362 824.1771,-128.8952 844,-128.8952 873.5039,-128.8952 882.0324,-119.4604 869.5854,-110.6522"/>
<polygon fill="#191970" stroke="#191970" points="815.9495,-120.9563 818.4146,-110.6522 810.0618,-117.17 815.9495,-120.9563"/>
</g>
<!-- Node89501&#45;&gt;Node89393 -->
<g id="edge38" class="edge">
<title>Node89501&#45;&gt;Node89393</title>
<path fill="none" stroke="#191970" d="M691.3792,-55.7472C706.7772,-59.425 723.6144,-63.6366 739,-67.8952 764.9663,-75.0823 794.1819,-84.3633 815.1904,-91.2513"/>
<polygon fill="#191970" stroke="#191970" points="692.0351,-52.3058 681.4982,-53.4122 690.4252,-59.1182 692.0351,-52.3058"/>
</g>
<!-- Node89954&#45;&gt;Node89668 -->
<g id="edge43" class="edge">
<title>Node89954&#45;&gt;Node89668</title>
<path fill="none" stroke="#191970" d="M240.746,-179.8814C265.8014,-160.2066 310.9514,-126.8644 354,-105.8952 365.8499,-100.123 379.4157,-95.2794 391.6959,-91.4893"/>
<polygon fill="#191970" stroke="#191970" points="238.4103,-177.2668 232.758,-186.228 242.7649,-182.7476 238.4103,-177.2668"/>
</g>
<!-- Node89954&#45;&gt;Node89936 -->
<g id="edge47" class="edge">
<title>Node89954&#45;&gt;Node89936</title>
<path fill="none" stroke="#191970" d="M266.7371,-183.899C292.2955,-177.4457 324.7903,-169.6536 354,-163.8952 437.0127,-147.5299 534.6275,-133.5964 591.3876,-126.0161"/>
<polygon fill="#191970" stroke="#191970" points="265.7772,-180.5316 256.9495,-186.3902 267.5039,-187.3153 265.7772,-180.5316"/>
</g>
<!-- Node89954&#45;&gt;Node89393 -->
<g id="edge48" class="edge">
<title>Node89954&#45;&gt;Node89393</title>
<path fill="none" stroke="#191970" d="M253.6176,-209.0182C338.6274,-241.0404 571.9611,-314.8425 739,-233.8952 793.8011,-207.3384 828.6301,-136.7703 839.9553,-110.7289"/>
<polygon fill="#191970" stroke="#191970" points="254.8213,-205.7314 244.2309,-205.4233 252.3177,-212.2684 254.8213,-205.7314"/>
</g>
<!-- Node89955 -->
<g id="node26" class="node">
<title>Node89955</title>
<g id="a_node26"><a xlink:href="quickjs_8c.html#a99f9e5cb113b94e2dde9891f324e547d" target="_top" xlink:title="JS_ThrowReferenceErrorUninitialized2">
<polygon fill="none" stroke="#000000" points="539,-205.3952 539,-224.3952 739,-224.3952 739,-205.3952 539,-205.3952"/>
<text text-anchor="middle" x="639" y="-212.3952" font-family="Helvetica,sans-Serif" font-size="10.00" fill="#000000">JS_ThrowReferenceErrorUninitialized2</text>
</a>
</g>
</g>
<!-- Node89954&#45;&gt;Node89955 -->
<g id="edge41" class="edge">
<title>Node89954&#45;&gt;Node89955</title>
<path fill="none" stroke="#191970" d="M285.2793,-206.9542C307.0297,-210.1951 331.5047,-213.2965 354,-214.8952 415.3232,-219.2533 484.2561,-219.3809 538.9663,-218.3581"/>
<polygon fill="#191970" stroke="#191970" points="285.5831,-203.4601 275.1691,-205.4093 284.5257,-210.3797 285.5831,-203.4601"/>
</g>
<!-- Node89682 -->
<g id="node27" class="node">
<title>Node89682</title>
<g id="a_node27"><a xlink:href="quickjs_8c.html#a176ac5ff56a118a0b1b2566798d28823" target="_top" xlink:title="JS_GetOwnPropertyNamesInternal">
<polygon fill="none" stroke="#ff0000" points="547.5,-157.3952 547.5,-176.3952 730.5,-176.3952 730.5,-157.3952 547.5,-157.3952"/>
<text text-anchor="middle" x="639" y="-164.3952" font-family="Helvetica,sans-Serif" font-size="10.00" fill="#000000">JS_GetOwnPropertyNamesInternal</text>
</a>
</g>
</g>
<!-- Node89954&#45;&gt;Node89682 -->
<g id="edge44" class="edge">
<title>Node89954&#45;&gt;Node89682</title>
<path fill="none" stroke="#191970" d="M288.2371,-184.8658C309.2436,-181.8035 332.5363,-178.7994 354,-176.8952 418.4806,-171.1746 491.4397,-168.689 547.3963,-167.626"/>
<polygon fill="#191970" stroke="#191970" points="287.5029,-181.4364 278.1265,-186.3692 288.5325,-188.3603 287.5029,-181.4364"/>
</g>
<!-- Node89680 -->
<g id="node28" class="node">
<title>Node89680</title>
<g id="a_node28"><a xlink:href="quickjs_8c.html#ad13892c0a0f11781b566808876658099" target="_top" xlink:title="JS_GetOwnPropertyInternal">
<polygon fill="none" stroke="#ff0000" points="354,-186.3952 354,-205.3952 503,-205.3952 503,-186.3952 354,-186.3952"/>
<text text-anchor="middle" x="428.5" y="-193.3952" font-family="Helvetica,sans-Serif" font-size="10.00" fill="#000000">JS_GetOwnPropertyInternal</text>
</a>
</g>
</g>
<!-- Node89954&#45;&gt;Node89680 -->
<g id="edge45" class="edge">
<title>Node89954&#45;&gt;Node89680</title>
<path fill="none" stroke="#191970" d="M328.2267,-195.8952C336.8809,-195.8952 345.5028,-195.8952 353.8511,-195.8952"/>
<polygon fill="#191970" stroke="#191970" points="328.0671,-192.3953 318.0671,-195.8952 328.0671,-199.3953 328.0671,-192.3953"/>
</g>
<!-- Node89955&#45;&gt;Node89393 -->
<g id="edge42" class="edge">
<title>Node89955&#45;&gt;Node89393</title>
<path fill="none" stroke="#191970" d="M695.9148,-202.6242C710.4118,-198.3697 725.6566,-192.8654 739,-185.8952 778.7053,-165.154 817.6117,-128.0468 834.8091,-110.5404"/>
<polygon fill="#191970" stroke="#191970" points="694.7273,-199.3215 686.0304,-205.3725 696.6025,-206.0657 694.7273,-199.3215"/>
</g>
<!-- Node89680&#45;&gt;Node89682 -->
<g id="edge46" class="edge">
<title>Node89680&#45;&gt;Node89682</title>
<path fill="none" stroke="#191970" d="M507.8944,-184.9572C528.2374,-182.1546 549.9541,-179.1628 569.7413,-176.4367"/>
<polygon fill="#191970" stroke="#191970" points="507.1459,-181.5272 497.7171,-186.3593 508.1013,-188.4617 507.1459,-181.5272"/>
</g>
<!-- Node89956&#45;&gt;Node89342 -->
<g id="edge50" class="edge">
<title>Node89956&#45;&gt;Node89342</title>
<path fill="none" stroke="#191970" d="M887.0867,-483.354C908.7322,-489.6129 935.1309,-497.2463 957.9071,-503.8322"/>
<polygon fill="#191970" stroke="#191970" points="887.7723,-479.9089 877.1936,-480.4933 885.8278,-486.6334 887.7723,-479.9089"/>
</g>
</g>
</svg>
        <g id="navigator" transform="translate(0 0)" fill="#404254">
                <rect fill="#f2f5e9" fill-opacity="0.5" stroke="#606060" stroke-width=".5" x="0" y="0" width="60" height="60"/>
                <use id="zoomplus" xlink:href="#zoomPlus" x="17" y="9" onmousedown="handleZoom(evt,'in')"/>
                <use id="zoomminus" xlink:href="#zoomMin" x="42" y="9" onmousedown="handleZoom(evt,'out')"/>
                <use id="reset" xlink:href="#resetDef" x="30" y="36" onmousedown="handleReset()"/>
                <g id="arrowUp" xlink:href="#dirArrow" transform="translate(30 24)" onmousedown="handlePan(0,-1)">
                  <use xlink:href="#rim" fill="#404040">
                        <set attributeName="fill" to="#808080" begin="arrowUp.mouseover" end="arrowUp.mouseout"/>
                  </use>
                  <path fill="none" stroke="white" stroke-width="1.5" d="M0,-3.0v7 M-2.5,-0.5L0,-3.0L2.5,-0.5"/>
                </g>
                <g id="arrowRight" xlink:href="#dirArrow" transform="rotate(90) translate(36 -43)" onmousedown="handlePan(1,0)">
                  <use xlink:href="#rim" fill="#404040">
                        <set attributeName="fill" to="#808080" begin="arrowRight.mouseover" end="arrowRight.mouseout"/>
                  </use>
                  <path fill="none" stroke="white" stroke-width="1.5" d="M0,-3.0v7 M-2.5,-0.5L0,-3.0L2.5,-0.5"/>
                </g>
                <g id="arrowDown" xlink:href="#dirArrow" transform="rotate(180) translate(-30 -48)" onmousedown="handlePan(0,1)">
                  <use xlink:href="#rim" fill="#404040">
                        <set attributeName="fill" to="#808080" begin="arrowDown.mouseover" end="arrowDown.mouseout"/>
                  </use>
                  <path fill="none" stroke="white" stroke-width="1.5" d="M0,-3.0v7 M-2.5,-0.5L0,-3.0L2.5,-0.5"/>
                </g>
                <g id="arrowLeft" xlink:href="#dirArrow" transform="rotate(270) translate(-36 17)" onmousedown="handlePan(-1,0)">
                  <use xlink:href="#rim" fill="#404040">
                        <set attributeName="fill" to="#808080" begin="arrowLeft.mouseover" end="arrowLeft.mouseout"/>
                  </use>
                  <path fill="none" stroke="white" stroke-width="1.5" d="M0,-3.0v7 M-2.5,-0.5L0,-3.0L2.5,-0.5"/>
                </g>
        </g>
        <svg viewBox="0 0 15 15" width="100%" height="30px" preserveAspectRatio="xMaxYMin meet">
         <g id="arrow_out" transform="scale(0.3 0.3)">
          <a xlink:href="quickjs_8c_ab18048ab5eea3e47109a5473f78515bc_icgraph_org.svg" target="_base">
           <rect id="button" ry="5" rx="5" y="6" x="6" height="38" width="38"
                fill="#f2f5e9" fill-opacity="0.5" stroke="#606060" stroke-width="1.0"/>
           <path id="arrow"
             d="M 11.500037,31.436501 C 11.940474,20.09759 22.043105,11.32322 32.158766,21.979434 L 37.068811,17.246167 C 37.068811,17.246167 37.088388,32 37.088388,32 L 22.160133,31.978069 C 22.160133,31.978069 26.997745,27.140456 26.997745,27.140456 C 18.528582,18.264221 13.291696,25.230495 11.500037,31.436501 z"
             style="fill:#404040;"/>
          </a>
         </g>
        </svg>
</svg>
