<?xml version="1.0" encoding="UTF-8" standalone="no"?>
<!DOCTYPE svg PUBLIC "-//W3C//DTD SVG 1.1//EN"
 "http://www.w3.org/Graphics/SVG/1.1/DTD/svg11.dtd">
<!-- Generated by graphviz version 2.40.1 (20161225.0304)
 -->
<!-- Title: js_json_check Pages: 1 -->
<!--zoomable 1122 -->
<svg id="main" version="1.1" xmlns="http://www.w3.org/2000/svg" xmlns:xlink="http://www.w3.org/1999/xlink" xml:space="preserve" onload="init(evt)">
<style type="text/css"><![CDATA[
.edge:hover path { stroke: red; }
.edge:hover polygon { stroke: red; fill: red; }
]]></style>
<script type="text/javascript"><![CDATA[
var edges = document.getElementsByTagName('g');
if (edges && edges.length) {
  for (var i=0;i<edges.length;i++) {
    if (edges[i].id.substr(0,4)=='edge') {
      edges[i].setAttribute('class','edge');
    }
  }
}
]]></script>
        <defs>
                <circle id="rim" cx="0" cy="0" r="7"/>
                <circle id="rim2" cx="0" cy="0" r="3.5"/>
                <g id="zoomPlus">
                        <use xlink:href="#rim" fill="#404040">
                                <set attributeName="fill" to="#808080" begin="zoomplus.mouseover" end="zoomplus.mouseout"/>
                        </use>
                        <path d="M-4,0h8M0,-4v8" fill="none" stroke="white" stroke-width="1.5" pointer-events="none"/>
                </g>
                <g id="zoomMin">
                        <use xlink:href="#rim" fill="#404040">
                                <set attributeName="fill" to="#808080" begin="zoomminus.mouseover" end="zoomminus.mouseout"/>
                        </use>
                        <path d="M-4,0h8" fill="none" stroke="white" stroke-width="1.5" pointer-events="none"/>
                </g>
                <g id="dirArrow">
                        <path fill="none" stroke="white" stroke-width="1.5" d="M0,-3.0v7 M-2.5,-0.5L0,-3.0L2.5,-0.5"/>
                </g>
               <g id="resetDef">
                       <use xlink:href="#rim2" fill="#404040">
                               <set attributeName="fill" to="#808080" begin="reset.mouseover" end="reset.mouseout"/>
                       </use>
               </g>
        </defs>

<script type="text/javascript">
var viewWidth = 874;
var viewHeight = 1122;
var sectionId = 'dynsection-1649';
</script>
<script xlink:href="svgpan.js"/>
<svg id="graph" class="graph">
<g id="viewport">
<title>js_json_check</title>
<!-- Node441738 -->
<g id="node1" class="node">
<title>Node441738</title>
<polygon fill="#bfbfbf" stroke="#000000" points="0,-323.5 0,-342.5 84,-342.5 84,-323.5 0,-323.5"/>
<text text-anchor="middle" x="42" y="-330.5" font-family="Helvetica,sans-Serif" font-size="10.00" fill="#000000">js_json_check</text>
</g>
<!-- Node441739 -->
<g id="node2" class="node">
<title>Node441739</title>
<g id="a_node2"><a xlink:href="quickjs_8c.html#a1a4c02a29525d5cb2085dd8bca3af350" target="_top" xlink:title="JS_Call">
<polygon fill="none" stroke="#000000" points="135,-532.5 135,-551.5 185,-551.5 185,-532.5 135,-532.5"/>
<text text-anchor="middle" x="160" y="-539.5" font-family="Helvetica,sans-Serif" font-size="10.00" fill="#000000">JS_Call</text>
</a>
</g>
</g>
<!-- Node441738&#45;&gt;Node441739 -->
<g id="edge1" class="edge">
<title>Node441738&#45;&gt;Node441739</title>
<path fill="none" stroke="#191970" d="M47.3768,-342.5234C65.6139,-374.8247 125.3279,-480.5893 149.6009,-523.5812"/>
<polygon fill="#191970" stroke="#191970" points="146.6273,-525.4335 154.5916,-532.4207 152.7229,-521.9919 146.6273,-525.4335"/>
</g>
<!-- Node441793 -->
<g id="node10" class="node">
<title>Node441793</title>
<g id="a_node10"><a xlink:href="quickjs_8h.html#afaa20c47565bc704c6c85f3d77254e7d" target="_top" xlink:title="JS_FreeValue">
<polygon fill="none" stroke="#ff0000" points="788,-574.5 788,-593.5 866,-593.5 866,-574.5 788,-574.5"/>
<text text-anchor="middle" x="827" y="-581.5" font-family="Helvetica,sans-Serif" font-size="10.00" fill="#000000">JS_FreeValue</text>
</a>
</g>
</g>
<!-- Node441738&#45;&gt;Node441793 -->
<g id="edge42" class="edge">
<title>Node441738&#45;&gt;Node441793</title>
<path fill="none" stroke="#191970" d="M42.3431,-342.6349C45.3817,-425.576 68.79,-1017.404 120,-1075 168.2878,-1129.3095 206.8279,-1111 279.5,-1111 279.5,-1111 279.5,-1111 582.5,-1111 683.6873,-1111 709.3449,-1050.7573 752,-959 810.6522,-832.8307 823.537,-661.9348 826.2816,-604.0865"/>
<polygon fill="#191970" stroke="#191970" points="829.7912,-603.9304 826.7161,-593.7916 822.7974,-603.6351 829.7912,-603.9304"/>
</g>
<!-- Node441811 -->
<g id="node11" class="node">
<title>Node441811</title>
<g id="a_node11"><a xlink:href="quickjs_8h.html#ad80a83d73e9b7d872b88fbf2943aebe9" target="_top" xlink:title="JS_IsException">
<polygon fill="none" stroke="#000000" points="539,-190.5 539,-209.5 626,-209.5 626,-190.5 539,-190.5"/>
<text text-anchor="middle" x="582.5" y="-197.5" font-family="Helvetica,sans-Serif" font-size="10.00" fill="#000000">JS_IsException</text>
</a>
</g>
</g>
<!-- Node441738&#45;&gt;Node441811 -->
<g id="edge44" class="edge">
<title>Node441738&#45;&gt;Node441811</title>
<path fill="none" stroke="#191970" d="M48.2549,-323.2284C77.0105,-279.4006 201.8546,-100.7898 359,-48 411.2422,-30.4503 434.5195,-21.7916 483,-48 535.8256,-76.5574 565.112,-146.713 576.6533,-180.7952"/>
<polygon fill="#191970" stroke="#191970" points="573.3815,-182.0535 579.7842,-190.4949 580.0431,-179.9032 573.3815,-182.0535"/>
</g>
<!-- Node441860 -->
<g id="node25" class="node">
<title>Node441860</title>
<g id="a_node25"><a xlink:href="quickjs_8c.html#a75f6ee5e4235a7dc99889f3d2eb2c147" target="_top" xlink:title="JS_CallFree">
<polygon fill="none" stroke="#000000" points="682,-750.5 682,-769.5 752,-769.5 752,-750.5 682,-750.5"/>
<text text-anchor="middle" x="717" y="-757.5" font-family="Helvetica,sans-Serif" font-size="10.00" fill="#000000">JS_CallFree</text>
</a>
</g>
</g>
<!-- Node441738&#45;&gt;Node441860 -->
<g id="edge41" class="edge">
<title>Node441738&#45;&gt;Node441860</title>
<path fill="none" stroke="#191970" d="M43.0565,-342.6565C52.5389,-426.9728 126.2326,-1035 279.5,-1035 279.5,-1035 279.5,-1035 421,-1035 571.8307,-1035 678.1152,-840.9793 708.2719,-778.8765"/>
<polygon fill="#191970" stroke="#191970" points="711.4604,-780.3213 712.5951,-769.7874 705.139,-777.3145 711.4604,-780.3213"/>
</g>
<!-- Node441804 -->
<g id="node26" class="node">
<title>Node441804</title>
<g id="a_node26"><a xlink:href="quickjs_8h.html#a89b7c8686c7eee70b86be722ee4730ad" target="_top" xlink:title="JS_GetProperty">
<polygon fill="none" stroke="#000000" points="376.5,-1063.5 376.5,-1082.5 465.5,-1082.5 465.5,-1063.5 376.5,-1063.5"/>
<text text-anchor="middle" x="421" y="-1070.5" font-family="Helvetica,sans-Serif" font-size="10.00" fill="#000000">JS_GetProperty</text>
</a>
</g>
</g>
<!-- Node441738&#45;&gt;Node441804 -->
<g id="edge43" class="edge">
<title>Node441738&#45;&gt;Node441804</title>
<path fill="none" stroke="#191970" d="M42.3199,-342.608C45.1241,-424.0634 66.6919,-997.213 120,-1049 153.8713,-1081.9048 289.1448,-1080.3823 366.3206,-1076.5924"/>
<polygon fill="#191970" stroke="#191970" points="366.5451,-1080.0856 376.3499,-1076.0712 366.1817,-1073.095 366.5451,-1080.0856"/>
</g>
<!-- Node442023 -->
<g id="node28" class="node">
<title>Node442023</title>
<g id="a_node28"><a xlink:href="quickjs_8h.html#a3d68fe446df2d9c7d1900b16371bff5b" target="_top" xlink:title="JS_IsObject">
<polygon fill="none" stroke="#000000" points="385.5,-95.5 385.5,-114.5 456.5,-114.5 456.5,-95.5 385.5,-95.5"/>
<text text-anchor="middle" x="421" y="-102.5" font-family="Helvetica,sans-Serif" font-size="10.00" fill="#000000">JS_IsObject</text>
</a>
</g>
</g>
<!-- Node441738&#45;&gt;Node442023 -->
<g id="edge46" class="edge">
<title>Node441738&#45;&gt;Node442023</title>
<path fill="none" stroke="#191970" d="M56.61,-323.4031C101.2253,-294.2199 239.9077,-204.4175 359,-137 369.7339,-130.9236 381.7381,-124.6182 392.3038,-119.2274"/>
<polygon fill="#191970" stroke="#191970" points="394.1791,-122.2013 401.5249,-114.5665 391.0213,-115.954 394.1791,-122.2013"/>
</g>
<!-- Node441863 -->
<g id="node29" class="node">
<title>Node441863</title>
<g id="a_node29"><a xlink:href="quickjs_8h.html#a4e407128a9605afb77523e49e9a627fd" target="_top" xlink:title="JS_IsUndefined">
<polygon fill="none" stroke="#000000" points="376.5,-57.5 376.5,-76.5 465.5,-76.5 465.5,-57.5 376.5,-57.5"/>
<text text-anchor="middle" x="421" y="-64.5" font-family="Helvetica,sans-Serif" font-size="10.00" fill="#000000">JS_IsUndefined</text>
</a>
</g>
</g>
<!-- Node441738&#45;&gt;Node441863 -->
<g id="edge47" class="edge">
<title>Node441738&#45;&gt;Node441863</title>
<path fill="none" stroke="#191970" d="M47.6936,-323.2126C59.4058,-303.6484 87.8167,-259.0192 120,-229 210.5189,-144.5678 245.0451,-134.34 359,-86 364.378,-83.7187 370.1231,-81.5815 375.8656,-79.6238"/>
<polygon fill="#191970" stroke="#191970" points="377.0335,-82.9246 385.4619,-76.5049 374.8697,-76.2673 377.0335,-82.9246"/>
</g>
<!-- Node441861 -->
<g id="node30" class="node">
<title>Node441861</title>
<g id="a_node30"><a xlink:href="quickjs_8c.html#a1ca9cdb1fa2ffc3e6506e92b200e490f" target="_top" xlink:title="JS_IsFunction">
<polygon fill="none" stroke="#000000" points="120,-.5 120,-19.5 200,-19.5 200,-.5 120,-.5"/>
<text text-anchor="middle" x="160" y="-7.5" font-family="Helvetica,sans-Serif" font-size="10.00" fill="#000000">JS_IsFunction</text>
</a>
</g>
</g>
<!-- Node441738&#45;&gt;Node441861 -->
<g id="edge45" class="edge">
<title>Node441738&#45;&gt;Node441861</title>
<path fill="none" stroke="#191970" d="M43.5137,-323.3406C50.8393,-277.5346 83.7428,-82.4157 120,-34 122.4424,-30.7386 125.4698,-27.8321 128.7579,-25.267"/>
<polygon fill="#191970" stroke="#191970" points="130.9023,-28.044 137.2836,-19.5864 127.021,-22.2186 130.9023,-28.044"/>
</g>
<!-- Node441740 -->
<g id="node3" class="node">
<title>Node441740</title>
<g id="a_node3"><a xlink:href="quickjs_8c.html#ac2894ff4edcdb4e6841bcce9c76081e3" target="_top" xlink:title="JS_CallInternal">
<polygon fill="none" stroke="#ff0000" points="236,-532.5 236,-551.5 323,-551.5 323,-532.5 236,-532.5"/>
<text text-anchor="middle" x="279.5" y="-539.5" font-family="Helvetica,sans-Serif" font-size="10.00" fill="#000000">JS_CallInternal</text>
</a>
</g>
</g>
<!-- Node441739&#45;&gt;Node441740 -->
<g id="edge2" class="edge">
<title>Node441739&#45;&gt;Node441740</title>
<path fill="none" stroke="#191970" d="M185.0511,-536.3855C196.8367,-535.5102 211.3786,-535.1409 225.4896,-535.2778"/>
<polygon fill="#191970" stroke="#191970" points="225.5793,-538.7799 235.6428,-535.4669 225.7097,-531.7812 225.5793,-538.7799"/>
</g>
<!-- Node441740&#45;&gt;Node441739 -->
<g id="edge27" class="edge">
<title>Node441740&#45;&gt;Node441739</title>
<path fill="none" stroke="#191970" d="M235.6428,-548.5331C222.3282,-548.9045 207.8783,-548.7989 195.2097,-548.2162"/>
<polygon fill="#191970" stroke="#191970" points="195.2406,-544.7119 185.0511,-547.6145 194.8266,-551.6997 195.2406,-544.7119"/>
</g>
<!-- Node441740&#45;&gt;Node441740 -->
<g id="edge31" class="edge">
<title>Node441740&#45;&gt;Node441740</title>
<path fill="none" stroke="#191970" d="M261.3128,-551.7571C252.4649,-560.5653 258.5273,-570 279.5,-570 292.9356,-570 300.252,-566.128 301.4493,-561.0292"/>
<polygon fill="#191970" stroke="#191970" points="304.6902,-559.7074 297.6872,-551.7571 298.2038,-562.3393 304.6902,-559.7074"/>
</g>
<!-- Node441741 -->
<g id="node4" class="node">
<title>Node441741</title>
<g id="a_node4"><a xlink:href="quickjs_8c.html#a853f0924d441ea4225488f37c8b69f9a" target="_top" xlink:title="__attribute__">
<polygon fill="none" stroke="#000000" points="381,-551.5 381,-570.5 461,-570.5 461,-551.5 381,-551.5"/>
<text text-anchor="middle" x="421" y="-558.5" font-family="Helvetica,sans-Serif" font-size="10.00" fill="#000000">__attribute__</text>
</a>
</g>
</g>
<!-- Node441740&#45;&gt;Node441741 -->
<g id="edge3" class="edge">
<title>Node441740&#45;&gt;Node441741</title>
<path fill="none" stroke="#191970" d="M323.1093,-547.8557C338.1636,-549.8771 355.1503,-552.158 370.6962,-554.2454"/>
<polygon fill="#191970" stroke="#191970" points="370.2924,-557.7225 380.6692,-555.5846 371.224,-550.7848 370.2924,-557.7225"/>
</g>
<!-- Node441742 -->
<g id="node5" class="node">
<title>Node441742</title>
<g id="a_node5"><a xlink:href="quickjs_8c.html#a877fcb7651d95b411ce70e62b7f4a1f0" target="_top" xlink:title="__JS_AtomFromUInt32">
<polygon fill="none" stroke="#000000" points="359,-513.5 359,-532.5 483,-532.5 483,-513.5 359,-513.5"/>
<text text-anchor="middle" x="421" y="-520.5" font-family="Helvetica,sans-Serif" font-size="10.00" fill="#000000">__JS_AtomFromUInt32</text>
</a>
</g>
</g>
<!-- Node441740&#45;&gt;Node441742 -->
<g id="edge4" class="edge">
<title>Node441740&#45;&gt;Node441742</title>
<path fill="none" stroke="#191970" d="M323.1093,-536.1443C331.3102,-535.0432 340.0845,-533.865 348.887,-532.683"/>
<polygon fill="#191970" stroke="#191970" points="349.3629,-536.1506 358.8082,-531.3508 348.4313,-529.2129 349.3629,-536.1506"/>
</g>
<!-- Node441743 -->
<g id="node6" class="node">
<title>Node441743</title>
<g id="a_node6"><a xlink:href="quickjs_8h.html#a9bf98b18de88b4199910a43e933eb97d" target="_top" xlink:title="__JS_NewFloat64">
<polygon fill="none" stroke="#000000" points="371.5,-475.5 371.5,-494.5 470.5,-494.5 470.5,-475.5 371.5,-475.5"/>
<text text-anchor="middle" x="421" y="-482.5" font-family="Helvetica,sans-Serif" font-size="10.00" fill="#000000">__JS_NewFloat64</text>
</a>
</g>
</g>
<!-- Node441740&#45;&gt;Node441743 -->
<g id="edge5" class="edge">
<title>Node441740&#45;&gt;Node441743</title>
<path fill="none" stroke="#191970" d="M297.4745,-532.4617C313.3701,-524.257 337.3347,-512.4437 359,-504 364.6447,-501.8001 370.6558,-499.6855 376.6299,-497.7176"/>
<polygon fill="#191970" stroke="#191970" points="378.1082,-500.9203 386.5777,-494.555 375.9873,-494.2493 378.1082,-500.9203"/>
</g>
<!-- Node441744 -->
<g id="node7" class="node">
<title>Node441744</title>
<g id="a_node7"><a xlink:href="quickjs_8c.html#a74547db03bf739a52c83a326b32db997" target="_top" xlink:title="add_property">
<polygon fill="none" stroke="#ff0000" points="380.5,-437.5 380.5,-456.5 461.5,-456.5 461.5,-437.5 380.5,-437.5"/>
<text text-anchor="middle" x="421" y="-444.5" font-family="Helvetica,sans-Serif" font-size="10.00" fill="#000000">add_property</text>
</a>
</g>
</g>
<!-- Node441740&#45;&gt;Node441744 -->
<g id="edge6" class="edge">
<title>Node441740&#45;&gt;Node441744</title>
<path fill="none" stroke="#191970" d="M286.9993,-532.3476C299.9741,-516.285 328.1947,-484.0547 359,-466 362.7151,-463.8226 366.7042,-461.8717 370.8024,-460.1282"/>
<polygon fill="#191970" stroke="#191970" points="372.3938,-463.267 380.4854,-456.4276 369.8948,-456.7282 372.3938,-463.267"/>
</g>
<!-- Node441801 -->
<g id="node8" class="node">
<title>Node441801</title>
<g id="a_node8"><a xlink:href="quickjs_8c.html#a4956f45ffd2849b96dc051277264f87a" target="_top" xlink:title="build_arg_list">
<polygon fill="none" stroke="#ff0000" points="380,-247.5 380,-266.5 462,-266.5 462,-247.5 380,-247.5"/>
<text text-anchor="middle" x="421" y="-254.5" font-family="Helvetica,sans-Serif" font-size="10.00" fill="#000000">build_arg_list</text>
</a>
</g>
</g>
<!-- Node441740&#45;&gt;Node441801 -->
<g id="edge7" class="edge">
<title>Node441740&#45;&gt;Node441801</title>
<path fill="none" stroke="#191970" d="M281.2767,-532.3236C289.257,-489.7842 322.9739,-319.7827 359,-281 362.5902,-277.1351 366.8746,-273.8852 371.4908,-271.154"/>
<polygon fill="#191970" stroke="#191970" points="373.3313,-274.1457 380.682,-266.5156 370.1775,-267.8964 373.3313,-274.1457"/>
</g>
<!-- Node441802 -->
<g id="node9" class="node">
<title>Node441802</title>
<g id="a_node9"><a xlink:href="quickjs_8c.html#ac864482356b3efc2d0b0a509fcfa4c7c" target="_top" xlink:title="free_arg_list">
<polygon fill="none" stroke="#ff0000" points="544,-285.5 544,-304.5 621,-304.5 621,-285.5 544,-285.5"/>
<text text-anchor="middle" x="582.5" y="-292.5" font-family="Helvetica,sans-Serif" font-size="10.00" fill="#000000">free_arg_list</text>
</a>
</g>
</g>
<!-- Node441740&#45;&gt;Node441802 -->
<g id="edge14" class="edge">
<title>Node441740&#45;&gt;Node441802</title>
<path fill="none" stroke="#191970" d="M281.4441,-532.2445C289.5987,-492.3605 322.3244,-342.4671 359,-314 408.5418,-275.5464 484.2006,-277.9546 533.5112,-285.0315"/>
<polygon fill="#191970" stroke="#191970" points="533.1962,-288.5244 543.6147,-286.5995 534.2698,-281.6072 533.1962,-288.5244"/>
</g>
<!-- Node441740&#45;&gt;Node441793 -->
<g id="edge32" class="edge">
<title>Node441740&#45;&gt;Node441793</title>
<path fill="none" stroke="#191970" d="M282.7277,-532.278C291.0294,-509.0653 315.5742,-450.6587 359,-428 407.8599,-402.5059 429.1329,-416.3566 483,-428 611.4525,-455.7651 749.6051,-535.6611 803.5505,-569.0527"/>
<polygon fill="#191970" stroke="#191970" points="801.7138,-572.0321 812.0493,-574.3619 805.4226,-566.0953 801.7138,-572.0321"/>
</g>
<!-- Node441740&#45;&gt;Node441811 -->
<g id="edge38" class="edge">
<title>Node441740&#45;&gt;Node441811</title>
<path fill="none" stroke="#191970" d="M279.9496,-532.1951C282.6794,-477.4968 298.9719,-210.7692 359,-162 417.7498,-114.2693 514.3665,-159.7005 558.7978,-185.2558"/>
<polygon fill="#191970" stroke="#191970" points="557.0638,-188.2965 567.4545,-190.3666 560.6227,-182.2686 557.0638,-188.2965"/>
</g>
<!-- Node441897 -->
<g id="node12" class="node">
<title>Node441897</title>
<g id="a_node12"><a xlink:href="quickjs_8c.html#a61c8dfb5e807af1b6ff7d8ca61576dda" target="_top" xlink:title="build_backtrace">
<polygon fill="none" stroke="#ff0000" points="374,-171.5 374,-190.5 468,-190.5 468,-171.5 374,-171.5"/>
<text text-anchor="middle" x="421" y="-178.5" font-family="Helvetica,sans-Serif" font-size="10.00" fill="#000000">build_backtrace</text>
</a>
</g>
</g>
<!-- Node441740&#45;&gt;Node441897 -->
<g id="edge11" class="edge">
<title>Node441740&#45;&gt;Node441897</title>
<path fill="none" stroke="#191970" d="M280.4434,-532.4443C285.5675,-482.392 311.5849,-250.8033 359,-200 360.8147,-198.0556 362.8225,-196.3082 364.9724,-194.7382"/>
<polygon fill="#191970" stroke="#191970" points="367.0092,-197.6009 373.86,-189.519 363.4645,-191.5648 367.0092,-197.6009"/>
</g>
<!-- Node441984 -->
<g id="node13" class="node">
<title>Node441984</title>
<g id="a_node13"><a xlink:href="quickjs_8c.html#a344894112559c2ba75043fd10bcfa02f" target="_top" xlink:title="close_lexical_var">
<polygon fill="none" stroke="#ff0000" points="370.5,-949.5 370.5,-968.5 471.5,-968.5 471.5,-949.5 370.5,-949.5"/>
<text text-anchor="middle" x="421" y="-956.5" font-family="Helvetica,sans-Serif" font-size="10.00" fill="#000000">close_lexical_var</text>
</a>
</g>
</g>
<!-- Node441740&#45;&gt;Node441984 -->
<g id="edge12" class="edge">
<title>Node441740&#45;&gt;Node441984</title>
<path fill="none" stroke="#191970" d="M280.1115,-551.6225C283.7873,-606.5314 304.6437,-879.9042 359,-940 360.1941,-941.3202 361.4773,-942.5499 362.834,-943.695"/>
<polygon fill="#191970" stroke="#191970" points="361.0445,-946.7092 371.2989,-949.3733 364.944,-940.8959 361.0445,-946.7092"/>
</g>
<!-- Node441985 -->
<g id="node14" class="node">
<title>Node441985</title>
<g id="a_node14"><a xlink:href="quickjs_8c.html#a1782043fce951bd4f0d91c7796b31e24" target="_top" xlink:title="close_var_refs">
<polygon fill="none" stroke="#ff0000" points="377.5,-911.5 377.5,-930.5 464.5,-930.5 464.5,-911.5 377.5,-911.5"/>
<text text-anchor="middle" x="421" y="-918.5" font-family="Helvetica,sans-Serif" font-size="10.00" fill="#000000">close_var_refs</text>
</a>
</g>
</g>
<!-- Node441740&#45;&gt;Node441985 -->
<g id="edge13" class="edge">
<title>Node441740&#45;&gt;Node441985</title>
<path fill="none" stroke="#191970" d="M280.338,-551.7099C285.0067,-603.6449 309.4013,-848.2647 359,-902 361.7143,-904.9407 364.8702,-907.431 368.2928,-909.5394"/>
<polygon fill="#191970" stroke="#191970" points="366.7421,-912.6772 377.2499,-914.0325 369.8807,-906.4202 366.7421,-912.6772"/>
</g>
<!-- Node441790 -->
<g id="node15" class="node">
<title>Node441790</title>
<g id="a_node15"><a xlink:href="quickjs_8c.html#a9e7b4bccf927d811b0f99b40b08c0472" target="_top" xlink:title="free_var_ref">
<polygon fill="none" stroke="#ff0000" points="383,-873.5 383,-892.5 459,-892.5 459,-873.5 383,-873.5"/>
<text text-anchor="middle" x="421" y="-880.5" font-family="Helvetica,sans-Serif" font-size="10.00" fill="#000000">free_var_ref</text>
</a>
</g>
</g>
<!-- Node441740&#45;&gt;Node441790 -->
<g id="edge15" class="edge">
<title>Node441740&#45;&gt;Node441790</title>
<path fill="none" stroke="#191970" d="M280.6002,-551.6325C286.3149,-600.0654 314.0827,-816.5269 359,-864 363.0646,-868.2958 368.0717,-871.6287 373.4634,-874.2129"/>
<polygon fill="#191970" stroke="#191970" points="372.2148,-877.4828 382.8017,-877.893 374.7813,-870.9702 372.2148,-877.4828"/>
</g>
<!-- Node441987 -->
<g id="node16" class="node">
<title>Node441987</title>
<g id="a_node16"><a xlink:href="cutils_8h.html#a7c82a3ee025fee89db5b11ff5b7691b8" target="_top" xlink:title="get_i16">
<polygon fill="none" stroke="#000000" points="394.5,-835.5 394.5,-854.5 447.5,-854.5 447.5,-835.5 394.5,-835.5"/>
<text text-anchor="middle" x="421" y="-842.5" font-family="Helvetica,sans-Serif" font-size="10.00" fill="#000000">get_i16</text>
</a>
</g>
</g>
<!-- Node441740&#45;&gt;Node441987 -->
<g id="edge16" class="edge">
<title>Node441740&#45;&gt;Node441987</title>
<path fill="none" stroke="#191970" d="M280.9452,-551.6714C287.845,-596.6327 318.7703,-784.7756 359,-826 365.8861,-833.0563 375.3168,-837.5084 384.7452,-840.3121"/>
<polygon fill="#191970" stroke="#191970" points="383.9188,-843.7131 394.4629,-842.6773 385.5743,-836.9116 383.9188,-843.7131"/>
</g>
<!-- Node441988 -->
<g id="node17" class="node">
<title>Node441988</title>
<g id="a_node17"><a xlink:href="cutils_8h.html#a288ee4e688944e23500af2ecc813c306" target="_top" xlink:title="get_i8">
<polygon fill="none" stroke="#000000" points="397.5,-797.5 397.5,-816.5 444.5,-816.5 444.5,-797.5 397.5,-797.5"/>
<text text-anchor="middle" x="421" y="-804.5" font-family="Helvetica,sans-Serif" font-size="10.00" fill="#000000">get_i8</text>
</a>
</g>
</g>
<!-- Node441740&#45;&gt;Node441988 -->
<g id="edge17" class="edge">
<title>Node441740&#45;&gt;Node441988</title>
<path fill="none" stroke="#191970" d="M279.861,-551.7523C281.7051,-587.5699 292.8282,-713.3853 359,-783 366.6533,-791.0514 377.3149,-796.4411 387.6412,-800.0324"/>
<polygon fill="#191970" stroke="#191970" points="386.7453,-803.4179 397.3299,-802.9528 388.7655,-796.7157 386.7453,-803.4179"/>
</g>
<!-- Node441989 -->
<g id="node18" class="node">
<title>Node441989</title>
<g id="a_node18"><a xlink:href="cutils_8h.html#ad587834d17e95461893d59661e5e9676" target="_top" xlink:title="get_u16">
<polygon fill="none" stroke="#000000" points="393,-703.5 393,-722.5 449,-722.5 449,-703.5 393,-703.5"/>
<text text-anchor="middle" x="421" y="-710.5" font-family="Helvetica,sans-Serif" font-size="10.00" fill="#000000">get_u16</text>
</a>
</g>
</g>
<!-- Node441740&#45;&gt;Node441989 -->
<g id="edge18" class="edge">
<title>Node441740&#45;&gt;Node441989</title>
<path fill="none" stroke="#191970" d="M281.8111,-551.853C288.6489,-578.8143 311.3503,-654.4214 359,-694 365.847,-699.6872 374.3783,-703.6738 382.9006,-706.4677"/>
<polygon fill="#191970" stroke="#191970" points="382.2266,-709.9133 392.7994,-709.2302 384.1083,-703.1709 382.2266,-709.9133"/>
</g>
<!-- Node441786 -->
<g id="node19" class="node">
<title>Node441786</title>
<g id="a_node19"><a xlink:href="cutils_8h.html#a941262a5f72fda2ec43ae7911e97a0dc" target="_top" xlink:title="get_u32">
<polygon fill="none" stroke="#000000" points="393,-665.5 393,-684.5 449,-684.5 449,-665.5 393,-665.5"/>
<text text-anchor="middle" x="421" y="-672.5" font-family="Helvetica,sans-Serif" font-size="10.00" fill="#000000">get_u32</text>
</a>
</g>
</g>
<!-- Node441740&#45;&gt;Node441786 -->
<g id="edge19" class="edge">
<title>Node441740&#45;&gt;Node441786</title>
<path fill="none" stroke="#191970" d="M283.5037,-551.5705C293.1468,-573.4516 319.7999,-627.4425 359,-656 366.1288,-661.1934 374.7009,-664.9875 383.1653,-667.7525"/>
<polygon fill="#191970" stroke="#191970" points="382.3828,-671.1688 392.9594,-670.5477 384.3039,-664.4376 382.3828,-671.1688"/>
</g>
<!-- Node441990 -->
<g id="node20" class="node">
<title>Node441990</title>
<g id="a_node20"><a xlink:href="quickjs_8c.html#a37fe43b6649456a848bd54846450b995" target="_top" xlink:title="get_var_ref">
<polygon fill="none" stroke="#ff0000" points="385,-627.5 385,-646.5 457,-646.5 457,-627.5 385,-627.5"/>
<text text-anchor="middle" x="421" y="-634.5" font-family="Helvetica,sans-Serif" font-size="10.00" fill="#000000">get_var_ref</text>
</a>
</g>
</g>
<!-- Node441740&#45;&gt;Node441990 -->
<g id="edge20" class="edge">
<title>Node441740&#45;&gt;Node441990</title>
<path fill="none" stroke="#191970" d="M286.9993,-551.6524C299.9741,-567.715 328.1947,-599.9453 359,-618 364.04,-620.9539 369.5842,-623.4909 375.221,-625.6587"/>
<polygon fill="#191970" stroke="#191970" points="374.1275,-628.984 384.7223,-628.9668 376.4292,-622.3733 374.1275,-628.984"/>
</g>
<!-- Node441934 -->
<g id="node21" class="node">
<title>Node441934</title>
<g id="a_node21"><a xlink:href="list_8h.html#a663527a4d757540b2177bef0db1ce5c0" target="_top" xlink:title="init_list_head">
<polygon fill="none" stroke="#000000" points="380,-589.5 380,-608.5 462,-608.5 462,-589.5 380,-589.5"/>
<text text-anchor="middle" x="421" y="-596.5" font-family="Helvetica,sans-Serif" font-size="10.00" fill="#000000">init_list_head</text>
</a>
</g>
</g>
<!-- Node441740&#45;&gt;Node441934 -->
<g id="edge21" class="edge">
<title>Node441740&#45;&gt;Node441934</title>
<path fill="none" stroke="#191970" d="M297.4745,-551.5383C313.3701,-559.743 337.3347,-571.5563 359,-580 364.6447,-582.1999 370.6558,-584.3145 376.6299,-586.2824"/>
<polygon fill="#191970" stroke="#191970" points="375.9873,-589.7507 386.5777,-589.445 378.1082,-583.0797 375.9873,-589.7507"/>
</g>
<!-- Node441991 -->
<g id="node22" class="node">
<title>Node441991</title>
<g id="a_node22"><a xlink:href="quickjs_8c.html#a2bb0a2ca3b8320f3ff778c65034fce49" target="_top" xlink:title="is_backtrace_needed">
<polygon fill="none" stroke="#ff0000" points="361.5,-361.5 361.5,-380.5 480.5,-380.5 480.5,-361.5 361.5,-361.5"/>
<text text-anchor="middle" x="421" y="-368.5" font-family="Helvetica,sans-Serif" font-size="10.00" fill="#000000">is_backtrace_needed</text>
</a>
</g>
</g>
<!-- Node441740&#45;&gt;Node441991 -->
<g id="edge22" class="edge">
<title>Node441740&#45;&gt;Node441991</title>
<path fill="none" stroke="#191970" d="M282.1696,-532.2685C289.7691,-506.3099 313.9339,-434.7004 359,-395 363.5497,-390.992 368.8428,-387.6184 374.3827,-384.7875"/>
<polygon fill="#191970" stroke="#191970" points="376.1728,-387.8197 383.8512,-380.5195 373.2962,-381.4381 376.1728,-387.8197"/>
</g>
<!-- Node441918 -->
<g id="node23" class="node">
<title>Node441918</title>
<g id="a_node23"><a xlink:href="quickjs_8c.html#a686cf78f8b0361621ee2ba6182195c31" target="_top" xlink:title="is_strict_mode">
<polygon fill="none" stroke="#000000" points="377,-209.5 377,-228.5 465,-228.5 465,-209.5 377,-209.5"/>
<text text-anchor="middle" x="421" y="-216.5" font-family="Helvetica,sans-Serif" font-size="10.00" fill="#000000">is_strict_mode</text>
</a>
</g>
</g>
<!-- Node441740&#45;&gt;Node441918 -->
<g id="edge23" class="edge">
<title>Node441740&#45;&gt;Node441918</title>
<path fill="none" stroke="#191970" d="M280.7613,-532.2868C287.0394,-485.3512 316.3263,-282.486 359,-238 361.6083,-235.2809 364.5944,-232.948 367.8148,-230.9468"/>
<polygon fill="#191970" stroke="#191970" points="369.4589,-234.0374 376.7883,-226.3869 366.2877,-227.7969 369.4589,-234.0374"/>
</g>
<!-- Node441993 -->
<g id="node24" class="node">
<title>Node441993</title>
<g id="a_node24"><a xlink:href="quickjs_8c.html#ae8ff05447c0d51fe277baccf616dc7c6" target="_top" xlink:title="js_add_slow">
<polygon fill="none" stroke="#ff0000" points="383,-323.5 383,-342.5 459,-342.5 459,-323.5 383,-323.5"/>
<text text-anchor="middle" x="421" y="-330.5" font-family="Helvetica,sans-Serif" font-size="10.00" fill="#000000">js_add_slow</text>
</a>
</g>
</g>
<!-- Node441740&#45;&gt;Node441993 -->
<g id="edge24" class="edge">
<title>Node441740&#45;&gt;Node441993</title>
<path fill="none" stroke="#191970" d="M280.6376,-532.4835C284.8358,-501.6252 302.2829,-403.3669 359,-352 363.1722,-348.2214 368.0798,-345.194 373.2763,-342.7685"/>
<polygon fill="#191970" stroke="#191970" points="374.8108,-345.9264 382.8456,-339.0205 372.2579,-339.4085 374.8108,-345.9264"/>
</g>
<!-- Node441740&#45;&gt;Node441860 -->
<g id="edge28" class="edge">
<title>Node441740&#45;&gt;Node441860</title>
<path fill="none" stroke="#191970" d="M280.5836,-551.6611C284.2094,-583.1057 299.3198,-679.8252 359,-723 452.6382,-790.7413 598.3935,-775.0557 671.6811,-764.6651"/>
<polygon fill="#191970" stroke="#191970" points="672.5566,-768.0751 681.9534,-763.1811 671.5556,-761.147 672.5566,-768.0751"/>
</g>
<!-- Node441740&#45;&gt;Node441804 -->
<g id="edge33" class="edge">
<title>Node441740&#45;&gt;Node441804</title>
<path fill="none" stroke="#191970" d="M280.34,-551.7308C285.5938,-611.2164 315.1413,-926.063 359,-1011 368.4854,-1029.3695 385.3563,-1045.6982 399.1068,-1056.9813"/>
<polygon fill="#191970" stroke="#191970" points="397.1483,-1059.8939 407.1712,-1063.3278 401.4773,-1054.393 397.1483,-1059.8939"/>
</g>
<!-- Node441805 -->
<g id="node27" class="node">
<title>Node441805</title>
<g id="a_node27"><a xlink:href="quickjs_8c.html#a5762c57ae0c9937e986040c01222833a" target="_top" xlink:title="JS_GetPropertyInternal">
<polygon fill="none" stroke="#ff0000" points="519,-1063.5 519,-1082.5 646,-1082.5 646,-1063.5 519,-1063.5"/>
<text text-anchor="middle" x="582.5" y="-1070.5" font-family="Helvetica,sans-Serif" font-size="10.00" fill="#000000">JS_GetPropertyInternal</text>
</a>
</g>
</g>
<!-- Node441740&#45;&gt;Node441805 -->
<g id="edge37" class="edge">
<title>Node441740&#45;&gt;Node441805</title>
<path fill="none" stroke="#191970" d="M280.0384,-551.6764C283.4279,-609.4432 303.4928,-908.5985 359,-978 396.5263,-1024.9197 461.5265,-1049.0402 511.7869,-1061.2054"/>
<polygon fill="#191970" stroke="#191970" points="511.0984,-1064.6385 521.63,-1063.4823 512.676,-1057.8186 511.0984,-1064.6385"/>
</g>
<!-- Node441740&#45;&gt;Node442023 -->
<g id="edge39" class="edge">
<title>Node441740&#45;&gt;Node442023</title>
<path fill="none" stroke="#191970" d="M280.1036,-532.4456C283.8026,-476.688 305.057,-193.59 359,-129 363.5236,-123.5836 369.4229,-119.3854 375.7828,-116.1325"/>
<polygon fill="#191970" stroke="#191970" points="377.5315,-119.1898 385.3238,-112.0112 374.7557,-112.7636 377.5315,-119.1898"/>
</g>
<!-- Node441740&#45;&gt;Node441863 -->
<g id="edge40" class="edge">
<title>Node441740&#45;&gt;Node441863</title>
<path fill="none" stroke="#191970" d="M279.854,-532.1862C282.2085,-472.2451 297.4547,-155.7457 359,-86 361.493,-83.1748 364.3939,-80.7635 367.5534,-78.7063"/>
<polygon fill="#191970" stroke="#191970" points="369.1952,-81.7974 376.4182,-74.0464 365.9381,-75.6013 369.1952,-81.7974"/>
</g>
<!-- Node441801&#45;&gt;Node441802 -->
<g id="edge8" class="edge">
<title>Node441801&#45;&gt;Node441802</title>
<path fill="none" stroke="#191970" d="M461.7533,-266.589C483.7307,-271.7602 510.9964,-278.1756 534.0542,-283.601"/>
<polygon fill="#191970" stroke="#191970" points="533.4476,-287.0538 543.9835,-285.9373 535.051,-280.2399 533.4476,-287.0538"/>
</g>
<!-- Node441801&#45;&gt;Node441811 -->
<g id="edge10" class="edge">
<title>Node441801&#45;&gt;Node441811</title>
<path fill="none" stroke="#191970" d="M453.6327,-247.4508C463.1439,-244.5459 473.5246,-241.2571 483,-238 505.3368,-230.3219 530.155,-220.8453 549.4174,-213.2766"/>
<polygon fill="#191970" stroke="#191970" points="550.928,-216.4431 558.9413,-209.5122 548.3548,-209.9332 550.928,-216.4431"/>
</g>
<!-- Node441802&#45;&gt;Node441793 -->
<g id="edge9" class="edge">
<title>Node441802&#45;&gt;Node441793</title>
<path fill="none" stroke="#191970" d="M621.0232,-297.0494C659.207,-301.1211 716.9272,-313.0899 752,-348 783.4438,-379.2979 812.9353,-513.5255 823.1846,-564.3732"/>
<polygon fill="#191970" stroke="#191970" points="819.7942,-565.2704 825.1724,-574.3987 826.6606,-563.9089 819.7942,-565.2704"/>
</g>
<!-- Node441993&#45;&gt;Node441793 -->
<g id="edge25" class="edge">
<title>Node441993&#45;&gt;Node441793</title>
<path fill="none" stroke="#191970" d="M459.0917,-329.1169C526.2042,-324.4288 666.4896,-324.5548 752,-395 805.0689,-438.7192 820.7997,-525.3184 825.2887,-564.2408"/>
<polygon fill="#191970" stroke="#191970" points="821.8166,-564.6937 826.3145,-574.2864 828.7804,-563.9825 821.8166,-564.6937"/>
</g>
<!-- Node441993&#45;&gt;Node441811 -->
<g id="edge26" class="edge">
<title>Node441993&#45;&gt;Node441811</title>
<path fill="none" stroke="#191970" d="M432.6147,-323.435C459.9513,-300.9224 528.6099,-244.3801 562.6834,-216.3195"/>
<polygon fill="#191970" stroke="#191970" points="565.0605,-218.8961 570.5548,-209.8372 560.6105,-213.4925 565.0605,-218.8961"/>
</g>
<!-- Node441860&#45;&gt;Node441740 -->
<g id="edge29" class="edge">
<title>Node441860&#45;&gt;Node441740</title>
<path fill="none" stroke="#191970" d="M695.0427,-769.6049C634.7343,-787.9866 464.0623,-817.0059 359,-741 300.086,-698.3795 284.6047,-603.5801 280.7289,-561.8817"/>
<polygon fill="#191970" stroke="#191970" points="284.2117,-561.5243 279.931,-551.8327 277.2336,-562.0784 284.2117,-561.5243"/>
</g>
<!-- Node441860&#45;&gt;Node441793 -->
<g id="edge30" class="edge">
<title>Node441860&#45;&gt;Node441793</title>
<path fill="none" stroke="#191970" d="M723.0708,-750.2868C740.6837,-722.106 792.0198,-639.9683 815.2904,-602.7354"/>
<polygon fill="#191970" stroke="#191970" points="818.4804,-604.2352 820.8124,-593.9002 812.5444,-600.5251 818.4804,-604.2352"/>
</g>
<!-- Node441804&#45;&gt;Node441805 -->
<g id="edge34" class="edge">
<title>Node441804&#45;&gt;Node441805</title>
<path fill="none" stroke="#191970" d="M465.5581,-1073C478.9093,-1073 493.9249,-1073 508.6337,-1073"/>
<polygon fill="#191970" stroke="#191970" points="508.7434,-1076.5001 518.7434,-1073 508.7433,-1069.5001 508.7434,-1076.5001"/>
</g>
<!-- Node441805&#45;&gt;Node441793 -->
<g id="edge36" class="edge">
<title>Node441805&#45;&gt;Node441793</title>
<path fill="none" stroke="#191970" d="M623.08,-1063.4233C631.4404,-1059.9648 639.6263,-1055.293 646,-1049 779.7235,-916.9704 816.7845,-674.8159 824.9829,-603.9665"/>
<polygon fill="#191970" stroke="#191970" points="828.4895,-604.096 826.0955,-593.7752 821.5308,-603.3363 828.4895,-604.096"/>
</g>
<!-- Node441805&#45;&gt;Node441860 -->
<g id="edge35" class="edge">
<title>Node441805&#45;&gt;Node441860</title>
<path fill="none" stroke="#191970" d="M625.0341,-1063.4694C632.8866,-1060.0272 640.3719,-1055.3504 646,-1049 655.193,-1038.6272 698.8718,-842.5345 712.754,-779.4036"/>
<polygon fill="#191970" stroke="#191970" points="716.1938,-780.057 714.9184,-769.5392 709.3565,-778.5567 716.1938,-780.057"/>
</g>
</g>
</svg>
        <g id="navigator" transform="translate(0 0)" fill="#404254">
                <rect fill="#f2f5e9" fill-opacity="0.5" stroke="#606060" stroke-width=".5" x="0" y="0" width="60" height="60"/>
                <use id="zoomplus" xlink:href="#zoomPlus" x="17" y="9" onmousedown="handleZoom(evt,'in')"/>
                <use id="zoomminus" xlink:href="#zoomMin" x="42" y="9" onmousedown="handleZoom(evt,'out')"/>
                <use id="reset" xlink:href="#resetDef" x="30" y="36" onmousedown="handleReset()"/>
                <g id="arrowUp" xlink:href="#dirArrow" transform="translate(30 24)" onmousedown="handlePan(0,-1)">
                  <use xlink:href="#rim" fill="#404040">
                        <set attributeName="fill" to="#808080" begin="arrowUp.mouseover" end="arrowUp.mouseout"/>
                  </use>
                  <path fill="none" stroke="white" stroke-width="1.5" d="M0,-3.0v7 M-2.5,-0.5L0,-3.0L2.5,-0.5"/>
                </g>
                <g id="arrowRight" xlink:href="#dirArrow" transform="rotate(90) translate(36 -43)" onmousedown="handlePan(1,0)">
                  <use xlink:href="#rim" fill="#404040">
                        <set attributeName="fill" to="#808080" begin="arrowRight.mouseover" end="arrowRight.mouseout"/>
                  </use>
                  <path fill="none" stroke="white" stroke-width="1.5" d="M0,-3.0v7 M-2.5,-0.5L0,-3.0L2.5,-0.5"/>
                </g>
                <g id="arrowDown" xlink:href="#dirArrow" transform="rotate(180) translate(-30 -48)" onmousedown="handlePan(0,1)">
                  <use xlink:href="#rim" fill="#404040">
                        <set attributeName="fill" to="#808080" begin="arrowDown.mouseover" end="arrowDown.mouseout"/>
                  </use>
                  <path fill="none" stroke="white" stroke-width="1.5" d="M0,-3.0v7 M-2.5,-0.5L0,-3.0L2.5,-0.5"/>
                </g>
                <g id="arrowLeft" xlink:href="#dirArrow" transform="rotate(270) translate(-36 17)" onmousedown="handlePan(-1,0)">
                  <use xlink:href="#rim" fill="#404040">
                        <set attributeName="fill" to="#808080" begin="arrowLeft.mouseover" end="arrowLeft.mouseout"/>
                  </use>
                  <path fill="none" stroke="white" stroke-width="1.5" d="M0,-3.0v7 M-2.5,-0.5L0,-3.0L2.5,-0.5"/>
                </g>
        </g>
        <svg viewBox="0 0 15 15" width="100%" height="30px" preserveAspectRatio="xMaxYMin meet">
         <g id="arrow_out" transform="scale(0.3 0.3)">
          <a xlink:href="quickjs_8c_a0da6493b4bc0edb7ddddfab807241d0b_cgraph_org.svg" target="_base">
           <rect id="button" ry="5" rx="5" y="6" x="6" height="38" width="38"
                fill="#f2f5e9" fill-opacity="0.5" stroke="#606060" stroke-width="1.0"/>
           <path id="arrow"
             d="M 11.500037,31.436501 C 11.940474,20.09759 22.043105,11.32322 32.158766,21.979434 L 37.068811,17.246167 C 37.068811,17.246167 37.088388,32 37.088388,32 L 22.160133,31.978069 C 22.160133,31.978069 26.997745,27.140456 26.997745,27.140456 C 18.528582,18.264221 13.291696,25.230495 11.500037,31.436501 z"
             style="fill:#404040;"/>
          </a>
         </g>
        </svg>
</svg>
