<?xml version="1.0" encoding="UTF-8" standalone="no"?>
<!DOCTYPE svg PUBLIC "-//W3C//DTD SVG 1.1//EN"
 "http://www.w3.org/Graphics/SVG/1.1/DTD/svg11.dtd">
<!-- Generated by graphviz version 2.40.1 (20161225.0304)
 -->
<!-- Title: js_array_from_iterator Pages: 1 -->
<svg width="708pt" height="116pt"
 viewBox="0.00 0.00 708.00 115.50" xmlns="http://www.w3.org/2000/svg" xmlns:xlink="http://www.w3.org/1999/xlink">
<g id="graph0" class="graph" transform="scale(1 1) rotate(0) translate(4 111.5)">
<title>js_array_from_iterator</title>
<!-- Node489776 -->
<g id="node1" class="node">
<title>Node489776</title>
<polygon fill="#bfbfbf" stroke="#000000" points="0,-50 0,-69 125,-69 125,-50 0,-50"/>
<text text-anchor="middle" x="62.5" y="-57" font-family="Helvetica,sans-Serif" font-size="10.00" fill="#000000">js_array_from_iterator</text>
</g>
<!-- Node489777 -->
<g id="node2" class="node">
<title>Node489777</title>
<g id="a_node2"><a xlink:href="quickjs_8c.html#acf0e1803a9586d86d752b002a89fb8ed" target="_top" xlink:title="js_typed_array_constructor_obj">
<polygon fill="none" stroke="#000000" points="161,-50 161,-69 330,-69 330,-50 161,-50"/>
<text text-anchor="middle" x="245.5" y="-57" font-family="Helvetica,sans-Serif" font-size="10.00" fill="#000000">js_typed_array_constructor_obj</text>
</a>
</g>
</g>
<!-- Node489776&#45;&gt;Node489777 -->
<g id="edge1" class="edge">
<title>Node489776&#45;&gt;Node489777</title>
<path fill="none" stroke="#191970" d="M135.3304,-59.5C143.7227,-59.5 152.3339,-59.5 160.865,-59.5"/>
<polygon fill="#191970" stroke="#191970" points="135.2222,-56.0001 125.2222,-59.5 135.2222,-63.0001 135.2222,-56.0001"/>
</g>
<!-- Node489778 -->
<g id="node3" class="node">
<title>Node489778</title>
<g id="a_node3"><a xlink:href="quickjs_8c.html#a3be661c1eaa7a31184410667862635a2" target="_top" xlink:title="js_typed_array_constructor">
<polygon fill="none" stroke="#000000" points="366,-50 366,-69 515,-69 515,-50 366,-50"/>
<text text-anchor="middle" x="440.5" y="-57" font-family="Helvetica,sans-Serif" font-size="10.00" fill="#000000">js_typed_array_constructor</text>
</a>
</g>
</g>
<!-- Node489777&#45;&gt;Node489778 -->
<g id="edge2" class="edge">
<title>Node489777&#45;&gt;Node489778</title>
<path fill="none" stroke="#191970" d="M340.2845,-59.5C348.9178,-59.5 357.5795,-59.5 365.9986,-59.5"/>
<polygon fill="#191970" stroke="#191970" points="340.1791,-56.0001 330.1791,-59.5 340.1791,-63.0001 340.1791,-56.0001"/>
</g>
<!-- Node489779 -->
<g id="node4" class="node">
<title>Node489779</title>
<g id="a_node4"><a xlink:href="quickjs_8c.html#a177d09828596bfe6df4bd90b2e93989d" target="_top" xlink:title="JS_AddIntrinsicTypedArrays">
<polygon fill="none" stroke="#ff0000" points="551,-88 551,-107 700,-107 700,-88 551,-88"/>
<text text-anchor="middle" x="625.5" y="-95" font-family="Helvetica,sans-Serif" font-size="10.00" fill="#000000">JS_AddIntrinsicTypedArrays</text>
</a>
</g>
</g>
<!-- Node489778&#45;&gt;Node489779 -->
<g id="edge3" class="edge">
<title>Node489778&#45;&gt;Node489779</title>
<path fill="none" stroke="#191970" d="M497.02,-71.1095C523.3312,-76.514 554.2435,-82.8635 579.1524,-87.9799"/>
<polygon fill="#191970" stroke="#191970" points="497.683,-67.6727 487.1833,-69.089 496.2746,-74.5296 497.683,-67.6727"/>
</g>
<!-- Node489784 -->
<g id="node5" class="node">
<title>Node489784</title>
<g id="a_node5"><a xlink:href="quickjs_8c.html#a00910faacc776e3c2c225aa117aab450" target="_top" xlink:title="JS_ReadTypedArray">
<polygon fill="none" stroke="#ff0000" points="570.5,-50 570.5,-69 680.5,-69 680.5,-50 570.5,-50"/>
<text text-anchor="middle" x="625.5" y="-57" font-family="Helvetica,sans-Serif" font-size="10.00" fill="#000000">JS_ReadTypedArray</text>
</a>
</g>
</g>
<!-- Node489778&#45;&gt;Node489784 -->
<g id="edge4" class="edge">
<title>Node489778&#45;&gt;Node489784</title>
<path fill="none" stroke="#191970" d="M525.2372,-59.5C540.5809,-59.5 556.2116,-59.5 570.4244,-59.5"/>
<polygon fill="#191970" stroke="#191970" points="525.2134,-56.0001 515.2133,-59.5 525.2133,-63.0001 525.2134,-56.0001"/>
</g>
<!-- Node489795 -->
<g id="node6" class="node">
<title>Node489795</title>
<g id="a_node6"><a xlink:href="quickjs_8c.html#ae5a8e884ec4a3364f63ebfeae6b08bdc" target="_top" xlink:title="js_typed_array___species\lCreate">
<polygon fill="none" stroke="#ff0000" points="555,-.5 555,-30.5 696,-30.5 696,-.5 555,-.5"/>
<text text-anchor="start" x="563" y="-18.5" font-family="Helvetica,sans-Serif" font-size="10.00" fill="#000000">js_typed_array___species</text>
<text text-anchor="middle" x="625.5" y="-7.5" font-family="Helvetica,sans-Serif" font-size="10.00" fill="#000000">Create</text>
</a>
</g>
</g>
<!-- Node489778&#45;&gt;Node489795 -->
<g id="edge5" class="edge">
<title>Node489778&#45;&gt;Node489795</title>
<path fill="none" stroke="#191970" d="M490.467,-47.616C512.5367,-42.3669 538.7359,-36.1358 562.157,-30.5654"/>
<polygon fill="#191970" stroke="#191970" points="489.561,-44.2337 480.6422,-49.9527 491.1807,-51.0438 489.561,-44.2337"/>
</g>
</g>
</svg>
