<?xml version="1.0" encoding="UTF-8" standalone="no"?>
<!DOCTYPE svg PUBLIC "-//W3C//DTD SVG 1.1//EN"
 "http://www.w3.org/Graphics/SVG/1.1/DTD/svg11.dtd">
<!-- Generated by graphviz version 2.40.1 (20161225.0304)
 -->
<!-- Title: js_new_string16 Pages: 1 -->
<svg width="506pt" height="66pt"
 viewBox="0.00 0.00 506.00 66.00" xmlns="http://www.w3.org/2000/svg" xmlns:xlink="http://www.w3.org/1999/xlink">
<g id="graph0" class="graph" transform="scale(1 1) rotate(0) translate(4 62)">
<title>js_new_string16</title>
<!-- Node99656 -->
<g id="node1" class="node">
<title>Node99656</title>
<polygon fill="#bfbfbf" stroke="#000000" points="0,-19.5 0,-38.5 95,-38.5 95,-19.5 0,-19.5"/>
<text text-anchor="middle" x="47.5" y="-26.5" font-family="Helvetica,sans-Serif" font-size="10.00" fill="#000000">js_new_string16</text>
</g>
<!-- Node99657 -->
<g id="node2" class="node">
<title>Node99657</title>
<g id="a_node2"><a xlink:href="quickjs_8c.html#ad303a9bc56766627b5fca41574933930" target="_top" xlink:title="js_alloc_string">
<polygon fill="none" stroke="#000000" points="131,-19.5 131,-38.5 217,-38.5 217,-19.5 131,-19.5"/>
<text text-anchor="middle" x="174" y="-26.5" font-family="Helvetica,sans-Serif" font-size="10.00" fill="#000000">js_alloc_string</text>
</a>
</g>
</g>
<!-- Node99656&#45;&gt;Node99657 -->
<g id="edge1" class="edge">
<title>Node99656&#45;&gt;Node99657</title>
<path fill="none" stroke="#191970" d="M95.3242,-29C103.5813,-29 112.2119,-29 120.6052,-29"/>
<polygon fill="#191970" stroke="#191970" points="120.6843,-32.5001 130.6843,-29 120.6843,-25.5001 120.6843,-32.5001"/>
</g>
<!-- Node99658 -->
<g id="node3" class="node">
<title>Node99658</title>
<g id="a_node3"><a xlink:href="quickjs_8c.html#a5837dfc67b8f09e0579a28c827b39d93" target="_top" xlink:title="js_alloc_string_rt">
<polygon fill="none" stroke="#000000" points="268,-38.5 268,-57.5 367,-57.5 367,-38.5 268,-38.5"/>
<text text-anchor="middle" x="317.5" y="-45.5" font-family="Helvetica,sans-Serif" font-size="10.00" fill="#000000">js_alloc_string_rt</text>
</a>
</g>
</g>
<!-- Node99657&#45;&gt;Node99658 -->
<g id="edge2" class="edge">
<title>Node99657&#45;&gt;Node99658</title>
<path fill="none" stroke="#191970" d="M217.0547,-34.7006C229.8174,-36.3905 244.0304,-38.2723 257.6543,-40.0762"/>
<polygon fill="#191970" stroke="#191970" points="257.551,-43.593 267.9239,-41.4359 258.4699,-36.6535 257.551,-43.593"/>
</g>
<!-- Node99659 -->
<g id="node4" class="node">
<title>Node99659</title>
<g id="a_node4"><a xlink:href="quickjs_8c.html#a344d6c0e45d9bf3861fd9269724045a2" target="_top" xlink:title="JS_ThrowOutOfMemory">
<polygon fill="none" stroke="#000000" points="253,-.5 253,-19.5 382,-19.5 382,-.5 253,-.5"/>
<text text-anchor="middle" x="317.5" y="-7.5" font-family="Helvetica,sans-Serif" font-size="10.00" fill="#000000">JS_ThrowOutOfMemory</text>
</a>
</g>
</g>
<!-- Node99657&#45;&gt;Node99659 -->
<g id="edge3" class="edge">
<title>Node99657&#45;&gt;Node99659</title>
<path fill="none" stroke="#191970" d="M217.0547,-23.2994C225.2723,-22.2113 234.0911,-21.0437 242.9668,-19.8685"/>
<polygon fill="#191970" stroke="#191970" points="243.5289,-23.3247 252.9829,-18.5423 242.61,-16.3853 243.5289,-23.3247"/>
</g>
<!-- Node99660 -->
<g id="node5" class="node">
<title>Node99660</title>
<g id="a_node5"><a xlink:href="quickjs_8c.html#a853f0924d441ea4225488f37c8b69f9a" target="_top" xlink:title="__attribute__">
<polygon fill="none" stroke="#000000" points="418,-.5 418,-19.5 498,-19.5 498,-.5 418,-.5"/>
<text text-anchor="middle" x="458" y="-7.5" font-family="Helvetica,sans-Serif" font-size="10.00" fill="#000000">__attribute__</text>
</a>
</g>
</g>
<!-- Node99659&#45;&gt;Node99660 -->
<g id="edge4" class="edge">
<title>Node99659&#45;&gt;Node99660</title>
<path fill="none" stroke="#191970" d="M382.4035,-10C390.8969,-10 399.4951,-10 407.6976,-10"/>
<polygon fill="#191970" stroke="#191970" points="407.8383,-13.5001 417.8383,-10 407.8382,-6.5001 407.8383,-13.5001"/>
</g>
</g>
</svg>
