<?xml version="1.0" encoding="UTF-8" standalone="no"?>
<!DOCTYPE svg PUBLIC "-//W3C//DTD SVG 1.1//EN"
 "http://www.w3.org/Graphics/SVG/1.1/DTD/svg11.dtd">
<!-- Generated by graphviz version 2.40.1 (20161225.0304)
 -->
<!-- Title: JS_EvalThis Pages: 1 -->
<!--zoomable 158 -->
<svg id="main" version="1.1" xmlns="http://www.w3.org/2000/svg" xmlns:xlink="http://www.w3.org/1999/xlink" xml:space="preserve" onload="init(evt)">
<style type="text/css"><![CDATA[
.edge:hover path { stroke: red; }
.edge:hover polygon { stroke: red; fill: red; }
]]></style>
<script type="text/javascript"><![CDATA[
var edges = document.getElementsByTagName('g');
if (edges && edges.length) {
  for (var i=0;i<edges.length;i++) {
    if (edges[i].id.substr(0,4)=='edge') {
      edges[i].setAttribute('class','edge');
    }
  }
}
]]></script>
        <defs>
                <circle id="rim" cx="0" cy="0" r="7"/>
                <circle id="rim2" cx="0" cy="0" r="3.5"/>
                <g id="zoomPlus">
                        <use xlink:href="#rim" fill="#404040">
                                <set attributeName="fill" to="#808080" begin="zoomplus.mouseover" end="zoomplus.mouseout"/>
                        </use>
                        <path d="M-4,0h8M0,-4v8" fill="none" stroke="white" stroke-width="1.5" pointer-events="none"/>
                </g>
                <g id="zoomMin">
                        <use xlink:href="#rim" fill="#404040">
                                <set attributeName="fill" to="#808080" begin="zoomminus.mouseover" end="zoomminus.mouseout"/>
                        </use>
                        <path d="M-4,0h8" fill="none" stroke="white" stroke-width="1.5" pointer-events="none"/>
                </g>
                <g id="dirArrow">
                        <path fill="none" stroke="white" stroke-width="1.5" d="M0,-3.0v7 M-2.5,-0.5L0,-3.0L2.5,-0.5"/>
                </g>
               <g id="resetDef">
                       <use xlink:href="#rim2" fill="#404040">
                               <set attributeName="fill" to="#808080" begin="reset.mouseover" end="reset.mouseout"/>
                       </use>
               </g>
        </defs>

<script type="text/javascript">
var viewWidth = 574;
var viewHeight = 158;
var sectionId = 'dynsection-1259';
</script>
<script xlink:href="svgpan.js"/>
<svg id="graph" class="graph">
<g id="viewport">
<title>JS_EvalThis</title>
<!-- Node361122 -->
<g id="node1" class="node">
<title>Node361122</title>
<polygon fill="#bfbfbf" stroke="#000000" points="0,-57.5 0,-76.5 72,-76.5 72,-57.5 0,-57.5"/>
<text text-anchor="middle" x="36" y="-64.5" font-family="Helvetica,sans-Serif" font-size="10.00" fill="#000000">JS_EvalThis</text>
</g>
<!-- Node361123 -->
<g id="node2" class="node">
<title>Node361123</title>
<g id="a_node2"><a xlink:href="quickjs_8c.html#a8f9200abd5af97fd0411fe053cb021e0" target="_top" xlink:title="JS_Eval">
<polygon fill="none" stroke="#000000" points="108,-57.5 108,-76.5 160,-76.5 160,-57.5 108,-57.5"/>
<text text-anchor="middle" x="134" y="-64.5" font-family="Helvetica,sans-Serif" font-size="10.00" fill="#000000">JS_Eval</text>
</a>
</g>
</g>
<!-- Node361122&#45;&gt;Node361123 -->
<g id="edge1" class="edge">
<title>Node361122&#45;&gt;Node361123</title>
<path fill="none" stroke="#191970" d="M82.3352,-67C91.0585,-67 99.8948,-67 107.7338,-67"/>
<polygon fill="#191970" stroke="#191970" points="82.2132,-63.5001 72.2131,-67 82.2131,-70.5001 82.2132,-63.5001"/>
</g>
<!-- Node361124 -->
<g id="node3" class="node">
<title>Node361124</title>
<g id="a_node3"><a xlink:href="classqjs_1_1Context.html#aeafa4cad50424999587a30d7d3994251" target="_top" xlink:title="qjs::Context::eval">
<polygon fill="none" stroke="#000000" points="196,-114.5 196,-133.5 298,-133.5 298,-114.5 196,-114.5"/>
<text text-anchor="middle" x="247" y="-121.5" font-family="Helvetica,sans-Serif" font-size="10.00" fill="#000000">qjs::Context::eval</text>
</a>
</g>
</g>
<!-- Node361123&#45;&gt;Node361124 -->
<g id="edge2" class="edge">
<title>Node361123&#45;&gt;Node361124</title>
<path fill="none" stroke="#191970" d="M156.3886,-82.1739C167.9207,-89.6112 182.387,-98.3697 196,-105 203.0506,-108.434 210.8903,-111.6385 218.2663,-114.4014"/>
<polygon fill="#191970" stroke="#191970" points="158.1211,-79.1243 147.8416,-76.5585 154.2774,-84.9747 158.1211,-79.1243"/>
</g>
<!-- Node361127 -->
<g id="node6" class="node">
<title>Node361127</title>
<g id="a_node6"><a xlink:href="quickjs-libc_8c.html#acedf696011fa506afce358928ffa1522" target="_top" xlink:title="js_loadScript">
<polygon fill="none" stroke="#000000" points="207.5,-76.5 207.5,-95.5 286.5,-95.5 286.5,-76.5 207.5,-76.5"/>
<text text-anchor="middle" x="247" y="-83.5" font-family="Helvetica,sans-Serif" font-size="10.00" fill="#000000">js_loadScript</text>
</a>
</g>
</g>
<!-- Node361123&#45;&gt;Node361127 -->
<g id="edge6" class="edge">
<title>Node361123&#45;&gt;Node361127</title>
<path fill="none" stroke="#191970" d="M170.1682,-73.0814C181.9729,-75.0662 195.1439,-77.2808 207.2002,-79.308"/>
<polygon fill="#191970" stroke="#191970" points="170.6504,-69.6134 160.2085,-71.4067 169.4897,-76.5165 170.6504,-69.6134"/>
</g>
<!-- Node361133 -->
<g id="node9" class="node">
<title>Node361133</title>
<g id="a_node9"><a xlink:href="quickjs-libc_8c.html#ad61d60681847f324c5ba4ad88c546f1e" target="_top" xlink:title="js_module_loader">
<polygon fill="none" stroke="#000000" points="342,-38.5 342,-57.5 445,-57.5 445,-38.5 342,-38.5"/>
<text text-anchor="middle" x="393.5" y="-45.5" font-family="Helvetica,sans-Serif" font-size="10.00" fill="#000000">js_module_loader</text>
</a>
</g>
</g>
<!-- Node361123&#45;&gt;Node361133 -->
<g id="edge10" class="edge">
<title>Node361123&#45;&gt;Node361133</title>
<path fill="none" stroke="#191970" d="M170.411,-64.3341C215.0387,-61.0665 290.965,-55.5074 341.672,-51.7947"/>
<polygon fill="#191970" stroke="#191970" points="170.028,-60.8526 160.3103,-65.0736 170.5392,-67.834 170.028,-60.8526"/>
</g>
<!-- Node361134 -->
<g id="node10" class="node">
<title>Node361134</title>
<g id="a_node10"><a xlink:href="quickjs-libc_8c.html#a55f6cd4bbd0e676992642d066fd1d9fd" target="_top" xlink:title="js_evalScript">
<polygon fill="none" stroke="#000000" points="207.5,-.5 207.5,-19.5 286.5,-19.5 286.5,-.5 207.5,-.5"/>
<text text-anchor="middle" x="247" y="-7.5" font-family="Helvetica,sans-Serif" font-size="10.00" fill="#000000">js_evalScript</text>
</a>
</g>
</g>
<!-- Node361123&#45;&gt;Node361134 -->
<g id="edge13" class="edge">
<title>Node361123&#45;&gt;Node361134</title>
<path fill="none" stroke="#191970" d="M160.5508,-52.4988C171.4691,-46.6324 184.2797,-39.8723 196,-34 205.7987,-29.0904 216.7852,-23.883 226.0448,-19.578"/>
<polygon fill="#191970" stroke="#191970" points="158.6521,-49.5464 151.5181,-57.3794 161.9798,-55.7049 158.6521,-49.5464"/>
</g>
<!-- Node361125 -->
<g id="node4" class="node">
<title>Node361125</title>
<g id="a_node4"><a xlink:href="qjs_8cpp.html#a3c04138a5bfe5d72780bb7e82a18e627" target="_top" xlink:title="main">
<polygon fill="none" stroke="#000000" points="507,-95.5 507,-114.5 548,-114.5 548,-95.5 507,-95.5"/>
<text text-anchor="middle" x="527.5" y="-102.5" font-family="Helvetica,sans-Serif" font-size="10.00" fill="#000000">main</text>
</a>
</g>
</g>
<!-- Node361124&#45;&gt;Node361125 -->
<g id="edge3" class="edge">
<title>Node361124&#45;&gt;Node361125</title>
<path fill="none" stroke="#191970" d="M289.8464,-135.9688C331.924,-145.8567 397.6715,-156.2958 453,-143 475.7291,-137.538 499.3358,-123.9163 513.7262,-114.5586"/>
<polygon fill="#191970" stroke="#191970" points="290.4851,-132.5219 279.94,-133.5478 288.8232,-139.3218 290.4851,-132.5219"/>
</g>
<!-- Node361126 -->
<g id="node5" class="node">
<title>Node361126</title>
<g id="a_node5"><a xlink:href="classqjs_1_1Context.html#a003bfbb1ead4106d2f1fad18cedbdad1" target="_top" xlink:title="qjs::Context::evalFile">
<polygon fill="none" stroke="#000000" points="334,-114.5 334,-133.5 453,-133.5 453,-114.5 334,-114.5"/>
<text text-anchor="middle" x="393.5" y="-121.5" font-family="Helvetica,sans-Serif" font-size="10.00" fill="#000000">qjs::Context::evalFile</text>
</a>
</g>
</g>
<!-- Node361124&#45;&gt;Node361126 -->
<g id="edge4" class="edge">
<title>Node361124&#45;&gt;Node361126</title>
<path fill="none" stroke="#191970" d="M308.3527,-124C316.757,-124 325.376,-124 333.7511,-124"/>
<polygon fill="#191970" stroke="#191970" points="308.2386,-120.5001 298.2386,-124 308.2386,-127.5001 308.2386,-120.5001"/>
</g>
<!-- Node361126&#45;&gt;Node361125 -->
<g id="edge5" class="edge">
<title>Node361126&#45;&gt;Node361125</title>
<path fill="none" stroke="#191970" d="M463.043,-114.1394C479.0974,-111.8631 494.9569,-109.6143 506.9271,-107.9171"/>
<polygon fill="#191970" stroke="#191970" points="462.4643,-110.6864 453.0547,-115.5557 463.4471,-117.6171 462.4643,-110.6864"/>
</g>
<!-- Node361128 -->
<g id="node7" class="node">
<title>Node361128</title>
<g id="a_node7"><a xlink:href="quickjs-libc_8c.html#ad04466feec6822a3b838baf229f6dfa0" target="_top" xlink:title="js_std_add_helpers">
<polygon fill="none" stroke="#000000" points="338.5,-76.5 338.5,-95.5 448.5,-95.5 448.5,-76.5 338.5,-76.5"/>
<text text-anchor="middle" x="393.5" y="-83.5" font-family="Helvetica,sans-Serif" font-size="10.00" fill="#000000">js_std_add_helpers</text>
</a>
</g>
</g>
<!-- Node361127&#45;&gt;Node361128 -->
<g id="edge7" class="edge">
<title>Node361127&#45;&gt;Node361128</title>
<path fill="none" stroke="#191970" d="M296.6534,-86C310.089,-86 324.7104,-86 338.4245,-86"/>
<polygon fill="#191970" stroke="#191970" points="296.645,-82.5001 286.645,-86 296.645,-89.5001 296.645,-82.5001"/>
</g>
<!-- Node361128&#45;&gt;Node361125 -->
<g id="edge8" class="edge">
<title>Node361128&#45;&gt;Node361125</title>
<path fill="none" stroke="#191970" d="M458.9404,-95.2789C476.29,-97.7389 493.779,-100.2187 506.7508,-102.058"/>
<polygon fill="#191970" stroke="#191970" points="459.1689,-91.7763 448.7766,-93.8377 458.1862,-98.707 459.1689,-91.7763"/>
</g>
<!-- Node361129 -->
<g id="node8" class="node">
<title>Node361129</title>
<g id="a_node8"><a xlink:href="quickjs-libc_8c.html#a1fbb3adc15e7b967479fc1940e99b67a" target="_top" xlink:title="worker_func">
<polygon fill="none" stroke="#ff0000" points="489,-57.5 489,-76.5 566,-76.5 566,-57.5 489,-57.5"/>
<text text-anchor="middle" x="527.5" y="-64.5" font-family="Helvetica,sans-Serif" font-size="10.00" fill="#000000">worker_func</text>
</a>
</g>
</g>
<!-- Node361128&#45;&gt;Node361129 -->
<g id="edge9" class="edge">
<title>Node361128&#45;&gt;Node361129</title>
<path fill="none" stroke="#191970" d="M458.9198,-76.7241C469.1144,-75.2786 479.3577,-73.8261 488.7051,-72.5008"/>
<polygon fill="#191970" stroke="#191970" points="458.1862,-73.293 448.7766,-78.1623 459.1689,-80.2237 458.1862,-73.293"/>
</g>
<!-- Node361133&#45;&gt;Node361125 -->
<g id="edge11" class="edge">
<title>Node361133&#45;&gt;Node361125</title>
<path fill="none" stroke="#191970" d="M436.7673,-60.8236C442.2851,-62.7483 447.8131,-64.8231 453,-67 469.6821,-74.0012 472.8867,-77.7738 489,-86 495.1075,-89.118 501.7975,-92.4488 507.8626,-95.4368"/>
<polygon fill="#191970" stroke="#191970" points="437.5159,-57.3835 426.9221,-57.5316 435.296,-64.0222 437.5159,-57.3835"/>
</g>
<!-- Node361133&#45;&gt;Node361129 -->
<g id="edge12" class="edge">
<title>Node361133&#45;&gt;Node361129</title>
<path fill="none" stroke="#191970" d="M455.2386,-56.754C466.637,-58.3702 478.2398,-60.0153 488.7163,-61.5008"/>
<polygon fill="#191970" stroke="#191970" points="455.7003,-53.2845 445.3079,-55.3459 454.7175,-60.2152 455.7003,-53.2845"/>
</g>
</g>
</svg>
        <g id="navigator" transform="translate(0 0)" fill="#404254">
                <rect fill="#f2f5e9" fill-opacity="0.5" stroke="#606060" stroke-width=".5" x="0" y="0" width="60" height="60"/>
                <use id="zoomplus" xlink:href="#zoomPlus" x="17" y="9" onmousedown="handleZoom(evt,'in')"/>
                <use id="zoomminus" xlink:href="#zoomMin" x="42" y="9" onmousedown="handleZoom(evt,'out')"/>
                <use id="reset" xlink:href="#resetDef" x="30" y="36" onmousedown="handleReset()"/>
                <g id="arrowUp" xlink:href="#dirArrow" transform="translate(30 24)" onmousedown="handlePan(0,-1)">
                  <use xlink:href="#rim" fill="#404040">
                        <set attributeName="fill" to="#808080" begin="arrowUp.mouseover" end="arrowUp.mouseout"/>
                  </use>
                  <path fill="none" stroke="white" stroke-width="1.5" d="M0,-3.0v7 M-2.5,-0.5L0,-3.0L2.5,-0.5"/>
                </g>
                <g id="arrowRight" xlink:href="#dirArrow" transform="rotate(90) translate(36 -43)" onmousedown="handlePan(1,0)">
                  <use xlink:href="#rim" fill="#404040">
                        <set attributeName="fill" to="#808080" begin="arrowRight.mouseover" end="arrowRight.mouseout"/>
                  </use>
                  <path fill="none" stroke="white" stroke-width="1.5" d="M0,-3.0v7 M-2.5,-0.5L0,-3.0L2.5,-0.5"/>
                </g>
                <g id="arrowDown" xlink:href="#dirArrow" transform="rotate(180) translate(-30 -48)" onmousedown="handlePan(0,1)">
                  <use xlink:href="#rim" fill="#404040">
                        <set attributeName="fill" to="#808080" begin="arrowDown.mouseover" end="arrowDown.mouseout"/>
                  </use>
                  <path fill="none" stroke="white" stroke-width="1.5" d="M0,-3.0v7 M-2.5,-0.5L0,-3.0L2.5,-0.5"/>
                </g>
                <g id="arrowLeft" xlink:href="#dirArrow" transform="rotate(270) translate(-36 17)" onmousedown="handlePan(-1,0)">
                  <use xlink:href="#rim" fill="#404040">
                        <set attributeName="fill" to="#808080" begin="arrowLeft.mouseover" end="arrowLeft.mouseout"/>
                  </use>
                  <path fill="none" stroke="white" stroke-width="1.5" d="M0,-3.0v7 M-2.5,-0.5L0,-3.0L2.5,-0.5"/>
                </g>
        </g>
        <svg viewBox="0 0 15 15" width="100%" height="30px" preserveAspectRatio="xMaxYMin meet">
         <g id="arrow_out" transform="scale(0.3 0.3)">
          <a xlink:href="quickjs_8c_a99d6f8b4fcb9989546e5fb13d65aaf55_icgraph_org.svg" target="_base">
           <rect id="button" ry="5" rx="5" y="6" x="6" height="38" width="38"
                fill="#f2f5e9" fill-opacity="0.5" stroke="#606060" stroke-width="1.0"/>
           <path id="arrow"
             d="M 11.500037,31.436501 C 11.940474,20.09759 22.043105,11.32322 32.158766,21.979434 L 37.068811,17.246167 C 37.068811,17.246167 37.088388,32 37.088388,32 L 22.160133,31.978069 C 22.160133,31.978069 26.997745,27.140456 26.997745,27.140456 C 18.528582,18.264221 13.291696,25.230495 11.500037,31.436501 z"
             style="fill:#404040;"/>
          </a>
         </g>
        </svg>
</svg>
