<?xml version="1.0" encoding="UTF-8" standalone="no"?>
<!DOCTYPE svg PUBLIC "-//W3C//DTD SVG 1.1//EN"
 "http://www.w3.org/Graphics/SVG/1.1/DTD/svg11.dtd">
<!-- Generated by graphviz version 2.40.1 (20161225.0304)
 -->
<!-- Title: JS_RunGC Pages: 1 -->
<!--zoomable 495 -->
<svg id="main" version="1.1" xmlns="http://www.w3.org/2000/svg" xmlns:xlink="http://www.w3.org/1999/xlink" xml:space="preserve" onload="init(evt)">
<style type="text/css"><![CDATA[
.edge:hover path { stroke: red; }
.edge:hover polygon { stroke: red; fill: red; }
]]></style>
<script type="text/javascript"><![CDATA[
var edges = document.getElementsByTagName('g');
if (edges && edges.length) {
  for (var i=0;i<edges.length;i++) {
    if (edges[i].id.substr(0,4)=='edge') {
      edges[i].setAttribute('class','edge');
    }
  }
}
]]></script>
        <defs>
                <circle id="rim" cx="0" cy="0" r="7"/>
                <circle id="rim2" cx="0" cy="0" r="3.5"/>
                <g id="zoomPlus">
                        <use xlink:href="#rim" fill="#404040">
                                <set attributeName="fill" to="#808080" begin="zoomplus.mouseover" end="zoomplus.mouseout"/>
                        </use>
                        <path d="M-4,0h8M0,-4v8" fill="none" stroke="white" stroke-width="1.5" pointer-events="none"/>
                </g>
                <g id="zoomMin">
                        <use xlink:href="#rim" fill="#404040">
                                <set attributeName="fill" to="#808080" begin="zoomminus.mouseover" end="zoomminus.mouseout"/>
                        </use>
                        <path d="M-4,0h8" fill="none" stroke="white" stroke-width="1.5" pointer-events="none"/>
                </g>
                <g id="dirArrow">
                        <path fill="none" stroke="white" stroke-width="1.5" d="M0,-3.0v7 M-2.5,-0.5L0,-3.0L2.5,-0.5"/>
                </g>
               <g id="resetDef">
                       <use xlink:href="#rim2" fill="#404040">
                               <set attributeName="fill" to="#808080" begin="reset.mouseover" end="reset.mouseout"/>
                       </use>
               </g>
        </defs>

<script type="text/javascript">
var viewWidth = 652;
var viewHeight = 495;
var sectionId = 'dynsection-475';
</script>
<script xlink:href="svgpan.js"/>
<svg id="graph" class="graph">
<g id="viewport">
<title>JS_RunGC</title>
<!-- Node160332 -->
<g id="node1" class="node">
<title>Node160332</title>
<polygon fill="#bfbfbf" stroke="#000000" points="0,-295.5593 0,-314.5593 63,-314.5593 63,-295.5593 0,-295.5593"/>
<text text-anchor="middle" x="31.5" y="-302.5593" font-family="Helvetica,sans-Serif" font-size="10.00" fill="#000000">JS_RunGC</text>
</g>
<!-- Node160333 -->
<g id="node2" class="node">
<title>Node160333</title>
<g id="a_node2"><a xlink:href="quickjs_8c.html#ae09ca4f159971d3c1f1dafc8682ba04b" target="_top" xlink:title="gc_decref">
<polygon fill="none" stroke="#000000" points="111.5,-390.5593 111.5,-409.5593 175.5,-409.5593 175.5,-390.5593 111.5,-390.5593"/>
<text text-anchor="middle" x="143.5" y="-397.5593" font-family="Helvetica,sans-Serif" font-size="10.00" fill="#000000">gc_decref</text>
</a>
</g>
</g>
<!-- Node160332&#45;&gt;Node160333 -->
<g id="edge1" class="edge">
<title>Node160332&#45;&gt;Node160333</title>
<path fill="none" stroke="#191970" d="M43.0641,-314.8682C62.2781,-331.1658 100.9705,-363.9851 124.3213,-383.7916"/>
<polygon fill="#191970" stroke="#191970" points="122.2754,-386.6458 132.1656,-390.4453 126.8035,-381.3075 122.2754,-386.6458"/>
</g>
<!-- Node160347 -->
<g id="node13" class="node">
<title>Node160347</title>
<g id="a_node13"><a xlink:href="quickjs_8c.html#af7c53b26778d6b7e155fab5349a4585e" target="_top" xlink:title="gc_free_cycles">
<polygon fill="none" stroke="#000000" points="99,-295.5593 99,-314.5593 188,-314.5593 188,-295.5593 99,-295.5593"/>
<text text-anchor="middle" x="143.5" y="-302.5593" font-family="Helvetica,sans-Serif" font-size="10.00" fill="#000000">gc_free_cycles</text>
</a>
</g>
</g>
<!-- Node160332&#45;&gt;Node160347 -->
<g id="edge16" class="edge">
<title>Node160332&#45;&gt;Node160347</title>
<path fill="none" stroke="#191970" d="M63.2951,-305.0593C71.1972,-305.0593 79.8956,-305.0593 88.5601,-305.0593"/>
<polygon fill="#191970" stroke="#191970" points="88.6662,-308.5594 98.6662,-305.0593 88.6662,-301.5594 88.6662,-308.5594"/>
</g>
<!-- Node160381 -->
<g id="node18" class="node">
<title>Node160381</title>
<g id="a_node18"><a xlink:href="quickjs_8c.html#adee2db09b659dd2c1a1a3c408658a753" target="_top" xlink:title="gc_scan">
<polygon fill="none" stroke="#000000" points="115.5,-200.5593 115.5,-219.5593 171.5,-219.5593 171.5,-200.5593 115.5,-200.5593"/>
<text text-anchor="middle" x="143.5" y="-207.5593" font-family="Helvetica,sans-Serif" font-size="10.00" fill="#000000">gc_scan</text>
</a>
</g>
</g>
<!-- Node160332&#45;&gt;Node160381 -->
<g id="edge29" class="edge">
<title>Node160332&#45;&gt;Node160381</title>
<path fill="none" stroke="#191970" d="M43.0641,-295.2505C62.2781,-278.9528 100.9705,-246.1335 124.3213,-226.327"/>
<polygon fill="#191970" stroke="#191970" points="126.8035,-228.8111 132.1656,-219.6733 122.2754,-223.4728 126.8035,-228.8111"/>
</g>
<!-- Node160334 -->
<g id="node3" class="node">
<title>Node160334</title>
<g id="a_node3"><a xlink:href="quickjs_8c.html#a765db9341ea8163ebb7b0b61c7127752" target="_top" xlink:title="gc_decref_child">
<polygon fill="none" stroke="#000000" points="239.5,-447.5593 239.5,-466.5593 331.5,-466.5593 331.5,-447.5593 239.5,-447.5593"/>
<text text-anchor="middle" x="285.5" y="-454.5593" font-family="Helvetica,sans-Serif" font-size="10.00" fill="#000000">gc_decref_child</text>
</a>
</g>
</g>
<!-- Node160333&#45;&gt;Node160334 -->
<g id="edge2" class="edge">
<title>Node160333&#45;&gt;Node160334</title>
<path fill="none" stroke="#191970" d="M166.7075,-409.6948C182.7667,-416.3325 204.6471,-425.317 224,-433.0593 232.8306,-436.5921 242.3986,-440.3564 251.2978,-443.8309"/>
<polygon fill="#191970" stroke="#191970" points="250.0371,-447.0959 260.6256,-447.4627 252.5769,-440.5729 250.0371,-447.0959"/>
</g>
<!-- Node160335 -->
<g id="node4" class="node">
<title>Node160335</title>
<g id="a_node4"><a xlink:href="list_8h.html#a3a5d0733570b2fafc18f4c71a2968ea5" target="_top" xlink:title="list_add_tail">
<polygon fill="none" stroke="#ff0000" points="559,-314.5593 559,-333.5593 635,-333.5593 635,-314.5593 559,-314.5593"/>
<text text-anchor="middle" x="597" y="-321.5593" font-family="Helvetica,sans-Serif" font-size="10.00" fill="#000000">list_add_tail</text>
</a>
</g>
</g>
<!-- Node160333&#45;&gt;Node160335 -->
<g id="edge6" class="edge">
<title>Node160333&#45;&gt;Node160335</title>
<path fill="none" stroke="#191970" d="M149.8358,-409.6475C161.8655,-426.8677 189.8856,-462.4997 224,-476.0593 274.8009,-496.2513 292.5932,-481.3834 347,-476.0593 422.2978,-468.6909 450.6503,-484.4219 514,-443.0593 551.7973,-418.3805 577.3501,-369.937 589.2788,-343.0955"/>
<polygon fill="#191970" stroke="#191970" points="592.6017,-344.2259 593.3058,-333.6545 586.163,-341.4795 592.6017,-344.2259"/>
</g>
<!-- Node160337 -->
<g id="node5" class="node">
<title>Node160337</title>
<g id="a_node5"><a xlink:href="list_8h.html#ab60d5d18869ebeb5d6ab694289576fa7" target="_top" xlink:title="list_del">
<polygon fill="none" stroke="#000000" points="422.5,-381.5593 422.5,-400.5593 474.5,-400.5593 474.5,-381.5593 422.5,-381.5593"/>
<text text-anchor="middle" x="448.5" y="-388.5593" font-family="Helvetica,sans-Serif" font-size="10.00" fill="#000000">list_del</text>
</a>
</g>
</g>
<!-- Node160333&#45;&gt;Node160337 -->
<g id="edge7" class="edge">
<title>Node160333&#45;&gt;Node160337</title>
<path fill="none" stroke="#191970" d="M175.5932,-400.9348C215.7099,-401.8275 286.4685,-402.7377 347,-400.0593 368.6223,-399.1026 392.7597,-397.0047 412.0698,-395.075"/>
<polygon fill="#191970" stroke="#191970" points="412.6646,-398.5324 422.2545,-394.0286 411.9491,-391.5691 412.6646,-398.5324"/>
</g>
<!-- Node160338 -->
<g id="node6" class="node">
<title>Node160338</title>
<g id="a_node6"><a xlink:href="list_8h.html#a663527a4d757540b2177bef0db1ce5c0" target="_top" xlink:title="init_list_head">
<polygon fill="none" stroke="#000000" points="244.5,-371.5593 244.5,-390.5593 326.5,-390.5593 326.5,-371.5593 244.5,-371.5593"/>
<text text-anchor="middle" x="285.5" y="-378.5593" font-family="Helvetica,sans-Serif" font-size="10.00" fill="#000000">init_list_head</text>
</a>
</g>
</g>
<!-- Node160333&#45;&gt;Node160338 -->
<g id="edge5" class="edge">
<title>Node160333&#45;&gt;Node160338</title>
<path fill="none" stroke="#191970" d="M175.722,-395.7479C193.0727,-393.4263 214.8804,-390.5084 234.4775,-387.8863"/>
<polygon fill="#191970" stroke="#191970" points="235.0413,-391.3421 244.4888,-386.5467 234.1129,-384.4039 235.0413,-391.3421"/>
</g>
<!-- Node160339 -->
<g id="node7" class="node">
<title>Node160339</title>
<g id="a_node7"><a xlink:href="quickjs_8c.html#aa863a9d565bac49a2a76d10009eabd5c" target="_top" xlink:title="mark_children">
<polygon fill="none" stroke="#000000" points="242.5,-124.5593 242.5,-143.5593 328.5,-143.5593 328.5,-124.5593 242.5,-124.5593"/>
<text text-anchor="middle" x="285.5" y="-131.5593" font-family="Helvetica,sans-Serif" font-size="10.00" fill="#000000">mark_children</text>
</a>
</g>
</g>
<!-- Node160333&#45;&gt;Node160339 -->
<g id="edge8" class="edge">
<title>Node160333&#45;&gt;Node160339</title>
<path fill="none" stroke="#191970" d="M150.3006,-390.1202C159.7569,-375.9604 176.9573,-348.9343 188,-324.0593 209.5584,-275.4965 198.8488,-256.8624 224,-210.0593 235.9313,-187.8567 254.7146,-165.8393 268.3857,-151.2632"/>
<polygon fill="#191970" stroke="#191970" points="270.9795,-153.6153 275.3789,-143.977 265.9292,-148.7681 270.9795,-153.6153"/>
</g>
<!-- Node160334&#45;&gt;Node160335 -->
<g id="edge3" class="edge">
<title>Node160334&#45;&gt;Node160335</title>
<path fill="none" stroke="#191970" d="M331.6021,-455.5266C379.811,-452.1718 456.3382,-441.7853 514,-410.0593 544.4271,-393.318 570.5454,-361.7083 584.9836,-341.8271"/>
<polygon fill="#191970" stroke="#191970" points="587.8719,-343.8044 590.7689,-333.6134 582.149,-339.7735 587.8719,-343.8044"/>
</g>
<!-- Node160334&#45;&gt;Node160337 -->
<g id="edge4" class="edge">
<title>Node160334&#45;&gt;Node160337</title>
<path fill="none" stroke="#191970" d="M310.3819,-447.4812C321.5924,-443.1319 334.9832,-437.8897 347,-433.0593 370.2655,-423.7072 396.4075,-412.8824 416.3338,-404.5647"/>
<polygon fill="#191970" stroke="#191970" points="417.7007,-407.7868 425.5767,-400.7003 415.0005,-401.3286 417.7007,-407.7868"/>
</g>
<!-- Node160340 -->
<g id="node8" class="node">
<title>Node160340</title>
<g id="a_node8"><a xlink:href="quickjs_8c.html#a440c98b7712cdebdd1669145e347aeee" target="_top" xlink:title="async_func_mark">
<polygon fill="none" stroke="#000000" points="397.5,-67.5593 397.5,-86.5593 499.5,-86.5593 499.5,-67.5593 397.5,-67.5593"/>
<text text-anchor="middle" x="448.5" y="-74.5593" font-family="Helvetica,sans-Serif" font-size="10.00" fill="#000000">async_func_mark</text>
</a>
</g>
</g>
<!-- Node160339&#45;&gt;Node160340 -->
<g id="edge9" class="edge">
<title>Node160339&#45;&gt;Node160340</title>
<path fill="none" stroke="#191970" d="M317.8784,-124.5296C327.3132,-121.6251 337.608,-118.3317 347,-115.0593 363.2115,-109.4109 366.9396,-107.1239 383,-101.0593 392.5022,-97.4712 402.8082,-93.6583 412.3716,-90.1529"/>
<polygon fill="#191970" stroke="#191970" points="413.8125,-93.3528 422.0041,-86.6336 411.4102,-86.7779 413.8125,-93.3528"/>
</g>
<!-- Node160341 -->
<g id="node9" class="node">
<title>Node160341</title>
<g id="a_node9"><a xlink:href="quickjs_8c.html#ab05309c79261e2042dfebf3dc7f7d039" target="_top" xlink:title="JS_MarkValue">
<polygon fill="none" stroke="#000000" points="556,-29.5593 556,-48.5593 638,-48.5593 638,-29.5593 556,-29.5593"/>
<text text-anchor="middle" x="597" y="-36.5593" font-family="Helvetica,sans-Serif" font-size="10.00" fill="#000000">JS_MarkValue</text>
</a>
</g>
</g>
<!-- Node160339&#45;&gt;Node160341 -->
<g id="edge15" class="edge">
<title>Node160339&#45;&gt;Node160341</title>
<path fill="none" stroke="#191970" d="M328.5937,-126.291C335.3368,-123.5916 341.787,-119.9558 347,-115.0593 379.9107,-84.1465 345.8439,-45.7136 383,-20.0593 438.7868,18.4585 523.2292,-7.2944 567.5173,-25.4722"/>
<polygon fill="#191970" stroke="#191970" points="566.2746,-28.747 576.8471,-29.4355 569.0116,-22.3042 566.2746,-28.747"/>
</g>
<!-- Node160342 -->
<g id="node10" class="node">
<title>Node160342</title>
<g id="a_node10"><a xlink:href="quickjs_8c.html#a643df594b75933007bcdbb071b5ea8c5" target="_top" xlink:title="get_shape_prop">
<polygon fill="none" stroke="#000000" points="550,-143.5593 550,-162.5593 644,-162.5593 644,-143.5593 550,-143.5593"/>
<text text-anchor="middle" x="597" y="-150.5593" font-family="Helvetica,sans-Serif" font-size="10.00" fill="#000000">get_shape_prop</text>
</a>
</g>
</g>
<!-- Node160339&#45;&gt;Node160342 -->
<g id="edge11" class="edge">
<title>Node160339&#45;&gt;Node160342</title>
<path fill="none" stroke="#191970" d="M328.6183,-131.1848C374.6795,-128.7842 449.7466,-126.7989 514,-134.0593 526.9814,-135.5262 540.8914,-138.2445 553.5419,-141.1756"/>
<polygon fill="#191970" stroke="#191970" points="552.8331,-144.605 563.3755,-143.5519 554.4774,-137.8008 552.8331,-144.605"/>
</g>
<!-- Node160343 -->
<g id="node11" class="node">
<title>Node160343</title>
<g id="a_node11"><a xlink:href="quickjs_8c.html#a971043be2cd86b47e27c9217f78fb8cb" target="_top" xlink:title="js_autoinit_mark">
<polygon fill="none" stroke="#ff0000" points="399.5,-143.5593 399.5,-162.5593 497.5,-162.5593 497.5,-143.5593 399.5,-143.5593"/>
<text text-anchor="middle" x="448.5" y="-150.5593" font-family="Helvetica,sans-Serif" font-size="10.00" fill="#000000">js_autoinit_mark</text>
</a>
</g>
</g>
<!-- Node160339&#45;&gt;Node160343 -->
<g id="edge12" class="edge">
<title>Node160339&#45;&gt;Node160343</title>
<path fill="none" stroke="#191970" d="M328.7531,-139.1011C347.3104,-141.2642 369.2891,-143.8261 389.3191,-146.1609"/>
<polygon fill="#191970" stroke="#191970" points="388.9405,-149.6404 399.2785,-147.3218 389.751,-142.6875 388.9405,-149.6404"/>
</g>
<!-- Node160345 -->
<g id="node12" class="node">
<title>Node160345</title>
<g id="a_node12"><a xlink:href="quickjs_8c.html#a7b4ca0877b507766c40c28209ecef13a" target="_top" xlink:title="JS_MarkContext">
<polygon fill="none" stroke="#ff0000" points="402,-29.5593 402,-48.5593 495,-48.5593 495,-29.5593 402,-29.5593"/>
<text text-anchor="middle" x="448.5" y="-36.5593" font-family="Helvetica,sans-Serif" font-size="10.00" fill="#000000">JS_MarkContext</text>
</a>
</g>
</g>
<!-- Node160339&#45;&gt;Node160345 -->
<g id="edge13" class="edge">
<title>Node160339&#45;&gt;Node160345</title>
<path fill="none" stroke="#191970" d="M328.7682,-124.996C335.2633,-122.4523 341.588,-119.204 347,-115.0593 370.7883,-96.8413 359.0549,-76.0707 383,-58.0593 385.9658,-55.8284 389.1873,-53.859 392.5573,-52.1205"/>
<polygon fill="#191970" stroke="#191970" points="394.0333,-55.2947 401.7515,-48.0367 391.1917,-48.8974 394.0333,-55.2947"/>
</g>
<!-- Node160340&#45;&gt;Node160341 -->
<g id="edge10" class="edge">
<title>Node160340&#45;&gt;Node160341</title>
<path fill="none" stroke="#191970" d="M485.9728,-67.4703C505.3925,-62.501 529.3025,-56.3826 549.9542,-51.098"/>
<polygon fill="#191970" stroke="#191970" points="550.9765,-54.4492 559.7966,-48.5794 549.2411,-47.6677 550.9765,-54.4492"/>
</g>
<!-- Node160345&#45;&gt;Node160341 -->
<g id="edge14" class="edge">
<title>Node160345&#45;&gt;Node160341</title>
<path fill="none" stroke="#191970" d="M495.0789,-39.0593C510.9876,-39.0593 528.8739,-39.0593 545.1703,-39.0593"/>
<polygon fill="#191970" stroke="#191970" points="545.6129,-42.5594 555.6129,-39.0593 545.6129,-35.5594 545.6129,-42.5594"/>
</g>
<!-- Node160347&#45;&gt;Node160335 -->
<g id="edge27" class="edge">
<title>Node160347&#45;&gt;Node160335</title>
<path fill="none" stroke="#191970" d="M188.2244,-306.9331C273.8815,-310.5218 460.4055,-318.3365 548.7506,-322.0378"/>
<polygon fill="#191970" stroke="#191970" points="548.6325,-325.5359 558.7702,-322.4576 548.9255,-318.542 548.6325,-325.5359"/>
</g>
<!-- Node160347&#45;&gt;Node160337 -->
<g id="edge28" class="edge">
<title>Node160347&#45;&gt;Node160337</title>
<path fill="none" stroke="#191970" d="M177.7212,-314.5861C218.1723,-325.8608 287.5127,-345.2301 347,-362.0593 368.7745,-368.2194 393.1573,-375.1837 412.5665,-380.7434"/>
<polygon fill="#191970" stroke="#191970" points="411.6454,-384.1203 422.2227,-383.511 413.5741,-377.3912 411.6454,-384.1203"/>
</g>
<!-- Node160347&#45;&gt;Node160338 -->
<g id="edge25" class="edge">
<title>Node160347&#45;&gt;Node160338</title>
<path fill="none" stroke="#191970" d="M156.6753,-314.7563C172.2229,-325.9138 199.1147,-344.3306 224,-357.0593 231.5445,-360.9183 239.8612,-364.5502 247.8746,-367.7642"/>
<polygon fill="#191970" stroke="#191970" points="246.8374,-371.1158 257.4265,-371.4646 249.3661,-364.5885 246.8374,-371.1158"/>
</g>
<!-- Node160348 -->
<g id="node14" class="node">
<title>Node160348</title>
<g id="a_node14"><a xlink:href="quickjs_8c.html#a3d1c7a8d6aa5a9ba8ea8ef2828db188a" target="_top" xlink:title="free_gc_object">
<polygon fill="none" stroke="#000000" points="241.5,-219.5593 241.5,-238.5593 329.5,-238.5593 329.5,-219.5593 241.5,-219.5593"/>
<text text-anchor="middle" x="285.5" y="-226.5593" font-family="Helvetica,sans-Serif" font-size="10.00" fill="#000000">free_gc_object</text>
</a>
</g>
</g>
<!-- Node160347&#45;&gt;Node160348 -->
<g id="edge17" class="edge">
<title>Node160347&#45;&gt;Node160348</title>
<path fill="none" stroke="#191970" d="M154.504,-295.5298C169.3718,-283.0785 197.1191,-261.3066 224,-248.0593 228.5812,-245.8016 233.4868,-243.7445 238.455,-241.8882"/>
<polygon fill="#191970" stroke="#191970" points="239.7197,-245.1541 248.0173,-238.5663 237.4225,-238.5418 239.7197,-245.1541"/>
</g>
<!-- Node160357 -->
<g id="node16" class="node">
<title>Node160357</title>
<g id="a_node16"><a xlink:href="quickjs_8c.html#a69e19dda8a93d613203e0baa06f0ed8d" target="_top" xlink:title="js_free_rt">
<polygon fill="none" stroke="#000000" points="566,-219.5593 566,-238.5593 628,-238.5593 628,-219.5593 566,-219.5593"/>
<text text-anchor="middle" x="597" y="-226.5593" font-family="Helvetica,sans-Serif" font-size="10.00" fill="#000000">js_free_rt</text>
</a>
</g>
</g>
<!-- Node160347&#45;&gt;Node160357 -->
<g id="edge26" class="edge">
<title>Node160347&#45;&gt;Node160357</title>
<path fill="none" stroke="#191970" d="M148.0434,-295.4109C158.2464,-275.0432 185.163,-228.0552 224,-210.0593 337.2697,-157.5736 491.1399,-194.781 560.4741,-216.4564"/>
<polygon fill="#191970" stroke="#191970" points="559.4844,-219.8145 570.0754,-219.5292 561.6181,-213.1476 559.4844,-219.8145"/>
</g>
<!-- Node160349 -->
<g id="node15" class="node">
<title>Node160349</title>
<g id="a_node15"><a xlink:href="quickjs_8c.html#adc4a49d7eb1cc1ec4b3a8c37ab8cb075" target="_top" xlink:title="free_function_bytecode">
<polygon fill="none" stroke="#ff0000" points="383,-257.5593 383,-276.5593 514,-276.5593 514,-257.5593 383,-257.5593"/>
<text text-anchor="middle" x="448.5" y="-264.5593" font-family="Helvetica,sans-Serif" font-size="10.00" fill="#000000">free_function_bytecode</text>
</a>
</g>
</g>
<!-- Node160348&#45;&gt;Node160349 -->
<g id="edge18" class="edge">
<title>Node160348&#45;&gt;Node160349</title>
<path fill="none" stroke="#191970" d="M326.6318,-238.6483C348.2383,-243.6854 374.909,-249.9031 397.7858,-255.2364"/>
<polygon fill="#191970" stroke="#191970" points="397.1305,-258.6774 407.664,-257.5393 398.7198,-251.8602 397.1305,-258.6774"/>
</g>
<!-- Node160377 -->
<g id="node17" class="node">
<title>Node160377</title>
<g id="a_node17"><a xlink:href="quickjs_8c.html#a41a4918c15192dc3489dc3ecb3fdc24d" target="_top" xlink:title="free_object">
<polygon fill="none" stroke="#ff0000" points="413,-219.5593 413,-238.5593 484,-238.5593 484,-219.5593 413,-219.5593"/>
<text text-anchor="middle" x="448.5" y="-226.5593" font-family="Helvetica,sans-Serif" font-size="10.00" fill="#000000">free_object</text>
</a>
</g>
</g>
<!-- Node160348&#45;&gt;Node160377 -->
<g id="edge21" class="edge">
<title>Node160348&#45;&gt;Node160377</title>
<path fill="none" stroke="#191970" d="M329.6101,-229.0593C352.2581,-229.0593 379.8241,-229.0593 402.7084,-229.0593"/>
<polygon fill="#191970" stroke="#191970" points="402.8589,-232.5594 412.8588,-229.0593 402.8588,-225.5594 402.8589,-232.5594"/>
</g>
<!-- Node160349&#45;&gt;Node160335 -->
<g id="edge20" class="edge">
<title>Node160349&#45;&gt;Node160335</title>
<path fill="none" stroke="#191970" d="M475.0131,-276.5884C486.9552,-280.9283 501.2154,-286.1766 514,-291.0593 530.5178,-297.3678 548.7873,-304.6033 563.9713,-310.6886"/>
<polygon fill="#191970" stroke="#191970" points="562.8704,-314.0182 573.4543,-314.5 565.481,-307.5232 562.8704,-314.0182"/>
</g>
<!-- Node160349&#45;&gt;Node160357 -->
<g id="edge19" class="edge">
<title>Node160349&#45;&gt;Node160357</title>
<path fill="none" stroke="#191970" d="M485.9728,-257.4703C507.1867,-252.0418 533.7592,-245.2421 555.589,-239.6561"/>
<polygon fill="#191970" stroke="#191970" points="556.7436,-242.9735 565.5637,-237.1036 555.0082,-236.192 556.7436,-242.9735"/>
</g>
<!-- Node160377&#45;&gt;Node160335 -->
<g id="edge24" class="edge">
<title>Node160377&#45;&gt;Node160335</title>
<path fill="none" stroke="#191970" d="M484.0256,-236.1773C494.0969,-239.0288 504.8128,-242.8978 514,-248.0593 541.374,-263.4383 567.0876,-289.458 582.4382,-306.6988"/>
<polygon fill="#191970" stroke="#191970" points="579.9033,-309.1178 589.1034,-314.3722 585.1881,-304.5274 579.9033,-309.1178"/>
</g>
<!-- Node160377&#45;&gt;Node160342 -->
<g id="edge22" class="edge">
<title>Node160377&#45;&gt;Node160342</title>
<path fill="none" stroke="#191970" d="M467.3076,-219.4339C493.0827,-206.2425 539.5673,-182.4525 569.3204,-167.2253"/>
<polygon fill="#191970" stroke="#191970" points="571.0377,-170.2782 578.3451,-162.6066 567.8486,-164.0468 571.0377,-170.2782"/>
</g>
<!-- Node160377&#45;&gt;Node160357 -->
<g id="edge23" class="edge">
<title>Node160377&#45;&gt;Node160357</title>
<path fill="none" stroke="#191970" d="M484.0694,-229.0593C505.551,-229.0593 533.0255,-229.0593 555.4962,-229.0593"/>
<polygon fill="#191970" stroke="#191970" points="555.7522,-232.5594 565.7521,-229.0593 555.7521,-225.5594 555.7522,-232.5594"/>
</g>
<!-- Node160381&#45;&gt;Node160339 -->
<g id="edge34" class="edge">
<title>Node160381&#45;&gt;Node160339</title>
<path fill="none" stroke="#191970" d="M161.4844,-200.4339C186.0246,-187.2997 230.1967,-163.6583 258.6615,-148.4236"/>
<polygon fill="#191970" stroke="#191970" points="260.4966,-151.4113 267.6616,-143.6066 257.1934,-145.2396 260.4966,-151.4113"/>
</g>
<!-- Node160382 -->
<g id="node19" class="node">
<title>Node160382</title>
<g id="a_node19"><a xlink:href="quickjs_8c.html#abc20b88e7a87b45b51a6dc6ff24f9a9a" target="_top" xlink:title="gc_scan_incref_child">
<polygon fill="none" stroke="#000000" points="227,-257.5593 227,-276.5593 344,-276.5593 344,-257.5593 227,-257.5593"/>
<text text-anchor="middle" x="285.5" y="-264.5593" font-family="Helvetica,sans-Serif" font-size="10.00" fill="#000000">gc_scan_incref_child</text>
</a>
</g>
</g>
<!-- Node160381&#45;&gt;Node160382 -->
<g id="edge30" class="edge">
<title>Node160381&#45;&gt;Node160382</title>
<path fill="none" stroke="#191970" d="M161.7201,-219.5686C177.8282,-227.7548 202.1017,-239.5572 224,-248.0593 229.811,-250.3154 236.0095,-252.4905 242.1508,-254.5126"/>
<polygon fill="#191970" stroke="#191970" points="241.0997,-257.851 251.6903,-257.5541 243.226,-251.1818 241.0997,-257.851"/>
</g>
<!-- Node160383 -->
<g id="node20" class="node">
<title>Node160383</title>
<g id="a_node20"><a xlink:href="quickjs_8c.html#aa76a7a61c337651e4cadfcac05db5cb6" target="_top" xlink:title="gc_scan_incref_child2">
<polygon fill="none" stroke="#000000" points="224,-86.5593 224,-105.5593 347,-105.5593 347,-86.5593 224,-86.5593"/>
<text text-anchor="middle" x="285.5" y="-93.5593" font-family="Helvetica,sans-Serif" font-size="10.00" fill="#000000">gc_scan_incref_child2</text>
</a>
</g>
</g>
<!-- Node160381&#45;&gt;Node160383 -->
<g id="edge33" class="edge">
<title>Node160381&#45;&gt;Node160383</title>
<path fill="none" stroke="#191970" d="M149.0422,-200.4056C160.5297,-181.2521 188.8253,-138.293 224,-115.0593 227.0713,-113.0307 230.3703,-111.2095 233.7876,-109.5761"/>
<polygon fill="#191970" stroke="#191970" points="235.1802,-112.7874 243.0346,-105.6769 232.4604,-106.3373 235.1802,-112.7874"/>
</g>
<!-- Node160382&#45;&gt;Node160335 -->
<g id="edge31" class="edge">
<title>Node160382&#45;&gt;Node160335</title>
<path fill="none" stroke="#191970" d="M333.5735,-276.5931C349.3144,-279.6705 366.8936,-283.0602 383,-286.0593 439.8378,-296.6429 505.2965,-308.1697 548.6971,-315.7196"/>
<polygon fill="#191970" stroke="#191970" points="548.2427,-319.193 558.6942,-317.4562 549.4408,-312.2963 548.2427,-319.193"/>
</g>
<!-- Node160382&#45;&gt;Node160337 -->
<g id="edge32" class="edge">
<title>Node160382&#45;&gt;Node160337</title>
<path fill="none" stroke="#191970" d="M298.0197,-276.5835C325.9215,-297.8094 393.4447,-349.1767 427.7509,-375.2747"/>
<polygon fill="#191970" stroke="#191970" points="425.6349,-378.0627 435.7128,-381.3317 429.8731,-372.4915 425.6349,-378.0627"/>
</g>
</g>
</svg>
        <g id="navigator" transform="translate(0 0)" fill="#404254">
                <rect fill="#f2f5e9" fill-opacity="0.5" stroke="#606060" stroke-width=".5" x="0" y="0" width="60" height="60"/>
                <use id="zoomplus" xlink:href="#zoomPlus" x="17" y="9" onmousedown="handleZoom(evt,'in')"/>
                <use id="zoomminus" xlink:href="#zoomMin" x="42" y="9" onmousedown="handleZoom(evt,'out')"/>
                <use id="reset" xlink:href="#resetDef" x="30" y="36" onmousedown="handleReset()"/>
                <g id="arrowUp" xlink:href="#dirArrow" transform="translate(30 24)" onmousedown="handlePan(0,-1)">
                  <use xlink:href="#rim" fill="#404040">
                        <set attributeName="fill" to="#808080" begin="arrowUp.mouseover" end="arrowUp.mouseout"/>
                  </use>
                  <path fill="none" stroke="white" stroke-width="1.5" d="M0,-3.0v7 M-2.5,-0.5L0,-3.0L2.5,-0.5"/>
                </g>
                <g id="arrowRight" xlink:href="#dirArrow" transform="rotate(90) translate(36 -43)" onmousedown="handlePan(1,0)">
                  <use xlink:href="#rim" fill="#404040">
                        <set attributeName="fill" to="#808080" begin="arrowRight.mouseover" end="arrowRight.mouseout"/>
                  </use>
                  <path fill="none" stroke="white" stroke-width="1.5" d="M0,-3.0v7 M-2.5,-0.5L0,-3.0L2.5,-0.5"/>
                </g>
                <g id="arrowDown" xlink:href="#dirArrow" transform="rotate(180) translate(-30 -48)" onmousedown="handlePan(0,1)">
                  <use xlink:href="#rim" fill="#404040">
                        <set attributeName="fill" to="#808080" begin="arrowDown.mouseover" end="arrowDown.mouseout"/>
                  </use>
                  <path fill="none" stroke="white" stroke-width="1.5" d="M0,-3.0v7 M-2.5,-0.5L0,-3.0L2.5,-0.5"/>
                </g>
                <g id="arrowLeft" xlink:href="#dirArrow" transform="rotate(270) translate(-36 17)" onmousedown="handlePan(-1,0)">
                  <use xlink:href="#rim" fill="#404040">
                        <set attributeName="fill" to="#808080" begin="arrowLeft.mouseover" end="arrowLeft.mouseout"/>
                  </use>
                  <path fill="none" stroke="white" stroke-width="1.5" d="M0,-3.0v7 M-2.5,-0.5L0,-3.0L2.5,-0.5"/>
                </g>
        </g>
        <svg viewBox="0 0 15 15" width="100%" height="30px" preserveAspectRatio="xMaxYMin meet">
         <g id="arrow_out" transform="scale(0.3 0.3)">
          <a xlink:href="quickjs_8c_aeeea589ee4cec4bbc3145210f4cf6e42_cgraph_org.svg" target="_base">
           <rect id="button" ry="5" rx="5" y="6" x="6" height="38" width="38"
                fill="#f2f5e9" fill-opacity="0.5" stroke="#606060" stroke-width="1.0"/>
           <path id="arrow"
             d="M 11.500037,31.436501 C 11.940474,20.09759 22.043105,11.32322 32.158766,21.979434 L 37.068811,17.246167 C 37.068811,17.246167 37.088388,32 37.088388,32 L 22.160133,31.978069 C 22.160133,31.978069 26.997745,27.140456 26.997745,27.140456 C 18.528582,18.264221 13.291696,25.230495 11.500037,31.436501 z"
             style="fill:#404040;"/>
          </a>
         </g>
        </svg>
</svg>
