<?xml version="1.0" encoding="UTF-8" standalone="no"?>
<!DOCTYPE svg PUBLIC "-//W3C//DTD SVG 1.1//EN"
 "http://www.w3.org/Graphics/SVG/1.1/DTD/svg11.dtd">
<!-- Generated by graphviz version 2.40.1 (20161225.0304)
 -->
<!-- Title: gc_decref Pages: 1 -->
<svg width="473pt" height="170pt"
 viewBox="0.00 0.00 473.00 170.00" xmlns="http://www.w3.org/2000/svg" xmlns:xlink="http://www.w3.org/1999/xlink">
<g id="graph0" class="graph" transform="scale(1 1) rotate(0) translate(4 166)">
<title>gc_decref</title>
<!-- Node157076 -->
<g id="node1" class="node">
<title>Node157076</title>
<polygon fill="#bfbfbf" stroke="#000000" points="0,-104.5 0,-123.5 64,-123.5 64,-104.5 0,-104.5"/>
<text text-anchor="middle" x="32" y="-111.5" font-family="Helvetica,sans-Serif" font-size="10.00" fill="#000000">gc_decref</text>
</g>
<!-- Node157077 -->
<g id="node2" class="node">
<title>Node157077</title>
<g id="a_node2"><a xlink:href="quickjs_8c.html#aeeea589ee4cec4bbc3145210f4cf6e42" target="_top" xlink:title="JS_RunGC">
<polygon fill="none" stroke="#000000" points="100,-104.5 100,-123.5 163,-123.5 163,-104.5 100,-104.5"/>
<text text-anchor="middle" x="131.5" y="-111.5" font-family="Helvetica,sans-Serif" font-size="10.00" fill="#000000">JS_RunGC</text>
</a>
</g>
</g>
<!-- Node157076&#45;&gt;Node157077 -->
<g id="edge1" class="edge">
<title>Node157076&#45;&gt;Node157077</title>
<path fill="none" stroke="#191970" d="M74.2737,-114C82.853,-114 91.7359,-114 99.8702,-114"/>
<polygon fill="#191970" stroke="#191970" points="74.0302,-110.5001 64.0301,-114 74.0301,-117.5001 74.0302,-110.5001"/>
</g>
<!-- Node157078 -->
<g id="node3" class="node">
<title>Node157078</title>
<g id="a_node3"><a xlink:href="quickjs-libc_8c.html#a9d1d581951398643c2791e45231f87db" target="_top" xlink:title="js_std_gc">
<polygon fill="none" stroke="#000000" points="214,-142.5 214,-161.5 276,-161.5 276,-142.5 214,-142.5"/>
<text text-anchor="middle" x="245" y="-149.5" font-family="Helvetica,sans-Serif" font-size="10.00" fill="#000000">js_std_gc</text>
</a>
</g>
</g>
<!-- Node157077&#45;&gt;Node157078 -->
<g id="edge2" class="edge">
<title>Node157077&#45;&gt;Node157078</title>
<path fill="none" stroke="#191970" d="M169.809,-126.8259C185.0383,-131.9247 202.2556,-137.6891 216.3683,-142.4141"/>
<polygon fill="#191970" stroke="#191970" points="170.7347,-123.445 160.1408,-123.589 168.5123,-130.0828 170.7347,-123.445"/>
</g>
<!-- Node157079 -->
<g id="node4" class="node">
<title>Node157079</title>
<g id="a_node4"><a xlink:href="quickjs_8c.html#a85321334e4bec66bfc03451897a03a3b" target="_top" xlink:title="js_trigger_gc">
<polygon fill="none" stroke="#000000" points="205.5,-104.5 205.5,-123.5 284.5,-123.5 284.5,-104.5 205.5,-104.5"/>
<text text-anchor="middle" x="245" y="-111.5" font-family="Helvetica,sans-Serif" font-size="10.00" fill="#000000">js_trigger_gc</text>
</a>
</g>
</g>
<!-- Node157077&#45;&gt;Node157079 -->
<g id="edge3" class="edge">
<title>Node157077&#45;&gt;Node157079</title>
<path fill="none" stroke="#191970" d="M173.3174,-114C183.8224,-114 195.0623,-114 205.4526,-114"/>
<polygon fill="#191970" stroke="#191970" points="173.1161,-110.5001 163.1161,-114 173.116,-117.5001 173.1161,-110.5001"/>
</g>
<!-- Node157713 -->
<g id="node6" class="node">
<title>Node157713</title>
<g id="a_node6"><a xlink:href="quickjs_8c.html#ad80a65b72c3a346d8a0047858a5f0b13" target="_top" xlink:title="JS_FreeRuntime">
<polygon fill="none" stroke="#000000" points="199,-57.5 199,-76.5 291,-76.5 291,-57.5 199,-57.5"/>
<text text-anchor="middle" x="245" y="-64.5" font-family="Helvetica,sans-Serif" font-size="10.00" fill="#000000">JS_FreeRuntime</text>
</a>
</g>
</g>
<!-- Node157077&#45;&gt;Node157713 -->
<g id="edge5" class="edge">
<title>Node157077&#45;&gt;Node157713</title>
<path fill="none" stroke="#191970" d="M163.936,-100.5683C182.3634,-92.9376 205.0085,-83.5604 221.6762,-76.6583"/>
<polygon fill="#191970" stroke="#191970" points="162.3685,-97.4292 154.4684,-104.4888 165.0467,-103.8966 162.3685,-97.4292"/>
</g>
<!-- Node157080 -->
<g id="node5" class="node">
<title>Node157080</title>
<g id="a_node5"><a xlink:href="quickjs_8c.html#a030c2e98b1775a7e3bdd13be1400b1fe" target="_top" xlink:title="JS_NewObjectFromShape">
<polygon fill="none" stroke="#ff0000" points="327,-114.5 327,-133.5 465,-133.5 465,-114.5 327,-114.5"/>
<text text-anchor="middle" x="396" y="-121.5" font-family="Helvetica,sans-Serif" font-size="10.00" fill="#000000">JS_NewObjectFromShape</text>
</a>
</g>
</g>
<!-- Node157079&#45;&gt;Node157080 -->
<g id="edge4" class="edge">
<title>Node157079&#45;&gt;Node157080</title>
<path fill="none" stroke="#191970" d="M294.6816,-117.2902C304.9653,-117.9712 315.9756,-118.7004 326.8112,-119.418"/>
<polygon fill="#191970" stroke="#191970" points="294.8829,-113.7959 284.6735,-116.6274 294.4203,-120.7806 294.8829,-113.7959"/>
</g>
<!-- Node157114 -->
<g id="node7" class="node">
<title>Node157114</title>
<g id="a_node7"><a xlink:href="quickjs_8c.html#a27966451027feb455b5da12c1578771c" target="_top" xlink:title="JS_NewRuntime2">
<polygon fill="none" stroke="#ff0000" points="346.5,-76.5 346.5,-95.5 445.5,-95.5 445.5,-76.5 346.5,-76.5"/>
<text text-anchor="middle" x="396" y="-83.5" font-family="Helvetica,sans-Serif" font-size="10.00" fill="#000000">JS_NewRuntime2</text>
</a>
</g>
</g>
<!-- Node157713&#45;&gt;Node157114 -->
<g id="edge6" class="edge">
<title>Node157713&#45;&gt;Node157114</title>
<path fill="none" stroke="#191970" d="M301.213,-74.0732C316.0752,-75.9432 332.0062,-77.9478 346.4851,-79.7696"/>
<polygon fill="#191970" stroke="#191970" points="301.4842,-70.5798 291.1255,-72.8039 300.6102,-77.525 301.4842,-70.5798"/>
</g>
<!-- Node157117 -->
<g id="node8" class="node">
<title>Node157117</title>
<g id="a_node8"><a xlink:href="quickjs-libc_8c.html#a1fbb3adc15e7b967479fc1940e99b67a" target="_top" xlink:title="worker_func">
<polygon fill="none" stroke="#ff0000" points="357.5,-38.5 357.5,-57.5 434.5,-57.5 434.5,-38.5 357.5,-38.5"/>
<text text-anchor="middle" x="396" y="-45.5" font-family="Helvetica,sans-Serif" font-size="10.00" fill="#000000">worker_func</text>
</a>
</g>
</g>
<!-- Node157713&#45;&gt;Node157117 -->
<g id="edge7" class="edge">
<title>Node157713&#45;&gt;Node157117</title>
<path fill="none" stroke="#191970" d="M301.2809,-59.9183C319.9279,-57.572 340.2504,-55.0148 357.2731,-52.8729"/>
<polygon fill="#191970" stroke="#191970" points="300.6102,-56.475 291.1255,-61.1961 301.4842,-63.4202 300.6102,-56.475"/>
</g>
<!-- Node157714 -->
<g id="node9" class="node">
<title>Node157714</title>
<g id="a_node9"><a xlink:href="classqjs_1_1Runtime.html#a44c5deb57118d67e36f2e002f393ff43" target="_top" xlink:title="qjs::Runtime::~Runtime">
<polygon fill="none" stroke="#000000" points="330,-.5 330,-19.5 462,-19.5 462,-.5 330,-.5"/>
<text text-anchor="middle" x="396" y="-7.5" font-family="Helvetica,sans-Serif" font-size="10.00" fill="#000000">qjs::Runtime::~Runtime</text>
</a>
</g>
</g>
<!-- Node157713&#45;&gt;Node157714 -->
<g id="edge8" class="edge">
<title>Node157713&#45;&gt;Node157714</title>
<path fill="none" stroke="#191970" d="M272.6473,-52.7953C288.3232,-45.097 308.4561,-35.797 327,-29 336.5662,-25.4937 347.0834,-22.2842 356.961,-19.5411"/>
<polygon fill="#191970" stroke="#191970" points="270.9063,-49.7523 263.5169,-57.3449 274.0283,-56.0176 270.9063,-49.7523"/>
</g>
</g>
</svg>
