<?xml version="1.0" encoding="UTF-8" standalone="no"?>
<!DOCTYPE svg PUBLIC "-//W3C//DTD SVG 1.1//EN"
 "http://www.w3.org/Graphics/SVG/1.1/DTD/svg11.dtd">
<!-- Generated by graphviz version 2.40.1 (20161225.0304)
 -->
<!-- Title: js_parse_skip_parens_token Pages: 1 -->
<svg width="896pt" height="314pt"
 viewBox="0.00 0.00 896.00 314.00" xmlns="http://www.w3.org/2000/svg" xmlns:xlink="http://www.w3.org/1999/xlink">
<g id="graph0" class="graph" transform="scale(1 1) rotate(0) translate(4 310)">
<title>js_parse_skip_parens_token</title>
<!-- Node319395 -->
<g id="node1" class="node">
<title>Node319395</title>
<polygon fill="#bfbfbf" stroke="#000000" points="0,-147 0,-177 121,-177 121,-147 0,-147"/>
<text text-anchor="start" x="8" y="-165" font-family="Helvetica,sans-Serif" font-size="10.00" fill="#000000">js_parse_skip_parens</text>
<text text-anchor="middle" x="60.5" y="-154" font-family="Helvetica,sans-Serif" font-size="10.00" fill="#000000">_token</text>
</g>
<!-- Node319396 -->
<g id="node2" class="node">
<title>Node319396</title>
<g id="a_node2"><a xlink:href="quickjs_8c.html#a26be546cf89c4580ba9020e8fc43a759" target="_top" xlink:title="js_parse_destructuring\l_element">
<polygon fill="none" stroke="#000000" points="157,-109 157,-139 284,-139 284,-109 157,-109"/>
<text text-anchor="start" x="165" y="-127" font-family="Helvetica,sans-Serif" font-size="10.00" fill="#000000">js_parse_destructuring</text>
<text text-anchor="middle" x="220.5" y="-116" font-family="Helvetica,sans-Serif" font-size="10.00" fill="#000000">_element</text>
</a>
</g>
</g>
<!-- Node319395&#45;&gt;Node319396 -->
<g id="edge1" class="edge">
<title>Node319395&#45;&gt;Node319396</title>
<path fill="none" stroke="#191970" d="M131.1887,-145.2114C139.8943,-143.1439 148.749,-141.0409 157.3329,-139.0022"/>
<polygon fill="#191970" stroke="#191970" points="130.3662,-141.8093 121.4456,-147.5254 131.9837,-148.6199 130.3662,-141.8093"/>
</g>
<!-- Node319397 -->
<g id="node3" class="node">
<title>Node319397</title>
<g id="a_node3"><a xlink:href="quickjs_8c.html#a840642c87c5a82d4cc68333376a3b6de" target="_top" xlink:title="js_parse_postfix_expr">
<polygon fill="none" stroke="#000000" points="326,-190.5 326,-209.5 448,-209.5 448,-190.5 326,-190.5"/>
<text text-anchor="middle" x="387" y="-197.5" font-family="Helvetica,sans-Serif" font-size="10.00" fill="#000000">js_parse_postfix_expr</text>
</a>
</g>
</g>
<!-- Node319395&#45;&gt;Node319397 -->
<g id="edge19" class="edge">
<title>Node319395&#45;&gt;Node319397</title>
<path fill="none" stroke="#191970" d="M131.3375,-170.2445C189.3666,-176.9983 270.626,-186.4557 325.8475,-192.8827"/>
<polygon fill="#191970" stroke="#191970" points="131.4846,-166.7381 121.147,-169.0585 130.6753,-173.6911 131.4846,-166.7381"/>
</g>
<!-- Node319402 -->
<g id="node5" class="node">
<title>Node319402</title>
<g id="a_node5"><a xlink:href="quickjs_8c.html#ac188b916dd086803591a67de7e7a85f6" target="_top" xlink:title="js_parse_for_in_of">
<polygon fill="none" stroke="#000000" points="634,-138.5 634,-157.5 739,-157.5 739,-138.5 634,-138.5"/>
<text text-anchor="middle" x="686.5" y="-145.5" font-family="Helvetica,sans-Serif" font-size="10.00" fill="#000000">js_parse_for_in_of</text>
</a>
</g>
</g>
<!-- Node319395&#45;&gt;Node319402 -->
<g id="edge17" class="edge">
<title>Node319395&#45;&gt;Node319402</title>
<path fill="none" stroke="#191970" d="M97.1968,-181.6275C186.944,-226.7977 422.9619,-328.3528 598,-249 640.4675,-229.7475 670.5957,-178.9315 681.7446,-157.6208"/>
<polygon fill="#191970" stroke="#191970" points="98.726,-178.4785 88.2273,-177.0542 95.5463,-184.7147 98.726,-178.4785"/>
</g>
<!-- Node319400 -->
<g id="node6" class="node">
<title>Node319400</title>
<g id="a_node6"><a xlink:href="quickjs_8c.html#a9d844c16dcc71701436848074337d32c" target="_top" xlink:title="js_parse_statement\l_or_decl">
<polygon fill="none" stroke="#ff0000" points="775,-112 775,-142 888,-142 888,-112 775,-112"/>
<text text-anchor="start" x="783" y="-130" font-family="Helvetica,sans-Serif" font-size="10.00" fill="#000000">js_parse_statement</text>
<text text-anchor="middle" x="831.5" y="-119" font-family="Helvetica,sans-Serif" font-size="10.00" fill="#000000">_or_decl</text>
</a>
</g>
</g>
<!-- Node319395&#45;&gt;Node319400 -->
<g id="edge20" class="edge">
<title>Node319395&#45;&gt;Node319400</title>
<path fill="none" stroke="#191970" d="M80.538,-184.5031C98.7025,-203.5628 127.1334,-230.2333 157,-246 250.4245,-295.319 281.3568,-306 387,-306 387,-306 387,-306 544,-306 667.4734,-306 781.8356,-185.5486 818.9479,-142.2614"/>
<polygon fill="#191970" stroke="#191970" points="83.0186,-182.0313 73.6377,-177.1069 77.9003,-186.8065 83.0186,-182.0313"/>
</g>
<!-- Node319431 -->
<g id="node8" class="node">
<title>Node319431</title>
<g id="a_node8"><a xlink:href="quickjs_8c.html#a9660cf21845352b14655d423389d6620" target="_top" xlink:title="js_parse_var">
<polygon fill="none" stroke="#ff0000" points="348,-38.5 348,-57.5 426,-57.5 426,-38.5 348,-38.5"/>
<text text-anchor="middle" x="387" y="-45.5" font-family="Helvetica,sans-Serif" font-size="10.00" fill="#000000">js_parse_var</text>
</a>
</g>
</g>
<!-- Node319395&#45;&gt;Node319431 -->
<g id="edge21" class="edge">
<title>Node319395&#45;&gt;Node319431</title>
<path fill="none" stroke="#191970" d="M87.2854,-140.713C105.8687,-126.9302 131.7321,-109.6322 157,-99 220.8997,-72.1122 301.0117,-58.4719 347.8544,-52.3238"/>
<polygon fill="#191970" stroke="#191970" points="85.1523,-137.9379 79.2877,-146.7617 89.3748,-143.521 85.1523,-137.9379"/>
</g>
<!-- Node319405 -->
<g id="node9" class="node">
<title>Node319405</title>
<g id="a_node9"><a xlink:href="quickjs_8c.html#acc9eb677cab8dfcf45f59381f8a19601" target="_top" xlink:title="js_parse_function_decl2">
<polygon fill="none" stroke="#ff0000" points="320,-.5 320,-19.5 454,-19.5 454,-.5 320,-.5"/>
<text text-anchor="middle" x="387" y="-7.5" font-family="Helvetica,sans-Serif" font-size="10.00" fill="#000000">js_parse_function_decl2</text>
</a>
</g>
</g>
<!-- Node319395&#45;&gt;Node319405 -->
<g id="edge18" class="edge">
<title>Node319395&#45;&gt;Node319405</title>
<path fill="none" stroke="#191970" d="M76.2599,-138.42C93.3211,-114.8228 122.7342,-79.3282 157,-60 207.184,-31.6928 271.86,-19.3998 319.8403,-14.0675"/>
<polygon fill="#191970" stroke="#191970" points="73.2384,-136.6317 70.3414,-146.8228 78.9614,-140.6626 73.2384,-136.6317"/>
</g>
<!-- Node319396&#45;&gt;Node319396 -->
<g id="edge2" class="edge">
<title>Node319396&#45;&gt;Node319396</title>
<path fill="none" stroke="#191970" d="M192.0699,-149.4579C195.5985,-154.179 205.0752,-157.5 220.5,-157.5 245.8125,-157.5 255.1069,-148.5566 248.3833,-139.159"/>
<polygon fill="#191970" stroke="#191970" points="195.5815,-149.3305 192.6167,-139.159 188.5914,-148.9594 195.5815,-149.3305"/>
</g>
<!-- Node319396&#45;&gt;Node319397 -->
<g id="edge3" class="edge">
<title>Node319396&#45;&gt;Node319397</title>
<path fill="none" stroke="#191970" d="M255.8271,-143.9783C274.5873,-154.1978 298.2124,-166.4586 320,-176 332.1102,-181.3034 345.8018,-186.3663 357.6372,-190.4632"/>
<polygon fill="#191970" stroke="#191970" points="257.487,-140.8968 247.0378,-139.1462 254.1147,-147.0309 257.487,-140.8968"/>
</g>
<!-- Node319396&#45;&gt;Node319402 -->
<g id="edge14" class="edge">
<title>Node319396&#45;&gt;Node319402</title>
<path fill="none" stroke="#191970" d="M294.3926,-127.8056C389.0635,-132.6814 550.8222,-141.0123 633.8801,-145.29"/>
<polygon fill="#191970" stroke="#191970" points="294.485,-124.3058 284.3182,-127.2868 294.1249,-131.2966 294.485,-124.3058"/>
</g>
<!-- Node319396&#45;&gt;Node319400 -->
<g id="edge15" class="edge">
<title>Node319396&#45;&gt;Node319400</title>
<path fill="none" stroke="#191970" d="M294.2762,-124.3622C417.7512,-124.9685 663.6297,-126.1758 774.7025,-126.7211"/>
<polygon fill="#191970" stroke="#191970" points="294.1757,-120.8618 284.1586,-124.3126 294.1413,-127.8617 294.1757,-120.8618"/>
</g>
<!-- Node319396&#45;&gt;Node319431 -->
<g id="edge12" class="edge">
<title>Node319396&#45;&gt;Node319431</title>
<path fill="none" stroke="#191970" d="M255.8271,-104.0217C274.5873,-93.8022 298.2124,-81.5414 320,-72 332.1102,-66.6966 345.8018,-61.6337 357.6372,-57.5368"/>
<polygon fill="#191970" stroke="#191970" points="254.1147,-100.9691 247.0378,-108.8538 257.487,-107.1032 254.1147,-100.9691"/>
</g>
<!-- Node319396&#45;&gt;Node319405 -->
<g id="edge16" class="edge">
<title>Node319396&#45;&gt;Node319405</title>
<path fill="none" stroke="#191970" d="M238.7342,-101.0593C257.0784,-79.4594 287.2728,-47.7078 320,-29 326.7179,-25.1599 334.2643,-22.0523 341.8052,-19.551"/>
<polygon fill="#191970" stroke="#191970" points="236.0064,-98.8656 232.3032,-108.7922 241.3884,-103.3415 236.0064,-98.8656"/>
</g>
<!-- Node319397&#45;&gt;Node319397 -->
<g id="edge9" class="edge">
<title>Node319397&#45;&gt;Node319397</title>
<path fill="none" stroke="#191970" d="M357.8809,-218.6539C359.0981,-223.9368 368.8044,-228 387,-228 414.7266,-228 422.7413,-218.5653 411.0441,-209.7571"/>
<polygon fill="#191970" stroke="#191970" points="361.0412,-220.1775 362.9559,-209.7571 354.9609,-216.7091 361.0412,-220.1775"/>
</g>
<!-- Node319398 -->
<g id="node4" class="node">
<title>Node319398</title>
<g id="a_node4"><a xlink:href="quickjs_8c.html#a12b48ce2b1f247b494fdde07dbe7f232" target="_top" xlink:title="js_parse_left_hand\l_side_expr">
<polygon fill="none" stroke="#ff0000" points="490,-153 490,-183 598,-183 598,-153 490,-153"/>
<text text-anchor="start" x="498" y="-171" font-family="Helvetica,sans-Serif" font-size="10.00" fill="#000000">js_parse_left_hand</text>
<text text-anchor="middle" x="544" y="-160" font-family="Helvetica,sans-Serif" font-size="10.00" fill="#000000">_side_expr</text>
</a>
</g>
</g>
<!-- Node319397&#45;&gt;Node319398 -->
<g id="edge4" class="edge">
<title>Node319397&#45;&gt;Node319398</title>
<path fill="none" stroke="#191970" d="M443.8366,-188.4155C458.8136,-185.3628 474.9319,-182.0776 489.7677,-179.0537"/>
<polygon fill="#191970" stroke="#191970" points="442.7796,-185.0589 433.6801,-190.4856 444.1777,-191.9178 442.7796,-185.0589"/>
</g>
<!-- Node319417 -->
<g id="node7" class="node">
<title>Node319417</title>
<g id="a_node7"><a xlink:href="quickjs_8c.html#a9f26c765171d977db1796791f035f1f9" target="_top" xlink:title="js_parse_unary">
<polygon fill="none" stroke="#ff0000" points="499,-202.5 499,-221.5 589,-221.5 589,-202.5 499,-202.5"/>
<text text-anchor="middle" x="544" y="-209.5" font-family="Helvetica,sans-Serif" font-size="10.00" fill="#000000">js_parse_unary</text>
</a>
</g>
</g>
<!-- Node319397&#45;&gt;Node319417 -->
<g id="edge10" class="edge">
<title>Node319397&#45;&gt;Node319417</title>
<path fill="none" stroke="#191970" d="M458.1419,-205.4376C471.973,-206.4947 486.1114,-207.5754 498.8195,-208.5467"/>
<polygon fill="#191970" stroke="#191970" points="458.3875,-201.9463 448.1499,-204.6739 457.854,-208.9259 458.3875,-201.9463"/>
</g>
<!-- Node319398&#45;&gt;Node319396 -->
<g id="edge5" class="edge">
<title>Node319398&#45;&gt;Node319396</title>
<path fill="none" stroke="#191970" d="M479.5154,-159.4792C434.7486,-153.5355 373.7328,-145.3783 320,-138 308.4209,-136.41 296.0873,-134.6933 284.1872,-133.0252"/>
<polygon fill="#191970" stroke="#191970" points="479.2963,-162.9807 489.6698,-160.8264 480.2171,-156.0415 479.2963,-162.9807"/>
</g>
<!-- Node319398&#45;&gt;Node319402 -->
<g id="edge6" class="edge">
<title>Node319398&#45;&gt;Node319402</title>
<path fill="none" stroke="#191970" d="M608.2238,-158.9861C616.7736,-157.7862 625.4597,-156.5671 633.7831,-155.3989"/>
<polygon fill="#191970" stroke="#191970" points="607.6961,-155.5258 598.2796,-160.3818 608.6691,-162.4579 607.6961,-155.5258"/>
</g>
<!-- Node319402&#45;&gt;Node319400 -->
<g id="edge7" class="edge">
<title>Node319402&#45;&gt;Node319400</title>
<path fill="none" stroke="#191970" d="M749.3786,-138.8934C757.7718,-137.6779 766.3402,-136.4369 774.623,-135.2374"/>
<polygon fill="#191970" stroke="#191970" points="748.6536,-135.4618 739.2585,-140.3591 749.6569,-142.3896 748.6536,-135.4618"/>
</g>
<!-- Node319400&#45;&gt;Node319400 -->
<g id="edge8" class="edge">
<title>Node319400&#45;&gt;Node319400</title>
<path fill="none" stroke="#191970" d="M805.9129,-152.4579C809.0887,-157.179 817.6177,-160.5 831.5,-160.5 854.2813,-160.5 862.6462,-151.5566 856.595,-142.159"/>
<polygon fill="#191970" stroke="#191970" points="809.4237,-152.3147 806.405,-142.159 802.4317,-151.9805 809.4237,-152.3147"/>
</g>
<!-- Node319417&#45;&gt;Node319417 -->
<g id="edge11" class="edge">
<title>Node319417&#45;&gt;Node319417</title>
<path fill="none" stroke="#191970" d="M517.4941,-230.6539C518.6021,-235.9368 527.4374,-240 544,-240 569.2383,-240 576.5337,-230.5653 565.8863,-221.7571"/>
<polygon fill="#191970" stroke="#191970" points="520.6117,-232.2449 522.1137,-221.7571 514.3992,-229.0192 520.6117,-232.2449"/>
</g>
<!-- Node319431&#45;&gt;Node319400 -->
<g id="edge13" class="edge">
<title>Node319431&#45;&gt;Node319400</title>
<path fill="none" stroke="#191970" d="M436.2843,-44.2793C505.5842,-40.6178 634.9888,-39.5683 739,-72 766.4681,-80.5648 794.3623,-98.7283 812.2299,-111.8427"/>
<polygon fill="#191970" stroke="#191970" points="435.8832,-40.7964 426.0985,-44.8597 436.2815,-47.7851 435.8832,-40.7964"/>
</g>
</g>
</svg>
