<?xml version="1.0" encoding="UTF-8" standalone="no"?>
<!DOCTYPE svg PUBLIC "-//W3C//DTD SVG 1.1//EN"
 "http://www.w3.org/Graphics/SVG/1.1/DTD/svg11.dtd">
<!-- Generated by graphviz version 2.40.1 (20161225.0304)
 -->
<!-- Title: peek_token Pages: 1 -->
<!--zoomable 277 -->
<svg id="main" version="1.1" xmlns="http://www.w3.org/2000/svg" xmlns:xlink="http://www.w3.org/1999/xlink" xml:space="preserve" onload="init(evt)">
<style type="text/css"><![CDATA[
.edge:hover path { stroke: red; }
.edge:hover polygon { stroke: red; fill: red; }
]]></style>
<script type="text/javascript"><![CDATA[
var edges = document.getElementsByTagName('g');
if (edges && edges.length) {
  for (var i=0;i<edges.length;i++) {
    if (edges[i].id.substr(0,4)=='edge') {
      edges[i].setAttribute('class','edge');
    }
  }
}
]]></script>
        <defs>
                <circle id="rim" cx="0" cy="0" r="7"/>
                <circle id="rim2" cx="0" cy="0" r="3.5"/>
                <g id="zoomPlus">
                        <use xlink:href="#rim" fill="#404040">
                                <set attributeName="fill" to="#808080" begin="zoomplus.mouseover" end="zoomplus.mouseout"/>
                        </use>
                        <path d="M-4,0h8M0,-4v8" fill="none" stroke="white" stroke-width="1.5" pointer-events="none"/>
                </g>
                <g id="zoomMin">
                        <use xlink:href="#rim" fill="#404040">
                                <set attributeName="fill" to="#808080" begin="zoomminus.mouseover" end="zoomminus.mouseout"/>
                        </use>
                        <path d="M-4,0h8" fill="none" stroke="white" stroke-width="1.5" pointer-events="none"/>
                </g>
                <g id="dirArrow">
                        <path fill="none" stroke="white" stroke-width="1.5" d="M0,-3.0v7 M-2.5,-0.5L0,-3.0L2.5,-0.5"/>
                </g>
               <g id="resetDef">
                       <use xlink:href="#rim2" fill="#404040">
                               <set attributeName="fill" to="#808080" begin="reset.mouseover" end="reset.mouseout"/>
                       </use>
               </g>
        </defs>

<script type="text/javascript">
var viewWidth = 880;
var viewHeight = 277;
var sectionId = 'dynsection-928';
</script>
<script xlink:href="svgpan.js"/>
<svg id="graph" class="graph">
<g id="viewport">
<title>peek_token</title>
<!-- Node312231 -->
<g id="node1" class="node">
<title>Node312231</title>
<polygon fill="#bfbfbf" stroke="#000000" points="0,-132.5 0,-151.5 74,-151.5 74,-132.5 0,-132.5"/>
<text text-anchor="middle" x="37" y="-139.5" font-family="Helvetica,sans-Serif" font-size="10.00" fill="#000000">peek_token</text>
</g>
<!-- Node312232 -->
<g id="node2" class="node">
<title>Node312232</title>
<g id="a_node2"><a xlink:href="quickjs_8c.html#a48aae2fff87c2c80a0fe495d4dd4d9ab" target="_top" xlink:title="is_label">
<polygon fill="none" stroke="#000000" points="151.5,-246.5 151.5,-265.5 205.5,-265.5 205.5,-246.5 151.5,-246.5"/>
<text text-anchor="middle" x="178.5" y="-253.5" font-family="Helvetica,sans-Serif" font-size="10.00" fill="#000000">is_label</text>
</a>
</g>
</g>
<!-- Node312231&#45;&gt;Node312232 -->
<g id="edge1" class="edge">
<title>Node312231&#45;&gt;Node312232</title>
<path fill="none" stroke="#191970" d="M47.458,-160.2001C59.9342,-180.407 82.5859,-212.7106 110,-232 122.2637,-240.6291 137.9275,-246.4218 151.1804,-250.1504"/>
<polygon fill="#191970" stroke="#191970" points="50.4557,-158.3933 42.3175,-151.6094 44.4489,-161.9877 50.4557,-158.3933"/>
</g>
<!-- Node312233 -->
<g id="node3" class="node">
<title>Node312233</title>
<g id="a_node3"><a xlink:href="quickjs_8c.html#a9d844c16dcc71701436848074337d32c" target="_top" xlink:title="js_parse_statement\l_or_decl">
<polygon fill="none" stroke="#000000" points="283,-209 283,-239 396,-239 396,-209 283,-209"/>
<text text-anchor="start" x="291" y="-227" font-family="Helvetica,sans-Serif" font-size="10.00" fill="#000000">js_parse_statement</text>
<text text-anchor="middle" x="339.5" y="-216" font-family="Helvetica,sans-Serif" font-size="10.00" fill="#000000">_or_decl</text>
</a>
</g>
</g>
<!-- Node312231&#45;&gt;Node312233 -->
<g id="edge18" class="edge">
<title>Node312231&#45;&gt;Node312233</title>
<path fill="none" stroke="#191970" d="M54.6899,-158.4209C68.6284,-170.3554 89.1324,-185.7988 110,-194 166.0972,-216.0469 235.2481,-222.5572 282.8959,-224.1688"/>
<polygon fill="#191970" stroke="#191970" points="56.7231,-155.5464 46.9151,-151.5395 52.0836,-160.7881 56.7231,-155.5464"/>
</g>
<!-- Node312237 -->
<g id="node6" class="node">
<title>Node312237</title>
<g id="a_node6"><a xlink:href="quickjs_8c.html#ab59a3267a100decc9d2d81eb3297794a" target="_top" xlink:title="js_parse_source_element">
<polygon fill="none" stroke="#ff0000" points="432,-170.5 432,-189.5 572,-189.5 572,-170.5 432,-170.5"/>
<text text-anchor="middle" x="502" y="-177.5" font-family="Helvetica,sans-Serif" font-size="10.00" fill="#000000">js_parse_source_element</text>
</a>
</g>
</g>
<!-- Node312231&#45;&gt;Node312237 -->
<g id="edge17" class="edge">
<title>Node312231&#45;&gt;Node312237</title>
<path fill="none" stroke="#191970" d="M84.2141,-151.9711C92.7655,-153.5153 101.6258,-154.9451 110,-156 222.1271,-170.1251 353.387,-176.0203 431.9999,-178.4213"/>
<polygon fill="#191970" stroke="#191970" points="84.8393,-148.5274 74.3651,-150.1214 83.5472,-155.4072 84.8393,-148.5274"/>
</g>
<!-- Node312238 -->
<g id="node7" class="node">
<title>Node312238</title>
<g id="a_node7"><a xlink:href="quickjs_8c.html#acc9eb677cab8dfcf45f59381f8a19601" target="_top" xlink:title="js_parse_function_decl2">
<polygon fill="none" stroke="#ff0000" points="608,-132.5 608,-151.5 742,-151.5 742,-132.5 608,-132.5"/>
<text text-anchor="middle" x="675" y="-139.5" font-family="Helvetica,sans-Serif" font-size="10.00" fill="#000000">js_parse_function_decl2</text>
</a>
</g>
</g>
<!-- Node312231&#45;&gt;Node312238 -->
<g id="edge13" class="edge">
<title>Node312231&#45;&gt;Node312238</title>
<path fill="none" stroke="#191970" d="M84.3655,-142C196.449,-142 478.2334,-142 607.8542,-142"/>
<polygon fill="#191970" stroke="#191970" points="84.0593,-138.5001 74.0592,-142 84.0592,-145.5001 84.0593,-138.5001"/>
</g>
<!-- Node312245 -->
<g id="node8" class="node">
<title>Node312245</title>
<g id="a_node8"><a xlink:href="quickjs_8c.html#a498e1d5c7de1b59c1630e9847cde1e41" target="_top" xlink:title="js_parse_export">
<polygon fill="none" stroke="#000000" points="778,-132.5 778,-151.5 872,-151.5 872,-132.5 778,-132.5"/>
<text text-anchor="middle" x="825" y="-139.5" font-family="Helvetica,sans-Serif" font-size="10.00" fill="#000000">js_parse_export</text>
</a>
</g>
</g>
<!-- Node312231&#45;&gt;Node312245 -->
<g id="edge12" class="edge">
<title>Node312231&#45;&gt;Node312245</title>
<path fill="none" stroke="#191970" d="M84.2473,-132.3503C143.5794,-121.0923 248.6235,-104 339.5,-104 339.5,-104 339.5,-104 502,-104 609.0004,-104 636.2336,-106.7964 742,-123 757.3426,-125.3505 774.0624,-128.9692 788.4486,-132.4204"/>
<polygon fill="#191970" stroke="#191970" points="83.2255,-128.9827 74.0675,-134.3101 84.5489,-135.8565 83.2255,-128.9827"/>
</g>
<!-- Node312241 -->
<g id="node9" class="node">
<title>Node312241</title>
<g id="a_node9"><a xlink:href="quickjs_8c.html#a840642c87c5a82d4cc68333376a3b6de" target="_top" xlink:title="js_parse_postfix_expr">
<polygon fill="none" stroke="#ff0000" points="117.5,-38.5 117.5,-57.5 239.5,-57.5 239.5,-38.5 117.5,-38.5"/>
<text text-anchor="middle" x="178.5" y="-45.5" font-family="Helvetica,sans-Serif" font-size="10.00" fill="#000000">js_parse_postfix_expr</text>
</a>
</g>
</g>
<!-- Node312231&#45;&gt;Node312241 -->
<g id="edge14" class="edge">
<title>Node312231&#45;&gt;Node312241</title>
<path fill="none" stroke="#191970" d="M58.2456,-126.2796C72.6678,-115.754 92.2679,-101.7316 110,-90 127.5674,-78.3774 148.243,-65.8533 162.2481,-57.535"/>
<polygon fill="#191970" stroke="#191970" points="55.9909,-123.5927 49.9978,-132.3296 60.1312,-129.237 55.9909,-123.5927"/>
</g>
<!-- Node312259 -->
<g id="node10" class="node">
<title>Node312259</title>
<g id="a_node10"><a xlink:href="quickjs_8c.html#a42234753f3193f37ce45b3c0ca4c25cd" target="_top" xlink:title="js_parse_property_name">
<polygon fill="none" stroke="#ff0000" points="110,-.5 110,-19.5 247,-19.5 247,-.5 110,-.5"/>
<text text-anchor="middle" x="178.5" y="-7.5" font-family="Helvetica,sans-Serif" font-size="10.00" fill="#000000">js_parse_property_name</text>
</a>
</g>
</g>
<!-- Node312231&#45;&gt;Node312259 -->
<g id="edge16" class="edge">
<title>Node312231&#45;&gt;Node312259</title>
<path fill="none" stroke="#191970" d="M44.2505,-122.8704C54.8274,-97.5639 76.9034,-53.3294 110,-29 115.2702,-25.1259 121.2942,-22.0415 127.5341,-19.5859"/>
<polygon fill="#191970" stroke="#191970" points="40.8855,-121.8592 40.423,-132.4439 47.3853,-124.4579 40.8855,-121.8592"/>
</g>
<!-- Node312232&#45;&gt;Node312233 -->
<g id="edge2" class="edge">
<title>Node312232&#45;&gt;Node312233</title>
<path fill="none" stroke="#191970" d="M215.7414,-248.598C235.687,-244.6336 260.6729,-239.6675 282.962,-235.2374"/>
<polygon fill="#191970" stroke="#191970" points="214.9373,-245.1893 205.8115,-250.5716 216.3019,-252.055 214.9373,-245.1893"/>
</g>
<!-- Node312233&#45;&gt;Node312233 -->
<g id="edge7" class="edge">
<title>Node312233&#45;&gt;Node312233</title>
<path fill="none" stroke="#191970" d="M311.0699,-249.4579C314.5985,-254.179 324.0752,-257.5 339.5,-257.5 364.8125,-257.5 374.1069,-248.5566 367.3833,-239.159"/>
<polygon fill="#191970" stroke="#191970" points="314.5815,-249.3305 311.6167,-239.159 307.5914,-248.9594 314.5815,-249.3305"/>
</g>
<!-- Node312234 -->
<g id="node4" class="node">
<title>Node312234</title>
<g id="a_node4"><a xlink:href="quickjs_8c.html#a729d43e44d20f1ed655cd9f4843995d3" target="_top" xlink:title="js_parse_statement">
<polygon fill="none" stroke="#ff0000" points="445.5,-249.5 445.5,-268.5 558.5,-268.5 558.5,-249.5 445.5,-249.5"/>
<text text-anchor="middle" x="502" y="-256.5" font-family="Helvetica,sans-Serif" font-size="10.00" fill="#000000">js_parse_statement</text>
</a>
</g>
</g>
<!-- Node312233&#45;&gt;Node312234 -->
<g id="edge3" class="edge">
<title>Node312233&#45;&gt;Node312234</title>
<path fill="none" stroke="#191970" d="M406.2505,-231.7235C432.4503,-237.0146 460.729,-243.7166 479.7086,-249.3788"/>
<polygon fill="#191970" stroke="#191970" points="406.8226,-228.269 396.3346,-229.7698 405.4694,-235.137 406.8226,-228.269"/>
</g>
<!-- Node312236 -->
<g id="node5" class="node">
<title>Node312236</title>
<g id="a_node5"><a xlink:href="quickjs_8c.html#acc0cac53be5317d9cab6a79afcd7da48" target="_top" xlink:title="js_parse_block">
<polygon fill="none" stroke="#000000" points="457.5,-211.5 457.5,-230.5 546.5,-230.5 546.5,-211.5 457.5,-211.5"/>
<text text-anchor="middle" x="502" y="-218.5" font-family="Helvetica,sans-Serif" font-size="10.00" fill="#000000">js_parse_block</text>
</a>
</g>
</g>
<!-- Node312233&#45;&gt;Node312236 -->
<g id="edge5" class="edge">
<title>Node312233&#45;&gt;Node312236</title>
<path fill="none" stroke="#191970" d="M406.3519,-216.1109C423.5821,-215.563 441.7047,-215.4151 457.4854,-215.7267"/>
<polygon fill="#191970" stroke="#191970" points="406.1992,-212.6141 396.3346,-216.4792 406.4565,-219.6093 406.1992,-212.6141"/>
</g>
<!-- Node312233&#45;&gt;Node312237 -->
<g id="edge8" class="edge">
<title>Node312233&#45;&gt;Node312237</title>
<path fill="none" stroke="#191970" d="M404.8579,-206.3031C425.9578,-200.5899 448.5457,-194.4738 466.6257,-189.5783"/>
<polygon fill="#191970" stroke="#191970" points="403.7064,-202.9888 394.9688,-208.9808 405.536,-209.7455 403.7064,-202.9888"/>
</g>
<!-- Node312234&#45;&gt;Node312233 -->
<g id="edge4" class="edge">
<title>Node312234&#45;&gt;Node312233</title>
<path fill="none" stroke="#191970" d="M435.279,-251.2825C417.0309,-247.5978 397.7722,-243.2281 381.3478,-239.0016"/>
<polygon fill="#191970" stroke="#191970" points="434.8005,-254.7554 445.2884,-253.2538 436.1532,-247.8873 434.8005,-254.7554"/>
</g>
<!-- Node312236&#45;&gt;Node312233 -->
<g id="edge6" class="edge">
<title>Node312236&#45;&gt;Node312233</title>
<path fill="none" stroke="#191970" d="M447.4826,-228.4207C431.0308,-229.1521 412.9334,-229.5053 396.3346,-229.4222"/>
<polygon fill="#191970" stroke="#191970" points="447.6741,-231.9156 457.4854,-227.9169 447.3219,-224.9244 447.6741,-231.9156"/>
</g>
<!-- Node312237&#45;&gt;Node312238 -->
<g id="edge9" class="edge">
<title>Node312237&#45;&gt;Node312238</title>
<path fill="none" stroke="#191970" d="M555.5051,-168.2474C579.9673,-162.8742 608.5707,-156.5914 631.6587,-151.5201"/>
<polygon fill="#191970" stroke="#191970" points="554.6714,-164.847 545.6552,-170.411 556.1733,-171.684 554.6714,-164.847"/>
</g>
<!-- Node312238&#45;&gt;Node312245 -->
<g id="edge10" class="edge">
<title>Node312238&#45;&gt;Node312245</title>
<path fill="none" stroke="#191970" d="M752.2756,-142C760.9491,-142 769.5819,-142 777.7096,-142"/>
<polygon fill="#191970" stroke="#191970" points="752.1029,-138.5001 742.1029,-142 752.1028,-145.5001 752.1029,-138.5001"/>
</g>
<!-- Node312245&#45;&gt;Node312237 -->
<g id="edge11" class="edge">
<title>Node312245&#45;&gt;Node312237</title>
<path fill="none" stroke="#191970" d="M778.3543,-153.9345C766.5569,-156.6054 753.8665,-159.182 742,-161 685.1919,-169.7031 620.1714,-174.5384 572.1487,-177.1501"/>
<polygon fill="#191970" stroke="#191970" points="779.5052,-157.26 788.4486,-151.5796 777.9149,-150.443 779.5052,-157.26"/>
</g>
<!-- Node312241&#45;&gt;Node312241 -->
<g id="edge15" class="edge">
<title>Node312241&#45;&gt;Node312241</title>
<path fill="none" stroke="#191970" d="M152.4584,-67.0292C153.8789,-72.128 162.5594,-76 178.5,-76 203.3828,-76 210.5755,-66.5653 200.0781,-57.7571"/>
<polygon fill="#191970" stroke="#191970" points="155.738,-68.2855 156.9219,-57.7571 149.4308,-65.2493 155.738,-68.2855"/>
</g>
</g>
</svg>
        <g id="navigator" transform="translate(0 0)" fill="#404254">
                <rect fill="#f2f5e9" fill-opacity="0.5" stroke="#606060" stroke-width=".5" x="0" y="0" width="60" height="60"/>
                <use id="zoomplus" xlink:href="#zoomPlus" x="17" y="9" onmousedown="handleZoom(evt,'in')"/>
                <use id="zoomminus" xlink:href="#zoomMin" x="42" y="9" onmousedown="handleZoom(evt,'out')"/>
                <use id="reset" xlink:href="#resetDef" x="30" y="36" onmousedown="handleReset()"/>
                <g id="arrowUp" xlink:href="#dirArrow" transform="translate(30 24)" onmousedown="handlePan(0,-1)">
                  <use xlink:href="#rim" fill="#404040">
                        <set attributeName="fill" to="#808080" begin="arrowUp.mouseover" end="arrowUp.mouseout"/>
                  </use>
                  <path fill="none" stroke="white" stroke-width="1.5" d="M0,-3.0v7 M-2.5,-0.5L0,-3.0L2.5,-0.5"/>
                </g>
                <g id="arrowRight" xlink:href="#dirArrow" transform="rotate(90) translate(36 -43)" onmousedown="handlePan(1,0)">
                  <use xlink:href="#rim" fill="#404040">
                        <set attributeName="fill" to="#808080" begin="arrowRight.mouseover" end="arrowRight.mouseout"/>
                  </use>
                  <path fill="none" stroke="white" stroke-width="1.5" d="M0,-3.0v7 M-2.5,-0.5L0,-3.0L2.5,-0.5"/>
                </g>
                <g id="arrowDown" xlink:href="#dirArrow" transform="rotate(180) translate(-30 -48)" onmousedown="handlePan(0,1)">
                  <use xlink:href="#rim" fill="#404040">
                        <set attributeName="fill" to="#808080" begin="arrowDown.mouseover" end="arrowDown.mouseout"/>
                  </use>
                  <path fill="none" stroke="white" stroke-width="1.5" d="M0,-3.0v7 M-2.5,-0.5L0,-3.0L2.5,-0.5"/>
                </g>
                <g id="arrowLeft" xlink:href="#dirArrow" transform="rotate(270) translate(-36 17)" onmousedown="handlePan(-1,0)">
                  <use xlink:href="#rim" fill="#404040">
                        <set attributeName="fill" to="#808080" begin="arrowLeft.mouseover" end="arrowLeft.mouseout"/>
                  </use>
                  <path fill="none" stroke="white" stroke-width="1.5" d="M0,-3.0v7 M-2.5,-0.5L0,-3.0L2.5,-0.5"/>
                </g>
        </g>
        <svg viewBox="0 0 15 15" width="100%" height="30px" preserveAspectRatio="xMaxYMin meet">
         <g id="arrow_out" transform="scale(0.3 0.3)">
          <a xlink:href="quickjs_8c_a2738f70401d666222802576640dd5781_icgraph_org.svg" target="_base">
           <rect id="button" ry="5" rx="5" y="6" x="6" height="38" width="38"
                fill="#f2f5e9" fill-opacity="0.5" stroke="#606060" stroke-width="1.0"/>
           <path id="arrow"
             d="M 11.500037,31.436501 C 11.940474,20.09759 22.043105,11.32322 32.158766,21.979434 L 37.068811,17.246167 C 37.068811,17.246167 37.088388,32 37.088388,32 L 22.160133,31.978069 C 22.160133,31.978069 26.997745,27.140456 26.997745,27.140456 C 18.528582,18.264221 13.291696,25.230495 11.500037,31.436501 z"
             style="fill:#404040;"/>
          </a>
         </g>
        </svg>
</svg>
