<?xml version="1.0" encoding="UTF-8" standalone="no"?>
<!DOCTYPE svg PUBLIC "-//W3C//DTD SVG 1.1//EN"
 "http://www.w3.org/Graphics/SVG/1.1/DTD/svg11.dtd">
<!-- Generated by graphviz version 2.40.1 (20161225.0304)
 -->
<!-- Title: js_bytecode_function_finalizer Pages: 1 -->
<!--zoomable 143 -->
<svg id="main" version="1.1" xmlns="http://www.w3.org/2000/svg" xmlns:xlink="http://www.w3.org/1999/xlink" xml:space="preserve" onload="init(evt)">
<style type="text/css"><![CDATA[
.edge:hover path { stroke: red; }
.edge:hover polygon { stroke: red; fill: red; }
]]></style>
<script type="text/javascript"><![CDATA[
var edges = document.getElementsByTagName('g');
if (edges && edges.length) {
  for (var i=0;i<edges.length;i++) {
    if (edges[i].id.substr(0,4)=='edge') {
      edges[i].setAttribute('class','edge');
    }
  }
}
]]></script>
        <defs>
                <circle id="rim" cx="0" cy="0" r="7"/>
                <circle id="rim2" cx="0" cy="0" r="3.5"/>
                <g id="zoomPlus">
                        <use xlink:href="#rim" fill="#404040">
                                <set attributeName="fill" to="#808080" begin="zoomplus.mouseover" end="zoomplus.mouseout"/>
                        </use>
                        <path d="M-4,0h8M0,-4v8" fill="none" stroke="white" stroke-width="1.5" pointer-events="none"/>
                </g>
                <g id="zoomMin">
                        <use xlink:href="#rim" fill="#404040">
                                <set attributeName="fill" to="#808080" begin="zoomminus.mouseover" end="zoomminus.mouseout"/>
                        </use>
                        <path d="M-4,0h8" fill="none" stroke="white" stroke-width="1.5" pointer-events="none"/>
                </g>
                <g id="dirArrow">
                        <path fill="none" stroke="white" stroke-width="1.5" d="M0,-3.0v7 M-2.5,-0.5L0,-3.0L2.5,-0.5"/>
                </g>
               <g id="resetDef">
                       <use xlink:href="#rim2" fill="#404040">
                               <set attributeName="fill" to="#808080" begin="reset.mouseover" end="reset.mouseout"/>
                       </use>
               </g>
        </defs>

<script type="text/javascript">
var viewWidth = 617;
var viewHeight = 143;
var sectionId = 'dynsection-445';
</script>
<script xlink:href="svgpan.js"/>
<svg id="graph" class="graph">
<g id="viewport">
<title>js_bytecode_function_finalizer</title>
<!-- Node151032 -->
<g id="node1" class="node">
<title>Node151032</title>
<polygon fill="#bfbfbf" stroke="#000000" points="0,-52.6949 0,-82.6949 120,-82.6949 120,-52.6949 0,-52.6949"/>
<text text-anchor="start" x="8" y="-70.6949" font-family="Helvetica,sans-Serif" font-size="10.00" fill="#000000">js_bytecode_function</text>
<text text-anchor="middle" x="60" y="-59.6949" font-family="Helvetica,sans-Serif" font-size="10.00" fill="#000000">_finalizer</text>
</g>
<!-- Node151033 -->
<g id="node2" class="node">
<title>Node151033</title>
<g id="a_node2"><a xlink:href="quickjs_8c.html#a9e7b4bccf927d811b0f99b40b08c0472" target="_top" xlink:title="free_var_ref">
<polygon fill="none" stroke="#000000" points="156,-58.1949 156,-77.1949 232,-77.1949 232,-58.1949 156,-58.1949"/>
<text text-anchor="middle" x="194" y="-65.1949" font-family="Helvetica,sans-Serif" font-size="10.00" fill="#000000">free_var_ref</text>
</a>
</g>
</g>
<!-- Node151032&#45;&gt;Node151033 -->
<g id="edge1" class="edge">
<title>Node151032&#45;&gt;Node151033</title>
<path fill="none" stroke="#191970" d="M120.336,-67.6949C128.8348,-67.6949 137.4781,-67.6949 145.7116,-67.6949"/>
<polygon fill="#191970" stroke="#191970" points="145.8797,-71.195 155.8797,-67.6949 145.8796,-64.195 145.8797,-71.195"/>
</g>
<!-- Node151034 -->
<g id="node3" class="node">
<title>Node151034</title>
<g id="a_node3"><a xlink:href="quickjs_8c.html#a69e19dda8a93d613203e0baa06f0ed8d" target="_top" xlink:title="js_free_rt">
<polygon fill="none" stroke="#000000" points="547,-1.1949 547,-20.1949 609,-20.1949 609,-1.1949 547,-1.1949"/>
<text text-anchor="middle" x="578" y="-8.1949" font-family="Helvetica,sans-Serif" font-size="10.00" fill="#000000">js_free_rt</text>
</a>
</g>
</g>
<!-- Node151032&#45;&gt;Node151034 -->
<g id="edge9" class="edge">
<title>Node151032&#45;&gt;Node151034</title>
<path fill="none" stroke="#191970" d="M100.3486,-52.5847C141.7551,-37.862 208.3744,-16.3315 268,-6.6949 330.3413,3.3807 346.8596,-2.8061 410,-1.6949 454.8819,-.9049 466.2111,1.2999 511,-1.6949 519.3253,-2.2515 528.1937,-3.1931 536.6617,-4.2629"/>
<polygon fill="#191970" stroke="#191970" points="536.3518,-7.7526 546.7285,-5.6141 537.2831,-.8148 536.3518,-7.7526"/>
</g>
<!-- Node151035 -->
<g id="node4" class="node">
<title>Node151035</title>
<g id="a_node4"><a xlink:href="quickjs_8h.html#ab8db583fa5e7c2b1935854a42859daed" target="_top" xlink:title="JS_FreeValueRT">
<polygon fill="none" stroke="#000000" points="276,-115.1949 276,-134.1949 366,-134.1949 366,-115.1949 276,-115.1949"/>
<text text-anchor="middle" x="321" y="-122.1949" font-family="Helvetica,sans-Serif" font-size="10.00" fill="#000000">JS_FreeValueRT</text>
</a>
</g>
</g>
<!-- Node151032&#45;&gt;Node151035 -->
<g id="edge10" class="edge">
<title>Node151032&#45;&gt;Node151035</title>
<path fill="none" stroke="#191970" d="M120.2064,-80.8434C164.6663,-90.553 224.6417,-103.6511 267.4417,-112.9982"/>
<polygon fill="#191970" stroke="#191970" points="266.8709,-116.456 277.3874,-115.1703 268.3644,-109.6172 266.8709,-116.456"/>
</g>
<!-- Node151033&#45;&gt;Node151034 -->
<g id="edge2" class="edge">
<title>Node151033&#45;&gt;Node151034</title>
<path fill="none" stroke="#191970" d="M208.2836,-58.0794C222.6726,-48.9584 245.8556,-35.7713 268,-29.6949 361.4462,-4.0534 476.4612,-5.0491 536.7131,-7.9197"/>
<polygon fill="#191970" stroke="#191970" points="536.7891,-11.4283 546.9572,-8.4517 537.1522,-4.4377 536.7891,-11.4283"/>
</g>
<!-- Node151033&#45;&gt;Node151035 -->
<g id="edge3" class="edge">
<title>Node151033&#45;&gt;Node151035</title>
<path fill="none" stroke="#191970" d="M215.2569,-77.2354C235.77,-86.442 267.0467,-100.4796 290.2692,-110.9023"/>
<polygon fill="#191970" stroke="#191970" points="289.1173,-114.2216 299.6737,-115.1232 291.9836,-107.8353 289.1173,-114.2216"/>
</g>
<!-- Node151055 -->
<g id="node6" class="node">
<title>Node151055</title>
<g id="a_node6"><a xlink:href="list_8h.html#ab60d5d18869ebeb5d6ab694289576fa7" target="_top" xlink:title="list_del">
<polygon fill="none" stroke="#000000" points="434.5,-58.1949 434.5,-77.1949 486.5,-77.1949 486.5,-58.1949 434.5,-58.1949"/>
<text text-anchor="middle" x="460.5" y="-65.1949" font-family="Helvetica,sans-Serif" font-size="10.00" fill="#000000">list_del</text>
</a>
</g>
</g>
<!-- Node151033&#45;&gt;Node151055 -->
<g id="edge6" class="edge">
<title>Node151033&#45;&gt;Node151055</title>
<path fill="none" stroke="#191970" d="M232.183,-67.6949C283.5114,-67.6949 374.1091,-67.6949 424.3667,-67.6949"/>
<polygon fill="#191970" stroke="#191970" points="424.4502,-71.195 434.4502,-67.6949 424.4502,-64.195 424.4502,-71.195"/>
</g>
<!-- Node151064 -->
<g id="node7" class="node">
<title>Node151064</title>
<g id="a_node7"><a xlink:href="quickjs_8c.html#adfb3133f30938e2db9b525ade5fc09cf" target="_top" xlink:title="remove_gc_object">
<polygon fill="none" stroke="#000000" points="268,-39.1949 268,-58.1949 374,-58.1949 374,-39.1949 268,-39.1949"/>
<text text-anchor="middle" x="321" y="-46.1949" font-family="Helvetica,sans-Serif" font-size="10.00" fill="#000000">remove_gc_object</text>
</a>
</g>
</g>
<!-- Node151033&#45;&gt;Node151064 -->
<g id="edge7" class="edge">
<title>Node151033&#45;&gt;Node151064</title>
<path fill="none" stroke="#191970" d="M232.1042,-61.9942C240.2793,-60.7712 249.1269,-59.4475 257.9624,-58.1257"/>
<polygon fill="#191970" stroke="#191970" points="258.5245,-61.5806 267.8965,-56.6395 257.4887,-54.6577 258.5245,-61.5806"/>
</g>
<!-- Node151036 -->
<g id="node5" class="node">
<title>Node151036</title>
<g id="a_node5"><a xlink:href="quickjs_8c.html#ab1ea3fad7d138be12144a38be4d36423" target="_top" xlink:title="__JS_FreeValueRT">
<polygon fill="none" stroke="#ff0000" points="410,-105.1949 410,-124.1949 511,-124.1949 511,-105.1949 410,-105.1949"/>
<text text-anchor="middle" x="460.5" y="-112.1949" font-family="Helvetica,sans-Serif" font-size="10.00" fill="#000000">__JS_FreeValueRT</text>
</a>
</g>
</g>
<!-- Node151035&#45;&gt;Node151036 -->
<g id="edge4" class="edge">
<title>Node151035&#45;&gt;Node151036</title>
<path fill="none" stroke="#191970" d="M366.2917,-121.4481C376.8901,-120.6884 388.3512,-119.8668 399.5086,-119.067"/>
<polygon fill="#191970" stroke="#191970" points="399.9121,-122.5472 409.6362,-118.341 399.4115,-115.5651 399.9121,-122.5472"/>
</g>
<!-- Node151036&#45;&gt;Node151034 -->
<g id="edge5" class="edge">
<title>Node151036&#45;&gt;Node151034</title>
<path fill="none" stroke="#191970" d="M481.6555,-105.0176C491.1056,-100.1923 502.094,-93.8565 511,-86.6949 532.2809,-69.5822 552.3914,-45.2743 564.9245,-28.7919"/>
<polygon fill="#191970" stroke="#191970" points="567.9061,-30.6478 571.067,-20.5355 562.2898,-26.4695 567.9061,-30.6478"/>
</g>
<!-- Node151064&#45;&gt;Node151055 -->
<g id="edge8" class="edge">
<title>Node151064&#45;&gt;Node151055</title>
<path fill="none" stroke="#191970" d="M374.1369,-55.9321C390.9031,-58.2157 409.029,-60.6845 424.3256,-62.7679"/>
<polygon fill="#191970" stroke="#191970" points="424.0311,-66.26 434.412,-64.1417 424.9758,-59.324 424.0311,-66.26"/>
</g>
</g>
</svg>
        <g id="navigator" transform="translate(0 0)" fill="#404254">
                <rect fill="#f2f5e9" fill-opacity="0.5" stroke="#606060" stroke-width=".5" x="0" y="0" width="60" height="60"/>
                <use id="zoomplus" xlink:href="#zoomPlus" x="17" y="9" onmousedown="handleZoom(evt,'in')"/>
                <use id="zoomminus" xlink:href="#zoomMin" x="42" y="9" onmousedown="handleZoom(evt,'out')"/>
                <use id="reset" xlink:href="#resetDef" x="30" y="36" onmousedown="handleReset()"/>
                <g id="arrowUp" xlink:href="#dirArrow" transform="translate(30 24)" onmousedown="handlePan(0,-1)">
                  <use xlink:href="#rim" fill="#404040">
                        <set attributeName="fill" to="#808080" begin="arrowUp.mouseover" end="arrowUp.mouseout"/>
                  </use>
                  <path fill="none" stroke="white" stroke-width="1.5" d="M0,-3.0v7 M-2.5,-0.5L0,-3.0L2.5,-0.5"/>
                </g>
                <g id="arrowRight" xlink:href="#dirArrow" transform="rotate(90) translate(36 -43)" onmousedown="handlePan(1,0)">
                  <use xlink:href="#rim" fill="#404040">
                        <set attributeName="fill" to="#808080" begin="arrowRight.mouseover" end="arrowRight.mouseout"/>
                  </use>
                  <path fill="none" stroke="white" stroke-width="1.5" d="M0,-3.0v7 M-2.5,-0.5L0,-3.0L2.5,-0.5"/>
                </g>
                <g id="arrowDown" xlink:href="#dirArrow" transform="rotate(180) translate(-30 -48)" onmousedown="handlePan(0,1)">
                  <use xlink:href="#rim" fill="#404040">
                        <set attributeName="fill" to="#808080" begin="arrowDown.mouseover" end="arrowDown.mouseout"/>
                  </use>
                  <path fill="none" stroke="white" stroke-width="1.5" d="M0,-3.0v7 M-2.5,-0.5L0,-3.0L2.5,-0.5"/>
                </g>
                <g id="arrowLeft" xlink:href="#dirArrow" transform="rotate(270) translate(-36 17)" onmousedown="handlePan(-1,0)">
                  <use xlink:href="#rim" fill="#404040">
                        <set attributeName="fill" to="#808080" begin="arrowLeft.mouseover" end="arrowLeft.mouseout"/>
                  </use>
                  <path fill="none" stroke="white" stroke-width="1.5" d="M0,-3.0v7 M-2.5,-0.5L0,-3.0L2.5,-0.5"/>
                </g>
        </g>
        <svg viewBox="0 0 15 15" width="100%" height="30px" preserveAspectRatio="xMaxYMin meet">
         <g id="arrow_out" transform="scale(0.3 0.3)">
          <a xlink:href="quickjs_8c_a21648ca38448a0bc9b61e102f7b46d25_cgraph_org.svg" target="_base">
           <rect id="button" ry="5" rx="5" y="6" x="6" height="38" width="38"
                fill="#f2f5e9" fill-opacity="0.5" stroke="#606060" stroke-width="1.0"/>
           <path id="arrow"
             d="M 11.500037,31.436501 C 11.940474,20.09759 22.043105,11.32322 32.158766,21.979434 L 37.068811,17.246167 C 37.068811,17.246167 37.088388,32 37.088388,32 L 22.160133,31.978069 C 22.160133,31.978069 26.997745,27.140456 26.997745,27.140456 C 18.528582,18.264221 13.291696,25.230495 11.500037,31.436501 z"
             style="fill:#404040;"/>
          </a>
         </g>
        </svg>
</svg>
