<?xml version="1.0" encoding="UTF-8" standalone="no"?>
<!DOCTYPE svg PUBLIC "-//W3C//DTD SVG 1.1//EN"
 "http://www.w3.org/Graphics/SVG/1.1/DTD/svg11.dtd">
<!-- Generated by graphviz version 2.40.1 (20161225.0304)
 -->
<!-- Title: js_free_string Pages: 1 -->
<svg width="356pt" height="66pt"
 viewBox="0.00 0.00 356.00 66.00" xmlns="http://www.w3.org/2000/svg" xmlns:xlink="http://www.w3.org/1999/xlink">
<g id="graph0" class="graph" transform="scale(1 1) rotate(0) translate(4 62)">
<title>js_free_string</title>
<!-- Node67450 -->
<g id="node1" class="node">
<title>Node67450</title>
<polygon fill="#bfbfbf" stroke="#000000" points="0,-19.5 0,-38.5 83,-38.5 83,-19.5 0,-19.5"/>
<text text-anchor="middle" x="41.5" y="-26.5" font-family="Helvetica,sans-Serif" font-size="10.00" fill="#000000">js_free_string</text>
</g>
<!-- Node67451 -->
<g id="node2" class="node">
<title>Node67451</title>
<g id="a_node2"><a xlink:href="quickjs_8c.html#a69e19dda8a93d613203e0baa06f0ed8d" target="_top" xlink:title="js_free_rt">
<polygon fill="none" stroke="#000000" points="273.5,-38.5 273.5,-57.5 335.5,-57.5 335.5,-38.5 273.5,-38.5"/>
<text text-anchor="middle" x="304.5" y="-45.5" font-family="Helvetica,sans-Serif" font-size="10.00" fill="#000000">js_free_rt</text>
</a>
</g>
</g>
<!-- Node67450&#45;&gt;Node67451 -->
<g id="edge1" class="edge">
<title>Node67450&#45;&gt;Node67451</title>
<path fill="none" stroke="#191970" d="M83.1731,-32.0106C132.4263,-35.5688 213.8843,-41.4536 263.043,-45.005"/>
<polygon fill="#191970" stroke="#191970" points="263.0907,-48.5175 273.317,-45.7472 263.5952,-41.5357 263.0907,-48.5175"/>
</g>
<!-- Node67452 -->
<g id="node3" class="node">
<title>Node67452</title>
<g id="a_node3"><a xlink:href="quickjs_8c.html#a58c8965dad50b15b75918a09f3d9dc7c" target="_top" xlink:title="JS_FreeAtomStruct">
<polygon fill="none" stroke="#000000" points="119,-.5 119,-19.5 225,-19.5 225,-.5 119,-.5"/>
<text text-anchor="middle" x="172" y="-7.5" font-family="Helvetica,sans-Serif" font-size="10.00" fill="#000000">JS_FreeAtomStruct</text>
</a>
</g>
</g>
<!-- Node67450&#45;&gt;Node67452 -->
<g id="edge2" class="edge">
<title>Node67450&#45;&gt;Node67452</title>
<path fill="none" stroke="#191970" d="M83.1498,-22.936C91.2991,-21.7496 100.0161,-20.4804 108.6873,-19.2179"/>
<polygon fill="#191970" stroke="#191970" points="109.4175,-22.6486 118.8089,-17.7443 108.4089,-15.7216 109.4175,-22.6486"/>
</g>
<!-- Node67452&#45;&gt;Node67451 -->
<g id="edge4" class="edge">
<title>Node67452&#45;&gt;Node67451</title>
<path fill="none" stroke="#191970" d="M205.4353,-19.589C223.1112,-24.6583 244.9565,-30.9234 263.6316,-36.2793"/>
<polygon fill="#191970" stroke="#191970" points="262.7735,-39.6742 273.3509,-39.0667 264.7033,-32.9454 262.7735,-39.6742"/>
</g>
<!-- Node67453 -->
<g id="node4" class="node">
<title>Node67453</title>
<g id="a_node4"><a xlink:href="quickjs_8c.html#aba70a7ff210dcedf19125863f2b12d4e" target="_top" xlink:title="atom_set_free">
<polygon fill="none" stroke="#000000" points="261,-.5 261,-19.5 348,-19.5 348,-.5 261,-.5"/>
<text text-anchor="middle" x="304.5" y="-7.5" font-family="Helvetica,sans-Serif" font-size="10.00" fill="#000000">atom_set_free</text>
</a>
</g>
</g>
<!-- Node67452&#45;&gt;Node67453 -->
<g id="edge3" class="edge">
<title>Node67452&#45;&gt;Node67453</title>
<path fill="none" stroke="#191970" d="M225.1294,-10C233.5238,-10 242.211,-10 250.6222,-10"/>
<polygon fill="#191970" stroke="#191970" points="250.7072,-13.5001 260.7071,-10 250.7071,-6.5001 250.7072,-13.5001"/>
</g>
</g>
</svg>
