<?xml version="1.0" encoding="UTF-8" standalone="no"?>
<!DOCTYPE svg PUBLIC "-//W3C//DTD SVG 1.1//EN"
 "http://www.w3.org/Graphics/SVG/1.1/DTD/svg11.dtd">
<!-- Generated by graphviz version 2.40.1 (20161225.0304)
 -->
<!-- Title: is_label Pages: 1 -->
<svg width="557pt" height="132pt"
 viewBox="0.00 0.00 557.00 132.00" xmlns="http://www.w3.org/2000/svg" xmlns:xlink="http://www.w3.org/1999/xlink">
<g id="graph0" class="graph" transform="scale(1 1) rotate(0) translate(4 128)">
<title>is_label</title>
<!-- Node331871 -->
<g id="node1" class="node">
<title>Node331871</title>
<polygon fill="#bfbfbf" stroke="#000000" points="0,-47.5 0,-66.5 54,-66.5 54,-47.5 0,-47.5"/>
<text text-anchor="middle" x="27" y="-54.5" font-family="Helvetica,sans-Serif" font-size="10.00" fill="#000000">is_label</text>
</g>
<!-- Node331872 -->
<g id="node2" class="node">
<title>Node331872</title>
<g id="a_node2"><a xlink:href="quickjs_8c.html#a9d844c16dcc71701436848074337d32c" target="_top" xlink:title="js_parse_statement\l_or_decl">
<polygon fill="none" stroke="#000000" points="90,-42 90,-72 203,-72 203,-42 90,-42"/>
<text text-anchor="start" x="98" y="-60" font-family="Helvetica,sans-Serif" font-size="10.00" fill="#000000">js_parse_statement</text>
<text text-anchor="middle" x="146.5" y="-49" font-family="Helvetica,sans-Serif" font-size="10.00" fill="#000000">_or_decl</text>
</a>
</g>
</g>
<!-- Node331871&#45;&gt;Node331872 -->
<g id="edge1" class="edge">
<title>Node331871&#45;&gt;Node331872</title>
<path fill="none" stroke="#191970" d="M64.3,-57C72.3732,-57 81.0862,-57 89.7165,-57"/>
<polygon fill="#191970" stroke="#191970" points="64.1164,-53.5001 54.1164,-57 64.1164,-60.5001 64.1164,-53.5001"/>
</g>
<!-- Node331872&#45;&gt;Node331872 -->
<g id="edge11" class="edge">
<title>Node331872&#45;&gt;Node331872</title>
<path fill="none" stroke="#191970" d="M125.5328,-82.4579C128.1351,-87.179 135.1242,-90.5 146.5,-90.5 165.168,-90.5 172.0226,-81.5566 167.0639,-72.159"/>
<polygon fill="#191970" stroke="#191970" points="129.0421,-82.2883 125.9361,-72.159 122.0474,-82.0144 129.0421,-82.2883"/>
</g>
<!-- Node331873 -->
<g id="node3" class="node">
<title>Node331873</title>
<g id="a_node3"><a xlink:href="quickjs_8c.html#acc0cac53be5317d9cab6a79afcd7da48" target="_top" xlink:title="js_parse_block">
<polygon fill="none" stroke="#000000" points="264.5,-104.5 264.5,-123.5 353.5,-123.5 353.5,-104.5 264.5,-104.5"/>
<text text-anchor="middle" x="309" y="-111.5" font-family="Helvetica,sans-Serif" font-size="10.00" fill="#000000">js_parse_block</text>
</a>
</g>
</g>
<!-- Node331872&#45;&gt;Node331873 -->
<g id="edge2" class="edge">
<title>Node331872&#45;&gt;Node331873</title>
<path fill="none" stroke="#191970" d="M210.9702,-75.7741C220.3048,-79.3391 229.8494,-82.8921 239,-86 258.6738,-92.682 282.0663,-98.6435 296.2109,-104.4472"/>
<polygon fill="#191970" stroke="#191970" points="211.9339,-72.3948 201.344,-72.0727 209.4217,-78.9285 211.9339,-72.3948"/>
</g>
<!-- Node331874 -->
<g id="node4" class="node">
<title>Node331874</title>
<g id="a_node4"><a xlink:href="quickjs_8c.html#ab59a3267a100decc9d2d81eb3297794a" target="_top" xlink:title="js_parse_source_element">
<polygon fill="none" stroke="#000000" points="239,-66.5 239,-85.5 379,-85.5 379,-66.5 239,-66.5"/>
<text text-anchor="middle" x="309" y="-73.5" font-family="Helvetica,sans-Serif" font-size="10.00" fill="#000000">js_parse_source_element</text>
</a>
</g>
</g>
<!-- Node331872&#45;&gt;Node331874 -->
<g id="edge4" class="edge">
<title>Node331872&#45;&gt;Node331874</title>
<path fill="none" stroke="#191970" d="M213.4093,-64.8232C221.7742,-65.8013 230.3486,-66.8038 238.7625,-67.7876"/>
<polygon fill="#191970" stroke="#191970" points="213.6734,-61.3304 203.3346,-63.6453 212.8605,-68.283 213.6734,-61.3304"/>
</g>
<!-- Node331907 -->
<g id="node7" class="node">
<title>Node331907</title>
<g id="a_node7"><a xlink:href="quickjs_8c.html#a729d43e44d20f1ed655cd9f4843995d3" target="_top" xlink:title="js_parse_statement">
<polygon fill="none" stroke="#000000" points="252.5,-28.5 252.5,-47.5 365.5,-47.5 365.5,-28.5 252.5,-28.5"/>
<text text-anchor="middle" x="309" y="-35.5" font-family="Helvetica,sans-Serif" font-size="10.00" fill="#000000">js_parse_statement</text>
</a>
</g>
</g>
<!-- Node331872&#45;&gt;Node331907 -->
<g id="edge7" class="edge">
<title>Node331872&#45;&gt;Node331907</title>
<path fill="none" stroke="#191970" d="M213.5704,-42.5001C226.4981,-40.8189 239.92,-39.3141 252.4719,-38.1452"/>
<polygon fill="#191970" stroke="#191970" points="212.7759,-39.0756 203.3346,-43.8832 213.7133,-46.0126 212.7759,-39.0756"/>
</g>
<!-- Node331873&#45;&gt;Node331872 -->
<g id="edge3" class="edge">
<title>Node331873&#45;&gt;Node331872</title>
<path fill="none" stroke="#191970" d="M254.3207,-108.8306C249.1162,-107.3108 243.9408,-105.6781 239,-104 212.6976,-95.0666 183.1404,-82.4562 164.6712,-72.0574"/>
<polygon fill="#191970" stroke="#191970" points="253.7398,-112.3013 264.3112,-111.5963 255.6075,-105.5551 253.7398,-112.3013"/>
</g>
<!-- Node331875 -->
<g id="node5" class="node">
<title>Node331875</title>
<g id="a_node5"><a xlink:href="quickjs_8c.html#acc9eb677cab8dfcf45f59381f8a19601" target="_top" xlink:title="js_parse_function_decl2">
<polygon fill="none" stroke="#ff0000" points="415,-85.5 415,-104.5 549,-104.5 549,-85.5 415,-85.5"/>
<text text-anchor="middle" x="482" y="-92.5" font-family="Helvetica,sans-Serif" font-size="10.00" fill="#000000">js_parse_function_decl2</text>
</a>
</g>
</g>
<!-- Node331874&#45;&gt;Node331875 -->
<g id="edge5" class="edge">
<title>Node331874&#45;&gt;Node331875</title>
<path fill="none" stroke="#191970" d="M389.3088,-84.82C397.8274,-85.7556 406.4264,-86.7 414.7732,-87.6167"/>
<polygon fill="#191970" stroke="#191970" points="389.6881,-81.3407 379.3657,-83.728 388.9238,-88.2989 389.6881,-81.3407"/>
</g>
<!-- Node331900 -->
<g id="node6" class="node">
<title>Node331900</title>
<g id="a_node6"><a xlink:href="quickjs_8c.html#aec05caae64451720670d1a56040110b3" target="_top" xlink:title="js_parse_program">
<polygon fill="none" stroke="#ff0000" points="430,-47.5 430,-66.5 534,-66.5 534,-47.5 430,-47.5"/>
<text text-anchor="middle" x="482" y="-54.5" font-family="Helvetica,sans-Serif" font-size="10.00" fill="#000000">js_parse_program</text>
</a>
</g>
</g>
<!-- Node331874&#45;&gt;Node331900 -->
<g id="edge6" class="edge">
<title>Node331874&#45;&gt;Node331900</title>
<path fill="none" stroke="#191970" d="M389.3088,-67.18C403.0422,-65.6717 416.9848,-64.1404 429.7423,-62.7393"/>
<polygon fill="#191970" stroke="#191970" points="388.9238,-63.7011 379.3657,-68.272 389.6881,-70.6593 388.9238,-63.7011"/>
</g>
<!-- Node331907&#45;&gt;Node331872 -->
<g id="edge10" class="edge">
<title>Node331907&#45;&gt;Node331872</title>
<path fill="none" stroke="#191970" d="M265.2814,-49.1759C246.2344,-52.1515 223.6608,-54.9266 203.3346,-56.8262"/>
<polygon fill="#191970" stroke="#191970" points="265.8726,-52.6258 275.1757,-47.5561 264.7416,-45.7178 265.8726,-52.6258"/>
</g>
<!-- Node331881 -->
<g id="node8" class="node">
<title>Node331881</title>
<g id="a_node8"><a xlink:href="quickjs_8c.html#ac188b916dd086803591a67de7e7a85f6" target="_top" xlink:title="js_parse_for_in_of">
<polygon fill="none" stroke="#000000" points="429.5,-.5 429.5,-19.5 534.5,-19.5 534.5,-.5 429.5,-.5"/>
<text text-anchor="middle" x="482" y="-7.5" font-family="Helvetica,sans-Serif" font-size="10.00" fill="#000000">js_parse_for_in_of</text>
</a>
</g>
</g>
<!-- Node331907&#45;&gt;Node331881 -->
<g id="edge8" class="edge">
<title>Node331907&#45;&gt;Node331881</title>
<path fill="none" stroke="#191970" d="M375.9168,-27.1695C393.6274,-24.3031 412.4941,-21.2495 429.3308,-18.5245"/>
<polygon fill="#191970" stroke="#191970" points="374.959,-23.7789 365.6467,-28.8318 376.0774,-30.689 374.959,-23.7789"/>
</g>
<!-- Node331881&#45;&gt;Node331872 -->
<g id="edge9" class="edge">
<title>Node331881&#45;&gt;Node331872</title>
<path fill="none" stroke="#191970" d="M418.9593,-6.3158C369.4568,-4.86 299.0895,-5.9783 239,-19 216.9423,-23.78 193.4336,-33.5045 175.6357,-41.9191"/>
<polygon fill="#191970" stroke="#191970" points="419.0819,-9.8218 429.1946,-6.6621 419.3188,-2.8258 419.0819,-9.8218"/>
</g>
</g>
</svg>
