<?xml version="1.0" encoding="UTF-8" standalone="no"?>
<!DOCTYPE svg PUBLIC "-//W3C//DTD SVG 1.1//EN"
 "http://www.w3.org/Graphics/SVG/1.1/DTD/svg11.dtd">
<!-- Generated by graphviz version 2.40.1 (20161225.0304)
 -->
<!-- Title: JS_DefineProperty Pages: 1 -->
<!--zoomable 541 -->
<svg id="main" version="1.1" xmlns="http://www.w3.org/2000/svg" xmlns:xlink="http://www.w3.org/1999/xlink" xml:space="preserve" onload="init(evt)">
<style type="text/css"><![CDATA[
.edge:hover path { stroke: red; }
.edge:hover polygon { stroke: red; fill: red; }
]]></style>
<script type="text/javascript"><![CDATA[
var edges = document.getElementsByTagName('g');
if (edges && edges.length) {
  for (var i=0;i<edges.length;i++) {
    if (edges[i].id.substr(0,4)=='edge') {
      edges[i].setAttribute('class','edge');
    }
  }
}
]]></script>
        <defs>
                <circle id="rim" cx="0" cy="0" r="7"/>
                <circle id="rim2" cx="0" cy="0" r="3.5"/>
                <g id="zoomPlus">
                        <use xlink:href="#rim" fill="#404040">
                                <set attributeName="fill" to="#808080" begin="zoomplus.mouseover" end="zoomplus.mouseout"/>
                        </use>
                        <path d="M-4,0h8M0,-4v8" fill="none" stroke="white" stroke-width="1.5" pointer-events="none"/>
                </g>
                <g id="zoomMin">
                        <use xlink:href="#rim" fill="#404040">
                                <set attributeName="fill" to="#808080" begin="zoomminus.mouseover" end="zoomminus.mouseout"/>
                        </use>
                        <path d="M-4,0h8" fill="none" stroke="white" stroke-width="1.5" pointer-events="none"/>
                </g>
                <g id="dirArrow">
                        <path fill="none" stroke="white" stroke-width="1.5" d="M0,-3.0v7 M-2.5,-0.5L0,-3.0L2.5,-0.5"/>
                </g>
               <g id="resetDef">
                       <use xlink:href="#rim2" fill="#404040">
                               <set attributeName="fill" to="#808080" begin="reset.mouseover" end="reset.mouseout"/>
                       </use>
               </g>
        </defs>

<script type="text/javascript">
var viewWidth = 941;
var viewHeight = 541;
var sectionId = 'dynsection-212';
</script>
<script xlink:href="svgpan.js"/>
<svg id="graph" class="graph">
<g id="viewport">
<title>JS_DefineProperty</title>
<!-- Node74480 -->
<g id="node1" class="node">
<title>Node74480</title>
<polygon fill="#bfbfbf" stroke="#000000" points="0,-271 0,-290 104,-290 104,-271 0,-271"/>
<text text-anchor="middle" x="52" y="-278" font-family="Helvetica,sans-Serif" font-size="10.00" fill="#000000">JS_DefineProperty</text>
</g>
<!-- Node74481 -->
<g id="node2" class="node">
<title>Node74481</title>
<g id="a_node2"><a xlink:href="quickjs_8c.html#a4c9489297c684663f30e517204a9ec14" target="_top" xlink:title="JS_AddIntrinsicBaseObjects">
<polygon fill="none" stroke="#000000" points="323,-480 323,-499 472,-499 472,-480 323,-480"/>
<text text-anchor="middle" x="397.5" y="-487" font-family="Helvetica,sans-Serif" font-size="10.00" fill="#000000">JS_AddIntrinsicBaseObjects</text>
</a>
</g>
</g>
<!-- Node74480&#45;&gt;Node74481 -->
<g id="edge1" class="edge">
<title>Node74480&#45;&gt;Node74481</title>
<path fill="none" stroke="#191970" d="M56.5654,-300.0777C68.8076,-350.7055 103.8929,-483.7329 140,-508.5 213.9316,-559.2123 329.5106,-519.0899 376.5387,-499.1098"/>
<polygon fill="#191970" stroke="#191970" points="59.9082,-299.0059 54.1892,-290.0872 53.0982,-300.6257 59.9082,-299.0059"/>
</g>
<!-- Node74486 -->
<g id="node5" class="node">
<title>Node74486</title>
<g id="a_node5"><a xlink:href="quickjs_8c.html#a9105ee38f5a557a7922fe6cfee0f9bb2" target="_top" xlink:title="js_arguments_define\l_own_property">
<polygon fill="none" stroke="#000000" points="154.5,-164.5 154.5,-194.5 272.5,-194.5 272.5,-164.5 154.5,-164.5"/>
<text text-anchor="start" x="162.5" y="-182.5" font-family="Helvetica,sans-Serif" font-size="10.00" fill="#000000">js_arguments_define</text>
<text text-anchor="middle" x="213.5" y="-171.5" font-family="Helvetica,sans-Serif" font-size="10.00" fill="#000000">_own_property</text>
</a>
</g>
</g>
<!-- Node74480&#45;&gt;Node74486 -->
<g id="edge4" class="edge">
<title>Node74480&#45;&gt;Node74486</title>
<path fill="none" stroke="#191970" d="M69.3087,-263.9654C86.2823,-248.3987 113.4138,-225.192 140,-209.5 149.4953,-203.8956 160.2338,-198.8642 170.5112,-194.5951"/>
<polygon fill="#191970" stroke="#191970" points="66.7683,-261.5486 61.8392,-270.927 71.5409,-266.6694 66.7683,-261.5486"/>
</g>
<!-- Node74487 -->
<g id="node6" class="node">
<title>Node74487</title>
<g id="a_node6"><a xlink:href="quickjs_8c.html#a04d312757919ff6b4d79cd0c2c3e5bb2" target="_top" xlink:title="js_build_arguments">
<polygon fill="none" stroke="#000000" points="341.5,-366 341.5,-385 453.5,-385 453.5,-366 341.5,-366"/>
<text text-anchor="middle" x="397.5" y="-373" font-family="Helvetica,sans-Serif" font-size="10.00" fill="#000000">js_build_arguments</text>
</a>
</g>
</g>
<!-- Node74480&#45;&gt;Node74487 -->
<g id="edge5" class="edge">
<title>Node74480&#45;&gt;Node74487</title>
<path fill="none" stroke="#191970" d="M74.6802,-295.8992C91.8882,-306.8797 116.5129,-321.1278 140,-329.5 206.9447,-353.3632 288.2725,-365.2411 341.3791,-370.8694"/>
<polygon fill="#191970" stroke="#191970" points="76.2247,-292.7278 65.9375,-290.1931 72.3988,-298.5897 76.2247,-292.7278"/>
</g>
<!-- Node74488 -->
<g id="node7" class="node">
<title>Node74488</title>
<g id="a_node7"><a xlink:href="quickjs_8c.html#ac2894ff4edcdb4e6841bcce9c76081e3" target="_top" xlink:title="JS_CallInternal">
<polygon fill="none" stroke="#000000" points="510,-328 510,-347 597,-347 597,-328 510,-328"/>
<text text-anchor="middle" x="553.5" y="-335" font-family="Helvetica,sans-Serif" font-size="10.00" fill="#000000">JS_CallInternal</text>
</a>
</g>
</g>
<!-- Node74480&#45;&gt;Node74488 -->
<g id="edge16" class="edge">
<title>Node74480&#45;&gt;Node74488</title>
<path fill="none" stroke="#191970" d="M65.6413,-297.9321C81.4179,-316.7865 109.2007,-346.1942 140,-361.5 214.0101,-398.2795 240.6835,-387.1374 323,-394.5 388.9589,-400.3995 408.8373,-414.396 472,-394.5 501.6437,-385.1623 529.8933,-360.7758 544.0539,-347.1193"/>
<polygon fill="#191970" stroke="#191970" points="68.2956,-295.6487 59.2697,-290.1005 62.8656,-300.0664 68.2956,-295.6487"/>
</g>
<!-- Node74706 -->
<g id="node12" class="node">
<title>Node74706</title>
<g id="a_node12"><a xlink:href="quickjs_8c.html#a7e5b77a4851eee6f666581d051979392" target="_top" xlink:title="js_proxy_define_own\l_property">
<polygon fill="none" stroke="#000000" points="814,-246.5 814,-276.5 933,-276.5 933,-246.5 814,-246.5"/>
<text text-anchor="start" x="822" y="-264.5" font-family="Helvetica,sans-Serif" font-size="10.00" fill="#000000">js_proxy_define_own</text>
<text text-anchor="middle" x="873.5" y="-253.5" font-family="Helvetica,sans-Serif" font-size="10.00" fill="#000000">_property</text>
</a>
</g>
</g>
<!-- Node74480&#45;&gt;Node74706 -->
<g id="edge28" class="edge">
<title>Node74480&#45;&gt;Node74706</title>
<path fill="none" stroke="#191970" d="M96.4725,-268.3774C161.8898,-251.6414 288.1466,-223.5 397.5,-223.5 397.5,-223.5 397.5,-223.5 553.5,-223.5 644.8317,-223.5 749.8095,-238.9529 813.8888,-250.1502"/>
<polygon fill="#191970" stroke="#191970" points="95.3101,-265.063 86.5077,-270.9595 97.066,-271.8392 95.3101,-265.063"/>
</g>
<!-- Node74643 -->
<g id="node13" class="node">
<title>Node74643</title>
<g id="a_node13"><a xlink:href="quickjs_8c.html#afda32fadaf7f938b5d1a2458a596a4b9" target="_top" xlink:title="JS_DefineGlobalFunction">
<polygon fill="none" stroke="#000000" points="330.5,-328 330.5,-347 464.5,-347 464.5,-328 330.5,-328"/>
<text text-anchor="middle" x="397.5" y="-335" font-family="Helvetica,sans-Serif" font-size="10.00" fill="#000000">JS_DefineGlobalFunction</text>
</a>
</g>
</g>
<!-- Node74480&#45;&gt;Node74643 -->
<g id="edge17" class="edge">
<title>Node74480&#45;&gt;Node74643</title>
<path fill="none" stroke="#191970" d="M94.8311,-292.8361C109.1105,-296.6425 125.161,-300.5929 140,-303.5 204.1649,-316.0707 278.2531,-325.3089 330.4383,-330.9568"/>
<polygon fill="#191970" stroke="#191970" points="95.3571,-289.3522 84.7892,-290.1069 93.5212,-296.1071 95.3571,-289.3522"/>
</g>
<!-- Node74644 -->
<g id="node14" class="node">
<title>Node74644</title>
<g id="a_node14"><a xlink:href="quickjs_8c.html#af40540b5f7e973f44e4e89d87938bfc6" target="_top" xlink:title="JS_DefinePropertyDesc">
<polygon fill="none" stroke="#ff0000" points="149.5,-126 149.5,-145 277.5,-145 277.5,-126 149.5,-126"/>
<text text-anchor="middle" x="213.5" y="-133" font-family="Helvetica,sans-Serif" font-size="10.00" fill="#000000">JS_DefinePropertyDesc</text>
</a>
</g>
</g>
<!-- Node74480&#45;&gt;Node74644 -->
<g id="edge19" class="edge">
<title>Node74480&#45;&gt;Node74644</title>
<path fill="none" stroke="#191970" d="M60.0432,-261.4359C72.8011,-233.5664 100.3582,-182.0327 140,-154.5 145.629,-150.5904 152.0039,-147.4852 158.5893,-145.0188"/>
<polygon fill="#191970" stroke="#191970" points="56.72,-260.2974 55.8838,-270.8592 63.1239,-263.124 56.72,-260.2974"/>
</g>
<!-- Node74649 -->
<g id="node15" class="node">
<title>Node74649</title>
<g id="a_node15"><a xlink:href="quickjs_8c.html#abfb24c507e9a341c0a98e61d86fd8663" target="_top" xlink:title="JS_DefinePropertyGetSet">
<polygon fill="none" stroke="#ff0000" points="145,-88 145,-107 282,-107 282,-88 145,-88"/>
<text text-anchor="middle" x="213.5" y="-95" font-family="Helvetica,sans-Serif" font-size="10.00" fill="#000000">JS_DefinePropertyGetSet</text>
</a>
</g>
</g>
<!-- Node74480&#45;&gt;Node74649 -->
<g id="edge20" class="edge">
<title>Node74480&#45;&gt;Node74649</title>
<path fill="none" stroke="#191970" d="M56.8425,-261.1939C66.5237,-226.6866 91.6126,-154.4928 140,-116.5 144.9758,-112.5931 150.6697,-109.4833 156.6374,-107.0091"/>
<polygon fill="#191970" stroke="#191970" points="53.4272,-260.4178 54.2306,-270.9822 60.1905,-262.2226 53.4272,-260.4178"/>
</g>
<!-- Node74662 -->
<g id="node16" class="node">
<title>Node74662</title>
<g id="a_node16"><a xlink:href="quickjs_8c.html#a0a8765bd4012467d9139bc24aabcb3ca" target="_top" xlink:title="JS_DefinePropertyValue">
<polygon fill="none" stroke="#ff0000" points="148,-442 148,-461 279,-461 279,-442 148,-442"/>
<text text-anchor="middle" x="213.5" y="-449" font-family="Helvetica,sans-Serif" font-size="10.00" fill="#000000">JS_DefinePropertyValue</text>
</a>
</g>
</g>
<!-- Node74480&#45;&gt;Node74662 -->
<g id="edge21" class="edge">
<title>Node74480&#45;&gt;Node74662</title>
<path fill="none" stroke="#191970" d="M58.5954,-300.1439C70.1369,-331.5825 96.9494,-393.1473 140,-427.5 147.8693,-433.7794 157.4362,-438.4394 167.0307,-441.8899"/>
<polygon fill="#191970" stroke="#191970" points="61.7762,-298.6398 55.1483,-290.3741 55.1751,-300.9689 61.7762,-298.6398"/>
</g>
<!-- Node74787 -->
<g id="node17" class="node">
<title>Node74787</title>
<g id="a_node17"><a xlink:href="quickjs_8c.html#ad47910027b4f50d5ff3239df19de556d" target="_top" xlink:title="js_object___defineGetter__">
<polygon fill="none" stroke="#000000" points="140,-50 140,-69 287,-69 287,-50 140,-50"/>
<text text-anchor="middle" x="213.5" y="-57" font-family="Helvetica,sans-Serif" font-size="10.00" fill="#000000">js_object___defineGetter__</text>
</a>
</g>
</g>
<!-- Node74480&#45;&gt;Node74787 -->
<g id="edge25" class="edge">
<title>Node74480&#45;&gt;Node74787</title>
<path fill="none" stroke="#191970" d="M54.783,-260.7583C61.5691,-220.2173 82.8163,-127.2997 140,-78.5 144.5115,-74.65 149.708,-71.5664 155.2092,-69.0988"/>
<polygon fill="#191970" stroke="#191970" points="51.3115,-260.3051 53.2346,-270.7239 58.2285,-261.3799 51.3115,-260.3051"/>
</g>
<!-- Node74800 -->
<g id="node18" class="node">
<title>Node74800</title>
<g id="a_node18"><a xlink:href="quickjs_8c.html#a3b1f61e0c2e39eb52d8b1c5c8713873e" target="_top" xlink:title="js_object_seal">
<polygon fill="none" stroke="#000000" points="170.5,-480 170.5,-499 256.5,-499 256.5,-480 170.5,-480"/>
<text text-anchor="middle" x="213.5" y="-487" font-family="Helvetica,sans-Serif" font-size="10.00" fill="#000000">js_object_seal</text>
</a>
</g>
</g>
<!-- Node74480&#45;&gt;Node74800 -->
<g id="edge26" class="edge">
<title>Node74480&#45;&gt;Node74800</title>
<path fill="none" stroke="#191970" d="M55.3612,-300.1248C63.0472,-338.8261 85.6186,-425.1571 140,-470.5 148.6044,-477.6743 159.5979,-482.179 170.4454,-484.996"/>
<polygon fill="#191970" stroke="#191970" points="58.774,-299.3326 53.504,-290.1415 51.8921,-300.613 58.774,-299.3326"/>
</g>
<!-- Node74605 -->
<g id="node19" class="node">
<title>Node74605</title>
<g id="a_node19"><a xlink:href="quickjs_8c.html#a638e637d492ee889691691baba33c4bd" target="_top" xlink:title="JS_SetPropertyGeneric">
<polygon fill="none" stroke="#ff0000" points="335,-290 335,-309 460,-309 460,-290 335,-290"/>
<text text-anchor="middle" x="397.5" y="-297" font-family="Helvetica,sans-Serif" font-size="10.00" fill="#000000">JS_SetPropertyGeneric</text>
</a>
</g>
</g>
<!-- Node74480&#45;&gt;Node74605 -->
<g id="edge29" class="edge">
<title>Node74480&#45;&gt;Node74605</title>
<path fill="none" stroke="#191970" d="M114.1972,-283.9204C176.5771,-287.3508 272.1231,-292.6052 334.7115,-296.0471"/>
<polygon fill="#191970" stroke="#191970" points="114.2761,-280.4195 104.0989,-283.3651 113.8916,-287.409 114.2761,-280.4195"/>
</g>
<!-- Node74608 -->
<g id="node20" class="node">
<title>Node74608</title>
<g id="a_node20"><a xlink:href="quickjs_8c.html#ad7f03358a8088ca920ab308225c6b2e6" target="_top" xlink:title="JS_SetPropertyInternal">
<polygon fill="none" stroke="#ff0000" points="335,-252 335,-271 460,-271 460,-252 335,-252"/>
<text text-anchor="middle" x="397.5" y="-259" font-family="Helvetica,sans-Serif" font-size="10.00" fill="#000000">JS_SetPropertyInternal</text>
</a>
</g>
</g>
<!-- Node74480&#45;&gt;Node74608 -->
<g id="edge31" class="edge">
<title>Node74480&#45;&gt;Node74608</title>
<path fill="none" stroke="#191970" d="M114.1972,-277.0796C176.5771,-273.6492 272.1231,-268.3948 334.7115,-264.9529"/>
<polygon fill="#191970" stroke="#191970" points="113.8916,-273.591 104.0989,-277.6349 114.2761,-280.5805 113.8916,-273.591"/>
</g>
<!-- Node74698 -->
<g id="node21" class="node">
<title>Node74698</title>
<g id="a_node21"><a xlink:href="quickjs_8c.html#a1fdb56277638da2aef63b9be0c12895f" target="_top" xlink:title="js_string_define_own\l_property">
<polygon fill="none" stroke="#000000" points="154,-.5 154,-30.5 273,-30.5 273,-.5 154,-.5"/>
<text text-anchor="start" x="162" y="-18.5" font-family="Helvetica,sans-Serif" font-size="10.00" fill="#000000">js_string_define_own</text>
<text text-anchor="middle" x="213.5" y="-7.5" font-family="Helvetica,sans-Serif" font-size="10.00" fill="#000000">_property</text>
</a>
</g>
</g>
<!-- Node74480&#45;&gt;Node74698 -->
<g id="edge33" class="edge">
<title>Node74480&#45;&gt;Node74698</title>
<path fill="none" stroke="#191970" d="M53.6058,-260.6359C58.3357,-215.1993 76.1949,-102.8177 140,-40.5 144.0498,-36.5446 148.7491,-33.2142 153.7758,-30.4101"/>
<polygon fill="#191970" stroke="#191970" points="50.1135,-260.3913 52.6663,-270.674 57.0831,-261.0437 50.1135,-260.3913"/>
</g>
<!-- Node74482 -->
<g id="node3" class="node">
<title>Node74482</title>
<g id="a_node3"><a xlink:href="quickjs_8c.html#ad8aedb643b8753b7a15f6cb2df61945e" target="_top" xlink:title="JS_NewContext">
<polygon fill="none" stroke="#000000" points="508,-480 508,-499 599,-499 599,-480 508,-480"/>
<text text-anchor="middle" x="553.5" y="-487" font-family="Helvetica,sans-Serif" font-size="10.00" fill="#000000">JS_NewContext</text>
</a>
</g>
</g>
<!-- Node74481&#45;&gt;Node74482 -->
<g id="edge2" class="edge">
<title>Node74481&#45;&gt;Node74482</title>
<path fill="none" stroke="#191970" d="M482.4608,-489.5C491.0918,-489.5 499.6083,-489.5 507.583,-489.5"/>
<polygon fill="#191970" stroke="#191970" points="482.3016,-486.0001 472.3016,-489.5 482.3015,-493.0001 482.3016,-486.0001"/>
</g>
<!-- Node74483 -->
<g id="node4" class="node">
<title>Node74483</title>
<g id="a_node4"><a xlink:href="classqjs_1_1Context.html#a4392a23648acfc4bf6b445336efb5007" target="_top" xlink:title="qjs::Context::Context">
<polygon fill="none" stroke="#ff0000" points="647,-480 647,-499 766,-499 766,-480 647,-480"/>
<text text-anchor="middle" x="706.5" y="-487" font-family="Helvetica,sans-Serif" font-size="10.00" fill="#000000">qjs::Context::Context</text>
</a>
</g>
</g>
<!-- Node74482&#45;&gt;Node74483 -->
<g id="edge3" class="edge">
<title>Node74482&#45;&gt;Node74483</title>
<path fill="none" stroke="#191970" d="M609.7674,-489.5C621.8076,-489.5 634.5683,-489.5 646.7351,-489.5"/>
<polygon fill="#191970" stroke="#191970" points="609.4051,-486.0001 599.405,-489.5 609.405,-493.0001 609.4051,-486.0001"/>
</g>
<!-- Node74487&#45;&gt;Node74488 -->
<g id="edge6" class="edge">
<title>Node74487&#45;&gt;Node74488</title>
<path fill="none" stroke="#191970" d="M446.6317,-363.532C468.4927,-358.2069 493.8761,-352.0238 514.4177,-347.0201"/>
<polygon fill="#191970" stroke="#191970" points="445.7529,-360.1437 436.8654,-365.911 447.4097,-366.9448 445.7529,-360.1437"/>
</g>
<!-- Node74488&#45;&gt;Node74488 -->
<g id="edge15" class="edge">
<title>Node74488&#45;&gt;Node74488</title>
<path fill="none" stroke="#191970" d="M525.1275,-356.1539C526.3135,-361.4368 535.771,-365.5 553.5,-365.5 580.5156,-365.5 588.3248,-356.0653 576.9276,-347.2571"/>
<polygon fill="#191970" stroke="#191970" points="528.2735,-357.6981 530.0724,-347.2571 522.1551,-354.2974 528.2735,-357.6981"/>
</g>
<!-- Node74489 -->
<g id="node8" class="node">
<title>Node74489</title>
<g id="a_node8"><a xlink:href="quickjs_8c.html#ade71a22dc56e7371392393df663b28b3" target="_top" xlink:title="async_func_resume">
<polygon fill="none" stroke="#ff0000" points="650,-385 650,-404 763,-404 763,-385 650,-385"/>
<text text-anchor="middle" x="706.5" y="-392" font-family="Helvetica,sans-Serif" font-size="10.00" fill="#000000">async_func_resume</text>
</a>
</g>
</g>
<!-- Node74488&#45;&gt;Node74489 -->
<g id="edge7" class="edge">
<title>Node74488&#45;&gt;Node74489</title>
<path fill="none" stroke="#191970" d="M580.6392,-351.6264C596.2526,-359.3774 616.4052,-368.7543 635,-375.5 644.78,-379.0479 655.5291,-382.2528 665.655,-384.9766"/>
<polygon fill="#191970" stroke="#191970" points="582.0637,-348.425 571.5587,-347.0484 578.9125,-354.6756 582.0637,-348.425"/>
</g>
<!-- Node74504 -->
<g id="node9" class="node">
<title>Node74504</title>
<g id="a_node9"><a xlink:href="quickjs_8c.html#a1a4c02a29525d5cb2085dd8bca3af350" target="_top" xlink:title="JS_Call">
<polygon fill="none" stroke="#ff0000" points="681.5,-347 681.5,-366 731.5,-366 731.5,-347 681.5,-347"/>
<text text-anchor="middle" x="706.5" y="-354" font-family="Helvetica,sans-Serif" font-size="10.00" fill="#000000">JS_Call</text>
</a>
</g>
</g>
<!-- Node74488&#45;&gt;Node74504 -->
<g id="edge8" class="edge">
<title>Node74488&#45;&gt;Node74504</title>
<path fill="none" stroke="#191970" d="M607.4902,-337.7214C632.6053,-340.2287 661.2736,-344.2288 681.2754,-348.2042"/>
<polygon fill="#191970" stroke="#191970" points="607.6258,-334.2189 597.3437,-336.774 606.9749,-341.1886 607.6258,-334.2189"/>
</g>
<!-- Node74589 -->
<g id="node10" class="node">
<title>Node74589</title>
<g id="a_node10"><a xlink:href="quickjs_8c.html#ad35594576a14c10812efaf958c99af8a" target="_top" xlink:title="JS_CallConstructorInternal">
<polygon fill="none" stroke="#ff0000" points="635,-309 635,-328 778,-328 778,-309 635,-309"/>
<text text-anchor="middle" x="706.5" y="-316" font-family="Helvetica,sans-Serif" font-size="10.00" fill="#000000">JS_CallConstructorInternal</text>
</a>
</g>
</g>
<!-- Node74488&#45;&gt;Node74589 -->
<g id="edge10" class="edge">
<title>Node74488&#45;&gt;Node74589</title>
<path fill="none" stroke="#191970" d="M595.1137,-326.2494C607.3855,-324.2218 621.1815,-322.2901 634.7756,-320.6687"/>
<polygon fill="#191970" stroke="#191970" points="594.4555,-322.8112 585.2017,-327.9705 595.6531,-329.708 594.4555,-322.8112"/>
</g>
<!-- Node74603 -->
<g id="node11" class="node">
<title>Node74603</title>
<g id="a_node11"><a xlink:href="quickjs_8c.html#a75f6ee5e4235a7dc99889f3d2eb2c147" target="_top" xlink:title="JS_CallFree">
<polygon fill="none" stroke="#ff0000" points="671.5,-271 671.5,-290 741.5,-290 741.5,-271 671.5,-271"/>
<text text-anchor="middle" x="706.5" y="-278" font-family="Helvetica,sans-Serif" font-size="10.00" fill="#000000">JS_CallFree</text>
</a>
</g>
</g>
<!-- Node74488&#45;&gt;Node74603 -->
<g id="edge12" class="edge">
<title>Node74488&#45;&gt;Node74603</title>
<path fill="none" stroke="#191970" d="M569.7378,-322.0357C585.9333,-311.5466 611.6906,-298.9561 635,-290.5 646.5911,-286.295 659.5435,-282.5719 671.2063,-280.0352"/>
<polygon fill="#191970" stroke="#191970" points="567.55,-319.2959 561.3979,-327.9216 571.5863,-325.015 567.55,-319.2959"/>
</g>
<!-- Node74504&#45;&gt;Node74488 -->
<g id="edge9" class="edge">
<title>Node74504&#45;&gt;Node74488</title>
<path fill="none" stroke="#191970" d="M671.2378,-357.9103C645.2775,-356.0299 610.2807,-351.6184 585.2017,-347.0295"/>
<polygon fill="#191970" stroke="#191970" points="671.2073,-361.415 681.4038,-358.5372 671.6382,-354.4282 671.2073,-361.415"/>
</g>
<!-- Node74589&#45;&gt;Node74488 -->
<g id="edge11" class="edge">
<title>Node74589&#45;&gt;Node74488</title>
<path fill="none" stroke="#191970" d="M664.9185,-329.7453C643.9774,-333.2063 618.5916,-336.3885 597.3437,-338.226"/>
<polygon fill="#191970" stroke="#191970" points="665.5505,-333.188 674.8041,-328.0285 664.3527,-326.2912 665.5505,-333.188"/>
</g>
<!-- Node74603&#45;&gt;Node74488 -->
<g id="edge13" class="edge">
<title>Node74603&#45;&gt;Node74488</title>
<path fill="none" stroke="#191970" d="M683.3729,-293.3388C669.215,-297.9091 650.8368,-302.7548 635,-308.5 619.2968,-314.1967 602.4827,-321.7699 588.2295,-327.9985"/>
<polygon fill="#191970" stroke="#191970" points="684.5416,-296.6381 692.8396,-290.0507 682.2448,-290.0256 684.5416,-296.6381"/>
</g>
<!-- Node74603&#45;&gt;Node74706 -->
<g id="edge14" class="edge">
<title>Node74603&#45;&gt;Node74706</title>
<path fill="none" stroke="#191970" d="M751.483,-275.3822C770.6669,-273.1996 793.3242,-270.6218 813.875,-268.2837"/>
<polygon fill="#191970" stroke="#191970" points="751.0489,-271.9089 741.5087,-276.517 751.8403,-278.864 751.0489,-271.9089"/>
</g>
<!-- Node74643&#45;&gt;Node74488 -->
<g id="edge18" class="edge">
<title>Node74643&#45;&gt;Node74488</title>
<path fill="none" stroke="#191970" d="M474.7007,-337.5C486.8065,-337.5 498.938,-337.5 509.9287,-337.5"/>
<polygon fill="#191970" stroke="#191970" points="474.5634,-334.0001 464.5634,-337.5 474.5634,-341.0001 474.5634,-334.0001"/>
</g>
<!-- Node74662&#45;&gt;Node74481 -->
<g id="edge22" class="edge">
<title>Node74662&#45;&gt;Node74481</title>
<path fill="none" stroke="#191970" d="M270.0606,-463.181C296.1542,-468.5699 326.7378,-474.8861 351.4029,-479.9799"/>
<polygon fill="#191970" stroke="#191970" points="270.4322,-459.684 259.931,-461.089 269.0164,-466.5393 270.4322,-459.684"/>
</g>
<!-- Node74662&#45;&gt;Node74487 -->
<g id="edge23" class="edge">
<title>Node74662&#45;&gt;Node74487</title>
<path fill="none" stroke="#191970" d="M246.1151,-438.0285C282.9612,-422.8095 341.9991,-398.4243 374.3855,-385.0473"/>
<polygon fill="#191970" stroke="#191970" points="244.7102,-434.822 236.8037,-441.8745 247.3825,-441.2918 244.7102,-434.822"/>
</g>
<!-- Node74662&#45;&gt;Node74488 -->
<g id="edge24" class="edge">
<title>Node74662&#45;&gt;Node74488</title>
<path fill="none" stroke="#191970" d="M289.35,-458.5518C343.0838,-460.2854 415.3838,-455.8153 472,-427.5 508.7635,-409.1136 536.8077,-366.5183 548.0851,-347.263"/>
<polygon fill="#191970" stroke="#191970" points="289.3337,-455.0484 279.2012,-458.144 289.0526,-462.0427 289.3337,-455.0484"/>
</g>
<!-- Node74800&#45;&gt;Node74481 -->
<g id="edge27" class="edge">
<title>Node74800&#45;&gt;Node74481</title>
<path fill="none" stroke="#191970" d="M266.6809,-489.5C284.2302,-489.5 304.0873,-489.5 322.9316,-489.5"/>
<polygon fill="#191970" stroke="#191970" points="266.6399,-486.0001 256.6398,-489.5 266.6398,-493.0001 266.6399,-486.0001"/>
</g>
<!-- Node74605&#45;&gt;Node74488 -->
<g id="edge30" class="edge">
<title>Node74605&#45;&gt;Node74488</title>
<path fill="none" stroke="#191970" d="M446.6317,-311.468C468.4927,-316.7931 493.8761,-322.9762 514.4177,-327.9799"/>
<polygon fill="#191970" stroke="#191970" points="447.4097,-308.0552 436.8654,-309.089 445.7529,-314.8563 447.4097,-308.0552"/>
</g>
<!-- Node74608&#45;&gt;Node74488 -->
<g id="edge32" class="edge">
<title>Node74608&#45;&gt;Node74488</title>
<path fill="none" stroke="#191970" d="M455.3435,-274.0289C461.0708,-275.9267 466.7146,-278.0759 472,-280.5 499.6224,-293.1686 527.7855,-315.3593 542.6899,-327.9913"/>
<polygon fill="#191970" stroke="#191970" points="456.2613,-270.6496 445.6747,-271.0684 454.2118,-277.3429 456.2613,-270.6496"/>
</g>
</g>
</svg>
        <g id="navigator" transform="translate(0 0)" fill="#404254">
                <rect fill="#f2f5e9" fill-opacity="0.5" stroke="#606060" stroke-width=".5" x="0" y="0" width="60" height="60"/>
                <use id="zoomplus" xlink:href="#zoomPlus" x="17" y="9" onmousedown="handleZoom(evt,'in')"/>
                <use id="zoomminus" xlink:href="#zoomMin" x="42" y="9" onmousedown="handleZoom(evt,'out')"/>
                <use id="reset" xlink:href="#resetDef" x="30" y="36" onmousedown="handleReset()"/>
                <g id="arrowUp" xlink:href="#dirArrow" transform="translate(30 24)" onmousedown="handlePan(0,-1)">
                  <use xlink:href="#rim" fill="#404040">
                        <set attributeName="fill" to="#808080" begin="arrowUp.mouseover" end="arrowUp.mouseout"/>
                  </use>
                  <path fill="none" stroke="white" stroke-width="1.5" d="M0,-3.0v7 M-2.5,-0.5L0,-3.0L2.5,-0.5"/>
                </g>
                <g id="arrowRight" xlink:href="#dirArrow" transform="rotate(90) translate(36 -43)" onmousedown="handlePan(1,0)">
                  <use xlink:href="#rim" fill="#404040">
                        <set attributeName="fill" to="#808080" begin="arrowRight.mouseover" end="arrowRight.mouseout"/>
                  </use>
                  <path fill="none" stroke="white" stroke-width="1.5" d="M0,-3.0v7 M-2.5,-0.5L0,-3.0L2.5,-0.5"/>
                </g>
                <g id="arrowDown" xlink:href="#dirArrow" transform="rotate(180) translate(-30 -48)" onmousedown="handlePan(0,1)">
                  <use xlink:href="#rim" fill="#404040">
                        <set attributeName="fill" to="#808080" begin="arrowDown.mouseover" end="arrowDown.mouseout"/>
                  </use>
                  <path fill="none" stroke="white" stroke-width="1.5" d="M0,-3.0v7 M-2.5,-0.5L0,-3.0L2.5,-0.5"/>
                </g>
                <g id="arrowLeft" xlink:href="#dirArrow" transform="rotate(270) translate(-36 17)" onmousedown="handlePan(-1,0)">
                  <use xlink:href="#rim" fill="#404040">
                        <set attributeName="fill" to="#808080" begin="arrowLeft.mouseover" end="arrowLeft.mouseout"/>
                  </use>
                  <path fill="none" stroke="white" stroke-width="1.5" d="M0,-3.0v7 M-2.5,-0.5L0,-3.0L2.5,-0.5"/>
                </g>
        </g>
        <svg viewBox="0 0 15 15" width="100%" height="30px" preserveAspectRatio="xMaxYMin meet">
         <g id="arrow_out" transform="scale(0.3 0.3)">
          <a xlink:href="quickjs_8h_ab50618f1bf78e444caa6da0e3e2785d7_icgraph_org.svg" target="_base">
           <rect id="button" ry="5" rx="5" y="6" x="6" height="38" width="38"
                fill="#f2f5e9" fill-opacity="0.5" stroke="#606060" stroke-width="1.0"/>
           <path id="arrow"
             d="M 11.500037,31.436501 C 11.940474,20.09759 22.043105,11.32322 32.158766,21.979434 L 37.068811,17.246167 C 37.068811,17.246167 37.088388,32 37.088388,32 L 22.160133,31.978069 C 22.160133,31.978069 26.997745,27.140456 26.997745,27.140456 C 18.528582,18.264221 13.291696,25.230495 11.500037,31.436501 z"
             style="fill:#404040;"/>
          </a>
         </g>
        </svg>
</svg>
