<?xml version="1.0" encoding="UTF-8" standalone="no"?>
<!DOCTYPE svg PUBLIC "-//W3C//DTD SVG 1.1//EN"
 "http://www.w3.org/Graphics/SVG/1.1/DTD/svg11.dtd">
<!-- Generated by graphviz version 2.40.1 (20161225.0304)
 -->
<!-- Title: JS_FreeAtomRT Pages: 1 -->
<!--zoomable 85 -->
<svg id="main" version="1.1" xmlns="http://www.w3.org/2000/svg" xmlns:xlink="http://www.w3.org/1999/xlink" xml:space="preserve" onload="init(evt)">
<style type="text/css"><![CDATA[
.edge:hover path { stroke: red; }
.edge:hover polygon { stroke: red; fill: red; }
]]></style>
<script type="text/javascript"><![CDATA[
var edges = document.getElementsByTagName('g');
if (edges && edges.length) {
  for (var i=0;i<edges.length;i++) {
    if (edges[i].id.substr(0,4)=='edge') {
      edges[i].setAttribute('class','edge');
    }
  }
}
]]></script>
        <defs>
                <circle id="rim" cx="0" cy="0" r="7"/>
                <circle id="rim2" cx="0" cy="0" r="3.5"/>
                <g id="zoomPlus">
                        <use xlink:href="#rim" fill="#404040">
                                <set attributeName="fill" to="#808080" begin="zoomplus.mouseover" end="zoomplus.mouseout"/>
                        </use>
                        <path d="M-4,0h8M0,-4v8" fill="none" stroke="white" stroke-width="1.5" pointer-events="none"/>
                </g>
                <g id="zoomMin">
                        <use xlink:href="#rim" fill="#404040">
                                <set attributeName="fill" to="#808080" begin="zoomminus.mouseover" end="zoomminus.mouseout"/>
                        </use>
                        <path d="M-4,0h8" fill="none" stroke="white" stroke-width="1.5" pointer-events="none"/>
                </g>
                <g id="dirArrow">
                        <path fill="none" stroke="white" stroke-width="1.5" d="M0,-3.0v7 M-2.5,-0.5L0,-3.0L2.5,-0.5"/>
                </g>
               <g id="resetDef">
                       <use xlink:href="#rim2" fill="#404040">
                               <set attributeName="fill" to="#808080" begin="reset.mouseover" end="reset.mouseout"/>
                       </use>
               </g>
        </defs>

<script type="text/javascript">
var viewWidth = 502;
var viewHeight = 85;
var sectionId = 'dynsection-276';
</script>
<script xlink:href="svgpan.js"/>
<svg id="graph" class="graph">
<g id="viewport">
<title>JS_FreeAtomRT</title>
<!-- Node95481 -->
<g id="node1" class="node">
<title>Node95481</title>
<polygon fill="#bfbfbf" stroke="#000000" points="0,-38.5 0,-57.5 89,-57.5 89,-38.5 0,-38.5"/>
<text text-anchor="middle" x="44.5" y="-45.5" font-family="Helvetica,sans-Serif" font-size="10.00" fill="#000000">JS_FreeAtomRT</text>
</g>
<!-- Node95482 -->
<g id="node2" class="node">
<title>Node95482</title>
<g id="a_node2"><a xlink:href="quickjs_8c.html#a7f6796ee7a195631366f57c713a33f65" target="_top" xlink:title="__JS_AtomIsConst">
<polygon fill="none" stroke="#000000" points="125,-57.5 125,-76.5 229,-76.5 229,-57.5 125,-57.5"/>
<text text-anchor="middle" x="177" y="-64.5" font-family="Helvetica,sans-Serif" font-size="10.00" fill="#000000">__JS_AtomIsConst</text>
</a>
</g>
</g>
<!-- Node95481&#45;&gt;Node95482 -->
<g id="edge1" class="edge">
<title>Node95481&#45;&gt;Node95482</title>
<path fill="none" stroke="#191970" d="M89.3585,-54.4325C97.5606,-55.6087 106.2528,-56.8551 114.8524,-58.0883"/>
<polygon fill="#191970" stroke="#191970" points="114.4746,-61.5698 124.8702,-59.5248 115.4683,-54.6407 114.4746,-61.5698"/>
</g>
<!-- Node95483 -->
<g id="node3" class="node">
<title>Node95483</title>
<g id="a_node3"><a xlink:href="quickjs_8c.html#a0bbd9e3ecd55e3ea6c9d44bfda382095" target="_top" xlink:title="__JS_FreeAtom">
<polygon fill="none" stroke="#000000" points="133,-19.5 133,-38.5 221,-38.5 221,-19.5 133,-19.5"/>
<text text-anchor="middle" x="177" y="-26.5" font-family="Helvetica,sans-Serif" font-size="10.00" fill="#000000">__JS_FreeAtom</text>
</a>
</g>
</g>
<!-- Node95481&#45;&gt;Node95483 -->
<g id="edge2" class="edge">
<title>Node95481&#45;&gt;Node95483</title>
<path fill="none" stroke="#191970" d="M89.3585,-41.5675C100.0498,-40.0344 111.5739,-38.3819 122.6403,-36.795"/>
<polygon fill="#191970" stroke="#191970" points="123.2357,-40.2455 132.6376,-35.3614 122.242,-33.3164 123.2357,-40.2455"/>
</g>
<!-- Node95484 -->
<g id="node4" class="node">
<title>Node95484</title>
<g id="a_node4"><a xlink:href="quickjs_8c.html#a58c8965dad50b15b75918a09f3d9dc7c" target="_top" xlink:title="JS_FreeAtomStruct">
<polygon fill="none" stroke="#000000" points="265,-19.5 265,-38.5 371,-38.5 371,-19.5 265,-19.5"/>
<text text-anchor="middle" x="318" y="-26.5" font-family="Helvetica,sans-Serif" font-size="10.00" fill="#000000">JS_FreeAtomStruct</text>
</a>
</g>
</g>
<!-- Node95483&#45;&gt;Node95484 -->
<g id="edge3" class="edge">
<title>Node95483&#45;&gt;Node95484</title>
<path fill="none" stroke="#191970" d="M221.2264,-29C231.8001,-29 243.2938,-29 254.5458,-29"/>
<polygon fill="#191970" stroke="#191970" points="254.778,-32.5001 264.7779,-29 254.7779,-25.5001 254.778,-32.5001"/>
</g>
<!-- Node95485 -->
<g id="node5" class="node">
<title>Node95485</title>
<g id="a_node5"><a xlink:href="quickjs_8c.html#aba70a7ff210dcedf19125863f2b12d4e" target="_top" xlink:title="atom_set_free">
<polygon fill="none" stroke="#000000" points="407,-38.5 407,-57.5 494,-57.5 494,-38.5 407,-38.5"/>
<text text-anchor="middle" x="450.5" y="-45.5" font-family="Helvetica,sans-Serif" font-size="10.00" fill="#000000">atom_set_free</text>
</a>
</g>
</g>
<!-- Node95484&#45;&gt;Node95485 -->
<g id="edge4" class="edge">
<title>Node95484&#45;&gt;Node95485</title>
<path fill="none" stroke="#191970" d="M371.1294,-36.6185C379.5238,-37.8223 388.211,-39.068 396.6222,-40.2741"/>
<polygon fill="#191970" stroke="#191970" points="396.3115,-43.7653 406.7071,-41.7203 397.3052,-36.8362 396.3115,-43.7653"/>
</g>
<!-- Node95486 -->
<g id="node6" class="node">
<title>Node95486</title>
<g id="a_node6"><a xlink:href="quickjs_8c.html#a69e19dda8a93d613203e0baa06f0ed8d" target="_top" xlink:title="js_free_rt">
<polygon fill="none" stroke="#000000" points="419.5,-.5 419.5,-19.5 481.5,-19.5 481.5,-.5 419.5,-.5"/>
<text text-anchor="middle" x="450.5" y="-7.5" font-family="Helvetica,sans-Serif" font-size="10.00" fill="#000000">js_free_rt</text>
</a>
</g>
</g>
<!-- Node95484&#45;&gt;Node95486 -->
<g id="edge5" class="edge">
<title>Node95484&#45;&gt;Node95486</title>
<path fill="none" stroke="#191970" d="M371.1294,-21.3815C383.8256,-19.5609 397.1916,-17.6442 409.2598,-15.9137"/>
<polygon fill="#191970" stroke="#191970" points="410.0798,-19.332 419.4817,-14.4479 409.0861,-12.4029 410.0798,-19.332"/>
</g>
</g>
</svg>
        <g id="navigator" transform="translate(0 0)" fill="#404254">
                <rect fill="#f2f5e9" fill-opacity="0.5" stroke="#606060" stroke-width=".5" x="0" y="0" width="60" height="60"/>
                <use id="zoomplus" xlink:href="#zoomPlus" x="17" y="9" onmousedown="handleZoom(evt,'in')"/>
                <use id="zoomminus" xlink:href="#zoomMin" x="42" y="9" onmousedown="handleZoom(evt,'out')"/>
                <use id="reset" xlink:href="#resetDef" x="30" y="36" onmousedown="handleReset()"/>
                <g id="arrowUp" xlink:href="#dirArrow" transform="translate(30 24)" onmousedown="handlePan(0,-1)">
                  <use xlink:href="#rim" fill="#404040">
                        <set attributeName="fill" to="#808080" begin="arrowUp.mouseover" end="arrowUp.mouseout"/>
                  </use>
                  <path fill="none" stroke="white" stroke-width="1.5" d="M0,-3.0v7 M-2.5,-0.5L0,-3.0L2.5,-0.5"/>
                </g>
                <g id="arrowRight" xlink:href="#dirArrow" transform="rotate(90) translate(36 -43)" onmousedown="handlePan(1,0)">
                  <use xlink:href="#rim" fill="#404040">
                        <set attributeName="fill" to="#808080" begin="arrowRight.mouseover" end="arrowRight.mouseout"/>
                  </use>
                  <path fill="none" stroke="white" stroke-width="1.5" d="M0,-3.0v7 M-2.5,-0.5L0,-3.0L2.5,-0.5"/>
                </g>
                <g id="arrowDown" xlink:href="#dirArrow" transform="rotate(180) translate(-30 -48)" onmousedown="handlePan(0,1)">
                  <use xlink:href="#rim" fill="#404040">
                        <set attributeName="fill" to="#808080" begin="arrowDown.mouseover" end="arrowDown.mouseout"/>
                  </use>
                  <path fill="none" stroke="white" stroke-width="1.5" d="M0,-3.0v7 M-2.5,-0.5L0,-3.0L2.5,-0.5"/>
                </g>
                <g id="arrowLeft" xlink:href="#dirArrow" transform="rotate(270) translate(-36 17)" onmousedown="handlePan(-1,0)">
                  <use xlink:href="#rim" fill="#404040">
                        <set attributeName="fill" to="#808080" begin="arrowLeft.mouseover" end="arrowLeft.mouseout"/>
                  </use>
                  <path fill="none" stroke="white" stroke-width="1.5" d="M0,-3.0v7 M-2.5,-0.5L0,-3.0L2.5,-0.5"/>
                </g>
        </g>
        <svg viewBox="0 0 15 15" width="100%" height="30px" preserveAspectRatio="xMaxYMin meet">
         <g id="arrow_out" transform="scale(0.3 0.3)">
          <a xlink:href="quickjs_8c_a5a0aca30abbb4d4ae86746541bf4cbc7_cgraph_org.svg" target="_base">
           <rect id="button" ry="5" rx="5" y="6" x="6" height="38" width="38"
                fill="#f2f5e9" fill-opacity="0.5" stroke="#606060" stroke-width="1.0"/>
           <path id="arrow"
             d="M 11.500037,31.436501 C 11.940474,20.09759 22.043105,11.32322 32.158766,21.979434 L 37.068811,17.246167 C 37.068811,17.246167 37.088388,32 37.088388,32 L 22.160133,31.978069 C 22.160133,31.978069 26.997745,27.140456 26.997745,27.140456 C 18.528582,18.264221 13.291696,25.230495 11.500037,31.436501 z"
             style="fill:#404040;"/>
          </a>
         </g>
        </svg>
</svg>
