<?xml version="1.0" encoding="UTF-8" standalone="no"?>
<!DOCTYPE svg PUBLIC "-//W3C//DTD SVG 1.1//EN"
 "http://www.w3.org/Graphics/SVG/1.1/DTD/svg11.dtd">
<!-- Generated by graphviz version 2.40.1 (20161225.0304)
 -->
<!-- Title: __JS_FreeValueRT Pages: 1 -->
<svg width="660pt" height="142pt"
 viewBox="0.00 0.00 660.00 142.00" xmlns="http://www.w3.org/2000/svg" xmlns:xlink="http://www.w3.org/1999/xlink">
<g id="graph0" class="graph" transform="scale(1 1) rotate(0) translate(4 138)">
<title>__JS_FreeValueRT</title>
<!-- Node153531 -->
<g id="node1" class="node">
<title>Node153531</title>
<polygon fill="#bfbfbf" stroke="#000000" points="0,-38.5 0,-57.5 101,-57.5 101,-38.5 0,-38.5"/>
<text text-anchor="middle" x="50.5" y="-45.5" font-family="Helvetica,sans-Serif" font-size="10.00" fill="#000000">__JS_FreeValueRT</text>
</g>
<!-- Node153532 -->
<g id="node2" class="node">
<title>Node153532</title>
<g id="a_node2"><a xlink:href="quickjs_8c.html#a8defed3434f60d6b5d6a7ea202cc8f9d" target="_top" xlink:title="free_zero_refcount">
<polygon fill="none" stroke="#000000" points="137,-76.5 137,-95.5 245,-95.5 245,-76.5 137,-76.5"/>
<text text-anchor="middle" x="191" y="-83.5" font-family="Helvetica,sans-Serif" font-size="10.00" fill="#000000">free_zero_refcount</text>
</a>
</g>
</g>
<!-- Node153531&#45;&gt;Node153532 -->
<g id="edge1" class="edge">
<title>Node153531&#45;&gt;Node153532</title>
<path fill="none" stroke="#191970" d="M85.9541,-57.589C104.0913,-62.4944 126.3684,-68.5196 145.7334,-73.7571"/>
<polygon fill="#191970" stroke="#191970" points="144.9903,-77.1818 155.5573,-76.4141 146.8179,-70.4246 144.9903,-77.1818"/>
</g>
<!-- Node153542 -->
<g id="node5" class="node">
<title>Node153542</title>
<g id="a_node5"><a xlink:href="quickjs_8c.html#a69e19dda8a93d613203e0baa06f0ed8d" target="_top" xlink:title="js_free_rt">
<polygon fill="none" stroke="#000000" points="590,-57.5 590,-76.5 652,-76.5 652,-57.5 590,-57.5"/>
<text text-anchor="middle" x="621" y="-64.5" font-family="Helvetica,sans-Serif" font-size="10.00" fill="#000000">js_free_rt</text>
</a>
</g>
</g>
<!-- Node153531&#45;&gt;Node153542 -->
<g id="edge7" class="edge">
<title>Node153531&#45;&gt;Node153542</title>
<path fill="none" stroke="#191970" d="M101.1281,-49.6861C212.5377,-53.3965 477.1538,-62.2093 579.5449,-65.6194"/>
<polygon fill="#191970" stroke="#191970" points="579.681,-69.1258 589.792,-65.9606 579.9141,-62.1296 579.681,-69.1258"/>
</g>
<!-- Node153540 -->
<g id="node7" class="node">
<title>Node153540</title>
<g id="a_node7"><a xlink:href="quickjs_8c.html#a58c8965dad50b15b75918a09f3d9dc7c" target="_top" xlink:title="JS_FreeAtomStruct">
<polygon fill="none" stroke="#ff0000" points="281,-.5 281,-19.5 387,-19.5 387,-.5 281,-.5"/>
<text text-anchor="middle" x="334" y="-7.5" font-family="Helvetica,sans-Serif" font-size="10.00" fill="#000000">JS_FreeAtomStruct</text>
</a>
</g>
</g>
<!-- Node153531&#45;&gt;Node153540 -->
<g id="edge8" class="edge">
<title>Node153531&#45;&gt;Node153540</title>
<path fill="none" stroke="#191970" d="M101.22,-39.4496C112.9555,-37.5661 125.4022,-35.6444 137,-34 181.6235,-27.6731 232.0803,-21.5457 270.7577,-17.0658"/>
<polygon fill="#191970" stroke="#191970" points="271.2981,-20.5268 280.8318,-15.9053 270.497,-13.5728 271.2981,-20.5268"/>
</g>
<!-- Node153533 -->
<g id="node3" class="node">
<title>Node153533</title>
<g id="a_node3"><a xlink:href="quickjs_8c.html#a3d1c7a8d6aa5a9ba8ea8ef2828db188a" target="_top" xlink:title="free_gc_object">
<polygon fill="none" stroke="#000000" points="290,-76.5 290,-95.5 378,-95.5 378,-76.5 290,-76.5"/>
<text text-anchor="middle" x="334" y="-83.5" font-family="Helvetica,sans-Serif" font-size="10.00" fill="#000000">free_gc_object</text>
</a>
</g>
</g>
<!-- Node153532&#45;&gt;Node153533 -->
<g id="edge2" class="edge">
<title>Node153532&#45;&gt;Node153533</title>
<path fill="none" stroke="#191970" d="M245.0622,-86C256.3254,-86 268.2034,-86 279.4829,-86"/>
<polygon fill="#191970" stroke="#191970" points="279.6386,-89.5001 289.6386,-86 279.6385,-82.5001 279.6386,-89.5001"/>
</g>
<!-- Node153534 -->
<g id="node4" class="node">
<title>Node153534</title>
<g id="a_node4"><a xlink:href="quickjs_8c.html#adc4a49d7eb1cc1ec4b3a8c37ab8cb075" target="_top" xlink:title="free_function_bytecode">
<polygon fill="none" stroke="#ff0000" points="423,-114.5 423,-133.5 554,-133.5 554,-114.5 423,-114.5"/>
<text text-anchor="middle" x="488.5" y="-121.5" font-family="Helvetica,sans-Serif" font-size="10.00" fill="#000000">free_function_bytecode</text>
</a>
</g>
</g>
<!-- Node153533&#45;&gt;Node153534 -->
<g id="edge3" class="edge">
<title>Node153533&#45;&gt;Node153534</title>
<path fill="none" stroke="#191970" d="M372.9869,-95.589C393.283,-100.5809 418.2935,-106.7324 439.8462,-112.0334"/>
<polygon fill="#191970" stroke="#191970" points="439.2469,-115.4902 449.7935,-114.4799 440.9188,-108.6928 439.2469,-115.4902"/>
</g>
<!-- Node153564 -->
<g id="node6" class="node">
<title>Node153564</title>
<g id="a_node6"><a xlink:href="quickjs_8c.html#a41a4918c15192dc3489dc3ecb3fdc24d" target="_top" xlink:title="free_object">
<polygon fill="none" stroke="#ff0000" points="453,-76.5 453,-95.5 524,-95.5 524,-76.5 453,-76.5"/>
<text text-anchor="middle" x="488.5" y="-83.5" font-family="Helvetica,sans-Serif" font-size="10.00" fill="#000000">free_object</text>
</a>
</g>
</g>
<!-- Node153533&#45;&gt;Node153564 -->
<g id="edge5" class="edge">
<title>Node153533&#45;&gt;Node153564</title>
<path fill="none" stroke="#191970" d="M378.2735,-86C398.3957,-86 422.1929,-86 442.5165,-86"/>
<polygon fill="#191970" stroke="#191970" points="442.7901,-89.5001 452.79,-86 442.79,-82.5001 442.7901,-89.5001"/>
</g>
<!-- Node153534&#45;&gt;Node153542 -->
<g id="edge4" class="edge">
<title>Node153534&#45;&gt;Node153542</title>
<path fill="none" stroke="#191970" d="M527.1214,-114.4221C536.0858,-111.7548 545.4905,-108.589 554,-105 569.1699,-98.6019 585.245,-89.5688 597.846,-81.915"/>
<polygon fill="#191970" stroke="#191970" points="599.692,-84.8886 606.3449,-76.643 596.0021,-78.9401 599.692,-84.8886"/>
</g>
<!-- Node153564&#45;&gt;Node153542 -->
<g id="edge6" class="edge">
<title>Node153564&#45;&gt;Node153542</title>
<path fill="none" stroke="#191970" d="M524.0076,-80.9083C541.181,-78.4457 561.8957,-75.4753 579.7647,-72.913"/>
<polygon fill="#191970" stroke="#191970" points="580.5066,-76.3425 589.9085,-71.4584 579.5129,-69.4134 580.5066,-76.3425"/>
</g>
<!-- Node153540&#45;&gt;Node153542 -->
<g id="edge9" class="edge">
<title>Node153540&#45;&gt;Node153542</title>
<path fill="none" stroke="#191970" d="M387.0068,-10.6373C432.2032,-12.3896 498.479,-17.8446 554,-34 568.7824,-38.3014 584.2652,-45.7116 596.6189,-52.4215"/>
<polygon fill="#191970" stroke="#191970" points="594.9601,-55.5041 605.3923,-57.3531 598.3901,-49.402 594.9601,-55.5041"/>
</g>
</g>
</svg>
