<?xml version="1.0" encoding="UTF-8" standalone="no"?>
<!DOCTYPE svg PUBLIC "-//W3C//DTD SVG 1.1//EN"
 "http://www.w3.org/Graphics/SVG/1.1/DTD/svg11.dtd">
<!-- Generated by graphviz version 2.40.1 (20161225.0304)
 -->
<!-- Title: find_lexical_global_var Pages: 1 -->
<svg width="816pt" height="180pt"
 viewBox="0.00 0.00 816.00 180.00" xmlns="http://www.w3.org/2000/svg" xmlns:xlink="http://www.w3.org/1999/xlink">
<g id="graph0" class="graph" transform="scale(1 1) rotate(0) translate(4 176)">
<title>find_lexical_global_var</title>
<!-- Node313224 -->
<g id="node1" class="node">
<title>Node313224</title>
<polygon fill="#bfbfbf" stroke="#000000" points="0,-38.5 0,-57.5 128,-57.5 128,-38.5 0,-38.5"/>
<text text-anchor="middle" x="64" y="-45.5" font-family="Helvetica,sans-Serif" font-size="10.00" fill="#000000">find_lexical_global_var</text>
</g>
<!-- Node313225 -->
<g id="node2" class="node">
<title>Node313225</title>
<g id="a_node2"><a xlink:href="quickjs_8c.html#a83749bc9db22260434eed3a360edc6c0" target="_top" xlink:title="find_lexical_decl">
<polygon fill="none" stroke="#000000" points="164,-38.5 164,-57.5 262,-57.5 262,-38.5 164,-38.5"/>
<text text-anchor="middle" x="213" y="-45.5" font-family="Helvetica,sans-Serif" font-size="10.00" fill="#000000">find_lexical_decl</text>
</a>
</g>
</g>
<!-- Node313224&#45;&gt;Node313225 -->
<g id="edge1" class="edge">
<title>Node313224&#45;&gt;Node313225</title>
<path fill="none" stroke="#191970" d="M138.2289,-48C146.9224,-48 155.6207,-48 163.8505,-48"/>
<polygon fill="#191970" stroke="#191970" points="138.0542,-44.5001 128.0541,-48 138.0541,-51.5001 138.0542,-44.5001"/>
</g>
<!-- Node313226 -->
<g id="node3" class="node">
<title>Node313226</title>
<g id="a_node3"><a xlink:href="quickjs_8c.html#a99125693fff3fd8277f544b15109354b" target="_top" xlink:title="define_var">
<polygon fill="none" stroke="#000000" points="298,-66.5 298,-85.5 366,-85.5 366,-66.5 298,-66.5"/>
<text text-anchor="middle" x="332" y="-73.5" font-family="Helvetica,sans-Serif" font-size="10.00" fill="#000000">define_var</text>
</a>
</g>
</g>
<!-- Node313225&#45;&gt;Node313226 -->
<g id="edge2" class="edge">
<title>Node313225&#45;&gt;Node313226</title>
<path fill="none" stroke="#191970" d="M263.6222,-59.9111C275.1894,-62.6328 287.2145,-65.4622 297.8956,-67.9754"/>
<polygon fill="#191970" stroke="#191970" points="264.1561,-56.4412 253.6202,-57.5577 262.5527,-63.2551 264.1561,-56.4412"/>
</g>
<!-- Node313237 -->
<g id="node8" class="node">
<title>Node313237</title>
<g id="a_node8"><a xlink:href="quickjs_8c.html#acc9eb677cab8dfcf45f59381f8a19601" target="_top" xlink:title="js_parse_function_decl2">
<polygon fill="none" stroke="#ff0000" points="402,-.5 402,-19.5 536,-19.5 536,-.5 402,-.5"/>
<text text-anchor="middle" x="469" y="-7.5" font-family="Helvetica,sans-Serif" font-size="10.00" fill="#000000">js_parse_function_decl2</text>
</a>
</g>
</g>
<!-- Node313225&#45;&gt;Node313237 -->
<g id="edge14" class="edge">
<title>Node313225&#45;&gt;Node313237</title>
<path fill="none" stroke="#191970" d="M272.1045,-39.2267C311.7343,-33.3441 363.9149,-25.5986 404.6012,-19.5592"/>
<polygon fill="#191970" stroke="#191970" points="271.4342,-35.7877 262.0565,-40.7182 272.462,-42.7119 271.4342,-35.7877"/>
</g>
<!-- Node313227 -->
<g id="node4" class="node">
<title>Node313227</title>
<g id="a_node4"><a xlink:href="quickjs_8c.html#a00eb789430243c24dab4a63ad6a79653" target="_top" xlink:title="js_parse_class">
<polygon fill="none" stroke="#ff0000" points="572,-76.5 572,-95.5 659,-95.5 659,-76.5 572,-76.5"/>
<text text-anchor="middle" x="615.5" y="-83.5" font-family="Helvetica,sans-Serif" font-size="10.00" fill="#000000">js_parse_class</text>
</a>
</g>
</g>
<!-- Node313226&#45;&gt;Node313227 -->
<g id="edge3" class="edge">
<title>Node313226&#45;&gt;Node313227</title>
<path fill="none" stroke="#191970" d="M376.3795,-77.5654C429.7778,-79.449 518.8509,-82.5909 571.8994,-84.4621"/>
<polygon fill="#191970" stroke="#191970" points="376.3139,-74.061 366.1967,-77.2062 376.0671,-81.0567 376.3139,-74.061"/>
</g>
<!-- Node313232 -->
<g id="node5" class="node">
<title>Node313232</title>
<g id="a_node5"><a xlink:href="quickjs_8c.html#a9d844c16dcc71701436848074337d32c" target="_top" xlink:title="js_parse_statement\l_or_decl">
<polygon fill="none" stroke="#ff0000" points="695,-109 695,-139 808,-139 808,-109 695,-109"/>
<text text-anchor="start" x="703" y="-127" font-family="Helvetica,sans-Serif" font-size="10.00" fill="#000000">js_parse_statement</text>
<text text-anchor="middle" x="751.5" y="-116" font-family="Helvetica,sans-Serif" font-size="10.00" fill="#000000">_or_decl</text>
</a>
</g>
</g>
<!-- Node313226&#45;&gt;Node313232 -->
<g id="edge9" class="edge">
<title>Node313226&#45;&gt;Node313232</title>
<path fill="none" stroke="#191970" d="M374.4551,-88.1184C383.4878,-90.358 393.0124,-92.4696 402,-94 504.3615,-111.4297 625.4044,-118.9498 694.8393,-122.0288"/>
<polygon fill="#191970" stroke="#191970" points="375.0777,-84.6646 364.5207,-85.5595 373.3316,-91.4433 375.0777,-84.6646"/>
</g>
<!-- Node313239 -->
<g id="node6" class="node">
<title>Node313239</title>
<g id="a_node6"><a xlink:href="quickjs_8c.html#a498e1d5c7de1b59c1630e9847cde1e41" target="_top" xlink:title="js_parse_export">
<polygon fill="none" stroke="#ff0000" points="704.5,-38.5 704.5,-57.5 798.5,-57.5 798.5,-38.5 704.5,-38.5"/>
<text text-anchor="middle" x="751.5" y="-45.5" font-family="Helvetica,sans-Serif" font-size="10.00" fill="#000000">js_parse_export</text>
</a>
</g>
</g>
<!-- Node313226&#45;&gt;Node313239 -->
<g id="edge10" class="edge">
<title>Node313226&#45;&gt;Node313239</title>
<path fill="none" stroke="#191970" d="M376.5336,-73.0276C456.3018,-67.7033 622.8241,-56.5886 704.4076,-51.1432"/>
<polygon fill="#191970" stroke="#191970" points="376.0741,-69.5503 366.3294,-73.7086 376.5404,-76.5348 376.0741,-69.5503"/>
</g>
<!-- Node313263 -->
<g id="node7" class="node">
<title>Node313263</title>
<g id="a_node7"><a xlink:href="quickjs_8c.html#a53e971ab3c46da0b7d48481b0696e138" target="_top" xlink:title="js_define_var">
<polygon fill="none" stroke="#ff0000" points="575,-152.5 575,-171.5 656,-171.5 656,-152.5 575,-152.5"/>
<text text-anchor="middle" x="615.5" y="-159.5" font-family="Helvetica,sans-Serif" font-size="10.00" fill="#000000">js_define_var</text>
</a>
</g>
</g>
<!-- Node313226&#45;&gt;Node313263 -->
<g id="edge7" class="edge">
<title>Node313226&#45;&gt;Node313263</title>
<path fill="none" stroke="#191970" d="M346.0722,-93.379C358.9646,-107.9595 379.4317,-127.9648 402,-138 458.0648,-162.9297 530.2331,-165.7306 574.6599,-164.548"/>
<polygon fill="#191970" stroke="#191970" points="348.5448,-90.884 339.398,-85.5374 343.2142,-95.4211 348.5448,-90.884"/>
</g>
<!-- Node313226&#45;&gt;Node313237 -->
<g id="edge11" class="edge">
<title>Node313226&#45;&gt;Node313237</title>
<path fill="none" stroke="#191970" d="M354.5854,-60.8973C368.0016,-52.3244 385.5561,-41.7856 402,-34 413.614,-28.5012 426.8492,-23.5093 438.4717,-19.5198"/>
<polygon fill="#191970" stroke="#191970" points="352.5017,-58.0772 346.023,-66.4603 356.3154,-63.9471 352.5017,-58.0772"/>
</g>
<!-- Node313227&#45;&gt;Node313232 -->
<g id="edge4" class="edge">
<title>Node313227&#45;&gt;Node313232</title>
<path fill="none" stroke="#191970" d="M659.6715,-98.342C671.7715,-101.7229 685.0238,-105.4258 697.6027,-108.9405"/>
<polygon fill="#191970" stroke="#191970" points="660.3915,-94.9092 649.8185,-95.589 658.5078,-101.651 660.3915,-94.9092"/>
</g>
<!-- Node313227&#45;&gt;Node313239 -->
<g id="edge6" class="edge">
<title>Node313227&#45;&gt;Node313239</title>
<path fill="none" stroke="#191970" d="M659.5866,-73.6817C678.2722,-68.4607 699.7183,-62.4684 717.1924,-57.5859"/>
<polygon fill="#191970" stroke="#191970" points="658.5078,-70.349 649.8185,-76.411 660.3915,-77.0908 658.5078,-70.349"/>
</g>
<!-- Node313232&#45;&gt;Node313232 -->
<g id="edge5" class="edge">
<title>Node313232&#45;&gt;Node313232</title>
<path fill="none" stroke="#191970" d="M727.3344,-149.4579C730.3337,-154.179 738.3889,-157.5 751.5,-157.5 773.0156,-157.5 780.9159,-148.5566 775.2008,-139.159"/>
<polygon fill="#191970" stroke="#191970" points="730.8447,-149.3066 727.7992,-139.159 723.8519,-148.991 730.8447,-149.3066"/>
</g>
<!-- Node313263&#45;&gt;Node313232 -->
<g id="edge8" class="edge">
<title>Node313263&#45;&gt;Node313232</title>
<path fill="none" stroke="#191970" d="M659.6715,-149.658C671.7715,-146.2771 685.0238,-142.5742 697.6027,-139.0595"/>
<polygon fill="#191970" stroke="#191970" points="658.5078,-146.349 649.8185,-152.411 660.3915,-153.0908 658.5078,-146.349"/>
</g>
<!-- Node313237&#45;&gt;Node313227 -->
<g id="edge12" class="edge">
<title>Node313237&#45;&gt;Node313227</title>
<path fill="none" stroke="#191970" d="M496.4812,-24.2565C525.8988,-39.5174 571.7493,-63.3034 597.0963,-76.4527"/>
<polygon fill="#191970" stroke="#191970" points="498.0427,-21.1236 487.5543,-19.6255 494.8192,-27.3373 498.0427,-21.1236"/>
</g>
<!-- Node313237&#45;&gt;Node313239 -->
<g id="edge13" class="edge">
<title>Node313237&#45;&gt;Node313239</title>
<path fill="none" stroke="#191970" d="M546.3358,-19.3321C580.842,-23.6085 621.9825,-28.8615 659,-34 673.8007,-36.0545 689.9097,-38.4404 704.4753,-40.6543"/>
<polygon fill="#191970" stroke="#191970" points="546.6751,-15.8475 536.3215,-18.0953 545.8171,-22.7947 546.6751,-15.8475"/>
</g>
</g>
</svg>
