<?xml version="1.0" encoding="UTF-8" standalone="no"?>
<!DOCTYPE svg PUBLIC "-//W3C//DTD SVG 1.1//EN"
 "http://www.w3.org/Graphics/SVG/1.1/DTD/svg11.dtd">
<!-- Generated by graphviz version 2.40.1 (20161225.0304)
 -->
<!-- Title: js_string_normalize Pages: 1 -->
<svg width="704pt" height="692pt"
 viewBox="0.00 0.00 704.00 692.00" xmlns="http://www.w3.org/2000/svg" xmlns:xlink="http://www.w3.org/1999/xlink">
<g id="graph0" class="graph" transform="scale(1 1) rotate(0) translate(4 688)">
<title>js_string_normalize</title>
<!-- Node425828 -->
<g id="node1" class="node">
<title>Node425828</title>
<polygon fill="#bfbfbf" stroke="#000000" points="0,-360.5 0,-379.5 112,-379.5 112,-360.5 0,-360.5"/>
<text text-anchor="middle" x="56" y="-367.5" font-family="Helvetica,sans-Serif" font-size="10.00" fill="#000000">js_string_normalize</text>
</g>
<!-- Node425829 -->
<g id="node2" class="node">
<title>Node425829</title>
<g id="a_node2"><a xlink:href="quickjs_8c.html#a80e54dcf9ac687d4ccc2f90273565f30" target="_top" xlink:title="js_free">
<polygon fill="none" stroke="#000000" points="488,-550.5 488,-569.5 538,-569.5 538,-550.5 488,-550.5"/>
<text text-anchor="middle" x="513" y="-557.5" font-family="Helvetica,sans-Serif" font-size="10.00" fill="#000000">js_free</text>
</a>
</g>
</g>
<!-- Node425828&#45;&gt;Node425829 -->
<g id="edge1" class="edge">
<title>Node425828&#45;&gt;Node425829</title>
<path fill="none" stroke="#191970" d="M60.3899,-379.6203C71.4505,-402.6789 102.8378,-461.241 148,-489 252.483,-553.2206 298.671,-517.2952 419,-541 438.5273,-544.8469 460.314,-549.244 477.9923,-552.8386"/>
<polygon fill="#191970" stroke="#191970" points="477.3807,-556.2858 487.8781,-554.8522 478.7779,-549.4267 477.3807,-556.2858"/>
</g>
<!-- Node425831 -->
<g id="node4" class="node">
<title>Node425831</title>
<g id="a_node4"><a xlink:href="quickjs_8c.html#ae0bc4f65da64810facb2cb9e476eda2e" target="_top" xlink:title="JS_FreeCString">
<polygon fill="none" stroke="#000000" points="170.5,-436.5 170.5,-455.5 256.5,-455.5 256.5,-436.5 170.5,-436.5"/>
<text text-anchor="middle" x="213.5" y="-443.5" font-family="Helvetica,sans-Serif" font-size="10.00" fill="#000000">JS_FreeCString</text>
</a>
</g>
</g>
<!-- Node425828&#45;&gt;Node425831 -->
<g id="edge3" class="edge">
<title>Node425828&#45;&gt;Node425831</title>
<path fill="none" stroke="#191970" d="M69.076,-379.7085C86.3616,-392.1558 118.1281,-413.7136 148,-427 153.1388,-429.2856 158.6256,-431.3772 164.1544,-433.268"/>
<polygon fill="#191970" stroke="#191970" points="163.4942,-436.7319 174.0854,-436.4533 165.6322,-430.0663 163.4942,-436.7319"/>
</g>
<!-- Node425832 -->
<g id="node5" class="node">
<title>Node425832</title>
<g id="a_node5"><a xlink:href="quickjs_8h.html#afaa20c47565bc704c6c85f3d77254e7d" target="_top" xlink:title="JS_FreeValue">
<polygon fill="none" stroke="#000000" points="474,-417.5 474,-436.5 552,-436.5 552,-417.5 474,-417.5"/>
<text text-anchor="middle" x="513" y="-424.5" font-family="Helvetica,sans-Serif" font-size="10.00" fill="#000000">JS_FreeValue</text>
</a>
</g>
</g>
<!-- Node425828&#45;&gt;Node425832 -->
<g id="edge6" class="edge">
<title>Node425828&#45;&gt;Node425832</title>
<path fill="none" stroke="#191970" d="M61.5816,-379.6889C73.9981,-400.1352 106.1417,-447.2671 148,-465 262.9459,-513.6959 415.7619,-465.5869 481.1379,-440.3336"/>
<polygon fill="#191970" stroke="#191970" points="482.4798,-443.5668 490.4978,-436.6414 479.911,-437.0552 482.4798,-443.5668"/>
</g>
<!-- Node425868 -->
<g id="node7" class="node">
<title>Node425868</title>
<g id="a_node7"><a xlink:href="quickjs_8h.html#ad80a83d73e9b7d872b88fbf2943aebe9" target="_top" xlink:title="JS_IsException">
<polygon fill="none" stroke="#000000" points="469.5,-284.5 469.5,-303.5 556.5,-303.5 556.5,-284.5 469.5,-284.5"/>
<text text-anchor="middle" x="513" y="-291.5" font-family="Helvetica,sans-Serif" font-size="10.00" fill="#000000">JS_IsException</text>
</a>
</g>
</g>
<!-- Node425828&#45;&gt;Node425868 -->
<g id="edge7" class="edge">
<title>Node425828&#45;&gt;Node425868</title>
<path fill="none" stroke="#191970" d="M75.5905,-360.359C93.8768,-351.7891 122.1507,-339.6221 148,-333 256.121,-305.3017 387.1361,-297.2485 459.1163,-294.9246"/>
<polygon fill="#191970" stroke="#191970" points="459.4068,-298.4176 469.2983,-294.6217 459.1986,-291.4207 459.4068,-298.4176"/>
</g>
<!-- Node425869 -->
<g id="node8" class="node">
<title>Node425869</title>
<g id="a_node8"><a xlink:href="quickjs_8h.html#a4e407128a9605afb77523e49e9a627fd" target="_top" xlink:title="JS_IsUndefined">
<polygon fill="none" stroke="#000000" points="169,-246.5 169,-265.5 258,-265.5 258,-246.5 169,-246.5"/>
<text text-anchor="middle" x="213.5" y="-253.5" font-family="Helvetica,sans-Serif" font-size="10.00" fill="#000000">JS_IsUndefined</text>
</a>
</g>
</g>
<!-- Node425828&#45;&gt;Node425869 -->
<g id="edge8" class="edge">
<title>Node425828&#45;&gt;Node425869</title>
<path fill="none" stroke="#191970" d="M63.5719,-360.2294C78.1084,-342.0702 111.7167,-302.8903 148,-280 154.6258,-275.8199 162.0853,-272.2199 169.5341,-269.1738"/>
<polygon fill="#191970" stroke="#191970" points="170.7988,-272.4374 178.9,-265.6095 168.309,-265.8952 170.7988,-272.4374"/>
</g>
<!-- Node425870 -->
<g id="node9" class="node">
<title>Node425870</title>
<g id="a_node9"><a xlink:href="quickjs_8c.html#ad8cc04ce826a1a1d078c18192a9fd784" target="_top" xlink:title="JS_NewUTF32String">
<polygon fill="none" stroke="#000000" points="157.5,-588.5 157.5,-607.5 269.5,-607.5 269.5,-588.5 157.5,-588.5"/>
<text text-anchor="middle" x="213.5" y="-595.5" font-family="Helvetica,sans-Serif" font-size="10.00" fill="#000000">JS_NewUTF32String</text>
</a>
</g>
</g>
<!-- Node425828&#45;&gt;Node425870 -->
<g id="edge9" class="edge">
<title>Node425828&#45;&gt;Node425870</title>
<path fill="none" stroke="#191970" d="M60.0615,-379.6066C71.5191,-406.1022 106.0093,-481.8351 148,-536 161.3469,-553.2166 179.532,-570.0316 193.3547,-581.7968"/>
<polygon fill="#191970" stroke="#191970" points="191.3916,-584.7168 201.3152,-588.4281 195.872,-579.3384 191.3916,-584.7168"/>
</g>
<!-- Node425898 -->
<g id="node16" class="node">
<title>Node425898</title>
<g id="a_node16"><a xlink:href="quickjs_8c.html#aa548c4ad5eacef7d9508100cfe6f6871" target="_top" xlink:title="js_realloc_rt">
<polygon fill="none" stroke="#000000" points="175.5,-208.5 175.5,-227.5 251.5,-227.5 251.5,-208.5 175.5,-208.5"/>
<text text-anchor="middle" x="213.5" y="-215.5" font-family="Helvetica,sans-Serif" font-size="10.00" fill="#000000">js_realloc_rt</text>
</a>
</g>
</g>
<!-- Node425828&#45;&gt;Node425898 -->
<g id="edge18" class="edge">
<title>Node425828&#45;&gt;Node425898</title>
<path fill="none" stroke="#191970" d="M59.9376,-360.2716C70.3939,-335.6852 101.2899,-270.6286 148,-237 153.297,-233.1865 159.3499,-230.1343 165.5875,-227.6924"/>
<polygon fill="#191970" stroke="#191970" points="167.1184,-230.8687 175.4594,-224.3358 164.865,-224.2413 167.1184,-230.8687"/>
</g>
<!-- Node425899 -->
<g id="node17" class="node">
<title>Node425899</title>
<g id="a_node17"><a xlink:href="quickjs_8h.html#a1e7f56471f8608df9405987087a56070" target="_top" xlink:title="JS_ToCStringLen">
<polygon fill="none" stroke="#000000" points="166.5,-398.5 166.5,-417.5 260.5,-417.5 260.5,-398.5 166.5,-398.5"/>
<text text-anchor="middle" x="213.5" y="-405.5" font-family="Helvetica,sans-Serif" font-size="10.00" fill="#000000">JS_ToCStringLen</text>
</a>
</g>
</g>
<!-- Node425828&#45;&gt;Node425899 -->
<g id="edge19" class="edge">
<title>Node425828&#45;&gt;Node425899</title>
<path fill="none" stroke="#191970" d="M95.7439,-379.589C116.5277,-384.6035 142.1611,-390.7881 164.1995,-396.1053"/>
<polygon fill="#191970" stroke="#191970" points="163.4999,-399.5368 174.0419,-398.4799 165.1417,-392.7321 163.4999,-399.5368"/>
</g>
<!-- Node426108 -->
<g id="node20" class="node">
<title>Node426108</title>
<g id="a_node20"><a xlink:href="quickjs_8c.html#a4d1d0760c9f9efcb8c0a8db414e46c8a" target="_top" xlink:title="JS_ToStringCheckObject">
<polygon fill="none" stroke="#000000" points="148,-360.5 148,-379.5 279,-379.5 279,-360.5 148,-360.5"/>
<text text-anchor="middle" x="213.5" y="-367.5" font-family="Helvetica,sans-Serif" font-size="10.00" fill="#000000">JS_ToStringCheckObject</text>
</a>
</g>
</g>
<!-- Node425828&#45;&gt;Node426108 -->
<g id="edge24" class="edge">
<title>Node425828&#45;&gt;Node426108</title>
<path fill="none" stroke="#191970" d="M112.4163,-370C120.5741,-370 129.0805,-370 137.5439,-370"/>
<polygon fill="#191970" stroke="#191970" points="137.8196,-373.5001 147.8196,-370 137.8196,-366.5001 137.8196,-373.5001"/>
</g>
<!-- Node426265 -->
<g id="node21" class="node">
<title>Node426265</title>
<g id="a_node21"><a xlink:href="quickjs_8c.html#a79e4344ecf9b38111a8100787d977fb2" target="_top" xlink:title="JS_ToUTF32String">
<polygon fill="none" stroke="#000000" points="316.5,-322.5 316.5,-341.5 417.5,-341.5 417.5,-322.5 316.5,-322.5"/>
<text text-anchor="middle" x="367" y="-329.5" font-family="Helvetica,sans-Serif" font-size="10.00" fill="#000000">JS_ToUTF32String</text>
</a>
</g>
</g>
<!-- Node425828&#45;&gt;Node426265 -->
<g id="edge26" class="edge">
<title>Node425828&#45;&gt;Node426265</title>
<path fill="none" stroke="#191970" d="M97.0355,-360.4533C112.8861,-357.0481 131.2166,-353.4525 148,-351 201.2512,-343.2186 262.2869,-338.2447 306.3732,-335.3465"/>
<polygon fill="#191970" stroke="#191970" points="306.5997,-338.8392 316.3553,-334.7066 306.1518,-331.8535 306.5997,-338.8392"/>
</g>
<!-- Node426267 -->
<g id="node23" class="node">
<title>Node426267</title>
<g id="a_node23"><a xlink:href="libunicode_8c.html#a6a79bc427bb64048b575fe5ac770160d" target="_top" xlink:title="unicode_normalize">
<polygon fill="none" stroke="#000000" points="159,-151.5 159,-170.5 268,-170.5 268,-151.5 159,-151.5"/>
<text text-anchor="middle" x="213.5" y="-158.5" font-family="Helvetica,sans-Serif" font-size="10.00" fill="#000000">unicode_normalize</text>
</a>
</g>
</g>
<!-- Node425828&#45;&gt;Node426267 -->
<g id="edge31" class="edge">
<title>Node425828&#45;&gt;Node426267</title>
<path fill="none" stroke="#191970" d="M59.0735,-360.3467C68.3932,-332.3444 98.7511,-249.856 148,-199 157.3815,-189.3124 169.7612,-181.2872 181.2301,-175.1476"/>
<polygon fill="#191970" stroke="#191970" points="182.8141,-178.2687 190.1581,-170.6322 179.6548,-172.0222 182.8141,-178.2687"/>
</g>
<!-- Node425830 -->
<g id="node3" class="node">
<title>Node425830</title>
<g id="a_node3"><a xlink:href="quickjs_8c.html#a69e19dda8a93d613203e0baa06f0ed8d" target="_top" xlink:title="js_free_rt">
<polygon fill="none" stroke="#000000" points="620.5,-550.5 620.5,-569.5 682.5,-569.5 682.5,-550.5 620.5,-550.5"/>
<text text-anchor="middle" x="651.5" y="-557.5" font-family="Helvetica,sans-Serif" font-size="10.00" fill="#000000">js_free_rt</text>
</a>
</g>
</g>
<!-- Node425829&#45;&gt;Node425830 -->
<g id="edge2" class="edge">
<title>Node425829&#45;&gt;Node425830</title>
<path fill="none" stroke="#191970" d="M538.0813,-560C558.181,-560 586.8008,-560 610.2617,-560"/>
<polygon fill="#191970" stroke="#191970" points="610.2938,-563.5001 620.2938,-560 610.2938,-556.5001 610.2938,-563.5001"/>
</g>
<!-- Node425831&#45;&gt;Node425832 -->
<g id="edge4" class="edge">
<title>Node425831&#45;&gt;Node425832</title>
<path fill="none" stroke="#191970" d="M256.73,-443.2575C311.4782,-439.7844 405.61,-433.8127 463.2775,-430.1543"/>
<polygon fill="#191970" stroke="#191970" points="463.845,-433.6255 473.6033,-429.4993 463.4017,-426.6395 463.845,-433.6255"/>
</g>
<!-- Node425833 -->
<g id="node6" class="node">
<title>Node425833</title>
<g id="a_node6"><a xlink:href="quickjs_8c.html#aa059f309c30fd5166d16c82a97973146" target="_top" xlink:title="__JS_FreeValue">
<polygon fill="none" stroke="#ff0000" points="607,-417.5 607,-436.5 696,-436.5 696,-417.5 607,-417.5"/>
<text text-anchor="middle" x="651.5" y="-424.5" font-family="Helvetica,sans-Serif" font-size="10.00" fill="#000000">__JS_FreeValue</text>
</a>
</g>
</g>
<!-- Node425832&#45;&gt;Node425833 -->
<g id="edge5" class="edge">
<title>Node425832&#45;&gt;Node425833</title>
<path fill="none" stroke="#191970" d="M552.3181,-427C566.0936,-427 581.8259,-427 596.6391,-427"/>
<polygon fill="#191970" stroke="#191970" points="596.7124,-430.5001 606.7123,-427 596.7123,-423.5001 596.7124,-430.5001"/>
</g>
<!-- Node425871 -->
<g id="node10" class="node">
<title>Node425871</title>
<g id="a_node10"><a xlink:href="quickjs_8c.html#accfc3d1dcaa88c88402cb245ccaf4fdb" target="_top" xlink:title="string_buffer_end">
<polygon fill="none" stroke="#000000" points="316.5,-588.5 316.5,-607.5 417.5,-607.5 417.5,-588.5 316.5,-588.5"/>
<text text-anchor="middle" x="367" y="-595.5" font-family="Helvetica,sans-Serif" font-size="10.00" fill="#000000">string_buffer_end</text>
</a>
</g>
</g>
<!-- Node425870&#45;&gt;Node425871 -->
<g id="edge10" class="edge">
<title>Node425870&#45;&gt;Node425871</title>
<path fill="none" stroke="#191970" d="M269.7861,-598C281.5659,-598 294.0395,-598 305.9821,-598"/>
<polygon fill="#191970" stroke="#191970" points="306.3097,-601.5001 316.3096,-598 306.3096,-594.5001 306.3097,-601.5001"/>
</g>
<!-- Node425884 -->
<g id="node12" class="node">
<title>Node425884</title>
<g id="a_node12"><a xlink:href="quickjs_8c.html#a266b4993a59d9e34537386e62b9f3d4f" target="_top" xlink:title="string_buffer_free">
<polygon fill="none" stroke="#000000" points="315.5,-550.5 315.5,-569.5 418.5,-569.5 418.5,-550.5 315.5,-550.5"/>
<text text-anchor="middle" x="367" y="-557.5" font-family="Helvetica,sans-Serif" font-size="10.00" fill="#000000">string_buffer_free</text>
</a>
</g>
</g>
<!-- Node425870&#45;&gt;Node425884 -->
<g id="edge13" class="edge">
<title>Node425870&#45;&gt;Node425884</title>
<path fill="none" stroke="#191970" d="M252.2345,-588.411C272.3993,-583.4191 297.2479,-577.2676 318.6611,-571.9666"/>
<polygon fill="#191970" stroke="#191970" points="319.6781,-575.3206 328.544,-569.5201 317.9959,-568.5257 319.6781,-575.3206"/>
</g>
<!-- Node425885 -->
<g id="node13" class="node">
<title>Node425885</title>
<g id="a_node13"><a xlink:href="quickjs_8c.html#a9c11961b0adafedd064b294612d0c2f3" target="_top" xlink:title="string_buffer_init">
<polygon fill="none" stroke="#ff0000" points="317.5,-626.5 317.5,-645.5 416.5,-645.5 416.5,-626.5 317.5,-626.5"/>
<text text-anchor="middle" x="367" y="-633.5" font-family="Helvetica,sans-Serif" font-size="10.00" fill="#000000">string_buffer_init</text>
</a>
</g>
</g>
<!-- Node425870&#45;&gt;Node425885 -->
<g id="edge15" class="edge">
<title>Node425870&#45;&gt;Node425885</title>
<path fill="none" stroke="#191970" d="M252.2345,-607.589C272.3993,-612.5809 297.2479,-618.7324 318.6611,-624.0334"/>
<polygon fill="#191970" stroke="#191970" points="317.9959,-627.4743 328.544,-626.4799 319.6781,-620.6794 317.9959,-627.4743"/>
</g>
<!-- Node425897 -->
<g id="node14" class="node">
<title>Node425897</title>
<g id="a_node14"><a xlink:href="quickjs_8c.html#a8d79794c85d33dd8409cdb39f2c2fc74" target="_top" xlink:title="string_buffer_putc">
<polygon fill="none" stroke="#000000" points="315,-664.5 315,-683.5 419,-683.5 419,-664.5 315,-664.5"/>
<text text-anchor="middle" x="367" y="-671.5" font-family="Helvetica,sans-Serif" font-size="10.00" fill="#000000">string_buffer_putc</text>
</a>
</g>
</g>
<!-- Node425870&#45;&gt;Node425897 -->
<g id="edge16" class="edge">
<title>Node425870&#45;&gt;Node425897</title>
<path fill="none" stroke="#191970" d="M228.9117,-607.6927C248.4554,-619.7388 283.4177,-640.4774 315,-655 319.4072,-657.0266 324.0977,-658.9925 328.7885,-660.843"/>
<polygon fill="#191970" stroke="#191970" points="327.7356,-664.1869 338.3269,-664.4617 330.2186,-657.6421 327.7356,-664.1869"/>
</g>
<!-- Node425871&#45;&gt;Node425829 -->
<g id="edge12" class="edge">
<title>Node425871&#45;&gt;Node425829</title>
<path fill="none" stroke="#191970" d="M403.842,-588.411C426.5513,-582.5004 455.5063,-574.9641 477.8878,-569.1388"/>
<polygon fill="#191970" stroke="#191970" points="478.8666,-572.5007 487.6625,-566.5947 477.1034,-565.7264 478.8666,-572.5007"/>
</g>
<!-- Node425872 -->
<g id="node11" class="node">
<title>Node425872</title>
<g id="a_node11"><a xlink:href="quickjs_8c.html#a260bfa297ff6cb5bd18e229afaa54663" target="_top" xlink:title="JS_AtomToString">
<polygon fill="none" stroke="#ff0000" points="465,-588.5 465,-607.5 561,-607.5 561,-588.5 465,-588.5"/>
<text text-anchor="middle" x="513" y="-595.5" font-family="Helvetica,sans-Serif" font-size="10.00" fill="#000000">JS_AtomToString</text>
</a>
</g>
</g>
<!-- Node425871&#45;&gt;Node425872 -->
<g id="edge11" class="edge">
<title>Node425871&#45;&gt;Node425872</title>
<path fill="none" stroke="#191970" d="M417.654,-598C429.6219,-598 442.4766,-598 454.7508,-598"/>
<polygon fill="#191970" stroke="#191970" points="454.8924,-601.5001 464.8923,-598 454.8923,-594.5001 454.8924,-601.5001"/>
</g>
<!-- Node425884&#45;&gt;Node425829 -->
<g id="edge14" class="edge">
<title>Node425884&#45;&gt;Node425829</title>
<path fill="none" stroke="#191970" d="M418.8852,-560C438.2974,-560 459.8892,-560 477.4902,-560"/>
<polygon fill="#191970" stroke="#191970" points="477.8784,-563.5001 487.8783,-560 477.8783,-556.5001 477.8784,-563.5001"/>
</g>
<!-- Node425887 -->
<g id="node15" class="node">
<title>Node425887</title>
<g id="a_node15"><a xlink:href="quickjs_8c.html#a9b8fb6b5ce638616691f7bf7881fa57d" target="_top" xlink:title="string_buffer_putc16">
<polygon fill="none" stroke="#ff0000" points="455,-664.5 455,-683.5 571,-683.5 571,-664.5 455,-664.5"/>
<text text-anchor="middle" x="513" y="-671.5" font-family="Helvetica,sans-Serif" font-size="10.00" fill="#000000">string_buffer_putc16</text>
</a>
</g>
</g>
<!-- Node425897&#45;&gt;Node425887 -->
<g id="edge17" class="edge">
<title>Node425897&#45;&gt;Node425887</title>
<path fill="none" stroke="#191970" d="M419.297,-674C427.5892,-674 436.2699,-674 444.8605,-674"/>
<polygon fill="#191970" stroke="#191970" points="444.875,-677.5001 454.875,-674 444.8749,-670.5001 444.875,-677.5001"/>
</g>
<!-- Node425900 -->
<g id="node18" class="node">
<title>Node425900</title>
<g id="a_node18"><a xlink:href="quickjs_8c.html#af49e67b73f845dc1f9c3ee648dd9f95c" target="_top" xlink:title="JS_ToCStringLen2">
<polygon fill="none" stroke="#ff0000" points="317,-398.5 317,-417.5 417,-417.5 417,-398.5 317,-398.5"/>
<text text-anchor="middle" x="367" y="-405.5" font-family="Helvetica,sans-Serif" font-size="10.00" fill="#000000">JS_ToCStringLen2</text>
</a>
</g>
</g>
<!-- Node425899&#45;&gt;Node425900 -->
<g id="edge20" class="edge">
<title>Node425899&#45;&gt;Node425900</title>
<path fill="none" stroke="#191970" d="M260.8076,-408C275.2653,-408 291.366,-408 306.5706,-408"/>
<polygon fill="#191970" stroke="#191970" points="306.9226,-411.5001 316.9226,-408 306.9225,-404.5001 306.9226,-411.5001"/>
</g>
<!-- Node425900&#45;&gt;Node425832 -->
<g id="edge21" class="edge">
<title>Node425900&#45;&gt;Node425832</title>
<path fill="none" stroke="#191970" d="M417.2449,-414.5387C432.2573,-416.4924 448.6962,-418.6317 463.6506,-420.5778"/>
<polygon fill="#191970" stroke="#191970" points="463.3626,-424.0698 473.7307,-421.8896 464.266,-417.1283 463.3626,-424.0698"/>
</g>
<!-- Node425900&#45;&gt;Node425868 -->
<g id="edge22" class="edge">
<title>Node425900&#45;&gt;Node425868</title>
<path fill="none" stroke="#191970" d="M375.7974,-398.3762C397.6038,-374.5382 452.5751,-314.5546 455,-313 458.175,-310.9645 461.5884,-309.1277 465.1124,-307.4737"/>
<polygon fill="#191970" stroke="#191970" points="466.7296,-310.5915 474.6116,-303.5116 464.0349,-304.1309 466.7296,-310.5915"/>
</g>
<!-- Node425901 -->
<g id="node19" class="node">
<title>Node425901</title>
<g id="a_node19"><a xlink:href="quickjs_8c.html#a7bcb8e1a20cbc8374a5f9ba4a2088cec" target="_top" xlink:title="JS_ToString">
<polygon fill="none" stroke="#ff0000" points="478,-360.5 478,-379.5 548,-379.5 548,-360.5 478,-360.5"/>
<text text-anchor="middle" x="513" y="-367.5" font-family="Helvetica,sans-Serif" font-size="10.00" fill="#000000">JS_ToString</text>
</a>
</g>
</g>
<!-- Node425900&#45;&gt;Node425901 -->
<g id="edge23" class="edge">
<title>Node425900&#45;&gt;Node425901</title>
<path fill="none" stroke="#191970" d="M403.842,-398.411C423.2977,-393.3472 447.3376,-387.0902 467.9007,-381.7382"/>
<polygon fill="#191970" stroke="#191970" points="468.8848,-385.0987 477.6808,-379.1927 467.1216,-378.3244 468.8848,-385.0987"/>
</g>
<!-- Node426108&#45;&gt;Node425901 -->
<g id="edge25" class="edge">
<title>Node426108&#45;&gt;Node425901</title>
<path fill="none" stroke="#191970" d="M279.2265,-370C336.2957,-370 417.4366,-370 467.5722,-370"/>
<polygon fill="#191970" stroke="#191970" points="467.7802,-373.5001 477.7801,-370 467.7801,-366.5001 467.7802,-373.5001"/>
</g>
<!-- Node426265&#45;&gt;Node425832 -->
<g id="edge27" class="edge">
<title>Node426265&#45;&gt;Node425832</title>
<path fill="none" stroke="#191970" d="M381.8027,-341.6319C407.1624,-358.1331 459.1121,-391.9359 489.4798,-411.6958"/>
<polygon fill="#191970" stroke="#191970" points="487.8674,-414.8223 498.1581,-417.3426 491.6852,-408.955 487.8674,-414.8223"/>
</g>
<!-- Node426265&#45;&gt;Node425868 -->
<g id="edge28" class="edge">
<title>Node426265&#45;&gt;Node425868</title>
<path fill="none" stroke="#191970" d="M403.842,-322.411C422.8479,-317.4642 446.2286,-311.3789 466.4692,-306.1108"/>
<polygon fill="#191970" stroke="#191970" points="467.627,-309.4261 476.423,-303.5201 465.8638,-302.6518 467.627,-309.4261"/>
</g>
<!-- Node426265&#45;&gt;Node425901 -->
<g id="edge29" class="edge">
<title>Node426265&#45;&gt;Node425901</title>
<path fill="none" stroke="#191970" d="M403.842,-341.589C423.2977,-346.6528 447.3376,-352.9098 467.9007,-358.2618"/>
<polygon fill="#191970" stroke="#191970" points="467.1216,-361.6756 477.6808,-360.8073 468.8848,-354.9013 467.1216,-361.6756"/>
</g>
<!-- Node426266 -->
<g id="node22" class="node">
<title>Node426266</title>
<g id="a_node22"><a xlink:href="quickjs_8c.html#ae94a3705c1c334ae8719767ae53719c2" target="_top" xlink:title="string_getc">
<polygon fill="none" stroke="#000000" points="477.5,-322.5 477.5,-341.5 548.5,-341.5 548.5,-322.5 477.5,-322.5"/>
<text text-anchor="middle" x="513" y="-329.5" font-family="Helvetica,sans-Serif" font-size="10.00" fill="#000000">string_getc</text>
</a>
</g>
</g>
<!-- Node426265&#45;&gt;Node426266 -->
<g id="edge30" class="edge">
<title>Node426265&#45;&gt;Node426266</title>
<path fill="none" stroke="#191970" d="M417.654,-332C433.7335,-332 451.4138,-332 467.136,-332"/>
<polygon fill="#191970" stroke="#191970" points="467.1486,-335.5001 477.1486,-332 467.1485,-328.5001 467.1486,-335.5001"/>
</g>
<!-- Node426268 -->
<g id="node24" class="node">
<title>Node426268</title>
<g id="a_node24"><a xlink:href="libunicode_8c.html#aa4fcf940cdf5a415e60372353f9d25d7" target="_top" xlink:title="compose_pair">
<polygon fill="none" stroke="#ff0000" points="324.5,-.5 324.5,-19.5 409.5,-19.5 409.5,-.5 324.5,-.5"/>
<text text-anchor="middle" x="367" y="-7.5" font-family="Helvetica,sans-Serif" font-size="10.00" fill="#000000">compose_pair</text>
</a>
</g>
</g>
<!-- Node426267&#45;&gt;Node426268 -->
<g id="edge32" class="edge">
<title>Node426267&#45;&gt;Node426268</title>
<path fill="none" stroke="#191970" d="M218.476,-151.1907C231.2275,-126.99 267.4456,-63.8769 315,-29 317.5153,-27.1553 320.2285,-25.4729 323.0491,-23.9414"/>
<polygon fill="#191970" stroke="#191970" points="324.776,-26.9962 332.3123,-19.5494 321.777,-20.6711 324.776,-26.9962"/>
</g>
<!-- Node425989 -->
<g id="node25" class="node">
<title>Node425989</title>
<g id="a_node25"><a xlink:href="cutils_8h.html#a1fed0a329cb7bb0e04283285037921a4" target="_top" xlink:title="dbuf_error">
<polygon fill="none" stroke="#000000" points="333.5,-246.5 333.5,-265.5 400.5,-265.5 400.5,-246.5 333.5,-246.5"/>
<text text-anchor="middle" x="367" y="-253.5" font-family="Helvetica,sans-Serif" font-size="10.00" fill="#000000">dbuf_error</text>
</a>
</g>
</g>
<!-- Node426267&#45;&gt;Node425989 -->
<g id="edge33" class="edge">
<title>Node426267&#45;&gt;Node425989</title>
<path fill="none" stroke="#191970" d="M233.3492,-170.6056C246.8472,-177.584 264.769,-187.7472 279,-199 297.2488,-213.4297 295.5576,-224.2239 315,-237 317.9406,-238.9324 321.1037,-240.7006 324.3653,-242.3122"/>
<polygon fill="#191970" stroke="#191970" points="323.1544,-245.6035 333.7158,-246.4451 325.9844,-239.2011 323.1544,-245.6035"/>
</g>
<!-- Node426002 -->
<g id="node26" class="node">
<title>Node426002</title>
<g id="a_node26"><a xlink:href="cutils_8h.html#a04e3983476063eb6fbab2fd74fc49fc6" target="_top" xlink:title="dbuf_init2">
<polygon fill="none" stroke="#ff0000" points="334.5,-208.5 334.5,-227.5 399.5,-227.5 399.5,-208.5 334.5,-208.5"/>
<text text-anchor="middle" x="367" y="-215.5" font-family="Helvetica,sans-Serif" font-size="10.00" fill="#000000">dbuf_init2</text>
</a>
</g>
</g>
<!-- Node426267&#45;&gt;Node426002 -->
<g id="edge34" class="edge">
<title>Node426267&#45;&gt;Node426002</title>
<path fill="none" stroke="#191970" d="M238.9242,-170.582C259.4416,-178.2994 289.0582,-189.4047 315,-199 320.2398,-200.9381 325.7809,-202.9756 331.2163,-204.9674"/>
<polygon fill="#191970" stroke="#191970" points="330.2043,-208.324 340.7981,-208.4721 332.6089,-201.7499 330.2043,-208.324"/>
</g>
<!-- Node425993 -->
<g id="node27" class="node">
<title>Node425993</title>
<g id="a_node27"><a xlink:href="cutils_8h.html#ac0b9ce26415947e972d6781d9f2fb11b" target="_top" xlink:title="dbuf_realloc">
<polygon fill="none" stroke="#000000" points="328.5,-170.5 328.5,-189.5 405.5,-189.5 405.5,-170.5 328.5,-170.5"/>
<text text-anchor="middle" x="367" y="-177.5" font-family="Helvetica,sans-Serif" font-size="10.00" fill="#000000">dbuf_realloc</text>
</a>
</g>
</g>
<!-- Node426267&#45;&gt;Node425993 -->
<g id="edge35" class="edge">
<title>Node426267&#45;&gt;Node425993</title>
<path fill="none" stroke="#191970" d="M268.0506,-167.7522C284.3089,-169.7646 302.0214,-171.957 317.9086,-173.9235"/>
<polygon fill="#191970" stroke="#191970" points="317.6973,-177.424 328.0515,-175.179 318.5572,-170.477 317.6973,-177.424"/>
</g>
<!-- Node426274 -->
<g id="node28" class="node">
<title>Node426274</title>
<g id="a_node28"><a xlink:href="libunicode_8c.html#af7744c842dd449b6035439926abd7ee0" target="_top" xlink:title="sort_cc">
<polygon fill="none" stroke="#000000" points="341.5,-94.5 341.5,-113.5 392.5,-113.5 392.5,-94.5 341.5,-94.5"/>
<text text-anchor="middle" x="367" y="-101.5" font-family="Helvetica,sans-Serif" font-size="10.00" fill="#000000">sort_cc</text>
</a>
</g>
</g>
<!-- Node426267&#45;&gt;Node426274 -->
<g id="edge36" class="edge">
<title>Node426267&#45;&gt;Node426274</title>
<path fill="none" stroke="#191970" d="M239.1924,-151.4595C264.6155,-142.019 303.7175,-127.499 331.9765,-117.0055"/>
<polygon fill="#191970" stroke="#191970" points="333.3235,-120.2389 341.4796,-113.4766 330.8867,-113.6767 333.3235,-120.2389"/>
</g>
<!-- Node426275 -->
<g id="node29" class="node">
<title>Node426275</title>
<g id="a_node29"><a xlink:href="libunicode_8c.html#a25b579ef70c6ea1f412b8b36266643ba" target="_top" xlink:title="unicode_get_cc">
<polygon fill="none" stroke="#ff0000" points="467,-113.5 467,-132.5 559,-132.5 559,-113.5 467,-113.5"/>
<text text-anchor="middle" x="513" y="-120.5" font-family="Helvetica,sans-Serif" font-size="10.00" fill="#000000">unicode_get_cc</text>
</a>
</g>
</g>
<!-- Node426267&#45;&gt;Node426275 -->
<g id="edge40" class="edge">
<title>Node426267&#45;&gt;Node426275</title>
<path fill="none" stroke="#191970" d="M268.0847,-154.0744C321.5016,-147.297 402.503,-137.0197 456.5508,-130.1622"/>
<polygon fill="#191970" stroke="#191970" points="457.1704,-133.6117 466.6503,-128.8808 456.2892,-126.6674 457.1704,-133.6117"/>
</g>
<!-- Node426278 -->
<g id="node30" class="node">
<title>Node426278</title>
<g id="a_node30"><a xlink:href="libunicode_8c.html#ab30f4b72bed0cefc5b1ceeb8caef2afc" target="_top" xlink:title="to_nfd_rec">
<polygon fill="none" stroke="#ff0000" points="333,-38.5 333,-57.5 401,-57.5 401,-38.5 333,-38.5"/>
<text text-anchor="middle" x="367" y="-45.5" font-family="Helvetica,sans-Serif" font-size="10.00" fill="#000000">to_nfd_rec</text>
</a>
</g>
</g>
<!-- Node426267&#45;&gt;Node426278 -->
<g id="edge38" class="edge">
<title>Node426267&#45;&gt;Node426278</title>
<path fill="none" stroke="#191970" d="M226.2441,-151.302C245.4039,-136.7573 282.8174,-108.4929 315,-85 324.7657,-77.8711 335.6545,-70.0968 344.9344,-63.5226"/>
<polygon fill="#191970" stroke="#191970" points="347.102,-66.2766 353.2494,-57.6475 343.0626,-60.5596 347.102,-66.2766"/>
</g>
<!-- Node426274&#45;&gt;Node426275 -->
<g id="edge37" class="edge">
<title>Node426274&#45;&gt;Node426275</title>
<path fill="none" stroke="#191970" d="M392.7658,-107.3531C410.5134,-109.6627 434.7885,-112.8218 456.8811,-115.6969"/>
<polygon fill="#191970" stroke="#191970" points="456.4789,-119.1739 466.847,-116.9938 457.3823,-112.2325 456.4789,-119.1739"/>
</g>
<!-- Node426278&#45;&gt;Node426278 -->
<g id="edge39" class="edge">
<title>Node426278&#45;&gt;Node426278</title>
<path fill="none" stroke="#191970" d="M344.4972,-57.7571C333.5498,-66.5653 341.0508,-76 367,-76 384.0292,-76 393.1133,-71.9368 394.2525,-66.6539"/>
<polygon fill="#191970" stroke="#191970" points="397.2999,-64.9303 389.5028,-57.7571 391.1248,-68.227 397.2999,-64.9303"/>
</g>
</g>
</svg>
