<?xml version="1.0" encoding="UTF-8" standalone="no"?>
<!DOCTYPE svg PUBLIC "-//W3C//DTD SVG 1.1//EN"
 "http://www.w3.org/Graphics/SVG/1.1/DTD/svg11.dtd">
<!-- Generated by graphviz version 2.40.1 (20161225.0304)
 -->
<!-- Title: put_short_code Pages: 1 -->
<svg width="500pt" height="46pt"
 viewBox="0.00 0.00 500.00 46.00" xmlns="http://www.w3.org/2000/svg" xmlns:xlink="http://www.w3.org/1999/xlink">
<g id="graph0" class="graph" transform="scale(1 1) rotate(0) translate(4 42)">
<title>put_short_code</title>
<!-- Node357011 -->
<g id="node1" class="node">
<title>Node357011</title>
<polygon fill="#bfbfbf" stroke="#000000" points="0,-.5 0,-19.5 91,-19.5 91,-.5 0,-.5"/>
<text text-anchor="middle" x="45.5" y="-7.5" font-family="Helvetica,sans-Serif" font-size="10.00" fill="#000000">put_short_code</text>
</g>
<!-- Node357012 -->
<g id="node2" class="node">
<title>Node357012</title>
<g id="a_node2"><a xlink:href="quickjs_8c.html#ad0d311d4ce409584384f835f1a3e185a" target="_top" xlink:title="resolve_labels">
<polygon fill="none" stroke="#000000" points="127,-.5 127,-19.5 214,-19.5 214,-.5 127,-.5"/>
<text text-anchor="middle" x="170.5" y="-7.5" font-family="Helvetica,sans-Serif" font-size="10.00" fill="#000000">resolve_labels</text>
</a>
</g>
</g>
<!-- Node357011&#45;&gt;Node357012 -->
<g id="edge1" class="edge">
<title>Node357011&#45;&gt;Node357012</title>
<path fill="none" stroke="#191970" d="M101.5296,-10C109.9864,-10 118.6029,-10 126.7509,-10"/>
<polygon fill="#191970" stroke="#191970" points="101.3356,-6.5001 91.3356,-10 101.3356,-13.5001 101.3356,-6.5001"/>
</g>
<!-- Node357013 -->
<g id="node3" class="node">
<title>Node357013</title>
<g id="a_node3"><a xlink:href="quickjs_8c.html#a97fcc747d8b1c3644174745d2e2739be" target="_top" xlink:title="js_create_function">
<polygon fill="none" stroke="#000000" points="250,-.5 250,-19.5 356,-19.5 356,-.5 250,-.5"/>
<text text-anchor="middle" x="303" y="-7.5" font-family="Helvetica,sans-Serif" font-size="10.00" fill="#000000">js_create_function</text>
</a>
</g>
</g>
<!-- Node357012&#45;&gt;Node357013 -->
<g id="edge2" class="edge">
<title>Node357012&#45;&gt;Node357013</title>
<path fill="none" stroke="#191970" d="M224.2691,-10C232.6232,-10 241.252,-10 249.5979,-10"/>
<polygon fill="#191970" stroke="#191970" points="224.2527,-6.5001 214.2527,-10 224.2526,-13.5001 224.2527,-6.5001"/>
</g>
<!-- Node357013&#45;&gt;Node357013 -->
<g id="edge3" class="edge">
<title>Node357013&#45;&gt;Node357013</title>
<path fill="none" stroke="#191970" d="M278.4465,-29.0292C279.7858,-34.128 287.9703,-38 303,-38 326.4609,-38 333.2426,-28.5653 323.345,-19.7571"/>
<polygon fill="#191970" stroke="#191970" points="281.709,-30.3096 282.655,-19.7571 275.3348,-27.4164 281.709,-30.3096"/>
</g>
<!-- Node357014 -->
<g id="node4" class="node">
<title>Node357014</title>
<g id="a_node4"><a xlink:href="quickjs_8c.html#a46a8a7e155cfd0af984f6725f060f0d6" target="_top" xlink:title="__JS_EvalInternal">
<polygon fill="none" stroke="#ff0000" points="392,-.5 392,-19.5 492,-19.5 492,-.5 392,-.5"/>
<text text-anchor="middle" x="442" y="-7.5" font-family="Helvetica,sans-Serif" font-size="10.00" fill="#000000">__JS_EvalInternal</text>
</a>
</g>
</g>
<!-- Node357013&#45;&gt;Node357014 -->
<g id="edge4" class="edge">
<title>Node357013&#45;&gt;Node357014</title>
<path fill="none" stroke="#191970" d="M366.5615,-10C375.0142,-10 383.585,-10 391.7687,-10"/>
<polygon fill="#191970" stroke="#191970" points="366.3435,-6.5001 356.3435,-10 366.3435,-13.5001 366.3435,-6.5001"/>
</g>
</g>
</svg>
