<?xml version="1.0" encoding="UTF-8" standalone="no"?>
<!DOCTYPE svg PUBLIC "-//W3C//DTD SVG 1.1//EN"
 "http://www.w3.org/Graphics/SVG/1.1/DTD/svg11.dtd">
<!-- Generated by graphviz version 2.40.1 (20161225.0304)
 -->
<!-- Title: JS_ToUint32Free Pages: 1 -->
<svg width="641pt" height="47pt"
 viewBox="0.00 0.00 641.00 47.00" xmlns="http://www.w3.org/2000/svg" xmlns:xlink="http://www.w3.org/1999/xlink">
<g id="graph0" class="graph" transform="scale(1 1) rotate(0) translate(4 43)">
<title>JS_ToUint32Free</title>
<!-- Node248040 -->
<g id="node1" class="node">
<title>Node248040</title>
<polygon fill="#bfbfbf" stroke="#000000" points="0,-19.5 0,-38.5 94,-38.5 94,-19.5 0,-19.5"/>
<text text-anchor="middle" x="47" y="-26.5" font-family="Helvetica,sans-Serif" font-size="10.00" fill="#000000">JS_ToUint32Free</text>
</g>
<!-- Node248041 -->
<g id="node2" class="node">
<title>Node248041</title>
<g id="a_node2"><a xlink:href="quickjs_8c.html#a643088ab23784b7f3c6ff94c37228256" target="_top" xlink:title="JS_ToInt32Free">
<polygon fill="none" stroke="#000000" points="130,-19.5 130,-38.5 216,-38.5 216,-19.5 130,-19.5"/>
<text text-anchor="middle" x="173" y="-26.5" font-family="Helvetica,sans-Serif" font-size="10.00" fill="#000000">JS_ToInt32Free</text>
</a>
</g>
</g>
<!-- Node248040&#45;&gt;Node248041 -->
<g id="edge1" class="edge">
<title>Node248040&#45;&gt;Node248041</title>
<path fill="none" stroke="#191970" d="M94.2762,-29C102.5173,-29 111.1418,-29 119.5352,-29"/>
<polygon fill="#191970" stroke="#191970" points="119.6173,-32.5001 129.6173,-29 119.6172,-25.5001 119.6173,-32.5001"/>
</g>
<!-- Node248042 -->
<g id="node3" class="node">
<title>Node248042</title>
<g id="a_node3"><a xlink:href="quickjs_8h.html#ad80a83d73e9b7d872b88fbf2943aebe9" target="_top" xlink:title="JS_IsException">
<polygon fill="none" stroke="#000000" points="546,-19.5 546,-38.5 633,-38.5 633,-19.5 546,-19.5"/>
<text text-anchor="middle" x="589.5" y="-26.5" font-family="Helvetica,sans-Serif" font-size="10.00" fill="#000000">JS_IsException</text>
</a>
</g>
</g>
<!-- Node248041&#45;&gt;Node248042 -->
<g id="edge2" class="edge">
<title>Node248041&#45;&gt;Node248042</title>
<path fill="none" stroke="#191970" d="M216.0041,-29C292.52,-29 452.1016,-29 535.7355,-29"/>
<polygon fill="#191970" stroke="#191970" points="535.7925,-32.5001 545.7925,-29 535.7925,-25.5001 535.7925,-32.5001"/>
</g>
<!-- Node248043 -->
<g id="node4" class="node">
<title>Node248043</title>
<g id="a_node4"><a xlink:href="quickjs_8c.html#ae738291483438efefca5c9fa4d269504" target="_top" xlink:title="JS_ToNumberFree">
<polygon fill="none" stroke="#000000" points="252,-.5 252,-19.5 353,-19.5 353,-.5 252,-.5"/>
<text text-anchor="middle" x="302.5" y="-7.5" font-family="Helvetica,sans-Serif" font-size="10.00" fill="#000000">JS_ToNumberFree</text>
</a>
</g>
</g>
<!-- Node248041&#45;&gt;Node248043 -->
<g id="edge3" class="edge">
<title>Node248041&#45;&gt;Node248043</title>
<path fill="none" stroke="#191970" d="M216.1216,-22.6733C224.3715,-21.4629 233.1506,-20.1748 241.8315,-18.9012"/>
<polygon fill="#191970" stroke="#191970" points="242.5534,-22.3328 251.9393,-17.4182 241.5372,-15.407 242.5534,-22.3328"/>
</g>
<!-- Node248044 -->
<g id="node5" class="node">
<title>Node248044</title>
<g id="a_node5"><a xlink:href="quickjs_8c.html#a0315f23b9804563f376c47edef2967fd" target="_top" xlink:title="JS_ToNumberHintFree">
<polygon fill="none" stroke="#ff0000" points="389,-.5 389,-19.5 510,-19.5 510,-.5 389,-.5"/>
<text text-anchor="middle" x="449.5" y="-7.5" font-family="Helvetica,sans-Serif" font-size="10.00" fill="#000000">JS_ToNumberHintFree</text>
</a>
</g>
</g>
<!-- Node248043&#45;&gt;Node248044 -->
<g id="edge4" class="edge">
<title>Node248043&#45;&gt;Node248044</title>
<path fill="none" stroke="#191970" d="M353.0891,-10C361.3863,-10 370.1164,-10 378.7945,-10"/>
<polygon fill="#191970" stroke="#191970" points="378.9288,-13.5001 388.9288,-10 378.9288,-6.5001 378.9288,-13.5001"/>
</g>
<!-- Node248044&#45;&gt;Node248042 -->
<g id="edge5" class="edge">
<title>Node248044&#45;&gt;Node248042</title>
<path fill="none" stroke="#191970" d="M510.0918,-18.2232C518.603,-19.3783 527.3031,-20.559 535.6766,-21.6954"/>
<polygon fill="#191970" stroke="#191970" points="535.3138,-25.1782 545.6936,-23.0549 536.2552,-18.2417 535.3138,-25.1782"/>
</g>
</g>
</svg>
