<?xml version="1.0" encoding="UTF-8" standalone="no"?>
<!DOCTYPE svg PUBLIC "-//W3C//DTD SVG 1.1//EN"
 "http://www.w3.org/Graphics/SVG/1.1/DTD/svg11.dtd">
<!-- Generated by graphviz version 2.40.1 (20161225.0304)
 -->
<!-- Title: js_set_error_object Pages: 1 -->
<svg width="238pt" height="142pt"
 viewBox="0.00 0.00 238.00 142.00" xmlns="http://www.w3.org/2000/svg" xmlns:xlink="http://www.w3.org/1999/xlink">
<g id="graph0" class="graph" transform="scale(1 1) rotate(0) translate(4 138)">
<title>js_set_error_object</title>
<!-- Node6827 -->
<g id="node1" class="node">
<title>Node6827</title>
<polygon fill="#bfbfbf" stroke="#000000" points="0,-57.5 0,-76.5 109,-76.5 109,-57.5 0,-57.5"/>
<text text-anchor="middle" x="54.5" y="-64.5" font-family="Helvetica,sans-Serif" font-size="10.00" fill="#000000">js_set_error_object</text>
</g>
<!-- Node6828 -->
<g id="node2" class="node">
<title>Node6828</title>
<g id="a_node2"><a xlink:href="quickjs-libc_8c.html#a51bfedac363e39a4273635aa7810425a" target="_top" xlink:title="js_std_fdopen">
<polygon fill="none" stroke="#000000" points="145.5,-114.5 145.5,-133.5 229.5,-133.5 229.5,-114.5 145.5,-114.5"/>
<text text-anchor="middle" x="187.5" y="-121.5" font-family="Helvetica,sans-Serif" font-size="10.00" fill="#000000">js_std_fdopen</text>
</a>
</g>
</g>
<!-- Node6827&#45;&gt;Node6828 -->
<g id="edge1" class="edge">
<title>Node6827&#45;&gt;Node6828</title>
<path fill="none" stroke="#191970" d="M86.2756,-80.6181C110.6084,-91.0465 143.5626,-105.1697 165.1662,-114.4284"/>
<polygon fill="#191970" stroke="#191970" points="87.3314,-77.2628 76.7612,-76.5405 84.5739,-83.6968 87.3314,-77.2628"/>
</g>
<!-- Node6829 -->
<g id="node3" class="node">
<title>Node6829</title>
<g id="a_node3"><a xlink:href="quickjs-libc_8c.html#a7af79ae13a636de55a6d58309c0cfa1e" target="_top" xlink:title="js_std_open">
<polygon fill="none" stroke="#000000" points="150.5,-76.5 150.5,-95.5 224.5,-95.5 224.5,-76.5 150.5,-76.5"/>
<text text-anchor="middle" x="187.5" y="-83.5" font-family="Helvetica,sans-Serif" font-size="10.00" fill="#000000">js_std_open</text>
</a>
</g>
</g>
<!-- Node6827&#45;&gt;Node6829 -->
<g id="edge2" class="edge">
<title>Node6827&#45;&gt;Node6829</title>
<path fill="none" stroke="#191970" d="M119.4316,-76.2759C129.9853,-77.7836 140.5917,-79.2988 150.1867,-80.6695"/>
<polygon fill="#191970" stroke="#191970" points="119.7586,-72.7872 109.3641,-74.8377 118.7685,-79.7168 119.7586,-72.7872"/>
</g>
<!-- Node6830 -->
<g id="node4" class="node">
<title>Node6830</title>
<g id="a_node4"><a xlink:href="quickjs-libc_8c.html#af872be4f158af25e3b412e2be297abcf" target="_top" xlink:title="js_std_popen">
<polygon fill="none" stroke="#000000" points="147.5,-38.5 147.5,-57.5 227.5,-57.5 227.5,-38.5 147.5,-38.5"/>
<text text-anchor="middle" x="187.5" y="-45.5" font-family="Helvetica,sans-Serif" font-size="10.00" fill="#000000">js_std_popen</text>
</a>
</g>
</g>
<!-- Node6827&#45;&gt;Node6830 -->
<g id="edge3" class="edge">
<title>Node6827&#45;&gt;Node6830</title>
<path fill="none" stroke="#191970" d="M119.299,-57.743C128.881,-56.3741 138.5101,-54.9986 147.3899,-53.73"/>
<polygon fill="#191970" stroke="#191970" points="118.7685,-54.2832 109.3641,-59.1623 119.7586,-61.2128 118.7685,-54.2832"/>
</g>
<!-- Node6831 -->
<g id="node5" class="node">
<title>Node6831</title>
<g id="a_node5"><a xlink:href="quickjs-libc_8c.html#ab6571176bd6ffba18dcc966ffb1c7234" target="_top" xlink:title="js_std_tmpfile">
<polygon fill="none" stroke="#000000" points="145,-.5 145,-19.5 230,-19.5 230,-.5 145,-.5"/>
<text text-anchor="middle" x="187.5" y="-7.5" font-family="Helvetica,sans-Serif" font-size="10.00" fill="#000000">js_std_tmpfile</text>
</a>
</g>
</g>
<!-- Node6827&#45;&gt;Node6831 -->
<g id="edge4" class="edge">
<title>Node6827&#45;&gt;Node6831</title>
<path fill="none" stroke="#191970" d="M86.2756,-53.3819C110.6084,-42.9535 143.5626,-28.8303 165.1662,-19.5716"/>
<polygon fill="#191970" stroke="#191970" points="84.5739,-50.3032 76.7612,-57.4595 87.3314,-56.7372 84.5739,-50.3032"/>
</g>
</g>
</svg>
