<?xml version="1.0" encoding="UTF-8" standalone="no"?>
<!DOCTYPE svg PUBLIC "-//W3C//DTD SVG 1.1//EN"
 "http://www.w3.org/Graphics/SVG/1.1/DTD/svg11.dtd">
<!-- Generated by graphviz version 2.40.1 (20161225.0304)
 -->
<!-- Title: js_dbuf_init Pages: 1 -->
<svg width="701pt" height="456pt"
 viewBox="0.00 0.00 701.00 456.00" xmlns="http://www.w3.org/2000/svg" xmlns:xlink="http://www.w3.org/1999/xlink">
<g id="graph0" class="graph" transform="scale(1 1) rotate(0) translate(4 452)">
<title>js_dbuf_init</title>
<!-- Node59814 -->
<g id="node1" class="node">
<title>Node59814</title>
<polygon fill="#bfbfbf" stroke="#000000" points="0,-114.5 0,-133.5 73,-133.5 73,-114.5 0,-114.5"/>
<text text-anchor="middle" x="36.5" y="-121.5" font-family="Helvetica,sans-Serif" font-size="10.00" fill="#000000">js_dbuf_init</text>
</g>
<!-- Node59815 -->
<g id="node2" class="node">
<title>Node59815</title>
<g id="a_node2"><a xlink:href="quickjs_8c.html#a61c8dfb5e807af1b6ff7d8ca61576dda" target="_top" xlink:title="build_backtrace">
<polygon fill="none" stroke="#000000" points="124,-334.5 124,-353.5 218,-353.5 218,-334.5 124,-334.5"/>
<text text-anchor="middle" x="171" y="-341.5" font-family="Helvetica,sans-Serif" font-size="10.00" fill="#000000">build_backtrace</text>
</a>
</g>
</g>
<!-- Node59814&#45;&gt;Node59815 -->
<g id="edge1" class="edge">
<title>Node59814&#45;&gt;Node59815</title>
<path fill="none" stroke="#191970" d="M47.7684,-142.4316C75.1557,-187.2287 144.4781,-300.6185 165.1159,-334.3755"/>
<polygon fill="#191970" stroke="#191970" points="50.6551,-140.4432 42.4528,-133.737 44.6828,-144.0945 50.6551,-140.4432"/>
</g>
<!-- Node60427 -->
<g id="node8" class="node">
<title>Node60427</title>
<g id="a_node8"><a xlink:href="quickjs_8c.html#ac8f4450aa771cc138f5fd25086f1c106" target="_top" xlink:title="compute_pc2line_info">
<polygon fill="none" stroke="#000000" points="109,-76.5 109,-95.5 233,-95.5 233,-76.5 109,-76.5"/>
<text text-anchor="middle" x="171" y="-83.5" font-family="Helvetica,sans-Serif" font-size="10.00" fill="#000000">compute_pc2line_info</text>
</a>
</g>
</g>
<!-- Node59814&#45;&gt;Node60427 -->
<g id="edge9" class="edge">
<title>Node59814&#45;&gt;Node60427</title>
<path fill="none" stroke="#191970" d="M80.1004,-111.6817C98.5798,-106.4607 119.7895,-100.4684 137.0708,-95.5859"/>
<polygon fill="#191970" stroke="#191970" points="79.1117,-108.3239 70.44,-114.411 81.015,-115.0602 79.1117,-108.3239"/>
</g>
<!-- Node60428 -->
<g id="node9" class="node">
<title>Node60428</title>
<g id="a_node9"><a xlink:href="quickjs_8c.html#ad0d311d4ce409584384f835f1a3e185a" target="_top" xlink:title="resolve_labels">
<polygon fill="none" stroke="#000000" points="292.5,-76.5 292.5,-95.5 379.5,-95.5 379.5,-76.5 292.5,-76.5"/>
<text text-anchor="middle" x="336" y="-83.5" font-family="Helvetica,sans-Serif" font-size="10.00" fill="#000000">resolve_labels</text>
</a>
</g>
</g>
<!-- Node59814&#45;&gt;Node60428 -->
<g id="edge22" class="edge">
<title>Node59814&#45;&gt;Node60428</title>
<path fill="none" stroke="#191970" d="M83.4131,-120.6049C123.3069,-117.4452 182.0584,-112.1478 233,-105 252.5379,-102.2586 274.0162,-98.4279 292.2807,-94.9238"/>
<polygon fill="#191970" stroke="#191970" points="82.8872,-117.1352 73.189,-121.4006 83.4304,-124.1141 82.8872,-117.1352"/>
</g>
<!-- Node60429 -->
<g id="node12" class="node">
<title>Node60429</title>
<g id="a_node12"><a xlink:href="quickjs_8c.html#a8020fd59ed57f7f299216ec1ebfcda01" target="_top" xlink:title="js_new_function_def">
<polygon fill="none" stroke="#000000" points="113,-196.5 113,-215.5 229,-215.5 229,-196.5 113,-196.5"/>
<text text-anchor="middle" x="171" y="-203.5" font-family="Helvetica,sans-Serif" font-size="10.00" fill="#000000">js_new_function_def</text>
</a>
</g>
</g>
<!-- Node59814&#45;&gt;Node60429 -->
<g id="edge14" class="edge">
<title>Node59814&#45;&gt;Node60429</title>
<path fill="none" stroke="#191970" d="M54.1069,-140.1797C68.1886,-152.5219 88.8452,-169.3319 109,-181 119.446,-187.0475 131.6371,-192.3073 142.4313,-196.4215"/>
<polygon fill="#191970" stroke="#191970" points="56.4191,-137.5521 46.629,-133.5018 51.7565,-142.7733 56.4191,-137.5521"/>
</g>
<!-- Node60016 -->
<g id="node16" class="node">
<title>Node60016</title>
<g id="a_node16"><a xlink:href="quickjs_8c.html#a431ceb41084feaa6af4e466b8b772ab1" target="_top" xlink:title="JS_WriteObject2">
<polygon fill="none" stroke="#ff0000" points="289,-19.5 289,-38.5 383,-38.5 383,-19.5 289,-19.5"/>
<text text-anchor="middle" x="336" y="-26.5" font-family="Helvetica,sans-Serif" font-size="10.00" fill="#000000">JS_WriteObject2</text>
</a>
</g>
</g>
<!-- Node59814&#45;&gt;Node60016 -->
<g id="edge19" class="edge">
<title>Node59814&#45;&gt;Node60016</title>
<path fill="none" stroke="#191970" d="M52.9944,-107.0061C66.7269,-93.9246 87.4534,-76.5207 109,-67 167.4785,-41.1604 241.5308,-32.7765 288.8464,-30.1224"/>
<polygon fill="#191970" stroke="#191970" points="50.4398,-104.6093 45.7638,-114.1165 55.348,-109.6004 50.4398,-104.6093"/>
</g>
<!-- Node60433 -->
<g id="node17" class="node">
<title>Node60433</title>
<g id="a_node17"><a xlink:href="quickjs_8c.html#a91942742587df191fbf0f17a2ede99ef" target="_top" xlink:title="JS_WriteObjectAtoms">
<polygon fill="none" stroke="#000000" points="111.5,-.5 111.5,-19.5 230.5,-19.5 230.5,-.5 111.5,-.5"/>
<text text-anchor="middle" x="171" y="-7.5" font-family="Helvetica,sans-Serif" font-size="10.00" fill="#000000">JS_WriteObjectAtoms</text>
</a>
</g>
</g>
<!-- Node59814&#45;&gt;Node60433 -->
<g id="edge20" class="edge">
<title>Node59814&#45;&gt;Node60433</title>
<path fill="none" stroke="#191970" d="M47.1419,-105.6851C59.645,-85.6041 82.13,-53.6327 109,-34 117.2944,-27.9396 127.3153,-23.1924 136.8596,-19.5777"/>
<polygon fill="#191970" stroke="#191970" points="44.0032,-104.112 41.8304,-114.4816 49.9956,-107.7303 44.0032,-104.112"/>
</g>
<!-- Node60200 -->
<g id="node18" class="node">
<title>Node60200</title>
<g id="a_node18"><a xlink:href="quickjs_8c.html#a7a4eedc4cc552a71e165f4d28ad43985" target="_top" xlink:title="resolve_variables">
<polygon fill="none" stroke="#000000" points="119.5,-152.5 119.5,-171.5 222.5,-171.5 222.5,-152.5 119.5,-152.5"/>
<text text-anchor="middle" x="171" y="-159.5" font-family="Helvetica,sans-Serif" font-size="10.00" fill="#000000">resolve_variables</text>
</a>
</g>
</g>
<!-- Node59814&#45;&gt;Node60200 -->
<g id="edge23" class="edge">
<title>Node59814&#45;&gt;Node60200</title>
<path fill="none" stroke="#191970" d="M80.1004,-136.3183C98.5798,-141.5393 119.7895,-147.5316 137.0708,-152.4141"/>
<polygon fill="#191970" stroke="#191970" points="81.015,-132.9398 70.44,-133.589 79.1117,-139.6761 81.015,-132.9398"/>
</g>
<!-- Node59816 -->
<g id="node3" class="node">
<title>Node59816</title>
<g id="a_node3"><a xlink:href="quickjs_8c.html#aeafb37b03b5560171754f8c4505b0f6b" target="_top" xlink:title="JS_ThrowError2">
<polygon fill="none" stroke="#000000" points="291,-334.5 291,-353.5 381,-353.5 381,-334.5 291,-334.5"/>
<text text-anchor="middle" x="336" y="-341.5" font-family="Helvetica,sans-Serif" font-size="10.00" fill="#000000">JS_ThrowError2</text>
</a>
</g>
</g>
<!-- Node59815&#45;&gt;Node59816 -->
<g id="edge2" class="edge">
<title>Node59815&#45;&gt;Node59816</title>
<path fill="none" stroke="#191970" d="M228.4426,-344C248.9279,-344 271.6906,-344 290.9812,-344"/>
<polygon fill="#191970" stroke="#191970" points="228.2824,-340.5001 218.2824,-344 228.2823,-347.5001 228.2824,-340.5001"/>
</g>
<!-- Node59837 -->
<g id="node5" class="node">
<title>Node59837</title>
<g id="a_node5"><a xlink:href="quickjs_8c.html#ac2894ff4edcdb4e6841bcce9c76081e3" target="_top" xlink:title="JS_CallInternal">
<polygon fill="none" stroke="#ff0000" points="292.5,-278.5 292.5,-297.5 379.5,-297.5 379.5,-278.5 292.5,-278.5"/>
<text text-anchor="middle" x="336" y="-285.5" font-family="Helvetica,sans-Serif" font-size="10.00" fill="#000000">JS_CallInternal</text>
</a>
</g>
</g>
<!-- Node59815&#45;&gt;Node59837 -->
<g id="edge4" class="edge">
<title>Node59815&#45;&gt;Node59837</title>
<path fill="none" stroke="#191970" d="M209.1356,-331.057C239.3325,-320.8084 280.8163,-306.729 308.0056,-297.5011"/>
<polygon fill="#191970" stroke="#191970" points="207.7091,-327.845 199.3645,-334.3733 209.9589,-334.4736 207.7091,-327.845"/>
</g>
<!-- Node60098 -->
<g id="node6" class="node">
<title>Node60098</title>
<g id="a_node6"><a xlink:href="quickjs_8c.html#a840642c87c5a82d4cc68333376a3b6de" target="_top" xlink:title="js_parse_postfix_expr">
<polygon fill="none" stroke="#ff0000" points="275,-410.5 275,-429.5 397,-429.5 397,-410.5 275,-410.5"/>
<text text-anchor="middle" x="336" y="-417.5" font-family="Helvetica,sans-Serif" font-size="10.00" fill="#000000">js_parse_postfix_expr</text>
</a>
</g>
</g>
<!-- Node59815&#45;&gt;Node60098 -->
<g id="edge6" class="edge">
<title>Node59815&#45;&gt;Node60098</title>
<path fill="none" stroke="#191970" d="M193.4327,-359.2363C212.7685,-371.8249 241.7867,-389.4441 269,-401 277.5692,-404.6388 287.0449,-407.8076 296.1066,-410.4598"/>
<polygon fill="#191970" stroke="#191970" points="195.293,-356.2705 185.0202,-353.6779 191.4341,-362.1108 195.293,-356.2705"/>
</g>
<!-- Node59868 -->
<g id="node7" class="node">
<title>Node59868</title>
<g id="a_node7"><a xlink:href="quickjs_8c.html#ad25358fc5ae69ab218abde24d52b7767" target="_top" xlink:title="js_error_constructor">
<polygon fill="none" stroke="#ff0000" points="279.5,-372.5 279.5,-391.5 392.5,-391.5 392.5,-372.5 279.5,-372.5"/>
<text text-anchor="middle" x="336" y="-379.5" font-family="Helvetica,sans-Serif" font-size="10.00" fill="#000000">js_error_constructor</text>
</a>
</g>
</g>
<!-- Node59815&#45;&gt;Node59868 -->
<g id="edge8" class="edge">
<title>Node59815&#45;&gt;Node59868</title>
<path fill="none" stroke="#191970" d="M222.654,-355.8961C245.8465,-361.2374 272.8383,-367.4537 294.6629,-372.4799"/>
<polygon fill="#191970" stroke="#191970" points="223.1669,-352.4226 212.6365,-353.589 221.5959,-359.2441 223.1669,-352.4226"/>
</g>
<!-- Node59817 -->
<g id="node4" class="node">
<title>Node59817</title>
<g id="a_node4"><a xlink:href="quickjs_8c.html#a1b110b017211230b8b6310e853cd2b54" target="_top" xlink:title="JS_ThrowError">
<polygon fill="none" stroke="#ff0000" points="456,-334.5 456,-353.5 540,-353.5 540,-334.5 456,-334.5"/>
<text text-anchor="middle" x="498" y="-341.5" font-family="Helvetica,sans-Serif" font-size="10.00" fill="#000000">JS_ThrowError</text>
</a>
</g>
</g>
<!-- Node59816&#45;&gt;Node59817 -->
<g id="edge3" class="edge">
<title>Node59816&#45;&gt;Node59817</title>
<path fill="none" stroke="#191970" d="M391.2682,-344C412.4148,-344 436.1725,-344 455.8956,-344"/>
<polygon fill="#191970" stroke="#191970" points="391.1261,-340.5001 381.126,-344 391.126,-347.5001 391.1261,-340.5001"/>
</g>
<!-- Node59837&#45;&gt;Node59837 -->
<g id="edge5" class="edge">
<title>Node59837&#45;&gt;Node59837</title>
<path fill="none" stroke="#191970" d="M305.6856,-306.2746C306.5499,-311.741 316.6547,-316 336,-316 364.793,-316 373.1159,-306.5653 360.9689,-297.7571"/>
<polygon fill="#191970" stroke="#191970" points="308.6799,-308.0877 311.0311,-297.7571 302.7508,-304.3667 308.6799,-308.0877"/>
</g>
<!-- Node60098&#45;&gt;Node60098 -->
<g id="edge7" class="edge">
<title>Node60098&#45;&gt;Node60098</title>
<path fill="none" stroke="#191970" d="M305.6856,-438.2746C306.5499,-443.741 316.6547,-448 336,-448 364.793,-448 373.1159,-438.5653 360.9689,-429.7571"/>
<polygon fill="#191970" stroke="#191970" points="308.6799,-440.0877 311.0311,-429.7571 302.7508,-436.3667 308.6799,-440.0877"/>
</g>
<!-- Node60427&#45;&gt;Node60428 -->
<g id="edge10" class="edge">
<title>Node60427&#45;&gt;Node60428</title>
<path fill="none" stroke="#191970" d="M243.6153,-86C260.2063,-86 277.3384,-86 292.2754,-86"/>
<polygon fill="#191970" stroke="#191970" points="243.3795,-82.5001 233.3794,-86 243.3794,-89.5001 243.3795,-82.5001"/>
</g>
<!-- Node60201 -->
<g id="node10" class="node">
<title>Node60201</title>
<g id="a_node10"><a xlink:href="quickjs_8c.html#a97fcc747d8b1c3644174745d2e2739be" target="_top" xlink:title="js_create_function">
<polygon fill="none" stroke="#000000" points="445,-108.5 445,-127.5 551,-127.5 551,-108.5 445,-108.5"/>
<text text-anchor="middle" x="498" y="-115.5" font-family="Helvetica,sans-Serif" font-size="10.00" fill="#000000">js_create_function</text>
</a>
</g>
</g>
<!-- Node60428&#45;&gt;Node60201 -->
<g id="edge11" class="edge">
<title>Node60428&#45;&gt;Node60201</title>
<path fill="none" stroke="#191970" d="M389.7498,-96.6172C409.1661,-100.4526 430.9471,-104.755 449.853,-108.4895"/>
<polygon fill="#191970" stroke="#191970" points="390.3283,-93.164 379.8395,-94.6597 388.9717,-100.0313 390.3283,-93.164"/>
</g>
<!-- Node60201&#45;&gt;Node60201 -->
<g id="edge12" class="edge">
<title>Node60201&#45;&gt;Node60201</title>
<path fill="none" stroke="#191970" d="M471.1208,-136.6539C472.2444,-141.9368 481.2041,-146 498,-146 523.5938,-146 530.9919,-136.5653 520.1946,-127.7571"/>
<polygon fill="#191970" stroke="#191970" points="474.2433,-138.2361 475.8054,-127.7571 468.0494,-134.9747 474.2433,-138.2361"/>
</g>
<!-- Node59907 -->
<g id="node11" class="node">
<title>Node59907</title>
<g id="a_node11"><a xlink:href="quickjs_8c.html#a46a8a7e155cfd0af984f6725f060f0d6" target="_top" xlink:title="__JS_EvalInternal">
<polygon fill="none" stroke="#ff0000" points="593,-177.5 593,-196.5 693,-196.5 693,-177.5 593,-177.5"/>
<text text-anchor="middle" x="643" y="-184.5" font-family="Helvetica,sans-Serif" font-size="10.00" fill="#000000">__JS_EvalInternal</text>
</a>
</g>
</g>
<!-- Node60201&#45;&gt;Node59907 -->
<g id="edge13" class="edge">
<title>Node60201&#45;&gt;Node59907</title>
<path fill="none" stroke="#191970" d="M527.232,-131.9104C555.6996,-145.457 598.2016,-165.6821 623.0096,-177.4873"/>
<polygon fill="#191970" stroke="#191970" points="528.6953,-128.7307 518.1616,-127.5942 525.6875,-135.0515 528.6953,-128.7307"/>
</g>
<!-- Node60429&#45;&gt;Node59907 -->
<g id="edge18" class="edge">
<title>Node60429&#45;&gt;Node59907</title>
<path fill="none" stroke="#191970" d="M210.6105,-218.5042C228.2845,-223.4576 249.4846,-228.55 269,-231 394.1975,-246.7174 543.1928,-213.7274 608.9441,-196.5383"/>
<polygon fill="#191970" stroke="#191970" points="211.2298,-215.04 200.6511,-215.6249 209.2856,-221.7646 211.2298,-215.04"/>
</g>
<!-- Node60430 -->
<g id="node13" class="node">
<title>Node60430</title>
<g id="a_node13"><a xlink:href="quickjs_8c.html#a63058dc37265af331214fa1eec1aebf8" target="_top" xlink:title="js_parse_function_class\l_fields_init">
<polygon fill="none" stroke="#000000" points="270,-153 270,-183 402,-183 402,-153 270,-153"/>
<text text-anchor="start" x="278" y="-171" font-family="Helvetica,sans-Serif" font-size="10.00" fill="#000000">js_parse_function_class</text>
<text text-anchor="middle" x="336" y="-160" font-family="Helvetica,sans-Serif" font-size="10.00" fill="#000000">_fields_init</text>
</a>
</g>
</g>
<!-- Node60429&#45;&gt;Node60430 -->
<g id="edge15" class="edge">
<title>Node60429&#45;&gt;Node60430</title>
<path fill="none" stroke="#191970" d="M222.3991,-194.1626C237.6607,-190.6478 254.5857,-186.75 270.6099,-183.0595"/>
<polygon fill="#191970" stroke="#191970" points="221.5959,-190.7559 212.6365,-196.411 223.1669,-197.5774 221.5959,-190.7559"/>
</g>
<!-- Node60106 -->
<g id="node15" class="node">
<title>Node60106</title>
<g id="a_node15"><a xlink:href="quickjs_8c.html#acc9eb677cab8dfcf45f59381f8a19601" target="_top" xlink:title="js_parse_function_decl2">
<polygon fill="none" stroke="#ff0000" points="269,-202.5 269,-221.5 403,-221.5 403,-202.5 269,-202.5"/>
<text text-anchor="middle" x="336" y="-209.5" font-family="Helvetica,sans-Serif" font-size="10.00" fill="#000000">js_parse_function_decl2</text>
</a>
</g>
</g>
<!-- Node60429&#45;&gt;Node60106 -->
<g id="edge17" class="edge">
<title>Node60429&#45;&gt;Node60106</title>
<path fill="none" stroke="#191970" d="M239.2232,-208.4808C248.986,-208.8359 259.0239,-209.2009 268.7673,-209.5552"/>
<polygon fill="#191970" stroke="#191970" points="239.2934,-204.9812 229.1728,-208.1154 239.039,-211.9766 239.2934,-204.9812"/>
</g>
<!-- Node60431 -->
<g id="node14" class="node">
<title>Node60431</title>
<g id="a_node14"><a xlink:href="quickjs_8c.html#a38e4107378b0d9abd638e4fe13541678" target="_top" xlink:title="emit_class_init_start">
<polygon fill="none" stroke="#ff0000" points="439,-164.5 439,-183.5 557,-183.5 557,-164.5 439,-164.5"/>
<text text-anchor="middle" x="498" y="-171.5" font-family="Helvetica,sans-Serif" font-size="10.00" fill="#000000">emit_class_init_start</text>
</a>
</g>
</g>
<!-- Node60430&#45;&gt;Node60431 -->
<g id="edge16" class="edge">
<title>Node60430&#45;&gt;Node60431</title>
<path fill="none" stroke="#191970" d="M412.6147,-170.8376C421.3992,-171.1629 430.2527,-171.4908 438.7603,-171.8059"/>
<polygon fill="#191970" stroke="#191970" points="412.4817,-167.3304 402.359,-170.4577 412.2226,-174.3256 412.4817,-167.3304"/>
</g>
<!-- Node60433&#45;&gt;Node60016 -->
<g id="edge21" class="edge">
<title>Node60433&#45;&gt;Node60016</title>
<path fill="none" stroke="#191970" d="M240.6049,-18.0151C256.9043,-19.892 273.8922,-21.8482 288.9384,-23.5808"/>
<polygon fill="#191970" stroke="#191970" points="240.9036,-14.5265 230.5688,-16.8594 240.1027,-21.4805 240.9036,-14.5265"/>
</g>
<!-- Node60200&#45;&gt;Node60201 -->
<g id="edge24" class="edge">
<title>Node60200&#45;&gt;Node60201</title>
<path fill="none" stroke="#191970" d="M229.0833,-150.6522C242.1841,-148.2823 256.0464,-145.9227 269,-144 328.9618,-135.1001 398.1544,-127.6282 444.6522,-123.0112"/>
<polygon fill="#191970" stroke="#191970" points="228.4445,-147.2109 219.2411,-152.4595 229.7088,-154.0958 228.4445,-147.2109"/>
</g>
</g>
</svg>
