<?xml version="1.0" encoding="UTF-8" standalone="no"?>
<!DOCTYPE svg PUBLIC "-//W3C//DTD SVG 1.1//EN"
 "http://www.w3.org/Graphics/SVG/1.1/DTD/svg11.dtd">
<!-- Generated by graphviz version 2.40.1 (20161225.0304)
 -->
<!-- Title: js_parse_error_reserved_identifier Pages: 1 -->
<svg width="899pt" height="329pt"
 viewBox="0.00 0.00 899.00 329.00" xmlns="http://www.w3.org/2000/svg" xmlns:xlink="http://www.w3.org/1999/xlink">
<g id="graph0" class="graph" transform="scale(1 1) rotate(0) translate(4 325.0046)">
<title>js_parse_error_reserved_identifier</title>
<!-- Node311519 -->
<g id="node1" class="node">
<title>Node311519</title>
<polygon fill="#bfbfbf" stroke="#000000" points="0,-95.0046 0,-125.0046 134,-125.0046 134,-95.0046 0,-95.0046"/>
<text text-anchor="start" x="8" y="-113.0046" font-family="Helvetica,sans-Serif" font-size="10.00" fill="#000000">js_parse_error_reserved</text>
<text text-anchor="middle" x="67" y="-102.0046" font-family="Helvetica,sans-Serif" font-size="10.00" fill="#000000">_identifier</text>
</g>
<!-- Node311520 -->
<g id="node2" class="node">
<title>Node311520</title>
<g id="a_node2"><a xlink:href="quickjs_8c.html#a00eb789430243c24dab4a63ad6a79653" target="_top" xlink:title="js_parse_class">
<polygon fill="none" stroke="#000000" points="170,-176.5046 170,-195.5046 257,-195.5046 257,-176.5046 170,-176.5046"/>
<text text-anchor="middle" x="213.5" y="-183.5046" font-family="Helvetica,sans-Serif" font-size="10.00" fill="#000000">js_parse_class</text>
</a>
</g>
</g>
<!-- Node311519&#45;&gt;Node311520 -->
<g id="edge1" class="edge">
<title>Node311519&#45;&gt;Node311520</title>
<path fill="none" stroke="#191970" d="M104.9457,-129.6898C133.812,-144.6648 172.2923,-164.6273 194.8341,-176.3213"/>
<polygon fill="#191970" stroke="#191970" points="106.4321,-126.518 95.9437,-125.0198 103.2086,-132.7316 106.4321,-126.518"/>
</g>
<!-- Node311521 -->
<g id="node3" class="node">
<title>Node311521</title>
<g id="a_node3"><a xlink:href="quickjs_8c.html#a840642c87c5a82d4cc68333376a3b6de" target="_top" xlink:title="js_parse_postfix_expr">
<polygon fill="none" stroke="#000000" points="293,-271.5046 293,-290.5046 415,-290.5046 415,-271.5046 293,-271.5046"/>
<text text-anchor="middle" x="354" y="-278.5046" font-family="Helvetica,sans-Serif" font-size="10.00" fill="#000000">js_parse_postfix_expr</text>
</a>
</g>
</g>
<!-- Node311519&#45;&gt;Node311521 -->
<g id="edge19" class="edge">
<title>Node311519&#45;&gt;Node311521</title>
<path fill="none" stroke="#191970" d="M87.2068,-132.7917C106.7402,-153.7448 138.0038,-184.5702 170,-205.0046 219.0815,-236.3507 283.2664,-259.3582 321.4088,-271.424"/>
<polygon fill="#191970" stroke="#191970" points="89.6586,-130.2869 80.3177,-125.2869 84.5017,-135.0206 89.6586,-130.2869"/>
</g>
<!-- Node311525 -->
<g id="node6" class="node">
<title>Node311525</title>
<g id="a_node6"><a xlink:href="quickjs_8c.html#a9d844c16dcc71701436848074337d32c" target="_top" xlink:title="js_parse_statement\l_or_decl">
<polygon fill="none" stroke="#ff0000" points="297.5,-52.0046 297.5,-82.0046 410.5,-82.0046 410.5,-52.0046 297.5,-52.0046"/>
<text text-anchor="start" x="305.5" y="-70.0046" font-family="Helvetica,sans-Serif" font-size="10.00" fill="#000000">js_parse_statement</text>
<text text-anchor="middle" x="354" y="-59.0046" font-family="Helvetica,sans-Serif" font-size="10.00" fill="#000000">_or_decl</text>
</a>
</g>
</g>
<!-- Node311519&#45;&gt;Node311525 -->
<g id="edge20" class="edge">
<title>Node311519&#45;&gt;Node311525</title>
<path fill="none" stroke="#191970" d="M144.3728,-98.4122C192.5867,-91.1885 253.5471,-82.0551 297.2833,-75.5023"/>
<polygon fill="#191970" stroke="#191970" points="143.6597,-94.9799 134.2887,-99.9231 144.697,-101.9026 143.6597,-94.9799"/>
</g>
<!-- Node311530 -->
<g id="node8" class="node">
<title>Node311530</title>
<g id="a_node8"><a xlink:href="quickjs_8c.html#acc9eb677cab8dfcf45f59381f8a19601" target="_top" xlink:title="js_parse_function_decl2">
<polygon fill="none" stroke="#ff0000" points="627,-116.5046 627,-135.5046 761,-135.5046 761,-116.5046 627,-116.5046"/>
<text text-anchor="middle" x="694" y="-123.5046" font-family="Helvetica,sans-Serif" font-size="10.00" fill="#000000">js_parse_function_decl2</text>
</a>
</g>
</g>
<!-- Node311519&#45;&gt;Node311530 -->
<g id="edge16" class="edge">
<title>Node311519&#45;&gt;Node311530</title>
<path fill="none" stroke="#191970" d="M144.2756,-111.9766C268.2925,-115.1413 509.6895,-121.3013 626.9093,-124.2926"/>
<polygon fill="#191970" stroke="#191970" points="144.186,-108.4733 134.1,-111.7169 144.0074,-115.471 144.186,-108.4733"/>
</g>
<!-- Node311556 -->
<g id="node10" class="node">
<title>Node311556</title>
<g id="a_node10"><a xlink:href="quickjs_8c.html#aa24f7964f6d938a05c3c3c03af5a01e9" target="_top" xlink:title="js_parse_import">
<polygon fill="none" stroke="#000000" points="306.5,-13.5046 306.5,-32.5046 401.5,-32.5046 401.5,-13.5046 306.5,-13.5046"/>
<text text-anchor="middle" x="354" y="-20.5046" font-family="Helvetica,sans-Serif" font-size="10.00" fill="#000000">js_parse_import</text>
</a>
</g>
</g>
<!-- Node311519&#45;&gt;Node311556 -->
<g id="edge17" class="edge">
<title>Node311519&#45;&gt;Node311556</title>
<path fill="none" stroke="#191970" d="M124.4726,-92.0291C139.2957,-87.4258 155.2334,-82.5053 170,-78.0046 223.1011,-61.8201 284.9628,-43.4227 321.7272,-32.537"/>
<polygon fill="#191970" stroke="#191970" points="123.4259,-88.6892 114.9161,-95.0007 125.5044,-95.3735 123.4259,-88.6892"/>
</g>
<!-- Node311524 -->
<g id="node11" class="node">
<title>Node311524</title>
<g id="a_node11"><a xlink:href="quickjs_8c.html#a9660cf21845352b14655d423389d6620" target="_top" xlink:title="js_parse_var">
<polygon fill="none" stroke="#000000" points="174.5,-5.5046 174.5,-24.5046 252.5,-24.5046 252.5,-5.5046 174.5,-5.5046"/>
<text text-anchor="middle" x="213.5" y="-12.5046" font-family="Helvetica,sans-Serif" font-size="10.00" fill="#000000">js_parse_var</text>
</a>
</g>
</g>
<!-- Node311519&#45;&gt;Node311524 -->
<g id="edge21" class="edge">
<title>Node311519&#45;&gt;Node311524</title>
<path fill="none" stroke="#191970" d="M95.7333,-89.0587C116.1139,-74.4854 144.3009,-54.8972 170,-39.0046 178.0694,-34.0144 187.2357,-28.8815 195.0663,-24.6499"/>
<polygon fill="#191970" stroke="#191970" points="93.5838,-86.2933 87.5067,-94.9719 97.6695,-91.9773 93.5838,-86.2933"/>
</g>
<!-- Node311520&#45;&gt;Node311521 -->
<g id="edge2" class="edge">
<title>Node311520&#45;&gt;Node311521</title>
<path fill="none" stroke="#191970" d="M229.4588,-203.421C244.5886,-219.1146 268.5783,-241.9673 293,-257.0046 302.4,-262.7926 313.4344,-267.64 323.5149,-271.4287"/>
<polygon fill="#191970" stroke="#191970" points="231.8099,-200.813 222.3991,-195.9461 226.7208,-205.6194 231.8099,-200.813"/>
</g>
<!-- Node311520&#45;&gt;Node311525 -->
<g id="edge8" class="edge">
<title>Node311520&#45;&gt;Node311525</title>
<path fill="none" stroke="#191970" d="M232.7117,-169.7328C260.0481,-146.5795 309.7852,-104.4535 336.279,-82.0139"/>
<polygon fill="#191970" stroke="#191970" points="230.3664,-167.1325 224.9977,-176.2664 234.8906,-172.474 230.3664,-167.1325"/>
</g>
<!-- Node311532 -->
<g id="node9" class="node">
<title>Node311532</title>
<g id="a_node9"><a xlink:href="quickjs_8c.html#a498e1d5c7de1b59c1630e9847cde1e41" target="_top" xlink:title="js_parse_export">
<polygon fill="none" stroke="#000000" points="797,-106.5046 797,-125.5046 891,-125.5046 891,-106.5046 797,-106.5046"/>
<text text-anchor="middle" x="844" y="-113.5046" font-family="Helvetica,sans-Serif" font-size="10.00" fill="#000000">js_parse_export</text>
</a>
</g>
</g>
<!-- Node311520&#45;&gt;Node311532 -->
<g id="edge15" class="edge">
<title>Node311520&#45;&gt;Node311532</title>
<path fill="none" stroke="#191970" d="M267.1688,-187.329C366.1642,-188.6 583.6057,-185.909 761,-145.0046 781.8231,-140.2031 804.694,-131.9802 821.1452,-125.514"/>
<polygon fill="#191970" stroke="#191970" points="267.1613,-183.8286 257.1107,-187.1806 267.058,-190.8278 267.1613,-183.8286"/>
</g>
<!-- Node311521&#45;&gt;Node311521 -->
<g id="edge5" class="edge">
<title>Node311521&#45;&gt;Node311521</title>
<path fill="none" stroke="#191970" d="M327.9584,-300.0338C329.3789,-305.1326 338.0594,-309.0046 354,-309.0046 378.8828,-309.0046 386.0755,-299.5699 375.5781,-290.7617"/>
<polygon fill="#191970" stroke="#191970" points="331.238,-301.2902 332.4219,-290.7617 324.9308,-298.2539 331.238,-301.2902"/>
</g>
<!-- Node311522 -->
<g id="node4" class="node">
<title>Node311522</title>
<g id="a_node4"><a xlink:href="quickjs_8c.html#a12b48ce2b1f247b494fdde07dbe7f232" target="_top" xlink:title="js_parse_left_hand\l_side_expr">
<polygon fill="none" stroke="#ff0000" points="467,-234.0046 467,-264.0046 575,-264.0046 575,-234.0046 467,-234.0046"/>
<text text-anchor="start" x="475" y="-252.0046" font-family="Helvetica,sans-Serif" font-size="10.00" fill="#000000">js_parse_left_hand</text>
<text text-anchor="middle" x="521" y="-241.0046" font-family="Helvetica,sans-Serif" font-size="10.00" fill="#000000">_side_expr</text>
</a>
</g>
</g>
<!-- Node311521&#45;&gt;Node311522 -->
<g id="edge3" class="edge">
<title>Node311521&#45;&gt;Node311522</title>
<path fill="none" stroke="#191970" d="M413.673,-269.5703C431.0278,-266.2448 449.8813,-262.6322 466.8745,-259.376"/>
<polygon fill="#191970" stroke="#191970" points="412.816,-266.1708 403.6534,-271.4902 414.1334,-273.0457 412.816,-266.1708"/>
</g>
<!-- Node311542 -->
<g id="node5" class="node">
<title>Node311542</title>
<g id="a_node5"><a xlink:href="quickjs_8c.html#a9f26c765171d977db1796791f035f1f9" target="_top" xlink:title="js_parse_unary">
<polygon fill="none" stroke="#ff0000" points="476,-283.5046 476,-302.5046 566,-302.5046 566,-283.5046 476,-283.5046"/>
<text text-anchor="middle" x="521" y="-290.5046" font-family="Helvetica,sans-Serif" font-size="10.00" fill="#000000">js_parse_unary</text>
</a>
</g>
</g>
<!-- Node311521&#45;&gt;Node311542 -->
<g id="edge6" class="edge">
<title>Node311521&#45;&gt;Node311542</title>
<path fill="none" stroke="#191970" d="M425.2602,-286.1251C442.4625,-287.3612 460.3733,-288.6482 475.9862,-289.7701"/>
<polygon fill="#191970" stroke="#191970" points="425.4615,-282.6307 415.2364,-285.4049 424.9598,-289.6127 425.4615,-282.6307"/>
</g>
<!-- Node311522&#45;&gt;Node311520 -->
<g id="edge4" class="edge">
<title>Node311522&#45;&gt;Node311520</title>
<path fill="none" stroke="#191970" d="M456.6151,-245.0621C410.4575,-241.1453 347.1325,-233.5291 293,-219.0046 271.6386,-213.2731 248.4051,-203.1391 232.6038,-195.6086"/>
<polygon fill="#191970" stroke="#191970" points="456.5311,-248.5668 466.7819,-245.8888 457.0984,-241.5898 456.5311,-248.5668"/>
</g>
<!-- Node311542&#45;&gt;Node311542 -->
<g id="edge7" class="edge">
<title>Node311542&#45;&gt;Node311542</title>
<path fill="none" stroke="#191970" d="M489.9371,-311.2792C490.8228,-316.7457 501.1771,-321.0046 521,-321.0046 550.5039,-321.0046 559.0324,-311.5699 546.5854,-302.7617"/>
<polygon fill="#191970" stroke="#191970" points="492.9495,-313.0658 495.4146,-302.7617 487.0618,-309.2795 492.9495,-313.0658"/>
</g>
<!-- Node311525&#45;&gt;Node311525 -->
<g id="edge9" class="edge">
<title>Node311525&#45;&gt;Node311525</title>
<path fill="none" stroke="#191970" d="M329.1237,-92.4625C332.2112,-97.1836 340.5033,-100.5046 354,-100.5046 376.1484,-100.5046 384.2811,-91.5612 378.3979,-82.1636"/>
<polygon fill="#191970" stroke="#191970" points="332.6342,-92.3153 329.6021,-82.1636 325.6418,-91.9904 332.6342,-92.3153"/>
</g>
<!-- Node311529 -->
<g id="node7" class="node">
<title>Node311529</title>
<g id="a_node7"><a xlink:href="quickjs_8c.html#ab59a3267a100decc9d2d81eb3297794a" target="_top" xlink:title="js_parse_source_element">
<polygon fill="none" stroke="#ff0000" points="451,-63.5046 451,-82.5046 591,-82.5046 591,-63.5046 451,-63.5046"/>
<text text-anchor="middle" x="521" y="-70.5046" font-family="Helvetica,sans-Serif" font-size="10.00" fill="#000000">js_parse_source_element</text>
</a>
</g>
</g>
<!-- Node311525&#45;&gt;Node311529 -->
<g id="edge10" class="edge">
<title>Node311525&#45;&gt;Node311529</title>
<path fill="none" stroke="#191970" d="M420.734,-69.4023C430.6557,-69.7587 440.9068,-70.127 450.8953,-70.4859"/>
<polygon fill="#191970" stroke="#191970" points="420.6578,-65.8974 410.5386,-69.036 420.4064,-72.8929 420.6578,-65.8974"/>
</g>
<!-- Node311529&#45;&gt;Node311530 -->
<g id="edge11" class="edge">
<title>Node311529&#45;&gt;Node311530</title>
<path fill="none" stroke="#191970" d="M561.9584,-85.5526C592.8887,-95.0284 634.687,-107.8336 662.9041,-116.4781"/>
<polygon fill="#191970" stroke="#191970" points="562.9156,-82.1853 552.329,-82.6025 560.8651,-88.8783 562.9156,-82.1853"/>
</g>
<!-- Node311530&#45;&gt;Node311520 -->
<g id="edge12" class="edge">
<title>Node311530&#45;&gt;Node311520</title>
<path fill="none" stroke="#191970" d="M629.4817,-137.1629C616.7447,-139.2217 603.4643,-141.2673 591,-143.0046 470.4654,-159.8058 327.5917,-174.7244 257.1859,-181.7473"/>
<polygon fill="#191970" stroke="#191970" points="630.2504,-140.5837 639.5539,-135.5146 629.1199,-133.6756 630.2504,-140.5837"/>
</g>
<!-- Node311530&#45;&gt;Node311532 -->
<g id="edge13" class="edge">
<title>Node311530&#45;&gt;Node311532</title>
<path fill="none" stroke="#191970" d="M771.2756,-120.8529C779.9491,-120.2747 788.5819,-119.6992 796.7096,-119.1573"/>
<polygon fill="#191970" stroke="#191970" points="770.8479,-117.3736 761.1029,-121.5311 771.3136,-124.3581 770.8479,-117.3736"/>
</g>
<!-- Node311532&#45;&gt;Node311529 -->
<g id="edge14" class="edge">
<title>Node311532&#45;&gt;Node311529</title>
<path fill="none" stroke="#191970" d="M786.7844,-108.3877C732.1358,-101.1125 649.6533,-90.1319 591.0862,-82.335"/>
<polygon fill="#191970" stroke="#191970" points="786.6154,-111.896 796.9898,-109.7463 787.5392,-104.9572 786.6154,-111.896"/>
</g>
<!-- Node311556&#45;&gt;Node311529 -->
<g id="edge18" class="edge">
<title>Node311556&#45;&gt;Node311529</title>
<path fill="none" stroke="#191970" d="M395.6208,-35.466C424.5335,-44.1224 462.4854,-55.4853 489.0299,-63.4328"/>
<polygon fill="#191970" stroke="#191970" points="396.3883,-32.0423 385.8045,-32.5269 394.3805,-38.7482 396.3883,-32.0423"/>
</g>
<!-- Node311524&#45;&gt;Node311525 -->
<g id="edge22" class="edge">
<title>Node311524&#45;&gt;Node311525</title>
<path fill="none" stroke="#191970" d="M248.7393,-28.047C268.3321,-35.2984 292.806,-44.3563 313.223,-51.9128"/>
<polygon fill="#191970" stroke="#191970" points="249.863,-24.7309 239.2699,-24.5422 247.4333,-31.2957 249.863,-24.7309"/>
</g>
<!-- Node311524&#45;&gt;Node311532 -->
<g id="edge23" class="edge">
<title>Node311524&#45;&gt;Node311532</title>
<path fill="none" stroke="#191970" d="M262.793,-7.1112C272.7661,-5.817 283.1989,-4.6795 293,-4.0046 347.0941,-.28 361.1273,2.1423 415,-4.0046 571.8172,-21.8978 610.1033,-37.7232 761,-84.0046 781.9659,-90.4351 805.2101,-99.5775 821.7543,-106.4447"/>
<polygon fill="#191970" stroke="#191970" points="262.0455,-3.6808 252.6121,-8.5037 262.9942,-10.6162 262.0455,-3.6808"/>
</g>
</g>
</svg>
