<?xml version="1.0" encoding="UTF-8" standalone="no"?>
<!DOCTYPE svg PUBLIC "-//W3C//DTD SVG 1.1//EN"
 "http://www.w3.org/Graphics/SVG/1.1/DTD/svg11.dtd">
<!-- Generated by graphviz version 2.40.1 (20161225.0304)
 -->
<!-- Title: js_realloc_rt Pages: 1 -->
<!--zoomable 636 -->
<svg id="main" version="1.1" xmlns="http://www.w3.org/2000/svg" xmlns:xlink="http://www.w3.org/1999/xlink" xml:space="preserve" onload="init(evt)">
<style type="text/css"><![CDATA[
.edge:hover path { stroke: red; }
.edge:hover polygon { stroke: red; fill: red; }
]]></style>
<script type="text/javascript"><![CDATA[
var edges = document.getElementsByTagName('g');
if (edges && edges.length) {
  for (var i=0;i<edges.length;i++) {
    if (edges[i].id.substr(0,4)=='edge') {
      edges[i].setAttribute('class','edge');
    }
  }
}
]]></script>
        <defs>
                <circle id="rim" cx="0" cy="0" r="7"/>
                <circle id="rim2" cx="0" cy="0" r="3.5"/>
                <g id="zoomPlus">
                        <use xlink:href="#rim" fill="#404040">
                                <set attributeName="fill" to="#808080" begin="zoomplus.mouseover" end="zoomplus.mouseout"/>
                        </use>
                        <path d="M-4,0h8M0,-4v8" fill="none" stroke="white" stroke-width="1.5" pointer-events="none"/>
                </g>
                <g id="zoomMin">
                        <use xlink:href="#rim" fill="#404040">
                                <set attributeName="fill" to="#808080" begin="zoomminus.mouseover" end="zoomminus.mouseout"/>
                        </use>
                        <path d="M-4,0h8" fill="none" stroke="white" stroke-width="1.5" pointer-events="none"/>
                </g>
                <g id="dirArrow">
                        <path fill="none" stroke="white" stroke-width="1.5" d="M0,-3.0v7 M-2.5,-0.5L0,-3.0L2.5,-0.5"/>
                </g>
               <g id="resetDef">
                       <use xlink:href="#rim2" fill="#404040">
                               <set attributeName="fill" to="#808080" begin="reset.mouseover" end="reset.mouseout"/>
                       </use>
               </g>
        </defs>

<script type="text/javascript">
var viewWidth = 571;
var viewHeight = 636;
var sectionId = 'dynsection-139';
</script>
<script xlink:href="svgpan.js"/>
<svg id="graph" class="graph">
<g id="viewport">
<title>js_realloc_rt</title>
<!-- Node52538 -->
<g id="node1" class="node">
<title>Node52538</title>
<polygon fill="#bfbfbf" stroke="#000000" points="0,-123.5 0,-142.5 76,-142.5 76,-123.5 0,-123.5"/>
<text text-anchor="middle" x="38" y="-130.5" font-family="Helvetica,sans-Serif" font-size="10.00" fill="#000000">js_realloc_rt</text>
</g>
<!-- Node52539 -->
<g id="node2" class="node">
<title>Node52539</title>
<g id="a_node2"><a xlink:href="quickjs_8c.html#a85c6e39e83eab2ddb82d58e82721d06a" target="_top" xlink:title="js_dbuf_init">
<polygon fill="none" stroke="#000000" points="131.5,-285.5 131.5,-304.5 204.5,-304.5 204.5,-285.5 131.5,-285.5"/>
<text text-anchor="middle" x="168" y="-292.5" font-family="Helvetica,sans-Serif" font-size="10.00" fill="#000000">js_dbuf_init</text>
</a>
</g>
</g>
<!-- Node52538&#45;&gt;Node52539 -->
<g id="edge1" class="edge">
<title>Node52538&#45;&gt;Node52539</title>
<path fill="none" stroke="#191970" d="M52.2788,-150.7936C79.68,-184.9396 138.8115,-258.6266 160.1334,-285.197"/>
<polygon fill="#191970" stroke="#191970" points="54.7313,-148.2574 45.7428,-142.6487 49.2717,-152.6386 54.7313,-148.2574"/>
</g>
<!-- Node53159 -->
<g id="node17" class="node">
<title>Node53159</title>
<g id="a_node17"><a xlink:href="quickjs_8c.html#a1c31248142879982abb1595f97817cd9" target="_top" xlink:title="js_realloc2">
<polygon fill="none" stroke="#000000" points="133.5,-133.5 133.5,-152.5 202.5,-152.5 202.5,-133.5 133.5,-133.5"/>
<text text-anchor="middle" x="168" y="-140.5" font-family="Helvetica,sans-Serif" font-size="10.00" fill="#000000">js_realloc2</text>
</a>
</g>
</g>
<!-- Node52538&#45;&gt;Node53159 -->
<g id="edge20" class="edge">
<title>Node52538&#45;&gt;Node53159</title>
<path fill="none" stroke="#191970" d="M86.7135,-136.7472C102.1217,-137.9324 118.8349,-139.2181 133.0769,-140.3136"/>
<polygon fill="#191970" stroke="#191970" points="86.5402,-133.2236 76.3012,-135.9462 86.0032,-140.203 86.5402,-133.2236"/>
</g>
<!-- Node53198 -->
<g id="node20" class="node">
<title>Node53198</title>
<g id="a_node20"><a xlink:href="quickjs-libc_8c.html#abc010e21334ba999f6ad18a681caf4fb" target="_top" xlink:title="js_std_dbuf_init">
<polygon fill="none" stroke="#000000" points="121.5,-85.5 121.5,-104.5 214.5,-104.5 214.5,-85.5 121.5,-85.5"/>
<text text-anchor="middle" x="168" y="-92.5" font-family="Helvetica,sans-Serif" font-size="10.00" fill="#000000">js_std_dbuf_init</text>
</a>
</g>
</g>
<!-- Node52538&#45;&gt;Node53198 -->
<g id="edge23" class="edge">
<title>Node52538&#45;&gt;Node53198</title>
<path fill="none" stroke="#191970" d="M80.8839,-120.4647C98.5689,-115.2952 118.7337,-109.4009 135.206,-104.5859"/>
<polygon fill="#191970" stroke="#191970" points="79.4208,-117.2458 70.8045,-123.411 81.3848,-123.9647 79.4208,-117.2458"/>
</g>
<!-- Node53054 -->
<g id="node25" class="node">
<title>Node53054</title>
<g id="a_node25"><a xlink:href="quickjs_8c.html#ac6b88454ffc4d639197c1e95e515e04a" target="_top" xlink:title="js_string_normalize">
<polygon fill="none" stroke="#000000" points="112,-47.5 112,-66.5 224,-66.5 224,-47.5 112,-47.5"/>
<text text-anchor="middle" x="168" y="-54.5" font-family="Helvetica,sans-Serif" font-size="10.00" fill="#000000">js_string_normalize</text>
</a>
</g>
</g>
<!-- Node52538&#45;&gt;Node53054 -->
<g id="edge28" class="edge">
<title>Node52538&#45;&gt;Node53054</title>
<path fill="none" stroke="#191970" d="M55.8475,-116.523C70.1532,-104.0192 91.2071,-87.1368 112,-76 118.8781,-72.316 126.6079,-69.1449 134.0775,-66.5067"/>
<polygon fill="#191970" stroke="#191970" points="53.3838,-114.0306 48.2572,-123.3026 58.0469,-119.2514 53.3838,-114.0306"/>
</g>
<!-- Node52540 -->
<g id="node3" class="node">
<title>Node52540</title>
<g id="a_node3"><a xlink:href="quickjs_8c.html#a61c8dfb5e807af1b6ff7d8ca61576dda" target="_top" xlink:title="build_backtrace">
<polygon fill="none" stroke="#000000" points="279.5,-496.5 279.5,-515.5 373.5,-515.5 373.5,-496.5 279.5,-496.5"/>
<text text-anchor="middle" x="326.5" y="-503.5" font-family="Helvetica,sans-Serif" font-size="10.00" fill="#000000">build_backtrace</text>
</a>
</g>
</g>
<!-- Node52539&#45;&gt;Node52540 -->
<g id="edge2" class="edge">
<title>Node52539&#45;&gt;Node52540</title>
<path fill="none" stroke="#191970" d="M181.301,-312.7067C213.4456,-355.4985 294.5195,-463.4266 319.2353,-496.329"/>
<polygon fill="#191970" stroke="#191970" points="184.0268,-310.5079 175.2223,-304.6145 178.43,-314.7121 184.0268,-310.5079"/>
</g>
<!-- Node53152 -->
<g id="node8" class="node">
<title>Node53152</title>
<g id="a_node8"><a xlink:href="quickjs_8c.html#a8020fd59ed57f7f299216ec1ebfcda01" target="_top" xlink:title="js_new_function_def">
<polygon fill="none" stroke="#000000" points="268.5,-380.5 268.5,-399.5 384.5,-399.5 384.5,-380.5 268.5,-380.5"/>
<text text-anchor="middle" x="326.5" y="-387.5" font-family="Helvetica,sans-Serif" font-size="10.00" fill="#000000">js_new_function_def</text>
</a>
</g>
</g>
<!-- Node52539&#45;&gt;Node53152 -->
<g id="edge9" class="edge">
<title>Node52539&#45;&gt;Node53152</title>
<path fill="none" stroke="#191970" d="M184.037,-311.8419C201.288,-329.0354 230.2687,-355.3559 260,-371 267.2256,-374.802 275.3046,-377.9247 283.2739,-380.4609"/>
<polygon fill="#191970" stroke="#191970" points="186.481,-309.3354 176.9757,-304.6556 181.488,-314.2416 186.481,-309.3354"/>
</g>
<!-- Node52925 -->
<g id="node12" class="node">
<title>Node52925</title>
<g id="a_node12"><a xlink:href="quickjs_8c.html#a7a4eedc4cc552a71e165f4d28ad43985" target="_top" xlink:title="resolve_variables">
<polygon fill="none" stroke="#ff0000" points="275,-342.5 275,-361.5 378,-361.5 378,-342.5 275,-342.5"/>
<text text-anchor="middle" x="326.5" y="-349.5" font-family="Helvetica,sans-Serif" font-size="10.00" fill="#000000">resolve_variables</text>
</a>
</g>
</g>
<!-- Node52539&#45;&gt;Node52925 -->
<g id="edge13" class="edge">
<title>Node52539&#45;&gt;Node52925</title>
<path fill="none" stroke="#191970" d="M198.5801,-308.6528C216.3232,-316.3158 239.2068,-325.7614 260,-333 269.7521,-336.3949 280.4568,-339.6531 290.3735,-342.4833"/>
<polygon fill="#191970" stroke="#191970" points="199.863,-305.394 189.2976,-304.6043 197.0646,-311.8103 199.863,-305.394"/>
</g>
<!-- Node53156 -->
<g id="node13" class="node">
<title>Node53156</title>
<g id="a_node13"><a xlink:href="quickjs_8c.html#ac8f4450aa771cc138f5fd25086f1c106" target="_top" xlink:title="compute_pc2line_info">
<polygon fill="none" stroke="#000000" points="264.5,-304.5 264.5,-323.5 388.5,-323.5 388.5,-304.5 264.5,-304.5"/>
<text text-anchor="middle" x="326.5" y="-311.5" font-family="Helvetica,sans-Serif" font-size="10.00" fill="#000000">compute_pc2line_info</text>
</a>
</g>
</g>
<!-- Node52539&#45;&gt;Node53156 -->
<g id="edge14" class="edge">
<title>Node52539&#45;&gt;Node53156</title>
<path fill="none" stroke="#191970" d="M215.1294,-300.6496C230.6131,-302.5057 248.0659,-304.5978 264.482,-306.5657"/>
<polygon fill="#191970" stroke="#191970" points="215.107,-297.1219 204.7615,-299.4067 214.2738,-304.0722 215.107,-297.1219"/>
</g>
<!-- Node53157 -->
<g id="node14" class="node">
<title>Node53157</title>
<g id="a_node14"><a xlink:href="quickjs_8c.html#ad0d311d4ce409584384f835f1a3e185a" target="_top" xlink:title="resolve_labels">
<polygon fill="none" stroke="#ff0000" points="452.5,-275.5 452.5,-294.5 539.5,-294.5 539.5,-275.5 452.5,-275.5"/>
<text text-anchor="middle" x="496" y="-282.5" font-family="Helvetica,sans-Serif" font-size="10.00" fill="#000000">resolve_labels</text>
</a>
</g>
</g>
<!-- Node52539&#45;&gt;Node53157 -->
<g id="edge16" class="edge">
<title>Node52539&#45;&gt;Node53157</title>
<path fill="none" stroke="#191970" d="M214.7871,-293.5736C278.1862,-291.6407 390.535,-288.2154 452.2985,-286.3324"/>
<polygon fill="#191970" stroke="#191970" points="214.5597,-290.0788 204.671,-293.882 214.7731,-297.0755 214.5597,-290.0788"/>
</g>
<!-- Node53158 -->
<g id="node15" class="node">
<title>Node53158</title>
<g id="a_node15"><a xlink:href="quickjs_8c.html#a91942742587df191fbf0f17a2ede99ef" target="_top" xlink:title="JS_WriteObjectAtoms">
<polygon fill="none" stroke="#000000" points="267,-228.5 267,-247.5 386,-247.5 386,-228.5 267,-228.5"/>
<text text-anchor="middle" x="326.5" y="-235.5" font-family="Helvetica,sans-Serif" font-size="10.00" fill="#000000">JS_WriteObjectAtoms</text>
</a>
</g>
</g>
<!-- Node52539&#45;&gt;Node53158 -->
<g id="edge17" class="edge">
<title>Node52539&#45;&gt;Node53158</title>
<path fill="none" stroke="#191970" d="M203.9502,-282.0715C233.1139,-271.5836 273.5664,-257.0361 299.8841,-247.5716"/>
<polygon fill="#191970" stroke="#191970" points="202.7549,-278.7819 194.5293,-285.4595 205.1238,-285.3689 202.7549,-278.7819"/>
</g>
<!-- Node52741 -->
<g id="node16" class="node">
<title>Node52741</title>
<g id="a_node16"><a xlink:href="quickjs_8c.html#a431ceb41084feaa6af4e466b8b772ab1" target="_top" xlink:title="JS_WriteObject2">
<polygon fill="none" stroke="#ff0000" points="449,-209.5 449,-228.5 543,-228.5 543,-209.5 449,-209.5"/>
<text text-anchor="middle" x="496" y="-216.5" font-family="Helvetica,sans-Serif" font-size="10.00" fill="#000000">JS_WriteObject2</text>
</a>
</g>
</g>
<!-- Node52539&#45;&gt;Node52741 -->
<g id="edge19" class="edge">
<title>Node52539&#45;&gt;Node52741</title>
<path fill="none" stroke="#191970" d="M182.2274,-277.6164C198.691,-259.0128 227.71,-230.6123 260,-219 322.2661,-196.6076 399.894,-202.4681 448.7206,-209.8461"/>
<polygon fill="#191970" stroke="#191970" points="179.4259,-275.507 175.5799,-285.3791 184.7428,-280.0601 179.4259,-275.507"/>
</g>
<!-- Node52541 -->
<g id="node4" class="node">
<title>Node52541</title>
<g id="a_node4"><a xlink:href="quickjs_8c.html#aeafb37b03b5560171754f8c4505b0f6b" target="_top" xlink:title="JS_ThrowError2">
<polygon fill="none" stroke="#ff0000" points="451,-608.5 451,-627.5 541,-627.5 541,-608.5 451,-608.5"/>
<text text-anchor="middle" x="496" y="-615.5" font-family="Helvetica,sans-Serif" font-size="10.00" fill="#000000">JS_ThrowError2</text>
</a>
</g>
</g>
<!-- Node52540&#45;&gt;Node52541 -->
<g id="edge3" class="edge">
<title>Node52540&#45;&gt;Node52541</title>
<path fill="none" stroke="#191970" d="M341.1729,-523.5373C359.6018,-544.4666 393.1756,-579.1216 429,-599 435.8719,-602.8131 443.5735,-605.9147 451.2405,-608.4204"/>
<polygon fill="#191970" stroke="#191970" points="343.6329,-521.0304 334.4519,-515.7427 338.3315,-525.6016 343.6329,-521.0304"/>
</g>
<!-- Node52562 -->
<g id="node5" class="node">
<title>Node52562</title>
<g id="a_node5"><a xlink:href="quickjs_8c.html#ac2894ff4edcdb4e6841bcce9c76081e3" target="_top" xlink:title="JS_CallInternal">
<polygon fill="none" stroke="#ff0000" points="452.5,-552.5 452.5,-571.5 539.5,-571.5 539.5,-552.5 452.5,-552.5"/>
<text text-anchor="middle" x="496" y="-559.5" font-family="Helvetica,sans-Serif" font-size="10.00" fill="#000000">JS_CallInternal</text>
</a>
</g>
</g>
<!-- Node52540&#45;&gt;Node52562 -->
<g id="edge4" class="edge">
<title>Node52540&#45;&gt;Node52562</title>
<path fill="none" stroke="#191970" d="M361.1105,-519.1774C380.8796,-526.5317 406.1986,-535.6615 429,-543 439.1281,-546.2597 450.2101,-549.5234 460.3935,-552.4033"/>
<polygon fill="#191970" stroke="#191970" points="362.197,-515.847 351.6047,-515.6191 359.743,-522.4027 362.197,-515.847"/>
</g>
<!-- Node52823 -->
<g id="node6" class="node">
<title>Node52823</title>
<g id="a_node6"><a xlink:href="quickjs_8c.html#a840642c87c5a82d4cc68333376a3b6de" target="_top" xlink:title="js_parse_postfix_expr">
<polygon fill="none" stroke="#ff0000" points="435,-496.5 435,-515.5 557,-515.5 557,-496.5 435,-496.5"/>
<text text-anchor="middle" x="496" y="-503.5" font-family="Helvetica,sans-Serif" font-size="10.00" fill="#000000">js_parse_postfix_expr</text>
</a>
</g>
</g>
<!-- Node52540&#45;&gt;Node52823 -->
<g id="edge6" class="edge">
<title>Node52540&#45;&gt;Node52823</title>
<path fill="none" stroke="#191970" d="M384.1797,-506C400.4753,-506 418.2628,-506 434.7598,-506"/>
<polygon fill="#191970" stroke="#191970" points="383.7152,-502.5001 373.7152,-506 383.7152,-509.5001 383.7152,-502.5001"/>
</g>
<!-- Node52593 -->
<g id="node7" class="node">
<title>Node52593</title>
<g id="a_node7"><a xlink:href="quickjs_8c.html#ad25358fc5ae69ab218abde24d52b7767" target="_top" xlink:title="js_error_constructor">
<polygon fill="none" stroke="#ff0000" points="439.5,-458.5 439.5,-477.5 552.5,-477.5 552.5,-458.5 439.5,-458.5"/>
<text text-anchor="middle" x="496" y="-465.5" font-family="Helvetica,sans-Serif" font-size="10.00" fill="#000000">js_error_constructor</text>
</a>
</g>
</g>
<!-- Node52540&#45;&gt;Node52593 -->
<g id="edge8" class="edge">
<title>Node52540&#45;&gt;Node52593</title>
<path fill="none" stroke="#191970" d="M379.2425,-494.1757C403.139,-488.8184 431.0152,-482.5689 453.5356,-477.5201"/>
<polygon fill="#191970" stroke="#191970" points="378.2641,-490.8081 369.272,-496.411 379.7955,-497.6386 378.2641,-490.8081"/>
</g>
<!-- Node52562&#45;&gt;Node52562 -->
<g id="edge5" class="edge">
<title>Node52562&#45;&gt;Node52562</title>
<path fill="none" stroke="#191970" d="M464.5629,-580.2746C465.4592,-585.741 475.9382,-590 496,-590 525.8594,-590 534.4906,-580.5653 521.8937,-571.7571"/>
<polygon fill="#191970" stroke="#191970" points="467.585,-582.0475 470.1063,-571.7571 461.7181,-578.2291 467.585,-582.0475"/>
</g>
<!-- Node52823&#45;&gt;Node52823 -->
<g id="edge7" class="edge">
<title>Node52823&#45;&gt;Node52823</title>
<path fill="none" stroke="#191970" d="M464.5629,-524.2746C465.4592,-529.741 475.9382,-534 496,-534 525.8594,-534 534.4906,-524.5653 521.8937,-515.7571"/>
<polygon fill="#191970" stroke="#191970" points="467.585,-526.0475 470.1063,-515.7571 461.7181,-522.2291 467.585,-526.0475"/>
</g>
<!-- Node53153 -->
<g id="node9" class="node">
<title>Node53153</title>
<g id="a_node9"><a xlink:href="quickjs_8c.html#a63058dc37265af331214fa1eec1aebf8" target="_top" xlink:title="js_parse_function_class\l_fields_init">
<polygon fill="none" stroke="#ff0000" points="430,-409 430,-439 562,-439 562,-409 430,-409"/>
<text text-anchor="start" x="438" y="-427" font-family="Helvetica,sans-Serif" font-size="10.00" fill="#000000">js_parse_function_class</text>
<text text-anchor="middle" x="496" y="-416" font-family="Helvetica,sans-Serif" font-size="10.00" fill="#000000">_fields_init</text>
</a>
</g>
</g>
<!-- Node53152&#45;&gt;Node53153 -->
<g id="edge10" class="edge">
<title>Node53152&#45;&gt;Node53153</title>
<path fill="none" stroke="#191970" d="M384.1039,-401.5548C398.7744,-404.4975 414.6582,-407.6837 429.7234,-410.7056"/>
<polygon fill="#191970" stroke="#191970" points="384.6593,-398.0965 374.1663,-399.5614 383.2826,-404.9598 384.6593,-398.0965"/>
</g>
<!-- Node52831 -->
<g id="node10" class="node">
<title>Node52831</title>
<g id="a_node10"><a xlink:href="quickjs_8c.html#acc9eb677cab8dfcf45f59381f8a19601" target="_top" xlink:title="js_parse_function_decl2">
<polygon fill="none" stroke="#ff0000" points="429,-370.5 429,-389.5 563,-389.5 563,-370.5 429,-370.5"/>
<text text-anchor="middle" x="496" y="-377.5" font-family="Helvetica,sans-Serif" font-size="10.00" fill="#000000">js_parse_function_decl2</text>
</a>
</g>
</g>
<!-- Node53152&#45;&gt;Node52831 -->
<g id="edge11" class="edge">
<title>Node53152&#45;&gt;Node52831</title>
<path fill="none" stroke="#191970" d="M394.9546,-385.9614C406.1223,-385.3025 417.6823,-384.6205 428.8189,-383.9635"/>
<polygon fill="#191970" stroke="#191970" points="394.6088,-382.4756 384.8323,-386.5586 395.0211,-389.4635 394.6088,-382.4756"/>
</g>
<!-- Node52632 -->
<g id="node11" class="node">
<title>Node52632</title>
<g id="a_node11"><a xlink:href="quickjs_8c.html#a46a8a7e155cfd0af984f6725f060f0d6" target="_top" xlink:title="__JS_EvalInternal">
<polygon fill="none" stroke="#ff0000" points="446,-332.5 446,-351.5 546,-351.5 546,-332.5 446,-332.5"/>
<text text-anchor="middle" x="496" y="-339.5" font-family="Helvetica,sans-Serif" font-size="10.00" fill="#000000">__JS_EvalInternal</text>
</a>
</g>
</g>
<!-- Node53152&#45;&gt;Node52632 -->
<g id="edge12" class="edge">
<title>Node53152&#45;&gt;Node52632</title>
<path fill="none" stroke="#191970" d="M370.1537,-377.6379C398.8096,-369.5229 435.736,-359.0659 462.1653,-351.5815"/>
<polygon fill="#191970" stroke="#191970" points="369.0614,-374.3095 360.3935,-380.4018 370.9688,-381.0446 369.0614,-374.3095"/>
</g>
<!-- Node53156&#45;&gt;Node53157 -->
<g id="edge15" class="edge">
<title>Node53156&#45;&gt;Node53157</title>
<path fill="none" stroke="#191970" d="M392.5113,-302.706C412.6181,-299.2659 434.2062,-295.5724 452.4356,-292.4535"/>
<polygon fill="#191970" stroke="#191970" points="391.7369,-299.2876 382.4704,-304.4239 392.9174,-306.1873 391.7369,-299.2876"/>
</g>
<!-- Node53158&#45;&gt;Node52741 -->
<g id="edge18" class="edge">
<title>Node53158&#45;&gt;Node52741</title>
<path fill="none" stroke="#191970" d="M396.4943,-230.154C414.09,-228.1817 432.5612,-226.1111 448.747,-224.2968"/>
<polygon fill="#191970" stroke="#191970" points="395.8072,-226.709 386.2594,-231.3013 396.587,-233.6655 395.8072,-226.709"/>
</g>
<!-- Node53160 -->
<g id="node18" class="node">
<title>Node53160</title>
<g id="a_node18"><a xlink:href="quickjs_8c.html#a0eda61158c0a22ef337abc3a035bca33" target="_top" xlink:title="js_realloc_array">
<polygon fill="none" stroke="#000000" points="279.5,-152.5 279.5,-171.5 373.5,-171.5 373.5,-152.5 279.5,-152.5"/>
<text text-anchor="middle" x="326.5" y="-159.5" font-family="Helvetica,sans-Serif" font-size="10.00" fill="#000000">js_realloc_array</text>
</a>
</g>
</g>
<!-- Node53159&#45;&gt;Node53160 -->
<g id="edge21" class="edge">
<title>Node53159&#45;&gt;Node53160</title>
<path fill="none" stroke="#191970" d="M212.95,-148.3883C233.7393,-150.8804 258.4305,-153.8402 279.4702,-156.3624"/>
<polygon fill="#191970" stroke="#191970" points="213.129,-144.8848 202.7835,-147.1696 212.2958,-151.8351 213.129,-144.8848"/>
</g>
<!-- Node53161 -->
<g id="node19" class="node">
<title>Node53161</title>
<g id="a_node19"><a xlink:href="quickjs_8c.html#afa610f3175e9cb11fdceac95071099b5" target="_top" xlink:title="js_resize_array">
<polygon fill="none" stroke="#ff0000" points="451,-152.5 451,-171.5 541,-171.5 541,-152.5 451,-152.5"/>
<text text-anchor="middle" x="496" y="-159.5" font-family="Helvetica,sans-Serif" font-size="10.00" fill="#000000">js_resize_array</text>
</a>
</g>
</g>
<!-- Node53160&#45;&gt;Node53161 -->
<g id="edge22" class="edge">
<title>Node53160&#45;&gt;Node53161</title>
<path fill="none" stroke="#191970" d="M383.8567,-162C405.6886,-162 430.238,-162 450.7893,-162"/>
<polygon fill="#191970" stroke="#191970" points="383.7152,-158.5001 373.7152,-162 383.7152,-165.5001 383.7152,-158.5001"/>
</g>
<!-- Node52915 -->
<g id="node21" class="node">
<title>Node52915</title>
<g id="a_node21"><a xlink:href="quickjs-libc_8c.html#a2abec3aeee82a6dd3dd063725bbeecfe" target="_top" xlink:title="js_printf_internal">
<polygon fill="none" stroke="#ff0000" points="277,-114.5 277,-133.5 376,-133.5 376,-114.5 277,-114.5"/>
<text text-anchor="middle" x="326.5" y="-121.5" font-family="Helvetica,sans-Serif" font-size="10.00" fill="#000000">js_printf_internal</text>
</a>
</g>
</g>
<!-- Node53198&#45;&gt;Node52915 -->
<g id="edge24" class="edge">
<title>Node53198&#45;&gt;Node52915</title>
<path fill="none" stroke="#191970" d="M224.5473,-105.3462C241.6225,-108.4704 260.2334,-111.8755 276.8252,-114.9112"/>
<polygon fill="#191970" stroke="#191970" points="225.1646,-101.9011 214.698,-103.5441 223.9047,-108.7868 225.1646,-101.9011"/>
</g>
<!-- Node53199 -->
<g id="node22" class="node">
<title>Node53199</title>
<g id="a_node22"><a xlink:href="quickjs-libc_8c.html#af31f002f20b3b7e983dd4efabd18d65e" target="_top" xlink:title="js_std_file_getline">
<polygon fill="none" stroke="#000000" points="274.5,-76.5 274.5,-95.5 378.5,-95.5 378.5,-76.5 274.5,-76.5"/>
<text text-anchor="middle" x="326.5" y="-83.5" font-family="Helvetica,sans-Serif" font-size="10.00" fill="#000000">js_std_file_getline</text>
</a>
</g>
</g>
<!-- Node53198&#45;&gt;Node53199 -->
<g id="edge25" class="edge">
<title>Node53198&#45;&gt;Node53199</title>
<path fill="none" stroke="#191970" d="M225.0421,-91.761C241.121,-90.848 258.5267,-89.8597 274.3061,-88.9637"/>
<polygon fill="#191970" stroke="#191970" points="224.4834,-88.287 214.698,-92.3484 224.8803,-95.2758 224.4834,-88.287"/>
</g>
<!-- Node53035 -->
<g id="node23" class="node">
<title>Node53035</title>
<g id="a_node23"><a xlink:href="quickjs-libc_8c.html#ae8abf0c32bf9b0acd85adffaf8345dfe" target="_top" xlink:title="js_std_file_readAsString">
<polygon fill="none" stroke="#000000" points="260,-38.5 260,-57.5 393,-57.5 393,-38.5 260,-38.5"/>
<text text-anchor="middle" x="326.5" y="-45.5" font-family="Helvetica,sans-Serif" font-size="10.00" fill="#000000">js_std_file_readAsString</text>
</a>
</g>
</g>
<!-- Node53198&#45;&gt;Node53035 -->
<g id="edge26" class="edge">
<title>Node53198&#45;&gt;Node53035</title>
<path fill="none" stroke="#191970" d="M208.6371,-82.4684C224.6272,-77.5803 243.1585,-71.9684 260,-67 270.5951,-63.8744 282.1635,-60.5414 292.6373,-57.5538"/>
<polygon fill="#191970" stroke="#191970" points="207.5834,-79.1306 199.0471,-85.4062 209.6337,-85.8235 207.5834,-79.1306"/>
</g>
<!-- Node52762 -->
<g id="node24" class="node">
<title>Node52762</title>
<g id="a_node24"><a xlink:href="quickjs-libc_8c.html#a7aebce2172c6aa4a6645aef600a69e6b" target="_top" xlink:title="js_std_urlGet">
<polygon fill="none" stroke="#000000" points="286.5,-.5 286.5,-19.5 366.5,-19.5 366.5,-.5 286.5,-.5"/>
<text text-anchor="middle" x="326.5" y="-7.5" font-family="Helvetica,sans-Serif" font-size="10.00" fill="#000000">js_std_urlGet</text>
</a>
</g>
</g>
<!-- Node53198&#45;&gt;Node52762 -->
<g id="edge27" class="edge">
<title>Node53198&#45;&gt;Node52762</title>
<path fill="none" stroke="#191970" d="M215.4616,-81.2139C218.4529,-79.6474 221.3302,-77.9146 224,-76 245.3825,-60.666 238.2497,-43.8078 260,-29 267.841,-23.6618 277.1754,-19.8089 286.3348,-17.0329"/>
<polygon fill="#191970" stroke="#191970" points="213.8787,-78.0891 206.2395,-85.4304 216.7894,-84.4553 213.8787,-78.0891"/>
</g>
</g>
</svg>
        <g id="navigator" transform="translate(0 0)" fill="#404254">
                <rect fill="#f2f5e9" fill-opacity="0.5" stroke="#606060" stroke-width=".5" x="0" y="0" width="60" height="60"/>
                <use id="zoomplus" xlink:href="#zoomPlus" x="17" y="9" onmousedown="handleZoom(evt,'in')"/>
                <use id="zoomminus" xlink:href="#zoomMin" x="42" y="9" onmousedown="handleZoom(evt,'out')"/>
                <use id="reset" xlink:href="#resetDef" x="30" y="36" onmousedown="handleReset()"/>
                <g id="arrowUp" xlink:href="#dirArrow" transform="translate(30 24)" onmousedown="handlePan(0,-1)">
                  <use xlink:href="#rim" fill="#404040">
                        <set attributeName="fill" to="#808080" begin="arrowUp.mouseover" end="arrowUp.mouseout"/>
                  </use>
                  <path fill="none" stroke="white" stroke-width="1.5" d="M0,-3.0v7 M-2.5,-0.5L0,-3.0L2.5,-0.5"/>
                </g>
                <g id="arrowRight" xlink:href="#dirArrow" transform="rotate(90) translate(36 -43)" onmousedown="handlePan(1,0)">
                  <use xlink:href="#rim" fill="#404040">
                        <set attributeName="fill" to="#808080" begin="arrowRight.mouseover" end="arrowRight.mouseout"/>
                  </use>
                  <path fill="none" stroke="white" stroke-width="1.5" d="M0,-3.0v7 M-2.5,-0.5L0,-3.0L2.5,-0.5"/>
                </g>
                <g id="arrowDown" xlink:href="#dirArrow" transform="rotate(180) translate(-30 -48)" onmousedown="handlePan(0,1)">
                  <use xlink:href="#rim" fill="#404040">
                        <set attributeName="fill" to="#808080" begin="arrowDown.mouseover" end="arrowDown.mouseout"/>
                  </use>
                  <path fill="none" stroke="white" stroke-width="1.5" d="M0,-3.0v7 M-2.5,-0.5L0,-3.0L2.5,-0.5"/>
                </g>
                <g id="arrowLeft" xlink:href="#dirArrow" transform="rotate(270) translate(-36 17)" onmousedown="handlePan(-1,0)">
                  <use xlink:href="#rim" fill="#404040">
                        <set attributeName="fill" to="#808080" begin="arrowLeft.mouseover" end="arrowLeft.mouseout"/>
                  </use>
                  <path fill="none" stroke="white" stroke-width="1.5" d="M0,-3.0v7 M-2.5,-0.5L0,-3.0L2.5,-0.5"/>
                </g>
        </g>
        <svg viewBox="0 0 15 15" width="100%" height="30px" preserveAspectRatio="xMaxYMin meet">
         <g id="arrow_out" transform="scale(0.3 0.3)">
          <a xlink:href="quickjs_8c_aa548c4ad5eacef7d9508100cfe6f6871_icgraph_org.svg" target="_base">
           <rect id="button" ry="5" rx="5" y="6" x="6" height="38" width="38"
                fill="#f2f5e9" fill-opacity="0.5" stroke="#606060" stroke-width="1.0"/>
           <path id="arrow"
             d="M 11.500037,31.436501 C 11.940474,20.09759 22.043105,11.32322 32.158766,21.979434 L 37.068811,17.246167 C 37.068811,17.246167 37.088388,32 37.088388,32 L 22.160133,31.978069 C 22.160133,31.978069 26.997745,27.140456 26.997745,27.140456 C 18.528582,18.264221 13.291696,25.230495 11.500037,31.436501 z"
             style="fill:#404040;"/>
          </a>
         </g>
        </svg>
</svg>
