<?xml version="1.0" encoding="UTF-8" standalone="no"?>
<!DOCTYPE svg PUBLIC "-//W3C//DTD SVG 1.1//EN"
 "http://www.w3.org/Graphics/SVG/1.1/DTD/svg11.dtd">
<!-- Generated by graphviz version 2.40.1 (20161225.0304)
 -->
<!-- Title: JS_ToInt64Clamp Pages: 1 -->
<svg width="661pt" height="85pt"
 viewBox="0.00 0.00 661.00 85.00" xmlns="http://www.w3.org/2000/svg" xmlns:xlink="http://www.w3.org/1999/xlink">
<g id="graph0" class="graph" transform="scale(1 1) rotate(0) translate(4 81)">
<title>JS_ToInt64Clamp</title>
<!-- Node244108 -->
<g id="node1" class="node">
<title>Node244108</title>
<polygon fill="#bfbfbf" stroke="#000000" points="0,-38.5 0,-57.5 98,-57.5 98,-38.5 0,-38.5"/>
<text text-anchor="middle" x="49" y="-45.5" font-family="Helvetica,sans-Serif" font-size="10.00" fill="#000000">JS_ToInt64Clamp</text>
</g>
<!-- Node244109 -->
<g id="node2" class="node">
<title>Node244109</title>
<g id="a_node2"><a xlink:href="quickjs_8h.html#a775522f2d084fc8fa0fcb33f390006b4" target="_top" xlink:title="JS_DupValue">
<polygon fill="none" stroke="#000000" points="146.5,-57.5 146.5,-76.5 223.5,-76.5 223.5,-57.5 146.5,-57.5"/>
<text text-anchor="middle" x="185" y="-64.5" font-family="Helvetica,sans-Serif" font-size="10.00" fill="#000000">JS_DupValue</text>
</a>
</g>
</g>
<!-- Node244108&#45;&gt;Node244109 -->
<g id="edge1" class="edge">
<title>Node244108&#45;&gt;Node244109</title>
<path fill="none" stroke="#191970" d="M98.0991,-54.8594C110.4629,-56.5867 123.7323,-58.4405 136.087,-60.1666"/>
<polygon fill="#191970" stroke="#191970" points="135.8217,-63.6634 146.2099,-61.5808 136.7903,-56.7307 135.8217,-63.6634"/>
</g>
<!-- Node244110 -->
<g id="node3" class="node">
<title>Node244110</title>
<g id="a_node3"><a xlink:href="quickjs_8c.html#a8c94da482e7e46bf333be67ff97e58c1" target="_top" xlink:title="JS_ToInt64SatFree">
<polygon fill="none" stroke="#000000" points="134,-19.5 134,-38.5 236,-38.5 236,-19.5 134,-19.5"/>
<text text-anchor="middle" x="185" y="-26.5" font-family="Helvetica,sans-Serif" font-size="10.00" fill="#000000">JS_ToInt64SatFree</text>
</a>
</g>
</g>
<!-- Node244108&#45;&gt;Node244110 -->
<g id="edge2" class="edge">
<title>Node244108&#45;&gt;Node244110</title>
<path fill="none" stroke="#191970" d="M98.0991,-41.1406C106.4114,-39.9793 115.133,-38.7608 123.7108,-37.5625"/>
<polygon fill="#191970" stroke="#191970" points="124.2616,-41.0196 133.6811,-36.1695 123.293,-34.0869 124.2616,-41.0196"/>
</g>
<!-- Node244111 -->
<g id="node4" class="node">
<title>Node244111</title>
<g id="a_node4"><a xlink:href="quickjs_8h.html#ad80a83d73e9b7d872b88fbf2943aebe9" target="_top" xlink:title="JS_IsException">
<polygon fill="none" stroke="#000000" points="566,-19.5 566,-38.5 653,-38.5 653,-19.5 566,-19.5"/>
<text text-anchor="middle" x="609.5" y="-26.5" font-family="Helvetica,sans-Serif" font-size="10.00" fill="#000000">JS_IsException</text>
</a>
</g>
</g>
<!-- Node244110&#45;&gt;Node244111 -->
<g id="edge3" class="edge">
<title>Node244110&#45;&gt;Node244111</title>
<path fill="none" stroke="#191970" d="M236.2046,-29C316.9866,-29 473.2716,-29 555.6613,-29"/>
<polygon fill="#191970" stroke="#191970" points="555.8155,-32.5001 565.8155,-29 555.8155,-25.5001 555.8155,-32.5001"/>
</g>
<!-- Node244112 -->
<g id="node5" class="node">
<title>Node244112</title>
<g id="a_node5"><a xlink:href="quickjs_8c.html#ae738291483438efefca5c9fa4d269504" target="_top" xlink:title="JS_ToNumberFree">
<polygon fill="none" stroke="#000000" points="272,-.5 272,-19.5 373,-19.5 373,-.5 272,-.5"/>
<text text-anchor="middle" x="322.5" y="-7.5" font-family="Helvetica,sans-Serif" font-size="10.00" fill="#000000">JS_ToNumberFree</text>
</a>
</g>
</g>
<!-- Node244110&#45;&gt;Node244112 -->
<g id="edge4" class="edge">
<title>Node244110&#45;&gt;Node244112</title>
<path fill="none" stroke="#191970" d="M236.1999,-21.9251C244.5416,-20.7724 253.2527,-19.5687 261.7957,-18.3882"/>
<polygon fill="#191970" stroke="#191970" points="262.2884,-21.8535 271.7151,-17.0175 261.3301,-14.9194 262.2884,-21.8535"/>
</g>
<!-- Node244113 -->
<g id="node6" class="node">
<title>Node244113</title>
<g id="a_node6"><a xlink:href="quickjs_8c.html#a0315f23b9804563f376c47edef2967fd" target="_top" xlink:title="JS_ToNumberHintFree">
<polygon fill="none" stroke="#ff0000" points="409,-.5 409,-19.5 530,-19.5 530,-.5 409,-.5"/>
<text text-anchor="middle" x="469.5" y="-7.5" font-family="Helvetica,sans-Serif" font-size="10.00" fill="#000000">JS_ToNumberHintFree</text>
</a>
</g>
</g>
<!-- Node244112&#45;&gt;Node244113 -->
<g id="edge5" class="edge">
<title>Node244112&#45;&gt;Node244113</title>
<path fill="none" stroke="#191970" d="M373.0891,-10C381.3863,-10 390.1164,-10 398.7945,-10"/>
<polygon fill="#191970" stroke="#191970" points="398.9288,-13.5001 408.9288,-10 398.9288,-6.5001 398.9288,-13.5001"/>
</g>
<!-- Node244113&#45;&gt;Node244111 -->
<g id="edge6" class="edge">
<title>Node244113&#45;&gt;Node244111</title>
<path fill="none" stroke="#191970" d="M530.0918,-18.2232C538.603,-19.3783 547.3031,-20.559 555.6766,-21.6954"/>
<polygon fill="#191970" stroke="#191970" points="555.3138,-25.1782 565.6936,-23.0549 556.2552,-18.2417 555.3138,-25.1782"/>
</g>
</g>
</svg>
