<?xml version="1.0" encoding="UTF-8" standalone="no"?>
<!DOCTYPE svg PUBLIC "-//W3C//DTD SVG 1.1//EN"
 "http://www.w3.org/Graphics/SVG/1.1/DTD/svg11.dtd">
<!-- Generated by graphviz version 2.40.1 (20161225.0304)
 -->
<!-- Title: js_string_fromCodePoint Pages: 1 -->
<svg width="580pt" height="199pt"
 viewBox="0.00 0.00 580.00 199.00" xmlns="http://www.w3.org/2000/svg" xmlns:xlink="http://www.w3.org/1999/xlink">
<g id="graph0" class="graph" transform="scale(1 1) rotate(0) translate(4 195)">
<title>js_string_fromCodePoint</title>
<!-- Node414731 -->
<g id="node1" class="node">
<title>Node414731</title>
<polygon fill="#bfbfbf" stroke="#000000" points="0,-76.5 0,-95.5 136,-95.5 136,-76.5 0,-76.5"/>
<text text-anchor="middle" x="68" y="-83.5" font-family="Helvetica,sans-Serif" font-size="10.00" fill="#000000">js_string_fromCodePoint</text>
</g>
<!-- Node414732 -->
<g id="node2" class="node">
<title>Node414732</title>
<g id="a_node2"><a xlink:href="quickjs_8c.html#a8cc9386cd04cfa067d0c6bf588c6bb58" target="_top" xlink:title="JS_ToFloat64">
<polygon fill="none" stroke="#000000" points="185.5,-152.5 185.5,-171.5 262.5,-171.5 262.5,-152.5 185.5,-152.5"/>
<text text-anchor="middle" x="224" y="-159.5" font-family="Helvetica,sans-Serif" font-size="10.00" fill="#000000">JS_ToFloat64</text>
</a>
</g>
</g>
<!-- Node414731&#45;&gt;Node414732 -->
<g id="edge1" class="edge">
<title>Node414731&#45;&gt;Node414732</title>
<path fill="none" stroke="#191970" d="M83.8265,-95.6584C103.8878,-107.669 139.7487,-128.371 172,-143 176.4176,-145.0038 181.1144,-146.956 185.8087,-148.799"/>
<polygon fill="#191970" stroke="#191970" points="184.7588,-152.1439 195.3503,-152.4103 187.2367,-145.5971 184.7588,-152.1439"/>
</g>
<!-- Node414801 -->
<g id="node6" class="node">
<title>Node414801</title>
<g id="a_node6"><a xlink:href="quickjs_8c.html#accfc3d1dcaa88c88402cb245ccaf4fdb" target="_top" xlink:title="string_buffer_end">
<polygon fill="none" stroke="#ff0000" points="173.5,-114.5 173.5,-133.5 274.5,-133.5 274.5,-114.5 173.5,-114.5"/>
<text text-anchor="middle" x="224" y="-121.5" font-family="Helvetica,sans-Serif" font-size="10.00" fill="#000000">string_buffer_end</text>
</a>
</g>
</g>
<!-- Node414731&#45;&gt;Node414801 -->
<g id="edge5" class="edge">
<title>Node414731&#45;&gt;Node414801</title>
<path fill="none" stroke="#191970" d="M107.3654,-95.589C127.9513,-100.6035 153.3405,-106.7881 175.169,-112.1053"/>
<polygon fill="#191970" stroke="#191970" points="174.3734,-115.5137 184.9177,-114.4799 176.0302,-108.7126 174.3734,-115.5137"/>
</g>
<!-- Node414802 -->
<g id="node7" class="node">
<title>Node414802</title>
<g id="a_node7"><a xlink:href="quickjs_8c.html#a266b4993a59d9e34537386e62b9f3d4f" target="_top" xlink:title="string_buffer_free">
<polygon fill="none" stroke="#ff0000" points="172.5,-76.5 172.5,-95.5 275.5,-95.5 275.5,-76.5 172.5,-76.5"/>
<text text-anchor="middle" x="224" y="-83.5" font-family="Helvetica,sans-Serif" font-size="10.00" fill="#000000">string_buffer_free</text>
</a>
</g>
</g>
<!-- Node414731&#45;&gt;Node414802 -->
<g id="edge6" class="edge">
<title>Node414731&#45;&gt;Node414802</title>
<path fill="none" stroke="#191970" d="M136.4239,-86C144.9213,-86 153.5726,-86 161.9663,-86"/>
<polygon fill="#191970" stroke="#191970" points="162.0492,-89.5001 172.0492,-86 162.0491,-82.5001 162.0492,-89.5001"/>
</g>
<!-- Node414803 -->
<g id="node8" class="node">
<title>Node414803</title>
<g id="a_node8"><a xlink:href="quickjs_8c.html#a9c11961b0adafedd064b294612d0c2f3" target="_top" xlink:title="string_buffer_init">
<polygon fill="none" stroke="#ff0000" points="174.5,-38.5 174.5,-57.5 273.5,-57.5 273.5,-38.5 174.5,-38.5"/>
<text text-anchor="middle" x="224" y="-45.5" font-family="Helvetica,sans-Serif" font-size="10.00" fill="#000000">string_buffer_init</text>
</a>
</g>
</g>
<!-- Node414731&#45;&gt;Node414803 -->
<g id="edge7" class="edge">
<title>Node414731&#45;&gt;Node414803</title>
<path fill="none" stroke="#191970" d="M107.3654,-76.411C127.9513,-71.3965 153.3405,-65.2119 175.169,-59.8947"/>
<polygon fill="#191970" stroke="#191970" points="176.0302,-63.2874 184.9177,-57.5201 174.3734,-56.4863 176.0302,-63.2874"/>
</g>
<!-- Node415166 -->
<g id="node9" class="node">
<title>Node415166</title>
<g id="a_node9"><a xlink:href="quickjs_8c.html#a8d79794c85d33dd8409cdb39f2c2fc74" target="_top" xlink:title="string_buffer_putc">
<polygon fill="none" stroke="#000000" points="172,-.5 172,-19.5 276,-19.5 276,-.5 172,-.5"/>
<text text-anchor="middle" x="224" y="-7.5" font-family="Helvetica,sans-Serif" font-size="10.00" fill="#000000">string_buffer_putc</text>
</a>
</g>
</g>
<!-- Node414731&#45;&gt;Node415166 -->
<g id="edge8" class="edge">
<title>Node414731&#45;&gt;Node415166</title>
<path fill="none" stroke="#191970" d="M83.8265,-76.3416C103.8878,-64.331 139.7487,-43.629 172,-29 176.4176,-26.9962 181.1144,-25.044 185.8087,-23.201"/>
<polygon fill="#191970" stroke="#191970" points="187.2367,-26.4029 195.3503,-19.5897 184.7588,-19.8561 187.2367,-26.4029"/>
</g>
<!-- Node414733 -->
<g id="node3" class="node">
<title>Node414733</title>
<g id="a_node3"><a xlink:href="quickjs_8h.html#a775522f2d084fc8fa0fcb33f390006b4" target="_top" xlink:title="JS_DupValue">
<polygon fill="none" stroke="#000000" points="331.5,-171.5 331.5,-190.5 408.5,-190.5 408.5,-171.5 331.5,-171.5"/>
<text text-anchor="middle" x="370" y="-178.5" font-family="Helvetica,sans-Serif" font-size="10.00" fill="#000000">JS_DupValue</text>
</a>
</g>
</g>
<!-- Node414732&#45;&gt;Node414733 -->
<g id="edge2" class="edge">
<title>Node414732&#45;&gt;Node414733</title>
<path fill="none" stroke="#191970" d="M262.742,-167.0418C280.7159,-169.3808 302.2732,-172.1862 321.332,-174.6665"/>
<polygon fill="#191970" stroke="#191970" points="320.9624,-178.1478 331.3305,-175.9677 321.8658,-171.2064 320.9624,-178.1478"/>
</g>
<!-- Node414734 -->
<g id="node4" class="node">
<title>Node414734</title>
<g id="a_node4"><a xlink:href="quickjs_8c.html#ab1b614ef35f1cea05da0ad4927c53118" target="_top" xlink:title="JS_ToFloat64Free">
<polygon fill="none" stroke="#000000" points="321,-133.5 321,-152.5 419,-152.5 419,-133.5 321,-133.5"/>
<text text-anchor="middle" x="370" y="-140.5" font-family="Helvetica,sans-Serif" font-size="10.00" fill="#000000">JS_ToFloat64Free</text>
</a>
</g>
</g>
<!-- Node414732&#45;&gt;Node414734 -->
<g id="edge3" class="edge">
<title>Node414732&#45;&gt;Node414734</title>
<path fill="none" stroke="#191970" d="M262.742,-156.9582C277.5034,-155.0372 294.6817,-152.8017 310.908,-150.6901"/>
<polygon fill="#191970" stroke="#191970" points="311.3934,-154.1565 320.858,-149.3952 310.4899,-147.215 311.3934,-154.1565"/>
</g>
<!-- Node414735 -->
<g id="node5" class="node">
<title>Node414735</title>
<g id="a_node5"><a xlink:href="quickjs_8c.html#a9a2e141f21d9ea38a3a23c9b4eb6e356" target="_top" xlink:title="__JS_ToFloat64Free">
<polygon fill="none" stroke="#ff0000" points="464,-133.5 464,-152.5 572,-152.5 572,-133.5 464,-133.5"/>
<text text-anchor="middle" x="518" y="-140.5" font-family="Helvetica,sans-Serif" font-size="10.00" fill="#000000">__JS_ToFloat64Free</text>
</a>
</g>
</g>
<!-- Node414734&#45;&gt;Node414735 -->
<g id="edge4" class="edge">
<title>Node414734&#45;&gt;Node414735</title>
<path fill="none" stroke="#191970" d="M419.2819,-143C430.3382,-143 442.2262,-143 453.7896,-143"/>
<polygon fill="#191970" stroke="#191970" points="453.8388,-146.5001 463.8388,-143 453.8388,-139.5001 453.8388,-146.5001"/>
</g>
<!-- Node414805 -->
<g id="node10" class="node">
<title>Node414805</title>
<g id="a_node10"><a xlink:href="quickjs_8c.html#a9b8fb6b5ce638616691f7bf7881fa57d" target="_top" xlink:title="string_buffer_putc16">
<polygon fill="none" stroke="#ff0000" points="312,-.5 312,-19.5 428,-19.5 428,-.5 312,-.5"/>
<text text-anchor="middle" x="370" y="-7.5" font-family="Helvetica,sans-Serif" font-size="10.00" fill="#000000">string_buffer_putc16</text>
</a>
</g>
</g>
<!-- Node415166&#45;&gt;Node414805 -->
<g id="edge9" class="edge">
<title>Node415166&#45;&gt;Node414805</title>
<path fill="none" stroke="#191970" d="M276.297,-10C284.5892,-10 293.2699,-10 301.8605,-10"/>
<polygon fill="#191970" stroke="#191970" points="301.875,-13.5001 311.875,-10 301.8749,-6.5001 301.875,-13.5001"/>
</g>
</g>
</svg>
