<?xml version="1.0" encoding="UTF-8" standalone="no"?>
<!DOCTYPE svg PUBLIC "-//W3C//DTD SVG 1.1//EN"
 "http://www.w3.org/Graphics/SVG/1.1/DTD/svg11.dtd">
<!-- Generated by graphviz version 2.40.1 (20161225.0304)
 -->
<!-- Title: JS_GetPropertyStr Pages: 1 -->
<svg width="907pt" height="379pt"
 viewBox="0.00 0.00 907.00 379.00" xmlns="http://www.w3.org/2000/svg" xmlns:xlink="http://www.w3.org/1999/xlink">
<g id="graph0" class="graph" transform="scale(1 1) rotate(0) translate(4 375)">
<title>JS_GetPropertyStr</title>
<!-- Node58854 -->
<g id="node1" class="node">
<title>Node58854</title>
<polygon fill="#bfbfbf" stroke="#000000" points="0,-158.5 0,-177.5 103,-177.5 103,-158.5 0,-158.5"/>
<text text-anchor="middle" x="51.5" y="-165.5" font-family="Helvetica,sans-Serif" font-size="10.00" fill="#000000">JS_GetPropertyStr</text>
</g>
<!-- Node58855 -->
<g id="node2" class="node">
<title>Node58855</title>
<g id="a_node2"><a xlink:href="quickjs-libc_8c.html#ad94572b16428965bd7780a285c188c77" target="_top" xlink:title="get_bool_option">
<polygon fill="none" stroke="#000000" points="152.5,-313.5 152.5,-332.5 247.5,-332.5 247.5,-313.5 152.5,-313.5"/>
<text text-anchor="middle" x="200" y="-320.5" font-family="Helvetica,sans-Serif" font-size="10.00" fill="#000000">get_bool_option</text>
</a>
</g>
</g>
<!-- Node58854&#45;&gt;Node58855 -->
<g id="edge1" class="edge">
<title>Node58854&#45;&gt;Node58855</title>
<path fill="none" stroke="#191970" d="M59.5584,-186.8245C72.4648,-214.9119 100.3108,-267.8173 139,-299 146.6202,-305.1418 156.0047,-309.8655 165.1081,-313.4309"/>
<polygon fill="#191970" stroke="#191970" points="62.7536,-185.3957 55.487,-177.6855 56.3594,-188.2444 62.7536,-185.3957"/>
</g>
<!-- Node58857 -->
<g id="node4" class="node">
<title>Node58857</title>
<g id="a_node4"><a xlink:href="quickjs-libc_8c.html#a0b92fee4bb5dda499a0b6d86da0e8be8" target="_top" xlink:title="js_os_exec">
<polygon fill="none" stroke="#000000" points="331,-275.5 331,-294.5 401,-294.5 401,-275.5 331,-275.5"/>
<text text-anchor="middle" x="366" y="-282.5" font-family="Helvetica,sans-Serif" font-size="10.00" fill="#000000">js_os_exec</text>
</a>
</g>
</g>
<!-- Node58854&#45;&gt;Node58857 -->
<g id="edge7" class="edge">
<title>Node58854&#45;&gt;Node58857</title>
<path fill="none" stroke="#191970" d="M61.933,-186.5698C76.0648,-209.7122 103.6394,-248.3605 139,-266 200.9302,-296.8936 284.2674,-294.4286 330.8042,-289.7758"/>
<polygon fill="#191970" stroke="#191970" points="64.8052,-184.5496 56.716,-177.7074 58.7728,-188.1007 64.8052,-184.5496"/>
</g>
<!-- Node58859 -->
<g id="node6" class="node">
<title>Node58859</title>
<g id="a_node6"><a xlink:href="structqjs_1_1js__property__traits_3_01const_01char_01_5_01_4.html#a0a01071b0c80a16dbd7d0fa538534116" target="_top" xlink:title="qjs::js_property_traits\l\&lt; const char * \&gt;::get\l_property">
<polygon fill="none" stroke="#000000" points="139,-215.5 139,-256.5 261,-256.5 261,-215.5 139,-215.5"/>
<text text-anchor="start" x="147" y="-244.5" font-family="Helvetica,sans-Serif" font-size="10.00" fill="#000000">qjs::js_property_traits</text>
<text text-anchor="start" x="147" y="-233.5" font-family="Helvetica,sans-Serif" font-size="10.00" fill="#000000">&lt; const char * &gt;::get</text>
<text text-anchor="middle" x="200" y="-222.5" font-family="Helvetica,sans-Serif" font-size="10.00" fill="#000000">_property</text>
</a>
</g>
</g>
<!-- Node58854&#45;&gt;Node58859 -->
<g id="edge5" class="edge">
<title>Node58854&#45;&gt;Node58859</title>
<path fill="none" stroke="#191970" d="M81.58,-181.774C102.6653,-191.4292 131.2171,-204.5034 155.0019,-215.3948"/>
<polygon fill="#191970" stroke="#191970" points="83.0108,-178.5797 72.4615,-177.5985 80.0964,-184.9442 83.0108,-178.5797"/>
</g>
<!-- Node58860 -->
<g id="node7" class="node">
<title>Node58860</title>
<g id="a_node7"><a xlink:href="quickjs_8c.html#a6afb985e2e6663773d15dc05b286922a" target="_top" xlink:title="js_date_toJSON">
<polygon fill="none" stroke="#000000" points="154.5,-177.5 154.5,-196.5 245.5,-196.5 245.5,-177.5 154.5,-177.5"/>
<text text-anchor="middle" x="200" y="-184.5" font-family="Helvetica,sans-Serif" font-size="10.00" fill="#000000">js_date_toJSON</text>
</a>
</g>
</g>
<!-- Node58854&#45;&gt;Node58860 -->
<g id="edge6" class="edge">
<title>Node58854&#45;&gt;Node58860</title>
<path fill="none" stroke="#191970" d="M113.3044,-175.9076C126.9397,-177.6522 141.1515,-179.4706 154.0291,-181.1182"/>
<polygon fill="#191970" stroke="#191970" points="113.3847,-172.3895 103.0213,-174.592 112.4963,-179.3329 113.3847,-172.3895"/>
</g>
<!-- Node58861 -->
<g id="node8" class="node">
<title>Node58861</title>
<g id="a_node8"><a xlink:href="quickjs_8c.html#a85bd252225e0864923cb62c583892de7" target="_top" xlink:title="js_regexp_get_flags">
<polygon fill="none" stroke="#000000" points="143.5,-139.5 143.5,-158.5 256.5,-158.5 256.5,-139.5 143.5,-139.5"/>
<text text-anchor="middle" x="200" y="-146.5" font-family="Helvetica,sans-Serif" font-size="10.00" fill="#000000">js_regexp_get_flags</text>
</a>
</g>
</g>
<!-- Node58854&#45;&gt;Node58861 -->
<g id="edge8" class="edge">
<title>Node58854&#45;&gt;Node58861</title>
<path fill="none" stroke="#191970" d="M112.9885,-160.1328C123.0929,-158.84 133.5223,-157.5056 143.4978,-156.2292"/>
<polygon fill="#191970" stroke="#191970" points="112.4963,-156.6671 103.0213,-161.408 113.3847,-163.6105 112.4963,-156.6671"/>
</g>
<!-- Node58862 -->
<g id="node9" class="node">
<title>Node58862</title>
<g id="a_node9"><a xlink:href="quickjs-libc_8c.html#a410cd5dce0fb0e6a978ed313963f3962" target="_top" xlink:title="js_std_dump_error1">
<polygon fill="none" stroke="#000000" points="143.5,-101.5 143.5,-120.5 256.5,-120.5 256.5,-101.5 143.5,-101.5"/>
<text text-anchor="middle" x="200" y="-108.5" font-family="Helvetica,sans-Serif" font-size="10.00" fill="#000000">js_std_dump_error1</text>
</a>
</g>
</g>
<!-- Node58854&#45;&gt;Node58862 -->
<g id="edge9" class="edge">
<title>Node58854&#45;&gt;Node58862</title>
<path fill="none" stroke="#191970" d="M81.0524,-154.2196C97.8598,-146.6222 119.4043,-137.2827 139,-130 148.0456,-126.6382 157.9882,-123.367 167.1733,-120.5131"/>
<polygon fill="#191970" stroke="#191970" points="79.3987,-151.127 71.7543,-158.4628 82.3049,-157.4952 79.3987,-151.127"/>
</g>
<!-- Node58874 -->
<g id="node18" class="node">
<title>Node58874</title>
<g id="a_node18"><a xlink:href="quickjs-libc_8c.html#a8129754877bdfb4d22f64dae5ba8e778" target="_top" xlink:title="js_worker_ctor_internal">
<polygon fill="none" stroke="#000000" points="644,-60.5 644,-79.5 775,-79.5 775,-60.5 644,-60.5"/>
<text text-anchor="middle" x="709.5" y="-67.5" font-family="Helvetica,sans-Serif" font-size="10.00" fill="#000000">js_worker_ctor_internal</text>
</a>
</g>
</g>
<!-- Node58854&#45;&gt;Node58874 -->
<g id="edge19" class="edge">
<title>Node58854&#45;&gt;Node58874</title>
<path fill="none" stroke="#191970" d="M65.5979,-150.0712C81.2758,-131.6755 108.4515,-104.0904 139,-92 316.6443,-21.6925 550.1995,-44.7863 654.7645,-60.4898"/>
<polygon fill="#191970" stroke="#191970" points="62.514,-148.3104 58.8606,-158.2555 67.9184,-152.7593 62.514,-148.3104"/>
</g>
<!-- Node58875 -->
<g id="node19" class="node">
<title>Node58875</title>
<g id="a_node19"><a xlink:href="structqjs_1_1js__traits_3_01ctor__wrapper_3_01T_00_01Args_8_8_8_01_4_01_4.html#ac3e4ebb181720971396c1bf6008a997b" target="_top" xlink:title="qjs::js_traits\&lt; ctor\l_wrapper\&lt; T, Args...\l \&gt; \&gt;::wrap">
<polygon fill="none" stroke="#000000" points="142,-.5 142,-41.5 258,-41.5 258,-.5 142,-.5"/>
<text text-anchor="start" x="150" y="-29.5" font-family="Helvetica,sans-Serif" font-size="10.00" fill="#000000">qjs::js_traits&lt; ctor</text>
<text text-anchor="start" x="150" y="-18.5" font-family="Helvetica,sans-Serif" font-size="10.00" fill="#000000">_wrapper&lt; T, Args...</text>
<text text-anchor="middle" x="200" y="-7.5" font-family="Helvetica,sans-Serif" font-size="10.00" fill="#000000"> &gt; &gt;::wrap</text>
</a>
</g>
</g>
<!-- Node58854&#45;&gt;Node58875 -->
<g id="edge21" class="edge">
<title>Node58854&#45;&gt;Node58875</title>
<path fill="none" stroke="#191970" d="M62.69,-149.5542C77.7872,-125.7695 106.5551,-84.128 139,-56 144.9965,-50.8013 151.8805,-45.9862 158.8147,-41.695"/>
<polygon fill="#191970" stroke="#191970" points="59.5678,-147.947 57.2545,-158.2862 65.5105,-151.6463 59.5678,-147.947"/>
</g>
<!-- Node58856 -->
<g id="node3" class="node">
<title>Node58856</title>
<g id="a_node3"><a xlink:href="quickjs-libc_8c.html#a55f6cd4bbd0e676992642d066fd1d9fd" target="_top" xlink:title="js_evalScript">
<polygon fill="none" stroke="#000000" points="326.5,-351.5 326.5,-370.5 405.5,-370.5 405.5,-351.5 326.5,-351.5"/>
<text text-anchor="middle" x="366" y="-358.5" font-family="Helvetica,sans-Serif" font-size="10.00" fill="#000000">js_evalScript</text>
</a>
</g>
</g>
<!-- Node58855&#45;&gt;Node58856 -->
<g id="edge2" class="edge">
<title>Node58855&#45;&gt;Node58856</title>
<path fill="none" stroke="#191970" d="M251.9205,-334.8854C275.9767,-340.3923 304.1042,-346.8311 326.4102,-351.9373"/>
<polygon fill="#191970" stroke="#191970" points="252.4177,-331.4088 241.8888,-332.589 250.8556,-338.2323 252.4177,-331.4088"/>
</g>
<!-- Node58855&#45;&gt;Node58857 -->
<g id="edge3" class="edge">
<title>Node58855&#45;&gt;Node58857</title>
<path fill="none" stroke="#191970" d="M251.8489,-311.131C277.5496,-305.2477 307.9114,-298.2974 330.8591,-293.0443"/>
<polygon fill="#191970" stroke="#191970" points="250.8556,-307.7677 241.8888,-313.411 252.4177,-314.5912 250.8556,-307.7677"/>
</g>
<!-- Node58858 -->
<g id="node5" class="node">
<title>Node58858</title>
<g id="a_node5"><a xlink:href="quickjs-libc_8c.html#a7aebce2172c6aa4a6645aef600a69e6b" target="_top" xlink:title="js_std_urlGet">
<polygon fill="none" stroke="#000000" points="326,-313.5 326,-332.5 406,-332.5 406,-313.5 326,-313.5"/>
<text text-anchor="middle" x="366" y="-320.5" font-family="Helvetica,sans-Serif" font-size="10.00" fill="#000000">js_std_urlGet</text>
</a>
</g>
</g>
<!-- Node58855&#45;&gt;Node58858 -->
<g id="edge4" class="edge">
<title>Node58855&#45;&gt;Node58858</title>
<path fill="none" stroke="#191970" d="M257.6637,-323C280.1121,-323 305.2953,-323 325.7283,-323"/>
<polygon fill="#191970" stroke="#191970" points="257.569,-319.5001 247.5689,-323 257.5689,-326.5001 257.569,-319.5001"/>
</g>
<!-- Node58863 -->
<g id="node10" class="node">
<title>Node58863</title>
<g id="a_node10"><a xlink:href="quickjs-libc_8c.html#a82bb7888d024e97e430d98653e97a7bc" target="_top" xlink:title="js_std_dump_error">
<polygon fill="none" stroke="#000000" points="312.5,-161.5 312.5,-180.5 419.5,-180.5 419.5,-161.5 312.5,-161.5"/>
<text text-anchor="middle" x="366" y="-168.5" font-family="Helvetica,sans-Serif" font-size="10.00" fill="#000000">js_std_dump_error</text>
</a>
</g>
</g>
<!-- Node58862&#45;&gt;Node58863 -->
<g id="edge10" class="edge">
<title>Node58862&#45;&gt;Node58863</title>
<path fill="none" stroke="#191970" d="M241.9963,-123.6545C248.3869,-125.7031 254.8862,-127.8572 261,-130 289.4409,-139.9682 321.661,-152.7804 342.8213,-161.4076"/>
<polygon fill="#191970" stroke="#191970" points="242.704,-120.2079 232.1143,-120.5388 240.5991,-126.8839 242.704,-120.2079"/>
</g>
<!-- Node58873 -->
<g id="node17" class="node">
<title>Node58873</title>
<g id="a_node17"><a xlink:href="quickjs-libc_8c.html#aecbca056dde897142bf11bb90347c524" target="_top" xlink:title="js_std_promise_rejection\l_tracker">
<polygon fill="none" stroke="#000000" points="297,-99 297,-129 435,-129 435,-99 297,-99"/>
<text text-anchor="start" x="305" y="-117" font-family="Helvetica,sans-Serif" font-size="10.00" fill="#000000">js_std_promise_rejection</text>
<text text-anchor="middle" x="366" y="-106" font-family="Helvetica,sans-Serif" font-size="10.00" fill="#000000">_tracker</text>
</a>
</g>
</g>
<!-- Node58862&#45;&gt;Node58873 -->
<g id="edge18" class="edge">
<title>Node58862&#45;&gt;Node58873</title>
<path fill="none" stroke="#191970" d="M266.854,-112.2082C276.7678,-112.3874 287.0013,-112.5723 296.9588,-112.7523"/>
<polygon fill="#191970" stroke="#191970" points="266.7251,-108.7054 256.6635,-112.024 266.5986,-115.7043 266.7251,-108.7054"/>
</g>
<!-- Node58864 -->
<g id="node11" class="node">
<title>Node58864</title>
<g id="a_node11"><a xlink:href="quickjs-libc_8c.html#abb1cbe3fdf905e81f603a3a0bfce475a" target="_top" xlink:title="call_handler">
<polygon fill="none" stroke="#000000" points="501.5,-250.5 501.5,-269.5 577.5,-269.5 577.5,-250.5 501.5,-250.5"/>
<text text-anchor="middle" x="539.5" y="-257.5" font-family="Helvetica,sans-Serif" font-size="10.00" fill="#000000">call_handler</text>
</a>
</g>
</g>
<!-- Node58863&#45;&gt;Node58864 -->
<g id="edge11" class="edge">
<title>Node58863&#45;&gt;Node58864</title>
<path fill="none" stroke="#191970" d="M385.6692,-186.9104C405.9632,-202.6302 439.0707,-226.3841 471,-241 480.5383,-245.3662 491.2943,-248.9277 501.4079,-251.7374"/>
<polygon fill="#191970" stroke="#191970" points="387.5689,-183.9514 377.5468,-180.515 383.2385,-189.4512 387.5689,-183.9514"/>
</g>
<!-- Node58865 -->
<g id="node12" class="node">
<title>Node58865</title>
<g id="a_node12"><a xlink:href="quickjs-libc_8c.html#a9fa4c190ba56314c7ed9b00bbc7ad0f9" target="_top" xlink:title="handle_posted_message">
<polygon fill="none" stroke="#000000" points="471,-212.5 471,-231.5 608,-231.5 608,-212.5 471,-212.5"/>
<text text-anchor="middle" x="539.5" y="-219.5" font-family="Helvetica,sans-Serif" font-size="10.00" fill="#000000">handle_posted_message</text>
</a>
</g>
</g>
<!-- Node58863&#45;&gt;Node58865 -->
<g id="edge12" class="edge">
<title>Node58863&#45;&gt;Node58865</title>
<path fill="none" stroke="#191970" d="M406.4844,-183.5989C425.9561,-189.5917 449.653,-196.7877 471,-203 481.7833,-206.1381 493.5559,-209.446 504.2518,-212.4065"/>
<polygon fill="#191970" stroke="#191970" points="407.3094,-180.1906 396.7219,-180.5862 405.2452,-186.8794 407.3094,-180.1906"/>
</g>
<!-- Node58866 -->
<g id="node13" class="node">
<title>Node58866</title>
<g id="a_node13"><a xlink:href="quickjs-libc_8c.html#ab1b439d304c2125490b47ef262b5df67" target="_top" xlink:title="js_std_eval_binary">
<polygon fill="none" stroke="#000000" points="486,-174.5 486,-193.5 593,-193.5 593,-174.5 486,-174.5"/>
<text text-anchor="middle" x="539.5" y="-181.5" font-family="Helvetica,sans-Serif" font-size="10.00" fill="#000000">js_std_eval_binary</text>
</a>
</g>
</g>
<!-- Node58863&#45;&gt;Node58866 -->
<g id="edge13" class="edge">
<title>Node58863&#45;&gt;Node58866</title>
<path fill="none" stroke="#191970" d="M429.9812,-175.794C448.3587,-177.171 468.2033,-178.6579 485.8861,-179.9828"/>
<polygon fill="#191970" stroke="#191970" points="430.179,-172.2991 419.9454,-175.042 429.6559,-179.2795 430.179,-172.2991"/>
</g>
<!-- Node58867 -->
<g id="node14" class="node">
<title>Node58867</title>
<g id="a_node14"><a xlink:href="quickjs-libc_8c.html#af7480dad10e937004e36b2b409b084a4" target="_top" xlink:title="js_std_loop">
<polygon fill="none" stroke="#ff0000" points="504,-136.5 504,-155.5 575,-155.5 575,-136.5 504,-136.5"/>
<text text-anchor="middle" x="539.5" y="-143.5" font-family="Helvetica,sans-Serif" font-size="10.00" fill="#000000">js_std_loop</text>
</a>
</g>
</g>
<!-- Node58863&#45;&gt;Node58867 -->
<g id="edge14" class="edge">
<title>Node58863&#45;&gt;Node58867</title>
<path fill="none" stroke="#191970" d="M430.084,-161.766C455.0411,-158.1699 482.6898,-154.1859 503.9497,-151.1225"/>
<polygon fill="#191970" stroke="#191970" points="429.344,-158.3364 419.9454,-163.2269 430.3424,-165.2648 429.344,-158.3364"/>
</g>
<!-- Node58869 -->
<g id="node15" class="node">
<title>Node58869</title>
<g id="a_node15"><a xlink:href="quickjs-libc_8c.html#a1fbb3adc15e7b967479fc1940e99b67a" target="_top" xlink:title="worker_func">
<polygon fill="none" stroke="#000000" points="671,-98.5 671,-117.5 748,-117.5 748,-98.5 671,-98.5"/>
<text text-anchor="middle" x="709.5" y="-105.5" font-family="Helvetica,sans-Serif" font-size="10.00" fill="#000000">worker_func</text>
</a>
</g>
</g>
<!-- Node58863&#45;&gt;Node58869 -->
<g id="edge17" class="edge">
<title>Node58863&#45;&gt;Node58869</title>
<path fill="none" stroke="#191970" d="M395.9781,-157.1864C421.4888,-145.6659 456.2679,-130.5764 471,-127 540.0242,-110.2434 623.2508,-107.3951 670.909,-107.351"/>
<polygon fill="#191970" stroke="#191970" points="394.3717,-154.0718 386.7157,-161.3955 397.2678,-160.4447 394.3717,-154.0718"/>
</g>
<!-- Node58867&#45;&gt;Node58869 -->
<g id="edge15" class="edge">
<title>Node58867&#45;&gt;Node58869</title>
<path fill="none" stroke="#191970" d="M585.0583,-135.8164C611.8842,-129.82 645.4445,-122.3183 670.9509,-116.6169"/>
<polygon fill="#191970" stroke="#191970" points="584.1332,-132.4367 575.1376,-138.034 585.6603,-139.2681 584.1332,-132.4367"/>
</g>
<!-- Node58870 -->
<g id="node16" class="node">
<title>Node58870</title>
<g id="a_node16"><a xlink:href="quickjs-libc_8c.html#aff1e6131e8bf8b7eb25307623ad669e7" target="_top" xlink:title="js_worker_ctor">
<polygon fill="none" stroke="#ff0000" points="811,-79.5 811,-98.5 899,-98.5 899,-79.5 811,-79.5"/>
<text text-anchor="middle" x="855" y="-86.5" font-family="Helvetica,sans-Serif" font-size="10.00" fill="#000000">js_worker_ctor</text>
</a>
</g>
</g>
<!-- Node58869&#45;&gt;Node58870 -->
<g id="edge16" class="edge">
<title>Node58869&#45;&gt;Node58870</title>
<path fill="none" stroke="#191970" d="M758.3786,-101.6172C775.3371,-99.4027 794.2421,-96.934 810.8013,-94.7717"/>
<polygon fill="#191970" stroke="#191970" points="757.5719,-98.1928 748.1093,-102.9582 758.4784,-105.1338 757.5719,-98.1928"/>
</g>
<!-- Node58874&#45;&gt;Node58870 -->
<g id="edge20" class="edge">
<title>Node58874&#45;&gt;Node58870</title>
<path fill="none" stroke="#191970" d="M784.9467,-79.8522C793.7488,-81.0016 802.4981,-82.1441 810.6784,-83.2123"/>
<polygon fill="#191970" stroke="#191970" points="785.3831,-76.3795 775.0141,-78.5551 784.4767,-83.3206 785.3831,-76.3795"/>
</g>
</g>
</svg>
