<?xml version="1.0" encoding="UTF-8" standalone="no"?>
<!DOCTYPE svg PUBLIC "-//W3C//DTD SVG 1.1//EN"
 "http://www.w3.org/Graphics/SVG/1.1/DTD/svg11.dtd">
<!-- Generated by graphviz version 2.40.1 (20161225.0304)
 -->
<!-- Title: js_free_prop_enum Pages: 1 -->
<!--zoomable 94 -->
<svg id="main" version="1.1" xmlns="http://www.w3.org/2000/svg" xmlns:xlink="http://www.w3.org/1999/xlink" xml:space="preserve" onload="init(evt)">
<style type="text/css"><![CDATA[
.edge:hover path { stroke: red; }
.edge:hover polygon { stroke: red; fill: red; }
]]></style>
<script type="text/javascript"><![CDATA[
var edges = document.getElementsByTagName('g');
if (edges && edges.length) {
  for (var i=0;i<edges.length;i++) {
    if (edges[i].id.substr(0,4)=='edge') {
      edges[i].setAttribute('class','edge');
    }
  }
}
]]></script>
        <defs>
                <circle id="rim" cx="0" cy="0" r="7"/>
                <circle id="rim2" cx="0" cy="0" r="3.5"/>
                <g id="zoomPlus">
                        <use xlink:href="#rim" fill="#404040">
                                <set attributeName="fill" to="#808080" begin="zoomplus.mouseover" end="zoomplus.mouseout"/>
                        </use>
                        <path d="M-4,0h8M0,-4v8" fill="none" stroke="white" stroke-width="1.5" pointer-events="none"/>
                </g>
                <g id="zoomMin">
                        <use xlink:href="#rim" fill="#404040">
                                <set attributeName="fill" to="#808080" begin="zoomminus.mouseover" end="zoomminus.mouseout"/>
                        </use>
                        <path d="M-4,0h8" fill="none" stroke="white" stroke-width="1.5" pointer-events="none"/>
                </g>
                <g id="dirArrow">
                        <path fill="none" stroke="white" stroke-width="1.5" d="M0,-3.0v7 M-2.5,-0.5L0,-3.0L2.5,-0.5"/>
                </g>
               <g id="resetDef">
                       <use xlink:href="#rim2" fill="#404040">
                               <set attributeName="fill" to="#808080" begin="reset.mouseover" end="reset.mouseout"/>
                       </use>
               </g>
        </defs>

<script type="text/javascript">
var viewWidth = 611;
var viewHeight = 94;
var sectionId = 'dynsection-558';
</script>
<script xlink:href="svgpan.js"/>
<svg id="graph" class="graph">
<g id="viewport">
<title>js_free_prop_enum</title>
<!-- Node188899 -->
<g id="node1" class="node">
<title>Node188899</title>
<polygon fill="#bfbfbf" stroke="#000000" points="0,-57.5 0,-76.5 110,-76.5 110,-57.5 0,-57.5"/>
<text text-anchor="middle" x="55" y="-64.5" font-family="Helvetica,sans-Serif" font-size="10.00" fill="#000000">js_free_prop_enum</text>
</g>
<!-- Node188900 -->
<g id="node2" class="node">
<title>Node188900</title>
<g id="a_node2"><a xlink:href="quickjs_8c.html#a80e54dcf9ac687d4ccc2f90273565f30" target="_top" xlink:title="js_free">
<polygon fill="none" stroke="#000000" points="427,-66.5 427,-85.5 477,-85.5 477,-66.5 427,-66.5"/>
<text text-anchor="middle" x="452" y="-73.5" font-family="Helvetica,sans-Serif" font-size="10.00" fill="#000000">js_free</text>
</a>
</g>
</g>
<!-- Node188899&#45;&gt;Node188900 -->
<g id="edge1" class="edge">
<title>Node188899&#45;&gt;Node188900</title>
<path fill="none" stroke="#191970" d="M110.2011,-68.2514C192.916,-70.1266 346.7131,-73.6131 416.2365,-75.1892"/>
<polygon fill="#191970" stroke="#191970" points="416.5705,-78.6976 426.6472,-75.4253 416.7292,-71.6994 416.5705,-78.6976"/>
</g>
<!-- Node188902 -->
<g id="node4" class="node">
<title>Node188902</title>
<g id="a_node4"><a xlink:href="quickjs_8c.html#ab7fc45a99935a1c0ba50b0216d9401a9" target="_top" xlink:title="JS_FreeAtom">
<polygon fill="none" stroke="#000000" points="146,-38.5 146,-57.5 223,-57.5 223,-38.5 146,-38.5"/>
<text text-anchor="middle" x="184.5" y="-45.5" font-family="Helvetica,sans-Serif" font-size="10.00" fill="#000000">JS_FreeAtom</text>
</a>
</g>
</g>
<!-- Node188899&#45;&gt;Node188902 -->
<g id="edge3" class="edge">
<title>Node188899&#45;&gt;Node188902</title>
<path fill="none" stroke="#191970" d="M110.2953,-58.8872C118.7993,-57.6395 127.5257,-56.3592 135.8706,-55.1348"/>
<polygon fill="#191970" stroke="#191970" points="136.4338,-58.5897 145.8198,-53.6751 135.4176,-51.6639 136.4338,-58.5897"/>
</g>
<!-- Node188901 -->
<g id="node3" class="node">
<title>Node188901</title>
<g id="a_node3"><a xlink:href="quickjs_8c.html#a69e19dda8a93d613203e0baa06f0ed8d" target="_top" xlink:title="js_free_rt">
<polygon fill="none" stroke="#000000" points="541,-38.5 541,-57.5 603,-57.5 603,-38.5 541,-38.5"/>
<text text-anchor="middle" x="572" y="-45.5" font-family="Helvetica,sans-Serif" font-size="10.00" fill="#000000">js_free_rt</text>
</a>
</g>
</g>
<!-- Node188900&#45;&gt;Node188901 -->
<g id="edge2" class="edge">
<title>Node188900&#45;&gt;Node188901</title>
<path fill="none" stroke="#191970" d="M477.1559,-70.1303C492.7402,-66.494 513.1238,-61.7378 530.9989,-57.5669"/>
<polygon fill="#191970" stroke="#191970" points="531.9576,-60.9373 540.9007,-55.2565 530.3669,-54.1204 531.9576,-60.9373"/>
</g>
<!-- Node188903 -->
<g id="node5" class="node">
<title>Node188903</title>
<g id="a_node5"><a xlink:href="quickjs_8c.html#a7f6796ee7a195631366f57c713a33f65" target="_top" xlink:title="__JS_AtomIsConst">
<polygon fill="none" stroke="#000000" points="259,-38.5 259,-57.5 363,-57.5 363,-38.5 259,-38.5"/>
<text text-anchor="middle" x="311" y="-45.5" font-family="Helvetica,sans-Serif" font-size="10.00" fill="#000000">__JS_AtomIsConst</text>
</a>
</g>
</g>
<!-- Node188902&#45;&gt;Node188903 -->
<g id="edge4" class="edge">
<title>Node188902&#45;&gt;Node188903</title>
<path fill="none" stroke="#191970" d="M223.1415,-48C231.184,-48 239.8553,-48 248.5077,-48"/>
<polygon fill="#191970" stroke="#191970" points="248.6174,-51.5001 258.6173,-48 248.6173,-44.5001 248.6174,-51.5001"/>
</g>
<!-- Node188904 -->
<g id="node6" class="node">
<title>Node188904</title>
<g id="a_node6"><a xlink:href="quickjs_8c.html#a0bbd9e3ecd55e3ea6c9d44bfda382095" target="_top" xlink:title="__JS_FreeAtom">
<polygon fill="none" stroke="#000000" points="267,-.5 267,-19.5 355,-19.5 355,-.5 267,-.5"/>
<text text-anchor="middle" x="311" y="-7.5" font-family="Helvetica,sans-Serif" font-size="10.00" fill="#000000">__JS_FreeAtom</text>
</a>
</g>
</g>
<!-- Node188902&#45;&gt;Node188904 -->
<g id="edge5" class="edge">
<title>Node188902&#45;&gt;Node188904</title>
<path fill="none" stroke="#191970" d="M216.4213,-38.411C232.4516,-33.5956 252.0738,-27.7012 269.2816,-22.532"/>
<polygon fill="#191970" stroke="#191970" points="270.5187,-25.815 279.0889,-19.5859 268.5047,-19.1109 270.5187,-25.815"/>
</g>
<!-- Node188905 -->
<g id="node7" class="node">
<title>Node188905</title>
<g id="a_node7"><a xlink:href="quickjs_8c.html#a58c8965dad50b15b75918a09f3d9dc7c" target="_top" xlink:title="JS_FreeAtomStruct">
<polygon fill="none" stroke="#ff0000" points="399,-19.5 399,-38.5 505,-38.5 505,-19.5 399,-19.5"/>
<text text-anchor="middle" x="452" y="-26.5" font-family="Helvetica,sans-Serif" font-size="10.00" fill="#000000">JS_FreeAtomStruct</text>
</a>
</g>
</g>
<!-- Node188904&#45;&gt;Node188905 -->
<g id="edge6" class="edge">
<title>Node188904&#45;&gt;Node188905</title>
<path fill="none" stroke="#191970" d="M355.2264,-15.9596C365.8001,-17.3844 377.2938,-18.9332 388.5458,-20.4494"/>
<polygon fill="#191970" stroke="#191970" points="388.4001,-23.9614 398.7779,-21.8282 389.3349,-17.0241 388.4001,-23.9614"/>
</g>
<!-- Node188905&#45;&gt;Node188901 -->
<g id="edge7" class="edge">
<title>Node188905&#45;&gt;Node188901</title>
<path fill="none" stroke="#191970" d="M505.3326,-37.4443C513.871,-38.7962 522.5919,-40.177 530.7918,-41.4754"/>
<polygon fill="#191970" stroke="#191970" points="530.4226,-44.9604 540.847,-43.0674 531.5174,-38.0466 530.4226,-44.9604"/>
</g>
</g>
</svg>
        <g id="navigator" transform="translate(0 0)" fill="#404254">
                <rect fill="#f2f5e9" fill-opacity="0.5" stroke="#606060" stroke-width=".5" x="0" y="0" width="60" height="60"/>
                <use id="zoomplus" xlink:href="#zoomPlus" x="17" y="9" onmousedown="handleZoom(evt,'in')"/>
                <use id="zoomminus" xlink:href="#zoomMin" x="42" y="9" onmousedown="handleZoom(evt,'out')"/>
                <use id="reset" xlink:href="#resetDef" x="30" y="36" onmousedown="handleReset()"/>
                <g id="arrowUp" xlink:href="#dirArrow" transform="translate(30 24)" onmousedown="handlePan(0,-1)">
                  <use xlink:href="#rim" fill="#404040">
                        <set attributeName="fill" to="#808080" begin="arrowUp.mouseover" end="arrowUp.mouseout"/>
                  </use>
                  <path fill="none" stroke="white" stroke-width="1.5" d="M0,-3.0v7 M-2.5,-0.5L0,-3.0L2.5,-0.5"/>
                </g>
                <g id="arrowRight" xlink:href="#dirArrow" transform="rotate(90) translate(36 -43)" onmousedown="handlePan(1,0)">
                  <use xlink:href="#rim" fill="#404040">
                        <set attributeName="fill" to="#808080" begin="arrowRight.mouseover" end="arrowRight.mouseout"/>
                  </use>
                  <path fill="none" stroke="white" stroke-width="1.5" d="M0,-3.0v7 M-2.5,-0.5L0,-3.0L2.5,-0.5"/>
                </g>
                <g id="arrowDown" xlink:href="#dirArrow" transform="rotate(180) translate(-30 -48)" onmousedown="handlePan(0,1)">
                  <use xlink:href="#rim" fill="#404040">
                        <set attributeName="fill" to="#808080" begin="arrowDown.mouseover" end="arrowDown.mouseout"/>
                  </use>
                  <path fill="none" stroke="white" stroke-width="1.5" d="M0,-3.0v7 M-2.5,-0.5L0,-3.0L2.5,-0.5"/>
                </g>
                <g id="arrowLeft" xlink:href="#dirArrow" transform="rotate(270) translate(-36 17)" onmousedown="handlePan(-1,0)">
                  <use xlink:href="#rim" fill="#404040">
                        <set attributeName="fill" to="#808080" begin="arrowLeft.mouseover" end="arrowLeft.mouseout"/>
                  </use>
                  <path fill="none" stroke="white" stroke-width="1.5" d="M0,-3.0v7 M-2.5,-0.5L0,-3.0L2.5,-0.5"/>
                </g>
        </g>
        <svg viewBox="0 0 15 15" width="100%" height="30px" preserveAspectRatio="xMaxYMin meet">
         <g id="arrow_out" transform="scale(0.3 0.3)">
          <a xlink:href="quickjs_8c_a6b42cd922447e1eb6bfc52761895a174_cgraph_org.svg" target="_base">
           <rect id="button" ry="5" rx="5" y="6" x="6" height="38" width="38"
                fill="#f2f5e9" fill-opacity="0.5" stroke="#606060" stroke-width="1.0"/>
           <path id="arrow"
             d="M 11.500037,31.436501 C 11.940474,20.09759 22.043105,11.32322 32.158766,21.979434 L 37.068811,17.246167 C 37.068811,17.246167 37.088388,32 37.088388,32 L 22.160133,31.978069 C 22.160133,31.978069 26.997745,27.140456 26.997745,27.140456 C 18.528582,18.264221 13.291696,25.230495 11.500037,31.436501 z"
             style="fill:#404040;"/>
          </a>
         </g>
        </svg>
</svg>
