<?xml version="1.0" encoding="UTF-8" standalone="no"?>
<!DOCTYPE svg PUBLIC "-//W3C//DTD SVG 1.1//EN"
 "http://www.w3.org/Graphics/SVG/1.1/DTD/svg11.dtd">
<!-- Generated by graphviz version 2.40.1 (20161225.0304)
 -->
<!-- Title: JS_SetObjectData Pages: 1 -->
<svg width="494pt" height="66pt"
 viewBox="0.00 0.00 494.00 66.00" xmlns="http://www.w3.org/2000/svg" xmlns:xlink="http://www.w3.org/1999/xlink">
<g id="graph0" class="graph" transform="scale(1 1) rotate(0) translate(4 62)">
<title>JS_SetObjectData</title>
<!-- Node134990 -->
<g id="node1" class="node">
<title>Node134990</title>
<polygon fill="#bfbfbf" stroke="#000000" points="0,-19.5 0,-38.5 101,-38.5 101,-19.5 0,-19.5"/>
<text text-anchor="middle" x="50.5" y="-26.5" font-family="Helvetica,sans-Serif" font-size="10.00" fill="#000000">JS_SetObjectData</text>
</g>
<!-- Node134991 -->
<g id="node2" class="node">
<title>Node134991</title>
<g id="a_node2"><a xlink:href="quickjs_8h.html#afaa20c47565bc704c6c85f3d77254e7d" target="_top" xlink:title="JS_FreeValue">
<polygon fill="none" stroke="#000000" points="141.5,-38.5 141.5,-57.5 219.5,-57.5 219.5,-38.5 141.5,-38.5"/>
<text text-anchor="middle" x="180.5" y="-45.5" font-family="Helvetica,sans-Serif" font-size="10.00" fill="#000000">JS_FreeValue</text>
</a>
</g>
</g>
<!-- Node134990&#45;&gt;Node134991 -->
<g id="edge1" class="edge">
<title>Node134990&#45;&gt;Node134991</title>
<path fill="none" stroke="#191970" d="M101.1336,-36.4003C111.0812,-37.8542 121.5013,-39.3771 131.3976,-40.8235"/>
<polygon fill="#191970" stroke="#191970" points="131.0781,-44.3139 141.4792,-42.297 132.0905,-37.3875 131.0781,-44.3139"/>
</g>
<!-- Node135029 -->
<g id="node5" class="node">
<title>Node135029</title>
<g id="a_node5"><a xlink:href="quickjs_8h.html#ad80a83d73e9b7d872b88fbf2943aebe9" target="_top" xlink:title="JS_IsException">
<polygon fill="none" stroke="#000000" points="137,-.5 137,-19.5 224,-19.5 224,-.5 137,-.5"/>
<text text-anchor="middle" x="180.5" y="-7.5" font-family="Helvetica,sans-Serif" font-size="10.00" fill="#000000">JS_IsException</text>
</a>
</g>
</g>
<!-- Node134990&#45;&gt;Node135029 -->
<g id="edge4" class="edge">
<title>Node134990&#45;&gt;Node135029</title>
<path fill="none" stroke="#191970" d="M101.1336,-21.5997C109.6397,-20.3565 118.4914,-19.0628 127.0656,-17.8096"/>
<polygon fill="#191970" stroke="#191970" points="127.5775,-21.2721 136.9661,-16.3626 126.5651,-14.3457 127.5775,-21.2721"/>
</g>
<!-- Node134992 -->
<g id="node3" class="node">
<title>Node134992</title>
<g id="a_node3"><a xlink:href="quickjs_8c.html#aa059f309c30fd5166d16c82a97973146" target="_top" xlink:title="__JS_FreeValue">
<polygon fill="none" stroke="#000000" points="260,-38.5 260,-57.5 349,-57.5 349,-38.5 260,-38.5"/>
<text text-anchor="middle" x="304.5" y="-45.5" font-family="Helvetica,sans-Serif" font-size="10.00" fill="#000000">__JS_FreeValue</text>
</a>
</g>
</g>
<!-- Node134991&#45;&gt;Node134992 -->
<g id="edge2" class="edge">
<title>Node134991&#45;&gt;Node134992</title>
<path fill="none" stroke="#191970" d="M219.7344,-48C229.3131,-48 239.7337,-48 249.8862,-48"/>
<polygon fill="#191970" stroke="#191970" points="249.9084,-51.5001 259.9083,-48 249.9083,-44.5001 249.9084,-51.5001"/>
</g>
<!-- Node134993 -->
<g id="node4" class="node">
<title>Node134993</title>
<g id="a_node4"><a xlink:href="quickjs_8c.html#ab1ea3fad7d138be12144a38be4d36423" target="_top" xlink:title="__JS_FreeValueRT">
<polygon fill="none" stroke="#ff0000" points="385,-38.5 385,-57.5 486,-57.5 486,-38.5 385,-38.5"/>
<text text-anchor="middle" x="435.5" y="-45.5" font-family="Helvetica,sans-Serif" font-size="10.00" fill="#000000">__JS_FreeValueRT</text>
</a>
</g>
</g>
<!-- Node134992&#45;&gt;Node134993 -->
<g id="edge3" class="edge">
<title>Node134992&#45;&gt;Node134993</title>
<path fill="none" stroke="#191970" d="M349.2164,-48C357.3314,-48 365.9213,-48 374.4118,-48"/>
<polygon fill="#191970" stroke="#191970" points="374.6806,-51.5001 384.6806,-48 374.6806,-44.5001 374.6806,-51.5001"/>
</g>
</g>
</svg>
