<?xml version="1.0" encoding="UTF-8" standalone="no"?>
<!DOCTYPE svg PUBLIC "-//W3C//DTD SVG 1.1//EN"
 "http://www.w3.org/Graphics/SVG/1.1/DTD/svg11.dtd">
<!-- Generated by graphviz version 2.40.1 (20161225.0304)
 -->
<!-- Title: get_date_fields Pages: 1 -->
<svg width="523pt" height="104pt"
 viewBox="0.00 0.00 523.00 104.00" xmlns="http://www.w3.org/2000/svg" xmlns:xlink="http://www.w3.org/1999/xlink">
<g id="graph0" class="graph" transform="scale(1 1) rotate(0) translate(4 100)">
<title>get_date_fields</title>
<!-- Node472632 -->
<g id="node1" class="node">
<title>Node472632</title>
<polygon fill="#bfbfbf" stroke="#000000" points="0,-38.5 0,-57.5 91,-57.5 91,-38.5 0,-38.5"/>
<text text-anchor="middle" x="45.5" y="-45.5" font-family="Helvetica,sans-Serif" font-size="10.00" fill="#000000">get_date_fields</text>
</g>
<!-- Node472633 -->
<g id="node2" class="node">
<title>Node472633</title>
<g id="a_node2"><a xlink:href="quickjs_8c.html#a937f8b17cb6d260cec8239dfb462035e" target="_top" xlink:title="get_date_field">
<polygon fill="none" stroke="#000000" points="130,-76.5 130,-95.5 216,-95.5 216,-76.5 130,-76.5"/>
<text text-anchor="middle" x="173" y="-83.5" font-family="Helvetica,sans-Serif" font-size="10.00" fill="#000000">get_date_field</text>
</a>
</g>
</g>
<!-- Node472632&#45;&gt;Node472633 -->
<g id="edge1" class="edge">
<title>Node472632&#45;&gt;Node472633</title>
<path fill="none" stroke="#191970" d="M87.5592,-60.5353C104.9041,-65.7048 124.6812,-71.5991 140.8367,-76.4141"/>
<polygon fill="#191970" stroke="#191970" points="88.2568,-57.0911 77.6736,-57.589 86.2574,-63.7995 88.2568,-57.0911"/>
</g>
<!-- Node472634 -->
<g id="node3" class="node">
<title>Node472634</title>
<g id="a_node3"><a xlink:href="quickjs_8c.html#ab522181d975cc7949088c8ff67fedde0" target="_top" xlink:title="get_date_string">
<polygon fill="none" stroke="#000000" points="127,-38.5 127,-57.5 219,-57.5 219,-38.5 127,-38.5"/>
<text text-anchor="middle" x="173" y="-45.5" font-family="Helvetica,sans-Serif" font-size="10.00" fill="#000000">get_date_string</text>
</a>
</g>
</g>
<!-- Node472632&#45;&gt;Node472634 -->
<g id="edge2" class="edge">
<title>Node472632&#45;&gt;Node472634</title>
<path fill="none" stroke="#191970" d="M101.3846,-48C109.8691,-48 118.5423,-48 126.7907,-48"/>
<polygon fill="#191970" stroke="#191970" points="101.1703,-44.5001 91.1703,-48 101.1703,-51.5001 101.1703,-44.5001"/>
</g>
<!-- Node472641 -->
<g id="node6" class="node">
<title>Node472641</title>
<g id="a_node6"><a xlink:href="quickjs_8c.html#a12803d7cccf6345067677bd4d25287ed" target="_top" xlink:title="set_date_field">
<polygon fill="none" stroke="#000000" points="130.5,-.5 130.5,-19.5 215.5,-19.5 215.5,-.5 130.5,-.5"/>
<text text-anchor="middle" x="173" y="-7.5" font-family="Helvetica,sans-Serif" font-size="10.00" fill="#000000">set_date_field</text>
</a>
</g>
</g>
<!-- Node472632&#45;&gt;Node472641 -->
<g id="edge5" class="edge">
<title>Node472632&#45;&gt;Node472641</title>
<path fill="none" stroke="#191970" d="M87.5592,-35.4647C104.9041,-30.2952 124.6812,-24.4009 140.8367,-19.5859"/>
<polygon fill="#191970" stroke="#191970" points="86.2574,-32.2005 77.6736,-38.411 88.2568,-38.9089 86.2574,-32.2005"/>
</g>
<!-- Node472635 -->
<g id="node4" class="node">
<title>Node472635</title>
<g id="a_node4"><a xlink:href="quickjs_8c.html#a7e4e02ec8849f3beaf28dc0613bb4016" target="_top" xlink:title="js_date_constructor">
<polygon fill="none" stroke="#000000" points="255,-38.5 255,-57.5 367,-57.5 367,-38.5 255,-38.5"/>
<text text-anchor="middle" x="311" y="-45.5" font-family="Helvetica,sans-Serif" font-size="10.00" fill="#000000">js_date_constructor</text>
</a>
</g>
</g>
<!-- Node472634&#45;&gt;Node472635 -->
<g id="edge3" class="edge">
<title>Node472634&#45;&gt;Node472635</title>
<path fill="none" stroke="#191970" d="M229.4484,-48C237.8728,-48 246.5555,-48 254.9712,-48"/>
<polygon fill="#191970" stroke="#191970" points="229.3359,-44.5001 219.3359,-48 229.3359,-51.5001 229.3359,-44.5001"/>
</g>
<!-- Node472636 -->
<g id="node5" class="node">
<title>Node472636</title>
<g id="a_node5"><a xlink:href="quickjs_8c.html#a8ecbf5799518b7bfc3fefd47c7a0dd4e" target="_top" xlink:title="JS_AddIntrinsicDate">
<polygon fill="none" stroke="#ff0000" points="403,-38.5 403,-57.5 515,-57.5 515,-38.5 403,-38.5"/>
<text text-anchor="middle" x="459" y="-45.5" font-family="Helvetica,sans-Serif" font-size="10.00" fill="#000000">JS_AddIntrinsicDate</text>
</a>
</g>
</g>
<!-- Node472635&#45;&gt;Node472636 -->
<g id="edge4" class="edge">
<title>Node472635&#45;&gt;Node472636</title>
<path fill="none" stroke="#191970" d="M377.5579,-48C385.9836,-48 394.5393,-48 402.7821,-48"/>
<polygon fill="#191970" stroke="#191970" points="377.3747,-44.5001 367.3747,-48 377.3746,-51.5001 377.3747,-44.5001"/>
</g>
<!-- Node472642 -->
<g id="node7" class="node">
<title>Node472642</title>
<g id="a_node7"><a xlink:href="quickjs_8c.html#aea694f707706fc250d38365486dc8c96" target="_top" xlink:title="js_date_setYear">
<polygon fill="none" stroke="#000000" points="265,-.5 265,-19.5 357,-19.5 357,-.5 265,-.5"/>
<text text-anchor="middle" x="311" y="-7.5" font-family="Helvetica,sans-Serif" font-size="10.00" fill="#000000">js_date_setYear</text>
</a>
</g>
</g>
<!-- Node472641&#45;&gt;Node472642 -->
<g id="edge6" class="edge">
<title>Node472641&#45;&gt;Node472642</title>
<path fill="none" stroke="#191970" d="M225.5979,-10C238.4106,-10 252.0242,-10 264.529,-10"/>
<polygon fill="#191970" stroke="#191970" points="225.5306,-6.5001 215.5306,-10 225.5306,-13.5001 225.5306,-6.5001"/>
</g>
</g>
</svg>
