<?xml version="1.0" encoding="UTF-8" standalone="no"?>
<!DOCTYPE svg PUBLIC "-//W3C//DTD SVG 1.1//EN"
 "http://www.w3.org/Graphics/SVG/1.1/DTD/svg11.dtd">
<!-- Generated by graphviz version 2.40.1 (20161225.0304)
 -->
<!-- Title: JS_NewCFunction2 Pages: 1 -->
<!--zoomable 720 -->
<svg id="main" version="1.1" xmlns="http://www.w3.org/2000/svg" xmlns:xlink="http://www.w3.org/1999/xlink" xml:space="preserve" onload="init(evt)">
<style type="text/css"><![CDATA[
.edge:hover path { stroke: red; }
.edge:hover polygon { stroke: red; fill: red; }
]]></style>
<script type="text/javascript"><![CDATA[
var edges = document.getElementsByTagName('g');
if (edges && edges.length) {
  for (var i=0;i<edges.length;i++) {
    if (edges[i].id.substr(0,4)=='edge') {
      edges[i].setAttribute('class','edge');
    }
  }
}
]]></script>
        <defs>
                <circle id="rim" cx="0" cy="0" r="7"/>
                <circle id="rim2" cx="0" cy="0" r="3.5"/>
                <g id="zoomPlus">
                        <use xlink:href="#rim" fill="#404040">
                                <set attributeName="fill" to="#808080" begin="zoomplus.mouseover" end="zoomplus.mouseout"/>
                        </use>
                        <path d="M-4,0h8M0,-4v8" fill="none" stroke="white" stroke-width="1.5" pointer-events="none"/>
                </g>
                <g id="zoomMin">
                        <use xlink:href="#rim" fill="#404040">
                                <set attributeName="fill" to="#808080" begin="zoomminus.mouseover" end="zoomminus.mouseout"/>
                        </use>
                        <path d="M-4,0h8" fill="none" stroke="white" stroke-width="1.5" pointer-events="none"/>
                </g>
                <g id="dirArrow">
                        <path fill="none" stroke="white" stroke-width="1.5" d="M0,-3.0v7 M-2.5,-0.5L0,-3.0L2.5,-0.5"/>
                </g>
               <g id="resetDef">
                       <use xlink:href="#rim2" fill="#404040">
                               <set attributeName="fill" to="#808080" begin="reset.mouseover" end="reset.mouseout"/>
                       </use>
               </g>
        </defs>

<script type="text/javascript">
var viewWidth = 1176;
var viewHeight = 720;
var sectionId = 'dynsection-424';
</script>
<script xlink:href="svgpan.js"/>
<svg id="graph" class="graph">
<g id="viewport">
<title>JS_NewCFunction2</title>
<!-- Node144368 -->
<g id="node1" class="node">
<title>Node144368</title>
<polygon fill="#bfbfbf" stroke="#000000" points="0,-304.5 0,-323.5 106,-323.5 106,-304.5 0,-304.5"/>
<text text-anchor="middle" x="53" y="-311.5" font-family="Helvetica,sans-Serif" font-size="10.00" fill="#000000">JS_NewCFunction2</text>
</g>
<!-- Node144369 -->
<g id="node2" class="node">
<title>Node144369</title>
<g id="a_node2"><a xlink:href="quickjs_8c.html#a2e66fcf1bc1d19f346317f10ee590621" target="_top" xlink:title="JS_AddIntrinsicPromise">
<polygon fill="none" stroke="#000000" points="543,-665.5 543,-684.5 671,-684.5 671,-665.5 543,-665.5"/>
<text text-anchor="middle" x="607" y="-672.5" font-family="Helvetica,sans-Serif" font-size="10.00" fill="#000000">JS_AddIntrinsicPromise</text>
</a>
</g>
</g>
<!-- Node144368&#45;&gt;Node144369 -->
<g id="edge1" class="edge">
<title>Node144368&#45;&gt;Node144369</title>
<path fill="none" stroke="#191970" d="M55.3911,-333.8886C63.6356,-398.8914 93.0884,-603.2309 142,-644 269.2513,-750.0674 490.405,-706.2987 573.8528,-684.5231"/>
<polygon fill="#191970" stroke="#191970" points="58.8384,-333.2464 54.1358,-323.7525 51.8914,-334.1068 58.8384,-333.2464"/>
</g>
<!-- Node144374 -->
<g id="node5" class="node">
<title>Node144374</title>
<g id="a_node5"><a xlink:href="quickjs_8c.html#a3afdbdd7b58ef7e1dcc178c362071b3d" target="_top" xlink:title="JS_AddIntrinsicProxy">
<polygon fill="none" stroke="#000000" points="549,-627.5 549,-646.5 665,-646.5 665,-627.5 549,-627.5"/>
<text text-anchor="middle" x="607" y="-634.5" font-family="Helvetica,sans-Serif" font-size="10.00" fill="#000000">JS_AddIntrinsicProxy</text>
</a>
</g>
</g>
<!-- Node144368&#45;&gt;Node144374 -->
<g id="edge4" class="edge">
<title>Node144368&#45;&gt;Node144374</title>
<path fill="none" stroke="#191970" d="M55.9425,-334.0422C65.3599,-395.2044 96.8098,-577.4526 142,-613 203.5499,-661.4163 438.2858,-650.2934 548.805,-642.0213"/>
<polygon fill="#191970" stroke="#191970" points="59.3497,-333.1638 54.3985,-323.7971 52.4279,-334.2071 59.3497,-333.1638"/>
</g>
<!-- Node144375 -->
<g id="node6" class="node">
<title>Node144375</title>
<g id="a_node6"><a xlink:href="quickjs_8c.html#a6ee4e2edda1f223a5a40e2c48b41d618" target="_top" xlink:title="JS_InstantiateFunctionListItem">
<polygon fill="none" stroke="#000000" points="145,-342.5 145,-361.5 309,-361.5 309,-342.5 145,-342.5"/>
<text text-anchor="middle" x="227" y="-349.5" font-family="Helvetica,sans-Serif" font-size="10.00" fill="#000000">JS_InstantiateFunctionListItem</text>
</a>
</g>
</g>
<!-- Node144368&#45;&gt;Node144375 -->
<g id="edge6" class="edge">
<title>Node144368&#45;&gt;Node144375</title>
<path fill="none" stroke="#191970" d="M106.8144,-325.7526C131.418,-331.1258 160.1867,-337.4086 183.4082,-342.4799"/>
<polygon fill="#191970" stroke="#191970" points="107.4241,-322.3033 96.9075,-323.589 105.9305,-329.1421 107.4241,-322.3033"/>
</g>
<!-- Node144379 -->
<g id="node9" class="node">
<title>Node144379</title>
<g id="a_node9"><a xlink:href="quickjs-libc_8c.html#a066e7962ce24f22d5df20968a8baa346" target="_top" xlink:title="js_os_init">
<polygon fill="none" stroke="#ff0000" points="771.5,-437.5 771.5,-456.5 833.5,-456.5 833.5,-437.5 771.5,-437.5"/>
<text text-anchor="middle" x="802.5" y="-444.5" font-family="Helvetica,sans-Serif" font-size="10.00" fill="#000000">js_os_init</text>
</a>
</g>
</g>
<!-- Node144368&#45;&gt;Node144379 -->
<g id="edge47" class="edge">
<title>Node144368&#45;&gt;Node144379</title>
<path fill="none" stroke="#191970" d="M73.4672,-329.9031C90.8331,-342.689 116.8637,-360.2366 142,-371 305.602,-441.0547 354.3049,-444.7366 531,-466 598.0716,-474.0714 615.6543,-471.3204 683,-466 713.1563,-463.6176 747.1973,-457.9037 771.2111,-453.36"/>
<polygon fill="#191970" stroke="#191970" points="75.3238,-326.9203 65.2264,-323.712 71.1193,-332.5169 75.3238,-326.9203"/>
</g>
<!-- Node144392 -->
<g id="node20" class="node">
<title>Node144392</title>
<g id="a_node20"><a xlink:href="quickjs_8h.html#aa68c88001ca8a8662d8f9f321a72f421" target="_top" xlink:title="JS_NewCFunction">
<polygon fill="none" stroke="#000000" points="371.5,-114.5 371.5,-133.5 471.5,-133.5 471.5,-114.5 371.5,-114.5"/>
<text text-anchor="middle" x="421.5" y="-121.5" font-family="Helvetica,sans-Serif" font-size="10.00" fill="#000000">JS_NewCFunction</text>
</a>
</g>
</g>
<!-- Node144368&#45;&gt;Node144392 -->
<g id="edge32" class="edge">
<title>Node144368&#45;&gt;Node144392</title>
<path fill="none" stroke="#191970" d="M65.8405,-296.1442C81.6137,-275.3948 110.2189,-241.4024 142,-221 215.4796,-173.8285 314.6227,-146.5317 372.9421,-133.5151"/>
<polygon fill="#191970" stroke="#191970" points="62.8629,-294.2833 59.7123,-304.3989 68.4834,-298.4559 62.8629,-294.2833"/>
</g>
<!-- Node144396 -->
<g id="node24" class="node">
<title>Node144396</title>
<g id="a_node24"><a xlink:href="quickjs_8h.html#ae75598e7954a062f9890bc2ecf435fa1" target="_top" xlink:title="JS_NewCFunctionMagic">
<polygon fill="none" stroke="#000000" points="357.5,-247.5 357.5,-266.5 485.5,-266.5 485.5,-247.5 357.5,-247.5"/>
<text text-anchor="middle" x="421.5" y="-254.5" font-family="Helvetica,sans-Serif" font-size="10.00" fill="#000000">JS_NewCFunctionMagic</text>
</a>
</g>
</g>
<!-- Node144368&#45;&gt;Node144396 -->
<g id="edge38" class="edge">
<title>Node144368&#45;&gt;Node144396</title>
<path fill="none" stroke="#191970" d="M116.3781,-304.1966C184.6401,-293.6378 292.5163,-276.9513 360.0293,-266.5084"/>
<polygon fill="#191970" stroke="#191970" points="115.5369,-300.785 106.1895,-305.7726 116.607,-307.7027 115.5369,-300.785"/>
</g>
<!-- Node144397 -->
<g id="node25" class="node">
<title>Node144397</title>
<g id="a_node25"><a xlink:href="quickjs_8c.html#a293feb2179c9a722b2bd410bc2c5c173" target="_top" xlink:title="JS_NewGlobalCConstructor">
<polygon fill="none" stroke="#000000" points="348,-190.5 348,-209.5 495,-209.5 495,-190.5 348,-190.5"/>
<text text-anchor="middle" x="421.5" y="-197.5" font-family="Helvetica,sans-Serif" font-size="10.00" fill="#000000">JS_NewGlobalCConstructor</text>
</a>
</g>
</g>
<!-- Node144368&#45;&gt;Node144397 -->
<g id="edge41" class="edge">
<title>Node144368&#45;&gt;Node144397</title>
<path fill="none" stroke="#191970" d="M79.6409,-299.8043C97.0364,-290.9446 120.4412,-279.7847 142,-272 221.1784,-243.4092 316.8057,-221.336 373.1935,-209.5391"/>
<polygon fill="#191970" stroke="#191970" points="77.9216,-296.753 70.6449,-304.4536 81.1356,-302.9716 77.9216,-296.753"/>
</g>
<!-- Node144398 -->
<g id="node26" class="node">
<title>Node144398</title>
<g id="a_node26"><a xlink:href="quickjs_8c.html#abc33a664e231090ec89f9d9975e21229" target="_top" xlink:title="JS_NewGlobalCConstructorOnly">
<polygon fill="none" stroke="#000000" points="142,-105.5 142,-124.5 312,-124.5 312,-105.5 142,-105.5"/>
<text text-anchor="middle" x="227" y="-112.5" font-family="Helvetica,sans-Serif" font-size="10.00" fill="#000000">JS_NewGlobalCConstructorOnly</text>
</a>
</g>
</g>
<!-- Node144368&#45;&gt;Node144398 -->
<g id="edge45" class="edge">
<title>Node144368&#45;&gt;Node144398</title>
<path fill="none" stroke="#191970" d="M60.9111,-295.0232C74.1525,-265 103.216,-205.9634 142,-167 160.5505,-148.3638 187.0381,-133.526 205.4977,-124.5461"/>
<polygon fill="#191970" stroke="#191970" points="57.6344,-293.7832 56.8972,-304.3524 64.0645,-296.5498 57.6344,-293.7832"/>
</g>
<!-- Node144370 -->
<g id="node3" class="node">
<title>Node144370</title>
<g id="a_node3"><a xlink:href="quickjs_8c.html#ad8aedb643b8753b7a15f6cb2df61945e" target="_top" xlink:title="JS_NewContext">
<polygon fill="none" stroke="#000000" points="922,-385.5 922,-404.5 1013,-404.5 1013,-385.5 922,-385.5"/>
<text text-anchor="middle" x="967.5" y="-392.5" font-family="Helvetica,sans-Serif" font-size="10.00" fill="#000000">JS_NewContext</text>
</a>
</g>
</g>
<!-- Node144369&#45;&gt;Node144370 -->
<g id="edge2" class="edge">
<title>Node144369&#45;&gt;Node144370</title>
<path fill="none" stroke="#191970" d="M681.2082,-679.9699C742.9375,-680.0547 829.5357,-670.2304 886,-622 921.2615,-591.8805 956.5175,-443.9427 965.3796,-404.6159"/>
<polygon fill="#191970" stroke="#191970" points="681.1743,-676.4694 671.1395,-679.8685 681.1037,-683.4691 681.1743,-676.4694"/>
</g>
<!-- Node144371 -->
<g id="node4" class="node">
<title>Node144371</title>
<g id="a_node4"><a xlink:href="classqjs_1_1Context.html#a4392a23648acfc4bf6b445336efb5007" target="_top" xlink:title="qjs::Context::Context">
<polygon fill="none" stroke="#ff0000" points="1049,-385.5 1049,-404.5 1168,-404.5 1168,-385.5 1049,-385.5"/>
<text text-anchor="middle" x="1108.5" y="-392.5" font-family="Helvetica,sans-Serif" font-size="10.00" fill="#000000">qjs::Context::Context</text>
</a>
</g>
</g>
<!-- Node144370&#45;&gt;Node144371 -->
<g id="edge3" class="edge">
<title>Node144370&#45;&gt;Node144371</title>
<path fill="none" stroke="#191970" d="M1023.322,-395C1031.7011,-395 1040.3697,-395 1048.8255,-395"/>
<polygon fill="#191970" stroke="#191970" points="1023.2787,-391.5001 1013.2787,-395 1023.2786,-398.5001 1023.2787,-391.5001"/>
</g>
<!-- Node144374&#45;&gt;Node144370 -->
<g id="edge5" class="edge">
<title>Node144374&#45;&gt;Node144370</title>
<path fill="none" stroke="#191970" d="M675.4067,-639.8433C736.892,-638.8253 826.4309,-628.0415 886,-580 944.19,-533.0707 961.9687,-436.1636 966.2995,-404.933"/>
<polygon fill="#191970" stroke="#191970" points="674.9999,-636.3463 665.0286,-639.9272 675.0566,-643.3461 674.9999,-636.3463"/>
</g>
<!-- Node144376 -->
<g id="node7" class="node">
<title>Node144376</title>
<g id="a_node7"><a xlink:href="quickjs_8c.html#ac00854b7f1f0f8567af964a2f8f2adb0" target="_top" xlink:title="JS_SetPropertyFunctionList">
<polygon fill="none" stroke="#000000" points="348.5,-361.5 348.5,-380.5 494.5,-380.5 494.5,-361.5 348.5,-361.5"/>
<text text-anchor="middle" x="421.5" y="-368.5" font-family="Helvetica,sans-Serif" font-size="10.00" fill="#000000">JS_SetPropertyFunctionList</text>
</a>
</g>
</g>
<!-- Node144375&#45;&gt;Node144376 -->
<g id="edge7" class="edge">
<title>Node144375&#45;&gt;Node144376</title>
<path fill="none" stroke="#191970" d="M319.2838,-361.0149C328.9953,-361.9636 338.773,-362.9187 348.2283,-363.8423"/>
<polygon fill="#191970" stroke="#191970" points="319.4965,-357.5191 309.2036,-360.0302 318.8159,-364.4859 319.4965,-357.5191"/>
</g>
<!-- Node144376&#45;&gt;Node144369 -->
<g id="edge22" class="edge">
<title>Node144376&#45;&gt;Node144369</title>
<path fill="none" stroke="#191970" d="M423.0131,-390.7918C428.0762,-442.6554 449.0774,-583.4969 531,-656 535.3794,-659.8759 540.4319,-662.9858 545.8077,-665.4776"/>
<polygon fill="#191970" stroke="#191970" points="426.4812,-390.2741 422.1184,-380.6193 419.5081,-390.8875 426.4812,-390.2741"/>
</g>
<!-- Node144376&#45;&gt;Node144374 -->
<g id="edge19" class="edge">
<title>Node144376&#45;&gt;Node144374</title>
<path fill="none" stroke="#191970" d="M428.7651,-390.1054C443.8186,-428.0873 481.2109,-514.6204 531,-575 548.9832,-596.8083 575.6002,-616.4032 592.0927,-627.4854"/>
<polygon fill="#191970" stroke="#191970" points="432.0094,-388.7911 425.1199,-380.7421 425.4863,-391.3306 432.0094,-388.7911"/>
</g>
<!-- Node144377 -->
<g id="node8" class="node">
<title>Node144377</title>
<g id="a_node8"><a xlink:href="quickjs-libc_8c.html#a08cea1a0226b7603e6969e2208d99d55" target="_top" xlink:title="js_std_init">
<polygon fill="none" stroke="#ff0000" points="769.5,-475.5 769.5,-494.5 835.5,-494.5 835.5,-475.5 769.5,-475.5"/>
<text text-anchor="middle" x="802.5" y="-482.5" font-family="Helvetica,sans-Serif" font-size="10.00" fill="#000000">js_std_init</text>
</a>
</g>
</g>
<!-- Node144376&#45;&gt;Node144377 -->
<g id="edge8" class="edge">
<title>Node144376&#45;&gt;Node144377</title>
<path fill="none" stroke="#191970" d="M435.329,-388.5793C454.207,-411.0905 490.3749,-449.1944 531,-466 611.3385,-499.2341 716.4478,-494.5096 769.2168,-489.2232"/>
<polygon fill="#191970" stroke="#191970" points="438.0043,-386.322 428.9671,-380.7921 432.5834,-390.7507 438.0043,-386.322"/>
</g>
<!-- Node144376&#45;&gt;Node144379 -->
<g id="edge9" class="edge">
<title>Node144376&#45;&gt;Node144379</title>
<path fill="none" stroke="#191970" d="M479.4831,-382.5662C561.1594,-398.8586 707.2446,-427.9989 771.1365,-440.7438"/>
<polygon fill="#191970" stroke="#191970" points="479.8596,-379.0724 469.3681,-380.5485 478.4902,-385.9372 479.8596,-379.0724"/>
</g>
<!-- Node144381 -->
<g id="node10" class="node">
<title>Node144381</title>
<g id="a_node10"><a xlink:href="quickjs_8c.html#a04f1ec3f8d1f5c012280eb23e64a7b58" target="_top" xlink:title="JS_SetModuleExportList">
<polygon fill="none" stroke="#000000" points="541.5,-437.5 541.5,-456.5 672.5,-456.5 672.5,-437.5 541.5,-437.5"/>
<text text-anchor="middle" x="607" y="-444.5" font-family="Helvetica,sans-Serif" font-size="10.00" fill="#000000">JS_SetModuleExportList</text>
</a>
</g>
</g>
<!-- Node144376&#45;&gt;Node144381 -->
<g id="edge10" class="edge">
<title>Node144376&#45;&gt;Node144381</title>
<path fill="none" stroke="#191970" d="M448.7844,-385.246C470.6618,-396.3524 502.3377,-411.7304 531,-423 544.6497,-428.3669 560.0258,-433.404 573.3584,-437.4644"/>
<polygon fill="#191970" stroke="#191970" points="450.2533,-382.066 439.7572,-380.6231 447.0626,-388.2965 450.2533,-382.066"/>
</g>
<!-- Node144382 -->
<g id="node11" class="node">
<title>Node144382</title>
<g id="a_node11"><a xlink:href="quickjs_8c.html#abd9525850b564b2c2d2cb6ddfd89b1c6" target="_top" xlink:title="JS_AddIntrinsicStringNormalize">
<polygon fill="none" stroke="#000000" points="719,-551.5 719,-570.5 886,-570.5 886,-551.5 719,-551.5"/>
<text text-anchor="middle" x="802.5" y="-558.5" font-family="Helvetica,sans-Serif" font-size="10.00" fill="#000000">JS_AddIntrinsicStringNormalize</text>
</a>
</g>
</g>
<!-- Node144376&#45;&gt;Node144382 -->
<g id="edge13" class="edge">
<title>Node144376&#45;&gt;Node144382</title>
<path fill="none" stroke="#191970" d="M429.0984,-390.1433C443.462,-423.5661 477.9916,-492.0424 531,-524 587.3232,-557.956 661.9938,-566.0276 718.7689,-566.269"/>
<polygon fill="#191970" stroke="#191970" points="432.2102,-388.51 425.1457,-380.6142 425.7444,-391.1921 432.2102,-388.51"/>
</g>
<!-- Node144383 -->
<g id="node12" class="node">
<title>Node144383</title>
<g id="a_node12"><a xlink:href="quickjs_8c.html#aafc8241682ce24b6d72e0f237ee85a51" target="_top" xlink:title="JS_AddIntrinsicRegExp">
<polygon fill="none" stroke="#000000" points="544.5,-171.5 544.5,-190.5 669.5,-190.5 669.5,-171.5 544.5,-171.5"/>
<text text-anchor="middle" x="607" y="-178.5" font-family="Helvetica,sans-Serif" font-size="10.00" fill="#000000">JS_AddIntrinsicRegExp</text>
</a>
</g>
</g>
<!-- Node144376&#45;&gt;Node144383 -->
<g id="edge15" class="edge">
<title>Node144376&#45;&gt;Node144383</title>
<path fill="none" stroke="#191970" d="M436.7568,-353.6826C452.5404,-335.2488 477.3123,-304.8215 495,-276 514.5495,-244.1448 502.0958,-223.6957 531,-200 535.733,-196.1198 541.1504,-193.0167 546.8654,-190.5373"/>
<polygon fill="#191970" stroke="#191970" points="434.0959,-351.4087 430.1951,-361.2593 439.3874,-355.9913 434.0959,-351.4087"/>
</g>
<!-- Node144384 -->
<g id="node13" class="node">
<title>Node144384</title>
<g id="a_node13"><a xlink:href="quickjs_8c.html#ac43d15fc0b5d1b90ae3c92779ab12725" target="_top" xlink:title="JS_AddIntrinsicJSON">
<polygon fill="none" stroke="#000000" points="746,-513.5 746,-532.5 859,-532.5 859,-513.5 746,-513.5"/>
<text text-anchor="middle" x="802.5" y="-520.5" font-family="Helvetica,sans-Serif" font-size="10.00" fill="#000000">JS_AddIntrinsicJSON</text>
</a>
</g>
</g>
<!-- Node144376&#45;&gt;Node144384 -->
<g id="edge17" class="edge">
<title>Node144376&#45;&gt;Node144384</title>
<path fill="none" stroke="#191970" d="M431.9756,-389.5315C448.8292,-417.3747 484.8062,-469.2615 531,-493 598.8026,-527.8429 688.5059,-530.7569 745.8715,-528.1018"/>
<polygon fill="#191970" stroke="#191970" points="434.9112,-387.6188 426.8264,-380.7714 428.8765,-391.166 434.9112,-387.6188"/>
</g>
<!-- Node144385 -->
<g id="node14" class="node">
<title>Node144385</title>
<g id="a_node14"><a xlink:href="quickjs_8c.html#a4497f8c7cf2ec38da989910ae8b1f042" target="_top" xlink:title="JS_AddIntrinsicMapSet">
<polygon fill="none" stroke="#000000" points="544.5,-247.5 544.5,-266.5 669.5,-266.5 669.5,-247.5 544.5,-247.5"/>
<text text-anchor="middle" x="607" y="-254.5" font-family="Helvetica,sans-Serif" font-size="10.00" fill="#000000">JS_AddIntrinsicMapSet</text>
</a>
</g>
</g>
<!-- Node144376&#45;&gt;Node144385 -->
<g id="edge20" class="edge">
<title>Node144376&#45;&gt;Node144385</title>
<path fill="none" stroke="#191970" d="M436.6773,-353.5372C456.3069,-332.0598 492.566,-295.9991 531,-276 538.3596,-272.1704 546.527,-269.0871 554.6994,-266.6119"/>
<polygon fill="#191970" stroke="#191970" points="433.8365,-351.4629 429.7731,-361.2475 439.0514,-356.1326 433.8365,-351.4629"/>
</g>
<!-- Node144386 -->
<g id="node15" class="node">
<title>Node144386</title>
<g id="a_node15"><a xlink:href="quickjs_8c.html#a8ecbf5799518b7bfc3fefd47c7a0dd4e" target="_top" xlink:title="JS_AddIntrinsicDate">
<polygon fill="none" stroke="#000000" points="551,-209.5 551,-228.5 663,-228.5 663,-209.5 551,-209.5"/>
<text text-anchor="middle" x="607" y="-216.5" font-family="Helvetica,sans-Serif" font-size="10.00" fill="#000000">JS_AddIntrinsicDate</text>
</a>
</g>
</g>
<!-- Node144376&#45;&gt;Node144386 -->
<g id="edge23" class="edge">
<title>Node144376&#45;&gt;Node144386</title>
<path fill="none" stroke="#191970" d="M435.2487,-353.0638C461.8206,-318.5876 518.6982,-245.7726 531,-238 537.0938,-234.1498 543.922,-231.0794 550.9191,-228.631"/>
<polygon fill="#191970" stroke="#191970" points="432.2258,-351.2532 428.9046,-361.3141 437.7749,-355.5203 432.2258,-351.2532"/>
</g>
<!-- Node144387 -->
<g id="node16" class="node">
<title>Node144387</title>
<g id="a_node16"><a xlink:href="quickjs_8c.html#a7efb53c2f76fd5cc0e584449437ec09c" target="_top" xlink:title="JS_AddIntrinsicBasicObjects">
<polygon fill="none" stroke="#ff0000" points="531,-285.5 531,-304.5 683,-304.5 683,-285.5 531,-285.5"/>
<text text-anchor="middle" x="607" y="-292.5" font-family="Helvetica,sans-Serif" font-size="10.00" fill="#000000">JS_AddIntrinsicBasicObjects</text>
</a>
</g>
</g>
<!-- Node144376&#45;&gt;Node144387 -->
<g id="edge25" class="edge">
<title>Node144376&#45;&gt;Node144387</title>
<path fill="none" stroke="#191970" d="M448.7844,-356.754C470.6618,-345.6476 502.3377,-330.2696 531,-319 544.6497,-313.6331 560.0258,-308.596 573.3584,-304.5356"/>
<polygon fill="#191970" stroke="#191970" points="447.0626,-353.7035 439.7572,-361.3769 450.2533,-359.934 447.0626,-353.7035"/>
</g>
<!-- Node144389 -->
<g id="node17" class="node">
<title>Node144389</title>
<g id="a_node17"><a xlink:href="quickjs_8c.html#a4c9489297c684663f30e517204a9ec14" target="_top" xlink:title="JS_AddIntrinsicBaseObjects">
<polygon fill="none" stroke="#000000" points="532.5,-133.5 532.5,-152.5 681.5,-152.5 681.5,-133.5 532.5,-133.5"/>
<text text-anchor="middle" x="607" y="-140.5" font-family="Helvetica,sans-Serif" font-size="10.00" fill="#000000">JS_AddIntrinsicBaseObjects</text>
</a>
</g>
</g>
<!-- Node144376&#45;&gt;Node144389 -->
<g id="edge26" class="edge">
<title>Node144376&#45;&gt;Node144389</title>
<path fill="none" stroke="#191970" d="M437.8302,-353.851C454.2819,-335.7617 479.4028,-305.8004 495,-276 519.6385,-228.925 492.3029,-198.4094 531,-162 535.0612,-158.1789 539.7709,-155.0944 544.8173,-152.6085"/>
<polygon fill="#191970" stroke="#191970" points="435.1737,-351.5685 430.9467,-361.2836 440.3095,-356.3249 435.1737,-351.5685"/>
</g>
<!-- Node144390 -->
<g id="node18" class="node">
<title>Node144390</title>
<g id="a_node18"><a xlink:href="quickjs_8c.html#ae022a327d9fa7079ad2f1d179ba5bdf0" target="_top" xlink:title="JS_AddIntrinsicAtomics">
<polygon fill="none" stroke="#000000" points="543,-361.5 543,-380.5 671,-380.5 671,-361.5 543,-361.5"/>
<text text-anchor="middle" x="607" y="-368.5" font-family="Helvetica,sans-Serif" font-size="10.00" fill="#000000">JS_AddIntrinsicAtomics</text>
</a>
</g>
</g>
<!-- Node144376&#45;&gt;Node144390 -->
<g id="edge28" class="edge">
<title>Node144376&#45;&gt;Node144390</title>
<path fill="none" stroke="#191970" d="M504.7108,-371C517.471,-371 530.4746,-371 542.7418,-371"/>
<polygon fill="#191970" stroke="#191970" points="504.5483,-367.5001 494.5482,-371 504.5482,-374.5001 504.5483,-367.5001"/>
</g>
<!-- Node144391 -->
<g id="node19" class="node">
<title>Node144391</title>
<g id="a_node19"><a xlink:href="quickjs_8c.html#a177d09828596bfe6df4bd90b2e93989d" target="_top" xlink:title="JS_AddIntrinsicTypedArrays">
<polygon fill="none" stroke="#000000" points="728,-309.5 728,-328.5 877,-328.5 877,-309.5 728,-309.5"/>
<text text-anchor="middle" x="802.5" y="-316.5" font-family="Helvetica,sans-Serif" font-size="10.00" fill="#000000">JS_AddIntrinsicTypedArrays</text>
</a>
</g>
</g>
<!-- Node144376&#45;&gt;Node144391 -->
<g id="edge31" class="edge">
<title>Node144376&#45;&gt;Node144391</title>
<path fill="none" stroke="#191970" d="M483.2534,-359.7194C498.8123,-357.033 515.4983,-354.2855 531,-352 597.3515,-342.2175 673.1377,-333.1838 727.7473,-327.0506"/>
<polygon fill="#191970" stroke="#191970" points="482.4653,-356.3039 473.2155,-361.4704 483.6683,-363.1998 482.4653,-356.3039"/>
</g>
<!-- Node144381&#45;&gt;Node144377 -->
<g id="edge11" class="edge">
<title>Node144381&#45;&gt;Node144377</title>
<path fill="none" stroke="#191970" d="M666.3166,-458.5296C700.1265,-465.1013 741.2326,-473.0913 769.3815,-478.5626"/>
<polygon fill="#191970" stroke="#191970" points="666.5647,-455.0124 656.0806,-456.54 665.229,-461.8838 666.5647,-455.0124"/>
</g>
<!-- Node144381&#45;&gt;Node144379 -->
<g id="edge12" class="edge">
<title>Node144381&#45;&gt;Node144379</title>
<path fill="none" stroke="#191970" d="M682.936,-447C713.6871,-447 747.4733,-447 771.2623,-447"/>
<polygon fill="#191970" stroke="#191970" points="682.6426,-443.5001 672.6425,-447 682.6425,-450.5001 682.6426,-443.5001"/>
</g>
<!-- Node144382&#45;&gt;Node144370 -->
<g id="edge14" class="edge">
<title>Node144382&#45;&gt;Node144370</title>
<path fill="none" stroke="#191970" d="M878.1632,-547.0646C880.8981,-545.5422 883.524,-543.8595 886,-542 934.5331,-505.5509 958.0027,-431.2886 965.0975,-404.7217"/>
<polygon fill="#191970" stroke="#191970" points="876.6151,-543.9253 869.1076,-551.4011 879.6385,-550.2387 876.6151,-543.9253"/>
</g>
<!-- Node144383&#45;&gt;Node144370 -->
<g id="edge16" class="edge">
<title>Node144383&#45;&gt;Node144370</title>
<path fill="none" stroke="#191970" d="M661.8348,-193.2214C669.026,-195.2565 676.2401,-197.5221 683,-200 777.4309,-234.6144 806.5296,-238.3573 886,-300 919.1395,-325.7053 948.6334,-366.6474 961.1429,-385.2418"/>
<polygon fill="#191970" stroke="#191970" points="662.654,-189.8174 652.0874,-190.5909 660.83,-196.5756 662.654,-189.8174"/>
</g>
<!-- Node144384&#45;&gt;Node144370 -->
<g id="edge18" class="edge">
<title>Node144384&#45;&gt;Node144370</title>
<path fill="none" stroke="#191970" d="M868.7382,-512.6064C874.8185,-510.287 880.6824,-507.4555 886,-504 925.6255,-478.2504 953.0798,-426.2063 963.1949,-404.6691"/>
<polygon fill="#191970" stroke="#191970" points="867.4259,-509.3547 859.0525,-515.846 869.6463,-515.9932 867.4259,-509.3547"/>
</g>
<!-- Node144385&#45;&gt;Node144370 -->
<g id="edge21" class="edge">
<title>Node144385&#45;&gt;Node144370</title>
<path fill="none" stroke="#191970" d="M677.3622,-271.635C679.3374,-272.9697 681.2245,-274.4213 683,-276 716.7432,-306.0019 683.1215,-343.5874 719,-371 777.3775,-415.6027 867.3901,-411.663 921.5539,-403.9083"/>
<polygon fill="#191970" stroke="#191970" points="678.6447,-268.3414 668.2109,-266.5015 675.2201,-274.4464 678.6447,-268.3414"/>
</g>
<!-- Node144386&#45;&gt;Node144370 -->
<g id="edge24" class="edge">
<title>Node144386&#45;&gt;Node144370</title>
<path fill="none" stroke="#191970" d="M672.4995,-230.5788C676.2757,-232.6729 679.8222,-235.1267 683,-238 718.0382,-269.6802 683.1826,-307.2036 719,-338 776.3675,-387.3256 812.5243,-352.9618 886,-371 903.1896,-375.22 922.1717,-380.7572 937.4888,-385.4495"/>
<polygon fill="#191970" stroke="#191970" points="673.8798,-227.3608 663.3365,-226.3172 670.9278,-233.7079 673.8798,-227.3608"/>
</g>
<!-- Node144389&#45;&gt;Node144370 -->
<g id="edge27" class="edge">
<title>Node144389&#45;&gt;Node144370</title>
<path fill="none" stroke="#191970" d="M691.9723,-143.7228C752.3061,-148.4743 831.8848,-163.8749 886,-209 943.6738,-257.0925 961.7953,-353.9194 966.2558,-385.0903"/>
<polygon fill="#191970" stroke="#191970" points="691.9237,-140.2108 681.703,-143.0014 691.4331,-147.1936 691.9237,-140.2108"/>
</g>
<!-- Node144390&#45;&gt;Node144391 -->
<g id="edge29" class="edge">
<title>Node144390&#45;&gt;Node144391</title>
<path fill="none" stroke="#191970" d="M652.7489,-358.8315C687.4562,-349.5999 734.5019,-337.0865 766.5391,-328.565"/>
<polygon fill="#191970" stroke="#191970" points="651.622,-355.5095 642.8577,-361.4624 653.4214,-362.2743 651.622,-355.5095"/>
</g>
<!-- Node144391&#45;&gt;Node144370 -->
<g id="edge30" class="edge">
<title>Node144391&#45;&gt;Node144370</title>
<path fill="none" stroke="#191970" d="M854.2346,-331.351C864.9422,-334.6018 876.0002,-338.4875 886,-343 912.0075,-354.7361 939.4135,-373.8161 954.892,-385.311"/>
<polygon fill="#191970" stroke="#191970" points="855.1189,-327.9633 844.54,-328.5443 853.1722,-334.6872 855.1189,-327.9633"/>
</g>
<!-- Node144392&#45;&gt;Node144389 -->
<g id="edge36" class="edge">
<title>Node144392&#45;&gt;Node144389</title>
<path fill="none" stroke="#191970" d="M482.0236,-130.1992C498.0945,-131.8453 515.6395,-133.6423 532.3665,-135.3556"/>
<polygon fill="#191970" stroke="#191970" points="482.0036,-126.6789 471.699,-129.1417 481.2903,-133.6425 482.0036,-126.6789"/>
</g>
<!-- Node144392&#45;&gt;Node144391 -->
<g id="edge37" class="edge">
<title>Node144392&#45;&gt;Node144391</title>
<path fill="none" stroke="#191970" d="M464.2191,-111.9709C518.78,-99.1669 614.3428,-85.5508 683,-124 757.8289,-165.9055 791.4577,-275.9187 800.1399,-309.2748"/>
<polygon fill="#191970" stroke="#191970" points="463.0808,-108.646 454.199,-114.4222 464.7443,-115.4455 463.0808,-108.646"/>
</g>
<!-- Node144393 -->
<g id="node21" class="node">
<title>Node144393</title>
<g id="a_node21"><a xlink:href="quickjs-libc_8c.html#ad04466feec6822a3b838baf229f6dfa0" target="_top" xlink:title="js_std_add_helpers">
<polygon fill="none" stroke="#000000" points="552,-19.5 552,-38.5 662,-38.5 662,-19.5 552,-19.5"/>
<text text-anchor="middle" x="607" y="-26.5" font-family="Helvetica,sans-Serif" font-size="10.00" fill="#000000">js_std_add_helpers</text>
</a>
</g>
</g>
<!-- Node144392&#45;&gt;Node144393 -->
<g id="edge33" class="edge">
<title>Node144392&#45;&gt;Node144393</title>
<path fill="none" stroke="#191970" d="M449.3797,-109.722C487.7305,-90.0814 555.7192,-55.2624 588.4184,-38.5162"/>
<polygon fill="#191970" stroke="#191970" points="447.6128,-106.6945 440.3076,-114.3681 450.8037,-112.925 447.6128,-106.6945"/>
</g>
<!-- Node144373 -->
<g id="node22" class="node">
<title>Node144373</title>
<g id="a_node22"><a xlink:href="qjs_8cpp.html#a3c04138a5bfe5d72780bb7e82a18e627" target="_top" xlink:title="main">
<polygon fill="none" stroke="#000000" points="782,-.5 782,-19.5 823,-19.5 823,-.5 782,-.5"/>
<text text-anchor="middle" x="802.5" y="-7.5" font-family="Helvetica,sans-Serif" font-size="10.00" fill="#000000">main</text>
</a>
</g>
</g>
<!-- Node144393&#45;&gt;Node144373 -->
<g id="edge34" class="edge">
<title>Node144393&#45;&gt;Node144373</title>
<path fill="none" stroke="#191970" d="M672.2355,-22.66C710.2595,-18.9645 755.6913,-14.5492 781.6128,-12.03"/>
<polygon fill="#191970" stroke="#191970" points="671.8531,-19.1806 662.2385,-23.6315 672.5302,-26.1477 671.8531,-19.1806"/>
</g>
<!-- Node144394 -->
<g id="node23" class="node">
<title>Node144394</title>
<g id="a_node23"><a xlink:href="quickjs-libc_8c.html#a1fbb3adc15e7b967479fc1940e99b67a" target="_top" xlink:title="worker_func">
<polygon fill="none" stroke="#ff0000" points="764,-38.5 764,-57.5 841,-57.5 841,-38.5 764,-38.5"/>
<text text-anchor="middle" x="802.5" y="-45.5" font-family="Helvetica,sans-Serif" font-size="10.00" fill="#000000">worker_func</text>
</a>
</g>
</g>
<!-- Node144393&#45;&gt;Node144394 -->
<g id="edge35" class="edge">
<title>Node144393&#45;&gt;Node144394</title>
<path fill="none" stroke="#191970" d="M672.3321,-35.3494C702.6849,-38.2993 737.7405,-41.7062 763.8203,-44.2408"/>
<polygon fill="#191970" stroke="#191970" points="672.5302,-31.8523 662.2385,-34.3685 671.8531,-38.8194 672.5302,-31.8523"/>
</g>
<!-- Node144396&#45;&gt;Node144385 -->
<g id="edge39" class="edge">
<title>Node144396&#45;&gt;Node144385</title>
<path fill="none" stroke="#191970" d="M496.0246,-257C512.0896,-257 528.9139,-257 544.4659,-257"/>
<polygon fill="#191970" stroke="#191970" points="495.5984,-253.5001 485.5983,-257 495.5983,-260.5001 495.5984,-253.5001"/>
</g>
<!-- Node144396&#45;&gt;Node144389 -->
<g id="edge40" class="edge">
<title>Node144396&#45;&gt;Node144389</title>
<path fill="none" stroke="#191970" d="M456.8946,-243.3653C469.8498,-237.2335 484.0117,-229.0802 495,-219 517.0798,-198.7451 506.7227,-179.5611 531,-162 536.3997,-158.0941 542.5166,-154.9874 548.8785,-152.5169"/>
<polygon fill="#191970" stroke="#191970" points="455.4298,-240.1863 447.7372,-247.4715 458.2939,-246.5736 455.4298,-240.1863"/>
</g>
<!-- Node144397&#45;&gt;Node144383 -->
<g id="edge42" class="edge">
<title>Node144397&#45;&gt;Node144383</title>
<path fill="none" stroke="#191970" d="M505.0892,-191.4383C518.2638,-190.0889 531.6873,-188.714 544.2825,-187.4239"/>
<polygon fill="#191970" stroke="#191970" points="504.6722,-187.9626 495.0809,-192.4634 505.3856,-194.9262 504.6722,-187.9626"/>
</g>
<!-- Node144397&#45;&gt;Node144386 -->
<g id="edge43" class="edge">
<title>Node144397&#45;&gt;Node144386</title>
<path fill="none" stroke="#191970" d="M505.2,-208.573C520.7011,-210.1608 536.5426,-211.7833 550.9704,-213.2611"/>
<polygon fill="#191970" stroke="#191970" points="505.3856,-205.0738 495.0809,-207.5366 504.6722,-212.0374 505.3856,-205.0738"/>
</g>
<!-- Node144397&#45;&gt;Node144389 -->
<g id="edge44" class="edge">
<title>Node144397&#45;&gt;Node144389</title>
<path fill="none" stroke="#191970" d="M456.5719,-186.9358C477.9315,-179.2034 505.8607,-169.4883 531,-162 542.2097,-158.6609 554.4648,-155.4211 565.7978,-152.5906"/>
<polygon fill="#191970" stroke="#191970" points="455.1503,-183.7287 446.9552,-190.4437 457.5492,-190.3049 455.1503,-183.7287"/>
</g>
<!-- Node144398&#45;&gt;Node144391 -->
<g id="edge46" class="edge">
<title>Node144398&#45;&gt;Node144391</title>
<path fill="none" stroke="#191970" d="M260.2924,-101.965C339.9909,-73.0613 545.3382,-12.4137 683,-95 765.7751,-144.6585 794.3805,-273.2836 800.9201,-309.427"/>
<polygon fill="#191970" stroke="#191970" points="258.9364,-98.7348 250.7709,-105.4858 261.3642,-105.3003 258.9364,-98.7348"/>
</g>
</g>
</svg>
        <g id="navigator" transform="translate(0 0)" fill="#404254">
                <rect fill="#f2f5e9" fill-opacity="0.5" stroke="#606060" stroke-width=".5" x="0" y="0" width="60" height="60"/>
                <use id="zoomplus" xlink:href="#zoomPlus" x="17" y="9" onmousedown="handleZoom(evt,'in')"/>
                <use id="zoomminus" xlink:href="#zoomMin" x="42" y="9" onmousedown="handleZoom(evt,'out')"/>
                <use id="reset" xlink:href="#resetDef" x="30" y="36" onmousedown="handleReset()"/>
                <g id="arrowUp" xlink:href="#dirArrow" transform="translate(30 24)" onmousedown="handlePan(0,-1)">
                  <use xlink:href="#rim" fill="#404040">
                        <set attributeName="fill" to="#808080" begin="arrowUp.mouseover" end="arrowUp.mouseout"/>
                  </use>
                  <path fill="none" stroke="white" stroke-width="1.5" d="M0,-3.0v7 M-2.5,-0.5L0,-3.0L2.5,-0.5"/>
                </g>
                <g id="arrowRight" xlink:href="#dirArrow" transform="rotate(90) translate(36 -43)" onmousedown="handlePan(1,0)">
                  <use xlink:href="#rim" fill="#404040">
                        <set attributeName="fill" to="#808080" begin="arrowRight.mouseover" end="arrowRight.mouseout"/>
                  </use>
                  <path fill="none" stroke="white" stroke-width="1.5" d="M0,-3.0v7 M-2.5,-0.5L0,-3.0L2.5,-0.5"/>
                </g>
                <g id="arrowDown" xlink:href="#dirArrow" transform="rotate(180) translate(-30 -48)" onmousedown="handlePan(0,1)">
                  <use xlink:href="#rim" fill="#404040">
                        <set attributeName="fill" to="#808080" begin="arrowDown.mouseover" end="arrowDown.mouseout"/>
                  </use>
                  <path fill="none" stroke="white" stroke-width="1.5" d="M0,-3.0v7 M-2.5,-0.5L0,-3.0L2.5,-0.5"/>
                </g>
                <g id="arrowLeft" xlink:href="#dirArrow" transform="rotate(270) translate(-36 17)" onmousedown="handlePan(-1,0)">
                  <use xlink:href="#rim" fill="#404040">
                        <set attributeName="fill" to="#808080" begin="arrowLeft.mouseover" end="arrowLeft.mouseout"/>
                  </use>
                  <path fill="none" stroke="white" stroke-width="1.5" d="M0,-3.0v7 M-2.5,-0.5L0,-3.0L2.5,-0.5"/>
                </g>
        </g>
        <svg viewBox="0 0 15 15" width="100%" height="30px" preserveAspectRatio="xMaxYMin meet">
         <g id="arrow_out" transform="scale(0.3 0.3)">
          <a xlink:href="quickjs_8c_a76d4772691a319f48dc636a0e7f6c1ed_icgraph_org.svg" target="_base">
           <rect id="button" ry="5" rx="5" y="6" x="6" height="38" width="38"
                fill="#f2f5e9" fill-opacity="0.5" stroke="#606060" stroke-width="1.0"/>
           <path id="arrow"
             d="M 11.500037,31.436501 C 11.940474,20.09759 22.043105,11.32322 32.158766,21.979434 L 37.068811,17.246167 C 37.068811,17.246167 37.088388,32 37.088388,32 L 22.160133,31.978069 C 22.160133,31.978069 26.997745,27.140456 26.997745,27.140456 C 18.528582,18.264221 13.291696,25.230495 11.500037,31.436501 z"
             style="fill:#404040;"/>
          </a>
         </g>
        </svg>
</svg>
