<?xml version="1.0" encoding="UTF-8" standalone="no"?>
<!DOCTYPE svg PUBLIC "-//W3C//DTD SVG 1.1//EN"
 "http://www.w3.org/Graphics/SVG/1.1/DTD/svg11.dtd">
<!-- Generated by graphviz version 2.40.1 (20161225.0304)
 -->
<!-- Title: js_evaluate_module Pages: 1 -->
<svg width="568pt" height="85pt"
 viewBox="0.00 0.00 568.00 85.00" xmlns="http://www.w3.org/2000/svg" xmlns:xlink="http://www.w3.org/1999/xlink">
<g id="graph0" class="graph" transform="scale(1 1) rotate(0) translate(4 81)">
<title>js_evaluate_module</title>
<!-- Node351742 -->
<g id="node1" class="node">
<title>Node351742</title>
<polygon fill="#bfbfbf" stroke="#000000" points="0,-19.5 0,-38.5 115,-38.5 115,-19.5 0,-19.5"/>
<text text-anchor="middle" x="57.5" y="-26.5" font-family="Helvetica,sans-Serif" font-size="10.00" fill="#000000">js_evaluate_module</text>
</g>
<!-- Node351742&#45;&gt;Node351742 -->
<g id="edge6" class="edge">
<title>Node351742&#45;&gt;Node351742</title>
<path fill="none" stroke="#191970" d="M28.0076,-47.6539C29.2404,-52.9368 39.0712,-57 57.5,-57 85.582,-57 93.6995,-47.5653 81.8524,-38.7571"/>
<polygon fill="#191970" stroke="#191970" points="31.1757,-49.1668 33.1476,-38.7571 25.1145,-45.665 31.1757,-49.1668"/>
</g>
<!-- Node351743 -->
<g id="node2" class="node">
<title>Node351743</title>
<g id="a_node2"><a xlink:href="quickjs_8c.html#a5d217acce00892ab2b50a1dcc1eb4cc8" target="_top" xlink:title="JS_EvalFunctionInternal">
<polygon fill="none" stroke="#000000" points="151,-19.5 151,-38.5 281,-38.5 281,-19.5 151,-19.5"/>
<text text-anchor="middle" x="216" y="-26.5" font-family="Helvetica,sans-Serif" font-size="10.00" fill="#000000">JS_EvalFunctionInternal</text>
</a>
</g>
</g>
<!-- Node351742&#45;&gt;Node351743 -->
<g id="edge1" class="edge">
<title>Node351742&#45;&gt;Node351743</title>
<path fill="none" stroke="#191970" d="M125.3665,-29C133.8189,-29 142.4477,-29 150.8575,-29"/>
<polygon fill="#191970" stroke="#191970" points="125.1705,-25.5001 115.1705,-29 125.1705,-32.5001 125.1705,-25.5001"/>
</g>
<!-- Node351744 -->
<g id="node3" class="node">
<title>Node351744</title>
<g id="a_node3"><a xlink:href="quickjs_8c.html#af38ab3d672d41db0fa7a75b5c24149e4" target="_top" xlink:title="JS_EvalFunction">
<polygon fill="none" stroke="#000000" points="321,-38.5 321,-57.5 413,-57.5 413,-38.5 321,-38.5"/>
<text text-anchor="middle" x="367" y="-45.5" font-family="Helvetica,sans-Serif" font-size="10.00" fill="#000000">JS_EvalFunction</text>
</a>
</g>
</g>
<!-- Node351743&#45;&gt;Node351744 -->
<g id="edge2" class="edge">
<title>Node351743&#45;&gt;Node351744</title>
<path fill="none" stroke="#191970" d="M291.3294,-38.4785C301.3335,-39.7373 311.3416,-40.9966 320.6511,-42.168"/>
<polygon fill="#191970" stroke="#191970" points="291.7113,-34.9991 281.3526,-37.2232 290.8374,-41.9443 291.7113,-34.9991"/>
</g>
<!-- Node351938 -->
<g id="node6" class="node">
<title>Node351938</title>
<g id="a_node6"><a xlink:href="quickjs_8c.html#a46a8a7e155cfd0af984f6725f060f0d6" target="_top" xlink:title="__JS_EvalInternal">
<polygon fill="none" stroke="#ff0000" points="317,-.5 317,-19.5 417,-19.5 417,-.5 317,-.5"/>
<text text-anchor="middle" x="367" y="-7.5" font-family="Helvetica,sans-Serif" font-size="10.00" fill="#000000">__JS_EvalInternal</text>
</a>
</g>
</g>
<!-- Node351743&#45;&gt;Node351938 -->
<g id="edge5" class="edge">
<title>Node351743&#45;&gt;Node351938</title>
<path fill="none" stroke="#191970" d="M291.3595,-19.5177C299.9072,-18.4421 308.4573,-17.3663 316.5716,-16.3453"/>
<polygon fill="#191970" stroke="#191970" points="290.8374,-16.0557 281.3526,-20.7768 291.7113,-23.0009 290.8374,-16.0557"/>
</g>
<!-- Node351745 -->
<g id="node4" class="node">
<title>Node351745</title>
<g id="a_node4"><a xlink:href="quickjs-libc_8c.html#ab1b439d304c2125490b47ef262b5df67" target="_top" xlink:title="js_std_eval_binary">
<polygon fill="none" stroke="#000000" points="453,-57.5 453,-76.5 560,-76.5 560,-57.5 453,-57.5"/>
<text text-anchor="middle" x="506.5" y="-64.5" font-family="Helvetica,sans-Serif" font-size="10.00" fill="#000000">js_std_eval_binary</text>
</a>
</g>
</g>
<!-- Node351744&#45;&gt;Node351745 -->
<g id="edge3" class="edge">
<title>Node351744&#45;&gt;Node351745</title>
<path fill="none" stroke="#191970" d="M423.0882,-55.6392C432.8694,-56.9715 443.0236,-58.3545 452.7403,-59.6779"/>
<polygon fill="#191970" stroke="#191970" points="423.445,-52.1556 413.0641,-54.274 422.5003,-59.0916 423.445,-52.1556"/>
</g>
<!-- Node351746 -->
<g id="node5" class="node">
<title>Node351746</title>
<g id="a_node5"><a xlink:href="quickjs_8c.html#aa75a2b06808d8da661d4eb6698b17cab" target="_top" xlink:title="JS_RunModule">
<polygon fill="none" stroke="#ff0000" points="464.5,-19.5 464.5,-38.5 548.5,-38.5 548.5,-19.5 464.5,-19.5"/>
<text text-anchor="middle" x="506.5" y="-26.5" font-family="Helvetica,sans-Serif" font-size="10.00" fill="#000000">JS_RunModule</text>
</a>
</g>
</g>
<!-- Node351744&#45;&gt;Node351746 -->
<g id="edge4" class="edge">
<title>Node351744&#45;&gt;Node351746</title>
<path fill="none" stroke="#191970" d="M423.3353,-40.3271C436.9965,-38.4664 451.3712,-36.5086 464.255,-34.7538"/>
<polygon fill="#191970" stroke="#191970" points="422.5003,-36.9084 413.0641,-41.726 423.445,-43.8444 422.5003,-36.9084"/>
</g>
</g>
</svg>
