<?xml version="1.0" encoding="UTF-8" standalone="no"?>
<!DOCTYPE svg PUBLIC "-//W3C//DTD SVG 1.1//EN"
 "http://www.w3.org/Graphics/SVG/1.1/DTD/svg11.dtd">
<!-- Generated by graphviz version 2.40.1 (20161225.0304)
 -->
<!-- Title: js_std_promise_rejection_tracker Pages: 1 -->
<svg width="673pt" height="218pt"
 viewBox="0.00 0.00 673.00 218.00" xmlns="http://www.w3.org/2000/svg" xmlns:xlink="http://www.w3.org/1999/xlink">
<g id="graph0" class="graph" transform="scale(1 1) rotate(0) translate(4 214)">
<title>js_std_promise_rejection_tracker</title>
<!-- Node33681 -->
<g id="node1" class="node">
<title>Node33681</title>
<polygon fill="#bfbfbf" stroke="#000000" points="0,-71 0,-101 138,-101 138,-71 0,-71"/>
<text text-anchor="start" x="8" y="-89" font-family="Helvetica,sans-Serif" font-size="10.00" fill="#000000">js_std_promise_rejection</text>
<text text-anchor="middle" x="69" y="-78" font-family="Helvetica,sans-Serif" font-size="10.00" fill="#000000">_tracker</text>
</g>
<!-- Node33682 -->
<g id="node2" class="node">
<title>Node33682</title>
<g id="a_node2"><a xlink:href="quickjs-libc_8c.html#a410cd5dce0fb0e6a978ed313963f3962" target="_top" xlink:title="js_std_dump_error1">
<polygon fill="none" stroke="#000000" points="174,-76.5 174,-95.5 287,-95.5 287,-76.5 174,-76.5"/>
<text text-anchor="middle" x="230.5" y="-83.5" font-family="Helvetica,sans-Serif" font-size="10.00" fill="#000000">js_std_dump_error1</text>
</a>
</g>
</g>
<!-- Node33681&#45;&gt;Node33682 -->
<g id="edge1" class="edge">
<title>Node33681&#45;&gt;Node33682</title>
<path fill="none" stroke="#191970" d="M138.4278,-86C146.8154,-86 155.3692,-86 163.7177,-86"/>
<polygon fill="#191970" stroke="#191970" points="163.7741,-89.5001 173.774,-86 163.774,-82.5001 163.7741,-89.5001"/>
</g>
<!-- Node33683 -->
<g id="node3" class="node">
<title>Node33683</title>
<g id="a_node3"><a xlink:href="quickjs-libc_8c.html#a2e5a713d49edeef87d8ed87471679f39" target="_top" xlink:title="js_dump_obj">
<polygon fill="none" stroke="#000000" points="335.5,-152.5 335.5,-171.5 413.5,-171.5 413.5,-152.5 335.5,-152.5"/>
<text text-anchor="middle" x="374.5" y="-159.5" font-family="Helvetica,sans-Serif" font-size="10.00" fill="#000000">js_dump_obj</text>
</a>
</g>
</g>
<!-- Node33682&#45;&gt;Node33683 -->
<g id="edge2" class="edge">
<title>Node33682&#45;&gt;Node33683</title>
<path fill="none" stroke="#191970" d="M246.6708,-95.5851C264.9756,-106.3184 295.7917,-124.038 323,-138 329.6973,-141.4367 336.9781,-144.9572 343.8993,-148.206"/>
<polygon fill="#191970" stroke="#191970" points="342.4812,-151.4064 353.026,-152.4346 345.4239,-145.0549 342.4812,-151.4064"/>
</g>
<!-- Node33685 -->
<g id="node5" class="node">
<title>Node33685</title>
<g id="a_node5"><a xlink:href="quickjs_8h.html#afaa20c47565bc704c6c85f3d77254e7d" target="_top" xlink:title="JS_FreeValue">
<polygon fill="none" stroke="#ff0000" points="587,-152.5 587,-171.5 665,-171.5 665,-152.5 587,-152.5"/>
<text text-anchor="middle" x="626" y="-159.5" font-family="Helvetica,sans-Serif" font-size="10.00" fill="#000000">JS_FreeValue</text>
</a>
</g>
</g>
<!-- Node33682&#45;&gt;Node33685 -->
<g id="edge6" class="edge">
<title>Node33682&#45;&gt;Node33685</title>
<path fill="none" stroke="#191970" d="M275.13,-95.5189C290.2989,-98.6605 307.3656,-102.0925 323,-105 423.9994,-123.7827 450.4542,-121.9233 551,-143 560.6595,-145.0249 570.9526,-147.4526 580.7198,-149.8851"/>
<polygon fill="#191970" stroke="#191970" points="580.1057,-153.3401 590.6592,-152.4051 581.8261,-146.5548 580.1057,-153.3401"/>
</g>
<!-- Node34118 -->
<g id="node7" class="node">
<title>Node34118</title>
<g id="a_node7"><a xlink:href="quickjs_8c.html#a04f589361a4fbc30d997402e92a50de2" target="_top" xlink:title="JS_GetPropertyStr">
<polygon fill="none" stroke="#000000" points="323,-76.5 323,-95.5 426,-95.5 426,-76.5 323,-76.5"/>
<text text-anchor="middle" x="374.5" y="-83.5" font-family="Helvetica,sans-Serif" font-size="10.00" fill="#000000">JS_GetPropertyStr</text>
</a>
</g>
</g>
<!-- Node33682&#45;&gt;Node34118 -->
<g id="edge7" class="edge">
<title>Node33682&#45;&gt;Node34118</title>
<path fill="none" stroke="#191970" d="M287.4126,-86C295.6843,-86 304.2342,-86 312.5985,-86"/>
<polygon fill="#191970" stroke="#191970" points="312.678,-89.5001 322.678,-86 312.678,-82.5001 312.678,-89.5001"/>
</g>
<!-- Node34119 -->
<g id="node11" class="node">
<title>Node34119</title>
<g id="a_node11"><a xlink:href="quickjs_8c.html#afc9f16af1ddbee548aa05ae2d28dcd16" target="_top" xlink:title="JS_IsError">
<polygon fill="none" stroke="#000000" points="343.5,-38.5 343.5,-57.5 405.5,-57.5 405.5,-38.5 343.5,-38.5"/>
<text text-anchor="middle" x="374.5" y="-45.5" font-family="Helvetica,sans-Serif" font-size="10.00" fill="#000000">JS_IsError</text>
</a>
</g>
</g>
<!-- Node33682&#45;&gt;Node34119 -->
<g id="edge11" class="edge">
<title>Node33682&#45;&gt;Node34119</title>
<path fill="none" stroke="#191970" d="M266.8373,-76.411C287.0289,-71.0827 312.2266,-64.4332 333.1678,-58.9071"/>
<polygon fill="#191970" stroke="#191970" points="334.2895,-62.231 343.0654,-56.2952 332.5033,-55.4627 334.2895,-62.231"/>
</g>
<!-- Node33893 -->
<g id="node12" class="node">
<title>Node33893</title>
<g id="a_node12"><a xlink:href="quickjs_8h.html#a4e407128a9605afb77523e49e9a627fd" target="_top" xlink:title="JS_IsUndefined">
<polygon fill="none" stroke="#000000" points="330,-.5 330,-19.5 419,-19.5 419,-.5 330,-.5"/>
<text text-anchor="middle" x="374.5" y="-7.5" font-family="Helvetica,sans-Serif" font-size="10.00" fill="#000000">JS_IsUndefined</text>
</a>
</g>
</g>
<!-- Node33682&#45;&gt;Node33893 -->
<g id="edge12" class="edge">
<title>Node33682&#45;&gt;Node33893</title>
<path fill="none" stroke="#191970" d="M244.1114,-76.4127C261.7293,-64.2892 293.656,-43.278 323,-29 327.112,-26.9992 331.4919,-25.0809 335.8947,-23.2845"/>
<polygon fill="#191970" stroke="#191970" points="337.4216,-26.4462 345.475,-19.5619 334.8862,-19.9215 337.4216,-26.4462"/>
</g>
<!-- Node33684 -->
<g id="node4" class="node">
<title>Node33684</title>
<g id="a_node4"><a xlink:href="quickjs_8c.html#ae0bc4f65da64810facb2cb9e476eda2e" target="_top" xlink:title="JS_FreeCString">
<polygon fill="none" stroke="#000000" points="463.5,-190.5 463.5,-209.5 549.5,-209.5 549.5,-190.5 463.5,-190.5"/>
<text text-anchor="middle" x="506.5" y="-197.5" font-family="Helvetica,sans-Serif" font-size="10.00" fill="#000000">JS_FreeCString</text>
</a>
</g>
</g>
<!-- Node33683&#45;&gt;Node33684 -->
<g id="edge3" class="edge">
<title>Node33683&#45;&gt;Node33684</title>
<path fill="none" stroke="#191970" d="M407.8092,-171.589C424.6928,-176.4494 445.3948,-182.4091 463.4705,-187.6127"/>
<polygon fill="#191970" stroke="#191970" points="462.6235,-191.011 473.2015,-190.4141 464.56,-184.2842 462.6235,-191.011"/>
</g>
<!-- Node33723 -->
<g id="node6" class="node">
<title>Node33723</title>
<g id="a_node6"><a xlink:href="quickjs_8h.html#af931f06630ab719b5f82a16eb27effd1" target="_top" xlink:title="JS_ToCString">
<polygon fill="none" stroke="#ff0000" points="468,-152.5 468,-171.5 545,-171.5 545,-152.5 468,-152.5"/>
<text text-anchor="middle" x="506.5" y="-159.5" font-family="Helvetica,sans-Serif" font-size="10.00" fill="#000000">JS_ToCString</text>
</a>
</g>
</g>
<!-- Node33683&#45;&gt;Node33723 -->
<g id="edge5" class="edge">
<title>Node33683&#45;&gt;Node33723</title>
<path fill="none" stroke="#191970" d="M413.747,-162C427.4453,-162 442.9944,-162 457.3933,-162"/>
<polygon fill="#191970" stroke="#191970" points="457.6319,-165.5001 467.6318,-162 457.6318,-158.5001 457.6319,-165.5001"/>
</g>
<!-- Node33684&#45;&gt;Node33685 -->
<g id="edge4" class="edge">
<title>Node33684&#45;&gt;Node33685</title>
<path fill="none" stroke="#191970" d="M536.6549,-190.411C551.6566,-185.6406 569.9883,-179.8112 586.1338,-174.6771"/>
<polygon fill="#191970" stroke="#191970" points="587.3856,-177.9518 595.8548,-171.5859 585.2643,-171.281 587.3856,-177.9518"/>
</g>
<!-- Node33987 -->
<g id="node8" class="node">
<title>Node33987</title>
<g id="a_node8"><a xlink:href="quickjs_8c.html#aa2ef5af1544a3012f91a80c98c326b8f" target="_top" xlink:title="JS_NewAtom">
<polygon fill="none" stroke="#ff0000" points="467,-76.5 467,-95.5 546,-95.5 546,-76.5 467,-76.5"/>
<text text-anchor="middle" x="506.5" y="-83.5" font-family="Helvetica,sans-Serif" font-size="10.00" fill="#000000">JS_NewAtom</text>
</a>
</g>
</g>
<!-- Node34118&#45;&gt;Node33987 -->
<g id="edge8" class="edge">
<title>Node34118&#45;&gt;Node33987</title>
<path fill="none" stroke="#191970" d="M426.291,-86C436.2618,-86 446.6868,-86 456.5963,-86"/>
<polygon fill="#191970" stroke="#191970" points="456.6957,-89.5001 466.6957,-86 456.6956,-82.5001 456.6957,-89.5001"/>
</g>
<!-- Node33755 -->
<g id="node9" class="node">
<title>Node33755</title>
<g id="a_node9"><a xlink:href="quickjs_8h.html#a89b7c8686c7eee70b86be722ee4730ad" target="_top" xlink:title="JS_GetProperty">
<polygon fill="none" stroke="#ff0000" points="462,-38.5 462,-57.5 551,-57.5 551,-38.5 462,-38.5"/>
<text text-anchor="middle" x="506.5" y="-45.5" font-family="Helvetica,sans-Serif" font-size="10.00" fill="#000000">JS_GetProperty</text>
</a>
</g>
</g>
<!-- Node34118&#45;&gt;Node33755 -->
<g id="edge9" class="edge">
<title>Node34118&#45;&gt;Node33755</title>
<path fill="none" stroke="#191970" d="M407.8092,-76.411C424.6928,-71.5506 445.3948,-65.5909 463.4705,-60.3873"/>
<polygon fill="#191970" stroke="#191970" points="464.56,-63.7158 473.2015,-57.5859 462.6235,-56.989 464.56,-63.7158"/>
</g>
<!-- Node33704 -->
<g id="node10" class="node">
<title>Node33704</title>
<g id="a_node10"><a xlink:href="quickjs_8c.html#ab7fc45a99935a1c0ba50b0216d9401a9" target="_top" xlink:title="JS_FreeAtom">
<polygon fill="none" stroke="#ff0000" points="468,-.5 468,-19.5 545,-19.5 545,-.5 468,-.5"/>
<text text-anchor="middle" x="506.5" y="-7.5" font-family="Helvetica,sans-Serif" font-size="10.00" fill="#000000">JS_FreeAtom</text>
</a>
</g>
</g>
<!-- Node34118&#45;&gt;Node33704 -->
<g id="edge10" class="edge">
<title>Node34118&#45;&gt;Node33704</title>
<path fill="none" stroke="#191970" d="M407.4631,-76.4092C413.8742,-73.8448 420.3511,-70.7247 426,-67 445.4224,-54.1936 442.9044,-42.2888 462,-29 464.5383,-27.2336 467.2667,-25.5823 470.0781,-24.0496"/>
<polygon fill="#191970" stroke="#191970" points="471.7785,-27.1138 479.2095,-19.5619 468.691,-20.8315 471.7785,-27.1138"/>
</g>
</g>
</svg>
