<?xml version="1.0" encoding="UTF-8" standalone="no"?>
<!DOCTYPE svg PUBLIC "-//W3C//DTD SVG 1.1//EN"
 "http://www.w3.org/Graphics/SVG/1.1/DTD/svg11.dtd">
<!-- Generated by graphviz version 2.40.1 (20161225.0304)
 -->
<!-- Title: JS_AddIntrinsicRegExp Pages: 1 -->
<svg width="570pt" height="28pt"
 viewBox="0.00 0.00 570.00 28.00" xmlns="http://www.w3.org/2000/svg" xmlns:xlink="http://www.w3.org/1999/xlink">
<g id="graph0" class="graph" transform="scale(1 1) rotate(0) translate(4 24)">
<title>JS_AddIntrinsicRegExp</title>
<!-- Node438936 -->
<g id="node1" class="node">
<title>Node438936</title>
<polygon fill="#bfbfbf" stroke="#000000" points="0,-.5 0,-19.5 125,-19.5 125,-.5 0,-.5"/>
<text text-anchor="middle" x="62.5" y="-7.5" font-family="Helvetica,sans-Serif" font-size="10.00" fill="#000000">JS_AddIntrinsicRegExp</text>
</g>
<!-- Node438937 -->
<g id="node2" class="node">
<title>Node438937</title>
<g id="a_node2"><a xlink:href="quickjs_8c.html#ad8aedb643b8753b7a15f6cb2df61945e" target="_top" xlink:title="JS_NewContext">
<polygon fill="none" stroke="#000000" points="161,-.5 161,-19.5 252,-19.5 252,-.5 161,-.5"/>
<text text-anchor="middle" x="206.5" y="-7.5" font-family="Helvetica,sans-Serif" font-size="10.00" fill="#000000">JS_NewContext</text>
</a>
</g>
</g>
<!-- Node438936&#45;&gt;Node438937 -->
<g id="edge1" class="edge">
<title>Node438936&#45;&gt;Node438937</title>
<path fill="none" stroke="#191970" d="M135.3978,-10C144.0683,-10 152.7214,-10 160.8541,-10"/>
<polygon fill="#191970" stroke="#191970" points="135.2416,-6.5001 125.2416,-10 135.2416,-13.5001 135.2416,-6.5001"/>
</g>
<!-- Node438938 -->
<g id="node3" class="node">
<title>Node438938</title>
<g id="a_node3"><a xlink:href="classqjs_1_1Context.html#a4392a23648acfc4bf6b445336efb5007" target="_top" xlink:title="qjs::Context::Context">
<polygon fill="none" stroke="#000000" points="288,-.5 288,-19.5 407,-19.5 407,-.5 288,-.5"/>
<text text-anchor="middle" x="347.5" y="-7.5" font-family="Helvetica,sans-Serif" font-size="10.00" fill="#000000">qjs::Context::Context</text>
</a>
</g>
</g>
<!-- Node438937&#45;&gt;Node438938 -->
<g id="edge2" class="edge">
<title>Node438937&#45;&gt;Node438938</title>
<path fill="none" stroke="#191970" d="M262.322,-10C270.7011,-10 279.3697,-10 287.8255,-10"/>
<polygon fill="#191970" stroke="#191970" points="262.2787,-6.5001 252.2787,-10 262.2786,-13.5001 262.2787,-6.5001"/>
</g>
<!-- Node438939 -->
<g id="node4" class="node">
<title>Node438939</title>
<g id="a_node4"><a xlink:href="classqjs_1_1Context.html#af725fb8083d8c33a37198d6acaf1a836" target="_top" xlink:title="qjs::Context::Context">
<polygon fill="none" stroke="#ff0000" points="443,-.5 443,-19.5 562,-19.5 562,-.5 443,-.5"/>
<text text-anchor="middle" x="502.5" y="-7.5" font-family="Helvetica,sans-Serif" font-size="10.00" fill="#000000">qjs::Context::Context</text>
</a>
</g>
</g>
<!-- Node438938&#45;&gt;Node438939 -->
<g id="edge3" class="edge">
<title>Node438938&#45;&gt;Node438939</title>
<path fill="none" stroke="#191970" d="M417.6612,-10C426.1217,-10 434.6999,-10 442.9877,-10"/>
<polygon fill="#191970" stroke="#191970" points="417.4271,-6.5001 407.427,-10 417.427,-13.5001 417.4271,-6.5001"/>
</g>
</g>
</svg>
