<?xml version="1.0" encoding="UTF-8" standalone="no"?>
<!DOCTYPE svg PUBLIC "-//W3C//DTD SVG 1.1//EN"
 "http://www.w3.org/Graphics/SVG/1.1/DTD/svg11.dtd">
<!-- Generated by graphviz version 2.40.1 (20161225.0304)
 -->
<!-- Title: JS_IsError Pages: 1 -->
<svg width="679pt" height="203pt"
 viewBox="0.00 0.00 679.00 202.87" xmlns="http://www.w3.org/2000/svg" xmlns:xlink="http://www.w3.org/1999/xlink">
<g id="graph0" class="graph" transform="scale(1 1) rotate(0) translate(4 198.8732)">
<title>JS_IsError</title>
<!-- Node229038 -->
<g id="node1" class="node">
<title>Node229038</title>
<polygon fill="#bfbfbf" stroke="#000000" points="0,-105.7466 0,-124.7466 62,-124.7466 62,-105.7466 0,-105.7466"/>
<text text-anchor="middle" x="31" y="-112.7466" font-family="Helvetica,sans-Serif" font-size="10.00" fill="#000000">JS_IsError</text>
</g>
<!-- Node229039 -->
<g id="node2" class="node">
<title>Node229039</title>
<g id="a_node2"><a xlink:href="classqjs_1_1Value.html#a57d738d3c1035c1cccbec16676fa59db" target="_top" xlink:title="qjs::Value::isError">
<polygon fill="none" stroke="#000000" points="104,-162.7466 104,-181.7466 205,-181.7466 205,-162.7466 104,-162.7466"/>
<text text-anchor="middle" x="154.5" y="-169.7466" font-family="Helvetica,sans-Serif" font-size="10.00" fill="#000000">qjs::Value::isError</text>
</a>
</g>
</g>
<!-- Node229038&#45;&gt;Node229039 -->
<g id="edge1" class="edge">
<title>Node229038&#45;&gt;Node229039</title>
<path fill="none" stroke="#191970" d="M60.8076,-129.0039C83.3725,-139.4185 113.7902,-153.4574 133.7614,-162.6749"/>
<polygon fill="#191970" stroke="#191970" points="62.2175,-125.7998 51.6711,-124.7871 59.284,-132.1556 62.2175,-125.7998"/>
</g>
<!-- Node229041 -->
<g id="node4" class="node">
<title>Node229041</title>
<g id="a_node4"><a xlink:href="quickjs-libc_8c.html#a410cd5dce0fb0e6a978ed313963f3962" target="_top" xlink:title="js_std_dump_error1">
<polygon fill="none" stroke="#000000" points="98,-86.7466 98,-105.7466 211,-105.7466 211,-86.7466 98,-86.7466"/>
<text text-anchor="middle" x="154.5" y="-93.7466" font-family="Helvetica,sans-Serif" font-size="10.00" fill="#000000">js_std_dump_error1</text>
</a>
</g>
</g>
<!-- Node229038&#45;&gt;Node229041 -->
<g id="edge3" class="edge">
<title>Node229038&#45;&gt;Node229041</title>
<path fill="none" stroke="#191970" d="M72.233,-108.903C80.4536,-107.6383 89.2216,-106.2894 97.8555,-104.9611"/>
<polygon fill="#191970" stroke="#191970" points="71.5158,-105.4721 62.1643,-110.452 72.5802,-112.3907 71.5158,-105.4721"/>
</g>
<!-- Node229040 -->
<g id="node3" class="node">
<title>Node229040</title>
<g id="a_node3"><a xlink:href="qjs_8cpp.html#a3c04138a5bfe5d72780bb7e82a18e627" target="_top" xlink:title="main">
<polygon fill="none" stroke="#000000" points="612,-114.7466 612,-133.7466 653,-133.7466 653,-114.7466 612,-114.7466"/>
<text text-anchor="middle" x="632.5" y="-121.7466" font-family="Helvetica,sans-Serif" font-size="10.00" fill="#000000">main</text>
</a>
</g>
</g>
<!-- Node229039&#45;&gt;Node229040 -->
<g id="edge2" class="edge">
<title>Node229039&#45;&gt;Node229040</title>
<path fill="none" stroke="#191970" d="M215.1123,-182.6844C295.3961,-194.1782 440.5459,-206.8079 558,-172.2466 583.3879,-164.7761 608.2913,-145.6761 621.9007,-133.946"/>
<polygon fill="#191970" stroke="#191970" points="215.5778,-179.2153 205.1743,-181.2197 214.5571,-186.1405 215.5778,-179.2153"/>
</g>
<!-- Node229042 -->
<g id="node5" class="node">
<title>Node229042</title>
<g id="a_node5"><a xlink:href="quickjs-libc_8c.html#a82bb7888d024e97e430d98653e97a7bc" target="_top" xlink:title="js_std_dump_error">
<polygon fill="none" stroke="#000000" points="262.5,-86.7466 262.5,-105.7466 369.5,-105.7466 369.5,-86.7466 262.5,-86.7466"/>
<text text-anchor="middle" x="316" y="-93.7466" font-family="Helvetica,sans-Serif" font-size="10.00" fill="#000000">js_std_dump_error</text>
</a>
</g>
</g>
<!-- Node229041&#45;&gt;Node229042 -->
<g id="edge4" class="edge">
<title>Node229041&#45;&gt;Node229042</title>
<path fill="none" stroke="#191970" d="M221.6654,-96.2466C235.2066,-96.2466 249.2726,-96.2466 262.2807,-96.2466"/>
<polygon fill="#191970" stroke="#191970" points="221.4389,-92.7466 211.4389,-96.2466 221.4388,-99.7466 221.4389,-92.7466"/>
</g>
<!-- Node229051 -->
<g id="node11" class="node">
<title>Node229051</title>
<g id="a_node11"><a xlink:href="quickjs-libc_8c.html#aecbca056dde897142bf11bb90347c524" target="_top" xlink:title="js_std_promise_rejection\l_tracker">
<polygon fill="none" stroke="#000000" points="247,-37.2466 247,-67.2466 385,-67.2466 385,-37.2466 247,-37.2466"/>
<text text-anchor="start" x="255" y="-55.2466" font-family="Helvetica,sans-Serif" font-size="10.00" fill="#000000">js_std_promise_rejection</text>
<text text-anchor="middle" x="316" y="-44.2466" font-family="Helvetica,sans-Serif" font-size="10.00" fill="#000000">_tracker</text>
</a>
</g>
</g>
<!-- Node229041&#45;&gt;Node229051 -->
<g id="edge12" class="edge">
<title>Node229041&#45;&gt;Node229051</title>
<path fill="none" stroke="#191970" d="M199.427,-84.0064C218.4151,-78.8331 240.7177,-72.7569 260.7033,-67.3119"/>
<polygon fill="#191970" stroke="#191970" points="198.2714,-80.6936 189.5431,-86.6992 200.1115,-87.4474 198.2714,-80.6936"/>
</g>
<!-- Node229043 -->
<g id="node6" class="node">
<title>Node229043</title>
<g id="a_node6"><a xlink:href="quickjs-libc_8c.html#abb1cbe3fdf905e81f603a3a0bfce475a" target="_top" xlink:title="call_handler">
<polygon fill="none" stroke="#000000" points="451.5,-143.7466 451.5,-162.7466 527.5,-162.7466 527.5,-143.7466 451.5,-143.7466"/>
<text text-anchor="middle" x="489.5" y="-150.7466" font-family="Helvetica,sans-Serif" font-size="10.00" fill="#000000">call_handler</text>
</a>
</g>
</g>
<!-- Node229042&#45;&gt;Node229043 -->
<g id="edge5" class="edge">
<title>Node229042&#45;&gt;Node229043</title>
<path fill="none" stroke="#191970" d="M350.339,-109.4271C370.7383,-117.068 397.1928,-126.6492 421,-134.2466 431.3463,-137.5483 442.6738,-140.8252 453.0853,-143.7042"/>
<polygon fill="#191970" stroke="#191970" points="351.4411,-106.1022 340.8493,-105.8493 348.9716,-112.6522 351.4411,-106.1022"/>
</g>
<!-- Node229044 -->
<g id="node7" class="node">
<title>Node229044</title>
<g id="a_node7"><a xlink:href="quickjs-libc_8c.html#a9fa4c190ba56314c7ed9b00bbc7ad0f9" target="_top" xlink:title="handle_posted_message">
<polygon fill="none" stroke="#000000" points="421,-105.7466 421,-124.7466 558,-124.7466 558,-105.7466 421,-105.7466"/>
<text text-anchor="middle" x="489.5" y="-112.7466" font-family="Helvetica,sans-Serif" font-size="10.00" fill="#000000">handle_posted_message</text>
</a>
</g>
</g>
<!-- Node229042&#45;&gt;Node229044 -->
<g id="edge6" class="edge">
<title>Node229042&#45;&gt;Node229044</title>
<path fill="none" stroke="#191970" d="M379.9618,-103.251C393.2869,-104.7103 407.3841,-106.254 420.8698,-107.7309"/>
<polygon fill="#191970" stroke="#191970" points="380.267,-99.7636 369.9454,-102.1541 379.505,-106.722 380.267,-99.7636"/>
</g>
<!-- Node229045 -->
<g id="node8" class="node">
<title>Node229045</title>
<g id="a_node8"><a xlink:href="quickjs-libc_8c.html#ab1b439d304c2125490b47ef262b5df67" target="_top" xlink:title="js_std_eval_binary">
<polygon fill="none" stroke="#000000" points="436,-67.7466 436,-86.7466 543,-86.7466 543,-67.7466 436,-67.7466"/>
<text text-anchor="middle" x="489.5" y="-74.7466" font-family="Helvetica,sans-Serif" font-size="10.00" fill="#000000">js_std_eval_binary</text>
</a>
</g>
</g>
<!-- Node229042&#45;&gt;Node229045 -->
<g id="edge7" class="edge">
<title>Node229042&#45;&gt;Node229045</title>
<path fill="none" stroke="#191970" d="M379.9812,-89.24C398.3587,-87.2274 418.2033,-85.0543 435.8861,-83.1178"/>
<polygon fill="#191970" stroke="#191970" points="379.505,-85.7711 369.9454,-90.339 380.267,-92.7295 379.505,-85.7711"/>
</g>
<!-- Node229046 -->
<g id="node9" class="node">
<title>Node229046</title>
<g id="a_node9"><a xlink:href="quickjs-libc_8c.html#af7480dad10e937004e36b2b409b084a4" target="_top" xlink:title="js_std_loop">
<polygon fill="none" stroke="#000000" points="454,-29.7466 454,-48.7466 525,-48.7466 525,-29.7466 454,-29.7466"/>
<text text-anchor="middle" x="489.5" y="-36.7466" font-family="Helvetica,sans-Serif" font-size="10.00" fill="#000000">js_std_loop</text>
</a>
</g>
</g>
<!-- Node229042&#45;&gt;Node229046 -->
<g id="edge8" class="edge">
<title>Node229042&#45;&gt;Node229046</title>
<path fill="none" stroke="#191970" d="M366.2302,-83.7949C372.6181,-81.8096 379.0112,-79.6189 385,-77.2466 401.8201,-70.5837 404.1862,-64.9251 421,-58.2466 431.4374,-54.1007 443.11,-50.5015 453.8208,-47.5842"/>
<polygon fill="#191970" stroke="#191970" points="364.8535,-80.5521 356.2552,-86.7423 366.8371,-87.2651 364.8535,-80.5521"/>
</g>
<!-- Node229047 -->
<g id="node10" class="node">
<title>Node229047</title>
<g id="a_node10"><a xlink:href="quickjs-libc_8c.html#a1fbb3adc15e7b967479fc1940e99b67a" target="_top" xlink:title="worker_func">
<polygon fill="none" stroke="#ff0000" points="594,-10.7466 594,-29.7466 671,-29.7466 671,-10.7466 594,-10.7466"/>
<text text-anchor="middle" x="632.5" y="-17.7466" font-family="Helvetica,sans-Serif" font-size="10.00" fill="#000000">worker_func</text>
</a>
</g>
</g>
<!-- Node229042&#45;&gt;Node229047 -->
<g id="edge11" class="edge">
<title>Node229042&#45;&gt;Node229047</title>
<path fill="none" stroke="#191970" d="M376.9973,-82.3083C379.7992,-80.792 382.4862,-79.1107 385,-77.2466 409.0673,-59.3987 394.759,-34.7098 421,-20.2466 476.7936,10.5051 554.1077,-.4261 598.1446,-10.6654"/>
<polygon fill="#191970" stroke="#191970" points="375.3253,-79.2257 367.7292,-86.6116 378.2732,-85.5747 375.3253,-79.2257"/>
</g>
<!-- Node229046&#45;&gt;Node229040 -->
<g id="edge9" class="edge">
<title>Node229046&#45;&gt;Node229040</title>
<path fill="none" stroke="#191970" d="M534.8193,-48.6687C542.7951,-51.1996 550.8304,-54.3505 558,-58.2466 585.6324,-73.2624 611.6297,-100.2861 624.3505,-114.6545"/>
<polygon fill="#191970" stroke="#191970" points="535.7612,-45.2978 525.1825,-45.8808 533.8159,-52.022 535.7612,-45.2978"/>
</g>
<!-- Node229046&#45;&gt;Node229047 -->
<g id="edge10" class="edge">
<title>Node229046&#45;&gt;Node229047</title>
<path fill="none" stroke="#191970" d="M535.3902,-33.1492C554.2854,-30.6387 575.93,-27.7628 593.9824,-25.3643"/>
<polygon fill="#191970" stroke="#191970" points="534.6679,-29.7144 525.2161,-34.5011 535.59,-36.6534 534.6679,-29.7144"/>
</g>
</g>
</svg>
