<?xml version="1.0" encoding="UTF-8" standalone="no"?>
<!DOCTYPE svg PUBLIC "-//W3C//DTD SVG 1.1//EN"
 "http://www.w3.org/Graphics/SVG/1.1/DTD/svg11.dtd">
<!-- Generated by graphviz version 2.40.1 (20161225.0304)
 -->
<!-- Title: JS_WriteFunctionTag Pages: 1 -->
<svg width="578pt" height="142pt"
 viewBox="0.00 0.00 578.00 142.00" xmlns="http://www.w3.org/2000/svg" xmlns:xlink="http://www.w3.org/1999/xlink">
<g id="graph0" class="graph" transform="scale(1 1) rotate(0) translate(4 138)">
<title>JS_WriteFunctionTag</title>
<!-- Node361912 -->
<g id="node1" class="node">
<title>Node361912</title>
<polygon fill="#bfbfbf" stroke="#000000" points="0,-38.5 0,-57.5 113,-57.5 113,-38.5 0,-38.5"/>
<text text-anchor="middle" x="56.5" y="-45.5" font-family="Helvetica,sans-Serif" font-size="10.00" fill="#000000">JS_WriteFunctionTag</text>
</g>
<!-- Node361913 -->
<g id="node2" class="node">
<title>Node361913</title>
<g id="a_node2"><a xlink:href="quickjs_8c.html#aa9342f7444c1c9f8743d43aa4d7f89e3" target="_top" xlink:title="JS_WriteObjectRec">
<polygon fill="none" stroke="#000000" points="149,-38.5 149,-57.5 254,-57.5 254,-38.5 149,-38.5"/>
<text text-anchor="middle" x="201.5" y="-45.5" font-family="Helvetica,sans-Serif" font-size="10.00" fill="#000000">JS_WriteObjectRec</text>
</a>
</g>
</g>
<!-- Node361912&#45;&gt;Node361913 -->
<g id="edge1" class="edge">
<title>Node361912&#45;&gt;Node361913</title>
<path fill="none" stroke="#191970" d="M123.5464,-48C131.9363,-48 140.4241,-48 148.557,-48"/>
<polygon fill="#191970" stroke="#191970" points="123.3917,-44.5001 113.3917,-48 123.3916,-51.5001 123.3917,-44.5001"/>
</g>
<!-- Node361913&#45;&gt;Node361913 -->
<g id="edge7" class="edge">
<title>Node361913&#45;&gt;Node361913</title>
<path fill="none" stroke="#191970" d="M174.6208,-66.6539C175.7444,-71.9368 184.7041,-76 201.5,-76 227.0938,-76 234.4919,-66.5653 223.6946,-57.7571"/>
<polygon fill="#191970" stroke="#191970" points="177.7433,-68.2361 179.3054,-57.7571 171.5494,-64.9747 177.7433,-68.2361"/>
</g>
<!-- Node361914 -->
<g id="node3" class="node">
<title>Node361914</title>
<g id="a_node3"><a xlink:href="quickjs_8c.html#aba35628e2e963dca8fa201e6708046d6" target="_top" xlink:title="JS_WriteArray">
<polygon fill="none" stroke="#000000" points="304,-114.5 304,-133.5 387,-133.5 387,-114.5 304,-114.5"/>
<text text-anchor="middle" x="345.5" y="-121.5" font-family="Helvetica,sans-Serif" font-size="10.00" fill="#000000">JS_WriteArray</text>
</a>
</g>
</g>
<!-- Node361913&#45;&gt;Node361914 -->
<g id="edge2" class="edge">
<title>Node361913&#45;&gt;Node361914</title>
<path fill="none" stroke="#191970" d="M233.2584,-63.0502C249.6474,-73.36 270.2931,-86.4558 290,-96 304.8489,-103.1915 323.1298,-108.8898 334.5527,-114.3856"/>
<polygon fill="#191970" stroke="#191970" points="234.9584,-59.9853 224.6243,-57.6494 231.2462,-65.9199 234.9584,-59.9853"/>
</g>
<!-- Node361915 -->
<g id="node4" class="node">
<title>Node361915</title>
<g id="a_node4"><a xlink:href="quickjs_8c.html#a431ceb41084feaa6af4e466b8b772ab1" target="_top" xlink:title="JS_WriteObject2">
<polygon fill="none" stroke="#000000" points="298.5,-76.5 298.5,-95.5 392.5,-95.5 392.5,-76.5 298.5,-76.5"/>
<text text-anchor="middle" x="345.5" y="-83.5" font-family="Helvetica,sans-Serif" font-size="10.00" fill="#000000">JS_WriteObject2</text>
</a>
</g>
</g>
<!-- Node361913&#45;&gt;Node361915 -->
<g id="edge4" class="edge">
<title>Node361913&#45;&gt;Node361915</title>
<path fill="none" stroke="#191970" d="M247.6722,-60.1843C267.6642,-65.46 290.7187,-71.5438 309.424,-76.4799"/>
<polygon fill="#191970" stroke="#191970" points="248.3994,-56.7565 237.8373,-57.589 246.6132,-63.5248 248.3994,-56.7565"/>
</g>
<!-- Node361918 -->
<g id="node7" class="node">
<title>Node361918</title>
<g id="a_node7"><a xlink:href="quickjs_8c.html#a3da261d6aeb1d35f3fb47a0076752a57" target="_top" xlink:title="JS_WriteObjectTag">
<polygon fill="none" stroke="#000000" points="293.5,-38.5 293.5,-57.5 397.5,-57.5 397.5,-38.5 293.5,-38.5"/>
<text text-anchor="middle" x="345.5" y="-45.5" font-family="Helvetica,sans-Serif" font-size="10.00" fill="#000000">JS_WriteObjectTag</text>
</a>
</g>
</g>
<!-- Node361913&#45;&gt;Node361918 -->
<g id="edge8" class="edge">
<title>Node361913&#45;&gt;Node361918</title>
<path fill="none" stroke="#191970" d="M264.5578,-41.2965C274.116,-41.1966 283.8876,-41.2576 293.185,-41.4794"/>
<polygon fill="#191970" stroke="#191970" points="264.2427,-37.8012 254.3026,-41.4679 264.3598,-44.8002 264.2427,-37.8012"/>
</g>
<!-- Node361919 -->
<g id="node8" class="node">
<title>Node361919</title>
<g id="a_node8"><a xlink:href="quickjs_8c.html#ab24f0a3286c69433ab7e48dcc39c36cb" target="_top" xlink:title="JS_WriteTypedArray">
<polygon fill="none" stroke="#000000" points="290,-.5 290,-19.5 401,-19.5 401,-.5 290,-.5"/>
<text text-anchor="middle" x="345.5" y="-7.5" font-family="Helvetica,sans-Serif" font-size="10.00" fill="#000000">JS_WriteTypedArray</text>
</a>
</g>
</g>
<!-- Node361913&#45;&gt;Node361919 -->
<g id="edge10" class="edge">
<title>Node361913&#45;&gt;Node361919</title>
<path fill="none" stroke="#191970" d="M229.9218,-34.9979C246.9974,-29.3658 269.3151,-23.1123 289.7808,-18.1095"/>
<polygon fill="#191970" stroke="#191970" points="228.344,-31.8396 220.0307,-38.4076 230.6254,-38.4574 228.344,-31.8396"/>
</g>
<!-- Node361914&#45;&gt;Node361913 -->
<g id="edge3" class="edge">
<title>Node361914&#45;&gt;Node361913</title>
<path fill="none" stroke="#191970" d="M294.2048,-115.9566C292.7792,-115.319 291.3749,-114.6659 290,-114 257.4327,-98.2274 222.3017,-72.7553 208.0547,-57.8588"/>
<polygon fill="#191970" stroke="#191970" points="293.2554,-119.3504 303.8353,-119.9141 295.9161,-112.8758 293.2554,-119.3504"/>
</g>
<!-- Node361916 -->
<g id="node5" class="node">
<title>Node361916</title>
<g id="a_node5"><a xlink:href="quickjs-libc_8c.html#ab995f33d3c307ae55a13a18b88023d15" target="_top" xlink:title="js_worker_postMessage">
<polygon fill="none" stroke="#000000" points="437,-95.5 437,-114.5 570,-114.5 570,-95.5 437,-95.5"/>
<text text-anchor="middle" x="503.5" y="-102.5" font-family="Helvetica,sans-Serif" font-size="10.00" fill="#000000">js_worker_postMessage</text>
</a>
</g>
</g>
<!-- Node361915&#45;&gt;Node361916 -->
<g id="edge5" class="edge">
<title>Node361915&#45;&gt;Node361916</title>
<path fill="none" stroke="#191970" d="M402.8469,-92.8961C413.8894,-94.224 425.5436,-95.6255 436.8516,-96.9853"/>
<polygon fill="#191970" stroke="#191970" points="403.2516,-89.4197 392.9052,-91.7006 402.4158,-96.3696 403.2516,-89.4197"/>
</g>
<!-- Node361917 -->
<g id="node6" class="node">
<title>Node361917</title>
<g id="a_node6"><a xlink:href="quickjs_8c.html#a8c807d481615ed55818787ae89621a37" target="_top" xlink:title="JS_WriteObject">
<polygon fill="none" stroke="#000000" points="459.5,-57.5 459.5,-76.5 547.5,-76.5 547.5,-57.5 459.5,-57.5"/>
<text text-anchor="middle" x="503.5" y="-64.5" font-family="Helvetica,sans-Serif" font-size="10.00" fill="#000000">JS_WriteObject</text>
</a>
</g>
</g>
<!-- Node361915&#45;&gt;Node361917 -->
<g id="edge6" class="edge">
<title>Node361915&#45;&gt;Node361917</title>
<path fill="none" stroke="#191970" d="M403.0248,-79.0825C421.6101,-76.8475 441.9113,-74.4062 459.37,-72.3068"/>
<polygon fill="#191970" stroke="#191970" points="402.4158,-75.6304 392.9052,-80.2994 403.2516,-82.5803 402.4158,-75.6304"/>
</g>
<!-- Node361918&#45;&gt;Node361913 -->
<g id="edge9" class="edge">
<title>Node361918&#45;&gt;Node361913</title>
<path fill="none" stroke="#191970" d="M282.9428,-54.6981C273.3923,-54.8036 263.6163,-54.7482 254.3026,-54.5321"/>
<polygon fill="#191970" stroke="#191970" points="283.2472,-58.1935 293.185,-54.5206 283.1258,-51.1945 283.2472,-58.1935"/>
</g>
<!-- Node361919&#45;&gt;Node361913 -->
<g id="edge11" class="edge">
<title>Node361919&#45;&gt;Node361913</title>
<path fill="none" stroke="#191970" d="M317.5748,-22.838C299.6268,-28.7807 275.74,-35.4385 254.3026,-40.598"/>
<polygon fill="#191970" stroke="#191970" points="318.8295,-26.1075 327.1366,-19.5316 316.5419,-19.4919 318.8295,-26.1075"/>
</g>
</g>
</svg>
