<?xml version="1.0" encoding="UTF-8" standalone="no"?>
<!DOCTYPE svg PUBLIC "-//W3C//DTD SVG 1.1//EN"
 "http://www.w3.org/Graphics/SVG/1.1/DTD/svg11.dtd">
<!-- Generated by graphviz version 2.40.1 (20161225.0304)
 -->
<!-- Title: js_promise_resolve_thenable_job Pages: 1 -->
<svg width="772pt" height="1056pt"
 viewBox="0.00 0.00 772.00 1056.00" xmlns="http://www.w3.org/2000/svg" xmlns:xlink="http://www.w3.org/1999/xlink">
<g id="graph0" class="graph" transform="scale(1 1) rotate(0) translate(4 1052)">
<title>js_promise_resolve_thenable_job</title>
<!-- Node458669 -->
<g id="node1" class="node">
<title>Node458669</title>
<polygon fill="#bfbfbf" stroke="#000000" points="0,-913 0,-943 111,-943 111,-913 0,-913"/>
<text text-anchor="start" x="8" y="-931" font-family="Helvetica,sans-Serif" font-size="10.00" fill="#000000">js_promise_resolve</text>
<text text-anchor="middle" x="55.5" y="-920" font-family="Helvetica,sans-Serif" font-size="10.00" fill="#000000">_thenable_job</text>
</g>
<!-- Node458670 -->
<g id="node2" class="node">
<title>Node458670</title>
<g id="a_node2"><a xlink:href="quickjs_8c.html#a1a4c02a29525d5cb2085dd8bca3af350" target="_top" xlink:title="JS_Call">
<polygon fill="none" stroke="#000000" points="170,-687.5 170,-706.5 220,-706.5 220,-687.5 170,-687.5"/>
<text text-anchor="middle" x="195" y="-694.5" font-family="Helvetica,sans-Serif" font-size="10.00" fill="#000000">JS_Call</text>
</a>
</g>
</g>
<!-- Node458669&#45;&gt;Node458670 -->
<g id="edge1" class="edge">
<title>Node458669&#45;&gt;Node458670</title>
<path fill="none" stroke="#191970" d="M64.653,-912.8434C89.2746,-872.0721 156.8701,-760.1398 183.7558,-715.6194"/>
<polygon fill="#191970" stroke="#191970" points="186.8101,-717.3323 188.9835,-706.9628 180.8179,-713.7137 186.8101,-717.3323"/>
</g>
<!-- Node458724 -->
<g id="node10" class="node">
<title>Node458724</title>
<g id="a_node10"><a xlink:href="quickjs_8h.html#afaa20c47565bc704c6c85f3d77254e7d" target="_top" xlink:title="JS_FreeValue">
<polygon fill="none" stroke="#ff0000" points="686,-779.5 686,-798.5 764,-798.5 764,-779.5 686,-779.5"/>
<text text-anchor="middle" x="725" y="-786.5" font-family="Helvetica,sans-Serif" font-size="10.00" fill="#000000">JS_FreeValue</text>
</a>
</g>
</g>
<!-- Node458669&#45;&gt;Node458724 -->
<g id="edge49" class="edge">
<title>Node458669&#45;&gt;Node458724</title>
<path fill="none" stroke="#191970" d="M71.0446,-943.1767C88.2755,-959.2105 117.5421,-984.1811 147,-999 219.3449,-1035.3934 241.5168,-1048 322.5,-1048 322.5,-1048 322.5,-1048 464.5,-1048 555.3737,-1048 586.5523,-1027.057 650,-962 693.5165,-917.3797 713.789,-843.4383 721.3216,-808.4706"/>
<polygon fill="#191970" stroke="#191970" points="724.7712,-809.0703 723.3329,-798.5735 717.9114,-807.6761 724.7712,-809.0703"/>
</g>
<!-- Node458742 -->
<g id="node12" class="node">
<title>Node458742</title>
<g id="a_node12"><a xlink:href="quickjs_8h.html#ad80a83d73e9b7d872b88fbf2943aebe9" target="_top" xlink:title="JS_IsException">
<polygon fill="none" stroke="#000000" points="563,-874.5 563,-893.5 650,-893.5 650,-874.5 563,-874.5"/>
<text text-anchor="middle" x="606.5" y="-881.5" font-family="Helvetica,sans-Serif" font-size="10.00" fill="#000000">JS_IsException</text>
</a>
</g>
</g>
<!-- Node458669&#45;&gt;Node458742 -->
<g id="edge51" class="edge">
<title>Node458669&#45;&gt;Node458742</title>
<path fill="none" stroke="#191970" d="M85.0388,-943.0171C162.3211,-980.0595 375.0069,-1067.4246 527,-991 563.5263,-972.634 587.4991,-928.6616 598.8501,-903.1698"/>
<polygon fill="#191970" stroke="#191970" points="602.1412,-904.3738 602.8229,-893.8009 595.6967,-901.641 602.1412,-904.3738"/>
</g>
<!-- Node459047 -->
<g id="node29" class="node">
<title>Node459047</title>
<g id="a_node29"><a xlink:href="quickjs_8c.html#a37cac335cb6abd3c24e162ad57f418f1" target="_top" xlink:title="js_create_resolving\l_functions">
<polygon fill="none" stroke="#ff0000" points="409,-913 409,-943 520,-943 520,-913 409,-913"/>
<text text-anchor="start" x="417" y="-931" font-family="Helvetica,sans-Serif" font-size="10.00" fill="#000000">js_create_resolving</text>
<text text-anchor="middle" x="464.5" y="-920" font-family="Helvetica,sans-Serif" font-size="10.00" fill="#000000">_functions</text>
</a>
</g>
</g>
<!-- Node458669&#45;&gt;Node459047 -->
<g id="edge45" class="edge">
<title>Node458669&#45;&gt;Node459047</title>
<path fill="none" stroke="#191970" d="M111.0852,-928C185.8132,-928 318.4841,-928 398.2891,-928"/>
<polygon fill="#191970" stroke="#191970" points="398.7086,-931.5001 408.7086,-928 398.7085,-924.5001 398.7086,-931.5001"/>
</g>
<!-- Node459020 -->
<g id="node30" class="node">
<title>Node459020</title>
<g id="a_node30"><a xlink:href="quickjs_8c.html#a8551eaac7ef616910807cebdc515760d" target="_top" xlink:title="JS_GetException">
<polygon fill="none" stroke="#000000" points="147,-649.5 147,-668.5 243,-668.5 243,-649.5 147,-649.5"/>
<text text-anchor="middle" x="195" y="-656.5" font-family="Helvetica,sans-Serif" font-size="10.00" fill="#000000">JS_GetException</text>
</a>
</g>
</g>
<!-- Node458669&#45;&gt;Node459020 -->
<g id="edge50" class="edge">
<title>Node458669&#45;&gt;Node459020</title>
<path fill="none" stroke="#191970" d="M56.8037,-912.8105C61.2619,-870.0348 79.5914,-747.188 147,-678 148.4072,-676.5556 149.9379,-675.2184 151.5594,-673.9806"/>
<polygon fill="#191970" stroke="#191970" points="153.6139,-676.8251 160.2733,-668.5848 149.9286,-670.8737 153.6139,-676.8251"/>
</g>
<!-- Node458671 -->
<g id="node3" class="node">
<title>Node458671</title>
<g id="a_node3"><a xlink:href="quickjs_8c.html#ac2894ff4edcdb4e6841bcce9c76081e3" target="_top" xlink:title="JS_CallInternal">
<polygon fill="none" stroke="#ff0000" points="279,-494.5 279,-513.5 366,-513.5 366,-494.5 279,-494.5"/>
<text text-anchor="middle" x="322.5" y="-501.5" font-family="Helvetica,sans-Serif" font-size="10.00" fill="#000000">JS_CallInternal</text>
</a>
</g>
</g>
<!-- Node458670&#45;&gt;Node458671 -->
<g id="edge2" class="edge">
<title>Node458670&#45;&gt;Node458671</title>
<path fill="none" stroke="#191970" d="M207.8594,-687.4971C218.4476,-683.1894 233.2515,-678.2574 243,-669 286.68,-627.5204 308.3718,-557.4773 317.3068,-523.3652"/>
<polygon fill="#191970" stroke="#191970" points="320.709,-524.1874 319.7712,-513.6341 313.9232,-522.4688 320.709,-524.1874"/>
</g>
<!-- Node458671&#45;&gt;Node458670 -->
<g id="edge40" class="edge">
<title>Node458671&#45;&gt;Node458670</title>
<path fill="none" stroke="#191970" d="M321.369,-513.658C316.6143,-544.3457 295.9831,-636.6859 243,-687 239.1189,-690.6856 234.4365,-693.6856 229.5378,-696.0051"/>
<polygon fill="#191970" stroke="#191970" points="228.1091,-692.8037 220.0048,-699.628 230.5959,-699.3471 228.1091,-692.8037"/>
</g>
<!-- Node458671&#45;&gt;Node458671 -->
<g id="edge41" class="edge">
<title>Node458671&#45;&gt;Node458671</title>
<path fill="none" stroke="#191970" d="M303.0797,-513.7571C293.632,-522.5653 300.1055,-532 322.5,-532 336.8465,-532 344.659,-528.128 345.9374,-523.0292"/>
<polygon fill="#191970" stroke="#191970" points="349.1073,-521.5415 341.9203,-513.7571 342.6842,-524.3243 349.1073,-521.5415"/>
</g>
<!-- Node458672 -->
<g id="node4" class="node">
<title>Node458672</title>
<g id="a_node4"><a xlink:href="quickjs_8c.html#a853f0924d441ea4225488f37c8b69f9a" target="_top" xlink:title="__attribute__">
<polygon fill="none" stroke="#000000" points="566.5,-418.5 566.5,-437.5 646.5,-437.5 646.5,-418.5 566.5,-418.5"/>
<text text-anchor="middle" x="606.5" y="-425.5" font-family="Helvetica,sans-Serif" font-size="10.00" fill="#000000">__attribute__</text>
</a>
</g>
</g>
<!-- Node458671&#45;&gt;Node458672 -->
<g id="edge3" class="edge">
<title>Node458671&#45;&gt;Node458672</title>
<path fill="none" stroke="#191970" d="M326.9521,-494.3556C336.9607,-473.9956 363.4192,-427.0217 402,-409 457.9279,-382.8752 531.7347,-400.7735 573.6622,-415.1007"/>
<polygon fill="#191970" stroke="#191970" points="572.5109,-418.4059 583.1057,-418.4531 574.8528,-411.8093 572.5109,-418.4059"/>
</g>
<!-- Node458673 -->
<g id="node5" class="node">
<title>Node458673</title>
<g id="a_node5"><a xlink:href="quickjs_8c.html#a877fcb7651d95b411ce70e62b7f4a1f0" target="_top" xlink:title="__JS_AtomFromUInt32">
<polygon fill="none" stroke="#000000" points="402.5,-304.5 402.5,-323.5 526.5,-323.5 526.5,-304.5 402.5,-304.5"/>
<text text-anchor="middle" x="464.5" y="-311.5" font-family="Helvetica,sans-Serif" font-size="10.00" fill="#000000">__JS_AtomFromUInt32</text>
</a>
</g>
</g>
<!-- Node458671&#45;&gt;Node458673 -->
<g id="edge4" class="edge">
<title>Node458671&#45;&gt;Node458673</title>
<path fill="none" stroke="#191970" d="M324.5019,-494.2555C330.7831,-466.06 352.6912,-383.5138 402,-338 406.3225,-334.0102 411.3786,-330.6599 416.7093,-327.8522"/>
<polygon fill="#191970" stroke="#191970" points="418.2506,-330.9956 425.8588,-323.6222 415.3131,-324.6418 418.2506,-330.9956"/>
</g>
<!-- Node458674 -->
<g id="node6" class="node">
<title>Node458674</title>
<g id="a_node6"><a xlink:href="quickjs_8h.html#a9bf98b18de88b4199910a43e933eb97d" target="_top" xlink:title="__JS_NewFloat64">
<polygon fill="none" stroke="#000000" points="415,-266.5 415,-285.5 514,-285.5 514,-266.5 415,-266.5"/>
<text text-anchor="middle" x="464.5" y="-273.5" font-family="Helvetica,sans-Serif" font-size="10.00" fill="#000000">__JS_NewFloat64</text>
</a>
</g>
</g>
<!-- Node458671&#45;&gt;Node458674 -->
<g id="edge5" class="edge">
<title>Node458671&#45;&gt;Node458674</title>
<path fill="none" stroke="#191970" d="M323.2276,-494.4788C326.2513,-461.6752 340.715,-352.2326 402,-295 403.6836,-293.4277 405.4936,-291.9853 407.3992,-290.662"/>
<polygon fill="#191970" stroke="#191970" points="409.3269,-293.5916 416.2719,-285.5905 405.8532,-287.5144 409.3269,-293.5916"/>
</g>
<!-- Node458675 -->
<g id="node7" class="node">
<title>Node458675</title>
<g id="a_node7"><a xlink:href="quickjs_8c.html#a74547db03bf739a52c83a326b32db997" target="_top" xlink:title="add_property">
<polygon fill="none" stroke="#ff0000" points="566,-622.5 566,-641.5 647,-641.5 647,-622.5 566,-622.5"/>
<text text-anchor="middle" x="606.5" y="-629.5" font-family="Helvetica,sans-Serif" font-size="10.00" fill="#000000">add_property</text>
</a>
</g>
</g>
<!-- Node458671&#45;&gt;Node458675 -->
<g id="edge6" class="edge">
<title>Node458671&#45;&gt;Node458675</title>
<path fill="none" stroke="#191970" d="M340.6626,-513.5275C356.6788,-521.8354 380.7147,-534.0763 402,-544 434.1176,-558.974 525.1445,-597.6457 574.2118,-618.3843"/>
<polygon fill="#191970" stroke="#191970" points="573.1488,-621.7347 583.7226,-622.4016 575.8726,-615.2863 573.1488,-621.7347"/>
</g>
<!-- Node458732 -->
<g id="node8" class="node">
<title>Node458732</title>
<g id="a_node8"><a xlink:href="quickjs_8c.html#a4956f45ffd2849b96dc051277264f87a" target="_top" xlink:title="build_arg_list">
<polygon fill="none" stroke="#ff0000" points="423.5,-798.5 423.5,-817.5 505.5,-817.5 505.5,-798.5 423.5,-798.5"/>
<text text-anchor="middle" x="464.5" y="-805.5" font-family="Helvetica,sans-Serif" font-size="10.00" fill="#000000">build_arg_list</text>
</a>
</g>
</g>
<!-- Node458671&#45;&gt;Node458732 -->
<g id="edge7" class="edge">
<title>Node458671&#45;&gt;Node458732</title>
<path fill="none" stroke="#191970" d="M324.0768,-513.7729C331.4442,-558.3623 363.7356,-742.1274 402,-784 405.5357,-787.8691 409.7651,-791.1199 414.334,-793.85"/>
<polygon fill="#191970" stroke="#191970" points="412.9456,-797.0705 423.4457,-798.4843 416.119,-790.8311 412.9456,-797.0705"/>
</g>
<!-- Node458733 -->
<g id="node9" class="node">
<title>Node458733</title>
<g id="a_node9"><a xlink:href="quickjs_8c.html#ac864482356b3efc2d0b0a509fcfa4c7c" target="_top" xlink:title="free_arg_list">
<polygon fill="none" stroke="#ff0000" points="568,-779.5 568,-798.5 645,-798.5 645,-779.5 568,-779.5"/>
<text text-anchor="middle" x="606.5" y="-786.5" font-family="Helvetica,sans-Serif" font-size="10.00" fill="#000000">free_arg_list</text>
</a>
</g>
</g>
<!-- Node458671&#45;&gt;Node458733 -->
<g id="edge16" class="edge">
<title>Node458671&#45;&gt;Node458733</title>
<path fill="none" stroke="#191970" d="M324.2426,-513.6009C331.9528,-555.0213 364.2894,-717.8208 402,-751 424.621,-770.9029 504.646,-781.0049 557.6247,-785.6266"/>
<polygon fill="#191970" stroke="#191970" points="557.5783,-789.1348 567.8349,-786.4791 558.1608,-782.1591 557.5783,-789.1348"/>
</g>
<!-- Node458671&#45;&gt;Node458724 -->
<g id="edge43" class="edge">
<title>Node458671&#45;&gt;Node458724</title>
<path fill="none" stroke="#191970" d="M325.7815,-494.4424C334.2026,-471.6232 358.9924,-414.2131 402,-392 500.161,-341.3005 569.664,-333.1571 650,-409 703.1505,-459.1778 720.1159,-698.1719 724.0239,-769.1073"/>
<polygon fill="#191970" stroke="#191970" points="720.5409,-769.5269 724.5591,-779.3302 727.5314,-769.1608 720.5409,-769.5269"/>
</g>
<!-- Node458703 -->
<g id="node11" class="node">
<title>Node458703</title>
<g id="a_node11"><a xlink:href="quickjs_8h.html#a775522f2d084fc8fa0fcb33f390006b4" target="_top" xlink:title="JS_DupValue">
<polygon fill="none" stroke="#000000" points="568,-532.5 568,-551.5 645,-551.5 645,-532.5 568,-532.5"/>
<text text-anchor="middle" x="606.5" y="-539.5" font-family="Helvetica,sans-Serif" font-size="10.00" fill="#000000">JS_DupValue</text>
</a>
</g>
</g>
<!-- Node458671&#45;&gt;Node458703 -->
<g id="edge42" class="edge">
<title>Node458671&#45;&gt;Node458703</title>
<path fill="none" stroke="#191970" d="M357.8984,-513.5981C371.5878,-517.0095 387.4387,-520.596 402,-523 454.8637,-531.7275 516.1264,-536.7556 557.7145,-539.4202"/>
<polygon fill="#191970" stroke="#191970" points="557.6495,-542.9228 567.8468,-540.0476 558.0822,-535.9362 557.6495,-542.9228"/>
</g>
<!-- Node458671&#45;&gt;Node458742 -->
<g id="edge44" class="edge">
<title>Node458671&#45;&gt;Node458742</title>
<path fill="none" stroke="#191970" d="M323.1283,-513.5768C326.7665,-565.8736 346.9188,-816.3637 402,-865 442.6276,-900.8739 507.1066,-900.845 552.7892,-894.9014"/>
<polygon fill="#191970" stroke="#191970" points="553.4111,-898.3482 562.8132,-893.4644 552.4177,-891.419 553.4111,-898.3482"/>
</g>
<!-- Node458828 -->
<g id="node13" class="node">
<title>Node458828</title>
<g id="a_node13"><a xlink:href="quickjs_8c.html#a61c8dfb5e807af1b6ff7d8ca61576dda" target="_top" xlink:title="build_backtrace">
<polygon fill="none" stroke="#ff0000" points="417.5,-228.5 417.5,-247.5 511.5,-247.5 511.5,-228.5 417.5,-228.5"/>
<text text-anchor="middle" x="464.5" y="-235.5" font-family="Helvetica,sans-Serif" font-size="10.00" fill="#000000">build_backtrace</text>
</a>
</g>
</g>
<!-- Node458671&#45;&gt;Node458828 -->
<g id="edge12" class="edge">
<title>Node458671&#45;&gt;Node458828</title>
<path fill="none" stroke="#191970" d="M324.3926,-494.2236C332.5954,-452.7841 366.2753,-292.1482 402,-257 403.9099,-255.1209 405.9996,-253.4268 408.2196,-251.8996"/>
<polygon fill="#191970" stroke="#191970" points="410.311,-254.7398 417.3237,-246.7979 406.889,-248.6332 410.311,-254.7398"/>
</g>
<!-- Node458915 -->
<g id="node14" class="node">
<title>Node458915</title>
<g id="a_node14"><a xlink:href="quickjs_8c.html#a344894112559c2ba75043fd10bcfa02f" target="_top" xlink:title="close_lexical_var">
<polygon fill="none" stroke="#ff0000" points="414,-494.5 414,-513.5 515,-513.5 515,-494.5 414,-494.5"/>
<text text-anchor="middle" x="464.5" y="-501.5" font-family="Helvetica,sans-Serif" font-size="10.00" fill="#000000">close_lexical_var</text>
</a>
</g>
</g>
<!-- Node458671&#45;&gt;Node458915 -->
<g id="edge13" class="edge">
<title>Node458671&#45;&gt;Node458915</title>
<path fill="none" stroke="#191970" d="M366.2634,-504C378.159,-504 391.257,-504 403.9047,-504"/>
<polygon fill="#191970" stroke="#191970" points="403.9198,-507.5001 413.9198,-504 403.9198,-500.5001 403.9198,-507.5001"/>
</g>
<!-- Node458916 -->
<g id="node15" class="node">
<title>Node458916</title>
<g id="a_node15"><a xlink:href="quickjs_8c.html#a1782043fce951bd4f0d91c7796b31e24" target="_top" xlink:title="close_var_refs">
<polygon fill="none" stroke="#ff0000" points="421,-190.5 421,-209.5 508,-209.5 508,-190.5 421,-190.5"/>
<text text-anchor="middle" x="464.5" y="-197.5" font-family="Helvetica,sans-Serif" font-size="10.00" fill="#000000">close_var_refs</text>
</a>
</g>
</g>
<!-- Node458671&#45;&gt;Node458916 -->
<g id="edge15" class="edge">
<title>Node458671&#45;&gt;Node458916</title>
<path fill="none" stroke="#191970" d="M323.9382,-494.2929C330.8065,-449.1658 361.6114,-260.3321 402,-219 404.8609,-216.0723 408.1574,-213.5925 411.7099,-211.4924"/>
<polygon fill="#191970" stroke="#191970" points="413.4871,-214.5208 420.9654,-207.0158 410.4392,-208.2192 413.4871,-214.5208"/>
</g>
<!-- Node458721 -->
<g id="node16" class="node">
<title>Node458721</title>
<g id="a_node16"><a xlink:href="quickjs_8c.html#a9e7b4bccf927d811b0f99b40b08c0472" target="_top" xlink:title="free_var_ref">
<polygon fill="none" stroke="#ff0000" points="426.5,-152.5 426.5,-171.5 502.5,-171.5 502.5,-152.5 426.5,-152.5"/>
<text text-anchor="middle" x="464.5" y="-159.5" font-family="Helvetica,sans-Serif" font-size="10.00" fill="#000000">free_var_ref</text>
</a>
</g>
</g>
<!-- Node458671&#45;&gt;Node458721 -->
<g id="edge17" class="edge">
<title>Node458671&#45;&gt;Node458721</title>
<path fill="none" stroke="#191970" d="M323.5938,-494.3359C329.2769,-445.7446 356.915,-228.5778 402,-181 406.1478,-176.6229 411.2689,-173.2443 416.7799,-170.6384"/>
<polygon fill="#191970" stroke="#191970" points="418.2597,-173.8187 426.3199,-166.9424 415.7309,-167.2914 418.2597,-173.8187"/>
</g>
<!-- Node458918 -->
<g id="node17" class="node">
<title>Node458918</title>
<g id="a_node17"><a xlink:href="cutils_8h.html#a7c82a3ee025fee89db5b11ff5b7691b8" target="_top" xlink:title="get_i16">
<polygon fill="none" stroke="#000000" points="438,-114.5 438,-133.5 491,-133.5 491,-114.5 438,-114.5"/>
<text text-anchor="middle" x="464.5" y="-121.5" font-family="Helvetica,sans-Serif" font-size="10.00" fill="#000000">get_i16</text>
</a>
</g>
</g>
<!-- Node458671&#45;&gt;Node458918 -->
<g id="edge18" class="edge">
<title>Node458671&#45;&gt;Node458918</title>
<path fill="none" stroke="#191970" d="M323.3319,-494.2615C327.9689,-442.1736 352.2253,-196.8363 402,-143 408.7998,-135.6453 418.3468,-131.1039 427.9362,-128.31"/>
<polygon fill="#191970" stroke="#191970" points="428.8962,-131.6798 437.8312,-125.9863 427.2958,-124.8652 428.8962,-131.6798"/>
</g>
<!-- Node458919 -->
<g id="node18" class="node">
<title>Node458919</title>
<g id="a_node18"><a xlink:href="cutils_8h.html#a288ee4e688944e23500af2ecc813c306" target="_top" xlink:title="get_i8">
<polygon fill="none" stroke="#000000" points="441,-76.5 441,-95.5 488,-95.5 488,-76.5 441,-76.5"/>
<text text-anchor="middle" x="464.5" y="-83.5" font-family="Helvetica,sans-Serif" font-size="10.00" fill="#000000">get_i8</text>
</a>
</g>
</g>
<!-- Node458671&#45;&gt;Node458919 -->
<g id="edge19" class="edge">
<title>Node458671&#45;&gt;Node458919</title>
<path fill="none" stroke="#191970" d="M323.1058,-494.3517C326.7498,-439.2955 347.4593,-165.193 402,-105 409.4443,-96.7843 420.317,-92.0725 430.9142,-89.3867"/>
<polygon fill="#191970" stroke="#191970" points="431.7557,-92.7876 440.869,-87.3842 430.3752,-85.9251 431.7557,-92.7876"/>
</g>
<!-- Node458920 -->
<g id="node19" class="node">
<title>Node458920</title>
<g id="a_node19"><a xlink:href="cutils_8h.html#ad587834d17e95461893d59661e5e9676" target="_top" xlink:title="get_u16">
<polygon fill="none" stroke="#000000" points="436.5,-38.5 436.5,-57.5 492.5,-57.5 492.5,-38.5 436.5,-38.5"/>
<text text-anchor="middle" x="464.5" y="-45.5" font-family="Helvetica,sans-Serif" font-size="10.00" fill="#000000">get_u16</text>
</a>
</g>
</g>
<!-- Node458671&#45;&gt;Node458920 -->
<g id="edge20" class="edge">
<title>Node458671&#45;&gt;Node458920</title>
<path fill="none" stroke="#191970" d="M322.9313,-494.2139C325.6969,-435.8041 342.7499,-133.4993 402,-67 408.3715,-59.8489 417.3411,-55.3482 426.5012,-52.5275"/>
<polygon fill="#191970" stroke="#191970" points="427.5337,-55.8777 436.4016,-50.0802 425.8539,-49.0823 427.5337,-55.8777"/>
</g>
<!-- Node458717 -->
<g id="node20" class="node">
<title>Node458717</title>
<g id="a_node20"><a xlink:href="cutils_8h.html#a941262a5f72fda2ec43ae7911e97a0dc" target="_top" xlink:title="get_u32">
<polygon fill="none" stroke="#000000" points="436.5,-.5 436.5,-19.5 492.5,-19.5 492.5,-.5 436.5,-.5"/>
<text text-anchor="middle" x="464.5" y="-7.5" font-family="Helvetica,sans-Serif" font-size="10.00" fill="#000000">get_u32</text>
</a>
</g>
</g>
<!-- Node458671&#45;&gt;Node458717 -->
<g id="edge21" class="edge">
<title>Node458671&#45;&gt;Node458717</title>
<path fill="none" stroke="#191970" d="M322.7774,-494.1797C324.7059,-432.7754 337.9912,-101.8697 402,-29 408.3209,-21.8041 417.2732,-17.2882 426.4329,-14.4672"/>
<polygon fill="#191970" stroke="#191970" points="427.4675,-17.817 436.3388,-12.0247 425.7917,-11.0205 427.4675,-17.817"/>
</g>
<!-- Node458921 -->
<g id="node21" class="node">
<title>Node458921</title>
<g id="a_node21"><a xlink:href="quickjs_8c.html#a37fe43b6649456a848bd54846450b995" target="_top" xlink:title="get_var_ref">
<polygon fill="none" stroke="#ff0000" points="428.5,-836.5 428.5,-855.5 500.5,-855.5 500.5,-836.5 428.5,-836.5"/>
<text text-anchor="middle" x="464.5" y="-843.5" font-family="Helvetica,sans-Serif" font-size="10.00" fill="#000000">get_var_ref</text>
</a>
</g>
</g>
<!-- Node458671&#45;&gt;Node458921 -->
<g id="edge22" class="edge">
<title>Node458671&#45;&gt;Node458921</title>
<path fill="none" stroke="#191970" d="M323.5938,-513.6641C329.2769,-562.2554 356.915,-779.4222 402,-827 406.5561,-831.808 412.2866,-835.4112 418.4183,-838.1089"/>
<polygon fill="#191970" stroke="#191970" points="417.6786,-841.562 428.2731,-841.646 420.0434,-834.9735 417.6786,-841.562"/>
</g>
<!-- Node458865 -->
<g id="node22" class="node">
<title>Node458865</title>
<g id="a_node22"><a xlink:href="list_8h.html#a663527a4d757540b2177bef0db1ce5c0" target="_top" xlink:title="init_list_head">
<polygon fill="none" stroke="#000000" points="423.5,-722.5 423.5,-741.5 505.5,-741.5 505.5,-722.5 423.5,-722.5"/>
<text text-anchor="middle" x="464.5" y="-729.5" font-family="Helvetica,sans-Serif" font-size="10.00" fill="#000000">init_list_head</text>
</a>
</g>
</g>
<!-- Node458671&#45;&gt;Node458865 -->
<g id="edge23" class="edge">
<title>Node458671&#45;&gt;Node458865</title>
<path fill="none" stroke="#191970" d="M323.2276,-513.5212C326.2513,-546.3248 340.715,-655.7674 402,-713 405.5434,-716.3091 409.6463,-719.0428 414.0229,-721.3011"/>
<polygon fill="#191970" stroke="#191970" points="412.731,-724.5555 423.2996,-725.3008 415.5025,-718.1275 412.731,-724.5555"/>
</g>
<!-- Node458922 -->
<g id="node23" class="node">
<title>Node458922</title>
<g id="a_node23"><a xlink:href="quickjs_8c.html#a2bb0a2ca3b8320f3ff778c65034fce49" target="_top" xlink:title="is_backtrace_needed">
<polygon fill="none" stroke="#ff0000" points="405,-646.5 405,-665.5 524,-665.5 524,-646.5 405,-646.5"/>
<text text-anchor="middle" x="464.5" y="-653.5" font-family="Helvetica,sans-Serif" font-size="10.00" fill="#000000">is_backtrace_needed</text>
</a>
</g>
</g>
<!-- Node458671&#45;&gt;Node458922 -->
<g id="edge24" class="edge">
<title>Node458671&#45;&gt;Node458922</title>
<path fill="none" stroke="#191970" d="M325.5358,-513.6881C333.7108,-538.1799 358.5557,-603.0328 402,-637 404.4234,-638.8948 407.035,-640.6014 409.7676,-642.1383"/>
<polygon fill="#191970" stroke="#191970" points="408.2958,-645.3142 418.8249,-646.4925 411.3288,-639.0053 408.2958,-645.3142"/>
</g>
<!-- Node458849 -->
<g id="node24" class="node">
<title>Node458849</title>
<g id="a_node24"><a xlink:href="quickjs_8c.html#a686cf78f8b0361621ee2ba6182195c31" target="_top" xlink:title="is_strict_mode">
<polygon fill="none" stroke="#000000" points="420.5,-608.5 420.5,-627.5 508.5,-627.5 508.5,-608.5 420.5,-608.5"/>
<text text-anchor="middle" x="464.5" y="-615.5" font-family="Helvetica,sans-Serif" font-size="10.00" fill="#000000">is_strict_mode</text>
</a>
</g>
</g>
<!-- Node458671&#45;&gt;Node458849 -->
<g id="edge25" class="edge">
<title>Node458671&#45;&gt;Node458849</title>
<path fill="none" stroke="#191970" d="M328.7571,-513.7817C340.8419,-531.9597 369.1213,-571.1693 402,-594 407.973,-598.1476 414.7593,-601.7013 421.6046,-604.7037"/>
<polygon fill="#191970" stroke="#191970" points="420.322,-607.9603 430.905,-608.4603 422.9436,-601.4698 420.322,-607.9603"/>
</g>
<!-- Node458924 -->
<g id="node25" class="node">
<title>Node458924</title>
<g id="a_node25"><a xlink:href="quickjs_8c.html#ae8ff05447c0d51fe277baccf616dc7c6" target="_top" xlink:title="js_add_slow">
<polygon fill="none" stroke="#ff0000" points="426.5,-962.5 426.5,-981.5 502.5,-981.5 502.5,-962.5 426.5,-962.5"/>
<text text-anchor="middle" x="464.5" y="-969.5" font-family="Helvetica,sans-Serif" font-size="10.00" fill="#000000">js_add_slow</text>
</a>
</g>
</g>
<!-- Node458671&#45;&gt;Node458924 -->
<g id="edge26" class="edge">
<title>Node458671&#45;&gt;Node458924</title>
<path fill="none" stroke="#191970" d="M322.8746,-513.6663C325.3519,-572.7064 341.204,-884.4413 402,-953 406.0491,-957.5661 411.1576,-961.0522 416.7011,-963.7104"/>
<polygon fill="#191970" stroke="#191970" points="415.7421,-967.0925 426.331,-967.4471 418.2744,-960.5666 415.7421,-967.0925"/>
</g>
<!-- Node458931 -->
<g id="node26" class="node">
<title>Node458931</title>
<g id="a_node26"><a xlink:href="quickjs_8c.html#a6a21784a40b8684f2e779bd460dd13b2" target="_top" xlink:title="JS_AddBrand">
<polygon fill="none" stroke="#ff0000" points="425.5,-684.5 425.5,-703.5 503.5,-703.5 503.5,-684.5 425.5,-684.5"/>
<text text-anchor="middle" x="464.5" y="-691.5" font-family="Helvetica,sans-Serif" font-size="10.00" fill="#000000">JS_AddBrand</text>
</a>
</g>
</g>
<!-- Node458671&#45;&gt;Node458931 -->
<g id="edge29" class="edge">
<title>Node458671&#45;&gt;Node458931</title>
<path fill="none" stroke="#191970" d="M324.1721,-513.7937C329.6606,-542.9046 349.8552,-629.6912 402,-675 406.0169,-678.4903 410.6609,-681.3394 415.5673,-683.6652"/>
<polygon fill="#191970" stroke="#191970" points="414.645,-687.0655 425.2299,-687.5236 417.2409,-680.5647 414.645,-687.0655"/>
</g>
<!-- Node458934 -->
<g id="node27" class="node">
<title>Node458934</title>
<g id="a_node27"><a xlink:href="quickjs_8c.html#a43208b0746998d2b6b9b8bd1ef8b5f99" target="_top" xlink:title="js_append_enumerate">
<polygon fill="none" stroke="#ff0000" points="402,-456.5 402,-475.5 527,-475.5 527,-456.5 402,-456.5"/>
<text text-anchor="middle" x="464.5" y="-463.5" font-family="Helvetica,sans-Serif" font-size="10.00" fill="#000000">js_append_enumerate</text>
</a>
</g>
</g>
<!-- Node458671&#45;&gt;Node458934 -->
<g id="edge34" class="edge">
<title>Node458671&#45;&gt;Node458934</title>
<path fill="none" stroke="#191970" d="M358.3326,-494.411C376.6634,-489.5056 399.1784,-483.4804 418.7501,-478.2429"/>
<polygon fill="#191970" stroke="#191970" points="419.9236,-481.5521 428.6789,-475.5859 418.114,-474.7901 419.9236,-481.5521"/>
</g>
<!-- Node458765 -->
<g id="node28" class="node">
<title>Node458765</title>
<g id="a_node28"><a xlink:href="quickjs_8c.html#a260bfa297ff6cb5bd18e229afaa54663" target="_top" xlink:title="JS_AtomToString">
<polygon fill="none" stroke="#ff0000" points="416.5,-418.5 416.5,-437.5 512.5,-437.5 512.5,-418.5 416.5,-418.5"/>
<text text-anchor="middle" x="464.5" y="-425.5" font-family="Helvetica,sans-Serif" font-size="10.00" fill="#000000">JS_AtomToString</text>
</a>
</g>
</g>
<!-- Node458671&#45;&gt;Node458765 -->
<g id="edge39" class="edge">
<title>Node458671&#45;&gt;Node458765</title>
<path fill="none" stroke="#191970" d="M333.3364,-494.4432C347.9853,-481.9617 375.3502,-460.1564 402,-447 406.5857,-444.7361 411.4951,-442.6803 416.472,-440.8294"/>
<polygon fill="#191970" stroke="#191970" points="417.7467,-444.0921 426.0584,-437.5219 415.4636,-437.4749 417.7467,-444.0921"/>
</g>
<!-- Node458732&#45;&gt;Node458733 -->
<g id="edge8" class="edge">
<title>Node458732&#45;&gt;Node458733</title>
<path fill="none" stroke="#191970" d="M505.5723,-802.5044C521.8519,-800.3262 540.701,-797.8041 557.6716,-795.5334"/>
<polygon fill="#191970" stroke="#191970" points="558.5082,-798.9527 567.9557,-794.1573 557.5798,-792.0145 558.5082,-798.9527"/>
</g>
<!-- Node458732&#45;&gt;Node458703 -->
<g id="edge10" class="edge">
<title>Node458732&#45;&gt;Node458703</title>
<path fill="none" stroke="#191970" d="M479.151,-798.4503C493.4759,-788.3509 514.8532,-771.1137 527,-751 559.7675,-696.7407 538.1743,-671.322 563,-613 571.0964,-593.9795 583.7208,-574.0546 593.2882,-560.1705"/>
<polygon fill="#191970" stroke="#191970" points="596.4239,-561.7974 599.3303,-551.6089 590.7047,-557.7612 596.4239,-561.7974"/>
</g>
<!-- Node458732&#45;&gt;Node458742 -->
<g id="edge11" class="edge">
<title>Node458732&#45;&gt;Node458742</title>
<path fill="none" stroke="#191970" d="M502.9416,-817.5219C511.0777,-820.1301 519.4747,-823.2849 527,-827 549.4857,-838.1007 572.4806,-855.3587 587.9168,-867.9781"/>
<polygon fill="#191970" stroke="#191970" points="585.7433,-870.723 595.6636,-874.4432 590.2285,-865.3486 585.7433,-870.723"/>
</g>
<!-- Node458733&#45;&gt;Node458724 -->
<g id="edge9" class="edge">
<title>Node458733&#45;&gt;Node458724</title>
<path fill="none" stroke="#191970" d="M645.3013,-789C654.92,-789 665.3581,-789 675.4145,-789"/>
<polygon fill="#191970" stroke="#191970" points="675.7058,-792.5001 685.7058,-789 675.7058,-785.5001 675.7058,-792.5001"/>
</g>
<!-- Node458915&#45;&gt;Node458703 -->
<g id="edge14" class="edge">
<title>Node458915&#45;&gt;Node458703</title>
<path fill="none" stroke="#191970" d="M500.3326,-513.589C518.6634,-518.4944 541.1784,-524.5196 560.7501,-529.7571"/>
<polygon fill="#191970" stroke="#191970" points="560.114,-533.2099 570.6789,-532.4141 561.9236,-526.4479 560.114,-533.2099"/>
</g>
<!-- Node458924&#45;&gt;Node458724 -->
<g id="edge27" class="edge">
<title>Node458924&#45;&gt;Node458724</title>
<path fill="none" stroke="#191970" d="M502.8549,-972.6121C543.3393,-971.3451 607.1097,-963.6865 650,-931 690.8811,-899.8447 711.7775,-839.9183 720.2714,-808.8179"/>
<polygon fill="#191970" stroke="#191970" points="723.7542,-809.3273 722.8537,-798.7708 716.9745,-807.5848 723.7542,-809.3273"/>
</g>
<!-- Node458924&#45;&gt;Node458742 -->
<g id="edge28" class="edge">
<title>Node458924&#45;&gt;Node458742</title>
<path fill="none" stroke="#191970" d="M502.5573,-963.2138C510.8836,-960.5383 519.4566,-957.1698 527,-953 551.7892,-939.2973 575.7015,-916.8963 590.7129,-901.3513"/>
<polygon fill="#191970" stroke="#191970" points="593.3965,-903.607 597.7091,-893.9296 588.3029,-898.8054 593.3965,-903.607"/>
</g>
<!-- Node458931&#45;&gt;Node458675 -->
<g id="edge30" class="edge">
<title>Node458931&#45;&gt;Node458675</title>
<path fill="none" stroke="#191970" d="M500.3042,-684.4639C509.153,-681.7405 518.5228,-678.5389 527,-675 546.1867,-666.9903 566.8092,-655.7527 582.2413,-646.7744"/>
<polygon fill="#191970" stroke="#191970" points="584.2932,-649.6272 591.12,-641.5251 580.7307,-643.6016 584.2932,-649.6272"/>
</g>
<!-- Node458931&#45;&gt;Node458724 -->
<g id="edge32" class="edge">
<title>Node458931&#45;&gt;Node458724</title>
<path fill="none" stroke="#191970" d="M497.403,-703.522C506.9911,-706.4262 517.4538,-709.7215 527,-713 585.9095,-733.2313 653.4218,-759.9106 692.4445,-775.6823"/>
<polygon fill="#191970" stroke="#191970" points="691.1467,-778.9328 701.7291,-779.4464 693.7768,-772.4456 691.1467,-778.9328"/>
</g>
<!-- Node458931&#45;&gt;Node458703 -->
<g id="edge31" class="edge">
<title>Node458931&#45;&gt;Node458703</title>
<path fill="none" stroke="#191970" d="M503.7247,-686.9671C511.9906,-684.2006 520.2437,-680.3519 527,-675 551.9771,-655.2148 546.6757,-640.3647 563,-613 573.7109,-595.0452 586.2031,-574.717 595.0455,-560.4274"/>
<polygon fill="#191970" stroke="#191970" points="598.2221,-561.946 600.5173,-551.6028 592.2729,-558.2571 598.2221,-561.946"/>
</g>
<!-- Node458931&#45;&gt;Node458742 -->
<g id="edge33" class="edge">
<title>Node458931&#45;&gt;Node458742</title>
<path fill="none" stroke="#191970" d="M503.7578,-700.0205C512.2125,-702.8344 520.5386,-706.9583 527,-713 559.9805,-743.8384 543.7254,-767.1686 563,-808 572.5826,-828.2999 585.5825,-850.4661 594.8698,-865.5923"/>
<polygon fill="#191970" stroke="#191970" points="592.11,-867.7823 600.3635,-874.4254 598.0542,-864.0853 592.11,-867.7823"/>
</g>
<!-- Node458934&#45;&gt;Node458672 -->
<g id="edge35" class="edge">
<title>Node458934&#45;&gt;Node458672</title>
<path fill="none" stroke="#191970" d="M500.3326,-456.411C518.6634,-451.5056 541.1784,-445.4804 560.7501,-440.2429"/>
<polygon fill="#191970" stroke="#191970" points="561.9236,-443.5521 570.6789,-437.5859 560.114,-436.7901 561.9236,-443.5521"/>
</g>
<!-- Node458934&#45;&gt;Node458724 -->
<g id="edge37" class="edge">
<title>Node458934&#45;&gt;Node458724</title>
<path fill="none" stroke="#191970" d="M527.0329,-470.1458C567.2813,-476.0611 617.8875,-490.0804 650,-523 685.106,-558.9884 712.9946,-714.306 721.9572,-769.47"/>
<polygon fill="#191970" stroke="#191970" points="718.5053,-770.0494 723.5363,-779.3735 725.418,-768.9471 718.5053,-770.0494"/>
</g>
<!-- Node458934&#45;&gt;Node458703 -->
<g id="edge36" class="edge">
<title>Node458934&#45;&gt;Node458703</title>
<path fill="none" stroke="#191970" d="M502.9416,-475.5219C511.0777,-478.1301 519.4747,-481.2849 527,-485 549.4857,-496.1007 572.4806,-513.3587 587.9168,-525.9781"/>
<polygon fill="#191970" stroke="#191970" points="585.7433,-528.723 595.6636,-532.4432 590.2285,-523.3486 585.7433,-528.723"/>
</g>
<!-- Node458934&#45;&gt;Node458742 -->
<g id="edge38" class="edge">
<title>Node458934&#45;&gt;Node458742</title>
<path fill="none" stroke="#191970" d="M515.5344,-475.613C519.8716,-478.0821 523.8108,-481.1621 527,-485 573.1577,-540.5475 540.5951,-739.3409 563,-808 569.9521,-829.3044 583.3206,-851.2724 593.4113,-866.0762"/>
<polygon fill="#191970" stroke="#191970" points="590.5732,-868.125 599.184,-874.2979 596.3021,-864.1025 590.5732,-868.125"/>
</g>
<!-- Node459047&#45;&gt;Node458724 -->
<g id="edge47" class="edge">
<title>Node459047&#45;&gt;Node458724</title>
<path fill="none" stroke="#191970" d="M520.1054,-932.1691C559.251,-932.464 611.3516,-927.3075 650,-903 685.6039,-880.6073 707.8963,-834.4445 718.2165,-808.2513"/>
<polygon fill="#191970" stroke="#191970" points="721.5728,-809.2687 721.8039,-798.6764 715.0178,-806.8127 721.5728,-809.2687"/>
</g>
<!-- Node459047&#45;&gt;Node458703 -->
<g id="edge46" class="edge">
<title>Node459047&#45;&gt;Node458703</title>
<path fill="none" stroke="#191970" d="M485.4503,-912.8119C499.601,-901.3425 517.3923,-884.3114 527,-865 577.3948,-763.7065 524.653,-719.4402 563,-613 569.9936,-593.5878 582.7113,-573.7507 592.5961,-559.9971"/>
<polygon fill="#191970" stroke="#191970" points="595.4522,-562.0215 598.594,-551.9032 589.8281,-557.8538 595.4522,-562.0215"/>
</g>
<!-- Node459047&#45;&gt;Node458742 -->
<g id="edge48" class="edge">
<title>Node459047&#45;&gt;Node458742</title>
<path fill="none" stroke="#191970" d="M512.9712,-912.9808C530.1373,-907.6617 549.2635,-901.7353 565.7246,-896.6346"/>
<polygon fill="#191970" stroke="#191970" points="567.0722,-899.8813 575.5883,-893.5783 565.0004,-893.1949 567.0722,-899.8813"/>
</g>
</g>
</svg>
