<?xml version="1.0" encoding="UTF-8" standalone="no"?>
<!DOCTYPE svg PUBLIC "-//W3C//DTD SVG 1.1//EN"
 "http://www.w3.org/Graphics/SVG/1.1/DTD/svg11.dtd">
<!-- Generated by graphviz version 2.40.1 (20161225.0304)
 -->
<!-- Title: async_func_init Pages: 1 -->
<svg width="574pt" height="116pt"
 viewBox="0.00 0.00 574.00 116.00" xmlns="http://www.w3.org/2000/svg" xmlns:xlink="http://www.w3.org/1999/xlink">
<g id="graph0" class="graph" transform="scale(1 1) rotate(0) translate(4 112)">
<title>async_func_init</title>
<!-- Node304193 -->
<g id="node1" class="node">
<title>Node304193</title>
<polygon fill="#bfbfbf" stroke="#000000" points="0,-44.5 0,-63.5 92,-63.5 92,-44.5 0,-44.5"/>
<text text-anchor="middle" x="46" y="-51.5" font-family="Helvetica,sans-Serif" font-size="10.00" fill="#000000">async_func_init</text>
</g>
<!-- Node304194 -->
<g id="node2" class="node">
<title>Node304194</title>
<g id="a_node2"><a xlink:href="quickjs_8c.html#a8029b29b8458274699fbcb7ce42a7100" target="_top" xlink:title="js_async_function_call">
<polygon fill="none" stroke="#000000" points="137.5,-88.5 137.5,-107.5 263.5,-107.5 263.5,-88.5 137.5,-88.5"/>
<text text-anchor="middle" x="200.5" y="-95.5" font-family="Helvetica,sans-Serif" font-size="10.00" fill="#000000">js_async_function_call</text>
</a>
</g>
</g>
<!-- Node304193&#45;&gt;Node304194 -->
<g id="edge1" class="edge">
<title>Node304193&#45;&gt;Node304194</title>
<path fill="none" stroke="#191970" d="M86.1019,-66.5732C99.4025,-70.6505 114.3072,-75.1201 128,-79 139.2671,-82.1926 151.5727,-85.4887 162.7941,-88.421"/>
<polygon fill="#191970" stroke="#191970" points="86.8775,-63.1498 76.2901,-63.5479 84.8149,-69.8391 86.8775,-63.1498"/>
</g>
<!-- Node304200 -->
<g id="node5" class="node">
<title>Node304200</title>
<g id="a_node5"><a xlink:href="quickjs_8c.html#ae19867da709929c072f05e90301835a4" target="_top" xlink:title="js_async_generator\l_function_call">
<polygon fill="none" stroke="#000000" points="145,-39 145,-69 256,-69 256,-39 145,-39"/>
<text text-anchor="start" x="153" y="-57" font-family="Helvetica,sans-Serif" font-size="10.00" fill="#000000">js_async_generator</text>
<text text-anchor="middle" x="200.5" y="-46" font-family="Helvetica,sans-Serif" font-size="10.00" fill="#000000">_function_call</text>
</a>
</g>
</g>
<!-- Node304193&#45;&gt;Node304200 -->
<g id="edge4" class="edge">
<title>Node304193&#45;&gt;Node304200</title>
<path fill="none" stroke="#191970" d="M102.6773,-54C116.4577,-54 131.1801,-54 144.9095,-54"/>
<polygon fill="#191970" stroke="#191970" points="102.3551,-50.5001 92.3551,-54 102.3551,-57.5001 102.3551,-50.5001"/>
</g>
<!-- Node304201 -->
<g id="node6" class="node">
<title>Node304201</title>
<g id="a_node6"><a xlink:href="quickjs_8c.html#ac90552b1f1659acb3dae9a4c62479a30" target="_top" xlink:title="js_generator_function_call">
<polygon fill="none" stroke="#000000" points="128,-.5 128,-19.5 273,-19.5 273,-.5 128,-.5"/>
<text text-anchor="middle" x="200.5" y="-7.5" font-family="Helvetica,sans-Serif" font-size="10.00" fill="#000000">js_generator_function_call</text>
</a>
</g>
</g>
<!-- Node304193&#45;&gt;Node304201 -->
<g id="edge6" class="edge">
<title>Node304193&#45;&gt;Node304201</title>
<path fill="none" stroke="#191970" d="M86.1019,-41.4268C99.4025,-37.3495 114.3072,-32.8799 128,-29 139.2671,-25.8074 151.5727,-22.5113 162.7941,-19.579"/>
<polygon fill="#191970" stroke="#191970" points="84.8149,-38.1609 76.2901,-44.4521 86.8775,-44.8502 84.8149,-38.1609"/>
</g>
<!-- Node304195 -->
<g id="node3" class="node">
<title>Node304195</title>
<g id="a_node3"><a xlink:href="quickjs_8c.html#a2e66fcf1bc1d19f346317f10ee590621" target="_top" xlink:title="JS_AddIntrinsicPromise">
<polygon fill="none" stroke="#000000" points="309,-66.5 309,-85.5 437,-85.5 437,-66.5 309,-66.5"/>
<text text-anchor="middle" x="373" y="-73.5" font-family="Helvetica,sans-Serif" font-size="10.00" fill="#000000">JS_AddIntrinsicPromise</text>
</a>
</g>
</g>
<!-- Node304194&#45;&gt;Node304195 -->
<g id="edge2" class="edge">
<title>Node304194&#45;&gt;Node304195</title>
<path fill="none" stroke="#191970" d="M273.8788,-88.6415C285.5199,-87.1569 297.481,-85.6314 308.888,-84.1766"/>
<polygon fill="#191970" stroke="#191970" points="273.23,-85.1959 263.7531,-89.9329 274.1156,-92.1396 273.23,-85.1959"/>
</g>
<!-- Node304196 -->
<g id="node4" class="node">
<title>Node304196</title>
<g id="a_node4"><a xlink:href="quickjs_8c.html#ad8aedb643b8753b7a15f6cb2df61945e" target="_top" xlink:title="JS_NewContext">
<polygon fill="none" stroke="#ff0000" points="474,-66.5 474,-85.5 565,-85.5 565,-66.5 474,-66.5"/>
<text text-anchor="middle" x="519.5" y="-73.5" font-family="Helvetica,sans-Serif" font-size="10.00" fill="#000000">JS_NewContext</text>
</a>
</g>
</g>
<!-- Node304195&#45;&gt;Node304196 -->
<g id="edge3" class="edge">
<title>Node304195&#45;&gt;Node304196</title>
<path fill="none" stroke="#191970" d="M447.3957,-76C456.3926,-76 465.3664,-76 473.7742,-76"/>
<polygon fill="#191970" stroke="#191970" points="447.2571,-72.5001 437.257,-76 447.257,-79.5001 447.2571,-72.5001"/>
</g>
<!-- Node304200&#45;&gt;Node304195 -->
<g id="edge5" class="edge">
<title>Node304200&#45;&gt;Node304195</title>
<path fill="none" stroke="#191970" d="M266.0807,-62.3639C280.1037,-64.1524 294.9013,-66.0396 308.8689,-67.821"/>
<polygon fill="#191970" stroke="#191970" points="266.3921,-58.8754 256.0296,-61.082 265.5064,-65.8191 266.3921,-58.8754"/>
</g>
<!-- Node304202 -->
<g id="node7" class="node">
<title>Node304202</title>
<g id="a_node7"><a xlink:href="quickjs_8c.html#a27966451027feb455b5da12c1578771c" target="_top" xlink:title="JS_NewRuntime2">
<polygon fill="none" stroke="#000000" points="323.5,-.5 323.5,-19.5 422.5,-19.5 422.5,-.5 323.5,-.5"/>
<text text-anchor="middle" x="373" y="-7.5" font-family="Helvetica,sans-Serif" font-size="10.00" fill="#000000">JS_NewRuntime2</text>
</a>
</g>
</g>
<!-- Node304201&#45;&gt;Node304202 -->
<g id="edge7" class="edge">
<title>Node304201&#45;&gt;Node304202</title>
<path fill="none" stroke="#191970" d="M283.5458,-10C297.19,-10 310.9412,-10 323.4312,-10"/>
<polygon fill="#191970" stroke="#191970" points="283.1556,-6.5001 273.1556,-10 283.1555,-13.5001 283.1556,-6.5001"/>
</g>
<!-- Node304203 -->
<g id="node8" class="node">
<title>Node304203</title>
<g id="a_node8"><a xlink:href="quickjs_8c.html#afc1ca27a266094085ebb43e2eea0dda2" target="_top" xlink:title="JS_NewRuntime">
<polygon fill="none" stroke="#ff0000" points="473,-.5 473,-19.5 566,-19.5 566,-.5 473,-.5"/>
<text text-anchor="middle" x="519.5" y="-7.5" font-family="Helvetica,sans-Serif" font-size="10.00" fill="#000000">JS_NewRuntime</text>
</a>
</g>
</g>
<!-- Node304202&#45;&gt;Node304203 -->
<g id="edge8" class="edge">
<title>Node304202&#45;&gt;Node304203</title>
<path fill="none" stroke="#191970" d="M432.6973,-10C446.1046,-10 460.1396,-10 472.92,-10"/>
<polygon fill="#191970" stroke="#191970" points="432.5983,-6.5001 422.5982,-10 432.5982,-13.5001 432.5983,-6.5001"/>
</g>
</g>
</svg>
