<?xml version="1.0" encoding="UTF-8" standalone="no"?>
<!DOCTYPE svg PUBLIC "-//W3C//DTD SVG 1.1//EN"
 "http://www.w3.org/Graphics/SVG/1.1/DTD/svg11.dtd">
<!-- Generated by graphviz version 2.40.1 (20161225.0304)
 -->
<!-- Title: JS_NewObjectClass Pages: 1 -->
<svg width="740pt" height="370pt"
 viewBox="0.00 0.00 740.00 370.00" xmlns="http://www.w3.org/2000/svg" xmlns:xlink="http://www.w3.org/1999/xlink">
<g id="graph0" class="graph" transform="scale(1 1) rotate(0) translate(4 366)">
<title>JS_NewObjectClass</title>
<!-- Node135643 -->
<g id="node1" class="node">
<title>Node135643</title>
<polygon fill="#bfbfbf" stroke="#000000" points="0,-190.5 0,-209.5 110,-209.5 110,-190.5 0,-190.5"/>
<text text-anchor="middle" x="55" y="-197.5" font-family="Helvetica,sans-Serif" font-size="10.00" fill="#000000">JS_NewObjectClass</text>
</g>
<!-- Node135644 -->
<g id="node2" class="node">
<title>Node135644</title>
<g id="a_node2"><a xlink:href="quickjs_8c.html#a73738c650f11459db0d7af3dcdf8316b" target="_top" xlink:title="JS_NewObjectProtoClass">
<polygon fill="none" stroke="#000000" points="146,-190.5 146,-209.5 282,-209.5 282,-190.5 146,-190.5"/>
<text text-anchor="middle" x="214" y="-197.5" font-family="Helvetica,sans-Serif" font-size="10.00" fill="#000000">JS_NewObjectProtoClass</text>
</a>
</g>
</g>
<!-- Node135643&#45;&gt;Node135644 -->
<g id="edge1" class="edge">
<title>Node135643&#45;&gt;Node135644</title>
<path fill="none" stroke="#191970" d="M110.1643,-200C118.416,-200 127.055,-200 135.6754,-200"/>
<polygon fill="#191970" stroke="#191970" points="135.7624,-203.5001 145.7624,-200 135.7623,-196.5001 135.7624,-203.5001"/>
</g>
<!-- Node135645 -->
<g id="node3" class="node">
<title>Node135645</title>
<g id="a_node3"><a xlink:href="quickjs_8c.html#aad24bdf2bcbb0ce55462fe6074dac8a5" target="_top" xlink:title="find_hashed_shape_proto">
<polygon fill="none" stroke="#000000" points="318,-304.5 318,-323.5 458,-323.5 458,-304.5 318,-304.5"/>
<text text-anchor="middle" x="388" y="-311.5" font-family="Helvetica,sans-Serif" font-size="10.00" fill="#000000">find_hashed_shape_proto</text>
</a>
</g>
</g>
<!-- Node135644&#45;&gt;Node135645 -->
<g id="edge2" class="edge">
<title>Node135644&#45;&gt;Node135645</title>
<path fill="none" stroke="#191970" d="M226.1112,-209.6767C245.1337,-224.6831 283.4188,-254.1159 318,-276 331.3517,-284.4494 346.7303,-292.9267 359.6664,-299.7236"/>
<polygon fill="#191970" stroke="#191970" points="358.1017,-302.8548 368.5903,-304.3514 361.3243,-296.6407 358.1017,-302.8548"/>
</g>
<!-- Node135649 -->
<g id="node6" class="node">
<title>Node135649</title>
<g id="a_node6"><a xlink:href="quickjs_8c.html#aab0be018b8f7bdcff45226f502c3f820" target="_top" xlink:title="get_proto_obj">
<polygon fill="none" stroke="#000000" points="346.5,-95.5 346.5,-114.5 429.5,-114.5 429.5,-95.5 346.5,-95.5"/>
<text text-anchor="middle" x="388" y="-102.5" font-family="Helvetica,sans-Serif" font-size="10.00" fill="#000000">get_proto_obj</text>
</a>
</g>
</g>
<!-- Node135644&#45;&gt;Node135649 -->
<g id="edge5" class="edge">
<title>Node135644&#45;&gt;Node135649</title>
<path fill="none" stroke="#191970" d="M224.3788,-190.3611C242.1896,-174.3184 280.3095,-142.1166 318,-124 323.8095,-121.2076 330.0944,-118.7722 336.4323,-116.6628"/>
<polygon fill="#191970" stroke="#191970" points="337.8417,-119.8914 346.3749,-113.6117 335.7881,-113.1994 337.8417,-119.8914"/>
</g>
<!-- Node135650 -->
<g id="node7" class="node">
<title>Node135650</title>
<g id="a_node7"><a xlink:href="quickjs_8c.html#aed229eb80b3b03a2275471dee93c69d6" target="_top" xlink:title="js_dup_shape">
<polygon fill="none" stroke="#000000" points="637,-162.5 637,-181.5 720,-181.5 720,-162.5 637,-162.5"/>
<text text-anchor="middle" x="678.5" y="-169.5" font-family="Helvetica,sans-Serif" font-size="10.00" fill="#000000">js_dup_shape</text>
</a>
</g>
</g>
<!-- Node135644&#45;&gt;Node135650 -->
<g id="edge6" class="edge">
<title>Node135644&#45;&gt;Node135650</title>
<path fill="none" stroke="#191970" d="M282.1503,-197.5634C357.3446,-194.6381 481.9086,-189.0925 589,-181 601.1658,-180.0807 614.2415,-178.8843 626.5387,-177.6655"/>
<polygon fill="#191970" stroke="#191970" points="627.0516,-181.1316 636.6482,-176.6421 626.3465,-174.1672 627.0516,-181.1316"/>
</g>
<!-- Node135651 -->
<g id="node8" class="node">
<title>Node135651</title>
<g id="a_node8"><a xlink:href="quickjs_8c.html#ad6926e49955be5e10423f6df8d8cff3e" target="_top" xlink:title="js_new_shape">
<polygon fill="none" stroke="#000000" points="345.5,-247.5 345.5,-266.5 430.5,-266.5 430.5,-247.5 345.5,-247.5"/>
<text text-anchor="middle" x="388" y="-254.5" font-family="Helvetica,sans-Serif" font-size="10.00" fill="#000000">js_new_shape</text>
</a>
</g>
</g>
<!-- Node135644&#45;&gt;Node135651 -->
<g id="edge7" class="edge">
<title>Node135644&#45;&gt;Node135651</title>
<path fill="none" stroke="#191970" d="M243.1237,-209.5405C272.2319,-219.076 317.1593,-233.7936 349.2619,-244.3099"/>
<polygon fill="#191970" stroke="#191970" points="348.1886,-247.6413 358.7813,-247.4284 350.3678,-240.9891 348.1886,-247.6413"/>
</g>
<!-- Node135667 -->
<g id="node11" class="node">
<title>Node135667</title>
<g id="a_node11"><a xlink:href="quickjs_8c.html#a030c2e98b1775a7e3bdd13be1400b1fe" target="_top" xlink:title="JS_NewObjectFromShape">
<polygon fill="none" stroke="#000000" points="319,-133.5 319,-152.5 457,-152.5 457,-133.5 319,-133.5"/>
<text text-anchor="middle" x="388" y="-140.5" font-family="Helvetica,sans-Serif" font-size="10.00" fill="#000000">JS_NewObjectFromShape</text>
</a>
</g>
</g>
<!-- Node135644&#45;&gt;Node135667 -->
<g id="edge11" class="edge">
<title>Node135644&#45;&gt;Node135667</title>
<path fill="none" stroke="#191970" d="M243.1237,-190.4595C272.2319,-180.924 317.1593,-166.2064 349.2619,-155.6901"/>
<polygon fill="#191970" stroke="#191970" points="350.3678,-159.0109 358.7813,-152.5716 348.1886,-152.3587 350.3678,-159.0109"/>
</g>
<!-- Node135646 -->
<g id="node4" class="node">
<title>Node135646</title>
<g id="a_node4"><a xlink:href="quickjs_8c.html#a8291bf195606b5d1b0faed795b6dc3ff" target="_top" xlink:title="get_shape_hash">
<polygon fill="none" stroke="#000000" points="494,-342.5 494,-361.5 589,-361.5 589,-342.5 494,-342.5"/>
<text text-anchor="middle" x="541.5" y="-349.5" font-family="Helvetica,sans-Serif" font-size="10.00" fill="#000000">get_shape_hash</text>
</a>
</g>
</g>
<!-- Node135645&#45;&gt;Node135646 -->
<g id="edge3" class="edge">
<title>Node135645&#45;&gt;Node135646</title>
<path fill="none" stroke="#191970" d="M426.7345,-323.589C446.8993,-328.5809 471.7479,-334.7324 493.1611,-340.0334"/>
<polygon fill="#191970" stroke="#191970" points="492.4959,-343.4743 503.044,-342.4799 494.1781,-336.6794 492.4959,-343.4743"/>
</g>
<!-- Node135647 -->
<g id="node5" class="node">
<title>Node135647</title>
<g id="a_node5"><a xlink:href="quickjs_8c.html#afeaafcef811076df11d1552bcc7f6a2a" target="_top" xlink:title="shape_initial_hash">
<polygon fill="none" stroke="#ff0000" points="625,-294.5 625,-313.5 732,-313.5 732,-294.5 625,-294.5"/>
<text text-anchor="middle" x="678.5" y="-301.5" font-family="Helvetica,sans-Serif" font-size="10.00" fill="#000000">shape_initial_hash</text>
</a>
</g>
</g>
<!-- Node135645&#45;&gt;Node135647 -->
<g id="edge4" class="edge">
<title>Node135645&#45;&gt;Node135647</title>
<path fill="none" stroke="#191970" d="M458.3219,-311.5793C505.936,-309.9402 568.3428,-307.792 614.5534,-306.2013"/>
<polygon fill="#191970" stroke="#191970" points="614.8732,-309.6924 624.7468,-305.8504 614.6323,-302.6966 614.8732,-309.6924"/>
</g>
<!-- Node135652 -->
<g id="node9" class="node">
<title>Node135652</title>
<g id="a_node9"><a xlink:href="quickjs_8c.html#a1030d2020be7d911eb62869f21cc3b70" target="_top" xlink:title="js_new_shape2">
<polygon fill="none" stroke="#ff0000" points="496,-266.5 496,-285.5 587,-285.5 587,-266.5 496,-266.5"/>
<text text-anchor="middle" x="541.5" y="-273.5" font-family="Helvetica,sans-Serif" font-size="10.00" fill="#000000">js_new_shape2</text>
</a>
</g>
</g>
<!-- Node135651&#45;&gt;Node135652 -->
<g id="edge8" class="edge">
<title>Node135651&#45;&gt;Node135652</title>
<path fill="none" stroke="#191970" d="M430.7583,-262.2926C447.7448,-264.3951 467.5152,-266.8423 485.6112,-269.0822"/>
<polygon fill="#191970" stroke="#191970" points="485.396,-272.5822 495.7502,-270.3372 486.2559,-265.6352 485.396,-272.5822"/>
</g>
<!-- Node135652&#45;&gt;Node135647 -->
<g id="edge10" class="edge">
<title>Node135652&#45;&gt;Node135647</title>
<path fill="none" stroke="#191970" d="M587.119,-285.3236C598.1964,-287.5876 610.1758,-290.0359 621.6998,-292.3912"/>
<polygon fill="#191970" stroke="#191970" points="621.1774,-295.8567 631.6757,-294.4301 622.5791,-288.9985 621.1774,-295.8567"/>
</g>
<!-- Node135653 -->
<g id="node10" class="node">
<title>Node135653</title>
<g id="a_node10"><a xlink:href="quickjs_8c.html#a9780456a71703c53244b88831bc8fb7a" target="_top" xlink:title="add_gc_object">
<polygon fill="none" stroke="#ff0000" points="635.5,-247.5 635.5,-266.5 721.5,-266.5 721.5,-247.5 635.5,-247.5"/>
<text text-anchor="middle" x="678.5" y="-254.5" font-family="Helvetica,sans-Serif" font-size="10.00" fill="#000000">add_gc_object</text>
</a>
</g>
</g>
<!-- Node135652&#45;&gt;Node135653 -->
<g id="edge9" class="edge">
<title>Node135652&#45;&gt;Node135653</title>
<path fill="none" stroke="#191970" d="M587.119,-269.6733C599.4029,-267.9697 612.7959,-266.1122 625.4473,-264.3577"/>
<polygon fill="#191970" stroke="#191970" points="625.9747,-267.8181 635.3991,-262.9775 625.0131,-260.8845 625.9747,-267.8181"/>
</g>
<!-- Node135667&#45;&gt;Node135653 -->
<g id="edge12" class="edge">
<title>Node135667&#45;&gt;Node135653</title>
<path fill="none" stroke="#191970" d="M412.2682,-152.5235C463.96,-172.8087 585.0445,-220.3256 644.4341,-243.6316"/>
<polygon fill="#191970" stroke="#191970" points="643.5091,-247.0284 654.0966,-247.4234 646.0663,-240.5122 643.5091,-247.0284"/>
</g>
<!-- Node135668 -->
<g id="node12" class="node">
<title>Node135668</title>
<g id="a_node12"><a xlink:href="quickjs_8c.html#a74547db03bf739a52c83a326b32db997" target="_top" xlink:title="add_property">
<polygon fill="none" stroke="#ff0000" points="501,-114.5 501,-133.5 582,-133.5 582,-114.5 501,-114.5"/>
<text text-anchor="middle" x="541.5" y="-121.5" font-family="Helvetica,sans-Serif" font-size="10.00" fill="#000000">add_property</text>
</a>
</g>
</g>
<!-- Node135667&#45;&gt;Node135668 -->
<g id="edge13" class="edge">
<title>Node135667&#45;&gt;Node135668</title>
<path fill="none" stroke="#191970" d="M457.1162,-134.4449C468.4533,-133.0416 480.0148,-131.6105 490.7979,-130.2758"/>
<polygon fill="#191970" stroke="#191970" points="491.371,-133.7317 500.8653,-129.0297 490.511,-126.7847 491.371,-133.7317"/>
</g>
<!-- Node135683 -->
<g id="node13" class="node">
<title>Node135683</title>
<g id="a_node13"><a xlink:href="quickjs_8c.html#a3a9f27520d96cf58aa5bd7359e9cddee" target="_top" xlink:title="js_free_shape">
<polygon fill="none" stroke="#ff0000" points="636.5,-95.5 636.5,-114.5 720.5,-114.5 720.5,-95.5 636.5,-95.5"/>
<text text-anchor="middle" x="678.5" y="-102.5" font-family="Helvetica,sans-Serif" font-size="10.00" fill="#000000">js_free_shape</text>
</a>
</g>
</g>
<!-- Node135667&#45;&gt;Node135683 -->
<g id="edge17" class="edge">
<title>Node135667&#45;&gt;Node135683</title>
<path fill="none" stroke="#191970" d="M429.2106,-133.439C438.7935,-130.771 448.8616,-127.6006 458,-124 474.8322,-117.3679 476.439,-109.3498 494,-105 537.6242,-94.1944 588.8517,-95.2334 626.2436,-98.3794"/>
<polygon fill="#191970" stroke="#191970" points="626.1266,-101.8834 636.4053,-99.3146 626.7681,-94.9128 626.1266,-101.8834"/>
</g>
<!-- Node135677 -->
<g id="node14" class="node">
<title>Node135677</title>
<g id="a_node14"><a xlink:href="quickjs_8c.html#a80e54dcf9ac687d4ccc2f90273565f30" target="_top" xlink:title="js_free">
<polygon fill="none" stroke="#ff0000" points="516.5,-38.5 516.5,-57.5 566.5,-57.5 566.5,-38.5 516.5,-38.5"/>
<text text-anchor="middle" x="541.5" y="-45.5" font-family="Helvetica,sans-Serif" font-size="10.00" fill="#000000">js_free</text>
</a>
</g>
</g>
<!-- Node135667&#45;&gt;Node135677 -->
<g id="edge16" class="edge">
<title>Node135667&#45;&gt;Node135677</title>
<path fill="none" stroke="#191970" d="M439.9593,-133.3713C446.3554,-130.9225 452.5494,-127.8514 458,-124 480.9564,-107.7788 472.8036,-90.4617 494,-72 498.1803,-68.359 503.0104,-65.1064 507.956,-62.2601"/>
<polygon fill="#191970" stroke="#191970" points="509.6418,-65.3281 516.8674,-57.5794 506.3868,-59.1309 509.6418,-65.3281"/>
</g>
<!-- Node135710 -->
<g id="node15" class="node">
<title>Node135710</title>
<g id="a_node15"><a xlink:href="quickjs_8h.html#a2050bc428da1c65ac7eb87c3fa3b0392" target="_top" xlink:title="JS_NewInt32">
<polygon fill="none" stroke="#000000" points="503,-.5 503,-19.5 580,-19.5 580,-.5 503,-.5"/>
<text text-anchor="middle" x="541.5" y="-7.5" font-family="Helvetica,sans-Serif" font-size="10.00" fill="#000000">JS_NewInt32</text>
</a>
</g>
</g>
<!-- Node135667&#45;&gt;Node135710 -->
<g id="edge18" class="edge">
<title>Node135667&#45;&gt;Node135710</title>
<path fill="none" stroke="#191970" d="M443.3713,-133.4772C448.7015,-130.999 453.7099,-127.8922 458,-124 491.4405,-93.6611 462.3658,-61.2179 494,-29 495.4001,-27.5741 496.921,-26.252 498.5307,-25.0266"/>
<polygon fill="#191970" stroke="#191970" points="500.5148,-27.9146 507.1704,-19.6713 496.8268,-21.9649 500.5148,-27.9146"/>
</g>
<!-- Node135711 -->
<g id="node16" class="node">
<title>Node135711</title>
<g id="a_node16"><a xlink:href="quickjs_8c.html#a85321334e4bec66bfc03451897a03a3b" target="_top" xlink:title="js_trigger_gc">
<polygon fill="none" stroke="#ff0000" points="502,-152.5 502,-171.5 581,-171.5 581,-152.5 502,-152.5"/>
<text text-anchor="middle" x="541.5" y="-159.5" font-family="Helvetica,sans-Serif" font-size="10.00" fill="#000000">js_trigger_gc</text>
</a>
</g>
</g>
<!-- Node135667&#45;&gt;Node135711 -->
<g id="edge19" class="edge">
<title>Node135667&#45;&gt;Node135711</title>
<path fill="none" stroke="#191970" d="M457.1162,-151.5551C468.6945,-152.9882 480.5069,-154.4504 491.4852,-155.8092"/>
<polygon fill="#191970" stroke="#191970" points="491.3661,-159.3211 501.7204,-157.0761 492.2261,-152.3741 491.3661,-159.3211"/>
</g>
<!-- Node135668&#45;&gt;Node135650 -->
<g id="edge14" class="edge">
<title>Node135668&#45;&gt;Node135650</title>
<path fill="none" stroke="#191970" d="M568.8947,-133.5982C589.7089,-140.8907 618.5582,-150.9985 641.4346,-159.0136"/>
<polygon fill="#191970" stroke="#191970" points="640.5579,-162.415 651.1528,-162.4185 642.8726,-155.8087 640.5579,-162.415"/>
</g>
<!-- Node135668&#45;&gt;Node135683 -->
<g id="edge15" class="edge">
<title>Node135668&#45;&gt;Node135683</title>
<path fill="none" stroke="#191970" d="M582.2336,-118.3508C596.0761,-116.4311 611.7396,-114.2587 626.3493,-112.2326"/>
<polygon fill="#191970" stroke="#191970" points="626.8357,-115.6987 636.2601,-110.8581 625.8741,-108.7651 626.8357,-115.6987"/>
</g>
</g>
</svg>
