<?xml version="1.0" encoding="UTF-8" standalone="no"?>
<!DOCTYPE svg PUBLIC "-//W3C//DTD SVG 1.1//EN"
 "http://www.w3.org/Graphics/SVG/1.1/DTD/svg11.dtd">
<!-- Generated by graphviz version 2.40.1 (20161225.0304)
 -->
<!-- Title: js_reflect_apply Pages: 1 -->
<!--zoomable 218 -->
<svg id="main" version="1.1" xmlns="http://www.w3.org/2000/svg" xmlns:xlink="http://www.w3.org/1999/xlink" xml:space="preserve" onload="init(evt)">
<style type="text/css"><![CDATA[
.edge:hover path { stroke: red; }
.edge:hover polygon { stroke: red; fill: red; }
]]></style>
<script type="text/javascript"><![CDATA[
var edges = document.getElementsByTagName('g');
if (edges && edges.length) {
  for (var i=0;i<edges.length;i++) {
    if (edges[i].id.substr(0,4)=='edge') {
      edges[i].setAttribute('class','edge');
    }
  }
}
]]></script>
        <defs>
                <circle id="rim" cx="0" cy="0" r="7"/>
                <circle id="rim2" cx="0" cy="0" r="3.5"/>
                <g id="zoomPlus">
                        <use xlink:href="#rim" fill="#404040">
                                <set attributeName="fill" to="#808080" begin="zoomplus.mouseover" end="zoomplus.mouseout"/>
                        </use>
                        <path d="M-4,0h8M0,-4v8" fill="none" stroke="white" stroke-width="1.5" pointer-events="none"/>
                </g>
                <g id="zoomMin">
                        <use xlink:href="#rim" fill="#404040">
                                <set attributeName="fill" to="#808080" begin="zoomminus.mouseover" end="zoomminus.mouseout"/>
                        </use>
                        <path d="M-4,0h8" fill="none" stroke="white" stroke-width="1.5" pointer-events="none"/>
                </g>
                <g id="dirArrow">
                        <path fill="none" stroke="white" stroke-width="1.5" d="M0,-3.0v7 M-2.5,-0.5L0,-3.0L2.5,-0.5"/>
                </g>
               <g id="resetDef">
                       <use xlink:href="#rim2" fill="#404040">
                               <set attributeName="fill" to="#808080" begin="reset.mouseover" end="reset.mouseout"/>
                       </use>
               </g>
        </defs>

<script type="text/javascript">
var viewWidth = 689;
var viewHeight = 218;
var sectionId = 'dynsection-1658';
</script>
<script xlink:href="svgpan.js"/>
<svg id="graph" class="graph">
<g id="viewport">
<title>js_reflect_apply</title>
<!-- Node444024 -->
<g id="node1" class="node">
<title>Node444024</title>
<polygon fill="#bfbfbf" stroke="#000000" points="0,-57.5 0,-76.5 93,-76.5 93,-57.5 0,-57.5"/>
<text text-anchor="middle" x="46.5" y="-64.5" font-family="Helvetica,sans-Serif" font-size="10.00" fill="#000000">js_reflect_apply</text>
</g>
<!-- Node444025 -->
<g id="node2" class="node">
<title>Node444025</title>
<g id="a_node2"><a xlink:href="quickjs_8c.html#a8d4b24969540aff427939eeda47f451d" target="_top" xlink:title="js_function_apply">
<polygon fill="none" stroke="#000000" points="129,-76.5 129,-95.5 231,-95.5 231,-76.5 129,-76.5"/>
<text text-anchor="middle" x="180" y="-83.5" font-family="Helvetica,sans-Serif" font-size="10.00" fill="#000000">js_function_apply</text>
</a>
</g>
</g>
<!-- Node444024&#45;&gt;Node444025 -->
<g id="edge1" class="edge">
<title>Node444024&#45;&gt;Node444025</title>
<path fill="none" stroke="#191970" d="M93.1918,-73.6453C101.4064,-74.8144 110.0677,-76.0471 118.6112,-77.263"/>
<polygon fill="#191970" stroke="#191970" points="118.1591,-80.7339 128.5525,-78.6779 119.1455,-73.8037 118.1591,-80.7339"/>
</g>
<!-- Node444114 -->
<g id="node13" class="node">
<title>Node444114</title>
<g id="a_node13"><a xlink:href="cutils_8h.html#a94f155fcce337a2b9d4719ed8042cbbe" target="_top" xlink:title="max_int">
<polygon fill="none" stroke="#000000" points="152,-38.5 152,-57.5 208,-57.5 208,-38.5 152,-38.5"/>
<text text-anchor="middle" x="180" y="-45.5" font-family="Helvetica,sans-Serif" font-size="10.00" fill="#000000">max_int</text>
</a>
</g>
</g>
<!-- Node444024&#45;&gt;Node444114 -->
<g id="edge15" class="edge">
<title>Node444024&#45;&gt;Node444114</title>
<path fill="none" stroke="#191970" d="M93.1918,-60.3547C109.0758,-58.0941 126.6304,-55.5957 141.7729,-53.4406"/>
<polygon fill="#191970" stroke="#191970" points="142.4136,-56.8847 151.8206,-52.0105 141.4272,-49.9546 142.4136,-56.8847"/>
</g>
<!-- Node444026 -->
<g id="node3" class="node">
<title>Node444026</title>
<g id="a_node3"><a xlink:href="quickjs_8c.html#a4956f45ffd2849b96dc051277264f87a" target="_top" xlink:title="build_arg_list">
<polygon fill="none" stroke="#000000" points="282,-114.5 282,-133.5 364,-133.5 364,-114.5 282,-114.5"/>
<text text-anchor="middle" x="323" y="-121.5" font-family="Helvetica,sans-Serif" font-size="10.00" fill="#000000">build_arg_list</text>
</a>
</g>
</g>
<!-- Node444025&#45;&gt;Node444026 -->
<g id="edge2" class="edge">
<title>Node444025&#45;&gt;Node444026</title>
<path fill="none" stroke="#191970" d="M216.0849,-95.589C234.6296,-100.5169 257.4265,-106.5749 277.199,-111.8291"/>
<polygon fill="#191970" stroke="#191970" points="276.3631,-115.2284 286.9266,-114.4141 278.1609,-108.4632 276.3631,-115.2284"/>
</g>
<!-- Node444027 -->
<g id="node4" class="node">
<title>Node444027</title>
<g id="a_node4"><a xlink:href="quickjs_8c.html#ac864482356b3efc2d0b0a509fcfa4c7c" target="_top" xlink:title="free_arg_list">
<polygon fill="none" stroke="#ff0000" points="448,-190.5 448,-209.5 525,-209.5 525,-190.5 448,-190.5"/>
<text text-anchor="middle" x="486.5" y="-197.5" font-family="Helvetica,sans-Serif" font-size="10.00" fill="#000000">free_arg_list</text>
</a>
</g>
</g>
<!-- Node444025&#45;&gt;Node444027 -->
<g id="edge10" class="edge">
<title>Node444025&#45;&gt;Node444027</title>
<path fill="none" stroke="#191970" d="M191.9405,-95.664C208.0618,-108.2641 238.1082,-130.2003 267,-143 323.2231,-167.9081 392.5466,-183.6401 438.0573,-192.1213"/>
<polygon fill="#191970" stroke="#191970" points="437.4938,-195.5761 447.9587,-193.922 438.7463,-188.6891 437.4938,-195.5761"/>
</g>
<!-- Node444395 -->
<g id="node9" class="node">
<title>Node444395</title>
<g id="a_node9"><a xlink:href="quickjs_8c.html#a59a7e992f228759bf0a56f0aae4f3cc3" target="_top" xlink:title="check_function">
<polygon fill="none" stroke="#ff0000" points="278,-76.5 278,-95.5 368,-95.5 368,-76.5 278,-76.5"/>
<text text-anchor="middle" x="323" y="-83.5" font-family="Helvetica,sans-Serif" font-size="10.00" fill="#000000">check_function</text>
</a>
</g>
</g>
<!-- Node444025&#45;&gt;Node444395 -->
<g id="edge9" class="edge">
<title>Node444025&#45;&gt;Node444395</title>
<path fill="none" stroke="#191970" d="M231.2224,-86C242.9994,-86 255.5765,-86 267.5244,-86"/>
<polygon fill="#191970" stroke="#191970" points="267.826,-89.5001 277.826,-86 267.826,-82.5001 267.826,-89.5001"/>
</g>
<!-- Node444302 -->
<g id="node10" class="node">
<title>Node444302</title>
<g id="a_node10"><a xlink:href="quickjs_8c.html#a1a4c02a29525d5cb2085dd8bca3af350" target="_top" xlink:title="JS_Call">
<polygon fill="none" stroke="#ff0000" points="298,-38.5 298,-57.5 348,-57.5 348,-38.5 298,-38.5"/>
<text text-anchor="middle" x="323" y="-45.5" font-family="Helvetica,sans-Serif" font-size="10.00" fill="#000000">JS_Call</text>
</a>
</g>
</g>
<!-- Node444025&#45;&gt;Node444302 -->
<g id="edge11" class="edge">
<title>Node444025&#45;&gt;Node444302</title>
<path fill="none" stroke="#191970" d="M216.0849,-76.411C238.0846,-70.5649 266.0686,-63.1286 287.8884,-57.3304"/>
<polygon fill="#191970" stroke="#191970" points="288.9774,-60.6625 297.7431,-54.7116 287.1796,-53.8973 288.9774,-60.6625"/>
</g>
<!-- Node444458 -->
<g id="node11" class="node">
<title>Node444458</title>
<g id="a_node11"><a xlink:href="quickjs_8c.html#a03d5edf3e8bb18809d6675e5c08bac26" target="_top" xlink:title="JS_CallConstructor2">
<polygon fill="none" stroke="#000000" points="267,-.5 267,-19.5 379,-19.5 379,-.5 267,-.5"/>
<text text-anchor="middle" x="323" y="-7.5" font-family="Helvetica,sans-Serif" font-size="10.00" fill="#000000">JS_CallConstructor2</text>
</a>
</g>
</g>
<!-- Node444025&#45;&gt;Node444458 -->
<g id="edge12" class="edge">
<title>Node444025&#45;&gt;Node444458</title>
<path fill="none" stroke="#191970" d="M212.3738,-76.4812C218.8101,-73.8992 225.3264,-70.7539 231,-67 250.402,-54.1627 247.4106,-41.5495 267,-29 270.1229,-26.9994 273.4796,-25.185 276.9419,-23.5442"/>
<polygon fill="#191970" stroke="#191970" points="278.4208,-26.7189 286.2653,-19.5975 275.692,-20.2727 278.4208,-26.7189"/>
</g>
<!-- Node444026&#45;&gt;Node444027 -->
<g id="edge3" class="edge">
<title>Node444026&#45;&gt;Node444027</title>
<path fill="none" stroke="#191970" d="M335.7347,-133.597C352.9021,-146.1231 384.8073,-167.9775 415,-181 422.2974,-184.1475 430.2441,-186.8834 438.1001,-189.2229"/>
<polygon fill="#191970" stroke="#191970" points="437.3736,-192.6539 447.9466,-191.9753 439.2581,-185.9123 437.3736,-192.6539"/>
</g>
<!-- Node444066 -->
<g id="node5" class="node">
<title>Node444066</title>
<g id="a_node5"><a xlink:href="quickjs_8h.html#a775522f2d084fc8fa0fcb33f390006b4" target="_top" xlink:title="JS_DupValue">
<polygon fill="none" stroke="#000000" points="448,-152.5 448,-171.5 525,-171.5 525,-152.5 448,-152.5"/>
<text text-anchor="middle" x="486.5" y="-159.5" font-family="Helvetica,sans-Serif" font-size="10.00" fill="#000000">JS_DupValue</text>
</a>
</g>
</g>
<!-- Node444026&#45;&gt;Node444066 -->
<g id="edge4" class="edge">
<title>Node444026&#45;&gt;Node444066</title>
<path fill="none" stroke="#191970" d="M364.258,-133.589C386.6901,-138.8026 414.5642,-145.281 438.028,-150.7343"/>
<polygon fill="#191970" stroke="#191970" points="437.2524,-154.1473 447.7852,-153.0021 438.8371,-147.329 437.2524,-154.1473"/>
</g>
<!-- Node444067 -->
<g id="node6" class="node">
<title>Node444067</title>
<g id="a_node6"><a xlink:href="quickjs_8c.html#a718e904644ebc55548a5bdbd44f3adb9" target="_top" xlink:title="js_get_length32">
<polygon fill="none" stroke="#ff0000" points="439.5,-114.5 439.5,-133.5 533.5,-133.5 533.5,-114.5 439.5,-114.5"/>
<text text-anchor="middle" x="486.5" y="-121.5" font-family="Helvetica,sans-Serif" font-size="10.00" fill="#000000">js_get_length32</text>
</a>
</g>
</g>
<!-- Node444026&#45;&gt;Node444067 -->
<g id="edge5" class="edge">
<title>Node444026&#45;&gt;Node444067</title>
<path fill="none" stroke="#191970" d="M364.258,-124C383.9319,-124 407.7919,-124 429.1912,-124"/>
<polygon fill="#191970" stroke="#191970" points="429.4695,-127.5001 439.4695,-124 429.4694,-120.5001 429.4695,-127.5001"/>
</g>
<!-- Node444077 -->
<g id="node7" class="node">
<title>Node444077</title>
<g id="a_node7"><a xlink:href="quickjs_8h.html#ad80a83d73e9b7d872b88fbf2943aebe9" target="_top" xlink:title="JS_IsException">
<polygon fill="none" stroke="#000000" points="594,-76.5 594,-95.5 681,-95.5 681,-76.5 594,-76.5"/>
<text text-anchor="middle" x="637.5" y="-83.5" font-family="Helvetica,sans-Serif" font-size="10.00" fill="#000000">JS_IsException</text>
</a>
</g>
</g>
<!-- Node444026&#45;&gt;Node444077 -->
<g id="edge8" class="edge">
<title>Node444026&#45;&gt;Node444077</title>
<path fill="none" stroke="#191970" d="M364.0337,-114.4412C379.8841,-111.0346 398.2149,-107.4411 415,-105 472.3046,-96.6659 538.4837,-91.5889 583.6737,-88.8055"/>
<polygon fill="#191970" stroke="#191970" points="584.0651,-92.2884 593.8377,-88.1963 583.6462,-85.3009 584.0651,-92.2884"/>
</g>
<!-- Node444287 -->
<g id="node8" class="node">
<title>Node444287</title>
<g id="a_node8"><a xlink:href="quickjs_8c.html#aeb97957655d979e9fe56c955da2b2d4b" target="_top" xlink:title="JS_GetPropertyUint32">
<polygon fill="none" stroke="#ff0000" points="425.5,-38.5 425.5,-57.5 547.5,-57.5 547.5,-38.5 425.5,-38.5"/>
<text text-anchor="middle" x="486.5" y="-45.5" font-family="Helvetica,sans-Serif" font-size="10.00" fill="#000000">JS_GetPropertyUint32</text>
</a>
</g>
</g>
<!-- Node444026&#45;&gt;Node444287 -->
<g id="edge7" class="edge">
<title>Node444026&#45;&gt;Node444287</title>
<path fill="none" stroke="#191970" d="M358.3446,-114.4994C365.4266,-111.9161 372.6392,-108.7657 379,-105 397.6775,-93.9428 396.3046,-83.0269 415,-72 422.3767,-67.6491 430.6512,-63.9549 438.8834,-60.8657"/>
<polygon fill="#191970" stroke="#191970" points="440.1864,-64.1179 448.4714,-57.5141 437.8765,-57.51 440.1864,-64.1179"/>
</g>
<!-- Node444067&#45;&gt;Node444077 -->
<g id="edge6" class="edge">
<title>Node444067&#45;&gt;Node444077</title>
<path fill="none" stroke="#191970" d="M524.6037,-114.411C544.44,-109.4191 568.8839,-103.2676 589.9483,-97.9666"/>
<polygon fill="#191970" stroke="#191970" points="590.8269,-101.3548 599.6703,-95.5201 589.1185,-94.5664 590.8269,-101.3548"/>
</g>
<!-- Node444312 -->
<g id="node12" class="node">
<title>Node444312</title>
<g id="a_node12"><a xlink:href="quickjs_8c.html#ad35594576a14c10812efaf958c99af8a" target="_top" xlink:title="JS_CallConstructorInternal">
<polygon fill="none" stroke="#ff0000" points="415,-.5 415,-19.5 558,-19.5 558,-.5 415,-.5"/>
<text text-anchor="middle" x="486.5" y="-7.5" font-family="Helvetica,sans-Serif" font-size="10.00" fill="#000000">JS_CallConstructorInternal</text>
</a>
</g>
</g>
<!-- Node444458&#45;&gt;Node444312 -->
<g id="edge13" class="edge">
<title>Node444458&#45;&gt;Node444312</title>
<path fill="none" stroke="#191970" d="M379.2674,-10C387.5001,-10 396.1159,-10 404.732,-10"/>
<polygon fill="#191970" stroke="#191970" points="404.8237,-13.5001 414.8237,-10 404.8237,-6.5001 404.8237,-13.5001"/>
</g>
<!-- Node444312&#45;&gt;Node444077 -->
<g id="edge14" class="edge">
<title>Node444312&#45;&gt;Node444077</title>
<path fill="none" stroke="#191970" d="M532.3874,-19.5493C541.0965,-22.0946 549.9851,-25.2181 558,-29 580.6786,-39.7011 603.6439,-57.0204 619.0204,-69.7634"/>
<polygon fill="#191970" stroke="#191970" points="616.841,-72.5042 626.7322,-76.3009 621.3675,-67.1647 616.841,-72.5042"/>
</g>
</g>
</svg>
        <g id="navigator" transform="translate(0 0)" fill="#404254">
                <rect fill="#f2f5e9" fill-opacity="0.5" stroke="#606060" stroke-width=".5" x="0" y="0" width="60" height="60"/>
                <use id="zoomplus" xlink:href="#zoomPlus" x="17" y="9" onmousedown="handleZoom(evt,'in')"/>
                <use id="zoomminus" xlink:href="#zoomMin" x="42" y="9" onmousedown="handleZoom(evt,'out')"/>
                <use id="reset" xlink:href="#resetDef" x="30" y="36" onmousedown="handleReset()"/>
                <g id="arrowUp" xlink:href="#dirArrow" transform="translate(30 24)" onmousedown="handlePan(0,-1)">
                  <use xlink:href="#rim" fill="#404040">
                        <set attributeName="fill" to="#808080" begin="arrowUp.mouseover" end="arrowUp.mouseout"/>
                  </use>
                  <path fill="none" stroke="white" stroke-width="1.5" d="M0,-3.0v7 M-2.5,-0.5L0,-3.0L2.5,-0.5"/>
                </g>
                <g id="arrowRight" xlink:href="#dirArrow" transform="rotate(90) translate(36 -43)" onmousedown="handlePan(1,0)">
                  <use xlink:href="#rim" fill="#404040">
                        <set attributeName="fill" to="#808080" begin="arrowRight.mouseover" end="arrowRight.mouseout"/>
                  </use>
                  <path fill="none" stroke="white" stroke-width="1.5" d="M0,-3.0v7 M-2.5,-0.5L0,-3.0L2.5,-0.5"/>
                </g>
                <g id="arrowDown" xlink:href="#dirArrow" transform="rotate(180) translate(-30 -48)" onmousedown="handlePan(0,1)">
                  <use xlink:href="#rim" fill="#404040">
                        <set attributeName="fill" to="#808080" begin="arrowDown.mouseover" end="arrowDown.mouseout"/>
                  </use>
                  <path fill="none" stroke="white" stroke-width="1.5" d="M0,-3.0v7 M-2.5,-0.5L0,-3.0L2.5,-0.5"/>
                </g>
                <g id="arrowLeft" xlink:href="#dirArrow" transform="rotate(270) translate(-36 17)" onmousedown="handlePan(-1,0)">
                  <use xlink:href="#rim" fill="#404040">
                        <set attributeName="fill" to="#808080" begin="arrowLeft.mouseover" end="arrowLeft.mouseout"/>
                  </use>
                  <path fill="none" stroke="white" stroke-width="1.5" d="M0,-3.0v7 M-2.5,-0.5L0,-3.0L2.5,-0.5"/>
                </g>
        </g>
        <svg viewBox="0 0 15 15" width="100%" height="30px" preserveAspectRatio="xMaxYMin meet">
         <g id="arrow_out" transform="scale(0.3 0.3)">
          <a xlink:href="quickjs_8c_a710202e2f99e7c52937df93b912a857b_cgraph_org.svg" target="_base">
           <rect id="button" ry="5" rx="5" y="6" x="6" height="38" width="38"
                fill="#f2f5e9" fill-opacity="0.5" stroke="#606060" stroke-width="1.0"/>
           <path id="arrow"
             d="M 11.500037,31.436501 C 11.940474,20.09759 22.043105,11.32322 32.158766,21.979434 L 37.068811,17.246167 C 37.068811,17.246167 37.088388,32 37.088388,32 L 22.160133,31.978069 C 22.160133,31.978069 26.997745,27.140456 26.997745,27.140456 C 18.528582,18.264221 13.291696,25.230495 11.500037,31.436501 z"
             style="fill:#404040;"/>
          </a>
         </g>
        </svg>
</svg>
