<?xml version="1.0" encoding="UTF-8" standalone="no"?>
<!DOCTYPE svg PUBLIC "-//W3C//DTD SVG 1.1//EN"
 "http://www.w3.org/Graphics/SVG/1.1/DTD/svg11.dtd">
<!-- Generated by graphviz version 2.40.1 (20161225.0304)
 -->
<!-- Title: JS_AddModuleExport Pages: 1 -->
<!--zoomable 408 -->
<svg id="main" version="1.1" xmlns="http://www.w3.org/2000/svg" xmlns:xlink="http://www.w3.org/1999/xlink" xml:space="preserve" onload="init(evt)">
<style type="text/css"><![CDATA[
.edge:hover path { stroke: red; }
.edge:hover polygon { stroke: red; fill: red; }
]]></style>
<script type="text/javascript"><![CDATA[
var edges = document.getElementsByTagName('g');
if (edges && edges.length) {
  for (var i=0;i<edges.length;i++) {
    if (edges[i].id.substr(0,4)=='edge') {
      edges[i].setAttribute('class','edge');
    }
  }
}
]]></script>
        <defs>
                <circle id="rim" cx="0" cy="0" r="7"/>
                <circle id="rim2" cx="0" cy="0" r="3.5"/>
                <g id="zoomPlus">
                        <use xlink:href="#rim" fill="#404040">
                                <set attributeName="fill" to="#808080" begin="zoomplus.mouseover" end="zoomplus.mouseout"/>
                        </use>
                        <path d="M-4,0h8M0,-4v8" fill="none" stroke="white" stroke-width="1.5" pointer-events="none"/>
                </g>
                <g id="zoomMin">
                        <use xlink:href="#rim" fill="#404040">
                                <set attributeName="fill" to="#808080" begin="zoomminus.mouseover" end="zoomminus.mouseout"/>
                        </use>
                        <path d="M-4,0h8" fill="none" stroke="white" stroke-width="1.5" pointer-events="none"/>
                </g>
                <g id="dirArrow">
                        <path fill="none" stroke="white" stroke-width="1.5" d="M0,-3.0v7 M-2.5,-0.5L0,-3.0L2.5,-0.5"/>
                </g>
               <g id="resetDef">
                       <use xlink:href="#rim2" fill="#404040">
                               <set attributeName="fill" to="#808080" begin="reset.mouseover" end="reset.mouseout"/>
                       </use>
               </g>
        </defs>

<script type="text/javascript">
var viewWidth = 688;
var viewHeight = 408;
var sectionId = 'dynsection-276';
</script>
<script xlink:href="svgpan.js"/>
<svg id="graph" class="graph">
<g id="viewport">
<title>JS_AddModuleExport</title>
<!-- Node90623 -->
<g id="node1" class="node">
<title>Node90623</title>
<polygon fill="#bfbfbf" stroke="#000000" points="0,-209.5 0,-228.5 116,-228.5 116,-209.5 0,-209.5"/>
<text text-anchor="middle" x="58" y="-216.5" font-family="Helvetica,sans-Serif" font-size="10.00" fill="#000000">JS_AddModuleExport</text>
</g>
<!-- Node90624 -->
<g id="node2" class="node">
<title>Node90624</title>
<g id="a_node2"><a xlink:href="quickjs_8c.html#aaea4bacf94d0db93f4a13f6e88860ad0" target="_top" xlink:title="add_export_entry2">
<polygon fill="none" stroke="#000000" points="152,-304.5 152,-323.5 260,-323.5 260,-304.5 152,-304.5"/>
<text text-anchor="middle" x="206" y="-311.5" font-family="Helvetica,sans-Serif" font-size="10.00" fill="#000000">add_export_entry2</text>
</a>
</g>
</g>
<!-- Node90623&#45;&gt;Node90624 -->
<g id="edge1" class="edge">
<title>Node90623&#45;&gt;Node90624</title>
<path fill="none" stroke="#191970" d="M73.0055,-228.6319C98.7125,-245.1331 151.3739,-278.9359 182.1576,-298.6958"/>
<polygon fill="#191970" stroke="#191970" points="180.6486,-301.8862 190.9548,-304.3426 184.4299,-295.9953 180.6486,-301.8862"/>
</g>
<!-- Node90642 -->
<g id="node10" class="node">
<title>Node90642</title>
<g id="a_node10"><a xlink:href="quickjs_8c.html#ab7fc45a99935a1c0ba50b0216d9401a9" target="_top" xlink:title="JS_FreeAtom">
<polygon fill="none" stroke="#000000" points="167.5,-209.5 167.5,-228.5 244.5,-228.5 244.5,-209.5 167.5,-209.5"/>
<text text-anchor="middle" x="206" y="-216.5" font-family="Helvetica,sans-Serif" font-size="10.00" fill="#000000">JS_FreeAtom</text>
</a>
</g>
</g>
<!-- Node90623&#45;&gt;Node90642 -->
<g id="edge9" class="edge">
<title>Node90623&#45;&gt;Node90642</title>
<path fill="none" stroke="#191970" d="M116.0687,-219C129.6156,-219 143.9102,-219 157.0179,-219"/>
<polygon fill="#191970" stroke="#191970" points="157.2387,-222.5001 167.2386,-219 157.2386,-215.5001 157.2387,-222.5001"/>
</g>
<!-- Node90647 -->
<g id="node13" class="node">
<title>Node90647</title>
<g id="a_node13"><a xlink:href="quickjs_8c.html#aa2ef5af1544a3012f91a80c98c326b8f" target="_top" xlink:title="JS_NewAtom">
<polygon fill="none" stroke="#000000" points="166.5,-124.5 166.5,-143.5 245.5,-143.5 245.5,-124.5 166.5,-124.5"/>
<text text-anchor="middle" x="206" y="-131.5" font-family="Helvetica,sans-Serif" font-size="10.00" fill="#000000">JS_NewAtom</text>
</a>
</g>
</g>
<!-- Node90623&#45;&gt;Node90647 -->
<g id="edge13" class="edge">
<title>Node90623&#45;&gt;Node90647</title>
<path fill="none" stroke="#191970" d="M74.6898,-209.4146C100.4495,-194.6202 150.0824,-166.1148 180.4023,-148.7014"/>
<polygon fill="#191970" stroke="#191970" points="182.2156,-151.6962 189.1441,-143.6807 178.7294,-145.626 182.2156,-151.6962"/>
</g>
<!-- Node90625 -->
<g id="node3" class="node">
<title>Node90625</title>
<g id="a_node3"><a xlink:href="quickjs_8c.html#af5a10beab08419072e00fedfe4e467af" target="_top" xlink:title="find_export_entry">
<polygon fill="none" stroke="#000000" points="296,-380.5 296,-399.5 398,-399.5 398,-380.5 296,-380.5"/>
<text text-anchor="middle" x="347" y="-387.5" font-family="Helvetica,sans-Serif" font-size="10.00" fill="#000000">find_export_entry</text>
</a>
</g>
</g>
<!-- Node90624&#45;&gt;Node90625 -->
<g id="edge2" class="edge">
<title>Node90624&#45;&gt;Node90625</title>
<path fill="none" stroke="#191970" d="M219.2085,-323.605C236.3132,-335.7473 267.3379,-356.7782 296,-371 300.0614,-373.0152 304.3921,-374.9425 308.7484,-376.744"/>
<polygon fill="#191970" stroke="#191970" points="307.6442,-380.0707 318.2314,-380.4723 310.2055,-373.5561 307.6442,-380.0707"/>
</g>
<!-- Node90626 -->
<g id="node4" class="node">
<title>Node90626</title>
<g id="a_node4"><a xlink:href="quickjs_8c.html#ab18048ab5eea3e47109a5473f78515bc" target="_top" xlink:title="JS_AtomGetStr">
<polygon fill="none" stroke="#000000" points="303,-342.5 303,-361.5 391,-361.5 391,-342.5 303,-342.5"/>
<text text-anchor="middle" x="347" y="-349.5" font-family="Helvetica,sans-Serif" font-size="10.00" fill="#000000">JS_AtomGetStr</text>
</a>
</g>
</g>
<!-- Node90624&#45;&gt;Node90626 -->
<g id="edge3" class="edge">
<title>Node90624&#45;&gt;Node90626</title>
<path fill="none" stroke="#191970" d="M241.5803,-323.589C259.782,-328.4944 282.1384,-334.5196 301.5723,-339.7571"/>
<polygon fill="#191970" stroke="#191970" points="300.8648,-343.1912 311.4311,-342.4141 302.6864,-336.4324 300.8648,-343.1912"/>
</g>
<!-- Node90632 -->
<g id="node6" class="node">
<title>Node90632</title>
<g id="a_node6"><a xlink:href="quickjs_8c.html#abbf44eaeace1104a6bef718fbf5700fe" target="_top" xlink:title="JS_DupAtom">
<polygon fill="none" stroke="#000000" points="308.5,-304.5 308.5,-323.5 385.5,-323.5 385.5,-304.5 308.5,-304.5"/>
<text text-anchor="middle" x="347" y="-311.5" font-family="Helvetica,sans-Serif" font-size="10.00" fill="#000000">JS_DupAtom</text>
</a>
</g>
</g>
<!-- Node90624&#45;&gt;Node90632 -->
<g id="edge5" class="edge">
<title>Node90624&#45;&gt;Node90632</title>
<path fill="none" stroke="#191970" d="M260.111,-314C272.6097,-314 285.8359,-314 298.0974,-314"/>
<polygon fill="#191970" stroke="#191970" points="298.133,-317.5001 308.1329,-314 298.1329,-310.5001 298.133,-317.5001"/>
</g>
<!-- Node90634 -->
<g id="node8" class="node">
<title>Node90634</title>
<g id="a_node8"><a xlink:href="quickjs_8c.html#afa610f3175e9cb11fdceac95071099b5" target="_top" xlink:title="js_resize_array">
<polygon fill="none" stroke="#000000" points="302,-266.5 302,-285.5 392,-285.5 392,-266.5 302,-266.5"/>
<text text-anchor="middle" x="347" y="-273.5" font-family="Helvetica,sans-Serif" font-size="10.00" fill="#000000">js_resize_array</text>
</a>
</g>
</g>
<!-- Node90624&#45;&gt;Node90634 -->
<g id="edge7" class="edge">
<title>Node90624&#45;&gt;Node90634</title>
<path fill="none" stroke="#191970" d="M241.5803,-304.411C259.782,-299.5056 282.1384,-293.4804 301.5723,-288.2429"/>
<polygon fill="#191970" stroke="#191970" points="302.6864,-291.5676 311.4311,-285.5859 300.8648,-284.8088 302.6864,-291.5676"/>
</g>
<!-- Node90627 -->
<g id="node5" class="node">
<title>Node90627</title>
<g id="a_node5"><a xlink:href="quickjs_8c.html#a4e63c63058f1efe20ee939c165f7b3ad" target="_top" xlink:title="JS_AtomGetStrRT">
<polygon fill="none" stroke="#ff0000" points="437,-342.5 437,-361.5 537,-361.5 537,-342.5 437,-342.5"/>
<text text-anchor="middle" x="487" y="-349.5" font-family="Helvetica,sans-Serif" font-size="10.00" fill="#000000">JS_AtomGetStrRT</text>
</a>
</g>
</g>
<!-- Node90626&#45;&gt;Node90627 -->
<g id="edge4" class="edge">
<title>Node90626&#45;&gt;Node90627</title>
<path fill="none" stroke="#191970" d="M391.2969,-352C402.4495,-352 414.613,-352 426.413,-352"/>
<polygon fill="#191970" stroke="#191970" points="426.6546,-355.5001 436.6546,-352 426.6545,-348.5001 426.6546,-355.5001"/>
</g>
<!-- Node90633 -->
<g id="node7" class="node">
<title>Node90633</title>
<g id="a_node7"><a xlink:href="quickjs_8c.html#a7f6796ee7a195631366f57c713a33f65" target="_top" xlink:title="__JS_AtomIsConst">
<polygon fill="none" stroke="#000000" points="576,-228.5 576,-247.5 680,-247.5 680,-228.5 576,-228.5"/>
<text text-anchor="middle" x="628" y="-235.5" font-family="Helvetica,sans-Serif" font-size="10.00" fill="#000000">__JS_AtomIsConst</text>
</a>
</g>
</g>
<!-- Node90632&#45;&gt;Node90633 -->
<g id="edge6" class="edge">
<title>Node90632&#45;&gt;Node90633</title>
<path fill="none" stroke="#191970" d="M385.8695,-315.4858C425.688,-315.7971 488.8323,-312.8959 540,-295 566.0443,-285.891 592.0983,-267.5856 609.0198,-254.1676"/>
<polygon fill="#191970" stroke="#191970" points="611.4491,-256.7029 616.9877,-247.671 607.0256,-251.2776 611.4491,-256.7029"/>
</g>
<!-- Node90635 -->
<g id="node9" class="node">
<title>Node90635</title>
<g id="a_node9"><a xlink:href="quickjs_8c.html#a0eda61158c0a22ef337abc3a035bca33" target="_top" xlink:title="js_realloc_array">
<polygon fill="none" stroke="#ff0000" points="440,-266.5 440,-285.5 534,-285.5 534,-266.5 440,-266.5"/>
<text text-anchor="middle" x="487" y="-273.5" font-family="Helvetica,sans-Serif" font-size="10.00" fill="#000000">js_realloc_array</text>
</a>
</g>
</g>
<!-- Node90634&#45;&gt;Node90635 -->
<g id="edge8" class="edge">
<title>Node90634&#45;&gt;Node90635</title>
<path fill="none" stroke="#191970" d="M392.0675,-276C403.9328,-276 416.8974,-276 429.3267,-276"/>
<polygon fill="#191970" stroke="#191970" points="429.6055,-279.5001 439.6054,-276 429.6054,-272.5001 429.6055,-279.5001"/>
</g>
<!-- Node90642&#45;&gt;Node90633 -->
<g id="edge10" class="edge">
<title>Node90642&#45;&gt;Node90633</title>
<path fill="none" stroke="#191970" d="M244.5684,-220.7365C317.6693,-224.0278 476.979,-231.2005 565.516,-235.1867"/>
<polygon fill="#191970" stroke="#191970" points="565.5427,-238.6914 575.69,-235.6448 565.8576,-231.6985 565.5427,-238.6914"/>
</g>
<!-- Node90643 -->
<g id="node11" class="node">
<title>Node90643</title>
<g id="a_node11"><a xlink:href="quickjs_8c.html#a0bbd9e3ecd55e3ea6c9d44bfda382095" target="_top" xlink:title="__JS_FreeAtom">
<polygon fill="none" stroke="#000000" points="303,-190.5 303,-209.5 391,-209.5 391,-190.5 303,-190.5"/>
<text text-anchor="middle" x="347" y="-197.5" font-family="Helvetica,sans-Serif" font-size="10.00" fill="#000000">__JS_FreeAtom</text>
</a>
</g>
</g>
<!-- Node90642&#45;&gt;Node90643 -->
<g id="edge11" class="edge">
<title>Node90642&#45;&gt;Node90643</title>
<path fill="none" stroke="#191970" d="M244.5289,-213.8082C259.3108,-211.8163 276.4719,-209.5038 292.474,-207.3475"/>
<polygon fill="#191970" stroke="#191970" points="293.3427,-210.7621 302.7857,-205.958 292.4078,-203.8248 293.3427,-210.7621"/>
</g>
<!-- Node90644 -->
<g id="node12" class="node">
<title>Node90644</title>
<g id="a_node12"><a xlink:href="quickjs_8c.html#a58c8965dad50b15b75918a09f3d9dc7c" target="_top" xlink:title="JS_FreeAtomStruct">
<polygon fill="none" stroke="#ff0000" points="434,-190.5 434,-209.5 540,-209.5 540,-190.5 434,-190.5"/>
<text text-anchor="middle" x="487" y="-197.5" font-family="Helvetica,sans-Serif" font-size="10.00" fill="#000000">JS_FreeAtomStruct</text>
</a>
</g>
</g>
<!-- Node90643&#45;&gt;Node90644 -->
<g id="edge12" class="edge">
<title>Node90643&#45;&gt;Node90644</title>
<path fill="none" stroke="#191970" d="M391.2969,-200C401.4957,-200 412.5399,-200 423.3784,-200"/>
<polygon fill="#191970" stroke="#191970" points="423.6727,-203.5001 433.6726,-200 423.6726,-196.5001 423.6727,-203.5001"/>
</g>
<!-- Node90648 -->
<g id="node14" class="node">
<title>Node90648</title>
<g id="a_node14"><a xlink:href="quickjs_8c.html#a522741f41afb1d0da0aa55968cd8579e" target="_top" xlink:title="JS_NewAtomLen">
<polygon fill="none" stroke="#000000" points="299,-95.5 299,-114.5 395,-114.5 395,-95.5 299,-95.5"/>
<text text-anchor="middle" x="347" y="-102.5" font-family="Helvetica,sans-Serif" font-size="10.00" fill="#000000">JS_NewAtomLen</text>
</a>
</g>
</g>
<!-- Node90647&#45;&gt;Node90648 -->
<g id="edge14" class="edge">
<title>Node90647&#45;&gt;Node90648</title>
<path fill="none" stroke="#191970" d="M245.6516,-125.8447C259.5496,-122.9862 275.44,-119.718 290.4513,-116.6306"/>
<polygon fill="#191970" stroke="#191970" points="291.5782,-119.9721 300.6681,-114.5293 290.168,-113.1157 291.5782,-119.9721"/>
</g>
<!-- Node90649 -->
<g id="node15" class="node">
<title>Node90649</title>
<g id="a_node15"><a xlink:href="quickjs_8c.html#ac8c91ebeea0cf07e3079c49a16de739f" target="_top" xlink:title="__JS_FindAtom">
<polygon fill="none" stroke="#ff0000" points="443.5,-152.5 443.5,-171.5 530.5,-171.5 530.5,-152.5 443.5,-152.5"/>
<text text-anchor="middle" x="487" y="-159.5" font-family="Helvetica,sans-Serif" font-size="10.00" fill="#000000">__JS_FindAtom</text>
</a>
</g>
</g>
<!-- Node90648&#45;&gt;Node90649 -->
<g id="edge15" class="edge">
<title>Node90648&#45;&gt;Node90649</title>
<path fill="none" stroke="#191970" d="M367.9288,-114.6159C385.448,-122.5503 411.1755,-133.9362 434,-143 439.1101,-145.0293 444.5334,-147.0841 449.8856,-149.0553"/>
<polygon fill="#191970" stroke="#191970" points="448.7653,-152.372 459.3595,-152.4894 451.1509,-145.791 448.7653,-152.372"/>
</g>
<!-- Node90651 -->
<g id="node16" class="node">
<title>Node90651</title>
<g id="a_node16"><a xlink:href="quickjs_8c.html#ab3ca6381d29dea396b12acd7f755c51a" target="_top" xlink:title="is_digit">
<polygon fill="none" stroke="#000000" points="461,-114.5 461,-133.5 513,-133.5 513,-114.5 461,-114.5"/>
<text text-anchor="middle" x="487" y="-121.5" font-family="Helvetica,sans-Serif" font-size="10.00" fill="#000000">is_digit</text>
</a>
</g>
</g>
<!-- Node90648&#45;&gt;Node90651 -->
<g id="edge17" class="edge">
<title>Node90648&#45;&gt;Node90651</title>
<path fill="none" stroke="#191970" d="M395.1801,-111.5387C413.3894,-114.01 433.7875,-116.7783 450.7245,-119.0769"/>
<polygon fill="#191970" stroke="#191970" points="450.3924,-122.5638 460.7723,-120.4405 451.3339,-115.6274 450.3924,-122.5638"/>
</g>
<!-- Node90652 -->
<g id="node17" class="node">
<title>Node90652</title>
<g id="a_node17"><a xlink:href="quickjs_8h.html#ad80a83d73e9b7d872b88fbf2943aebe9" target="_top" xlink:title="JS_IsException">
<polygon fill="none" stroke="#000000" points="443.5,-76.5 443.5,-95.5 530.5,-95.5 530.5,-76.5 443.5,-76.5"/>
<text text-anchor="middle" x="487" y="-83.5" font-family="Helvetica,sans-Serif" font-size="10.00" fill="#000000">JS_IsException</text>
</a>
</g>
</g>
<!-- Node90648&#45;&gt;Node90652 -->
<g id="edge18" class="edge">
<title>Node90648&#45;&gt;Node90652</title>
<path fill="none" stroke="#191970" d="M395.1801,-98.4613C407.5375,-96.7842 420.903,-94.9703 433.5107,-93.2593"/>
<polygon fill="#191970" stroke="#191970" points="433.9872,-96.7268 443.4257,-91.9137 433.0458,-89.7904 433.9872,-96.7268"/>
</g>
<!-- Node90653 -->
<g id="node18" class="node">
<title>Node90653</title>
<g id="a_node18"><a xlink:href="quickjs_8c.html#a33fd643aff7f70e649d246385cd99b00" target="_top" xlink:title="JS_NewAtomStr">
<polygon fill="none" stroke="#ff0000" points="441,-38.5 441,-57.5 533,-57.5 533,-38.5 441,-38.5"/>
<text text-anchor="middle" x="487" y="-45.5" font-family="Helvetica,sans-Serif" font-size="10.00" fill="#000000">JS_NewAtomStr</text>
</a>
</g>
</g>
<!-- Node90648&#45;&gt;Node90653 -->
<g id="edge19" class="edge">
<title>Node90648&#45;&gt;Node90653</title>
<path fill="none" stroke="#191970" d="M367.9288,-95.3841C385.448,-87.4497 411.1755,-76.0638 434,-67 439.1101,-64.9707 444.5334,-62.9159 449.8856,-60.9447"/>
<polygon fill="#191970" stroke="#191970" points="451.1509,-64.209 459.3595,-57.5106 448.7653,-57.628 451.1509,-64.209"/>
</g>
<!-- Node90667 -->
<g id="node19" class="node">
<title>Node90667</title>
<g id="a_node19"><a xlink:href="quickjs_8c.html#ac34cc554aab1e98c45a7f845fff64385" target="_top" xlink:title="JS_NewStringLen">
<polygon fill="none" stroke="#ff0000" points="438,-.5 438,-19.5 536,-19.5 536,-.5 438,-.5"/>
<text text-anchor="middle" x="487" y="-7.5" font-family="Helvetica,sans-Serif" font-size="10.00" fill="#000000">JS_NewStringLen</text>
</a>
</g>
</g>
<!-- Node90648&#45;&gt;Node90667 -->
<g id="edge20" class="edge">
<title>Node90648&#45;&gt;Node90667</title>
<path fill="none" stroke="#191970" d="M355.7425,-95.2985C370.4833,-79.4526 401.8354,-47.8941 434,-29 437.4108,-26.9964 441.0677,-25.1515 444.8076,-23.4652"/>
<polygon fill="#191970" stroke="#191970" points="446.2715,-26.6475 454.1823,-19.5999 443.6031,-20.176 446.2715,-26.6475"/>
</g>
<!-- Node90649&#45;&gt;Node90633 -->
<g id="edge16" class="edge">
<title>Node90649&#45;&gt;Node90633</title>
<path fill="none" stroke="#191970" d="M517.4914,-171.5746C524.992,-174.2971 532.9037,-177.4886 540,-181 564.0348,-192.8929 589.5495,-209.9743 606.8814,-222.3339"/>
<polygon fill="#191970" stroke="#191970" points="604.9942,-225.2885 615.1478,-228.3143 609.0973,-219.6171 604.9942,-225.2885"/>
</g>
</g>
</svg>
        <g id="navigator" transform="translate(0 0)" fill="#404254">
                <rect fill="#f2f5e9" fill-opacity="0.5" stroke="#606060" stroke-width=".5" x="0" y="0" width="60" height="60"/>
                <use id="zoomplus" xlink:href="#zoomPlus" x="17" y="9" onmousedown="handleZoom(evt,'in')"/>
                <use id="zoomminus" xlink:href="#zoomMin" x="42" y="9" onmousedown="handleZoom(evt,'out')"/>
                <use id="reset" xlink:href="#resetDef" x="30" y="36" onmousedown="handleReset()"/>
                <g id="arrowUp" xlink:href="#dirArrow" transform="translate(30 24)" onmousedown="handlePan(0,-1)">
                  <use xlink:href="#rim" fill="#404040">
                        <set attributeName="fill" to="#808080" begin="arrowUp.mouseover" end="arrowUp.mouseout"/>
                  </use>
                  <path fill="none" stroke="white" stroke-width="1.5" d="M0,-3.0v7 M-2.5,-0.5L0,-3.0L2.5,-0.5"/>
                </g>
                <g id="arrowRight" xlink:href="#dirArrow" transform="rotate(90) translate(36 -43)" onmousedown="handlePan(1,0)">
                  <use xlink:href="#rim" fill="#404040">
                        <set attributeName="fill" to="#808080" begin="arrowRight.mouseover" end="arrowRight.mouseout"/>
                  </use>
                  <path fill="none" stroke="white" stroke-width="1.5" d="M0,-3.0v7 M-2.5,-0.5L0,-3.0L2.5,-0.5"/>
                </g>
                <g id="arrowDown" xlink:href="#dirArrow" transform="rotate(180) translate(-30 -48)" onmousedown="handlePan(0,1)">
                  <use xlink:href="#rim" fill="#404040">
                        <set attributeName="fill" to="#808080" begin="arrowDown.mouseover" end="arrowDown.mouseout"/>
                  </use>
                  <path fill="none" stroke="white" stroke-width="1.5" d="M0,-3.0v7 M-2.5,-0.5L0,-3.0L2.5,-0.5"/>
                </g>
                <g id="arrowLeft" xlink:href="#dirArrow" transform="rotate(270) translate(-36 17)" onmousedown="handlePan(-1,0)">
                  <use xlink:href="#rim" fill="#404040">
                        <set attributeName="fill" to="#808080" begin="arrowLeft.mouseover" end="arrowLeft.mouseout"/>
                  </use>
                  <path fill="none" stroke="white" stroke-width="1.5" d="M0,-3.0v7 M-2.5,-0.5L0,-3.0L2.5,-0.5"/>
                </g>
        </g>
        <svg viewBox="0 0 15 15" width="100%" height="30px" preserveAspectRatio="xMaxYMin meet">
         <g id="arrow_out" transform="scale(0.3 0.3)">
          <a xlink:href="quickjs_8h_a6dd97ad7099b39030ed4322e4d9ac5ce_cgraph_org.svg" target="_base">
           <rect id="button" ry="5" rx="5" y="6" x="6" height="38" width="38"
                fill="#f2f5e9" fill-opacity="0.5" stroke="#606060" stroke-width="1.0"/>
           <path id="arrow"
             d="M 11.500037,31.436501 C 11.940474,20.09759 22.043105,11.32322 32.158766,21.979434 L 37.068811,17.246167 C 37.068811,17.246167 37.088388,32 37.088388,32 L 22.160133,31.978069 C 22.160133,31.978069 26.997745,27.140456 26.997745,27.140456 C 18.528582,18.264221 13.291696,25.230495 11.500037,31.436501 z"
             style="fill:#404040;"/>
          </a>
         </g>
        </svg>
</svg>
