<?xml version="1.0" encoding="UTF-8" standalone="no"?>
<!DOCTYPE svg PUBLIC "-//W3C//DTD SVG 1.1//EN"
 "http://www.w3.org/Graphics/SVG/1.1/DTD/svg11.dtd">
<!-- Generated by graphviz version 2.40.1 (20161225.0304)
 -->
<!-- Title: js_symbol_constructor Pages: 1 -->
<svg width="690pt" height="683pt"
 viewBox="0.00 0.00 690.00 683.00" xmlns="http://www.w3.org/2000/svg" xmlns:xlink="http://www.w3.org/1999/xlink">
<g id="graph0" class="graph" transform="scale(1 1) rotate(0) translate(4 679)">
<title>js_symbol_constructor</title>
<!-- Node453987 -->
<g id="node1" class="node">
<title>Node453987</title>
<polygon fill="#bfbfbf" stroke="#000000" points="0,-242.5 0,-261.5 126,-261.5 126,-242.5 0,-242.5"/>
<text text-anchor="middle" x="63" y="-249.5" font-family="Helvetica,sans-Serif" font-size="10.00" fill="#000000">js_symbol_constructor</text>
</g>
<!-- Node453988 -->
<g id="node2" class="node">
<title>Node453988</title>
<g id="a_node2"><a xlink:href="quickjs_8h.html#ad80a83d73e9b7d872b88fbf2943aebe9" target="_top" xlink:title="JS_IsException">
<polygon fill="none" stroke="#000000" points="465,-228.5 465,-247.5 552,-247.5 552,-228.5 465,-228.5"/>
<text text-anchor="middle" x="508.5" y="-235.5" font-family="Helvetica,sans-Serif" font-size="10.00" fill="#000000">JS_IsException</text>
</a>
</g>
</g>
<!-- Node453987&#45;&gt;Node453988 -->
<g id="edge1" class="edge">
<title>Node453987&#45;&gt;Node453988</title>
<path fill="none" stroke="#191970" d="M126.3562,-250.009C214.3579,-247.2435 372.0611,-242.2876 454.6734,-239.6915"/>
<polygon fill="#191970" stroke="#191970" points="454.9648,-243.1842 464.8499,-239.3717 454.7449,-236.1876 454.9648,-243.1842"/>
</g>
<!-- Node453989 -->
<g id="node3" class="node">
<title>Node453989</title>
<g id="a_node3"><a xlink:href="quickjs_8h.html#a4e407128a9605afb77523e49e9a627fd" target="_top" xlink:title="JS_IsUndefined">
<polygon fill="none" stroke="#000000" points="162,-261.5 162,-280.5 251,-280.5 251,-261.5 162,-261.5"/>
<text text-anchor="middle" x="206.5" y="-268.5" font-family="Helvetica,sans-Serif" font-size="10.00" fill="#000000">JS_IsUndefined</text>
</a>
</g>
</g>
<!-- Node453987&#45;&gt;Node453989 -->
<g id="edge2" class="edge">
<title>Node453987&#45;&gt;Node453989</title>
<path fill="none" stroke="#191970" d="M126.3589,-260.389C134.8994,-261.5198 143.6007,-262.6719 151.9698,-263.78"/>
<polygon fill="#191970" stroke="#191970" points="151.6075,-267.2625 161.9804,-265.1054 152.5264,-260.323 151.6075,-267.2625"/>
</g>
<!-- Node453990 -->
<g id="node4" class="node">
<title>Node453990</title>
<g id="a_node4"><a xlink:href="quickjs_8c.html#a4709c57b3c941673dcc69e07eb45182c" target="_top" xlink:title="JS_NewSymbol">
<polygon fill="none" stroke="#000000" points="162,-299.5 162,-318.5 251,-318.5 251,-299.5 162,-299.5"/>
<text text-anchor="middle" x="206.5" y="-306.5" font-family="Helvetica,sans-Serif" font-size="10.00" fill="#000000">JS_NewSymbol</text>
</a>
</g>
</g>
<!-- Node453987&#45;&gt;Node453990 -->
<g id="edge3" class="edge">
<title>Node453987&#45;&gt;Node453990</title>
<path fill="none" stroke="#191970" d="M87.0187,-261.5405C110.5072,-270.8705 146.4858,-285.1616 172.8259,-295.6242"/>
<polygon fill="#191970" stroke="#191970" points="171.8172,-298.9895 182.403,-299.4284 174.4014,-292.4839 171.8172,-298.9895"/>
</g>
<!-- Node454009 -->
<g id="node18" class="node">
<title>Node454009</title>
<g id="a_node18"><a xlink:href="quickjs_8c.html#a7bcb8e1a20cbc8374a5f9ba4a2088cec" target="_top" xlink:title="JS_ToString">
<polygon fill="none" stroke="#000000" points="171.5,-157.5 171.5,-176.5 241.5,-176.5 241.5,-157.5 171.5,-157.5"/>
<text text-anchor="middle" x="206.5" y="-164.5" font-family="Helvetica,sans-Serif" font-size="10.00" fill="#000000">JS_ToString</text>
</a>
</g>
</g>
<!-- Node453987&#45;&gt;Node454009 -->
<g id="edge19" class="edge">
<title>Node453987&#45;&gt;Node454009</title>
<path fill="none" stroke="#191970" d="M79.1823,-242.4146C104.0512,-227.684 151.8682,-199.3603 181.2995,-181.9271"/>
<polygon fill="#191970" stroke="#191970" points="183.3365,-184.7885 190.1566,-176.6807 179.769,-178.7658 183.3365,-184.7885"/>
</g>
<!-- Node453991 -->
<g id="node5" class="node">
<title>Node453991</title>
<g id="a_node5"><a xlink:href="quickjs_8c.html#acd08798ec15cc37c60d2e7d70007c6a8" target="_top" xlink:title="__JS_NewAtom">
<polygon fill="none" stroke="#000000" points="307,-465.5 307,-484.5 396,-484.5 396,-465.5 307,-465.5"/>
<text text-anchor="middle" x="351.5" y="-472.5" font-family="Helvetica,sans-Serif" font-size="10.00" fill="#000000">__JS_NewAtom</text>
</a>
</g>
</g>
<!-- Node453990&#45;&gt;Node453991 -->
<g id="edge4" class="edge">
<title>Node453990&#45;&gt;Node453991</title>
<path fill="none" stroke="#191970" d="M215.1362,-318.8869C238.9672,-346.1693 305.8875,-422.7816 336.2168,-457.5033"/>
<polygon fill="#191970" stroke="#191970" points="333.8761,-460.1439 343.0907,-465.3728 339.1481,-455.5389 333.8761,-460.1439"/>
</g>
<!-- Node454007 -->
<g id="node16" class="node">
<title>Node454007</title>
<g id="a_node16"><a xlink:href="quickjs_8c.html#a344d6c0e45d9bf3861fd9269724045a2" target="_top" xlink:title="JS_ThrowOutOfMemory">
<polygon fill="none" stroke="#000000" points="287,-280.5 287,-299.5 416,-299.5 416,-280.5 287,-280.5"/>
<text text-anchor="middle" x="351.5" y="-287.5" font-family="Helvetica,sans-Serif" font-size="10.00" fill="#000000">JS_ThrowOutOfMemory</text>
</a>
</g>
</g>
<!-- Node453990&#45;&gt;Node454007 -->
<g id="edge17" class="edge">
<title>Node453990&#45;&gt;Node454007</title>
<path fill="none" stroke="#191970" d="M251.1879,-303.1443C259.4103,-302.0669 268.1952,-300.9158 277.0193,-299.7595"/>
<polygon fill="#191970" stroke="#191970" points="277.5102,-303.2252 286.9707,-298.4556 276.6006,-296.2846 277.5102,-303.2252"/>
</g>
<!-- Node453992 -->
<g id="node6" class="node">
<title>Node453992</title>
<g id="a_node6"><a xlink:href="quickjs_8c.html#a7f6796ee7a195631366f57c713a33f65" target="_top" xlink:title="__JS_AtomIsConst">
<polygon fill="none" stroke="#000000" points="456.5,-351.5 456.5,-370.5 560.5,-370.5 560.5,-351.5 456.5,-351.5"/>
<text text-anchor="middle" x="508.5" y="-358.5" font-family="Helvetica,sans-Serif" font-size="10.00" fill="#000000">__JS_AtomIsConst</text>
</a>
</g>
</g>
<!-- Node453991&#45;&gt;Node453992 -->
<g id="edge5" class="edge">
<title>Node453991&#45;&gt;Node453992</title>
<path fill="none" stroke="#191970" d="M359.0626,-465.4946C374.5609,-446.6078 411.8637,-404.1046 452,-380 455.3962,-377.9603 459.0402,-376.1058 462.7817,-374.4267"/>
<polygon fill="#191970" stroke="#191970" points="464.2461,-377.6097 472.198,-370.6085 461.6157,-371.1227 464.2461,-377.6097"/>
</g>
<!-- Node453993 -->
<g id="node7" class="node">
<title>Node453993</title>
<g id="a_node7"><a xlink:href="quickjs_8c.html#ad7824788e3ed6ecfd045f02398647753" target="_top" xlink:title="atom_get_free">
<polygon fill="none" stroke="#000000" points="464.5,-313.5 464.5,-332.5 552.5,-332.5 552.5,-313.5 464.5,-313.5"/>
<text text-anchor="middle" x="508.5" y="-320.5" font-family="Helvetica,sans-Serif" font-size="10.00" fill="#000000">atom_get_free</text>
</a>
</g>
</g>
<!-- Node453991&#45;&gt;Node453993 -->
<g id="edge6" class="edge">
<title>Node453991&#45;&gt;Node453993</title>
<path fill="none" stroke="#191970" d="M356.1442,-465.3953C368.3708,-441.0992 403.8531,-376.6677 452,-342 454.6874,-340.0649 457.5858,-338.3168 460.6005,-336.739"/>
<polygon fill="#191970" stroke="#191970" points="462.2509,-339.8332 469.8982,-332.5004 459.3473,-333.4638 462.2509,-339.8332"/>
</g>
<!-- Node453994 -->
<g id="node8" class="node">
<title>Node453994</title>
<g id="a_node8"><a xlink:href="quickjs_8c.html#aba70a7ff210dcedf19125863f2b12d4e" target="_top" xlink:title="atom_set_free">
<polygon fill="none" stroke="#000000" points="465,-655.5 465,-674.5 552,-674.5 552,-655.5 465,-655.5"/>
<text text-anchor="middle" x="508.5" y="-662.5" font-family="Helvetica,sans-Serif" font-size="10.00" fill="#000000">atom_set_free</text>
</a>
</g>
</g>
<!-- Node453991&#45;&gt;Node453994 -->
<g id="edge7" class="edge">
<title>Node453991&#45;&gt;Node453994</title>
<path fill="none" stroke="#191970" d="M354.4954,-484.7485C363.8955,-513.7334 395.5913,-600.2042 452,-646 454.1479,-647.7438 456.4634,-649.3306 458.8881,-650.7742"/>
<polygon fill="#191970" stroke="#191970" points="457.5374,-654.0131 468.0411,-655.3993 460.6944,-647.7654 457.5374,-654.0131"/>
</g>
<!-- Node453995 -->
<g id="node9" class="node">
<title>Node453995</title>
<g id="a_node9"><a xlink:href="quickjs_8c.html#a745328cb78cc898a3e105bc7bd7aee38" target="_top" xlink:title="hash_string">
<polygon fill="none" stroke="#ff0000" points="472,-617.5 472,-636.5 545,-636.5 545,-617.5 472,-617.5"/>
<text text-anchor="middle" x="508.5" y="-624.5" font-family="Helvetica,sans-Serif" font-size="10.00" fill="#000000">hash_string</text>
</a>
</g>
</g>
<!-- Node453991&#45;&gt;Node453995 -->
<g id="edge8" class="edge">
<title>Node453991&#45;&gt;Node453995</title>
<path fill="none" stroke="#191970" d="M356.7835,-484.704C369.9494,-508.0768 406.4603,-568.1335 452,-603 457.1089,-606.9115 462.9506,-610.3129 468.8953,-613.2273"/>
<polygon fill="#191970" stroke="#191970" points="467.6741,-616.5154 478.2312,-617.4094 470.5359,-610.127 467.6741,-616.5154"/>
</g>
<!-- Node453998 -->
<g id="node10" class="node">
<title>Node453998</title>
<g id="a_node10"><a xlink:href="quickjs_8c.html#a69e19dda8a93d613203e0baa06f0ed8d" target="_top" xlink:title="js_free_rt">
<polygon fill="none" stroke="#000000" points="610.5,-541.5 610.5,-560.5 672.5,-560.5 672.5,-541.5 610.5,-541.5"/>
<text text-anchor="middle" x="641.5" y="-548.5" font-family="Helvetica,sans-Serif" font-size="10.00" fill="#000000">js_free_rt</text>
</a>
</g>
</g>
<!-- Node453991&#45;&gt;Node453998 -->
<g id="edge9" class="edge">
<title>Node453991&#45;&gt;Node453998</title>
<path fill="none" stroke="#191970" d="M357.8366,-484.7135C371.8652,-505.2078 407.8286,-552.4272 452,-570 503.1868,-590.3638 568.0135,-576.1731 607.0443,-563.7803"/>
<polygon fill="#191970" stroke="#191970" points="608.4704,-566.995 616.8618,-560.527 606.2684,-560.3503 608.4704,-566.995"/>
</g>
<!-- Node453999 -->
<g id="node11" class="node">
<title>Node453999</title>
<g id="a_node11"><a xlink:href="quickjs_8c.html#aa506aaf9df272c0e9e541bbf0138b483" target="_top" xlink:title="js_free_string">
<polygon fill="none" stroke="#ff0000" points="467,-541.5 467,-560.5 550,-560.5 550,-541.5 467,-541.5"/>
<text text-anchor="middle" x="508.5" y="-548.5" font-family="Helvetica,sans-Serif" font-size="10.00" fill="#000000">js_free_string</text>
</a>
</g>
</g>
<!-- Node453991&#45;&gt;Node453999 -->
<g id="edge10" class="edge">
<title>Node453991&#45;&gt;Node453999</title>
<path fill="none" stroke="#191970" d="M366.3512,-484.626C385.5589,-496.7904 420.3165,-517.8448 452,-532 456.779,-534.1351 461.875,-536.1682 466.9763,-538.0562"/>
<polygon fill="#191970" stroke="#191970" points="466.1159,-541.4643 476.7107,-541.4969 468.4487,-534.8644 466.1159,-541.4643"/>
</g>
<!-- Node454001 -->
<g id="node12" class="node">
<title>Node454001</title>
<g id="a_node12"><a xlink:href="quickjs_8c.html#ab7f82c24ed28f06191bf5a51f78bb710" target="_top" xlink:title="js_get_atom_index">
<polygon fill="none" stroke="#000000" points="454,-503.5 454,-522.5 563,-522.5 563,-503.5 454,-503.5"/>
<text text-anchor="middle" x="508.5" y="-510.5" font-family="Helvetica,sans-Serif" font-size="10.00" fill="#000000">js_get_atom_index</text>
</a>
</g>
</g>
<!-- Node453991&#45;&gt;Node454001 -->
<g id="edge12" class="edge">
<title>Node453991&#45;&gt;Node454001</title>
<path fill="none" stroke="#191970" d="M391.1177,-484.589C411.8356,-489.6035 437.3875,-495.7881 459.356,-501.1053"/>
<polygon fill="#191970" stroke="#191970" points="458.6244,-504.5292 469.1672,-503.4799 460.2712,-497.7256 458.6244,-504.5292"/>
</g>
<!-- Node454002 -->
<g id="node13" class="node">
<title>Node454002</title>
<g id="a_node13"><a xlink:href="quickjs_8c.html#ac8b63cf5ecd077231532b9ad543aad23" target="_top" xlink:title="JS_ResizeAtomHash">
<polygon fill="none" stroke="#000000" points="452,-465.5 452,-484.5 565,-484.5 565,-465.5 452,-465.5"/>
<text text-anchor="middle" x="508.5" y="-472.5" font-family="Helvetica,sans-Serif" font-size="10.00" fill="#000000">JS_ResizeAtomHash</text>
</a>
</g>
</g>
<!-- Node453991&#45;&gt;Node454002 -->
<g id="edge13" class="edge">
<title>Node453991&#45;&gt;Node454002</title>
<path fill="none" stroke="#191970" d="M396.0699,-475C410.274,-475 426.3132,-475 441.7344,-475"/>
<polygon fill="#191970" stroke="#191970" points="441.7535,-478.5001 451.7535,-475 441.7535,-471.5001 441.7535,-478.5001"/>
</g>
<!-- Node454003 -->
<g id="node14" class="node">
<title>Node454003</title>
<g id="a_node14"><a xlink:href="quickjs_8c.html#aa3b85ecf2f1fbd87cb38b78548286017" target="_top" xlink:title="js_string_memcmp">
<polygon fill="none" stroke="#ff0000" points="453.5,-427.5 453.5,-446.5 563.5,-446.5 563.5,-427.5 453.5,-427.5"/>
<text text-anchor="middle" x="508.5" y="-434.5" font-family="Helvetica,sans-Serif" font-size="10.00" fill="#000000">js_string_memcmp</text>
</a>
</g>
</g>
<!-- Node453991&#45;&gt;Node454003 -->
<g id="edge15" class="edge">
<title>Node453991&#45;&gt;Node454003</title>
<path fill="none" stroke="#191970" d="M391.1177,-465.411C411.8356,-460.3965 437.3875,-454.2119 459.356,-448.8947"/>
<polygon fill="#191970" stroke="#191970" points="460.2712,-452.2744 469.1672,-446.5201 458.6244,-445.4708 460.2712,-452.2744"/>
</g>
<!-- Node454006 -->
<g id="node15" class="node">
<title>Node454006</title>
<g id="a_node15"><a xlink:href="cutils_8h.html#a94f155fcce337a2b9d4719ed8042cbbe" target="_top" xlink:title="max_int">
<polygon fill="none" stroke="#000000" points="480.5,-389.5 480.5,-408.5 536.5,-408.5 536.5,-389.5 480.5,-389.5"/>
<text text-anchor="middle" x="508.5" y="-396.5" font-family="Helvetica,sans-Serif" font-size="10.00" fill="#000000">max_int</text>
</a>
</g>
</g>
<!-- Node453991&#45;&gt;Node454006 -->
<g id="edge16" class="edge">
<title>Node453991&#45;&gt;Node454006</title>
<path fill="none" stroke="#191970" d="M366.3512,-465.374C385.5589,-453.2096 420.3165,-432.1552 452,-418 457.8907,-415.3682 464.2631,-412.8915 470.5332,-410.6503"/>
<polygon fill="#191970" stroke="#191970" points="471.8913,-413.8848 480.2182,-407.3339 469.6236,-407.2623 471.8913,-413.8848"/>
</g>
<!-- Node453999&#45;&gt;Node453998 -->
<g id="edge11" class="edge">
<title>Node453999&#45;&gt;Node453998</title>
<path fill="none" stroke="#191970" d="M550.2171,-551C566.2151,-551 584.4461,-551 600.387,-551"/>
<polygon fill="#191970" stroke="#191970" points="600.4853,-554.5001 610.4853,-551 600.4852,-547.5001 600.4853,-554.5001"/>
</g>
<!-- Node454002&#45;&gt;Node453998 -->
<g id="edge14" class="edge">
<title>Node454002&#45;&gt;Node453998</title>
<path fill="none" stroke="#191970" d="M542.6837,-484.5593C550.2221,-487.1947 558.0324,-490.3515 565,-494 586.3419,-505.1754 608.1279,-522.0526 622.9637,-534.5447"/>
<polygon fill="#191970" stroke="#191970" points="620.9754,-537.4509 630.8398,-541.3168 625.5392,-532.1432 620.9754,-537.4509"/>
</g>
<!-- Node454008 -->
<g id="node17" class="node">
<title>Node454008</title>
<g id="a_node17"><a xlink:href="quickjs_8c.html#a853f0924d441ea4225488f37c8b69f9a" target="_top" xlink:title="__attribute__">
<polygon fill="none" stroke="#000000" points="468.5,-275.5 468.5,-294.5 548.5,-294.5 548.5,-275.5 468.5,-275.5"/>
<text text-anchor="middle" x="508.5" y="-282.5" font-family="Helvetica,sans-Serif" font-size="10.00" fill="#000000">__attribute__</text>
</a>
</g>
</g>
<!-- Node454007&#45;&gt;Node454008 -->
<g id="edge18" class="edge">
<title>Node454007&#45;&gt;Node454008</title>
<path fill="none" stroke="#191970" d="M416.2643,-287.9374C430.1276,-287.4959 444.5807,-287.0356 457.8211,-286.614"/>
<polygon fill="#191970" stroke="#191970" points="458.2616,-290.1018 468.1451,-286.2852 458.0387,-283.1054 458.2616,-290.1018"/>
</g>
<!-- Node454010 -->
<g id="node19" class="node">
<title>Node454010</title>
<g id="a_node19"><a xlink:href="quickjs_8c.html#a46d6ebdd8c73102fd9e02a89b1f1d09a" target="_top" xlink:title="JS_ToStringInternal">
<polygon fill="none" stroke="#000000" points="298,-133.5 298,-152.5 405,-152.5 405,-133.5 298,-133.5"/>
<text text-anchor="middle" x="351.5" y="-140.5" font-family="Helvetica,sans-Serif" font-size="10.00" fill="#000000">JS_ToStringInternal</text>
</a>
</g>
</g>
<!-- Node454009&#45;&gt;Node454010 -->
<g id="edge20" class="edge">
<title>Node454009&#45;&gt;Node454010</title>
<path fill="none" stroke="#191970" d="M241.6005,-161.1903C255.4201,-158.9029 271.7363,-156.2023 287.5079,-153.5918"/>
<polygon fill="#191970" stroke="#191970" points="288.4675,-156.9807 297.7617,-151.8946 287.3243,-150.0746 288.4675,-156.9807"/>
</g>
<!-- Node454010&#45;&gt;Node453988 -->
<g id="edge26" class="edge">
<title>Node454010&#45;&gt;Node453988</title>
<path fill="none" stroke="#191970" d="M361.8633,-152.6772C379.2714,-168.488 416.0223,-199.9973 452,-219 456.0206,-221.1236 460.3255,-223.078 464.6985,-224.8586"/>
<polygon fill="#191970" stroke="#191970" points="463.7051,-228.2245 474.297,-228.4775 466.1747,-221.6746 463.7051,-228.2245"/>
</g>
<!-- Node454010&#45;&gt;Node454010 -->
<g id="edge30" class="edge">
<title>Node454010&#45;&gt;Node454010</title>
<path fill="none" stroke="#191970" d="M329.3054,-152.7571C318.5081,-161.5653 325.9063,-171 351.5,-171 368.2959,-171 377.2556,-166.9368 378.3792,-161.6539"/>
<polygon fill="#191970" stroke="#191970" points="381.4506,-159.9747 373.6946,-152.7571 375.2567,-163.2361 381.4506,-159.9747"/>
</g>
<!-- Node454011 -->
<g id="node20" class="node">
<title>Node454011</title>
<g id="a_node20"><a xlink:href="quickjs_8c.html#a260bfa297ff6cb5bd18e229afaa54663" target="_top" xlink:title="JS_AtomToString">
<polygon fill="none" stroke="#ff0000" points="460.5,-190.5 460.5,-209.5 556.5,-209.5 556.5,-190.5 460.5,-190.5"/>
<text text-anchor="middle" x="508.5" y="-197.5" font-family="Helvetica,sans-Serif" font-size="10.00" fill="#000000">JS_AtomToString</text>
</a>
</g>
</g>
<!-- Node454010&#45;&gt;Node454011 -->
<g id="edge21" class="edge">
<title>Node454010&#45;&gt;Node454011</title>
<path fill="none" stroke="#191970" d="M376.1864,-152.6264C396.4729,-160.4665 426.0005,-171.7167 452,-181 457.6817,-183.0287 463.7057,-185.1187 469.6213,-187.137"/>
<polygon fill="#191970" stroke="#191970" points="468.801,-190.5542 479.3953,-190.4422 471.0435,-183.9231 468.801,-190.5542"/>
</g>
<!-- Node454035 -->
<g id="node21" class="node">
<title>Node454035</title>
<g id="a_node21"><a xlink:href="quickjs_8c.html#a6508a2922531adcb280bbff485a9a44a" target="_top" xlink:title="js_dtoa">
<polygon fill="none" stroke="#ff0000" points="482.5,-152.5 482.5,-171.5 534.5,-171.5 534.5,-152.5 482.5,-152.5"/>
<text text-anchor="middle" x="508.5" y="-159.5" font-family="Helvetica,sans-Serif" font-size="10.00" fill="#000000">js_dtoa</text>
</a>
</g>
</g>
<!-- Node454010&#45;&gt;Node454035 -->
<g id="edge22" class="edge">
<title>Node454010&#45;&gt;Node454035</title>
<path fill="none" stroke="#191970" d="M405.0914,-149.4856C427.2291,-152.1647 452.3154,-155.2006 472.235,-157.6112"/>
<polygon fill="#191970" stroke="#191970" points="472.0793,-161.1178 482.4273,-158.8447 472.9203,-154.1686 472.0793,-161.1178"/>
</g>
<!-- Node454016 -->
<g id="node22" class="node">
<title>Node454016</title>
<g id="a_node22"><a xlink:href="quickjs_8c.html#a0ee6a3654a6016393fac5e1c108f403a" target="_top" xlink:title="JS_NewString">
<polygon fill="none" stroke="#ff0000" points="601,-133.5 601,-152.5 682,-152.5 682,-133.5 601,-133.5"/>
<text text-anchor="middle" x="641.5" y="-140.5" font-family="Helvetica,sans-Serif" font-size="10.00" fill="#000000">JS_NewString</text>
</a>
</g>
</g>
<!-- Node454010&#45;&gt;Node454016 -->
<g id="edge27" class="edge">
<title>Node454010&#45;&gt;Node454016</title>
<path fill="none" stroke="#191970" d="M405.0284,-143C458.1156,-143 538.8513,-143 590.8943,-143"/>
<polygon fill="#191970" stroke="#191970" points="590.9037,-146.5001 600.9036,-143 590.9036,-139.5001 590.9037,-146.5001"/>
</g>
<!-- Node454015 -->
<g id="node23" class="node">
<title>Node454015</title>
<g id="a_node23"><a xlink:href="quickjs_8h.html#a775522f2d084fc8fa0fcb33f390006b4" target="_top" xlink:title="JS_DupValue">
<polygon fill="none" stroke="#000000" points="603,-38.5 603,-57.5 680,-57.5 680,-38.5 603,-38.5"/>
<text text-anchor="middle" x="641.5" y="-45.5" font-family="Helvetica,sans-Serif" font-size="10.00" fill="#000000">JS_DupValue</text>
</a>
</g>
</g>
<!-- Node454010&#45;&gt;Node454015 -->
<g id="edge24" class="edge">
<title>Node454010&#45;&gt;Node454015</title>
<path fill="none" stroke="#191970" d="M380.6341,-133.4561C433.1802,-116.2427 543.8189,-79.999 602.7061,-60.7084"/>
<polygon fill="#191970" stroke="#191970" points="603.9718,-63.9768 612.3853,-57.5376 601.7926,-57.3246 603.9718,-63.9768"/>
</g>
<!-- Node454042 -->
<g id="node24" class="node">
<title>Node454042</title>
<g id="a_node24"><a xlink:href="quickjs_8h.html#afaa20c47565bc704c6c85f3d77254e7d" target="_top" xlink:title="JS_FreeValue">
<polygon fill="none" stroke="#ff0000" points="469.5,-38.5 469.5,-57.5 547.5,-57.5 547.5,-38.5 469.5,-38.5"/>
<text text-anchor="middle" x="508.5" y="-45.5" font-family="Helvetica,sans-Serif" font-size="10.00" fill="#000000">JS_FreeValue</text>
</a>
</g>
</g>
<!-- Node454010&#45;&gt;Node454042 -->
<g id="edge25" class="edge">
<title>Node454010&#45;&gt;Node454042</title>
<path fill="none" stroke="#191970" d="M363.324,-133.3761C381.5689,-118.8268 418.0365,-90.9251 452,-72 458.7204,-68.2553 466.1432,-64.7141 473.338,-61.5595"/>
<polygon fill="#191970" stroke="#191970" points="475.0688,-64.628 482.9204,-57.5144 472.3464,-58.1791 475.0688,-64.628"/>
</g>
<!-- Node454075 -->
<g id="node25" class="node">
<title>Node454075</title>
<g id="a_node25"><a xlink:href="quickjs_8c.html#a2b8df609710fa689dd50b4bd18df2493" target="_top" xlink:title="JS_ToPrimitive">
<polygon fill="none" stroke="#ff0000" points="465.5,-.5 465.5,-19.5 551.5,-19.5 551.5,-.5 465.5,-.5"/>
<text text-anchor="middle" x="508.5" y="-7.5" font-family="Helvetica,sans-Serif" font-size="10.00" fill="#000000">JS_ToPrimitive</text>
</a>
</g>
</g>
<!-- Node454010&#45;&gt;Node454075 -->
<g id="edge28" class="edge">
<title>Node454010&#45;&gt;Node454075</title>
<path fill="none" stroke="#191970" d="M357.5133,-133.2128C371.4292,-111.3539 408.0446,-58.1974 452,-29 455.0683,-26.9619 458.3756,-25.1232 461.7962,-23.4679"/>
<polygon fill="#191970" stroke="#191970" points="463.2208,-26.6653 471.0286,-19.5036 460.4589,-20.2332 463.2208,-26.6653"/>
</g>
<!-- Node454035&#45;&gt;Node454016 -->
<g id="edge23" class="edge">
<title>Node454035&#45;&gt;Node454016</title>
<path fill="none" stroke="#191970" d="M534.7765,-158.2462C550.755,-155.9636 571.6963,-152.972 590.7932,-150.2438"/>
<polygon fill="#191970" stroke="#191970" points="591.467,-153.6832 600.8715,-148.8041 590.477,-146.7535 591.467,-153.6832"/>
</g>
<!-- Node454075&#45;&gt;Node454015 -->
<g id="edge29" class="edge">
<title>Node454075&#45;&gt;Node454015</title>
<path fill="none" stroke="#191970" d="M542.0615,-19.589C559.073,-24.4494 579.9319,-30.4091 598.1446,-35.6127"/>
<polygon fill="#191970" stroke="#191970" points="597.3724,-39.0321 607.9492,-38.4141 599.2955,-32.3014 597.3724,-39.0321"/>
</g>
</g>
</svg>
