<?xml version="1.0" encoding="UTF-8" standalone="no"?>
<!DOCTYPE svg PUBLIC "-//W3C//DTD SVG 1.1//EN"
 "http://www.w3.org/Graphics/SVG/1.1/DTD/svg11.dtd">
<!-- Generated by graphviz version 2.40.1 (20161225.0304)
 -->
<!-- Title: js_string_memcmp Pages: 1 -->
<svg width="703pt" height="768pt"
 viewBox="0.00 0.00 703.00 768.00" xmlns="http://www.w3.org/2000/svg" xmlns:xlink="http://www.w3.org/1999/xlink">
<g id="graph0" class="graph" transform="scale(1 1) rotate(0) translate(4 764)">
<title>js_string_memcmp</title>
<!-- Node19866 -->
<g id="node1" class="node">
<title>Node19866</title>
<polygon fill="#bfbfbf" stroke="#000000" points="0,-266.5 0,-285.5 110,-285.5 110,-266.5 0,-266.5"/>
<text text-anchor="middle" x="55" y="-273.5" font-family="Helvetica,sans-Serif" font-size="10.00" fill="#000000">js_string_memcmp</text>
</g>
<!-- Node19867 -->
<g id="node2" class="node">
<title>Node19867</title>
<g id="a_node2"><a xlink:href="quickjs_8c.html#acd08798ec15cc37c60d2e7d70007c6a8" target="_top" xlink:title="__JS_NewAtom">
<polygon fill="none" stroke="#000000" points="146,-408.5 146,-427.5 235,-427.5 235,-408.5 146,-408.5"/>
<text text-anchor="middle" x="190.5" y="-415.5" font-family="Helvetica,sans-Serif" font-size="10.00" fill="#000000">__JS_NewAtom</text>
</a>
</g>
</g>
<!-- Node19866&#45;&gt;Node19867 -->
<g id="edge1" class="edge">
<title>Node19866&#45;&gt;Node19867</title>
<path fill="none" stroke="#191970" d="M71.5824,-293.3779C100.3086,-323.482 158.4269,-384.3884 181.1214,-408.1715"/>
<polygon fill="#191970" stroke="#191970" points="73.7492,-290.5787 64.3135,-285.7602 68.6849,-295.4112 73.7492,-290.5787"/>
</g>
<!-- Node20524 -->
<g id="node25" class="node">
<title>Node20524</title>
<g id="a_node25"><a xlink:href="quickjs_8c.html#a3d9b165d4274aa43e051caba9bcbbe9f" target="_top" xlink:title="js_string_compare">
<polygon fill="none" stroke="#000000" points="273.5,-95.5 273.5,-114.5 379.5,-114.5 379.5,-95.5 273.5,-95.5"/>
<text text-anchor="middle" x="326.5" y="-102.5" font-family="Helvetica,sans-Serif" font-size="10.00" fill="#000000">js_string_compare</text>
</a>
</g>
</g>
<!-- Node19866&#45;&gt;Node20524 -->
<g id="edge25" class="edge">
<title>Node19866&#45;&gt;Node20524</title>
<path fill="none" stroke="#191970" d="M79.0603,-260.846C133.7911,-226.3747 266.3383,-142.8919 311.2937,-114.5774"/>
<polygon fill="#191970" stroke="#191970" points="76.9712,-258.0254 70.3749,-266.3163 80.7018,-263.9485 76.9712,-258.0254"/>
</g>
<!-- Node19868 -->
<g id="node3" class="node">
<title>Node19868</title>
<g id="a_node3"><a xlink:href="quickjs_8c.html#a128673f932e71b867730af75a44e3f97" target="_top" xlink:title="__JS_NewAtomInit">
<polygon fill="none" stroke="#000000" points="274,-380.5 274,-399.5 379,-399.5 379,-380.5 274,-380.5"/>
<text text-anchor="middle" x="326.5" y="-387.5" font-family="Helvetica,sans-Serif" font-size="10.00" fill="#000000">__JS_NewAtomInit</text>
</a>
</g>
</g>
<!-- Node19867&#45;&gt;Node19868 -->
<g id="edge2" class="edge">
<title>Node19867&#45;&gt;Node19868</title>
<path fill="none" stroke="#191970" d="M245.0362,-406.772C256.6205,-404.387 268.7478,-401.8902 279.9997,-399.5736"/>
<polygon fill="#191970" stroke="#191970" points="244.1202,-403.387 235.0315,-408.8318 245.5319,-410.2432 244.1202,-403.387"/>
</g>
<!-- Node19887 -->
<g id="node6" class="node">
<title>Node19887</title>
<g id="a_node6"><a xlink:href="quickjs_8c.html#a33fd643aff7f70e649d246385cd99b00" target="_top" xlink:title="JS_NewAtomStr">
<polygon fill="none" stroke="#000000" points="280.5,-266.5 280.5,-285.5 372.5,-285.5 372.5,-266.5 280.5,-266.5"/>
<text text-anchor="middle" x="326.5" y="-273.5" font-family="Helvetica,sans-Serif" font-size="10.00" fill="#000000">JS_NewAtomStr</text>
</a>
</g>
</g>
<!-- Node19867&#45;&gt;Node19887 -->
<g id="edge5" class="edge">
<title>Node19867&#45;&gt;Node19887</title>
<path fill="none" stroke="#191970" d="M206.7756,-401.0064C235.4765,-371.0392 294.2112,-309.7133 317.0868,-285.8285"/>
<polygon fill="#191970" stroke="#191970" points="204.237,-398.5968 199.8478,-408.2398 209.2924,-403.4386 204.237,-398.5968"/>
</g>
<!-- Node20519 -->
<g id="node11" class="node">
<title>Node20519</title>
<g id="a_node11"><a xlink:href="quickjs_8c.html#a7445082229205ad47aec019d74536f8e" target="_top" xlink:title="JS_NewAtomUInt32">
<polygon fill="none" stroke="#000000" points="271,-684.5 271,-703.5 382,-703.5 382,-684.5 271,-684.5"/>
<text text-anchor="middle" x="326.5" y="-691.5" font-family="Helvetica,sans-Serif" font-size="10.00" fill="#000000">JS_NewAtomUInt32</text>
</a>
</g>
</g>
<!-- Node19867&#45;&gt;Node20519 -->
<g id="edge10" class="edge">
<title>Node19867&#45;&gt;Node20519</title>
<path fill="none" stroke="#191970" d="M198.1521,-437.0346C211.734,-470.3745 241.4182,-541.2804 271,-599 287.4658,-631.1279 309.8696,-667.5976 320.4687,-684.4865"/>
<polygon fill="#191970" stroke="#191970" points="201.3267,-435.5491 194.3288,-427.5943 194.8386,-438.1768 201.3267,-435.5491"/>
</g>
<!-- Node20520 -->
<g id="node14" class="node">
<title>Node20520</title>
<g id="a_node14"><a xlink:href="quickjs_8c.html#aa641af3a921335927dab07dc83285917" target="_top" xlink:title="JS_NewAtomInt64">
<polygon fill="none" stroke="#000000" points="274.5,-570.5 274.5,-589.5 378.5,-589.5 378.5,-570.5 274.5,-570.5"/>
<text text-anchor="middle" x="326.5" y="-577.5" font-family="Helvetica,sans-Serif" font-size="10.00" fill="#000000">JS_NewAtomInt64</text>
</a>
</g>
</g>
<!-- Node19867&#45;&gt;Node20520 -->
<g id="edge14" class="edge">
<title>Node19867&#45;&gt;Node20520</title>
<path fill="none" stroke="#191970" d="M205.0737,-435.3599C233.5765,-469.3117 295.8694,-543.5135 318.2704,-570.197"/>
<polygon fill="#191970" stroke="#191970" points="207.7105,-433.0572 198.6001,-427.6487 202.3492,-437.558 207.7105,-433.0572"/>
</g>
<!-- Node20521 -->
<g id="node21" class="node">
<title>Node20521</title>
<g id="a_node21"><a xlink:href="quickjs_8c.html#a4709c57b3c941673dcc69e07eb45182c" target="_top" xlink:title="JS_NewSymbol">
<polygon fill="none" stroke="#000000" points="282,-437.5 282,-456.5 371,-456.5 371,-437.5 282,-437.5"/>
<text text-anchor="middle" x="326.5" y="-444.5" font-family="Helvetica,sans-Serif" font-size="10.00" fill="#000000">JS_NewSymbol</text>
</a>
</g>
</g>
<!-- Node19867&#45;&gt;Node20521 -->
<g id="edge21" class="edge">
<title>Node19867&#45;&gt;Node20521</title>
<path fill="none" stroke="#191970" d="M245.1079,-429.6443C257.3148,-432.2473 270.1213,-434.9781 281.8685,-437.483"/>
<polygon fill="#191970" stroke="#191970" points="245.5416,-426.1582 235.0315,-427.4957 244.0817,-433.0043 245.5416,-426.1582"/>
</g>
<!-- Node19869 -->
<g id="node4" class="node">
<title>Node19869</title>
<g id="a_node4"><a xlink:href="quickjs_8c.html#a2469c0e8a95a75d5835ec98ea967085f" target="_top" xlink:title="JS_InitAtoms">
<polygon fill="none" stroke="#ff0000" points="449,-342.5 449,-361.5 527,-361.5 527,-342.5 449,-342.5"/>
<text text-anchor="middle" x="488" y="-349.5" font-family="Helvetica,sans-Serif" font-size="10.00" fill="#000000">JS_InitAtoms</text>
</a>
</g>
</g>
<!-- Node19868&#45;&gt;Node19869 -->
<g id="edge3" class="edge">
<title>Node19868&#45;&gt;Node19869</title>
<path fill="none" stroke="#191970" d="M377.25,-378.0588C400.4033,-372.611 427.3926,-366.2606 448.9311,-361.1927"/>
<polygon fill="#191970" stroke="#191970" points="376.1858,-374.7136 367.2533,-380.411 377.7891,-381.5275 376.1858,-374.7136"/>
</g>
<!-- Node19878 -->
<g id="node5" class="node">
<title>Node19878</title>
<g id="a_node5"><a xlink:href="quickjs_8c.html#a9f0339d81c06451de278073572cc194e" target="_top" xlink:title="JS_NewClass">
<polygon fill="none" stroke="#ff0000" points="448.5,-380.5 448.5,-399.5 527.5,-399.5 527.5,-380.5 448.5,-380.5"/>
<text text-anchor="middle" x="488" y="-387.5" font-family="Helvetica,sans-Serif" font-size="10.00" fill="#000000">JS_NewClass</text>
</a>
</g>
</g>
<!-- Node19868&#45;&gt;Node19878 -->
<g id="edge4" class="edge">
<title>Node19868&#45;&gt;Node19878</title>
<path fill="none" stroke="#191970" d="M389.5663,-390C409.3543,-390 430.6321,-390 448.3246,-390"/>
<polygon fill="#191970" stroke="#191970" points="389.3812,-386.5001 379.3811,-390 389.3811,-393.5001 389.3812,-386.5001"/>
</g>
<!-- Node19888 -->
<g id="node7" class="node">
<title>Node19888</title>
<g id="a_node7"><a xlink:href="quickjs_8c.html#a522741f41afb1d0da0aa55968cd8579e" target="_top" xlink:title="JS_NewAtomLen">
<polygon fill="none" stroke="#ff0000" points="440,-190.5 440,-209.5 536,-209.5 536,-190.5 440,-190.5"/>
<text text-anchor="middle" x="488" y="-197.5" font-family="Helvetica,sans-Serif" font-size="10.00" fill="#000000">JS_NewAtomLen</text>
</a>
</g>
</g>
<!-- Node19887&#45;&gt;Node19888 -->
<g id="edge6" class="edge">
<title>Node19887&#45;&gt;Node19888</title>
<path fill="none" stroke="#191970" d="M347.6864,-260.2969C365.6259,-247.6301 392.433,-230.1452 418,-219 426.5421,-215.2763 435.9948,-212.1178 445.1179,-209.5089"/>
<polygon fill="#191970" stroke="#191970" points="345.2428,-257.743 339.167,-266.4226 349.3293,-263.4264 345.2428,-257.743"/>
</g>
<!-- Node20457 -->
<g id="node8" class="node">
<title>Node20457</title>
<g id="a_node8"><a xlink:href="quickjs_8c.html#a859d5c989a2aaecef1653b3ac279e108" target="_top" xlink:title="JS_ValueToAtom">
<polygon fill="none" stroke="#ff0000" points="440.5,-304.5 440.5,-323.5 535.5,-323.5 535.5,-304.5 440.5,-304.5"/>
<text text-anchor="middle" x="488" y="-311.5" font-family="Helvetica,sans-Serif" font-size="10.00" fill="#000000">JS_ValueToAtom</text>
</a>
</g>
</g>
<!-- Node19887&#45;&gt;Node20457 -->
<g id="edge7" class="edge">
<title>Node19887&#45;&gt;Node20457</title>
<path fill="none" stroke="#191970" d="M377.0583,-287.8961C399.7588,-293.2374 426.1781,-299.4537 447.5398,-304.4799"/>
<polygon fill="#191970" stroke="#191970" points="377.7891,-284.4725 367.2533,-285.589 376.1858,-291.2864 377.7891,-284.4725"/>
</g>
<!-- Node20517 -->
<g id="node9" class="node">
<title>Node20517</title>
<g id="a_node9"><a xlink:href="quickjs_8c.html#a22324bb35cdaa36ce844506a073bb7f4" target="_top" xlink:title="emit_push_const">
<polygon fill="none" stroke="#ff0000" points="438.5,-266.5 438.5,-285.5 537.5,-285.5 537.5,-266.5 438.5,-266.5"/>
<text text-anchor="middle" x="488" y="-273.5" font-family="Helvetica,sans-Serif" font-size="10.00" fill="#000000">emit_push_const</text>
</a>
</g>
</g>
<!-- Node19887&#45;&gt;Node20517 -->
<g id="edge8" class="edge">
<title>Node19887&#45;&gt;Node20517</title>
<path fill="none" stroke="#191970" d="M382.8844,-276C400.9392,-276 420.7871,-276 438.3267,-276"/>
<polygon fill="#191970" stroke="#191970" points="382.7795,-272.5001 372.7794,-276 382.7794,-279.5001 382.7795,-272.5001"/>
</g>
<!-- Node20518 -->
<g id="node10" class="node">
<title>Node20518</title>
<g id="a_node10"><a xlink:href="quickjs_8c.html#ad54b242d774ba44b2ac39fe8161aaf9c" target="_top" xlink:title="JS_ReadObjectAtoms">
<polygon fill="none" stroke="#ff0000" points="429,-228.5 429,-247.5 547,-247.5 547,-228.5 429,-228.5"/>
<text text-anchor="middle" x="488" y="-235.5" font-family="Helvetica,sans-Serif" font-size="10.00" fill="#000000">JS_ReadObjectAtoms</text>
</a>
</g>
</g>
<!-- Node19887&#45;&gt;Node20518 -->
<g id="edge9" class="edge">
<title>Node19887&#45;&gt;Node20518</title>
<path fill="none" stroke="#191970" d="M377.0583,-264.1039C399.7588,-258.7626 426.1781,-252.5463 447.5398,-247.5201"/>
<polygon fill="#191970" stroke="#191970" points="376.1858,-260.7136 367.2533,-266.411 377.7891,-267.5275 376.1858,-260.7136"/>
</g>
<!-- Node20106 -->
<g id="node12" class="node">
<title>Node20106</title>
<g id="a_node12"><a xlink:href="quickjs_8c.html#ad55fe6f65ecb58e327ac9e9b4ab475f5" target="_top" xlink:title="set_array_length">
<polygon fill="none" stroke="#ff0000" points="439,-684.5 439,-703.5 537,-703.5 537,-684.5 439,-684.5"/>
<text text-anchor="middle" x="488" y="-691.5" font-family="Helvetica,sans-Serif" font-size="10.00" fill="#000000">set_array_length</text>
</a>
</g>
</g>
<!-- Node20519&#45;&gt;Node20106 -->
<g id="edge11" class="edge">
<title>Node20519&#45;&gt;Node20106</title>
<path fill="none" stroke="#191970" d="M392.1773,-694C407.753,-694 424.1043,-694 438.8011,-694"/>
<polygon fill="#191970" stroke="#191970" points="392.0792,-690.5001 382.0791,-694 392.0791,-697.5001 392.0792,-690.5001"/>
</g>
<!-- Node20027 -->
<g id="node13" class="node">
<title>Node20027</title>
<g id="a_node13"><a xlink:href="quickjs_8c.html#a624282391413d4c5a030adbd8b77aa80" target="_top" xlink:title="internalize_json_property">
<polygon fill="none" stroke="#ff0000" points="418,-722.5 418,-741.5 558,-741.5 558,-722.5 418,-722.5"/>
<text text-anchor="middle" x="488" y="-729.5" font-family="Helvetica,sans-Serif" font-size="10.00" fill="#000000">internalize_json_property</text>
</a>
</g>
</g>
<!-- Node20519&#45;&gt;Node20027 -->
<g id="edge12" class="edge">
<title>Node20519&#45;&gt;Node20027</title>
<path fill="none" stroke="#191970" d="M377.0583,-705.8961C399.7588,-711.2374 426.1781,-717.4537 447.5398,-722.4799"/>
<polygon fill="#191970" stroke="#191970" points="377.7891,-702.4725 367.2533,-703.589 376.1858,-709.2864 377.7891,-702.4725"/>
</g>
<!-- Node20027&#45;&gt;Node20027 -->
<g id="edge13" class="edge">
<title>Node20027&#45;&gt;Node20027</title>
<path fill="none" stroke="#191970" d="M458.8809,-750.6539C460.0981,-755.9368 469.8044,-760 488,-760 515.7266,-760 523.7413,-750.5653 512.0441,-741.7571"/>
<polygon fill="#191970" stroke="#191970" points="462.0412,-752.1775 463.9559,-741.7571 455.9609,-748.7091 462.0412,-752.1775"/>
</g>
<!-- Node20245 -->
<g id="node15" class="node">
<title>Node20245</title>
<g id="a_node15"><a xlink:href="quickjs_8c.html#a14674e74168715dc5a3a391910982e5d" target="_top" xlink:title="JS_TryGetPropertyInt64">
<polygon fill="none" stroke="#ff0000" points="424,-532.5 424,-551.5 552,-551.5 552,-532.5 424,-532.5"/>
<text text-anchor="middle" x="488" y="-539.5" font-family="Helvetica,sans-Serif" font-size="10.00" fill="#000000">JS_TryGetPropertyInt64</text>
</a>
</g>
</g>
<!-- Node20520&#45;&gt;Node20245 -->
<g id="edge15" class="edge">
<title>Node20520&#45;&gt;Node20245</title>
<path fill="none" stroke="#191970" d="M377.0583,-568.1039C399.7588,-562.7626 426.1781,-556.5463 447.5398,-551.5201"/>
<polygon fill="#191970" stroke="#191970" points="376.1858,-564.7136 367.2533,-570.411 377.7891,-571.5275 376.1858,-564.7136"/>
</g>
<!-- Node20264 -->
<g id="node17" class="node">
<title>Node20264</title>
<g id="a_node17"><a xlink:href="quickjs_8c.html#a7bb763b31e1c40a04aa0c1d5db0f1191" target="_top" xlink:title="JS_GetPropertyInt64">
<polygon fill="none" stroke="#ff0000" points="431,-608.5 431,-627.5 545,-627.5 545,-608.5 431,-608.5"/>
<text text-anchor="middle" x="488" y="-615.5" font-family="Helvetica,sans-Serif" font-size="10.00" fill="#000000">JS_GetPropertyInt64</text>
</a>
</g>
</g>
<!-- Node20520&#45;&gt;Node20264 -->
<g id="edge17" class="edge">
<title>Node20520&#45;&gt;Node20264</title>
<path fill="none" stroke="#191970" d="M377.0583,-591.8961C399.7588,-597.2374 426.1781,-603.4537 447.5398,-608.4799"/>
<polygon fill="#191970" stroke="#191970" points="377.7891,-588.4725 367.2533,-589.589 376.1858,-595.2864 377.7891,-588.4725"/>
</g>
<!-- Node20070 -->
<g id="node19" class="node">
<title>Node20070</title>
<g id="a_node19"><a xlink:href="quickjs_8c.html#a51b06daa618640e531fe808770553b96" target="_top" xlink:title="JS_SetPropertyInt64">
<polygon fill="none" stroke="#ff0000" points="431.5,-646.5 431.5,-665.5 544.5,-665.5 544.5,-646.5 431.5,-646.5"/>
<text text-anchor="middle" x="488" y="-653.5" font-family="Helvetica,sans-Serif" font-size="10.00" fill="#000000">JS_SetPropertyInt64</text>
</a>
</g>
</g>
<!-- Node20520&#45;&gt;Node20070 -->
<g id="edge19" class="edge">
<title>Node20520&#45;&gt;Node20070</title>
<path fill="none" stroke="#191970" d="M347.6864,-595.7031C365.6259,-608.3699 392.433,-625.8548 418,-637 426.5421,-640.7237 435.9948,-643.8822 445.1179,-646.4911"/>
<polygon fill="#191970" stroke="#191970" points="349.3293,-592.5736 339.167,-589.5774 345.2428,-598.257 349.3293,-592.5736"/>
</g>
<!-- Node20191 -->
<g id="node20" class="node">
<title>Node20191</title>
<g id="a_node20"><a xlink:href="quickjs_8c.html#a70e21308fe3760cd95dd1dbb1a8755e6" target="_top" xlink:title="JS_DeletePropertyInt64">
<polygon fill="none" stroke="#ff0000" points="423.5,-570.5 423.5,-589.5 552.5,-589.5 552.5,-570.5 423.5,-570.5"/>
<text text-anchor="middle" x="488" y="-577.5" font-family="Helvetica,sans-Serif" font-size="10.00" fill="#000000">JS_DeletePropertyInt64</text>
</a>
</g>
</g>
<!-- Node20520&#45;&gt;Node20191 -->
<g id="edge20" class="edge">
<title>Node20520&#45;&gt;Node20191</title>
<path fill="none" stroke="#191970" d="M389.1006,-580C400.3514,-580 412.0979,-580 423.4039,-580"/>
<polygon fill="#191970" stroke="#191970" points="388.9345,-576.5001 378.9344,-580 388.9344,-583.5001 388.9345,-576.5001"/>
</g>
<!-- Node20184 -->
<g id="node16" class="node">
<title>Node20184</title>
<g id="a_node16"><a xlink:href="quickjs_8c.html#af4bd013e63a5d5d55e4d4700d80de12e" target="_top" xlink:title="js_array_indexOf">
<polygon fill="none" stroke="#000000" points="595,-256.5 595,-275.5 694,-275.5 694,-256.5 595,-256.5"/>
<text text-anchor="middle" x="644.5" y="-263.5" font-family="Helvetica,sans-Serif" font-size="10.00" fill="#000000">js_array_indexOf</text>
</a>
</g>
</g>
<!-- Node20245&#45;&gt;Node20184 -->
<g id="edge16" class="edge">
<title>Node20245&#45;&gt;Node20184</title>
<path fill="none" stroke="#191970" d="M552.6456,-527.3603C554.5311,-526.0286 556.3244,-524.5786 558,-523 596.2926,-486.9251 633.654,-317.9522 642.5231,-275.6303"/>
<polygon fill="#191970" stroke="#191970" points="550.7454,-524.4166 543.8657,-532.4739 554.2684,-530.4654 550.7454,-524.4166"/>
</g>
<!-- Node20183 -->
<g id="node18" class="node">
<title>Node20183</title>
<g id="a_node18"><a xlink:href="quickjs_8c.html#a2ef89587b2e4287d4bd0417788c8e21e" target="_top" xlink:title="js_array_includes">
<polygon fill="none" stroke="#ff0000" points="594,-503.5 594,-522.5 695,-522.5 695,-503.5 594,-503.5"/>
<text text-anchor="middle" x="644.5" y="-510.5" font-family="Helvetica,sans-Serif" font-size="10.00" fill="#000000">js_array_includes</text>
</a>
</g>
</g>
<!-- Node20264&#45;&gt;Node20183 -->
<g id="edge18" class="edge">
<title>Node20264&#45;&gt;Node20183</title>
<path fill="none" stroke="#191970" d="M545.8039,-604.9362C550.0401,-603.1908 554.1545,-601.2211 558,-599 593.2081,-578.6645 624.2603,-540.4573 637.5859,-522.6246"/>
<polygon fill="#191970" stroke="#191970" points="544.5622,-601.6636 536.3925,-608.4096 546.9859,-608.2307 544.5622,-601.6636"/>
</g>
<!-- Node20522 -->
<g id="node22" class="node">
<title>Node20522</title>
<g id="a_node22"><a xlink:href="quickjs_8c.html#a978258a269332de3a28eb005d4a7e402" target="_top" xlink:title="JS_NewSymbolFromAtom">
<polygon fill="none" stroke="#ff0000" points="418,-494.5 418,-513.5 558,-513.5 558,-494.5 418,-494.5"/>
<text text-anchor="middle" x="488" y="-501.5" font-family="Helvetica,sans-Serif" font-size="10.00" fill="#000000">JS_NewSymbolFromAtom</text>
</a>
</g>
</g>
<!-- Node20521&#45;&gt;Node20522 -->
<g id="edge22" class="edge">
<title>Node20521&#45;&gt;Node20522</title>
<path fill="none" stroke="#191970" d="M356.5212,-460.6143C374.2018,-468.3423 397.1254,-477.8655 418,-485 428.0092,-488.421 438.9865,-491.6426 449.2189,-494.4273"/>
<polygon fill="#191970" stroke="#191970" points="357.8457,-457.3732 347.2843,-456.5323 355.0162,-463.7758 357.8457,-457.3732"/>
</g>
<!-- Node20449 -->
<g id="node23" class="node">
<title>Node20449</title>
<g id="a_node23"><a xlink:href="quickjs_8c.html#a61afe2267db511c48066e98e0f1768b9" target="_top" xlink:title="js_symbol_constructor">
<polygon fill="none" stroke="#ff0000" points="425,-456.5 425,-475.5 551,-475.5 551,-456.5 425,-456.5"/>
<text text-anchor="middle" x="488" y="-463.5" font-family="Helvetica,sans-Serif" font-size="10.00" fill="#000000">js_symbol_constructor</text>
</a>
</g>
</g>
<!-- Node20521&#45;&gt;Node20449 -->
<g id="edge23" class="edge">
<title>Node20521&#45;&gt;Node20449</title>
<path fill="none" stroke="#191970" d="M381.0626,-453.4191C395.1296,-455.0741 410.3856,-456.8689 424.8497,-458.5706"/>
<polygon fill="#191970" stroke="#191970" points="381.3986,-449.9346 371.0581,-452.2421 380.5806,-456.8867 381.3986,-449.9346"/>
</g>
<!-- Node20450 -->
<g id="node24" class="node">
<title>Node20450</title>
<g id="a_node24"><a xlink:href="quickjs_8c.html#ad73ff651420d0ac8331be13d2575ee31" target="_top" xlink:title="js_symbol_for">
<polygon fill="none" stroke="#000000" points="445.5,-418.5 445.5,-437.5 530.5,-437.5 530.5,-418.5 445.5,-418.5"/>
<text text-anchor="middle" x="488" y="-425.5" font-family="Helvetica,sans-Serif" font-size="10.00" fill="#000000">js_symbol_for</text>
</a>
</g>
</g>
<!-- Node20521&#45;&gt;Node20450 -->
<g id="edge24" class="edge">
<title>Node20521&#45;&gt;Node20450</title>
<path fill="none" stroke="#191970" d="M381.0948,-440.5771C402.0285,-438.1143 425.5912,-435.3422 445.2574,-433.0285"/>
<polygon fill="#191970" stroke="#191970" points="380.5806,-437.1133 371.0581,-441.7579 381.3986,-444.0654 380.5806,-437.1133"/>
</g>
<!-- Node20270 -->
<g id="node26" class="node">
<title>Node20270</title>
<g id="a_node26"><a xlink:href="quickjs_8c.html#ab4e100a9cde5f7ec87c92f5e766dbbab" target="_top" xlink:title="JS_AtomIsNumericIndex1">
<polygon fill="none" stroke="#ff0000" points="418,-114.5 418,-133.5 558,-133.5 558,-114.5 418,-114.5"/>
<text text-anchor="middle" x="488" y="-121.5" font-family="Helvetica,sans-Serif" font-size="10.00" fill="#000000">JS_AtomIsNumericIndex1</text>
</a>
</g>
</g>
<!-- Node20524&#45;&gt;Node20270 -->
<g id="edge26" class="edge">
<title>Node20524&#45;&gt;Node20270</title>
<path fill="none" stroke="#191970" d="M389.961,-112.466C399.0747,-113.5382 408.4967,-114.6467 417.7326,-115.7332"/>
<polygon fill="#191970" stroke="#191970" points="390.1692,-108.9664 379.8287,-111.274 389.3513,-115.9185 390.1692,-108.9664"/>
</g>
<!-- Node20328 -->
<g id="node27" class="node">
<title>Node20328</title>
<g id="a_node27"><a xlink:href="quickjs_8c.html#ad48277f7656d161f492b5f1ff5d8c388" target="_top" xlink:title="js_relational_slow">
<polygon fill="none" stroke="#000000" points="436,-76.5 436,-95.5 540,-95.5 540,-76.5 436,-76.5"/>
<text text-anchor="middle" x="488" y="-83.5" font-family="Helvetica,sans-Serif" font-size="10.00" fill="#000000">js_relational_slow</text>
</a>
</g>
</g>
<!-- Node20524&#45;&gt;Node20328 -->
<g id="edge27" class="edge">
<title>Node20524&#45;&gt;Node20328</title>
<path fill="none" stroke="#191970" d="M390.1482,-97.512C405.2882,-95.7308 421.2689,-93.8507 435.8269,-92.138"/>
<polygon fill="#191970" stroke="#191970" points="389.3513,-94.0815 379.8287,-98.726 390.1692,-101.0336 389.3513,-94.0815"/>
</g>
<!-- Node20525 -->
<g id="node28" class="node">
<title>Node20525</title>
<g id="a_node28"><a xlink:href="quickjs_8c.html#a6b7e8c810c238daa5ac20c70c2f22b24" target="_top" xlink:title="js_strict_eq2">
<polygon fill="none" stroke="#ff0000" points="449,-152.5 449,-171.5 527,-171.5 527,-152.5 449,-152.5"/>
<text text-anchor="middle" x="488" y="-159.5" font-family="Helvetica,sans-Serif" font-size="10.00" fill="#000000">js_strict_eq2</text>
</a>
</g>
</g>
<!-- Node20524&#45;&gt;Node20525 -->
<g id="edge28" class="edge">
<title>Node20524&#45;&gt;Node20525</title>
<path fill="none" stroke="#191970" d="M356.5212,-118.6143C374.2018,-126.3423 397.1254,-135.8655 418,-143 428.0092,-146.421 438.9865,-149.6426 449.2189,-152.4273"/>
<polygon fill="#191970" stroke="#191970" points="357.8457,-115.3732 347.2843,-114.5323 355.0162,-121.7758 357.8457,-115.3732"/>
</g>
<!-- Node20330 -->
<g id="node29" class="node">
<title>Node20330</title>
<g id="a_node29"><a xlink:href="quickjs_8c.html#a341f4d5925a607eeaad8d3cbb03e9de1" target="_top" xlink:title="js_array_cmp_generic">
<polygon fill="none" stroke="#ff0000" points="426.5,-38.5 426.5,-57.5 549.5,-57.5 549.5,-38.5 426.5,-38.5"/>
<text text-anchor="middle" x="488" y="-45.5" font-family="Helvetica,sans-Serif" font-size="10.00" fill="#000000">js_array_cmp_generic</text>
</a>
</g>
</g>
<!-- Node20524&#45;&gt;Node20330 -->
<g id="edge31" class="edge">
<title>Node20524&#45;&gt;Node20330</title>
<path fill="none" stroke="#191970" d="M356.5212,-91.3857C374.2018,-83.6577 397.1254,-74.1345 418,-67 428.0092,-63.579 438.9865,-60.3574 449.2189,-57.5727"/>
<polygon fill="#191970" stroke="#191970" points="355.0162,-88.2242 347.2843,-95.4677 357.8457,-94.6268 355.0162,-88.2242"/>
</g>
<!-- Node20446 -->
<g id="node30" class="node">
<title>Node20446</title>
<g id="a_node30"><a xlink:href="quickjs_8c.html#a96177f318d170980abe8c9c41cdb52d5" target="_top" xlink:title="js_string_localeCompare">
<polygon fill="none" stroke="#000000" points="419.5,-.5 419.5,-19.5 556.5,-19.5 556.5,-.5 419.5,-.5"/>
<text text-anchor="middle" x="488" y="-7.5" font-family="Helvetica,sans-Serif" font-size="10.00" fill="#000000">js_string_localeCompare</text>
</a>
</g>
</g>
<!-- Node20524&#45;&gt;Node20446 -->
<g id="edge32" class="edge">
<title>Node20524&#45;&gt;Node20446</title>
<path fill="none" stroke="#191970" d="M342.3903,-88.0744C359.4988,-70.8125 388.2825,-44.4366 418,-29 425.3754,-25.1689 433.6005,-22.0503 441.7471,-19.5315"/>
<polygon fill="#191970" stroke="#191970" points="339.8396,-85.6771 335.3898,-95.2922 344.8644,-90.5507 339.8396,-85.6771"/>
</g>
<!-- Node20525&#45;&gt;Node20184 -->
<g id="edge30" class="edge">
<title>Node20525&#45;&gt;Node20184</title>
<path fill="none" stroke="#191970" d="M537.0647,-171.8542C544.3331,-174.2881 551.542,-177.2951 558,-181 593.0641,-201.1158 624.1883,-238.8704 637.5589,-256.4905"/>
<polygon fill="#191970" stroke="#191970" points="537.7658,-168.4101 527.1813,-168.8787 535.7478,-175.1129 537.7658,-168.4101"/>
</g>
<!-- Node20525&#45;&gt;Node20183 -->
<g id="edge29" class="edge">
<title>Node20525&#45;&gt;Node20183</title>
<path fill="none" stroke="#191970" d="M536.9917,-168.1794C544.8029,-171.0439 552.2058,-175.1465 558,-181 581.937,-205.1816 632.0569,-450.6982 642.5486,-503.1669"/>
<polygon fill="#191970" stroke="#191970" points="537.9267,-164.8057 527.3418,-165.2651 535.9029,-171.5068 537.9267,-164.8057"/>
</g>
</g>
</svg>
