<?xml version="1.0" encoding="UTF-8" standalone="no"?>
<!DOCTYPE svg PUBLIC "-//W3C//DTD SVG 1.1//EN"
 "http://www.w3.org/Graphics/SVG/1.1/DTD/svg11.dtd">
<!-- Generated by graphviz version 2.40.1 (20161225.0304)
 -->
<!-- Title: JS_SetConstructorBit Pages: 1 -->
<!--zoomable 205 -->
<svg id="main" version="1.1" xmlns="http://www.w3.org/2000/svg" xmlns:xlink="http://www.w3.org/1999/xlink" xml:space="preserve" onload="init(evt)">
<style type="text/css"><![CDATA[
.edge:hover path { stroke: red; }
.edge:hover polygon { stroke: red; fill: red; }
]]></style>
<script type="text/javascript"><![CDATA[
var edges = document.getElementsByTagName('g');
if (edges && edges.length) {
  for (var i=0;i<edges.length;i++) {
    if (edges[i].id.substr(0,4)=='edge') {
      edges[i].setAttribute('class','edge');
    }
  }
}
]]></script>
        <defs>
                <circle id="rim" cx="0" cy="0" r="7"/>
                <circle id="rim2" cx="0" cy="0" r="3.5"/>
                <g id="zoomPlus">
                        <use xlink:href="#rim" fill="#404040">
                                <set attributeName="fill" to="#808080" begin="zoomplus.mouseover" end="zoomplus.mouseout"/>
                        </use>
                        <path d="M-4,0h8M0,-4v8" fill="none" stroke="white" stroke-width="1.5" pointer-events="none"/>
                </g>
                <g id="zoomMin">
                        <use xlink:href="#rim" fill="#404040">
                                <set attributeName="fill" to="#808080" begin="zoomminus.mouseover" end="zoomminus.mouseout"/>
                        </use>
                        <path d="M-4,0h8" fill="none" stroke="white" stroke-width="1.5" pointer-events="none"/>
                </g>
                <g id="dirArrow">
                        <path fill="none" stroke="white" stroke-width="1.5" d="M0,-3.0v7 M-2.5,-0.5L0,-3.0L2.5,-0.5"/>
                </g>
               <g id="resetDef">
                       <use xlink:href="#rim2" fill="#404040">
                               <set attributeName="fill" to="#808080" begin="reset.mouseover" end="reset.mouseout"/>
                       </use>
               </g>
        </defs>

<script type="text/javascript">
var viewWidth = 775;
var viewHeight = 205;
var sectionId = 'dynsection-652';
</script>
<script xlink:href="svgpan.js"/>
<svg id="graph" class="graph">
<g id="viewport">
<title>JS_SetConstructorBit</title>
<!-- Node228423 -->
<g id="node1" class="node">
<title>Node228423</title>
<polygon fill="#bfbfbf" stroke="#000000" points="0,-120.0324 0,-139.0324 116,-139.0324 116,-120.0324 0,-120.0324"/>
<text text-anchor="middle" x="58" y="-127.0324" font-family="Helvetica,sans-Serif" font-size="10.00" fill="#000000">JS_SetConstructorBit</text>
</g>
<!-- Node228424 -->
<g id="node2" class="node">
<title>Node228424</title>
<g id="a_node2"><a xlink:href="quickjs_8c.html#a3afdbdd7b58ef7e1dcc178c362071b3d" target="_top" xlink:title="JS_AddIntrinsicProxy">
<polygon fill="none" stroke="#000000" points="306,-177.0324 306,-196.0324 422,-196.0324 422,-177.0324 306,-177.0324"/>
<text text-anchor="middle" x="364" y="-184.0324" font-family="Helvetica,sans-Serif" font-size="10.00" fill="#000000">JS_AddIntrinsicProxy</text>
</a>
</g>
</g>
<!-- Node228423&#45;&gt;Node228424 -->
<g id="edge1" class="edge">
<title>Node228423&#45;&gt;Node228424</title>
<path fill="none" stroke="#191970" d="M86.1041,-143.441C104.4167,-151.858 129.0828,-162.0024 152,-167.5324 203.0093,-179.8411 262.658,-184.3407 305.6672,-185.9074"/>
<polygon fill="#191970" stroke="#191970" points="87.4317,-140.1976 76.8931,-139.1069 84.4514,-146.5315 87.4317,-140.1976"/>
</g>
<!-- Node228429 -->
<g id="node5" class="node">
<title>Node228429</title>
<g id="a_node5"><a xlink:href="quickjs_8c.html#aab4130a4c3108a127681be821818528a" target="_top" xlink:title="js_closure">
<polygon fill="none" stroke="#000000" points="178.5,-63.0324 178.5,-82.0324 243.5,-82.0324 243.5,-63.0324 178.5,-63.0324"/>
<text text-anchor="middle" x="211" y="-70.0324" font-family="Helvetica,sans-Serif" font-size="10.00" fill="#000000">js_closure</text>
</a>
</g>
</g>
<!-- Node228423&#45;&gt;Node228429 -->
<g id="edge4" class="edge">
<title>Node228423&#45;&gt;Node228429</title>
<path fill="none" stroke="#191970" d="M89.7291,-116.0367C107.8459,-108.4998 131.0562,-99.1267 152,-91.5324 161.0037,-88.2676 170.8781,-84.9765 179.9295,-82.0719"/>
<polygon fill="#191970" stroke="#191970" points="88.1072,-112.9213 80.235,-120.012 90.8108,-119.3782 88.1072,-112.9213"/>
</g>
<!-- Node228655 -->
<g id="node12" class="node">
<title>Node228655</title>
<g id="a_node12"><a xlink:href="quickjs_8c.html#a36322a209de4ef17f939e6d128578d7f" target="_top" xlink:title="js_op_define_class">
<polygon fill="none" stroke="#000000" points="157.5,-101.0324 157.5,-120.0324 264.5,-120.0324 264.5,-101.0324 157.5,-101.0324"/>
<text text-anchor="middle" x="211" y="-108.0324" font-family="Helvetica,sans-Serif" font-size="10.00" fill="#000000">js_op_define_class</text>
</a>
</g>
</g>
<!-- Node228423&#45;&gt;Node228655 -->
<g id="edge16" class="edge">
<title>Node228423&#45;&gt;Node228655</title>
<path fill="none" stroke="#191970" d="M126.2122,-121.0616C136.6661,-119.7634 147.329,-118.4393 157.4074,-117.1877"/>
<polygon fill="#191970" stroke="#191970" points="125.7716,-117.5894 116.2792,-122.2951 126.6343,-124.536 125.7716,-117.5894"/>
</g>
<!-- Node229036 -->
<g id="node13" class="node">
<title>Node229036</title>
<g id="a_node13"><a xlink:href="quickjs_8c.html#aabd74747b51e480d80dc19914e74a3a5" target="_top" xlink:title="js_proxy_constructor">
<polygon fill="none" stroke="#000000" points="152,-139.0324 152,-158.0324 270,-158.0324 270,-139.0324 152,-139.0324"/>
<text text-anchor="middle" x="211" y="-146.0324" font-family="Helvetica,sans-Serif" font-size="10.00" fill="#000000">js_proxy_constructor</text>
</a>
</g>
</g>
<!-- Node228423&#45;&gt;Node229036 -->
<g id="edge18" class="edge">
<title>Node228423&#45;&gt;Node229036</title>
<path fill="none" stroke="#191970" d="M126.2283,-138.0052C134.7803,-139.0672 143.4717,-140.1466 151.8684,-141.1893"/>
<polygon fill="#191970" stroke="#191970" points="126.6343,-134.5288 116.2792,-136.7697 125.7716,-141.4755 126.6343,-134.5288"/>
</g>
<!-- Node228425 -->
<g id="node3" class="node">
<title>Node228425</title>
<g id="a_node3"><a xlink:href="quickjs_8c.html#ad8aedb643b8753b7a15f6cb2df61945e" target="_top" xlink:title="JS_NewContext">
<polygon fill="none" stroke="#000000" points="484,-177.0324 484,-196.0324 575,-196.0324 575,-177.0324 484,-177.0324"/>
<text text-anchor="middle" x="529.5" y="-184.0324" font-family="Helvetica,sans-Serif" font-size="10.00" fill="#000000">JS_NewContext</text>
</a>
</g>
</g>
<!-- Node228424&#45;&gt;Node228425 -->
<g id="edge2" class="edge">
<title>Node228424&#45;&gt;Node228425</title>
<path fill="none" stroke="#191970" d="M432.4367,-186.5324C449.78,-186.5324 467.9886,-186.5324 483.8888,-186.5324"/>
<polygon fill="#191970" stroke="#191970" points="432.3491,-183.0325 422.3491,-186.5324 432.3491,-190.0325 432.3491,-183.0325"/>
</g>
<!-- Node228426 -->
<g id="node4" class="node">
<title>Node228426</title>
<g id="a_node4"><a xlink:href="classqjs_1_1Context.html#a4392a23648acfc4bf6b445336efb5007" target="_top" xlink:title="qjs::Context::Context">
<polygon fill="none" stroke="#ff0000" points="642.5,-177.0324 642.5,-196.0324 761.5,-196.0324 761.5,-177.0324 642.5,-177.0324"/>
<text text-anchor="middle" x="702" y="-184.0324" font-family="Helvetica,sans-Serif" font-size="10.00" fill="#000000">qjs::Context::Context</text>
</a>
</g>
</g>
<!-- Node228425&#45;&gt;Node228426 -->
<g id="edge3" class="edge">
<title>Node228425&#45;&gt;Node228426</title>
<path fill="none" stroke="#191970" d="M585.4317,-186.5324C603.6272,-186.5324 623.8854,-186.5324 642.3428,-186.5324"/>
<polygon fill="#191970" stroke="#191970" points="585.274,-183.0325 575.2739,-186.5324 585.2739,-190.0325 585.274,-183.0325"/>
</g>
<!-- Node228430 -->
<g id="node6" class="node">
<title>Node228430</title>
<g id="a_node6"><a xlink:href="quickjs_8c.html#ac2894ff4edcdb4e6841bcce9c76081e3" target="_top" xlink:title="JS_CallInternal">
<polygon fill="none" stroke="#000000" points="320.5,-83.0324 320.5,-102.0324 407.5,-102.0324 407.5,-83.0324 320.5,-83.0324"/>
<text text-anchor="middle" x="364" y="-90.0324" font-family="Helvetica,sans-Serif" font-size="10.00" fill="#000000">JS_CallInternal</text>
</a>
</g>
</g>
<!-- Node228429&#45;&gt;Node228430 -->
<g id="edge5" class="edge">
<title>Node228429&#45;&gt;Node228430</title>
<path fill="none" stroke="#191970" d="M253.9618,-78.1483C274.7396,-80.8644 299.633,-84.1184 320.4833,-86.844"/>
<polygon fill="#191970" stroke="#191970" points="254.1917,-74.6487 243.8223,-76.8229 253.2843,-81.5897 254.1917,-74.6487"/>
</g>
<!-- Node228492 -->
<g id="node11" class="node">
<title>Node228492</title>
<g id="a_node11"><a xlink:href="quickjs_8c.html#a5d217acce00892ab2b50a1dcc1eb4cc8" target="_top" xlink:title="JS_EvalFunctionInternal">
<polygon fill="none" stroke="#ff0000" points="637,-35.0324 637,-54.0324 767,-54.0324 767,-35.0324 637,-35.0324"/>
<text text-anchor="middle" x="702" y="-42.0324" font-family="Helvetica,sans-Serif" font-size="10.00" fill="#000000">JS_EvalFunctionInternal</text>
</a>
</g>
</g>
<!-- Node228429&#45;&gt;Node228492 -->
<g id="edge15" class="edge">
<title>Node228429&#45;&gt;Node228492</title>
<path fill="none" stroke="#191970" d="M243.9544,-59.1773C311.1786,-33.6496 468.9385,17.4889 601,-6.5324 630.676,-11.9303 662.973,-25.5686 682.8567,-34.9473"/>
<polygon fill="#191970" stroke="#191970" points="242.4009,-56.0252 234.3331,-62.8926 244.9225,-62.5553 242.4009,-56.0252"/>
</g>
<!-- Node228430&#45;&gt;Node228430 -->
<g id="edge14" class="edge">
<title>Node228430&#45;&gt;Node228430</title>
<path fill="none" stroke="#191970" d="M335.6275,-111.1864C336.8135,-116.4692 346.271,-120.5324 364,-120.5324 391.0156,-120.5324 398.8248,-111.0977 387.4276,-102.2895"/>
<polygon fill="#191970" stroke="#191970" points="338.7735,-112.7305 340.5724,-102.2895 332.6551,-109.3298 338.7735,-112.7305"/>
</g>
<!-- Node228431 -->
<g id="node7" class="node">
<title>Node228431</title>
<g id="a_node7"><a xlink:href="quickjs_8c.html#ade71a22dc56e7371392393df663b28b3" target="_top" xlink:title="async_func_resume">
<polygon fill="none" stroke="#ff0000" points="473,-54.0324 473,-73.0324 586,-73.0324 586,-54.0324 473,-54.0324"/>
<text text-anchor="middle" x="529.5" y="-61.0324" font-family="Helvetica,sans-Serif" font-size="10.00" fill="#000000">async_func_resume</text>
</a>
</g>
</g>
<!-- Node228430&#45;&gt;Node228431 -->
<g id="edge6" class="edge">
<title>Node228430&#45;&gt;Node228431</title>
<path fill="none" stroke="#191970" d="M417.8441,-83.0975C436.1631,-79.8875 456.6438,-76.2988 475.0127,-73.0801"/>
<polygon fill="#191970" stroke="#191970" points="417.1623,-79.6636 407.9165,-84.8371 418.3705,-86.5585 417.1623,-79.6636"/>
</g>
<!-- Node228446 -->
<g id="node8" class="node">
<title>Node228446</title>
<g id="a_node8"><a xlink:href="quickjs_8c.html#a1a4c02a29525d5cb2085dd8bca3af350" target="_top" xlink:title="JS_Call">
<polygon fill="none" stroke="#ff0000" points="504.5,-16.0324 504.5,-35.0324 554.5,-35.0324 554.5,-16.0324 504.5,-16.0324"/>
<text text-anchor="middle" x="529.5" y="-23.0324" font-family="Helvetica,sans-Serif" font-size="10.00" fill="#000000">JS_Call</text>
</a>
</g>
</g>
<!-- Node228430&#45;&gt;Node228446 -->
<g id="edge7" class="edge">
<title>Node228430&#45;&gt;Node228446</title>
<path fill="none" stroke="#191970" d="M379.6028,-76.7879C397.8776,-63.7099 429.31,-46.526 458,-35.5324 472.992,-29.7877 490.3903,-25.1231 504.2707,-22.9012"/>
<polygon fill="#191970" stroke="#191970" points="377.3165,-74.1313 371.5435,-83.0152 381.5966,-79.6704 377.3165,-74.1313"/>
</g>
<!-- Node228531 -->
<g id="node9" class="node">
<title>Node228531</title>
<g id="a_node9"><a xlink:href="quickjs_8c.html#ad35594576a14c10812efaf958c99af8a" target="_top" xlink:title="JS_CallConstructorInternal">
<polygon fill="none" stroke="#ff0000" points="458,-130.0324 458,-149.0324 601,-149.0324 601,-130.0324 458,-130.0324"/>
<text text-anchor="middle" x="529.5" y="-137.0324" font-family="Helvetica,sans-Serif" font-size="10.00" fill="#000000">JS_CallConstructorInternal</text>
</a>
</g>
</g>
<!-- Node228430&#45;&gt;Node228531 -->
<g id="edge9" class="edge">
<title>Node228430&#45;&gt;Node228531</title>
<path fill="none" stroke="#191970" d="M417.7604,-100.1175C430.9014,-103.7508 444.9392,-107.8527 458,-111.5324 478.7694,-117.3839 503.0714,-123.7379 517.3249,-129.9585"/>
<polygon fill="#191970" stroke="#191970" points="418.4849,-96.6876 407.9172,-97.4452 416.6508,-103.4431 418.4849,-96.6876"/>
</g>
<!-- Node228545 -->
<g id="node10" class="node">
<title>Node228545</title>
<g id="a_node10"><a xlink:href="quickjs_8c.html#a75f6ee5e4235a7dc99889f3d2eb2c147" target="_top" xlink:title="JS_CallFree">
<polygon fill="none" stroke="#ff0000" points="494.5,-92.0324 494.5,-111.0324 564.5,-111.0324 564.5,-92.0324 494.5,-92.0324"/>
<text text-anchor="middle" x="529.5" y="-99.0324" font-family="Helvetica,sans-Serif" font-size="10.00" fill="#000000">JS_CallFree</text>
</a>
</g>
</g>
<!-- Node228430&#45;&gt;Node228545 -->
<g id="edge11" class="edge">
<title>Node228430&#45;&gt;Node228545</title>
<path fill="none" stroke="#191970" d="M418.0122,-89.0953C443.0591,-89.7769 472.1167,-91.6011 494.2862,-93.9754"/>
<polygon fill="#191970" stroke="#191970" points="417.9888,-85.5941 407.9165,-88.8802 417.8396,-92.5925 417.9888,-85.5941"/>
</g>
<!-- Node228446&#45;&gt;Node228430 -->
<g id="edge8" class="edge">
<title>Node228446&#45;&gt;Node228430</title>
<path fill="none" stroke="#191970" d="M506.0361,-38.2523C491.8867,-42.7251 473.6348,-47.5414 458,-53.5324 435.9271,-61.9904 412.2309,-74.1126 394.1522,-82.9069"/>
<polygon fill="#191970" stroke="#191970" points="507.1673,-41.5646 515.518,-35.0442 504.9238,-34.9338 507.1673,-41.5646"/>
</g>
<!-- Node228531&#45;&gt;Node228430 -->
<g id="edge10" class="edge">
<title>Node228531&#45;&gt;Node228430</title>
<path fill="none" stroke="#191970" d="M449.5904,-127.1351C421.4082,-119.0336 392.1256,-109.8464 376.1345,-102.1443"/>
<polygon fill="#191970" stroke="#191970" points="448.9133,-130.5812 459.4894,-129.9512 450.8287,-123.8484 448.9133,-130.5812"/>
</g>
<!-- Node228545&#45;&gt;Node228430 -->
<g id="edge12" class="edge">
<title>Node228545&#45;&gt;Node228430</title>
<path fill="none" stroke="#191970" d="M484.1215,-105.1614C460.3789,-104.7597 431.4403,-103.1673 407.9165,-100.9611"/>
<polygon fill="#191970" stroke="#191970" points="484.2528,-108.6627 494.2862,-105.2596 484.3205,-101.663 484.2528,-108.6627"/>
</g>
<!-- Node228545&#45;&gt;Node228492 -->
<g id="edge13" class="edge">
<title>Node228545&#45;&gt;Node228492</title>
<path fill="none" stroke="#191970" d="M574.4203,-90.3321C583.2771,-87.9169 592.4678,-85.2636 601,-82.5324 627.9428,-73.9081 658.241,-62.237 678.5624,-54.1139"/>
<polygon fill="#191970" stroke="#191970" points="573.3744,-86.9887 564.6153,-92.9492 575.1797,-93.7519 573.3744,-86.9887"/>
</g>
<!-- Node228655&#45;&gt;Node228430 -->
<g id="edge17" class="edge">
<title>Node228655&#45;&gt;Node228430</title>
<path fill="none" stroke="#191970" d="M274.5193,-103.0596C289.9486,-101.2444 306.1036,-99.3438 320.3739,-97.6649"/>
<polygon fill="#191970" stroke="#191970" points="274.0345,-99.5924 264.512,-104.2369 274.8525,-106.5444 274.0345,-99.5924"/>
</g>
<!-- Node229036&#45;&gt;Node228424 -->
<g id="edge20" class="edge">
<title>Node229036&#45;&gt;Node228424</title>
<path fill="none" stroke="#191970" d="M259.4768,-160.5724C280.8517,-165.8812 305.6134,-172.0312 325.6693,-177.0124"/>
<polygon fill="#191970" stroke="#191970" points="260.1572,-157.1351 249.6084,-158.1214 258.4698,-163.9287 260.1572,-157.1351"/>
</g>
<!-- Node228704 -->
<g id="node14" class="node">
<title>Node228704</title>
<g id="a_node14"><a xlink:href="quickjs_8c.html#a537862df2984a40ceb9be7878c497cd2" target="_top" xlink:title="js_proxy_revocable">
<polygon fill="none" stroke="#000000" points="308.5,-139.0324 308.5,-158.0324 419.5,-158.0324 419.5,-139.0324 308.5,-139.0324"/>
<text text-anchor="middle" x="364" y="-146.0324" font-family="Helvetica,sans-Serif" font-size="10.00" fill="#000000">js_proxy_revocable</text>
</a>
</g>
</g>
<!-- Node229036&#45;&gt;Node228704 -->
<g id="edge19" class="edge">
<title>Node229036&#45;&gt;Node228704</title>
<path fill="none" stroke="#191970" d="M280.1815,-148.5324C289.5001,-148.5324 298.9648,-148.5324 308.0158,-148.5324"/>
<polygon fill="#191970" stroke="#191970" points="280.1538,-145.0325 270.1538,-148.5324 280.1538,-152.0325 280.1538,-145.0325"/>
</g>
</g>
</svg>
        <g id="navigator" transform="translate(0 0)" fill="#404254">
                <rect fill="#f2f5e9" fill-opacity="0.5" stroke="#606060" stroke-width=".5" x="0" y="0" width="60" height="60"/>
                <use id="zoomplus" xlink:href="#zoomPlus" x="17" y="9" onmousedown="handleZoom(evt,'in')"/>
                <use id="zoomminus" xlink:href="#zoomMin" x="42" y="9" onmousedown="handleZoom(evt,'out')"/>
                <use id="reset" xlink:href="#resetDef" x="30" y="36" onmousedown="handleReset()"/>
                <g id="arrowUp" xlink:href="#dirArrow" transform="translate(30 24)" onmousedown="handlePan(0,-1)">
                  <use xlink:href="#rim" fill="#404040">
                        <set attributeName="fill" to="#808080" begin="arrowUp.mouseover" end="arrowUp.mouseout"/>
                  </use>
                  <path fill="none" stroke="white" stroke-width="1.5" d="M0,-3.0v7 M-2.5,-0.5L0,-3.0L2.5,-0.5"/>
                </g>
                <g id="arrowRight" xlink:href="#dirArrow" transform="rotate(90) translate(36 -43)" onmousedown="handlePan(1,0)">
                  <use xlink:href="#rim" fill="#404040">
                        <set attributeName="fill" to="#808080" begin="arrowRight.mouseover" end="arrowRight.mouseout"/>
                  </use>
                  <path fill="none" stroke="white" stroke-width="1.5" d="M0,-3.0v7 M-2.5,-0.5L0,-3.0L2.5,-0.5"/>
                </g>
                <g id="arrowDown" xlink:href="#dirArrow" transform="rotate(180) translate(-30 -48)" onmousedown="handlePan(0,1)">
                  <use xlink:href="#rim" fill="#404040">
                        <set attributeName="fill" to="#808080" begin="arrowDown.mouseover" end="arrowDown.mouseout"/>
                  </use>
                  <path fill="none" stroke="white" stroke-width="1.5" d="M0,-3.0v7 M-2.5,-0.5L0,-3.0L2.5,-0.5"/>
                </g>
                <g id="arrowLeft" xlink:href="#dirArrow" transform="rotate(270) translate(-36 17)" onmousedown="handlePan(-1,0)">
                  <use xlink:href="#rim" fill="#404040">
                        <set attributeName="fill" to="#808080" begin="arrowLeft.mouseover" end="arrowLeft.mouseout"/>
                  </use>
                  <path fill="none" stroke="white" stroke-width="1.5" d="M0,-3.0v7 M-2.5,-0.5L0,-3.0L2.5,-0.5"/>
                </g>
        </g>
        <svg viewBox="0 0 15 15" width="100%" height="30px" preserveAspectRatio="xMaxYMin meet">
         <g id="arrow_out" transform="scale(0.3 0.3)">
          <a xlink:href="quickjs_8c_afa23cf32e0412f97cd08186c9842e58d_icgraph_org.svg" target="_base">
           <rect id="button" ry="5" rx="5" y="6" x="6" height="38" width="38"
                fill="#f2f5e9" fill-opacity="0.5" stroke="#606060" stroke-width="1.0"/>
           <path id="arrow"
             d="M 11.500037,31.436501 C 11.940474,20.09759 22.043105,11.32322 32.158766,21.979434 L 37.068811,17.246167 C 37.068811,17.246167 37.088388,32 37.088388,32 L 22.160133,31.978069 C 22.160133,31.978069 26.997745,27.140456 26.997745,27.140456 C 18.528582,18.264221 13.291696,25.230495 11.500037,31.436501 z"
             style="fill:#404040;"/>
          </a>
         </g>
        </svg>
</svg>
