<?xml version="1.0" encoding="UTF-8" standalone="no"?>
<!DOCTYPE svg PUBLIC "-//W3C//DTD SVG 1.1//EN"
 "http://www.w3.org/Graphics/SVG/1.1/DTD/svg11.dtd">
<!-- Generated by graphviz version 2.40.1 (20161225.0304)
 -->
<!-- Title: JS_IsArray Pages: 1 -->
<svg width="516pt" height="567pt"
 viewBox="0.00 0.00 516.00 567.00" xmlns="http://www.w3.org/2000/svg" xmlns:xlink="http://www.w3.org/1999/xlink">
<g id="graph0" class="graph" transform="scale(1 1) rotate(0) translate(4 563)">
<title>JS_IsArray</title>
<!-- Node261634 -->
<g id="node1" class="node">
<title>Node261634</title>
<polygon fill="#bfbfbf" stroke="#000000" points="0,-263.5 0,-282.5 65,-282.5 65,-263.5 0,-263.5"/>
<text text-anchor="middle" x="32.5" y="-270.5" font-family="Helvetica,sans-Serif" font-size="10.00" fill="#000000">JS_IsArray</text>
</g>
<!-- Node261635 -->
<g id="node2" class="node">
<title>Node261635</title>
<g id="a_node2"><a xlink:href="quickjs_8c.html#a624282391413d4c5a030adbd8b77aa80" target="_top" xlink:title="internalize_json_property">
<polygon fill="none" stroke="#000000" points="101,-521.5 101,-540.5 241,-540.5 241,-521.5 101,-521.5"/>
<text text-anchor="middle" x="171" y="-528.5" font-family="Helvetica,sans-Serif" font-size="10.00" fill="#000000">internalize_json_property</text>
</a>
</g>
</g>
<!-- Node261634&#45;&gt;Node261635 -->
<g id="edge1" class="edge">
<title>Node261634&#45;&gt;Node261635</title>
<path fill="none" stroke="#191970" d="M35.6469,-292.9238C44.1835,-344.5338 69.2824,-480.726 101,-512 104.9454,-515.8902 109.6024,-519.0044 114.6099,-521.4944"/>
<polygon fill="#191970" stroke="#191970" points="39.0525,-292.059 33.9985,-282.7474 32.1426,-293.1784 39.0525,-292.059"/>
</g>
<!-- Node261637 -->
<g id="node4" class="node">
<title>Node261637</title>
<g id="a_node4"><a xlink:href="structqjs_1_1js__traits_3_01std_1_1variant_3_01Ts_8_8_8_01_4_01_4.html#aab1e9e5434b52ebdfd0acacddefc47c1" target="_top" xlink:title="qjs::js_traits\&lt; std\l::variant\&lt; Ts... \&gt; \&gt;\l::isCompatible">
<polygon fill="none" stroke="#000000" points="116,-461.5 116,-502.5 226,-502.5 226,-461.5 116,-461.5"/>
<text text-anchor="start" x="124" y="-490.5" font-family="Helvetica,sans-Serif" font-size="10.00" fill="#000000">qjs::js_traits&lt; std</text>
<text text-anchor="start" x="124" y="-479.5" font-family="Helvetica,sans-Serif" font-size="10.00" fill="#000000">::variant&lt; Ts... &gt; &gt;</text>
<text text-anchor="middle" x="171" y="-468.5" font-family="Helvetica,sans-Serif" font-size="10.00" fill="#000000">::isCompatible</text>
</a>
</g>
</g>
<!-- Node261634&#45;&gt;Node261637 -->
<g id="edge4" class="edge">
<title>Node261634&#45;&gt;Node261637</title>
<path fill="none" stroke="#191970" d="M34.9615,-292.73C40.4513,-328.853 56.8864,-406.113 101,-452 105.3067,-456.4799 110.3915,-460.326 115.8236,-463.62"/>
<polygon fill="#191970" stroke="#191970" points="38.3883,-291.9608 33.5425,-282.5391 31.4552,-292.9262 38.3883,-291.9608"/>
</g>
<!-- Node261638 -->
<g id="node5" class="node">
<title>Node261638</title>
<g id="a_node5"><a xlink:href="quickjs_8c.html#a4f1b84557871cd95dd21e469e2b38efb" target="_top" xlink:title="js_array_isArray">
<polygon fill="none" stroke="#000000" points="123.5,-423.5 123.5,-442.5 218.5,-442.5 218.5,-423.5 123.5,-423.5"/>
<text text-anchor="middle" x="171" y="-430.5" font-family="Helvetica,sans-Serif" font-size="10.00" fill="#000000">js_array_isArray</text>
</a>
</g>
</g>
<!-- Node261634&#45;&gt;Node261638 -->
<g id="edge5" class="edge">
<title>Node261634&#45;&gt;Node261638</title>
<path fill="none" stroke="#191970" d="M36.5132,-292.4267C43.8488,-322.9603 62.3615,-381.9931 101,-414 107.4973,-419.3822 115.3884,-423.2485 123.4988,-426.0239"/>
<polygon fill="#191970" stroke="#191970" points="39.9058,-291.56 34.2998,-282.5698 33.0759,-293.0937 39.9058,-291.56"/>
</g>
<!-- Node261639 -->
<g id="node6" class="node">
<title>Node261639</title>
<g id="a_node6"><a xlink:href="quickjs_8c.html#a3b818b1ca9d2d4aaa9b55b1cc54c1bc4" target="_top" xlink:title="JS_ArraySpeciesCreate">
<polygon fill="none" stroke="#000000" points="107.5,-347.5 107.5,-366.5 234.5,-366.5 234.5,-347.5 107.5,-347.5"/>
<text text-anchor="middle" x="171" y="-354.5" font-family="Helvetica,sans-Serif" font-size="10.00" fill="#000000">JS_ArraySpeciesCreate</text>
</a>
</g>
</g>
<!-- Node261634&#45;&gt;Node261639 -->
<g id="edge6" class="edge">
<title>Node261634&#45;&gt;Node261639</title>
<path fill="none" stroke="#191970" d="M46.8618,-290.8679C59.6062,-305.5782 79.4964,-325.912 101,-338 107.8057,-341.8258 115.4208,-344.9129 123.0539,-347.3947"/>
<polygon fill="#191970" stroke="#191970" points="49.3354,-288.3709 40.2256,-282.9614 43.9737,-292.8711 49.3354,-288.3709"/>
</g>
<!-- Node261644 -->
<g id="node11" class="node">
<title>Node261644</title>
<g id="a_node11"><a xlink:href="quickjs_8c.html#ad90c33b4aae1181151bda4a98ac2ef23" target="_top" xlink:title="JS_FlattenIntoArray">
<polygon fill="none" stroke="#000000" points="116,-291.5 116,-310.5 226,-310.5 226,-291.5 116,-291.5"/>
<text text-anchor="middle" x="171" y="-298.5" font-family="Helvetica,sans-Serif" font-size="10.00" fill="#000000">JS_FlattenIntoArray</text>
</a>
</g>
</g>
<!-- Node261634&#45;&gt;Node261644 -->
<g id="edge11" class="edge">
<title>Node261634&#45;&gt;Node261644</title>
<path fill="none" stroke="#191970" d="M75.1471,-281.6218C90.616,-284.7491 108.1735,-288.2986 123.997,-291.4976"/>
<polygon fill="#191970" stroke="#191970" points="75.8178,-278.1867 65.3226,-279.6356 74.4307,-285.0479 75.8178,-278.1867"/>
</g>
<!-- Node261645 -->
<g id="node12" class="node">
<title>Node261645</title>
<g id="a_node12"><a xlink:href="quickjs_8c.html#a8c41d5cf05e42294d414a1ac8b069874" target="_top" xlink:title="JS_isConcatSpreadable">
<polygon fill="none" stroke="#000000" points="107,-385.5 107,-404.5 235,-404.5 235,-385.5 107,-385.5"/>
<text text-anchor="middle" x="171" y="-392.5" font-family="Helvetica,sans-Serif" font-size="10.00" fill="#000000">JS_isConcatSpreadable</text>
</a>
</g>
</g>
<!-- Node261634&#45;&gt;Node261645 -->
<g id="edge14" class="edge">
<title>Node261634&#45;&gt;Node261645</title>
<path fill="none" stroke="#191970" d="M40.1598,-292.1365C50.4838,-315.4663 71.0854,-354.4408 101,-376 106.4144,-379.9021 112.5873,-383.0029 118.9724,-385.4669"/>
<polygon fill="#191970" stroke="#191970" points="43.2613,-290.4844 36.1431,-282.637 36.814,-293.2106 43.2613,-290.4844"/>
</g>
<!-- Node261646 -->
<g id="node13" class="node">
<title>Node261646</title>
<g id="a_node13"><a xlink:href="quickjs_8c.html#a60d84dd116a9d7d912d08f298a4734dd" target="_top" xlink:title="js_json_to_str">
<polygon fill="none" stroke="#000000" points="129.5,-235.5 129.5,-254.5 212.5,-254.5 212.5,-235.5 129.5,-235.5"/>
<text text-anchor="middle" x="171" y="-242.5" font-family="Helvetica,sans-Serif" font-size="10.00" fill="#000000">js_json_to_str</text>
</a>
</g>
</g>
<!-- Node261634&#45;&gt;Node261646 -->
<g id="edge16" class="edge">
<title>Node261634&#45;&gt;Node261646</title>
<path fill="none" stroke="#191970" d="M75.1531,-264.377C92.4289,-260.8844 112.3088,-256.8654 129.4689,-253.3962"/>
<polygon fill="#191970" stroke="#191970" points="74.4307,-260.9521 65.3226,-266.3644 75.8178,-267.8133 74.4307,-260.9521"/>
</g>
<!-- Node261647 -->
<g id="node14" class="node">
<title>Node261647</title>
<g id="a_node14"><a xlink:href="quickjs_8c.html#a343a343b16bc3c9875050e99ee0d2884" target="_top" xlink:title="JS_JSONStringify">
<polygon fill="none" stroke="#000000" points="278.5,-225.5 278.5,-244.5 374.5,-244.5 374.5,-225.5 278.5,-225.5"/>
<text text-anchor="middle" x="326.5" y="-232.5" font-family="Helvetica,sans-Serif" font-size="10.00" fill="#000000">JS_JSONStringify</text>
</a>
</g>
</g>
<!-- Node261634&#45;&gt;Node261647 -->
<g id="edge20" class="edge">
<title>Node261634&#45;&gt;Node261647</title>
<path fill="none" stroke="#191970" d="M50.2206,-256.3495C63.1819,-245.3705 81.7897,-231.9567 101,-226 163.4959,-206.6213 240.4162,-216.3557 286.3463,-225.4664"/>
<polygon fill="#191970" stroke="#191970" points="47.7457,-253.8657 42.569,-263.1098 52.3805,-259.1116 47.7457,-253.8657"/>
</g>
<!-- Node261649 -->
<g id="node16" class="node">
<title>Node261649</title>
<g id="a_node16"><a xlink:href="quickjs_8c.html#ae69c38078aefed427b6c0d7b6870bd9c" target="_top" xlink:title="js_object_toString">
<polygon fill="none" stroke="#000000" points="119,-159.5 119,-178.5 223,-178.5 223,-159.5 119,-159.5"/>
<text text-anchor="middle" x="171" y="-166.5" font-family="Helvetica,sans-Serif" font-size="10.00" fill="#000000">js_object_toString</text>
</a>
</g>
</g>
<!-- Node261634&#45;&gt;Node261649 -->
<g id="edge21" class="edge">
<title>Node261634&#45;&gt;Node261649</title>
<path fill="none" stroke="#191970" d="M43.749,-254.9395C55.8451,-236.8966 76.6536,-209.5312 101,-193 110.0344,-186.8657 120.7865,-182.1591 131.1197,-178.6083"/>
<polygon fill="#191970" stroke="#191970" points="40.7542,-253.1248 38.2451,-263.4182 46.6257,-256.9362 40.7542,-253.1248"/>
</g>
<!-- Node261651 -->
<g id="node18" class="node">
<title>Node261651</title>
<g id="a_node18"><a xlink:href="structqjs_1_1js__traits_3_01std_1_1vector_3_01T_01_4_01_4.html#a9381fc53f1eaf830b702453ca29655f2" target="_top" xlink:title="qjs::js_traits\&lt; std\l::vector\&lt; T \&gt; \&gt;::unwrap">
<polygon fill="none" stroke="#000000" points="103.5,-110 103.5,-140 238.5,-140 238.5,-110 103.5,-110"/>
<text text-anchor="start" x="111.5" y="-128" font-family="Helvetica,sans-Serif" font-size="10.00" fill="#000000">qjs::js_traits&lt; std</text>
<text text-anchor="middle" x="171" y="-117" font-family="Helvetica,sans-Serif" font-size="10.00" fill="#000000">::vector&lt; T &gt; &gt;::unwrap</text>
</a>
</g>
</g>
<!-- Node261634&#45;&gt;Node261651 -->
<g id="edge23" class="edge">
<title>Node261634&#45;&gt;Node261651</title>
<path fill="none" stroke="#191970" d="M38.3924,-253.724C47.5594,-226.8306 67.7256,-178.1888 101,-150 105.5293,-146.163 110.691,-142.8977 116.1116,-140.1225"/>
<polygon fill="#191970" stroke="#191970" points="34.9806,-252.8989 35.2243,-263.491 41.6391,-255.0588 34.9806,-252.8989"/>
</g>
<!-- Node261652 -->
<g id="node19" class="node">
<title>Node261652</title>
<g id="a_node19"><a xlink:href="structqjs_1_1js__traits_3_01std_1_1pair_3_01U_00_01V_01_4_01_4.html#a3dc772998ef0f739b13e7ed8c3d5ac5f" target="_top" xlink:title="qjs::js_traits\&lt; std\l::pair\&lt; U, V \&gt; \&gt;::unwrap">
<polygon fill="none" stroke="#000000" points="102.5,-61 102.5,-91 239.5,-91 239.5,-61 102.5,-61"/>
<text text-anchor="start" x="110.5" y="-79" font-family="Helvetica,sans-Serif" font-size="10.00" fill="#000000">qjs::js_traits&lt; std</text>
<text text-anchor="middle" x="171" y="-68" font-family="Helvetica,sans-Serif" font-size="10.00" fill="#000000">::pair&lt; U, V &gt; &gt;::unwrap</text>
</a>
</g>
</g>
<!-- Node261634&#45;&gt;Node261652 -->
<g id="edge24" class="edge">
<title>Node261634&#45;&gt;Node261652</title>
<path fill="none" stroke="#191970" d="M34.924,-253.1042C40.3055,-217.4556 56.5062,-142.4623 101,-100 104.6247,-96.5408 108.7696,-93.5786 113.192,-91.0422"/>
<polygon fill="#191970" stroke="#191970" points="31.4301,-252.8211 33.5348,-263.2048 38.3648,-253.775 31.4301,-252.8211"/>
</g>
<!-- Node261653 -->
<g id="node20" class="node">
<title>Node261653</title>
<g id="a_node20"><a xlink:href="structqjs_1_1js__traits_3_01std_1_1variant_3_01Ts_8_8_8_01_4_01_4.html#ad0acc455e15176f5fe805689db94930b" target="_top" xlink:title="Attempt to match class ID with type. ">
<polygon fill="none" stroke="#000000" points="116,-.5 116,-41.5 226,-41.5 226,-.5 116,-.5"/>
<text text-anchor="start" x="124" y="-29.5" font-family="Helvetica,sans-Serif" font-size="10.00" fill="#000000">qjs::js_traits&lt; std</text>
<text text-anchor="start" x="124" y="-18.5" font-family="Helvetica,sans-Serif" font-size="10.00" fill="#000000">::variant&lt; Ts... &gt; &gt;</text>
<text text-anchor="middle" x="171" y="-7.5" font-family="Helvetica,sans-Serif" font-size="10.00" fill="#000000">::unwrapObj</text>
</a>
</g>
</g>
<!-- Node261634&#45;&gt;Node261653 -->
<g id="edge25" class="edge">
<title>Node261634&#45;&gt;Node261653</title>
<path fill="none" stroke="#191970" d="M36.3429,-253.4307C46.1731,-205.0793 73.4083,-81.6709 101,-51 105.2445,-46.2818 110.3583,-42.2782 115.8661,-38.8871"/>
<polygon fill="#191970" stroke="#191970" points="32.9015,-252.7916 34.3707,-263.2841 39.7654,-254.1656 32.9015,-252.7916"/>
</g>
<!-- Node261635&#45;&gt;Node261635 -->
<g id="edge2" class="edge">
<title>Node261635&#45;&gt;Node261635</title>
<path fill="none" stroke="#191970" d="M145.3305,-550.0292C146.7307,-555.128 155.2872,-559 171,-559 195.5273,-559 202.6173,-549.5653 192.2698,-540.7571"/>
<polygon fill="#191970" stroke="#191970" points="148.6052,-551.292 149.7302,-540.7571 142.2811,-548.2911 148.6052,-551.292"/>
</g>
<!-- Node261636 -->
<g id="node3" class="node">
<title>Node261636</title>
<g id="a_node3"><a xlink:href="quickjs_8c.html#a8d95b2b91f50339b621237ad13f9cc47" target="_top" xlink:title="js_json_parse">
<polygon fill="none" stroke="#000000" points="285,-521.5 285,-540.5 368,-540.5 368,-521.5 285,-521.5"/>
<text text-anchor="middle" x="326.5" y="-528.5" font-family="Helvetica,sans-Serif" font-size="10.00" fill="#000000">js_json_parse</text>
</a>
</g>
</g>
<!-- Node261635&#45;&gt;Node261636 -->
<g id="edge3" class="edge">
<title>Node261635&#45;&gt;Node261636</title>
<path fill="none" stroke="#191970" d="M251.2413,-531C262.8843,-531 274.4527,-531 284.9007,-531"/>
<polygon fill="#191970" stroke="#191970" points="251.0168,-527.5001 241.0168,-531 251.0167,-534.5001 251.0168,-527.5001"/>
</g>
<!-- Node261640 -->
<g id="node7" class="node">
<title>Node261640</title>
<g id="a_node7"><a xlink:href="quickjs_8c.html#aaa85fa359f7aa8985f0299147272adef" target="_top" xlink:title="js_array_concat">
<polygon fill="none" stroke="#000000" points="280,-395.5 280,-414.5 373,-414.5 373,-395.5 280,-395.5"/>
<text text-anchor="middle" x="326.5" y="-402.5" font-family="Helvetica,sans-Serif" font-size="10.00" fill="#000000">js_array_concat</text>
</a>
</g>
</g>
<!-- Node261639&#45;&gt;Node261640 -->
<g id="edge7" class="edge">
<title>Node261639&#45;&gt;Node261640</title>
<path fill="none" stroke="#191970" d="M217.5882,-369.2122C225.4274,-371.391 233.4626,-373.7012 241,-376 260.7902,-382.0357 282.9036,-389.5573 299.6827,-395.4277"/>
<polygon fill="#191970" stroke="#191970" points="218.3851,-365.8016 207.8155,-366.5336 216.5346,-372.5526 218.3851,-365.8016"/>
</g>
<!-- Node261641 -->
<g id="node8" class="node">
<title>Node261641</title>
<g id="a_node8"><a xlink:href="quickjs_8c.html#aa0bbf08a7e91459c68a312fba7016c6d" target="_top" xlink:title="js_array_every">
<polygon fill="none" stroke="#000000" points="282,-357.5 282,-376.5 371,-376.5 371,-357.5 282,-357.5"/>
<text text-anchor="middle" x="326.5" y="-364.5" font-family="Helvetica,sans-Serif" font-size="10.00" fill="#000000">js_array_every</text>
</a>
</g>
</g>
<!-- Node261639&#45;&gt;Node261641 -->
<g id="edge8" class="edge">
<title>Node261639&#45;&gt;Node261641</title>
<path fill="none" stroke="#191970" d="M244.7559,-361.7431C257.3684,-362.5542 270.1214,-363.3744 281.6827,-364.1179"/>
<polygon fill="#191970" stroke="#191970" points="244.9005,-358.2453 234.6965,-361.0962 244.4512,-365.2309 244.9005,-358.2453"/>
</g>
<!-- Node261642 -->
<g id="node9" class="node">
<title>Node261642</title>
<g id="a_node9"><a xlink:href="quickjs_8c.html#a70b7ec8358ab99b905686d5bf80950cc" target="_top" xlink:title="js_array_slice">
<polygon fill="none" stroke="#000000" points="285,-319.5 285,-338.5 368,-338.5 368,-319.5 285,-319.5"/>
<text text-anchor="middle" x="326.5" y="-326.5" font-family="Helvetica,sans-Serif" font-size="10.00" fill="#000000">js_array_slice</text>
</a>
</g>
</g>
<!-- Node261639&#45;&gt;Node261642 -->
<g id="edge9" class="edge">
<title>Node261639&#45;&gt;Node261642</title>
<path fill="none" stroke="#191970" d="M234.0335,-345.6499C251.1793,-342.5626 269.316,-339.2968 284.9422,-336.4831"/>
<polygon fill="#191970" stroke="#191970" points="233.3008,-342.2255 224.0794,-347.4423 234.5414,-349.1147 233.3008,-342.2255"/>
</g>
<!-- Node261643 -->
<g id="node10" class="node">
<title>Node261643</title>
<g id="a_node10"><a xlink:href="quickjs_8c.html#a12e173fe76ae1141ef47318f9d0cbea7" target="_top" xlink:title="js_array_flatten">
<polygon fill="none" stroke="#000000" points="280.5,-281.5 280.5,-300.5 372.5,-300.5 372.5,-281.5 280.5,-281.5"/>
<text text-anchor="middle" x="326.5" y="-288.5" font-family="Helvetica,sans-Serif" font-size="10.00" fill="#000000">js_array_flatten</text>
</a>
</g>
</g>
<!-- Node261639&#45;&gt;Node261643 -->
<g id="edge10" class="edge">
<title>Node261639&#45;&gt;Node261643</title>
<path fill="none" stroke="#191970" d="M226.2531,-344.2441C231.3402,-342.4048 236.3315,-340.3307 241,-338 259.1353,-328.946 259.3471,-319.9619 277,-310 283.3332,-306.4261 290.4715,-303.2486 297.3149,-300.5631"/>
<polygon fill="#191970" stroke="#191970" points="224.8076,-341.0356 216.4117,-347.4978 227.005,-347.6818 224.8076,-341.0356"/>
</g>
<!-- Node261644&#45;&gt;Node261643 -->
<g id="edge13" class="edge">
<title>Node261644&#45;&gt;Node261643</title>
<path fill="none" stroke="#191970" d="M236.3819,-296.7954C251.1816,-295.8436 266.5949,-294.8524 280.4022,-293.9645"/>
<polygon fill="#191970" stroke="#191970" points="236.0161,-293.3116 226.2613,-297.4462 236.4654,-300.2971 236.0161,-293.3116"/>
</g>
<!-- Node261644&#45;&gt;Node261644 -->
<g id="edge12" class="edge">
<title>Node261644&#45;&gt;Node261644</title>
<path fill="none" stroke="#191970" d="M145.3305,-320.0292C146.7307,-325.128 155.2872,-329 171,-329 195.5273,-329 202.6173,-319.5653 192.2698,-310.7571"/>
<polygon fill="#191970" stroke="#191970" points="148.6052,-321.292 149.7302,-310.7571 142.2811,-318.2911 148.6052,-321.292"/>
</g>
<!-- Node261645&#45;&gt;Node261640 -->
<g id="edge15" class="edge">
<title>Node261645&#45;&gt;Node261640</title>
<path fill="none" stroke="#191970" d="M245.3465,-399.7811C257.0147,-400.5315 268.7852,-401.2884 279.6043,-401.9842"/>
<polygon fill="#191970" stroke="#191970" points="245.3496,-396.2742 235.1456,-399.1251 244.9003,-403.2598 245.3496,-396.2742"/>
</g>
<!-- Node261646&#45;&gt;Node261646 -->
<g id="edge17" class="edge">
<title>Node261646&#45;&gt;Node261646</title>
<path fill="none" stroke="#191970" d="M145.3305,-264.0292C146.7307,-269.128 155.2872,-273 171,-273 195.5273,-273 202.6173,-263.5653 192.2698,-254.7571"/>
<polygon fill="#191970" stroke="#191970" points="148.6052,-265.292 149.7302,-254.7571 142.2811,-262.2911 148.6052,-265.292"/>
</g>
<!-- Node261646&#45;&gt;Node261647 -->
<g id="edge18" class="edge">
<title>Node261646&#45;&gt;Node261647</title>
<path fill="none" stroke="#191970" d="M222.688,-241.676C240.6519,-240.5208 260.7149,-239.2306 278.3787,-238.0946"/>
<polygon fill="#191970" stroke="#191970" points="222.4259,-238.1855 212.6711,-242.3202 222.8752,-245.1711 222.4259,-238.1855"/>
</g>
<!-- Node261648 -->
<g id="node15" class="node">
<title>Node261648</title>
<g id="a_node15"><a xlink:href="quickjs_8c.html#ad2e4811daaaacb846df56bc88bd84e03" target="_top" xlink:title="js_json_stringify">
<polygon fill="none" stroke="#000000" points="412,-225.5 412,-244.5 508,-244.5 508,-225.5 412,-225.5"/>
<text text-anchor="middle" x="460" y="-232.5" font-family="Helvetica,sans-Serif" font-size="10.00" fill="#000000">js_json_stringify</text>
</a>
</g>
</g>
<!-- Node261647&#45;&gt;Node261648 -->
<g id="edge19" class="edge">
<title>Node261647&#45;&gt;Node261648</title>
<path fill="none" stroke="#191970" d="M384.7837,-235C393.8293,-235 403.0859,-235 411.8742,-235"/>
<polygon fill="#191970" stroke="#191970" points="384.6966,-231.5001 374.6966,-235 384.6965,-238.5001 384.6966,-231.5001"/>
</g>
<!-- Node261650 -->
<g id="node17" class="node">
<title>Node261650</title>
<g id="a_node17"><a xlink:href="quickjs_8c.html#a2b86c3fdfa95b86030c1cbbc5f0ba0f5" target="_top" xlink:title="js_array_toString">
<polygon fill="none" stroke="#000000" points="277,-159.5 277,-178.5 376,-178.5 376,-159.5 277,-159.5"/>
<text text-anchor="middle" x="326.5" y="-166.5" font-family="Helvetica,sans-Serif" font-size="10.00" fill="#000000">js_array_toString</text>
</a>
</g>
</g>
<!-- Node261649&#45;&gt;Node261650 -->
<g id="edge22" class="edge">
<title>Node261649&#45;&gt;Node261650</title>
<path fill="none" stroke="#191970" d="M233.5319,-169C247.9213,-169 263.0345,-169 276.7944,-169"/>
<polygon fill="#191970" stroke="#191970" points="233.2119,-165.5001 223.2118,-169 233.2118,-172.5001 233.2119,-165.5001"/>
</g>
</g>
</svg>
