<?xml version="1.0" encoding="UTF-8" standalone="no"?>
<!DOCTYPE svg PUBLIC "-//W3C//DTD SVG 1.1//EN"
 "http://www.w3.org/Graphics/SVG/1.1/DTD/svg11.dtd">
<!-- Generated by graphviz version 2.40.1 (20161225.0304)
 -->
<!-- Title: free_bytecode_atoms Pages: 1 -->
<svg width="565pt" height="103pt"
 viewBox="0.00 0.00 565.00 103.00" xmlns="http://www.w3.org/2000/svg" xmlns:xlink="http://www.w3.org/1999/xlink">
<g id="graph0" class="graph" transform="scale(1 1) rotate(0) translate(4 99)">
<title>free_bytecode_atoms</title>
<!-- Node354730 -->
<g id="node1" class="node">
<title>Node354730</title>
<polygon fill="#bfbfbf" stroke="#000000" points="0,-28.5 0,-47.5 122,-47.5 122,-28.5 0,-28.5"/>
<text text-anchor="middle" x="61" y="-35.5" font-family="Helvetica,sans-Serif" font-size="10.00" fill="#000000">free_bytecode_atoms</text>
</g>
<!-- Node354731 -->
<g id="node2" class="node">
<title>Node354731</title>
<g id="a_node2"><a xlink:href="quickjs_8c.html#adc4a49d7eb1cc1ec4b3a8c37ab8cb075" target="_top" xlink:title="free_function_bytecode">
<polygon fill="none" stroke="#000000" points="158,-56.5 158,-75.5 289,-75.5 289,-56.5 158,-56.5"/>
<text text-anchor="middle" x="223.5" y="-63.5" font-family="Helvetica,sans-Serif" font-size="10.00" fill="#000000">free_function_bytecode</text>
</a>
</g>
</g>
<!-- Node354730&#45;&gt;Node354731 -->
<g id="edge1" class="edge">
<title>Node354730&#45;&gt;Node354731</title>
<path fill="none" stroke="#191970" d="M126.4356,-49.2751C140.3122,-51.6661 154.8289,-54.1674 168.2812,-56.4854"/>
<polygon fill="#191970" stroke="#191970" points="126.9179,-45.8067 116.4688,-47.5577 125.7292,-52.705 126.9179,-45.8067"/>
</g>
<!-- Node355410 -->
<g id="node6" class="node">
<title>Node355410</title>
<g id="a_node6"><a xlink:href="quickjs_8c.html#a1b660b405f6a69b35dd871279c780ef7" target="_top" xlink:title="js_free_function_def">
<polygon fill="none" stroke="#ff0000" points="165.5,-.5 165.5,-19.5 281.5,-19.5 281.5,-.5 165.5,-.5"/>
<text text-anchor="middle" x="223.5" y="-7.5" font-family="Helvetica,sans-Serif" font-size="10.00" fill="#000000">js_free_function_def</text>
</a>
</g>
</g>
<!-- Node354730&#45;&gt;Node355410 -->
<g id="edge5" class="edge">
<title>Node354730&#45;&gt;Node355410</title>
<path fill="none" stroke="#191970" d="M126.4356,-26.7249C140.3122,-24.3339 154.8289,-21.8326 168.2812,-19.5146"/>
<polygon fill="#191970" stroke="#191970" points="125.7292,-23.295 116.4688,-28.4423 126.9179,-30.1933 125.7292,-23.295"/>
</g>
<!-- Node354732 -->
<g id="node3" class="node">
<title>Node354732</title>
<g id="a_node3"><a xlink:href="quickjs_8c.html#a3d1c7a8d6aa5a9ba8ea8ef2828db188a" target="_top" xlink:title="free_gc_object">
<polygon fill="none" stroke="#000000" points="325,-56.5 325,-75.5 413,-75.5 413,-56.5 325,-56.5"/>
<text text-anchor="middle" x="369" y="-63.5" font-family="Helvetica,sans-Serif" font-size="10.00" fill="#000000">free_gc_object</text>
</a>
</g>
</g>
<!-- Node354731&#45;&gt;Node354732 -->
<g id="edge2" class="edge">
<title>Node354731&#45;&gt;Node354732</title>
<path fill="none" stroke="#191970" d="M299.2306,-66C307.9369,-66 316.5861,-66 324.6784,-66"/>
<polygon fill="#191970" stroke="#191970" points="299.0141,-62.5001 289.0141,-66 299.014,-69.5001 299.0141,-62.5001"/>
</g>
<!-- Node354733 -->
<g id="node4" class="node">
<title>Node354733</title>
<g id="a_node4"><a xlink:href="quickjs_8c.html#a8defed3434f60d6b5d6a7ea202cc8f9d" target="_top" xlink:title="free_zero_refcount">
<polygon fill="none" stroke="#ff0000" points="449,-75.5 449,-94.5 557,-94.5 557,-75.5 449,-75.5"/>
<text text-anchor="middle" x="503" y="-82.5" font-family="Helvetica,sans-Serif" font-size="10.00" fill="#000000">free_zero_refcount</text>
</a>
</g>
</g>
<!-- Node354732&#45;&gt;Node354733 -->
<g id="edge3" class="edge">
<title>Node354732&#45;&gt;Node354733</title>
<path fill="none" stroke="#191970" d="M423.3778,-73.7103C431.8265,-74.9082 440.553,-76.1456 448.9934,-77.3423"/>
<polygon fill="#191970" stroke="#191970" points="423.6403,-70.2126 413.248,-72.274 422.6576,-77.1433 423.6403,-70.2126"/>
</g>
<!-- Node355479 -->
<g id="node5" class="node">
<title>Node355479</title>
<g id="a_node5"><a xlink:href="quickjs_8c.html#af7c53b26778d6b7e155fab5349a4585e" target="_top" xlink:title="gc_free_cycles">
<polygon fill="none" stroke="#ff0000" points="458.5,-37.5 458.5,-56.5 547.5,-56.5 547.5,-37.5 458.5,-37.5"/>
<text text-anchor="middle" x="503" y="-44.5" font-family="Helvetica,sans-Serif" font-size="10.00" fill="#000000">gc_free_cycles</text>
</a>
</g>
</g>
<!-- Node354732&#45;&gt;Node355479 -->
<g id="edge4" class="edge">
<title>Node354732&#45;&gt;Node355479</title>
<path fill="none" stroke="#191970" d="M423.3035,-58.3002C434.9437,-56.6498 447.1147,-54.924 458.3407,-53.3323"/>
<polygon fill="#191970" stroke="#191970" points="422.6576,-54.8567 413.248,-59.726 423.6403,-61.7874 422.6576,-54.8567"/>
</g>
<!-- Node355410&#45;&gt;Node355410 -->
<g id="edge6" class="edge">
<title>Node355410&#45;&gt;Node355410</title>
<path fill="none" stroke="#191970" d="M196.6208,-28.6539C197.7444,-33.9368 206.7041,-38 223.5,-38 249.0938,-38 256.4919,-28.5653 245.6946,-19.7571"/>
<polygon fill="#191970" stroke="#191970" points="199.7433,-30.2361 201.3054,-19.7571 193.5494,-26.9747 199.7433,-30.2361"/>
</g>
</g>
</svg>
