<?xml version="1.0" encoding="UTF-8" standalone="no"?>
<!DOCTYPE svg PUBLIC "-//W3C//DTD SVG 1.1//EN"
 "http://www.w3.org/Graphics/SVG/1.1/DTD/svg11.dtd">
<!-- Generated by graphviz version 2.40.1 (20161225.0304)
 -->
<!-- Title: JSResolveState Pages: 1 -->
<!--zoomable 285 -->
<svg id="main" version="1.1" xmlns="http://www.w3.org/2000/svg" xmlns:xlink="http://www.w3.org/1999/xlink" xml:space="preserve" onload="init(evt)">
<style type="text/css"><![CDATA[
.edge:hover path { stroke: red; }
.edge:hover polygon { stroke: red; fill: red; }
]]></style>
<script type="text/javascript"><![CDATA[
var edges = document.getElementsByTagName('g');
if (edges && edges.length) {
  for (var i=0;i<edges.length;i++) {
    if (edges[i].id.substr(0,4)=='edge') {
      edges[i].setAttribute('class','edge');
    }
  }
}
]]></script>
        <defs>
                <circle id="rim" cx="0" cy="0" r="7"/>
                <circle id="rim2" cx="0" cy="0" r="3.5"/>
                <g id="zoomPlus">
                        <use xlink:href="#rim" fill="#404040">
                                <set attributeName="fill" to="#808080" begin="zoomplus.mouseover" end="zoomplus.mouseout"/>
                        </use>
                        <path d="M-4,0h8M0,-4v8" fill="none" stroke="white" stroke-width="1.5" pointer-events="none"/>
                </g>
                <g id="zoomMin">
                        <use xlink:href="#rim" fill="#404040">
                                <set attributeName="fill" to="#808080" begin="zoomminus.mouseover" end="zoomminus.mouseout"/>
                        </use>
                        <path d="M-4,0h8" fill="none" stroke="white" stroke-width="1.5" pointer-events="none"/>
                </g>
                <g id="dirArrow">
                        <path fill="none" stroke="white" stroke-width="1.5" d="M0,-3.0v7 M-2.5,-0.5L0,-3.0L2.5,-0.5"/>
                </g>
               <g id="resetDef">
                       <use xlink:href="#rim2" fill="#404040">
                               <set attributeName="fill" to="#808080" begin="reset.mouseover" end="reset.mouseout"/>
                       </use>
               </g>
        </defs>

<script type="text/javascript">
var viewWidth = 719;
var viewHeight = 285;
var sectionId = 'dynsection-0';
</script>
<script xlink:href="svgpan.js"/>
<svg id="graph" class="graph">
<g id="viewport">
<title>JSResolveState</title>
<!-- Node1 -->
<g id="node1" class="node">
<title>Node1</title>
<polygon fill="#bfbfbf" stroke="#000000" points="622,-129.5 622,-148.5 711,-148.5 711,-129.5 622,-129.5"/>
<text text-anchor="middle" x="666.5" y="-136.5" font-family="Helvetica,sans-Serif" font-size="10.00" fill="#000000">JSResolveState</text>
</g>
<!-- Node2 -->
<g id="node2" class="node">
<title>Node2</title>
<g id="a_node2"><a xlink:href="structJSResolveEntry.html" target="_top" xlink:title="JSResolveEntry">
<polygon fill="none" stroke="#000000" points="460.5,-129.5 460.5,-148.5 549.5,-148.5 549.5,-129.5 460.5,-129.5"/>
<text text-anchor="middle" x="505" y="-136.5" font-family="Helvetica,sans-Serif" font-size="10.00" fill="#000000">JSResolveEntry</text>
</a>
</g>
</g>
<!-- Node2&#45;&gt;Node1 -->
<g id="edge1" class="edge">
<title>Node2&#45;&gt;Node1</title>
<path fill="none" stroke="#9a32cd" stroke-dasharray="5,2" d="M559.5822,-139C579.8314,-139 602.5422,-139 621.8072,-139"/>
<polygon fill="#9a32cd" stroke="#9a32cd" points="559.5581,-135.5001 549.5581,-139 559.5581,-142.5001 559.5581,-135.5001"/>
<text text-anchor="middle" x="589.5" y="-142" font-family="Helvetica,sans-Serif" font-size="10.00" fill="#000000"> array</text>
</g>
<!-- Node3 -->
<g id="node3" class="node">
<title>Node3</title>
<g id="a_node3"><a xlink:href="structJSModuleDef.html" target="_top" xlink:title="JSModuleDef">
<polygon fill="none" stroke="#000000" points="239,-95.5 239,-114.5 317,-114.5 317,-95.5 239,-95.5"/>
<text text-anchor="middle" x="278" y="-102.5" font-family="Helvetica,sans-Serif" font-size="10.00" fill="#000000">JSModuleDef</text>
</a>
</g>
</g>
<!-- Node3&#45;&gt;Node2 -->
<g id="edge2" class="edge">
<title>Node3&#45;&gt;Node2</title>
<path fill="none" stroke="#9a32cd" stroke-dasharray="5,2" d="M327.3121,-112.8193C329.9119,-113.2212 332.4869,-113.6168 335,-114 377.4663,-120.4749 425.9471,-127.5757 460.2394,-132.5496"/>
<polygon fill="#9a32cd" stroke="#9a32cd" points="327.6588,-109.3312 317.2394,-111.2516 326.5822,-116.2479 327.6588,-109.3312"/>
<text text-anchor="middle" x="385" y="-131" font-family="Helvetica,sans-Serif" font-size="10.00" fill="#000000"> module</text>
</g>
<!-- Node9 -->
<g id="node8" class="node">
<title>Node9</title>
<g id="a_node8"><a xlink:href="structJSReqModuleEntry.html" target="_top" xlink:title="JSReqModuleEntry">
<polygon fill="none" stroke="#000000" points="453,-76.5 453,-95.5 557,-95.5 557,-76.5 453,-76.5"/>
<text text-anchor="middle" x="505" y="-83.5" font-family="Helvetica,sans-Serif" font-size="10.00" fill="#000000">JSReqModuleEntry</text>
</a>
</g>
</g>
<!-- Node3&#45;&gt;Node9 -->
<g id="edge9" class="edge">
<title>Node3&#45;&gt;Node9</title>
<path fill="none" stroke="#9a32cd" stroke-dasharray="5,2" d="M327.1048,-100.8899C364.2203,-97.7833 415.0657,-93.5275 452.8949,-90.3612"/>
<polygon fill="#9a32cd" stroke="#9a32cd" points="326.6959,-97.4118 317.0227,-101.7338 327.2798,-104.3874 326.6959,-97.4118"/>
<text text-anchor="middle" x="385" y="-102" font-family="Helvetica,sans-Serif" font-size="10.00" fill="#000000"> module</text>
</g>
<!-- Node4 -->
<g id="node4" class="node">
<title>Node4</title>
<g id="a_node4"><a xlink:href="structlist__head.html" target="_top" xlink:title="list_head">
<polygon fill="none" stroke="#000000" points="22,-217.5 22,-236.5 83,-236.5 83,-217.5 22,-217.5"/>
<text text-anchor="middle" x="52.5" y="-224.5" font-family="Helvetica,sans-Serif" font-size="10.00" fill="#000000">list_head</text>
</a>
</g>
</g>
<!-- Node4&#45;&gt;Node3 -->
<g id="edge3" class="edge">
<title>Node4&#45;&gt;Node3</title>
<path fill="none" stroke="#9a32cd" stroke-dasharray="5,2" d="M93.5733,-230.06C130.0492,-230.7299 183.2706,-226.4833 221,-201 252.6432,-179.6275 269.3397,-134.2995 275.355,-114.5413"/>
<polygon fill="#9a32cd" stroke="#9a32cd" points="93.398,-226.5527 83.292,-229.7335 93.1758,-233.5492 93.398,-226.5527"/>
<text text-anchor="middle" x="172" y="-232" font-family="Helvetica,sans-Serif" font-size="10.00" fill="#000000"> link</text>
</g>
<!-- Node4&#45;&gt;Node4 -->
<g id="edge4" class="edge">
<title>Node4&#45;&gt;Node4</title>
<path fill="none" stroke="#9a32cd" stroke-dasharray="5,2" d="M30.5507,-246.0292C31.748,-251.128 39.0644,-255 52.5,-255 73.4727,-255 79.5351,-245.5653 70.6872,-236.7571"/>
<polygon fill="#9a32cd" stroke="#9a32cd" points="33.7962,-247.3393 34.3128,-236.7571 27.3098,-244.7074 33.7962,-247.3393"/>
<text text-anchor="middle" x="52.5" y="-269" font-family="Helvetica,sans-Serif" font-size="10.00" fill="#000000"> prev</text>
<text text-anchor="middle" x="52.5" y="-258" font-family="Helvetica,sans-Serif" font-size="10.00" fill="#000000">next</text>
</g>
<!-- Node5 -->
<g id="node5" class="node">
<title>Node5</title>
<g id="a_node5"><a xlink:href="structJSValue.html" target="_top" xlink:title="JSValue">
<polygon fill="none" stroke="#ff0000" points="26,-152.5 26,-171.5 79,-171.5 79,-152.5 26,-152.5"/>
<text text-anchor="middle" x="52.5" y="-159.5" font-family="Helvetica,sans-Serif" font-size="10.00" fill="#000000">JSValue</text>
</a>
</g>
</g>
<!-- Node5&#45;&gt;Node3 -->
<g id="edge5" class="edge">
<title>Node5&#45;&gt;Node3</title>
<path fill="none" stroke="#9a32cd" stroke-dasharray="5,2" d="M89.1164,-158.3279C123.7119,-154.1965 176.7534,-146.1385 221,-132 234.9767,-127.5339 249.9387,-120.3456 261.0252,-114.5086"/>
<polygon fill="#9a32cd" stroke="#9a32cd" points="88.5389,-154.8711 79.0022,-159.4864 89.3356,-161.8256 88.5389,-154.8711"/>
<text text-anchor="middle" x="172" y="-189" font-family="Helvetica,sans-Serif" font-size="10.00" fill="#000000"> func_obj</text>
<text text-anchor="middle" x="172" y="-178" font-family="Helvetica,sans-Serif" font-size="10.00" fill="#000000">meta_obj</text>
<text text-anchor="middle" x="172" y="-167" font-family="Helvetica,sans-Serif" font-size="10.00" fill="#000000">eval_exception</text>
<text text-anchor="middle" x="172" y="-156" font-family="Helvetica,sans-Serif" font-size="10.00" fill="#000000">module_ns</text>
</g>
<!-- Node7 -->
<g id="node6" class="node">
<title>Node7</title>
<g id="a_node6"><a xlink:href="structJSRefCountHeader.html" target="_top" xlink:title="JSRefCountHeader">
<polygon fill="none" stroke="#000000" points="0,-114.5 0,-133.5 105,-133.5 105,-114.5 0,-114.5"/>
<text text-anchor="middle" x="52.5" y="-121.5" font-family="Helvetica,sans-Serif" font-size="10.00" fill="#000000">JSRefCountHeader</text>
</a>
</g>
</g>
<!-- Node7&#45;&gt;Node3 -->
<g id="edge6" class="edge">
<title>Node7&#45;&gt;Node3</title>
<path fill="none" stroke="#9a32cd" stroke-dasharray="5,2" d="M115.1719,-118.7194C154.763,-115.3836 204.6926,-111.1767 238.7561,-108.3066"/>
<polygon fill="#9a32cd" stroke="#9a32cd" points="114.7559,-115.242 105.0851,-119.5693 115.3437,-122.2173 114.7559,-115.242"/>
<text text-anchor="middle" x="172" y="-120" font-family="Helvetica,sans-Serif" font-size="10.00" fill="#000000"> header</text>
</g>
<!-- Node8 -->
<g id="node7" class="node">
<title>Node8</title>
<g id="a_node7"><a xlink:href="structJSStarExportEntry.html" target="_top" xlink:title="JSStarExportEntry">
<polygon fill="none" stroke="#000000" points="1.5,-76.5 1.5,-95.5 103.5,-95.5 103.5,-76.5 1.5,-76.5"/>
<text text-anchor="middle" x="52.5" y="-83.5" font-family="Helvetica,sans-Serif" font-size="10.00" fill="#000000">JSStarExportEntry</text>
</a>
</g>
</g>
<!-- Node8&#45;&gt;Node3 -->
<g id="edge7" class="edge">
<title>Node8&#45;&gt;Node3</title>
<path fill="none" stroke="#9a32cd" stroke-dasharray="5,2" d="M113.6265,-87.4941C145.6772,-88.7246 185.5434,-90.9577 221,-95 226.7897,-95.6601 232.8818,-96.5343 238.8421,-97.4919"/>
<polygon fill="#9a32cd" stroke="#9a32cd" points="113.6303,-83.9921 103.5105,-87.1288 113.3776,-90.9875 113.6303,-83.9921"/>
<text text-anchor="middle" x="172" y="-98" font-family="Helvetica,sans-Serif" font-size="10.00" fill="#000000"> star_export_entries</text>
</g>
<!-- Node9&#45;&gt;Node3 -->
<g id="edge8" class="edge">
<title>Node9&#45;&gt;Node3</title>
<path fill="none" stroke="#9a32cd" stroke-dasharray="5,2" d="M460.9972,-74.2668C426.232,-66.9221 376.7791,-60.7785 335,-72 318.2143,-76.5085 301.2669,-87.2969 290.2674,-95.3185"/>
<polygon fill="#9a32cd" stroke="#9a32cd" points="460.3196,-77.7016 470.8416,-76.4614 461.8428,-70.8693 460.3196,-77.7016"/>
<text text-anchor="middle" x="385" y="-75" font-family="Helvetica,sans-Serif" font-size="10.00" fill="#000000"> req_module_entries</text>
</g>
<!-- Node10 -->
<g id="node9" class="node">
<title>Node10</title>
<g id="a_node9"><a xlink:href="structJSImportEntry.html" target="_top" xlink:title="JSImportEntry">
<polygon fill="none" stroke="#000000" points="11,-38.5 11,-57.5 94,-57.5 94,-38.5 11,-38.5"/>
<text text-anchor="middle" x="52.5" y="-45.5" font-family="Helvetica,sans-Serif" font-size="10.00" fill="#000000">JSImportEntry</text>
</a>
</g>
</g>
<!-- Node10&#45;&gt;Node3 -->
<g id="edge10" class="edge">
<title>Node10&#45;&gt;Node3</title>
<path fill="none" stroke="#9a32cd" stroke-dasharray="5,2" d="M104.2156,-50.2447C138.184,-52.9518 183.1671,-58.9085 221,-72 236.9928,-77.5341 253.545,-87.6989 264.6645,-95.2906"/>
<polygon fill="#9a32cd" stroke="#9a32cd" points="104.2752,-46.7399 94.0475,-49.5046 103.767,-53.7214 104.2752,-46.7399"/>
<text text-anchor="middle" x="172" y="-75" font-family="Helvetica,sans-Serif" font-size="10.00" fill="#000000"> import_entries</text>
</g>
<!-- Node11 -->
<g id="node10" class="node">
<title>Node11</title>
<g id="a_node10"><a xlink:href="structJSExportEntry.html" target="_top" xlink:title="JSExportEntry">
<polygon fill="none" stroke="#ff0000" points="11,-.5 11,-19.5 94,-19.5 94,-.5 11,-.5"/>
<text text-anchor="middle" x="52.5" y="-7.5" font-family="Helvetica,sans-Serif" font-size="10.00" fill="#000000">JSExportEntry</text>
</a>
</g>
</g>
<!-- Node11&#45;&gt;Node3 -->
<g id="edge11" class="edge">
<title>Node11&#45;&gt;Node3</title>
<path fill="none" stroke="#9a32cd" stroke-dasharray="5,2" d="M104.3156,-9.0662C139.3276,-10.5665 185.4677,-16.8425 221,-37 245.6534,-50.9859 264.3138,-79.996 272.8602,-95.2078"/>
<polygon fill="#9a32cd" stroke="#9a32cd" points="104.398,-5.5672 94.2935,-8.7528 104.1791,-12.5638 104.398,-5.5672"/>
<text text-anchor="middle" x="172" y="-40" font-family="Helvetica,sans-Serif" font-size="10.00" fill="#000000"> export_entries</text>
</g>
</g>
</svg>
        <g id="navigator" transform="translate(0 0)" fill="#404254">
                <rect fill="#f2f5e9" fill-opacity="0.5" stroke="#606060" stroke-width=".5" x="0" y="0" width="60" height="60"/>
                <use id="zoomplus" xlink:href="#zoomPlus" x="17" y="9" onmousedown="handleZoom(evt,'in')"/>
                <use id="zoomminus" xlink:href="#zoomMin" x="42" y="9" onmousedown="handleZoom(evt,'out')"/>
                <use id="reset" xlink:href="#resetDef" x="30" y="36" onmousedown="handleReset()"/>
                <g id="arrowUp" xlink:href="#dirArrow" transform="translate(30 24)" onmousedown="handlePan(0,-1)">
                  <use xlink:href="#rim" fill="#404040">
                        <set attributeName="fill" to="#808080" begin="arrowUp.mouseover" end="arrowUp.mouseout"/>
                  </use>
                  <path fill="none" stroke="white" stroke-width="1.5" d="M0,-3.0v7 M-2.5,-0.5L0,-3.0L2.5,-0.5"/>
                </g>
                <g id="arrowRight" xlink:href="#dirArrow" transform="rotate(90) translate(36 -43)" onmousedown="handlePan(1,0)">
                  <use xlink:href="#rim" fill="#404040">
                        <set attributeName="fill" to="#808080" begin="arrowRight.mouseover" end="arrowRight.mouseout"/>
                  </use>
                  <path fill="none" stroke="white" stroke-width="1.5" d="M0,-3.0v7 M-2.5,-0.5L0,-3.0L2.5,-0.5"/>
                </g>
                <g id="arrowDown" xlink:href="#dirArrow" transform="rotate(180) translate(-30 -48)" onmousedown="handlePan(0,1)">
                  <use xlink:href="#rim" fill="#404040">
                        <set attributeName="fill" to="#808080" begin="arrowDown.mouseover" end="arrowDown.mouseout"/>
                  </use>
                  <path fill="none" stroke="white" stroke-width="1.5" d="M0,-3.0v7 M-2.5,-0.5L0,-3.0L2.5,-0.5"/>
                </g>
                <g id="arrowLeft" xlink:href="#dirArrow" transform="rotate(270) translate(-36 17)" onmousedown="handlePan(-1,0)">
                  <use xlink:href="#rim" fill="#404040">
                        <set attributeName="fill" to="#808080" begin="arrowLeft.mouseover" end="arrowLeft.mouseout"/>
                  </use>
                  <path fill="none" stroke="white" stroke-width="1.5" d="M0,-3.0v7 M-2.5,-0.5L0,-3.0L2.5,-0.5"/>
                </g>
        </g>
        <svg viewBox="0 0 15 15" width="100%" height="30px" preserveAspectRatio="xMaxYMin meet">
         <g id="arrow_out" transform="scale(0.3 0.3)">
          <a xlink:href="structJSResolveState__coll__graph_org.svg" target="_base">
           <rect id="button" ry="5" rx="5" y="6" x="6" height="38" width="38"
                fill="#f2f5e9" fill-opacity="0.5" stroke="#606060" stroke-width="1.0"/>
           <path id="arrow"
             d="M 11.500037,31.436501 C 11.940474,20.09759 22.043105,11.32322 32.158766,21.979434 L 37.068811,17.246167 C 37.068811,17.246167 37.088388,32 37.088388,32 L 22.160133,31.978069 C 22.160133,31.978069 26.997745,27.140456 26.997745,27.140456 C 18.528582,18.264221 13.291696,25.230495 11.500037,31.436501 z"
             style="fill:#404040;"/>
          </a>
         </g>
        </svg>
</svg>
