<?xml version="1.0" encoding="UTF-8" standalone="no"?>
<!DOCTYPE svg PUBLIC "-//W3C//DTD SVG 1.1//EN"
 "http://www.w3.org/Graphics/SVG/1.1/DTD/svg11.dtd">
<!-- Generated by graphviz version 2.40.1 (20161225.0304)
 -->
<!-- Title: qjs::js_traits&lt; std::vector&lt; T &gt; &gt;::wrap Pages: 1 -->
<svg width="702pt" height="230pt"
 viewBox="0.00 0.00 702.00 229.60" xmlns="http://www.w3.org/2000/svg" xmlns:xlink="http://www.w3.org/1999/xlink">
<g id="graph0" class="graph" transform="scale(1 1) rotate(0) translate(4 225.5969)">
<title>qjs::js_traits&lt; std::vector&lt; T &gt; &gt;::wrap</title>
<!-- Node0 -->
<g id="node1" class="node">
<title>Node0</title>
<polygon fill="#bfbfbf" stroke="#000000" points="0,-90 0,-120 123,-120 123,-90 0,-90"/>
<text text-anchor="start" x="8" y="-108" font-family="Helvetica,sans-Serif" font-size="10.00" fill="#000000">qjs::js_traits&lt; std</text>
<text text-anchor="middle" x="61.5" y="-97" font-family="Helvetica,sans-Serif" font-size="10.00" fill="#000000">::vector&lt; T &gt; &gt;::wrap</text>
</g>
<!-- Node1 -->
<g id="node2" class="node">
<title>Node1</title>
<g id="a_node2"><a xlink:href="quickjs_8c.html#ad4ba09e4c7ab9f28c144182e1aacf1f6" target="_top" xlink:title="JS_NewArray">
<polygon fill="none" stroke="#000000" points="179,-152.5 179,-171.5 258,-171.5 258,-152.5 179,-152.5"/>
<text text-anchor="middle" x="218.5" y="-159.5" font-family="Helvetica,sans-Serif" font-size="10.00" fill="#000000">JS_NewArray</text>
</a>
</g>
</g>
<!-- Node0&#45;&gt;Node1 -->
<g id="edge1" class="edge">
<title>Node0&#45;&gt;Node1</title>
<path fill="none" stroke="#191970" d="M98.7977,-120.1674C116.8762,-127.3571 138.9637,-135.9042 159,-143 164.9701,-145.1143 171.3132,-147.2528 177.5482,-149.2945"/>
<polygon fill="#191970" stroke="#191970" points="176.5965,-152.665 187.1882,-152.4057 178.7465,-146.0034 176.5965,-152.665"/>
</g>
<!-- Node77 -->
<g id="node11" class="node">
<title>Node77</title>
<g id="a_node11"><a xlink:href="classqjs_1_1Value.html#af11fd023b991d7d6adc5c18142ded292" target="_top" xlink:title="Access JS properties. ">
<polygon fill="none" stroke="#000000" points="159,-114.5 159,-133.5 278,-133.5 278,-114.5 159,-114.5"/>
<text text-anchor="middle" x="218.5" y="-121.5" font-family="Helvetica,sans-Serif" font-size="10.00" fill="#000000">qjs::Value::operator[]</text>
</a>
</g>
</g>
<!-- Node0&#45;&gt;Node77 -->
<g id="edge12" class="edge">
<title>Node0&#45;&gt;Node77</title>
<path fill="none" stroke="#191970" d="M123.0999,-112.4548C131.5591,-113.4785 140.2931,-114.5355 148.8834,-115.5751"/>
<polygon fill="#191970" stroke="#191970" points="148.5285,-119.0576 158.8766,-116.7844 149.3695,-112.1083 148.5285,-119.0576"/>
</g>
<!-- Node78 -->
<g id="node12" class="node">
<title>Node78</title>
<g id="a_node12"><a xlink:href="classqjs_1_1Value.html#ad7677a3e42f8c82bb64b5633a611f2f6" target="_top" xlink:title="qjs::Value::release">
<polygon fill="none" stroke="#000000" points="165.5,-76.5 165.5,-95.5 271.5,-95.5 271.5,-76.5 165.5,-76.5"/>
<text text-anchor="middle" x="218.5" y="-83.5" font-family="Helvetica,sans-Serif" font-size="10.00" fill="#000000">qjs::Value::release</text>
</a>
</g>
</g>
<!-- Node0&#45;&gt;Node78 -->
<g id="edge13" class="edge">
<title>Node0&#45;&gt;Node78</title>
<path fill="none" stroke="#191970" d="M123.0999,-97.5452C133.7115,-96.261 144.7556,-94.9245 155.4058,-93.6356"/>
<polygon fill="#191970" stroke="#191970" points="155.9622,-97.0939 165.4692,-92.4177 155.1212,-90.1446 155.9622,-97.0939"/>
</g>
<!-- Node79 -->
<g id="node13" class="node">
<title>Node79</title>
<g id="a_node13"><a xlink:href="classqjs_1_1Value.html#a8e2a5be6c89f30cee044b884e30bf819" target="_top" xlink:title="Use context.newValue(val) instead. ">
<polygon fill="none" stroke="#000000" points="170,-38.5 170,-57.5 267,-57.5 267,-38.5 170,-38.5"/>
<text text-anchor="middle" x="218.5" y="-45.5" font-family="Helvetica,sans-Serif" font-size="10.00" fill="#000000">qjs::Value::Value</text>
</a>
</g>
</g>
<!-- Node0&#45;&gt;Node79 -->
<g id="edge14" class="edge">
<title>Node0&#45;&gt;Node79</title>
<path fill="none" stroke="#191970" d="M98.7977,-89.8326C116.8762,-82.6429 138.9637,-74.0958 159,-67 164.9701,-64.8857 171.3132,-62.7472 177.5482,-60.7055"/>
<polygon fill="#191970" stroke="#191970" points="178.7465,-63.9966 187.1882,-57.5943 176.5965,-57.335 178.7465,-63.9966"/>
</g>
<!-- Node2 -->
<g id="node3" class="node">
<title>Node2</title>
<g id="a_node3"><a xlink:href="quickjs_8c.html#aed229eb80b3b03a2275471dee93c69d6" target="_top" xlink:title="js_dup_shape">
<polygon fill="none" stroke="#000000" points="610.5,-199.5 610.5,-218.5 693.5,-218.5 693.5,-199.5 610.5,-199.5"/>
<text text-anchor="middle" x="652" y="-206.5" font-family="Helvetica,sans-Serif" font-size="10.00" fill="#000000">js_dup_shape</text>
</a>
</g>
</g>
<!-- Node1&#45;&gt;Node2 -->
<g id="edge2" class="edge">
<title>Node1&#45;&gt;Node2</title>
<path fill="none" stroke="#191970" d="M252.5939,-171.6059C303.3824,-185.3667 402.1474,-210.0203 488,-219 526.0148,-222.9761 535.8554,-221.4352 574,-219 582.5197,-218.4561 591.5312,-217.5812 600.2858,-216.5696"/>
<polygon fill="#191970" stroke="#191970" points="600.8998,-220.0206 610.4001,-215.3308 600.0488,-213.0726 600.8998,-220.0206"/>
</g>
<!-- Node3 -->
<g id="node4" class="node">
<title>Node3</title>
<g id="a_node4"><a xlink:href="quickjs_8c.html#a030c2e98b1775a7e3bdd13be1400b1fe" target="_top" xlink:title="JS_NewObjectFromShape">
<polygon fill="none" stroke="#000000" points="314,-114.5 314,-133.5 452,-133.5 452,-114.5 314,-114.5"/>
<text text-anchor="middle" x="383" y="-121.5" font-family="Helvetica,sans-Serif" font-size="10.00" fill="#000000">JS_NewObjectFromShape</text>
</a>
</g>
</g>
<!-- Node1&#45;&gt;Node3 -->
<g id="edge3" class="edge">
<title>Node1&#45;&gt;Node3</title>
<path fill="none" stroke="#191970" d="M258.3209,-152.8013C280.4522,-147.6888 308.2274,-141.2727 331.9416,-135.7946"/>
<polygon fill="#191970" stroke="#191970" points="332.8723,-139.1719 341.828,-133.5109 331.2967,-132.3515 332.8723,-139.1719"/>
</g>
<!-- Node4 -->
<g id="node5" class="node">
<title>Node4</title>
<g id="a_node5"><a xlink:href="quickjs_8c.html#a9780456a71703c53244b88831bc8fb7a" target="_top" xlink:title="add_gc_object">
<polygon fill="none" stroke="#ff0000" points="488,-190.5 488,-209.5 574,-209.5 574,-190.5 488,-190.5"/>
<text text-anchor="middle" x="531" y="-197.5" font-family="Helvetica,sans-Serif" font-size="10.00" fill="#000000">add_gc_object</text>
</a>
</g>
</g>
<!-- Node3&#45;&gt;Node4 -->
<g id="edge4" class="edge">
<title>Node3&#45;&gt;Node4</title>
<path fill="none" stroke="#191970" d="M399.5116,-133.5058C420.0113,-145.1807 456.1664,-165.3585 488,-181 491.6053,-182.7715 495.4138,-184.5641 499.214,-186.3043"/>
<polygon fill="#191970" stroke="#191970" points="497.9664,-189.5806 508.523,-190.4799 500.8313,-183.1937 497.9664,-189.5806"/>
</g>
<!-- Node7 -->
<g id="node6" class="node">
<title>Node7</title>
<g id="a_node6"><a xlink:href="quickjs_8c.html#a74547db03bf739a52c83a326b32db997" target="_top" xlink:title="add_property">
<polygon fill="none" stroke="#ff0000" points="490.5,-152.5 490.5,-171.5 571.5,-171.5 571.5,-152.5 490.5,-152.5"/>
<text text-anchor="middle" x="531" y="-159.5" font-family="Helvetica,sans-Serif" font-size="10.00" fill="#000000">add_property</text>
</a>
</g>
</g>
<!-- Node3&#45;&gt;Node7 -->
<g id="edge5" class="edge">
<title>Node3&#45;&gt;Node7</title>
<path fill="none" stroke="#191970" d="M420.3466,-133.589C439.7009,-138.5583 463.5304,-144.6767 484.1126,-149.9613"/>
<polygon fill="#191970" stroke="#191970" points="483.3656,-153.383 493.9219,-152.4799 485.1065,-146.6029 483.3656,-153.383"/>
</g>
<!-- Node34 -->
<g id="node7" class="node">
<title>Node34</title>
<g id="a_node7"><a xlink:href="quickjs_8c.html#a3a9f27520d96cf58aa5bd7359e9cddee" target="_top" xlink:title="js_free_shape">
<polygon fill="none" stroke="#ff0000" points="610,-133.5 610,-152.5 694,-152.5 694,-133.5 610,-133.5"/>
<text text-anchor="middle" x="652" y="-140.5" font-family="Helvetica,sans-Serif" font-size="10.00" fill="#000000">js_free_shape</text>
</a>
</g>
</g>
<!-- Node3&#45;&gt;Node34 -->
<g id="edge9" class="edge">
<title>Node3&#45;&gt;Node34</title>
<path fill="none" stroke="#191970" d="M452.2742,-128.893C498.294,-132.1434 557.7558,-136.3433 599.7949,-139.3126"/>
<polygon fill="#191970" stroke="#191970" points="599.5991,-142.8075 609.8209,-140.0208 600.0924,-135.8248 599.5991,-142.8075"/>
</g>
<!-- Node21 -->
<g id="node8" class="node">
<title>Node21</title>
<g id="a_node8"><a xlink:href="quickjs_8c.html#a80e54dcf9ac687d4ccc2f90273565f30" target="_top" xlink:title="js_free">
<polygon fill="none" stroke="#ff0000" points="506,-76.5 506,-95.5 556,-95.5 556,-76.5 506,-76.5"/>
<text text-anchor="middle" x="531" y="-83.5" font-family="Helvetica,sans-Serif" font-size="10.00" fill="#000000">js_free</text>
</a>
</g>
</g>
<!-- Node3&#45;&gt;Node21 -->
<g id="edge8" class="edge">
<title>Node3&#45;&gt;Node21</title>
<path fill="none" stroke="#191970" d="M420.3466,-114.411C443.5156,-108.4622 473.0977,-100.8668 495.8451,-95.0263"/>
<polygon fill="#191970" stroke="#191970" points="496.9526,-98.3555 505.768,-92.4785 495.2118,-91.5754 496.9526,-98.3555"/>
</g>
<!-- Node61 -->
<g id="node9" class="node">
<title>Node61</title>
<g id="a_node9"><a xlink:href="quickjs_8h.html#a2050bc428da1c65ac7eb87c3fa3b0392" target="_top" xlink:title="JS_NewInt32">
<polygon fill="none" stroke="#000000" points="492.5,-38.5 492.5,-57.5 569.5,-57.5 569.5,-38.5 492.5,-38.5"/>
<text text-anchor="middle" x="531" y="-45.5" font-family="Helvetica,sans-Serif" font-size="10.00" fill="#000000">JS_NewInt32</text>
</a>
</g>
</g>
<!-- Node3&#45;&gt;Node61 -->
<g id="edge10" class="edge">
<title>Node3&#45;&gt;Node61</title>
<path fill="none" stroke="#191970" d="M399.5116,-114.4942C420.0113,-102.8193 456.1664,-82.6415 488,-67 491.6053,-65.2285 495.4138,-63.4359 499.214,-61.6957"/>
<polygon fill="#191970" stroke="#191970" points="500.8313,-64.8063 508.523,-57.5201 497.9664,-58.4194 500.8313,-64.8063"/>
</g>
<!-- Node62 -->
<g id="node10" class="node">
<title>Node62</title>
<g id="a_node10"><a xlink:href="quickjs_8c.html#a85321334e4bec66bfc03451897a03a3b" target="_top" xlink:title="js_trigger_gc">
<polygon fill="none" stroke="#ff0000" points="491.5,-.5 491.5,-19.5 570.5,-19.5 570.5,-.5 491.5,-.5"/>
<text text-anchor="middle" x="531" y="-7.5" font-family="Helvetica,sans-Serif" font-size="10.00" fill="#000000">js_trigger_gc</text>
</a>
</g>
</g>
<!-- Node3&#45;&gt;Node62 -->
<g id="edge11" class="edge">
<title>Node3&#45;&gt;Node62</title>
<path fill="none" stroke="#191970" d="M395.5997,-114.3476C409.7355,-103.3479 433.1528,-84.6085 452,-67 468.9996,-51.1177 468.988,-42.4082 488,-29 490.3761,-27.3243 492.9236,-25.747 495.5488,-24.2732"/>
<polygon fill="#191970" stroke="#191970" points="497.2987,-27.3102 504.6373,-19.6684 494.135,-21.0659 497.2987,-27.3102"/>
</g>
<!-- Node7&#45;&gt;Node2 -->
<g id="edge6" class="edge">
<title>Node7&#45;&gt;Node2</title>
<path fill="none" stroke="#191970" d="M555.4862,-171.5112C573.3268,-178.441 597.7367,-187.9225 617.5438,-195.6162"/>
<polygon fill="#191970" stroke="#191970" points="616.5462,-198.9834 627.135,-199.3417 619.0807,-192.4583 616.5462,-198.9834"/>
</g>
<!-- Node7&#45;&gt;Node34 -->
<g id="edge7" class="edge">
<title>Node7&#45;&gt;Node34</title>
<path fill="none" stroke="#191970" d="M571.6279,-155.6204C580.6025,-154.2112 590.2334,-152.6989 599.6005,-151.228"/>
<polygon fill="#191970" stroke="#191970" points="600.2817,-154.664 609.6177,-149.6551 599.1958,-147.7488 600.2817,-154.664"/>
</g>
<!-- Node80 -->
<g id="node14" class="node">
<title>Node80</title>
<g id="a_node14"><a xlink:href="quickjs_8h.html#ad80a83d73e9b7d872b88fbf2943aebe9" target="_top" xlink:title="JS_IsException">
<polygon fill="none" stroke="#000000" points="339.5,-38.5 339.5,-57.5 426.5,-57.5 426.5,-38.5 339.5,-38.5"/>
<text text-anchor="middle" x="383" y="-45.5" font-family="Helvetica,sans-Serif" font-size="10.00" fill="#000000">JS_IsException</text>
</a>
</g>
</g>
<!-- Node79&#45;&gt;Node80 -->
<g id="edge15" class="edge">
<title>Node79&#45;&gt;Node80</title>
<path fill="none" stroke="#191970" d="M267.41,-48C286.8465,-48 309.2729,-48 329.1695,-48"/>
<polygon fill="#191970" stroke="#191970" points="329.3144,-51.5001 339.3144,-48 329.3143,-44.5001 329.3144,-51.5001"/>
</g>
</g>
</svg>
