<?xml version="1.0" encoding="UTF-8" standalone="no"?>
<!DOCTYPE svg PUBLIC "-//W3C//DTD SVG 1.1//EN"
 "http://www.w3.org/Graphics/SVG/1.1/DTD/svg11.dtd">
<!-- Generated by graphviz version 2.40.1 (20161225.0304)
 -->
<!-- Title: JSPromiseReactionData Pages: 1 -->
<svg width="211pt" height="175pt"
 viewBox="0.00 0.00 210.50 175.00" xmlns="http://www.w3.org/2000/svg" xmlns:xlink="http://www.w3.org/1999/xlink">
<g id="graph0" class="graph" transform="scale(1 1) rotate(0) translate(4 171)">
<title>JSPromiseReactionData</title>
<!-- Node1 -->
<g id="node1" class="node">
<title>Node1</title>
<polygon fill="#bfbfbf" stroke="#000000" points="23,-.5 23,-19.5 154,-19.5 154,-.5 23,-.5"/>
<text text-anchor="middle" x="88.5" y="-7.5" font-family="Helvetica,sans-Serif" font-size="10.00" fill="#000000">JSPromiseReactionData</text>
</g>
<!-- Node2 -->
<g id="node2" class="node">
<title>Node2</title>
<g id="a_node2"><a xlink:href="structlist__head.html" target="_top" xlink:title="list_head">
<polygon fill="none" stroke="#000000" points="0,-79.5 0,-98.5 61,-98.5 61,-79.5 0,-79.5"/>
<text text-anchor="middle" x="30.5" y="-86.5" font-family="Helvetica,sans-Serif" font-size="10.00" fill="#000000">list_head</text>
</a>
</g>
</g>
<!-- Node2&#45;&gt;Node1 -->
<g id="edge1" class="edge">
<title>Node2&#45;&gt;Node1</title>
<path fill="none" stroke="#9a32cd" stroke-dasharray="5,2" d="M43.8308,-70.8425C55.4958,-54.954 71.9946,-32.4815 81.3299,-19.7662"/>
<polygon fill="#9a32cd" stroke="#9a32cd" points="40.7087,-69.1809 37.6119,-79.313 46.3513,-73.3236 40.7087,-69.1809"/>
<text text-anchor="middle" x="76.5" y="-46.5" font-family="Helvetica,sans-Serif" font-size="10.00" fill="#000000"> link</text>
</g>
<!-- Node2&#45;&gt;Node2 -->
<g id="edge2" class="edge">
<title>Node2&#45;&gt;Node2</title>
<path fill="none" stroke="#9a32cd" stroke-dasharray="5,2" d="M71.5828,-94.3543C76.0914,-93.3341 79,-91.5494 79,-89 79,-84.8164 71.1673,-82.6919 61.2846,-82.6266"/>
<polygon fill="#9a32cd" stroke="#9a32cd" points="70.8913,-90.9055 61.2846,-95.3734 71.5807,-97.8715 70.8913,-90.9055"/>
<text text-anchor="middle" x="91.5" y="-92" font-family="Helvetica,sans-Serif" font-size="10.00" fill="#000000"> prev</text>
<text text-anchor="middle" x="91.5" y="-81" font-family="Helvetica,sans-Serif" font-size="10.00" fill="#000000">next</text>
</g>
<!-- Node3 -->
<g id="node3" class="node">
<title>Node3</title>
<g id="a_node3"><a xlink:href="structJSValue.html" target="_top" xlink:title="JSValue">
<polygon fill="none" stroke="#000000" points="122,-79.5 122,-98.5 175,-98.5 175,-79.5 122,-79.5"/>
<text text-anchor="middle" x="148.5" y="-86.5" font-family="Helvetica,sans-Serif" font-size="10.00" fill="#000000">JSValue</text>
</a>
</g>
</g>
<!-- Node3&#45;&gt;Node1 -->
<g id="edge3" class="edge">
<title>Node3&#45;&gt;Node1</title>
<path fill="none" stroke="#9a32cd" stroke-dasharray="5,2" d="M135.0465,-71.2862C122.962,-55.3749 105.6648,-32.6004 95.9174,-19.7662"/>
<polygon fill="#9a32cd" stroke="#9a32cd" points="132.3073,-73.4664 141.1428,-79.313 137.8818,-69.2326 132.3073,-73.4664"/>
<text text-anchor="middle" x="164" y="-52" font-family="Helvetica,sans-Serif" font-size="10.00" fill="#000000"> handler</text>
<text text-anchor="middle" x="164" y="-41" font-family="Helvetica,sans-Serif" font-size="10.00" fill="#000000">resolving_funcs</text>
</g>
<!-- Node4 -->
<g id="node4" class="node">
<title>Node4</title>
<g id="a_node4"><a xlink:href="unionJSValueUnion.html" target="_top" xlink:title="JSValueUnion">
<polygon fill="none" stroke="#000000" points="108,-147.5 108,-166.5 189,-166.5 189,-147.5 108,-147.5"/>
<text text-anchor="middle" x="148.5" y="-154.5" font-family="Helvetica,sans-Serif" font-size="10.00" fill="#000000">JSValueUnion</text>
</a>
</g>
</g>
<!-- Node4&#45;&gt;Node3 -->
<g id="edge4" class="edge">
<title>Node4&#45;&gt;Node3</title>
<path fill="none" stroke="#9a32cd" stroke-dasharray="5,2" d="M148.5,-137.1951C148.5,-124.5514 148.5,-108.7157 148.5,-98.7247"/>
<polygon fill="#9a32cd" stroke="#9a32cd" points="145.0001,-137.2572 148.5,-147.2573 152.0001,-137.2573 145.0001,-137.2572"/>
<text text-anchor="middle" x="153.5" y="-121" font-family="Helvetica,sans-Serif" font-size="10.00" fill="#000000"> u</text>
</g>
</g>
</svg>
