<?xml version="1.0" encoding="UTF-8" standalone="no"?>
<!DOCTYPE svg PUBLIC "-//W3C//DTD SVG 1.1//EN"
 "http://www.w3.org/Graphics/SVG/1.1/DTD/svg11.dtd">
<!-- Generated by graphviz version 2.40.1 (20161225.0304)
 -->
<!-- Title: qjs::js_property_traits&lt; uint32_t &gt;::get_property Pages: 1 -->
<!--zoomable 294 -->
<svg id="main" version="1.1" xmlns="http://www.w3.org/2000/svg" xmlns:xlink="http://www.w3.org/1999/xlink" xml:space="preserve" onload="init(evt)">
<style type="text/css"><![CDATA[
.edge:hover path { stroke: red; }
.edge:hover polygon { stroke: red; fill: red; }
]]></style>
<script type="text/javascript"><![CDATA[
var edges = document.getElementsByTagName('g');
if (edges && edges.length) {
  for (var i=0;i<edges.length;i++) {
    if (edges[i].id.substr(0,4)=='edge') {
      edges[i].setAttribute('class','edge');
    }
  }
}
]]></script>
        <defs>
                <circle id="rim" cx="0" cy="0" r="7"/>
                <circle id="rim2" cx="0" cy="0" r="3.5"/>
                <g id="zoomPlus">
                        <use xlink:href="#rim" fill="#404040">
                                <set attributeName="fill" to="#808080" begin="zoomplus.mouseover" end="zoomplus.mouseout"/>
                        </use>
                        <path d="M-4,0h8M0,-4v8" fill="none" stroke="white" stroke-width="1.5" pointer-events="none"/>
                </g>
                <g id="zoomMin">
                        <use xlink:href="#rim" fill="#404040">
                                <set attributeName="fill" to="#808080" begin="zoomminus.mouseover" end="zoomminus.mouseout"/>
                        </use>
                        <path d="M-4,0h8" fill="none" stroke="white" stroke-width="1.5" pointer-events="none"/>
                </g>
                <g id="dirArrow">
                        <path fill="none" stroke="white" stroke-width="1.5" d="M0,-3.0v7 M-2.5,-0.5L0,-3.0L2.5,-0.5"/>
                </g>
               <g id="resetDef">
                       <use xlink:href="#rim2" fill="#404040">
                               <set attributeName="fill" to="#808080" begin="reset.mouseover" end="reset.mouseout"/>
                       </use>
               </g>
        </defs>

<script type="text/javascript">
var viewWidth = 731;
var viewHeight = 294;
var sectionId = 'dynsection-1';
</script>
<script xlink:href="svgpan.js"/>
<svg id="graph" class="graph">
<g id="viewport">
<title>qjs::js_property_traits&lt; uint32_t &gt;::get_property</title>
<!-- Node437 -->
<g id="node1" class="node">
<title>Node437</title>
<polygon fill="#bfbfbf" stroke="#000000" points="0,-185 0,-215 147,-215 147,-185 0,-185"/>
<text text-anchor="start" x="8" y="-203" font-family="Helvetica,sans-Serif" font-size="10.00" fill="#000000">qjs::js_property_traits</text>
<text text-anchor="middle" x="73.5" y="-192" font-family="Helvetica,sans-Serif" font-size="10.00" fill="#000000">&lt; uint32_t &gt;::get_property</text>
</g>
<!-- Node438 -->
<g id="node2" class="node">
<title>Node438</title>
<g id="a_node2"><a xlink:href="quickjs_8c.html#aeb97957655d979e9fe56c955da2b2d4b" target="_top" xlink:title="JS_GetPropertyUint32">
<polygon fill="none" stroke="#000000" points="183,-190.5 183,-209.5 305,-209.5 305,-190.5 183,-190.5"/>
<text text-anchor="middle" x="244" y="-197.5" font-family="Helvetica,sans-Serif" font-size="10.00" fill="#000000">JS_GetPropertyUint32</text>
</a>
</g>
</g>
<!-- Node437&#45;&gt;Node438 -->
<g id="edge1" class="edge">
<title>Node437&#45;&gt;Node438</title>
<path fill="none" stroke="#191970" d="M147.2921,-200C155.738,-200 164.3367,-200 172.7484,-200"/>
<polygon fill="#191970" stroke="#191970" points="172.8934,-203.5001 182.8933,-200 172.8933,-196.5001 172.8934,-203.5001"/>
</g>
<!-- Node439 -->
<g id="node3" class="node">
<title>Node439</title>
<g id="a_node3"><a xlink:href="quickjs_8c.html#a90d6e607f6917d817c1e997bd2e6ed07" target="_top" xlink:title="JS_GetPropertyValue">
<polygon fill="none" stroke="#000000" points="341,-152.5 341,-171.5 457,-171.5 457,-152.5 341,-152.5"/>
<text text-anchor="middle" x="399" y="-159.5" font-family="Helvetica,sans-Serif" font-size="10.00" fill="#000000">JS_GetPropertyValue</text>
</a>
</g>
</g>
<!-- Node438&#45;&gt;Node439 -->
<g id="edge2" class="edge">
<title>Node438&#45;&gt;Node439</title>
<path fill="none" stroke="#191970" d="M283.113,-190.411C303.4748,-185.4191 328.5663,-179.2676 350.1887,-173.9666"/>
<polygon fill="#191970" stroke="#191970" points="351.2892,-177.3006 360.1682,-171.5201 349.6224,-170.5019 351.2892,-177.3006"/>
</g>
<!-- Node634 -->
<g id="node10" class="node">
<title>Node634</title>
<g id="a_node10"><a xlink:href="quickjs_8h.html#a88259aa0da61ac754402c64ccecee116" target="_top" xlink:title="JS_NewUint32">
<polygon fill="none" stroke="#000000" points="498,-266.5 498,-285.5 583,-285.5 583,-266.5 498,-266.5"/>
<text text-anchor="middle" x="540.5" y="-273.5" font-family="Helvetica,sans-Serif" font-size="10.00" fill="#000000">JS_NewUint32</text>
</a>
</g>
</g>
<!-- Node438&#45;&gt;Node634 -->
<g id="edge13" class="edge">
<title>Node438&#45;&gt;Node634</title>
<path fill="none" stroke="#191970" d="M281.2517,-209.5485C335.0643,-223.3419 434.532,-248.8379 493.3789,-263.9217"/>
<polygon fill="#191970" stroke="#191970" points="492.6116,-267.3381 503.1675,-266.4308 494.3497,-260.5573 492.6116,-267.3381"/>
</g>
<!-- Node440 -->
<g id="node4" class="node">
<title>Node440</title>
<g id="a_node4"><a xlink:href="quickjs_8h.html#a9bf98b18de88b4199910a43e933eb97d" target="_top" xlink:title="__JS_NewFloat64">
<polygon fill="none" stroke="#000000" points="624,-247.5 624,-266.5 723,-266.5 723,-247.5 624,-247.5"/>
<text text-anchor="middle" x="673.5" y="-254.5" font-family="Helvetica,sans-Serif" font-size="10.00" fill="#000000">__JS_NewFloat64</text>
</a>
</g>
</g>
<!-- Node439&#45;&gt;Node440 -->
<g id="edge3" class="edge">
<title>Node439&#45;&gt;Node440</title>
<path fill="none" stroke="#191970" d="M411.6494,-171.6039C429.0453,-184.3437 461.76,-206.6562 493,-219 531.7634,-234.3164 577.7669,-243.8811 613.6292,-249.5834"/>
<polygon fill="#191970" stroke="#191970" points="613.5217,-253.1077 623.9362,-251.161 614.5808,-246.1883 613.5217,-253.1077"/>
</g>
<!-- Node441 -->
<g id="node5" class="node">
<title>Node441</title>
<g id="a_node5"><a xlink:href="quickjs_8h.html#a775522f2d084fc8fa0fcb33f390006b4" target="_top" xlink:title="JS_DupValue">
<polygon fill="none" stroke="#000000" points="502,-38.5 502,-57.5 579,-57.5 579,-38.5 502,-38.5"/>
<text text-anchor="middle" x="540.5" y="-45.5" font-family="Helvetica,sans-Serif" font-size="10.00" fill="#000000">JS_DupValue</text>
</a>
</g>
</g>
<!-- Node439&#45;&gt;Node441 -->
<g id="edge4" class="edge">
<title>Node439&#45;&gt;Node441</title>
<path fill="none" stroke="#191970" d="M407.2895,-152.3605C422.7852,-134.756 457.7722,-96.9244 493,-72 497.9285,-68.513 503.4358,-65.2424 508.9052,-62.305"/>
<polygon fill="#191970" stroke="#191970" points="510.6388,-65.35 517.9653,-57.6967 507.4652,-59.1107 510.6388,-65.35"/>
</g>
<!-- Node442 -->
<g id="node6" class="node">
<title>Node442</title>
<g id="a_node6"><a xlink:href="quickjs_8c.html#ab7fc45a99935a1c0ba50b0216d9401a9" target="_top" xlink:title="JS_FreeAtom">
<polygon fill="none" stroke="#ff0000" points="502,-.5 502,-19.5 579,-19.5 579,-.5 502,-.5"/>
<text text-anchor="middle" x="540.5" y="-7.5" font-family="Helvetica,sans-Serif" font-size="10.00" fill="#000000">JS_FreeAtom</text>
</a>
</g>
</g>
<!-- Node439&#45;&gt;Node442 -->
<g id="edge5" class="edge">
<title>Node439&#45;&gt;Node442</title>
<path fill="none" stroke="#191970" d="M403.4546,-152.1893C414.913,-127.9716 447.7174,-64.7299 493,-29 495.1484,-27.3048 497.4678,-25.7424 499.8859,-24.3054"/>
<polygon fill="#191970" stroke="#191970" points="501.6588,-27.3292 508.945,-19.6376 498.4525,-21.1067 501.6588,-27.3292"/>
</g>
<!-- Node448 -->
<g id="node7" class="node">
<title>Node448</title>
<g id="a_node7"><a xlink:href="quickjs_8h.html#afaa20c47565bc704c6c85f3d77254e7d" target="_top" xlink:title="JS_FreeValue">
<polygon fill="none" stroke="#ff0000" points="501.5,-190.5 501.5,-209.5 579.5,-209.5 579.5,-190.5 501.5,-190.5"/>
<text text-anchor="middle" x="540.5" y="-197.5" font-family="Helvetica,sans-Serif" font-size="10.00" fill="#000000">JS_FreeValue</text>
</a>
</g>
</g>
<!-- Node439&#45;&gt;Node448 -->
<g id="edge6" class="edge">
<title>Node439&#45;&gt;Node448</title>
<path fill="none" stroke="#191970" d="M434.7064,-171.589C452.9727,-176.4944 475.4084,-182.5196 494.9112,-187.7571"/>
<polygon fill="#191970" stroke="#191970" points="494.2394,-191.2006 504.805,-190.4141 496.055,-184.4401 494.2394,-191.2006"/>
</g>
<!-- Node480 -->
<g id="node8" class="node">
<title>Node480</title>
<g id="a_node8"><a xlink:href="quickjs_8h.html#a89b7c8686c7eee70b86be722ee4730ad" target="_top" xlink:title="JS_GetProperty">
<polygon fill="none" stroke="#ff0000" points="496,-152.5 496,-171.5 585,-171.5 585,-152.5 496,-152.5"/>
<text text-anchor="middle" x="540.5" y="-159.5" font-family="Helvetica,sans-Serif" font-size="10.00" fill="#000000">JS_GetProperty</text>
</a>
</g>
</g>
<!-- Node439&#45;&gt;Node480 -->
<g id="edge7" class="edge">
<title>Node439&#45;&gt;Node480</title>
<path fill="none" stroke="#191970" d="M457.3704,-162C466.6628,-162 476.2493,-162 485.4616,-162"/>
<polygon fill="#191970" stroke="#191970" points="485.6678,-165.5001 495.6678,-162 485.6677,-158.5001 485.6678,-165.5001"/>
</g>
<!-- Node489 -->
<g id="node9" class="node">
<title>Node489</title>
<g id="a_node9"><a xlink:href="quickjs_8h.html#a2050bc428da1c65ac7eb87c3fa3b0392" target="_top" xlink:title="JS_NewInt32">
<polygon fill="none" stroke="#000000" points="635,-152.5 635,-171.5 712,-171.5 712,-152.5 635,-152.5"/>
<text text-anchor="middle" x="673.5" y="-159.5" font-family="Helvetica,sans-Serif" font-size="10.00" fill="#000000">JS_NewInt32</text>
</a>
</g>
</g>
<!-- Node439&#45;&gt;Node489 -->
<g id="edge8" class="edge">
<title>Node439&#45;&gt;Node489</title>
<path fill="none" stroke="#191970" d="M410.187,-152.3569C426.8833,-138.6707 459.9144,-114.2476 493,-105 533.6637,-93.6343 547.5894,-92.7647 588,-105 614.172,-112.9242 639.6552,-131.794 655.8915,-145.6611"/>
<polygon fill="#191970" stroke="#191970" points="653.6807,-148.3781 663.4939,-152.3722 658.3133,-143.1303 653.6807,-148.3781"/>
</g>
<!-- Node439&#45;&gt;Node634 -->
<g id="edge9" class="edge">
<title>Node439&#45;&gt;Node634</title>
<path fill="none" stroke="#191970" d="M407.2895,-171.6395C422.7852,-189.244 457.7722,-227.0756 493,-252 497.9285,-255.487 503.4358,-258.7576 508.9052,-261.695"/>
<polygon fill="#191970" stroke="#191970" points="507.4652,-264.8893 517.9653,-266.3033 510.6388,-258.65 507.4652,-264.8893"/>
</g>
<!-- Node669 -->
<g id="node11" class="node">
<title>Node669</title>
<g id="a_node11"><a xlink:href="quickjs_8c.html#a859d5c989a2aaecef1653b3ac279e108" target="_top" xlink:title="JS_ValueToAtom">
<polygon fill="none" stroke="#ff0000" points="493,-114.5 493,-133.5 588,-133.5 588,-114.5 493,-114.5"/>
<text text-anchor="middle" x="540.5" y="-121.5" font-family="Helvetica,sans-Serif" font-size="10.00" fill="#000000">JS_ValueToAtom</text>
</a>
</g>
</g>
<!-- Node439&#45;&gt;Node669 -->
<g id="edge12" class="edge">
<title>Node439&#45;&gt;Node669</title>
<path fill="none" stroke="#191970" d="M434.7064,-152.411C452.9727,-147.5056 475.4084,-141.4804 494.9112,-136.2429"/>
<polygon fill="#191970" stroke="#191970" points="496.055,-139.5599 504.805,-133.5859 494.2394,-132.7994 496.055,-139.5599"/>
</g>
<!-- Node634&#45;&gt;Node440 -->
<g id="edge10" class="edge">
<title>Node634&#45;&gt;Node440</title>
<path fill="none" stroke="#191970" d="M583.3141,-269.8837C592.9962,-268.5005 603.4488,-267.0073 613.6878,-265.5446"/>
<polygon fill="#191970" stroke="#191970" points="614.4146,-268.9764 623.8191,-264.0973 613.4246,-262.0467 614.4146,-268.9764"/>
</g>
<!-- Node634&#45;&gt;Node489 -->
<g id="edge11" class="edge">
<title>Node634&#45;&gt;Node489</title>
<path fill="none" stroke="#191970" d="M551.8395,-266.2804C574.6112,-246.7618 626.1232,-202.6087 654.2639,-178.4881"/>
<polygon fill="#191970" stroke="#191970" points="656.8744,-180.8603 662.1892,-171.695 652.3188,-175.5455 656.8744,-180.8603"/>
</g>
</g>
</svg>
        <g id="navigator" transform="translate(0 0)" fill="#404254">
                <rect fill="#f2f5e9" fill-opacity="0.5" stroke="#606060" stroke-width=".5" x="0" y="0" width="60" height="60"/>
                <use id="zoomplus" xlink:href="#zoomPlus" x="17" y="9" onmousedown="handleZoom(evt,'in')"/>
                <use id="zoomminus" xlink:href="#zoomMin" x="42" y="9" onmousedown="handleZoom(evt,'out')"/>
                <use id="reset" xlink:href="#resetDef" x="30" y="36" onmousedown="handleReset()"/>
                <g id="arrowUp" xlink:href="#dirArrow" transform="translate(30 24)" onmousedown="handlePan(0,-1)">
                  <use xlink:href="#rim" fill="#404040">
                        <set attributeName="fill" to="#808080" begin="arrowUp.mouseover" end="arrowUp.mouseout"/>
                  </use>
                  <path fill="none" stroke="white" stroke-width="1.5" d="M0,-3.0v7 M-2.5,-0.5L0,-3.0L2.5,-0.5"/>
                </g>
                <g id="arrowRight" xlink:href="#dirArrow" transform="rotate(90) translate(36 -43)" onmousedown="handlePan(1,0)">
                  <use xlink:href="#rim" fill="#404040">
                        <set attributeName="fill" to="#808080" begin="arrowRight.mouseover" end="arrowRight.mouseout"/>
                  </use>
                  <path fill="none" stroke="white" stroke-width="1.5" d="M0,-3.0v7 M-2.5,-0.5L0,-3.0L2.5,-0.5"/>
                </g>
                <g id="arrowDown" xlink:href="#dirArrow" transform="rotate(180) translate(-30 -48)" onmousedown="handlePan(0,1)">
                  <use xlink:href="#rim" fill="#404040">
                        <set attributeName="fill" to="#808080" begin="arrowDown.mouseover" end="arrowDown.mouseout"/>
                  </use>
                  <path fill="none" stroke="white" stroke-width="1.5" d="M0,-3.0v7 M-2.5,-0.5L0,-3.0L2.5,-0.5"/>
                </g>
                <g id="arrowLeft" xlink:href="#dirArrow" transform="rotate(270) translate(-36 17)" onmousedown="handlePan(-1,0)">
                  <use xlink:href="#rim" fill="#404040">
                        <set attributeName="fill" to="#808080" begin="arrowLeft.mouseover" end="arrowLeft.mouseout"/>
                  </use>
                  <path fill="none" stroke="white" stroke-width="1.5" d="M0,-3.0v7 M-2.5,-0.5L0,-3.0L2.5,-0.5"/>
                </g>
        </g>
        <svg viewBox="0 0 15 15" width="100%" height="30px" preserveAspectRatio="xMaxYMin meet">
         <g id="arrow_out" transform="scale(0.3 0.3)">
          <a xlink:href="structqjs_1_1js__property__traits_3_01uint32__t_01_4_af19da02fec28059477a39b16c531a97c_cgraph_org.svg" target="_base">
           <rect id="button" ry="5" rx="5" y="6" x="6" height="38" width="38"
                fill="#f2f5e9" fill-opacity="0.5" stroke="#606060" stroke-width="1.0"/>
           <path id="arrow"
             d="M 11.500037,31.436501 C 11.940474,20.09759 22.043105,11.32322 32.158766,21.979434 L 37.068811,17.246167 C 37.068811,17.246167 37.088388,32 37.088388,32 L 22.160133,31.978069 C 22.160133,31.978069 26.997745,27.140456 26.997745,27.140456 C 18.528582,18.264221 13.291696,25.230495 11.500037,31.436501 z"
             style="fill:#404040;"/>
          </a>
         </g>
        </svg>
</svg>
