<?xml version="1.0" encoding="UTF-8" standalone="no"?>
<!DOCTYPE svg PUBLIC "-//W3C//DTD SVG 1.1//EN"
 "http://www.w3.org/Graphics/SVG/1.1/DTD/svg11.dtd">
<!-- Generated by graphviz version 2.40.1 (20161225.0304)
 -->
<!-- Title: qjs::js_traits&lt; std::string_view &gt;::unwrap Pages: 1 -->
<svg width="289pt" height="88pt"
 viewBox="0.00 0.00 289.00 88.00" xmlns="http://www.w3.org/2000/svg" xmlns:xlink="http://www.w3.org/1999/xlink">
<g id="graph0" class="graph" transform="scale(1 1) rotate(0) translate(4 84)">
<title>qjs::js_traits&lt; std::string_view &gt;::unwrap</title>
<!-- Node436 -->
<g id="node1" class="node">
<title>Node436</title>
<polygon fill="#bfbfbf" stroke="#000000" points="0,-24.5 0,-54.5 132,-54.5 132,-24.5 0,-24.5"/>
<text text-anchor="start" x="8" y="-42.5" font-family="Helvetica,sans-Serif" font-size="10.00" fill="#000000">qjs::js_traits&lt; std</text>
<text text-anchor="middle" x="66" y="-31.5" font-family="Helvetica,sans-Serif" font-size="10.00" fill="#000000">::string_view &gt;::unwrap</text>
</g>
<!-- Node437 -->
<g id="node2" class="node">
<title>Node437</title>
<g id="a_node2"><a xlink:href="structqjs_1_1js__traits_3_01std_1_1string_01_4.html#a9511dd47284884284b365ff1bd3de9d5" target="_top" xlink:title="qjs::js_traits\&lt; std\l::string \&gt;::unwrap">
<polygon fill="none" stroke="#000000" points="172.5,-49.5 172.5,-79.5 276.5,-79.5 276.5,-49.5 172.5,-49.5"/>
<text text-anchor="start" x="180.5" y="-67.5" font-family="Helvetica,sans-Serif" font-size="10.00" fill="#000000">qjs::js_traits&lt; std</text>
<text text-anchor="middle" x="224.5" y="-56.5" font-family="Helvetica,sans-Serif" font-size="10.00" fill="#000000">::string &gt;::unwrap</text>
</a>
</g>
</g>
<!-- Node436&#45;&gt;Node437 -->
<g id="edge1" class="edge">
<title>Node436&#45;&gt;Node437</title>
<path fill="none" stroke="#191970" d="M142.4227,-51.5541C152.591,-53.1579 162.8215,-54.7715 172.4434,-56.2892"/>
<polygon fill="#191970" stroke="#191970" points="142.7231,-48.0582 132.2999,-49.9574 141.6324,-54.9728 142.7231,-48.0582"/>
</g>
<!-- Node438 -->
<g id="node3" class="node">
<title>Node438</title>
<g id="a_node3"><a xlink:href="structqjs_1_1js__traits_3_01const_01char_01_5_01_4.html#ac03002f04b35482ae7ad9ac3a693ddbf" target="_top" xlink:title="qjs::js_traits\&lt; const\l char * \&gt;::unwrap">
<polygon fill="none" stroke="#000000" points="168,-.5 168,-30.5 281,-30.5 281,-.5 168,-.5"/>
<text text-anchor="start" x="176" y="-18.5" font-family="Helvetica,sans-Serif" font-size="10.00" fill="#000000">qjs::js_traits&lt; const</text>
<text text-anchor="middle" x="224.5" y="-7.5" font-family="Helvetica,sans-Serif" font-size="10.00" fill="#000000"> char * &gt;::unwrap</text>
</a>
</g>
</g>
<!-- Node436&#45;&gt;Node438 -->
<g id="edge2" class="edge">
<title>Node436&#45;&gt;Node438</title>
<path fill="none" stroke="#191970" d="M142.2457,-27.9549C150.7562,-26.6662 159.313,-25.3706 167.5228,-24.1275"/>
<polygon fill="#191970" stroke="#191970" points="141.6632,-24.5031 132.2999,-29.4609 142.7112,-31.4242 141.6632,-24.5031"/>
</g>
</g>
</svg>
