<?xml version="1.0" encoding="UTF-8" standalone="no"?>
<!DOCTYPE svg PUBLIC "-//W3C//DTD SVG 1.1//EN"
 "http://www.w3.org/Graphics/SVG/1.1/DTD/svg11.dtd">
<!-- Generated by graphviz version 2.40.1 (20161225.0304)
 -->
<!-- Title: JSRegExpStringIteratorData Pages: 1 -->
<svg width="164pt" height="173pt"
 viewBox="0.00 0.00 163.50 173.00" xmlns="http://www.w3.org/2000/svg" xmlns:xlink="http://www.w3.org/1999/xlink">
<g id="graph0" class="graph" transform="scale(1 1) rotate(0) translate(4 169)">
<title>JSRegExpStringIteratorData</title>
<!-- Node1 -->
<g id="node1" class="node">
<title>Node1</title>
<polygon fill="#bfbfbf" stroke="#000000" points="0,-.5 0,-19.5 149,-19.5 149,-.5 0,-.5"/>
<text text-anchor="middle" x="74.5" y="-7.5" font-family="Helvetica,sans-Serif" font-size="10.00" fill="#000000">JSRegExpStringIteratorData</text>
</g>
<!-- Node2 -->
<g id="node2" class="node">
<title>Node2</title>
<g id="a_node2"><a xlink:href="structJSValue.html" target="_top" xlink:title="JSValue">
<polygon fill="none" stroke="#000000" points="48,-78.5 48,-97.5 101,-97.5 101,-78.5 48,-78.5"/>
<text text-anchor="middle" x="74.5" y="-85.5" font-family="Helvetica,sans-Serif" font-size="10.00" fill="#000000">JSValue</text>
</a>
</g>
</g>
<!-- Node2&#45;&gt;Node1 -->
<g id="edge1" class="edge">
<title>Node2&#45;&gt;Node1</title>
<path fill="none" stroke="#9a32cd" stroke-dasharray="5,2" d="M74.5,-68.2866C74.5,-52.7395 74.5,-31.7276 74.5,-19.6426"/>
<polygon fill="#9a32cd" stroke="#9a32cd" points="71.0001,-68.4356 74.5,-78.4357 78.0001,-68.4357 71.0001,-68.4356"/>
<text text-anchor="middle" x="115" y="-52" font-family="Helvetica,sans-Serif" font-size="10.00" fill="#000000"> iterated_string</text>
<text text-anchor="middle" x="115" y="-41" font-family="Helvetica,sans-Serif" font-size="10.00" fill="#000000">iterating_regexp</text>
</g>
<!-- Node3 -->
<g id="node3" class="node">
<title>Node3</title>
<g id="a_node3"><a xlink:href="unionJSValueUnion.html" target="_top" xlink:title="JSValueUnion">
<polygon fill="none" stroke="#000000" points="34,-145.5 34,-164.5 115,-164.5 115,-145.5 34,-145.5"/>
<text text-anchor="middle" x="74.5" y="-152.5" font-family="Helvetica,sans-Serif" font-size="10.00" fill="#000000">JSValueUnion</text>
</a>
</g>
</g>
<!-- Node3&#45;&gt;Node2 -->
<g id="edge2" class="edge">
<title>Node3&#45;&gt;Node2</title>
<path fill="none" stroke="#9a32cd" stroke-dasharray="5,2" d="M74.5,-135.1079C74.5,-122.714 74.5,-107.3263 74.5,-97.5817"/>
<polygon fill="#9a32cd" stroke="#9a32cd" points="71.0001,-135.4005 74.5,-145.4005 78.0001,-135.4006 71.0001,-135.4005"/>
<text text-anchor="middle" x="79.5" y="-119" font-family="Helvetica,sans-Serif" font-size="10.00" fill="#000000"> u</text>
</g>
</g>
</svg>
