<?xml version="1.0" encoding="UTF-8" standalone="no"?>
<!DOCTYPE svg PUBLIC "-//W3C//DTD SVG 1.1//EN"
 "http://www.w3.org/Graphics/SVG/1.1/DTD/svg11.dtd">
<!-- Generated by graphviz version 2.40.1 (20161225.0304)
 -->
<!-- Title: JSClassDef Pages: 1 -->
<svg width="136pt" height="229pt"
 viewBox="0.00 0.00 135.50 229.00" xmlns="http://www.w3.org/2000/svg" xmlns:xlink="http://www.w3.org/1999/xlink">
<g id="graph0" class="graph" transform="scale(1 1) rotate(0) translate(4 225)">
<title>JSClassDef</title>
<!-- Node1 -->
<g id="node1" class="node">
<title>Node1</title>
<polygon fill="#bfbfbf" stroke="#000000" points="27,-.5 27,-19.5 96,-19.5 96,-.5 27,-.5"/>
<text text-anchor="middle" x="61.5" y="-7.5" font-family="Helvetica,sans-Serif" font-size="10.00" fill="#000000">JSClassDef</text>
</g>
<!-- Node2 -->
<g id="node2" class="node">
<title>Node2</title>
<g id="a_node2"><a xlink:href="structJSClassExoticMethods.html" target="_top" xlink:title="JSClassExoticMethods">
<polygon fill="none" stroke="#000000" points="0,-67.5 0,-86.5 123,-86.5 123,-67.5 0,-67.5"/>
<text text-anchor="middle" x="61.5" y="-74.5" font-family="Helvetica,sans-Serif" font-size="10.00" fill="#000000">JSClassExoticMethods</text>
</a>
</g>
</g>
<!-- Node2&#45;&gt;Node1 -->
<g id="edge1" class="edge">
<title>Node2&#45;&gt;Node1</title>
<path fill="none" stroke="#9a32cd" stroke-dasharray="5,2" d="M61.5,-57.1079C61.5,-44.714 61.5,-29.3263 61.5,-19.5817"/>
<polygon fill="#9a32cd" stroke="#9a32cd" points="58.0001,-57.4005 61.5,-67.4005 65.0001,-57.4006 58.0001,-57.4005"/>
<text text-anchor="middle" x="78.5" y="-41" font-family="Helvetica,sans-Serif" font-size="10.00" fill="#000000"> exotic</text>
</g>
<!-- Node3 -->
<g id="node3" class="node">
<title>Node3</title>
<g id="a_node3"><a xlink:href="structJSValue.html" target="_top" xlink:title="JSValue">
<polygon fill="none" stroke="#000000" points="35,-134.5 35,-153.5 88,-153.5 88,-134.5 35,-134.5"/>
<text text-anchor="middle" x="61.5" y="-141.5" font-family="Helvetica,sans-Serif" font-size="10.00" fill="#000000">JSValue</text>
</a>
</g>
</g>
<!-- Node3&#45;&gt;Node2 -->
<g id="edge2" class="edge">
<title>Node3&#45;&gt;Node2</title>
<path fill="none" stroke="#9a32cd" stroke-dasharray="5,2" d="M61.5,-124.1079C61.5,-111.714 61.5,-96.3263 61.5,-86.5817"/>
<polygon fill="#9a32cd" stroke="#9a32cd" points="58.0001,-124.4005 61.5,-134.4005 65.0001,-124.4006 58.0001,-124.4005"/>
<text text-anchor="middle" x="94.5" y="-108" font-family="Helvetica,sans-Serif" font-size="10.00" fill="#000000"> get_property</text>
</g>
<!-- Node4 -->
<g id="node4" class="node">
<title>Node4</title>
<g id="a_node4"><a xlink:href="unionJSValueUnion.html" target="_top" xlink:title="JSValueUnion">
<polygon fill="none" stroke="#000000" points="21,-201.5 21,-220.5 102,-220.5 102,-201.5 21,-201.5"/>
<text text-anchor="middle" x="61.5" y="-208.5" font-family="Helvetica,sans-Serif" font-size="10.00" fill="#000000">JSValueUnion</text>
</a>
</g>
</g>
<!-- Node4&#45;&gt;Node3 -->
<g id="edge3" class="edge">
<title>Node4&#45;&gt;Node3</title>
<path fill="none" stroke="#9a32cd" stroke-dasharray="5,2" d="M61.5,-191.1079C61.5,-178.714 61.5,-163.3263 61.5,-153.5817"/>
<polygon fill="#9a32cd" stroke="#9a32cd" points="58.0001,-191.4005 61.5,-201.4005 65.0001,-191.4006 58.0001,-191.4005"/>
<text text-anchor="middle" x="66.5" y="-175" font-family="Helvetica,sans-Serif" font-size="10.00" fill="#000000"> u</text>
</g>
</g>
</svg>
