<?xml version="1.0" encoding="UTF-8" standalone="no"?>
<!DOCTYPE svg PUBLIC "-//W3C//DTD SVG 1.1//EN"
 "http://www.w3.org/Graphics/SVG/1.1/DTD/svg11.dtd">
<!-- Generated by graphviz version 2.40.1 (20161225.0304)
 -->
<!-- Title: JSOSSignalHandler Pages: 1 -->
<svg width="197pt" height="164pt"
 viewBox="0.00 0.00 197.00 164.00" xmlns="http://www.w3.org/2000/svg" xmlns:xlink="http://www.w3.org/1999/xlink">
<g id="graph0" class="graph" transform="scale(1 1) rotate(0) translate(4 160)">
<title>JSOSSignalHandler</title>
<!-- Node1 -->
<g id="node1" class="node">
<title>Node1</title>
<polygon fill="#bfbfbf" stroke="#000000" points="35,-.5 35,-19.5 142,-19.5 142,-.5 35,-.5"/>
<text text-anchor="middle" x="88.5" y="-7.5" font-family="Helvetica,sans-Serif" font-size="10.00" fill="#000000">JSOSSignalHandler</text>
</g>
<!-- Node2 -->
<g id="node2" class="node">
<title>Node2</title>
<g id="a_node2"><a xlink:href="structlist__head.html" target="_top" xlink:title="list_head">
<polygon fill="none" stroke="#000000" points="0,-68.5 0,-87.5 61,-87.5 61,-68.5 0,-68.5"/>
<text text-anchor="middle" x="30.5" y="-75.5" font-family="Helvetica,sans-Serif" font-size="10.00" fill="#000000">list_head</text>
</a>
</g>
</g>
<!-- Node2&#45;&gt;Node1 -->
<g id="edge1" class="edge">
<title>Node2&#45;&gt;Node1</title>
<path fill="none" stroke="#9a32cd" stroke-dasharray="5,2" d="M45.4634,-60.4567C56.5212,-47.4924 71.1672,-30.3212 80.2054,-19.7247"/>
<polygon fill="#9a32cd" stroke="#9a32cd" points="42.6366,-58.3776 38.81,-68.2573 47.9624,-62.9202 42.6366,-58.3776"/>
<text text-anchor="middle" x="73.5" y="-41" font-family="Helvetica,sans-Serif" font-size="10.00" fill="#000000"> link</text>
</g>
<!-- Node2&#45;&gt;Node2 -->
<g id="edge2" class="edge">
<title>Node2&#45;&gt;Node2</title>
<path fill="none" stroke="#9a32cd" stroke-dasharray="5,2" d="M71.5828,-83.3543C76.0914,-82.3341 79,-80.5494 79,-78 79,-73.8164 71.1673,-71.6919 61.2846,-71.6266"/>
<polygon fill="#9a32cd" stroke="#9a32cd" points="70.8913,-79.9055 61.2846,-84.3734 71.5807,-86.8715 70.8913,-79.9055"/>
<text text-anchor="middle" x="91.5" y="-81" font-family="Helvetica,sans-Serif" font-size="10.00" fill="#000000"> prev</text>
<text text-anchor="middle" x="91.5" y="-70" font-family="Helvetica,sans-Serif" font-size="10.00" fill="#000000">next</text>
</g>
<!-- Node3 -->
<g id="node3" class="node">
<title>Node3</title>
<g id="a_node3"><a xlink:href="structJSValue.html" target="_top" xlink:title="JSValue">
<polygon fill="none" stroke="#000000" points="122,-68.5 122,-87.5 175,-87.5 175,-68.5 122,-68.5"/>
<text text-anchor="middle" x="148.5" y="-75.5" font-family="Helvetica,sans-Serif" font-size="10.00" fill="#000000">JSValue</text>
</a>
</g>
</g>
<!-- Node3&#45;&gt;Node1 -->
<g id="edge3" class="edge">
<title>Node3&#45;&gt;Node1</title>
<path fill="none" stroke="#9a32cd" stroke-dasharray="5,2" d="M133.0206,-60.4567C121.5815,-47.4924 106.4305,-30.3212 97.0806,-19.7247"/>
<polygon fill="#9a32cd" stroke="#9a32cd" points="130.6628,-63.0745 139.9035,-68.2573 135.9117,-58.4432 130.6628,-63.0745"/>
<text text-anchor="middle" x="134" y="-41" font-family="Helvetica,sans-Serif" font-size="10.00" fill="#000000"> func</text>
</g>
<!-- Node4 -->
<g id="node4" class="node">
<title>Node4</title>
<g id="a_node4"><a xlink:href="unionJSValueUnion.html" target="_top" xlink:title="JSValueUnion">
<polygon fill="none" stroke="#000000" points="108,-136.5 108,-155.5 189,-155.5 189,-136.5 108,-136.5"/>
<text text-anchor="middle" x="148.5" y="-143.5" font-family="Helvetica,sans-Serif" font-size="10.00" fill="#000000">JSValueUnion</text>
</a>
</g>
</g>
<!-- Node4&#45;&gt;Node3 -->
<g id="edge4" class="edge">
<title>Node4&#45;&gt;Node3</title>
<path fill="none" stroke="#9a32cd" stroke-dasharray="5,2" d="M148.5,-126.1951C148.5,-113.5514 148.5,-97.7157 148.5,-87.7247"/>
<polygon fill="#9a32cd" stroke="#9a32cd" points="145.0001,-126.2572 148.5,-136.2573 152.0001,-126.2573 145.0001,-126.2572"/>
<text text-anchor="middle" x="153.5" y="-110" font-family="Helvetica,sans-Serif" font-size="10.00" fill="#000000"> u</text>
</g>
</g>
</svg>
