<?xml version="1.0" encoding="UTF-8" standalone="no"?>
<!DOCTYPE svg PUBLIC "-//W3C//DTD SVG 1.1//EN"
 "http://www.w3.org/Graphics/SVG/1.1/DTD/svg11.dtd">
<!-- Generated by graphviz version 2.40.1 (20161225.0304)
 -->
<!-- Title: qjs::js_traits&lt; std::vector&lt; T &gt; &gt;::unwrap Pages: 1 -->
<svg width="617pt" height="142pt"
 viewBox="0.00 0.00 617.00 142.00" xmlns="http://www.w3.org/2000/svg" xmlns:xlink="http://www.w3.org/1999/xlink">
<g id="graph0" class="graph" transform="scale(1 1) rotate(0) translate(4 138)">
<title>qjs::js_traits&lt; std::vector&lt; T &gt; &gt;::unwrap</title>
<!-- Node82 -->
<g id="node1" class="node">
<title>Node82</title>
<polygon fill="#bfbfbf" stroke="#000000" points="0,-52 0,-82 135,-82 135,-52 0,-52"/>
<text text-anchor="start" x="8" y="-70" font-family="Helvetica,sans-Serif" font-size="10.00" fill="#000000">qjs::js_traits&lt; std</text>
<text text-anchor="middle" x="67.5" y="-59" font-family="Helvetica,sans-Serif" font-size="10.00" fill="#000000">::vector&lt; T &gt; &gt;::unwrap</text>
</g>
<!-- Node83 -->
<g id="node2" class="node">
<title>Node83</title>
<g id="a_node2"><a xlink:href="quickjs_8h.html#a775522f2d084fc8fa0fcb33f390006b4" target="_top" xlink:title="JS_DupValue">
<polygon fill="none" stroke="#000000" points="192,-114.5 192,-133.5 269,-133.5 269,-114.5 192,-114.5"/>
<text text-anchor="middle" x="230.5" y="-121.5" font-family="Helvetica,sans-Serif" font-size="10.00" fill="#000000">JS_DupValue</text>
</a>
</g>
</g>
<!-- Node82&#45;&gt;Node83 -->
<g id="edge1" class="edge">
<title>Node82&#45;&gt;Node83</title>
<path fill="none" stroke="#191970" d="M107.1686,-82.0156C126.377,-89.1708 149.8163,-97.7326 171,-105 177.1253,-107.1014 183.6307,-109.2563 190.0055,-111.3254"/>
<polygon fill="#191970" stroke="#191970" points="189.2509,-114.7591 199.8423,-114.4862 191.3924,-108.0947 189.2509,-114.7591"/>
</g>
<!-- Node84 -->
<g id="node3" class="node">
<title>Node84</title>
<g id="a_node3"><a xlink:href="quickjs_8c.html#a1fc2c29e89230a9792fd36ae50b270e4" target="_top" xlink:title="JS_IsArray">
<polygon fill="none" stroke="#000000" points="198,-76.5 198,-95.5 263,-95.5 263,-76.5 198,-76.5"/>
<text text-anchor="middle" x="230.5" y="-83.5" font-family="Helvetica,sans-Serif" font-size="10.00" fill="#000000">JS_IsArray</text>
</a>
</g>
</g>
<!-- Node82&#45;&gt;Node84 -->
<g id="edge2" class="edge">
<title>Node82&#45;&gt;Node84</title>
<path fill="none" stroke="#191970" d="M135.2106,-74.8926C153.005,-76.9668 171.7028,-79.1463 187.7766,-81.02"/>
<polygon fill="#191970" stroke="#191970" points="187.5866,-84.5214 197.9246,-82.2029 188.3971,-77.5685 187.5866,-84.5214"/>
</g>
<!-- Node87 -->
<g id="node6" class="node">
<title>Node87</title>
<g id="a_node6"><a xlink:href="classqjs_1_1Value.html#af11fd023b991d7d6adc5c18142ded292" target="_top" xlink:title="Access JS properties. ">
<polygon fill="none" stroke="#000000" points="171,-38.5 171,-57.5 290,-57.5 290,-38.5 171,-38.5"/>
<text text-anchor="middle" x="230.5" y="-45.5" font-family="Helvetica,sans-Serif" font-size="10.00" fill="#000000">qjs::Value::operator[]</text>
</a>
</g>
</g>
<!-- Node82&#45;&gt;Node87 -->
<g id="edge5" class="edge">
<title>Node82&#45;&gt;Node87</title>
<path fill="none" stroke="#191970" d="M135.2106,-59.1074C143.6056,-58.1288 152.2016,-57.1268 160.6282,-56.1446"/>
<polygon fill="#191970" stroke="#191970" points="161.2706,-59.5935 170.7981,-54.9591 160.4601,-52.6406 161.2706,-59.5935"/>
</g>
<!-- Node88 -->
<g id="node7" class="node">
<title>Node88</title>
<g id="a_node7"><a xlink:href="classqjs_1_1Value.html#a8e2a5be6c89f30cee044b884e30bf819" target="_top" xlink:title="Use context.newValue(val) instead. ">
<polygon fill="none" stroke="#000000" points="182,-.5 182,-19.5 279,-19.5 279,-.5 182,-.5"/>
<text text-anchor="middle" x="230.5" y="-7.5" font-family="Helvetica,sans-Serif" font-size="10.00" fill="#000000">qjs::Value::Value</text>
</a>
</g>
</g>
<!-- Node82&#45;&gt;Node88 -->
<g id="edge6" class="edge">
<title>Node82&#45;&gt;Node88</title>
<path fill="none" stroke="#191970" d="M107.1686,-51.9844C126.377,-44.8292 149.8163,-36.2674 171,-29 177.1253,-26.8986 183.6307,-24.7437 190.0055,-22.6746"/>
<polygon fill="#191970" stroke="#191970" points="191.3924,-25.9053 199.8423,-19.5138 189.2509,-19.2409 191.3924,-25.9053"/>
</g>
<!-- Node85 -->
<g id="node4" class="node">
<title>Node85</title>
<g id="a_node4"><a xlink:href="quickjs_8c.html#a91b2b06caf6cc28b1edf48334b95b51a" target="_top" xlink:title="js_proxy_isArray">
<polygon fill="none" stroke="#000000" points="326,-76.5 326,-95.5 424,-95.5 424,-76.5 326,-76.5"/>
<text text-anchor="middle" x="375" y="-83.5" font-family="Helvetica,sans-Serif" font-size="10.00" fill="#000000">js_proxy_isArray</text>
</a>
</g>
</g>
<!-- Node84&#45;&gt;Node85 -->
<g id="edge3" class="edge">
<title>Node84&#45;&gt;Node85</title>
<path fill="none" stroke="#191970" d="M263.2893,-86C278.8143,-86 297.846,-86 315.7716,-86"/>
<polygon fill="#191970" stroke="#191970" points="315.8741,-89.5001 325.8741,-86 315.8741,-82.5001 315.8741,-89.5001"/>
</g>
<!-- Node86 -->
<g id="node5" class="node">
<title>Node86</title>
<g id="a_node5"><a xlink:href="quickjs_8c.html#a199d64ccbee0a90d93e1ad12745417f6" target="_top" xlink:title="JS_ThrowTypeErrorRevoked\lProxy">
<polygon fill="none" stroke="#000000" points="460,-71 460,-101 609,-101 609,-71 460,-71"/>
<text text-anchor="start" x="468" y="-89" font-family="Helvetica,sans-Serif" font-size="10.00" fill="#000000">JS_ThrowTypeErrorRevoked</text>
<text text-anchor="middle" x="534.5" y="-78" font-family="Helvetica,sans-Serif" font-size="10.00" fill="#000000">Proxy</text>
</a>
</g>
</g>
<!-- Node85&#45;&gt;Node86 -->
<g id="edge4" class="edge">
<title>Node85&#45;&gt;Node86</title>
<path fill="none" stroke="#191970" d="M424.1567,-86C432.3146,-86 440.9759,-86 449.7181,-86"/>
<polygon fill="#191970" stroke="#191970" points="449.9927,-89.5001 459.9926,-86 449.9926,-82.5001 449.9927,-89.5001"/>
</g>
<!-- Node89 -->
<g id="node8" class="node">
<title>Node89</title>
<g id="a_node8"><a xlink:href="quickjs_8h.html#ad80a83d73e9b7d872b88fbf2943aebe9" target="_top" xlink:title="JS_IsException">
<polygon fill="none" stroke="#000000" points="331.5,-.5 331.5,-19.5 418.5,-19.5 418.5,-.5 331.5,-.5"/>
<text text-anchor="middle" x="375" y="-7.5" font-family="Helvetica,sans-Serif" font-size="10.00" fill="#000000">JS_IsException</text>
</a>
</g>
</g>
<!-- Node88&#45;&gt;Node89 -->
<g id="edge7" class="edge">
<title>Node88&#45;&gt;Node89</title>
<path fill="none" stroke="#191970" d="M279.0184,-10C292.4775,-10 307.1727,-10 320.9277,-10"/>
<polygon fill="#191970" stroke="#191970" points="321.2271,-13.5001 331.227,-10 321.227,-6.5001 321.2271,-13.5001"/>
</g>
</g>
</svg>
