<?xml version="1.0" encoding="UTF-8" standalone="no"?>
<!DOCTYPE svg PUBLIC "-//W3C//DTD SVG 1.1//EN"
 "http://www.w3.org/Graphics/SVG/1.1/DTD/svg11.dtd">
<!-- Generated by graphviz version 2.40.1 (20161225.0304)
 -->
<!-- Title: JSVarRef Pages: 1 -->
<svg width="220pt" height="175pt"
 viewBox="0.00 0.00 220.00 175.00" xmlns="http://www.w3.org/2000/svg" xmlns:xlink="http://www.w3.org/1999/xlink">
<g id="graph0" class="graph" transform="scale(1 1) rotate(0) translate(4 171)">
<title>JSVarRef</title>
<!-- Node1 -->
<g id="node1" class="node">
<title>Node1</title>
<polygon fill="#bfbfbf" stroke="#000000" points="61,-.5 61,-19.5 118,-19.5 118,-.5 61,-.5"/>
<text text-anchor="middle" x="89.5" y="-7.5" font-family="Helvetica,sans-Serif" font-size="10.00" fill="#000000">JSVarRef</text>
</g>
<!-- Node2 -->
<g id="node2" class="node">
<title>Node2</title>
<g id="a_node2"><a xlink:href="structJSValue.html" target="_top" xlink:title="JSValue">
<polygon fill="none" stroke="#000000" points="14,-78.5 14,-97.5 67,-97.5 67,-78.5 14,-78.5"/>
<text text-anchor="middle" x="40.5" y="-85.5" font-family="Helvetica,sans-Serif" font-size="10.00" fill="#000000">JSValue</text>
</a>
</g>
</g>
<!-- Node2&#45;&gt;Node1 -->
<g id="edge1" class="edge">
<title>Node2&#45;&gt;Node1</title>
<path fill="none" stroke="#9a32cd" stroke-dasharray="5,2" d="M50.7993,-69.2825C56.1657,-59.7833 62.9595,-48.1389 69.5,-38 73.5155,-31.7753 78.3334,-25.0114 82.2342,-19.6911"/>
<polygon fill="#9a32cd" stroke="#9a32cd" points="47.6106,-67.8142 45.7941,-78.2522 53.7233,-71.2253 47.6106,-67.8142"/>
<text text-anchor="middle" x="88" y="-52" font-family="Helvetica,sans-Serif" font-size="10.00" fill="#000000"> pvalue</text>
<text text-anchor="middle" x="88" y="-41" font-family="Helvetica,sans-Serif" font-size="10.00" fill="#000000">value</text>
</g>
<!-- Node3 -->
<g id="node3" class="node">
<title>Node3</title>
<g id="a_node3"><a xlink:href="unionJSValueUnion.html" target="_top" xlink:title="JSValueUnion">
<polygon fill="none" stroke="#000000" points="0,-146.5 0,-165.5 81,-165.5 81,-146.5 0,-146.5"/>
<text text-anchor="middle" x="40.5" y="-153.5" font-family="Helvetica,sans-Serif" font-size="10.00" fill="#000000">JSValueUnion</text>
</a>
</g>
</g>
<!-- Node3&#45;&gt;Node2 -->
<g id="edge2" class="edge">
<title>Node3&#45;&gt;Node2</title>
<path fill="none" stroke="#9a32cd" stroke-dasharray="5,2" d="M40.5,-136.1951C40.5,-123.5514 40.5,-107.7157 40.5,-97.7247"/>
<polygon fill="#9a32cd" stroke="#9a32cd" points="37.0001,-136.2572 40.5,-146.2573 44.0001,-136.2573 37.0001,-136.2572"/>
<text text-anchor="middle" x="45.5" y="-119" font-family="Helvetica,sans-Serif" font-size="10.00" fill="#000000"> u</text>
</g>
<!-- Node4 -->
<g id="node4" class="node">
<title>Node4</title>
<g id="a_node4"><a xlink:href="structJSGCObjectHeader.html" target="_top" xlink:title="JSGCObjectHeader">
<polygon fill="none" stroke="#000000" points="85,-78.5 85,-97.5 192,-97.5 192,-78.5 85,-78.5"/>
<text text-anchor="middle" x="138.5" y="-85.5" font-family="Helvetica,sans-Serif" font-size="10.00" fill="#000000">JSGCObjectHeader</text>
</a>
</g>
</g>
<!-- Node4&#45;&gt;Node1 -->
<g id="edge3" class="edge">
<title>Node4&#45;&gt;Node1</title>
<path fill="none" stroke="#9a32cd" stroke-dasharray="5,2" d="M126.9604,-69.6308C117.1229,-53.9711 103.3705,-32.0796 95.5575,-19.6426"/>
<polygon fill="#9a32cd" stroke="#9a32cd" points="124.2084,-71.8297 132.4916,-78.4357 130.1358,-68.1061 124.2084,-71.8297"/>
<text text-anchor="middle" x="138" y="-46.5" font-family="Helvetica,sans-Serif" font-size="10.00" fill="#000000"> header</text>
</g>
<!-- Node5 -->
<g id="node5" class="node">
<title>Node5</title>
<g id="a_node5"><a xlink:href="structlist__head.html" target="_top" xlink:title="list_head">
<polygon fill="none" stroke="#000000" points="108,-146.5 108,-165.5 169,-165.5 169,-146.5 108,-146.5"/>
<text text-anchor="middle" x="138.5" y="-153.5" font-family="Helvetica,sans-Serif" font-size="10.00" fill="#000000">list_head</text>
</a>
</g>
</g>
<!-- Node5&#45;&gt;Node4 -->
<g id="edge4" class="edge">
<title>Node5&#45;&gt;Node4</title>
<path fill="none" stroke="#9a32cd" stroke-dasharray="5,2" d="M138.5,-136.1951C138.5,-123.5514 138.5,-107.7157 138.5,-97.7247"/>
<polygon fill="#9a32cd" stroke="#9a32cd" points="135.0001,-136.2572 138.5,-146.2573 142.0001,-136.2573 135.0001,-136.2572"/>
<text text-anchor="middle" x="149.5" y="-119" font-family="Helvetica,sans-Serif" font-size="10.00" fill="#000000"> link</text>
</g>
<!-- Node5&#45;&gt;Node5 -->
<g id="edge5" class="edge">
<title>Node5&#45;&gt;Node5</title>
<path fill="none" stroke="#9a32cd" stroke-dasharray="5,2" d="M179.5828,-161.3543C184.0914,-160.3341 187,-158.5494 187,-156 187,-151.8164 179.1673,-149.6919 169.2846,-149.6266"/>
<polygon fill="#9a32cd" stroke="#9a32cd" points="178.8913,-157.9055 169.2846,-162.3734 179.5807,-164.8715 178.8913,-157.9055"/>
<text text-anchor="middle" x="199.5" y="-159" font-family="Helvetica,sans-Serif" font-size="10.00" fill="#000000"> prev</text>
<text text-anchor="middle" x="199.5" y="-148" font-family="Helvetica,sans-Serif" font-size="10.00" fill="#000000">next</text>
</g>
</g>
</svg>
