<?xml version="1.0" encoding="UTF-8" standalone="no"?>
<!DOCTYPE svg PUBLIC "-//W3C//DTD SVG 1.1//EN"
 "http://www.w3.org/Graphics/SVG/1.1/DTD/svg11.dtd">
<!-- Generated by graphviz version 2.40.1 (20161225.0304)
 -->
<!-- Title: qjs::js_traits&lt; detail::function &gt;::register_class Pages: 1 -->
<svg width="759pt" height="349pt"
 viewBox="0.00 0.00 759.00 348.60" xmlns="http://www.w3.org/2000/svg" xmlns:xlink="http://www.w3.org/1999/xlink">
<g id="graph0" class="graph" transform="scale(1 1) rotate(0) translate(4 344.5981)">
<title>qjs::js_traits&lt; detail::function &gt;::register_class</title>
<!-- Node0 -->
<g id="node1" class="node">
<title>Node0</title>
<polygon fill="#bfbfbf" stroke="#000000" points="0,-210 0,-240 147,-240 147,-210 0,-210"/>
<text text-anchor="start" x="8" y="-228" font-family="Helvetica,sans-Serif" font-size="10.00" fill="#000000">qjs::js_traits&lt; detail</text>
<text text-anchor="middle" x="73.5" y="-217" font-family="Helvetica,sans-Serif" font-size="10.00" fill="#000000">::function &gt;::register_class</text>
</g>
<!-- Node1 -->
<g id="node2" class="node">
<title>Node1</title>
<g id="a_node2"><a xlink:href="quickjs_8c.html#a69e19dda8a93d613203e0baa06f0ed8d" target="_top" xlink:title="js_free_rt">
<polygon fill="none" stroke="#000000" points="668,-291.5 668,-310.5 730,-310.5 730,-291.5 668,-291.5"/>
<text text-anchor="middle" x="699" y="-298.5" font-family="Helvetica,sans-Serif" font-size="10.00" fill="#000000">js_free_rt</text>
</a>
</g>
</g>
<!-- Node0&#45;&gt;Node1 -->
<g id="edge1" class="edge">
<title>Node0&#45;&gt;Node1</title>
<path fill="none" stroke="#191970" d="M88.5661,-240.1983C108.3162,-259.0543 144.9434,-290.4862 183,-305 349.4371,-368.4746 568.6176,-330.9338 658.2021,-311.0038"/>
<polygon fill="#191970" stroke="#191970" points="658.9955,-314.4128 667.9719,-308.7847 657.445,-307.5867 658.9955,-314.4128"/>
</g>
<!-- Node2 -->
<g id="node3" class="node">
<title>Node2</title>
<g id="a_node3"><a xlink:href="quickjs_8c.html#a5644dc5dba0d760dcc06cc1a79e256cc" target="_top" xlink:title="JS_GetOpaque">
<polygon fill="none" stroke="#000000" points="363,-291.5 363,-310.5 449,-310.5 449,-291.5 363,-291.5"/>
<text text-anchor="middle" x="406" y="-298.5" font-family="Helvetica,sans-Serif" font-size="10.00" fill="#000000">JS_GetOpaque</text>
</a>
</g>
</g>
<!-- Node0&#45;&gt;Node2 -->
<g id="edge2" class="edge">
<title>Node0&#45;&gt;Node2</title>
<path fill="none" stroke="#191970" d="M95.8735,-240.0317C117.2536,-253.5532 150.8914,-272.681 183,-282 239.3743,-298.3618 306.8734,-302.0292 352.7342,-302.2868"/>
<polygon fill="#191970" stroke="#191970" points="352.7527,-305.7868 362.7541,-302.2908 352.7555,-298.7868 352.7527,-305.7868"/>
</g>
<!-- Node3 -->
<g id="node4" class="node">
<title>Node3</title>
<g id="a_node4"><a xlink:href="quickjs_8c.html#a1951b8aab94369f326d8c0720097c523" target="_top" xlink:title="JS_GetOpaque2">
<polygon fill="none" stroke="#000000" points="195.5,-253.5 195.5,-272.5 287.5,-272.5 287.5,-253.5 195.5,-253.5"/>
<text text-anchor="middle" x="241.5" y="-260.5" font-family="Helvetica,sans-Serif" font-size="10.00" fill="#000000">JS_GetOpaque2</text>
</a>
</g>
</g>
<!-- Node0&#45;&gt;Node3 -->
<g id="edge3" class="edge">
<title>Node0&#45;&gt;Node3</title>
<path fill="none" stroke="#191970" d="M139.898,-240.0186C156.2996,-243.7285 173.6385,-247.6504 189.2591,-251.1836"/>
<polygon fill="#191970" stroke="#191970" points="188.7231,-254.6507 199.2489,-253.4432 190.2674,-247.8232 188.7231,-254.6507"/>
</g>
<!-- Node5 -->
<g id="node6" class="node">
<title>Node5</title>
<g id="a_node6"><a xlink:href="quickjs_8c.html#af1866c7f8a91153f11602a2b521d9399" target="_top" xlink:title="JS_GetRuntime">
<polygon fill="none" stroke="#000000" points="197,-215.5 197,-234.5 286,-234.5 286,-215.5 197,-215.5"/>
<text text-anchor="middle" x="241.5" y="-222.5" font-family="Helvetica,sans-Serif" font-size="10.00" fill="#000000">JS_GetRuntime</text>
</a>
</g>
</g>
<!-- Node0&#45;&gt;Node5 -->
<g id="edge6" class="edge">
<title>Node0&#45;&gt;Node5</title>
<path fill="none" stroke="#191970" d="M147.1872,-225C160.4117,-225 173.9824,-225 186.5614,-225"/>
<polygon fill="#191970" stroke="#191970" points="186.8651,-228.5001 196.8651,-225 186.8651,-221.5001 186.8651,-228.5001"/>
</g>
<!-- Node6 -->
<g id="node7" class="node">
<title>Node6</title>
<g id="a_node7"><a xlink:href="quickjs_8c.html#a3f0ebc39396c0cd909ec04585f92b1b9" target="_top" xlink:title="JS_IsRegisteredClass">
<polygon fill="none" stroke="#000000" points="183,-177.5 183,-196.5 300,-196.5 300,-177.5 183,-177.5"/>
<text text-anchor="middle" x="241.5" y="-184.5" font-family="Helvetica,sans-Serif" font-size="10.00" fill="#000000">JS_IsRegisteredClass</text>
</a>
</g>
</g>
<!-- Node0&#45;&gt;Node6 -->
<g id="edge7" class="edge">
<title>Node0&#45;&gt;Node6</title>
<path fill="none" stroke="#191970" d="M139.898,-209.9814C156.2996,-206.2715 173.6385,-202.3496 189.2591,-198.8164"/>
<polygon fill="#191970" stroke="#191970" points="190.2674,-202.1768 199.2489,-196.5568 188.7231,-195.3493 190.2674,-202.1768"/>
</g>
<!-- Node7 -->
<g id="node8" class="node">
<title>Node7</title>
<g id="a_node8"><a xlink:href="quickjs_8c.html#a9f0339d81c06451de278073572cc194e" target="_top" xlink:title="JS_NewClass">
<polygon fill="none" stroke="#000000" points="202,-139.5 202,-158.5 281,-158.5 281,-139.5 202,-139.5"/>
<text text-anchor="middle" x="241.5" y="-146.5" font-family="Helvetica,sans-Serif" font-size="10.00" fill="#000000">JS_NewClass</text>
</a>
</g>
</g>
<!-- Node0&#45;&gt;Node7 -->
<g id="edge8" class="edge">
<title>Node0&#45;&gt;Node7</title>
<path fill="none" stroke="#191970" d="M99.4628,-209.9217C121.2875,-197.6307 153.5501,-180.347 183,-168 188.1702,-165.8324 193.6801,-163.7547 199.173,-161.8213"/>
<polygon fill="#191970" stroke="#191970" points="200.6138,-165.0288 208.9648,-158.5087 198.3705,-158.398 200.6138,-165.0288"/>
</g>
<!-- Node30 -->
<g id="node20" class="node">
<title>Node30</title>
<g id="a_node20"><a xlink:href="quickjs_8c.html#a4f56d0a794368a8861c89819fc79cdb5" target="_top" xlink:title="JS_NewClassID">
<polygon fill="none" stroke="#000000" points="197,-101.5 197,-120.5 286,-120.5 286,-101.5 197,-101.5"/>
<text text-anchor="middle" x="241.5" y="-108.5" font-family="Helvetica,sans-Serif" font-size="10.00" fill="#000000">JS_NewClassID</text>
</a>
</g>
</g>
<!-- Node0&#45;&gt;Node30 -->
<g id="edge25" class="edge">
<title>Node0&#45;&gt;Node30</title>
<path fill="none" stroke="#191970" d="M87.2671,-209.7039C106.7175,-188.9396 144.2163,-151.9148 183,-130 186.713,-127.902 190.6912,-125.9961 194.7616,-124.2736"/>
<polygon fill="#191970" stroke="#191970" points="196.271,-127.443 204.3449,-120.5828 193.7552,-120.9107 196.271,-127.443"/>
</g>
<!-- Node3&#45;&gt;Node2 -->
<g id="edge4" class="edge">
<title>Node3&#45;&gt;Node2</title>
<path fill="none" stroke="#191970" d="M283.0103,-272.589C304.8156,-277.6261 331.7318,-283.8438 354.8191,-289.1771"/>
<polygon fill="#191970" stroke="#191970" points="354.257,-292.6393 364.7882,-291.4799 355.8326,-285.8189 354.257,-292.6393"/>
</g>
<!-- Node4 -->
<g id="node5" class="node">
<title>Node4</title>
<g id="a_node5"><a xlink:href="quickjs_8c.html#ab0f713d7a2440dbb2673810323a9a78d" target="_top" xlink:title="JS_ThrowTypeErrorInvalid\lClass">
<polygon fill="none" stroke="#000000" points="336,-242 336,-272 476,-272 476,-242 336,-242"/>
<text text-anchor="start" x="344" y="-260" font-family="Helvetica,sans-Serif" font-size="10.00" fill="#000000">JS_ThrowTypeErrorInvalid</text>
<text text-anchor="middle" x="406" y="-249" font-family="Helvetica,sans-Serif" font-size="10.00" fill="#000000">Class</text>
</a>
</g>
</g>
<!-- Node3&#45;&gt;Node4 -->
<g id="edge5" class="edge">
<title>Node3&#45;&gt;Node4</title>
<path fill="none" stroke="#191970" d="M287.7602,-261.3127C299.5327,-260.8833 312.5305,-260.4092 325.4715,-259.9372"/>
<polygon fill="#191970" stroke="#191970" points="325.9474,-263.4223 335.8132,-259.56 325.6922,-256.4269 325.9474,-263.4223"/>
</g>
<!-- Node8 -->
<g id="node9" class="node">
<title>Node8</title>
<g id="a_node9"><a xlink:href="quickjs_8c.html#ac8c91ebeea0cf07e3079c49a16de739f" target="_top" xlink:title="__JS_FindAtom">
<polygon fill="none" stroke="#000000" points="362.5,-38.5 362.5,-57.5 449.5,-57.5 449.5,-38.5 362.5,-38.5"/>
<text text-anchor="middle" x="406" y="-45.5" font-family="Helvetica,sans-Serif" font-size="10.00" fill="#000000">__JS_FindAtom</text>
</a>
</g>
</g>
<!-- Node7&#45;&gt;Node8 -->
<g id="edge9" class="edge">
<title>Node7&#45;&gt;Node8</title>
<path fill="none" stroke="#191970" d="M277.5685,-139.4441C285.1784,-136.838 293.0138,-133.6926 300,-130 318.1111,-120.4272 361.4612,-85.2249 386.7586,-64.1819"/>
<polygon fill="#191970" stroke="#191970" points="389.1523,-66.7429 394.5832,-57.6459 384.6646,-61.3706 389.1523,-66.7429"/>
</g>
<!-- Node11 -->
<g id="node12" class="node">
<title>Node11</title>
<g id="a_node12"><a xlink:href="quickjs_8c.html#a128673f932e71b867730af75a44e3f97" target="_top" xlink:title="__JS_NewAtomInit">
<polygon fill="none" stroke="#000000" points="353.5,-203.5 353.5,-222.5 458.5,-222.5 458.5,-203.5 353.5,-203.5"/>
<text text-anchor="middle" x="406" y="-210.5" font-family="Helvetica,sans-Serif" font-size="10.00" fill="#000000">__JS_NewAtomInit</text>
</a>
</g>
</g>
<!-- Node7&#45;&gt;Node11 -->
<g id="edge12" class="edge">
<title>Node7&#45;&gt;Node11</title>
<path fill="none" stroke="#191970" d="M272.6424,-158.5567C281.5346,-161.436 291.1979,-164.7094 300,-168 325.8661,-177.6698 354.6783,-190.0051 375.7274,-199.3145"/>
<polygon fill="#191970" stroke="#191970" points="374.5423,-202.618 385.1014,-203.4873 377.389,-196.223 374.5423,-202.618"/>
</g>
<!-- Node26 -->
<g id="node16" class="node">
<title>Node26</title>
<g id="a_node16"><a xlink:href="quickjs_8c.html#a5a0aca30abbb4d4ae86746541bf4cbc7" target="_top" xlink:title="JS_FreeAtomRT">
<polygon fill="none" stroke="#000000" points="361.5,-114.5 361.5,-133.5 450.5,-133.5 450.5,-114.5 361.5,-114.5"/>
<text text-anchor="middle" x="406" y="-121.5" font-family="Helvetica,sans-Serif" font-size="10.00" fill="#000000">JS_FreeAtomRT</text>
</a>
</g>
</g>
<!-- Node7&#45;&gt;Node26 -->
<g id="edge18" class="edge">
<title>Node7&#45;&gt;Node26</title>
<path fill="none" stroke="#191970" d="M281.3209,-142.9482C302.3595,-139.7508 328.4983,-135.7784 351.4004,-132.2978"/>
<polygon fill="#191970" stroke="#191970" points="351.9674,-135.7519 361.328,-130.7891 350.9156,-128.8314 351.9674,-135.7519"/>
</g>
<!-- Node28 -->
<g id="node18" class="node">
<title>Node28</title>
<g id="a_node18"><a xlink:href="quickjs_8c.html#ab515cd66efd3e476d2c22d6a55f13194" target="_top" xlink:title="JS_NewClass1">
<polygon fill="none" stroke="#000000" points="363.5,-152.5 363.5,-171.5 448.5,-171.5 448.5,-152.5 363.5,-152.5"/>
<text text-anchor="middle" x="406" y="-159.5" font-family="Helvetica,sans-Serif" font-size="10.00" fill="#000000">JS_NewClass1</text>
</a>
</g>
</g>
<!-- Node7&#45;&gt;Node28 -->
<g id="edge21" class="edge">
<title>Node7&#45;&gt;Node28</title>
<path fill="none" stroke="#191970" d="M281.3209,-152.1469C302.9393,-153.8554 329.9429,-155.9894 353.2863,-157.8342"/>
<polygon fill="#191970" stroke="#191970" points="353.1351,-161.333 363.3797,-158.6318 353.6866,-154.3548 353.1351,-161.333"/>
</g>
<!-- Node9 -->
<g id="node10" class="node">
<title>Node9</title>
<g id="a_node10"><a xlink:href="quickjs_8c.html#a7f6796ee7a195631366f57c713a33f65" target="_top" xlink:title="__JS_AtomIsConst">
<polygon fill="none" stroke="#000000" points="647,-114.5 647,-133.5 751,-133.5 751,-114.5 647,-114.5"/>
<text text-anchor="middle" x="699" y="-121.5" font-family="Helvetica,sans-Serif" font-size="10.00" fill="#000000">__JS_AtomIsConst</text>
</a>
</g>
</g>
<!-- Node8&#45;&gt;Node9 -->
<g id="edge10" class="edge">
<title>Node8&#45;&gt;Node9</title>
<path fill="none" stroke="#191970" d="M447.7683,-57.5671C489.2999,-67.2256 554.7594,-82.8425 611,-98 626.4972,-102.1767 643.4263,-107.0929 658.2599,-111.5196"/>
<polygon fill="#191970" stroke="#191970" points="657.5671,-114.9659 668.1513,-114.4909 659.581,-108.2619 657.5671,-114.9659"/>
</g>
<!-- Node10 -->
<g id="node11" class="node">
<title>Node10</title>
<g id="a_node11"><a xlink:href="quickjs_8c.html#a7f3a538c8f7ee373cfe88625181739ad" target="_top" xlink:title="hash_string8">
<polygon fill="none" stroke="#000000" points="522,-.5 522,-19.5 601,-19.5 601,-.5 522,-.5"/>
<text text-anchor="middle" x="561.5" y="-7.5" font-family="Helvetica,sans-Serif" font-size="10.00" fill="#000000">hash_string8</text>
</a>
</g>
</g>
<!-- Node8&#45;&gt;Node10 -->
<g id="edge11" class="edge">
<title>Node8&#45;&gt;Node10</title>
<path fill="none" stroke="#191970" d="M445.2392,-38.411C465.7591,-33.3965 491.067,-27.2119 512.8255,-21.8947"/>
<polygon fill="#191970" stroke="#191970" points="513.6597,-25.294 522.543,-19.5201 511.9979,-18.494 513.6597,-25.294"/>
</g>
<!-- Node12 -->
<g id="node13" class="node">
<title>Node12</title>
<g id="a_node13"><a xlink:href="quickjs_8c.html#acd08798ec15cc37c60d2e7d70007c6a8" target="_top" xlink:title="__JS_NewAtom">
<polygon fill="none" stroke="#ff0000" points="517,-228.5 517,-247.5 606,-247.5 606,-228.5 517,-228.5"/>
<text text-anchor="middle" x="561.5" y="-235.5" font-family="Helvetica,sans-Serif" font-size="10.00" fill="#000000">__JS_NewAtom</text>
</a>
</g>
</g>
<!-- Node11&#45;&gt;Node12 -->
<g id="edge13" class="edge">
<title>Node11&#45;&gt;Node12</title>
<path fill="none" stroke="#191970" d="M458.6452,-221.4639C474.1847,-223.9622 491.223,-226.7015 506.8837,-229.2192"/>
<polygon fill="#191970" stroke="#191970" points="506.5176,-232.7053 516.9464,-230.837 507.6288,-225.794 506.5176,-232.7053"/>
</g>
<!-- Node25 -->
<g id="node15" class="node">
<title>Node25</title>
<g id="a_node15"><a xlink:href="quickjs_8c.html#a5837dfc67b8f09e0579a28c827b39d93" target="_top" xlink:title="js_alloc_string_rt">
<polygon fill="none" stroke="#000000" points="512,-266.5 512,-285.5 611,-285.5 611,-266.5 512,-266.5"/>
<text text-anchor="middle" x="561.5" y="-273.5" font-family="Helvetica,sans-Serif" font-size="10.00" fill="#000000">js_alloc_string_rt</text>
</a>
</g>
</g>
<!-- Node11&#45;&gt;Node25 -->
<g id="edge17" class="edge">
<title>Node11&#45;&gt;Node25</title>
<path fill="none" stroke="#191970" d="M450.1367,-222.5105C458.9025,-225.0811 467.8958,-228.2241 476,-232 493.6572,-240.2269 494.7827,-247.8884 512,-257 515.7527,-258.986 519.7601,-260.8731 523.8085,-262.6326"/>
<polygon fill="#191970" stroke="#191970" points="522.6484,-265.9396 533.2288,-266.4926 525.3026,-259.4623 522.6484,-265.9396"/>
</g>
<!-- Node12&#45;&gt;Node1 -->
<g id="edge15" class="edge">
<title>Node12&#45;&gt;Node1</title>
<path fill="none" stroke="#191970" d="M587.8968,-247.5878C595.4218,-250.4675 603.5874,-253.7334 611,-257 631.8376,-266.1826 654.8369,-277.7335 672.0956,-286.696"/>
<polygon fill="#191970" stroke="#191970" points="670.5599,-289.8426 681.043,-291.3774 673.805,-283.6402 670.5599,-289.8426"/>
</g>
<!-- Node12&#45;&gt;Node9 -->
<g id="edge14" class="edge">
<title>Node12&#45;&gt;Node9</title>
<path fill="none" stroke="#191970" d="M573.2232,-228.2804C596.8669,-208.6777 650.4799,-164.2276 679.4879,-140.1773"/>
<polygon fill="#191970" stroke="#191970" points="681.8421,-142.772 687.3065,-133.695 677.3743,-137.3832 681.8421,-142.772"/>
</g>
<!-- Node24 -->
<g id="node14" class="node">
<title>Node24</title>
<g id="a_node14"><a xlink:href="cutils_8h.html#a94f155fcce337a2b9d4719ed8042cbbe" target="_top" xlink:title="max_int">
<polygon fill="none" stroke="#000000" points="671,-209.5 671,-228.5 727,-228.5 727,-209.5 671,-209.5"/>
<text text-anchor="middle" x="699" y="-216.5" font-family="Helvetica,sans-Serif" font-size="10.00" fill="#000000">max_int</text>
</a>
</g>
</g>
<!-- Node12&#45;&gt;Node24 -->
<g id="edge16" class="edge">
<title>Node12&#45;&gt;Node24</title>
<path fill="none" stroke="#191970" d="M606.1423,-231.8312C623.8056,-229.3905 643.8997,-226.6139 660.8671,-224.2693"/>
<polygon fill="#191970" stroke="#191970" points="661.5512,-227.7081 670.978,-222.8721 660.593,-220.774 661.5512,-227.7081"/>
</g>
<!-- Node26&#45;&gt;Node9 -->
<g id="edge19" class="edge">
<title>Node26&#45;&gt;Node9</title>
<path fill="none" stroke="#191970" d="M449.0876,-114.4884C468.2465,-110.723 491.1427,-106.8545 512,-105 555.8271,-101.1032 567.2485,-100.3306 611,-105 624.8708,-106.4804 639.766,-109.2379 653.2853,-112.2021"/>
<polygon fill="#191970" stroke="#191970" points="652.7875,-115.6784 663.3156,-114.4914 654.3451,-108.8539 652.7875,-115.6784"/>
</g>
<!-- Node27 -->
<g id="node17" class="node">
<title>Node27</title>
<g id="a_node17"><a xlink:href="quickjs_8c.html#a0bbd9e3ecd55e3ea6c9d44bfda382095" target="_top" xlink:title="__JS_FreeAtom">
<polygon fill="none" stroke="#ff0000" points="517.5,-114.5 517.5,-133.5 605.5,-133.5 605.5,-114.5 517.5,-114.5"/>
<text text-anchor="middle" x="561.5" y="-121.5" font-family="Helvetica,sans-Serif" font-size="10.00" fill="#000000">__JS_FreeAtom</text>
</a>
</g>
</g>
<!-- Node26&#45;&gt;Node27 -->
<g id="edge20" class="edge">
<title>Node26&#45;&gt;Node27</title>
<path fill="none" stroke="#191970" d="M450.5601,-124C468.2793,-124 488.8298,-124 507.3931,-124"/>
<polygon fill="#191970" stroke="#191970" points="507.4711,-127.5001 517.4711,-124 507.471,-120.5001 507.4711,-127.5001"/>
</g>
<!-- Node28&#45;&gt;Node24 -->
<g id="edge24" class="edge">
<title>Node28&#45;&gt;Node24</title>
<path fill="none" stroke="#191970" d="M448.6047,-170.2883C505.7126,-181.398 606.2161,-200.9499 660.9187,-211.5917"/>
<polygon fill="#191970" stroke="#191970" points="660.4164,-215.0595 670.9007,-213.5336 661.7531,-208.1883 660.4164,-215.0595"/>
</g>
<!-- Node29 -->
<g id="node19" class="node">
<title>Node29</title>
<g id="a_node19"><a xlink:href="quickjs_8c.html#aa1e14f2e125d8bad48dd20650505f4fa" target="_top" xlink:title="JS_DupAtomRT">
<polygon fill="none" stroke="#000000" points="517,-152.5 517,-171.5 606,-171.5 606,-152.5 517,-152.5"/>
<text text-anchor="middle" x="561.5" y="-159.5" font-family="Helvetica,sans-Serif" font-size="10.00" fill="#000000">JS_DupAtomRT</text>
</a>
</g>
</g>
<!-- Node28&#45;&gt;Node29 -->
<g id="edge22" class="edge">
<title>Node28&#45;&gt;Node29</title>
<path fill="none" stroke="#191970" d="M448.9027,-162C466.81,-162 487.827,-162 506.8232,-162"/>
<polygon fill="#191970" stroke="#191970" points="506.8399,-165.5001 516.8399,-162 506.8398,-158.5001 506.8399,-165.5001"/>
</g>
<!-- Node29&#45;&gt;Node9 -->
<g id="edge23" class="edge">
<title>Node29&#45;&gt;Node9</title>
<path fill="none" stroke="#191970" d="M596.1971,-152.411C613.8656,-147.5281 635.5485,-141.5357 654.439,-136.315"/>
<polygon fill="#191970" stroke="#191970" points="655.6077,-139.6233 664.314,-133.5859 653.743,-132.8762 655.6077,-139.6233"/>
</g>
</g>
</svg>
